<svg width="390" height="87" viewBox="0 0 390 87" fill="none" xmlns="http://www.w3.org/2000/svg">
<g opacity="0.3" filter="url(#filter0_d_36224_1947)">
<path d="M6.52 30.888C6.69067 30.8453 10.2427 30.824 17.176 30.824L27.64 30.856L28.024 31.048C28.5787 31.304 28.9733 31.688 29.208 32.2L29.464 32.648L29.464 53.928L29.208 54.376C28.7387 55.2293 28.0027 55.656 27 55.656C25.976 55.656 25.24 55.1867 24.792 54.248L24.568 53.8C24.568 52.008 24.5573 49.3307 24.536 45.768C24.5147 42.2053 24.504 39.5387 24.504 37.768L24.312 37.352C24.0987 36.8827 23.7147 36.4987 23.16 36.2L22.84 36.008H11.448L11.128 36.2C10.5733 36.4773 10.1787 36.8827 9.944 37.416L9.784 37.768C9.784 39.5387 9.77333 42.2053 9.752 45.768C9.73067 49.3307 9.72 52.008 9.72 53.8L9.496 54.248C9.09067 55.144 8.38667 55.624 7.384 55.688C7.04267 55.7307 6.744 55.7093 6.488 55.624C5.89067 55.4533 5.41067 55.1227 5.048 54.632C4.92 54.44 4.83467 54.312 4.792 54.248C4.77067 54.2053 4.728 53.9813 4.664 53.576C4.62133 53.192 4.6 52.6587 4.6 51.976C4.6 51.272 4.6 50.1947 4.6 48.744L4.6 43.08L4.632 32.744L4.824 32.296C5.144 31.5707 5.70933 31.1013 6.52 30.888ZM51.2545 36.264L50.8705 36.072H45.3665C41.6332 36.072 39.6918 36.0933 39.5425 36.136C38.3905 36.4987 37.8145 37.288 37.8145 38.504C37.8145 39.5707 38.2838 40.328 39.2225 40.776L39.6385 40.968H50.7745L51.1905 40.776C52.1718 40.3067 52.6625 39.5493 52.6625 38.504C52.6625 38.0987 52.5772 37.736 52.4065 37.416C52.1292 36.8827 51.7452 36.4987 51.2545 36.264ZM34.3265 31.016C34.4758 30.952 35.7132 30.92 38.0385 30.92H45.2385H55.7985L56.2145 31.112C56.7478 31.3467 57.1532 31.752 57.4305 32.328L57.6225 32.744L57.6225 53.992L57.3985 54.472C56.9932 55.304 56.2892 55.752 55.2865 55.816H54.9985C54.7425 55.816 54.4972 55.7733 54.2625 55.688C53.9638 55.5813 53.6758 55.3893 53.3985 55.112C53.1425 54.856 52.9612 54.5787 52.8545 54.28C52.7265 53.9387 52.6518 52.776 52.6305 50.792L52.5985 47.72L52.4385 47.368C52.0758 46.6427 51.4678 46.1947 50.6145 46.024C50.4438 45.9813 48.5558 45.96 44.9505 45.96L39.7025 45.992L39.3185 46.152C38.6358 46.4933 38.1665 46.984 37.9105 47.624C37.8465 47.7947 37.8038 48.8933 37.7825 50.92L37.7505 53.992L37.5265 54.472C37.2705 55.0053 36.8758 55.4 36.3425 55.656C36.1078 55.7627 35.7345 55.816 35.2225 55.816C34.6892 55.816 34.3052 55.7627 34.0705 55.656C33.5372 55.4 33.1425 55.0053 32.8865 54.472L32.6625 53.992V32.744L32.8225 32.392C33.1425 31.688 33.6438 31.2293 34.3265 31.016ZM79.1868 36.008C78.8668 35.9013 77.8001 35.848 75.9868 35.848C74.0881 35.848 73.0321 35.8693 72.8188 35.912C72.0294 36.0827 71.4641 36.552 71.1228 37.32L70.9308 37.768V48.84L71.1228 49.224C71.3574 49.736 71.7308 50.1307 72.2428 50.408L72.6588 50.664H75.7308C76.0721 50.664 76.4668 50.6747 76.9148 50.696C77.3628 50.696 77.6508 50.696 77.7788 50.696C78.4188 50.696 78.8988 50.6427 79.2188 50.536C79.4961 50.4293 79.7734 50.2373 80.0508 49.96C80.3281 49.6827 80.5201 49.4053 80.6268 49.128C80.7334 48.872 80.7868 46.9307 80.7868 43.304C80.7868 39.7413 80.7654 37.8533 80.7228 37.64C80.4881 36.8507 79.9761 36.3067 79.1868 36.008ZM62.6428 30.76C62.7921 30.7173 66.3761 30.696 73.3948 30.696L83.8908 30.696L84.3068 30.92C84.9041 31.1973 85.3308 31.6133 85.5868 32.168L85.7788 32.584V53.8L85.5868 54.216C85.3308 54.7707 84.9041 55.1867 84.3068 55.464L83.8908 55.656H62.7068L62.2588 55.464C61.7041 55.208 61.2881 54.8027 61.0108 54.248C60.8828 53.9707 60.8188 53.6187 60.8188 53.192C60.8188 52.5307 61.0428 51.9653 61.4908 51.496C61.9388 51.0267 62.5681 50.76 63.3788 50.696C64.4881 50.6107 65.2561 50.12 65.6828 49.224L65.9068 48.776V37.832L65.7468 37.416C65.3628 36.4987 64.5521 35.976 63.3148 35.848C62.2054 35.7413 61.4374 35.2507 61.0108 34.376C60.8828 34.0987 60.8188 33.7253 60.8188 33.256C60.8188 32.7867 60.8828 32.4133 61.0108 32.136C61.3521 31.4533 61.8961 30.9947 62.6428 30.76ZM90.735 30.856C90.927 30.792 94.5217 30.76 101.519 30.76L111.983 30.792L112.463 31.016C113.359 31.464 113.807 32.1893 113.807 33.192V33.416C113.743 34.44 113.306 35.1653 112.495 35.592L112.111 35.816C110.298 35.8373 107.588 35.848 103.983 35.848C100.378 35.848 97.679 35.8587 95.887 35.88L95.471 36.04C95.0443 36.2107 94.671 36.5093 94.351 36.936C94.0523 37.3413 93.903 37.8 93.903 38.312C93.903 38.6107 93.9883 38.952 94.159 39.336C94.415 39.8693 94.8097 40.2747 95.343 40.552L95.727 40.744C97.5403 40.7653 100.25 40.776 103.855 40.776C107.46 40.776 110.17 40.7867 111.983 40.808L112.367 41C112.922 41.2773 113.327 41.6613 113.583 42.152L113.807 42.568V48.104C113.807 51.816 113.764 53.8 113.679 54.056C113.487 54.632 113.082 55.0693 112.463 55.368L111.983 55.592L101.551 55.624C94.575 55.624 90.9803 55.592 90.767 55.528C89.7643 55.2507 89.1777 54.6 89.007 53.576C88.9857 53.4907 88.975 53.352 88.975 53.16C88.975 52.1147 89.455 51.368 90.415 50.92L90.863 50.728C92.6337 50.7067 95.3003 50.696 98.863 50.696C102.426 50.696 105.103 50.6853 106.895 50.664L107.279 50.472C108.239 50.0453 108.719 49.2987 108.719 48.232C108.719 47.0587 108.132 46.2587 106.959 45.832C106.874 45.7893 104.132 45.7573 98.735 45.736L90.703 45.704L90.415 45.544C89.8603 45.2453 89.4657 44.8507 89.231 44.36L88.975 43.816V32.744L89.135 32.328C89.4337 31.5813 89.967 31.0907 90.735 30.856ZM135.598 36.264L135.214 36.072H129.71C125.977 36.072 124.036 36.0933 123.886 36.136C122.734 36.4987 122.158 37.288 122.158 38.504C122.158 39.5707 122.628 40.328 123.566 40.776L123.982 40.968H135.118L135.534 40.776C136.516 40.3067 137.006 39.5493 137.006 38.504C137.006 38.0987 136.921 37.736 136.75 37.416C136.473 36.8827 136.089 36.4987 135.598 36.264ZM118.67 31.016C118.82 30.952 120.057 30.92 122.382 30.92L129.582 30.92H140.142L140.558 31.112C141.092 31.3467 141.497 31.752 141.774 32.328L141.966 32.744V53.992L141.742 54.472C141.337 55.304 140.633 55.752 139.63 55.816H139.342C139.086 55.816 138.841 55.7733 138.606 55.688C138.308 55.5813 138.02 55.3893 137.742 55.112C137.486 54.856 137.305 54.5787 137.198 54.28C137.07 53.9387 136.996 52.776 136.974 50.792L136.942 47.72L136.782 47.368C136.42 46.6427 135.812 46.1947 134.958 46.024C134.788 45.9813 132.9 45.96 129.294 45.96L124.046 45.992L123.662 46.152C122.98 46.4933 122.51 46.984 122.254 47.624C122.19 47.7947 122.148 48.8933 122.126 50.92L122.094 53.992L121.87 54.472C121.614 55.0053 121.22 55.4 120.686 55.656C120.452 55.7627 120.078 55.816 119.566 55.816C119.033 55.816 118.649 55.7627 118.414 55.656C117.881 55.4 117.486 55.0053 117.23 54.472L117.006 53.992V32.744L117.166 32.392C117.486 31.688 117.988 31.2293 118.67 31.016ZM146.891 51.048C147.125 50.9627 149.088 50.92 152.779 50.92L158.315 50.952L158.635 51.112C159.616 51.5813 160.107 52.36 160.107 53.448C160.107 53.8533 160.043 54.1947 159.915 54.472C159.787 54.728 159.584 54.984 159.307 55.24C159.029 55.496 158.784 55.6667 158.571 55.752C158.443 55.7947 158.293 55.8587 158.123 55.944C158.016 56.008 155.552 56.04 150.731 56.04C148.725 56.04 147.648 56.0293 147.499 56.008C146.539 55.88 145.856 55.432 145.451 54.664C145.301 54.3867 145.227 53.9813 145.227 53.448C145.227 52.9147 145.28 52.552 145.387 52.36C145.749 51.6987 146.251 51.2613 146.891 51.048ZM165.141 30.92C165.354 30.856 168.927 30.824 175.861 30.824H182.485C185.087 30.824 186.485 30.8667 186.677 30.952C187.253 31.144 187.69 31.528 187.989 32.104C188.181 32.488 188.277 32.8933 188.277 33.32C188.277 34.4293 187.807 35.2187 186.869 35.688L186.485 35.88L183.349 35.912C181.237 35.9333 180.053 35.9973 179.797 36.104C179.221 36.3387 178.794 36.744 178.517 37.32C178.325 37.7253 178.229 38.9733 178.229 41.064C178.229 42.8347 178.239 44.4133 178.26 45.8V49.448C178.26 52.0293 178.25 53.384 178.229 53.512C178.101 54.1307 177.823 54.6427 177.397 55.048C176.97 55.4533 176.426 55.656 175.765 55.656C174.698 55.656 173.93 55.1653 173.461 54.184L173.301 53.864C173.279 52.0933 173.269 49.4267 173.269 45.864C173.269 42.3013 173.258 39.624 173.237 37.832L173.045 37.416C172.767 36.84 172.341 36.4133 171.765 36.136L171.349 35.944C170.666 35.9227 169.642 35.912 168.277 35.912C166.911 35.912 165.887 35.9013 165.205 35.88L164.821 35.688C163.882 35.1973 163.413 34.4187 163.413 33.352C163.413 32.968 163.466 32.648 163.573 32.392C163.85 31.6667 164.373 31.176 165.141 30.92ZM193.107 30.984C193.278 30.92 196.862 30.888 203.859 30.888H207.635C211.262 30.888 213.374 30.9093 213.971 30.952C214.568 30.9733 215.016 31.0907 215.315 31.304C216.04 31.7947 216.403 32.5093 216.403 33.448C216.403 34.1947 216.158 34.8027 215.667 35.272C215.347 35.5493 215.102 35.72 214.931 35.784L214.515 35.976L206.419 36.04L198.355 36.072L198.003 36.264C197.448 36.584 197.054 36.9573 196.819 37.384C196.691 37.64 196.627 38.0133 196.627 38.504C196.627 38.9733 196.702 39.3467 196.851 39.624C197.128 40.136 197.523 40.5093 198.035 40.744L198.419 40.936C199.123 40.9573 200.158 40.968 201.523 40.968C202.91 40.968 203.944 40.9787 204.627 41L205.011 41.192C205.523 41.4267 205.918 41.8 206.195 42.312C206.344 42.5893 206.419 42.9627 206.419 43.432C206.419 43.944 206.376 44.2853 206.291 44.456C206.014 45.0107 205.608 45.416 205.075 45.672L204.691 45.864C204.008 45.8853 202.974 45.896 201.587 45.896C200.222 45.896 199.198 45.9067 198.515 45.928L198.035 46.152C197.523 46.3867 197.118 46.792 196.819 47.368C196.691 47.624 196.627 47.976 196.627 48.424C196.627 48.872 196.702 49.2347 196.851 49.512C197.128 50.024 197.523 50.3973 198.035 50.632L198.419 50.824L206.515 50.856C211.891 50.8773 214.664 50.92 214.835 50.984C215.624 51.3467 216.115 51.9227 216.307 52.712C216.35 52.84 216.371 53.0427 216.371 53.32C216.371 54.3653 215.902 55.1227 214.963 55.592L214.643 55.752L204.019 55.784C198.707 55.784 195.592 55.7733 194.675 55.752C193.758 55.752 193.203 55.7093 193.011 55.624C192.414 55.3893 191.966 54.984 191.667 54.408L191.475 54.024V32.648L191.667 32.264C191.987 31.6453 192.467 31.2187 193.107 30.984ZM237.872 36.104L237.552 35.944L232.048 35.912H229.744C228.016 35.912 226.971 35.9333 226.608 35.976C226.245 35.9973 225.947 36.0827 225.712 36.232C225.307 36.4667 224.987 36.8293 224.752 37.32C224.624 37.5333 224.56 37.896 224.56 38.408C224.56 39.4107 225.008 40.1253 225.904 40.552L226.256 40.744L231.824 40.776C235.515 40.776 237.488 40.7333 237.744 40.648C238.341 40.4347 238.789 40.0187 239.088 39.4C239.216 39.1227 239.28 38.7707 239.28 38.344C239.28 37.896 239.205 37.5333 239.056 37.256C238.8 36.7653 238.405 36.3813 237.872 36.104ZM221.552 30.824C221.765 30.7813 225.307 30.76 232.176 30.76L242.512 30.792L242.864 30.92C243.355 31.112 243.739 31.4213 244.016 31.848C244.208 32.1467 244.325 32.4773 244.368 32.84C244.411 33.2027 244.432 34.3547 244.432 36.296V38.28C244.432 41.928 244.379 43.912 244.272 44.232C243.909 45.1493 243.12 45.672 241.904 45.8C241.093 45.864 240.485 46.1093 240.08 46.536C239.611 47.0267 239.376 47.6027 239.376 48.264C239.376 48.9253 239.611 49.4907 240.08 49.96C240.528 50.408 241.104 50.6533 241.808 50.696C242.555 50.7813 243.088 50.9413 243.408 51.176C244.091 51.6453 244.432 52.3067 244.432 53.16C244.432 54.1627 243.984 54.9093 243.088 55.4C242.853 55.528 242.459 55.592 241.904 55.592C241.392 55.592 241.019 55.5387 240.784 55.432C239.952 55.0053 239.472 54.248 239.344 53.16C239.173 51.6667 238.352 50.856 236.88 50.728C235.365 50.6 234.544 49.7787 234.416 48.264C234.373 47.944 234.309 47.6453 234.224 47.368C233.989 46.7493 233.584 46.3013 233.008 46.024L232.592 45.832H226.32L225.936 46.024C225.317 46.3227 224.901 46.7707 224.688 47.368C224.603 47.624 224.56 48.6587 224.56 50.472C224.56 52.2213 224.539 53.2453 224.496 53.544C224.368 54.376 223.92 54.9947 223.152 55.4C222.768 55.5707 222.405 55.656 222.064 55.656C221.531 55.656 221.051 55.496 220.624 55.176C220.219 54.8773 219.931 54.5147 219.76 54.088L219.6 53.672V43.144L219.632 32.584L219.824 32.2C220.165 31.4533 220.741 30.9947 221.552 30.824ZM249.519 30.792C249.775 30.7067 253.785 30.664 261.551 30.664C267.268 30.664 270.276 30.696 270.575 30.76C271.385 30.9307 271.972 31.4107 272.335 32.2L272.495 32.52V53.8L272.271 54.184C271.801 55.1227 271.065 55.592 270.063 55.592C269.721 55.592 269.412 55.5387 269.135 55.432C268.58 55.24 268.143 54.824 267.823 54.184L267.599 53.704C267.577 51.912 267.567 49.2347 267.567 45.672C267.567 42.088 267.556 39.4 267.535 37.608L267.311 37.16C266.82 36.3067 266.084 35.88 265.103 35.88C264.697 35.88 264.356 35.944 264.079 36.072C263.46 36.3707 263.044 36.8187 262.831 37.416C262.724 37.672 262.671 40.36 262.671 45.48C262.671 50.5573 262.649 53.2453 262.607 53.544C262.436 54.3973 261.988 55.0053 261.263 55.368C261.049 55.4747 260.687 55.528 260.175 55.528C259.705 55.528 259.343 55.464 259.087 55.336C258.532 55.0587 258.148 54.664 257.935 54.152L257.775 53.8C257.775 52.008 257.764 49.3307 257.743 45.768C257.721 42.2053 257.711 39.5387 257.711 37.768L257.487 37.288C257.06 36.3493 256.303 35.88 255.215 35.88C254.745 35.88 254.393 35.944 254.159 36.072C253.625 36.3493 253.231 36.7547 252.975 37.288L252.815 37.608L252.783 45.64C252.761 50.8453 252.708 53.6293 252.623 53.992C252.58 54.12 252.473 54.312 252.303 54.568C251.855 55.2293 251.161 55.56 250.223 55.56C249.113 55.56 248.335 55.1013 247.887 54.184L247.663 53.704V32.584L247.855 32.2C248.217 31.4533 248.772 30.984 249.519 30.792ZM277.422 30.824C277.571 30.7813 281.155 30.76 288.174 30.76L298.67 30.728L299.054 30.888C299.544 31.1013 299.928 31.4107 300.206 31.816C300.504 32.2427 300.654 32.7333 300.654 33.288C300.654 34.3973 300.152 35.1867 299.15 35.656L298.734 35.848C298.03 35.848 296.963 35.8587 295.534 35.88C294.104 35.9013 293.038 35.912 292.334 35.912L291.982 36.104C291.448 36.36 291.064 36.7333 290.83 37.224L290.606 37.672L290.574 43.176V46.184C290.574 47.848 290.616 48.808 290.702 49.064C290.894 49.576 291.192 49.96 291.598 50.216C291.918 50.4507 292.238 50.5893 292.558 50.632C292.899 50.6533 293.934 50.6747 295.662 50.696L298.83 50.728L299.214 50.92C299.64 51.1333 299.982 51.4427 300.238 51.848C300.494 52.2533 300.622 52.6907 300.622 53.16C300.622 53.416 300.6 53.608 300.558 53.736C300.344 54.504 299.896 55.0693 299.214 55.432L298.894 55.624H277.454L277.07 55.4C276.579 55.1653 276.184 54.7707 275.886 54.216C275.779 53.9813 275.726 53.6507 275.726 53.224C275.726 52.1573 276.174 51.4107 277.07 50.984L277.518 50.728C278.222 50.7067 279.256 50.696 280.622 50.696C282.008 50.696 283.043 50.6853 283.726 50.664L284.11 50.504C284.643 50.2693 285.038 49.8747 285.294 49.32L285.518 48.872V37.672L285.326 37.256C285.048 36.7227 284.664 36.3387 284.174 36.104L283.79 35.912L280.686 35.88C278.936 35.8587 277.912 35.8373 277.614 35.816C277.315 35.7733 277.006 35.6347 276.686 35.4C276.003 34.952 275.662 34.2907 275.662 33.416C275.662 33.3733 275.662 33.32 275.662 33.256C275.683 33.192 275.694 33.1387 275.694 33.096C275.758 31.9867 276.334 31.2293 277.422 30.824ZM305.77 30.888C305.941 30.8453 309.493 30.824 316.426 30.824L326.89 30.856L327.274 31.048C327.829 31.304 328.223 31.688 328.458 32.2L328.714 32.648V53.928L328.458 54.376C327.989 55.2293 327.253 55.656 326.25 55.656C325.226 55.656 324.49 55.1867 324.042 54.248L323.818 53.8C323.818 52.008 323.807 49.3307 323.786 45.768C323.765 42.2053 323.754 39.5387 323.754 37.768L323.562 37.352C323.349 36.8827 322.965 36.4987 322.41 36.2L322.09 36.008H310.698L310.378 36.2C309.823 36.4773 309.429 36.8827 309.194 37.416L309.034 37.768C309.034 39.5387 309.023 42.2053 309.002 45.768C308.981 49.3307 308.97 52.008 308.97 53.8L308.746 54.248C308.341 55.144 307.637 55.624 306.634 55.688C306.293 55.7307 305.994 55.7093 305.738 55.624C305.141 55.4533 304.661 55.1227 304.298 54.632C304.17 54.44 304.085 54.312 304.042 54.248C304.021 54.2053 303.978 53.9813 303.914 53.576C303.871 53.192 303.85 52.6587 303.85 51.976C303.85 51.272 303.85 50.1947 303.85 48.744V43.08L303.882 32.744L304.074 32.296C304.394 31.5707 304.959 31.1013 305.77 30.888ZM350.505 36.264L350.121 36.072H344.617C340.883 36.072 338.942 36.0933 338.793 36.136C337.641 36.4987 337.065 37.288 337.065 38.504C337.065 39.5707 337.534 40.328 338.473 40.776L338.889 40.968H350.025L350.441 40.776C351.422 40.3067 351.913 39.5493 351.913 38.504C351.913 38.0987 351.827 37.736 351.657 37.416C351.379 36.8827 350.995 36.4987 350.505 36.264ZM333.577 31.016C333.726 30.952 334.963 30.92 337.289 30.92H344.489L355.049 30.92L355.465 31.112C355.998 31.3467 356.403 31.752 356.681 32.328L356.873 32.744V53.992L356.649 54.472C356.243 55.304 355.539 55.752 354.537 55.816H354.249C353.993 55.816 353.747 55.7733 353.513 55.688C353.214 55.5813 352.926 55.3893 352.649 55.112C352.393 54.856 352.211 54.5787 352.105 54.28C351.977 53.9387 351.902 52.776 351.881 50.792L351.849 47.72L351.689 47.368C351.326 46.6427 350.718 46.1947 349.865 46.024C349.694 45.9813 347.806 45.96 344.201 45.96L338.953 45.992L338.569 46.152C337.886 46.4933 337.417 46.984 337.161 47.624C337.097 47.7947 337.054 48.8933 337.033 50.92L337.001 53.992L336.777 54.472C336.521 55.0053 336.126 55.4 335.593 55.656C335.358 55.7627 334.985 55.816 334.473 55.816C333.939 55.816 333.555 55.7627 333.321 55.656C332.787 55.4 332.393 55.0053 332.137 54.472L331.913 53.992V32.744L332.073 32.392C332.393 31.688 332.894 31.2293 333.577 31.016ZM360.261 32.136C360.73 31.1547 361.509 30.664 362.597 30.664C363.471 30.664 364.154 30.9947 364.645 31.656C364.666 31.6987 364.698 31.7413 364.741 31.784C364.954 32.04 365.071 32.5413 365.093 33.288C365.135 34.0347 365.167 36.4987 365.189 40.68L365.221 48.776L365.413 49.192C365.669 49.7467 366.074 50.152 366.629 50.408L367.013 50.6C368.805 50.6213 371.493 50.632 375.077 50.632C378.682 50.632 381.381 50.6427 383.173 50.664L383.557 50.856C384.495 51.3253 384.965 52.072 384.965 53.096C384.965 53.928 384.613 54.6213 383.909 55.176C383.887 55.1973 383.845 55.2293 383.781 55.272C383.589 55.4213 383.237 55.5067 382.725 55.528C382.234 55.5707 380.762 55.592 378.309 55.592H372.485C365.445 55.5707 361.807 55.5173 361.573 55.432C361.018 55.2187 360.591 54.8133 360.293 54.216L360.069 53.8V32.52L360.261 32.136Z" fill="#E7E2FF"/>
</g>
<defs>
<filter id="filter0_d_36224_1947" x="-25.4" y="0.664062" width="440.365" height="85.376" filterUnits="userSpaceOnUse" color-interpolation-filters="sRGB">
<feFlood flood-opacity="0" result="BackgroundImageFix"/>
<feColorMatrix in="SourceAlpha" type="matrix" values="0 0 0 0 0 0 0 0 0 0 0 0 0 0 0 0 0 0 127 0" result="hardAlpha"/>
<feOffset/>
<feGaussianBlur stdDeviation="15"/>
<feComposite in2="hardAlpha" operator="out"/>
<feColorMatrix type="matrix" values="0 0 0 0 0.513726 0 0 0 0 0.431373 0 0 0 0 0.976471 0 0 0 1 0"/>
<feBlend mode="normal" in2="BackgroundImageFix" result="effect1_dropShadow_36224_1947"/>
<feBlend mode="normal" in="SourceGraphic" in2="effect1_dropShadow_36224_1947" result="shape"/>
</filter>
</defs>
</svg>
