<svg xmlns="http://www.w3.org/2000/svg" width="25" height="22" viewBox="0 0 25 22" fill="none">
  <path d="M18.2221 1.31201C13.2628 1.31201 12.2084 6.21536 12.2084 9.72356L14.6716 10.333C14.6716 10.333 16.9269 9.72356 18.2223 8.82946C22.1353 6.12874 21.2289 1.31201 18.2221 1.31201Z" fill="white" stroke="black" stroke-linecap="round"/>
  <path d="M4.69033 15.5953C4.69033 13.1897 6.19384 11.5859 6.9456 11.0848C11.4561 11.0848 15.9667 9.58125 17.4702 8.07774C18.9737 6.57422 24.9878 8.07774 24.236 13.34C23.4843 18.6023 16.7184 20.8576 10.7044 20.8576C5.89314 20.8576 5.44209 18.6022 4.69033 17.0987L2.43506 16.3471L4.69033 15.5953Z" fill="#FEEF48" stroke="black" stroke-linecap="round"/>
  <path d="M4.69033 15.5955C4.69033 13.1899 6.19384 11.0846 8.44912 11.0846C8.44912 11.0846 6.9456 12.0857 6.9456 15.5955C6.9456 20.9112 10.7044 20.8578 10.7044 20.8578C10.7044 20.8578 5.44209 21.6092 4.69033 17.0989L2.43506 16.3473L4.69033 15.5955Z" fill="black"/>
  <path d="M10.7039 11.0846C10.4533 13.3399 9.8022 17.7001 12.2078 20.1057" stroke="black" stroke-linecap="round"/>
  <path d="M15.2514 9.58142C15.0008 11.8367 16.0026 17.8507 19.4896 18.6025" stroke="black" stroke-linecap="round"/>
  <path d="M8.65736 2.20594C13.4686 1.00313 14.6714 7.71883 14.6714 11.227L12.2082 11.8364C12.2082 11.8364 9.95296 11.227 8.65752 10.3329C4.74451 7.63221 2.64331 3.70945 8.65736 2.20594Z" fill="white" stroke="black" stroke-linecap="round"/>
  <path d="M17.9608 10.3331C17.4596 9.33071 16.9083 7.02532 18.7125 5.82251" stroke="black" stroke-linecap="round"/>
  <path d="M21.981 8.82954C21.981 8.02766 22.2817 6.30363 23.4845 5.82251" stroke="black" stroke-linecap="round"/>
</svg>
