<svg xmlns="http://www.w3.org/2000/svg" width="29" height="28" viewBox="0 0 29 28" fill="none">
  <path d="M5.87996 3.46095L9.48877 1.3774L13.0976 3.46095V7.62804L9.48877 9.71159L5.87996 7.62804V3.46095Z" fill="#FFDC50" stroke="black" stroke-linejoin="round"/>
  <path d="M14.6913 3.46095L18.3001 1.3774L21.9089 3.46095V7.62804L18.3001 9.71159L14.6913 7.62804V3.46095Z" fill="#D99530" stroke="black"/>
  <path d="M18.7578 10.9166L22.3666 8.83309L25.9754 10.9166V15.0837L22.3666 17.1673L18.7578 15.0837V10.9166Z" fill="#D99530" stroke="black"/>
  <path d="M1.13563 10.9166L4.74444 8.83309L8.35325 10.9166V15.0837L4.74444 17.1673L1.13563 15.0837V10.9166Z" fill="#D99530" stroke="black"/>
  <path d="M5.87996 18.3722L9.48877 16.2887L13.0976 18.3722V22.5393L9.48877 24.6228L5.87996 22.5393V18.3722Z" fill="#FFDC50" stroke="black" stroke-linejoin="round"/>
  <path d="M9.94673 10.9166L13.5555 8.83309L17.1644 10.9166V15.0837L13.5555 17.1673L9.94673 15.0837V10.9166Z" fill="#D99530" stroke="black"/>
  <path d="M28 20.1333C28 23.7232 25.0899 26.6333 21.5 26.6333C17.9101 26.6333 15 23.7232 15 20.1333C15 16.5435 21.5 8 21.5 8C21.5 8 28 16.5435 28 20.1333Z" fill="#FFDC50" stroke="black" stroke-linejoin="round"/>
  <path d="M23.2333 16.2333C23.2333 16.2333 25.8333 19.2666 24.5333 22.2999" stroke="white" stroke-width="1.6" stroke-linecap="round"/>
</svg>
