<svg xmlns="http://www.w3.org/2000/svg" width="24" height="28" viewBox="0 0 24 28" fill="none">
  <rect x="6.69994" y="17.135" width="16.9604" height="3.95252" rx="1.97626" transform="rotate(-53.1652 6.69994 17.135)" fill="#D99530" stroke="black"/>
  <rect x="13.519" y="5.19022" width="5.61023" height="7.35847" rx="2.80512" transform="rotate(-53.1652 13.519 5.19022)" fill="#D99530" stroke="black"/>
  <path d="M20.5 20.4041C20.5 22.9278 19.4137 24.6699 17.6537 25.8043C15.8653 26.9571 13.3484 27.4999 10.5 27.4999C7.65163 27.4999 5.13472 26.9571 3.34626 25.8043C1.58626 24.6699 0.5 22.9278 0.5 20.4041C0.5 17.3285 2.116 13.817 4.62028 11.4999H16.3797C18.884 13.817 20.5 17.3285 20.5 20.4041Z" fill="#D99530" stroke="black"/>
  <path d="M0.5 20.2164C0.5 19.3377 0.636163 18.4192 0.893708 17.4999H20.1063C20.3638 18.4192 20.5 19.3377 20.5 20.2164C20.5 21.0714 20.3712 21.8296 20.1358 22.4999H0.86419C0.628847 21.8296 0.5 21.0714 0.5 20.2164Z" fill="#FFDC50" stroke="black" stroke-linejoin="round"/>
  <rect x="1.5" y="9.49988" width="18" height="5" rx="2.5" fill="#FFDC50" stroke="black"/>
</svg>
