<svg width="43" height="43" viewBox="0 0 43 43" fill="none" xmlns="http://www.w3.org/2000/svg">
<g id="Group 48100469">
<rect id="Rectangle 24494" width="43" height="43" rx="10" fill="url(#paint0_linear_26392_295209)"/>
<g id="Group 1948758284">
<g id="Group 1948758283">
<path id="path1-6" d="M21.4253 37.7173C30.5874 37.7173 38.0147 30.29 38.0147 21.128C38.0147 11.9659 30.5874 4.53857 21.4253 4.53857C12.2633 4.53857 4.83594 11.9659 4.83594 21.128C4.83594 30.29 12.2633 37.7173 21.4253 37.7173Z" fill="white"/>
<g id="g80">
<path id="path71" d="M15.4917 13.5355C15.5132 13.5693 15.505 13.6137 15.4729 13.637C15.2128 13.8258 14.8877 14.042 14.4976 14.2854C14.3259 14.3931 13.9911 14.0724 13.8553 13.9351C13.7133 13.7931 13.6228 13.6893 13.7094 13.4794C13.8312 13.1844 14.046 12.9628 14.354 12.8145C14.457 12.7654 14.6747 12.8145 14.7831 12.8746C15.0812 13.0416 15.3174 13.2619 15.4917 13.5355ZM28.7185 14.0525C28.3822 14.1462 27.9999 13.8122 27.7634 13.6148C27.742 13.5962 27.7382 13.5644 27.7548 13.5414C27.9083 13.3333 28.0576 13.1617 28.2027 13.0264C28.5742 12.6792 29.111 13.2753 29.2749 13.5906C29.3098 13.658 29.2933 13.7407 29.2351 13.7895C29.091 13.9092 28.9188 13.9969 28.7185 14.0525Z" fill="#287884" stroke="#287884" stroke-width="0.844444"/>
<path id="path72" d="M26.402 17.7243C26.402 18.0521 26.2718 18.3665 26.04 18.5983C25.8082 18.8301 25.4938 18.9603 25.166 18.9603C24.8381 18.9603 24.5238 18.8301 24.292 18.5983C24.0602 18.3665 23.9299 18.0521 23.9299 17.7243C23.9299 17.3965 24.0602 17.0821 24.292 16.8503C24.5238 16.6185 24.8381 16.4883 25.166 16.4883C25.4938 16.4883 25.8082 16.6185 26.04 16.8503C26.2718 17.0821 26.402 17.3965 26.402 17.7243Z" fill="#287884" stroke="#287884" stroke-width="0.844447"/>
<g id="path73" filter="url(#filter0_f_26392_295209)">
<path d="M18.4949 16.694C18.5721 16.7331 18.6868 16.7666 18.757 16.8415C19.1404 17.2494 19.2013 17.7222 18.9396 18.2601C18.8881 18.3657 18.7693 18.5052 18.583 18.6784C18.4577 18.7944 18.324 18.8574 18.182 18.8672C17.7205 18.8995 17.365 18.7445 17.1153 18.4022C16.7267 17.8695 16.7475 17.3568 17.1777 16.8642C17.2807 16.7455 17.5304 16.6527 17.6482 16.6152C17.9265 16.5252 18.2087 16.5515 18.4949 16.694Z" fill="#287884"/>
<path d="M18.4949 16.694C18.5721 16.7331 18.6868 16.7666 18.757 16.8415C19.1404 17.2494 19.2013 17.7222 18.9396 18.2601C18.8881 18.3657 18.7693 18.5052 18.583 18.6784C18.4577 18.7944 18.324 18.8574 18.182 18.8672C17.7205 18.8995 17.365 18.7445 17.1153 18.4022C16.7267 17.8695 16.7475 17.3568 17.1777 16.8642C17.2807 16.7455 17.5304 16.6527 17.6482 16.6152C17.9265 16.5252 18.2087 16.5515 18.4949 16.694Z" stroke="#287884" stroke-width="0.844447"/>
</g>
<path id="path74" d="M23.2854 23.3026C23.031 23.7458 22.658 24.0548 22.2343 24.3794C22.1084 24.4757 22.0025 24.5373 21.9167 24.5644C21.5562 24.6775 21.0412 24.6416 20.7532 24.3794C20.3168 23.982 20.0598 23.7476 19.9823 23.6764C19.8881 23.5884 19.796 23.4469 19.706 23.2519C19.5807 22.9798 19.505 22.6214 19.479 22.1766C19.4623 21.9003 19.5177 21.6748 19.6452 21.5C19.7846 21.3081 19.9578 21.1757 20.1649 21.1029C20.2965 21.0566 20.5035 21.0347 20.786 21.0373C21.2344 21.0415 21.6826 21.0488 22.1305 21.0592C22.4488 21.067 22.7766 21.0763 23.0107 21.248C23.4703 21.5874 23.56 22.0041 23.521 22.5605C23.5033 22.8128 23.4248 23.0602 23.2854 23.3026Z" fill="#287884" stroke="#287884" stroke-width="0.844447"/>
<path id="path75" d="M34.3358 32.7885L34.172 32.9602C34.019 33.0284 33.8853 33.1267 33.7709 33.2552C33.7256 33.3061 33.6112 33.419 33.4275 33.5938C33.2632 33.7509 32.8426 34.0974 32.1658 34.6332C31.1893 35.4062 29.9406 36.1213 28.4195 36.7783C28.2161 36.8662 27.8959 36.982 27.4589 37.1255C27.1312 37.2332 26.8084 37.3448 26.4905 37.4603C26.2575 37.5446 26.0718 37.6028 25.9334 37.6351C25.7607 37.6751 25.634 37.7056 25.5534 37.7264C25.3702 37.7743 25.2436 37.8042 25.1733 37.8161C24.084 38.0008 23.33 38.116 22.9112 38.1618C22.1455 38.245 21.5592 38.2731 21.1524 38.2461C20.8819 38.2279 20.6355 38.2115 20.4134 38.1969C20.1502 38.1792 19.9031 38.1511 19.6721 38.1126C19.5681 38.095 19.3126 38.0515 18.9058 37.9823C17.5959 37.7586 16.2866 37.3987 14.9777 36.9024C14.4913 36.7177 14.0171 36.5049 13.5552 36.2641C12.7093 35.8224 12.0141 35.4226 11.4694 35.0647C11.2488 34.9201 10.9341 34.7019 10.5252 34.41C10.0373 34.0625 9.63227 33.7156 9.31026 33.3691C8.9071 32.9358 8.64933 32.6595 8.53697 32.5404C8.31119 32.3006 8.0745 32.0077 7.82688 31.6618C7.09442 30.6385 6.704 30.0902 6.65562 30.0168C6.4028 29.6355 6.12162 29.1301 5.8121 28.5007C5.56656 28.0013 5.26562 27.2615 4.90927 26.2815C4.88534 26.2164 4.84268 26.076 4.7813 25.8601C4.67049 25.4676 4.50506 25.0837 4.41767 24.6927C4.27409 24.0539 4.15704 23.3274 4.06652 22.5133C3.99942 21.9047 4.02283 21.1493 4.00098 20.4619C3.99682 20.3318 4.00592 20.2036 4.02829 20.0772C4.06262 19.8842 4.08239 19.7578 4.0876 19.6979C4.11361 19.3806 4.14222 19.0635 4.17343 18.7467C4.20464 18.4283 4.25172 18.1173 4.31467 17.8135C4.39582 17.4202 4.52691 16.7288 4.72043 16.1927C4.79846 15.9768 4.87051 15.7454 4.93658 15.4983C4.99354 15.2829 5.12932 15.0394 5.20189 14.8561C5.47344 14.1725 5.6875 13.6947 5.84409 13.4226C6.36222 12.5242 6.70452 11.9501 6.87099 11.7004C7.04682 11.4372 7.37325 11.0088 7.85029 10.4153C8.52969 9.56992 9.23353 8.83096 9.96183 8.19838C11.1063 7.20373 12.3839 6.37478 13.7948 5.71151C13.9284 5.64856 14.0257 5.60486 14.0866 5.58041C14.2505 5.51487 14.3488 5.47455 14.3815 5.45946C14.8669 5.23265 15.2001 5.09687 15.3811 5.05214C15.5622 5.00688 15.6914 4.96162 15.769 4.91636C15.9396 4.817 16.3204 4.69839 16.9113 4.56054C17.6688 4.38367 18.1669 4.27234 18.4056 4.22656C18.7201 4.16492 19.0268 4.14073 19.3639 4.09157C19.4357 4.08116 19.5959 4.06998 19.8446 4.05801C20.0607 4.04787 20.2784 4.00885 20.486 4.00729C20.9908 4.00183 21.5004 3.99169 22.0107 4.01276C22.2464 4.02212 22.4508 3.98388 22.6459 4.01666C23.0712 4.08844 23.5284 4.04397 23.9319 4.13526C23.9345 4.13581 24.154 4.16127 24.5904 4.21174C25.1346 4.27416 25.6819 4.38887 26.2322 4.55586C27.1067 4.82168 27.9687 5.14109 28.8182 5.51409C29.7052 5.9032 30.4431 6.29909 31.032 6.70173C31.4825 7.00918 31.8771 7.29191 32.2157 7.54994C32.2235 7.55618 32.2722 7.59571 32.3616 7.66854C32.8652 8.08107 33.421 8.57475 34.0292 9.14959C34.0635 9.18132 34.1015 9.2258 34.1431 9.28302C34.1644 9.31111 34.1975 9.34779 34.2422 9.39305C34.2833 9.43466 34.4212 9.59463 34.6558 9.87294C34.9203 10.1874 35.1185 10.3919 35.3229 10.7172C35.4142 10.8624 35.5555 11.006 35.6499 11.1425C36.5993 12.5164 37.3577 13.9909 37.9253 15.5661C38.0236 15.8387 38.1212 16.1615 38.2179 16.5345C38.2439 16.6349 38.3012 16.8521 38.3896 17.1861C38.4484 17.4098 38.4988 17.6283 38.541 17.8415C38.6533 18.4096 38.7324 18.9824 38.7782 19.5598C38.7922 19.7369 38.8476 19.932 38.8484 20.1115C38.8495 20.3258 38.8502 20.6619 38.8508 21.1197C38.8515 21.4825 38.8024 21.9 38.8 22.294C38.7985 22.4907 38.7839 22.6423 38.7563 22.749C38.7335 22.8395 38.7254 22.9415 38.7321 23.0549C38.7358 23.1188 38.7223 23.2182 38.6916 23.3529C38.6484 23.5397 38.6083 23.7644 38.5714 24.0271C38.5298 24.3195 38.459 24.6946 38.3592 25.1523C38.2973 25.4353 38.1911 25.8008 38.0408 26.2487C37.8124 26.9297 37.66 27.3682 37.5835 27.5643C37.5008 27.7771 37.3544 28.1066 37.1442 28.553C36.9887 28.8823 36.8232 29.2025 36.6479 29.5135C36.3987 29.9547 35.9677 30.6167 35.3549 31.4995C35.3149 31.5577 35.2556 31.6332 35.177 31.7257C35.0558 31.8683 34.9942 31.9409 34.9921 31.9435C34.9343 32.023 34.8758 32.1021 34.8165 32.1807C34.7791 32.2306 34.7117 32.3014 34.6144 32.3929C34.4958 32.5042 34.4029 32.6361 34.3358 32.7885ZM15.165 9.65679C15.2394 9.66772 15.3918 9.70075 15.6223 9.7559C16.413 9.94629 17.0289 10.3773 17.47 11.0489C17.4788 11.0621 17.4965 11.0656 17.5091 11.0567C17.7458 10.8907 18.0425 10.7602 18.3994 10.665C18.7427 10.5739 19.0674 10.5144 19.3732 10.4863C21.0197 10.3365 22.6618 10.3596 24.2994 10.5557C24.8248 10.6187 25.2959 10.7906 25.7125 11.0715C25.7383 11.0885 25.7725 11.0814 25.7882 11.0559C25.8748 10.917 25.9771 10.7461 26.1152 10.6197C26.6859 10.0948 27.3379 9.79023 28.0714 9.70595C29.1493 9.58162 30.0813 9.84433 30.8673 10.4941C31.1571 10.7329 31.3938 11.0057 31.5774 11.3126C31.8027 11.6903 31.9546 12.0214 32.0331 12.306C32.184 12.8527 32.2162 13.3599 32.1299 13.8276C31.9873 14.6017 31.6739 15.3045 31.1896 15.936C31.156 15.9796 31.1517 16.0391 31.1787 16.0874C31.3144 16.3316 31.4557 16.5759 31.5649 16.8357C31.9395 17.7315 32.165 18.6466 32.2415 19.5809C32.2815 20.0761 32.301 20.741 32.3 21.5754C32.3 21.5759 32.3039 21.6079 32.3117 21.6714C32.3205 21.7411 32.3445 21.7465 32.3835 21.6877C32.513 21.4927 32.6509 21.3127 32.7971 21.1478C32.8688 21.0661 32.9297 21.0229 32.9796 21.0182C33.054 21.0109 33.1308 21.0094 33.2098 21.0135C33.2369 21.0156 33.2556 21.0291 33.266 21.0541L33.4369 21.4544C32.6098 22.9844 32.0719 23.9332 31.8232 24.301C31.5303 24.7349 31.0312 25.311 30.3258 26.0294C30.0178 26.236 29.7203 26.4521 29.4331 26.6779C29.071 26.9629 28.8135 27.1554 28.6606 27.2553C28.3849 27.4358 28.1016 27.5903 27.8108 27.7188C27.5434 27.8369 27.2753 27.9529 27.0063 28.0668C26.9168 28.1048 26.772 28.1522 26.5717 28.2089C26.4577 28.2416 26.316 28.2996 26.1464 28.3829C26.0933 28.4086 26.0294 28.4039 25.9896 28.4188C25.5801 28.5712 25.2964 28.664 25.1382 28.6973C24.4027 28.8503 23.9321 28.9496 23.7266 28.9954C23.6398 29.0147 23.4928 29.0334 23.2858 29.0516C23.1677 29.062 23.0199 29.0807 22.8425 29.1078C22.6381 29.1395 22.2557 29.1489 21.6955 29.1359C21.5238 29.1322 21.175 29.0833 20.6491 28.9892C20.2787 28.9231 19.9387 28.8394 19.6292 28.7379C18.4795 28.3618 17.3832 27.8569 16.3401 27.2233C15.9084 26.9611 15.4706 26.7096 15.0269 26.4687C14.8016 26.3465 14.5868 26.2443 14.3823 26.1621C14.09 26.044 13.8842 25.9548 13.7651 25.8944C13.5144 25.768 13.3117 25.671 13.1572 25.6034C12.8924 25.4884 12.5793 25.3987 12.2177 25.3342C11.4452 25.1963 10.6886 25.1349 9.94778 25.15C9.65282 25.1562 9.34148 25.2327 9.05744 25.2195C8.88005 25.2117 8.66754 25.2345 8.41992 25.2881C8.02872 25.3724 7.7426 25.4353 7.56157 25.477C7.24216 25.5498 6.96228 25.6785 6.72195 25.8632L6.39812 25.9998C6.28731 26.1355 6.46757 26.4672 6.53857 26.5655C6.67435 26.7528 6.68917 26.9471 6.82261 27.1554C6.89232 27.2647 6.94408 27.3531 6.97789 27.4207C7.148 27.7651 7.37221 28.0624 7.65053 28.3126C7.71243 28.3761 7.81751 28.3964 7.96577 28.3735C8.15305 28.3444 8.25579 28.3293 8.274 28.3282C9.01998 28.2752 9.63488 28.2333 10.1187 28.2026C10.5728 28.1735 10.9037 28.1693 11.1112 28.1901C11.3901 28.2177 11.7157 28.2897 12.0882 28.4063C12.7489 28.6133 13.3164 28.8149 13.7908 29.011C14.7636 29.4131 15.3083 29.6384 15.4248 29.6868C15.8259 29.8543 16.3017 30.0639 16.852 30.3157C17.6901 30.6981 18.415 31.0555 19.1579 31.2607C19.7504 31.424 20.3767 31.5616 21.0369 31.6735C21.413 31.7375 21.8544 31.7645 22.3611 31.7546C23.4738 31.732 24.372 31.686 25.3364 31.3941C26.5147 31.0372 27.6204 30.5568 28.6536 29.9529C29.1826 29.6428 29.8131 29.1689 30.5451 28.5311C30.6715 28.501 30.7794 28.4375 30.8689 28.3407C30.9526 28.2502 30.9953 28.2042 30.9969 28.2026C31.1758 28.0335 31.2796 27.9365 31.3082 27.9116C31.419 27.8148 31.5171 27.7131 31.6024 27.6065C31.7741 27.3926 32.0487 27.1117 32.2352 26.8488C32.9542 25.8354 33.484 24.8387 33.8247 23.8586C33.8273 23.8518 33.8794 23.7111 33.9808 23.4364C34.0173 23.3052 34.0596 23.1587 34.1061 22.9817C34.1829 22.7387 34.2193 22.6044 34.2598 22.4192C34.3557 22.1293 34.4785 21.5773 34.4735 21.2036L34.3917 20.8596L34.1896 20.6582L33.9443 20.5566C33.8595 20.0234 33.8624 19.5146 33.8864 18.9964C33.8884 18.9513 33.9255 18.9156 33.9706 18.9153C34.4768 18.908 34.9549 18.9597 35.4049 19.0706C35.4586 19.0837 35.5021 19.1223 35.5211 19.1736L35.7279 19.7346L35.6811 19.9227C35.6234 19.9794 35.5948 20.0439 35.5953 20.1162C35.601 20.563 35.5989 21.0099 35.589 21.4568C35.5843 21.6633 35.5695 21.8774 35.5445 22.099C35.5383 22.1567 35.5159 22.37 35.4774 22.7388C35.4582 22.9225 35.4231 23.1162 35.3721 23.3202C35.3185 23.534 35.2725 23.7254 35.234 23.8945C35.157 24.2321 35.0446 24.5741 34.8969 24.9206C34.8391 25.0569 34.6841 25.3815 34.4318 25.8944C34.295 26.1727 34.0861 26.5673 33.8052 27.0782C33.6866 27.2946 33.554 27.4962 33.4073 27.6829C33.3251 27.788 33.1778 27.9792 32.9656 28.2565C32.9053 28.3355 32.8699 28.3831 32.8595 28.3993C32.7377 28.5782 32.5367 28.8407 32.2563 29.1866C32.0805 29.404 31.8479 29.6384 31.5587 29.8897C31.0468 30.335 30.788 30.56 30.7823 30.5646C30.691 30.6427 30.5872 30.6684 30.5201 30.7371C30.4608 30.798 30.3997 30.845 30.3367 30.8783C30.1843 30.9595 29.9666 31.0859 29.6836 31.2576C29.5166 31.359 29.3764 31.4349 29.263 31.4854C29.1283 31.5452 28.987 31.6214 28.8393 31.714C28.6629 31.8248 28.4483 31.9302 28.1955 32.0301C27.6899 32.2298 27.3338 32.369 27.1273 32.4475C26.7865 32.5771 26.4216 32.6897 26.0325 32.7854C25.6376 32.8822 25.1793 32.9914 24.6576 33.1132C24.4609 33.1589 24.3329 33.1839 24.2736 33.1881C24.1066 33.2 23.9758 33.2151 23.8811 33.2333C23.7339 33.2609 23.5378 33.2721 23.2928 33.2669C22.4599 33.2502 21.9051 33.2398 21.6284 33.2357C21.5202 33.2341 21.4237 33.2263 21.3389 33.2123C21.2447 33.1966 21.1477 33.1886 21.0478 33.1881C20.9531 33.187 20.808 33.1662 20.6124 33.1256C20.3112 33.0627 20.0115 33.0099 19.7135 32.9672C19.5751 32.9475 19.4567 32.9241 19.3584 32.897C19.1571 32.8413 19.0398 32.8075 19.0065 32.7956C18.5971 32.6483 18.1991 32.5068 17.8126 32.3711C17.3928 32.2239 17.0052 32.0602 16.6499 31.8802C16.6437 31.8771 16.349 31.7341 15.7658 31.4511C15.4771 31.3111 15.1764 31.1793 14.8638 31.0555C14.3607 30.8567 13.9282 30.6806 13.5661 30.5272C13.4777 30.4897 13.319 30.4494 13.0901 30.4062C12.9934 30.3875 12.8337 30.3464 12.611 30.2829C12.2713 30.1857 11.923 30.1414 11.5662 30.1503C10.7708 30.014 9.94622 30.0993 9.09255 30.4062C9.05107 30.4209 9.02868 30.466 9.04183 30.5085L9.1066 30.7184C9.16955 30.8937 9.27255 31.0536 9.41561 31.1983C9.82761 31.6139 10.1444 31.9174 10.366 32.1089C10.5439 32.2634 10.6938 32.4374 10.8748 32.5919C11.1328 32.8119 11.337 32.9912 11.4873 33.1295C11.5768 33.2117 11.7006 33.3054 11.8588 33.4105C11.917 33.449 12.0336 33.5317 12.2084 33.6586C12.5845 33.9312 12.9991 34.191 13.4522 34.4381C13.7607 34.6067 14.0379 34.7692 14.284 34.9258C14.3756 34.9836 14.4947 35.0408 14.6414 35.0975C14.7111 35.124 14.8292 35.1776 14.9957 35.2582C15.7359 35.6162 16.4978 35.8994 17.2812 36.108C17.7026 36.2204 18.2106 36.3317 18.8052 36.442C19.5995 36.5892 20.242 36.6662 20.7326 36.673C22.0112 36.6901 22.7549 36.6834 22.9635 36.6527C23.2959 36.6038 23.5685 36.5671 23.7813 36.5426C24.1402 36.5005 24.8212 36.359 25.8241 36.1182C26.091 36.0536 26.4086 35.9556 26.7769 35.824C27.2128 35.6684 27.5257 35.5555 27.7156 35.4853C28.5646 35.1701 29.3561 34.7461 30.0901 34.2134C30.0995 34.2061 30.3736 34.016 30.9126 33.643C31.053 33.5457 31.1896 33.4406 31.3223 33.3277C31.509 33.1686 31.6404 33.0578 31.7163 32.9953C31.9088 32.8377 32.1023 32.6663 32.2969 32.4811C33.3628 31.4651 34.268 30.3755 35.0124 29.2123C35.3172 28.7353 35.5781 28.2817 35.795 27.8515C35.9386 27.5659 36.1111 27.1885 36.3124 26.7192C36.4575 26.3801 36.5967 26 36.7299 25.5792C36.836 25.2426 36.9624 24.8569 37.1091 24.422C37.1242 24.3772 37.1525 24.1715 37.1941 23.8047C37.2019 23.7366 37.217 23.6406 37.2394 23.5168C37.2854 23.2648 37.2558 23.0088 37.3088 22.7934C37.3281 22.7154 37.3411 22.6072 37.3479 22.4688C37.3515 22.3918 37.3669 22.2849 37.3939 22.1481C37.4095 22.0706 37.4223 21.8386 37.4321 21.4521C37.4467 20.8736 37.4014 20.3771 37.2964 19.9625C37.262 19.8839 37.23 19.8399 37.2004 19.8306L37.0693 18.6632C36.9091 17.7206 36.6981 16.8773 36.4365 16.1334C36.0401 15.0046 35.4876 13.8926 34.7791 12.7976C34.1319 11.7977 33.5201 10.9971 32.9438 10.3958C32.1905 9.61076 31.4674 8.99274 30.7745 8.54172C29.9733 8.02099 29.4243 7.67505 29.1272 7.5039C28.4088 7.08981 27.6072 6.73138 26.7223 6.42862C26.0418 6.19504 25.178 5.98956 24.1308 5.81217C23.7121 5.7409 23.1945 5.69148 22.578 5.66391C21.9407 5.63582 21.3277 5.62827 20.7388 5.64128C20.0006 5.65792 19.3584 5.71307 18.8122 5.80671C17.3275 6.06213 15.8743 6.52278 14.4526 7.18865C13.7513 7.51794 12.9484 8.01214 12.0437 8.67125C11.3937 9.14491 10.9162 9.50151 10.4316 9.99233C9.91033 10.5203 9.41691 11.0741 8.95132 11.6536C8.59601 12.0963 8.29195 12.5182 8.03912 12.9193C7.22395 14.2115 6.61999 15.5014 6.22723 16.7889C5.64407 18.7028 5.4854 20.6832 5.75123 22.7302C5.76008 22.7989 5.82016 23.2666 5.93149 24.1333C5.93585 24.1662 5.96986 24.1865 6.00093 24.1746C6.23919 24.0825 6.49591 23.9876 6.77111 23.8898C6.9511 23.8263 7.21537 23.7608 7.56391 23.6932C8.57052 23.4986 9.55528 23.3966 10.5182 23.3873C10.5485 23.3872 10.5699 23.3575 10.5603 23.3287C10.5067 23.1659 10.4758 22.9766 10.4675 22.7607C10.4565 22.4818 10.4711 21.8037 10.5112 20.7264C10.5356 20.0792 10.5791 19.5603 10.6415 19.1697C10.7289 18.6213 10.8654 18.0314 11.0512 17.3999C11.201 16.8916 11.4015 16.4596 11.6528 16.1038C11.6653 16.0861 11.665 16.0689 11.652 16.0523C11.5982 15.9805 11.503 15.9243 11.4561 15.8634C10.8233 15.0425 10.6033 13.8565 10.764 12.8413C10.9377 11.7441 11.4842 10.8785 12.4034 10.2444C13.1926 9.70023 14.1131 9.50437 15.165 9.65679ZM20.3525 12.0976C19.3896 12.1283 18.4741 12.3291 17.6058 12.7C17.3077 12.8272 16.9301 13.0481 16.6648 13.1768C16.6127 13.2023 16.5711 13.1909 16.5399 13.1425C16.4083 12.9417 16.2723 12.7203 16.1318 12.4784C16.0811 12.391 15.9991 12.2997 15.9102 12.2904C15.7572 12.2758 15.7476 12.2415 15.8813 12.1874C15.9026 12.1785 15.9151 12.1387 15.9188 12.068C15.9219 12.0014 15.8725 11.9223 15.7705 11.8308C15.345 11.451 14.8214 11.3014 14.1997 11.3821C13.7716 11.4377 13.3952 11.6206 13.0706 11.9306C12.7429 12.2449 12.5481 12.629 12.4862 13.0832C12.4347 13.4614 12.4729 13.8494 12.6009 14.2474C12.6669 14.4513 12.7538 14.6305 12.8615 14.785C13.1042 15.1315 13.4662 15.3898 13.7245 15.6489C13.7703 15.6951 13.7801 15.7659 13.7487 15.8229C13.6816 15.9456 13.627 16.0362 13.5848 16.0944C13.2602 16.5486 12.959 17.0347 12.7515 17.6176C12.5595 18.1555 12.4573 18.4445 12.4448 18.4845C12.1717 19.3874 12.1654 20.4205 12.2006 21.4131C12.2023 21.4546 12.2428 21.4831 12.2825 21.4708L12.8272 21.3038C12.8901 21.2848 12.9493 21.3427 12.9317 21.406C12.8849 21.5676 12.8201 21.7018 12.7257 21.811C12.5005 22.0701 12.3608 22.2678 12.3067 22.4041C12.1933 22.6871 12.0877 22.9828 11.9899 23.2913C11.9708 23.3528 11.9972 23.4192 12.0531 23.4505C12.1972 23.5321 12.3527 23.5993 12.5197 23.6518C13.4462 23.941 14.2929 24.3054 15.0596 24.745C15.3952 24.9375 15.7359 25.13 16.0819 25.3225C16.4236 25.5134 16.7594 25.7126 17.0893 25.9202C17.468 26.1584 17.8797 26.3954 18.3245 26.6311C18.7828 26.8745 19.2096 27.0509 19.605 27.1601C20.3218 27.3578 20.9992 27.4962 21.6369 27.5752C22.7736 27.7162 23.8926 27.5781 24.9939 27.1609C26.0187 26.7728 26.9314 26.328 27.732 25.8265C28.6543 25.2491 29.4563 24.4789 30.1377 23.516C30.3359 23.2359 30.6473 22.5859 30.5209 22.2277C30.474 22.0945 30.4124 21.9692 30.3359 21.8516C30.2756 21.7585 30.1757 21.6175 30.0363 21.4287C30.0143 21.3992 30.038 21.3577 30.0745 21.3616C30.2025 21.3761 30.3224 21.4193 30.4342 21.4911C30.4946 21.5306 30.5703 21.5205 30.6613 21.4607C30.7362 21.1855 30.7758 20.8939 30.7799 20.5859C30.781 20.5048 30.7708 20.3997 30.7495 20.2707C30.7323 20.1656 30.7198 20.06 30.712 19.9539C30.6918 19.6761 30.6787 19.5177 30.673 19.4787C30.5695 18.715 30.3716 17.9755 30.0792 17.2602C30.0059 17.0807 29.881 16.8662 29.8092 16.6914C29.6719 16.3574 29.4573 16.103 29.2513 15.7597C29.2148 15.6983 29.2251 15.6201 29.2763 15.5708C29.4292 15.4241 29.5111 15.343 29.7054 15.2267C29.8053 15.1674 29.9159 15.0849 30.0371 14.9793C30.1146 14.9122 30.1791 14.8181 30.2306 14.6969C30.2509 14.648 30.3026 14.5426 30.3859 14.3808C30.416 14.3221 30.4644 14.1824 30.531 13.9618C30.5757 13.813 30.5885 13.6689 30.5692 13.5295C30.5458 13.3524 30.5661 13.0964 30.506 12.8772C30.3791 12.4116 30.1354 12.031 29.7749 11.7356C29.0679 11.1566 28.2967 11.1032 27.4612 11.5756C27.3754 11.6248 27.2482 11.7559 27.1226 11.8573C26.89 12.0469 27.1819 12.2467 27.0141 12.4183C26.8669 12.5687 26.7436 12.7388 26.6442 12.9287C26.612 12.9898 26.5373 13.0146 26.4749 12.9849C26.2856 12.8954 26.0132 12.7627 25.6579 12.5869C25.3754 12.4475 25.0022 12.3151 24.5382 12.1897C24.4201 12.158 24.237 12.1265 23.9888 12.0953C23.6621 12.0547 23.478 12.0321 23.4364 12.0274C23.1638 11.9951 22.8862 11.9795 22.6038 11.9806C21.8494 11.9832 21.099 12.0222 20.3525 12.0976Z" fill="#287884"/>
<g id="path76">
<path d="M32.1855 21.8354L32.8686 20.2347L33.2769 19.4694L33.9761 18.9219L35.4103 19.0772L36.649 19.6072L37.8667 20.0737L37.5277 24.573L36.9113 25.0157L37.0986 22.5962L37.0368 21.8133L36.7148 21.1282L36.1664 20.7055L34.0781 20.3155L33.4424 21.461" fill="#287884"/>
<path d="M32.1855 21.8354L32.8686 20.2347L33.2769 19.4694L33.9761 18.9219L35.4103 19.0772L36.649 19.6072L37.8667 20.0737L37.5277 24.573L36.9113 25.0157L37.0986 22.5962L37.0368 21.8133L36.7148 21.1282L36.1664 20.7055L34.0781 20.3155L33.4424 21.461" stroke="#287884" stroke-width="0.34095"/>
</g>
<path id="path79" d="M5.95725 24.0598C5.94334 24.0186 5.87613 23.5523 5.80789 23.0235C5.66111 21.8861 5.63451 19.9817 5.75341 19.1227C5.99313 17.3908 6.45103 15.9586 7.29018 14.3159C7.96693 12.9912 8.67617 11.9768 9.8307 10.6826C10.6855 9.72434 11.5738 8.98755 12.9861 8.06544C14.6714 6.96508 16.9003 6.13328 19.057 5.7999C19.8279 5.68072 21.8414 5.63295 22.876 5.70928C25.1654 5.8782 27.4632 6.55643 29.1565 7.56305C30.8536 8.57188 31.7967 9.28235 32.7684 10.284C34.49 12.0585 35.9764 14.5925 36.6321 16.871C36.9606 18.0126 37.2335 19.727 37.0866 19.727C37.0537 19.727 36.6487 19.5673 36.1867 19.3721C35.3195 19.0055 34.9086 18.9041 34.288 18.9034C33.9578 18.903 33.929 18.9143 33.5961 19.1759C33.212 19.4778 33.0646 19.7137 32.6264 20.729C32.486 21.0543 32.3545 21.304 32.3343 21.2838C32.3141 21.2636 32.2971 20.9112 32.2965 20.5008C32.2944 18.993 31.9911 17.6048 31.4141 16.4619L31.1897 16.0174L31.4876 15.5429C32.2422 14.341 32.3899 12.9784 31.8886 11.8448C31.4175 10.7794 30.5591 10.0386 29.4704 9.7575C29.0326 9.64449 28.0961 9.64706 27.6312 9.76254C26.9725 9.92615 26.1721 10.421 25.8992 10.8333L25.7594 11.0446L25.4436 10.8857C25.27 10.7982 24.9919 10.6868 24.8257 10.6381C24.3307 10.4931 22.9292 10.3872 21.5068 10.3874C19.4748 10.3877 18.5115 10.5127 17.783 10.8708L17.4705 11.0244L17.4 10.8928C17.2843 10.6766 16.7406 10.2071 16.3903 10.0208C15.7073 9.65762 14.6358 9.49428 13.8651 9.63583C13.2671 9.74569 12.8634 9.90729 12.3809 10.23C11.5938 10.7565 11.0359 11.5663 10.8103 12.5099C10.6572 13.1503 10.6843 14.1661 10.8701 14.755C11.0215 15.2346 11.2722 15.7142 11.4713 15.905L11.6233 16.0506L11.3554 16.584C11.0699 17.1522 10.7844 18.1441 10.6247 19.1227C10.5089 19.8322 10.3976 22.578 10.4671 23.0099L10.5203 23.3403L9.91271 23.3772C8.60868 23.4564 7.2957 23.6744 6.58553 23.9296C6.00016 24.14 5.98534 24.1431 5.95725 24.0598Z" fill="#287884"/>
</g>
</g>
</g>
</g>
<defs>
<filter id="filter0_f_26392_295209" x="16.3968" y="16.1209" width="3.1439" height="3.19224" filterUnits="userSpaceOnUse" color-interpolation-filters="sRGB">
<feFlood flood-opacity="0" result="BackgroundImageFix"/>
<feBlend mode="normal" in="SourceGraphic" in2="BackgroundImageFix" result="shape"/>
<feGaussianBlur stdDeviation="0.00985157" result="effect1_foregroundBlur_26392_295209"/>
</filter>
<linearGradient id="paint0_linear_26392_295209" x1="21.5" y1="0" x2="21.5" y2="43" gradientUnits="userSpaceOnUse">
<stop stop-color="#292C47"/>
<stop offset="1" stop-color="#121425"/>
</linearGradient>
</defs>
</svg>
