<svg width="30" height="30" viewBox="0 0 30 30" fill="none" xmlns="http://www.w3.org/2000/svg">
<g id="Group 48100784">
<rect id="image 1011" x="0.5" y="0.5" width="29" height="29" rx="14.5" fill="#FCBE24" stroke="black"/>
<path id="Vector" d="M21.1123 17.3483C21.8821 18.3519 22.0434 19.4429 21.5964 20.6213C21.1494 21.7996 20.2624 22.5726 18.9355 22.94C18.3008 23.1158 17.6534 23.1227 16.9933 22.9607C16.3332 22.7988 15.7921 22.4923 15.37 22.0414C13.8393 22.7086 12.4011 22.676 11.0556 21.9434C9.71004 21.2108 8.90143 20.0202 8.62986 18.3716C7.96013 18.2123 7.39092 17.8984 6.92221 17.43C6.45351 16.9616 6.11547 16.3707 5.90809 15.6575C5.57518 14.5126 5.84007 13.4405 6.70279 12.441C7.56549 11.4416 8.56652 11.0073 9.70588 11.1379L11.7073 11.3746C11.9227 10.6862 12.2945 10.0711 12.8227 9.52946C13.351 8.98768 13.9751 8.59684 14.695 8.35691L14.2693 6.89297C14.1984 6.64898 14.2214 6.42459 14.3384 6.21978C14.4556 6.01498 14.6391 5.87796 14.8891 5.80872C15.1391 5.73948 15.3691 5.76199 15.5789 5.87625C15.7888 5.99051 15.9292 6.16964 16.0002 6.41363L16.4913 8.10279C17.2629 8.11218 17.9436 8.2735 18.5335 8.58673C19.1232 8.89996 19.6962 9.40545 20.2524 10.1032L21.9256 9.63978C22.1756 9.57057 22.4055 9.59307 22.6153 9.70737C22.8252 9.82158 22.9656 10.0008 23.0366 10.2447C23.1075 10.4888 23.0845 10.7131 22.9673 10.9179C22.8503 11.1227 22.6667 11.2597 22.4167 11.329L20.9167 11.7444C21.0856 12.4682 21.0822 13.1892 20.9065 13.907C20.7308 14.6249 20.3994 15.2541 19.9124 15.7945L21.1123 17.3483ZM14.1546 20.0052C14.0072 19.4985 13.9072 18.9938 13.8546 18.4913C13.802 17.9887 13.7967 17.4882 13.8389 16.9898C13.4565 17.3188 13.0228 17.5961 12.5378 17.8217C12.0526 18.0473 11.5546 18.2105 11.0437 18.3116C11.2566 19.0435 11.6407 19.5607 12.1962 19.8631C12.7517 20.1656 13.4045 20.213 14.1546 20.0052ZM10.6773 15.9794C11.2927 15.809 11.8142 15.5835 12.2417 15.3028C12.6692 15.0222 13.1925 14.5528 13.8115 13.8946L9.94049 13.4457C9.31732 13.3749 8.84269 13.5114 8.51666 13.8552C8.19062 14.199 8.10129 14.6243 8.24864 15.131C8.39053 15.619 8.6577 15.9303 9.05013 16.065C9.44256 16.1997 9.98493 16.1711 10.6773 15.9794ZM18.2805 20.6878C18.7613 20.5547 19.103 20.2825 19.3056 19.8716C19.5082 19.4606 19.4807 19.0981 19.2231 18.7841L16.5521 15.3867C16.3613 16.0885 16.2523 16.7677 16.225 17.4242C16.1976 18.0807 16.2549 18.6529 16.3969 19.1409C16.577 19.7603 16.8254 20.2036 17.142 20.4707C17.4587 20.7379 17.8382 20.8103 18.2805 20.6878ZM18.3672 13.9107C18.5049 13.6697 18.5864 13.3784 18.6118 13.0367C18.6371 12.6951 18.6007 12.3554 18.5024 12.0176C18.3278 11.417 17.9785 10.9661 17.4546 10.665C16.9306 10.364 16.3706 10.296 15.7744 10.4611C15.4283 10.557 15.1176 10.7039 14.8427 10.9017C14.5677 11.0995 14.3545 11.3309 14.203 11.596L16.7478 11.9864L18.3672 13.9107Z" fill="#451D07"/>
</g>
</svg>
