<svg width="43" height="43" viewBox="0 0 43 43" fill="none" xmlns="http://www.w3.org/2000/svg">
<g id="Group 48100469">
<rect id="Rectangle 24494" width="43" height="43" rx="10" fill="url(#paint0_linear_22383_10203)"/>
<path id="Vector" d="M22 5C8.82133 5 6 7.82133 6 21C6 34.1787 8.82133 37 22 37C35.1787 37 38 34.1787 38 21C38 7.82133 35.1787 5 22 5ZM15.0773 9.448C15.0773 8.8112 15.5957 8.2928 16.2315 8.2928H18.5493C19.1861 8.2928 19.7045 8.8112 19.7045 9.448V11.7499C19.7045 12.3867 20.2229 12.9051 20.8587 12.9051H23.1541C23.7909 12.9051 24.3093 12.3867 24.3093 11.7499V9.448C24.3093 8.8112 24.8277 8.2928 25.4635 8.2928H27.7824C28.4192 8.2928 28.9387 8.8112 28.9387 9.448V11.7659C28.9387 12.4027 28.4192 12.9211 27.7824 12.9211H25.4795C24.8437 12.9211 24.3253 13.4405 24.3253 14.0763V16.3792C24.3253 17.016 23.8069 17.5344 23.1712 17.5344H20.8523C20.5462 17.5338 20.2528 17.4119 20.0364 17.1954C19.8201 16.9788 19.6984 16.6853 19.6981 16.3792V14.0763C19.6981 13.4405 19.1787 12.9211 18.5408 12.9211H16.24C15.9339 12.9205 15.6405 12.7986 15.4242 12.582C15.2078 12.3655 15.0861 12.072 15.0859 11.7659V9.448H15.0773ZM13.9211 24.4816V26.7835C13.9211 27.4203 13.4016 27.9387 12.7659 27.9387H10.448C10.1417 27.9384 9.84804 27.8166 9.63146 27.6C9.41488 27.3834 9.29308 27.0898 9.2928 26.7835V24.4645C9.2928 23.8288 9.81227 23.3104 10.448 23.3104H12.7499C13.3877 23.3104 13.904 22.7909 13.904 22.1541V19.8597C13.904 19.2229 13.3877 18.7045 12.7499 18.7045H10.448C10.1418 18.704 9.84829 18.5821 9.63177 18.3656C9.41525 18.149 9.29336 17.8555 9.2928 17.5493V15.2293C9.2928 14.5936 9.81227 14.0741 10.448 14.0741H12.7659C13.4027 14.0741 13.9211 14.5936 13.9211 15.2293V17.5323C13.9211 18.168 14.4395 18.6875 15.0773 18.6875H17.3792C18.016 18.6875 18.5344 19.2059 18.5344 19.8427V22.1605C18.5344 22.7973 18.0149 23.3157 17.3792 23.3157H15.0773C14.4395 23.3157 13.9211 23.8352 13.9211 24.4709V24.4816ZM28.9461 32.5659C28.9461 33.2027 28.4267 33.7221 27.7909 33.7221H25.4731C25.167 33.7213 24.8738 33.5993 24.6575 33.3828C24.4412 33.1663 24.3195 32.873 24.3189 32.5669V30.264C24.3189 29.6283 23.7995 29.1088 23.1616 29.1088H20.8683C20.2315 29.1088 19.7141 29.6283 19.7141 30.264V32.5669C19.7141 33.2027 19.1947 33.7221 18.5579 33.7221H16.2389C15.9329 33.7213 15.6397 33.5993 15.4234 33.3828C15.2071 33.1663 15.0854 32.873 15.0848 32.5669V30.248C15.0848 29.6123 15.6032 29.0928 16.2389 29.0928H18.5408C19.1787 29.0928 19.6981 28.5744 19.6981 27.9376V25.6357C19.6981 24.9989 20.2165 24.4805 20.8523 24.4805H23.1712C23.8069 24.4805 24.3253 24.9989 24.3253 25.6357V27.9376C24.3253 28.5744 24.8437 29.0928 25.4795 29.0928H27.7824C28.4192 29.0928 28.9387 29.6123 28.9387 30.248V32.5669L28.9461 32.5659ZM34.7296 17.5408C34.7296 18.1776 34.2112 18.6971 33.5755 18.6971H31.2725C30.6357 18.6971 30.1163 19.2155 30.1163 19.8512V22.1467C30.1163 22.7835 30.6357 23.3019 31.2725 23.3019H33.5755C34.2112 23.3019 34.7296 23.8203 34.7296 24.4571V26.776C34.7296 27.4117 34.2112 27.9312 33.5755 27.9312H31.2565C30.9501 27.9309 30.6564 27.8092 30.4396 27.5926C30.2229 27.3761 30.1008 27.0824 30.1003 26.776V24.4731C30.1003 23.8373 29.5819 23.3179 28.9461 23.3179H26.6432C26.3372 23.317 26.044 23.195 25.8277 22.9785C25.6114 22.762 25.4896 22.4687 25.4891 22.1627V19.8448C25.4891 19.208 26.0075 18.6896 26.6432 18.6896H28.9461C29.5819 18.6896 30.1003 18.1701 30.1003 17.5333V15.2336C30.1003 14.5968 30.6197 14.0784 31.2565 14.0784H33.5755C34.2112 14.0784 34.7296 14.5968 34.7296 15.2336V17.5525V17.5408Z" fill="url(#paint1_linear_22383_10203)"/>
</g>
<defs>
<linearGradient id="paint0_linear_22383_10203" x1="21.5" y1="0" x2="21.5" y2="43" gradientUnits="userSpaceOnUse">
<stop stop-color="#292C47"/>
<stop offset="1" stop-color="#121425"/>
</linearGradient>
<linearGradient id="paint1_linear_22383_10203" x1="74.3061" y1="27.5408" x2="-17.3184" y2="28.8251" gradientUnits="userSpaceOnUse">
<stop stop-color="#F8F29C"/>
<stop offset="0.165" stop-color="#F6DB2A"/>
<stop offset="0.333" stop-color="#F4A435"/>
<stop offset="0.55" stop-color="#E85A46"/>
<stop offset="0.699" stop-color="#B93483"/>
<stop offset="0.867" stop-color="#502B6E"/>
<stop offset="1" stop-color="#2A2136"/>
</linearGradient>
</defs>
</svg>
