<svg width="1544" height="310" viewBox="0 0 1544 310" fill="none" xmlns="http://www.w3.org/2000/svg"><path d="M-16 296.203c65.167-11.167 206.2-41.3 249-72.5 53.5-39 135-115 245.5-131.5s237-9 415.5-47S1314 110 1416 159.5c81.6 39.6 134 91.5 134 91.5" stroke="#A3773A" stroke-width="6" stroke-linecap="round"/><path d="M-12.5 308.703c10.833-3.5 37.2-14.6 56-31 23.5-20.5 43.5 0 72.5 0s46-30.5 68.5-41 40 11.5 57.5 0 36.5-73 74-85.5 88-26 106-42.5 42-33.5 67.5-32.5 68 33 135 16.5 69.5-39.5 103.5-35.5 89.5 19.5 124 5.5 65.5-40.5 105-31 104-24 144.5-12 34.5 91.999 76 76c41.5-16 42.5-28 56.5-19.5s9.5 49.5 30 49.5 71 25.5 110.5 17.797c39.5-7.703 69 9.703 76.5 30.703s-6 63.5 20 59.5c20.8-3.2 60.5-13.703 73.5 0" stroke="#B6924A" stroke-width="2" stroke-linecap="round"/><g filter="url(#a)"><circle cx="102" cy="258.203" r="14" fill="#fff"/></g><g filter="url(#b)"><circle cx="279" cy="197.203" r="14" fill="#fff"/></g><g filter="url(#c)"><circle cx="523" cy="77.203" r="14" fill="#fff"/></g><g filter="url(#d)"><circle cx="711" cy="65.203" r="14" fill="#fff"/></g><g filter="url(#e)"><circle cx="959" cy="45.203" r="14" fill="#fff"/></g><g filter="url(#f)"><circle cx="1154" cy="65" r="14" fill="#fff"/></g><g filter="url(#g)"><circle cx="1314" cy="122" r="14" fill="#fff"/></g><g filter="url(#h)"><circle cx="1499" cy="208" r="14" fill="#fff"/></g><g filter="url(#i)"><path d="m45 264.203 4.164 7.268 8.2 1.714-5.626 6.207.903 8.328L45 284.288l-7.641 3.432.903-8.328-5.626-6.207 8.2-1.714L45 264.203z" fill="#fff"/></g><g filter="url(#j)"><path d="m159.625 245.648 5.908 5.939 8.363-.472-3.822 7.454 3.032 7.808-8.27-1.332-6.489 5.297-1.288-8.276-7.044-4.535 7.474-3.783 2.136-8.1z" fill="#fff"/></g><g filter="url(#k)"><path d="m227.555 224.576 5.907 5.939 8.364-.472-3.823 7.454 3.033 7.808-8.27-1.332-6.489 5.297-1.289-8.277-7.043-4.534 7.474-3.783 2.136-8.1z" fill="#fff"/></g><g filter="url(#l)"><path d="m309.555 141.576 5.907 5.939 8.364-.472-3.823 7.454 3.033 7.808-8.27-1.332-6.489 5.297-1.289-8.277-7.043-4.534 7.474-3.783 2.136-8.1z" fill="#fff"/></g><g filter="url(#m)"><path d="m425.555 89.576 5.907 5.939 8.364-.472-3.823 7.454 3.033 7.808-8.27-1.332-6.489 5.297-1.289-8.277-7.043-4.534 7.474-3.784 2.136-8.1z" fill="#fff"/></g><g filter="url(#n)"><path d="m483.896 63.172 4.729 6.914 8.31 1.058-5.115 6.634 1.561 8.23-7.889-2.815-7.345 4.028.239-8.373-6.101-5.74 8.037-2.36 3.574-7.577z" fill="#fff"/></g><g filter="url(#o)"><path d="m552.959 76.235 4.729 6.914 8.309 1.058-5.115 6.634 1.562 8.23-7.89-2.814-7.344 4.028.238-8.373-6.1-5.74 8.037-2.361 3.574-7.576z" fill="#fff"/></g><g filter="url(#p)"><path d="m661.959 66.235 4.729 6.914 8.309 1.058-5.115 6.634 1.562 8.23-7.89-2.814-7.344 4.028.238-8.373-6.1-5.74 8.037-2.361 3.574-7.576z" fill="#fff"/></g><g filter="url(#q)"><path d="m749.039 53.175 6.62 5.133 8.234-1.54-2.836 7.882 4.008 7.356-8.373-.261-5.756 6.084-2.339-8.043-7.566-3.595 6.927-4.71 1.081-8.306z" fill="#fff"/></g><g filter="url(#r)"><path d="m866.019 44.156 6.62 5.133 8.234-1.54-2.836 7.883 4.008 7.355-8.372-.261-5.757 6.085-2.338-8.044-7.567-3.594 6.928-4.71 1.08-8.307z" fill="#fff"/></g><g filter="url(#s)"><path d="m1089.41 7.234 3.46 7.631 7.99 2.486-6.18 5.644.1 8.376-7.28-4.142-7.93 2.69 1.69-8.204-5.01-6.712 8.32-.929 4.84-6.84z" fill="#fff"/></g><g filter="url(#t)"><path d="m1017.41 20.437 3.46 7.63 7.99 2.486-6.18 5.645.1 8.376-7.28-4.143-7.93 2.691 1.69-8.204-5.01-6.713 8.32-.928 4.84-6.84z" fill="#fff"/></g><g filter="url(#u)"><path d="m1259.41 102.234 3.46 7.631 7.99 2.486-6.18 5.644.1 8.376-7.28-4.142-7.93 2.691 1.69-8.205-5.01-6.712 8.32-.929 4.84-6.84z" fill="#fff"/></g><g filter="url(#v)"><path d="m1226.41 64.234 3.46 7.631 7.99 2.486-6.18 5.644.1 8.376-7.28-4.142-7.93 2.69 1.69-8.204-5.01-6.712 8.32-.929 4.84-6.84z" fill="#fff"/></g><g filter="url(#w)"><path d="m1365.94 129.245 4.84 6.836 8.33.921-5.01 6.717 1.7 8.203-7.94-2.685-7.27 4.148.1-8.376-6.2-5.639 8-2.492 3.45-7.633z" fill="#fff"/></g><g filter="url(#x)"><path d="m1424.94 143.245 4.84 6.836 8.33.921-5.01 6.717 1.7 8.203-7.94-2.685-7.27 4.148.1-8.376-6.2-5.639 8-2.492 3.45-7.633z" fill="#fff"/></g><g filter="url(#y)"><path d="m1453.94 198.245 4.84 6.836 8.33.921-5.01 6.717 1.7 8.203-7.94-2.685-7.27 4.148.1-8.376-6.2-5.639 8-2.492 3.45-7.633z" fill="#fff"/></g><defs><filter id="a" x="76" y="232.203" width="52" height="52" filterUnits="userSpaceOnUse" color-interpolation-filters="sRGB"><feFlood flood-opacity="0" result="BackgroundImageFix"/><feColorMatrix in="SourceAlpha" values="0 0 0 0 0 0 0 0 0 0 0 0 0 0 0 0 0 0 127 0" result="hardAlpha"/><feMorphology radius="2" operator="dilate" in="SourceAlpha" result="effect1_dropShadow_22057_76"/><feOffset/><feGaussianBlur stdDeviation="5"/><feComposite in2="hardAlpha" operator="out"/><feColorMatrix values="0 0 0 0 1 0 0 0 0 0.880348 0 0 0 0 0.658138 0 0 0 1 0"/><feBlend in2="BackgroundImageFix" result="effect1_dropShadow_22057_76"/><feBlend in="SourceGraphic" in2="effect1_dropShadow_22057_76" result="shape"/></filter><filter id="b" x="253" y="171.203" width="52" height="52" filterUnits="userSpaceOnUse" color-interpolation-filters="sRGB"><feFlood flood-opacity="0" result="BackgroundImageFix"/><feColorMatrix in="SourceAlpha" values="0 0 0 0 0 0 0 0 0 0 0 0 0 0 0 0 0 0 127 0" result="hardAlpha"/><feMorphology radius="2" operator="dilate" in="SourceAlpha" result="effect1_dropShadow_22057_76"/><feOffset/><feGaussianBlur stdDeviation="5"/><feComposite in2="hardAlpha" operator="out"/><feColorMatrix values="0 0 0 0 1 0 0 0 0 0.880348 0 0 0 0 0.658138 0 0 0 1 0"/><feBlend in2="BackgroundImageFix" result="effect1_dropShadow_22057_76"/><feBlend in="SourceGraphic" in2="effect1_dropShadow_22057_76" result="shape"/></filter><filter id="c" x="497" y="51.203" width="52" height="52" filterUnits="userSpaceOnUse" color-interpolation-filters="sRGB"><feFlood flood-opacity="0" result="BackgroundImageFix"/><feColorMatrix in="SourceAlpha" values="0 0 0 0 0 0 0 0 0 0 0 0 0 0 0 0 0 0 127 0" result="hardAlpha"/><feMorphology radius="2" operator="dilate" in="SourceAlpha" result="effect1_dropShadow_22057_76"/><feOffset/><feGaussianBlur stdDeviation="5"/><feComposite in2="hardAlpha" operator="out"/><feColorMatrix values="0 0 0 0 1 0 0 0 0 0.880348 0 0 0 0 0.658138 0 0 0 1 0"/><feBlend in2="BackgroundImageFix" result="effect1_dropShadow_22057_76"/><feBlend in="SourceGraphic" in2="effect1_dropShadow_22057_76" result="shape"/></filter><filter id="d" x="685" y="39.203" width="52" height="52" filterUnits="userSpaceOnUse" color-interpolation-filters="sRGB"><feFlood flood-opacity="0" result="BackgroundImageFix"/><feColorMatrix in="SourceAlpha" values="0 0 0 0 0 0 0 0 0 0 0 0 0 0 0 0 0 0 127 0" result="hardAlpha"/><feMorphology radius="2" operator="dilate" in="SourceAlpha" result="effect1_dropShadow_22057_76"/><feOffset/><feGaussianBlur stdDeviation="5"/><feComposite in2="hardAlpha" operator="out"/><feColorMatrix values="0 0 0 0 1 0 0 0 0 0.880348 0 0 0 0 0.658138 0 0 0 1 0"/><feBlend in2="BackgroundImageFix" result="effect1_dropShadow_22057_76"/><feBlend in="SourceGraphic" in2="effect1_dropShadow_22057_76" result="shape"/></filter><filter id="e" x="933" y="19.203" width="52" height="52" filterUnits="userSpaceOnUse" color-interpolation-filters="sRGB"><feFlood flood-opacity="0" result="BackgroundImageFix"/><feColorMatrix in="SourceAlpha" values="0 0 0 0 0 0 0 0 0 0 0 0 0 0 0 0 0 0 127 0" result="hardAlpha"/><feMorphology radius="2" operator="dilate" in="SourceAlpha" result="effect1_dropShadow_22057_76"/><feOffset/><feGaussianBlur stdDeviation="5"/><feComposite in2="hardAlpha" operator="out"/><feColorMatrix values="0 0 0 0 1 0 0 0 0 0.880348 0 0 0 0 0.658138 0 0 0 1 0"/><feBlend in2="BackgroundImageFix" result="effect1_dropShadow_22057_76"/><feBlend in="SourceGraphic" in2="effect1_dropShadow_22057_76" result="shape"/></filter><filter id="f" x="1128" y="39" width="52" height="52" filterUnits="userSpaceOnUse" color-interpolation-filters="sRGB"><feFlood flood-opacity="0" result="BackgroundImageFix"/><feColorMatrix in="SourceAlpha" values="0 0 0 0 0 0 0 0 0 0 0 0 0 0 0 0 0 0 127 0" result="hardAlpha"/><feMorphology radius="2" operator="dilate" in="SourceAlpha" result="effect1_dropShadow_22057_76"/><feOffset/><feGaussianBlur stdDeviation="5"/><feComposite in2="hardAlpha" operator="out"/><feColorMatrix values="0 0 0 0 1 0 0 0 0 0.880348 0 0 0 0 0.658138 0 0 0 1 0"/><feBlend in2="BackgroundImageFix" result="effect1_dropShadow_22057_76"/><feBlend in="SourceGraphic" in2="effect1_dropShadow_22057_76" result="shape"/></filter><filter id="g" x="1288" y="96" width="52" height="52" filterUnits="userSpaceOnUse" color-interpolation-filters="sRGB"><feFlood flood-opacity="0" result="BackgroundImageFix"/><feColorMatrix in="SourceAlpha" values="0 0 0 0 0 0 0 0 0 0 0 0 0 0 0 0 0 0 127 0" result="hardAlpha"/><feMorphology radius="2" operator="dilate" in="SourceAlpha" result="effect1_dropShadow_22057_76"/><feOffset/><feGaussianBlur stdDeviation="5"/><feComposite in2="hardAlpha" operator="out"/><feColorMatrix values="0 0 0 0 1 0 0 0 0 0.880348 0 0 0 0 0.658138 0 0 0 1 0"/><feBlend in2="BackgroundImageFix" result="effect1_dropShadow_22057_76"/><feBlend in="SourceGraphic" in2="effect1_dropShadow_22057_76" result="shape"/></filter><filter id="h" x="1473" y="182" width="52" height="52" filterUnits="userSpaceOnUse" color-interpolation-filters="sRGB"><feFlood flood-opacity="0" result="BackgroundImageFix"/><feColorMatrix in="SourceAlpha" values="0 0 0 0 0 0 0 0 0 0 0 0 0 0 0 0 0 0 127 0" result="hardAlpha"/><feMorphology radius="2" operator="dilate" in="SourceAlpha" result="effect1_dropShadow_22057_76"/><feOffset/><feGaussianBlur stdDeviation="5"/><feComposite in2="hardAlpha" operator="out"/><feColorMatrix values="0 0 0 0 1 0 0 0 0 0.880348 0 0 0 0 0.658138 0 0 0 1 0"/><feBlend in2="BackgroundImageFix" result="effect1_dropShadow_22057_76"/><feBlend in="SourceGraphic" in2="effect1_dropShadow_22057_76" result="shape"/></filter><filter id="i" x="20.637" y="252.203" width="48.727" height="47.517" filterUnits="userSpaceOnUse" color-interpolation-filters="sRGB"><feFlood flood-opacity="0" result="BackgroundImageFix"/><feColorMatrix in="SourceAlpha" values="0 0 0 0 0 0 0 0 0 0 0 0 0 0 0 0 0 0 127 0" result="hardAlpha"/><feMorphology radius="2" operator="dilate" in="SourceAlpha" result="effect1_dropShadow_22057_76"/><feOffset/><feGaussianBlur stdDeviation="5"/><feComposite in2="hardAlpha" operator="out"/><feColorMatrix values="0 0 0 0 1 0 0 0 0 0.880348 0 0 0 0 0.658138 0 0 0 1 0"/><feBlend in2="BackgroundImageFix" result="effect1_dropShadow_22057_76"/><feBlend in="SourceGraphic" in2="effect1_dropShadow_22057_76" result="shape"/></filter><filter id="j" x="138.016" y="233.648" width="47.879" height="48.694" filterUnits="userSpaceOnUse" color-interpolation-filters="sRGB"><feFlood flood-opacity="0" result="BackgroundImageFix"/><feColorMatrix in="SourceAlpha" values="0 0 0 0 0 0 0 0 0 0 0 0 0 0 0 0 0 0 127 0" result="hardAlpha"/><feMorphology radius="2" operator="dilate" in="SourceAlpha" result="effect1_dropShadow_22057_76"/><feOffset/><feGaussianBlur stdDeviation="5"/><feComposite in2="hardAlpha" operator="out"/><feColorMatrix values="0 0 0 0 1 0 0 0 0 0.880348 0 0 0 0 0.658138 0 0 0 1 0"/><feBlend in2="BackgroundImageFix" result="effect1_dropShadow_22057_76"/><feBlend in="SourceGraphic" in2="effect1_dropShadow_22057_76" result="shape"/></filter><filter id="k" x="205.945" y="212.576" width="47.879" height="48.694" filterUnits="userSpaceOnUse" color-interpolation-filters="sRGB"><feFlood flood-opacity="0" result="BackgroundImageFix"/><feColorMatrix in="SourceAlpha" values="0 0 0 0 0 0 0 0 0 0 0 0 0 0 0 0 0 0 127 0" result="hardAlpha"/><feMorphology radius="2" operator="dilate" in="SourceAlpha" result="effect1_dropShadow_22057_76"/><feOffset/><feGaussianBlur stdDeviation="5"/><feComposite in2="hardAlpha" operator="out"/><feColorMatrix values="0 0 0 0 1 0 0 0 0 0.880348 0 0 0 0 0.658138 0 0 0 1 0"/><feBlend in2="BackgroundImageFix" result="effect1_dropShadow_22057_76"/><feBlend in="SourceGraphic" in2="effect1_dropShadow_22057_76" result="shape"/></filter><filter id="l" x="287.945" y="129.576" width="47.879" height="48.694" filterUnits="userSpaceOnUse" color-interpolation-filters="sRGB"><feFlood flood-opacity="0" result="BackgroundImageFix"/><feColorMatrix in="SourceAlpha" values="0 0 0 0 0 0 0 0 0 0 0 0 0 0 0 0 0 0 127 0" result="hardAlpha"/><feMorphology radius="2" operator="dilate" in="SourceAlpha" result="effect1_dropShadow_22057_76"/><feOffset/><feGaussianBlur stdDeviation="5"/><feComposite in2="hardAlpha" operator="out"/><feColorMatrix values="0 0 0 0 1 0 0 0 0 0.880348 0 0 0 0 0.658138 0 0 0 1 0"/><feBlend in2="BackgroundImageFix" result="effect1_dropShadow_22057_76"/><feBlend in="SourceGraphic" in2="effect1_dropShadow_22057_76" result="shape"/></filter><filter id="m" x="403.945" y="77.576" width="47.879" height="48.694" filterUnits="userSpaceOnUse" color-interpolation-filters="sRGB"><feFlood flood-opacity="0" result="BackgroundImageFix"/><feColorMatrix in="SourceAlpha" values="0 0 0 0 0 0 0 0 0 0 0 0 0 0 0 0 0 0 127 0" result="hardAlpha"/><feMorphology radius="2" operator="dilate" in="SourceAlpha" result="effect1_dropShadow_22057_76"/><feOffset/><feGaussianBlur stdDeviation="5"/><feComposite in2="hardAlpha" operator="out"/><feColorMatrix values="0 0 0 0 1 0 0 0 0 0.880348 0 0 0 0 0.658138 0 0 0 1 0"/><feBlend in2="BackgroundImageFix" result="effect1_dropShadow_22057_76"/><feBlend in="SourceGraphic" in2="effect1_dropShadow_22057_76" result="shape"/></filter><filter id="n" x="460.285" y="51.171" width="48.648" height="48.05" filterUnits="userSpaceOnUse" color-interpolation-filters="sRGB"><feFlood flood-opacity="0" result="BackgroundImageFix"/><feColorMatrix in="SourceAlpha" values="0 0 0 0 0 0 0 0 0 0 0 0 0 0 0 0 0 0 127 0" result="hardAlpha"/><feMorphology radius="2" operator="dilate" in="SourceAlpha" result="effect1_dropShadow_22057_76"/><feOffset/><feGaussianBlur stdDeviation="5"/><feComposite in2="hardAlpha" operator="out"/><feColorMatrix values="0 0 0 0 1 0 0 0 0 0.880348 0 0 0 0 0.658138 0 0 0 1 0"/><feBlend in2="BackgroundImageFix" result="effect1_dropShadow_22057_76"/><feBlend in="SourceGraphic" in2="effect1_dropShadow_22057_76" result="shape"/></filter><filter id="o" x="529.348" y="64.235" width="48.648" height="48.05" filterUnits="userSpaceOnUse" color-interpolation-filters="sRGB"><feFlood flood-opacity="0" result="BackgroundImageFix"/><feColorMatrix in="SourceAlpha" values="0 0 0 0 0 0 0 0 0 0 0 0 0 0 0 0 0 0 127 0" result="hardAlpha"/><feMorphology radius="2" operator="dilate" in="SourceAlpha" result="effect1_dropShadow_22057_76"/><feOffset/><feGaussianBlur stdDeviation="5"/><feComposite in2="hardAlpha" operator="out"/><feColorMatrix values="0 0 0 0 1 0 0 0 0 0.880348 0 0 0 0 0.658138 0 0 0 1 0"/><feBlend in2="BackgroundImageFix" result="effect1_dropShadow_22057_76"/><feBlend in="SourceGraphic" in2="effect1_dropShadow_22057_76" result="shape"/></filter><filter id="p" x="638.348" y="54.235" width="48.648" height="48.05" filterUnits="userSpaceOnUse" color-interpolation-filters="sRGB"><feFlood flood-opacity="0" result="BackgroundImageFix"/><feColorMatrix in="SourceAlpha" values="0 0 0 0 0 0 0 0 0 0 0 0 0 0 0 0 0 0 127 0" result="hardAlpha"/><feMorphology radius="2" operator="dilate" in="SourceAlpha" result="effect1_dropShadow_22057_76"/><feOffset/><feGaussianBlur stdDeviation="5"/><feComposite in2="hardAlpha" operator="out"/><feColorMatrix values="0 0 0 0 1 0 0 0 0 0.880348 0 0 0 0 0.658138 0 0 0 1 0"/><feBlend in2="BackgroundImageFix" result="effect1_dropShadow_22057_76"/><feBlend in="SourceGraphic" in2="effect1_dropShadow_22057_76" result="shape"/></filter><filter id="q" x="729.031" y="41.175" width="48.035" height="48.655" filterUnits="userSpaceOnUse" color-interpolation-filters="sRGB"><feFlood flood-opacity="0" result="BackgroundImageFix"/><feColorMatrix in="SourceAlpha" values="0 0 0 0 0 0 0 0 0 0 0 0 0 0 0 0 0 0 127 0" result="hardAlpha"/><feMorphology radius="2" operator="dilate" in="SourceAlpha" result="effect1_dropShadow_22057_76"/><feOffset/><feGaussianBlur stdDeviation="5"/><feComposite in2="hardAlpha" operator="out"/><feColorMatrix values="0 0 0 0 1 0 0 0 0 0.880348 0 0 0 0 0.658138 0 0 0 1 0"/><feBlend in2="BackgroundImageFix" result="effect1_dropShadow_22057_76"/><feBlend in="SourceGraphic" in2="effect1_dropShadow_22057_76" result="shape"/></filter><filter id="r" x="846.012" y="32.156" width="48.035" height="48.655" filterUnits="userSpaceOnUse" color-interpolation-filters="sRGB"><feFlood flood-opacity="0" result="BackgroundImageFix"/><feColorMatrix in="SourceAlpha" values="0 0 0 0 0 0 0 0 0 0 0 0 0 0 0 0 0 0 127 0" result="hardAlpha"/><feMorphology radius="2" operator="dilate" in="SourceAlpha" result="effect1_dropShadow_22057_76"/><feOffset/><feGaussianBlur stdDeviation="5"/><feComposite in2="hardAlpha" operator="out"/><feColorMatrix values="0 0 0 0 1 0 0 0 0 0.880348 0 0 0 0 0.658138 0 0 0 1 0"/><feBlend in2="BackgroundImageFix" result="effect1_dropShadow_22057_76"/><feBlend in="SourceGraphic" in2="effect1_dropShadow_22057_76" result="shape"/></filter><filter id="s" x="1064.25" y="-4.766" width="48.613" height="48.137" filterUnits="userSpaceOnUse" color-interpolation-filters="sRGB"><feFlood flood-opacity="0" result="BackgroundImageFix"/><feColorMatrix in="SourceAlpha" values="0 0 0 0 0 0 0 0 0 0 0 0 0 0 0 0 0 0 127 0" result="hardAlpha"/><feMorphology radius="2" operator="dilate" in="SourceAlpha" result="effect1_dropShadow_22057_76"/><feOffset/><feGaussianBlur stdDeviation="5"/><feComposite in2="hardAlpha" operator="out"/><feColorMatrix values="0 0 0 0 1 0 0 0 0 0.880348 0 0 0 0 0.658138 0 0 0 1 0"/><feBlend in2="BackgroundImageFix" result="effect1_dropShadow_22057_76"/><feBlend in="SourceGraphic" in2="effect1_dropShadow_22057_76" result="shape"/></filter><filter id="t" x="992.25" y="8.437" width="48.613" height="48.137" filterUnits="userSpaceOnUse" color-interpolation-filters="sRGB"><feFlood flood-opacity="0" result="BackgroundImageFix"/><feColorMatrix in="SourceAlpha" values="0 0 0 0 0 0 0 0 0 0 0 0 0 0 0 0 0 0 127 0" result="hardAlpha"/><feMorphology radius="2" operator="dilate" in="SourceAlpha" result="effect1_dropShadow_22057_76"/><feOffset/><feGaussianBlur stdDeviation="5"/><feComposite in2="hardAlpha" operator="out"/><feColorMatrix values="0 0 0 0 1 0 0 0 0 0.880348 0 0 0 0 0.658138 0 0 0 1 0"/><feBlend in2="BackgroundImageFix" result="effect1_dropShadow_22057_76"/><feBlend in="SourceGraphic" in2="effect1_dropShadow_22057_76" result="shape"/></filter><filter id="u" x="1234.25" y="90.234" width="48.613" height="48.137" filterUnits="userSpaceOnUse" color-interpolation-filters="sRGB"><feFlood flood-opacity="0" result="BackgroundImageFix"/><feColorMatrix in="SourceAlpha" values="0 0 0 0 0 0 0 0 0 0 0 0 0 0 0 0 0 0 127 0" result="hardAlpha"/><feMorphology radius="2" operator="dilate" in="SourceAlpha" result="effect1_dropShadow_22057_76"/><feOffset/><feGaussianBlur stdDeviation="5"/><feComposite in2="hardAlpha" operator="out"/><feColorMatrix values="0 0 0 0 1 0 0 0 0 0.880348 0 0 0 0 0.658138 0 0 0 1 0"/><feBlend in2="BackgroundImageFix" result="effect1_dropShadow_22057_76"/><feBlend in="SourceGraphic" in2="effect1_dropShadow_22057_76" result="shape"/></filter><filter id="v" x="1201.25" y="52.234" width="48.613" height="48.137" filterUnits="userSpaceOnUse" color-interpolation-filters="sRGB"><feFlood flood-opacity="0" result="BackgroundImageFix"/><feColorMatrix in="SourceAlpha" values="0 0 0 0 0 0 0 0 0 0 0 0 0 0 0 0 0 0 127 0" result="hardAlpha"/><feMorphology radius="2" operator="dilate" in="SourceAlpha" result="effect1_dropShadow_22057_76"/><feOffset/><feGaussianBlur stdDeviation="5"/><feComposite in2="hardAlpha" operator="out"/><feColorMatrix values="0 0 0 0 1 0 0 0 0 0.880348 0 0 0 0 0.658138 0 0 0 1 0"/><feBlend in2="BackgroundImageFix" result="effect1_dropShadow_22057_76"/><feBlend in="SourceGraphic" in2="effect1_dropShadow_22057_76" result="shape"/></filter><filter id="w" x="1342.49" y="117.245" width="48.613" height="48.141" filterUnits="userSpaceOnUse" color-interpolation-filters="sRGB"><feFlood flood-opacity="0" result="BackgroundImageFix"/><feColorMatrix in="SourceAlpha" values="0 0 0 0 0 0 0 0 0 0 0 0 0 0 0 0 0 0 127 0" result="hardAlpha"/><feMorphology radius="2" operator="dilate" in="SourceAlpha" result="effect1_dropShadow_22057_76"/><feOffset/><feGaussianBlur stdDeviation="5"/><feComposite in2="hardAlpha" operator="out"/><feColorMatrix values="0 0 0 0 1 0 0 0 0 0.880348 0 0 0 0 0.658138 0 0 0 1 0"/><feBlend in2="BackgroundImageFix" result="effect1_dropShadow_22057_76"/><feBlend in="SourceGraphic" in2="effect1_dropShadow_22057_76" result="shape"/></filter><filter id="x" x="1401.49" y="131.245" width="48.613" height="48.141" filterUnits="userSpaceOnUse" color-interpolation-filters="sRGB"><feFlood flood-opacity="0" result="BackgroundImageFix"/><feColorMatrix in="SourceAlpha" values="0 0 0 0 0 0 0 0 0 0 0 0 0 0 0 0 0 0 127 0" result="hardAlpha"/><feMorphology radius="2" operator="dilate" in="SourceAlpha" result="effect1_dropShadow_22057_76"/><feOffset/><feGaussianBlur stdDeviation="5"/><feComposite in2="hardAlpha" operator="out"/><feColorMatrix values="0 0 0 0 1 0 0 0 0 0.880348 0 0 0 0 0.658138 0 0 0 1 0"/><feBlend in2="BackgroundImageFix" result="effect1_dropShadow_22057_76"/><feBlend in="SourceGraphic" in2="effect1_dropShadow_22057_76" result="shape"/></filter><filter id="y" x="1430.49" y="186.245" width="48.613" height="48.141" filterUnits="userSpaceOnUse" color-interpolation-filters="sRGB"><feFlood flood-opacity="0" result="BackgroundImageFix"/><feColorMatrix in="SourceAlpha" values="0 0 0 0 0 0 0 0 0 0 0 0 0 0 0 0 0 0 127 0" result="hardAlpha"/><feMorphology radius="2" operator="dilate" in="SourceAlpha" result="effect1_dropShadow_22057_76"/><feOffset/><feGaussianBlur stdDeviation="5"/><feComposite in2="hardAlpha" operator="out"/><feColorMatrix values="0 0 0 0 1 0 0 0 0 0.880348 0 0 0 0 0.658138 0 0 0 1 0"/><feBlend in2="BackgroundImageFix" result="effect1_dropShadow_22057_76"/><feBlend in="SourceGraphic" in2="effect1_dropShadow_22057_76" result="shape"/></filter></defs></svg>