<svg width="72" height="99" viewBox="0 0 72 99" fill="none" xmlns="http://www.w3.org/2000/svg">
<path fill-rule="evenodd" clip-rule="evenodd" d="M43.0721 3.06118C39.7921 0.100933 34.7334 0.360103 31.7732 3.64006L26.4787 9.50631C23.9001 12.3634 23.7643 16.5702 25.9401 19.564C16.6309 28.3743 3.9293 41.9965 1.32051 50.9409C-2.66319 64.5993 31.4828 103.867 48.5557 95.3306C58.5078 90.3546 54.7304 80.5442 51.088 71.0846C48.4818 64.3161 45.9447 57.7272 48.5557 53.2173C50.4716 49.9082 52.3374 47.1598 54.0068 44.9531C57.2307 46.9484 61.5181 46.419 64.1486 43.5045L69.4431 37.6382C72.4033 34.3583 72.1442 29.2996 68.8642 26.3393L43.0721 3.06118Z" fill="#303030" fill-opacity="0.5"/>
<path d="M31.7732 3.64006L31.402 3.30506H31.402L31.7732 3.64006ZM43.0721 3.06118L42.7371 3.43236L43.0721 3.06118ZM26.4787 9.50631L26.8499 9.84131L26.4787 9.50631ZM25.9401 19.564L26.2838 19.9271L26.6027 19.6252L26.3445 19.27L25.9401 19.564ZM1.32051 50.9409L1.80051 51.0809L1.32051 50.9409ZM48.5557 95.3306L48.3321 94.8834L48.5557 95.3306ZM51.088 71.0846L51.5546 70.905L51.088 71.0846ZM48.5557 53.2173L48.123 52.9668L48.5557 53.2173ZM54.0068 44.9531L54.2699 44.5279L53.8827 44.2883L53.608 44.6514L54.0068 44.9531ZM64.1486 43.5045L64.5198 43.8395L64.1486 43.5045ZM69.4431 37.6382L69.0719 37.3032L69.4431 37.6382ZM68.8642 26.3393L69.1992 25.9681L68.8642 26.3393ZM31.402 3.30506L30.7402 4.03834L31.4825 4.70834L32.1444 3.97506L31.402 3.30506ZM29.4166 5.5049L28.093 6.97146L28.8353 7.64146L30.1589 6.1749L29.4166 5.5049ZM26.7693 8.43803L26.1075 9.17131L26.8499 9.84131L27.5117 9.10803L26.7693 8.43803ZM26.1075 9.17131C25.8896 9.41273 25.6881 9.66338 25.5028 9.92188L26.3155 10.5045C26.4791 10.2763 26.6571 10.0549 26.8499 9.84131L26.1075 9.17131ZM24.5661 11.6042C24.317 12.2038 24.1401 12.825 24.0346 13.4549L25.0209 13.62C25.1139 13.0642 25.27 12.5164 25.4896 11.9879L24.5661 11.6042ZM23.9329 15.3768C23.9714 16.0174 24.0821 16.6538 24.2642 17.2729L25.2236 16.9906C25.0628 16.4443 24.9651 15.8825 24.9311 15.3168L23.9329 15.3768ZM25.0139 19.0464C25.1711 19.3246 25.345 19.5957 25.5356 19.8579L26.3445 19.27C26.1765 19.0388 26.0232 18.7999 25.8847 18.5546L25.0139 19.0464ZM25.5964 19.2008C25.3557 19.4285 25.1128 19.6595 24.8679 19.8935L25.5587 20.6166C25.8025 20.3836 26.0442 20.1538 26.2838 19.9271L25.5964 19.2008ZM23.4181 21.2915C22.9433 21.7536 22.4629 22.2254 21.9785 22.7058L22.6826 23.4159C23.1648 22.9377 23.643 22.4681 24.1156 22.0082L23.4181 21.2915ZM20.5558 24.13C20.087 24.6037 19.6159 25.0843 19.1438 25.5709L19.8615 26.2672C20.3312 25.7831 20.8001 25.3048 21.2666 24.8334L20.5558 24.13ZM17.7483 27.0238C17.2871 27.509 16.8262 27.999 16.3668 28.4929L17.0991 29.1739C17.5559 28.6828 18.0143 28.1954 18.4731 27.7127L17.7483 27.0238ZM15.0021 29.9772C14.5499 30.4749 14.1004 30.9756 13.655 31.4784L14.4035 32.1415C14.8461 31.6419 15.2927 31.1444 15.7422 30.6497L15.0021 29.9772ZM12.3273 32.9976C11.8862 33.5096 11.4504 34.0229 11.0211 34.5366L11.7885 35.1777C12.2143 34.6681 12.6469 34.1587 13.0848 33.6504L12.3273 32.9976ZM9.7398 36.0964C9.31286 36.6254 8.89423 37.154 8.48532 37.6812L9.27549 38.2941C9.68023 37.7723 10.0949 37.2487 10.518 36.7244L9.7398 36.0964ZM7.26402 39.2914C6.85651 39.8415 6.46126 40.3891 6.07989 40.933L6.89867 41.5071C7.27472 40.9708 7.66488 40.4303 8.06758 39.8866L7.26402 39.2914ZM4.94125 42.6101C4.56244 43.1877 4.20165 43.76 3.86102 44.3253L4.71753 44.8414C5.05107 44.2879 5.40503 43.7264 5.77749 43.1584L4.94125 42.6101ZM2.85134 46.0921C2.51745 46.712 2.21173 47.3219 1.9374 47.9195L2.84622 48.3367C3.11073 47.7605 3.40679 47.1697 3.73178 46.5662L2.85134 46.0921ZM1.1592 49.8192C1.04102 50.1511 0.934547 50.4785 0.840508 50.8009L1.80051 51.0809C1.8887 50.7785 1.98909 50.4697 2.10125 50.1547L1.1592 49.8192ZM0.840508 50.8009C0.743949 51.132 0.668836 51.4752 0.614023 51.8293L1.60225 51.9822C1.65089 51.668 1.71693 51.3675 1.80051 51.0809L0.840508 50.8009ZM0.512019 53.9242C0.540702 54.5783 0.620332 55.2593 0.74673 55.9628L1.73097 55.786C1.61143 55.1207 1.53754 54.4844 1.51106 53.8804L0.512019 53.9242ZM1.20907 57.9508C1.38665 58.5813 1.59575 59.2267 1.8343 59.8843L2.77436 59.5433C2.54339 58.9066 2.34198 58.2846 2.17163 57.6797L1.20907 57.9508ZM2.58227 61.7668C2.8424 62.3713 3.12457 62.9841 3.42738 63.6037L4.3258 63.1645C4.0296 62.5585 3.75421 61.9603 3.50082 61.3715L2.58227 61.7668ZM4.35258 65.3996C4.6674 65.9817 4.99881 66.5683 5.34577 67.158L6.20766 66.6509C5.86652 66.0711 5.54104 65.4949 5.23218 64.9239L4.35258 65.3996ZM6.39028 68.8689C6.74366 69.4277 7.10996 69.9883 7.48834 70.5495L8.31749 69.9904C7.94442 69.4371 7.58347 68.8847 7.23547 68.3344L6.39028 68.8689ZM8.63511 72.2007C9.02195 72.7419 9.41928 73.2827 9.82635 73.8223L10.6246 73.22C10.2226 72.6872 9.83041 72.1533 9.44867 71.6192L8.63511 72.2007ZM11.0555 75.4099C11.4692 75.9308 11.8914 76.4497 12.3214 76.9654L13.0895 76.325C12.6645 75.8153 12.2473 75.3027 11.8386 74.788L11.0555 75.4099ZM13.6257 78.4925C14.0656 78.9954 14.5125 79.4944 14.9658 79.9887L15.7028 79.3128C15.2548 78.8243 14.8132 78.3311 14.3784 77.8341L13.6257 78.4925ZM16.3394 81.4517C16.8037 81.9346 17.2736 82.4119 17.7486 82.8828L18.4527 82.1726C17.9834 81.7074 17.5191 81.2358 17.0603 80.7587L16.3394 81.4517ZM19.1922 84.279C19.6801 84.7393 20.1724 85.1922 20.6686 85.6368L21.336 84.892C20.8463 84.4532 20.3602 84.0062 19.8785 83.5517L19.1922 84.279ZM22.1847 86.959C22.6992 87.3955 23.217 87.8223 23.7374 88.2387L24.3621 87.4578C23.8494 87.0476 23.339 86.6269 22.8316 86.1964L22.1847 86.959ZM25.3262 89.4704C25.8661 89.8756 26.4081 90.2687 26.9514 90.6485L27.5245 89.829C26.9907 89.4558 26.4577 89.0693 25.9264 88.6706L25.3262 89.4704ZM28.6253 91.7739C29.1981 92.1435 29.7716 92.4973 30.3448 92.8342L30.8515 91.9721C30.2908 91.6426 29.7291 91.296 29.1674 90.9336L28.6253 91.7739ZM32.1098 93.8176C32.7157 94.1364 33.3206 94.4348 33.9232 94.7112L34.3402 93.8023C33.7549 93.5338 33.1662 93.2434 32.5753 92.9326L32.1098 93.8176ZM35.7886 95.4985C36.4328 95.746 37.0734 95.9664 37.709 96.1574L37.9969 95.1997C37.3867 95.0163 36.7698 94.8043 36.1473 94.565L35.7886 95.4985ZM39.6852 96.6584C40.3685 96.7983 41.0447 96.9006 41.7117 96.9625L41.8041 95.9668C41.1761 95.9085 40.536 95.8118 39.8857 95.6787L39.6852 96.6584ZM43.7715 97.021C44.471 96.9932 45.1575 96.9146 45.8283 96.7814L45.6336 95.8006C45.0169 95.923 44.3824 95.9959 43.7318 96.0218L43.7715 97.021ZM47.8235 96.202C48.1473 96.0757 48.466 95.9345 48.7793 95.7778L48.3321 94.8834C48.0465 95.0262 47.7558 95.1551 47.4603 95.2703L47.8235 96.202ZM48.7793 95.7778C49.0882 95.6234 49.3848 95.4642 49.6694 95.3002L49.1702 94.4337C48.9033 94.5875 48.6241 94.7374 48.3321 94.8834L48.7793 95.7778ZM51.3545 94.1687C51.9169 93.7271 52.414 93.2598 52.85 92.7685L52.1021 92.1047C51.7077 92.549 51.2547 92.9756 50.7369 93.3822L51.3545 94.1687ZM54.0521 91.0994C54.3984 90.494 54.6721 89.8643 54.8812 89.2141L53.9293 88.908C53.7406 89.4947 53.4945 90.0602 53.1841 90.6028L54.0521 91.0994ZM55.3218 87.214C55.4071 86.552 55.4398 85.8754 55.428 85.1875L54.4281 85.2047C54.4392 85.8498 54.4084 86.4776 54.33 87.0863L55.3218 87.214ZM55.2778 83.1784C55.1951 82.5295 55.0811 81.8723 54.9415 81.209L53.9629 81.4151C54.0978 82.0556 54.207 82.686 54.2859 83.3048L55.2778 83.1784ZM54.4714 79.2766C54.2995 78.6474 54.1097 78.0139 53.9066 77.3778L52.954 77.6821C53.1536 78.3069 53.3392 78.9267 53.5067 79.5401L54.4714 79.2766ZM53.2762 75.5066C53.0592 74.8906 52.8336 74.2732 52.6032 73.6562L51.6664 74.0059C51.8952 74.6188 52.1186 75.2302 52.333 75.8388L53.2762 75.5066ZM51.9065 71.8199C51.7893 71.5145 51.6718 71.2094 51.5546 70.905L50.6214 71.2643C50.7386 71.5688 50.8559 71.8734 50.9728 72.1781L51.9065 71.8199ZM51.5546 70.905C51.4429 70.615 51.3315 70.3256 51.2206 70.0367L50.287 70.3951C50.3981 70.6845 50.5097 70.9744 50.6214 71.2643L51.5546 70.905ZM50.5612 68.3009C50.3425 67.7165 50.1297 67.1362 49.9261 66.5611L48.9834 66.8949C49.1895 67.477 49.4045 68.063 49.6246 68.6514L50.5612 68.3009ZM49.3329 64.812C49.1411 64.2163 48.9636 63.6285 48.8042 63.0498L47.8401 63.3153C48.0039 63.9099 48.1856 64.5116 48.381 65.1185L49.3329 64.812ZM48.3696 61.2723C48.2409 60.6604 48.1392 60.0626 48.0691 59.4804L47.0763 59.5999C47.1503 60.2152 47.2572 60.842 47.391 61.4781L48.3696 61.2723ZM47.9587 57.6854C47.9614 57.0723 48.0101 56.4832 48.1109 55.9197L47.1265 55.7437C47.0144 56.3708 46.9616 57.018 46.9587 57.6811L47.9587 57.6854ZM48.6012 54.2447C48.7139 53.9787 48.8426 53.7197 48.9884 53.4678L48.123 52.9668C47.956 53.2552 47.8089 53.5514 47.6804 53.8548L48.6012 54.2447ZM48.9884 53.4678C49.1973 53.1071 49.4055 52.7532 49.6129 52.406L48.7543 51.8932C48.5446 52.2443 48.3341 52.6022 48.123 52.9668L48.9884 53.4678ZM50.9049 50.3101C51.3625 49.5909 51.814 48.9054 52.2572 48.2534L51.4302 47.6913C50.9813 48.3516 50.5243 49.0455 50.0612 49.7732L50.9049 50.3101ZM53.6729 46.2415C53.9209 45.9011 54.1653 45.5722 54.4055 45.2547L53.608 44.6514C53.3642 44.9737 53.1163 45.3073 52.8648 45.6525L53.6729 46.2415ZM53.7436 45.3782C54.0251 45.5525 54.3143 45.7086 54.6095 45.8467L55.0333 44.9409C54.7731 44.8192 54.5181 44.6815 54.2699 44.5279L53.7436 45.3782ZM56.4741 46.4667C57.1193 46.6007 57.7761 46.6587 58.4304 46.6416L58.4043 45.642C57.8264 45.657 57.2467 45.6058 56.6774 45.4876L56.4741 46.4667ZM60.3748 46.365C61.0053 46.1996 61.6199 45.9609 62.2048 45.6496L61.7349 44.7668C61.2194 45.0412 60.6774 45.2518 60.121 45.3978L60.3748 46.365ZM63.8201 44.5309C64.0637 44.3164 64.2974 44.0859 64.5198 43.8395L63.7775 43.1695C63.5807 43.3875 63.3742 43.5911 63.1592 43.7804L63.8201 44.5309ZM64.5198 43.8395L65.1816 43.1062L64.4393 42.4362L63.7775 43.1695L64.5198 43.8395ZM66.5052 41.6396L67.8288 40.1731L67.0865 39.5031L65.7629 40.9696L66.5052 41.6396ZM69.1525 38.7065L69.8143 37.9732L69.0719 37.3032L68.4101 38.0365L69.1525 38.7065ZM69.8143 37.9732C70.0661 37.6942 70.2961 37.4029 70.5043 37.1014L69.6816 36.5331C69.4978 36.7991 69.2947 37.0564 69.0719 37.3032L69.8143 37.9732ZM71.5154 35.1254C71.7657 34.4202 71.9194 33.6899 71.9776 32.9548L70.9808 32.8759C70.9294 33.5249 70.7937 34.1691 70.573 34.7909L71.5154 35.1254ZM71.8641 30.7392C71.7311 30.0138 71.5036 29.3032 71.1824 28.6272L70.2792 29.0563C70.5623 29.6522 70.7631 30.2792 70.8805 30.9196L71.8641 30.7392ZM69.9748 26.7649C69.7368 26.4862 69.4782 26.2199 69.1992 25.9681L68.5292 26.7105C68.776 26.9332 69.0044 27.1685 69.2144 27.4143L69.9748 26.7649ZM69.1992 25.9681L68.4828 25.3215L67.8128 26.0639L68.5292 26.7105L69.1992 25.9681ZM67.0499 24.0283L65.617 22.7351L64.947 23.4774L66.3799 24.7707L67.0499 24.0283ZM64.1841 21.4418L62.7512 20.1486L62.0812 20.891L63.5141 22.1842L64.1841 21.4418ZM61.3183 18.8554L59.8854 17.5621L59.2154 18.3045L60.6483 19.5977L61.3183 18.8554ZM58.4525 16.2689L57.0196 14.9757L56.3496 15.718L57.7825 17.0113L58.4525 16.2689ZM55.5867 13.6825L54.1538 12.3892L53.4838 13.1316L54.9167 14.4248L55.5867 13.6825ZM52.7209 11.096L51.288 9.80277L50.618 10.5451L52.0509 11.8384L52.7209 11.096ZM49.8551 8.50954L48.4222 7.21631L47.7522 7.95867L49.1851 9.2519L49.8551 8.50954ZM46.9893 5.92308L45.5564 4.62985L44.8864 5.37221L46.3193 6.66544L46.9893 5.92308ZM44.1235 3.33662L43.4071 2.69L42.7371 3.43236L43.4535 4.07898L44.1235 3.33662ZM43.4071 2.69C43.1281 2.4382 42.8368 2.20819 42.5353 1.99992L41.9669 2.82271C42.2329 3.00646 42.4903 3.20962 42.7371 3.43236L43.4071 2.69ZM40.5593 0.988892C39.854 0.738532 39.1238 0.584829 38.3886 0.526632L38.3097 1.52351C38.9588 1.57489 39.603 1.71056 40.2247 1.93128L40.5593 0.988892ZM36.173 0.640143C35.4477 0.773167 34.737 1.00069 34.061 1.32182L34.4901 2.22508C35.0861 1.94197 35.713 1.74118 36.3534 1.62374L36.173 0.640143ZM32.1987 2.52949C31.9201 2.76748 31.6538 3.02606 31.402 3.30506L32.1444 3.97506C32.3671 3.72826 32.6023 3.49986 32.8482 3.28989L32.1987 2.52949Z" fill="#979ABE"/>
</svg>
