<svg width="72" height="99" viewBox="0 0 72 99" fill="none" xmlns="http://www.w3.org/2000/svg">
<path d="M1.32051 53.5312C4.50746 42.6045 22.7566 24.6969 31.4828 17.1089L59.9377 41.011C58.2304 42.3389 53.5638 47.1573 48.5557 55.8076C42.2956 66.6205 65.6287 89.3845 48.5557 97.921C31.4828 106.457 -2.66319 67.1896 1.32051 53.5312Z" fill="#A21C11" stroke="black" stroke-linecap="round"/>
<path d="M48.5557 97.9209C43.277 100.56 36.3662 98.6297 29.455 94.2992C30.2945 88.3831 36.2177 77.1199 53.1937 79.3963C55.6954 86.8935 56.5015 93.948 48.5557 97.9209Z" fill="#F35345"/>
<path d="M7.33084 71.998C2.64954 64.8259 0.0520228 57.8802 1.32051 53.5311C2.44416 49.6786 5.44022 44.9583 9.23112 40.1284C19.4582 52.8762 12.2256 66.6864 7.33084 71.998Z" fill="#F35345"/>
<path d="M48.5557 97.9209C43.277 100.56 36.3662 98.6297 29.455 94.2992C30.2945 88.3831 36.2177 77.1199 53.1937 79.3963C55.6954 86.8935 56.5015 93.948 48.5557 97.9209Z" stroke="black" stroke-linecap="round"/>
<path d="M7.33084 71.998C2.64954 64.8259 0.0520228 57.8802 1.32051 53.5311C2.44416 49.6786 5.44022 44.9583 9.23112 40.1284C19.4582 52.8762 12.2256 66.6864 7.33084 71.998Z" stroke="black" stroke-linecap="round"/>
<rect x="37.169" y="0.997685" width="49.7434" height="22.9022" rx="7.5" transform="rotate(42.0671 37.169 0.997685)" fill="white" stroke="black"/>
</svg>
