<svg width="1473" height="789" viewBox="0 0 1473 789" fill="none" xmlns="http://www.w3.org/2000/svg">
  <g filter="url(#filter0_i_22057_76)">
    <path d="M262.124 0.5H1C5.15177 40.5334 5.98913 122.38 8.12433 129.497C10.2595 136.614 15.0934 144.386 18.8003 147.5L10.7933 152.627C10.7933 170.42 11.4161 209.741 13.9072 224.687C16.3982 239.633 12.8692 246.335 10.7933 247.818V284.293C13.4623 286.517 18.8003 297.637 18.8003 324.326C18.8003 351.015 13.4623 367.77 10.7933 372.811V473.339L21.9142 477.5L5.90016 490.687V533.834L13.9072 539.5L5.90016 546.289V713L121.5 788.269H1449.83V665.055C1437.22 665.5 1432.3 663.068 1435.5 662C1438.7 660.932 1449.83 657.5 1449.83 657.5V478L1444.05 471.115L1449.83 460.885V328.329C1448.05 326.402 1446.36 325.194 1446 319.5C1445.64 313.806 1447.75 311.207 1449.83 307.5C1446.27 286.445 1455.01 230.697 1464.51 193.995C1475.5 151.5 1471 72.5 1471 72.5L1282 0.5H1185.15L1178.48 7.17224L1170.03 1.5H276.803L271.021 5.83779L262.124 0.5Z" fill="#B5956E"/>
  </g>
  <path d="M262.124 0.5H1C5.15177 40.5334 5.98913 122.38 8.12433 129.497C10.2595 136.614 15.0934 144.386 18.8003 147.5L10.7933 152.627C10.7933 170.42 11.4161 209.741 13.9072 224.687C16.3982 239.633 12.8692 246.335 10.7933 247.818V284.293C13.4623 286.517 18.8003 297.637 18.8003 324.326C18.8003 351.015 13.4623 367.77 10.7933 372.811V473.339L21.9142 477.5L5.90016 490.687V533.834L13.9072 539.5L5.90016 546.289V713L121.5 788.269H1449.83V665.055C1437.22 665.5 1432.3 663.068 1435.5 662C1438.7 660.932 1449.83 657.5 1449.83 657.5V478L1444.05 471.115L1449.83 460.885V328.329C1448.05 326.402 1446.36 325.194 1446 319.5C1445.64 313.806 1447.75 311.207 1449.83 307.5C1446.27 286.445 1455.01 230.697 1464.51 193.995C1475.5 151.5 1471 72.5 1471 72.5L1282 0.5H1185.15L1178.48 7.17224L1170.03 1.5H276.803L271.021 5.83779L262.124 0.5Z" stroke="black" stroke-linecap="round" stroke-linejoin="round"/>
  <path d="M456.955 294.705L324.484 340.353C316.415 343.134 311 350.728 311 359.262V362.349L323.808 510.691C324.525 518.997 330.319 525.987 338.348 528.232L612.812 604.974C622.171 607.591 632.056 603.101 636.245 594.333L668.052 527.74C669.076 525.597 670.473 523.654 672.178 522.001L787.007 410.673C793.257 404.614 794.87 395.208 790.996 387.413L760.394 325.836C757.912 320.841 753.456 317.109 748.102 315.542L616.902 277.142C614.327 276.388 611.627 276.161 608.962 276.472L461.149 293.749C459.72 293.916 458.314 294.236 456.955 294.705Z" fill="#523D37" stroke="black" stroke-linecap="round"/>
  <path d="M637 666.5V642M637 642L312.169 555.507C304.224 553.391 298.383 546.629 297.446 538.461L273 325.5M637 642L706.748 538.361C707.58 537.124 708.548 535.984 709.633 534.963L835.5 416.5M835.5 416.5L1061.07 404.106C1062.36 404.035 1063.64 404.088 1064.91 404.264L1247.5 429.5M835.5 416.5L778 293M1247.5 429.5C1302.5 395 1370.5 364 1392.5 397.5C1414.5 431 1395.5 681.5 1363.5 666.5C1351.69 660.962 1247.5 577 1218 536.5C1208.3 523.187 1247.5 429.5 1247.5 429.5ZM778 293L639.647 254.241C637.89 253.749 636.075 253.5 634.251 253.5H602.5M778 293L893.773 222.657C895.58 221.559 897.549 220.755 899.607 220.274L1080.5 178M273 325.5L467.748 268.017C468.914 267.673 470.108 267.436 471.316 267.309L602.5 253.5M273 325.5L115.5 346M602.5 253.5L637.14 198.653C641.571 191.637 641.209 182.613 636.23 175.974L581.5 103" stroke="#86675E" stroke-width="6" stroke-linecap="square" stroke-dasharray="12 24"/>
  <path d="M425.934 626.78L418.894 624.936C414.757 623.853 410.499 626.215 409.228 630.298L391.23 688.122C389.627 693.272 393.475 698.5 398.869 698.5H418.708C422.84 698.5 426.292 695.354 426.674 691.24L431.872 635.259C432.234 631.36 429.721 627.772 425.934 626.78Z" fill="#9BB468" stroke="black" stroke-linecap="round"/>
  <path d="M477.89 640.061L455.487 633.951C450.76 632.662 445.995 635.887 445.435 640.754L439.526 692.085C438.979 696.835 442.693 701 447.474 701H467.354C471.206 701 474.512 698.254 475.218 694.466L483.649 649.245C484.412 645.151 481.907 641.157 477.89 640.061Z" fill="#9BB468" stroke="black" stroke-linecap="round"/>
  <path d="M522.533 651.267L509.02 647.911C504.76 646.853 500.443 649.425 499.345 653.675L489.581 691.5C488.274 696.564 492.098 701.5 497.327 701.5H518.478C522.705 701.5 526.203 698.212 526.463 693.993L528.59 659.524C528.827 655.671 526.28 652.198 522.533 651.267Z" fill="#9BB468" stroke="black" stroke-linecap="round"/>
  <path d="M561.282 660.987L548.591 658.643C543.863 657.77 539.439 661.234 539.152 666.033L537.507 693.522C537.232 698.12 540.887 702 545.493 702H559.855C562.706 702 565.343 700.482 566.774 698.016L570.483 691.624C571.461 689.94 571.79 687.956 571.41 686.046L567.675 667.292C567.035 664.08 564.502 661.582 561.282 660.987Z" fill="#9BB468" stroke="black" stroke-linecap="round"/>
  <path d="M640.359 706.385L595.491 703.369C592.184 703.146 589.265 700.908 588.692 697.643C583.887 670.247 614.986 668.493 631 676.5C640.344 681.172 645.345 690.36 647.723 698.031C649.157 702.661 645.195 706.71 640.359 706.385Z" fill="#9BB468" stroke="black" stroke-linecap="round"/>
  <path d="M833.141 293.205L916.257 242.184C918.074 241.068 920.058 240.251 922.133 239.762L1080.73 202.389C1083.22 201.802 1085.58 200.742 1087.67 199.267L1204.19 117.096C1207.95 114.447 1212.5 113.172 1217.09 113.488L1330.47 121.293C1340.5 121.984 1348.45 130.006 1349.06 140.038L1360.68 331.944C1361.17 340.127 1356.63 347.784 1349.2 351.263L1247.39 398.976C1243.87 400.623 1239.95 401.212 1236.11 400.671L1070.18 377.307C1068.73 377.103 1067.26 377.058 1065.81 377.174L873.898 392.397C865.547 393.06 857.668 388.448 854.158 380.841L825.445 318.631C821.199 309.43 824.505 298.507 833.141 293.205Z" fill="#523D37" stroke="black" stroke-linecap="round"/>
  <path d="M1227 50.0437C1232.36 49.61 1243.34 52.2746 1253 64" stroke="#86675E" stroke-width="6" stroke-linecap="square"/>
  <path d="M1234 39.0932C1239.75 38.6097 1254.73 39.5579 1266 53" stroke="#86675E" stroke-width="6" stroke-linecap="square"/>
  <path d="M1222 83C1227.29 71.8485 1244.3 47.0364 1270 37" stroke="#86675E" stroke-width="6" stroke-linecap="square"/>
  <path d="M136.5 727C179 761.5 277 742.5 395 711.5" stroke="#86675E" stroke-width="4" stroke-linecap="square" stroke-dasharray="8 12"/>
  <path d="M40 711H122" stroke="#86675E" stroke-width="4" stroke-linecap="round"/>
  <path d="M80.5 670L80.5 698" stroke="#86675E" stroke-width="4" stroke-linecap="round"/>
  <path d="M81.5 722L81.5 750" stroke="#86675E" stroke-width="4" stroke-linecap="round"/>
  <path d="M64 700C66.3333 700.833 71.5 702.7 73.5 703.5" stroke="#86675E" stroke-width="3" stroke-linecap="round"/>
  <path d="M91 703.108L97 699.608" stroke="#86675E" stroke-width="3" stroke-linecap="round"/>
  <path d="M89 718.608L95 722.108" stroke="#86675E" stroke-width="3" stroke-linecap="round"/>
  <path d="M72.5 718.608L66.5 722.108" stroke="#86675E" stroke-width="3" stroke-linecap="round"/>
  <ellipse cx="81.5" cy="711" rx="5.5" ry="6" fill="#86675E"/>
  <path d="M92.5089 782.192C102.211 788.42 125.159 788.731 132 788.42C123.293 788.42 91.4723 758.525 80.0707 743.267H71.6749V731.745C43.8135 682.17 27.1049 678.496 22.2333 682.855C19.4969 701.041 14.7067 705.858 6 712.708C30.5654 741.669 82.8071 775.964 92.5089 782.192Z" fill="#E1AF6D" stroke="black" stroke-linecap="round"/>
  <path d="M54 589L80 609" stroke="#86675E" stroke-width="6" stroke-linecap="square"/>
  <path d="M65.5879 582.66L68.4129 615.341" stroke="#86675E" stroke-width="6" stroke-linecap="square"/>
  <path d="M191.242 81.4052C171.099 79.6917 126.283 78.7257 108.166 88.5696C85.5201 100.874 84.3516 129.303 104.5 120C124.648 110.697 120.206 76.2067 60.5 75" stroke="#86675E" stroke-width="4" stroke-linecap="square" stroke-dasharray="8 12"/>
  <path d="M1352.5 685.01C1353.83 679.01 1357.5 667.01 1361.5 667.01C1366.5 667.01 1377 676.51 1379.5 679.51M1352.5 685.01C1355.5 692.51 1382 682.51 1379.5 679.51M1352.5 685.01C1354.09 683.799 1356.72 682.244 1360 680.962M1379.5 679.51C1376.43 678.664 1373.39 678.428 1370.5 678.598M1360 680.962C1363.04 679.776 1366.63 678.825 1370.5 678.598M1360 680.962C1360.57 682.126 1362.28 683.986 1365 683.492M1370.5 678.598C1370.67 679.386 1370.1 681.371 1366.5 683.01C1365.97 683.251 1365.47 683.406 1365 683.492M1365 683.492V701.01" stroke="#86675E" stroke-width="2" stroke-linecap="square"/>
  <path d="M1349 665.009C1346.6 665.409 1344 680.51 1344 684.01C1344 687.705 1346.59 688.168 1349 687.605C1350.83 687.177 1352.57 686.157 1353 685.509C1354 684.009 1352 664.509 1349 665.009Z" fill="#86675E"/>
  <path d="M1349 687.605C1350.83 687.177 1352.57 686.157 1353 685.509C1354 684.009 1352 664.509 1349 665.009C1346.6 665.409 1344 680.51 1344 684.01C1344 687.705 1346.59 688.168 1349 687.605ZM1349 687.605V700.51" stroke="#86675E" stroke-width="2" stroke-linecap="square"/>
  <path d="M1337.02 671.525C1338.55 671.934 1341 680.102 1341 683.68C1341 687.457 1339.35 687.931 1337.81 687.354C1336.65 686.917 1335.54 685.874 1335.26 685.213C1334.63 683.679 1335.11 671.014 1337.02 671.525Z" fill="#86675E"/>
  <path d="M1337.81 687.354C1336.65 686.917 1335.54 685.874 1335.26 685.213C1334.63 683.679 1335.11 671.014 1337.02 671.525C1338.55 671.934 1341 680.102 1341 683.68C1341 687.457 1339.35 687.931 1337.81 687.354ZM1337.81 687.354V694.51" stroke="#86675E" stroke-width="2" stroke-linecap="square"/>
  <path d="M1404 714C1357.33 711.666 1230.4 719.6 1096 770" stroke="#86675E" stroke-width="4" stroke-linecap="square" stroke-dasharray="8 12"/>
  <path d="M409.872 46.964C405.888 46.94 402.9 45.956 400.908 44.012C398.94 42.068 397.956 38.912 397.956 34.544C397.956 30.584 398.916 27.476 400.836 25.22C402.756 22.94 405.468 21.8 408.972 21.8C411.132 21.8 413.016 22.124 414.624 22.772C416.232 23.42 417.468 24.344 418.332 25.544C419.196 26.744 419.628 28.16 419.628 29.792C419.628 31.088 419.34 32.24 418.764 33.248C418.212 34.256 417.384 35.156 416.28 35.948C417.168 36.092 417.936 36.572 418.584 37.388C419.256 38.204 419.592 39.152 419.592 40.232C419.592 41.384 419.28 42.476 418.656 43.508C418.056 44.516 417.024 45.344 415.56 45.992C414.12 46.64 412.224 46.964 409.872 46.964ZM407.388 33.536C407.82 33.752 408.36 33.86 409.008 33.86C409.776 33.86 410.436 33.68 410.988 33.32C411.564 32.936 411.852 32.372 411.852 31.628C411.852 30.908 411.564 30.368 410.988 30.008C410.436 29.624 409.764 29.432 408.972 29.432C408.348 29.432 407.82 29.54 407.388 29.756C407.052 29.9 406.8 30.152 406.632 30.512C406.464 30.872 406.38 31.256 406.38 31.664C406.38 32.072 406.464 32.456 406.632 32.816C406.8 33.152 407.052 33.392 407.388 33.536ZM407.388 41.96C407.844 42.152 408.384 42.248 409.008 42.248C409.776 42.248 410.436 42.092 410.988 41.78C411.564 41.444 411.852 40.952 411.852 40.304C411.852 39.68 411.564 39.2 410.988 38.864C410.412 38.528 409.74 38.36 408.972 38.36C408.372 38.36 407.844 38.456 407.388 38.648C407.052 38.792 406.8 39.02 406.632 39.332C406.464 39.62 406.38 39.944 406.38 40.304C406.38 40.664 406.464 41 406.632 41.312C406.8 41.6 407.052 41.816 407.388 41.96ZM446.244 41.24C447.396 41.6 447.972 42.356 447.972 43.508C447.972 44.588 447.42 45.44 446.316 46.064C445.212 46.688 443.304 47 440.592 47C437.208 47 434.304 46.184 431.88 44.552C429.48 42.92 428.28 39.68 428.28 34.832C428.28 32.384 428.7 30.176 429.54 28.208C430.38 26.24 431.628 24.68 433.284 23.528C434.964 22.376 437.016 21.8 439.44 21.8C442.68 21.8 444.96 22.304 446.28 23.312C447.6 24.296 448.26 25.508 448.26 26.948C448.26 27.62 448.092 28.244 447.756 28.82C447.42 29.372 446.916 29.804 446.244 30.116C445.668 30.404 444.924 30.548 444.012 30.548L443.04 30.512C442.848 30.488 442.572 30.476 442.212 30.476C440.964 30.476 439.98 30.704 439.26 31.16C438.54 31.592 438.048 32.264 437.784 33.176C438.792 33.128 439.704 33.104 440.52 33.104C442.944 33.104 444.516 33.176 445.236 33.32C446.052 33.488 446.676 33.812 447.108 34.292C447.564 34.772 447.792 35.336 447.792 35.984C447.792 36.632 447.576 37.196 447.144 37.676C446.712 38.132 446.064 38.444 445.2 38.612C444.528 38.756 442.896 38.828 440.304 38.828C439.248 38.828 438.504 38.816 438.072 38.792C438.816 40.376 440.208 41.168 442.248 41.168C442.368 41.168 442.644 41.144 443.076 41.096C443.652 41.048 444.144 41.024 444.552 41.024C445.248 41.024 445.812 41.096 446.244 41.24ZM478.102 31.988C478.102 33.74 477.838 35.288 477.31 36.632C476.806 37.976 476.086 39.104 475.15 40.016C475.942 41.24 476.338 42.428 476.338 43.58C476.338 44.564 475.954 45.38 475.186 46.028C474.442 46.676 473.59 47 472.63 47C472.078 47 471.574 46.916 471.118 46.748C470.662 46.58 470.17 46.292 469.642 45.884C469.186 45.524 468.754 45.032 468.346 44.408C467.938 43.784 467.614 43.136 467.374 42.464C466.582 42.368 465.79 42.164 464.998 41.852C465.142 42.62 465.214 43.208 465.214 43.616C465.214 45.896 464.026 47.036 461.65 47.036C459.658 47.036 458.254 45.872 457.438 43.544C456.622 41.216 456.214 38.372 456.214 35.012C456.214 32.732 456.622 30.596 457.438 28.604C458.278 26.588 459.55 24.968 461.254 23.744C462.958 22.496 465.034 21.872 467.482 21.872C469.45 21.872 471.238 22.292 472.846 23.132C474.454 23.948 475.726 25.124 476.662 26.66C477.622 28.196 478.102 29.972 478.102 31.988ZM464.638 33.68C464.638 34.496 464.962 35.216 465.61 35.84C466.258 36.44 467.002 36.74 467.842 36.74C468.706 36.74 469.45 36.44 470.074 35.84C470.722 35.216 471.046 34.496 471.046 33.68C471.046 32.84 470.722 32.12 470.074 31.52C469.45 30.896 468.706 30.584 467.842 30.584C467.002 30.584 466.258 30.896 465.61 31.52C464.962 32.144 464.638 32.864 464.638 33.68ZM491.662 47.072C490.054 47.072 488.758 46.292 487.774 44.732C486.814 43.148 486.25 41.012 486.082 38.324C486.058 37.94 486.046 37.376 486.046 36.632C486.046 33.728 486.526 31.16 487.486 28.928C488.446 26.672 489.802 24.932 491.554 23.708C493.33 22.46 495.394 21.836 497.746 21.836C500.098 21.836 502.15 22.46 503.902 23.708C505.678 24.932 507.034 26.66 507.97 28.892C508.93 31.124 509.41 33.704 509.41 36.632C509.41 37.376 509.398 37.94 509.374 38.324C509.206 41.06 508.642 43.196 507.682 44.732C506.722 46.268 505.426 47.036 503.794 47.036C502.474 47.036 501.55 46.676 501.022 45.956C500.518 45.236 500.266 44.36 500.266 43.328C500.266 42.848 500.302 42.428 500.374 42.068C499.126 42.116 498.022 42.14 497.062 42.14C496.462 42.14 495.802 42.116 495.082 42.068C495.154 42.428 495.19 42.848 495.19 43.328C495.19 44.384 494.926 45.272 494.398 45.992C493.894 46.712 492.982 47.072 491.662 47.072ZM494.83 35.66C496.126 35.612 497.074 35.588 497.674 35.588C498.322 35.588 499.27 35.612 500.518 35.66C500.566 35.396 500.59 35 500.59 34.472C500.59 33.344 500.35 32.432 499.87 31.736C499.39 31.016 498.646 30.656 497.638 30.656C496.654 30.656 495.922 31.004 495.442 31.7C494.962 32.396 494.722 33.296 494.722 34.4C494.722 34.808 494.758 35.228 494.83 35.66ZM540.979 27.164C540.979 28.748 540.319 29.9 538.999 30.62C537.703 31.316 535.579 31.736 532.627 31.88C532.723 33.032 532.771 34.52 532.771 36.344C532.771 38.888 532.627 40.928 532.339 42.464C532.075 43.976 531.607 45.104 530.935 45.848C530.263 46.568 529.327 46.928 528.127 46.928C526.951 46.928 526.051 46.544 525.427 45.776C524.803 45.008 524.371 43.868 524.131 42.356C523.891 40.844 523.771 38.84 523.771 36.344C523.771 34.664 523.807 33.176 523.879 31.88C521.887 31.784 520.279 31.58 519.055 31.268C517.855 30.932 516.967 30.44 516.391 29.792C515.815 29.144 515.527 28.268 515.527 27.164C515.527 25.82 515.983 24.764 516.895 23.996C517.807 23.228 519.175 22.688 520.999 22.376C522.823 22.064 525.211 21.908 528.163 21.908C531.139 21.908 533.551 22.064 535.399 22.376C537.247 22.688 538.639 23.228 539.575 23.996C540.511 24.764 540.979 25.82 540.979 27.164ZM559.744 47.036C557.56 47.06 555.532 46.52 553.66 45.416C551.812 44.312 550.324 42.8 549.196 40.88C548.092 38.936 547.516 36.788 547.468 34.436C547.444 32.18 547.972 30.092 549.052 28.172C550.132 26.252 551.62 24.728 553.516 23.6C555.412 22.448 557.488 21.872 559.744 21.872C561.952 21.848 563.992 22.4 565.864 23.528C567.76 24.656 569.26 26.204 570.364 28.172C571.468 30.14 572.02 32.312 572.02 34.688C572.02 36.92 571.468 38.972 570.364 40.844C569.26 42.716 567.76 44.204 565.864 45.308C563.992 46.412 561.952 46.988 559.744 47.036ZM559.852 40.016C560.956 40.016 561.892 39.62 562.66 38.828C563.452 38.036 563.836 37.004 563.812 35.732C563.812 34.436 563.428 33.392 562.66 32.6C561.892 31.808 560.956 31.412 559.852 31.412C558.748 31.412 557.812 31.808 557.044 32.6C556.276 33.392 555.892 34.436 555.892 35.732C555.892 37.004 556.276 38.036 557.044 38.828C557.812 39.62 558.748 40.016 559.852 40.016ZM589.44 47C587.52 47 585.84 46.472 584.4 45.416C582.984 44.36 581.892 42.86 581.124 40.916C580.356 38.972 579.972 36.68 579.972 34.04C579.972 32.504 580.224 30.86 580.728 29.108C581.256 27.356 582 25.88 582.96 24.68C583.944 23.456 585.084 22.844 586.38 22.844C587.436 22.844 588.312 23.228 589.008 23.996C589.704 24.764 590.052 25.712 590.052 26.84C590.052 27.176 589.968 27.632 589.8 28.208C589.656 28.76 589.488 29.336 589.296 29.936C588.936 30.968 588.66 31.88 588.468 32.672C588.276 33.44 588.18 34.184 588.18 34.904C588.18 35.96 588.336 36.728 588.648 37.208C588.96 37.688 589.344 37.928 589.8 37.928C590.4 37.928 590.82 37.628 591.06 37.028C591.324 36.404 591.456 35.264 591.456 33.608L591.42 31.124C591.42 29.204 591.672 27.68 592.176 26.552C592.68 25.4 593.688 24.824 595.2 24.824C596.328 24.824 597.18 25.136 597.756 25.76C598.332 26.384 598.704 27.176 598.872 28.136C599.04 29.072 599.124 30.212 599.124 31.556V33.392C599.124 35.144 599.268 36.392 599.556 37.136C599.868 37.856 600.36 38.216 601.032 38.216C601.488 38.216 601.836 37.988 602.076 37.532C602.34 37.052 602.472 36.344 602.472 35.408C602.472 34.712 602.388 34.016 602.22 33.32C602.052 32.624 601.788 31.736 601.428 30.656C601.116 29.624 600.888 28.856 600.744 28.352C600.624 27.824 600.564 27.32 600.564 26.84C600.564 25.712 600.924 24.776 601.644 24.032C602.388 23.288 603.252 22.916 604.236 22.916C605.652 22.916 606.84 23.516 607.8 24.716C608.784 25.892 609.516 27.344 609.996 29.072C610.476 30.8 610.716 32.456 610.716 34.04C610.716 36.68 610.332 38.972 609.564 40.916C608.796 42.86 607.692 44.36 606.252 45.416C604.836 46.448 603.168 46.964 601.248 46.964C600.192 46.964 599.16 46.724 598.152 46.244C597.144 45.764 596.208 45.044 595.344 44.084C594.48 45.044 593.532 45.776 592.5 46.28C591.492 46.76 590.472 47 589.44 47ZM624.263 47C623.087 47 622.127 46.28 621.383 44.84C620.663 43.4 620.147 41.66 619.835 39.62C619.523 37.58 619.367 35.612 619.367 33.716C619.367 30.62 619.859 27.872 620.843 25.472C621.851 23.048 623.531 21.836 625.883 21.836C626.915 21.836 627.815 22.232 628.583 23.024C629.375 23.816 630.059 24.848 630.635 26.12C631.211 27.368 631.907 29.108 632.723 31.34L633.335 33.032C633.287 32.12 633.263 31.448 633.263 31.016C633.263 28.208 633.635 25.976 634.379 24.32C635.147 22.664 636.359 21.836 638.015 21.836C640.007 21.836 641.375 23.024 642.119 25.4C642.863 27.752 643.235 30.524 643.235 33.716C643.235 35.612 642.995 37.58 642.515 39.62C642.059 41.66 641.279 43.4 640.175 44.84C639.071 46.28 637.631 47 635.855 47C634.775 47 633.827 46.616 633.011 45.848C632.219 45.056 631.547 44.084 630.995 42.932C630.467 41.78 629.831 40.196 629.087 38.18C628.703 37.124 628.403 36.332 628.187 35.804L628.223 38.72C628.223 40.616 628.127 42.152 627.935 43.328C627.743 44.48 627.359 45.38 626.783 46.028C626.231 46.676 625.391 47 624.263 47ZM683.436 47C682.62 47 681.936 46.796 681.384 46.388C680.856 45.956 680.484 45.38 680.268 44.66C680.076 43.988 679.956 43.256 679.908 42.464C679.884 41.672 679.872 40.556 679.872 39.116C679.872 37.772 679.812 36.776 679.692 36.128C679.596 35.48 679.344 35.156 678.936 35.156C678.456 35.156 678.12 35.372 677.928 35.804C677.736 36.212 677.64 36.8 677.64 37.568C677.64 38.264 677.736 39.356 677.928 40.844C677.952 41.132 678 41.588 678.072 42.212C678.144 42.836 678.18 43.352 678.18 43.76C678.18 44.912 677.916 45.728 677.388 46.208C676.884 46.688 676.14 46.928 675.156 46.928C673.98 46.928 672.96 46.292 672.096 45.02C671.232 43.748 670.584 42.164 670.152 40.268C669.72 38.348 669.504 36.464 669.504 34.616C669.504 32.408 669.816 30.356 670.44 28.46C671.088 26.564 672.048 25.04 673.32 23.888C674.616 22.736 676.176 22.16 678 22.16C679.536 22.16 680.76 22.64 681.672 23.6C682.584 24.536 683.196 25.676 683.508 27.02C683.772 25.7 684.36 24.56 685.272 23.6C686.208 22.64 687.432 22.16 688.944 22.16C690.744 22.16 692.28 22.724 693.552 23.852C694.848 24.956 695.832 26.504 696.504 28.496C697.2 30.488 697.548 32.792 697.548 35.408C697.548 37.112 697.308 38.876 696.828 40.7C696.348 42.5 695.676 44 694.812 45.2C693.948 46.4 692.964 47 691.86 47C690.852 47 690.084 46.748 689.556 46.244C689.028 45.74 688.764 44.912 688.764 43.76C688.764 43.232 688.86 42.248 689.052 40.808C689.244 39.272 689.34 38.168 689.34 37.496C689.34 35.936 688.92 35.156 688.08 35.156C687.648 35.156 687.372 35.504 687.252 36.2C687.156 36.896 687.096 38.024 687.072 39.584C687.072 40.76 687.048 41.744 687 42.536C686.952 43.304 686.844 44.012 686.676 44.66C686.484 45.356 686.1 45.92 685.524 46.352C684.972 46.784 684.276 47 683.436 47ZM711.105 47.072C709.497 47.072 708.201 46.292 707.217 44.732C706.257 43.148 705.693 41.012 705.525 38.324C705.501 37.94 705.489 37.376 705.489 36.632C705.489 33.728 705.969 31.16 706.929 28.928C707.889 26.672 709.245 24.932 710.997 23.708C712.773 22.46 714.837 21.836 717.189 21.836C719.541 21.836 721.593 22.46 723.345 23.708C725.121 24.932 726.477 26.66 727.413 28.892C728.373 31.124 728.853 33.704 728.853 36.632C728.853 37.376 728.841 37.94 728.817 38.324C728.649 41.06 728.085 43.196 727.125 44.732C726.165 46.268 724.869 47.036 723.237 47.036C721.917 47.036 720.993 46.676 720.465 45.956C719.961 45.236 719.709 44.36 719.709 43.328C719.709 42.848 719.745 42.428 719.817 42.068C718.569 42.116 717.465 42.14 716.505 42.14C715.905 42.14 715.245 42.116 714.525 42.068C714.597 42.428 714.633 42.848 714.633 43.328C714.633 44.384 714.369 45.272 713.841 45.992C713.337 46.712 712.425 47.072 711.105 47.072ZM714.273 35.66C715.569 35.612 716.517 35.588 717.117 35.588C717.765 35.588 718.713 35.612 719.961 35.66C720.009 35.396 720.033 35 720.033 34.472C720.033 33.344 719.793 32.432 719.313 31.736C718.833 31.016 718.089 30.656 717.081 30.656C716.097 30.656 715.365 31.004 714.885 31.7C714.405 32.396 714.165 33.296 714.165 34.4C714.165 34.808 714.201 35.228 714.273 35.66ZM742.225 47.036C740.257 47.036 738.913 45.908 738.193 43.652C737.497 41.396 737.149 38.516 737.149 35.012C737.149 32.732 737.557 30.596 738.373 28.604C739.213 26.588 740.485 24.968 742.189 23.744C743.893 22.496 745.969 21.872 748.417 21.872C750.385 21.872 752.173 22.292 753.781 23.132C755.389 23.948 756.661 25.124 757.597 26.66C758.557 28.196 759.037 29.972 759.037 31.988C759.037 34.316 758.569 36.272 757.633 37.856C756.697 39.44 755.485 40.616 753.997 41.384C752.509 42.152 750.937 42.536 749.281 42.536C747.937 42.536 746.701 42.308 745.573 41.852C745.717 42.62 745.789 43.208 745.789 43.616C745.789 45.896 744.601 47.036 742.225 47.036ZM748.777 36.956C749.641 36.956 750.385 36.644 751.009 36.02C751.657 35.372 751.981 34.628 751.981 33.788C751.981 32.924 751.657 32.18 751.009 31.556C750.385 30.908 749.641 30.584 748.777 30.584C747.937 30.584 747.193 30.908 746.545 31.556C745.897 32.18 745.573 32.924 745.573 33.788C745.573 34.628 745.897 35.372 746.545 36.02C747.193 36.644 747.937 36.956 748.777 36.956Z" fill="#86675E"/>
  <path d="M832.651 462.237L723.901 566.098C721.897 568.012 720.313 570.321 719.249 572.879L667.438 697.41C662.259 709.86 670.632 723.763 684.059 725.007L1004.94 754.74C1006.8 754.913 1008.68 754.824 1010.51 754.476L1275.4 704.289C1290.34 701.459 1296.78 683.657 1287.12 671.923L1182.87 545.38C1177.3 538.613 1176.78 529.005 1181.6 521.679L1206.34 484.03C1214.43 471.731 1206.91 455.208 1192.32 453.227L1060.49 435.32C1058.93 435.107 1057.34 435.081 1055.77 435.241L844.435 456.804C840.012 457.255 835.866 459.167 832.651 462.237Z" fill="#523D37" stroke="black" stroke-linecap="round"/>
  <path d="M270.33 54.9675L73.5462 157.957C66.5279 161.63 62.3389 169.099 62.8641 177.003L71.0807 300.644C71.8485 312.197 82.2364 320.686 93.7113 319.138L278.435 294.211C279.477 294.071 280.506 293.848 281.512 293.546L453.686 241.845C455.552 241.285 457.49 241 459.438 241H562.561C569.102 241 575.229 237.802 578.969 232.436L599.25 203.337C604.176 196.269 604.023 186.841 598.87 179.938L534.504 93.7046C531.303 89.415 526.515 86.5878 521.212 85.8557L282.339 52.8753C278.216 52.306 274.018 53.0374 270.33 54.9675Z" fill="#523D37" stroke="black" stroke-linecap="round"/>
  <path d="M265.378 571.251L250.499 388.874C249.652 378.493 240.98 370.5 230.565 370.5H228.438C226.819 370.5 225.205 370.697 223.634 371.086L96.2401 402.61C86.1945 405.096 79.7043 414.835 81.2765 425.063L119.577 674.238C120.995 683.46 128.6 690.476 137.906 691.148L355.973 706.88C365.104 707.539 373.517 701.913 376.397 693.223L392.964 643.224C396.533 632.455 390.438 620.877 379.54 617.722L279.751 588.836C271.774 586.527 266.054 579.528 265.378 571.251Z" fill="#523D37" stroke="black" stroke-linecap="round"/>
  <path d="M673.216 161.228L629.706 112.823C618.514 100.372 626.658 80.5034 643.368 79.4892L775 71.5H1041.4C1048.3 71.5 1054.72 75.0601 1058.37 80.918L1090.19 131.939C1097.59 143.808 1090.83 159.414 1077.11 162.138L894.428 198.418C892.487 198.804 890.613 199.476 888.869 200.411L781.75 257.879C777.404 260.21 772.35 260.854 767.558 259.686L677.552 237.742C665.34 234.765 658.869 221.392 664.113 209.968L676.519 182.941C679.846 175.693 678.548 167.16 673.216 161.228Z" fill="#523D37" stroke="black" stroke-linecap="round"/>
  <path d="M1351.49 407.255L1272.3 439.852C1266.45 442.262 1262.08 447.3 1260.53 453.436L1243.04 522.481C1241.18 529.844 1243.65 537.627 1249.41 542.572L1338.19 618.718C1350.3 629.108 1369.11 621.822 1371.06 605.983L1387.61 471.691C1387.87 469.576 1387.79 467.432 1387.37 465.342L1378.72 421.846C1376.26 409.494 1363.13 402.461 1351.49 407.255Z" fill="#523D37" stroke="black" stroke-linecap="round"/>
  <defs>
    <filter id="filter0_i_22057_76" x="-19.5" y="0" width="1491.91" height="814.769" filterUnits="userSpaceOnUse" color-interpolation-filters="sRGB">
      <feFlood flood-opacity="0" result="BackgroundImageFix"/>
      <feBlend mode="normal" in="SourceGraphic" in2="BackgroundImageFix" result="shape"/>
      <feColorMatrix in="SourceAlpha" type="matrix" values="0 0 0 0 0 0 0 0 0 0 0 0 0 0 0 0 0 0 127 0" result="hardAlpha"/>
      <feOffset dx="-20" dy="26"/>
      <feGaussianBlur stdDeviation="30"/>
      <feComposite in2="hardAlpha" operator="arithmetic" k2="-1" k3="1"/>
      <feColorMatrix type="matrix" values="0 0 0 0 0 0 0 0 0 0 0 0 0 0 0 0 0 0 0.2 0"/>
      <feBlend mode="normal" in2="shape" result="effect1_innerShadow_22057_76"/>
    </filter>
  </defs>
</svg>
