<svg width="1473" height="792" viewBox="0 0 1473 792" fill="none" xmlns="http://www.w3.org/2000/svg">
<path d="M1465.61 765.281L1450.68 789.125C1450.18 789.922 1448.96 789.652 1448.84 788.72L1444.14 751.626C1444.07 751.028 1444.53 750.5 1445.13 750.5H1469.19C1469.98 750.5 1470.46 751.366 1470.04 752.035C1469.29 753.251 1468.26 754.929 1467.19 756.702C1465.64 759.269 1465.58 762.832 1465.76 764.608C1465.79 764.843 1465.74 765.081 1465.61 765.281Z" fill="#E1AF6D" stroke="black" stroke-linecap="round" stroke-linejoin="round"/>
<g filter="url(#filter0_i_31637_6)">
<path d="M262.124 1.5H1C5.15177 41.5334 5.98913 123.38 8.12433 130.497C10.2595 137.614 15.0934 145.386 18.8003 148.5L10.7933 153.627C10.7933 171.42 11.4161 210.741 13.9072 225.687C16.3982 240.633 12.8692 247.335 10.7933 248.818V285.293C13.4623 287.517 18.8003 298.637 18.8003 325.326C18.8003 352.015 13.4623 368.77 10.7933 373.811V474.339L21.9142 478.5L5.90016 491.687V534.834L13.9072 540.5L5.90016 547.289V714L121.5 789.269H1449.83V666.055C1437.22 666.5 1432.3 664.068 1435.5 663C1438.7 661.932 1449.83 658.5 1449.83 658.5V479L1444.05 472.115L1449.83 461.885V329.329C1448.05 327.402 1446.36 326.194 1446 320.5C1445.64 314.806 1447.75 312.207 1449.83 308.5C1446.27 287.445 1455.01 231.697 1464.51 194.995C1475.5 152.5 1471 73.5 1471 73.5L1282 1.5H1185.15L1178.48 8.17224L1170.03 2.5H276.803L271.021 6.83779L262.124 1.5Z" fill="#B5956E"/>
</g>
<path d="M262.124 1.5H1C5.15177 41.5334 5.98913 123.38 8.12433 130.497C10.2595 137.614 15.0934 145.386 18.8003 148.5L10.7933 153.627C10.7933 171.42 11.4161 210.741 13.9072 225.687C16.3982 240.633 12.8692 247.335 10.7933 248.818V285.293C13.4623 287.517 18.8003 298.637 18.8003 325.326C18.8003 352.015 13.4623 368.77 10.7933 373.811V474.339L21.9142 478.5L5.90016 491.687V534.834L13.9072 540.5L5.90016 547.289V714L121.5 789.269H1449.83V666.055C1437.22 666.5 1432.3 664.068 1435.5 663C1438.7 661.932 1449.83 658.5 1449.83 658.5V479L1444.05 472.115L1449.83 461.885V329.329C1448.05 327.402 1446.36 326.194 1446 320.5C1445.64 314.806 1447.75 312.207 1449.83 308.5C1446.27 287.445 1455.01 231.697 1464.51 194.995C1475.5 152.5 1471 73.5 1471 73.5L1282 1.5H1185.15L1178.48 8.17224L1170.03 2.5H276.803L271.021 6.83779L262.124 1.5Z" stroke="black" stroke-linecap="round" stroke-linejoin="round"/>
<path d="M1282 1L1471 73.5466C1458.31 70.3756 1446.51 71.6567 1436.45 90.4585C1435.71 91.8488 1435.04 93.1954 1434.45 94.5L1454.5 102.5C1459.33 111 1463.5 128.6 1441.5 131C1438.15 129.224 1425.93 124.472 1409.33 105.671C1388.59 82.1682 1354.33 69.947 1332.33 48.0115C1310.33 26.076 1274 11 1282 1Z" fill="#E1AF6D"/>
<path d="M1441.5 131C1438.15 129.224 1425.93 124.472 1409.33 105.671C1388.59 82.1682 1354.33 69.947 1332.33 48.0115C1310.33 26.076 1274 11 1282 1L1471 73.5466C1458.31 70.3756 1446.51 71.6567 1436.45 90.4585C1435.71 91.8488 1435.04 93.1954 1434.45 94.5M1441.5 131C1433.97 125.355 1425.01 115.249 1434.45 94.5M1441.5 131C1463.5 128.6 1459.33 111 1454.5 102.5L1434.45 94.5" stroke="black" stroke-linecap="round"/>
<path d="M457.955 285.399L325.484 331.048C317.415 333.828 312 341.422 312 349.957V353.043L324.808 501.386C325.525 509.692 331.319 516.682 339.348 518.926L617.249 596.629C624.979 598.79 633.253 596.121 638.262 589.848L737.491 465.596C742.111 459.811 743.158 451.948 740.211 445.156L674.22 293.038C671.92 287.737 667.44 283.689 661.933 281.938L618.105 268C615.399 267.139 612.542 266.865 609.722 267.194L462.149 284.443C460.72 284.61 459.314 284.931 457.955 285.399Z" fill="#523D37"/>
<path fill-rule="evenodd" clip-rule="evenodd" d="M617.953 268.476C615.315 267.637 612.529 267.37 609.78 267.691L462.207 284.94C460.814 285.102 459.443 285.415 458.118 285.872L325.647 331.52C317.78 334.231 312.5 341.636 312.5 349.957V353.021L325.306 501.343C326.005 509.441 331.655 516.256 339.483 518.445L617.383 596.147C624.921 598.255 632.988 595.652 637.872 589.536L737.101 465.284C741.605 459.644 742.625 451.977 739.753 445.355L673.761 293.237C671.519 288.068 667.151 284.122 661.781 282.414L617.953 268.476ZM609.664 266.698C612.554 266.36 615.483 266.641 618.256 267.523L662.085 281.461C667.729 283.257 672.321 287.405 674.678 292.839L740.67 444.957C743.69 451.918 742.618 459.979 737.882 465.908L638.653 590.16C633.519 596.589 625.038 599.326 617.114 597.11L339.213 519.408C330.984 517.107 325.045 509.942 324.31 501.429L311.5 353.065V349.957C311.5 341.209 317.051 333.425 325.321 330.575L457.792 284.926C459.185 284.446 460.627 284.118 462.091 283.946L609.664 266.698Z" fill="black"/>
<path d="M637 667.5V643M637 643L312.169 556.507C304.224 554.391 298.383 547.629 297.446 539.461L273 326.5M637 643L706.561 539.638C707.516 538.219 708.65 536.927 709.934 535.796L783.5 471M783.5 471H1042M783.5 471L708 286M1042 471C1070.33 498.833 1116.4 696.5 1142 708.5M1042 471C1068.99 461.068 1153.58 430.254 1232 400.093M708 286L640.873 256.218C638.319 255.085 635.557 254.5 632.763 254.5H602.5M708 286L896.5 222L1101.68 176.726C1106.7 175.618 1111.95 176.486 1116.35 179.149L1207.45 234.322C1212.83 237.582 1216.37 243.185 1216.99 249.446L1232 400.093M273 326.5L467.748 269.017C468.914 268.673 470.108 268.436 471.316 268.309L602.5 254.5M273 326.5L115.5 347M602.5 254.5L637.14 199.653C641.571 192.637 641.209 183.613 636.23 176.974L581.5 104M1384.5 334C1377.39 342.587 1307.55 371.037 1232 400.093" stroke="#86675E" stroke-width="6" stroke-linecap="square" stroke-dasharray="12 24"/>
<g filter="url(#filter1_d_31637_6)">
<path d="M1132.43 134.666L1104.22 91.666C1098.61 83.1188 1105.57 71.921 1115.72 73.1726L1191.97 82.5789C1202.89 83.9252 1206.39 98.0203 1197.38 104.322L1149.34 137.916C1143.8 141.794 1136.15 140.323 1132.43 134.666Z" fill="#ABBB68"/>
<path d="M1132.43 134.666L1104.22 91.666C1098.61 83.1188 1105.57 71.921 1115.72 73.1726L1191.97 82.5789C1202.89 83.9252 1206.39 98.0203 1197.38 104.322L1149.34 137.916C1143.8 141.794 1136.15 140.323 1132.43 134.666Z" stroke="black" stroke-linecap="round"/>
</g>
<path d="M425.934 627.78L418.894 625.936C414.757 624.853 410.499 627.215 409.228 631.298L391.23 689.122C389.627 694.272 393.475 699.5 398.869 699.5H418.708C422.84 699.5 426.292 696.354 426.674 692.24L431.872 636.259C432.234 632.36 429.721 628.772 425.934 627.78Z" fill="#9BB468" stroke="black" stroke-linecap="round"/>
<path d="M477.89 641.061L455.487 634.951C450.76 633.662 445.995 636.887 445.435 641.754L439.526 693.085C438.979 697.835 442.693 702 447.474 702H467.354C471.206 702 474.512 699.254 475.218 695.466L483.649 650.245C484.412 646.151 481.907 642.157 477.89 641.061Z" fill="#9BB468" stroke="black" stroke-linecap="round"/>
<path d="M522.533 652.267L509.02 648.911C504.76 647.853 500.443 650.425 499.345 654.675L489.581 692.5C488.274 697.564 492.098 702.5 497.327 702.5H518.478C522.705 702.5 526.203 699.212 526.463 694.993L528.59 660.524C528.827 656.671 526.28 653.198 522.533 652.267Z" fill="#9BB468" stroke="black" stroke-linecap="round"/>
<path d="M561.282 661.987L548.591 659.643C543.863 658.77 539.439 662.234 539.152 667.033L537.507 694.522C537.232 699.12 540.887 703 545.493 703H559.855C562.706 703 565.343 701.482 566.774 699.016L570.483 692.624C571.461 690.94 571.79 688.956 571.41 687.046L567.675 668.292C567.035 665.08 564.502 662.582 561.282 661.987Z" fill="#9BB468" stroke="black" stroke-linecap="round"/>
<path d="M640.359 707.385L595.491 704.369C592.184 704.146 589.265 701.908 588.692 698.643C583.887 671.247 614.986 669.493 631 677.5C640.344 682.172 645.345 691.36 647.723 699.031C649.157 703.661 645.195 707.71 640.359 707.385Z" fill="#9BB468" stroke="black" stroke-linecap="round"/>
<path d="M1227 51.0437C1232.36 50.61 1243.34 53.2746 1253 65" stroke="#86675E" stroke-width="6" stroke-linecap="square"/>
<path d="M1234 40.0932C1239.75 39.6097 1254.73 40.5579 1266 54" stroke="#86675E" stroke-width="6" stroke-linecap="square"/>
<path d="M1222 84C1227.29 72.8485 1244.3 48.0364 1270 38" stroke="#86675E" stroke-width="6" stroke-linecap="square"/>
<path d="M136.5 728C179 762.5 277 743.5 395 712.5" stroke="#86675E" stroke-width="4" stroke-linecap="square" stroke-dasharray="8 12"/>
<path d="M40 712H122" stroke="#86675E" stroke-width="4" stroke-linecap="round"/>
<path d="M80.5 671L80.5 699" stroke="#86675E" stroke-width="4" stroke-linecap="round"/>
<path d="M81.5 723L81.5 751" stroke="#86675E" stroke-width="4" stroke-linecap="round"/>
<path d="M64 701C66.3333 701.833 71.5 703.7 73.5 704.5" stroke="#86675E" stroke-width="3" stroke-linecap="round"/>
<path d="M91 704.108L97 700.608" stroke="#86675E" stroke-width="3" stroke-linecap="round"/>
<path d="M89 719.608L95 723.108" stroke="#86675E" stroke-width="3" stroke-linecap="round"/>
<path d="M72.5 719.608L66.5 723.108" stroke="#86675E" stroke-width="3" stroke-linecap="round"/>
<ellipse cx="81.5" cy="712" rx="5.5" ry="6" fill="#86675E"/>
<path d="M92.5089 783.192C102.211 789.42 125.159 789.731 132 789.42C123.293 789.42 91.4723 759.525 80.0707 744.267H71.6749V732.745C43.8135 683.17 27.1049 679.496 22.2333 683.855C19.4969 702.041 14.7067 706.858 6 713.708C30.5654 742.669 82.8071 776.964 92.5089 783.192Z" fill="#E1AF6D" stroke="black" stroke-linecap="round"/>
<path d="M31.4313 559.34L57.4313 579.34" stroke="#86675E" stroke-width="6" stroke-linecap="square"/>
<path d="M43.0187 553L45.8438 585.681" stroke="#86675E" stroke-width="6" stroke-linecap="square"/>
<path d="M191.242 82.4052C171.099 80.6917 126.283 79.7257 108.166 89.5696C85.5201 101.874 84.3516 130.303 104.5 121C124.648 111.697 120.206 77.2067 60.5 76" stroke="#86675E" stroke-width="4" stroke-linecap="square" stroke-dasharray="8 12"/>
<path d="M1352.5 686.01C1353.83 680.01 1357.5 668.01 1361.5 668.01C1366.5 668.01 1377 677.51 1379.5 680.51M1352.5 686.01C1355.5 693.51 1382 683.51 1379.5 680.51M1352.5 686.01C1354.09 684.799 1356.72 683.244 1360 681.962M1379.5 680.51C1376.43 679.664 1373.39 679.428 1370.5 679.598M1360 681.962C1363.04 680.776 1366.63 679.825 1370.5 679.598M1360 681.962C1360.57 683.126 1362.28 684.986 1365 684.492M1370.5 679.598C1370.67 680.386 1370.1 682.371 1366.5 684.01C1365.97 684.251 1365.47 684.406 1365 684.492M1365 684.492V702.01" stroke="#86675E" stroke-width="2" stroke-linecap="square"/>
<path d="M1349 666.009C1346.6 666.409 1344 681.51 1344 685.01C1344 688.705 1346.59 689.168 1349 688.605C1350.83 688.177 1352.57 687.157 1353 686.509C1354 685.009 1352 665.509 1349 666.009Z" fill="#86675E"/>
<path d="M1349 688.605C1350.83 688.177 1352.57 687.157 1353 686.509C1354 685.009 1352 665.509 1349 666.009C1346.6 666.409 1344 681.51 1344 685.01C1344 688.705 1346.59 689.168 1349 688.605ZM1349 688.605V701.51" stroke="#86675E" stroke-width="2" stroke-linecap="square"/>
<path d="M1337.02 672.525C1338.55 672.934 1341 681.102 1341 684.68C1341 688.457 1339.35 688.931 1337.81 688.354C1336.65 687.917 1335.54 686.874 1335.26 686.213C1334.63 684.679 1335.11 672.014 1337.02 672.525Z" fill="#86675E"/>
<path d="M1337.81 688.354C1336.65 687.917 1335.54 686.874 1335.26 686.213C1334.63 684.679 1335.11 672.014 1337.02 672.525C1338.55 672.934 1341 681.102 1341 684.68C1341 688.457 1339.35 688.931 1337.81 688.354ZM1337.81 688.354V695.51" stroke="#86675E" stroke-width="2" stroke-linecap="square"/>
<path d="M1404 715C1357.33 712.666 1230.4 720.6 1096 771" stroke="#86675E" stroke-width="4" stroke-linecap="square" stroke-dasharray="8 12"/>
<path d="M409.872 47.964C405.888 47.94 402.9 46.956 400.908 45.012C398.94 43.068 397.956 39.912 397.956 35.544C397.956 31.584 398.916 28.476 400.836 26.22C402.756 23.94 405.468 22.8 408.972 22.8C411.132 22.8 413.016 23.124 414.624 23.772C416.232 24.42 417.468 25.344 418.332 26.544C419.196 27.744 419.628 29.16 419.628 30.792C419.628 32.088 419.34 33.24 418.764 34.248C418.212 35.256 417.384 36.156 416.28 36.948C417.168 37.092 417.936 37.572 418.584 38.388C419.256 39.204 419.592 40.152 419.592 41.232C419.592 42.384 419.28 43.476 418.656 44.508C418.056 45.516 417.024 46.344 415.56 46.992C414.12 47.64 412.224 47.964 409.872 47.964ZM407.388 34.536C407.82 34.752 408.36 34.86 409.008 34.86C409.776 34.86 410.436 34.68 410.988 34.32C411.564 33.936 411.852 33.372 411.852 32.628C411.852 31.908 411.564 31.368 410.988 31.008C410.436 30.624 409.764 30.432 408.972 30.432C408.348 30.432 407.82 30.54 407.388 30.756C407.052 30.9 406.8 31.152 406.632 31.512C406.464 31.872 406.38 32.256 406.38 32.664C406.38 33.072 406.464 33.456 406.632 33.816C406.8 34.152 407.052 34.392 407.388 34.536ZM407.388 42.96C407.844 43.152 408.384 43.248 409.008 43.248C409.776 43.248 410.436 43.092 410.988 42.78C411.564 42.444 411.852 41.952 411.852 41.304C411.852 40.68 411.564 40.2 410.988 39.864C410.412 39.528 409.74 39.36 408.972 39.36C408.372 39.36 407.844 39.456 407.388 39.648C407.052 39.792 406.8 40.02 406.632 40.332C406.464 40.62 406.38 40.944 406.38 41.304C406.38 41.664 406.464 42 406.632 42.312C406.8 42.6 407.052 42.816 407.388 42.96ZM446.244 42.24C447.396 42.6 447.972 43.356 447.972 44.508C447.972 45.588 447.42 46.44 446.316 47.064C445.212 47.688 443.304 48 440.592 48C437.208 48 434.304 47.184 431.88 45.552C429.48 43.92 428.28 40.68 428.28 35.832C428.28 33.384 428.7 31.176 429.54 29.208C430.38 27.24 431.628 25.68 433.284 24.528C434.964 23.376 437.016 22.8 439.44 22.8C442.68 22.8 444.96 23.304 446.28 24.312C447.6 25.296 448.26 26.508 448.26 27.948C448.26 28.62 448.092 29.244 447.756 29.82C447.42 30.372 446.916 30.804 446.244 31.116C445.668 31.404 444.924 31.548 444.012 31.548L443.04 31.512C442.848 31.488 442.572 31.476 442.212 31.476C440.964 31.476 439.98 31.704 439.26 32.16C438.54 32.592 438.048 33.264 437.784 34.176C438.792 34.128 439.704 34.104 440.52 34.104C442.944 34.104 444.516 34.176 445.236 34.32C446.052 34.488 446.676 34.812 447.108 35.292C447.564 35.772 447.792 36.336 447.792 36.984C447.792 37.632 447.576 38.196 447.144 38.676C446.712 39.132 446.064 39.444 445.2 39.612C444.528 39.756 442.896 39.828 440.304 39.828C439.248 39.828 438.504 39.816 438.072 39.792C438.816 41.376 440.208 42.168 442.248 42.168C442.368 42.168 442.644 42.144 443.076 42.096C443.652 42.048 444.144 42.024 444.552 42.024C445.248 42.024 445.812 42.096 446.244 42.24ZM478.102 32.988C478.102 34.74 477.838 36.288 477.31 37.632C476.806 38.976 476.086 40.104 475.15 41.016C475.942 42.24 476.338 43.428 476.338 44.58C476.338 45.564 475.954 46.38 475.186 47.028C474.442 47.676 473.59 48 472.63 48C472.078 48 471.574 47.916 471.118 47.748C470.662 47.58 470.17 47.292 469.642 46.884C469.186 46.524 468.754 46.032 468.346 45.408C467.938 44.784 467.614 44.136 467.374 43.464C466.582 43.368 465.79 43.164 464.998 42.852C465.142 43.62 465.214 44.208 465.214 44.616C465.214 46.896 464.026 48.036 461.65 48.036C459.658 48.036 458.254 46.872 457.438 44.544C456.622 42.216 456.214 39.372 456.214 36.012C456.214 33.732 456.622 31.596 457.438 29.604C458.278 27.588 459.55 25.968 461.254 24.744C462.958 23.496 465.034 22.872 467.482 22.872C469.45 22.872 471.238 23.292 472.846 24.132C474.454 24.948 475.726 26.124 476.662 27.66C477.622 29.196 478.102 30.972 478.102 32.988ZM464.638 34.68C464.638 35.496 464.962 36.216 465.61 36.84C466.258 37.44 467.002 37.74 467.842 37.74C468.706 37.74 469.45 37.44 470.074 36.84C470.722 36.216 471.046 35.496 471.046 34.68C471.046 33.84 470.722 33.12 470.074 32.52C469.45 31.896 468.706 31.584 467.842 31.584C467.002 31.584 466.258 31.896 465.61 32.52C464.962 33.144 464.638 33.864 464.638 34.68ZM491.662 48.072C490.054 48.072 488.758 47.292 487.774 45.732C486.814 44.148 486.25 42.012 486.082 39.324C486.058 38.94 486.046 38.376 486.046 37.632C486.046 34.728 486.526 32.16 487.486 29.928C488.446 27.672 489.802 25.932 491.554 24.708C493.33 23.46 495.394 22.836 497.746 22.836C500.098 22.836 502.15 23.46 503.902 24.708C505.678 25.932 507.034 27.66 507.97 29.892C508.93 32.124 509.41 34.704 509.41 37.632C509.41 38.376 509.398 38.94 509.374 39.324C509.206 42.06 508.642 44.196 507.682 45.732C506.722 47.268 505.426 48.036 503.794 48.036C502.474 48.036 501.55 47.676 501.022 46.956C500.518 46.236 500.266 45.36 500.266 44.328C500.266 43.848 500.302 43.428 500.374 43.068C499.126 43.116 498.022 43.14 497.062 43.14C496.462 43.14 495.802 43.116 495.082 43.068C495.154 43.428 495.19 43.848 495.19 44.328C495.19 45.384 494.926 46.272 494.398 46.992C493.894 47.712 492.982 48.072 491.662 48.072ZM494.83 36.66C496.126 36.612 497.074 36.588 497.674 36.588C498.322 36.588 499.27 36.612 500.518 36.66C500.566 36.396 500.59 36 500.59 35.472C500.59 34.344 500.35 33.432 499.87 32.736C499.39 32.016 498.646 31.656 497.638 31.656C496.654 31.656 495.922 32.004 495.442 32.7C494.962 33.396 494.722 34.296 494.722 35.4C494.722 35.808 494.758 36.228 494.83 36.66ZM540.979 28.164C540.979 29.748 540.319 30.9 538.999 31.62C537.703 32.316 535.579 32.736 532.627 32.88C532.723 34.032 532.771 35.52 532.771 37.344C532.771 39.888 532.627 41.928 532.339 43.464C532.075 44.976 531.607 46.104 530.935 46.848C530.263 47.568 529.327 47.928 528.127 47.928C526.951 47.928 526.051 47.544 525.427 46.776C524.803 46.008 524.371 44.868 524.131 43.356C523.891 41.844 523.771 39.84 523.771 37.344C523.771 35.664 523.807 34.176 523.879 32.88C521.887 32.784 520.279 32.58 519.055 32.268C517.855 31.932 516.967 31.44 516.391 30.792C515.815 30.144 515.527 29.268 515.527 28.164C515.527 26.82 515.983 25.764 516.895 24.996C517.807 24.228 519.175 23.688 520.999 23.376C522.823 23.064 525.211 22.908 528.163 22.908C531.139 22.908 533.551 23.064 535.399 23.376C537.247 23.688 538.639 24.228 539.575 24.996C540.511 25.764 540.979 26.82 540.979 28.164ZM559.744 48.036C557.56 48.06 555.532 47.52 553.66 46.416C551.812 45.312 550.324 43.8 549.196 41.88C548.092 39.936 547.516 37.788 547.468 35.436C547.444 33.18 547.972 31.092 549.052 29.172C550.132 27.252 551.62 25.728 553.516 24.6C555.412 23.448 557.488 22.872 559.744 22.872C561.952 22.848 563.992 23.4 565.864 24.528C567.76 25.656 569.26 27.204 570.364 29.172C571.468 31.14 572.02 33.312 572.02 35.688C572.02 37.92 571.468 39.972 570.364 41.844C569.26 43.716 567.76 45.204 565.864 46.308C563.992 47.412 561.952 47.988 559.744 48.036ZM559.852 41.016C560.956 41.016 561.892 40.62 562.66 39.828C563.452 39.036 563.836 38.004 563.812 36.732C563.812 35.436 563.428 34.392 562.66 33.6C561.892 32.808 560.956 32.412 559.852 32.412C558.748 32.412 557.812 32.808 557.044 33.6C556.276 34.392 555.892 35.436 555.892 36.732C555.892 38.004 556.276 39.036 557.044 39.828C557.812 40.62 558.748 41.016 559.852 41.016ZM589.44 48C587.52 48 585.84 47.472 584.4 46.416C582.984 45.36 581.892 43.86 581.124 41.916C580.356 39.972 579.972 37.68 579.972 35.04C579.972 33.504 580.224 31.86 580.728 30.108C581.256 28.356 582 26.88 582.96 25.68C583.944 24.456 585.084 23.844 586.38 23.844C587.436 23.844 588.312 24.228 589.008 24.996C589.704 25.764 590.052 26.712 590.052 27.84C590.052 28.176 589.968 28.632 589.8 29.208C589.656 29.76 589.488 30.336 589.296 30.936C588.936 31.968 588.66 32.88 588.468 33.672C588.276 34.44 588.18 35.184 588.18 35.904C588.18 36.96 588.336 37.728 588.648 38.208C588.96 38.688 589.344 38.928 589.8 38.928C590.4 38.928 590.82 38.628 591.06 38.028C591.324 37.404 591.456 36.264 591.456 34.608L591.42 32.124C591.42 30.204 591.672 28.68 592.176 27.552C592.68 26.4 593.688 25.824 595.2 25.824C596.328 25.824 597.18 26.136 597.756 26.76C598.332 27.384 598.704 28.176 598.872 29.136C599.04 30.072 599.124 31.212 599.124 32.556V34.392C599.124 36.144 599.268 37.392 599.556 38.136C599.868 38.856 600.36 39.216 601.032 39.216C601.488 39.216 601.836 38.988 602.076 38.532C602.34 38.052 602.472 37.344 602.472 36.408C602.472 35.712 602.388 35.016 602.22 34.32C602.052 33.624 601.788 32.736 601.428 31.656C601.116 30.624 600.888 29.856 600.744 29.352C600.624 28.824 600.564 28.32 600.564 27.84C600.564 26.712 600.924 25.776 601.644 25.032C602.388 24.288 603.252 23.916 604.236 23.916C605.652 23.916 606.84 24.516 607.8 25.716C608.784 26.892 609.516 28.344 609.996 30.072C610.476 31.8 610.716 33.456 610.716 35.04C610.716 37.68 610.332 39.972 609.564 41.916C608.796 43.86 607.692 45.36 606.252 46.416C604.836 47.448 603.168 47.964 601.248 47.964C600.192 47.964 599.16 47.724 598.152 47.244C597.144 46.764 596.208 46.044 595.344 45.084C594.48 46.044 593.532 46.776 592.5 47.28C591.492 47.76 590.472 48 589.44 48ZM624.263 48C623.087 48 622.127 47.28 621.383 45.84C620.663 44.4 620.147 42.66 619.835 40.62C619.523 38.58 619.367 36.612 619.367 34.716C619.367 31.62 619.859 28.872 620.843 26.472C621.851 24.048 623.531 22.836 625.883 22.836C626.915 22.836 627.815 23.232 628.583 24.024C629.375 24.816 630.059 25.848 630.635 27.12C631.211 28.368 631.907 30.108 632.723 32.34L633.335 34.032C633.287 33.12 633.263 32.448 633.263 32.016C633.263 29.208 633.635 26.976 634.379 25.32C635.147 23.664 636.359 22.836 638.015 22.836C640.007 22.836 641.375 24.024 642.119 26.4C642.863 28.752 643.235 31.524 643.235 34.716C643.235 36.612 642.995 38.58 642.515 40.62C642.059 42.66 641.279 44.4 640.175 45.84C639.071 47.28 637.631 48 635.855 48C634.775 48 633.827 47.616 633.011 46.848C632.219 46.056 631.547 45.084 630.995 43.932C630.467 42.78 629.831 41.196 629.087 39.18C628.703 38.124 628.403 37.332 628.187 36.804L628.223 39.72C628.223 41.616 628.127 43.152 627.935 44.328C627.743 45.48 627.359 46.38 626.783 47.028C626.231 47.676 625.391 48 624.263 48ZM683.436 48C682.62 48 681.936 47.796 681.384 47.388C680.856 46.956 680.484 46.38 680.268 45.66C680.076 44.988 679.956 44.256 679.908 43.464C679.884 42.672 679.872 41.556 679.872 40.116C679.872 38.772 679.812 37.776 679.692 37.128C679.596 36.48 679.344 36.156 678.936 36.156C678.456 36.156 678.12 36.372 677.928 36.804C677.736 37.212 677.64 37.8 677.64 38.568C677.64 39.264 677.736 40.356 677.928 41.844C677.952 42.132 678 42.588 678.072 43.212C678.144 43.836 678.18 44.352 678.18 44.76C678.18 45.912 677.916 46.728 677.388 47.208C676.884 47.688 676.14 47.928 675.156 47.928C673.98 47.928 672.96 47.292 672.096 46.02C671.232 44.748 670.584 43.164 670.152 41.268C669.72 39.348 669.504 37.464 669.504 35.616C669.504 33.408 669.816 31.356 670.44 29.46C671.088 27.564 672.048 26.04 673.32 24.888C674.616 23.736 676.176 23.16 678 23.16C679.536 23.16 680.76 23.64 681.672 24.6C682.584 25.536 683.196 26.676 683.508 28.02C683.772 26.7 684.36 25.56 685.272 24.6C686.208 23.64 687.432 23.16 688.944 23.16C690.744 23.16 692.28 23.724 693.552 24.852C694.848 25.956 695.832 27.504 696.504 29.496C697.2 31.488 697.548 33.792 697.548 36.408C697.548 38.112 697.308 39.876 696.828 41.7C696.348 43.5 695.676 45 694.812 46.2C693.948 47.4 692.964 48 691.86 48C690.852 48 690.084 47.748 689.556 47.244C689.028 46.74 688.764 45.912 688.764 44.76C688.764 44.232 688.86 43.248 689.052 41.808C689.244 40.272 689.34 39.168 689.34 38.496C689.34 36.936 688.92 36.156 688.08 36.156C687.648 36.156 687.372 36.504 687.252 37.2C687.156 37.896 687.096 39.024 687.072 40.584C687.072 41.76 687.048 42.744 687 43.536C686.952 44.304 686.844 45.012 686.676 45.66C686.484 46.356 686.1 46.92 685.524 47.352C684.972 47.784 684.276 48 683.436 48ZM711.105 48.072C709.497 48.072 708.201 47.292 707.217 45.732C706.257 44.148 705.693 42.012 705.525 39.324C705.501 38.94 705.489 38.376 705.489 37.632C705.489 34.728 705.969 32.16 706.929 29.928C707.889 27.672 709.245 25.932 710.997 24.708C712.773 23.46 714.837 22.836 717.189 22.836C719.541 22.836 721.593 23.46 723.345 24.708C725.121 25.932 726.477 27.66 727.413 29.892C728.373 32.124 728.853 34.704 728.853 37.632C728.853 38.376 728.841 38.94 728.817 39.324C728.649 42.06 728.085 44.196 727.125 45.732C726.165 47.268 724.869 48.036 723.237 48.036C721.917 48.036 720.993 47.676 720.465 46.956C719.961 46.236 719.709 45.36 719.709 44.328C719.709 43.848 719.745 43.428 719.817 43.068C718.569 43.116 717.465 43.14 716.505 43.14C715.905 43.14 715.245 43.116 714.525 43.068C714.597 43.428 714.633 43.848 714.633 44.328C714.633 45.384 714.369 46.272 713.841 46.992C713.337 47.712 712.425 48.072 711.105 48.072ZM714.273 36.66C715.569 36.612 716.517 36.588 717.117 36.588C717.765 36.588 718.713 36.612 719.961 36.66C720.009 36.396 720.033 36 720.033 35.472C720.033 34.344 719.793 33.432 719.313 32.736C718.833 32.016 718.089 31.656 717.081 31.656C716.097 31.656 715.365 32.004 714.885 32.7C714.405 33.396 714.165 34.296 714.165 35.4C714.165 35.808 714.201 36.228 714.273 36.66ZM742.225 48.036C740.257 48.036 738.913 46.908 738.193 44.652C737.497 42.396 737.149 39.516 737.149 36.012C737.149 33.732 737.557 31.596 738.373 29.604C739.213 27.588 740.485 25.968 742.189 24.744C743.893 23.496 745.969 22.872 748.417 22.872C750.385 22.872 752.173 23.292 753.781 24.132C755.389 24.948 756.661 26.124 757.597 27.66C758.557 29.196 759.037 30.972 759.037 32.988C759.037 35.316 758.569 37.272 757.633 38.856C756.697 40.44 755.485 41.616 753.997 42.384C752.509 43.152 750.937 43.536 749.281 43.536C747.937 43.536 746.701 43.308 745.573 42.852C745.717 43.62 745.789 44.208 745.789 44.616C745.789 46.896 744.601 48.036 742.225 48.036ZM748.777 37.956C749.641 37.956 750.385 37.644 751.009 37.02C751.657 36.372 751.981 35.628 751.981 34.788C751.981 33.924 751.657 33.18 751.009 32.556C750.385 31.908 749.641 31.584 748.777 31.584C747.937 31.584 747.193 31.908 746.545 32.556C745.897 33.18 745.573 33.924 745.573 34.788C745.573 35.628 745.897 36.372 746.545 37.02C747.193 37.644 747.937 37.956 748.777 37.956Z" fill="#86675E"/>
<path d="M270.33 46.662L73.5462 149.652C66.5279 153.325 62.3389 160.794 62.8641 168.698L71.0807 292.338C71.8485 303.891 82.2364 312.381 93.7113 310.832L278.435 285.906C279.477 285.765 280.506 285.543 281.512 285.24L453.686 233.54C455.552 232.979 457.49 232.695 459.438 232.695H562.561C569.102 232.695 575.229 229.496 578.969 224.13L599.25 195.031C604.176 187.964 604.023 178.536 598.87 171.632L534.504 85.3992C531.303 81.1095 526.515 78.2824 521.212 77.5503L282.339 44.5698C278.216 44.0005 274.018 44.7319 270.33 46.662Z" fill="#523D37"/>
<path fill-rule="evenodd" clip-rule="evenodd" d="M282.271 45.0651C278.251 44.51 274.158 45.2231 270.562 47.105L73.778 150.095C66.9352 153.676 62.8509 160.958 63.363 168.665L71.5797 292.305C72.3282 303.569 82.4565 311.846 93.6444 310.337L278.368 285.41C279.384 285.273 280.387 285.056 281.369 284.761L453.542 233.061C455.455 232.486 457.441 232.195 459.438 232.195H562.561C568.938 232.195 574.912 229.076 578.559 223.844L598.84 194.745C603.643 187.854 603.493 178.662 598.469 171.931L534.104 85.6982C530.982 81.5158 526.314 78.7594 521.144 78.0456L282.271 45.0651ZM270.098 46.219C273.878 44.2406 278.181 43.491 282.408 44.0745L521.281 77.055C526.716 77.8054 531.623 80.7032 534.905 85.1001L599.27 171.333C604.552 178.409 604.709 188.073 599.66 195.317L579.379 224.416C575.546 229.916 569.265 233.195 562.561 233.195H459.438C457.539 233.195 455.649 233.472 453.83 234.018L281.656 285.719C280.624 286.029 279.57 286.257 278.502 286.401L93.7781 311.328C82.0164 312.915 71.3688 304.213 70.5819 292.371L62.3652 168.731C61.8269 160.629 66.1206 152.974 73.3143 149.209L270.098 46.219Z" fill="black"/>
<path d="M673.216 162.228L629.706 113.823C618.514 101.372 626.658 81.5034 643.368 80.4892L775 72.5H1041.4C1048.3 72.5 1054.72 76.0601 1058.37 81.918L1090.19 132.939C1097.59 144.808 1090.83 160.414 1077.11 163.138L894.428 199.418C892.487 199.804 890.613 200.476 888.869 201.411L781.75 258.879C777.404 261.21 772.35 261.854 767.558 260.686L677.552 238.742C665.34 235.765 658.869 222.392 664.113 210.968L676.519 183.941C679.846 176.693 678.548 168.16 673.216 162.228Z" fill="#523D37"/>
<path fill-rule="evenodd" clip-rule="evenodd" d="M774.985 72H1041.4C1048.48 72 1055.05 75.6491 1058.8 81.6534L1090.61 132.675C1098.2 144.84 1091.27 160.836 1077.21 163.629L894.526 199.909C892.633 200.285 890.806 200.94 889.106 201.852L781.986 259.319C777.532 261.709 772.351 262.369 767.439 261.171L677.434 239.228C664.916 236.176 658.284 222.469 663.659 210.759L676.064 183.733C679.308 176.665 678.043 168.346 672.844 162.562L629.334 114.157C617.863 101.395 626.21 81.0297 643.338 79.9901L774.985 72ZM775.015 73L643.398 80.9883C627.106 81.9771 619.166 101.349 630.078 113.488L673.588 161.894C679.053 167.974 680.384 176.72 676.973 184.15L664.568 211.176C659.455 222.315 665.764 235.353 677.671 238.256L767.676 260.2C772.348 261.339 777.276 260.711 781.514 258.438L888.633 200.971C890.421 200.012 892.341 199.323 894.331 198.928L1077.01 162.648C1090.39 159.991 1096.98 144.776 1089.76 133.204L1057.95 82.1825C1054.39 76.4711 1048.13 73 1041.4 73H775.015Z" fill="black"/>
<path fill-rule="evenodd" clip-rule="evenodd" d="M1287.61 394.272C1278.75 400.175 1270.04 400.22 1266.52 399.138C1279.47 397.243 1291.77 376.953 1297.34 366.694C1298.36 379.916 1304.32 388.248 1310.1 392.906L1346.23 379.397C1356.79 375.452 1368.51 380.997 1372.16 391.656L1421.69 536.413C1422.88 539.868 1423.09 543.58 1422.31 547.148L1403.31 634.318C1401.6 642.13 1395.41 648.178 1387.56 649.694L1169.06 691.909C1166.46 692.412 1163.76 691.869 1161.56 690.398C1159.89 689.287 1158.59 687.706 1157.83 685.856L1091.77 525.961C1088.6 518.277 1090.51 509.431 1096.57 503.742L1148.57 454.94C1150.51 453.127 1152.78 451.717 1155.26 450.79L1245.56 417.032C1246.02 416.353 1246.45 415.683 1246.85 415.025L1247.08 409.656C1246.01 410.928 1243.67 413.421 1239.93 415.914C1232.15 421.098 1224.5 421.138 1221.41 420.188C1232.79 418.523 1243.59 400.704 1248.48 391.694C1249.24 401.538 1253.12 408.295 1257.37 412.617L1290.43 400.257C1292.43 397.893 1294.12 395.511 1295.48 393.26L1295.75 387.147C1294.54 388.595 1291.87 391.433 1287.61 394.272ZM1297.65 397.559C1297.59 397.372 1297.54 397.183 1297.48 396.993L1297.13 386.859C1299.05 388.998 1302.4 391.951 1306.62 394.206L1297.65 397.559ZM1253.62 414.019C1251.33 412.437 1249.49 410.74 1248.3 409.404L1248.52 415.925L1253.62 414.019Z" fill="#523D37"/>
<path d="M1266.52 399.138L1266.45 398.644L1266.37 399.616L1266.52 399.138ZM1287.61 394.272L1287.33 393.856L1287.61 394.272ZM1297.34 366.694L1297.84 366.656L1297.71 364.967L1296.9 366.456L1297.34 366.694ZM1310.1 392.906L1309.78 393.295L1310 393.475L1310.27 393.375L1310.1 392.906ZM1346.23 379.397L1346.06 378.929V378.929L1346.23 379.397ZM1372.16 391.656L1371.69 391.817L1372.16 391.656ZM1421.69 536.413L1421.22 536.575L1421.69 536.413ZM1422.31 547.148L1421.82 547.042L1422.31 547.148ZM1403.31 634.318L1403.8 634.424L1403.31 634.318ZM1387.56 649.694L1387.66 650.185L1387.56 649.694ZM1169.06 691.909L1168.97 691.418L1169.06 691.909ZM1161.56 690.398L1161.83 689.982H1161.83L1161.56 690.398ZM1157.83 685.856L1157.37 686.047L1157.83 685.856ZM1091.77 525.961L1092.24 525.771H1092.24L1091.77 525.961ZM1096.57 503.742L1096.23 503.377H1096.23L1096.57 503.742ZM1148.57 454.94L1148.92 455.304L1148.57 454.94ZM1155.26 450.79L1155.08 450.321L1155.26 450.79ZM1245.56 417.032L1245.73 417.5L1245.88 417.444L1245.97 417.313L1245.56 417.032ZM1246.85 415.025L1247.28 415.283L1247.34 415.174L1247.35 415.047L1246.85 415.025ZM1247.08 409.656L1247.58 409.678L1247.65 408.209L1246.7 409.334L1247.08 409.656ZM1239.93 415.914L1239.65 415.498V415.498L1239.93 415.914ZM1221.41 420.188L1221.34 419.693L1221.26 420.666L1221.41 420.188ZM1248.48 391.694L1248.98 391.656L1248.85 389.967L1248.04 391.456L1248.48 391.694ZM1257.37 412.617L1257.01 412.968L1257.24 413.199L1257.54 413.086L1257.37 412.617ZM1290.43 400.257L1290.61 400.725L1290.73 400.679L1290.82 400.58L1290.43 400.257ZM1295.48 393.26L1295.91 393.518L1295.98 393.409L1295.98 393.282L1295.48 393.26ZM1295.75 387.147L1296.25 387.169L1296.32 385.699L1295.37 386.825L1295.75 387.147ZM1297.48 396.993L1296.98 397.01L1296.99 397.069L1297 397.126L1297.48 396.993ZM1297.65 397.559L1297.17 397.704L1297.32 398.215L1297.82 398.028L1297.65 397.559ZM1297.13 386.859L1297.5 386.525L1296.59 385.501L1296.63 386.877L1297.13 386.859ZM1306.62 394.206L1306.79 394.675L1307.83 394.287L1306.85 393.766L1306.62 394.206ZM1248.3 409.404L1248.67 409.07L1247.75 408.046L1247.8 409.421L1248.3 409.404ZM1253.62 414.019L1253.79 414.487L1254.69 414.152L1253.9 413.608L1253.62 414.019ZM1248.52 415.925L1248.02 415.942L1248.05 416.636L1248.7 416.393L1248.52 415.925ZM1266.37 399.616C1270.04 400.746 1278.92 400.667 1287.89 394.688L1287.33 393.856C1278.59 399.684 1270.03 399.694 1266.67 398.66L1266.37 399.616ZM1296.9 366.456C1294.12 371.575 1289.67 379.18 1284.31 385.736C1278.93 392.319 1272.72 397.726 1266.45 398.644L1266.59 399.633C1273.27 398.656 1279.69 392.97 1285.09 386.369C1290.51 379.741 1294.99 372.072 1297.78 366.933L1296.9 366.456ZM1310.41 392.517C1304.74 387.94 1298.85 379.731 1297.84 366.656L1296.84 366.733C1297.87 380.1 1303.91 388.557 1309.78 393.295L1310.41 392.517ZM1346.06 378.929L1309.92 392.438L1310.27 393.375L1346.41 379.865L1346.06 378.929ZM1372.63 391.494C1368.89 380.569 1356.87 374.885 1346.06 378.929L1346.41 379.865C1356.7 376.019 1368.13 381.425 1371.69 391.817L1372.63 391.494ZM1422.17 536.251L1372.63 391.494L1371.69 391.817L1421.22 536.575L1422.17 536.251ZM1422.8 547.255C1423.6 543.598 1423.38 539.792 1422.17 536.251L1421.22 536.575C1422.37 539.943 1422.58 543.563 1421.82 547.042L1422.8 547.255ZM1403.8 634.424L1422.8 547.255L1421.82 547.042L1402.82 634.211L1403.8 634.424ZM1387.66 650.185C1395.7 648.631 1402.05 642.432 1403.8 634.424L1402.82 634.211C1401.16 641.828 1395.12 647.725 1387.47 649.203L1387.66 650.185ZM1169.16 692.4L1387.66 650.185L1387.47 649.203L1168.97 691.418L1169.16 692.4ZM1161.28 690.814C1163.59 692.358 1166.43 692.928 1169.16 692.4L1168.97 691.418C1166.49 691.896 1163.93 691.38 1161.83 689.982L1161.28 690.814ZM1157.37 686.047C1158.17 687.989 1159.53 689.648 1161.28 690.814L1161.83 689.982C1160.25 688.926 1159.02 687.424 1158.29 685.665L1157.37 686.047ZM1091.31 526.152L1157.37 686.047L1158.29 685.665L1092.24 525.771L1091.31 526.152ZM1096.23 503.377C1090.02 509.208 1088.06 518.276 1091.31 526.152L1092.24 525.771C1089.14 518.279 1091 509.653 1096.91 504.106L1096.23 503.377ZM1148.23 454.575L1096.23 503.377L1096.91 504.106L1148.92 455.304L1148.23 454.575ZM1155.08 450.321C1152.54 451.272 1150.21 452.718 1148.23 454.575L1148.92 455.304C1150.8 453.537 1153.01 452.162 1155.43 451.258L1155.08 450.321ZM1245.38 416.563L1155.08 450.321L1155.43 451.258L1245.73 417.5L1245.38 416.563ZM1246.42 414.767C1246.03 415.417 1245.6 416.08 1245.15 416.751L1245.97 417.313C1246.44 416.627 1246.87 415.949 1247.28 415.283L1246.42 414.767ZM1246.58 409.634L1246.35 415.003L1247.35 415.047L1247.58 409.678L1246.58 409.634ZM1240.21 416.33C1244 413.805 1246.37 411.278 1247.47 409.978L1246.7 409.334C1245.66 410.578 1243.35 413.036 1239.65 415.498L1240.21 416.33ZM1221.26 420.666C1224.51 421.664 1232.32 421.59 1240.21 416.33L1239.65 415.498C1231.99 420.607 1224.49 420.612 1221.56 419.71L1221.26 420.666ZM1248.04 391.456C1245.6 395.951 1241.69 402.626 1236.99 408.379C1232.26 414.159 1226.82 418.89 1221.34 419.693L1221.48 420.682C1227.37 419.821 1233.02 414.81 1237.76 409.012C1242.53 403.187 1246.47 396.447 1248.92 391.933L1248.04 391.456ZM1257.72 412.267C1253.55 408.026 1249.73 401.378 1248.98 391.656L1247.98 391.733C1248.75 401.697 1252.68 408.565 1257.01 412.968L1257.72 412.267ZM1290.26 399.788L1257.19 412.149L1257.54 413.086L1290.61 400.725L1290.26 399.788ZM1295.06 393.001C1293.71 395.229 1292.04 397.59 1290.05 399.933L1290.82 400.58C1292.83 398.196 1294.54 395.792 1295.91 393.518L1295.06 393.001ZM1295.25 387.125L1294.98 393.238L1295.98 393.282L1296.25 387.169L1295.25 387.125ZM1287.89 394.688C1292.19 391.818 1294.89 388.945 1296.14 387.469L1295.37 386.825C1294.18 388.245 1291.54 391.049 1287.33 393.856L1287.89 394.688ZM1297 397.126C1297.06 397.321 1297.11 397.513 1297.17 397.704L1298.13 397.415C1298.07 397.232 1298.02 397.046 1297.97 396.859L1297 397.126ZM1296.63 386.877L1296.98 397.01L1297.98 396.975L1297.63 386.842L1296.63 386.877ZM1306.85 393.766C1302.69 391.541 1299.39 388.627 1297.5 386.525L1296.76 387.193C1298.71 389.369 1302.1 392.361 1306.38 394.647L1306.85 393.766ZM1297.82 398.028L1306.79 394.675L1306.44 393.738L1297.47 397.091L1297.82 398.028ZM1247.92 409.738C1249.15 411.102 1251.01 412.826 1253.33 414.431L1253.9 413.608C1251.64 412.049 1249.84 410.377 1248.67 409.07L1247.92 409.738ZM1249.02 415.907L1248.8 409.386L1247.8 409.421L1248.02 415.942L1249.02 415.907ZM1253.44 413.551L1248.35 415.456L1248.7 416.393L1253.79 414.487L1253.44 413.551Z" fill="black"/>
<path fill-rule="evenodd" clip-rule="evenodd" d="M878.632 225.606C879.92 225.614 881.34 225.592 882.803 225.569C888.807 225.474 895.561 225.368 897.098 227.299C898.866 229.52 904.893 228.838 909.19 228.353C910.18 228.241 911.078 228.139 911.811 228.086V233.568L997.247 191.694L1035.82 211.044L1073.85 202.996C1077.85 202.148 1082.02 202.549 1085.79 204.144L1144.23 228.879C1145.63 228.776 1147.04 228.615 1148.3 228.471L1148.3 228.471C1149.32 228.354 1150.25 228.249 1151 228.193V231.745L1175.3 242.029C1182.69 245.16 1187.5 252.414 1187.5 260.447V372.527C1187.5 380.768 1182.44 388.166 1174.77 391.16L1041 443.327C1038.69 444.231 1036.22 444.694 1033.74 444.694H837.01C829.619 444.694 822.83 440.618 819.356 434.093L760.541 323.617C755.295 313.763 759.132 301.521 769.064 296.424L862.623 248.414C864.201 247.604 865.879 247.008 867.613 246.641L875.77 244.915V225.369C874.764 225.003 874.045 224.037 874.045 222.904C874.045 221.456 875.219 220.282 876.668 220.282C878.116 220.282 879.29 221.456 879.29 222.904C879.29 223.571 879.042 224.179 878.632 224.642V225.606Z" fill="#523D37"/>
<path d="M882.803 225.569L882.795 225.069L882.803 225.569ZM878.632 225.606H878.132V226.103L878.629 226.106L878.632 225.606ZM897.098 227.299L896.707 227.611V227.611L897.098 227.299ZM909.19 228.353L909.246 228.849L909.19 228.353ZM911.811 228.086H912.311V227.548L911.775 227.587L911.811 228.086ZM911.811 233.568H911.311V234.37L912.031 234.017L911.811 233.568ZM997.247 191.694L997.472 191.247L997.25 191.136L997.027 191.245L997.247 191.694ZM1035.82 211.044L1035.6 211.49L1035.75 211.569L1035.93 211.533L1035.82 211.044ZM1073.85 202.996L1073.95 203.485L1073.85 202.996ZM1085.79 204.144L1085.98 203.684L1085.79 204.144ZM1144.23 228.879L1144.03 229.339L1144.14 229.386L1144.26 229.377L1144.23 228.879ZM1148.3 228.471L1148.36 228.968L1148.36 228.967L1148.3 228.471ZM1148.3 228.471L1148.25 227.974L1148.24 227.975L1148.3 228.471ZM1151 228.193H1151.5V227.655L1150.96 227.694L1151 228.193ZM1151 231.745H1150.5V232.077L1150.81 232.206L1151 231.745ZM1175.3 242.029L1175.1 242.489L1175.3 242.029ZM1174.77 391.16L1174.95 391.626L1174.77 391.16ZM1041 443.327L1040.82 442.862L1041 443.327ZM819.356 434.093L819.797 433.858L819.356 434.093ZM760.541 323.617L760.1 323.852L760.541 323.617ZM769.064 296.424L768.836 295.98L769.064 296.424ZM862.623 248.414L862.395 247.969L862.623 248.414ZM867.613 246.641L867.51 246.152L867.613 246.641ZM875.77 244.915L875.873 245.404L876.27 245.32V244.915H875.77ZM875.77 225.369H876.27V225.019L875.941 224.899L875.77 225.369ZM878.632 224.642L878.258 224.311L878.132 224.452V224.642H878.632ZM882.795 225.069C881.33 225.092 879.917 225.114 878.635 225.106L878.629 226.106C879.924 226.114 881.349 226.092 882.811 226.069L882.795 225.069ZM897.489 226.988C897.003 226.377 896.163 225.986 895.193 225.719C894.206 225.447 892.993 225.279 891.664 225.176C889.005 224.971 885.791 225.022 882.795 225.069L882.811 226.069C885.82 226.021 888.984 225.972 891.587 226.173C892.889 226.274 894.029 226.435 894.927 226.683C895.844 226.936 896.424 227.256 896.707 227.611L897.489 226.988ZM909.134 227.856C906.978 228.1 904.431 228.387 902.206 228.341C901.094 228.318 900.086 228.212 899.261 227.987C898.43 227.76 897.838 227.426 897.489 226.988L896.707 227.611C897.242 228.283 898.066 228.697 898.997 228.951C899.933 229.207 901.032 229.317 902.185 229.341C904.49 229.388 907.105 229.091 909.246 228.849L909.134 227.856ZM911.775 227.587C911.03 227.641 910.12 227.744 909.134 227.856L909.246 228.849C910.24 228.737 911.127 228.637 911.847 228.584L911.775 227.587ZM912.311 233.568V228.086H911.311V233.568H912.311ZM997.027 191.245L911.591 233.119L912.031 234.017L997.467 192.143L997.027 191.245ZM1036.05 210.597L997.472 191.247L997.023 192.141L1035.6 211.49L1036.05 210.597ZM1073.75 202.506L1035.72 210.554L1035.93 211.533L1073.95 203.485L1073.75 202.506ZM1085.98 203.684C1082.12 202.049 1077.85 201.638 1073.75 202.506L1073.95 203.485C1077.86 202.659 1081.92 203.05 1085.59 204.604L1085.98 203.684ZM1144.42 228.418L1085.98 203.684L1085.59 204.604L1144.03 229.339L1144.42 228.418ZM1148.24 227.974C1146.98 228.119 1145.59 228.278 1144.19 228.38L1144.26 229.377C1145.68 229.274 1147.1 229.112 1148.36 228.968L1148.24 227.974ZM1148.24 227.975L1148.24 227.975L1148.36 228.967L1148.36 228.967L1148.24 227.975ZM1150.96 227.694C1150.2 227.751 1149.26 227.858 1148.25 227.974L1148.36 228.968C1149.38 228.851 1150.29 228.746 1151.04 228.692L1150.96 227.694ZM1151.5 231.745V228.193H1150.5V231.745H1151.5ZM1175.49 241.568L1151.19 231.285L1150.81 232.206L1175.1 242.489L1175.49 241.568ZM1188 260.447C1188 252.213 1183.07 244.778 1175.49 241.568L1175.1 242.489C1182.31 245.542 1187 252.614 1187 260.447H1188ZM1188 372.527V260.447H1187V372.527H1188ZM1174.95 391.626C1182.82 388.557 1188 380.974 1188 372.527H1187C1187 380.562 1182.07 387.775 1174.59 390.694L1174.95 391.626ZM1041.19 443.793L1174.95 391.626L1174.59 390.694L1040.82 442.862L1041.19 443.793ZM1033.74 445.194C1036.29 445.194 1038.81 444.719 1041.19 443.793L1040.82 442.862C1038.56 443.742 1036.16 444.194 1033.74 444.194V445.194ZM837.01 445.194H1033.74V444.194H837.01V445.194ZM818.915 434.328C822.475 441.016 829.434 445.194 837.01 445.194V444.194C829.803 444.194 823.184 440.219 819.797 433.858L818.915 434.328ZM760.1 323.852L818.915 434.328L819.797 433.858L760.983 323.382L760.1 323.852ZM768.836 295.98C758.656 301.204 754.723 313.751 760.1 323.852L760.983 323.382C755.868 313.774 759.609 301.839 769.293 296.869L768.836 295.98ZM862.395 247.969L768.836 295.98L769.293 296.869L862.852 248.859L862.395 247.969ZM867.51 246.152C865.732 246.528 864.012 247.139 862.395 247.969L862.852 248.859C864.39 248.07 866.026 247.488 867.717 247.13L867.51 246.152ZM875.666 244.426L867.51 246.152L867.717 247.13L875.873 245.404L875.666 244.426ZM875.27 225.369V244.915H876.27V225.369H875.27ZM875.941 224.899C875.126 224.602 874.545 223.821 874.545 222.904H873.545C873.545 224.254 874.401 225.403 875.599 225.839L875.941 224.899ZM874.545 222.904C874.545 221.732 875.495 220.782 876.668 220.782V219.782C874.943 219.782 873.545 221.18 873.545 222.904H874.545ZM876.668 220.782C877.84 220.782 878.79 221.732 878.79 222.904H879.79C879.79 221.18 878.392 219.782 876.668 219.782V220.782ZM878.79 222.904C878.79 223.444 878.589 223.936 878.258 224.311L879.006 224.973C879.494 224.423 879.79 223.698 879.79 222.904H878.79ZM879.132 225.606V224.642H878.132V225.606H879.132Z" fill="black"/>
<g filter="url(#filter2_d_31637_6)">
<path d="M1285.15 86.1828L1179.81 145.586C1165.37 153.73 1166.54 174.9 1181.79 181.404L1237.59 205.2C1243.22 207.6 1247.44 212.444 1249.04 218.347L1274.71 312.698C1277.81 324.107 1290.08 330.348 1301.13 326.137L1368.62 300.408C1376.38 297.453 1381.5 290.017 1381.5 281.72V157.533C1381.5 151.503 1378.78 145.794 1374.09 141.997L1307.57 88.0673C1301.19 82.8972 1292.3 82.1499 1285.15 86.1828Z" fill="#93A63F"/>
<path d="M1285.15 86.1828L1179.81 145.586C1165.37 153.73 1166.54 174.9 1181.79 181.404L1237.59 205.2C1243.22 207.6 1247.44 212.444 1249.04 218.347L1274.71 312.698C1277.81 324.107 1290.08 330.348 1301.13 326.137L1368.62 300.408C1376.38 297.453 1381.5 290.017 1381.5 281.72V157.533C1381.5 151.503 1378.78 145.794 1374.09 141.997L1307.57 88.0673C1301.19 82.8972 1292.3 82.1499 1285.15 86.1828Z" stroke="black" stroke-linecap="round"/>
</g>
<g opacity="0.6">
<ellipse cx="48.4392" cy="10.1216" rx="48.4392" ry="10.1216" transform="matrix(-1 0 0 1 1318.88 176.405)" fill="black" fill-opacity="0.2"/>
<ellipse cx="33.9797" cy="7.22973" rx="33.9797" ry="7.22973" transform="matrix(-1 0 0 1 1336.23 199.541)" fill="black" fill-opacity="0.2"/>
<path d="M1278.85 106.5C1264.83 106.5 1255.59 117.2 1249.69 130.902C1243.79 144.625 1241.15 161.535 1240.4 174.354C1240.18 178.156 1242.19 181.754 1245.63 183.427C1272.21 196.344 1297.94 190.031 1311.39 183.331C1314.62 181.727 1316.41 178.343 1316.27 174.784C1315.76 161.985 1313.41 144.97 1307.73 131.136C1302.05 117.322 1292.95 106.5 1278.85 106.5Z" fill="#3AA75D" stroke="black" stroke-linecap="round"/>
<path d="M1278.85 107C1267.32 107 1259.04 114.396 1253.2 124.869C1252.43 128.937 1253.68 137.421 1264.87 138.815C1276.05 140.21 1282.37 133.295 1284.14 129.663C1287.61 135.764 1297.63 146.137 1309.94 138.815C1304.6 121.596 1295.05 107 1278.85 107Z" fill="#1D773A"/>
<path d="M1315.88 180.219C1315.88 155.812 1308.48 107 1278.85 107C1299.41 123.736 1300.77 168.686 1298.12 187.762C1305.76 185.708 1311.93 182.792 1315.88 180.219Z" fill="#9EFFBD" fill-opacity="0.58"/>
<path d="M1313.85 152.015C1302.92 152.015 1295.55 158.973 1290.74 168.095C1285.92 177.211 1283.61 188.577 1282.79 197.642C1282.42 201.679 1284.7 205.491 1288.49 206.976C1308.54 214.843 1327.8 211.232 1338.76 206.887C1342.33 205.47 1344.41 201.882 1344.15 198.082C1343.53 189.019 1341.45 177.545 1336.8 168.319C1332.15 159.088 1324.87 152.015 1313.85 152.015Z" fill="#3AA75D" stroke="black" stroke-linecap="round"/>
<path d="M1313.85 152.515C1304.51 152.515 1297.8 157.71 1293.08 165.066C1292.45 167.924 1293.46 173.883 1302.53 174.863C1311.59 175.842 1316.71 170.985 1318.14 168.434C1320.95 172.72 1329.07 180.006 1339.04 174.863C1334.72 162.767 1326.98 152.515 1313.85 152.515Z" fill="#1D773A"/>
<path d="M1343.65 198.116C1342.42 180.059 1335.36 152.515 1313.85 152.515C1330.51 164.271 1331.61 195.844 1329.47 209.244C1332.9 208.442 1335.97 207.454 1338.57 206.424C1341.92 205.094 1343.89 201.716 1343.65 198.116Z" fill="#9EFFBD" fill-opacity="0.58"/>
</g>
<path fill-rule="evenodd" clip-rule="evenodd" d="M262.185 522.167L250.499 378.932C249.652 368.551 240.98 360.558 230.565 360.558H228.438C226.819 360.558 225.205 360.755 223.634 361.144L154.936 378.144C149.261 373.137 142.239 370.058 133.601 370.058H133.601C132.677 370.058 131.772 370.093 130.884 370.162C120.234 370.989 112.106 376.675 105.978 384.791C105.161 385.874 104.379 387 103.631 388.163L103.631 388.163C102.975 389.184 102.346 390.233 101.743 391.306L93.6958 393.298C84.7698 395.507 78.5 403.517 78.5 412.712V607.598C78.5 611.487 79.6339 615.292 81.7628 618.546L116.579 671.771C119.995 676.993 125.653 680.322 131.877 680.771L355.973 696.938C365.104 697.597 373.517 691.971 376.397 683.281L392.964 633.282C396.533 622.513 390.438 610.935 379.54 607.78L337.632 595.649C336.684 594.371 334.249 592.263 331.036 592.418L330.979 592.163C330.917 591.884 330.852 591.607 330.783 591.331C331.736 589.945 332.484 588.002 331.351 586.411C330.764 585.587 329.769 584.956 328.467 584.755C325.017 577.316 319.126 571.178 311.656 567.443C309.894 563.038 306.868 559.254 302.959 556.566L299.617 554.268C295.089 551.156 291.303 547.085 288.526 542.344L288.05 541.531C282.378 531.847 273.047 524.874 262.185 522.167Z" fill="#523D37"/>
<path d="M250.499 378.932L250.997 378.891L250.499 378.932ZM262.185 522.167L261.687 522.207L261.716 522.565L262.064 522.652L262.185 522.167ZM223.634 361.144L223.513 360.658V360.658L223.634 361.144ZM154.936 378.144L154.605 378.518L154.801 378.692L155.056 378.629L154.936 378.144ZM133.601 370.058V369.558H133.601L133.601 370.058ZM130.884 370.162L130.923 370.661L130.884 370.162ZM105.978 384.791L106.377 385.092L105.978 384.791ZM103.631 388.163L103.21 387.893L103.163 387.967L103.143 388.053L103.631 388.163ZM103.631 388.163L104.052 388.434L104.099 388.36L104.119 388.274L103.631 388.163ZM101.743 391.306L101.863 391.792L102.073 391.74L102.179 391.551L101.743 391.306ZM93.6958 393.298L93.5757 392.812L93.6958 393.298ZM81.7628 618.546L81.3444 618.82H81.3444L81.7628 618.546ZM116.579 671.771L116.997 671.497L116.579 671.771ZM131.877 680.771L131.841 681.269L131.877 680.771ZM355.973 696.938L356.009 696.439L355.973 696.938ZM376.397 683.281L376.871 683.438L376.397 683.281ZM392.964 633.282L392.49 633.125L392.964 633.282ZM379.54 607.78L379.401 608.261L379.54 607.78ZM337.632 595.649L337.231 595.947L337.331 596.082L337.493 596.129L337.632 595.649ZM331.036 592.418L330.548 592.527L330.64 592.937L331.06 592.917L331.036 592.418ZM330.979 592.163L330.491 592.272L330.979 592.163ZM330.783 591.331L330.371 591.047L330.244 591.233L330.298 591.451L330.783 591.331ZM331.351 586.411L330.944 586.701H330.944L331.351 586.411ZM328.467 584.755L328.014 584.966L328.126 585.209L328.391 585.25L328.467 584.755ZM311.656 567.443L311.192 567.628L311.262 567.805L311.432 567.89L311.656 567.443ZM302.959 556.566L302.676 556.978L302.959 556.566ZM299.617 554.268L299.9 553.856L299.617 554.268ZM288.526 542.344L288.094 542.596L288.526 542.344ZM288.05 541.531L288.481 541.278L288.05 541.531ZM250.001 378.972L261.687 522.207L262.683 522.126L250.997 378.891L250.001 378.972ZM230.565 361.058C240.72 361.058 249.175 368.851 250.001 378.972L250.997 378.891C250.129 368.251 241.241 360.058 230.565 360.058V361.058ZM228.438 361.058H230.565V360.058H228.438V361.058ZM223.754 361.629C225.286 361.25 226.859 361.058 228.438 361.058V360.058C226.778 360.058 225.125 360.26 223.513 360.658L223.754 361.629ZM155.056 378.629L223.754 361.629L223.513 360.658L154.816 377.658L155.056 378.629ZM133.601 370.558C142.108 370.558 149.015 373.586 154.605 378.518L155.266 377.769C149.508 372.688 142.371 369.558 133.601 369.558V370.558ZM133.601 370.558H133.601V369.558H133.601V370.558ZM130.923 370.661C131.798 370.593 132.69 370.558 133.601 370.558L133.601 369.558C132.665 369.558 131.747 369.594 130.846 369.664L130.923 370.661ZM106.377 385.092C112.442 377.059 120.45 371.474 130.923 370.661L130.846 369.664C120.017 370.504 111.77 376.29 105.579 384.489L106.377 385.092ZM104.052 388.434C104.793 387.28 105.568 386.164 106.377 385.092L105.579 384.489C104.754 385.583 103.964 386.719 103.21 387.893L104.052 388.434ZM104.119 388.274L104.119 388.274L103.143 388.053L103.143 388.053L104.119 388.274ZM102.179 391.551C102.778 390.486 103.402 389.445 104.052 388.434L103.21 387.893C102.549 388.922 101.915 389.979 101.307 391.062L102.179 391.551ZM93.8159 393.783L101.863 391.792L101.623 390.821L93.5757 392.812L93.8159 393.783ZM79 412.712C79 403.747 85.113 395.937 93.8159 393.783L93.5757 392.812C84.4265 395.076 78 403.287 78 412.712H79ZM79 607.598V412.712H78V607.598H79ZM82.1813 618.272C80.1055 615.099 79 611.39 79 607.598H78C78 611.584 79.1622 615.484 81.3444 618.82L82.1813 618.272ZM116.997 671.497L82.1813 618.272L81.3444 618.82L116.161 672.045L116.997 671.497ZM131.913 680.272C125.845 679.834 120.328 676.589 116.997 671.497L116.161 672.045C119.662 677.397 125.461 680.809 131.841 681.269L131.913 680.272ZM356.009 696.439L131.913 680.272L131.841 681.269L355.937 697.437L356.009 696.439ZM375.922 683.123C373.114 691.597 364.912 697.082 356.009 696.439L355.937 697.437C365.296 698.112 373.92 692.346 376.871 683.438L375.922 683.123ZM392.49 633.125L375.922 683.123L376.871 683.438L393.439 633.44L392.49 633.125ZM379.401 608.261C390.027 611.336 395.969 622.625 392.49 633.125L393.439 633.44C397.097 622.401 390.85 610.534 379.679 607.3L379.401 608.261ZM337.493 596.129L379.401 608.261L379.679 607.3L337.771 595.169L337.493 596.129ZM331.06 592.917C334.043 592.773 336.337 594.743 337.231 595.947L338.034 595.351C337.031 594 334.455 591.752 331.012 591.918L331.06 592.917ZM330.491 592.272L330.548 592.527L331.524 592.309L331.467 592.054L330.491 592.272ZM330.298 591.451C330.366 591.724 330.43 591.997 330.491 592.272L331.467 592.054C331.404 591.772 331.338 591.49 331.269 591.21L330.298 591.451ZM330.944 586.701C331.414 587.361 331.503 588.098 331.358 588.854C331.211 589.62 330.824 590.388 330.371 591.047L331.195 591.614C331.694 590.888 332.158 589.991 332.34 589.042C332.524 588.082 332.421 587.052 331.759 586.121L330.944 586.701ZM328.391 585.25C329.574 585.432 330.443 585.998 330.944 586.701L331.759 586.121C331.085 585.175 329.964 584.48 328.543 584.261L328.391 585.25ZM311.432 567.89C318.8 571.574 324.611 577.628 328.014 584.966L328.921 584.545C325.424 577.004 319.452 570.782 311.88 566.995L311.432 567.89ZM302.676 556.978C306.503 559.61 309.467 563.316 311.192 567.628L312.12 567.257C310.322 562.761 307.233 558.898 303.242 556.154L302.676 556.978ZM299.333 554.68L302.676 556.978L303.242 556.154L299.9 553.856L299.333 554.68ZM288.094 542.596C290.908 547.401 294.746 551.526 299.333 554.68L299.9 553.856C295.433 550.785 291.697 546.768 288.957 542.091L288.094 542.596ZM287.618 541.783L288.094 542.596L288.957 542.091L288.481 541.278L287.618 541.783ZM262.064 522.652C272.796 525.327 282.015 532.216 287.618 541.783L288.481 541.278C282.741 531.478 273.298 524.422 262.306 521.682L262.064 522.652Z" fill="black"/>
<path d="M812.803 515.519L716.818 572.793C713.131 574.993 710.25 578.321 708.6 582.286L665.438 686.034C660.259 698.484 668.632 712.387 682.058 713.631L960.434 739.426C962.356 739.604 964.292 739.503 966.185 739.126L1082.76 715.918C1095.19 713.443 1102.22 700.181 1097.28 688.51L1028.06 524.902C1024.93 517.502 1017.68 512.694 1009.64 512.694H948.765H823.051C819.443 512.694 815.901 513.671 812.803 515.519Z" fill="#523D37"/>
<path fill-rule="evenodd" clip-rule="evenodd" d="M823.051 513.194C819.533 513.194 816.08 514.146 813.059 515.949L717.074 573.222C713.479 575.367 710.67 578.613 709.062 582.478L665.9 686.226C660.85 698.364 669.014 711.92 682.105 713.133L960.481 738.928C962.354 739.102 964.242 739.003 966.087 738.636L1082.67 715.427C1094.78 713.015 1101.63 700.084 1096.82 688.705L1027.6 525.097C1024.55 517.882 1017.48 513.194 1009.64 513.194H823.051ZM812.547 515.09C815.723 513.195 819.352 512.194 823.051 512.194H1009.64C1017.88 512.194 1025.31 517.122 1028.52 524.707L1097.74 688.315C1102.8 700.278 1095.6 713.872 1082.86 716.408L966.282 739.617C964.343 740.003 962.358 740.106 960.388 739.924L682.012 714.129C668.25 712.853 659.667 698.603 664.976 685.842L708.139 582.094C709.829 578.03 712.782 574.619 716.562 572.364L812.547 515.09Z" fill="black"/>
<defs>
<filter id="filter0_i_31637_6" x="-19.5" y="1" width="1491.91" height="814.769" filterUnits="userSpaceOnUse" color-interpolation-filters="sRGB">
<feFlood flood-opacity="0" result="BackgroundImageFix"/>
<feBlend mode="normal" in="SourceGraphic" in2="BackgroundImageFix" result="shape"/>
<feColorMatrix in="SourceAlpha" type="matrix" values="0 0 0 0 0 0 0 0 0 0 0 0 0 0 0 0 0 0 127 0" result="hardAlpha"/>
<feOffset dx="-20" dy="26"/>
<feGaussianBlur stdDeviation="30"/>
<feComposite in2="hardAlpha" operator="arithmetic" k2="-1" k3="1"/>
<feColorMatrix type="matrix" values="0 0 0 0 0 0 0 0 0 0 0 0 0 0 0 0 0 0 0.2 0"/>
<feBlend mode="normal" in2="shape" result="effect1_innerShadow_31637_6"/>
</filter>
<filter id="filter1_d_31637_6" x="1101.72" y="72.5762" width="101.297" height="78.0078" filterUnits="userSpaceOnUse" color-interpolation-filters="sRGB">
<feFlood flood-opacity="0" result="BackgroundImageFix"/>
<feColorMatrix in="SourceAlpha" type="matrix" values="0 0 0 0 0 0 0 0 0 0 0 0 0 0 0 0 0 0 127 0" result="hardAlpha"/>
<feOffset dy="10"/>
<feComposite in2="hardAlpha" operator="out"/>
<feColorMatrix type="matrix" values="0 0 0 0 0.321569 0 0 0 0 0.239216 0 0 0 0 0.215686 0 0 0 1 0"/>
<feBlend mode="normal" in2="BackgroundImageFix" result="effect1_dropShadow_31637_6"/>
<feBlend mode="normal" in="SourceGraphic" in2="effect1_dropShadow_31637_6" result="shape"/>
</filter>
<filter id="filter2_d_31637_6" x="1169.14" y="83.1035" width="212.864" height="254.853" filterUnits="userSpaceOnUse" color-interpolation-filters="sRGB">
<feFlood flood-opacity="0" result="BackgroundImageFix"/>
<feColorMatrix in="SourceAlpha" type="matrix" values="0 0 0 0 0 0 0 0 0 0 0 0 0 0 0 0 0 0 127 0" result="hardAlpha"/>
<feOffset dy="10"/>
<feComposite in2="hardAlpha" operator="out"/>
<feColorMatrix type="matrix" values="0 0 0 0 0.321569 0 0 0 0 0.239216 0 0 0 0 0.215686 0 0 0 1 0"/>
<feBlend mode="normal" in2="BackgroundImageFix" result="effect1_dropShadow_31637_6"/>
<feBlend mode="normal" in="SourceGraphic" in2="effect1_dropShadow_31637_6" result="shape"/>
</filter>
</defs>
</svg>
