<svg width="149" height="269" viewBox="0 0 149 269" fill="none" xmlns="http://www.w3.org/2000/svg">
  <path d="M120.48 29.5533L28.5825 67.3843C25.0705 68.8301 22.4503 71.8531 21.5179 75.5348L1.82633 153.289C0.707548 157.706 2.18759 162.376 5.64663 165.343L109.514 254.431C116.782 260.665 128.066 256.293 129.236 246.79L147.764 96.4138C147.92 95.1445 147.873 93.8584 147.623 92.6041L136.817 38.3075C135.342 30.8965 127.467 26.6768 120.48 29.5533Z" fill="#EA8B6E" stroke="black" stroke-linecap="round"/>
  <ellipse cx="100.223" cy="158.485" rx="36.2228" ry="8.48462" fill="black" fill-opacity="0.2"/>
  <path d="M60.3993 159.302C55.5109 155.838 97.0613 53.2256 99.9378 53.2256C102.814 53.2256 102.094 55.3889 115.035 90.3358C128.632 127.058 139.477 158.065 132.648 158.065C127.184 158.065 121.505 150.437 119.348 146.622C119.827 150.437 119.636 158.065 115.035 158.065C110.434 158.065 107.846 149.406 107.127 145.076C106.887 151.571 105.186 164.436 100.298 163.941C95.4091 163.446 91.0719 153.22 89.5143 148.169C87.5973 151.88 82.8287 159.055 79.0905 158.065C75.3522 157.075 77.5329 147.138 79.0905 142.293C74.8969 149.406 65.2878 162.766 60.3993 159.302Z" fill="#1C4B51" stroke="black"/>
  <g filter="url(#filter0_d_26877_34618)">
    <path d="M60.3993 122.811C55.5109 119.946 97.0613 35.0498 99.9378 35.0498C102.814 35.0498 102.094 36.8396 115.035 65.7526C128.632 96.1342 139.477 121.788 132.648 121.788C127.184 121.788 121.505 115.477 119.348 112.321C119.827 115.477 119.636 121.788 115.035 121.788C110.434 121.788 107.846 114.624 107.127 111.041C106.887 116.415 105.186 127.059 100.298 126.649C95.4091 126.24 91.0719 117.779 89.5143 113.6C87.5973 116.671 82.8287 122.607 79.0905 121.788C75.3522 120.969 77.5329 112.747 79.0905 108.739C74.8969 114.624 65.2878 125.677 60.3993 122.811Z" fill="#1C4B51"/>
    <path d="M60.3993 122.811C55.5109 119.946 97.0613 35.0498 99.9378 35.0498C102.814 35.0498 102.094 36.8396 115.035 65.7526C128.632 96.1342 139.477 121.788 132.648 121.788C127.184 121.788 121.505 115.477 119.348 112.321C119.827 115.477 119.636 121.788 115.035 121.788C110.434 121.788 107.846 114.624 107.127 111.041C106.887 116.415 105.186 127.059 100.298 126.649C95.4091 126.24 91.0719 117.779 89.5143 113.6C87.5973 116.671 82.8287 122.607 79.0905 121.788C75.3522 120.969 77.5329 112.747 79.0905 108.739C74.8969 114.624 65.2878 125.677 60.3993 122.811Z" stroke="black"/>
  </g>
  <g filter="url(#filter1_d_26877_34618)">
    <circle cx="116.485" cy="49.3817" r="4.21524" fill="#FFF5A9"/>
    <circle cx="116.485" cy="49.3817" r="3.71524" stroke="black"/>
  </g>
  <g filter="url(#filter2_d_26877_34618)">
    <path d="M69.3879 85.7348C65.3447 82.8906 91.6607 38.064 95.2415 31.4988C98.8223 24.9337 103 20.1563 111.259 42.3003C122.506 72.454 129.834 85.7348 124.186 85.7348C119.667 85.7348 118.342 74.6456 116.558 71.5136C116.955 74.6456 116.796 80.9097 112.991 80.9097C109.185 80.9097 107.045 73.7991 106.45 70.2438C106.252 75.5768 104.845 86.1411 100.802 85.7348C96.7588 85.3285 93.1716 76.9312 91.8833 72.7833C90.2978 75.8307 86.3538 81.7224 83.262 80.9097C80.1702 80.0971 82.7124 73.4144 84.0007 69.4359C80.5323 75.2767 73.431 88.579 69.3879 85.7348Z" fill="#2B646B"/>
    <path d="M69.3879 85.7348C65.3447 82.8906 91.6607 38.064 95.2415 31.4988C98.8223 24.9337 103 20.1563 111.259 42.3003C122.506 72.454 129.834 85.7348 124.186 85.7348C119.667 85.7348 118.342 74.6456 116.558 71.5136C116.955 74.6456 116.796 80.9097 112.991 80.9097C109.185 80.9097 107.045 73.7991 106.45 70.2438C106.252 75.5768 104.845 86.1411 100.802 85.7348C96.7588 85.3285 93.1716 76.9312 91.8833 72.7833C90.2978 75.8307 86.3538 81.7224 83.262 80.9097C80.1702 80.0971 82.7124 73.4144 84.0007 69.4359C80.5323 75.2767 73.431 88.579 69.3879 85.7348Z" stroke="black"/>
  </g>
  <g filter="url(#filter3_d_26877_34618)">
    <path d="M100.791 11L102.972 18.6434L110.682 16.7108L105.153 22.4216L110.682 28.1324L102.972 26.1998L100.791 33.8432L98.6094 26.1998L90.8993 28.1324L96.4281 22.4216L90.8993 16.7108L98.6094 18.6434L100.791 11Z" fill="#FFF5A9"/>
    <path d="M101.272 10.8628C101.21 10.6481 101.014 10.5 100.791 10.5C100.567 10.5 100.371 10.6481 100.31 10.8628L98.2615 18.0407L91.0209 16.2258C90.8043 16.1715 90.578 16.2674 90.4663 16.4608C90.3547 16.6542 90.3848 16.8982 90.5401 17.0586L95.7322 22.4216L90.5401 27.7846C90.3848 27.9451 90.3547 28.189 90.4663 28.3824C90.578 28.5758 90.8043 28.6717 91.0209 28.6174L98.2615 26.8025L100.31 33.9804C100.371 34.1952 100.567 34.3432 100.791 34.3432C101.014 34.3432 101.21 34.1952 101.272 33.9804L103.32 26.8025L110.561 28.6174C110.777 28.6717 111.004 28.5758 111.115 28.3824C111.227 28.189 111.197 27.9451 111.041 27.7846L105.849 22.4216L111.041 17.0586C111.197 16.8982 111.227 16.6542 111.115 16.4608C111.004 16.2674 110.777 16.1715 110.561 16.2258L103.32 18.0407L101.272 10.8628Z" stroke="black" stroke-linejoin="round"/>
  </g>
  <g filter="url(#filter4_d_26877_34618)">
    <circle cx="88.9437" cy="43.1996" r="4.21524" fill="#FFF5A9"/>
    <circle cx="88.9437" cy="43.1996" r="3.71524" stroke="black"/>
  </g>
  <g filter="url(#filter5_d_26877_34618)">
    <circle cx="107.493" cy="65.119" r="4.21524" fill="#FFF5A9"/>
    <circle cx="107.493" cy="65.119" r="3.71524" stroke="black"/>
  </g>
  <circle cx="94.891" cy="92.8822" r="3.71524" fill="#FFF5A9" stroke="black"/>
  <g filter="url(#filter6_d_26877_34618)">
    <circle cx="123.608" cy="107.893" r="4.21524" fill="#FFF5A9"/>
    <circle cx="123.608" cy="107.893" r="3.71524" stroke="black"/>
  </g>
  <g filter="url(#filter7_d_26877_34618)">
    <path d="M46.6693 117.486L62.6865 57.3129C63.2147 55.3286 66.0325 55.3336 66.5537 57.3198L82.342 117.492C82.6747 118.76 81.7183 120 80.4075 120H48.602C47.2883 120 46.3314 118.755 46.6693 117.486Z" fill="#003958"/>
    <path d="M46.6693 117.486L62.6865 57.3129C63.2147 55.3286 66.0325 55.3336 66.5537 57.3198L82.342 117.492C82.6747 118.76 81.7183 120 80.4075 120H48.602C47.2883 120 46.3314 118.755 46.6693 117.486Z" stroke="black"/>
  </g>
  <path d="M22.2337 154.855C19.3731 152.499 43.6876 82.7095 45.3709 82.7095C47.0541 82.7095 46.6329 84.1808 54.2054 107.949C62.1625 132.925 68.5085 154.014 64.5121 154.014C61.3149 154.014 57.9915 148.825 56.7295 146.231C57.0099 148.825 56.8978 154.014 54.2054 154.014C51.5131 154.014 49.9986 148.124 49.5779 145.179C49.4377 149.597 48.4421 158.347 45.5814 158.01C42.7208 157.674 40.1827 150.718 39.2713 147.283C38.1495 149.807 35.3589 154.687 33.1714 154.014C30.9839 153.341 32.2599 146.582 33.1714 143.286C30.7174 148.124 25.0943 157.211 22.2337 154.855Z" fill="#025B8C" stroke="black"/>
  <g filter="url(#filter8_d_26877_34618)">
    <path d="M22.2337 135.925C19.3731 133.569 43.6876 63.7793 45.3709 63.7793C47.0541 63.7793 46.6329 65.2506 54.2054 89.0189C62.1625 113.994 68.5085 135.083 64.5121 135.083C61.3149 135.083 57.9915 129.895 56.7295 127.301C57.0099 129.895 56.8978 135.083 54.2054 135.083C51.5131 135.083 49.9986 129.194 49.5779 126.249C49.4377 130.666 48.4421 139.416 45.5814 139.08C42.7208 138.743 40.1827 131.788 39.2713 128.353C38.1495 130.877 35.3589 135.757 33.1714 135.083C30.9839 134.41 32.2599 127.651 33.1714 124.356C30.7174 129.194 25.0943 138.281 22.2337 135.925Z" fill="#025B8C"/>
    <path d="M22.2337 135.925C19.3731 133.569 43.6876 63.7793 45.3709 63.7793C47.0541 63.7793 46.6329 65.2506 54.2054 89.0189C62.1625 113.994 68.5085 135.083 64.5121 135.083C61.3149 135.083 57.9915 129.895 56.7295 127.301C57.0099 129.895 56.8978 135.083 54.2054 135.083C51.5131 135.083 49.9986 129.194 49.5779 126.249C49.4377 130.666 48.4421 139.416 45.5814 139.08C42.7208 138.743 40.1827 131.788 39.2713 128.353C38.1495 130.877 35.3589 135.757 33.1714 135.083C30.9839 134.41 32.2599 127.651 33.1714 124.356C30.7174 129.194 25.0943 138.281 22.2337 135.925Z" stroke="black"/>
  </g>
  <g filter="url(#filter9_d_26877_34618)">
    <path d="M25.9784 111.241C23.6125 109.307 43.7225 52 45.1147 52C46.5069 52 46.1585 53.2081 52.4216 72.7253C59.0027 93.2336 64.2514 110.551 60.946 110.551C58.3017 110.551 55.553 106.29 54.5092 104.16C54.7411 106.29 54.6483 110.551 52.4216 110.551C50.1948 110.551 48.9422 105.714 48.5943 103.296C48.4783 106.924 47.6548 114.109 45.2889 113.832C42.9229 113.556 40.8237 107.845 40.0699 105.024C39.142 107.096 36.8341 111.103 35.0248 110.551C33.2155 109.998 34.2709 104.448 35.0248 101.742C32.9952 105.714 28.3444 113.176 25.9784 111.241Z" fill="#156D9D"/>
    <path d="M25.9784 111.241C23.6125 109.307 43.7225 52 45.1147 52C46.5069 52 46.1585 53.2081 52.4216 72.7253C59.0027 93.2336 64.2514 110.551 60.946 110.551C58.3017 110.551 55.553 106.29 54.5092 104.16C54.7411 106.29 54.6483 110.551 52.4216 110.551C50.1948 110.551 48.9422 105.714 48.5943 103.296C48.4783 106.924 47.6548 114.109 45.2889 113.832C42.9229 113.556 40.8237 107.845 40.0699 105.024C39.142 107.096 36.8341 111.103 35.0248 110.551C33.2155 109.998 34.2709 104.448 35.0248 101.742C32.9952 105.714 28.3444 113.176 25.9784 111.241Z" stroke="black"/>
  </g>
  <ellipse cx="86.8008" cy="184.5" rx="50.5" ry="8.5" fill="black" fill-opacity="0.2"/>
  <mask id="mask0_26877_34618" style="mask-type:alpha" maskUnits="userSpaceOnUse" x="41" y="75" width="79" height="74">
    <rect x="41.4473" y="75.8921" width="77.6916" height="72.5464" fill="#D9D9D9"/>
  </mask>
  <g mask="url(#mask0_26877_34618)">
    <path d="M74.7641 76.8831C69.6103 76.8831 65.1405 79.2691 63.5498 80.4621C62.6749 79.8258 59.8269 78.5533 57.9113 81.0369C55.5508 84.0975 57.9113 86.6966 59.8269 90.0063C59.2226 92.2199 59.0163 95.8629 59.0163 100.743C57.9365 106.226 54.8024 119.438 50.9038 128.421C50.5834 129.302 50.3101 130.157 50.0567 131.046C48.8006 135.455 48.0355 140.729 44.4616 154.429C40.1667 170.893 47.5634 185.686 48.7564 193.321C49.9494 200.956 43.9844 202.388 43.03 206.444C42.0756 210.501 59.4936 209.308 62.1182 207.637C64.7428 205.967 63.3112 187.595 72.6167 189.742C80.0611 191.46 82.8766 202.865 83.3538 208.353C89.0803 209.228 100.629 210.023 101.01 206.206C101.488 201.434 97.67 202.627 99.3402 190.219C101.01 177.812 105.544 173.994 104.828 163.496C104.112 152.997 101.249 139.874 101.965 132.716C102.681 125.558 110.316 114.582 113.895 109.094C117.474 103.607 117.951 97.1643 117.235 95.9713C116.663 95.0169 115.565 95.2555 115.088 95.4941C115.327 94.6192 115.661 92.774 115.088 92.3923C114.515 92.0105 113.736 92.5514 113.418 92.8695C113.497 92.2332 113.465 90.8652 112.702 90.4835C111.938 90.1017 111.111 90.9607 110.793 91.4379C110.793 90.9607 110.507 89.9108 109.361 89.5291C108.216 89.1473 107.135 91.756 106.737 93.1081C106.737 92.949 106.498 92.6309 105.544 92.6309C104.351 92.6309 104.112 94.3011 104.112 95.4941C104.112 96.6871 104.351 97.4029 102.681 101.221C101.344 104.275 98.1472 107.742 96.7156 109.094C96.2383 104.561 93.6137 101.459 91.7049 94.7783C90.1778 89.4336 88.0463 85.3933 87.1714 84.0412C87.9668 82.8482 89.4047 79.1257 87.4959 76.883C85.5871 74.6403 82.0813 76.7242 80.7292 77.6587C79.5892 77.2446 77.7009 76.8831 74.7641 76.8831Z" fill="white"/>
    <path d="M82.1608 78.5533C82.0239 78.3138 81.5898 77.9713 80.7292 77.6587M80.7292 77.6587C79.5892 77.2446 77.7009 76.8831 74.7641 76.8831C69.6103 76.8831 65.1405 79.2691 63.5498 80.4621C62.6749 79.8258 59.8269 78.5533 57.9113 81.0369C55.5508 84.0975 57.9113 86.6966 59.8269 90.0063M80.7292 77.6587C82.0813 76.7242 85.5871 74.6403 87.4959 76.883C89.4047 79.1257 87.9668 82.8482 87.1714 84.0412M87.1714 84.0412L86.4668 83.0949M87.1714 84.0412C88.0463 85.3933 90.1778 89.4336 91.7049 94.7783C93.6137 101.459 96.2383 104.561 96.7156 109.094M96.7156 109.094C95.6816 110.367 93.4228 113.342 92.6593 115.06M96.7156 109.094C98.1472 107.742 101.344 104.275 102.681 101.221C104.351 97.4029 104.112 96.6871 104.112 95.4941C104.112 94.3011 104.351 92.6309 105.544 92.6309C106.498 92.6309 106.737 92.949 106.737 93.1081C107.135 91.756 108.216 89.1473 109.361 89.5291C110.507 89.9108 110.793 90.9607 110.793 91.4379C111.111 90.9607 111.938 90.1017 112.702 90.4835C113.465 90.8652 113.497 92.2332 113.418 92.8695C113.736 92.5514 114.515 92.0105 115.088 92.3923C115.661 92.774 115.327 94.6192 115.088 95.4941C115.565 95.2555 116.663 95.0169 117.235 95.9713C117.951 97.1643 117.474 103.607 113.895 109.094C110.316 114.582 102.681 125.558 101.965 132.716C101.249 139.874 104.112 152.997 104.828 163.496C105.544 173.994 101.01 177.812 99.3402 190.219C97.67 202.627 101.488 201.434 101.01 206.206C100.629 210.023 89.0803 209.228 83.3538 208.353C82.8766 202.865 80.0611 191.46 72.6167 189.742C63.3112 187.595 64.7428 205.967 62.1182 207.637C59.4936 209.308 42.0756 210.501 43.03 206.444C43.9844 202.388 49.9494 200.956 48.7564 193.321C47.5634 185.686 40.1667 170.893 44.4616 154.429C48.0355 140.729 48.8006 135.455 50.0567 131.046C50.3101 130.157 50.5834 129.302 50.9038 128.421C54.8024 119.438 57.9365 106.226 59.0163 100.743C59.0163 95.8629 59.2226 92.2199 59.8269 90.0063M59.9707 89.5291C59.9204 89.6799 59.8725 89.839 59.8269 90.0063M87.1714 203.342C88.9212 202.388 93.2797 201.052 96.7156 203.342M48.7564 201.911C49.9974 201.434 53.2141 200.766 56.1531 201.911" stroke="black" stroke-linecap="round" stroke-linejoin="round"/>
    <path d="M62.2845 83.8667C62.0787 83.2493 60.8267 82.4089 60.2264 82.0659C58.58 82.6833 60.3979 85.4103 61.5127 86.6965C61.8557 86.0105 62.4903 84.4841 62.2845 83.8667Z" fill="#D5DDDD"/>
    <path d="M83.8942 80.0078C83.6884 79.3903 85.6493 78.2927 86.2496 77.9497C87.896 78.5671 86.8097 81.294 85.6949 82.5803C85.3519 81.8943 84.1514 80.7795 83.8942 80.0078Z" fill="#D5DDDD"/>
    <ellipse cx="111.422" cy="98.2729" rx="2.57257" ry="3.85885" fill="#FFB4AF"/>
    <ellipse cx="106.533" cy="94.9284" rx="0.771771" ry="1.02903" fill="#FFB4AF"/>
    <ellipse cx="109.621" cy="92.3562" rx="0.771771" ry="1.02903" fill="#FFB4AF"/>
    <ellipse cx="112.45" cy="92.6131" rx="0.514514" ry="0.771771" fill="#FFB4AF"/>
    <circle cx="116.052" cy="97.5013" r="0.514514" fill="#FFB4AF"/>
    <circle cx="113.993" cy="94.4139" r="0.514514" fill="#FFB4AF"/>
  </g>
  <path d="M81.1535 87.0405C80.958 87.7507 80.11 87.5746 79.2814 87.3465C78.4529 87.1184 77.6902 86.4736 77.798 86.0818C77.9935 85.3716 79.1266 84.8951 79.9551 85.1231C80.7837 85.3512 81.349 86.3303 81.1535 87.0405Z" fill="black"/>
  <path d="M65.8386 89.0724C66.1861 89.7219 66.9743 89.3629 67.732 88.9575C68.4897 88.5521 69.0913 87.7548 68.8995 87.3964C68.552 86.7469 67.3417 86.5324 66.584 86.9378C65.8262 87.3432 65.4911 88.4229 65.8386 89.0724Z" fill="black"/>
  <path d="M73.6691 87.0089C70.4828 87.2158 68.7775 87.9071 68.1041 91.4404L68.1041 91.4405C67.4306 94.9738 66.9816 97.3293 68.3876 98.2076C70.3558 99.437 71.3696 99.3728 72.8686 99.3105C74.6031 99.2383 80.6817 99.072 80.1378 94.3442C79.3483 87.4806 76.8553 86.8019 73.6691 87.0089Z" fill="#D5DDDD"/>
  <path d="M72.6582 87.748C70.8899 88.1412 70.0057 88.6321 70.0057 90.4004V90.4004C70.0057 92.1687 70.0057 93.3476 70.8898 93.6423C72.1276 94.0549 72.6904 93.9305 73.5261 93.7625C74.493 93.568 77.8911 92.9281 77.079 90.695C75.9002 87.453 74.4265 87.3547 72.6582 87.748Z" fill="black"/>
  <path d="M73.5261 93.7625C74.493 93.568 77.8911 92.9281 77.079 90.695C75.9002 87.453 74.4265 87.3547 72.6582 87.748C70.8899 88.1412 70.0057 88.6321 70.0057 90.4004C70.0057 92.1687 70.0057 93.3476 70.8898 93.6423C72.1276 94.0549 72.6904 93.9305 73.5261 93.7625ZM73.5261 93.7625C73.5261 94.0194 73.4865 94.3534 73.386 94.713M69.7109 97.4737C72.0687 97.4737 73.113 95.6892 73.386 94.713M73.386 94.713C74.1616 95.4419 77.079 96.8843 79.142 95.4107" stroke="black" stroke-linecap="round" stroke-linejoin="round"/>
  <path d="M72.9391 97.5282C72.7432 97.2381 72.5469 96.9229 72.3633 96.5892L73.5422 94.9541L74.7211 95.5435L75.8999 96.133C75.8272 96.5212 75.7005 96.9153 75.5509 97.2888C75.0898 98.4404 73.6332 98.5562 72.9391 97.5282Z" fill="#B86F6F" stroke="black" stroke-linecap="round" stroke-linejoin="round"/>
  <circle cx="82.3943" cy="66.7787" r="2.83629" transform="rotate(8.03681 82.3943 66.7787)" fill="white" stroke="black" stroke-linejoin="round"/>
  <path d="M80.392 68.0584C77.768 68.9378 72.6224 73.9054 70.3776 76.2793C74.5977 77.7431 83.1618 80.5321 83.6568 79.977C84.2756 79.2832 83.6721 66.9591 80.392 68.0584Z" fill="#DA6254" stroke="black" stroke-linejoin="round"/>
  <path d="M67.6114 79.274C66.1816 79.0721 66.6232 77.0513 67.0227 76.0661C69.7531 73.3267 84.8946 78.5895 86.2822 79.827C87.6699 81.0646 88.589 85.6212 82.4585 82.9328C76.328 80.2444 69.3986 79.5263 67.6114 79.274Z" fill="white" stroke="black" stroke-linejoin="round"/>
  <path d="M118.386 199.297C116.116 188.633 107.769 185.075 97.5676 182.818L81.7098 185.845C81.7098 185.845 101.998 184.059 110.46 195.295C116.174 202.883 105.759 205.673 96.9989 211.288C92.7328 214.023 88.7796 218.213 88.4147 221.966L99.0698 226.08C96.9989 211.288 121.642 214.596 118.386 199.297Z" fill="#BA4E3A" stroke="black" stroke-linejoin="round"/>
  <path d="M39.0287 130.924L38.6985 131.009L38.6567 131.347C37.5611 140.199 36.2458 153.534 35.8621 164.766C35.6703 170.379 35.7102 175.488 36.1317 179.256C36.3419 181.136 36.6503 182.713 37.0875 183.86C37.5086 184.965 38.125 185.865 39.0739 186.017C40.7544 186.286 45.9811 186.565 52.8987 186.799C59.8357 187.033 68.5169 187.222 77.1402 187.304C85.7626 187.386 94.332 187.361 101.044 187.168C104.399 187.072 107.296 186.933 109.507 186.743C110.611 186.648 111.551 186.541 112.295 186.418C113.02 186.297 113.612 186.155 113.981 185.97C114.43 185.746 114.759 185.278 115.015 184.74C115.278 184.186 115.504 183.47 115.699 182.633C116.091 180.955 116.38 178.711 116.584 176.109C116.992 170.902 117.065 164.192 116.917 157.568C116.769 150.942 116.4 144.386 115.918 139.482C115.677 137.033 115.407 134.983 115.121 133.539C114.979 132.821 114.828 132.231 114.666 131.81C114.586 131.603 114.493 131.408 114.379 131.256C114.276 131.12 114.073 130.908 113.758 130.908C113.423 130.908 111.894 130.856 109.486 130.773C103.395 130.563 91.6786 130.159 79.4203 129.923C70.8805 129.759 62.0897 129.677 54.7911 129.8C51.1421 129.862 47.8616 129.975 45.1696 130.155C42.488 130.335 40.3581 130.583 39.0287 130.924Z" fill="#E86348" stroke="black"/>
  <path d="M39.0305 130.924L38.7004 131.009L38.6585 131.347C37.5615 140.21 38.4244 145.407 40.3335 148.206C41.3012 149.625 42.5329 150.419 43.878 150.745C45.2104 151.069 46.6197 150.927 47.9516 150.54C51.5093 149.505 53.419 149.865 54.5643 150.796C55.7518 151.762 56.2839 153.452 56.7824 155.529C56.8446 155.787 56.9061 156.052 56.9685 156.32C57.3908 158.135 57.8537 160.124 58.8317 161.8C59.9822 163.772 61.8367 165.308 65.0759 165.79C68.359 166.279 70.7199 165.04 72.5229 162.995C74.2971 160.983 75.5479 158.173 76.6768 155.473C76.8 155.179 76.9216 154.886 77.0422 154.595C78.0448 152.181 78.9792 149.93 80.1447 148.34C80.7909 147.458 81.4813 146.819 82.2542 146.468C83.0149 146.123 83.8988 146.038 84.9804 146.338C88.553 147.33 90.972 149.895 93.3029 152.367C93.3471 152.414 93.3912 152.46 93.4353 152.507C95.7533 154.964 98.0735 157.389 101.401 157.389C103.5 157.389 104.972 156.347 106.111 155.038C106.676 154.388 107.167 153.664 107.615 152.961C107.77 152.72 107.917 152.483 108.061 152.252C108.344 151.799 108.614 151.369 108.89 150.966C109.742 149.726 110.478 149.05 111.381 149.077C111.846 149.092 112.43 149.292 113.179 149.829C113.928 150.366 114.811 151.218 115.865 152.481L116.808 153.612L116.749 152.141C116.523 146.567 116.155 141.365 115.714 137.552C115.494 135.648 115.255 134.076 115.003 132.974C114.878 132.426 114.744 131.97 114.598 131.641C114.526 131.478 114.439 131.318 114.328 131.191C114.223 131.07 114.033 130.908 113.76 130.908C113.425 130.908 111.896 130.856 109.488 130.773C103.397 130.563 91.6804 130.159 79.4221 129.923C70.8823 129.759 62.0916 129.677 54.793 129.8C51.1439 129.862 47.8634 129.975 45.1715 130.155C42.4899 130.335 40.3599 130.583 39.0305 130.924Z" fill="white" stroke="black"/>
  <path d="M101.4 156.89C109.018 156.89 107.705 141.916 116.248 152.161C116.16 149.981 116.05 147.859 115.922 145.856C115.201 144.455 112.18 142.179 105.866 144.28C97.9726 146.907 93.5191 144.28 85.1134 141.653C76.7077 139.026 71.1902 147.958 69.0886 150.059C66.9871 152.161 65.1487 140.077 55.4286 144.28C47.6524 147.643 41.0447 142.879 38.7129 140.077C39.171 149.9 43.695 151.257 47.811 150.059C62.2586 145.856 52.8021 163.457 65.1487 165.296C77.4953 167.135 75.6565 143.229 85.1134 145.856C92.7067 147.966 95.2504 156.89 101.4 156.89Z" fill="#A1BFDA"/>
  <path d="M83.9554 157.161L84.2993 164.728C84.3153 165.08 84.1447 165.415 83.8503 165.608L78.7948 168.938C77.8447 169.563 78.5104 171.037 79.6079 170.738L83.6449 169.637C84.3389 169.447 84.9997 170.031 84.898 170.743L84.4381 173.962C84.2868 175.021 85.681 175.546 86.2657 174.649L86.8846 173.7C87.2837 173.088 88.183 173.097 88.5702 173.717L91.8006 178.885C92.3735 179.802 93.7914 179.284 93.6386 178.214L92.5974 170.926C92.5244 170.415 92.8521 169.932 93.354 169.812L96.4893 169.059C97.3821 168.845 97.5384 167.642 96.73 167.206L93.0954 165.249C92.6057 164.986 92.4252 164.373 92.694 163.886L94.8928 159.9C95.3636 159.047 94.4601 158.093 93.5825 158.517L89.5551 160.461C89.1143 160.674 88.5842 160.536 88.3025 160.136L85.7721 156.54C85.1967 155.722 83.91 156.162 83.9554 157.161Z" fill="#FFC85A"/>
  <path d="M58.0299 165.592L54.5734 165.748C54.0195 165.773 53.5568 165.331 53.5568 164.776C53.5568 163.719 52.1071 163.421 51.6901 164.393L51.1606 165.627C50.9825 166.042 50.5483 166.286 50.1011 166.223L48.1858 165.951C47.3302 165.829 46.9085 166.956 47.6337 167.426C48.1299 167.748 48.1229 168.477 47.6206 168.789L45.5433 170.079C44.6242 170.65 45.1402 172.07 46.2115 171.918L48.8924 171.538C49.5832 171.44 50.1595 172.061 50.0096 172.743L49.7917 173.733C49.5561 174.804 50.9667 175.419 51.5906 174.517L53.4036 171.897C53.6951 171.476 54.2576 171.343 54.7067 171.59L56.3812 172.508C57.2357 172.976 58.1873 172.07 57.7615 171.194L56.9873 169.6C56.7725 169.158 56.9108 168.625 57.3137 168.344L58.6481 167.411C59.4686 166.837 59.0301 165.547 58.0299 165.592Z" fill="#FFC85A"/>
  <path d="M67.4824 183.409L66.5288 185.078C66.1478 185.745 66.6292 186.574 67.397 186.574H68.6685C69.2958 186.574 69.7682 186.003 69.6508 185.387L69.3329 183.718C69.1591 182.806 67.9433 182.603 67.4824 183.409Z" fill="#FFC85A"/>
  <circle cx="68.8262" cy="172.126" r="1.05077" fill="#FFC85A"/>
  <circle cx="110.069" cy="161.881" r="1.83885" fill="#FFC85A"/>
  <circle cx="41.7685" cy="156.627" r="1.83885" fill="#FFC85A"/>
  <path d="M115.877 174.87L115.979 175.048C116.065 175.199 116.111 175.37 116.106 175.544C116.073 176.673 115.858 178.742 115.69 180.182C115.632 180.683 115.206 181.058 114.702 181.058H109.956C108.881 181.058 108.564 179.592 109.543 179.147L113.423 177.384C113.78 177.221 114.009 176.865 114.009 176.473V175.366C114.009 174.341 115.368 173.98 115.877 174.87Z" fill="#FFC85A"/>
  <path d="M113.758 185.524C109.029 187.888 45.7201 186.575 39.1528 185.524C37.4636 185.254 36.6343 181.392 36.3594 175.688C59.1803 177.176 107.081 179.26 116.114 175.688C115.715 181.073 114.969 184.918 113.758 185.524Z" fill="black" fill-opacity="0.2"/>
  <path d="M39.4522 145.124C39.2931 146.158 39.4999 147.987 41.5996 147.033C42.7252 145.208 45.8079 140.7 49.1338 137.264C53.2912 132.969 59.0176 104.785 59.0176 100.744L53.2912 112.674C48.71 116.48 40.2476 124.758 36.589 128.422C29.9081 136.295 30.8625 142.022 31.3397 143.215C31.7215 144.169 32.4531 143.613 32.7712 143.215C32.3736 143.851 31.8168 145.315 32.7712 146.078C33.7257 146.842 34.4415 145.76 34.6801 145.124C34.521 145.76 34.5846 147.128 36.1117 147.51C37.6388 147.892 38.975 146.078 39.4522 145.124Z" fill="white"/>
  <path d="M59.0176 100.744L53.2912 112.674C48.71 116.48 40.2476 124.758 36.589 128.422C29.9081 136.295 30.8625 142.022 31.3397 143.215C31.7215 144.169 32.4531 143.613 32.7712 143.215C32.3736 143.851 31.8168 145.315 32.7712 146.078C33.7257 146.842 34.4415 145.76 34.6801 145.124C34.521 145.76 34.5846 147.128 36.1117 147.51C37.6388 147.892 38.975 146.078 39.4522 145.124C39.2931 146.158 39.4999 147.987 41.5996 147.033C42.7252 145.208 45.8079 140.7 49.1338 137.264C50.4523 134.547 52.4832 129.294 54.3111 125.285" stroke="black" stroke-linejoin="round"/>
  <defs>
    <filter id="filter0_d_26877_34618" x="59.5" y="34.5498" width="75.75" height="101.611" filterUnits="userSpaceOnUse" color-interpolation-filters="sRGB">
      <feFlood flood-opacity="0" result="BackgroundImageFix"/>
      <feColorMatrix in="SourceAlpha" type="matrix" values="0 0 0 0 0 0 0 0 0 0 0 0 0 0 0 0 0 0 127 0" result="hardAlpha"/>
      <feOffset dy="9"/>
      <feComposite in2="hardAlpha" operator="out"/>
      <feColorMatrix type="matrix" values="0 0 0 0 0 0 0 0 0 0 0 0 0 0 0 0 0 0 0.25 0"/>
      <feBlend mode="normal" in2="BackgroundImageFix" result="effect1_dropShadow_26877_34618"/>
      <feBlend mode="normal" in="SourceGraphic" in2="effect1_dropShadow_26877_34618" result="shape"/>
    </filter>
    <filter id="filter1_d_26877_34618" x="102.27" y="35.1665" width="28.4297" height="28.4307" filterUnits="userSpaceOnUse" color-interpolation-filters="sRGB">
      <feFlood flood-opacity="0" result="BackgroundImageFix"/>
      <feColorMatrix in="SourceAlpha" type="matrix" values="0 0 0 0 0 0 0 0 0 0 0 0 0 0 0 0 0 0 127 0" result="hardAlpha"/>
      <feOffset/>
      <feGaussianBlur stdDeviation="5"/>
      <feComposite in2="hardAlpha" operator="out"/>
      <feColorMatrix type="matrix" values="0 0 0 0 1 0 0 0 0 0.960784 0 0 0 0 0.662745 0 0 0 1 0"/>
      <feBlend mode="normal" in2="BackgroundImageFix" result="effect1_dropShadow_26877_34618"/>
      <feBlend mode="normal" in="SourceGraphic" in2="effect1_dropShadow_26877_34618" result="shape"/>
    </filter>
    <filter id="filter2_d_26877_34618" x="68.4668" y="25.5103" width="58.1699" height="70.1196" filterUnits="userSpaceOnUse" color-interpolation-filters="sRGB">
      <feFlood flood-opacity="0" result="BackgroundImageFix"/>
      <feColorMatrix in="SourceAlpha" type="matrix" values="0 0 0 0 0 0 0 0 0 0 0 0 0 0 0 0 0 0 127 0" result="hardAlpha"/>
      <feOffset dy="9"/>
      <feComposite in2="hardAlpha" operator="out"/>
      <feColorMatrix type="matrix" values="0 0 0 0 0 0 0 0 0 0 0 0 0 0 0 0 0 0 0.25 0"/>
      <feBlend mode="normal" in2="BackgroundImageFix" result="effect1_dropShadow_26877_34618"/>
      <feBlend mode="normal" in="SourceGraphic" in2="effect1_dropShadow_26877_34618" result="shape"/>
    </filter>
    <filter id="filter3_d_26877_34618" x="79.8984" y="0" width="41.7832" height="44.8433" filterUnits="userSpaceOnUse" color-interpolation-filters="sRGB">
      <feFlood flood-opacity="0" result="BackgroundImageFix"/>
      <feColorMatrix in="SourceAlpha" type="matrix" values="0 0 0 0 0 0 0 0 0 0 0 0 0 0 0 0 0 0 127 0" result="hardAlpha"/>
      <feOffset/>
      <feGaussianBlur stdDeviation="5"/>
      <feComposite in2="hardAlpha" operator="out"/>
      <feColorMatrix type="matrix" values="0 0 0 0 1 0 0 0 0 0.960784 0 0 0 0 0.662745 0 0 0 1 0"/>
      <feBlend mode="normal" in2="BackgroundImageFix" result="effect1_dropShadow_26877_34618"/>
      <feBlend mode="normal" in="SourceGraphic" in2="effect1_dropShadow_26877_34618" result="shape"/>
    </filter>
    <filter id="filter4_d_26877_34618" x="74.7285" y="28.9844" width="28.4297" height="28.4307" filterUnits="userSpaceOnUse" color-interpolation-filters="sRGB">
      <feFlood flood-opacity="0" result="BackgroundImageFix"/>
      <feColorMatrix in="SourceAlpha" type="matrix" values="0 0 0 0 0 0 0 0 0 0 0 0 0 0 0 0 0 0 127 0" result="hardAlpha"/>
      <feOffset/>
      <feGaussianBlur stdDeviation="5"/>
      <feComposite in2="hardAlpha" operator="out"/>
      <feColorMatrix type="matrix" values="0 0 0 0 1 0 0 0 0 0.960784 0 0 0 0 0.662745 0 0 0 1 0"/>
      <feBlend mode="normal" in2="BackgroundImageFix" result="effect1_dropShadow_26877_34618"/>
      <feBlend mode="normal" in="SourceGraphic" in2="effect1_dropShadow_26877_34618" result="shape"/>
    </filter>
    <filter id="filter5_d_26877_34618" x="93.2773" y="50.9038" width="28.4297" height="28.4307" filterUnits="userSpaceOnUse" color-interpolation-filters="sRGB">
      <feFlood flood-opacity="0" result="BackgroundImageFix"/>
      <feColorMatrix in="SourceAlpha" type="matrix" values="0 0 0 0 0 0 0 0 0 0 0 0 0 0 0 0 0 0 127 0" result="hardAlpha"/>
      <feOffset/>
      <feGaussianBlur stdDeviation="5"/>
      <feComposite in2="hardAlpha" operator="out"/>
      <feColorMatrix type="matrix" values="0 0 0 0 1 0 0 0 0 0.960784 0 0 0 0 0.662745 0 0 0 1 0"/>
      <feBlend mode="normal" in2="BackgroundImageFix" result="effect1_dropShadow_26877_34618"/>
      <feBlend mode="normal" in="SourceGraphic" in2="effect1_dropShadow_26877_34618" result="shape"/>
    </filter>
    <filter id="filter6_d_26877_34618" x="109.393" y="93.6782" width="28.4297" height="28.4307" filterUnits="userSpaceOnUse" color-interpolation-filters="sRGB">
      <feFlood flood-opacity="0" result="BackgroundImageFix"/>
      <feColorMatrix in="SourceAlpha" type="matrix" values="0 0 0 0 0 0 0 0 0 0 0 0 0 0 0 0 0 0 127 0" result="hardAlpha"/>
      <feOffset/>
      <feGaussianBlur stdDeviation="5"/>
      <feComposite in2="hardAlpha" operator="out"/>
      <feColorMatrix type="matrix" values="0 0 0 0 1 0 0 0 0 0.960784 0 0 0 0 0.662745 0 0 0 1 0"/>
      <feBlend mode="normal" in2="BackgroundImageFix" result="effect1_dropShadow_26877_34618"/>
      <feBlend mode="normal" in="SourceGraphic" in2="effect1_dropShadow_26877_34618" result="shape"/>
    </filter>
    <filter id="filter7_d_26877_34618" x="46.1016" y="55.3276" width="36.8066" height="71.1724" filterUnits="userSpaceOnUse" color-interpolation-filters="sRGB">
      <feFlood flood-opacity="0" result="BackgroundImageFix"/>
      <feColorMatrix in="SourceAlpha" type="matrix" values="0 0 0 0 0 0 0 0 0 0 0 0 0 0 0 0 0 0 127 0" result="hardAlpha"/>
      <feOffset dy="6"/>
      <feComposite in2="hardAlpha" operator="out"/>
      <feColorMatrix type="matrix" values="0 0 0 0 0 0 0 0 0 0 0 0 0 0 0 0 0 0 0.25 0"/>
      <feBlend mode="normal" in2="BackgroundImageFix" result="effect1_dropShadow_26877_34618"/>
      <feBlend mode="normal" in="SourceGraphic" in2="effect1_dropShadow_26877_34618" result="shape"/>
    </filter>
    <filter id="filter8_d_26877_34618" x="21.5" y="63.2793" width="44.7422" height="85.3105" filterUnits="userSpaceOnUse" color-interpolation-filters="sRGB">
      <feFlood flood-opacity="0" result="BackgroundImageFix"/>
      <feColorMatrix in="SourceAlpha" type="matrix" values="0 0 0 0 0 0 0 0 0 0 0 0 0 0 0 0 0 0 127 0" result="hardAlpha"/>
      <feOffset dy="9"/>
      <feComposite in2="hardAlpha" operator="out"/>
      <feColorMatrix type="matrix" values="0 0 0 0 0 0 0 0 0 0 0 0 0 0 0 0 0 0 0.25 0"/>
      <feBlend mode="normal" in2="BackgroundImageFix" result="effect1_dropShadow_26877_34618"/>
      <feBlend mode="normal" in="SourceGraphic" in2="effect1_dropShadow_26877_34618" result="shape"/>
    </filter>
    <filter id="filter9_d_26877_34618" x="25.2852" y="51.5" width="37.1777" height="71.8403" filterUnits="userSpaceOnUse" color-interpolation-filters="sRGB">
      <feFlood flood-opacity="0" result="BackgroundImageFix"/>
      <feColorMatrix in="SourceAlpha" type="matrix" values="0 0 0 0 0 0 0 0 0 0 0 0 0 0 0 0 0 0 127 0" result="hardAlpha"/>
      <feOffset dy="9"/>
      <feComposite in2="hardAlpha" operator="out"/>
      <feColorMatrix type="matrix" values="0 0 0 0 0 0 0 0 0 0 0 0 0 0 0 0 0 0 0.25 0"/>
      <feBlend mode="normal" in2="BackgroundImageFix" result="effect1_dropShadow_26877_34618"/>
      <feBlend mode="normal" in="SourceGraphic" in2="effect1_dropShadow_26877_34618" result="shape"/>
    </filter>
  </defs>
</svg>
