<svg width="432" height="264" viewBox="0 0 432 264" fill="none" xmlns="http://www.w3.org/2000/svg">
<g clip-path="url(#clip0_31644_402)">
<g filter="url(#filter0_d_31644_402)">
<path d="M62.3561 242.399L3.5415 131.923C-1.70467 122.068 2.13215 109.827 12.0645 104.73L105.623 56.7196C107.201 55.9101 108.879 55.314 110.614 54.9469L316.851 11.3012C320.854 10.4542 325.02 10.855 328.788 12.4497L418.296 50.3344C425.694 53.4656 430.5 60.7193 430.5 68.7526V180.833C430.5 189.074 425.445 196.471 417.767 199.466L284.005 251.633C281.689 252.536 279.224 253 276.738 253H80.0102C72.6186 253 65.8296 248.923 62.3561 242.399Z" fill="#E7F075"/>
<path d="M62.3561 242.399L3.5415 131.923C-1.70467 122.068 2.13215 109.827 12.0645 104.73L105.623 56.7196C107.201 55.9101 108.879 55.314 110.614 54.9469L316.851 11.3012C320.854 10.4542 325.02 10.855 328.788 12.4497L418.296 50.3344C425.694 53.4656 430.5 60.7193 430.5 68.7526V180.833C430.5 189.074 425.445 196.471 417.767 199.466L284.005 251.633C281.689 252.536 279.224 253 276.738 253H80.0102C72.6186 253 65.8296 248.923 62.3561 242.399Z" stroke="black" stroke-linecap="round"/>
</g>
<path d="M210.278 204L158 253H276L271.021 204H210.278Z" fill="#E0C6A0" stroke="black" stroke-linejoin="round"/>
<ellipse cx="244" cy="225.5" rx="8" ry="2.5" fill="black" fill-opacity="0.1"/>
<ellipse cx="219" cy="220.5" rx="8" ry="2.5" fill="black" fill-opacity="0.1"/>
<ellipse cx="226" cy="245" rx="10" ry="3" fill="black" fill-opacity="0.1"/>
<ellipse cx="254" cy="217" rx="10" ry="3" fill="black" fill-opacity="0.1"/>
<ellipse cx="207.5" cy="232" rx="13.5" ry="4" fill="black" fill-opacity="0.1"/>
<ellipse cx="254" cy="242" rx="11" ry="3" fill="black" fill-opacity="0.1"/>
<ellipse cx="73.5" cy="180" rx="17.5" ry="6" fill="black" fill-opacity="0.2"/>
<ellipse cx="106.5" cy="166" rx="17.5" ry="6" fill="black" fill-opacity="0.2"/>
<path d="M79.6822 75.272L75.0132 180.992H83.3507L79.6822 75.272Z" fill="#896736" stroke="black"/>
<path d="M72.3455 95.6156C65.0636 100.47 57.8937 100.507 55.0034 99.6176C65.6543 98.059 75.7708 81.3734 80.3495 72.9375C81.6648 90.0128 93.007 97.172 98.0251 98.2836C89.4875 98.2836 82.2394 92.0583 79.6825 88.9456C79.6825 88.9456 77.348 92.2806 72.3455 95.6156Z" fill="#14653C" stroke="black"/>
<path d="M72.3451 109.956C64.0076 114.959 51.8903 115.848 49 114.959C64.3411 113.362 75.1035 101.717 79.6822 93.2812C80.9975 110.357 97.3578 112.958 102.694 113.958C85.6852 115.292 82.239 106.399 79.6822 103.286C79.6822 103.286 77.5006 106.863 72.3451 109.956Z" fill="#14653C" stroke="black"/>
<path d="M72.3451 121.961C64.0076 126.963 51.8903 127.853 49 126.963C64.3411 125.366 75.1035 113.722 79.6822 105.286C80.9975 122.361 97.0243 122.628 102.36 123.628C85.3517 124.962 82.239 118.403 79.6822 115.291C79.6822 115.291 77.5006 118.867 72.3451 121.961Z" fill="#14653C" stroke="black"/>
<path d="M58.0045 134.97C68.9434 134.97 77.6811 126.299 80.6826 121.964C80.6826 123.854 79.5487 128.701 75.0131 132.969C70.4775 137.238 61.7842 136.082 58.0045 134.97Z" fill="#14653C" stroke="black"/>
<path d="M94.69 133.636C88.8204 133.636 82.9063 128.967 80.683 126.633C79.1266 128.411 77.1478 132.302 81.6835 133.636C86.2191 134.97 92.2444 134.192 94.69 133.636Z" fill="#14653C" stroke="black"/>
<path d="M68.6762 141.403C73.3825 141.403 78.1245 137.782 79.9072 135.971C81.1551 137.351 82.7417 140.368 79.105 141.403C75.4683 142.438 70.6372 141.834 68.6762 141.403Z" fill="#14653C" stroke="black"/>
<path d="M113.825 68.1167L109.591 163.992H117.152L113.825 68.1167Z" fill="#896736" stroke="black"/>
<path d="M107.171 86.5663C100.567 90.9688 94.0652 91.0022 91.444 90.1957C101.103 88.7821 110.278 73.6503 114.43 66C115.623 81.4852 125.909 87.9777 130.46 88.9859C122.717 88.9859 116.144 83.3402 113.825 80.5174C113.825 80.5174 111.708 83.5419 107.171 86.5663Z" fill="#14653C" stroke="black"/>
<path d="M107.171 99.571C99.6101 104.108 88.6212 104.914 86 104.108C99.9125 102.659 109.673 92.0991 113.825 84.4487C115.018 99.934 129.855 102.293 134.694 103.2C119.269 104.41 116.144 96.3449 113.825 93.5221C113.825 93.5221 111.847 96.7658 107.171 99.571Z" fill="#14653C" stroke="black"/>
<path d="M107.171 110.459C99.6101 114.996 88.6212 115.802 86 114.996C99.9125 113.547 109.673 102.987 113.825 95.3369C115.018 110.822 129.552 111.064 134.391 111.971C118.967 113.181 116.144 107.233 113.825 104.41C113.825 104.41 111.847 107.654 107.171 110.459Z" fill="#14653C" stroke="black"/>
<path d="M94.166 122.255C104.086 122.255 112.01 114.391 114.732 110.459C114.732 112.173 113.704 116.569 109.591 120.44C105.477 124.311 97.5937 123.263 94.166 122.255Z" fill="#14653C" stroke="black"/>
<path d="M127.435 121.045C122.112 121.045 116.749 116.811 114.732 114.694C113.321 116.307 111.526 119.835 115.64 121.045C119.753 122.255 125.217 121.549 127.435 121.045Z" fill="#14653C" stroke="black"/>
<path d="M103.844 128.089C108.112 128.089 112.413 124.805 114.029 123.163C115.161 124.414 116.6 127.15 113.302 128.089C110.004 129.027 105.623 128.48 103.844 128.089Z" fill="#14653C" stroke="black"/>
<path d="M128.417 57.6987H349.98L361.415 69.2385H116.982L128.417 57.6987Z" fill="#D8CABD" stroke="black" stroke-linejoin="round"/>
<ellipse cx="238.149" cy="192.344" rx="142.149" ry="23.0796" fill="black" fill-opacity="0.2"/>
<path d="M121.093 193.029H360.577L362.003 185.686H119.667L121.093 193.029Z" fill="#A38B76" stroke="black" stroke-linejoin="round"/>
<path d="M163.226 204.151H317.73L318.649 198.983H162.306L163.226 204.151Z" fill="#A38B76" stroke="black" stroke-linejoin="round"/>
<path d="M162.306 198.982H318.649L309.453 189.938H171.503L162.306 198.982Z" fill="#CCC1B0" stroke="black" stroke-linejoin="round"/>
<path d="M119.08 185.685H361.415L347.16 172.047H133.335L119.08 185.685Z" fill="#CCC1B0" stroke="black" stroke-linejoin="round"/>
<rect x="130.619" y="58.748" width="219.256" height="2.09814" fill="#AA6852" stroke="black"/>
<path d="M127.472 63.9932H353.022V60.8459H127.472V63.9932Z" fill="#D8CABD" stroke="black"/>
<rect x="129.57" y="63.9932" width="221.354" height="5.24536" fill="#AA6852" stroke="black"/>
<path d="M118.411 73.4351H359.986L361.415 69.2388H116.982L118.411 73.4351Z" fill="#A38B76" stroke="black" stroke-linejoin="round"/>
<path d="M121.178 73.4351H357.219L356.503 76.5823H121.991L121.178 73.4351Z" fill="#AA6852" stroke="black"/>
<path d="M120.505 81.8276H359.99L361.415 76.5823H119.08L120.505 81.8276Z" fill="#A38B76" stroke="black" stroke-linejoin="round"/>
<path d="M120.129 81.8276H360.366L354.635 179.391H125.859L120.129 81.8276Z" fill="#AA6852" stroke="black"/>
<path d="M214.146 126.487L211.849 107.441C211.896 97.0123 220.365 88.5728 230.805 88.5728H245.492C255.933 88.5728 264.402 97.0123 264.449 107.441L262.152 126.487H238.149H214.146Z" fill="#D3F8FF" stroke="#602B00" stroke-width="3"/>
<path d="M132.191 153.606L131.155 134.731H156.396L156.395 153.688L156.395 172.645H133.235L132.191 153.606Z" fill="#D3F8FF" stroke="#602B00" stroke-width="3"/>
<path d="M130.175 108.49L129.063 89.6216H156.395L156.395 108.578L156.395 127.535H131.297L130.175 108.49Z" fill="#D3F8FF" stroke="#602B00" stroke-width="3"/>
<path d="M216.25 154.123L215.088 134.731H261.209L260.047 154.123L258.874 173.694H238.149H217.423L216.25 154.123Z" fill="#D3F8FF" stroke="#602B00" stroke-width="3"/>
<path d="M137.527 46.1592H341.531L353.022 58.748H127.472L137.527 46.1592Z" fill="#C55542" stroke="black"/>
<path d="M240.247 18.8833L351.973 69.2387H128.521L240.247 18.8833Z" fill="#D8CABD" stroke="black"/>
<path d="M240.247 18.4989L351.973 69.2387L331.92 45.983L240.247 0L146.426 45.983L128.521 69.2387L240.247 18.4989Z" fill="#C55542"/>
<path d="M240.247 18.4989L351.973 69.2387L331.92 45.983L240.247 0M240.247 18.4989L128.521 69.2387L146.426 45.983L240.247 0M240.247 18.4989V0" stroke="black"/>
<g filter="url(#filter1_i_31644_402)">
<path d="M240.247 24.1289L328.894 63.9936H151.601L240.247 24.1289Z" fill="#AA6852"/>
</g>
<path d="M240.247 24.1289L328.894 63.9936H151.601L240.247 24.1289Z" stroke="black"/>
<g filter="url(#filter2_i_31644_402)">
<path d="M240.247 30.4229L305.814 59.7969H174.68L240.247 30.4229Z" fill="#D8CABD"/>
</g>
<path d="M240.247 30.4229L305.814 59.7969H174.68L240.247 30.4229Z" stroke="black"/>
<path d="M129.57 68.1895H351.973L349.104 77.6311H132.44L129.57 68.1895Z" fill="#A38B76" stroke="black" stroke-linejoin="round"/>
<path d="M162.091 81.8276H176.99L179.926 179.391H166.495L162.091 81.8276Z" fill="#D8CABD" stroke="black"/>
<path d="M189.367 81.8276H203.692L205.103 179.391H192.19L189.367 81.8276Z" fill="#D8CABD" stroke="black"/>
<rect x="163.141" y="178.342" width="17.8342" height="3.14721" rx="1.57361" fill="#D9CEC6" stroke="black"/>
<rect x="190.416" y="178.342" width="17.8342" height="3.14721" rx="1.57361" fill="#D9CEC6" stroke="black"/>
<path d="M346.247 153.609L347.244 134.731H323.05L323.05 153.688L323.05 172.645H345.241L346.247 153.609Z" fill="#D3F8FF" stroke="#602B00" stroke-width="3"/>
<path d="M349.271 108.49L350.383 89.6216H323.051L323.051 108.578L323.051 127.535H348.149L349.271 108.49Z" fill="#D3F8FF" stroke="#602B00" stroke-width="3"/>
<path d="M316.305 81.8276H301.407L298.471 179.391H311.901L316.305 81.8276Z" fill="#D8CABD" stroke="black"/>
<path d="M289.029 81.8276H274.705L273.293 179.391H286.207L289.029 81.8276Z" fill="#D8CABD" stroke="black"/>
<rect width="18.8833" height="3.14721" rx="1.57361" transform="matrix(-1 0 0 1 316.305 178.342)" fill="#D9CEC6" stroke="black"/>
<rect width="18.8833" height="3.14721" rx="1.57361" transform="matrix(-1 0 0 1 289.029 178.342)" fill="#D9CEC6" stroke="black"/>
<path fill-rule="evenodd" clip-rule="evenodd" d="M166.888 88.1277C166.888 91.4625 164.185 94.166 160.85 94.166C157.515 94.166 154.811 91.4625 154.811 88.1277C154.811 84.7928 157.515 82.0894 160.85 82.0894L160.871 82.0894H176.105C176.105 82.0894 176.105 82.0894 176.106 82.0894C179.44 82.09 182.143 84.7932 182.143 88.1277C182.143 91.4626 179.439 94.166 176.105 94.166C172.77 94.166 170.066 91.4626 170.066 88.1277C170.066 87.8033 170.092 87.4848 170.141 87.1743H166.813C166.862 87.4848 166.888 87.8033 166.888 88.1277Z" fill="#D8CABD"/>
<path d="M160.85 82.0894L160.851 81.5894H160.85V82.0894ZM160.871 82.0894L160.871 82.5894H160.871V82.0894ZM176.106 82.0894L176.106 81.5894L176.106 82.0894ZM170.141 87.1743L170.635 87.2526L170.727 86.6743H170.141V87.1743ZM166.813 87.1743V86.6743H166.228L166.319 87.2526L166.813 87.1743ZM160.85 94.666C164.461 94.666 167.388 91.7387 167.388 88.1277H166.388C166.388 91.1864 163.908 93.666 160.85 93.666V94.666ZM154.311 88.1277C154.311 91.7387 157.239 94.666 160.85 94.666V93.666C157.791 93.666 155.311 91.1864 155.311 88.1277H154.311ZM160.85 81.5894C157.239 81.5894 154.311 84.5167 154.311 88.1277H155.311C155.311 85.0689 157.791 82.5894 160.85 82.5894V81.5894ZM160.872 81.5894L160.851 81.5894L160.849 82.5894L160.871 82.5894L160.872 81.5894ZM176.105 81.5894H160.871V82.5894H176.105V81.5894ZM176.105 82.5894C176.105 82.5894 176.105 82.5894 176.106 82.5894L176.106 81.5894C176.105 81.5894 176.105 81.5894 176.105 81.5894V82.5894ZM176.106 82.5894C179.164 82.59 181.643 85.0693 181.643 88.1277H182.643C182.643 84.5171 179.716 81.5901 176.106 81.5894L176.106 82.5894ZM181.643 88.1277C181.643 91.1864 179.163 93.666 176.105 93.666V94.666C179.716 94.666 182.643 91.7387 182.643 88.1277H181.643ZM176.105 93.666C173.046 93.666 170.566 91.1864 170.566 88.1277H169.566C169.566 91.7387 172.494 94.666 176.105 94.666V93.666ZM170.566 88.1277C170.566 87.8296 170.59 87.5374 170.635 87.2526L169.647 87.096C169.594 87.4323 169.566 87.777 169.566 88.1277H170.566ZM166.813 87.6743H170.141V86.6743H166.813V87.6743ZM167.388 88.1277C167.388 87.7769 167.36 87.4323 167.307 87.096L166.319 87.2526C166.364 87.5373 166.388 87.8296 166.388 88.1277H167.388Z" fill="black"/>
<circle cx="176.102" cy="88.1243" r="3.49586" fill="#D9CEC6" stroke="black"/>
<circle cx="160.846" cy="88.1243" r="3.49586" fill="#D9CEC6" stroke="black"/>
<path fill-rule="evenodd" clip-rule="evenodd" d="M280.188 88.1277C280.188 91.4625 277.485 94.166 274.15 94.166C270.815 94.166 268.111 91.4625 268.111 88.1277C268.111 84.7928 270.815 82.0894 274.15 82.0894L274.171 82.0894H289.404C289.404 82.0894 289.405 82.0894 289.405 82.0894C292.74 82.09 295.442 84.7932 295.442 88.1277C295.442 91.4626 292.739 94.166 289.404 94.166C286.069 94.166 283.366 91.4626 283.366 88.1277C283.366 87.8033 283.391 87.4848 283.441 87.1743H280.113C280.162 87.4848 280.188 87.8033 280.188 88.1277Z" fill="#D8CABD"/>
<path d="M274.15 82.0894L274.151 81.5894H274.15V82.0894ZM274.171 82.0894L274.17 82.5894H274.171V82.0894ZM289.405 82.0894L289.405 81.5894L289.405 82.0894ZM283.441 87.1743L283.934 87.2526L284.026 86.6743H283.441V87.1743ZM280.113 87.1743V86.6743H279.528L279.619 87.2526L280.113 87.1743ZM274.15 94.666C277.761 94.666 280.688 91.7387 280.688 88.1277H279.688C279.688 91.1864 277.208 93.666 274.15 93.666V94.666ZM267.611 88.1277C267.611 91.7387 270.539 94.666 274.15 94.666V93.666C271.091 93.666 268.611 91.1864 268.611 88.1277H267.611ZM274.15 81.5894C270.539 81.5894 267.611 84.5167 267.611 88.1277H268.611C268.611 85.0689 271.091 82.5894 274.15 82.5894V81.5894ZM274.172 81.5894L274.151 81.5894L274.149 82.5894L274.17 82.5894L274.172 81.5894ZM289.404 81.5894H274.171V82.5894H289.404V81.5894ZM289.404 82.5894C289.405 82.5894 289.405 82.5894 289.405 82.5894L289.405 81.5894C289.405 81.5894 289.404 81.5894 289.404 81.5894V82.5894ZM289.405 82.5894C292.463 82.59 294.942 85.0693 294.942 88.1277H295.942C295.942 84.5171 293.016 81.5901 289.405 81.5894L289.405 82.5894ZM294.942 88.1277C294.942 91.1864 292.463 93.666 289.404 93.666V94.666C293.015 94.666 295.942 91.7387 295.942 88.1277H294.942ZM289.404 93.666C286.345 93.666 283.866 91.1864 283.866 88.1277H282.866C282.866 91.7387 285.793 94.666 289.404 94.666V93.666ZM283.866 88.1277C283.866 87.8296 283.889 87.5374 283.934 87.2526L282.947 87.096C282.893 87.4323 282.866 87.777 282.866 88.1277H283.866ZM280.113 87.6743H283.441V86.6743H280.113V87.6743ZM280.688 88.1277C280.688 87.7769 280.66 87.4323 280.607 87.096L279.619 87.2526C279.664 87.5373 279.688 87.8296 279.688 88.1277H280.688Z" fill="black"/>
<circle cx="289.404" cy="88.1243" r="3.49586" fill="#D9CEC6" stroke="black"/>
<circle cx="274.15" cy="88.1243" r="3.49586" fill="#D9CEC6" stroke="black"/>
<path fill-rule="evenodd" clip-rule="evenodd" d="M195.752 88.1277C195.752 91.4625 193.049 94.166 189.714 94.166C186.379 94.166 183.675 91.4625 183.675 88.1277C183.675 84.7928 186.379 82.0894 189.714 82.0894L189.735 82.0894H204.968C204.968 82.0894 204.968 82.0894 204.968 82.0894C208.303 82.0894 211.007 84.7928 211.007 88.1277C211.007 91.4626 208.303 94.166 204.968 94.166C201.633 94.166 198.93 91.4626 198.93 88.1277C198.93 87.8033 198.956 87.4848 199.005 87.1743H195.677C195.726 87.4848 195.752 87.8033 195.752 88.1277Z" fill="#D8CABD"/>
<path d="M189.714 82.0894L189.715 81.5894H189.714V82.0894ZM189.735 82.0894L189.735 82.5894H189.735V82.0894ZM204.968 82.0894V82.5894H204.968L204.968 82.0894ZM199.005 87.1743L199.499 87.2526L199.59 86.6743H199.005V87.1743ZM195.677 87.1743V86.6743H195.092L195.183 87.2526L195.677 87.1743ZM189.714 94.666C193.325 94.666 196.252 91.7387 196.252 88.1277H195.252C195.252 91.1864 192.772 93.666 189.714 93.666V94.666ZM183.175 88.1277C183.175 91.7387 186.103 94.666 189.714 94.666V93.666C186.655 93.666 184.175 91.1864 184.175 88.1277H183.175ZM189.714 81.5894C186.103 81.5894 183.175 84.5167 183.175 88.1277H184.175C184.175 85.0689 186.655 82.5894 189.714 82.5894V81.5894ZM189.736 81.5894L189.715 81.5894L189.713 82.5894L189.735 82.5894L189.736 81.5894ZM204.968 81.5894H189.735V82.5894H204.968V81.5894ZM204.968 82.5894C204.968 82.5894 204.968 82.5894 204.968 82.5894V81.5894C204.968 81.5894 204.968 81.5894 204.968 81.5894L204.968 82.5894ZM204.968 82.5894C208.027 82.5894 210.507 85.069 210.507 88.1277H211.507C211.507 84.5167 208.579 81.5894 204.968 81.5894V82.5894ZM210.507 88.1277C210.507 91.1864 208.027 93.666 204.968 93.666V94.666C208.579 94.666 211.507 91.7387 211.507 88.1277H210.507ZM204.968 93.666C201.91 93.666 199.43 91.1864 199.43 88.1277H198.43C198.43 91.7387 201.357 94.666 204.968 94.666V93.666ZM199.43 88.1277C199.43 87.8296 199.453 87.5374 199.499 87.2526L198.511 87.096C198.458 87.4323 198.43 87.777 198.43 88.1277H199.43ZM195.677 87.6743H199.005V86.6743H195.677V87.6743ZM196.252 88.1277C196.252 87.7769 196.224 87.4323 196.171 87.096L195.183 87.2526C195.229 87.5373 195.252 87.8296 195.252 88.1277H196.252Z" fill="black"/>
<circle cx="204.969" cy="88.1243" r="3.49586" fill="#D9CEC6" stroke="black"/>
<circle cx="189.713" cy="88.1243" r="3.49586" fill="#D9CEC6" stroke="black"/>
<path fill-rule="evenodd" clip-rule="evenodd" d="M309.058 88.1277C309.058 91.4625 306.354 94.166 303.019 94.166C299.685 94.166 296.981 91.4625 296.981 88.1277C296.981 84.7928 299.685 82.0894 303.019 82.0894L303.041 82.0894H318.274C318.274 82.0894 318.274 82.0894 318.275 82.0894C321.609 82.09 324.312 84.7932 324.312 88.1277C324.312 91.4626 321.608 94.166 318.274 94.166C314.939 94.166 312.235 91.4626 312.235 88.1277C312.235 87.8033 312.261 87.4848 312.31 87.1743H308.983C309.032 87.4848 309.058 87.8033 309.058 88.1277Z" fill="#D8CABD"/>
<path d="M303.019 82.0894L303.02 81.5894H303.019V82.0894ZM303.041 82.0894L303.04 82.5894H303.041V82.0894ZM318.275 82.0894L318.275 81.5894L318.275 82.0894ZM312.31 87.1743L312.804 87.2526L312.896 86.6743H312.31V87.1743ZM308.983 87.1743V86.6743H308.397L308.489 87.2526L308.983 87.1743ZM303.019 94.666C306.63 94.666 309.558 91.7387 309.558 88.1277H308.558C308.558 91.1864 306.078 93.666 303.019 93.666V94.666ZM296.481 88.1277C296.481 91.7387 299.408 94.666 303.019 94.666V93.666C299.961 93.666 297.481 91.1864 297.481 88.1277H296.481ZM303.019 81.5894C299.408 81.5894 296.481 84.5167 296.481 88.1277H297.481C297.481 85.0689 299.961 82.5894 303.019 82.5894V81.5894ZM303.042 81.5894L303.02 81.5894L303.019 82.5894L303.04 82.5894L303.042 81.5894ZM318.274 81.5894H303.041V82.5894H318.274V81.5894ZM318.274 82.5894C318.274 82.5894 318.274 82.5894 318.275 82.5894L318.275 81.5894C318.274 81.5894 318.274 81.5894 318.274 81.5894V82.5894ZM318.275 82.5894C321.333 82.59 323.812 85.0693 323.812 88.1277H324.812C324.812 84.5171 321.885 81.5901 318.275 81.5894L318.275 82.5894ZM323.812 88.1277C323.812 91.1864 321.332 93.666 318.274 93.666V94.666C321.885 94.666 324.812 91.7387 324.812 88.1277H323.812ZM318.274 93.666C315.215 93.666 312.735 91.1864 312.735 88.1277H311.735C311.735 91.7387 314.663 94.666 318.274 94.666V93.666ZM312.735 88.1277C312.735 87.8296 312.759 87.5374 312.804 87.2526L311.816 87.096C311.763 87.4323 311.735 87.777 311.735 88.1277H312.735ZM308.983 87.6743H312.31V86.6743H308.983V87.6743ZM309.558 88.1277C309.558 87.7769 309.53 87.4323 309.477 87.096L308.489 87.2526C308.534 87.5373 308.558 87.8296 308.558 88.1277H309.558Z" fill="black"/>
<circle cx="318.276" cy="88.1243" r="3.49586" fill="#D9CEC6" stroke="black"/>
<circle cx="303.021" cy="88.1243" r="3.49586" fill="#D9CEC6" stroke="black"/>
<path d="M247.048 50.6543C247.748 51.5668 247.895 52.5587 247.489 53.6301C247.082 54.7014 246.276 55.4042 245.069 55.7383C244.492 55.8981 243.904 55.9043 243.303 55.7571C242.703 55.6099 242.211 55.3313 241.828 54.9212C240.436 55.5279 239.128 55.4983 237.905 54.8322C236.682 54.166 235.946 53.0836 235.699 51.5847C235.091 51.4399 234.573 51.1545 234.147 50.7286C233.721 50.3027 233.413 49.7655 233.225 49.117C232.922 48.0761 233.163 47.1013 233.947 46.1927C234.732 45.284 235.642 44.8891 236.678 45.0078L238.497 45.223C238.693 44.5971 239.031 44.038 239.512 43.5455C239.992 43.0529 240.559 42.6975 241.214 42.4794L240.827 41.1484C240.762 40.9265 240.783 40.7225 240.89 40.5363C240.996 40.3501 241.163 40.2255 241.39 40.1626C241.618 40.0996 241.827 40.1201 242.017 40.224C242.208 40.3279 242.336 40.4907 242.4 40.7126L242.847 42.2483C243.549 42.2569 244.167 42.4035 244.704 42.6883C245.24 42.9731 245.761 43.4327 246.267 44.0671L247.788 43.6458C248.015 43.5828 248.224 43.6033 248.415 43.7072C248.606 43.8111 248.733 43.974 248.798 44.1958C248.862 44.4176 248.842 44.6216 248.735 44.8079C248.629 44.994 248.462 45.1186 248.234 45.1816L246.871 45.5593C247.024 46.2174 247.021 46.8729 246.861 47.5255C246.702 48.1782 246.4 48.7503 245.957 49.2417L247.048 50.6543ZM240.722 53.07C240.588 52.6093 240.498 52.1504 240.45 51.6935C240.402 51.2366 240.397 50.7815 240.435 50.3284C240.088 50.6275 239.694 50.8796 239.252 51.0848C238.811 51.2898 238.359 51.4383 237.894 51.5301C238.088 52.1956 238.437 52.6658 238.942 52.9408C239.447 53.2158 240.041 53.2589 240.722 53.07ZM237.561 49.4097C238.12 49.2548 238.595 49.0497 238.983 48.7946C239.372 48.5394 239.848 48.1127 240.411 47.5142L236.891 47.1061C236.324 47.0417 235.893 47.1658 235.597 47.4784C235.3 47.791 235.219 48.1776 235.353 48.6383C235.482 49.082 235.725 49.3651 236.082 49.4875C236.438 49.61 236.931 49.5841 237.561 49.4097ZM244.474 53.6906C244.911 53.5696 245.222 53.3221 245.406 52.9485C245.59 52.5748 245.565 52.2452 245.331 51.9597L242.902 48.8708C242.729 49.5089 242.63 50.1264 242.605 50.7233C242.58 51.3202 242.632 51.8405 242.761 52.2842C242.925 52.8473 243.151 53.2503 243.439 53.4932C243.727 53.7362 244.072 53.802 244.474 53.6906ZM244.553 47.5288C244.678 47.3097 244.752 47.0449 244.775 46.7343C244.798 46.4237 244.765 46.1148 244.676 45.8076C244.517 45.2616 244.199 44.8516 243.723 44.5779C243.246 44.3042 242.737 44.2424 242.195 44.3925C241.881 44.4797 241.598 44.6132 241.348 44.7931C241.098 44.973 240.904 45.1834 240.767 45.4243L243.08 45.7793L244.553 47.5288Z" fill="#451D07" fill-opacity="0.5"/>
<path d="M229.407 44.1864C229.328 44.2147 229.224 44.1864 229.224 44.0735C229.145 43.7631 228.988 43.0574 229.276 42.4647C229.564 41.872 230.192 41.5616 230.479 41.4487C230.558 41.4204 230.662 41.4487 230.662 41.5616C230.767 41.872 230.898 42.5776 230.61 43.1703C230.322 43.7631 229.695 44.0735 229.407 44.1864ZM229.198 45.8234C229.59 45.4848 230.113 45.3719 230.401 45.3436C230.505 45.3436 230.584 45.4283 230.558 45.5412C230.479 45.8517 230.322 46.3597 229.93 46.6984C229.538 47.0371 229.015 47.15 228.727 47.1782C228.648 47.1782 228.596 47.1218 228.57 47.0653C228.518 47.1218 228.439 47.15 228.361 47.0935C228.099 46.9242 227.602 46.5008 227.393 45.8799C227.184 45.259 227.34 44.6098 227.445 44.3275C227.471 44.2429 227.576 44.1864 227.681 44.2429C227.942 44.4122 228.439 44.8356 228.648 45.4565C228.779 45.8517 228.779 46.2468 228.727 46.5573C228.805 46.3033 228.962 46.0492 229.198 45.8234ZM227.968 48.533C228.178 48.8717 228.256 49.295 228.256 49.6337C228.308 49.3797 228.387 49.0693 228.596 48.787C228.91 48.3636 229.381 48.1378 229.668 48.0532C229.773 48.0249 229.852 48.1096 229.852 48.1943C229.852 48.4765 229.799 49.041 229.485 49.4644C229.171 49.916 228.701 50.1136 228.413 50.1982C228.334 50.2265 228.256 50.17 228.23 50.1136C228.204 50.1982 228.125 50.2265 228.047 50.1982C227.759 50.0853 227.184 49.8031 226.844 49.2386C226.503 48.7023 226.53 48.0249 226.556 47.7145C226.556 47.6016 226.66 47.5451 226.765 47.5734C227.053 47.7145 227.628 47.9967 227.968 48.533ZM226.896 50.9038C227.184 50.9321 227.811 51.045 228.282 51.4966C228.57 51.7506 228.727 52.0893 228.831 52.3715C228.831 52.1175 228.831 51.8635 228.936 51.5812C229.119 51.0732 229.512 50.7345 229.747 50.5651C229.825 50.5087 229.956 50.5369 229.982 50.6498C230.061 50.9321 230.139 51.4683 229.956 51.9764C229.773 52.4844 229.381 52.8231 229.145 52.9924C229.093 53.0207 229.015 53.0207 228.962 52.9924C228.936 53.0489 228.884 53.0771 228.805 53.0489C228.491 53.0207 227.864 52.9078 227.419 52.4562C226.948 52.0046 226.791 51.3837 226.739 51.0732C226.713 50.9603 226.791 50.8756 226.896 50.9038ZM228.387 53.9521C228.701 53.8956 229.433 53.8674 230.008 54.2625C230.27 54.4319 230.479 54.6577 230.636 54.8835C230.532 54.6295 230.453 54.319 230.453 54.0085C230.453 53.3029 230.819 52.682 231.002 52.3997C231.055 52.3151 231.186 52.3151 231.238 52.3997C231.421 52.682 231.787 53.2747 231.787 54.0085C231.787 54.7141 231.421 55.3351 231.238 55.6173C231.186 55.702 231.055 55.702 231.002 55.6173L230.976 55.5891C230.976 55.6173 231.002 55.6455 231.002 55.6455C231.029 55.7302 230.976 55.8431 230.872 55.8431C230.558 55.8713 229.825 55.9278 229.25 55.5326C228.674 55.1657 228.361 54.4883 228.256 54.1496C228.23 54.065 228.282 53.9521 228.387 53.9521Z" fill="#451D07" fill-opacity="0.5"/>
<path d="M251.214 44.1864C251.293 44.2147 251.398 44.1864 251.398 44.0735C251.476 43.7631 251.633 43.0574 251.345 42.4647C251.057 41.872 250.43 41.5616 250.142 41.4487C250.064 41.4204 249.959 41.4487 249.959 41.5616C249.854 41.872 249.723 42.5776 250.011 43.1703C250.299 43.7631 250.927 44.0735 251.214 44.1864ZM251.424 45.8234C251.031 45.4848 250.508 45.3719 250.22 45.3436C250.116 45.3436 250.037 45.4283 250.064 45.5412C250.142 45.8517 250.299 46.3597 250.691 46.6984C251.084 47.0371 251.607 47.15 251.894 47.1782C251.973 47.1782 252.025 47.1218 252.051 47.0653C252.104 47.1218 252.182 47.15 252.261 47.0935C252.522 46.9242 253.019 46.5008 253.228 45.8799C253.438 45.259 253.281 44.6098 253.176 44.3275C253.15 44.2429 253.045 44.1864 252.941 44.2429C252.679 44.4122 252.182 44.8356 251.973 45.4565C251.842 45.8517 251.842 46.2468 251.894 46.5573C251.816 46.3033 251.659 46.0492 251.424 45.8234ZM252.653 48.533C252.444 48.8717 252.365 49.295 252.365 49.6337C252.313 49.3797 252.235 49.0693 252.025 48.787C251.711 48.3636 251.241 48.1378 250.953 48.0532C250.848 48.0249 250.77 48.1096 250.77 48.1943C250.77 48.4765 250.822 49.041 251.136 49.4644C251.45 49.916 251.921 50.1136 252.208 50.1982C252.287 50.2265 252.365 50.17 252.391 50.1136C252.418 50.1982 252.496 50.2265 252.575 50.1982C252.862 50.0853 253.438 49.8031 253.778 49.2386C254.118 48.7023 254.092 48.0249 254.066 47.7145C254.066 47.6016 253.961 47.5451 253.856 47.5734C253.569 47.7145 252.993 47.9967 252.653 48.533ZM253.725 50.9038C253.438 50.9321 252.81 51.045 252.339 51.4966C252.051 51.7506 251.894 52.0893 251.79 52.3715C251.79 52.1175 251.79 51.8635 251.685 51.5812C251.502 51.0732 251.11 50.7345 250.874 50.5651C250.796 50.5087 250.665 50.5369 250.639 50.6498C250.56 50.9321 250.482 51.4683 250.665 51.9764C250.848 52.4844 251.241 52.8231 251.476 52.9924C251.528 53.0207 251.607 53.0207 251.659 52.9924C251.685 53.0489 251.738 53.0771 251.816 53.0489C252.13 53.0207 252.758 52.9078 253.202 52.4562C253.673 52.0046 253.83 51.3837 253.882 51.0732C253.909 50.9603 253.83 50.8756 253.725 50.9038ZM252.235 53.9521C251.921 53.8956 251.188 53.8674 250.613 54.2625C250.351 54.4319 250.142 54.6577 249.985 54.8835C250.09 54.6295 250.168 54.319 250.168 54.0085C250.168 53.3029 249.802 52.682 249.619 52.3997C249.567 52.3151 249.436 52.3151 249.383 52.3997C249.2 52.682 248.834 53.2747 248.834 54.0085C248.834 54.7141 249.2 55.3351 249.383 55.6173C249.436 55.702 249.567 55.702 249.619 55.6173L249.645 55.5891C249.645 55.6173 249.619 55.6455 249.619 55.6455C249.593 55.7302 249.645 55.8431 249.75 55.8431C250.064 55.8713 250.796 55.9278 251.371 55.5326C251.947 55.1657 252.261 54.4883 252.365 54.1496C252.391 54.065 252.339 53.9521 252.235 53.9521Z" fill="#451D07" fill-opacity="0.5"/>
<rect x="118.77" y="31.9966" width="2.86219" height="36.7175" fill="#C1C1C1" stroke="black"/>
<path d="M140.098 35.6053C137.923 32.873 125.305 34.2191 119.143 33.8396V56.7041C122.261 56.0083 130.717 53.8469 136.977 58.1774C140.098 60.3363 151.984 57.6453 154.812 57.3923V36.3917C150.897 36.6763 142.273 38.3377 140.098 35.6053Z" fill="#FCBE24" stroke="black"/>
<rect x="357.763" y="31.9956" width="2.86219" height="36.7175" fill="#C1C1C1" stroke="black"/>
<circle cx="358.856" cy="31.2091" r="2.62268" fill="#C1C1C1" stroke="black"/>
<path d="M378.854 35.6782C376.615 32.832 363.626 34.2342 357.283 33.8389V57.6561C360.492 56.9313 369.197 54.6799 375.641 59.1908C378.854 61.4397 391.09 58.6365 394 58.373V36.4973C389.97 36.7938 381.093 38.5244 378.854 35.6782Z" fill="#262626" stroke="black"/>
<path d="M141.367 48.5562C142.113 49.4687 142.27 50.4606 141.836 51.5319C141.403 52.6033 140.543 53.3061 139.256 53.6402C138.64 53.7999 138.012 53.8062 137.372 53.659C136.732 53.5118 136.207 53.2331 135.798 52.8231C134.313 53.4298 132.919 53.4001 131.614 52.734C130.309 52.0679 129.525 50.9854 129.261 49.4866C128.612 49.3418 128.06 49.0564 127.605 48.6304C127.151 48.2046 126.823 47.6674 126.622 47.0189C126.299 45.978 126.556 45.0032 127.392 44.0945C128.229 43.1859 129.2 42.791 130.305 42.9097L132.246 43.1249C132.455 42.499 132.815 41.9398 133.328 41.4473C133.84 40.9547 134.445 40.5994 135.143 40.3812L134.73 39.0502C134.662 38.8284 134.684 38.6244 134.797 38.4382C134.911 38.252 135.089 38.1274 135.332 38.0644C135.574 38.0015 135.797 38.022 136 38.1258C136.204 38.2297 136.34 38.3926 136.409 38.6144L136.885 40.1502C137.634 40.1587 138.294 40.3054 138.866 40.5902C139.438 40.875 139.993 41.3346 140.533 41.969L142.156 41.5476C142.398 41.4847 142.621 41.5052 142.824 41.6091C143.028 41.7129 143.164 41.8758 143.233 42.0976C143.302 42.3195 143.279 42.5235 143.166 42.7097C143.052 42.8959 142.874 43.0205 142.632 43.0834L141.177 43.4611C141.341 44.1192 141.338 44.7747 141.167 45.4274C140.997 46.0801 140.675 46.6522 140.203 47.1435L141.367 48.5562ZM134.619 50.9719C134.476 50.5112 134.379 50.0523 134.328 49.5954C134.277 49.1384 134.272 48.6834 134.313 48.2303C133.942 48.5294 133.522 48.7815 133.051 48.9866C132.581 49.1917 132.098 49.3401 131.602 49.432C131.809 50.0975 132.181 50.5677 132.72 50.8426C133.259 51.1177 133.892 51.1607 134.619 50.9719ZM131.247 47.3116C131.844 47.1567 132.349 46.9516 132.764 46.6964C133.179 46.4413 133.686 46.0145 134.286 45.4161L130.532 45.0079C129.928 44.9435 129.468 45.0677 129.151 45.3802C128.835 45.6928 128.749 46.0795 128.892 46.5402C129.029 46.9839 129.288 47.267 129.669 47.3894C130.049 47.5119 130.575 47.4859 131.247 47.3116ZM138.621 51.5924C139.087 51.4714 139.418 51.224 139.615 50.8504C139.811 50.4767 139.784 50.1471 139.535 49.8616L136.944 46.7727C136.759 47.4107 136.654 48.0283 136.627 48.6252C136.601 49.2221 136.656 49.7423 136.794 50.186C136.968 50.7491 137.209 51.1522 137.516 51.3951C137.824 51.638 138.192 51.7038 138.621 51.5924ZM138.705 45.4307C138.838 45.2116 138.917 44.9467 138.942 44.6361C138.966 44.3255 138.931 44.0166 138.836 43.7095C138.666 43.1634 138.328 42.7535 137.82 42.4798C137.311 42.2061 136.768 42.1443 136.19 42.2944C135.854 42.3815 135.553 42.5151 135.286 42.6949C135.02 42.8748 134.813 43.0852 134.666 43.3262L137.134 43.6811L138.705 45.4307Z" fill="#451D07"/>
<path d="M374.847 52.3349C374.672 52.1549 374.52 51.956 374.392 51.7422C374.067 51.2454 373.522 50.0789 373.521 48.7963C372.372 49.4484 371.046 49.5753 370.436 49.5497C370.206 49.5493 369.977 49.5258 369.752 49.4795C370.007 50.6891 370.648 51.5721 371.673 52.1283C372.668 52.6684 373.726 52.7372 374.847 52.3349ZM378.971 47.0223C379.3 46.6171 379.532 46.1465 379.653 45.6439C379.795 45.0647 379.798 44.4831 379.661 43.8989L380.876 43.5641C380.97 43.5412 381.058 43.4999 381.134 43.4428C381.211 43.3857 381.275 43.314 381.322 43.232C381.369 43.15 381.398 43.0595 381.407 42.9662C381.417 42.8729 381.407 42.7786 381.378 42.6892C381.354 42.5982 381.312 42.5127 381.253 42.4381C381.195 42.3634 381.121 42.3012 381.037 42.2552C380.953 42.2096 380.86 42.1813 380.763 42.172C380.667 42.1627 380.57 42.1727 380.478 42.2012L379.123 42.5752C378.672 42.0122 378.208 41.6042 377.73 41.3513C377.253 41.0989 376.701 40.9688 376.076 40.9611L375.678 39.5976C375.655 39.5066 375.613 39.4212 375.554 39.3466C375.495 39.2721 375.422 39.21 375.338 39.1642C375.253 39.1186 375.16 39.0903 375.064 39.081C374.968 39.0717 374.871 39.0817 374.779 39.1102C374.685 39.1329 374.597 39.174 374.52 39.2309C374.444 39.2877 374.38 39.3592 374.333 39.441C374.286 39.523 374.256 39.6136 374.247 39.707C374.237 39.8005 374.247 39.8948 374.276 39.9844L374.621 41.1657C374.044 41.3567 373.524 41.6816 373.105 42.1121C372.766 42.4559 372.496 42.859 372.311 43.3002L376.366 43.7862L378.971 47.0223ZM370.425 43.7268C369.719 43.7294 369.043 44.0045 368.545 44.4915C368.048 44.9786 367.77 45.6378 367.773 46.324C367.776 47.0102 368.059 47.6673 368.56 48.1507C369.061 48.6341 369.739 48.9042 370.445 48.9016H370.46C371.079 48.93 372.586 48.7639 373.658 47.9208L375.787 44.3694L370.425 43.7268ZM374.227 48.2583L376.319 44.7684L379.588 48.8436C379.938 49.4394 380.031 50.1461 379.845 50.8083C379.66 51.4704 379.211 52.0338 378.598 52.3744C377.985 52.715 377.258 52.805 376.577 52.6245C375.896 52.444 375.316 52.0079 374.966 51.4121L374.958 51.3986C374.627 50.8971 374.032 49.5693 374.227 48.2583Z" fill="url(#paint0_linear_31644_402)"/>
<circle cx="119.668" cy="31.2096" r="2.62268" fill="#C1C1C1" stroke="black"/>
</g>
<defs>
<filter id="filter0_d_31644_402" x="0.691193" y="10.3677" width="430.309" height="253.132" filterUnits="userSpaceOnUse" color-interpolation-filters="sRGB">
<feFlood flood-opacity="0" result="BackgroundImageFix"/>
<feColorMatrix in="SourceAlpha" type="matrix" values="0 0 0 0 0 0 0 0 0 0 0 0 0 0 0 0 0 0 127 0" result="hardAlpha"/>
<feOffset dy="10"/>
<feComposite in2="hardAlpha" operator="out"/>
<feColorMatrix type="matrix" values="0 0 0 0 0.321569 0 0 0 0 0.239216 0 0 0 0 0.215686 0 0 0 1 0"/>
<feBlend mode="normal" in2="BackgroundImageFix" result="effect1_dropShadow_31644_402"/>
<feBlend mode="normal" in="SourceGraphic" in2="effect1_dropShadow_31644_402" result="shape"/>
</filter>
<filter id="filter1_i_31644_402" x="151.396" y="23.5806" width="177.703" height="40.9131" filterUnits="userSpaceOnUse" color-interpolation-filters="sRGB">
<feFlood flood-opacity="0" result="BackgroundImageFix"/>
<feBlend mode="normal" in="SourceGraphic" in2="BackgroundImageFix" result="shape"/>
<feColorMatrix in="SourceAlpha" type="matrix" values="0 0 0 0 0 0 0 0 0 0 0 0 0 0 0 0 0 0 127 0" result="hardAlpha"/>
<feOffset dy="4"/>
<feComposite in2="hardAlpha" operator="arithmetic" k2="-1" k3="1"/>
<feColorMatrix type="matrix" values="0 0 0 0 0 0 0 0 0 0 0 0 0 0 0 0 0 0 0.25 0"/>
<feBlend mode="normal" in2="shape" result="effect1_innerShadow_31644_402"/>
</filter>
<filter id="filter2_i_31644_402" x="174.476" y="29.875" width="131.543" height="30.4219" filterUnits="userSpaceOnUse" color-interpolation-filters="sRGB">
<feFlood flood-opacity="0" result="BackgroundImageFix"/>
<feBlend mode="normal" in="SourceGraphic" in2="BackgroundImageFix" result="shape"/>
<feColorMatrix in="SourceAlpha" type="matrix" values="0 0 0 0 0 0 0 0 0 0 0 0 0 0 0 0 0 0 127 0" result="hardAlpha"/>
<feOffset dy="4"/>
<feComposite in2="hardAlpha" operator="arithmetic" k2="-1" k3="1"/>
<feColorMatrix type="matrix" values="0 0 0 0 0 0 0 0 0 0 0 0 0 0 0 0 0 0 0.25 0"/>
<feBlend mode="normal" in2="shape" result="effect1_innerShadow_31644_402"/>
</filter>
<linearGradient id="paint0_linear_31644_402" x1="389.601" y1="45.9936" x2="360.334" y2="46.4043" gradientUnits="userSpaceOnUse">
<stop stop-color="#F8F29C"/>
<stop offset="0.165" stop-color="#F6DB2A"/>
<stop offset="0.333" stop-color="#F4A435"/>
<stop offset="0.55" stop-color="#E85A46"/>
<stop offset="0.699" stop-color="#B93483"/>
<stop offset="0.867" stop-color="#502B6E"/>
<stop offset="1" stop-color="#2A2136"/>
</linearGradient>
<clipPath id="clip0_31644_402">
<rect width="432" height="264" fill="white"/>
</clipPath>
</defs>
</svg>
