<svg width="437" height="240" viewBox="0 0 437 240" fill="none" xmlns="http://www.w3.org/2000/svg">
<g clip-path="url(#clip0_31644_510)">
<g filter="url(#filter0_d_31644_510)">
<path d="M149.803 3.82513L53.8179 61.0987C50.1307 63.2988 47.2495 66.627 45.6003 70.5913L2.43802 174.339C-2.74142 186.789 5.63179 200.692 19.0584 201.936L297.434 227.732C299.356 227.91 301.292 227.809 303.185 227.432L419.763 204.223C432.192 201.749 439.215 188.487 434.278 176.816L365.061 13.2074C361.931 5.80791 354.676 1 346.642 1H285.765H160.051C156.443 1 152.902 1.9762 149.803 3.82513Z" fill="#E7F075"/>
<path d="M149.803 3.82513L53.8179 61.0987C50.1307 63.2988 47.2495 66.627 45.6003 70.5913L2.43802 174.339C-2.74142 186.789 5.63179 200.692 19.0584 201.936L297.434 227.732C299.356 227.91 301.292 227.809 303.185 227.432L419.763 204.223C432.192 201.749 439.215 188.487 434.278 176.816L365.061 13.2074C361.931 5.80791 354.676 1 346.642 1H285.765H160.051C156.443 1 152.902 1.9762 149.803 3.82513Z" stroke="black" stroke-linecap="round"/>
</g>
<path d="M168.732 215.519L18.4392 201.856C17.8449 201.802 17.4279 201.25 17.5551 200.667C27.7408 153.966 75.9565 101.121 161.905 77.4341C276.808 45.7678 323.711 34.1016 301.304 3.13634C300.815 2.46034 301.262 1.46045 302.096 1.46045H330.061C330.298 1.46045 330.541 1.55642 330.721 1.71066C391.356 53.6076 294.393 89.9326 219.46 131.306C175.637 155.503 187.999 191.195 169.607 215.137C169.401 215.405 169.069 215.549 168.732 215.519Z" fill="#7EC3F0" stroke="black" stroke-linecap="round" stroke-linejoin="round"/>
<path d="M284.525 128.176C283.466 122.931 284.236 110.833 295.79 104.399C307.344 97.9649 319.476 99.62 324.098 101.252C326.505 103 331.261 108.875 331.03 118.385C330.811 127.424 325.582 132.219 318.898 132.922C296.945 140.075 286.835 132.739 284.525 128.176Z" fill="#D9D9D9"/>
<path d="M324.098 101.252C319.476 99.62 307.344 97.9649 295.79 104.399C284.236 110.833 283.466 122.931 284.525 128.176C286.835 132.739 296.945 140.075 318.898 132.922M324.098 101.252C326.505 103 331.261 108.875 331.03 118.385C330.811 127.424 325.582 132.219 318.898 132.922M324.098 101.252C316.01 104.748 306.478 112.791 303.589 118.385C300.7 123.98 302.722 129.924 312.255 132.372C314.539 132.959 316.791 133.144 318.898 132.922" stroke="black" stroke-linecap="round" stroke-linejoin="round"/>
<path d="M324.098 101.252C326.505 103.001 331.261 108.875 331.03 118.386C330.81 127.425 325.582 132.219 318.898 132.923C296.945 140.076 286.835 132.739 284.525 128.177C288.571 127.944 297.818 126.778 302.437 123.981C302.205 122.173 302.621 120.26 303.589 118.386C306.477 112.791 316.01 104.749 324.098 101.252Z" fill="#676767"/>
<path d="M318.898 132.923C325.582 132.219 330.81 127.425 331.03 118.386C331.261 108.875 326.505 103.001 324.098 101.252C316.01 104.749 306.477 112.791 303.589 118.386C302.621 120.26 302.205 122.173 302.437 123.981M318.898 132.923C316.791 133.144 314.539 132.959 312.255 132.373C305.915 130.745 302.897 127.57 302.437 123.981M318.898 132.923C296.945 140.076 286.835 132.739 284.525 128.177C288.571 127.944 297.818 126.778 302.437 123.981" stroke="black" stroke-linecap="round" stroke-linejoin="round"/>
<path d="M331.03 118.386C331.261 108.875 326.505 103.001 324.098 101.252C316.01 104.749 306.478 112.791 303.589 118.386C300.7 123.981 302.722 129.925 312.255 132.373C314.54 132.959 316.791 133.144 318.898 132.923C325.582 132.219 330.811 127.425 331.03 118.386Z" fill="#999999" stroke="black" stroke-linecap="round" stroke-linejoin="round"/>
<ellipse cx="57.6256" cy="15.3668" rx="57.6256" ry="15.3668" transform="matrix(-1 0 0 1 319.525 133.58)" fill="black" fill-opacity="0.2"/>
<path d="M161.789 76.7254L161.789 60.9977C146.452 39.6593 131.782 36.325 120.446 48.9947C110.443 60.1738 110.541 84.3367 111.653 97.0063L118.988 94.3391V83.0031C125.135 78.2621 143.785 73.8898 153.12 73.0007V80.3641L161.789 76.7254Z" fill="#553322" stroke="black" stroke-linecap="round" stroke-linejoin="round"/>
<path d="M290.928 138.675L301.085 144.337C276.962 62.5578 214.118 26.7008 208.404 26.0718C203.834 25.5685 203.961 28.3784 204.596 29.8462C258.934 58.5318 284.792 114.351 290.928 138.675Z" fill="#DDAA44" stroke="black" stroke-linecap="round" stroke-linejoin="round"/>
<path d="M225.135 156.354C253.408 150.486 280.925 140.128 291.15 135.682C291.15 131.636 289.645 126.287 287.642 121.012C285.158 114.467 281.906 108.034 279.814 104.342C260.609 107.009 228.246 118.345 214.465 123.68L222.522 148.352L225.135 156.354Z" fill="#C09344"/>
<path d="M287.642 121.012C285.158 114.467 281.906 108.034 279.814 104.342C260.609 107.009 228.246 118.345 214.465 123.68L222.522 148.352M287.642 121.012C289.645 126.287 291.15 131.636 291.15 135.682C280.925 140.128 253.408 150.486 225.135 156.354L222.522 148.352M287.642 121.012L266.478 125.68M222.522 148.352L240.471 145.018" stroke="black" stroke-linecap="round" stroke-linejoin="round"/>
<path d="M279.817 104.342C260.612 107.009 228.249 118.345 214.468 123.68L211.134 110.677L207.8 97.6735C249.943 90.7385 263.146 83.6702 264.48 81.0029L279.817 104.342Z" fill="#C09344"/>
<path d="M211.134 110.677L207.8 97.6735C249.943 90.7385 263.146 83.6702 264.48 81.0029L279.817 104.342C260.612 107.009 228.249 118.345 214.468 123.68L211.134 110.677ZM211.134 110.677C219.581 108.343 237.54 103.275 241.808 101.674" stroke="black" stroke-linecap="round" stroke-linejoin="round"/>
<path d="M207.798 97.6697C249.942 90.7347 263.145 83.6664 264.478 80.9991L250.475 64.3285C246.252 63.884 234.204 63.7951 219.801 66.9958C205.398 70.1966 196.907 76.3312 194.462 78.9984L198.272 84.333L207.798 97.6697Z" fill="#C09344"/>
<path d="M198.272 84.333L194.462 78.9984C196.907 76.3312 205.398 70.1966 219.801 66.9958C234.204 63.7951 246.252 63.884 250.475 64.3285L264.478 80.9991C263.145 83.6664 249.942 90.7347 207.798 97.6697L198.272 84.333ZM198.272 84.333C205.893 82.1103 222.468 77.3981 227.803 76.3311" stroke="black" stroke-linecap="round" stroke-linejoin="round"/>
<path d="M219.802 66.9972C234.206 63.7964 246.253 63.8854 250.476 64.3299L231.138 45.6587C227.359 44.7696 216.601 43.5248 203.798 45.6587C190.995 47.7925 181.126 53.2159 177.792 55.6608L183.984 64.3299L194.463 78.9998C196.908 76.3326 205.399 70.1979 219.802 66.9972Z" fill="#C09344"/>
<path d="M183.984 64.3299L177.792 55.6608C181.126 53.2159 190.995 47.7925 203.798 45.6587C216.601 43.5248 227.359 44.7696 231.138 45.6587L250.476 64.3299C246.253 63.8854 234.206 63.7964 219.802 66.9972C205.399 70.1979 196.908 76.3326 194.463 78.9998L183.984 64.3299ZM183.984 64.3299C189.922 62.3293 204.732 57.7947 216.468 55.6608" stroke="black" stroke-linecap="round" stroke-linejoin="round"/>
<path d="M203.798 45.6608C216.601 43.527 227.359 44.7717 231.138 45.6608L223.136 40.9767L203.798 29.6569C195.352 28.99 174.725 28.99 159.788 34.3246L163.727 38.9923L177.792 55.6629C181.126 53.218 190.995 47.7946 203.798 45.6608Z" fill="#C09344"/>
<path d="M223.136 40.9767L231.138 45.6608C227.359 44.7717 216.601 43.527 203.798 45.6608C190.995 47.7946 181.126 53.218 177.792 55.6629L163.727 38.9923M223.136 40.9767L203.798 29.6569C195.352 28.99 174.725 28.99 159.788 34.3246L163.727 38.9923M223.136 40.9767C220.469 40.7491 214.067 40.4304 209.8 40.9767M163.727 38.9923C168.86 37.4364 181.393 34.3246 190.462 34.3246" stroke="black" stroke-linecap="round" stroke-linejoin="round"/>
<path d="M301.581 144.337C277.454 62.2262 214.597 26.2237 208.883 25.5921C210.999 24.7499 216.756 23.5709 222.851 25.5921C230.47 28.1186 254.597 41.3825 283.803 79.2799C307.168 109.598 314.279 131.073 314.914 138.021L301.581 144.337Z" fill="#825A11" stroke="black" stroke-linecap="round" stroke-linejoin="round"/>
<path d="M160.454 58.9932C186.593 91.0007 199.352 144.347 202.464 167.019C207.265 172.353 211.577 175.02 213.133 175.687C205.131 116.34 169.123 47.6575 139.115 37.6551C109.108 27.6528 103.774 78.3313 104.441 89.6673C104.854 96.6978 109.553 97.5869 111.776 96.6978L111.776 76.9975C111.776 57.6596 127.78 18.9839 160.454 58.9932Z" fill="#DDAA44" stroke="black" stroke-linecap="round" stroke-linejoin="round"/>
<path d="M213.135 174.36C203.132 113.013 169.124 47.664 139.117 37.6617C134.572 36.1466 130.593 36.0238 127.115 36.9457C129.56 35.6285 136.584 32.7272 145.119 31.6603C155.788 30.3266 171.125 38.3285 197.131 79.0047C223.137 119.681 233.806 174.36 231.139 174.36C231.139 174.36 223.137 177.028 213.135 174.36Z" fill="#825A11" stroke="black" stroke-linecap="round" stroke-linejoin="round"/>
<ellipse cx="43.7955" cy="10.7568" rx="43.7955" ry="10.7568" transform="matrix(-0.999664 0.0259272 0.0259272 0.999664 272.814 174.017)" fill="black" fill-opacity="0.25"/>
<path d="M180.445 178.492C186.369 187.691 196.024 185.449 200.111 183.178C201.794 185.299 208.961 188.751 224.159 185.586C239.356 182.421 243.744 170.068 244.038 164.288C246.512 162.636 250.776 156.926 248.039 147.298C245.302 137.671 234.246 134.956 229.06 134.802C229.839 130.596 227.487 122.113 211.845 121.826C196.202 121.539 192.029 134.174 191.898 140.528C190.991 139.83 187.541 140.381 180.992 148.171C174.442 155.961 178.539 162.089 181.407 164.18C178.618 165.118 174.521 169.294 180.445 178.492Z" fill="#66CC9A"/>
<path d="M234.717 164.53L231.789 171.533M203.971 177.882L211.073 177.698M223.362 154.866C222.815 156.612 221.102 160.207 218.625 160.617M190.515 155.718C191.38 154.829 193.745 153.556 196.285 155.568M199.067 142.94C200.106 143.057 202.376 143.807 203.14 145.865M213.434 131.743C214.348 132.73 216.19 135.223 216.243 137.299M239.639 148.815C240.686 149.221 242.703 150.468 242.392 152.208M200.111 183.178C196.024 185.449 186.369 187.691 180.445 178.492C174.521 169.294 178.618 165.118 181.407 164.18C178.539 162.089 174.442 155.961 180.992 148.171C187.541 140.381 190.991 139.83 191.898 140.528C192.029 134.174 196.202 121.539 211.845 121.826C227.487 122.113 229.839 130.596 229.06 134.802C234.246 134.956 245.302 137.671 248.039 147.298C250.776 156.926 246.512 162.636 244.038 164.288C243.744 170.068 239.356 182.421 224.159 185.586C208.961 188.751 201.794 185.299 200.111 183.178Z" stroke="black" stroke-linecap="round"/>
<path d="M269.404 169.682C261.614 185.781 244.417 181.852 236.568 177.262C224.559 173.611 226.418 164.735 229.074 161.366C228.968 157.788 230.955 149.492 239.747 144.935C248.539 140.378 255.627 146.258 258.073 149.767C265.096 149.698 277.195 153.584 269.404 169.682Z" fill="#65C33E"/>
<path d="M244.508 152.233C244.537 153.196 244.603 155.453 244.642 156.775M252.013 154.491L251.297 158.231M259.215 160.478C259.11 161.583 258.492 163.97 256.86 164.679M236.568 177.262C244.417 181.852 261.614 185.781 269.404 169.682C277.195 153.584 265.096 149.698 258.073 149.767C255.627 146.258 248.539 140.378 239.747 144.935C230.955 149.492 228.968 157.788 229.074 161.366C226.418 164.735 224.559 173.611 236.568 177.262Z" stroke="black" stroke-linecap="round"/>
<ellipse cx="36.1121" cy="9.98845" rx="36.1121" ry="9.98845" transform="matrix(-1 0 0 1 379.457 131.646)" fill="black" fill-opacity="0.2"/>
<path d="M361.611 135.463C362.598 130.575 361.88 119.3 351.112 113.305C340.345 107.309 329.039 108.851 324.732 110.372C322.489 112.001 318.056 117.476 318.271 126.339C318.476 134.763 323.349 139.23 329.577 139.886C350.036 146.552 359.457 139.715 361.611 135.463Z" fill="#B6B6B6"/>
<path d="M324.732 110.372C329.039 108.851 340.345 107.309 351.112 113.305C361.88 119.3 362.598 130.575 361.611 135.463C359.457 139.715 350.036 146.552 329.577 139.886M324.732 110.372C322.489 112.001 318.056 117.476 318.271 126.339C318.476 134.763 323.349 139.23 329.577 139.886M324.732 110.372C332.269 113.63 341.153 121.125 343.844 126.339C346.536 131.553 344.652 137.092 335.769 139.373C333.639 139.92 331.541 140.092 329.577 139.886" stroke="black" stroke-linecap="round" stroke-linejoin="round"/>
<path d="M324.734 110.373C322.491 112.002 318.058 117.476 318.273 126.34C318.478 134.763 323.351 139.231 329.579 139.887C350.037 146.553 359.459 139.716 361.613 135.464C357.842 135.247 349.224 134.16 344.92 131.553C345.136 129.869 344.748 128.086 343.846 126.34C341.154 121.126 332.271 113.631 324.734 110.373Z" fill="#7C7C7C"/>
<path d="M329.579 139.887C323.351 139.231 318.478 134.763 318.273 126.34C318.058 117.476 322.491 112.002 324.734 110.373C332.271 113.631 341.154 121.126 343.846 126.34C344.748 128.086 345.136 129.869 344.92 131.553M329.579 139.887C331.543 140.093 333.641 139.921 335.771 139.374C341.678 137.857 344.491 134.899 344.92 131.553M329.579 139.887C350.037 146.553 359.459 139.716 361.613 135.464C357.842 135.247 349.224 134.16 344.92 131.553" stroke="black" stroke-linecap="round" stroke-linejoin="round"/>
<path d="M318.271 126.34C318.056 117.476 322.488 112.002 324.732 110.373C332.269 113.631 341.152 121.126 343.844 126.34C346.536 131.553 344.652 137.093 335.768 139.374C333.639 139.921 331.541 140.093 329.577 139.887C323.349 139.231 318.476 134.763 318.271 126.34Z" fill="#818181" stroke="black" stroke-linecap="round" stroke-linejoin="round"/>
<path d="M322.558 123.92C328.372 125.223 327.672 132.501 326.596 135.977C326.596 138.04 324.281 142.233 315.02 142.494C305.76 142.754 306.855 133.695 308.56 129.133C310.803 126.852 316.743 122.616 322.558 123.92Z" fill="#999999" stroke="black" stroke-linecap="round" stroke-linejoin="round"/>
<path d="M322.558 123.92C328.372 125.223 327.672 132.501 326.596 135.977C323.186 137.063 314.805 137.215 308.56 129.133C310.803 126.852 316.743 122.616 322.558 123.92Z" fill="#B6B6B6" stroke="black" stroke-linecap="round" stroke-linejoin="round"/>
<ellipse cx="24.7054" cy="6.79476" rx="24.7054" ry="6.79476" transform="matrix(-0.992085 0.125567 0.125567 0.992085 106.165 93.0942)" fill="black" fill-opacity="0.2"/>
<path d="M112.576 91.2973C112.942 86.3241 110.814 75.2288 99.3785 70.6325C87.9433 66.0361 76.9206 68.986 72.8387 71.0354C70.8178 72.9335 67.1076 78.9212 68.4342 87.6874C69.695 96.0186 75.0903 99.8392 81.3517 99.7074C102.485 103.752 110.974 95.786 112.576 91.2973Z" fill="#B6B6B6"/>
<path d="M72.8387 71.0354C76.9206 68.986 87.9433 66.0361 99.3785 70.6325C110.814 75.2288 112.942 86.3241 112.576 91.2973C110.974 95.786 102.485 103.752 81.3517 99.7074M72.8387 71.0354C70.8178 72.9335 67.1076 78.9212 68.4342 87.6874C69.695 96.0186 75.0903 99.8392 81.3517 99.7074M72.8387 71.0354C80.7254 73.3218 90.4795 79.6418 93.8047 84.4763C97.13 89.3108 95.9561 95.0432 87.4297 98.4216C85.3859 99.2314 83.3257 99.6658 81.3517 99.7074" stroke="black" stroke-linecap="round" stroke-linejoin="round"/>
<path d="M72.8395 71.0355C70.8186 72.9336 67.1084 78.9213 68.435 87.6875C69.6958 96.0187 75.0911 99.8393 81.3525 99.7075C102.486 103.752 110.974 95.7861 112.577 91.2974C108.809 91.5553 100.123 91.5598 95.5254 89.5141C95.5283 87.8156 94.9192 86.0956 93.8055 84.4764C90.4803 79.6419 80.7263 73.3219 72.8395 71.0355Z" fill="#7C7C7C"/>
<path d="M81.3525 99.7075C75.0911 99.8393 69.6958 96.0187 68.435 87.6875C67.1084 78.9213 70.8186 72.9336 72.8395 71.0355C80.7263 73.3219 90.4803 79.6419 93.8055 84.4764C94.9192 86.0956 95.5283 87.8156 95.5254 89.5141M81.3525 99.7075C83.3265 99.6659 85.3867 99.2315 87.4305 98.4217C93.1012 96.1748 95.5196 92.8867 95.5254 89.5141M81.3525 99.7075C102.486 103.752 110.974 95.7861 112.577 91.2974C108.809 91.5553 100.123 91.5598 95.5254 89.5141" stroke="black" stroke-linecap="round" stroke-linejoin="round"/>
<path d="M68.4361 87.6848C67.1095 78.9186 70.8196 72.9309 72.8405 71.0328C80.7273 73.3191 90.4813 79.6392 93.8066 84.4737C97.1318 89.3081 95.958 95.0405 87.4315 98.4189C85.3877 99.2287 83.3276 99.6631 81.3535 99.7047C75.0921 99.8366 69.6968 96.0159 68.4361 87.6848Z" fill="#818181" stroke="black" stroke-linecap="round" stroke-linejoin="round"/>
<path d="M72.3872 84.7533C78.3193 85.3163 78.5388 92.6241 77.907 96.2077C78.1662 98.255 76.3959 102.705 67.2419 104.127C58.0879 105.548 58.0364 96.4234 59.1549 91.6835C61.094 89.1388 66.4551 84.1903 72.3872 84.7533Z" fill="#999999" stroke="black" stroke-linecap="round" stroke-linejoin="round"/>
<path d="M72.3872 84.7533C78.3193 85.3163 78.5388 92.6241 77.907 96.2077C74.6607 97.7135 66.3654 98.9168 59.1549 91.6835C61.094 89.1388 66.4551 84.1903 72.3872 84.7533Z" fill="#B6B6B6" stroke="black" stroke-linecap="round" stroke-linejoin="round"/>
<ellipse cx="129.213" cy="186.1" rx="16.5761" ry="6.90669" fill="#62B1E4"/>
<ellipse cx="312.471" cy="57.1743" rx="10.1298" ry="4.14402" fill="#62B1E4"/>
<ellipse cx="158.682" cy="189.783" rx="8.28803" ry="3.22312" fill="#62B1E4"/>
<ellipse cx="79.0243" cy="161.696" rx="14.2738" ry="5.52535" fill="#62B1E4"/>
<ellipse cx="165.128" cy="114.73" rx="21.1805" ry="8.28803" fill="#62B1E4"/>
<path d="M153.156 131.843C153.156 136.717 102.127 144.199 83.9792 144.199C65.8317 144.199 87.4381 136.717 87.4381 131.843C87.4381 126.969 102.15 123.018 120.297 123.018C138.445 123.018 153.156 126.969 153.156 131.843Z" fill="#62B1E4"/>
</g>
<defs>
<filter id="filter0_d_31644_510" x="0.387665" y="0.5" width="435.982" height="237.817" filterUnits="userSpaceOnUse" color-interpolation-filters="sRGB">
<feFlood flood-opacity="0" result="BackgroundImageFix"/>
<feColorMatrix in="SourceAlpha" type="matrix" values="0 0 0 0 0 0 0 0 0 0 0 0 0 0 0 0 0 0 127 0" result="hardAlpha"/>
<feOffset dy="10"/>
<feComposite in2="hardAlpha" operator="out"/>
<feColorMatrix type="matrix" values="0 0 0 0 0.321569 0 0 0 0 0.239216 0 0 0 0 0.215686 0 0 0 1 0"/>
<feBlend mode="normal" in2="BackgroundImageFix" result="effect1_dropShadow_31644_510"/>
<feBlend mode="normal" in="SourceGraphic" in2="effect1_dropShadow_31644_510" result="shape"/>
</filter>
<clipPath id="clip0_31644_510">
<rect width="437" height="240" fill="white"/>
</clipPath>
</defs>
</svg>
