<svg width="628" height="322" viewBox="0 0 628 322" fill="none" xmlns="http://www.w3.org/2000/svg">
  <path d="M167.651 28.237L58.901 132.098C56.8972 134.012 55.313 136.321 54.2487 138.879L2.43848 263.41C-2.74115 275.86 5.63204 289.763 19.0588 291.007L339.942 320.74C341.802 320.913 343.676 320.824 345.511 320.476L610.736 270.226C625.596 267.411 632.075 249.756 622.562 237.997L517.867 108.579C512.308 101.708 511.919 92.0024 516.909 84.7078L540.482 50.2482C548.883 37.9677 541.411 21.1406 526.667 19.1379L395.493 1.32007C393.928 1.10744 392.343 1.08102 390.771 1.24137L179.435 22.8038C175.012 23.255 170.866 25.1668 167.651 28.237Z" fill="#EBF479" stroke="black" stroke-linecap="round"/>
  <path d="M343 145.397C407.5 145.397 427.604 180.999 461 180.999" stroke="#BBC356" stroke-width="16" stroke-linecap="round"/>
  <path d="M451.736 162.183L446.59 229.653H467.174L451.736 162.183Z" fill="#896736" stroke="black" stroke-linejoin="round"/>
  <path d="M501.48 209.07H418.923C414.4 188.38 427.594 177.46 434.756 174.587C430.61 176.023 421.638 176.023 418.923 164.529C416.209 153.035 432.176 137.611 438.584 134.738C422.002 130.163 434.756 97 449.458 97C457.484 97 484.327 126.161 463.029 132.862C466.045 132.862 479.181 134.738 487.758 156.466C491.78 166.654 485.224 172.195 479.537 171.051C494.768 180.494 500.432 201.523 501.48 209.07Z" fill="#14653C" stroke="black" stroke-linejoin="round"/>
  <path d="M486.613 181.623L482.039 242.232H502.623L486.613 181.623Z" fill="#896736" stroke="black" stroke-linejoin="round"/>
  <path d="M535.788 221.649H454.362C449.9 205.604 462.913 197.136 469.978 194.907C465.888 196.021 457.039 196.021 454.362 187.107C451.685 178.193 468.286 171.508 474.607 169.279C471.633 157.766 469.019 134.738 487.758 134.738C506.497 134.738 501.21 157.766 497.864 169.279C500.838 169.279 508.572 171.508 515.71 180.422C522.849 189.336 514.967 193.793 510.133 194.907C527.98 201.147 534.673 215.335 535.788 221.649Z" fill="#238252" stroke="black" stroke-linejoin="round"/>
  <path d="M203.423 118.846C197.854 126.498 187.705 125.076 183.256 121.838C178.807 118.6 179.715 109.772 185.284 102.12C190.853 94.4678 203.137 90.1028 207.586 93.3407C212.035 96.5785 208.992 111.194 203.423 118.846Z" fill="#BBC356"/>
  <ellipse cx="163.159" cy="103.893" rx="8.94559" ry="15.3864" transform="rotate(36.047 163.159 103.893)" fill="#BBC356"/>
  <ellipse cx="136.599" cy="96.3002" rx="8.94559" ry="15.3864" transform="rotate(36.047 136.599 96.3002)" fill="#BBC356"/>
  <path d="M318.967 164.997C316.973 190.924 447.467 197.997 424.467 242.497C401.467 286.997 330.441 294.505 230.967 268.501C131.492 242.497 205.289 109.503 258.501 57.5012C302.501 14.501 493.001 12.0004 493 57.5007C493 103.001 327.501 54.0001 318.967 164.997Z" fill="#B2E0FF" stroke="black" stroke-linecap="round"/>
  <rect x="360.529" y="87.3066" width="10.5848" height="43.5571" rx="5.29242" fill="#A05A5A" stroke="black"/>
  <rect x="218.838" y="60.5723" width="10.5848" height="39.9925" rx="5.29242" fill="#A05A5A" stroke="black"/>
  <path d="M188.691 111.15C188.544 111.12 188.391 111.157 188.274 111.252C188.158 111.347 188.09 111.489 188.09 111.64V119.503C188.09 119.74 188.256 119.945 188.489 119.993L331.016 149.481C331.164 149.512 331.317 149.474 331.433 149.379C331.55 149.285 331.618 149.142 331.618 148.992V141.128C331.618 140.891 331.451 140.687 331.219 140.639L188.691 111.15Z" fill="#BA6966" stroke="black" stroke-linejoin="round"/>
  <path d="M367.495 102.301C367.495 102.095 367.369 101.911 367.177 101.836C366.985 101.761 366.767 101.811 366.628 101.962L330.75 140.788C330.665 140.881 330.617 141.002 330.617 141.128V148.991C330.617 149.197 330.743 149.382 330.935 149.457C331.127 149.532 331.345 149.482 331.484 149.331L367.362 110.504C367.447 110.412 367.495 110.291 367.495 110.165V102.301Z" fill="#BA6966" stroke="black" stroke-linejoin="round"/>
  <mask id="path-15-outside-1_22057_76" maskUnits="userSpaceOnUse" x="316.83" y="96.8604" width="51" height="45" fill="black">
    <rect fill="white" x="316.83" y="96.8604" width="51" height="45"/>
    <path d="M366.503 101.318L330.625 140.144L318.83 137.687L354.708 98.8604L366.503 101.318Z"/>
  </mask>
  <path d="M366.503 101.318L330.625 140.144L318.83 137.687L354.708 98.8604L366.503 101.318Z" fill="#CBA2A0"/>
  <path d="M366.503 101.318L367.238 101.996C367.482 101.732 367.565 101.356 367.456 101.013C367.346 100.67 367.06 100.412 366.707 100.339L366.503 101.318ZM330.625 140.144L330.422 141.123C330.765 141.195 331.122 141.081 331.36 140.823L330.625 140.144ZM318.83 137.687L318.096 137.008L316.897 138.306L318.626 138.666L318.83 137.687ZM354.708 98.8604L354.912 97.8814L354.358 97.7659L353.973 98.1817L354.708 98.8604ZM365.769 100.639L329.891 139.466L331.36 140.823L367.238 101.996L365.769 100.639ZM330.829 139.165L319.034 136.708L318.626 138.666L330.422 141.123L330.829 139.165ZM319.565 138.366L355.442 99.539L353.973 98.1817L318.096 137.008L319.565 138.366ZM354.504 99.8393L366.299 102.297L366.707 100.339L354.912 97.8814L354.504 99.8393Z" fill="black" mask="url(#path-15-outside-1_22057_76)"/>
  <mask id="path-17-outside-2_22057_76" maskUnits="userSpaceOnUse" x="303.561" y="94.4033" width="51" height="45" fill="black">
    <rect fill="white" x="303.561" y="94.4033" width="51" height="45"/>
    <path d="M353.234 98.8607L317.356 137.687L305.561 135.23L341.438 96.4033L353.234 98.8607Z"/>
  </mask>
  <path d="M353.234 98.8607L317.356 137.687L305.561 135.23L341.438 96.4033L353.234 98.8607Z" fill="#CBA2A0"/>
  <path d="M353.234 98.8607L353.968 99.5394C354.213 99.2747 354.296 98.899 354.186 98.5559C354.076 98.2127 353.79 97.9552 353.438 97.8817L353.234 98.8607ZM317.356 137.687L317.152 138.666C317.496 138.738 317.852 138.624 318.09 138.366L317.356 137.687ZM305.561 135.23L304.826 134.551L303.627 135.849L305.357 136.209L305.561 135.23ZM341.438 96.4033L341.642 95.4243L341.088 95.3089L340.704 95.7247L341.438 96.4033ZM352.499 98.182L316.622 137.009L318.09 138.366L353.968 99.5394L352.499 98.182ZM317.56 136.708L305.765 134.251L305.357 136.209L317.152 138.666L317.56 136.708ZM306.295 135.909L342.173 97.082L340.704 95.7247L304.826 134.551L306.295 135.909ZM341.234 97.3823L353.03 99.8397L353.438 97.8817L341.642 95.4243L341.234 97.3823Z" fill="black" mask="url(#path-17-outside-2_22057_76)"/>
  <mask id="path-19-outside-3_22057_76" maskUnits="userSpaceOnUse" x="290.291" y="91.9463" width="51" height="45" fill="black">
    <rect fill="white" x="290.291" y="91.9463" width="51" height="45"/>
    <path d="M339.964 96.4037L304.086 135.23L292.291 132.773L328.169 93.9463L339.964 96.4037Z"/>
  </mask>
  <path d="M339.964 96.4037L304.086 135.23L292.291 132.773L328.169 93.9463L339.964 96.4037Z" fill="#CBA2A0"/>
  <path d="M339.964 96.4037L340.699 97.0823C340.943 96.8177 341.026 96.442 340.917 96.0989C340.807 95.7557 340.521 95.4982 340.168 95.4247L339.964 96.4037ZM304.086 135.23L303.882 136.209C304.226 136.281 304.583 136.167 304.821 135.909L304.086 135.23ZM292.291 132.773L291.557 132.094L290.358 133.392L292.087 133.752L292.291 132.773ZM328.169 93.9463L328.373 92.9673L327.818 92.8518L327.434 93.2676L328.169 93.9463ZM339.23 95.725L303.352 134.552L304.821 135.909L340.699 97.0823L339.23 95.725ZM304.29 134.251L292.495 131.794L292.087 133.752L303.882 136.209L304.29 134.251ZM293.025 133.451L328.903 94.625L327.434 93.2676L291.557 132.094L293.025 133.451ZM327.965 94.9253L339.76 97.3826L340.168 95.4247L328.373 92.9673L327.965 94.9253Z" fill="black" mask="url(#path-19-outside-3_22057_76)"/>
  <mask id="path-21-outside-4_22057_76" maskUnits="userSpaceOnUse" x="277.02" y="89.4883" width="51" height="45" fill="black">
    <rect fill="white" x="277.02" y="89.4883" width="51" height="45"/>
    <path d="M326.693 93.9457L290.815 132.772L279.02 130.315L314.897 91.4883L326.693 93.9457Z"/>
  </mask>
  <path d="M326.693 93.9457L290.815 132.772L279.02 130.315L314.897 91.4883L326.693 93.9457Z" fill="#CBA2A0"/>
  <path d="M326.693 93.9457L327.427 94.6243C327.672 94.3597 327.755 93.984 327.645 93.6409C327.535 93.2977 327.249 93.0402 326.897 92.9667L326.693 93.9457ZM290.815 132.772L290.611 133.751C290.955 133.823 291.311 133.709 291.549 133.451L290.815 132.772ZM279.02 130.315L278.285 129.636L277.086 130.934L278.816 131.294L279.02 130.315ZM314.897 91.4883L315.101 90.5093L314.547 90.3938L314.163 90.8096L314.897 91.4883ZM325.958 93.267L290.08 132.094L291.549 133.451L327.427 94.6243L325.958 93.267ZM291.019 131.793L279.223 129.336L278.816 131.294L290.611 133.751L291.019 131.793ZM279.754 130.993L315.632 92.1669L314.163 90.8096L278.285 129.636L279.754 130.993ZM314.693 92.4673L326.489 94.9246L326.897 92.9667L315.101 90.5093L314.693 92.4673Z" fill="black" mask="url(#path-21-outside-4_22057_76)"/>
  <mask id="path-23-outside-5_22057_76" maskUnits="userSpaceOnUse" x="263.75" y="87.0317" width="51" height="45" fill="black">
    <rect fill="white" x="263.75" y="87.0317" width="51" height="45"/>
    <path d="M313.423 91.4891L277.545 130.316L265.75 127.858L301.628 89.0317L313.423 91.4891Z"/>
  </mask>
  <path d="M313.423 91.4891L277.545 130.316L265.75 127.858L301.628 89.0317L313.423 91.4891Z" fill="#CBA2A0"/>
  <path d="M313.423 91.4891L314.158 92.1678C314.402 91.9032 314.485 91.5275 314.375 91.1843C314.266 90.8412 313.98 90.5836 313.627 90.5101L313.423 91.4891ZM277.545 130.316L277.341 131.295C277.685 131.366 278.041 131.252 278.28 130.994L277.545 130.316ZM265.75 127.858L265.016 127.18L263.817 128.477L265.546 128.837L265.75 127.858ZM301.628 89.0317L301.832 88.0528L301.277 87.9373L300.893 88.3531L301.628 89.0317ZM312.689 90.8104L276.811 129.637L278.28 130.994L314.158 92.1678L312.689 90.8104ZM277.749 129.337L265.954 126.879L265.546 128.837L277.341 131.295L277.749 129.337ZM266.484 128.537L302.362 89.7104L300.893 88.3531L265.016 127.18L266.484 128.537ZM301.424 90.0107L313.219 92.4681L313.627 90.5101L301.832 88.0528L301.424 90.0107Z" fill="black" mask="url(#path-23-outside-5_22057_76)"/>
  <mask id="path-25-outside-6_22057_76" maskUnits="userSpaceOnUse" x="250.48" y="84.5737" width="51" height="45" fill="black">
    <rect fill="white" x="250.48" y="84.5737" width="51" height="45"/>
    <path d="M300.154 89.0311L264.276 127.858L252.48 125.4L288.358 86.5737L300.154 89.0311Z"/>
  </mask>
  <path d="M300.154 89.0311L264.276 127.858L252.48 125.4L288.358 86.5737L300.154 89.0311Z" fill="#CBA2A0"/>
  <path d="M300.154 89.0311L300.888 89.7098C301.133 89.4452 301.216 89.0695 301.106 88.7263C300.996 88.3832 300.71 88.1256 300.358 88.0521L300.154 89.0311ZM264.276 127.858L264.072 128.837C264.416 128.908 264.772 128.794 265.01 128.536L264.276 127.858ZM252.48 125.4L251.746 124.722L250.547 126.019L252.277 126.379L252.48 125.4ZM288.358 86.5737L288.562 85.5948L288.008 85.4793L287.624 85.8951L288.358 86.5737ZM299.419 88.3524L263.541 127.179L265.01 128.536L300.888 89.7098L299.419 88.3524ZM264.48 126.879L252.684 124.421L252.277 126.379L264.072 128.837L264.48 126.879ZM253.215 126.079L289.093 87.2524L287.624 85.8951L251.746 124.722L253.215 126.079ZM288.154 87.5527L299.95 90.0101L300.358 88.0521L288.562 85.5948L288.154 87.5527Z" fill="black" mask="url(#path-25-outside-6_22057_76)"/>
  <mask id="path-27-outside-7_22057_76" maskUnits="userSpaceOnUse" x="237.211" y="82.1167" width="51" height="45" fill="black">
    <rect fill="white" x="237.211" y="82.1167" width="51" height="45"/>
    <path d="M286.884 86.5741L251.006 125.401L239.211 122.943L275.089 84.1167L286.884 86.5741Z"/>
  </mask>
  <path d="M286.884 86.5741L251.006 125.401L239.211 122.943L275.089 84.1167L286.884 86.5741Z" fill="#CBA2A0"/>
  <path d="M286.884 86.5741L287.618 87.2527C287.863 86.9881 287.946 86.6124 287.836 86.2693C287.727 85.9261 287.441 85.6686 287.088 85.5951L286.884 86.5741ZM251.006 125.401L250.802 126.38C251.146 126.451 251.502 126.337 251.741 126.079L251.006 125.401ZM239.211 122.943L238.476 122.265L237.278 123.562L239.007 123.922L239.211 122.943ZM275.089 84.1167L275.293 83.1377L274.738 83.0223L274.354 83.438L275.089 84.1167ZM286.15 85.8954L250.272 124.722L251.741 126.079L287.618 87.2527L286.15 85.8954ZM251.21 124.422L239.415 121.964L239.007 123.922L250.802 126.38L251.21 124.422ZM239.945 123.622L275.823 84.7954L274.354 83.438L238.476 122.265L239.945 123.622ZM274.885 85.0957L286.68 87.5531L287.088 85.5951L275.293 83.1377L274.885 85.0957Z" fill="black" mask="url(#path-27-outside-7_22057_76)"/>
  <mask id="path-29-outside-8_22057_76" maskUnits="userSpaceOnUse" x="223.941" y="79.6587" width="51" height="45" fill="black">
    <rect fill="white" x="223.941" y="79.6587" width="51" height="45"/>
    <path d="M273.614 84.1161L237.737 122.943L225.941 120.485L261.819 81.6587L273.614 84.1161Z"/>
  </mask>
  <path d="M273.614 84.1161L237.737 122.943L225.941 120.485L261.819 81.6587L273.614 84.1161Z" fill="#CBA2A0"/>
  <path d="M273.614 84.1161L274.349 84.7947C274.593 84.5301 274.677 84.1544 274.567 83.8113C274.457 83.4681 274.171 83.2106 273.818 83.1371L273.614 84.1161ZM237.737 122.943L237.533 123.922C237.877 123.993 238.233 123.879 238.471 123.621L237.737 122.943ZM225.941 120.485L225.207 119.807L224.008 121.104L225.737 121.464L225.941 120.485ZM261.819 81.6587L262.023 80.6797L261.469 80.5643L261.085 80.98L261.819 81.6587ZM272.88 83.4374L237.002 122.264L238.471 123.621L274.349 84.7947L272.88 83.4374ZM237.941 121.964L226.145 119.506L225.737 121.464L237.533 123.922L237.941 121.964ZM226.676 121.164L262.554 82.3374L261.085 80.98L225.207 119.807L226.676 121.164ZM261.615 82.6377L273.411 85.095L273.818 83.1371L262.023 80.6797L261.615 82.6377Z" fill="black" mask="url(#path-29-outside-8_22057_76)"/>
  <mask id="path-31-outside-9_22057_76" maskUnits="userSpaceOnUse" x="210.672" y="77.2021" width="51" height="45" fill="black">
    <rect fill="white" x="210.672" y="77.2021" width="51" height="45"/>
    <path d="M260.345 81.6595L224.467 120.486L212.672 118.029L248.55 79.2021L260.345 81.6595Z"/>
  </mask>
  <path d="M260.345 81.6595L224.467 120.486L212.672 118.029L248.55 79.2021L260.345 81.6595Z" fill="#CBA2A0"/>
  <path d="M260.345 81.6595L261.079 82.3382C261.324 82.0736 261.407 81.6979 261.297 81.3547C261.188 81.0116 260.902 80.754 260.549 80.6805L260.345 81.6595ZM224.467 120.486L224.263 121.465C224.607 121.537 224.963 121.423 225.202 121.165L224.467 120.486ZM212.672 118.029L211.937 117.35L210.739 118.647L212.468 119.008L212.672 118.029ZM248.55 79.2021L248.754 78.2232L248.199 78.1077L247.815 78.5235L248.55 79.2021ZM259.611 80.9809L223.733 119.807L225.202 121.165L261.079 82.3382L259.611 80.9809ZM224.671 119.507L212.876 117.05L212.468 119.008L224.263 121.465L224.671 119.507ZM213.406 118.707L249.284 79.8808L247.815 78.5235L211.937 117.35L213.406 118.707ZM248.346 80.1811L260.141 82.6385L260.549 80.6805L248.754 78.2232L248.346 80.1811Z" fill="black" mask="url(#path-31-outside-9_22057_76)"/>
  <mask id="path-33-outside-10_22057_76" maskUnits="userSpaceOnUse" x="197.402" y="74.7451" width="51" height="45" fill="black">
    <rect fill="white" x="197.402" y="74.7451" width="51" height="45"/>
    <path d="M247.075 79.2025L211.198 118.029L199.402 115.572L235.28 76.7451L247.075 79.2025Z"/>
  </mask>
  <path d="M247.075 79.2025L211.198 118.029L199.402 115.572L235.28 76.7451L247.075 79.2025Z" fill="#CBA2A0"/>
  <path d="M247.075 79.2025L247.81 79.8812C248.054 79.6165 248.138 79.2408 248.028 78.8977C247.918 78.5545 247.632 78.297 247.279 78.2235L247.075 79.2025ZM211.198 118.029L210.994 119.008C211.338 119.08 211.694 118.966 211.932 118.708L211.198 118.029ZM199.402 115.572L198.668 114.893L197.469 116.19L199.198 116.551L199.402 115.572ZM235.28 76.7451L235.484 75.7661L234.93 75.6507L234.546 76.0665L235.28 76.7451ZM246.341 78.5238L210.463 117.35L211.932 118.708L247.81 79.8812L246.341 78.5238ZM211.402 117.05L199.606 114.593L199.198 116.551L210.994 119.008L211.402 117.05ZM200.137 116.25L236.014 77.4238L234.546 76.0665L198.668 114.893L200.137 116.25ZM235.076 77.7241L246.871 80.1815L247.279 78.2235L235.484 75.7661L235.076 77.7241Z" fill="black" mask="url(#path-33-outside-10_22057_76)"/>
  <mask id="path-35-outside-11_22057_76" maskUnits="userSpaceOnUse" x="184.623" y="71.7949" width="51" height="45" fill="black">
    <rect fill="white" x="184.623" y="71.7949" width="51" height="45"/>
    <path d="M234.296 76.2523L198.418 115.079L186.623 112.621L222.501 73.7949L234.296 76.2523Z"/>
  </mask>
  <path d="M234.296 76.2523L198.418 115.079L186.623 112.621L222.501 73.7949L234.296 76.2523Z" fill="#CBA2A0"/>
  <path d="M234.296 76.2523L235.031 76.931C235.275 76.6663 235.358 76.2906 235.249 75.9475C235.139 75.6043 234.853 75.3468 234.5 75.2733L234.296 76.2523ZM198.418 115.079L198.214 116.058C198.558 116.129 198.915 116.015 199.153 115.757L198.418 115.079ZM186.623 112.621L185.889 111.943L184.69 113.24L186.419 113.6L186.623 112.621ZM222.501 73.7949L222.705 72.8159L222.15 72.7005L221.766 73.1163L222.501 73.7949ZM233.562 75.5736L197.684 114.4L199.153 115.757L235.031 76.931L233.562 75.5736ZM198.622 114.1L186.827 111.642L186.419 113.6L198.214 116.058L198.622 114.1ZM187.357 113.3L223.235 74.4736L221.766 73.1163L185.889 111.943L187.357 113.3ZM222.297 74.7739L234.092 77.2313L234.5 75.2733L222.705 72.8159L222.297 74.7739Z" fill="black" mask="url(#path-35-outside-11_22057_76)"/>
  <rect x="183.191" y="101.565" width="10.5848" height="40.8837" rx="5.29242" fill="#A05A5A" stroke="black"/>
  <rect x="328.447" y="128.299" width="10.5848" height="39.1014" rx="5.29242" fill="#A05A5A" stroke="black"/>
  <path d="M343.547 161.178C338.002 162.421 338.669 169.362 339.696 172.677C339.696 174.645 341.904 178.643 350.736 178.892C359.567 179.141 358.523 170.501 356.897 166.15C354.758 163.975 349.093 159.935 343.547 161.178Z" fill="#999999" stroke="black" stroke-linecap="round" stroke-linejoin="round"/>
  <path d="M343.547 161.178C338.002 162.421 338.669 169.362 339.696 172.677C342.948 173.713 350.941 173.858 356.897 166.15C354.758 163.975 349.093 159.935 343.547 161.178Z" fill="#D9D9D9" stroke="black" stroke-linecap="round" stroke-linejoin="round"/>
  <path d="M354.197 176.243C353.255 171.582 353.94 160.829 364.209 155.11C374.478 149.392 385.261 150.863 389.369 152.313C391.508 153.867 395.736 159.088 395.53 167.542C395.335 175.575 390.688 179.836 384.748 180.461C365.236 186.819 356.251 180.298 354.197 176.243Z" fill="#D9D9D9"/>
  <path d="M389.369 152.313C385.261 150.863 374.478 149.392 364.209 155.11C353.94 160.829 353.255 171.582 354.197 176.243C356.251 180.298 365.236 186.819 384.748 180.461M389.369 152.313C391.508 153.867 395.736 159.088 395.53 167.542C395.335 175.575 390.688 179.836 384.748 180.461M389.369 152.313C382.18 155.421 373.708 162.569 371.141 167.542C368.574 172.514 370.371 177.797 378.843 179.973C380.874 180.494 382.875 180.658 384.748 180.461" stroke="black" stroke-linecap="round" stroke-linejoin="round"/>
  <path d="M389.369 152.313C391.508 153.867 395.736 159.088 395.531 167.542C395.335 175.575 390.688 179.836 384.748 180.461C365.237 186.819 356.251 180.298 354.197 176.243C357.793 176.036 366.012 175 370.117 172.514C369.911 170.907 370.281 169.207 371.141 167.542C373.709 162.569 382.181 155.421 389.369 152.313Z" fill="#676767"/>
  <path d="M384.748 180.461C390.688 179.836 395.335 175.575 395.531 167.542C395.736 159.088 391.508 153.867 389.369 152.313C382.181 155.421 373.709 162.569 371.141 167.542C370.281 169.207 369.911 170.907 370.117 172.514M384.748 180.461C382.875 180.658 380.874 180.494 378.843 179.973C373.209 178.526 370.527 175.704 370.117 172.514M384.748 180.461C365.237 186.819 356.251 180.298 354.197 176.243C357.793 176.036 366.012 175 370.117 172.514" stroke="black" stroke-linecap="round" stroke-linejoin="round"/>
  <path d="M395.53 167.542C395.735 159.088 391.508 153.867 389.368 152.313C382.18 155.421 373.708 162.569 371.14 167.542C368.573 172.514 370.37 177.797 378.842 179.973C380.873 180.494 382.874 180.658 384.747 180.461C390.687 179.836 395.334 175.575 395.53 167.542Z" fill="#999999" stroke="black" stroke-linecap="round" stroke-linejoin="round"/>
  <path d="M404 237.5C404 250.479 363.706 261 314.001 261C264.295 261 230.5 251 224 237.5C217.501 224 248 163 281 187C314 211 404 224.521 404 237.5Z" fill="#7BCAFF"/>
  <ellipse cx="438.5" cy="56.5" rx="38.5" ry="11.5" fill="#7BCAFF"/>
  <path d="M378 237.5C378 246.06 354.047 253 324.5 253C294.953 253 254.5 250 245 237.5C235.5 225 245.953 215 275.5 215C305.047 215 378 228.94 378 237.5Z" fill="#44B4FF"/>
  <ellipse cx="438.5" cy="56.5" rx="25.5" ry="7.5" fill="#44B4FF"/>
  <ellipse cx="163.5" cy="276.61" rx="57.5" ry="13.5" fill="#BBC356"/>
  <ellipse cx="99.5" cy="249.11" rx="62.5" ry="14" fill="#BBC356"/>
  <path d="M129.563 142.5C109.497 142.5 96.3936 158.152 88.1213 178.064C79.8392 198 76.3099 222.396 75.4718 240.305C75.2939 244.107 77.3065 247.678 80.7009 249.421C120.175 269.695 158.68 259.289 177.312 249.34C180.478 247.65 182.264 244.3 182.16 240.742C181.638 222.866 178.523 198.363 170.556 178.31C162.599 158.282 149.713 142.5 129.563 142.5Z" fill="#3AA75D" stroke="black" stroke-linecap="round"/>
  <path d="M129.563 143C113.314 143 101.648 153.42 93.4277 168.176C92.3393 173.907 94.1026 185.861 109.863 187.826C125.623 189.791 134.532 180.048 137.017 174.931C141.906 183.528 156.023 198.142 173.369 187.826C165.853 163.565 152.388 143 129.563 143Z" fill="#1D773A"/>
  <path d="M181.741 246.161C181.741 211.774 171.305 143 129.562 143C158.527 166.58 160.443 229.913 156.716 256.79C167.48 253.896 176.166 249.786 181.741 246.161Z" fill="#9EFFBD" fill-opacity="0.58"/>
  <path d="M178.886 206.623C163.068 206.623 152.563 217.029 145.814 230.494C139.067 243.957 136.012 260.58 135.108 273.292C134.821 277.331 137.095 281.107 140.828 282.69C171.284 295.609 200.797 289.276 216.127 282.616C219.641 281.09 221.693 277.533 221.504 273.734C220.87 261.039 218.151 244.307 211.649 230.731C205.146 217.152 194.797 206.623 178.886 206.623Z" fill="#3AA75D" stroke="black" stroke-linecap="round"/>
  <path d="M178.885 207.123C165.723 207.123 156.272 214.442 149.613 224.807C148.731 228.833 150.16 237.229 162.927 238.609C175.694 239.99 182.911 233.146 184.924 229.552C188.885 235.59 200.321 245.856 214.373 238.609C208.284 221.568 197.376 207.123 178.885 207.123Z" fill="#1D773A"/>
  <path d="M221.004 273.759C219.74 248.441 210.158 207.123 178.885 207.123C202.349 223.686 203.901 268.172 200.882 287.05C206.737 285.685 211.833 283.936 215.916 282.162C219.227 280.725 221.183 277.363 221.004 273.759Z" fill="#9EFFBD" fill-opacity="0.58"/>
</svg>
