<svg width="317" height="351" viewBox="0 0 317 351" fill="none" xmlns="http://www.w3.org/2000/svg">
<g clip-path="url(#clip0_31643_276)">
<g filter="url(#filter0_d_31643_276)">
<path d="M187.878 204.251L172.999 21.8737C172.152 11.4931 163.48 3.5 153.065 3.5H150.938C149.319 3.5 147.705 3.69663 146.134 4.08559L16.1958 36.2397C7.26978 38.4485 1 46.4589 1 55.6541V250.54C1 254.429 2.13387 258.233 4.26282 261.488L39.079 314.713C42.4951 319.935 48.153 323.264 54.3771 323.713L278.473 339.88C287.604 340.539 296.017 334.913 298.897 326.223L315.464 276.224C319.033 265.455 312.938 253.877 302.04 250.722L202.251 221.836C194.274 219.527 188.554 212.528 187.878 204.251Z" fill="#FAED8C"/>
<path d="M187.878 204.251L172.999 21.8737C172.152 11.4931 163.48 3.5 153.065 3.5H150.938C149.319 3.5 147.705 3.69663 146.134 4.08559L16.1958 36.2397C7.26978 38.4485 1 46.4589 1 55.6541V250.54C1 254.429 2.13387 258.233 4.26282 261.488L39.079 314.713C42.4951 319.935 48.153 323.264 54.3771 323.713L278.473 339.88C287.604 340.539 296.017 334.913 298.897 326.223L315.464 276.224C319.033 265.455 312.938 253.877 302.04 250.722L202.251 221.836C194.274 219.527 188.554 212.528 187.878 204.251Z" stroke="black" stroke-linecap="round"/>
</g>
<path d="M56.1008 12.5C39.8814 12.5 29.1196 23.1904 22.2127 37.0124C15.3066 50.8328 12.1925 67.8876 11.2819 80.8959C10.9992 84.9346 13.2735 88.7082 17.0036 90.2973C48.3144 103.636 78.6736 97.0723 94.3527 90.2244C97.8628 88.6914 99.9145 85.1352 99.7289 81.3367C99.0942 68.3467 96.3237 51.1835 89.6699 37.2494C83.0149 23.313 72.4133 12.5 56.1008 12.5Z" fill="#A7723A" stroke="black" stroke-linecap="round"/>
<path d="M56.1007 13C42.6248 13 32.9491 20.4935 26.1309 31.1053C25.2283 35.2268 26.6907 43.8231 39.7618 45.2362C52.833 46.6493 60.2223 39.6427 62.283 35.9628C66.3386 42.1451 78.0465 52.655 92.4332 45.2362C86.1996 27.7889 75.0322 13 56.1007 13Z" fill="#77491D"/>
<path d="M99.2293 81.3611C97.9635 55.4527 88.1758 13 56.1006 13C80.1232 29.9571 81.7129 75.5025 78.6218 94.8308C84.6771 93.4192 89.9394 91.6054 94.1414 89.771C97.4491 88.327 99.4055 84.966 99.2293 81.3611Z" fill="#FFEA9E" fill-opacity="0.58"/>
<ellipse cx="140.409" cy="81.6436" rx="13.4182" ry="3.35455" fill="black" fill-opacity="0.25"/>
<ellipse cx="60.9182" cy="217.355" rx="13.4182" ry="3.35455" fill="black" fill-opacity="0.25"/>
<path d="M147.937 4.70703L144.523 82.0179H150.62L147.937 4.70703Z" fill="#896736" stroke="black"/>
<path d="M142.572 19.584C137.247 23.1341 132.004 23.161 129.89 22.5106C137.679 21.3708 145.077 9.16899 148.425 3C149.387 15.4868 157.681 20.7222 161.351 21.5351C155.107 21.5351 149.807 16.9826 147.937 14.7064C147.937 14.7064 146.23 17.1452 142.572 19.584Z" fill="#14653C" stroke="black"/>
<path d="M142.572 30.0706C136.475 33.7289 127.614 34.3792 125.5 33.7289C136.719 32.5608 144.589 24.0455 147.937 17.8765C148.899 30.3633 160.863 32.2656 164.765 32.9972C152.327 33.9727 149.807 27.4692 147.937 25.193C147.937 25.193 146.342 27.8085 142.572 30.0706Z" fill="#14653C" stroke="black"/>
<path d="M142.572 38.8509C136.475 42.5091 127.614 43.1595 125.5 42.5091C136.719 41.341 144.589 32.8257 147.937 26.6567C148.899 39.1435 160.619 39.3387 164.521 40.0703C152.083 41.0458 149.807 36.2495 147.937 33.9732C147.937 33.9732 146.342 36.5888 142.572 38.8509Z" fill="#14653C" stroke="black"/>
<path d="M132.085 48.3625C140.084 48.3625 146.474 42.0216 148.669 38.8511C148.669 40.2331 147.84 43.7775 144.523 46.8992C141.206 50.0209 134.849 49.1755 132.085 48.3625Z" fill="#14653C" stroke="black"/>
<path d="M158.912 47.3867C154.62 47.3867 150.295 43.9723 148.669 42.2651C147.531 43.5658 146.084 46.4111 149.401 47.3867C152.717 48.3622 157.123 47.7932 158.912 47.3867Z" fill="#14653C" stroke="black"/>
<path d="M139.889 53.0659C143.331 53.0659 146.798 50.4178 148.102 49.0938C149.015 50.1025 150.175 52.3093 147.515 53.0659C144.856 53.8225 141.323 53.3811 139.889 53.0659Z" fill="#14653C" stroke="black"/>
<path d="M106.391 56.5C95.8188 56.5 88.5607 62.1058 83.7272 69.6167C78.9045 77.111 76.4718 86.5292 75.5059 94.2846C74.9738 98.5572 77.5433 102.558 81.6302 103.896C101.11 110.272 119.773 107.416 130.695 103.819C134.568 102.543 136.937 98.7716 136.542 94.7283C135.784 86.9631 133.585 77.4358 128.92 69.8338C124.243 62.2135 117.063 56.5 106.391 56.5Z" fill="#77491D" stroke="black" stroke-linecap="round"/>
<path d="M106.391 57C97.0571 57 90.3557 61.4482 85.6335 67.7474C85.0083 70.194 85.7179 86.0462 94.771 86.8851C103.824 87.7239 109.245 72.8153 110.672 70.6309C116.421 83.1065 126.175 83.1065 131.554 76.1356C127.237 65.7788 119.503 57 106.391 57Z" fill="#A7723A"/>
<path d="M136.044 94.7769C134.536 79.3286 127.302 57 106.391 57C123.029 67.0659 124.13 94.1019 121.989 105.575C125.183 104.937 128.059 104.16 130.535 103.345C134.179 102.145 136.417 98.5952 136.044 94.7769Z" fill="#FFEA9E" fill-opacity="0.58"/>
<path d="M66.2142 114.615L61.6925 217H69.767L66.2142 114.615Z" fill="#896736" stroke="black"/>
<path d="M59.1088 134.317C52.0566 139.018 45.1129 139.054 42.3137 138.193C52.6287 136.683 62.426 120.524 66.8603 112.354C68.1341 128.891 79.1185 135.824 83.9783 136.901C75.71 136.901 68.6905 130.872 66.2143 127.857C66.2143 127.857 63.9535 131.087 59.1088 134.317Z" fill="#14653C" stroke="black"/>
<path d="M59.1087 148.205C51.0342 153.049 39.2992 153.911 36.5 153.049C51.3571 151.503 61.78 140.225 66.2143 132.056C67.4881 148.592 83.3323 151.112 88.5 152.081C72.028 153.372 68.6905 144.76 66.2143 141.745C66.2143 141.745 64.1016 145.209 59.1087 148.205Z" fill="#14653C" stroke="black"/>
<path d="M59.1087 159.832C51.0342 164.677 39.2992 165.538 36.5 164.677C51.3571 163.13 61.78 151.853 66.2143 143.683C67.4881 160.22 83.0093 160.478 88.177 161.447C71.705 162.739 68.6905 156.387 66.2143 153.373C66.2143 153.373 64.1016 156.836 59.1087 159.832Z" fill="#14653C" stroke="black"/>
<path d="M45.2205 172.429C55.8142 172.429 64.2764 164.031 67.1832 159.833C67.1832 161.663 66.0851 166.357 61.6925 170.491C57.3 174.625 48.8809 173.505 45.2205 172.429Z" fill="#14653C" stroke="black"/>
<path d="M80.7484 171.137C75.064 171.137 69.3364 166.615 67.1832 164.354C65.676 166.077 63.7596 169.845 68.1522 171.137C72.5447 172.429 78.3799 171.675 80.7484 171.137Z" fill="#14653C" stroke="black"/>
<path d="M55.5559 178.658C60.1138 178.658 64.7062 175.151 66.4326 173.397C67.6412 174.733 69.1777 177.656 65.6557 178.658C62.1337 179.66 57.455 179.075 55.5559 178.658Z" fill="#14653C" stroke="black"/>
<ellipse cx="172.387" cy="279.834" rx="118.114" ry="25.5914" fill="black" fill-opacity="0.2"/>
<path d="M193.289 269.491L213.553 274.219L221.997 216.802L202.07 189.783L152.421 180.326L127.766 223.895L130.468 250.915C141.546 247.672 154.448 250.915 159.514 252.941C160.19 254.179 162.081 257.129 164.243 259.02C166.944 261.385 183.494 263.073 188.222 264.424C191.941 265.487 193.135 268.159 193.282 269.426C193.284 269.447 193.286 269.469 193.289 269.491Z" fill="#6F4F22"/>
<path d="M193.289 269.491L213.553 274.219L221.997 216.802L202.07 189.783L152.421 180.326L127.766 223.895L130.468 250.915C141.546 247.672 154.448 250.915 159.514 252.941C160.19 254.179 162.081 257.129 164.243 259.02M193.289 269.491C193.176 268.252 192.005 265.505 188.222 264.424C183.494 263.073 166.944 261.385 164.243 259.02M193.289 269.491C192.275 259.696 189.844 238.485 188.222 232.001C186.196 223.895 185.183 218.829 179.441 214.1C173.699 209.372 168.633 189.783 156.474 189.783M164.243 259.02C163.68 247.199 161.946 222.206 159.514 216.802C156.474 210.047 151.408 194.511 147.693 192.147" stroke="black"/>
<path d="M128.439 244.906L128.094 244.393C129.697 242.992 138.522 240.287 141.632 243.194C152.753 234.613 159.507 237.371 160.715 240.968C161.682 243.845 158.587 246.276 156.918 247.133C161.475 247.407 163.88 251.243 164.513 253.126C158.437 255.729 153.581 255.124 151.913 254.496C154.674 262.168 149.496 266.712 146.562 268.025C136.377 263.932 136.635 258.624 138.259 256.033C136.294 258.46 132.345 258.885 130.51 258.778C128.482 250.995 132.469 248.71 134.851 248.512C131.346 248.706 129.12 246.201 128.439 244.906Z" fill="#CF6029"/>
<path d="M141.632 243.194C142.062 243.596 142.443 244.004 142.765 244.393C143.57 245.82 145.319 249.359 145.872 252.099M141.632 243.194C138.522 240.287 129.697 242.992 128.094 244.393L128.439 244.906C129.13 246.219 131.408 248.777 134.998 248.503C132.639 248.617 128.439 250.832 130.51 258.778C132.467 258.892 136.828 258.401 138.623 255.524C136.724 257.864 135.654 263.641 146.562 268.025C149.496 266.712 154.674 262.168 151.913 254.496C153.581 255.124 158.437 255.729 164.513 253.126C163.88 251.243 161.475 247.407 156.918 247.133C158.587 246.276 161.682 243.845 160.715 240.968C159.507 237.371 152.753 234.613 141.632 243.194Z" stroke="black"/>
<path d="M179.827 261.765L179.316 261.645C179.505 259.847 183.436 253.065 187.05 253.078C189.017 241.312 194.814 239.127 197.644 240.668C199.908 241.901 199.386 245.202 198.842 246.699C201.836 244.238 205.549 245.236 207.032 246.043C204.753 251.173 201.381 253.602 199.98 254.175C206.131 257.355 205.532 263.175 204.464 265.687C195.76 269.023 192.854 265.57 192.368 263.019C192.547 265.664 190.334 268.211 189.13 269.204C183.371 265.531 184.533 261.805 185.901 260.306C183.832 262.452 180.999 262.178 179.827 261.765Z" fill="#CF6029"/>
<path d="M187.05 253.078C187.551 253.08 188.023 253.114 188.448 253.17C189.774 253.593 192.908 254.786 194.834 256.172M187.05 253.078C183.436 253.065 179.505 259.847 179.316 261.645L179.827 261.765C181.015 262.184 183.911 262.459 185.988 260.215C184.585 261.649 183.25 265.454 189.13 269.204C190.413 268.145 192.845 265.32 192.3 262.492C192.47 265.046 195.141 269.26 204.464 265.687C205.532 263.175 206.131 257.355 199.98 254.175C201.381 253.602 204.753 251.173 207.032 246.043C205.549 245.236 201.836 244.238 198.842 246.699C199.386 245.202 199.908 241.901 197.644 240.668C194.814 239.127 189.017 241.312 187.05 253.078Z" stroke="black"/>
<path d="M175.833 244.891C164.809 245.678 160.74 253.421 160.084 257.194C159.297 263.494 161.068 266.381 162.053 267.037C180.164 269.399 188.628 264.74 190.597 262.116L186.168 260.147C189.317 258.178 191.089 252.109 191.581 249.32C182.132 244.989 177.145 247.515 175.833 249.32V244.891Z" fill="#906925"/>
<path d="M162.053 267.037C180.164 269.399 188.628 264.74 190.597 262.116L186.168 260.147C189.317 258.178 191.089 252.109 191.581 249.32C182.132 244.989 177.145 247.515 175.833 249.32V244.891C164.809 245.678 160.74 253.421 160.084 257.194C159.297 263.494 161.068 266.381 162.053 267.037ZM162.053 267.037C165.334 262.772 174.159 253.749 183.215 251.781" stroke="black"/>
<path d="M223.571 253.625C219.087 253.898 210.171 254.691 205.914 255.881C206.843 255.05 209.259 253.103 211.49 251.965V250.306C208.624 251.728 202.243 255.237 199.641 257.893C195.116 258.615 188.225 259.715 181.522 260.788L162.053 256.47L156.639 251.29L155.163 251.782L158.116 255.881L132.032 253.625V255.881V260.975V263.821V265.006V269.274V274.253C130.064 275.785 127.701 278.85 134.001 278.85C140.3 278.85 150.893 277.524 155.401 276.861C166.141 278.12 176.912 279.481 182.216 280.418C191.881 282.125 206.533 277.968 212.651 275.676C213.398 274.425 214.352 272.782 215.387 270.934C216.612 268.747 217.951 266.272 219.196 263.821C220.02 262.2 220.802 260.589 221.484 259.078C221.895 258.166 222.27 257.29 222.594 256.47C223.012 255.415 223.347 254.452 223.571 253.625Z" fill="#A86C43"/>
<path d="M204.287 256.47C204.691 256.264 205.245 256.068 205.914 255.881M205.914 255.881C210.171 254.691 219.087 253.898 223.571 253.625C223.347 254.452 223.012 255.415 222.594 256.47M205.914 255.881C206.843 255.05 209.259 253.103 211.49 251.965V250.306C208.624 251.728 202.243 255.237 199.641 257.893M199.641 257.893H201.267M199.641 257.893C195.116 258.615 188.225 259.715 181.522 260.788M132.032 260.975C139.854 262.319 156.938 264.769 162.7 263.821C164.868 263.464 169.23 262.76 174.357 261.937M132.032 260.975V263.821V265.006M132.032 260.975V255.881M132.032 274.253V269.274M132.032 274.253C137.763 274.859 146.571 275.826 155.401 276.861M132.032 274.253C130.064 275.785 127.701 278.85 134.001 278.85C140.3 278.85 150.893 277.524 155.401 276.861M212.651 275.676C206.533 277.968 191.881 282.125 182.216 280.418C176.912 279.481 166.141 278.12 155.401 276.861M212.651 275.676C213.398 274.425 214.352 272.782 215.387 270.934M212.651 275.676L195.459 276.861L169.67 275.676M222.594 256.47C217.654 257.024 206.471 258.699 201.267 260.975M222.594 256.47C222.27 257.29 221.895 258.166 221.484 259.078M191.974 263.821C184.694 264.769 169.159 266.855 165.256 267.614M149.225 267.614L132.032 265.006M132.032 265.006V269.274M221.484 259.078L185.933 269.274C177.802 270.301 159.959 272.261 153.639 271.882C147.32 271.503 136.601 269.985 132.032 269.274M221.484 259.078C220.802 260.589 220.02 262.2 219.196 263.821M219.196 263.821L205.914 266.666M219.196 263.821C217.951 266.272 216.612 268.747 215.387 270.934M199.641 269.274L181.054 273.068L160.377 274.036M155.73 274.253L160.377 274.036M215.387 270.934L194.297 274.253L169.67 275.676M169.67 275.676L160.377 274.036M132.032 255.881C140.352 256.007 160.465 257.395 174.357 261.937M132.032 255.881V253.625L158.116 255.881L155.163 251.782L156.639 251.29L162.053 256.47L181.522 260.788M174.357 261.937C176.636 261.571 179.067 261.181 181.522 260.788" stroke="black"/>
<path d="M215.242 253.369V261.555C215.242 262.116 215.197 262.675 215.106 263.228C213.898 270.632 220.834 277.371 228.329 277.045C230.132 276.966 232.076 276.92 234.156 276.92C238.817 276.86 242.496 276.689 245.375 276.446C249.852 276.067 260.668 270.583 264.912 269.11C267.931 268.063 269.321 264.584 267.855 261.745L266.07 258.287C265.515 257.211 264.74 256.265 263.795 255.509L262.044 254.108C258.64 251.385 256.267 247.582 255.316 243.328L253.479 235.105C251.083 224.378 243.987 215.3 234.156 210.384C232.394 205.98 229.368 202.195 225.459 199.508L222.117 197.21C217.589 194.098 213.803 190.026 211.026 185.285L210.55 184.472C204.71 174.503 194.993 167.407 183.719 164.88L181.805 164.451C177.173 162.025 171.945 160.97 166.735 161.411L143.901 163.343C135.781 164.03 128.624 168.943 125.064 176.272L109.705 185.049C101.407 189.791 95.4533 197.769 93.2696 207.073L90.3934 219.328C89.4798 223.221 86.631 226.372 82.8496 227.672C79.8288 228.71 77.3678 230.945 76.044 233.852L68.1094 251.277C64.2218 259.814 68.4492 269.852 77.2733 273.036L93.6539 278.947L102.073 283.539C106.245 285.815 111.063 286.618 115.748 285.818C127.108 283.878 134.819 273.196 133.083 261.803L131.831 253.589C131.158 249.169 131.565 244.653 133.018 240.425L133.494 239.041C134.174 237.063 134.521 234.985 134.521 232.893C134.521 230.518 134.969 228.164 135.84 225.954L143.262 207.142C146.84 198.071 154.984 191.596 164.629 190.155C173.295 188.86 182.057 191.803 188.185 198.067L190.587 200.522C192.595 202.575 194.974 204.229 197.599 205.395C204.603 208.508 209.566 214.944 210.794 222.511L214.686 246.477C215.056 248.756 215.242 251.061 215.242 253.369Z" fill="#B79260"/>
<path d="M93.6539 278.947L102.073 283.539C106.245 285.815 111.063 286.618 115.748 285.818V285.818C127.108 283.878 134.819 273.196 133.083 261.803L131.831 253.589C131.158 249.169 131.565 244.653 133.018 240.425L133.494 239.041C134.174 237.063 134.521 234.985 134.521 232.893V232.893C134.521 230.518 134.969 228.164 135.84 225.954L143.262 207.142C146.84 198.071 154.984 191.596 164.629 190.155V190.155C173.295 188.86 182.057 191.803 188.185 198.067L190.587 200.522C192.595 202.575 194.974 204.229 197.599 205.395V205.395C204.603 208.508 209.566 214.944 210.794 222.511L214.686 246.477C215.056 248.756 215.242 251.061 215.242 253.369V261.555C215.242 262.116 215.197 262.675 215.106 263.228V263.228C213.898 270.632 220.834 277.371 228.329 277.045C230.132 276.966 232.076 276.92 234.156 276.92C238.817 276.86 242.496 276.689 245.375 276.446C249.852 276.067 260.668 270.583 264.912 269.11V269.11C267.931 268.063 269.321 264.584 267.855 261.745L266.07 258.287C265.515 257.211 264.74 256.265 263.795 255.509L262.044 254.108C258.64 251.385 256.267 247.582 255.316 243.328L253.479 235.105C251.083 224.378 243.987 215.3 234.156 210.384V210.384M93.6539 278.947L101.422 249.901L109.923 198.287C110.522 194.649 112.856 191.532 116.178 189.933V189.933C118.641 188.747 120.591 186.709 121.668 184.196L125.064 176.272M93.6539 278.947L77.2732 273.036M125.064 176.272L109.705 185.049C101.407 189.791 95.4533 197.769 93.2696 207.073L90.3934 219.328C89.4798 223.221 86.631 226.372 82.8496 227.672V227.672C79.8287 228.71 77.3678 230.945 76.044 233.852L68.1094 251.277C64.2218 259.814 68.4492 269.852 77.2732 273.036V273.036M125.064 176.272V176.272C128.624 168.943 135.781 164.03 143.901 163.343L166.735 161.411C171.945 160.97 177.173 162.025 181.805 164.451V164.451M181.805 164.451L183.719 164.88C194.993 167.407 204.71 174.503 210.55 184.472L211.026 185.285C213.803 190.026 217.589 194.098 222.117 197.21L225.459 199.508C229.368 202.195 232.394 205.98 234.156 210.384V210.384M181.805 164.451C177.978 165.014 169.039 166.207 163.905 166.478M234.156 210.384L240.896 241.366M85.548 233.689L77.2732 273.036" stroke="black"/>
<path d="M76.0439 233.853L68.1093 251.278C64.2217 259.815 68.4491 269.853 77.2731 273.037C86.0859 276.217 95.7324 271.175 98.153 262.124L101.422 249.901L109.923 198.288C110.522 194.65 112.856 191.533 116.178 189.933C118.641 188.747 120.591 186.71 121.668 184.197L125.064 176.273L108.032 186.006C100.801 190.138 95.6126 197.09 93.7097 205.198L90.3933 219.329C89.4797 223.222 86.6309 226.372 82.8495 227.672C79.8286 228.711 77.3677 230.946 76.0439 233.853Z" fill="#9C6923"/>
<path d="M85.5479 233.69L77.2731 273.037M77.2731 273.037V273.037C86.0859 276.217 95.7324 271.175 98.153 262.124L101.422 249.901L109.923 198.288C110.522 194.65 112.856 191.533 116.178 189.933V189.933C118.641 188.747 120.591 186.71 121.668 184.197L125.064 176.273L108.032 186.006C100.801 190.138 95.6126 197.09 93.7097 205.198L90.3933 219.329C89.4797 223.222 86.6309 226.372 82.8495 227.672V227.672C79.8286 228.711 77.3677 230.946 76.0439 233.853L68.1093 251.278C64.2217 259.815 68.4491 269.853 77.2731 273.037V273.037Z" stroke="black" stroke-linejoin="round"/>
<path d="M119.29 210.281L116.659 240.534M125.428 192.742V192.742C130.82 191.04 135.468 187.547 138.605 182.843L143.405 175.643M214.873 203.704V203.704C220.843 209.674 224.669 217.452 225.754 225.825L227.15 236.588" stroke="black"/>
<path d="M82.1708 271.516L70.6874 252.264L66.6345 244.496C64.9458 244.834 61.2981 245.847 60.2173 247.198C59.1365 248.549 57.065 252.264 54.8134 252.602L47.383 277.257L60.2173 280.973C65.7338 279.734 77.8476 276.109 82.1708 271.516Z" fill="#9C6923"/>
<path d="M66.6345 244.496L70.6874 252.264L82.1708 271.516C77.8476 276.109 65.7338 279.734 60.2173 280.973M66.6345 244.496C64.9458 244.834 61.2981 245.847 60.2173 247.198C59.1365 248.549 57.065 252.264 54.8134 252.602L47.383 277.257L60.2173 280.973M66.6345 244.496C65.6213 246.973 62.9193 253.142 60.2173 258.006C57.5154 262.869 56.9525 275.456 60.2173 280.973" stroke="black" stroke-linejoin="round"/>
<path d="M103.787 285.026L92.3038 265.774L81.8337 258.344C80.1449 258.681 76.4973 259.695 75.4165 261.046C74.3357 262.397 69.5623 263.41 67.3106 263.748L59.8802 288.403L81.8337 294.482C87.3502 293.244 99.464 289.619 103.787 285.026Z" fill="#B79260"/>
<path d="M81.8337 258.344L92.3038 265.774L103.787 285.026C99.464 289.619 87.3502 293.244 81.8337 294.482M81.8337 258.344C80.1449 258.681 76.4973 259.695 75.4165 261.046C74.3357 262.397 69.5623 263.41 67.3106 263.748L59.8802 288.403L81.8337 294.482M81.8337 258.344C80.8204 260.821 78.1185 266.99 75.4165 271.854C72.7145 276.717 78.5688 288.966 81.8337 294.482" stroke="black"/>
<path d="M75.4167 261.046C76.4975 259.695 80.1451 258.681 81.8339 258.344C80.8206 260.821 78.1187 266.99 75.4167 271.854C72.7147 276.717 78.569 288.966 81.8339 294.482L59.8804 288.403L67.3108 263.748C69.5624 263.41 74.3359 262.397 75.4167 261.046Z" fill="#9C6923" stroke="black" stroke-linejoin="round"/>
<path d="M288.533 272.87L277.388 257.03L266.918 253.28C265.229 253.451 261.581 253.962 260.5 254.644C259.42 255.326 253.407 261.386 253.407 261.386L250.706 277.26L266.918 279.287C272.997 279.287 284.21 275.188 288.533 272.87Z" fill="#9C6923"/>
<path d="M266.918 253.28L277.388 257.03L288.533 272.87C284.21 275.188 272.997 279.287 266.918 279.287M266.918 253.28C265.229 253.451 261.581 253.962 260.5 254.644C259.42 255.326 253.407 261.386 253.407 261.386L250.706 277.26L266.918 279.287M266.918 253.28C265.904 254.53 263.957 259.251 266.918 261.386C274.348 266.746 263.54 271.812 266.918 279.287" stroke="black" stroke-linejoin="round"/>
<path d="M277.388 257.03L288.533 272.87C284.21 275.188 272.997 279.287 266.918 279.287C263.54 271.812 274.348 266.746 266.918 261.386C263.957 259.251 265.904 254.53 266.918 253.28L277.388 257.03Z" fill="#B79260" stroke="black"/>
<path d="M244.054 266.341C238.538 268.064 238.021 276.54 238.452 280.562C239.314 279.126 241.9 275.908 245.347 274.529C248.795 273.15 253.966 273.954 256.121 274.529C254.397 271.081 249.571 264.617 244.054 266.341Z" fill="#FF4848" stroke="black" stroke-linejoin="round"/>
<path d="M248.246 278.409C242.73 280.133 240.92 282.288 238.452 280.564C239.314 279.128 241.9 275.91 245.347 274.531C248.795 273.152 253.967 273.956 256.121 274.531C256.121 276.254 253.763 276.685 248.246 278.409Z" fill="#6E1313" stroke="black" stroke-linejoin="round"/>
<path d="M246.523 286.163C247.212 283.06 246.81 277.975 246.523 275.82C248.677 271.51 252.556 286.163 252.125 287.887C251.694 289.611 245.661 290.042 246.523 286.163Z" fill="#F6D6B7" stroke="black"/>
<path d="M106.111 270.346C112.82 270.782 115.43 277.158 115.896 280.291C114.57 279.334 110.851 277.293 106.586 276.79C102.321 276.288 96.6081 277.723 94.2848 278.503C95.4316 275.602 99.4025 269.909 106.111 270.346Z" fill="#FF4848" stroke="black" stroke-linejoin="round"/>
<path d="M104.2 280.206C110.909 280.642 113.489 281.997 115.897 280.291C114.57 279.334 110.851 277.293 106.587 276.79C102.322 276.288 96.6088 277.723 94.2855 278.503C94.696 279.816 97.4916 279.769 104.2 280.206Z" fill="#593C08" stroke="black" stroke-linejoin="round"/>
<path d="M107.694 286.699C106.89 283.08 105.542 280.713 105.878 278.2C103.364 273.173 100.657 286.699 101.16 288.71C101.662 290.721 108.699 291.223 107.694 286.699Z" fill="#F6D6B7" stroke="black"/>
<path d="M181.124 278.786C185.155 274.741 196.24 277.1 201.279 278.786C207.398 276.841 213.876 278.786 213.876 280.73C213.876 282.286 210.517 282.675 208.837 282.675C211.237 283.971 215.603 287.108 213.876 289.286C212.148 291.464 207.398 288.379 205.238 286.564C204.998 289.675 203.582 295.431 199.839 293.564C196.096 291.697 196.84 288.119 197.68 286.564C192.161 289.934 186.939 293.701 183.484 291.212C180.029 288.723 184.483 285.267 190.482 282.675C185.683 283.063 177.093 282.83 181.124 278.786Z" fill="#F18C34"/>
<path d="M201.279 278.786C196.24 277.1 185.155 274.741 181.124 278.786C177.093 282.83 185.683 283.063 190.482 282.675C184.483 285.267 180.029 288.723 183.484 291.212C186.939 293.701 192.161 289.934 197.68 286.564C196.84 288.119 196.096 291.697 199.839 293.564C203.582 295.431 204.998 289.675 205.238 286.564C207.398 288.379 212.148 291.464 213.876 289.286C215.603 287.108 211.237 283.971 208.837 282.675C210.517 282.675 213.876 282.286 213.876 280.73C213.876 278.786 207.398 276.841 201.279 278.786ZM201.279 278.786C199.719 279.563 196.312 281.43 195.161 282.675" stroke="black"/>
<path d="M120.55 264.138C120.326 262.811 122.139 263.032 123.073 263.308C123.073 265.743 125.128 269.117 126.156 270.499C140.059 269.172 143.161 272.097 142.974 273.726C145.785 273.968 148.701 274.483 149.42 275.478C150.542 277.027 146.337 277.967 144.095 278.244C147.365 278.059 154.129 278.023 155.026 279.35C155.923 280.678 152.784 281.378 151.102 281.563C153.064 281.378 157.437 281.452 159.231 283.222C161.025 284.992 155.68 286.173 152.784 286.541C154.279 286.91 157.156 288.588 156.708 292.35C156.285 295.897 149.847 292.016 146.137 289.243C146.839 290.013 147.236 291.501 145.496 293.733C143.254 296.609 140.077 291.612 138.769 288.754C138.956 289.676 138.657 291.962 135.966 293.733C133.28 295.5 131.487 289.693 130.924 286.555C131.102 287.577 130.397 289.978 126.156 291.52C121.896 293.069 123.26 285.527 124.474 281.563C124.007 282.3 122.008 283.831 117.747 284.052C113.487 284.273 119.523 276.216 123.073 272.159C122.326 270.039 120.775 265.466 120.55 264.138Z" fill="#A6AA30"/>
<path d="M138.769 273.542C139.873 273.542 141.407 273.591 142.974 273.726M142.974 273.726C145.785 273.968 148.701 274.483 149.42 275.478C150.542 277.027 146.337 277.967 144.095 278.244C147.365 278.059 154.129 278.023 155.026 279.35C155.923 280.678 152.784 281.378 151.102 281.563C153.064 281.378 157.437 281.452 159.231 283.222C161.025 284.992 155.68 286.173 152.784 286.541C154.279 286.91 157.156 288.588 156.708 292.35C156.26 296.111 149.047 291.52 145.496 288.754C146.431 289.215 147.739 290.856 145.496 293.733C143.254 296.609 140.077 291.612 138.769 288.754C138.956 289.676 138.657 291.962 135.966 293.733C133.276 295.503 131.482 289.676 130.921 286.541C131.108 287.555 130.417 289.971 126.156 291.52C121.896 293.069 123.26 285.527 124.474 281.563C124.007 282.3 122.008 283.831 117.747 284.052C113.487 284.273 119.523 276.216 123.073 272.159C122.326 270.039 120.775 265.466 120.55 264.138C120.326 262.811 122.139 263.032 123.073 263.308C123.073 265.743 125.128 269.117 126.156 270.499M142.974 273.726C143.161 272.097 140.059 269.172 126.156 270.499M126.156 270.499C128.914 273.726 136.642 281.176 145.496 285.158" stroke="black"/>
<path d="M227.489 240.983L227.065 240.637C228.065 239.039 234.855 234.481 238.238 236.143C245.468 226.019 251.904 226.618 253.851 229.353C255.409 231.541 253.408 234.395 252.213 235.549C256.148 234.61 259.172 237.24 260.192 238.673C255.707 242.438 251.434 243.174 249.858 243.071C254.168 248.858 250.943 254.036 248.791 255.902C239.104 255.053 237.96 250.493 238.673 247.882C237.629 250.441 234.388 251.816 232.805 252.197C229.088 246.128 231.883 243.168 233.852 242.389C230.929 243.454 228.399 241.905 227.489 240.983Z" fill="#CF6029"/>
<path d="M238.238 236.143C238.707 236.373 239.134 236.62 239.507 236.867C240.556 237.868 242.948 240.416 244.119 242.594M238.238 236.143C234.855 234.481 228.065 239.039 227.065 240.637L227.489 240.983C228.412 241.918 231 243.498 233.975 242.343C232.003 243.046 229.01 246.001 232.805 252.197C234.494 251.791 238.066 250.254 238.85 247.357C237.841 249.827 238.415 254.993 248.791 255.902C250.943 254.036 254.168 248.858 249.858 243.071C251.434 243.174 255.707 242.438 260.192 238.673C259.172 237.24 256.148 234.61 252.213 235.549C253.408 234.395 255.409 231.541 253.851 229.353C251.904 226.618 245.468 226.019 238.238 236.143Z" stroke="black"/>
<path d="M133.645 184.487L134.109 184.516C134.41 182.945 132.822 176.193 129.757 175.276C131.111 164.807 126.762 161.469 123.97 162.047C121.737 162.51 121.332 165.44 121.408 166.848C119.504 163.994 116.103 163.887 114.64 164.19C115.253 169.12 117.486 172.042 118.526 172.887C112.5 174.002 111.513 179.084 111.773 181.486C118.289 186.545 121.636 184.366 122.702 182.331C121.872 184.525 123.093 187.249 123.857 188.399C129.677 186.767 129.649 183.313 128.875 181.693C130.077 184.041 132.546 184.536 133.645 184.487Z" fill="#CF6029"/>
<path d="M129.757 175.276C129.333 175.149 128.924 175.056 128.55 174.995C127.318 175.013 124.358 175.219 122.371 175.899M129.757 175.276C132.822 176.193 134.41 182.945 134.109 184.516L133.645 184.487C132.531 184.536 130.008 184.027 128.825 181.593C129.645 183.167 129.799 186.732 123.857 188.399C123.042 187.173 121.708 184.157 122.895 181.901C122.096 184.02 118.752 186.904 111.773 181.486C111.513 179.084 112.5 174.002 118.526 172.887C117.486 172.042 115.253 169.12 114.64 164.19C116.103 163.887 119.504 163.994 121.408 166.848C121.332 165.44 121.737 162.51 123.97 162.047C126.762 161.469 131.111 164.807 129.757 175.276Z" stroke="black"/>
<path d="M137.826 166.72C147.532 165.913 152.13 172.131 153.215 175.341C154.759 180.742 153.61 183.507 152.842 184.214C137.395 188.737 129.39 185.812 127.318 183.784L130.906 181.462C127.896 180.168 125.526 175.101 124.718 172.73C132.355 167.661 137.041 169.193 138.43 170.593L137.826 166.72Z" fill="#F18C34"/>
<path d="M152.842 184.214C137.395 188.737 129.39 185.812 127.318 183.784L130.906 181.462C127.896 180.168 125.526 175.101 124.718 172.73C132.355 167.661 137.041 169.193 138.43 170.593L137.826 166.72C147.532 165.913 152.13 172.131 153.215 175.341C154.759 180.742 153.61 183.507 152.842 184.214ZM152.842 184.214C149.404 180.93 140.49 174.239 132.338 173.746" stroke="black"/>
</g>
<defs>
<filter id="filter0_d_31643_276" x="0.5" y="3" width="316.486" height="347.432" filterUnits="userSpaceOnUse" color-interpolation-filters="sRGB">
<feFlood flood-opacity="0" result="BackgroundImageFix"/>
<feColorMatrix in="SourceAlpha" type="matrix" values="0 0 0 0 0 0 0 0 0 0 0 0 0 0 0 0 0 0 127 0" result="hardAlpha"/>
<feOffset dy="10"/>
<feComposite in2="hardAlpha" operator="out"/>
<feColorMatrix type="matrix" values="0 0 0 0 0.321569 0 0 0 0 0.239216 0 0 0 0 0.215686 0 0 0 1 0"/>
<feBlend mode="normal" in2="BackgroundImageFix" result="effect1_dropShadow_31643_276"/>
<feBlend mode="normal" in="SourceGraphic" in2="effect1_dropShadow_31643_276" result="shape"/>
</filter>
<clipPath id="clip0_31643_276">
<rect width="317" height="351" fill="white"/>
</clipPath>
</defs>
</svg>
