<svg width="338" height="338" viewBox="0 0 338 338" fill="none" xmlns="http://www.w3.org/2000/svg">
<g clip-path="url(#clip0_31644_403)">
<g filter="url(#filter0_d_31644_403)">
<path d="M10.0727 138.047L62.0747 89.2453C64.0057 87.4331 66.2773 86.0225 68.7577 85.0952L259.733 13.7025C270.285 9.75779 282.012 15.3026 285.659 25.9613L335.193 170.719C336.375 174.174 336.589 177.886 335.811 181.454L316.807 268.623C315.104 276.436 308.911 282.483 301.06 284L82.5648 326.215C79.9603 326.718 77.2625 326.175 75.0553 324.704C73.3895 323.593 72.0918 322.012 71.3274 320.162L5.27415 160.267C2.09982 152.583 4.01028 143.737 10.0727 138.047Z" fill="#C5ED74"/>
<path d="M10.0727 138.047L62.0747 89.2453C64.0057 87.4331 66.2773 86.0225 68.7577 85.0952L259.733 13.7025C270.285 9.75779 282.012 15.3026 285.659 25.9613L335.193 170.719C336.375 174.174 336.589 177.886 335.811 181.454L316.807 268.623C315.104 276.436 308.911 282.483 301.06 284L82.5648 326.215C79.9603 326.718 77.2625 326.175 75.0553 324.704C73.3895 323.593 72.0918 322.012 71.3274 320.162L5.27415 160.267C2.09982 152.583 4.01028 143.737 10.0727 138.047Z" stroke="black" stroke-linecap="round"/>
</g>
<ellipse cx="128.5" cy="279.926" rx="57" ry="12" fill="#7EA82B"/>
<ellipse cx="131.5" cy="181" rx="88" ry="10" fill="#7EA82B"/>
<path d="M161.267 28.4941L156.281 141.399H165.185L161.267 28.4941Z" fill="#896736" stroke="black"/>
<path d="M153.432 50.2194C145.655 55.4039 137.998 55.4432 134.911 54.4934C146.286 52.8288 157.09 35.0092 161.98 26C163.384 44.2358 175.497 51.8815 180.857 53.0687C171.739 53.0687 163.998 46.4203 161.267 43.0961C161.267 43.0961 158.774 46.6577 153.432 50.2194Z" fill="#14653C" stroke="black"/>
<path d="M153.432 65.5345C144.528 70.877 131.587 71.8268 128.5 70.877C144.884 69.1711 156.378 56.7353 161.267 47.7261C162.672 65.9619 180.144 68.74 185.843 69.8085C167.678 71.2331 163.998 61.7353 161.267 58.4111C161.267 58.4111 158.938 62.2309 153.432 65.5345Z" fill="#14653C" stroke="black"/>
<path d="M153.432 78.3577C144.528 83.7002 131.587 84.65 128.5 83.7002C144.884 81.9943 156.378 69.5585 161.267 60.5493C162.672 78.7851 179.788 79.07 185.487 80.1385C167.322 81.5632 163.998 74.5586 161.267 71.2343C161.267 71.2343 158.938 75.0542 153.432 78.3577Z" fill="#14653C" stroke="black"/>
<path d="M138.117 92.2485C149.799 92.2485 159.131 82.9881 162.336 78.3579C162.336 80.3762 161.125 85.5525 156.281 90.1114C151.437 94.6704 142.153 93.4357 138.117 92.2485Z" fill="#14653C" stroke="black"/>
<path d="M177.295 90.8218C171.026 90.8218 164.71 85.8355 162.336 83.3423C160.674 85.2418 158.56 89.3971 163.404 90.8218C168.248 92.2465 174.683 91.4154 177.295 90.8218Z" fill="#14653C" stroke="black"/>
<path d="M149.513 99.1159C154.54 99.1159 159.604 95.2486 161.508 93.3149C162.84 94.7882 164.535 98.0109 160.651 99.1159C156.767 100.221 151.608 99.5763 149.513 99.1159Z" fill="#14653C" stroke="black"/>
<path d="M210.031 3.83887L204.354 132.398H214.492L210.031 3.83887Z" fill="#896736" stroke="black"/>
<path d="M201.109 28.5774C192.254 34.4808 183.535 34.5255 180.021 33.444C192.973 31.5486 205.275 11.2584 210.842 1C212.442 21.7642 226.234 30.47 232.337 31.8218C221.955 31.8218 213.141 24.2516 210.031 20.4664C210.031 20.4664 207.192 24.5219 201.109 28.5774Z" fill="#14653C" stroke="black"/>
<path d="M201.109 46.0163C190.97 52.0995 176.235 53.181 172.721 52.0995C191.376 50.1571 204.463 35.9971 210.031 25.7388C211.631 46.503 231.525 49.6662 238.014 50.8829C217.331 52.5051 213.141 41.6904 210.031 37.9053C210.031 37.9053 207.378 42.2547 201.109 46.0163Z" fill="#14653C" stroke="black"/>
<path d="M201.109 60.6159C190.97 66.6992 176.235 67.7806 172.721 66.6992C191.376 64.7567 204.463 50.5967 210.031 40.3384C211.631 61.1026 231.12 61.427 237.609 62.6437C216.926 64.2659 213.141 56.29 210.031 52.5049C210.031 52.5049 207.378 56.8543 201.109 60.6159Z" fill="#14653C" stroke="black"/>
<path d="M183.671 76.4327C196.973 76.4327 207.598 65.8884 211.248 60.6162C211.248 62.9143 209.869 68.8083 204.354 73.9994C198.838 79.1904 188.267 77.7845 183.671 76.4327Z" fill="#14653C" stroke="black"/>
<path d="M228.281 74.8095C221.143 74.8095 213.952 69.1318 211.248 66.293C209.355 68.4559 206.949 73.1873 212.465 74.8095C217.98 76.4317 225.307 75.4854 228.281 74.8095Z" fill="#14653C" stroke="black"/>
<path d="M196.648 84.2542C202.371 84.2542 208.138 79.8507 210.305 77.6489C211.823 79.3264 213.752 82.996 209.33 84.2542C204.908 85.5123 199.033 84.7784 196.648 84.2542Z" fill="#14653C" stroke="black"/>
<path d="M260.031 42.8389L254.354 171.398H264.492L260.031 42.8389Z" fill="#896736" stroke="black"/>
<path d="M251.109 67.5774C242.254 73.4808 233.535 73.5255 230.021 72.444C242.973 70.5486 255.275 50.2584 260.842 40C262.442 60.7642 276.234 69.47 282.337 70.8218C271.955 70.8218 263.141 63.2516 260.031 59.4664C260.031 59.4664 257.192 63.5219 251.109 67.5774Z" fill="#14653C" stroke="black"/>
<path d="M251.109 85.0163C240.97 91.0995 226.235 92.181 222.721 91.0995C241.376 89.1571 254.463 74.9971 260.031 64.7388C261.631 85.503 281.525 88.6662 288.014 89.8829C267.331 91.5051 263.141 80.6904 260.031 76.9053C260.031 76.9053 257.378 81.2547 251.109 85.0163Z" fill="#14653C" stroke="black"/>
<path d="M251.109 99.6159C240.97 105.699 226.235 106.781 222.721 105.699C241.376 103.757 254.463 89.5967 260.031 79.3384C261.631 100.103 281.12 100.427 287.609 101.644C266.926 103.266 263.141 95.29 260.031 91.5049C260.031 91.5049 257.378 95.8543 251.109 99.6159Z" fill="#14653C" stroke="black"/>
<path d="M233.671 115.433C246.973 115.433 257.598 104.888 261.248 99.6162C261.248 101.914 259.869 107.808 254.354 112.999C248.838 118.19 238.267 116.785 233.671 115.433Z" fill="#14653C" stroke="black"/>
<path d="M278.281 113.81C271.143 113.81 263.952 108.132 261.248 105.293C259.355 107.456 256.949 112.187 262.465 113.81C267.98 115.432 275.307 114.485 278.281 113.81Z" fill="#14653C" stroke="black"/>
<path d="M246.648 123.254C252.371 123.254 258.138 118.851 260.305 116.649C261.823 118.326 263.752 121.996 259.33 123.254C254.908 124.512 249.033 123.778 246.648 123.254Z" fill="#14653C" stroke="black"/>
<path d="M202.634 89H105.992L130.945 137.78L230.612 140.469L202.634 89Z" fill="#AFA05E"/>
<path d="M230.612 140.469L202.634 89H105.992L130.945 137.78M230.612 140.469L130.945 137.78M230.612 140.469L247.981 172.737M130.945 137.78L144.28 164.334" stroke="black"/>
<path d="M203.078 89L100.238 89.0025L69.6503 143.454L175.516 146.141L203.078 89Z" fill="#F7E697"/>
<path d="M175.516 146.141L203.078 89L100.238 89.0025L69.6503 143.454M175.516 146.141L69.6503 143.454M175.516 146.141L156.021 190.845M69.6503 143.454L46.1217 182.445" stroke="black"/>
<ellipse cx="275.695" cy="186.052" rx="46.1949" ry="8.39907" fill="#7EA82B"/>
<rect x="261.585" y="111.5" width="9.62369" height="77.4518" rx="1.5" fill="#A05A5A" stroke="black"/>
<path d="M268.439 113.45V184.955" stroke="black"/>
<rect x="232.164" y="117.226" width="68.4626" height="38.2259" rx="1.5" fill="#E0CEAC" stroke="black"/>
<path d="M296.445 121.773V150.073" stroke="black"/>
<path d="M283.668 170.93C278.438 172.564 277.948 180.6 278.356 184.414C279.174 183.052 281.625 180.001 284.894 178.693C288.163 177.386 293.066 178.148 295.109 178.693C293.475 175.424 288.898 169.295 283.668 170.93Z" fill="#FF4848" stroke="black" stroke-linejoin="round"/>
<path d="M287.642 182.369C282.412 184.004 280.696 186.047 278.356 184.413C279.173 183.051 281.625 180 284.894 178.693C288.163 177.385 293.066 178.148 295.109 178.693C295.109 180.327 292.872 180.735 287.642 182.369Z" fill="#6E1313" stroke="black" stroke-linejoin="round"/>
<path d="M286.008 189.722C286.662 186.78 286.281 181.959 286.008 179.916C288.051 175.83 291.729 189.722 291.32 191.357C290.911 192.991 285.191 193.4 286.008 189.722Z" fill="#F6D6B7" stroke="black"/>
<path d="M253.676 175.557C256.471 175.739 257.558 178.395 257.752 179.7C257.199 179.301 255.65 178.451 253.873 178.242C252.097 178.032 249.717 178.63 248.749 178.955C249.226 177.747 250.881 175.375 253.676 175.557Z" fill="#BC8420" stroke="black" stroke-linejoin="round"/>
<path d="M252.88 179.667C255.675 179.849 256.75 180.413 257.752 179.702C257.2 179.303 255.651 178.453 253.874 178.244C252.097 178.034 249.717 178.632 248.749 178.957C248.92 179.504 250.085 179.485 252.88 179.667Z" fill="#593C08" stroke="black" stroke-linejoin="round"/>
<path d="M254.335 182.374C254 180.866 253.439 179.88 253.578 178.833C252.531 176.739 251.403 182.374 251.613 183.211C251.822 184.049 254.754 184.258 254.335 182.374Z" fill="#AF855B" stroke="black"/>
<path d="M171.907 191.703C172.334 191.573 172.781 191.526 173.226 191.564L323.371 204.523C327.061 204.842 327.793 209.924 324.343 211.271L213.588 254.508C213.06 254.714 212.49 254.789 211.927 254.726L47.8612 236.412C44.0811 235.99 43.5926 230.691 47.232 229.585L171.907 191.703L171.762 191.224L171.907 191.703Z" fill="#FFC9A3" stroke="black"/>
<ellipse cx="195.5" cy="222" rx="64" ry="10" fill="black" fill-opacity="0.25"/>
<rect x="222.681" y="136.704" width="7.99168" height="108.437" rx="3.99584" transform="rotate(39.7375 222.681 136.704)" fill="#B08686" stroke="black"/>
<rect x="158.441" y="185.249" width="7.99168" height="67.5564" rx="3.99584" transform="rotate(-53.6135 158.441 185.249)" fill="#B08686" stroke="black"/>
<path d="M222.884 142.58C223.169 142.247 223.585 142.055 224.024 142.055H256.677C257.923 142.055 258.626 143.486 257.863 144.472L214.738 200.248C214.424 200.653 213.925 200.871 213.414 200.824L178.908 197.653C177.696 197.542 177.114 196.11 177.905 195.185L222.884 142.58Z" fill="#FFF3BC" stroke="black" stroke-linejoin="round"/>
<rect x="228.101" y="183.191" width="6.10768" height="37.2107" rx="3.05384" transform="rotate(-18.1347 228.101 183.191)" fill="#B08686" stroke="black"/>
<rect x="262.212" y="138.558" width="7.99168" height="113.233" rx="3.99584" transform="rotate(39.7375 262.212 138.558)" fill="#A05A5A" stroke="black"/>
<rect x="142.675" y="205.389" width="7.99168" height="50.9764" rx="3.99584" transform="rotate(-90.1098 142.675 205.389)" fill="#A05A5A" stroke="black"/>
<rect x="144.983" y="203.183" width="4.14977" height="37.2554" rx="2.07488" transform="rotate(-90 144.983 203.183)" fill="#FFF3BC" stroke="black" stroke-linejoin="round"/>
<rect x="177.533" y="205.345" width="7.99168" height="39.6612" rx="3.99584" transform="rotate(-90.1098 177.533 205.345)" fill="#A05A5A" stroke="black"/>
<rect x="193.112" y="188.527" width="7.99168" height="68.4371" rx="3.99584" transform="rotate(-55.6891 193.112 188.527)" fill="#A05A5A" stroke="black"/>
<path d="M135.524 252.148C140.46 253.062 139.866 258.164 138.952 260.602C138.952 262.049 136.987 264.988 129.127 265.171C121.267 265.354 122.196 259.002 123.643 255.803C125.547 254.204 130.589 251.234 135.524 252.148Z" fill="#999999" stroke="black" stroke-linecap="round" stroke-linejoin="round"/>
<path d="M135.524 252.148C140.46 253.062 139.866 258.164 138.952 260.602C137.248 255.803 132.933 255.803 123.643 255.803C125.547 254.204 130.589 251.234 135.524 252.148Z" fill="#D9D9D9" stroke="black" stroke-linecap="round" stroke-linejoin="round"/>
<path d="M145.143 255.218C140.174 256.138 134.525 261.792 135.446 264.246C135.446 265.703 143.67 268.147 151.584 268.331C159.498 268.515 158.563 262.12 157.106 258.899C155.189 257.289 150.112 254.298 145.143 255.218Z" fill="#999999" stroke="black" stroke-linecap="round" stroke-linejoin="round"/>
<path d="M145.142 255.218C140.173 256.138 140.571 259.135 145.668 261.69C152.838 266.802 150.091 261.396 157.105 258.899C155.188 257.289 150.112 254.298 145.142 255.218Z" fill="#D9D9D9" stroke="black" stroke-linecap="round" stroke-linejoin="round"/>
<path d="M107.432 252.24C99.8323 253.647 100.747 261.505 102.155 265.259C102.155 267.487 105.18 272.014 117.284 272.295C129.388 272.577 127.957 262.796 125.729 257.87C122.797 255.407 115.032 250.833 107.432 252.24Z" fill="#999999" stroke="black" stroke-linecap="round" stroke-linejoin="round"/>
<path d="M107.432 252.24C99.8323 253.647 100.747 261.505 102.155 265.259C104.778 257.87 111.423 257.87 125.729 257.87C122.797 255.407 115.032 250.833 107.432 252.24Z" fill="#D9D9D9" stroke="black" stroke-linecap="round" stroke-linejoin="round"/>
<path d="M98.232 262.466C90.632 263.873 91.5468 271.732 92.9542 275.485C92.9542 277.713 95.9802 282.24 108.084 282.521C120.188 282.803 118.757 273.022 116.528 268.096C113.596 265.633 105.832 261.059 98.232 262.466Z" fill="#999999" stroke="black" stroke-linecap="round" stroke-linejoin="round"/>
<path d="M98.232 262.466C90.632 263.873 91.5468 271.732 92.9542 275.485C97.411 276.658 108.365 276.822 116.528 268.096C113.596 265.633 105.832 261.059 98.232 262.466Z" fill="#D9D9D9" stroke="black" stroke-linecap="round" stroke-linejoin="round"/>
<rect x="118.251" y="258.584" width="8.39496" height="38.5692" rx="4.19748" transform="rotate(-55.6891 118.251 258.584)" fill="#B27D7D" stroke="black"/>
<rect x="-0.694837" y="-0.131154" width="8.39496" height="38.5692" rx="4.19748" transform="matrix(-0.563683 -0.825991 -0.825991 0.563683 150.252 257.063)" fill="#A05A5A" stroke="black"/>
<path d="M159.469 263.226C156.606 264.043 151.461 269.018 149.246 271.403C147.762 272.937 149.246 282.648 157.424 282.648C163.967 282.648 169.01 281.625 170.713 281.114C171.736 279.24 173.473 274.675 172.247 271.403C170.713 267.314 163.047 262.203 159.469 263.226Z" fill="#999999" stroke="black" stroke-linecap="round" stroke-linejoin="round"/>
<path d="M159.469 263.226C156.607 264.043 151.462 269.018 149.247 271.403L159.469 274.981L172.247 271.403C170.714 267.315 163.047 262.203 159.469 263.226Z" fill="#D9D9D9" stroke="black" stroke-linecap="round" stroke-linejoin="round"/>
<path d="M138.101 269.623C130.5 271.03 131.415 278.888 132.823 282.641C132.823 284.87 135.849 289.397 147.952 289.678C160.056 289.96 158.625 280.178 156.397 275.252C153.465 272.789 145.701 268.215 138.101 269.623Z" fill="#999999" stroke="black" stroke-linecap="round" stroke-linejoin="round"/>
<path d="M138.101 269.623C130.5 271.03 131.415 278.888 132.823 282.641C135.446 275.252 142.091 275.252 156.397 275.252C153.465 272.789 145.701 268.215 138.101 269.623Z" fill="#D9D9D9" stroke="black" stroke-linecap="round" stroke-linejoin="round"/>
<path d="M115.611 269.623C108.011 271.03 108.926 278.888 110.333 282.641C110.333 284.87 113.359 289.397 125.463 289.678C137.567 289.96 136.136 280.178 133.907 275.252C130.975 272.789 123.211 268.215 115.611 269.623Z" fill="#999999" stroke="black" stroke-linecap="round" stroke-linejoin="round"/>
<path d="M115.611 269.623C108.011 271.03 108.926 278.888 110.333 282.641C114.79 283.814 123.179 279.071 133.907 275.252C130.975 272.789 123.211 268.215 115.611 269.623Z" fill="#D9D9D9" stroke="black" stroke-linecap="round" stroke-linejoin="round"/>
<mask id="path-67-inside-1_31644_403" fill="white">
<path fill-rule="evenodd" clip-rule="evenodd" d="M147.325 227.563C149.065 226.577 149.964 224.81 149.895 221.257C158.68 228.199 150.249 262.495 127.218 255.476C122.581 254.33 118.586 251.397 116.103 247.316C113.621 243.236 112.852 238.339 113.966 233.694C115.155 229.885 117.745 226.667 121.213 224.692C119.959 227.578 120.309 230.751 121.83 232.738C122.551 230.411 123.885 228.27 127.809 227.979C126.682 230.294 127.129 232.358 127.885 234.347C130.901 233.155 130.664 229.344 130.384 224.839C129.987 218.462 129.504 210.694 138.044 207C136.684 214.908 140.828 219.81 144.973 224.713C145.77 225.656 146.567 226.599 147.325 227.563Z"/>
</mask>
<path fill-rule="evenodd" clip-rule="evenodd" d="M147.325 227.563C149.065 226.577 149.964 224.81 149.895 221.257C158.68 228.199 150.249 262.495 127.218 255.476C122.581 254.33 118.586 251.397 116.103 247.316C113.621 243.236 112.852 238.339 113.966 233.694C115.155 229.885 117.745 226.667 121.213 224.692C119.959 227.578 120.309 230.751 121.83 232.738C122.551 230.411 123.885 228.27 127.809 227.979C126.682 230.294 127.129 232.358 127.885 234.347C130.901 233.155 130.664 229.344 130.384 224.839C129.987 218.462 129.504 210.694 138.044 207C136.684 214.908 140.828 219.81 144.973 224.713C145.77 225.656 146.567 226.599 147.325 227.563Z" fill="#FF6242"/>
<path d="M149.895 221.257L150.515 220.473L148.854 219.16L148.895 221.277L149.895 221.257ZM147.325 227.563L146.538 228.181L147.07 228.857L147.818 228.433L147.325 227.563ZM127.218 255.476L127.51 254.52L127.484 254.512L127.458 254.506L127.218 255.476ZM116.103 247.316L115.249 247.836L116.103 247.316ZM113.966 233.694L113.012 233.397L113.002 233.429L112.994 233.461L113.966 233.694ZM121.213 224.692L122.13 225.091L123.326 222.338L120.718 223.823L121.213 224.692ZM121.83 232.738L121.035 233.346L122.211 234.883L122.785 233.035L121.83 232.738ZM127.809 227.979L128.708 228.417L129.468 226.854L127.735 226.982L127.809 227.979ZM127.885 234.347L126.95 234.703L127.31 235.65L128.253 235.277L127.885 234.347ZM130.384 224.839L129.386 224.902L130.384 224.839ZM138.044 207L139.03 207.17L139.343 205.349L137.648 206.082L138.044 207ZM144.973 224.713L144.209 225.359L144.973 224.713ZM148.895 221.277C148.928 222.978 148.725 224.15 148.369 224.978C148.027 225.776 147.522 226.302 146.832 226.693L147.818 228.433C148.867 227.839 149.682 226.988 150.207 225.768C150.718 224.578 150.931 223.089 150.895 221.238L148.895 221.277ZM126.927 256.433C132.945 258.267 138.084 257.412 142.228 254.924C146.341 252.455 149.396 248.425 151.398 244.015C153.401 239.604 154.385 234.738 154.297 230.499C154.209 226.317 153.066 222.489 150.515 220.473L149.275 222.042C151.117 223.497 152.214 226.559 152.297 230.541C152.379 234.465 151.463 239.036 149.577 243.189C147.691 247.343 144.869 251.005 141.198 253.209C137.558 255.395 133.007 256.195 127.51 254.52L126.927 256.433ZM115.249 247.836C117.869 252.142 122.085 255.238 126.978 256.447L127.458 254.506C123.078 253.423 119.303 250.652 116.958 246.797L115.249 247.836ZM112.994 233.461C111.818 238.363 112.629 243.53 115.249 247.836L116.958 246.797C114.612 242.942 113.886 238.316 114.939 233.928L112.994 233.461ZM120.718 223.823C117.03 225.924 114.276 229.345 113.012 233.397L114.921 233.992C116.034 230.424 118.46 227.411 121.708 225.561L120.718 223.823ZM122.624 232.131C121.356 230.474 120.998 227.696 122.13 225.091L120.296 224.294C118.92 227.461 119.262 231.028 121.035 233.346L122.624 232.131ZM122.785 233.035C123.123 231.944 123.571 231.015 124.305 230.322C125.021 229.646 126.104 229.108 127.882 228.977L127.735 226.982C125.59 227.141 124.044 227.818 122.932 228.868C121.838 229.9 121.258 231.205 120.874 232.442L122.785 233.035ZM126.909 227.542C125.603 230.227 126.158 232.618 126.95 234.703L128.82 233.992C128.1 232.097 127.761 230.362 128.708 228.417L126.909 227.542ZM129.386 224.902C129.528 227.194 129.644 229.142 129.385 230.668C129.135 232.139 128.58 232.997 127.517 233.417L128.253 235.277C130.207 234.505 131.041 232.862 131.357 231.003C131.663 229.199 131.52 226.99 131.382 224.777L129.386 224.902ZM137.648 206.082C133.085 208.055 130.873 211.169 129.9 214.643C128.949 218.036 129.189 221.747 129.386 224.902L131.382 224.777C131.181 221.554 130.982 218.192 131.825 215.183C132.646 212.256 134.463 209.638 138.441 207.918L137.648 206.082ZM145.736 224.068C141.567 219.136 137.757 214.569 139.03 207.17L137.059 206.83C135.611 215.247 140.089 220.485 144.209 225.359L145.736 224.068ZM148.111 226.946C147.34 225.965 146.531 225.008 145.736 224.068L144.209 225.359C145.008 226.304 145.793 227.233 146.538 228.181L148.111 226.946Z" fill="black" mask="url(#path-67-inside-1_31644_403)"/>
<path d="M135.084 246.01C137.264 245.143 139.158 243.63 140.554 241.66C142.157 244.496 141.568 247.212 139.911 249.064C138.109 251.08 135.025 252.094 131.994 251.086C130.955 250.724 130.034 250.034 129.353 249.098C128.807 248.348 128.437 247.468 128.271 246.533C130.537 247.057 132.901 246.879 135.084 246.01Z" fill="#FFE500" stroke="black"/>
<path d="M253.32 235.001C247.365 235.389 245.049 241.048 244.635 243.829C245.812 242.979 249.113 241.168 252.899 240.722C256.684 240.276 261.755 241.549 263.818 242.242C262.8 239.667 259.275 234.614 253.32 235.001Z" fill="#BC8420" stroke="black" stroke-linejoin="round"/>
<path d="M255.016 243.755C249.061 244.142 246.771 245.344 244.634 243.831C245.811 242.981 249.112 241.169 252.898 240.723C256.684 240.277 261.754 241.551 263.817 242.243C263.452 243.409 260.971 243.367 255.016 243.755Z" fill="#593C08" stroke="black" stroke-linejoin="round"/>
<path d="M251.915 249.519C252.629 246.306 253.825 244.205 253.528 241.974C255.758 237.513 258.162 249.519 257.716 251.303C257.269 253.088 251.023 253.534 251.915 249.519Z" fill="#AF855B" stroke="black"/>
</g>
<defs>
<filter id="filter0_d_31644_403" x="3.25822" y="11.9302" width="333.512" height="324.968" filterUnits="userSpaceOnUse" color-interpolation-filters="sRGB">
<feFlood flood-opacity="0" result="BackgroundImageFix"/>
<feColorMatrix in="SourceAlpha" type="matrix" values="0 0 0 0 0 0 0 0 0 0 0 0 0 0 0 0 0 0 127 0" result="hardAlpha"/>
<feOffset dy="10"/>
<feComposite in2="hardAlpha" operator="out"/>
<feColorMatrix type="matrix" values="0 0 0 0 0.321569 0 0 0 0 0.239216 0 0 0 0 0.215686 0 0 0 1 0"/>
<feBlend mode="normal" in2="BackgroundImageFix" result="effect1_dropShadow_31644_403"/>
<feBlend mode="normal" in="SourceGraphic" in2="effect1_dropShadow_31644_403" result="shape"/>
</filter>
<clipPath id="clip0_31644_403">
<rect width="338" height="338" fill="white"/>
</clipPath>
</defs>
</svg>
