<svg width="471" height="238" viewBox="0 0 471 238" fill="none" xmlns="http://www.w3.org/2000/svg">
<g clip-path="url(#clip0_31643_165)">
<g filter="url(#filter0_d_31643_165)">
<path d="M49.2163 127.922L5.70565 79.5169C-5.48555 67.0667 2.65826 47.1977 19.3682 46.1835L151 38.1943H417.401C424.305 38.1943 430.72 41.7544 434.372 47.6123L466.186 98.6336C473.586 110.503 466.83 126.108 453.11 128.832L270.428 165.113C268.487 165.498 266.613 166.17 264.869 167.106L157.75 224.573C153.404 226.905 148.35 227.548 143.558 226.38L53.5524 204.436C41.3398 201.459 34.8692 188.087 40.1131 176.662L52.5187 149.636C55.846 142.387 54.5482 133.854 49.2163 127.922Z" fill="#FAED8C"/>
<path d="M49.2163 127.922L5.70565 79.5169C-5.48555 67.0667 2.65826 47.1977 19.3682 46.1835L151 38.1943H417.401C424.305 38.1943 430.72 41.7544 434.372 47.6123L466.186 98.6336C473.586 110.503 466.83 126.108 453.11 128.832L270.428 165.113C268.487 165.498 266.613 166.17 264.869 167.106L157.75 224.573C153.404 226.905 148.35 227.548 143.558 226.38L53.5524 204.436C41.3398 201.459 34.8692 188.087 40.1131 176.662L52.5187 149.636C55.846 142.387 54.5482 133.854 49.2163 127.922Z" stroke="black" stroke-linecap="round"/>
</g>
<ellipse cx="97.5" cy="102.362" rx="58" ry="10.5" fill="black" fill-opacity="0.25"/>
<path fill-rule="evenodd" clip-rule="evenodd" d="M339.585 99.88C340.835 99.0227 341.5 98.1226 341.5 97.1943C341.5 91.3953 315.533 86.6943 283.5 86.6943C251.467 86.6943 225.5 91.3953 225.5 97.1943C225.5 102.993 251.467 107.694 283.5 107.694C287.231 107.694 290.88 107.631 294.415 107.509C293.165 108.366 292.5 109.266 292.5 110.194C292.5 115.993 318.467 120.694 350.5 120.694C382.533 120.694 408.5 115.993 408.5 110.194C408.5 104.395 382.533 99.6943 350.5 99.6943C346.769 99.6943 343.12 99.7581 339.585 99.88Z" fill="black" fill-opacity="0.25"/>
<path d="M323.901 1.5C306.795 1.5 295.622 15.4525 288.559 33.1842C281.482 50.9485 278.434 72.7196 277.679 88.817C277.504 92.5335 279.429 96.0545 282.729 97.8052C315.89 115.399 348.162 106.504 364.177 97.7146C367.252 96.0271 368.962 92.7257 368.858 89.2536C368.377 73.1863 365.684 51.3077 358.875 33.428C352.079 15.5816 341.087 1.5 323.901 1.5Z" fill="#92C9AD" stroke="black" stroke-linecap="round"/>
<path d="M323.901 2C310.032 2 300.075 11.3463 293.058 24.582C292.129 29.7226 293.634 40.4444 307.086 42.2069C320.538 43.9694 328.143 35.2304 330.264 30.6406C334.438 38.3515 346.487 51.46 361.293 42.2069C354.878 20.4455 343.385 2 323.901 2Z" fill="white" fill-opacity="0.5"/>
<path d="M379.988 48.1943C369.432 48.1943 362.446 56.519 357.959 67.1901C353.462 77.8874 351.385 91.1352 350.73 101.406C350.493 105.122 352.411 108.683 355.788 110.319C374.997 119.622 393.485 115.267 403.772 110.207C406.936 108.65 408.649 105.314 408.49 101.841C408.021 91.5823 406.17 78.2275 401.834 67.4199C397.51 56.6394 390.621 48.1943 379.988 48.1943Z" fill="#92C9AD" stroke="black" stroke-linecap="round"/>
<path d="M379.988 48.6943C371.229 48.6943 364.941 54.5968 360.509 62.9556C359.923 66.202 360.873 72.9732 369.369 74.0863C377.864 75.1994 382.667 69.6804 384.006 66.7818C386.642 71.6515 394.252 79.9299 403.602 74.0863C399.551 60.3433 392.293 48.6943 379.988 48.6943Z" fill="white" fill-opacity="0.5"/>
<path d="M124.451 30.1943C111.586 30.1943 103.123 40.5001 97.7268 53.6583C92.3189 66.8456 89.8979 83.1001 89.2062 95.4384C88.9978 99.1548 90.9168 102.689 94.2579 104.379C118.379 116.577 141.71 110.661 154.059 104.276C157.184 102.66 158.893 99.3376 158.759 95.8653C158.285 83.5467 156.135 67.1872 150.926 53.8896C145.729 40.6219 137.394 30.1943 124.451 30.1943Z" fill="#92C9AD" stroke="black" stroke-linecap="round"/>
<path d="M124.451 30.6943C113.891 30.6943 106.309 37.8111 100.966 47.8893C100.258 51.8036 101.404 59.9677 111.647 61.3098C121.891 62.6518 127.681 55.9975 129.296 52.5026C132.474 58.374 141.649 68.3555 152.923 61.3098C148.038 44.7396 139.287 30.6943 124.451 30.6943Z" fill="white" fill-opacity="0.5"/>
<ellipse cx="311.5" cy="125.194" rx="26" ry="3.5" fill="black" fill-opacity="0.25"/>
<path d="M332.325 29.811L328.091 125.686H335.652L332.325 29.811Z" fill="#896736" stroke="black"/>
<path d="M325.671 48.2607C319.067 52.6632 312.565 52.6965 309.944 51.89C319.603 50.4765 328.778 35.3447 332.93 27.6943C334.123 43.1796 344.409 49.6721 348.96 50.6802C341.217 50.6802 334.644 45.0346 332.325 42.2117C332.325 42.2117 330.208 45.2362 325.671 48.2607Z" fill="#14653C" stroke="black"/>
<path d="M325.671 61.2654C318.11 65.802 307.121 66.6086 304.5 65.802C318.413 64.3535 328.173 53.7934 332.325 46.1431C333.518 61.6283 348.355 63.9874 353.194 64.8947C337.769 66.1045 334.644 58.0393 332.325 55.2164C332.325 55.2164 330.347 58.4601 325.671 61.2654Z" fill="#14653C" stroke="black"/>
<path d="M325.671 72.1535C318.11 76.6902 307.121 77.4968 304.5 76.6902C318.413 75.2416 328.173 64.6816 332.325 57.0312C333.518 72.5165 348.052 72.7584 352.891 73.6658C337.467 74.8756 334.644 68.9275 332.325 66.1046C332.325 66.1046 330.347 69.3483 325.671 72.1535Z" fill="#14653C" stroke="black"/>
<path d="M312.666 83.9492C322.586 83.9492 330.51 76.0856 333.232 72.1538C333.232 73.8677 332.204 78.2632 328.091 82.1345C323.977 86.0058 316.094 84.9574 312.666 83.9492Z" fill="#14653C" stroke="black"/>
<path d="M345.935 82.7395C340.612 82.7395 335.249 78.5053 333.232 76.3882C331.821 78.0012 330.026 81.5298 334.14 82.7395C338.253 83.9493 343.717 83.2436 345.935 82.7395Z" fill="#14653C" stroke="black"/>
<path d="M322.344 89.7829C326.612 89.7829 330.913 86.4989 332.529 84.8569C333.661 86.108 335.1 88.8446 331.802 89.7829C328.504 90.7212 324.123 90.1738 322.344 89.7829Z" fill="#14653C" stroke="black"/>
<path d="M151.93 112.752C151.973 112.807 152.026 112.852 152.087 112.884L161.556 117.983C161.666 118.042 161.794 118.058 161.915 118.028L173.569 115.114C173.753 115.068 173.895 114.923 173.936 114.738L175.393 108.182C175.407 108.117 175.408 108.05 175.396 107.984L171.026 83.9472C170.988 83.7385 170.823 83.5764 170.613 83.5429L152.403 80.6293C152.236 80.6025 152.066 80.6625 151.953 80.7886L138.841 95.3565C138.679 95.5369 138.67 95.8079 138.819 95.9991L151.93 112.752Z" fill="#921D64" stroke="black" stroke-linejoin="round"/>
<path d="M152.538 98.3214L161.614 117.171C161.718 117.388 161.961 117.499 162.193 117.438L172.276 114.749C172.527 114.682 172.684 114.434 172.639 114.179L168.465 90.5253C168.407 90.196 168.048 90.0154 167.749 90.165L152.765 97.6573C152.52 97.7795 152.419 98.0752 152.538 98.3214Z" fill="#D55AAA"/>
<path d="M170.227 86.2828L174.158 107.248C174.169 107.31 174.169 107.375 174.156 107.438L173.24 112.022C173.131 112.564 172.353 112.555 172.257 112.011L168.367 89.9662C168.355 89.8971 168.357 89.8261 168.374 89.758L169.25 86.2537C169.38 85.733 170.128 85.7553 170.227 86.2828Z" fill="#AE2A5D"/>
<path d="M152.324 97.2859V82.426C152.324 81.9678 151.759 81.7509 151.453 82.0915L139.823 95.0132C139.559 95.3066 139.723 95.776 140.113 95.8408L151.742 97.7791C152.047 97.8299 152.324 97.5949 152.324 97.2859Z" fill="#BD3789"/>
<path d="M152.324 97.0663V82.6596C152.324 82.2879 152.715 82.0462 153.048 82.2124L167.454 89.4157C167.823 89.6 167.823 90.1259 167.454 90.3101L153.048 97.5135C152.715 97.6797 152.324 97.4379 152.324 97.0663Z" fill="#F37EC6"/>
<path d="M169.253 83.9604L156.448 82.2143C155.899 82.1394 155.654 82.8807 156.139 83.1478L167.78 89.5502C168.067 89.7082 168.426 89.5515 168.506 89.2333L169.67 84.5771C169.742 84.2882 169.548 84.0006 169.253 83.9604Z" fill="#C73F93"/>
<path d="M153.052 97.1492L166.437 90.4563C167.031 90.1598 167.743 90.5122 167.867 91.1637L170.533 105.162" stroke="url(#paint0_linear_31643_165)" stroke-width="1.2" stroke-linecap="round" stroke-linejoin="round"/>
<path d="M194.376 73.0008C194.419 73.1643 194.541 73.2953 194.701 73.3488C194.862 73.4023 195.038 73.3712 195.171 73.2661L211.71 60.1341C211.773 60.0838 211.824 60.0189 211.856 59.9448L214.19 54.6693C214.217 54.6084 214.232 54.5426 214.233 54.476L214.61 33.4926C214.614 33.2805 214.484 33.089 214.285 33.015L199.439 27.4864C199.28 27.4272 199.102 27.4526 198.966 27.5539L185.464 37.6102C185.3 37.7319 185.227 37.9404 185.278 38.1375L194.376 73.0008Z" fill="#921D64" stroke="black" stroke-linejoin="round"/>
<path d="M196.558 42.5426L200.988 59.8279C201.047 60.0605 201.264 60.2178 201.504 60.2028L210.327 59.6483C210.586 59.632 210.79 59.4203 210.796 59.1609L211.27 38.6927C211.278 38.3583 210.961 38.1108 210.639 38.1986L196.911 41.936C196.647 42.0078 196.49 42.2779 196.558 42.5426Z" fill="#D55AAA"/>
<path d="M213.468 35.6489L213.243 53.6343C213.243 53.6983 213.23 53.7615 213.205 53.8206L211.808 57.1685C211.595 57.6787 210.834 57.5171 210.847 56.9644L211.283 38.1297C211.285 38.0595 211.301 37.9905 211.331 37.927L212.516 35.4284C212.746 34.9434 213.475 35.1122 213.468 35.6489Z" fill="#AE2A5D"/>
<path d="M196.552 41.4867L199.009 29.2325C199.099 28.7832 198.587 28.4595 198.22 28.7332L186.494 37.4666C186.177 37.7024 186.246 38.1948 186.615 38.335L195.884 41.8559C196.173 41.9656 196.492 41.7897 196.552 41.4867Z" fill="#BD3789"/>
<path d="M196.595 41.2731L198.982 29.3626C199.056 28.9981 199.487 28.838 199.78 29.0663L210.497 37.4092C210.822 37.6623 210.718 38.178 210.321 38.2862L197.216 41.8538C196.858 41.9515 196.522 41.6376 196.595 41.2731Z" fill="#F37EC6"/>
<path d="M212.97 33.1771L202.913 29.6943C202.389 29.5129 202.003 30.1916 202.427 30.549L210.79 37.6033C211.041 37.8147 211.424 37.7316 211.564 37.4353L213.258 33.8638C213.386 33.5947 213.251 33.2745 212.97 33.1771Z" fill="#C73F93"/>
<path d="M197.172 41.5764L209.397 38.2483C210.037 38.0741 210.666 38.5597 210.66 39.2228L210.544 51.2766" stroke="url(#paint1_linear_31643_165)" stroke-width="1.2" stroke-linecap="round" stroke-linejoin="round"/>
<path d="M228.267 91.2964L202.898 93.9208L146.035 112.292L135.537 143.785L271.132 156.032L305.25 147.284L307 140.286L293.877 106.168L228.267 91.2964Z" fill="#BBBBBB" stroke="black" stroke-linecap="round" stroke-linejoin="round"/>
<path d="M228.103 91.3133L206.027 93.5971C205.057 93.6974 204.79 94.9852 205.64 95.4633L216.738 101.706C216.842 101.764 216.954 101.804 217.071 101.822L277.023 111.38C277.176 111.404 277.333 111.393 277.481 111.346L290.355 107.28C291.328 106.973 291.27 105.577 290.275 105.352L228.427 91.3327C228.321 91.3087 228.212 91.3021 228.103 91.3133Z" fill="#838E97"/>
<path d="M305.25 147.282L271.133 155.155L277.257 128.911L294.753 122.787L305.25 147.282Z" fill="#999999" stroke="black" stroke-linecap="round" stroke-linejoin="round"/>
<path d="M294.753 122.786L293.003 107.039L201.149 94.792L149.535 113.163L277.257 128.909L294.753 122.786Z" fill="#D9D9D9" stroke="black" stroke-linecap="round" stroke-linejoin="round"/>
<path d="M244.013 33.5557L218.644 36.1801L205.522 81.67L289.503 111.413L291.253 62.4243L287.754 36.1801L244.013 33.5557Z" fill="#D9D9D9" stroke="black" stroke-linecap="round" stroke-linejoin="round"/>
<path d="M280.788 43.4262L218.883 38.1201L205.523 81.6715L290.221 110.637L280.788 43.4262Z" fill="#BBBBBB" stroke="black" stroke-linecap="round" stroke-linejoin="round"/>
<path d="M291.254 62.4264L290.22 111.226L280.756 43.1807L287.754 38.8066L291.254 62.4264Z" fill="#999999" stroke="black" stroke-linecap="round" stroke-linejoin="round"/>
<path d="M217.77 64.1763L192.401 66.8007L183.653 110.541L266.759 120.164L289.504 110.541L283.381 79.048L217.77 64.1763Z" fill="#BBBBBB" stroke="black" stroke-linecap="round" stroke-linejoin="round"/>
<path d="M217.77 65.0513L192.401 67.6757L206.397 75.549L266.759 85.1718L283.38 79.923L217.77 65.0513Z" fill="#D9D9D9" stroke="black" stroke-linecap="round" stroke-linejoin="round"/>
<path d="M289.504 108.793L266.76 119.291L270.259 86.0482L282.506 80.7993L289.504 108.793Z" fill="#999999" stroke="black" stroke-linecap="round" stroke-linejoin="round"/>
<path d="M184.527 108.79L227.392 114.038L221.269 155.154L178.403 149.905L184.527 108.79Z" fill="black"/>
<path d="M255.242 90.6549L249.826 89.7048C249.311 89.6144 248.813 89.9368 248.684 90.4442L244.154 108.327C244.067 108.671 244.168 109.035 244.421 109.285L249.708 114.502C250.271 115.058 251.226 114.77 251.389 113.996L256.048 91.8457C256.164 91.2923 255.799 90.7526 255.242 90.6549Z" fill="#553322" stroke="black" stroke-linejoin="round"/>
<path d="M242.788 107.843L183.13 95.9114C182.501 95.7856 181.918 96.2758 181.934 96.9168L182.233 108.933C182.245 109.411 182.592 109.813 183.063 109.894L232.534 118.392C232.606 118.405 232.678 118.409 232.751 118.406L249.028 117.631C249.849 117.592 250.275 116.634 249.755 115.999L243.366 108.19C243.219 108.011 243.015 107.888 242.788 107.843Z" fill="#553322" stroke="black" stroke-linejoin="round"/>
<path d="M220.519 134.765L225.344 108.009C225.44 107.472 225.948 107.112 226.486 107.199L239.565 109.301C240.095 109.386 240.464 109.875 240.399 110.408L234.385 160.288C234.319 160.836 233.821 161.227 233.273 161.161L215.405 159.007C214.805 158.935 214.405 158.349 214.557 157.764L220.519 134.765Z" fill="#DDAA44" stroke="black" stroke-linejoin="round"/>
<path d="M162.782 124.263L167.606 97.5066C167.703 96.9704 168.211 96.6103 168.749 96.6967L181.828 98.799C182.358 98.8842 182.726 99.3729 182.662 99.906L176.648 149.786C176.582 150.335 176.084 150.725 175.536 150.659L157.668 148.505C157.067 148.433 156.668 147.847 156.82 147.262L162.782 124.263Z" fill="#DDAA44" stroke="black" stroke-linejoin="round"/>
<path d="M242.331 157.211L247.433 113.844C247.481 113.435 247.272 113.038 246.908 112.844L241.8 110.134C241.18 109.805 240.423 110.201 240.339 110.898L234.474 159.542C234.382 160.31 235.159 160.888 235.868 160.578L241.738 158.01C242.064 157.868 242.289 157.563 242.331 157.211Z" fill="#AA6622" stroke="black" stroke-linejoin="round"/>
<path d="M184.593 146.713L189.695 103.347C189.744 102.938 189.535 102.54 189.171 102.347L184.063 99.6374C183.443 99.3084 182.686 99.7041 182.602 100.401L176.737 149.045C176.644 149.813 177.422 150.391 178.131 150.081L184.001 147.513C184.327 147.37 184.552 147.066 184.593 146.713Z" fill="#AA6622" stroke="black" stroke-linejoin="round"/>
<path d="M248.418 89.7619L169.99 77.4463C169.46 77.3631 168.959 77.7129 168.854 78.239L166.601 89.5597C166.558 89.7768 166.588 90.0021 166.687 90.2003L167.344 91.5223C167.59 92.0153 167.39 92.614 166.898 92.8612L165.832 93.3969C165.494 93.5666 165.281 93.9123 165.281 94.2904V95.3401C165.281 95.8315 165.638 96.2502 166.123 96.3276L243.281 108.636C243.819 108.722 244.326 108.362 244.423 107.827L246.66 95.4608C246.714 95.164 246.528 94.8764 246.236 94.8029C245.581 94.6383 245.7 93.6737 246.375 93.6737H248.435C248.892 93.6737 249.262 93.3031 249.262 92.8458V90.7498C249.262 90.2574 248.904 89.8383 248.418 89.7619Z" fill="#DDAA44" stroke="black" stroke-linecap="round" stroke-linejoin="round"/>
<path d="M243.139 93.9183L207.271 88.6694" stroke="black" stroke-linecap="round" stroke-linejoin="round"/>
<path d="M170.53 92.1699L188.026 94.7943" stroke="black" stroke-linecap="round" stroke-linejoin="round"/>
<path d="M127.068 139.216C126.965 139.393 126.98 139.615 127.106 139.776L138.093 153.815C138.135 153.869 138.189 153.914 138.25 153.947L146.184 158.219C146.294 158.278 146.422 158.294 146.543 158.264L156.309 155.823C156.492 155.777 156.634 155.631 156.675 155.446L157.896 149.953C157.911 149.888 157.912 149.821 157.9 149.755L154.238 129.613C154.21 129.458 154.11 129.325 153.969 129.255L146.645 125.593C146.552 125.547 146.448 125.53 146.345 125.546L138.411 126.767C138.332 126.779 138.257 126.81 138.193 126.856L131.478 131.739C131.422 131.78 131.376 131.832 131.341 131.892L127.068 139.216Z" fill="#A91C57" stroke="black" stroke-linejoin="round"/>
<path d="M138.7 141.742L146.242 157.405C146.346 157.621 146.589 157.733 146.821 157.671L155.133 155.455C155.384 155.388 155.542 155.14 155.497 154.885L152.031 135.244C151.973 134.915 151.614 134.734 151.315 134.884L138.927 141.078C138.683 141.2 138.582 141.496 138.7 141.742Z" fill="#E02D72"/>
<path d="M153.558 131.95L156.78 149.138C156.792 149.201 156.792 149.266 156.779 149.328L156.098 152.732C155.99 153.274 155.212 153.265 155.116 152.721L151.934 134.689C151.921 134.62 151.924 134.549 151.941 134.481L152.581 131.921C152.711 131.401 153.459 131.423 153.558 131.95Z" fill="#AE2A5D"/>
<path d="M138.403 140.636L137.334 132.08C137.297 131.788 137.017 131.59 136.729 131.654L131.975 132.711C131.845 132.74 131.733 132.819 131.661 132.931L127.906 138.833C127.713 139.135 127.892 139.535 128.245 139.594L137.825 141.191C138.155 141.246 138.445 140.968 138.403 140.636Z" fill="#D71243"/>
<path d="M138.399 140.6L137.312 131.909C137.285 131.688 137.407 131.475 137.612 131.387L145.484 128.013C145.68 127.929 145.907 127.979 146.051 128.137L151.471 134.099C151.694 134.344 151.621 134.734 151.324 134.882L139.119 140.985C138.81 141.139 138.442 140.942 138.399 140.6Z" fill="#FC8AA7"/>
<path d="M134.12 132.235L137.221 131.546C137.251 131.539 137.281 131.53 137.309 131.517L145.509 128.003C145.692 127.925 145.812 127.744 145.812 127.544V127.243C145.812 126.934 145.534 126.699 145.229 126.75L138.604 127.854C138.527 127.867 138.455 127.897 138.392 127.943L133.717 131.343C133.279 131.661 133.591 132.353 134.12 132.235Z" fill="#BF1131"/>
<path d="M152.738 129.539L146.503 126.941C146.174 126.804 145.811 127.046 145.811 127.403V127.68C145.811 127.805 145.857 127.925 145.941 128.017L151.286 133.896C151.555 134.192 152.045 134.069 152.141 133.681L153.031 130.122C153.091 129.882 152.967 129.634 152.738 129.539Z" fill="#AF1043"/>
<path d="M139.097 140.688L150.122 135.175C150.715 134.879 151.427 135.231 151.551 135.882L153.746 147.402" stroke="url(#paint2_linear_31643_165)" stroke-width="1.2" stroke-linecap="round" stroke-linejoin="round"/>
<path d="M217.68 83.9114C217.877 83.947 218.075 83.8627 218.186 83.6968L223.286 76.0462H230.017C230.247 76.0462 230.447 75.89 230.502 75.6674L234.876 58.1713C234.912 58.0277 234.883 57.8756 234.796 57.7559L227.797 48.1331C227.714 48.0194 227.588 47.9457 227.448 47.9302L203.828 45.3058C203.669 45.2881 203.511 45.3478 203.403 45.4664L194.655 55.0893C194.555 55.1995 194.509 55.3488 194.53 55.4963L198.029 79.9909C198.06 80.204 198.223 80.3736 198.435 80.4121L217.68 83.9114Z" fill="#921D64" stroke="black" stroke-linejoin="round"/>
<path d="M214.392 60.291L233.553 58.6248C234.328 58.5574 234.733 57.6696 234.275 57.0404L227.927 48.3116C227.761 48.0842 227.508 47.9369 227.229 47.9058L204.082 45.334C203.763 45.2986 203.447 45.418 203.231 45.6552L195.231 54.4553C194.716 55.0218 195.003 55.9334 195.75 56.1031L214.084 60.2699C214.185 60.2928 214.289 60.3 214.392 60.291Z" fill="#F896CB" stroke="black" stroke-linejoin="round"/>
<path d="M214.271 47.9759V59.1733C214.271 59.4941 213.973 59.7319 213.66 59.6608L195.86 55.6155C195.487 55.5307 195.344 55.0749 195.601 54.7916L203.59 46.0044C203.704 45.8787 203.874 45.8196 204.042 45.8475L213.853 47.4827C214.094 47.5229 214.271 47.7315 214.271 47.9759Z" fill="#C53382"/>
<path d="M217.435 83.3454L210.371 81.7755C210.107 81.7168 209.937 81.4587 209.988 81.193L214.196 59.313C214.24 59.0856 214.434 58.918 214.665 58.9079L233.722 58.0794C234.056 58.0649 234.31 58.3759 234.229 58.7002L230.112 75.1677C230.056 75.3903 229.856 75.5464 229.627 75.5464H223.286C223.119 75.5464 222.963 75.63 222.87 75.7691L217.96 83.1346C217.845 83.3064 217.637 83.3902 217.435 83.3454Z" fill="#D5429C"/>
<path d="M198.891 79.9802L209.42 81.6002C209.686 81.641 209.937 81.4644 209.988 81.2004L214.175 59.4244C214.228 59.1513 214.047 58.8878 213.774 58.8381L195.707 55.5533C195.372 55.4922 195.075 55.7781 195.123 56.1159L198.472 79.5567C198.503 79.7747 198.673 79.9467 198.891 79.9802Z" fill="#921D64"/>
<path d="M232.642 57.9911L214.042 57.9913M214.042 57.9913L209.897 80.7963M214.042 57.9913L214.042 48.4282" stroke="url(#paint3_linear_31643_165)" stroke-width="1.2" stroke-linecap="round" stroke-linejoin="round"/>
<path d="M219.205 160.909C219.247 160.963 219.301 161.008 219.362 161.041L225.693 164.45C225.803 164.509 225.93 164.525 226.051 164.495L233.844 162.547C234.027 162.501 234.169 162.355 234.21 162.17L235.184 157.787C235.199 157.722 235.2 157.655 235.188 157.589L232.266 141.517C232.228 141.309 232.063 141.147 231.853 141.113L219.678 139.165C219.51 139.138 219.34 139.198 219.227 139.324L210.46 149.065C210.298 149.245 210.289 149.516 210.438 149.707L219.205 160.909Z" fill="#921D64" stroke="black" stroke-linejoin="round"/>
<path d="M219.812 151.305L225.75 163.638C225.854 163.854 226.098 163.966 226.33 163.904L232.792 162.181C233.043 162.114 233.201 161.867 233.155 161.611L230.429 146.164C230.371 145.835 230.013 145.654 229.713 145.804L220.039 150.641C219.795 150.763 219.694 151.059 219.812 151.305Z" fill="#D55AAA"/>
<path d="M231.709 143.856L234.191 157.097C234.203 157.159 234.203 157.224 234.19 157.287L233.756 159.457C233.648 159.999 232.87 159.99 232.773 159.446L230.332 145.608C230.319 145.539 230.322 145.468 230.339 145.4L230.732 143.826C230.862 143.306 231.61 143.328 231.709 143.856Z" fill="#AE2A5D"/>
<path d="M219.599 150.27V140.962C219.599 140.503 219.033 140.287 218.727 140.627L211.442 148.721C211.178 149.015 211.342 149.484 211.732 149.549L219.016 150.763C219.321 150.814 219.599 150.579 219.599 150.27Z" fill="#BD3789"/>
<path d="M219.598 150.053V140.956C219.598 140.584 219.99 140.343 220.322 140.509L229.419 145.057C229.787 145.241 229.787 145.767 229.419 145.951L220.322 150.5C219.99 150.666 219.598 150.424 219.598 150.053Z" fill="#F37EC6"/>
<path d="M230.734 141.533L223.24 140.511C222.691 140.436 222.446 141.177 222.931 141.444L229.744 145.192C230.032 145.35 230.391 145.193 230.471 144.875L231.152 142.149C231.224 141.86 231.029 141.573 230.734 141.533Z" fill="#C73F93"/>
<path d="M220.086 150.374L228.644 146.095C229.237 145.798 229.949 146.151 230.073 146.802L231.774 155.731" stroke="url(#paint4_linear_31643_165)" stroke-width="1.2" stroke-linecap="round" stroke-linejoin="round"/>
<path d="M227.698 156.848C227.506 156.923 227.38 157.108 227.38 157.314V165.228C227.38 165.418 227.487 165.591 227.656 165.676L233.744 168.72C233.813 168.754 233.89 168.772 233.967 168.772H246.143C246.286 168.772 246.422 168.711 246.517 168.604L251.387 163.125C251.518 162.978 251.55 162.766 251.469 162.586L248.425 155.89C248.367 155.763 248.259 155.666 248.128 155.622L238.996 152.578C238.885 152.542 238.765 152.544 238.656 152.587L227.698 156.848Z" fill="#F57EC3" stroke="black" stroke-linejoin="round"/>
<path d="M228.622 165.602L233.429 168.005C233.709 168.145 234.047 167.996 234.133 167.695L235.08 164.382C235.142 164.164 235.05 163.932 234.856 163.816L232.422 162.355C232.252 162.253 232.036 162.261 231.874 162.377L228.555 164.748C228.249 164.967 228.285 165.433 228.622 165.602Z" fill="#EA2978"/>
<path d="M245.385 168.272H234.63C234.298 168.272 234.058 167.954 234.15 167.634L235.082 164.373C235.143 164.158 235.339 164.01 235.562 164.01H243.987C244.187 164.01 244.368 164.129 244.447 164.313L245.845 167.575C245.986 167.905 245.744 168.272 245.385 168.272Z" fill="#FAC7EA"/>
<path d="M246.667 167.684L250.701 163.145C250.877 162.948 250.868 162.647 250.68 162.46L248.906 160.685C248.721 160.501 248.426 160.489 248.227 160.659L244.596 163.772C244.43 163.914 244.376 164.147 244.462 164.348L245.833 167.548C245.978 167.885 246.423 167.957 246.667 167.684Z" fill="#F178C2"/>
<path d="M248.103 156.39L250.558 161.79C250.65 161.992 250.392 162.171 250.234 162.014L248.647 160.427C248.602 160.382 248.566 160.329 248.541 160.27L247.051 156.794C246.91 156.464 247.152 156.097 247.511 156.097H247.648C247.844 156.097 248.022 156.212 248.103 156.39Z" fill="#DF399A"/>
<path d="M227.88 164.256V157.724C227.88 157.485 228.048 157.28 228.282 157.233L230.444 156.801C230.71 156.748 230.971 156.917 231.03 157.183L232.069 161.861C232.113 162.057 232.035 162.26 231.872 162.376L228.67 164.663C228.339 164.9 227.88 164.663 227.88 164.256Z" fill="#D52C6B"/>
<path d="M232.141 162.184L235.185 164.011M235.185 164.011H244.317M235.185 164.011L233.968 168.272M244.317 164.011L248.578 160.358M244.317 164.011L246.143 168.272" stroke="url(#paint5_linear_31643_165)" stroke-width="1.2" stroke-linecap="round" stroke-linejoin="round"/>
<path d="M194.823 156.528C194.631 156.603 194.504 156.788 194.504 156.994V166.574C194.504 166.764 194.611 166.937 194.781 167.022L202.15 170.706C202.22 170.741 202.296 170.759 202.374 170.759H217.113C217.256 170.759 217.392 170.698 217.486 170.591L223.382 163.959C223.513 163.811 223.545 163.6 223.463 163.42L219.779 155.313C219.721 155.187 219.614 155.09 219.482 155.046L208.427 151.361C208.317 151.324 208.197 151.327 208.088 151.369L194.823 156.528Z" fill="#F57EC3" stroke="black" stroke-linejoin="round"/>
<path d="M195.747 166.946L201.835 169.99C202.115 170.13 202.453 169.981 202.539 169.68L203.742 165.469C203.804 165.252 203.713 165.02 203.519 164.903L200.444 163.058C200.273 162.956 200.058 162.964 199.896 163.08L195.68 166.092C195.373 166.311 195.41 166.777 195.747 166.946Z" fill="#EA2978"/>
<path d="M216.355 170.259H203.037C202.705 170.259 202.465 169.941 202.556 169.622L203.744 165.463C203.805 165.249 204.002 165.101 204.225 165.101H214.572C214.772 165.101 214.953 165.22 215.032 165.404L216.814 169.562C216.955 169.892 216.713 170.259 216.355 170.259Z" fill="#FAC7EA"/>
<path d="M217.636 169.671L222.695 163.979C222.871 163.781 222.862 163.48 222.675 163.293L220.388 161.006C220.203 160.821 219.908 160.81 219.709 160.98L215.181 164.861C215.015 165.004 214.961 165.237 215.047 165.438L216.803 169.535C216.947 169.872 217.393 169.944 217.636 169.671Z" fill="#F178C2"/>
<path d="M219.457 155.813L222.552 162.622C222.644 162.825 222.386 163.004 222.229 162.847L220.129 160.747C220.084 160.702 220.048 160.649 220.023 160.59L218.149 156.217C218.007 155.887 218.249 155.52 218.608 155.52H219.002C219.198 155.52 219.376 155.635 219.457 155.813Z" fill="#DF399A"/>
<path d="M195.004 165.603V157.404C195.004 157.166 195.173 156.961 195.406 156.914L198.209 156.353C198.476 156.3 198.736 156.47 198.795 156.735L200.091 162.567C200.135 162.763 200.057 162.966 199.894 163.082L195.795 166.01C195.464 166.246 195.004 166.01 195.004 165.603Z" fill="#D52C6B"/>
<path d="M200.163 162.89L203.848 165.1M203.848 165.1H214.902M203.848 165.1L202.374 170.259M214.902 165.1L220.061 160.679M214.902 165.1L217.113 170.259" stroke="url(#paint6_linear_31643_165)" stroke-width="1.2" stroke-linecap="round" stroke-linejoin="round"/>
<path d="M76.0472 128.872C70.5018 130.115 71.1693 137.056 72.1963 140.371C72.1963 142.339 74.4041 146.338 83.2356 146.586C92.067 146.835 91.023 138.196 89.3971 133.845C87.2577 131.669 81.5925 127.629 76.0472 128.872Z" fill="#999999" stroke="black" stroke-linecap="round" stroke-linejoin="round"/>
<path d="M76.0472 128.872C70.5018 130.115 71.1693 137.056 72.1963 140.371C75.4482 141.407 83.441 141.552 89.3971 133.845C87.2577 131.669 81.5925 127.629 76.0472 128.872Z" fill="#D9D9D9" stroke="black" stroke-linecap="round" stroke-linejoin="round"/>
<path d="M86.6963 143.938C85.755 139.276 86.4396 128.523 96.7088 122.805C106.978 117.087 117.761 118.558 121.868 120.008C124.008 121.562 128.235 126.783 128.03 135.236C127.834 143.27 123.187 147.531 117.247 148.156C97.7356 154.514 88.7501 147.993 86.6963 143.938Z" fill="#D9D9D9"/>
<path d="M121.868 120.008C117.761 118.558 106.978 117.087 96.7088 122.805C86.4396 128.523 85.755 139.276 86.6963 143.938C88.7501 147.993 97.7356 154.514 117.247 148.156M121.868 120.008C124.008 121.562 128.235 126.783 128.03 135.236C127.834 143.27 123.187 147.531 117.247 148.156M121.868 120.008C114.68 123.116 106.208 130.264 103.64 135.236C101.073 140.208 102.87 145.492 111.342 147.667C113.373 148.188 115.374 148.353 117.247 148.156" stroke="black" stroke-linecap="round" stroke-linejoin="round"/>
<path d="M121.868 120.008C124.007 121.562 128.235 126.783 128.03 135.236C127.834 143.27 123.187 147.531 117.247 148.156C97.7355 154.514 88.75 147.993 86.6962 143.938C90.2924 143.73 98.5109 142.695 102.616 140.208C102.41 138.602 102.78 136.901 103.64 135.236C106.208 130.263 114.68 123.116 121.868 120.008Z" fill="#676767"/>
<path d="M117.247 148.156C123.187 147.531 127.834 143.27 128.03 135.236C128.235 126.783 124.007 121.562 121.868 120.008C114.68 123.116 106.208 130.263 103.64 135.236C102.78 136.901 102.41 138.602 102.616 140.208M117.247 148.156C115.374 148.353 113.373 148.188 111.342 147.667C105.708 146.22 103.026 143.399 102.616 140.208M117.247 148.156C97.7355 154.514 88.75 147.993 86.6962 143.938C90.2924 143.73 98.5109 142.695 102.616 140.208" stroke="black" stroke-linecap="round" stroke-linejoin="round"/>
<path d="M128.03 135.236C128.235 126.783 124.008 121.562 121.868 120.008C114.68 123.116 106.208 130.263 103.64 135.236C101.073 140.208 102.87 145.492 111.342 147.667C113.373 148.188 115.374 148.353 117.247 148.156C123.187 147.531 127.834 143.27 128.03 135.236Z" fill="#999999" stroke="black" stroke-linecap="round" stroke-linejoin="round"/>
</g>
<defs>
<filter id="filter0_d_31643_165" x="0.0478516" y="37.6943" width="469.683" height="199.755" filterUnits="userSpaceOnUse" color-interpolation-filters="sRGB">
<feFlood flood-opacity="0" result="BackgroundImageFix"/>
<feColorMatrix in="SourceAlpha" type="matrix" values="0 0 0 0 0 0 0 0 0 0 0 0 0 0 0 0 0 0 127 0" result="hardAlpha"/>
<feOffset dy="10"/>
<feComposite in2="hardAlpha" operator="out"/>
<feColorMatrix type="matrix" values="0 0 0 0 0.321569 0 0 0 0 0.239216 0 0 0 0 0.215686 0 0 0 1 0"/>
<feBlend mode="normal" in2="BackgroundImageFix" result="effect1_dropShadow_31643_165"/>
<feBlend mode="normal" in="SourceGraphic" in2="effect1_dropShadow_31643_165" result="shape"/>
</filter>
<linearGradient id="paint0_linear_31643_165" x1="161.793" y1="89.8652" x2="161.793" y2="105.162" gradientUnits="userSpaceOnUse">
<stop stop-color="white"/>
<stop offset="1" stop-color="white" stop-opacity="0"/>
</linearGradient>
<linearGradient id="paint1_linear_31643_165" x1="205.764" y1="36.9172" x2="203.182" y2="49.8007" gradientUnits="userSpaceOnUse">
<stop stop-color="white"/>
<stop offset="1" stop-color="white" stop-opacity="0"/>
</linearGradient>
<linearGradient id="paint2_linear_31643_165" x1="146.421" y1="134.584" x2="146.421" y2="147.402" gradientUnits="userSpaceOnUse">
<stop stop-color="white"/>
<stop offset="1" stop-color="white" stop-opacity="0"/>
</linearGradient>
<linearGradient id="paint3_linear_31643_165" x1="207.179" y1="56.6152" x2="203.569" y2="74.6278" gradientUnits="userSpaceOnUse">
<stop stop-color="white"/>
<stop offset="1" stop-color="white" stop-opacity="0"/>
</linearGradient>
<linearGradient id="paint4_linear_31643_165" x1="225.93" y1="145.504" x2="225.93" y2="155.731" gradientUnits="userSpaceOnUse">
<stop stop-color="white"/>
<stop offset="1" stop-color="white" stop-opacity="0"/>
</linearGradient>
<linearGradient id="paint5_linear_31643_165" x1="240.36" y1="160.358" x2="240.36" y2="168.272" gradientUnits="userSpaceOnUse">
<stop stop-color="white"/>
<stop offset="1" stop-color="white" stop-opacity="0"/>
</linearGradient>
<linearGradient id="paint6_linear_31643_165" x1="210.112" y1="160.679" x2="210.112" y2="170.259" gradientUnits="userSpaceOnUse">
<stop stop-color="white"/>
<stop offset="1" stop-color="white" stop-opacity="0"/>
</linearGradient>
<clipPath id="clip0_31643_165">
<rect width="471" height="238" fill="white"/>
</clipPath>
</defs>
</svg>
