<svg width="433" height="342" viewBox="0 0 433 342" fill="none" xmlns="http://www.w3.org/2000/svg">
<g clip-path="url(#clip0_31643_340)">
<g filter="url(#filter0_d_31643_340)">
<path d="M146.955 18.7048L14.4841 64.3534C6.41543 67.1339 1 74.7279 1 83.2623V86.3487L13.8078 234.691C14.5249 242.997 20.3191 249.987 28.3481 252.232L306.249 329.935C313.979 332.096 322.253 329.426 327.262 323.154L426.491 198.902C431.111 193.117 432.158 185.253 429.211 178.462L363.22 26.3435C360.92 21.0423 356.44 16.995 350.933 15.2437L307.105 1.30543C304.399 0.445008 301.542 0.170465 298.722 0.50006L151.149 17.7489C149.72 17.9158 148.314 18.2363 146.955 18.7048Z" fill="#C5ED74"/>
<path d="M146.955 18.7048L14.4841 64.3534C6.41543 67.1339 1 74.7279 1 83.2623V86.3487L13.8078 234.691C14.5249 242.997 20.3191 249.987 28.3481 252.232L306.249 329.935C313.979 332.096 322.253 329.426 327.262 323.154L426.491 198.902C431.111 193.117 432.158 185.253 429.211 178.462L363.22 26.3435C360.92 21.0423 356.44 16.995 350.933 15.2437L307.105 1.30543C304.399 0.445008 301.542 0.170465 298.722 0.50006L151.149 17.7489C149.72 17.9158 148.314 18.2363 146.955 18.7048Z" stroke="black" stroke-linecap="round"/>
</g>
<ellipse cx="341" cy="205.5" rx="15" ry="5.5" fill="#7EA82B"/>
<ellipse cx="166" cy="205.5" rx="15" ry="5.5" fill="#7EA82B"/>
<ellipse cx="132.5" cy="222.5" rx="34.5" ry="5.5" fill="#7EA82B"/>
<ellipse cx="67" cy="196" rx="25" ry="6" fill="#7EA82B"/>
<ellipse cx="282" cy="228" rx="25" ry="5" fill="#7EA82B"/>
<ellipse cx="308.5" cy="251.5" rx="23.5" ry="5.5" fill="#7EA82B"/>
<ellipse cx="104" cy="199" rx="25" ry="6" fill="#7EA82B"/>
<ellipse cx="242.5" cy="210" rx="80.5" ry="9" fill="#7EA82B"/>
<path d="M72.0271 129.951L67.2942 192.005H86.226L72.0271 129.951Z" fill="#896736" stroke="black" stroke-linejoin="round"/>
<path d="M117.779 173.073H41.8492C37.6887 154.044 49.8236 144.001 56.4111 141.358C52.5973 142.68 44.3455 142.68 41.8492 132.108C39.3529 121.536 54.0377 107.351 59.9318 104.708C44.6812 100.501 56.4111 70 69.9328 70C77.3143 70 102.002 96.82 82.4144 102.983C85.1881 102.983 97.2694 104.708 105.158 124.692C108.857 134.063 102.828 139.158 97.5971 138.107C111.605 146.791 116.815 166.132 117.779 173.073Z" fill="#14653C" stroke="black" stroke-linejoin="round"/>
<path d="M104.106 147.832L99.8989 203.575H118.831L104.106 147.832Z" fill="#896736" stroke="black" stroke-linejoin="round"/>
<path d="M149.332 184.642H74.4423C70.3387 169.885 82.3074 162.097 88.8046 160.047C85.0431 161.072 76.9044 161.072 74.4423 152.873C71.9802 144.675 87.249 138.526 93.0623 136.477C90.3266 125.887 87.9228 104.708 105.158 104.708C122.392 104.708 117.529 125.887 114.452 136.477C117.187 136.477 124.3 138.526 130.866 146.725C137.431 154.923 130.182 159.022 125.736 160.047C142.151 165.786 148.306 178.835 149.332 184.642Z" fill="#238252" stroke="black" stroke-linejoin="round"/>
<path d="M180.05 88.4546C159.098 100.385 144.526 125.604 144.526 146.903C144.526 164.3 154.247 175.136 169.226 181.029H240.83C255.809 175.136 265.53 164.3 265.53 146.903C265.53 125.604 250.958 100.385 230.006 88.4546H180.05Z" fill="#DCA450" stroke="black" stroke-linecap="round"/>
<path d="M150.039 122.313C146.5 130.319 144.526 138.65 144.526 146.453C144.526 152.751 145.812 158.186 148.169 162.833H261.886C264.244 158.186 265.53 152.751 265.53 146.453C265.53 138.65 263.556 130.319 260.017 122.313H150.039Z" fill="#EBD783" stroke="black" stroke-linecap="round"/>
<path d="M205.028 69.5825C201.043 69.5825 197.812 72.6373 197.812 76.4056C197.812 78.955 199.291 81.1777 201.481 82.349H208.575C210.765 81.1777 212.244 78.955 212.244 76.4056C212.244 72.6373 209.013 69.5825 205.028 69.5825Z" fill="#A77148" stroke="black" stroke-linecap="round"/>
<path d="M173.944 92.3401C173.944 84.9828 179.909 79.0186 187.266 79.0186H223.345C230.702 79.0186 236.667 84.9828 236.667 92.3401H173.944Z" fill="#A77148" stroke="black" stroke-linecap="round"/>
<rect x="175.277" y="172.066" width="36.5167" height="9.60965" rx="4" transform="rotate(90 175.277 172.066)" fill="#76500D" stroke="black" stroke-linecap="round"/>
<rect x="256.959" y="172.066" width="36.5167" height="9.60965" rx="4" transform="rotate(90 256.959 172.066)" fill="#76500D" stroke="black" stroke-linecap="round"/>
<rect x="349.211" y="172.066" width="36.5167" height="9.60965" rx="4" transform="rotate(90 349.211 172.066)" fill="#76500D" stroke="black" stroke-linecap="round"/>
<path d="M246.874 52.2935C217.682 68.916 197.379 104.052 197.379 133.728C197.379 157.967 210.923 173.064 231.793 181.274H331.557C352.427 173.064 365.971 157.967 365.971 133.728C365.971 104.052 345.668 68.916 316.476 52.2935H246.874Z" fill="#DCA450" stroke="black" stroke-linecap="round"/>
<path d="M205.06 99.4692C200.129 110.623 197.379 122.23 197.379 133.101C197.379 141.877 199.171 149.449 202.456 155.924H360.894C364.179 149.449 365.971 141.877 365.971 133.101C365.971 122.23 363.221 110.623 358.29 99.4692H205.06Z" fill="#EBD783" stroke="black" stroke-linecap="round"/>
<path d="M281.675 87.0957C253.912 87.0957 231.407 109.487 231.407 137.108C231.407 155.794 241.707 172.087 256.967 180.672H306.383C321.643 172.087 331.943 155.794 331.943 137.108C331.943 109.487 309.437 87.0957 281.675 87.0957Z" fill="#A77148"/>
<path d="M281.675 87.0957C253.912 87.0957 231.407 109.487 231.407 137.108C231.407 155.794 241.707 172.087 256.967 180.672H306.383C321.643 172.087 331.943 155.794 331.943 137.108C331.943 109.487 309.437 87.0957 281.675 87.0957Z" fill="#A77148"/>
<path d="M281.675 87.0957C253.912 87.0957 231.407 109.487 231.407 137.108C231.407 155.794 241.707 172.087 256.967 180.672H306.383C321.643 172.087 331.943 155.794 331.943 137.108C331.943 109.487 309.437 87.0957 281.675 87.0957Z" stroke="black" stroke-linecap="round"/>
<path d="M281.675 95.6011C258.611 95.6011 239.914 113.921 239.914 136.52C239.914 151.809 248.471 165.139 261.148 172.163H302.202C314.879 165.139 323.436 151.809 323.436 136.52C323.436 113.921 304.739 95.6011 281.675 95.6011Z" fill="#C09344" stroke="black" stroke-linecap="round"/>
<path d="M281.675 26C276.122 26 271.621 30.2562 271.621 35.5065C271.621 39.0584 273.681 42.1553 276.733 43.7872H286.617C289.669 42.1553 291.729 39.0584 291.729 35.5065C291.729 30.2562 287.227 26 281.675 26Z" fill="#A77148" stroke="black" stroke-linecap="round"/>
<path d="M238.367 57.708C238.367 47.4573 246.677 39.1475 256.928 39.1475H307.196C317.447 39.1475 325.756 47.4573 325.756 57.708H238.367Z" fill="#A77148" stroke="black" stroke-linecap="round"/>
<path d="M286.864 83.7007C287.122 83.7007 287.337 83.8964 287.362 84.1528L288.995 101.135C289.008 101.275 288.962 101.414 288.867 101.519C288.773 101.623 288.638 101.682 288.497 101.682H275.108C274.967 101.682 274.832 101.623 274.738 101.519C274.643 101.414 274.597 101.275 274.61 101.135L276.243 84.1528C276.268 83.8964 276.483 83.7007 276.741 83.7007H286.864Z" fill="#F7BE4A" stroke="black" stroke-linejoin="round"/>
<path d="M288.497 100.683C288.773 100.683 288.997 100.906 288.997 101.183V106.174C288.997 106.199 288.995 106.225 288.991 106.25L288.497 106.174C288.991 106.25 288.991 106.251 288.991 106.251L288.991 106.252L288.991 106.254L288.99 106.259L288.987 106.274C288.985 106.285 288.982 106.3 288.978 106.319C288.971 106.356 288.959 106.406 288.942 106.468C288.909 106.592 288.855 106.763 288.77 106.966C288.599 107.37 288.303 107.902 287.799 108.432C286.779 109.503 284.966 110.5 281.802 110.5C278.639 110.5 276.826 109.503 275.806 108.432C275.302 107.902 275.006 107.37 274.835 106.966C274.75 106.763 274.696 106.592 274.662 106.468C274.646 106.406 274.634 106.356 274.626 106.319C274.623 106.3 274.62 106.285 274.618 106.274L274.615 106.259L274.614 106.254L274.614 106.252L274.614 106.251C274.614 106.251 274.614 106.25 275.108 106.174L274.614 106.25C274.61 106.225 274.608 106.199 274.608 106.174V101.183C274.608 100.906 274.832 100.683 275.108 100.683H288.497Z" fill="#D39924" stroke="black" stroke-linejoin="round"/>
<path d="M315.766 83.7007C315.906 83.7007 316.04 83.7598 316.135 83.8635L331.647 100.845C331.78 100.991 331.815 101.203 331.735 101.384C331.655 101.565 331.476 101.682 331.278 101.682H316.582C316.407 101.682 316.245 101.591 316.154 101.441L305.867 84.4597C305.774 84.3053 305.771 84.1125 305.859 83.9553C305.948 83.798 306.114 83.7007 306.295 83.7007H315.766Z" fill="white" stroke="black" stroke-linejoin="round"/>
<path d="M331.278 100.683C331.554 100.683 331.778 100.906 331.778 101.183V106.174C331.778 106.202 331.775 106.23 331.771 106.258L331.278 106.174C331.771 106.258 331.77 106.258 331.77 106.259L331.77 106.26L331.77 106.262L331.769 106.267L331.766 106.282C331.764 106.294 331.76 106.309 331.756 106.328C331.747 106.366 331.735 106.417 331.716 106.48C331.679 106.605 331.619 106.778 331.525 106.981C331.336 107.389 331.011 107.921 330.46 108.448C329.348 109.512 327.377 110.5 323.93 110.5C320.482 110.5 318.512 109.512 317.4 108.448C316.848 107.921 316.523 107.389 316.335 106.981C316.241 106.778 316.181 106.605 316.144 106.48C316.125 106.417 316.112 106.366 316.104 106.328C316.099 106.309 316.096 106.294 316.094 106.282L316.091 106.267L316.09 106.262L316.089 106.26L316.089 106.259C316.089 106.258 316.089 106.258 316.582 106.174L316.089 106.258C316.084 106.23 316.082 106.202 316.082 106.174V101.183C316.082 100.906 316.306 100.683 316.582 100.683H331.278Z" fill="#D9D9D9" stroke="black" stroke-linejoin="round"/>
<path d="M306.296 83.7007C306.47 83.7007 306.633 83.792 306.723 83.9416L317.01 100.923C317.104 101.078 317.107 101.271 317.018 101.428C316.93 101.585 316.763 101.682 316.583 101.682H302.213C301.996 101.682 301.803 101.541 301.737 101.334L296.348 84.3519C296.3 84.1999 296.327 84.0341 296.422 83.9054C296.516 83.7767 296.666 83.7007 296.825 83.7007H306.296Z" fill="#F7BE4A" stroke="black" stroke-linejoin="round"/>
<path d="M316.583 100.683C316.859 100.683 317.083 100.906 317.083 101.183V106.174C317.083 106.201 317.08 106.229 317.076 106.256L316.583 106.174C317.076 106.256 317.076 106.256 317.076 106.257L317.075 106.258L317.075 106.26L317.074 106.265L317.071 106.28C317.069 106.292 317.066 106.307 317.062 106.326C317.053 106.363 317.041 106.414 317.023 106.477C316.987 106.602 316.928 106.774 316.836 106.977C316.652 107.384 316.334 107.916 315.795 108.444C314.705 109.51 312.774 110.5 309.398 110.5C306.022 110.5 304.091 109.51 303.001 108.444C302.462 107.916 302.144 107.384 301.96 106.977C301.868 106.774 301.81 106.602 301.773 106.477C301.755 106.414 301.743 106.363 301.734 106.326C301.73 106.307 301.727 106.292 301.725 106.28L301.722 106.265L301.721 106.26L301.721 106.258L301.72 106.257C301.72 106.256 301.72 106.256 302.213 106.174L301.72 106.256C301.716 106.229 301.713 106.201 301.713 106.174V101.183C301.713 100.906 301.937 100.683 302.213 100.683H316.583Z" fill="#D39924" stroke="black" stroke-linejoin="round"/>
<path d="M296.825 83.7007C297.042 83.7007 297.235 83.8418 297.301 84.0495L302.69 101.031C302.738 101.183 302.711 101.349 302.617 101.478C302.522 101.606 302.372 101.682 302.213 101.682H288.497C288.241 101.682 288.027 101.489 288 101.235L286.204 84.2533C286.189 84.1123 286.234 83.9716 286.329 83.8662C286.424 83.7609 286.559 83.7007 286.701 83.7007H296.825Z" fill="white" stroke="black" stroke-linejoin="round"/>
<path d="M302.213 100.683C302.489 100.683 302.713 100.906 302.713 101.183V106.174C302.713 106.2 302.711 106.226 302.707 106.252L302.213 106.174C302.707 106.252 302.707 106.253 302.707 106.253L302.707 106.254L302.706 106.256L302.705 106.261L302.703 106.276C302.701 106.287 302.698 106.303 302.694 106.321C302.686 106.358 302.674 106.409 302.657 106.471C302.622 106.595 302.567 106.767 302.479 106.97C302.304 107.375 302.001 107.907 301.485 108.436C300.442 109.505 298.589 110.5 295.355 110.5C292.121 110.5 290.268 109.505 289.225 108.436C288.709 107.907 288.406 107.375 288.231 106.97C288.143 106.767 288.088 106.595 288.053 106.471C288.036 106.409 288.024 106.358 288.016 106.321C288.012 106.303 288.01 106.287 288.007 106.276L288.005 106.261L288.004 106.256L288.004 106.254L288.003 106.253C288.003 106.253 288.003 106.252 288.497 106.174L288.003 106.252C287.999 106.226 287.997 106.2 287.997 106.174V101.183C287.997 100.906 288.221 100.683 288.497 100.683H302.213Z" fill="#D9D9D9" stroke="black" stroke-linejoin="round"/>
<path d="M266.616 83.7007C266.398 83.7007 266.206 83.8418 266.14 84.0495L260.751 101.031C260.703 101.183 260.73 101.349 260.824 101.478C260.918 101.606 261.068 101.682 261.228 101.682H275.107C275.365 101.682 275.58 101.487 275.605 101.23L277.238 84.2485C277.251 84.1083 277.205 83.9688 277.11 83.8645C277.015 83.7602 276.881 83.7007 276.74 83.7007H266.616Z" fill="white" stroke="black" stroke-linejoin="round"/>
<path d="M275.108 100.683C275.384 100.683 275.608 100.906 275.608 101.183V106.174C275.608 106.2 275.606 106.226 275.602 106.252L275.108 106.174C275.602 106.252 275.602 106.253 275.602 106.253L275.601 106.254L275.601 106.256L275.6 106.261L275.598 106.276C275.595 106.287 275.593 106.303 275.589 106.321C275.581 106.358 275.569 106.409 275.552 106.471C275.517 106.595 275.462 106.767 275.374 106.97C275.199 107.375 274.896 107.907 274.38 108.436C273.337 109.505 271.484 110.5 268.25 110.5C265.016 110.5 263.163 109.505 262.12 108.436C261.604 107.907 261.301 107.375 261.126 106.97C261.038 106.767 260.983 106.595 260.948 106.471C260.931 106.409 260.919 106.358 260.911 106.321C260.907 106.303 260.904 106.287 260.902 106.276L260.9 106.261L260.899 106.256L260.898 106.254L260.898 106.253C260.898 106.253 260.898 106.252 261.392 106.174L260.898 106.252C260.894 106.226 260.892 106.2 260.892 106.174V101.183C260.892 100.906 261.116 100.683 261.392 100.683H275.108Z" fill="#D9D9D9" stroke="black" stroke-linejoin="round"/>
<path d="M257.146 83.7007C256.972 83.7007 256.811 83.7908 256.72 83.9386L246.27 100.92C246.175 101.075 246.171 101.268 246.259 101.426C246.348 101.584 246.515 101.682 246.696 101.682H261.391C261.611 101.682 261.805 101.539 261.869 101.329L267.094 84.3477C267.141 84.1961 267.113 84.0313 267.019 83.9036C266.924 83.776 266.775 83.7007 266.617 83.7007H257.146Z" fill="#F7BE4A" stroke="black" stroke-linejoin="round"/>
<path d="M261.391 100.683C261.667 100.683 261.891 100.906 261.891 101.183V106.174C261.891 106.202 261.888 106.23 261.884 106.258L261.391 106.174C261.884 106.258 261.884 106.258 261.884 106.259L261.883 106.26L261.883 106.262L261.882 106.267L261.879 106.282C261.877 106.294 261.874 106.309 261.869 106.328C261.861 106.366 261.848 106.417 261.829 106.48C261.792 106.605 261.732 106.778 261.638 106.981C261.45 107.389 261.124 107.921 260.573 108.448C259.461 109.512 257.49 110.5 254.043 110.5C250.595 110.5 248.625 109.512 247.513 108.448C246.962 107.921 246.636 107.389 246.448 106.981C246.354 106.778 246.294 106.605 246.257 106.48C246.238 106.417 246.225 106.366 246.217 106.328C246.212 106.309 246.209 106.294 246.207 106.282L246.204 106.267L246.203 106.262L246.203 106.26L246.202 106.259C246.202 106.258 246.202 106.258 246.695 106.174L246.202 106.258C246.197 106.23 246.195 106.202 246.195 106.174V101.183C246.195 100.906 246.419 100.683 246.695 100.683H261.391Z" fill="#D39924" stroke="black" stroke-linejoin="round"/>
<path d="M247.675 83.7007C247.536 83.7007 247.403 83.759 247.308 83.8615L231.633 100.843C231.498 100.989 231.462 101.201 231.542 101.383C231.622 101.565 231.801 101.682 232 101.682H246.696C246.869 101.682 247.031 101.592 247.122 101.444L257.572 84.4627C257.667 84.3085 257.671 84.1149 257.583 83.9568C257.494 83.7987 257.327 83.7007 257.146 83.7007H247.675Z" fill="white" stroke="black" stroke-linejoin="round"/>
<path d="M246.696 100.683C246.972 100.683 247.196 100.906 247.196 101.183V106.174C247.196 106.202 247.193 106.23 247.189 106.258L246.696 106.174C247.189 106.258 247.188 106.258 247.188 106.259L247.188 106.26L247.188 106.262L247.187 106.267L247.184 106.282C247.182 106.294 247.178 106.309 247.174 106.328C247.165 106.366 247.153 106.417 247.134 106.48C247.097 106.605 247.037 106.778 246.943 106.981C246.754 107.389 246.429 107.921 245.878 108.448C244.766 109.512 242.795 110.5 239.348 110.5C235.9 110.5 233.93 109.512 232.818 108.448C232.267 107.921 231.941 107.389 231.753 106.981C231.659 106.778 231.599 106.605 231.562 106.48C231.543 106.417 231.53 106.366 231.522 106.328C231.517 106.309 231.514 106.294 231.512 106.282L231.509 106.267L231.508 106.262L231.507 106.26L231.507 106.259C231.507 106.258 231.507 106.258 232 106.174L231.507 106.258C231.502 106.23 231.5 106.202 231.5 106.174V101.183C231.5 100.906 231.724 100.683 232 100.683H246.696Z" fill="#D9D9D9" stroke="black" stroke-linejoin="round"/>
<path d="M245.656 85.1108H245.156V84.6108V79.3875V79.3043L245.183 79.2256L245.656 79.3875C245.183 79.2256 245.183 79.2248 245.183 79.224L245.184 79.2223L245.185 79.2181L245.189 79.2071C245.192 79.1987 245.196 79.1881 245.201 79.1753C245.212 79.1498 245.226 79.1156 245.245 79.0734C245.284 78.989 245.343 78.8727 245.428 78.7291C245.598 78.4418 245.874 78.0467 246.305 77.5808C247.17 76.6485 248.654 75.4394 251.163 74.2424C256.175 71.8513 265.293 69.4999 281.798 69.4999C298.303 69.4999 307.422 71.8513 312.434 74.2424C314.943 75.4394 316.427 76.6485 317.291 77.5808C317.723 78.0467 317.999 78.4418 318.169 78.7291C318.254 78.8727 318.313 78.989 318.351 79.0734C318.371 79.1156 318.385 79.1498 318.395 79.1753C318.4 79.1881 318.404 79.1987 318.408 79.2071L318.412 79.2181L318.413 79.2223L318.414 79.224C318.414 79.2248 318.414 79.2256 317.941 79.3875L318.414 79.2256L318.441 79.3043V79.3875V84.6108V85.1108H317.941H245.656Z" fill="#D39924" stroke="black"/>
<rect x="168.55" y="180.715" width="167.208" height="11.5316" rx="4" fill="#C09344" stroke="black" stroke-linecap="round"/>
<rect x="252.154" y="190.325" width="71.1114" height="11.5316" rx="4" fill="#C09344" stroke="black" stroke-linecap="round"/>
<rect x="244.466" y="199.934" width="71.1114" height="11.5316" rx="4" fill="#C09344" stroke="black" stroke-linecap="round"/>
<path d="M115.306 218.243C114.365 213.582 115.049 202.829 125.319 197.11C135.588 191.392 146.37 192.863 150.478 194.313C152.617 195.867 156.845 201.088 156.64 209.542C156.444 217.575 151.797 221.836 145.857 222.461C126.345 228.819 117.36 222.298 115.306 218.243Z" fill="#B6B6B6"/>
<path d="M150.478 194.313C146.37 192.863 135.588 191.392 125.319 197.11C115.049 202.829 114.365 213.582 115.306 218.243C117.36 222.298 126.345 228.819 145.857 222.461M150.478 194.313C152.617 195.867 156.845 201.088 156.64 209.542C156.444 217.575 151.797 221.836 145.857 222.461M150.478 194.313C143.29 197.421 134.818 204.569 132.25 209.542C129.683 214.514 131.48 219.797 139.952 221.973C141.983 222.494 143.984 222.658 145.857 222.461" stroke="black" stroke-linecap="round" stroke-linejoin="round"/>
<path d="M150.478 194.313C152.617 195.867 156.845 201.088 156.639 209.542C156.444 217.575 151.797 221.836 145.857 222.461C126.345 228.819 117.36 222.298 115.306 218.243C118.902 218.036 127.121 217 131.226 214.514C131.02 212.907 131.39 211.207 132.25 209.542C134.817 204.569 143.289 197.421 150.478 194.313Z" fill="#7C7C7C"/>
<path d="M145.857 222.461C151.797 221.836 156.444 217.575 156.639 209.542C156.845 201.088 152.617 195.867 150.478 194.313C143.289 197.421 134.817 204.569 132.25 209.542C131.39 211.207 131.02 212.907 131.226 214.514M145.857 222.461C143.984 222.658 141.983 222.494 139.952 221.973C134.318 220.526 131.635 217.704 131.226 214.514M145.857 222.461C126.345 228.819 117.36 222.298 115.306 218.243C118.902 218.036 127.121 217 131.226 214.514" stroke="black" stroke-linecap="round" stroke-linejoin="round"/>
<path d="M156.64 209.542C156.845 201.088 152.617 195.867 150.478 194.313C143.29 197.421 134.818 204.569 132.25 209.542C129.683 214.514 131.48 219.797 139.952 221.973C141.983 222.494 143.984 222.658 145.857 222.461C151.797 221.836 156.444 217.575 156.64 209.542Z" fill="#818181" stroke="black" stroke-linecap="round" stroke-linejoin="round"/>
<path d="M152.547 207.233C147.002 208.476 147.669 215.416 148.696 218.731C148.696 220.7 150.904 224.698 159.736 224.947C168.567 225.195 167.523 216.556 165.897 212.205C163.758 210.03 158.093 205.99 152.547 207.233Z" fill="#999999" stroke="black" stroke-linecap="round" stroke-linejoin="round"/>
<path d="M152.547 207.233C147.002 208.476 147.669 215.416 148.696 218.731C151.948 219.767 159.941 219.913 165.897 212.205C163.758 210.03 158.093 205.99 152.547 207.233Z" fill="#B6B6B6" stroke="black" stroke-linecap="round" stroke-linejoin="round"/>
</g>
<defs>
<filter id="filter0_d_31643_340" x="0.5" y="-0.135254" width="430.864" height="341.31" filterUnits="userSpaceOnUse" color-interpolation-filters="sRGB">
<feFlood flood-opacity="0" result="BackgroundImageFix"/>
<feColorMatrix in="SourceAlpha" type="matrix" values="0 0 0 0 0 0 0 0 0 0 0 0 0 0 0 0 0 0 127 0" result="hardAlpha"/>
<feOffset dy="10"/>
<feComposite in2="hardAlpha" operator="out"/>
<feColorMatrix type="matrix" values="0 0 0 0 0.321569 0 0 0 0 0.239216 0 0 0 0 0.215686 0 0 0 1 0"/>
<feBlend mode="normal" in2="BackgroundImageFix" result="effect1_dropShadow_31643_340"/>
<feBlend mode="normal" in="SourceGraphic" in2="effect1_dropShadow_31643_340" result="shape"/>
</filter>
<clipPath id="clip0_31643_340">
<rect width="433" height="342" fill="white"/>
</clipPath>
</defs>
</svg>
