<svg width="432" height="264" viewBox="0 0 432 264" fill="none" xmlns="http://www.w3.org/2000/svg">
<g clip-path="url(#clip0_31645_1455)">
<path fill-rule="evenodd" clip-rule="evenodd" d="M121.812 33.6059C123.1 33.614 124.52 33.5917 125.983 33.5687C131.987 33.4744 138.741 33.3683 140.278 35.2994C142.046 37.5201 148.073 36.8385 152.37 36.3525C153.36 36.2406 154.258 36.139 154.991 36.0857V41.5677L240.427 -0.305664L279.002 19.0435L317.031 10.9956C321.034 10.1485 325.2 10.5493 328.968 12.144L387.407 36.8788C388.815 36.7761 390.221 36.6153 391.482 36.4709L391.482 36.4709C392.501 36.3543 393.425 36.2485 394.18 36.193V39.7455L418.476 50.0288C425.874 53.16 430.68 60.4136 430.68 68.4469V180.527C430.68 188.768 425.625 196.166 417.947 199.16L284.185 251.327C281.869 252.231 279.404 252.694 276.918 252.694H80.1902C72.7986 252.694 66.0096 248.618 62.5361 242.093L3.72153 131.617C-1.52464 121.763 2.31217 109.521 12.2445 104.424L105.803 56.414C107.381 55.6045 109.059 55.0083 110.794 54.6412L118.95 52.9151V33.3692C117.944 33.0026 117.225 32.0374 117.225 30.9042C117.225 29.4558 118.399 28.2816 119.848 28.2816C121.296 28.2816 122.47 29.4558 122.47 30.9042C122.47 31.5708 122.222 32.1792 121.812 32.6419V33.6059Z" fill="black" fill-opacity="0.15"/>
<path d="M125.983 33.5687L125.976 33.0688L125.976 33.0688L125.983 33.5687ZM121.812 33.6059H121.312V34.1028L121.809 34.1059L121.812 33.6059ZM140.278 35.2994L139.887 35.6108L139.887 35.6108L140.278 35.2994ZM152.37 36.3525L152.426 36.8494L152.426 36.8494L152.37 36.3525ZM154.991 36.0857H155.491V35.548L154.955 35.587L154.991 36.0857ZM154.991 41.5677H154.491V42.3695L155.211 42.0166L154.991 41.5677ZM240.427 -0.305664L240.652 -0.752591L240.43 -0.863749L240.207 -0.754639L240.427 -0.305664ZM279.002 19.0435L278.778 19.4905L278.935 19.5689L279.106 19.5327L279.002 19.0435ZM317.031 10.9956L317.135 11.4847L317.135 11.4847L317.031 10.9956ZM328.968 12.144L329.163 11.6836L329.163 11.6836L328.968 12.144ZM387.407 36.8788L387.212 37.3392L387.323 37.3862L387.443 37.3775L387.407 36.8788ZM391.482 36.4709L391.538 36.9677L391.544 36.9671L391.482 36.4709ZM391.482 36.4709L391.425 35.9741L391.42 35.9748L391.482 36.4709ZM394.18 36.193H394.68V35.6549L394.143 35.6943L394.18 36.193ZM394.18 39.7455H393.68V40.0768L393.985 40.206L394.18 39.7455ZM418.476 50.0288L418.281 50.4892L418.281 50.4892L418.476 50.0288ZM417.947 199.16L418.129 199.626L418.129 199.626L417.947 199.16ZM284.185 251.327L284.003 250.862L284.003 250.862L284.185 251.327ZM62.5361 242.093L62.9775 241.858L62.9775 241.858L62.5361 242.093ZM3.72153 131.617L3.28017 131.852L3.28017 131.852L3.72153 131.617ZM12.2445 104.424L12.0162 103.98L12.0162 103.98L12.2445 104.424ZM105.803 56.414L105.575 55.9691L105.575 55.9691L105.803 56.414ZM110.794 54.6412L110.69 54.1521L110.69 54.1521L110.794 54.6412ZM118.95 52.9151L119.053 53.4043L119.45 53.3204V52.9151H118.95ZM118.95 33.3692H119.45V33.0192L119.121 32.8994L118.95 33.3692ZM121.812 32.6419L121.438 32.3105L121.312 32.4524V32.6419H121.812ZM125.976 33.0688C124.51 33.0918 123.097 33.1139 121.815 33.1059L121.809 34.1059C123.104 34.114 124.529 34.0916 125.991 34.0686L125.976 33.0688ZM140.669 34.988C140.183 34.3772 139.343 33.9865 138.373 33.719C137.386 33.4466 136.174 33.2786 134.844 33.176C132.185 32.9708 128.971 33.0217 125.976 33.0688L125.991 34.0686C129 34.0214 132.164 33.9721 134.767 34.173C136.069 34.2735 137.209 34.4352 138.107 34.683C139.024 34.9358 139.604 35.256 139.887 35.6108L140.669 34.988ZM152.314 35.8557C150.158 36.0995 147.611 36.3867 145.386 36.3411C144.274 36.3182 143.266 36.2124 142.441 35.9868C141.61 35.7598 141.018 35.4261 140.669 34.988L139.887 35.6108C140.422 36.2831 141.246 36.6969 142.177 36.9514C143.113 37.2074 144.212 37.3172 145.365 37.3408C147.67 37.3881 150.285 37.0915 152.426 36.8494L152.314 35.8557ZM154.955 35.587C154.21 35.6412 153.3 35.7441 152.314 35.8557L152.426 36.8494C153.42 36.737 154.307 36.6368 155.028 36.5844L154.955 35.587ZM155.491 41.5677V36.0857H154.491V41.5677H155.491ZM240.207 -0.754639L154.771 41.1187L155.211 42.0166L240.648 0.143311L240.207 -0.754639ZM279.227 18.5966L240.652 -0.752591L240.203 0.141263L278.778 19.4905L279.227 18.5966ZM316.928 10.5064L278.899 18.5544L279.106 19.5327L317.135 11.4847L316.928 10.5064ZM329.163 11.6836C325.301 10.049 321.031 9.63816 316.928 10.5064L317.135 11.4847C321.037 10.6588 325.099 11.0497 328.773 12.6045L329.163 11.6836ZM387.602 36.4183L329.163 11.6836L328.773 12.6045L387.212 37.3392L387.602 36.4183ZM391.425 35.9742C390.162 36.1187 388.767 36.2783 387.371 36.3801L387.443 37.3775C388.863 37.2739 390.279 37.1118 391.538 36.9677L391.425 35.9742ZM391.42 35.9748L391.42 35.9748L391.544 36.9671L391.544 36.967L391.42 35.9748ZM394.143 35.6943C393.376 35.7508 392.441 35.8579 391.425 35.9741L391.539 36.9677C392.561 36.8507 393.474 36.7463 394.217 36.6917L394.143 35.6943ZM394.68 39.7455V36.193H393.68V39.7455H394.68ZM418.671 49.5683L394.375 39.285L393.985 40.206L418.281 50.4892L418.671 49.5683ZM431.18 68.4469C431.18 60.2128 426.253 52.7778 418.671 49.5683L418.281 50.4892C425.494 53.5421 430.18 60.6145 430.18 68.4469H431.18ZM431.18 180.527V68.4469H430.18V180.527H431.18ZM418.129 199.626C425.999 196.557 431.18 188.974 431.18 180.527H430.18C430.18 188.562 425.251 195.775 417.765 198.694L418.129 199.626ZM284.367 251.793L418.129 199.626L417.765 198.694L284.003 250.862L284.367 251.793ZM276.918 253.194C279.466 253.194 281.992 252.719 284.367 251.793L284.003 250.862C281.745 251.742 279.342 252.194 276.918 252.194V253.194ZM80.1902 253.194H276.918V252.194H80.1902V253.194ZM62.0948 242.328C65.6551 249.016 72.6138 253.194 80.1902 253.194V252.194C72.9834 252.194 66.3641 248.219 62.9775 241.858L62.0948 242.328ZM3.28017 131.852L62.0948 242.328L62.9775 241.858L4.16288 131.382L3.28017 131.852ZM12.0162 103.98C1.83559 109.204 -2.09715 121.751 3.28017 131.852L4.16288 131.382C-0.952137 121.774 2.78876 109.839 12.4728 104.869L12.0162 103.98ZM105.575 55.9691L12.0162 103.98L12.4728 104.869L106.032 56.8588L105.575 55.9691ZM110.69 54.1521C108.912 54.5284 107.192 55.1394 105.575 55.9691L106.032 56.8588C107.57 56.0696 109.206 55.4883 110.897 55.1304L110.69 54.1521ZM118.846 52.426L110.69 54.1521L110.897 55.1304L119.053 53.4043L118.846 52.426ZM118.45 33.3692V52.9151H119.45V33.3692H118.45ZM119.121 32.8994C118.306 32.6025 117.725 31.8205 117.725 30.9042H116.725C116.725 32.2542 117.581 33.4028 118.779 33.839L119.121 32.8994ZM117.725 30.9042C117.725 29.7319 118.675 28.7816 119.848 28.7816V27.7816C118.123 27.7816 116.725 29.1796 116.725 30.9042H117.725ZM119.848 28.7816C121.02 28.7816 121.97 29.7319 121.97 30.9042H122.97C122.97 29.1796 121.572 27.7816 119.848 27.7816V28.7816ZM121.97 30.9042C121.97 31.444 121.769 31.9357 121.438 32.3105L122.186 32.9734C122.674 32.4228 122.97 31.6975 122.97 30.9042H121.97ZM122.312 33.6059V32.6419H121.312V33.6059H122.312Z" fill="black"/>
</g>
<defs>
<clipPath id="clip0_31645_1455">
<rect width="432" height="264" fill="white"/>
</clipPath>
</defs>
</svg>
