<svg width="542" height="278" viewBox="0 0 542 278" fill="none" xmlns="http://www.w3.org/2000/svg">
<g clip-path="url(#clip0_31645_1316)">
<path d="M208.51 2.66199L11.7263 105.652C4.70802 109.325 0.518966 116.794 1.04422 124.698L9.26083 248.338C10.0286 259.891 20.4165 268.381 31.8913 266.832L216.615 241.906C217.657 241.765 218.686 241.543 219.693 241.24L391.866 189.54C393.732 188.979 395.67 188.695 397.618 188.695H500.741C507.282 188.695 513.409 185.496 517.149 180.13L537.43 151.031C542.356 143.964 542.203 134.536 537.05 127.632L472.685 41.3992C469.483 37.1095 464.695 34.2824 459.392 33.5503L220.519 0.569798C216.396 0.000507072 212.198 0.731888 208.51 2.66199Z" fill="black" fill-opacity="0.15" stroke="black" stroke-linecap="round"/>
</g>
<defs>
<clipPath id="clip0_31645_1316">
<rect width="542" height="278" fill="white"/>
</clipPath>
</defs>
</svg>
