<svg width="317" height="351" viewBox="0 0 317 351" fill="none" xmlns="http://www.w3.org/2000/svg">
<path fill-rule="evenodd" clip-rule="evenodd" d="M184.365 164.167L172.679 20.9318C171.832 10.5512 163.16 2.55811 152.745 2.55811H150.618C148.999 2.55811 147.385 2.75474 145.814 3.14369L77.1157 20.1435C71.4414 15.1374 64.4195 12.0581 55.7808 12.0581H55.7806C54.8575 12.0581 53.9522 12.0933 53.0644 12.1622C42.4137 12.9891 34.2861 18.6748 28.1583 26.7906C27.3407 27.8735 26.5587 28.9997 25.811 30.1634L25.811 30.1634C25.1555 31.1836 24.5265 32.2326 23.923 33.3065L15.8758 35.2978C6.94983 37.5066 0.680054 45.517 0.680054 54.7122V249.598C0.680054 253.487 1.81393 257.292 3.94288 260.546L38.7591 313.771C42.1752 318.993 47.833 322.322 54.0571 322.771L278.153 338.938C287.284 339.597 295.697 333.971 298.577 325.281L315.144 275.282C318.713 264.513 312.618 252.935 301.72 249.78L259.812 237.649C258.864 236.371 256.429 234.263 253.216 234.418L253.16 234.163C253.097 233.884 253.032 233.607 252.963 233.331C253.916 231.945 254.664 230.002 253.531 228.411C252.944 227.587 251.949 226.956 250.647 226.755C247.197 219.316 241.306 213.178 233.836 209.443C232.074 205.038 229.048 201.254 225.139 198.566L221.797 196.268C217.269 193.156 213.483 189.085 210.706 184.344L210.23 183.531C204.558 173.847 195.227 166.874 184.365 164.167Z" fill="black" fill-opacity="0.15"/>
<path d="M172.679 20.9318L173.177 20.8911L173.177 20.8911L172.679 20.9318ZM184.365 164.167L183.867 164.207L183.896 164.565L184.244 164.652L184.365 164.167ZM145.814 3.14369L145.694 2.65833L145.694 2.65833L145.814 3.14369ZM77.1157 20.1435L76.7849 20.5185L76.9814 20.6918L77.2358 20.6289L77.1157 20.1435ZM55.7806 12.0581L55.7806 11.5581L55.7806 11.5581L55.7806 12.0581ZM53.0644 12.1622L53.1031 12.6607L53.1031 12.6607L53.0644 12.1622ZM28.1583 26.7906L28.5574 27.0919L28.5574 27.0919L28.1583 26.7906ZM25.811 30.1634L25.3903 29.8931L25.3429 29.967L25.3234 30.0526L25.811 30.1634ZM25.811 30.1634L26.2316 30.4337L26.2791 30.3598L26.2986 30.2742L25.811 30.1634ZM23.923 33.3065L24.0431 33.7918L24.253 33.7399L24.3589 33.5514L23.923 33.3065ZM15.8758 35.2978L15.7557 34.8124L15.7557 34.8124L15.8758 35.2978ZM3.94288 260.546L3.52445 260.82L3.52445 260.82L3.94288 260.546ZM38.7591 313.771L39.1775 313.497L39.1775 313.497L38.7591 313.771ZM54.0571 322.771L54.0212 323.269L54.0212 323.269L54.0571 322.771ZM278.153 338.938L278.189 338.439L278.189 338.439L278.153 338.938ZM298.577 325.281L299.051 325.438L299.051 325.438L298.577 325.281ZM315.144 275.282L314.67 275.125L314.67 275.125L315.144 275.282ZM301.72 249.78L301.581 250.261L301.581 250.261L301.72 249.78ZM259.812 237.649L259.411 237.947L259.511 238.082L259.673 238.129L259.812 237.649ZM253.216 234.418L252.728 234.527L252.82 234.937L253.241 234.917L253.216 234.418ZM253.16 234.163L252.672 234.272L252.672 234.272L253.16 234.163ZM252.963 233.331L252.551 233.047L252.424 233.233L252.478 233.451L252.963 233.331ZM253.531 228.411L253.124 228.701L253.124 228.701L253.531 228.411ZM250.647 226.755L250.194 226.966L250.306 227.209L250.571 227.25L250.647 226.755ZM233.836 209.443L233.372 209.628L233.442 209.805L233.612 209.89L233.836 209.443ZM225.139 198.566L224.856 198.978L224.856 198.978L225.139 198.566ZM221.797 196.268L222.08 195.856L222.08 195.856L221.797 196.268ZM210.706 184.344L210.275 184.596L210.275 184.596L210.706 184.344ZM210.23 183.531L210.661 183.278L210.661 183.278L210.23 183.531ZM172.181 20.9725L183.867 164.207L184.863 164.126L173.177 20.8911L172.181 20.9725ZM152.745 3.05811C162.9 3.05811 171.355 10.8514 172.181 20.9725L173.177 20.8911C172.309 10.251 163.421 2.05811 152.745 2.05811V3.05811ZM150.618 3.05811H152.745V2.05811H150.618V3.05811ZM145.934 3.62906C147.466 3.24982 149.039 3.05811 150.618 3.05811V2.05811C148.958 2.05811 147.305 2.25966 145.694 2.65833L145.934 3.62906ZM77.2358 20.6289L145.934 3.62906L145.694 2.65833L76.9956 19.6582L77.2358 20.6289ZM55.7808 12.5581C64.2881 12.5581 71.1946 15.5864 76.7849 20.5185L77.4465 19.7686C71.6883 14.6884 64.5508 11.5581 55.7808 11.5581V12.5581ZM55.7806 12.5581H55.7808V11.5581H55.7806V12.5581ZM53.1031 12.6607C53.9778 12.5928 54.8702 12.5581 55.7806 12.5581L55.7806 11.5581C54.8448 11.5581 53.9266 11.5938 53.0257 11.6637L53.1031 12.6607ZM28.5574 27.0919C34.6223 19.0593 42.63 13.4738 53.1031 12.6607L53.0257 11.6637C42.1974 12.5044 33.9499 18.2903 27.7593 26.4894L28.5574 27.0919ZM26.2317 30.4337C26.9729 29.2799 27.7478 28.1642 28.5574 27.0919L27.7593 26.4894C26.9336 27.5829 26.1444 28.7195 25.3903 29.8931L26.2317 30.4337ZM26.2986 30.2742L26.2986 30.2742L25.3234 30.0526L25.3234 30.0526L26.2986 30.2742ZM24.3589 33.5514C24.9578 32.4856 25.5818 31.4451 26.2316 30.4337L25.3903 29.8931C24.7293 30.922 24.0952 31.9795 23.4871 33.0615L24.3589 33.5514ZM15.9959 35.7832L24.0431 33.7918L23.8029 32.8211L15.7557 34.8124L15.9959 35.7832ZM1.18005 54.7122C1.18005 45.7469 7.29309 37.9367 15.9959 35.7832L15.7557 34.8124C6.60658 37.0765 0.180054 45.2871 0.180054 54.7122H1.18005ZM1.18005 249.598V54.7122H0.180054V249.598H1.18005ZM4.36131 260.272C2.28558 257.099 1.18005 253.39 1.18005 249.598H0.180054C0.180054 253.584 1.34227 257.484 3.52445 260.82L4.36131 260.272ZM39.1775 313.497L4.36131 260.272L3.52445 260.82L38.3407 314.045L39.1775 313.497ZM54.0931 322.272C48.0246 321.834 42.5082 318.589 39.1775 313.497L38.3407 314.045C41.8421 319.397 47.6414 322.809 54.0212 323.269L54.0931 322.272ZM278.189 338.439L54.0931 322.272L54.0212 323.269L278.117 339.437L278.189 338.439ZM298.102 325.123C295.294 333.597 287.092 339.082 278.189 338.439L278.117 339.437C287.476 340.112 296.1 334.346 299.051 325.438L298.102 325.123ZM314.67 275.125L298.102 325.123L299.051 325.438L315.619 275.44L314.67 275.125ZM301.581 250.261C312.207 253.336 318.149 264.625 314.67 275.125L315.619 275.44C319.277 264.401 313.03 252.534 301.859 249.3L301.581 250.261ZM259.673 238.129L301.581 250.261L301.859 249.3L259.951 237.169L259.673 238.129ZM253.241 234.917C256.223 234.773 258.517 236.743 259.411 237.947L260.214 237.351C259.211 236 256.635 233.752 253.192 233.918L253.241 234.917ZM252.672 234.272L252.728 234.527L253.704 234.309L253.647 234.054L252.672 234.272ZM252.478 233.451C252.546 233.724 252.61 233.997 252.672 234.272L253.647 234.054C253.584 233.772 253.518 233.49 253.449 233.21L252.478 233.451ZM253.124 228.701C253.594 229.361 253.683 230.098 253.538 230.854C253.391 231.62 253.005 232.388 252.551 233.047L253.375 233.614C253.874 232.888 254.338 231.991 254.52 231.042C254.705 230.082 254.601 229.052 253.939 228.121L253.124 228.701ZM250.571 227.25C251.754 227.432 252.624 227.998 253.124 228.701L253.939 228.121C253.265 227.175 252.144 226.481 250.723 226.261L250.571 227.25ZM233.612 209.89C240.98 213.574 246.791 219.628 250.194 226.966L251.101 226.545C247.604 219.004 241.632 212.782 234.06 208.995L233.612 209.89ZM224.856 198.978C228.683 201.61 231.647 205.316 233.372 209.628L234.3 209.257C232.502 204.761 229.413 200.898 225.422 198.154L224.856 198.978ZM221.514 196.68L224.856 198.978L225.422 198.154L222.08 195.856L221.514 196.68ZM210.275 184.596C213.088 189.401 216.926 193.526 221.514 196.68L222.08 195.856C217.613 192.785 213.877 188.768 211.137 184.091L210.275 184.596ZM209.798 183.783L210.275 184.596L211.137 184.091L210.661 183.278L209.798 183.783ZM184.244 164.652C194.976 167.327 204.195 174.216 209.798 183.783L210.661 183.278C204.921 173.478 195.478 166.422 184.486 163.682L184.244 164.652Z" fill="black"/>
</svg>
