<svg width="433" height="342" viewBox="0 0 433 342" fill="none" xmlns="http://www.w3.org/2000/svg">
<g clip-path="url(#clip0_31645_1453)">
<path d="M147.135 18.3991L14.6643 64.0477C6.59561 66.8281 1.18018 74.4222 1.18018 82.9565V86.043L13.9879 234.386C14.7051 242.692 20.4993 249.682 28.5283 251.926L306.429 329.629C314.16 331.79 322.433 329.121 327.443 322.848L426.672 198.596C431.292 192.811 432.338 184.948 429.392 178.156L363.4 26.0377C361.1 20.7366 356.62 16.6892 351.113 14.938L307.285 0.999684C304.579 0.139263 301.722 -0.135279 298.902 0.194316L151.329 17.4431C149.901 17.6101 148.494 17.9306 147.135 18.3991Z" fill="black" fill-opacity="0.15" stroke="black" stroke-linecap="round"/>
</g>
<defs>
<clipPath id="clip0_31645_1453">
<rect width="433" height="342" fill="white"/>
</clipPath>
</defs>
</svg>
