<svg width="628" height="322" viewBox="0 0 628 322" fill="none" xmlns="http://www.w3.org/2000/svg">
  <path d="M167.651 28.237L58.901 132.098C56.8972 134.012 55.313 136.321 54.2487 138.879L2.43848 263.41C-2.74115 275.86 5.63204 289.763 19.0588 291.007L339.942 320.74C341.802 320.913 343.676 320.824 345.511 320.476L610.736 270.226C625.596 267.411 632.075 249.756 622.562 237.997L517.867 108.579C512.308 101.708 511.919 92.0024 516.909 84.7078L540.482 50.2482C548.883 37.9677 541.411 21.1406 526.667 19.1379L395.493 1.32007C393.928 1.10744 392.343 1.08102 390.771 1.24137L179.435 22.8038C175.012 23.255 170.866 25.1668 167.651 28.237Z" fill="black" fill-opacity="0.15" stroke="black" stroke-linecap="round"/>
</svg>
