<svg width="471" height="238" viewBox="0 0 471 238" fill="none" xmlns="http://www.w3.org/2000/svg">
<path fill-rule="evenodd" clip-rule="evenodd" d="M287.806 36.5715C289.337 32.3477 291.081 28.3105 293.058 24.582L293.058 24.5816C299.497 12.4361 308.412 3.56568 320.554 2.1871C321.643 2.06343 322.758 2.00005 323.9 2H323.901C342.175 2 353.419 18.2255 360.038 38.1943H417.401C424.304 38.1943 430.72 41.7544 434.372 47.6123L466.186 98.6336C473.586 110.503 466.83 126.108 453.11 128.832L270.428 165.113C268.487 165.498 266.613 166.17 264.869 167.106L157.75 224.573C153.404 226.905 148.35 227.548 143.558 226.38L53.5524 204.436C41.3397 201.459 34.8691 188.087 40.113 176.662L52.5186 149.636C55.8459 142.387 54.5482 133.854 49.2162 127.922L5.7056 79.5169C-5.4856 67.0667 2.65821 47.1977 19.3681 46.1835L105.395 40.9622C109.973 35.0936 115.751 31.2041 122.985 30.7409C123.467 30.71 123.956 30.6943 124.451 30.6943C131.407 30.6943 137.025 33.7816 141.534 38.7688L151 38.1943H185.81L185.762 38.0112L186.491 37.4682L186.493 37.4666L198.22 28.7332L199.265 27.9549L214.11 33.4836L214.026 38.1943H218.063L218.644 36.18L244.013 33.5556L287.754 36.18L287.806 36.5715Z" fill="black" fill-opacity="0.15"/>
<path d="M293.058 24.582L292.619 24.3422L292.616 24.3478L293.058 24.582ZM287.806 36.5715L287.31 36.6376L288.276 36.742L287.806 36.5715ZM293.058 24.5816L293.497 24.8213L293.499 24.8158L293.058 24.5816ZM320.554 2.1871L320.498 1.69029L320.498 1.69029L320.554 2.1871ZM323.9 2L323.9 1.5L323.9 1.5L323.9 2ZM360.038 38.1943L359.564 38.3517L359.677 38.6943H360.038V38.1943ZM434.372 47.6123L433.948 47.8769L433.948 47.8769L434.372 47.6123ZM466.186 98.6336L466.61 98.369L466.61 98.369L466.186 98.6336ZM453.11 128.832L453.013 128.342L453.013 128.342L453.11 128.832ZM270.428 165.113L270.526 165.603L270.526 165.603L270.428 165.113ZM264.869 167.106L264.633 166.665L264.633 166.665L264.869 167.106ZM157.75 224.573L157.514 224.132L157.514 224.132L157.75 224.573ZM143.558 226.38L143.676 225.894L143.676 225.894L143.558 226.38ZM53.5524 204.436L53.6708 203.951L53.6708 203.951L53.5524 204.436ZM40.113 176.662L39.6586 176.454L39.6586 176.454L40.113 176.662ZM52.5186 149.636L52.0642 149.427L52.0642 149.427L52.5186 149.636ZM49.2162 127.922L49.5881 127.588L49.2162 127.922ZM5.7056 79.5169L6.07745 79.1826L6.07745 79.1826L5.7056 79.5169ZM19.3681 46.1835L19.3379 45.6845L19.3379 45.6845L19.3681 46.1835ZM105.395 40.9622L105.426 41.4613L105.651 41.4477L105.79 41.2698L105.395 40.9622ZM122.985 30.7409L123.017 31.2399L123.017 31.2399L122.985 30.7409ZM141.534 38.7688L141.163 39.1042L141.325 39.2825L141.565 39.2679L141.534 38.7688ZM151 38.1943V37.6943H150.985L150.97 37.6953L151 38.1943ZM185.81 38.1943V38.6943H186.457L186.294 38.0681L185.81 38.1943ZM185.762 38.0112L185.464 37.6102L185.193 37.8115L185.278 38.1375L185.762 38.0112ZM186.491 37.4682L186.79 37.8692L186.791 37.8682L186.491 37.4682ZM186.493 37.4666L186.195 37.0656L186.193 37.0666L186.493 37.4666ZM198.22 28.7332L198.519 29.1342L198.519 29.1342L198.22 28.7332ZM199.265 27.9549L199.439 27.4864L199.184 27.3914L198.966 27.5539L199.265 27.9549ZM214.11 33.4836L214.61 33.4926L214.617 33.1386L214.285 33.015L214.11 33.4836ZM214.026 38.1943L213.526 38.1853L213.517 38.6943H214.026V38.1943ZM218.063 38.1943V38.6943H218.439L218.543 38.3329L218.063 38.1943ZM218.644 36.18L218.592 35.6827L218.257 35.7174L218.163 36.0414L218.644 36.18ZM244.013 33.5556L244.043 33.0565L244.002 33.0541L243.962 33.0583L244.013 33.5556ZM287.754 36.18L288.249 36.1139L288.195 35.7056L287.784 35.6809L287.754 36.18ZM292.616 24.3478C290.626 28.1003 288.874 32.1594 287.336 36.4011L288.276 36.742C289.801 32.536 291.535 28.5207 293.499 24.8162L292.616 24.3478ZM292.619 24.3419L292.619 24.3422L293.496 24.8217L293.497 24.8213L292.619 24.3419ZM320.498 1.69029C308.118 3.09593 299.089 12.1379 292.616 24.3474L293.499 24.8158C299.905 12.7342 308.707 4.03543 320.61 2.6839L320.498 1.69029ZM323.9 1.5C322.74 1.50005 321.606 1.56446 320.498 1.69029L320.61 2.6839C321.681 2.56239 322.777 2.50005 323.9 2.5L323.9 1.5ZM323.901 1.5H323.9V2.5H323.901V1.5ZM360.513 38.037C357.192 28.0185 352.699 18.8976 346.711 12.2736C340.714 5.63834 333.207 1.5 323.901 1.5V2.5C332.869 2.5 340.121 6.47441 345.969 12.9441C351.827 19.425 356.266 28.4013 359.564 38.3517L360.513 38.037ZM417.401 37.6943H360.038V38.6943H417.401V37.6943ZM434.797 47.3478C431.053 41.3434 424.477 37.6943 417.401 37.6943V38.6943C424.132 38.6943 430.387 42.1654 433.948 47.8769L434.797 47.3478ZM466.61 98.369L434.797 47.3478L433.948 47.8769L465.761 98.8981L466.61 98.369ZM453.208 129.323C467.27 126.53 474.196 110.535 466.61 98.369L465.761 98.8981C472.977 110.47 466.389 125.686 453.013 128.342L453.208 129.323ZM270.526 165.603L453.208 129.323L453.013 128.342L270.331 164.622L270.526 165.603ZM265.106 167.546C266.806 166.634 268.633 165.979 270.526 165.603L270.331 164.622C268.341 165.018 266.421 165.706 264.633 166.665L265.106 167.546ZM157.986 225.014L265.106 167.546L264.633 166.665L157.514 224.132L157.986 225.014ZM143.439 226.866C148.351 228.063 153.532 227.404 157.986 225.014L157.514 224.132C153.276 226.406 148.348 227.033 143.676 225.894L143.439 226.866ZM53.4339 204.922L143.439 226.866L143.676 225.894L53.6708 203.951L53.4339 204.922ZM39.6586 176.454C34.2836 188.164 40.916 201.87 53.4339 204.922L53.6708 203.951C41.7635 201.048 35.4546 188.009 40.5675 176.871L39.6586 176.454ZM52.0642 149.427L39.6586 176.454L40.5675 176.871L52.973 149.844L52.0642 149.427ZM48.8444 128.257C54.043 134.04 55.3083 142.36 52.0642 149.427L52.973 149.844C56.3835 142.414 55.0533 133.668 49.5881 127.588L48.8444 128.257ZM5.33374 79.8511L48.8444 128.257L49.5881 127.588L6.07745 79.1826L5.33374 79.8511ZM19.3379 45.6845C2.21017 46.724 -6.13723 67.0897 5.33374 79.8511L6.07745 79.1826C-4.83396 67.0437 3.10625 47.6715 19.3984 46.6826L19.3379 45.6845ZM105.365 40.4632L19.3379 45.6845L19.3984 46.6826L105.426 41.4613L105.365 40.4632ZM122.953 30.2419C115.537 30.7168 109.639 34.7084 105.001 40.6547L105.79 41.2698C110.307 35.4788 115.964 31.6915 123.017 31.2399L122.953 30.2419ZM124.451 30.1943C123.946 30.1943 123.446 30.2103 122.953 30.2419L123.017 31.2399C123.488 31.2097 123.967 31.1943 124.451 31.1943V30.1943ZM141.905 38.4335C137.321 33.3635 131.575 30.1943 124.451 30.1943V31.1943C131.238 31.1943 136.729 34.1997 141.163 39.1042L141.905 38.4335ZM150.97 37.6953L141.504 38.2698L141.565 39.2679L151.03 38.6934L150.97 37.6953ZM185.81 37.6943H151V38.6943H185.81V37.6943ZM185.278 38.1375L185.326 38.3206L186.294 38.0681L186.246 37.885L185.278 38.1375ZM186.193 37.0672L185.464 37.6102L186.061 38.4122L186.79 37.8692L186.193 37.0672ZM186.193 37.0666L186.191 37.0682L186.791 37.8682L186.793 37.8666L186.193 37.0666ZM197.921 28.3322L186.195 37.0656L186.792 37.8676L198.519 29.1342L197.921 28.3322ZM198.966 27.5539L197.921 28.3322L198.519 29.1342L199.564 28.3559L198.966 27.5539ZM214.285 33.015L199.439 27.4864L199.09 28.4235L213.936 33.9521L214.285 33.015ZM214.526 38.2033L214.61 33.4926L213.611 33.4746L213.526 38.1853L214.526 38.2033ZM218.063 37.6943H214.026V38.6943H218.063V37.6943ZM218.163 36.0414L217.582 38.0558L218.543 38.3329L219.124 36.3186L218.163 36.0414ZM243.962 33.0583L218.592 35.6827L218.695 36.6774L244.065 34.053L243.962 33.0583ZM287.784 35.6809L244.043 33.0565L243.983 34.0547L287.724 36.6791L287.784 35.6809ZM288.301 36.5054L288.249 36.1139L287.258 36.2461L287.31 36.6376L288.301 36.5054Z" fill="black"/>
</svg>
