<svg xmlns="http://www.w3.org/2000/svg" width="64" height="64" viewBox="0 0 64 64" fill="none">
  <rect width="63.9104" height="63.9104" rx="10" fill="black"/>
  <path fill-rule="evenodd" clip-rule="evenodd" d="M19.2419 31.9647L29.1297 25.4339V25.4454C29.6911 25.0673 30.0348 24.4371 30.0348 23.7611V13.5182C30.0348 13.0943 29.5651 12.8537 29.2213 13.0943L11.5654 25.4225C11.1071 25.7433 10.8322 26.2589 10.8322 26.8203V37.934C10.8322 38.4954 11.1071 39.011 11.5654 39.3318L29.2213 51.6485C29.5651 51.8891 30.0348 51.6371 30.0348 51.2246V40.8785C30.0348 40.2713 29.7255 39.6984 29.2213 39.3662L19.2419 32.7781C18.9555 32.5834 18.9555 32.1594 19.2419 31.9647ZM52.881 37.9339V26.8202C52.881 26.2588 52.606 25.7432 52.1478 25.4224L34.4804 13.0942C34.1367 12.8536 33.6669 13.1057 33.6669 13.5181V23.7611C33.6669 24.4371 34.0106 25.0672 34.572 25.4453L44.4598 31.9761C44.7462 32.1708 44.7462 32.5948 44.4598 32.7895L34.4804 39.3776C33.9762 39.7098 33.6669 40.2827 33.6669 40.8899V51.236C33.6669 51.6599 34.1367 51.9006 34.4804 51.6599L52.1478 39.3317C52.606 39.0109 52.881 38.4953 52.881 37.9339Z" fill="#FAF0F0"/>
</svg>