<svg width="64" height="64" viewBox="0 0 64 64" fill="none" xmlns="http://www.w3.org/2000/svg">
<rect width="63.9104" height="63.9104" rx="10" fill="black"/>
<path fill-rule="evenodd" clip-rule="evenodd" d="M19.2229 32.6688C19.2229 25.7952 24.7952 20.2229 31.6688 20.2229C36.1364 20.2229 40.0543 22.5769 42.2496 26.1122C41.2357 26.0016 40.1514 25.9273 38.9289 25.9273C37.0427 25.9273 35.5576 26.1451 34.5095 26.378V31.6938L34.763 31.682C34.7817 31.6749 34.8079 31.6664 34.8685 31.6465L34.8859 31.6408C35.0322 31.593 35.283 31.5184 35.6345 31.4403C36.3366 31.2843 37.4443 31.1131 38.9289 31.1131C40.8455 31.1131 42.301 31.3249 44.0691 31.5961C44.0993 31.9496 44.1147 32.3074 44.1147 32.6688C44.1147 32.8124 44.1123 32.9553 44.1075 33.0977C42.5529 32.8669 40.9251 32.6688 38.9289 32.6688C37.0427 32.6688 35.5576 32.8866 34.5095 33.1195V38.4353L34.763 38.4235C34.7817 38.4164 34.8078 38.4079 34.8682 38.3881L34.8685 38.388L34.8859 38.3823C35.0322 38.3345 35.283 38.2599 35.6345 38.1818C36.3366 38.0258 37.4443 37.8546 38.9289 37.8546C40.387 37.8546 41.5783 37.9772 42.8433 38.1553C40.8154 42.2777 36.5734 45.1147 31.6688 45.1147C24.7952 45.1147 19.2229 39.5425 19.2229 32.6688ZM49.2422 38.9848C46.6533 46.1871 39.7625 51.3376 31.6688 51.3376C21.3583 51.3376 13 42.9793 13 32.6688C13 22.3583 21.3583 14 31.6688 14C40.025 14 47.0989 19.49 49.4804 27.0599C50.6895 27.1596 52.0668 27.2238 53.7084 27.2238V32.4096C52.4595 32.4096 51.3449 32.3751 50.3344 32.3173C50.3366 32.4342 50.3376 32.5514 50.3376 32.6688C50.3376 33.0695 50.325 33.4671 50.3002 33.8615C51.3056 33.9261 52.4264 33.9653 53.7084 33.9653V39.1511C51.9922 39.1511 50.5296 39.086 49.2422 38.9848Z" fill="white"/>
</svg>
