<svg width="390" height="115" viewBox="0 0 390 115" fill="none" xmlns="http://www.w3.org/2000/svg">
  <path
    d="M17.9294 17.4451C19.649 7.92469 27.9364 1 37.6109 1H352.934C362.608 1 370.896 7.92469 372.615 17.4451L390 113.693H0.544922L17.9294 17.4451Z"
    fill="#435589" stroke="black" />
  <g filter="url(#filter0_i_31843_1291)">
    <path
      d="M34.7121 21.2997C35.3727 16.3298 39.6113 12.6172 44.625 12.6172H347.375C352.389 12.6172 356.627 16.3298 357.288 21.2997L368.596 106.383H23.4043L34.7121 21.2997Z"
      fill="#483F7D" />
  </g>
  <path
    d="M34.7121 21.2997C35.3727 16.3298 39.6113 12.6172 44.625 12.6172H347.375C352.389 12.6172 356.627 16.3298 357.288 21.2997L368.596 106.383H23.4043L34.7121 21.2997Z"
    stroke="black" />
  <g filter="url(#filter1_d_31843_1291)">
    <path
      d="M326.69 32.9372C326.042 29.2632 328.868 25.8945 332.599 25.8945H338.669C341.58 25.8945 344.071 27.9847 344.577 30.8518L344.949 32.9582C345.597 36.6322 342.771 40.0009 339.04 40.0009H332.971C330.059 40.0009 327.568 37.9108 327.062 35.0436L326.69 32.9372Z"
      fill="#A6A6D2" />
    <path
      d="M326.69 32.9372C326.042 29.2632 328.868 25.8945 332.599 25.8945H338.669C341.58 25.8945 344.071 27.9847 344.577 30.8518L344.949 32.9582C345.597 36.6322 342.771 40.0009 339.04 40.0009H332.971C330.059 40.0009 327.568 37.9108 327.062 35.0436L326.69 32.9372Z"
      stroke="black" />
  </g>
  <g filter="url(#filter2_d_31843_1291)">
    <path
      d="M298.023 32.5956C297.603 29.0286 300.39 25.8945 303.982 25.8945H310.154C313.197 25.8945 315.758 28.1718 316.113 31.1935L316.361 33.2999C316.781 36.8668 313.994 40.0009 310.402 40.0009H304.229C301.187 40.0009 298.626 37.7236 298.271 34.702L298.023 32.5956Z"
      fill="#A6A6D2" />
    <path
      d="M298.023 32.5956C297.603 29.0286 300.39 25.8945 303.982 25.8945H310.154C313.197 25.8945 315.758 28.1718 316.113 31.1935L316.361 33.2999C316.781 36.8668 313.994 40.0009 310.402 40.0009H304.229C301.187 40.0009 298.626 37.7236 298.271 34.702L298.023 32.5956Z"
      stroke="black" />
  </g>
  <g filter="url(#filter3_d_31843_1291)">
    <path
      d="M73.6042 32.9573C72.9558 36.6313 75.7821 40 79.5129 40H85.5828C88.4942 40 90.9855 37.9099 91.4915 35.0427L91.8632 32.9363C92.5115 29.2623 89.6853 25.8936 85.9545 25.8936H79.8846C76.9731 25.8936 74.4818 27.9838 73.9759 30.8509L73.6042 32.9573Z"
      fill="#A6A6D2" />
    <path
      d="M73.6042 32.9573C72.9558 36.6313 75.7821 40 79.5129 40H85.5828C88.4942 40 90.9855 37.9099 91.4915 35.0427L91.8632 32.9363C92.5115 29.2623 89.6853 25.8936 85.9545 25.8936H79.8846C76.9731 25.8936 74.4818 27.9838 73.9759 30.8509L73.6042 32.9573Z"
      stroke="black" />
  </g>
  <g filter="url(#filter4_d_31843_1291)">
    <path
      d="M44.9378 33.299C44.5181 36.8659 47.3051 40 50.8967 40H57.0692C60.1118 40 62.6726 37.7227 63.0281 34.701L63.2759 32.5947C63.6956 29.0277 60.9086 25.8936 57.317 25.8936H51.1445C48.102 25.8936 45.5411 28.1709 45.1856 31.1926L44.9378 33.299Z"
      fill="#A6A6D2" />
    <path
      d="M44.9378 33.299C44.5181 36.8659 47.3051 40 50.8967 40H57.0692C60.1118 40 62.6726 37.7227 63.0281 34.701L63.2759 32.5947C63.6956 29.0277 60.9086 25.8936 57.317 25.8936H51.1445C48.102 25.8936 45.5411 28.1709 45.1856 31.1926L44.9378 33.299Z"
      stroke="black" />
  </g>
  <g filter="url(#filter5_d_31843_1291)">
    <path
      d="M133.288 31.2129H136.312V43.2129H133.288V31.2129ZM142.824 31.2129H145.832V43.2129H142.824V31.2129ZM134.968 35.8049H144.104V38.4609H134.968V35.8049ZM154.691 43.4689C153.283 43.4689 152.045 43.2076 150.979 42.6849C149.923 42.1622 149.101 41.4316 148.515 40.4929C147.928 39.5542 147.635 38.4609 147.635 37.2129C147.635 35.9649 147.928 34.8716 148.515 33.9329C149.101 32.9942 149.923 32.2636 150.979 31.7409C152.045 31.2182 153.283 30.9569 154.691 30.9569C156.099 30.9569 157.331 31.2182 158.387 31.7409C159.453 32.2636 160.28 32.9942 160.867 33.9329C161.464 34.8716 161.763 35.9649 161.763 37.2129C161.763 38.4609 161.464 39.5542 160.867 40.4929C160.28 41.4316 159.453 42.1622 158.387 42.6849C157.331 43.2076 156.099 43.4689 154.691 43.4689ZM154.691 40.7649C155.523 40.7649 156.237 40.6262 156.835 40.3489C157.432 40.0609 157.891 39.6502 158.211 39.1169C158.541 38.5836 158.707 37.9489 158.707 37.2129C158.707 36.4769 158.541 35.8422 158.211 35.3089C157.891 34.7756 157.432 34.3702 156.835 34.0929C156.237 33.8049 155.523 33.6609 154.691 33.6609C153.869 33.6609 153.16 33.8049 152.563 34.0929C151.965 34.3702 151.501 34.7756 151.171 35.3089C150.84 35.8422 150.675 36.4769 150.675 37.2129C150.675 37.9489 150.84 38.5836 151.171 39.1169C151.501 39.6502 151.965 40.0609 152.563 40.3489C153.16 40.6262 153.869 40.7649 154.691 40.7649ZM166.814 32.5409H169.838V43.2129H166.814V32.5409ZM162.142 31.2129H174.51V33.8849H162.142V31.2129ZM182.752 32.5409H185.776V43.2129H182.752V32.5409ZM178.08 31.2129H190.448V33.8849H178.08V31.2129ZM197.878 43.4689C196.47 43.4689 195.233 43.2076 194.166 42.6849C193.11 42.1622 192.289 41.4316 191.702 40.4929C191.116 39.5542 190.822 38.4609 190.822 37.2129C190.822 35.9649 191.116 34.8716 191.702 33.9329C192.289 32.9942 193.11 32.2636 194.166 31.7409C195.233 31.2182 196.47 30.9569 197.878 30.9569C199.286 30.9569 200.518 31.2182 201.574 31.7409C202.641 32.2636 203.468 32.9942 204.054 33.9329C204.652 34.8716 204.95 35.9649 204.95 37.2129C204.95 38.4609 204.652 39.5542 204.054 40.4929C203.468 41.4316 202.641 42.1622 201.574 42.6849C200.518 43.2076 199.286 43.4689 197.878 43.4689ZM197.878 40.7649C198.71 40.7649 199.425 40.6262 200.022 40.3489C200.62 40.0609 201.078 39.6502 201.398 39.1169C201.729 38.5836 201.894 37.9489 201.894 37.2129C201.894 36.4769 201.729 35.8422 201.398 35.3089C201.078 34.7756 200.62 34.3702 200.022 34.0929C199.425 33.8049 198.71 33.6609 197.878 33.6609C197.057 33.6609 196.348 33.8049 195.75 34.0929C195.153 34.3702 194.689 34.7756 194.358 35.3089C194.028 35.8422 193.862 36.4769 193.862 37.2129C193.862 37.9489 194.028 38.5836 194.358 39.1169C194.689 39.6502 195.153 40.0609 195.75 40.3489C196.348 40.6262 197.057 40.7649 197.878 40.7649ZM206.741 43.2129V31.2129H209.749V40.7969L208.933 40.1729L216.037 31.2129H219.237L209.461 43.2129H206.741ZM212.485 37.4049L214.661 35.5329L219.397 43.2129H215.973L212.485 37.4049ZM230.603 36.0929V38.3329H221.915V36.0929H230.603ZM223.963 37.2129L223.163 42.1729L221.899 40.7489H231.115V43.2129H220.139L221.067 37.2129L220.139 31.2129H231.035V33.6769H221.899L223.163 32.2529L223.963 37.2129ZM244.221 41.1489L243.245 41.3249V31.2129H246.173V43.2129H242.365L235.053 33.1009L236.029 32.9249V43.2129H233.101V31.2129H237.021L244.221 41.1489ZM247.931 39.2929H250.987C251.04 39.6556 251.206 39.9756 251.483 40.2529C251.76 40.5302 252.128 40.7436 252.587 40.8929C253.056 41.0422 253.6 41.1169 254.219 41.1169C255.104 41.1169 255.798 40.9942 256.299 40.7489C256.811 40.5036 257.067 40.1569 257.067 39.7089C257.067 39.3676 256.918 39.1062 256.619 38.9249C256.331 38.7329 255.787 38.5942 254.987 38.5089L252.667 38.2689C251.056 38.1089 249.888 37.7356 249.163 37.1489C248.448 36.5622 248.091 35.7622 248.091 34.7489C248.091 33.9489 248.326 33.2662 248.795 32.7009C249.275 32.1356 249.942 31.7036 250.795 31.4049C251.659 31.1062 252.667 30.9569 253.819 30.9569C254.96 30.9569 255.968 31.1222 256.843 31.4529C257.718 31.7836 258.416 32.2422 258.939 32.8289C259.462 33.4156 259.744 34.0982 259.787 34.8769H256.731C256.688 34.5569 256.539 34.2849 256.283 34.0609C256.038 33.8262 255.702 33.6449 255.275 33.5169C254.859 33.3782 254.352 33.3089 253.755 33.3089C252.955 33.3089 252.315 33.4262 251.835 33.6609C251.366 33.8849 251.131 34.2102 251.131 34.6369C251.131 34.9569 251.27 35.2076 251.547 35.3889C251.835 35.5702 252.342 35.7036 253.067 35.7889L255.515 36.0609C256.635 36.1782 257.531 36.3649 258.203 36.6209C258.875 36.8769 259.36 37.2289 259.659 37.6769C259.958 38.1249 260.107 38.6902 260.107 39.3729C260.107 40.1942 259.856 40.9142 259.355 41.5329C258.864 42.1409 258.171 42.6156 257.275 42.9569C256.39 43.2982 255.355 43.4689 254.171 43.4689C252.944 43.4689 251.867 43.2929 250.939 42.9409C250.022 42.5889 249.296 42.1036 248.763 41.4849C248.24 40.8556 247.963 40.1249 247.931 39.2929Z"
      fill="url(#paint0_linear_31843_1291)" />
  </g>
  <defs>
    <filter id="filter0_i_31843_1291" x="22.8335" y="12.1172" width="346.333" height="94.7656"
      filterUnits="userSpaceOnUse" color-interpolation-filters="sRGB">
      <feFlood flood-opacity="0" result="BackgroundImageFix" />
      <feBlend mode="normal" in="SourceGraphic" in2="BackgroundImageFix" result="shape" />
      <feColorMatrix in="SourceAlpha" type="matrix"
        values="0 0 0 0 0 0 0 0 0 0 0 0 0 0 0 0 0 0 127 0" result="hardAlpha" />
      <feOffset dy="6" />
      <feComposite in2="hardAlpha" operator="arithmetic" k2="-1" k3="1" />
      <feColorMatrix type="matrix" values="0 0 0 0 0 0 0 0 0 0 0 0 0 0 0 0 0 0 0.25 0" />
      <feBlend mode="normal" in2="shape" result="effect1_innerShadow_31843_1291" />
    </filter>
    <filter id="filter1_d_31843_1291" x="326.097" y="25.3945" width="19.4452" height="17.1064"
      filterUnits="userSpaceOnUse" color-interpolation-filters="sRGB">
      <feFlood flood-opacity="0" result="BackgroundImageFix" />
      <feColorMatrix in="SourceAlpha" type="matrix"
        values="0 0 0 0 0 0 0 0 0 0 0 0 0 0 0 0 0 0 127 0" result="hardAlpha" />
      <feOffset dy="2" />
      <feComposite in2="hardAlpha" operator="out" />
      <feColorMatrix type="matrix" values="0 0 0 0 0 0 0 0 0 0 0 0 0 0 0 0 0 0 1 0" />
      <feBlend mode="normal" in2="BackgroundImageFix" result="effect1_dropShadow_31843_1291" />
      <feBlend mode="normal" in="SourceGraphic" in2="effect1_dropShadow_31843_1291" result="shape" />
    </filter>
    <filter id="filter2_d_31843_1291" x="297.481" y="25.3945" width="19.4221" height="17.1064"
      filterUnits="userSpaceOnUse" color-interpolation-filters="sRGB">
      <feFlood flood-opacity="0" result="BackgroundImageFix" />
      <feColorMatrix in="SourceAlpha" type="matrix"
        values="0 0 0 0 0 0 0 0 0 0 0 0 0 0 0 0 0 0 127 0" result="hardAlpha" />
      <feOffset dy="2" />
      <feComposite in2="hardAlpha" operator="out" />
      <feColorMatrix type="matrix" values="0 0 0 0 0 0 0 0 0 0 0 0 0 0 0 0 0 0 1 0" />
      <feBlend mode="normal" in2="BackgroundImageFix" result="effect1_dropShadow_31843_1291" />
      <feBlend mode="normal" in="SourceGraphic" in2="effect1_dropShadow_31843_1291" result="shape" />
    </filter>
    <filter id="filter3_d_31843_1291" x="73.0111" y="25.3936" width="19.4452" height="17.1064"
      filterUnits="userSpaceOnUse" color-interpolation-filters="sRGB">
      <feFlood flood-opacity="0" result="BackgroundImageFix" />
      <feColorMatrix in="SourceAlpha" type="matrix"
        values="0 0 0 0 0 0 0 0 0 0 0 0 0 0 0 0 0 0 127 0" result="hardAlpha" />
      <feOffset dy="2" />
      <feComposite in2="hardAlpha" operator="out" />
      <feColorMatrix type="matrix" values="0 0 0 0 0 0 0 0 0 0 0 0 0 0 0 0 0 0 1 0" />
      <feBlend mode="normal" in2="BackgroundImageFix" result="effect1_dropShadow_31843_1291" />
      <feBlend mode="normal" in="SourceGraphic" in2="effect1_dropShadow_31843_1291" result="shape" />
    </filter>
    <filter id="filter4_d_31843_1291" x="44.3958" y="25.3936" width="19.4221" height="17.1064"
      filterUnits="userSpaceOnUse" color-interpolation-filters="sRGB">
      <feFlood flood-opacity="0" result="BackgroundImageFix" />
      <feColorMatrix in="SourceAlpha" type="matrix"
        values="0 0 0 0 0 0 0 0 0 0 0 0 0 0 0 0 0 0 127 0" result="hardAlpha" />
      <feOffset dy="2" />
      <feComposite in2="hardAlpha" operator="out" />
      <feColorMatrix type="matrix" values="0 0 0 0 0 0 0 0 0 0 0 0 0 0 0 0 0 0 1 0" />
      <feBlend mode="normal" in2="BackgroundImageFix" result="effect1_dropShadow_31843_1291" />
      <feBlend mode="normal" in="SourceGraphic" in2="effect1_dropShadow_31843_1291" result="shape" />
    </filter>
    <filter id="filter5_d_31843_1291" x="133.288" y="29.957" width="126.819" height="13.5117"
      filterUnits="userSpaceOnUse" color-interpolation-filters="sRGB">
      <feFlood flood-opacity="0" result="BackgroundImageFix" />
      <feColorMatrix in="SourceAlpha" type="matrix"
        values="0 0 0 0 0 0 0 0 0 0 0 0 0 0 0 0 0 0 127 0" result="hardAlpha" />
      <feOffset dy="-1" />
      <feComposite in2="hardAlpha" operator="out" />
      <feColorMatrix type="matrix" values="0 0 0 0 0 0 0 0 0 0 0 0 0 0 0 0 0 0 0.5 0" />
      <feBlend mode="normal" in2="BackgroundImageFix" result="effect1_dropShadow_31843_1291" />
      <feBlend mode="normal" in="SourceGraphic" in2="effect1_dropShadow_31843_1291" result="shape" />
    </filter>
    <linearGradient id="paint0_linear_31843_1291" x1="196.394" y1="29.2129" x2="196.394"
      y2="45.2129" gradientUnits="userSpaceOnUse">
      <stop stop-color="#A6A6DB" />
      <stop offset="1" stop-color="#7A7AB0" />
    </linearGradient>
  </defs>
</svg>