<svg width="95" height="19" viewBox="0 0 95 19" fill="none" xmlns="http://www.w3.org/2000/svg">
<mask id="path-1-outside-1_33395_4703" maskUnits="userSpaceOnUse" x="-0.000366211" y="0" width="95" height="19" fill="black">
<rect fill="white" x="-0.000366211" width="95" height="19"/>
<path d="M7.06717 4.22H12.2272V17H7.06717V4.22ZM1.66717 2H17.6272V6.6H1.66717V2ZM24.0933 17.36C22.5733 17.36 21.2399 17.1067 20.0933 16.6C18.9599 16.0933 18.0733 15.38 17.4333 14.46C16.8066 13.54 16.4933 12.4733 16.4933 11.26C16.4933 10.0333 16.8066 8.96 17.4333 8.04C18.0733 7.12 18.9599 6.40667 20.0933 5.9C21.2399 5.39333 22.5733 5.14 24.0933 5.14C25.6133 5.14 26.9399 5.39333 28.0733 5.9C29.2199 6.40667 30.1066 7.12 30.7333 8.04C31.3733 8.96 31.6933 10.0333 31.6933 11.26C31.6933 12.4733 31.3733 13.54 30.7333 14.46C30.1066 15.38 29.2199 16.0933 28.0733 16.6C26.9399 17.1067 25.6133 17.36 24.0933 17.36ZM24.0933 13.66C24.6266 13.66 25.0733 13.5667 25.4333 13.38C25.8066 13.1933 26.0866 12.92 26.2733 12.56C26.4733 12.2 26.5733 11.7667 26.5733 11.26C26.5733 10.74 26.4733 10.3 26.2733 9.94C26.0866 9.58 25.8066 9.30667 25.4333 9.12C25.0733 8.93333 24.6266 8.84 24.0933 8.84C23.5733 8.84 23.1266 8.93333 22.7533 9.12C22.3799 9.30667 22.0933 9.58 21.8933 9.94C21.7066 10.3 21.6133 10.74 21.6133 11.26C21.6133 11.7667 21.7066 12.2 21.8933 12.56C22.0933 12.92 22.3799 13.1933 22.7533 13.38C23.1266 13.5667 23.5733 13.66 24.0933 13.66ZM38.2247 13.06L36.8647 12.62L42.6047 5.5H47.7647L37.6247 17H33.1447V1.6H38.2247V13.06ZM39.3247 11.44L43.2447 8.94L48.0447 17H42.4047L39.3247 11.44ZM54.9889 17.36C53.5622 17.36 52.2822 17.1067 51.1489 16.6C50.0289 16.08 49.1422 15.36 48.4889 14.44C47.8356 13.5067 47.5089 12.4267 47.5089 11.2C47.5089 9.98667 47.8222 8.92667 48.4489 8.02C49.0889 7.11333 49.9556 6.40667 51.0489 5.9C52.1422 5.39333 53.3689 5.14 54.7289 5.14C56.1556 5.14 57.3689 5.43333 58.3689 6.02C59.3689 6.60667 60.1356 7.44 60.6689 8.52C61.2022 9.58667 61.4689 10.8533 61.4689 12.32H51.6689V9.98H58.5089L57.1489 10.74C57.0822 10.22 56.9489 9.78667 56.7489 9.44C56.5489 9.09333 56.2822 8.83333 55.9489 8.66C55.6289 8.47333 55.2422 8.38 54.7889 8.38C54.2822 8.38 53.8489 8.49333 53.4889 8.72C53.1422 8.94667 52.8756 9.26 52.6889 9.66C52.5156 10.0467 52.4289 10.4867 52.4289 10.98C52.4289 11.62 52.5689 12.16 52.8489 12.6C53.1422 13.0267 53.5822 13.3533 54.1689 13.58C54.7556 13.8067 55.4956 13.92 56.3889 13.92C57.2556 13.92 58.0956 13.8133 58.9089 13.6C59.7356 13.3733 60.4956 13.0533 61.1889 12.64V15.52C60.3356 16.12 59.3622 16.58 58.2689 16.9C57.1889 17.2067 56.0956 17.36 54.9889 17.36ZM62.3312 5.5H67.4112L68.2112 10.4V17H63.1312V9.62L62.3312 5.5ZM72.1912 5.14C73.3112 5.14 74.2646 5.36667 75.0512 5.82C75.8379 6.26 76.4379 6.88667 76.8512 7.7C77.2779 8.5 77.4912 9.44 77.4912 10.52V17H72.4112V11.24C72.4112 10.6 72.2312 10.1067 71.8712 9.76C71.5246 9.41333 71.0312 9.24 70.3912 9.24C69.9379 9.24 69.5446 9.33333 69.2112 9.52C68.8912 9.69333 68.6446 9.95333 68.4712 10.3C68.2979 10.6333 68.2112 11.04 68.2112 11.52L66.7112 10.76C66.8979 9.50667 67.2579 8.46667 67.7912 7.64C68.3246 6.8 68.9712 6.17333 69.7312 5.76C70.4912 5.34667 71.3112 5.14 72.1912 5.14ZM93.5375 13.08C93.5375 14.04 93.2375 14.84 92.6375 15.48C92.0375 16.1067 91.1975 16.58 90.1175 16.9C89.0508 17.2067 87.7975 17.36 86.3575 17.36C84.8775 17.36 83.5708 17.1867 82.4375 16.84C81.3175 16.48 80.4308 15.98 79.7775 15.34C79.1375 14.7 78.7975 13.9533 78.7575 13.1H83.9175C84.0108 13.3533 84.1708 13.5667 84.3975 13.74C84.6241 13.9 84.9175 14.0267 85.2775 14.12C85.6508 14.2 86.1041 14.24 86.6375 14.24C87.2775 14.24 87.7641 14.18 88.0975 14.06C88.4308 13.9267 88.5975 13.7467 88.5975 13.52C88.5975 13.2933 88.4575 13.1333 88.1775 13.04C87.8975 12.9467 87.4441 12.88 86.8175 12.84L84.9375 12.72C83.4841 12.6267 82.3241 12.44 81.4575 12.16C80.6041 11.8667 79.9908 11.4733 79.6175 10.98C79.2441 10.4867 79.0575 9.89333 79.0575 9.2C79.0575 8.28 79.3441 7.52 79.9175 6.92C80.5041 6.32 81.3175 5.87333 82.3575 5.58C83.3975 5.28667 84.6108 5.14 85.9975 5.14C87.3575 5.14 88.5641 5.31333 89.6175 5.66C90.6708 5.99333 91.5175 6.46667 92.1575 7.08C92.7975 7.69333 93.1708 8.40667 93.2775 9.22H88.1175C88.0508 8.98 87.9175 8.77333 87.7175 8.6C87.5175 8.42667 87.2575 8.29333 86.9375 8.2C86.6175 8.10667 86.2308 8.06 85.7775 8.06C85.1641 8.06 84.7175 8.13333 84.4375 8.28C84.1575 8.41333 84.0175 8.59333 84.0175 8.82C84.0175 9.03333 84.1041 9.18667 84.2775 9.28C84.4508 9.36 84.7908 9.41333 85.2975 9.44L87.8175 9.6C89.2575 9.68 90.3908 9.86667 91.2175 10.16C92.0575 10.44 92.6508 10.82 92.9975 11.3C93.3575 11.78 93.5375 12.3733 93.5375 13.08Z"/>
</mask>
<g filter="url(#filter0_i_33395_4703)">
<path d="M7.06717 4.22H12.2272V17H7.06717V4.22ZM1.66717 2H17.6272V6.6H1.66717V2ZM24.0933 17.36C22.5733 17.36 21.2399 17.1067 20.0933 16.6C18.9599 16.0933 18.0733 15.38 17.4333 14.46C16.8066 13.54 16.4933 12.4733 16.4933 11.26C16.4933 10.0333 16.8066 8.96 17.4333 8.04C18.0733 7.12 18.9599 6.40667 20.0933 5.9C21.2399 5.39333 22.5733 5.14 24.0933 5.14C25.6133 5.14 26.9399 5.39333 28.0733 5.9C29.2199 6.40667 30.1066 7.12 30.7333 8.04C31.3733 8.96 31.6933 10.0333 31.6933 11.26C31.6933 12.4733 31.3733 13.54 30.7333 14.46C30.1066 15.38 29.2199 16.0933 28.0733 16.6C26.9399 17.1067 25.6133 17.36 24.0933 17.36ZM24.0933 13.66C24.6266 13.66 25.0733 13.5667 25.4333 13.38C25.8066 13.1933 26.0866 12.92 26.2733 12.56C26.4733 12.2 26.5733 11.7667 26.5733 11.26C26.5733 10.74 26.4733 10.3 26.2733 9.94C26.0866 9.58 25.8066 9.30667 25.4333 9.12C25.0733 8.93333 24.6266 8.84 24.0933 8.84C23.5733 8.84 23.1266 8.93333 22.7533 9.12C22.3799 9.30667 22.0933 9.58 21.8933 9.94C21.7066 10.3 21.6133 10.74 21.6133 11.26C21.6133 11.7667 21.7066 12.2 21.8933 12.56C22.0933 12.92 22.3799 13.1933 22.7533 13.38C23.1266 13.5667 23.5733 13.66 24.0933 13.66ZM38.2247 13.06L36.8647 12.62L42.6047 5.5H47.7647L37.6247 17H33.1447V1.6H38.2247V13.06ZM39.3247 11.44L43.2447 8.94L48.0447 17H42.4047L39.3247 11.44ZM54.9889 17.36C53.5622 17.36 52.2822 17.1067 51.1489 16.6C50.0289 16.08 49.1422 15.36 48.4889 14.44C47.8356 13.5067 47.5089 12.4267 47.5089 11.2C47.5089 9.98667 47.8222 8.92667 48.4489 8.02C49.0889 7.11333 49.9556 6.40667 51.0489 5.9C52.1422 5.39333 53.3689 5.14 54.7289 5.14C56.1556 5.14 57.3689 5.43333 58.3689 6.02C59.3689 6.60667 60.1356 7.44 60.6689 8.52C61.2022 9.58667 61.4689 10.8533 61.4689 12.32H51.6689V9.98H58.5089L57.1489 10.74C57.0822 10.22 56.9489 9.78667 56.7489 9.44C56.5489 9.09333 56.2822 8.83333 55.9489 8.66C55.6289 8.47333 55.2422 8.38 54.7889 8.38C54.2822 8.38 53.8489 8.49333 53.4889 8.72C53.1422 8.94667 52.8756 9.26 52.6889 9.66C52.5156 10.0467 52.4289 10.4867 52.4289 10.98C52.4289 11.62 52.5689 12.16 52.8489 12.6C53.1422 13.0267 53.5822 13.3533 54.1689 13.58C54.7556 13.8067 55.4956 13.92 56.3889 13.92C57.2556 13.92 58.0956 13.8133 58.9089 13.6C59.7356 13.3733 60.4956 13.0533 61.1889 12.64V15.52C60.3356 16.12 59.3622 16.58 58.2689 16.9C57.1889 17.2067 56.0956 17.36 54.9889 17.36ZM62.3312 5.5H67.4112L68.2112 10.4V17H63.1312V9.62L62.3312 5.5ZM72.1912 5.14C73.3112 5.14 74.2646 5.36667 75.0512 5.82C75.8379 6.26 76.4379 6.88667 76.8512 7.7C77.2779 8.5 77.4912 9.44 77.4912 10.52V17H72.4112V11.24C72.4112 10.6 72.2312 10.1067 71.8712 9.76C71.5246 9.41333 71.0312 9.24 70.3912 9.24C69.9379 9.24 69.5446 9.33333 69.2112 9.52C68.8912 9.69333 68.6446 9.95333 68.4712 10.3C68.2979 10.6333 68.2112 11.04 68.2112 11.52L66.7112 10.76C66.8979 9.50667 67.2579 8.46667 67.7912 7.64C68.3246 6.8 68.9712 6.17333 69.7312 5.76C70.4912 5.34667 71.3112 5.14 72.1912 5.14ZM93.5375 13.08C93.5375 14.04 93.2375 14.84 92.6375 15.48C92.0375 16.1067 91.1975 16.58 90.1175 16.9C89.0508 17.2067 87.7975 17.36 86.3575 17.36C84.8775 17.36 83.5708 17.1867 82.4375 16.84C81.3175 16.48 80.4308 15.98 79.7775 15.34C79.1375 14.7 78.7975 13.9533 78.7575 13.1H83.9175C84.0108 13.3533 84.1708 13.5667 84.3975 13.74C84.6241 13.9 84.9175 14.0267 85.2775 14.12C85.6508 14.2 86.1041 14.24 86.6375 14.24C87.2775 14.24 87.7641 14.18 88.0975 14.06C88.4308 13.9267 88.5975 13.7467 88.5975 13.52C88.5975 13.2933 88.4575 13.1333 88.1775 13.04C87.8975 12.9467 87.4441 12.88 86.8175 12.84L84.9375 12.72C83.4841 12.6267 82.3241 12.44 81.4575 12.16C80.6041 11.8667 79.9908 11.4733 79.6175 10.98C79.2441 10.4867 79.0575 9.89333 79.0575 9.2C79.0575 8.28 79.3441 7.52 79.9175 6.92C80.5041 6.32 81.3175 5.87333 82.3575 5.58C83.3975 5.28667 84.6108 5.14 85.9975 5.14C87.3575 5.14 88.5641 5.31333 89.6175 5.66C90.6708 5.99333 91.5175 6.46667 92.1575 7.08C92.7975 7.69333 93.1708 8.40667 93.2775 9.22H88.1175C88.0508 8.98 87.9175 8.77333 87.7175 8.6C87.5175 8.42667 87.2575 8.29333 86.9375 8.2C86.6175 8.10667 86.2308 8.06 85.7775 8.06C85.1641 8.06 84.7175 8.13333 84.4375 8.28C84.1575 8.41333 84.0175 8.59333 84.0175 8.82C84.0175 9.03333 84.1041 9.18667 84.2775 9.28C84.4508 9.36 84.7908 9.41333 85.2975 9.44L87.8175 9.6C89.2575 9.68 90.3908 9.86667 91.2175 10.16C92.0575 10.44 92.6508 10.82 92.9975 11.3C93.3575 11.78 93.5375 12.3733 93.5375 13.08Z" fill="#BFFF60"/>
</g>
<path d="M7.06717 4.22V3.22H6.06717V4.22H7.06717ZM12.2272 4.22H13.2272V3.22H12.2272V4.22ZM12.2272 17V18H13.2272V17H12.2272ZM7.06717 17H6.06717V18H7.06717V17ZM1.66717 2V0.999999H0.667166V2H1.66717ZM17.6272 2H18.6272V0.999999H17.6272V2ZM17.6272 6.6V7.6H18.6272V6.6H17.6272ZM1.66717 6.6H0.667166V7.6H1.66717V6.6ZM7.06717 5.22H12.2272V3.22H7.06717V5.22ZM11.2272 4.22V17H13.2272V4.22H11.2272ZM12.2272 16H7.06717V18H12.2272V16ZM8.06717 17V4.22H6.06717V17H8.06717ZM1.66717 3H17.6272V0.999999H1.66717V3ZM16.6272 2V6.6H18.6272V2H16.6272ZM17.6272 5.6H1.66717V7.6H17.6272V5.6ZM2.66717 6.6V2H0.667166V6.6H2.66717ZM20.0933 16.6L19.6851 17.5129L19.6891 17.5147L20.0933 16.6ZM17.4333 14.46L16.6067 15.023L16.6124 15.0311L17.4333 14.46ZM17.4333 8.04L16.6123 7.46891L16.6068 7.47703L17.4333 8.04ZM20.0933 5.9L19.6891 4.9853L19.6851 4.98708L20.0933 5.9ZM28.0733 5.9L27.6651 6.81293L27.6691 6.81469L28.0733 5.9ZM30.7333 8.04L29.9067 8.60299L29.9124 8.61106L30.7333 8.04ZM30.7333 14.46L29.9123 13.8889L29.9068 13.897L30.7333 14.46ZM28.0733 16.6L27.6691 15.6853L27.6651 15.6871L28.0733 16.6ZM25.4333 13.38L24.986 12.4856L24.9795 12.4889L24.9729 12.4922L25.4333 13.38ZM26.2733 12.56L25.3991 12.0744L25.3921 12.0869L25.3855 12.0997L26.2733 12.56ZM26.2733 9.94L25.3855 10.4003L25.3921 10.4131L25.3991 10.4256L26.2733 9.94ZM25.4333 9.12L24.9729 10.0078L24.9795 10.0111L24.986 10.0144L25.4333 9.12ZM22.7533 9.12L23.2005 10.0144L22.7533 9.12ZM21.8933 9.94L21.0191 9.45436L21.0121 9.46692L21.0055 9.47968L21.8933 9.94ZM21.8933 12.56L21.0055 13.0203L21.0121 13.0331L21.0191 13.0456L21.8933 12.56ZM22.7533 13.38L23.2005 12.4856L22.7533 13.38ZM24.0933 16.36C22.6835 16.36 21.4927 16.1251 20.4974 15.6853L19.6891 17.5147C20.9871 18.0882 22.463 18.36 24.0933 18.36V16.36ZM20.5014 15.6871C19.5158 15.2464 18.7793 14.6438 18.2542 13.8889L16.6124 15.0311C17.3672 16.1162 18.4041 16.9402 19.6851 17.5129L20.5014 15.6871ZM18.2597 13.897C17.7563 13.158 17.4933 12.2914 17.4933 11.26H15.4933C15.4933 12.6552 15.8569 13.922 16.6068 15.023L18.2597 13.897ZM17.4933 11.26C17.4933 10.2128 17.7576 9.34017 18.2597 8.60296L16.6068 7.47703C15.8556 8.57983 15.4933 9.85388 15.4933 11.26H17.4933ZM18.2542 8.61106C18.7793 7.85619 19.5158 7.25355 20.5014 6.81292L19.6851 4.98708C18.4041 5.55978 17.3672 6.38381 16.6124 7.46894L18.2542 8.61106ZM20.4974 6.81469C21.4927 6.3749 22.6835 6.14 24.0933 6.14V4.14C22.463 4.14 20.9871 4.41176 19.6891 4.98531L20.4974 6.81469ZM24.0933 6.14C25.5034 6.14 26.6856 6.37503 27.6651 6.81292L28.4814 4.98708C27.1942 4.41163 25.7231 4.14 24.0933 4.14V6.14ZM27.6691 6.81469C28.6671 7.25564 29.3981 7.85621 29.9068 8.60296L31.5597 7.47703C30.8151 6.38379 29.7728 5.55769 28.4774 4.98531L27.6691 6.81469ZM29.9124 8.61106C30.4247 9.34759 30.6933 10.2173 30.6933 11.26H32.6933C32.6933 9.84938 32.3218 8.57241 31.5542 7.46894L29.9124 8.61106ZM30.6933 11.26C30.6933 12.2869 30.426 13.1505 29.9124 13.8889L31.5542 15.0311C32.3205 13.9295 32.6933 12.6598 32.6933 11.26H30.6933ZM29.9068 13.897C29.3981 14.6438 28.6671 15.2444 27.6691 15.6853L28.4774 17.5147C29.7728 16.9423 30.8151 16.1162 31.5597 15.023L29.9068 13.897ZM27.6651 15.6871C26.6856 16.125 25.5034 16.36 24.0933 16.36V18.36C25.7231 18.36 27.1942 18.0884 28.4814 17.5129L27.6651 15.6871ZM24.0933 14.66C24.7382 14.66 25.3537 14.5477 25.8936 14.2678L24.9729 12.4922C24.7928 12.5856 24.515 12.66 24.0933 12.66V14.66ZM25.8805 14.2744C26.4369 13.9962 26.8741 13.5737 27.161 13.0203L25.3855 12.0997C25.2991 12.2663 25.1763 12.3905 24.986 12.4856L25.8805 14.2744ZM27.1474 13.0456C27.4469 12.5065 27.5733 11.8979 27.5733 11.26H25.5733C25.5733 11.6355 25.4996 11.8935 25.3991 12.0744L27.1474 13.0456ZM27.5733 11.26C27.5733 10.6139 27.4489 9.99702 27.1474 9.45436L25.3991 10.4256C25.4976 10.603 25.5733 10.8661 25.5733 11.26H27.5733ZM27.161 9.47968C26.8741 8.92626 26.4369 8.50379 25.8805 8.22557L24.986 10.0144C25.1763 10.1095 25.2991 10.2337 25.3855 10.4003L27.161 9.47968ZM25.8936 8.23224C25.3537 7.95229 24.7382 7.84 24.0933 7.84V9.84C24.515 9.84 24.7928 9.91437 24.9729 10.0078L25.8936 8.23224ZM24.0933 7.84C23.4553 7.84 22.8482 7.95452 22.306 8.22557L23.2005 10.0144C23.405 9.91215 23.6912 9.84 24.0933 9.84V7.84ZM22.306 8.22557C21.7551 8.50106 21.3184 8.91566 21.0191 9.45436L22.7674 10.4256C22.8681 10.2443 23.0048 10.1123 23.2005 10.0144L22.306 8.22557ZM21.0055 9.47968C20.7272 10.0164 20.6133 10.6237 20.6133 11.26H22.6133C22.6133 10.8563 22.686 10.5836 22.781 10.4003L21.0055 9.47968ZM20.6133 11.26C20.6133 11.8877 20.729 12.487 21.0055 13.0203L22.781 12.0997C22.6842 11.913 22.6133 11.6456 22.6133 11.26H20.6133ZM21.0191 13.0456C21.3184 13.5843 21.7551 13.9989 22.306 14.2744L23.2005 12.4856C23.0048 12.3877 22.8681 12.2557 22.7674 12.0744L21.0191 13.0456ZM22.306 14.2744C22.8482 14.5455 23.4553 14.66 24.0933 14.66V12.66C23.6912 12.66 23.405 12.5879 23.2005 12.4856L22.306 14.2744ZM38.2247 13.06L37.9168 14.0114L39.2247 14.4346V13.06H38.2247ZM36.8647 12.62L36.0862 11.9924L35.1739 13.124L36.5568 13.5714L36.8647 12.62ZM42.6047 5.5V4.5H42.1264L41.8261 4.87238L42.6047 5.5ZM47.7647 5.5L48.5147 6.16136L49.9796 4.5H47.7647V5.5ZM37.6247 17V18H38.0761L38.3747 17.6614L37.6247 17ZM33.1447 17H32.1447V18H33.1447V17ZM33.1447 1.6V0.599999H32.1447V1.6H33.1447ZM38.2247 1.6H39.2247V0.599999H38.2247V1.6ZM39.3247 11.44L38.787 10.5969L37.9944 11.1023L38.4499 11.9246L39.3247 11.44ZM43.2447 8.94L44.1038 8.42833L43.5763 7.54245L42.707 8.09687L43.2447 8.94ZM48.0447 17V18H49.8041L48.9038 16.4883L48.0447 17ZM42.4047 17L41.5299 17.4846L41.8154 18H42.4047V17ZM38.5325 12.1086L37.1725 11.6686L36.5568 13.5714L37.9168 14.0114L38.5325 12.1086ZM37.6432 13.2476L43.3832 6.12762L41.8261 4.87238L36.0862 11.9924L37.6432 13.2476ZM42.6047 6.5H47.7647V4.5H42.6047V6.5ZM47.0146 4.83864L36.8746 16.3386L38.3747 17.6614L48.5147 6.16136L47.0146 4.83864ZM37.6247 16H33.1447V18H37.6247V16ZM34.1447 17V1.6H32.1447V17H34.1447ZM33.1447 2.6H38.2247V0.599999H33.1447V2.6ZM37.2247 1.6V13.06H39.2247V1.6H37.2247ZM39.8624 12.2831L43.7824 9.78313L42.707 8.09687L38.787 10.5969L39.8624 12.2831ZM42.3855 9.45167L47.1855 17.5117L48.9038 16.4883L44.1038 8.42833L42.3855 9.45167ZM48.0447 16H42.4047V18H48.0447V16ZM43.2794 16.5154L40.1994 10.9554L38.4499 11.9246L41.5299 17.4846L43.2794 16.5154ZM51.1489 16.6L50.7278 17.507L50.7342 17.51L50.7408 17.5129L51.1489 16.6ZM48.4889 14.44L47.6696 15.0135L47.6736 15.019L48.4889 14.44ZM48.4489 8.02L47.6319 7.44329L47.6263 7.45142L48.4489 8.02ZM51.0489 5.9L51.4693 6.80731V6.80731L51.0489 5.9ZM60.6689 8.52L59.7722 8.96279L59.7745 8.96721L60.6689 8.52ZM61.4689 12.32V13.32H62.4689V12.32H61.4689ZM51.6689 12.32H50.6689V13.32H51.6689V12.32ZM51.6689 9.98V8.98H50.6689V9.98H51.6689ZM58.5089 9.98L58.9967 10.8529L62.3483 8.98H58.5089V9.98ZM57.1489 10.74L56.157 10.8672L56.3451 12.3347L57.6367 11.6129L57.1489 10.74ZM56.7489 9.44L55.8827 9.93972L56.7489 9.44ZM55.9489 8.66L55.445 9.52378L55.466 9.53601L55.4875 9.54722L55.9489 8.66ZM53.4889 8.72L52.9561 7.87377L52.9488 7.87834L52.9416 7.88303L53.4889 8.72ZM52.6889 9.66L51.7827 9.23711L51.7795 9.24401L51.7764 9.25094L52.6889 9.66ZM52.8489 12.6L52.0052 13.1369L52.0148 13.1519L52.0248 13.1665L52.8489 12.6ZM54.1689 13.58L53.8085 14.5128L54.1689 13.58ZM58.9089 13.6L59.1626 14.5673L59.1733 14.5644L58.9089 13.6ZM61.1889 12.64H62.1889V10.8796L60.6768 11.7811L61.1889 12.64ZM61.1889 15.52L61.7641 16.338L62.1889 16.0393V15.52H61.1889ZM58.2689 16.9L58.542 17.862L58.5498 17.8597L58.2689 16.9ZM54.9889 16.36C53.682 16.36 52.5441 16.1284 51.557 15.6871L50.7408 17.5129C52.0203 18.0849 53.4425 18.36 54.9889 18.36V16.36ZM51.57 15.693C50.5924 15.2391 49.8476 14.6261 49.3042 13.861L47.6736 15.019C48.4369 16.0939 49.4654 16.9209 50.7278 17.507L51.57 15.693ZM49.3081 13.8665C48.7816 13.1144 48.5089 12.2381 48.5089 11.2H46.5089C46.5089 12.6153 46.8895 13.899 47.6697 15.0135L49.3081 13.8665ZM48.5089 11.2C48.5089 10.1684 48.772 9.31134 49.2715 8.58858L47.6263 7.45142C46.8725 8.54199 46.5089 9.80494 46.5089 11.2H48.5089ZM49.2659 8.59668C49.7963 7.84517 50.5208 7.24688 51.4693 6.80731L50.6284 4.99269C49.3903 5.56645 48.3814 6.3815 47.6319 7.44332L49.2659 8.59668ZM51.4693 6.80731C52.4149 6.36912 53.4954 6.14 54.7289 6.14V4.14C53.2424 4.14 51.8695 4.41755 50.6284 4.99269L51.4693 6.80731ZM54.7289 6.14C56.0184 6.14 57.048 6.40449 57.8629 6.88252L58.8749 5.15747C57.6897 4.46218 56.2927 4.14 54.7289 4.14V6.14ZM57.8629 6.88252C58.6877 7.36642 59.3218 8.05063 59.7723 8.96278L61.5655 8.07722C60.9493 6.82937 60.0501 5.84691 58.8749 5.15747L57.8629 6.88252ZM59.7745 8.96721C60.2242 9.86675 60.4689 10.9735 60.4689 12.32H62.4689C62.4689 10.7331 62.1802 9.30658 61.5633 8.07279L59.7745 8.96721ZM61.4689 11.32H51.6689V13.32H61.4689V11.32ZM52.6689 12.32V9.98H50.6689V12.32H52.6689ZM51.6689 10.98H58.5089V8.98H51.6689V10.98ZM58.0211 9.10706L56.6611 9.86706L57.6367 11.6129L58.9967 10.8529L58.0211 9.10706ZM58.1408 10.6128C58.0622 10.0003 57.8983 9.43114 57.6151 8.94028L55.8827 9.93972C55.9995 10.1422 56.1022 10.4397 56.157 10.8672L58.1408 10.6128ZM57.6151 8.94028C57.3263 8.43977 56.9239 8.03987 56.4102 7.77278L55.4875 9.54722C55.6406 9.62679 55.7715 9.74689 55.8827 9.93972L57.6151 8.94028ZM56.4528 7.79622C55.949 7.50237 55.3798 7.38 54.7889 7.38V9.38C55.1046 9.38 55.3088 9.44429 55.445 9.52378L56.4528 7.79622ZM54.7889 7.38C54.1301 7.38 53.5039 7.52885 52.9561 7.87377L54.0217 9.56623C54.1939 9.45781 54.4343 9.38 54.7889 9.38V7.38ZM52.9416 7.88303C52.4288 8.21838 52.0427 8.67992 51.7827 9.23711L53.5951 10.0829C53.7084 9.84007 53.8557 9.67496 54.0361 9.55697L52.9416 7.88303ZM51.7764 9.25094C51.5367 9.7857 51.4289 10.3686 51.4289 10.98H53.4289C53.4289 10.6047 53.4944 10.3076 53.6014 10.0691L51.7764 9.25094ZM51.4289 10.98C51.4289 11.7669 51.6021 12.5034 52.0052 13.1369L53.6925 12.0631C53.5357 11.8166 53.4289 11.4731 53.4289 10.98H51.4289ZM52.0248 13.1665C52.4548 13.792 53.0748 14.2293 53.8085 14.5128L54.5293 12.6472C54.0896 12.4773 53.8296 12.2613 53.6729 12.0335L52.0248 13.1665ZM53.8085 14.5128C54.5475 14.7983 55.42 14.92 56.3889 14.92V12.92C55.5711 12.92 54.9636 12.815 54.5293 12.6472L53.8085 14.5128ZM56.3889 14.92C57.3385 14.92 58.2639 14.803 59.1626 14.5673L58.6552 12.6327C57.9272 12.8237 57.1726 12.92 56.3889 12.92V14.92ZM59.1733 14.5644C60.0815 14.3154 60.9256 13.9612 61.701 13.4989L60.6768 11.7811C60.0655 12.1455 59.3896 12.4313 58.6445 12.6356L59.1733 14.5644ZM60.1889 12.64V15.52H62.1889V12.64H60.1889ZM60.6137 14.702C59.8579 15.2334 58.9858 15.6482 57.988 15.9403L58.5498 17.8597C59.7387 17.5118 60.8132 17.0066 61.7641 16.338L60.6137 14.702ZM57.9957 15.938C57.0033 16.2198 56.0018 16.36 54.9889 16.36V18.36C56.1893 18.36 57.3745 18.1935 58.542 17.862L57.9957 15.938ZM62.3312 5.5V4.5H61.1184L61.3496 5.69061L62.3312 5.5ZM67.4112 5.5L68.3982 5.33887L68.2612 4.5H67.4112V5.5ZM68.2112 10.4H69.2112V10.3189L69.1982 10.2389L68.2112 10.4ZM68.2112 17V18H69.2112V17H68.2112ZM63.1312 17H62.1312V18H63.1312V17ZM63.1312 9.62H64.1312V9.52381L64.1129 9.42939L63.1312 9.62ZM75.0512 5.82L74.5519 6.6865L74.5631 6.69276L75.0512 5.82ZM76.8512 7.7L75.9597 8.15305L75.9642 8.16186L75.9689 8.17059L76.8512 7.7ZM77.4912 17V18H78.4912V17H77.4912ZM72.4112 17H71.4112V18H72.4112V17ZM71.8712 9.76L71.1641 10.4671L71.1708 10.4738L71.1776 10.4803L71.8712 9.76ZM69.2112 9.52L69.6876 10.3994L69.6998 10.3925L69.2112 9.52ZM68.4712 10.3L69.3584 10.7614L69.3621 10.7543L69.3657 10.7472L68.4712 10.3ZM68.2112 11.52L67.7593 12.412L69.2112 13.1477V11.52H68.2112ZM66.7112 10.76L65.7221 10.6127L65.6159 11.3261L66.2593 11.652L66.7112 10.76ZM67.7912 7.64L68.6315 8.18214L68.6354 8.17601L67.7912 7.64ZM69.7312 5.76L70.209 6.63848L69.7312 5.76ZM62.3312 6.5H67.4112V4.5H62.3312V6.5ZM66.4243 5.66113L67.2243 10.5611L69.1982 10.2389L68.3982 5.33887L66.4243 5.66113ZM67.2112 10.4V17H69.2112V10.4H67.2112ZM68.2112 16H63.1312V18H68.2112V16ZM64.1312 17V9.62H62.1312V17H64.1312ZM64.1129 9.42939L63.3129 5.30938L61.3496 5.69061L62.1496 9.81061L64.1129 9.42939ZM72.1912 6.14C73.1766 6.14 73.9488 6.33887 74.5519 6.68643L75.5505 4.95357C74.5803 4.39446 73.4459 4.14 72.1912 4.14V6.14ZM74.5631 6.69276C75.1744 7.0347 75.6351 7.51422 75.9597 8.15305L77.7427 7.24695C77.2407 6.25911 76.5014 5.4853 75.5394 4.94724L74.5631 6.69276ZM75.9689 8.17059C76.3048 8.80047 76.4912 9.57286 76.4912 10.52H78.4912C78.4912 9.30714 78.251 8.19953 77.7336 7.22941L75.9689 8.17059ZM76.4912 10.52V17H78.4912V10.52H76.4912ZM77.4912 16H72.4112V18H77.4912V16ZM73.4112 17V11.24H71.4112V17H73.4112ZM73.4112 11.24C73.4112 10.4086 73.1718 9.62414 72.5649 9.03968L71.1776 10.4803C71.2906 10.5892 71.4112 10.7914 71.4112 11.24H73.4112ZM72.5783 9.05289C71.9919 8.46647 71.2121 8.24 70.3912 8.24V10.24C70.8503 10.24 71.0572 10.3602 71.1641 10.4671L72.5783 9.05289ZM70.3912 8.24C69.7988 8.24 69.2309 8.36288 68.7226 8.64749L69.6998 10.3925C69.8583 10.3038 70.077 10.24 70.3912 10.24V8.24ZM68.7349 8.64071C68.2225 8.91826 67.8356 9.33521 67.5768 9.85279L69.3657 10.7472C69.4535 10.5715 69.5599 10.4684 69.6875 10.3993L68.7349 8.64071ZM67.584 9.83865C67.3189 10.3485 67.2112 10.9228 67.2112 11.52H69.2112C69.2112 11.1572 69.2769 10.9181 69.3584 10.7614L67.584 9.83865ZM68.6632 10.628L67.1632 9.86796L66.2593 11.652L67.7593 12.412L68.6632 10.628ZM67.7003 10.9073C67.8718 9.75572 68.1941 8.8601 68.6315 8.18213L66.9509 7.09787C66.3217 8.07324 65.924 9.25762 65.7221 10.6127L67.7003 10.9073ZM68.6354 8.17601C69.0915 7.45768 69.6194 6.95916 70.209 6.63848L69.2535 4.88152C68.3231 5.38751 67.5576 6.14232 66.947 7.10399L68.6354 8.17601ZM70.209 6.63848C70.8198 6.30631 71.4751 6.14 72.1912 6.14V4.14C71.1473 4.14 70.1627 4.38702 69.2535 4.88152L70.209 6.63848ZM92.6375 15.48L93.3598 16.1716L93.367 16.1639L92.6375 15.48ZM90.1175 16.9L90.3938 17.8611L90.4016 17.8588L90.1175 16.9ZM82.4375 16.84L82.1315 17.792L82.1382 17.7942L82.145 17.7963L82.4375 16.84ZM79.7775 15.34L79.0703 16.0471L79.0777 16.0544L79.7775 15.34ZM78.7575 13.1V12.1H77.7095L77.7586 13.1468L78.7575 13.1ZM83.9175 13.1L84.8558 12.7543L84.6148 12.1H83.9175V13.1ZM84.3975 13.74L83.79 14.5344L83.8052 14.546L83.8208 14.557L84.3975 13.74ZM85.2775 14.12L85.0265 15.088L85.0471 15.0933L85.0679 15.0978L85.2775 14.12ZM88.0975 14.06L88.4362 15.0009L88.4526 14.995L88.4689 14.9885L88.0975 14.06ZM88.1775 13.04L88.4937 12.0913L88.1775 13.04ZM86.8175 12.84L86.7538 13.838L86.8175 12.84ZM84.9375 12.72L84.8734 13.7179L84.8738 13.718L84.9375 12.72ZM81.4575 12.16L81.1324 13.1057L81.1412 13.1087L81.15 13.1116L81.4575 12.16ZM79.6175 10.98L80.4149 10.3766V10.3766L79.6175 10.98ZM79.9175 6.92L79.2024 6.22084L79.1945 6.22914L79.9175 6.92ZM82.3575 5.58L82.6289 6.54245L82.3575 5.58ZM89.6175 5.66L89.3048 6.60994L89.3158 6.6134L89.6175 5.66ZM92.1575 7.08L91.4656 7.80199V7.80199L92.1575 7.08ZM93.2775 9.22V10.22H94.4172L94.269 9.08996L93.2775 9.22ZM88.1175 9.22L87.154 9.48764L87.3574 10.22H88.1175V9.22ZM87.7175 8.6L88.3724 7.84431V7.84431L87.7175 8.6ZM86.9375 8.2L87.2175 7.24L86.9375 8.2ZM84.4375 8.28L84.8674 9.18286L84.8846 9.17467L84.9015 9.16583L84.4375 8.28ZM84.2775 9.28L83.8034 10.1605L83.8305 10.1751L83.8584 10.188L84.2775 9.28ZM85.2975 9.44L85.3608 8.44195L85.35 8.44138L85.2975 9.44ZM87.8175 9.6L87.7541 10.598L87.762 10.5985L87.8175 9.6ZM91.2175 10.16L90.8831 11.1024L90.8921 11.1056L90.9012 11.1087L91.2175 10.16ZM92.9975 11.3L92.1868 11.8855L92.1921 11.8928L92.1975 11.9L92.9975 11.3ZM92.5375 13.08C92.5375 13.812 92.3171 14.3596 91.9079 14.7961L93.367 16.1639C94.1578 15.3204 94.5375 14.268 94.5375 13.08H92.5375ZM91.9152 14.7884C91.4662 15.2573 90.7951 15.6563 89.8334 15.9412L90.4016 17.8588C91.5999 17.5037 92.6087 16.956 93.3598 16.1716L91.9152 14.7884ZM89.8412 15.9389C88.8864 16.2134 87.7302 16.36 86.3575 16.36V18.36C87.8648 18.36 89.2152 18.1999 90.3938 17.8611L89.8412 15.9389ZM86.3575 16.36C84.9531 16.36 83.7484 16.1952 82.73 15.8837L82.145 17.7963C83.3932 18.1781 84.8019 18.36 86.3575 18.36V16.36ZM82.7435 15.888C81.7304 15.5623 80.9924 15.1303 80.4773 14.6256L79.0777 16.0544C79.8692 16.8297 80.9045 17.3977 82.1315 17.792L82.7435 15.888ZM80.4846 14.6329C80.0092 14.1575 79.784 13.642 79.7564 13.0532L77.7586 13.1468C77.811 14.2646 78.2657 15.2425 79.0704 16.0471L80.4846 14.6329ZM78.7575 14.1H83.9175V12.1H78.7575V14.1ZM82.9791 13.4457C83.1418 13.8872 83.4217 14.2527 83.79 14.5344L85.0049 12.9456C84.9199 12.8806 84.8798 12.8194 84.8558 12.7543L82.9791 13.4457ZM83.8208 14.557C84.1733 14.8058 84.5871 14.9741 85.0265 15.088L85.5284 13.152C85.2479 13.0793 85.075 12.9942 84.9742 12.923L83.8208 14.557ZM85.0679 15.0978C85.5312 15.1971 86.0592 15.24 86.6375 15.24V13.24C86.1491 13.24 85.7704 13.2029 85.487 13.1422L85.0679 15.0978ZM86.6375 15.24C87.3154 15.24 87.9396 15.1797 88.4362 15.0009L87.7588 13.1191C87.5887 13.1803 87.2395 13.24 86.6375 13.24V15.24ZM88.4689 14.9885C88.9304 14.8039 89.5975 14.3717 89.5975 13.52H87.5975C87.5975 13.4508 87.6109 13.3753 87.6409 13.302C87.6704 13.23 87.7085 13.1782 87.7387 13.1456C87.7918 13.0882 87.8138 13.0964 87.7261 13.1315L88.4689 14.9885ZM89.5975 13.52C89.5975 13.1819 89.4857 12.8465 89.245 12.5715C89.0211 12.3156 88.7399 12.1734 88.4937 12.0913L87.8612 13.9887C87.8951 14 87.8238 13.9844 87.7399 13.8885C87.696 13.8383 87.6572 13.7753 87.631 13.7029C87.6051 13.6315 87.5975 13.5676 87.5975 13.52H89.5975ZM88.4937 12.0913C88.0831 11.9545 87.5198 11.8828 86.8812 11.842L86.7538 13.838C87.3685 13.8772 87.7118 13.9389 87.8612 13.9887L88.4937 12.0913ZM86.8812 11.842L85.0012 11.722L84.8738 13.718L86.7538 13.838L86.8812 11.842ZM85.0016 11.7221C83.588 11.6313 82.5202 11.4524 81.7649 11.2084L81.15 13.1116C82.1281 13.4276 83.3803 13.6221 84.8734 13.7179L85.0016 11.7221ZM81.7826 11.2143C81.0354 10.9575 80.625 10.6542 80.4149 10.3766L78.8201 11.5834C79.3566 12.2925 80.1729 12.7759 81.1324 13.1057L81.7826 11.2143ZM80.4149 10.3766C80.1888 10.0777 80.0575 9.70312 80.0575 9.2H78.0575C78.0575 10.0835 78.2995 10.8956 78.8201 11.5834L80.4149 10.3766ZM80.0575 9.2C80.0575 8.50693 80.2649 8.00391 80.6405 7.61086L79.1945 6.22914C78.4234 7.03609 78.0575 8.05307 78.0575 9.2H80.0575ZM80.6325 7.61912C81.0665 7.1752 81.7099 6.80166 82.6289 6.54245L82.086 4.61755C80.925 4.945 79.9417 5.4648 79.2025 6.22088L80.6325 7.61912ZM82.6289 6.54245C83.5598 6.27991 84.6781 6.14 85.9975 6.14V4.14C84.5436 4.14 83.2352 4.29342 82.086 4.61755L82.6289 6.54245ZM85.9975 6.14C87.2744 6.14 88.3723 6.30295 89.3049 6.60988L89.9301 4.71012C88.756 4.32372 87.4405 4.14 85.9975 4.14V6.14ZM89.3158 6.6134C90.2582 6.91163 90.96 7.31752 91.4656 7.80199L92.8494 6.35801C92.0749 5.61581 91.0834 5.07503 89.9192 4.7066L89.3158 6.6134ZM91.4656 7.80199C91.9554 8.27143 92.2113 8.78109 92.286 9.35003L94.269 9.08996C94.1303 8.03224 93.6395 7.11524 92.8494 6.35801L91.4656 7.80199ZM93.2775 8.22H88.1175V10.22H93.2775V8.22ZM89.081 8.95236C88.9583 8.51079 88.7113 8.13798 88.3724 7.84431L87.0625 9.35569C87.1237 9.40869 87.1433 9.44921 87.154 9.48764L89.081 8.95236ZM88.3724 7.84431C88.0392 7.55554 87.6409 7.36351 87.2175 7.24L86.6575 9.16C86.874 9.22315 86.9957 9.2978 87.0625 9.35569L88.3724 7.84431ZM87.2175 7.24C86.7805 7.11254 86.294 7.06 85.7775 7.06V9.06C86.1676 9.06 86.4545 9.10079 86.6575 9.16L87.2175 7.24ZM85.7775 7.06C85.1274 7.06 84.4768 7.13051 83.9735 7.39417L84.9015 9.16583C84.9581 9.13616 85.2009 9.06 85.7775 9.06V7.06ZM84.0075 7.37714C83.5292 7.60493 83.0175 8.06551 83.0175 8.82H85.0175C85.0175 8.86808 85.0097 8.9248 84.9893 8.98426C84.9688 9.04365 84.9403 9.09233 84.9118 9.12894C84.8581 9.19802 84.82 9.20544 84.8674 9.18286L84.0075 7.37714ZM83.0175 8.82C83.0175 9.06282 83.0675 9.33156 83.2119 9.58706C83.3588 9.84687 83.5707 10.0352 83.8034 10.1605L84.7516 8.39953C84.8109 8.43147 84.8929 8.49647 84.953 8.60294C85.0108 8.7051 85.0175 8.79052 85.0175 8.82H83.0175ZM83.8584 10.188C84.0707 10.286 84.3068 10.3364 84.5075 10.3679C84.7232 10.4018 84.9717 10.4242 85.2449 10.4386L85.35 8.44138C85.1166 8.42909 84.9417 8.41158 84.8174 8.39208C84.6781 8.37023 84.6575 8.35404 84.6965 8.37204L83.8584 10.188ZM85.2341 10.438L87.7541 10.598L87.8808 8.60201L85.3608 8.44201L85.2341 10.438ZM87.762 10.5985C89.1596 10.6761 90.1852 10.8548 90.8831 11.1024L91.5519 9.21757C90.5964 8.87852 89.3553 8.68389 87.8729 8.60154L87.762 10.5985ZM90.9012 11.1087C91.6357 11.3535 92.01 11.6407 92.1868 11.8855L93.8082 10.7145C93.2916 9.9993 92.4792 9.52649 91.5337 9.21132L90.9012 11.1087ZM92.1975 11.9C92.4057 12.1776 92.5375 12.5499 92.5375 13.08H94.5375C94.5375 12.1968 94.3093 11.3824 93.7975 10.7L92.1975 11.9Z" fill="black" mask="url(#path-1-outside-1_33395_4703)"/>
<defs>
<filter id="filter0_i_33395_4703" x="0.66716" y="0.599609" width="93.8703" height="17.7607" filterUnits="userSpaceOnUse" color-interpolation-filters="sRGB">
<feFlood flood-opacity="0" result="BackgroundImageFix"/>
<feBlend mode="normal" in="SourceGraphic" in2="BackgroundImageFix" result="shape"/>
<feColorMatrix in="SourceAlpha" type="matrix" values="0 0 0 0 0 0 0 0 0 0 0 0 0 0 0 0 0 0 127 0" result="hardAlpha"/>
<feOffset dy="-3"/>
<feComposite in2="hardAlpha" operator="arithmetic" k2="-1" k3="1"/>
<feColorMatrix type="matrix" values="0 0 0 0 0 0 0 0 0 0 0 0 0 0 0 0 0 0 0.25 0"/>
<feBlend mode="normal" in2="shape" result="effect1_innerShadow_33395_4703"/>
</filter>
</defs>
</svg>
