<svg width="122" height="43" viewBox="0 0 122 43" fill="none" xmlns="http://www.w3.org/2000/svg">
<path d="M120 -0.5H120.881L120.429 0.256305L98.2645 37.3824C96.3696 40.5563 92.9454 42.5 89.2489 42.5H0H-0.5V42V0V-0.5H0H120Z" fill="#1A1843" stroke="#3E347C"/>
<path d="M48.468 24.536L48.624 24.188C49.336 24.196 49.916 24.304 50.364 24.512C50.82 24.72 51.152 25 51.36 25.352C51.576 25.704 51.684 26.1 51.684 26.54C51.684 27.02 51.568 27.444 51.336 27.812C51.112 28.18 50.78 28.472 50.34 28.688C49.9 28.896 49.352 29 48.696 29H42.696L43.404 24.38L42.696 20H48.48C49.312 20 49.952 20.196 50.4 20.588C50.856 20.972 51.084 21.504 51.084 22.184C51.084 22.544 50.996 22.896 50.82 23.24C50.652 23.576 50.376 23.864 49.992 24.104C49.616 24.336 49.108 24.48 48.468 24.536ZM44.292 28.556L43.68 27.728H48.516C49.012 27.728 49.396 27.616 49.668 27.392C49.948 27.16 50.088 26.832 50.088 26.408C50.088 25.96 49.924 25.612 49.596 25.364C49.276 25.116 48.8 24.992 48.168 24.992H44.268V23.768H48.012C48.436 23.768 48.788 23.652 49.068 23.42C49.348 23.18 49.488 22.84 49.488 22.4C49.488 22.072 49.372 21.804 49.14 21.596C48.908 21.38 48.572 21.272 48.132 21.272H43.68L44.292 20.444L44.928 24.38L44.292 28.556ZM59.3242 29L59.0602 26.48L59.3722 25.604L59.0602 24.74L59.3242 22.208H60.9322L60.5722 25.604L60.9322 29H59.3242ZM59.8042 25.604C59.6522 26.316 59.4002 26.94 59.0482 27.476C58.6962 28.012 58.2602 28.428 57.7402 28.724C57.2282 29.02 56.6562 29.168 56.0242 29.168C55.3602 29.168 54.7722 29.02 54.2602 28.724C53.7482 28.42 53.3482 28 53.0602 27.464C52.7722 26.928 52.6282 26.308 52.6282 25.604C52.6282 24.892 52.7722 24.272 53.0602 23.744C53.3482 23.208 53.7482 22.792 54.2602 22.496C54.7722 22.192 55.3602 22.04 56.0242 22.04C56.6562 22.04 57.2282 22.188 57.7402 22.484C58.2602 22.78 58.6962 23.196 59.0482 23.732C59.4082 24.26 59.6602 24.884 59.8042 25.604ZM54.2122 25.604C54.2122 26.06 54.3042 26.464 54.4882 26.816C54.6802 27.16 54.9402 27.432 55.2682 27.632C55.5962 27.824 55.9722 27.92 56.3962 27.92C56.8282 27.92 57.2282 27.824 57.5962 27.632C57.9642 27.432 58.2882 27.16 58.5682 26.816C58.8562 26.464 59.0842 26.06 59.2522 25.604C59.0842 25.148 58.8562 24.748 58.5682 24.404C58.2882 24.052 57.9642 23.78 57.5962 23.588C57.2282 23.388 56.8282 23.288 56.3962 23.288C55.9722 23.288 55.5962 23.388 55.2682 23.588C54.9402 23.78 54.6802 24.052 54.4882 24.404C54.3042 24.748 54.2122 25.148 54.2122 25.604ZM69.9335 26.324C69.8535 26.884 69.6335 27.38 69.2735 27.812C68.9135 28.236 68.4535 28.568 67.8935 28.808C67.3335 29.048 66.7095 29.168 66.0215 29.168C65.2375 29.168 64.5455 29.02 63.9455 28.724C63.3535 28.42 62.8895 28 62.5535 27.464C62.2175 26.928 62.0495 26.308 62.0495 25.604C62.0495 24.9 62.2175 24.28 62.5535 23.744C62.8895 23.208 63.3535 22.792 63.9455 22.496C64.5455 22.192 65.2375 22.04 66.0215 22.04C66.7095 22.04 67.3335 22.16 67.8935 22.4C68.4535 22.64 68.9135 22.976 69.2735 23.408C69.6335 23.832 69.8535 24.328 69.9335 24.896H68.3615C68.2495 24.384 67.9815 23.984 67.5575 23.696C67.1335 23.408 66.6215 23.264 66.0215 23.264C65.5415 23.264 65.1215 23.36 64.7615 23.552C64.4015 23.736 64.1215 24.004 63.9215 24.356C63.7295 24.7 63.6335 25.116 63.6335 25.604C63.6335 26.084 63.7295 26.5 63.9215 26.852C64.1215 27.204 64.4015 27.476 64.7615 27.668C65.1215 27.852 65.5415 27.944 66.0215 27.944C66.6295 27.944 67.1455 27.796 67.5695 27.5C67.9935 27.204 68.2575 26.812 68.3615 26.324H69.9335ZM72.6771 27.644L72.2211 27.476L76.5411 22.208H78.3411L72.5691 29H71.1171V19.76H72.6771V27.644ZM74.6091 25.64L75.7011 24.656L78.5451 29H76.7091L74.6091 25.64Z" fill="#D7D7F6"/>
<g filter="url(#filter0_i_31911_4249)">
<path d="M23 22.2679C21.6667 23.0378 21.6667 24.9622 23 25.7321L29 29.1962C30.3333 29.966 32 29.0037 32 27.4641L32 20.5359C32 18.9963 30.3333 18.034 29 18.8038L23 22.2679Z" fill="#BFFF60"/>
</g>
<path d="M22.75 26.1651C21.0833 25.2028 21.0833 22.7972 22.75 21.8349L28.75 18.3708C30.4167 17.4086 32.5 18.6114 32.5 20.5359L32.5 27.4641C32.5 29.3886 30.4167 30.5914 28.75 29.6292L22.75 26.1651Z" stroke="black"/>
<defs>
<filter id="filter0_i_31911_4249" x="21" y="17.5314" width="12" height="12.9373" filterUnits="userSpaceOnUse" color-interpolation-filters="sRGB">
<feFlood flood-opacity="0" result="BackgroundImageFix"/>
<feBlend mode="normal" in="SourceGraphic" in2="BackgroundImageFix" result="shape"/>
<feColorMatrix in="SourceAlpha" type="matrix" values="0 0 0 0 0 0 0 0 0 0 0 0 0 0 0 0 0 0 127 0" result="hardAlpha"/>
<feOffset dx="-2" dy="-2"/>
<feComposite in2="hardAlpha" operator="arithmetic" k2="-1" k3="1"/>
<feColorMatrix type="matrix" values="0 0 0 0 0 0 0 0 0 0 0 0 0 0 0 0 0 0 0.25 0"/>
<feBlend mode="normal" in2="shape" result="effect1_innerShadow_31911_4249"/>
</filter>
</defs>
</svg>
