<svg width="59" height="16" viewBox="0 0 59 16" fill="none" xmlns="http://www.w3.org/2000/svg">
<path d="M28.468 8.536L28.624 8.188C29.336 8.196 29.916 8.304 30.364 8.512C30.82 8.72 31.152 9 31.36 9.352C31.576 9.704 31.684 10.1 31.684 10.54C31.684 11.02 31.568 11.444 31.336 11.812C31.112 12.18 30.78 12.472 30.34 12.688C29.9 12.896 29.352 13 28.696 13H22.696L23.404 8.38L22.696 4H28.48C29.312 4 29.952 4.196 30.4 4.588C30.856 4.972 31.084 5.504 31.084 6.184C31.084 6.544 30.996 6.896 30.82 7.24C30.652 7.576 30.376 7.864 29.992 8.104C29.616 8.336 29.108 8.48 28.468 8.536ZM24.292 12.556L23.68 11.728H28.516C29.012 11.728 29.396 11.616 29.668 11.392C29.948 11.16 30.088 10.832 30.088 10.408C30.088 9.96 29.924 9.612 29.596 9.364C29.276 9.116 28.8 8.992 28.168 8.992H24.268V7.768H28.012C28.436 7.768 28.788 7.652 29.068 7.42C29.348 7.18 29.488 6.84 29.488 6.4C29.488 6.072 29.372 5.804 29.14 5.596C28.908 5.38 28.572 5.272 28.132 5.272H23.68L24.292 4.444L24.928 8.38L24.292 12.556ZM39.3242 13L39.0602 10.48L39.3722 9.604L39.0602 8.74L39.3242 6.208H40.9322L40.5722 9.604L40.9322 13H39.3242ZM39.8042 9.604C39.6522 10.316 39.4002 10.94 39.0482 11.476C38.6962 12.012 38.2602 12.428 37.7402 12.724C37.2282 13.02 36.6562 13.168 36.0242 13.168C35.3602 13.168 34.7722 13.02 34.2602 12.724C33.7482 12.42 33.3482 12 33.0602 11.464C32.7722 10.928 32.6282 10.308 32.6282 9.604C32.6282 8.892 32.7722 8.272 33.0602 7.744C33.3482 7.208 33.7482 6.792 34.2602 6.496C34.7722 6.192 35.3602 6.04 36.0242 6.04C36.6562 6.04 37.2282 6.188 37.7402 6.484C38.2602 6.78 38.6962 7.196 39.0482 7.732C39.4082 8.26 39.6602 8.884 39.8042 9.604ZM34.2122 9.604C34.2122 10.06 34.3042 10.464 34.4882 10.816C34.6802 11.16 34.9402 11.432 35.2682 11.632C35.5962 11.824 35.9722 11.92 36.3962 11.92C36.8282 11.92 37.2282 11.824 37.5962 11.632C37.9642 11.432 38.2882 11.16 38.5682 10.816C38.8562 10.464 39.0842 10.06 39.2522 9.604C39.0842 9.148 38.8562 8.748 38.5682 8.404C38.2882 8.052 37.9642 7.78 37.5962 7.588C37.2282 7.388 36.8282 7.288 36.3962 7.288C35.9722 7.288 35.5962 7.388 35.2682 7.588C34.9402 7.78 34.6802 8.052 34.4882 8.404C34.3042 8.748 34.2122 9.148 34.2122 9.604ZM49.9335 10.324C49.8535 10.884 49.6335 11.38 49.2735 11.812C48.9135 12.236 48.4535 12.568 47.8935 12.808C47.3335 13.048 46.7095 13.168 46.0215 13.168C45.2375 13.168 44.5455 13.02 43.9455 12.724C43.3535 12.42 42.8895 12 42.5535 11.464C42.2175 10.928 42.0495 10.308 42.0495 9.604C42.0495 8.9 42.2175 8.28 42.5535 7.744C42.8895 7.208 43.3535 6.792 43.9455 6.496C44.5455 6.192 45.2375 6.04 46.0215 6.04C46.7095 6.04 47.3335 6.16 47.8935 6.4C48.4535 6.64 48.9135 6.976 49.2735 7.408C49.6335 7.832 49.8535 8.328 49.9335 8.896H48.3615C48.2495 8.384 47.9815 7.984 47.5575 7.696C47.1335 7.408 46.6215 7.264 46.0215 7.264C45.5415 7.264 45.1215 7.36 44.7615 7.552C44.4015 7.736 44.1215 8.004 43.9215 8.356C43.7295 8.7 43.6335 9.116 43.6335 9.604C43.6335 10.084 43.7295 10.5 43.9215 10.852C44.1215 11.204 44.4015 11.476 44.7615 11.668C45.1215 11.852 45.5415 11.944 46.0215 11.944C46.6295 11.944 47.1455 11.796 47.5695 11.5C47.9935 11.204 48.2575 10.812 48.3615 10.324H49.9335ZM52.6771 11.644L52.2211 11.476L56.5411 6.208H58.3411L52.5691 13H51.1171V3.76H52.6771V11.644ZM54.6091 9.64L55.7011 8.656L58.5451 13H56.7091L54.6091 9.64Z" fill="#D7D7F6"/>
<g filter="url(#filter0_i_33353_8018)">
<path d="M3 6.26795C1.66666 7.03775 1.66667 8.96225 3 9.73205L9 13.1962C10.3333 13.966 12 13.0037 12 11.4641L12 4.5359C12 2.9963 10.3333 2.03405 9 2.80385L3 6.26795Z" fill="#BFFF60"/>
</g>
<path d="M2.75 10.1651C1.08333 9.20281 1.08333 6.79719 2.75 5.83494L8.75 2.37084C10.4167 1.40859 12.5 2.6114 12.5 4.5359L12.5 11.4641C12.5 13.3886 10.4167 14.5914 8.75 13.6292L2.75 10.1651Z" stroke="black"/>
<defs>
<filter id="filter0_i_33353_8018" x="1" y="1.53125" width="12" height="12.9375" filterUnits="userSpaceOnUse" color-interpolation-filters="sRGB">
<feFlood flood-opacity="0" result="BackgroundImageFix"/>
<feBlend mode="normal" in="SourceGraphic" in2="BackgroundImageFix" result="shape"/>
<feColorMatrix in="SourceAlpha" type="matrix" values="0 0 0 0 0 0 0 0 0 0 0 0 0 0 0 0 0 0 127 0" result="hardAlpha"/>
<feOffset dx="-2" dy="-2"/>
<feComposite in2="hardAlpha" operator="arithmetic" k2="-1" k3="1"/>
<feColorMatrix type="matrix" values="0 0 0 0 0 0 0 0 0 0 0 0 0 0 0 0 0 0 0.25 0"/>
<feBlend mode="normal" in2="shape" result="effect1_innerShadow_33353_8018"/>
</filter>
</defs>
</svg>
