<svg width="14" height="14" viewBox="0 0 14 14" fill="none" xmlns="http://www.w3.org/2000/svg">
<path fill-rule="evenodd" clip-rule="evenodd" d="M0.399902 6.19758C0.399902 4.76164 1.56396 3.59758 2.9999 3.59758H7.2502C8.68614 3.59758 9.8502 4.76164 9.8502 6.19758V10.9977C9.8502 12.4336 8.68614 13.5977 7.2502 13.5977H2.9999C1.56396 13.5977 0.399902 12.4336 0.399902 10.9977V6.19758ZM2.9999 4.79758C2.2267 4.79758 1.5999 5.42438 1.5999 6.19758V10.9977C1.5999 11.7709 2.2267 12.3977 2.9999 12.3977H7.2502C8.0234 12.3977 8.6502 11.7709 8.6502 10.9977V6.19758C8.6502 5.42438 8.0234 4.79758 7.2502 4.79758H2.9999Z" fill="#A6A6DB"/>
<path fill-rule="evenodd" clip-rule="evenodd" d="M4.1499 3.00005C4.1499 1.56412 5.31395 0.400024 6.7499 0.400024H11.0002C12.4361 0.400024 13.6002 1.56408 13.6002 3.00002V7.80014C13.6002 9.23608 12.4361 10.4001 11.0002 10.4001H10.7501V9.20014H11.0002C11.7734 9.20014 12.4002 8.57334 12.4002 7.80014V3.00002C12.4002 2.22683 11.7734 1.60002 11.0002 1.60002H6.7499C5.97671 1.60002 5.3499 2.22684 5.3499 3.00005H4.1499Z" fill="#A6A6DB"/>
</svg>
