<svg width="24" height="24" viewBox="0 0 24 24" fill="none" xmlns="http://www.w3.org/2000/svg">
<circle cx="12" cy="12" r="11.5" fill="#D97706" stroke="black"/>
<path d="M8.57513 17.6024H6.73465C6.41345 17.6024 6.12696 17.5305 5.85783 17.3867C5.5887 17.2428 5.38035 17.043 5.2154 16.7873L4.23439 15.1889C4.07813 14.9491 4 14.6933 4 14.4056C4 14.1179 4.07813 13.8702 4.23439 13.6304L5.23277 12.008L4.23439 10.3936C4.07813 10.1539 4 9.89012 4 9.6104C4 9.33068 4.07813 9.06695 4.23439 8.82719L5.2154 7.22879C5.37167 6.97304 5.5887 6.77324 5.85783 6.62939C6.12696 6.48552 6.42213 6.4056 6.73465 6.4056H8.57513L9.54746 4.82319C9.70371 4.56744 9.92075 4.36764 10.1899 4.22379C10.459 4.07992 10.7542 4 11.0667 4H12.9332C13.2544 4 13.5409 4.07194 13.8101 4.22379C14.0792 4.36764 14.2875 4.56744 14.4525 4.82319L15.4334 6.4056H17.2739C17.5952 6.4056 17.8817 6.47754 18.1508 6.62939C18.4199 6.77324 18.6283 6.97304 18.7933 7.22879L19.7656 8.82719C19.9219 9.06695 20 9.3227 20 9.6104C20 9.89812 19.9219 10.1539 19.7656 10.3936L18.7672 12.008L19.7656 13.6304C19.9219 13.8702 20 14.1259 20 14.4056C20 14.6854 19.9219 14.9491 19.7656 15.1889L18.7933 16.7873C18.637 17.043 18.4199 17.2428 18.1508 17.3867C17.8817 17.5305 17.5865 17.6024 17.2739 17.6024H15.4334L14.4525 19.1849C14.2962 19.4406 14.0792 19.6404 13.8101 19.7843C13.5409 19.9282 13.2458 20 12.9332 20H11.0667C10.7455 20 10.459 19.9282 10.1899 19.7843C9.92075 19.6404 9.7124 19.4406 9.54746 19.1849L8.57513 17.6024ZM15.4334 11.2088H17.3L18.2549 9.6104L17.3 8.012H15.4334L14.4525 9.6104L15.4334 11.2088ZM11.0928 13.6064H12.9159L13.8882 12.008L12.9159 10.4096H11.0928L10.1204 12.008L11.0928 13.6064ZM11.0928 8.8112H12.9159L13.9142 7.18883L12.9419 5.61439H11.0754L10.1031 7.18883L11.1014 8.8112H11.0928ZM9.55613 9.6104L8.5838 8.012H6.74334L5.77101 9.6104L6.74334 11.2088H8.5838L9.55613 9.6104ZM9.55613 14.4056L8.5838 12.8072H6.7173L5.76233 14.4056L6.73465 16.004H8.57513L9.54746 14.4056H9.55613ZM11.0928 15.2048L10.0944 16.8192L11.0667 18.4016H12.9332L13.9055 16.8192L12.9072 15.2048H11.0841H11.0928ZM15.4334 16.004H17.2739L18.2462 14.4056L17.2739 12.8072H15.4334L14.4525 14.4056L15.4334 16.004Z" fill="#FEF3C7"/>
</svg>
