<svg width="173" height="39" viewBox="0 0 173 39" fill="none" xmlns="http://www.w3.org/2000/svg">
  <mask id="path-1-outside-1_31911_617" maskUnits="userSpaceOnUse" x="49" y="10.204" width="124"
    height="19" fill="black">
    <rect fill="white" x="49" y="10.204" width="124" height="19" />
    <path
      d="M73.4582 12.204V27.204H68.5582V14.144L69.4982 14.264L64.4582 27.204H59.3582L54.3182 14.324L55.2582 14.184V27.204H50.3582V12.204H58.3382L62.8182 24.424H61.0382L65.4782 12.204H73.4582ZM84.426 27.564C82.5993 27.564 80.9993 27.2374 79.626 26.584C78.266 25.9307 77.206 25.0174 76.446 23.844C75.686 22.6574 75.306 21.2774 75.306 19.704C75.306 18.1307 75.686 16.7574 76.446 15.584C77.206 14.3974 78.266 13.4774 79.626 12.824C80.9993 12.1707 82.5993 11.844 84.426 11.844C86.2527 11.844 87.846 12.1707 89.206 12.824C90.5793 13.4774 91.646 14.3974 92.406 15.584C93.166 16.7574 93.546 18.1307 93.546 19.704C93.546 21.2774 93.166 22.6574 92.406 23.844C91.646 25.0174 90.5793 25.9307 89.206 26.584C87.846 27.2374 86.2527 27.564 84.426 27.564ZM84.426 22.964C85.2393 22.964 85.9393 22.8374 86.526 22.584C87.1127 22.3174 87.5593 21.944 87.866 21.464C88.186 20.9707 88.346 20.384 88.346 19.704C88.346 19.024 88.186 18.444 87.866 17.964C87.5593 17.4707 87.1127 17.0974 86.526 16.844C85.9393 16.5774 85.2393 16.444 84.426 16.444C83.6127 16.444 82.9127 16.5774 82.326 16.844C81.7393 17.0974 81.286 17.4707 80.966 17.964C80.6593 18.444 80.506 19.024 80.506 19.704C80.506 20.384 80.6593 20.9707 80.966 21.464C81.286 21.944 81.7393 22.3174 82.326 22.584C82.9127 22.8374 83.6127 22.964 84.426 22.964ZM109.278 23.444L107.878 23.784V12.204H112.878V27.204H106.418L98.9777 15.644L100.378 15.304V27.204H95.3777V12.204H102.038L109.278 23.444ZM118.84 24.684V20.584H129.06V24.684H118.84ZM127.48 12.204L134.06 27.204H128.56L123.38 14.484H124.7L119.52 27.204H114.02L120.6 12.204H127.48ZM143.162 12.204C144.989 12.204 146.582 12.5174 147.942 13.144C149.315 13.7574 150.382 14.624 151.142 15.744C151.902 16.864 152.282 18.184 152.282 19.704C152.282 21.2107 151.902 22.5307 151.142 23.664C150.382 24.784 149.315 25.6574 147.942 26.284C146.582 26.8974 144.989 27.204 143.162 27.204H135.202V12.204H143.162ZM140.322 24.904L138.002 22.604H143.562C144.295 22.604 144.922 22.4907 145.442 22.264C145.975 22.024 146.382 21.6907 146.662 21.264C146.942 20.824 147.082 20.304 147.082 19.704C147.082 19.0907 146.942 18.5707 146.662 18.144C146.382 17.7174 145.975 17.3907 145.442 17.164C144.922 16.924 144.295 16.804 143.562 16.804H138.002L140.322 14.504V24.904Z" />
    <path
      d="M162.524 21.004V17.824L170.124 27.204H163.784L159.304 21.264H161.904L157.384 27.204H151.124L158.784 17.824V21.004L151.504 12.204H157.964L162.004 17.544H159.404L163.364 12.204H169.744L162.524 21.004Z" />
  </mask>
  <path
    d="M73.4582 12.204V27.204H68.5582V14.144L69.4982 14.264L64.4582 27.204H59.3582L54.3182 14.324L55.2582 14.184V27.204H50.3582V12.204H58.3382L62.8182 24.424H61.0382L65.4782 12.204H73.4582ZM84.426 27.564C82.5993 27.564 80.9993 27.2374 79.626 26.584C78.266 25.9307 77.206 25.0174 76.446 23.844C75.686 22.6574 75.306 21.2774 75.306 19.704C75.306 18.1307 75.686 16.7574 76.446 15.584C77.206 14.3974 78.266 13.4774 79.626 12.824C80.9993 12.1707 82.5993 11.844 84.426 11.844C86.2527 11.844 87.846 12.1707 89.206 12.824C90.5793 13.4774 91.646 14.3974 92.406 15.584C93.166 16.7574 93.546 18.1307 93.546 19.704C93.546 21.2774 93.166 22.6574 92.406 23.844C91.646 25.0174 90.5793 25.9307 89.206 26.584C87.846 27.2374 86.2527 27.564 84.426 27.564ZM84.426 22.964C85.2393 22.964 85.9393 22.8374 86.526 22.584C87.1127 22.3174 87.5593 21.944 87.866 21.464C88.186 20.9707 88.346 20.384 88.346 19.704C88.346 19.024 88.186 18.444 87.866 17.964C87.5593 17.4707 87.1127 17.0974 86.526 16.844C85.9393 16.5774 85.2393 16.444 84.426 16.444C83.6127 16.444 82.9127 16.5774 82.326 16.844C81.7393 17.0974 81.286 17.4707 80.966 17.964C80.6593 18.444 80.506 19.024 80.506 19.704C80.506 20.384 80.6593 20.9707 80.966 21.464C81.286 21.944 81.7393 22.3174 82.326 22.584C82.9127 22.8374 83.6127 22.964 84.426 22.964ZM109.278 23.444L107.878 23.784V12.204H112.878V27.204H106.418L98.9777 15.644L100.378 15.304V27.204H95.3777V12.204H102.038L109.278 23.444ZM118.84 24.684V20.584H129.06V24.684H118.84ZM127.48 12.204L134.06 27.204H128.56L123.38 14.484H124.7L119.52 27.204H114.02L120.6 12.204H127.48ZM143.162 12.204C144.989 12.204 146.582 12.5174 147.942 13.144C149.315 13.7574 150.382 14.624 151.142 15.744C151.902 16.864 152.282 18.184 152.282 19.704C152.282 21.2107 151.902 22.5307 151.142 23.664C150.382 24.784 149.315 25.6574 147.942 26.284C146.582 26.8974 144.989 27.204 143.162 27.204H135.202V12.204H143.162ZM140.322 24.904L138.002 22.604H143.562C144.295 22.604 144.922 22.4907 145.442 22.264C145.975 22.024 146.382 21.6907 146.662 21.264C146.942 20.824 147.082 20.304 147.082 19.704C147.082 19.0907 146.942 18.5707 146.662 18.144C146.382 17.7174 145.975 17.3907 145.442 17.164C144.922 16.924 144.295 16.804 143.562 16.804H138.002L140.322 14.504V24.904Z"
    fill="#836EF9" />
  <path
    d="M162.524 21.004V17.824L170.124 27.204H163.784L159.304 21.264H161.904L157.384 27.204H151.124L158.784 17.824V21.004L151.504 12.204H157.964L162.004 17.544H159.404L163.364 12.204H169.744L162.524 21.004Z"
    fill="#BFFF60" />
  <path
    d="M73.4582 12.204H74.4582V11.204H73.4582V12.204ZM73.4582 27.204V28.204H74.4582V27.204H73.4582ZM68.5582 27.204H67.5582V28.204H68.5582V27.204ZM68.5582 14.144L68.6848 13.1521L67.5582 13.0082V14.144H68.5582ZM69.4982 14.264L70.43 14.627L70.8946 13.4342L69.6248 13.2721L69.4982 14.264ZM64.4582 27.204V28.204H65.1419L65.39 27.567L64.4582 27.204ZM59.3582 27.204L58.427 27.5684L58.6757 28.204H59.3582V27.204ZM54.3182 14.324L54.1709 13.3349L52.9297 13.5198L53.387 14.6884L54.3182 14.324ZM55.2582 14.184H56.2582V13.0241L55.1109 13.1949L55.2582 14.184ZM55.2582 27.204V28.204H56.2582V27.204H55.2582ZM50.3582 27.204H49.3582V28.204H50.3582V27.204ZM50.3582 12.204V11.204H49.3582V12.204H50.3582ZM58.3382 12.204L59.2771 11.8598L59.0367 11.204H58.3382V12.204ZM62.8182 24.424V25.424H64.2499L63.7571 24.0798L62.8182 24.424ZM61.0382 24.424L60.0983 24.0825L59.6109 25.424H61.0382V24.424ZM65.4782 12.204V11.204H64.7776L64.5383 11.8625L65.4782 12.204ZM72.4582 12.204V27.204H74.4582V12.204H72.4582ZM73.4582 26.204H68.5582V28.204H73.4582V26.204ZM69.5582 27.204V14.144H67.5582V27.204H69.5582ZM68.4316 15.136L69.3716 15.256L69.6248 13.2721L68.6848 13.1521L68.4316 15.136ZM68.5664 13.9011L63.5264 26.8411L65.39 27.567L70.43 14.627L68.5664 13.9011ZM64.4582 26.204H59.3582V28.204H64.4582V26.204ZM60.2894 26.8396L55.2494 13.9596L53.387 14.6884L58.427 27.5684L60.2894 26.8396ZM54.4655 15.3131L55.4055 15.1731L55.1109 13.1949L54.1709 13.3349L54.4655 15.3131ZM54.2582 14.184V27.204H56.2582V14.184H54.2582ZM55.2582 26.204H50.3582V28.204H55.2582V26.204ZM51.3582 27.204V12.204H49.3582V27.204H51.3582ZM50.3582 13.204H58.3382V11.204H50.3582V13.204ZM57.3993 12.5482L61.8793 24.7682L63.7571 24.0798L59.2771 11.8598L57.3993 12.5482ZM62.8182 23.424H61.0382V25.424H62.8182V23.424ZM61.9781 24.7655L66.4181 12.5455L64.5383 11.8625L60.0983 24.0825L61.9781 24.7655ZM65.4782 13.204H73.4582V11.204H65.4782V13.204ZM79.626 26.584L79.193 27.4854L79.1964 27.487L79.626 26.584ZM76.446 23.844L75.6039 24.3834L75.6067 24.3877L76.446 23.844ZM76.446 15.584L77.2853 16.1277L77.2881 16.1233L76.446 15.584ZM79.626 12.824L79.1964 11.921L79.193 11.9226L79.626 12.824ZM89.206 12.824L88.773 13.7254L88.7764 13.727L89.206 12.824ZM92.406 15.584L91.5639 16.1234L91.5667 16.1277L92.406 15.584ZM92.406 23.844L93.2453 24.3877L93.2481 24.3833L92.406 23.844ZM89.206 26.584L88.7764 25.681L88.773 25.6826L89.206 26.584ZM86.526 22.584L86.9225 23.5021L86.9312 23.4983L86.9398 23.4944L86.526 22.584ZM87.866 21.464L87.027 20.9198L87.0233 20.9256L87.866 21.464ZM87.866 17.964L87.0167 18.492L87.0251 18.5055L87.034 18.5187L87.866 17.964ZM86.526 16.844L86.1122 17.7544L86.1209 17.7583L86.1296 17.7621L86.526 16.844ZM82.326 16.844L82.7225 17.7621L82.7312 17.7583L82.7398 17.7544L82.326 16.844ZM80.966 17.964L80.127 17.4198L80.1233 17.4256L80.966 17.964ZM80.966 21.464L80.1167 21.992L80.1251 22.0055L80.134 22.0187L80.966 21.464ZM82.326 22.584L81.9122 23.4944L81.9209 23.4983L81.9296 23.5021L82.326 22.584ZM84.426 26.564C82.7185 26.564 81.2704 26.2589 80.0556 25.681L79.1964 27.487C80.7283 28.2158 82.4802 28.564 84.426 28.564V26.564ZM80.059 25.6826C78.8511 25.1024 77.9374 24.3072 77.2853 23.3004L75.6067 24.3877C76.4746 25.7276 77.6809 26.759 79.193 27.4854L80.059 25.6826ZM77.2881 23.3047C76.643 22.2974 76.306 21.1092 76.306 19.704H74.306C74.306 21.4455 74.7291 23.0174 75.6039 24.3833L77.2881 23.3047ZM76.306 19.704C76.306 18.2986 76.643 17.1193 77.2853 16.1277L75.6067 15.0404C74.729 16.3954 74.306 17.9627 74.306 19.704H76.306ZM77.2881 16.1233C77.9409 15.1041 78.854 14.3043 80.059 13.7254L79.193 11.9226C77.678 12.6504 76.4712 13.6906 75.6039 15.0447L77.2881 16.1233ZM80.0556 13.727C81.2704 13.1491 82.7185 12.844 84.426 12.844V10.844C82.4802 10.844 80.7283 11.1923 79.1964 11.921L80.0556 13.727ZM84.426 12.844C86.1339 12.844 87.5736 13.1492 88.773 13.7254L89.639 11.9226C88.1184 11.1922 86.3715 10.844 84.426 10.844V12.844ZM88.7764 13.727C89.9949 14.3067 90.9127 15.1066 91.5639 16.1233L93.2481 15.0447C92.3793 13.6882 91.1638 12.648 89.6356 11.921L88.7764 13.727ZM91.5667 16.1277C92.209 17.1193 92.546 18.2986 92.546 19.704H94.546C94.546 17.9627 94.123 16.3954 93.2453 15.0404L91.5667 16.1277ZM92.546 19.704C92.546 21.1092 92.2091 22.2974 91.5639 23.3047L93.2481 24.3833C94.123 23.0174 94.546 21.4455 94.546 19.704H92.546ZM91.5667 23.3004C90.9162 24.3047 89.9978 25.1 88.7764 25.681L89.6356 27.487C91.1609 26.7614 92.3759 25.73 93.2453 24.3877L91.5667 23.3004ZM88.773 25.6826C87.5736 26.2588 86.1339 26.564 84.426 26.564V28.564C86.3715 28.564 88.1184 28.2159 89.639 27.4854L88.773 25.6826ZM84.426 23.964C85.3399 23.964 86.1815 23.8221 86.9225 23.5021L86.1296 21.666C85.6972 21.8527 85.1388 21.964 84.426 21.964V23.964ZM86.9398 23.4944C87.6786 23.1586 88.2848 22.666 88.7087 22.0024L87.0233 20.9256C86.8339 21.2221 86.5468 21.4761 86.1122 21.6737L86.9398 23.4944ZM88.705 22.0082C89.1457 21.3287 89.346 20.5462 89.346 19.704H87.346C87.346 20.2218 87.2263 20.6127 87.0271 20.9198L88.705 22.0082ZM89.346 19.704C89.346 18.8626 89.146 18.0812 88.6981 17.4093L87.034 18.5187C87.2261 18.8069 87.346 19.1854 87.346 19.704H89.346ZM88.7153 17.4361C88.2902 16.7523 87.6767 16.2517 86.9225 15.926L86.1296 17.7621C86.5487 17.9431 86.8285 18.1891 87.0167 18.492L88.7153 17.4361ZM86.9398 15.9337C86.1938 15.5946 85.3459 15.444 84.426 15.444V17.444C85.1328 17.444 85.6849 17.5601 86.1122 17.7544L86.9398 15.9337ZM84.426 15.444C83.5061 15.444 82.6582 15.5946 81.9122 15.9337L82.7398 17.7544C83.1672 17.5601 83.7192 17.444 84.426 17.444V15.444ZM81.9296 15.926C81.1782 16.2504 80.5638 16.7466 80.1271 17.4198L81.805 18.5082C82.0083 18.1948 82.3005 17.9443 82.7225 17.7621L81.9296 15.926ZM80.1233 17.4256C79.6955 18.0953 79.506 18.8707 79.506 19.704H81.506C81.506 19.1774 81.6232 18.7928 81.8087 18.5024L80.1233 17.4256ZM79.506 19.704C79.506 20.5383 79.6958 21.3148 80.1167 21.992L81.8153 20.9361C81.6229 20.6266 81.506 20.2298 81.506 19.704H79.506ZM80.134 22.0187C80.5693 22.6717 81.1762 23.1598 81.9122 23.4944L82.7398 21.6737C82.3025 21.4749 82.0028 21.2164 81.7981 20.9093L80.134 22.0187ZM81.9296 23.5021C82.6706 23.8221 83.5121 23.964 84.426 23.964V21.964C83.7132 21.964 83.1548 21.8527 82.7225 21.666L81.9296 23.5021ZM109.278 23.444L109.514 24.4158L110.88 24.0841L110.118 22.9025L109.278 23.444ZM107.878 23.784H106.878V25.056L108.114 24.7558L107.878 23.784ZM107.878 12.204V11.204H106.878V12.204H107.878ZM112.878 12.204H113.878V11.204H112.878V12.204ZM112.878 27.204V28.204H113.878V27.204H112.878ZM106.418 27.204L105.577 27.7452L105.872 28.204H106.418V27.204ZM98.9777 15.644L98.7417 14.6723L97.3765 15.0038L98.1368 16.1852L98.9777 15.644ZM100.378 15.304H101.378V14.0321L100.142 14.3323L100.378 15.304ZM100.378 27.204V28.204H101.378V27.204H100.378ZM95.3777 27.204H94.3777V28.204H95.3777V27.204ZM95.3777 12.204V11.204H94.3777V12.204H95.3777ZM102.038 12.204L102.878 11.6625L102.583 11.204H102.038V12.204ZM109.042 22.4723L107.642 22.8123L108.114 24.7558L109.514 24.4158L109.042 22.4723ZM108.878 23.784V12.204H106.878V23.784H108.878ZM107.878 13.204H112.878V11.204H107.878V13.204ZM111.878 12.204V27.204H113.878V12.204H111.878ZM112.878 26.204H106.418V28.204H112.878V26.204ZM107.259 26.6628L99.8186 15.1028L98.1368 16.1852L105.577 27.7452L107.259 26.6628ZM99.2137 16.6158L100.614 16.2758L100.142 14.3323L98.7417 14.6723L99.2137 16.6158ZM99.3777 15.304V27.204H101.378V15.304H99.3777ZM100.378 26.204H95.3777V28.204H100.378V26.204ZM96.3777 27.204V12.204H94.3777V27.204H96.3777ZM95.3777 13.204H102.038V11.204H95.3777V13.204ZM101.197 12.7455L108.437 23.9855L110.118 22.9025L102.878 11.6625L101.197 12.7455ZM118.84 24.684H117.84V25.684H118.84V24.684ZM118.84 20.584V19.584H117.84V20.584H118.84ZM129.06 20.584H130.06V19.584H129.06V20.584ZM129.06 24.684V25.684H130.06V24.684H129.06ZM127.48 12.204L128.396 11.8023L128.133 11.204H127.48V12.204ZM134.06 27.204V28.204H135.591L134.976 26.8023L134.06 27.204ZM128.56 27.204L127.634 27.5812L127.888 28.204H128.56V27.204ZM123.38 14.484V13.484H121.893L122.454 14.8612L123.38 14.484ZM124.7 14.484L125.626 14.8612L126.187 13.484H124.7V14.484ZM119.52 27.204V28.204H120.193L120.446 27.5812L119.52 27.204ZM114.02 27.204L113.104 26.8023L112.489 28.204H114.02V27.204ZM120.6 12.204V11.204H119.947L119.684 11.8023L120.6 12.204ZM119.84 24.684V20.584H117.84V24.684H119.84ZM118.84 21.584H129.06V19.584H118.84V21.584ZM128.06 20.584V24.684H130.06V20.584H128.06ZM129.06 23.684H118.84V25.684H129.06V23.684ZM126.564 12.6057L133.144 27.6057L134.976 26.8023L128.396 11.8023L126.564 12.6057ZM134.06 26.204H128.56V28.204H134.06V26.204ZM129.486 26.8269L124.306 14.1069L122.454 14.8612L127.634 27.5812L129.486 26.8269ZM123.38 15.484H124.7V13.484H123.38V15.484ZM123.774 14.1069L118.594 26.8269L120.446 27.5812L125.626 14.8612L123.774 14.1069ZM119.52 26.204H114.02V28.204H119.52V26.204ZM114.936 27.6057L121.516 12.6057L119.684 11.8023L113.104 26.8023L114.936 27.6057ZM120.6 13.204H127.48V11.204H120.6V13.204ZM147.942 13.144L147.523 14.0523L147.534 14.0571L147.942 13.144ZM151.142 15.744L151.969 15.1825V15.1825L151.142 15.744ZM151.142 23.664L151.969 24.2255L151.972 24.221L151.142 23.664ZM147.942 26.284L148.353 27.1956L148.357 27.1938L147.942 26.284ZM135.202 27.204H134.202V28.204H135.202V27.204ZM135.202 12.204V11.204H134.202V12.204H135.202ZM140.322 24.904L139.618 25.6142L141.322 27.3035V24.904H140.322ZM138.002 22.604V21.604H135.573L137.298 23.3142L138.002 22.604ZM145.442 22.264L145.842 23.1808L145.852 23.1759L145.442 22.264ZM146.662 21.264L147.498 21.8127L147.506 21.8009L146.662 21.264ZM146.662 18.144L145.826 18.6927V18.6927L146.662 18.144ZM145.442 17.164L145.023 18.072L145.037 18.0784L145.051 18.0844L145.442 17.164ZM138.002 16.804L137.298 16.0939L135.573 17.804H138.002V16.804ZM140.322 14.504H141.322V12.1045L139.618 13.7939L140.322 14.504ZM143.162 13.204C144.875 13.204 146.32 13.4978 147.523 14.0522L148.36 12.2358C146.844 11.5369 145.102 11.204 143.162 11.204V13.204ZM147.534 14.0571C148.757 14.6033 149.67 15.3562 150.314 16.3055L151.969 15.1825C151.094 13.8918 149.873 12.9115 148.35 12.2309L147.534 14.0571ZM150.314 16.3055C150.949 17.2399 151.282 18.3587 151.282 19.704H153.282C153.282 18.0094 152.855 16.4881 151.969 15.1825L150.314 16.3055ZM151.282 19.704C151.282 21.0338 150.95 22.1555 150.311 23.1071L151.972 24.221C152.854 22.9059 153.282 21.3875 153.282 19.704H151.282ZM150.314 23.1025C149.669 24.0538 148.753 24.8147 147.527 25.3743L148.357 27.1938C149.877 26.5 151.095 25.5142 151.969 24.2255L150.314 23.1025ZM147.531 25.3724C146.326 25.916 144.878 26.204 143.162 26.204V28.204C145.099 28.204 146.838 27.8788 148.353 27.1956L147.531 25.3724ZM143.162 26.204H135.202V28.204H143.162V26.204ZM136.202 27.204V12.204H134.202V27.204H136.202ZM135.202 13.204H143.162V11.204H135.202V13.204ZM141.026 24.1939L138.706 21.8939L137.298 23.3142L139.618 25.6142L141.026 24.1939ZM138.002 23.604H143.562V21.604H138.002V23.604ZM143.562 23.604C144.394 23.604 145.164 23.4759 145.842 23.1807L145.042 21.3473C144.68 21.5055 144.196 21.604 143.562 21.604V23.604ZM145.852 23.1759C146.533 22.8695 147.099 22.4207 147.498 21.8127L145.826 20.7154C145.665 20.9607 145.417 21.1785 145.032 21.3521L145.852 23.1759ZM147.506 21.8009C147.902 21.1774 148.082 20.4649 148.082 19.704H146.082C146.082 20.1431 145.982 20.4706 145.818 20.7272L147.506 21.8009ZM148.082 19.704C148.082 18.9356 147.905 18.2154 147.498 17.5954L145.826 18.6927C145.979 18.926 146.082 19.2458 146.082 19.704H148.082ZM147.498 17.5954C147.095 16.9819 146.523 16.5368 145.833 16.2437L145.051 18.0844C145.428 18.2446 145.668 18.4528 145.826 18.6927L147.498 17.5954ZM145.861 16.2561C145.178 15.9409 144.401 15.804 143.562 15.804V17.804C144.19 17.804 144.666 17.9071 145.023 18.072L145.861 16.2561ZM143.562 15.804H138.002V17.804H143.562V15.804ZM138.706 17.5142L141.026 15.2142L139.618 13.7939L137.298 16.0939L138.706 17.5142ZM139.322 14.504V24.904H141.322V14.504H139.322ZM162.524 21.004H161.524V23.7994L163.297 21.6383L162.524 21.004ZM162.524 17.824L163.301 17.1945L161.524 15.0013V17.824H162.524ZM170.124 27.204V28.204H172.222L170.901 26.5745L170.124 27.204ZM163.784 27.204L162.986 27.8062L163.286 28.204H163.784V27.204ZM159.304 21.264V20.264H157.298L158.506 21.8662L159.304 21.264ZM161.904 21.264L162.7 21.8696L163.922 20.264H161.904V21.264ZM157.384 27.204V28.204H157.88L158.18 27.8096L157.384 27.204ZM151.124 27.204L150.35 26.5715L149.017 28.204H151.124V27.204ZM158.784 17.824H159.784V15.0185L158.01 17.1915L158.784 17.824ZM158.784 21.004L158.014 21.6415L159.784 23.7816V21.004H158.784ZM151.504 12.204V11.204H149.379L150.734 12.8415L151.504 12.204ZM157.964 12.204L158.762 11.6007L158.462 11.204H157.964V12.204ZM162.004 17.544V18.544H164.015L162.802 16.9407L162.004 17.544ZM159.404 17.544L158.601 16.9484L157.418 18.544H159.404V17.544ZM163.364 12.204V11.204H162.861L162.561 11.6084L163.364 12.204ZM169.744 12.204L170.517 12.8383L171.858 11.204H169.744V12.204ZM163.524 21.004V17.824H161.524V21.004H163.524ZM161.747 18.4536L169.347 27.8336L170.901 26.5745L163.301 17.1945L161.747 18.4536ZM170.124 26.204H163.784V28.204H170.124V26.204ZM164.583 26.6019L160.103 20.6619L158.506 21.8662L162.986 27.8062L164.583 26.6019ZM159.304 22.264H161.904V20.264H159.304V22.264ZM161.108 20.6585L156.588 26.5985L158.18 27.8096L162.7 21.8696L161.108 20.6585ZM157.384 26.204H151.124V28.204H157.384V26.204ZM151.899 27.8365L159.559 18.4565L158.01 17.1915L150.35 26.5715L151.899 27.8365ZM157.784 17.824V21.004H159.784V17.824H157.784ZM159.555 20.3666L152.275 11.5666L150.734 12.8415L158.014 21.6415L159.555 20.3666ZM151.504 13.204H157.964V11.204H151.504V13.204ZM157.167 12.8074L161.207 18.1474L162.802 16.9407L158.762 11.6007L157.167 12.8074ZM162.004 16.544H159.404V18.544H162.004V16.544ZM160.208 18.1397L164.168 12.7997L162.561 11.6084L158.601 16.9484L160.208 18.1397ZM163.364 13.204H169.744V11.204H163.364V13.204ZM168.971 11.5697L161.751 20.3697L163.297 21.6383L170.517 12.8383L168.971 11.5697Z"
    fill="black" mask="url(#path-1-outside-1_31911_617)" />
  <path
    d="M18.7939 27.299L18.7939 27.299C18.688 27.2701 18.4856 27.1528 18.1897 26.878C17.9076 26.6161 17.5859 26.2545 17.2402 25.8141C16.5498 24.9346 15.7935 23.7787 15.1049 22.5741C14.4163 21.3696 13.804 20.1315 13.3963 19.0903C13.1922 18.5689 13.0438 18.1081 12.9613 17.7322C12.8746 17.3378 12.8762 17.1038 12.9051 16.9979L12.4227 16.8665L12.9051 16.9979C12.9339 16.892 13.0513 16.6896 13.3261 16.3937C13.5879 16.1116 13.9496 15.7899 14.39 15.4441C15.2695 14.7537 16.4254 13.9975 17.6299 13.3089C18.8345 12.6203 20.0726 12.008 21.1137 11.6003C21.6351 11.3962 22.0958 11.2478 22.4717 11.1653C22.8662 11.0786 23.1001 11.0802 23.206 11.1091L23.206 11.1091C23.3119 11.1379 23.5143 11.2553 23.8103 11.5301C24.0923 11.7919 24.4141 12.1535 24.7598 12.5939C25.4502 13.4735 26.2064 14.6294 26.8951 15.8339C27.5837 17.0384 28.1961 18.2766 28.6037 19.3178C28.8078 19.8391 28.9562 20.2999 29.0388 20.6758C29.1254 21.0702 29.1238 21.3042 29.095 21.4101C29.0661 21.516 28.9488 21.7184 28.674 22.0143C28.4121 22.2964 28.0505 22.6182 27.6101 22.9639C26.7305 23.6543 25.5746 24.4105 24.3701 25.0991C23.1655 25.7877 21.9274 26.4001 20.8862 26.8077C20.3648 27.0119 19.9041 27.1602 19.5282 27.2428C19.1338 27.3294 18.8998 27.3279 18.7939 27.299ZM20.9999 3.70403C20.3643 3.70403 19.6533 3.89741 18.9162 4.21071C18.1735 4.52633 17.3739 4.97679 16.5523 5.52196C14.909 6.61235 13.1438 8.10419 11.522 9.72596C9.90026 11.3477 8.40839 13.1129 7.31798 14.7562C6.77279 15.5779 6.32232 16.3775 6.0067 17.1201C5.69339 17.8573 5.5 18.5683 5.5 19.2039C5.5 19.8396 5.69339 20.5506 6.0067 21.2878C6.32232 22.0304 6.77279 22.83 7.31797 23.6517C8.40839 25.295 9.90026 27.0602 11.522 28.682C13.1438 30.3038 14.909 31.7957 16.5523 32.8861C17.3739 33.4312 18.1735 33.8817 18.9161 34.1973C19.6533 34.5106 20.3642 34.704 20.9999 34.704C21.6356 34.704 22.3465 34.5106 23.0837 34.1973C23.8263 33.8817 24.6259 33.4312 25.4475 32.886C27.0909 31.7956 28.8561 30.3037 30.4779 28.6819C32.0997 27.0601 33.5916 25.2949 34.682 23.6516C35.2272 22.83 35.6777 22.0303 35.9933 21.2877C36.3066 20.5505 36.5 19.8396 36.5 19.2039C36.5 18.5683 36.3066 17.8573 35.9933 17.1202C35.6777 16.3775 35.2272 15.5779 34.682 14.7563C33.5916 13.113 32.0997 11.3478 30.4779 9.72603C28.8561 8.10425 27.0909 6.61239 25.4476 5.52199C24.6259 4.9768 23.8263 4.52634 23.0837 4.21072C22.3465 3.89741 21.6356 3.70403 20.9999 3.70403Z"
    fill="#836EF9" stroke="black" />
  <path
    d="M14.5 34.204C12.55 32.9536 7.71667 28.0796 6.2 26.204C2.04 29.205 1 35.582 1 38.0829C6.2 38.7081 11.9 36.7048 14.5 34.204Z"
    fill="#BFFF60" stroke="black" />
  <path
    d="M38.2911 17.5851C35.5 10.5851 30.5 5.20403 23.5 2.20403C26.7884 0.590261 34.0472 0.196227 37.5 3.58514C41.5754 7.58514 38.2911 17.5851 38.2911 17.5851Z"
    fill="#BFFF60" stroke="black" />
</svg>