<svg width="244" height="61" viewBox="0 0 244 61" fill="none" xmlns="http://www.w3.org/2000/svg">
<path d="M2 -0.5H1.19098L1.55279 0.223607L28.7889 54.6957C30.5675 58.253 34.2032 60.5 38.1803 60.5H205.82C209.797 60.5 213.433 58.253 215.211 54.6957L242.447 0.223607L242.809 -0.5H242H2Z" fill="#1A1843" stroke="#3E347C"/>
<path d="M73.4198 37.1691L67 37.2161C67 37.2161 75.174 26.3624 76.0131 25.1414C77.3097 23.2546 77.6252 22.0756 81.1681 21.7455C84.142 21.4685 86.3863 22.1802 86.3863 23.6309L85.738 33.3012L93.518 22.1214H99.3529L91.4307 33.8198C89.628 36.2022 87.9834 37.2168 84.4413 37.2161C80.3616 37.2154 80.6621 36.2022 80.6621 35.3293L81.6741 25.1414L73.4198 37.1691Z" fill="#836EF9"/>
<path d="M97.9681 37.2163H91.3358L100.621 24.0554C101.284 23.0848 102.174 21.6867 105.798 21.6867C108.696 21.6867 110.019 22.5891 110.569 24.0554L114.63 37.2163H108.936L105.264 25.8539L97.9681 37.2163Z" fill="#836EF9"/>
<path d="M134.342 27.5669C132.923 23.6389 136.776 21.6977 140.814 21.6977C139.68 23.1713 136.895 26.6257 134.821 28.6545C134.644 28.3215 134.484 27.9594 134.342 27.5669Z" fill="#836EF9"/>
<path d="M147.794 27.9373C150.492 27.9373 153.041 28.4919 154.298 31.3298C156.184 35.7714 152.412 37.2272 147.794 37.2272H136.067L135.945 36.6275L139.307 33.3449H147.794C148.448 33.3449 148.921 32.8629 148.745 32.3766C148.626 32.0473 148.237 31.8196 147.794 31.8196H140.814C141.462 31.2863 143.245 29.0092 144.055 27.9373H147.794Z" fill="#836EF9"/>
<path d="M145.621 25.5746C146.312 24.5378 147.348 22.5507 147.78 21.6867L150.387 21.6977L152.409 25.5746H145.621Z" fill="#836EF9"/>
<path d="M170.368 37.2273H177L166.388 24.0664C165.725 23.0958 164.835 21.6977 161.212 21.6977C158.313 21.6977 156.99 22.6 156.44 24.0664L155 37.2273H160.694L161.746 25.8648L170.368 37.2273Z" fill="#836EF9"/>
<path fill-rule="evenodd" clip-rule="evenodd" d="M126.467 22.1084C128.992 22.235 132.606 23.14 134.042 29.6938C131.71 31.8045 126.613 36.2764 124.885 37.2779H117.376C116.703 37.1515 115.356 36.5953 115.356 35.3817C115.356 34.9284 115.425 33.6494 115.51 32.0471C115.654 29.3598 115.845 25.7629 115.845 23.6247C115.845 23.1195 116.25 22.1089 117.866 22.1084H126.467ZM121.101 25.9696V32.944C121.101 33.1649 121.28 33.344 121.501 33.344H126.278C128.866 33.344 129.414 31.4175 128.866 29.4568C128.442 27.9412 127.956 26.9685 127.576 26.3751C127.213 25.8083 126.559 25.5696 125.885 25.5696H121.501C121.28 25.5696 121.101 25.7487 121.101 25.9696Z" fill="#836EF9"/>
<path fill-rule="evenodd" clip-rule="evenodd" d="M128.851 40.0938C143.189 29.4532 151.568 16.4565 147.567 11.0648C144.706 7.21028 136.292 8.28616 126.489 13.1008C134.686 9.30941 141.51 8.52438 143.855 11.6844C147.358 16.4036 139.546 28.1337 126.407 37.8845C113.269 47.6353 99.7788 51.7142 96.2765 46.9951C95.0662 45.3642 95.2071 42.8959 96.4523 39.9613C94.4358 43.9803 94.0246 47.4133 95.6458 49.5979C99.6471 54.9895 114.514 50.7344 128.851 40.0938Z" fill="#BFFF60"/>
<path d="M121.299 9.45037L124.281 12.97L128.802 12.053L125.283 15.0352L126.2 19.5564L123.218 16.0367L118.696 16.9537L122.216 13.9715L121.299 9.45037Z" fill="#BFFF60"/>
</svg>
