<svg width="300" height="400" viewBox="0 0 203 277" fill="none" xmlns="http://www.w3.org/2000/svg">
            <!-- 主触手 -->
            <path d="M34.7742 139.191C22.3016 131.821 27.6875 115.096 33.0025 108.364C38.3176 101.631 43.073 98.4388 43.2783 92.4186C45.4043 30.0555 53.9083 1 78.3575 1C102.807 1 104.933 32.8901 93.9482 39.9769C82.9638 47.0637 79.0662 36.0792 86.5072 36.7879C93.9482 37.4966 93.2396 5.60636 74.1055 16.2364C54.9713 26.8665 73.0425 74.3474 74.1055 100.214C75.4743 133.521 50.365 148.404 34.7742 139.191Z" fill="#631C9E" stroke="black">
                <animate attributeName="d" dur="2s" repeatCount="indefinite" 
                    values="M34.7742 139.191C22.3016 131.821 27.6875 115.096 33.0025 108.364C38.3176 101.631 43.073 98.4388 43.2783 92.4186C45.4043 30.0555 53.9083 1 78.3575 1C102.807 1 104.933 32.8901 93.9482 39.9769C82.9638 47.0637 79.0662 36.0792 86.5072 36.7879C93.9482 37.4966 93.2396 5.60636 74.1055 16.2364C54.9713 26.8665 73.0425 74.3474 74.1055 100.214C75.4743 133.521 50.365 148.404 34.7742 139.191Z;
                    M34.7742 139.191C22.3016 131.821 29.6875 117.096 35.0025 110.364C40.3176 103.631 45.073 100.4388 45.2783 94.4186C47.4043 32.0555 55.9083 3 80.3575 3C104.807 3 106.933 34.8901 95.9482 41.9769C84.9638 49.0637 81.0662 38.0792 88.5072 38.7879C95.9482 39.4966 95.2396 7.60636 76.1055 18.2364C56.9713 28.8665 75.0425 76.3474 76.1055 102.214C77.4743 135.521 52.365 150.404 34.7742 139.191Z;
                    M34.7742 139.191C22.3016 131.821 27.6875 115.096 33.0025 108.364C38.3176 101.631 43.073 98.4388 43.2783 92.4186C45.4043 30.0555 53.9083 1 78.3575 1C102.807 1 104.933 32.8901 93.9482 39.9769C82.9638 47.0637 79.0662 36.0792 86.5072 36.7879C93.9482 37.4966 93.2396 5.60636 74.1055 16.2364C54.9713 26.8665 73.0425 74.3474 74.1055 100.214C75.4743 133.521 50.365 148.404 34.7742 139.191Z"
                />
            </path>
            
            <path d="M80.4835 6.6694C78.7118 4.89772 77.6488 2.77171 79.0661 2.41738C83.1912 1.38611 86.8615 3.48038 86.8615 5.6064C86.8615 7.73241 82.1642 8.35016 80.4835 6.6694Z" fill="#8843C2">
                <animate attributeName="d" dur="2s" repeatCount="indefinite" 
                    values="M80.4835 6.6694C78.7118 4.89772 77.6488 2.77171 79.0661 2.41738C83.1912 1.38611 86.8615 3.48038 86.8615 5.6064C86.8615 7.73241 82.1642 8.35016 80.4835 6.6694Z;
                    M81.4835 7.6694C79.7118 5.89772 78.6488 3.77171 80.0661 3.41738C84.1912 2.38611 87.8615 4.48038 87.8615 6.6064C87.8615 8.73241 83.1642 9.35016 81.4835 7.6694Z;
                    M80.4835 6.6694C78.7118 4.89772 77.6488 2.77171 79.0661 2.41738C83.1912 1.38611 86.8615 3.48038 86.8615 5.6064C86.8615 7.73241 82.1642 8.35016 80.4835 6.6694Z"
                />
            </path>
            
            <path d="M89.0939 8.48691C88.5194 6.94068 88.4725 5.39452 89.4283 5.60081C92.2102 6.20118 93.8417 8.48755 93.2462 9.72439C92.6507 10.9612 89.6389 9.95379 89.0939 8.48691Z" fill="#8843C2">
                <animate attributeName="d" dur="5s" repeatCount="indefinite" 
                    values="M89.0939 8.48691C88.5194 6.94068 88.4725 5.39452 89.4283 5.60081C92.2102 6.20118 93.8417 8.48755 93.2462 9.72439C92.6507 10.9612 89.6389 9.95379 89.0939 8.48691Z;
                    M90.0939 9.48691C89.5194 7.94068 89.4725 6.39452 90.4283 6.60081C93.2102 7.20118 94.8417 9.48755 94.2462 10.72439C93.6507 11.9612 90.6389 10.95379 90.0939 9.48691Z;
                    M89.0939 8.48691C88.5194 6.94068 88.4725 5.39452 89.4283 5.60081C92.2102 6.20118 93.8417 8.48755 93.2462 9.72439C92.6507 10.9612 89.6389 9.95379 89.0939 8.48691Z"
                />
            </path>
            
            <path d="M89.3494 13.435C88.9458 12.3486 88.9128 11.2623 89.5843 11.4072C91.5389 11.829 92.6852 13.4354 92.2668 14.3044C91.8484 15.1734 89.7323 14.4656 89.3494 13.435Z" fill="#8843C2">
                <animate attributeName="d" dur="7s" repeatCount="indefinite" 
                    values="M89.3494 13.435C88.9458 12.3486 88.9128 11.2623 89.5843 11.4072C91.5389 11.829 92.6852 13.4354 92.2668 14.3044C91.8484 15.1734 89.7323 14.4656 89.3494 13.435Z;
                    M90.3494 14.435C89.9458 13.3486 89.9128 12.2623 90.5843 12.4072C92.5389 12.829 93.6852 14.4354 93.2668 15.3044C92.8484 16.1734 90.7323 15.4656 90.3494 14.435Z;
                    M89.3494 13.435C88.9458 12.3486 88.9128 11.2623 89.5843 11.4072C91.5389 11.829 92.6852 13.4354 92.2668 14.3044C91.8484 15.1734 89.7323 14.4656 89.3494 13.435Z"
                />
            </path>
            
            <!-- 左侧触手 -->
            <path d="M56.9129 87.8713C65.1151 85.9327 67.0663 96.923 67.3055 102.275C67.073 110.543 66.215 115.069 61.625 116.307C57.035 117.544 47.3824 115.223 52.6333 101.827C55.6325 94.1746 51.9757 89.0382 56.9129 87.8713Z" stroke="#8843C2" stroke-width="4">
                <animate attributeName="d" dur="9s" repeatCount="indefinite" 
                    values="M56.9129 87.8713C65.1151 85.9327 67.0663 96.923 67.3055 102.275C67.073 110.543 66.215 115.069 61.625 116.307C57.035 117.544 47.3824 115.223 52.6333 101.827C55.6325 94.1746 51.9757 89.0382 56.9129 87.8713Z;
                    M58.9129 89.8713C67.1151 87.9327 69.0663 98.923 69.3055 104.275C69.073 112.543 68.215 117.069 63.625 118.307C59.035 119.544 49.3824 117.223 54.6333 103.827C57.6325 96.1746 53.9757 91.0382 58.9129 89.8713Z;
                    M56.9129 87.8713C65.1151 85.9327 67.0663 96.923 67.3055 102.275C67.073 110.543 66.215 115.069 61.625 116.307C57.035 117.544 47.3824 115.223 52.6333 101.827C55.6325 94.1746 51.9757 89.0382 56.9129 87.8713Z"
                />
            </path>
            
            <path d="M54.2917 65.7543C56.7154 63.5984 58.3311 63.6734 60.3508 65.0806C61.6972 66.0187 62.3705 68.4492 62.7071 70.8072C63.0437 73.1652 62.0338 75.8601 57.6579 74.1758C53.2819 72.4915 51.2622 68.4492 54.2917 65.7543Z" stroke="#8843C2" stroke-width="4">
                <animate attributeName="d" dur="8s" repeatCount="indefinite" 
                    values="M54.2917 65.7543C56.7154 63.5984 58.3311 63.6734 60.3508 65.0806C61.6972 66.0187 62.3705 68.4492 62.7071 70.8072C63.0437 73.1652 62.0338 75.8601 57.6579 74.1758C53.2819 72.4915 51.2622 68.4492 54.2917 65.7543Z;
                    M56.2917 67.7543C58.7154 65.5984 60.3311 65.6734 62.3508 67.0806C63.6972 68.0187 64.3705 70.4492 64.7071 72.8072C65.0437 75.1652 64.0338 77.8601 59.6579 76.1758C55.2819 74.4915 53.2622 70.4492 56.2917 67.7543Z;
                    M54.2917 65.7543C56.7154 63.5984 58.3311 63.6734 60.3508 65.0806C61.6972 66.0187 62.3705 68.4492 62.7071 70.8072C63.0437 73.1652 62.0338 75.8601 57.6579 74.1758C53.2819 72.4915 51.2622 68.4492 54.2917 65.7543Z"
                />
            </path>
            
            <!-- 右侧触手 -->
            <path d="M45.4726 174.06C40.6208 160.384 51.9901 150.747 58.2811 147.638C70.9084 144.564 75.2034 154.398 92.0339 164.99C119.797 182.462 162.003 191.428 175.489 190.615C176.887 190.53 178.169 190.331 179.341 190.042C177.693 189.653 174.95 188.061 177.162 184.806C179.374 181.551 185.65 179.281 188.787 179.095C194.69 178.745 195.966 184.127 196.51 186.938C198.295 196.175 191.107 213.564 148.999 216.2C106.89 218.836 51.5373 191.155 45.4726 174.06Z" fill="#9640DD">
                <animate attributeName="d" dur="10s" repeatCount="indefinite" 
                    values="M45.4726 174.06C40.6208 160.384 51.9901 150.747 58.2811 147.638C70.9084 144.564 75.2034 154.398 92.0339 164.99C119.797 182.462 162.003 191.428 175.489 190.615C176.887 190.53 178.169 190.331 179.341 190.042C177.693 189.653 174.95 188.061 177.162 184.806C179.374 181.551 185.65 179.281 188.787 179.095C194.69 178.745 195.966 184.127 196.51 186.938C198.295 196.175 191.107 213.564 148.999 216.2C106.89 218.836 51.5373 191.155 45.4726 174.06Z;
                    M46.4726 175.06C41.6208 161.384 52.9901 151.747 59.2811 148.638C71.9084 145.564 76.2034 155.398 93.0339 165.99C120.797 183.462 163.003 192.428 176.489 191.615C177.887 191.53 179.169 191.331 180.341 191.042C178.693 190.653 175.95 189.061 178.162 185.806C180.374 182.551 186.65 180.281 189.787 180.095C195.69 179.745 196.966 185.127 197.51 187.938C199.295 197.175 192.107 214.564 149.999 217.2C107.89 219.836 52.5373 192.155 46.4726 175.06Z;
                    M45.4726 174.06C40.6208 160.384 51.9901 150.747 58.2811 147.638C70.9084 144.564 75.2034 154.398 92.0339 164.99C119.797 182.462 162.003 191.428 175.489 190.615C176.887 190.53 178.169 190.331 179.341 190.042C177.693 189.653 174.95 188.061 177.162 184.806C179.374 181.551 185.65 179.281 188.787 179.095C194.69 178.745 195.966 184.127 196.51 186.938C198.295 196.175 191.107 213.564 148.999 216.2C106.89 218.836 51.5373 191.155 45.4726 174.06Z"
                />
            </path>
            
            <path d="M179.341 190.042C178.169 190.331 176.887 190.53 175.489 190.615C162.003 191.428 119.797 182.462 92.0339 164.99C75.2034 154.398 70.9084 144.564 58.2811 147.638C51.9901 150.747 40.6208 160.384 45.4726 174.06C51.5373 191.155 106.89 218.836 148.999 216.2C191.107 213.564 198.295 196.175 196.51 186.938C195.966 184.127 194.69 178.745 188.787 179.095C185.65 179.281 179.374 181.551 177.162 184.806C174.95 188.061 177.693 189.653 179.341 190.042ZM179.341 190.042C181.335 189.551 183.008 188.802 184.383 187.926M184.383 187.926C183.691 187.24 182.581 185.678 183.672 184.919M184.383 187.926C186.123 186.817 187.283 185.304 187.997 183.822" stroke="black" />
            
            <!-- 底部触手 -->
            <path d="M1.35996 166.226C2.97192 160.047 8.61378 147.527 18.2855 146.882C65.0323 160.181 63.4204 206.928 55.7636 235.943C49.6381 259.155 48.3754 266.302 48.5098 266.973C50.1217 266.973 51.7337 268.182 51.7337 271.003C51.7337 273.824 45.2858 280.675 35.6141 271.003C25.9423 261.331 31.9872 209.346 27.1513 198.465C23.2826 189.76 13.987 188.39 9.41977 189.196C4.58389 181.781 1.89729 170.927 1.35996 166.226Z" fill="#8133C2">
                <animate attributeName="d" dur="12s" repeatCount="indefinite" 
                    values="M1.35996 166.226C2.97192 160.047 8.61378 147.527 18.2855 146.882C65.0323 160.181 63.4204 206.928 55.7636 235.943C49.6381 259.155 48.3754 266.302 48.5098 266.973C50.1217 266.973 51.7337 268.182 51.7337 271.003C51.7337 273.824 45.2858 280.675 35.6141 271.003C25.9423 261.331 31.9872 209.346 27.1513 198.465C23.2826 189.76 13.987 188.39 9.41977 189.196C4.58389 181.781 1.89729 170.927 1.35996 166.226Z;
                    M3.35996 168.226C4.97192 162.047 10.61378 149.527 20.2855 148.882C67.0323 162.181 65.4204 208.928 57.7636 237.943C51.6381 261.155 50.3754 268.302 50.5098 268.973C52.1217 268.973 53.7337 270.182 53.7337 273.003C53.7337 275.824 47.2858 282.675 37.6141 273.003C27.9423 263.331 33.9872 211.346 29.1513 200.465C25.2826 191.76 15.987 190.39 11.41977 191.196C6.58389 183.781 3.89729 172.927 3.35996 168.226Z;
                    M1.35996 166.226C2.97192 160.047 8.61378 147.527 18.2855 146.882C65.0323 160.181 63.4204 206.928 55.7636 235.943C49.6381 259.155 48.3754 266.302 48.5098 266.973C50.1217 266.973 51.7337 268.182 51.7337 271.003C51.7337 273.824 45.2858 280.675 35.6141 271.003C25.9423 261.331 31.9872 209.346 27.1513 198.465C23.2826 189.76 13.987 188.39 9.41977 189.196C4.58389 181.781 1.89729 170.927 1.35996 166.226Z"
                />
            </path>
            
            <path d="M48.5098 266.973C50.1217 266.973 51.7337 268.182 51.7337 271.003C51.7337 273.824 45.2858 280.675 35.6141 271.003C25.9423 261.331 31.9872 209.346 27.1513 198.465C23.2826 189.76 13.987 188.39 9.41977 189.196C4.58389 181.781 1.89728 170.927 1.35996 166.226C2.97192 160.047 8.61378 147.527 18.2855 146.882C65.0323 160.181 63.4204 206.928 55.7636 235.943C49.6381 259.155 48.3754 266.302 48.5098 266.973ZM48.5098 266.973C48.3754 267.645 48.1874 269.23 48.5098 270.197" stroke="black" />
            
            <!-- 其他小触手和装饰 -->
            <path d="M83.6351 185.301C85.6855 177.109 95.763 179.339 100.352 181.074C107.172 184.303 110.578 186.737 109.558 191.377C108.538 196.017 102.271 203.979 93.4045 194.299C88.3401 188.77 82.4008 190.233 83.6351 185.301Z" fill="#631C9E">
                <animate attributeName="d" dur="6s" repeatCount="indefinite" 
                    values="M83.6351 185.301C85.6855 177.109 95.763 179.339 100.352 181.074C107.172 184.303 110.578 186.737 109.558 191.377C108.538 196.017 102.271 203.979 93.4045 194.299C88.3401 188.77 82.4008 190.233 83.6351 185.301Z;
                    M85.6351 187.301C87.6855 179.109 97.763 181.339 102.352 183.074C109.172 186.303 112.578 188.737 111.558 193.377C110.538 198.017 104.271 205.979 95.4045 196.299C90.3401 190.77 84.4008 192.233 85.6351 187.301Z;
                    M83.6351 185.301C85.6855 177.109 95.763 179.339 100.352 181.074C107.172 184.303 110.578 186.737 109.558 191.377C108.538 196.017 102.271 203.979 93.4045 194.299C88.3401 188.77 82.4008 190.233 83.6351 185.301Z"
                />
            </path>
            
            <path d="M70.5519 180.33C67.6504 178.074 70.9549 173.211 72.9699 171.062C79.4177 165.017 83.8506 175.898 81.8357 178.315C79.8207 180.733 74.1788 183.151 70.5519 180.33Z" fill="#631C9E">
                <animate attributeName="d" dur="7s" repeatCount="indefinite" 
                    values="M70.5519 180.33C67.6504 178.074 70.9549 173.211 72.9699 171.062C79.4177 165.017 83.8506 175.898 81.8357 178.315C79.8207 180.733 74.1788 183.151 70.5519 180.33Z;
                    M72.5519 182.33C69.6504 180.074 72.9549 175.211 74.9699 173.062C81.4177 167.017 85.8506 177.898 83.8357 180.315C81.8207 182.733 76.1788 185.151 72.5519 182.33Z;
                    M70.5519 180.33C67.6504 178.074 70.9549 173.211 72.9699 171.062C79.4177 165.017 83.8506 175.898 81.8357 178.315C79.8207 180.733 74.1788 183.151 70.5519 180.33Z"
                />
            </path>
            
            <!-- 添加更多触手的动画... -->
            
            <!-- 添加气泡动画元素 -->
        </svg>