<svg width="1440" height="609" viewBox="0 0 1440 609" fill="none" xmlns="http://www.w3.org/2000/svg">
  <path d="M201.952 38.9714L241.258 0H249L186.468 62H-393L-369.774 38.9714H201.952Z" fill="#292E4A" />
  <path
    d="M549 2L609.511 62H1124.75L1163.7 23.3861H1637M459.5 146L421 107.5H155M185 118.5V132M204 118.5V132M221.5 118.5V132M238 118.5V132M254.5 118.5V132M271 118.5V132M288.5 118.5V132M306.5 118.5V132M1182 35.5V49M1201 35.5V49M1218.5 35.5V49M1235 35.5V49M1251.5 35.5V49M1268 35.5V49M1285.5 35.5V49M1303.5 35.5V49M1321.5 35.5V49M1340.5 35.5V49M1358 35.5V49M1374.5 35.5V49M1391 35.5V49M1407.5 35.5V49M1425 35.5V49M1443 35.5V49M1460.5 35.5V49M1479.5 35.5V49M1497 35.5V49M1513.5 35.5V49M1530 35.5V49M1546.5 35.5V49M1564 35.5V49M1582 35.5V49"
    stroke="#292E4A" stroke-width="4" stroke-linecap="round" />
  <g filter="url(#filter0_i_31979_519)">
    <path
      d="M281.524 258.417L228.058 204.95H32.2423V377.608L102.395 445.378V608.5H281.524V454.232L264.156 436.864V345.256L281.524 327.888V258.417Z"
      fill="#23243D" />
  </g>
  <path
    d="M281.524 258.417L228.058 204.95H32.2423V377.608L102.395 445.378V608.5H281.524V454.232L264.156 436.864V345.256L281.524 327.888V258.417Z"
    stroke="black" />
  <path opacity="0.2"
    d="M265.177 258.416L211.711 204.95L222.949 180.771L287.653 245.475V332.656L265.177 355.132V422.901L287.653 445.377V608.5H265.177V454.232L247.809 436.864V345.256L265.177 327.888V258.416Z"
    fill="black" />
  <g filter="url(#filter1_i_31979_519)">
    <path
      d="M-145.183 258.417L-91.717 204.95H32.5831V377.608L102.055 445.378V608.5H-145.183V454.232L-127.815 436.864V345.256L-145.183 327.888V258.417Z"
      fill="#23243D" />
  </g>
  <path
    d="M-145.183 258.417L-91.717 204.95H32.5831V377.608L102.055 445.378V608.5H-145.183V454.232L-127.815 436.864V345.256L-145.183 327.888V258.417Z"
    stroke="black" />
  <g filter="url(#filter2_i_31979_519)">
    <path
      d="M228.058 204.95H-92.0577L-145.524 258.417V327.888L-128.156 345.256V436.864L-145.524 454.232V608.5H-168V445.378L-145.524 422.901V355.132L-168 332.656V245.476L-103.296 180.771H239.296L304 245.476V332.656L281.524 355.132V422.901L304 445.378V608.5H281.524V454.232L264.156 436.864V345.256L281.524 327.888V258.417L228.058 204.95Z"
      fill="#313B58" />
  </g>
  <path
    d="M228.058 204.95H-92.0577L-145.524 258.417V327.888L-128.156 345.256V436.864L-145.524 454.232V608.5H-168V445.378L-145.524 422.901V355.132L-168 332.656V245.476L-103.296 180.771H239.296L304 245.476V332.656L281.524 355.132V422.901L304 445.378V608.5H281.524V454.232L264.156 436.864V345.256L281.524 327.888V258.417L228.058 204.95Z"
    stroke="black" />
  <g filter="url(#filter3_i_31979_519)">
    <path
      d="M294.465 608.16V448.102L276.416 430.053M294.465 258.076V330.272L276.416 348.321M127.255 182.134L117.039 192.35H33.2641L23.0477 182.134M-157.102 258.076V330.272L-139.053 348.321M-137.691 433.118L-157.102 452.529V608.16"
      stroke="#03A6A7" />
  </g>
  <g opacity="0.1">
    <mask id="path-8-outside-1_31979_519" maskUnits="userSpaceOnUse" x="188" y="257" width="49"
      height="313" fill="black">
      <rect fill="white" x="188" y="257" width="49" height="313" />
      <path
        d="M229.54 275.3L229.54 287.78L190 287.78L190 275.3L229.54 275.3ZM235 258.14L235 304.94L223.96 304.94L223.96 258.14L235 258.14ZM189.04 333.205C189.04 327.885 190.02 323.205 191.98 319.165C193.94 315.165 196.68 312.045 200.2 309.805C203.72 307.605 207.82 306.505 212.5 306.505C217.18 306.505 221.28 307.605 224.8 309.805C228.32 312.045 231.06 315.165 233.02 319.165C234.98 323.205 235.96 327.885 235.96 333.205C235.96 338.565 234.98 343.245 233.02 347.245C231.06 351.245 228.32 354.365 224.8 356.605C221.28 358.845 217.18 359.965 212.5 359.965C207.82 359.965 203.72 358.845 200.2 356.605C196.68 354.365 193.94 351.245 191.98 347.245C190.02 343.245 189.04 338.565 189.04 333.205ZM200.14 333.205C200.14 336.125 200.64 338.645 201.64 340.765C202.64 342.885 204.06 344.505 205.9 345.625C207.74 346.785 209.94 347.365 212.5 347.365C215.06 347.365 217.26 346.785 219.1 345.625C220.94 344.505 222.36 342.885 223.36 340.765C224.36 338.645 224.86 336.125 224.86 333.205C224.86 330.325 224.36 327.825 223.36 325.705C222.36 323.585 220.94 321.945 219.1 320.785C217.26 319.625 215.06 319.045 212.5 319.045C209.94 319.045 207.74 319.625 205.9 320.785C204.06 321.945 202.64 323.585 201.64 325.705C200.64 327.825 200.14 330.325 200.14 333.205ZM190 366.376L235 366.376L235 378.736L199.9 378.736L202.48 375.436L235 400.936L235 414.076L190 377.596L190 366.376ZM211.48 387.856L219.04 396.976L190 414.676L190 400.576L211.48 387.856ZM217 457.043L208 457.043L208 424.103L217 424.103L217 457.043ZM212.5 432.563L194.44 429.623L200.08 424.583L200.08 459.023L190 459.023L190 417.203L212.5 420.623L235 417.203L235 458.723L224.92 458.723L224.92 424.583L230.56 429.623L212.5 432.563ZM198.7 507.92L197.92 504.08L235 504.08L235 516.14L190 516.14L190 500.48L227.02 474.5L227.8 478.28L190 478.28L190 466.22L235 466.22L235 482.3L198.7 507.92ZM204.76 522.48L204.76 535.14C203.52 535.34 202.44 535.92 201.52 536.88C200.6 537.84 199.88 539.12 199.36 540.72C198.88 542.36 198.64 544.28 198.64 546.48C198.64 549.52 199.02 551.92 199.78 553.68C200.58 555.44 201.74 556.32 203.26 556.32C204.42 556.32 205.32 555.82 205.96 554.82C206.6 553.82 207.06 551.9 207.34 549.06L208.12 540.66C208.68 534.46 210.08 529.96 212.32 527.16C214.6 524.36 217.66 522.96 221.5 522.96C224.62 522.96 227.26 523.86 229.42 525.66C231.58 527.5 233.2 530.06 234.28 533.34C235.4 536.66 235.96 540.52 235.96 544.92C235.96 549.24 235.34 553.08 234.1 556.44C232.9 559.8 231.18 562.46 228.94 564.42C226.7 566.42 224.1 567.5 221.14 567.66L221.14 555.06C222.22 554.9 223.14 554.38 223.9 553.5C224.7 552.66 225.3 551.5 225.7 550.02C226.14 548.54 226.36 546.76 226.36 544.68C226.36 541.88 225.98 539.66 225.22 538.02C224.5 536.38 223.42 535.56 221.98 535.56C220.94 535.56 220.1 536.04 219.46 537C218.82 538 218.38 539.78 218.14 542.34L217.24 551.28C216.84 555.56 216.14 558.98 215.14 561.54C214.18 564.1 212.84 565.96 211.12 567.12C209.4 568.28 207.26 568.86 204.7 568.86C201.54 568.86 198.78 567.92 196.42 566.04C194.1 564.16 192.28 561.52 190.96 558.12C189.68 554.72 189.04 550.76 189.04 546.24C189.04 541.6 189.68 537.5 190.96 533.94C192.28 530.42 194.12 527.66 196.48 525.66C198.88 523.66 201.64 522.6 204.76 522.48Z" />
    </mask>
    <path
      d="M229.54 275.3L229.54 287.78L190 287.78L190 275.3L229.54 275.3ZM235 258.14L235 304.94L223.96 304.94L223.96 258.14L235 258.14ZM189.04 333.205C189.04 327.885 190.02 323.205 191.98 319.165C193.94 315.165 196.68 312.045 200.2 309.805C203.72 307.605 207.82 306.505 212.5 306.505C217.18 306.505 221.28 307.605 224.8 309.805C228.32 312.045 231.06 315.165 233.02 319.165C234.98 323.205 235.96 327.885 235.96 333.205C235.96 338.565 234.98 343.245 233.02 347.245C231.06 351.245 228.32 354.365 224.8 356.605C221.28 358.845 217.18 359.965 212.5 359.965C207.82 359.965 203.72 358.845 200.2 356.605C196.68 354.365 193.94 351.245 191.98 347.245C190.02 343.245 189.04 338.565 189.04 333.205ZM200.14 333.205C200.14 336.125 200.64 338.645 201.64 340.765C202.64 342.885 204.06 344.505 205.9 345.625C207.74 346.785 209.94 347.365 212.5 347.365C215.06 347.365 217.26 346.785 219.1 345.625C220.94 344.505 222.36 342.885 223.36 340.765C224.36 338.645 224.86 336.125 224.86 333.205C224.86 330.325 224.36 327.825 223.36 325.705C222.36 323.585 220.94 321.945 219.1 320.785C217.26 319.625 215.06 319.045 212.5 319.045C209.94 319.045 207.74 319.625 205.9 320.785C204.06 321.945 202.64 323.585 201.64 325.705C200.64 327.825 200.14 330.325 200.14 333.205ZM190 366.376L235 366.376L235 378.736L199.9 378.736L202.48 375.436L235 400.936L235 414.076L190 377.596L190 366.376ZM211.48 387.856L219.04 396.976L190 414.676L190 400.576L211.48 387.856ZM217 457.043L208 457.043L208 424.103L217 424.103L217 457.043ZM212.5 432.563L194.44 429.623L200.08 424.583L200.08 459.023L190 459.023L190 417.203L212.5 420.623L235 417.203L235 458.723L224.92 458.723L224.92 424.583L230.56 429.623L212.5 432.563ZM198.7 507.92L197.92 504.08L235 504.08L235 516.14L190 516.14L190 500.48L227.02 474.5L227.8 478.28L190 478.28L190 466.22L235 466.22L235 482.3L198.7 507.92ZM204.76 522.48L204.76 535.14C203.52 535.34 202.44 535.92 201.52 536.88C200.6 537.84 199.88 539.12 199.36 540.72C198.88 542.36 198.64 544.28 198.64 546.48C198.64 549.52 199.02 551.92 199.78 553.68C200.58 555.44 201.74 556.32 203.26 556.32C204.42 556.32 205.32 555.82 205.96 554.82C206.6 553.82 207.06 551.9 207.34 549.06L208.12 540.66C208.68 534.46 210.08 529.96 212.32 527.16C214.6 524.36 217.66 522.96 221.5 522.96C224.62 522.96 227.26 523.86 229.42 525.66C231.58 527.5 233.2 530.06 234.28 533.34C235.4 536.66 235.96 540.52 235.96 544.92C235.96 549.24 235.34 553.08 234.1 556.44C232.9 559.8 231.18 562.46 228.94 564.42C226.7 566.42 224.1 567.5 221.14 567.66L221.14 555.06C222.22 554.9 223.14 554.38 223.9 553.5C224.7 552.66 225.3 551.5 225.7 550.02C226.14 548.54 226.36 546.76 226.36 544.68C226.36 541.88 225.98 539.66 225.22 538.02C224.5 536.38 223.42 535.56 221.98 535.56C220.94 535.56 220.1 536.04 219.46 537C218.82 538 218.38 539.78 218.14 542.34L217.24 551.28C216.84 555.56 216.14 558.98 215.14 561.54C214.18 564.1 212.84 565.96 211.12 567.12C209.4 568.28 207.26 568.86 204.7 568.86C201.54 568.86 198.78 567.92 196.42 566.04C194.1 564.16 192.28 561.52 190.96 558.12C189.68 554.72 189.04 550.76 189.04 546.24C189.04 541.6 189.68 537.5 190.96 533.94C192.28 530.42 194.12 527.66 196.48 525.66C198.88 523.66 201.64 522.6 204.76 522.48Z"
      fill="white" fill-opacity="0.5" />
    <path
      d="M229.54 275.3L230.54 275.3L230.54 274.3L229.54 274.3L229.54 275.3ZM229.54 287.78L229.54 288.78L230.54 288.78L230.54 287.78L229.54 287.78ZM190 287.78L189 287.78L189 288.78L190 288.78L190 287.78ZM190 275.3L190 274.3L189 274.3L189 275.3L190 275.3ZM235 258.14L236 258.14L236 257.14L235 257.14L235 258.14ZM235 304.94L235 305.94L236 305.94L236 304.94L235 304.94ZM223.96 304.94L222.96 304.94L222.96 305.94L223.96 305.94L223.96 304.94ZM223.96 258.14L223.96 257.14L222.96 257.14L222.96 258.14L223.96 258.14ZM228.54 275.3L228.54 287.78L230.54 287.78L230.54 275.3L228.54 275.3ZM229.54 286.78L190 286.78L190 288.78L229.54 288.78L229.54 286.78ZM191 287.78L191 275.3L189 275.3L189 287.78L191 287.78ZM190 276.3L229.54 276.3L229.54 274.3L190 274.3L190 276.3ZM234 258.14L234 304.94L236 304.94L236 258.14L234 258.14ZM235 303.94L223.96 303.94L223.96 305.94L235 305.94L235 303.94ZM224.96 304.94L224.96 258.14L222.96 258.14L222.96 304.94L224.96 304.94ZM223.96 259.14L235 259.14L235 257.14L223.96 257.14L223.96 259.14ZM191.98 319.165L191.082 318.725L191.08 318.729L191.98 319.165ZM200.2 309.805L199.67 308.957L199.663 308.961L200.2 309.805ZM224.8 309.805L225.337 308.961L225.33 308.957L224.8 309.805ZM233.02 319.165L233.92 318.729L233.918 318.725L233.02 319.165ZM233.02 347.245L232.122 346.805L232.122 346.805L233.02 347.245ZM224.8 356.605L225.337 357.449L224.8 356.605ZM200.2 356.605L199.663 357.449L200.2 356.605ZM191.98 347.245L192.878 346.805L191.98 347.245ZM201.64 340.765L200.736 341.192L201.64 340.765ZM205.9 345.625L206.433 344.779L206.427 344.775L206.42 344.771L205.9 345.625ZM219.1 345.625L218.58 344.771L218.573 344.775L218.567 344.779L219.1 345.625ZM223.36 340.765L224.264 341.192L223.36 340.765ZM223.36 325.705L224.264 325.279L223.36 325.705ZM219.1 320.785L219.633 319.939L219.1 320.785ZM205.9 320.785L205.367 319.939L205.9 320.785ZM201.64 325.705L200.736 325.279L201.64 325.705ZM190.04 333.205C190.04 328.009 190.997 323.483 192.88 319.602L191.08 318.729C189.043 322.928 188.04 327.762 188.04 333.205L190.04 333.205ZM192.878 319.605C194.763 315.759 197.383 312.783 200.737 310.649L199.663 308.961C195.977 311.307 193.117 314.572 191.082 318.725L192.878 319.605ZM200.73 310.653C204.071 308.565 207.983 307.505 212.5 307.505L212.5 305.505C207.657 305.505 203.369 306.646 199.67 308.957L200.73 310.653ZM212.5 307.505C217.017 307.505 220.929 308.565 224.27 310.653L225.33 308.957C221.631 306.646 217.343 305.505 212.5 305.505L212.5 307.505ZM224.263 310.649C227.617 312.783 230.237 315.759 232.122 319.605L233.918 318.725C231.883 314.572 229.023 311.307 225.337 308.961L224.263 310.649ZM232.12 319.602C234.003 323.483 234.96 328.009 234.96 333.205L236.96 333.205C236.96 327.762 235.957 322.928 233.92 318.729L232.12 319.602ZM234.96 333.205C234.96 338.443 234.003 342.967 232.122 346.805L233.918 347.685C235.957 343.523 236.96 338.687 236.96 333.205L234.96 333.205ZM232.122 346.805C230.237 350.652 227.617 353.627 224.263 355.761L225.337 357.449C229.023 355.103 231.883 351.839 233.918 347.685L232.122 346.805ZM224.263 355.761C220.923 357.887 217.014 358.965 212.5 358.965L212.5 360.965C217.346 360.965 221.637 359.803 225.337 357.449L224.263 355.761ZM212.5 358.965C207.986 358.965 204.077 357.887 200.737 355.761L199.663 357.449C203.363 359.803 207.654 360.965 212.5 360.965L212.5 358.965ZM200.737 355.761C197.383 353.627 194.763 350.652 192.878 346.805L191.082 347.685C193.117 351.839 195.977 355.103 199.663 357.449L200.737 355.761ZM192.878 346.805C190.997 342.967 190.04 338.443 190.04 333.205L188.04 333.205C188.04 338.687 189.043 343.523 191.082 347.685L192.878 346.805ZM199.14 333.205C199.14 336.237 199.659 338.91 200.736 341.192L202.544 340.339C201.621 338.381 201.14 336.013 201.14 333.205L199.14 333.205ZM200.736 341.192C201.811 343.473 203.358 345.249 205.38 346.479L206.42 344.771C204.762 343.762 203.469 342.298 202.544 340.339L200.736 341.192ZM205.367 346.471C207.393 347.748 209.785 348.365 212.5 348.365L212.5 346.365C210.095 346.365 208.087 345.822 206.433 344.779L205.367 346.471ZM212.5 348.365C215.215 348.365 217.607 347.748 219.633 346.471L218.567 344.779C216.913 345.822 214.905 346.365 212.5 346.365L212.5 348.365ZM219.62 346.479C221.642 345.249 223.189 343.473 224.264 341.192L222.456 340.339C221.531 342.298 220.238 343.762 218.58 344.771L219.62 346.479ZM224.264 341.192C225.341 338.91 225.86 336.237 225.86 333.205L223.86 333.205C223.86 336.013 223.379 338.381 222.456 340.339L224.264 341.192ZM225.86 333.205C225.86 330.211 225.34 327.559 224.264 325.279L222.456 326.132C223.38 328.091 223.86 330.44 223.86 333.205L225.86 333.205ZM224.264 325.279C223.19 323 221.647 321.209 219.633 319.939L218.567 321.631C220.233 322.682 221.53 324.17 222.456 326.132L224.264 325.279ZM219.633 319.939C217.607 318.662 215.215 318.045 212.5 318.045L212.5 320.045C214.905 320.045 216.913 320.588 218.567 321.631L219.633 319.939ZM212.5 318.045C209.785 318.045 207.393 318.662 205.367 319.939L206.433 321.631C208.087 320.588 210.095 320.045 212.5 320.045L212.5 318.045ZM205.367 319.939C203.353 321.209 201.81 323 200.736 325.279L202.544 326.132C203.47 324.17 204.767 322.682 206.433 321.631L205.367 319.939ZM200.736 325.279C199.66 327.559 199.14 330.211 199.14 333.205L201.14 333.205C201.14 330.44 201.62 328.091 202.544 326.132L200.736 325.279ZM190 366.376L190 365.376L189 365.376L189 366.376L190 366.376ZM235 366.376L236 366.376L236 365.376L235 365.376L235 366.376ZM235 378.736L235 379.736L236 379.736L236 378.736L235 378.736ZM199.9 378.736L199.112 378.12L197.849 379.736L199.9 379.736L199.9 378.736ZM202.48 375.436L203.097 374.649L202.309 374.031L201.692 374.82L202.48 375.436ZM235 400.936L236 400.936L236 400.449L235.617 400.149L235 400.936ZM235 414.076L234.37 414.853L236 416.174L236 414.076L235 414.076ZM190 377.596L189 377.596L189 378.072L189.37 378.373L190 377.596ZM211.48 387.856L212.25 387.218L211.705 386.56L210.97 386.995L211.48 387.856ZM219.04 396.976L219.56 397.83L220.548 397.228L219.81 396.338L219.04 396.976ZM190 414.676L189 414.676L189 416.456L190.52 415.53L190 414.676ZM190 400.576L189.49 399.715L189 400.006L189 400.576L190 400.576ZM190 367.376L235 367.376L235 365.376L190 365.376L190 367.376ZM234 366.376L234 378.736L236 378.736L236 366.376L234 366.376ZM235 377.736L199.9 377.736L199.9 379.736L235 379.736L235 377.736ZM200.688 379.352L203.268 376.052L201.692 374.82L199.112 378.12L200.688 379.352ZM201.863 376.223L234.383 401.723L235.617 400.149L203.097 374.649L201.863 376.223ZM234 400.936L234 414.076L236 414.076L236 400.936L234 400.936ZM235.63 413.299L190.63 376.819L189.37 378.373L234.37 414.853L235.63 413.299ZM191 377.596L191 366.376L189 366.376L189 377.596L191 377.596ZM210.71 388.494L218.27 397.614L219.81 396.338L212.25 387.218L210.71 388.494ZM218.52 396.122L189.48 413.822L190.52 415.53L219.56 397.83L218.52 396.122ZM191 414.676L191 400.576L189 400.576L189 414.676L191 414.676ZM190.51 401.436L211.99 388.716L210.97 386.995L189.49 399.715L190.51 401.436ZM217 457.043L217 458.043L218 458.043L218 457.043L217 457.043ZM208 457.043L207 457.043L207 458.043L208 458.043L208 457.043ZM208 424.103L208 423.103L207 423.103L207 424.103L208 424.103ZM217 424.103L218 424.103L218 423.103L217 423.103L217 424.103ZM212.5 432.563L212.339 433.55L212.5 433.576L212.661 433.55L212.5 432.563ZM194.44 429.623L193.774 428.877L192.211 430.273L194.279 430.61L194.44 429.623ZM200.08 424.583L201.08 424.583L201.08 422.348L199.414 423.837L200.08 424.583ZM200.08 459.023L200.08 460.023L201.08 460.023L201.08 459.023L200.08 459.023ZM190 459.023L189 459.023L189 460.023L190 460.023L190 459.023ZM190 417.203L190.15 416.214L189 416.039L189 417.203L190 417.203ZM212.5 420.623L212.35 421.611L212.5 421.634L212.65 421.611L212.5 420.623ZM235 417.203L236 417.203L236 416.039L234.85 416.214L235 417.203ZM235 458.723L235 459.723L236 459.723L236 458.723L235 458.723ZM224.92 458.723L223.92 458.723L223.92 459.723L224.92 459.723L224.92 458.723ZM224.92 424.583L225.586 423.837L223.92 422.348L223.92 424.583L224.92 424.583ZM230.56 429.623L230.721 430.61L232.789 430.273L231.226 428.877L230.56 429.623ZM217 456.043L208 456.043L208 458.043L217 458.043L217 456.043ZM209 457.043L209 424.103L207 424.103L207 457.043L209 457.043ZM208 425.103L217 425.103L217 423.103L208 423.103L208 425.103ZM216 424.103L216 457.043L218 457.043L218 424.103L216 424.103ZM212.661 431.576L194.601 428.636L194.279 430.61L212.339 433.55L212.661 431.576ZM195.106 430.368L200.746 425.328L199.414 423.837L193.774 428.877L195.106 430.368ZM199.08 424.583L199.08 459.023L201.08 459.023L201.08 424.583L199.08 424.583ZM200.08 458.023L190 458.023L190 460.023L200.08 460.023L200.08 458.023ZM191 459.023L191 417.203L189 417.203L189 459.023L191 459.023ZM189.85 418.191L212.35 421.611L212.65 419.634L190.15 416.214L189.85 418.191ZM212.65 421.611L235.15 418.191L234.85 416.214L212.35 419.634L212.65 421.611ZM234 417.203L234 458.723L236 458.723L236 417.203L234 417.203ZM235 457.723L224.92 457.723L224.92 459.723L235 459.723L235 457.723ZM225.92 458.723L225.92 424.583L223.92 424.583L223.92 458.723L225.92 458.723ZM224.254 425.328L229.894 430.368L231.226 428.877L225.586 423.837L224.254 425.328ZM230.399 428.636L212.339 431.576L212.661 433.55L230.721 430.61L230.399 428.636ZM198.7 507.92L197.72 508.119L198.025 509.62L199.277 508.737L198.7 507.92ZM197.92 504.08L197.92 503.08L196.696 503.08L196.94 504.279L197.92 504.08ZM235 504.08L236 504.08L236 503.08L235 503.08L235 504.08ZM235 516.14L235 517.14L236 517.14L236 516.14L235 516.14ZM190 516.14L189 516.14L189 517.14L190 517.14L190 516.14ZM190 500.48L189.426 499.661L189 499.96L189 500.48L190 500.48ZM227.02 474.5L227.999 474.297L227.692 472.806L226.446 473.681L227.02 474.5ZM227.8 478.28L227.8 479.28L229.027 479.28L228.779 478.077L227.8 478.28ZM190 478.28L189 478.28L189 479.28L190 479.28L190 478.28ZM190 466.22L190 465.22L189 465.22L189 466.22L190 466.22ZM235 466.22L236 466.22L236 465.22L235 465.22L235 466.22ZM235 482.3L235.577 483.117L236 482.818L236 482.3L235 482.3ZM199.68 507.72L198.9 503.88L196.94 504.279L197.72 508.119L199.68 507.72ZM197.92 505.08L235 505.08L235 503.08L197.92 503.08L197.92 505.08ZM234 504.08L234 516.14L236 516.14L236 504.08L234 504.08ZM235 515.14L190 515.14L190 517.14L235 517.14L235 515.14ZM191 516.14L191 500.48L189 500.48L189 516.14L191 516.14ZM190.574 501.298L227.594 475.318L226.446 473.681L189.426 499.661L190.574 501.298ZM226.041 474.702L226.821 478.482L228.779 478.077L227.999 474.297L226.041 474.702ZM227.8 477.28L190 477.28L190 479.28L227.8 479.28L227.8 477.28ZM191 478.28L191 466.22L189 466.22L189 478.28L191 478.28ZM190 467.22L235 467.22L235 465.22L190 465.22L190 467.22ZM234 466.22L234 482.3L236 482.3L236 466.22L234 466.22ZM234.423 481.483L198.123 507.103L199.277 508.737L235.577 483.117L234.423 481.483ZM204.76 522.48L205.76 522.48L205.76 521.441L204.722 521.481L204.76 522.48ZM204.76 535.14L204.919 536.128L205.76 535.992L205.76 535.14L204.76 535.14ZM201.52 536.88L202.242 537.572L201.52 536.88ZM199.36 540.72L198.409 540.411L198.404 540.425L198.4 540.439L199.36 540.72ZM199.78 553.68L198.862 554.077L198.866 554.085L198.87 554.094L199.78 553.68ZM205.96 554.82L206.802 555.359L205.96 554.82ZM207.34 549.06L208.335 549.158L208.336 549.153L207.34 549.06ZM208.12 540.66L209.116 540.753L209.116 540.75L208.12 540.66ZM212.32 527.16L211.545 526.529L211.539 526.536L212.32 527.16ZM229.42 525.66L230.068 524.899L230.06 524.892L229.42 525.66ZM234.28 533.34L233.33 533.653L233.332 533.66L234.28 533.34ZM234.1 556.44L233.162 556.094L233.158 556.104L234.1 556.44ZM228.94 564.42L228.281 563.668L228.274 563.674L228.94 564.42ZM221.14 567.66L220.14 567.66L220.14 568.716L221.194 568.659L221.14 567.66ZM221.14 555.06L220.993 554.071L220.14 554.198L220.14 555.06L221.14 555.06ZM223.9 553.5L223.176 552.811L223.159 552.828L223.143 552.847L223.9 553.5ZM225.7 550.02L224.741 549.735L224.738 549.747L224.735 549.759L225.7 550.02ZM225.22 538.02L224.304 538.422L224.308 538.432L224.313 538.441L225.22 538.02ZM219.46 537L218.628 536.446L218.623 536.453L218.618 536.461L219.46 537ZM218.14 542.34L219.135 542.44L219.136 542.434L218.14 542.34ZM217.24 551.28L216.245 551.18L216.244 551.187L217.24 551.28ZM215.14 561.54L214.208 561.176L214.204 561.189L215.14 561.54ZM211.12 567.12L211.679 567.949L211.679 567.949L211.12 567.12ZM196.42 566.04L195.79 566.817L195.797 566.822L196.42 566.04ZM190.96 558.12L190.024 558.473L190.028 558.482L190.96 558.12ZM190.96 533.94L190.024 533.589L190.019 533.602L190.96 533.94ZM196.48 525.66L195.84 524.892L195.833 524.897L196.48 525.66ZM203.76 522.48L203.76 535.14L205.76 535.14L205.76 522.48L203.76 522.48ZM204.601 534.153C203.133 534.39 201.859 535.081 200.798 536.188L202.242 537.572C203.021 536.759 203.907 536.291 204.919 536.128L204.601 534.153ZM200.798 536.188C199.75 537.282 198.964 538.705 198.409 540.411L200.311 541.029C200.796 539.536 201.45 538.399 202.242 537.572L200.798 536.188ZM198.4 540.439C197.887 542.192 197.64 544.211 197.64 546.48L199.64 546.48C199.64 544.35 199.873 542.528 200.32 541.001L198.4 540.439ZM197.64 546.48C197.64 549.586 198.025 552.14 198.862 554.077L200.698 553.284C200.014 551.701 199.64 549.455 199.64 546.48L197.64 546.48ZM198.87 554.094C199.317 555.077 199.897 555.889 200.646 556.457C201.407 557.035 202.292 557.32 203.26 557.32L203.26 555.32C202.708 555.32 202.252 555.166 201.854 554.864C201.443 554.551 201.043 554.043 200.69 553.267L198.87 554.094ZM203.26 557.32C204.771 557.32 205.984 556.638 206.802 555.359L205.118 554.281C204.656 555.002 204.069 555.32 203.26 555.32L203.26 557.32ZM206.802 555.359C207.209 554.724 207.516 553.87 207.757 552.863C208.002 551.844 208.192 550.606 208.335 549.158L206.345 548.962C206.208 550.355 206.028 551.496 205.813 552.397C205.594 553.311 205.351 553.917 205.118 554.281L206.802 555.359ZM208.336 549.153L209.116 540.753L207.124 540.568L206.344 548.968L208.336 549.153ZM209.116 540.75C209.67 534.619 211.044 530.356 213.101 527.785L211.539 526.536C209.116 529.565 207.69 534.302 207.124 540.57L209.116 540.75ZM213.095 527.792C215.172 525.241 217.939 523.96 221.5 523.96L221.5 521.96C217.381 521.96 214.028 523.479 211.545 526.529L213.095 527.792ZM221.5 523.96C224.413 523.96 226.819 524.795 228.78 526.429L230.06 524.892C227.7 522.926 224.827 521.96 221.5 521.96L221.5 523.96ZM228.772 526.422C230.764 528.119 232.295 530.509 233.33 533.653L235.23 533.028C234.105 529.611 232.396 526.882 230.068 524.899L228.772 526.422ZM233.332 533.66C234.41 536.854 234.96 540.602 234.96 544.92L236.96 544.92C236.96 540.438 236.39 536.466 235.228 533.021L233.332 533.66ZM234.96 544.92C234.96 549.146 234.353 552.865 233.162 556.094L235.038 556.787C236.327 553.295 236.96 549.335 236.96 544.92L234.96 544.92ZM233.158 556.104C232.004 559.335 230.37 561.84 228.281 563.668L229.598 565.173C231.99 563.08 233.796 560.265 235.042 556.777L233.158 556.104ZM228.274 563.674C226.201 565.525 223.816 566.514 221.086 566.662L221.194 568.659C224.384 568.486 227.199 567.315 229.606 565.166L228.274 563.674ZM222.14 567.66L222.14 555.06L220.14 555.06L220.14 567.66L222.14 567.66ZM221.287 556.05C222.62 555.852 223.751 555.203 224.657 554.154L223.143 552.847C222.529 553.558 221.82 553.949 220.993 554.071L221.287 556.05ZM224.624 554.19C225.57 553.197 226.235 551.872 226.665 550.281L224.735 549.759C224.365 551.129 223.83 552.124 223.176 552.811L224.624 554.19ZM226.659 550.305C227.134 548.707 227.36 546.826 227.36 544.68L225.36 544.68C225.36 546.695 225.146 548.374 224.741 549.735L226.659 550.305ZM227.36 544.68C227.36 541.807 226.973 539.424 226.127 537.6L224.313 538.441C224.987 539.897 225.36 541.954 225.36 544.68L227.36 544.68ZM226.136 537.618C225.728 536.691 225.187 535.92 224.475 535.379C223.75 534.828 222.904 534.56 221.98 534.56L221.98 536.56C222.496 536.56 222.91 536.702 223.265 536.972C223.633 537.251 223.992 537.71 224.304 538.422L226.136 537.618ZM221.98 534.56C220.565 534.56 219.43 535.243 218.628 536.446L220.292 537.555C220.77 536.837 221.315 536.56 221.98 536.56L221.98 534.56ZM218.618 536.461C217.838 537.679 217.386 539.672 217.144 542.247L219.136 542.434C219.374 539.888 219.802 538.321 220.302 537.539L218.618 536.461ZM217.145 542.24L216.245 551.18L218.235 551.38L219.135 542.44L217.145 542.24ZM216.244 551.187C215.849 555.42 215.161 558.738 214.209 561.176L216.071 561.904C217.119 559.223 217.831 555.7 218.236 551.373L216.244 551.187ZM214.204 561.189C213.294 563.616 212.061 565.279 210.561 566.291L211.679 567.949C213.619 566.641 215.066 564.585 216.076 561.891L214.204 561.189ZM210.561 566.291C209.041 567.316 207.108 567.86 204.7 567.86L204.7 569.86C207.412 569.86 209.759 569.244 211.679 567.949L210.561 566.291ZM204.7 567.86C201.755 567.86 199.217 566.99 197.043 565.258L195.797 566.822C198.343 568.851 201.325 569.86 204.7 569.86L204.7 567.86ZM197.05 565.263C194.892 563.515 193.163 561.032 191.892 557.758L190.028 558.482C191.397 562.009 193.308 564.806 195.79 566.817L197.05 565.263ZM191.896 557.768C190.667 554.504 190.04 550.668 190.04 546.24L188.04 546.24C188.04 550.852 188.693 554.936 190.024 558.473L191.896 557.768ZM190.04 546.24C190.04 541.69 190.668 537.709 191.901 534.279L190.019 533.602C188.692 537.292 188.04 541.51 188.04 546.24L190.04 546.24ZM191.896 534.291C193.169 530.897 194.922 528.292 197.127 526.423L195.833 524.897C193.318 527.029 191.391 529.944 190.024 533.589L191.896 534.291ZM197.12 526.429C199.351 524.57 201.899 523.591 204.798 523.48L204.722 521.481C201.381 521.61 198.409 522.751 195.84 524.892L197.12 526.429Z"
      fill="white" mask="url(#path-8-outside-1_31979_519)" />
  </g>
  <path
    d="M158.831 251H66.1891L51 266.252V316.973L66.1891 332.225H158.831L174.02 316.973V266.252L158.831 251Z"
    fill="#252E49" stroke="black" />
  <path
    d="M146.368 259.033H81.2377L69 271.101V311.232L81.2377 323.299H146.368L158.606 311.232V271.101L146.368 259.033Z"
    fill="#23243D" stroke="black" />
  <path d="M57.0332 270.814L62.3887 266.173V316.157L57.0332 311.516V270.814Z" fill="#A5FFFD"
    stroke="black" />
  <path d="M167.463 270.814L163 266.173V316.157L167.463 311.516V270.814Z" fill="#A5FFFD"
    stroke="black" />
  <path
    d="M103 294.631C100.333 293.091 98.9998 292.322 98.9998 291.167C98.9998 290.012 100.333 289.242 103 287.703L116.438 279.944C119.105 278.404 120.438 277.635 121.438 278.212C122.438 278.789 122.438 280.329 122.438 283.408L122.438 298.926C122.438 302.005 122.438 303.544 121.438 304.122C120.438 304.699 119.105 303.929 116.438 302.39L103 294.631Z"
    fill="#A5FFFD" stroke="black" />
  <defs>
    <filter id="filter0_i_31979_519" x="31.7423" y="204.45" width="250.281" height="404.55"
      filterUnits="userSpaceOnUse" color-interpolation-filters="sRGB">
      <feFlood flood-opacity="0" result="BackgroundImageFix" />
      <feBlend mode="normal" in="SourceGraphic" in2="BackgroundImageFix" result="shape" />
      <feColorMatrix in="SourceAlpha" type="matrix"
        values="0 0 0 0 0 0 0 0 0 0 0 0 0 0 0 0 0 0 127 0" result="hardAlpha" />
      <feOffset dx="3" dy="1" />
      <feComposite in2="hardAlpha" operator="arithmetic" k2="-1" k3="1" />
      <feColorMatrix type="matrix" values="0 0 0 0 1 0 0 0 0 1 0 0 0 0 1 0 0 0 0.25 0" />
      <feBlend mode="normal" in2="shape" result="effect1_innerShadow_31979_519" />
    </filter>
    <filter id="filter1_i_31979_519" x="-145.683" y="204.45" width="248.238" height="404.55"
      filterUnits="userSpaceOnUse" color-interpolation-filters="sRGB">
      <feFlood flood-opacity="0" result="BackgroundImageFix" />
      <feBlend mode="normal" in="SourceGraphic" in2="BackgroundImageFix" result="shape" />
      <feColorMatrix in="SourceAlpha" type="matrix"
        values="0 0 0 0 0 0 0 0 0 0 0 0 0 0 0 0 0 0 127 0" result="hardAlpha" />
      <feOffset dx="8" dy="2" />
      <feComposite in2="hardAlpha" operator="arithmetic" k2="-1" k3="1" />
      <feColorMatrix type="matrix" values="0 0 0 0 1 0 0 0 0 1 0 0 0 0 1 0 0 0 0.25 0" />
      <feBlend mode="normal" in2="shape" result="effect1_innerShadow_31979_519" />
    </filter>
    <filter id="filter2_i_31979_519" x="-168.5" y="180.271" width="473" height="428.729"
      filterUnits="userSpaceOnUse" color-interpolation-filters="sRGB">
      <feFlood flood-opacity="0" result="BackgroundImageFix" />
      <feBlend mode="normal" in="SourceGraphic" in2="BackgroundImageFix" result="shape" />
      <feColorMatrix in="SourceAlpha" type="matrix"
        values="0 0 0 0 0 0 0 0 0 0 0 0 0 0 0 0 0 0 127 0" result="hardAlpha" />
      <feOffset dx="4" dy="-3" />
      <feComposite in2="hardAlpha" operator="arithmetic" k2="-1" k3="1" />
      <feColorMatrix type="matrix" values="0 0 0 0 1 0 0 0 0 1 0 0 0 0 1 0 0 0 0.25 0" />
      <feBlend mode="normal" in2="shape" result="effect1_innerShadow_31979_519" />
    </filter>
    <filter id="filter3_i_31979_519" x="-157.602" y="181.78" width="452.567" height="426.379"
      filterUnits="userSpaceOnUse" color-interpolation-filters="sRGB">
      <feFlood flood-opacity="0" result="BackgroundImageFix" />
      <feBlend mode="normal" in="SourceGraphic" in2="BackgroundImageFix" result="shape" />
      <feColorMatrix in="SourceAlpha" type="matrix"
        values="0 0 0 0 0 0 0 0 0 0 0 0 0 0 0 0 0 0 127 0" result="hardAlpha" />
      <feOffset dx="10" dy="5" />
      <feComposite in2="hardAlpha" operator="arithmetic" k2="-1" k3="1" />
      <feColorMatrix type="matrix" values="0 0 0 0 1 0 0 0 0 1 0 0 0 0 1 0 0 0 0.25 0" />
      <feBlend mode="normal" in2="shape" result="effect1_innerShadow_31979_519" />
    </filter>
  </defs>
</svg>