<svg width="472" height="128" viewBox="0 0 472 128" fill="none" xmlns="http://www.w3.org/2000/svg">
<g filter="url(#filter0_i_31843_1291)">
<path d="M22.4307 17.202C24.2502 7.79505 32.4855 1 42.0667 1H429.933C439.515 1 447.75 7.79505 449.569 17.202L471 128H1L22.4307 17.202Z" fill="#435589"/>
</g>
<path d="M22.4307 17.202C24.2502 7.79505 32.4855 1 42.0667 1H429.933C439.515 1 447.75 7.79505 449.569 17.202L471 128H1L22.4307 17.202Z" stroke="black"/>
<g filter="url(#filter1_i_31843_1291)">
<path d="M41.8641 23.6825C42.5246 18.7126 46.7633 15 51.7769 15H420.223C425.237 15 429.475 18.7126 430.136 23.6826L444 128H28L41.8641 23.6825Z" fill="#483F7D"/>
</g>
<path d="M41.8641 23.6825C42.5246 18.7126 46.7633 15 51.7769 15H420.223C425.237 15 429.475 18.7126 430.136 23.6826L444 128H28L41.8641 23.6825Z" stroke="black"/>
<g filter="url(#filter2_d_31843_1291)">
<path d="M393.243 38.0427C392.594 34.3687 395.421 31 399.152 31H408.966C411.878 31 414.369 33.0901 414.875 35.9573L415.757 40.9573C416.406 44.6313 413.579 48 409.848 48H400.034C397.122 48 394.631 45.9099 394.125 43.0427L393.243 38.0427Z" fill="#A6A6D2"/>
<path d="M393.243 38.0427C392.594 34.3687 395.421 31 399.152 31H408.966C411.878 31 414.369 33.0901 414.875 35.9573L415.757 40.9573C416.406 44.6313 413.579 48 409.848 48H400.034C397.122 48 394.631 45.9099 394.125 43.0427L393.243 38.0427Z" stroke="black"/>
</g>
<g filter="url(#filter3_d_31843_1291)">
<path d="M358.788 37.701C358.369 34.1341 361.156 31 364.747 31H374.665C377.707 31 380.268 33.2773 380.623 36.299L381.212 41.299C381.631 44.8659 378.844 48 375.253 48H365.335C362.293 48 359.732 45.7227 359.377 42.701L358.788 37.701Z" fill="#A6A6D2"/>
<path d="M358.788 37.701C358.369 34.1341 361.156 31 364.747 31H374.665C377.707 31 380.268 33.2773 380.623 36.299L381.212 41.299C381.631 44.8659 378.844 48 375.253 48H365.335C362.293 48 359.732 45.7227 359.377 42.701L358.788 37.701Z" stroke="black"/>
</g>
<g filter="url(#filter4_d_31843_1291)">
<path d="M88.2428 40.9573C87.5945 44.6313 90.4207 48 94.1515 48H103.966C106.878 48 109.369 45.9099 109.875 43.0427L110.757 38.0427C111.406 34.3687 108.579 31 104.848 31H95.0339C92.1224 31 89.6312 33.0901 89.1252 35.9573L88.2428 40.9573Z" fill="#A6A6D2"/>
<path d="M88.2428 40.9573C87.5945 44.6313 90.4207 48 94.1515 48H103.966C106.878 48 109.369 45.9099 109.875 43.0427L110.757 38.0427C111.406 34.3687 108.579 31 104.848 31H95.0339C92.1224 31 89.6312 33.0901 89.1252 35.9573L88.2428 40.9573Z" stroke="black"/>
</g>
<g filter="url(#filter5_d_31843_1291)">
<path d="M53.7884 41.299C53.3687 44.8659 56.1557 48 59.7473 48H69.6645C72.707 48 75.2679 45.7227 75.6234 42.701L76.2116 37.701C76.6313 34.1341 73.8443 31 70.2527 31H60.3355C57.293 31 54.7321 33.2773 54.3766 36.299L53.7884 41.299Z" fill="#A6A6D2"/>
<path d="M53.7884 41.299C53.3687 44.8659 56.1557 48 59.7473 48H69.6645C72.707 48 75.2679 45.7227 75.6234 42.701L76.2116 37.701C76.6313 34.1341 73.8443 31 70.2527 31H60.3355C57.293 31 54.7321 33.2773 54.3766 36.299L53.7884 41.299Z" stroke="black"/>
</g>
<g filter="url(#filter6_d_31843_1291)">
<path d="M173.395 37H176.419V49H173.395V37ZM182.931 37H185.939V49H182.931V37ZM175.075 41.592H184.211V44.248H175.075V41.592ZM194.797 49.256C193.389 49.256 192.152 48.9947 191.085 48.472C190.029 47.9493 189.208 47.2187 188.621 46.28C188.035 45.3413 187.741 44.248 187.741 43C187.741 41.752 188.035 40.6587 188.621 39.72C189.208 38.7813 190.029 38.0507 191.085 37.528C192.152 37.0053 193.389 36.744 194.797 36.744C196.205 36.744 197.437 37.0053 198.493 37.528C199.56 38.0507 200.387 38.7813 200.973 39.72C201.571 40.6587 201.869 41.752 201.869 43C201.869 44.248 201.571 45.3413 200.973 46.28C200.387 47.2187 199.56 47.9493 198.493 48.472C197.437 48.9947 196.205 49.256 194.797 49.256ZM194.797 46.552C195.629 46.552 196.344 46.4133 196.941 46.136C197.539 45.848 197.997 45.4373 198.317 44.904C198.648 44.3707 198.813 43.736 198.813 43C198.813 42.264 198.648 41.6293 198.317 41.096C197.997 40.5627 197.539 40.1573 196.941 39.88C196.344 39.592 195.629 39.448 194.797 39.448C193.976 39.448 193.267 39.592 192.669 39.88C192.072 40.1573 191.608 40.5627 191.277 41.096C190.947 41.6293 190.781 42.264 190.781 43C190.781 43.736 190.947 44.3707 191.277 44.904C191.608 45.4373 192.072 45.848 192.669 46.136C193.267 46.4133 193.976 46.552 194.797 46.552ZM206.921 38.328H209.945V49H206.921V38.328ZM202.249 37H214.617V39.672H202.249V37ZM222.858 38.328H225.882V49H222.858V38.328ZM218.186 37H230.554V39.672H218.186V37ZM237.985 49.256C236.577 49.256 235.339 48.9947 234.273 48.472C233.217 47.9493 232.395 47.2187 231.809 46.28C231.222 45.3413 230.929 44.248 230.929 43C230.929 41.752 231.222 40.6587 231.809 39.72C232.395 38.7813 233.217 38.0507 234.273 37.528C235.339 37.0053 236.577 36.744 237.985 36.744C239.393 36.744 240.625 37.0053 241.681 37.528C242.747 38.0507 243.574 38.7813 244.161 39.72C244.758 40.6587 245.057 41.752 245.057 43C245.057 44.248 244.758 45.3413 244.161 46.28C243.574 47.2187 242.747 47.9493 241.681 48.472C240.625 48.9947 239.393 49.256 237.985 49.256ZM237.985 46.552C238.817 46.552 239.531 46.4133 240.129 46.136C240.726 45.848 241.185 45.4373 241.505 44.904C241.835 44.3707 242.001 43.736 242.001 43C242.001 42.264 241.835 41.6293 241.505 41.096C241.185 40.5627 240.726 40.1573 240.129 39.88C239.531 39.592 238.817 39.448 237.985 39.448C237.163 39.448 236.454 39.592 235.857 39.88C235.259 40.1573 234.795 40.5627 234.465 41.096C234.134 41.6293 233.969 42.264 233.969 43C233.969 43.736 234.134 44.3707 234.465 44.904C234.795 45.4373 235.259 45.848 235.857 46.136C236.454 46.4133 237.163 46.552 237.985 46.552ZM246.848 49V37H249.856V46.584L249.04 45.96L256.144 37H259.344L249.568 49H246.848ZM252.592 43.192L254.768 41.32L259.504 49H256.08L252.592 43.192ZM270.709 41.88V44.12H262.021V41.88H270.709ZM264.069 43L263.269 47.96L262.005 46.536H271.221V49H260.245L261.173 43L260.245 37H271.141V39.464H262.005L263.269 38.04L264.069 43ZM284.327 46.936L283.351 47.112V37H286.279V49H282.471L275.159 38.888L276.135 38.712V49H273.207V37H277.127L284.327 46.936ZM288.037 45.08H291.093C291.147 45.4427 291.312 45.7627 291.589 46.04C291.867 46.3173 292.235 46.5307 292.693 46.68C293.163 46.8293 293.707 46.904 294.325 46.904C295.211 46.904 295.904 46.7813 296.405 46.536C296.917 46.2907 297.173 45.944 297.173 45.496C297.173 45.1547 297.024 44.8933 296.725 44.712C296.437 44.52 295.893 44.3813 295.093 44.296L292.773 44.056C291.163 43.896 289.995 43.5227 289.269 42.936C288.555 42.3493 288.197 41.5493 288.197 40.536C288.197 39.736 288.432 39.0533 288.901 38.488C289.381 37.9227 290.048 37.4907 290.901 37.192C291.765 36.8933 292.773 36.744 293.925 36.744C295.067 36.744 296.075 36.9093 296.949 37.24C297.824 37.5707 298.523 38.0293 299.045 38.616C299.568 39.2027 299.851 39.8853 299.893 40.664H296.837C296.795 40.344 296.645 40.072 296.389 39.848C296.144 39.6133 295.808 39.432 295.381 39.304C294.965 39.1653 294.459 39.096 293.861 39.096C293.061 39.096 292.421 39.2133 291.941 39.448C291.472 39.672 291.237 39.9973 291.237 40.424C291.237 40.744 291.376 40.9947 291.653 41.176C291.941 41.3573 292.448 41.4907 293.173 41.576L295.621 41.848C296.741 41.9653 297.637 42.152 298.309 42.408C298.981 42.664 299.467 43.016 299.765 43.464C300.064 43.912 300.213 44.4773 300.213 45.16C300.213 45.9813 299.963 46.7013 299.461 47.32C298.971 47.928 298.277 48.4027 297.381 48.744C296.496 49.0853 295.461 49.256 294.277 49.256C293.051 49.256 291.973 49.08 291.045 48.728C290.128 48.376 289.403 47.8907 288.869 47.272C288.347 46.6427 288.069 45.912 288.037 45.08Z" fill="url(#paint0_linear_31843_1291)"/>
</g>
<defs>
<filter id="filter0_i_31843_1291" x="0.394012" y="0.5" width="471.212" height="128" filterUnits="userSpaceOnUse" color-interpolation-filters="sRGB">
<feFlood flood-opacity="0" result="BackgroundImageFix"/>
<feBlend mode="normal" in="SourceGraphic" in2="BackgroundImageFix" result="shape"/>
<feColorMatrix in="SourceAlpha" type="matrix" values="0 0 0 0 0 0 0 0 0 0 0 0 0 0 0 0 0 0 127 0" result="hardAlpha"/>
<feOffset dy="6"/>
<feComposite in2="hardAlpha" operator="arithmetic" k2="-1" k3="1"/>
<feColorMatrix type="matrix" values="0 0 0 0 0 0 0 0 0 0 0 0 0 0 0 0 0 0 0.25 0"/>
<feBlend mode="normal" in2="shape" result="effect1_innerShadow_31843_1291"/>
</filter>
<filter id="filter1_i_31843_1291" x="27.4291" y="14.5" width="417.142" height="114" filterUnits="userSpaceOnUse" color-interpolation-filters="sRGB">
<feFlood flood-opacity="0" result="BackgroundImageFix"/>
<feBlend mode="normal" in="SourceGraphic" in2="BackgroundImageFix" result="shape"/>
<feColorMatrix in="SourceAlpha" type="matrix" values="0 0 0 0 0 0 0 0 0 0 0 0 0 0 0 0 0 0 127 0" result="hardAlpha"/>
<feOffset dy="6"/>
<feComposite in2="hardAlpha" operator="arithmetic" k2="-1" k3="1"/>
<feColorMatrix type="matrix" values="0 0 0 0 0 0 0 0 0 0 0 0 0 0 0 0 0 0 0.25 0"/>
<feBlend mode="normal" in2="shape" result="effect1_innerShadow_31843_1291"/>
</filter>
<filter id="filter2_d_31843_1291" x="392.65" y="30.5" width="23.7004" height="20" filterUnits="userSpaceOnUse" color-interpolation-filters="sRGB">
<feFlood flood-opacity="0" result="BackgroundImageFix"/>
<feColorMatrix in="SourceAlpha" type="matrix" values="0 0 0 0 0 0 0 0 0 0 0 0 0 0 0 0 0 0 127 0" result="hardAlpha"/>
<feOffset dy="2"/>
<feComposite in2="hardAlpha" operator="out"/>
<feColorMatrix type="matrix" values="0 0 0 0 0 0 0 0 0 0 0 0 0 0 0 0 0 0 1 0"/>
<feBlend mode="normal" in2="BackgroundImageFix" result="effect1_dropShadow_31843_1291"/>
<feBlend mode="normal" in="SourceGraphic" in2="effect1_dropShadow_31843_1291" result="shape"/>
</filter>
<filter id="filter3_d_31843_1291" x="358.246" y="30.5" width="23.5072" height="20" filterUnits="userSpaceOnUse" color-interpolation-filters="sRGB">
<feFlood flood-opacity="0" result="BackgroundImageFix"/>
<feColorMatrix in="SourceAlpha" type="matrix" values="0 0 0 0 0 0 0 0 0 0 0 0 0 0 0 0 0 0 127 0" result="hardAlpha"/>
<feOffset dy="2"/>
<feComposite in2="hardAlpha" operator="out"/>
<feColorMatrix type="matrix" values="0 0 0 0 0 0 0 0 0 0 0 0 0 0 0 0 0 0 1 0"/>
<feBlend mode="normal" in2="BackgroundImageFix" result="effect1_dropShadow_31843_1291"/>
<feBlend mode="normal" in="SourceGraphic" in2="effect1_dropShadow_31843_1291" result="shape"/>
</filter>
<filter id="filter4_d_31843_1291" x="87.6498" y="30.5" width="23.7004" height="20" filterUnits="userSpaceOnUse" color-interpolation-filters="sRGB">
<feFlood flood-opacity="0" result="BackgroundImageFix"/>
<feColorMatrix in="SourceAlpha" type="matrix" values="0 0 0 0 0 0 0 0 0 0 0 0 0 0 0 0 0 0 127 0" result="hardAlpha"/>
<feOffset dy="2"/>
<feComposite in2="hardAlpha" operator="out"/>
<feColorMatrix type="matrix" values="0 0 0 0 0 0 0 0 0 0 0 0 0 0 0 0 0 0 1 0"/>
<feBlend mode="normal" in2="BackgroundImageFix" result="effect1_dropShadow_31843_1291"/>
<feBlend mode="normal" in="SourceGraphic" in2="effect1_dropShadow_31843_1291" result="shape"/>
</filter>
<filter id="filter5_d_31843_1291" x="53.2464" y="30.5" width="23.5072" height="20" filterUnits="userSpaceOnUse" color-interpolation-filters="sRGB">
<feFlood flood-opacity="0" result="BackgroundImageFix"/>
<feColorMatrix in="SourceAlpha" type="matrix" values="0 0 0 0 0 0 0 0 0 0 0 0 0 0 0 0 0 0 127 0" result="hardAlpha"/>
<feOffset dy="2"/>
<feComposite in2="hardAlpha" operator="out"/>
<feColorMatrix type="matrix" values="0 0 0 0 0 0 0 0 0 0 0 0 0 0 0 0 0 0 1 0"/>
<feBlend mode="normal" in2="BackgroundImageFix" result="effect1_dropShadow_31843_1291"/>
<feBlend mode="normal" in="SourceGraphic" in2="effect1_dropShadow_31843_1291" result="shape"/>
</filter>
<filter id="filter6_d_31843_1291" x="173.395" y="35.7441" width="126.819" height="13.5117" filterUnits="userSpaceOnUse" color-interpolation-filters="sRGB">
<feFlood flood-opacity="0" result="BackgroundImageFix"/>
<feColorMatrix in="SourceAlpha" type="matrix" values="0 0 0 0 0 0 0 0 0 0 0 0 0 0 0 0 0 0 127 0" result="hardAlpha"/>
<feOffset dy="-1"/>
<feComposite in2="hardAlpha" operator="out"/>
<feColorMatrix type="matrix" values="0 0 0 0 0 0 0 0 0 0 0 0 0 0 0 0 0 0 0.5 0"/>
<feBlend mode="normal" in2="BackgroundImageFix" result="effect1_dropShadow_31843_1291"/>
<feBlend mode="normal" in="SourceGraphic" in2="effect1_dropShadow_31843_1291" result="shape"/>
</filter>
<linearGradient id="paint0_linear_31843_1291" x1="236.5" y1="35" x2="236.5" y2="51" gradientUnits="userSpaceOnUse">
<stop stop-color="#A6A6DB"/>
<stop offset="1" stop-color="#7A7AB0"/>
</linearGradient>
</defs>
</svg>
