<svg width="102" height="96" viewBox="0 0 102 96" fill="none" xmlns="http://www.w3.org/2000/svg">
  <path d="M48.0771 82.6348C50.0843 91.0124 50.5 102 95.5 89" stroke="black" stroke-width="1.5" stroke-linecap="round"/>
  <path d="M45.4041 86.7617C45.2899 86.6704 45.2191 86.5443 45.215 86.2961C45.2105 86.0204 45.2944 85.6514 45.4709 85.1975C45.7446 84.4937 46.1647 83.7625 46.5557 83.0816C46.5983 83.0076 46.6405 82.9341 46.6821 82.8613H51.3786C51.8827 83.5199 52.4671 84.4122 52.8119 85.2302C53.0126 85.7062 53.1024 86.0886 53.096 86.3542C53.0906 86.5813 53.0256 86.6479 52.9411 86.6962C52.5953 86.8938 52.0252 87.0718 51.2893 87.1971C50.5679 87.3199 49.7434 87.3828 48.928 87.3828C48.1116 87.3828 47.3245 87.3197 46.6763 87.1991C45.996 87.0725 45.5794 86.902 45.4041 86.7617Z" fill="url(#paint0_linear_30524_46)" stroke="black" stroke-width="1.5"/>
  <mask id="path-3-outside-1_30524_46" maskUnits="userSpaceOnUse" x="0" y="0" width="102" height="85" fill="black">
    <rect fill="white" width="102" height="85"/>
    <path fill-rule="evenodd" clip-rule="evenodd" d="M40.2252 16.8892C38.2021 8.35171 30.5295 2 21.3734 2C10.6738 2 2 10.6738 2 21.3734C2 27.8916 5.21905 33.658 10.1541 37.1695C8.27084 40.9513 7.23605 45.0729 7.23605 49.3863C7.23605 67.7491 25.9901 82.6352 49.1245 82.6352C72.2588 82.6352 91.0129 67.7491 91.0129 49.3863C91.0129 45.7104 90.2614 42.1738 88.8736 38.8681C95.4028 35.7527 99.9142 29.0899 99.9142 21.3734C99.9142 10.6738 91.2404 2 80.5408 2C71.1254 2 63.2787 8.7166 61.5307 17.6198C57.6104 16.6562 53.4438 16.1373 49.1245 16.1373C46.0707 16.1373 43.0933 16.3967 40.2252 16.8892Z"/>
  </mask>
  <path fill-rule="evenodd" clip-rule="evenodd" d="M40.2252 16.8892C38.2021 8.35171 30.5295 2 21.3734 2C10.6738 2 2 10.6738 2 21.3734C2 27.8916 5.21905 33.658 10.1541 37.1695C8.27084 40.9513 7.23605 45.0729 7.23605 49.3863C7.23605 67.7491 25.9901 82.6352 49.1245 82.6352C72.2588 82.6352 91.0129 67.7491 91.0129 49.3863C91.0129 45.7104 90.2614 42.1738 88.8736 38.8681C95.4028 35.7527 99.9142 29.0899 99.9142 21.3734C99.9142 10.6738 91.2404 2 80.5408 2C71.1254 2 63.2787 8.7166 61.5307 17.6198C57.6104 16.6562 53.4438 16.1373 49.1245 16.1373C46.0707 16.1373 43.0933 16.3967 40.2252 16.8892Z" fill="#E8ACB3"/>
  <path d="M40.2252 16.8892L38.7656 17.2351L39.0905 18.6061L40.4791 18.3676L40.2252 16.8892ZM10.1541 37.1695L11.4969 37.8381L12.0683 36.6905L11.0238 35.9473L10.1541 37.1695ZM88.8736 38.8681L88.2277 37.5144L86.9371 38.1302L87.4906 39.4487L88.8736 38.8681ZM61.5307 17.6198L61.1727 19.0765L62.6997 19.4518L63.0026 17.9088L61.5307 17.6198ZM41.6848 16.5434C39.505 7.34476 31.2404 0.5 21.3734 0.5V3.5C29.8186 3.5 36.8991 9.35866 38.7656 17.2351L41.6848 16.5434ZM21.3734 0.5C9.84534 0.5 0.5 9.84534 0.5 21.3734H3.5C3.5 11.5022 11.5022 3.5 21.3734 3.5V0.5ZM0.5 21.3734C0.5 28.3975 3.97092 34.6108 9.2845 38.3917L11.0238 35.9473C6.46719 32.7051 3.5 27.3857 3.5 21.3734H0.5ZM8.73605 49.3863C8.73605 45.3178 9.7111 41.4241 11.4969 37.8381L8.81141 36.5008C6.83059 40.4785 5.73605 44.8279 5.73605 49.3863H8.73605ZM49.1245 81.1352C26.477 81.1352 8.73605 66.6161 8.73605 49.3863H5.73605C5.73605 68.8821 25.5033 84.1352 49.1245 84.1352V81.1352ZM89.5129 49.3863C89.5129 66.6161 71.772 81.1352 49.1245 81.1352V84.1352C72.7456 84.1352 92.5129 68.8821 92.5129 49.3863H89.5129ZM87.4906 39.4487C88.8044 42.5784 89.5129 45.9181 89.5129 49.3863H92.5129C92.5129 45.5027 91.7183 41.7692 90.2567 38.2875L87.4906 39.4487ZM89.5196 40.2219C96.5508 36.8669 101.414 29.6896 101.414 21.3734H98.4142C98.4142 28.4902 94.2548 34.6385 88.2277 37.5144L89.5196 40.2219ZM101.414 21.3734C101.414 9.84534 92.0688 0.5 80.5408 0.5V3.5C90.412 3.5 98.4142 11.5022 98.4142 21.3734H101.414ZM80.5408 0.5C70.3947 0.5 61.9423 7.73756 60.0588 17.3308L63.0026 17.9088C64.6151 9.69565 71.856 3.5 80.5408 3.5V0.5ZM49.1245 17.6373C53.3238 17.6373 57.3701 18.1418 61.1727 19.0765L61.8888 16.1632C57.8506 15.1707 53.5638 14.6373 49.1245 14.6373V17.6373ZM40.4791 18.3676C43.2631 17.8895 46.1556 17.6373 49.1245 17.6373V14.6373C45.9858 14.6373 42.9234 14.9039 39.9713 15.4109L40.4791 18.3676Z" fill="black" mask="url(#path-3-outside-1_30524_46)"/>
  <path d="M80.5407 2C72.9979 2 66.4619 6.31055 63.2617 12.6026C64.5707 14.2172 68.7596 16.7133 75.0428 13.7811C82.8969 10.1159 79.7553 5.75823 93.1072 6.62804C89.7242 3.74215 85.3359 2 80.5407 2Z" fill="url(#paint1_linear_30524_46)"/>
  <path d="M21.3734 2C28.9162 2 35.4521 6.31055 38.6523 12.6026C37.3433 14.2172 33.1545 16.7133 26.8712 13.7811C19.0172 10.1159 22.1588 5.75823 8.80685 6.62804C12.1898 3.74215 16.5782 2 21.3734 2Z" fill="url(#paint2_linear_30524_46)"/>
  <path fill-rule="evenodd" clip-rule="evenodd" d="M37.0355 21.9557C36.3909 13.1456 29.0389 6.19824 20.0643 6.19824C10.666 6.19824 3.04712 13.8171 3.04712 23.2154C3.04712 29.3482 6.29133 34.7233 11.1572 37.7182C8.64819 41.7014 7.23605 46.198 7.23605 50.9571C7.23605 67.2957 23.8803 80.5408 44.412 80.5408C64.9437 80.5408 81.588 67.2957 81.588 50.9571C81.588 45.2463 79.5546 39.9134 76.0324 35.392C78.6896 35.2161 81.3235 34.2064 83.5125 32.3328C88.8515 27.7629 89.5212 19.784 85.0082 14.5114C80.4951 9.23875 72.5085 8.66908 67.1694 13.239C63.5617 16.3269 62.086 20.9714 62.9007 25.2856C57.4551 22.7967 51.1424 21.3734 44.412 21.3734C41.8865 21.3734 39.4197 21.5738 37.0355 21.9557Z" fill="url(#paint3_linear_30524_46)"/>
  <path d="M35.812 13.693C31.2001 4.7551 22.6346 4.18082 19.3184 4.79169C14.3442 6.10096 15.1296 11.3365 22.1983 11.0747C29.2669 10.8129 40.0009 21.811 35.812 13.693Z" fill="white"/>
  <path d="M74.8745 38.5078C73.195 46.2161 64.931 43.7367 52.9586 41.1281C40.9862 38.5196 29.8392 36.7698 31.5186 29.0615C33.1981 21.3533 44.2651 17.2191 56.2375 19.8276C68.2099 22.4362 76.554 30.7996 74.8745 38.5078Z" fill="url(#paint4_linear_30524_46)"/>
  <path d="M62.113 23.4038C59.9717 19.2629 47.6286 18.1891 42.9586 20.2174C35.5417 23.4382 45.8311 23.1258 51.589 23.4252C57.3468 23.7245 64.5468 28.1104 62.113 23.4038Z" fill="white"/>
  <path d="M34.9872 79.7558C9.85419 73.8915 5.75261 53.3137 7.75976 45.7214C11.1632 29.4897 19.22 60.7401 44.9738 55.8549C60.1583 52.9745 66.4036 87.0863 34.9872 79.7558Z" fill="url(#paint5_linear_30524_46)"/>
  <path d="M23.4682 71.6375C21.812 73.4203 15.6141 67.7082 12.4723 61.4255C9.59226 54.6201 10.92 54.1221 13.7813 58.5452C19.5407 67.4485 26.8712 67.9743 23.4682 71.6375Z" fill="white"/>
  <defs>
    <linearGradient id="paint0_linear_30524_46" x1="48.7178" y1="86.562" x2="48.7174" y2="80.8885" gradientUnits="userSpaceOnUse">
      <stop stop-color="#E8ACB3"/>
      <stop offset="1" stop-color="#683123"/>
    </linearGradient>
    <linearGradient id="paint1_linear_30524_46" x1="78.1845" y1="2" x2="78.1845" y2="15.1376" gradientUnits="userSpaceOnUse">
      <stop stop-color="white"/>
      <stop offset="0.945" stop-color="white" stop-opacity="0"/>
    </linearGradient>
    <linearGradient id="paint2_linear_30524_46" x1="23.7296" y1="2" x2="23.7296" y2="15.1376" gradientUnits="userSpaceOnUse">
      <stop stop-color="white"/>
      <stop offset="0.945" stop-color="white" stop-opacity="0"/>
    </linearGradient>
    <linearGradient id="paint3_linear_30524_46" x1="78.9699" y1="42.3178" x2="10.1158" y2="42.3178" gradientUnits="userSpaceOnUse">
      <stop stop-color="#CE6145" stop-opacity="0.2"/>
      <stop offset="1" stop-color="#683123"/>
    </linearGradient>
    <linearGradient id="paint4_linear_30524_46" x1="56.2375" y1="19.8276" x2="51.6554" y2="40.8583" gradientUnits="userSpaceOnUse">
      <stop stop-color="white"/>
      <stop offset="0.945" stop-color="white" stop-opacity="0"/>
    </linearGradient>
    <linearGradient id="paint5_linear_30524_46" x1="26.3478" y1="43.6271" x2="13.7812" y2="75.567" gradientUnits="userSpaceOnUse">
      <stop offset="0.055" stop-color="white" stop-opacity="0"/>
      <stop offset="1" stop-color="white"/>
    </linearGradient>
  </defs>
</svg>
