<svg width="202" height="26" viewBox="0 0 202 26" fill="none" xmlns="http://www.w3.org/2000/svg">
  <mask id="path-1-outside-1_42_2645" maskUnits="userSpaceOnUse" x="0" y="0" width="202" height="26" fill="black">
    <rect fill="white" width="202" height="26"/>
    <path d="M11.8608 23.968C8.31942 23.9467 5.66342 23.072 3.89275 21.344C2.14342 19.616 1.26875 16.8107 1.26875 12.928C1.26875 9.408 2.12208 6.64533 3.82875 4.64C5.53542 2.61333 7.94608 1.6 11.0608 1.6C12.9808 1.6 14.6554 1.888 16.0848 2.464C17.5141 3.04 18.6128 3.86133 19.3808 4.928C20.1488 5.99467 20.5328 7.25333 20.5328 8.704C20.5328 9.856 20.2768 10.88 19.7648 11.776C19.2741 12.672 18.5381 13.472 17.5568 14.176C18.3461 14.304 19.0288 14.7307 19.6048 15.456C20.2021 16.1813 20.5008 17.024 20.5008 17.984C20.5008 19.008 20.2234 19.9787 19.6688 20.896C19.1354 21.792 18.2181 22.528 16.9167 23.104C15.6368 23.68 13.9514 23.968 11.8608 23.968ZM9.65275 12.032C10.0368 12.224 10.5168 12.32 11.0928 12.32C11.7754 12.32 12.3621 12.16 12.8528 11.84C13.3648 11.4987 13.6208 10.9973 13.6208 10.336C13.6208 9.696 13.3648 9.216 12.8528 8.896C12.3621 8.55467 11.7648 8.384 11.0608 8.384C10.5061 8.384 10.0368 8.48 9.65275 8.672C9.35408 8.8 9.13008 9.024 8.98075 9.344C8.83142 9.664 8.75675 10.0053 8.75675 10.368C8.75675 10.7307 8.83142 11.072 8.98075 11.392C9.13008 11.6907 9.35408 11.904 9.65275 12.032ZM9.65275 19.52C10.0581 19.6907 10.5381 19.776 11.0928 19.776C11.7754 19.776 12.3621 19.6373 12.8528 19.36C13.3648 19.0613 13.6208 18.624 13.6208 18.048C13.6208 17.4933 13.3648 17.0667 12.8528 16.768C12.3408 16.4693 11.7434 16.32 11.0608 16.32C10.5274 16.32 10.0581 16.4053 9.65275 16.576C9.35408 16.704 9.13008 16.9067 8.98075 17.184C8.83142 17.44 8.75675 17.728 8.75675 18.048C8.75675 18.368 8.83142 18.6667 8.98075 18.944C9.13008 19.2 9.35408 19.392 9.65275 19.52ZM38.1118 18.88C39.1358 19.2 39.6478 19.872 39.6478 20.896C39.6478 21.856 39.1571 22.6133 38.1758 23.168C37.1944 23.7227 35.4984 24 33.0878 24C30.0798 24 27.4984 23.2747 25.3438 21.824C23.2104 20.3733 22.1438 17.4933 22.1438 13.184C22.1438 11.008 22.5171 9.04533 23.2638 7.296C24.0104 5.54667 25.1198 4.16 26.5918 3.136C28.0851 2.112 29.9091 1.6 32.0638 1.6C34.9438 1.6 36.9704 2.048 38.1438 2.944C39.3171 3.81867 39.9038 4.896 39.9038 6.176C39.9038 6.77333 39.7544 7.328 39.4558 7.84C39.1571 8.33067 38.7091 8.71467 38.1118 8.992C37.5998 9.248 36.9384 9.376 36.1278 9.376L35.2638 9.344C35.0931 9.32267 34.8478 9.312 34.5278 9.312C33.4184 9.312 32.5438 9.51467 31.9038 9.92C31.2638 10.304 30.8264 10.9013 30.5918 11.712C31.4878 11.6693 32.2984 11.648 33.0238 11.648C35.1784 11.648 36.5758 11.712 37.2158 11.84C37.9411 11.9893 38.4958 12.2773 38.8798 12.704C39.2851 13.1307 39.4878 13.632 39.4878 14.208C39.4878 14.784 39.2958 15.2853 38.9118 15.712C38.5278 16.1173 37.9518 16.3947 37.1838 16.544C36.5864 16.672 35.1358 16.736 32.8318 16.736C31.8931 16.736 31.2318 16.7253 30.8478 16.704C31.5091 18.112 32.7464 18.816 34.5598 18.816C34.6664 18.816 34.9118 18.7947 35.2958 18.752C35.8078 18.7093 36.2451 18.688 36.6078 18.688C37.2264 18.688 37.7278 18.752 38.1118 18.88ZM60.3498 10.656C60.3498 12.2133 60.1151 13.5893 59.6458 14.784C59.1978 15.9787 58.5578 16.9813 57.7257 17.792C58.4298 18.88 58.7818 19.936 58.7818 20.96C58.7818 21.8347 58.4404 22.56 57.7578 23.136C57.0964 23.712 56.3391 24 55.4858 24C54.9951 24 54.5471 23.9253 54.1418 23.776C53.7364 23.6267 53.2991 23.3707 52.8298 23.008C52.4244 22.688 52.0404 22.2507 51.6778 21.696C51.3151 21.1413 51.0271 20.5653 50.8138 19.968C50.1098 19.8827 49.4058 19.7013 48.7018 19.424C48.8298 20.1067 48.8938 20.6293 48.8938 20.992C48.8938 23.0187 47.8378 24.032 45.7258 24.032C43.9551 24.032 42.7071 22.9973 41.9818 20.928C41.2564 18.8587 40.8938 16.3307 40.8938 13.344C40.8938 11.3173 41.2564 9.41867 41.9818 7.648C42.7284 5.856 43.8591 4.416 45.3738 3.328C46.8884 2.21867 48.7338 1.664 50.9098 1.664C52.6591 1.664 54.2484 2.03733 55.6778 2.784C57.1071 3.50933 58.2378 4.55467 59.0698 5.92C59.9231 7.28533 60.3498 8.864 60.3498 10.656ZM48.3818 12.16C48.3818 12.8853 48.6698 13.5253 49.2458 14.08C49.8218 14.6133 50.4831 14.88 51.2298 14.88C51.9978 14.88 52.6591 14.6133 53.2138 14.08C53.7898 13.5253 54.0778 12.8853 54.0778 12.16C54.0778 11.4133 53.7898 10.7733 53.2138 10.24C52.6591 9.68533 51.9978 9.408 51.2298 9.408C50.4831 9.408 49.8218 9.68533 49.2458 10.24C48.6698 10.7947 48.3818 11.4347 48.3818 12.16ZM66.3233 24.064C64.8939 24.064 63.7419 23.3707 62.8673 21.984C62.0139 20.576 61.5126 18.6773 61.3633 16.288C61.3419 15.9467 61.3313 15.4453 61.3313 14.784C61.3313 12.2027 61.7579 9.92 62.6113 7.936C63.4646 5.93067 64.6699 4.384 66.2273 3.296C67.8059 2.18667 69.6406 1.632 71.7313 1.632C73.8219 1.632 75.6459 2.18667 77.2033 3.296C78.7819 4.384 79.9873 5.92 80.8193 7.904C81.6726 9.888 82.0993 12.1813 82.0993 14.784C82.0993 15.4453 82.0886 15.9467 82.0673 16.288C81.9179 18.72 81.4166 20.6187 80.5633 21.984C79.7099 23.3493 78.5579 24.032 77.1073 24.032C75.9339 24.032 75.1126 23.712 74.6433 23.072C74.1953 22.432 73.9713 21.6533 73.9713 20.736C73.9713 20.3093 74.0033 19.936 74.0673 19.616C72.9579 19.6587 71.9766 19.68 71.1233 19.68C70.5899 19.68 70.0033 19.6587 69.3633 19.616C69.4273 19.936 69.4593 20.3093 69.4593 20.736C69.4593 21.6747 69.2246 22.464 68.7552 23.104C68.3073 23.744 67.4966 24.064 66.3233 24.064ZM69.1393 13.92C70.2913 13.8773 71.1339 13.856 71.6673 13.856C72.2433 13.856 73.0859 13.8773 74.1953 13.92C74.2379 13.6853 74.2593 13.3333 74.2593 12.864C74.2593 11.8613 74.0459 11.0507 73.6193 10.432C73.1926 9.792 72.5313 9.472 71.6353 9.472C70.7606 9.472 70.1099 9.78133 69.6833 10.4C69.2566 11.0187 69.0433 11.8187 69.0433 12.8C69.0433 13.1627 69.0753 13.536 69.1393 13.92ZM101.3 24.032C99.764 24.0533 98.388 23.7333 97.172 23.072C95.9773 22.4107 95.0387 21.504 94.356 20.352C93.6947 19.1787 93.3427 17.8773 93.3 16.448C93.2787 15.0187 93.6093 13.7387 94.292 12.608C94.9747 11.4773 95.924 10.5813 97.14 9.92C98.3773 9.25867 99.764 8.928 101.3 8.928C102.793 8.928 104.137 9.248 105.332 9.888C106.548 10.528 107.508 11.424 108.212 12.576C108.916 13.728 109.289 15.0187 109.332 16.448C109.353 17.8347 109.023 19.104 108.34 20.256C107.657 21.3867 106.697 22.2933 105.46 22.976C104.244 23.6587 102.857 24.0107 101.3 24.032ZM101.396 19.36C101.972 19.36 102.473 19.136 102.9 18.688C103.327 18.24 103.54 17.7173 103.54 17.12C103.54 16.5227 103.327 16.0107 102.9 15.584C102.473 15.136 101.972 14.912 101.396 14.912C100.82 14.912 100.319 15.136 99.892 15.584C99.4653 16.0107 99.252 16.5227 99.252 17.12C99.252 17.7173 99.4653 18.24 99.892 18.688C100.319 19.136 100.82 19.36 101.396 19.36ZM114.036 24C112.671 24 111.754 23.2 111.285 21.6C110.837 20 110.613 17.792 110.613 14.976C110.613 13.696 110.666 12.6293 110.773 11.776C110.901 10.9013 111.189 10.1653 111.637 9.568C112.106 8.94933 112.821 8.64 113.781 8.64C114.378 8.64 114.901 8.77867 115.349 9.056C115.818 9.33333 116.117 9.728 116.245 10.24C116.714 9.81333 117.322 9.49333 118.069 9.28C118.815 9.06667 119.615 8.96 120.469 8.96C121.151 8.96 121.845 9.13067 122.549 9.472C123.274 9.81333 123.871 10.2827 124.341 10.88C124.831 11.456 125.077 12.0853 125.077 12.768C125.077 13.4507 124.831 14.0587 124.341 14.592C123.871 15.104 123.242 15.36 122.453 15.36C122.197 15.36 121.951 15.328 121.717 15.264C121.503 15.2 121.311 15.136 121.141 15.072C120.714 14.9013 120.373 14.816 120.117 14.816C119.285 14.816 118.549 15.1467 117.909 15.808C117.29 16.448 116.981 17.28 116.981 18.304C116.981 19.4347 116.938 20.3733 116.853 21.12C116.767 21.8667 116.511 22.5387 116.085 23.136C115.658 23.712 114.975 24 114.036 24ZM146.861 23.968C143.319 23.9467 140.663 23.072 138.893 21.344C137.143 19.616 136.269 16.8107 136.269 12.928C136.269 9.408 137.122 6.64533 138.829 4.64C140.535 2.61333 142.946 1.6 146.061 1.6C147.981 1.6 149.655 1.888 151.085 2.464C152.514 3.04 153.613 3.86133 154.381 4.928C155.149 5.99467 155.533 7.25333 155.533 8.704C155.533 9.856 155.277 10.88 154.765 11.776C154.274 12.672 153.538 13.472 152.557 14.176C153.346 14.304 154.029 14.7307 154.605 15.456C155.202 16.1813 155.501 17.024 155.501 17.984C155.501 19.008 155.223 19.9787 154.669 20.896C154.135 21.792 153.218 22.528 151.917 23.104C150.637 23.68 148.951 23.968 146.861 23.968ZM144.653 12.032C145.037 12.224 145.517 12.32 146.093 12.32C146.775 12.32 147.362 12.16 147.853 11.84C148.365 11.4987 148.621 10.9973 148.621 10.336C148.621 9.696 148.365 9.216 147.853 8.896C147.362 8.55467 146.765 8.384 146.061 8.384C145.506 8.384 145.037 8.48 144.653 8.672C144.354 8.8 144.13 9.024 143.981 9.344C143.831 9.664 143.757 10.0053 143.757 10.368C143.757 10.7307 143.831 11.072 143.981 11.392C144.13 11.6907 144.354 11.904 144.653 12.032ZM144.653 19.52C145.058 19.6907 145.538 19.776 146.093 19.776C146.775 19.776 147.362 19.6373 147.853 19.36C148.365 19.0613 148.621 18.624 148.621 18.048C148.621 17.4933 148.365 17.0667 147.853 16.768C147.341 16.4693 146.743 16.32 146.061 16.32C145.527 16.32 145.058 16.4053 144.653 16.576C144.354 16.704 144.13 16.9067 143.981 17.184C143.831 17.44 143.757 17.728 143.757 18.048C143.757 18.368 143.831 18.6667 143.981 18.944C144.13 19.2 144.354 19.392 144.653 19.52ZM168.696 23.968C166.264 23.968 164.184 23.5413 162.456 22.688C160.728 21.8347 159.405 20.6187 158.488 19.04C157.592 17.44 157.144 15.552 157.144 13.376C157.144 10.7733 157.688 8.58667 158.776 6.816C159.885 5.04533 161.314 3.73333 163.064 2.88C164.813 2.02667 166.648 1.6 168.568 1.6C170.274 1.6 171.778 1.856 173.08 2.368C174.381 2.88 175.384 3.552 176.088 4.384C176.792 5.216 177.144 6.09067 177.144 7.008C177.144 8.33067 176.802 9.28 176.12 9.856C175.437 10.4107 174.594 10.688 173.592 10.688C173.122 10.688 172.706 10.6453 172.344 10.56C172.002 10.4747 171.64 10.3573 171.256 10.208C170.829 10.0587 170.445 9.952 170.104 9.888C169.784 9.80267 169.378 9.76 168.888 9.76C167.48 9.76 166.37 10.1867 165.56 11.04C164.749 11.872 164.344 13.056 164.344 14.592C164.344 15.8933 164.738 16.896 165.528 17.6C166.317 18.304 167.298 18.656 168.472 18.656C169.133 18.656 169.709 18.5707 170.2 18.4C170.69 18.2293 171.064 18.0373 171.32 17.824C171.576 17.6107 171.704 17.44 171.704 17.312C170.146 17.312 168.962 17.1307 168.152 16.768C167.341 16.4053 166.936 15.776 166.936 14.88C166.936 13.984 167.245 13.2907 167.864 12.8C168.482 12.288 169.528 12.032 171 12.032C172.514 12.032 173.698 12.2133 174.552 12.576C175.405 12.9173 176.013 13.4613 176.376 14.208C176.738 14.9333 176.92 15.904 176.92 17.12C176.92 18.3573 176.546 19.4987 175.8 20.544C175.074 21.5893 174.072 22.4213 172.792 23.04C171.533 23.6587 170.168 23.968 168.696 23.968ZM200.737 6.368C200.737 7.776 200.15 8.8 198.977 9.44C197.825 10.0587 195.937 10.432 193.312 10.56C193.398 11.584 193.441 12.9067 193.441 14.528C193.441 16.7893 193.313 18.6027 193.057 19.968C192.822 21.312 192.406 22.3147 191.809 22.976C191.211 23.616 190.379 23.936 189.313 23.936C188.267 23.936 187.467 23.5947 186.913 22.912C186.358 22.2293 185.974 21.216 185.76 19.872C185.547 18.528 185.441 16.7467 185.441 14.528C185.441 13.0347 185.473 11.712 185.536 10.56C183.766 10.4747 182.337 10.2933 181.249 10.016C180.182 9.71733 179.393 9.28 178.881 8.704C178.369 8.128 178.113 7.34933 178.113 6.368C178.113 5.17333 178.518 4.23466 179.329 3.552C180.139 2.86933 181.355 2.38933 182.977 2.112C184.598 1.83467 186.721 1.696 189.345 1.696C191.99 1.696 194.134 1.83467 195.777 2.112C197.419 2.38933 198.657 2.86933 199.489 3.552C200.321 4.23466 200.737 5.17333 200.737 6.368Z"/>
  </mask>
  <path d="M11.8608 23.968C8.31942 23.9467 5.66342 23.072 3.89275 21.344C2.14342 19.616 1.26875 16.8107 1.26875 12.928C1.26875 9.408 2.12208 6.64533 3.82875 4.64C5.53542 2.61333 7.94608 1.6 11.0608 1.6C12.9808 1.6 14.6554 1.888 16.0848 2.464C17.5141 3.04 18.6128 3.86133 19.3808 4.928C20.1488 5.99467 20.5328 7.25333 20.5328 8.704C20.5328 9.856 20.2768 10.88 19.7648 11.776C19.2741 12.672 18.5381 13.472 17.5568 14.176C18.3461 14.304 19.0288 14.7307 19.6048 15.456C20.2021 16.1813 20.5008 17.024 20.5008 17.984C20.5008 19.008 20.2234 19.9787 19.6688 20.896C19.1354 21.792 18.2181 22.528 16.9167 23.104C15.6368 23.68 13.9514 23.968 11.8608 23.968ZM9.65275 12.032C10.0368 12.224 10.5168 12.32 11.0928 12.32C11.7754 12.32 12.3621 12.16 12.8528 11.84C13.3648 11.4987 13.6208 10.9973 13.6208 10.336C13.6208 9.696 13.3648 9.216 12.8528 8.896C12.3621 8.55467 11.7648 8.384 11.0608 8.384C10.5061 8.384 10.0368 8.48 9.65275 8.672C9.35408 8.8 9.13008 9.024 8.98075 9.344C8.83142 9.664 8.75675 10.0053 8.75675 10.368C8.75675 10.7307 8.83142 11.072 8.98075 11.392C9.13008 11.6907 9.35408 11.904 9.65275 12.032ZM9.65275 19.52C10.0581 19.6907 10.5381 19.776 11.0928 19.776C11.7754 19.776 12.3621 19.6373 12.8528 19.36C13.3648 19.0613 13.6208 18.624 13.6208 18.048C13.6208 17.4933 13.3648 17.0667 12.8528 16.768C12.3408 16.4693 11.7434 16.32 11.0608 16.32C10.5274 16.32 10.0581 16.4053 9.65275 16.576C9.35408 16.704 9.13008 16.9067 8.98075 17.184C8.83142 17.44 8.75675 17.728 8.75675 18.048C8.75675 18.368 8.83142 18.6667 8.98075 18.944C9.13008 19.2 9.35408 19.392 9.65275 19.52ZM38.1118 18.88C39.1358 19.2 39.6478 19.872 39.6478 20.896C39.6478 21.856 39.1571 22.6133 38.1758 23.168C37.1944 23.7227 35.4984 24 33.0878 24C30.0798 24 27.4984 23.2747 25.3438 21.824C23.2104 20.3733 22.1438 17.4933 22.1438 13.184C22.1438 11.008 22.5171 9.04533 23.2638 7.296C24.0104 5.54667 25.1198 4.16 26.5918 3.136C28.0851 2.112 29.9091 1.6 32.0638 1.6C34.9438 1.6 36.9704 2.048 38.1438 2.944C39.3171 3.81867 39.9038 4.896 39.9038 6.176C39.9038 6.77333 39.7544 7.328 39.4558 7.84C39.1571 8.33067 38.7091 8.71467 38.1118 8.992C37.5998 9.248 36.9384 9.376 36.1278 9.376L35.2638 9.344C35.0931 9.32267 34.8478 9.312 34.5278 9.312C33.4184 9.312 32.5438 9.51467 31.9038 9.92C31.2638 10.304 30.8264 10.9013 30.5918 11.712C31.4878 11.6693 32.2984 11.648 33.0238 11.648C35.1784 11.648 36.5758 11.712 37.2158 11.84C37.9411 11.9893 38.4958 12.2773 38.8798 12.704C39.2851 13.1307 39.4878 13.632 39.4878 14.208C39.4878 14.784 39.2958 15.2853 38.9118 15.712C38.5278 16.1173 37.9518 16.3947 37.1838 16.544C36.5864 16.672 35.1358 16.736 32.8318 16.736C31.8931 16.736 31.2318 16.7253 30.8478 16.704C31.5091 18.112 32.7464 18.816 34.5598 18.816C34.6664 18.816 34.9118 18.7947 35.2958 18.752C35.8078 18.7093 36.2451 18.688 36.6078 18.688C37.2264 18.688 37.7278 18.752 38.1118 18.88ZM60.3498 10.656C60.3498 12.2133 60.1151 13.5893 59.6458 14.784C59.1978 15.9787 58.5578 16.9813 57.7257 17.792C58.4298 18.88 58.7818 19.936 58.7818 20.96C58.7818 21.8347 58.4404 22.56 57.7578 23.136C57.0964 23.712 56.3391 24 55.4858 24C54.9951 24 54.5471 23.9253 54.1418 23.776C53.7364 23.6267 53.2991 23.3707 52.8298 23.008C52.4244 22.688 52.0404 22.2507 51.6778 21.696C51.3151 21.1413 51.0271 20.5653 50.8138 19.968C50.1098 19.8827 49.4058 19.7013 48.7018 19.424C48.8298 20.1067 48.8938 20.6293 48.8938 20.992C48.8938 23.0187 47.8378 24.032 45.7258 24.032C43.9551 24.032 42.7071 22.9973 41.9818 20.928C41.2564 18.8587 40.8938 16.3307 40.8938 13.344C40.8938 11.3173 41.2564 9.41867 41.9818 7.648C42.7284 5.856 43.8591 4.416 45.3738 3.328C46.8884 2.21867 48.7338 1.664 50.9098 1.664C52.6591 1.664 54.2484 2.03733 55.6778 2.784C57.1071 3.50933 58.2378 4.55467 59.0698 5.92C59.9231 7.28533 60.3498 8.864 60.3498 10.656ZM48.3818 12.16C48.3818 12.8853 48.6698 13.5253 49.2458 14.08C49.8218 14.6133 50.4831 14.88 51.2298 14.88C51.9978 14.88 52.6591 14.6133 53.2138 14.08C53.7898 13.5253 54.0778 12.8853 54.0778 12.16C54.0778 11.4133 53.7898 10.7733 53.2138 10.24C52.6591 9.68533 51.9978 9.408 51.2298 9.408C50.4831 9.408 49.8218 9.68533 49.2458 10.24C48.6698 10.7947 48.3818 11.4347 48.3818 12.16ZM66.3233 24.064C64.8939 24.064 63.7419 23.3707 62.8673 21.984C62.0139 20.576 61.5126 18.6773 61.3633 16.288C61.3419 15.9467 61.3313 15.4453 61.3313 14.784C61.3313 12.2027 61.7579 9.92 62.6113 7.936C63.4646 5.93067 64.6699 4.384 66.2273 3.296C67.8059 2.18667 69.6406 1.632 71.7313 1.632C73.8219 1.632 75.6459 2.18667 77.2033 3.296C78.7819 4.384 79.9873 5.92 80.8193 7.904C81.6726 9.888 82.0993 12.1813 82.0993 14.784C82.0993 15.4453 82.0886 15.9467 82.0673 16.288C81.9179 18.72 81.4166 20.6187 80.5633 21.984C79.7099 23.3493 78.5579 24.032 77.1073 24.032C75.9339 24.032 75.1126 23.712 74.6433 23.072C74.1953 22.432 73.9713 21.6533 73.9713 20.736C73.9713 20.3093 74.0033 19.936 74.0673 19.616C72.9579 19.6587 71.9766 19.68 71.1233 19.68C70.5899 19.68 70.0033 19.6587 69.3633 19.616C69.4273 19.936 69.4593 20.3093 69.4593 20.736C69.4593 21.6747 69.2246 22.464 68.7552 23.104C68.3073 23.744 67.4966 24.064 66.3233 24.064ZM69.1393 13.92C70.2913 13.8773 71.1339 13.856 71.6673 13.856C72.2433 13.856 73.0859 13.8773 74.1953 13.92C74.2379 13.6853 74.2593 13.3333 74.2593 12.864C74.2593 11.8613 74.0459 11.0507 73.6193 10.432C73.1926 9.792 72.5313 9.472 71.6353 9.472C70.7606 9.472 70.1099 9.78133 69.6833 10.4C69.2566 11.0187 69.0433 11.8187 69.0433 12.8C69.0433 13.1627 69.0753 13.536 69.1393 13.92ZM101.3 24.032C99.764 24.0533 98.388 23.7333 97.172 23.072C95.9773 22.4107 95.0387 21.504 94.356 20.352C93.6947 19.1787 93.3427 17.8773 93.3 16.448C93.2787 15.0187 93.6093 13.7387 94.292 12.608C94.9747 11.4773 95.924 10.5813 97.14 9.92C98.3773 9.25867 99.764 8.928 101.3 8.928C102.793 8.928 104.137 9.248 105.332 9.888C106.548 10.528 107.508 11.424 108.212 12.576C108.916 13.728 109.289 15.0187 109.332 16.448C109.353 17.8347 109.023 19.104 108.34 20.256C107.657 21.3867 106.697 22.2933 105.46 22.976C104.244 23.6587 102.857 24.0107 101.3 24.032ZM101.396 19.36C101.972 19.36 102.473 19.136 102.9 18.688C103.327 18.24 103.54 17.7173 103.54 17.12C103.54 16.5227 103.327 16.0107 102.9 15.584C102.473 15.136 101.972 14.912 101.396 14.912C100.82 14.912 100.319 15.136 99.892 15.584C99.4653 16.0107 99.252 16.5227 99.252 17.12C99.252 17.7173 99.4653 18.24 99.892 18.688C100.319 19.136 100.82 19.36 101.396 19.36ZM114.036 24C112.671 24 111.754 23.2 111.285 21.6C110.837 20 110.613 17.792 110.613 14.976C110.613 13.696 110.666 12.6293 110.773 11.776C110.901 10.9013 111.189 10.1653 111.637 9.568C112.106 8.94933 112.821 8.64 113.781 8.64C114.378 8.64 114.901 8.77867 115.349 9.056C115.818 9.33333 116.117 9.728 116.245 10.24C116.714 9.81333 117.322 9.49333 118.069 9.28C118.815 9.06667 119.615 8.96 120.469 8.96C121.151 8.96 121.845 9.13067 122.549 9.472C123.274 9.81333 123.871 10.2827 124.341 10.88C124.831 11.456 125.077 12.0853 125.077 12.768C125.077 13.4507 124.831 14.0587 124.341 14.592C123.871 15.104 123.242 15.36 122.453 15.36C122.197 15.36 121.951 15.328 121.717 15.264C121.503 15.2 121.311 15.136 121.141 15.072C120.714 14.9013 120.373 14.816 120.117 14.816C119.285 14.816 118.549 15.1467 117.909 15.808C117.29 16.448 116.981 17.28 116.981 18.304C116.981 19.4347 116.938 20.3733 116.853 21.12C116.767 21.8667 116.511 22.5387 116.085 23.136C115.658 23.712 114.975 24 114.036 24ZM146.861 23.968C143.319 23.9467 140.663 23.072 138.893 21.344C137.143 19.616 136.269 16.8107 136.269 12.928C136.269 9.408 137.122 6.64533 138.829 4.64C140.535 2.61333 142.946 1.6 146.061 1.6C147.981 1.6 149.655 1.888 151.085 2.464C152.514 3.04 153.613 3.86133 154.381 4.928C155.149 5.99467 155.533 7.25333 155.533 8.704C155.533 9.856 155.277 10.88 154.765 11.776C154.274 12.672 153.538 13.472 152.557 14.176C153.346 14.304 154.029 14.7307 154.605 15.456C155.202 16.1813 155.501 17.024 155.501 17.984C155.501 19.008 155.223 19.9787 154.669 20.896C154.135 21.792 153.218 22.528 151.917 23.104C150.637 23.68 148.951 23.968 146.861 23.968ZM144.653 12.032C145.037 12.224 145.517 12.32 146.093 12.32C146.775 12.32 147.362 12.16 147.853 11.84C148.365 11.4987 148.621 10.9973 148.621 10.336C148.621 9.696 148.365 9.216 147.853 8.896C147.362 8.55467 146.765 8.384 146.061 8.384C145.506 8.384 145.037 8.48 144.653 8.672C144.354 8.8 144.13 9.024 143.981 9.344C143.831 9.664 143.757 10.0053 143.757 10.368C143.757 10.7307 143.831 11.072 143.981 11.392C144.13 11.6907 144.354 11.904 144.653 12.032ZM144.653 19.52C145.058 19.6907 145.538 19.776 146.093 19.776C146.775 19.776 147.362 19.6373 147.853 19.36C148.365 19.0613 148.621 18.624 148.621 18.048C148.621 17.4933 148.365 17.0667 147.853 16.768C147.341 16.4693 146.743 16.32 146.061 16.32C145.527 16.32 145.058 16.4053 144.653 16.576C144.354 16.704 144.13 16.9067 143.981 17.184C143.831 17.44 143.757 17.728 143.757 18.048C143.757 18.368 143.831 18.6667 143.981 18.944C144.13 19.2 144.354 19.392 144.653 19.52ZM168.696 23.968C166.264 23.968 164.184 23.5413 162.456 22.688C160.728 21.8347 159.405 20.6187 158.488 19.04C157.592 17.44 157.144 15.552 157.144 13.376C157.144 10.7733 157.688 8.58667 158.776 6.816C159.885 5.04533 161.314 3.73333 163.064 2.88C164.813 2.02667 166.648 1.6 168.568 1.6C170.274 1.6 171.778 1.856 173.08 2.368C174.381 2.88 175.384 3.552 176.088 4.384C176.792 5.216 177.144 6.09067 177.144 7.008C177.144 8.33067 176.802 9.28 176.12 9.856C175.437 10.4107 174.594 10.688 173.592 10.688C173.122 10.688 172.706 10.6453 172.344 10.56C172.002 10.4747 171.64 10.3573 171.256 10.208C170.829 10.0587 170.445 9.952 170.104 9.888C169.784 9.80267 169.378 9.76 168.888 9.76C167.48 9.76 166.37 10.1867 165.56 11.04C164.749 11.872 164.344 13.056 164.344 14.592C164.344 15.8933 164.738 16.896 165.528 17.6C166.317 18.304 167.298 18.656 168.472 18.656C169.133 18.656 169.709 18.5707 170.2 18.4C170.69 18.2293 171.064 18.0373 171.32 17.824C171.576 17.6107 171.704 17.44 171.704 17.312C170.146 17.312 168.962 17.1307 168.152 16.768C167.341 16.4053 166.936 15.776 166.936 14.88C166.936 13.984 167.245 13.2907 167.864 12.8C168.482 12.288 169.528 12.032 171 12.032C172.514 12.032 173.698 12.2133 174.552 12.576C175.405 12.9173 176.013 13.4613 176.376 14.208C176.738 14.9333 176.92 15.904 176.92 17.12C176.92 18.3573 176.546 19.4987 175.8 20.544C175.074 21.5893 174.072 22.4213 172.792 23.04C171.533 23.6587 170.168 23.968 168.696 23.968ZM200.737 6.368C200.737 7.776 200.15 8.8 198.977 9.44C197.825 10.0587 195.937 10.432 193.312 10.56C193.398 11.584 193.441 12.9067 193.441 14.528C193.441 16.7893 193.313 18.6027 193.057 19.968C192.822 21.312 192.406 22.3147 191.809 22.976C191.211 23.616 190.379 23.936 189.313 23.936C188.267 23.936 187.467 23.5947 186.913 22.912C186.358 22.2293 185.974 21.216 185.76 19.872C185.547 18.528 185.441 16.7467 185.441 14.528C185.441 13.0347 185.473 11.712 185.536 10.56C183.766 10.4747 182.337 10.2933 181.249 10.016C180.182 9.71733 179.393 9.28 178.881 8.704C178.369 8.128 178.113 7.34933 178.113 6.368C178.113 5.17333 178.518 4.23466 179.329 3.552C180.139 2.86933 181.355 2.38933 182.977 2.112C184.598 1.83467 186.721 1.696 189.345 1.696C191.99 1.696 194.134 1.83467 195.777 2.112C197.419 2.38933 198.657 2.86933 199.489 3.552C200.321 4.23466 200.737 5.17333 200.737 6.368Z" fill="#FBBF24"/>
  <path d="M11.8608 23.968L11.8547 24.968H11.8608V23.968ZM3.89275 21.344L3.18998 22.0554L3.19432 22.0597L3.89275 21.344ZM3.82875 4.64L4.5903 5.28813L4.59366 5.28414L3.82875 4.64ZM16.0848 2.464L16.4585 1.53648L16.4585 1.53648L16.0848 2.464ZM19.7648 11.776L18.8965 11.2799L18.892 11.2877L18.8877 11.2957L19.7648 11.776ZM17.5568 14.176L16.9738 13.3635L15.0057 14.7754L17.3967 15.1631L17.5568 14.176ZM19.6048 15.456L18.8216 16.0779L18.8272 16.0848L18.8328 16.0917L19.6048 15.456ZM19.6688 20.896L18.813 20.3786L18.8095 20.3845L19.6688 20.896ZM16.9167 23.104L16.512 22.1896L16.5064 22.1921L16.9167 23.104ZM9.65275 12.032L10.1 11.1376L10.0737 11.1244L10.0467 11.1129L9.65275 12.032ZM12.8528 11.84L13.399 12.6777L13.4075 12.672L12.8528 11.84ZM12.8528 8.896L12.2817 9.7169L12.3019 9.73096L12.3228 9.744L12.8528 8.896ZM9.65275 8.672L10.0467 9.59114L10.0737 9.57957L10.1 9.56643L9.65275 8.672ZM8.98075 9.344L8.07457 8.92111L8.07457 8.92111L8.98075 9.344ZM8.98075 11.392L8.07457 11.8149L8.08028 11.8271L8.08632 11.8392L8.98075 11.392ZM9.65275 19.52L9.25882 20.4392L9.26469 20.4416L9.65275 19.52ZM12.8528 19.36L13.3449 20.2306L13.3566 20.2238L12.8528 19.36ZM12.8528 16.768L13.3566 15.9042L13.3566 15.9042L12.8528 16.768ZM9.65275 16.576L9.26469 15.6543L9.25883 15.6569L9.65275 16.576ZM8.98075 17.184L9.84453 17.6879L9.85313 17.6731L9.86122 17.6581L8.98075 17.184ZM8.98075 18.944L8.10028 19.4181L8.10837 19.4331L8.11697 19.4479L8.98075 18.944ZM11.8668 22.968C8.47256 22.9476 6.10957 22.1101 4.59118 20.6283L3.19432 22.0597C5.21726 24.0339 8.16628 24.9458 11.8547 24.968L11.8668 22.968ZM4.59551 20.6326C3.12163 19.1767 2.26875 16.6934 2.26875 12.928H0.26875C0.26875 16.9279 1.16521 20.0553 3.18999 22.0554L4.59551 20.6326ZM2.26875 12.928C2.26875 9.56486 3.0828 7.05942 4.59029 5.28812L3.06721 3.99188C1.16137 6.23124 0.26875 9.25114 0.26875 12.928H2.26875ZM4.59366 5.28414C6.07622 3.52359 8.18367 2.6 11.0608 2.6V0.599998C7.7085 0.599998 4.99461 1.70307 3.06384 3.99586L4.59366 5.28414ZM11.0608 2.6C12.8831 2.6 14.4257 2.87358 15.711 3.39152L16.4585 1.53648C14.8851 0.902418 13.0784 0.599998 11.0608 0.599998V2.6ZM15.711 3.39152C16.9956 3.90921 17.9296 4.624 18.5692 5.5123L20.1923 4.34369C19.2959 3.09867 18.0325 2.17079 16.4585 1.53648L15.711 3.39152ZM18.5692 5.5123C19.202 6.39116 19.5328 7.44023 19.5328 8.704H21.5328C21.5328 7.06644 21.0955 5.59818 20.1923 4.34369L18.5692 5.5123ZM19.5328 8.704C19.5328 9.70266 19.3125 10.552 18.8965 11.2799L20.633 12.2721C21.2411 11.208 21.5328 10.0093 21.5328 8.704H19.5328ZM18.8877 11.2957C18.4809 12.0385 17.8555 12.731 16.9738 13.3635L18.1397 14.9885C19.2207 14.213 20.0673 13.3055 20.6418 12.2563L18.8877 11.2957ZM17.3967 15.1631C17.9015 15.245 18.3744 15.5147 18.8216 16.0779L20.3879 14.8341C19.6831 13.9466 18.7907 13.363 17.7168 13.1889L17.3967 15.1631ZM18.8328 16.0917C19.2793 16.6338 19.5008 17.2505 19.5008 17.984H21.5008C21.5008 16.7975 21.1249 15.7288 20.3767 14.8203L18.8328 16.0917ZM19.5008 17.984C19.5008 18.8169 19.2779 19.6097 18.813 20.3786L20.5245 21.4134C21.1689 20.3476 21.5008 19.1991 21.5008 17.984H19.5008ZM18.8095 20.3845C18.4146 21.0478 17.6914 21.6675 16.512 22.1896L17.3215 24.0184C18.7448 23.3885 19.8562 22.5362 20.528 21.4075L18.8095 20.3845ZM16.5064 22.1921C15.4027 22.6887 13.8731 22.968 11.8608 22.968V24.968C14.0297 24.968 15.8708 24.6713 17.3271 24.0159L16.5064 22.1921ZM9.20554 12.9264C9.76749 13.2074 10.4121 13.32 11.0928 13.32V11.32C10.6214 11.32 10.306 11.2406 10.1 11.1376L9.20554 12.9264ZM11.0928 13.32C11.9366 13.32 12.7204 13.1202 13.399 12.6776L12.3065 11.0024C12.0037 11.1998 11.6142 11.32 11.0928 11.32V13.32ZM13.4075 12.672C14.2215 12.1294 14.6208 11.302 14.6208 10.336H12.6208C12.6208 10.6927 12.508 10.868 12.2981 11.0079L13.4075 12.672ZM14.6208 10.336C14.6208 9.37617 14.2077 8.56359 13.3828 8.048L12.3228 9.744C12.5218 9.86841 12.6208 10.0158 12.6208 10.336H14.6208ZM13.4238 8.07509C12.7374 7.59757 11.9317 7.384 11.0608 7.384V9.384C11.5978 9.384 11.9868 9.51176 12.2817 9.7169L13.4238 8.07509ZM11.0608 7.384C10.3946 7.384 9.76288 7.4989 9.20554 7.77757L10.1 9.56643C10.3106 9.4611 10.6175 9.384 11.0608 9.384V7.384ZM9.25883 7.75285C8.71384 7.98642 8.31808 8.3993 8.07457 8.92111L9.88693 9.76688C9.94209 9.6487 9.99433 9.61358 10.0467 9.59114L9.25883 7.75285ZM8.07457 8.92111C7.86174 9.37716 7.75675 9.86327 7.75675 10.368H9.75675C9.75675 10.1474 9.80109 9.95084 9.88693 9.76688L8.07457 8.92111ZM7.75675 10.368C7.75675 10.8727 7.86174 11.3588 8.07457 11.8149L9.88693 10.9691C9.80109 10.7852 9.75675 10.5886 9.75675 10.368H7.75675ZM8.08632 11.8392C8.33824 12.343 8.7363 12.7272 9.25883 12.9511L10.0467 11.1129C9.97187 11.0808 9.92193 11.0383 9.87518 10.9448L8.08632 11.8392ZM9.26469 20.4416C9.82041 20.6756 10.4384 20.776 11.0928 20.776V18.776C10.6378 18.776 10.2958 18.7057 10.0408 18.5984L9.26469 20.4416ZM11.0928 20.776C11.9116 20.776 12.6753 20.609 13.3448 20.2306L12.3607 18.4894C12.0489 18.6657 11.6393 18.776 11.0928 18.776V20.776ZM13.3566 20.2238C14.1648 19.7523 14.6208 18.9922 14.6208 18.048H12.6208C12.6208 18.2558 12.5647 18.3703 12.3489 18.4962L13.3566 20.2238ZM14.6208 18.048C14.6208 17.1088 14.1501 16.3671 13.3566 15.9042L12.3489 17.6318C12.5794 17.7662 12.6208 17.8778 12.6208 18.048H14.6208ZM13.3566 15.9042C12.6698 15.5035 11.8932 15.32 11.0608 15.32V17.32C11.5936 17.32 12.0118 17.4351 12.3489 17.6318L13.3566 15.9042ZM11.0608 15.32C10.4218 15.32 9.81602 15.4222 9.26469 15.6544L10.0408 17.4976C10.3001 17.3884 10.633 17.32 11.0608 17.32V15.32ZM9.25883 15.6569C8.75944 15.8709 8.36043 16.2268 8.10028 16.7099L9.86122 17.6581C9.89974 17.5866 9.94873 17.5371 10.0467 17.4951L9.25883 15.6569ZM8.11697 16.6801C7.87135 17.1012 7.75675 17.5655 7.75675 18.048H9.75675C9.75675 17.8905 9.79148 17.7788 9.84453 17.6879L8.11697 16.6801ZM7.75675 18.048C7.75675 18.5307 7.87119 18.9927 8.10028 19.4181L9.86122 18.4699C9.79164 18.3407 9.75675 18.2053 9.75675 18.048H7.75675ZM8.11697 19.4479C8.38484 19.9071 8.78311 20.2353 9.25883 20.4391L10.0467 18.6009C9.92505 18.5487 9.87532 18.4929 9.84453 18.4401L8.11697 19.4479ZM38.1118 18.88L37.7955 19.8287L37.8045 19.8317L37.8135 19.8345L38.1118 18.88ZM38.1758 23.168L37.6837 22.2974L38.1758 23.168ZM25.3438 21.824L24.7814 22.6509L24.7853 22.6535L25.3438 21.824ZM23.2638 7.296L24.1835 7.68856L24.1835 7.68856L23.2638 7.296ZM26.5918 3.136L26.0262 2.31125L26.0207 2.31509L26.5918 3.136ZM38.1438 2.944L37.5368 3.73882L37.5461 3.74574L38.1438 2.944ZM39.4558 7.84L40.3099 8.35995L40.3148 8.35195L40.3195 8.34387L39.4558 7.84ZM38.1118 8.992L37.6906 8.08499L37.6775 8.09109L37.6645 8.09757L38.1118 8.992ZM36.1278 9.376L36.0907 10.3753L36.1092 10.376H36.1278V9.376ZM35.2638 9.344L35.1397 10.3363L35.1831 10.3417L35.2267 10.3433L35.2638 9.344ZM31.9038 9.92L32.4182 10.7775L32.4286 10.7713L32.4388 10.7648L31.9038 9.92ZM30.5918 11.712L29.6312 11.4339L29.2423 12.7774L30.6393 12.7109L30.5918 11.712ZM37.2158 11.84L37.4174 10.8605L37.4119 10.8594L37.2158 11.84ZM38.8798 12.704L38.1365 13.373L38.1455 13.383L38.1548 13.3927L38.8798 12.704ZM38.9118 15.712L39.6377 16.3997L39.6465 16.3905L39.655 16.381L38.9118 15.712ZM37.1838 16.544L36.9929 15.5624L36.9835 15.5642L36.9742 15.5662L37.1838 16.544ZM30.8478 16.704L30.9032 15.7055L29.2303 15.6126L29.9426 17.1291L30.8478 16.704ZM35.2958 18.752L35.2127 17.7555L35.199 17.7566L35.1853 17.7581L35.2958 18.752ZM37.8135 19.8345C38.1812 19.9494 38.3681 20.0985 38.4683 20.23C38.5654 20.3574 38.6478 20.5553 38.6478 20.896H40.6478C40.6478 20.2127 40.4741 19.5626 40.0592 19.018C39.6474 18.4775 39.0663 18.1306 38.41 17.9255L37.8135 19.8345ZM38.6478 20.896C38.6478 21.4263 38.4164 21.8833 37.6837 22.2974L38.6678 24.0386C39.8977 23.3434 40.6478 22.2857 40.6478 20.896H38.6478ZM37.6837 22.2974C36.9459 22.7145 35.4807 23 33.0878 23V25C35.5162 25 37.443 24.7309 38.6678 24.0386L37.6837 22.2974ZM33.0878 23C30.2464 23 27.8669 22.3173 25.9022 20.9945L24.7853 22.6535C27.1299 24.2321 29.9131 25 33.0878 25V23ZM25.9061 20.9971C24.1903 19.8304 23.1438 17.3858 23.1438 13.184H21.1438C21.1438 17.6009 22.2305 20.9163 24.7814 22.6509L25.9061 20.9971ZM23.1438 13.184C23.1438 11.1236 23.4969 9.29718 24.1835 7.68856L22.344 6.90343C21.5373 8.79348 21.1438 10.8924 21.1438 13.184H23.1438ZM24.1835 7.68856C24.8611 6.10095 25.8544 4.86708 27.1628 3.9569L26.0207 2.31509C24.3851 3.45292 23.1597 4.99238 22.344 6.90343L24.1835 7.68856ZM27.1573 3.96073C28.4545 3.07119 30.0718 2.6 32.0638 2.6V0.599998C29.7463 0.599998 27.7156 1.15281 26.0262 2.31127L27.1573 3.96073ZM32.0638 2.6C34.9014 2.6 36.6395 3.05355 37.5368 3.73877L38.7507 2.14923C37.3013 1.04245 34.9861 0.599998 32.0638 0.599998V2.6ZM37.5461 3.74574C38.5077 4.46258 38.9038 5.26015 38.9038 6.176H40.9038C40.9038 4.53185 40.1265 3.17475 38.7414 2.14225L37.5461 3.74574ZM38.9038 6.176C38.9038 6.59772 38.8007 6.97831 38.592 7.33613L40.3195 8.34387C40.7081 7.67769 40.9038 6.94894 40.9038 6.176H38.9038ZM38.6016 7.32005C38.4203 7.61788 38.1356 7.87842 37.6906 8.08499L38.5329 9.89901C39.2826 9.55091 39.8939 9.04345 40.3099 8.35995L38.6016 7.32005ZM37.6645 8.09757C37.3369 8.2614 36.8436 8.376 36.1278 8.376V10.376C37.0332 10.376 37.8626 10.2346 38.559 9.88643L37.6645 8.09757ZM36.1648 8.37668L35.3008 8.34468L35.2267 10.3433L36.0907 10.3753L36.1648 8.37668ZM35.3878 8.35172C35.1549 8.32261 34.8604 8.312 34.5278 8.312V10.312C34.8351 10.312 35.0313 10.3227 35.1397 10.3363L35.3878 8.35172ZM34.5278 8.312C33.3119 8.312 32.2267 8.53176 31.3687 9.07518L32.4388 10.7648C32.8608 10.4976 33.525 10.312 34.5278 10.312V8.312ZM31.3893 9.06251C30.5041 9.59363 29.9262 10.4149 29.6312 11.4339L31.5523 11.9901C31.7267 11.3877 32.0234 11.0144 32.4182 10.7775L31.3893 9.06251ZM30.6393 12.7109C31.523 12.6688 32.3175 12.648 33.0238 12.648V10.648C32.2794 10.648 31.4525 10.6699 30.5442 10.7131L30.6393 12.7109ZM33.0238 12.648C35.2024 12.648 36.4951 12.7157 37.0196 12.8206L37.4119 10.8594C36.6564 10.7083 35.1544 10.648 33.0238 10.648V12.648ZM37.0141 12.8195C37.5912 12.9383 37.9318 13.1456 38.1365 13.373L39.623 12.035C39.0597 11.4091 38.291 11.0404 37.4174 10.8605L37.0141 12.8195ZM38.1548 13.3927C38.3878 13.6381 38.4878 13.8945 38.4878 14.208H40.4878C40.4878 13.3695 40.1824 12.6233 39.6048 12.0153L38.1548 13.3927ZM38.4878 14.208C38.4878 14.5379 38.3866 14.8007 38.1685 15.043L39.655 16.381C40.2049 15.77 40.4878 15.0301 40.4878 14.208H38.4878ZM38.1858 15.0243C37.9924 15.2284 37.6359 15.4374 36.9929 15.5624L37.3746 17.5256C38.2676 17.352 39.0631 17.0062 39.6377 16.3997L38.1858 15.0243ZM36.9742 15.5662C36.5029 15.6672 35.1716 15.736 32.8318 15.736V17.736C35.0999 17.736 36.6699 17.6768 37.3933 17.5218L36.9742 15.5662ZM32.8318 15.736C31.8928 15.736 31.2565 15.7252 30.9032 15.7055L30.7923 17.7025C31.207 17.7255 31.8933 17.736 32.8318 17.736V15.736ZM29.9426 17.1291C30.3525 18.0018 30.9624 18.6936 31.7772 19.1572C32.5825 19.6153 33.5262 19.816 34.5598 19.816V17.816C33.7799 17.816 33.1984 17.6647 32.7663 17.4188C32.3437 17.1784 32.0043 16.8142 31.7529 16.2789L29.9426 17.1291ZM34.5598 19.816C34.7334 19.816 35.039 19.7867 35.4062 19.7459L35.1853 17.7581C34.9973 17.779 34.8487 17.7941 34.7371 17.8038C34.6814 17.8086 34.6379 17.8119 34.6053 17.8138C34.5703 17.816 34.5575 17.816 34.5598 17.816V19.816ZM35.3788 19.7485C35.8735 19.7073 36.2815 19.688 36.6078 19.688V17.688C36.2086 17.688 35.742 17.7113 35.2127 17.7555L35.3788 19.7485ZM36.6078 19.688C37.1695 19.688 37.5524 19.7476 37.7955 19.8287L38.428 17.9313C37.9031 17.7564 37.2833 17.688 36.6078 17.688V19.688ZM59.6458 14.784L58.715 14.4183L58.7122 14.4256L58.7094 14.4329L59.6458 14.784ZM57.7257 17.792L57.0279 17.0758L56.4411 17.6475L56.8862 18.3353L57.7257 17.792ZM57.7578 23.136L57.1129 22.3717L57.1069 22.3768L57.101 22.3819L57.7578 23.136ZM54.1418 23.776L53.796 24.7143L53.796 24.7143L54.1418 23.776ZM52.8298 23.008L52.2101 23.7929L52.2183 23.7993L52.8298 23.008ZM50.8138 19.968L51.7555 19.6317L51.5476 19.0496L50.9341 18.9753L50.8138 19.968ZM48.7018 19.424L49.0683 18.4936L47.3856 17.8307L47.7189 19.6083L48.7018 19.424ZM41.9818 20.928L42.9255 20.5972L42.9255 20.5972L41.9818 20.928ZM41.9818 7.648L41.0587 7.26338L41.0564 7.26893L41.9818 7.648ZM45.3738 3.328L45.9572 4.14022L45.9646 4.13477L45.3738 3.328ZM55.6778 2.784L55.2147 3.67041L55.2252 3.67575L55.6778 2.784ZM59.0698 5.92L58.2158 6.4404L58.2218 6.45L59.0698 5.92ZM49.2458 14.08L48.5521 14.8003L48.5592 14.8071L48.5663 14.8138L49.2458 14.08ZM53.2138 14.08L53.9069 14.8008L53.9074 14.8003L53.2138 14.08ZM53.2138 10.24L52.5066 10.9471L52.5202 10.9607L52.5343 10.9738L53.2138 10.24ZM49.2458 10.24L49.9394 10.9603L49.9394 10.9603L49.2458 10.24ZM59.3498 10.656C59.3498 12.1141 59.13 13.3621 58.715 14.4183L60.5765 15.1497C61.1002 13.8166 61.3498 12.3125 61.3498 10.656H59.3498ZM58.7094 14.4329C58.3079 15.5035 57.7445 16.3775 57.0279 17.0758L58.4236 18.5082C59.371 17.5851 60.0876 16.4538 60.5821 15.1351L58.7094 14.4329ZM56.8862 18.3353C57.5131 19.3042 57.7818 20.174 57.7818 20.96H59.7818C59.7818 19.698 59.3464 18.4558 58.5653 17.2487L56.8862 18.3353ZM57.7818 20.96C57.7818 21.5329 57.5759 21.9811 57.1129 22.3717L58.4026 23.9003C59.305 23.1389 59.7818 22.1364 59.7818 20.96H57.7818ZM57.101 22.3819C56.6162 22.8042 56.0904 23 55.4858 23V25C56.5878 25 57.5767 24.6198 58.4145 23.8901L57.101 22.3819ZM55.4858 23C55.0972 23 54.7681 22.9411 54.4875 22.8377L53.796 24.7143C54.326 24.9096 54.893 25 55.4858 25V23ZM54.4875 22.8377C54.2058 22.7339 53.8578 22.5386 53.4412 22.2167L52.2183 23.7993C52.7404 24.2027 53.267 24.5194 53.796 24.7143L54.4875 22.8377ZM53.4494 22.2231C53.149 21.986 52.8341 21.6373 52.5147 21.1488L50.8408 22.2432C51.2467 22.864 51.6998 23.39 52.2101 23.7929L53.4494 22.2231ZM52.5147 21.1488C52.1932 20.6571 51.9412 20.1516 51.7555 19.6317L49.872 20.3043C50.113 20.9791 50.4369 21.6256 50.8408 22.2432L52.5147 21.1488ZM50.9341 18.9753C50.3199 18.9008 49.6985 18.7418 49.0683 18.4936L48.3352 20.3544C49.113 20.6608 49.8996 20.8645 50.6934 20.9607L50.9341 18.9753ZM47.7189 19.6083C47.8438 20.2746 47.8938 20.7241 47.8938 20.992H49.8938C49.8938 20.5346 49.8157 19.9387 49.6846 19.2397L47.7189 19.6083ZM47.8938 20.992C47.8938 21.8404 47.6749 22.2957 47.4094 22.5505C47.1362 22.8126 46.6377 23.032 45.7258 23.032V25.032C46.9258 25.032 48.0113 24.7447 48.7941 23.9935C49.5846 23.235 49.8938 22.1702 49.8938 20.992H47.8938ZM45.7258 23.032C45.0505 23.032 44.5276 22.8407 44.1 22.4862C43.6567 22.1187 43.2485 21.5189 42.9255 20.5972L41.038 21.2588C41.4403 22.4065 42.0188 23.3586 42.8235 24.0258C43.6439 24.706 44.6304 25.032 45.7258 25.032V23.032ZM42.9255 20.5972C42.2482 18.6649 41.8938 16.256 41.8938 13.344H39.8938C39.8938 16.4053 40.2647 19.0524 41.038 21.2588L42.9255 20.5972ZM41.8938 13.344C41.8938 11.4395 42.2339 9.67042 42.9071 8.02707L41.0564 7.26893C40.2789 9.16691 39.8938 11.1951 39.8938 13.344H41.8938ZM42.9048 8.03261C43.5832 6.40453 44.5995 5.11537 45.9572 4.14018L44.7903 2.51581C43.1186 3.71662 41.8736 5.30747 41.0587 7.26338L42.9048 8.03261ZM45.9646 4.13477C47.2816 3.17021 48.9112 2.664 50.9098 2.664V0.664C48.5563 0.664 46.4952 1.26712 44.7829 2.52123L45.9646 4.13477ZM50.9098 2.664C52.5118 2.664 53.9402 3.00456 55.2147 3.67035L56.1408 1.89765C54.5566 1.07011 52.8063 0.664 50.9098 0.664V2.664ZM55.2252 3.67575C56.4893 4.31721 57.4808 5.23414 58.2158 6.44037L59.9237 5.39963C58.9947 3.87519 57.7249 2.70145 56.1303 1.89225L55.2252 3.67575ZM58.2218 6.45C58.9648 7.63884 59.3498 9.02958 59.3498 10.656H61.3498C61.3498 8.69842 60.8814 6.93182 59.9178 5.39L58.2218 6.45ZM47.3818 12.16C47.3818 13.1864 47.8025 14.0785 48.5521 14.8003L49.9394 13.3597C49.537 12.9722 49.3818 12.5843 49.3818 12.16H47.3818ZM48.5663 14.8138C49.3168 15.5086 50.2173 15.88 51.2298 15.88V13.88C50.7489 13.88 50.3267 13.7181 49.9252 13.3462L48.5663 14.8138ZM51.2298 15.88C52.2567 15.88 53.1663 15.5129 53.9069 14.8008L52.5206 13.3592C52.1519 13.7138 51.7388 13.88 51.2298 13.88V15.88ZM53.9074 14.8003C54.657 14.0785 55.0778 13.1864 55.0778 12.16H53.0778C53.0778 12.5843 52.9225 12.9722 52.5201 13.3597L53.9074 14.8003ZM55.0778 12.16C55.0778 11.1191 54.6617 10.2179 53.8932 9.50624L52.5343 10.9738C52.9178 11.3288 53.0778 11.7076 53.0778 12.16H55.0778ZM53.9209 9.53289C53.1831 8.79518 52.2693 8.408 51.2298 8.408V10.408C51.7262 10.408 52.135 10.5755 52.5066 10.9471L53.9209 9.53289ZM51.2298 8.408C50.2049 8.408 49.2999 8.79959 48.5521 9.51968L49.9394 10.9603C50.3436 10.5711 50.7613 10.408 51.2298 10.408V8.408ZM48.5521 9.51968C47.8025 10.2415 47.3818 11.1336 47.3818 12.16H49.3818C49.3818 11.7357 49.537 11.3478 49.9394 10.9603L48.5521 9.51968ZM62.8673 21.984L62.0121 22.5023L62.0167 22.5099L62.0215 22.5175L62.8673 21.984ZM61.3633 16.288L62.3613 16.2256L62.3613 16.2256L61.3633 16.288ZM62.6113 7.936L63.5299 8.33111L63.5314 8.32755L62.6113 7.936ZM66.2273 3.296L66.8 4.11576L66.8022 4.11419L66.2273 3.296ZM77.2033 3.296L76.6231 4.11049L76.6294 4.11499L76.6358 4.11939L77.2033 3.296ZM80.8193 7.904L79.897 8.29074L79.9006 8.29911L80.8193 7.904ZM82.0673 16.288L81.0692 16.2256L81.0691 16.2267L82.0673 16.288ZM80.5633 21.984L81.4112 22.514L81.4113 22.514L80.5633 21.984ZM74.6433 23.072L73.824 23.6455L73.8303 23.6545L73.8368 23.6634L74.6433 23.072ZM74.0673 19.616L75.0478 19.8121L75.2967 18.568L74.0288 18.6167L74.0673 19.616ZM69.3633 19.616L69.4298 18.6182L68.1265 18.5313L68.3827 19.8121L69.3633 19.616ZM68.7552 23.104L67.9488 22.5126L67.9423 22.5215L67.936 22.5305L68.7552 23.104ZM69.1393 13.92L68.1529 14.0844L68.2974 14.9519L69.1763 14.9193L69.1393 13.92ZM74.1953 13.92L74.1568 14.9193L75.0239 14.9526L75.1791 14.0989L74.1953 13.92ZM73.6193 10.432L72.7872 10.9867L72.7916 10.9933L72.796 10.9997L73.6193 10.432ZM69.6833 10.4L70.5065 10.9677L70.5065 10.9677L69.6833 10.4ZM66.3233 23.064C65.2927 23.064 64.4363 22.5971 63.713 21.4505L62.0215 22.5175C63.0476 24.1443 64.4951 25.064 66.3233 25.064V23.064ZM63.7224 21.4657C62.9822 20.2444 62.5048 18.5217 62.3613 16.2256L60.3652 16.3504C60.5204 18.8329 61.0456 20.9076 62.0121 22.5023L63.7224 21.4657ZM62.3613 16.2256C62.342 15.9162 62.3313 15.4399 62.3313 14.784H60.3313C60.3313 15.4508 60.3419 15.9772 60.3652 16.3504L62.3613 16.2256ZM62.3313 14.784C62.3313 12.3125 62.7396 10.1684 63.5299 8.33111L61.6926 7.54089C60.7762 9.67158 60.3313 12.0928 60.3313 14.784H62.3313ZM63.5314 8.32755C64.3224 6.46875 65.4179 5.08133 66.8 4.11576L65.6545 2.47624C63.922 3.68667 62.6068 5.39258 61.6911 7.54444L63.5314 8.32755ZM66.8022 4.11419C68.1983 3.13317 69.8283 2.632 71.7313 2.632V0.631998C69.4529 0.631998 67.4136 1.24017 65.6523 2.47781L66.8022 4.11419ZM71.7313 2.632C73.6344 2.632 75.251 3.13315 76.6231 4.11049L77.7834 2.48151C76.0408 1.24018 74.0095 0.631998 71.7313 0.631998V2.632ZM76.6358 4.11939C78.0381 5.08587 79.1298 6.461 79.8971 8.29073L81.7414 7.51727C80.8448 5.379 79.5257 3.68213 77.7707 2.47261L76.6358 4.11939ZM79.9006 8.29911C80.6904 10.1355 81.0993 12.2899 81.0993 14.784H83.0993C83.0993 12.0727 82.6547 9.64053 81.7379 7.50889L79.9006 8.29911ZM81.0993 14.784C81.0993 15.4399 81.0885 15.9162 81.0692 16.2256L83.0653 16.3504C83.0886 15.9772 83.0993 15.4508 83.0993 14.784H81.0993ZM81.0691 16.2267C80.9252 18.5708 80.4464 20.2842 79.7153 21.454L81.4113 22.514C82.3868 20.9531 82.9106 18.8692 83.0654 16.3493L81.0691 16.2267ZM79.7153 21.454C79.0207 22.5652 78.1703 23.032 77.1073 23.032V25.032C78.9455 25.032 80.3991 24.1334 81.4112 22.514L79.7153 21.454ZM77.1073 23.032C76.0929 23.032 75.6528 22.7577 75.4497 22.4806L73.8368 23.6634C74.5723 24.6663 75.7749 25.032 77.1073 25.032V23.032ZM75.4625 22.4985C75.1516 22.0544 74.9713 21.4849 74.9713 20.736H72.9713C72.9713 21.8218 73.2389 22.8096 73.824 23.6455L75.4625 22.4985ZM74.9713 20.736C74.9713 20.3563 75 20.0514 75.0478 19.8121L73.0867 19.4199C73.0065 19.8206 72.9713 20.2623 72.9713 20.736H74.9713ZM74.0288 18.6167C72.9287 18.6591 71.9606 18.68 71.1233 18.68V20.68C71.9925 20.68 72.9871 20.6583 74.1057 20.6153L74.0288 18.6167ZM71.1233 18.68C70.616 18.68 70.0519 18.6597 69.4298 18.6182L69.2967 20.6138C69.9546 20.6576 70.5638 20.68 71.1233 20.68V18.68ZM68.3827 19.8121C68.4305 20.0514 68.4593 20.3563 68.4593 20.736H70.4593C70.4593 20.2623 70.424 19.8206 70.3438 19.4199L68.3827 19.8121ZM68.4593 20.736C68.4593 21.502 68.2706 22.0739 67.9488 22.5126L69.5617 23.6954C70.1785 22.8541 70.4593 21.8473 70.4593 20.736H68.4593ZM67.936 22.5305C67.7557 22.7881 67.3421 23.064 66.3233 23.064V25.064C67.6511 25.064 68.8588 24.6999 69.5745 23.6775L67.936 22.5305ZM69.1763 14.9193C70.3267 14.8767 71.1537 14.856 71.6673 14.856V12.856C71.1142 12.856 70.2558 12.878 69.1022 12.9207L69.1763 14.9193ZM71.6673 14.856C72.2236 14.856 73.0509 14.8767 74.1568 14.9193L74.2337 12.9207C73.1209 12.8779 72.2629 12.856 71.6673 12.856V14.856ZM75.1791 14.0989C75.2384 13.7728 75.2593 13.3476 75.2593 12.864H73.2593C73.2593 13.3191 73.2374 13.5979 73.2114 13.7411L75.1791 14.0989ZM75.2593 12.864C75.2593 11.7252 75.017 10.6974 74.4425 9.86427L72.796 10.9997C73.0748 11.4039 73.2593 11.9975 73.2593 12.864H75.2593ZM74.4513 9.8773C73.8063 8.90981 72.8017 8.472 71.6353 8.472V10.472C72.2608 10.472 72.5789 10.6742 72.7872 10.9867L74.4513 9.8773ZM71.6353 8.472C70.4939 8.472 69.506 8.89555 68.86 9.83227L70.5065 10.9677C70.7138 10.6671 71.0273 10.472 71.6353 10.472V8.472ZM68.86 9.83227C68.2877 10.6622 68.0433 11.6773 68.0433 12.8H70.0433C70.0433 11.96 70.2255 11.3752 70.5065 10.9677L68.86 9.83227ZM68.0433 12.8C68.0433 13.2216 68.0805 13.65 68.1529 14.0844L70.1256 13.7556C70.07 13.422 70.0433 13.1037 70.0433 12.8H68.0433ZM101.3 24.032L101.286 23.0321L101.286 23.0321L101.3 24.032ZM97.172 23.072L96.6877 23.9469L96.6942 23.9505L97.172 23.072ZM94.356 20.352L93.4848 20.843L93.4902 20.8525L93.4957 20.8618L94.356 20.352ZM93.3 16.448L92.3001 16.4629L92.3002 16.4704L92.3004 16.4778L93.3 16.448ZM94.292 12.608L93.4359 12.0911L93.4359 12.0911L94.292 12.608ZM97.14 9.92L96.6686 9.03804L96.6622 9.04152L97.14 9.92ZM105.332 9.888L104.86 10.7695L104.866 10.7729L105.332 9.888ZM108.212 12.576L107.359 13.0974L107.359 13.0974L108.212 12.576ZM109.332 16.448L110.332 16.4326L110.332 16.4254L110.332 16.4182L109.332 16.448ZM108.34 20.256L109.196 20.7729L109.2 20.7658L108.34 20.256ZM105.46 22.976L104.977 22.1004L104.97 22.104L105.46 22.976ZM102.9 15.584L102.176 16.2737L102.184 16.2825L102.193 16.2911L102.9 15.584ZM99.892 15.584L100.599 16.2911L100.608 16.2825L100.616 16.2737L99.892 15.584ZM99.892 18.688L99.1679 19.3777L99.1679 19.3777L99.892 18.688ZM101.286 23.0321C99.9024 23.0513 98.699 22.7641 97.6498 22.1935L96.6942 23.9505C98.077 24.7025 99.6256 25.0554 101.314 25.0319L101.286 23.0321ZM97.6563 22.1971C96.614 21.6201 95.8065 20.8381 95.2163 19.8422L93.4957 20.8618C94.2709 22.1699 95.3407 23.2012 96.6877 23.9469L97.6563 22.1971ZM95.2272 19.861C94.6502 18.8374 94.3377 17.6959 94.2996 16.4182L92.3004 16.4778C92.3476 18.0587 92.7391 19.5199 93.4848 20.843L95.2272 19.861ZM94.2999 16.4331C94.2811 15.175 94.5701 14.0821 95.1481 13.1249L93.4359 12.0911C92.6485 13.3953 92.2762 14.8624 92.3001 16.4629L94.2999 16.4331ZM95.1481 13.1249C95.7345 12.1536 96.5499 11.3792 97.6178 10.7985L96.6622 9.04152C95.2981 9.78343 94.2149 10.8011 93.4359 12.0911L95.1481 13.1249ZM97.6114 10.8019C98.6903 10.2253 99.9125 9.928 101.3 9.928V7.928C99.6155 7.928 98.0644 8.29204 96.6686 9.03807L97.6114 10.8019ZM101.3 9.928C102.646 9.928 103.825 10.215 104.86 10.7695L105.804 9.00652C104.45 8.28101 102.941 7.928 101.3 7.928V9.928ZM104.866 10.7729C105.926 11.3305 106.751 12.1022 107.359 13.0974L109.065 12.0545C108.265 10.7458 107.17 9.7255 105.798 9.00308L104.866 10.7729ZM107.359 13.0974C107.967 14.0922 108.295 15.2116 108.332 16.4778L110.332 16.4182C110.284 14.8257 109.865 13.3638 109.065 12.0545L107.359 13.0974ZM108.332 16.4634C108.351 17.6724 108.065 18.7589 107.48 19.7462L109.2 20.7658C109.981 19.4491 110.356 17.997 110.332 16.4326L108.332 16.4634ZM107.484 19.7391C106.898 20.7091 106.072 21.4964 104.977 22.1004L105.943 23.8516C107.323 23.0903 108.416 22.0643 109.196 20.7729L107.484 19.7391ZM104.97 22.104C103.916 22.6958 102.697 23.0128 101.286 23.0321L101.314 25.0319C103.018 25.0086 104.572 24.6215 105.95 23.848L104.97 22.104ZM101.396 20.36C102.267 20.36 103.024 20.0075 103.624 19.3777L102.176 17.9983C101.922 18.2645 101.677 18.36 101.396 18.36V20.36ZM103.624 19.3777C104.221 18.7511 104.54 17.9841 104.54 17.12H102.54C102.54 17.4506 102.432 17.7289 102.176 17.9983L103.624 19.3777ZM104.54 17.12C104.54 16.2544 104.219 15.489 103.607 14.8769L102.193 16.2911C102.434 16.5324 102.54 16.7909 102.54 17.12H104.54ZM103.624 14.8943C103.024 14.2645 102.267 13.912 101.396 13.912V15.912C101.677 15.912 101.922 16.0075 102.176 16.2737L103.624 14.8943ZM101.396 13.912C100.525 13.912 99.7677 14.2645 99.1679 14.8943L100.616 16.2737C100.87 16.0075 101.115 15.912 101.396 15.912V13.912ZM99.1849 14.8769C98.5728 15.489 98.252 16.2544 98.252 17.12H100.252C100.252 16.7909 100.358 16.5324 100.599 16.2911L99.1849 14.8769ZM98.252 17.12C98.252 17.9841 98.5711 18.7511 99.1679 19.3777L100.616 17.9983C100.36 17.7289 100.252 17.4506 100.252 17.12H98.252ZM99.1679 19.3777C99.7677 20.0075 100.525 20.36 101.396 20.36V18.36C101.115 18.36 100.87 18.2645 100.616 17.9983L99.1679 19.3777ZM111.285 21.6L110.321 21.8697L110.325 21.8815L111.285 21.6ZM110.773 11.776L109.783 11.6312L109.782 11.6416L109.78 11.652L110.773 11.776ZM111.637 9.568L110.84 8.9636L110.836 8.968L111.637 9.568ZM115.349 9.056L114.822 9.90626L114.831 9.91169L114.84 9.91693L115.349 9.056ZM116.245 10.24L115.274 10.4825L115.68 12.1047L116.917 10.9799L116.245 10.24ZM118.069 9.28L118.343 10.2415L118.343 10.2415L118.069 9.28ZM122.549 9.472L122.112 10.3719L122.123 10.3768L122.549 9.472ZM124.341 10.88L123.554 11.4978L123.566 11.5134L123.579 11.5285L124.341 10.88ZM124.341 14.592L123.605 13.9149L123.603 13.9163L124.341 14.592ZM121.717 15.264L121.429 16.2218L121.441 16.2254L121.453 16.2288L121.717 15.264ZM121.141 15.072L120.769 16.0005L120.779 16.0045L120.789 16.0083L121.141 15.072ZM117.909 15.808L117.19 15.1126L117.19 15.113L117.909 15.808ZM116.853 21.12L117.846 21.2335L117.846 21.2335L116.853 21.12ZM116.085 23.136L116.888 23.7312L116.893 23.7243L116.898 23.7172L116.085 23.136ZM114.036 23C113.564 23 113.236 22.868 112.982 22.6463C112.711 22.41 112.444 22.001 112.244 21.3185L110.325 21.8815C110.594 22.799 111.021 23.59 111.667 24.1537C112.33 24.732 113.144 25 114.036 25V23ZM112.247 21.3304C111.835 19.8581 111.613 17.7546 111.613 14.976H109.613C109.613 17.8294 109.838 20.1419 110.322 21.8696L112.247 21.3304ZM111.613 14.976C111.613 13.7195 111.665 12.6976 111.765 11.9L109.78 11.652C109.667 12.5611 109.613 13.6725 109.613 14.976H111.613ZM111.762 11.9208C111.87 11.1809 112.106 10.6092 112.437 10.168L110.836 8.968C110.271 9.72145 109.931 10.6217 109.783 11.6312L111.762 11.9208ZM112.433 10.1724C112.669 9.8618 113.051 9.64 113.781 9.64V7.64C112.59 7.64 111.543 8.03687 110.84 8.96361L112.433 10.1724ZM113.781 9.64C114.217 9.64 114.553 9.73941 114.822 9.90626L115.875 8.20573C115.248 7.81792 114.538 7.64 113.781 7.64V9.64ZM114.84 9.91693C115.087 10.0632 115.214 10.2395 115.274 10.4825L117.215 9.99746C117.019 9.21648 116.548 8.60349 115.857 8.19507L114.84 9.91693ZM116.917 10.9799C117.25 10.6774 117.712 10.4219 118.343 10.2415L117.794 8.31848C116.932 8.56476 116.178 8.94928 115.572 9.50006L116.917 10.9799ZM118.343 10.2415C118.992 10.0561 119.699 9.96 120.469 9.96V7.96C119.531 7.96 118.638 8.07723 117.794 8.31848L118.343 10.2415ZM120.469 9.96C120.979 9.96 121.524 10.0868 122.112 10.3718L122.985 8.57218C122.165 8.17456 121.323 7.96 120.469 7.96V9.96ZM122.123 10.3768C122.715 10.6556 123.186 11.0297 123.554 11.4978L125.127 10.2622C124.556 9.53565 123.833 8.97105 122.974 8.56718L122.123 10.3768ZM123.579 11.5285C123.934 11.9445 124.077 12.3492 124.077 12.768H126.077C126.077 11.8215 125.729 10.9675 125.102 10.2315L123.579 11.5285ZM124.077 12.768C124.077 13.1834 123.937 13.5537 123.605 13.9149L125.076 15.2691C125.725 14.5636 126.077 13.7179 126.077 12.768H124.077ZM123.603 13.9163C123.35 14.1925 123.004 14.36 122.453 14.36V16.36C123.48 16.36 124.392 16.0155 125.078 15.2677L123.603 13.9163ZM122.453 14.36C122.281 14.36 122.124 14.3387 121.98 14.2992L121.453 16.2288C121.778 16.3173 122.112 16.36 122.453 16.36V14.36ZM122.004 14.3062C121.807 14.2473 121.637 14.1903 121.492 14.1357L120.789 16.0083C120.985 16.0817 121.199 16.1527 121.429 16.2218L122.004 14.3062ZM121.512 14.1435C121.046 13.9571 120.563 13.816 120.117 13.816V15.816C120.182 15.816 120.382 15.8456 120.769 16.0005L121.512 14.1435ZM120.117 13.816C118.983 13.816 117.996 14.2794 117.19 15.1126L118.627 16.5034C119.101 16.014 119.586 15.816 120.117 15.816V13.816ZM117.19 15.113C116.363 15.9677 115.981 17.0627 115.981 18.304H117.981C117.981 17.4973 118.216 16.9283 118.627 16.503L117.19 15.113ZM115.981 18.304C115.981 19.4136 115.938 20.3112 115.859 21.0065L117.846 21.2335C117.937 20.4355 117.981 19.4557 117.981 18.304H115.981ZM115.859 21.0065C115.792 21.5887 115.596 22.0989 115.271 22.5548L116.898 23.7172C117.426 22.9784 117.742 22.1447 117.846 21.2335L115.859 21.0065ZM115.281 22.5408C115.099 22.7868 114.766 23 114.036 23V25C115.185 25 116.217 24.6372 116.888 23.7312L115.281 22.5408ZM146.861 23.968L146.855 24.968H146.861V23.968ZM138.893 21.344L138.19 22.0554L138.194 22.0597L138.893 21.344ZM138.829 4.64L139.59 5.28813L139.594 5.28414L138.829 4.64ZM151.085 2.464L151.459 1.53648L151.459 1.53648L151.085 2.464ZM154.765 11.776L153.897 11.2799L153.892 11.2877L153.888 11.2957L154.765 11.776ZM152.557 14.176L151.974 13.3635L150.006 14.7754L152.397 15.1631L152.557 14.176ZM154.605 15.456L153.822 16.0779L153.827 16.0848L153.833 16.0917L154.605 15.456ZM154.669 20.896L153.813 20.3786L153.809 20.3845L154.669 20.896ZM151.917 23.104L151.512 22.1896L151.506 22.1921L151.917 23.104ZM144.653 12.032L145.1 11.1376L145.074 11.1244L145.047 11.1129L144.653 12.032ZM147.853 11.84L148.399 12.6777L148.407 12.672L147.853 11.84ZM147.853 8.896L147.282 9.7169L147.302 9.73096L147.323 9.744L147.853 8.896ZM144.653 8.672L145.047 9.59114L145.074 9.57957L145.1 9.56643L144.653 8.672ZM143.981 9.344L143.075 8.92111L143.075 8.92111L143.981 9.344ZM143.981 11.392L143.075 11.8149L143.08 11.8271L143.086 11.8392L143.981 11.392ZM144.653 19.52L144.259 20.4392L144.265 20.4416L144.653 19.52ZM147.853 19.36L148.345 20.2306L148.357 20.2238L147.853 19.36ZM147.853 16.768L148.357 15.9042L148.357 15.9042L147.853 16.768ZM144.653 16.576L144.265 15.6543L144.259 15.6569L144.653 16.576ZM143.981 17.184L144.845 17.6879L144.853 17.6731L144.861 17.6581L143.981 17.184ZM143.981 18.944L143.1 19.4181L143.108 19.4331L143.117 19.4479L143.981 18.944ZM146.867 22.968C143.473 22.9476 141.11 22.1101 139.591 20.6283L138.194 22.0597C140.217 24.0339 143.166 24.9458 146.855 24.968L146.867 22.968ZM139.596 20.6326C138.122 19.1767 137.269 16.6934 137.269 12.928H135.269C135.269 16.9279 136.165 20.0553 138.19 22.0554L139.596 20.6326ZM137.269 12.928C137.269 9.56486 138.083 7.05942 139.59 5.28812L138.067 3.99188C136.161 6.23124 135.269 9.25114 135.269 12.928H137.269ZM139.594 5.28414C141.076 3.52359 143.184 2.6 146.061 2.6V0.599998C142.708 0.599998 139.995 1.70307 138.064 3.99586L139.594 5.28414ZM146.061 2.6C147.883 2.6 149.426 2.87358 150.711 3.39152L151.459 1.53648C149.885 0.902418 148.078 0.599998 146.061 0.599998V2.6ZM150.711 3.39152C151.996 3.90921 152.93 4.624 153.569 5.5123L155.192 4.34369C154.296 3.09867 153.033 2.17079 151.459 1.53648L150.711 3.39152ZM153.569 5.5123C154.202 6.39116 154.533 7.44023 154.533 8.704H156.533C156.533 7.06644 156.096 5.59818 155.192 4.34369L153.569 5.5123ZM154.533 8.704C154.533 9.70266 154.312 10.552 153.897 11.2799L155.633 12.2721C156.241 11.208 156.533 10.0093 156.533 8.704H154.533ZM153.888 11.2957C153.481 12.0385 152.855 12.731 151.974 13.3635L153.14 14.9885C154.221 14.213 155.067 13.3055 155.642 12.2563L153.888 11.2957ZM152.397 15.1631C152.901 15.245 153.374 15.5147 153.822 16.0779L155.388 14.8341C154.683 13.9466 153.791 13.363 152.717 13.1889L152.397 15.1631ZM153.833 16.0917C154.279 16.6338 154.501 17.2505 154.501 17.984H156.501C156.501 16.7975 156.125 15.7288 155.377 14.8203L153.833 16.0917ZM154.501 17.984C154.501 18.8169 154.278 19.6097 153.813 20.3786L155.524 21.4134C156.169 20.3476 156.501 19.1991 156.501 17.984H154.501ZM153.809 20.3845C153.415 21.0478 152.691 21.6675 151.512 22.1896L152.321 24.0184C153.745 23.3885 154.856 22.5362 155.528 21.4075L153.809 20.3845ZM151.506 22.1921C150.403 22.6887 148.873 22.968 146.861 22.968V24.968C149.03 24.968 150.871 24.6713 152.327 24.0159L151.506 22.1921ZM144.206 12.9264C144.767 13.2074 145.412 13.32 146.093 13.32V11.32C145.621 11.32 145.306 11.2406 145.1 11.1376L144.206 12.9264ZM146.093 13.32C146.937 13.32 147.72 13.1202 148.399 12.6776L147.306 11.0024C147.004 11.1998 146.614 11.32 146.093 11.32V13.32ZM148.407 12.672C149.221 12.1294 149.621 11.302 149.621 10.336H147.621C147.621 10.6927 147.508 10.868 147.298 11.0079L148.407 12.672ZM149.621 10.336C149.621 9.37617 149.208 8.56359 148.383 8.048L147.323 9.744C147.522 9.86841 147.621 10.0158 147.621 10.336H149.621ZM148.424 8.07509C147.737 7.59757 146.932 7.384 146.061 7.384V9.384C146.598 9.384 146.987 9.51176 147.282 9.7169L148.424 8.07509ZM146.061 7.384C145.395 7.384 144.763 7.4989 144.206 7.77757L145.1 9.56643C145.311 9.4611 145.618 9.384 146.061 9.384V7.384ZM144.259 7.75285C143.714 7.98642 143.318 8.3993 143.075 8.92111L144.887 9.76688C144.942 9.6487 144.994 9.61358 145.047 9.59114L144.259 7.75285ZM143.075 8.92111C142.862 9.37716 142.757 9.86327 142.757 10.368H144.757C144.757 10.1474 144.801 9.95084 144.887 9.76688L143.075 8.92111ZM142.757 10.368C142.757 10.8727 142.862 11.3588 143.075 11.8149L144.887 10.9691C144.801 10.7852 144.757 10.5886 144.757 10.368H142.757ZM143.086 11.8392C143.338 12.343 143.736 12.7272 144.259 12.9511L145.047 11.1129C144.972 11.0808 144.922 11.0383 144.875 10.9448L143.086 11.8392ZM144.265 20.4416C144.82 20.6756 145.438 20.776 146.093 20.776V18.776C145.638 18.776 145.296 18.7057 145.041 18.5984L144.265 20.4416ZM146.093 20.776C146.912 20.776 147.675 20.609 148.345 20.2306L147.361 18.4894C147.049 18.6657 146.639 18.776 146.093 18.776V20.776ZM148.357 20.2238C149.165 19.7523 149.621 18.9922 149.621 18.048H147.621C147.621 18.2558 147.565 18.3703 147.349 18.4962L148.357 20.2238ZM149.621 18.048C149.621 17.1088 149.15 16.3671 148.357 15.9042L147.349 17.6318C147.579 17.7662 147.621 17.8778 147.621 18.048H149.621ZM148.357 15.9042C147.67 15.5035 146.893 15.32 146.061 15.32V17.32C146.594 17.32 147.012 17.4351 147.349 17.6318L148.357 15.9042ZM146.061 15.32C145.422 15.32 144.816 15.4222 144.265 15.6544L145.041 17.4976C145.3 17.3884 145.633 17.32 146.061 17.32V15.32ZM144.259 15.6569C143.759 15.8709 143.36 16.2268 143.1 16.7099L144.861 17.6581C144.9 17.5866 144.949 17.5371 145.047 17.4951L144.259 15.6569ZM143.117 16.6801C142.871 17.1012 142.757 17.5655 142.757 18.048H144.757C144.757 17.8905 144.791 17.7788 144.845 17.6879L143.117 16.6801ZM142.757 18.048C142.757 18.5307 142.871 18.9927 143.1 19.4181L144.861 18.4699C144.792 18.3407 144.757 18.2053 144.757 18.048H142.757ZM143.117 19.4479C143.385 19.9071 143.783 20.2353 144.259 20.4391L145.047 18.6009C144.925 18.5487 144.875 18.4929 144.845 18.4401L143.117 19.4479ZM162.456 22.688L162.899 21.7914L162.899 21.7914L162.456 22.688ZM158.488 19.04L157.615 19.5286L157.619 19.5355L157.623 19.5424L158.488 19.04ZM158.776 6.816L157.928 6.28506L157.924 6.29248L158.776 6.816ZM163.064 2.88L162.625 1.98123L162.625 1.98123L163.064 2.88ZM173.08 2.368L173.446 1.43743L173.446 1.43743L173.08 2.368ZM176.088 4.384L176.851 3.73806L176.851 3.73806L176.088 4.384ZM176.12 9.856L176.75 10.6321L176.758 10.6263L176.765 10.6203L176.12 9.856ZM172.344 10.56L172.101 11.5302L172.115 11.5334L172.344 10.56ZM171.256 10.208L171.618 9.27599L171.602 9.26979L171.586 9.26414L171.256 10.208ZM170.104 9.888L169.846 10.8542L169.882 10.8639L169.919 10.8709L170.104 9.888ZM165.56 11.04L166.276 11.7379L166.285 11.7287L165.56 11.04ZM165.528 17.6L164.862 18.3463L164.862 18.3463L165.528 17.6ZM171.32 17.824L171.96 18.5922L171.96 18.5922L171.32 17.824ZM171.704 17.312H172.704V16.312H171.704V17.312ZM167.864 12.8L168.485 13.5835L168.493 13.577L168.501 13.5704L167.864 12.8ZM174.552 12.576L174.161 13.4963L174.17 13.5005L174.18 13.5045L174.552 12.576ZM176.376 14.208L175.476 14.6449L175.481 14.6552L176.376 14.208ZM175.8 20.544L174.986 19.9627L174.978 19.9739L175.8 20.544ZM172.792 23.04L172.357 22.1396L172.351 22.1426L172.792 23.04ZM168.696 22.968C166.378 22.968 164.458 22.5613 162.899 21.7914L162.013 23.5846C163.91 24.5214 166.149 24.968 168.696 24.968V22.968ZM162.899 21.7914C161.337 21.02 160.165 19.9366 159.352 18.5376L157.623 19.5424C158.645 21.3008 160.119 22.6493 162.013 23.5846L162.899 21.7914ZM159.36 18.5514C158.562 17.1263 158.144 15.4129 158.144 13.376H156.144C156.144 15.6911 156.621 17.7537 157.615 19.5286L159.36 18.5514ZM158.144 13.376C158.144 10.9118 158.658 8.91744 159.628 7.33952L157.924 6.29248C156.717 8.2559 156.144 10.6348 156.144 13.376H158.144ZM159.623 7.34692C160.641 5.72256 161.933 4.54407 163.502 3.77877L162.625 1.98123C160.696 2.92259 159.129 4.36811 157.928 6.28508L159.623 7.34692ZM163.502 3.77877C165.117 2.9911 166.802 2.6 168.568 2.6V0.599998C166.494 0.599998 164.509 1.06223 162.625 1.98123L163.502 3.77877ZM168.568 2.6C170.176 2.6 171.551 2.84133 172.714 3.29856L173.446 1.43743C172.005 0.870664 170.373 0.599998 168.568 0.599998V2.6ZM172.714 3.29856C173.903 3.7667 174.753 4.35496 175.324 5.02994L176.851 3.73806C176.014 2.74904 174.859 1.9933 173.446 1.43743L172.714 3.29856ZM175.324 5.02994C175.906 5.71697 176.144 6.36996 176.144 7.008H178.144C178.144 5.81137 177.678 4.71503 176.851 3.73806L175.324 5.02994ZM176.144 7.008C176.144 8.18065 175.841 8.78253 175.475 9.09171L176.765 10.6203C177.764 9.77747 178.144 8.48068 178.144 7.008H176.144ZM175.489 9.07989C175.009 9.46969 174.399 9.688 173.592 9.688V11.688C174.79 11.688 175.865 11.3516 176.75 10.6321L175.489 9.07989ZM173.592 9.688C173.181 9.688 172.844 9.65039 172.573 9.58658L172.115 11.5334C172.569 11.6403 173.064 11.688 173.592 11.688V9.688ZM172.586 9.58986C172.292 9.51625 171.969 9.41261 171.618 9.27599L170.893 11.14C171.31 11.3021 171.713 11.4331 172.101 11.5301L172.586 9.58986ZM171.586 9.26414C171.125 9.10281 170.691 8.98072 170.288 8.90513L169.919 10.8709C170.199 10.9233 170.533 11.0145 170.925 11.1519L171.586 9.26414ZM170.361 8.92176C169.928 8.80606 169.428 8.76 168.888 8.76V10.76C169.329 10.76 169.64 10.7993 169.846 10.8542L170.361 8.92176ZM168.888 8.76C167.264 8.76 165.871 9.26066 164.835 10.3512L166.285 11.7287C166.87 11.1127 167.696 10.76 168.888 10.76V8.76ZM164.844 10.3421C163.798 11.4149 163.344 12.882 163.344 14.592H165.344C165.344 13.23 165.7 12.3291 166.276 11.7379L164.844 10.3421ZM163.344 14.592C163.344 16.1074 163.812 17.4099 164.862 18.3463L166.193 16.8537C165.665 16.3821 165.344 15.6793 165.344 14.592H163.344ZM164.862 18.3463C165.855 19.232 167.082 19.656 168.472 19.656V17.656C167.515 17.656 166.779 17.376 166.193 16.8537L164.862 18.3463ZM168.472 19.656C169.216 19.656 169.908 19.5604 170.528 19.3445L169.871 17.4555C169.511 17.581 169.05 17.656 168.472 17.656V19.656ZM170.528 19.3445C171.076 19.1539 171.575 18.9133 171.96 18.5922L170.68 17.0558C170.553 17.1614 170.305 17.3048 169.871 17.4555L170.528 19.3445ZM171.96 18.5922C172.118 18.4603 172.279 18.3079 172.408 18.136C172.523 17.9826 172.704 17.6945 172.704 17.312H170.704C170.704 17.1774 170.737 17.077 170.761 17.0221C170.784 16.9676 170.806 16.9384 170.808 16.936C170.811 16.9322 170.804 16.9418 170.781 16.9649C170.758 16.9874 170.725 17.0176 170.68 17.0558L171.96 18.5922ZM171.704 16.312C170.197 16.312 169.18 16.1323 168.56 15.8552L167.743 17.6808C168.745 18.129 170.096 18.312 171.704 18.312V16.312ZM168.56 15.8552C168.298 15.7381 168.16 15.6057 168.08 15.4825C168.001 15.3587 167.936 15.1742 167.936 14.88H165.936C165.936 15.4818 166.073 16.0599 166.399 16.5655C166.725 17.0716 167.195 17.4353 167.743 17.6808L168.56 15.8552ZM167.936 14.88C167.936 14.2427 168.14 13.8573 168.485 13.5835L167.242 12.0165C166.35 12.724 165.936 13.7253 165.936 14.88H167.936ZM168.501 13.5704C168.843 13.288 169.589 13.032 171 13.032V11.032C169.466 11.032 168.122 11.288 167.226 12.0296L168.501 13.5704ZM171 13.032C172.455 13.032 173.485 13.2092 174.161 13.4963L174.943 11.6557C173.912 11.2175 172.574 11.032 171 11.032V13.032ZM174.18 13.5045C174.829 13.7641 175.234 14.1468 175.476 14.6449L177.275 13.7711C176.792 12.7759 175.981 12.0706 174.923 11.6475L174.18 13.5045ZM175.481 14.6552C175.749 15.1897 175.92 15.9882 175.92 17.12H177.92C177.92 15.8198 177.728 14.677 177.27 13.7608L175.481 14.6552ZM175.92 17.12C175.92 18.1406 175.616 19.0801 174.986 19.9628L176.613 21.1252C177.476 19.9172 177.92 18.5741 177.92 17.12H175.92ZM174.978 19.9739C174.362 20.8617 173.5 21.587 172.357 22.1397L173.227 23.9403C174.643 23.2557 175.787 22.317 176.621 21.1141L174.978 19.9739ZM172.351 22.1426C171.236 22.6904 170.023 22.968 168.696 22.968V24.968C170.313 24.968 171.83 24.6269 173.233 23.9374L172.351 22.1426ZM198.977 9.44L199.45 10.321L199.455 10.3179L198.977 9.44ZM193.312 10.56L193.264 9.56119L192.23 9.61162L192.316 10.643L193.312 10.56ZM193.057 19.968L192.074 19.7837L192.071 19.796L193.057 19.968ZM191.809 22.976L192.54 23.6583L192.545 23.6523L192.551 23.6463L191.809 22.976ZM186.913 22.912L187.689 22.2814L187.689 22.2814L186.913 22.912ZM185.76 19.872L184.773 20.0288L184.773 20.0288L185.76 19.872ZM185.536 10.56L186.535 10.6155L186.591 9.60965L185.585 9.56116L185.536 10.56ZM181.249 10.016L180.979 10.979L180.99 10.9821L181.001 10.985L181.249 10.016ZM178.881 8.704L178.133 9.36836L178.133 9.36836L178.881 8.704ZM179.329 3.552L178.684 2.78709L178.684 2.78709L179.329 3.552ZM182.977 2.112L182.808 1.12632L182.808 1.12632L182.977 2.112ZM199.489 3.552L200.123 2.77892L200.123 2.77892L199.489 3.552ZM199.737 6.368C199.737 6.93134 199.62 7.36103 199.429 7.69489C199.239 8.02599 198.944 8.31862 198.498 8.5621L199.455 10.3179C200.182 9.92138 200.767 9.38201 201.164 8.68911C201.56 7.99897 201.737 7.21266 201.737 6.368H199.737ZM198.503 8.559C197.558 9.0667 195.86 9.43456 193.264 9.56119L193.361 11.5588C196.013 11.4294 198.091 11.0506 199.45 10.321L198.503 8.559ZM192.316 10.643C192.398 11.6284 192.441 12.9205 192.441 14.528H194.441C194.441 12.8928 194.398 11.5396 194.309 10.477L192.316 10.643ZM192.441 14.528C192.441 16.7608 192.313 18.5049 192.074 19.7837L194.039 20.1523C194.312 18.7005 194.441 16.8179 194.441 14.528H192.441ZM192.071 19.796C191.853 21.0456 191.487 21.8399 191.066 22.3057L192.551 23.6463C193.325 22.7894 193.79 21.5784 194.042 20.14L192.071 19.796ZM191.077 22.2937C190.71 22.6879 190.167 22.936 189.313 22.936V24.936C190.591 24.936 191.713 24.5441 192.54 23.6583L191.077 22.2937ZM189.313 22.936C188.505 22.936 188.017 22.6855 187.689 22.2814L186.136 23.5426C186.917 24.5039 188.029 24.936 189.313 24.936V22.936ZM187.689 22.2814C187.29 21.7904 186.948 20.9724 186.748 19.7152L184.773 20.0288C185 21.4596 185.426 22.6682 186.136 23.5426L187.689 22.2814ZM186.748 19.7152C186.547 18.4451 186.441 16.7225 186.441 14.528H184.441C184.441 16.7709 184.548 18.6109 184.773 20.0288L186.748 19.7152ZM186.441 14.528C186.441 13.0481 186.472 11.7446 186.535 10.6155L184.538 10.5045C184.473 11.6794 184.441 13.0212 184.441 14.528H186.441ZM185.585 9.56116C183.847 9.47743 182.492 9.30106 181.496 9.04699L181.001 10.985C182.181 11.2856 183.684 11.4719 185.488 11.5588L185.585 9.56116ZM181.518 9.05304C180.559 8.78458 179.968 8.42263 179.628 8.03964L178.133 9.36836C178.817 10.1374 179.804 10.6501 180.979 10.979L181.518 9.05304ZM179.628 8.03964C179.319 7.69245 179.113 7.17348 179.113 6.368H177.113C177.113 7.52519 177.418 8.56355 178.133 9.36836L179.628 8.03964ZM179.113 6.368C179.113 5.42618 179.418 4.78401 179.973 4.31691L178.684 2.78709C177.618 3.68532 177.113 4.92048 177.113 6.368H179.113ZM179.973 4.31691C180.592 3.79538 181.611 3.36017 183.145 3.09768L182.808 1.12632C181.1 1.4185 179.686 1.94329 178.684 2.78709L179.973 4.31691ZM183.145 3.09768C184.688 2.83377 186.748 2.696 189.345 2.696V0.695999C186.693 0.695999 184.508 0.835566 182.808 1.12632L183.145 3.09768ZM189.345 2.696C191.962 2.696 194.045 2.83376 195.61 3.09805L195.943 1.12595C194.223 0.835574 192.017 0.695999 189.345 0.695999V2.696ZM195.61 3.09805C197.167 3.36089 198.211 3.79755 198.854 4.32507L200.123 2.77892C199.102 1.94111 197.671 1.41778 195.943 1.12595L195.61 3.09805ZM198.854 4.32507C199.427 4.79532 199.737 5.43545 199.737 6.368H201.737C201.737 4.91122 201.214 3.67401 200.123 2.77892L198.854 4.32507Z" fill="black" mask="url(#path-1-outside-1_42_2645)"/>
</svg>
