<svg width="152" height="90" viewBox="0 0 152 90" fill="none" xmlns="http://www.w3.org/2000/svg">
  <g filter="url(#filter0_di_47_3)">
    <mask id="path-1-outside-1_47_3" maskUnits="userSpaceOnUse" x="4" y="7" width="144" height="75" fill="black">
      <rect fill="white" x="4" y="7" width="144" height="75"/>
      <path fill-rule="evenodd" clip-rule="evenodd" d="M68.3147 62.4407C65.3646 64.5116 62.0973 66.3592 58.5593 67.907C38.32 76.7615 16.8883 72.4545 10.6901 58.287C4.49196 44.1195 15.8745 25.4565 36.1138 16.602C55.9214 7.93635 76.8713 11.8768 83.5658 25.3292C89.4996 22.8903 96.4113 21.4919 103.79 21.4919C125.881 21.4919 143.79 34.028 143.79 49.4919C143.79 64.9559 125.881 77.4919 103.79 77.4919C88.3722 77.4919 74.9921 71.3862 68.3147 62.4407Z"/>
    </mask>
    <path fill-rule="evenodd" clip-rule="evenodd" d="M68.3147 62.4407C65.3646 64.5116 62.0973 66.3592 58.5593 67.907C38.32 76.7615 16.8883 72.4545 10.6901 58.287C4.49196 44.1195 15.8745 25.4565 36.1138 16.602C55.9214 7.93635 76.8713 11.8768 83.5658 25.3292C89.4996 22.8903 96.4113 21.4919 103.79 21.4919C125.881 21.4919 143.79 34.028 143.79 49.4919C143.79 64.9559 125.881 77.4919 103.79 77.4919C88.3722 77.4919 74.9921 71.3862 68.3147 62.4407Z" fill="white"/>
    <path d="M68.3147 62.4407L71.5202 60.048L69.1963 56.9347L66.0165 59.1668L68.3147 62.4407ZM58.5593 67.907L56.956 64.2424L58.5593 67.907ZM36.1138 16.602L37.717 20.2667L37.717 20.2667L36.1138 16.602ZM83.5658 25.3292L79.9847 27.1113L81.6432 30.444L85.0864 29.0289L83.5658 25.3292ZM66.0165 59.1668C63.2867 61.0831 60.2524 62.8002 56.956 64.2424L60.1625 71.5716C63.9421 69.9181 67.4425 67.9401 70.6129 65.7146L66.0165 59.1668ZM56.956 64.2424C47.4961 68.381 37.9121 69.3691 30.1474 67.8087C22.3676 66.2452 16.7871 62.2435 14.3548 56.6838L7.02547 59.8903C10.7913 68.498 19.0257 73.7335 28.5712 75.6518C38.1317 77.5732 49.3832 76.2875 60.1625 71.5716L56.956 64.2424ZM14.3548 56.6838C11.9224 51.1241 12.771 44.3097 16.9029 37.5349C21.0268 30.7734 28.2571 24.4053 37.717 20.2667L34.5105 12.9374C23.7312 17.6532 15.1506 25.0439 10.073 33.3694C5.00331 41.6816 3.25965 51.2825 7.02547 59.8903L14.3548 56.6838ZM37.717 20.2667C46.9732 16.2172 56.3519 15.1828 64.0288 16.6045C71.7278 18.0303 77.3515 21.82 79.9847 27.1113L87.1469 23.5471C83.0855 15.386 74.8871 10.4793 65.4856 8.73823C56.062 6.99304 45.062 8.32121 34.5105 12.9374L37.717 20.2667ZM85.0864 29.0289C90.5159 26.7973 96.9088 25.4919 103.79 25.4919V17.4919C95.9138 17.4919 88.4832 18.9834 82.0452 21.6295L85.0864 29.0289ZM103.79 25.4919C114.115 25.4919 123.292 28.4281 129.78 32.9699C136.281 37.5205 139.79 43.4235 139.79 49.4919H147.79C147.79 40.0965 142.344 31.9994 134.368 26.416C126.379 20.8238 115.555 17.4919 103.79 17.4919V25.4919ZM139.79 49.4919C139.79 55.5604 136.281 61.4634 129.78 66.014C123.292 70.5558 114.115 73.4919 103.79 73.4919V81.4919C115.555 81.4919 126.379 78.1601 134.368 72.5679C142.344 66.9845 147.79 58.8874 147.79 49.4919H139.79ZM103.79 73.4919C89.2811 73.4919 77.2535 67.7289 71.5202 60.048L65.1092 64.8334C72.7306 75.0436 87.4633 81.4919 103.79 81.4919V73.4919Z" fill="white" mask="url(#path-1-outside-1_47_3)"/>
  </g>
  <g filter="url(#filter1_i_47_3)">
    <ellipse cx="104.322" cy="49.9224" rx="40" ry="28" fill="#FBBF24"/>
  </g>
  <path d="M143.822 49.9224C143.822 57.4464 139.466 64.3093 132.32 69.3117C125.175 74.3131 115.278 77.4224 104.322 77.4224C93.3666 77.4224 83.4695 74.3131 76.3247 69.3117C69.1784 64.3093 64.8223 57.4464 64.8223 49.9224C64.8223 42.3983 69.1784 35.5354 76.3247 30.533C83.4695 25.5316 93.3666 22.4224 104.322 22.4224C115.278 22.4224 125.175 25.5316 132.32 30.533C139.466 35.5354 143.822 42.3983 143.822 49.9224Z" stroke="black"/>
  <path opacity="0.6" d="M71.3809 47.4888C71.773 52.967 76.0867 63.3149 97.2632 66.3583M109.616 66.3583C111.577 66.3583 116.44 66.1149 120.204 65.1409" stroke="white" stroke-width="4" stroke-linecap="round"/>
  <path d="M121.6 45.9159C123.589 47.2571 124.006 48.715 122.851 50.2899C121.696 51.8647 119.405 52.8976 115.977 53.3889C114.338 53.6236 112.666 53.6328 110.961 53.4164C109.256 53.2 107.858 52.7904 106.768 52.1879C102.814 53.0795 99.0995 53.036 95.6239 52.057C92.1483 51.0777 90.0598 49.4866 89.3583 47.2834C87.6284 47.0706 86.1581 46.6511 84.9474 46.025C83.7368 45.399 82.8636 44.6094 82.3279 43.6562C81.468 42.1262 82.1522 40.6933 84.3806 39.3577C86.609 38.0221 89.1946 37.4415 92.1376 37.6161L97.3072 37.9324C97.8637 37.0124 98.8242 36.1905 100.189 35.4665C101.553 34.7425 103.165 34.2202 105.024 33.8995L103.925 31.9431C103.742 31.617 103.801 31.3171 104.104 31.0434C104.406 30.7697 104.88 30.5865 105.526 30.494C106.172 30.4015 106.766 30.4316 107.308 30.5843C107.85 30.737 108.212 30.9764 108.396 31.3024L109.664 33.5599C111.657 33.5724 113.416 33.788 114.939 34.2066C116.463 34.6253 117.943 35.3008 119.38 36.2333L123.701 35.614C124.347 35.5215 124.941 35.5516 125.483 35.7043C126.025 35.857 126.387 36.0964 126.571 36.4224C126.754 36.7485 126.695 37.0484 126.392 37.3221C126.09 37.5958 125.616 37.7789 124.97 37.8715L121.095 38.4267C121.531 39.394 121.523 40.3574 121.069 41.3168C120.615 42.2763 119.759 43.1171 118.501 43.8394L121.6 45.9159ZM103.629 49.4666C103.248 48.7894 102.99 48.1151 102.854 47.4434C102.718 46.7717 102.704 46.1029 102.813 45.4368C101.826 45.8765 100.705 46.247 99.4523 46.5485C98.1994 46.85 96.913 47.0682 95.5932 47.2031C96.143 48.1813 97.1353 48.8725 98.5702 49.2768C100.005 49.681 101.691 49.7443 103.629 49.4666ZM94.6468 44.0864C96.2364 43.8586 97.5834 43.5572 98.6876 43.1822C99.7919 42.8071 101.144 42.1798 102.743 41.3002L92.7437 40.7002C91.134 40.6057 89.908 40.7881 89.0659 41.2475C88.2237 41.707 87.993 42.2753 88.3736 42.9526C88.7401 43.6047 89.4302 44.0208 90.4438 44.2008C91.4575 44.3808 92.8584 44.3427 94.6468 44.0864ZM114.286 50.3788C115.528 50.201 116.41 49.8373 116.934 49.2881C117.457 48.7387 117.386 48.2542 116.721 47.8347L109.821 43.2943C109.329 44.2322 109.047 45.1399 108.976 46.0173C108.906 46.8946 109.054 47.6594 109.421 48.3115C109.886 49.1394 110.527 49.7318 111.345 50.0887C112.163 50.4459 113.143 50.5425 114.286 50.3788ZM114.51 41.3216C114.865 40.9996 115.076 40.6103 115.142 40.1538C115.207 39.6972 115.113 39.2432 114.859 38.7917C114.408 37.989 113.506 37.3865 112.153 36.9842C110.799 36.5818 109.353 36.491 107.813 36.7117C106.918 36.8398 106.116 37.036 105.406 37.3004C104.696 37.5648 104.145 37.8741 103.754 38.2283L110.327 38.75L114.51 41.3216Z" fill="#78350F"/>
  <g filter="url(#filter2_i_47_3)">
    <ellipse cx="47.8692" cy="42.6205" rx="40" ry="28" transform="rotate(-23.629 47.8692 42.6205)" fill="#FBBF24"/>
  </g>
  <path d="M84.0575 26.7884C87.0732 33.6816 85.8331 41.7151 81.2909 49.1625C76.7497 56.6083 68.9287 63.4237 58.8915 67.8149C48.8543 72.2061 38.5408 73.3243 29.9904 71.606C21.4382 69.8873 14.6966 65.3458 11.6808 58.4526C8.66509 51.5593 9.90525 43.5259 14.4474 36.0785C18.9886 28.6327 26.8096 21.8173 36.8468 17.4261C46.884 13.0349 57.1975 11.9166 65.7479 13.635C74.3001 15.3537 81.0417 19.8952 84.0575 26.7884Z" stroke="black"/>
  <path opacity="0.6" d="M16.7139 53.5945C19.2689 58.4563 27.3685 66.2075 47.9894 60.5081M59.3067 55.5569C61.1031 54.771 65.4605 52.5988 68.5192 50.1976" stroke="white" stroke-width="4" stroke-linecap="round"/>
  <path d="M62.0931 32.0247C64.4527 32.4564 65.4187 33.6251 64.9921 35.5307C64.5655 37.4363 62.8806 39.3009 59.937 41.1249C58.5294 41.9969 57.001 42.6756 55.3522 43.1608C53.7033 43.6459 52.2587 43.8309 51.0184 43.7158C47.7533 46.1174 44.3326 47.5665 40.756 48.0626C37.1793 48.5585 34.6282 47.938 33.1024 46.2006C31.4322 46.699 29.9171 46.904 28.557 46.8157C27.1969 46.7273 26.0804 46.3539 25.2076 45.6954C23.8066 44.6383 23.8591 43.0513 25.3653 40.9345C26.8715 38.8177 29.0077 37.2494 31.7739 36.2298L36.6369 34.4475C36.778 33.3816 37.3285 32.2436 38.2883 31.0335C39.2482 29.8233 40.5156 28.6987 42.0907 27.6596L40.2992 26.3079C40.0006 26.0826 39.935 25.784 40.1023 25.412C40.2697 25.04 40.6306 24.6822 41.1852 24.3386C41.7398 23.995 42.2959 23.7845 42.8538 23.7072C43.4116 23.6298 43.8398 23.7037 44.1384 23.929L46.2055 25.4887C48.0365 24.7014 49.7338 24.1941 51.2973 23.967C52.861 23.7398 54.4876 23.7656 56.1776 24.044L59.8885 21.7446C60.4434 21.4008 60.9993 21.1905 61.5574 21.113C62.1151 21.0357 62.5432 21.1097 62.8417 21.335C63.1407 21.5602 63.2061 21.8589 63.0389 22.2308C62.8712 22.6029 62.5103 22.9606 61.9559 23.3042L58.6286 25.3659C59.416 26.0773 59.7942 26.9634 59.7629 28.0243C59.7316 29.0852 59.2847 30.1985 58.4213 31.3646L62.0931 32.0247ZM47.0513 42.481C46.4312 42.0132 45.9243 41.499 45.5306 40.938C45.1368 40.3772 44.8563 39.7698 44.689 39.116C43.9605 39.9146 43.0827 40.7031 42.0556 41.4815C41.0285 42.2599 39.9375 42.9754 38.7824 43.628C39.6782 44.3038 40.8644 44.5393 42.341 44.3346C43.8176 44.1298 45.3877 43.512 47.0513 42.481ZM36.6661 41.1519C38.0312 40.3061 39.1444 39.4901 40.0058 38.7039C40.8672 37.9177 41.8541 36.8012 42.9665 35.3545L33.5654 38.8125C32.0527 39.371 31.0026 40.0295 30.4153 40.788C29.8279 41.5465 29.8443 42.1596 30.4644 42.6276C31.0616 43.0781 31.8606 43.1827 32.8614 42.9413C33.8622 42.6999 35.1304 42.1035 36.6661 41.1519ZM57.1808 39.0451C58.2473 38.3845 58.91 37.6976 59.1693 36.9847C59.4284 36.2717 59.1694 35.8562 58.3917 35.7385L50.251 34.3441C50.1754 35.4009 50.2812 36.3453 50.5683 37.1774C50.8554 38.0095 51.2975 38.6508 51.8947 39.1013C52.6527 39.6733 53.4779 39.9589 54.3704 39.9581C55.2629 39.9575 56.1997 39.6531 57.1808 39.0451ZM53.7556 30.6577C53.9525 30.2201 53.9894 29.779 53.8664 29.3345C53.7433 28.8899 53.4751 28.5117 53.0617 28.1998C52.3267 27.6452 51.2587 27.4548 49.8575 27.6287C48.4564 27.8025 47.0946 28.2991 45.7723 29.1185C45.0044 29.5942 44.3481 30.0955 43.8034 30.6224C43.2587 31.1493 42.878 31.6535 42.6615 32.1348L48.8927 29.9781L53.7556 30.6577Z" fill="#78350F"/>
  <defs>
    <filter id="filter0_di_47_3" x="0.99707" y="7.99976" width="150.793" height="81.4922" filterUnits="userSpaceOnUse" color-interpolation-filters="sRGB">
      <feFlood flood-opacity="0" result="BackgroundImageFix"/>
      <feColorMatrix in="SourceAlpha" type="matrix" values="0 0 0 0 0 0 0 0 0 0 0 0 0 0 0 0 0 0 127 0" result="hardAlpha"/>
      <feOffset dy="4"/>
      <feGaussianBlur stdDeviation="2"/>
      <feComposite in2="hardAlpha" operator="out"/>
      <feColorMatrix type="matrix" values="0 0 0 0 0 0 0 0 0 0 0 0 0 0 0 0 0 0 0.25 0"/>
      <feBlend mode="normal" in2="BackgroundImageFix" result="effect1_dropShadow_47_3"/>
      <feBlend mode="normal" in="SourceGraphic" in2="effect1_dropShadow_47_3" result="shape"/>
      <feColorMatrix in="SourceAlpha" type="matrix" values="0 0 0 0 0 0 0 0 0 0 0 0 0 0 0 0 0 0 127 0" result="hardAlpha"/>
      <feOffset dy="-6"/>
      <feComposite in2="hardAlpha" operator="arithmetic" k2="-1" k3="1"/>
      <feColorMatrix type="matrix" values="0 0 0 0 0 0 0 0 0 0 0 0 0 0 0 0 0 0 0.25 0"/>
      <feBlend mode="normal" in2="shape" result="effect2_innerShadow_47_3"/>
    </filter>
    <filter id="filter1_i_47_3" x="64.3223" y="21.9224" width="80" height="56" filterUnits="userSpaceOnUse" color-interpolation-filters="sRGB">
      <feFlood flood-opacity="0" result="BackgroundImageFix"/>
      <feBlend mode="normal" in="SourceGraphic" in2="BackgroundImageFix" result="shape"/>
      <feColorMatrix in="SourceAlpha" type="matrix" values="0 0 0 0 0 0 0 0 0 0 0 0 0 0 0 0 0 0 127 0" result="hardAlpha"/>
      <feOffset dy="-6"/>
      <feComposite in2="hardAlpha" operator="arithmetic" k2="-1" k3="1"/>
      <feColorMatrix type="matrix" values="0 0 0 0 0 0 0 0 0 0 0 0 0 0 0 0 0 0 0.25 0"/>
      <feBlend mode="normal" in2="shape" result="effect1_innerShadow_47_3"/>
    </filter>
    <filter id="filter2_i_47_3" x="9.53223" y="12.366" width="76.6738" height="60.509" filterUnits="userSpaceOnUse" color-interpolation-filters="sRGB">
      <feFlood flood-opacity="0" result="BackgroundImageFix"/>
      <feBlend mode="normal" in="SourceGraphic" in2="BackgroundImageFix" result="shape"/>
      <feColorMatrix in="SourceAlpha" type="matrix" values="0 0 0 0 0 0 0 0 0 0 0 0 0 0 0 0 0 0 127 0" result="hardAlpha"/>
      <feOffset dy="-6"/>
      <feComposite in2="hardAlpha" operator="arithmetic" k2="-1" k3="1"/>
      <feColorMatrix type="matrix" values="0 0 0 0 0 0 0 0 0 0 0 0 0 0 0 0 0 0 0.25 0"/>
      <feBlend mode="normal" in2="shape" result="effect1_innerShadow_47_3"/>
    </filter>
  </defs>
</svg>
