<svg width="472" height="59" viewBox="0 0 472 59" fill="none" xmlns="http://www.w3.org/2000/svg">
  <mask id="path-1-outside-1_30265_17305" maskUnits="userSpaceOnUse" x="0" y="0" width="472" height="59" fill="black">
    <rect fill="white" width="472" height="59"/>
    <path d="M23.927 47.872C19.7457 47.872 15.991 47.04 12.663 45.376C9.37767 43.6693 6.775 41.152 4.855 37.824C2.935 34.4533 1.975 30.336 1.975 25.472C1.975 21.5467 2.871 17.8773 4.663 14.464C6.455 11.0507 8.92967 8.32 12.087 6.272C15.2443 4.224 18.7857 3.2 22.711 3.2C26.423 3.2 29.7297 3.904 32.631 5.312C35.5323 6.67733 37.7723 8.55466 39.351 10.944C40.9723 13.3333 41.783 16 41.783 18.944C41.783 20.8213 41.2283 22.4427 40.119 23.808C39.0523 25.1733 37.5163 25.856 35.511 25.856C34.0177 25.856 32.8657 25.6 32.055 25.088C31.2443 24.576 30.391 23.7867 29.495 22.72C28.599 21.6533 27.7243 20.864 26.871 20.352C26.0603 19.7973 24.8657 19.52 23.287 19.52C21.2817 19.52 19.5537 20.288 18.103 21.824C16.695 23.3173 15.991 25.152 15.991 27.328C15.991 29.6747 16.5883 31.6587 17.783 33.28C19.0203 34.8587 20.6843 35.648 22.775 35.648C24.3963 35.648 25.6763 35.4133 26.615 34.944C27.5963 34.4747 28.6203 33.792 29.687 32.896C30.583 32.128 31.3937 31.552 32.119 31.168C32.887 30.784 33.8257 30.592 34.935 30.592C36.6417 30.592 37.9857 31.1253 38.967 32.192C39.9483 33.216 40.439 34.56 40.439 36.224C40.439 38.1867 39.7137 40.064 38.263 41.856C36.855 43.648 34.8923 45.0987 32.375 46.208C29.8577 47.3173 27.0417 47.872 23.927 47.872ZM51.405 48C49.3143 48 47.7143 47.1893 46.605 45.568C45.4957 43.9467 44.7277 41.4507 44.301 38.08C43.917 34.7093 43.725 30.0373 43.725 24.064C43.725 19.072 43.853 15.168 44.109 12.352C44.4077 9.536 45.069 7.31733 46.093 5.696C47.117 4.032 48.717 3.2 50.893 3.2C52.7703 3.2 54.1783 3.79733 55.117 4.992C56.0557 6.18666 56.653 7.68 56.909 9.472C57.165 11.264 57.293 13.504 57.293 16.192V19.072C58.1463 18.6453 58.893 18.3467 59.533 18.176C60.2157 18.0053 61.2183 17.92 62.541 17.92C65.4423 17.92 67.9383 18.6667 70.029 20.16C72.1197 21.6107 73.6983 23.5733 74.765 26.048C75.8743 28.5227 76.429 31.2747 76.429 34.304C76.429 38.2293 76.0023 41.472 75.149 44.032C74.3383 46.5493 72.717 47.808 70.285 47.808C68.5783 47.808 67.2983 47.424 66.445 46.656C65.6343 45.888 65.101 44.8427 64.845 43.52C64.6317 42.1973 64.525 40.384 64.525 38.08C64.525 35.5627 64.2477 33.6213 63.693 32.256C63.181 30.8907 62.2637 30.208 60.941 30.208C59.6183 30.208 58.6583 30.912 58.061 32.32C57.5063 33.6853 57.2077 35.6053 57.165 38.08C57.1223 40.384 56.973 42.2187 56.717 43.584C56.5037 44.9493 55.9703 46.0373 55.117 46.848C54.3063 47.616 53.069 48 51.405 48ZM94.35 48.064C91.278 48.1067 88.526 47.4667 86.094 46.144C83.7047 44.8213 81.8273 43.008 80.462 40.704C79.1393 38.3573 78.4353 35.7547 78.35 32.896C78.3073 30.0373 78.9687 27.4773 80.334 25.216C81.6993 22.9547 83.598 21.1627 86.03 19.84C88.5047 18.5173 91.278 17.856 94.35 17.856C97.3367 17.856 100.025 18.496 102.414 19.776C104.846 21.056 106.766 22.848 108.174 25.152C109.582 27.456 110.329 30.0373 110.414 32.896C110.457 35.6693 109.795 38.208 108.43 40.512C107.065 42.7733 105.145 44.5867 102.67 45.952C100.238 47.3173 97.4647 48.0213 94.35 48.064ZM94.542 38.72C95.694 38.72 96.6967 38.272 97.55 37.376C98.4033 36.48 98.83 35.4347 98.83 34.24C98.83 33.0453 98.4033 32.0213 97.55 31.168C96.6967 30.272 95.694 29.824 94.542 29.824C93.39 29.824 92.3873 30.272 91.534 31.168C90.6807 32.0213 90.254 33.0453 90.254 34.24C90.254 35.4347 90.6807 36.48 91.534 37.376C92.3873 38.272 93.39 38.72 94.542 38.72ZM128.35 48.064C125.278 48.1067 122.526 47.4667 120.094 46.144C117.705 44.8213 115.827 43.008 114.462 40.704C113.139 38.3573 112.435 35.7547 112.35 32.896C112.307 30.0373 112.969 27.4773 114.334 25.216C115.699 22.9547 117.598 21.1627 120.03 19.84C122.505 18.5173 125.278 17.856 128.35 17.856C131.337 17.856 134.025 18.496 136.414 19.776C138.846 21.056 140.766 22.848 142.174 25.152C143.582 27.456 144.329 30.0373 144.414 32.896C144.457 35.6693 143.795 38.208 142.43 40.512C141.065 42.7733 139.145 44.5867 136.67 45.952C134.238 47.3173 131.465 48.0213 128.35 48.064ZM128.542 38.72C129.694 38.72 130.697 38.272 131.55 37.376C132.403 36.48 132.83 35.4347 132.83 34.24C132.83 33.0453 132.403 32.0213 131.55 31.168C130.697 30.272 129.694 29.824 128.542 29.824C127.39 29.824 126.387 30.272 125.534 31.168C124.681 32.0213 124.254 33.0453 124.254 34.24C124.254 35.4347 124.681 36.48 125.534 37.376C126.387 38.272 127.39 38.72 128.542 38.72ZM158.638 48C154.883 48 151.897 47.3813 149.678 46.144C147.459 44.9067 146.35 43.3067 146.35 41.344C146.35 40.064 146.777 39.0827 147.63 38.4C148.526 37.6747 149.657 37.312 151.022 37.312C151.79 37.312 152.409 37.4187 152.878 37.632C153.347 37.8453 153.817 38.144 154.286 38.528C154.627 38.8267 154.905 39.04 155.118 39.168C155.374 39.296 155.673 39.36 156.014 39.36C156.91 39.36 157.358 39.04 157.358 38.4C157.358 37.8027 157.123 37.3547 156.654 37.056C156.185 36.7147 155.374 36.3093 154.222 35.84C153.155 35.4133 152.451 35.1147 152.11 34.944C150.147 34.0053 148.697 32.896 147.758 31.616C146.819 30.336 146.35 28.9707 146.35 27.52C146.35 25.8987 146.926 24.3627 148.078 22.912C149.273 21.4187 150.937 20.224 153.07 19.328C155.246 18.3893 157.742 17.92 160.558 17.92C162.99 17.92 165.187 18.2613 167.15 18.944C169.155 19.6267 170.734 20.5653 171.886 21.76C173.038 22.912 173.614 24.192 173.614 25.6C173.614 26.9227 173.187 27.9253 172.334 28.608C171.523 29.2907 170.414 29.632 169.006 29.632C168.451 29.632 168.003 29.5893 167.662 29.504C167.363 29.376 166.958 29.184 166.446 28.928C166.147 28.7573 165.827 28.608 165.486 28.48C165.187 28.352 164.846 28.288 164.462 28.288C164.121 28.288 163.822 28.416 163.566 28.672C163.31 28.8853 163.182 29.1627 163.182 29.504C163.182 30.144 163.651 30.6133 164.59 30.912C167.065 31.7227 169.049 32.7467 170.542 33.984C172.078 35.2213 172.846 36.928 172.846 39.104C172.846 41.8773 171.545 44.0533 168.942 45.632C166.382 47.2107 162.947 48 158.638 48ZM191.602 48C188.444 48 185.65 47.3813 183.218 46.144C180.786 44.9067 178.887 43.1787 177.522 40.96C176.199 38.6987 175.538 36.16 175.538 33.344C175.538 30.5707 176.199 28.0107 177.522 25.664C178.887 23.3173 180.764 21.44 183.154 20.032C185.543 18.624 188.252 17.92 191.282 17.92C194.012 17.92 196.423 18.4747 198.514 19.584C200.604 20.6933 202.204 22.1653 203.314 24C204.423 25.792 204.978 27.6693 204.978 29.632C204.978 32.832 203.762 35.1787 201.33 36.672C198.94 38.1227 196.082 38.848 192.753 38.848C190.535 38.848 188.658 38.5707 187.122 38.016C188.402 40.1067 190.514 41.152 193.458 41.152C194.652 41.152 195.932 41.0027 197.298 40.704C197.81 40.576 198.3 40.512 198.77 40.512C199.708 40.512 200.455 40.7467 201.01 41.216C201.607 41.6853 201.906 42.3253 201.906 43.136C201.906 44.4587 201.095 45.6107 199.474 46.592C197.852 47.5307 195.228 48 191.602 48ZM187.314 30.208C187.698 30.8053 188.21 31.2533 188.85 31.552C189.532 31.808 190.279 31.936 191.09 31.936C192.028 31.936 192.839 31.7227 193.522 31.296C194.247 30.8693 194.61 30.3147 194.61 29.632C194.61 28.864 194.29 28.2027 193.65 27.648C193.052 27.0933 192.178 26.816 191.026 26.816C189.874 26.816 188.956 27.1787 188.274 27.904C187.634 28.5867 187.314 29.3547 187.314 30.208ZM238.038 57.472C235.734 57.472 233.814 57.024 232.278 56.128C230.742 55.232 229.974 53.9093 229.974 52.16C229.974 50.752 230.635 49.6427 231.958 48.832C233.281 48.0213 234.838 47.6587 236.63 47.744C238.507 47.8293 239.958 47.744 240.982 47.488C242.049 47.232 242.859 46.7627 243.414 46.08C239.489 46.08 236.353 45.5253 234.006 44.416C231.659 43.264 229.953 41.4933 228.886 39.104C227.862 36.672 227.35 33.472 227.35 29.504C227.35 26.0907 227.862 23.3387 228.886 21.248C229.953 19.1147 231.617 18.048 233.878 18.048C235.883 18.048 237.355 18.624 238.294 19.776C239.275 20.8853 239.766 22.336 239.766 24.128L239.702 26.944C239.659 27.4987 239.638 28.3093 239.638 29.376C239.638 31.424 239.894 32.9813 240.406 34.048C240.918 35.072 241.942 35.584 243.478 35.584C245.014 35.584 246.038 35.072 246.55 34.048C247.062 32.9813 247.318 31.4453 247.318 29.44C247.318 28.3733 247.297 27.5627 247.254 27.008L247.19 24.256C247.19 22.336 247.659 20.8213 248.598 19.712C249.579 18.6027 251.073 18.048 253.078 18.048C255.339 18.048 257.003 19.1147 258.07 21.248C259.137 23.3813 259.67 26.1333 259.67 29.504C259.67 34.5387 258.945 39.168 257.494 43.392C256.086 47.5733 253.761 50.9653 250.518 53.568C247.318 56.1707 243.158 57.472 238.038 57.472ZM277.6 48.064C274.528 48.1067 271.776 47.4667 269.344 46.144C266.955 44.8213 265.077 43.008 263.712 40.704C262.389 38.3573 261.685 35.7547 261.6 32.896C261.557 30.0373 262.219 27.4773 263.584 25.216C264.949 22.9547 266.848 21.1627 269.28 19.84C271.755 18.5173 274.528 17.856 277.6 17.856C280.587 17.856 283.275 18.496 285.664 19.776C288.096 21.056 290.016 22.848 291.424 25.152C292.832 27.456 293.579 30.0373 293.664 32.896C293.707 35.6693 293.045 38.208 291.68 40.512C290.315 42.7733 288.395 44.5867 285.92 45.952C283.488 47.3173 280.715 48.0213 277.6 48.064ZM277.792 38.72C278.944 38.72 279.947 38.272 280.8 37.376C281.653 36.48 282.08 35.4347 282.08 34.24C282.08 33.0453 281.653 32.0213 280.8 31.168C279.947 30.272 278.944 29.824 277.792 29.824C276.64 29.824 275.637 30.272 274.784 31.168C273.931 32.0213 273.504 33.0453 273.504 34.24C273.504 35.4347 273.931 36.48 274.784 37.376C275.637 38.272 276.64 38.72 277.792 38.72ZM311.088 48C307.973 48 305.243 47.232 302.896 45.696C300.549 44.1173 298.736 41.9413 297.456 39.168C296.219 36.352 295.6 33.1093 295.6 29.44C295.6 25.856 296.176 23.04 297.328 20.992C298.48 18.944 300.08 17.92 302.128 17.92C305.755 17.92 307.568 19.776 307.568 23.488C307.568 24.256 307.547 24.9387 307.504 25.536C307.461 26.0907 307.419 26.5813 307.376 27.008C307.205 28.7147 307.12 30.08 307.12 31.104C307.12 32.9813 307.504 34.4107 308.272 35.392C309.04 36.3733 309.979 36.864 311.088 36.864C312.24 36.864 313.179 36.3947 313.904 35.456C314.672 34.4747 315.056 33.024 315.056 31.104C315.056 29.7387 314.992 28.48 314.864 27.328C314.821 26.944 314.779 26.3893 314.736 25.664C314.693 24.896 314.672 24.192 314.672 23.552C314.672 19.7973 316.485 17.92 320.112 17.92C322.16 17.92 323.739 18.944 324.848 20.992C326 22.9973 326.576 25.8133 326.576 29.44C326.576 35.1147 325.253 39.6373 322.608 43.008C319.963 46.336 316.123 48 311.088 48ZM335.573 48C332.842 48 331.008 46.4 330.069 43.2C329.173 40 328.725 35.584 328.725 29.952C328.725 27.392 328.832 25.2587 329.045 23.552C329.301 21.8027 329.877 20.3307 330.773 19.136C331.712 17.8987 333.141 17.28 335.061 17.28C336.256 17.28 337.301 17.5573 338.197 18.112C339.136 18.6667 339.733 19.456 339.989 20.48C340.928 19.6267 342.144 18.9867 343.637 18.56C345.13 18.1333 346.73 17.92 348.437 17.92C349.802 17.92 351.189 18.2613 352.597 18.944C354.048 19.6267 355.242 20.5653 356.181 21.76C357.162 22.912 357.653 24.1707 357.653 25.536C357.653 26.9013 357.162 28.1173 356.181 29.184C355.242 30.208 353.984 30.72 352.405 30.72C351.893 30.72 351.402 30.656 350.933 30.528C350.506 30.4 350.122 30.272 349.781 30.144C348.928 29.8027 348.245 29.632 347.733 29.632C346.069 29.632 344.597 30.2933 343.317 31.616C342.08 32.896 341.461 34.56 341.461 36.608C341.461 38.8693 341.376 40.7467 341.205 42.24C341.034 43.7333 340.522 45.0773 339.669 46.272C338.816 47.424 337.45 48 335.573 48ZM386.566 57.152C384.475 57.152 382.96 56.0853 382.022 53.952C381.083 51.8613 380.507 49.472 380.294 46.784C380.123 44.096 380.038 40.5547 380.038 36.16C380.038 32.7893 380.166 29.824 380.422 27.264C380.72 24.704 381.382 22.4853 382.406 20.608C383.43 18.7307 384.987 17.792 387.078 17.792C389.254 17.792 390.832 18.6453 391.814 20.352C392.795 19.6267 394.011 19.0507 395.462 18.624C396.955 18.1547 398.512 17.92 400.134 17.92C402.864 17.92 405.382 18.6027 407.686 19.968C409.99 21.3333 411.824 23.168 413.19 25.472C414.555 27.776 415.238 30.2933 415.238 33.024C415.238 35.7547 414.555 38.2933 413.19 40.64C411.824 42.944 409.99 44.7787 407.686 46.144C405.382 47.5093 402.864 48.192 400.134 48.192C398.47 48.192 396.912 47.9787 395.462 47.552C394.011 47.0827 392.774 46.464 391.75 45.696C391.75 48.4267 391.664 50.5387 391.494 52.032C391.323 53.5253 390.854 54.7413 390.086 55.68C389.36 56.6613 388.187 57.152 386.566 57.152ZM399.814 37.568C400.923 37.568 401.883 37.1627 402.694 36.352C403.547 35.4987 403.974 34.5173 403.974 33.408C403.974 32.2987 403.547 31.3387 402.694 30.528C401.883 29.6747 400.923 29.248 399.814 29.248C398.704 29.248 397.723 29.6747 396.87 30.528C396.059 31.3387 395.654 32.2987 395.654 33.408C395.654 34.5173 396.059 35.4987 396.87 36.352C397.723 37.1627 398.704 37.568 399.814 37.568ZM425.901 16.96C423.81 16.96 422.039 16.2133 420.589 14.72C419.138 13.184 418.413 11.328 418.413 9.152C418.413 7.01867 419.138 5.20533 420.589 3.712C422.039 2.176 423.81 1.408 425.901 1.408C427.949 1.408 429.698 2.176 431.149 3.712C432.642 5.20533 433.389 7.01867 433.389 9.152C433.389 11.328 432.642 13.184 431.149 14.72C429.698 16.2133 427.949 16.96 425.901 16.96ZM425.901 48C424.151 48 422.85 47.5093 421.997 46.528C421.186 45.504 420.631 43.9893 420.333 41.984C420.077 39.936 419.949 37.0347 419.949 33.28C419.949 30.1227 420.098 27.6267 420.397 25.792C420.738 23.9573 421.335 22.592 422.189 21.696C423.042 20.8 424.279 20.352 425.901 20.352C427.65 20.352 428.93 20.864 429.741 21.888C430.594 22.8693 431.149 24.384 431.405 26.432C431.703 28.4373 431.853 31.3173 431.853 35.072C431.853 38.2293 431.682 40.7253 431.341 42.56C431.042 44.3947 430.466 45.76 429.613 46.656C428.759 47.552 427.522 48 425.901 48ZM444.088 47.872C441.955 47.872 440.355 47.0827 439.288 45.504C438.221 43.9253 437.496 41.6 437.112 38.528C436.771 35.4133 436.6 31.0827 436.6 25.536C436.6 20.2027 436.728 16.0427 436.984 13.056C437.283 10.0693 437.965 7.68 439.032 5.888C440.141 4.096 441.848 3.2 444.152 3.2C446.456 3.2 448.141 4.096 449.208 5.888C450.317 7.68 451 10.0693 451.256 13.056C451.555 16.0427 451.704 20.2027 451.704 25.536C451.704 30.784 451.469 35.0293 451 38.272C450.573 41.472 449.805 43.8827 448.696 45.504C447.587 47.0827 446.051 47.872 444.088 47.872ZM462.401 47.872C460.267 47.872 458.667 47.0827 457.601 45.504C456.534 43.9253 455.809 41.6 455.424 38.528C455.083 35.4133 454.913 31.0827 454.913 25.536C454.913 20.2027 455.041 16.0427 455.297 13.056C455.595 10.0693 456.278 7.68 457.345 5.888C458.454 4.096 460.161 3.2 462.465 3.2C464.769 3.2 466.454 4.096 467.521 5.888C468.63 7.68 469.313 10.0693 469.569 13.056C469.867 16.0427 470.017 20.2027 470.017 25.536C470.017 30.784 469.782 35.0293 469.312 38.272C468.886 41.472 468.118 43.8827 467.009 45.504C465.899 47.0827 464.363 47.872 462.401 47.872Z"/>
  </mask>
  <path d="M23.927 47.872C19.7457 47.872 15.991 47.04 12.663 45.376C9.37767 43.6693 6.775 41.152 4.855 37.824C2.935 34.4533 1.975 30.336 1.975 25.472C1.975 21.5467 2.871 17.8773 4.663 14.464C6.455 11.0507 8.92967 8.32 12.087 6.272C15.2443 4.224 18.7857 3.2 22.711 3.2C26.423 3.2 29.7297 3.904 32.631 5.312C35.5323 6.67733 37.7723 8.55466 39.351 10.944C40.9723 13.3333 41.783 16 41.783 18.944C41.783 20.8213 41.2283 22.4427 40.119 23.808C39.0523 25.1733 37.5163 25.856 35.511 25.856C34.0177 25.856 32.8657 25.6 32.055 25.088C31.2443 24.576 30.391 23.7867 29.495 22.72C28.599 21.6533 27.7243 20.864 26.871 20.352C26.0603 19.7973 24.8657 19.52 23.287 19.52C21.2817 19.52 19.5537 20.288 18.103 21.824C16.695 23.3173 15.991 25.152 15.991 27.328C15.991 29.6747 16.5883 31.6587 17.783 33.28C19.0203 34.8587 20.6843 35.648 22.775 35.648C24.3963 35.648 25.6763 35.4133 26.615 34.944C27.5963 34.4747 28.6203 33.792 29.687 32.896C30.583 32.128 31.3937 31.552 32.119 31.168C32.887 30.784 33.8257 30.592 34.935 30.592C36.6417 30.592 37.9857 31.1253 38.967 32.192C39.9483 33.216 40.439 34.56 40.439 36.224C40.439 38.1867 39.7137 40.064 38.263 41.856C36.855 43.648 34.8923 45.0987 32.375 46.208C29.8577 47.3173 27.0417 47.872 23.927 47.872ZM51.405 48C49.3143 48 47.7143 47.1893 46.605 45.568C45.4957 43.9467 44.7277 41.4507 44.301 38.08C43.917 34.7093 43.725 30.0373 43.725 24.064C43.725 19.072 43.853 15.168 44.109 12.352C44.4077 9.536 45.069 7.31733 46.093 5.696C47.117 4.032 48.717 3.2 50.893 3.2C52.7703 3.2 54.1783 3.79733 55.117 4.992C56.0557 6.18666 56.653 7.68 56.909 9.472C57.165 11.264 57.293 13.504 57.293 16.192V19.072C58.1463 18.6453 58.893 18.3467 59.533 18.176C60.2157 18.0053 61.2183 17.92 62.541 17.92C65.4423 17.92 67.9383 18.6667 70.029 20.16C72.1197 21.6107 73.6983 23.5733 74.765 26.048C75.8743 28.5227 76.429 31.2747 76.429 34.304C76.429 38.2293 76.0023 41.472 75.149 44.032C74.3383 46.5493 72.717 47.808 70.285 47.808C68.5783 47.808 67.2983 47.424 66.445 46.656C65.6343 45.888 65.101 44.8427 64.845 43.52C64.6317 42.1973 64.525 40.384 64.525 38.08C64.525 35.5627 64.2477 33.6213 63.693 32.256C63.181 30.8907 62.2637 30.208 60.941 30.208C59.6183 30.208 58.6583 30.912 58.061 32.32C57.5063 33.6853 57.2077 35.6053 57.165 38.08C57.1223 40.384 56.973 42.2187 56.717 43.584C56.5037 44.9493 55.9703 46.0373 55.117 46.848C54.3063 47.616 53.069 48 51.405 48ZM94.35 48.064C91.278 48.1067 88.526 47.4667 86.094 46.144C83.7047 44.8213 81.8273 43.008 80.462 40.704C79.1393 38.3573 78.4353 35.7547 78.35 32.896C78.3073 30.0373 78.9687 27.4773 80.334 25.216C81.6993 22.9547 83.598 21.1627 86.03 19.84C88.5047 18.5173 91.278 17.856 94.35 17.856C97.3367 17.856 100.025 18.496 102.414 19.776C104.846 21.056 106.766 22.848 108.174 25.152C109.582 27.456 110.329 30.0373 110.414 32.896C110.457 35.6693 109.795 38.208 108.43 40.512C107.065 42.7733 105.145 44.5867 102.67 45.952C100.238 47.3173 97.4647 48.0213 94.35 48.064ZM94.542 38.72C95.694 38.72 96.6967 38.272 97.55 37.376C98.4033 36.48 98.83 35.4347 98.83 34.24C98.83 33.0453 98.4033 32.0213 97.55 31.168C96.6967 30.272 95.694 29.824 94.542 29.824C93.39 29.824 92.3873 30.272 91.534 31.168C90.6807 32.0213 90.254 33.0453 90.254 34.24C90.254 35.4347 90.6807 36.48 91.534 37.376C92.3873 38.272 93.39 38.72 94.542 38.72ZM128.35 48.064C125.278 48.1067 122.526 47.4667 120.094 46.144C117.705 44.8213 115.827 43.008 114.462 40.704C113.139 38.3573 112.435 35.7547 112.35 32.896C112.307 30.0373 112.969 27.4773 114.334 25.216C115.699 22.9547 117.598 21.1627 120.03 19.84C122.505 18.5173 125.278 17.856 128.35 17.856C131.337 17.856 134.025 18.496 136.414 19.776C138.846 21.056 140.766 22.848 142.174 25.152C143.582 27.456 144.329 30.0373 144.414 32.896C144.457 35.6693 143.795 38.208 142.43 40.512C141.065 42.7733 139.145 44.5867 136.67 45.952C134.238 47.3173 131.465 48.0213 128.35 48.064ZM128.542 38.72C129.694 38.72 130.697 38.272 131.55 37.376C132.403 36.48 132.83 35.4347 132.83 34.24C132.83 33.0453 132.403 32.0213 131.55 31.168C130.697 30.272 129.694 29.824 128.542 29.824C127.39 29.824 126.387 30.272 125.534 31.168C124.681 32.0213 124.254 33.0453 124.254 34.24C124.254 35.4347 124.681 36.48 125.534 37.376C126.387 38.272 127.39 38.72 128.542 38.72ZM158.638 48C154.883 48 151.897 47.3813 149.678 46.144C147.459 44.9067 146.35 43.3067 146.35 41.344C146.35 40.064 146.777 39.0827 147.63 38.4C148.526 37.6747 149.657 37.312 151.022 37.312C151.79 37.312 152.409 37.4187 152.878 37.632C153.347 37.8453 153.817 38.144 154.286 38.528C154.627 38.8267 154.905 39.04 155.118 39.168C155.374 39.296 155.673 39.36 156.014 39.36C156.91 39.36 157.358 39.04 157.358 38.4C157.358 37.8027 157.123 37.3547 156.654 37.056C156.185 36.7147 155.374 36.3093 154.222 35.84C153.155 35.4133 152.451 35.1147 152.11 34.944C150.147 34.0053 148.697 32.896 147.758 31.616C146.819 30.336 146.35 28.9707 146.35 27.52C146.35 25.8987 146.926 24.3627 148.078 22.912C149.273 21.4187 150.937 20.224 153.07 19.328C155.246 18.3893 157.742 17.92 160.558 17.92C162.99 17.92 165.187 18.2613 167.15 18.944C169.155 19.6267 170.734 20.5653 171.886 21.76C173.038 22.912 173.614 24.192 173.614 25.6C173.614 26.9227 173.187 27.9253 172.334 28.608C171.523 29.2907 170.414 29.632 169.006 29.632C168.451 29.632 168.003 29.5893 167.662 29.504C167.363 29.376 166.958 29.184 166.446 28.928C166.147 28.7573 165.827 28.608 165.486 28.48C165.187 28.352 164.846 28.288 164.462 28.288C164.121 28.288 163.822 28.416 163.566 28.672C163.31 28.8853 163.182 29.1627 163.182 29.504C163.182 30.144 163.651 30.6133 164.59 30.912C167.065 31.7227 169.049 32.7467 170.542 33.984C172.078 35.2213 172.846 36.928 172.846 39.104C172.846 41.8773 171.545 44.0533 168.942 45.632C166.382 47.2107 162.947 48 158.638 48ZM191.602 48C188.444 48 185.65 47.3813 183.218 46.144C180.786 44.9067 178.887 43.1787 177.522 40.96C176.199 38.6987 175.538 36.16 175.538 33.344C175.538 30.5707 176.199 28.0107 177.522 25.664C178.887 23.3173 180.764 21.44 183.154 20.032C185.543 18.624 188.252 17.92 191.282 17.92C194.012 17.92 196.423 18.4747 198.514 19.584C200.604 20.6933 202.204 22.1653 203.314 24C204.423 25.792 204.978 27.6693 204.978 29.632C204.978 32.832 203.762 35.1787 201.33 36.672C198.94 38.1227 196.082 38.848 192.753 38.848C190.535 38.848 188.658 38.5707 187.122 38.016C188.402 40.1067 190.514 41.152 193.458 41.152C194.652 41.152 195.932 41.0027 197.298 40.704C197.81 40.576 198.3 40.512 198.77 40.512C199.708 40.512 200.455 40.7467 201.01 41.216C201.607 41.6853 201.906 42.3253 201.906 43.136C201.906 44.4587 201.095 45.6107 199.474 46.592C197.852 47.5307 195.228 48 191.602 48ZM187.314 30.208C187.698 30.8053 188.21 31.2533 188.85 31.552C189.532 31.808 190.279 31.936 191.09 31.936C192.028 31.936 192.839 31.7227 193.522 31.296C194.247 30.8693 194.61 30.3147 194.61 29.632C194.61 28.864 194.29 28.2027 193.65 27.648C193.052 27.0933 192.178 26.816 191.026 26.816C189.874 26.816 188.956 27.1787 188.274 27.904C187.634 28.5867 187.314 29.3547 187.314 30.208ZM238.038 57.472C235.734 57.472 233.814 57.024 232.278 56.128C230.742 55.232 229.974 53.9093 229.974 52.16C229.974 50.752 230.635 49.6427 231.958 48.832C233.281 48.0213 234.838 47.6587 236.63 47.744C238.507 47.8293 239.958 47.744 240.982 47.488C242.049 47.232 242.859 46.7627 243.414 46.08C239.489 46.08 236.353 45.5253 234.006 44.416C231.659 43.264 229.953 41.4933 228.886 39.104C227.862 36.672 227.35 33.472 227.35 29.504C227.35 26.0907 227.862 23.3387 228.886 21.248C229.953 19.1147 231.617 18.048 233.878 18.048C235.883 18.048 237.355 18.624 238.294 19.776C239.275 20.8853 239.766 22.336 239.766 24.128L239.702 26.944C239.659 27.4987 239.638 28.3093 239.638 29.376C239.638 31.424 239.894 32.9813 240.406 34.048C240.918 35.072 241.942 35.584 243.478 35.584C245.014 35.584 246.038 35.072 246.55 34.048C247.062 32.9813 247.318 31.4453 247.318 29.44C247.318 28.3733 247.297 27.5627 247.254 27.008L247.19 24.256C247.19 22.336 247.659 20.8213 248.598 19.712C249.579 18.6027 251.073 18.048 253.078 18.048C255.339 18.048 257.003 19.1147 258.07 21.248C259.137 23.3813 259.67 26.1333 259.67 29.504C259.67 34.5387 258.945 39.168 257.494 43.392C256.086 47.5733 253.761 50.9653 250.518 53.568C247.318 56.1707 243.158 57.472 238.038 57.472ZM277.6 48.064C274.528 48.1067 271.776 47.4667 269.344 46.144C266.955 44.8213 265.077 43.008 263.712 40.704C262.389 38.3573 261.685 35.7547 261.6 32.896C261.557 30.0373 262.219 27.4773 263.584 25.216C264.949 22.9547 266.848 21.1627 269.28 19.84C271.755 18.5173 274.528 17.856 277.6 17.856C280.587 17.856 283.275 18.496 285.664 19.776C288.096 21.056 290.016 22.848 291.424 25.152C292.832 27.456 293.579 30.0373 293.664 32.896C293.707 35.6693 293.045 38.208 291.68 40.512C290.315 42.7733 288.395 44.5867 285.92 45.952C283.488 47.3173 280.715 48.0213 277.6 48.064ZM277.792 38.72C278.944 38.72 279.947 38.272 280.8 37.376C281.653 36.48 282.08 35.4347 282.08 34.24C282.08 33.0453 281.653 32.0213 280.8 31.168C279.947 30.272 278.944 29.824 277.792 29.824C276.64 29.824 275.637 30.272 274.784 31.168C273.931 32.0213 273.504 33.0453 273.504 34.24C273.504 35.4347 273.931 36.48 274.784 37.376C275.637 38.272 276.64 38.72 277.792 38.72ZM311.088 48C307.973 48 305.243 47.232 302.896 45.696C300.549 44.1173 298.736 41.9413 297.456 39.168C296.219 36.352 295.6 33.1093 295.6 29.44C295.6 25.856 296.176 23.04 297.328 20.992C298.48 18.944 300.08 17.92 302.128 17.92C305.755 17.92 307.568 19.776 307.568 23.488C307.568 24.256 307.547 24.9387 307.504 25.536C307.461 26.0907 307.419 26.5813 307.376 27.008C307.205 28.7147 307.12 30.08 307.12 31.104C307.12 32.9813 307.504 34.4107 308.272 35.392C309.04 36.3733 309.979 36.864 311.088 36.864C312.24 36.864 313.179 36.3947 313.904 35.456C314.672 34.4747 315.056 33.024 315.056 31.104C315.056 29.7387 314.992 28.48 314.864 27.328C314.821 26.944 314.779 26.3893 314.736 25.664C314.693 24.896 314.672 24.192 314.672 23.552C314.672 19.7973 316.485 17.92 320.112 17.92C322.16 17.92 323.739 18.944 324.848 20.992C326 22.9973 326.576 25.8133 326.576 29.44C326.576 35.1147 325.253 39.6373 322.608 43.008C319.963 46.336 316.123 48 311.088 48ZM335.573 48C332.842 48 331.008 46.4 330.069 43.2C329.173 40 328.725 35.584 328.725 29.952C328.725 27.392 328.832 25.2587 329.045 23.552C329.301 21.8027 329.877 20.3307 330.773 19.136C331.712 17.8987 333.141 17.28 335.061 17.28C336.256 17.28 337.301 17.5573 338.197 18.112C339.136 18.6667 339.733 19.456 339.989 20.48C340.928 19.6267 342.144 18.9867 343.637 18.56C345.13 18.1333 346.73 17.92 348.437 17.92C349.802 17.92 351.189 18.2613 352.597 18.944C354.048 19.6267 355.242 20.5653 356.181 21.76C357.162 22.912 357.653 24.1707 357.653 25.536C357.653 26.9013 357.162 28.1173 356.181 29.184C355.242 30.208 353.984 30.72 352.405 30.72C351.893 30.72 351.402 30.656 350.933 30.528C350.506 30.4 350.122 30.272 349.781 30.144C348.928 29.8027 348.245 29.632 347.733 29.632C346.069 29.632 344.597 30.2933 343.317 31.616C342.08 32.896 341.461 34.56 341.461 36.608C341.461 38.8693 341.376 40.7467 341.205 42.24C341.034 43.7333 340.522 45.0773 339.669 46.272C338.816 47.424 337.45 48 335.573 48ZM386.566 57.152C384.475 57.152 382.96 56.0853 382.022 53.952C381.083 51.8613 380.507 49.472 380.294 46.784C380.123 44.096 380.038 40.5547 380.038 36.16C380.038 32.7893 380.166 29.824 380.422 27.264C380.72 24.704 381.382 22.4853 382.406 20.608C383.43 18.7307 384.987 17.792 387.078 17.792C389.254 17.792 390.832 18.6453 391.814 20.352C392.795 19.6267 394.011 19.0507 395.462 18.624C396.955 18.1547 398.512 17.92 400.134 17.92C402.864 17.92 405.382 18.6027 407.686 19.968C409.99 21.3333 411.824 23.168 413.19 25.472C414.555 27.776 415.238 30.2933 415.238 33.024C415.238 35.7547 414.555 38.2933 413.19 40.64C411.824 42.944 409.99 44.7787 407.686 46.144C405.382 47.5093 402.864 48.192 400.134 48.192C398.47 48.192 396.912 47.9787 395.462 47.552C394.011 47.0827 392.774 46.464 391.75 45.696C391.75 48.4267 391.664 50.5387 391.494 52.032C391.323 53.5253 390.854 54.7413 390.086 55.68C389.36 56.6613 388.187 57.152 386.566 57.152ZM399.814 37.568C400.923 37.568 401.883 37.1627 402.694 36.352C403.547 35.4987 403.974 34.5173 403.974 33.408C403.974 32.2987 403.547 31.3387 402.694 30.528C401.883 29.6747 400.923 29.248 399.814 29.248C398.704 29.248 397.723 29.6747 396.87 30.528C396.059 31.3387 395.654 32.2987 395.654 33.408C395.654 34.5173 396.059 35.4987 396.87 36.352C397.723 37.1627 398.704 37.568 399.814 37.568ZM425.901 16.96C423.81 16.96 422.039 16.2133 420.589 14.72C419.138 13.184 418.413 11.328 418.413 9.152C418.413 7.01867 419.138 5.20533 420.589 3.712C422.039 2.176 423.81 1.408 425.901 1.408C427.949 1.408 429.698 2.176 431.149 3.712C432.642 5.20533 433.389 7.01867 433.389 9.152C433.389 11.328 432.642 13.184 431.149 14.72C429.698 16.2133 427.949 16.96 425.901 16.96ZM425.901 48C424.151 48 422.85 47.5093 421.997 46.528C421.186 45.504 420.631 43.9893 420.333 41.984C420.077 39.936 419.949 37.0347 419.949 33.28C419.949 30.1227 420.098 27.6267 420.397 25.792C420.738 23.9573 421.335 22.592 422.189 21.696C423.042 20.8 424.279 20.352 425.901 20.352C427.65 20.352 428.93 20.864 429.741 21.888C430.594 22.8693 431.149 24.384 431.405 26.432C431.703 28.4373 431.853 31.3173 431.853 35.072C431.853 38.2293 431.682 40.7253 431.341 42.56C431.042 44.3947 430.466 45.76 429.613 46.656C428.759 47.552 427.522 48 425.901 48ZM444.088 47.872C441.955 47.872 440.355 47.0827 439.288 45.504C438.221 43.9253 437.496 41.6 437.112 38.528C436.771 35.4133 436.6 31.0827 436.6 25.536C436.6 20.2027 436.728 16.0427 436.984 13.056C437.283 10.0693 437.965 7.68 439.032 5.888C440.141 4.096 441.848 3.2 444.152 3.2C446.456 3.2 448.141 4.096 449.208 5.888C450.317 7.68 451 10.0693 451.256 13.056C451.555 16.0427 451.704 20.2027 451.704 25.536C451.704 30.784 451.469 35.0293 451 38.272C450.573 41.472 449.805 43.8827 448.696 45.504C447.587 47.0827 446.051 47.872 444.088 47.872ZM462.401 47.872C460.267 47.872 458.667 47.0827 457.601 45.504C456.534 43.9253 455.809 41.6 455.424 38.528C455.083 35.4133 454.913 31.0827 454.913 25.536C454.913 20.2027 455.041 16.0427 455.297 13.056C455.595 10.0693 456.278 7.68 457.345 5.888C458.454 4.096 460.161 3.2 462.465 3.2C464.769 3.2 466.454 4.096 467.521 5.888C468.63 7.68 469.313 10.0693 469.569 13.056C469.867 16.0427 470.017 20.2027 470.017 25.536C470.017 30.784 469.782 35.0293 469.312 38.272C468.886 41.472 468.118 43.8827 467.009 45.504C465.899 47.0827 464.363 47.872 462.401 47.872Z" fill="white"/>
  <path d="M12.663 45.376L12.202 46.2634L12.2089 46.267L12.2158 46.2704L12.663 45.376ZM4.855 37.824L3.98607 38.319L3.98881 38.3237L4.855 37.824ZM4.663 14.464L3.7776 13.9992L4.663 14.464ZM12.087 6.272L12.6312 7.11096V7.11096L12.087 6.272ZM32.631 5.312L32.1944 6.21172L32.2052 6.21681L32.631 5.312ZM39.351 10.944L38.5166 11.4953L38.5235 11.5055L39.351 10.944ZM40.119 23.808L39.3429 23.1774L39.3369 23.1848L39.331 23.1924L40.119 23.808ZM32.055 25.088L32.589 24.2425H32.589L32.055 25.088ZM26.871 20.352L26.3063 21.1773L26.3309 21.1941L26.3565 21.2095L26.871 20.352ZM18.103 21.824L17.376 21.1374L17.3754 21.138L18.103 21.824ZM17.783 33.28L16.9779 33.8732L16.9868 33.8852L16.9959 33.8969L17.783 33.28ZM26.615 34.944L26.1835 34.0419L26.1756 34.0457L26.1678 34.0496L26.615 34.944ZM29.687 32.896L30.3302 33.6617L30.3378 33.6553L29.687 32.896ZM32.119 31.168L31.6718 30.2736L31.6614 30.2788L31.6511 30.2842L32.119 31.168ZM38.967 32.192L38.2311 32.8691L38.238 32.8766L38.245 32.8839L38.967 32.192ZM38.263 41.856L37.4858 41.2268L37.4812 41.2325L37.4767 41.2382L38.263 41.856ZM32.375 46.208L31.9717 45.2929H31.9717L32.375 46.208ZM23.927 46.872C19.8815 46.872 16.283 46.068 13.1102 44.4816L12.2158 46.2704C15.699 48.012 19.6098 48.872 23.927 48.872V46.872ZM13.124 44.4886C10.0146 42.8733 7.54966 40.4936 5.72119 37.3243L3.98881 38.3237C6.00034 41.8104 8.74078 44.4654 12.202 46.2634L13.124 44.4886ZM5.72392 37.329C3.90904 34.1429 2.975 30.2059 2.975 25.472H0.975C0.975 30.4661 1.96096 34.7637 3.98608 38.319L5.72392 37.329ZM2.975 25.472C2.975 21.7055 3.83309 18.1961 5.5484 14.9288L3.7776 13.9992C1.90891 17.5586 0.975 21.3878 0.975 25.472H2.975ZM5.5484 14.9288C7.26267 11.6635 9.62143 9.06324 12.6312 7.11096L11.5428 5.43304C8.23791 7.57676 5.64733 10.4378 3.7776 13.9992L5.5484 14.9288ZM12.6312 7.11096C15.6193 5.17273 18.9701 4.2 22.711 4.2V2.2C18.6013 2.2 14.8694 3.27526 11.5428 5.43304L12.6312 7.11096ZM22.711 4.2C26.2946 4.2 29.4483 4.87899 32.1944 6.21165L33.0676 4.41234C30.011 2.92901 26.5514 2.2 22.711 2.2V4.2ZM32.2052 6.21681C34.9609 7.51362 37.0509 9.27681 38.5167 11.4953L40.1853 10.3927C38.4938 7.83251 36.1038 5.84104 33.0568 4.40718L32.2052 6.21681ZM38.5235 11.5055C40.0301 13.7257 40.783 16.196 40.783 18.944H42.783C42.783 15.804 41.9146 12.9409 40.1785 10.3825L38.5235 11.5055ZM40.783 18.944C40.783 20.6082 40.2973 22.0028 39.3429 23.1774L40.8951 24.4386C42.1594 22.8825 42.783 21.0344 42.783 18.944H40.783ZM39.331 23.1924C38.4851 24.2751 37.2632 24.856 35.511 24.856V26.856C37.7695 26.856 39.6195 26.0716 40.907 24.4236L39.331 23.1924ZM35.511 24.856C34.1098 24.856 33.174 24.612 32.589 24.2425L31.521 25.9335C32.5573 26.588 33.9255 26.856 35.511 26.856V24.856ZM32.589 24.2425C31.8953 23.8044 31.1176 23.0969 30.2607 22.0768L28.7293 23.3632C29.6644 24.4764 30.5934 25.3476 31.521 25.9335L32.589 24.2425ZM30.2607 22.0768C29.3197 20.9565 28.3635 20.0813 27.3855 19.4945L26.3565 21.2095C27.0852 21.6467 27.8783 22.3501 28.7293 23.3632L30.2607 22.0768ZM27.4357 19.5267C26.3855 18.8082 24.9552 18.52 23.287 18.52V20.52C24.7761 20.52 25.7351 20.7865 26.3063 21.1773L27.4357 19.5267ZM23.287 18.52C20.9904 18.52 19.0042 19.4134 17.376 21.1374L18.83 22.5106C20.1031 21.1626 21.5729 20.52 23.287 20.52V18.52ZM17.3754 21.138C15.7812 22.8288 14.991 24.9138 14.991 27.328H16.991C16.991 25.3902 17.6088 23.8058 18.8306 22.51L17.3754 21.138ZM14.991 27.328C14.991 29.8516 15.6366 32.0528 16.9779 33.8732L18.5881 32.6868C17.5401 31.2646 16.991 29.4977 16.991 27.328H14.991ZM16.9959 33.8969C18.432 35.729 20.3922 36.648 22.775 36.648V34.648C20.9765 34.648 19.6087 33.9883 18.5701 32.6631L16.9959 33.8969ZM22.775 36.648C24.475 36.648 25.9295 36.4048 27.0622 35.8384L26.1678 34.0496C25.4232 34.4219 24.3176 34.648 22.775 34.648V36.648ZM27.0465 35.8461C28.1216 35.3319 29.216 34.5976 30.3302 33.6617L29.0438 32.1303C28.0246 32.9864 27.0711 33.6174 26.1835 34.0419L27.0465 35.8461ZM30.3378 33.6553C31.1998 32.9164 31.9485 32.3897 32.5869 32.0518L31.6511 30.2842C30.8388 30.7142 29.9662 31.3396 29.0362 32.1367L30.3378 33.6553ZM32.5662 32.0624C33.1609 31.7651 33.9371 31.592 34.935 31.592V29.592C33.7142 29.592 32.6131 29.8029 31.6718 30.2736L32.5662 32.0624ZM34.935 31.592C36.4162 31.592 37.4729 32.045 38.2311 32.8691L39.7029 31.5149C38.4984 30.2057 36.8672 29.592 34.935 29.592V31.592ZM38.245 32.8839C39.0174 33.6898 39.439 34.77 39.439 36.224H41.439C41.439 34.35 40.8793 32.7421 39.689 31.5001L38.245 32.8839ZM39.439 36.224C39.439 37.919 38.8186 39.5803 37.4858 41.2268L39.0402 42.4852C40.6087 40.5477 41.439 38.4543 41.439 36.224H39.439ZM37.4767 41.2382C36.189 42.877 34.3698 44.2361 31.9717 45.2929L32.7783 47.1231C35.4149 45.9612 37.521 44.419 39.0493 42.4738L37.4767 41.2382ZM31.9717 45.2929C29.5972 46.3393 26.9212 46.872 23.927 46.872V48.872C27.1622 48.872 30.1181 48.2954 32.7783 47.1231L31.9717 45.2929ZM46.605 45.568L45.7797 46.1327L46.605 45.568ZM44.301 38.08L43.3074 38.1932L43.3089 38.2056L44.301 38.08ZM44.109 12.352L43.1146 12.2465L43.1138 12.254L43.1131 12.2615L44.109 12.352ZM46.093 5.696L46.9385 6.23003L46.9447 6.2201L46.093 5.696ZM56.909 9.472L55.9191 9.61342V9.61342L56.909 9.472ZM57.293 19.072H56.293V20.69L57.7402 19.9664L57.293 19.072ZM59.533 18.176L59.2905 17.2059L59.2829 17.2078L59.2753 17.2098L59.533 18.176ZM70.029 20.16L69.4477 20.9738L69.4589 20.9816L70.029 20.16ZM74.765 26.048L73.8467 26.4438L73.8495 26.4505L73.8525 26.4571L74.765 26.048ZM75.149 44.032L74.2003 43.7158L74.1971 43.7255L75.149 44.032ZM66.445 46.656L65.7573 47.382L65.7665 47.3907L65.776 47.3993L66.445 46.656ZM64.845 43.52L63.8578 43.6792L63.8602 43.6947L63.8632 43.71L64.845 43.52ZM63.693 32.256L62.7567 32.6071L62.7614 32.6198L62.7665 32.6324L63.693 32.256ZM58.061 32.32L57.1404 31.9295L57.1374 31.9365L57.1345 31.9436L58.061 32.32ZM57.165 38.08L58.1648 38.0985L58.1649 38.0972L57.165 38.08ZM56.717 43.584L55.7341 43.3997L55.7313 43.4146L55.729 43.4296L56.717 43.584ZM55.117 46.848L55.8047 47.574L55.8058 47.573L55.117 46.848ZM51.405 47C49.6193 47 48.3395 46.3321 47.4303 45.0033L45.7797 46.1327C47.0892 48.0465 49.0094 49 51.405 49V47ZM47.4303 45.0033C46.4539 43.5762 45.7124 41.2669 45.2931 37.9544L43.3089 38.2056C43.7429 41.6344 44.5374 44.3171 45.7797 46.1327L47.4303 45.0033ZM45.2946 37.9668C44.9169 34.6516 44.725 30.0233 44.725 24.064H42.725C42.725 30.0514 42.9171 34.767 43.3074 38.1932L45.2946 37.9668ZM44.725 24.064C44.725 19.0831 44.8529 15.2141 45.1049 12.4425L43.1131 12.2615C42.8531 15.1219 42.725 19.0608 42.725 24.064H44.725ZM45.1034 12.4575C45.393 9.727 46.0259 7.67493 46.9385 6.22999L45.2475 5.16201C44.1121 6.95973 43.4223 9.345 43.1146 12.2465L45.1034 12.4575ZM46.9447 6.2201C47.7633 4.88988 49.0171 4.2 50.893 4.2V2.2C48.4169 2.2 46.4707 3.17412 45.2413 5.1719L46.9447 6.2201ZM50.893 4.2C52.5433 4.2 53.626 4.71294 54.3307 5.60982L55.9033 4.37418C54.7307 2.88172 52.9974 2.2 50.893 2.2V4.2ZM54.3307 5.60982C55.1417 6.64201 55.6831 7.96194 55.9191 9.61342L57.8989 9.33058C57.6229 7.39805 56.9696 5.73131 55.9033 4.37418L54.3307 5.60982ZM55.9191 9.61342C56.166 11.342 56.293 13.531 56.293 16.192H58.293C58.293 13.477 58.164 11.186 57.8989 9.33057L55.9191 9.61342ZM56.293 16.192V19.072H58.293V16.192H56.293ZM57.7402 19.9664C58.557 19.558 59.2378 19.2897 59.7907 19.1422L59.2753 17.2098C58.5482 17.4037 57.7357 17.7326 56.8458 18.1776L57.7402 19.9664ZM59.7755 19.1461C60.3374 19.0057 61.2419 18.92 62.541 18.92V16.92C61.1948 16.92 60.094 17.005 59.2905 17.2059L59.7755 19.1461ZM62.541 18.92C65.262 18.92 67.5482 19.6169 69.4478 20.9737L70.6102 19.3463C68.3285 17.7164 65.6227 16.92 62.541 16.92V18.92ZM69.4589 20.9816C71.3868 22.3193 72.8494 24.1303 73.8467 26.4438L75.6833 25.6522C74.5472 23.0164 72.8525 20.902 70.5991 19.3384L69.4589 20.9816ZM73.8525 26.4571C74.8977 28.7888 75.429 31.3991 75.429 34.304H77.429C77.429 31.1502 76.8509 28.2566 75.6775 25.6389L73.8525 26.4571ZM75.429 34.304C75.429 38.1662 75.008 41.2927 74.2003 43.7158L76.0977 44.3482C76.9967 41.6513 77.429 38.2925 77.429 34.304H75.429ZM74.1971 43.7255C73.8358 44.8475 73.3233 45.5993 72.7118 46.0741C72.1074 46.5433 71.3215 46.808 70.285 46.808V48.808C71.6805 48.808 72.9212 48.4434 73.9382 47.6539C74.948 46.87 75.6515 45.7338 76.1009 44.3385L74.1971 43.7255ZM70.285 46.808C68.708 46.808 67.712 46.4509 67.114 45.9127L65.776 47.3993C66.8847 48.3971 68.4487 48.808 70.285 48.808V46.808ZM67.1327 45.93C66.5027 45.3332 66.0515 44.4909 65.8268 43.33L63.8632 43.71C64.1505 45.1944 64.766 46.4428 65.7573 47.382L67.1327 45.93ZM65.8322 43.3608C65.6313 42.115 65.525 40.3628 65.525 38.08H63.525C63.525 40.4052 63.632 42.2796 63.8578 43.6792L65.8322 43.3608ZM65.525 38.08C65.525 35.512 65.2454 33.4203 64.6195 31.8796L62.7665 32.6324C63.25 33.8223 63.525 35.6133 63.525 38.08H65.525ZM64.6293 31.9049C64.3243 31.0915 63.868 30.4015 63.218 29.9178C62.5607 29.4286 61.7824 29.208 60.941 29.208V31.208C61.4223 31.208 61.764 31.3288 62.024 31.5222C62.2913 31.7212 62.5497 32.0552 62.7567 32.6071L64.6293 31.9049ZM60.941 29.208C60.0918 29.208 59.3081 29.4379 58.6376 29.9296C57.9766 30.4143 57.4897 31.1061 57.1404 31.9295L58.9816 32.7105C59.2296 32.1259 59.5214 31.7617 59.8204 31.5424C60.1099 31.3301 60.4676 31.208 60.941 31.208V29.208ZM57.1345 31.9436C56.5124 33.4749 56.2087 35.537 56.1651 38.0628L58.1649 38.0972C58.2066 35.6736 58.5002 33.8957 58.9875 32.6964L57.1345 31.9436ZM56.1652 38.0615C56.123 40.341 55.9754 42.1129 55.7341 43.3997L57.6999 43.7683C57.9706 42.3244 58.1217 40.427 58.1648 38.0985L56.1652 38.0615ZM55.729 43.4296C55.5436 44.6164 55.0949 45.4897 54.4282 46.123L55.8058 47.573C56.8458 46.585 57.4638 45.2823 57.705 43.7384L55.729 43.4296ZM54.4293 46.122C53.8778 46.6445 52.9364 47 51.405 47V49C53.2016 49 54.7349 48.5875 55.8047 47.574L54.4293 46.122ZM94.35 48.064L94.3363 47.0641H94.3361L94.35 48.064ZM86.094 46.144L85.6097 47.0189L85.6162 47.0225L86.094 46.144ZM80.462 40.704L79.5909 41.195L79.5962 41.2045L79.6017 41.2138L80.462 40.704ZM78.35 32.896L77.3501 32.9109L77.3502 32.9184L77.3504 32.9258L78.35 32.896ZM80.334 25.216L79.4779 24.6991L80.334 25.216ZM86.03 19.84L85.5586 18.958L85.5522 18.9615L86.03 19.84ZM102.414 19.776L101.942 20.6575L101.948 20.6609L102.414 19.776ZM108.174 25.152L107.321 25.6734V25.6735L108.174 25.152ZM110.414 32.896L111.414 32.8806L111.414 32.8734L111.414 32.8662L110.414 32.896ZM108.43 40.512L109.286 41.0289L109.29 41.0218L108.43 40.512ZM102.67 45.952L102.187 45.0764L102.18 45.08L102.67 45.952ZM97.55 31.168L96.8259 31.8577L96.8343 31.8665L96.8429 31.8751L97.55 31.168ZM91.534 31.168L92.2411 31.8751L92.2497 31.8665L92.2581 31.8577L91.534 31.168ZM91.534 37.376L90.8099 38.0657L91.534 37.376ZM94.3361 47.0641C91.4165 47.1046 88.837 46.4975 86.5718 45.2655L85.6162 47.0225C88.215 48.4359 91.1395 49.1087 94.3639 49.0639L94.3361 47.0641ZM86.5783 45.2691C84.3413 44.0308 82.5951 42.3421 81.3223 40.1942L79.6017 41.2138C81.0595 43.6739 83.068 45.6119 85.6097 47.0189L86.5783 45.2691ZM81.3332 40.213C80.0949 38.0161 79.4304 35.5732 79.3496 32.8662L77.3504 32.9258C77.4403 35.9361 78.1838 38.6986 79.5909 41.195L81.3332 40.213ZM79.3499 32.8811C79.3098 30.1936 79.9295 27.8207 81.1901 25.7329L79.4779 24.6991C78.0079 27.1339 77.3049 29.881 77.3501 32.9109L79.3499 32.8811ZM81.1901 25.7329C82.4592 23.6309 84.2239 21.9606 86.5078 20.7185L85.5522 18.9615C82.9721 20.3648 80.9395 22.2784 79.4779 24.6991L81.1901 25.7329ZM86.5014 20.7219C88.8176 19.484 91.4265 18.856 94.35 18.856V16.856C91.1295 16.856 88.1917 17.5507 85.5586 18.9581L86.5014 20.7219ZM94.35 18.856C97.189 18.856 99.7121 19.463 101.942 20.6575L102.886 18.8945C100.337 17.529 97.4843 16.856 94.35 16.856V18.856ZM101.948 20.6609C104.224 21.8585 106.009 23.5262 107.321 25.6734L109.027 24.6306C107.523 22.1698 105.468 20.2535 102.88 18.8911L101.948 20.6609ZM107.321 25.6735C108.633 27.8202 109.334 30.2303 109.414 32.9258L111.414 32.8662C111.323 29.8444 110.531 27.0918 109.027 24.6305L107.321 25.6735ZM109.414 32.9114C109.454 35.507 108.837 37.8629 107.57 40.0022L109.29 41.0218C110.753 38.5531 111.459 35.8316 111.414 32.8806L109.414 32.9114ZM107.574 39.9951C106.306 42.0957 104.519 43.7897 102.187 45.0764L103.153 46.8276C105.77 45.3836 107.824 43.4509 109.286 41.0289L107.574 39.9951ZM102.18 45.08C99.9103 46.3545 97.304 47.0234 94.3363 47.0641L94.3637 49.0639C97.6253 49.0192 100.566 48.2802 103.16 46.824L102.18 45.08ZM94.542 39.72C95.9895 39.72 97.2477 39.1435 98.2741 38.0657L96.8259 36.6863C96.1457 37.4005 95.3985 37.72 94.542 37.72V39.72ZM98.2741 38.0657C99.2975 36.9911 99.83 35.7014 99.83 34.24H97.83C97.83 35.1679 97.5091 35.9689 96.8259 36.6863L98.2741 38.0657ZM99.83 34.24C99.83 32.7771 99.2958 31.4996 98.2571 30.4609L96.8429 31.8751C97.5108 32.543 97.83 33.3136 97.83 34.24H99.83ZM98.2741 30.4783C97.2477 29.4005 95.9895 28.824 94.542 28.824V30.824C95.3985 30.824 96.1457 31.1435 96.8259 31.8577L98.2741 30.4783ZM94.542 28.824C93.0945 28.824 91.8364 29.4005 90.8099 30.4783L92.2581 31.8577C92.9383 31.1435 93.6855 30.824 94.542 30.824V28.824ZM90.8269 30.4609C89.7882 31.4996 89.254 32.7771 89.254 34.24H91.254C91.254 33.3136 91.5732 32.543 92.2411 31.8751L90.8269 30.4609ZM89.254 34.24C89.254 35.7014 89.7865 36.9911 90.8099 38.0657L92.2581 36.6863C91.5749 35.9689 91.254 35.1679 91.254 34.24H89.254ZM90.8099 38.0657C91.8364 39.1435 93.0945 39.72 94.542 39.72V37.72C93.6855 37.72 92.9383 37.4005 92.2581 36.6863L90.8099 38.0657ZM128.35 48.064L128.336 47.0641H128.336L128.35 48.064ZM120.094 46.144L119.61 47.0189L119.616 47.0225L120.094 46.144ZM114.462 40.704L113.591 41.195L113.596 41.2045L113.602 41.2138L114.462 40.704ZM112.35 32.896L111.35 32.9109L111.35 32.9184L111.35 32.9258L112.35 32.896ZM114.334 25.216L113.478 24.6991L114.334 25.216ZM120.03 19.84L119.559 18.958L119.552 18.9615L120.03 19.84ZM136.414 19.776L135.942 20.6575L135.948 20.6609L136.414 19.776ZM142.174 25.152L141.321 25.6734V25.6735L142.174 25.152ZM144.414 32.896L145.414 32.8806L145.414 32.8734L145.414 32.8662L144.414 32.896ZM142.43 40.512L143.286 41.0289L143.29 41.0218L142.43 40.512ZM136.67 45.952L136.187 45.0764L136.18 45.08L136.67 45.952ZM131.55 31.168L130.826 31.8577L130.834 31.8665L130.843 31.8751L131.55 31.168ZM125.534 31.168L126.241 31.8751L126.25 31.8665L126.258 31.8577L125.534 31.168ZM125.534 37.376L124.81 38.0657L125.534 37.376ZM128.336 47.0641C125.416 47.1046 122.837 46.4975 120.572 45.2655L119.616 47.0225C122.215 48.4359 125.14 49.1087 128.364 49.0639L128.336 47.0641ZM120.578 45.2691C118.341 44.0308 116.595 42.3421 115.322 40.1942L113.602 41.2138C115.06 43.6739 117.068 45.6119 119.61 47.0189L120.578 45.2691ZM115.333 40.213C114.095 38.0161 113.43 35.5732 113.35 32.8662L111.35 32.9258C111.44 35.9361 112.184 38.6986 113.591 41.195L115.333 40.213ZM113.35 32.8811C113.31 30.1936 113.929 27.8207 115.19 25.7329L113.478 24.6991C112.008 27.1339 111.305 29.881 111.35 32.9109L113.35 32.8811ZM115.19 25.7329C116.459 23.6309 118.224 21.9606 120.508 20.7185L119.552 18.9615C116.972 20.3648 114.94 22.2784 113.478 24.6991L115.19 25.7329ZM120.501 20.7219C122.818 19.484 125.427 18.856 128.35 18.856V16.856C125.129 16.856 122.192 17.5507 119.559 18.9581L120.501 20.7219ZM128.35 18.856C131.189 18.856 133.712 19.463 135.942 20.6575L136.886 18.8945C134.337 17.529 131.484 16.856 128.35 16.856V18.856ZM135.948 20.6609C138.224 21.8585 140.009 23.5262 141.321 25.6734L143.027 24.6306C141.523 22.1698 139.468 20.2535 136.88 18.8911L135.948 20.6609ZM141.321 25.6735C142.633 27.8202 143.334 30.2303 143.414 32.9258L145.414 32.8662C145.323 29.8444 144.531 27.0918 143.027 24.6305L141.321 25.6735ZM143.414 32.9114C143.454 35.507 142.837 37.8629 141.57 40.0022L143.29 41.0218C144.753 38.5531 145.459 35.8316 145.414 32.8806L143.414 32.9114ZM141.574 39.9951C140.306 42.0957 138.519 43.7897 136.187 45.0764L137.153 46.8276C139.77 45.3836 141.824 43.4509 143.286 41.0289L141.574 39.9951ZM136.18 45.08C133.91 46.3545 131.304 47.0234 128.336 47.0641L128.364 49.0639C131.625 49.0192 134.566 48.2802 137.16 46.824L136.18 45.08ZM128.542 39.72C129.989 39.72 131.248 39.1435 132.274 38.0657L130.826 36.6863C130.146 37.4005 129.399 37.72 128.542 37.72V39.72ZM132.274 38.0657C133.298 36.9911 133.83 35.7014 133.83 34.24H131.83C131.83 35.1679 131.509 35.9689 130.826 36.6863L132.274 38.0657ZM133.83 34.24C133.83 32.7771 133.296 31.4996 132.257 30.4609L130.843 31.8751C131.511 32.543 131.83 33.3136 131.83 34.24H133.83ZM132.274 30.4783C131.248 29.4005 129.989 28.824 128.542 28.824V30.824C129.399 30.824 130.146 31.1435 130.826 31.8577L132.274 30.4783ZM128.542 28.824C127.095 28.824 125.836 29.4005 124.81 30.4783L126.258 31.8577C126.938 31.1435 127.685 30.824 128.542 30.824V28.824ZM124.827 30.4609C123.788 31.4996 123.254 32.7771 123.254 34.24H125.254C125.254 33.3136 125.573 32.543 126.241 31.8751L124.827 30.4609ZM123.254 34.24C123.254 35.7014 123.786 36.9911 124.81 38.0657L126.258 36.6863C125.575 35.9689 125.254 35.1679 125.254 34.24H123.254ZM124.81 38.0657C125.836 39.1435 127.095 39.72 128.542 39.72V37.72C127.685 37.72 126.938 37.4005 126.258 36.6863L124.81 38.0657ZM149.678 46.144L150.165 45.2706L149.678 46.144ZM147.63 38.4L148.255 39.1809L148.259 39.1772L147.63 38.4ZM152.878 37.632L152.464 38.5424L152.878 37.632ZM154.286 38.528L154.945 37.7754L154.932 37.7645L154.919 37.754L154.286 38.528ZM155.118 39.168L154.604 40.0255L154.636 40.0452L154.671 40.0624L155.118 39.168ZM156.654 37.056L156.066 37.8647L156.091 37.883L156.117 37.8997L156.654 37.056ZM154.222 35.84L154.599 34.9139L154.593 34.9115L154.222 35.84ZM152.11 34.944L152.557 34.0496L152.549 34.0457L152.541 34.0419L152.11 34.944ZM147.758 31.616L146.952 32.2074L147.758 31.616ZM148.078 22.912L147.297 22.2873L147.295 22.2901L148.078 22.912ZM153.07 19.328L153.457 20.25L153.466 20.2462L153.07 19.328ZM167.15 18.944L166.821 19.8885L166.828 19.8906L167.15 18.944ZM171.886 21.76L171.166 22.4541L171.172 22.4607L171.179 22.4671L171.886 21.76ZM172.334 28.608L171.709 27.8271L171.699 27.835L171.69 27.8431L172.334 28.608ZM167.662 29.504L167.268 30.4231L167.342 30.4547L167.419 30.4741L167.662 29.504ZM166.446 28.928L165.95 29.7962L165.974 29.81L165.999 29.8224L166.446 28.928ZM165.486 28.48L165.092 29.3991L165.113 29.4082L165.135 29.4163L165.486 28.48ZM163.566 28.672L164.206 29.4402L164.241 29.4112L164.273 29.3791L163.566 28.672ZM164.59 30.912L164.901 29.9617L164.893 29.9591L164.59 30.912ZM170.542 33.984L169.904 34.7541L169.915 34.7628L170.542 33.984ZM168.942 45.632L168.423 44.777L168.417 44.7808L168.942 45.632ZM158.638 47C154.978 47 152.18 46.3946 150.165 45.2706L149.191 47.0174C151.613 48.3681 154.788 49 158.638 49V47ZM150.165 45.2706C148.155 44.1497 147.35 42.8353 147.35 41.344H145.35C145.35 43.778 146.764 45.6636 149.191 47.0174L150.165 45.2706ZM147.35 41.344C147.35 40.3095 147.681 39.6401 148.255 39.1809L147.005 37.6191C145.873 38.5252 145.35 39.8185 145.35 41.344H147.35ZM148.259 39.1772C148.946 38.6215 149.842 38.312 151.022 38.312V36.312C149.472 36.312 148.106 36.7278 147.001 37.6228L148.259 39.1772ZM151.022 38.312C151.711 38.312 152.172 38.4098 152.464 38.5424L153.292 36.7216C152.645 36.4276 151.869 36.312 151.022 36.312V38.312ZM152.464 38.5424C152.842 38.7143 153.239 38.9634 153.653 39.302L154.919 37.754C154.394 37.3246 153.852 36.9764 153.292 36.7216L152.464 38.5424ZM153.628 39.2806C153.984 39.5921 154.314 39.8515 154.604 40.0255L155.632 38.3105C155.496 38.2285 155.271 38.0612 154.945 37.7754L153.628 39.2806ZM154.671 40.0624C155.09 40.272 155.547 40.36 156.014 40.36V38.36C155.798 38.36 155.658 38.32 155.565 38.2736L154.671 40.0624ZM156.014 40.36C156.551 40.36 157.133 40.2696 157.603 39.9337C158.135 39.5536 158.358 38.9828 158.358 38.4H156.358C156.358 38.4438 156.351 38.4342 156.368 38.3971C156.388 38.3547 156.418 38.3223 156.441 38.3063C156.457 38.2947 156.444 38.3098 156.37 38.3272C156.297 38.3447 156.182 38.36 156.014 38.36V40.36ZM158.358 38.4C158.358 37.491 157.973 36.7102 157.191 36.2123L156.117 37.8997C156.273 37.9991 156.358 38.1143 156.358 38.4H158.358ZM157.242 36.2473C156.668 35.8299 155.761 35.3872 154.599 34.9139L153.845 36.7661C154.987 37.2314 155.701 37.5994 156.066 37.8647L157.242 36.2473ZM154.593 34.9115C153.52 34.4822 152.855 34.1985 152.557 34.0496L151.663 35.8384C152.048 36.0308 152.791 36.3444 153.851 36.7685L154.593 34.9115ZM152.541 34.0419C150.675 33.1492 149.376 32.1316 148.564 31.0246L146.952 32.2074C148.017 33.6604 149.62 34.8614 151.679 35.8461L152.541 34.0419ZM148.564 31.0246C147.739 29.8991 147.35 28.7378 147.35 27.52H145.35C145.35 29.2035 145.9 30.7729 146.952 32.2074L148.564 31.0246ZM147.35 27.52C147.35 26.1562 147.829 24.8342 148.861 23.5339L147.295 22.2901C146.023 23.8911 145.35 25.6412 145.35 27.52H147.35ZM148.859 23.5367C149.929 22.1985 151.446 21.0948 153.457 20.25L152.683 18.406C150.428 19.3532 148.616 20.6388 147.297 22.2873L148.859 23.5367ZM153.466 20.2462C155.496 19.3707 157.853 18.92 160.558 18.92V16.92C157.631 16.92 154.996 17.408 152.674 18.4098L153.466 20.2462ZM160.558 18.92C162.897 18.92 164.981 19.2482 166.821 19.8885L167.479 17.9995C165.394 17.2744 163.083 16.92 160.558 16.92V18.92ZM166.828 19.8906C168.723 20.5358 170.151 21.4014 171.166 22.4541L172.606 21.0659C171.317 19.7293 169.588 18.7175 167.472 17.9973L166.828 19.8906ZM171.179 22.4671C172.175 23.4635 172.614 24.4991 172.614 25.6H174.614C174.614 23.8849 173.901 22.3605 172.593 21.0529L171.179 22.4671ZM172.614 25.6C172.614 26.6897 172.275 27.3745 171.709 27.8271L172.959 29.3889C174.1 28.4762 174.614 27.1556 174.614 25.6H172.614ZM171.69 27.8431C171.111 28.3302 170.256 28.632 169.006 28.632V30.632C170.572 30.632 171.935 30.2511 172.978 29.3729L171.69 27.8431ZM169.006 28.632C168.492 28.632 168.135 28.5914 167.905 28.5339L167.419 30.4741C167.872 30.5873 168.411 30.632 169.006 30.632V28.632ZM168.056 28.5849C167.784 28.4682 167.399 28.2863 166.893 28.0336L165.999 29.8224C166.517 30.0817 166.943 30.2838 167.268 30.4231L168.056 28.5849ZM166.942 28.0598C166.594 27.861 166.226 27.6893 165.837 27.5437L165.135 29.4163C165.429 29.5267 165.7 29.6536 165.95 29.7962L166.942 28.0598ZM165.88 27.5609C165.436 27.3707 164.957 27.288 164.462 27.288V29.288C164.735 29.288 164.938 29.3333 165.092 29.3991L165.88 27.5609ZM164.462 27.288C163.838 27.288 163.29 27.534 162.859 27.9649L164.273 29.3791C164.354 29.298 164.403 29.288 164.462 29.288V27.288ZM162.926 27.9038C162.436 28.3124 162.182 28.8742 162.182 29.504H164.182C164.182 29.4813 164.184 29.4682 164.185 29.4626C164.186 29.4573 164.187 29.4569 164.186 29.4591C164.185 29.4613 164.184 29.462 164.186 29.4603C164.187 29.4584 164.193 29.4514 164.206 29.4402L162.926 27.9038ZM162.182 29.504C162.182 30.1 162.412 30.6287 162.827 31.0431C163.216 31.4323 163.733 31.6887 164.287 31.8649L164.893 29.9591C164.508 29.8366 164.321 29.709 164.241 29.6289C164.186 29.574 164.182 29.548 164.182 29.504H162.182ZM164.279 31.8623C166.673 32.6465 168.534 33.619 169.904 34.754L171.18 33.214C169.563 31.8743 167.457 30.7988 164.901 29.9617L164.279 31.8623ZM169.915 34.7628C171.189 35.789 171.846 37.195 171.846 39.104H173.846C173.846 36.661 172.967 34.6536 171.169 33.2052L169.915 34.7628ZM171.846 39.104C171.846 41.4886 170.762 43.3583 168.423 44.777L169.461 46.487C172.327 44.7483 173.846 42.266 173.846 39.104H171.846ZM168.417 44.7808C166.069 46.2288 162.838 47 158.638 47V49C163.057 49 166.695 48.1925 169.467 46.4832L168.417 44.7808ZM183.217 46.144L183.671 45.2527L183.217 46.144ZM177.521 40.96L176.658 41.4649L176.664 41.4746L176.67 41.4841L177.521 40.96ZM177.521 25.664L176.657 25.1611L176.65 25.173L177.521 25.664ZM183.154 20.032L183.661 20.8935L183.154 20.032ZM198.514 19.584L198.982 18.7006L198.514 19.584ZM203.314 24L202.458 24.5174L202.463 24.5264L203.314 24ZM201.329 36.672L201.848 37.5268L201.853 37.5242L201.329 36.672ZM187.122 38.016L187.461 37.0754L184.78 36.1074L186.269 38.5382L187.122 38.016ZM197.298 40.704L197.511 41.6809L197.526 41.6777L197.54 41.6741L197.298 40.704ZM201.01 41.216L200.364 41.9794L200.377 41.9911L200.392 42.0023L201.01 41.216ZM199.473 46.592L199.975 47.4574L199.983 47.4525L199.991 47.4475L199.473 46.592ZM187.314 30.208H186.314V30.5017L186.472 30.7488L187.314 30.208ZM188.85 31.552L188.427 32.4582L188.462 32.4747L188.498 32.4883L188.85 31.552ZM193.521 31.296L193.014 30.4341L193.003 30.4409L192.992 30.448L193.521 31.296ZM193.65 27.648L192.969 28.3808L192.982 28.3925L192.995 28.4037L193.65 27.648ZM188.273 27.904L187.545 27.2186L187.544 27.2201L188.273 27.904ZM191.602 47C188.577 47 185.942 46.4081 183.671 45.2527L182.764 47.0353C185.357 48.3545 188.311 49 191.602 49V47ZM183.671 45.2527C181.395 44.0947 179.637 42.4903 178.373 40.4359L176.67 41.4841C178.136 43.8671 180.176 45.7187 182.764 47.0353L183.671 45.2527ZM178.385 40.4551C177.158 38.3584 176.538 35.9963 176.538 33.344H174.538C174.538 36.3237 175.239 39.0389 176.658 41.4649L178.385 40.4551ZM176.538 33.344C176.538 30.7374 177.157 28.3473 178.393 26.155L176.65 25.173C175.241 27.6741 174.538 30.4039 174.538 33.344H176.538ZM178.386 26.1669C179.663 23.9717 181.416 22.2165 183.661 20.8935L182.646 19.1705C180.112 20.6635 178.111 22.663 176.657 25.1611L178.386 26.1669ZM183.661 20.8935C185.883 19.5844 188.414 18.92 191.281 18.92V16.92C188.091 16.92 185.203 17.6636 182.646 19.1705L183.661 20.8935ZM191.281 18.92C193.874 18.92 196.119 19.4456 198.045 20.4673L198.982 18.7006C196.726 17.5037 194.15 16.92 191.281 16.92V18.92ZM198.045 20.4673C199.993 21.501 201.452 22.8532 202.458 24.5174L204.169 23.4826C202.957 21.4774 201.216 19.8857 198.982 18.7006L198.045 20.4673ZM202.463 24.5264C203.482 26.1724 203.978 27.8691 203.978 29.632H205.978C205.978 27.4696 205.363 25.4116 204.164 23.4736L202.463 24.5264ZM203.978 29.632C203.978 32.5346 202.902 34.5332 200.806 35.8198L201.853 37.5242C204.621 35.8241 205.978 33.1294 205.978 29.632H203.978ZM200.811 35.8172C198.605 37.1562 195.934 37.848 192.753 37.848V39.848C196.229 39.848 199.275 39.0892 201.848 37.5268L200.811 35.8172ZM192.753 37.848C190.612 37.848 188.857 37.5795 187.461 37.0754L186.782 38.9566C188.458 39.5619 190.458 39.848 192.753 39.848V37.848ZM186.269 38.5382C187.769 40.9892 190.247 42.152 193.458 42.152V40.152C190.78 40.152 189.034 39.2241 187.974 37.4938L186.269 38.5382ZM193.458 42.152C194.735 42.152 196.087 41.9924 197.511 41.6809L197.084 39.7271C195.777 40.0129 194.569 40.152 193.458 40.152V42.152ZM197.54 41.6741C197.982 41.5636 198.391 41.512 198.77 41.512V39.512C198.209 39.512 197.637 39.5884 197.055 39.7339L197.54 41.6741ZM198.77 41.512C199.542 41.512 200.037 41.7029 200.364 41.9794L201.655 40.4526C200.873 39.7905 199.874 39.512 198.77 39.512V41.512ZM200.392 42.0023C200.73 42.2678 200.906 42.6084 200.906 43.136H202.906C202.906 42.0423 202.484 41.1028 201.627 40.4297L200.392 42.0023ZM200.906 43.136C200.906 43.9696 200.42 44.8502 198.956 45.7365L199.991 47.4475C201.77 46.3711 202.906 44.9477 202.906 43.136H200.906ZM198.972 45.7266C197.589 46.5275 195.189 47 191.602 47V49C195.268 49 198.115 48.5339 199.975 47.4574L198.972 45.7266ZM186.472 30.7488C186.958 31.504 187.614 32.0792 188.427 32.4582L189.272 30.6458C188.805 30.4275 188.437 30.1066 188.155 29.6672L186.472 30.7488ZM188.498 32.4883C189.305 32.7909 190.172 32.936 191.09 32.936V30.936C190.385 30.936 189.759 30.8251 189.201 30.6157L188.498 32.4883ZM191.09 32.936C192.184 32.936 193.185 32.6855 194.051 32.144L192.992 30.448C192.493 30.7598 191.872 30.936 191.09 30.936V32.936ZM194.029 32.1579C194.976 31.6003 195.609 30.7557 195.609 29.632H193.609C193.609 29.8737 193.517 30.1383 193.014 30.4341L194.029 32.1579ZM195.609 29.632C195.609 28.5421 195.138 27.615 194.304 26.8923L192.995 28.4037C193.441 28.7904 193.609 29.1859 193.609 29.632H195.609ZM194.33 26.9152C193.483 26.129 192.326 25.816 191.025 25.816V27.816C192.029 27.816 192.621 28.0577 192.969 28.3808L194.33 26.9152ZM191.025 25.816C189.645 25.816 188.447 26.2606 187.545 27.2186L189.002 28.5894C189.465 28.0968 190.102 27.816 191.025 27.816V25.816ZM187.544 27.2201C186.748 28.0686 186.314 29.0751 186.314 30.208H188.314C188.314 29.6342 188.519 29.1048 189.003 28.5879L187.544 27.2201ZM231.958 48.832L231.435 47.9794L231.958 48.832ZM236.63 47.744L236.582 48.7429L236.585 48.743L236.63 47.744ZM240.982 47.488L240.749 46.5156L240.739 46.5179L240.982 47.488ZM243.414 46.08L244.19 46.7106L245.515 45.08H243.414V46.08ZM234.006 44.416L233.565 45.3137L233.572 45.3169L233.579 45.3201L234.006 44.416ZM228.886 39.104L227.964 39.4921L227.969 39.5019L227.973 39.5117L228.886 39.104ZM228.886 21.248L227.992 20.8008L227.988 20.8081L228.886 21.248ZM238.294 19.776L237.519 20.4077L237.532 20.4234L237.545 20.4386L238.294 19.776ZM239.766 24.128L240.766 24.1507L240.766 24.1394V24.128H239.766ZM239.702 26.944L240.699 27.0207L240.701 26.9937L240.702 26.9667L239.702 26.944ZM240.406 34.048L239.504 34.4807L239.508 34.488L239.512 34.4952L240.406 34.048ZM246.55 34.048L247.444 34.4952L247.448 34.488L247.452 34.4807L246.55 34.048ZM247.254 27.008L246.254 27.0312L246.255 27.058L246.257 27.0847L247.254 27.008ZM247.19 24.256H246.19V24.2676L246.19 24.2792L247.19 24.256ZM248.598 19.712L247.849 19.0494L247.842 19.0577L247.835 19.0661L248.598 19.712ZM258.07 21.248L257.176 21.6952V21.6952L258.07 21.248ZM257.494 43.392L256.548 43.0672L256.546 43.0729L257.494 43.392ZM250.518 53.568L249.892 52.7881L249.887 52.7922L250.518 53.568ZM238.038 56.472C235.86 56.472 234.126 56.0483 232.782 55.2642L231.774 56.9918C233.502 57.9996 235.608 58.472 238.038 58.472V56.472ZM232.782 55.2642C231.547 54.5438 230.974 53.5465 230.974 52.16H228.974C228.974 54.2722 229.937 55.9202 231.774 56.9918L232.782 55.2642ZM230.974 52.16C230.974 51.1403 231.418 50.3356 232.481 49.6846L231.435 47.9794C229.852 48.9497 228.974 50.3637 228.974 52.16H230.974ZM232.481 49.6846C233.607 48.9945 234.959 48.6655 236.582 48.7429L236.678 46.7451C234.717 46.6518 232.955 47.0482 231.435 47.9794L232.481 49.6846ZM236.585 48.743C238.496 48.8298 240.06 48.7492 241.225 48.4581L240.739 46.5179C239.856 46.7388 238.519 46.8288 236.675 46.745L236.585 48.743ZM241.215 48.4604C242.442 48.166 243.466 47.6021 244.19 46.7106L242.638 45.4494C242.253 45.9232 241.655 46.298 240.749 46.5156L241.215 48.4604ZM243.414 45.08C239.568 45.08 236.596 44.5341 234.433 43.5119L233.579 45.3201C236.11 46.5166 239.41 47.08 243.414 47.08V45.08ZM234.447 43.5183C232.31 42.4695 230.771 40.8723 229.799 38.6964L227.973 39.5117C229.135 42.1143 231.008 44.0585 233.565 45.3137L234.447 43.5183ZM229.808 38.7159C228.855 36.4526 228.35 33.3995 228.35 29.504H226.35C226.35 33.5445 226.869 36.8914 227.964 39.4921L229.808 38.7159ZM228.35 29.504C228.35 26.1776 228.851 23.5929 229.784 21.6879L227.988 20.8081C226.873 23.0844 226.35 26.0038 226.35 29.504H228.35ZM229.78 21.6952C230.25 20.7563 230.822 20.1077 231.474 19.6899C232.122 19.2741 232.91 19.048 233.878 19.048V17.048C232.584 17.048 231.41 17.3553 230.394 18.0061C229.382 18.655 228.589 19.6064 227.992 20.8008L229.78 21.6952ZM233.878 19.048C235.694 19.048 236.831 19.5634 237.519 20.4077L239.069 19.1443C237.88 17.6846 236.072 17.048 233.878 17.048V19.048ZM237.545 20.4386C238.332 21.3285 238.766 22.5264 238.766 24.128H240.766C240.766 22.1456 240.218 20.4422 239.043 19.1134L237.545 20.4386ZM238.766 24.1053L238.702 26.9213L240.702 26.9667L240.766 24.1507L238.766 24.1053ZM238.705 26.8673C238.659 27.461 238.638 28.3024 238.638 29.376H240.638C240.638 28.3163 240.659 27.5363 240.699 27.0207L238.705 26.8673ZM238.638 29.376C238.638 31.4795 238.896 33.2141 239.504 34.4807L241.308 33.6153C240.892 32.7486 240.638 31.3685 240.638 29.376H238.638ZM239.512 34.4952C240.251 35.9747 241.714 36.584 243.478 36.584V34.584C242.17 34.584 241.585 34.1693 241.3 33.6008L239.512 34.4952ZM243.478 36.584C245.242 36.584 246.705 35.9747 247.444 34.4952L245.656 33.6008C245.371 34.1693 244.786 34.584 243.478 34.584V36.584ZM247.452 34.4807C248.059 33.2161 248.318 31.5047 248.318 29.44H246.318C246.318 31.386 246.065 32.7466 245.648 33.6153L247.452 34.4807ZM248.318 29.44C248.318 28.3664 248.297 27.525 248.251 26.9313L246.257 27.0847C246.297 27.6003 246.318 28.3803 246.318 29.44H248.318ZM248.254 26.9847L248.19 24.2327L246.19 24.2792L246.254 27.0312L248.254 26.9847ZM248.19 24.256C248.19 22.4957 248.619 21.2356 249.361 20.3579L247.835 19.0661C246.7 20.407 246.19 22.1763 246.19 24.256H248.19ZM249.347 20.3746C250.078 19.5483 251.253 19.048 253.078 19.048V17.048C250.892 17.048 249.081 17.6571 247.849 19.0494L249.347 20.3746ZM253.078 19.048C254.046 19.048 254.834 19.2741 255.482 19.6899C256.134 20.1077 256.706 20.7563 257.176 21.6952L258.964 20.8008C258.367 19.6064 257.574 18.655 256.562 18.0061C255.546 17.3553 254.372 17.048 253.078 17.048V19.048ZM257.176 21.6952C258.15 23.6444 258.67 26.2285 258.67 29.504H260.67C260.67 26.0382 260.123 23.1182 258.964 20.8008L257.176 21.6952ZM258.67 29.504C258.67 34.442 257.959 38.9601 256.548 43.0672L258.44 43.7168C259.931 39.3759 260.67 34.6353 260.67 29.504H258.67ZM256.546 43.0729C255.195 47.0846 252.976 50.3126 249.892 52.7881L251.144 54.3479C254.545 51.6181 256.977 48.062 258.442 43.7111L256.546 43.0729ZM249.887 52.7922C246.905 55.2176 242.985 56.472 238.038 56.472V58.472C243.331 58.472 247.731 57.1238 251.149 54.3438L249.887 52.7922ZM277.6 48.064L277.586 47.0641H277.586L277.6 48.064ZM269.344 46.144L268.86 47.0189L268.866 47.0225L269.344 46.144ZM263.712 40.704L262.841 41.195L262.846 41.2045L262.852 41.2138L263.712 40.704ZM261.6 32.896L260.6 32.9109L260.6 32.9184L260.6 32.9258L261.6 32.896ZM263.584 25.216L262.728 24.6991L263.584 25.216ZM269.28 19.84L268.809 18.958L268.802 18.9615L269.28 19.84ZM285.664 19.776L285.192 20.6575L285.198 20.6609L285.664 19.776ZM291.424 25.152L290.571 25.6734V25.6735L291.424 25.152ZM293.664 32.896L294.664 32.8806L294.664 32.8734L294.664 32.8662L293.664 32.896ZM291.68 40.512L292.536 41.0289L292.54 41.0218L291.68 40.512ZM285.92 45.952L285.437 45.0764L285.43 45.08L285.92 45.952ZM280.8 31.168L280.076 31.8577L280.084 31.8665L280.093 31.8751L280.8 31.168ZM274.784 31.168L275.491 31.8751L275.5 31.8665L275.508 31.8577L274.784 31.168ZM274.784 37.376L274.06 38.0657L274.784 37.376ZM277.586 47.0641C274.666 47.1046 272.087 46.4975 269.822 45.2655L268.866 47.0225C271.465 48.4359 274.39 49.1087 277.614 49.0639L277.586 47.0641ZM269.828 45.2691C267.591 44.0308 265.845 42.3421 264.572 40.1942L262.852 41.2138C264.31 43.6739 266.318 45.6119 268.86 47.0189L269.828 45.2691ZM264.583 40.213C263.345 38.0161 262.68 35.5732 262.6 32.8662L260.6 32.9258C260.69 35.9361 261.434 38.6986 262.841 41.195L264.583 40.213ZM262.6 32.8811C262.56 30.1936 263.179 27.8207 264.44 25.7329L262.728 24.6991C261.258 27.1339 260.555 29.881 260.6 32.9109L262.6 32.8811ZM264.44 25.7329C265.709 23.6309 267.474 21.9606 269.758 20.7185L268.802 18.9615C266.222 20.3648 264.19 22.2784 262.728 24.6991L264.44 25.7329ZM269.751 20.7219C272.068 19.484 274.677 18.856 277.6 18.856V16.856C274.379 16.856 271.442 17.5507 268.809 18.9581L269.751 20.7219ZM277.6 18.856C280.439 18.856 282.962 19.463 285.192 20.6575L286.136 18.8945C283.587 17.529 280.734 16.856 277.6 16.856V18.856ZM285.198 20.6609C287.474 21.8585 289.259 23.5262 290.571 25.6734L292.277 24.6306C290.773 22.1698 288.718 20.2535 286.13 18.8911L285.198 20.6609ZM290.571 25.6735C291.883 27.8202 292.584 30.2303 292.664 32.9258L294.664 32.8662C294.573 29.8444 293.781 27.0918 292.277 24.6305L290.571 25.6735ZM292.664 32.9114C292.704 35.507 292.087 37.8629 290.82 40.0022L292.54 41.0218C294.003 38.5531 294.709 35.8316 294.664 32.8806L292.664 32.9114ZM290.824 39.9951C289.556 42.0957 287.769 43.7897 285.437 45.0764L286.403 46.8276C289.02 45.3836 291.074 43.4509 292.536 41.0289L290.824 39.9951ZM285.43 45.08C283.16 46.3545 280.554 47.0234 277.586 47.0641L277.614 49.0639C280.875 49.0192 283.816 48.2802 286.41 46.824L285.43 45.08ZM277.792 39.72C279.239 39.72 280.498 39.1435 281.524 38.0657L280.076 36.6863C279.396 37.4005 278.649 37.72 277.792 37.72V39.72ZM281.524 38.0657C282.548 36.9911 283.08 35.7014 283.08 34.24H281.08C281.08 35.1679 280.759 35.9689 280.076 36.6863L281.524 38.0657ZM283.08 34.24C283.08 32.7771 282.546 31.4996 281.507 30.4609L280.093 31.8751C280.761 32.543 281.08 33.3136 281.08 34.24H283.08ZM281.524 30.4783C280.498 29.4005 279.239 28.824 277.792 28.824V30.824C278.649 30.824 279.396 31.1435 280.076 31.8577L281.524 30.4783ZM277.792 28.824C276.345 28.824 275.086 29.4005 274.06 30.4783L275.508 31.8577C276.188 31.1435 276.935 30.824 277.792 30.824V28.824ZM274.077 30.4609C273.038 31.4996 272.504 32.7771 272.504 34.24H274.504C274.504 33.3136 274.823 32.543 275.491 31.8751L274.077 30.4609ZM272.504 34.24C272.504 35.7014 273.036 36.9911 274.06 38.0657L275.508 36.6863C274.825 35.9689 274.504 35.1679 274.504 34.24H272.504ZM274.06 38.0657C275.086 39.1435 276.345 39.72 277.792 39.72V37.72C276.935 37.72 276.188 37.4005 275.508 36.6863L274.06 38.0657ZM302.896 45.696L302.338 46.5258L302.348 46.5327L302.896 45.696ZM297.456 39.168L296.54 39.5703L296.544 39.5787L296.548 39.5871L297.456 39.168ZM297.328 20.992L296.456 20.5017L297.328 20.992ZM307.504 25.536L308.501 25.6127L308.501 25.6072L307.504 25.536ZM307.376 27.008L306.381 26.9085L307.376 27.008ZM308.272 35.392L307.484 36.0083L308.272 35.392ZM313.904 35.456L313.116 34.8397L313.113 34.8446L313.904 35.456ZM314.864 27.328L313.87 27.4384L314.864 27.328ZM314.736 25.664L313.738 25.7195L313.738 25.7227L314.736 25.664ZM324.848 20.992L323.969 21.4683L323.975 21.4793L323.981 21.4901L324.848 20.992ZM322.608 43.008L323.391 43.6303L323.395 43.6254L322.608 43.008ZM311.088 47C308.146 47 305.61 46.2772 303.444 44.8593L302.348 46.5327C304.875 48.1868 307.801 49 311.088 49V47ZM303.454 44.8663C301.272 43.398 299.574 41.3697 298.364 38.7489L296.548 39.5871C297.898 42.5129 299.827 44.8366 302.338 46.5257L303.454 44.8663ZM298.372 38.7657C297.2 36.0985 296.6 32.9971 296.6 29.44H294.6C294.6 33.2215 295.238 36.6054 296.54 39.5703L298.372 38.7657ZM296.6 29.44C296.6 25.945 297.165 23.322 298.2 21.4823L296.456 20.5017C295.187 22.758 294.6 25.767 294.6 29.44H296.6ZM298.2 21.4823C299.206 19.6933 300.501 18.92 302.128 18.92V16.92C299.659 16.92 297.754 18.1947 296.456 20.5017L298.2 21.4823ZM302.128 18.92C303.781 18.92 304.839 19.3415 305.493 20.0108C306.151 20.6844 306.568 21.7804 306.568 23.488H308.568C308.568 21.4836 308.078 19.7956 306.923 18.6132C305.764 17.4265 304.101 16.92 302.128 16.92V18.92ZM306.568 23.488C306.568 24.2385 306.547 24.8966 306.507 25.4648L308.501 25.6072C308.546 24.9807 308.568 24.2735 308.568 23.488H306.568ZM306.507 25.4593C306.465 26.0085 306.423 26.4913 306.381 26.9085L308.371 27.1075C308.415 26.6714 308.458 26.1729 308.501 25.6127L306.507 25.4593ZM306.381 26.9085C306.209 28.6294 306.12 30.0321 306.12 31.104H308.12C308.12 30.1279 308.202 28.7999 308.371 27.1075L306.381 26.9085ZM306.12 31.104C306.12 33.0968 306.524 34.7816 307.484 36.0083L309.06 34.7757C308.484 34.0397 308.12 32.8659 308.12 31.104H306.12ZM307.484 36.0083C308.415 37.1978 309.63 37.864 311.088 37.864V35.864C310.327 35.864 309.665 35.5488 309.06 34.7757L307.484 36.0083ZM311.088 37.864C312.56 37.864 313.787 37.2427 314.695 36.0674L313.113 34.8446C312.57 35.5467 311.92 35.864 311.088 35.864V37.864ZM314.691 36.0723C315.654 34.8424 316.056 33.1332 316.056 31.104H314.056C314.056 32.9148 313.69 34.1069 313.116 34.8397L314.691 36.0723ZM316.056 31.104C316.056 29.7081 315.991 28.412 315.858 27.2176L313.87 27.4384C313.993 28.548 314.056 29.7693 314.056 31.104H316.056ZM315.858 27.2176C315.818 26.8597 315.777 26.3255 315.734 25.6053L313.738 25.7227C313.781 26.4531 313.825 27.0283 313.87 27.4384L315.858 27.2176ZM315.734 25.6085C315.693 24.8555 315.672 24.1703 315.672 23.552H313.672C313.672 24.2137 313.694 24.9365 313.738 25.7195L315.734 25.6085ZM315.672 23.552C315.672 21.8203 316.091 20.7067 316.751 20.0227C317.406 19.3452 318.462 18.92 320.112 18.92V16.92C318.136 16.92 316.472 17.4335 315.313 18.6333C314.16 19.8266 313.672 21.529 313.672 23.552H315.672ZM320.112 18.92C321.736 18.92 323.005 19.6891 323.969 21.4683L325.727 20.5157C324.472 18.1989 322.584 16.92 320.112 16.92V18.92ZM323.981 21.4901C325.01 23.2812 325.576 25.8978 325.576 29.44H327.576C327.576 25.7288 326.99 22.7135 325.715 20.4939L323.981 21.4901ZM325.576 29.44C325.576 34.9635 324.289 39.2458 321.821 42.3906L323.395 43.6254C326.217 40.0289 327.576 35.2659 327.576 29.44H325.576ZM321.825 42.3858C319.405 45.4299 315.881 47 311.088 47V49C316.365 49 320.52 47.2421 323.391 43.6302L321.825 42.3858ZM330.069 43.2L329.106 43.4697L329.109 43.4815L330.069 43.2ZM329.045 23.552L328.056 23.4072L328.054 23.4176L328.053 23.428L329.045 23.552ZM330.773 19.136L329.976 18.5316L329.973 18.536L330.773 19.136ZM338.197 18.112L337.671 18.9623L337.679 18.9677L337.688 18.9729L338.197 18.112ZM339.989 20.48L339.019 20.7225L339.424 22.3447L340.662 21.2199L339.989 20.48ZM343.637 18.56L343.912 19.5215V19.5215L343.637 18.56ZM352.597 18.944L352.161 19.8439L352.171 19.8488L352.597 18.944ZM356.181 21.76L355.395 22.3778L355.407 22.3934L355.42 22.4085L356.181 21.76ZM356.181 29.184L355.445 28.5069L355.444 28.5083L356.181 29.184ZM350.933 30.528L350.646 31.4858L350.658 31.4894L350.67 31.4928L350.933 30.528ZM349.781 30.144L349.41 31.0725L349.42 31.0765L349.43 31.0803L349.781 30.144ZM343.317 31.616L342.598 30.9206L342.598 30.921L343.317 31.616ZM341.205 42.24L342.199 42.3535L341.205 42.24ZM339.669 46.272L340.473 46.8672L340.478 46.8603L340.483 46.8532L339.669 46.272ZM335.573 47C334.418 47 333.519 46.668 332.806 46.0463C332.077 45.41 331.463 44.401 331.029 42.9185L329.109 43.4815C329.613 45.199 330.387 46.59 331.492 47.5537C332.614 48.532 333.997 49 335.573 49V47ZM331.032 42.9304C330.172 39.8581 329.725 35.5466 329.725 29.952H327.725C327.725 35.6214 328.174 40.1419 329.106 43.4696L331.032 42.9304ZM329.725 29.952C329.725 27.4155 329.831 25.3269 330.037 23.676L328.053 23.428C327.832 25.1904 327.725 27.3685 327.725 29.952H329.725ZM330.034 23.6968C330.271 22.0823 330.794 20.7745 331.573 19.736L329.973 18.536C328.96 19.8868 328.331 21.5231 328.056 23.4072L330.034 23.6968ZM331.57 19.7404C332.275 18.8111 333.372 18.28 335.061 18.28V16.28C332.91 16.28 331.149 16.9862 329.976 18.5316L331.57 19.7404ZM335.061 18.28C336.095 18.28 336.953 18.5181 337.671 18.9623L338.723 17.2617C337.649 16.5966 336.416 16.28 335.061 16.28V18.28ZM337.688 18.9729C338.405 19.3965 338.83 19.9675 339.019 20.7225L340.959 20.2375C340.636 18.9445 339.866 17.9368 338.706 17.2511L337.688 18.9729ZM340.662 21.2199C341.464 20.4907 342.534 19.9152 343.912 19.5215L343.362 17.5985C341.754 18.0581 340.392 18.7626 339.316 19.7401L340.662 21.2199ZM343.912 19.5215C345.307 19.1228 346.814 18.92 348.437 18.92V16.92C346.647 16.92 344.953 17.1439 343.362 17.5985L343.912 19.5215ZM348.437 18.92C349.631 18.92 350.869 19.2174 352.161 19.8438L353.033 18.0442C351.509 17.3052 349.974 16.92 348.437 16.92V18.92ZM352.171 19.8488C353.489 20.469 354.558 21.3123 355.395 22.3778L356.967 21.1422C355.927 19.8183 354.606 18.7844 353.023 18.0392L352.171 19.8488ZM355.42 22.4085C356.265 23.4005 356.653 24.4345 356.653 25.536H358.653C358.653 23.9068 358.06 22.4235 356.942 21.1115L355.42 22.4085ZM356.653 25.536C356.653 26.6341 356.268 27.6124 355.445 28.5069L356.917 29.8611C358.057 28.6223 358.653 27.1686 358.653 25.536H356.653ZM355.444 28.5083C354.721 29.2965 353.746 29.72 352.405 29.72V31.72C354.222 31.72 355.763 31.1195 356.918 29.8597L355.444 28.5083ZM352.405 29.72C351.977 29.72 351.575 29.6667 351.196 29.5632L350.67 31.4928C351.229 31.6453 351.809 31.72 352.405 31.72V29.72ZM351.22 29.5702C350.811 29.4473 350.448 29.3263 350.132 29.2077L349.43 31.0803C349.796 31.2177 350.202 31.3527 350.646 31.4858L351.22 29.5702ZM350.152 29.2155C349.26 28.8584 348.436 28.632 347.733 28.632V30.632C348.054 30.632 348.596 30.7469 349.41 31.0725L350.152 29.2155ZM347.733 28.632C345.768 28.632 344.045 29.426 342.598 30.9206L344.036 32.3114C345.149 31.1606 346.37 30.632 347.733 30.632V28.632ZM342.598 30.921C341.153 32.4156 340.461 34.3427 340.461 36.608H342.461C342.461 34.7773 343.006 33.3764 344.036 32.311L342.598 30.921ZM340.461 36.608C340.461 38.8483 340.376 40.6845 340.211 42.1265L342.199 42.3535C342.375 40.8088 342.461 38.8904 342.461 36.608H340.461ZM340.211 42.1265C340.06 43.4553 339.608 44.6376 338.855 45.6908L340.483 46.8532C341.437 45.5171 342.009 44.0113 342.199 42.3535L340.211 42.1265ZM338.865 45.6768C338.257 46.4988 337.241 47 335.573 47V49C337.66 49 339.375 48.3492 340.473 46.8672L338.865 45.6768ZM382.022 53.952L382.937 53.5493L382.934 53.5424L382.022 53.952ZM380.293 46.784L379.296 46.8474L379.296 46.8552L379.297 46.8631L380.293 46.784ZM380.422 27.264L379.428 27.1481L379.427 27.1563L379.426 27.1645L380.422 27.264ZM382.405 20.608L381.528 20.1291L382.405 20.608ZM391.814 20.352L390.947 20.8505L391.506 21.823L392.408 21.1562L391.814 20.352ZM395.461 18.624L395.744 19.5834L395.753 19.5808L395.761 19.578L395.461 18.624ZM407.685 19.968L407.176 20.8283V20.8283L407.685 19.968ZM413.19 25.472L414.05 24.9622L413.19 25.472ZM413.19 40.64L414.05 41.1498L414.054 41.1429L413.19 40.64ZM407.685 46.144L407.176 45.2837L407.685 46.144ZM395.461 47.552L395.154 48.5034L395.166 48.5076L395.179 48.5114L395.461 47.552ZM391.75 45.696L392.349 44.896L390.75 43.696V45.696H391.75ZM391.493 52.032L392.487 52.1455L391.493 52.032ZM390.086 55.68L389.312 55.0468L389.296 55.0658L389.281 55.0856L390.086 55.68ZM402.694 36.352L401.986 35.6449L402.694 36.352ZM402.694 30.528L401.969 31.2167L401.986 31.2353L402.005 31.253L402.694 30.528ZM396.87 36.352L396.145 37.0407L396.162 37.0593L396.181 37.077L396.87 36.352ZM386.565 56.152C385.699 56.152 385.005 55.9341 384.437 55.5344C383.863 55.1298 383.352 54.4919 382.937 53.5493L381.106 54.3547C381.63 55.5455 382.346 56.5076 383.286 57.1696C384.233 57.8366 385.342 58.152 386.565 58.152V56.152ZM382.934 53.5424C382.049 51.5729 381.496 49.2984 381.29 46.7049L379.297 46.8631C379.517 49.6456 380.116 52.1498 381.109 54.3616L382.934 53.5424ZM381.292 46.7206C381.123 44.0626 381.038 40.5449 381.038 36.16H379.038C379.038 40.5644 379.123 44.1294 379.296 46.8474L381.292 46.7206ZM381.038 36.16C381.038 32.813 381.165 29.8821 381.417 27.3635L379.426 27.1645C379.166 29.7659 379.038 32.7656 379.038 36.16H381.038ZM381.415 27.3799C381.702 24.9217 382.332 22.8312 383.283 21.0868L381.528 20.1291C380.431 22.1395 379.739 24.4863 379.428 27.1481L381.415 27.3799ZM383.283 21.0868C383.726 20.2763 384.256 19.7152 384.858 19.3525C385.458 18.9904 386.186 18.792 387.078 18.792V16.792C385.878 16.792 384.782 17.0629 383.825 17.6395C382.87 18.2154 382.109 19.0624 381.528 20.1291L383.283 21.0868ZM387.078 18.792C388.941 18.792 390.165 19.4917 390.947 20.8505L392.68 19.8535C391.499 17.7989 389.566 16.792 387.078 16.792V18.792ZM392.408 21.1562C393.276 20.5149 394.379 19.9846 395.744 19.5834L395.179 17.6646C393.642 18.1167 392.314 18.7385 391.219 19.5478L392.408 21.1562ZM395.761 19.578C397.154 19.1402 398.61 18.92 400.134 18.92V16.92C398.414 16.92 396.755 17.1691 395.162 17.67L395.761 19.578ZM400.134 18.92C402.688 18.92 405.029 19.5563 407.176 20.8283L408.195 19.1077C405.734 17.6491 403.04 16.92 400.134 16.92V18.92ZM407.176 20.8283C409.335 22.1081 411.049 23.8222 412.329 25.9818L414.05 24.9622C412.599 22.5138 410.644 20.5586 408.195 19.1077L407.176 20.8283ZM412.329 25.9818C413.601 28.1283 414.237 30.469 414.237 33.024H416.237C416.237 30.1176 415.508 27.4237 414.05 24.9622L412.329 25.9818ZM414.237 33.024C414.237 35.5791 413.601 37.9441 412.325 40.1371L414.054 41.1429C415.509 38.6426 416.237 35.9303 416.237 33.024H414.237ZM412.329 40.1302C411.049 42.2898 409.335 44.0039 407.176 45.2837L408.195 47.0043C410.644 45.5534 412.599 43.5982 414.05 41.1498L412.329 40.1302ZM407.176 45.2837C405.029 46.5557 402.688 47.192 400.134 47.192V49.192C403.04 49.192 405.734 48.4629 408.195 47.0043L407.176 45.2837ZM400.134 47.192C398.556 47.192 397.094 46.9898 395.744 46.5926L395.179 48.5114C396.73 48.9675 398.383 49.192 400.134 49.192V47.192ZM395.769 46.6006C394.404 46.1589 393.27 45.5864 392.349 44.896L391.15 46.496C392.277 47.3416 393.617 48.0064 395.154 48.5034L395.769 46.6006ZM390.75 45.696C390.75 48.414 390.664 50.4815 390.5 51.9185L392.487 52.1455C392.664 50.5958 392.75 48.4394 392.75 45.696H390.75ZM390.5 51.9185C390.346 53.2668 389.932 54.2886 389.312 55.0468L390.859 56.3132C391.775 55.194 392.3 53.7839 392.487 52.1455L390.5 51.9185ZM389.281 55.0856C388.803 55.7326 387.983 56.152 386.565 56.152V58.152C388.391 58.152 389.917 57.5901 390.89 56.2744L389.281 55.0856ZM399.814 38.568C401.198 38.568 402.409 38.0503 403.401 37.0591L401.986 35.6449C401.356 36.275 400.648 36.568 399.814 36.568V38.568ZM403.401 37.0591C404.423 36.0364 404.974 34.8072 404.974 33.408H402.974C402.974 34.2275 402.67 34.9609 401.986 35.6449L403.401 37.0591ZM404.974 33.408C404.974 32.0064 404.421 30.7896 403.382 29.803L402.005 31.253C402.673 31.8878 402.974 32.5909 402.974 33.408H404.974ZM403.418 29.8393C402.432 28.8008 401.215 28.248 399.814 28.248V30.248C400.631 30.248 401.334 30.5486 401.969 31.2167L403.418 29.8393ZM399.814 28.248C398.414 28.248 397.185 28.7982 396.162 29.8209L397.577 31.2351C398.261 30.5512 398.994 30.248 399.814 30.248V28.248ZM396.162 29.8209C395.171 30.8121 394.654 32.0237 394.654 33.408H396.654C396.654 32.5736 396.946 31.8652 397.577 31.2351L396.162 29.8209ZM394.654 33.408C394.654 34.7904 395.169 36.014 396.145 37.0407L397.595 35.6632C396.949 34.9833 396.654 34.2443 396.654 33.408H394.654ZM396.181 37.077C397.207 38.0524 398.431 38.568 399.814 38.568V36.568C398.977 36.568 398.238 36.273 397.558 35.627L396.181 37.077ZM420.589 14.72L419.861 15.4067L419.871 15.4168L420.589 14.72ZM420.589 3.712L421.306 4.40885L421.316 4.39862L420.589 3.712ZM431.148 3.712L430.421 4.39862L430.431 4.40901L430.441 4.4191L431.148 3.712ZM431.148 14.72L430.432 14.0229L430.431 14.0232L431.148 14.72ZM421.996 46.528L421.212 47.1487L421.227 47.1668L421.242 47.1842L421.996 46.528ZM420.332 41.984L419.34 42.108L419.342 42.1197L419.343 42.1313L420.332 41.984ZM420.397 25.792L419.413 25.6091L419.411 25.6202L419.409 25.6313L420.397 25.792ZM422.189 21.696L422.913 22.3857L422.189 21.696ZM429.741 21.888L428.956 22.5087L428.971 22.5268L428.986 22.5442L429.741 21.888ZM431.405 26.432L430.412 26.556L430.414 26.5677L430.415 26.5793L431.405 26.432ZM431.341 42.56L430.357 42.3771L430.355 42.3882L430.353 42.3993L431.341 42.56ZM429.612 46.656L428.888 45.9663L429.612 46.656ZM425.901 15.96C424.079 15.96 422.567 15.3218 421.306 14.0232L419.871 15.4168C421.511 17.1049 423.541 17.96 425.901 17.96V15.96ZM421.316 14.0334C420.046 12.6891 419.413 11.0811 419.413 9.152H417.413C417.413 11.5749 418.23 13.6789 419.861 15.4066L421.316 14.0334ZM419.413 9.152C419.413 7.2717 420.041 5.71041 421.306 4.40878L419.871 3.01521C418.234 4.70026 417.413 6.76563 417.413 9.152H419.413ZM421.316 4.39862C422.58 3.06025 424.088 2.408 425.901 2.408V0.407997C423.531 0.407997 421.499 1.29175 419.861 3.02537L421.316 4.39862ZM425.901 2.408C427.664 2.408 429.153 3.05551 430.421 4.39862L431.876 3.02537C430.243 1.29649 428.233 0.407997 425.901 0.407997V2.408ZM430.441 4.4191C431.745 5.72277 432.388 7.28086 432.388 9.152H434.388C434.388 6.75648 433.539 4.68789 431.856 3.00489L430.441 4.4191ZM432.388 9.152C432.388 11.0722 431.74 12.6768 430.432 14.0229L431.866 15.4171C433.543 13.6912 434.388 11.5838 434.388 9.152H432.388ZM430.431 14.0232C429.165 15.3263 427.673 15.96 425.901 15.96V17.96C428.224 17.96 430.23 17.1003 431.866 15.4168L430.431 14.0232ZM425.901 47C424.335 47 423.355 46.5662 422.751 45.8718L421.242 47.1842C422.345 48.4525 423.967 49 425.901 49V47ZM422.781 45.9073C422.123 45.0761 421.607 43.7563 421.322 41.8367L419.343 42.1313C419.655 44.2224 420.249 45.9319 421.212 47.1487L422.781 45.9073ZM421.325 41.86C421.076 39.8736 420.948 37.0209 420.948 33.28H418.948C418.948 37.0485 419.077 39.9984 419.34 42.108L421.325 41.86ZM420.948 33.28C420.948 30.1449 421.097 27.7102 421.384 25.9527L419.409 25.6313C419.098 27.5432 418.948 30.1005 418.948 33.28H420.948ZM421.38 25.9749C421.702 24.2403 422.245 23.087 422.913 22.3857L421.464 21.0063C420.426 22.097 419.773 23.6744 419.413 25.6091L421.38 25.9749ZM422.913 22.3857C423.524 21.7442 424.464 21.352 425.901 21.352V19.352C424.094 19.352 422.56 19.8558 421.464 21.0063L422.913 22.3857ZM425.901 21.352C427.455 21.352 428.395 21.7997 428.956 22.5087L430.525 21.2673C429.465 19.9283 427.844 19.352 425.901 19.352V21.352ZM428.986 22.5442C429.653 23.3113 430.168 24.5989 430.412 26.556L432.397 26.308C432.129 24.1691 431.535 22.4273 430.495 21.2318L428.986 22.5442ZM430.415 26.5793C430.703 28.511 430.853 31.3326 430.853 35.072H432.853C432.853 31.302 432.703 28.3637 432.394 26.2847L430.415 26.5793ZM430.853 35.072C430.853 38.2038 430.682 40.6299 430.357 42.3771L432.324 42.7429C432.681 40.8207 432.853 38.2549 432.853 35.072H430.853ZM430.353 42.3993C430.072 44.1291 429.549 45.2725 428.888 45.9663L430.337 47.3457C431.383 46.2475 432.012 44.6603 432.328 42.7207L430.353 42.3993ZM428.888 45.9663C428.277 46.6078 427.337 47 425.901 47V49C427.707 49 429.241 48.4962 430.337 47.3457L428.888 45.9663ZM439.288 45.504L438.459 46.0639L439.288 45.504ZM437.112 38.528L436.118 38.6369L436.119 38.6445L436.12 38.652L437.112 38.528ZM436.984 13.056L435.989 12.9565L435.988 12.9635L435.988 12.9706L436.984 13.056ZM439.032 5.888L438.182 5.36164L438.177 5.36904L438.173 5.37651L439.032 5.888ZM449.208 5.888L448.349 6.39948L448.353 6.40695L448.358 6.41435L449.208 5.888ZM451.256 13.056L450.26 13.1414L450.26 13.1485L450.261 13.1555L451.256 13.056ZM451 38.272L450.01 38.1287L450.009 38.1398L451 38.272ZM448.696 45.504L449.514 46.079L449.521 46.0687L448.696 45.504ZM444.088 46.872C442.24 46.872 440.973 46.2111 440.117 44.9441L438.459 46.0639C439.737 47.9542 441.669 48.872 444.088 48.872V46.872ZM440.117 44.9441C439.176 43.5528 438.48 41.4064 438.104 38.404L436.12 38.652C436.512 41.7936 437.266 44.2979 438.459 46.0639L440.117 44.9441ZM438.106 38.4191C437.771 35.3579 437.6 31.0694 437.6 25.536H435.6C435.6 31.096 435.771 35.4687 436.118 38.6369L438.106 38.4191ZM437.6 25.536C437.6 20.2129 437.728 16.086 437.98 13.1414L435.988 12.9706C435.728 15.9994 435.6 20.1924 435.6 25.536H437.6ZM437.979 13.1555C438.269 10.2552 438.925 8.02304 439.891 6.39948L438.173 5.37651C437.006 7.33695 436.296 9.88345 435.989 12.9565L437.979 13.1555ZM439.882 6.41435C440.79 4.94827 442.156 4.2 444.152 4.2V2.2C441.54 2.2 439.493 3.24372 438.182 5.36164L439.882 6.41435ZM444.152 4.2C446.148 4.2 447.484 4.94676 448.349 6.39948L450.067 5.37651C448.799 3.24524 446.764 2.2 444.152 2.2V4.2ZM448.358 6.41435C449.357 8.02861 450.012 10.2494 450.26 13.1414L452.252 12.9706C451.988 9.88928 451.278 7.33138 450.058 5.36164L448.358 6.41435ZM450.261 13.1555C450.555 16.0932 450.704 20.2147 450.704 25.536H452.704C452.704 20.1907 452.555 15.9922 452.251 12.9565L450.261 13.1555ZM450.704 25.536C450.704 30.7609 450.47 34.953 450.01 38.1288L451.99 38.4152C452.469 35.1057 452.704 30.8071 452.704 25.536H450.704ZM450.009 38.1398C449.591 41.2728 448.852 43.5047 447.871 44.9393L449.521 46.0687C450.758 44.2607 451.556 41.6712 451.991 38.4042L450.009 38.1398ZM447.878 44.9291C446.96 46.2358 445.732 46.872 444.088 46.872V48.872C446.37 48.872 448.214 47.9295 449.514 46.0789L447.878 44.9291ZM457.6 45.504L456.772 46.0639L457.6 45.504ZM455.424 38.528L454.43 38.6369L454.431 38.6445L454.432 38.652L455.424 38.528ZM455.297 13.056L454.301 12.9565L454.301 12.9635L454.3 12.9706L455.297 13.056ZM457.345 5.888L456.494 5.36164L456.49 5.36904L456.485 5.37651L457.345 5.888ZM467.521 5.888L466.661 6.39948L466.666 6.40695L466.67 6.41435L467.521 5.888ZM469.569 13.056L468.572 13.1414L468.573 13.1485L468.573 13.1555L469.569 13.056ZM469.312 38.272L468.323 38.1287L468.321 38.1398L469.312 38.272ZM467.009 45.504L467.827 46.079L467.834 46.0687L467.009 45.504ZM462.401 46.872C460.553 46.872 459.285 46.2111 458.429 44.9441L456.772 46.0639C458.049 47.9542 459.982 48.872 462.401 48.872V46.872ZM458.429 44.9441C457.489 43.5528 456.792 41.4064 456.417 38.404L454.432 38.652C454.825 41.7936 455.579 44.2979 456.772 46.0639L458.429 44.9441ZM456.419 38.4191C456.083 35.3579 455.913 31.0694 455.913 25.536H453.913C453.913 31.096 454.083 35.4687 454.43 38.6369L456.419 38.4191ZM455.913 25.536C455.913 20.2129 456.04 16.086 456.293 13.1414L454.3 12.9706C454.041 15.9994 453.913 20.1924 453.913 25.536H455.913ZM456.292 13.1555C456.582 10.2552 457.237 8.02304 458.204 6.39948L456.485 5.37651C455.318 7.33695 454.609 9.88345 454.301 12.9565L456.292 13.1555ZM458.195 6.41435C459.102 4.94827 460.468 4.2 462.465 4.2V2.2C459.853 2.2 457.805 3.24372 456.494 5.36164L458.195 6.41435ZM462.465 4.2C464.46 4.2 465.796 4.94676 466.661 6.39948L468.38 5.37651C467.111 3.24524 465.077 2.2 462.465 2.2V4.2ZM466.67 6.41435C467.67 8.02861 468.324 10.2494 468.572 13.1414L470.565 12.9706C470.301 9.88928 469.59 7.33138 468.371 5.36164L466.67 6.41435ZM468.573 13.1555C468.867 16.0932 469.017 20.2147 469.017 25.536H471.017C471.017 20.1907 470.867 15.9922 470.564 12.9565L468.573 13.1555ZM469.017 25.536C469.017 30.7609 468.782 34.953 468.323 38.1288L470.302 38.4152C470.781 35.1057 471.017 30.8071 471.017 25.536H469.017ZM468.321 38.1398C467.904 41.2728 467.165 43.5047 466.183 44.9393L467.834 46.0687C469.071 44.2607 469.868 41.6712 470.304 38.4042L468.321 38.1398ZM466.19 44.9291C465.272 46.2358 464.044 46.872 462.401 46.872V48.872C464.682 48.872 466.526 47.9295 467.827 46.0789L466.19 44.9291Z" fill="black" mask="url(#path-1-outside-1_30265_17305)"/>
</svg>
