<svg width="240" height="32" viewBox="0 0 240 32" fill="none" xmlns="http://www.w3.org/2000/svg">
  <mask id="path-1-outside-1_30265_17306" maskUnits="userSpaceOnUse" x="0" y="0" width="240" height="32" fill="black">
    <rect fill="white" width="240" height="32"/>
    <path d="M12.1823 15.224C14.1663 15.8 15.6276 16.5787 16.5662 17.56C17.5049 18.52 17.9743 19.7573 17.9743 21.272C17.9743 22.8933 17.3876 24.1947 16.2143 25.176C15.0623 26.1573 13.4196 26.7547 11.2863 26.968C11.2436 27.8427 11.1689 28.4933 11.0623 28.92C10.9556 29.368 10.8169 29.6667 10.6463 29.816C10.4969 29.9653 10.2836 30.04 10.0063 30.04C9.60092 30.04 9.30225 29.8373 9.11025 29.432C8.93958 29.048 8.81158 28.2373 8.72625 27C7.42492 26.9147 6.19825 26.6693 5.04625 26.264C3.89425 25.8587 2.96625 25.3147 2.26225 24.632C1.55825 23.9493 1.20625 23.1813 1.20625 22.328C1.20625 21.4533 1.47292 20.76 2.00625 20.248C2.53958 19.736 3.21158 19.48 4.02225 19.48C4.47025 19.48 4.89692 19.5973 5.30225 19.832C5.70758 20.0667 6.19825 20.4187 6.77425 20.888C7.54225 21.528 8.15025 21.9547 8.59825 22.168C8.57692 21.5493 8.56625 20.5253 8.56625 19.096L6.80625 18.488C4.95025 17.8693 3.55292 17.048 2.61425 16.024C1.67558 15 1.20625 13.5813 1.20625 11.768C1.20625 10.6373 1.52625 9.57067 2.16625 8.568C2.82758 7.544 3.72358 6.69067 4.85425 6.008C6.00625 5.32533 7.28625 4.89867 8.69425 4.728C8.73692 3.68266 8.81158 2.904 8.91825 2.392C9.02492 1.88 9.15292 1.53867 9.30225 1.368C9.47292 1.19733 9.70758 1.112 10.0063 1.112C10.3049 1.112 10.5289 1.19733 10.6783 1.368C10.8489 1.53867 10.9876 1.88 11.0943 2.392C11.2009 2.904 11.2756 3.672 11.3183 4.696C12.7049 4.824 13.9529 5.16533 15.0623 5.72C16.1929 6.27467 17.0783 6.968 17.7183 7.8C18.3583 8.632 18.6783 9.51733 18.6783 10.456C18.6783 11.6293 18.3263 12.5147 17.6223 13.112C16.9396 13.688 16.1716 13.976 15.3183 13.976C14.6356 13.976 14.0383 13.8693 13.5263 13.656C13.0143 13.4213 12.5663 13.176 12.1823 12.92C11.8196 12.664 11.5743 12.4933 11.4463 12.408V15C11.5956 15.064 11.8409 15.1387 12.1823 15.224ZM7.22225 13.048C7.22225 13.304 7.32892 13.5173 7.54225 13.688C7.75558 13.8587 8.09692 14.0293 8.56625 14.2V11.768C8.11825 11.8533 7.77692 12.0133 7.54225 12.248C7.32892 12.4827 7.22225 12.7493 7.22225 13.048ZM11.4143 22.456C11.8196 22.3493 12.1289 22.1893 12.3423 21.976C12.5556 21.7627 12.6623 21.5067 12.6623 21.208C12.6623 20.9947 12.5663 20.8027 12.3743 20.632C12.1823 20.44 11.8729 20.2587 11.4463 20.088L11.4143 22.456ZM30.8608 26.968C27.3194 26.9467 24.6634 26.072 22.8928 24.344C21.1434 22.616 20.2688 19.8107 20.2688 15.928C20.2688 12.408 21.1221 9.64533 22.8288 7.64C24.5354 5.61333 26.9461 4.6 30.0608 4.6C31.9808 4.6 33.6554 4.888 35.0848 5.464C36.5141 6.04 37.6128 6.86133 38.3808 7.928C39.1488 8.99467 39.5328 10.2533 39.5328 11.704C39.5328 12.856 39.2768 13.88 38.7648 14.776C38.2741 15.672 37.5381 16.472 36.5568 17.176C37.3461 17.304 38.0288 17.7307 38.6048 18.456C39.2021 19.1813 39.5008 20.024 39.5008 20.984C39.5008 22.008 39.2234 22.9787 38.6688 23.896C38.1354 24.792 37.2181 25.528 35.9167 26.104C34.6368 26.68 32.9514 26.968 30.8608 26.968ZM28.6528 15.032C29.0368 15.224 29.5168 15.32 30.0928 15.32C30.7754 15.32 31.3621 15.16 31.8528 14.84C32.3648 14.4987 32.6208 13.9973 32.6208 13.336C32.6208 12.696 32.3648 12.216 31.8528 11.896C31.3621 11.5547 30.7648 11.384 30.0608 11.384C29.5061 11.384 29.0368 11.48 28.6528 11.672C28.3541 11.8 28.1301 12.024 27.9808 12.344C27.8314 12.664 27.7568 13.0053 27.7568 13.368C27.7568 13.7307 27.8314 14.072 27.9808 14.392C28.1301 14.6907 28.3541 14.904 28.6528 15.032ZM28.6528 22.52C29.0581 22.6907 29.5381 22.776 30.0928 22.776C30.7754 22.776 31.3621 22.6373 31.8528 22.36C32.3648 22.0613 32.6208 21.624 32.6208 21.048C32.6208 20.4933 32.3648 20.0667 31.8528 19.768C31.3408 19.4693 30.7434 19.32 30.0608 19.32C29.5274 19.32 29.0581 19.4053 28.6528 19.576C28.3541 19.704 28.1301 19.9067 27.9808 20.184C27.8314 20.44 27.7568 20.728 27.7568 21.048C27.7568 21.368 27.8314 21.6667 27.9808 21.944C28.1301 22.2 28.3541 22.392 28.6528 22.52ZM57.1118 21.88C58.1358 22.2 58.6478 22.872 58.6478 23.896C58.6478 24.856 58.1571 25.6133 57.1758 26.168C56.1944 26.7227 54.4984 27 52.0878 27C49.0798 27 46.4984 26.2747 44.3438 24.824C42.2104 23.3733 41.1438 20.4933 41.1438 16.184C41.1438 14.008 41.5171 12.0453 42.2638 10.296C43.0104 8.54667 44.1198 7.16 45.5918 6.136C47.0851 5.112 48.9091 4.6 51.0638 4.6C53.9438 4.6 55.9704 5.048 57.1438 5.944C58.3171 6.81867 58.9038 7.896 58.9038 9.176C58.9038 9.77333 58.7544 10.328 58.4558 10.84C58.1571 11.3307 57.7091 11.7147 57.1118 11.992C56.5998 12.248 55.9384 12.376 55.1278 12.376L54.2638 12.344C54.0931 12.3227 53.8478 12.312 53.5278 12.312C52.4184 12.312 51.5438 12.5147 50.9038 12.92C50.2638 13.304 49.8264 13.9013 49.5918 14.712C50.4878 14.6693 51.2984 14.648 52.0238 14.648C54.1784 14.648 55.5758 14.712 56.2158 14.84C56.9411 14.9893 57.4958 15.2773 57.8798 15.704C58.2851 16.1307 58.4878 16.632 58.4878 17.208C58.4878 17.784 58.2958 18.2853 57.9118 18.712C57.5278 19.1173 56.9518 19.3947 56.1838 19.544C55.5864 19.672 54.1358 19.736 51.8318 19.736C50.8931 19.736 50.2318 19.7253 49.8478 19.704C50.5091 21.112 51.7464 21.816 53.5598 21.816C53.6664 21.816 53.9118 21.7947 54.2958 21.752C54.8078 21.7093 55.2451 21.688 55.6078 21.688C56.2264 21.688 56.7278 21.752 57.1118 21.88ZM79.3498 13.656C79.3498 15.2133 79.1151 16.5893 78.6458 17.784C78.1978 18.9787 77.5578 19.9813 76.7257 20.792C77.4298 21.88 77.7818 22.936 77.7818 23.96C77.7818 24.8347 77.4404 25.56 76.7578 26.136C76.0964 26.712 75.3391 27 74.4858 27C73.9951 27 73.5471 26.9253 73.1418 26.776C72.7364 26.6267 72.2991 26.3707 71.8298 26.008C71.4244 25.688 71.0404 25.2507 70.6778 24.696C70.3151 24.1413 70.0271 23.5653 69.8138 22.968C69.1098 22.8827 68.4058 22.7013 67.7018 22.424C67.8298 23.1067 67.8938 23.6293 67.8938 23.992C67.8938 26.0187 66.8378 27.032 64.7258 27.032C62.9551 27.032 61.7071 25.9973 60.9818 23.928C60.2564 21.8587 59.8938 19.3307 59.8938 16.344C59.8938 14.3173 60.2564 12.4187 60.9818 10.648C61.7284 8.856 62.8591 7.416 64.3738 6.328C65.8884 5.21867 67.7338 4.664 69.9098 4.664C71.6591 4.664 73.2484 5.03733 74.6778 5.784C76.1071 6.50933 77.2378 7.55467 78.0698 8.92C78.9231 10.2853 79.3498 11.864 79.3498 13.656ZM67.3818 15.16C67.3818 15.8853 67.6698 16.5253 68.2458 17.08C68.8218 17.6133 69.4831 17.88 70.2298 17.88C70.9978 17.88 71.6591 17.6133 72.2138 17.08C72.7898 16.5253 73.0778 15.8853 73.0778 15.16C73.0778 14.4133 72.7898 13.7733 72.2138 13.24C71.6591 12.6853 70.9978 12.408 70.2298 12.408C69.4831 12.408 68.8218 12.6853 68.2458 13.24C67.6698 13.7947 67.3818 14.4347 67.3818 15.16ZM85.3233 27.064C83.8939 27.064 82.7419 26.3707 81.8673 24.984C81.0139 23.576 80.5126 21.6773 80.3633 19.288C80.3419 18.9467 80.3313 18.4453 80.3313 17.784C80.3313 15.2027 80.7579 12.92 81.6113 10.936C82.4646 8.93067 83.6699 7.384 85.2273 6.296C86.8059 5.18667 88.6406 4.632 90.7313 4.632C92.8219 4.632 94.6459 5.18667 96.2033 6.296C97.7819 7.384 98.9873 8.92 99.8193 10.904C100.673 12.888 101.099 15.1813 101.099 17.784C101.099 18.4453 101.089 18.9467 101.067 19.288C100.918 21.72 100.417 23.6187 99.5633 24.984C98.7099 26.3493 97.5579 27.032 96.1073 27.032C94.9339 27.032 94.1126 26.712 93.6433 26.072C93.1953 25.432 92.9713 24.6533 92.9713 23.736C92.9713 23.3093 93.0033 22.936 93.0673 22.616C91.9579 22.6587 90.9766 22.68 90.1233 22.68C89.5899 22.68 89.0033 22.6587 88.3633 22.616C88.4273 22.936 88.4593 23.3093 88.4593 23.736C88.4593 24.6747 88.2246 25.464 87.7552 26.104C87.3073 26.744 86.4966 27.064 85.3233 27.064ZM88.1393 16.92C89.2913 16.8773 90.1339 16.856 90.6673 16.856C91.2433 16.856 92.0859 16.8773 93.1953 16.92C93.2379 16.6853 93.2593 16.3333 93.2593 15.864C93.2593 14.8613 93.0459 14.0507 92.6193 13.432C92.1926 12.792 91.5313 12.472 90.6353 12.472C89.7606 12.472 89.1099 12.7813 88.6833 13.4C88.2566 14.0187 88.0433 14.8187 88.0433 15.8C88.0433 16.1627 88.0753 16.536 88.1393 16.92ZM120.3 27.032C118.764 27.0533 117.388 26.7333 116.172 26.072C114.977 25.4107 114.039 24.504 113.356 23.352C112.695 22.1787 112.343 20.8773 112.3 19.448C112.279 18.0187 112.609 16.7387 113.292 15.608C113.975 14.4773 114.924 13.5813 116.14 12.92C117.377 12.2587 118.764 11.928 120.3 11.928C121.793 11.928 123.137 12.248 124.332 12.888C125.548 13.528 126.508 14.424 127.212 15.576C127.916 16.728 128.289 18.0187 128.332 19.448C128.353 20.8347 128.023 22.104 127.34 23.256C126.657 24.3867 125.697 25.2933 124.46 25.976C123.244 26.6587 121.857 27.0107 120.3 27.032ZM120.396 22.36C120.972 22.36 121.473 22.136 121.9 21.688C122.327 21.24 122.54 20.7173 122.54 20.12C122.54 19.5227 122.327 19.0107 121.9 18.584C121.473 18.136 120.972 17.912 120.396 17.912C119.82 17.912 119.319 18.136 118.892 18.584C118.465 19.0107 118.252 19.5227 118.252 20.12C118.252 20.7173 118.465 21.24 118.892 21.688C119.319 22.136 119.82 22.36 120.396 22.36ZM133.036 27C131.671 27 130.754 26.2 130.285 24.6C129.837 23 129.613 20.792 129.613 17.976C129.613 16.696 129.666 15.6293 129.773 14.776C129.901 13.9013 130.189 13.1653 130.637 12.568C131.106 11.9493 131.821 11.64 132.781 11.64C133.378 11.64 133.901 11.7787 134.349 12.056C134.818 12.3333 135.117 12.728 135.245 13.24C135.714 12.8133 136.322 12.4933 137.069 12.28C137.815 12.0667 138.615 11.96 139.469 11.96C140.151 11.96 140.845 12.1307 141.549 12.472C142.274 12.8133 142.871 13.2827 143.341 13.88C143.831 14.456 144.077 15.0853 144.077 15.768C144.077 16.4507 143.831 17.0587 143.341 17.592C142.871 18.104 142.242 18.36 141.453 18.36C141.197 18.36 140.951 18.328 140.717 18.264C140.503 18.2 140.311 18.136 140.141 18.072C139.714 17.9013 139.373 17.816 139.117 17.816C138.285 17.816 137.549 18.1467 136.909 18.808C136.29 19.448 135.981 20.28 135.981 21.304C135.981 22.4347 135.938 23.3733 135.853 24.12C135.767 24.8667 135.511 25.5387 135.085 26.136C134.658 26.712 133.975 27 133.036 27ZM166.245 15.224C168.229 15.8 169.69 16.5787 170.629 17.56C171.567 18.52 172.037 19.7573 172.037 21.272C172.037 22.8933 171.45 24.1947 170.277 25.176C169.125 26.1573 167.482 26.7547 165.349 26.968C165.306 27.8427 165.231 28.4933 165.125 28.92C165.018 29.368 164.879 29.6667 164.709 29.816C164.559 29.9653 164.346 30.04 164.069 30.04C163.663 30.04 163.365 29.8373 163.173 29.432C163.002 29.048 162.874 28.2373 162.789 27C161.487 26.9147 160.261 26.6693 159.109 26.264C157.957 25.8587 157.029 25.3147 156.325 24.632C155.621 23.9493 155.269 23.1813 155.269 22.328C155.269 21.4533 155.535 20.76 156.069 20.248C156.602 19.736 157.274 19.48 158.085 19.48C158.533 19.48 158.959 19.5973 159.365 19.832C159.77 20.0667 160.261 20.4187 160.837 20.888C161.605 21.528 162.213 21.9547 162.661 22.168C162.639 21.5493 162.629 20.5253 162.629 19.096L160.869 18.488C159.013 17.8693 157.615 17.048 156.677 16.024C155.738 15 155.269 13.5813 155.269 11.768C155.269 10.6373 155.589 9.57067 156.229 8.568C156.89 7.544 157.786 6.69067 158.917 6.008C160.069 5.32533 161.349 4.89867 162.757 4.728C162.799 3.68266 162.874 2.904 162.981 2.392C163.087 1.88 163.215 1.53867 163.365 1.368C163.535 1.19733 163.77 1.112 164.069 1.112C164.367 1.112 164.591 1.19733 164.741 1.368C164.911 1.53867 165.05 1.88 165.157 2.392C165.263 2.904 165.338 3.672 165.381 4.696C166.767 4.824 168.015 5.16533 169.125 5.72C170.255 6.27467 171.141 6.968 171.781 7.8C172.421 8.632 172.741 9.51733 172.741 10.456C172.741 11.6293 172.389 12.5147 171.685 13.112C171.002 13.688 170.234 13.976 169.381 13.976C168.698 13.976 168.101 13.8693 167.589 13.656C167.077 13.4213 166.629 13.176 166.245 12.92C165.882 12.664 165.637 12.4933 165.509 12.408V15C165.658 15.064 165.903 15.1387 166.245 15.224ZM161.285 13.048C161.285 13.304 161.391 13.5173 161.605 13.688C161.818 13.8587 162.159 14.0293 162.629 14.2V11.768C162.181 11.8533 161.839 12.0133 161.605 12.248C161.391 12.4827 161.285 12.7493 161.285 13.048ZM165.477 22.456C165.882 22.3493 166.191 22.1893 166.405 21.976C166.618 21.7627 166.725 21.5067 166.725 21.208C166.725 20.9947 166.629 20.8027 166.437 20.632C166.245 20.44 165.935 20.2587 165.509 20.088L165.477 22.456ZM184.923 26.968C181.382 26.9467 178.726 26.072 176.955 24.344C175.206 22.616 174.331 19.8107 174.331 15.928C174.331 12.408 175.185 9.64533 176.891 7.64C178.598 5.61333 181.009 4.6 184.123 4.6C186.043 4.6 187.718 4.888 189.147 5.464C190.577 6.04 191.675 6.86133 192.443 7.928C193.211 8.99467 193.595 10.2533 193.595 11.704C193.595 12.856 193.339 13.88 192.827 14.776C192.337 15.672 191.601 16.472 190.619 17.176C191.409 17.304 192.091 17.7307 192.667 18.456C193.265 19.1813 193.563 20.024 193.563 20.984C193.563 22.008 193.286 22.9787 192.731 23.896C192.198 24.792 191.281 25.528 189.979 26.104C188.699 26.68 187.014 26.968 184.923 26.968ZM182.715 15.032C183.099 15.224 183.579 15.32 184.155 15.32C184.838 15.32 185.425 15.16 185.915 14.84C186.427 14.4987 186.683 13.9973 186.683 13.336C186.683 12.696 186.427 12.216 185.915 11.896C185.425 11.5547 184.827 11.384 184.123 11.384C183.569 11.384 183.099 11.48 182.715 11.672C182.417 11.8 182.193 12.024 182.043 12.344C181.894 12.664 181.819 13.0053 181.819 13.368C181.819 13.7307 181.894 14.072 182.043 14.392C182.193 14.6907 182.417 14.904 182.715 15.032ZM182.715 22.52C183.121 22.6907 183.601 22.776 184.155 22.776C184.838 22.776 185.425 22.6373 185.915 22.36C186.427 22.0613 186.683 21.624 186.683 21.048C186.683 20.4933 186.427 20.0667 185.915 19.768C185.403 19.4693 184.806 19.32 184.123 19.32C183.59 19.32 183.121 19.4053 182.715 19.576C182.417 19.704 182.193 19.9067 182.043 20.184C181.894 20.44 181.819 20.728 181.819 21.048C181.819 21.368 181.894 21.6667 182.043 21.944C182.193 22.2 182.417 22.392 182.715 22.52ZM206.758 26.968C204.326 26.968 202.246 26.5413 200.518 25.688C198.79 24.8347 197.468 23.6187 196.55 22.04C195.654 20.44 195.206 18.552 195.206 16.376C195.206 13.7733 195.75 11.5867 196.838 9.816C197.948 8.04533 199.377 6.73333 201.126 5.88C202.876 5.02667 204.71 4.6 206.63 4.6C208.337 4.6 209.841 4.856 211.142 5.368C212.444 5.88 213.446 6.552 214.15 7.384C214.854 8.216 215.206 9.09067 215.206 10.008C215.206 11.3307 214.865 12.28 214.182 12.856C213.5 13.4107 212.657 13.688 211.654 13.688C211.185 13.688 210.769 13.6453 210.406 13.56C210.065 13.4747 209.702 13.3573 209.318 13.208C208.892 13.0587 208.508 12.952 208.166 12.888C207.846 12.8027 207.441 12.76 206.95 12.76C205.542 12.76 204.433 13.1867 203.622 14.04C202.812 14.872 202.406 16.056 202.406 17.592C202.406 18.8933 202.801 19.896 203.59 20.6C204.38 21.304 205.361 21.656 206.534 21.656C207.196 21.656 207.772 21.5707 208.262 21.4C208.753 21.2293 209.126 21.0373 209.382 20.824C209.638 20.6107 209.766 20.44 209.766 20.312C208.209 20.312 207.025 20.1307 206.214 19.768C205.404 19.4053 204.998 18.776 204.998 17.88C204.998 16.984 205.308 16.2907 205.926 15.8C206.545 15.288 207.59 15.032 209.062 15.032C210.577 15.032 211.761 15.2133 212.614 15.576C213.468 15.9173 214.076 16.4613 214.438 17.208C214.801 17.9333 214.982 18.904 214.982 20.12C214.982 21.3573 214.609 22.4987 213.862 23.544C213.137 24.5893 212.134 25.4213 210.854 26.04C209.596 26.6587 208.23 26.968 206.758 26.968ZM238.799 9.368C238.799 10.776 238.212 11.8 237.039 12.44C235.887 13.0587 233.999 13.432 231.375 13.56C231.46 14.584 231.503 15.9067 231.503 17.528C231.503 19.7893 231.375 21.6027 231.119 22.968C230.884 24.312 230.468 25.3147 229.871 25.976C229.274 26.616 228.442 26.936 227.375 26.936C226.33 26.936 225.53 26.5947 224.975 25.912C224.42 25.2293 224.036 24.216 223.823 22.872C223.61 21.528 223.503 19.7467 223.503 17.528C223.503 16.0347 223.535 14.712 223.599 13.56C221.828 13.4747 220.399 13.2933 219.311 13.016C218.244 12.7173 217.455 12.28 216.943 11.704C216.431 11.128 216.175 10.3493 216.175 9.368C216.175 8.17333 216.58 7.23466 217.391 6.552C218.202 5.86933 219.418 5.38933 221.039 5.112C222.66 4.83467 224.783 4.696 227.407 4.696C230.052 4.696 232.196 4.83467 233.839 5.112C235.482 5.38933 236.719 5.86933 237.551 6.552C238.383 7.23466 238.799 8.17333 238.799 9.368Z"/>
  </mask>
  <path d="M12.1823 15.224C14.1663 15.8 15.6276 16.5787 16.5662 17.56C17.5049 18.52 17.9743 19.7573 17.9743 21.272C17.9743 22.8933 17.3876 24.1947 16.2143 25.176C15.0623 26.1573 13.4196 26.7547 11.2863 26.968C11.2436 27.8427 11.1689 28.4933 11.0623 28.92C10.9556 29.368 10.8169 29.6667 10.6463 29.816C10.4969 29.9653 10.2836 30.04 10.0063 30.04C9.60092 30.04 9.30225 29.8373 9.11025 29.432C8.93958 29.048 8.81158 28.2373 8.72625 27C7.42492 26.9147 6.19825 26.6693 5.04625 26.264C3.89425 25.8587 2.96625 25.3147 2.26225 24.632C1.55825 23.9493 1.20625 23.1813 1.20625 22.328C1.20625 21.4533 1.47292 20.76 2.00625 20.248C2.53958 19.736 3.21158 19.48 4.02225 19.48C4.47025 19.48 4.89692 19.5973 5.30225 19.832C5.70758 20.0667 6.19825 20.4187 6.77425 20.888C7.54225 21.528 8.15025 21.9547 8.59825 22.168C8.57692 21.5493 8.56625 20.5253 8.56625 19.096L6.80625 18.488C4.95025 17.8693 3.55292 17.048 2.61425 16.024C1.67558 15 1.20625 13.5813 1.20625 11.768C1.20625 10.6373 1.52625 9.57067 2.16625 8.568C2.82758 7.544 3.72358 6.69067 4.85425 6.008C6.00625 5.32533 7.28625 4.89867 8.69425 4.728C8.73692 3.68266 8.81158 2.904 8.91825 2.392C9.02492 1.88 9.15292 1.53867 9.30225 1.368C9.47292 1.19733 9.70758 1.112 10.0063 1.112C10.3049 1.112 10.5289 1.19733 10.6783 1.368C10.8489 1.53867 10.9876 1.88 11.0943 2.392C11.2009 2.904 11.2756 3.672 11.3183 4.696C12.7049 4.824 13.9529 5.16533 15.0623 5.72C16.1929 6.27467 17.0783 6.968 17.7183 7.8C18.3583 8.632 18.6783 9.51733 18.6783 10.456C18.6783 11.6293 18.3263 12.5147 17.6223 13.112C16.9396 13.688 16.1716 13.976 15.3183 13.976C14.6356 13.976 14.0383 13.8693 13.5263 13.656C13.0143 13.4213 12.5663 13.176 12.1823 12.92C11.8196 12.664 11.5743 12.4933 11.4463 12.408V15C11.5956 15.064 11.8409 15.1387 12.1823 15.224ZM7.22225 13.048C7.22225 13.304 7.32892 13.5173 7.54225 13.688C7.75558 13.8587 8.09692 14.0293 8.56625 14.2V11.768C8.11825 11.8533 7.77692 12.0133 7.54225 12.248C7.32892 12.4827 7.22225 12.7493 7.22225 13.048ZM11.4143 22.456C11.8196 22.3493 12.1289 22.1893 12.3423 21.976C12.5556 21.7627 12.6623 21.5067 12.6623 21.208C12.6623 20.9947 12.5663 20.8027 12.3743 20.632C12.1823 20.44 11.8729 20.2587 11.4463 20.088L11.4143 22.456ZM30.8608 26.968C27.3194 26.9467 24.6634 26.072 22.8928 24.344C21.1434 22.616 20.2688 19.8107 20.2688 15.928C20.2688 12.408 21.1221 9.64533 22.8288 7.64C24.5354 5.61333 26.9461 4.6 30.0608 4.6C31.9808 4.6 33.6554 4.888 35.0848 5.464C36.5141 6.04 37.6128 6.86133 38.3808 7.928C39.1488 8.99467 39.5328 10.2533 39.5328 11.704C39.5328 12.856 39.2768 13.88 38.7648 14.776C38.2741 15.672 37.5381 16.472 36.5568 17.176C37.3461 17.304 38.0288 17.7307 38.6048 18.456C39.2021 19.1813 39.5008 20.024 39.5008 20.984C39.5008 22.008 39.2234 22.9787 38.6688 23.896C38.1354 24.792 37.2181 25.528 35.9167 26.104C34.6368 26.68 32.9514 26.968 30.8608 26.968ZM28.6528 15.032C29.0368 15.224 29.5168 15.32 30.0928 15.32C30.7754 15.32 31.3621 15.16 31.8528 14.84C32.3648 14.4987 32.6208 13.9973 32.6208 13.336C32.6208 12.696 32.3648 12.216 31.8528 11.896C31.3621 11.5547 30.7648 11.384 30.0608 11.384C29.5061 11.384 29.0368 11.48 28.6528 11.672C28.3541 11.8 28.1301 12.024 27.9808 12.344C27.8314 12.664 27.7568 13.0053 27.7568 13.368C27.7568 13.7307 27.8314 14.072 27.9808 14.392C28.1301 14.6907 28.3541 14.904 28.6528 15.032ZM28.6528 22.52C29.0581 22.6907 29.5381 22.776 30.0928 22.776C30.7754 22.776 31.3621 22.6373 31.8528 22.36C32.3648 22.0613 32.6208 21.624 32.6208 21.048C32.6208 20.4933 32.3648 20.0667 31.8528 19.768C31.3408 19.4693 30.7434 19.32 30.0608 19.32C29.5274 19.32 29.0581 19.4053 28.6528 19.576C28.3541 19.704 28.1301 19.9067 27.9808 20.184C27.8314 20.44 27.7568 20.728 27.7568 21.048C27.7568 21.368 27.8314 21.6667 27.9808 21.944C28.1301 22.2 28.3541 22.392 28.6528 22.52ZM57.1118 21.88C58.1358 22.2 58.6478 22.872 58.6478 23.896C58.6478 24.856 58.1571 25.6133 57.1758 26.168C56.1944 26.7227 54.4984 27 52.0878 27C49.0798 27 46.4984 26.2747 44.3438 24.824C42.2104 23.3733 41.1438 20.4933 41.1438 16.184C41.1438 14.008 41.5171 12.0453 42.2638 10.296C43.0104 8.54667 44.1198 7.16 45.5918 6.136C47.0851 5.112 48.9091 4.6 51.0638 4.6C53.9438 4.6 55.9704 5.048 57.1438 5.944C58.3171 6.81867 58.9038 7.896 58.9038 9.176C58.9038 9.77333 58.7544 10.328 58.4558 10.84C58.1571 11.3307 57.7091 11.7147 57.1118 11.992C56.5998 12.248 55.9384 12.376 55.1278 12.376L54.2638 12.344C54.0931 12.3227 53.8478 12.312 53.5278 12.312C52.4184 12.312 51.5438 12.5147 50.9038 12.92C50.2638 13.304 49.8264 13.9013 49.5918 14.712C50.4878 14.6693 51.2984 14.648 52.0238 14.648C54.1784 14.648 55.5758 14.712 56.2158 14.84C56.9411 14.9893 57.4958 15.2773 57.8798 15.704C58.2851 16.1307 58.4878 16.632 58.4878 17.208C58.4878 17.784 58.2958 18.2853 57.9118 18.712C57.5278 19.1173 56.9518 19.3947 56.1838 19.544C55.5864 19.672 54.1358 19.736 51.8318 19.736C50.8931 19.736 50.2318 19.7253 49.8478 19.704C50.5091 21.112 51.7464 21.816 53.5598 21.816C53.6664 21.816 53.9118 21.7947 54.2958 21.752C54.8078 21.7093 55.2451 21.688 55.6078 21.688C56.2264 21.688 56.7278 21.752 57.1118 21.88ZM79.3498 13.656C79.3498 15.2133 79.1151 16.5893 78.6458 17.784C78.1978 18.9787 77.5578 19.9813 76.7257 20.792C77.4298 21.88 77.7818 22.936 77.7818 23.96C77.7818 24.8347 77.4404 25.56 76.7578 26.136C76.0964 26.712 75.3391 27 74.4858 27C73.9951 27 73.5471 26.9253 73.1418 26.776C72.7364 26.6267 72.2991 26.3707 71.8298 26.008C71.4244 25.688 71.0404 25.2507 70.6778 24.696C70.3151 24.1413 70.0271 23.5653 69.8138 22.968C69.1098 22.8827 68.4058 22.7013 67.7018 22.424C67.8298 23.1067 67.8938 23.6293 67.8938 23.992C67.8938 26.0187 66.8378 27.032 64.7258 27.032C62.9551 27.032 61.7071 25.9973 60.9818 23.928C60.2564 21.8587 59.8938 19.3307 59.8938 16.344C59.8938 14.3173 60.2564 12.4187 60.9818 10.648C61.7284 8.856 62.8591 7.416 64.3738 6.328C65.8884 5.21867 67.7338 4.664 69.9098 4.664C71.6591 4.664 73.2484 5.03733 74.6778 5.784C76.1071 6.50933 77.2378 7.55467 78.0698 8.92C78.9231 10.2853 79.3498 11.864 79.3498 13.656ZM67.3818 15.16C67.3818 15.8853 67.6698 16.5253 68.2458 17.08C68.8218 17.6133 69.4831 17.88 70.2298 17.88C70.9978 17.88 71.6591 17.6133 72.2138 17.08C72.7898 16.5253 73.0778 15.8853 73.0778 15.16C73.0778 14.4133 72.7898 13.7733 72.2138 13.24C71.6591 12.6853 70.9978 12.408 70.2298 12.408C69.4831 12.408 68.8218 12.6853 68.2458 13.24C67.6698 13.7947 67.3818 14.4347 67.3818 15.16ZM85.3233 27.064C83.8939 27.064 82.7419 26.3707 81.8673 24.984C81.0139 23.576 80.5126 21.6773 80.3633 19.288C80.3419 18.9467 80.3313 18.4453 80.3313 17.784C80.3313 15.2027 80.7579 12.92 81.6113 10.936C82.4646 8.93067 83.6699 7.384 85.2273 6.296C86.8059 5.18667 88.6406 4.632 90.7313 4.632C92.8219 4.632 94.6459 5.18667 96.2033 6.296C97.7819 7.384 98.9873 8.92 99.8193 10.904C100.673 12.888 101.099 15.1813 101.099 17.784C101.099 18.4453 101.089 18.9467 101.067 19.288C100.918 21.72 100.417 23.6187 99.5633 24.984C98.7099 26.3493 97.5579 27.032 96.1073 27.032C94.9339 27.032 94.1126 26.712 93.6433 26.072C93.1953 25.432 92.9713 24.6533 92.9713 23.736C92.9713 23.3093 93.0033 22.936 93.0673 22.616C91.9579 22.6587 90.9766 22.68 90.1233 22.68C89.5899 22.68 89.0033 22.6587 88.3633 22.616C88.4273 22.936 88.4593 23.3093 88.4593 23.736C88.4593 24.6747 88.2246 25.464 87.7552 26.104C87.3073 26.744 86.4966 27.064 85.3233 27.064ZM88.1393 16.92C89.2913 16.8773 90.1339 16.856 90.6673 16.856C91.2433 16.856 92.0859 16.8773 93.1953 16.92C93.2379 16.6853 93.2593 16.3333 93.2593 15.864C93.2593 14.8613 93.0459 14.0507 92.6193 13.432C92.1926 12.792 91.5313 12.472 90.6353 12.472C89.7606 12.472 89.1099 12.7813 88.6833 13.4C88.2566 14.0187 88.0433 14.8187 88.0433 15.8C88.0433 16.1627 88.0753 16.536 88.1393 16.92ZM120.3 27.032C118.764 27.0533 117.388 26.7333 116.172 26.072C114.977 25.4107 114.039 24.504 113.356 23.352C112.695 22.1787 112.343 20.8773 112.3 19.448C112.279 18.0187 112.609 16.7387 113.292 15.608C113.975 14.4773 114.924 13.5813 116.14 12.92C117.377 12.2587 118.764 11.928 120.3 11.928C121.793 11.928 123.137 12.248 124.332 12.888C125.548 13.528 126.508 14.424 127.212 15.576C127.916 16.728 128.289 18.0187 128.332 19.448C128.353 20.8347 128.023 22.104 127.34 23.256C126.657 24.3867 125.697 25.2933 124.46 25.976C123.244 26.6587 121.857 27.0107 120.3 27.032ZM120.396 22.36C120.972 22.36 121.473 22.136 121.9 21.688C122.327 21.24 122.54 20.7173 122.54 20.12C122.54 19.5227 122.327 19.0107 121.9 18.584C121.473 18.136 120.972 17.912 120.396 17.912C119.82 17.912 119.319 18.136 118.892 18.584C118.465 19.0107 118.252 19.5227 118.252 20.12C118.252 20.7173 118.465 21.24 118.892 21.688C119.319 22.136 119.82 22.36 120.396 22.36ZM133.036 27C131.671 27 130.754 26.2 130.285 24.6C129.837 23 129.613 20.792 129.613 17.976C129.613 16.696 129.666 15.6293 129.773 14.776C129.901 13.9013 130.189 13.1653 130.637 12.568C131.106 11.9493 131.821 11.64 132.781 11.64C133.378 11.64 133.901 11.7787 134.349 12.056C134.818 12.3333 135.117 12.728 135.245 13.24C135.714 12.8133 136.322 12.4933 137.069 12.28C137.815 12.0667 138.615 11.96 139.469 11.96C140.151 11.96 140.845 12.1307 141.549 12.472C142.274 12.8133 142.871 13.2827 143.341 13.88C143.831 14.456 144.077 15.0853 144.077 15.768C144.077 16.4507 143.831 17.0587 143.341 17.592C142.871 18.104 142.242 18.36 141.453 18.36C141.197 18.36 140.951 18.328 140.717 18.264C140.503 18.2 140.311 18.136 140.141 18.072C139.714 17.9013 139.373 17.816 139.117 17.816C138.285 17.816 137.549 18.1467 136.909 18.808C136.29 19.448 135.981 20.28 135.981 21.304C135.981 22.4347 135.938 23.3733 135.853 24.12C135.767 24.8667 135.511 25.5387 135.085 26.136C134.658 26.712 133.975 27 133.036 27ZM166.245 15.224C168.229 15.8 169.69 16.5787 170.629 17.56C171.567 18.52 172.037 19.7573 172.037 21.272C172.037 22.8933 171.45 24.1947 170.277 25.176C169.125 26.1573 167.482 26.7547 165.349 26.968C165.306 27.8427 165.231 28.4933 165.125 28.92C165.018 29.368 164.879 29.6667 164.709 29.816C164.559 29.9653 164.346 30.04 164.069 30.04C163.663 30.04 163.365 29.8373 163.173 29.432C163.002 29.048 162.874 28.2373 162.789 27C161.487 26.9147 160.261 26.6693 159.109 26.264C157.957 25.8587 157.029 25.3147 156.325 24.632C155.621 23.9493 155.269 23.1813 155.269 22.328C155.269 21.4533 155.535 20.76 156.069 20.248C156.602 19.736 157.274 19.48 158.085 19.48C158.533 19.48 158.959 19.5973 159.365 19.832C159.77 20.0667 160.261 20.4187 160.837 20.888C161.605 21.528 162.213 21.9547 162.661 22.168C162.639 21.5493 162.629 20.5253 162.629 19.096L160.869 18.488C159.013 17.8693 157.615 17.048 156.677 16.024C155.738 15 155.269 13.5813 155.269 11.768C155.269 10.6373 155.589 9.57067 156.229 8.568C156.89 7.544 157.786 6.69067 158.917 6.008C160.069 5.32533 161.349 4.89867 162.757 4.728C162.799 3.68266 162.874 2.904 162.981 2.392C163.087 1.88 163.215 1.53867 163.365 1.368C163.535 1.19733 163.77 1.112 164.069 1.112C164.367 1.112 164.591 1.19733 164.741 1.368C164.911 1.53867 165.05 1.88 165.157 2.392C165.263 2.904 165.338 3.672 165.381 4.696C166.767 4.824 168.015 5.16533 169.125 5.72C170.255 6.27467 171.141 6.968 171.781 7.8C172.421 8.632 172.741 9.51733 172.741 10.456C172.741 11.6293 172.389 12.5147 171.685 13.112C171.002 13.688 170.234 13.976 169.381 13.976C168.698 13.976 168.101 13.8693 167.589 13.656C167.077 13.4213 166.629 13.176 166.245 12.92C165.882 12.664 165.637 12.4933 165.509 12.408V15C165.658 15.064 165.903 15.1387 166.245 15.224ZM161.285 13.048C161.285 13.304 161.391 13.5173 161.605 13.688C161.818 13.8587 162.159 14.0293 162.629 14.2V11.768C162.181 11.8533 161.839 12.0133 161.605 12.248C161.391 12.4827 161.285 12.7493 161.285 13.048ZM165.477 22.456C165.882 22.3493 166.191 22.1893 166.405 21.976C166.618 21.7627 166.725 21.5067 166.725 21.208C166.725 20.9947 166.629 20.8027 166.437 20.632C166.245 20.44 165.935 20.2587 165.509 20.088L165.477 22.456ZM184.923 26.968C181.382 26.9467 178.726 26.072 176.955 24.344C175.206 22.616 174.331 19.8107 174.331 15.928C174.331 12.408 175.185 9.64533 176.891 7.64C178.598 5.61333 181.009 4.6 184.123 4.6C186.043 4.6 187.718 4.888 189.147 5.464C190.577 6.04 191.675 6.86133 192.443 7.928C193.211 8.99467 193.595 10.2533 193.595 11.704C193.595 12.856 193.339 13.88 192.827 14.776C192.337 15.672 191.601 16.472 190.619 17.176C191.409 17.304 192.091 17.7307 192.667 18.456C193.265 19.1813 193.563 20.024 193.563 20.984C193.563 22.008 193.286 22.9787 192.731 23.896C192.198 24.792 191.281 25.528 189.979 26.104C188.699 26.68 187.014 26.968 184.923 26.968ZM182.715 15.032C183.099 15.224 183.579 15.32 184.155 15.32C184.838 15.32 185.425 15.16 185.915 14.84C186.427 14.4987 186.683 13.9973 186.683 13.336C186.683 12.696 186.427 12.216 185.915 11.896C185.425 11.5547 184.827 11.384 184.123 11.384C183.569 11.384 183.099 11.48 182.715 11.672C182.417 11.8 182.193 12.024 182.043 12.344C181.894 12.664 181.819 13.0053 181.819 13.368C181.819 13.7307 181.894 14.072 182.043 14.392C182.193 14.6907 182.417 14.904 182.715 15.032ZM182.715 22.52C183.121 22.6907 183.601 22.776 184.155 22.776C184.838 22.776 185.425 22.6373 185.915 22.36C186.427 22.0613 186.683 21.624 186.683 21.048C186.683 20.4933 186.427 20.0667 185.915 19.768C185.403 19.4693 184.806 19.32 184.123 19.32C183.59 19.32 183.121 19.4053 182.715 19.576C182.417 19.704 182.193 19.9067 182.043 20.184C181.894 20.44 181.819 20.728 181.819 21.048C181.819 21.368 181.894 21.6667 182.043 21.944C182.193 22.2 182.417 22.392 182.715 22.52ZM206.758 26.968C204.326 26.968 202.246 26.5413 200.518 25.688C198.79 24.8347 197.468 23.6187 196.55 22.04C195.654 20.44 195.206 18.552 195.206 16.376C195.206 13.7733 195.75 11.5867 196.838 9.816C197.948 8.04533 199.377 6.73333 201.126 5.88C202.876 5.02667 204.71 4.6 206.63 4.6C208.337 4.6 209.841 4.856 211.142 5.368C212.444 5.88 213.446 6.552 214.15 7.384C214.854 8.216 215.206 9.09067 215.206 10.008C215.206 11.3307 214.865 12.28 214.182 12.856C213.5 13.4107 212.657 13.688 211.654 13.688C211.185 13.688 210.769 13.6453 210.406 13.56C210.065 13.4747 209.702 13.3573 209.318 13.208C208.892 13.0587 208.508 12.952 208.166 12.888C207.846 12.8027 207.441 12.76 206.95 12.76C205.542 12.76 204.433 13.1867 203.622 14.04C202.812 14.872 202.406 16.056 202.406 17.592C202.406 18.8933 202.801 19.896 203.59 20.6C204.38 21.304 205.361 21.656 206.534 21.656C207.196 21.656 207.772 21.5707 208.262 21.4C208.753 21.2293 209.126 21.0373 209.382 20.824C209.638 20.6107 209.766 20.44 209.766 20.312C208.209 20.312 207.025 20.1307 206.214 19.768C205.404 19.4053 204.998 18.776 204.998 17.88C204.998 16.984 205.308 16.2907 205.926 15.8C206.545 15.288 207.59 15.032 209.062 15.032C210.577 15.032 211.761 15.2133 212.614 15.576C213.468 15.9173 214.076 16.4613 214.438 17.208C214.801 17.9333 214.982 18.904 214.982 20.12C214.982 21.3573 214.609 22.4987 213.862 23.544C213.137 24.5893 212.134 25.4213 210.854 26.04C209.596 26.6587 208.23 26.968 206.758 26.968ZM238.799 9.368C238.799 10.776 238.212 11.8 237.039 12.44C235.887 13.0587 233.999 13.432 231.375 13.56C231.46 14.584 231.503 15.9067 231.503 17.528C231.503 19.7893 231.375 21.6027 231.119 22.968C230.884 24.312 230.468 25.3147 229.871 25.976C229.274 26.616 228.442 26.936 227.375 26.936C226.33 26.936 225.53 26.5947 224.975 25.912C224.42 25.2293 224.036 24.216 223.823 22.872C223.61 21.528 223.503 19.7467 223.503 17.528C223.503 16.0347 223.535 14.712 223.599 13.56C221.828 13.4747 220.399 13.2933 219.311 13.016C218.244 12.7173 217.455 12.28 216.943 11.704C216.431 11.128 216.175 10.3493 216.175 9.368C216.175 8.17333 216.58 7.23466 217.391 6.552C218.202 5.86933 219.418 5.38933 221.039 5.112C222.66 4.83467 224.783 4.696 227.407 4.696C230.052 4.696 232.196 4.83467 233.839 5.112C235.482 5.38933 236.719 5.86933 237.551 6.552C238.383 7.23466 238.799 8.17333 238.799 9.368Z" fill="#FBBF24"/>
  <path d="M12.1823 15.224L12.4611 14.2637L12.443 14.2584L12.4248 14.2539L12.1823 15.224ZM16.5662 17.56L15.8436 18.2513L15.8512 18.2591L16.5662 17.56ZM16.2143 25.176L15.5727 24.4089L15.5658 24.4148L16.2143 25.176ZM11.2863 26.968L11.1867 25.973L10.3294 26.0587L10.2874 26.9193L11.2863 26.968ZM11.0623 28.92L10.092 28.6774L10.0894 28.6884L11.0623 28.92ZM10.6463 29.816L9.98775 29.0634L9.96269 29.0854L9.93914 29.1089L10.6463 29.816ZM9.11025 29.432L8.19644 29.8381L8.20134 29.8492L8.20651 29.8601L9.11025 29.432ZM8.72625 27L9.72388 26.9312L9.66375 26.0593L8.79168 26.0021L8.72625 27ZM5.04625 26.264L5.37816 25.3207L5.04625 26.264ZM2.26225 24.632L1.5661 25.3499H1.5661L2.26225 24.632ZM2.00625 20.248L1.31372 19.5266L2.00625 20.248ZM5.30225 19.832L4.80121 20.6974L5.30225 19.832ZM6.77425 20.888L7.41447 20.1197L7.40592 20.1128L6.77425 20.888ZM8.59825 22.168L8.16832 23.0709L9.65438 23.7785L9.59766 22.1335L8.59825 22.168ZM8.56625 19.096H9.56625V18.3835L8.89277 18.1508L8.56625 19.096ZM6.80625 18.488L7.13279 17.5428L7.12248 17.5393L6.80625 18.488ZM2.61425 16.024L3.3514 15.3483L2.61425 16.024ZM2.16625 8.568L1.3262 8.02547L1.32333 8.02996L2.16625 8.568ZM4.85425 6.008L4.34443 5.14768L4.33738 5.15194L4.85425 6.008ZM8.69425 4.728L8.81458 5.72073L9.65874 5.61841L9.69342 4.76878L8.69425 4.728ZM8.91825 2.392L7.93927 2.18804L7.93927 2.18804L8.91825 2.392ZM9.30225 1.368L8.59515 0.66089L8.5716 0.684435L8.54967 0.709494L9.30225 1.368ZM10.6783 1.368L9.92568 2.0265L9.9476 2.05156L9.97114 2.0751L10.6783 1.368ZM11.3183 4.696L10.3191 4.73763L10.3555 5.61138L11.2263 5.69177L11.3183 4.696ZM15.0623 5.72L14.615 6.61445L14.6218 6.61779L15.0623 5.72ZM17.7183 7.8L16.9256 8.40971L16.9256 8.40971L17.7183 7.8ZM17.6223 13.112L18.2671 13.8763L18.2692 13.8745L17.6223 13.112ZM13.5263 13.656L13.1096 14.5651L13.1255 14.5723L13.1416 14.5791L13.5263 13.656ZM12.1823 12.92L11.6056 13.737L11.6165 13.7447L11.6276 13.752L12.1823 12.92ZM11.4463 12.408L12.001 11.5759L10.4463 10.5395V12.408H11.4463ZM11.4463 15H10.4463V15.6594L11.0523 15.9191L11.4463 15ZM7.54225 13.688L6.91755 14.4689L6.91756 14.4689L7.54225 13.688ZM8.56625 14.2L8.22451 15.1398L9.56625 15.6277V14.2H8.56625ZM8.56625 11.768H9.56625V10.5595L8.37914 10.7857L8.56625 11.768ZM7.54225 12.248L6.83514 11.5409L6.81832 11.5577L6.80231 11.5753L7.54225 12.248ZM11.4143 22.456L10.4143 22.4425L10.3966 23.7579L11.6687 23.4231L11.4143 22.456ZM12.3423 21.976L13.0494 22.6831L13.0494 22.6831L12.3423 21.976ZM12.3743 20.632L11.6671 21.3391L11.6879 21.3599L11.7099 21.3794L12.3743 20.632ZM11.4463 20.088L11.8176 19.1595L10.466 18.6189L10.4463 20.0745L11.4463 20.088ZM11.9034 16.1843C13.7995 16.7348 15.0741 17.4467 15.8436 18.2512L17.2889 16.8688C16.1811 15.7106 14.533 14.8652 12.4611 14.2637L11.9034 16.1843ZM15.8512 18.2591C16.5833 19.0078 16.9743 19.9823 16.9743 21.272H18.9743C18.9743 19.5324 18.4266 18.0322 17.2813 16.8609L15.8512 18.2591ZM16.9743 21.272C16.9743 22.6175 16.5037 23.6302 15.5727 24.4089L16.8558 25.9431C18.2714 24.7591 18.9743 23.1692 18.9743 21.272H16.9743ZM15.5658 24.4148C14.621 25.2196 13.1988 25.7718 11.1867 25.973L11.3858 27.963C13.6403 27.7376 15.5035 27.0951 16.8627 25.9372L15.5658 24.4148ZM10.2874 26.9193C10.2455 27.7794 10.1741 28.3497 10.0921 28.6775L12.0324 29.1625C12.1638 28.637 12.2417 27.9059 12.2851 27.0167L10.2874 26.9193ZM10.0894 28.6884C10.046 28.8708 10.0037 28.989 9.97124 29.0589C9.93625 29.1343 9.9317 29.1125 9.98775 29.0634L11.3048 30.5686C11.7262 30.1998 11.9212 29.6298 12.0351 29.1516L10.0894 28.6884ZM9.93914 29.1089C9.95709 29.091 9.9768 29.0755 9.99676 29.0632C10.0165 29.051 10.0331 29.0439 10.0439 29.0401C10.0644 29.033 10.057 29.04 10.0063 29.04V31.04C10.4625 31.04 10.9632 30.9133 11.3534 30.5231L9.93914 29.1089ZM10.0063 29.04C9.98865 29.04 9.98796 29.0379 9.99889 29.041C10.0041 29.0425 10.0109 29.0449 10.0185 29.0485C10.0262 29.0521 10.0334 29.0562 10.0398 29.0605C10.0532 29.0697 10.0569 29.0755 10.0524 29.07C10.0474 29.0637 10.0331 29.0442 10.014 29.0039L8.20651 29.8601C8.36053 30.1852 8.58786 30.4923 8.91675 30.7155C9.25171 30.9428 9.62891 31.04 10.0063 31.04V29.04ZM10.0241 29.0259C9.99363 28.9574 9.93473 28.7645 9.87401 28.38C9.81625 28.0142 9.76544 27.5338 9.72388 26.9312L7.72862 27.0688C7.7724 27.7035 7.82825 28.2472 7.89849 28.692C7.96578 29.1181 8.0562 29.5226 8.19644 29.8381L10.0241 29.0259ZM8.79168 26.0021C7.57509 25.9224 6.4386 25.6938 5.37816 25.3207L4.71434 27.2073C5.9579 27.6449 7.27474 27.907 8.66082 27.9979L8.79168 26.0021ZM5.37816 25.3207C4.3299 24.9519 3.5365 24.4747 2.9584 23.9141L1.5661 25.3499C2.396 26.1546 3.4586 26.7655 4.71434 27.2073L5.37816 25.3207ZM2.9584 23.9141C2.41704 23.3891 2.20625 22.8697 2.20625 22.328H0.20625C0.20625 23.4929 0.699459 24.5095 1.5661 25.3499L2.9584 23.9141ZM2.20625 22.328C2.20625 21.6717 2.39766 21.2585 2.69878 20.9694L1.31372 19.5266C0.548172 20.2615 0.20625 21.235 0.20625 22.328H2.20625ZM2.69878 20.9694C3.02713 20.6542 3.44251 20.48 4.02225 20.48V18.48C2.98065 18.48 2.05204 18.8178 1.31372 19.5266L2.69878 20.9694ZM4.02225 20.48C4.28616 20.48 4.54094 20.5467 4.80121 20.6974L5.80329 18.9666C5.2529 18.6479 4.65434 18.48 4.02225 18.48V20.48ZM4.80121 20.6974C5.14216 20.8948 5.58683 21.2104 6.14258 21.6632L7.40592 20.1128C6.80967 19.6269 6.27301 19.2385 5.80329 18.9666L4.80121 20.6974ZM6.13407 21.6562C6.91522 22.3072 7.60218 22.8013 8.16832 23.0709L9.02818 21.2651C8.69832 21.1081 8.16928 20.7488 7.41443 20.1198L6.13407 21.6562ZM9.59766 22.1335C9.57697 21.5336 9.56625 20.5247 9.56625 19.096H7.56625C7.56625 20.5259 7.57686 21.565 7.59884 22.2025L9.59766 22.1335ZM8.89277 18.1508L7.13277 17.5428L6.47973 19.4332L8.23973 20.0412L8.89277 18.1508ZM7.12248 17.5393C5.36548 16.9537 4.13784 16.2062 3.3514 15.3483L1.8771 16.6997C2.96799 17.8898 4.53502 18.785 6.49002 19.4367L7.12248 17.5393ZM3.3514 15.3483C2.62825 14.5594 2.20625 13.4096 2.20625 11.768H0.20625C0.20625 13.753 0.722916 15.4406 1.8771 16.6997L3.3514 15.3483ZM2.20625 11.768C2.20625 10.8381 2.46615 9.95677 3.00917 9.10603L1.32333 8.02996C0.586354 9.18456 0.20625 10.4365 0.20625 11.768H2.20625ZM3.00629 9.11052C3.5784 8.22468 4.35955 7.47483 5.37112 6.86406L4.33738 5.15194C3.08762 5.90651 2.07677 6.86332 1.32621 8.02547L3.00629 9.11052ZM5.36405 6.86829C6.38983 6.26042 7.5359 5.87572 8.81458 5.72073L8.57392 3.73526C7.0366 3.92161 5.62267 4.39024 4.34445 5.14771L5.36405 6.86829ZM9.69342 4.76878C9.7356 3.73542 9.80801 3.0242 9.89723 2.59595L7.93927 2.18804C7.81516 2.78379 7.73824 3.62991 7.69508 4.68722L9.69342 4.76878ZM9.89723 2.59595C9.94421 2.37047 9.99041 2.21025 10.0306 2.10312C10.0748 1.98512 10.0928 1.98309 10.0548 2.0265L8.54967 0.709494C8.36235 0.923574 8.24167 1.17754 8.15792 1.40087C8.0701 1.63508 7.99896 1.90153 7.93927 2.18804L9.89723 2.59595ZM10.0094 2.07511C9.99999 2.08447 9.98866 2.09364 9.97624 2.10149C9.96392 2.10927 9.9538 2.11368 9.94799 2.11579C9.93667 2.11991 9.95122 2.112 10.0063 2.112V0.112C9.50911 0.112 8.99579 0.260251 8.59515 0.66089L10.0094 2.07511ZM10.0063 2.112C10.0627 2.112 10.0681 2.12032 10.0423 2.11049C10.0287 2.10531 10.009 2.09603 9.98672 2.08073C9.96419 2.06528 9.94338 2.04674 9.92568 2.0265L11.4308 0.709491C11.0359 0.258199 10.4964 0.112 10.0063 0.112V2.112ZM9.97114 2.0751C9.92567 2.02963 9.94091 2.02284 9.98378 2.12838C10.0232 2.22549 10.0696 2.37655 10.1153 2.59595L12.0732 2.18804C11.9636 1.66166 11.7815 1.05702 11.3854 0.660891L9.97114 2.0751ZM10.1153 2.59595C10.2047 3.0253 10.277 3.72688 10.3191 4.73763L12.3174 4.65437C12.2742 3.61712 12.1971 2.7827 12.0732 2.18804L10.1153 2.59595ZM11.2263 5.69177C12.5044 5.80974 13.6296 6.12172 14.615 6.61443L15.5095 4.82557C14.2762 4.20894 12.9054 3.83826 11.4102 3.70023L11.2263 5.69177ZM14.6218 6.61779C15.6418 7.11814 16.3962 7.7215 16.9256 8.40971L18.5109 7.19029C17.7603 6.2145 16.7441 5.43119 15.5027 4.82221L14.6218 6.61779ZM16.9256 8.40971C17.4479 9.08869 17.6783 9.76387 17.6783 10.456H19.6783C19.6783 9.27079 19.2686 8.17531 18.5109 7.19029L16.9256 8.40971ZM17.6783 10.456C17.6783 11.4215 17.3973 11.9914 16.9753 12.3495L18.2692 13.8745C19.2553 13.0379 19.6783 11.8372 19.6783 10.456H17.6783ZM16.9774 12.3477C16.466 12.7792 15.9238 12.976 15.3183 12.976V14.976C16.4193 14.976 17.4132 14.5968 18.2671 13.8763L16.9774 12.3477ZM15.3183 12.976C14.738 12.976 14.2764 12.8852 13.9109 12.7329L13.1416 14.5791C13.8001 14.8534 14.5331 14.976 15.3183 14.976V12.976ZM13.9429 12.7469C13.4688 12.5297 13.0687 12.3091 12.737 12.0879L11.6276 13.752C12.0638 14.0429 12.5597 14.313 13.1096 14.5651L13.9429 12.7469ZM12.7589 12.103C12.3978 11.8481 12.1418 11.6698 12.001 11.5759L10.8915 13.24C11.0067 13.3168 11.2414 13.4799 11.6056 13.737L12.7589 12.103ZM10.4463 12.408V15H12.4463V12.408H10.4463ZM11.0523 15.9191C11.2803 16.0168 11.592 16.1072 11.9397 16.1941L12.4248 14.2539C12.0899 14.1701 11.9109 14.1112 11.8402 14.0809L11.0523 15.9191ZM6.22225 13.048C6.22225 13.6305 6.48534 14.1231 6.91755 14.4689L8.16695 12.9071C8.15687 12.8991 8.17652 12.9125 8.19668 12.9528C8.2178 12.995 8.22225 13.0324 8.22225 13.048H6.22225ZM6.91756 14.4689C7.25924 14.7422 7.72284 14.9574 8.22451 15.1398L8.90799 13.2602C8.471 13.1013 8.25193 12.9751 8.16694 12.9071L6.91756 14.4689ZM9.56625 14.2V11.768H7.56625V14.2H9.56625ZM8.37914 10.7857C7.80576 10.8949 7.25566 11.1204 6.83514 11.5409L8.24936 12.9551C8.29818 12.9063 8.43074 12.8118 8.75336 12.7503L8.37914 10.7857ZM6.80231 11.5753C6.43296 11.9816 6.22225 12.4842 6.22225 13.048H8.22225C8.22225 13.0144 8.22488 12.9837 8.28219 12.9207L6.80231 11.5753ZM11.6687 23.4231C12.1817 23.2881 12.6714 23.0611 13.0494 22.6831L11.6351 21.2689C11.5865 21.3176 11.4574 21.4106 11.1598 21.4889L11.6687 23.4231ZM13.0494 22.6831C13.4481 22.2844 13.6623 21.7749 13.6623 21.208H11.6623C11.6623 21.2229 11.6609 21.2315 11.6602 21.2352C11.6599 21.2371 11.6596 21.2382 11.6594 21.2387C11.6593 21.2391 11.6592 21.2393 11.6592 21.2394C11.6591 21.2395 11.659 21.2398 11.6586 21.2405C11.6582 21.2412 11.6575 21.2426 11.656 21.2447C11.6533 21.2487 11.6471 21.2569 11.6351 21.2689L13.0494 22.6831ZM13.6623 21.208C13.6623 20.6511 13.3966 20.2028 13.0386 19.8846L11.7099 21.3794C11.7291 21.3965 11.7147 21.389 11.6958 21.3512C11.6748 21.3093 11.6623 21.2576 11.6623 21.208H13.6623ZM13.0814 19.9249C12.7494 19.5929 12.2949 19.3504 11.8176 19.1595L11.0749 21.0165C11.451 21.1669 11.6151 21.2871 11.6671 21.3391L13.0814 19.9249ZM10.4463 20.0745L10.4143 22.4425L12.4142 22.4695L12.4462 20.1015L10.4463 20.0745ZM30.8608 26.968L30.8547 27.968H30.8608V26.968ZM22.8927 24.344L22.19 25.0554L22.1943 25.0597L22.8927 24.344ZM22.8288 7.64L23.5903 8.28813L23.5937 8.28413L22.8288 7.64ZM35.0848 5.464L35.4585 4.53648L35.0848 5.464ZM38.7648 14.776L37.8965 14.2799L37.892 14.2877L37.8877 14.2957L38.7648 14.776ZM36.5568 17.176L35.9738 16.3635L34.0057 17.7754L36.3967 18.1631L36.5568 17.176ZM38.6048 18.456L37.8216 19.0779L37.8272 19.0848L37.8328 19.0917L38.6048 18.456ZM38.6688 23.896L37.813 23.3786L37.8095 23.3845L38.6688 23.896ZM35.9167 26.104L35.512 25.1896L35.5064 25.1921L35.9167 26.104ZM28.6528 15.032L29.1 14.1376L29.0737 14.1244L29.0467 14.1129L28.6528 15.032ZM31.8528 14.84L32.399 15.6777L32.4075 15.672L31.8528 14.84ZM31.8528 11.896L31.2817 12.7169L31.3019 12.731L31.3228 12.744L31.8528 11.896ZM28.6528 11.672L29.0467 12.5911L29.0737 12.5796L29.1 12.5664L28.6528 11.672ZM27.9808 12.344L27.0746 11.9211L27.0746 11.9211L27.9808 12.344ZM27.9808 14.392L27.0746 14.8149L27.0803 14.8271L27.0863 14.8392L27.9808 14.392ZM28.6528 22.52L28.2588 23.4392L28.2647 23.4416L28.6528 22.52ZM31.8528 22.36L32.3449 23.2306L32.3566 23.2238L31.8528 22.36ZM31.8528 19.768L32.3566 18.9042L31.8528 19.768ZM28.6528 19.576L28.2647 18.6543L28.2588 18.6569L28.6528 19.576ZM27.9808 20.184L28.8445 20.6879L28.8531 20.6731L28.8612 20.6581L27.9808 20.184ZM27.9808 21.944L27.1003 22.4181L27.1084 22.4331L27.117 22.4479L27.9808 21.944ZM30.8668 25.968C27.4726 25.9476 25.1096 25.1101 23.5912 23.6283L22.1943 25.0597C24.2173 27.0339 27.1663 27.9458 30.8547 27.968L30.8668 25.968ZM23.5955 23.6326C22.1216 22.1767 21.2687 19.6934 21.2687 15.928H19.2687C19.2687 19.9279 20.1652 23.0553 22.19 25.0554L23.5955 23.6326ZM21.2687 15.928C21.2687 12.5649 22.0828 10.0594 23.5903 8.28812L22.0672 6.99188C20.1614 9.23124 19.2687 12.2511 19.2687 15.928H21.2687ZM23.5937 8.28413C25.0762 6.52359 27.1837 5.6 30.0608 5.6V3.6C26.7085 3.6 23.9946 4.70307 22.0638 6.99586L23.5937 8.28413ZM30.0608 5.6C31.8831 5.6 33.4257 5.87358 34.711 6.39152L35.4585 4.53648C33.8851 3.90242 32.0784 3.6 30.0608 3.6V5.6ZM34.711 6.39152C35.9956 6.90921 36.9296 7.624 37.5692 8.5123L39.1923 7.34369C38.2959 6.09867 37.0325 5.17079 35.4585 4.53648L34.711 6.39152ZM37.5692 8.5123C38.202 9.39116 38.5328 10.4402 38.5328 11.704H40.5328C40.5328 10.0664 40.0955 8.59818 39.1923 7.34369L37.5692 8.5123ZM38.5328 11.704C38.5328 12.7027 38.3125 13.552 37.8965 14.2799L39.633 15.2721C40.2411 14.208 40.5328 13.0093 40.5328 11.704H38.5328ZM37.8877 14.2957C37.4809 15.0385 36.8555 15.731 35.9738 16.3635L37.1397 17.9885C38.2207 17.213 39.0673 16.3055 39.6418 15.2563L37.8877 14.2957ZM36.3967 18.1631C36.9015 18.245 37.3744 18.5147 37.8216 19.0779L39.3879 17.8341C38.6831 16.9466 37.7907 16.363 36.7168 16.1889L36.3967 18.1631ZM37.8328 19.0917C38.2793 19.6338 38.5008 20.2505 38.5008 20.984H40.5008C40.5008 19.7975 40.1249 18.7288 39.3767 17.8203L37.8328 19.0917ZM38.5008 20.984C38.5008 21.8169 38.2779 22.6097 37.813 23.3786L39.5245 24.4134C40.1689 23.3476 40.5008 22.1991 40.5008 20.984H38.5008ZM37.8095 23.3845C37.4146 24.0478 36.6914 24.6675 35.512 25.1896L36.3215 27.0184C37.7448 26.3885 38.8562 25.5362 39.528 24.4075L37.8095 23.3845ZM35.5064 25.1921C34.4027 25.6887 32.8731 25.968 30.8608 25.968V27.968C33.0297 27.968 34.8708 27.6713 36.3271 27.0159L35.5064 25.1921ZM28.2055 15.9264C28.7675 16.2074 29.4121 16.32 30.0928 16.32V14.32C29.6214 14.32 29.306 14.2406 29.1 14.1376L28.2055 15.9264ZM30.0928 16.32C30.9366 16.32 31.7204 16.1202 32.399 15.6776L31.3065 14.0024C31.0037 14.1998 30.6142 14.32 30.0928 14.32V16.32ZM32.4075 15.672C33.2215 15.1294 33.6208 14.302 33.6208 13.336H31.6208C31.6208 13.6927 31.508 13.868 31.298 14.0079L32.4075 15.672ZM33.6208 13.336C33.6208 12.3762 33.2077 11.5636 32.3828 11.048L31.3228 12.744C31.5218 12.8684 31.6208 13.0158 31.6208 13.336H33.6208ZM32.4238 11.0751C31.7374 10.5976 30.9317 10.384 30.0608 10.384V12.384C30.5978 12.384 30.9868 12.5118 31.2817 12.7169L32.4238 11.0751ZM30.0608 10.384C29.3946 10.384 28.7629 10.4989 28.2055 10.7776L29.1 12.5664C29.3106 12.4611 29.6175 12.384 30.0608 12.384V10.384ZM28.2588 10.7529C27.7138 10.9864 27.3181 11.3993 27.0746 11.9211L28.8869 12.7669C28.9421 12.6487 28.9943 12.6136 29.0467 12.5911L28.2588 10.7529ZM27.0746 11.9211C26.8617 12.3772 26.7568 12.8633 26.7568 13.368H28.7568C28.7568 13.1474 28.8011 12.9508 28.8869 12.7669L27.0746 11.9211ZM26.7568 13.368C26.7568 13.8727 26.8617 14.3588 27.0746 14.8149L28.8869 13.9691C28.8011 13.7852 28.7568 13.5886 28.7568 13.368H26.7568ZM27.0863 14.8392C27.3382 15.343 27.7363 15.7272 28.2588 15.9511L29.0467 14.1129C28.9719 14.0808 28.9219 14.0383 28.8752 13.9448L27.0863 14.8392ZM28.2647 23.4416C28.8204 23.6756 29.4384 23.776 30.0928 23.776V21.776C29.6378 21.776 29.2958 21.7057 29.0408 21.5984L28.2647 23.4416ZM30.0928 23.776C30.9116 23.776 31.6753 23.609 32.3448 23.2306L31.3607 21.4894C31.0489 21.6657 30.6393 21.776 30.0928 21.776V23.776ZM32.3566 23.2238C33.1648 22.7523 33.6208 21.9922 33.6208 21.048H31.6208C31.6208 21.2558 31.5647 21.3703 31.3489 21.4962L32.3566 23.2238ZM33.6208 21.048C33.6208 20.1088 33.1501 19.3671 32.3566 18.9042L31.3489 20.6318C31.5794 20.7662 31.6208 20.8778 31.6208 21.048H33.6208ZM32.3566 18.9042C31.6698 18.5035 30.8932 18.32 30.0608 18.32V20.32C30.5936 20.32 31.0118 20.4351 31.3489 20.6318L32.3566 18.9042ZM30.0608 18.32C29.4218 18.32 28.816 18.4222 28.2647 18.6544L29.0408 20.4976C29.3001 20.3884 29.633 20.32 30.0608 20.32V18.32ZM28.2588 18.6569C27.7594 18.8709 27.3604 19.2268 27.1003 19.7099L28.8612 20.6581C28.8997 20.5866 28.9487 20.5371 29.0467 20.4951L28.2588 18.6569ZM27.117 19.6801C26.8714 20.1012 26.7568 20.5655 26.7568 21.048H28.7568C28.7568 20.8905 28.7915 20.7788 28.8445 20.6879L27.117 19.6801ZM26.7568 21.048C26.7568 21.5307 26.8712 21.9927 27.1003 22.4181L28.8612 21.4699C28.7916 21.3407 28.7568 21.2053 28.7568 21.048H26.7568ZM27.117 22.4479C27.3848 22.9071 27.7831 23.2353 28.2588 23.4391L29.0467 21.6009C28.9251 21.5487 28.8753 21.4929 28.8445 21.4401L27.117 22.4479ZM57.1118 21.88L56.7955 22.8287L56.8045 22.8317L56.8135 22.8345L57.1118 21.88ZM57.1758 26.168L56.6837 25.2974L57.1758 26.168ZM44.3438 24.824L43.7814 25.6509L43.7853 25.6535L44.3438 24.824ZM42.2637 10.296L43.1835 10.6886V10.6886L42.2637 10.296ZM45.5918 6.136L45.0262 5.31125L45.0207 5.31509L45.5918 6.136ZM57.1438 5.944L56.5368 6.73882L56.5461 6.74574L57.1438 5.944ZM58.4557 10.84L59.3099 11.3599L59.3148 11.352L59.3195 11.3439L58.4557 10.84ZM57.1118 11.992L56.6906 11.085L56.6775 11.0911L56.6645 11.0976L57.1118 11.992ZM55.1278 12.376L55.0907 13.3753L55.1092 13.376H55.1278V12.376ZM54.2638 12.344L54.1397 13.3363L54.1831 13.3417L54.2267 13.3433L54.2638 12.344ZM50.9038 12.92L51.4182 13.7775L51.4286 13.7713L51.4388 13.7648L50.9038 12.92ZM49.5918 14.712L48.6312 14.4339L48.2423 15.7774L49.6393 15.7109L49.5918 14.712ZM56.2158 14.84L56.4174 13.8605L56.4119 13.8594L56.2158 14.84ZM57.8798 15.704L57.1365 16.373L57.1455 16.383L57.1548 16.3927L57.8798 15.704ZM57.9118 18.712L58.6377 19.3997L58.6465 19.3905L58.655 19.381L57.9118 18.712ZM56.1838 19.544L55.9929 18.5624L55.9835 18.5642L55.9742 18.5662L56.1838 19.544ZM49.8478 19.704L49.9032 18.7055L48.2303 18.6126L48.9426 20.1291L49.8478 19.704ZM54.2957 21.752L54.2127 20.7555L54.199 20.7566L54.1853 20.7581L54.2957 21.752ZM56.8135 22.8345C57.1812 22.9494 57.3681 23.0985 57.4683 23.23C57.5654 23.3574 57.6478 23.5553 57.6478 23.896H59.6478C59.6478 23.2127 59.4741 22.5626 59.0592 22.018C58.6474 21.4775 58.0663 21.1306 57.41 20.9255L56.8135 22.8345ZM57.6478 23.896C57.6478 24.4263 57.4164 24.8833 56.6837 25.2974L57.6678 27.0386C58.8977 26.3434 59.6478 25.2857 59.6478 23.896H57.6478ZM56.6837 25.2974C55.9459 25.7145 54.4807 26 52.0877 26V28C54.5162 28 56.443 27.7309 57.6678 27.0386L56.6837 25.2974ZM52.0877 26C49.2464 26 46.8669 25.3173 44.9022 23.9945L43.7853 25.6535C46.1299 27.2321 48.9131 28 52.0877 28V26ZM44.9061 23.9971C43.1903 22.8304 42.1437 20.3858 42.1437 16.184H40.1437C40.1437 20.6009 41.2305 23.9163 43.7814 25.6509L44.9061 23.9971ZM42.1437 16.184C42.1437 14.1236 42.4969 12.2972 43.1835 10.6886L41.344 9.90343C40.5373 11.7935 40.1437 13.8924 40.1437 16.184H42.1437ZM43.1835 10.6886C43.8611 9.10095 44.8544 7.86708 46.1628 6.9569L45.0207 5.31509C43.3851 6.45292 42.1597 7.99238 41.344 9.90343L43.1835 10.6886ZM46.1573 6.96073C47.4545 6.07119 49.0718 5.6 51.0638 5.6V3.6C48.7463 3.6 46.7156 4.15281 45.0262 5.31127L46.1573 6.96073ZM51.0638 5.6C53.9014 5.6 55.6395 6.05355 56.5368 6.73877L57.7507 5.14923C56.3013 4.04245 53.9861 3.6 51.0638 3.6V5.6ZM56.5461 6.74574C57.5077 7.46258 57.9038 8.26015 57.9038 9.176H59.9038C59.9038 7.53185 59.1265 6.17475 57.7414 5.14225L56.5461 6.74574ZM57.9038 9.176C57.9038 9.59772 57.8007 9.97831 57.592 10.3361L59.3195 11.3439C59.7081 10.6777 59.9038 9.94894 59.9038 9.176H57.9038ZM57.6016 10.3201C57.4203 10.6179 57.1356 10.8784 56.6906 11.085L57.5329 12.899C58.2826 12.5509 58.8939 12.0435 59.3099 11.3599L57.6016 10.3201ZM56.6645 11.0976C56.3369 11.2614 55.8436 11.376 55.1278 11.376V13.376C56.0332 13.376 56.8626 13.2346 57.559 12.8864L56.6645 11.0976ZM55.1648 11.3767L54.3008 11.3447L54.2267 13.3433L55.0907 13.3753L55.1648 11.3767ZM54.3878 11.3517C54.1549 11.3226 53.8604 11.312 53.5278 11.312V13.312C53.8351 13.312 54.0313 13.3227 54.1397 13.3363L54.3878 11.3517ZM53.5278 11.312C52.3119 11.312 51.2267 11.5318 50.3687 12.0752L51.4388 13.7648C51.8608 13.4976 52.525 13.312 53.5278 13.312V11.312ZM50.3893 12.0625C49.5041 12.5936 48.9262 13.4149 48.6312 14.4339L50.5523 14.9901C50.7267 14.3877 51.0234 14.0144 51.4182 13.7775L50.3893 12.0625ZM49.6393 15.7109C50.523 15.6688 51.3175 15.648 52.0238 15.648V13.648C51.2794 13.648 50.4525 13.6699 49.5442 13.7131L49.6393 15.7109ZM52.0238 15.648C54.2024 15.648 55.4951 15.7157 56.0196 15.8206L56.4119 13.8594C55.6564 13.7083 54.1544 13.648 52.0238 13.648V15.648ZM56.0141 15.8195C56.5912 15.9383 56.9318 16.1456 57.1365 16.373L58.623 15.035C58.0597 14.4091 57.291 14.0404 56.4174 13.8605L56.0141 15.8195ZM57.1548 16.3927C57.3878 16.6381 57.4878 16.8945 57.4878 17.208H59.4878C59.4878 16.3695 59.1824 15.6233 58.6048 15.0153L57.1548 16.3927ZM57.4878 17.208C57.4878 17.5379 57.3866 17.8007 57.1685 18.043L58.655 19.381C59.2049 18.77 59.4878 18.0301 59.4878 17.208H57.4878ZM57.1858 18.0243C56.9924 18.2284 56.6359 18.4374 55.9929 18.5624L56.3746 20.5256C57.2676 20.352 58.0631 20.0062 58.6377 19.3997L57.1858 18.0243ZM55.9742 18.5662C55.5029 18.6672 54.1716 18.736 51.8317 18.736V20.736C54.0999 20.736 55.6699 20.6768 56.3933 20.5218L55.9742 18.5662ZM51.8317 18.736C50.8928 18.736 50.2565 18.7252 49.9032 18.7055L49.7923 20.7025C50.207 20.7255 50.8933 20.736 51.8317 20.736V18.736ZM48.9426 20.1291C49.3525 21.0018 49.9624 21.6936 50.7772 22.1572C51.5825 22.6153 52.5262 22.816 53.5597 22.816V20.816C52.7799 20.816 52.1984 20.6647 51.7663 20.4188C51.3437 20.1784 51.0043 19.8142 50.7529 19.2789L48.9426 20.1291ZM53.5597 22.816C53.7334 22.816 54.039 22.7867 54.4062 22.7459L54.1853 20.7581C53.9973 20.779 53.8487 20.7941 53.7371 20.8038C53.6814 20.8086 53.6379 20.8119 53.6053 20.8138C53.5703 20.816 53.5575 20.816 53.5597 20.816V22.816ZM54.3788 22.7485C54.8735 22.7073 55.2815 22.688 55.6077 22.688V20.688C55.2086 20.688 54.742 20.7113 54.2127 20.7555L54.3788 22.7485ZM55.6077 22.688C56.1695 22.688 56.5524 22.7476 56.7955 22.8287L57.428 20.9313C56.9031 20.7564 56.2833 20.688 55.6077 20.688V22.688ZM78.6458 17.784L77.715 17.4183L77.7122 17.4256L77.7094 17.4329L78.6458 17.784ZM76.7258 20.792L76.0279 20.0758L75.4411 20.6475L75.8862 21.3353L76.7258 20.792ZM76.7578 26.136L76.1129 25.3717L76.1069 25.3768L76.101 25.3819L76.7578 26.136ZM73.1418 26.776L72.796 27.7143V27.7143L73.1418 26.776ZM71.8298 26.008L71.2101 26.7929L71.2183 26.7993L71.8298 26.008ZM69.8138 22.968L70.7555 22.6317L70.5476 22.0496L69.9341 21.9753L69.8138 22.968ZM67.7018 22.424L68.0683 21.4936L66.3856 20.8307L66.7189 22.6083L67.7018 22.424ZM60.9818 23.928L61.9255 23.5972L60.9818 23.928ZM60.9818 10.648L60.0587 10.2634L60.0564 10.2689L60.9818 10.648ZM64.3737 6.328L64.9572 7.14022L64.9646 7.13477L64.3737 6.328ZM74.6777 5.784L74.2147 6.67041L74.2252 6.67575L74.6777 5.784ZM78.0697 8.92L77.2158 9.4404L77.2218 9.45L78.0697 8.92ZM68.2458 17.08L67.5521 17.8003L67.5592 17.8071L67.5663 17.8138L68.2458 17.08ZM72.2138 17.08L72.9069 17.8008L72.9074 17.8003L72.2138 17.08ZM72.2138 13.24L71.5066 13.9471L71.5202 13.9607L71.5343 13.9738L72.2138 13.24ZM68.2458 13.24L68.9394 13.9603V13.9603L68.2458 13.24ZM78.3497 13.656C78.3497 15.1141 78.13 16.3621 77.715 17.4183L79.5765 18.1497C80.1002 16.8166 80.3497 15.3125 80.3497 13.656H78.3497ZM77.7094 17.4329C77.3079 18.5035 76.7445 19.3775 76.0279 20.0758L77.4236 21.5082C78.371 20.5851 79.0876 19.4538 79.5821 18.1351L77.7094 17.4329ZM75.8862 21.3353C76.5131 22.3042 76.7818 23.174 76.7818 23.96H78.7818C78.7818 22.698 78.3464 21.4558 77.5653 20.2487L75.8862 21.3353ZM76.7818 23.96C76.7818 24.5329 76.5759 24.9811 76.1129 25.3717L77.4026 26.9003C78.305 26.1389 78.7818 25.1364 78.7818 23.96H76.7818ZM76.101 25.3819C75.6162 25.8042 75.0904 26 74.4857 26V28C75.5878 28 76.5767 27.6198 77.4145 26.8901L76.101 25.3819ZM74.4857 26C74.0972 26 73.7681 25.9411 73.4875 25.8377L72.796 27.7143C73.326 27.9096 73.893 28 74.4857 28V26ZM73.4875 25.8377C73.2058 25.7339 72.8578 25.5386 72.4412 25.2167L71.2183 26.7993C71.7404 27.2027 72.267 27.5194 72.796 27.7143L73.4875 25.8377ZM72.4494 25.2231C72.149 24.986 71.8341 24.6373 71.5147 24.1488L69.8408 25.2432C70.2467 25.864 70.6998 26.39 71.2101 26.7929L72.4494 25.2231ZM71.5147 24.1488C71.1932 23.6571 70.9412 23.1516 70.7555 22.6317L68.872 23.3043C69.113 23.9791 69.4369 24.6256 69.8408 25.2432L71.5147 24.1488ZM69.9341 21.9753C69.3199 21.9008 68.6985 21.7418 68.0683 21.4936L67.3352 23.3544C68.113 23.6608 68.8996 23.8645 69.6934 23.9607L69.9341 21.9753ZM66.7189 22.6083C66.8438 23.2746 66.8938 23.7241 66.8938 23.992H68.8938C68.8938 23.5346 68.8157 22.9387 68.6846 22.2397L66.7189 22.6083ZM66.8938 23.992C66.8938 24.8404 66.6749 25.2957 66.4094 25.5505C66.1362 25.8126 65.6377 26.032 64.7258 26.032V28.032C65.9258 28.032 67.0113 27.7447 67.7941 26.9935C68.5846 26.235 68.8938 25.1702 68.8938 23.992H66.8938ZM64.7258 26.032C64.0505 26.032 63.5276 25.8407 63.1 25.4862C62.6567 25.1187 62.2485 24.5189 61.9255 23.5972L60.038 24.2588C60.4403 25.4065 61.0188 26.3586 61.8235 27.0258C62.6439 27.706 63.6304 28.032 64.7258 28.032V26.032ZM61.9255 23.5972C61.2482 21.6649 60.8937 19.256 60.8937 16.344H58.8937C58.8937 19.4053 59.2647 22.0524 60.038 24.2588L61.9255 23.5972ZM60.8937 16.344C60.8937 14.4395 61.2339 12.6704 61.9071 11.0271L60.0564 10.2689C59.2789 12.1669 58.8937 14.1951 58.8937 16.344H60.8937ZM61.9048 11.0326C62.5832 9.40453 63.5995 8.11537 64.9572 7.14018L63.7903 5.51581C62.1186 6.71662 60.8736 8.30747 60.0587 10.2634L61.9048 11.0326ZM64.9646 7.13477C66.2816 6.17021 67.9112 5.664 69.9098 5.664V3.664C67.5563 3.664 65.4952 4.26712 63.7829 5.52123L64.9646 7.13477ZM69.9098 5.664C71.5118 5.664 72.9402 6.00456 74.2147 6.67035L75.1408 4.89765C73.5566 4.07011 71.8063 3.664 69.9098 3.664V5.664ZM74.2252 6.67575C75.4893 7.31721 76.4808 8.23414 77.2158 9.44037L78.9237 8.39963C77.9947 6.87519 76.7249 5.70145 75.1303 4.89225L74.2252 6.67575ZM77.2218 9.45C77.9648 10.6388 78.3497 12.0296 78.3497 13.656H80.3497C80.3497 11.6984 79.8814 9.93182 78.9177 8.39L77.2218 9.45ZM66.3818 15.16C66.3818 16.1864 66.8025 17.0785 67.5521 17.8003L68.9394 16.3597C68.537 15.9722 68.3818 15.5843 68.3818 15.16H66.3818ZM67.5663 17.8138C68.3168 18.5086 69.2173 18.88 70.2298 18.88V16.88C69.7489 16.88 69.3267 16.7181 68.9252 16.3462L67.5663 17.8138ZM70.2298 18.88C71.2567 18.88 72.1663 18.5129 72.9069 17.8008L71.5206 16.3592C71.1519 16.7138 70.7388 16.88 70.2298 16.88V18.88ZM72.9074 17.8003C73.657 17.0785 74.0778 16.1864 74.0778 15.16H72.0778C72.0778 15.5843 71.9225 15.9722 71.5201 16.3597L72.9074 17.8003ZM74.0778 15.16C74.0778 14.1191 73.6617 13.2179 72.8932 12.5062L71.5343 13.9738C71.9178 14.3288 72.0778 14.7076 72.0778 15.16H74.0778ZM72.9209 12.5329C72.1832 11.7952 71.2693 11.408 70.2298 11.408V13.408C70.7262 13.408 71.135 13.5755 71.5066 13.9471L72.9209 12.5329ZM70.2298 11.408C69.2049 11.408 68.2999 11.7996 67.5521 12.5197L68.9394 13.9603C69.3436 13.5711 69.7613 13.408 70.2298 13.408V11.408ZM67.5521 12.5197C66.8025 13.2415 66.3818 14.1336 66.3818 15.16H68.3818C68.3818 14.7357 68.537 14.3478 68.9394 13.9603L67.5521 12.5197ZM81.8672 24.984L81.0121 25.5023L81.0167 25.5099L81.0215 25.5175L81.8672 24.984ZM80.3633 19.288L81.3613 19.2256L80.3633 19.288ZM81.6113 10.936L82.5299 11.3311L82.5314 11.3276L81.6113 10.936ZM85.2272 6.296L85.8 7.11576L85.8022 7.11419L85.2272 6.296ZM96.2032 6.296L95.6231 7.11049L95.6294 7.11499L95.6358 7.11939L96.2032 6.296ZM99.8193 10.904L98.897 11.2907L98.9006 11.2991L99.8193 10.904ZM101.067 19.288L100.069 19.2256L100.069 19.2267L101.067 19.288ZM99.5632 24.984L100.411 25.514V25.514L99.5632 24.984ZM93.6432 26.072L92.824 26.6455L92.8303 26.6545L92.8368 26.6634L93.6432 26.072ZM93.0673 22.616L94.0478 22.8121L94.2967 21.568L93.0288 21.6167L93.0673 22.616ZM88.3633 22.616L88.4298 21.6182L87.1265 21.5313L87.3827 22.8121L88.3633 22.616ZM87.7552 26.104L86.9488 25.5126L86.9423 25.5215L86.936 25.5305L87.7552 26.104ZM88.1393 16.92L87.1529 17.0844L87.2974 17.9519L88.1763 17.9193L88.1393 16.92ZM93.1953 16.92L93.1568 17.9193L94.0239 17.9526L94.1791 17.0989L93.1953 16.92ZM92.6192 13.432L91.7872 13.9867L91.7916 13.9933L91.796 13.9997L92.6192 13.432ZM88.6833 13.4L89.5065 13.9677V13.9677L88.6833 13.4ZM85.3232 26.064C84.2927 26.064 83.4363 25.5971 82.7131 24.4505L81.0215 25.5175C82.0476 27.1443 83.4951 28.064 85.3232 28.064V26.064ZM82.7225 24.4657C81.9822 23.2444 81.5048 21.5217 81.3613 19.2256L79.3652 19.3504C79.5204 21.8329 80.0456 23.9076 81.0121 25.5023L82.7225 24.4657ZM81.3613 19.2256C81.342 18.9162 81.3313 18.4399 81.3313 17.784H79.3313C79.3313 18.4508 79.3419 18.9772 79.3652 19.3504L81.3613 19.2256ZM81.3313 17.784C81.3313 15.3125 81.7396 13.1684 82.5299 11.3311L80.6926 10.5409C79.7762 12.6716 79.3313 15.0928 79.3313 17.784H81.3313ZM82.5314 11.3276C83.3224 9.46875 84.4179 8.08133 85.8 7.11576L84.6545 5.47624C82.922 6.68667 81.6068 8.39258 80.6911 10.5444L82.5314 11.3276ZM85.8022 7.11419C87.1983 6.13316 88.8283 5.632 90.7312 5.632V3.632C88.4529 3.632 86.4136 4.24017 84.6523 5.47781L85.8022 7.11419ZM90.7312 5.632C92.6344 5.632 94.251 6.13315 95.6231 7.11049L96.7834 5.48151C95.0408 4.24018 93.0095 3.632 90.7312 3.632V5.632ZM95.6358 7.11939C97.0381 8.08587 98.1298 9.461 98.8971 11.2907L100.741 10.5173C99.8447 8.379 98.5257 6.68213 96.7707 5.47261L95.6358 7.11939ZM98.9006 11.2991C99.6904 13.1355 100.099 15.2899 100.099 17.784H102.099C102.099 15.0728 101.655 12.6405 100.738 10.5089L98.9006 11.2991ZM100.099 17.784C100.099 18.4399 100.089 18.9162 100.069 19.2256L102.065 19.3504C102.089 18.9772 102.099 18.4508 102.099 17.784H100.099ZM100.069 19.2267C99.9252 21.5708 99.4464 23.2842 98.7153 24.454L100.411 25.514C101.387 23.9531 101.911 21.8692 102.065 19.3493L100.069 19.2267ZM98.7153 24.454C98.0207 25.5652 97.1703 26.032 96.1073 26.032V28.032C97.9455 28.032 99.3991 27.1334 100.411 25.514L98.7153 24.454ZM96.1073 26.032C95.0929 26.032 94.6528 25.7577 94.4497 25.4806L92.8368 26.6634C93.5723 27.6663 94.7749 28.032 96.1073 28.032V26.032ZM94.4625 25.4985C94.1516 25.0544 93.9713 24.4849 93.9713 23.736H91.9713C91.9713 24.8218 92.2389 25.8096 92.824 26.6455L94.4625 25.4985ZM93.9713 23.736C93.9713 23.3563 94 23.0514 94.0478 22.8121L92.0867 22.4199C92.0065 22.8206 91.9713 23.2623 91.9713 23.736H93.9713ZM93.0288 21.6167C91.9287 21.659 90.9606 21.68 90.1233 21.68V23.68C90.9925 23.68 91.9871 23.6583 93.1057 23.6153L93.0288 21.6167ZM90.1233 21.68C89.616 21.68 89.0519 21.6597 88.4298 21.6182L88.2967 23.6138C88.9546 23.6576 89.5638 23.68 90.1233 23.68V21.68ZM87.3827 22.8121C87.4305 23.0514 87.4593 23.3563 87.4593 23.736H89.4593C89.4593 23.2623 89.424 22.8206 89.3438 22.4199L87.3827 22.8121ZM87.4593 23.736C87.4593 24.502 87.2706 25.0739 86.9488 25.5126L88.5617 26.6954C89.1785 25.8541 89.4593 24.8473 89.4593 23.736H87.4593ZM86.936 25.5305C86.7557 25.7881 86.3421 26.064 85.3232 26.064V28.064C86.6511 28.064 87.8588 27.6999 88.5745 26.6775L86.936 25.5305ZM88.1763 17.9193C89.3267 17.8767 90.1537 17.856 90.6673 17.856V15.856C90.1142 15.856 89.2558 15.878 88.1022 15.9207L88.1763 17.9193ZM90.6673 17.856C91.2236 17.856 92.0509 17.8767 93.1568 17.9193L93.2337 15.9207C92.1209 15.8779 91.2629 15.856 90.6673 15.856V17.856ZM94.1791 17.0989C94.2384 16.7728 94.2592 16.3476 94.2592 15.864H92.2592C92.2592 16.3191 92.2374 16.5979 92.2114 16.7411L94.1791 17.0989ZM94.2592 15.864C94.2592 14.7252 94.017 13.6974 93.4425 12.8643L91.796 13.9997C92.0748 14.4039 92.2592 14.9975 92.2592 15.864H94.2592ZM93.4513 12.8773C92.8063 11.9098 91.8017 11.472 90.6353 11.472V13.472C91.2608 13.472 91.5789 13.6742 91.7872 13.9867L93.4513 12.8773ZM90.6353 11.472C89.4939 11.472 88.5061 11.8956 87.86 12.8323L89.5065 13.9677C89.7138 13.6671 90.0273 13.472 90.6353 13.472V11.472ZM87.86 12.8323C87.2877 13.6622 87.0433 14.6773 87.0433 15.8H89.0433C89.0433 14.96 89.2255 14.3752 89.5065 13.9677L87.86 12.8323ZM87.0433 15.8C87.0433 16.2216 87.0805 16.65 87.1529 17.0844L89.1256 16.7556C89.07 16.422 89.0433 16.1037 89.0433 15.8H87.0433ZM120.3 27.032L120.286 26.0321L120.286 26.0321L120.3 27.032ZM116.172 26.072L115.688 26.9469L115.694 26.9505L116.172 26.072ZM113.356 23.352L112.485 23.843L112.49 23.8525L112.496 23.8618L113.356 23.352ZM112.3 19.448L111.3 19.4629L111.3 19.4704L111.3 19.4778L112.3 19.448ZM113.292 15.608L112.436 15.0911L113.292 15.608ZM116.14 12.92L115.669 12.038L115.662 12.0415L116.14 12.92ZM124.332 12.888L123.86 13.7695L123.866 13.7729L124.332 12.888ZM127.212 15.576L126.359 16.0974V16.0975L127.212 15.576ZM128.332 19.448L129.332 19.4326L129.332 19.4254L129.332 19.4182L128.332 19.448ZM127.34 23.256L128.196 23.7729L128.2 23.7658L127.34 23.256ZM124.46 25.976L123.977 25.1004L123.97 25.104L124.46 25.976ZM121.9 18.584L121.176 19.2737L121.184 19.2825L121.193 19.2911L121.9 18.584ZM118.892 18.584L119.599 19.2911L119.608 19.2825L119.616 19.2737L118.892 18.584ZM118.892 21.688L118.168 22.3777L118.892 21.688ZM120.286 26.0321C118.902 26.0513 117.699 25.7641 116.65 25.1935L115.694 26.9505C117.077 27.7025 118.626 28.0554 120.314 28.0319L120.286 26.0321ZM116.656 25.1971C115.614 24.6201 114.806 23.8381 114.216 22.8422L112.496 23.8618C113.271 25.1699 114.341 26.2012 115.688 26.9469L116.656 25.1971ZM114.227 22.861C113.65 21.8374 113.338 20.6959 113.3 19.4182L111.3 19.4778C111.348 21.0587 111.739 22.5199 112.485 23.843L114.227 22.861ZM113.3 19.4331C113.281 18.175 113.57 17.0821 114.148 16.1249L112.436 15.0911C111.649 16.3953 111.276 17.8624 111.3 19.4629L113.3 19.4331ZM114.148 16.1249C114.734 15.1536 115.55 14.3792 116.618 13.7985L115.662 12.0415C114.298 12.7834 113.215 13.8011 112.436 15.0911L114.148 16.1249ZM116.611 13.8019C117.69 13.2253 118.913 12.928 120.3 12.928V10.928C118.615 10.928 117.064 11.292 115.669 12.0381L116.611 13.8019ZM120.3 12.928C121.646 12.928 122.825 13.215 123.86 13.7695L124.804 12.0065C123.45 11.281 121.941 10.928 120.3 10.928V12.928ZM123.866 13.7729C124.926 14.3305 125.751 15.1022 126.359 16.0974L128.065 15.0546C127.265 13.7458 126.17 12.7255 124.798 12.0031L123.866 13.7729ZM126.359 16.0975C126.967 17.0922 127.295 18.2116 127.332 19.4778L129.332 19.4182C129.284 17.8257 128.865 16.3638 128.065 15.0545L126.359 16.0975ZM127.332 19.4634C127.351 20.6724 127.065 21.7589 126.48 22.7462L128.2 23.7658C128.981 22.4491 129.356 20.997 129.332 19.4326L127.332 19.4634ZM126.484 22.7391C125.898 23.7091 125.072 24.4964 123.977 25.1004L124.943 26.8516C126.323 26.0903 127.416 25.0643 128.196 23.7729L126.484 22.7391ZM123.97 25.104C122.916 25.6958 121.697 26.0128 120.286 26.0321L120.314 28.0319C122.018 28.0086 123.572 27.6215 124.95 26.848L123.97 25.104ZM120.396 23.36C121.267 23.36 122.024 23.0075 122.624 22.3777L121.176 20.9983C120.922 21.2645 120.677 21.36 120.396 21.36V23.36ZM122.624 22.3777C123.221 21.7511 123.54 20.9841 123.54 20.12H121.54C121.54 20.4506 121.432 20.7289 121.176 20.9983L122.624 22.3777ZM123.54 20.12C123.54 19.2544 123.219 18.489 122.607 17.8769L121.193 19.2911C121.434 19.5324 121.54 19.7909 121.54 20.12H123.54ZM122.624 17.8943C122.024 17.2645 121.267 16.912 120.396 16.912V18.912C120.677 18.912 120.922 19.0075 121.176 19.2737L122.624 17.8943ZM120.396 16.912C119.525 16.912 118.768 17.2645 118.168 17.8943L119.616 19.2737C119.87 19.0075 120.115 18.912 120.396 18.912V16.912ZM118.185 17.8769C117.573 18.489 117.252 19.2544 117.252 20.12H119.252C119.252 19.7909 119.358 19.5324 119.599 19.2911L118.185 17.8769ZM117.252 20.12C117.252 20.9841 117.571 21.7511 118.168 22.3777L119.616 20.9983C119.36 20.7289 119.252 20.4506 119.252 20.12H117.252ZM118.168 22.3777C118.768 23.0075 119.525 23.36 120.396 23.36V21.36C120.115 21.36 119.87 21.2645 119.616 20.9983L118.168 22.3777ZM130.285 24.6L129.321 24.8696L129.325 24.8815L130.285 24.6ZM129.773 14.776L128.783 14.6312L128.782 14.6416L128.78 14.652L129.773 14.776ZM130.637 12.568L129.84 11.9636L129.837 11.968L130.637 12.568ZM134.348 12.056L133.822 12.9063L133.831 12.9117L133.84 12.9169L134.348 12.056ZM135.245 13.24L134.274 13.4825L134.68 15.1047L135.917 13.9799L135.245 13.24ZM137.068 12.28L137.343 13.2415L137.068 12.28ZM141.549 12.472L141.112 13.3719L141.123 13.3768L141.549 12.472ZM143.34 13.88L142.554 14.4978L142.566 14.5134L142.579 14.5285L143.34 13.88ZM143.34 17.592L142.605 16.9149L142.603 16.9163L143.34 17.592ZM140.717 18.264L140.429 19.2218L140.441 19.2254L140.453 19.2288L140.717 18.264ZM140.141 18.072L139.769 19.0005L139.779 19.0045L139.789 19.0083L140.141 18.072ZM136.909 18.808L136.19 18.1126L136.19 18.113L136.909 18.808ZM135.852 24.12L136.846 24.2335L135.852 24.12ZM135.085 26.136L135.888 26.7312L135.893 26.7243L135.898 26.7172L135.085 26.136ZM133.036 26C132.564 26 132.236 25.868 131.982 25.6463C131.711 25.41 131.444 25.001 131.244 24.3185L129.325 24.8815C129.594 25.799 130.021 26.59 130.667 27.1537C131.33 27.732 132.144 28 133.036 28V26ZM131.247 24.3304C130.835 22.8581 130.613 20.7546 130.613 17.976H128.613C128.613 20.8294 128.838 23.1419 129.322 24.8696L131.247 24.3304ZM130.613 17.976C130.613 16.7195 130.665 15.6976 130.765 14.9L128.78 14.652C128.667 15.5611 128.613 16.6725 128.613 17.976H130.613ZM130.762 14.9208C130.87 14.1809 131.106 13.6092 131.436 13.168L129.837 11.968C129.271 12.7215 128.931 13.6217 128.783 14.6312L130.762 14.9208ZM131.433 13.1724C131.669 12.8618 132.051 12.64 132.781 12.64V10.64C131.59 10.64 130.543 11.0369 129.84 11.9636L131.433 13.1724ZM132.781 12.64C133.217 12.64 133.553 12.7394 133.822 12.9063L134.875 11.2057C134.248 10.8179 133.538 10.64 132.781 10.64V12.64ZM133.84 12.9169C134.087 13.0632 134.214 13.2395 134.274 13.4825L136.215 12.9975C136.019 12.2165 135.548 11.6035 134.857 11.1951L133.84 12.9169ZM135.917 13.9799C136.25 13.6774 136.712 13.4219 137.343 13.2415L136.794 11.3185C135.932 11.5648 135.178 11.9493 134.572 12.5001L135.917 13.9799ZM137.343 13.2415C137.992 13.0561 138.699 12.96 139.469 12.96V10.96C138.531 10.96 137.638 11.0772 136.794 11.3185L137.343 13.2415ZM139.469 12.96C139.979 12.96 140.524 13.0868 141.112 13.3718L141.985 11.5722C141.165 11.1746 140.323 10.96 139.469 10.96V12.96ZM141.123 13.3768C141.715 13.6556 142.186 14.0297 142.554 14.4978L144.127 13.2622C143.556 12.5357 142.833 11.971 141.974 11.5672L141.123 13.3768ZM142.579 14.5285C142.934 14.9445 143.077 15.3492 143.077 15.768H145.077C145.077 14.8215 144.729 13.9675 144.102 13.2315L142.579 14.5285ZM143.077 15.768C143.077 16.1834 142.937 16.5537 142.605 16.9149L144.076 18.2691C144.725 17.5636 145.077 16.7179 145.077 15.768H143.077ZM142.603 16.9163C142.35 17.1925 142.004 17.36 141.452 17.36V19.36C142.48 19.36 143.392 19.0155 144.078 18.2677L142.603 16.9163ZM141.452 17.36C141.281 17.36 141.124 17.3387 140.98 17.2992L140.453 19.2288C140.778 19.3173 141.112 19.36 141.452 19.36V17.36ZM141.004 17.3062C140.807 17.2473 140.637 17.1903 140.492 17.1357L139.789 19.0083C139.985 19.0817 140.199 19.1527 140.429 19.2218L141.004 17.3062ZM140.512 17.1435C140.046 16.9571 139.563 16.816 139.117 16.816V18.816C139.182 18.816 139.382 18.8456 139.769 19.0005L140.512 17.1435ZM139.117 16.816C137.983 16.816 136.996 17.2794 136.19 18.1126L137.627 19.5034C138.101 19.014 138.586 18.816 139.117 18.816V16.816ZM136.19 18.113C135.363 18.9676 134.98 20.0627 134.98 21.304H136.98C136.98 20.4973 137.216 19.9283 137.627 19.503L136.19 18.113ZM134.98 21.304C134.98 22.4136 134.938 23.3112 134.859 24.0065L136.846 24.2335C136.937 23.4355 136.98 22.4557 136.98 21.304H134.98ZM134.859 24.0065C134.792 24.5887 134.596 25.0989 134.271 25.5548L135.898 26.7172C136.426 25.9784 136.742 25.1447 136.846 24.2335L134.859 24.0065ZM134.281 25.5408C134.099 25.7868 133.766 26 133.036 26V28C134.185 28 135.217 27.6372 135.888 26.7312L134.281 25.5408ZM166.245 15.224L166.524 14.2637L166.506 14.2584L166.487 14.2539L166.245 15.224ZM170.629 17.56L169.906 18.2513L169.914 18.2591L170.629 17.56ZM170.277 25.176L169.635 24.4089L169.628 24.4148L170.277 25.176ZM165.349 26.968L165.249 25.973L164.392 26.0587L164.35 26.9193L165.349 26.968ZM165.125 28.92L164.155 28.6774L164.152 28.6884L165.125 28.92ZM164.709 29.816L164.05 29.0634L164.025 29.0854L164.002 29.1089L164.709 29.816ZM163.173 29.432L162.259 29.8381L162.264 29.8492L162.269 29.8601L163.173 29.432ZM162.789 27L163.786 26.9312L163.726 26.0593L162.854 26.0021L162.789 27ZM159.109 26.264L159.441 25.3207L159.109 26.264ZM156.325 24.632L155.629 25.3499L156.325 24.632ZM156.069 20.248L155.376 19.5266L156.069 20.248ZM159.365 19.832L158.864 20.6974L159.365 19.832ZM160.837 20.888L161.477 20.1197L161.468 20.1128L160.837 20.888ZM162.661 22.168L162.231 23.0709L163.717 23.7785L163.66 22.1335L162.661 22.168ZM162.629 19.096H163.629V18.3835L162.955 18.1508L162.629 19.096ZM160.869 18.488L161.195 17.5428L161.185 17.5393L160.869 18.488ZM156.677 16.024L157.414 15.3483L156.677 16.024ZM156.229 8.568L155.389 8.02547L155.386 8.02996L156.229 8.568ZM158.917 6.008L158.407 5.14768L158.4 5.15194L158.917 6.008ZM162.757 4.728L162.877 5.72073L163.721 5.61841L163.756 4.76878L162.757 4.728ZM162.981 2.392L162.002 2.18804V2.18804L162.981 2.392ZM163.365 1.368L162.658 0.66089L162.634 0.684435L162.612 0.709494L163.365 1.368ZM164.741 1.368L163.988 2.0265L164.01 2.05156L164.034 2.0751L164.741 1.368ZM165.381 4.696L164.382 4.73763L164.418 5.61138L165.289 5.69177L165.381 4.696ZM169.125 5.72L168.678 6.61445L168.684 6.61779L169.125 5.72ZM171.781 7.8L170.988 8.40971V8.40971L171.781 7.8ZM171.685 13.112L172.33 13.8763L172.332 13.8745L171.685 13.112ZM167.589 13.656L167.172 14.5651L167.188 14.5723L167.204 14.5791L167.589 13.656ZM166.245 12.92L165.668 13.737L165.679 13.7447L165.69 13.752L166.245 12.92ZM165.509 12.408L166.063 11.5759L164.509 10.5395V12.408H165.509ZM165.509 15H164.509V15.6594L165.115 15.9191L165.509 15ZM161.605 13.688L160.98 14.4689V14.4689L161.605 13.688ZM162.629 14.2L162.287 15.1398L163.629 15.6277V14.2H162.629ZM162.629 11.768H163.629V10.5595L162.442 10.7857L162.629 11.768ZM161.605 12.248L160.898 11.5409L160.881 11.5577L160.865 11.5753L161.605 12.248ZM165.477 22.456L164.477 22.4425L164.459 23.7579L165.731 23.4231L165.477 22.456ZM166.405 21.976L167.112 22.6831V22.6831L166.405 21.976ZM166.437 20.632L165.73 21.3391L165.75 21.3599L165.772 21.3794L166.437 20.632ZM165.509 20.088L165.88 19.1595L164.529 18.6189L164.509 20.0745L165.509 20.088ZM165.966 16.1843C167.862 16.7348 169.137 17.4467 169.906 18.2512L171.351 16.8688C170.244 15.7106 168.595 14.8652 166.524 14.2637L165.966 16.1843ZM169.914 18.2591C170.646 19.0078 171.037 19.9823 171.037 21.272H173.037C173.037 19.5324 172.489 18.0322 171.344 16.8609L169.914 18.2591ZM171.037 21.272C171.037 22.6175 170.566 23.6302 169.635 24.4089L170.918 25.9431C172.334 24.7591 173.037 23.1692 173.037 21.272H171.037ZM169.628 24.4148C168.684 25.2196 167.261 25.7718 165.249 25.973L165.448 27.963C167.703 27.7376 169.566 27.0951 170.925 25.9372L169.628 24.4148ZM164.35 26.9193C164.308 27.7794 164.237 28.3497 164.155 28.6775L166.095 29.1625C166.226 28.637 166.304 27.9059 166.348 27.0167L164.35 26.9193ZM164.152 28.6884C164.109 28.8708 164.066 28.989 164.034 29.0589C163.999 29.1343 163.994 29.1125 164.05 29.0634L165.367 30.5686C165.789 30.1998 165.984 29.6298 166.098 29.1516L164.152 28.6884ZM164.002 29.1089C164.02 29.091 164.039 29.0755 164.059 29.0632C164.079 29.051 164.096 29.0439 164.106 29.0401C164.127 29.033 164.12 29.04 164.069 29.04V31.04C164.525 31.04 165.026 30.9133 165.416 30.5231L164.002 29.1089ZM164.069 29.04C164.051 29.04 164.05 29.0379 164.061 29.041C164.067 29.0425 164.073 29.0449 164.081 29.0485C164.089 29.0521 164.096 29.0562 164.102 29.0605C164.116 29.0697 164.119 29.0755 164.115 29.07C164.11 29.0637 164.096 29.0442 164.076 29.0039L162.269 29.8601C162.423 30.1852 162.65 30.4923 162.979 30.7155C163.314 30.9428 163.691 31.04 164.069 31.04V29.04ZM164.087 29.0259C164.056 28.9574 163.997 28.7645 163.937 28.38C163.879 28.0142 163.828 27.5338 163.786 26.9312L161.791 27.0688C161.835 27.7035 161.891 28.2472 161.961 28.692C162.028 29.1181 162.119 29.5226 162.259 29.8381L164.087 29.0259ZM162.854 26.0021C161.638 25.9224 160.501 25.6938 159.441 25.3207L158.777 27.2073C160.02 27.6449 161.337 27.907 162.723 27.9979L162.854 26.0021ZM159.441 25.3207C158.392 24.9519 157.599 24.4747 157.021 23.9141L155.629 25.3499C156.458 26.1546 157.521 26.7655 158.777 27.2073L159.441 25.3207ZM157.021 23.9141C156.48 23.3891 156.269 22.8697 156.269 22.328H154.269C154.269 23.4929 154.762 24.5095 155.629 25.3499L157.021 23.9141ZM156.269 22.328C156.269 21.6717 156.46 21.2585 156.761 20.9694L155.376 19.5266C154.611 20.2615 154.269 21.235 154.269 22.328H156.269ZM156.761 20.9694C157.09 20.6542 157.505 20.48 158.085 20.48V18.48C157.043 18.48 156.115 18.8178 155.376 19.5266L156.761 20.9694ZM158.085 20.48C158.349 20.48 158.603 20.5467 158.864 20.6974L159.866 18.9666C159.315 18.6479 158.717 18.48 158.085 18.48V20.48ZM158.864 20.6974C159.205 20.8948 159.649 21.2104 160.205 21.6632L161.468 20.1128C160.872 19.6269 160.336 19.2385 159.866 18.9666L158.864 20.6974ZM160.197 21.6562C160.978 22.3072 161.665 22.8013 162.231 23.0709L163.091 21.2651C162.761 21.1081 162.232 20.7488 161.477 20.1198L160.197 21.6562ZM163.66 22.1335C163.639 21.5336 163.629 20.5247 163.629 19.096H161.629C161.629 20.5259 161.639 21.565 161.661 22.2025L163.66 22.1335ZM162.955 18.1508L161.195 17.5428L160.542 19.4332L162.302 20.0412L162.955 18.1508ZM161.185 17.5393C159.428 16.9537 158.2 16.2062 157.414 15.3483L155.94 16.6997C157.03 17.8898 158.598 18.785 160.553 19.4367L161.185 17.5393ZM157.414 15.3483C156.691 14.5594 156.269 13.4096 156.269 11.768H154.269C154.269 13.753 154.785 15.4406 155.94 16.6997L157.414 15.3483ZM156.269 11.768C156.269 10.8381 156.529 9.95677 157.072 9.10603L155.386 8.02996C154.649 9.18456 154.269 10.4365 154.269 11.768H156.269ZM157.069 9.11052C157.641 8.22468 158.422 7.47483 159.434 6.86406L158.4 5.15194C157.15 5.90651 156.139 6.86332 155.389 8.02547L157.069 9.11052ZM159.427 6.86829C160.452 6.26042 161.598 5.87572 162.877 5.72073L162.636 3.73526C161.099 3.92161 159.685 4.39024 158.407 5.14771L159.427 6.86829ZM163.756 4.76878C163.798 3.73542 163.871 3.0242 163.96 2.59595L162.002 2.18804C161.878 2.78379 161.801 3.62991 161.758 4.68722L163.756 4.76878ZM163.96 2.59595C164.007 2.37047 164.053 2.21025 164.093 2.10312C164.137 1.98512 164.155 1.98309 164.117 2.0265L162.612 0.709494C162.425 0.923574 162.304 1.17754 162.22 1.40087C162.133 1.63508 162.061 1.90153 162.002 2.18804L163.96 2.59595ZM164.072 2.07511C164.062 2.08447 164.051 2.09364 164.039 2.10149C164.026 2.10927 164.016 2.11368 164.01 2.11579C163.999 2.11991 164.014 2.112 164.069 2.112V0.112C163.572 0.112 163.058 0.260251 162.658 0.66089L164.072 2.07511ZM164.069 2.112C164.125 2.112 164.131 2.12032 164.105 2.11049C164.091 2.10531 164.072 2.09603 164.049 2.08073C164.027 2.06528 164.006 2.04674 163.988 2.0265L165.493 0.709491C165.098 0.258199 164.559 0.112 164.069 0.112V2.112ZM164.034 2.0751C163.988 2.02963 164.003 2.02284 164.046 2.12838C164.086 2.22549 164.132 2.37655 164.178 2.59595L166.136 2.18804C166.026 1.66166 165.844 1.05702 165.448 0.660891L164.034 2.0751ZM164.178 2.59595C164.267 3.0253 164.34 3.72688 164.382 4.73763L166.38 4.65437C166.337 3.61712 166.26 2.7827 166.136 2.18804L164.178 2.59595ZM165.289 5.69177C166.567 5.80974 167.692 6.12172 168.678 6.61443L169.572 4.82557C168.339 4.20894 166.968 3.83826 165.473 3.70023L165.289 5.69177ZM168.684 6.61779C169.704 7.11814 170.459 7.7215 170.988 8.40971L172.573 7.19029C171.823 6.2145 170.807 5.43119 169.565 4.82221L168.684 6.61779ZM170.988 8.40971C171.51 9.08869 171.741 9.76387 171.741 10.456H173.741C173.741 9.27079 173.331 8.17531 172.573 7.19029L170.988 8.40971ZM171.741 10.456C171.741 11.4215 171.46 11.9914 171.038 12.3495L172.332 13.8745C173.318 13.0379 173.741 11.8372 173.741 10.456H171.741ZM171.04 12.3477C170.528 12.7792 169.986 12.976 169.381 12.976V14.976C170.482 14.976 171.476 14.5968 172.33 13.8763L171.04 12.3477ZM169.381 12.976C168.801 12.976 168.339 12.8852 167.973 12.7329L167.204 14.5791C167.863 14.8534 168.596 14.976 169.381 14.976V12.976ZM168.005 12.7469C167.531 12.5297 167.131 12.3091 166.799 12.0879L165.69 13.752C166.126 14.0429 166.622 14.313 167.172 14.5651L168.005 12.7469ZM166.821 12.103C166.46 11.8481 166.204 11.6698 166.063 11.5759L164.954 13.24C165.069 13.3168 165.304 13.4799 165.668 13.737L166.821 12.103ZM164.509 12.408V15H166.509V12.408H164.509ZM165.115 15.9191C165.343 16.0168 165.654 16.1072 166.002 16.1941L166.487 14.2539C166.152 14.1701 165.973 14.1112 165.903 14.0809L165.115 15.9191ZM160.285 13.048C160.285 13.6305 160.548 14.1231 160.98 14.4689L162.229 12.9071C162.219 12.8991 162.239 12.9125 162.259 12.9528C162.28 12.995 162.285 13.0324 162.285 13.048H160.285ZM160.98 14.4689C161.322 14.7422 161.785 14.9574 162.287 15.1398L162.97 13.2602C162.533 13.1013 162.314 12.9751 162.229 12.9071L160.98 14.4689ZM163.629 14.2V11.768H161.629V14.2H163.629ZM162.442 10.7857C161.868 10.8949 161.318 11.1204 160.898 11.5409L162.312 12.9551C162.361 12.9063 162.493 12.8118 162.816 12.7503L162.442 10.7857ZM160.865 11.5753C160.495 11.9816 160.285 12.4842 160.285 13.048H162.285C162.285 13.0144 162.287 12.9837 162.345 12.9207L160.865 11.5753ZM165.731 23.4231C166.244 23.2881 166.734 23.0611 167.112 22.6831L165.698 21.2689C165.649 21.3176 165.52 21.4106 165.222 21.4889L165.731 23.4231ZM167.112 22.6831C167.511 22.2844 167.725 21.7749 167.725 21.208H165.725C165.725 21.2229 165.723 21.2315 165.723 21.2352C165.722 21.2371 165.722 21.2382 165.722 21.2387C165.722 21.2391 165.722 21.2393 165.722 21.2394C165.722 21.2395 165.721 21.2398 165.721 21.2405C165.721 21.2412 165.72 21.2426 165.719 21.2447C165.716 21.2487 165.71 21.2569 165.698 21.2689L167.112 22.6831ZM167.725 21.208C167.725 20.6511 167.459 20.2028 167.101 19.8846L165.772 21.3794C165.792 21.3965 165.777 21.389 165.758 21.3512C165.737 21.3093 165.725 21.2576 165.725 21.208H167.725ZM167.144 19.9249C166.812 19.5929 166.357 19.3504 165.88 19.1595L165.137 21.0165C165.513 21.1669 165.678 21.2871 165.73 21.3391L167.144 19.9249ZM164.509 20.0745L164.477 22.4425L166.477 22.4695L166.509 20.1015L164.509 20.0745ZM184.923 26.968L184.917 27.968H184.923V26.968ZM176.955 24.344L176.252 25.0554L176.257 25.0597L176.955 24.344ZM176.891 7.64L177.653 8.28813L177.656 8.28413L176.891 7.64ZM189.147 5.464L189.521 4.53648L189.147 5.464ZM192.827 14.776L191.959 14.2799L191.955 14.2877L191.95 14.2957L192.827 14.776ZM190.619 17.176L190.036 16.3635L188.068 17.7754L190.459 18.1631L190.619 17.176ZM192.667 18.456L191.884 19.0779L191.89 19.0848L191.895 19.0917L192.667 18.456ZM192.731 23.896L191.876 23.3786L191.872 23.3845L192.731 23.896ZM189.979 26.104L189.574 25.1896L189.569 25.1921L189.979 26.104ZM182.715 15.032L183.162 14.1376L183.136 14.1244L183.109 14.1129L182.715 15.032ZM185.915 14.84L186.462 15.6777L186.47 15.672L185.915 14.84ZM185.915 11.896L185.344 12.7169L185.364 12.731L185.385 12.744L185.915 11.896ZM182.715 11.672L183.109 12.5911L183.136 12.5796L183.162 12.5664L182.715 11.672ZM182.043 12.344L181.137 11.9211V11.9211L182.043 12.344ZM182.043 14.392L181.137 14.8149L181.143 14.8271L181.149 14.8392L182.043 14.392ZM182.715 22.52L182.321 23.4392L182.327 23.4416L182.715 22.52ZM185.915 22.36L186.407 23.2306L186.419 23.2238L185.915 22.36ZM185.915 19.768L186.419 18.9042L185.915 19.768ZM182.715 19.576L182.327 18.6543L182.321 18.6569L182.715 19.576ZM182.043 20.184L182.907 20.6879L182.916 20.6731L182.924 20.6581L182.043 20.184ZM182.043 21.944L181.163 22.4181L181.171 22.4331L181.179 22.4479L182.043 21.944ZM184.929 25.968C181.535 25.9476 179.172 25.1101 177.654 23.6283L176.257 25.0597C178.28 27.0339 181.229 27.9458 184.917 27.968L184.929 25.968ZM177.658 23.6326C176.184 22.1767 175.331 19.6934 175.331 15.928H173.331C173.331 19.9279 174.228 23.0553 176.253 25.0554L177.658 23.6326ZM175.331 15.928C175.331 12.5649 176.145 10.0594 177.653 8.28812L176.13 6.99188C174.224 9.23124 173.331 12.2511 173.331 15.928H175.331ZM177.656 8.28413C179.139 6.52359 181.246 5.6 184.123 5.6V3.6C180.771 3.6 178.057 4.70307 176.126 6.99586L177.656 8.28413ZM184.123 5.6C185.946 5.6 187.488 5.87358 188.773 6.39152L189.521 4.53648C187.948 3.90242 186.141 3.6 184.123 3.6V5.6ZM188.773 6.39152C190.058 6.90921 190.992 7.624 191.632 8.5123L193.255 7.34369C192.358 6.09867 191.095 5.17079 189.521 4.53648L188.773 6.39152ZM191.632 8.5123C192.264 9.39116 192.595 10.4402 192.595 11.704H194.595C194.595 10.0664 194.158 8.59818 193.255 7.34369L191.632 8.5123ZM192.595 11.704C192.595 12.7027 192.375 13.552 191.959 14.2799L193.695 15.2721C194.304 14.208 194.595 13.0093 194.595 11.704H192.595ZM191.95 14.2957C191.543 15.0385 190.918 15.731 190.036 16.3635L191.202 17.9885C192.283 17.213 193.13 16.3055 193.704 15.2563L191.95 14.2957ZM190.459 18.1631C190.964 18.245 191.437 18.5147 191.884 19.0779L193.45 17.8341C192.746 16.9466 191.853 16.363 190.779 16.1889L190.459 18.1631ZM191.895 19.0917C192.342 19.6338 192.563 20.2505 192.563 20.984H194.563C194.563 19.7975 194.187 18.7288 193.439 17.8203L191.895 19.0917ZM192.563 20.984C192.563 21.8169 192.34 22.6097 191.876 23.3786L193.587 24.4134C194.231 23.3476 194.563 22.1991 194.563 20.984H192.563ZM191.872 23.3845C191.477 24.0478 190.754 24.6675 189.575 25.1896L190.384 27.0184C191.807 26.3885 192.919 25.5362 193.591 24.4075L191.872 23.3845ZM189.569 25.1921C188.465 25.6887 186.936 25.968 184.923 25.968V27.968C187.092 27.968 188.933 27.6713 190.39 27.0159L189.569 25.1921ZM182.268 15.9264C182.83 16.2074 183.475 16.32 184.155 16.32V14.32C183.684 14.32 183.368 14.2406 183.162 14.1376L182.268 15.9264ZM184.155 16.32C184.999 16.32 185.783 16.1202 186.462 15.6776L185.369 14.0024C185.066 14.1998 184.677 14.32 184.155 14.32V16.32ZM186.47 15.672C187.284 15.1294 187.683 14.302 187.683 13.336H185.683C185.683 13.6927 185.571 13.868 185.361 14.0079L186.47 15.672ZM187.683 13.336C187.683 12.3762 187.27 11.5636 186.445 11.048L185.385 12.744C185.584 12.8684 185.683 13.0158 185.683 13.336H187.683ZM186.486 11.0751C185.8 10.5976 184.994 10.384 184.123 10.384V12.384C184.66 12.384 185.049 12.5118 185.344 12.7169L186.486 11.0751ZM184.123 10.384C183.457 10.384 182.825 10.4989 182.268 10.7776L183.162 12.5664C183.373 12.4611 183.68 12.384 184.123 12.384V10.384ZM182.321 10.7529C181.776 10.9864 181.381 11.3993 181.137 11.9211L182.949 12.7669C183.005 12.6487 183.057 12.6136 183.109 12.5911L182.321 10.7529ZM181.137 11.9211C180.924 12.3772 180.819 12.8633 180.819 13.368H182.819C182.819 13.1474 182.864 12.9508 182.949 12.7669L181.137 11.9211ZM180.819 13.368C180.819 13.8727 180.924 14.3588 181.137 14.8149L182.949 13.9691C182.864 13.7852 182.819 13.5886 182.819 13.368H180.819ZM181.149 14.8392C181.401 15.343 181.799 15.7272 182.321 15.9511L183.109 14.1129C183.034 14.0808 182.984 14.0383 182.938 13.9448L181.149 14.8392ZM182.327 23.4416C182.883 23.6756 183.501 23.776 184.155 23.776V21.776C183.7 21.776 183.358 21.7057 183.103 21.5984L182.327 23.4416ZM184.155 23.776C184.974 23.776 185.738 23.609 186.407 23.2306L185.423 21.4894C185.111 21.6657 184.702 21.776 184.155 21.776V23.776ZM186.419 23.2238C187.227 22.7523 187.683 21.9922 187.683 21.048H185.683C185.683 21.2558 185.627 21.3703 185.411 21.4962L186.419 23.2238ZM187.683 21.048C187.683 20.1088 187.213 19.3671 186.419 18.9042L185.411 20.6318C185.642 20.7662 185.683 20.8778 185.683 21.048H187.683ZM186.419 18.9042C185.732 18.5035 184.956 18.32 184.123 18.32V20.32C184.656 20.32 185.074 20.4351 185.411 20.6318L186.419 18.9042ZM184.123 18.32C183.484 18.32 182.879 18.4222 182.327 18.6544L183.103 20.4976C183.363 20.3884 183.696 20.32 184.123 20.32V18.32ZM182.321 18.6569C181.822 18.8709 181.423 19.2268 181.163 19.7099L182.924 20.6581C182.962 20.5866 183.011 20.5371 183.109 20.4951L182.321 18.6569ZM181.179 19.6801C180.934 20.1012 180.819 20.5655 180.819 21.048H182.819C182.819 20.8905 182.854 20.7788 182.907 20.6879L181.179 19.6801ZM180.819 21.048C180.819 21.5307 180.934 21.9927 181.163 22.4181L182.924 21.4699C182.854 21.3407 182.819 21.2053 182.819 21.048H180.819ZM181.179 22.4479C181.447 22.9071 181.846 23.2353 182.321 23.4391L183.109 21.6009C182.988 21.5487 182.938 21.4929 182.907 21.4401L181.179 22.4479ZM200.518 25.688L200.961 24.7914L200.518 25.688ZM196.55 22.04L195.678 22.5286L195.682 22.5355L195.686 22.5424L196.55 22.04ZM196.838 9.816L195.991 9.28506L195.986 9.29248L196.838 9.816ZM201.126 5.88L200.688 4.98123L201.126 5.88ZM211.142 5.368L211.508 4.43743L211.142 5.368ZM214.15 7.384L214.914 6.73806V6.73806L214.15 7.384ZM214.182 12.856L214.813 13.6321L214.82 13.6263L214.827 13.6203L214.182 12.856ZM210.406 13.56L210.164 14.5302L210.177 14.5334L210.406 13.56ZM209.318 13.208L209.681 12.276L209.665 12.2698L209.649 12.2641L209.318 13.208ZM208.166 12.888L207.909 13.8542L207.945 13.8639L207.982 13.8709L208.166 12.888ZM203.622 14.04L204.339 14.7379L204.347 14.7287L203.622 14.04ZM203.59 20.6L202.925 21.3463V21.3463L203.59 20.6ZM209.382 20.824L210.022 21.5922V21.5922L209.382 20.824ZM209.766 20.312H210.766V19.312H209.766V20.312ZM205.926 15.8L206.548 16.5835L206.556 16.577L206.564 16.5704L205.926 15.8ZM212.614 15.576L212.223 16.4963L212.233 16.5005L212.243 16.5045L212.614 15.576ZM214.438 17.208L213.539 17.6449L213.544 17.6552L214.438 17.208ZM213.862 23.544L213.048 22.9627L213.041 22.9739L213.862 23.544ZM210.854 26.04L210.419 25.1396L210.413 25.1426L210.854 26.04ZM206.758 25.968C204.441 25.968 202.52 25.5613 200.961 24.7914L200.075 26.5846C201.972 27.5214 204.212 27.968 206.758 27.968V25.968ZM200.961 24.7914C199.399 24.02 198.228 22.9366 197.415 21.5376L195.686 22.5424C196.707 24.3008 198.181 25.6493 200.075 26.5846L200.961 24.7914ZM197.423 21.5514C196.625 20.1263 196.206 18.4129 196.206 16.376H194.206C194.206 18.6911 194.684 20.7537 195.678 22.5286L197.423 21.5514ZM196.206 16.376C196.206 13.9118 196.721 11.9174 197.69 10.3395L195.986 9.29248C194.78 11.2559 194.206 13.6348 194.206 16.376H196.206ZM197.686 10.3469C198.703 8.72256 199.996 7.54407 201.565 6.77877L200.688 4.98123C198.758 5.92259 197.192 7.36811 195.991 9.28508L197.686 10.3469ZM201.565 6.77877C203.179 5.9911 204.864 5.6 206.63 5.6V3.6C204.556 3.6 202.572 4.06223 200.688 4.98123L201.565 6.77877ZM206.63 5.6C208.238 5.6 209.614 5.84133 210.776 6.29856L211.508 4.43743C210.068 3.87066 208.435 3.6 206.63 3.6V5.6ZM210.776 6.29856C211.966 6.7667 212.816 7.35496 213.387 8.02994L214.914 6.73806C214.077 5.74904 212.921 4.9933 211.508 4.43743L210.776 6.29856ZM213.387 8.02994C213.968 8.71697 214.206 9.36996 214.206 10.008H216.206C216.206 8.81137 215.74 7.71503 214.914 6.73806L213.387 8.02994ZM214.206 10.008C214.206 11.1806 213.904 11.7825 213.537 12.0917L214.827 13.6203C215.826 12.7775 216.206 11.4807 216.206 10.008H214.206ZM213.552 12.0799C213.072 12.4697 212.461 12.688 211.654 12.688V14.688C212.853 14.688 213.927 14.3516 214.813 13.6321L213.552 12.0799ZM211.654 12.688C211.243 12.688 210.906 12.6504 210.635 12.5866L210.177 14.5334C210.631 14.6403 211.127 14.688 211.654 14.688V12.688ZM210.649 12.5899C210.354 12.5163 210.032 12.4126 209.681 12.276L208.956 14.14C209.373 14.3021 209.775 14.4331 210.164 14.5301L210.649 12.5899ZM209.649 12.2641C209.188 12.1028 208.754 11.9807 208.351 11.9051L207.982 13.8709C208.261 13.9233 208.596 14.0145 208.988 14.1519L209.649 12.2641ZM208.424 11.9218C207.99 11.8061 207.49 11.76 206.95 11.76V13.76C207.391 13.76 207.702 13.7993 207.909 13.8542L208.424 11.9218ZM206.95 11.76C205.326 11.76 203.933 12.2607 202.897 13.3512L204.347 14.7287C204.933 14.1127 205.758 13.76 206.95 13.76V11.76ZM202.906 13.3421C201.861 14.4149 201.406 15.882 201.406 17.592H203.406C203.406 16.23 203.762 15.3291 204.338 14.7379L202.906 13.3421ZM201.406 17.592C201.406 19.1074 201.875 20.4099 202.925 21.3463L204.256 19.8537C203.727 19.3821 203.406 18.6793 203.406 17.592H201.406ZM202.925 21.3463C203.918 22.232 205.144 22.656 206.534 22.656V20.656C205.577 20.656 204.841 20.376 204.256 19.8537L202.925 21.3463ZM206.534 22.656C207.278 22.656 207.97 22.5604 208.591 22.3445L207.934 20.4555C207.573 20.581 207.113 20.656 206.534 20.656V22.656ZM208.591 22.3445C209.139 22.1539 209.637 21.9133 210.022 21.5922L208.742 20.0558C208.615 20.1614 208.367 20.3048 207.934 20.4555L208.591 22.3445ZM210.022 21.5922C210.181 21.4603 210.341 21.3079 210.47 21.136C210.585 20.9826 210.766 20.6945 210.766 20.312H208.766C208.766 20.1774 208.8 20.077 208.823 20.0221C208.846 19.9676 208.868 19.9384 208.87 19.936C208.873 19.9322 208.866 19.9418 208.843 19.9649C208.821 19.9874 208.788 20.0176 208.742 20.0558L210.022 21.5922ZM209.766 19.312C208.259 19.312 207.242 19.1323 206.623 18.8552L205.806 20.6808C206.808 21.129 208.159 21.312 209.766 21.312V19.312ZM206.623 18.8552C206.361 18.7381 206.222 18.6057 206.143 18.4825C206.063 18.3587 205.998 18.1742 205.998 17.88H203.998C203.998 18.4818 204.136 19.0599 204.462 19.5655C204.788 20.0716 205.257 20.4353 205.806 20.6808L206.623 18.8552ZM205.998 17.88C205.998 17.2427 206.202 16.8573 206.548 16.5835L205.305 15.0165C204.413 15.724 203.998 16.7253 203.998 17.88H205.998ZM206.564 16.5704C206.905 16.288 207.652 16.032 209.062 16.032V14.032C207.529 14.032 206.185 14.288 205.289 15.0296L206.564 16.5704ZM209.062 16.032C210.517 16.032 211.547 16.2092 212.223 16.4963L213.005 14.6557C211.974 14.2175 210.637 14.032 209.062 14.032V16.032ZM212.243 16.5045C212.892 16.7641 213.297 17.1468 213.539 17.6449L215.338 16.7711C214.854 15.7759 214.043 15.0706 212.986 14.6475L212.243 16.5045ZM213.544 17.6552C213.811 18.1897 213.982 18.9882 213.982 20.12H215.982C215.982 18.8198 215.791 17.677 215.333 16.7608L213.544 17.6552ZM213.982 20.12C213.982 21.1406 213.679 22.0801 213.049 22.9628L214.676 24.1252C215.539 22.9172 215.982 21.5741 215.982 20.12H213.982ZM213.041 22.9739C212.425 23.8617 211.563 24.587 210.419 25.1397L211.289 26.9403C212.706 26.2557 213.849 25.317 214.684 24.1141L213.041 22.9739ZM210.413 25.1426C209.299 25.6904 208.085 25.968 206.758 25.968V27.968C208.375 27.968 209.893 27.6269 211.295 26.9374L210.413 25.1426ZM237.039 12.44L237.512 13.321L237.518 13.3179L237.039 12.44ZM231.375 13.56L231.326 12.5612L230.292 12.6116L230.378 13.643L231.375 13.56ZM231.119 22.968L230.136 22.7837L230.134 22.796L231.119 22.968ZM229.871 25.976L230.602 26.6583L230.608 26.6523L230.613 26.6463L229.871 25.976ZM224.975 25.912L225.751 25.2814L224.975 25.912ZM223.823 22.872L222.835 23.0288L223.823 22.872ZM223.599 13.56L224.597 13.6155L224.653 12.6097L223.647 12.5612L223.599 13.56ZM219.311 13.016L219.041 13.979L219.053 13.9821L219.064 13.985L219.311 13.016ZM216.943 11.704L216.196 12.3684L216.943 11.704ZM217.391 6.552L216.747 5.78709L216.747 5.78709L217.391 6.552ZM221.039 5.112L220.87 4.12632L221.039 5.112ZM237.551 6.552L238.185 5.77892L237.551 6.552ZM237.799 9.368C237.799 9.93134 237.683 10.361 237.491 10.6949C237.302 11.026 237.007 11.3186 236.56 11.5621L237.518 13.3179C238.245 12.9214 238.83 12.382 239.227 11.6891C239.622 10.999 239.799 10.2127 239.799 9.368H237.799ZM236.566 11.559C235.621 12.0667 233.922 12.4346 231.326 12.5612L231.424 14.5588C234.076 14.4294 236.153 14.0506 237.512 13.321L236.566 11.559ZM230.378 13.643C230.461 14.6284 230.503 15.9205 230.503 17.528H232.503C232.503 15.8928 232.46 14.5396 232.372 13.477L230.378 13.643ZM230.503 17.528C230.503 19.7608 230.376 21.5049 230.136 22.7837L232.102 23.1523C232.374 21.7005 232.503 19.8179 232.503 17.528H230.503ZM230.134 22.796C229.916 24.0456 229.55 24.8399 229.129 25.3057L230.613 26.6463C231.387 25.7894 231.853 24.5784 232.104 23.14L230.134 22.796ZM229.14 25.2937C228.772 25.6879 228.23 25.936 227.375 25.936V27.936C228.654 27.936 229.775 27.5441 230.602 26.6583L229.14 25.2937ZM227.375 25.936C226.568 25.936 226.079 25.6855 225.751 25.2814L224.199 26.5426C224.98 27.5039 226.092 27.936 227.375 27.936V25.936ZM225.751 25.2814C225.352 24.7904 225.01 23.9724 224.811 22.7152L222.835 23.0288C223.062 24.4596 223.488 25.6682 224.199 26.5426L225.751 25.2814ZM224.811 22.7152C224.609 21.4451 224.503 19.7225 224.503 17.528H222.503C222.503 19.7709 222.61 21.6109 222.835 23.0288L224.811 22.7152ZM224.503 17.528C224.503 16.0481 224.535 14.7446 224.597 13.6155L222.601 13.5045C222.535 14.6794 222.503 16.0212 222.503 17.528H224.503ZM223.647 12.5612C221.91 12.4774 220.555 12.3011 219.558 12.047L219.064 13.985C220.243 14.2856 221.747 14.4719 223.551 14.5588L223.647 12.5612ZM219.581 12.053C218.622 11.7846 218.031 11.4226 217.69 11.0396L216.196 12.3684C216.879 13.1374 217.867 13.6501 219.041 13.979L219.581 12.053ZM217.69 11.0396C217.382 10.6925 217.175 10.1735 217.175 9.368H215.175C215.175 10.5252 215.48 11.5635 216.196 12.3684L217.69 11.0396ZM217.175 9.368C217.175 8.42618 217.48 7.78401 218.035 7.31691L216.747 5.78709C215.68 6.68532 215.175 7.92048 215.175 9.368H217.175ZM218.035 7.31691C218.654 6.79538 219.673 6.36017 221.208 6.09768L220.87 4.12632C219.162 4.4185 217.749 4.94329 216.747 5.78709L218.035 7.31691ZM221.208 6.09768C222.751 5.83377 224.81 5.696 227.407 5.696V3.696C224.756 3.696 222.57 3.83557 220.87 4.12632L221.208 6.09768ZM227.407 5.696C230.025 5.696 232.107 5.83376 233.673 6.09805L234.005 4.12595C232.286 3.83557 230.08 3.696 227.407 3.696V5.696ZM233.673 6.09805C235.229 6.36089 236.274 6.79755 236.917 7.32507L238.185 5.77892C237.164 4.94111 235.734 4.41778 234.005 4.12595L233.673 6.09805ZM236.917 7.32507C237.49 7.79532 237.799 8.43545 237.799 9.368H239.799C239.799 7.91121 239.276 6.67401 238.185 5.77892L236.917 7.32507Z" fill="black" mask="url(#path-1-outside-1_30265_17306)"/>
</svg>
