<svg width="150" height="92" viewBox="0 0 150 92" fill="none" xmlns="http://www.w3.org/2000/svg">
  <g filter="url(#filter0_di_47_2)">
    <mask id="path-1-outside-1_47_2" maskUnits="userSpaceOnUse" x="3.22168" y="7.64648" width="139" height="77" fill="black">
      <rect fill="white" x="3.22168" y="7.64648" width="139" height="77"/>
      <path fill-rule="evenodd" clip-rule="evenodd" d="M86.9764 68.3737C106.293 79.092 128.035 76.8192 135.538 63.2973C143.041 49.7753 133.464 30.1248 114.146 19.4065C94.8295 8.6882 73.0877 10.961 65.5849 24.4829C65.1797 25.2131 64.8244 25.9612 64.5177 26.7248C59.9997 25.1753 55.0277 24.1815 49.7787 23.8831C27.723 22.6291 9.13166 34.1284 8.25389 49.5674C7.37612 65.0065 24.5443 78.5388 46.6001 79.7928C62.3449 80.688 76.3242 75.084 83.3544 66.1872C84.5197 66.9507 85.7277 67.6808 86.9764 68.3737Z"/>
    </mask>
    <path fill-rule="evenodd" clip-rule="evenodd" d="M86.9764 68.3737C106.293 79.092 128.035 76.8192 135.538 63.2973C143.041 49.7753 133.464 30.1248 114.146 19.4065C94.8295 8.6882 73.0877 10.961 65.5849 24.4829C65.1797 25.2131 64.8244 25.9612 64.5177 26.7248C59.9997 25.1753 55.0277 24.1815 49.7787 23.8831C27.723 22.6291 9.13166 34.1284 8.25389 49.5674C7.37612 65.0065 24.5443 78.5388 46.6001 79.7928C62.3449 80.688 76.3242 75.084 83.3544 66.1872C84.5197 66.9507 85.7277 67.6808 86.9764 68.3737Z" fill="white"/>
    <path d="M135.538 63.2973L139.036 65.238V65.238L135.538 63.2973ZM86.9764 68.3737L88.9172 64.876L86.9764 68.3737ZM114.146 19.4065L116.087 15.9088L114.146 19.4065ZM65.5849 24.4829L69.0825 26.4236V26.4236L65.5849 24.4829ZM64.5177 26.7248L63.2201 30.5084L66.8135 31.7408L68.2294 28.2156L64.5177 26.7248ZM49.7787 23.8831L49.5517 27.8766L49.7787 23.8831ZM8.25389 49.5674L4.26034 49.3404L8.25389 49.5674ZM46.6001 79.7928L46.373 83.7863H46.373L46.6001 79.7928ZM83.3544 66.1872L85.5464 62.8413L82.4851 60.8357L80.216 63.7073L83.3544 66.1872ZM132.04 61.3566C129.096 66.6629 123.164 70.1222 115.272 70.9472C107.395 71.7707 97.946 69.8858 88.9172 64.876L85.0357 71.8714C95.3239 77.5799 106.405 79.9178 116.103 78.9039C125.787 77.8916 134.477 73.4535 139.036 65.238L132.04 61.3566ZM112.206 22.9041C121.235 27.9139 127.834 34.9336 131.304 42.053C134.781 49.1862 134.985 56.0502 132.04 61.3566L139.036 65.238C143.594 57.0224 142.761 47.3002 138.495 38.548C134.223 29.7821 126.375 21.6173 116.087 15.9088L112.206 22.9041ZM69.0825 26.4236C72.0268 21.1173 77.9589 17.658 85.8512 16.8329C93.7282 16.0095 103.177 17.8944 112.206 22.9041L116.087 15.9088C105.799 10.2003 94.7183 7.86242 85.0195 8.8763C75.336 9.88858 66.6457 14.3266 62.0872 22.5422L69.0825 26.4236ZM68.2294 28.2156C68.4745 27.6055 68.7584 27.0077 69.0825 26.4236L62.0872 22.5422C61.601 23.4185 61.1742 24.3169 60.8059 25.2339L68.2294 28.2156ZM49.5517 27.8766C54.4434 28.1547 59.0548 29.08 63.2201 30.5084L65.8153 22.9411C60.9447 21.2707 55.6119 20.2083 50.0058 19.8895L49.5517 27.8766ZM12.2474 49.7945C12.5919 43.7358 16.43 38.0415 23.1787 33.8672C29.9143 29.7011 39.2427 27.2905 49.5517 27.8766L50.0058 19.8895C38.259 19.2217 27.2639 21.9338 18.9704 27.0635C10.6901 32.1852 4.79365 39.9601 4.26034 49.3404L12.2474 49.7945ZM46.8271 75.7992C36.5181 75.2131 27.523 71.7608 21.3031 66.8581C15.071 61.9458 11.903 55.8532 12.2474 49.7945L4.26034 49.3404C3.72703 58.7207 8.70426 67.1138 16.3507 73.141C24.0093 79.1776 34.6262 83.1185 46.373 83.7863L46.8271 75.7992ZM80.216 63.7073C74.2068 71.312 61.6557 76.6423 46.8271 75.7992L46.373 83.7863C63.0341 84.7336 78.4417 78.8561 86.4929 68.6672L80.216 63.7073ZM88.9172 64.876C87.754 64.2306 86.6298 63.5511 85.5464 62.8413L81.1624 69.5331C82.4097 70.3503 83.7015 71.1311 85.0357 71.8714L88.9172 64.876Z" fill="white" mask="url(#path-1-outside-1_47_2)"/>
  </g>
  <g filter="url(#filter1_i_47_2)">
    <ellipse cx="48.1889" cy="51.8386" rx="40" ry="28" transform="rotate(3.25399 48.1889 51.8386)" fill="#78350F"/>
  </g>
  <path d="M87.6253 54.0807C87.1982 61.5927 82.4595 68.1972 75.0408 72.7859C67.6236 77.3737 57.566 79.9162 46.628 79.2943C35.69 78.6724 25.9853 75.0064 19.136 69.6075C12.2851 64.2075 8.32554 57.1084 8.75262 49.5965C9.17971 42.0846 13.9183 35.4801 21.3371 30.8913C28.7543 26.3036 38.8119 23.7611 49.7499 24.383C60.6879 25.0048 70.3925 28.6709 77.2419 34.0697C84.0928 39.4698 88.0523 46.5688 87.6253 54.0807Z" stroke="black"/>
  <path opacity="0.6" d="M15.4395 47.5371C15.52 53.0288 19.2394 63.6048 40.209 67.8454M52.542 68.5466C54.4996 68.6579 59.3684 68.6908 63.1823 67.9322" stroke="white" stroke-width="4" stroke-linecap="round"/>
  <path fill-rule="evenodd" clip-rule="evenodd" d="M27.2739 36.1024C28.4069 34.5452 30.5337 33.7058 32.7511 33.3063C35.007 32.8998 37.2668 32.9663 38.4749 33.1727C39.0281 33.2672 39.5922 33.4426 40.2698 33.697C40.5823 33.8143 40.9015 33.9415 41.2507 34.0806L41.3356 34.1145C41.7126 34.2647 42.1197 34.4261 42.5539 34.5874C44.3201 35.2432 46.5412 35.8971 49.7354 36.0787C53.551 36.2956 56.1478 35.7349 58.2228 35.2304L58.5801 35.1434C60.5111 34.672 61.7124 34.3787 63.2049 34.5849C65.0373 34.838 67.2954 35.4972 69.0549 36.4701C70.7993 37.4345 71.9776 38.6602 71.8972 40.0753C71.794 41.8898 70.5156 43.1728 69.4468 43.8755C68.6781 44.381 68.2108 45.0997 68.4427 45.86C69.1235 48.092 68.8007 51.2583 66.0148 53.7061C63.2881 56.1019 58.0796 57.9178 48.5246 57.3746C38.6694 56.8143 33.3875 54.5734 30.7476 51.9508C28.061 49.2818 27.9489 46.0601 29.0075 43.4279C29.2531 42.8172 28.9858 42.1864 28.434 41.6717C27.1039 40.4312 25.7258 38.23 27.2739 36.1024ZM39.0093 31.8983C37.2998 31.6063 34.5583 31.5547 31.9032 32.0331C29.2096 32.5185 26.5156 33.5671 25.0919 35.5236C23.1518 38.1901 24.9074 40.8692 26.4481 42.3061C26.7173 42.5572 26.8041 42.8244 26.714 43.0484C25.5787 45.8713 25.6271 49.4723 28.7257 52.5506C31.8711 55.6754 37.9992 58.1068 48.4492 58.7009C58.722 59.2849 64.7849 57.32 68.0152 54.4817C71.1865 51.6953 71.5064 48.1743 70.758 45.7208C70.6645 45.4142 70.8465 45.0638 71.2707 44.7849C72.6065 43.9066 74.124 42.3609 74.2463 40.2088C74.3544 38.3082 72.7471 36.7144 70.6356 35.547C68.5393 34.388 65.8715 33.603 63.6118 33.2908C61.3185 32.974 59.4184 33.4446 57.6672 33.8783C57.5019 33.9193 57.3379 33.9599 57.1751 33.9995C55.2173 34.4754 53.0426 34.9361 49.8108 34.7524C47.1323 34.6001 45.2967 34.0631 43.745 33.487C43.3497 33.3402 42.9734 33.1911 42.5965 33.0409L42.5063 33.005C42.1639 32.8685 41.8157 32.7297 41.4716 32.6006C40.725 32.3203 39.9149 32.053 39.0093 31.8983ZM41.2064 49.1095L41.2065 49.1095C42.2448 49.2355 43.1312 49.343 43.6177 49.3707C44.9309 49.4453 44.9242 47.1164 41.4176 46.6159C39.221 46.3024 37.9517 46.792 37.2707 47.4054C36.6009 48.0086 37.6414 48.7041 38.9298 48.8435C39.7063 48.9276 40.4915 49.0228 41.2049 49.1093L41.2055 49.1094L41.206 49.1095L41.2061 49.1095L41.2064 49.1095ZM56.2036 49.9632L56.2037 49.9632L56.2039 49.9632L56.2046 49.9632L56.2056 49.9632C56.9241 49.9581 57.7148 49.9525 58.4957 49.957C59.7916 49.9645 60.9042 49.3914 60.3071 48.7161C59.7 48.0295 58.4945 47.3992 56.2765 47.4618C52.7357 47.5616 52.4651 49.8747 53.7783 49.9494C54.2648 49.9771 55.1576 49.9707 56.2036 49.9632ZM35.3312 39.4005L35.3312 39.4005C34.3017 39.8236 33.4229 40.1848 32.9056 40.3478C31.5094 40.7876 28.9246 38.1623 32.3177 36.6486C34.702 35.5849 36.8967 35.9759 38.3736 36.6115C39.441 37.0708 39.1183 37.9032 38.0758 38.3004C37.1373 38.6581 36.1827 39.0505 35.3312 39.4004L35.3312 39.4004L35.3312 39.4005ZM64.3488 42.1385C63.8533 41.918 63.0211 41.4595 62.0462 40.9223C61.2399 40.4781 60.3359 39.9801 59.444 39.5184C58.4532 39.0055 58.227 38.1419 59.3395 37.8065C60.8789 37.3424 63.1038 37.2027 65.3522 38.5298C68.5519 40.4183 65.6862 42.7337 64.3488 42.1385ZM48.335 49.3042C49.622 49.3774 50.4901 49.5598 51.0422 49.7481C51.6343 49.95 51.6829 50.3683 51.3013 50.6661C50.6594 51.1668 49.5832 51.7037 48.2031 51.6252C46.8229 51.5467 45.8145 50.8914 45.2336 50.3211C44.8881 49.982 44.9838 49.5718 45.595 49.4384C46.1649 49.3139 47.0481 49.231 48.335 49.3042Z" fill="white"/>
  <g filter="url(#filter2_di_47_2)">
    <ellipse cx="100.561" cy="43.8908" rx="40" ry="28" transform="rotate(29.0242 100.561 43.8908)" fill="#78350F"/>
    <path d="M135.1 63.0554C131.449 69.6345 124.311 73.522 115.635 74.429C106.961 75.3357 96.7979 73.2527 87.2181 67.9372C77.6383 62.6217 70.4927 55.1011 66.6717 47.2613C62.8499 39.4198 62.3706 31.3053 66.0211 24.7262C69.6716 18.1471 76.8104 14.2596 85.4864 13.3526C94.1604 12.4459 104.323 14.5289 113.903 19.8444C123.483 25.1599 130.628 32.6805 134.449 40.5203C138.271 48.3617 138.75 56.4762 135.1 63.0554Z" stroke="black"/>
  </g>
  <path opacity="0.6" d="M72.9385 25.7788C70.6234 30.7593 69.3749 41.9006 86.4153 54.8362M97.2169 60.8296C98.9314 61.7809 103.302 63.9273 107.066 64.9023" stroke="white" stroke-width="4" stroke-linecap="round"/>
  <path fill-rule="evenodd" clip-rule="evenodd" d="M88.5674 20.6264C90.2648 19.7167 92.5449 19.8854 94.7156 20.4897C96.9238 21.1044 98.9299 22.1468 99.9282 22.8579C100.385 23.1835 100.817 23.5867 101.317 24.1104C101.547 24.3519 101.779 24.6052 102.033 24.8823L102.095 24.9497C102.369 25.2489 102.665 25.5713 102.986 25.9053C104.292 27.2637 106.008 28.8182 108.805 30.3705C112.147 32.2248 114.729 32.8488 116.817 33.2967L117.177 33.3735C119.121 33.7886 120.33 34.0468 121.585 34.8813C123.125 35.906 124.872 37.4814 126.033 39.1224C127.185 40.7493 127.713 42.3654 127.025 43.6047C126.144 45.194 124.435 45.7936 123.167 45.9617C122.255 46.0827 121.521 46.5268 121.4 47.3123C121.042 49.6183 119.375 52.3294 115.802 53.3225C112.305 54.2945 106.825 53.6654 98.4563 49.022C89.8248 44.2327 86.0425 39.9184 84.8054 36.4089C83.5463 32.8372 84.846 29.8873 86.9437 27.9771C87.4304 27.5339 87.464 26.8496 87.1908 26.1462C86.5323 24.4508 86.2482 21.8694 88.5674 20.6264ZM100.963 21.9425C99.5509 20.9364 97.1045 19.698 94.5055 18.9745C91.8688 18.2405 88.9868 18.0135 86.8541 19.1566C83.9476 20.7143 84.3638 23.8903 85.1266 25.8541C85.2598 26.1973 85.2218 26.4756 85.0434 26.6382C82.7937 28.6867 81.2716 31.9506 82.7237 36.07C84.1978 40.2515 88.6594 45.1053 97.8117 50.1836C106.809 55.1758 113.123 56.0422 117.266 54.8906C121.333 53.7601 123.152 50.7284 123.545 48.1935C123.594 47.8768 123.91 47.6404 124.414 47.5736C125.998 47.3634 128.037 46.6312 129.083 44.7463C130.007 43.0817 129.252 40.9476 127.858 38.9784C126.474 37.0232 124.413 35.1564 122.514 33.8928C120.586 32.6106 118.671 32.2082 116.905 31.8374C116.738 31.8024 116.573 31.7677 116.409 31.7326C114.439 31.31 112.28 30.7794 109.45 29.2089C107.104 27.9073 105.684 26.6256 104.537 25.4321C104.245 25.1281 103.971 24.8302 103.697 24.5312L103.632 24.4596C103.383 24.1878 103.129 23.9114 102.876 23.6455C102.325 23.0685 101.712 22.4756 100.963 21.9425ZM95.4593 38.3973L95.4593 38.3973C96.3396 38.9622 97.0911 39.4443 97.5172 39.6808C98.6673 40.3189 99.6738 38.2188 96.7335 36.2435C94.8917 35.0061 93.5359 34.8952 92.6559 35.1515C91.7905 35.4036 92.4251 36.4823 93.5247 37.168C94.1875 37.5812 94.8531 38.0083 95.4579 38.3964L95.4585 38.3968L95.4589 38.397L95.459 38.3971L95.4593 38.3973ZM108.594 45.6863L108.594 45.6863L108.594 45.6865L108.595 45.6867L108.596 45.6872C109.245 45.9949 109.959 46.3337 110.661 46.6772C111.824 47.2474 113.075 47.215 112.831 46.3473C112.583 45.465 111.771 44.3733 109.747 43.4653C106.515 42.0158 105.266 43.9813 106.416 44.6194C106.842 44.8559 107.649 45.2383 108.594 45.6863ZM94.3895 27.0995L94.3895 27.0995C93.2784 27.033 92.33 26.9762 91.7933 26.8981C90.3447 26.6871 89.1584 23.1991 92.8721 23.3112C95.4817 23.3899 97.2882 24.6962 98.3419 25.9106C99.1034 26.7883 98.4509 27.3976 97.3394 27.3021C96.3387 27.2162 95.3085 27.1545 94.3896 27.0995L94.3895 27.0995L94.3895 27.0995ZM119.331 42.181C118.98 41.767 118.43 40.9923 117.786 40.0847C117.253 39.3341 116.655 38.4926 116.053 37.689C115.384 36.7964 115.555 35.9204 116.703 36.102C118.291 36.3534 120.356 37.1949 121.803 39.3675C123.864 42.4593 120.276 43.2985 119.331 42.181ZM101.794 41.6719C102.921 42.2973 103.624 42.839 104.039 43.2485C104.485 43.6878 104.347 44.0857 103.873 44.1879C103.078 44.3598 101.875 44.3754 100.666 43.7047C99.4576 43.034 98.8344 42.0054 98.5591 41.2392C98.3955 40.7837 98.66 40.4559 99.2684 40.6014C99.8357 40.7371 100.667 41.0465 101.794 41.6719Z" fill="white"/>
  <defs>
    <filter id="filter0_di_47_2" x="0.22168" y="8.64624" width="145.873" height="83.2395" filterUnits="userSpaceOnUse" color-interpolation-filters="sRGB">
      <feFlood flood-opacity="0" result="BackgroundImageFix"/>
      <feColorMatrix in="SourceAlpha" type="matrix" values="0 0 0 0 0 0 0 0 0 0 0 0 0 0 0 0 0 0 127 0" result="hardAlpha"/>
      <feOffset dy="4"/>
      <feGaussianBlur stdDeviation="2"/>
      <feComposite in2="hardAlpha" operator="out"/>
      <feColorMatrix type="matrix" values="0 0 0 0 0 0 0 0 0 0 0 0 0 0 0 0 0 0 0.25 0"/>
      <feBlend mode="normal" in2="BackgroundImageFix" result="effect1_dropShadow_47_2"/>
      <feBlend mode="normal" in="SourceGraphic" in2="effect1_dropShadow_47_2" result="shape"/>
      <feColorMatrix in="SourceAlpha" type="matrix" values="0 0 0 0 0 0 0 0 0 0 0 0 0 0 0 0 0 0 127 0" result="hardAlpha"/>
      <feOffset dy="-6"/>
      <feComposite in2="hardAlpha" operator="arithmetic" k2="-1" k3="1"/>
      <feColorMatrix type="matrix" values="0 0 0 0 0 0 0 0 0 0 0 0 0 0 0 0 0 0 0.25 0"/>
      <feBlend mode="normal" in2="shape" result="effect2_innerShadow_47_2"/>
    </filter>
    <filter id="filter1_i_47_2" x="8.22168" y="23.7903" width="79.9346" height="56.0967" filterUnits="userSpaceOnUse" color-interpolation-filters="sRGB">
      <feFlood flood-opacity="0" result="BackgroundImageFix"/>
      <feBlend mode="normal" in="SourceGraphic" in2="BackgroundImageFix" result="shape"/>
      <feColorMatrix in="SourceAlpha" type="matrix" values="0 0 0 0 0 0 0 0 0 0 0 0 0 0 0 0 0 0 127 0" result="hardAlpha"/>
      <feOffset dy="-6"/>
      <feComposite in2="hardAlpha" operator="arithmetic" k2="-1" k3="1"/>
      <feColorMatrix type="matrix" values="0 0 0 0 0 0 0 0 0 0 0 0 0 0 0 0 0 0 0.25 0"/>
      <feBlend mode="normal" in2="shape" result="effect1_innerShadow_47_2"/>
    </filter>
    <filter id="filter2_di_47_2" x="59.0283" y="12.6472" width="83.0645" height="70.4871" filterUnits="userSpaceOnUse" color-interpolation-filters="sRGB">
      <feFlood flood-opacity="0" result="BackgroundImageFix"/>
      <feColorMatrix in="SourceAlpha" type="matrix" values="0 0 0 0 0 0 0 0 0 0 0 0 0 0 0 0 0 0 127 0" result="hardAlpha"/>
      <feOffset dy="4"/>
      <feGaussianBlur stdDeviation="2"/>
      <feComposite in2="hardAlpha" operator="out"/>
      <feColorMatrix type="matrix" values="0 0 0 0 0 0 0 0 0 0 0 0 0 0 0 0 0 0 0.25 0"/>
      <feBlend mode="normal" in2="BackgroundImageFix" result="effect1_dropShadow_47_2"/>
      <feBlend mode="normal" in="SourceGraphic" in2="effect1_dropShadow_47_2" result="shape"/>
      <feColorMatrix in="SourceAlpha" type="matrix" values="0 0 0 0 0 0 0 0 0 0 0 0 0 0 0 0 0 0 127 0" result="hardAlpha"/>
      <feOffset dy="-6"/>
      <feComposite in2="hardAlpha" operator="arithmetic" k2="-1" k3="1"/>
      <feColorMatrix type="matrix" values="0 0 0 0 0 0 0 0 0 0 0 0 0 0 0 0 0 0 0.25 0"/>
      <feBlend mode="normal" in2="shape" result="effect2_innerShadow_47_2"/>
    </filter>
  </defs>
</svg>
