<svg width="56" height="56" viewBox="0 0 56 56" fill="none" xmlns="http://www.w3.org/2000/svg">
  <g filter="url(#filter0_b_30265_18128)">
    <path d="M0 12C0 5.37258 5.37258 0 12 0H44C50.6274 0 56 5.37258 56 12V44C56 50.6274 50.6274 56 44 56H12C5.37258 56 0 50.6274 0 44V12Z" fill="#FFFDEB"/>
    <path d="M0.5 12C0.5 5.64873 5.64873 0.5 12 0.5H44C50.3513 0.5 55.5 5.64873 55.5 12V44C55.5 50.3513 50.3513 55.5 44 55.5H12C5.64873 55.5 0.5 50.3513 0.5 44V12Z" stroke="#A48D81"/>
  </g>
  <path d="M28.5 18.0802C21.5327 18.0802 16.6451 20.7233 16.6451 20.7233C19.3229 18.6089 24.0024 17.3907 24.0024 17.3907L23.5605 17C19.1669 17.069 15.1893 19.758 15.1893 19.758C10.7177 28.0091 11.0037 35.134 11.0037 35.134C14.6433 39.2941 20.0508 38.9953 20.0508 38.9953L21.8966 36.9268C18.6469 36.3062 16.5931 33.755 16.5931 33.755C16.5931 33.755 21.4807 36.6969 28.5 36.6969C35.5193 36.6969 40.4069 33.755 40.4069 33.755C40.4069 33.755 38.3531 36.3062 35.1034 36.9268L36.9492 38.9953C36.9492 38.9953 42.3567 39.2941 45.9963 35.134C45.9963 35.134 46.2823 28.0091 41.8107 19.758C41.8107 19.758 37.8331 17.069 33.4395 17L32.9976 17.3907C32.9976 17.3907 37.6771 18.6089 40.3549 20.7233C40.3549 20.7233 35.4673 18.0802 28.5 18.0802ZM23.1185 26.791C24.8084 26.791 26.1862 28.1011 26.1602 29.7099C26.1602 31.2958 24.8084 32.6288 23.1185 32.6288C21.4547 32.6288 20.1028 31.2958 20.1028 29.7099C20.1028 28.1011 21.4287 26.791 23.1185 26.791ZM33.9595 26.791C35.6493 26.791 37.0012 28.1011 37.0012 29.7099C37.0012 31.2958 35.6493 32.6288 33.9595 32.6288C32.2956 32.6288 30.9438 31.2958 30.9438 29.7099C30.9438 28.1011 32.2696 26.791 33.9595 26.791Z" fill="black"/>
  <defs>
    <filter id="filter0_b_30265_18128" x="-10" y="-10" width="76" height="76" filterUnits="userSpaceOnUse" color-interpolation-filters="sRGB">
      <feFlood flood-opacity="0" result="BackgroundImageFix"/>
      <feGaussianBlur in="BackgroundImageFix" stdDeviation="5"/>
      <feComposite in2="SourceAlpha" operator="in" result="effect1_backgroundBlur_30265_18128"/>
      <feBlend mode="normal" in="SourceGraphic" in2="effect1_backgroundBlur_30265_18128" result="shape"/>
    </filter>
  </defs>
</svg>
