<svg width="35" height="41" viewBox="0 0 35 41" fill="none" xmlns="http://www.w3.org/2000/svg">
<path opacity="0.4" d="M22.1723 34.3155L25.0011 35.9535L26.3909 32.9948C27.8004 29.9941 29.5985 24.7583 30.545 19.7117C31.0184 17.1874 31.3063 14.5695 31.1718 12.2286C31.0436 9.99812 30.5011 7.42428 28.7278 5.6316C27.3125 4.20086 25.5693 3.30694 23.6061 3.36895C21.7153 3.42868 20.1858 4.35995 19.0902 5.3869C18.1052 6.31009 17.2836 7.47772 16.6394 8.72494C15.3397 7.97002 13.9211 7.38625 12.5073 7.10927C11.0056 6.81507 9.19469 6.81017 7.52773 7.68644C5.76022 8.61556 4.65153 10.2708 4.16907 12.2918L7.08708 12.9884L4.16907 12.2918C3.52627 14.9845 4.2897 17.5658 5.48475 19.7307C6.6815 21.8986 8.4588 23.9298 10.3584 25.7281C14.1655 29.3322 18.9427 32.4454 22.1723 34.3155Z" fill="#FF74BA" stroke="#FF4C4C" stroke-width="6"/>
</svg>
