<svg width="43" height="52" viewBox="0 0 43 52" fill="none" xmlns="http://www.w3.org/2000/svg">
<path opacity="0.5" d="M13.1242 44.5067L14.7518 47.3415L17.4369 45.4772C21.197 42.8665 27.0247 37.8075 31.6879 32.3839C34.0201 29.6714 36.1556 26.7594 37.5854 23.926C38.9654 21.1914 39.9577 18.0025 39.1742 14.9993C38.5192 12.4887 37.1913 10.4956 35.125 9.38504C33.1225 8.30873 30.9269 8.33309 29.0408 8.77128C26.9218 9.26359 24.8081 10.3582 22.9585 11.7171C21.8813 9.53826 20.4159 7.46452 18.6753 5.9433C17.1731 4.63056 15.2218 3.52196 12.9419 3.42891C10.5486 3.33123 8.35001 4.37288 6.52366 6.29792C4.12014 8.83132 3.27381 12.1812 3.20623 15.4989C3.13858 18.82 3.83846 22.4256 4.86968 25.9063C6.93516 32.8782 10.5214 39.9731 13.1242 44.5067Z" fill="#FF74BA" stroke="#FF4C4C" stroke-width="6"/>
</svg>
