<svg width="52" height="63" viewBox="0 0 52 63" fill="none" xmlns="http://www.w3.org/2000/svg">
<path opacity="0.7" d="M11.402 55.5201L12.6657 58.5348L15.5612 57.0177C20.7654 54.2908 29.039 48.7458 35.8758 42.5485C39.2948 39.4492 42.4618 36.0911 44.7071 32.7493C46.8907 29.4994 48.5342 25.7765 48.0508 22.106C47.6339 18.9402 46.3349 16.4107 44.1022 14.8254C41.9286 13.282 39.3354 12.9667 36.9651 13.2142C33.9472 13.5292 30.7856 14.7973 28.0375 16.4815C27.0478 13.237 25.4221 10.0016 23.2776 7.59714C21.6318 5.75183 19.4636 4.15957 16.8087 3.71734C14.0418 3.25645 11.292 4.13327 8.78367 6.1927C5.50956 8.88085 3.94297 12.821 3.33941 16.9649C2.73535 21.1123 3.04394 25.7763 3.80582 30.3871C5.33131 39.6194 8.78674 49.2806 11.402 55.5201Z" fill="#FF74BA" stroke="#FF4C4C" stroke-width="6"/>
</svg>
