<svg width="1440" height="900" viewBox="0 0 1440 900" fill="none" xmlns="http://www.w3.org/2000/svg">
  <g opacity="0.1" filter="url(#filter0_d_31843_1291)">
  <path d="M-1 431C-142.937 431 -258 546.063 -258 688H256C256 546.063 140.937 431 -1 431Z" fill="url(#paint0_radial_31843_1291)"/>
  </g>
  <path d="M489.668 670.699C527.94 664.36 571.769 660.598 614.617 670.964L617 671.529C668.241 683.497 795.466 700.45 853.5 700.45H1446.5V901H0.5V685.949H398L398.977 685.943C409.155 685.81 422.136 683.635 437.217 680.706C452.767 677.686 470.534 673.869 489.668 670.699Z" fill="#211F45" stroke="black"/>
  <path d="M1438.5 737.828V714.828L853.5 714.828C794.5 714.828 664.1 697.327 614.5 685.328C529 664.643 467 724.828 306.5 724.828H-1V776.328L698.5 757L853.5 737.828L1438.5 737.828Z" fill="black" fill-opacity="0.4"/>
  <ellipse cx="367.5" cy="702.45" rx="7.5" ry="4" fill="black" fill-opacity="0.17"/>
  <ellipse cx="226.5" cy="710.45" rx="7.5" ry="4" fill="black" fill-opacity="0.17"/>
  <ellipse cx="620.5" cy="716.45" rx="7.5" ry="4" fill="black" fill-opacity="0.17"/>
  <ellipse cx="1358.5" cy="725.45" rx="7.5" ry="4" fill="black" fill-opacity="0.17"/>
  <ellipse cx="595" cy="703.45" rx="6" ry="3" fill="black" fill-opacity="0.17"/>
  <ellipse cx="1302" cy="712.45" rx="6" ry="3" fill="black" fill-opacity="0.17"/>
  <g opacity="0.1" filter="url(#filter1_d_31843_1291)">
  <path d="M1028 -1C1046.4 43.0471 1089.9 74 1140.62 74C1191.34 74 1234.83 43.0471 1253.24 -1H1028Z" fill="url(#paint1_radial_31843_1291)"/>
  </g>
  <defs>
  <filter id="filter0_d_31843_1291" x="-278" y="408" width="554" height="297" filterUnits="userSpaceOnUse" color-interpolation-filters="sRGB">
  <feFlood flood-opacity="0" result="BackgroundImageFix"/>
  <feColorMatrix in="SourceAlpha" type="matrix" values="0 0 0 0 0 0 0 0 0 0 0 0 0 0 0 0 0 0 127 0" result="hardAlpha"/>
  <feOffset dy="-3"/>
  <feGaussianBlur stdDeviation="10"/>
  <feComposite in2="hardAlpha" operator="out"/>
  <feColorMatrix type="matrix" values="0 0 0 0 0.524251 0 0 0 0 0.825559 0 0 0 0 1 0 0 0 1 0"/>
  <feBlend mode="normal" in2="BackgroundImageFix" result="effect1_dropShadow_31843_1291"/>
  <feBlend mode="normal" in="SourceGraphic" in2="effect1_dropShadow_31843_1291" result="shape"/>
  </filter>
  <filter id="filter1_d_31843_1291" x="1008" y="-24" width="265.235" height="115" filterUnits="userSpaceOnUse" color-interpolation-filters="sRGB">
  <feFlood flood-opacity="0" result="BackgroundImageFix"/>
  <feColorMatrix in="SourceAlpha" type="matrix" values="0 0 0 0 0 0 0 0 0 0 0 0 0 0 0 0 0 0 127 0" result="hardAlpha"/>
  <feOffset dy="-3"/>
  <feGaussianBlur stdDeviation="10"/>
  <feComposite in2="hardAlpha" operator="out"/>
  <feColorMatrix type="matrix" values="0 0 0 0 0.524251 0 0 0 0 0.555968 0 0 0 0 1 0 0 0 1 0"/>
  <feBlend mode="normal" in2="BackgroundImageFix" result="effect1_dropShadow_31843_1291"/>
  <feBlend mode="normal" in="SourceGraphic" in2="effect1_dropShadow_31843_1291" result="shape"/>
  </filter>
  <radialGradient id="paint0_radial_31843_1291" cx="0" cy="0" r="1" gradientUnits="userSpaceOnUse" gradientTransform="translate(-211.547 805.641) rotate(-47.6002) scale(486.595 653.616)">
  <stop stop-color="#003B74"/>
  <stop offset="0.425" stop-color="#0479EB"/>
  <stop offset="0.879508" stop-color="#23CDF7"/>
  <stop offset="1" stop-color="white"/>
  </radialGradient>
  <radialGradient id="paint1_radial_31843_1291" cx="0" cy="0" r="1" gradientUnits="userSpaceOnUse" gradientTransform="translate(1240.57 -103.845) rotate(132.4) scale(230.991 310.277)">
  <stop stop-color="#0A0074"/>
  <stop offset="0.425" stop-color="#4204EB"/>
  <stop offset="0.879508" stop-color="#574DE2"/>
  <stop offset="1" stop-color="white"/>
  </radialGradient>
  </defs>
  </svg>
  