<svg width="144" height="144" viewBox="0 0 144 144" fill="none" xmlns="http://www.w3.org/2000/svg" class="h-full w-full p-[15%]"><path d="M96 96L114 48L132 96C126.78 99.9 120.48 102 114 102C107.52 102 101.22 99.9 96 96Z" stroke="currentColor" stroke-width="8" stroke-linecap="round" stroke-linejoin="round"></path><path d="M12 96L30 48L48 96C42.78 99.9 36.48 102 30 102C23.52 102 17.22 99.9 12 96Z" stroke="currentColor" stroke-width="8" stroke-linecap="round" stroke-linejoin="round"></path><path d="M42 126H102" stroke="currentColor" stroke-width="8" stroke-linecap="round" stroke-linejoin="round"></path><path d="M72 18V126" stroke="currentColor" stroke-width="8" stroke-linecap="round" stroke-linejoin="round"></path><path d="M18 42H30C42 42 60 36 72 30C84 36 102 42 114 42H126" stroke="currentColor" stroke-width="8" stroke-linecap="round" stroke-linejoin="round"></path></svg>