<svg width="124" height="36" viewBox="0 0 124 36" fill="none" xmlns="http://www.w3.org/2000/svg">
<g id="Group 48100934">
<rect id="Rectangle 24615" width="124" height="36" rx="18" fill="#D9D9D9" fill-opacity="0.5"/>
<g id="DapDap-lite bg-1">
<g id="DapDap logo1-lite bg">
<g id="Group 48095829">
<g id="Group 24992">
<g id="Group 24942">
<path id="Rectangle 5019" d="M14.5067 17.29C14.0929 15.484 16.0434 10.8515 16.0434 10.8515L26.4914 10.1571C28.5121 9.61569 30.5892 10.8149 31.1306 12.8356L35.5488 20.1165C34.8385 23.6677 34.25 25.681 32.2292 26.2225L21.6395 29.2747C19.6188 29.8162 17.5417 28.617 17.0003 26.5962L14.5067 17.29Z" fill="#181A27"/>
<path id="Rectangle 5018" d="M15.8183 13.3555C15.2607 11.2745 16.4957 9.13536 18.5768 8.57773L28.1609 6.00966C30.242 5.45204 32.3811 6.68705 32.9387 8.76814L35.5068 18.3523C36.0644 20.4334 34.8294 22.5725 32.7483 23.1301L23.1642 25.6982C21.0831 26.2558 18.944 25.0208 18.3863 22.9397L15.8183 13.3555Z" fill="#EBF479"/>
<path id="Rectangle 5018 (Stroke)" fill-rule="evenodd" clip-rule="evenodd" d="M28.4133 6.9517L18.8292 9.51977C17.2684 9.93799 16.3421 11.5423 16.7603 13.1031L19.3284 22.6873C19.7466 24.2481 21.3509 25.1744 22.9117 24.7561L32.4959 22.1881C34.0567 21.7698 34.983 20.1655 34.5648 18.6047L31.9967 9.02055C31.5785 7.45974 29.9741 6.53348 28.4133 6.9517ZM18.5768 8.57773C16.4957 9.13536 15.2607 11.2745 15.8183 13.3555L18.3864 22.9397C18.944 25.0208 21.0831 26.2558 23.1642 25.6982L32.7483 23.1301C34.8294 22.5725 36.0644 20.4334 35.5068 18.3523L32.9387 8.76814C32.3811 6.68705 30.242 5.45204 28.1609 6.00966L18.5768 8.57773Z" fill="#181A27"/>
</g>
</g>
<path id="Subtract" fill-rule="evenodd" clip-rule="evenodd" d="M24.8165 11.2443L22.4664 11.874C21.9329 12.0169 21.6164 12.5653 21.7593 13.0987L21.9303 13.7368C22.0732 14.2703 22.6215 14.5869 23.155 14.4439L25.2711 13.8769C26.1248 13.6482 27.0024 14.1548 27.2312 15.0086C27.4599 15.8624 26.9533 16.7399 26.0995 16.9687L23.9835 17.5357C23.45 17.6786 23.1334 18.227 23.2763 18.7604L23.4592 19.4427C23.6021 19.9762 24.1504 20.2928 24.6839 20.1498L27.034 19.5201C29.3193 18.9078 30.6755 16.5587 30.0632 14.2734C29.4508 11.9881 27.1018 10.6319 24.8165 11.2443Z" fill="#181A27"/>
</g>
</g>
<g id="DapDap">
<path d="M42.5486 10.8086H47.4771C48.664 10.8086 49.7134 11.0449 50.6255 11.5174C51.5486 11.9899 52.2629 12.6493 52.7684 13.4954C53.2849 14.3416 53.5431 15.3086 53.5431 16.3965C53.5431 17.5394 53.2903 18.5449 52.7848 19.413C52.2903 20.2811 51.5815 20.957 50.6585 21.4405C49.7464 21.913 48.6859 22.1493 47.4771 22.1493H42.5486V10.8086ZM47.3123 19.1822C48.1365 19.1822 48.7629 18.924 49.1914 18.4075C49.631 17.88 49.8508 17.1987 49.8508 16.3636C49.8508 15.5723 49.6365 14.946 49.2079 14.4844C48.7903 14.0119 48.1585 13.7756 47.3123 13.7756H46.1914V19.1822H47.3123Z" fill="#181A27"/>
<path d="M58.5322 22.2812C57.8179 22.2812 57.1476 22.0943 56.5212 21.7207C55.9058 21.3361 55.4113 20.8196 55.0377 20.1713C54.6641 19.5119 54.4772 18.7811 54.4772 17.9789C54.4772 17.1877 54.6641 16.4734 55.0377 15.8361C55.4113 15.1877 55.9113 14.6822 56.5377 14.3196C57.1641 13.957 57.8289 13.7756 58.5322 13.7756C59.1036 13.7756 59.6311 13.935 60.1146 14.2537C60.6091 14.5723 60.9828 15.0504 61.2355 15.6877V13.7756H64.6971V22.1493H61.2355V20.6163C60.6861 21.7262 59.785 22.2812 58.5322 22.2812ZM59.6036 19.6768C60.0432 19.6768 60.4168 19.5229 60.7245 19.2152C61.0432 18.8965 61.2135 18.5229 61.2355 18.0943V17.9625C61.2135 17.5229 61.0377 17.1493 60.708 16.8416C60.3894 16.5339 60.0212 16.38 59.6036 16.38C59.1421 16.38 58.7465 16.5449 58.4168 16.8745C58.0981 17.1932 57.9388 17.5778 57.9388 18.0284C57.9388 18.4899 58.1036 18.88 58.4333 19.1987C58.763 19.5174 59.1531 19.6768 59.6036 19.6768Z" fill="#181A27"/>
<path d="M66.3667 14.0064H69.8447V15.4405C70.3722 14.3306 71.2678 13.7756 72.5315 13.7756C73.2678 13.7756 73.9436 13.9624 74.559 14.3361C75.1854 14.6987 75.6744 15.2042 76.026 15.8526C76.3887 16.5009 76.57 17.2262 76.57 18.0284C76.57 18.8306 76.3832 19.5559 76.0095 20.2042C75.6469 20.8526 75.1524 21.3636 74.526 21.7372C73.9106 22.0998 73.2513 22.2812 72.548 22.2812C71.2952 22.2812 70.3941 21.7262 69.8447 20.6163V24.2922L66.3667 24.9515V14.0064ZM71.493 19.6768C71.9436 19.6768 72.3282 19.5119 72.6469 19.1822C72.9656 18.8526 73.1249 18.468 73.1249 18.0284C73.1249 17.5669 72.9601 17.1767 72.6304 16.8581C72.3117 16.5394 71.9326 16.38 71.493 16.38C71.0425 16.38 70.6579 16.5394 70.3392 16.8581C70.0205 17.1658 69.8612 17.5339 69.8612 17.9625V18.0284C69.8612 18.4899 70.0205 18.88 70.3392 19.1987C70.6689 19.5174 71.0535 19.6768 71.493 19.6768Z" fill="#181A27"/>
<path d="M77.9786 10.8086H82.9071C84.094 10.8086 85.1434 11.0449 86.0555 11.5174C86.9786 11.9899 87.6929 12.6493 88.1984 13.4954C88.7149 14.3416 88.9731 15.3086 88.9731 16.3965C88.9731 17.5394 88.7204 18.5449 88.2149 19.413C87.7204 20.2811 87.0116 20.957 86.0885 21.4405C85.1764 21.913 84.1159 22.1493 82.9071 22.1493H77.9786V10.8086ZM82.7423 19.1822C83.5665 19.1822 84.1929 18.924 84.6214 18.4075C85.061 17.88 85.2808 17.1987 85.2808 16.3636C85.2808 15.5723 85.0665 14.946 84.6379 14.4844C84.2203 14.0119 83.5885 13.7756 82.7423 13.7756H81.6214V19.1822H82.7423Z" fill="#181A27"/>
<path d="M93.9622 22.2812C93.2479 22.2812 92.5776 22.0943 91.9512 21.7207C91.3358 21.3361 90.8413 20.8196 90.4677 20.1713C90.0941 19.5119 89.9073 18.7811 89.9073 17.9789C89.9073 17.1877 90.0941 16.4734 90.4677 15.8361C90.8413 15.1877 91.3413 14.6822 91.9677 14.3196C92.5941 13.957 93.2589 13.7756 93.9622 13.7756C94.5336 13.7756 95.0611 13.935 95.5446 14.2537C96.0391 14.5723 96.4128 15.0504 96.6655 15.6877V13.7756H100.127V22.1493H96.6655V20.6163C96.1161 21.7262 95.215 22.2812 93.9622 22.2812ZM95.0336 19.6768C95.4732 19.6768 95.8468 19.5229 96.1545 19.2152C96.4732 18.8965 96.6435 18.5229 96.6655 18.0943V17.9625C96.6435 17.5229 96.4677 17.1493 96.138 16.8416C95.8194 16.5339 95.4512 16.38 95.0336 16.38C94.5721 16.38 94.1765 16.5449 93.8468 16.8745C93.5281 17.1932 93.3688 17.5778 93.3688 18.0284C93.3688 18.4899 93.5336 18.88 93.8633 19.1987C94.193 19.5174 94.5831 19.6768 95.0336 19.6768Z" fill="#181A27"/>
<path d="M101.797 14.0064H105.275V15.4405C105.802 14.3306 106.698 13.7756 107.962 13.7756C108.698 13.7756 109.374 13.9624 109.989 14.3361C110.615 14.6987 111.104 15.2042 111.456 15.8526C111.819 16.5009 112 17.2262 112 18.0284C112 18.8306 111.813 19.5559 111.44 20.2042C111.077 20.8526 110.582 21.3636 109.956 21.7372C109.341 22.0998 108.681 22.2812 107.978 22.2812C106.725 22.2812 105.824 21.7262 105.275 20.6163V24.2922L101.797 24.9515V14.0064ZM106.923 19.6768C107.374 19.6768 107.758 19.5119 108.077 19.1822C108.396 18.8526 108.555 18.468 108.555 18.0284C108.555 17.5669 108.39 17.1767 108.06 16.8581C107.742 16.5394 107.363 16.38 106.923 16.38C106.473 16.38 106.088 16.5394 105.769 16.8581C105.451 17.1658 105.291 17.5339 105.291 17.9625V18.0284C105.291 18.4899 105.451 18.88 105.769 19.1987C106.099 19.5174 106.483 19.6768 106.923 19.6768Z" fill="#181A27"/>
</g>
</g>
</g>
</svg>
