<svg width="32" height="32" viewBox="0 0 32 32" fill="none" xmlns="http://www.w3.org/2000/svg">
<g clip-path="url(#clip0_25767_28429)">
<circle cx="16" cy="16" r="16" fill="#96D6FF"/>
<mask id="mask0_25767_28429" style="mask-type:alpha" maskUnits="userSpaceOnUse" x="0" y="0" width="32" height="32">
<circle cx="16" cy="16" r="16" fill="#D9D9D9"/>
</mask>
<g mask="url(#mask0_25767_28429)">
<path d="M16.0052 6.45867C16.4735 6.69128 16.8108 7.08782 17.0391 7.54156C17.5904 8.63751 16.2736 9.46849 15.3463 8.66533C13.6889 7.22995 14.7703 5.84525 16.0052 6.45867Z" fill="#725D41" stroke="black" stroke-width="0.2"/>
<path d="M23.319 12.0965C24.3257 12.8286 26.5402 13.1485 28.248 13.2625C29.1217 13.3208 29.9609 13.8932 29.9522 14.7688C29.8987 20.1277 18.4672 20.0076 15.0905 23.525C11.4334 27.3346 16.1128 32.7515 19.0526 33.4298C23.0147 34.3441 22.7097 38.4584 20.2716 38.306C18.6207 38.2028 15.6732 37.975 13.0268 37.6481C11.3477 37.4406 9.49174 39.5087 8.84001 41.07C8.44879 42.0072 7.74183 42.958 6.55711 43.7917C2.44282 46.687 -7.46153 48.3632 -14.1663 43.9441C-20.8711 39.5251 -13.2684 23.3886 -10.3571 20.4774C-4.87125 14.9917 10.2048 8.89648 15.0905 8.89648C22.8619 8.89649 21.6429 10.8774 23.319 12.0965Z" fill="#725D41" stroke="black" stroke-width="0.2"/>
<path d="M25.49 12.9051C26.3911 13.0947 27.3843 13.2051 28.2479 13.2627C29.1216 13.321 29.9596 13.8881 29.9521 14.7638C29.9337 16.9 28.1087 18.1662 25.7056 19.1389C25.1628 19.3586 24.5354 19.3164 24.1018 18.9228C23.1403 18.05 22.1846 16.4782 22.5566 14.2925C22.7623 13.0838 24.2903 12.6526 25.49 12.9051Z" fill="#B5966E" stroke="black" stroke-width="0.2"/>
<path d="M21.6432 11.9444C21.6432 11.9444 21.7956 13.011 19.2051 11.792" stroke="black" stroke-width="0.6" stroke-linecap="round"/>
<path d="M30.0242 13.925C30.0242 14.43 29.4784 14.8393 28.8052 14.8393C28.1319 14.8393 28.348 14.43 28.348 13.925C28.348 13.4201 28.1319 13.0107 28.8052 13.0107C29.4784 13.0107 30.0242 13.4201 30.0242 13.925Z" fill="black"/>
<path d="M21.5627 12.8786C21.4341 13.4232 20.8883 13.7605 20.3437 13.6319C19.799 13.5033 19.4617 12.9576 19.5903 12.4129C19.7189 11.8683 20.0319 12.2844 20.5766 12.413C21.1212 12.5415 21.6913 12.3339 21.5627 12.8786Z" fill="black"/>
<path d="M17.8444 22.1577C16.9601 22.0818 14.9006 21.1277 15.0721 20.6802C15.2436 20.2328 15.9187 20.0812 16.5969 20.538C17.3119 21.0196 18.5047 21.5632 19.2525 21.4173C19.1515 21.6958 18.7286 22.2337 17.8444 22.1577Z" fill="#4B565C" stroke="black" stroke-width="0.2"/>
<path d="M15.9373 20.8221C16.6067 20.7882 16.0577 19.9953 15.7259 19.7381L13.8651 20.101C14.2594 20.2656 15.2679 20.8561 15.9373 20.8221Z" fill="#4B565C" stroke="black" stroke-width="0.2"/>
<path d="M17.3327 18.0743C16.5023 16.7876 15.7654 13.7523 15.5008 12.3955C22.1995 11.089 22.5506 8.92801 21.8888 8.01084C20.5029 6.26916 16.1107 3.39153 9.62981 5.81453C1.52866 8.84326 6.54273 19.6959 9.18911 20.2662C11.8355 20.8366 18.3708 19.6826 17.3327 18.0743Z" fill="#FFD152" stroke="black" stroke-width="0.2"/>
<path d="M12.2731 11.9387C12.3695 11.1955 12.6929 11.6154 18.0908 10.2004C20.5483 9.43128 21.7093 8.32762 21.9825 7.87192C23.5256 7.53072 26.2798 7.25106 24.9522 8.86207C23.2928 10.8758 18.3147 11.9675 16.0824 12.2822C13.8501 12.5969 12.1766 12.6818 12.2731 11.9387Z" fill="white" stroke="black" stroke-width="0.2"/>
<path d="M19.5048 7.61951C19.1895 7.11158 18.2437 6.33014 16.4572 6.0957" stroke="black" stroke-width="0.5" stroke-linecap="round"/>
<path d="M15.8476 6.0957C15.6735 6.0957 15.4123 6.0957 15.2381 6.0957" stroke="black" stroke-width="0.5" stroke-linecap="round"/>
<path d="M10.9767 7.22016C11.7383 6.86861 12.554 7.08966 13.2748 7.52126C14.3712 8.17782 13.9674 9.76722 12.6897 9.7938C10.2932 9.84366 9.43474 7.93181 10.9767 7.22016Z" fill="#725D41" stroke="black" stroke-width="0.2"/>
</g>
</g>
<defs>
<clipPath id="clip0_25767_28429">
<rect width="32" height="32" fill="white"/>
</clipPath>
</defs>
</svg>
