<svg width="24" height="24" viewBox="0 0 24 24" fill="none" xmlns="http://www.w3.org/2000/svg">
<rect width="24" height="24" rx="12" fill="#BFFF60"/>
<path d="M9.5 18.5C8.77778 17.9787 6.48765 15.7819 5.92593 15C4.38519 16.251 4 18.9094 4 19.9519C5.92593 20.2125 8.53704 19.5425 9.5 18.5Z" fill="white" stroke="black" stroke-width="0.6"/>
<path d="M18.5 11.4999C17.2821 8.54548 15.5545 6.76619 12.5 5.5C13.9349 4.81889 17.6023 3.66078 19.109 5.09112C20.8874 6.77938 18.5 11.4999 18.5 11.4999Z" fill="white" stroke="black" stroke-width="0.6"/>
<path d="M11.3361 14.9175L11.3361 14.9175C11.3157 14.9119 11.2466 14.8772 11.1273 14.7664C11.0163 14.6634 10.8875 14.519 10.7472 14.3402C10.4671 13.9834 10.1589 13.5126 9.87757 13.0204C9.59621 12.5282 9.34684 12.0237 9.18147 11.6014C9.09861 11.3897 9.03951 11.2054 9.00703 11.0576C8.97211 10.8986 8.97725 10.8214 8.9828 10.801L8.98281 10.801C8.98836 10.7806 9.02309 10.7115 9.13386 10.5922C9.23688 10.4812 9.38131 10.3524 9.56009 10.2121C9.91689 9.93202 10.3877 9.62382 10.8799 9.34246C11.3721 9.0611 11.8765 8.81173 12.2989 8.64637C12.5105 8.5635 12.6948 8.5044 12.8427 8.47192C13.0017 8.437 13.0789 8.44215 13.0992 8.4477L13.0992 8.4477C13.1196 8.45325 13.1887 8.48798 13.308 8.59874C13.419 8.70176 13.5478 8.84619 13.6881 9.02497C13.9682 9.38177 14.2764 9.85261 14.5578 10.3448C14.8392 10.8369 15.0885 11.3414 15.2539 11.7638C15.3368 11.9754 15.3959 12.1597 15.4283 12.3076C15.4633 12.4666 15.4581 12.5438 15.4526 12.5642C15.447 12.5845 15.4123 12.6537 15.3015 12.773C15.1985 12.8839 15.0541 13.0127 14.8753 13.1531C14.5185 13.4331 14.0476 13.7413 13.5555 14.0227C13.0633 14.3041 12.5588 14.5534 12.1364 14.7188C11.9248 14.8017 11.7405 14.8608 11.5926 14.8932C11.4336 14.9282 11.3565 14.923 11.3361 14.9175ZM12.2176 5.21929C11.9386 5.21929 11.6332 5.3038 11.3245 5.43501C11.0125 5.56761 10.6787 5.75588 10.3379 5.98202C9.65626 6.43431 8.92613 7.05164 8.25645 7.72131C7.58677 8.39099 6.96944 9.12111 6.51713 9.80276C6.29099 10.1436 6.10272 10.4773 5.97011 10.7893C5.83889 11.0981 5.75438 11.4035 5.75438 11.6825C5.75438 11.9615 5.83889 12.267 5.97011 12.5757C6.10272 12.8878 6.29099 13.2215 6.51713 13.5623C6.96944 14.244 7.58677 14.9741 8.25645 15.6438C8.92613 16.3135 9.65625 16.9308 10.3379 17.3831C10.6787 17.6093 11.0125 17.7975 11.3245 17.9301C11.6332 18.0614 11.9386 18.1459 12.2176 18.1459C12.4966 18.1459 12.8021 18.0614 13.1108 17.9301C13.4228 17.7975 13.7566 17.6093 14.0974 17.3831C14.7791 16.9308 15.5092 16.3135 16.1789 15.6438C16.8486 14.9741 17.4659 14.244 17.9182 13.5623C18.1444 13.2215 18.3326 12.8877 18.4652 12.5757C18.5965 12.267 18.681 11.9615 18.681 11.6825C18.681 11.4035 18.5965 11.0981 18.4652 10.7894C18.3326 10.4774 18.1444 10.1436 17.9182 9.80279C17.4659 9.12114 16.8486 8.39102 16.1789 7.72134C15.5092 7.05166 14.7791 6.43433 14.0974 5.98203C13.7566 5.75589 13.4228 5.56762 13.1108 5.43501C12.8021 5.3038 12.4966 5.21929 12.2176 5.21929Z" fill="#836EF9" stroke="black" stroke-width="0.6"/>
</svg>
