<svg width="34" height="31" viewBox="0 0 34 31" fill="none" xmlns="http://www.w3.org/2000/svg">
<g id="Group 48100667">
<path id="Ellipse 5236" d="M32.6485 15.4312C32.6485 23.7122 26.4143 30.3623 18.7991 30.3623H14.2166V0.5H18.7991C26.4143 0.5 32.6485 7.15006 32.6485 15.4312Z" fill="#DD7D00" stroke="#924E00"/>
<path id="Ellipse 5237" d="M28.0762 15.4312C28.0762 23.7143 21.8675 30.3623 14.2881 30.3623C6.70868 30.3623 0.5 23.7143 0.5 15.4312C0.5 7.14797 6.70868 0.5 14.2881 0.5C21.8675 0.5 28.0762 7.14797 28.0762 15.4312Z" fill="#FCD824" stroke="#924E00"/>
<path id="Ellipse 5238" d="M24.5 15.3623C24.5 22.0517 19.7408 27.3623 14 27.3623C8.25915 27.3623 3.5 22.0517 3.5 15.3623C3.5 8.67292 8.25915 3.3623 14 3.3623C19.7408 3.3623 24.5 8.67292 24.5 15.3623Z" fill="#FCBE24" stroke="#924E00"/>
<path id="Vector" d="M19.2975 17.8972C19.9646 18.7671 20.1045 19.7125 19.7171 20.7338C19.3297 21.755 18.5609 22.4249 17.4109 22.7434C16.8609 22.8957 16.2998 22.9017 15.7277 22.7614C15.1556 22.621 14.6867 22.3554 14.3209 21.9646C12.9942 22.5429 11.7478 22.5146 10.5817 21.8797C9.41553 21.2447 8.71474 20.2128 8.47938 18.7841C7.89895 18.6461 7.40563 18.374 6.99941 17.968C6.59321 17.5621 6.30023 17.05 6.1205 16.4319C5.83198 15.4396 6.06156 14.5104 6.80924 13.6443C7.55692 12.7781 8.42448 12.4017 9.41192 12.5149L11.1465 12.72C11.3332 12.1234 11.6554 11.5904 12.1132 11.1209C12.5711 10.6514 13.1119 10.3126 13.7358 10.1047L13.3669 8.83595C13.3054 8.62449 13.3254 8.43002 13.4268 8.25252C13.5283 8.07503 13.6874 7.95628 13.9041 7.89627C14.1207 7.83626 14.32 7.85577 14.5019 7.9548C14.6838 8.05382 14.8055 8.20907 14.867 8.42052L15.2926 9.88446C15.9614 9.8926 16.5513 10.0324 17.0625 10.3039C17.5736 10.5753 18.0702 11.0134 18.5522 11.6182L20.0023 11.2165C20.219 11.1565 20.4183 11.176 20.6001 11.2751C20.782 11.3741 20.9037 11.5294 20.9652 11.7408C21.0267 11.9523 21.0067 12.1467 20.9052 12.3243C20.8038 12.5017 20.6447 12.6205 20.428 12.6805L19.128 13.0405C19.2743 13.6679 19.2714 14.2927 19.1191 14.9148C18.9668 15.537 18.6797 16.0823 18.2576 16.5507L19.2975 17.8972ZM13.2675 20.1999C13.1397 19.7608 13.0531 19.3234 13.0075 18.8878C12.9619 18.4523 12.9573 18.0185 12.9938 17.5866C12.6624 17.8717 12.2866 18.112 11.8662 18.3076C11.4458 18.503 11.0142 18.6445 10.5714 18.7321C10.7559 19.3664 11.0888 19.8147 11.5702 20.0767C12.0517 20.3389 12.6174 20.38 13.2675 20.1999ZM10.2538 16.7109C10.7872 16.5632 11.2392 16.3677 11.6096 16.1245C11.9802 15.8813 12.4337 15.4745 12.9702 14.904L9.61525 14.515C9.07517 14.4536 8.66383 14.5719 8.38127 14.8699C8.0987 15.1678 8.02128 15.5364 8.14898 15.9756C8.27196 16.3985 8.5035 16.6683 8.84361 16.785C9.18371 16.9018 9.65377 16.877 10.2538 16.7109ZM16.8433 20.7915C17.26 20.6761 17.5561 20.4402 17.7317 20.0841C17.9073 19.7279 17.8834 19.4137 17.6602 19.1416L15.3453 16.1972C15.18 16.8054 15.0855 17.394 15.0618 17.963C15.0381 18.532 15.0878 19.0279 15.2108 19.4508C15.3669 19.9876 15.5821 20.3718 15.8566 20.6034C16.1311 20.8349 16.46 20.8976 16.8433 20.7915ZM16.9184 14.9179C17.0377 14.7091 17.1084 14.4566 17.1304 14.1606C17.1523 13.8645 17.1208 13.57 17.0356 13.2773C16.8843 12.7567 16.5815 12.366 16.1275 12.1051C15.6734 11.8442 15.188 11.7853 14.6713 11.9283C14.3713 12.0114 14.1021 12.1387 13.8638 12.3102C13.6255 12.4817 13.4407 12.6822 13.3094 12.9119L15.5149 13.2502L16.9184 14.9179Z" fill="#451D07"/>
</g>
</svg>
