<svg width="20" height="20" viewBox="0 0 20 20" fill="none" xmlns="http://www.w3.org/2000/svg">
<circle cx="10" cy="10" r="9.5" fill="black" stroke="black"/>
<path d="M9.5256 15.3557C9.36121 15.186 9.21734 14.9985 9.0968 14.7969C8.79043 14.3285 8.27717 13.2289 8.27587 12.0197C7.19241 12.6345 5.94267 12.7541 5.36788 12.7299C5.15095 12.7296 4.93463 12.7074 4.72239 12.6637C4.96331 13.8042 5.56712 14.6366 6.53383 15.1609C7.47217 15.6701 8.46943 15.735 9.5256 15.3557ZM13.4143 10.3473C13.724 9.96525 13.9433 9.52155 14.0565 9.04776C14.1909 8.50173 14.1935 7.95337 14.0643 7.40268L15.21 7.08703C15.2983 7.06545 15.3811 7.02655 15.4534 6.9727C15.5257 6.91886 15.5859 6.85121 15.6303 6.77392C15.6744 6.6966 15.7018 6.61133 15.7108 6.52335C15.7198 6.43537 15.7102 6.34652 15.6826 6.26226C15.6607 6.17641 15.6209 6.09582 15.5657 6.02545C15.5106 5.95508 15.4412 5.89642 15.3619 5.85306C15.2822 5.81009 15.1944 5.7834 15.1038 5.77465C15.0131 5.76589 14.9216 5.77525 14.8349 5.80215L13.557 6.15471C13.1323 5.62396 12.6948 5.23937 12.2444 5.00093C11.794 4.76292 11.2742 4.64031 10.685 4.6331L10.3099 3.34758C10.2878 3.26179 10.2478 3.18129 10.1926 3.11103C10.1373 3.04077 10.0678 2.98224 9.98845 2.93902C9.90882 2.89604 9.82099 2.86936 9.73036 2.8606C9.63973 2.85185 9.54822 2.86121 9.46145 2.88811C9.37324 2.90953 9.29047 2.94824 9.2182 3.00186C9.14593 3.05548 9.08569 3.12289 9.04116 3.19994C8.99684 3.2773 8.96928 3.36266 8.96016 3.45076C8.95104 3.53886 8.96056 3.62784 8.98813 3.71224L9.31284 4.82592C8.76896 5.00602 8.27843 5.31226 7.88373 5.71815C7.56369 6.04227 7.30959 6.4223 7.1348 6.8382L10.958 7.2964L13.4143 10.3473ZM5.35676 7.2404C4.69125 7.24285 4.054 7.50219 3.5852 7.96138C3.11639 8.42057 2.85443 9.04198 2.85695 9.68892C2.85947 10.3359 3.12626 10.9553 3.59862 11.4111C4.07098 11.8668 4.71023 12.1214 5.37574 12.119H5.39014C5.9741 12.1457 7.39404 11.9892 8.40483 11.1943L10.412 7.84625L5.35676 7.2404ZM8.94165 11.5125L10.9141 8.22235L13.9956 12.0643C14.3259 12.626 14.4132 13.2922 14.2382 13.9165C14.0631 14.5407 13.6402 15.0718 13.0624 15.3929C12.4846 15.714 11.7992 15.7988 11.157 15.6287C10.5149 15.4586 9.96853 15.0474 9.6382 14.4857L9.631 14.473C9.31873 14.0002 8.75769 12.7484 8.94165 11.5125Z" fill="url(#paint0_linear_31499_4463)"/>
<defs>
<linearGradient id="paint0_linear_31499_4463" x1="23.4351" y1="9.37741" x2="-4.15641" y2="9.76463" gradientUnits="userSpaceOnUse">
<stop stop-color="#F8F29C"/>
<stop offset="0.165" stop-color="#F6DB2A"/>
<stop offset="0.333" stop-color="#F4A435"/>
<stop offset="0.55" stop-color="#E85A46"/>
<stop offset="0.699" stop-color="#B93483"/>
<stop offset="0.867" stop-color="#502B6E"/>
<stop offset="1" stop-color="#2A2136"/>
</linearGradient>
</defs>
</svg>
