<svg width="11" height="11" viewBox="0 0 11 11" fill="none" xmlns="http://www.w3.org/2000/svg">
<path fill-rule="evenodd" clip-rule="evenodd" d="M7.33277 5.43665H9.6539C9.70902 5.43665 9.7636 5.4258 9.81453 5.4047C9.86545 5.38361 9.91172 5.35269 9.9507 5.31372C9.98967 5.27474 10.0206 5.22847 10.0417 5.17755C10.0628 5.12662 10.0736 5.07204 10.0736 5.01692C10.0684 4.34179 9.92562 3.67482 9.6539 3.05676C9.13676 1.8622 8.18138 0.911327 6.98439 0.399837C6.36677 0.136013 5.70213 0 5.03052 0C4.35892 0 3.69427 0.136013 3.07666 0.399837C1.88319 0.912167 0.932066 1.86329 0.419735 3.05676C0.14813 3.67485 0.00531367 4.3418 0 5.01692V10.7715H3.1648V5.0547C3.16081 4.58009 3.33566 4.12137 3.65454 3.76982C3.97342 3.41828 4.41296 3.19967 4.88571 3.15749C5.14203 3.13785 5.39963 3.17133 5.64241 3.25583C5.88519 3.34033 6.10791 3.47404 6.29664 3.64858C6.48536 3.82312 6.63603 4.03474 6.7392 4.27019C6.84238 4.50564 6.89584 4.75986 6.89624 5.01692C6.8962 5.07348 6.90759 5.12947 6.92972 5.18152C6.95186 5.23357 6.98428 5.28061 7.02506 5.31981C7.06583 5.35902 7.1141 5.38958 7.16698 5.40966C7.21986 5.42973 7.27625 5.43892 7.33277 5.43665ZM8.96572 5.89655C9.00271 5.91562 9.0355 5.94193 9.06212 5.97392C9.76308 6.77141 10.7788 8.10617 10.7788 8.87428C10.7788 9.13114 10.7282 9.38549 10.63 9.6228C10.5317 9.86011 10.3876 10.0757 10.206 10.2574C10.0243 10.439 9.8087 10.5831 9.57139 10.6814C9.33408 10.7797 9.07974 10.8302 8.82288 10.8302C8.56601 10.8302 8.31167 10.7797 8.07436 10.6814C7.83705 10.5831 7.62143 10.439 7.4398 10.2574C7.25817 10.0757 7.1141 9.86011 7.0158 9.6228C6.9175 9.38549 6.86691 9.13114 6.86691 8.87428C6.86691 8.10617 7.88267 6.77141 8.58363 5.97392L8.6172 5.94034C8.64833 5.91271 8.68469 5.89161 8.72413 5.87831C8.76357 5.86501 8.80527 5.85977 8.84678 5.8629C8.88828 5.86603 8.92873 5.87748 8.96572 5.89655Z" fill="#A6A6DB"/>
</svg>
