<svg width="57" height="38" viewBox="0 0 57 38" fill="none" xmlns="http://www.w3.org/2000/svg">
<g id="Group 48100748">
<path id="Vector 5414" d="M18.383 36.883L1.76298 20.263C0.858241 19.3582 1.02398 17.8484 2.10344 17.1614L15.1321 8.87047C15.9295 8.36305 16.9732 8.48307 17.6346 9.15823L40.5 32.5L33.3692 30.2716C32.817 30.0991 32.2171 30.1741 31.7244 30.4773L20.8454 37.1721C20.0566 37.6575 19.0378 37.5378 18.383 36.883Z" fill="black" fill-opacity="0.4"/>
<g id="Group 48100746">
<path id="Vector 5414_2" d="M40.5 32L21 12.5L37 2L56.5 21.5L40.5 32Z" fill="#FED488" stroke="black" stroke-linejoin="round"/>
<g id="Mask group">
<mask id="mask0_22321_2904" style="mask-type:alpha" maskUnits="userSpaceOnUse" x="20" y="1" width="37" height="32">
<path id="Vector 5414_3" d="M40.5 32L21 12.5L37 2L56.5 21.5L40.5 32Z" fill="#FED488" stroke="black" stroke-linejoin="round"/>
</mask>
<g mask="url(#mask0_22321_2904)">
<g id="Group 48100745">
<path id="Vector 5418" d="M24.0704 24.337C23.3007 24.9471 23.5416 25.3827 23.7583 25.5243C24.4083 25.9491 24.2956 25.4117 25.0582 26.3737C25.8209 27.3358 26.4708 27.7606 26.783 26.5732C27.0951 25.3859 27.9445 24.0859 28.5945 24.5106C29.2445 24.9354 31.0561 22.8727 29.8687 22.5606C28.6814 22.2485 28.4561 21.1739 28.2308 20.0991C28.0506 19.2394 27.1561 20.3244 26.7314 20.9744C26.3731 21.0495 25.5717 21.3296 25.2319 21.8496C24.8072 22.4996 25.0325 23.5743 24.0704 24.337Z" fill="#C8994E" stroke="#AF8035" stroke-width="0.2"/>
<path id="Vector 5419" d="M26.918 17.1888C26.8279 16.7589 28.0882 15.6346 28.7296 15.1262C27.2912 10.9399 31.4774 9.5015 31.1653 10.6889C30.8532 11.8762 34.3895 10.0131 35.3516 9.25046C36.3137 8.48784 37.1632 7.18785 39.3126 6.73734C41.462 6.28682 40.9763 11.9983 41.7389 12.9604C42.5015 13.9225 45.5004 12.172 46.263 13.1341C47.0256 14.0962 46.7135 15.2835 46.4014 16.4709C46.0893 17.6582 43.5152 18.7588 43.853 20.3708C44.1909 21.9829 45.153 21.2203 44.8409 22.4077C44.5288 23.595 46.2535 23.7945 44.6672 26.9318C43.0809 30.0691 42.4309 29.6444 40.7062 29.4449C38.9815 29.2454 38.6952 33.2322 34.9337 34.0206C31.1721 34.809 35.5579 31.6459 36.9447 30.2333C38.3315 28.8207 36.1821 29.2712 35.9568 28.1965C35.7316 27.1218 33.3569 26.4976 32.2821 26.7228C31.2074 26.9481 33.0448 27.6849 32.62 28.3349C32.1953 28.9849 28.2085 28.6986 28.408 26.9739C28.6075 25.2492 30.2195 24.9113 31.069 23.6113C31.9185 22.3113 31.1559 21.3492 30.0811 21.5745C29.0064 21.7997 30.0553 18.7751 29.8301 17.7003C29.6048 16.6256 27.0306 17.7261 26.918 17.1888Z" fill="#C8994E" stroke="#AF8035" stroke-width="0.2"/>
<g id="Vector 5421">
<path d="M32.7583 31.6717C32.3906 31.4314 33.0704 30.4844 33.4952 29.8344C34.882 28.4217 35.7572 29.9212 35.3325 30.5712C34.9078 31.2212 33.4083 32.0964 32.7583 31.6717Z" fill="#C8994E"/>
<path d="M38.7914 20.3098C38.5748 20.1682 37.9265 19.9301 37.0667 20.1103C36.2069 20.2905 34.7843 21.7106 34.1804 22.3981M33.4952 29.8344C33.0704 30.4844 32.3906 31.4314 32.7583 31.6717C33.4083 32.0964 34.9078 31.2212 35.3325 30.5712C35.7572 29.9212 34.882 28.4217 33.4952 29.8344Z" stroke="#AF8035" stroke-width="0.2"/>
</g>
</g>
</g>
</g>
<path id="Vector 5416" d="M35 25C36.6476 24.5694 41.5904 25 42.826 21.1244C43.7643 18.1818 40.6531 15.1435 39.5547 15" stroke="#B24545" stroke-dasharray="2 1"/>
<path id="Vector 5414_4" d="M40.5 32L21 12.5L17 2L36.5 21.5L40.5 32Z" fill="#886D3B" stroke="black" stroke-linejoin="round"/>
<path id="Vector 5414_5" d="M20.5 32L1 12.5L17 2L36.5 21.5L20.5 32Z" fill="#FED488" stroke="black" stroke-linejoin="round"/>
<g id="Mask group_2">
<mask id="mask1_22321_2904" style="mask-type:alpha" maskUnits="userSpaceOnUse" x="0" y="1" width="37" height="32">
<path id="Vector 5414_6" d="M20.5 32L1 12.5L17 2L36.5 21.5L20.5 32Z" fill="#FED488" stroke="black" stroke-linejoin="round"/>
</mask>
<g mask="url(#mask1_22321_2904)">
<g id="Group 48100745_2">
<path id="Vector 5418_2" d="M12.802 14.0186C11.9813 14.6692 12.2382 15.1338 12.4692 15.2848C13.1624 15.7378 13.0422 15.1647 13.8555 16.1906C14.6687 17.2165 15.3618 17.6694 15.6946 16.4033C16.0275 15.1372 16.9333 13.7509 17.6264 14.2038C18.3195 14.6567 20.2513 12.4573 18.9852 12.1245C17.719 11.7916 17.4788 10.6456 17.2386 9.49959C17.0465 8.58276 16.0926 9.7398 15.6397 10.4329C15.2576 10.513 14.403 10.8118 14.0407 11.3663C13.5878 12.0594 13.828 13.2054 12.802 14.0186Z" fill="#C8994E" stroke="#AF8035" stroke-width="0.2"/>
<path id="Vector 5419_2" d="M15.8387 6.39586C15.7426 5.93744 17.0865 4.73853 17.7704 4.19638C16.2366 -0.267688 20.7006 -1.80154 20.3678 -0.53539C20.035 0.730756 23.8059 -1.25601 24.8319 -2.06924C25.8578 -2.88247 26.7637 -4.26872 29.0557 -4.74913C31.3478 -5.22954 30.8298 0.860978 31.643 1.88692C32.4563 2.91285 35.6542 1.04619 36.4674 2.07213C37.2806 3.09807 36.9478 4.36422 36.615 5.63036C36.2822 6.89651 33.5372 8.07005 33.8975 9.78911C34.2578 11.5082 35.2837 10.6949 34.9509 11.9611C34.6181 13.2272 36.4573 13.4399 34.7657 16.7855C33.0742 20.131 32.381 19.6781 30.5419 19.4654C28.7027 19.2526 28.3974 23.504 24.3862 24.3447C20.3751 25.1855 25.0519 21.8124 26.5307 20.3061C28.0096 18.7997 25.7175 19.2801 25.4773 18.1341C25.2371 16.9881 22.7048 16.3224 21.5587 16.5626C20.4127 16.8028 22.372 17.5886 21.9191 18.2817C21.4661 18.9748 17.2148 18.6695 17.4275 16.8303C17.6402 14.9912 19.3593 14.6309 20.2651 13.2446C21.1709 11.8584 20.3577 10.8324 19.2117 11.0726C18.0656 11.3128 19.1842 8.08742 18.944 6.94138C18.7038 5.79534 15.9588 6.96888 15.8387 6.39586Z" fill="#C8994E" stroke="#AF8035" stroke-width="0.2"/>
<g id="Vector 5421_2">
<path d="M22.0666 21.8398C21.6745 21.5836 22.3994 20.5737 22.8523 19.8805C24.3312 18.3742 25.2645 19.9731 24.8116 20.6663C24.3587 21.3594 22.7597 22.2927 22.0666 21.8398Z" fill="#C8994E"/>
<path d="M28.5 9.72387C28.269 9.5729 27.5777 9.31899 26.6609 9.51116C25.744 9.70332 24.227 11.2177 23.5831 11.9508M22.8523 19.8805C22.3994 20.5737 21.6745 21.5836 22.0666 21.8398C22.7597 22.2927 24.3587 21.3594 24.8116 20.6663C25.2645 19.9731 24.3312 18.3742 22.8523 19.8805Z" stroke="#AF8035" stroke-width="0.2"/>
</g>
</g>
</g>
</g>
<path id="Vector 5414_7" d="M20.5 32L1 12.5L17 2L36.5 21.5L20.5 32Z" stroke="black" stroke-linejoin="round"/>
<path id="Vector 5415" d="M10 14.4999C17.5 10.9998 25 21.4999 30.5 15.9999" stroke="#B24545" stroke-dasharray="2 1"/>
<path id="Vector 5417" d="M40.09 10L37.59 16.5" stroke="#B24545" stroke-width="1.6"/>
<path id="Vector 5417_2" d="M35 13.5652L42.5 13" stroke="#B24545" stroke-width="1.6"/>
</g>
<g id="Group 48100747">
<path id="Ellipse 5292" d="M35.6296 8.12963C35.6296 10.9954 31.853 15.1829 29.7971 17.2502C29.0742 17.9772 27.9258 17.9772 27.2029 17.2502C25.1469 15.1829 21.3704 10.9954 21.3704 8.12963C21.3704 4.19204 24.5624 1 28.5 1C32.4376 1 35.6296 4.19204 35.6296 8.12963Z" fill="#B24545" stroke="black" stroke-linejoin="round"/>
<circle id="Ellipse 5293" cx="28.5" cy="8.12966" r="3.24074" fill="black"/>
</g>
</g>
</svg>
