<svg width="88" height="38" viewBox="0 0 88 38" fill="none" xmlns="http://www.w3.org/2000/svg">
<rect x="13.6985" y="21.5342" width="1.95764" height="1.95764" fill="white"/>
<rect x="21.5166" y="21.5342" width="1.95764" height="1.95764" fill="white"/>
<rect x="23.4731" y="19.5762" width="1.95764" height="1.95764" fill="white"/>
<rect x="39.1067" y="19.5762" width="1.95764" height="1.95764" fill="white"/>
<rect x="23.4731" y="21.5342" width="1.95764" height="1.95764" fill="white"/>
<rect x="39.1067" y="21.5342" width="1.95764" height="1.95764" fill="white"/>
<rect x="23.4731" y="23.4912" width="1.95764" height="1.95764" fill="white"/>
<rect x="39.1067" y="23.4912" width="1.95764" height="1.95764" fill="white"/>
<rect x="31.2939" y="11.7461" width="1.95764" height="1.95764" fill="white"/>
<rect x="21.5166" y="23.4922" width="1.95764" height="1.95764" fill="white"/>
<rect x="25.4243" y="19.5771" width="1.95764" height="1.95764" fill="white"/>
<rect x="25.4243" y="21.5342" width="1.95764" height="1.95764" fill="white"/>
<rect x="25.4243" y="17.6191" width="1.95764" height="1.95764" fill="white"/>
<rect x="37.1501" y="19.5771" width="1.95764" height="1.95764" fill="white"/>
<rect x="37.1501" y="21.5342" width="1.95764" height="1.95764" fill="white"/>
<rect x="37.1501" y="17.6191" width="1.95764" height="1.95764" fill="white"/>
<rect x="27.3809" y="17.6191" width="1.95764" height="1.95764" fill="white"/>
<rect x="27.3809" y="19.5762" width="1.95764" height="1.95764" fill="white"/>
<rect x="27.3809" y="15.6611" width="1.95764" height="1.95764" fill="white"/>
<rect x="29.3374" y="15.6611" width="1.95764" height="1.95764" fill="white"/>
<rect x="33.2344" y="15.6611" width="1.95764" height="1.95764" fill="white"/>
<rect x="35.1936" y="15.6611" width="1.95764" height="1.95764" fill="white"/>
<rect x="29.3374" y="17.6191" width="1.95764" height="1.95764" fill="white"/>
<rect x="33.2344" y="17.6191" width="1.95764" height="1.95764" fill="white"/>
<rect x="35.1936" y="17.6191" width="1.95764" height="1.95764" fill="white"/>
<rect x="35.1936" y="19.5762" width="1.95764" height="1.95764" fill="white"/>
<rect x="29.3374" y="13.7041" width="1.95764" height="1.95764" fill="white"/>
<rect x="33.2344" y="13.7041" width="1.95764" height="1.95764" fill="white"/>
<rect x="31.2939" y="13.7041" width="1.95764" height="1.95764" fill="white"/>
<rect x="31.2939" y="15.6611" width="1.95764" height="1.95764" fill="white"/>
<rect x="21.4897" y="31.3828" width="1.95764" height="1.95764" fill="#836EF9"/>
<rect x="21.4897" y="31.3828" width="1.95764" height="1.95764" fill="#836EF9"/>
<rect x="23.4463" y="33.2793" width="1.95764" height="1.95764" fill="#836EF9"/>
<rect x="21.4897" y="33.3398" width="1.95764" height="1.95764" fill="#836EF9"/>
<rect x="21.4897" y="33.3398" width="1.95764" height="1.95764" fill="#836EF9"/>
<rect x="33.229" y="33.3398" width="1.95764" height="1.95764" fill="#836EF9"/>
<rect x="35.1829" y="33.3398" width="1.95764" height="1.95764" fill="#836EF9"/>
<rect x="37.1394" y="31.3828" width="1.95764" height="3.91527" fill="#836EF9"/>
<rect x="39.0959" y="31.3828" width="1.95764" height="1.95764" fill="#836EF9"/>
<rect x="41.0525" y="31.3828" width="1.95764" height="1.95764" fill="#836EF9"/>
<rect x="41.0525" y="29.4248" width="1.95764" height="1.95764" fill="#836EF9"/>
<rect x="43.009" y="29.4248" width="1.95764" height="1.95764" fill="#836EF9"/>
<rect x="44.9656" y="29.4248" width="1.95764" height="1.95764" fill="#836EF9"/>
<rect x="46.9221" y="27.4678" width="1.95764" height="1.95764" fill="#836EF9"/>
<rect x="44.9656" y="27.4678" width="1.95764" height="1.95764" fill="#836EF9"/>
<rect x="46.9221" y="25.5098" width="1.95764" height="1.95764" fill="#836EF9"/>
<rect x="48.8787" y="25.5098" width="1.95764" height="1.95764" fill="#836EF9"/>
<rect x="50.8352" y="25.5098" width="1.95764" height="1.95764" fill="#836EF9"/>
<rect x="52.7864" y="23.5518" width="1.95764" height="1.95764" fill="#836EF9"/>
<rect x="54.7429" y="21.5332" width="1.95764" height="1.95764" fill="#836EF9"/>
<rect x="56.6995" y="19.5762" width="1.95764" height="1.95764" fill="#836EF9"/>
<rect x="58.656" y="17.6182" width="1.95764" height="1.95764" fill="#836EF9"/>
<rect x="60.6125" y="15.6611" width="1.95764" height="1.95764" fill="#836EF9"/>
<rect x="62.561" y="13.7031" width="1.95764" height="1.95764" fill="#836EF9"/>
<rect x="50.8352" y="23.5518" width="1.95764" height="1.95764" fill="#836EF9"/>
<rect x="52.7864" y="21.5947" width="1.95764" height="1.95764" fill="#836EF9"/>
<rect x="54.7429" y="19.5762" width="1.95764" height="1.95764" fill="#836EF9"/>
<rect x="56.6995" y="17.6182" width="1.95764" height="1.95764" fill="#836EF9"/>
<rect x="58.656" y="15.6611" width="1.95764" height="1.95764" fill="#836EF9"/>
<rect x="60.6125" y="13.7031" width="1.95764" height="1.95764" fill="#836EF9"/>
<rect x="62.561" y="11.7461" width="1.95764" height="1.95764" fill="#836EF9"/>
<rect x="62.561" y="9.78809" width="1.95764" height="1.95764" fill="#836EF9"/>
<rect x="64.5176" y="9.78809" width="1.95764" height="1.95764" fill="#836EF9"/>
<rect x="64.5176" y="7.83105" width="1.95764" height="1.95764" fill="#836EF9"/>
<rect x="64.5176" y="5.87305" width="1.95764" height="1.95764" fill="#836EF9"/>
<rect x="64.5176" y="3.91602" width="1.95764" height="1.95764" fill="#836EF9"/>
<rect x="64.5176" y="1.95801" width="1.95764" height="1.95764" fill="#836EF9"/>
<rect x="62.7141" y="1.95801" width="1.95764" height="1.95764" fill="#836EF9"/>
<rect x="60.7576" y="1.95801" width="1.95764" height="1.95764" fill="#836EF9"/>
<rect x="58.801" width="1.95764" height="1.95764" fill="#836EF9"/>
<rect x="44.9709" y="3.91602" width="1.95764" height="1.95764" fill="#836EF9"/>
<rect x="44.9709" y="1.95801" width="1.95764" height="1.95764" fill="#836EF9"/>
<rect x="44.9709" y="5.87305" width="1.95764" height="1.95764" fill="#836EF9"/>
<rect x="43.0144" y="5.87305" width="1.95764" height="1.95764" fill="#836EF9"/>
<rect x="46.9248" y="3.91602" width="1.95764" height="1.95764" fill="#836EF9"/>
<rect x="48.8787" y="3.91602" width="1.95764" height="1.95764" fill="#836EF9"/>
<rect x="46.9248" y="5.87305" width="1.95764" height="1.95764" fill="#836EF9"/>
<rect x="46.9248" y="7.83105" width="1.95764" height="1.95764" fill="#836EF9"/>
<rect x="23.4463" y="35.2373" width="11.7393" height="1.95764" fill="#836EF9"/>
<rect x="43.2426" y="11.6807" width="4.12243" height="13.7414" fill="white"/>
<rect x="46.767" y="11.7461" width="2.06122" height="2.74829" fill="white"/>
<rect x="48.8282" y="11.7461" width="2.06122" height="2.74829" fill="white"/>
<rect x="50.8003" y="12.3672" width="2.06122" height="2.06122" fill="white"/>
<rect x="52.1744" y="13.7412" width="2.74829" height="3.43536" fill="white"/>
<rect x="56.7075" y="13.7031" width="1.95764" height="1.95764" fill="white"/>
<rect x="52.1744" y="17.1768" width="1.95764" height="1.95764" fill="white"/>
<rect x="58.656" y="11.7461" width="1.95764" height="1.95764" fill="white"/>
<rect x="66.4902" y="13.7031" width="1.95764" height="1.95764" fill="white"/>
<rect x="66.4902" y="17.6182" width="1.95764" height="1.95764" fill="white"/>
<rect x="66.4902" y="19.5762" width="1.95764" height="1.95764" fill="white"/>
<rect x="66.4902" y="21.5332" width="1.95764" height="1.95764" fill="white"/>
<rect x="62.5771" y="21.5332" width="1.95764" height="1.95764" fill="white"/>
<rect x="58.3582" y="23.3604" width="9.61901" height="2.06122" fill="white"/>
<rect x="68.4468" y="13.7031" width="1.95764" height="1.95764" fill="white"/>
<rect x="74.3218" y="11.7461" width="1.95764" height="13.7034" fill="white"/>
<rect x="76.2703" y="11.7461" width="1.95764" height="5.87291" fill="white"/>
<rect x="78.2268" y="13.7031" width="1.95764" height="5.87291" fill="white"/>
<rect x="80.1753" y="15.6611" width="1.95764" height="5.87274" fill="white"/>
<rect x="82.1318" y="17.6182" width="1.95764" height="5.87274" fill="white"/>
<rect x="84.0858" y="19.5762" width="1.95764" height="3.9151" fill="white"/>
<rect x="84.0858" y="23.4912" width="1.95764" height="1.9578" fill="white"/>
<rect x="86.0424" y="23.4912" width="1.95764" height="1.9578" fill="white"/>
<rect x="86.0424" y="21.5332" width="1.95764" height="1.9578" fill="white"/>
<rect x="64.5337" y="17.6182" width="1.95764" height="1.95764" fill="white"/>
<rect x="68.4468" y="17.6182" width="1.95764" height="1.95764" fill="white"/>
<rect x="68.4468" y="19.5762" width="1.95764" height="1.95764" fill="white"/>
<rect x="72.3652" y="13.7031" width="1.95764" height="11.7458" fill="white"/>
<rect x="64.5337" y="21.5332" width="1.95764" height="1.95764" fill="white"/>
<rect x="68.4468" y="21.5332" width="1.95764" height="1.95764" fill="white"/>
<rect x="60.6206" y="21.5332" width="1.95764" height="1.95764" fill="white"/>
<rect x="46.6779" y="21.2988" width="4.12243" height="2.06122" fill="white"/>
<rect x="46.6779" y="23.3604" width="2.06122" height="2.06122" fill="white"/>
<rect x="13.6985" y="23.4922" width="1.95764" height="1.95764" fill="white"/>
<rect y="20.6641" width="1.95764" height="2.82769" fill="white"/>
<rect x="23.4705" y="11.7461" width="1.95764" height="1.95764" fill="white"/>
<rect x="25.427" y="11.7461" width="1.95764" height="1.95764" fill="white"/>
<rect x="27.3809" y="11.7461" width="1.95764" height="1.95764" fill="white"/>
<rect x="25.427" y="13.7041" width="1.95764" height="1.95764" fill="white"/>
<rect y="23.4922" width="1.95764" height="1.95764" fill="white"/>
<rect x="17.6062" y="17.6191" width="1.95764" height="1.95764" fill="white"/>
<rect x="19.5627" y="17.6191" width="1.95764" height="1.95764" fill="white"/>
<rect x="21.5193" y="17.6191" width="1.95764" height="1.95764" fill="white"/>
<rect x="15.6497" y="21.5342" width="1.95764" height="1.95764" fill="white"/>
<rect x="17.6062" y="21.5342" width="1.95764" height="1.95764" fill="white"/>
<rect x="15.6497" y="19.5762" width="1.95764" height="1.95764" fill="white"/>
<rect x="17.6062" y="19.5762" width="1.95764" height="1.95764" fill="white"/>
<rect x="19.5627" y="19.5762" width="1.95764" height="1.95764" fill="white"/>
<rect x="15.6497" y="23.4922" width="1.95764" height="1.95764" fill="white"/>
<rect x="19.5627" y="15.6611" width="1.95764" height="1.95764" fill="white"/>
<rect x="21.5193" y="15.6611" width="1.95764" height="1.95764" fill="white"/>
<rect x="23.4758" y="15.6611" width="1.95764" height="1.95764" fill="white"/>
<rect x="21.5193" y="13.7041" width="1.95764" height="1.95764" fill="white"/>
<rect x="23.4758" y="13.7041" width="1.95764" height="1.95764" fill="white"/>
<rect x="1.95654" y="20.6641" width="1.95764" height="2.39267" fill="white"/>
<rect x="1.95654" y="23.0566" width="1.95764" height="2.39267" fill="white"/>
<rect x="1.95654" y="18.2715" width="1.95764" height="2.39267" fill="white"/>
<rect x="3.91309" y="18.2715" width="1.95764" height="2.61018" fill="white"/>
<rect x="3.91309" y="20.8809" width="1.95764" height="2.61018" fill="white"/>
<rect x="3.91309" y="15.6611" width="1.95764" height="2.61018" fill="white"/>
<rect x="5.86963" y="16.3135" width="1.95764" height="2.61018" fill="white"/>
<rect x="5.86963" y="18.9238" width="1.95764" height="2.61018" fill="white"/>
<rect x="5.86963" y="13.7041" width="1.95764" height="2.61018" fill="white"/>
<rect x="7.82617" y="15.6611" width="1.95764" height="3.91527" fill="white"/>
<rect x="7.82617" y="11.7461" width="1.95764" height="3.91527" fill="white"/>
<rect x="9.78271" y="14.6826" width="1.95764" height="2.93645" fill="white"/>
<rect x="9.78271" y="11.7461" width="1.95764" height="2.93645" fill="white"/>
<rect x="11.7393" y="11.7461" width="1.95764" height="13.7034" fill="white"/>
<rect x="13.6931" y="11.7461" width="1.95764" height="13.7034" fill="white"/>
</svg>
