<svg width="147" height="60" viewBox="0 0 147 60" fill="none" xmlns="http://www.w3.org/2000/svg">
  <path d="M8.57318 40.2873L0 40.35C0 40.35 10.9158 25.8556 12.0363 24.225C13.7679 21.7052 14.1893 20.1308 18.9205 19.69C22.892 19.32 25.8891 20.2704 25.8891 22.2078L25.0233 35.1219L35.4129 20.1919H43.205L32.6254 35.8144C30.2181 38.996 28.0219 40.3509 23.2917 40.35C17.8435 40.349 18.2447 38.996 18.2447 37.8303L19.5962 24.225L8.57318 40.2873Z" fill="white"/>
  <path d="M41.3543 40.35H32.4973L44.8971 22.7745C45.7828 21.4784 46.9711 19.6113 51.81 19.6113C55.6812 19.6113 57.4479 20.8163 58.1826 22.7745L63.6049 40.35H56.0009L51.0972 25.1762L41.3543 40.35Z" fill="white"/>
  <path d="M89.9305 27.4639C88.0357 22.2183 93.18 19.626 98.5732 19.626C97.0592 21.5939 93.3388 26.207 90.5698 28.9162C90.3329 28.4715 90.1198 27.9879 89.9305 27.4639Z" fill="white"/>
  <path d="M107.894 27.9584C111.497 27.9584 114.901 28.6991 116.58 32.4889C119.098 38.4203 114.061 40.3645 107.894 40.3645H92.2334L92.0704 39.5636L96.5605 35.1799H107.894C108.767 35.1799 109.4 34.5363 109.164 33.8869C109.005 33.4471 108.485 33.143 107.894 33.143H98.5732C99.438 32.4308 101.819 29.3898 102.902 27.9584H107.894Z" fill="white"/>
  <path d="M104.992 24.8033C105.915 23.4187 107.299 20.7651 107.876 19.6113L111.357 19.626L114.057 24.8033H104.992Z" fill="white"/>
  <path d="M138.04 40.3586H146.897L132.726 22.7833C131.84 21.4871 130.652 19.6201 125.813 19.6201C121.942 19.6201 120.175 20.8251 119.441 22.7833L117.518 40.3586H125.122L126.526 25.185L138.04 40.3586Z" fill="white"/>
  <path d="M79.4111 20.1689C82.7832 20.338 87.6094 21.5467 89.5273 30.2988C86.4128 33.1176 79.6073 39.0893 77.2998 40.4268H67.2715C66.3722 40.2578 64.5743 39.5148 64.5742 37.8945C64.5742 36.2739 65.2275 26.7513 65.2275 22.1934C65.2278 21.5186 65.7674 20.1698 67.9248 20.1689H79.4111ZM72.6465 24.791C72.4256 24.791 72.2461 24.9705 72.2461 25.1914V34.7734C72.2461 34.9943 72.4256 35.1738 72.6465 35.1738H79.1592C82.6153 35.1737 83.3468 32.6007 82.6152 29.9824C81.9745 27.6893 81.2258 26.3267 80.6982 25.5771C80.3108 25.0268 79.6573 24.7911 78.9844 24.791H72.6465Z" fill="white"/>
  <path d="M79.4237 8.15256C92.525 1.71373 103.771 0.271892 107.594 5.42209C112.937 12.6223 101.747 29.9788 82.6004 44.1887C63.4537 58.3985 43.6002 64.0813 38.2567 56.8811C36.0948 53.968 36.6395 49.3923 39.3221 44.0354C37.6676 47.945 37.4831 51.2334 39.0965 53.4074C43.7735 59.7095 61.7882 54.262 79.3338 41.2405C96.8794 28.2189 107.312 12.5543 102.635 6.25217C99.5008 2.02986 90.3795 3.08188 79.4237 8.15256Z" fill="white"/>
  <path d="M72.5115 3.27166L76.494 7.9719L82.5315 6.74727L77.8313 10.7298L79.0559 16.7675L75.0735 12.0672L69.0359 13.2918L73.7361 9.3093L72.5115 3.27166Z" fill="white"/>
</svg>
