<svg width="155" height="55" viewBox="0 0 155 55" fill="none" xmlns="http://www.w3.org/2000/svg">
<g opacity="0.6" filter="url(#filter0_f_36008_3987)">
<path d="M17.9969 36.7883L10.1678 36.8456C10.1678 36.8456 20.1361 23.6094 21.1594 22.1204C22.7407 19.8193 23.1255 18.3816 27.446 17.9791C31.0728 17.6412 33.8098 18.5091 33.8098 20.2783L33.0191 32.0713L42.5069 18.4374H49.6228L39.9614 32.7037C37.763 35.6091 35.7575 36.8463 31.4378 36.8456C26.4626 36.8447 26.8289 35.6091 26.8289 34.5445L28.0631 22.1204L17.9969 36.7883Z" fill="white"/>
<path d="M47.934 36.8456H39.8458L51.1693 20.7958C51.9781 19.6122 53.0633 17.9072 57.4822 17.9072C61.0174 17.9072 62.6307 19.0076 63.3016 20.7958L68.2534 36.8456H61.3094L56.8312 22.989L47.934 36.8456Z" fill="white"/>
<path d="M92.2955 25.0781C90.5651 20.2879 95.2629 17.9206 100.188 17.9206C98.8055 19.7177 95.4079 23.9303 92.8793 26.4044C92.663 25.9983 92.4684 25.5567 92.2955 25.0781Z" fill="white"/>
<path d="M108.7 25.5298C111.99 25.5298 115.099 26.2061 116.632 29.667C118.932 35.0835 114.332 36.859 108.7 36.859H94.3985L94.2496 36.1276L98.3501 32.1244H108.7C109.498 32.1244 110.075 31.5366 109.86 30.9436C109.714 30.542 109.24 30.2644 108.7 30.2644H100.188C100.978 29.6139 103.152 26.8369 104.141 25.5298H108.7Z" fill="white"/>
<path d="M106.049 22.6485C106.892 21.3842 108.157 18.9608 108.683 17.9072L111.863 17.9206L114.328 22.6485H106.049Z" fill="white"/>
<path d="M136.226 36.8602H144.314L131.373 20.8105C130.564 19.6268 129.479 17.9219 125.06 17.9219C121.525 17.9219 119.912 19.0222 119.241 20.8105L117.485 36.8602H124.429L125.711 23.0037L136.226 36.8602Z" fill="white"/>
<path d="M82.6877 18.4219C85.767 18.5764 90.1735 19.6808 91.925 27.6729C89.0806 30.2471 82.8661 35.7007 80.7589 36.9219H71.6017C70.7806 36.7677 69.1381 36.0891 69.1378 34.6094C69.1378 33.1294 69.7345 24.4339 69.7345 20.2715C69.7345 19.6554 70.2276 18.4225 72.1984 18.4219H82.6877ZM76.5431 22.6426C76.3223 22.6427 76.1438 22.8212 76.1437 23.042V31.7227C76.1437 31.9435 76.3223 32.123 76.5431 32.123H82.4562C85.6124 32.123 86.2805 29.7738 85.6125 27.3828C85.0477 25.3616 84.3905 24.1322 83.9123 23.4336C83.532 22.8782 82.8793 22.6426 82.2062 22.6426H76.5431Z" fill="white"/>
</g>
<path d="M28.1063 17.7803C29.6543 17.6971 31.0176 17.8425 32.037 18.1973C33.1968 18.6009 33.9598 19.2973 33.9598 20.2783V20.2881L33.2049 31.541L42.3837 18.3516L42.4286 18.2871H49.9051L49.7469 18.5215L40.0858 32.7881L40.0809 32.7939C38.9751 34.2554 37.9079 35.3111 36.5633 35.998C35.3027 36.6421 33.8113 36.9558 31.8387 36.9922L31.4374 36.9951C30.1889 36.9949 29.2683 36.9175 28.5897 36.7822C27.9123 36.6472 27.4639 36.4526 27.1717 36.209C26.5749 35.7114 26.6785 35.0436 26.6786 34.5449V34.5371L26.6796 34.5293L27.8553 22.6855L18.121 36.873L18.076 36.9375L17.9979 36.9385L10.1688 36.9951L9.8651 36.998L10.0477 36.7549H10.0487L10.0497 36.7529C10.0509 36.7513 10.0532 36.7492 10.0555 36.7461C10.0603 36.7397 10.0676 36.7303 10.077 36.7178C10.0959 36.6927 10.1234 36.655 10.16 36.6064C10.2333 36.5091 10.3411 36.366 10.4784 36.1836C10.7529 35.8188 11.1467 35.2961 11.6219 34.6641C12.5724 33.4 13.8502 31.6986 15.16 29.9512C17.7815 26.4539 20.5267 22.7763 21.036 22.0352L21.5809 21.2158C21.751 20.9559 21.9135 20.7072 22.078 20.4727C22.4074 20.003 22.7482 19.5833 23.1796 19.2227C24.0464 18.4979 25.2575 18.0327 27.4325 17.8301L28.1063 17.7803Z" fill="white" stroke="#313B58" stroke-width="0.3"/>
<path d="M58.1281 17.7705C59.5861 17.8305 60.698 18.0984 61.5372 18.5488C62.3804 19.0014 62.9405 19.6337 63.2999 20.4043L63.4425 20.7432L63.4454 20.752L68.3966 36.8018L68.4562 36.9951H61.2003L61.1661 36.8916L56.7853 23.3359L48.0607 36.9268L48.0157 36.9951H39.5568L39.7228 36.7588L51.045 20.7109L51.3702 20.2441C51.7228 19.7569 52.1766 19.225 52.8927 18.7803C53.8478 18.1872 55.254 17.7568 57.4825 17.7568L58.1281 17.7705Z" fill="white" stroke="#313B58" stroke-width="0.3"/>
<path d="M108.7 25.3799C110.353 25.3799 111.977 25.5493 113.384 26.1631C114.71 26.7409 115.837 27.7095 116.618 29.2832L116.769 29.6064L116.77 29.6084L116.968 30.1133C117.385 31.2673 117.48 32.26 117.301 33.1064C117.097 34.0771 116.536 34.8374 115.727 35.416C114.121 36.5655 111.522 37.0088 108.7 37.0088H94.276L94.2516 36.8887L94.1022 36.1572L94.0865 36.0771L94.1451 36.0205L98.2457 32.0166L98.2887 31.9746H108.7C109.063 31.9746 109.366 31.8404 109.552 31.6514C109.713 31.4875 109.785 31.286 109.744 31.082L109.719 30.9951C109.602 30.6705 109.198 30.4141 108.7 30.4141H99.7701L100.092 30.1484C100.473 29.8347 101.204 28.9914 101.973 28.0488C102.738 27.1117 103.528 26.092 104.021 25.4395L104.066 25.3799H108.7ZM100.493 17.7705L100.307 18.0117C98.924 19.8096 95.5207 24.0298 92.984 26.5117L92.8414 26.6514L92.7467 26.4746C92.5817 26.1648 92.4294 25.8353 92.2897 25.4854L92.1539 25.1289C91.7125 23.9067 91.6774 22.8264 91.9625 21.8945C92.2476 20.9632 92.8491 20.1933 93.6559 19.583C95.2652 18.3658 97.7073 17.7705 100.188 17.7705H100.493ZM108.684 17.7568L111.863 17.7705H111.954L111.996 17.8516L114.461 22.5791L114.576 22.7988H105.769L105.924 22.5654C106.761 21.3098 108.022 18.8939 108.549 17.8398L108.591 17.7568H108.684Z" fill="white" stroke="#313B58" stroke-width="0.3"/>
<path d="M124.414 17.7852C122.956 17.8452 121.845 18.1132 121.006 18.5635C120.162 19.0161 119.602 19.6482 119.242 20.4189L119.101 20.7578L119.094 20.7754L119.092 20.7939L117.336 36.8438L117.317 37.0098H124.565L124.578 36.874L125.825 23.4014L136.106 36.9512L136.151 37.0098H144.628L144.432 36.7656L131.496 20.7227C131.093 20.1325 130.603 19.3869 129.649 18.7949C128.694 18.202 127.289 17.7715 125.061 17.7715L124.414 17.7852Z" fill="white" stroke="#313B58" stroke-width="0.3"/>
<mask id="path-10-outside-1_36008_3987" maskUnits="userSpaceOnUse" x="68.1378" y="17.4219" width="25" height="20" fill="black">
<rect fill="white" x="68.1378" y="17.4219" width="25" height="20"/>
<path d="M82.6877 18.4219C85.767 18.5764 90.1735 19.6808 91.925 27.6729C89.0806 30.2471 82.8661 35.7007 80.7589 36.9219H71.6017C70.7806 36.7677 69.1381 36.0891 69.1378 34.6094C69.1378 33.1294 69.7345 24.4339 69.7345 20.2715C69.7345 19.6554 70.2276 18.4225 72.1984 18.4219H82.6877ZM76.5431 22.6426C76.3223 22.6427 76.1438 22.8212 76.1437 23.042V31.7227C76.1437 31.9435 76.3223 32.123 76.5431 32.123H82.4562C85.6124 32.123 86.2805 29.7738 85.6125 27.3828C85.0477 25.3616 84.3905 24.1322 83.9123 23.4336C83.532 22.8782 82.8793 22.6426 82.2062 22.6426H76.5431Z"/>
</mask>
<path d="M82.6877 18.4219C85.767 18.5764 90.1735 19.6808 91.925 27.6729C89.0806 30.2471 82.8661 35.7007 80.7589 36.9219H71.6017C70.7806 36.7677 69.1381 36.0891 69.1378 34.6094C69.1378 33.1294 69.7345 24.4339 69.7345 20.2715C69.7345 19.6554 70.2276 18.4225 72.1984 18.4219H82.6877ZM76.5431 22.6426C76.3223 22.6427 76.1438 22.8212 76.1437 23.042V31.7227C76.1437 31.9435 76.3223 32.123 76.5431 32.123H82.4562C85.6124 32.123 86.2805 29.7738 85.6125 27.3828C85.0477 25.3616 84.3905 24.1322 83.9123 23.4336C83.532 22.8782 82.8793 22.6426 82.2062 22.6426H76.5431Z" fill="white"/>
<path d="M82.6877 18.4219L82.7027 18.1223L82.6952 18.1219H82.6877V18.4219ZM91.925 27.6729L92.1263 27.8953L92.2552 27.7786L92.218 27.6086L91.925 27.6729ZM80.7589 36.9219V37.2219H80.8396L80.9094 37.1814L80.7589 36.9219ZM71.6017 36.9219L71.5464 37.2167L71.5738 37.2219H71.6017V36.9219ZM69.1378 34.6094H68.8378V34.6094L69.1378 34.6094ZM69.7345 20.2715L70.0345 20.2715V20.2715H69.7345ZM72.1984 18.4219V18.1219L72.1983 18.1219L72.1984 18.4219ZM76.5431 22.6426V22.3426H76.543L76.5431 22.6426ZM76.1437 23.042L75.8437 23.0419V23.042H76.1437ZM76.5431 32.123L76.543 32.423H76.5431V32.123ZM82.4562 32.123V32.423H82.4562L82.4562 32.123ZM85.6125 27.3828L85.9014 27.3021L85.9014 27.3021L85.6125 27.3828ZM83.9123 23.4336L84.1598 23.2641L84.1598 23.2641L83.9123 23.4336ZM82.2062 22.6426L82.2062 22.3426H82.2062V22.6426ZM82.6877 18.4219L82.6726 18.7215C84.185 18.7974 85.9864 19.1052 87.6229 20.3473C89.2568 21.5873 90.7669 23.7901 91.6319 27.7371L91.925 27.6729L92.218 27.6086C91.3315 23.5636 89.7628 21.2181 87.9857 19.8693C86.2112 18.5226 84.2697 18.2009 82.7027 18.1223L82.6877 18.4219ZM91.925 27.6729L91.7236 27.4504C90.3033 28.7359 88.0412 30.7405 85.8717 32.5757C83.6927 34.419 81.6342 36.0679 80.6085 36.6623L80.7589 36.9219L80.9094 37.1814C81.9908 36.5547 84.0932 34.8661 86.2592 33.0338C88.435 31.1933 90.7023 29.1841 92.1263 27.8953L91.925 27.6729ZM80.7589 36.9219V36.6219H71.6017V36.9219V37.2219H80.7589V36.9219ZM71.6017 36.9219L71.6571 36.627C71.2797 36.5562 70.708 36.3622 70.2386 36.0202C69.7731 35.6812 69.4379 35.2218 69.4378 34.6093L69.1378 34.6094L68.8378 34.6094C68.838 35.4767 69.3241 36.0965 69.8853 36.5052C70.4425 36.9111 71.1026 37.1334 71.5464 37.2167L71.6017 36.9219ZM69.1378 34.6094H69.4378C69.4378 33.8798 69.5861 31.3511 69.7358 28.4619C69.8849 25.5843 70.0345 22.3618 70.0345 20.2715L69.7345 20.2715L69.4345 20.2715C69.4345 22.3435 69.2858 25.5501 69.1366 28.4308C68.9879 31.3 68.8378 33.8591 68.8378 34.6094H69.1378ZM69.7345 20.2715H70.0345C70.0345 20.0327 70.1332 19.6474 70.4439 19.3235C70.7472 19.0073 71.2796 18.7222 72.1985 18.7219L72.1984 18.4219L72.1983 18.1219C71.1464 18.1222 70.4468 18.4538 70.0109 18.9082C69.5823 19.355 69.4345 19.8941 69.4345 20.2715H69.7345ZM72.1984 18.4219V18.7219H82.6877V18.4219V18.1219H72.1984V18.4219ZM76.5431 22.6426L76.543 22.3426C76.1566 22.3427 75.8439 22.6555 75.8437 23.0419L76.1437 23.042L76.4437 23.0421C76.4437 22.9869 76.4881 22.9426 76.5432 22.9426L76.5431 22.6426ZM76.1437 23.042H75.8437V31.7227H76.1437H76.4437V23.042H76.1437ZM76.1437 31.7227H75.8437C75.8437 32.1084 76.1557 32.4229 76.543 32.423L76.5431 32.123L76.5432 31.823C76.4888 31.823 76.4437 31.7787 76.4437 31.7227H76.1437ZM76.5431 32.123V32.423H82.4562V32.123V31.823H76.5431V32.123ZM82.4562 32.123L82.4562 32.423C84.1157 32.423 85.1897 31.7982 85.7325 30.792C86.2619 29.8105 86.2463 28.5365 85.9014 27.3021L85.6125 27.3828L85.3235 27.4635C85.6467 28.6201 85.631 29.7162 85.2044 30.5071C84.7911 31.2732 83.9529 31.823 82.4562 31.823L82.4562 32.123ZM85.6125 27.3828L85.9014 27.3021C85.3288 25.2529 84.6587 23.9928 84.1598 23.2641L83.9123 23.4336L83.6647 23.6031C84.1224 24.2715 84.7665 25.4703 85.3235 27.4636L85.6125 27.3828ZM83.9123 23.4336L84.1598 23.2641C83.7059 22.6012 82.9421 22.3426 82.2062 22.3426L82.2062 22.6426L82.2062 22.9426C82.8164 22.9426 83.3581 23.1553 83.6647 23.6031L83.9123 23.4336ZM82.2062 22.6426V22.3426H76.5431V22.6426V22.9426H82.2062V22.6426Z" fill="#313B58" mask="url(#path-10-outside-1_36008_3987)"/>
<path d="M82.4693 7.56141C94.5298 1.58684 104.908 0.224506 108.42 4.95692C113.3 11.5321 103.082 27.382 85.5972 40.3583C68.1123 53.3346 49.9818 58.5233 45.1021 51.9481C43.1172 49.273 43.6312 45.0628 46.1167 40.1356C44.5723 43.7434 44.3894 46.778 45.8746 48.7792C50.1457 54.534 66.5962 49.5598 82.6187 37.6688C98.6414 25.7777 108.168 11.4727 103.897 5.71766C101.013 1.83223 92.5772 2.83823 82.4693 7.56141Z" fill="#BFFF60"/>
<path d="M76.3867 2.98832L80.0236 7.28056L85.5372 6.16224L81.2449 9.79909L82.3632 15.3126L78.7264 11.0204L73.2128 12.1387L77.5051 8.50188L76.3867 2.98832Z" fill="#BFFF60"/>
<defs>
<filter id="filter0_f_36008_3987" x="0.167831" y="7.90723" width="154.147" height="39.0146" filterUnits="userSpaceOnUse" color-interpolation-filters="sRGB">
<feFlood flood-opacity="0" result="BackgroundImageFix"/>
<feBlend mode="normal" in="SourceGraphic" in2="BackgroundImageFix" result="shape"/>
<feGaussianBlur stdDeviation="5" result="effect1_foregroundBlur_36008_3987"/>
</filter>
</defs>
</svg>
