<svg width="129" height="55" viewBox="0 0 129 55" fill="none" xmlns="http://www.w3.org/2000/svg">
<rect x="19.9375" y="31.3418" width="2.84924" height="2.84924" fill="#7663F4"/>
<rect x="31.3164" y="31.3418" width="2.84924" height="2.84924" fill="#7663F4"/>
<rect x="34.1641" y="28.4922" width="2.84924" height="2.84924" fill="#7663F4"/>
<rect x="56.918" y="28.4922" width="2.84924" height="2.84924" fill="#7663F4"/>
<rect x="34.1641" y="31.3418" width="2.84924" height="2.84924" fill="#7663F4"/>
<rect x="56.918" y="31.3418" width="2.84924" height="2.84924" fill="#7663F4"/>
<rect x="34.1641" y="34.1904" width="2.84924" height="2.84924" fill="#7663F4"/>
<rect x="56.918" y="34.1904" width="2.84924" height="2.84924" fill="#7663F4"/>
<rect x="45.5469" y="17.0957" width="2.84924" height="2.84924" fill="#7663F4"/>
<rect x="31.3164" y="34.1914" width="2.84924" height="2.84924" fill="#7663F4"/>
<rect x="37.0039" y="28.4932" width="2.84924" height="2.84924" fill="#7663F4"/>
<rect x="37.0039" y="31.3418" width="2.84924" height="2.84924" fill="#7663F4"/>
<rect x="37.0039" y="25.6436" width="2.84924" height="2.84924" fill="#7663F4"/>
<rect x="54.0703" y="28.4932" width="2.84924" height="2.84924" fill="#7663F4"/>
<rect x="54.0703" y="31.3418" width="2.84924" height="2.84924" fill="#7663F4"/>
<rect x="54.0703" y="25.6436" width="2.84924" height="2.84924" fill="#7663F4"/>
<rect x="39.8516" y="25.6436" width="2.84924" height="2.84924" fill="#7663F4"/>
<rect x="39.8516" y="28.4922" width="2.84924" height="2.84924" fill="#7663F4"/>
<rect x="39.8516" y="22.7939" width="2.84924" height="2.84924" fill="#7663F4"/>
<rect x="42.6992" y="22.7939" width="2.84924" height="2.84924" fill="#7663F4"/>
<rect x="48.3711" y="22.7939" width="2.84924" height="2.84924" fill="#7663F4"/>
<rect x="51.2227" y="22.7939" width="2.84924" height="2.84924" fill="#7663F4"/>
<rect x="42.6992" y="25.6436" width="2.84924" height="2.84924" fill="#7663F4"/>
<rect x="48.3711" y="25.6436" width="2.84924" height="2.84924" fill="#7663F4"/>
<rect x="51.2227" y="25.6436" width="2.84924" height="2.84924" fill="#7663F4"/>
<rect x="51.2227" y="28.4922" width="2.84924" height="2.84924" fill="#7663F4"/>
<rect x="42.6992" y="19.9453" width="2.84924" height="2.84924" fill="#7663F4"/>
<rect x="48.3711" y="19.9453" width="2.84924" height="2.84924" fill="#7663F4"/>
<rect x="45.5469" y="19.9453" width="2.84924" height="2.84924" fill="#7663F4"/>
<rect x="45.5469" y="22.7939" width="2.84924" height="2.84924" fill="#7663F4"/>
<rect x="31.2773" y="45.6758" width="2.84924" height="2.84924" fill="#03E212"/>
<rect x="31.2773" y="45.6758" width="2.84924" height="2.84924" fill="#03E212"/>
<rect x="34.125" y="48.4365" width="2.84924" height="2.84924" fill="#03E212"/>
<rect x="31.2773" y="48.5244" width="2.84924" height="2.84924" fill="#03E212"/>
<rect x="31.2773" y="48.5244" width="2.84924" height="2.84924" fill="#03E212"/>
<rect x="48.3633" y="48.5244" width="2.84924" height="2.84924" fill="#03E212"/>
<rect x="51.207" y="48.5244" width="2.84924" height="2.84924" fill="#03E212"/>
<rect x="54.0547" y="45.6758" width="2.84924" height="5.69849" fill="#03E212"/>
<rect x="56.9023" y="45.6758" width="2.84924" height="2.84924" fill="#03E212"/>
<rect x="59.75" y="45.6758" width="2.84924" height="2.84924" fill="#03E212"/>
<rect x="59.75" y="42.8262" width="2.84924" height="2.84924" fill="#03E212"/>
<rect x="62.5977" y="42.8262" width="2.84924" height="2.84924" fill="#03E212"/>
<rect x="65.4453" y="42.8262" width="2.84924" height="2.84924" fill="#03E212"/>
<rect x="68.293" y="39.9775" width="2.84924" height="2.84924" fill="#03E212"/>
<rect x="65.4453" y="39.9775" width="2.84924" height="2.84924" fill="#03E212"/>
<rect x="68.293" y="37.1279" width="2.84924" height="2.84924" fill="#03E212"/>
<rect x="71.1406" y="37.1279" width="2.84924" height="2.84924" fill="#03E212"/>
<rect x="73.9883" y="37.1279" width="2.84924" height="2.84924" fill="#03E212"/>
<rect x="76.8281" y="34.2783" width="2.84924" height="2.84924" fill="#03E212"/>
<rect x="79.6758" y="31.3408" width="2.84924" height="2.84924" fill="#03E212"/>
<rect x="82.5234" y="28.4922" width="2.84924" height="2.84924" fill="#03E212"/>
<rect x="85.3711" y="25.6426" width="2.84924" height="2.84924" fill="#03E212"/>
<rect x="88.2188" y="22.7939" width="2.84924" height="2.84924" fill="#03E212"/>
<rect x="91.0547" y="19.9443" width="2.84924" height="2.84924" fill="#03E212"/>
<rect x="73.9883" y="34.2783" width="2.84924" height="2.84924" fill="#03E212"/>
<rect x="76.8281" y="31.4297" width="2.84924" height="2.84924" fill="#03E212"/>
<rect x="79.6758" y="28.4922" width="2.84924" height="2.84924" fill="#03E212"/>
<rect x="82.5234" y="25.6426" width="2.84924" height="2.84924" fill="#03E212"/>
<rect x="85.3711" y="22.7939" width="2.84924" height="2.84924" fill="#03E212"/>
<rect x="88.2188" y="19.9443" width="2.84924" height="2.84924" fill="#03E212"/>
<rect x="91.0547" y="17.0957" width="2.84924" height="2.84924" fill="#03E212"/>
<rect x="91.0547" y="14.2461" width="2.84924" height="2.84924" fill="#03E212"/>
<rect x="93.9023" y="14.2461" width="2.84924" height="2.84924" fill="#03E212"/>
<rect x="93.9023" y="11.3975" width="2.84924" height="2.84924" fill="#03E212"/>
<rect x="93.9023" y="8.54785" width="2.84924" height="2.84924" fill="#03E212"/>
<rect x="93.9023" y="5.69922" width="2.84924" height="2.84924" fill="#03E212"/>
<rect x="93.9023" y="2.84961" width="2.84924" height="2.84924" fill="#03E212"/>
<rect x="91.2773" y="2.84961" width="2.84924" height="2.84924" fill="#03E212"/>
<rect x="88.4297" y="2.84961" width="2.84924" height="2.84924" fill="#03E212"/>
<rect x="85.582" width="2.84924" height="2.84924" fill="#03E212"/>
<rect x="65.4531" y="5.69922" width="2.84924" height="2.84924" fill="#03E212"/>
<rect x="65.4531" y="2.84961" width="2.84924" height="2.84924" fill="#03E212"/>
<rect x="65.4531" y="8.54785" width="2.84924" height="2.84924" fill="#03E212"/>
<rect x="62.6055" y="8.54785" width="2.84924" height="2.84924" fill="#03E212"/>
<rect x="68.2969" y="5.69922" width="2.84924" height="2.84924" fill="#03E212"/>
<rect x="71.1406" y="5.69922" width="2.84924" height="2.84924" fill="#03E212"/>
<rect x="68.2969" y="8.54785" width="2.84924" height="2.84924" fill="#03E212"/>
<rect x="68.2969" y="11.3975" width="2.84924" height="2.84924" fill="#03E212"/>
<rect x="34.125" y="51.2861" width="17.0859" height="2.84924" fill="#03E212"/>
<rect x="62.9375" y="17" width="6" height="20" fill="#7663F4"/>
<rect x="68.0672" y="17.0957" width="3" height="4" fill="#7663F4"/>
<rect x="71.0672" y="17.0957" width="3" height="4" fill="#7663F4"/>
<rect x="73.9375" y="18" width="3" height="3" fill="#7663F4"/>
<rect x="75.9375" y="20" width="4" height="5" fill="#7663F4"/>
<rect x="82.5352" y="19.9443" width="2.84924" height="2.84924" fill="#7663F4"/>
<rect x="75.9375" y="25" width="2.84924" height="2.84924" fill="#7663F4"/>
<rect x="85.3711" y="17.0957" width="2.84924" height="2.84924" fill="#7663F4"/>
<rect x="96.7734" y="19.9443" width="2.84924" height="2.84924" fill="#7663F4"/>
<rect x="96.7734" y="25.6426" width="2.84924" height="2.84924" fill="#7663F4"/>
<rect x="96.7734" y="28.4922" width="2.84924" height="2.84924" fill="#7663F4"/>
<rect x="96.7734" y="31.3408" width="2.84924" height="2.84924" fill="#7663F4"/>
<rect x="91.0781" y="31.3408" width="2.84924" height="2.84924" fill="#7663F4"/>
<rect x="84.9375" y="34" width="14" height="3" fill="#7663F4"/>
<rect x="99.6211" y="19.9443" width="2.84924" height="2.84924" fill="#7663F4"/>
<rect x="108.172" y="17.0957" width="2.84924" height="19.9447" fill="#7663F4"/>
<rect x="111.008" y="17.0957" width="2.84924" height="8.54773" fill="#7663F4"/>
<rect x="113.855" y="19.9443" width="2.84924" height="8.54773" fill="#7663F4"/>
<rect x="116.691" y="22.7939" width="2.84924" height="8.54749" fill="#7663F4"/>
<rect x="119.539" y="25.6426" width="2.84924" height="8.54749" fill="#7663F4"/>
<rect x="122.383" y="28.4922" width="2.84924" height="5.69824" fill="#7663F4"/>
<rect x="122.383" y="34.1904" width="2.84924" height="2.84949" fill="#7663F4"/>
<rect x="125.23" y="34.1904" width="2.84924" height="2.84949" fill="#7663F4"/>
<rect x="125.23" y="31.3408" width="2.84924" height="2.84949" fill="#7663F4"/>
<rect x="93.9258" y="25.6426" width="2.84924" height="2.84924" fill="#7663F4"/>
<rect x="99.6211" y="25.6426" width="2.84924" height="2.84924" fill="#7663F4"/>
<rect x="99.6211" y="28.4922" width="2.84924" height="2.84924" fill="#7663F4"/>
<rect x="105.324" y="19.9443" width="2.84924" height="17.0955" fill="#7663F4"/>
<rect x="93.9258" y="31.3408" width="2.84924" height="2.84924" fill="#7663F4"/>
<rect x="99.6211" y="31.3408" width="2.84924" height="2.84924" fill="#7663F4"/>
<rect x="88.2305" y="31.3408" width="2.84924" height="2.84924" fill="#7663F4"/>
<rect x="67.9375" y="31" width="6" height="3" fill="#7663F4"/>
<rect x="67.9375" y="34" width="3" height="3" fill="#7663F4"/>
<rect x="19.9375" y="34.1914" width="2.84924" height="2.84924" fill="#7663F4"/>
<rect y="30.0752" width="2.84924" height="4.11557" fill="#7663F4"/>
<rect x="34.1602" y="17.0957" width="2.84924" height="2.84924" fill="#7663F4"/>
<rect x="37.0078" y="17.0957" width="2.84924" height="2.84924" fill="#7663F4"/>
<rect x="39.8516" y="17.0957" width="2.84924" height="2.84924" fill="#7663F4"/>
<rect x="37.0078" y="19.9453" width="2.84924" height="2.84924" fill="#7663F4"/>
<rect y="34.1914" width="2.84924" height="2.84924" fill="#7663F4"/>
<rect x="25.625" y="25.6436" width="2.84924" height="2.84924" fill="#7663F4"/>
<rect x="28.4727" y="25.6436" width="2.84924" height="2.84924" fill="#7663F4"/>
<rect x="31.3203" y="25.6436" width="2.84924" height="2.84924" fill="#7663F4"/>
<rect x="22.7773" y="31.3418" width="2.84924" height="2.84924" fill="#7663F4"/>
<rect x="25.625" y="31.3418" width="2.84924" height="2.84924" fill="#7663F4"/>
<rect x="22.7773" y="28.4922" width="2.84924" height="2.84924" fill="#7663F4"/>
<rect x="25.625" y="28.4922" width="2.84924" height="2.84924" fill="#7663F4"/>
<rect x="28.4727" y="28.4922" width="2.84924" height="2.84924" fill="#7663F4"/>
<rect x="22.7773" y="34.1914" width="2.84924" height="2.84924" fill="#7663F4"/>
<rect x="28.4727" y="22.7939" width="2.84924" height="2.84924" fill="#7663F4"/>
<rect x="31.3203" y="22.7939" width="2.84924" height="2.84924" fill="#7663F4"/>
<rect x="34.168" y="22.7939" width="2.84924" height="2.84924" fill="#7663F4"/>
<rect x="31.3203" y="19.9453" width="2.84924" height="2.84924" fill="#7663F4"/>
<rect x="34.168" y="19.9453" width="2.84924" height="2.84924" fill="#7663F4"/>
<rect x="2.84766" y="30.0752" width="2.84924" height="3.48241" fill="#7663F4"/>
<rect x="2.84766" y="33.5576" width="2.84924" height="3.48241" fill="#7663F4"/>
<rect x="2.84766" y="26.5928" width="2.84924" height="3.48241" fill="#7663F4"/>
<rect x="5.69531" y="26.5928" width="2.84924" height="3.79899" fill="#7663F4"/>
<rect x="5.69531" y="30.3916" width="2.84924" height="3.79899" fill="#7663F4"/>
<rect x="5.69531" y="22.7939" width="2.84924" height="3.79899" fill="#7663F4"/>
<rect x="8.54297" y="23.7441" width="2.84924" height="3.79899" fill="#7663F4"/>
<rect x="8.54297" y="27.543" width="2.84924" height="3.79899" fill="#7663F4"/>
<rect x="8.54297" y="19.9453" width="2.84924" height="3.79899" fill="#7663F4"/>
<rect x="11.3906" y="22.7939" width="2.84924" height="5.69849" fill="#7663F4"/>
<rect x="11.3906" y="17.0957" width="2.84924" height="5.69849" fill="#7663F4"/>
<rect x="14.2383" y="21.3691" width="2.84924" height="4.27386" fill="#7663F4"/>
<rect x="14.2383" y="17.0957" width="2.84924" height="4.27386" fill="#7663F4"/>
<rect x="17.0859" y="17.0957" width="2.84924" height="19.9447" fill="#7663F4"/>
<rect x="19.9297" y="17.0957" width="2.84924" height="19.9447" fill="#7663F4"/>
</svg>
