<svg width="431" height="680" viewBox="0 0 431 680" fill="none" xmlns="http://www.w3.org/2000/svg">
  <ellipse cx="132" cy="632.5" rx="102" ry="16.5" fill="#836EF9"/>
  <mask id="path-2-inside-1_31843_1291" fill="white">
  <path fill-rule="evenodd" clip-rule="evenodd" d="M256.677 35.2838C265.378 32.3101 281.01 31.6478 296.631 35.8335C312.369 40.0505 325.709 48.5483 331.727 55.512C320.015 50.5585 307.505 46.1749 294.482 42.6856C281.747 39.2731 269.019 36.8493 256.677 35.2838Z"/>
  </mask>
  <path fill-rule="evenodd" clip-rule="evenodd" d="M256.677 35.2838C265.378 32.3101 281.01 31.6478 296.631 35.8335C312.369 40.0505 325.709 48.5483 331.727 55.512C320.015 50.5585 307.505 46.1749 294.482 42.6856C281.747 39.2731 269.019 36.8493 256.677 35.2838Z" fill="#37305C"/>
  <path d="M256.677 35.2838L256.516 34.8106L256.614 35.7798L256.677 35.2838ZM331.727 55.512L331.533 55.9725L332.106 55.1851L331.727 55.512ZM296.761 35.3506C281.066 31.1451 265.33 31.7981 256.516 34.8106L256.839 35.7569C265.426 32.8221 280.954 32.1504 296.502 36.3165L296.761 35.3506ZM332.106 55.1851C326.008 48.129 312.572 39.5871 296.761 35.3506L296.502 36.3165C312.166 40.5138 325.411 48.9675 331.349 55.839L332.106 55.1851ZM331.922 55.0515C320.189 50.0895 307.658 45.6982 294.612 42.2026L294.353 43.1686C307.352 46.6515 319.84 51.0274 331.533 55.9725L331.922 55.0515ZM294.612 42.2026C281.853 38.784 269.103 36.356 256.74 34.7877L256.614 35.7798C268.935 37.3427 281.641 39.7622 294.353 43.1686L294.612 42.2026Z" fill="black" mask="url(#path-2-inside-1_31843_1291)"/>
  <path d="M294.716 43.0054C330.085 52.4825 361.538 68.7127 383.485 85.0308C394.46 93.1905 403.048 101.366 408.561 108.722C411.317 112.399 413.299 115.865 414.428 119.016C415.52 122.061 415.806 124.797 415.244 127.143L148.45 54.9131C149.135 52.6016 150.749 50.3866 153.212 48.3133C155.759 46.1685 159.202 44.1848 163.419 42.4103C171.854 38.8614 183.356 36.1627 196.917 34.6698C224.036 31.6844 259.346 33.528 294.716 43.0054Z" fill="#7370C8" stroke="black" stroke-width="0.5"/>
  <path d="M294.097 52.2358C237.276 37.0106 193.723 36.481 179.049 38.1193C194.399 37.6524 238.751 40.3765 293.355 55.0076C347.959 69.6387 385.42 88.8364 397.326 96.6064C386.592 88.1601 350.919 67.461 294.097 52.2358Z" fill="#423B6B"/>
  <path d="M289.517 62.4077C326.435 72.3 358.968 84.5489 381.722 96.3526C393.1 102.255 402.021 108.041 407.821 113.356C410.721 116.014 412.831 118.545 414.08 120.905C415.329 123.263 415.71 125.433 415.186 127.387C414.663 129.34 413.248 131.028 410.988 132.446C408.726 133.865 405.633 135.002 401.792 135.854C394.112 137.557 383.494 138.107 370.688 137.53C345.081 136.375 310.782 130.717 273.864 120.825C236.945 110.932 204.412 98.6832 181.658 86.8794C170.28 80.9766 161.359 75.1915 155.559 69.8762C152.659 67.2184 150.549 64.6869 149.3 62.3271C148.052 59.969 147.67 57.7997 148.194 55.8462C148.717 53.8926 150.132 52.204 152.392 50.786C154.654 49.367 157.747 48.2295 161.588 47.3779C169.268 45.6748 179.886 45.1248 192.692 45.7021C218.299 46.8565 252.598 52.5154 289.517 62.4077Z" fill="#2B2649" stroke="black" stroke-width="0.5"/>
  <path d="M288.588 65.872C323.976 75.3543 355.197 86.9612 377.065 98.0578C388.002 103.607 396.587 109.023 402.185 113.974C404.984 116.449 407.025 118.8 408.242 120.982C409.459 123.164 409.842 125.158 409.364 126.941C408.887 128.723 407.558 130.258 405.414 131.539C403.268 132.82 400.325 133.835 396.663 134.58C389.34 136.069 379.197 136.466 366.951 135.803C342.464 134.479 309.623 128.921 274.235 119.438C238.847 109.956 207.626 98.3492 185.757 87.2526C174.821 81.7034 166.235 76.2878 160.638 71.3368C157.839 68.8611 155.798 66.5108 154.58 64.3281C153.364 62.1467 152.981 60.1532 153.458 58.3708C153.936 56.5883 155.265 55.0528 157.409 53.7718C159.555 52.4902 162.497 51.4753 166.159 50.7307C173.482 49.2419 183.626 48.8447 195.871 49.507C220.358 50.8314 253.2 56.3898 288.588 65.872Z" fill="#1F1B35" stroke="black" stroke-width="0.5"/>
  <path d="M285.803 76.266C313.347 83.6465 337.706 92.4584 354.821 100.737C363.381 104.877 370.117 108.878 374.533 112.493C376.742 114.3 378.359 116.002 379.335 117.566C380.312 119.13 380.632 120.53 380.304 121.753C379.976 122.976 378.999 124.028 377.371 124.894C375.744 125.76 373.493 126.426 370.676 126.887C365.044 127.81 357.21 127.906 347.727 127.212C328.766 125.823 303.265 121.275 275.72 113.895C248.176 106.514 223.817 97.7024 206.702 89.4242C198.143 85.2842 191.406 81.2835 186.99 77.6688C184.781 75.8611 183.165 74.159 182.188 72.595C181.212 71.0308 180.892 69.632 181.219 68.4086C181.547 67.1851 182.524 66.133 184.152 65.2666C185.78 64.4004 188.031 63.7355 190.847 63.2743C196.479 62.3521 204.313 62.2546 213.796 62.949C232.757 64.3375 258.259 68.8856 285.803 76.266Z" fill="#423B6B" stroke="black" stroke-width="0.5"/>
  <path d="M285.803 76.266C313.347 83.6465 337.706 92.4584 354.821 100.737C363.381 104.877 370.117 108.878 374.533 112.493C376.742 114.3 378.359 116.002 379.335 117.566C380.312 119.13 380.632 120.53 380.304 121.753C379.976 122.976 378.999 124.028 377.371 124.894C375.744 125.76 373.493 126.426 370.676 126.887C365.044 127.81 357.21 127.906 347.727 127.212C328.766 125.823 303.265 121.275 275.72 113.895C248.176 106.514 223.817 97.7024 206.702 89.4242C198.143 85.2842 191.406 81.2835 186.99 77.6688C184.781 75.8611 183.165 74.159 182.188 72.595C181.212 71.0308 180.892 69.632 181.219 68.4086C181.547 67.1851 182.524 66.133 184.152 65.2666C185.78 64.4004 188.031 63.7355 190.847 63.2743C196.479 62.3521 204.313 62.2546 213.796 62.949C232.757 64.3375 258.259 68.8856 285.803 76.266Z" fill="#423B6B" stroke="black" stroke-width="0.5"/>
  <mask id="path-10-inside-2_31843_1291" fill="white">
  <path fill-rule="evenodd" clip-rule="evenodd" d="M275.519 111.873C314.172 122.23 347.127 124.576 349.127 117.114C351.126 109.651 321.413 95.2054 282.76 84.8484C244.107 74.4913 211.152 72.145 209.152 79.6077C207.153 87.0704 236.866 101.516 275.519 111.873ZM275.891 110.488C310.717 119.82 340.403 121.955 342.198 115.258C343.992 108.561 317.215 95.5667 282.389 86.2351C247.563 76.9036 217.877 74.7681 216.082 81.4653C214.288 88.1626 241.065 101.157 275.891 110.488Z"/>
  </mask>
  <path fill-rule="evenodd" clip-rule="evenodd" d="M275.519 111.873C314.172 122.23 347.127 124.576 349.127 117.114C351.126 109.651 321.413 95.2054 282.76 84.8484C244.107 74.4913 211.152 72.145 209.152 79.6077C207.153 87.0704 236.866 101.516 275.519 111.873ZM275.891 110.488C310.717 119.82 340.403 121.955 342.198 115.258C343.992 108.561 317.215 95.5667 282.389 86.2351C247.563 76.9036 217.877 74.7681 216.082 81.4653C214.288 88.1626 241.065 101.157 275.891 110.488Z" fill="#A5FFFD" fill-opacity="0.22"/>
  <path d="M348.644 116.984C348.443 117.735 347.838 118.423 346.738 119.016C345.638 119.609 344.095 120.077 342.135 120.407C338.217 121.065 332.747 121.15 326.103 120.677C312.823 119.732 294.954 116.563 275.648 111.39L275.389 112.356C294.737 117.54 312.672 120.723 326.032 121.675C332.708 122.15 338.269 122.07 342.3 121.393C344.315 121.054 345.977 120.562 347.212 119.896C348.448 119.23 349.311 118.358 349.61 117.243L348.644 116.984ZM282.631 85.3313C301.936 90.5042 318.996 96.6949 330.97 102.516C336.96 105.429 341.654 108.237 344.718 110.766C346.251 112.031 347.353 113.208 348.009 114.272C348.665 115.336 348.845 116.234 348.644 116.984L349.61 117.243C349.908 116.128 349.597 114.942 348.86 113.747C348.123 112.552 346.93 111.295 345.354 109.995C342.201 107.392 337.426 104.543 331.407 101.617C319.36 95.7602 302.237 89.5495 282.89 84.3654L282.631 85.3313ZM209.635 79.7371C209.836 78.9864 210.441 78.299 211.541 77.7056C212.642 77.1123 214.184 76.6442 216.144 76.3149C220.062 75.6568 225.532 75.5713 232.176 76.0444C245.456 76.9899 263.325 80.1585 282.631 85.3313L282.89 84.3654C263.542 79.1812 245.608 75.9982 232.247 75.0469C225.571 74.5716 220.01 74.6515 215.979 75.3287C213.965 75.667 212.302 76.1591 211.067 76.8254C209.831 77.4917 208.968 78.3634 208.669 79.4783L209.635 79.7371ZM275.648 111.39C256.343 106.217 239.283 100.027 227.31 94.2054C221.319 91.2929 216.625 88.4842 213.561 85.9554C212.028 84.69 210.926 83.5134 210.27 82.4495C209.614 81.3854 209.434 80.4879 209.635 79.7371L208.669 79.4783C208.371 80.5932 208.682 81.7796 209.419 82.9744C210.156 84.1693 211.349 85.4266 212.925 86.7267C216.078 89.329 220.853 92.1783 226.872 95.1047C238.919 100.961 256.042 107.172 275.389 112.356L275.648 111.39ZM341.715 115.128C341.54 115.783 341.009 116.39 340.025 116.918C339.042 117.446 337.659 117.864 335.896 118.157C332.373 118.743 327.451 118.816 321.467 118.385C309.508 117.525 293.412 114.665 276.02 110.005L275.761 110.971C293.195 115.642 309.356 118.516 321.395 119.383C327.411 119.815 332.423 119.749 336.06 119.143C337.876 118.841 339.379 118.4 340.498 117.799C341.617 117.199 342.407 116.407 342.681 115.387L341.715 115.128ZM282.26 86.7181C299.652 91.3782 315.021 96.9497 325.808 102.184C331.205 104.803 335.432 107.327 338.189 109.596C339.57 110.732 340.558 111.785 341.146 112.734C341.735 113.683 341.89 114.474 341.715 115.128L342.681 115.387C342.954 114.367 342.665 113.287 341.997 112.207C341.328 111.128 340.247 109.994 338.825 108.824C335.978 106.481 331.67 103.918 326.244 101.285C315.385 96.0149 299.953 90.4236 282.519 85.7522L282.26 86.7181ZM216.565 81.5947C216.741 80.9404 217.271 80.3334 218.255 79.8053C219.238 79.2772 220.621 78.8596 222.384 78.5662C225.907 77.9798 230.829 77.9077 236.813 78.3381C248.772 79.1984 264.868 82.0579 282.26 86.7181L282.519 85.7522C265.085 81.0807 248.924 78.2068 236.885 77.3407C230.869 76.908 225.857 76.9745 222.22 77.5797C220.404 77.8821 218.901 78.3235 217.782 78.9241C216.663 79.5247 215.873 80.3159 215.599 81.3359L216.565 81.5947ZM276.02 110.005C258.628 105.345 243.259 99.7735 232.472 94.539C227.075 91.92 222.848 89.3964 220.091 87.1272C218.71 85.9915 217.722 84.9384 217.134 83.9892C216.545 83.0398 216.39 82.2491 216.565 81.5947L215.599 81.3359C215.326 82.3559 215.615 83.4362 216.283 84.5158C216.952 85.5956 218.033 86.7293 219.455 87.8994C222.302 90.2418 226.61 92.8057 232.036 95.4387C242.895 100.708 258.327 106.3 275.761 110.971L276.02 110.005Z" fill="black" mask="url(#path-10-inside-2_31843_1291)"/>
  <mask id="path-12-inside-3_31843_1291" fill="white">
  <path fill-rule="evenodd" clip-rule="evenodd" d="M380.054 122.928C374.244 132.073 328.728 128.358 275.656 114.138C222.588 99.9184 181.316 80.3805 180.849 69.5549C180.617 69.9407 180.443 70.3457 180.329 70.77C177.253 82.251 219.434 103.529 274.543 118.295C329.652 133.062 376.82 135.725 379.897 124.244C380.01 123.819 380.062 123.38 380.054 122.928Z"/>
  </mask>
  <path fill-rule="evenodd" clip-rule="evenodd" d="M380.054 122.928C374.244 132.073 328.728 128.358 275.656 114.138C222.588 99.9184 181.316 80.3805 180.849 69.5549C180.617 69.9407 180.443 70.3457 180.329 70.77C177.253 82.251 219.434 103.529 274.543 118.295C329.652 133.062 376.82 135.725 379.897 124.244C380.01 123.819 380.062 123.38 380.054 122.928Z" fill="#1B1637"/>
  <path d="M380.054 122.928L380.554 122.919L380.522 121.259L379.632 122.66L380.054 122.928ZM180.849 69.5549L181.348 69.5333L181.277 67.8751L180.421 69.297L180.849 69.5549ZM379.632 122.66C378.987 123.676 377.752 124.566 375.894 125.294C374.044 126.019 371.627 126.561 368.694 126.916C362.828 127.626 354.973 127.577 345.62 126.797C326.918 125.237 302.301 120.76 275.785 113.655L275.526 114.621C302.083 121.737 326.76 126.227 345.537 127.794C354.922 128.576 362.853 128.63 368.814 127.909C371.794 127.549 374.301 126.992 376.259 126.225C378.209 125.461 379.668 124.467 380.476 123.197L379.632 122.66ZM275.785 113.655C249.272 106.551 225.717 98.1206 208.741 90.1214C200.25 86.1206 193.423 82.2358 188.697 78.6886C186.334 76.9145 184.512 75.2365 183.271 73.6834C182.025 72.1241 181.4 70.7355 181.348 69.5333L180.349 69.5765C180.414 71.0807 181.182 72.6708 182.49 74.3076C183.803 75.9506 185.696 77.6862 188.097 79.4883C192.9 83.0934 199.795 87.0116 208.314 91.026C225.358 99.0569 248.972 107.506 275.526 114.621L275.785 113.655ZM180.812 70.8994C180.913 70.522 181.068 70.1601 181.277 69.8129L180.421 69.297C180.165 69.7212 179.972 70.1693 179.846 70.6406L180.812 70.8994ZM274.672 117.812C247.14 110.435 222.852 101.435 205.841 92.8542C197.333 88.5619 190.669 84.3865 186.332 80.5868C184.163 78.6862 182.597 76.8982 181.669 75.2566C180.742 73.6171 180.473 72.1661 180.812 70.8994L179.846 70.6406C179.416 72.2441 179.792 73.9696 180.798 75.7488C181.803 77.5261 183.459 79.3995 185.673 81.3389C190.102 85.2192 196.851 89.4389 205.391 93.747C222.479 102.367 246.836 111.389 274.413 118.778L274.672 117.812ZM379.414 124.115C379.074 125.381 378.115 126.503 376.493 127.46C374.868 128.417 372.619 129.183 369.79 129.744C364.134 130.866 356.275 131.15 346.76 130.613C327.738 129.539 302.204 125.189 274.672 117.812L274.413 118.778C301.991 126.168 327.595 130.533 346.704 131.612C356.254 132.151 364.208 131.871 369.984 130.725C372.871 130.152 375.242 129.358 377.001 128.321C378.762 127.283 379.95 125.977 380.379 124.373L379.414 124.115ZM379.554 122.938C379.562 123.344 379.515 123.736 379.414 124.115L380.379 124.373C380.506 123.901 380.563 123.415 380.554 122.919L379.554 122.938Z" fill="black" mask="url(#path-12-inside-3_31843_1291)"/>
  <path d="M280.579 97.1476C289.658 99.5802 297.684 102.478 303.32 105.194C306.14 106.553 308.35 107.861 309.794 109.036C310.516 109.623 311.035 110.168 311.344 110.659C311.654 111.151 311.736 111.559 311.646 111.897C311.555 112.234 311.279 112.548 310.766 112.819C310.253 113.089 309.531 113.302 308.611 113.449C306.774 113.745 304.206 113.773 301.084 113.54C294.845 113.074 286.445 111.57 277.367 109.138C268.288 106.705 260.262 103.807 254.626 101.091C251.806 99.7321 249.596 98.4239 248.152 97.2495C247.43 96.6617 246.911 96.1169 246.602 95.6259C246.292 95.1344 246.209 94.7251 246.3 94.3873C246.39 94.0497 246.667 93.7374 247.18 93.4667C247.694 93.196 248.415 92.9837 249.335 92.8359C251.172 92.5406 253.74 92.5126 256.862 92.7457C263.101 93.2117 271.501 94.715 280.579 97.1476Z" fill="#E5FFFE" stroke="black" stroke-width="0.5"/>
  <mask id="path-15-inside-4_31843_1291" fill="white">
  <path fill-rule="evenodd" clip-rule="evenodd" d="M311.444 110.358C307.374 112.245 293.71 110.806 278.045 106.608C262.38 102.411 249.826 96.8246 247.245 93.1561C246.592 93.4588 246.186 93.8471 246.058 94.3234C245.135 97.7677 259.124 104.508 277.302 109.379C295.48 114.25 310.965 115.407 311.888 111.962C312.016 111.486 311.858 110.947 311.444 110.358Z"/>
  </mask>
  <path fill-rule="evenodd" clip-rule="evenodd" d="M311.444 110.358C307.374 112.245 293.71 110.806 278.045 106.608C262.38 102.411 249.826 96.8246 247.245 93.1561C246.592 93.4588 246.186 93.8471 246.058 94.3234C245.135 97.7677 259.124 104.508 277.302 109.379C295.48 114.25 310.965 115.407 311.888 111.962C312.016 111.486 311.858 110.947 311.444 110.358Z" fill="#A5FFFD"/>
  <path d="M311.444 110.358L311.853 110.071L311.613 109.729L311.234 109.905L311.444 110.358ZM247.245 93.1561L247.654 92.8684L247.414 92.5269L247.035 92.7025L247.245 93.1561ZM311.234 109.905C310.312 110.332 308.779 110.594 306.696 110.659C304.629 110.723 302.074 110.59 299.147 110.268C293.294 109.622 285.988 108.219 278.174 106.125L277.916 107.091C285.767 109.195 293.125 110.61 299.038 111.262C301.994 111.588 304.598 111.724 306.727 111.658C308.84 111.593 310.541 111.328 311.654 110.812L311.234 109.905ZM278.174 106.125C270.361 104.032 263.331 101.594 257.94 99.226C255.243 98.042 252.965 96.8792 251.207 95.7903C249.435 94.693 248.239 93.6994 247.654 92.8684L246.836 93.4438C247.542 94.4471 248.883 95.5275 250.68 96.6405C252.491 97.7619 254.815 98.9459 257.537 100.142C262.984 102.534 270.064 104.987 277.916 107.091L278.174 106.125ZM246.541 94.4528C246.614 94.1819 246.865 93.8836 247.455 93.6098L247.035 92.7025C246.319 93.034 245.758 93.5123 245.575 94.194L246.541 94.4528ZM277.431 108.896C268.363 106.466 260.353 103.573 254.734 100.866C251.921 99.5105 249.732 98.2126 248.31 97.0561C247.598 96.4768 247.102 95.9517 246.813 95.493C246.524 95.0336 246.476 94.6977 246.541 94.4528L245.575 94.194C245.41 94.8101 245.597 95.4383 245.967 96.0259C246.338 96.6141 246.925 97.2188 247.679 97.8318C249.189 99.0602 251.459 100.398 254.3 101.767C259.99 104.509 268.063 107.421 277.173 109.862L277.431 108.896ZM311.405 111.833C311.339 112.078 311.13 112.345 310.649 112.598C310.17 112.851 309.478 113.057 308.572 113.203C306.762 113.494 304.217 113.523 301.103 113.29C294.884 112.826 286.5 111.326 277.431 108.896L277.173 109.862C286.283 112.303 294.73 113.817 301.029 114.288C304.174 114.523 306.808 114.499 308.73 114.19C309.689 114.036 310.501 113.807 311.116 113.482C311.73 113.159 312.206 112.708 312.371 112.092L311.405 111.833ZM311.035 110.646C311.41 111.178 311.478 111.562 311.405 111.833L312.371 112.092C312.553 111.41 312.307 110.715 311.853 110.071L311.035 110.646Z" fill="black" mask="url(#path-15-inside-4_31843_1291)"/>
  <path d="M166.875 59.997C167.42 60.143 167.871 60.3832 168.162 60.6412C168.466 60.9103 168.538 61.1412 168.499 61.2874C168.46 61.4336 168.282 61.5975 167.884 61.6788C167.503 61.7568 166.992 61.739 166.447 61.5931C165.903 61.4471 165.451 61.207 165.16 60.9489C164.857 60.6798 164.785 60.449 164.824 60.3027C164.863 60.1564 165.041 59.9926 165.438 59.9113C165.819 59.8333 166.33 59.8511 166.875 59.997Z" fill="#D9D9D9" stroke="black" stroke-width="0.5"/>
  <path d="M201.957 53.8006C202.501 53.9466 202.953 54.1867 203.244 54.4448C203.547 54.7139 203.62 54.9448 203.58 55.091C203.541 55.2372 203.363 55.4011 202.966 55.4824C202.585 55.5604 202.074 55.5426 201.529 55.3967C200.984 55.2507 200.533 55.0106 200.242 54.7525C199.938 54.4834 199.866 54.2526 199.905 54.1063C199.945 53.96 200.122 53.7962 200.52 53.7149C200.901 53.6369 201.412 53.6547 201.957 53.8006Z" fill="#D9D9D9" stroke="black" stroke-width="0.5"/>
  <path d="M259.063 62.4176C259.608 62.5635 260.059 62.8037 260.35 63.0618C260.654 63.3308 260.726 63.5617 260.687 63.708C260.648 63.8542 260.47 64.018 260.072 64.0994C259.691 64.1774 259.18 64.1595 258.635 64.0136C258.091 63.8677 257.639 63.6275 257.348 63.3694C257.045 63.1003 256.973 62.8695 257.012 62.7232C257.051 62.577 257.229 62.4132 257.626 62.3318C258.007 62.2538 258.518 62.2716 259.063 62.4176Z" fill="#D9D9D9" stroke="black" stroke-width="0.5"/>
  <path d="M311.726 76.5294C312.271 76.6754 312.722 76.9156 313.014 77.1736C313.317 77.4427 313.389 77.6736 313.35 77.8198C313.311 77.966 313.133 78.1299 312.735 78.2112C312.354 78.2892 311.843 78.2714 311.299 78.1255C310.754 77.9795 310.302 77.7394 310.011 77.4813C309.708 77.2122 309.636 76.9814 309.675 76.8351C309.714 76.6888 309.892 76.525 310.289 76.4437C310.67 76.3657 311.182 76.3835 311.726 76.5294Z" fill="#D9D9D9" stroke="black" stroke-width="0.5"/>
  <path d="M361.52 95.8115C362.064 95.9575 362.516 96.1977 362.807 96.4557C363.11 96.7248 363.183 96.9557 363.143 97.1019C363.104 97.2482 362.926 97.412 362.529 97.4934C362.148 97.5713 361.637 97.5535 361.092 97.4076C360.547 97.2616 360.096 97.0215 359.805 96.7634C359.501 96.4943 359.429 96.2635 359.468 96.1172C359.508 95.9709 359.685 95.8071 360.083 95.7258C360.464 95.6478 360.975 95.6656 361.52 95.8115Z" fill="#D9D9D9" stroke="black" stroke-width="0.5"/>
  <path d="M392.503 115.997C393.048 116.143 393.499 116.383 393.79 116.641C394.094 116.91 394.166 117.141 394.127 117.287C394.088 117.433 393.91 117.597 393.512 117.679C393.131 117.757 392.62 117.739 392.075 117.593C391.531 117.447 391.079 117.207 390.788 116.949C390.485 116.68 390.413 116.449 390.452 116.303C390.491 116.156 390.669 115.992 391.066 115.911C391.447 115.833 391.958 115.851 392.503 115.997Z" fill="#D9D9D9" stroke="black" stroke-width="0.5"/>
  <path opacity="0.3" d="M27.3551 600.95L247.376 93.5626C247.376 93.5626 254.219 90.1974 280.724 97.2994C307.229 104.401 311.473 110.737 311.473 110.737L236.221 613.407C222.924 622.841 196.345 635.394 130.688 635.394C76.1669 635.394 27.3547 613.408 27.3551 600.95Z" fill="url(#paint0_linear_31843_1291)"/>
  <defs>
  <linearGradient id="paint0_linear_31843_1291" x1="282.265" y1="104.024" x2="119.695" y2="615.607" gradientUnits="userSpaceOnUse">
  <stop stop-color="#A5FFFD"/>
  <stop offset="1" stop-color="#A5FFFD" stop-opacity="0"/>
  </linearGradient>
  </defs>
  </svg>
  