<svg width="129" height="26" viewBox="0 0 129 26" fill="none" xmlns="http://www.w3.org/2000/svg">
  <path d="M32.5031 20.6924V10.0041H28.2754V8.20703H38.7685V10.0041H34.5218V20.6924H32.5031Z" fill="white"/>
  <path d="M41.6064 20.6924V8.20703H43.6251V20.6924H41.6064Z" fill="white"/>
  <path d="M59.0029 8H59.6885V20.6934H57.6699V12.8617L54.0706 17.5531H53.385L49.7667 12.8428V20.6934H47.748V8H48.4527L53.7278 14.9804L59.0029 8Z" fill="white"/>
  <path d="M63.8008 20.6924V8.20703H72.0658V10.0041H65.8194V13.2012H70.5233V14.9416H65.8194V18.8952H72.2943V20.6924H63.8008Z" fill="white"/>
  <path d="M74.7002 18.1963L76.1285 17.118C77.0426 18.4423 78.1408 19.1044 79.4231 19.1044C80.0705 19.1044 80.5911 18.9467 80.9847 18.6314C81.3909 18.3161 81.594 17.8936 81.594 17.364C81.594 16.9352 81.4608 16.601 81.1941 16.3613C80.9275 16.1092 80.4451 15.8191 79.7468 15.4912L78.3566 14.848C77.379 14.4066 76.6427 13.9211 76.1476 13.3913C75.6651 12.8491 75.4238 12.1806 75.4238 11.3862C75.4238 10.3899 75.8047 9.57642 76.5665 8.94582C77.3282 8.3153 78.2677 8 79.385 8C80.261 8 81.0545 8.20177 81.7655 8.60532C82.4891 9.00886 83.0481 9.55122 83.4414 10.2322L82.0321 11.3105C81.3465 10.3015 80.4641 9.79712 79.385 9.79712C78.8263 9.79712 78.3693 9.92957 78.0138 10.1944C77.6583 10.4592 77.4806 10.8313 77.4806 11.3105C77.4933 11.5375 77.5186 11.7267 77.5567 11.878C77.6076 12.0167 77.7282 12.1681 77.9186 12.332C78.109 12.4834 78.2424 12.5779 78.3185 12.6157C78.3947 12.6536 78.6423 12.7798 79.0612 12.9941C79.1374 13.0319 79.1946 13.0635 79.2327 13.0887L80.6418 13.7318C81.6956 14.2111 82.4574 14.7219 82.9269 15.2642C83.41 15.8064 83.6506 16.4811 83.6506 17.2883C83.6506 18.3603 83.2513 19.2304 82.4511 19.8989C81.6639 20.5673 80.6609 20.9015 79.4421 20.9015C78.4264 20.9015 77.506 20.6619 76.6808 20.1826C75.8555 19.7034 75.1953 19.0413 74.7002 18.1963Z" fill="white"/>
  <path d="M102.446 8.20805H104.655L99.7607 20.9015H99.0937L95.3425 12.0483L91.5904 20.9015H90.9051L86.0107 8.20805H88.2386L91.3812 16.6452L94.9806 8H95.6852L99.3038 16.6452L102.446 8.20805Z" fill="white"/>
  <path d="M114.781 20.6934L113.887 18.6125H108.23L107.336 20.6934H105.184L110.725 8H111.41L116.952 20.6934H114.781ZM113.163 16.8911L111.068 11.7267L108.954 16.8911H113.163Z" fill="white"/>
  <path d="M119.906 20.6924V8.20703H124.495C125.765 8.20703 126.793 8.56645 127.58 9.2853C128.368 9.99159 128.761 10.9059 128.761 12.0283C128.761 13.1507 128.362 14.0713 127.561 14.7902C126.775 15.5091 125.753 15.8685 124.495 15.8685H121.925V20.6924H119.906ZM121.925 14.0903H124.457C125.155 14.0903 125.701 13.9074 126.095 13.5417C126.489 13.1759 126.686 12.6778 126.686 12.0472C126.686 11.4166 126.489 10.9185 126.095 10.5528C125.701 10.1744 125.155 9.98523 124.457 9.98523H121.925V14.0903Z" fill="white"/>
  <path d="M22.317 2.2153V3.60919C22.317 4.56748 22.065 5.47598 21.5987 6.27252L17.6671 13.018L13.5591 5.98625C12.5761 4.30616 9.74083 4.30616 8.75795 5.98625L4.64987 12.9931L0.74348 6.29746C0.264632 5.47598 0 4.54263 0 3.60919V2.2153C0 0.995643 1.00811 0 2.24304 0H20.0739C21.3089 0 22.317 0.995643 22.317 2.2153Z" fill="#7B78FF"/>
  <path d="M17.667 13.0194L13.559 20.0262C13.0675 20.8724 12.1476 21.3952 11.1521 21.3952C10.1566 21.3952 9.24928 20.86 8.7452 20.0262L4.63721 12.9944L8.7452 5.98768C9.72816 4.30749 12.5634 4.30749 13.5463 5.98768L17.667 13.0194Z" fill="#12429F"/>
  <path d="M22.317 22.3905V23.7844C22.317 25.004 21.3089 25.9997 20.0739 25.9997H2.24304C1.00811 26.0121 0 25.0165 0 23.7968V22.378C0 21.4447 0.252032 20.5361 0.71828 19.7396L4.64987 12.9941L8.75795 20.0258C9.24939 20.8722 10.1693 21.3949 11.1648 21.3949C12.1603 21.3949 13.0676 20.8597 13.5716 20.0258L17.6797 13.0191L21.5861 19.7147C22.065 20.5361 22.317 21.4695 22.317 22.3905Z" fill="#A0D2EB"/>
</svg>
