<svg width="129" height="26" viewBox="0 0 129 26" fill="none" xmlns="http://www.w3.org/2000/svg">
  <path d="M32.5036 18.9178V8.22955H28.2759V6.43243H38.769V8.22955H34.5223V18.9178H32.5036Z" fill="black"/>
  <path d="M41.6064 18.9178V6.43243H43.6251V18.9178H41.6064Z" fill="black"/>
  <path d="M59.0024 6.22466H59.688V18.9181H57.6694V11.0864L54.0701 15.7778H53.3845L49.7662 11.0675V18.9181H47.7476V6.22466H48.4522L53.7273 13.2051L59.0024 6.22466Z" fill="black"/>
  <path d="M63.8008 18.9178V6.43243H72.0658V8.22955H65.8194V11.4266H70.5233V13.167H65.8194V17.1206H72.2943V18.9178H63.8008Z" fill="black"/>
  <path d="M74.7002 16.421L76.1285 15.3427C77.0426 16.6669 78.1408 17.329 79.4231 17.329C80.0705 17.329 80.5911 17.1714 80.9847 16.8561C81.3909 16.5408 81.594 16.1183 81.594 15.5887C81.594 15.1598 81.4608 14.8256 81.1941 14.586C80.9275 14.3338 80.4451 14.0437 79.7468 13.7159L78.3566 13.0726C77.379 12.6312 76.6427 12.1457 76.1476 11.616C75.6651 11.0737 75.4238 10.4053 75.4238 9.61084C75.4238 8.61453 75.8047 7.80108 76.5665 7.17047C77.3282 6.53996 78.2677 6.22466 79.385 6.22466C80.261 6.22466 81.0545 6.42643 81.7655 6.82997C82.4891 7.23352 83.0481 7.77588 83.4414 8.45688L82.0321 9.53515C81.3465 8.5262 80.4641 8.02177 79.385 8.02177C78.8263 8.02177 78.3693 8.15422 78.0138 8.41904C77.6583 8.68385 77.4806 9.05592 77.4806 9.53515C77.4933 9.76212 77.5186 9.95134 77.5567 10.1026C77.6076 10.2414 77.7282 10.3927 77.9186 10.5567C78.109 10.708 78.2424 10.8025 78.3185 10.8404C78.3947 10.8782 78.6423 11.0044 79.0612 11.2187C79.1374 11.2566 79.1946 11.2881 79.2327 11.3133L80.6418 11.9565C81.6956 12.4357 82.4574 12.9465 82.9269 13.4888C83.41 14.0311 83.6506 14.7058 83.6506 15.513C83.6506 16.585 83.2513 17.4551 82.4511 18.1236C81.6639 18.7919 80.6609 19.1261 79.4421 19.1261C78.4264 19.1261 77.506 18.8865 76.6808 18.4073C75.8555 17.9281 75.1953 17.266 74.7002 16.421Z" fill="black"/>
  <path d="M102.446 6.43271H104.656L99.7612 19.1261H99.0942L95.343 10.2729L91.5909 19.1261H90.9056L86.0112 6.43271H88.2391L91.3816 14.8698L94.9811 6.22466H95.6857L99.3043 14.8698L102.446 6.43271Z" fill="black"/>
  <path d="M114.781 18.9181L113.886 16.8371H108.23L107.335 18.9181H105.183L110.724 6.22466H111.41L116.952 18.9181H114.781ZM113.162 15.1157L111.067 9.95134L108.953 15.1157H113.162Z" fill="black"/>
  <path d="M119.906 18.9178V6.43243H124.495C125.764 6.43243 126.793 6.79186 127.58 7.5107C128.367 8.21699 128.761 9.13133 128.761 10.2537C128.761 11.3761 128.361 12.2967 127.561 13.0156C126.774 13.7345 125.752 14.0939 124.495 14.0939H121.924V18.9178H119.906ZM121.924 12.3157H124.457C125.155 12.3157 125.701 12.1328 126.095 11.7671C126.488 11.4013 126.685 10.9032 126.685 10.2726C126.685 9.64204 126.488 9.14389 126.095 8.77819C125.701 8.39985 125.155 8.21063 124.457 8.21063H121.924V12.3157Z" fill="black"/>
  <path d="M22.317 2.2153V3.60919C22.317 4.56748 22.065 5.47598 21.5987 6.27252L17.6671 13.018L13.5591 5.98625C12.5761 4.30616 9.74083 4.30616 8.75795 5.98625L4.64987 12.9931L0.74348 6.29746C0.264632 5.47598 0 4.54263 0 3.60919V2.2153C0 0.995643 1.00811 0 2.24304 0H20.0739C21.3089 0 22.317 0.995643 22.317 2.2153Z" fill="#7B78FF"/>
  <path d="M17.667 13.0195L13.559 20.0263C13.0675 20.8726 12.1476 21.3953 11.1521 21.3953C10.1566 21.3953 9.24928 20.8601 8.7452 20.0263L4.63721 12.9946L8.7452 5.98782C9.72816 4.30763 12.5634 4.30763 13.5463 5.98782L17.667 13.0195Z" fill="#12429F"/>
  <path d="M22.317 22.3907V23.7846C22.317 25.0042 21.3089 25.9999 20.0739 25.9999H2.24304C1.00811 26.0123 0 25.0167 0 23.797V22.3782C0 21.4448 0.252032 20.5363 0.71828 19.7398L4.64987 12.9943L8.75795 20.026C9.24939 20.8723 10.1693 21.395 11.1648 21.395C12.1603 21.395 13.0676 20.8598 13.5716 20.026L17.6797 13.0192L21.5861 19.7149C22.065 20.5363 22.317 21.4697 22.317 22.3907Z" fill="#A0D2EB"/>
</svg>
