<svg width="1544" height="362" viewBox="0 0 1544 362" fill="none" xmlns="http://www.w3.org/2000/svg">
  <rect x="511.5" y="215.5" width="521" height="298" fill="url(#paint0_linear_22057_76)" stroke="black"/>
  <rect x="507" y="241" width="543" height="43" fill="#95BDFF"/>
  <path d="M584.853 241.975C548.44 241.975 531.646 235.554 523 224.755V216H734C728.014 234.678 699.249 229.62 685.615 224.755C687.61 226.312 689.106 230.184 679.13 233.219C669.154 236.254 655.353 231.954 649.7 229.425C635.733 240.165 600.649 242.266 584.853 241.975Z" fill="#95BDFF"/>
  <path d="M0 205.5H-0.5V206V503V503.5H0H551.5H551.979L552 503.021C556.001 409.482 548.123 335.196 539.243 284.289C534.802 258.836 530.111 239.227 526.53 225.979C524.739 219.355 523.225 214.321 522.158 210.941C521.625 209.252 521.204 207.976 520.915 207.121C520.771 206.694 520.66 206.372 520.585 206.157C520.548 206.049 520.519 205.968 520.5 205.914L520.478 205.852L520.473 205.837L520.471 205.833C520.471 205.832 520.471 205.831 520 206L520.471 205.831L520.352 205.5H520H0Z" fill="#7C9744" stroke="black"/>
  <path d="M1551.12 205.5H1551.62V206V503V503.5H1551.12H1008H1007.52L1007.5 503.021C1003.5 409.49 1009.28 335.21 1016.06 284.309C1019.45 258.858 1023.1 239.252 1025.89 226.006C1027.29 219.383 1028.47 214.35 1029.31 210.972C1029.73 209.282 1030.06 208.007 1030.29 207.153C1030.4 206.726 1030.49 206.404 1030.54 206.189C1030.57 206.081 1030.6 206.001 1030.61 205.946L1030.63 205.885L1030.63 205.869L1030.63 205.865C1030.63 205.864 1030.64 205.864 1031.12 206L1030.64 205.864L1030.74 205.5H1031.12H1551.12Z" fill="#7C9744" stroke="black"/>
  <rect x="-21.5" y="128.5" width="560" height="79" rx="8.5" fill="#90AF4E" stroke="black"/>
  <rect x="0.5" y="-0.5" width="560" height="79" rx="8.5" transform="matrix(-1 0 0 1 1573.12 129)" fill="#90AF4E" stroke="black"/>
  <path d="M1055.69 118.934L1042.97 129.8C1042.19 130.472 1042.81 131.751 1043.83 131.539L1048.57 130.546C1048.91 130.476 1049.16 130.855 1048.96 131.136C1048.76 131.411 1049 131.785 1049.33 131.728L1054.3 130.883C1054.48 130.852 1054.59 131.086 1054.45 131.205C1054.29 131.331 1054.42 131.577 1054.61 131.522L1057.31 130.752C1057.58 130.674 1057.87 130.816 1057.98 131.08C1058.06 131.297 1058.27 131.437 1058.5 131.429C1060.69 131.355 1071.51 130.969 1071.93 130.627C1072.78 129.931 1076.38 127.327 1079.18 124.967C1079.97 124.295 1079.34 123.346 1078.38 123.747L1070.61 126.979C1069.81 127.316 1068.99 126.525 1069.29 125.706L1070.85 121.549C1071.12 120.826 1070.51 120.099 1069.76 120.287C1066.17 121.189 1061.23 123.091 1057.97 124.45C1057.22 124.764 1056.42 124.102 1056.59 123.305L1057.32 119.905C1057.52 118.97 1056.42 118.313 1055.69 118.934Z" fill="#16643C"/>
  <path d="M1040 132.339L1055.69 118.934C1056.42 118.313 1057.52 118.97 1057.32 119.905L1056.59 123.305C1056.42 124.102 1057.22 124.764 1057.97 124.45C1061.23 123.091 1066.17 121.189 1069.76 120.287C1070.51 120.099 1071.12 120.826 1070.85 121.549L1069.29 125.706C1068.99 126.525 1069.81 127.316 1070.61 126.979L1078.38 123.747C1079.34 123.346 1079.97 124.295 1079.18 124.967C1076.38 127.327 1072.78 129.931 1071.93 130.627" stroke="black" stroke-linecap="round" stroke-linejoin="round"/>
  <path d="M612.5 130.412H610L618 192.88L621 193.182L628.5 192.88H655L644.5 128.272L628.5 130.412H625L620.5 128.272H612.5V130.412Z" fill="#BC9549"/>
  <path d="M620.5 128.272H612.5V130.412H610L618 192.88L621 193.182L628.5 192.88M620.5 128.272L625 130.412H628.5L644.5 128.272L655 192.88H628.5M620.5 128.272C622 132.077 622.5 133.182 622.5 138.318C622.5 143.454 628.333 173.685 629.5 177.727M628.5 192.88C628.5 192.88 625.4 178.797 625 173.091M641 133.682C642.667 146.407 648 181.21 648 186.049" stroke="black"/>
  <path d="M511 125.181H522L522.5 124.408H528L528.5 123.636H537H538.5L541.5 125.954L544 187.772H538H532L530.5 184.681V187.772H515L516.5 179.272L512 189.318H502C504.5 176.954 509.5 150.681 509.5 144.499C509.5 138.318 510.5 129.045 511 125.181Z" fill="#BC9549"/>
  <path d="M538 187.772H544L541.5 125.954L538.5 123.636H537M538 187.772H532L530.5 184.681V187.772H515L516.5 179.272L512 189.318H502C504.5 176.954 509.5 150.681 509.5 144.499C509.5 138.318 510.5 129.045 511 125.181H522L522.5 124.408H528L528.5 123.636H537M538 187.772C537.167 176.439 535.6 150.99 536 139.863C536.4 128.736 536.833 124.408 537 123.636" stroke="black"/>
  <path d="M522 198.59H504L502 189.317H509H512L516.5 179.272L515 187.772H518.5H530.5V184.681L532 187.772H544L544.5 197.045H529L528 197.817H522.5L522 198.59Z" fill="#76500D"/>
  <path d="M518.5 187.772H530.5V184.681L532 187.772H544L544.5 197.045H529L528 197.817H522.5L522 198.59H504L502 189.317H509M518.5 187.772H515L516.5 179.272L512 189.317H509M518.5 187.772C519.667 178.499 522.3 157.79 523.5 149.135M509 189.317L522.5 132.908V124.408" stroke="black"/>
  <path d="M544.5 200.909V188.545L582.5 192.409V200.909H579H558.5L556 202.454L544.5 200.909Z" fill="#76500D" stroke="black"/>
  <path d="M582.5 200.136V187.772L619 192.409V201.682H610.5L598 203.227L594 201.682L582.5 200.136Z" fill="#76500D" stroke="black"/>
  <path d="M619 201.836V193.182H655V201.836H646.616H633.795L632.315 204L619 201.836Z" fill="#76500D" stroke="black"/>
  <path d="M544.5 128.272H542L544.5 188.545L547 193.954L554.5 193.628L582.5 192.409L574 128.272H571H560.5H557L552.5 125.954H544.5V128.272Z" fill="#BC9549"/>
  <path d="M552.5 125.954H544.5V128.272H542L544.5 188.545L547 193.954L554.5 193.628M552.5 125.954L557 128.272H560.5H571H574L582.5 192.409L554.5 193.628M552.5 125.954C554 130.075 557 139.709 557 145.272C557 150.836 559.333 160.984 560.5 165.363M554.5 193.628C553.167 177.767 550.4 144.5 550 138.318M569 138.318C570.667 152.103 574 180.985 574 186.227" stroke="black"/>
  <path d="M576.5 125.181H574L582.5 187.772L585 193.181L592.5 192.855H619L608.5 122.863L592.5 125.181H589L584.5 122.863H576.5V125.181Z" fill="#BC9549"/>
  <path d="M584.5 122.863H576.5V125.181H574L582.5 187.772L585 193.181L592.5 192.855M584.5 122.863L589 125.181H592.5L608.5 122.863L619 192.855H592.5M584.5 122.863C586 126.984 589 136.618 589 142.181C589 147.745 597.333 160.212 598.5 164.591M592.5 192.855C591.167 176.994 582.4 141.409 582 135.227M601 135.227C602.667 149.013 612 180.213 612 185.454" stroke="black"/>
  <path d="M743.5 130.412H741L749 192.88L752 193.182L759.5 192.88H786L775.5 128.272L759.5 130.412H756L751.5 128.272H743.5V130.412Z" fill="#BC9549"/>
  <path d="M751.5 128.272H743.5V130.412H741L749 192.88L752 193.182L759.5 192.88M751.5 128.272L756 130.412H759.5L775.5 128.272L786 192.88H759.5M751.5 128.272C753 132.077 753.5 133.182 753.5 138.318C753.5 143.454 759.333 173.685 760.5 177.727M759.5 192.88C759.5 192.88 756.4 178.797 756 173.091M772 133.682C773.667 146.407 779 181.21 779 186.049" stroke="black"/>
  <path d="M642 125.181H653L653.5 124.408H659L659.5 123.636H668H669.5L672.5 125.954L675 187.772H669H663L661.5 184.681V187.772H646L647.5 179.272L643 189.318H633C635.5 176.954 640.5 150.681 640.5 144.499C640.5 138.318 641.5 129.045 642 125.181Z" fill="#BC9549"/>
  <path d="M669 187.772H675L672.5 125.954L669.5 123.636H668M669 187.772H663L661.5 184.681V187.772H646L647.5 179.272L643 189.318H633C635.5 176.954 640.5 150.681 640.5 144.499C640.5 138.318 641.5 129.045 642 125.181H653L653.5 124.408H659L659.5 123.636H668M669 187.772C668.167 176.439 666.6 150.99 667 139.863C667.4 128.736 667.833 124.408 668 123.636" stroke="black"/>
  <path d="M653 198.59H635L633 189.317H640H643L647.5 179.272L646 187.772H649.5H661.5V184.681L663 187.772H675L675.5 197.045H660L659 197.817H653.5L653 198.59Z" fill="#76500D"/>
  <path d="M649.5 187.772H661.5V184.681L663 187.772H675L675.5 197.045H660L659 197.817H653.5L653 198.59H635L633 189.317H640M649.5 187.772H646L647.5 179.272L643 189.317H640M649.5 187.772C650.667 178.499 653.3 157.79 654.5 149.135M640 189.317L653.5 132.908V124.408" stroke="black"/>
  <path d="M675.5 200.909V188.545L713.5 192.409V200.909H710H689.5L687 202.454L675.5 200.909Z" fill="#76500D" stroke="black"/>
  <path d="M713.5 200.136V187.772L750 192.409V201.682H741.5L729 203.227L725 201.682L713.5 200.136Z" fill="#76500D" stroke="black"/>
  <path d="M750 201.836V193.182H786V201.836H777.616H764.795L763.315 204L750 201.836Z" fill="#76500D" stroke="black"/>
  <path d="M675.5 128.272H673L675.5 188.545L678 193.954L685.5 193.628L713.5 192.409L705 128.272H702H691.5H688L683.5 125.954H675.5V128.272Z" fill="#BC9549"/>
  <path d="M683.5 125.954H675.5V128.272H673L675.5 188.545L678 193.954L685.5 193.628M683.5 125.954L688 128.272H691.5H702H705L713.5 192.409L685.5 193.628M683.5 125.954C685 130.075 688 139.709 688 145.272C688 150.836 690.333 160.984 691.5 165.363M685.5 193.628C684.167 177.767 681.4 144.5 681 138.318M700 138.318C701.667 152.103 705 180.985 705 186.227" stroke="black"/>
  <path d="M707.5 125.181H705L713.5 187.772L716 193.181L723.5 192.855H750L739.5 122.863L723.5 125.181H720L715.5 122.863H707.5V125.181Z" fill="#BC9549"/>
  <path d="M715.5 122.863H707.5V125.181H705L713.5 187.772L716 193.181L723.5 192.855M715.5 122.863L720 125.181H723.5L739.5 122.863L750 192.855H723.5M715.5 122.863C717 126.984 720 136.618 720 142.181C720 147.745 728.333 160.212 729.5 164.591M723.5 192.855C722.167 176.994 713.4 141.409 713 135.227M732 135.227C733.667 149.013 743 180.213 743 185.454" stroke="black"/>
  <path d="M872.5 130.412H870L878 192.88L881 193.182L888.5 192.88H915L904.5 128.272L888.5 130.412H885L880.5 128.272H872.5V130.412Z" fill="#BC9549"/>
  <path d="M880.5 128.272H872.5V130.412H870L878 192.88L881 193.182L888.5 192.88M880.5 128.272L885 130.412H888.5L904.5 128.272L915 192.88H888.5M880.5 128.272C882 132.077 882.5 133.182 882.5 138.318C882.5 143.454 888.333 173.685 889.5 177.727M888.5 192.88C888.5 192.88 885.4 178.797 885 173.091M901 133.682C902.667 146.407 908 181.21 908 186.049" stroke="black"/>
  <path d="M771 125.181H782L782.5 124.408H788L788.5 123.636H797H798.5L801.5 125.954L804 187.772H798H792L790.5 184.681V187.772H775L776.5 179.272L772 189.318H762C764.5 176.954 769.5 150.681 769.5 144.499C769.5 138.318 770.5 129.045 771 125.181Z" fill="#BC9549"/>
  <path d="M798 187.772H804L801.5 125.954L798.5 123.636H797M798 187.772H792L790.5 184.681V187.772H775L776.5 179.272L772 189.318H762C764.5 176.954 769.5 150.681 769.5 144.499C769.5 138.318 770.5 129.045 771 125.181H782L782.5 124.408H788L788.5 123.636H797M798 187.772C797.167 176.439 795.6 150.99 796 139.863C796.4 128.736 796.833 124.408 797 123.636" stroke="black"/>
  <path d="M782 198.59H764L762 189.317H769H772L776.5 179.272L775 187.772H778.5H790.5V184.681L792 187.772H804L804.5 197.045H789L788 197.817H782.5L782 198.59Z" fill="#76500D"/>
  <path d="M778.5 187.772H790.5V184.681L792 187.772H804L804.5 197.045H789L788 197.817H782.5L782 198.59H764L762 189.317H769M778.5 187.772H775L776.5 179.272L772 189.317H769M778.5 187.772C779.667 178.499 782.3 157.79 783.5 149.135M769 189.317L782.5 132.908V124.408" stroke="black"/>
  <path d="M804.5 200.909V188.545L842.5 192.409V200.909H839H818.5L816 202.454L804.5 200.909Z" fill="#76500D" stroke="black"/>
  <path d="M842.5 200.136V187.772L879 192.409V201.682H870.5L858 203.227L854 201.682L842.5 200.136Z" fill="#76500D" stroke="black"/>
  <path d="M879 201.836V193.182H915V201.836H906.616H893.795L892.315 204L879 201.836Z" fill="#76500D" stroke="black"/>
  <path d="M804.5 128.272H802L804.5 188.545L807 193.954L814.5 193.628L842.5 192.409L834 128.272H831H820.5H817L812.5 125.954H804.5V128.272Z" fill="#BC9549"/>
  <path d="M812.5 125.954H804.5V128.272H802L804.5 188.545L807 193.954L814.5 193.628M812.5 125.954L817 128.272H820.5H831H834L842.5 192.409L814.5 193.628M812.5 125.954C814 130.075 817 139.709 817 145.272C817 150.836 819.333 160.984 820.5 165.363M814.5 193.628C813.167 177.767 810.4 144.5 810 138.318M829 138.318C830.667 152.103 834 180.985 834 186.227" stroke="black"/>
  <path d="M836.5 125.181H834L842.5 187.772L845 193.181L852.5 192.855H879L868.5 122.863L852.5 125.181H849L844.5 122.863H836.5V125.181Z" fill="#BC9549"/>
  <path d="M844.5 122.863H836.5V125.181H834L842.5 187.772L845 193.181L852.5 192.855M844.5 122.863L849 125.181H852.5L868.5 122.863L879 192.855H852.5M844.5 122.863C846 126.984 849 136.618 849 142.181C849 147.745 857.333 160.212 858.5 164.591M852.5 192.855C851.167 176.994 842.4 141.409 842 135.227M861 135.227C862.667 149.013 872 180.213 872 185.454" stroke="black"/>
  <path d="M1002.5 126.549H1000L1008 189.017L1011 189.318L1018.5 189.017H1045L1034.5 124.409L1018.5 126.549H1015L1010.5 124.409H1002.5V126.549Z" fill="#BC9549"/>
  <path d="M1010.5 124.409H1002.5V126.549H1000L1008 189.017L1011 189.318L1018.5 189.017M1010.5 124.409L1015 126.549H1018.5L1034.5 124.409L1045 189.017H1018.5M1010.5 124.409C1012 128.213 1012.5 129.319 1012.5 134.455C1012.5 139.59 1018.33 169.822 1019.5 173.864M1018.5 189.017C1018.5 189.017 1015.4 174.934 1015 169.227M1031 129.818C1032.67 142.544 1038 177.347 1038 182.185" stroke="black"/>
  <path d="M901 121.318H912L912.5 120.545H918L918.5 119.772H927H928.5L931.5 122.091L934 183.909H928H922L920.5 180.818V183.909H905L906.5 175.409L902 185.454H892C894.5 173.091 899.5 146.818 899.5 140.636C899.5 134.454 900.5 125.182 901 121.318Z" fill="#BC9549"/>
  <path d="M928 183.909H934L931.5 122.091L928.5 119.772H927M928 183.909H922L920.5 180.818V183.909H905L906.5 175.409L902 185.454H892C894.5 173.091 899.5 146.818 899.5 140.636C899.5 134.454 900.5 125.182 901 121.318H912L912.5 120.545H918L918.5 119.772H927M928 183.909C927.167 172.575 925.6 147.127 926 136C926.4 124.872 926.833 120.545 927 119.772" stroke="black"/>
  <path d="M912 194.728H894L892 185.455H899H902L906.5 175.41L905 183.91H908.5H920.5V180.819L922 183.91H934L934.5 193.182H919L918 193.955H912.5L912 194.728Z" fill="#76500D"/>
  <path d="M908.5 183.91H920.5V180.819L922 183.91H934L934.5 193.182H919L918 193.955H912.5L912 194.728H894L892 185.455H899M908.5 183.91H905L906.5 175.41L902 185.455H899M908.5 183.91C909.667 174.637 912.3 153.928 913.5 145.273M899 185.455L912.5 129.046V120.546" stroke="black"/>
  <path d="M934.5 197.045V184.682L972.5 188.545V197.045H969H948.5L946 198.591L934.5 197.045Z" fill="#76500D" stroke="black"/>
  <path d="M972.5 196.273V183.909L1009 188.546V197.818H1000.5L988 199.364L984 197.818L972.5 196.273Z" fill="#76500D" stroke="black"/>
  <path d="M1009 197.973V189.318H1045V197.973H1036.62H1023.79L1022.32 200.137L1009 197.973Z" fill="#76500D" stroke="black"/>
  <path d="M934.5 124.409H932L934.5 184.682L937 190.091L944.5 189.764L972.5 188.545L964 124.409H961H950.5H947L942.5 122.091H934.5V124.409Z" fill="#BC9549"/>
  <path d="M942.5 122.091H934.5V124.409H932L934.5 184.682L937 190.091L944.5 189.764M942.5 122.091L947 124.409H950.5H961H964L972.5 188.545L944.5 189.764M942.5 122.091C944 126.212 947 135.845 947 141.409C947 146.973 949.333 157.121 950.5 161.5M944.5 189.764C943.167 173.903 940.4 140.636 940 134.454M959 134.454C960.667 148.24 964 177.122 964 182.364" stroke="black"/>
  <path d="M966.5 121.318H964L972.5 183.909L975 189.318L982.5 188.992H1009L998.5 119L982.5 121.318H979L974.5 119H966.5V121.318Z" fill="#BC9549"/>
  <path d="M974.5 119H966.5V121.318H964L972.5 183.909L975 189.318L982.5 188.992M974.5 119L979 121.318H982.5L998.5 119L1009 188.992H982.5M974.5 119C976 123.121 979 132.755 979 138.318C979 143.882 987.333 156.348 988.5 160.727M982.5 188.992C981.167 173.131 972.4 137.545 972 131.364M991 131.364C992.667 145.149 1002 176.349 1002 181.591" stroke="black"/>
  <path d="M484.491 124.532C486.51 125.584 491.622 129.553 494.275 131.685C494.523 131.883 494.848 131.953 495.155 131.873L497.313 131.31C497.706 131.207 498.007 131.657 497.764 131.981C497.518 132.31 497.83 132.763 498.225 132.65L502.829 131.335C503.142 131.245 503.369 131.631 503.139 131.861C502.894 132.106 503.165 132.51 503.484 132.375L506.043 131.298C506.462 131.122 506.82 131.648 506.503 131.972C506.211 132.271 506.491 132.765 506.897 132.668L508.94 132.183C509.391 132.076 509.704 131.663 509.879 131.234C510.587 129.501 513.379 127.201 515.952 125.402C516.785 124.82 516.396 123.69 515.412 123.942C513.092 124.538 510.778 125.54 509.168 126.358C508.557 126.668 507.913 126.3 508.153 125.658C508.695 124.206 510.071 122.276 511.33 120.721C511.877 120.046 511.406 119.11 510.574 119.361C507.036 120.431 503.224 123.651 500.958 125.968C500.47 126.467 499.648 126.335 499.615 125.638C499.596 125.22 499.64 124.79 499.729 124.365C499.94 123.359 498.822 122.174 497.955 122.726C495.982 123.983 494.682 125.234 493.946 126.142C493.581 126.592 492.92 126.765 492.395 126.52C489.058 124.962 482.097 123.285 484.491 124.532Z" fill="#16643C"/>
  <path d="M494.667 132C492.16 129.972 486.615 125.638 484.491 124.532C482.097 123.285 489.058 124.962 492.395 126.52C492.92 126.765 493.581 126.592 493.946 126.142C494.682 125.234 495.982 123.983 497.955 122.726C498.822 122.174 499.94 123.359 499.729 124.365C499.64 124.79 499.596 125.22 499.615 125.638C499.648 126.335 500.47 126.467 500.958 125.968C503.224 123.651 507.036 120.431 510.574 119.361C511.406 119.11 511.877 120.046 511.33 120.721C510.071 122.276 508.695 124.206 508.153 125.658C507.913 126.3 508.557 126.668 509.168 126.358C510.778 125.54 513.092 124.538 515.412 123.942C516.396 123.69 516.785 124.82 515.952 125.402C512.977 127.482 509.709 130.232 509.709 132" stroke="black" stroke-linecap="round" stroke-linejoin="round"/>
  <path d="M959.865 174L946 179.367L959.865 185.628L972.387 179.367L959.865 174Z" fill="#BC9549" stroke="black" stroke-linejoin="round"/>
  <path d="M967.468 276.028L959.865 280.5V185.629L972.388 179.367L967.468 276.028Z" fill="#76500D" stroke="black" stroke-linejoin="round"/>
  <path d="M950.367 278.133L959.865 280.5V185.629L946 179.367L950.367 278.133Z" fill="#7A4A12" stroke="black" stroke-linejoin="round"/>
  <path d="M988.598 199L960 221.475V232.5L1001 199H988.598Z" fill="#76500D" stroke="black"/>
  <path d="M917.538 197L948 221.049V231L904 197H917.538Z" fill="#76500D" stroke="black" stroke-linejoin="round"/>
  <path d="M917 197L948 221V217.69L921.306 197H917Z" fill="#87662A" stroke="black" stroke-linejoin="round"/>
  <path d="M600.865 175L590 181L600.865 186.628L613.387 180.367L600.865 175Z" fill="#BC9549" stroke="black" stroke-linejoin="round"/>
  <path d="M608.467 277.028L600.864 281.5V186.629L613.387 180.367L608.467 277.028Z" fill="#76500D" stroke="black" stroke-linejoin="round"/>
  <path d="M591.367 279.133L600.865 281.5V186.628L590 181L591.367 279.133Z" fill="#7A4A12" stroke="black" stroke-linejoin="round"/>
  <path d="M572 201L590.5 219V231L559.5 201H572Z" fill="#76500D" stroke="black"/>
  <path d="M572.5 201.5L590.5 219V215L577.5 201.5H572.5Z" fill="#87662A" stroke="black"/>
  <path d="M1064.69 193.462C1063.32 196.642 1060.47 198.799 1059.22 199.48C1059.99 197.174 1062.1 191.733 1064.41 188.414C1067.29 184.265 1072.2 183.451 1072.41 185.271C1072.62 187.091 1066.4 189.487 1064.69 193.462Z" fill="#14653C" stroke="black"/>
  <path d="M1050.66 190.989C1054.94 192.115 1057.8 194.645 1058.69 195.77C1058.51 192.577 1054.89 189.683 1051.95 189.101C1049.01 188.519 1045.29 189.582 1050.66 190.989Z" fill="#14653C" stroke="black"/>
  <path d="M1058.56 197.624C1058.13 189.894 1056.08 185.485 1055.12 184.247C1055.17 182.664 1055.79 180.547 1057.84 184.741C1060.39 189.982 1059.1 207.287 1058.56 197.624Z" fill="#14653C" stroke="black"/>
  <path d="M1053.48 167.16C1061.93 163.393 1063.39 165.324 1066.07 167.16C1071.32 172.469 1068.75 176.822 1063.39 178.852C1058.03 180.882 1059.82 186.809 1054.94 188.351C1051.05 189.585 1048.18 187.187 1047.23 185.834C1043.85 186.484 1037.07 185.997 1037 178.852C1036.92 169.921 1042.93 171.87 1053.48 167.16Z" fill="#F08A95" stroke="black"/>
  <path d="M1058.29 167.787C1061.28 165.448 1064.03 168.111 1065.03 169.735C1066.01 172.577 1066.17 175.175 1060.48 177.854C1054.8 180.534 1055.94 183.294 1048.71 184.593C1041.49 185.892 1038.4 175.175 1042.46 172.82C1046.52 170.466 1048.39 175.987 1052.04 175.175C1055.69 174.363 1054.56 170.71 1058.29 167.787Z" fill="#E36974"/>
  <path d="M1049.15 173.663C1046.55 176.017 1048.75 177.316 1051.75 176.423C1053.14 176.009 1054.31 175.12 1055.16 174.256C1053.86 172.09 1051.75 171.308 1049.15 173.663Z" fill="#EBF479"/>
  <path d="M1056.46 172.607C1056.22 173.017 1055.78 173.63 1055.16 174.256M1055.16 174.256C1054.31 175.12 1053.14 176.009 1051.75 176.423C1048.75 177.316 1046.55 176.017 1049.15 173.663C1051.75 171.308 1053.86 172.09 1055.16 174.256Z" stroke="black"/>
  <path d="M586 263.165C574.838 265.434 567 270.774 567 277C567 285.284 580.879 292 598 292C615.121 292 629 285.284 629 277C629 271.448 622.766 266.6 613.5 264.007" stroke="white"/>
  <path d="M598 296C620.091 296 638 287.383 638 276.752C638 269.628 629.956 263.408 618 260.08M558 276.752C558 268.764 568.114 261.912 582.516 259" stroke="white"/>
  <path d="M944 263.165C932.838 265.434 925 270.774 925 277C925 285.284 938.879 292 956 292C973.121 292 987 285.284 987 277C987 271.448 980.766 266.6 971.5 264.007" stroke="white"/>
  <path d="M996 276.753C996 269.628 987.956 263.408 976 260.08M956 296C933.909 296 916 287.383 916 276.753" stroke="white"/>
  <path d="M1151.86 83L1141 89L1151.86 94.6283L1164.39 88.3669L1151.86 83Z" fill="#BC9549" stroke="black" stroke-linejoin="round"/>
  <path d="M1159.47 140.661L1151.86 145.133V50.2614L1164.39 44L1159.47 140.661Z" fill="#76500D" stroke="black" stroke-linejoin="round"/>
  <path d="M1142.37 142.766L1151.86 145.133V50.2611L1141 44.6328L1142.37 142.766Z" fill="#7A4A12" stroke="black" stroke-linejoin="round"/>
  <path d="M1077.46 16.0311C1077.6 14.6202 1084.46 11.1387 1088.01 9.58821C1088.63 9.31987 1089.3 9.74646 1089.35 10.4153L1094.11 74.0641C1094.12 74.1885 1094.11 74.3136 1094.07 74.4329L1084.2 106.487C1084.02 107.087 1083.33 107.371 1082.78 107.075L1072.89 101.797C1072.54 101.607 1072.33 101.222 1072.37 100.82L1073.54 88.6198C1073.55 88.5128 1073.58 88.4082 1073.62 88.3099L1074.61 86.0832C1074.72 85.8202 1074.55 85.5202 1074.26 85.4927C1074.03 85.4705 1073.86 85.2646 1073.88 85.0328L1075.05 72.8397C1075.08 72.5757 1075.2 72.3325 1075.41 72.1638L1077.44 70.486C1077.93 70.0844 1077.93 69.3379 1077.44 68.9393L1075.92 67.7068C1075.7 67.5232 1075.57 67.2507 1075.56 66.9602L1074.88 43.5053C1074.87 43.2354 1074.98 42.9739 1075.16 42.7802L1078.73 39.1001C1079.09 38.7344 1079.11 38.1604 1078.79 37.7674L1076 34.3853C1075.83 34.1808 1075.75 33.9201 1075.77 33.6561L1077.46 16.0311Z" fill="#7A4A12" stroke="black" stroke-linecap="round" stroke-linejoin="round"/>
  <path d="M1220.39 13.6145L1087.18 9.81525C1086.62 9.79919 1086.15 10.251 1086.15 10.8142L1086.14 31.0186L1090.94 37.851C1091.24 38.2784 1091.17 38.8652 1090.76 39.1978L1087.42 41.9568C1087.21 42.1324 1087.07 42.3881 1087.06 42.6634L1085.16 71.893C1085.14 72.1995 1085.26 72.4982 1085.49 72.703L1088.07 75.0136C1088.52 75.4171 1088.52 76.1256 1088.06 76.5189L1084.67 79.4127L1082.92 106.457C1082.88 107.044 1083.35 107.537 1083.94 107.522L1223.73 103.99C1224.29 103.976 1224.73 103.508 1224.71 102.95L1223.79 80.0678C1223.78 79.7735 1223.64 79.4993 1223.41 79.3184L1219.33 76.1438L1223.21 70.7481C1223.34 70.5668 1223.4 70.3472 1223.4 70.1241L1222.08 37.309C1222.08 37.0906 1222 36.8811 1221.86 36.7126L1219.35 33.6785L1222.45 30.284C1222.64 30.0769 1222.73 29.7999 1222.7 29.5208L1221.35 14.5245C1221.31 14.0199 1220.89 13.629 1220.39 13.6145Z" fill="#BC9549"/>
  <path d="M1219.35 33.6785L1222.45 30.284C1222.64 30.0769 1222.73 29.7999 1222.7 29.5208L1221.35 14.5245C1221.31 14.0199 1220.89 13.629 1220.39 13.6145L1087.18 9.81525C1086.62 9.79919 1086.15 10.251 1086.15 10.8142L1086.14 31.0186M1219.35 33.6785L1221.86 36.7126C1222 36.8811 1222.08 37.0906 1222.08 37.309L1223.4 70.1241C1223.4 70.3472 1223.34 70.5668 1223.21 70.7481L1219.33 76.1438M1219.35 33.6785C1218.26 34.5843 1214.46 36.2424 1208.04 35.6277M1086.14 31.0186L1090.94 37.851C1091.24 38.2784 1091.17 38.8652 1090.76 39.1978L1087.42 41.9568C1087.21 42.1324 1087.07 42.3881 1087.06 42.6634L1085.16 71.893C1085.14 72.1995 1085.26 72.4982 1085.49 72.703L1088.07 75.0136C1088.52 75.4171 1088.52 76.1256 1088.06 76.5189L1084.67 79.4127M1086.14 31.0186C1093.28 30.3551 1111.55 29.6126 1119.49 31.1826M1219.33 76.1438L1223.41 79.3184C1223.64 79.4993 1223.78 79.7735 1223.79 80.0678L1224.71 102.95C1224.73 103.508 1224.29 103.976 1223.73 103.99L1083.94 107.522C1083.35 107.537 1082.88 107.044 1082.92 106.457L1084.67 79.4127M1219.33 76.1438L1202.1 76.5147M1084.67 79.4127C1090.84 81.3526 1103.83 84.8891 1106.38 83.5165M1163.92 21.2859C1176.47 20.4667 1203.17 18.982 1209.58 19.5968" stroke="black" stroke-linecap="round" stroke-linejoin="round"/>
  <path d="M1132 32C1132 27.5817 1135.58 24 1140 24H1162C1166.42 24 1170 27.5817 1170 32V54C1170 58.4183 1166.42 62 1162 62H1140C1135.58 62 1132 58.4183 1132 54V32Z" fill="#131419"/>
  <mask id="mask0_22057_76" style="mask-type:luminance" maskUnits="userSpaceOnUse" x="1139" y="31" width="24" height="24">
    <path d="M1139.6 31.5996H1162.4V54.3996H1139.6V31.5996Z" fill="white"/>
  </mask>
  <g mask="url(#mask0_22057_76)">
    <mask id="mask1_22057_76" style="mask-type:luminance" maskUnits="userSpaceOnUse" x="1139" y="31" width="24" height="24">
      <path d="M1139.6 31.5996H1162.4V54.3996H1139.6V31.5996Z" fill="white"/>
    </mask>
    <g mask="url(#mask1_22057_76)">
      <path d="M1153.26 32.5069L1153.87 33.9281C1155.06 36.7184 1157.28 38.941 1160.07 40.132L1161.49 40.7389C1161.87 40.8976 1162.17 41.1248 1162.4 41.3958C1161.69 36.3208 1157.68 32.3071 1152.61 31.5996C1152.88 31.8322 1153.1 32.1347 1153.26 32.5069ZM1140.51 40.7389L1141.93 40.132C1144.72 38.9409 1146.94 36.7184 1148.13 33.9281L1148.74 32.5069C1148.89 32.158 1149.11 31.8476 1149.4 31.5996C1144.32 32.3071 1140.31 36.3208 1139.6 41.3958C1139.83 41.1248 1140.14 40.8976 1140.51 40.7389ZM1161.5 45.261L1160.07 45.8679C1157.28 47.0591 1155.06 49.2819 1153.87 52.0725L1153.26 53.493C1153.12 53.8421 1152.89 54.1528 1152.61 54.401C1157.68 53.6928 1161.69 49.6791 1162.4 44.6041C1162.15 44.89 1161.84 45.1148 1161.5 45.261ZM1148.74 53.493L1148.13 52.0725C1146.94 49.282 1144.72 47.0592 1141.93 45.8679L1140.51 45.261C1140.16 45.1148 1139.85 44.89 1139.6 44.6041C1140.31 49.6791 1144.32 53.6928 1149.4 54.401C1149.11 54.1526 1148.89 53.842 1148.74 53.493Z" fill="#999999"/>
    </g>
    <path d="M1145.83 41.8859L1146.53 41.5869C1147.9 41 1149 39.9048 1149.59 38.5298L1149.88 37.8291C1150.3 36.8486 1151.69 36.8486 1152.11 37.8291L1152.41 38.5298C1153 39.9048 1154.09 41 1155.47 41.5869L1156.17 41.8859C1157.15 42.3047 1157.15 43.6951 1156.17 44.1138L1155.47 44.4128C1154.09 44.9998 1153 46.0953 1152.41 47.4707L1152.11 48.1706C1151.69 49.1511 1150.3 49.1511 1149.88 48.1706L1149.59 47.4707C1149 46.0953 1147.9 44.9998 1146.53 44.4128L1145.83 44.1138C1144.85 43.6951 1144.85 42.3047 1145.83 41.8859Z" fill="white"/>
  </g>
  <path d="M1122.89 88.018C1122.1 88.018 1121.33 87.91 1120.6 87.694C1119.88 87.466 1119.29 87.154 1118.84 86.758C1118.38 86.35 1118.15 85.888 1118.15 85.372C1118.15 84.88 1118.3 84.49 1118.6 84.202C1118.9 83.914 1119.28 83.77 1119.74 83.77C1120.04 83.77 1120.3 83.812 1120.51 83.896C1120.74 83.968 1120.99 84.076 1121.25 84.22C1121.44 84.316 1121.6 84.394 1121.74 84.454C1121.88 84.502 1122.03 84.526 1122.19 84.526C1122.58 84.526 1122.78 84.37 1122.78 84.058C1122.78 83.938 1122.7 83.836 1122.53 83.752C1122.36 83.656 1122.08 83.53 1121.68 83.374C1120.97 83.098 1120.4 82.828 1119.95 82.564C1119.27 82.156 1118.8 81.712 1118.53 81.232C1118.28 80.752 1118.15 80.152 1118.15 79.432C1118.15 78.736 1118.38 78.082 1118.82 77.47C1119.26 76.846 1119.87 76.348 1120.64 75.976C1121.41 75.604 1122.25 75.418 1123.16 75.418C1124.05 75.418 1124.86 75.556 1125.59 75.832C1126.33 76.096 1126.91 76.468 1127.33 76.948C1127.77 77.416 1127.98 77.938 1127.98 78.514C1127.98 79.174 1127.78 79.672 1127.39 80.008C1127 80.332 1126.57 80.494 1126.09 80.494C1125.7 80.494 1125.4 80.47 1125.19 80.422C1125 80.374 1124.81 80.308 1124.62 80.224C1124.46 80.164 1124.33 80.122 1124.22 80.098C1124.11 80.062 1123.96 80.044 1123.77 80.044C1123.61 80.044 1123.46 80.098 1123.32 80.206C1123.19 80.302 1123.12 80.44 1123.12 80.62C1123.12 80.752 1123.2 80.866 1123.36 80.962C1123.51 81.046 1123.69 81.124 1123.9 81.196C1124.1 81.268 1124.24 81.322 1124.33 81.358C1125.44 81.766 1126.27 82.234 1126.79 82.762C1127.32 83.278 1127.59 83.95 1127.59 84.778C1127.59 85.798 1127.17 86.596 1126.34 87.172C1125.53 87.736 1124.38 88.018 1122.89 88.018ZM1137.48 80.206C1137.48 80.83 1137.19 81.256 1136.6 81.484C1136.01 81.7 1135.21 81.814 1134.19 81.826C1134.18 82.126 1134.17 82.612 1134.17 83.284C1134.17 83.968 1134.22 84.454 1134.32 84.742C1134.38 84.946 1134.47 85.078 1134.59 85.138C1134.72 85.198 1134.91 85.24 1135.16 85.264C1135.25 85.276 1135.34 85.294 1135.43 85.318C1135.54 85.33 1135.66 85.348 1135.79 85.372C1136.07 85.432 1136.28 85.582 1136.44 85.822C1136.6 86.05 1136.67 86.344 1136.67 86.704C1136.67 87.112 1136.46 87.43 1136.04 87.658C1135.62 87.886 1135.05 88 1134.32 88C1133.64 88 1133 87.808 1132.39 87.424C1131.78 87.028 1131.36 86.5 1131.13 85.84C1130.89 85.132 1130.77 83.794 1130.77 81.826C1129.93 81.802 1129.25 81.694 1128.74 81.502C1128.23 81.298 1127.98 80.938 1127.98 80.422C1127.98 79.774 1128.22 79.342 1128.7 79.126C1129.18 78.898 1129.87 78.778 1130.77 78.766C1130.81 77.806 1130.96 77.008 1131.22 76.372C1131.48 75.724 1131.96 75.4 1132.64 75.4C1133.34 75.4 1133.79 75.7 1133.99 76.3C1134.21 76.9 1134.3 77.722 1134.28 78.766C1135.37 78.754 1136.18 78.838 1136.69 79.018C1137.22 79.198 1137.48 79.594 1137.48 80.206ZM1140.91 88C1139.97 88 1139.2 87.79 1138.6 87.37C1138 86.938 1137.7 86.32 1137.7 85.516C1137.7 84.82 1138.01 84.268 1138.62 83.86C1139.23 83.452 1139.99 83.248 1140.91 83.248C1141.24 83.248 1141.55 83.278 1141.84 83.338C1142.14 83.386 1142.35 83.446 1142.45 83.518C1142.45 83.218 1142.33 82.972 1142.08 82.78C1141.82 82.576 1141.44 82.474 1140.92 82.474C1140.7 82.474 1140.51 82.492 1140.37 82.528C1140.22 82.564 1140.07 82.618 1139.9 82.69C1139.73 82.762 1139.57 82.816 1139.43 82.852C1139.3 82.888 1139.12 82.906 1138.89 82.906C1138.51 82.906 1138.21 82.81 1137.99 82.618C1137.77 82.414 1137.67 82.108 1137.67 81.7C1137.67 81.232 1137.83 80.836 1138.17 80.512C1138.52 80.188 1138.95 79.948 1139.47 79.792C1139.98 79.624 1140.5 79.54 1141.01 79.54C1142.03 79.54 1142.89 79.732 1143.57 80.116C1144.27 80.488 1144.78 80.986 1145.1 81.61C1145.44 82.234 1145.6 82.924 1145.6 83.68C1145.6 84.088 1145.57 84.466 1145.5 84.814C1145.44 85.162 1145.35 85.432 1145.24 85.624C1145.41 85.768 1145.54 85.936 1145.62 86.128C1145.72 86.32 1145.77 86.518 1145.77 86.722C1145.77 87.07 1145.65 87.37 1145.41 87.622C1145.18 87.874 1144.87 88 1144.49 88C1144.2 88 1143.97 87.958 1143.79 87.874C1143.61 87.79 1143.41 87.658 1143.21 87.478C1142.91 87.658 1142.58 87.79 1142.22 87.874C1141.87 87.958 1141.43 88 1140.91 88ZM1141.27 86.182C1141.52 86.182 1141.72 86.128 1141.86 86.02C1142.02 85.912 1142.09 85.78 1142.09 85.624C1142.09 85.468 1142.02 85.336 1141.86 85.228C1141.72 85.12 1141.52 85.066 1141.27 85.066C1141.01 85.066 1140.81 85.12 1140.65 85.228C1140.51 85.336 1140.44 85.468 1140.44 85.624C1140.44 85.78 1140.51 85.912 1140.65 86.02C1140.81 86.128 1141.01 86.182 1141.27 86.182ZM1148.42 88C1147.65 88 1147.13 87.55 1146.87 86.65C1146.62 85.75 1146.49 84.508 1146.49 82.924C1146.49 82.204 1146.52 81.604 1146.58 81.124C1146.65 80.632 1146.81 80.218 1147.07 79.882C1147.33 79.534 1147.73 79.36 1148.27 79.36C1148.61 79.36 1148.9 79.438 1149.15 79.594C1149.42 79.75 1149.59 79.972 1149.66 80.26C1149.92 80.02 1150.26 79.84 1150.68 79.72C1151.1 79.6 1151.55 79.54 1152.03 79.54C1152.42 79.54 1152.81 79.636 1153.2 79.828C1153.61 80.02 1153.95 80.284 1154.21 80.62C1154.49 80.944 1154.63 81.298 1154.63 81.682C1154.63 82.066 1154.49 82.408 1154.21 82.708C1153.95 82.996 1153.59 83.14 1153.15 83.14C1153.01 83.14 1152.87 83.122 1152.74 83.086C1152.62 83.05 1152.51 83.014 1152.41 82.978C1152.17 82.882 1151.98 82.834 1151.84 82.834C1151.37 82.834 1150.95 83.02 1150.59 83.392C1150.25 83.752 1150.07 84.22 1150.07 84.796C1150.07 85.432 1150.05 85.96 1150 86.38C1149.95 86.8 1149.81 87.178 1149.57 87.514C1149.33 87.838 1148.94 88 1148.42 88ZM1158.55 91.078C1157.86 91.078 1157.29 90.946 1156.84 90.682C1156.4 90.43 1156.18 90.082 1156.18 89.638C1156.18 89.242 1156.33 88.918 1156.63 88.666C1156.94 88.426 1157.33 88.306 1157.8 88.306C1157.88 88.306 1158.02 88.318 1158.21 88.342C1158.45 88.378 1158.67 88.396 1158.88 88.396C1159.39 88.396 1159.84 88.306 1160.21 88.126C1160.59 87.958 1160.83 87.73 1160.91 87.442C1160.72 87.55 1160.45 87.64 1160.1 87.712C1159.75 87.784 1159.38 87.82 1158.98 87.82C1157.96 87.82 1157.12 87.622 1156.46 87.226C1155.82 86.83 1155.35 86.344 1155.06 85.768C1154.77 85.18 1154.63 84.604 1154.63 84.04C1154.63 83.104 1154.83 82.294 1155.24 81.61C1155.66 80.926 1156.2 80.404 1156.86 80.044C1157.52 79.684 1158.21 79.504 1158.93 79.504C1159.17 79.504 1159.45 79.522 1159.76 79.558C1160.08 79.594 1160.35 79.636 1160.57 79.684C1160.66 79.36 1160.83 79.108 1161.05 78.928C1161.29 78.748 1161.65 78.658 1162.12 78.658C1162.9 78.658 1163.46 79.144 1163.81 80.116C1164.17 81.088 1164.35 82.288 1164.35 83.716C1164.35 84.388 1164.31 85.024 1164.24 85.624C1164.06 87.316 1163.47 88.648 1162.46 89.62C1161.45 90.592 1160.15 91.078 1158.55 91.078ZM1159.22 85.12C1159.59 85.12 1159.91 84.988 1160.19 84.724C1160.47 84.448 1160.6 84.124 1160.6 83.752C1160.6 83.38 1160.47 83.056 1160.19 82.78C1159.91 82.504 1159.59 82.366 1159.22 82.366C1158.85 82.366 1158.52 82.504 1158.25 82.78C1157.98 83.056 1157.85 83.38 1157.85 83.752C1157.85 84.124 1157.98 84.448 1158.25 84.724C1158.52 84.988 1158.85 85.12 1159.22 85.12ZM1168.29 88C1167.36 88 1166.59 87.79 1165.99 87.37C1165.39 86.938 1165.09 86.32 1165.09 85.516C1165.09 84.82 1165.39 84.268 1166.01 83.86C1166.62 83.452 1167.38 83.248 1168.29 83.248C1168.63 83.248 1168.94 83.278 1169.23 83.338C1169.53 83.386 1169.73 83.446 1169.84 83.518C1169.84 83.218 1169.71 82.972 1169.46 82.78C1169.21 82.576 1168.83 82.474 1168.31 82.474C1168.08 82.474 1167.9 82.492 1167.75 82.528C1167.61 82.564 1167.45 82.618 1167.28 82.69C1167.12 82.762 1166.96 82.816 1166.82 82.852C1166.68 82.888 1166.5 82.906 1166.28 82.906C1165.89 82.906 1165.59 82.81 1165.38 82.618C1165.16 82.414 1165.05 82.108 1165.05 81.7C1165.05 81.232 1165.22 80.836 1165.56 80.512C1165.9 80.188 1166.34 79.948 1166.85 79.792C1167.37 79.624 1167.88 79.54 1168.4 79.54C1169.42 79.54 1170.27 79.732 1170.96 80.116C1171.65 80.488 1172.16 80.986 1172.49 81.61C1172.82 82.234 1172.99 82.924 1172.99 83.68C1172.99 84.088 1172.95 84.466 1172.88 84.814C1172.82 85.162 1172.74 85.432 1172.63 85.624C1172.8 85.768 1172.92 85.936 1173.01 86.128C1173.1 86.32 1173.15 86.518 1173.15 86.722C1173.15 87.07 1173.03 87.37 1172.79 87.622C1172.56 87.874 1172.26 88 1171.87 88C1171.59 88 1171.35 87.958 1171.17 87.874C1170.99 87.79 1170.8 87.658 1170.6 87.478C1170.3 87.658 1169.97 87.79 1169.61 87.874C1169.26 87.958 1168.82 88 1168.29 88ZM1168.65 86.182C1168.9 86.182 1169.1 86.128 1169.25 86.02C1169.4 85.912 1169.48 85.78 1169.48 85.624C1169.48 85.468 1169.4 85.336 1169.25 85.228C1169.1 85.12 1168.9 85.066 1168.65 85.066C1168.4 85.066 1168.2 85.12 1168.04 85.228C1167.9 85.336 1167.82 85.468 1167.82 85.624C1167.82 85.78 1167.9 85.912 1168.04 86.02C1168.2 86.128 1168.4 86.182 1168.65 86.182ZM1182.12 80.206C1182.12 80.83 1181.82 81.256 1181.23 81.484C1180.65 81.7 1179.84 81.814 1178.82 81.826C1178.81 82.126 1178.8 82.612 1178.8 83.284C1178.8 83.968 1178.85 84.454 1178.95 84.742C1179.01 84.946 1179.1 85.078 1179.22 85.138C1179.35 85.198 1179.54 85.24 1179.79 85.264C1179.88 85.276 1179.97 85.294 1180.06 85.318C1180.17 85.33 1180.29 85.348 1180.42 85.372C1180.7 85.432 1180.92 85.582 1181.07 85.822C1181.23 86.05 1181.31 86.344 1181.31 86.704C1181.31 87.112 1181.1 87.43 1180.68 87.658C1180.26 87.886 1179.68 88 1178.95 88C1178.28 88 1177.63 87.808 1177.02 87.424C1176.41 87.028 1175.99 86.5 1175.76 85.84C1175.52 85.132 1175.4 83.794 1175.4 81.826C1174.56 81.802 1173.88 81.694 1173.37 81.502C1172.86 81.298 1172.61 80.938 1172.61 80.422C1172.61 79.774 1172.85 79.342 1173.33 79.126C1173.81 78.898 1174.5 78.778 1175.4 78.766C1175.44 77.806 1175.59 77.008 1175.85 76.372C1176.12 75.724 1176.59 75.4 1177.27 75.4C1177.97 75.4 1178.42 75.7 1178.62 76.3C1178.84 76.9 1178.94 77.722 1178.91 78.766C1180 78.754 1180.81 78.838 1181.32 79.018C1181.85 79.198 1182.12 79.594 1182.12 80.206ZM1186.64 88C1185.75 88 1184.96 87.826 1184.28 87.478C1183.6 87.13 1183.06 86.644 1182.68 86.02C1182.31 85.384 1182.12 84.67 1182.12 83.878C1182.12 83.098 1182.31 82.378 1182.68 81.718C1183.06 81.058 1183.59 80.53 1184.26 80.134C1184.93 79.738 1185.7 79.54 1186.55 79.54C1187.32 79.54 1187.99 79.696 1188.58 80.008C1189.17 80.32 1189.62 80.734 1189.93 81.25C1190.24 81.754 1190.4 82.282 1190.4 82.834C1190.4 83.734 1190.06 84.394 1189.37 84.814C1188.7 85.222 1187.9 85.426 1186.96 85.426C1186.34 85.426 1185.81 85.348 1185.38 85.192C1185.74 85.78 1186.33 86.074 1187.16 86.074C1187.5 86.074 1187.86 86.032 1188.24 85.948C1188.38 85.912 1188.52 85.894 1188.65 85.894C1188.92 85.894 1189.13 85.96 1189.28 86.092C1189.45 86.224 1189.54 86.404 1189.54 86.632C1189.54 87.004 1189.31 87.328 1188.85 87.604C1188.4 87.868 1187.66 88 1186.64 88ZM1185.43 82.996C1185.54 83.164 1185.68 83.29 1185.86 83.374C1186.06 83.446 1186.27 83.482 1186.49 83.482C1186.76 83.482 1186.99 83.422 1187.18 83.302C1187.38 83.182 1187.48 83.026 1187.48 82.834C1187.48 82.618 1187.39 82.432 1187.21 82.276C1187.05 82.12 1186.8 82.042 1186.48 82.042C1186.15 82.042 1185.89 82.144 1185.7 82.348C1185.52 82.54 1185.43 82.756 1185.43 82.996Z" fill="black"/>
  <defs>
    <linearGradient id="paint0_linear_22057_76" x1="772" y1="216" x2="772" y2="513" gradientUnits="userSpaceOnUse">
      <stop stop-color="#DEEBFF"/>
      <stop offset="1" stop-color="#609BFF"/>
    </linearGradient>
  </defs>
</svg>
