<svg xmlns="http://www.w3.org/2000/svg" width="94" height="110" viewBox="0 0 94 110" fill="none">
  <path d="M4.62786 60.4239C3.86663 60.99 3.41797 61.8827 3.41797 62.8313V74.5378C3.41797 78.0449 5.25522 81.2957 8.25975 83.1048L9.77153 80.5939L8.25976 83.1048L44.9318 105.185C48.3636 107.252 52.6974 107.07 55.9449 104.725L86.1917 82.8801C88.6367 81.1143 90.1541 78.3393 90.3214 75.328L90.9395 64.2026C90.9976 63.1559 90.5052 62.1548 89.6407 61.562L78.6257 54.0089C77.538 53.263 76.8878 52.0289 76.8878 50.71V40.9579C76.8878 38.5447 75.6507 36.3001 73.6104 35.0114L71.8954 33.9283C72.3713 33.4127 72.7372 32.7981 72.9629 32.1212L73.1426 31.582C74.4671 30.713 75.2814 29.2281 75.2814 27.6194V25.326C75.2814 22.3821 73.7494 19.6503 71.2373 18.1152L67.2493 15.6781V14.4701C67.2493 12.3054 66.152 10.2884 64.3346 9.11248L62.7049 11.6312L64.3346 9.11248L60.0003 6.30793C58.482 5.32546 56.5422 5.29995 55.0035 6.22577L52.3287 4.55408C49.2854 2.65199 45.41 2.70897 42.4239 4.69971L40.5484 5.95005L42.1686 8.38027L40.5484 5.95006C39.3181 6.7703 38.5294 8.09453 38.3826 9.54874C37.9266 9.6691 37.4881 9.8719 37.0901 10.1562L32.3213 13.5625L32.8569 14.3124L32.3213 13.5625C32.0626 13.7473 31.8311 13.9614 31.63 14.1986C30.8616 14.2446 30.1094 14.5085 29.4688 14.9783L26.7814 16.949C24.2127 18.8327 22.6951 21.8276 22.6951 25.013V29.3551C22.6951 31.4941 23.8174 33.4764 25.6516 34.5769C25.6725 34.5895 25.6806 34.5978 25.682 34.5994C25.6839 34.6013 25.6847 34.6026 25.6857 34.6044C25.6884 34.6094 25.6955 34.6268 25.6952 34.6548C25.6949 34.6828 25.6874 34.7 25.6846 34.705C25.6836 34.7068 25.6827 34.708 25.6808 34.7099C25.6793 34.7115 25.6712 34.7196 25.65 34.7317L23.9362 35.711C21.6787 37.0011 20.2854 39.4018 20.2854 42.002V47.296C19.6717 47.9387 19.2673 48.7566 19.1313 49.6393L4.62786 60.4239Z" fill="#664422" stroke="white" stroke-width="6" stroke-linecap="round" stroke-linejoin="round"/>
  <path d="M46.4792 102.615L9.80722 80.5347C7.70405 79.2683 6.41797 76.9928 6.41797 74.5378V62.8313L21.4563 51.649C21.8491 51.3569 22.0806 50.8962 22.0806 50.4068V50.3023C22.0806 49.85 22.3067 49.4276 22.683 49.1767C23.0594 48.9258 23.2854 48.5034 23.2854 48.0511V42.002C23.2854 40.4784 24.1018 39.0717 25.4246 38.3158L27.1384 37.3364C29.1888 36.1648 29.2201 33.2194 27.1951 32.0045C26.2645 31.4461 25.6951 30.4404 25.6951 29.3551V25.013C25.6951 22.7832 26.7574 20.6868 28.5555 19.3682L31.2429 17.3975C31.5391 17.1802 31.9265 17.1311 32.2676 17.2676L32.6211 17.409C33.1509 17.6209 33.7272 17.2307 33.7272 16.6601C33.7272 16.3996 33.853 16.1551 34.065 16.0037L38.8338 12.5974C39.1471 12.3736 39.5632 12.357 39.8933 12.5551C40.5378 12.9418 41.3577 12.4775 41.3577 11.726V10.0434C41.3577 9.40157 41.6785 8.80222 42.2125 8.44621L44.088 7.19586C46.0931 5.85915 48.6953 5.82089 50.7387 7.09808L53.4959 8.82129C53.6898 8.94246 53.8075 9.15495 53.8075 9.38356C53.8075 9.91314 54.3977 10.229 54.8384 9.93526L56.4819 8.83958C57.0526 8.45912 57.7947 8.45404 58.3706 8.82664L62.7049 11.6312C63.6678 12.2543 64.2493 13.3231 64.2493 14.4701V17.2246C64.2493 17.5708 64.5299 17.8514 64.8761 17.8514C64.9915 17.8514 65.1046 17.8832 65.203 17.9434L69.673 20.675C71.2932 21.6652 72.2814 23.4272 72.2814 25.326V27.6194C72.2814 28.2785 71.9091 28.881 71.3196 29.1757C70.9069 29.3821 70.593 29.7439 70.4471 30.1817L70.1168 31.1725C69.9592 31.6453 69.6301 32.0419 69.1944 32.284C67.8717 33.0188 67.8188 34.9018 69.0981 35.7098L72.0084 37.5479C73.1784 38.2869 73.8878 39.5741 73.8878 40.9579V50.71C73.8878 53.018 75.0256 55.1778 76.9292 56.4831L87.9441 64.0361L87.326 75.1616C87.2089 77.2695 86.1467 79.212 84.4352 80.4481L54.1884 102.293C51.9152 103.935 48.8815 104.062 46.4792 102.615Z" fill="#664422"/>
  <path d="M87.9441 64.0361L87.326 75.1616C87.2089 77.2695 86.1467 79.212 84.4352 80.4481L54.1884 102.293C51.9152 103.935 48.8815 104.062 46.4792 102.615L9.80722 80.5347C7.70405 79.2683 6.41797 76.9928 6.41797 74.5378V62.8313M87.9441 64.0361L46.4757 46.0415C44.5999 45.2276 42.4621 45.2745 40.6238 46.1699L6.41797 62.8313M87.9441 64.0361L76.9292 56.4831C75.0256 55.1778 73.8879 53.018 73.8879 50.71V40.9579C73.8879 39.5741 73.1784 38.2869 72.0084 37.5479L69.0981 35.7098C67.8188 34.9018 67.8717 33.0188 69.1944 32.284V32.284C69.6301 32.0419 69.9592 31.6453 70.1168 31.1725L70.4471 30.1817C70.593 29.7439 70.9069 29.3821 71.3196 29.1757V29.1757C71.9091 28.881 72.2814 28.2785 72.2814 27.6194V25.326C72.2814 23.4272 71.2932 21.6652 69.673 20.675L65.203 17.9434C65.1046 17.8832 64.9915 17.8514 64.8761 17.8514V17.8514C64.5299 17.8514 64.2493 17.5708 64.2493 17.2246V14.4701C64.2493 13.3231 63.6678 12.2543 62.7049 11.6312L58.3706 8.82664C57.7947 8.45404 57.0526 8.45912 56.4819 8.83958L54.8384 9.93526C54.3977 10.229 53.8075 9.91314 53.8075 9.38356V9.38356C53.8075 9.15495 53.6898 8.94246 53.4959 8.82129L50.7387 7.09808C48.6953 5.82089 46.0931 5.85915 44.088 7.19586L42.2125 8.44621C41.6785 8.80222 41.3577 9.40157 41.3577 10.0434V11.726C41.3577 12.4775 40.5378 12.9418 39.8933 12.5551V12.5551C39.5632 12.357 39.1471 12.3736 38.8338 12.5974L34.065 16.0037C33.853 16.1551 33.7272 16.3996 33.7272 16.6601V16.6601C33.7272 17.2307 33.1509 17.6209 32.6211 17.409L32.2676 17.2676C31.9265 17.1311 31.5391 17.1802 31.2429 17.3975L28.5555 19.3682C26.7574 20.6868 25.6951 22.7832 25.6951 25.013V29.3551C25.6951 30.4404 26.2645 31.4461 27.1951 32.0045V32.0045C29.2201 33.2194 29.1888 36.1648 27.1384 37.3364L25.4246 38.3158C24.1018 39.0717 23.2854 40.4784 23.2854 42.002V48.0511C23.2854 48.5034 23.0594 48.9258 22.683 49.1767V49.1767C22.3067 49.4276 22.0806 49.85 22.0806 50.3023V50.4068C22.0806 50.8962 21.8491 51.3569 21.4563 51.649L6.41797 62.8313" stroke="black" stroke-width="3" stroke-linecap="round" stroke-linejoin="round"/>
  <path d="M47.6454 37.8029L83.2145 60.9289C87.387 63.6417 87.4754 69.7197 83.3835 72.5527L54.1336 92.8042C51.8829 94.3625 48.9305 94.4658 46.5765 93.0688L10.9468 71.9245C6.6732 69.3883 6.32951 63.3309 10.2888 60.3277L39.5994 38.0945C41.9516 36.3103 45.1703 36.1936 47.6454 37.8029Z" fill="#AEFB43" stroke="black" stroke-linecap="round" stroke-linejoin="round"/>
  <ellipse cx="49.7907" cy="87.3291" rx="4.41767" ry="2.40964" fill="#AABB33"/>
  <ellipse cx="61.8391" cy="78.8957" rx="3.61446" ry="2.00803" fill="#AABB33"/>
  <ellipse cx="15.2531" cy="65.2409" rx="3.61446" ry="2.00803" fill="#AABB33"/>
  <path d="M34.9306 27.0887L34.5503 22.9061C34.4527 21.8324 35.944 21.3538 36.5145 22.2686C37.7225 24.2055 39.0846 26.2457 40.1514 27.4903C40.6156 28.0318 41.0891 28.1341 41.5516 27.9361C42.6242 27.477 45.2319 27.762 45.3841 28.9187C45.5668 30.3073 45.8228 31.4376 46.1755 31.908C47.3804 33.5144 57.0189 32.7112 57.0189 27.0887C57.0189 25.3669 57.1759 23.5901 57.3996 21.9476C57.553 20.8216 59.056 20.9202 59.2499 22.0399C59.635 24.263 60.212 26.1209 61.035 26.2855C62.2602 26.5306 62.9403 25.5453 63.2535 24.6481C63.4072 24.2078 63.7833 23.8626 64.2216 24.0217C66.2842 24.7704 70.1502 28.1839 69.8703 30.7032C69.5746 33.3644 64.2673 33.7351 61.6494 34.5078C61.2693 34.62 61.0287 34.975 61.0191 35.3712L60.6572 50.2095C60.6439 50.7521 60.2003 51.1851 59.6575 51.1851H35.9771C35.4069 51.1851 34.9522 50.7092 34.9781 50.1397L35.6976 34.3102C35.7188 33.8445 35.4152 33.4279 34.9715 33.285C32.4044 32.4577 28.2823 30.6161 27.7017 28.2935C27.6004 27.8884 27.5111 27.4913 27.4325 27.1065C27.2187 26.06 28.4307 25.7127 28.9688 26.6355C29.8786 28.1956 30.8004 29.4984 31.3161 29.4984C31.6792 29.4984 31.9017 28.8524 32.0309 27.9255C32.1731 26.9047 34.2018 26.3599 34.9306 27.0887Z" fill="#DA9E66"/>
  <path d="M34.9306 27.0887L34.5503 22.9061C34.4527 21.8324 35.944 21.3538 36.5145 22.2686C37.7225 24.2055 39.0846 26.2457 40.1514 27.4903C40.6156 28.0318 41.0891 28.1341 41.5516 27.9361C42.6242 27.477 45.2319 27.762 45.3841 28.9187C45.5668 30.3073 45.8228 31.4376 46.1755 31.908C47.3804 33.5144 57.0189 32.7112 57.0189 27.0887C57.0189 25.3669 57.1759 23.5901 57.3996 21.9476C57.553 20.8216 59.056 20.9202 59.2499 22.0399C59.635 24.263 60.212 26.1209 61.035 26.2855C62.2602 26.5306 62.9403 25.5453 63.2535 24.6481C63.4072 24.2078 63.7833 23.8626 64.2216 24.0217C66.2842 24.7704 70.1502 28.1839 69.8703 30.7032C69.5746 33.3644 64.2673 33.7351 61.6494 34.5078C61.2693 34.62 61.0287 34.975 61.0191 35.3712L60.6572 50.2095C60.6439 50.7521 60.2003 51.1851 59.6575 51.1851H35.9771C35.4069 51.1851 34.9522 50.7092 34.9781 50.1397L35.6976 34.3102C35.7188 33.8445 35.4152 33.4279 34.9715 33.285C32.4044 32.4577 28.2823 30.6161 27.7017 28.2935C27.6004 27.8884 27.5111 27.4913 27.4325 27.1065C27.2187 26.06 28.4307 25.7127 28.9688 26.6355C29.8786 28.1956 30.8004 29.4984 31.3161 29.4984C31.6792 29.4984 31.9017 28.8524 32.0309 27.9255C32.1731 26.9047 34.2018 26.3599 34.9306 27.0887V27.0887ZM34.9306 27.0887L39.1125 31.2707C39.2655 31.4237 39.3648 31.6222 39.3954 31.8364L40.1514 37.1289" stroke="black" stroke-linecap="round" stroke-linejoin="round"/>
  <path d="M59.832 27.8696V23.2696C59.832 22.7173 60.2797 22.2696 60.832 22.2696L70.8802 22.2695C71.4325 22.2695 71.8802 22.7172 71.8802 23.2695V28.1956C71.8802 28.5701 71.671 28.9131 71.3381 29.0846L66.34 31.6589C66.0383 31.8142 65.6784 31.806 65.3841 31.637L60.334 28.7368C60.0235 28.5584 59.832 28.2277 59.832 27.8696Z" fill="#4DB231" stroke="black" stroke-linecap="round" stroke-linejoin="round"/>
  <path d="M51.7988 18.2309V13.6309C51.7988 13.0787 52.2465 12.6309 52.7988 12.6309L62.847 12.6309C63.3993 12.6309 63.847 13.0786 63.847 13.6309V18.5569C63.847 18.9314 63.6378 19.2745 63.3049 19.4459L58.3068 22.0202C58.0051 22.1756 57.6452 22.1674 57.3509 21.9983L52.3008 19.0981C51.9903 18.9198 51.7988 18.589 51.7988 18.2309Z" fill="#4DB231" stroke="black" stroke-linecap="round" stroke-linejoin="round"/>
  <path d="M42.1602 14.4979V10.418C42.1602 9.86575 42.6079 9.41804 43.1602 9.41804L52.4051 9.41798C52.9574 9.41797 53.4051 9.86569 53.4051 10.418V14.7944C53.4051 15.1714 53.193 15.5165 52.8565 15.6867L48.2597 18.012C47.9616 18.1628 47.608 18.1548 47.317 17.9907L42.6689 15.3689C42.3546 15.1917 42.1602 14.8588 42.1602 14.4979Z" fill="#4DB231" stroke="black" stroke-linecap="round" stroke-linejoin="round"/>
  <path d="M34.1289 21.7269V17.647C34.1289 17.0948 34.5766 16.647 35.1289 16.647L44.3739 16.647C44.9262 16.647 45.3739 17.0947 45.3739 17.647V22.0234C45.3739 22.4004 45.1618 22.7455 44.8253 22.9157L40.2284 25.241C39.9304 25.3918 39.5767 25.3838 39.2858 25.2197L34.6376 22.5979C34.3233 22.4207 34.1289 22.0878 34.1289 21.7269Z" fill="#4DB231" stroke="black" stroke-linecap="round" stroke-linejoin="round"/>
  <path d="M26.0957 30.2795V22.8682C26.0957 22.316 26.5434 21.8682 27.0957 21.8682L37.1439 21.8682C37.6962 21.8682 38.1439 22.3159 38.1439 22.8682L38.1439 30.6055C38.1439 30.9799 37.9347 31.323 37.6018 31.4945L32.6037 34.0687C32.302 34.2241 31.9421 34.2159 31.6478 34.0469L26.5977 31.1466C26.2872 30.9683 26.0957 30.6376 26.0957 30.2795Z" fill="#4DB231" stroke="black" stroke-linecap="round" stroke-linejoin="round"/>
  <path d="M65.9047 18.6148L71.3761 22.0522C71.9896 22.4376 72.0024 23.3272 71.4002 23.7301L66.8953 26.7439C66.5796 26.9551 66.1714 26.9692 65.8418 26.7802L60.3614 23.6376C59.7338 23.2777 59.6842 22.3912 60.2676 21.9635L64.7816 18.655C65.1123 18.4126 65.5575 18.3967 65.9047 18.6148Z" fill="#E2FB43" stroke="black" stroke-linecap="round" stroke-linejoin="round"/>
  <path d="M57.8735 8.97613L63.3449 12.4135C63.9584 12.7989 63.9711 13.6885 63.3689 14.0914L58.8641 17.1052C58.5483 17.3165 58.1401 17.3306 57.8106 17.1416L52.3301 13.9989C51.7026 13.639 51.6529 12.7525 52.2364 12.3248L56.7503 9.01634C57.081 8.77393 57.5262 8.75799 57.8735 8.97613Z" fill="#E2FB43" stroke="black" stroke-linecap="round" stroke-linejoin="round"/>
  <path d="M47.8499 5.74229L52.8439 8.77281C53.475 9.15576 53.4878 10.067 52.8679 10.4676L48.7806 13.1088C48.4708 13.309 48.076 13.3224 47.7533 13.1437L42.7498 10.3723C42.1051 10.0153 42.055 9.10722 42.6565 8.68139L46.7533 5.78103C47.0784 5.55082 47.5092 5.5356 47.8499 5.74229Z" fill="#E2FB43" stroke="black" stroke-linecap="round" stroke-linejoin="round"/>
  <path d="M39.8166 12.9713L44.8107 16.0018C45.4418 16.3848 45.4546 17.296 44.8347 17.6966L40.7474 20.3378C40.4376 20.538 40.0428 20.5514 39.7201 20.3727L34.7166 17.6013C34.0719 17.2443 34.0218 16.3362 34.6233 15.9104L38.72 13.01C39.0452 12.7798 39.476 12.7646 39.8166 12.9713Z" fill="#E2FB43" stroke="black" stroke-linecap="round" stroke-linejoin="round"/>
  <path d="M32.1703 17.8116L37.6417 21.249C38.2552 21.6344 38.268 22.524 37.6658 22.9269L33.1609 25.9407C32.8452 26.1519 32.437 26.166 32.1074 25.977L26.627 22.8343C25.9994 22.4745 25.9498 21.588 26.5333 21.1603L31.0472 17.8518C31.3779 17.6094 31.8231 17.5934 32.1703 17.8116Z" fill="#E2FB43" stroke="black" stroke-linecap="round" stroke-linejoin="round"/>
  <path d="M39.75 26.5523V16.0405C39.75 15.4882 40.1977 15.0405 40.75 15.0405H59.2319C59.7842 15.0405 60.2319 15.4882 60.2319 16.0405V27.0135C60.2319 27.3736 60.0383 27.7059 59.725 27.8835L50.3141 33.2175C49.9918 33.4001 49.5949 33.3897 49.2826 33.1902L40.2116 27.395C39.924 27.2113 39.75 26.8935 39.75 26.5523Z" fill="#4DB231" stroke="black" stroke-linecap="round" stroke-linejoin="round"/>
  <path d="M49.5441 8.19181L59.3774 14.5568C59.9758 14.9441 59.9884 15.8151 59.4016 16.2196L51.1508 21.9067C50.83 22.1278 50.4101 22.1425 50.0746 21.9443L40.2325 16.1295C39.6198 15.7675 39.5706 14.8994 40.1386 14.4706L48.398 8.23328C48.7334 7.98004 49.1913 7.96347 49.5441 8.19181Z" fill="#E2FB43" stroke="black" stroke-linecap="round" stroke-linejoin="round"/>
  <path d="M35.7344 29.9686V24.0728C35.7344 23.5205 36.1821 23.0728 36.7344 23.0728L44.7745 23.0728C45.3268 23.0728 45.7745 23.5205 45.7745 24.0728V30.2444C45.7745 30.6142 45.5705 30.9538 45.244 31.1274L41.2506 33.2507C40.9425 33.4145 40.5713 33.4059 40.2711 33.228L36.2244 30.8288C35.9206 30.6487 35.7344 30.3217 35.7344 29.9686Z" fill="#4DB231" stroke="black" stroke-linecap="round" stroke-linejoin="round"/>
  <path d="M40.6942 20.2172L44.8598 22.8173C45.4766 23.2023 45.4894 24.0959 44.8839 24.4984L41.4998 26.7477C41.1852 26.9568 40.7795 26.9708 40.4512 26.7838L36.2765 24.4054C35.6457 24.046 35.596 23.1554 36.1828 22.7281L39.576 20.2572C39.9057 20.0171 40.3482 20.0013 40.6942 20.2172Z" fill="#E2FB43" stroke="black" stroke-linecap="round" stroke-linejoin="round"/>
  <path d="M27.7017 28.2934C28.3329 30.8185 33.1506 32.7752 35.6045 33.4778C35.6914 33.5027 35.7796 33.5143 35.8701 33.5143H36.3158C37.3162 33.5143 37.6967 32.2077 36.8527 31.6706L35.7953 30.9977C35.5068 30.8142 35.3322 30.496 35.3322 30.1541V27.4588C35.3322 27.2217 35.2311 26.9893 35.069 26.8165C34.3839 26.0861 32.1747 26.7845 32.0503 27.7782C31.9245 28.7831 31.6981 29.4982 31.3161 29.4982C30.8004 29.4982 29.8786 28.1954 28.9688 26.6353C28.4307 25.7126 27.2187 26.0598 27.4325 27.1064C27.5111 27.4911 27.6004 27.8883 27.7017 28.2934Z" fill="#DA9E66"/>
  <path d="M35.7338 27.4902C35.6609 27.4173 35.586 27.3403 35.5095 27.2596C34.7384 26.4466 32.1739 27.2784 31.9556 28.3774C31.8209 29.0556 31.6167 29.4982 31.3161 29.4982C30.8004 29.4982 29.8786 28.1954 28.9688 26.6353C28.4307 25.7126 27.2187 26.0598 27.4325 27.1064C27.5111 27.4911 27.6004 27.8883 27.7017 28.2934C28.3442 30.8637 33.3241 32.8449 35.7338 33.5143" stroke="black" stroke-linecap="round" stroke-linejoin="round"/>
  <path d="M57.8225 25.0807C57.5757 26.8085 57.076 28.2518 56.4328 29.5564C56.142 30.1461 56.4374 30.8731 57.0718 31.0461L59.1645 31.6169C59.7359 31.7727 60.3167 31.4006 60.414 30.8165L60.6201 29.58C60.6292 29.5257 60.6337 29.4707 60.6337 29.4156V18.3329C60.6337 17.8454 60.2385 17.4502 59.751 17.4502C59.3302 17.4502 58.9711 17.7478 58.9007 18.1627C58.6517 19.6296 58.1487 22.7969 57.8225 25.0807Z" fill="#DA9E66"/>
  <path d="M55.8145 30.7032C56.7515 29.0968 57.5012 27.3297 57.8225 25.0807C58.1487 22.7969 58.6517 19.6296 58.9007 18.1627C58.9711 17.7478 59.3302 17.4502 59.751 17.4502V17.4502C60.2385 17.4502 60.6337 17.8454 60.6337 18.3329V29.4156C60.6337 29.4707 60.6292 29.5257 60.6201 29.58L60.2321 31.908" stroke="black" stroke-linecap="round" stroke-linejoin="round"/>
  <path d="M45.7752 30.5248C45.9229 31.0994 46.1612 31.6173 46.4667 32.096C46.914 32.7969 46.5878 33.8295 45.7658 33.9541L44.2237 34.1877C43.7314 34.2623 43.2592 33.9633 43.1161 33.4864L43.0061 33.1197C42.9781 33.0264 42.9639 32.9296 42.9639 32.8323V27.229C42.9639 26.708 43.3863 26.2856 43.9073 26.2856C44.3051 26.2856 44.6542 26.5365 44.7683 26.9176C45.0331 27.8023 45.4776 29.3677 45.7752 30.5248Z" fill="#DA9E66"/>
  <path d="M47.7832 33.6484C46.8461 32.756 46.0965 31.7743 45.7752 30.5248C45.4776 29.3677 45.0331 27.8023 44.7683 26.9176C44.6542 26.5365 44.3051 26.2856 43.9073 26.2856V26.2856C43.3863 26.2856 42.9639 26.708 42.9639 27.229V32.8323C42.9639 32.9296 42.9781 33.0264 43.0061 33.1197L43.3234 34.1772C43.3513 34.2704 43.3655 34.3672 43.3655 34.4645V43.9563" stroke="black" stroke-linecap="round" stroke-linejoin="round"/>
  <path d="M45.373 35.0478V31.3018C45.373 30.7495 45.8208 30.3018 46.373 30.3018L54.4132 30.3018C54.9655 30.3018 55.4132 30.7495 55.4132 31.3018V35.3236C55.4132 35.6934 55.2092 36.033 54.8827 36.2066L50.8892 38.3299C50.5812 38.4937 50.2099 38.4851 49.9098 38.3072L45.8631 35.908C45.5593 35.7279 45.373 35.4009 45.373 35.0478Z" fill="#4DB231" stroke="black" stroke-linecap="round" stroke-linejoin="round"/>
  <path d="M50.3329 27.4462L54.4985 30.0463C55.1153 30.4313 55.1281 31.3249 54.5226 31.7274L51.1385 33.9767C50.8238 34.1858 50.4182 34.1998 50.0899 34.0128L45.9151 31.6344C45.2844 31.275 45.2346 30.3844 45.8215 29.9571L49.2147 27.4862C49.5444 27.2461 49.9869 27.2303 50.3329 27.4462Z" fill="#E2FB43" stroke="black" stroke-linecap="round" stroke-linejoin="round"/>
  <path d="M73.5841 68.1044L75.5927 60.9306C75.8401 60.0472 74.8668 59.3248 74.0929 59.8173L67.8381 63.7976C67.5987 63.95 67.4352 64.1969 67.3886 64.4769L66.2413 71.3606C66.0964 72.2298 67.0651 72.8479 67.7924 72.3503L73.1858 68.6601C73.3797 68.5274 73.5207 68.3307 73.5841 68.1044Z" fill="#3BACC8" stroke="black" stroke-linecap="round" stroke-linejoin="round"/>
  <path d="M58.9896 67.5903L58.391 60.7073C58.3213 59.9056 59.1788 59.3541 59.8793 59.7501L66.8445 63.6869C67.2151 63.8964 67.4125 64.3175 67.3363 64.7364L66.1374 71.3304C66.0067 72.0494 65.1739 72.3899 64.5769 71.9685L59.4091 68.3206C59.1686 68.1508 59.0151 67.8836 58.9896 67.5903Z" fill="#30A4CF" stroke="black" stroke-linecap="round" stroke-linejoin="round"/>
  <path d="M65.9759 53.4443L74.6787 57.6345C75.3851 57.9746 75.4432 58.9583 74.7818 59.3792L67.977 63.7095C67.6612 63.9105 67.2596 63.9182 66.9363 63.7296L59.1896 59.2107C58.5554 58.8408 58.5228 57.9363 59.1288 57.5216L64.9774 53.52C65.2727 53.3179 65.6535 53.289 65.9759 53.4443Z" fill="#54CBF0" stroke="black" stroke-linecap="round" stroke-linejoin="round"/>
  <path d="M51.7005 56.2964L44.0225 60.7752C43.3657 61.1584 43.3599 62.1053 44.0119 62.4965L54.1483 68.5783C54.4369 68.7515 54.7933 68.7679 55.0966 68.6219L63.7467 64.457C64.4711 64.1082 64.5086 63.0905 63.8118 62.6894L52.7033 56.2936C52.3927 56.1147 52.0101 56.1158 51.7005 56.2964Z" fill="#406A80" stroke="black" stroke-linecap="round" stroke-linejoin="round"/>
  <path d="M21.2384 67.9422L20.6231 59.9429C20.5608 59.1333 21.4384 58.591 22.1346 59.0087L34.0453 66.1551C34.3465 66.3359 34.5308 66.6614 34.5308 67.0126V74.7112C34.5308 75.4905 33.679 75.9703 33.0125 75.5664L21.7172 68.7207C21.4414 68.5536 21.2632 68.2637 21.2384 67.9422Z" fill="#61AB6D" stroke="black" stroke-linecap="round" stroke-linejoin="round"/>
  <path d="M73.0853 55.4282V49.6678C73.0853 48.9063 72.2681 48.4243 71.6016 48.7926L58.3405 56.1211C58.022 56.2971 57.8242 56.6323 57.8242 56.9963V63.1057C57.8242 63.876 58.6586 64.3571 59.3253 63.9711L72.5863 56.2937C72.8951 56.1149 73.0853 55.7851 73.0853 55.4282Z" fill="#EE482C" stroke="black" stroke-linecap="round" stroke-linejoin="round"/>
  <path d="M48.9883 59.8042V53.9431C48.9883 53.2159 49.74 52.7318 50.4021 53.0328L57.2374 56.1397C57.5944 56.302 57.8236 56.658 57.8236 57.0501V63.2219C57.8236 63.9653 57.0413 64.4488 56.3764 64.1163L49.5411 60.6987C49.2023 60.5293 48.9883 60.183 48.9883 59.8042Z" fill="#A02B10" stroke="black" stroke-linecap="round" stroke-linejoin="round"/>
  <path d="M65.0531 72.6765V65.2533C65.0531 64.5099 64.2708 64.0264 63.6059 64.3589L55.1641 68.5797C54.8253 68.7491 54.6113 69.0954 54.6113 69.4742V77.2221C54.6113 77.9788 55.4192 78.4613 56.0854 78.1026L64.5272 73.557C64.8511 73.3826 65.0531 73.0444 65.0531 72.6765Z" fill="#278081" stroke="black" stroke-linecap="round" stroke-linejoin="round"/>
  <path d="M28.4214 54.2285L22.1575 57.2113C21.4372 57.5543 21.3888 58.5612 22.0729 58.9716L34.0254 66.1431C34.3373 66.3303 34.7262 66.3333 35.0409 66.1511L40.7005 62.8745C41.3581 62.4937 41.3676 61.5477 40.7178 61.1538L29.3696 54.2761C29.0817 54.1016 28.7253 54.0837 28.4214 54.2285Z" fill="#AED18A" stroke="black" stroke-linecap="round" stroke-linejoin="round"/>
  <path d="M41.6517 61.9491L35.9045 65.5789C35.2747 65.9767 35.2853 66.8987 35.924 67.2819L46.1087 73.3927C46.4019 73.5686 46.7646 73.5826 47.0704 73.4297L53.7501 70.0898C54.4631 69.7333 54.4927 68.7266 53.8018 68.3288L42.6846 61.928C42.3631 61.7428 41.9654 61.751 41.6517 61.9491Z" fill="#D9D9D9" stroke="black" stroke-linecap="round" stroke-linejoin="round"/>
  <path d="M36.5391 63.0732V57.1898C36.5391 56.454 37.3068 55.9702 37.9705 56.2876L45.2075 59.7488C45.5549 59.9149 45.776 60.2658 45.776 60.6509V67.4783C45.776 68.2584 44.9225 68.7381 44.2561 68.3325L37.0191 63.9274C36.721 63.7459 36.5391 63.4222 36.5391 63.0732Z" fill="#99D4E9" stroke="black" stroke-linecap="round" stroke-linejoin="round"/>
  <path d="M23.2852 55.828V50.1037C23.2852 49.3344 24.1175 48.8532 24.7841 49.2371L36.0371 55.7161C36.3471 55.8945 36.5382 56.225 36.5382 56.5827V62.307C36.5382 63.0763 35.7059 63.5575 35.0392 63.1736L23.7862 56.6946C23.4762 56.5162 23.2852 56.1857 23.2852 55.828Z" fill="#FDC468" stroke="black" stroke-linecap="round" stroke-linejoin="round"/>
  <path d="M34.5312 75.9203V68.2125C34.5312 67.4352 35.3792 66.9551 36.0457 67.355L46.0939 73.3839C46.3951 73.5646 46.5794 73.8901 46.5794 74.2414V81.9492C46.5794 82.7265 45.7315 83.2066 45.0649 82.8067L35.0168 76.7778C34.7155 76.597 34.5312 76.2715 34.5312 75.9203Z" fill="#AFCA94" stroke="black" stroke-linecap="round" stroke-linejoin="round"/>
  <path d="M55.4139 63.0605V56.0769C55.4139 55.3191 54.604 54.8367 53.9377 55.1976L46.2991 59.3352C45.9764 59.5099 45.7754 59.8475 45.7754 60.2144V67.5164C45.7754 68.2881 46.6126 68.769 47.2793 68.3801L54.9178 63.9243C55.225 63.7451 55.4139 63.4162 55.4139 63.0605Z" fill="#2C8A8D" stroke="black" stroke-linecap="round" stroke-linejoin="round"/>
  <path d="M47.0638 50.2224L53.6974 53.5392C54.421 53.901 54.4379 54.9276 53.7265 55.3129L46.2141 59.3821C45.9386 59.5313 45.6092 59.5428 45.324 59.4132L38.7014 56.403C37.9627 56.0672 37.9104 55.0377 38.6114 54.6288L46.1127 50.253C46.4042 50.083 46.7619 50.0714 47.0638 50.2224Z" fill="#74D8DB" stroke="black" stroke-linecap="round" stroke-linejoin="round"/>
  <path d="M24.0898 48.1992V40.8717C24.0898 40.1013 24.9242 39.6203 25.5909 40.0062L31.2214 43.266C31.5302 43.4448 31.7204 43.7746 31.7204 44.1314V51.459C31.7204 52.2293 30.886 52.7104 30.2193 52.3244L24.5888 49.0646C24.28 48.8858 24.0898 48.556 24.0898 48.1992Z" stroke="black" stroke-linecap="round" stroke-linejoin="round"/>
  <path d="M24.0898 48.1992V40.8717C24.0898 40.1013 24.9242 39.6203 25.5909 40.0062L31.2214 43.266C31.5302 43.4448 31.7204 43.7746 31.7204 44.1314V51.459C31.7204 52.2293 30.886 52.7104 30.2193 52.3244L24.5888 49.0646C24.28 48.8858 24.0898 48.556 24.0898 48.1992Z" fill="#FEE445" stroke="black" stroke-linecap="round" stroke-linejoin="round"/>
  <path d="M31.6275 35.3931L25.7182 38.6432C25.0202 39.0271 25.0294 40.0333 25.7344 40.4043L31.2663 43.3159C31.5514 43.4659 31.8912 43.4694 32.1793 43.3254L38.0925 40.3687C38.8046 40.0127 38.8354 39.0078 38.1464 38.6089L32.6104 35.4039C32.3073 35.2284 31.9344 35.2243 31.6275 35.3931Z" fill="#FEF169" stroke="black" stroke-linecap="round" stroke-linejoin="round"/>
  <path d="M55.0119 78.316V70.9105C55.0119 70.1589 54.2137 69.6759 53.5479 70.0247L47.1141 73.3947C46.7846 73.5673 46.5781 73.9086 46.5781 74.2806V81.9925C46.5781 82.7603 47.4076 83.2417 48.0743 82.8607L54.508 79.1843C54.8196 79.0062 55.0119 78.6749 55.0119 78.316Z" fill="#75AE84" stroke="black" stroke-linecap="round" stroke-linejoin="round"/>
  <path d="M31.3184 52.2151V45.2111C31.3184 44.4585 32.1182 43.9757 32.7841 44.3261L38.4146 47.2896C38.7432 47.4625 38.9489 47.8032 38.9489 48.1745V55.4749C38.9489 56.2452 38.1145 56.7262 37.4478 56.3403L31.8173 53.0805C31.5085 52.9017 31.3184 52.5719 31.3184 52.2151Z" fill="#FD6A7D" stroke="black" stroke-linecap="round" stroke-linejoin="round"/>
  <path d="M46.1777 52.2151V45.2111C46.1777 44.4585 45.3779 43.9757 44.712 44.3261L39.0815 47.2896C38.7529 47.4625 38.5472 47.8032 38.5472 48.1745V55.4749C38.5472 56.2452 39.3816 56.7262 40.0482 56.3403L45.6788 53.0805C45.9876 52.9017 46.1777 52.5719 46.1777 52.2151Z" fill="#DF4D76" stroke="black" stroke-linecap="round" stroke-linejoin="round"/>
  <path d="M73.0859 47.3962V40.3922C73.0859 39.6397 72.2861 39.1568 71.6202 39.5073L65.9897 42.4707C65.6611 42.6436 65.4554 42.9844 65.4554 43.3556V50.656C65.4554 51.4263 66.2898 51.9074 66.9565 51.5214L72.587 48.2617C72.8958 48.0829 73.0859 47.7531 73.0859 47.3962Z" fill="#9BD3E9" stroke="black" stroke-linecap="round" stroke-linejoin="round"/>
  <path d="M65.0527 51.4119V44.4078C65.0527 43.6553 64.2529 43.1724 63.587 43.5229L57.9565 46.4863C57.6279 46.6593 57.4222 47 57.4222 47.3713V54.6716C57.4222 55.442 58.2566 55.923 58.9232 55.5371L64.5538 52.2773C64.8626 52.0985 65.0527 51.7687 65.0527 51.4119Z" fill="#DF4D76" stroke="black" stroke-linecap="round" stroke-linejoin="round"/>
  <path d="M38.856 39.4092L32.9467 42.6593C32.2487 43.0432 32.2579 44.0494 32.9629 44.4204L38.4948 47.332C38.7799 47.482 39.1197 47.4855 39.4078 47.3415L45.321 44.3849C46.0331 44.0288 46.0639 43.0239 45.3749 42.625L39.8389 39.42C39.5358 39.2445 39.1629 39.2404 38.856 39.4092Z" fill="#FD728D" stroke="black" stroke-linecap="round" stroke-linejoin="round"/>
  <path d="M65.7642 34.5899L59.8549 37.8399C59.1569 38.2239 59.1661 39.23 59.8711 39.6011L65.403 42.5126C65.6881 42.6627 66.0279 42.6662 66.316 42.5221L72.2292 39.5655C72.9413 39.2095 72.9721 38.2046 72.2831 37.8057L66.7471 34.6006C66.444 34.4251 66.0711 34.421 65.7642 34.5899Z" fill="#71DAFB" stroke="black" stroke-linecap="round" stroke-linejoin="round"/>
  <path d="M57.731 38.606L51.8217 41.8561C51.1237 42.24 51.1329 43.2462 51.8379 43.6172L57.3698 46.5288C57.6549 46.6788 57.9947 46.6823 58.2828 46.5383L64.196 43.5816C64.9081 43.2256 64.9389 42.2207 64.2499 41.8218L58.7139 38.6168C58.4108 38.4413 58.0379 38.4372 57.731 38.606Z" fill="#FD728D" stroke="black" stroke-linecap="round" stroke-linejoin="round"/>
  <path d="M42.1621 55.428V48.4239C42.1621 47.6714 42.9619 47.1885 43.6279 47.539L49.2584 50.5025C49.5869 50.6754 49.7926 51.0161 49.7926 51.3874V58.6877C49.7926 59.4581 48.9583 59.9391 48.2916 59.5532L42.6611 56.2934C42.3523 56.1146 42.1621 55.7848 42.1621 55.428Z" fill="#FD6E42" stroke="black" stroke-linecap="round" stroke-linejoin="round"/>
  <path d="M57.0215 55.428V48.4239C57.0215 47.6714 56.2216 47.1885 55.5557 47.539L49.9252 50.5025C49.5967 50.6754 49.391 51.0161 49.391 51.3874V58.6877C49.391 59.4581 50.2253 59.9391 50.892 59.5532L56.5225 56.2934C56.8313 56.1146 57.0215 55.7848 57.0215 55.428Z" fill="#D93A26" stroke="black" stroke-linecap="round" stroke-linejoin="round"/>
  <path d="M49.6997 42.6221L43.7905 45.8722C43.0924 46.2561 43.1017 47.2623 43.8066 47.6333L49.3386 50.5449C49.6236 50.6949 49.9635 50.6984 50.2516 50.5544L56.1648 47.5978C56.8769 47.2417 56.9076 46.2368 56.2186 45.8379L50.6827 42.6329C50.3795 42.4574 50.0066 42.4533 49.6997 42.6221Z" fill="#FC9F34" stroke="black" stroke-linecap="round" stroke-linejoin="round"/>
  <path d="M87.1409 64.8394V74.9148C87.1409 77.1625 86.0615 79.2735 84.2393 80.5895L54.1884 102.293C51.9152 103.935 48.8815 104.062 46.4792 102.615L9.80722 80.5347C7.70405 79.2683 6.41797 76.9928 6.41797 74.5378V64.8394" stroke="black" stroke-linecap="round" stroke-linejoin="round"/>
</svg>