<svg width="505" height="427" viewBox="0 0 505 427" fill="none" xmlns="http://www.w3.org/2000/svg">
  <path d="M661.708 125.205L577.131 3.62648C576.505 2.72574 575.29 2.48625 574.374 3.09111C505.081 48.8734 360.088 54.0614 290.76 50.7735C288.917 50.6862 287.965 52.928 289.279 54.2223L351.948 115.956C352.303 116.306 352.776 116.511 353.274 116.53L659.989 128.345C661.638 128.409 662.65 126.56 661.708 125.205Z" fill="#A38D73" stroke="black" stroke-width="2" stroke-linecap="round" stroke-linejoin="round"/>
  <path d="M435.5 33.5C343.938 40.9986 271.132 30.6173 245.033 24.2558C244.368 24.0938 243.699 24.2848 243.202 24.7549L113.5 147.5H469L575.692 4.7566C576.747 3.3454 575.601 1.4106 573.875 1.76397C549.642 6.72513 522.729 26.3562 435.5 33.5Z" fill="#DEC4A5"/>
  <path d="M435.5 33.5C343.938 40.9986 271.132 30.6173 245.033 24.2558C244.368 24.0938 243.699 24.2848 243.202 24.7549L113.5 147.5M435.5 33.5C522.729 26.3562 549.642 6.72513 573.875 1.76397C575.601 1.4106 576.747 3.3454 575.692 4.7566L469 147.5M435.5 33.5C404 39 336.3 49.8 317.5 49M469 147.5H113.5M469 147.5L356.5 308.5M113.5 147.5L8.87325 246.314C7.59778 247.519 5.5 246.615 5.5 244.86V235M5.5 235L1 236M5.5 235L9.5 234" stroke="black" stroke-width="2" stroke-linecap="round" stroke-linejoin="round"/>
  <path d="M235.777 91.4013C234.027 91.4013 233.49 90.6446 234.166 89.1311C234.863 87.6177 236.233 85.6856 238.277 83.335C239.606 81.8054 241.215 80.3725 243.102 79.0361C245.024 77.6837 247.099 76.5969 249.328 75.7758C251.57 74.9386 253.779 74.52 255.955 74.52C257.705 74.52 259.049 74.8017 259.989 75.3652C260.942 75.9127 261.387 76.7016 261.323 77.732C261.281 78.7624 260.672 79.9539 259.496 81.3063C258.138 82.8681 256.582 84.1802 254.826 85.2429C253.07 86.3055 251.307 87.0944 249.537 87.6096C247.766 88.1249 246.145 88.3825 244.673 88.3825C243.478 88.3825 242.512 88.2295 241.776 87.9236C241.456 88.4388 241.177 88.8333 240.939 89.107C239.609 90.6365 237.889 91.4013 235.777 91.4013ZM247.479 84.6391C248.247 84.6391 249.09 84.4298 250.009 84.0112C250.963 83.5765 251.685 83.0774 252.174 82.5138C252.678 81.9342 252.824 81.4351 252.612 81.0165C252.435 80.5818 251.963 80.3644 251.195 80.3644C250.448 80.3644 249.598 80.5818 248.644 81.0165C247.704 81.4351 246.982 81.9342 246.478 82.5138C245.989 83.0774 245.843 83.5765 246.041 84.0112C246.253 84.4298 246.732 84.6391 247.479 84.6391ZM262.614 91.4013C260.659 91.4174 259.171 91.0551 258.151 90.3145C257.152 89.5739 256.711 88.5596 256.828 87.2715C256.98 85.9674 257.721 84.5264 259.05 82.9486C260.344 81.4351 262.031 80.0344 264.111 78.7463C266.191 77.4583 268.402 76.4359 270.745 75.6792C273.102 74.9064 275.284 74.52 277.289 74.52C279.266 74.5039 280.757 74.8742 281.763 75.6309C282.791 76.3876 283.221 77.4261 283.055 78.7463C282.889 80.0666 282.113 81.5237 280.727 83.1176C279.425 84.615 277.738 85.9916 275.665 87.2474C273.592 88.5032 271.391 89.5015 269.062 90.2421C266.754 90.9827 264.605 91.3691 262.614 91.4013ZM266.804 86.6919C267.785 86.6919 268.848 86.4263 269.993 85.8949C271.159 85.3636 272.102 84.6713 272.822 83.818C273.578 82.9486 273.845 82.2482 273.625 81.7169C273.404 81.1856 272.803 80.9199 271.821 80.9199C270.84 80.9199 269.777 81.1856 268.633 81.7169C267.488 82.2482 266.538 82.9486 265.782 83.818C265.04 84.6713 264.78 85.3636 265.001 85.8949C265.222 86.4263 265.823 86.6919 266.804 86.6919ZM302.746 81.3063C301.724 82.4816 300.587 83.5201 299.334 84.4218C298.102 85.3234 296.804 86.0801 295.44 86.6919C295.431 87.513 295.09 88.31 294.418 89.0828C293.844 89.743 293.027 90.2904 291.966 90.7251C290.927 91.1598 289.981 91.3772 289.128 91.3772C288.637 91.3772 288.238 91.3208 287.931 91.2081C287.623 91.0954 287.354 90.9022 287.122 90.6285C286.927 90.387 286.83 90.0569 286.831 89.6383C286.832 89.2197 286.922 88.785 287.101 88.3342C286.453 88.2698 285.868 88.1329 285.346 87.9236C285.026 88.4388 284.747 88.8333 284.509 89.107C283.179 90.6365 281.459 91.4013 279.347 91.4013C277.576 91.4013 277.007 90.6204 277.639 89.0587C278.271 87.4969 279.567 85.589 281.527 83.335C282.856 81.8054 284.465 80.3725 286.352 79.0361C288.274 77.6837 290.349 76.5969 292.578 75.7758C294.82 74.9386 297.029 74.52 299.205 74.52C300.955 74.52 302.299 74.8017 303.239 75.3652C304.192 75.9127 304.637 76.7016 304.573 77.732C304.531 78.7624 303.922 79.9539 302.746 81.3063ZM289.791 82.4414C289.316 82.9888 289.184 83.4718 289.396 83.8904C289.622 84.293 290.108 84.4942 290.855 84.4942C291.623 84.4942 292.459 84.293 293.364 83.8904C294.304 83.4718 295.012 82.9888 295.487 82.4414C295.977 81.8779 296.109 81.3949 295.883 80.9924C295.692 80.5737 295.213 80.3644 294.445 80.3644C293.698 80.3644 292.855 80.5737 291.915 80.9924C290.975 81.411 290.267 81.894 289.791 82.4414ZM328.196 78.0701C327.272 79.1328 326.014 79.9056 324.421 80.3886C322.863 80.8555 320.73 81.1373 318.022 81.2339C317.435 82.0067 316.61 83.0049 315.547 84.2285C314.063 85.9352 312.745 87.3037 311.594 88.3342C310.477 89.3485 309.403 90.1052 308.372 90.6043C307.355 91.0874 306.313 91.3289 305.246 91.3289C304.201 91.3289 303.625 91.0713 303.518 90.556C303.411 90.0408 303.692 89.276 304.361 88.2617C305.029 87.2474 306.091 85.903 307.547 84.2285C308.526 83.1015 309.426 82.1033 310.246 81.2339C308.531 81.1695 307.221 81.0326 306.315 80.8233C305.444 80.5979 304.942 80.2678 304.807 79.8331C304.673 79.3984 304.928 78.8107 305.572 78.0701C306.356 77.1685 307.377 76.4601 308.635 75.9449C309.894 75.4296 311.425 75.0674 313.228 74.8581C315.031 74.6488 317.245 74.5441 319.869 74.5441C322.514 74.5441 324.567 74.6488 326.028 74.8581C327.489 75.0674 328.411 75.4296 328.795 75.9449C329.18 76.4601 328.98 77.1685 328.196 78.0701ZM335.339 83.0693C336.598 83.0693 337.591 83.1176 338.317 83.2142C339.079 83.2947 339.583 83.4879 339.829 83.7938C340.111 84.0836 339.993 84.5264 339.475 85.1221C338.733 85.9755 337.806 86.539 336.693 86.8127C335.602 87.0864 334.235 87.2232 332.592 87.2232L329.957 87.1991L327.92 87.2232C327.474 87.8351 327.097 88.3181 326.789 88.6723C325.235 90.4594 323.52 91.353 321.642 91.353C320.085 91.353 319.425 90.7009 319.663 89.3968C319.922 88.0927 321.255 86.056 323.662 83.2867C325.146 81.58 326.938 80.0585 329.038 78.7222C331.16 77.3858 333.364 76.3474 335.65 75.6067C337.951 74.85 340.082 74.4717 342.045 74.4717C344.477 74.4717 346.05 74.7856 346.762 75.4135C347.496 76.0415 347.374 76.9189 346.394 78.046C345.708 78.8349 344.927 79.4387 344.051 79.8573C343.211 80.2598 342.28 80.5335 341.258 80.6784C340.271 80.8072 339.052 80.8716 337.602 80.8716C336.428 80.8716 335.261 81.0487 334.1 81.4029C332.96 81.7571 332.074 82.2482 331.443 82.8761L331.222 83.0935C331.492 83.0774 331.883 83.0693 332.395 83.0693H333.547H335.339ZM346.333 91.4013C344.378 91.4174 342.89 91.0551 341.87 90.3145C340.871 89.5739 340.43 88.5596 340.547 87.2715C340.699 85.9674 341.44 84.5264 342.769 82.9486C344.063 81.4351 345.75 80.0344 347.83 78.7463C349.909 77.4583 352.121 76.4359 354.464 75.6792C356.821 74.9064 359.002 74.52 361.008 74.52C362.984 74.5039 364.476 74.8742 365.482 75.6309C366.509 76.3876 366.94 77.4261 366.774 78.7463C366.607 80.0666 365.831 81.5237 364.446 83.1176C363.144 84.615 361.457 85.9916 359.384 87.2474C357.311 88.5032 355.11 89.5015 352.781 90.2421C350.473 90.9827 348.324 91.3691 346.333 91.4013ZM350.523 86.6919C351.504 86.6919 352.567 86.4263 353.711 85.8949C354.877 85.3636 355.821 84.6713 356.541 83.818C357.297 82.9486 357.564 82.2482 357.343 81.7169C357.123 81.1856 356.522 80.9199 355.54 80.9199C354.559 80.9199 353.496 81.1856 352.351 81.7169C351.207 82.2482 350.257 82.9486 349.501 83.818C348.759 84.6713 348.499 85.3636 348.719 85.8949C348.94 86.4263 349.541 86.6919 350.523 86.6919ZM367.775 91.3772C365.621 91.3772 364.084 91.0471 363.164 90.387C362.259 89.7108 362.152 88.7045 362.844 87.3681C363.128 86.8207 363.581 86.1526 364.203 85.3636C364.825 84.5747 365.667 83.5684 366.731 82.3448C368.816 79.9458 370.816 78.0379 372.731 76.6211C374.68 75.1881 376.69 74.4717 378.759 74.4717C380.039 74.4717 380.748 74.8098 380.885 75.486C381.044 76.1622 380.69 76.9994 379.822 77.9977C378.898 79.0603 377.794 80.1954 376.51 81.4029C375.225 82.6105 373.621 84.0756 371.697 85.7983C373.3 85.4763 374.89 85.3153 376.469 85.3153C378.112 85.3153 379.281 85.5407 379.977 85.9916C380.694 86.4424 380.612 87.1749 379.731 88.1893C378.877 89.1714 377.82 89.8959 376.561 90.3628C375.302 90.8297 374.015 91.1196 372.701 91.2323C371.401 91.3289 369.759 91.3772 367.775 91.3772ZM391.454 87.0059C392.458 87.1025 393.118 87.3118 393.436 87.6338C393.788 87.9397 393.671 88.4308 393.083 89.107C392.495 89.7832 391.741 90.2823 390.821 90.6043C389.923 90.9263 389.001 91.1276 388.057 91.2081C387.126 91.2725 385.967 91.3047 384.581 91.3047C383.215 91.3047 382.123 91.2725 381.305 91.2081C380.5 91.1276 379.928 90.9263 379.589 90.6043C379.251 90.2823 379.375 89.7832 379.963 89.107C380.537 88.4469 381.245 87.9639 382.087 87.6579C382.964 87.3359 383.964 87.1186 385.086 87.0059C385.791 86.0721 386.899 84.7357 388.411 82.9969C389.768 81.4351 390.902 80.1793 391.814 79.2294C390.66 79.1328 389.885 78.9073 389.489 78.5531C389.093 78.1989 389.224 77.6435 389.882 76.8867C390.526 76.1461 391.343 75.5987 392.334 75.2445C393.324 74.8903 394.334 74.6729 395.364 74.5924C396.394 74.5119 397.667 74.4717 399.181 74.4717C400.696 74.4717 401.898 74.5119 402.788 74.5924C403.678 74.6729 404.311 74.8903 404.686 75.2445C405.082 75.5987 404.958 76.1461 404.314 76.8867C403.656 77.6435 402.811 78.1989 401.777 78.5531C400.765 78.9073 399.588 79.1328 398.246 79.2294C397.582 80.1149 396.544 81.3707 395.131 82.9969C393.773 84.5586 392.547 85.8949 391.454 87.0059ZM401.958 91.4013C400.003 91.4174 398.515 91.0551 397.495 90.3145C396.496 89.5739 396.055 88.5596 396.172 87.2715C396.324 85.9674 397.065 84.5264 398.394 82.9486C399.688 81.4351 401.375 80.0344 403.455 78.7463C405.534 77.4583 407.746 76.4359 410.089 75.6792C412.446 74.9064 414.627 74.52 416.633 74.52C418.609 74.5039 420.101 74.8742 421.107 75.6309C422.134 76.3876 422.565 77.4261 422.399 78.7463C422.232 80.0666 421.456 81.5237 420.071 83.1176C418.769 84.615 417.082 85.9916 415.009 87.2474C412.936 88.5032 410.735 89.5015 408.406 90.2421C406.098 90.9827 403.949 91.3691 401.958 91.4013ZM406.148 86.6919C407.129 86.6919 408.192 86.4263 409.336 85.8949C410.502 85.3636 411.446 84.6713 412.166 83.818C412.922 82.9486 413.189 82.2482 412.968 81.7169C412.748 81.1856 412.147 80.9199 411.165 80.9199C410.184 80.9199 409.121 81.1856 407.976 81.7169C406.832 82.2482 405.882 82.9486 405.126 83.818C404.384 84.6713 404.124 85.3636 404.344 85.8949C404.565 86.4263 405.166 86.6919 406.148 86.6919Z" fill="#94795A"/>
  <path d="M65.7113 205.076C65.5175 202.534 65.5365 196.593 67.1633 193.164M67.1633 193.164C68.7901 189.736 78.1307 189.968 82.5976 190.513M67.1633 193.164C64.9168 192.387 60.8218 189.916 62.4142 186.248C64.0067 182.581 69.2967 182.698 71.7427 183.215" stroke="black" stroke-width="3" stroke-linecap="round" stroke-linejoin="round"/>
  <path d="M30.4015 238.549L74.0782 243.874M30.4015 238.549C31.1089 232.746 34.0154 227.748 38.1845 224.287M30.4015 238.549C29.7 244.304 31.2876 249.81 34.4494 254.154M49.5777 263.05L54.9019 219.373M49.5777 263.05C55.8844 263.819 61.8925 261.838 66.4001 258.049M49.5777 263.05C43.2711 262.281 37.9148 258.915 34.4494 254.154M74.0782 243.874C73.3767 249.628 70.513 254.591 66.4001 258.049M74.0782 243.874C74.7856 238.07 73.165 232.52 69.9494 228.159M54.9019 219.373C48.6441 218.61 42.6802 220.554 38.1845 224.287M54.9019 219.373C61.1597 220.136 66.4819 223.456 69.9494 228.159M38.1845 224.287L66.4001 258.049M69.9494 228.159L34.4494 254.154" stroke="black"/>
  <path d="M53.9944 226.818C49.8691 226.315 45.9488 227.589 42.975 230.057C40.2203 232.344 38.313 235.628 37.8464 239.457C37.3836 243.253 38.4244 246.87 40.5134 249.74C42.8057 252.89 46.3281 255.098 50.4853 255.605C54.6424 256.112 58.5921 254.814 61.574 252.308C64.2912 250.023 66.1705 246.763 66.6333 242.966C67.1 239.138 66.0375 235.491 63.9128 232.61C61.6192 229.499 58.1196 227.321 53.9944 226.818ZM34.0452 254.448C30.8118 250.006 29.1878 244.374 29.9051 238.489C30.6286 232.554 33.6017 227.441 37.8651 223.902C42.4623 220.086 48.5624 218.097 54.9624 218.877C61.3624 219.657 66.8061 223.053 70.3518 227.862C73.6401 232.322 75.2979 237.999 74.5745 243.934C73.8571 249.819 70.9278 254.896 66.7218 258.431C62.1125 262.306 55.9672 264.332 49.5172 263.546C43.0673 262.76 37.5887 259.317 34.0452 254.448Z" fill="#858585" stroke="black"/>
  <path d="M131.651 250.891L175.328 256.215M131.651 250.891C132.359 245.088 135.265 240.089 139.435 236.628M131.651 250.891C130.95 256.646 132.538 262.151 135.699 266.496M150.828 275.392L156.152 231.715M150.828 275.392C157.134 276.16 163.142 274.18 167.65 270.39M150.828 275.392C144.521 274.623 139.165 271.257 135.699 266.496M175.328 256.215C174.627 261.97 171.763 266.933 167.65 270.39M175.328 256.215C176.036 250.412 174.415 244.862 171.199 240.5M156.152 231.715C149.894 230.952 143.93 232.896 139.435 236.628M156.152 231.715C162.41 232.478 167.732 235.798 171.199 240.5M139.435 236.628L167.65 270.39M171.199 240.5L135.699 266.496" stroke="black"/>
  <path d="M139.096 251.799C138.127 259.748 143.786 266.978 151.735 267.947C159.685 268.916 166.914 263.257 167.883 255.308C168.852 247.358 163.194 240.129 155.244 239.16C147.295 238.191 140.065 243.849 139.096 251.799ZM150.767 275.888C138.432 274.384 129.652 263.166 131.155 250.831C132.659 238.496 143.877 229.715 156.212 231.219C168.547 232.722 177.328 243.941 175.824 256.276C174.321 268.611 163.102 277.392 150.767 275.888Z" fill="#858585" stroke="black"/>
  <path d="M71.1327 243.244C72.3874 232.951 65.1315 223.642 54.9846 222.405C51.7447 222.01 48.6049 222.482 45.7847 223.639C44.2518 224.267 42.4994 223.535 41.8706 222.002C41.2419 220.469 41.9748 218.716 43.5077 218.088C47.2515 216.552 51.4236 215.926 55.7106 216.449C69.1937 218.092 78.7385 230.435 77.0886 243.97C76.8392 246.015 76.3474 247.977 75.6443 249.825C75.0554 251.374 73.3226 252.152 71.7739 251.563C70.2253 250.974 69.4472 249.241 70.0362 247.693C70.5682 246.294 70.9424 244.805 71.1327 243.244Z" fill="#EBF479" stroke="black" stroke-linecap="round"/>
  <circle cx="7" cy="7" r="7" transform="matrix(-0.992652 -0.121003 -0.121003 0.992652 114.873 239.78)" fill="#3D405A" stroke="#1E1E1E" stroke-width="4"/>
  <path d="M172.906 251.864C172.087 243.163 165.222 235.843 156.037 234.724C145.452 233.433 135.895 240.87 134.629 251.255C134.428 252.899 132.933 254.07 131.288 253.869C129.643 253.669 128.473 252.173 128.673 250.528C130.348 236.791 142.952 227.084 156.763 228.768C168.761 230.23 177.798 239.808 178.879 251.302C179.034 252.952 177.823 254.415 176.173 254.57C174.524 254.725 173.061 253.514 172.906 251.864Z" fill="#EBF479" stroke="black" stroke-linecap="round"/>
  <path d="M62.5049 205.25C62.7842 202.959 64.972 201.257 67.3737 201.876C72.8295 203.282 87.9646 207.52 104.659 215.156C120.67 222.48 138.322 233.022 150.174 247.36C151.133 246.993 152.194 246.847 153.283 246.98C156.847 247.415 159.383 250.655 158.949 254.219C158.515 257.782 155.274 260.319 151.71 259.885C149.036 259.559 146.941 257.652 146.245 255.215C133.867 254.159 123.286 253.178 113.737 250.196C103.615 247.034 94.6891 241.643 85.8163 231.707C76.0398 220.759 69.5913 215.367 65.566 212.957C64.663 219.276 63.3869 224.936 61.772 229.63C60.4261 233.542 58.8047 236.902 56.8791 239.409C57.1246 240.089 57.2185 240.835 57.1252 241.6C56.8069 244.212 54.4322 246.07 51.821 245.752C49.2099 245.434 47.3512 243.059 47.6695 240.448C47.9878 237.837 50.3626 235.978 52.9737 236.296C53.3393 236.341 53.6907 236.426 54.0236 236.547C55.4444 234.567 56.7898 231.815 57.9896 228.329C59.7232 223.29 61.0811 216.93 61.9678 209.656L62.5049 205.25ZM114.93 246.377C123.953 249.196 134.024 250.156 146.386 251.213C146.559 250.735 146.786 250.285 147.059 249.87C135.777 236.241 118.788 226.018 102.995 218.794C86.691 211.336 71.8819 207.173 66.4707 205.774L66.1152 208.69C70.7614 211.053 77.9366 216.878 88.7998 229.043C97.201 238.45 105.512 243.436 114.93 246.377Z" fill="#EBF479" stroke="black"/>
  <path d="M46.2287 216.279C43.9548 216.169 41.7356 215.964 39.7473 215.732M46.2287 216.279L47.3068 190.906M46.2287 216.279C48.604 216.394 50.9459 216.339 53.0369 216.211M63.6018 199.086L64.282 195.024C64.5795 193.248 63.2554 191.611 61.4558 191.532L56.0743 191.294M63.6018 199.086L30.1579 197.528M63.6018 199.086L62.2429 207.201M30.1579 197.528L29.7663 193.559C29.5869 191.742 31.0597 190.187 32.8844 190.268L38.2888 190.507M30.1579 197.528L30.9966 206.026M62.2429 207.201L61.2309 213.244C61.0226 214.487 60.0595 215.465 58.8103 215.637C57.4033 215.831 55.3772 216.067 53.0369 216.211M62.2429 207.201L30.9966 206.026M30.9966 206.026L31.6173 212.317C31.7468 213.629 32.717 214.7 34.0172 214.918C35.4283 215.155 37.4311 215.462 39.7473 215.732M38.2888 190.507L39.7473 215.732M38.2888 190.507L47.3068 190.906M47.3068 190.906L56.0743 191.294M56.0743 191.294L53.0369 216.211" stroke="black"/>
  <path d="M143.234 206.067C149.558 207.16 150.637 212.097 147.059 218.476C145.019 222.113 140.419 223.116 136.594 221.458C128.628 218.004 116.021 211.833 115.58 207.202C115.01 201.215 127.132 203.286 143.234 206.067Z" fill="#858585"/>
  <path d="M119.67 210.255C125.214 210.234 137.318 211.121 141.38 214.841M143.234 206.067C149.558 207.16 150.637 212.097 147.059 218.476C145.019 222.113 140.419 223.116 136.594 221.458C128.628 218.004 116.021 211.833 115.58 207.202C115.01 201.215 127.132 203.286 143.234 206.067Z" stroke="black" stroke-linecap="round"/>
  <path fill-rule="evenodd" clip-rule="evenodd" d="M134.021 215.641C134.781 216.442 134.748 217.708 133.946 218.468C129.755 222.443 119.012 233.622 109.861 246.267C109.214 247.162 107.963 247.362 107.068 246.715C106.174 246.067 105.973 244.817 106.621 243.922C115.947 231.035 126.864 219.671 131.194 215.566C131.995 214.806 133.261 214.839 134.021 215.641Z" fill="#EBF479" stroke="black" stroke-linecap="round" stroke-linejoin="round"/>
  <mask id="path-18-outside-1_30909_38" maskUnits="userSpaceOnUse" x="268.854" y="211.494" width="174" height="129" fill="black">
    <rect fill="white" x="268.854" y="211.494" width="174" height="129"/>
    <path fill-rule="evenodd" clip-rule="evenodd" d="M384.904 214.906C382.309 212.748 378.456 213.103 376.298 215.699L319.949 283.481L304.194 271.871C301.477 269.869 297.651 270.448 295.649 273.165C293.647 275.882 294.226 279.708 296.943 281.71L312.123 292.896L311.455 293.699L276.953 293.765C273.578 293.772 270.847 296.513 270.854 299.888C270.86 303.263 273.601 305.994 276.976 305.988L301.278 305.941L289.016 320.691C286.859 323.286 287.213 327.139 289.809 329.297C292.404 331.455 296.257 331.1 298.415 328.504L317.17 305.944L329.796 305.919L346.744 318.408L338.584 328.224C336.426 330.819 336.781 334.672 339.376 336.83C341.972 338.987 345.825 338.633 347.982 336.037L356.6 325.671L362.123 329.741C364.84 331.743 368.666 331.164 370.668 328.447C372.67 325.73 372.091 321.904 369.374 319.902L364.427 316.256L373.143 305.771L412.07 332.335C414.857 334.238 418.66 333.52 420.562 330.732C422.464 327.945 421.747 324.142 418.959 322.24L408.392 315.029L400.416 274.738C400.327 274.292 400.18 273.872 399.983 273.485L439.431 226.033C441.589 223.437 441.234 219.584 438.639 217.427C436.043 215.269 432.19 215.624 430.033 218.219L429.322 219.074C428.977 218.754 428.511 218.55 427.967 218.55H387.017C386.776 217.172 386.064 215.87 384.904 214.906ZM397.005 307.258L392.177 282.875L380.992 296.33L397.005 307.258ZM357.169 305.867L350.345 305.88L354.57 308.993L357.169 305.867Z"/>
  </mask>
  <path fill-rule="evenodd" clip-rule="evenodd" d="M384.904 214.906C382.309 212.748 378.456 213.103 376.298 215.699L319.949 283.481L304.194 271.871C301.477 269.869 297.651 270.448 295.649 273.165C293.647 275.882 294.226 279.708 296.943 281.71L312.123 292.896L311.455 293.699L276.953 293.765C273.578 293.772 270.847 296.513 270.854 299.888C270.86 303.263 273.601 305.994 276.976 305.988L301.278 305.941L289.016 320.691C286.859 323.286 287.213 327.139 289.809 329.297C292.404 331.455 296.257 331.1 298.415 328.504L317.17 305.944L329.796 305.919L346.744 318.408L338.584 328.224C336.426 330.819 336.781 334.672 339.376 336.83C341.972 338.987 345.825 338.633 347.982 336.037L356.6 325.671L362.123 329.741C364.84 331.743 368.666 331.164 370.668 328.447C372.67 325.73 372.091 321.904 369.374 319.902L364.427 316.256L373.143 305.771L412.07 332.335C414.857 334.238 418.66 333.52 420.562 330.732C422.464 327.945 421.747 324.142 418.959 322.24L408.392 315.029L400.416 274.738C400.327 274.292 400.18 273.872 399.983 273.485L439.431 226.033C441.589 223.437 441.234 219.584 438.639 217.427C436.043 215.269 432.19 215.624 430.033 218.219L429.322 219.074C428.977 218.754 428.511 218.55 427.967 218.55H387.017C386.776 217.172 386.064 215.87 384.904 214.906ZM397.005 307.258L392.177 282.875L380.992 296.33L397.005 307.258ZM357.169 305.867L350.345 305.88L354.57 308.993L357.169 305.867Z" fill="#CED2A0"/>
  <path d="M376.298 215.699L377.836 216.977L377.836 216.977L376.298 215.699ZM384.904 214.906L386.183 213.368L386.183 213.368L384.904 214.906ZM319.949 283.481L318.763 285.091L320.282 286.21L321.487 284.76L319.949 283.481ZM304.194 271.871L303.007 273.481L303.007 273.481L304.194 271.871ZM296.943 281.71L295.757 283.32L295.757 283.32L296.943 281.71ZM312.123 292.896L313.661 294.175L315.016 292.544L313.309 291.286L312.123 292.896ZM311.455 293.699L311.459 295.699L312.395 295.698L312.993 294.978L311.455 293.699ZM276.953 293.765L276.957 295.765L276.957 295.765L276.953 293.765ZM270.854 299.888L268.854 299.892L270.854 299.888ZM276.976 305.988L276.98 307.988L276.98 307.988L276.976 305.988ZM301.278 305.941L302.816 307.22L305.548 303.933L301.274 303.941L301.278 305.941ZM289.016 320.691L287.478 319.412L287.478 319.412L289.016 320.691ZM289.809 329.297L288.53 330.835L288.53 330.835L289.809 329.297ZM298.415 328.504L299.953 329.783L299.953 329.783L298.415 328.504ZM317.17 305.944L317.166 303.944L316.23 303.945L315.632 304.665L317.17 305.944ZM329.796 305.919L330.982 304.309L330.452 303.918L329.792 303.919L329.796 305.919ZM346.744 318.408L348.282 319.687L349.637 318.056L347.93 316.798L346.744 318.408ZM338.584 328.224L337.046 326.945L337.046 326.945L338.584 328.224ZM339.376 336.83L340.655 335.292L340.655 335.292L339.376 336.83ZM347.982 336.037L346.444 334.759L346.444 334.759L347.982 336.037ZM356.6 325.671L357.786 324.061L356.268 322.942L355.062 324.393L356.6 325.671ZM362.123 329.741L363.309 328.131L363.309 328.131L362.123 329.741ZM370.668 328.447L372.278 329.633L372.278 329.633L370.668 328.447ZM369.374 319.902L370.56 318.292L370.56 318.292L369.374 319.902ZM364.427 316.256L362.889 314.978L361.533 316.608L363.24 317.866L364.427 316.256ZM373.143 305.771L374.271 304.119L372.768 303.094L371.605 304.492L373.143 305.771ZM412.07 332.335L413.197 330.683L413.197 330.683L412.07 332.335ZM420.562 330.732L418.91 329.605L418.91 329.605L420.562 330.732ZM418.959 322.24L420.086 320.588L420.086 320.588L418.959 322.24ZM408.392 315.029L406.43 315.417L406.589 316.22L407.265 316.681L408.392 315.029ZM400.416 274.738L398.454 275.127L398.454 275.127L400.416 274.738ZM399.983 273.485L398.445 272.206L397.604 273.218L398.2 274.391L399.983 273.485ZM439.431 226.033L437.894 224.754L437.894 224.754L439.431 226.033ZM438.639 217.427L437.36 218.965L437.36 218.965L438.639 217.427ZM430.033 218.219L428.495 216.941L428.495 216.941L430.033 218.219ZM429.322 219.074L427.961 220.54L429.51 221.977L430.86 220.353L429.322 219.074ZM387.017 218.55L385.047 218.894L385.337 220.55H387.017V218.55ZM397.005 307.258L395.877 308.91L399.916 311.666L398.967 306.869L397.005 307.258ZM392.177 282.875L394.139 282.486L393.324 278.367L390.64 281.596L392.177 282.875ZM380.992 296.33L379.454 295.051L378.048 296.742L379.864 297.982L380.992 296.33ZM350.345 305.88L350.342 303.88L344.276 303.892L349.159 307.49L350.345 305.88ZM357.169 305.867L358.707 307.145L361.44 303.859L357.166 303.867L357.169 305.867ZM354.57 308.993L353.384 310.603L354.902 311.722L356.108 310.272L354.57 308.993ZM377.836 216.977C379.288 215.231 381.88 214.993 383.626 216.444L386.183 213.368C382.738 210.504 377.624 210.975 374.76 214.42L377.836 216.977ZM321.487 284.76L377.836 216.977L374.76 214.42L318.411 282.203L321.487 284.76ZM303.007 273.481L318.763 285.091L321.136 281.871L305.38 270.261L303.007 273.481ZM297.259 274.352C298.606 272.524 301.179 272.134 303.007 273.481L305.38 270.261C301.774 267.603 296.696 268.372 294.039 271.979L297.259 274.352ZM298.13 280.1C296.302 278.753 295.912 276.18 297.259 274.352L294.039 271.979C291.381 275.585 292.15 280.663 295.757 283.32L298.13 280.1ZM313.309 291.286L298.13 280.1L295.757 283.32L310.936 294.506L313.309 291.286ZM312.993 294.978L313.661 294.175L310.585 291.617L309.917 292.421L312.993 294.978ZM276.957 295.765L311.459 295.699L311.451 291.699L276.949 291.765L276.957 295.765ZM272.854 299.884C272.849 297.614 274.686 295.77 276.957 295.765L276.949 291.765C272.469 291.774 268.845 295.413 268.854 299.892L272.854 299.884ZM276.973 303.988C274.702 303.992 272.858 302.155 272.854 299.884L268.854 299.892C268.862 304.372 272.501 307.996 276.98 307.988L276.973 303.988ZM301.274 303.941L276.973 303.988L276.98 307.988L301.282 307.941L301.274 303.941ZM290.554 321.969L302.816 307.22L299.74 304.663L287.478 319.412L290.554 321.969ZM291.087 327.759C289.341 326.307 289.103 323.715 290.554 321.969L287.478 319.412C284.615 322.857 285.086 327.971 288.53 330.835L291.087 327.759ZM296.877 327.226C295.425 328.972 292.833 329.21 291.087 327.759L288.53 330.835C291.975 333.699 297.089 333.228 299.953 329.783L296.877 327.226ZM315.632 304.665L296.877 327.226L299.953 329.783L318.708 307.222L315.632 304.665ZM329.792 303.919L317.166 303.944L317.174 307.944L329.8 307.919L329.792 303.919ZM347.93 316.798L330.982 304.309L328.609 307.529L345.557 320.018L347.93 316.798ZM340.122 329.502L348.282 319.687L345.206 317.13L337.046 326.945L340.122 329.502ZM340.655 335.292C338.909 333.84 338.67 331.248 340.122 329.502L337.046 326.945C334.182 330.39 334.653 335.504 338.098 338.368L340.655 335.292ZM346.444 334.759C344.993 336.505 342.401 336.743 340.655 335.292L338.098 338.368C341.543 341.232 346.657 340.76 349.52 337.316L346.444 334.759ZM355.062 324.393L346.444 334.759L349.52 337.316L358.138 326.95L355.062 324.393ZM363.309 328.131L357.786 324.061L355.413 327.281L360.937 331.351L363.309 328.131ZM369.058 327.26C367.711 329.088 365.137 329.478 363.309 328.131L360.937 331.351C364.543 334.009 369.621 333.24 372.278 329.633L369.058 327.26ZM368.187 321.512C370.015 322.859 370.405 325.432 369.058 327.26L372.278 329.633C374.935 326.027 374.166 320.949 370.56 318.292L368.187 321.512ZM363.24 317.866L368.187 321.512L370.56 318.292L365.613 314.646L363.24 317.866ZM371.605 304.492L362.889 314.978L365.964 317.535L374.681 307.049L371.605 304.492ZM413.197 330.683L374.271 304.119L372.016 307.423L410.942 333.987L413.197 330.683ZM418.91 329.605C417.63 331.48 415.072 331.963 413.197 330.683L410.942 333.987C414.642 336.512 419.689 335.56 422.214 331.86L418.91 329.605ZM417.832 323.892C419.707 325.172 420.19 327.73 418.91 329.605L422.214 331.86C424.739 328.16 423.786 323.113 420.086 320.588L417.832 323.892ZM407.265 316.681L417.832 323.892L420.086 320.588L409.519 313.377L407.265 316.681ZM398.454 275.127L406.43 315.417L410.354 314.64L402.377 274.35L398.454 275.127ZM398.2 274.391C398.315 274.616 398.401 274.862 398.454 275.127L402.377 274.35C402.253 273.722 402.045 273.128 401.766 272.579L398.2 274.391ZM437.894 224.754L398.445 272.206L401.521 274.764L440.969 227.311L437.894 224.754ZM437.36 218.965C439.106 220.416 439.345 223.008 437.894 224.754L440.969 227.311C443.833 223.866 443.362 218.752 439.917 215.889L437.36 218.965ZM431.571 219.498C433.022 217.752 435.614 217.513 437.36 218.965L439.917 215.889C436.473 213.025 431.359 213.496 428.495 216.941L431.571 219.498ZM430.86 220.353L431.571 219.498L428.495 216.941L427.784 217.796L430.86 220.353ZM427.967 220.55C427.973 220.55 427.976 220.55 427.979 220.55C427.981 220.55 427.982 220.551 427.982 220.551C427.982 220.551 427.981 220.55 427.98 220.55C427.979 220.55 427.977 220.549 427.976 220.549C427.972 220.547 427.969 220.545 427.966 220.544C427.963 220.542 427.962 220.541 427.961 220.54L430.683 217.609C429.981 216.958 429.034 216.55 427.967 216.55V220.55ZM387.017 220.55H427.967V216.55H387.017V220.55ZM383.626 216.444C384.407 217.094 384.885 217.966 385.047 218.894L388.987 218.205C388.668 216.378 387.721 214.646 386.183 213.368L383.626 216.444ZM398.967 306.869L394.139 282.486L390.216 283.263L395.043 307.646L398.967 306.869ZM390.64 281.596L379.454 295.051L382.53 297.608L393.715 284.153L390.64 281.596ZM379.864 297.982L395.877 308.91L398.132 305.606L382.119 294.678L379.864 297.982ZM350.349 307.88L357.173 307.867L357.166 303.867L350.342 303.88L350.349 307.88ZM355.757 307.383L351.532 304.27L349.159 307.49L353.384 310.603L355.757 307.383ZM355.632 304.588L353.032 307.715L356.108 310.272L358.707 307.145L355.632 304.588Z" fill="black" mask="url(#path-18-outside-1_30909_38)"/>
  <rect x="380.27" y="211.704" width="11.2222" height="147.756" rx="5.61112" transform="rotate(39.7375 380.27 211.704)" fill="#CED2A0" stroke="black"/>
  <rect x="292.723" y="277.98" width="11.2222" height="92.1876" rx="5.61112" transform="rotate(-53.6135 292.723 277.98)" fill="#CED2A0" stroke="black"/>
  <path d="M381.788 219.051H427.967C429.214 219.051 429.916 220.482 429.154 221.468L369.398 298.753C369.084 299.159 368.585 299.376 368.074 299.329L319.395 294.856C318.183 294.745 317.601 293.313 318.392 292.388L380.648 219.576C380.933 219.243 381.35 219.051 381.788 219.051Z" fill="#DF8365" stroke="black" stroke-linejoin="round"/>
  <rect x="390.588" y="272.27" width="8.66136" height="50.9391" rx="4.33068" transform="rotate(-11.1984 390.588 272.27)" fill="#CED2A0" stroke="black"/>
  <rect x="434.004" y="214.225" width="11.2222" height="154.275" rx="5.61112" transform="rotate(39.7375 434.004 214.225)" fill="#CED2A0" stroke="black"/>
  <rect x="271.364" y="305.499" width="11.2222" height="69.6506" rx="5.61112" transform="rotate(-90.1098 271.364 305.499)" fill="#CED2A0" stroke="black"/>
  <rect x="274.5" y="302.5" width="6" height="51" rx="3" transform="rotate(-90 274.5 302.5)" fill="#FFD891" stroke="black" stroke-linejoin="round"/>
  <rect x="300.507" y="305.476" width="11.2222" height="72.5082" rx="5.61112" transform="rotate(-90.1098 300.507 305.476)" fill="#CED2A0" stroke="black"/>
  <rect x="339.851" y="282.447" width="11.2222" height="93.3847" rx="5.61112" transform="rotate(-55.6891 339.851 282.447)" fill="#CED2A0" stroke="black"/>
  <path d="M467 375.859C465.99 379.151 464.172 386.757 464.98 390.843C465.653 394.249 465.906 399.626 465.971 403.032C465.991 404.044 465.233 404.896 464.227 405.016L388.895 414L354.111 395.923C353.079 395.387 352.591 394.015 352.782 392.868C353.152 390.644 353.364 387.093 353.474 383.351L333.889 381.298C332.83 381.187 332.042 380.266 332.119 379.204C332.842 369.245 335.442 353.24 341.223 351.681C345.218 350.546 355.701 348.752 365.666 350.659C369.002 351.298 371.855 351.936 374.419 352.502C381.264 352.229 396.167 351.068 401.015 348.616C407.075 345.551 415.828 344.729 420.204 348.616C423.706 351.725 426.152 358.766 426.938 361.897L467 375.859Z" fill="#DEC4A5"/>
  <path d="M353.546 371.432L388.895 386.076M353.546 371.432C374.419 369.049 418.319 363.804 426.938 361.897M353.546 371.432C353.209 365.643 350.651 353.588 343.11 351.681C342.446 351.513 341.818 351.521 341.223 351.681M353.546 371.432C353.596 374.507 353.602 379.054 353.474 383.351M388.895 386.076C390.242 390.979 389.456 406.735 388.895 414M388.895 386.076L426.938 381.1M467 375.859C465.99 379.151 464.172 386.757 464.98 390.843C465.653 394.249 465.906 399.626 465.971 403.032C465.991 404.044 465.233 404.896 464.227 405.016L388.895 414M467 375.859L426.938 361.897M467 375.859L426.938 381.1M388.895 414L354.111 395.923C353.079 395.387 352.591 394.015 352.782 392.868C353.152 390.644 353.364 387.093 353.474 383.351M462.623 387.438C461.052 389.14 457.708 393.431 456.9 396.973M426.938 361.897C427.387 367.207 428.015 378.481 426.938 381.1M426.938 361.897C426.152 358.766 423.706 351.725 420.204 348.616C415.828 344.729 407.075 345.551 401.015 348.616C396.167 351.068 381.264 352.229 374.419 352.502M353.474 383.351L333.889 381.298C332.83 381.187 332.042 380.266 332.119 379.204C332.842 369.245 335.442 353.24 341.223 351.681M341.223 351.681C345.218 350.546 355.701 348.752 365.666 350.659C369.002 351.298 371.855 351.936 374.419 352.502M392.935 354.065C386.28 355.062 381.429 354.051 374.419 352.502" stroke="black"/>
  <path d="M388.895 386.076L353.546 371.433C374.419 369.049 418.319 363.804 426.937 361.897L467 375.86L426.937 381.1L388.895 386.076Z" fill="#A38D73"/>
  <path d="M426.937 361.897C418.319 363.804 374.419 369.049 353.546 371.433L388.895 386.076L426.937 381.1M426.937 361.897L467 375.86L426.937 381.1M426.937 361.897C427.386 367.207 428.015 378.481 426.937 381.1" stroke="black" stroke-linejoin="round"/>
  <mask id="mask0_30909_38" style="mask-type:alpha" maskUnits="userSpaceOnUse" x="359" y="336" width="106" height="50">
    <path d="M388.518 385.309L360.958 374.373C359.025 373.606 359.31 370.31 361.303 369.712C383.885 362.929 422.372 339.786 432.345 336.339C433.056 336.093 433.801 336.366 434.279 336.947L463.705 372.711C464.704 373.925 463.977 375.763 462.418 375.965L389.514 385.433C389.177 385.477 388.834 385.434 388.518 385.309Z" fill="#DEC4A5"/>
  </mask>
  <g mask="url(#mask0_30909_38)">
    <circle cx="383" cy="377" r="10.5" fill="#C9615F" stroke="black"/>
    <path d="M382 370C382.5 370.167 383.8 370.4 385 370" stroke="black" stroke-linecap="round" stroke-linejoin="round"/>
    <circle cx="399" cy="382" r="10.5" fill="#C9615F" stroke="black"/>
    <path d="M398 375C398.5 375.167 399.8 375.4 401 375" stroke="black" stroke-linecap="round" stroke-linejoin="round"/>
    <rect x="413.5" y="358.5" width="31" height="34" rx="8.5" fill="#8ED4D0" stroke="black"/>
    <path d="M440.5 359.5C440.5 359.927 440.271 360.394 439.725 360.877C439.18 361.361 438.363 361.819 437.31 362.214C435.207 363.002 432.27 363.5 429 363.5C425.73 363.5 422.793 363.002 420.69 362.214C419.637 361.819 418.82 361.361 418.275 360.877C417.729 360.394 417.5 359.927 417.5 359.5V351.5H440.5V359.5Z" fill="#DD6F37" stroke="black"/>
    <path d="M440.5 351.5C440.5 351.927 440.271 352.394 439.725 352.877C439.18 353.361 438.363 353.819 437.31 354.214C435.207 355.002 432.27 355.5 429 355.5C425.73 355.5 422.793 355.002 420.69 354.214C419.637 353.819 418.82 353.361 418.275 352.877C417.729 352.394 417.5 351.927 417.5 351.5C417.5 351.073 417.729 350.606 418.275 350.123C418.82 349.639 419.637 349.181 420.69 348.786C422.793 347.998 425.73 347.5 429 347.5C432.27 347.5 435.207 347.998 437.31 348.786C438.363 349.181 439.18 349.639 439.725 350.123C440.271 350.606 440.5 351.073 440.5 351.5Z" fill="#CF8864" stroke="black"/>
  </g>
  <path d="M359.231 355.641C356.029 355.126 354.838 358.182 354.474 360.447L356.001 361.097C356.001 361.097 357.52 360.938 358.45 360.495C361.257 359.158 361.173 355.954 359.231 355.641Z" fill="white" stroke="black" stroke-linecap="round"/>
  <path d="M349.009 363.457C349.259 361.904 350.396 361.025 350.934 360.779C353.847 361.248 356.915 360.746 358.043 359.932C359.17 359.117 362.897 360.713 361.864 364.033C360.832 367.353 356.228 368.106 352.345 367.48C349.238 366.98 349.182 365.477 348.852 364.428L347.474 363.708L349.009 363.457Z" fill="#FEEF48" stroke="black" stroke-linecap="round"/>
  <path d="M349.009 363.458C349.259 361.904 350.449 360.701 351.905 360.936C351.905 360.936 350.83 361.426 350.465 363.692C349.912 367.125 352.345 367.481 352.345 367.481C352.345 367.481 348.869 367.419 348.852 364.429L347.474 363.709L349.009 363.458Z" fill="black"/>
  <path d="M353.36 361.17C352.964 362.6 352.09 365.348 353.393 367.151" stroke="black" stroke-linecap="round"/>
  <path d="M356.453 360.672C356.057 362.102 356.079 366.089 358.252 366.937" stroke="black" stroke-linecap="round"/>
  <path d="M352.962 355.224C356.194 354.948 356.272 359.409 355.908 361.675L354.254 361.812C354.254 361.812 352.861 361.184 352.117 360.472C349.871 358.321 348.922 355.57 352.962 355.224Z" fill="white" stroke="black" stroke-linecap="round"/>
  <path d="M358.124 361.439C357.905 360.74 357.788 359.194 359.078 358.605" stroke="black" stroke-linecap="round"/>
  <path d="M360.877 360.886C360.96 360.368 361.334 359.286 362.16 359.101" stroke="black" stroke-linecap="round"/>
  <path d="M409.445 385.766L417.567 384.667L418.926 392.667C418.926 394.444 418.654 399.533 417.567 405.667C417.04 408.635 418.669 412.505 420.965 416.187C434.827 418.202 444.28 414.902 447.273 413C444.729 408.469 441.49 403.393 441.691 398.667C441.811 395.845 441.583 392.791 441.222 390C440.92 387.656 440.524 385.498 440.162 383.82C439.912 382.662 440.669 381.506 441.839 381.321L450.185 380C450.558 381.831 451.096 385.11 451.414 388.667C451.675 391.585 451.789 394.689 451.544 397.333C451.062 402.534 454.639 408.991 457.114 412.48C457.623 413.199 457.658 414.162 457.146 414.879C454.982 417.903 451.401 422.606 449.506 424C447.331 425.6 434.782 426 428.779 426C425.495 424.889 418.654 422.533 417.567 422C416.207 421.333 406.354 408 407.034 405C407.577 402.6 407.713 396.222 407.713 393.333V387.748C407.713 386.747 408.453 385.9 409.445 385.766Z" fill="#CED2A0"/>
  <path d="M417.567 384.667L409.445 385.766C408.453 385.9 407.713 386.747 407.713 387.748V393.333M417.567 384.667L418.926 392.667M417.567 384.667L407.713 393.333M418.926 392.667L407.713 393.333M418.926 392.667L409.412 387.333M418.926 392.667C418.926 394.444 418.654 399.533 417.567 405.667C417.04 408.635 418.669 412.505 420.965 416.187M407.713 393.333C407.713 396.222 407.577 402.6 407.034 405C406.354 408 416.207 421.333 417.567 422C418.654 422.533 425.495 424.889 428.779 426M428.779 426C434.782 426 447.331 425.6 449.506 424C451.401 422.606 454.982 417.903 457.146 414.879C457.658 414.162 457.623 413.199 457.114 412.48C454.639 408.991 451.062 402.534 451.544 397.333C451.789 394.689 451.675 391.585 451.414 388.667M428.779 426C426.617 423.822 423.412 420.111 420.965 416.187M450.185 380L441.839 381.321C440.669 381.506 439.912 382.662 440.162 383.82C440.524 385.498 440.92 387.656 441.222 390M450.185 380C450.558 381.831 451.096 385.11 451.414 388.667M450.185 380L442.71 388.667M450.185 421.333C450.463 419.015 449.035 416.138 447.273 413M447.273 413C444.729 408.469 441.49 403.393 441.691 398.667C441.811 395.845 441.583 392.791 441.222 390M447.273 413C444.28 414.902 434.827 418.202 420.965 416.187M441.222 390L451.414 388.667M441.222 382.667L450.185 387.333" stroke="black" stroke-linejoin="round"/>
  <path d="M340 383H345C346.105 383 347 383.895 347 385L347 387C347 388.105 346.105 389 345 389H342.692" stroke="black" stroke-width="2" stroke-linecap="round" stroke-linejoin="round"/>
  <path d="M326.589 375C317.883 375 311 377.15 311 379.803C311 380.637 311.523 381.422 312.752 382.105L315.379 394.3C315.904 395.501 319.302 397.559 326.589 397.559C333.875 397.559 336.573 396.701 338.149 394.986L341.09 381.689C341.903 381.11 342.353 380.472 342.353 379.803C342.353 377.15 335.295 375 326.589 375Z" fill="#D9D9D9"/>
  <path d="M312.752 382.105C311.523 381.422 311 380.637 311 379.803C311 377.15 317.883 375 326.589 375C335.295 375 342.353 377.15 342.353 379.803C342.353 381.772 338.462 383.465 332.895 384.206M312.752 382.105L315.379 394.3C315.904 395.501 319.302 397.559 326.589 397.559C333.875 397.559 336.573 396.701 338.149 394.986L341.09 381.689M312.752 382.105C313.906 382.748 315.529 383.301 317.481 383.723" stroke="black" stroke-linecap="round" stroke-linejoin="round"/>
  <path d="M338.735 380.059C338.735 380.188 338.613 380.462 337.995 380.816C337.415 381.148 336.543 381.464 335.422 381.736C333.187 382.278 330.074 382.618 326.618 382.618C323.161 382.618 320.048 382.278 317.813 381.736C316.692 381.464 315.82 381.148 315.24 380.816C314.622 380.462 314.5 380.188 314.5 380.059C314.5 379.93 314.622 379.656 315.24 379.302C315.82 378.97 316.692 378.654 317.813 378.382C320.048 377.84 323.161 377.5 326.618 377.5C330.074 377.5 333.187 377.84 335.422 378.382C336.543 378.654 337.415 378.97 337.995 379.302C338.613 379.656 338.735 379.93 338.735 380.059Z" fill="#725D41" stroke="black"/>
  <path d="M321.647 380.059C323.049 379.804 326.542 379.371 329.295 379.676" stroke="white" stroke-linecap="round" stroke-linejoin="round"/>
  <path d="M285.733 326.181C284.506 324.231 282.557 322.598 279.741 323.088C276.871 323.586 278.045 325.99 280.024 328.224C278.858 327.483 276.424 326.7 276.024 329.5C275.624 332.3 280.191 333 282.524 333H285.593H288.379H290.886C291.444 331.475 290.329 323.596 287.264 323.85C285.204 324.021 285.294 325.28 285.733 326.181Z" fill="#71A20F"/>
  <path d="M287.264 329.95C287.069 329.028 286.66 327.807 286.009 326.646M286.009 326.646C284.807 324.501 282.779 322.56 279.741 323.088C276.871 323.586 278.045 325.99 280.024 328.224C278.858 327.483 276.424 326.7 276.024 329.5C275.624 332.3 280.191 333 282.524 333M286.009 326.646C285.406 325.799 284.812 324.053 287.264 323.85C290.329 323.596 291.444 331.475 290.886 333" stroke="black" stroke-linecap="round" stroke-linejoin="round"/>
  <path d="M36.7333 259.181C35.5062 257.231 33.5574 255.598 30.7414 256.088C27.8711 256.586 29.0447 258.99 31.0244 261.224C29.8577 260.483 27.4244 259.7 27.0244 262.5C26.6244 265.3 31.1911 266 33.5244 266H36.5926H39.3788H41.8864C42.4436 264.475 41.3291 256.596 38.2642 256.85C36.204 257.021 36.2941 258.28 36.7333 259.181Z" fill="#71A20F"/>
  <path d="M38.2642 262.95C38.0686 262.028 37.6599 260.807 37.0093 259.646M37.0093 259.646C35.8071 257.501 33.7786 255.56 30.7414 256.088C27.8711 256.586 29.0447 258.99 31.0244 261.224C29.8577 260.483 27.4244 259.7 27.0244 262.5C26.6244 265.3 31.1911 266 33.5244 266M37.0093 259.646C36.406 258.799 35.8123 257.053 38.2642 256.85C41.3291 256.596 42.4436 264.475 41.8864 266" stroke="black" stroke-linecap="round" stroke-linejoin="round"/>
  <path d="M439.515 318.158C447.196 319.621 437.229 330.198 432.657 333.703L429.913 335.989H425.341H421.227C420.312 333.246 422.141 319.072 427.17 319.529C430.551 319.837 430.403 322.102 429.683 323.723C431.696 320.214 434.894 317.277 439.515 318.158Z" fill="#71A20F"/>
  <path d="M427.17 330.502C427.491 328.843 428.162 326.647 429.23 324.559M432.657 333.703C437.229 330.198 447.196 319.621 439.515 318.158C434.531 317.208 431.202 320.699 429.23 324.559M429.23 324.559C430.22 323.035 431.194 319.895 427.17 319.529C422.141 319.072 420.312 333.246 421.227 335.989" stroke="black" stroke-linecap="round"/>
</svg>
