<svg width="505" height="427" viewBox="0 0 505 427" fill="none" xmlns="http://www.w3.org/2000/svg">
  <path d="M661.708 125.205L577.131 3.62648C576.505 2.72574 575.29 2.48625 574.374 3.09111C505.081 48.8734 360.088 54.0614 290.76 50.7735C288.917 50.6862 287.965 52.928 289.279 54.2223L351.948 115.956C352.303 116.306 352.776 116.511 353.274 116.53L659.989 128.345C661.638 128.409 662.65 126.56 661.708 125.205Z" fill="#A38D73" stroke="black" stroke-width="2" stroke-linecap="round" stroke-linejoin="round"/>
  <path d="M435.5 33.5C343.938 40.9986 271.132 30.6173 245.033 24.2558C244.368 24.0938 243.699 24.2848 243.202 24.7549L113.5 147.5H469L575.692 4.7566C576.747 3.3454 575.601 1.4106 573.875 1.76397C549.642 6.72513 522.729 26.3562 435.5 33.5Z" fill="#DEC4A5"/>
  <path d="M435.5 33.5C343.938 40.9986 271.132 30.6173 245.033 24.2558C244.368 24.0938 243.699 24.2848 243.202 24.7549L113.5 147.5M435.5 33.5C522.729 26.3562 549.642 6.72513 573.875 1.76397C575.601 1.4106 576.747 3.3454 575.692 4.7566L469 147.5M435.5 33.5C404 39 336.3 49.8 317.5 49M469 147.5H113.5M469 147.5L356.5 308.5M113.5 147.5L8.87325 246.314C7.59778 247.519 5.5 246.615 5.5 244.86V235M5.5 235L1 236M5.5 235L9.5 234" stroke="black" stroke-width="2" stroke-linecap="round" stroke-linejoin="round"/>
  <path d="M235.777 91.4013C234.028 91.4013 233.491 90.6446 234.167 89.1311C234.863 87.6177 236.234 85.6856 238.277 83.335C239.607 81.8054 241.215 80.3725 243.102 79.0361C245.024 77.6837 247.1 76.5969 249.328 75.7758C251.571 74.9386 253.78 74.52 255.956 74.52C257.705 74.52 259.05 74.8017 259.989 75.3652C260.943 75.9127 261.387 76.7016 261.324 77.732C261.281 78.7624 260.672 79.9539 259.497 81.3063C258.139 82.8681 256.582 84.1802 254.827 85.2429C253.071 86.3055 251.308 87.0944 249.537 87.6096C247.767 88.1249 246.145 88.3825 244.673 88.3825C243.479 88.3825 242.513 88.2295 241.776 87.9236C241.456 88.4388 241.177 88.8333 240.94 89.107C239.61 90.6365 237.889 91.4013 235.777 91.4013ZM247.479 84.6391C248.247 84.6391 249.091 84.4298 250.009 84.0112C250.963 83.5765 251.685 83.0774 252.175 82.5138C252.679 81.9342 252.825 81.4351 252.612 81.0165C252.436 80.5818 251.963 80.3644 251.195 80.3644C250.449 80.3644 249.598 80.5818 248.644 81.0165C247.705 81.4351 246.983 81.9342 246.479 82.5138C245.989 83.0774 245.843 83.5765 246.041 84.0112C246.253 84.4298 246.733 84.6391 247.479 84.6391ZM262.615 91.4013C260.659 91.4174 259.172 91.0551 258.151 90.3145C257.152 89.5739 256.712 88.5596 256.829 87.2715C256.981 85.9674 257.722 84.5264 259.05 82.9486C260.345 81.4351 262.032 80.0344 264.111 78.7463C266.191 77.4583 268.403 76.4359 270.746 75.6792C273.103 74.9064 275.284 74.52 277.289 74.52C279.266 74.5039 280.757 74.8742 281.764 75.6309C282.791 76.3876 283.222 77.4261 283.055 78.7463C282.889 80.0666 282.113 81.5237 280.728 83.1176C279.426 84.615 277.739 85.9916 275.666 87.2474C273.593 88.5032 271.391 89.5015 269.062 90.2421C266.755 90.9827 264.605 91.3691 262.615 91.4013ZM266.804 86.6919C267.786 86.6919 268.849 86.4263 269.993 85.8949C271.159 85.3636 272.102 84.6713 272.823 83.818C273.578 82.9486 273.846 82.2482 273.625 81.7169C273.404 81.1856 272.803 80.9199 271.822 80.9199C270.841 80.9199 269.778 81.1856 268.633 81.7169C267.489 82.2482 266.538 82.9486 265.783 83.818C265.041 84.6713 264.78 85.3636 265.001 85.8949C265.222 86.4263 265.823 86.6919 266.804 86.6919ZM302.747 81.3063C301.725 82.4816 300.587 83.5201 299.334 84.4218C298.103 85.3234 296.805 86.0801 295.441 86.6919C295.431 87.513 295.09 88.31 294.419 89.0828C293.845 89.743 293.028 90.2904 291.967 90.7251C290.928 91.1598 289.981 91.3772 289.128 91.3772C288.637 91.3772 288.238 91.3208 287.931 91.2081C287.624 91.0954 287.354 90.9022 287.123 90.6285C286.928 90.387 286.83 90.0569 286.832 89.6383C286.833 89.2197 286.923 88.785 287.101 88.3342C286.453 88.2698 285.868 88.1329 285.346 87.9236C285.026 88.4388 284.747 88.8333 284.51 89.107C283.18 90.6365 281.459 91.4013 279.347 91.4013C277.576 91.4013 277.007 90.6204 277.64 89.0587C278.272 87.4969 279.568 85.589 281.527 83.335C282.857 81.8054 284.465 80.3725 286.352 79.0361C288.274 77.6837 290.35 76.5969 292.578 75.7758C294.821 74.9386 297.03 74.52 299.206 74.52C300.955 74.52 302.3 74.8017 303.239 75.3652C304.193 75.9127 304.637 76.7016 304.574 77.732C304.531 78.7624 303.922 79.9539 302.747 81.3063ZM289.792 82.4414C289.316 82.9888 289.184 83.4718 289.396 83.8904C289.622 84.293 290.109 84.4942 290.855 84.4942C291.623 84.4942 292.46 84.293 293.364 83.8904C294.304 83.4718 295.012 82.9888 295.488 82.4414C295.978 81.8779 296.11 81.3949 295.883 80.9924C295.693 80.5737 295.213 80.3644 294.445 80.3644C293.699 80.3644 292.855 80.5737 291.915 80.9924C290.976 81.411 290.268 81.894 289.792 82.4414ZM328.196 78.0701C327.273 79.1328 326.014 79.9056 324.421 80.3886C322.863 80.8555 320.73 81.1373 318.022 81.2339C317.436 82.0067 316.611 83.0049 315.547 84.2285C314.063 85.9352 312.746 87.3037 311.594 88.3342C310.478 89.3485 309.404 90.1052 308.373 90.6043C307.355 91.0874 306.314 91.3289 305.247 91.3289C304.202 91.3289 303.625 91.0713 303.519 90.556C303.412 90.0408 303.693 89.276 304.361 88.2617C305.029 87.2474 306.091 85.903 307.547 84.2285C308.527 83.1015 309.427 82.1033 310.246 81.2339C308.532 81.1695 307.221 81.0326 306.315 80.8233C305.444 80.5979 304.942 80.2678 304.808 79.8331C304.674 79.3984 304.929 78.8107 305.572 78.0701C306.356 77.1685 307.377 76.4601 308.636 75.9449C309.894 75.4296 311.425 75.0674 313.229 74.8581C315.032 74.6488 317.246 74.5441 319.87 74.5441C322.515 74.5441 324.568 74.6488 326.029 74.8581C327.489 75.0674 328.412 75.4296 328.796 75.9449C329.18 76.4601 328.98 77.1685 328.196 78.0701ZM335.34 83.0693C336.598 83.0693 337.591 83.1176 338.318 83.2142C339.08 83.2947 339.584 83.4879 339.83 83.7938C340.111 84.0836 339.993 84.5264 339.475 85.1221C338.733 85.9755 337.806 86.539 336.694 86.8127C335.602 87.0864 334.235 87.2232 332.593 87.2232L329.958 87.1991L327.921 87.2232C327.474 87.8351 327.097 88.3181 326.789 88.6723C325.236 90.4594 323.52 91.353 321.643 91.353C320.086 91.353 319.426 90.7009 319.663 89.3968C319.922 88.0927 321.256 86.056 323.663 83.2867C325.146 81.58 326.938 80.0585 329.039 78.7222C331.16 77.3858 333.364 76.3474 335.651 75.6067C337.951 74.85 340.083 74.4717 342.046 74.4717C344.478 74.4717 346.05 74.7856 346.763 75.4135C347.497 76.0415 347.374 76.9189 346.394 78.046C345.709 78.8349 344.928 79.4387 344.052 79.8573C343.211 80.2598 342.28 80.5335 341.258 80.6784C340.272 80.8072 339.053 80.8716 337.602 80.8716C336.429 80.8716 335.262 81.0487 334.1 81.4029C332.96 81.7571 332.075 82.2482 331.444 82.8761L331.223 83.0935C331.493 83.0774 331.884 83.0693 332.396 83.0693H333.548H335.34ZM346.333 91.4013C344.378 91.4174 342.89 91.0551 341.87 90.3145C340.871 89.5739 340.43 88.5596 340.547 87.2715C340.7 85.9674 341.44 84.5264 342.769 82.9486C344.064 81.4351 345.75 80.0344 347.83 78.7463C349.91 77.4583 352.121 76.4359 354.464 75.6792C356.822 74.9064 359.003 74.52 361.008 74.52C362.985 74.5039 364.476 74.8742 365.482 75.6309C366.51 76.3876 366.941 77.4261 366.774 78.7463C366.608 80.0666 365.832 81.5237 364.446 83.1176C363.145 84.615 361.457 85.9916 359.384 87.2474C357.311 88.5032 355.11 89.5015 352.781 90.2421C350.473 90.9827 348.324 91.3691 346.333 91.4013ZM350.523 86.6919C351.505 86.6919 352.567 86.4263 353.712 85.8949C354.878 85.3636 355.821 84.6713 356.541 83.818C357.297 82.9486 357.565 82.2482 357.344 81.7169C357.123 81.1856 356.522 80.9199 355.541 80.9199C354.559 80.9199 353.496 81.1856 352.352 81.7169C351.207 82.2482 350.257 82.9486 349.501 83.818C348.76 84.6713 348.499 85.3636 348.72 85.8949C348.941 86.4263 349.542 86.6919 350.523 86.6919ZM367.776 91.3772C365.621 91.3772 364.084 91.0471 363.165 90.387C362.259 89.7108 362.153 88.7045 362.845 87.3681C363.129 86.8207 363.582 86.1526 364.203 85.3636C364.825 84.5747 365.668 83.5684 366.732 82.3448C368.817 79.9458 370.817 78.0379 372.731 76.6211C374.681 75.1881 376.69 74.4717 378.76 74.4717C380.04 74.4717 380.748 74.8098 380.886 75.486C381.045 76.1622 380.69 76.9994 379.822 77.9977C378.899 79.0603 377.795 80.1954 376.51 81.4029C375.226 82.6105 373.622 84.0756 371.697 85.7983C373.3 85.4763 374.891 85.3153 376.469 85.3153C378.112 85.3153 379.281 85.5407 379.978 85.9916C380.695 86.4424 380.613 87.1749 379.731 88.1893C378.877 89.1714 377.821 89.8959 376.562 90.3628C375.302 90.8297 374.016 91.1196 372.702 91.2323C371.402 91.3289 369.76 91.3772 367.776 91.3772ZM391.454 87.0059C392.458 87.1025 393.119 87.3118 393.436 87.6338C393.789 87.9397 393.671 88.4308 393.084 89.107C392.496 89.7832 391.742 90.2823 390.822 90.6043C389.923 90.9263 389.002 91.1276 388.057 91.2081C387.126 91.2725 385.968 91.3047 384.581 91.3047C383.216 91.3047 382.124 91.2725 381.305 91.2081C380.5 91.1276 379.929 90.9263 379.59 90.6043C379.251 90.2823 379.376 89.7832 379.964 89.107C380.537 88.4469 381.245 87.9639 382.087 87.6579C382.964 87.3359 383.964 87.1186 385.086 87.0059C385.791 86.0721 386.899 84.7357 388.411 82.9969C389.769 81.4351 390.903 80.1793 391.814 79.2294C390.661 79.1328 389.886 78.9073 389.49 78.5531C389.094 78.1989 389.225 77.6435 389.882 76.8867C390.526 76.1461 391.343 75.5987 392.334 75.2445C393.325 74.8903 394.335 74.6729 395.365 74.5924C396.395 74.5119 397.667 74.4717 399.182 74.4717C400.697 74.4717 401.899 74.5119 402.789 74.5924C403.679 74.6729 404.311 74.8903 404.686 75.2445C405.082 75.5987 404.958 76.1461 404.314 76.8867C403.657 77.6435 402.811 78.1989 401.778 78.5531C400.766 78.9073 399.589 79.1328 398.246 79.2294C397.583 80.1149 396.545 81.3707 395.131 82.9969C393.773 84.5586 392.548 85.8949 391.454 87.0059ZM401.958 91.4013C400.003 91.4174 398.515 91.0551 397.495 90.3145C396.496 89.5739 396.055 88.5596 396.172 87.2715C396.325 85.9674 397.065 84.5264 398.394 82.9486C399.689 81.4351 401.375 80.0344 403.455 78.7463C405.535 77.4583 407.746 76.4359 410.089 75.6792C412.447 74.9064 414.628 74.52 416.633 74.52C418.61 74.5039 420.101 74.8742 421.107 75.6309C422.135 76.3876 422.566 77.4261 422.399 78.7463C422.233 80.0666 421.457 81.5237 420.071 83.1176C418.77 84.615 417.082 85.9916 415.009 87.2474C412.936 88.5032 410.735 89.5015 408.406 90.2421C406.098 90.9827 403.949 91.3691 401.958 91.4013ZM406.148 86.6919C407.13 86.6919 408.192 86.4263 409.337 85.8949C410.503 85.3636 411.446 84.6713 412.166 83.818C412.922 82.9486 413.19 82.2482 412.969 81.7169C412.748 81.1856 412.147 80.9199 411.166 80.9199C410.184 80.9199 409.121 81.1856 407.977 81.7169C406.832 82.2482 405.882 82.9486 405.126 83.818C404.385 84.6713 404.124 85.3636 404.345 85.8949C404.566 86.4263 405.167 86.6919 406.148 86.6919Z" fill="#94795A"/>
  <path d="M65.7113 205.076C65.5175 202.534 65.5365 196.592 67.1633 193.164M67.1633 193.164C68.7901 189.735 78.1307 189.967 82.5976 190.512M67.1633 193.164C64.9168 192.386 60.8218 189.915 62.4142 186.248C64.0067 182.581 69.2967 182.697 71.7427 183.214" stroke="black" stroke-width="3" stroke-linecap="round" stroke-linejoin="round"/>
  <path d="M30.4015 238.549L74.0782 243.873M30.4015 238.549C31.1089 232.746 34.0154 227.747 38.1845 224.286M30.4015 238.549C29.7 244.303 31.2876 249.809 34.4494 254.153M49.5777 263.049L54.9019 219.373M49.5777 263.049C55.8844 263.818 61.8925 261.838 66.4001 258.048M49.5777 263.049C43.2711 262.281 37.9148 258.915 34.4494 254.153M74.0782 243.873C73.3767 249.627 70.513 254.591 66.4001 258.048M74.0782 243.873C74.7856 238.07 73.165 232.52 69.9494 228.158M54.9019 219.373C48.6441 218.61 42.6802 220.554 38.1845 224.286M54.9019 219.373C61.1597 220.136 66.4819 223.455 69.9494 228.158M38.1845 224.286L66.4001 258.048M69.9494 228.158L34.4494 254.153" stroke="black"/>
  <path d="M53.9944 226.818C49.8691 226.315 45.9488 227.588 42.975 230.057C40.2203 232.344 38.313 235.628 37.8464 239.457C37.3836 243.253 38.4244 246.87 40.5134 249.74C42.8057 252.89 46.3281 255.098 50.4853 255.605C54.6424 256.111 58.5921 254.814 61.574 252.307C64.2912 250.023 66.1705 246.762 66.6333 242.966C67.1 239.137 66.0375 235.491 63.9128 232.609C61.6192 229.498 58.1196 227.32 53.9944 226.818ZM34.0452 254.448C30.8118 250.005 29.1878 244.373 29.9051 238.488C30.6286 232.554 33.6017 227.441 37.8651 223.901C42.4623 220.085 48.5624 218.096 54.9624 218.876C61.3624 219.657 66.8061 223.053 70.3518 227.862C73.6401 232.321 75.2979 237.999 74.5745 243.934C73.8571 249.819 70.9278 254.895 66.7218 258.431C62.1125 262.306 55.9672 264.332 49.5172 263.546C43.0673 262.759 37.5887 259.316 34.0452 254.448Z" fill="#858585" stroke="black"/>
  <path d="M131.652 250.891L175.329 256.215M131.652 250.891C132.359 245.088 135.266 240.09 139.435 236.629M131.652 250.891C130.951 256.646 132.538 262.152 135.7 266.496M150.828 275.392L156.152 231.715M150.828 275.392C157.135 276.161 163.143 274.18 167.651 270.391M150.828 275.392C144.522 274.623 139.165 271.257 135.7 266.496M175.329 256.215C174.627 261.97 171.763 266.933 167.651 270.391M175.329 256.215C176.036 250.412 174.415 244.862 171.2 240.501M156.152 231.715C149.895 230.952 143.931 232.896 139.435 236.629M156.152 231.715C162.41 232.478 167.732 235.798 171.2 240.501M139.435 236.629L167.651 270.391M171.2 240.501L135.7 266.496" stroke="black"/>
  <path d="M139.097 251.799C138.128 259.748 143.786 266.978 151.736 267.947C159.685 268.916 166.915 263.257 167.884 255.308C168.853 247.359 163.194 240.129 155.245 239.16C147.296 238.191 140.066 243.85 139.097 251.799ZM150.768 275.888C138.433 274.384 129.652 263.166 131.156 250.831C132.659 238.496 143.878 229.715 156.213 231.219C168.548 232.722 177.329 243.941 175.825 256.276C174.321 268.611 163.103 277.392 150.768 275.888Z" fill="#858585" stroke="black"/>
  <path d="M71.1327 243.244C72.3874 232.951 65.1315 223.642 54.9846 222.405C51.7447 222.01 48.6049 222.482 45.7847 223.639C44.2518 224.268 42.4994 223.535 41.8706 222.002C41.2419 220.469 41.9748 218.717 43.5077 218.088C47.2515 216.552 51.4236 215.927 55.7106 216.449C69.1937 218.093 78.7385 230.435 77.0886 243.97C76.8392 246.016 76.3474 247.977 75.6443 249.826C75.0554 251.374 73.3226 252.152 71.7739 251.563C70.2253 250.974 69.4472 249.242 70.0362 247.693C70.5682 246.294 70.9424 244.805 71.1327 243.244Z" fill="#EBF479" stroke="black" stroke-linecap="round"/>
  <circle cx="7" cy="7" r="7" transform="matrix(-0.992652 -0.121003 -0.121003 0.992652 114.873 239.779)" fill="#3D405A" stroke="#1E1E1E" stroke-width="4"/>
  <path d="M172.906 251.863C172.088 243.163 165.222 235.842 156.038 234.723C145.452 233.432 135.895 240.869 134.629 251.254C134.429 252.898 132.933 254.069 131.288 253.869C129.644 253.668 128.473 252.172 128.674 250.528C130.348 236.79 142.953 227.083 156.764 228.767C168.761 230.229 177.799 239.807 178.88 251.302C179.035 252.951 177.823 254.414 176.174 254.569C174.524 254.724 173.061 253.513 172.906 251.863Z" fill="#EBF479" stroke="black" stroke-linecap="round"/>
  <path d="M62.5059 205.25C62.7852 202.959 64.973 201.257 67.3747 201.876C72.8305 203.282 87.9655 207.519 104.66 215.156C120.671 222.48 138.323 233.022 150.175 247.36C151.134 246.992 152.195 246.847 153.284 246.98C156.848 247.414 159.384 250.655 158.95 254.219C158.516 257.782 155.275 260.319 151.711 259.884C149.037 259.558 146.941 257.652 146.246 255.215C133.868 254.159 123.287 253.178 113.738 250.195C103.616 247.033 94.6901 241.643 85.8173 231.707C76.0408 220.759 69.5923 215.367 65.567 212.957C64.664 219.276 63.3879 224.936 61.7729 229.63C60.427 233.541 58.8057 236.901 56.8801 239.409C57.1256 240.089 57.2195 240.835 57.1262 241.6C56.8079 244.211 54.4331 246.07 51.822 245.752C49.2109 245.434 47.3522 243.059 47.6705 240.448C47.9888 237.837 50.3635 235.978 52.9747 236.296C53.3403 236.341 53.6916 236.426 54.0245 236.546C55.4453 234.567 56.7908 231.815 57.9906 228.328C59.7241 223.29 61.0821 216.93 61.9688 209.656L62.5059 205.25ZM114.931 246.377C123.954 249.196 134.025 250.156 146.387 251.213C146.56 250.734 146.787 250.285 147.06 249.869C135.778 236.241 118.789 226.017 102.996 218.793C86.692 211.335 71.8829 207.172 66.4716 205.774L66.1162 208.69C70.7624 211.053 77.9376 216.878 88.8008 229.043C97.2019 238.45 105.513 243.435 114.931 246.377Z" fill="#EBF479" stroke="black"/>
  <path d="M46.2292 216.278C43.9553 216.168 41.7361 215.963 39.7477 215.731M46.2292 216.278L47.3073 190.905M46.2292 216.278C48.6045 216.394 50.9464 216.339 53.0374 216.211M63.6023 199.086L64.2825 195.024C64.58 193.247 63.2558 191.611 61.4563 191.531L56.0748 191.293M63.6023 199.086L30.1584 197.527M63.6023 199.086L62.2434 207.2M30.1584 197.527L29.7668 193.559C29.5874 191.741 31.0602 190.187 32.8849 190.267L38.2893 190.506M30.1584 197.527L30.997 206.026M62.2434 207.2L61.2314 213.243C61.0231 214.487 60.06 215.465 58.8107 215.637C57.4038 215.831 55.3777 216.067 53.0374 216.211M62.2434 207.2L30.997 206.026M30.997 206.026L31.6178 212.316C31.7473 213.628 32.7175 214.699 34.0176 214.917C35.4288 215.154 37.4316 215.461 39.7477 215.731M38.2893 190.506L39.7477 215.731M38.2893 190.506L47.3073 190.905M47.3073 190.905L56.0748 191.293M56.0748 191.293L53.0374 216.211" stroke="black"/>
  <path d="M143.234 206.067C149.558 207.16 150.637 212.097 147.059 218.476C145.019 222.113 140.419 223.116 136.594 221.458C128.628 218.005 116.021 211.833 115.58 207.202C115.01 201.215 127.132 203.286 143.234 206.067Z" fill="#858585"/>
  <path d="M119.67 210.255C125.214 210.234 137.318 211.121 141.38 214.841M143.234 206.067C149.558 207.16 150.637 212.097 147.059 218.476C145.019 222.113 140.419 223.116 136.594 221.458C128.628 218.005 116.021 211.833 115.58 207.202C115.01 201.215 127.132 203.286 143.234 206.067Z" stroke="black" stroke-linecap="round"/>
  <path fill-rule="evenodd" clip-rule="evenodd" d="M134.021 215.641C134.781 216.443 134.748 217.709 133.946 218.469C129.755 222.443 119.012 233.622 109.861 246.267C109.213 247.162 107.963 247.362 107.068 246.715C106.173 246.067 105.973 244.817 106.62 243.922C115.946 231.035 126.864 219.672 131.194 215.566C131.995 214.806 133.261 214.84 134.021 215.641Z" fill="#EBF479" stroke="black" stroke-linecap="round" stroke-linejoin="round"/>
  <mask id="path-18-outside-1_22129_3005" maskUnits="userSpaceOnUse" x="268.854" y="211.495" width="174" height="129" fill="black">
    <rect fill="white" x="268.854" y="211.495" width="174" height="129"/>
    <path fill-rule="evenodd" clip-rule="evenodd" d="M384.904 214.907C382.309 212.749 378.456 213.104 376.298 215.699L319.949 283.482L304.194 271.871C301.477 269.869 297.651 270.449 295.649 273.166C293.647 275.883 294.226 279.708 296.943 281.711L312.123 292.896L311.455 293.7L276.953 293.766C273.578 293.772 270.847 296.514 270.854 299.889C270.86 303.264 273.601 305.995 276.976 305.988L301.278 305.942L289.016 320.691C286.859 323.287 287.213 327.14 289.809 329.297C292.404 331.455 296.257 331.1 298.415 328.505L317.17 305.944L329.796 305.92L346.744 318.409L338.584 328.224C336.426 330.82 336.781 334.673 339.376 336.83C341.972 338.988 345.825 338.633 347.982 336.038L356.6 325.672L362.123 329.742C364.84 331.744 368.666 331.164 370.668 328.447C372.67 325.73 372.091 321.905 369.374 319.902L364.427 316.257L373.143 305.771L412.07 332.336C414.857 334.238 418.66 333.521 420.562 330.733C422.464 327.945 421.747 324.143 418.959 322.24L408.392 315.029L400.416 274.739C400.327 274.292 400.18 273.872 399.983 273.486L439.431 226.033C441.589 223.438 441.234 219.585 438.639 217.427C436.043 215.269 432.19 215.624 430.033 218.22L429.322 219.075C428.977 218.754 428.511 218.55 427.967 218.55H387.017C386.776 217.173 386.064 215.87 384.904 214.907ZM397.005 307.258L392.177 282.875L380.992 296.33L397.005 307.258ZM357.169 305.867L350.345 305.88L354.57 308.994L357.169 305.867Z"/>
  </mask>
  <path fill-rule="evenodd" clip-rule="evenodd" d="M384.904 214.907C382.309 212.749 378.456 213.104 376.298 215.699L319.949 283.482L304.194 271.871C301.477 269.869 297.651 270.449 295.649 273.166C293.647 275.883 294.226 279.708 296.943 281.711L312.123 292.896L311.455 293.7L276.953 293.766C273.578 293.772 270.847 296.514 270.854 299.889C270.86 303.264 273.601 305.995 276.976 305.988L301.278 305.942L289.016 320.691C286.859 323.287 287.213 327.14 289.809 329.297C292.404 331.455 296.257 331.1 298.415 328.505L317.17 305.944L329.796 305.92L346.744 318.409L338.584 328.224C336.426 330.82 336.781 334.673 339.376 336.83C341.972 338.988 345.825 338.633 347.982 336.038L356.6 325.672L362.123 329.742C364.84 331.744 368.666 331.164 370.668 328.447C372.67 325.73 372.091 321.905 369.374 319.902L364.427 316.257L373.143 305.771L412.07 332.336C414.857 334.238 418.66 333.521 420.562 330.733C422.464 327.945 421.747 324.143 418.959 322.24L408.392 315.029L400.416 274.739C400.327 274.292 400.18 273.872 399.983 273.486L439.431 226.033C441.589 223.438 441.234 219.585 438.639 217.427C436.043 215.269 432.19 215.624 430.033 218.22L429.322 219.075C428.977 218.754 428.511 218.55 427.967 218.55H387.017C386.776 217.173 386.064 215.87 384.904 214.907ZM397.005 307.258L392.177 282.875L380.992 296.33L397.005 307.258ZM357.169 305.867L350.345 305.88L354.57 308.994L357.169 305.867Z" fill="#CED2A0"/>
  <path d="M376.298 215.699L377.836 216.978V216.978L376.298 215.699ZM384.904 214.907L386.183 213.369V213.369L384.904 214.907ZM319.949 283.482L318.763 285.092L320.282 286.211L321.487 284.76L319.949 283.482ZM304.194 271.871L303.007 273.481L304.194 271.871ZM296.943 281.711L295.757 283.321H295.757L296.943 281.711ZM312.123 292.896L313.661 294.175L315.016 292.544L313.309 291.286L312.123 292.896ZM311.455 293.7L311.459 295.7L312.395 295.698L312.993 294.978L311.455 293.7ZM276.953 293.766L276.957 295.766H276.957L276.953 293.766ZM270.854 299.889L268.854 299.893L270.854 299.889ZM276.976 305.988L276.98 307.988L276.976 305.988ZM301.278 305.942L302.816 307.22L305.548 303.933L301.274 303.942L301.278 305.942ZM289.016 320.691L287.478 319.413L289.016 320.691ZM289.809 329.297L288.53 330.835H288.53L289.809 329.297ZM298.415 328.505L299.953 329.783H299.953L298.415 328.505ZM317.17 305.944L317.166 303.944L316.23 303.946L315.632 304.666L317.17 305.944ZM329.796 305.92L330.982 304.31L330.452 303.919L329.792 303.92L329.796 305.92ZM346.744 318.409L348.282 319.687L349.637 318.057L347.93 316.799L346.744 318.409ZM338.584 328.224L337.046 326.946L338.584 328.224ZM339.376 336.83L340.655 335.292L339.376 336.83ZM347.982 336.038L346.444 334.759L347.982 336.038ZM356.6 325.672L357.786 324.062L356.268 322.943L355.062 324.393L356.6 325.672ZM362.123 329.742L363.309 328.132H363.309L362.123 329.742ZM370.668 328.447L372.278 329.634V329.634L370.668 328.447ZM369.374 319.902L370.56 318.292H370.56L369.374 319.902ZM364.427 316.257L362.889 314.978L361.533 316.609L363.24 317.867L364.427 316.257ZM373.143 305.771L374.271 304.119L372.768 303.094L371.605 304.493L373.143 305.771ZM412.07 332.336L413.197 330.684L412.07 332.336ZM420.562 330.733L418.91 329.605H418.91L420.562 330.733ZM418.959 322.24L420.086 320.588L418.959 322.24ZM408.392 315.029L406.43 315.418L406.589 316.22L407.265 316.681L408.392 315.029ZM400.416 274.739L398.454 275.127V275.127L400.416 274.739ZM399.983 273.486L398.445 272.207L397.604 273.219L398.2 274.392L399.983 273.486ZM439.431 226.033L437.894 224.755V224.755L439.431 226.033ZM438.639 217.427L437.36 218.965V218.965L438.639 217.427ZM430.033 218.22L428.495 216.941V216.941L430.033 218.22ZM429.322 219.075L427.961 220.541L429.51 221.978L430.86 220.353L429.322 219.075ZM387.017 218.55L385.047 218.895L385.337 220.55H387.017V218.55ZM397.005 307.258L395.877 308.91L399.916 311.666L398.967 306.87L397.005 307.258ZM392.177 282.875L394.139 282.487L393.324 278.368L390.64 281.597L392.177 282.875ZM380.992 296.33L379.454 295.052L378.048 296.743L379.864 297.982L380.992 296.33ZM350.345 305.88L350.342 303.88L344.276 303.892L349.159 307.491L350.345 305.88ZM357.169 305.867L358.707 307.146L361.44 303.859L357.166 303.867L357.169 305.867ZM354.57 308.994L353.384 310.604L354.902 311.723L356.108 310.272L354.57 308.994ZM377.836 216.978C379.288 215.232 381.88 214.993 383.626 216.445L386.183 213.369C382.738 210.505 377.624 210.976 374.76 214.421L377.836 216.978ZM321.487 284.76L377.836 216.978L374.76 214.421L318.411 282.203L321.487 284.76ZM303.007 273.481L318.763 285.092L321.136 281.872L305.38 270.261L303.007 273.481ZM297.259 274.352C298.606 272.524 301.179 272.134 303.007 273.481L305.38 270.261C301.774 267.604 296.696 268.373 294.039 271.979L297.259 274.352ZM298.13 280.101C296.302 278.754 295.912 276.18 297.259 274.352L294.039 271.979C291.381 275.586 292.15 280.663 295.757 283.321L298.13 280.101ZM313.309 291.286L298.13 280.101L295.757 283.321L310.936 294.507L313.309 291.286ZM312.993 294.978L313.661 294.175L310.585 291.618L309.917 292.421L312.993 294.978ZM276.957 295.766L311.459 295.7L311.451 291.7L276.949 291.766L276.957 295.766ZM272.854 299.885C272.849 297.614 274.686 295.77 276.957 295.766L276.949 291.766C272.469 291.775 268.845 295.413 268.854 299.893L272.854 299.885ZM276.973 303.988C274.702 303.993 272.858 302.155 272.854 299.885L268.854 299.893C268.862 304.372 272.501 307.997 276.98 307.988L276.973 303.988ZM301.274 303.942L276.973 303.988L276.98 307.988L301.282 307.942L301.274 303.942ZM290.554 321.97L302.816 307.22L299.74 304.663L287.478 319.413L290.554 321.97ZM291.087 327.759C289.341 326.308 289.103 323.716 290.554 321.97L287.478 319.413C284.615 322.858 285.086 327.972 288.53 330.835L291.087 327.759ZM296.877 327.226C295.425 328.972 292.833 329.211 291.087 327.759L288.53 330.835C291.975 333.699 297.089 333.228 299.953 329.783L296.877 327.226ZM315.632 304.666L296.877 327.226L299.953 329.783L318.708 307.223L315.632 304.666ZM329.792 303.92L317.166 303.944L317.174 307.944L329.8 307.92L329.792 303.92ZM347.93 316.799L330.982 304.31L328.609 307.53L345.557 320.019L347.93 316.799ZM340.122 329.503L348.282 319.687L345.206 317.13L337.046 326.946L340.122 329.503ZM340.655 335.292C338.909 333.841 338.67 331.249 340.122 329.503L337.046 326.946C334.182 330.391 334.653 335.505 338.098 338.368L340.655 335.292ZM346.444 334.759C344.993 336.505 342.401 336.744 340.655 335.292L338.098 338.368C341.543 341.232 346.657 340.761 349.52 337.316L346.444 334.759ZM355.062 324.393L346.444 334.759L349.52 337.316L358.138 326.95L355.062 324.393ZM363.309 328.132L357.786 324.062L355.413 327.282L360.937 331.352L363.309 328.132ZM369.058 327.261C367.711 329.089 365.137 329.479 363.309 328.132L360.937 331.352C364.543 334.009 369.621 333.24 372.278 329.634L369.058 327.261ZM368.187 321.512C370.015 322.859 370.405 325.433 369.058 327.261L372.278 329.634C374.935 326.027 374.166 320.95 370.56 318.292L368.187 321.512ZM363.24 317.867L368.187 321.512L370.56 318.292L365.613 314.647L363.24 317.867ZM371.605 304.493L362.889 314.978L365.964 317.535L374.681 307.05L371.605 304.493ZM413.197 330.684L374.271 304.119L372.016 307.423L410.942 333.988L413.197 330.684ZM418.91 329.605C417.63 331.481 415.072 331.964 413.197 330.684L410.942 333.988C414.642 336.513 419.689 335.56 422.214 331.86L418.91 329.605ZM417.832 323.892C419.707 325.172 420.19 327.73 418.91 329.605L422.214 331.86C424.739 328.16 423.786 323.114 420.086 320.588L417.832 323.892ZM407.265 316.681L417.832 323.892L420.086 320.588L409.519 313.377L407.265 316.681ZM398.454 275.127L406.43 315.418L410.354 314.641L402.377 274.35L398.454 275.127ZM398.2 274.392C398.315 274.616 398.401 274.862 398.454 275.127L402.378 274.35C402.253 273.722 402.045 273.128 401.766 272.579L398.2 274.392ZM437.894 224.755L398.445 272.207L401.521 274.764L440.969 227.312L437.894 224.755ZM437.36 218.965C439.106 220.417 439.345 223.009 437.894 224.755L440.969 227.312C443.833 223.867 443.362 218.753 439.917 215.889L437.36 218.965ZM431.571 219.498C433.022 217.752 435.614 217.514 437.36 218.965L439.917 215.889C436.473 213.025 431.359 213.496 428.495 216.941L431.571 219.498ZM430.86 220.353L431.571 219.498L428.495 216.941L427.784 217.796L430.86 220.353ZM427.967 220.55C427.973 220.55 427.976 220.55 427.979 220.551C427.981 220.551 427.982 220.551 427.982 220.551C427.982 220.551 427.981 220.551 427.98 220.551C427.979 220.55 427.977 220.55 427.976 220.549C427.972 220.548 427.969 220.546 427.966 220.544C427.963 220.542 427.962 220.541 427.961 220.541L430.683 217.609C429.981 216.958 429.034 216.55 427.967 216.55V220.55ZM387.017 220.55H427.967V216.55H387.017V220.55ZM383.626 216.445C384.407 217.094 384.885 217.967 385.047 218.895L388.987 218.206C388.668 216.379 387.721 214.647 386.183 213.369L383.626 216.445ZM398.967 306.87L394.139 282.487L390.216 283.264L395.043 307.647L398.967 306.87ZM390.64 281.597L379.454 295.052L382.53 297.609L393.715 284.154L390.64 281.597ZM379.864 297.982L395.877 308.91L398.132 305.606L382.119 294.678L379.864 297.982ZM350.349 307.88L357.173 307.867L357.166 303.867L350.342 303.88L350.349 307.88ZM355.757 307.384L351.532 304.27L349.159 307.491L353.384 310.604L355.757 307.384ZM355.632 304.589L353.032 307.715L356.108 310.272L358.707 307.146L355.632 304.589Z" fill="black" mask="url(#path-18-outside-1_22129_3005)"/>
  <rect x="380.27" y="211.704" width="11.2222" height="147.756" rx="5.61112" transform="rotate(39.7375 380.27 211.704)" fill="#CED2A0" stroke="black"/>
  <rect x="292.723" y="277.98" width="11.2222" height="92.1876" rx="5.61112" transform="rotate(-53.6135 292.723 277.98)" fill="#CED2A0" stroke="black"/>
  <path d="M380.648 219.575C380.933 219.242 381.35 219.05 381.788 219.05H427.967C429.214 219.05 429.916 220.482 429.154 221.468L369.398 298.753C369.084 299.158 368.585 299.376 368.074 299.329L319.395 294.856C318.183 294.744 317.601 293.312 318.392 292.387L380.648 219.575Z" fill="#DF8365" stroke="black" stroke-linejoin="round"/>
  <rect x="390.588" y="272.27" width="8.66136" height="50.9391" rx="4.33068" transform="rotate(-11.1984 390.588 272.27)" fill="#CED2A0" stroke="black"/>
  <rect x="434.004" y="214.225" width="11.2222" height="154.275" rx="5.61112" transform="rotate(39.7375 434.004 214.225)" fill="#CED2A0" stroke="black"/>
  <rect x="271.364" y="305.499" width="11.2222" height="69.6506" rx="5.61112" transform="rotate(-90.1098 271.364 305.499)" fill="#CED2A0" stroke="black"/>
  <rect x="274.5" y="302.5" width="6" height="51" rx="3" transform="rotate(-90 274.5 302.5)" fill="#FFD891" stroke="black" stroke-linejoin="round"/>
  <rect x="300.507" y="305.476" width="11.2222" height="72.5082" rx="5.61112" transform="rotate(-90.1098 300.507 305.476)" fill="#CED2A0" stroke="black"/>
  <rect x="339.851" y="282.446" width="11.2222" height="93.3847" rx="5.61112" transform="rotate(-55.6891 339.851 282.446)" fill="#CED2A0" stroke="black"/>
  <path d="M352.343 138.902C347.99 138.031 342.334 143.395 341.926 145.029C340.904 149.318 343.275 155.935 351.117 155.445C360.921 154.832 361.532 140.74 352.343 138.902Z" fill="#725D41" stroke="black" stroke-linecap="round" stroke-linejoin="round"/>
  <path d="M300.659 134.095C305.012 133.224 310.668 138.589 311.076 140.222C312.098 144.512 309.727 151.129 301.885 150.638C292.081 150.026 291.47 135.933 300.659 134.095Z" fill="#725D41" stroke="black" stroke-linecap="round" stroke-linejoin="round"/>
  <path d="M229.971 257.156C239.942 249.928 258.297 246.928 266.228 246.74C288.321 255.022 282.089 291.913 276.991 291.913C232.845 291.913 238.14 318.457 229.971 315.065C223.173 312.241 196.546 297.56 201.645 293.607C205.723 290.445 213.352 288.337 216.373 289.655C222.602 287.396 220.001 264.384 229.971 257.156Z" fill="#725D41" stroke="black" stroke-linecap="round" stroke-linejoin="round"/>
  <path d="M218.743 221.005C230.632 210.575 256.603 217.49 294.492 188.911C295.543 188.118 297.087 188.502 297.51 189.749C303.177 206.467 296.675 226.949 275.751 235.098C253.795 243.649 243.89 243.676 225.03 238.936C223.774 241.838 224.266 243.251 221.833 244.901C218.474 247.178 203.611 234.282 218.743 221.005Z" fill="#725D41"/>
  <path d="M226.734 233.873C225.565 236.742 225.03 238.936 225.03 238.936M225.03 238.936C223.774 241.838 224.266 243.251 221.833 244.901C218.474 247.178 203.611 234.282 218.743 221.005C230.632 210.575 256.603 217.49 294.492 188.911C295.543 188.118 297.087 188.502 297.51 189.749C303.177 206.467 296.675 226.949 275.751 235.098C253.795 243.649 243.89 243.676 225.03 238.936Z" stroke="black"/>
  <path d="M373.174 209.364C370.233 194.169 357.856 179.341 352.954 159.121L295.971 179.341C295.971 210.59 254.363 226.103 251.501 249C250.001 261 254.001 264.5 254.001 264.5C239.501 279 247.501 306 242.501 306C240.215 306 231.042 306.459 228.001 309.5C221.501 316 258.5 337.5 263.001 331.5C266.601 326.7 282.611 303.442 295.971 297C306.388 291.977 319.165 298.522 352.954 293.5C373.686 290.418 376.851 228.358 373.174 209.364Z" fill="#725D41"/>
  <path d="M279.001 253.5C270.001 253.5 259.501 259 254.001 264.5M254.001 264.5C239.501 279 247.501 306 242.501 306C240.215 306 231.042 306.459 228.001 309.5C221.501 316 258.5 337.5 263.001 331.5C266.601 326.7 282.611 303.442 295.971 297C306.388 291.977 319.165 298.522 352.954 293.5C373.686 290.418 376.851 228.358 373.174 209.364C370.233 194.169 357.856 179.341 352.954 159.121L295.971 179.341C295.971 210.59 254.363 226.103 251.501 249C250.001 261 254.001 264.5 254.001 264.5Z" stroke="black" stroke-linecap="round" stroke-linejoin="round"/>
  <path d="M351.728 170.763C347.403 176.529 314.854 180.608 297.027 184.037C296.361 184.165 295.819 184.621 295.568 185.25C292.244 193.581 286.317 208.69 284.36 216.107C283.952 217.654 285.439 218.507 286.744 217.582C312.03 199.645 351.728 181.359 351.728 170.763Z" fill="#B5966E" stroke="black"/>
  <path d="M302.711 139.514C293.888 143.436 288.619 156.671 287.393 167.087C292.908 186.081 297.197 192.821 329.671 184.243C362.145 175.665 354.179 159.122 346.827 147.48C339.474 135.838 313.74 134.613 302.711 139.514Z" fill="#725D41" stroke="black" stroke-linecap="round" stroke-linejoin="round"/>
  <path d="M317.53 153.688C317.467 155.937 319.24 157.811 321.489 157.874C323.739 157.936 325.613 156.164 325.676 153.914C325.738 151.665 324.092 152.959 321.843 152.896C319.593 152.834 317.592 151.438 317.53 153.688Z" fill="black"/>
  <path d="M295.472 152.462C295.409 154.712 297.182 156.586 299.432 156.648C301.681 156.711 303.555 154.938 303.618 152.689C303.68 150.44 302.034 151.733 299.785 151.671C297.535 151.608 295.535 150.213 295.472 152.462Z" fill="black"/>
  <circle cx="296.584" cy="152.382" r="8.07804" fill="white" fill-opacity="0.21" stroke="black"/>
  <path d="M308.913 151.286C306.003 151.771 295.057 156.094 284.737 162.119C284.517 162.248 284.314 162.428 284.163 162.634C274.375 175.92 298.579 183.745 308.913 181.922C319.329 180.084 316.878 172.731 316.265 162.315C315.652 151.898 312.589 150.673 308.913 151.286Z" fill="#B5966E" stroke="black"/>
  <path d="M284.443 163.491C284.38 165.74 286.153 167.615 288.402 167.677C290.652 167.74 292.526 165.967 292.589 163.718C292.651 161.468 291.005 162.762 288.756 162.7C286.506 162.637 284.505 161.242 284.443 163.491Z" fill="black"/>
  <circle cx="319.867" cy="153.607" r="9.30347" fill="white" fill-opacity="0.21" stroke="black"/>
  <path d="M210.803 202.624L206.514 205.075L221.22 227.746L259.208 217.329L259.821 204.462L258.595 201.399L257.37 198.335C239.724 198.335 223.058 210.59 221.22 214.879C219.749 209.487 216.931 207.526 210.803 202.624Z" fill="white"/>
  <path d="M234.699 208.139C238.58 205.484 248.792 200.419 258.595 201.399M258.595 201.399L257.37 198.335C239.724 198.335 223.058 210.59 221.22 214.879C219.749 209.487 216.931 207.526 210.803 202.624L206.514 205.075L221.22 227.746L259.208 217.329L259.821 204.462L258.595 201.399Z" stroke="black"/>
  <path d="M260.045 203.582L224.163 215.934C223.855 216.041 223.617 216.291 223.527 216.605L222.652 219.668C222.53 220.097 222.137 220.393 221.691 220.393H217.931C217.378 220.393 216.931 219.945 216.931 219.393V216.451C216.931 216.226 216.855 216.008 216.716 215.832L206.691 203.107C205.951 202.168 204.484 203.085 205.005 204.162L219.339 233.786C219.367 233.844 219.401 233.899 219.44 233.95L234.087 253.48H240.214L272.246 246.955C272.815 246.839 273.166 246.263 273.009 245.704L261.333 204.256C261.177 203.703 260.589 203.395 260.045 203.582Z" fill="#F5C142"/>
  <path d="M240.214 253.48L272.246 246.955C272.815 246.839 273.166 246.263 273.009 245.704L261.333 204.256C261.177 203.703 260.589 203.395 260.045 203.582L224.163 215.934C223.855 216.041 223.617 216.291 223.527 216.605L222.652 219.668C222.53 220.097 222.137 220.393 221.691 220.393H217.931C217.378 220.393 216.931 219.945 216.931 219.393V216.451C216.931 216.226 216.855 216.008 216.716 215.832L206.691 203.107C205.951 202.168 204.484 203.085 205.005 204.162L219.339 233.786C219.367 233.844 219.401 233.899 219.44 233.95L234.087 253.48M240.214 253.48H234.087M240.214 253.48L225.509 223.457M234.087 253.48L218.156 223.457" stroke="black" stroke-linejoin="round"/>
  <path d="M290.307 223.803C296.934 222.476 317.097 199.784 336.254 188.061C337.399 187.36 338.87 188.015 339.163 189.325L347.935 228.457C348.011 228.8 347.996 229.154 347.834 229.467C346.99 231.092 343.198 236.731 328.229 245.378C305.821 258.323 303.36 250.556 276.518 250.556C259.283 250.556 254.112 247.104 259.283 238.474C264.454 229.844 281.689 225.529 290.307 223.803Z" fill="#725D41"/>
  <path d="M338.574 186.694C318.751 197.913 297.202 222.422 290.307 223.803C281.689 225.529 264.454 229.844 259.283 238.474C254.112 247.104 259.283 250.556 276.518 250.556C303.36 250.556 305.821 258.323 328.229 245.378C346.156 235.022 348.052 228.981 348.052 228.981" stroke="black"/>
  <path d="M253.694 241.838C254.306 240.613 258.595 238.775 261.046 238.775L260.433 240.613C258.963 240.122 256.144 241.021 253.694 241.838Z" fill="black" stroke="black" stroke-linejoin="round"/>
  <path d="M253.694 246.127C254.306 244.902 258.595 243.064 261.046 243.064L260.433 244.902C258.963 244.411 256.144 245.31 253.694 246.127Z" fill="black" stroke="black" stroke-linejoin="round"/>
  <path d="M226.596 241.961C225.612 242.808 222.093 242.898 220.607 242.04L221.897 240.663C222.544 241.602 224.702 241.811 226.596 241.961Z" fill="black" stroke="black" stroke-linejoin="round"/>
  <path d="M225.371 244.412C224.387 245.259 220.867 245.349 219.381 244.491L220.672 243.114C221.318 244.053 223.477 244.261 225.371 244.412Z" fill="black" stroke="black" stroke-linejoin="round"/>
  <path d="M255.532 248.578C257.983 248.497 259.208 248.578 261.658 247.353L262.884 248.578C261.047 249.191 257.983 249.191 255.532 248.578Z" fill="black" stroke="black" stroke-linejoin="round"/>
  <rect x="339.695" y="281.964" width="11.2222" height="93.3847" rx="5.61112" transform="rotate(-55.6891 339.695 281.964)" fill="#CED2A0" stroke="black"/>
  <path d="M467 375.859C465.99 379.151 464.172 386.757 464.98 390.843C465.653 394.249 465.906 399.626 465.971 403.032C465.991 404.044 465.233 404.896 464.227 405.016L388.895 414L354.111 395.923C353.079 395.387 352.591 394.015 352.782 392.868C353.152 390.644 353.364 387.093 353.474 383.351L333.889 381.298C332.83 381.187 332.042 380.266 332.119 379.204C332.842 369.245 335.442 353.24 341.223 351.681C345.218 350.546 355.701 348.752 365.666 350.659C369.002 351.298 371.855 351.936 374.419 352.502C381.264 352.229 396.167 351.068 401.015 348.616C407.075 345.551 415.828 344.729 420.204 348.616C423.706 351.725 426.152 358.766 426.938 361.897L467 375.859Z" fill="#DEC4A5"/>
  <path d="M353.546 371.432L388.895 386.076M353.546 371.432C374.419 369.049 418.319 363.804 426.938 361.897M353.546 371.432C353.209 365.643 350.651 353.588 343.11 351.681C342.446 351.513 341.818 351.521 341.223 351.681M353.546 371.432C353.596 374.507 353.602 379.054 353.474 383.351M388.895 386.076C390.242 390.979 389.456 406.735 388.895 414M388.895 386.076L426.938 381.1M467 375.859C465.99 379.151 464.172 386.757 464.98 390.843C465.653 394.249 465.906 399.626 465.971 403.032C465.991 404.044 465.233 404.896 464.227 405.016L388.895 414M467 375.859L426.938 361.897M467 375.859L426.938 381.1M388.895 414L354.111 395.923C353.079 395.387 352.591 394.015 352.782 392.868C353.152 390.644 353.364 387.093 353.474 383.351M462.623 387.438C461.052 389.14 457.708 393.431 456.9 396.973M426.938 361.897C427.387 367.207 428.015 378.481 426.938 381.1M426.938 361.897C426.152 358.766 423.706 351.725 420.204 348.616C415.828 344.729 407.075 345.551 401.015 348.616C396.167 351.068 381.264 352.229 374.419 352.502M353.474 383.351L333.889 381.298C332.83 381.187 332.042 380.266 332.119 379.204C332.842 369.245 335.442 353.24 341.223 351.681M341.223 351.681C345.218 350.546 355.701 348.752 365.666 350.659C369.002 351.298 371.855 351.936 374.419 352.502M392.935 354.065C386.28 355.062 381.429 354.051 374.419 352.502" stroke="black"/>
  <path d="M388.895 386.076L353.546 371.433C374.419 369.049 418.319 363.804 426.937 361.897L467 375.86L426.937 381.1L388.895 386.076Z" fill="#A38D73"/>
  <path d="M426.937 361.897C418.319 363.804 374.419 369.049 353.546 371.433L388.895 386.076L426.937 381.1M426.937 361.897L467 375.86L426.937 381.1M426.937 361.897C427.386 367.207 428.015 378.481 426.937 381.1" stroke="black" stroke-linejoin="round"/>
  <mask id="mask0_22129_3005" style="mask-type:alpha" maskUnits="userSpaceOnUse" x="359" y="336" width="106" height="50">
    <path d="M388.518 385.309L360.958 374.373C359.025 373.606 359.31 370.31 361.303 369.712C383.885 362.929 422.372 339.786 432.345 336.339C433.056 336.093 433.801 336.366 434.279 336.947L463.705 372.711C464.704 373.925 463.977 375.763 462.418 375.965L389.514 385.433C389.177 385.477 388.834 385.434 388.518 385.309Z" fill="#DEC4A5"/>
  </mask>
  <g mask="url(#mask0_22129_3005)">
    <circle cx="383" cy="377" r="10.5" fill="#C9615F" stroke="black"/>
    <path d="M382 370C382.5 370.167 383.8 370.4 385 370" stroke="black" stroke-linecap="round" stroke-linejoin="round"/>
    <circle cx="399" cy="382" r="10.5" fill="#C9615F" stroke="black"/>
    <path d="M398 375C398.5 375.167 399.8 375.4 401 375" stroke="black" stroke-linecap="round" stroke-linejoin="round"/>
    <rect x="413.5" y="358.5" width="31" height="34" rx="8.5" fill="#8ED4D0" stroke="black"/>
    <path d="M440.5 359.5C440.5 359.927 440.271 360.394 439.725 360.877C439.18 361.361 438.363 361.819 437.31 362.214C435.207 363.002 432.27 363.5 429 363.5C425.73 363.5 422.793 363.002 420.69 362.214C419.637 361.819 418.82 361.361 418.275 360.877C417.729 360.394 417.5 359.927 417.5 359.5V351.5H440.5V359.5Z" fill="#DD6F37" stroke="black"/>
    <path d="M440.5 351.5C440.5 351.927 440.271 352.394 439.725 352.877C439.18 353.361 438.363 353.819 437.31 354.214C435.207 355.002 432.27 355.5 429 355.5C425.73 355.5 422.793 355.002 420.69 354.214C419.637 353.819 418.82 353.361 418.275 352.877C417.729 352.394 417.5 351.927 417.5 351.5C417.5 351.073 417.729 350.606 418.275 350.123C418.82 349.639 419.637 349.181 420.69 348.786C422.793 347.998 425.73 347.5 429 347.5C432.27 347.5 435.207 347.998 437.31 348.786C438.363 349.181 439.18 349.639 439.725 350.123C440.271 350.606 440.5 351.073 440.5 351.5Z" fill="#CF8864" stroke="black"/>
  </g>
  <path d="M359.231 355.641C356.029 355.126 354.838 358.182 354.473 360.448L356.001 361.097C356.001 361.097 357.52 360.938 358.45 360.496C361.257 359.158 361.173 355.954 359.231 355.641Z" fill="white" stroke="black" stroke-linecap="round"/>
  <path d="M349.008 363.458C349.258 361.904 350.396 361.025 350.934 360.779C353.846 361.248 356.915 360.747 358.042 359.932C359.169 359.118 362.896 360.714 361.864 364.033C360.831 367.353 356.228 368.106 352.345 367.481C349.238 366.981 349.181 365.477 348.852 364.428L347.474 363.708L349.008 363.458Z" fill="#FEEF48" stroke="black" stroke-linecap="round"/>
  <path d="M349.008 363.458C349.258 361.904 350.448 360.701 351.904 360.936C351.904 360.936 350.829 361.426 350.465 363.692C349.912 367.125 352.344 367.481 352.344 367.481C352.344 367.481 348.868 367.419 348.852 364.428L347.474 363.709L349.008 363.458Z" fill="black"/>
  <path d="M353.36 361.17C352.964 362.6 352.09 365.348 353.394 367.152" stroke="black" stroke-linecap="round"/>
  <path d="M356.453 360.672C356.057 362.102 356.078 366.09 358.252 366.938" stroke="black" stroke-linecap="round"/>
  <path d="M352.962 355.224C356.194 354.948 356.272 359.409 355.907 361.675L354.253 361.812C354.253 361.812 352.861 361.184 352.117 360.472C349.871 358.321 348.922 355.57 352.962 355.224Z" fill="white" stroke="black" stroke-linecap="round"/>
  <path d="M358.124 361.439C357.905 360.74 357.789 359.194 359.079 358.605" stroke="black" stroke-linecap="round"/>
  <path d="M360.876 360.886C360.96 360.369 361.333 359.287 362.16 359.101" stroke="black" stroke-linecap="round"/>
  <path d="M409.445 385.766L417.567 384.667L418.926 392.667C418.926 394.444 418.654 399.533 417.567 405.667C417.04 408.635 418.669 412.505 420.965 416.187C434.827 418.202 444.28 414.902 447.273 413C444.729 408.469 441.49 403.393 441.691 398.667C441.811 395.845 441.583 392.791 441.222 390C440.92 387.656 440.524 385.498 440.162 383.82C439.912 382.662 440.669 381.506 441.839 381.321L450.185 380C450.558 381.831 451.096 385.11 451.414 388.667C451.675 391.585 451.789 394.689 451.544 397.333C451.062 402.534 454.639 408.991 457.114 412.48C457.623 413.199 457.658 414.162 457.146 414.879C454.982 417.903 451.401 422.606 449.506 424C447.331 425.6 434.782 426 428.779 426C425.495 424.889 418.654 422.533 417.567 422C416.207 421.333 406.354 408 407.034 405C407.577 402.6 407.713 396.222 407.713 393.333V387.748C407.713 386.747 408.453 385.9 409.445 385.766Z" fill="#CED2A0"/>
  <path d="M417.567 384.667L409.445 385.766C408.453 385.9 407.713 386.747 407.713 387.748V393.333M417.567 384.667L418.926 392.667M417.567 384.667L407.713 393.333M418.926 392.667L407.713 393.333M418.926 392.667L409.412 387.333M418.926 392.667C418.926 394.444 418.654 399.533 417.567 405.667C417.04 408.635 418.669 412.505 420.965 416.187M407.713 393.333C407.713 396.222 407.577 402.6 407.034 405C406.354 408 416.207 421.333 417.567 422C418.654 422.533 425.495 424.889 428.779 426M428.779 426C434.782 426 447.331 425.6 449.506 424C451.401 422.606 454.982 417.903 457.146 414.879C457.658 414.162 457.623 413.199 457.114 412.48C454.639 408.991 451.062 402.534 451.544 397.333C451.789 394.689 451.675 391.585 451.414 388.667M428.779 426C426.617 423.822 423.412 420.111 420.965 416.187M450.185 380L441.839 381.321C440.669 381.506 439.912 382.662 440.162 383.82C440.524 385.498 440.92 387.656 441.222 390M450.185 380C450.558 381.831 451.096 385.11 451.414 388.667M450.185 380L442.71 388.667M450.185 421.333C450.463 419.015 449.035 416.138 447.273 413M447.273 413C444.729 408.469 441.49 403.393 441.691 398.667C441.811 395.845 441.583 392.791 441.222 390M447.273 413C444.28 414.902 434.827 418.202 420.965 416.187M441.222 390L451.414 388.667M441.222 382.667L450.185 387.333" stroke="black" stroke-linejoin="round"/>
  <path d="M340 383H345C346.105 383 347 383.895 347 385L347 387C347 388.105 346.105 389 345 389H342.692" stroke="black" stroke-width="2" stroke-linecap="round" stroke-linejoin="round"/>
  <path d="M326.589 375C317.883 375 311 377.15 311 379.803C311 380.637 311.523 381.422 312.752 382.105L315.379 394.3C315.904 395.501 319.302 397.559 326.589 397.559C333.875 397.559 336.573 396.701 338.149 394.986L341.09 381.689C341.903 381.11 342.353 380.472 342.353 379.803C342.353 377.15 335.295 375 326.589 375Z" fill="#D9D9D9"/>
  <path d="M312.752 382.105C311.523 381.422 311 380.637 311 379.803C311 377.15 317.883 375 326.589 375C335.295 375 342.353 377.15 342.353 379.803C342.353 381.772 338.462 383.465 332.895 384.206M312.752 382.105L315.379 394.3C315.904 395.501 319.302 397.559 326.589 397.559C333.875 397.559 336.573 396.701 338.149 394.986L341.09 381.689M312.752 382.105C313.906 382.748 315.529 383.301 317.481 383.723" stroke="black" stroke-linecap="round" stroke-linejoin="round"/>
  <path d="M338.735 380.059C338.735 380.188 338.613 380.462 337.995 380.816C337.415 381.148 336.543 381.464 335.422 381.736C333.187 382.278 330.074 382.618 326.618 382.618C323.161 382.618 320.048 382.278 317.813 381.736C316.692 381.464 315.82 381.148 315.24 380.816C314.622 380.462 314.5 380.188 314.5 380.059C314.5 379.93 314.622 379.656 315.24 379.302C315.82 378.97 316.692 378.654 317.813 378.382C320.048 377.84 323.161 377.5 326.618 377.5C330.074 377.5 333.187 377.84 335.422 378.382C336.543 378.654 337.415 378.97 337.995 379.302C338.613 379.656 338.735 379.93 338.735 380.059Z" fill="#725D41" stroke="black"/>
  <path d="M321.647 380.059C323.049 379.804 326.542 379.371 329.295 379.676" stroke="white" stroke-linecap="round" stroke-linejoin="round"/>
  <path d="M285.734 326.181C284.506 324.231 282.558 322.598 279.742 323.088C276.871 323.586 278.045 325.99 280.025 328.224C278.858 327.483 276.425 326.7 276.025 329.5C275.625 332.3 280.191 333 282.525 333H285.593H288.379H290.887C291.444 331.475 290.329 323.596 287.264 323.85C285.204 324.021 285.294 325.28 285.734 326.181Z" fill="#71A20F"/>
  <path d="M287.264 329.95C287.069 329.028 286.66 327.807 286.01 326.646M286.01 326.646C284.807 324.501 282.779 322.56 279.742 323.088C276.871 323.586 278.045 325.99 280.025 328.224C278.858 327.483 276.425 326.7 276.025 329.5C275.625 332.3 280.191 333 282.525 333M286.01 326.646C285.406 325.799 284.813 324.053 287.264 323.85C290.329 323.596 291.444 331.475 290.887 333" stroke="black" stroke-linecap="round" stroke-linejoin="round"/>
  <path d="M36.7338 259.181C35.5066 257.231 33.5579 255.598 30.7419 256.088C27.8716 256.586 29.0452 258.99 31.0249 261.224C29.8582 260.483 27.4249 259.7 27.0249 262.5C26.6249 265.3 31.1916 266 33.5249 266H36.5931H39.3793H41.8869C42.4441 264.475 41.3296 256.596 38.2647 256.85C36.2045 257.021 36.2945 258.28 36.7338 259.181Z" fill="#71A20F"/>
  <path d="M38.2647 262.95C38.0691 262.028 37.6604 260.807 37.0098 259.646M37.0098 259.646C35.8076 257.501 33.7791 255.56 30.7419 256.088C27.8716 256.586 29.0452 258.99 31.0249 261.224C29.8582 260.483 27.4249 259.7 27.0249 262.5C26.6249 265.3 31.1916 266 33.5249 266M37.0098 259.646C36.4065 258.799 35.8128 257.053 38.2647 256.85C41.3296 256.596 42.4441 264.475 41.8869 266" stroke="black" stroke-linecap="round" stroke-linejoin="round"/>
  <path d="M439.515 318.158C447.196 319.621 437.229 330.198 432.657 333.703L429.913 335.989H425.341H421.227C420.312 333.246 422.141 319.072 427.17 319.529C430.551 319.837 430.403 322.102 429.683 323.723C431.696 320.214 434.894 317.277 439.515 318.158Z" fill="#71A20F"/>
  <path d="M427.17 330.502C427.491 328.843 428.162 326.647 429.23 324.559M432.657 333.703C437.229 330.198 447.196 319.621 439.515 318.158C434.531 317.208 431.202 320.699 429.23 324.559M429.23 324.559C430.22 323.035 431.194 319.895 427.17 319.529C422.141 319.072 420.312 333.246 421.227 335.989" stroke="black" stroke-linecap="round"/>
</svg>
