<svg width="102" height="113" viewBox="0 0 102 113" fill="none" xmlns="http://www.w3.org/2000/svg">
<path d="M50.1056 14.7491L50.8195 8.26844C51.0602 6.08425 53.0177 4.50315 55.2036 4.72735L67.0556 5.94293C67.6028 4.12922 69.3806 2.91112 71.3261 3.12728L76.7031 3.72472C78.4851 3.92273 79.8855 5.27166 80.1966 6.98091L95.2085 8.93899C97.3503 9.21834 98.8834 11.1475 98.672 13.2969L96.4542 35.8446C96.2301 38.1226 94.1437 39.7484 91.88 39.4088L80.2613 37.666V44.0076C83.1394 46.5238 87.6327 51.9553 88.6739 59.0398M50.1056 14.7491L88.6739 59.0398M50.1056 14.7491C48.5086 13.6262 46.2418 13.8001 44.8471 15.3343L43.9868 16.2806C42.514 15.1326 40.4625 14.273 37.8059 14.273C33.8801 14.273 31.8936 17.5687 31.0061 19.7783C30.9803 19.8425 30.955 19.9069 30.93 19.9715M50.1056 14.7491L30.93 19.9715M88.6739 59.0398C88.7028 59.2362 88.7161 59.4298 88.7161 59.6178V73.5012C88.7161 73.8518 88.6708 74.2313 88.5528 74.6257L88.5528 74.6258C88.2405 75.6697 86.3639 81.5679 82.0506 87.1482C80.8434 88.7099 78.6759 90.7212 76.2757 92.7728C73.8123 94.8783 70.8949 97.1999 68.0248 99.4142C62.2811 103.846 56.6342 107.918 54.9874 109.098C53.8058 109.946 52.2561 110.099 50.9096 109.429C48.9544 108.454 41.7976 104.858 34.3989 100.754C30.7016 98.7027 26.9137 96.5081 23.6721 94.4388C20.501 92.4145 17.6211 90.3668 15.92 88.6051L18.0782 86.5213L15.92 88.6051C10.024 82.4988 8.37558 78.2586 8.00303 77.0682L10.8661 76.1722L8.00303 77.0682C7.87004 76.6433 7.83128 76.2512 7.83128 75.928V64.7805C7.83128 60.953 8.26826 58.5737 8.7715 56.8578C6.56628 55.3505 3.77285 52.6828 3.13418 48.8507C2.76789 46.653 3.15442 44.69 4.31106 43.1693C5.10174 42.1297 6.10437 41.4925 7.04752 41.1156C7.66916 38.3835 8.77257 36.3117 10.2641 34.8637C11.6638 33.5049 13.2624 32.8376 14.7459 32.6327C15.5542 31.2472 16.7176 30.4061 17.9519 30.0107C18.0551 28.608 18.2222 26.9906 18.6705 25.4863C19.3298 23.2741 20.634 21.1158 23.1977 19.6318C24.8109 18.698 26.507 18.4502 28.1147 18.7723C29.1889 18.9875 30.1314 19.437 30.93 19.9715M88.6739 59.0398L30.93 19.9715M66.7563 7.87823C66.7564 7.87756 66.7565 7.8769 66.7565 7.87623L66.7563 7.8782L68.7409 8.12628L66.7563 7.87823Z" fill="#AA7755" stroke="white" stroke-width="6" stroke-linecap="round" stroke-linejoin="round"/>
<path d="M18.0782 86.5213C12.4789 80.7223 11.0879 76.881 10.8661 76.1722C10.8412 76.0926 10.8313 76.0114 10.8313 75.928V64.7805C10.8313 60.0408 11.5409 57.8665 12.1021 56.3605C12.2859 55.867 12.0509 55.3246 11.5886 55.0723C9.60444 53.9895 6.64184 51.6485 6.09336 48.3576C5.57302 45.2355 7.33228 44.037 8.78175 43.7085C9.2736 43.597 9.70077 43.2272 9.78516 42.7299C10.7524 37.0313 13.6865 35.5813 15.7282 35.5622C16.3053 35.5568 16.8647 35.2019 17.0819 34.6672C17.6376 33.2993 18.5996 32.8231 19.4635 32.7485C20.1175 32.6919 20.8024 32.2772 20.8486 31.6224C21.1028 28.0256 21.1689 24.2726 24.7007 22.2282C28.6597 19.9365 32.0352 24.9226 32.572 26.9356C32.7062 23.7147 33.9409 17.273 37.8059 17.273C40.3977 17.273 42.0481 18.3593 42.9756 19.4391C43.4736 20.019 44.4795 20.1985 44.9936 19.6329L47.0669 17.3523C47.486 16.8913 48.22 16.9216 48.5997 17.4155L50.7851 20.2581C51.3341 20.9721 52.4732 20.6534 52.5719 19.7581L53.8015 8.59696C53.8616 8.05092 54.351 7.65564 54.8975 7.71169L68.6388 9.12106C69.1796 9.17653 69.6657 8.78977 69.7331 8.25031L69.8921 6.97878C69.9599 6.43606 70.4512 6.04853 70.9948 6.10893L76.3718 6.70637C76.8782 6.76264 77.2613 7.19071 77.2613 7.70026V8.74542C77.2613 9.24771 77.6339 9.67206 78.132 9.73702L94.8205 11.9138C95.356 11.9836 95.7393 12.4659 95.6864 13.0033L93.4686 35.551C93.4126 36.1205 92.891 36.5269 92.3251 36.442L78.4097 34.3547C77.8051 34.264 77.2613 34.7323 77.2613 35.3436V44.9314C77.2613 45.2596 77.4229 45.564 77.682 45.7655C80.0799 47.63 84.7196 52.7658 85.7058 59.476C85.7127 59.5228 85.7161 59.5704 85.7161 59.6178V73.5012C85.7161 73.5919 85.7047 73.679 85.6787 73.7659C85.4094 74.6659 83.6619 80.1581 79.677 85.3135C75.6951 90.4649 56.512 104.315 53.2396 106.66C52.9407 106.875 52.5765 106.907 52.2473 106.743C48.3671 104.81 23.8022 92.4495 18.0782 86.5213Z" fill="#AA7755" stroke="black" stroke-width="3" stroke-linecap="round" stroke-linejoin="round"/>
<ellipse cx="48.0587" cy="70.7067" rx="37.2147" ry="26.5253" fill="#664422" stroke="black"/>
<path d="M84.7733 62.7883C84.7733 69.9092 80.7247 76.4035 74.0832 81.1374C67.4427 85.8705 58.2432 88.8136 48.0587 88.8136C37.8741 88.8136 28.6746 85.8705 22.0341 81.1374C15.3926 76.4035 11.344 69.9092 11.344 62.7883C11.344 55.6674 15.3926 49.173 22.0341 44.4392C28.6746 39.7061 37.8741 36.7629 48.0587 36.7629C58.2432 36.7629 67.4427 39.7061 74.0832 44.4392C80.7247 49.173 84.7733 55.6674 84.7733 62.7883Z" fill="#CCDD44" stroke="black"/>
<path d="M48.9962 27.892C51.4908 26.6414 50.2015 33.2782 49.1348 37.1856C49.0493 37.499 48.8138 37.7467 48.5072 37.8542L23.9078 46.4756C23.7563 46.5287 23.5938 46.5419 23.4336 46.531C21.6798 46.4126 20.5646 47.6223 18.074 40.1306C15.6852 32.9454 18.5921 32.5346 20.7641 33.3555C21.118 33.4893 21.3128 33.6781 21.3138 33.2997C21.3193 31.2816 21.6754 23.2472 25.3977 22.1808C29.9547 20.8754 32.6136 27.1353 32.7214 27.8922C32.8293 28.6491 33.3724 16.6327 39.2314 17.2854C45.0904 17.9382 45.4701 28.4361 44.9276 33.6034C45.1988 32.2435 46.3922 29.1975 48.9962 27.892Z" fill="#AAEE22" stroke="black" stroke-linejoin="round"/>
<path d="M16.3945 36.2629C21.4082 36.2629 18.8732 41.9555 18.7657 46.1736C18.7612 46.3488 18.7161 46.52 18.6286 46.6719L14.3962 54.0164C13.9555 54.7811 12.2107 55.0132 11.4559 54.5559C9.47277 53.3545 6.50397 51.7647 6.15428 48.9844C5.64226 44.9135 8.50099 44.3198 9.99436 44.5319C9.99436 41.7756 11.2744 36.2629 16.3945 36.2629Z" fill="#AAEE22"/>
<path d="M9.99436 44.5319C9.99436 41.7756 11.2744 36.2629 16.3945 36.2629C21.4082 36.2629 18.8732 41.9555 18.7657 46.1736C18.7612 46.3488 18.7161 46.52 18.6286 46.6719L14.3962 54.0164C13.9555 54.7811 12.2107 55.0132 11.4559 54.5559C9.47277 53.3545 6.50397 51.7647 6.15428 48.9844C5.64226 44.9135 8.50099 44.3198 9.99436 44.5319ZM9.99436 44.5319L10.6344 46.4401" stroke="black" stroke-linecap="round" stroke-linejoin="round"/>
<ellipse cx="44.6502" cy="76.0538" rx="23.3512" ry="6.4417" fill="#7EA82B"/>
<ellipse cx="72.4306" cy="52.3003" rx="7.64994" ry="2.8184" fill="#7EA82B"/>
<rect x="70.7367" y="7.30566" width="5.35056" height="45.8964" rx="1.5" fill="#A05A5A" stroke="black"/>
<path d="M74.6331 8.271V51.0151" stroke="black"/>
<rect x="54.2334" y="8.30768" width="40.8711" height="22.3512" rx="1.5" transform="rotate(6.64538 54.2334 8.30768)" fill="#E0CEAC" stroke="black"/>
<path d="M91.9054 14.6248L89.5758 34.6198" stroke="black"/>
<rect x="58.0966" y="12.4424" width="28.4536" height="4.83128" rx="2.41564" transform="rotate(6.68952 58.0966 12.4424)" fill="#A05A5A"/>
<rect x="66.1487" y="21.2998" width="19.2346" height="4.83128" rx="2.41564" transform="rotate(6.68952 66.1487 21.2998)" fill="#A05A5A"/>
<rect x="57.2914" y="20.4941" width="6.41085" height="4.83154" rx="2.41577" transform="rotate(6.68952 57.2914 20.4941)" fill="#A05A5A"/>
<path d="M18.8835 47.0659L41.8321 36.5981L66.3911 67.5988L14.0522 55.118L18.8835 47.0659Z" fill="#7EA82B"/>
<path d="M47.5442 17.6509L17.273 50.5708L32.0302 54.7331L44.1387 39.2191L47.5442 60.7873L66.4636 67.5983L47.5442 17.6509Z" fill="#F1DAC5"/>
<path d="M47.5442 17.6509L17.273 50.5708L32.0302 54.7331L44.1387 39.2191L47.5442 60.7873L66.4636 67.5983L47.5442 17.6509Z" fill="#F1DAC5"/>
<path d="M47.5442 17.6509L17.273 50.5708L32.0302 54.7331L44.1387 39.2191L47.5442 60.7873L66.4636 67.5983L47.5442 17.6509Z" stroke="black" stroke-linejoin="round"/>
<path d="M47.5443 17.2732L69.8692 44.1389L66.4637 67.599L47.5443 17.2732Z" fill="#B29071" stroke="black" stroke-linejoin="round"/>
<path d="M53.0228 62.0376C55.7071 62.5347 55.384 65.3101 54.8869 66.6357C54.8869 67.4227 53.8182 69.0217 49.5432 69.1211C45.2682 69.2205 45.7736 65.7658 46.5607 64.026C47.5963 63.1561 50.3385 61.5405 53.0228 62.0376Z" fill="#999999" stroke="black" stroke-linecap="round" stroke-linejoin="round"/>
<path d="M53.0228 62.0376C55.7071 62.5347 55.384 65.3101 54.8869 66.6357C53.9603 64.026 51.6134 64.026 46.5607 64.026C47.5963 63.1561 50.3385 61.5405 53.0228 62.0376Z" fill="#D9D9D9" stroke="black" stroke-linecap="round" stroke-linejoin="round"/>
<path d="M58.2543 63.7079C55.5516 64.2085 52.4795 67.2836 52.9801 68.6183C52.9801 69.4107 57.4535 70.74 61.7579 70.8402C66.0623 70.9403 65.5534 67.4618 64.761 65.71C63.7182 64.8341 60.9571 63.2074 58.2543 63.7079Z" fill="#999999" stroke="black" stroke-linecap="round" stroke-linejoin="round"/>
<path d="M58.254 63.7079C55.5512 64.2085 55.7675 65.8383 58.5397 67.2283C62.4395 70.0083 60.9455 67.0679 64.7606 65.71C63.7179 64.8341 60.9567 63.2074 58.254 63.7079Z" fill="#D9D9D9" stroke="black" stroke-linecap="round" stroke-linejoin="round"/>
<path d="M37.7445 62.0879C33.6108 62.8534 34.1084 67.1274 34.8739 69.1687C34.8739 70.3807 36.5197 72.8429 43.1029 72.996C49.6861 73.1491 48.9079 67.829 47.6959 65.1498C46.1011 63.8102 41.8781 61.3224 37.7445 62.0879Z" fill="#999999" stroke="black" stroke-linecap="round" stroke-linejoin="round"/>
<path d="M37.7445 62.0879C33.6108 62.8534 34.1084 67.1274 34.8739 69.1687C36.3009 65.1498 39.9149 65.1498 47.6959 65.1498C46.1011 63.8102 41.8781 61.3224 37.7445 62.0879Z" fill="#D9D9D9" stroke="black" stroke-linecap="round" stroke-linejoin="round"/>
<path d="M32.7408 67.6494C28.6071 68.4149 29.1047 72.6889 29.8702 74.7302C29.8702 75.9422 31.516 78.4044 38.0992 78.5575C44.6825 78.7106 43.9042 73.3905 42.6922 70.7114C41.0974 69.3717 36.8745 66.8839 32.7408 67.6494Z" fill="#999999" stroke="black" stroke-linecap="round" stroke-linejoin="round"/>
<path d="M32.7408 67.6494C28.6071 68.4149 29.1047 72.6889 29.8702 74.7302C32.2943 75.3681 38.2523 75.4575 42.6922 70.7114C41.0974 69.3717 36.8745 66.8839 32.7408 67.6494Z" fill="#D9D9D9" stroke="black" stroke-linecap="round" stroke-linejoin="round"/>
<rect x="43.9454" y="65.4797" width="4.10965" height="20.5206" rx="2.05483" transform="rotate(-55.6891 43.9454 65.4797)" fill="#B27D7D" stroke="black"/>
<rect x="-0.694837" y="-0.131154" width="4.10965" height="20.5206" rx="2.05483" transform="matrix(-0.563683 -0.825991 -0.825991 0.563683 60.4878 64.4226)" fill="#A05A5A" stroke="black"/>
<path d="M66.0455 68.0614C64.4887 68.5062 61.6902 71.2121 60.4855 72.5094C59.6784 73.3437 60.4855 78.6252 64.9335 78.6252C68.4919 78.6252 71.2349 78.0692 72.1615 77.7912C72.7175 76.7719 73.6628 74.2886 72.9956 72.5094C72.1615 70.2854 67.9915 67.5054 66.0455 68.0614Z" fill="#999999" stroke="black" stroke-linecap="round" stroke-linejoin="round"/>
<path d="M66.0454 68.0612C64.4886 68.506 61.69 71.2119 60.4854 72.5092L66.0454 74.4549L72.9954 72.5092C72.1614 70.2852 67.9914 67.5052 66.0454 68.0612Z" fill="#D9D9D9" stroke="black" stroke-linecap="round" stroke-linejoin="round"/>
<path d="M54.4239 71.5412C50.2902 72.3067 50.7878 76.5807 51.5533 78.622C51.5533 79.834 53.1991 82.2963 59.7823 82.4494C66.3655 82.6025 65.5873 77.2824 64.3752 74.6032C62.7805 73.2636 58.5575 70.7757 54.4239 71.5412Z" fill="#999999" stroke="black" stroke-linecap="round" stroke-linejoin="round"/>
<path d="M54.4238 71.5412C50.2902 72.3067 50.7878 76.5807 51.5533 78.622C52.9802 74.6032 56.5942 74.6032 64.3752 74.6032C62.7805 73.2636 58.5575 70.7757 54.4238 71.5412Z" fill="#D9D9D9" stroke="black" stroke-linecap="round" stroke-linejoin="round"/>
<path d="M42.1926 71.5412C38.0589 72.3067 38.5565 76.5807 39.322 78.622C39.322 79.834 40.9678 82.2963 47.551 82.4494C54.1342 82.6025 53.356 77.2824 52.144 74.6032C50.5492 73.2636 46.3263 70.7757 42.1926 71.5412Z" fill="#999999" stroke="black" stroke-linecap="round" stroke-linejoin="round"/>
<path d="M42.1926 71.5412C38.0589 72.3067 38.5565 76.5807 39.322 78.622C41.746 79.26 46.309 76.68 52.144 74.6032C50.5492 73.2636 46.3263 70.7757 42.1926 71.5412Z" fill="#D9D9D9" stroke="black" stroke-linecap="round" stroke-linejoin="round"/>
<mask id="path-36-inside-1_22321_3229" fill="white">
<path fill-rule="evenodd" clip-rule="evenodd" d="M59.4406 48.6666C60.3871 48.1301 60.8758 47.1692 60.8386 45.2368C65.6166 49.0124 61.0312 67.6647 48.5052 63.8477C45.9833 63.2243 43.8103 61.629 42.4601 59.4097C41.1099 57.1904 40.6921 54.5272 41.2978 52.001C41.9445 49.9289 43.353 48.1793 45.2391 47.105C44.557 48.6748 44.7474 50.4003 45.5747 51.4814C45.9672 50.2156 46.6929 49.0511 48.8266 48.8932C48.214 50.152 48.4567 51.274 48.8679 52.356C50.5083 51.7077 50.3794 49.635 50.2269 47.1851C50.0111 43.7164 49.7482 39.4915 54.3933 37.4827C53.6533 41.7836 55.9072 44.4499 58.1614 47.1165C58.5949 47.6293 59.0284 48.1421 59.4406 48.6666Z"/>
</mask>
<path fill-rule="evenodd" clip-rule="evenodd" d="M59.4406 48.6666C60.3871 48.1301 60.8758 47.1692 60.8386 45.2368C65.6166 49.0124 61.0312 67.6647 48.5052 63.8477C45.9833 63.2243 43.8103 61.629 42.4601 59.4097C41.1099 57.1904 40.6921 54.5272 41.2978 52.001C41.9445 49.9289 43.353 48.1793 45.2391 47.105C44.557 48.6748 44.7474 50.4003 45.5747 51.4814C45.9672 50.2156 46.6929 49.0511 48.8266 48.8932C48.214 50.152 48.4567 51.274 48.8679 52.356C50.5083 51.7077 50.3794 49.635 50.2269 47.1851C50.0111 43.7164 49.7482 39.4915 54.3933 37.4827C53.6533 41.7836 55.9072 44.4499 58.1614 47.1165C58.5949 47.6293 59.0284 48.1421 59.4406 48.6666Z" fill="#FF6242"/>
<path d="M60.8386 45.2368L61.4586 44.4522L59.7979 43.14L59.8387 45.2561L60.8386 45.2368ZM59.4406 48.6666L58.6544 49.2845L59.1856 49.9605L59.9336 49.5366L59.4406 48.6666ZM48.5052 63.8477L48.7967 62.8911L48.7711 62.8833L48.7452 62.8769L48.5052 63.8477ZM42.4601 59.4097L43.3144 58.8899L42.4601 59.4097ZM41.2978 52.001L40.3432 51.7031L40.3332 51.7352L40.3254 51.7678L41.2978 52.001ZM45.2391 47.105L46.1563 47.5034L47.3524 44.7504L44.7442 46.236L45.2391 47.105ZM45.5747 51.4814L44.7806 52.0891L45.9567 53.626L46.5298 51.7776L45.5747 51.4814ZM48.8266 48.8932L49.7258 49.3308L50.4865 47.7676L48.7528 47.8959L48.8266 48.8932ZM48.8679 52.356L47.9332 52.7113L48.2931 53.6584L49.2355 53.286L48.8679 52.356ZM50.2269 47.1851L49.2288 47.2472L50.2269 47.1851ZM54.3933 37.4827L55.3788 37.6522L55.6921 35.8315L53.9964 36.5648L54.3933 37.4827ZM58.1614 47.1165L58.9251 46.4709V46.4709L58.1614 47.1165ZM59.8387 45.2561C59.8559 46.1475 59.7478 46.7125 59.5897 47.0804C59.4447 47.4178 59.2412 47.6301 58.9475 47.7966L59.9336 49.5366C60.5864 49.1666 61.1005 48.6302 61.4272 47.87C61.7409 47.1401 61.8585 46.2585 61.8384 45.2175L59.8387 45.2561ZM48.2137 64.8042C51.6056 65.8378 54.535 65.3603 56.9033 63.9383C59.241 62.5347 60.9562 60.2592 62.0714 57.8029C63.1876 55.3446 63.738 52.6304 63.6884 50.2535C63.64 47.9332 63.0078 45.6764 61.4586 44.4522L60.2186 46.0214C61.0583 46.685 61.6447 48.1757 61.6889 50.2952C61.7319 52.3582 61.249 54.7765 60.2503 56.9761C59.2507 59.1776 57.7695 61.0854 55.8738 62.2236C54.0088 63.3434 51.6678 63.766 48.7967 62.8911L48.2137 64.8042ZM41.6058 59.9294C43.0932 62.3743 45.4871 64.1317 48.2653 64.8184L48.7452 62.8769C46.4796 62.3169 44.5274 60.8837 43.3144 58.8899L41.6058 59.9294ZM40.3254 51.7678C39.6581 54.5507 40.1184 57.4846 41.6058 59.9294L43.3144 58.8899C42.1014 56.8961 41.7261 54.5036 42.2702 52.2342L40.3254 51.7678ZM44.7442 46.236C42.6381 47.4356 41.0653 49.3894 40.3432 51.7031L42.2524 52.2989C42.8237 50.4685 44.0679 48.9229 45.734 47.9739L44.7442 46.236ZM46.3689 50.8737C45.7946 50.1233 45.5962 48.7925 46.1563 47.5034L44.3219 46.7065C43.5179 48.557 43.7002 50.6773 44.7806 52.0891L46.3689 50.8737ZM46.5298 51.7776C46.7034 51.2179 46.9168 50.7984 47.234 50.4992C47.5334 50.2167 48.0167 49.9559 48.9004 49.8905L48.7528 47.8959C47.5028 47.9884 46.5565 48.3888 45.8615 49.0445C45.1842 49.6834 44.8386 50.4791 44.6196 51.1852L46.5298 51.7776ZM47.9274 48.4556C47.1347 50.0844 47.4857 51.534 47.9332 52.7113L49.8027 52.0008C49.4277 51.0141 49.2932 50.2196 49.7258 49.3308L47.9274 48.4556ZM49.2288 47.2472C49.3075 48.512 49.364 49.5122 49.2338 50.2788C49.113 50.9902 48.8746 51.2781 48.5004 51.426L49.2355 53.286C50.5017 52.7856 51.0189 51.713 51.2056 50.6136C51.383 49.5692 51.2987 48.3081 51.225 47.123L49.2288 47.2472ZM53.9964 36.5648C51.3816 37.6956 50.089 39.5021 49.5244 41.5166C48.9827 43.449 49.123 45.5471 49.2288 47.2472L51.225 47.123C51.1149 45.3544 51.0159 43.6057 51.4501 42.0563C51.8614 40.589 52.7599 39.2786 54.7903 38.4005L53.9964 36.5648ZM58.9251 46.4709C56.6462 43.775 54.7264 41.4445 55.3788 37.6522L53.4078 37.3131C52.5803 42.1226 55.1683 45.1248 57.3977 47.762L58.9251 46.4709ZM60.2268 48.0486C59.8017 47.5078 59.3566 46.9814 58.9251 46.4709L57.3977 47.762C57.8331 48.2772 58.255 48.7764 58.6544 49.2845L60.2268 48.0486Z" fill="black" mask="url(#path-36-inside-1_22321_3229)"/>
<path d="M52.8676 58.9105C53.9834 58.4666 54.9643 57.7231 55.722 56.7616C56.3353 58.0984 56.0146 59.3401 55.2388 60.2078C54.3172 61.2386 52.7346 61.7609 51.1763 61.2435C50.6575 61.0623 50.1947 60.7165 49.8509 60.2441C49.6403 59.9548 49.4809 59.6267 49.3796 59.2766C50.5482 59.479 51.7504 59.355 52.8676 58.9105Z" fill="#FFE500" stroke="black"/>
</svg>
