<svg width="414" height="445" viewBox="0 0 414 445" fill="none" xmlns="http://www.w3.org/2000/svg">
<rect x="69.092" y="88.7671" width="425.896" height="5.78139" fill="#F7D4A2" stroke="black"/>
<path d="M63.311 101.613H500.77V94.5464H63.311V101.613Z" fill="#FFEEE0" stroke="black"/>
<rect x="66.5225" y="101.613" width="431.035" height="13.4899" fill="#F7D4A2" stroke="black"/>
<path d="M45.3242 128.594H518.756V115.104H45.3242V128.594Z" fill="#FFEEE0" stroke="black"/>
<rect x="48.5356" y="128.594" width="467.008" height="7.06614" fill="#F7D4A2" stroke="black"/>
<path d="M45.3242 149.15H518.756V135.66H45.3242V149.15Z" fill="#FFEEE0" stroke="black"/>
<rect x="48.5356" y="149.15" width="467.008" height="259.52" fill="#F7D4A2" stroke="black"/>
<path d="M67.811 168.425H112.128V218.527V268.629H67.811V218.527V168.425Z" fill="#D3F8FF" stroke="#BA9464" stroke-width="9"/>
<path d="M227.762 218.527C227.762 190.856 250.193 168.425 277.864 168.425C305.534 168.425 327.966 190.856 327.966 218.527V268.629H277.864H227.762V218.527Z" fill="#D3F8FF" stroke="#BA9464" stroke-width="9"/>
<path d="M67.811 290.478H112.128V340.58V390.682H67.811V340.58V290.478Z" fill="#D3F8FF" stroke="#BA9464" stroke-width="9"/>
<path d="M227.762 290.478H327.966V327.411V390.682H277.864H227.762V327.411V290.478Z" fill="#D3F8FF" stroke="#BA9464" stroke-width="9"/>
<path d="M1 443.999H563.08V408.669H1V443.999Z" fill="#D9CEC6" stroke="black"/>
<rect width="562.08" height="14.7747" transform="matrix(1 0 0 -1 1 423.443)" fill="#FFE5C1" stroke="black"/>
<path d="M63.311 77.2029H500.77V88.7657H63.311V77.2029Z" fill="#FFEEE0" stroke="black"/>
<path d="M283.003 0.758545L468.812 115.423H97.1941L283.003 0.758545Z" fill="#FFEEE0" stroke="black"/>
<g filter="url(#filter0_i_31324_1614)">
<path d="M283.003 12.8049L430.108 103.38H135.899L283.003 12.8049Z" fill="#F7D4A2"/>
</g>
<path d="M283.003 12.8049L430.108 103.38H135.899L283.003 12.8049Z" stroke="black"/>
<g filter="url(#filter1_i_31324_1614)">
<path d="M283.003 27.74L392.85 94.5472H173.157L283.003 27.74Z" fill="#FFEEE0"/>
</g>
<path d="M283.003 27.74L392.85 94.5472H173.157L283.003 27.74Z" stroke="black"/>
<path d="M96.0713 115.1H469.935V125.378H96.0713V115.1Z" fill="#FFEEE0" stroke="black"/>
<path d="M110.204 131.161H455.803V125.379H110.204V131.161Z" fill="#F7D4A2" stroke="black"/>
<path d="M104.423 131.161H461.584V142.723H104.423V131.161Z" fill="#FFEEE0" stroke="black"/>
<rect x="130.76" y="151.074" width="28.2646" height="257.593" fill="#FFEEE0" stroke="black"/>
<rect x="348.526" y="151.074" width="28.2646" height="257.593" fill="#FFEEE0" stroke="black"/>
<rect x="182.793" y="151.074" width="28.2646" height="257.593" fill="#FFEEE0" stroke="black"/>
<rect x="400.559" y="151.074" width="28.2646" height="257.593" fill="#FFEEE0" stroke="black"/>
<rect x="126.906" y="399.597" width="35.9731" height="8.99328" fill="#D9CEC6" stroke="black"/>
<rect x="344.671" y="399.597" width="35.9731" height="8.99328" fill="#D9CEC6" stroke="black"/>
<rect x="178.939" y="399.597" width="35.9731" height="8.99328" fill="#D9CEC6" stroke="black"/>
<rect x="396.705" y="399.597" width="35.9731" height="8.99328" fill="#D9CEC6" stroke="black"/>
<path fill-rule="evenodd" clip-rule="evenodd" d="M142.129 153.22C142.129 159.02 137.427 163.722 131.627 163.722C125.827 163.722 121.125 159.02 121.125 153.22C121.125 147.42 125.827 142.718 131.627 142.718H131.627H158.158C158.158 142.718 158.158 142.718 158.159 142.718C163.959 142.718 168.66 147.42 168.66 153.22C168.66 159.02 163.958 163.722 158.158 163.722C152.358 163.722 147.656 159.02 147.656 153.22C147.656 152.656 147.701 152.102 147.786 151.562H141.999C142.084 152.102 142.129 152.656 142.129 153.22Z" fill="#FFEEE0"/>
<path d="M131.627 142.718V142.218H131.627L131.627 142.718ZM158.159 142.718L158.159 142.218H158.159V142.718ZM147.786 151.562L148.28 151.64L148.372 151.062H147.786V151.562ZM141.999 151.562V151.062H141.413L141.505 151.64L141.999 151.562ZM131.627 164.222C137.703 164.222 142.629 159.296 142.629 153.22H141.629C141.629 158.744 137.151 163.222 131.627 163.222V164.222ZM120.625 153.22C120.625 159.296 125.551 164.222 131.627 164.222V163.222C126.103 163.222 121.625 158.744 121.625 153.22H120.625ZM131.627 142.218C125.551 142.218 120.625 147.144 120.625 153.22H121.625C121.625 147.696 126.103 143.218 131.627 143.218L131.627 142.218ZM131.627 142.218H131.627V143.218H131.627V142.218ZM158.158 142.218H131.627V143.218H158.158V142.218ZM158.158 143.218C158.158 143.218 158.158 143.218 158.158 143.218H158.158H158.158C158.158 143.218 158.158 143.218 158.158 143.218C158.158 143.218 158.158 143.218 158.158 143.218H158.158C158.158 143.218 158.158 143.218 158.158 143.218C158.158 143.218 158.158 143.218 158.158 143.218H158.158C158.158 143.218 158.158 143.218 158.158 143.218C158.158 143.218 158.158 143.218 158.158 143.218H158.158C158.158 143.218 158.158 143.218 158.158 143.218C158.158 143.218 158.158 143.218 158.158 143.218H158.158C158.158 143.218 158.158 143.218 158.158 143.218C158.158 143.218 158.158 143.218 158.158 143.218H158.158C158.158 143.218 158.158 143.218 158.158 143.218C158.158 143.218 158.158 143.218 158.158 143.218C158.158 143.218 158.158 143.218 158.158 143.218C158.158 143.218 158.158 143.218 158.158 143.218H158.158C158.158 143.218 158.158 143.218 158.158 143.218C158.158 143.218 158.158 143.218 158.158 143.218C158.158 143.218 158.158 143.218 158.158 143.218C158.158 143.218 158.158 143.218 158.158 143.218H158.158C158.158 143.218 158.158 143.218 158.158 143.218H158.158C158.158 143.218 158.158 143.218 158.158 143.218C158.158 143.218 158.158 143.218 158.158 143.218H158.158C158.158 143.218 158.158 143.218 158.158 143.218H158.158C158.158 143.218 158.158 143.218 158.158 143.218C158.158 143.218 158.158 143.218 158.158 143.218H158.158C158.158 143.218 158.158 143.218 158.158 143.218H158.158C158.158 143.218 158.158 143.218 158.158 143.218C158.158 143.218 158.158 143.218 158.158 143.218C158.158 143.218 158.158 143.218 158.158 143.218C158.158 143.218 158.158 143.218 158.158 143.218H158.158C158.158 143.218 158.158 143.218 158.158 143.218C158.158 143.218 158.158 143.218 158.158 143.218C158.158 143.218 158.158 143.218 158.158 143.218C158.158 143.218 158.158 143.218 158.158 143.218H158.158C158.158 143.218 158.158 143.218 158.158 143.218C158.158 143.218 158.158 143.218 158.158 143.218H158.158C158.158 143.218 158.158 143.218 158.158 143.218C158.158 143.218 158.158 143.218 158.158 143.218H158.158C158.158 143.218 158.158 143.218 158.158 143.218C158.158 143.218 158.158 143.218 158.158 143.218H158.158C158.158 143.218 158.158 143.218 158.158 143.218C158.158 143.218 158.158 143.218 158.158 143.218H158.158C158.159 143.218 158.159 143.218 158.159 143.218C158.159 143.218 158.159 143.218 158.159 143.218H158.159H158.159C158.159 143.218 158.159 143.218 158.159 143.218V142.218C158.159 142.218 158.159 142.218 158.159 142.218H158.159H158.159C158.159 142.218 158.159 142.218 158.159 142.218C158.159 142.218 158.159 142.218 158.158 142.218H158.158C158.158 142.218 158.158 142.218 158.158 142.218C158.158 142.218 158.158 142.218 158.158 142.218H158.158C158.158 142.218 158.158 142.218 158.158 142.218C158.158 142.218 158.158 142.218 158.158 142.218H158.158C158.158 142.218 158.158 142.218 158.158 142.218C158.158 142.218 158.158 142.218 158.158 142.218H158.158C158.158 142.218 158.158 142.218 158.158 142.218C158.158 142.218 158.158 142.218 158.158 142.218H158.158C158.158 142.218 158.158 142.218 158.158 142.218C158.158 142.218 158.158 142.218 158.158 142.218C158.158 142.218 158.158 142.218 158.158 142.218C158.158 142.218 158.158 142.218 158.158 142.218H158.158C158.158 142.218 158.158 142.218 158.158 142.218C158.158 142.218 158.158 142.218 158.158 142.218C158.158 142.218 158.158 142.218 158.158 142.218C158.158 142.218 158.158 142.218 158.158 142.218H158.158C158.158 142.218 158.158 142.218 158.158 142.218H158.158C158.158 142.218 158.158 142.218 158.158 142.218C158.158 142.218 158.158 142.218 158.158 142.218H158.158C158.158 142.218 158.158 142.218 158.158 142.218H158.158C158.158 142.218 158.158 142.218 158.158 142.218C158.158 142.218 158.158 142.218 158.158 142.218H158.158C158.158 142.218 158.158 142.218 158.158 142.218H158.158C158.158 142.218 158.158 142.218 158.158 142.218C158.158 142.218 158.158 142.218 158.158 142.218C158.158 142.218 158.158 142.218 158.158 142.218C158.158 142.218 158.158 142.218 158.158 142.218H158.158C158.158 142.218 158.158 142.218 158.158 142.218C158.158 142.218 158.158 142.218 158.158 142.218C158.158 142.218 158.158 142.218 158.158 142.218C158.158 142.218 158.158 142.218 158.158 142.218H158.158C158.158 142.218 158.158 142.218 158.158 142.218C158.158 142.218 158.158 142.218 158.158 142.218H158.158C158.158 142.218 158.158 142.218 158.158 142.218C158.158 142.218 158.158 142.218 158.158 142.218H158.158C158.158 142.218 158.158 142.218 158.158 142.218C158.158 142.218 158.158 142.218 158.158 142.218H158.158C158.158 142.218 158.158 142.218 158.158 142.218C158.158 142.218 158.158 142.218 158.158 142.218H158.158C158.158 142.218 158.158 142.218 158.158 142.218C158.158 142.218 158.158 142.218 158.158 142.218H158.158H158.158C158.158 142.218 158.158 142.218 158.158 142.218V143.218ZM158.159 143.218C163.682 143.218 168.16 147.696 168.16 153.22H169.16C169.16 147.144 164.235 142.218 158.159 142.218L158.159 143.218ZM168.16 153.22C168.16 158.744 163.682 163.222 158.158 163.222V164.222C164.235 164.222 169.16 159.296 169.16 153.22H168.16ZM158.158 163.222C152.634 163.222 148.156 158.744 148.156 153.22H147.156C147.156 159.296 152.082 164.222 158.158 164.222V163.222ZM148.156 153.22C148.156 152.682 148.199 152.155 148.28 151.64L147.292 151.484C147.203 152.05 147.156 152.63 147.156 153.22H148.156ZM141.999 152.062H147.786V151.062H141.999V152.062ZM142.629 153.22C142.629 152.63 142.582 152.05 142.493 151.484L141.505 151.64C141.587 152.155 141.629 152.682 141.629 153.22H142.629Z" fill="black"/>
<circle cx="158.158" cy="153.222" r="6.08017" fill="#D9CEC6" stroke="black"/>
<circle cx="131.627" cy="153.222" r="6.08017" fill="#D9CEC6" stroke="black"/>
<path fill-rule="evenodd" clip-rule="evenodd" d="M359.895 153.22C359.895 159.02 355.193 163.722 349.393 163.722C343.593 163.722 338.891 159.02 338.891 153.22C338.891 147.42 343.593 142.718 349.393 142.718H349.393H375.924C375.924 142.718 375.924 142.718 375.924 142.718C381.724 142.718 386.426 147.42 386.426 153.22C386.426 159.02 381.724 163.722 375.924 163.722C370.124 163.722 365.422 159.02 365.422 153.22C365.422 152.656 365.467 152.102 365.552 151.562H359.765C359.85 152.102 359.895 152.656 359.895 153.22Z" fill="#FFEEE0"/>
<path d="M349.393 142.718V142.218H349.393L349.393 142.718ZM375.924 142.718L375.924 142.218H375.924V142.718ZM365.552 151.562L366.046 151.64L366.138 151.062H365.552V151.562ZM359.765 151.562V151.062H359.179L359.271 151.64L359.765 151.562ZM349.393 164.222C355.469 164.222 360.395 159.296 360.395 153.22H359.395C359.395 158.744 354.917 163.222 349.393 163.222V164.222ZM338.391 153.22C338.391 159.296 343.316 164.222 349.393 164.222V163.222C343.869 163.222 339.391 158.744 339.391 153.22H338.391ZM349.393 142.218C343.316 142.218 338.391 147.144 338.391 153.22H339.391C339.391 147.696 343.869 143.218 349.393 143.218L349.393 142.218ZM349.393 142.218H349.393V143.218H349.393V142.218ZM375.924 142.218H349.393V143.218H375.924V142.218ZM375.924 143.218C375.924 143.218 375.924 143.218 375.924 143.218H375.924H375.924C375.924 143.218 375.924 143.218 375.924 143.218C375.924 143.218 375.924 143.218 375.924 143.218H375.924C375.924 143.218 375.924 143.218 375.924 143.218C375.924 143.218 375.924 143.218 375.924 143.218H375.924C375.924 143.218 375.924 143.218 375.924 143.218C375.924 143.218 375.924 143.218 375.924 143.218H375.924C375.924 143.218 375.924 143.218 375.924 143.218C375.924 143.218 375.924 143.218 375.924 143.218H375.924C375.924 143.218 375.924 143.218 375.924 143.218C375.924 143.218 375.924 143.218 375.924 143.218H375.924C375.924 143.218 375.924 143.218 375.924 143.218C375.924 143.218 375.924 143.218 375.924 143.218C375.924 143.218 375.924 143.218 375.924 143.218C375.924 143.218 375.924 143.218 375.924 143.218H375.924C375.924 143.218 375.924 143.218 375.924 143.218C375.924 143.218 375.924 143.218 375.924 143.218C375.924 143.218 375.924 143.218 375.924 143.218C375.924 143.218 375.924 143.218 375.924 143.218H375.924C375.924 143.218 375.924 143.218 375.924 143.218H375.924C375.924 143.218 375.924 143.218 375.924 143.218C375.924 143.218 375.924 143.218 375.924 143.218H375.924C375.924 143.218 375.924 143.218 375.924 143.218H375.924C375.924 143.218 375.924 143.218 375.924 143.218C375.924 143.218 375.924 143.218 375.924 143.218H375.924C375.924 143.218 375.924 143.218 375.924 143.218H375.924C375.924 143.218 375.924 143.218 375.924 143.218C375.924 143.218 375.924 143.218 375.924 143.218C375.924 143.218 375.924 143.218 375.924 143.218C375.924 143.218 375.924 143.218 375.924 143.218H375.924C375.924 143.218 375.924 143.218 375.924 143.218C375.924 143.218 375.924 143.218 375.924 143.218C375.924 143.218 375.924 143.218 375.924 143.218C375.924 143.218 375.924 143.218 375.924 143.218H375.924C375.924 143.218 375.924 143.218 375.924 143.218C375.924 143.218 375.924 143.218 375.924 143.218H375.924C375.924 143.218 375.924 143.218 375.924 143.218C375.924 143.218 375.924 143.218 375.924 143.218H375.924C375.924 143.218 375.924 143.218 375.924 143.218C375.924 143.218 375.924 143.218 375.924 143.218H375.924C375.924 143.218 375.924 143.218 375.924 143.218C375.924 143.218 375.924 143.218 375.924 143.218H375.924C375.924 143.218 375.924 143.218 375.924 143.218C375.924 143.218 375.924 143.218 375.924 143.218H375.924H375.924C375.924 143.218 375.924 143.218 375.924 143.218V142.218C375.924 142.218 375.924 142.218 375.924 142.218H375.924H375.924C375.924 142.218 375.924 142.218 375.924 142.218C375.924 142.218 375.924 142.218 375.924 142.218H375.924C375.924 142.218 375.924 142.218 375.924 142.218C375.924 142.218 375.924 142.218 375.924 142.218H375.924C375.924 142.218 375.924 142.218 375.924 142.218C375.924 142.218 375.924 142.218 375.924 142.218H375.924C375.924 142.218 375.924 142.218 375.924 142.218C375.924 142.218 375.924 142.218 375.924 142.218H375.924C375.924 142.218 375.924 142.218 375.924 142.218C375.924 142.218 375.924 142.218 375.924 142.218H375.924C375.924 142.218 375.924 142.218 375.924 142.218C375.924 142.218 375.924 142.218 375.924 142.218C375.924 142.218 375.924 142.218 375.924 142.218C375.924 142.218 375.924 142.218 375.924 142.218H375.924C375.924 142.218 375.924 142.218 375.924 142.218C375.924 142.218 375.924 142.218 375.924 142.218C375.924 142.218 375.924 142.218 375.924 142.218C375.924 142.218 375.924 142.218 375.924 142.218H375.924C375.924 142.218 375.924 142.218 375.924 142.218H375.924C375.924 142.218 375.924 142.218 375.924 142.218C375.924 142.218 375.924 142.218 375.924 142.218H375.924C375.924 142.218 375.924 142.218 375.924 142.218H375.924C375.924 142.218 375.924 142.218 375.924 142.218C375.924 142.218 375.924 142.218 375.924 142.218H375.924C375.924 142.218 375.924 142.218 375.924 142.218H375.924C375.924 142.218 375.924 142.218 375.924 142.218C375.924 142.218 375.924 142.218 375.924 142.218C375.924 142.218 375.924 142.218 375.924 142.218C375.924 142.218 375.924 142.218 375.924 142.218H375.924C375.924 142.218 375.924 142.218 375.924 142.218C375.924 142.218 375.924 142.218 375.924 142.218C375.924 142.218 375.924 142.218 375.924 142.218C375.924 142.218 375.924 142.218 375.924 142.218H375.924C375.924 142.218 375.924 142.218 375.924 142.218C375.924 142.218 375.924 142.218 375.924 142.218H375.924C375.924 142.218 375.924 142.218 375.924 142.218C375.924 142.218 375.924 142.218 375.924 142.218H375.924C375.924 142.218 375.924 142.218 375.924 142.218C375.924 142.218 375.924 142.218 375.924 142.218H375.924C375.924 142.218 375.924 142.218 375.924 142.218C375.924 142.218 375.924 142.218 375.924 142.218H375.924C375.924 142.218 375.924 142.218 375.924 142.218C375.924 142.218 375.924 142.218 375.924 142.218H375.924H375.924C375.924 142.218 375.924 142.218 375.924 142.218V143.218ZM375.924 143.218C381.448 143.218 385.926 147.696 385.926 153.22H386.926C386.926 147.144 382.001 142.218 375.924 142.218L375.924 143.218ZM385.926 153.22C385.926 158.744 381.448 163.222 375.924 163.222V164.222C382 164.222 386.926 159.296 386.926 153.22H385.926ZM375.924 163.222C370.4 163.222 365.922 158.744 365.922 153.22H364.922C364.922 159.296 369.848 164.222 375.924 164.222V163.222ZM365.922 153.22C365.922 152.682 365.964 152.155 366.046 151.64L365.058 151.484C364.969 152.05 364.922 152.63 364.922 153.22H365.922ZM359.765 152.062H365.552V151.062H359.765V152.062ZM360.395 153.22C360.395 152.63 360.348 152.05 360.259 151.484L359.271 151.64C359.352 152.155 359.395 152.682 359.395 153.22H360.395Z" fill="black"/>
<circle cx="375.924" cy="153.222" r="6.08017" fill="#D9CEC6" stroke="black"/>
<circle cx="349.392" cy="153.222" r="6.08017" fill="#D9CEC6" stroke="black"/>
<path fill-rule="evenodd" clip-rule="evenodd" d="M194.162 153.22C194.162 159.02 189.46 163.722 183.66 163.722C177.859 163.722 173.157 159.02 173.157 153.22C173.157 147.42 177.859 142.718 183.66 142.718H183.66H210.191C210.191 142.718 210.191 142.718 210.191 142.718C215.991 142.718 220.693 147.42 220.693 153.22C220.693 159.02 215.991 163.722 210.191 163.722C204.391 163.722 199.689 159.02 199.689 153.22C199.689 152.656 199.733 152.102 199.819 151.562H194.032C194.117 152.102 194.162 152.656 194.162 153.22Z" fill="#FFEEE0"/>
<path d="M183.66 142.718V142.218H183.66L183.66 142.718ZM210.191 142.718L210.191 142.218H210.191V142.718ZM199.819 151.562L200.313 151.64L200.405 151.062H199.819V151.562ZM194.032 151.562V151.062H193.446L193.538 151.64L194.032 151.562ZM183.66 164.222C189.736 164.222 194.662 159.296 194.662 153.22H193.662C193.662 158.744 189.184 163.222 183.66 163.222V164.222ZM172.657 153.22C172.657 159.296 177.583 164.222 183.66 164.222V163.222C178.136 163.222 173.657 158.744 173.657 153.22H172.657ZM183.66 142.218C177.583 142.218 172.657 147.144 172.657 153.22H173.657C173.657 147.696 178.136 143.218 183.66 143.218L183.66 142.218ZM183.66 142.218H183.66V143.218H183.66V142.218ZM210.191 142.218H183.66V143.218H210.191V142.218ZM210.191 143.218C210.191 143.218 210.191 143.218 210.191 143.218H210.191H210.191C210.191 143.218 210.191 143.218 210.191 143.218C210.191 143.218 210.191 143.218 210.191 143.218H210.191C210.191 143.218 210.191 143.218 210.191 143.218C210.191 143.218 210.191 143.218 210.191 143.218H210.191C210.191 143.218 210.191 143.218 210.191 143.218C210.191 143.218 210.191 143.218 210.191 143.218H210.191C210.191 143.218 210.191 143.218 210.191 143.218C210.191 143.218 210.191 143.218 210.191 143.218H210.191C210.191 143.218 210.191 143.218 210.191 143.218C210.191 143.218 210.191 143.218 210.191 143.218H210.191C210.191 143.218 210.191 143.218 210.191 143.218C210.191 143.218 210.191 143.218 210.191 143.218C210.191 143.218 210.191 143.218 210.191 143.218C210.191 143.218 210.191 143.218 210.191 143.218H210.191C210.191 143.218 210.191 143.218 210.191 143.218C210.191 143.218 210.191 143.218 210.191 143.218C210.191 143.218 210.191 143.218 210.191 143.218C210.191 143.218 210.191 143.218 210.191 143.218H210.191C210.191 143.218 210.191 143.218 210.191 143.218H210.191C210.191 143.218 210.191 143.218 210.191 143.218C210.191 143.218 210.191 143.218 210.191 143.218H210.191C210.191 143.218 210.191 143.218 210.191 143.218H210.191C210.191 143.218 210.191 143.218 210.191 143.218C210.191 143.218 210.191 143.218 210.191 143.218H210.191C210.191 143.218 210.191 143.218 210.191 143.218H210.191C210.191 143.218 210.191 143.218 210.191 143.218C210.191 143.218 210.191 143.218 210.191 143.218C210.191 143.218 210.191 143.218 210.191 143.218C210.191 143.218 210.191 143.218 210.191 143.218H210.191C210.191 143.218 210.191 143.218 210.191 143.218C210.191 143.218 210.191 143.218 210.191 143.218C210.191 143.218 210.191 143.218 210.191 143.218C210.191 143.218 210.191 143.218 210.191 143.218H210.191C210.191 143.218 210.191 143.218 210.191 143.218C210.191 143.218 210.191 143.218 210.191 143.218H210.191C210.191 143.218 210.191 143.218 210.191 143.218C210.191 143.218 210.191 143.218 210.191 143.218H210.191C210.191 143.218 210.191 143.218 210.191 143.218C210.191 143.218 210.191 143.218 210.191 143.218H210.191C210.191 143.218 210.191 143.218 210.191 143.218C210.191 143.218 210.191 143.218 210.191 143.218H210.191C210.191 143.218 210.191 143.218 210.191 143.218C210.191 143.218 210.191 143.218 210.191 143.218H210.191H210.191C210.191 143.218 210.191 143.218 210.191 143.218V142.218C210.191 142.218 210.191 142.218 210.191 142.218H210.191H210.191C210.191 142.218 210.191 142.218 210.191 142.218C210.191 142.218 210.191 142.218 210.191 142.218H210.191C210.191 142.218 210.191 142.218 210.191 142.218C210.191 142.218 210.191 142.218 210.191 142.218H210.191C210.191 142.218 210.191 142.218 210.191 142.218C210.191 142.218 210.191 142.218 210.191 142.218H210.191C210.191 142.218 210.191 142.218 210.191 142.218C210.191 142.218 210.191 142.218 210.191 142.218H210.191C210.191 142.218 210.191 142.218 210.191 142.218C210.191 142.218 210.191 142.218 210.191 142.218H210.191C210.191 142.218 210.191 142.218 210.191 142.218C210.191 142.218 210.191 142.218 210.191 142.218C210.191 142.218 210.191 142.218 210.191 142.218C210.191 142.218 210.191 142.218 210.191 142.218H210.191C210.191 142.218 210.191 142.218 210.191 142.218C210.191 142.218 210.191 142.218 210.191 142.218C210.191 142.218 210.191 142.218 210.191 142.218C210.191 142.218 210.191 142.218 210.191 142.218H210.191C210.191 142.218 210.191 142.218 210.191 142.218H210.191C210.191 142.218 210.191 142.218 210.191 142.218C210.191 142.218 210.191 142.218 210.191 142.218H210.191C210.191 142.218 210.191 142.218 210.191 142.218H210.191C210.191 142.218 210.191 142.218 210.191 142.218C210.191 142.218 210.191 142.218 210.191 142.218H210.191C210.191 142.218 210.191 142.218 210.191 142.218H210.191C210.191 142.218 210.191 142.218 210.191 142.218C210.191 142.218 210.191 142.218 210.191 142.218C210.191 142.218 210.191 142.218 210.191 142.218C210.191 142.218 210.191 142.218 210.191 142.218H210.191C210.191 142.218 210.191 142.218 210.191 142.218C210.191 142.218 210.191 142.218 210.191 142.218C210.191 142.218 210.191 142.218 210.191 142.218C210.191 142.218 210.191 142.218 210.191 142.218H210.191C210.191 142.218 210.191 142.218 210.191 142.218C210.191 142.218 210.191 142.218 210.191 142.218H210.191C210.191 142.218 210.191 142.218 210.191 142.218C210.191 142.218 210.191 142.218 210.191 142.218H210.191C210.191 142.218 210.191 142.218 210.191 142.218C210.191 142.218 210.191 142.218 210.191 142.218H210.191C210.191 142.218 210.191 142.218 210.191 142.218C210.191 142.218 210.191 142.218 210.191 142.218H210.191C210.191 142.218 210.191 142.218 210.191 142.218C210.191 142.218 210.191 142.218 210.191 142.218H210.191H210.191C210.191 142.218 210.191 142.218 210.191 142.218V143.218ZM210.191 143.218C215.715 143.218 220.193 147.696 220.193 153.22H221.193C221.193 147.144 216.267 142.218 210.191 142.218L210.191 143.218ZM220.193 153.22C220.193 158.744 215.715 163.222 210.191 163.222V164.222C216.267 164.222 221.193 159.296 221.193 153.22H220.193ZM210.191 163.222C204.667 163.222 200.189 158.744 200.189 153.22H199.189C199.189 159.296 204.115 164.222 210.191 164.222V163.222ZM200.189 153.22C200.189 152.682 200.231 152.155 200.313 151.64L199.325 151.484C199.235 152.05 199.189 152.63 199.189 153.22H200.189ZM194.032 152.062H199.819V151.062H194.032V152.062ZM194.662 153.22C194.662 152.63 194.615 152.05 194.525 151.484L193.538 151.64C193.619 152.155 193.662 152.682 193.662 153.22H194.662Z" fill="black"/>
<circle cx="210.191" cy="153.222" r="6.08017" fill="#D9CEC6" stroke="black"/>
<circle cx="183.66" cy="153.222" r="6.08017" fill="#D9CEC6" stroke="black"/>
<path fill-rule="evenodd" clip-rule="evenodd" d="M411.928 153.22C411.928 159.02 407.226 163.722 401.425 163.722C395.625 163.722 390.923 159.02 390.923 153.22C390.923 147.42 395.625 142.718 401.425 142.718H401.425H427.957C427.957 142.718 427.957 142.718 427.957 142.718C433.757 142.718 438.459 147.42 438.459 153.22C438.459 159.02 433.757 163.722 427.957 163.722C422.157 163.722 417.455 159.02 417.455 153.22C417.455 152.656 417.499 152.102 417.585 151.562H411.797C411.883 152.102 411.928 152.656 411.928 153.22Z" fill="#FFEEE0"/>
<path d="M401.425 142.718V142.218H401.425L401.425 142.718ZM427.957 142.718L427.957 142.218H427.957V142.718ZM417.585 151.562L418.079 151.64L418.17 151.062H417.585V151.562ZM411.797 151.562V151.062H411.212L411.304 151.64L411.797 151.562ZM401.425 164.222C407.502 164.222 412.428 159.296 412.428 153.22H411.428C411.428 158.744 406.949 163.222 401.425 163.222V164.222ZM390.423 153.22C390.423 159.296 395.349 164.222 401.425 164.222V163.222C395.901 163.222 391.423 158.744 391.423 153.22H390.423ZM401.425 142.218C395.349 142.218 390.423 147.144 390.423 153.22H391.423C391.423 147.696 395.901 143.218 401.425 143.218L401.425 142.218ZM401.425 142.218H401.425V143.218H401.425V142.218ZM427.957 142.218H401.425V143.218H427.957V142.218ZM427.957 143.218C427.957 143.218 427.957 143.218 427.957 143.218H427.957H427.957C427.957 143.218 427.957 143.218 427.957 143.218C427.957 143.218 427.957 143.218 427.957 143.218H427.957C427.957 143.218 427.957 143.218 427.957 143.218C427.957 143.218 427.957 143.218 427.957 143.218H427.957C427.957 143.218 427.957 143.218 427.957 143.218C427.957 143.218 427.957 143.218 427.957 143.218H427.957C427.957 143.218 427.957 143.218 427.957 143.218C427.957 143.218 427.957 143.218 427.957 143.218H427.957C427.957 143.218 427.957 143.218 427.957 143.218C427.957 143.218 427.957 143.218 427.957 143.218H427.957C427.957 143.218 427.957 143.218 427.957 143.218C427.957 143.218 427.957 143.218 427.957 143.218C427.957 143.218 427.957 143.218 427.957 143.218C427.957 143.218 427.957 143.218 427.957 143.218H427.957C427.957 143.218 427.957 143.218 427.957 143.218C427.957 143.218 427.957 143.218 427.957 143.218C427.957 143.218 427.957 143.218 427.957 143.218C427.957 143.218 427.957 143.218 427.957 143.218H427.957C427.957 143.218 427.957 143.218 427.957 143.218H427.957C427.957 143.218 427.957 143.218 427.957 143.218C427.957 143.218 427.957 143.218 427.957 143.218H427.957C427.957 143.218 427.957 143.218 427.957 143.218H427.957C427.957 143.218 427.957 143.218 427.957 143.218C427.957 143.218 427.957 143.218 427.957 143.218H427.957C427.957 143.218 427.957 143.218 427.957 143.218H427.957C427.957 143.218 427.957 143.218 427.957 143.218C427.957 143.218 427.957 143.218 427.957 143.218C427.957 143.218 427.957 143.218 427.957 143.218C427.957 143.218 427.957 143.218 427.957 143.218H427.957C427.957 143.218 427.957 143.218 427.957 143.218C427.957 143.218 427.957 143.218 427.957 143.218C427.957 143.218 427.957 143.218 427.957 143.218C427.957 143.218 427.957 143.218 427.957 143.218H427.957C427.957 143.218 427.957 143.218 427.957 143.218C427.957 143.218 427.957 143.218 427.957 143.218H427.957C427.957 143.218 427.957 143.218 427.957 143.218C427.957 143.218 427.957 143.218 427.957 143.218H427.957C427.957 143.218 427.957 143.218 427.957 143.218C427.957 143.218 427.957 143.218 427.957 143.218H427.957C427.957 143.218 427.957 143.218 427.957 143.218C427.957 143.218 427.957 143.218 427.957 143.218H427.957C427.957 143.218 427.957 143.218 427.957 143.218C427.957 143.218 427.957 143.218 427.957 143.218H427.957H427.957C427.957 143.218 427.957 143.218 427.957 143.218V142.218C427.957 142.218 427.957 142.218 427.957 142.218H427.957H427.957C427.957 142.218 427.957 142.218 427.957 142.218C427.957 142.218 427.957 142.218 427.957 142.218H427.957C427.957 142.218 427.957 142.218 427.957 142.218C427.957 142.218 427.957 142.218 427.957 142.218H427.957C427.957 142.218 427.957 142.218 427.957 142.218C427.957 142.218 427.957 142.218 427.957 142.218H427.957C427.957 142.218 427.957 142.218 427.957 142.218C427.957 142.218 427.957 142.218 427.957 142.218H427.957C427.957 142.218 427.957 142.218 427.957 142.218C427.957 142.218 427.957 142.218 427.957 142.218H427.957C427.957 142.218 427.957 142.218 427.957 142.218C427.957 142.218 427.957 142.218 427.957 142.218C427.957 142.218 427.957 142.218 427.957 142.218C427.957 142.218 427.957 142.218 427.957 142.218H427.957C427.957 142.218 427.957 142.218 427.957 142.218C427.957 142.218 427.957 142.218 427.957 142.218C427.957 142.218 427.957 142.218 427.957 142.218C427.957 142.218 427.957 142.218 427.957 142.218H427.957C427.957 142.218 427.957 142.218 427.957 142.218H427.957C427.957 142.218 427.957 142.218 427.957 142.218C427.957 142.218 427.957 142.218 427.957 142.218H427.957C427.957 142.218 427.957 142.218 427.957 142.218H427.957C427.957 142.218 427.957 142.218 427.957 142.218C427.957 142.218 427.957 142.218 427.957 142.218H427.957C427.957 142.218 427.957 142.218 427.957 142.218H427.957C427.957 142.218 427.957 142.218 427.957 142.218C427.957 142.218 427.957 142.218 427.957 142.218C427.957 142.218 427.957 142.218 427.957 142.218C427.957 142.218 427.957 142.218 427.957 142.218H427.957C427.957 142.218 427.957 142.218 427.957 142.218C427.957 142.218 427.957 142.218 427.957 142.218C427.957 142.218 427.957 142.218 427.957 142.218C427.957 142.218 427.957 142.218 427.957 142.218H427.957C427.957 142.218 427.957 142.218 427.957 142.218C427.957 142.218 427.957 142.218 427.957 142.218H427.957C427.957 142.218 427.957 142.218 427.957 142.218C427.957 142.218 427.957 142.218 427.957 142.218H427.957C427.957 142.218 427.957 142.218 427.957 142.218C427.957 142.218 427.957 142.218 427.957 142.218H427.957C427.957 142.218 427.957 142.218 427.957 142.218C427.957 142.218 427.957 142.218 427.957 142.218H427.957C427.957 142.218 427.957 142.218 427.957 142.218C427.957 142.218 427.957 142.218 427.957 142.218H427.957H427.957C427.957 142.218 427.957 142.218 427.957 142.218V143.218ZM427.957 143.218C433.481 143.218 437.959 147.696 437.959 153.22H438.959C438.959 147.144 434.033 142.218 427.957 142.218L427.957 143.218ZM437.959 153.22C437.959 158.744 433.481 163.222 427.957 163.222V164.222C434.033 164.222 438.959 159.296 438.959 153.22H437.959ZM427.957 163.222C422.433 163.222 417.955 158.744 417.955 153.22H416.955C416.955 159.296 421.881 164.222 427.957 164.222V163.222ZM417.955 153.22C417.955 152.682 417.997 152.155 418.079 151.64L417.091 151.484C417.001 152.05 416.955 152.63 416.955 153.22H417.955ZM411.797 152.062H417.585V151.062H411.797V152.062ZM412.428 153.22C412.428 152.63 412.381 152.05 412.291 151.484L411.304 151.64C411.385 152.155 411.428 152.682 411.428 153.22H412.428Z" fill="black"/>
<circle cx="401.426" cy="153.222" r="6.08017" fill="#D9CEC6" stroke="black"/>
<path d="M292.907 71.4008C294.197 73.0825 294.467 74.9104 293.718 76.8849C292.969 78.8593 291.483 80.1544 289.259 80.7702C288.196 81.0646 287.111 81.0761 286.005 80.8048C284.899 80.5335 283.992 80.02 283.285 79.2644C280.72 80.3824 278.311 80.3278 276.056 79.1003C273.802 77.8726 272.447 75.8777 271.992 73.1155C270.87 72.8486 269.916 72.3227 269.13 71.5377C268.345 70.7529 267.779 69.7629 267.431 68.5678C266.873 66.6495 267.317 64.8531 268.763 63.1785C270.208 61.5039 271.886 60.7762 273.795 60.9949L277.148 61.3916C277.509 60.2381 278.132 59.2076 279.017 58.3C279.902 57.3922 280.948 56.7373 282.154 56.3353L281.441 53.8824C281.322 53.4736 281.361 53.0976 281.557 52.7544C281.753 52.4113 282.06 52.1817 282.479 52.0657C282.898 51.9497 283.284 51.9874 283.635 52.1788C283.987 52.3703 284.222 52.6704 284.341 53.0792L285.164 55.9095C286.457 55.9252 287.597 56.1955 288.586 56.7204C289.574 57.2452 290.534 58.0922 291.466 59.2613L294.269 58.4848C294.688 58.3689 295.074 58.4066 295.425 58.5981C295.777 58.7894 296.012 59.0896 296.131 59.4984C296.25 59.9073 296.211 60.2832 296.015 60.6264C295.819 60.9695 295.511 61.1992 295.092 61.3151L292.579 62.0112C292.862 63.2241 292.856 64.432 292.562 65.6349C292.267 66.8377 291.712 67.892 290.896 68.7975L292.907 71.4008ZM281.249 75.8527C281.002 75.0037 280.834 74.158 280.746 73.316C280.658 72.4739 280.649 71.6353 280.72 70.8003C280.079 71.3515 279.352 71.8161 278.54 72.1941C277.727 72.572 276.892 72.8456 276.036 73.0149C276.393 74.2413 277.037 75.1079 277.967 75.6146C278.898 76.1215 279.992 76.2008 281.249 75.8527ZM275.422 69.1072C276.453 68.8217 277.327 68.4438 278.044 67.9736C278.76 67.5034 279.637 66.7169 280.674 65.614L274.188 64.8618C273.144 64.7431 272.348 64.9719 271.802 65.548C271.256 66.124 271.106 66.8366 271.353 67.6856C271.591 68.5033 272.038 69.025 272.696 69.2506C273.353 69.4763 274.262 69.4285 275.422 69.1072ZM288.162 76.9964C288.968 76.7734 289.54 76.3174 289.88 75.6288C290.219 74.9401 290.173 74.3327 289.741 73.8066L285.266 68.1141C284.946 69.29 284.763 70.428 284.718 71.528C284.672 72.628 284.768 73.5868 285.006 74.4045C285.308 75.4423 285.724 76.185 286.254 76.6327C286.785 77.0804 287.421 77.2016 288.162 76.9964ZM288.307 65.6409C288.538 65.2371 288.674 64.749 288.717 64.1766C288.759 63.6042 288.698 63.035 288.534 62.4689C288.241 61.4626 287.656 60.7071 286.778 60.2027C285.9 59.6982 284.962 59.5844 283.963 59.861C283.383 60.0216 282.862 60.2678 282.402 60.5992C281.941 60.9307 281.584 61.3185 281.33 61.7625L285.594 62.4167L288.307 65.6409Z" fill="#451D07" fill-opacity="0.5"/>
<path d="M262.358 60.1482C262.211 60.1986 262.015 60.1482 262.015 59.9467C261.869 59.3924 261.575 58.1329 262.113 57.0749C262.651 56.0168 263.825 55.4626 264.363 55.2611C264.51 55.2107 264.706 55.2611 264.706 55.4626C264.901 56.0168 265.146 57.2764 264.608 58.3344C264.07 59.3924 262.896 59.9467 262.358 60.1482ZM261.966 63.0704C262.7 62.4658 263.679 62.2642 264.217 62.2139C264.412 62.2139 264.559 62.365 264.51 62.5665C264.363 63.1207 264.07 64.0276 263.336 64.6322C262.602 65.2368 261.624 65.4383 261.086 65.4887C260.939 65.4887 260.841 65.388 260.793 65.2872C260.695 65.388 260.548 65.4383 260.401 65.3376C259.912 65.0353 258.983 64.2795 258.591 63.1711C258.2 62.0627 258.494 60.9039 258.689 60.4001C258.738 60.2489 258.934 60.1482 259.129 60.2489C259.619 60.5512 260.548 61.307 260.939 62.4154C261.184 63.1207 261.184 63.8261 261.086 64.3803C261.233 63.9269 261.526 63.4734 261.966 63.0704ZM259.667 67.9071C260.059 68.5117 260.206 69.2674 260.206 69.872C260.303 69.4185 260.45 68.8643 260.841 68.3605C261.428 67.6048 262.309 67.2017 262.847 67.0506C263.043 67.0002 263.189 67.1513 263.189 67.3025C263.189 67.8063 263.092 68.814 262.505 69.5697C261.918 70.3758 261.037 70.7285 260.499 70.8796C260.352 70.93 260.206 70.8292 260.157 70.7285C260.108 70.8796 259.961 70.93 259.814 70.8796C259.276 70.6781 258.2 70.1743 257.564 69.1666C256.928 68.2094 256.977 67.0002 257.026 66.446C257.026 66.2445 257.222 66.1437 257.417 66.1941C257.955 66.446 259.032 66.9498 259.667 67.9071ZM257.662 72.1392C258.2 72.1896 259.374 72.3911 260.254 73.1972C260.793 73.6507 261.086 74.2552 261.282 74.7591C261.282 74.3056 261.282 73.8522 261.477 73.3484C261.82 72.4415 262.553 71.8369 262.994 71.5346C263.14 71.4338 263.385 71.4842 263.434 71.6857C263.581 72.1896 263.727 73.1468 263.385 74.0537C263.043 74.9606 262.309 75.5652 261.869 75.8675C261.771 75.9179 261.624 75.9179 261.526 75.8675C261.477 75.9682 261.38 76.0186 261.233 75.9682C260.646 75.9179 259.472 75.7163 258.64 74.9102C257.76 74.1041 257.466 72.9957 257.368 72.4415C257.32 72.24 257.466 72.0888 257.662 72.1392ZM260.45 77.5805C261.037 77.4797 262.407 77.4293 263.483 78.1347C263.972 78.437 264.363 78.84 264.657 79.2431C264.461 78.7897 264.314 78.2355 264.314 77.6813C264.314 76.4217 264.999 75.3133 265.342 74.8095C265.439 74.6583 265.684 74.6583 265.782 74.8095C266.124 75.3133 266.809 76.3713 266.809 77.6813C266.809 78.9408 266.124 80.0492 265.782 80.553C265.684 80.7042 265.439 80.7042 265.342 80.553L265.293 80.5027C265.293 80.553 265.342 80.6034 265.342 80.6034C265.391 80.7546 265.293 80.9561 265.097 80.9561C264.51 81.0065 263.14 81.1073 262.064 80.4019C260.988 79.7469 260.401 78.5378 260.206 77.9332C260.157 77.782 260.254 77.5805 260.45 77.5805Z" fill="#451D07" fill-opacity="0.5"/>
<path d="M301.915 60.1482C302.061 60.1986 302.257 60.1482 302.257 59.9467C302.404 59.3924 302.697 58.1329 302.159 57.0749C301.621 56.0168 300.447 55.4626 299.909 55.2611C299.762 55.2107 299.567 55.2611 299.567 55.4626C299.371 56.0168 299.126 57.2764 299.665 58.3344C300.203 59.3924 301.377 59.9467 301.915 60.1482ZM302.306 63.0704C301.572 62.4658 300.594 62.2642 300.056 62.2139C299.86 62.2139 299.713 62.365 299.762 62.5665C299.909 63.1207 300.203 64.0276 300.936 64.6322C301.67 65.2368 302.648 65.4383 303.186 65.4887C303.333 65.4887 303.431 65.388 303.48 65.2872C303.578 65.388 303.725 65.4383 303.871 65.3376C304.36 65.0353 305.29 64.2795 305.681 63.1711C306.072 62.0627 305.779 60.9039 305.583 60.4001C305.534 60.2489 305.339 60.1482 305.143 60.2489C304.654 60.5512 303.725 61.307 303.333 62.4154C303.089 63.1207 303.089 63.8261 303.186 64.3803C303.04 63.9269 302.746 63.4734 302.306 63.0704ZM304.605 67.9071C304.214 68.5117 304.067 69.2674 304.067 69.872C303.969 69.4185 303.822 68.8643 303.431 68.3605C302.844 67.6048 301.964 67.2017 301.426 67.0506C301.23 67.0002 301.083 67.1513 301.083 67.3025C301.083 67.8063 301.181 68.814 301.768 69.5697C302.355 70.3758 303.235 70.7285 303.773 70.8796C303.92 70.93 304.067 70.8292 304.116 70.7285C304.165 70.8796 304.311 70.93 304.458 70.8796C304.996 70.6781 306.072 70.1743 306.708 69.1666C307.344 68.2094 307.295 67.0002 307.246 66.446C307.246 66.2445 307.051 66.1437 306.855 66.1941C306.317 66.446 305.241 66.9498 304.605 67.9071ZM306.611 72.1392C306.072 72.1896 304.898 72.3911 304.018 73.1972C303.48 73.6507 303.186 74.2552 302.991 74.7591C302.991 74.3056 302.991 73.8522 302.795 73.3484C302.453 72.4415 301.719 71.8369 301.279 71.5346C301.132 71.4338 300.887 71.4842 300.839 71.6857C300.692 72.1896 300.545 73.1468 300.887 74.0537C301.23 74.9606 301.964 75.5652 302.404 75.8675C302.502 75.9179 302.648 75.9179 302.746 75.8675C302.795 75.9682 302.893 76.0186 303.04 75.9682C303.627 75.9179 304.801 75.7163 305.632 74.9102C306.513 74.1041 306.806 72.9957 306.904 72.4415C306.953 72.24 306.806 72.0888 306.611 72.1392ZM303.822 77.5805C303.235 77.4797 301.866 77.4293 300.79 78.1347C300.3 78.437 299.909 78.84 299.616 79.2431C299.811 78.7897 299.958 78.2355 299.958 77.6813C299.958 76.4217 299.273 75.3133 298.931 74.8095C298.833 74.6583 298.588 74.6583 298.491 74.8095C298.148 75.3133 297.463 76.3713 297.463 77.6813C297.463 78.9408 298.148 80.0492 298.491 80.553C298.588 80.7042 298.833 80.7042 298.931 80.553L298.98 80.5027C298.98 80.553 298.931 80.6034 298.931 80.6034C298.882 80.7546 298.98 80.9561 299.175 80.9561C299.762 81.0065 301.132 81.1073 302.208 80.4019C303.284 79.7469 303.871 78.5378 304.067 77.9332C304.116 77.782 304.018 77.5805 303.822 77.5805Z" fill="#451D07" fill-opacity="0.5"/>
<defs>
<filter id="filter0_i_31324_1614" x="134.134" y="12.2178" width="297.74" height="91.6624" filterUnits="userSpaceOnUse" color-interpolation-filters="sRGB">
<feFlood flood-opacity="0" result="BackgroundImageFix"/>
<feBlend mode="normal" in="SourceGraphic" in2="BackgroundImageFix" result="shape"/>
<feColorMatrix in="SourceAlpha" type="matrix" values="0 0 0 0 0 0 0 0 0 0 0 0 0 0 0 0 0 0 127 0" result="hardAlpha"/>
<feOffset dy="4"/>
<feComposite in2="hardAlpha" operator="arithmetic" k2="-1" k3="1"/>
<feColorMatrix type="matrix" values="0 0 0 0 0 0 0 0 0 0 0 0 0 0 0 0 0 0 0.25 0"/>
<feBlend mode="normal" in2="shape" result="effect1_innerShadow_31324_1614"/>
</filter>
<filter id="filter1_i_31324_1614" x="171.372" y="27.1548" width="223.261" height="67.8923" filterUnits="userSpaceOnUse" color-interpolation-filters="sRGB">
<feFlood flood-opacity="0" result="BackgroundImageFix"/>
<feBlend mode="normal" in="SourceGraphic" in2="BackgroundImageFix" result="shape"/>
<feColorMatrix in="SourceAlpha" type="matrix" values="0 0 0 0 0 0 0 0 0 0 0 0 0 0 0 0 0 0 127 0" result="hardAlpha"/>
<feOffset dy="4"/>
<feComposite in2="hardAlpha" operator="arithmetic" k2="-1" k3="1"/>
<feColorMatrix type="matrix" values="0 0 0 0 0 0 0 0 0 0 0 0 0 0 0 0 0 0 0.25 0"/>
<feBlend mode="normal" in2="shape" result="effect1_innerShadow_31324_1614"/>
</filter>
</defs>
</svg>
