<svg width="143" height="384" viewBox="0 0 143 384" fill="none" xmlns="http://www.w3.org/2000/svg">
<path d="M0 383.164H107V348.164H0V383.164Z" fill="#D9CEC6" stroke="black"/>
<rect width="107" height="15" transform="matrix(1 0 0 -1 0 363.164)" fill="#FFE5C1" stroke="black"/>
<rect x="26" y="8" width="7" height="340" fill="#C1C1C1" stroke="black"/>
<circle cx="29" cy="7" r="6" fill="#C1C1C1" stroke="black"/>
<path d="M64.1875 16.6615C60.2241 11.0183 37.2297 13.7984 26 13.0147V60.237C31.6809 58.8001 47.0919 54.3362 58.5 63.2799C64.1875 67.7388 85.8476 62.181 91 61.6585V18.2855C83.8659 18.8733 68.1509 22.3046 64.1875 16.6615Z" fill="#FCBE24" stroke="black"/>
<path d="M68.1625 43.0559C69.2744 44.4476 69.5075 45.9604 68.8618 47.5944C68.2161 49.2283 66.9348 50.3002 65.0182 50.8098C64.1014 51.0535 63.1664 51.063 62.2128 50.8385C61.2593 50.6139 60.4778 50.189 59.8681 49.5636C57.6571 50.4889 55.5797 50.4437 53.6361 49.4278C51.6926 48.4118 50.5246 46.7609 50.1323 44.4749C49.1649 44.254 48.3427 43.8188 47.6657 43.1691C46.9887 42.5196 46.5004 41.7003 46.2008 40.7113C45.72 39.1237 46.1026 37.637 47.3487 36.2512C48.5949 34.8653 50.0408 34.263 51.6865 34.4441L54.5775 34.7723C54.8887 33.8178 55.4257 32.9649 56.1887 32.2138C56.9518 31.4625 57.8531 30.9205 58.893 30.5878L58.2781 28.5578C58.1757 28.2195 58.209 27.9083 58.378 27.6243C58.5472 27.3404 58.8123 27.1504 59.1735 27.0543C59.5346 26.9583 59.8667 26.9895 60.1698 27.148C60.473 27.3064 60.6758 27.5548 60.7783 27.8931L61.4877 30.2355C62.6023 30.2485 63.5855 30.4722 64.4375 30.9065C65.2894 31.3409 66.1171 32.0418 66.9204 33.0094L69.3372 32.3668C69.6983 32.2708 70.0305 32.302 70.3335 32.4605C70.6367 32.6188 70.8395 32.8673 70.942 33.2056C71.0445 33.544 71.0112 33.8551 70.842 34.1391C70.673 34.423 70.4078 34.6131 70.0467 34.7091L67.8799 35.2852C68.1239 36.2889 68.119 37.2886 67.8652 38.284C67.6114 39.2795 67.1328 40.152 66.4293 40.9014L68.1625 43.0559ZM58.1124 46.7402C57.8995 46.0376 57.7551 45.3377 57.6791 44.6408C57.6032 43.9439 57.5956 43.2499 57.6564 42.5588C57.1041 43.015 56.4777 43.3995 55.777 43.7124C55.0763 44.0251 54.3569 44.2515 53.619 44.3916C53.9264 45.4066 54.4813 46.1238 55.2837 46.5431C56.0861 46.9626 57.0291 47.0282 58.1124 46.7402ZM53.0897 41.1577C53.9786 40.9214 54.7319 40.6087 55.3494 40.2195C55.9669 39.8304 56.7228 39.1795 57.6169 38.2667L52.0254 37.6443C51.1253 37.5461 50.4397 37.7354 49.9688 38.2121C49.4978 38.6888 49.3688 39.2786 49.5816 39.9812C49.7866 40.6579 50.1725 41.0897 50.7393 41.2764C51.3062 41.4632 52.0896 41.4236 53.0897 41.1577ZM64.0721 47.6866C64.7666 47.5021 65.2602 47.1247 65.5528 46.5549C65.8454 45.9849 65.8057 45.4823 65.4337 45.0469L61.5755 40.3358C61.3 41.3089 61.1424 42.2507 61.103 43.1611C61.0635 44.0715 61.1463 44.865 61.3513 45.5417C61.6114 46.4005 61.9702 47.0152 62.4276 47.3857C62.8851 47.7562 63.4333 47.8565 64.0721 47.6866ZM64.1973 38.289C64.3962 37.9549 64.514 37.5509 64.5506 37.0772C64.5871 36.6035 64.5346 36.1324 64.3927 35.6639C64.1405 34.8311 63.6359 34.2059 62.8791 33.7884C62.1223 33.371 61.3133 33.2767 60.4522 33.5057C59.9522 33.6386 59.5035 33.8423 59.1063 34.1166C58.7092 34.391 58.4012 34.7118 58.1824 35.0793L61.8582 35.6207L64.1973 38.289Z" fill="#451D07"/>
<rect x="78" y="44" width="7" height="304" fill="#C1C1C1" stroke="black"/>
<circle cx="81" cy="43" r="6" fill="#C1C1C1" stroke="black"/>
<path d="M115.6 52.591C111.698 47.0564 89.0569 49.7831 78 49.0144V95.3286C83.5935 93.9193 98.7674 89.5412 110 98.313C115.6 102.686 136.927 97.2352 142 96.7227V54.1838C134.976 54.7603 119.502 58.1257 115.6 52.591Z" fill="#262626" stroke="black"/>
<path d="M110.448 85.358C110.141 85.0544 109.873 84.719 109.648 84.3585C109.076 83.5206 108.118 81.5534 108.115 79.3903C106.093 80.49 103.76 80.7041 102.687 80.6608C102.282 80.6602 101.878 80.6205 101.482 80.5424C101.932 82.5825 103.059 84.0716 104.864 85.0096C106.615 85.9204 108.477 86.0365 110.448 85.358ZM117.707 76.3985C118.285 75.7151 118.694 74.9214 118.906 74.0738C119.157 73.097 119.162 72.1161 118.92 71.131L121.059 70.5663C121.224 70.5277 121.379 70.4581 121.513 70.3618C121.648 70.2655 121.761 70.1444 121.844 70.0062C121.926 69.8679 121.977 69.7153 121.994 69.5579C122.011 69.4005 121.993 69.2416 121.941 69.0909C121.9 68.9373 121.826 68.7931 121.723 68.6673C121.62 68.5414 121.491 68.4364 121.343 68.3589C121.194 68.282 121.03 68.2343 120.861 68.2186C120.692 68.2029 120.521 68.2197 120.359 68.2678L117.973 68.8985C117.181 67.949 116.364 67.261 115.523 66.8345C114.682 66.4087 113.712 66.1894 112.612 66.1765L111.912 63.8768C111.871 63.7234 111.796 63.5794 111.693 63.4537C111.59 63.328 111.46 63.2233 111.312 63.146C111.164 63.0691 111 63.0214 110.83 63.0057C110.661 62.99 110.49 63.0068 110.328 63.0549C110.164 63.0932 110.009 63.1625 109.874 63.2584C109.739 63.3543 109.627 63.4749 109.544 63.6127C109.461 63.7511 109.41 63.9038 109.393 64.0614C109.376 64.219 109.393 64.3782 109.445 64.5292L110.051 66.5214C109.036 66.8436 108.12 67.3914 107.383 68.1175C106.786 68.6973 106.312 69.3772 105.985 70.1212L113.122 70.9408L117.707 76.3985ZM102.666 70.8407C101.424 70.845 100.235 71.309 99.3594 72.1304C98.4843 72.9518 97.9953 74.0635 98 75.2208C98.0047 76.3781 98.5027 77.4863 99.3845 78.3015C100.266 79.1168 101.459 79.5723 102.702 79.5679H102.729C103.819 79.6157 106.469 79.3357 108.356 77.9138L112.103 71.9245L102.666 70.8407ZM109.358 78.483L113.04 72.5973L118.792 79.47C119.409 80.4748 119.572 81.6667 119.245 82.7834C118.918 83.9001 118.129 84.8502 117.05 85.4246C115.972 85.999 114.692 86.1508 113.493 85.8464C112.295 85.5421 111.275 84.8066 110.658 83.8018L110.645 83.779C110.062 82.9331 109.015 80.6938 109.358 78.483Z" fill="url(#paint0_linear_31324_1686)"/>
<defs>
<linearGradient id="paint0_linear_31324_1686" x1="136.413" y1="74.6635" x2="84.9093" y2="75.4178" gradientUnits="userSpaceOnUse">
<stop stop-color="#F8F29C"/>
<stop offset="0.165" stop-color="#F6DB2A"/>
<stop offset="0.333" stop-color="#F4A435"/>
<stop offset="0.55" stop-color="#E85A46"/>
<stop offset="0.699" stop-color="#B93483"/>
<stop offset="0.867" stop-color="#502B6E"/>
<stop offset="1" stop-color="#2A2136"/>
</linearGradient>
</defs>
</svg>
