<svg xmlns="http://www.w3.org/2000/svg" width="87" height="112" viewBox="0 0 87 112" fill="none">
  <path d="M19.624 20.8165L19.624 20.8165C17.6169 21.1777 14.9334 22.9045 13.535 26.5221C11.7036 28.0803 9.30381 30.5209 7.28382 33.4467C5.13643 36.5571 3.18359 40.5551 3.18359 44.8195C3.18359 50.3596 5.0366 54.2854 7.01952 56.6726C5.73473 58.4915 4.30678 61.1073 4.02443 63.9308C3.68317 67.3434 3.7122 73.8833 3.76649 76.8882C3.7791 77.5855 3.97395 78.2612 4.32436 78.8525L6.90525 77.3231L4.32437 78.8525L10.2161 88.7947C10.5829 89.4138 11.11 89.9225 11.7418 90.2671L13.087 87.8009L11.7418 90.2671L44.8927 108.349C46.1778 109.05 47.7433 108.993 48.974 108.201L71.1124 93.9421L71.1125 93.942C71.3778 93.7711 71.6219 93.5695 71.8397 93.3413L71.8399 93.3411L79.6038 85.2074C80.2427 84.5382 80.6297 83.6683 80.6992 82.7458L81.8414 67.5727C81.8865 66.9744 81.7963 66.3736 81.5777 65.8149L78.7839 66.908L81.5777 65.8148L78.1502 57.0558V55.5642C80.7603 52.6817 84.0852 46.6855 83.0827 38.6659C82.3984 33.1916 79.8613 28.2082 77.0729 24.1863C74.4976 20.4718 71.6014 17.4247 69.4252 15.374C69.2543 13.9761 68.7151 12.3102 67.5047 10.8405C65.986 8.99651 63.6435 7.74701 60.4703 7.54868C59.3872 7.48099 58.4874 7.43396 57.7429 7.40384C57.5698 6.74916 57.2913 6.0669 56.8524 5.4265C55.8158 3.91391 54.13 3 52.0237 3C49.8996 3 48.2345 3.92038 47.1623 5.32891C46.6219 6.03883 46.2763 6.81095 46.0576 7.54284H43.4572C43.1894 7.54284 42.8902 7.56918 42.5707 7.64337C41.2861 7.94166 39.5254 8.6406 38.0112 9.90811C36.6232 11.07 35.3495 12.8053 35.0358 15.142C33.8371 16.0195 32.2543 17.2683 30.7818 18.6609C29.803 17.6266 28.4322 17.0411 26.8323 17.0411C25.0329 17.0411 23.5743 17.8225 22.6248 19.0523C22.2002 19.6022 21.9136 20.1922 21.7205 20.7579H20.2958C20.1304 20.7579 19.8965 20.7675 19.624 20.8165ZM58.0036 9.34183C58.0035 9.33533 58.0034 9.32881 58.0032 9.32228C58.0091 9.38169 58.0045 9.39404 58.0036 9.34183Z" fill="#AA7755" stroke="white" stroke-width="6" stroke-linecap="round" stroke-linejoin="round"/>
  <path d="M12.7969 87.2653L6.90525 77.3231C6.81724 77.1746 6.76912 77.0066 6.76601 76.834C6.7112 73.8012 6.68874 67.4373 7.00954 64.2293C7.27441 61.5806 8.97264 58.9319 10.2741 57.3472C10.6903 56.8406 10.592 56.0433 10.1136 55.5949C8.4033 53.9921 6.18359 50.5064 6.18359 44.8195C6.18359 38.0479 12.4782 31.25 15.8518 28.4961C16.0105 28.3666 16.1251 28.1948 16.1902 28.0006C17.1946 25.0036 19.1917 23.9425 20.1553 23.7691C20.2018 23.7607 20.2485 23.7579 20.2958 23.7579H23.2372C23.8332 23.7579 24.2924 23.2351 24.3596 22.6429C24.4976 21.4261 25.1033 20.0411 26.8323 20.0411C28.6328 20.0411 29.2151 21.3761 29.3197 22.4871C29.3625 22.9415 29.7133 23.3449 30.1697 23.3449C30.4085 23.3449 30.6321 23.2321 30.7807 23.0452C32.6277 20.7236 35.748 18.291 37.4964 17.0698C37.7948 16.8614 37.9562 16.5105 37.9633 16.1466C38.0315 12.656 41.396 10.996 43.2493 10.5656C43.3179 10.5497 43.3867 10.5428 43.4572 10.5428H47.6249C48.2129 10.5428 48.6706 10.035 48.7289 9.44988C48.8828 7.90596 49.6649 6 52.0237 6C54.3547 6 54.9768 7.86137 55.0041 9.39523C55.0149 10.0037 55.1849 10.3657 55.7934 10.361C56.6008 10.3547 57.992 10.3996 60.2832 10.5428C65.155 10.8473 66.4254 14.2154 66.4868 16.2501C66.4962 16.5584 66.6111 16.8566 66.8384 17.0651C71.0698 20.9465 78.9021 29.4074 80.1059 39.038C81.0458 46.5571 77.6036 51.9469 75.4842 54.0103C75.2764 54.2127 75.1502 54.4847 75.1502 54.7747V57.4332C75.1502 57.5579 75.1735 57.6815 75.219 57.7976L78.7839 66.908C78.8386 67.0477 78.8611 67.1979 78.8499 67.3475L77.7076 82.5206C77.6903 82.7512 77.5935 82.9687 77.4338 83.136L69.6698 91.2697C69.6153 91.3267 69.5543 91.3772 69.4879 91.4199L47.3496 105.679C47.0419 105.877 46.6505 105.891 46.3292 105.716L13.1784 87.6334C13.0204 87.5473 12.8886 87.4201 12.7969 87.2653Z" fill="#AA7755" stroke="black" stroke-width="3" stroke-linecap="round" stroke-linejoin="round"/>
  <ellipse cx="42.8529" cy="73.9624" rx="35.8403" ry="23.2814" transform="rotate(2.58157 42.8529 73.9624)" fill="#664422" stroke="black"/>
  <path d="M78.1573 69.3374C77.8779 75.5347 73.7544 81.0378 67.1754 84.9017C60.6013 88.7626 51.6315 90.9459 41.8268 90.5039C32.0221 90.0618 23.2852 87.0801 17.0852 82.6432C10.8806 78.203 7.2691 72.3512 7.54852 66.1538C7.82794 59.9565 11.9514 54.4534 18.5304 50.5895C25.1045 46.7286 34.0744 44.5453 43.879 44.9873C53.6837 45.4294 62.4207 48.4111 68.6206 52.848C74.8252 57.2882 78.4368 63.14 78.1573 69.3374Z" fill="#ADDA54" stroke="black"/>
  <ellipse cx="70.194" cy="66.2939" rx="4.95569" ry="2.06487" fill="#7EA82B"/>
  <ellipse cx="14.0299" cy="65.8809" rx="4.95569" ry="1.6519" fill="#7EA82B"/>
  <ellipse cx="28.0711" cy="81.1611" rx="11.5633" ry="2.06487" fill="#7EA82B"/>
  <ellipse cx="52.0251" cy="74.14" rx="8.25948" ry="2.47784" fill="#7EA82B"/>
  <ellipse cx="41.2858" cy="65.8807" rx="26.4303" ry="4.12974" fill="#7EA82B"/>
  <path d="M18.2922 27.0962C11.3532 31.0473 6.52734 39.3992 6.52734 46.4531C6.52734 52.2146 9.74683 55.8032 14.7076 57.7546H38.4211C43.3818 55.8032 46.6013 52.2146 46.6013 46.4531C46.6013 39.3992 41.7754 31.0473 34.8365 27.0962H18.2922Z" fill="#DCA450" stroke="black" stroke-linecap="round"/>
  <path d="M8.35321 38.3101C7.18105 40.9613 6.52734 43.7203 6.52734 46.3044C6.52734 48.3903 6.95331 50.1901 7.73411 51.7293H45.3946C46.1754 50.1901 46.6013 48.3903 46.6013 46.3044C46.6013 43.7203 45.9476 40.9613 44.7755 38.3101H8.35321Z" fill="#EBD783" stroke="black" stroke-linecap="round"/>
  <path d="M26.5655 20.8467C25.2457 20.8467 24.1758 21.8584 24.1758 23.1063C24.1758 23.9506 24.6655 24.6868 25.3909 25.0747H27.7401C28.4656 24.6868 28.9552 23.9506 28.9552 23.1063C28.9552 21.8584 27.8853 20.8467 26.5655 20.8467Z" fill="#A77148" stroke="black" stroke-linecap="round"/>
  <path d="M16.2695 28.3835C16.2695 25.9469 18.2448 23.9717 20.6813 23.9717H32.63C35.0665 23.9717 37.0418 25.9469 37.0418 28.3835H16.2695Z" fill="#A77148" stroke="black" stroke-linecap="round"/>
  <rect x="16.7109" y="54.7871" width="12.0935" height="3.1825" rx="1.59125" transform="rotate(90 16.7109 54.7871)" fill="#76500D" stroke="black" stroke-linecap="round"/>
  <rect x="43.7617" y="54.7871" width="12.0935" height="3.1825" rx="1.59125" transform="rotate(90 43.7617 54.7871)" fill="#76500D" stroke="black" stroke-linecap="round"/>
  <rect x="74.3125" y="54.7871" width="12.0935" height="3.1825" rx="1.59125" transform="rotate(90 74.3125 54.7871)" fill="#76500D" stroke="black" stroke-linecap="round"/>
  <path d="M40.4228 15.1206C30.755 20.6256 24.0312 32.262 24.0312 42.09C24.0312 50.1173 28.5169 55.1171 35.4285 57.836H68.4678C75.3794 55.1171 79.865 50.1173 79.865 42.09C79.865 32.262 73.1413 20.6256 63.4735 15.1206H40.4228Z" fill="#DCA450" stroke="black" stroke-linecap="round"/>
  <path d="M26.5752 30.7441C24.942 34.438 24.0312 38.2821 24.0312 41.8824C24.0312 44.7886 24.6247 47.2962 25.7126 49.4408H78.1837C79.2716 47.2962 79.865 44.7886 79.865 41.8824C79.865 38.2821 78.9543 34.438 77.3211 30.7441H26.5752Z" fill="#EBD783" stroke="black" stroke-linecap="round"/>
  <path d="M51.9485 26.646C42.7542 26.646 35.3008 34.0615 35.3008 43.2089C35.3008 49.3973 38.712 54.793 43.7657 57.6363H60.1312C65.1849 54.793 68.5962 49.3973 68.5962 43.2089C68.5962 34.0615 61.1427 26.646 51.9485 26.646Z" fill="#A77148"/>
  <path d="M51.9485 26.646C42.7542 26.646 35.3008 34.0615 35.3008 43.2089C35.3008 49.3973 38.712 54.793 43.7657 57.6363H60.1312C65.1849 54.793 68.5962 49.3973 68.5962 43.2089C68.5962 34.0615 61.1427 26.646 51.9485 26.646Z" fill="#A77148"/>
  <path d="M51.9485 26.646C42.7542 26.646 35.3008 34.0615 35.3008 43.2089C35.3008 49.3973 38.712 54.793 43.7657 57.6363H60.1312C65.1849 54.793 68.5962 49.3973 68.5962 43.2089C68.5962 34.0615 61.1427 26.646 51.9485 26.646Z" stroke="black" stroke-linecap="round"/>
  <path d="M51.9476 29.4634C44.3093 29.4634 38.1172 35.5306 38.1172 43.0149C38.1172 48.0781 40.9511 52.4928 45.1496 54.8191H58.7456C62.944 52.4928 65.778 48.0781 65.778 43.0149C65.778 35.5306 59.5859 29.4634 51.9476 29.4634Z" fill="#C09344" stroke="black" stroke-linecap="round"/>
  <path d="M51.9467 6.41309C50.1079 6.41309 48.6172 7.82264 48.6172 9.56141C48.6172 10.7377 49.2994 11.7633 50.3102 12.3038H53.5833C54.594 11.7633 55.2763 10.7377 55.2763 9.56141C55.2763 7.82264 53.7856 6.41309 51.9467 6.41309Z" fill="#A77148" stroke="black" stroke-linecap="round"/>
  <path d="M37.6055 16.9144C37.6055 13.5196 40.3575 10.7676 43.7523 10.7676H60.4C63.7948 10.7676 66.5468 13.5196 66.5468 16.9144H37.6055Z" fill="#A77148" stroke="black" stroke-linecap="round"/>
  <path d="M46.8675 62.5917C47.4808 61.0849 48.9456 60.0996 50.5724 60.0996H59.704C62.5442 60.0996 64.4796 62.9769 63.409 65.6075L60.0683 73.8157C59.455 75.3225 57.9902 76.3078 56.3634 76.3078H47.2317C44.3916 76.3078 42.4562 73.4306 43.5268 70.7999L46.8675 62.5917Z" fill="#76500D" stroke="black" stroke-linecap="round"/>
  <rect x="14.4844" y="57.6509" width="55.3754" height="3.819" rx="1.9095" fill="#C09344" stroke="black" stroke-linecap="round"/>
  <rect x="41.2852" y="62.5781" width="25.6044" height="4.12974" rx="2.06487" fill="#C09344" stroke="black" stroke-linecap="round"/>
  <rect x="37.1562" y="74.1411" width="25.6044" height="4.12974" rx="2.06487" fill="#C09344" stroke="black" stroke-linecap="round"/>
  <rect x="38.8086" y="68.3594" width="26.4303" height="4.12974" rx="2.06487" fill="#C09344" stroke="black" stroke-linecap="round"/>
  <rect x="38.0352" y="20.1025" width="24.5052" height="9.22923" rx="4" transform="rotate(-3.73462 38.0352 20.1025)" fill="#C09344" stroke="black" stroke-linecap="round"/>
  <path d="M57.4682 24.5986C57.478 24.7476 57.4144 24.8538 57.2776 24.9174C57.1407 24.9781 56.9506 25.0178 56.7073 25.0366C56.7091 25.1084 56.7152 25.2245 56.7257 25.3849C56.7364 25.5481 56.7554 25.6634 56.7828 25.7306C56.8003 25.7784 56.8238 25.8085 56.8534 25.8209C56.8858 25.8332 56.9323 25.8402 56.9928 25.842C57.0131 25.8436 57.0348 25.8465 57.0581 25.8507C57.0841 25.8519 57.113 25.8543 57.1449 25.858C57.2117 25.868 57.2656 25.9004 57.3066 25.9553C57.3473 26.0073 57.3705 26.0762 57.3762 26.1622C57.3825 26.2595 57.3373 26.3387 57.2407 26.3997C57.144 26.4606 57.0083 26.4968 56.8335 26.5082C56.6732 26.5187 56.5169 26.4829 56.3649 26.4007C56.2126 26.3158 56.1042 26.1963 56.0395 26.0423C55.9712 25.8771 55.9217 25.5596 55.891 25.0899C55.6902 25.0972 55.5267 25.082 55.4005 25.0442C55.277 25.0034 55.2113 24.9214 55.2032 24.7982C55.1931 24.6436 55.2437 24.5367 55.3549 24.4777C55.4659 24.4158 55.6287 24.3764 55.8433 24.3595C55.837 24.1298 55.8603 23.937 55.9135 23.7811C55.9664 23.6224 56.0745 23.5376 56.2377 23.527C56.4038 23.5161 56.5159 23.5807 56.5739 23.7208C56.6348 23.8606 56.6706 24.0553 56.6811 24.3048C56.9415 24.285 57.1347 24.2925 57.2607 24.3274C57.3895 24.3621 57.4587 24.4525 57.4682 24.5986Z" fill="#0C0C0C"/>
  <path d="M54.4679 26.6627C54.256 26.6765 54.0657 26.6472 53.897 26.5748C53.7283 26.5024 53.5933 26.3947 53.4919 26.2518C53.3933 26.1058 53.3377 25.9383 53.3254 25.7492C53.3132 25.5631 53.3464 25.3883 53.4249 25.225C53.5063 25.0615 53.6241 24.9273 53.7783 24.8223C53.9325 24.7173 54.1113 24.6582 54.3147 24.6449C54.498 24.6329 54.6622 24.6596 54.8074 24.7249C54.9526 24.7902 55.0665 24.882 55.149 25.0003C55.2313 25.1157 55.2768 25.2393 55.2854 25.3711C55.2994 25.5859 55.228 25.7487 55.0713 25.8596C54.9173 25.9675 54.7286 26.0287 54.5052 26.0433C54.3562 26.053 54.229 26.0426 54.1235 26.0121C54.2186 26.1468 54.3649 26.2078 54.5625 26.1949C54.6427 26.1896 54.728 26.174 54.8183 26.148C54.8521 26.1371 54.8848 26.1307 54.9163 26.1286C54.9793 26.1245 55.0305 26.137 55.0698 26.1661C55.1119 26.1949 55.1348 26.2366 55.1383 26.291C55.1441 26.3798 55.0947 26.4607 54.9902 26.5337C54.8855 26.6038 54.7114 26.6468 54.4679 26.6627ZM54.1021 25.4871C54.1305 25.5255 54.1669 25.5534 54.2111 25.5706C54.2581 25.5848 54.3088 25.5901 54.3632 25.5866C54.4262 25.5825 54.4797 25.5646 54.5236 25.533C54.5705 25.5011 54.5924 25.4623 54.5894 25.4165C54.586 25.3649 54.5616 25.322 54.5163 25.2875C54.4737 25.2529 54.4138 25.2381 54.3365 25.2432C54.2591 25.2482 54.1991 25.2766 54.1565 25.3283C54.1165 25.3769 54.0984 25.4298 54.1021 25.4871Z" fill="#0C0C0C"/>
  <path d="M52.8159 25.7002C52.8624 25.7518 52.9378 25.849 53.042 25.9918C53.1653 26.1621 53.231 26.3088 53.239 26.432C53.2456 26.5322 53.2176 26.6103 53.1551 26.6661C53.0924 26.7191 53.0167 26.7485 52.9279 26.7543C52.8448 26.7597 52.7581 26.7309 52.6677 26.6677C52.5801 26.6044 52.4867 26.517 52.3874 26.4056C52.2816 26.2831 52.2112 26.1956 52.1761 26.1432C52.1398 26.16 52.0992 26.177 52.0543 26.1943C52.0483 26.4105 52.0184 26.5692 51.9646 26.6705C51.9108 26.7718 51.8223 26.8265 51.6992 26.8345C51.5731 26.8427 51.4695 26.7977 51.3883 26.6995C51.3071 26.6012 51.2423 26.4444 51.1937 26.2289C51.148 26.0133 51.1134 25.7265 51.0901 25.3685C51.0678 25.0277 51.06 24.7535 51.0666 24.546C51.0758 24.3354 51.1138 24.1675 51.1804 24.0424C51.2468 23.9144 51.3545 23.8455 51.5034 23.8358C51.6266 23.8277 51.721 23.8647 51.7868 23.9467C51.8554 24.0285 51.9033 24.1448 51.9304 24.2954C51.9601 24.4431 51.9832 24.6429 51.9997 24.8949L52.0174 25.1656L52.0297 25.1562C52.1885 25.0336 52.3289 24.9367 52.4508 24.8655C52.5756 24.7941 52.6895 24.755 52.7926 24.7483C52.91 24.7406 53.0043 24.7747 53.0754 24.8506C53.1492 24.9235 53.1893 25.0086 53.1956 25.1059C53.2024 25.209 53.1742 25.3058 53.111 25.3962C53.0479 25.4866 52.9495 25.588 52.8159 25.7002Z" fill="#0C0C0C"/>
  <path d="M49.5787 26.9823C49.3954 26.9943 49.2652 26.8949 49.1882 26.6843C49.114 26.4734 49.0646 26.1789 49.0399 25.8008C49.0287 25.629 49.0265 25.4853 49.0333 25.3698C49.0429 25.2513 49.0751 25.1499 49.13 25.0658C49.1876 24.9786 49.2808 24.9308 49.4097 24.9224C49.4899 24.9172 49.5613 24.9312 49.6239 24.9645C49.6893 24.9977 49.7328 25.048 49.7545 25.1156C49.8138 25.0543 49.8926 25.006 49.991 24.9708C50.0894 24.9356 50.1958 24.9143 50.3104 24.9068C50.402 24.9008 50.4966 24.9176 50.5941 24.9573C50.6945 24.9968 50.7788 25.0545 50.8471 25.1306C50.918 25.2037 50.9564 25.286 50.9624 25.3776C50.9684 25.4693 50.9408 25.5531 50.8796 25.629C50.8211 25.7018 50.7388 25.7417 50.6328 25.7486C50.5985 25.7509 50.5653 25.7487 50.5332 25.7422C50.504 25.7355 50.4777 25.7286 50.4542 25.7215C50.3954 25.7023 50.3488 25.6938 50.3145 25.6961C50.2028 25.7034 50.1068 25.7542 50.0267 25.8486C49.9493 25.9399 49.915 26.0544 49.924 26.1918C49.9339 26.3436 49.9364 26.47 49.9315 26.571C49.9266 26.672 49.8981 26.7645 49.8461 26.8484C49.7938 26.9295 49.7047 26.9741 49.5787 26.9823Z" fill="#0C0C0C"/>
  <path d="M47.784 27.0986C47.5606 27.1132 47.374 27.075 47.2243 26.9841C47.0744 26.8904 46.9931 26.7475 46.9806 26.5556C46.9698 26.3895 47.0342 26.253 47.1739 26.1461C47.3136 26.0392 47.4923 25.9786 47.71 25.9644C47.7902 25.9592 47.8651 25.9615 47.9348 25.9713C48.0071 25.9781 48.0568 25.9892 48.0837 26.0047C48.079 25.9331 48.0451 25.8764 47.9819 25.8345C47.9186 25.7897 47.8254 25.7714 47.7022 25.7794C47.6478 25.783 47.6037 25.7901 47.5699 25.801C47.5361 25.8118 47.4997 25.8271 47.4607 25.8469C47.4217 25.8667 47.3853 25.8821 47.3515 25.8929C47.3206 25.9035 47.2779 25.9106 47.2235 25.9142C47.1318 25.9202 47.0587 25.9019 47.0042 25.8595C46.9495 25.8142 46.9189 25.7428 46.9126 25.6454C46.9053 25.5337 46.9392 25.4366 47.0143 25.354C47.0924 25.2713 47.1917 25.2073 47.3124 25.162C47.433 25.1139 47.5548 25.0858 47.678 25.0777C47.9214 25.0618 48.1278 25.0944 48.297 25.1754C48.4689 25.2533 48.5984 25.3642 48.6855 25.5081C48.7754 25.6518 48.8262 25.8139 48.838 25.9943C48.8444 26.0917 48.8417 26.1825 48.8299 26.2667C48.821 26.3507 48.8052 26.4164 48.7824 26.4639C48.8247 26.4957 48.8574 26.5338 48.8804 26.5783C48.9063 26.6227 48.9209 26.6692 48.9241 26.7179C48.9295 26.8009 48.9055 26.8744 48.8522 26.9383C48.8017 27.002 48.7306 27.0368 48.639 27.0428C48.5702 27.0473 48.5137 27.0409 48.4694 27.0237C48.4252 27.0064 48.3773 26.9779 48.3258 26.9381C48.257 26.9858 48.1803 27.0224 48.0957 27.0481C48.0139 27.0735 47.91 27.0904 47.784 27.0986ZM47.8416 26.6591C47.9018 26.6552 47.9482 26.6392 47.9809 26.6112C48.0164 26.583 48.033 26.5502 48.0305 26.513C48.0281 26.4758 48.0074 26.4455 47.9685 26.4221C47.9325 26.3986 47.8844 26.3888 47.8242 26.3927C47.7641 26.3966 47.7162 26.4127 47.6807 26.4409C47.648 26.4689 47.6329 26.5016 47.6353 26.5388C47.6377 26.576 47.657 26.6064 47.693 26.63C47.7319 26.6533 47.7815 26.663 47.8416 26.6591Z" fill="#0C0C0C"/>
  <path d="M45.196 27.2684C45.0986 27.2748 45.0154 27.2558 44.9463 27.2114C44.8799 27.1639 44.831 27.0981 44.7997 27.0139C44.7715 26.9352 44.7515 26.8487 44.7396 26.7546C44.7306 26.6603 44.7204 26.5272 44.7092 26.3553C44.6987 26.1949 44.6838 26.0765 44.6645 26.0001C44.648 25.9236 44.6154 25.8869 44.5667 25.89C44.5094 25.8938 44.471 25.9222 44.4514 25.9752C44.4317 26.0254 44.4248 26.0963 44.4308 26.188C44.4362 26.271 44.4562 26.4006 44.4907 26.5767C44.4958 26.6109 44.5051 26.6649 44.5185 26.7388C44.532 26.8127 44.5403 26.874 44.5435 26.9227C44.5524 27.0602 44.5273 27.1596 44.468 27.221C44.4116 27.2822 44.3247 27.3167 44.2073 27.3243C44.0669 27.3335 43.9403 27.2655 43.8272 27.1205C43.7142 26.9754 43.6246 26.7914 43.5582 26.5685C43.4917 26.3428 43.4513 26.1196 43.4369 25.8991C43.4197 25.6356 43.4409 25.3883 43.5006 25.1571C43.5632 24.9258 43.6659 24.7365 43.8087 24.5891C43.9544 24.4415 44.1361 24.3606 44.3537 24.3464C44.537 24.3345 44.6868 24.3822 44.8032 24.4897C44.9193 24.5943 45.0012 24.7255 45.0489 24.8835C45.0701 24.7239 45.1314 24.5833 45.2328 24.4616C45.337 24.3398 45.4793 24.2729 45.6598 24.2612C45.8746 24.2471 46.0623 24.3025 46.2229 24.4272C46.3861 24.5488 46.5156 24.7259 46.6113 24.9584C46.7099 25.1907 46.7694 25.4629 46.7897 25.7751C46.803 25.9785 46.7881 26.1909 46.745 26.4123C46.7018 26.6308 46.6333 26.8151 46.5395 26.965C46.4458 27.1149 46.333 27.1942 46.2013 27.2028C46.081 27.2107 45.9873 27.1866 45.9204 27.1305C45.8535 27.0745 45.8155 26.9777 45.8065 26.8403C45.8024 26.7773 45.8062 26.6591 45.8179 26.4857C45.8289 26.3009 45.8317 26.1684 45.8265 26.0882C45.8143 25.9021 45.7581 25.8123 45.6579 25.8188C45.6063 25.8222 45.5761 25.8659 45.5672 25.9499C45.5612 26.0337 45.5628 26.1687 45.5721 26.3551C45.5813 26.4954 45.5861 26.613 45.5865 26.7079C45.5868 26.8 45.5794 26.8853 45.5644 26.9639C45.5469 27.0485 45.5055 27.1188 45.4401 27.1748C45.3776 27.2307 45.2962 27.2619 45.196 27.2684Z" fill="#0C0C0C"/>
  <path d="M54.3951 22.685C54.2118 22.6969 54.0816 22.5976 54.0046 22.3869C53.9304 22.176 53.881 21.8815 53.8563 21.5035C53.8451 21.3316 53.8429 21.188 53.8497 21.0725C53.8593 20.9539 53.8915 20.8526 53.9464 20.7684C54.004 20.6813 54.0972 20.6335 54.2261 20.6251C54.3063 20.6198 54.3777 20.6339 54.4403 20.6672C54.5057 20.7003 54.5493 20.7507 54.5709 20.8183C54.6302 20.7569 54.709 20.7086 54.8074 20.6734C54.9058 20.6382 55.0122 20.6169 55.1268 20.6094C55.2185 20.6034 55.313 20.6203 55.4105 20.6599C55.5109 20.6994 55.5952 20.7572 55.6635 20.8333C55.7344 20.9063 55.7728 20.9886 55.7788 21.0803C55.7848 21.1719 55.7572 21.2557 55.696 21.3316C55.6375 21.4045 55.5552 21.4444 55.4492 21.4513C55.4149 21.4535 55.3817 21.4514 55.3496 21.4448C55.3204 21.4381 55.2941 21.4312 55.2706 21.4241C55.2118 21.4049 55.1652 21.3965 55.1309 21.3987C55.0192 21.406 54.9232 21.4568 54.8431 21.5512C54.7657 21.6426 54.7314 21.757 54.7404 21.8945C54.7503 22.0463 54.7528 22.1727 54.7479 22.2737C54.743 22.3746 54.7145 22.4671 54.6625 22.551C54.6102 22.6321 54.5211 22.6768 54.3951 22.685Z" fill="#0C0C0C"/>
  <path d="M52.8664 22.7847C52.6544 22.7986 52.4641 22.7693 52.2955 22.6969C52.1268 22.6245 51.9918 22.5168 51.8904 22.3739C51.7917 22.2279 51.7362 22.0603 51.7238 21.8713C51.7117 21.6851 51.7449 21.5104 51.8234 21.3471C51.9047 21.1836 52.0225 21.0493 52.1767 20.9443C52.331 20.8394 52.5098 20.7802 52.7131 20.767C52.8964 20.755 53.0607 20.7817 53.2059 20.847C53.3511 20.9123 53.4649 21.0041 53.5474 21.1224C53.6297 21.2378 53.6752 21.3614 53.6838 21.4931C53.6978 21.7079 53.6265 21.8708 53.4698 21.9817C53.3157 22.0895 53.127 22.1508 52.9036 22.1653C52.7547 22.1751 52.6274 22.1647 52.5219 22.1342C52.617 22.2689 52.7633 22.3298 52.961 22.3169C53.0412 22.3117 53.1264 22.2961 53.2168 22.27C53.2506 22.2592 53.2832 22.2527 53.3147 22.2507C53.3778 22.2466 53.4289 22.2591 53.4682 22.2881C53.5104 22.317 53.5332 22.3587 53.5368 22.4131C53.5426 22.5019 53.4932 22.5828 53.3886 22.6557C53.2839 22.7259 53.1098 22.7689 52.8664 22.7847ZM52.5006 21.6092C52.529 21.6476 52.5653 21.6754 52.6096 21.6927C52.6565 21.7069 52.7072 21.7122 52.7616 21.7087C52.8246 21.7045 52.8781 21.6867 52.9221 21.655C52.9689 21.6232 52.9908 21.5844 52.9878 21.5386C52.9845 21.487 52.9601 21.444 52.9147 21.4096C52.8722 21.375 52.8122 21.3602 52.7349 21.3652C52.6576 21.3703 52.5976 21.3987 52.5549 21.4503C52.515 21.499 52.4968 21.5519 52.5006 21.6092Z" fill="#0C0C0C"/>
  <path d="M49.7747 23.6033C49.6344 23.6124 49.528 23.5475 49.4557 23.4084C49.3835 23.2722 49.3344 23.1143 49.3083 22.9348C49.285 22.7551 49.2638 22.5177 49.2445 22.2227C49.2298 21.9965 49.2254 21.7969 49.2313 21.6239C49.2402 21.4507 49.2748 21.2989 49.3354 21.1684C49.3959 21.0379 49.4963 20.9681 49.6366 20.9589C49.7827 20.9494 49.8924 20.9997 49.9658 21.11C50.0285 21.057 50.1076 21.013 50.2031 20.978C50.3013 20.94 50.4048 20.9174 50.5136 20.9103C50.6969 20.8983 50.8689 20.9331 51.0295 21.0147C51.1902 21.0962 51.3214 21.2113 51.4231 21.36C51.5249 21.5087 51.5817 21.6747 51.5937 21.858C51.6057 22.0413 51.571 22.2147 51.4896 22.3782C51.408 22.5389 51.2929 22.6701 51.1442 22.7718C50.9956 22.8735 50.8296 22.9304 50.6463 22.9424C50.5346 22.9497 50.4291 22.9422 50.3298 22.9199C50.2304 22.8947 50.1446 22.8586 50.0725 22.8116C50.0845 22.9949 50.088 23.137 50.0831 23.238C50.0782 23.339 50.052 23.4227 50.0046 23.489C49.9602 23.5581 49.8836 23.5962 49.7747 23.6033ZM50.5782 22.2306C50.6527 22.2257 50.7154 22.1943 50.7662 22.1364C50.8198 22.0753 50.8441 22.0076 50.8393 21.9331C50.8344 21.8587 50.8015 21.7961 50.7407 21.7454C50.6826 21.6917 50.6162 21.6672 50.5418 21.6721C50.4673 21.677 50.4033 21.7099 50.3498 21.7709C50.2989 21.8289 50.2759 21.8951 50.2807 21.9696C50.2856 22.0441 50.3171 22.1082 50.3753 22.1619C50.4361 22.2126 50.5038 22.2355 50.5782 22.2306Z" fill="#0C0C0C"/>
  <path d="M48.1129 23.0954C47.9038 23.109 47.7171 23.0694 47.5529 22.9766C47.3884 22.8809 47.2572 22.7428 47.1591 22.5622C47.0637 22.3786 47.008 22.1637 46.9919 21.9174C46.9762 21.6768 47.0025 21.4852 47.0709 21.3427C47.1392 21.2002 47.2421 21.1244 47.3796 21.1154C47.6231 21.0995 47.7529 21.2162 47.7692 21.4654C47.7726 21.5169 47.7741 21.5628 47.7739 21.6031C47.7734 21.6405 47.7727 21.6737 47.7717 21.7025C47.7677 21.8178 47.768 21.9098 47.7725 21.9786C47.7807 22.1046 47.8127 22.1989 47.8686 22.2614C47.9245 22.3239 47.9896 22.3527 48.0641 22.3478C48.1414 22.3428 48.2024 22.3072 48.2469 22.241C48.2942 22.1717 48.3136 22.0727 48.3052 21.9438C48.2992 21.8522 48.2894 21.7679 48.2758 21.6912C48.2712 21.6656 48.2659 21.6285 48.2599 21.58C48.2537 21.5287 48.2491 21.4815 48.2463 21.4385C48.2299 21.1865 48.3434 21.0525 48.5868 21.0366C48.7243 21.0277 48.8348 21.0895 48.9182 21.2221C49.0043 21.3517 49.0553 21.5382 49.0712 21.7816C49.0961 22.1626 49.0271 22.4719 48.8643 22.7098C48.7013 22.9448 48.4508 23.0733 48.1129 23.0954Z" fill="#0C0C0C"/>
  <path d="M45.8574 23.2475C45.6684 23.2599 45.4849 23.246 45.3068 23.2058C45.1314 23.1626 44.9862 23.0973 44.8712 23.0099C44.756 22.9196 44.6944 22.8129 44.6863 22.6897C44.6787 22.5723 44.7084 22.4769 44.7755 22.4035C44.8426 22.3301 44.9306 22.2898 45.0394 22.2827C45.111 22.278 45.1733 22.284 45.2261 22.3007C45.2817 22.3144 45.3421 22.3363 45.4073 22.3666C45.4546 22.3865 45.4945 22.4026 45.527 22.4148C45.5621 22.424 45.5983 22.4274 45.6355 22.425C45.73 22.4188 45.7748 22.3785 45.77 22.3041C45.7681 22.2754 45.7465 22.2524 45.7051 22.2349C45.6635 22.2146 45.5942 22.189 45.4972 22.1579C45.324 22.1031 45.1823 22.0476 45.0722 21.9915C44.9026 21.9048 44.7825 21.8062 44.712 21.6957C44.6444 21.5851 44.605 21.4439 44.5938 21.272C44.5829 21.1059 44.6257 20.9463 44.7222 20.7934C44.8184 20.6375 44.9553 20.5092 45.1328 20.4084C45.3103 20.3077 45.5079 20.2502 45.7256 20.236C45.9375 20.2222 46.133 20.2425 46.312 20.297C46.4937 20.3484 46.6384 20.4281 46.7461 20.5361C46.8565 20.6411 46.9162 20.7623 46.9252 20.8998C46.9355 21.0573 46.896 21.1793 46.8067 21.2656C46.7201 21.3489 46.6195 21.3943 46.5049 21.4018C46.4104 21.408 46.3384 21.4069 46.289 21.3987C46.2424 21.3902 46.1956 21.3774 46.1484 21.3604C46.1103 21.3485 46.0781 21.3405 46.052 21.3365C46.0256 21.3296 45.9895 21.3276 45.9437 21.3306C45.9065 21.333 45.8715 21.3482 45.8388 21.3763C45.8088 21.4012 45.7952 21.4352 45.798 21.4782C45.8001 21.5097 45.8205 21.5357 45.8592 21.5561C45.8978 21.5738 45.9419 21.5896 45.9917 21.6036C46.0416 21.6176 46.0768 21.6282 46.0974 21.6355C46.3701 21.7155 46.5736 21.8144 46.7078 21.9322C46.8419 22.0471 46.9154 22.2034 46.9283 22.401C46.9442 22.6445 46.8578 22.8414 46.6691 22.9918C46.4831 23.1391 46.2126 23.2243 45.8574 23.2475Z" fill="#0C0C0C"/>
  <path d="M22.3905 79.1969C22.0787 77.6531 22.3054 74.092 25.7064 72.1982C29.1073 70.3044 32.6782 70.7916 34.0386 71.2719C34.7471 71.7865 36.1471 73.5156 36.0791 76.3151C36.0145 78.9757 34.4754 80.3868 32.5082 80.5939C26.0464 82.6995 23.0706 80.5399 22.3905 79.1969Z" fill="#B6B6B6"/>
  <path d="M34.0386 71.2719C32.6782 70.7916 29.1073 70.3044 25.7064 72.1982C22.3054 74.092 22.0787 77.6531 22.3905 79.1969C23.0706 80.5399 26.0464 82.6995 32.5082 80.5939M34.0386 71.2719C34.7471 71.7865 36.1471 73.5156 36.0791 76.3151C36.0145 78.9757 34.4754 80.3868 32.5082 80.5939M34.0386 71.2719C31.6579 72.3011 28.8522 74.6684 28.0019 76.3151C27.1517 77.9619 27.7469 79.7116 30.5526 80.432C31.2252 80.6047 31.8879 80.6591 32.5082 80.5939" stroke="black" stroke-linecap="round" stroke-linejoin="round"/>
  <path d="M34.0387 71.2715C34.7473 71.7861 36.1473 73.5152 36.0793 76.3147C36.0146 78.9753 34.4756 80.3864 32.5083 80.5934C26.0466 82.699 23.0708 80.5395 22.3906 79.1965C23.5816 79.1279 26.3034 78.7848 27.663 77.9614C27.5947 77.4293 27.7173 76.8662 28.0021 76.3147C28.8523 74.6679 31.6581 72.3007 34.0387 71.2715Z" fill="#7C7C7C"/>
  <path d="M32.5083 80.5934C34.4756 80.3864 36.0146 78.9753 36.0793 76.3147C36.1473 73.5152 34.7473 71.7861 34.0387 71.2715C31.6581 72.3007 28.8523 74.6679 28.0021 76.3147C27.7173 76.8662 27.5947 77.4293 27.663 77.9614M32.5083 80.5934C31.8881 80.6587 31.2253 80.6043 30.5528 80.4316C28.6868 79.9524 27.7985 79.018 27.663 77.9614M32.5083 80.5934C26.0466 82.699 23.0708 80.5395 22.3906 79.1965C23.5816 79.1279 26.3034 78.7848 27.663 77.9614" stroke="black" stroke-linecap="round" stroke-linejoin="round"/>
  <path d="M36.0793 76.3147C36.1473 73.5152 34.7473 71.7861 34.0388 71.2715C31.6581 72.3007 28.8524 74.6679 28.0021 76.3147C27.1519 77.9614 27.7471 79.7111 30.5528 80.4316C31.2254 80.6043 31.8881 80.6587 32.5083 80.5934C34.4756 80.3864 36.0147 78.9752 36.0793 76.3147Z" fill="#818181" stroke="black" stroke-linecap="round" stroke-linejoin="round"/>
  <path d="M34.7247 75.5497C32.8882 75.9614 33.1092 78.26 33.4493 79.3578C33.4493 80.0097 34.1805 81.3339 37.1053 81.4162C40.0301 81.4986 39.6843 78.6374 39.1459 77.1965C38.4373 76.476 36.5612 75.138 34.7247 75.5497Z" fill="#999999" stroke="black" stroke-linecap="round" stroke-linejoin="round"/>
  <path d="M34.7247 75.5497C32.8882 75.9614 33.1092 78.26 33.4493 79.3578C34.5263 79.7009 37.1733 79.749 39.1459 77.1965C38.4373 76.476 36.5612 75.138 34.7247 75.5497Z" fill="#B6B6B6" stroke="black" stroke-linecap="round" stroke-linejoin="round"/>
  <ellipse cx="60.6977" cy="43.9931" rx="2.06487" ry="2.06487" fill="#A77148"/>
  <ellipse cx="60.6977" cy="43.9931" rx="2.06487" ry="2.06487" fill="#A77148"/>
  <ellipse cx="60.6977" cy="43.9931" rx="2.06487" ry="2.06487" stroke="black" stroke-linecap="round"/>
</svg>