<svg width="88" height="78" viewBox="0 0 88 78" fill="none" xmlns="http://www.w3.org/2000/svg">
<g filter="url(#filter0_d_24945_16540)">
<path d="M37.1321 8.54004L31.3212 32.5557L17.0554 36.6896C16.4356 38.8587 17.3976 47.3801 18.0433 52.6738C18.0433 52.6738 13.6173 53.4785 10.4697 57.2191C7.6479 60.5724 8.38668 63.9399 9.19141 65.147L12.8126 68.4522C16.2217 69.6917 18.8929 68.4522 20.0551 67.2901C20.7008 67.8066 22.9993 68.8395 27.0283 68.8395C31.0572 68.8395 33.3479 66.9846 33.7353 65.9517C36.1495 66.7564 37.7589 67.2901 37.7589 67.2901C37.7589 67.2901 47 70 49.5 70C52 70 65.3182 64 66 62C68.3862 55 69.5453 39.7983 69.5453 39.7983C73.0319 38.2489 77.7995 34.9078 79.0392 24.6818C80.2789 14.4558 74.1321 10.3499 70.9038 9.57518L37.1321 8.54004Z" fill="black"/>
<path d="M16.078 43.5893C16.2973 46.3457 16.6432 49.4102 16.9448 51.9207C16.451 52.0665 15.7864 52.293 15.0297 52.6304C13.4367 53.3406 11.4033 54.5565 9.70456 56.5752C6.58789 60.279 7.31546 64.1358 8.35936 65.7017C8.40435 65.7691 8.45737 65.8309 8.51726 65.8856L12.1385 69.1908C12.2351 69.2789 12.348 69.3473 12.4709 69.392C15.7958 70.6009 18.5635 69.7111 20.1523 68.5226C20.6288 68.7672 21.251 69.012 22.0047 69.2219C23.2563 69.5704 24.9288 69.8395 27.0283 69.8395C29.1973 69.8395 30.9383 69.3398 32.2137 68.6676C33.0299 68.2373 33.7089 67.7057 34.165 67.1489C35.0429 67.4414 35.7833 67.6876 36.337 67.8716L37.1547 68.1432L37.3701 68.2148L37.4254 68.2331L37.4394 68.2377L37.4429 68.2389L37.4438 68.2392L37.4441 68.2393L37.4441 68.2393C37.4552 68.243 37.4663 68.2465 37.4775 68.2497L37.7589 67.2901C37.4775 68.2497 37.4776 68.2498 37.4777 68.2498L37.4781 68.2499L37.4795 68.2503L37.4848 68.2519L37.5052 68.2578L37.5842 68.2808C37.6533 68.3009 37.7547 68.3303 37.8844 68.3676C38.1438 68.4422 38.5167 68.5487 38.9717 68.6764C39.8815 68.9316 41.1218 69.2723 42.4419 69.6133C43.7603 69.9538 45.1668 70.2969 46.4066 70.5555C47.6166 70.8079 48.758 71 49.5 71C49.959 71 50.5537 70.872 51.1664 70.7018C51.8066 70.524 52.5623 70.272 53.3828 69.9695C55.0253 69.3641 56.9724 68.54 58.8568 67.6552C60.7389 66.7715 62.581 65.8169 64.0065 64.9475C64.717 64.5142 65.3465 64.0886 65.8312 63.6918C66.0735 63.4935 66.2966 63.2887 66.4799 63.0808C66.6538 62.8835 66.8427 62.6272 66.9465 62.3227C68.1766 58.7143 69.0722 53.0696 69.6597 48.399C69.9553 46.0487 70.1758 43.9194 70.3224 42.3777C70.3957 41.6066 70.4507 40.982 70.4873 40.5496C70.4899 40.519 70.4924 40.4894 70.4948 40.4607C72.2178 39.6302 74.1961 38.3443 75.9261 36.1052C77.8396 33.6288 79.3948 30.0573 80.0319 24.8021C80.6795 19.4603 79.4025 15.6148 77.4495 12.9876C75.5165 10.3873 72.9659 9.04163 71.1372 8.60278C71.0707 8.58684 71.0028 8.57774 70.9345 8.57565L37.1628 7.54051C36.6898 7.52601 36.2715 7.84497 36.1602 8.30486L30.4856 31.7566L16.7771 35.7291C16.4466 35.8249 16.1885 36.0839 16.0939 36.4148C15.8941 37.1142 15.8445 38.1894 15.8576 39.3689C15.871 40.5881 15.9553 42.0475 16.078 43.5893Z" stroke="white" stroke-width="2" stroke-linejoin="round"/>
</g>
<path fill-rule="evenodd" clip-rule="evenodd" d="M19.1068 37.1504L49.8723 43.4358V67.4403L49.4215 67.3219C45.1154 66.1916 38.5751 64.4314 32.949 62.8243C30.1363 62.0208 27.5492 61.2549 25.5832 60.6246C24.6006 60.3096 23.7692 60.0272 23.1409 59.7902C22.827 59.6717 22.5597 59.5631 22.3477 59.466C22.1442 59.3728 21.9645 59.2783 21.8464 59.1838C21.704 59.0699 21.5963 58.8998 21.5104 58.7261C21.4209 58.545 21.3376 58.3233 21.2592 58.0714C21.1022 57.5673 20.9541 56.9088 20.8143 56.1405C20.5343 54.6019 20.281 52.5853 20.0587 50.4002C19.614 46.028 19.2907 40.9526 19.1291 37.6127L19.1068 37.1504ZM19.8703 38.0403C20.038 41.3665 20.3511 46.169 20.7741 50.3274C20.9958 52.5061 21.2469 54.5009 21.5218 56.0118C21.6595 56.7682 21.8014 57.394 21.9458 57.8576C22.0181 58.0896 22.0884 58.2726 22.1551 58.4075C22.2254 58.5498 22.2766 58.6071 22.2956 58.6223C22.3389 58.6569 22.4476 58.7208 22.6472 58.8122C22.8382 58.8997 23.0886 59.0019 23.3947 59.1174C24.0065 59.3482 24.8247 59.6263 25.8027 59.9398C27.7578 60.5666 30.3363 61.3301 33.1465 62.1328C38.5732 63.6829 44.8535 65.3763 49.1532 66.5079V44.0229L19.8703 38.0403Z" fill="black"/>
<path d="M22.0709 58.904C20.8364 57.9164 19.8969 45.4422 19.5345 38.5165C19.51 38.0479 19.9353 37.6876 20.3951 37.7816L48.9375 43.6128C49.2722 43.6812 49.5127 43.9757 49.5127 44.3174V66.0429C49.5127 66.5142 49.0685 66.8585 48.6128 66.7383C39.7396 64.3974 23.3187 59.9023 22.0709 58.904Z" fill="#CB8700"/>
<path fill-rule="evenodd" clip-rule="evenodd" d="M19.7606 51.0112C19.3243 46.886 18.998 42.0222 18.8165 38.5526C18.767 37.6059 19.6266 36.8891 20.5391 37.0755L49.0815 42.9068C49.7511 43.0436 50.2319 43.6326 50.2319 44.3159V66.0414C50.2319 66.9812 49.3443 67.6735 48.4295 67.4322C43.9901 66.261 37.6612 64.5505 32.2841 63.0074C29.5964 62.2361 27.1407 61.5049 25.2759 60.903C24.3444 60.6023 23.5525 60.3313 22.9499 60.1018C22.6491 59.9873 22.3874 59.8801 22.1754 59.782C21.9793 59.6913 21.773 59.585 21.6218 59.4641C21.4255 59.3071 21.2933 59.0926 21.2018 58.9124C21.1037 58.7191 21.0167 58.4921 20.9379 58.2473C20.7801 57.7569 20.6342 57.1282 20.4982 56.4076C20.2255 54.9625 19.9786 53.0717 19.7606 51.0112ZM19.5346 38.5151C19.897 45.4407 20.8365 57.9149 22.071 58.9025C23.3189 59.9008 39.7397 64.3959 48.6129 66.7368C49.0686 66.8571 49.5128 66.5127 49.5128 66.0414V44.3159C49.5128 43.9742 49.2724 43.6797 48.9376 43.6114L20.3952 37.7801C19.9354 37.6862 19.5101 38.0464 19.5346 38.5151Z" fill="black"/>
<path opacity="0.3" fill-rule="evenodd" clip-rule="evenodd" d="M23.677 39.4962C23.8755 39.4918 24.04 39.6491 24.0444 39.8477C24.0981 42.2645 24.2432 46.1654 24.5037 50.009C24.7649 53.8615 25.1403 57.6269 25.6492 59.7896C25.6946 59.9829 25.5748 60.1765 25.3815 60.222C25.1882 60.2675 24.9946 60.1477 24.9492 59.9544C24.4249 57.7264 24.047 53.905 23.7863 50.0576C23.5249 46.2014 23.3794 42.2894 23.3255 39.8636C23.3211 39.6651 23.4784 39.5006 23.677 39.4962Z" fill="#553322"/>
<path opacity="0.3" fill-rule="evenodd" clip-rule="evenodd" d="M32.0789 40.4268C32.4761 40.4268 32.798 40.7487 32.798 41.1459C32.798 42.5986 32.7981 47.4357 32.8789 52.1102C32.9192 54.4482 32.9797 56.7393 33.0699 58.5435C33.1151 59.4465 33.1674 60.2196 33.2274 60.8123C33.2575 61.109 33.2887 61.3528 33.3206 61.5412C33.3546 61.7426 33.3825 61.8379 33.3928 61.8636C33.5404 62.2323 33.3611 62.6509 32.9923 62.7984C32.6236 62.9459 32.2051 62.7666 32.0575 62.3979C31.9871 62.2218 31.9394 61.9994 31.9024 61.7808C31.8633 61.5492 31.8283 61.2709 31.7965 60.9572C31.7329 60.3292 31.6792 59.5284 31.6335 58.6154C31.5421 56.7876 31.4813 54.4782 31.4408 52.135C31.3599 47.4469 31.3598 42.5988 31.3598 41.1459C31.3598 40.7487 31.6818 40.4268 32.0789 40.4268Z" fill="#553322"/>
<path opacity="0.3" fill-rule="evenodd" clip-rule="evenodd" d="M35.3074 52.0879C35.506 52.0879 35.6669 52.2489 35.6669 52.4474C35.6669 53.1626 35.667 55.5413 35.7476 57.8391C35.7879 58.9888 35.8481 60.112 35.9377 60.9943C35.9825 61.4362 36.034 61.8099 36.0923 62.0932C36.1214 62.235 36.1509 62.3474 36.1796 62.4311C36.1939 62.4727 36.2067 62.5036 36.2174 62.5255C36.2271 62.5453 36.2327 62.5529 36.2327 62.5529C36.2327 62.5529 36.2325 62.5528 36.2322 62.5524C36.3574 62.7065 36.3339 62.933 36.1798 63.0582C36.0256 63.1833 35.7992 63.1599 35.674 63.0057C35.5936 62.9067 35.5393 62.7808 35.4994 62.6644C35.4572 62.5414 35.4205 62.3967 35.3879 62.238C35.3226 61.9203 35.2681 61.5191 35.2222 61.0669C35.1302 60.161 35.0694 59.0192 35.0289 57.8643C34.9479 55.5526 34.9478 53.1628 34.9478 52.4474C34.9478 52.2489 35.1088 52.0879 35.3074 52.0879Z" fill="#553322"/>
<path opacity="0.3" fill-rule="evenodd" clip-rule="evenodd" d="M39.1814 44.6602C39.38 44.6602 39.5409 44.8211 39.5409 45.0197C39.5409 45.7415 39.46 48.8161 39.3794 51.7006C39.339 53.145 39.2986 54.5446 39.2684 55.5831C39.2532 56.1024 39.2406 56.5314 39.2318 56.8306L39.2179 57.2987C39.2179 57.2988 39.2179 57.2992 38.9261 57.2905L39.2179 57.2987C39.212 57.4972 39.0463 57.6538 38.8478 57.6479C38.6493 57.642 38.4932 57.4763 38.4991 57.2778L38.79 57.2864C38.4991 57.2778 38.4991 57.2779 38.4991 57.2778L38.513 56.8094C38.5218 56.5103 38.5344 56.0814 38.5496 55.5622C38.5798 54.5238 38.6202 53.1245 38.6605 51.6805C38.7414 48.7882 38.8218 45.7284 38.8218 45.0197C38.8218 44.8211 38.9828 44.6602 39.1814 44.6602Z" fill="#553322"/>
<path opacity="0.3" fill-rule="evenodd" clip-rule="evenodd" d="M21.4251 40.1406C21.6237 40.1406 21.7847 40.3016 21.7847 40.5002C21.7847 41.193 22.1045 44.7182 22.4288 48.1053C22.5901 49.7911 22.7515 51.4323 22.8726 52.6521C22.9331 53.262 22.9835 53.7665 23.0188 54.1185L23.0742 54.6694C23.0742 54.6695 23.0743 54.67 22.7801 54.6997L23.0742 54.6694C23.0942 54.867 22.9503 55.0439 22.7527 55.0639C22.5552 55.0838 22.3788 54.9399 22.3588 54.7423L22.6552 54.7123C22.3588 54.7423 22.3588 54.7424 22.3588 54.7423L22.3033 54.1903C22.268 53.838 22.2175 53.3333 22.157 52.7231C22.0359 51.5028 21.8744 49.8608 21.7129 48.1739C21.3914 44.8157 21.0656 41.2379 21.0656 40.5002C21.0656 40.3016 21.2265 40.1406 21.4251 40.1406Z" fill="#553322"/>
<path opacity="0.3" fill-rule="evenodd" clip-rule="evenodd" d="M25.299 44.9824C25.4975 44.9824 25.6585 45.1434 25.6585 45.342C25.6585 46.0377 25.8984 49.0827 26.1415 51.9828C26.2626 53.4264 26.3836 54.8254 26.4744 55.8636C26.5198 56.3827 26.5576 56.8115 26.5841 57.1105L26.6256 57.5783C26.6256 57.5783 26.6257 57.5787 26.2676 57.6108L26.6256 57.5783C26.6433 57.7761 26.4973 57.9512 26.2995 57.9689C26.1018 57.9866 25.9271 57.8405 25.9094 57.6428L26.2676 57.6108C25.9095 57.6428 25.9094 57.6428 25.9094 57.6428L25.8678 57.174C25.8413 56.8747 25.8034 56.4456 25.758 55.9262C25.6672 54.8875 25.5461 53.4876 25.4249 52.0429C25.1838 49.1662 24.9394 46.0768 24.9394 45.342C24.9394 45.1434 25.1004 44.9824 25.299 44.9824Z" fill="#553322"/>
<path opacity="0.3" fill-rule="evenodd" clip-rule="evenodd" d="M41.1189 42.041C41.516 42.041 41.838 42.363 41.838 42.7601L41.8377 64.0669C41.8377 64.0671 41.8377 64.0679 41.1186 64.0679C40.3995 64.0678 40.3995 64.0678 40.3995 64.0676L40.3998 42.7602C40.3998 42.363 40.7217 42.041 41.1189 42.041ZM41.1186 64.787C40.7214 64.787 40.3995 64.4648 40.3995 64.0676L41.1186 64.0679L41.8377 64.0679C41.8377 64.465 41.5157 64.787 41.1186 64.787Z" fill="#553322"/>
<path d="M38.9533 12.9084C38.1461 17.0202 35.4208 28.0715 34.4034 32.1664C34.1963 32.9999 34.7622 33.8197 35.6136 33.9326L64.2382 37.7296C65.0221 37.8336 65.7428 37.2854 65.8519 36.5022L68.9855 13.9969C69.1033 13.1505 68.4615 12.3887 67.6074 12.3611L40.6662 11.492C39.8541 11.4658 39.1098 12.1111 38.9533 12.9084Z" fill="#FFC055"/>
<path fill-rule="evenodd" clip-rule="evenodd" d="M40.6546 11.8515C40.0347 11.8315 39.4319 12.3374 39.3062 12.9778C38.4968 17.1008 35.7687 28.1632 34.7524 32.2533C34.5977 32.8758 35.0192 33.4913 35.661 33.5764L64.2856 37.3734C64.8735 37.4514 65.414 37.0402 65.4958 36.4529L68.6294 13.9475C68.7178 13.3127 68.2365 12.7413 67.5958 12.7207L40.6546 11.8515ZM38.6005 12.8393C38.7878 11.8852 39.6737 11.1004 40.6778 11.1328L67.619 12.0019C68.6867 12.0364 69.489 12.9887 69.3417 14.0467L66.208 36.552C66.0717 37.5309 65.1708 38.2162 64.191 38.0863L35.5664 34.2893C34.5054 34.1485 33.795 33.1244 34.0545 32.0799C35.0731 27.9803 37.7955 16.9401 38.6005 12.8393Z" fill="black"/>
<path fill-rule="evenodd" clip-rule="evenodd" d="M45.6022 17.8842C45.6118 17.6858 45.7804 17.5328 45.9788 17.5424L65.9951 18.511C66.1934 18.5206 66.3465 18.6891 66.3369 18.8875C66.3273 19.0858 66.1587 19.2388 65.9603 19.2292L45.944 18.2607C45.7456 18.2511 45.5926 18.0825 45.6022 17.8842Z" fill="#1D130E"/>
<path fill-rule="evenodd" clip-rule="evenodd" d="M42.6994 29.1501C42.7266 28.9534 42.9081 28.816 43.1048 28.8433L64.0897 31.7489C64.2864 31.7761 64.4238 31.9577 64.3966 32.1544C64.3693 32.3511 64.1878 32.4884 63.9911 32.4612L43.0062 29.5556C42.8095 29.5284 42.6721 29.3468 42.6994 29.1501Z" fill="#1D130E"/>
<path fill-rule="evenodd" clip-rule="evenodd" d="M45.604 23.9941C45.6263 23.7967 45.8044 23.6548 46.0017 23.6771L66.018 25.937C66.2153 25.9593 66.3572 26.1373 66.335 26.3346C66.3127 26.532 66.1347 26.6739 65.9373 26.6516L45.921 24.3917C45.7237 24.3694 45.5818 24.1914 45.604 23.9941Z" fill="#1D130E"/>
<path d="M19.1654 37.2727L34.0162 33.7217L65.9778 37.9185L49.8356 43.4068L19.1654 37.2727Z" fill="#595959"/>
<path fill-rule="evenodd" clip-rule="evenodd" d="M33.9973 33.3564L66.0247 37.5619L66.0936 38.2588L49.8599 43.7782L19.0949 37.6251L19.0818 36.9229L33.9973 33.3564ZM34.0353 34.0867L20.8424 37.2413L49.8114 43.0351L64.4026 38.0742L34.0353 34.0867Z" fill="black"/>
<path d="M19.1654 37.5949L34.0162 34.0439L65.9778 38.2408L49.8356 43.729L19.1654 37.5949Z" fill="#241403"/>
<path fill-rule="evenodd" clip-rule="evenodd" d="M33.9973 33.6777L66.0247 37.8832L66.0936 38.5801L49.8599 44.0995L19.0949 37.9464L19.0818 37.2441L33.9973 33.6777ZM34.0353 34.408L20.8424 37.5626L49.8114 43.3564L64.4026 38.3955L34.0353 34.408Z" fill="black"/>
<path d="M63.0725 59.8724C65.5367 54.6362 66.5314 46.0694 66.3372 39.4992C66.3233 39.0267 65.859 38.7061 65.4088 38.8502L50.6584 43.5702C50.3606 43.6656 50.1584 43.9424 50.1584 44.2551V65.8535C50.1584 66.3777 50.6952 66.727 51.1697 66.5042C54.1112 65.1235 62.4927 61.1046 63.0725 59.8724Z" fill="#CB8700"/>
<path fill-rule="evenodd" clip-rule="evenodd" d="M67.0561 39.4773C67.2517 46.0952 66.2573 54.7934 63.7233 60.178C63.6385 60.3582 63.5102 60.5121 63.3934 60.6333C63.27 60.7613 63.1225 60.8901 62.9624 61.0172C62.642 61.2715 62.2303 61.551 61.7633 61.8433C60.8272 62.4292 59.6145 63.1001 58.3411 63.7687C55.7911 65.1076 52.9489 66.4629 51.4753 67.1546C50.5117 67.6069 49.4394 66.8904 49.4394 65.8529V44.2545C49.4394 43.6291 49.8436 43.0754 50.4393 42.8847L65.1897 38.1647C66.0838 37.8786 67.0276 38.5145 67.0561 39.4773ZM66.3373 39.4986C66.5315 46.0688 65.5368 54.6356 63.0726 59.8718C62.4927 61.104 54.1113 65.1229 51.1698 66.5036C50.6953 66.7264 50.1585 66.3771 50.1585 65.8529V44.2545C50.1585 43.9418 50.3606 43.6649 50.6585 43.5696L65.4088 38.8496C65.8591 38.7055 66.3233 39.0261 66.3373 39.4986Z" fill="black"/>
<path d="M69.0594 12.7466L66.3394 36.9239C66.2915 37.3502 66.6244 37.719 67.046 37.6394C69.6524 37.1477 74.9726 34.3611 76.2577 25.7782C77.5419 17.2012 72.5265 13.3556 69.9526 12.1976C69.5451 12.0143 69.1093 12.3026 69.0594 12.7466Z" fill="#FFAA00"/>
<path fill-rule="evenodd" clip-rule="evenodd" d="M65.353 37.6841L68.0729 13.5069C68.1692 12.651 69.0591 11.9701 69.9757 12.3825C71.3617 13.0059 73.3782 14.3381 74.8831 16.6547C76.3986 18.9875 77.3638 22.2719 76.697 26.7253C75.364 35.628 69.7971 38.6416 66.9075 39.1867C65.92 39.373 65.2617 38.4957 65.353 37.6841ZM66.0676 37.7645L68.7875 13.5873C68.8375 13.1433 69.2732 12.855 69.6807 13.0383C72.2547 14.1962 77.27 18.0418 75.9858 26.6188C74.7007 35.2017 69.3805 37.9884 66.7741 38.4801C66.3526 38.5596 66.0196 38.1908 66.0676 37.7645Z" fill="black"/>
<path d="M39.165 13.2599L35.0609 31.3183C34.8563 32.2183 35.5424 33.0638 36.4492 32.8921C39.4717 32.3196 44.4866 30.1131 45.6382 22.4214C46.8034 14.6396 43.4202 12.8769 40.983 12.1605C40.1873 11.9266 39.3489 12.4511 39.165 13.2599Z" fill="#DC7900"/>
<path opacity="0.3" fill-rule="evenodd" clip-rule="evenodd" d="M57.6061 41.7181C58.003 41.7305 58.3148 42.0624 58.3024 42.4594L57.6567 63.1214C57.6443 63.5184 57.3124 63.8301 56.9155 63.8177C56.5185 63.8053 56.2068 63.4734 56.2192 63.0765L56.8649 42.4144C56.8773 42.0175 57.2091 41.7057 57.6061 41.7181Z" fill="#553322"/>
<path opacity="0.3" fill-rule="evenodd" clip-rule="evenodd" d="M62.1641 40.4294C62.5599 40.4629 62.8535 40.8109 62.8199 41.2066L61.2057 60.2545C61.1722 60.6502 60.8242 60.9438 60.4285 60.9103C60.0327 60.8767 59.7391 60.5287 59.7726 60.133L61.3869 41.0852C61.4204 40.6895 61.7684 40.3958 62.1641 40.4294Z" fill="#553322"/>
<path opacity="0.3" fill-rule="evenodd" clip-rule="evenodd" d="M54.6965 47.962C54.4652 48.9049 54.2277 50.7236 54.0682 53.4356C53.8075 57.8669 52.4427 63.2999 51.7937 65.463C51.7366 65.6532 51.5362 65.7612 51.346 65.7041C51.1558 65.6471 51.0479 65.4466 51.1049 65.2564C51.7473 63.115 53.0944 57.7434 53.3503 53.3934C53.5119 50.6455 53.7554 48.7611 54.0061 47.7582C54.0689 47.5071 54.1355 47.2969 54.2076 47.1374C54.2435 47.058 54.2858 46.9797 54.3371 46.9124C54.3848 46.8498 54.4645 46.7644 54.5851 46.7206C54.7296 46.6681 54.876 46.6951 54.9895 46.7712C55.0852 46.8354 55.1448 46.9248 55.1818 46.9932C55.2574 47.1327 55.3111 47.3222 55.3532 47.5328C55.5219 48.3762 55.683 50.6668 55.7233 53.2879C55.7638 55.9176 55.6834 58.9259 55.3565 61.2136C55.3285 61.4102 55.1463 61.5468 54.9498 61.5187C54.7532 61.4906 54.6166 61.3085 54.6447 61.1119C54.9635 58.8798 55.0445 55.9155 55.0043 53.299C54.9681 50.9482 54.8347 48.9149 54.6965 47.962ZM54.9112 47.3457C54.9112 47.3457 54.9106 47.3466 54.9092 47.3481C54.9105 47.3464 54.9112 47.3456 54.9112 47.3457ZM54.5461 47.3297C54.545 47.3282 54.5444 47.3273 54.5445 47.3273C54.5445 47.3272 54.545 47.328 54.5461 47.3297Z" fill="#553322"/>
<path opacity="0.3" fill-rule="evenodd" clip-rule="evenodd" d="M43.3043 42.7324C43.4986 42.6915 43.6893 42.8158 43.7302 43.0102C44.1623 45.0624 44.9065 50.045 44.3795 53.4705C44.2214 54.4978 44.2482 55.2104 44.3525 55.6231C44.3964 55.7967 44.4469 55.889 44.4795 55.9314C44.5147 55.9047 44.5753 55.845 44.6509 55.7218C44.7504 55.5596 44.8552 55.3203 44.9502 54.995C45.1399 54.3454 45.2788 53.3923 45.2788 52.1244V44.3757C45.2788 44.1771 45.4398 44.0161 45.6384 44.0161C45.837 44.0161 45.998 44.1771 45.998 44.3757V52.1244C45.998 53.4394 45.8544 54.4639 45.6405 55.1965C45.5337 55.5623 45.4065 55.8653 45.2639 56.0978C45.1264 56.322 44.9503 56.5203 44.7274 56.6131C44.6096 56.6622 44.4778 56.6817 44.3425 56.6548C44.2083 56.6281 44.0949 56.5608 44.0043 56.4753C43.8314 56.312 43.723 56.0673 43.6553 55.7993C43.5174 55.2535 43.5039 54.4324 43.6687 53.3612C44.1749 50.0711 43.4555 45.1957 43.0265 43.1583C42.9856 42.964 43.11 42.7733 43.3043 42.7324Z" fill="#553322"/>
<path fill-rule="evenodd" clip-rule="evenodd" d="M18.8423 37.917C18.8423 38.6741 18.8678 39.5699 18.9136 40.5628C19.1801 46.3438 20.1365 55.4147 20.7794 59.5476L45.3156 66.973L50.1582 67.6187V44.051L18.8423 37.917ZM21.5244 41.0742C21.7856 46.0488 22.5127 53.2211 23.1005 57.5516L45.8639 64.4405L47.5755 64.6687V46.177L21.5244 41.0742Z" fill="#FFB760"/>
<path fill-rule="evenodd" clip-rule="evenodd" d="M18.3853 37.3621C18.5512 37.2255 18.7696 37.1703 18.9805 37.2117L50.2964 43.3457C50.6339 43.4118 50.8773 43.7075 50.8773 44.0514V67.619C50.8773 67.8263 50.7878 68.0235 50.6319 68.1601C50.4759 68.2966 50.2686 68.3592 50.0631 68.3319L45.2205 67.6862C45.1821 67.681 45.1443 67.6728 45.1072 67.6616L20.5711 60.2362C20.3065 60.1562 20.1113 59.9316 20.0688 59.6585C19.4219 55.5 18.4629 46.4033 18.1951 40.5963C18.1491 39.5968 18.1232 38.6892 18.1232 37.9174C18.1232 37.7024 18.2193 37.4987 18.3853 37.3621ZM20.7794 59.5479C20.1365 55.4151 19.18 46.3442 18.9135 40.5631C18.8817 39.8746 18.8598 39.2328 18.8493 38.6515C18.8447 38.3946 18.8423 38.1495 18.8423 37.9174L50.1582 44.0514V67.619L45.3155 66.9734L20.7794 59.5479ZM23.7518 56.9977L46.0165 63.7357L46.8563 63.8477V46.7693L22.2946 41.9582C22.5788 46.6635 23.2138 52.9214 23.7518 56.9977ZM21.5656 41.8154C21.8559 46.7402 22.5412 53.4321 23.1004 57.5519L45.8638 64.4408L47.5754 64.6691V46.1773L21.5243 41.0745C21.537 41.3165 21.5508 41.5637 21.5656 41.8154Z" fill="black"/>
<path fill-rule="evenodd" clip-rule="evenodd" d="M52.7413 45.8688V63.4851L61.4891 59.2179C62.6557 56.7358 63.4701 52.9836 63.9808 48.9712C64.3112 46.3749 64.4997 43.8011 64.5973 41.6186L52.7413 45.8688ZM50.1585 44.051V67.6187L63.3951 61.1618C66.1387 56.2233 67.0171 46.6215 67.219 40.6787C67.2547 39.6286 67.2693 38.6927 67.2693 37.917L50.1585 44.051Z" fill="#E4912C"/>
<path fill-rule="evenodd" clip-rule="evenodd" d="M49.4393 44.0514C49.4393 43.7478 49.63 43.4769 49.9158 43.3745L67.0265 37.2404C67.2468 37.1615 67.4917 37.1946 67.6831 37.3293C67.8744 37.464 67.9883 37.6834 67.9883 37.9174C67.9883 38.7017 67.9736 39.6458 67.9377 40.7035C67.8361 43.6935 67.5643 47.6103 66.9706 51.4083C66.3801 55.1867 65.4598 58.9265 64.0237 61.5114C63.9521 61.6402 63.8428 61.7439 63.7103 61.8085L50.4737 68.2654C50.2509 68.3741 49.9877 68.3603 49.7774 68.2289C49.5671 68.0975 49.4393 67.867 49.4393 67.619V44.0514ZM52.7412 63.4855L61.4891 59.2182C62.6556 56.7362 63.47 52.9839 63.9807 48.9715C64.2727 46.6775 64.4538 44.401 64.5594 42.3964C64.5733 42.1324 64.5858 41.873 64.5972 41.6189L52.7412 45.8692V63.4855ZM53.4603 62.3346L60.9425 58.6847C62.0054 56.3057 62.7749 52.7503 63.2673 48.8808C63.5422 46.7214 63.7181 44.5754 63.8249 42.6597L53.4603 46.3753V62.3346ZM67.2648 38.6829C67.2581 39.2838 67.2436 39.9542 67.219 40.6791C67.017 46.6219 66.1387 56.2236 63.3951 61.1622L50.1584 67.619V44.0514L67.2692 37.9174C67.2692 38.1576 67.2678 38.4132 67.2648 38.6829Z" fill="black"/>
<path fill-rule="evenodd" clip-rule="evenodd" d="M66.9461 37.9164C67.4315 37.8455 68.0864 37.6666 68.8305 37.3337C71.3123 36.2235 74.7855 33.3999 76.2658 27.1549C77.7411 18.1021 74.4572 14.4651 71.6769 12.8799C71.0577 12.5268 70.4635 12.2755 69.9525 12.0889L66.9461 37.9164ZM69.0876 35.1245C70.9907 33.9536 73.3567 31.5291 74.4973 26.785C75.3292 21.6092 74.4618 18.6243 73.3317 16.8706C72.778 16.0114 72.1162 15.3769 71.4418 14.9L69.0876 35.1245Z" fill="#E4912C"/>
<path fill-rule="evenodd" clip-rule="evenodd" d="M66.445 38.4336C66.2847 38.2779 66.2059 38.0566 66.2317 37.8346L69.238 12.0071C69.2635 11.7884 69.3877 11.5935 69.575 11.478C69.7624 11.3626 69.9923 11.3392 70.1991 11.4147C70.7366 11.6111 71.3697 11.8783 72.033 12.2565C73.5291 13.1096 75.1673 14.5217 76.2254 16.9291C77.28 19.3284 77.7288 22.6491 76.9754 27.2719C76.9727 27.2888 76.9693 27.3055 76.9654 27.3221C75.4319 33.7918 71.8036 36.7927 69.124 37.9915C68.3273 38.3479 67.6087 38.5477 67.05 38.6293C66.8288 38.6616 66.6053 38.5893 66.445 38.4336ZM76.2657 27.1563C74.7854 33.4013 71.3122 36.2248 68.8304 37.3351C68.418 37.5196 68.0329 37.6568 67.689 37.7545C67.4124 37.8331 67.1623 37.8861 66.946 37.9178L69.9523 12.0902C70.1695 12.1695 70.4016 12.2605 70.6442 12.3659C70.9728 12.5088 71.3207 12.6782 71.6768 12.8812C74.457 14.4665 77.7409 18.1035 76.2657 27.1563ZM74.4972 26.7863C75.3291 21.6106 74.4617 18.6256 73.3316 16.872C72.9613 16.2973 72.5426 15.8232 72.1042 15.4295C71.887 15.2345 71.6651 15.0593 71.4417 14.9013L69.0875 35.1258C69.3429 34.9687 69.6066 34.789 69.8745 34.5842C71.6035 33.2625 73.5096 30.8938 74.4972 26.7863ZM69.9947 33.5516C71.4369 32.261 72.9503 30.1228 73.7916 26.6449C74.5966 21.6073 73.7332 18.8227 72.7271 17.2615C72.5016 16.9116 72.2565 16.6034 71.9993 16.3308L69.9947 33.5516Z" fill="black"/>
<path d="M26.8953 66.249C23.3857 66.249 20.5407 64.9374 20.5407 63.3195C20.5407 62.5211 20.5407 60.7418 20.5407 60.7418C21.694 60.1993 25.1175 60.3899 26.8953 60.3899C28.6731 60.3899 32.0964 60.1993 33.2498 60.7418C33.2498 60.7418 33.2499 62.5211 33.2499 63.3195C33.2499 64.9374 30.4048 66.249 26.8953 66.249Z" fill="#D99530"/>
<path fill-rule="evenodd" clip-rule="evenodd" d="M33.6094 60.7428L33.6094 60.5146L33.4029 60.4175C33.0589 60.2557 32.5798 60.1611 32.0612 60.1018C31.5337 60.0415 30.929 60.0141 30.3127 60.004C29.5512 59.9914 28.7438 60.0053 28.0348 60.0174C27.6091 60.0247 27.2188 60.0314 26.8953 60.0314C26.5718 60.0314 26.1816 60.0247 25.7559 60.0174C25.0469 60.0053 24.2395 59.9914 23.4779 60.004C22.8616 60.0141 22.2569 60.0415 21.7293 60.1018C21.2107 60.1611 20.7316 60.2557 20.3877 60.4175L20.1812 60.5146L20.1812 63.3205C20.1812 64.3545 21.0751 65.1763 22.2514 65.7186C23.4584 66.2751 25.1007 66.6097 26.8953 66.6097C28.69 66.6097 30.3322 66.2751 31.5393 65.7186C32.7156 65.1763 33.6095 64.3545 33.6095 63.3205L33.6094 60.7428ZM32.8903 60.9893C32.6617 60.9172 32.3545 60.8591 31.9795 60.8163C31.4853 60.7597 30.9068 60.733 30.3008 60.723C29.5439 60.7105 28.7723 60.7239 28.0771 60.7361C27.6466 60.7435 27.2455 60.7505 26.8953 60.7505C26.5452 60.7505 26.144 60.7435 25.7135 60.7361C25.0184 60.7239 24.2467 60.7105 23.4898 60.723C22.8838 60.733 22.3053 60.7597 21.811 60.8163C21.4361 60.8591 21.1288 60.9172 20.9003 60.9893L20.9003 63.3205C20.9003 63.9045 21.4289 64.5476 22.5525 65.0655C23.6454 65.5694 25.1804 65.8906 26.8953 65.8906C28.6102 65.8906 30.1453 65.5694 31.2382 65.0655C32.3617 64.5476 32.8904 63.9045 32.8904 63.3205L32.8903 60.9893Z" fill="black"/>
<path d="M26.8948 63.6355C23.3852 63.6355 20.5402 62.3239 20.5402 60.7059C20.5402 59.088 23.3852 57.7764 26.8948 57.7764C30.4043 57.7764 33.2494 59.088 33.2494 60.7059C33.2494 62.3239 30.4043 63.6355 26.8948 63.6355Z" fill="#FFFF52"/>
<path fill-rule="evenodd" clip-rule="evenodd" d="M31.2376 58.9611C30.1448 58.4573 28.6097 58.1361 26.8948 58.1361C25.1799 58.1361 23.6448 58.4573 22.5519 58.9611C21.4284 59.4791 20.8997 60.1221 20.8997 60.7061C20.8997 61.2901 21.4284 61.9331 22.5519 62.4511C23.6448 62.955 25.1799 63.2761 26.8948 63.2761C28.6097 63.2761 30.1448 62.955 31.2376 62.4511C32.3612 61.9331 32.8898 61.2901 32.8898 60.7061C32.8898 60.1221 32.3612 59.4791 31.2376 58.9611ZM31.5387 58.3081C32.7151 58.8504 33.6089 59.6721 33.6089 60.7061C33.6089 61.7401 32.7151 62.5619 31.5387 63.1042C30.3317 63.6606 28.6894 63.9953 26.8948 63.9953C25.1001 63.9953 23.4579 63.6606 22.2509 63.1042C21.0745 62.5619 20.1806 61.7401 20.1806 60.7061C20.1806 59.6721 21.0745 58.8504 22.2509 58.3081C23.4579 57.7516 25.1001 57.417 26.8948 57.417C28.6894 57.417 30.3317 57.7516 31.5387 58.3081Z" fill="black"/>
<path d="M21.1189 64.7186C18.6704 67.2287 15.0576 67.6756 13.0495 65.7168C11.0414 63.7579 11.3985 60.1351 13.847 57.625C16.2956 55.1149 19.9084 54.668 21.9165 56.6269C23.9246 58.5857 23.5675 62.2085 21.1189 64.7186Z" fill="#D99530"/>
<path fill-rule="evenodd" clip-rule="evenodd" d="M21.6654 56.8839C19.8501 55.1131 16.4695 55.4512 14.1044 57.8758C11.7394 60.3003 11.4853 63.6883 13.3006 65.4591C15.1159 67.2299 18.4965 66.8917 20.8616 64.4672C23.2267 62.0427 23.4807 58.6547 21.6654 56.8839ZM13.5897 57.3736C16.1217 54.7779 19.9667 54.2223 22.1676 56.3692C24.3684 58.516 23.9084 62.3737 21.3764 64.9694C18.8443 67.565 14.9993 68.1207 12.7984 65.9738C10.5976 63.8269 11.0576 59.9693 13.5897 57.3736Z" fill="black"/>
<path d="M19.3017 62.9453C16.8531 65.4554 13.4447 66.1016 11.6887 64.3887C9.93268 62.6758 10.4941 59.2523 12.9427 56.7422C15.3912 54.2321 18.7997 53.5859 20.5557 55.2988C22.3117 57.0117 21.7502 60.4352 19.3017 62.9453Z" fill="#FFFF52"/>
<path fill-rule="evenodd" clip-rule="evenodd" d="M17.0759 54.7888C15.7791 55.0347 14.3792 55.7832 13.2001 56.992C12.021 58.2007 11.3074 59.6188 11.0938 60.9213C10.88 62.2252 11.1689 63.378 11.9398 64.13C12.7107 64.882 13.8703 65.1422 15.1685 64.8961C16.4653 64.6502 17.8652 63.9017 19.0443 62.6929C20.2234 61.4841 20.937 60.0661 21.1506 58.7636C21.3644 57.4597 21.0755 56.3069 20.3046 55.5549C19.5337 54.8029 18.3741 54.5427 17.0759 54.7888ZM16.9419 54.0823C18.3991 53.806 19.8217 54.0792 20.8068 55.0401C21.7919 56.0011 22.1002 57.4164 21.8602 58.88C21.62 60.3449 20.8285 61.8937 19.5591 63.195C18.2896 64.4964 16.761 65.326 15.3025 65.6026C13.8453 65.8789 12.4227 65.6057 11.4376 64.6448C10.4525 63.6838 10.1442 62.2685 10.3842 60.8049C10.6244 59.3399 11.4159 57.7912 12.6853 56.4898C13.9547 55.1885 15.4834 54.3588 16.9419 54.0823Z" fill="black"/>
<path d="M46.8901 33.6328L38.7028 32.0977C38.7028 36.1913 39.3168 45.095 39.7262 47.9606" stroke="url(#paint0_radial_24945_16540)" stroke-linecap="round" stroke-linejoin="round"/>
<path fill-rule="evenodd" clip-rule="evenodd" d="M61.1342 37.2721L66.6226 38.2406L69.8516 11.7674L38.8585 10.7988L33.6927 33.3979L61.1342 37.2721ZM36.8368 31.2334L61.4953 34.7147C61.5246 34.7188 61.5539 34.7235 61.583 34.7286L64.3886 35.2237L66.9456 14.2606L40.9026 13.4467L36.8368 31.2334Z" fill="#FFB760"/>
<path fill-rule="evenodd" clip-rule="evenodd" d="M61.1343 37.2715L33.6928 33.3973L38.8585 10.7982L69.8516 11.7668L66.6226 38.24L61.1343 37.2715ZM61.0215 37.9818L66.4976 38.9482C66.692 38.9825 66.8919 38.9354 67.0506 38.8179C67.2092 38.7005 67.3125 38.523 67.3364 38.3271L70.5655 11.8538C70.5899 11.6533 70.5289 11.4518 70.3974 11.2985C70.2659 11.1452 70.076 11.0543 69.8741 11.048L38.881 10.0795C38.5373 10.0687 38.2341 10.3028 38.1575 10.638L32.9917 33.2371C32.9469 33.4333 32.9863 33.6393 33.1004 33.8051C33.2146 33.9709 33.3929 34.0812 33.5922 34.1094L61.0215 37.9818ZM61.5831 34.728C61.5539 34.7228 61.5247 34.7182 61.4953 34.7141L36.8369 31.2328L40.9026 13.4461L66.9456 14.26L64.3887 35.2231L61.5831 34.728ZM63.7667 34.3831L61.7081 34.0198C61.6708 34.0132 61.6334 34.0073 61.5958 34.002L37.7123 30.6302L41.4718 14.1834L66.1365 14.9541L63.7667 34.3831Z" fill="black"/>
<path d="M36.2763 42.1131L31.4334 41.1445L30.1419 42.1131V45.0189L34.662 46.3103L36.2763 45.0189V42.1131Z" fill="#797979"/>
<path fill-rule="evenodd" clip-rule="evenodd" d="M31.0019 40.5696C31.1656 40.4469 31.3738 40.3996 31.5744 40.4398L36.4173 41.4083C36.7535 41.4756 36.9954 41.7707 36.9954 42.1135V45.0193C36.9954 45.2377 36.8961 45.4443 36.7255 45.5808L35.1112 46.8722C34.9294 47.0177 34.6883 47.0661 34.4644 47.0021L29.9444 45.7107C29.6356 45.6225 29.4228 45.3403 29.4228 45.0193V42.1135C29.4228 41.8871 29.5294 41.674 29.7104 41.5382L31.0019 40.5696ZM31.4334 41.1449L36.2763 42.1135V45.0193L34.662 46.3107L30.1419 45.0193V42.1135L31.4334 41.1449Z" fill="black"/>
<path d="M36.2758 42.1133L34.6614 43.0819V46.3105L36.2758 45.019V42.1133Z" fill="#BDBDBD"/>
<path d="M30.5154 42.3311L34.6091 43.3545M34.6091 43.3545L36.1442 42.3311M34.6091 43.3545V46.4247" stroke="url(#paint1_radial_24945_16540)" stroke-linecap="round" stroke-linejoin="round"/>
<path fill-rule="evenodd" clip-rule="evenodd" d="M43.2127 38.4344C43.2126 38.4344 43.2125 38.4343 43.2124 38.4341L43.2042 38.4199C43.1922 38.3992 43.199 38.3727 43.2194 38.3602L69.6862 22.1694C70.1913 21.8603 70.3188 21.1825 69.9603 20.7111L67.3136 17.2302C66.9552 16.7588 66.2679 16.7005 65.8351 17.1047L45.1237 36.4463C44.4487 37.0767 43.353 36.5334 43.4462 35.6146L46.3389 7.10093C46.3987 6.51176 45.9362 6 45.344 6H40.9712C40.379 6 39.9166 6.51176 39.9763 7.10093L43.141 38.2958C43.1412 38.297 43.1407 38.2982 43.1398 38.299C43.138 38.3007 43.1351 38.3003 43.1338 38.2981L43.0977 38.2357C43.0957 38.2321 43.094 38.2284 43.0927 38.2245L33.2906 8.93105C33.1026 8.36946 32.4706 8.09329 31.9308 8.33693L27.9452 10.136C27.4055 10.3796 27.1945 11.0363 27.4914 11.5487L42.7875 37.95C42.8528 38.0626 42.7835 38.2055 42.6546 38.224C42.626 38.2281 42.5969 38.2254 42.5695 38.2161L13.3716 28.3062C12.8108 28.1159 12.2084 28.4519 12.0757 29.029L11.0954 33.2905C10.9626 33.8676 11.3577 34.433 11.9452 34.5069L34.7463 37.3719C35.9033 37.5173 35.9177 39.1887 34.7634 39.354L11.7936 42.6431C11.2074 42.7271 10.8221 43.2992 10.9648 43.874L12.0184 48.118C12.1611 48.6927 12.7692 49.0182 13.3266 48.8183L42.3342 38.4123C42.4522 38.3699 42.5785 38.356 42.7029 38.3716L42.9626 38.4043C42.9684 38.405 42.9739 38.4077 42.9781 38.4118L42.9855 38.4192C42.9923 38.4259 42.9922 38.4369 42.9852 38.4434L42.9624 38.4647C42.9609 38.4661 42.9585 38.4651 42.9584 38.4631C42.9583 38.4603 42.9542 38.4601 42.9538 38.4629L42.9522 38.4732C42.9521 38.474 42.9517 38.4747 42.9511 38.4752L42.9005 38.5225C42.888 38.5341 42.903 38.5538 42.9175 38.5449C42.9277 38.5386 42.9406 38.5472 42.9388 38.5591L42.856 39.0897C42.8499 39.1283 42.8354 39.1651 42.8134 39.1974L25.4349 64.652C25.101 65.1411 25.2628 65.8116 25.7831 66.0944L29.625 68.1829C30.1452 68.4657 30.796 68.237 31.0249 67.6908L39.586 47.2615C40.0425 46.1723 41.6784 46.6353 41.4963 47.8022L38.0974 69.5827C38.0061 70.1678 38.4404 70.7036 39.0317 70.7354L43.3982 70.9702C43.9896 71.0019 44.4788 70.5157 44.4508 69.9242L42.9923 39.1763C42.9911 39.1508 42.9955 39.1255 43.0054 39.102C43.0665 38.9561 43.2758 38.964 43.3258 39.114L52.9092 67.8741C53.0964 68.436 53.7281 68.7129 54.2681 68.47L58.256 66.6759C58.796 66.433 59.0078 65.7765 58.7116 65.2637L47.2159 45.3643C46.6326 44.3546 47.9556 43.3331 48.7849 44.153L65.2864 60.468C65.7075 60.8844 66.3962 60.8456 66.7679 60.3846L69.5128 56.9807C69.8845 56.5197 69.7764 55.8384 69.2803 55.5151L45.5372 40.0437C44.7634 39.5396 45.0282 38.3456 45.9426 38.2158L74.3184 34.189C74.9047 34.1058 75.2907 33.5342 75.1488 32.9592L74.1005 28.7139C73.9586 28.139 73.3509 27.8127 72.7932 28.012L43.3214 38.5426C43.2992 38.5506 43.2744 38.5415 43.2626 38.521L43.2138 38.4366C43.2136 38.4362 43.2139 38.4358 43.2143 38.4359C43.2148 38.436 43.215 38.4352 43.2145 38.435L43.2127 38.4344ZM42.9555 38.2399C42.9415 38.2156 42.9121 38.2049 42.8858 38.2144L42.793 38.2476C42.7721 38.2552 42.7723 38.2849 42.7934 38.2921L42.883 38.3225C42.8848 38.3231 42.8861 38.3209 42.8848 38.3196C42.8833 38.3181 42.8852 38.3157 42.887 38.3169L42.909 38.3312C42.9093 38.3314 42.9096 38.3315 42.9099 38.3316L42.915 38.3334C42.9559 38.3472 42.9921 38.303 42.9704 38.2657L42.9555 38.2399ZM43.1642 38.6835C43.1719 38.6723 43.1738 38.6581 43.1696 38.6453L43.1593 38.6145C43.1586 38.6124 43.1566 38.6112 43.1545 38.6115L43.1532 38.6117C43.1482 38.6124 43.1464 38.6052 43.1512 38.6034C43.1534 38.6027 43.1546 38.6003 43.1538 38.5981L43.1491 38.5839C43.1481 38.5809 43.1465 38.5783 43.1443 38.5761L43.0746 38.5073C43.0532 38.486 43.02 38.4822 42.9942 38.4979C42.9738 38.5105 42.9618 38.5331 42.9629 38.5571L42.9675 38.6551C42.972 38.7502 43.0949 38.785 43.1486 38.7063L43.1642 38.6835ZM54.8939 8.7013C55.111 8.15033 55.7567 7.90767 56.2829 8.17927L60.1687 10.1848C60.695 10.4564 60.8712 11.1232 60.5479 11.6194L48.7207 29.768C48.0629 30.7775 46.5108 29.9765 46.9525 28.8555L54.8939 8.7013ZM74.8155 42.8784C75.4024 42.9571 75.7928 43.5257 75.6552 44.1017L74.6397 48.355C74.5021 48.931 73.897 49.2619 73.3378 49.067L52.8832 41.9351C51.7454 41.5384 52.151 39.8396 53.3453 39.9998L74.8155 42.8784ZM20.0505 60.8649C19.6332 61.2851 18.9442 61.2525 18.5683 60.7948L15.7931 57.4155C15.4173 56.9579 15.5193 56.2757 16.0125 55.948L34.0552 43.9597C35.0587 43.2929 36.1672 44.6426 35.318 45.4974L20.0505 60.8649ZM16.8494 20.3278C16.3611 19.9927 16.2694 19.3091 16.652 18.8571L19.4776 15.5198C19.8603 15.0678 20.5497 15.0456 20.9607 15.4719L35.996 31.0666C36.8323 31.934 35.7038 33.267 34.7103 32.5852L16.8494 20.3278Z" fill="url(#paint2_radial_24945_16540)"/>
<path d="M55.1139 41.9412C52.4392 41.9412 50.2709 40.9416 50.2709 39.7086C50.2709 39.1001 50.2709 37.7441 50.2709 37.7441C51.1499 37.3307 53.759 37.4759 55.1139 37.4759C56.4687 37.4759 59.0777 37.3307 59.9567 37.7441C59.9567 37.7441 59.9568 39.1001 59.9568 39.7086C59.9568 40.9416 57.7885 41.9412 55.1139 41.9412Z" fill="#D99530"/>
<path fill-rule="evenodd" clip-rule="evenodd" d="M59.5972 37.9949C59.4382 37.9505 59.2309 37.913 58.9789 37.8841C58.6061 37.8415 58.1684 37.8212 57.7078 37.8136C57.1315 37.8041 56.5475 37.8143 56.0194 37.8235C55.6909 37.8292 55.3839 37.8346 55.1139 37.8346C54.8438 37.8346 54.5368 37.8292 54.2083 37.8235C53.6802 37.8143 53.0962 37.8041 52.5198 37.8136C52.0593 37.8212 51.6215 37.8415 51.2488 37.8841C50.9967 37.913 50.7895 37.9505 50.6305 37.9949L50.6305 39.7077C50.6305 40.0993 50.9899 40.5681 51.8399 40.9599C52.6592 41.3376 53.8164 41.5808 55.1139 41.5808C56.4113 41.5808 57.5685 41.3376 58.3878 40.9599C59.2378 40.5681 59.5972 40.0993 59.5972 39.7077L59.5972 37.9949ZM49.9114 37.7432L49.9114 37.515L50.1179 37.4179C50.3933 37.2883 50.77 37.2151 51.1671 37.1697C51.5731 37.1233 52.0371 37.1024 52.508 37.0946C53.0889 37.085 53.7086 37.0956 54.2506 37.1049C54.5744 37.1104 54.8704 37.1155 55.1139 37.1155C55.3573 37.1155 55.6533 37.1104 55.9771 37.1049C56.519 37.0956 57.1387 37.085 57.7197 37.0946C58.1906 37.1024 58.6546 37.1233 59.0606 37.1697C59.4576 37.2151 59.8344 37.2883 60.1097 37.4179L60.3162 37.515L60.3163 37.7432L60.3163 39.7077C60.3163 40.5493 59.5917 41.1968 58.6889 41.613C57.7554 42.0433 56.4911 42.2999 55.1139 42.2999C53.7366 42.2999 52.4723 42.0433 51.5388 41.613C50.636 41.1968 49.9114 40.5493 49.9114 39.7077L49.9114 37.7432Z" fill="black"/>
<path d="M55.1133 39.9487C52.4386 39.9487 50.2704 38.9491 50.2704 37.7161C50.2704 36.483 52.4386 35.4834 55.1133 35.4834C57.788 35.4834 59.9562 36.483 59.9562 37.7161C59.9562 38.9491 57.788 39.9487 55.1133 39.9487Z" fill="#FFFF52"/>
<path fill-rule="evenodd" clip-rule="evenodd" d="M58.387 36.464C57.5677 36.0863 56.4105 35.8431 55.1131 35.8431C53.8156 35.8431 52.6584 36.0863 51.8391 36.464C50.9891 36.8559 50.6297 37.3247 50.6297 37.7163C50.6297 38.1078 50.9891 38.5766 51.8391 38.9685C52.6584 39.3462 53.8156 39.5894 55.1131 39.5894C56.4105 39.5894 57.5677 39.3462 58.387 38.9685C59.237 38.5766 59.5964 38.1078 59.5964 37.7163C59.5964 37.3247 59.237 36.8559 58.387 36.464ZM58.6881 35.811C59.5909 36.2272 60.3156 36.8747 60.3156 37.7163C60.3156 38.5578 59.5909 39.2053 58.6881 39.6215C57.7546 40.0519 56.4903 40.3085 55.1131 40.3085C53.7358 40.3085 52.4715 40.0519 51.538 39.6215C50.6353 39.2053 49.9106 38.5578 49.9106 37.7163C49.9106 36.8747 50.6353 36.2272 51.538 35.811C52.4715 35.3806 53.7358 35.124 55.1131 35.124C56.4903 35.124 57.7546 35.3806 58.6881 35.811Z" fill="black"/>
<path d="M53.0164 37.2713C50.3418 37.2713 48.1735 36.2717 48.1735 35.0387C48.1735 34.4302 48.1735 33.0742 48.1735 33.0742C49.0525 32.6607 51.6616 32.806 53.0164 32.806C54.3713 32.806 56.9803 32.6607 57.8593 33.0742C57.8593 33.0742 57.8594 34.4302 57.8594 35.0387C57.8594 36.2717 55.6911 37.2713 53.0164 37.2713Z" fill="#D99530"/>
<path fill-rule="evenodd" clip-rule="evenodd" d="M57.4998 33.3259C57.3408 33.2815 57.1336 33.244 56.8815 33.2152C56.5088 33.1726 56.071 33.1523 55.6105 33.1447C55.0341 33.1352 54.4502 33.1454 53.9221 33.1546C53.5935 33.1603 53.2865 33.1657 53.0165 33.1657C52.7465 33.1657 52.4395 33.1603 52.1109 33.1546C51.5828 33.1454 50.9988 33.1352 50.4225 33.1447C49.9619 33.1523 49.5241 33.1726 49.1514 33.2152C48.8994 33.244 48.6921 33.2815 48.5331 33.3259L48.5331 35.0388C48.5331 35.4303 48.8926 35.8991 49.7426 36.291C50.5619 36.6687 51.719 36.9119 53.0165 36.9119C54.314 36.9119 55.4711 36.6687 56.2904 36.291C57.1404 35.8991 57.4999 35.4303 57.4999 35.0388L57.4998 33.3259ZM47.814 33.0743L47.814 32.846L48.0205 32.7489C48.2959 32.6194 48.6726 32.5461 49.0697 32.5007C49.4757 32.4543 49.9397 32.4334 50.4106 32.4257C50.9916 32.4161 51.6113 32.4267 52.1532 32.4359C52.477 32.4415 52.7731 32.4465 53.0165 32.4465C53.2599 32.4465 53.556 32.4415 53.8798 32.4359C54.4217 32.4267 55.0414 32.4161 55.6223 32.4256C56.0932 32.4334 56.5572 32.4543 56.9632 32.5007C57.3603 32.5461 57.737 32.6194 58.0124 32.7489L58.2189 32.846L58.2189 33.0743L58.219 35.0388C58.219 35.8803 57.4943 36.5278 56.5915 36.944C55.658 37.3744 54.3937 37.631 53.0165 37.631C51.6393 37.631 50.375 37.3744 49.4415 36.944C48.5387 36.5278 47.814 35.8803 47.814 35.0388L47.814 33.0743Z" fill="black"/>
<path d="M53.016 35.2788C50.3413 35.2788 48.173 34.2792 48.173 33.0461C48.173 31.8131 50.3413 30.8135 53.016 30.8135C55.6906 30.8135 57.8589 31.8131 57.8589 33.0461C57.8589 34.2792 55.6906 35.2788 53.016 35.2788Z" fill="#FFFF52"/>
<path fill-rule="evenodd" clip-rule="evenodd" d="M56.2896 31.7941C55.4703 31.4164 54.3131 31.1732 53.0156 31.1732C51.7182 31.1732 50.561 31.4164 49.7417 31.7941C48.8917 32.186 48.5323 32.6548 48.5323 33.0463C48.5323 33.4379 48.8917 33.9067 49.7417 34.2985C50.561 34.6763 51.7182 34.9194 53.0156 34.9194C54.3131 34.9194 55.4703 34.6763 56.2896 34.2985C57.1396 33.9067 57.499 33.4379 57.499 33.0463C57.499 32.6548 57.1396 32.186 56.2896 31.7941ZM56.5907 31.1411C57.4934 31.5573 58.2181 32.2048 58.2181 33.0463C58.2181 33.8879 57.4934 34.5354 56.5907 34.9516C55.6572 35.3819 54.3929 35.6386 53.0156 35.6386C51.6384 35.6386 50.3741 35.3819 49.4406 34.9516C48.5378 34.5354 47.8132 33.8879 47.8132 33.0463C47.8132 32.2048 48.5378 31.5573 49.4406 31.1411C50.3741 30.7107 51.6384 30.4541 53.0156 30.4541C54.3929 30.4541 55.6572 30.7107 56.5907 31.1411Z" fill="black"/>
<path d="M46.5596 43.0809C43.8849 43.0809 41.7167 42.0813 41.7167 40.8482C41.7167 40.2398 41.7167 38.8837 41.7167 38.8837C42.5956 38.4703 45.2047 38.6156 46.5596 38.6156C47.9145 38.6156 50.5235 38.4703 51.4024 38.8837C51.4024 38.8837 51.4025 40.2398 51.4025 40.8482C51.4025 42.0813 49.2343 43.0809 46.5596 43.0809Z" fill="#D99530"/>
<path fill-rule="evenodd" clip-rule="evenodd" d="M51.0429 39.1355C50.8839 39.0911 50.6766 39.0536 50.4246 39.0248C50.0519 38.9821 49.6141 38.9618 49.1536 38.9542C48.5772 38.9447 47.9933 38.9549 47.4652 38.9641C47.1366 38.9699 46.8296 38.9752 46.5596 38.9752C46.2895 38.9752 45.9826 38.9699 45.654 38.9641C45.1259 38.9549 44.5419 38.9447 43.9656 38.9542C43.505 38.9618 43.0672 38.9821 42.6945 39.0248C42.4425 39.0536 42.2352 39.0911 42.0762 39.1355L42.0762 40.8483C42.0762 41.2399 42.4356 41.7087 43.2857 42.1005C44.105 42.4783 45.2621 42.7215 46.5596 42.7215C47.8571 42.7215 49.0142 42.4783 49.8335 42.1005C50.6835 41.7087 51.043 41.2399 51.043 40.8483L51.0429 39.1355ZM41.3571 38.8838L41.3571 38.6556L41.5636 38.5585C41.839 38.429 42.2157 38.3557 42.6128 38.3103C43.0188 38.2639 43.4828 38.243 43.9537 38.2352C44.5347 38.2256 45.1544 38.2362 45.6963 38.2455C46.0201 38.2511 46.3162 38.2561 46.5596 38.2561C46.803 38.2561 47.0991 38.251 47.4229 38.2455C47.9648 38.2362 48.5845 38.2256 49.1654 38.2352C49.6363 38.243 50.1003 38.2639 50.5063 38.3103C50.9034 38.3557 51.2801 38.429 51.5555 38.5585L51.762 38.6556L51.762 38.8838L51.7621 40.8483C51.7621 41.6899 51.0374 42.3374 50.1346 42.7536C49.2011 43.184 47.9368 43.4406 46.5596 43.4406C45.1824 43.4406 43.9181 43.184 42.9846 42.7536C42.0818 42.3374 41.3571 41.6899 41.3571 40.8483L41.3571 38.8838Z" fill="black"/>
<path d="M46.5594 41.0894C43.8847 41.0894 41.7165 40.0898 41.7165 38.8567C41.7165 37.6236 43.8847 36.624 46.5594 36.624C49.2341 36.624 51.4023 37.6236 51.4023 38.8567C51.4023 40.0898 49.2341 41.0894 46.5594 41.0894Z" fill="#FFFF52"/>
<path fill-rule="evenodd" clip-rule="evenodd" d="M49.8333 37.6037C49.014 37.226 47.8569 36.9828 46.5594 36.9828C45.2619 36.9828 44.1048 37.226 43.2855 37.6037C42.4355 37.9956 42.076 38.4644 42.076 38.8559C42.076 39.2474 42.4355 39.7162 43.2855 40.1081C44.1048 40.4858 45.2619 40.729 46.5594 40.729C47.8569 40.729 49.014 40.4858 49.8333 40.1081C50.6833 39.7162 51.0428 39.2474 51.0428 38.8559C51.0428 38.4644 50.6833 37.9956 49.8333 37.6037ZM50.1344 36.9506C51.0372 37.3668 51.7619 38.0144 51.7619 38.8559C51.7619 39.6974 51.0372 40.345 50.1344 40.7612C49.2009 41.1915 47.9366 41.4481 46.5594 41.4481C45.1822 41.4481 43.9179 41.1915 42.9844 40.7612C42.0816 40.345 41.3569 39.6974 41.3569 38.8559C41.3569 38.0144 42.0816 37.3668 42.9844 36.9506C43.9179 36.5203 45.1822 36.2637 46.5594 36.2637C47.9366 36.2637 49.2009 36.5203 50.1344 36.9506Z" fill="black"/>
<path d="M30.417 39.8553C27.7423 39.8553 25.5741 38.8557 25.5741 37.6226C25.5741 37.0142 25.5741 35.6581 25.5741 35.6581C26.453 35.2447 29.0621 35.39 30.417 35.39C31.7719 35.39 34.3809 35.2447 35.2599 35.6581C35.2599 35.6581 35.2599 37.0142 35.2599 37.6226C35.2599 38.8557 33.0917 39.8553 30.417 39.8553Z" fill="#D99530"/>
<path fill-rule="evenodd" clip-rule="evenodd" d="M34.9003 35.9099C34.7413 35.8655 34.534 35.828 34.282 35.7992C33.9092 35.7566 33.4715 35.7363 33.0109 35.7287C32.4346 35.7191 31.8506 35.7293 31.3225 35.7386C30.994 35.7443 30.687 35.7496 30.417 35.7496C30.1469 35.7496 29.8399 35.7443 29.5114 35.7386C28.9833 35.7293 28.3993 35.7191 27.8229 35.7287C27.3624 35.7363 26.9246 35.7566 26.5519 35.7992C26.2998 35.828 26.0926 35.8655 25.9336 35.9099L25.9336 37.6228C25.9336 38.0143 26.293 38.4831 27.143 38.875C27.9623 39.2527 29.1195 39.4959 30.417 39.4959C31.7144 39.4959 32.8716 39.2527 33.6909 38.875C34.5409 38.4831 34.9003 38.0143 34.9003 37.6228L34.9003 35.9099ZM25.2145 35.6583L25.2145 35.43L25.421 35.3329C25.6964 35.2034 26.0731 35.1301 26.4702 35.0847C26.8762 35.0383 27.3402 35.0174 27.8111 35.0096C28.392 35.0001 29.0117 35.0107 29.5537 35.0199C29.8775 35.0255 30.1735 35.0305 30.417 35.0305C30.6604 35.0305 30.9564 35.0255 31.2802 35.0199C31.8221 35.0107 32.4418 35.0001 33.0228 35.0096C33.4937 35.0174 33.9577 35.0383 34.3637 35.0847C34.7607 35.1301 35.1375 35.2034 35.4128 35.3329L35.6193 35.43L35.6194 35.6582L35.6194 37.6228C35.6194 38.4643 34.8948 39.1118 33.992 39.528C33.0585 39.9584 31.7942 40.215 30.417 40.215C29.0397 40.215 27.7754 39.9584 26.8419 39.528C25.9391 39.1118 25.2145 38.4643 25.2145 37.6228L25.2145 35.6583Z" fill="black"/>
<path d="M30.4173 37.8638C27.7426 37.8638 25.5743 36.8642 25.5743 35.6311C25.5743 34.398 27.7426 33.3984 30.4173 33.3984C33.0919 33.3984 35.2602 34.398 35.2602 35.6311C35.2602 36.8642 33.0919 37.8638 30.4173 37.8638Z" fill="#FFFF52"/>
<path fill-rule="evenodd" clip-rule="evenodd" d="M33.6912 34.3781C32.8719 34.0004 31.7147 33.7572 30.4173 33.7572C29.1198 33.7572 27.9626 34.0004 27.1433 34.3781C26.2933 34.77 25.9339 35.2388 25.9339 35.6303C25.9339 36.0218 26.2933 36.4907 27.1433 36.8825C27.9626 37.2602 29.1198 37.5034 30.4173 37.5034C31.7147 37.5034 32.8719 37.2602 33.6912 36.8825C34.5412 36.4907 34.9006 36.0218 34.9006 35.6303C34.9006 35.2388 34.5412 34.77 33.6912 34.3781ZM33.9923 33.725C34.8951 34.1413 35.6198 34.7888 35.6198 35.6303C35.6198 36.4718 34.8951 37.1194 33.9923 37.5356C33.0588 37.9659 31.7945 38.2225 30.4173 38.2225C29.04 38.2225 27.7757 37.9659 26.8422 37.5356C25.9395 37.1194 25.2148 36.4718 25.2148 35.6303C25.2148 34.7888 25.9395 34.1413 26.8422 33.725C27.7757 33.2947 29.04 33.0381 30.4173 33.0381C31.7945 33.0381 33.0588 33.2947 33.9923 33.725Z" fill="black"/>
<path d="M46.5596 39.2078C43.8849 39.2078 41.7167 38.2082 41.7167 36.9752C41.7167 36.3667 41.7167 35.0107 41.7167 35.0107C42.5956 34.5973 45.2047 34.7425 46.5596 34.7425C47.9145 34.7425 50.5235 34.5973 51.4024 35.0107C51.4024 35.0107 51.4025 36.3667 51.4025 36.9752C51.4025 38.2082 49.2343 39.2078 46.5596 39.2078Z" fill="#D99530"/>
<path fill-rule="evenodd" clip-rule="evenodd" d="M51.043 35.2625C50.884 35.2181 50.6767 35.1805 50.4247 35.1517C50.0519 35.1091 49.6142 35.0888 49.1536 35.0812C48.5773 35.0717 47.9933 35.0819 47.4652 35.0911C47.1367 35.0968 46.8297 35.1022 46.5597 35.1022C46.2896 35.1022 45.9826 35.0968 45.6541 35.0911C45.126 35.0819 44.542 35.0717 43.9656 35.0812C43.5051 35.0888 43.0673 35.1091 42.6946 35.1517C42.4425 35.1805 42.2353 35.2181 42.0763 35.2625L42.0763 36.9753C42.0763 37.3668 42.4357 37.8356 43.2857 38.2275C44.105 38.6052 45.2622 38.8484 46.5597 38.8484C47.8571 38.8484 49.0143 38.6052 49.8336 38.2275C50.6836 37.8356 51.043 37.3668 51.043 36.9753L51.043 35.2625ZM41.3572 35.0108L41.3572 34.7826L41.5637 34.6854C41.8391 34.5559 42.2158 34.4827 42.6129 34.4373C43.0189 34.3908 43.4829 34.3699 43.9538 34.3622C44.5347 34.3526 45.1544 34.3632 45.6964 34.3725C46.0202 34.378 46.3162 34.3831 46.5597 34.3831C46.8031 34.3831 47.0991 34.378 47.4229 34.3725C47.9648 34.3632 48.5845 34.3526 49.1655 34.3622C49.6364 34.3699 50.1004 34.3908 50.5064 34.4373C50.9034 34.4827 51.2802 34.5559 51.5555 34.6854L51.762 34.7826L51.7621 35.0108L51.7621 36.9753C51.7621 37.8168 51.0375 38.4644 50.1347 38.8806C49.2012 39.3109 47.9369 39.5675 46.5597 39.5675C45.1824 39.5675 43.9181 39.3109 42.9846 38.8806C42.0818 38.4644 41.3572 37.8168 41.3572 36.9753L41.3572 35.0108Z" fill="black"/>
<path d="M46.5595 37.2153C43.8848 37.2153 41.7165 36.2157 41.7165 34.9827C41.7165 33.7496 43.8848 32.75 46.5595 32.75C49.2341 32.75 51.4024 33.7496 51.4024 34.9827C51.4024 36.2157 49.2341 37.2153 46.5595 37.2153Z" fill="#FFFF52"/>
<path fill-rule="evenodd" clip-rule="evenodd" d="M49.8335 33.7306C49.0141 33.3529 47.857 33.1097 46.5595 33.1097C45.2621 33.1097 44.1049 33.3529 43.2856 33.7306C42.4356 34.1225 42.0762 34.5913 42.0762 34.9829C42.0762 35.3744 42.4356 35.8432 43.2856 36.2351C44.1049 36.6128 45.2621 36.856 46.5595 36.856C47.857 36.856 49.0141 36.6128 49.8335 36.2351C50.6835 35.8432 51.0429 35.3744 51.0429 34.9829C51.0429 34.5913 50.6835 34.1225 49.8335 33.7306ZM50.1345 33.0776C51.0373 33.4938 51.762 34.1413 51.762 34.9829C51.762 35.8244 51.0373 36.4719 50.1345 36.8881C49.2011 37.3185 47.9367 37.5751 46.5595 37.5751C45.1823 37.5751 43.918 37.3185 42.9845 36.8881C42.0817 36.4719 41.357 35.8244 41.357 34.9829C41.357 34.1413 42.0817 33.4938 42.9845 33.0776C43.918 32.6472 45.1823 32.3906 46.5595 32.3906C47.9367 32.3906 49.2011 32.6472 50.1345 33.0776Z" fill="black"/>
<path d="M32.354 36.6258C29.6793 36.6258 27.5111 35.6262 27.5111 34.3931C27.5111 33.7847 27.5111 32.4287 27.5111 32.4287C28.3901 32.0152 30.9991 32.1605 32.354 32.1605C33.7089 32.1605 36.3179 32.0152 37.1969 32.4287C37.1969 32.4287 37.197 33.7847 37.197 34.3931C37.197 35.6262 35.0287 36.6258 32.354 36.6258Z" fill="#D99530"/>
<path fill-rule="evenodd" clip-rule="evenodd" d="M36.8375 32.6804C36.6785 32.636 36.4712 32.5985 36.2192 32.5697C35.8464 32.5271 35.4087 32.5068 34.9481 32.4992C34.3718 32.4897 33.7878 32.4998 33.2597 32.5091C32.9312 32.5148 32.6242 32.5202 32.3541 32.5202C32.0841 32.5202 31.7771 32.5148 31.4486 32.5091C30.9204 32.4998 30.3365 32.4897 29.7601 32.4992C29.2996 32.5068 28.8618 32.5271 28.489 32.5697C28.237 32.5985 28.0297 32.636 27.8708 32.6804L27.8708 34.3933C27.8708 34.7848 28.2302 35.2536 29.0802 35.6455C29.8995 36.0232 31.0567 36.2664 32.3541 36.2664C33.6516 36.2664 34.8088 36.0232 35.6281 35.6455C36.4781 35.2536 36.8375 34.7848 36.8375 34.3933L36.8375 32.6804ZM27.1517 32.4288L27.1517 32.2005L27.3582 32.1034C27.6335 31.9739 28.0103 31.9006 28.4074 31.8552C28.8134 31.8088 29.2774 31.7879 29.7483 31.7801C30.3292 31.7706 30.9489 31.7812 31.4909 31.7904C31.8147 31.796 32.1107 31.801 32.3541 31.801C32.5976 31.801 32.8936 31.796 33.2174 31.7904C33.7593 31.7812 34.379 31.7706 34.96 31.7801C35.4309 31.7879 35.8949 31.8088 36.3009 31.8552C36.6979 31.9006 37.0747 31.9739 37.35 32.1034L37.5565 32.2005L37.5566 32.4287L37.5566 34.3933C37.5566 35.2348 36.8319 35.8823 35.9292 36.2985C34.9957 36.7289 33.7314 36.9855 32.3541 36.9855C30.9769 36.9855 29.7126 36.7289 28.7791 36.2985C27.8763 35.8823 27.1517 35.2348 27.1517 34.3933L27.1517 32.4288Z" fill="black"/>
<path d="M32.3544 34.6333C29.6797 34.6333 27.5115 33.6337 27.5115 32.4006C27.5115 31.1676 29.6797 30.168 32.3544 30.168C35.0291 30.168 37.1973 31.1676 37.1973 32.4006C37.1973 33.6337 35.0291 34.6333 32.3544 34.6333Z" fill="#FFFF52"/>
<path fill-rule="evenodd" clip-rule="evenodd" d="M35.6284 31.1486C34.8091 30.7709 33.6519 30.5277 32.3545 30.5277C31.057 30.5277 29.8998 30.7709 29.0805 31.1486C28.2305 31.5405 27.8711 32.0093 27.8711 32.4008C27.8711 32.7924 28.2305 33.2612 29.0805 33.653C29.8998 34.0307 31.057 34.2739 32.3545 34.2739C33.6519 34.2739 34.8091 34.0307 35.6284 33.653C36.4784 33.2612 36.8378 32.7924 36.8378 32.4008C36.8378 32.0093 36.4784 31.5405 35.6284 31.1486ZM35.9295 30.4956C36.8323 30.9118 37.5569 31.5593 37.5569 32.4008C37.5569 33.2424 36.8323 33.8899 35.9295 34.3061C34.996 34.7364 33.7317 34.993 32.3545 34.993C30.9772 34.993 29.7129 34.7364 28.7794 34.3061C27.8766 33.8899 27.152 33.2424 27.152 32.4008C27.152 31.5593 27.8766 30.9118 28.7794 30.4956C29.7129 30.0652 30.9772 29.8086 32.3545 29.8086C33.7317 29.8086 34.996 30.0652 35.9295 30.4956Z" fill="black"/>
<path d="M38.1658 32.7528C35.4911 32.7528 33.3229 31.7532 33.3229 30.5201C33.3229 29.9117 33.3229 28.5556 33.3229 28.5556C34.2018 28.1422 36.8109 28.2874 38.1658 28.2874C39.5207 28.2874 42.1297 28.1422 43.0086 28.5556C43.0086 28.5556 43.0087 29.9117 43.0087 30.5201C43.0087 31.7532 40.8405 32.7528 38.1658 32.7528Z" fill="#D99530"/>
<path fill-rule="evenodd" clip-rule="evenodd" d="M42.6491 28.8074C42.4901 28.763 42.2828 28.7255 42.0308 28.6966C41.6581 28.654 41.2203 28.6337 40.7598 28.6261C40.1834 28.6166 39.5995 28.6268 39.0714 28.636C38.7428 28.6417 38.4358 28.6471 38.1658 28.6471C37.8957 28.6471 37.5888 28.6417 37.2602 28.636C36.7321 28.6268 36.1481 28.6166 35.5718 28.6261C35.1112 28.6337 34.6734 28.654 34.3007 28.6966C34.0487 28.7255 33.8414 28.763 33.6824 28.8074L33.6824 30.5202C33.6824 30.9118 34.0418 31.3806 34.8919 31.7724C35.7112 32.1501 36.8683 32.3933 38.1658 32.3933C39.4633 32.3933 40.6204 32.1501 41.4397 31.7724C42.2897 31.3806 42.6492 30.9118 42.6492 30.5202L42.6491 28.8074ZM32.9633 28.5557L32.9633 28.3275L33.1698 28.2304C33.4452 28.1008 33.8219 28.0276 34.219 27.9822C34.625 27.9358 35.089 27.9149 35.5599 27.9071C36.1409 27.8975 36.7606 27.9081 37.3025 27.9174C37.6263 27.9229 37.9224 27.928 38.1658 27.928C38.4092 27.928 38.7053 27.9229 39.0291 27.9174C39.571 27.9081 40.1907 27.8975 40.7716 27.9071C41.2425 27.9149 41.7065 27.9358 42.1125 27.9822C42.5096 28.0276 42.8863 28.1008 43.1617 28.2304L43.3682 28.3275L43.3682 28.5557L43.3683 30.5202C43.3683 31.3618 42.6436 32.0093 41.7408 32.4255C40.8073 32.8558 39.543 33.1124 38.1658 33.1124C36.7886 33.1124 35.5243 32.8558 34.5908 32.4255C33.688 32.0093 32.9633 31.3618 32.9633 30.5202L32.9633 28.5557Z" fill="black"/>
<path d="M38.1656 30.7593C35.4909 30.7593 33.3227 29.7597 33.3227 28.5266C33.3227 27.2935 35.4909 26.2939 38.1656 26.2939C40.8403 26.2939 43.0085 27.2935 43.0085 28.5266C43.0085 29.7597 40.8403 30.7593 38.1656 30.7593Z" fill="#FFFF52"/>
<path fill-rule="evenodd" clip-rule="evenodd" d="M41.4396 27.2756C40.6203 26.8978 39.4631 26.6547 38.1657 26.6547C36.8682 26.6547 35.7111 26.8978 34.8917 27.2756C34.0417 27.6674 33.6823 28.1362 33.6823 28.5278C33.6823 28.9193 34.0417 29.3881 34.8917 29.78C35.7111 30.1577 36.8682 30.4009 38.1657 30.4009C39.4631 30.4009 40.6203 30.1577 41.4396 29.78C42.2896 29.3881 42.649 28.9193 42.649 28.5278C42.649 28.1362 42.2896 27.6674 41.4396 27.2756ZM41.7407 26.6225C42.6435 27.0387 43.3682 27.6862 43.3682 28.5278C43.3682 29.3693 42.6435 30.0168 41.7407 30.433C40.8072 30.8634 39.5429 31.12 38.1657 31.12C36.7885 31.12 35.5241 30.8634 34.5907 30.433C33.6879 30.0168 32.9632 29.3693 32.9632 28.5278C32.9632 27.6862 33.6879 27.0387 34.5907 26.6225C35.5241 26.1922 36.7885 25.9355 38.1657 25.9355C39.5429 25.9355 40.8072 26.1922 41.7407 26.6225Z" fill="black"/>
<path d="M41.5517 39.0953C40.4931 41.5516 38.042 42.8563 36.0769 42.0094C34.1119 41.1625 33.3771 38.4848 34.4357 36.0285C35.4943 33.5723 37.9454 32.2676 39.9105 33.1145C41.8755 33.9613 42.6103 36.6391 41.5517 39.0953Z" fill="#D99530"/>
<path fill-rule="evenodd" clip-rule="evenodd" d="M39.7683 33.4455C38.0506 32.7052 35.7773 33.8252 34.7661 36.1717C33.7548 38.5181 34.5017 40.9398 36.2194 41.68C37.9371 42.4203 40.2104 41.3003 41.2216 38.9539C42.2329 36.6074 41.486 34.1858 39.7683 33.4455ZM34.1057 35.8871C35.2116 33.321 37.8406 31.8316 40.0529 32.7851C42.2652 33.7386 42.9879 36.6724 41.882 39.2385C40.7761 41.8046 38.1471 43.2939 35.9348 42.3404C33.7224 41.387 32.9997 38.4531 34.1057 35.8871Z" fill="black"/>
<path d="M39.7729 38.3287C38.7143 40.785 36.2632 42.0897 34.2981 41.2428C32.3331 40.3959 31.5983 37.7182 32.6569 35.2619C33.7155 32.8057 36.1666 31.501 38.1317 32.3479C40.0967 33.1947 40.8315 35.8725 39.7729 38.3287Z" fill="#FFFF52"/>
<path fill-rule="evenodd" clip-rule="evenodd" d="M37.9894 32.6779C36.2717 31.9376 33.9985 33.0576 32.9872 35.4041C31.9759 37.7506 32.7228 40.1722 34.4405 40.9125C36.1582 41.6528 38.4315 40.5328 39.4428 38.1863C40.454 35.8398 39.7071 33.4182 37.9894 32.6779ZM32.3268 35.1195C33.4327 32.5534 36.0617 31.064 38.274 32.0175C40.4864 32.971 41.2091 35.9048 40.1032 38.4709C38.9972 41.037 36.3682 42.5263 34.1559 41.5729C31.9436 40.6194 31.2209 37.6855 32.3268 35.1195Z" fill="black"/>
<path d="M44.6226 35.3338C41.9479 35.3338 39.7796 34.3342 39.7796 33.1012C39.7796 32.4927 39.7796 31.1367 39.7796 31.1367C40.6586 30.7232 43.2677 30.8685 44.6226 30.8685C45.9775 30.8685 48.5865 30.7232 49.4654 31.1367C49.4654 31.1367 49.4655 32.4927 49.4655 33.1012C49.4655 34.3342 47.2973 35.3338 44.6226 35.3338Z" fill="#D99530"/>
<path fill-rule="evenodd" clip-rule="evenodd" d="M49.1059 31.3884C48.9469 31.344 48.7396 31.3065 48.4876 31.2777C48.1149 31.2351 47.6771 31.2148 47.2165 31.2072C46.6402 31.1977 46.0563 31.2079 45.5282 31.2171C45.1996 31.2228 44.8926 31.2282 44.6226 31.2282C44.3525 31.2282 44.0456 31.2228 43.717 31.2171C43.1889 31.2079 42.6049 31.1977 42.0286 31.2072C41.568 31.2148 41.1302 31.2351 40.7575 31.2777C40.5055 31.3065 40.2982 31.344 40.1392 31.3884L40.1392 33.1013C40.1392 33.4928 40.4986 33.9616 41.3486 34.3535C42.168 34.7312 43.3251 34.9744 44.6226 34.9744C45.92 34.9744 47.0772 34.7312 47.8965 34.3535C48.7465 33.9616 49.106 33.4928 49.106 33.1013L49.1059 31.3884ZM39.4201 31.1368L39.4201 30.9085L39.6266 30.8114C39.902 30.6819 40.2787 30.6086 40.6758 30.5632C41.0818 30.5168 41.5458 30.4959 42.0167 30.4882C42.5977 30.4786 43.2174 30.4892 43.7593 30.4984C44.0831 30.504 44.3792 30.509 44.6226 30.509C44.866 30.509 45.162 30.504 45.4858 30.4984C46.0278 30.4892 46.6475 30.4786 47.2284 30.4881C47.6993 30.4959 48.1633 30.5168 48.5693 30.5632C48.9664 30.6086 49.3431 30.6819 49.6185 30.8114L49.825 30.9085L49.825 31.1368L49.8251 33.1013C49.8251 33.9428 49.1004 34.5903 48.1976 35.0065C47.2641 35.4369 45.9998 35.6935 44.6226 35.6935C43.2454 35.6935 41.981 35.4369 41.0476 35.0065C40.1448 34.5903 39.4201 33.9428 39.4201 33.1013L39.4201 31.1368Z" fill="black"/>
<path d="M44.6221 33.3403C41.9474 33.3403 39.7792 32.3407 39.7792 31.1077C39.7792 29.8746 41.9474 28.875 44.6221 28.875C47.2968 28.875 49.465 29.8746 49.465 31.1077C49.465 32.3407 47.2968 33.3403 44.6221 33.3403Z" fill="#FFFF52"/>
<path fill-rule="evenodd" clip-rule="evenodd" d="M47.896 29.8566C47.0766 29.4789 45.9195 29.2357 44.622 29.2357C43.3246 29.2357 42.1674 29.4789 41.3481 29.8566C40.4981 30.2485 40.1387 30.7173 40.1387 31.1088C40.1387 31.5004 40.4981 31.9692 41.3481 32.361C42.1674 32.7388 43.3246 32.9819 44.622 32.9819C45.9195 32.9819 47.0766 32.7388 47.896 32.361C48.746 31.9692 49.1054 31.5004 49.1054 31.1088C49.1054 30.7173 48.746 30.2485 47.896 29.8566ZM48.197 29.2036C49.0998 29.6198 49.8245 30.2673 49.8245 31.1088C49.8245 31.9504 49.0998 32.5979 48.197 33.0141C47.2636 33.4444 45.9992 33.7011 44.622 33.7011C43.2448 33.7011 41.9805 33.4444 41.047 33.0141C40.1442 32.5979 39.4195 31.9504 39.4195 31.1088C39.4195 30.2673 40.1442 29.6198 41.047 29.2036C41.9805 28.7732 43.2448 28.5166 44.622 28.5166C45.9992 28.5166 47.2636 28.7732 48.197 29.2036Z" fill="black"/>
<path d="M48.9199 32.6132C46.3682 31.8115 44.5992 30.208 44.9688 29.0316C45.1512 28.4511 45.5577 27.1574 45.5577 27.1574C46.5201 27.0265 48.9657 27.9471 50.2583 28.3532C51.5509 28.7593 54.0835 29.4028 54.7981 30.0607C54.7981 30.0607 54.3917 31.3544 54.2093 31.9349C53.8397 33.1112 51.4716 33.415 48.9199 32.6132Z" fill="#D99530"/>
<path fill-rule="evenodd" clip-rule="evenodd" d="M54.3796 30.1938C54.2413 30.1038 54.0548 30.0059 53.823 29.9028C53.4801 29.7504 53.0686 29.5999 52.6315 29.4545C52.0845 29.2727 51.5244 29.1074 51.0178 28.9579C50.7026 28.8649 50.4081 28.778 50.1505 28.6971C49.8929 28.6161 49.6016 28.519 49.2899 28.415C48.7888 28.2479 48.2348 28.0632 47.6821 27.8995C47.2404 27.7687 46.8167 27.6569 46.4483 27.5858C46.1992 27.5377 45.9902 27.5114 45.8252 27.5061L45.3118 29.1402C45.1945 29.5137 45.3968 30.0687 46.0903 30.6973C46.7587 31.3033 47.7898 31.8821 49.0276 32.271C50.2654 32.6599 51.4423 32.7748 52.3371 32.66C53.2655 32.5409 53.7489 32.2014 53.8663 31.8279L54.3796 30.1938ZM45.2146 27.0505L45.283 26.8327L45.5092 26.802C45.8107 26.761 46.1921 26.804 46.5845 26.8797C46.9857 26.9571 47.4347 27.0762 47.8863 27.21C48.4434 27.375 49.0314 27.5708 49.5457 27.7421C49.8529 27.8445 50.1338 27.938 50.366 28.011C50.5983 28.084 50.8822 28.1679 51.1928 28.2596C51.7126 28.4132 52.307 28.5889 52.8583 28.7721C53.3053 28.9207 53.7416 29.0797 54.1151 29.2457C54.4803 29.408 54.8177 29.5908 55.0416 29.7969L55.2095 29.9515L55.1411 30.1692L54.5523 32.0434C54.3001 32.8463 53.4146 33.2468 52.4286 33.3733C51.409 33.504 50.1259 33.3699 48.8121 32.9571C47.4982 32.5443 46.3689 31.9205 45.6073 31.2301C44.8708 30.5625 44.3735 29.7275 44.6258 28.9246L45.2146 27.0505Z" fill="black"/>
<path d="M49.5166 30.7146C46.9649 29.9129 45.196 28.3094 45.5656 27.133C45.9352 25.9566 48.3034 25.6529 50.8551 26.4546C53.4068 27.2563 55.1757 28.8599 54.8061 30.0363C54.4365 31.2126 52.0683 31.5164 49.5166 30.7146Z" fill="#FFFF52"/>
<path fill-rule="evenodd" clip-rule="evenodd" d="M53.6847 28.3712C53.0162 27.7653 51.9852 27.1865 50.7474 26.7975C49.5096 26.4086 48.3327 26.2938 47.4379 26.4086C46.5095 26.5276 46.026 26.8671 45.9087 27.2407C45.7913 27.6142 45.9937 28.1692 46.6872 28.7978C47.3556 29.4038 48.3867 29.9826 49.6245 30.3715C50.8623 30.7604 52.0391 30.8753 52.934 30.7605C53.8624 30.6414 54.3458 30.3019 54.4632 29.9284C54.5805 29.5549 54.3781 28.9999 53.6847 28.3712ZM54.1676 27.8384C54.9042 28.5061 55.4015 29.3411 55.1492 30.1439C54.897 30.9468 54.0115 31.3473 53.0255 31.4738C52.0059 31.6045 50.7228 31.4704 49.4089 31.0576C48.095 30.6448 46.9658 30.021 46.2042 29.3306C45.4677 28.6629 44.9704 27.828 45.2226 27.0251C45.4749 26.2223 46.3603 25.8218 47.3464 25.6953C48.3659 25.5645 49.649 25.6987 50.9629 26.1115C52.2768 26.5243 53.4061 27.1481 54.1676 27.8384Z" fill="black"/>
<defs>
<filter id="filter0_d_24945_16540" x="0.463013" y="0.540039" width="86.7387" height="77.46" filterUnits="userSpaceOnUse" color-interpolation-filters="sRGB">
<feFlood flood-opacity="0" result="BackgroundImageFix"/>
<feColorMatrix in="SourceAlpha" type="matrix" values="0 0 0 0 0 0 0 0 0 0 0 0 0 0 0 0 0 0 127 0" result="hardAlpha"/>
<feOffset/>
<feGaussianBlur stdDeviation="3"/>
<feComposite in2="hardAlpha" operator="out"/>
<feColorMatrix type="matrix" values="0 0 0 0 0 0 0 0 0 0 0 0 0 0 0 0 0 0 0.8 0"/>
<feBlend mode="normal" in2="BackgroundImageFix" result="effect1_dropShadow_24945_16540"/>
<feBlend mode="normal" in="SourceGraphic" in2="effect1_dropShadow_24945_16540" result="shape"/>
</filter>
<radialGradient id="paint0_radial_24945_16540" cx="0" cy="0" r="1" gradientUnits="userSpaceOnUse" gradientTransform="translate(43.9129 36.0634) rotate(95.361) scale(11.9495 6.49572)">
<stop stop-color="white"/>
<stop offset="1" stop-color="white" stop-opacity="0.12"/>
</radialGradient>
<radialGradient id="paint1_radial_24945_16540" cx="0" cy="0" r="1" gradientUnits="userSpaceOnUse" gradientTransform="translate(34.0974 43.3545) rotate(104.036) scale(3.16473 4.35151)">
<stop stop-color="white"/>
<stop offset="1" stop-color="white" stop-opacity="0.12"/>
</radialGradient>
<radialGradient id="paint2_radial_24945_16540" cx="0" cy="0" r="1" gradientUnits="userSpaceOnUse" gradientTransform="translate(43.3052 38.5148) rotate(90) scale(32.5148 32.607)">
<stop offset="0.65" stop-color="#EBF479"/>
<stop offset="1" stop-color="#EBF479" stop-opacity="0.2"/>
</radialGradient>
</defs>
</svg>
