<svg width="100" height="89" viewBox="0 0 100 89" fill="none" xmlns="http://www.w3.org/2000/svg">
  <path d="M43.8004 3.80663C43.0876 3.78107 42.4554 4.26092 42.2883 4.95429L34.9873 35.2551L15.8176 40.5483C15.3129 40.6876 14.9174 41.0801 14.7741 41.5836C14.6253 42.1065 14.5551 42.7811 14.5192 43.48C14.4818 44.2069 14.4772 45.0678 14.4966 46.0157C14.5355 47.9132 14.6723 50.2284 14.8589 52.651C15.1591 56.5493 15.5917 60.7717 15.9674 64.0697C13.4335 63.7286 9.89951 64.3046 6.64486 67.5725C2.23937 71.996 2.11398 76.9276 2.76668 79.1121C2.84526 79.3751 2.99452 79.6115 3.1982 79.7956L8.2036 84.3188C8.34678 84.4482 8.51357 84.5487 8.69484 84.6149C11.3079 85.569 13.8085 85.2567 15.8154 84.5278C17.2528 84.0058 18.4803 83.2561 19.388 82.5415C19.9998 82.8433 20.7702 83.1391 21.6817 83.394C23.3186 83.8518 25.499 84.2033 28.2298 84.2033C32.8513 84.2033 35.64 82.2685 36.9454 80.4735C39.5713 81.2965 41.4435 81.9255 42.6889 82.3604C43.3989 82.6084 43.9049 82.7932 44.2305 82.9148C44.3933 82.9756 44.5109 83.0207 44.5864 83.0499C44.6241 83.0645 44.6513 83.0751 44.6683 83.0818L44.6862 83.0889L44.6891 83.0901C44.7365 83.1091 44.7848 83.1257 44.8339 83.1398L45.2482 81.6982C44.8339 83.1398 44.8341 83.1399 44.8342 83.1399L44.8348 83.1401L44.8365 83.1406L44.8428 83.1424L44.8664 83.1491L44.9562 83.1746C45.0346 83.1967 45.1492 83.229 45.2964 83.2698C45.5907 83.3516 46.0155 83.4679 46.5403 83.6073C47.5892 83.886 49.0415 84.2577 50.6541 84.6299C53.8281 85.3625 57.7954 86.1385 60.4954 86.1385C60.7639 86.1385 61.0275 86.0664 61.2586 85.9298C64.5583 83.9798 68.4691 81.963 71.8372 80.2262C72.1627 80.0583 72.4831 79.8931 72.7974 79.7308C74.5676 78.8167 76.1559 77.9892 77.337 77.3211C77.9251 76.9884 78.4422 76.6786 78.8411 76.4055C79.0394 76.2697 79.2349 76.1252 79.4043 75.9762C79.5403 75.8567 79.7971 75.6185 79.9661 75.2805C82.3698 70.4732 83.2844 66.8045 84.0903 61.835C85.1408 55.3583 85.4407 48.9023 85.3295 44.964C87.3981 44.0483 89.9667 42.8372 92.2224 40.4645C94.8632 37.6866 96.9634 33.4618 97.7925 26.5939C98.6346 19.6182 96.9751 14.5769 94.4181 11.1227C91.8906 7.70828 88.5522 5.93563 86.1434 5.35515C86.0458 5.33163 85.9461 5.31797 85.8457 5.31437L43.8004 3.80663Z" fill="white" stroke="white" stroke-width="3" stroke-linejoin="round"/>
  <path fill-rule="evenodd" clip-rule="evenodd" d="M17.0859 42.4688L58.8683 51.0049V83.6051L58.256 83.4443C52.408 81.9092 43.5257 79.5187 35.8849 77.3361C32.065 76.245 28.5516 75.2048 25.8815 74.3488C24.547 73.921 23.418 73.5375 22.5646 73.2156C22.1383 73.0547 21.7753 72.9072 21.4874 72.7753C21.2111 72.6487 20.967 72.5204 20.8066 72.3921C20.6132 72.2373 20.4669 72.0063 20.3503 71.7705C20.2287 71.5245 20.1157 71.2234 20.0092 70.8814C19.7959 70.1967 19.5948 69.3024 19.405 68.259C19.0247 66.1694 18.6807 63.4307 18.3788 60.4632C17.7748 54.5253 17.3358 47.6324 17.1163 43.0966L17.0859 42.4688ZM18.1228 43.6774C18.3507 48.1946 18.7759 54.7168 19.3504 60.3643C19.6514 63.3232 19.9924 66.0322 20.3658 68.0842C20.5527 69.1115 20.7455 69.9614 20.9416 70.591C21.0398 70.9061 21.1352 71.1545 21.2258 71.3377C21.3214 71.5311 21.3909 71.6088 21.4167 71.6295C21.4755 71.6765 21.6231 71.7633 21.8941 71.8874C22.1536 72.0062 22.4936 72.145 22.9094 72.3018C23.7402 72.6153 24.8514 72.993 26.1796 73.4188C28.8349 74.27 32.3366 75.3069 36.1531 76.3971C43.523 78.5023 52.0522 80.802 57.8917 82.3388V51.8022L18.1228 43.6774Z" fill="black"/>
  <path d="M21.11 72.0107C19.4335 70.6694 18.1576 53.7283 17.6654 44.3227C17.6321 43.6862 18.2097 43.197 18.8342 43.3245L57.5972 51.2439C58.0519 51.3368 58.3784 51.7367 58.3784 52.2007V81.7059C58.3784 82.346 57.7752 82.8136 57.1563 82.6503C45.1057 79.4712 22.8047 73.3664 21.11 72.0107Z" fill="#885F0F"/>
  <path fill-rule="evenodd" clip-rule="evenodd" d="M17.9725 61.2938C17.3799 55.6914 16.9368 49.0859 16.6903 44.3739C16.623 43.0882 17.7904 42.1147 19.0298 42.3679L57.7929 50.2872C58.7021 50.473 59.3551 51.2729 59.3551 52.201V81.7061C59.3551 82.9825 58.1498 83.9226 56.9073 83.5948C50.8783 82.0043 42.2831 79.6814 34.9805 77.5857C31.3303 76.5382 27.9952 75.5452 25.4627 74.7276C24.1977 74.3192 23.1222 73.9512 22.3038 73.6396C21.8953 73.4841 21.5398 73.3384 21.2519 73.2053C20.9856 73.0821 20.7054 72.9378 20.5001 72.7735C20.2336 72.5603 20.054 72.269 19.9298 72.0243C19.7964 71.7617 19.6783 71.4535 19.5713 71.121C19.357 70.455 19.1589 69.6012 18.9742 68.6226C18.6038 66.66 18.2685 64.092 17.9725 61.2938ZM17.6656 44.3229C18.1577 53.7286 19.4336 70.6696 21.1102 72.0109C22.8049 73.3666 45.1059 79.4714 57.1564 82.6505C57.7753 82.8138 58.3785 82.3462 58.3785 81.7061V52.201C58.3785 51.7369 58.052 51.337 57.5974 51.2441L18.8343 43.3248C18.2099 43.1972 17.6323 43.6864 17.6656 44.3229Z" fill="black"/>
  <path opacity="0.3" fill-rule="evenodd" clip-rule="evenodd" d="M23.29 45.6534C23.5596 45.6475 23.783 45.8612 23.789 46.1308C23.8619 49.4131 24.059 54.7109 24.4128 59.9308C24.7675 65.1628 25.2773 70.2766 25.9684 73.2138C26.0302 73.4763 25.8674 73.7392 25.6049 73.8009C25.3424 73.8627 25.0795 73.7 25.0177 73.4374C24.3058 70.4117 23.7926 65.2218 23.4384 59.9968C23.0834 54.7597 22.8858 49.4469 22.8126 46.1525C22.8066 45.8829 23.0203 45.6594 23.29 45.6534Z" fill="#553322"/>
  <path opacity="0.3" fill-rule="evenodd" clip-rule="evenodd" d="M34.7032 46.9199C35.2426 46.9199 35.6798 47.3572 35.6798 47.8965C35.6798 49.8695 35.68 56.4387 35.7896 62.787C35.8444 65.9623 35.9265 69.0738 36.0491 71.5241C36.1104 72.7504 36.1814 73.8003 36.263 74.6053C36.3038 75.0083 36.3462 75.3394 36.3894 75.5951C36.4356 75.8686 36.4736 75.9981 36.4876 76.0331C36.688 76.5338 36.4444 77.1022 35.9437 77.3026C35.4429 77.503 34.8745 77.2594 34.6741 76.7587C34.5785 76.5196 34.5136 76.2174 34.4635 75.9206C34.4103 75.6061 34.3628 75.2281 34.3197 74.8021C34.2333 73.9492 34.1603 72.8617 34.0983 71.6217C33.9741 69.1394 33.8916 66.003 33.8366 62.8207C33.7267 56.4539 33.7266 49.8697 33.7266 47.8965C33.7266 47.3572 34.1638 46.9199 34.7032 46.9199Z" fill="#553322"/>
  <path opacity="0.3" fill-rule="evenodd" clip-rule="evenodd" d="M39.086 62.7534C39.3557 62.7534 39.5743 62.972 39.5743 63.2417C39.5743 64.213 39.5744 67.4434 39.6838 70.564C39.7385 72.1255 39.8203 73.6509 39.942 74.8491C40.0029 75.4492 40.0728 75.9568 40.1519 76.3415C40.1915 76.5341 40.2315 76.6867 40.2705 76.8004C40.2899 76.8569 40.3074 76.8989 40.3219 76.9287C40.335 76.9554 40.3426 76.9658 40.3426 76.9659C40.3426 76.9659 40.3424 76.9656 40.342 76.9651C40.512 77.1745 40.4801 77.482 40.2707 77.652C40.0614 77.822 39.7538 77.7901 39.5838 77.5808C39.4746 77.4463 39.4009 77.2753 39.3467 77.1173C39.2894 76.9502 39.2396 76.7537 39.1953 76.5382C39.1066 76.1067 39.0327 75.5619 38.9703 74.9478C38.8454 73.7175 38.7627 72.1668 38.7078 70.5982C38.5978 67.4588 38.5977 64.2132 38.5977 63.2417C38.5977 62.972 38.8163 62.7534 39.086 62.7534Z" fill="#553322"/>
  <path opacity="0.3" fill-rule="evenodd" clip-rule="evenodd" d="M44.3487 52.6689C44.6184 52.6689 44.837 52.8876 44.837 53.1573C44.837 54.1375 44.727 58.3131 44.6176 62.2305C44.5627 64.1921 44.5079 66.0929 44.4668 67.5033C44.4463 68.2085 44.4291 68.7911 44.4171 69.1975L44.3983 69.8332C44.3983 69.8333 44.3983 69.8339 44.002 69.8221L44.3983 69.8332C44.3903 70.1028 44.1652 70.3155 43.8957 70.3074C43.6261 70.2994 43.4141 70.0744 43.4221 69.8048L43.8171 69.8166C43.4221 69.8048 43.4221 69.8049 43.4221 69.8048L43.4409 69.1687C43.4529 68.7624 43.47 68.1799 43.4906 67.4749C43.5317 66.0647 43.5865 64.1643 43.6413 62.2032C43.7511 58.2752 43.8604 54.1198 43.8604 53.1573C43.8604 52.8876 44.079 52.6689 44.3487 52.6689Z" fill="#553322"/>
  <path opacity="0.3" fill-rule="evenodd" clip-rule="evenodd" d="M20.2344 46.5303C20.5041 46.5303 20.7227 46.7489 20.7227 47.0186C20.7227 47.9595 21.1571 52.747 21.5974 57.3471C21.8166 59.6365 22.0358 61.8654 22.2002 63.522C22.2824 64.3502 22.3509 65.0354 22.3988 65.5135L22.4741 66.2616C22.4741 66.2617 22.4741 66.2624 22.0747 66.3028L22.4741 66.2616C22.5012 66.5299 22.3057 66.7702 22.0374 66.7973C21.7691 66.8245 21.5296 66.6289 21.5025 66.3606L21.905 66.3199C21.5025 66.3606 21.5025 66.3607 21.5025 66.3606L21.4271 65.6109C21.3791 65.1326 21.3106 64.4471 21.2283 63.6184C21.0639 61.9611 20.8446 59.7311 20.6253 57.4401C20.1887 52.8795 19.7461 48.0205 19.7461 47.0186C19.7461 46.7489 19.9647 46.5303 20.2344 46.5303Z" fill="#553322"/>
  <path opacity="0.3" fill-rule="evenodd" clip-rule="evenodd" d="M25.4922 53.1079C25.7619 53.1079 25.9805 53.3265 25.9805 53.5962C25.9805 54.541 26.3063 58.6764 26.6365 62.615C26.8009 64.5756 26.9653 66.4756 27.0886 67.8855C27.1502 68.5905 27.2016 69.1728 27.2375 69.579L27.294 70.2142C27.294 70.2143 27.294 70.2148 26.8077 70.2583L27.294 70.2142C27.318 70.4828 27.1197 70.7207 26.8511 70.7447C26.5825 70.7687 26.3453 70.5704 26.3213 70.3018L26.8077 70.2583C26.3213 70.3018 26.3213 70.3019 26.3213 70.3018L26.2647 69.6651C26.2287 69.2587 26.1773 68.6759 26.1157 67.9706C25.9923 66.5599 25.8278 64.6587 25.6633 62.6966C25.3358 58.7898 25.0039 54.5942 25.0039 53.5962C25.0039 53.3265 25.2225 53.1079 25.4922 53.1079Z" fill="#553322"/>
  <path opacity="0.3" fill-rule="evenodd" clip-rule="evenodd" d="M46.9809 49.1108C47.5203 49.1108 47.9576 49.5481 47.9576 50.0874L47.9572 79.0239C47.9572 79.0242 47.9572 79.0252 46.9805 79.0252C46.0039 79.0252 46.0039 79.0251 46.0039 79.0249L46.0043 50.0875C46.0043 49.5481 46.4415 49.1109 46.9809 49.1108ZM46.9805 80.0019C46.4411 80.0018 46.0039 79.5643 46.0039 79.0249L46.9805 79.0252L47.9572 79.0252C47.9571 79.5646 47.5199 80.0019 46.9805 80.0019Z" fill="#553322"/>
  <path d="M44.0381 9.5467C42.9419 15.131 39.2408 30.1396 37.859 35.7008C37.5777 36.8328 38.3463 37.9461 39.5026 38.0995L78.3773 43.2562C79.4418 43.3974 80.4207 42.6528 80.5688 41.5892L84.8245 11.0251C84.9846 9.87556 84.1129 8.84089 82.9529 8.80347L46.3644 7.62312C45.2615 7.58754 44.2507 8.46393 44.0381 9.5467Z" fill="#553322"/>
  <path fill-rule="evenodd" clip-rule="evenodd" d="M46.3489 8.11122C45.507 8.08406 44.6883 8.771 44.5176 9.6408C43.4184 15.2401 39.7134 30.2639 38.3332 35.8186C38.1231 36.664 38.6955 37.4998 39.5671 37.6155L78.4418 42.7721C79.2402 42.878 79.9743 42.3196 80.0854 41.5219L84.3412 10.9578C84.4612 10.0956 83.8074 9.31963 82.9375 9.29157L46.3489 8.11122ZM43.5593 9.45268C43.8136 8.15695 45.0167 7.09111 46.3804 7.1351L82.9689 8.31545C84.4189 8.36223 85.5085 9.65557 85.3084 11.0925L81.0527 41.6566C80.8676 42.9861 79.644 43.9168 78.3134 43.7403L39.4387 38.5836C37.9977 38.3925 37.0329 37.0017 37.3854 35.5831C38.7688 30.0155 42.466 15.0219 43.5593 9.45268Z" fill="black"/>
  <path fill-rule="evenodd" clip-rule="evenodd" d="M53.067 16.3046C53.08 16.0352 53.309 15.8274 53.5783 15.8404L80.7623 17.1558C81.0317 17.1688 81.2395 17.3977 81.2264 17.6671C81.2134 17.9365 80.9845 18.1443 80.7151 18.1313L53.5311 16.8159C53.2618 16.8029 53.054 16.5739 53.067 16.3046Z" fill="#1D130E"/>
  <path fill-rule="evenodd" clip-rule="evenodd" d="M49.1258 31.6069C49.1628 31.3398 49.4093 31.1532 49.6764 31.1902L78.1758 35.1363C78.4429 35.1733 78.6295 35.4198 78.5925 35.6869C78.5555 35.9541 78.3089 36.1407 78.0418 36.1037L49.5425 32.1576C49.2754 32.1206 49.0888 31.8741 49.1258 31.6069Z" fill="#1D130E"/>
  <path fill-rule="evenodd" clip-rule="evenodd" d="M53.0734 24.6035C53.1037 24.3355 53.3455 24.1428 53.6135 24.173L80.7974 27.2422C81.0654 27.2725 81.2581 27.5142 81.2279 27.7822C81.1976 28.0502 80.9558 28.2429 80.6878 28.2127L53.5039 25.1435C53.2359 25.1133 53.0432 24.8715 53.0734 24.6035Z" fill="#1D130E"/>
  <path d="M17.1641 42.6341L37.3328 37.8115L80.7395 43.5112L58.8169 50.9647L17.1641 42.6341Z" fill="#595959"/>
  <path fill-rule="evenodd" clip-rule="evenodd" d="M37.3072 37.3159L80.8033 43.0273L80.8969 43.9738L58.8501 51.4696L17.0686 43.1132L17.0508 42.1594L37.3072 37.3159ZM37.3589 38.3077L19.4418 42.5919L58.7843 50.4604L78.6004 43.7231L37.3589 38.3077Z" fill="black"/>
  <path d="M17.1641 43.0725L37.3328 38.25L80.7395 43.9497L58.8169 51.4032L17.1641 43.0725Z" fill="#241403"/>
  <path fill-rule="evenodd" clip-rule="evenodd" d="M37.3072 37.7539L80.8033 43.4653L80.8969 44.4118L58.8501 51.9076L17.0686 43.5512L17.0508 42.5974L37.3072 37.7539ZM37.3589 38.7457L19.4418 43.0299L58.7843 50.8984L78.6004 44.1611L37.3589 38.7457Z" fill="black"/>
  <path d="M76.7963 73.3263C80.1428 66.215 81.4937 54.5805 81.23 45.6576C81.2111 45.0159 80.5805 44.5806 79.9691 44.7762L59.9368 51.1865C59.5323 51.3159 59.2578 51.6919 59.2578 52.1166V81.4491C59.2578 82.161 59.9868 82.6353 60.6312 82.3328C64.626 80.4577 76.0088 74.9997 76.7963 73.3263Z" fill="#DDAA44"/>
  <path fill-rule="evenodd" clip-rule="evenodd" d="M82.2063 45.6288C82.4719 54.6165 81.1214 66.4294 77.68 73.7422C77.5648 73.9869 77.3907 74.1959 77.232 74.3605C77.0644 74.5344 76.8642 74.7092 76.6467 74.8818C76.2116 75.2272 75.6524 75.6068 75.0182 76.0037C73.7468 76.7995 72.0999 77.7106 70.3706 78.6187C66.9075 80.437 63.0474 82.2776 61.0462 83.217C59.7376 83.8313 58.2812 82.8582 58.2812 81.4492V52.1167C58.2812 51.2673 58.8302 50.5152 59.6392 50.2564L79.6715 43.8461C80.8858 43.4576 82.1676 44.3213 82.2063 45.6288ZM81.2301 45.6577C81.4938 54.5806 80.1429 66.215 76.7963 73.3263C76.0089 74.9997 64.626 80.4578 60.6313 82.3329C59.9868 82.6354 59.2579 82.1611 59.2579 81.4492V52.1167C59.2579 51.692 59.5324 51.316 59.9369 51.1865L79.9692 44.7763C80.5806 44.5806 81.2111 45.016 81.2301 45.6577Z" fill="black"/>
  <path d="M84.5556 10.4681L80.8617 43.303C80.7966 43.882 81.2488 44.3828 81.8213 44.2748C85.361 43.607 92.5863 39.8225 94.3315 28.1661C96.0756 16.5178 89.2643 11.2951 85.7687 9.72256C85.2153 9.47361 84.6235 9.86514 84.5556 10.4681Z" fill="#DDAA44"/>
  <path fill-rule="evenodd" clip-rule="evenodd" d="M79.8904 43.1939L83.5843 10.3591C83.715 9.19677 84.9237 8.27202 86.1685 8.83203C88.0507 9.67877 90.7894 11.488 92.8331 14.634C94.8913 17.8022 96.2021 22.2627 95.2965 28.3108C93.4862 40.4016 85.9259 44.4942 82.0015 45.2346C80.6604 45.4876 79.7664 44.2962 79.8904 43.1939ZM80.8609 43.3031L84.5548 10.4683C84.6226 9.86525 85.2144 9.47372 85.7678 9.72268C89.2634 11.2953 96.0748 16.5179 94.3307 28.1662C92.5854 39.8226 85.3601 43.6071 81.8204 44.2749C81.2479 44.3829 80.7957 43.8821 80.8609 43.3031Z" fill="black"/>
  <path d="M44.3224 10.0242L38.7485 34.5491C38.4708 35.7714 39.4026 36.9197 40.6341 36.6864C44.7388 35.9089 51.5495 32.9123 53.1136 22.4663C54.6959 11.8979 50.1013 9.50411 46.7913 8.53111C45.7106 8.21343 44.572 8.9258 44.3224 10.0242Z" fill="#472A1C"/>
  <path opacity="0.3" fill-rule="evenodd" clip-rule="evenodd" d="M69.3684 48.6733C69.9075 48.6902 70.3309 49.1409 70.3141 49.68L69.4372 77.7409C69.4203 78.28 68.9696 78.7033 68.4305 78.6865C67.8914 78.6696 67.468 78.219 67.4849 77.6798L68.3618 49.619C68.3786 49.0799 68.8293 48.6565 69.3684 48.6733Z" fill="#553322"/>
  <path opacity="0.3" fill-rule="evenodd" clip-rule="evenodd" d="M75.56 46.9235C76.0974 46.969 76.4962 47.4416 76.4507 47.9791L74.2584 73.8477C74.2129 74.3851 73.7403 74.7839 73.2028 74.7383C72.6654 74.6928 72.2666 74.2202 72.3121 73.6827L74.5044 47.8141C74.5499 47.2767 75.0225 46.8779 75.56 46.9235Z" fill="#553322"/>
  <path opacity="0.3" fill-rule="evenodd" clip-rule="evenodd" d="M65.4218 57.1522C65.1077 58.4327 64.7852 60.9026 64.5685 64.5858C64.2145 70.6038 62.3609 77.9823 61.4796 80.9201C61.4021 81.1784 61.1299 81.325 60.8716 81.2475C60.6132 81.17 60.4667 80.8978 60.5442 80.6394C61.4166 77.7312 63.246 70.4362 63.5936 64.5284C63.8131 60.7965 64.1437 58.2373 64.4842 56.8754C64.5695 56.5343 64.66 56.2488 64.7579 56.0323C64.8066 55.9244 64.8641 55.818 64.9338 55.7266C64.9985 55.6417 65.1068 55.5257 65.2706 55.4662C65.4667 55.3948 65.6656 55.4316 65.8197 55.5349C65.9497 55.6221 66.0306 55.7435 66.0809 55.8364C66.1836 56.0259 66.2565 56.2832 66.3137 56.5692C66.5427 57.7146 66.7616 60.8254 66.8163 64.3852C66.8713 67.9565 66.7621 72.042 66.3182 75.149C66.2801 75.416 66.0328 75.6015 65.7658 75.5633C65.4988 75.5252 65.3133 75.2778 65.3514 75.0109C65.7845 71.9795 65.8945 67.9537 65.8398 64.4002C65.7907 61.2076 65.6095 58.4462 65.4218 57.1522ZM65.7135 56.3151C65.7135 56.3152 65.7126 56.3163 65.7107 56.3184C65.7125 56.316 65.7135 56.315 65.7135 56.3151ZM65.2176 56.2935C65.2161 56.2914 65.2153 56.2902 65.2154 56.2901C65.2154 56.29 65.2162 56.2911 65.2176 56.2935Z" fill="#553322"/>
  <path opacity="0.3" fill-rule="evenodd" clip-rule="evenodd" d="M49.9464 50.0496C50.2103 49.9941 50.4693 50.163 50.5248 50.4269C51.1116 53.2139 52.1223 59.9808 51.4066 64.6329C51.1919 66.0282 51.2284 66.9958 51.37 67.5564C51.4296 67.7922 51.4982 67.9174 51.5424 67.975C51.5902 67.9388 51.6726 67.8576 51.7752 67.6904C51.9103 67.4701 52.0527 67.1452 52.1817 66.7033C52.4393 65.8211 52.628 64.5267 52.628 62.8048V52.2814C52.628 52.0117 52.8466 51.7931 53.1163 51.7931C53.386 51.7931 53.6046 52.0117 53.6046 52.2814V62.8048C53.6046 64.5907 53.4097 65.982 53.1192 66.977C52.9742 67.4737 52.8014 67.8852 52.6077 68.2011C52.4209 68.5055 52.1818 68.7748 51.8791 68.9009C51.7191 68.9676 51.5402 68.994 51.3564 68.9575C51.1741 68.9213 51.0202 68.8298 50.8971 68.7137C50.6622 68.492 50.5151 68.1597 50.4231 67.7956C50.2359 67.0544 50.2175 65.9393 50.4413 64.4844C51.1287 60.0163 50.1517 53.395 49.5692 50.6281C49.5136 50.3642 49.6825 50.1052 49.9464 50.0496Z" fill="#553322"/>
  <path fill-rule="evenodd" clip-rule="evenodd" d="M16.7266 43.5107C16.7266 44.539 16.7611 45.7556 16.8233 47.1039C17.1853 54.9551 18.4842 67.2741 19.3573 72.887L52.6795 82.9713L59.2563 83.8482V51.8413L16.7266 43.5107ZM20.369 47.7985C20.7238 54.5545 21.7112 64.295 22.5095 70.1762L53.4242 79.532L55.7487 79.8419V54.7285L20.369 47.7985Z" fill="#797979"/>
  <path fill-rule="evenodd" clip-rule="evenodd" d="M16.106 42.7568C16.3313 42.5713 16.6279 42.4963 16.9144 42.5524L59.4441 50.883C59.9024 50.9727 60.233 51.3744 60.233 51.8414V83.8483C60.233 84.1298 60.1115 84.3976 59.8997 84.5831C59.6879 84.7685 59.4063 84.8536 59.1273 84.8164L52.5505 83.9394C52.4984 83.9325 52.447 83.9214 52.3967 83.9061L19.0744 73.8218C18.7152 73.7131 18.45 73.408 18.3923 73.0371C17.5138 67.3896 16.2114 55.0355 15.8477 47.149C15.7852 45.7917 15.75 44.559 15.75 43.5108C15.75 43.2189 15.8806 42.9423 16.106 42.7568ZM19.3573 72.887C18.4842 67.2742 17.1853 54.9552 16.8233 47.104C16.7802 46.169 16.7504 45.2973 16.7362 44.5079C16.7299 44.1589 16.7266 43.826 16.7266 43.5108L59.2564 51.8414V83.8483L52.6796 82.9714L19.3573 72.887ZM23.3942 69.4236L53.6315 78.5744L54.7721 78.7265V55.5325L21.4151 48.9986C21.8011 55.3888 22.6635 63.8876 23.3942 69.4236ZM20.4252 48.8047C20.8194 55.4929 21.7501 64.5811 22.5096 70.1763L53.4242 79.532L55.7488 79.842V54.7286L20.369 47.7985C20.3863 48.1271 20.405 48.4628 20.4252 48.8047Z" fill="black"/>
  <path fill-rule="evenodd" clip-rule="evenodd" d="M62.7615 54.3101V78.2345L74.6419 72.4392C76.2262 69.0684 77.3322 63.9725 78.0258 58.5233C78.4745 54.9973 78.7305 51.5018 78.863 48.5378L62.7615 54.3101ZM59.2539 51.8413V83.8482L77.2304 75.0792C80.9565 68.3723 82.1493 55.3322 82.4236 47.2614C82.472 45.8352 82.4918 44.5642 82.4918 43.5107L59.2539 51.8413Z" fill="#D4D4D4"/>
  <path fill-rule="evenodd" clip-rule="evenodd" d="M58.2773 51.8414C58.2773 51.4291 58.5363 51.0612 58.9244 50.922L82.1623 42.5915C82.4615 42.4842 82.7941 42.5293 83.054 42.7122C83.3139 42.8951 83.4685 43.193 83.4685 43.5108C83.4685 44.576 83.4485 45.8581 83.3997 47.2946C83.2617 51.3554 82.8926 56.6746 82.0864 61.8326C81.2844 66.9641 80.0345 72.043 78.0842 75.5536C77.987 75.7285 77.8385 75.8693 77.6586 75.957L59.6821 84.7261C59.3795 84.8737 59.0221 84.855 58.7365 84.6765C58.4509 84.4981 58.2773 84.1851 58.2773 83.8483V51.8414ZM62.7616 78.2346L74.642 72.4393C76.2263 69.0685 77.3323 63.9726 78.0258 58.5234C78.4223 55.4078 78.6683 52.3161 78.8117 49.5938C78.8305 49.2352 78.8477 48.8829 78.8631 48.5379L62.7616 54.3101V78.2346ZM63.7382 76.6716L73.8997 71.7147C75.3432 68.4838 76.3882 63.6552 77.057 58.4001C77.4302 55.4675 77.6692 52.553 77.8142 49.9514L63.7382 54.9975V76.6716ZM82.4859 44.5504C82.4769 45.3665 82.4571 46.277 82.4236 47.2615C82.1494 55.3323 80.9565 68.3723 77.2305 75.0793L59.254 83.8483V51.8414L82.4919 43.5108C82.4919 43.8371 82.49 44.1843 82.4859 44.5504Z" fill="black"/>
  <path fill-rule="evenodd" clip-rule="evenodd" d="M82.0547 43.5102C82.7139 43.4138 83.6034 43.1709 84.6138 42.7188C87.9843 41.211 92.7013 37.3763 94.7117 28.8951C96.7152 16.6006 92.2554 11.6613 88.4796 9.50836C87.6387 9.02888 86.8317 8.68761 86.1376 8.43408L82.0547 43.5102ZM84.9631 39.7185C87.5476 38.1283 90.7608 34.8356 92.3099 28.3927C93.4397 21.3636 92.2617 17.3097 90.7269 14.9281C89.9749 13.7613 89.0761 12.8995 88.1602 12.2518L84.9631 39.7185Z" fill="#D4D4D4"/>
  <path fill-rule="evenodd" clip-rule="evenodd" d="M81.3743 44.2108C81.1566 43.9994 81.0496 43.6987 81.0847 43.3973L85.1676 8.32123C85.2021 8.02432 85.3708 7.75959 85.6252 7.60275C85.8797 7.44592 86.192 7.41425 86.4727 7.5168C87.2028 7.78347 88.0625 8.14636 88.9634 8.66002C90.9952 9.81853 93.22 11.7364 94.657 15.0057C96.0892 18.2643 96.6987 22.7741 95.6756 29.0523C95.6719 29.0751 95.6674 29.0979 95.662 29.1204C93.5793 37.9068 88.6519 41.9823 85.0127 43.6104C83.9307 44.0944 82.9548 44.3657 82.1959 44.4766C81.8957 44.5205 81.592 44.4222 81.3743 44.2108ZM94.7117 28.8952C92.7014 37.3764 87.9844 41.211 84.6139 42.7189C84.0538 42.9695 83.5309 43.1558 83.0638 43.2885C82.6881 43.3952 82.3486 43.4673 82.0548 43.5102L86.1376 8.43415C86.4325 8.54185 86.7477 8.66538 87.0773 8.80862C87.5235 9.00256 87.9959 9.23263 88.4796 9.50842C92.2554 11.6613 96.7152 16.6007 94.7117 28.8952ZM92.31 28.3928C93.4398 21.3636 92.2617 17.3098 90.7269 14.9282C90.224 14.1478 89.6555 13.5039 89.06 12.9692C88.7651 12.7044 88.4637 12.4664 88.1603 12.2518L84.9631 39.7185C85.31 39.5052 85.6681 39.2611 86.032 38.9829C88.38 37.188 90.9687 33.9711 92.31 28.3928ZM86.1952 37.5806C88.1538 35.8278 90.2091 32.924 91.3517 28.2007C92.4449 21.3592 91.2724 17.5775 89.906 15.4572C89.5998 14.9821 89.2669 14.5634 88.9175 14.1933L86.1952 37.5806Z" fill="black"/>
  <path d="M27.6628 81.9881C22.8966 81.9881 19.0327 80.2068 19.0327 78.0095C19.0327 76.9253 19.0327 74.5088 19.0327 74.5088C20.5991 73.7721 25.2484 74.0309 27.6628 74.0309C30.0773 74.0309 34.7265 73.7721 36.2928 74.5088C36.2928 74.5088 36.293 76.9253 36.293 78.0095C36.293 80.2068 32.4291 81.9881 27.6628 81.9881Z" fill="#D99530"/>
  <path fill-rule="evenodd" clip-rule="evenodd" d="M36.7811 74.5082L36.7811 74.1983L36.5006 74.0664C36.0335 73.8466 35.3829 73.7181 34.6786 73.6376C33.9621 73.5557 33.1409 73.5186 32.3039 73.5048C31.2697 73.4877 30.1732 73.5065 29.2103 73.523C28.6322 73.5329 28.1022 73.542 27.6628 73.542C27.2235 73.542 26.6935 73.5329 26.1153 73.523C25.1524 73.5065 24.0559 73.4877 23.0217 73.5048C22.1847 73.5186 21.3634 73.5557 20.647 73.6376C19.9426 73.7181 19.292 73.8467 18.8249 74.0664L18.5444 74.1983L18.5444 78.009C18.5444 79.4132 19.7584 80.5292 21.356 81.2657C22.9952 82.0215 25.2255 82.4759 27.6628 82.4759C30.1001 82.4759 32.3304 82.0215 33.9697 81.2657C35.5673 80.5292 36.7812 79.4132 36.7812 78.009L36.7811 74.5082ZM35.8045 74.843C35.4941 74.745 35.0768 74.6661 34.5676 74.6079C33.8963 74.5312 33.1107 74.4948 32.2878 74.4813C31.2598 74.4643 30.2119 74.4826 29.2678 74.499C28.6832 74.5092 28.1383 74.5187 27.6628 74.5187C27.1873 74.5187 26.6425 74.5092 26.0578 74.499C25.1138 74.4826 24.0658 74.4643 23.0378 74.4813C22.2148 74.4948 21.4292 74.5312 20.7579 74.6079C20.2487 74.6661 19.8314 74.745 19.521 74.843L19.521 78.009C19.521 78.8021 20.2389 79.6754 21.7648 80.3788C23.2491 81.0631 25.3338 81.4993 27.6628 81.4993C29.9918 81.4993 32.0766 81.0631 33.5608 80.3788C35.0867 79.6754 35.8046 78.8021 35.8046 78.009L35.8045 74.843Z" fill="black"/>
  <path d="M27.6628 78.4387C22.8966 78.4387 19.0327 76.6574 19.0327 74.4601C19.0327 72.2627 22.8966 70.4814 27.6628 70.4814C32.4291 70.4814 36.293 72.2627 36.293 74.4601C36.293 76.6574 32.4291 78.4387 27.6628 78.4387Z" fill="#FFFF52"/>
  <path fill-rule="evenodd" clip-rule="evenodd" d="M33.5608 72.0902C32.0766 71.406 29.9918 70.9698 27.6628 70.9698C25.3338 70.9698 23.2491 71.406 21.7648 72.0902C20.2389 72.7937 19.521 73.667 19.521 74.4601C19.521 75.2532 20.2389 76.1265 21.7648 76.83C23.2491 77.5142 25.3338 77.9504 27.6628 77.9504C29.9918 77.9504 32.0766 77.5142 33.5608 76.83C35.0867 76.1265 35.8046 75.2532 35.8046 74.4601C35.8046 73.667 35.0867 72.7937 33.5608 72.0902ZM33.9697 71.2033C35.5673 71.9398 36.7812 73.0559 36.7812 74.4601C36.7812 75.8643 35.5673 76.9803 33.9697 77.7169C32.3304 78.4726 30.1001 78.927 27.6628 78.927C25.2255 78.927 22.9952 78.4726 21.356 77.7169C19.7584 76.9803 18.5444 75.8643 18.5444 74.4601C18.5444 73.0559 19.7584 71.9398 21.356 71.2033C22.9952 70.4476 25.2255 69.9932 27.6628 69.9932C30.1001 69.9932 32.3304 70.4476 33.9697 71.2033Z" fill="black"/>
  <path d="M19.8119 79.9063C16.4865 83.3152 11.58 83.9221 8.85284 81.2618C6.12568 78.6016 6.61061 73.6815 9.93596 70.2725C13.2613 66.8636 18.1678 66.2567 20.895 68.917C23.6221 71.5772 23.1372 76.4973 19.8119 79.9063Z" fill="#D99530"/>
  <path fill-rule="evenodd" clip-rule="evenodd" d="M20.5587 69.2656C18.0933 66.8607 13.5021 67.3199 10.2902 70.6126C7.0782 73.9054 6.73313 78.5065 9.19848 80.9114C11.6638 83.3163 16.255 82.8571 19.467 79.5644C22.679 76.2717 23.024 71.6705 20.5587 69.2656ZM9.59107 69.9307C13.0298 66.4055 18.2517 65.6509 21.2406 68.5665C24.2296 71.4822 23.6048 76.7212 20.1661 80.2464C16.7274 83.7715 11.5055 84.5262 8.51653 81.6105C5.52756 78.6948 6.15234 73.4559 9.59107 69.9307Z" fill="black"/>
  <path d="M17.3455 77.4976C14.0201 80.9066 9.39116 81.7842 7.00637 79.4579C4.62157 77.1316 5.38404 72.4823 8.70939 69.0733C12.0347 65.6644 16.6637 64.7867 19.0485 67.113C21.4333 69.4393 20.6708 74.0887 17.3455 77.4976Z" fill="#FFFF52"/>
  <path fill-rule="evenodd" clip-rule="evenodd" d="M14.3234 66.4223C12.5622 66.7562 10.661 67.7728 9.0597 69.4144C7.45836 71.056 6.48931 72.9818 6.19921 74.7507C5.9088 76.5216 6.30117 78.0872 7.3481 79.1085C8.39503 80.1297 9.96995 80.4831 11.733 80.1488C13.4942 79.8149 15.3954 78.7984 16.9967 77.1568C18.598 75.5152 19.5671 73.5894 19.8572 71.8204C20.1476 70.0496 19.7552 68.4839 18.7083 67.4627C17.6614 66.4414 16.0865 66.088 14.3234 66.4223ZM14.1415 65.4628C16.1204 65.0876 18.0524 65.4585 19.3903 66.7636C20.7281 68.0686 21.1469 69.9908 20.8209 71.9785C20.4947 73.968 19.4198 76.0714 17.6958 77.8387C15.9718 79.6061 13.8958 80.7328 11.9149 81.1084C9.93598 81.4836 8.00401 81.1126 6.66615 79.8076C5.32829 78.5025 4.90949 76.5803 5.23546 74.5927C5.56174 72.6031 6.6366 70.4998 8.3606 68.7324C10.0846 66.9651 12.1606 65.8384 14.1415 65.4628Z" fill="black"/>
  <path fill-rule="evenodd" clip-rule="evenodd" d="M49.8214 44.2132L49.7808 44.1431L87.0569 21.3398L81.6432 14.2199L49.7738 43.9817L54.219 0.164551H45.2747L49.7246 44.0276L49.7178 44.034L49.6613 43.9362L35.8696 2.72001L27.7173 6.39987L49.4295 43.8752L49.0046 43.936L7.8717 29.9754L5.86657 38.692L48.3485 44.03L5.66406 50.1422L7.81909 58.823L48.8723 44.0958L49.4942 44.1739L49.53 44.2093L49.4767 44.2592L49.4748 44.2212L49.4676 44.2676L49.2594 44.462L49.456 44.3418L49.3248 45.1829L24.8304 81.0603L32.6886 85.3322L49.2127 45.9013L42.6429 88.0003L51.5743 88.4804L49.5198 45.1684L49.7794 44.5488L63.4654 85.6208L71.6223 81.9512L50.2042 44.8759L80.8683 75.1935L86.4828 68.2309L49.9486 44.4246L93.5539 38.2366L91.4098 29.5531L49.9171 44.3789L49.8225 44.2152L49.8299 44.2161L49.8214 44.2132ZM49.4394 43.8923L49.1655 43.9906L49.3837 44.0647L49.3596 44.0408L49.4098 44.0735L49.5774 44.1304L49.4394 43.8923ZM49.7723 44.5274L49.7475 44.4531L49.6844 44.4621L49.7435 44.441L49.7332 44.4103L49.5845 44.2632L49.4799 44.3272L49.5078 44.9149L49.7723 44.5274ZM66.2367 2.43495L74.1849 6.5371L49.9931 43.6591L66.2367 2.43495ZM94.2305 50.4483L92.1532 59.1481L50.3144 44.5603L94.2305 50.4483ZM17.3062 75.7421L11.6296 68.83L48.5349 44.3087L17.3062 75.7421ZM12.7788 18.7726L18.5584 11.9463L49.3123 43.8444L12.7788 18.7726Z" fill="url(#paint0_radial_27664_9530)"/>
  <path fill-rule="evenodd" clip-rule="evenodd" d="M74.1625 42.6336L81.6162 43.949L86.0015 7.99602L43.9101 6.68066L36.8945 37.3722L74.1625 42.6336ZM41.1645 34.4327L74.6529 39.1605C74.6927 39.1661 74.7325 39.1724 74.7721 39.1794L78.5823 39.8518L82.0549 11.382L46.6862 10.2767L41.1645 34.4327Z" fill="#919191"/>
  <path fill-rule="evenodd" clip-rule="evenodd" d="M74.1626 42.6337L36.8946 37.3723L43.9102 6.68073L86.0015 7.99608L81.6163 43.9491L74.1626 42.6337ZM74.0094 43.5984L81.4465 44.9108C81.7105 44.9574 81.982 44.8934 82.1974 44.7339C82.4129 44.5744 82.5532 44.3334 82.5857 44.0673L86.971 8.11433C87.0042 7.84204 86.9214 7.56834 86.7427 7.36016C86.5641 7.15198 86.3062 7.0285 86.032 7.01994L43.9407 5.70458C43.4739 5.69 43.0622 6.00787 42.9581 6.4631L35.9425 37.1547C35.8816 37.4211 35.9352 37.7009 36.0902 37.9261C36.2452 38.1512 36.4874 38.3011 36.7581 38.3393L74.0094 43.5984ZM74.7722 39.1795C74.7325 39.1725 74.6928 39.1662 74.6529 39.1605L41.1646 34.4327L46.6863 10.2768L82.0549 11.3821L78.5824 39.8519L74.7722 39.1795ZM77.7377 38.7111L74.9419 38.2177C74.8912 38.2088 74.8404 38.2007 74.7895 38.1935L42.3535 33.6143L47.4592 11.2781L80.9561 12.3248L77.7377 38.7111Z" fill="black"/>
  <path d="M40.3974 49.21L33.8203 47.8945L32.0664 49.21V53.1562L38.2051 54.9101L40.3974 53.1562V49.21Z" fill="#797979"/>
  <path fill-rule="evenodd" clip-rule="evenodd" d="M33.2344 47.1133C33.4567 46.9466 33.7394 46.8824 34.0119 46.9369L40.589 48.2524C41.0455 48.3437 41.3741 48.7445 41.3741 49.21V53.1563C41.3741 53.453 41.2393 53.7336 41.0076 53.9189L38.8152 55.6728C38.5683 55.8704 38.2409 55.9361 37.9368 55.8493L31.7982 54.0954C31.3789 53.9756 31.0898 53.5923 31.0898 53.1563V49.21C31.0898 48.9026 31.2346 48.6132 31.4805 48.4287L33.2344 47.1133ZM33.8204 47.8946L40.3975 49.21V53.1563L38.2051 54.9102L32.0665 53.1563V49.21L33.8204 47.8946Z" fill="black"/>
  <path d="M40.3955 49.209L38.2031 50.5244V54.9092L40.3955 53.1553V49.209Z" fill="#BDBDBD"/>
  <path d="M65.9854 48.9754C62.3529 48.9754 59.4082 47.6178 59.4082 45.9432C59.4082 45.1169 59.4082 43.2752 59.4082 43.2752C60.602 42.7138 64.1453 42.911 65.9854 42.911C67.8254 42.911 71.3687 42.7138 72.5624 43.2752C72.5624 43.2752 72.5625 45.1169 72.5625 45.9432C72.5625 47.6178 69.6178 48.9754 65.9854 48.9754Z" fill="#D99530"/>
  <path fill-rule="evenodd" clip-rule="evenodd" d="M72.0741 43.617C71.8582 43.5567 71.5767 43.5057 71.2344 43.4666C70.7282 43.4087 70.1337 43.3811 69.5082 43.3708C68.7255 43.3579 67.9324 43.3717 67.2152 43.3842C66.769 43.392 66.3521 43.3993 65.9853 43.3993C65.6186 43.3993 65.2017 43.392 64.7555 43.3842C64.0382 43.3717 63.2452 43.3579 62.4625 43.3708C61.8369 43.3811 61.2424 43.4087 60.7362 43.4666C60.3939 43.5057 60.1124 43.5567 59.8965 43.617L59.8965 45.9431C59.8965 46.4749 60.3847 47.1116 61.539 47.6437C62.6517 48.1567 64.2233 48.487 65.9853 48.487C67.7474 48.487 69.3189 48.1567 70.4316 47.6437C71.586 47.1116 72.0742 46.4749 72.0742 45.9431L72.0741 43.617ZM58.9199 43.2752L58.9199 42.9652L59.2004 42.8333C59.5743 42.6574 60.086 42.5579 60.6253 42.4963C61.1766 42.4332 61.8068 42.4048 62.4463 42.3943C63.2353 42.3813 64.0769 42.3957 64.8129 42.4083C65.2527 42.4158 65.6548 42.4227 65.9853 42.4227C66.3159 42.4227 66.718 42.4158 67.1577 42.4083C67.8937 42.3957 68.7353 42.3813 69.5243 42.3943C70.1638 42.4048 70.7939 42.4332 71.3453 42.4963C71.8846 42.5579 72.3962 42.6574 72.7702 42.8333L73.0506 42.9652L73.0507 43.2751L73.0508 45.9431C73.0508 47.086 72.0666 47.9654 70.8405 48.5307C69.5728 49.1151 67.8557 49.4636 65.9853 49.4636C64.115 49.4636 62.3979 49.1151 61.1302 48.5307C59.9041 47.9654 58.9199 47.086 58.9199 45.9431L58.9199 43.2752Z" fill="black"/>
  <path d="M65.9854 46.2704C62.3529 46.2704 59.4082 44.9128 59.4082 43.2382C59.4082 41.5636 62.3529 40.2061 65.9854 40.2061C69.6178 40.2061 72.5625 41.5636 72.5625 43.2382C72.5625 44.9128 69.6178 46.2704 65.9854 46.2704Z" fill="#FFFF52"/>
  <path fill-rule="evenodd" clip-rule="evenodd" d="M70.4316 41.5376C69.3189 41.0247 67.7474 40.6944 65.9853 40.6944C64.2233 40.6944 62.6517 41.0247 61.539 41.5376C60.3847 42.0698 59.8965 42.7065 59.8965 43.2382C59.8965 43.77 60.3847 44.4067 61.539 44.9389C62.6517 45.4518 64.2233 45.7821 65.9853 45.7821C67.7474 45.7821 69.3189 45.4518 70.4316 44.9389C71.586 44.4067 72.0742 43.77 72.0742 43.2382C72.0742 42.7065 71.586 42.0698 70.4316 41.5376ZM70.8405 40.6507C72.0666 41.216 73.0508 42.0954 73.0508 43.2382C73.0508 44.3811 72.0666 45.2605 70.8405 45.8258C69.5728 46.4102 67.8557 46.7587 65.9853 46.7587C64.115 46.7587 62.3979 46.4102 61.1302 45.8258C59.9041 45.2605 58.9199 44.3811 58.9199 43.2382C58.9199 42.0954 59.9041 41.216 61.1302 40.6507C62.3979 40.0663 64.115 39.7178 65.9853 39.7178C67.8557 39.7178 69.5728 40.0663 70.8405 40.6507Z" fill="black"/>
  <path d="M63.1377 42.634C59.5053 42.634 56.5606 41.2765 56.5606 39.6019C56.5606 38.7756 56.5606 36.9339 56.5606 36.9339C57.7543 36.3725 61.2977 36.5697 63.1377 36.5697C64.9778 36.5697 68.521 36.3725 69.7147 36.9339C69.7147 36.9339 69.7148 38.7756 69.7148 39.6019C69.7148 41.2765 66.7702 42.634 63.1377 42.634Z" fill="#D99530"/>
  <path fill-rule="evenodd" clip-rule="evenodd" d="M69.2264 37.2756C69.0105 37.2154 68.729 37.1644 68.3867 37.1253C67.8805 37.0674 67.286 37.0398 66.6605 37.0295C65.8778 37.0166 65.0848 37.0304 64.3676 37.0429C63.9213 37.0507 63.5044 37.058 63.1377 37.058C62.7709 37.058 62.3541 37.0507 61.9078 37.0429C61.1906 37.0304 60.3975 37.0166 59.6148 37.0295C58.9893 37.0398 58.3948 37.0674 57.8885 37.1253C57.5463 37.1644 57.2648 37.2154 57.0489 37.2756L57.0489 39.6018C57.0489 40.1336 57.537 40.7702 58.6914 41.3024C59.8041 41.8154 61.3756 42.1457 63.1377 42.1457C64.8998 42.1457 66.4713 41.8154 67.584 41.3024C68.7384 40.7702 69.2265 40.1336 69.2265 39.6018L69.2264 37.2756ZM56.0722 36.9339L56.0722 36.6239L56.3527 36.492C56.7267 36.3161 57.2383 36.2166 57.7776 36.155C58.329 36.0919 58.9591 36.0635 59.5987 36.053C60.3877 36.04 61.2293 36.0544 61.9653 36.067C62.405 36.0745 62.8071 36.0814 63.1377 36.0814C63.4683 36.0814 63.8703 36.0745 64.3101 36.067C65.0461 36.0544 65.8877 36.04 66.6766 36.053C67.3162 36.0635 67.9463 36.0919 68.4977 36.1549C69.0369 36.2166 69.5486 36.3161 69.9225 36.492L70.203 36.6239L70.203 36.9338L70.2031 39.6018C70.2031 40.7447 69.2189 41.6241 67.9929 42.1893C66.7251 42.7738 65.0081 43.1223 63.1377 43.1223C61.2673 43.1223 59.5502 42.7738 58.2825 42.1893C57.0564 41.6241 56.0722 40.7447 56.0722 39.6018L56.0722 36.9339Z" fill="black"/>
  <path d="M63.1377 39.9291C59.5053 39.9291 56.5606 38.5715 56.5606 36.8969C56.5606 35.2223 59.5053 33.8647 63.1377 33.8647C66.7702 33.8647 69.7148 35.2223 69.7148 36.8969C69.7148 38.5715 66.7702 39.9291 63.1377 39.9291Z" fill="#FFFF52"/>
  <path fill-rule="evenodd" clip-rule="evenodd" d="M67.584 35.1963C66.4713 34.6834 64.8998 34.3531 63.1377 34.3531C61.3756 34.3531 59.8041 34.6834 58.6914 35.1963C57.537 35.7285 57.0489 36.3652 57.0489 36.8969C57.0489 37.4287 57.537 38.0654 58.6914 38.5975C59.8041 39.1105 61.3756 39.4408 63.1377 39.4408C64.8998 39.4408 66.4713 39.1105 67.584 38.5975C68.7384 38.0654 69.2265 37.4287 69.2265 36.8969C69.2265 36.3652 68.7384 35.7285 67.584 35.1963ZM67.9929 34.3094C69.2189 34.8747 70.2031 35.7541 70.2031 36.8969C70.2031 38.0398 69.2189 38.9192 67.9929 39.4845C66.7251 40.0689 65.0081 40.4174 63.1377 40.4174C61.2673 40.4174 59.5502 40.0689 58.2825 39.4845C57.0564 38.9192 56.0722 38.0398 56.0722 36.8969C56.0722 35.7541 57.0564 34.8747 58.2825 34.3094C59.5502 33.725 61.2673 33.3765 63.1377 33.3765C65.0081 33.3765 66.7251 33.725 67.9929 34.3094Z" fill="black"/>
  <path d="M54.3643 50.5252C50.7318 50.5252 47.7871 49.1676 47.7871 47.493C47.7871 46.6667 47.7871 44.825 47.7871 44.825C48.9809 44.2636 52.5242 44.4608 54.3643 44.4608C56.2043 44.4608 59.7476 44.2636 60.9413 44.825C60.9413 44.825 60.9414 46.6667 60.9414 47.493C60.9414 49.1676 57.9967 50.5252 54.3643 50.5252Z" fill="#D99530"/>
  <path fill-rule="evenodd" clip-rule="evenodd" d="M60.453 45.1668C60.2371 45.1065 59.9556 45.0555 59.6133 45.0164C59.1071 44.9585 58.5126 44.9309 57.8871 44.9206C57.1044 44.9077 56.3113 44.9215 55.5941 44.934C55.1479 44.9418 54.731 44.9491 54.3642 44.9491C53.9975 44.9491 53.5806 44.9418 53.1344 44.934C52.4172 44.9215 51.6241 44.9077 50.8414 44.9206C50.2158 44.9309 49.6213 44.9585 49.1151 45.0164C48.7728 45.0555 48.4913 45.1065 48.2754 45.1668L48.2754 47.4929C48.2754 48.0247 48.7636 48.6614 49.9179 49.1935C51.0307 49.7065 52.6022 50.0368 54.3642 50.0368C56.1263 50.0368 57.6978 49.7065 58.8105 49.1935C59.9649 48.6614 60.4531 48.0247 60.4531 47.4929L60.453 45.1668ZM47.2988 44.825L47.2988 44.515L47.5793 44.3831C47.9533 44.2072 48.4649 44.1077 49.0042 44.0461C49.5556 43.983 50.1857 43.9546 50.8252 43.9441C51.6142 43.9311 52.4559 43.9455 53.1919 43.9581C53.6316 43.9656 54.0337 43.9725 54.3642 43.9725C54.6948 43.9725 55.0969 43.9656 55.5366 43.9581C56.2726 43.9455 57.1142 43.9311 57.9032 43.9441C58.5427 43.9546 59.1728 43.983 59.7242 44.0461C60.2635 44.1077 60.7751 44.2072 61.1491 44.3831L61.4296 44.515L61.4296 44.825L61.4297 47.4929C61.4297 48.6358 60.4455 49.5152 59.2194 50.0805C57.9517 50.6649 56.2346 51.0134 54.3642 51.0134C52.4939 51.0134 50.7768 50.6649 49.5091 50.0805C48.283 49.5152 47.2988 48.6358 47.2988 47.4929L47.2988 44.825Z" fill="black"/>
  <path d="M54.3643 47.8202C50.7318 47.8202 47.7871 46.4626 47.7871 44.788C47.7871 43.1134 50.7318 41.7559 54.3643 41.7559C57.9967 41.7559 60.9414 43.1134 60.9414 44.788C60.9414 46.4626 57.9967 47.8202 54.3643 47.8202Z" fill="#FFFF52"/>
  <path fill-rule="evenodd" clip-rule="evenodd" d="M58.8105 43.0874C57.6978 42.5745 56.1263 42.2442 54.3642 42.2442C52.6022 42.2442 51.0307 42.5745 49.9179 43.0874C48.7636 43.6196 48.2754 44.2563 48.2754 44.7881C48.2754 45.3198 48.7636 45.9565 49.9179 46.4887C51.0307 47.0016 52.6022 47.3319 54.3642 47.3319C56.1263 47.3319 57.6978 47.0016 58.8105 46.4887C59.9649 45.9565 60.4531 45.3198 60.4531 44.7881C60.4531 44.2563 59.9649 43.6196 58.8105 43.0874ZM59.2194 42.2005C60.4455 42.7658 61.4297 43.6452 61.4297 44.7881C61.4297 45.9309 60.4455 46.8103 59.2194 47.3756C57.9517 47.96 56.2346 48.3085 54.3642 48.3085C52.4939 48.3085 50.7768 47.96 49.5091 47.3756C48.283 46.8103 47.2988 45.9309 47.2988 44.7881C47.2988 43.6452 48.283 42.7658 49.5091 42.2005C50.7768 41.6161 52.4939 41.2676 54.3642 41.2676C56.2346 41.2676 57.9517 41.6161 59.2194 42.2005Z" fill="black"/>
  <path d="M32.4463 46.1414C28.8139 46.1414 25.8692 44.7838 25.8692 43.1092C25.8692 42.2829 25.8692 40.4413 25.8692 40.4413C27.0629 39.8798 30.6063 40.077 32.4463 40.077C34.2864 40.077 37.8296 39.8798 39.0233 40.4413C39.0233 40.4413 39.0234 42.2829 39.0234 43.1092C39.0234 44.7838 36.0788 46.1414 32.4463 46.1414Z" fill="#D99530"/>
  <path fill-rule="evenodd" clip-rule="evenodd" d="M38.535 40.783C38.3191 40.7227 38.0376 40.6717 37.6953 40.6326C37.1891 40.5747 36.5946 40.5471 35.9691 40.5368C35.1864 40.5239 34.3934 40.5377 33.6762 40.5502C33.2299 40.558 32.813 40.5653 32.4463 40.5653C32.0795 40.5653 31.6626 40.558 31.2164 40.5502C30.4992 40.5377 29.7061 40.5239 28.9234 40.5368C28.2979 40.5471 27.7034 40.5747 27.1971 40.6326C26.8549 40.6717 26.5734 40.7227 26.3575 40.783L26.3575 43.1092C26.3575 43.6409 26.8456 44.2776 28 44.8098C29.1127 45.3227 30.6842 45.653 32.4463 45.653C34.2083 45.653 35.7799 45.3227 36.8926 44.8098C38.0469 44.2776 38.5351 43.6409 38.5351 43.1092L38.535 40.783ZM25.3808 40.4412L25.3808 40.1312L25.6613 39.9993C26.0353 39.8234 26.5469 39.7239 27.0862 39.6623C27.6376 39.5992 28.2677 39.5709 28.9073 39.5603C29.6963 39.5473 30.5379 39.5617 31.2739 39.5743C31.7136 39.5818 32.1157 39.5887 32.4463 39.5887C32.7769 39.5887 33.1789 39.5818 33.6187 39.5743C34.3547 39.5617 35.1963 39.5473 35.9852 39.5603C36.6247 39.5709 37.2549 39.5992 37.8063 39.6623C38.3455 39.7239 38.8572 39.8234 39.2311 39.9993L39.5116 40.1312L39.5116 40.4412L39.5117 43.1092C39.5117 44.252 38.5275 45.1314 37.3014 45.6967C36.0337 46.2811 34.3166 46.6296 32.4463 46.6296C30.5759 46.6296 28.8588 46.2811 27.5911 45.6967C26.365 45.1314 25.3808 44.252 25.3808 43.1092L25.3808 40.4412Z" fill="black"/>
  <path d="M32.4463 43.4364C28.8139 43.4364 25.8692 42.0788 25.8692 40.4042C25.8692 38.7296 28.8139 37.3721 32.4463 37.3721C36.0788 37.3721 39.0234 38.7296 39.0234 40.4042C39.0234 42.0788 36.0788 43.4364 32.4463 43.4364Z" fill="#FFFF52"/>
  <path fill-rule="evenodd" clip-rule="evenodd" d="M36.8926 38.7037C35.7799 38.1907 34.2083 37.8604 32.4463 37.8604C30.6842 37.8604 29.1127 38.1907 28 38.7037C26.8456 39.2358 26.3575 39.8725 26.3575 40.4043C26.3575 40.936 26.8456 41.5727 28 42.1049C29.1127 42.6178 30.6842 42.9481 32.4463 42.9481C34.2083 42.9481 35.7799 42.6178 36.8926 42.1049C38.0469 41.5727 38.5351 40.936 38.5351 40.4043C38.5351 39.8725 38.0469 39.2358 36.8926 38.7037ZM37.3014 37.8167C38.5275 38.382 39.5117 39.2614 39.5117 40.4043C39.5117 41.5471 38.5275 42.4265 37.3014 42.9918C36.0337 43.5762 34.3166 43.9247 32.4463 43.9247C30.5759 43.9247 28.8588 43.5762 27.5911 42.9918C26.365 42.4265 25.3808 41.5471 25.3808 40.4043C25.3808 39.2614 26.365 38.382 27.5911 37.8167C28.8588 37.2323 30.5759 36.8838 32.4463 36.8838C34.3166 36.8838 36.0337 37.2323 37.3014 37.8167Z" fill="black"/>
  <path d="M54.3643 45.2639C50.7318 45.2639 47.7871 43.9064 47.7871 42.2318C47.7871 41.4054 47.7871 39.5638 47.7871 39.5638C48.9809 39.0024 52.5242 39.1996 54.3643 39.1996C56.2043 39.1996 59.7476 39.0024 60.9413 39.5638C60.9413 39.5638 60.9414 41.4054 60.9414 42.2318C60.9414 43.9064 57.9967 45.2639 54.3643 45.2639Z" fill="#D99530"/>
  <path fill-rule="evenodd" clip-rule="evenodd" d="M60.453 39.9055C60.2371 39.8452 59.9556 39.7943 59.6133 39.7551C59.1071 39.6973 58.5126 39.6697 57.8871 39.6594C57.1044 39.6464 56.3113 39.6603 55.5941 39.6728C55.1479 39.6806 54.731 39.6879 54.3642 39.6879C53.9975 39.6879 53.5806 39.6806 53.1344 39.6728C52.4172 39.6603 51.6241 39.6464 50.8414 39.6594C50.2158 39.6697 49.6213 39.6973 49.1151 39.7551C48.7728 39.7943 48.4913 39.8452 48.2754 39.9055L48.2754 42.2317C48.2754 42.7634 48.7636 43.4001 49.9179 43.9323C51.0307 44.4453 52.6022 44.7756 54.3642 44.7756C56.1263 44.7756 57.6978 44.4453 58.8105 43.9323C59.9649 43.4001 60.4531 42.7634 60.4531 42.2317L60.453 39.9055ZM47.2988 39.5638L47.2988 39.2538L47.5793 39.1219C47.9533 38.946 48.4649 38.8465 49.0042 38.7848C49.5556 38.7218 50.1857 38.6934 50.8252 38.6829C51.6142 38.6698 52.4559 38.6842 53.1919 38.6968C53.6316 38.7044 54.0337 38.7112 54.3642 38.7112C54.6948 38.7112 55.0969 38.7044 55.5366 38.6968C56.2726 38.6842 57.1142 38.6698 57.9032 38.6829C58.5427 38.6934 59.1728 38.7218 59.7242 38.7848C60.2635 38.8465 60.7751 38.946 61.1491 39.1219L61.4296 39.2538L61.4296 39.5637L61.4297 42.2317C61.4297 43.3746 60.4455 44.254 59.2194 44.8192C57.9517 45.4037 56.2346 45.7522 54.3642 45.7522C52.4939 45.7522 50.7768 45.4037 49.5091 44.8192C48.283 44.254 47.2988 43.3746 47.2988 42.2317L47.2988 39.5638Z" fill="black"/>
  <path d="M54.3643 42.559C50.7318 42.559 47.7871 41.2014 47.7871 39.5268C47.7871 37.8522 50.7318 36.4946 54.3643 36.4946C57.9967 36.4946 60.9414 37.8522 60.9414 39.5268C60.9414 41.2014 57.9967 42.559 54.3643 42.559Z" fill="#FFFF52"/>
  <path fill-rule="evenodd" clip-rule="evenodd" d="M58.8105 37.8262C57.6978 37.3132 56.1263 36.983 54.3642 36.983C52.6022 36.983 51.0307 37.3132 49.9179 37.8262C48.7636 38.3584 48.2754 38.9951 48.2754 39.5268C48.2754 40.0586 48.7636 40.6952 49.9179 41.2274C51.0307 41.7404 52.6022 42.0707 54.3642 42.0707C56.1263 42.0707 57.6978 41.7404 58.8105 41.2274C59.9649 40.6952 60.4531 40.0586 60.4531 39.5268C60.4531 38.9951 59.9649 38.3584 58.8105 37.8262ZM59.2194 36.9393C60.4455 37.5045 61.4297 38.3839 61.4297 39.5268C61.4297 40.6697 60.4455 41.5491 59.2194 42.1143C57.9517 42.6988 56.2346 43.0473 54.3642 43.0473C52.4939 43.0473 50.7768 42.6988 49.5091 42.1143C48.283 41.5491 47.2988 40.6697 47.2988 39.5268C47.2988 38.3839 48.283 37.5045 49.5091 36.9393C50.7768 36.3549 52.4939 36.0063 54.3642 36.0063C56.2346 36.0063 57.9517 36.3549 59.2194 36.9393Z" fill="black"/>
  <path d="M35.0752 41.7566C31.4428 41.7566 28.4981 40.3991 28.4981 38.7244C28.4981 37.8981 28.4981 36.0565 28.4981 36.0565C29.6918 35.495 33.2352 35.6923 35.0752 35.6923C36.9153 35.6923 40.4585 35.495 41.6522 36.0565C41.6522 36.0565 41.6523 37.8981 41.6523 38.7244C41.6523 40.3991 38.7077 41.7566 35.0752 41.7566Z" fill="#D99530"/>
  <path fill-rule="evenodd" clip-rule="evenodd" d="M41.1639 36.3987C40.948 36.3384 40.6665 36.2874 40.3242 36.2483C39.818 36.1904 39.2235 36.1628 38.598 36.1525C37.8153 36.1396 37.0223 36.1534 36.3051 36.166C35.8588 36.1737 35.4419 36.181 35.0752 36.181C34.7084 36.181 34.2916 36.1737 33.8453 36.166C33.1281 36.1534 32.335 36.1396 31.5523 36.1525C30.9268 36.1628 30.3323 36.1904 29.826 36.2483C29.4838 36.2874 29.2023 36.3384 28.9864 36.3987L28.9864 38.7249C28.9864 39.2566 29.4745 39.8933 30.6289 40.4255C31.7416 40.9385 33.3131 41.2687 35.0752 41.2687C36.8373 41.2687 38.4088 40.9385 39.5215 40.4255C40.6759 39.8933 41.164 39.2566 41.164 38.7249L41.1639 36.3987ZM28.0097 36.0569L28.0097 35.747L28.2902 35.615C28.6642 35.4391 29.1758 35.3397 29.7151 35.278C30.2665 35.215 30.8966 35.1866 31.5362 35.176C32.3252 35.163 33.1668 35.1774 33.9028 35.19C34.3425 35.1975 34.7446 35.2044 35.0752 35.2044C35.4058 35.2044 35.8078 35.1975 36.2476 35.19C36.9836 35.1774 37.8252 35.163 38.6141 35.176C39.2537 35.1866 39.8838 35.215 40.4352 35.278C40.9744 35.3397 41.4861 35.4391 41.86 35.615L42.1405 35.747L42.1405 36.0569L42.1406 38.7249C42.1406 39.8678 41.1564 40.7472 39.9304 41.3124C38.6626 41.8968 36.9456 42.2453 35.0752 42.2453C33.2048 42.2453 31.4877 41.8968 30.22 41.3124C28.9939 40.7472 28.0097 39.8678 28.0097 38.7249L28.0097 36.0569Z" fill="black"/>
  <path d="M35.0752 39.0516C31.4428 39.0516 28.4981 37.6941 28.4981 36.0195C28.4981 34.3448 31.4428 32.9873 35.0752 32.9873C38.7077 32.9873 41.6523 34.3448 41.6523 36.0195C41.6523 37.6941 38.7077 39.0516 35.0752 39.0516Z" fill="#FFFF52"/>
  <path fill-rule="evenodd" clip-rule="evenodd" d="M39.5215 34.3189C38.4088 33.8059 36.8373 33.4756 35.0752 33.4756C33.3131 33.4756 31.7416 33.8059 30.6289 34.3189C29.4745 34.8511 28.9864 35.4878 28.9864 36.0195C28.9864 36.5512 29.4745 37.1879 30.6289 37.7201C31.7416 38.2331 33.3131 38.5633 35.0752 38.5633C36.8373 38.5633 38.4088 38.2331 39.5215 37.7201C40.6759 37.1879 41.164 36.5512 41.164 36.0195C41.164 35.4878 40.6759 34.8511 39.5215 34.3189ZM39.9304 33.432C41.1564 33.9972 42.1406 34.8766 42.1406 36.0195C42.1406 37.1624 41.1564 38.0418 39.9304 38.607C38.6626 39.1915 36.9456 39.54 35.0752 39.54C33.2048 39.54 31.4877 39.1915 30.22 38.607C28.9939 38.0418 28.0097 37.1624 28.0097 36.0195C28.0097 34.8766 28.9939 33.9972 30.22 33.432C31.4877 32.8475 33.2048 32.499 35.0752 32.499C36.9456 32.499 38.6626 32.8475 39.9304 33.432Z" fill="black"/>
  <path d="M42.9697 36.4959C39.3373 36.4959 36.3926 35.1383 36.3926 33.4637C36.3926 32.6374 36.3926 30.7957 36.3926 30.7957C37.5863 30.2343 41.1297 30.4315 42.9697 30.4315C44.8098 30.4315 48.353 30.2343 49.5468 30.7957C49.5468 30.7957 49.5469 32.6374 49.5469 33.4637C49.5469 35.1383 46.6022 36.4959 42.9697 36.4959Z" fill="#D99530"/>
  <path fill-rule="evenodd" clip-rule="evenodd" d="M49.0584 31.138C48.8425 31.0777 48.561 31.0267 48.2188 30.9876C47.7125 30.9297 47.118 30.9021 46.4925 30.8918C45.7098 30.8789 44.9168 30.8927 44.1996 30.9052C43.7533 30.913 43.3365 30.9203 42.9697 30.9203C42.603 30.9203 42.1861 30.913 41.7398 30.9052C41.0226 30.8927 40.2295 30.8789 39.4468 30.8918C38.8213 30.9021 38.2268 30.9297 37.7206 30.9876C37.3783 31.0267 37.0968 31.0777 36.8809 31.138L36.8809 33.4641C36.8809 33.9959 37.369 34.6326 38.5234 35.1647C39.6361 35.6777 41.2076 36.008 42.9697 36.008C44.7318 36.008 46.3033 35.6777 47.416 35.1647C48.5704 34.6326 49.0585 33.9959 49.0585 33.4641L49.0584 31.138ZM35.9043 30.7962L35.9043 30.4862L36.1847 30.3543C36.5587 30.1784 37.0704 30.0789 37.6096 30.0173C38.161 29.9542 38.7912 29.9258 39.4307 29.9153C40.2197 29.9023 41.0613 29.9167 41.7973 29.9293C42.2371 29.9368 42.6391 29.9437 42.9697 29.9437C43.3003 29.9437 43.7024 29.9368 44.1421 29.9293C44.8781 29.9167 45.7197 29.9023 46.5086 29.9153C47.1482 29.9258 47.7783 29.9542 48.3297 30.0173C48.869 30.0789 49.3806 30.1784 49.7546 30.3543L50.035 30.4862L50.035 30.7961L50.0352 33.4641C50.0352 34.607 49.051 35.4864 47.8249 36.0517C46.5571 36.6361 44.8401 36.9846 42.9697 36.9846C41.0993 36.9846 39.3823 36.6361 38.1145 36.0517C36.8885 35.4864 35.9043 34.607 35.9043 33.4641L35.9043 30.7962Z" fill="black"/>
  <path d="M42.9697 33.7914C39.3373 33.7914 36.3926 32.4338 36.3926 30.7592C36.3926 29.0846 39.3373 27.7271 42.9697 27.7271C46.6022 27.7271 49.5469 29.0846 49.5469 30.7592C49.5469 32.4338 46.6022 33.7914 42.9697 33.7914Z" fill="#FFFF52"/>
  <path fill-rule="evenodd" clip-rule="evenodd" d="M47.416 29.0581C46.3033 28.5452 44.7318 28.2149 42.9697 28.2149C41.2076 28.2149 39.6361 28.5452 38.5234 29.0581C37.369 29.5903 36.8809 30.227 36.8809 30.7588C36.8809 31.2905 37.369 31.9272 38.5234 32.4594C39.6361 32.9723 41.2076 33.3026 42.9697 33.3026C44.7318 33.3026 46.3033 32.9723 47.416 32.4594C48.5704 31.9272 49.0585 31.2905 49.0585 30.7588C49.0585 30.227 48.5704 29.5903 47.416 29.0581ZM47.8249 28.1712C49.051 28.7365 50.0352 29.6159 50.0352 30.7588C50.0352 31.9016 49.051 32.781 47.8249 33.3463C46.5571 33.9307 44.8401 34.2792 42.9697 34.2792C41.0993 34.2792 39.3823 33.9307 38.1145 33.3463C36.8885 32.781 35.9043 31.9016 35.9043 30.7588C35.9043 29.6159 36.8885 28.7365 38.1145 28.1712C39.3823 27.5868 41.0993 27.2383 42.9697 27.2383C44.8401 27.2383 46.5571 27.5868 47.8249 28.1712Z" fill="black"/>
  <path d="M47.5688 45.1108C46.1311 48.4467 42.8023 50.2185 40.1336 49.0684C37.4649 47.9183 36.467 44.2817 37.9047 40.9458C39.3424 37.61 42.6712 35.8381 45.3399 36.9883C48.0085 38.1384 49.0065 41.775 47.5688 45.1108Z" fill="#D99530"/>
  <path fill-rule="evenodd" clip-rule="evenodd" d="M45.1479 37.4368C42.8151 36.4314 39.7278 37.9525 38.3544 41.1392C36.981 44.3259 37.9953 47.6147 40.3281 48.6201C42.6609 49.6254 45.7482 48.1044 47.1216 44.9177C48.495 41.7309 47.4807 38.4422 45.1479 37.4368ZM37.4575 40.7527C38.9594 37.2677 42.5299 35.245 45.5344 36.5399C48.5389 37.8348 49.5204 41.8193 48.0185 45.3042C46.5166 48.7892 42.9462 50.8118 39.9416 49.5169C36.9371 48.2221 35.9556 44.2376 37.4575 40.7527Z" fill="black"/>
  <path d="M45.1547 44.0698C43.7171 47.4057 40.3882 49.1775 37.7195 48.0274C35.0509 46.8772 34.053 43.2406 35.4906 39.9048C36.9283 36.569 40.2571 34.7971 42.9258 35.9472C45.5945 37.0974 46.5924 40.734 45.1547 44.0698Z" fill="#FFFF52"/>
  <path fill-rule="evenodd" clip-rule="evenodd" d="M42.7299 36.3953C40.3971 35.3899 37.3098 36.911 35.9364 40.0977C34.563 43.2844 35.5774 46.5732 37.9102 47.5786C40.243 48.5839 43.3302 47.0629 44.7037 43.8762C46.0771 40.6894 45.0627 37.4007 42.7299 36.3953ZM35.0395 39.7112C36.5415 36.2262 40.1119 34.2035 43.1164 35.4984C46.121 36.7933 47.1025 40.7777 45.6005 44.2627C44.0986 47.7476 40.5282 49.7703 37.5236 48.4754C34.5191 47.1805 33.5376 43.1961 35.0395 39.7112Z" fill="black"/>
  <path d="M51.7354 40.0032C48.1029 40.0032 45.1582 38.6456 45.1582 36.971C45.1582 36.1447 45.1582 34.3031 45.1582 34.3031C46.352 33.7416 49.8953 33.9389 51.7354 33.9389C53.5754 33.9389 57.1187 33.7416 58.3124 34.3031C58.3124 34.3031 58.3125 36.1447 58.3125 36.971C58.3125 38.6456 55.3678 40.0032 51.7354 40.0032Z" fill="#D99530"/>
  <path fill-rule="evenodd" clip-rule="evenodd" d="M57.8241 34.6453C57.6082 34.585 57.3267 34.534 56.9844 34.4949C56.4782 34.437 55.8837 34.4094 55.2582 34.3991C54.4755 34.3862 53.6824 34.4 52.9652 34.4125C52.519 34.4203 52.1021 34.4276 51.7353 34.4276C51.3686 34.4276 50.9517 34.4203 50.5055 34.4125C49.7882 34.4 48.9952 34.3862 48.2125 34.3991C47.5869 34.4094 46.9924 34.437 46.4862 34.4949C46.1439 34.534 45.8624 34.585 45.6465 34.6453L45.6465 36.9715C45.6465 37.5032 46.1347 38.1399 47.289 38.6721C48.4017 39.185 49.9733 39.5153 51.7353 39.5153C53.4974 39.5153 55.0689 39.185 56.1816 38.6721C57.336 38.1399 57.8242 37.5032 57.8242 36.9715L57.8241 34.6453ZM44.6699 34.3035L44.6699 33.9935L44.9504 33.8616C45.3243 33.6857 45.836 33.5862 46.3753 33.5246C46.9266 33.4615 47.5568 33.4332 48.1963 33.4226C48.9853 33.4096 49.8269 33.424 50.5629 33.4366C51.0027 33.4441 51.4048 33.451 51.7353 33.451C52.0659 33.451 52.468 33.4441 52.9077 33.4366C53.6437 33.424 54.4853 33.4096 55.2743 33.4226C55.9138 33.4332 56.5439 33.4615 57.0953 33.5246C57.6346 33.5862 58.1462 33.6857 58.5202 33.8616L58.8006 33.9935L58.8007 34.3035L58.8008 36.9715C58.8008 38.1143 57.8166 38.9937 56.5905 39.559C55.3228 40.1434 53.6057 40.4919 51.7353 40.4919C49.865 40.4919 48.1479 40.1434 46.8802 39.559C45.6541 38.9937 44.6699 38.1143 44.6699 36.9715L44.6699 34.3035Z" fill="black"/>
  <path d="M51.7354 37.2982C48.1029 37.2982 45.1582 35.9407 45.1582 34.266C45.1582 32.5914 48.1029 31.2339 51.7354 31.2339C55.3678 31.2339 58.3125 32.5914 58.3125 34.266C58.3125 35.9407 55.3678 37.2982 51.7354 37.2982Z" fill="#FFFF52"/>
  <path fill-rule="evenodd" clip-rule="evenodd" d="M56.1816 32.5655C55.0689 32.0525 53.4974 31.7222 51.7353 31.7222C49.9733 31.7222 48.4017 32.0525 47.289 32.5655C46.1347 33.0977 45.6465 33.7343 45.6465 34.2661C45.6465 34.7978 46.1347 35.4345 47.289 35.9667C48.4017 36.4797 49.9733 36.8099 51.7353 36.8099C53.4974 36.8099 55.0689 36.4797 56.1816 35.9667C57.336 35.4345 57.8242 34.7978 57.8242 34.2661C57.8242 33.7343 57.336 33.0977 56.1816 32.5655ZM56.5905 31.6786C57.8166 32.2438 58.8008 33.1232 58.8008 34.2661C58.8008 35.409 57.8166 36.2884 56.5905 36.8536C55.3228 37.438 53.6057 37.7866 51.7353 37.7866C49.865 37.7866 48.1479 37.438 46.8802 36.8536C45.6541 36.2884 44.6699 35.409 44.6699 34.2661C44.6699 33.1232 45.6541 32.2438 46.8802 31.6786C48.1479 31.0941 49.865 30.7456 51.7353 30.7456C53.6057 30.7456 55.3228 31.0941 56.5905 31.6786Z" fill="black"/>
  <path d="M57.5694 36.31C54.1039 35.2212 51.7015 33.0434 52.2035 31.4458C52.4512 30.6575 53.0032 28.9005 53.0032 28.9005C54.3103 28.7227 57.6316 29.9729 59.3871 30.5245C61.1425 31.076 64.582 31.9499 65.5525 32.8433C65.5525 32.8433 65.0006 34.6003 64.7529 35.3887C64.251 36.9863 61.0348 37.3988 57.5694 36.31Z" fill="#D99530"/>
  <path fill-rule="evenodd" clip-rule="evenodd" d="M64.9853 33.0231C64.7974 32.9009 64.5441 32.7679 64.2293 32.6279C63.7637 32.421 63.2048 32.2165 62.6112 32.0191C61.8684 31.7722 61.1076 31.5477 60.4196 31.3447C59.9916 31.2184 59.5917 31.1003 59.2418 30.9904C58.8919 30.8805 58.4964 30.7486 58.073 30.6074C57.3925 30.3805 56.64 30.1295 55.8894 29.9073C55.2896 29.7296 54.7141 29.5777 54.2138 29.4812C53.8756 29.4159 53.5918 29.3802 53.3677 29.373L52.6704 31.5922C52.5111 32.0995 52.7859 32.8532 53.7277 33.707C54.6355 34.5299 56.0358 35.316 57.7168 35.8442C59.3979 36.3723 60.9961 36.5283 62.2114 36.3724C63.4722 36.2107 64.1288 35.7497 64.2882 35.2424L64.9853 33.0231ZM52.5384 28.7542L52.6313 28.4585L52.9385 28.4167C53.348 28.361 53.8659 28.4194 54.3988 28.5223C54.9438 28.6274 55.5535 28.7892 56.1668 28.9708C56.9234 29.1949 57.722 29.4609 58.4204 29.6935C58.8376 29.8325 59.2192 29.9596 59.5345 30.0587C59.8499 30.1578 60.2356 30.2717 60.6573 30.3964C61.3633 30.605 62.1705 30.8435 62.9193 31.0924C63.5262 31.2941 64.1189 31.5101 64.626 31.7355C65.122 31.956 65.5803 32.2042 65.8843 32.4841L66.1124 32.6941L66.0195 32.9897L65.2199 35.5351C64.8773 36.6254 63.6748 37.1694 62.3357 37.3411C60.951 37.5187 59.2084 37.3365 57.4241 36.7759C55.6397 36.2153 54.1061 35.3681 53.0718 34.4305C52.0715 33.5238 51.3962 32.3898 51.7387 31.2995L52.5384 28.7542Z" fill="black"/>
  <path d="M58.3802 33.7291C54.9148 32.6403 52.5124 30.4625 53.0144 28.8649C53.5163 27.2673 56.7325 26.8548 60.1979 27.9436C63.6634 29.0324 66.0657 31.2102 65.5638 32.8078C65.0618 34.4054 61.8456 34.8179 58.3802 33.7291Z" fill="#FFFF52"/>
  <path fill-rule="evenodd" clip-rule="evenodd" d="M64.0417 30.5468C63.1339 29.7239 61.7337 28.9378 60.0526 28.4096C58.3716 27.8814 56.7733 27.7255 55.558 27.8813C54.2972 28.043 53.6406 28.5041 53.4813 29.0114C53.3219 29.5187 53.5967 30.2724 54.5385 31.1262C55.4463 31.9491 56.8466 32.7352 58.5276 33.2634C60.2087 33.7916 61.8069 33.9475 63.0222 33.7917C64.2831 33.63 64.9396 33.1689 65.099 32.6616C65.2584 32.1543 64.9835 31.4006 64.0417 30.5468ZM64.6976 29.8233C65.6979 30.73 66.3733 31.864 66.0307 32.9543C65.6881 34.0446 64.4856 34.5886 63.1465 34.7603C61.7618 34.9379 60.0193 34.7557 58.2349 34.1951C56.4505 33.6345 54.9169 32.7873 53.8826 31.8497C52.8823 30.943 52.207 29.809 52.5495 28.7187C52.8921 27.6284 54.0946 27.0844 55.4338 26.9127C56.8184 26.7351 58.561 26.9173 60.3454 27.4779C62.1297 28.0385 63.6634 28.8857 64.6976 29.8233Z" fill="black"/>
  <defs>
    <radialGradient id="paint0_radial_27664_9530" cx="0" cy="0" r="1" gradientUnits="userSpaceOnUse" gradientTransform="translate(49.9473 44.3225) rotate(90) scale(44.1579 44.2832)">
      <stop stop-color="#EBF479"/>
      <stop offset="1" stop-color="#EBF479" stop-opacity="0"/>
    </radialGradient>
  </defs>
</svg>
