<svg width="390" height="154" viewBox="0 0 390 154" fill="none" xmlns="http://www.w3.org/2000/svg">
  <g filter="url(#filter0_d_33800_1745)">
  <path d="M87.5 67C136.929 67 177 54.9117 177 40V28H-2V40C-2 54.9117 38.0705 67 87.5 67Z" fill="#252445"/>
  <path d="M87.5 67C136.929 67 177 54.9117 177 40V28H-2V40C-2 54.9117 38.0705 67 87.5 67Z" stroke="black" stroke-linecap="round" stroke-linejoin="round"/>
  </g>
  <ellipse cx="87.5" cy="27.5" rx="89.5" ry="26.5" fill="#57568B" stroke="black" stroke-linecap="round" stroke-linejoin="round"/>
  <ellipse opacity="0.5" cx="87.5" cy="27.5" rx="71.5" ry="17.5" fill="black"/>
  <g filter="url(#filter1_i_33800_1745)">
  <path d="M155 48C152.791 48 151 50.0147 151 52.5V59C152.667 58.5 157 57.3 159 56.5V52.5C159 50.0147 157.209 48 155 48Z" fill="#55558C"/>
  </g>
  <path d="M155 48C152.791 48 151 50.0147 151 52.5V59C152.667 58.5 157 57.3 159 56.5V52.5C159 50.0147 157.209 48 155 48Z" stroke="black" stroke-linecap="round" stroke-linejoin="round"/>
  <g filter="url(#filter2_i_33800_1745)">
  <path d="M48.5 55C50.7091 55 53 57.0147 53 59.5V65C51.5 65 47 64.3 45 63.5V58.5C45 56.0147 46.2909 55 48.5 55Z" fill="#55558C"/>
  </g>
  <path d="M48.5 55C50.7091 55 53 57.0147 53 59.5V65C51.5 65 47 64.3 45 63.5V58.5C45 56.0147 46.2909 55 48.5 55Z" stroke="black" stroke-linecap="round" stroke-linejoin="round"/>
  <g filter="url(#filter3_di_33800_1745)">
  <path fill-rule="evenodd" clip-rule="evenodd" d="M153.09 54.2731C153.492 52.6657 155.121 51.6884 156.728 52.0903L228.728 70.0903C230.067 70.4251 231.005 71.6303 231.001 73.0106C230.996 74.3909 230.05 75.59 228.709 75.9159L186.732 86.116L405.264 143.599C406.866 144.021 407.824 145.662 407.402 147.264C406.981 148.866 405.34 149.824 403.738 149.402L173.738 88.902C172.409 88.5526 171.488 87.3458 171.501 85.9724C171.514 84.599 172.458 83.4098 173.792 83.0855L215.466 72.9593L155.273 57.9111C153.666 57.5093 152.688 55.8805 153.09 54.2731Z" fill="#3B3A68"/>
  <path fill-rule="evenodd" clip-rule="evenodd" d="M153.09 54.2731C153.492 52.6657 155.121 51.6884 156.728 52.0903L228.728 70.0903C230.067 70.4251 231.005 71.6303 231.001 73.0106C230.996 74.3909 230.05 75.59 228.709 75.9159L186.732 86.116L405.264 143.599C406.866 144.021 407.824 145.662 407.402 147.264C406.981 148.866 405.34 149.824 403.738 149.402L173.738 88.902C172.409 88.5526 171.488 87.3458 171.501 85.9724C171.514 84.599 172.458 83.4098 173.792 83.0855L215.466 72.9593L155.273 57.9111C153.666 57.5093 152.688 55.8805 153.09 54.2731Z" stroke="black" stroke-linecap="round" stroke-linejoin="round"/>
  </g>
  <g filter="url(#filter4_di_33800_1745)">
  <path fill-rule="evenodd" clip-rule="evenodd" d="M49.8378 59.1289C51.1474 60.1438 51.3863 62.0283 50.3713 63.3379L34.8713 83.3379C34.1715 84.2409 33.0195 84.668 31.9002 84.4396L8.81897 79.7291L-49.0717 128.298C-50.341 129.363 -52.2333 129.198 -53.2982 127.928C-54.3631 126.659 -54.1974 124.767 -52.9281 123.702L6.07186 74.2019C6.77272 73.6139 7.70358 73.3778 8.59995 73.5607L31.2718 78.1876L45.6288 59.6624C46.6438 58.3528 48.5282 58.114 49.8378 59.1289Z" fill="#3B3A68"/>
  <path fill-rule="evenodd" clip-rule="evenodd" d="M49.8378 59.1289C51.1474 60.1438 51.3863 62.0283 50.3713 63.3379L34.8713 83.3379C34.1715 84.2409 33.0195 84.668 31.9002 84.4396L8.81897 79.7291L-49.0717 128.298C-50.341 129.363 -52.2333 129.198 -53.2982 127.928C-54.3631 126.659 -54.1974 124.767 -52.9281 123.702L6.07186 74.2019C6.77272 73.6139 7.70358 73.3778 8.59995 73.5607L31.2718 78.1876L45.6288 59.6624C46.6438 58.3528 48.5282 58.114 49.8378 59.1289Z" stroke="black" stroke-linecap="round" stroke-linejoin="round"/>
  </g>
  <defs>
  <filter id="filter0_d_33800_1745" x="-2.5" y="27.5" width="180" height="44" filterUnits="userSpaceOnUse" color-interpolation-filters="sRGB">
  <feFlood flood-opacity="0" result="BackgroundImageFix"/>
  <feColorMatrix in="SourceAlpha" type="matrix" values="0 0 0 0 0 0 0 0 0 0 0 0 0 0 0 0 0 0 127 0" result="hardAlpha"/>
  <feOffset dy="4"/>
  <feComposite in2="hardAlpha" operator="out"/>
  <feColorMatrix type="matrix" values="0 0 0 0 0 0 0 0 0 0 0 0 0 0 0 0 0 0 0.25 0"/>
  <feBlend mode="normal" in2="BackgroundImageFix" result="effect1_dropShadow_33800_1745"/>
  <feBlend mode="normal" in="SourceGraphic" in2="effect1_dropShadow_33800_1745" result="shape"/>
  </filter>
  <filter id="filter1_i_33800_1745" x="150.5" y="47.5" width="9" height="12" filterUnits="userSpaceOnUse" color-interpolation-filters="sRGB">
  <feFlood flood-opacity="0" result="BackgroundImageFix"/>
  <feBlend mode="normal" in="SourceGraphic" in2="BackgroundImageFix" result="shape"/>
  <feColorMatrix in="SourceAlpha" type="matrix" values="0 0 0 0 0 0 0 0 0 0 0 0 0 0 0 0 0 0 127 0" result="hardAlpha"/>
  <feOffset dx="-2" dy="1"/>
  <feComposite in2="hardAlpha" operator="arithmetic" k2="-1" k3="1"/>
  <feColorMatrix type="matrix" values="0 0 0 0 0 0 0 0 0 0 0 0 0 0 0 0 0 0 0.55 0"/>
  <feBlend mode="normal" in2="shape" result="effect1_innerShadow_33800_1745"/>
  </filter>
  <filter id="filter2_i_33800_1745" x="44.5" y="54.5" width="9" height="11" filterUnits="userSpaceOnUse" color-interpolation-filters="sRGB">
  <feFlood flood-opacity="0" result="BackgroundImageFix"/>
  <feBlend mode="normal" in="SourceGraphic" in2="BackgroundImageFix" result="shape"/>
  <feColorMatrix in="SourceAlpha" type="matrix" values="0 0 0 0 0 0 0 0 0 0 0 0 0 0 0 0 0 0 127 0" result="hardAlpha"/>
  <feOffset dx="-2" dy="1"/>
  <feComposite in2="hardAlpha" operator="arithmetic" k2="-1" k3="1"/>
  <feColorMatrix type="matrix" values="0 0 0 0 0 0 0 0 0 0 0 0 0 0 0 0 0 0 0.55 0"/>
  <feBlend mode="normal" in2="shape" result="effect1_innerShadow_33800_1745"/>
  </filter>
  <filter id="filter3_di_33800_1745" x="152.5" y="51.5" width="255.502" height="102.502" filterUnits="userSpaceOnUse" color-interpolation-filters="sRGB">
  <feFlood flood-opacity="0" result="BackgroundImageFix"/>
  <feColorMatrix in="SourceAlpha" type="matrix" values="0 0 0 0 0 0 0 0 0 0 0 0 0 0 0 0 0 0 127 0" result="hardAlpha"/>
  <feOffset dy="4"/>
  <feComposite in2="hardAlpha" operator="out"/>
  <feColorMatrix type="matrix" values="0 0 0 0 0 0 0 0 0 0 0 0 0 0 0 0 0 0 0.5 0"/>
  <feBlend mode="normal" in2="BackgroundImageFix" result="effect1_dropShadow_33800_1745"/>
  <feBlend mode="normal" in="SourceGraphic" in2="effect1_dropShadow_33800_1745" result="shape"/>
  <feColorMatrix in="SourceAlpha" type="matrix" values="0 0 0 0 0 0 0 0 0 0 0 0 0 0 0 0 0 0 127 0" result="hardAlpha"/>
  <feOffset dx="5" dy="-1"/>
  <feComposite in2="hardAlpha" operator="arithmetic" k2="-1" k3="1"/>
  <feColorMatrix type="matrix" values="0 0 0 0 0 0 0 0 0 0 0 0 0 0 0 0 0 0 0.25 0"/>
  <feBlend mode="normal" in2="shape" result="effect2_innerShadow_33800_1745"/>
  </filter>
  <filter id="filter4_di_33800_1745" x="-54.5" y="58" width="106" height="75.5" filterUnits="userSpaceOnUse" color-interpolation-filters="sRGB">
  <feFlood flood-opacity="0" result="BackgroundImageFix"/>
  <feColorMatrix in="SourceAlpha" type="matrix" values="0 0 0 0 0 0 0 0 0 0 0 0 0 0 0 0 0 0 127 0" result="hardAlpha"/>
  <feOffset dy="4"/>
  <feComposite in2="hardAlpha" operator="out"/>
  <feColorMatrix type="matrix" values="0 0 0 0 0 0 0 0 0 0 0 0 0 0 0 0 0 0 0.5 0"/>
  <feBlend mode="normal" in2="BackgroundImageFix" result="effect1_dropShadow_33800_1745"/>
  <feBlend mode="normal" in="SourceGraphic" in2="effect1_dropShadow_33800_1745" result="shape"/>
  <feColorMatrix in="SourceAlpha" type="matrix" values="0 0 0 0 0 0 0 0 0 0 0 0 0 0 0 0 0 0 127 0" result="hardAlpha"/>
  <feOffset dx="-1" dy="-3"/>
  <feComposite in2="hardAlpha" operator="arithmetic" k2="-1" k3="1"/>
  <feColorMatrix type="matrix" values="0 0 0 0 0 0 0 0 0 0 0 0 0 0 0 0 0 0 0.25 0"/>
  <feBlend mode="normal" in2="shape" result="effect2_innerShadow_33800_1745"/>
  </filter>
  </defs>
  </svg>
  