<svg width="98" height="35" viewBox="0 0 98 35" fill="none" xmlns="http://www.w3.org/2000/svg">
<rect x="4" y="4" width="93" height="30" rx="15" fill="black"/>
<rect x="3.5" y="0.5" width="93" height="31" rx="15.5" fill="#DAA56B" stroke="black"/>
<rect x="6.5" y="3.5" width="87" height="25" rx="12.5" fill="#A6703D" stroke="#924E00"/>
<path d="M31.5003 16C31.5003 24.0464 25.4856 30.5 18.1481 30.5H13.7417V1.5H18.1481C25.4856 1.5 31.5003 7.95365 31.5003 16Z" fill="#DD7D00" stroke="#924E00"/>
<path d="M27.0862 16C27.0862 24.0484 21.096 30.5 13.7931 30.5C6.49017 30.5 0.5 24.0484 0.5 16C0.5 7.95156 6.49017 1.5 13.7931 1.5C21.096 1.5 27.0862 7.95156 27.0862 16Z" fill="#FCD824" stroke="#924E00"/>
<path d="M23.6338 15.933C23.6338 22.4329 19.0422 27.5837 13.5149 27.5837C7.98754 27.5837 3.396 22.4329 3.396 15.933C3.396 9.43303 7.98754 4.28223 13.5149 4.28223C19.0422 4.28223 23.6338 9.43303 23.6338 15.933Z" fill="#FCBE24" stroke="#924E00"/>
<path d="M18.6288 18.3971C19.2728 19.2426 19.4078 20.1617 19.0338 21.1545C18.6599 22.1471 17.9177 22.7983 16.8076 23.1079C16.2766 23.256 15.735 23.2617 15.1827 23.1253C14.6304 22.9889 14.1777 22.7307 13.8246 22.3508C12.5439 22.913 11.3406 22.8855 10.2149 22.2683C9.08919 21.6511 8.41268 20.648 8.18547 19.2592C7.62515 19.125 7.14892 18.8606 6.75678 18.4659C6.36465 18.0713 6.08182 17.5736 5.90832 16.9727C5.6298 16.0082 5.85142 15.105 6.5732 14.263C7.29497 13.421 8.13247 13.0551 9.08571 13.1651L10.7602 13.3646C10.9404 12.7846 11.2515 12.2665 11.6934 11.8101C12.1354 11.3537 12.6575 11.0245 13.2598 10.8223L12.9036 9.58902C12.8443 9.38347 12.8636 9.19443 12.9615 9.02189C13.0595 8.84936 13.213 8.73392 13.4222 8.67559C13.6314 8.61726 13.8238 8.63622 13.9993 8.73248C14.1749 8.82874 14.2924 8.97965 14.3518 9.1852L14.7627 10.6082C15.4082 10.6161 15.9777 10.752 16.4712 11.0159C16.9646 11.2798 17.444 11.7057 17.9093 12.2935L19.3092 11.9031C19.5183 11.8448 19.7108 11.8637 19.8863 11.96C20.0619 12.0562 20.1793 12.2072 20.2387 12.4127C20.2981 12.6183 20.2788 12.8073 20.1808 12.9799C20.0829 13.1523 19.9293 13.2678 19.7201 13.3261L18.4651 13.6761C18.6064 14.2859 18.6036 14.8933 18.4566 15.498C18.3096 16.1028 18.0323 16.6329 17.6249 17.0882L18.6288 18.3971ZM12.8077 20.6355C12.6843 20.2086 12.6007 19.7834 12.5567 19.36C12.5127 18.9367 12.5083 18.515 12.5435 18.0952C12.2236 18.3723 11.8608 18.6059 11.455 18.796C11.0491 18.986 10.6324 19.1235 10.205 19.2086C10.3831 19.8253 10.7045 20.261 11.1692 20.5157C11.634 20.7706 12.1802 20.8105 12.8077 20.6355ZM9.89842 17.2439C10.4133 17.1003 10.8496 16.9104 11.2073 16.6739C11.565 16.4375 12.0028 16.0421 12.5207 15.4875L9.28199 15.1094C8.76062 15.0497 8.36353 15.1647 8.09076 15.4543C7.81798 15.744 7.74324 16.1023 7.86652 16.5291C7.98524 16.9403 8.20876 17.2026 8.53708 17.316C8.8654 17.4295 9.31917 17.4054 9.89842 17.2439ZM16.2596 21.2105C16.6618 21.0984 16.9478 20.8691 17.1172 20.5229C17.2867 20.1766 17.2637 19.8712 17.0482 19.6067L14.8135 16.7446C14.6539 17.3358 14.5627 17.908 14.5398 18.4611C14.517 19.0141 14.5649 19.4962 14.6837 19.9073C14.8343 20.4291 15.0422 20.8026 15.3071 21.0276C15.5721 21.2527 15.8896 21.3137 16.2596 21.2105ZM16.3321 15.5011C16.4473 15.2981 16.5155 15.0527 16.5368 14.7649C16.5579 14.4771 16.5275 14.1908 16.4453 13.9062C16.2992 13.4003 16.0069 13.0204 15.5686 12.7668C15.1302 12.5132 14.6617 12.4559 14.1629 12.595C13.8733 12.6758 13.6134 12.7995 13.3833 12.9662C13.1533 13.1329 12.9749 13.3278 12.8482 13.5511L14.9772 13.88L16.3321 15.5011Z" fill="#451D07"/>
</svg>
