<svg width="98" height="35" viewBox="0 0 98 35" fill="none" xmlns="http://www.w3.org/2000/svg">
<rect x="4" y="4" width="93" height="30" rx="15" fill="black"/>
<rect x="3.5" y="0.5" width="93" height="31" rx="15.5" fill="#F4A634" stroke="black"/>
<path d="M6 16C6 8.8203 11.8203 3 19 3H81C88.1797 3 94 8.8203 94 16C94 23.1797 88.1797 29 81 29H19C11.8203 29 6 23.1797 6 16Z" fill="black"/>
<path d="M31.8767 16C31.8767 24.0464 25.862 30.5 18.5245 30.5H14.1182V1.5H18.5245C25.862 1.5 31.8767 7.95365 31.8767 16Z" fill="black" stroke="#F39C36"/>
<path d="M27.463 16C27.463 24.0484 21.4728 30.5 14.17 30.5C6.8671 30.5 0.876953 24.0484 0.876953 16C0.876953 7.95156 6.8671 1.5 14.17 1.5C21.4728 1.5 27.463 7.95156 27.463 16Z" fill="url(#paint0_linear_31804_6)" stroke="black"/>
<path d="M24.0106 15.933C24.0106 22.4329 19.4191 27.5837 13.8918 27.5837C8.36447 27.5837 3.77295 22.4329 3.77295 15.933C3.77295 9.43303 8.36447 4.28223 13.8918 4.28223C19.4191 4.28223 24.0106 9.43303 24.0106 15.933Z" fill="black" stroke="#F39C36"/>
<path d="M14.1441 22.0053C13.9713 21.8257 13.8201 21.6273 13.6934 21.4139C13.3713 20.9181 12.8318 19.7542 12.8304 18.4743C11.6915 19.125 10.3779 19.2517 9.77368 19.2261C9.54565 19.2257 9.31827 19.2022 9.09517 19.156C9.34841 20.3631 9.98311 21.2442 10.9993 21.7992C11.9856 22.3381 13.0339 22.4068 14.1441 22.0053ZM18.2317 16.7041C18.5573 16.2997 18.7878 15.8301 18.9068 15.3286C19.0481 14.7507 19.0508 14.1703 18.915 13.5874L20.1193 13.2533C20.2121 13.2304 20.2992 13.1892 20.3752 13.1323C20.4511 13.0753 20.5144 13.0037 20.5611 12.9218C20.6074 12.84 20.6363 12.7498 20.6457 12.6566C20.6552 12.5635 20.6451 12.4695 20.6161 12.3803C20.593 12.2894 20.5512 12.2041 20.4932 12.1296C20.4353 12.0551 20.3623 11.993 20.2789 11.9471C20.1952 11.9017 20.1029 11.8734 20.0076 11.8641C19.9124 11.8549 19.8162 11.8648 19.725 11.8933L18.3817 12.2664C17.9353 11.7047 17.4754 11.2976 17.002 11.0452C16.5285 10.7933 15.9821 10.6635 15.3628 10.6559L14.9685 9.29519C14.9453 9.20437 14.9033 9.11917 14.8452 9.0448C14.7871 8.97044 14.7141 8.90848 14.6306 8.86273C14.5469 8.81725 14.4546 8.789 14.3593 8.77974C14.2641 8.77047 14.1679 8.78037 14.0767 8.80885C13.984 8.83153 13.8969 8.8725 13.821 8.92925C13.745 8.98601 13.6817 9.05735 13.6349 9.13891C13.5883 9.22079 13.5593 9.31114 13.5497 9.40439C13.5401 9.49765 13.5502 9.59183 13.5791 9.68116L13.9205 10.86C13.3488 11.0506 12.8331 11.3747 12.4182 11.8043C12.0818 12.1474 11.8147 12.5497 11.631 12.9899L15.6498 13.4749L18.2317 16.7041ZM9.76199 13.4156C9.06243 13.4182 8.39258 13.6927 7.8998 14.1787C7.40701 14.6648 7.13165 15.3225 7.1343 16.0073C7.13694 16.692 7.41738 17.3477 7.91391 17.8301C8.41044 18.3125 9.08239 18.582 9.78194 18.5794H9.79708C10.4109 18.6077 11.9035 18.442 12.966 17.6007L15.0759 14.0569L9.76199 13.4156ZM13.5303 17.9375L15.6037 14.455L18.8428 18.5215C19.19 19.116 19.2817 19.8212 19.0977 20.482C18.9138 21.1427 18.4692 21.7049 17.8618 22.0447C17.2544 22.3846 16.534 22.4744 15.859 22.2943C15.184 22.1143 14.6097 21.6791 14.2625 21.0845L14.2549 21.0711C13.9267 20.5706 13.3369 19.2456 13.5303 17.9375Z" fill="url(#paint1_linear_31804_6)"/>
<defs>
<linearGradient id="paint0_linear_31804_6" x1="44.529" y1="16.2133" x2="-14.6725" y2="16.9773" gradientUnits="userSpaceOnUse">
<stop stop-color="#F8F29C"/>
<stop offset="0.165" stop-color="#F6DB2A"/>
<stop offset="0.333" stop-color="#F4A435"/>
<stop offset="0.55" stop-color="#E85A46"/>
<stop offset="0.699" stop-color="#B93483"/>
<stop offset="0.867" stop-color="#502B6E"/>
<stop offset="1" stop-color="#2A2136"/>
</linearGradient>
<linearGradient id="paint1_linear_31804_6" x1="28.7652" y1="15.6775" x2="-0.237931" y2="16.0818" gradientUnits="userSpaceOnUse">
<stop stop-color="#F8F29C"/>
<stop offset="0.165" stop-color="#F6DB2A"/>
<stop offset="0.333" stop-color="#F4A435"/>
<stop offset="0.55" stop-color="#E85A46"/>
<stop offset="0.699" stop-color="#B93483"/>
<stop offset="0.867" stop-color="#502B6E"/>
<stop offset="1" stop-color="#2A2136"/>
</linearGradient>
</defs>
</svg>
