<svg xmlns="http://www.w3.org/2000/svg" width="89" height="51" viewBox="0 0 89 51" fill="none">
  <path d="M62.462 34.1187C64.7302 37.0762 65.2057 40.2908 63.8886 43.7632C62.5714 47.2352 59.9576 49.513 56.0475 50.5958C54.1774 51.1136 52.2699 51.1339 50.3247 50.6568C48.3795 50.1796 46.7852 49.2765 45.5414 47.9477C41.0309 49.9139 36.793 49.8178 32.8281 47.6591C28.8633 45.5001 26.4806 41.9918 25.6804 37.1342C23.7069 36.6648 22.0296 35.7399 20.6485 34.3594C19.2674 32.9792 18.2713 31.2382 17.6602 29.1365C16.6792 25.7629 17.4598 22.6036 20.0019 19.6587C22.544 16.7138 25.4937 15.434 28.851 15.8187L34.7485 16.5162C35.3833 14.4877 36.479 12.6754 38.0354 11.0793C39.5921 9.48281 41.4309 8.33114 43.5523 7.62415L42.2979 3.31041C42.0889 2.59144 42.1568 1.93023 42.5017 1.32673C42.8468 0.72326 43.3875 0.3195 44.1244 0.115477C44.861 -0.0885457 45.5387 -0.0222244 46.1569 0.314468C46.7753 0.651161 47.1892 1.17899 47.3982 1.89793L48.8455 6.87534C51.1191 6.903 53.1249 7.37836 54.863 8.30135C56.6008 9.22434 58.2893 10.7138 59.9281 12.7699L64.8584 11.4043C65.595 11.2004 66.2727 11.2667 66.8909 11.6035C67.5094 11.94 67.923 12.468 68.1322 13.1869C68.3412 13.906 68.2733 14.5671 67.9282 15.1706C67.5833 15.7739 67.0423 16.1778 66.3057 16.3818L61.8855 17.606C62.3832 19.7389 62.3733 21.8632 61.8555 23.9785C61.3377 26.0938 60.3613 27.948 58.9263 29.5404L62.462 34.1187ZM41.9598 41.9479C41.5255 40.4548 41.2309 38.9676 41.0759 37.4867C40.921 36.0059 40.9054 34.5311 41.0295 33.0625C39.9028 34.0319 38.6249 34.849 37.1957 35.5138C35.7661 36.1784 34.2986 36.6595 32.7932 36.9572C33.4204 39.114 34.5523 40.638 36.1892 41.5291C37.8261 42.4205 39.7498 42.56 41.9598 41.9479ZM31.7134 30.0851C33.5268 29.583 35.0636 28.9184 36.3232 28.0915C37.5831 27.2645 39.125 25.8814 40.9491 23.9418L29.5423 22.6191C27.7061 22.4104 26.3075 22.8127 25.3468 23.8257C24.3861 24.8388 24.1228 26.092 24.557 27.5851C24.9751 29.0231 25.7624 29.9405 26.9187 30.3373C28.0751 30.7342 29.6733 30.6501 31.7134 30.0851ZM54.1176 43.9591C55.5344 43.5669 56.5413 42.765 57.1383 41.5541C57.7352 40.343 57.6542 39.2748 56.8952 38.3496L49.0244 28.3386C48.4624 30.4065 48.1411 32.4078 48.0606 34.3424C47.9801 36.2769 48.149 37.963 48.5672 39.401C49.0978 41.2261 49.8298 42.5323 50.7628 43.3196C51.6961 44.1069 52.8144 44.3201 54.1176 43.9591ZM54.373 23.9892C54.7787 23.2791 55.019 22.4207 55.0938 21.4141C55.1683 20.4074 55.061 19.4063 54.7716 18.4108C54.257 16.6411 53.2277 15.3125 51.6838 14.4254C50.14 13.5383 48.4897 13.3381 46.733 13.8245C45.713 14.107 44.7977 14.5399 43.9874 15.1227C43.1772 15.7058 42.5489 16.3876 42.1025 17.1685L49.6012 18.319L54.373 23.9892Z" fill="#451D07"/>
  <path d="M9.42239 14.0191C9.16432 14.1077 8.82023 14.0191 8.82023 13.6647C8.56216 12.69 8.04602 10.4749 8.99227 8.61426C9.93853 6.75359 12.0031 5.77895 12.9493 5.42454C13.2074 5.33593 13.5515 5.42454 13.5515 5.77895C13.8956 6.75359 14.3257 8.96868 13.3794 10.8293C12.4332 12.69 10.3686 13.6647 9.42239 14.0191ZM8.7342 19.1581C10.0245 18.0948 11.745 17.7404 12.6913 17.6518C13.0354 17.6518 13.2934 17.9176 13.2074 18.272C12.9493 19.2467 12.4332 20.8415 11.1429 21.9048C9.8525 22.968 8.13204 23.3224 7.18579 23.411C6.92772 23.411 6.75567 23.2338 6.66965 23.0566C6.4976 23.2338 6.23953 23.3224 5.98147 23.1452C5.12123 22.6136 3.4868 21.2846 2.79861 19.3353C2.11043 17.386 2.62656 15.3481 2.97066 14.4621C3.05668 14.1963 3.40077 14.0191 3.74487 14.1963C4.6051 14.7279 6.23954 16.057 6.92772 18.0062C7.35783 19.2467 7.35783 20.4871 7.18579 21.4618C7.44386 20.6643 7.96 19.8669 8.7342 19.1581ZM4.69112 27.664C5.3793 28.7273 5.63737 30.0563 5.63737 31.1195C5.80942 30.3221 6.06749 29.3475 6.75567 28.4614C7.78795 27.1324 9.33636 26.4236 10.2826 26.1578C10.6267 26.0691 10.8848 26.335 10.8848 26.6008C10.8848 27.4868 10.7127 29.2589 9.68046 30.5879C8.64818 32.0056 7.09976 32.6258 6.15351 32.8916C5.89544 32.9802 5.63737 32.803 5.55135 32.6258C5.46533 32.8916 5.20726 32.9802 4.94919 32.8916C4.00293 32.5372 2.11043 31.6512 0.992125 29.8791C-0.126175 28.1956 -0.0401497 26.0691 0.0458736 25.0945C0.0458736 24.7401 0.389965 24.5629 0.734058 24.6515C1.68031 25.0945 3.57282 25.9805 4.69112 27.664ZM1.16417 35.1067C2.11042 35.1953 4.17498 35.5497 5.7234 36.9674C6.66965 37.7648 7.18579 38.8281 7.52988 39.7141C7.52988 38.9167 7.52988 38.1192 7.87397 37.2332C8.47613 35.6383 9.76648 34.5751 10.5407 34.0435C10.7988 33.8663 11.2289 33.9549 11.3149 34.3093C11.573 35.1953 11.831 36.8788 11.2289 38.4736C10.6267 40.0685 9.33636 41.1317 8.56216 41.6634C8.39011 41.752 8.13204 41.752 7.96 41.6634C7.87397 41.8406 7.70193 41.9292 7.44386 41.8406C6.41158 41.752 4.34703 41.3975 2.88463 39.9799C1.33622 38.5622 0.82008 36.613 0.648033 35.6383C0.56201 35.2839 0.82008 35.0181 1.16417 35.1067ZM6.06749 44.6759C7.09977 44.4987 9.50841 44.4101 11.4009 45.6505C12.2612 46.1821 12.9493 46.891 13.4655 47.5998C13.1214 46.8024 12.8633 45.8277 12.8633 44.8531C12.8633 42.638 14.0676 40.6887 14.6698 39.8027C14.8418 39.5369 15.272 39.5369 15.444 39.8027C16.0462 40.6887 17.2505 42.5494 17.2505 44.8531C17.2505 47.0682 16.0462 49.0175 15.444 49.9035C15.272 50.1693 14.8418 50.1693 14.6698 49.9035L14.5838 49.8149C14.5838 49.9035 14.6698 49.9921 14.6698 49.9921C14.7558 50.2579 14.5838 50.6123 14.2397 50.6123C13.2074 50.7009 10.7988 50.8781 8.90625 49.6377C7.01374 48.4858 5.98147 46.3593 5.63737 45.2961C5.55135 45.0303 5.7234 44.6759 6.06749 44.6759Z" fill="#451D07"/>
  <path d="M78.9875 14.0191C79.2456 14.1077 79.5897 14.0191 79.5897 13.6647C79.8478 12.69 80.3639 10.4749 79.4176 8.61426C78.4714 6.75359 76.4068 5.77895 75.4606 5.42454C75.2025 5.33593 74.8584 5.42454 74.8584 5.77895C74.5143 6.75359 74.0842 8.96868 75.0305 10.8293C75.9767 12.69 78.0413 13.6647 78.9875 14.0191ZM79.6757 19.1581C78.3854 18.0948 76.6649 17.7404 75.7186 17.6518C75.3746 17.6518 75.1165 17.9176 75.2025 18.272C75.4606 19.2467 75.9767 20.8415 77.2671 21.9048C78.5574 22.968 80.2779 23.3224 81.2241 23.411C81.4822 23.411 81.6542 23.2338 81.7403 23.0566C81.9123 23.2338 82.1704 23.3224 82.4284 23.1452C83.2887 22.6136 84.9231 21.2846 85.6113 19.3353C86.2995 17.386 85.7833 15.3481 85.4393 14.4621C85.3532 14.1963 85.0091 14.0191 84.665 14.1963C83.8048 14.7279 82.1704 16.057 81.4822 18.0062C81.0521 19.2467 81.0521 20.4871 81.2241 21.4618C80.9661 20.6643 80.4499 19.8669 79.6757 19.1581ZM83.7188 27.664C83.0306 28.7273 82.7725 30.0563 82.7725 31.1195C82.6005 30.3221 82.3424 29.3475 81.6542 28.4614C80.622 27.1324 79.0735 26.4236 78.1273 26.1578C77.7832 26.0691 77.5251 26.335 77.5251 26.6008C77.5251 27.4868 77.6972 29.2589 78.7295 30.5879C79.7617 32.0056 81.3101 32.6258 82.2564 32.8916C82.5145 32.9802 82.7725 32.803 82.8586 32.6258C82.9446 32.8916 83.2027 32.9802 83.4607 32.8916C84.407 32.5372 86.2995 31.6512 87.4178 29.8791C88.5361 28.1956 88.4501 26.0691 88.364 25.0945C88.364 24.7401 88.0199 24.5629 87.6759 24.6515C86.7296 25.0945 84.8371 25.9805 83.7188 27.664ZM87.2457 35.1067C86.2995 35.1953 84.2349 35.5497 82.6865 36.9674C81.7403 37.7648 81.2241 38.8281 80.88 39.7141C80.88 38.9167 80.88 38.1192 80.5359 37.2332C79.9338 35.6383 78.6434 34.5751 77.8692 34.0435C77.6112 33.8663 77.181 33.9549 77.095 34.3093C76.8369 35.1953 76.5789 36.8788 77.181 38.4736C77.7832 40.0685 79.0735 41.1317 79.8478 41.6634C80.0198 41.752 80.2779 41.752 80.4499 41.6634C80.5359 41.8406 80.708 41.9292 80.9661 41.8406C81.9983 41.752 84.0629 41.3975 85.5253 39.9799C87.0737 38.5622 87.5898 36.613 87.7619 35.6383C87.8479 35.2839 87.5898 35.0181 87.2457 35.1067ZM82.3424 44.6759C81.3101 44.4987 78.9015 44.4101 77.009 45.6505C76.1488 46.1821 75.4606 46.891 74.9444 47.5998C75.2885 46.8024 75.5466 45.8277 75.5466 44.8531C75.5466 42.638 74.3423 40.6887 73.7401 39.8027C73.5681 39.5369 73.138 39.5369 72.9659 39.8027C72.3637 40.6887 71.1594 42.5494 71.1594 44.8531C71.1594 47.0682 72.3637 49.0175 72.9659 49.9035C73.138 50.1693 73.5681 50.1693 73.7401 49.9035L73.8261 49.8149C73.8261 49.9035 73.7401 49.9921 73.7401 49.9921C73.6541 50.2579 73.8261 50.6123 74.1702 50.6123C75.2025 50.7009 77.6112 50.8781 79.5037 49.6377C81.3962 48.4858 82.4284 46.3593 82.7725 45.2961C82.8586 45.0303 82.6865 44.6759 82.3424 44.6759Z" fill="#451D07"/>
</svg>