<svg xmlns="http://www.w3.org/2000/svg" width="35" height="33" viewBox="0 0 35 33" fill="none">
  <path d="M31.724 28.5055H29.5818V26.7312H5.69401V28.5055H3.63107V30.2108H2.06784V32H33.2872V30.2145H31.724V28.5055ZM10.8155 25.239V16.2031H11.8809V14.9909C11.8817 14.8142 11.8471 14.6391 11.7793 14.4756C11.7115 14.3121 11.6117 14.1635 11.4857 14.0384C11.3597 13.9133 11.21 13.814 11.0451 13.7464C10.8803 13.6788 10.7036 13.6441 10.5251 13.6443H5.90897C5.73475 13.6466 5.56278 13.6836 5.40329 13.7531C5.2438 13.8226 5.10005 13.9232 4.98059 14.0488C4.86113 14.1744 4.76841 14.3226 4.70794 14.4844C4.64747 14.6463 4.62049 14.8185 4.6286 14.9909V16.2031H5.76001V25.239H10.8155ZM29.514 25.239V16.2031H30.6454V14.9909C30.6454 14.2849 30.0797 13.6443 29.365 13.6443H24.7432C24.569 13.6466 24.397 13.6836 24.2375 13.7531C24.078 13.8226 23.9342 13.9232 23.8148 14.0488C23.6953 14.1744 23.6026 14.3226 23.5421 14.4844C23.4817 14.6463 23.4547 14.8185 23.4628 14.9909V16.2031H24.5942V25.239H29.514ZM20.1308 25.239V16.2031H21.2622V14.9909C21.2622 14.2849 20.6965 13.6443 19.9818 13.6443H15.36C15.1858 13.6466 15.0138 13.6836 14.8543 13.7531C14.6948 13.8226 14.5511 13.9232 14.4316 14.0488C14.3122 14.1744 14.2195 14.3226 14.159 14.4844C14.0985 14.6463 14.0715 14.8185 14.0796 14.9909V16.2031H15.1451V25.239H20.1308ZM32.5744 9.00871L18.7033 1.31942C18.3362 1.11015 17.9201 1 17.4965 1C17.0729 1 16.6568 1.11015 16.2897 1.31942L2.41669 9.00871C1.97955 9.24704 1.61653 9.59924 1.36692 10.0272C1.11731 10.4552 0.990617 10.9426 1.00054 11.4367V12.2902H34V11.433C33.9904 10.9421 33.8544 10.4618 33.6049 10.0376C33.3554 9.61332 33.0007 9.25918 32.5744 9.00871Z" fill="#FFF5A9" stroke="black"/>
  <circle cx="17" cy="14" r="7.5" fill="#FBBF24" stroke="black"/>
  <path d="M20.286 15.4074C20.7018 15.9628 20.7889 16.5665 20.5475 17.2186C20.3061 17.8707 19.8271 18.2984 19.1104 18.5018C18.7677 18.599 18.4181 18.6028 18.0616 18.5132C17.7051 18.4236 17.4129 18.254 17.185 18.0045C16.3583 18.3737 15.5816 18.3557 14.855 17.9503C14.1283 17.5448 13.6916 16.886 13.545 15.9737C13.1833 15.8855 12.8759 15.7119 12.6228 15.4526C12.3697 15.1934 12.1871 14.8664 12.0751 14.4718C11.8953 13.8382 12.0384 13.2449 12.5043 12.6919C12.9702 12.1388 13.5108 11.8984 14.1261 11.9707L15.2069 12.1017C15.3233 11.7208 15.5241 11.3804 15.8093 11.0806C16.0946 10.7808 16.4316 10.5646 16.8204 10.4318L16.5905 9.62169C16.5522 9.48667 16.5647 9.36249 16.6279 9.24916C16.6911 9.13583 16.7902 9.06 16.9253 9.02169C17.0603 8.98337 17.1845 8.99583 17.2978 9.05906C17.4111 9.12229 17.487 9.22141 17.5253 9.35643L17.7905 10.2912C18.2072 10.2964 18.5748 10.3856 18.8934 10.559C19.2119 10.7323 19.5213 11.012 19.8217 11.3981L20.7252 11.1417C20.8603 11.1034 20.9844 11.1159 21.0978 11.1791C21.2111 11.2423 21.2869 11.3414 21.3252 11.4765C21.3636 11.6115 21.3511 11.7357 21.2879 11.849C21.2246 11.9623 21.1255 12.0382 20.9905 12.0765L20.1804 12.3064C20.2716 12.7069 20.2698 13.1058 20.1749 13.5031C20.08 13.9004 19.9011 14.2485 19.638 14.5476L20.286 15.4074ZM16.5286 16.8777C16.449 16.5973 16.395 16.3181 16.3666 16.0399C16.3382 15.7618 16.3353 15.4849 16.3581 15.2091C16.1516 15.3911 15.9174 15.5445 15.6554 15.6694C15.3934 15.7942 15.1245 15.8846 14.8486 15.9404C14.9635 16.3455 15.171 16.6317 15.471 16.7991C15.771 16.9665 16.1235 16.9927 16.5286 16.8777ZM14.6507 14.6499C14.983 14.5556 15.2647 14.4308 15.4955 14.2755C15.7264 14.1202 16.009 13.8604 16.3433 13.4962L14.2528 13.2478C13.9162 13.2086 13.6599 13.2842 13.4838 13.4744C13.3078 13.6647 13.2595 13.9 13.3391 14.1804C13.4157 14.4504 13.56 14.6227 13.7719 14.6973C13.9839 14.7718 14.2768 14.756 14.6507 14.6499ZM18.7568 17.2554C19.0164 17.1818 19.2009 17.0312 19.3103 16.8038C19.4197 16.5763 19.4049 16.3757 19.2658 16.202L17.8233 14.3219C17.7203 14.7103 17.6614 15.0861 17.6467 15.4494C17.6319 15.8127 17.6629 16.1294 17.7395 16.3994C17.8368 16.7422 17.9709 16.9875 18.1419 17.1353C18.313 17.2832 18.5179 17.3232 18.7568 17.2554ZM18.8036 13.5051C18.8779 13.3718 18.922 13.2106 18.9357 13.0215C18.9493 12.8325 18.9297 12.6445 18.8766 12.4575C18.7823 12.1251 18.5937 11.8757 18.3107 11.7091C18.0278 11.5425 17.7253 11.5049 17.4034 11.5962C17.2164 11.6493 17.0487 11.7305 16.9002 11.84C16.7517 11.9495 16.6365 12.0776 16.5547 12.2242L17.929 12.4402L18.8036 13.5051Z" fill="#78350F"/>
</svg>