<svg xmlns="http://www.w3.org/2000/svg" width="35" height="33" viewBox="0 0 35 33" fill="none">
  <path d="M31.724 28.5055H29.5818V26.7312H5.69401V28.5055H3.63107V30.2108H2.06784V32H33.2872V30.2145H31.724V28.5055ZM10.8155 25.239V16.2031H11.8809V14.9909C11.8817 14.8142 11.8471 14.6391 11.7793 14.4756C11.7115 14.3121 11.6117 14.1635 11.4857 14.0384C11.3597 13.9133 11.21 13.814 11.0451 13.7464C10.8803 13.6788 10.7036 13.6441 10.5251 13.6443H5.90897C5.73475 13.6466 5.56278 13.6836 5.40329 13.7531C5.2438 13.8226 5.10005 13.9232 4.98059 14.0488C4.86113 14.1744 4.76841 14.3226 4.70794 14.4844C4.64747 14.6463 4.62049 14.8185 4.6286 14.9909V16.2031H5.76001V25.239H10.8155ZM29.514 25.239V16.2031H30.6454V14.9909C30.6454 14.2849 30.0797 13.6443 29.365 13.6443H24.7432C24.569 13.6466 24.397 13.6836 24.2375 13.7531C24.078 13.8226 23.9342 13.9232 23.8148 14.0488C23.6953 14.1744 23.6026 14.3226 23.5421 14.4844C23.4817 14.6463 23.4547 14.8185 23.4628 14.9909V16.2031H24.5942V25.239H29.514ZM20.1308 25.239V16.2031H21.2622V14.9909C21.2622 14.2849 20.6965 13.6443 19.9818 13.6443H15.36C15.1858 13.6466 15.0138 13.6836 14.8543 13.7531C14.6948 13.8226 14.5511 13.9232 14.4316 14.0488C14.3122 14.1744 14.2195 14.3226 14.159 14.4844C14.0985 14.6463 14.0715 14.8185 14.0796 14.9909V16.2031H15.1451V25.239H20.1308ZM32.5744 9.00871L18.7033 1.31942C18.3362 1.11015 17.9201 1 17.4965 1C17.0729 1 16.6568 1.11015 16.2897 1.31942L2.41669 9.00871C1.97955 9.24704 1.61653 9.59924 1.36692 10.0272C1.11731 10.4552 0.990617 10.9426 1.00054 11.4367V12.2902H34V11.433C33.9904 10.9421 33.8544 10.4618 33.6049 10.0376C33.3554 9.61332 33.0007 9.25918 32.5744 9.00871Z" fill="#FFF5A9" stroke="black"/>
  <circle cx="17" cy="14" r="7.5" fill="#FBBF24" stroke="black"/>
  <path d="M20.286 15.4074C20.7018 15.9628 20.7889 16.5665 20.5475 17.2186C20.3061 17.8707 19.8271 18.2984 19.1104 18.5018C18.7677 18.599 18.4181 18.6028 18.0616 18.5132C17.7051 18.4236 17.4129 18.254 17.185 18.0045C16.3583 18.3737 15.5816 18.3557 14.855 17.9503C14.1283 17.5448 13.6916 16.886 13.545 15.9737C13.1833 15.8855 12.8759 15.7119 12.6228 15.4526C12.3697 15.1934 12.1871 14.8664 12.0751 14.4718C11.8953 13.8382 12.0384 13.2449 12.5043 12.6919C12.9702 12.1388 13.5108 11.8984 14.1261 11.9707L15.2069 12.1017C15.3233 11.7208 15.5241 11.3804 15.8093 11.0806C16.0946 10.7808 16.4316 10.5646 16.8204 10.4318L16.5905 9.62169C16.5522 9.48667 16.5647 9.36249 16.6279 9.24916C16.6911 9.13583 16.7902 9.06 16.9253 9.02169C17.0603 8.98337 17.1845 8.99583 17.2978 9.05906C17.4111 9.12229 17.487 9.22141 17.5253 9.35643L17.7905 10.2912C18.2072 10.2964 18.5748 10.3856 18.8934 10.559C19.2119 10.7323 19.5213 11.012 19.8217 11.3981L20.7252 11.1417C20.8603 11.1034 20.9844 11.1159 21.0978 11.1791C21.2111 11.2423 21.2869 11.3414 21.3252 11.4765C21.3636 11.6115 21.3511 11.7357 21.2879 11.849C21.2246 11.9623 21.1255 12.0382 20.9905 12.0765L20.1804 12.3064C20.2716 12.7069 20.2698 13.1058 20.1749 13.5031C20.08 13.9004 19.9011 14.2485 19.638 14.5476L20.286 15.4074ZM16.5286 16.8777C16.449 16.5973 16.395 16.3181 16.3666 16.0399C16.3382 15.7618 16.3353 15.4849 16.3581 15.2091C16.1516 15.3911 15.9174 15.5445 15.6554 15.6694C15.3934 15.7942 15.1245 15.8846 14.8486 15.9404C14.9635 16.3455 15.171 16.6317 15.471 16.7991C15.771 16.9665 16.1235 16.9927 16.5286 16.8777ZM14.6507 14.6499C14.983 14.5556 15.2647 14.4308 15.4955 14.2755C15.7264 14.1202 16.009 13.8604 16.3433 13.4962L14.2528 13.2478C13.9162 13.2086 13.6599 13.2842 13.4838 13.4744C13.3078 13.6647 13.2595 13.9 13.3391 14.1804C13.4157 14.4504 13.56 14.6227 13.7719 14.6973C13.9839 14.7718 14.2768 14.756 14.6507 14.6499ZM18.7568 17.2554C19.0164 17.1818 19.2009 17.0312 19.3103 16.8038C19.4197 16.5763 19.4049 16.3757 19.2658 16.202L17.8233 14.3219C17.7203 14.7103 17.6614 15.0861 17.6467 15.4494C17.6319 15.8127 17.6629 16.1294 17.7395 16.3994C17.8368 16.7422 17.9709 16.9875 18.1419 17.1353C18.313 17.2832 18.5179 17.3232 18.7568 17.2554ZM18.8036 13.5051C18.8779 13.3718 18.922 13.2106 18.9357 13.0215C18.9493 12.8325 18.9297 12.6445 18.8766 12.4575C18.7823 12.1251 18.5937 11.8757 18.3107 11.7091C18.0278 11.5425 17.7253 11.5049 17.4034 11.5962C17.2164 11.6493 17.0487 11.7305 16.9002 11.84C16.7517 11.9495 16.6365 12.0776 16.5547 12.2242L17.929 12.4402L18.8036 13.5051Z" fill="#78350F"/>
  <circle cx="17" cy="14" r="6.5" fill="black" stroke="black"/>
  <path d="M16.6681 17.7488C16.553 17.63 16.4523 17.4987 16.3679 17.3577C16.1534 17.0298 15.7942 16.26 15.7933 15.4136C15.0348 15.8439 14.16 15.9277 13.7577 15.9108C13.6058 15.9105 13.4544 15.895 13.3058 15.8644C13.4745 16.6627 13.8971 17.2454 14.5738 17.6125C15.2307 17.9688 15.9287 18.0143 16.6681 17.7488ZM19.3901 14.2429C19.6069 13.9755 19.7604 13.6649 19.8397 13.3332C19.9338 12.951 19.9356 12.5672 19.8452 12.1817L20.6471 11.9607C20.709 11.9456 20.7669 11.9184 20.8175 11.8807C20.8681 11.843 20.9103 11.7957 20.9413 11.7416C20.9722 11.6874 20.9914 11.6277 20.9977 11.5661C21.004 11.5046 20.9973 11.4424 20.978 11.3834C20.9626 11.3233 20.9348 11.2669 20.8962 11.2176C20.8575 11.1684 20.809 11.1273 20.7534 11.0969C20.6977 11.0669 20.6362 11.0482 20.5728 11.0421C20.5093 11.0359 20.4453 11.0425 20.3846 11.0613L19.49 11.3081C19.1928 10.9366 18.8865 10.6674 18.5712 10.5005C18.2559 10.3338 17.8921 10.248 17.4796 10.243L17.2171 9.34311C17.2016 9.28305 17.1736 9.22671 17.1349 9.17753C17.0963 9.12835 17.0476 9.08737 16.9921 9.05712C16.9363 9.02704 16.8748 9.00836 16.8114 9.00223C16.748 8.9961 16.6839 9.00265 16.6232 9.02148C16.5614 9.03648 16.5035 9.06357 16.4529 9.10111C16.4023 9.13864 16.3601 9.18583 16.329 9.23976C16.2979 9.29391 16.2786 9.35366 16.2723 9.41534C16.2659 9.47701 16.2725 9.5393 16.2918 9.59837L16.5191 10.378C16.1384 10.504 15.795 10.7184 15.5188 11.0025C15.2947 11.2294 15.1169 11.4954 14.9945 11.7865L17.6707 12.1073L19.3901 14.2429ZM13.7499 12.0681C13.284 12.0698 12.8379 12.2513 12.5098 12.5728C12.1816 12.8942 11.9983 13.3292 12 13.7821C12.0018 14.2349 12.1885 14.6685 12.5192 14.9875C12.8498 15.3066 13.2973 15.4848 13.7632 15.4831H13.7732C14.182 15.5018 15.176 15.3922 15.8835 14.8358L17.2886 12.4922L13.7499 12.0681ZM16.2593 15.0586L17.64 12.7555L19.7971 15.4448C20.0283 15.838 20.0894 16.3044 19.9669 16.7413C19.8444 17.1783 19.5483 17.5501 19.1438 17.7748C18.7393 17.9996 18.2596 18.059 17.8101 17.9399C17.3605 17.8208 16.9781 17.533 16.7469 17.1398L16.7418 17.1309C16.5233 16.7999 16.1305 15.9237 16.2593 15.0586Z" fill="url(#paint0_linear_31431_445)"/>
  <defs>
    <linearGradient id="paint0_linear_31431_445" x1="26.4047" y1="13.564" x2="7.09066" y2="13.835" gradientUnits="userSpaceOnUse">
      <stop stop-color="#F8F29C"/>
      <stop offset="0.165" stop-color="#F6DB2A"/>
      <stop offset="0.333" stop-color="#F4A435"/>
      <stop offset="0.55" stop-color="#E85A46"/>
      <stop offset="0.699" stop-color="#B93483"/>
      <stop offset="0.867" stop-color="#502B6E"/>
      <stop offset="1" stop-color="#2A2136"/>
    </linearGradient>
  </defs>
</svg>