<svg xmlns="http://www.w3.org/2000/svg" width="128" height="28" viewBox="0 0 128 28" fill="none">
  <path fill-rule="evenodd" clip-rule="evenodd"
    d="M3.46109 23.2164C6.02727 26.1483 9.79728 28 13.9998 28H38.4407L3.46109 23.2164ZM48.6725 28H53.2997L0.505244 10.2587C0.175789 11.4496 -0.000244141 12.7042 -0.000244141 14C-0.000244141 14.7317 0.0558906 15.4503 0.164089 16.1517L48.6725 28ZM3.80719 4.40246L55.5553 28H57.4319L9.1782 0.852406C7.11727 1.60843 5.28351 2.83521 3.80719 4.40246ZM18.8248 0L58.3694 28H59.4725L26.2799 0H18.8248ZM33.0197 0L59.9756 28H60.757L38.0322 0H33.0197ZM42.8179 0L61.0876 28H61.7078L46.647 0H42.8179ZM50.4476 0L61.9521 28H62.4868L53.665 0H50.4476ZM56.9602 0L62.6818 28H63.1761L59.8867 0H56.9602ZM62.0773 0L63.2628 28H63.7471L64.9326 0H62.0773ZM67.0785 0L63.8199 28H64.3133L70.0033 0H67.0785ZM73.2981 0L64.5097 28H65.0442L76.5133 0H73.2981ZM80.3084 0L65.2866 28H65.9059L84.1324 0H80.3084ZM88.9095 0L66.235 28H67.015L93.9125 0H88.9095ZM100.645 0L67.5249 28H68.6267L108.081 0H100.645ZM118.112 0.613574L69.5566 28H71.4265L123.832 4.03397C122.248 2.47102 120.293 1.28293 118.112 0.613574ZM127.383 9.87906L73.652 28H78.2418L127.883 15.8181C127.96 15.223 128 14.6161 128 14C128 12.5658 127.784 11.1819 127.383 9.87906ZM124.738 22.9829L88.3451 28H114C118.313 28 122.17 26.0497 124.738 22.9829Z"
    fill="white" fill-opacity="0.2" />
</svg>