<svg xmlns="http://www.w3.org/2000/svg" width="179" height="44" viewBox="0 0 179 44" fill="none">
  <g filter="url(#filter0_d_31843_2766)">
    <path d="M2.75296 6.4613C3.03174 3.36888 5.62377 1 8.72873 1H172C175.314 1 178 3.68629 178 7V31C178 34.3137 175.314 37 172 37H6.56522C3.03883 37 0.272834 33.9734 0.589442 30.4613L2.75296 6.4613Z" fill="#A6A6D2"/>
    <path d="M2.75296 6.4613C3.03174 3.36888 5.62377 1 8.72873 1H172C175.314 1 178 3.68629 178 7V31C178 34.3137 175.314 37 172 37H6.56522C3.03883 37 0.272834 33.9734 0.589442 30.4613L2.75296 6.4613Z" stroke="black"/>
  </g>
  <defs>
    <filter id="filter0_d_31843_2766" x="0.0646973" y="0.5" width="178.435" height="43" filterUnits="userSpaceOnUse" color-interpolation-filters="sRGB">
      <feFlood flood-opacity="0" result="BackgroundImageFix"/>
      <feColorMatrix in="SourceAlpha" type="matrix" values="0 0 0 0 0 0 0 0 0 0 0 0 0 0 0 0 0 0 127 0" result="hardAlpha"/>
      <feOffset dy="6"/>
      <feComposite in2="hardAlpha" operator="out"/>
      <feColorMatrix type="matrix" values="0 0 0 0 0 0 0 0 0 0 0 0 0 0 0 0 0 0 1 0"/>
      <feBlend mode="normal" in2="BackgroundImageFix" result="effect1_dropShadow_31843_2766"/>
      <feBlend mode="normal" in="SourceGraphic" in2="effect1_dropShadow_31843_2766" result="shape"/>
    </filter>
  </defs>
</svg>