<svg
  xmlns="http://www.w3.org/2000/svg" width="81" height="110" viewBox="0 0 81 110" fill="none"
>
  <ellipse opacity="0.4" cx="37.5065" cy="103.927" rx="35.4328" ry="5.3686" fill="black" />
  <path
    d="M6.25456 56.1109C7.02206 52.6571 10.5718 44.1189 12.9702 41.7204C18.7264 35.9642 27.8404 52.7531 25.9217 55.6312C24.3867 57.9337 23.0436 60.6726 22.5639 61.7543C22.8816 61.7956 23.2014 61.8333 23.5232 61.8672C22.8106 63.4662 19.1699 68.5025 18.0276 70.5016C16.1088 73.8595 16.5885 73.8595 15.1495 76.7376C14.6698 77.537 13.5185 79.5197 12.751 81.0547C11.7917 82.9735 12.0625 85.6436 9.28882 84.5484C8.72877 84.9573 7.83622 85.0649 6.64414 84.5484C6.36558 84.748 5.93569 84.8139 5.29519 84.6708C2.78427 84.11 2.19565 81.3299 2.36935 80.1984C1.91427 79.867 1.49815 79.215 1.23856 78.1766C0.47106 75.1066 1.71828 73.5397 2.67765 71.461L5.29519 55.6313L6.25456 56.1109Z"
    fill="#6C55A2" />
  <path
    d="M6.25456 56.1109C7.02206 52.6571 10.5718 44.1189 12.9702 41.7204C18.7264 35.9642 27.8404 52.7531 25.9217 55.6312C24.3867 57.9337 23.0436 60.6726 22.5639 61.7543M6.25456 56.1109L5.29519 55.6313L2.67765 71.461C1.71828 73.5397 0.47106 75.1066 1.23856 78.1766C2.19793 82.0141 5.29519 80.5751 4.59642 77.1724C6.1853 77.0344 8.91354 75.2985 8.91354 72.9001M6.25456 56.1109C8.3943 57.3336 15.6838 60.8598 22.5639 61.7543M22.5639 61.7543C22.8816 61.7956 23.2014 61.8333 23.5232 61.8672C22.8106 63.4662 19.1699 68.5025 18.0276 70.5016C16.1088 73.8595 16.5885 73.8595 15.1495 76.7376C14.6698 77.537 13.5185 79.5197 12.751 81.0547C11.7917 82.9735 12.0625 85.6436 9.28882 84.5484M2.36935 80.1984C2.19565 81.3299 2.78427 84.11 5.29519 84.6708C5.93569 84.8139 6.36558 84.748 6.64414 84.5484M8.43385 76.7376C7.79427 77.8568 6.5151 80.1913 6.5151 80.5751C6.5151 80.9569 7.73065 83.7697 6.64414 84.5484M11.312 77.6969C10.6724 78.8162 9.48916 81.3426 9.87291 82.4938C10.1264 83.2541 9.91621 84.0903 9.28882 84.5484M6.64414 84.5484C7.83622 85.0649 8.72877 84.9573 9.28882 84.5484"
    stroke="black" stroke-linecap="round" />
  <g filter="url(#filter0_i_31843_2156)">
    <path
      d="M36.9696 1.38619C22.4504 -1.10508 15.0061 8.94639 11.419 17.4927C5.7987 30.8833 8.68685 70.569 11.419 98.9851C10.2667 99.8928 9.36844 101.328 10.4432 103.15C12.3947 106.459 28.5922 106.77 29.1776 104.046C29.646 101.866 28.3381 100.571 27.2323 99.7921L33.4842 85.4827H40.6795C42.631 90.1538 42.2301 98.4236 43.7913 101.927C45.3526 105.43 63.6967 103.484 63.3064 100.175C62.9942 97.5283 60.9738 96.6528 59.1524 96.3933C59.2825 94.6416 61.7856 90.8942 62.9161 77.1136C64.3526 59.6024 62.9161 9.97648 36.9696 1.38619Z"
      fill="#B392FF" />
    <path
      d="M40.6795 85.4827C42.631 90.1538 42.2301 98.4236 43.7913 101.927C45.3526 105.43 63.6967 103.484 63.3064 100.175C62.9942 97.5283 60.9738 96.6528 59.1523 96.3933C59.2825 94.6416 61.7856 90.8942 62.9161 77.1136C64.3526 59.6024 62.9161 9.97648 36.9696 1.38619C22.4504 -1.10508 15.0061 8.94639 11.419 17.4927C5.7987 30.8833 8.68685 70.569 11.419 98.9851C10.2667 99.8928 9.36844 101.328 10.4432 103.15C12.3947 106.459 28.5922 106.77 29.1776 104.046C29.646 101.866 28.3381 100.571 27.2323 99.7921L33.4842 85.4827H40.6795ZM40.6795 85.4827H47.2444"
      stroke="black" stroke-linecap="round" />
  </g>
  <path
    d="M36.9695 40.5771C32.7503 36.9202 16.9268 39.6828 9.58973 40.5776C-0.610608 41.4974 1.53656 72.7891 7.44201 80.3052C11.5723 85.5619 24.6315 85.3038 33.2114 83.3879C36.899 82.5645 39.7592 81.4348 40.7275 80.3052C44.4093 76.0099 45.0224 47.5568 36.9695 40.5771Z"
    fill="#6E6797" />
  <path
    d="M33.2114 83.3879C36.899 82.5645 39.7592 81.4348 40.7275 80.3052C44.4093 76.0099 45.0224 47.5568 36.9695 40.5771C32.7503 36.9202 16.9268 39.6828 9.58973 40.5776C-0.610608 41.4974 1.53656 72.7891 7.44201 80.3052C11.5723 85.5619 24.6315 85.3038 33.2114 83.3879ZM33.2114 83.3879C36.9695 79.2311 38.0432 42.7246 29.4534 43.7983M29.4534 43.7983C29.4534 43.7983 12.5358 44.993 8.51588 45.4089M29.4534 43.7983C31.1896 42.5456 34.822 41.114 34.822 41.114"
    stroke="black" stroke-linecap="round" />
  <path
    d="M8.21696 79.4223C12.1399 84.3941 24.5435 84.15 32.6928 82.3379C36.2622 78.4064 37.282 43.879 29.1234 44.8945C29.1234 44.8945 10.187 46.0898 6.36886 46.4831C2.07378 49.7043 3.68439 73.678 8.21696 79.4223Z"
    fill="#413A69" />
  <defs>
    <filter id="filter0_i_31843_2156" x="7.69812" y="0.500061" width="56.1146" height="105.883"
      filterUnits="userSpaceOnUse" color-interpolation-filters="sRGB">
      <feFlood flood-opacity="0" result="BackgroundImageFix" />
      <feBlend mode="normal" in="SourceGraphic" in2="BackgroundImageFix" result="shape" />
      <feColorMatrix in="SourceAlpha" type="matrix"
        values="0 0 0 0 0 0 0 0 0 0 0 0 0 0 0 0 0 0 127 0" result="hardAlpha" />
      <feOffset dx="7" dy="-1" />
      <feComposite in2="hardAlpha" operator="arithmetic" k2="-1" k3="1" />
      <feColorMatrix type="matrix" values="0 0 0 0 0 0 0 0 0 0 0 0 0 0 0 0 0 0 0.25 0" />
      <feBlend mode="normal" in2="shape" result="effect1_innerShadow_31843_2156" />
    </filter>
  </defs>
</svg>