<svg width="63" height="87" viewBox="0 0 63 87" fill="none" xmlns="http://www.w3.org/2000/svg">
<path d="M6.24083 48.2344L4.2659 60.0079C3.54206 61.5539 2.60104 62.7193 3.18011 65.0026C3.37597 65.7749 3.68993 66.2599 4.03329 66.5063C3.90223 67.3479 4.34634 69.4156 6.24083 69.8328C6.72408 69.9392 7.04843 69.8902 7.25861 69.7417C8.15803 70.1259 8.83146 70.0458 9.25401 69.7417C11.3468 70.5562 11.1424 68.5703 11.8662 67.1433C12.4453 66.0016 13.3139 64.5269 13.6758 63.9323C14.7616 61.7917 14.3997 61.7917 15.8474 59.2943C16.7093 57.8074 19.4562 54.0616 19.9938 52.8723C19.751 52.8471 19.5097 52.8191 19.27 52.7884C14.079 52.1231 8.5791 49.5005 6.96467 48.5911L6.24083 48.2344Z" fill="#9F974C"/>
<path d="M8.97086 61.0782C8.97086 62.862 6.91241 64.1531 5.71361 64.2557C6.24083 66.7865 3.90396 67.8568 3.18011 65.0026C2.60104 62.7193 3.54206 61.5539 4.2659 60.0079L6.24083 48.2344L6.96467 48.5911C8.5791 49.5005 14.079 52.1231 19.27 52.7884C19.5097 52.8191 19.751 52.8471 19.9938 52.8723C19.4562 54.0616 16.7093 57.8074 15.8474 59.2943C14.3997 61.7917 14.7616 61.7917 13.6758 63.9323C13.3139 64.5269 12.4453 66.0016 11.8662 67.1433C11.1424 68.5703 11.3468 70.5562 9.25401 69.7417M4.03329 66.5063C3.90223 67.3479 4.34634 69.4156 6.24083 69.8328C6.72408 69.9392 7.04843 69.8902 7.25861 69.7417M8.60894 63.9323C8.12638 64.7648 7.16125 66.5011 7.16125 66.7865C7.16125 67.0705 8.07837 69.1626 7.25861 69.7417M10.7805 64.6459C10.2979 65.4783 9.40517 67.3573 9.6947 68.2136C9.88593 68.7791 9.72738 69.401 9.25401 69.7417M7.25861 69.7417C8.15803 70.1259 8.83146 70.0458 9.25401 69.7417" stroke="black" stroke-linecap="round"/>
<path d="M6.96472 48.5904C7.5438 46.0216 10.222 39.6712 12.0316 37.8874C16.3747 33.6061 23.2512 46.093 21.8035 48.2337C20.6454 49.9462 19.632 51.9832 19.2701 52.7877C14.0791 52.1224 8.57915 49.4998 6.96472 48.5904Z" fill="#6C55A2"/>
<path d="M19.9939 52.8717C19.7511 52.8465 19.5097 52.8184 19.2701 52.7877M19.2701 52.7877C14.0791 52.1224 8.57915 49.4998 6.96472 48.5904C7.5438 46.0216 10.222 39.6712 12.0316 37.8874C16.3747 33.6061 23.2512 46.093 21.8035 48.2337C20.6454 49.9462 19.632 51.9832 19.2701 52.7877Z" stroke="black" stroke-linecap="round"/>
<ellipse cx="31.0811" cy="81.713" rx="26.0295" ry="5.12702" fill="black" fill-opacity="0.6"/>
<g filter="url(#filter0_i_33174_500)">
<path d="M52.5001 7.94141C52.634 7.27187 52.967 6.58503 51.4863 5.88303C49.5001 4.94141 48.8081 5.44141 48.2725 5.44141C48.4064 4.77187 47.5494 3.312 44.657 2.66924C41.7646 2.02649 39.9702 2.13361 39.4346 2.26752C38.6311 1.73203 36.1405 0.741394 32.6053 1.06277C29.0701 1.38415 26.8473 2.26766 26.1777 2.66924C24.8387 2.9372 20.3126 2.66924 17.7415 5.88303C15.1705 9.09681 14.7956 9.67251 14.9295 10.0742C13.9921 10.3421 12.1174 9.49812 8.1002 16.3278C4.08298 23.1575 5.55595 23.961 5.68986 24.7644C4.6186 25.434 4.08297 26.773 2.07435 32.7989C0.0657387 38.8247 1.27091 42.8419 2.47608 42.0385C1.94045 42.5741 1.35125 45.0916 1.67263 47.6626C2.225 52.0816 3.81517 51.1442 4.08298 51.6798C2.8778 53.2867 2.31539 56.5005 4.88641 61.3212C7.45744 66.1419 9.97492 66.008 10.5105 66.1419C9.70709 68.9539 10.9123 69.7574 10.9123 72.9712C10.9123 75.5422 8.50193 82.0601 10.9123 82.2108C17.3398 82.6125 28.7488 83.1749 29.3915 82.2108C30.0343 81.2467 28.0524 80.2022 26.9812 79.8004C27.2388 77.611 27.4154 72.9443 28.4594 72.5907C28.5119 72.583 28.555 72.5758 28.5881 72.5694C30.5 72.5694 33.6766 71.3643 34.2122 71.3643C35.4977 71.6856 33.4088 81.2868 35.8191 81.4073C41.1754 81.6752 49.8794 82.0501 51.4863 81.4073C53.0932 80.7646 51.4863 78.997 49.4777 78.1936C51.1737 73.0286 53.0525 58.1231 47.0001 39.8201C48.4936 39.091 49.5001 38.4414 49.5001 38.4414C52.6059 36.5815 60.1001 30.3414 60.5001 21.9414C60.6194 19.4351 60.19 17.2716 59.4587 15.4414C60.4947 14.2414 59.027 13.2747 58.1637 12.9414C56.365 10.168 53.9555 8.52087 52.5001 7.94141Z" fill="#BF79FE"/>
</g>
<path d="M52.5001 7.94141C52.634 7.27187 52.967 6.58503 51.4863 5.88303C49.5001 4.94141 48.8081 5.44141 48.2725 5.44141M52.5001 7.94141C52.0984 8.49075 50.6828 10.9414 49.5001 12.4414M52.5001 7.94141C53.9555 8.52087 56.365 10.168 58.1637 12.9414C59.027 13.2747 60.4947 14.2414 59.4587 15.4414M48.2725 5.44141C48.4064 4.77187 47.5494 3.312 44.657 2.66924C41.7646 2.02649 39.9702 2.13361 39.4346 2.26752C38.6311 1.73203 36.1405 0.741394 32.6053 1.06277C29.0701 1.38415 26.8473 2.26766 26.1777 2.66924C24.8387 2.9372 20.3126 2.66924 17.7415 5.88303C15.1705 9.09681 14.7956 9.67251 14.9295 10.0742C13.9921 10.3421 12.1174 9.49812 8.1002 16.3278C4.08298 23.1575 5.55595 23.961 5.68986 24.7644C4.6186 25.434 4.08297 26.773 2.07435 32.7989C0.0657377 38.8247 1.27091 42.8419 2.47608 42.0385C1.94045 42.5741 1.35125 45.0916 1.67263 47.6626C2.225 52.0816 3.81517 51.1442 4.08298 51.6798C2.8778 53.2867 2.31539 56.5005 4.88641 61.3212C7.45744 66.1419 9.97492 66.008 10.5105 66.1419M48.2725 5.44141C47.6817 6.52996 46.6001 8.9805 47.0001 10.0742M10.5105 66.1419C9.70709 68.9539 10.9123 69.7574 10.9123 72.9712C10.9123 75.5422 8.50193 82.0601 10.9123 82.2108C17.3398 82.6125 28.7488 83.1749 29.3915 82.2108C30.0343 81.2467 28.0524 80.2022 26.9812 79.8004C27.249 77.524 27.4293 72.5694 28.5881 72.5694M10.5105 66.1419C11.3404 67.5946 12.0239 68.7177 16.5 71.3643C20 73.4337 27.7254 72.7361 28.5881 72.5694M43.4518 41.2351C43.0501 41.369 44.0946 41.2351 43.4518 41.2351ZM43.4518 41.2351C44.7505 40.8454 45.9873 40.3145 47.0001 39.8201M34.2122 71.3643C35.4977 71.6856 33.4088 81.2868 35.8191 81.4073C41.1754 81.6752 49.8794 82.0501 51.4863 81.4073C53.0932 80.7646 51.4863 78.997 49.4777 78.1936C51.1737 73.0286 53.0525 58.1231 47.0001 39.8201M34.2122 71.3643C34.7478 71.3643 36.3012 71.3643 38.2294 71.3643M34.2122 71.3643C33.6766 71.3643 30.5 72.5694 28.5881 72.5694M59.4587 15.4414C60.19 17.2716 60.6194 19.4351 60.5001 21.9414C60.1001 30.3414 52.6059 36.5815 49.5001 38.4414C49.5001 38.4414 48.4936 39.091 47.0001 39.8201M59.4587 15.4414C58.8058 15.9414 56.8001 16.9414 54.0001 16.9414" stroke="black" stroke-linecap="round" stroke-linejoin="round"/>
<path d="M57.0001 9.94141C55.1889 8.13043 53.6193 8.09965 53.0003 8.44145C52.03 11.8043 51.5003 14.9412 51.5003 14.9412C51.2786 15.7099 56.5293 13.761 58.5003 12.9419C58.5927 12.6217 58.5003 11.4414 57.0001 9.94141Z" fill="white" stroke="black" stroke-linecap="round"/>
<path d="M37.8278 3.87509L36.6226 3.07164M38.6312 7.4906L36.6226 6.68715M36.0003 4.67854L34.2123 3.87509M35.4174 7.08887L34.2123 6.68715M37.4261 9.49921L35.4174 9.90093M33.5003 12.9414L31.2881 13.9733M33.0071 9.09749L29.7933 9.49921M33.0071 5.48198L31.8019 5.08026M33.5003 2.66992H31.8019M30.519 7.08887L28.2501 7.4906M29.7933 5.08026L28.5881 5.48198M27.5001 4.94141L25.7761 5.48198M28.5881 3.07164L26.9813 3.47337M31.8019 11.4414L29.4915 12.138M26.9813 9.90093L24.9726 10.7044M26.1007 7.4906L23.7675 7.89232M24.5003 4.27681L21.7589 4.67854M21.7589 7.08887L19.3485 7.4906M16.5001 9.49921L17.7416 9.09749M22.964 9.49921L20.9554 9.90093M26.9813 12.713L24.9726 13.5164M27.7847 14.3199L25.7761 15.1233M22.964 12.9414L21.3571 13.5164M19.7502 11.4414L17.7416 12.3113M15.733 12.9414L13.3227 13.5164M20.5537 15.1233H18.1434M26.5003 17.1319L24.4917 17.5337M23.7675 18.7388L21.7589 19.944M21.3571 17.1319L18.5451 17.9354M15.733 16.3285L13.3227 17.1319M13.3227 18.7388L10.9123 19.4414M17.7416 19.944L15.5001 20.9414M8.90372 20.3457L7.29684 21.1492M12.921 21.1492L10.9123 21.9526M11.3141 15.9268L9.30545 17.1319M21.3571 21.6966L18.9468 22.5M23.3657 23.1578L21.3571 24.2173M17.3399 22.9414L14.9296 23.9612M18.9468 24.4414L16.9382 25.5681M12.921 25.1664L10.9123 25.9414M9.30545 23.1578L7.29684 23.9612M12.921 27.9785L10.9123 28.3802M8.90372 27.175L6.49339 27.5767M17.3399 27.9785L14.9296 29.1836M21.3571 29.1836L19.3485 30.3888M16.5001 30.7905L14.9296 31.9414M11.5441 30.3888L9.30545 30.7905M6.89511 31.594L4.8865 32.3974M9.30545 33.2009L6.89511 34.0043M4.8865 35.6112L2.87788 36.8164M8.10028 36.8164L5.68994 38.0215M6.49339 39.9414L4.88651 41.1466M6.49339 42.8422L4.8865 44.4491M6.49339 46.056L4.48477 48.0646M4.08305 45.6543L2.87788 47.2612M12.5192 36.4146L10.5106 37.6198M13.7244 33.2009L11.7158 34.5M16.9382 34.5L15.3313 36.0129M12.5192 39.2267L10.5106 40.4319M18.5451 38.9414L16.5001 40.4319M12.5192 42L10.9123 43.6457M10.1089 47.2612L8.10028 48.0646M8.90372 44.0474L8.10028 45M8.90372 49.6715L7.69855 50.8767M6.89511 49.6715L5.68994 50.8767M6.49339 52.8853L5.68994 54.4922M8.10028 55.6973L6.89511 57.3042M5.68994 56.5008L4.8865 58.1077M7.69855 58.9111L6.49339 60.518M9.70718 58.9111L8.50201 60.518M9.70718 52.0818L8.50201 53.287M11.7158 61.3215L10.9123 63.3301M9.30545 62.1249L8.90372 64.1335M11.5441 54.4922L10.5106 55.6973M12.5192 49.2698L10.9123 50.4749M14.1261 45L12.5192 46.6069M13.3227 57.3042L11.7158 59.5M14.9296 60.518L14.0003 62.5M18.1434 64.1335L17.7416 66M14.1261 65L13.7244 67.5M16.1347 68.5V70M21.3571 65.5L20.9554 67.5M18.9468 68L18.5451 70M15.3313 53.287L14.1261 55.6973M15.733 49.2698L14.1261 50.8767M23.7675 42L22.1606 43.6457M18.9468 42L16.9382 44.0474M18.5451 46.056L16.9382 47.2612M20.5537 47.2612L19.7502 49.6715M18.1434 49.6715L17.3399 52.0818M20.152 54.4922L18.9468 56.5008M17.3399 54.4922L16.1347 56.5008M23.7675 52.0818L22.964 54.4922M22.1606 49.6715L21.3571 52.0818M18.1434 58.9111L17.3399 61.3215M21.3571 60.518L20.9554 63.3301M25.7761 63.3301L24.9726 66M24.5003 60.518L23.7675 62.5M26.9813 55.6973L26.1007 58.1077M22.964 56.5008L22.1606 58.9111M28.9899 47.2612L28.5881 49.2698M26.5003 48.5L25.7761 50.8767M27.7847 51.5L26.9813 52.8853M24.5003 45L23.7675 47.2612M28.5881 40.8336L27.7847 42.8422M24.9726 37.6198L23.7675 39.6284M22.1606 36.4146L20.5537 38.0215M18.9468 35.6112L20.5537 34.0043M26.257 32.8931L24.9726 34.5M28.5881 35.2095L27.7847 37.6198M26.5003 29.1836L24.9726 30.3888M22.964 30.3888L21.3571 31.594M24.5003 25.5681L22.5001 27.175M28.5881 21.9526L26.0001 22.9414M28.2501 19.1406L25.7761 20.3457M33.5003 17.9354L31.5001 19.1406M30.9985 16.3285L28.9899 17.5337M36.0001 12.9414L34.2123 14.3199M37.8278 14.3199L39.5001 13.4414M35.8192 17.5337L37.8278 16.7302M39.4347 19.1406L37.4261 20.3457M35.4174 21.1492L33.0071 21.9526M33.5003 23.5595L30.9985 24.4414M28.9899 25.5681L26.9813 26.5M31.8019 27.5767L30.195 28.3802M30.195 31.1092L28.9899 32.8931M36.0003 25.5681L34.2123 26.5M36.0003 27.9785L34.2123 29.1836M37.4261 30.3888L36.0003 31.594M33.5003 31.9414L32.2951 33.95M31.8019 36.4146L30.9985 38.0215M38.6312 22.5L36.6226 23.1578M40.0001 23.9612L38.6312 25.5681M42.5001 19.4414L40.8469 21.1492M30.195 42.8422L29.7933 45M26.9813 45L26.5003 46.056M29.7933 53.287V55.6973M28.9899 60L28.5881 62.1249M26.9813 67L26.1007 69M22.964 68.5L22.1606 70.5M30.9985 65L29.7933 67.5M31.8019 60V62.1249M31.8019 49.6715V52.0818M34.2123 40.4319L33.5003 42.8422M35.4174 48.0646V50.8767M34.2123 54.4922V57.3042M35.4174 61.3215V64.1335M32.6054 67.5L31.8019 70M26.9813 70.5L26.1007 72.4414M35.4174 35.6112L34.2123 37.6198" stroke="black" stroke-width="0.6" stroke-linecap="round"/>
<path d="M48.1054 13.0039C48.2806 11.8469 49.6627 9.0214 50.9004 7.02511C51.3631 6.2789 52.2948 5.98719 53.0838 6.37246C56.6196 8.09909 59.2652 11.2366 60.482 12.8754C60.6628 13.119 60.7839 13.402 60.8157 13.7037C60.9795 15.2555 60.5581 16.8429 57.4249 18.0496C53.1232 19.7065 47.7173 15.567 48.1054 13.0039Z" fill="#A5FFFD" fill-opacity="0.65" stroke="black"/>
<defs>
<filter id="filter0_i_33174_500" x="0.5" y="0.500061" width="60.5199" height="82.7431" filterUnits="userSpaceOnUse" color-interpolation-filters="sRGB">
<feFlood flood-opacity="0" result="BackgroundImageFix"/>
<feBlend mode="normal" in="SourceGraphic" in2="BackgroundImageFix" result="shape"/>
<feColorMatrix in="SourceAlpha" type="matrix" values="0 0 0 0 0 0 0 0 0 0 0 0 0 0 0 0 0 0 127 0" result="hardAlpha"/>
<feOffset dx="7" dy="1"/>
<feComposite in2="hardAlpha" operator="arithmetic" k2="-1" k3="1"/>
<feColorMatrix type="matrix" values="0 0 0 0 0 0 0 0 0 0 0 0 0 0 0 0 0 0 0.25 0"/>
<feBlend mode="normal" in2="shape" result="effect1_innerShadow_33174_500"/>
</filter>
</defs>
</svg>
