<svg xmlns="http://www.w3.org/2000/svg" width="69" height="49" viewBox="0 0 69 49" fill="none">
  <path d="M36.968 4.66987C34.3041 3.13186 30.8977 4.04458 29.3597 6.7085C27.8217 9.37241 28.7344 12.7787 31.3983 14.3168L58.3614 29.8839C61.0253 31.4219 64.4317 30.5092 65.9697 27.8453C67.5077 25.1814 66.595 21.775 63.9311 20.237L36.968 4.66987Z" fill="#435589" stroke="black"/>
  <path d="M67.1912 25.7241C67.1912 22.4866 64.5666 19.8621 61.3291 19.8621C58.0916 19.8621 55.467 22.4866 55.467 25.7241V42.1379C55.467 45.3755 58.0916 48 61.3291 48C64.5666 48 67.1912 45.3755 67.1912 42.1379V25.7241Z" fill="#435589" stroke="black"/>
  <circle cx="4.29885" cy="4.29885" r="3.79885" transform="matrix(-1 0 0 1 65.6277 21.4253)" fill="#A5A2F2" stroke="black"/>
  <rect x="23.4482" y="1.10345" width="21.1034" height="17.1954" rx="8.5977" fill="#435589" stroke="black"/>
  <path d="M31.7867 4.66987C34.4506 3.13186 37.8569 4.04458 39.3949 6.7085C40.9329 9.37241 40.0202 12.7787 37.3563 14.3168L10.3932 29.8839C7.72929 31.4219 4.32296 30.5092 2.78495 27.8453C1.24694 25.1814 2.15966 21.775 4.82357 20.237L31.7867 4.66987Z" fill="#435589" stroke="black"/>
  <path d="M1.56323 25.7241C1.56323 22.4866 4.18777 19.8621 7.4253 19.8621C10.6628 19.8621 13.2874 22.4866 13.2874 25.7241L13.2874 42.1379C13.2874 45.3755 10.6628 48 7.4253 48C4.18777 48 1.56323 45.3755 1.56323 42.1379L1.56323 25.7241Z" fill="#435589" stroke="black"/>
  <circle cx="7.42532" cy="25.7241" r="3.79885" fill="#A5A2F2" stroke="black"/>
  <circle cx="34.3908" cy="9.70115" r="4.18966" fill="#A5A2F2" stroke="black"/>
</svg>