<svg xmlns="http://www.w3.org/2000/svg" width="69" height="70" viewBox="0 0 69 70" fill="none">
  <path d="M36.968 25.6699C34.3041 24.1319 30.8977 25.0446 29.3597 27.7085C27.8217 30.3724 28.7344 33.7787 31.3983 35.3168L58.3614 50.8839C61.0253 52.4219 64.4317 51.5092 65.9697 48.8453C67.5077 46.1814 66.595 42.775 63.9311 41.237L36.968 25.6699Z" fill="#435589" stroke="black"/>
  <path d="M67.1912 46.7241C67.1912 43.4866 64.5666 40.8621 61.3291 40.8621C58.0916 40.8621 55.467 43.4866 55.467 46.7241V63.1379C55.467 66.3755 58.0916 69 61.3291 69C64.5666 69 67.1912 66.3755 67.1912 63.1379V46.7241Z" fill="#435589" stroke="black"/>
  <circle cx="4.29885" cy="4.29885" r="3.79885" transform="matrix(-1 0 0 1 65.6277 42.4253)" fill="#A5A2F2" stroke="black"/>
  <rect x="32.8276" y="1" width="3.90805" height="25.7931" rx="1.95402" fill="#435589" stroke="black"/>
  <rect x="23.4482" y="22.1034" width="21.1034" height="17.1954" rx="8.5977" fill="#435589" stroke="black"/>
  <path d="M23.4482 1H44.5517C44.5517 6.18005 40.3524 10.3793 35.1724 10.3793H32.8275C27.6475 10.3793 23.4482 6.18005 23.4482 1Z" fill="#435589" stroke="black"/>
  <path d="M31.7867 25.6699C34.4506 24.1319 37.8569 25.0446 39.3949 27.7085C40.9329 30.3724 40.0202 33.7787 37.3563 35.3168L10.3932 50.8839C7.72929 52.4219 4.32296 51.5092 2.78495 48.8453C1.24694 46.1814 2.15966 42.775 4.82357 41.237L31.7867 25.6699Z" fill="#435589" stroke="black"/>
  <path d="M1.56323 46.7241C1.56323 43.4866 4.18777 40.8621 7.4253 40.8621C10.6628 40.8621 13.2874 43.4866 13.2874 46.7241L13.2874 63.1379C13.2874 66.3755 10.6628 69 7.4253 69C4.18777 69 1.56323 66.3755 1.56323 63.1379L1.56323 46.7241Z" fill="#435589" stroke="black"/>
  <circle cx="7.42532" cy="46.7241" r="3.79885" fill="#A5A2F2" stroke="black"/>
  <circle cx="34.3908" cy="30.7011" r="4.18966" fill="#A5A2F2" stroke="black"/>
</svg>