<svg xmlns="http://www.w3.org/2000/svg" width="180" height="155" viewBox="0 0 180 155" fill="none">
  <path d="M120.671 150.943L120.549 150.867H120.405L58.9865 150.867H58.8291L58.7 150.957L53.6316 154.5H17.7796L0.5 137.878V17.1219L17.7796 0.5H162.22L179.5 17.1219V137.878L162.22 154.5H126.354L120.671 150.943Z" fill="#7370C8" stroke="black"/>
  <path d="M12.6621 129.357V25.6434L27.5653 11.3984H152.435L167.338 25.6434V129.357L152.435 143.602H27.5653L12.6621 129.357Z" fill="#3E347C" stroke="black"/>
  <path d="M23.6082 93.2422V33.2181L36.3727 21.0859H143.627L156.392 33.2181V93.2422V121.782L143.627 133.914H36.3727L23.6082 121.782V93.2422Z" fill="#8B87FF" stroke="black"/>
  <path d="M125 93H56L59.7059 98H121.294L125 93Z" fill="#3E347C" stroke="black"/>
  <path d="M53.2389 145.373L49.708 147.734H23.2258L8.51355 132.976V20.813L23.2258 6.05469H55.5929L57.3584 9.59668H123.858L125.623 6.05469H157.99L172.703 20.813V132.976L157.99 147.734H131.508L127.977 145.373" stroke="#78FEFF"/>
  <path d="M31.6216 29.0625H36.4864L31.6216 33.9062V29.0625Z" fill="black"/>
  <path d="M148.378 29.0625H143.514L148.378 33.9062V29.0625Z" fill="black"/>
  <path d="M24.3243 133.203H29.1892L24.3243 128.359V133.203Z" fill="black"/>
  <path d="M155.676 133.203H150.811L155.676 128.359V133.203Z" fill="black"/>
</svg>