<svg width="39" height="48" viewBox="0 0 39 48" fill="none" xmlns="http://www.w3.org/2000/svg">
<path d="M5.89888 28.1048L15.4854 22.1979L20.6483 16.4239C20.718 15.228 20.9706 12.4526 21.4239 10.9181C21.9904 9.00002 24.2023 8.61074 24.546 11.8405C26.6009 9.56889 29.225 7.19152 30.4579 6.80895C30.4579 6.80895 32.2356 6.08274 33.0465 7.57379C33.4506 8.31667 32.8778 9.35783 32.058 10.4098C33.5313 8.7595 35.4559 8.59784 36.2668 10.0886C37.0777 11.5794 35.3515 12.5991 34.7957 13.3039C36.0839 12.1201 37.8145 13.6741 36.7685 15.4506C36.5148 15.8815 33.7719 20.3003 32.7259 22.0767C31.6799 23.8532 30.4375 24.5289 30.4375 24.5289L25.1525 31.8312C24.5518 31.4289 23.9768 31.02 23.4281 30.6087C21.7088 32.8992 9.9669 43.455 5.59645 40.6C-0.6984 37.9066 3.51608 30.8767 5.89888 28.1048Z" fill="#BF79FE"/>
<path d="M15.4854 22.1979L5.89888 28.1048C3.51608 30.8767 -0.6984 37.9066 5.59645 40.6C9.9669 43.455 21.7088 32.8992 23.4281 30.6087M15.4854 22.1979C16.1466 23.6336 18.8881 27.2056 23.4281 30.6087M15.4854 22.1979L20.6483 16.4239M34.7957 13.3039C36.0839 12.1201 37.8145 13.6741 36.7685 15.4506C36.5148 15.8815 33.7719 20.3003 32.7259 22.0767C31.6799 23.8532 30.4375 24.5289 30.4375 24.5289L25.1525 31.8312C24.5518 31.4289 23.9768 31.02 23.4281 30.6087M34.7957 13.3039C32.649 15.2766 32.2241 16.7151 32.2241 16.7151M34.7957 13.3039C35.3515 12.5991 37.0777 11.5794 36.2668 10.0886C35.4559 8.59784 33.5313 8.7595 32.058 10.4098M29.5757 13.3261C30.7344 11.7566 33.8574 9.06456 33.0465 7.57379C32.2356 6.08274 30.4579 6.80895 30.4579 6.80895C29.225 7.19152 26.6009 9.56889 24.546 11.8405M20.6483 16.4239L22.4921 14.362C23.0057 13.6255 23.7311 12.7413 24.546 11.8405M20.6483 16.4239C20.718 15.228 20.9706 12.4526 21.4239 10.9181C21.9904 9.00002 24.2023 8.61074 24.546 11.8405" stroke="black" stroke-linecap="round"/>
<path d="M36.768 15.4498C36.5143 15.8806 33.7714 20.2994 32.7254 22.0759C31.6794 23.8523 30.437 24.5281 30.437 24.5281L25.152 31.8303C24.5513 31.428 23.9763 31.0192 23.4276 30.6079C18.8876 27.2047 16.1461 23.6327 15.4848 22.197L20.6478 16.4231C20.7175 15.2271 20.9701 12.4517 21.4234 10.9172C21.9899 8.99916 24.2018 8.60988 24.5455 11.8396C26.6004 9.56803 29.2245 7.19066 30.4574 6.80809C30.4574 6.80809 32.2351 6.08189 33.046 7.57293C33.4501 8.31581 32.8773 9.35698 32.0575 10.4089C33.5308 8.75864 35.4554 8.59698 36.2663 10.0878C37.0772 11.5785 35.351 12.5983 34.7952 13.303C36.0834 12.1193 37.814 13.6733 36.768 15.4498Z" fill="#F0E78C"/>
<path d="M34.7952 13.303C36.0834 12.1193 37.814 13.6733 36.768 15.4498C36.5143 15.8806 33.7714 20.2994 32.7254 22.0759C31.6794 23.8523 30.437 24.5281 30.437 24.5281L25.152 31.8303C24.5513 31.428 23.9763 31.0192 23.4276 30.6079C18.8876 27.2047 16.1461 23.6327 15.4848 22.197L20.6478 16.4231M34.7952 13.303C32.6485 15.2757 32.2236 16.7143 32.2236 16.7143M34.7952 13.303C35.351 12.5983 37.0772 11.5785 36.2663 10.0878C35.4554 8.59698 33.5308 8.75864 32.0575 10.4089M29.5752 13.3252C30.7339 11.7557 33.8569 9.0637 33.046 7.57293C32.2351 6.08189 30.4574 6.80809 30.4574 6.80809C29.2245 7.19066 26.6004 9.56803 24.5455 11.8396M20.6478 16.4231L22.4916 14.3611C23.0052 13.6246 23.7306 12.7404 24.5455 11.8396M20.6478 16.4231C20.7175 15.2272 20.9701 12.4517 21.4234 10.9172C21.9899 8.99916 24.2018 8.60988 24.5455 11.8396" stroke="black" stroke-linecap="round"/>
<path d="M36.768 15.4494C36.5143 15.8802 33.7715 20.299 32.7254 22.0755C31.6794 23.8519 30.437 24.5277 30.437 24.5277L25.152 31.8299C24.5513 31.4276 23.9763 31.0188 23.4277 30.6075C21.7084 32.8979 9.75719 43.4498 5.38674 40.5948C4.68273 40.2936 4.09914 39.9423 3.6212 39.552C5.60801 39.6175 11.2645 38.2363 21.7188 29.2515C23.8256 27.4408 28.3161 23.5884 29.4233 22.6642C30.8073 21.5089 36.6772 14.9009 36.7388 13.3552C37.1383 13.8309 37.2589 14.6156 36.768 15.4494Z" fill="black" fill-opacity="0.3"/>
<path d="M20.6479 16.4227L22.4916 14.3608C23.0052 13.6242 23.7306 12.7401 24.5455 11.8392C24.2019 8.60951 21.99 8.99879 21.4234 10.9169C20.9702 12.4513 20.7175 15.2268 20.6479 16.4227Z" fill="black" fill-opacity="0.3"/>
</svg>
