<svg width="29" height="45" viewBox="0 0 29 45" fill="none" xmlns="http://www.w3.org/2000/svg">
<path d="M2.49999 32.3603L9.00006 20.8603L12.316 13.8603C12.044 12.6936 11.5001 9.96029 11.5001 8.36029C11.5001 6.36029 13.5111 5.36038 14.7556 8.36046C16.0829 5.59984 17.926 2.57652 19.0001 1.86037C19.0001 1.86037 20.4993 0.660326 21.6993 1.86061C22.2972 2.45859 22.0429 3.61936 21.5546 4.86042C22.5001 2.86042 24.3001 2.16019 25.5001 3.36019C26.7001 4.56019 25.3334 6.02714 25.0001 6.86046C25.9001 5.36029 28.0001 6.36042 27.5001 8.36046C27.3788 8.84553 26.0001 13.8603 25.5001 15.8603C25.0001 17.8603 24.0001 18.8603 24.0001 18.8603L21.0001 27.3605C20.31 27.1449 19.6428 26.9157 19.0001 26.6766C18 29.3603 11.5001 45.3603 6.49993 43.8603C-0.300069 43.0603 0.999995 35.6936 2.49999 32.3603Z" fill="#B392FF"/>
<path d="M9.00006 20.8603L2.49999 32.3603C0.999995 35.6936 -0.300069 43.0603 6.49993 43.8603C11.5001 45.3603 18 29.3603 19.0001 26.6766M9.00006 20.8603C10.0409 22.0499 13.682 24.6989 19.0001 26.6766M9.00006 20.8603L12.316 13.8603M25.0001 6.86046C25.9001 5.36029 28.0001 6.36042 27.5001 8.36046C27.3788 8.84553 26.0001 13.8603 25.5001 15.8603C25.0001 17.8603 24.0001 18.8603 24.0001 18.8603L21.0001 27.3605C20.31 27.1449 19.6428 26.9157 19.0001 26.6766M25.0001 6.86046C23.5001 9.36046 23.5001 10.8605 23.5001 10.8605M25.0001 6.86046C25.3334 6.02714 26.7001 4.56019 25.5001 3.36019C24.3001 2.16019 22.5001 2.86042 21.5546 4.86042M20.0001 8.36046C20.6668 6.52699 22.8993 3.06061 21.6993 1.86061C20.4993 0.660326 19.0001 1.86037 19.0001 1.86037C17.926 2.57652 16.0829 5.59984 14.7556 8.36046M12.316 13.8603L13.5001 11.3605C13.784 10.5087 14.2293 9.45522 14.7556 8.36046M12.316 13.8603C12.044 12.6936 11.5001 9.96029 11.5001 8.36029C11.5001 6.36029 13.5111 5.36038 14.7556 8.36046" stroke="black" stroke-linecap="round"/>
<path d="M27.5 8.36052C27.3788 8.84559 26 13.8604 25.5 15.8604C25.0001 17.8604 24 18.8604 24 18.8604L21 27.3606C20.3099 27.1449 19.6427 26.9157 19 26.6767C13.6819 24.699 10.0409 22.0499 9 20.8603L12.3159 13.8604C12.0439 12.6937 11.5 9.96035 11.5 8.36035C11.5 6.36035 13.5111 5.36045 14.7555 8.36052C16.0828 5.5999 17.926 2.57658 19 1.86043C19 1.86043 20.4992 0.660387 21.6992 1.86067C22.2972 2.45865 22.0428 3.61942 21.5546 4.86048C22.5 2.86048 24.3 2.16025 25.5 3.36025C26.7 4.56025 25.3333 6.0272 25 6.86052C25.9001 5.36035 28 6.36048 27.5 8.36052Z" fill="#F0E78C"/>
<path d="M25 6.86052C25.9001 5.36035 28 6.36048 27.5 8.36052C27.3788 8.84559 26 13.8604 25.5 15.8604C25.0001 17.8604 24 18.8604 24 18.8604L21 27.3606C20.3099 27.1449 19.6427 26.9157 19 26.6767C13.6819 24.699 10.0409 22.0499 9 20.8603L12.3159 13.8604M25 6.86052C23.5 9.36052 23.5 10.8605 23.5 10.8605M25 6.86052C25.3333 6.0272 26.7 4.56025 25.5 3.36025C24.3 2.16025 22.5 2.86048 21.5546 4.86048M20 8.36052C20.6667 6.52705 22.8992 3.06067 21.6992 1.86067C20.4992 0.660387 19 1.86043 19 1.86043C17.926 2.57658 16.0828 5.5999 14.7555 8.36052M12.3159 13.8604L13.5 11.3606C13.784 10.5087 14.2292 9.45528 14.7555 8.36052M12.3159 13.8604C12.0439 12.6937 11.5 9.96035 11.5 8.36035C11.5 6.36035 13.5111 5.36045 14.7555 8.36052" stroke="black" stroke-linecap="round"/>
<path d="M27.5 8.36052C27.3788 8.84559 26 13.8604 25.5 15.8604C25.0001 17.8604 24 18.8604 24 18.8604L21 27.3606C20.3099 27.1449 19.6427 26.9157 19 26.6767C17.9999 29.3604 11.5 45.3604 6.49987 43.8604C5.73936 43.7709 5.08016 43.5993 4.51123 43.3604C6.43521 42.8604 11.6219 38.6604 16.977 25.8604C18.4846 23.527 21.6999 18.5604 22.4999 17.3604C23.5 15.8604 27.2576 7.86023 26.8788 6.36035C27.3967 6.70342 27.7347 7.42185 27.5 8.36052Z" fill="black" fill-opacity="0.3"/>
<path d="M12.3159 13.8604L13.5 11.3606C13.784 10.5087 14.2292 9.45528 14.7556 8.36052C13.5111 5.36044 11.5 6.36035 11.5 8.36035C11.5 9.96035 12.0439 12.6937 12.3159 13.8604Z" fill="black" fill-opacity="0.3"/>
</svg>
