<svg width="43" height="43" viewBox="0 0 43 43" fill="none" xmlns="http://www.w3.org/2000/svg">
<g id="Group 48100467">
<rect id="Rectangle 24494" width="43" height="43" rx="10" fill="#0F172B"/>
<g id="Group 48100493">
<path id="Vector" d="M7.17632 17.4747C7.14923 17.4747 7.12322 17.4638 7.10405 17.4444C7.08487 17.4251 7.07411 17.3989 7.07411 17.3715C7.0738 16.9312 6.90031 16.509 6.59175 16.1977C6.28319 15.8865 5.86484 15.7116 5.42862 15.7116C5.40152 15.7116 5.37552 15.7008 5.35635 15.6814C5.33719 15.6621 5.32642 15.6358 5.32642 15.6085C5.32642 15.5811 5.33719 15.5549 5.35635 15.5355C5.37552 15.5162 5.40152 15.5053 5.42862 15.5053C5.86438 15.5048 6.28213 15.3298 6.59027 15.0188C6.8984 14.7078 7.07172 14.286 7.07223 13.8462C7.07223 13.8188 7.083 13.7926 7.10217 13.7732C7.12131 13.7539 7.14732 13.743 7.17442 13.743C7.20155 13.743 7.22752 13.7539 7.2467 13.7732C7.26587 13.7926 7.27664 13.8188 7.27664 13.8462C7.27712 14.286 7.45047 14.7078 7.75857 15.0188C8.06671 15.3298 8.48447 15.5048 8.92023 15.5053C8.93365 15.5053 8.94696 15.508 8.95936 15.5131C8.97176 15.5183 8.98301 15.5259 8.9925 15.5355C9.002 15.5451 9.00953 15.5565 9.01467 15.569C9.01978 15.5815 9.02244 15.5949 9.02244 15.6085C9.02244 15.622 9.01978 15.6354 9.01467 15.648C9.00953 15.6605 9.002 15.6718 8.9925 15.6814C8.98301 15.691 8.97176 15.6986 8.95936 15.7038C8.94696 15.7089 8.93365 15.7116 8.92023 15.7116C8.48447 15.7121 8.06671 15.8871 7.75857 16.1981C7.45047 16.5092 7.27712 16.9309 7.27664 17.3707C7.27685 17.3979 7.26641 17.4241 7.24763 17.4435C7.22885 17.463 7.20324 17.4742 7.17632 17.4747Z" fill="white"/>
<path id="Vector_2" d="M7.17661 13.8462C7.17661 14.3136 7.36054 14.7618 7.68797 15.0923C8.01537 15.4228 8.45941 15.6085 8.92242 15.6085C8.45941 15.6085 8.01537 15.7941 7.68797 16.1246C7.36054 16.4551 7.17661 16.9034 7.17661 17.3707C7.17661 16.9034 6.99268 16.4551 6.66528 16.1246C6.33788 15.7941 5.89383 15.6085 5.43082 15.6085C5.89383 15.6085 6.33788 15.4228 6.66528 15.0923C6.99268 14.7618 7.17661 14.3136 7.17661 13.8462ZM7.17661 13.6398C7.12242 13.6398 7.07043 13.6616 7.03209 13.7003C6.99374 13.739 6.97221 13.7915 6.97221 13.8462C6.97172 14.2587 6.80914 14.6541 6.52021 14.9458C6.23125 15.2375 5.83947 15.4016 5.43082 15.4021C5.37661 15.4021 5.32461 15.4239 5.28628 15.4625C5.24795 15.5013 5.22641 15.5537 5.22641 15.6085C5.22641 15.6632 5.24795 15.7157 5.28628 15.7544C5.32461 15.7931 5.37661 15.8148 5.43082 15.8148C5.83947 15.8153 6.23125 15.9794 6.52021 16.2711C6.80914 16.5628 6.97172 16.9582 6.97221 17.3707C6.97221 17.4255 6.99374 17.478 7.03209 17.5166C7.07043 17.5553 7.12242 17.5771 7.17661 17.5771C7.23084 17.5771 7.28282 17.5553 7.32117 17.5166C7.35949 17.478 7.38105 17.4255 7.38105 17.3707C7.38144 16.9582 7.54396 16.5627 7.83295 16.271C8.12192 15.9793 8.51376 15.8152 8.92242 15.8148C8.97664 15.8148 9.02863 15.7931 9.06698 15.7544C9.10529 15.7157 9.12685 15.6632 9.12685 15.6085C9.12685 15.5537 9.10529 15.5013 9.06698 15.4625C9.02863 15.4239 8.97664 15.4021 8.92242 15.4021C8.51376 15.4017 8.12192 15.2377 7.83295 14.946C7.54396 14.6542 7.38144 14.2587 7.38105 13.8462C7.38105 13.7915 7.35949 13.739 7.32117 13.7003C7.28282 13.6616 7.23084 13.6398 7.17661 13.6398Z" fill="white"/>
<path id="Vector_3" d="M23.088 10.8345C23.0609 10.8345 23.0349 10.8236 23.0158 10.8042C22.9966 10.7849 22.9859 10.7587 22.9859 10.7313C22.9854 10.2914 22.8121 9.86963 22.504 9.55857C22.1958 9.24751 21.778 9.07259 21.3422 9.07218C21.3151 9.07218 21.2891 9.06131 21.27 9.04196C21.2508 9.02262 21.2401 8.99637 21.2401 8.96901C21.2401 8.94165 21.2508 8.91541 21.27 8.89606C21.2891 8.87671 21.3151 8.86584 21.3422 8.86584C21.7781 8.86534 22.1959 8.69032 22.504 8.37921C22.8122 8.06809 22.9854 7.64628 22.9859 7.20635C22.9859 7.1928 22.9885 7.17938 22.9936 7.16687C22.9988 7.15435 23.0063 7.14298 23.0158 7.1334C23.0253 7.12382 23.0365 7.11622 23.0489 7.11103C23.0613 7.10585 23.0746 7.10318 23.088 7.10318C23.1015 7.10318 23.1147 7.10585 23.1271 7.11103C23.1395 7.11622 23.1508 7.12382 23.1603 7.1334C23.1698 7.14298 23.1774 7.15435 23.1825 7.16687C23.1876 7.17938 23.1903 7.1928 23.1903 7.20635C23.1907 7.64632 23.3641 8.06812 23.6723 8.37923C23.9805 8.69033 24.3984 8.86534 24.8342 8.86584C24.8613 8.86584 24.8873 8.87671 24.9065 8.89606C24.9257 8.91541 24.9364 8.94165 24.9364 8.96901C24.9364 8.99637 24.9257 9.02262 24.9065 9.04196C24.8873 9.06131 24.8613 9.07218 24.8342 9.07218C24.3984 9.07259 23.9805 9.2475 23.6723 9.55855C23.3641 9.86959 23.1907 10.2914 23.1903 10.7313C23.1903 10.7587 23.1795 10.7849 23.1603 10.8042C23.1411 10.8236 23.1151 10.8345 23.088 10.8345Z" fill="white"/>
<path id="Vector_4" d="M23.0883 7.20634C23.0882 7.4378 23.1333 7.667 23.2211 7.88085C23.3088 8.0947 23.4374 8.28902 23.5995 8.45271C23.7616 8.61639 23.9541 8.74623 24.1659 8.83482C24.3777 8.92341 24.6048 8.969 24.8341 8.969C24.371 8.969 23.927 9.15467 23.5996 9.48516C23.2722 9.81565 23.0883 10.2639 23.0883 10.7313C23.0883 10.4998 23.0432 10.2707 22.9555 10.0568C22.8677 9.84299 22.7392 9.6487 22.577 9.48505C22.4149 9.32139 22.2224 9.19159 22.0106 9.10305C21.7988 9.0145 21.5717 8.96895 21.3425 8.969C21.5718 8.969 21.7988 8.92341 22.0106 8.83482C22.2225 8.74623 22.4149 8.61639 22.5771 8.45271C22.7392 8.28902 22.8678 8.0947 22.9555 7.88085C23.0432 7.667 23.0883 7.4378 23.0883 7.20634ZM23.0883 7C23.034 7 22.9821 7.02174 22.9437 7.06043C22.9054 7.09913 22.8839 7.15161 22.8839 7.20634C22.8834 7.61891 22.721 8.01447 22.432 8.30624C22.143 8.59801 21.7512 8.76216 21.3425 8.76266C21.2882 8.76266 21.2363 8.7844 21.1979 8.8231C21.1596 8.86179 21.1381 8.91428 21.1381 8.969C21.1381 9.02372 21.1596 9.07621 21.1979 9.1149C21.2363 9.1536 21.2882 9.17534 21.3425 9.17534C21.7515 9.17524 22.1438 9.33907 22.4332 9.63084C22.7226 9.9226 22.8853 10.3184 22.8857 10.7313C22.8857 10.786 22.9073 10.8385 22.9456 10.8772C22.984 10.9159 23.036 10.9376 23.0901 10.9376C23.1444 10.9376 23.1964 10.9159 23.2347 10.8772C23.273 10.8385 23.2946 10.786 23.2946 10.7313C23.2955 10.3194 23.458 9.92466 23.7465 9.63342C24.035 9.34218 24.4261 9.17816 24.8341 9.17725C24.8883 9.17725 24.9403 9.15551 24.9786 9.11681C25.017 9.07812 25.0385 9.02564 25.0385 8.97091C25.0385 8.91619 25.017 8.8637 24.9786 8.82501C24.9403 8.78631 24.8883 8.76457 24.8341 8.76457C24.4254 8.76407 24.0335 8.59992 23.7446 8.30815C23.4556 8.01639 23.2931 7.62082 23.2927 7.20825C23.2927 7.15352 23.2711 7.10104 23.2328 7.06235C23.1945 7.02365 23.1425 7.00191 23.0883 7.00191V7Z" fill="white"/>
<path id="Vector_5" d="M40.5 31.1717L28.0125 13.1057L24.4126 15.8408L28.8093 21.4051L16.678 9.28232L3 31.1717H40.5Z" fill="white"/>
<path id="Vector_6" d="M16.36 23.7969C16.36 23.7969 17.2095 26.1102 16.6329 31.1716H19.0802C19.0802 31.1716 20.4573 26.5633 20.0383 25.681C19.6192 24.7988 16.36 23.7969 16.36 23.7969Z" fill="url(#paint0_linear_22142_975)"/>
<path id="Vector_7" d="M29.5931 26.8253C28.3307 22.6347 24.5411 21.9057 22.9687 21.9057C22.2442 21.9057 19.5683 20.7441 18.5902 20.2393C18.4528 20.1686 18.2654 19.7579 18.3222 19.6134L18.5997 19.1587C18.6753 18.8435 18.7329 18.4976 18.4706 18.3101L18.0122 18.0808C17.9452 18.0467 17.8696 18.0339 17.7952 18.0441C17.7209 18.0542 17.6514 18.0869 17.5958 18.1377L17.1597 18.5347C17.1597 18.5347 14.9703 18.0464 14.5906 18.1041C14.3684 18.1381 14.161 18.5106 14.027 18.8144C13.9902 18.8931 13.9262 18.9554 13.8471 18.9897C13.768 19.0241 13.6791 19.028 13.5973 19.0009C12.8172 18.725 12.4996 18.8148 12.4996 18.8148C12.4996 18.8148 11.8144 19.7139 12.4996 20.4055C17.8047 25.9079 19.6031 24.8101 20.2758 31.1928H22.6984L23.8272 28.7855L25.7468 28.8027L26.6625 31.1932H30.2415L29.5931 26.8253ZM14.8132 19.281C14.7653 19.281 14.7186 19.2667 14.6788 19.2398C14.639 19.213 14.608 19.1748 14.5897 19.1302C14.5714 19.0856 14.5666 19.0366 14.5759 18.9892C14.5852 18.9418 14.6083 18.8983 14.6421 18.8641C14.6759 18.83 14.719 18.8067 14.766 18.7973C14.8129 18.7879 14.8615 18.7927 14.9057 18.8112C14.9499 18.8297 14.9877 18.861 15.0143 18.9012C15.0408 18.9413 15.0551 18.9885 15.0551 19.0368C15.0551 19.1016 15.0296 19.1637 14.9842 19.2095C14.9388 19.2553 14.8773 19.281 14.8132 19.281Z" fill="#3083DC"/>
</g>
</g>
<defs>
<linearGradient id="paint0_linear_22142_975" x1="17.136" y1="28.1166" x2="19.7279" y2="25.3637" gradientUnits="userSpaceOnUse">
<stop stop-color="#3083DC"/>
<stop offset="0.1" stop-color="#2E7FD5"/>
<stop offset="0.24" stop-color="#2A72C0"/>
<stop offset="0.41" stop-color="#235F9F"/>
<stop offset="0.61" stop-color="#194370"/>
<stop offset="0.82" stop-color="#0C2036"/>
<stop offset="1"/>
</linearGradient>
</defs>
</svg>
