<svg width="80" height="80" viewBox="0 0 80 80" fill="none" xmlns="http://www.w3.org/2000/svg">
  <rect width="80" height="80" rx="10" fill="#96D6FF"/>
  <rect y="42.2222" width="80" height="37.7778" rx="10" fill="#B6DF5D"/>
  <ellipse cx="62.7244" cy="50.5806" rx="3.66969" ry="1.34555" fill="black" fill-opacity="0.2"/>
  <ellipse cx="11.7176" cy="54.7396" rx="8.44029" ry="1.34555" fill="black" fill-opacity="0.2"/>
  <ellipse cx="44.2227" cy="56.8889" rx="6" ry="2.22222" fill="black" fill-opacity="0.2"/>
  <ellipse cx="28.8872" cy="63.5555" rx="5.77778" ry="1.77778" fill="black" fill-opacity="0.2"/>
  <ellipse cx="37.3342" cy="50.8889" rx="20.8889" ry="2.88889" fill="black" fill-opacity="0.2"/>
  <path d="M23.351 21.9459C18.2251 24.8647 14.6602 31.0343 14.6602 36.2451C14.6602 40.5012 17.0384 43.1522 20.703 44.5938H38.2206C41.8852 43.1522 44.2635 40.5013 44.2635 36.2451C44.2635 31.0343 40.6985 24.8647 35.5726 21.9459H23.351Z" fill="#DCA450" stroke="black" stroke-linecap="round"/>
  <path d="M16.009 30.2293C15.1431 32.1878 14.6602 34.226 14.6602 36.1349C14.6602 37.6758 14.9748 39.0053 15.5516 40.1424H43.372C43.9488 39.0053 44.2635 37.6758 44.2635 36.1349C44.2635 34.226 43.7806 32.1878 42.9147 30.2293H16.009Z" fill="#EBD783" stroke="black" stroke-linecap="round"/>
  <path d="M29.4606 17.3289C28.4857 17.3289 27.6953 18.0763 27.6953 18.9982C27.6953 19.6218 28.057 20.1656 28.5929 20.4522H30.3283C30.8642 20.1656 31.226 19.6218 31.226 18.9982C31.226 18.0763 30.4356 17.3289 29.4606 17.3289Z" fill="#A77148" stroke="black" stroke-linecap="round"/>
  <path d="M21.8555 22.8965C21.8555 21.0965 23.3146 19.6374 25.1145 19.6374H33.9412C35.7411 19.6374 37.2003 21.0965 37.2003 22.8965H21.8555Z" fill="#A77148" stroke="black" stroke-linecap="round"/>
  <rect x="22.1836" y="42.4012" width="8.93366" height="2.35096" rx="1.17548" transform="rotate(90 22.1836 42.4012)" fill="#76500D" stroke="black" stroke-linecap="round"/>
  <rect x="42.168" y="42.4012" width="8.93366" height="2.35096" rx="1.17548" transform="rotate(90 42.168 42.4012)" fill="#76500D" stroke="black" stroke-linecap="round"/>
  <rect x="64.7344" y="42.4012" width="8.93366" height="2.35096" rx="1.17548" transform="rotate(90 64.7344 42.4012)" fill="#76500D" stroke="black" stroke-linecap="round"/>
  <path d="M39.6986 13.0991C32.5568 17.1658 27.5898 25.7617 27.5898 33.0218C27.5898 38.9517 30.9034 42.6452 36.0092 44.6537H60.4158C65.5216 42.6452 68.8352 38.9517 68.8352 33.0218C68.8352 25.7617 63.8682 17.1658 56.7265 13.0991H39.6986Z" fill="#DCA450" stroke="black" stroke-linecap="round"/>
  <path d="M29.4691 24.6406C28.2627 27.3693 27.5898 30.209 27.5898 32.8686C27.5898 35.0155 28.0283 36.8678 28.8319 38.4521H67.5932C68.3968 36.8678 68.8352 35.0155 68.8352 32.8686C68.8352 30.209 68.1624 27.3693 66.956 24.6406H29.4691Z" fill="#EBD783" stroke="black" stroke-linecap="round"/>
  <path d="M48.212 21.6134C41.42 21.6134 35.9141 27.0914 35.9141 33.8488C35.9141 38.4202 38.434 42.4061 42.1672 44.5065H54.2567C57.99 42.4061 60.5099 38.4202 60.5099 33.8488C60.5099 27.0914 55.0039 21.6134 48.212 21.6134Z" fill="#A77148"/>
  <path d="M48.212 21.6134C41.42 21.6134 35.9141 27.0914 35.9141 33.8488C35.9141 38.4202 38.434 42.4061 42.1672 44.5065H54.2567C57.99 42.4061 60.5099 38.4202 60.5099 33.8488C60.5099 27.0914 55.0039 21.6134 48.212 21.6134Z" fill="#A77148"/>
  <path d="M48.212 21.6134C41.42 21.6134 35.9141 27.0914 35.9141 33.8488C35.9141 38.4202 38.434 42.4061 42.1672 44.5065H54.2567C57.99 42.4061 60.5099 38.4202 60.5099 33.8488C60.5099 27.0914 55.0039 21.6134 48.212 21.6134Z" stroke="black" stroke-linecap="round"/>
  <path d="M48.2128 23.6943C42.5703 23.6943 37.9961 28.1762 37.9961 33.705C37.9961 37.4453 40.0896 40.7064 43.191 42.4249H50.666H53.2346C56.3361 40.7064 58.4296 37.4453 58.4296 33.705C58.4296 28.1762 53.8554 23.6943 48.2128 23.6943Z" fill="#C09344"/>
  <path d="M45.1105 27.1111V35.3334M47.3327 30.8889V36.2223M52.2216 25.5556V30.8889M50.666 39.5556V42.4249M50.666 42.4249H43.191C40.0896 40.7064 37.9961 37.4453 37.9961 33.705C37.9961 28.1762 42.5703 23.6943 48.2128 23.6943C53.8554 23.6943 58.4296 28.1762 58.4296 33.705C58.4296 37.4453 56.3361 40.7064 53.2346 42.4249H50.666Z" stroke="black" stroke-linecap="round"/>
  <circle cx="55.556" cy="34.2222" r="1.33333" fill="#A77148" stroke="black" stroke-linecap="round"/>
  <path d="M48.2135 6.66663C46.8551 6.66663 45.7539 7.70789 45.7539 8.99235C45.7539 9.8613 46.2579 10.619 47.0045 11.0182H49.4224C50.1691 10.619 50.6731 9.8613 50.6731 8.99235C50.6731 7.70789 49.5719 6.66663 48.2135 6.66663Z" fill="#A77148" stroke="black" stroke-linecap="round"/>
  <path d="M37.6172 14.4239C37.6172 11.9161 39.6502 9.8831 42.158 9.8831H54.4559C56.9637 9.8831 58.9967 11.9161 58.9967 14.4239H37.6172Z" fill="#A77148" stroke="black" stroke-linecap="round"/>
  <path d="M49.6883 20.937C49.9459 20.937 50.1613 21.1327 50.186 21.3892L50.6579 26.2965C50.6713 26.4368 50.625 26.5762 50.5302 26.6805C50.4355 26.7849 50.3011 26.8443 50.1602 26.8443H46.2909C46.15 26.8443 46.0156 26.7849 45.9208 26.6805C45.8261 26.5762 45.7797 26.4368 45.7932 26.2965L46.2651 21.3892C46.2897 21.1327 46.5052 20.937 46.7628 20.937H49.6883Z" fill="#F7BE4A" stroke="black" stroke-linejoin="round"/>
  <path d="M50.1602 25.8444C50.4363 25.8444 50.6602 26.0682 50.6602 26.3444V27.7867C50.6602 27.8124 50.6582 27.8381 50.6542 27.8635L50.1602 27.7867C50.6542 27.8635 50.6542 27.8639 50.6541 27.8643L50.654 27.8651L50.6537 27.8667L50.6531 27.8704L50.6516 27.879C50.6505 27.8853 50.649 27.8927 50.6473 27.9012C50.6437 27.9182 50.6388 27.9394 50.6321 27.9642C50.6187 28.0139 50.5981 28.0787 50.5665 28.1535C50.5035 28.3032 50.3961 28.4953 50.2159 28.6844C49.8434 29.0754 49.2206 29.3924 48.2255 29.3924C47.2304 29.3924 46.6077 29.0754 46.2352 28.6844C46.055 28.4953 45.9476 28.3032 45.8845 28.1535C45.853 28.0787 45.8323 28.0139 45.819 27.9642C45.8123 27.9394 45.8074 27.9182 45.8038 27.9012C45.802 27.8927 45.8006 27.8853 45.7995 27.879L45.798 27.8704L45.7974 27.8667L45.7971 27.8651L45.797 27.8643C45.7969 27.8639 45.7969 27.8635 46.2909 27.7867L45.7969 27.8635C45.7929 27.8381 45.7909 27.8124 45.7909 27.7867V26.3444C45.7909 26.0682 46.0148 25.8444 46.2909 25.8444H50.1602Z" fill="#D39924" stroke="black" stroke-linejoin="round"/>
  <path d="M58.0369 20.937C58.1773 20.937 58.3113 20.9961 58.406 21.0998L62.8887 26.0071C63.0223 26.1534 63.057 26.3648 62.977 26.5461C62.8971 26.7274 62.7177 26.8444 62.5195 26.8444H58.2728C58.0979 26.8444 57.9358 26.753 57.8451 26.6034L54.8724 21.6961C54.7789 21.5417 54.7759 21.3489 54.8645 21.1916C54.9531 21.0343 55.1196 20.937 55.3001 20.937H58.0369Z" fill="white" stroke="black" stroke-linejoin="round"/>
  <path d="M62.5195 25.8444C62.7957 25.8444 63.0195 26.0682 63.0195 26.3444V27.7867C63.0195 27.8149 63.0171 27.843 63.0124 27.8708L62.5195 27.7867C63.0124 27.8708 63.0123 27.8712 63.0123 27.8716L63.0121 27.8725L63.0118 27.8743L63.0111 27.8782L63.0093 27.8874C63.008 27.894 63.0063 27.9018 63.0043 27.9107C63.0003 27.9284 62.9947 27.9503 62.9871 27.9759C62.972 28.0271 62.9488 28.0932 62.9137 28.1692C62.8432 28.3217 62.7247 28.5137 62.5289 28.7009C62.1281 29.0843 61.4637 29.3924 60.3962 29.3924C59.3287 29.3924 58.6642 29.0843 58.2634 28.7009C58.0677 28.5137 57.9492 28.3217 57.8787 28.1692C57.8435 28.0932 57.8203 28.0271 57.8052 27.9759C57.7976 27.9503 57.7921 27.9284 57.788 27.9107C57.786 27.9018 57.7843 27.894 57.783 27.8874L57.7813 27.8782L57.7805 27.8743L57.7802 27.8725L57.7801 27.8716C57.78 27.8712 57.7799 27.8708 58.2728 27.7867L57.7799 27.8708C57.7752 27.843 57.7728 27.8149 57.7728 27.7867V26.3444C57.7728 26.0682 57.9967 25.8444 58.2728 25.8444H62.5195Z" fill="#D9D9D9" stroke="black" stroke-linejoin="round"/>
  <path d="M55.3007 20.937C55.4756 20.937 55.6378 21.0284 55.7284 21.178L58.7011 26.0853C58.7946 26.2397 58.7977 26.4325 58.7091 26.5898C58.6205 26.7471 58.454 26.8444 58.2734 26.8444H54.1211C53.9032 26.8444 53.7104 26.7033 53.6445 26.4956L52.0874 21.5883C52.0391 21.4363 52.0663 21.2704 52.1605 21.1417C52.2546 21.0131 52.4045 20.937 52.5639 20.937H55.3007Z" fill="#F7BE4A" stroke="black" stroke-linejoin="round"/>
  <path d="M58.2734 25.8444C58.5496 25.8444 58.7734 26.0682 58.7734 26.3444V27.7867C58.7734 27.8142 58.7712 27.8418 58.7666 27.869L58.2734 27.7867C58.7666 27.869 58.7665 27.8694 58.7665 27.8698L58.7663 27.8706L58.766 27.8724L58.7653 27.8763L58.7637 27.8853C58.7624 27.8919 58.7608 27.8996 58.7588 27.9083C58.7549 27.9258 58.7495 27.9476 58.7421 27.973C58.7275 28.0238 58.7049 28.0897 58.6707 28.1654C58.602 28.3172 58.4863 28.5092 58.2944 28.697C57.9004 29.0823 57.2464 29.3924 56.1973 29.3924C55.1481 29.3924 54.4941 29.0823 54.1002 28.697C53.9083 28.5092 53.7925 28.3172 53.7239 28.1654C53.6896 28.0897 53.6671 28.0238 53.6524 27.973C53.645 27.9476 53.6396 27.9258 53.6357 27.9083C53.6337 27.8996 53.6321 27.8919 53.6309 27.8853L53.6292 27.8763L53.6285 27.8724L53.6282 27.8706L53.628 27.8698C53.628 27.8694 53.6279 27.869 54.1211 27.7867L53.6279 27.869C53.6234 27.8418 53.6211 27.8142 53.6211 27.7867V26.3444C53.6211 26.0682 53.8449 25.8444 54.1211 25.8444H58.2734Z" fill="#D39924" stroke="black" stroke-linejoin="round"/>
  <path d="M52.564 20.937C52.7818 20.937 52.9746 21.0781 53.0405 21.2858L54.5977 26.1931C54.6459 26.3451 54.6187 26.511 54.5246 26.6396C54.4304 26.7683 54.2805 26.8444 54.1211 26.8444H50.1575C49.9017 26.8444 49.6872 26.6513 49.6603 26.3969L49.1412 21.4896C49.1263 21.3486 49.1719 21.208 49.2668 21.1026C49.3616 20.9972 49.4967 20.937 49.6384 20.937H52.564Z" fill="white" stroke="black" stroke-linejoin="round"/>
  <path d="M54.1211 25.8444C54.3972 25.8444 54.6211 26.0682 54.6211 26.3444V27.7867C54.6211 27.813 54.619 27.8393 54.6149 27.8653L54.1211 27.7867C54.6149 27.8653 54.6148 27.8657 54.6147 27.8661L54.6146 27.8669L54.6143 27.8686L54.6137 27.8723L54.6121 27.8811C54.6109 27.8875 54.6095 27.895 54.6076 27.9036C54.604 27.9207 54.5989 27.9421 54.592 27.9672C54.5782 28.0172 54.5569 28.0824 54.5244 28.1575C54.4595 28.308 54.3493 28.5 54.1652 28.6887C53.7854 29.0779 53.1522 29.3924 52.1393 29.3924C51.1264 29.3924 50.4932 29.0779 50.1134 28.6887C49.9293 28.5 49.8191 28.308 49.7541 28.1575C49.7217 28.0824 49.7004 28.0172 49.6866 27.9672C49.6797 27.9421 49.6746 27.9207 49.6709 27.9036C49.6691 27.895 49.6676 27.8875 49.6664 27.8811L49.6649 27.8723L49.6642 27.8686L49.664 27.8669L49.6638 27.8661C49.6638 27.8657 49.6637 27.8653 50.1575 27.7867L49.6637 27.8653C49.6596 27.8393 49.6575 27.813 49.6575 27.7867V26.3444C49.6575 26.0682 49.8813 25.8444 50.1575 25.8444H54.1211Z" fill="#D9D9D9" stroke="black" stroke-linejoin="round"/>
  <path d="M43.8345 20.937C43.6166 20.937 43.4238 21.0781 43.3579 21.2858L41.8008 26.1931C41.7525 26.3451 41.7797 26.511 41.8739 26.6396C41.968 26.7683 42.1179 26.8444 42.2773 26.8444H46.2881C46.5457 26.8444 46.7612 26.6486 46.7858 26.3922L47.2577 21.4849C47.2712 21.3446 47.2249 21.2051 47.1301 21.1008C47.0353 20.9965 46.9009 20.937 46.76 20.937H43.8345Z" fill="white" stroke="black" stroke-linejoin="round"/>
  <path d="M46.2891 25.8444C46.5652 25.8444 46.7891 26.0682 46.7891 26.3444V27.7867C46.7891 27.813 46.787 27.8393 46.7828 27.8653L46.2891 27.7867C46.7828 27.8653 46.7828 27.8657 46.7827 27.8661L46.7826 27.8669L46.7823 27.8686L46.7817 27.8723L46.7801 27.8811C46.7789 27.8875 46.7774 27.895 46.7756 27.9036C46.7719 27.9207 46.7669 27.9421 46.76 27.9672C46.7461 28.0172 46.7248 28.0824 46.6924 28.1575C46.6275 28.308 46.5173 28.5 46.3331 28.6887C45.9534 29.0779 45.3202 29.3924 44.3073 29.3924C43.2943 29.3924 42.6611 29.0779 42.2814 28.6887C42.0972 28.5 41.987 28.308 41.9221 28.1575C41.8897 28.0824 41.8684 28.0172 41.8546 27.9672C41.8476 27.9421 41.8426 27.9207 41.8389 27.9036C41.8371 27.895 41.8356 27.8875 41.8344 27.8811L41.8328 27.8723L41.8322 27.8686L41.8319 27.8669L41.8318 27.8661C41.8317 27.8657 41.8317 27.8653 42.3255 27.7867L41.8317 27.8653C41.8275 27.8393 41.8255 27.813 41.8255 27.7867V26.3444C41.8255 26.0682 42.0493 25.8444 42.3255 25.8444H46.2891Z" fill="#D9D9D9" stroke="black" stroke-linejoin="round"/>
  <path d="M41.098 20.937C40.9244 20.937 40.7632 21.0271 40.6722 21.175L37.6523 26.0823C37.5574 26.2366 37.5533 26.4301 37.6416 26.5883C37.73 26.7464 37.897 26.8444 38.0781 26.8444H42.3249C42.5444 26.8444 42.7382 26.7012 42.8027 26.4914L44.3127 21.5841C44.3594 21.4324 44.3313 21.2676 44.237 21.14C44.1427 21.0123 43.9935 20.937 43.8348 20.937H41.098Z" fill="#F7BE4A" stroke="black" stroke-linejoin="round"/>
  <path d="M42.3242 25.8444C42.6004 25.8444 42.8242 26.0682 42.8242 26.3444V27.7867C42.8242 27.8149 42.8218 27.843 42.8171 27.8708L42.3242 27.7867C42.8171 27.8708 42.817 27.8712 42.8169 27.8716L42.8168 27.8725L42.8165 27.8743L42.8158 27.8782L42.814 27.8874C42.8127 27.894 42.811 27.9018 42.809 27.9107C42.805 27.9284 42.7994 27.9503 42.7918 27.9759C42.7767 28.0271 42.7535 28.0932 42.7183 28.1692C42.6479 28.3217 42.5293 28.5137 42.3336 28.7009C41.9328 29.0843 41.2683 29.3924 40.2009 29.3924C39.1334 29.3924 38.4689 29.0843 38.0681 28.7009C37.8724 28.5137 37.7539 28.3217 37.6834 28.1692C37.6482 28.0932 37.625 28.0271 37.6099 27.9759C37.6023 27.9503 37.5968 27.9284 37.5927 27.9107C37.5907 27.9018 37.589 27.894 37.5877 27.8874L37.5859 27.8782L37.5852 27.8743L37.5849 27.8725L37.5848 27.8716C37.5847 27.8712 37.5846 27.8708 38.0775 27.7867L37.5846 27.8708C37.5799 27.843 37.5775 27.8149 37.5775 27.7867V26.3444C37.5775 26.0682 37.8013 25.8444 38.0775 25.8444H42.3242Z" fill="#D39924" stroke="black" stroke-linejoin="round"/>
  <path d="M38.3619 20.937C38.2223 20.937 38.0891 20.9953 37.9945 21.0979L33.4646 26.0052C33.3299 26.1511 33.2944 26.363 33.374 26.5449C33.4537 26.7268 33.6334 26.8444 33.832 26.8444H38.0788C38.2524 26.8444 38.4136 26.7543 38.5046 26.6064L41.5245 21.6991C41.6194 21.5448 41.6235 21.3513 41.5351 21.1931C41.4468 21.035 41.2798 20.937 41.0987 20.937H38.3619Z" fill="white" stroke="black" stroke-linejoin="round"/>
  <path d="M38.0781 25.8444C38.3543 25.8444 38.5781 26.0682 38.5781 26.3444V27.7867C38.5781 27.8149 38.5757 27.843 38.571 27.8708L38.0781 27.7867C38.571 27.8708 38.5709 27.8712 38.5709 27.8716L38.5707 27.8725L38.5704 27.8743L38.5697 27.8782L38.5679 27.8874C38.5666 27.894 38.5649 27.9018 38.5629 27.9107C38.5589 27.9284 38.5533 27.9503 38.5457 27.9759C38.5306 28.0271 38.5074 28.0932 38.4723 28.1692C38.4018 28.3217 38.2833 28.5137 38.0875 28.7009C37.6867 29.0843 37.0222 29.3924 35.9548 29.3924C34.8873 29.3924 34.2228 29.0843 33.822 28.7009C33.6263 28.5137 33.5078 28.3217 33.4373 28.1692C33.4021 28.0932 33.3789 28.0271 33.3638 27.9759C33.3562 27.9503 33.3507 27.9284 33.3466 27.9107C33.3446 27.9018 33.3429 27.894 33.3416 27.8874L33.3398 27.8782L33.3391 27.8743L33.3388 27.8725L33.3387 27.8716C33.3386 27.8712 33.3385 27.8708 33.8314 27.7867L33.3385 27.8708C33.3338 27.843 33.3314 27.8149 33.3314 27.7867V26.3444C33.3314 26.0682 33.5553 25.8444 33.8314 25.8444H38.0781Z" fill="#D9D9D9" stroke="black" stroke-linejoin="round"/>
  <path d="M37.7773 22.0555H37.2773V21.5555V20.0461V19.9629L37.3043 19.8842L37.7773 20.0461C37.3043 19.8842 37.3045 19.8835 37.3048 19.8827L37.3053 19.8812L37.3065 19.8779L37.3091 19.8706L37.3159 19.8531C37.321 19.8402 37.3276 19.8247 37.3357 19.807C37.352 19.7715 37.3747 19.7269 37.4057 19.6746C37.4678 19.5698 37.5626 19.4353 37.7044 19.2823C37.9885 18.9758 38.4556 18.6011 39.2158 18.2384C40.7301 17.516 43.4239 16.8333 48.2218 16.8333C53.0197 16.8333 55.7135 17.516 57.2278 18.2384C57.988 18.6011 58.4551 18.9758 58.7392 19.2823C58.881 19.4353 58.9757 19.5698 59.0379 19.6746C59.0689 19.7269 59.0916 19.7715 59.1079 19.807C59.116 19.8247 59.1225 19.8402 59.1277 19.8531L59.1344 19.8706L59.1371 19.8779L59.1383 19.8812L59.1388 19.8827C59.139 19.8835 59.1393 19.8842 58.6662 20.0461L59.1393 19.8842L59.1662 19.9629V20.0461V21.5555V22.0555H58.6662H37.7773Z" fill="#D39924" stroke="black"/>
  <rect x="20.5391" y="44.5171" width="40.9067" height="2.82116" rx="1.41058" fill="#C09344" stroke="black" stroke-linecap="round"/>
  <rect x="40.9922" y="46.8681" width="17.3971" height="2.82116" rx="1.41058" fill="#C09344" stroke="black" stroke-linecap="round"/>
  <rect x="39.1094" y="49.2189" width="17.3971" height="2.82116" rx="1.41058" fill="#C09344" stroke="black" stroke-linecap="round"/>
  <rect x="36.4453" y="51.5555" width="17.3971" height="2.82116" rx="1.41058" fill="#C09344" stroke="black" stroke-linecap="round"/>
  <path d="M7.51241 53.6982C7.28211 52.5577 7.4496 49.9271 9.96191 48.5281C12.4742 47.1292 15.1121 47.4891 16.1171 47.8439C16.6405 48.224 17.6747 49.5013 17.6244 51.5694C17.5767 53.5348 16.4397 54.5772 14.9865 54.7301C10.2131 56.2856 8.01487 54.6903 7.51241 53.6982Z" fill="#B6B6B6"/>
  <path d="M16.1171 47.8439C15.1121 47.4891 12.4742 47.1292 9.96191 48.5281C7.4496 49.9271 7.28211 52.5577 7.51241 53.6982C8.01487 54.6903 10.2131 56.2856 14.9865 54.7301M16.1171 47.8439C16.6405 48.224 17.6747 49.5013 17.6244 51.5694C17.5767 53.5348 16.4397 54.5772 14.9865 54.7301M16.1171 47.8439C14.3584 48.6042 12.2858 50.3529 11.6577 51.5694C11.0296 52.7858 11.4693 54.0784 13.5419 54.6106C14.0388 54.7382 14.5284 54.7784 14.9865 54.7301" stroke="black" stroke-linecap="round" stroke-linejoin="round"/>
  <path d="M16.1164 47.8439C16.6398 48.224 17.674 49.5013 17.6238 51.5694C17.576 53.5348 16.4391 54.5772 14.9858 54.7302C10.2124 56.2856 8.01417 54.6903 7.51172 53.6982C8.3915 53.6475 10.4021 53.3941 11.4065 52.7859C11.3561 52.3928 11.4466 51.9768 11.657 51.5694C12.2851 50.3529 14.3577 48.6042 16.1164 47.8439Z" fill="#7C7C7C"/>
  <path d="M14.9858 54.7302C16.4391 54.5772 17.576 53.5348 17.6238 51.5694C17.674 49.5013 16.6398 48.224 16.1164 47.8439C14.3577 48.6042 12.2851 50.3529 11.657 51.5694C11.4466 51.9768 11.3561 52.3928 11.4065 52.7859M14.9858 54.7302C14.5277 54.7784 14.0381 54.7382 13.5412 54.6106C12.1628 54.2566 11.5066 53.5664 11.4065 52.7859M14.9858 54.7302C10.2124 56.2856 8.01417 54.6903 7.51172 53.6982C8.3915 53.6475 10.4021 53.3941 11.4065 52.7859" stroke="black" stroke-linecap="round" stroke-linejoin="round"/>
  <path d="M17.6254 51.5694C17.6757 49.5013 16.6415 48.224 16.1181 47.8439C14.3594 48.6042 12.2868 50.3529 11.6587 51.5694C11.0306 52.7859 11.4703 54.0784 13.5429 54.6106C14.0398 54.7382 14.5294 54.7784 14.9875 54.7302C16.4407 54.5772 17.5777 53.5348 17.6254 51.5694Z" fill="#818181" stroke="black" stroke-linecap="round" stroke-linejoin="round"/>
  <path d="M16.6242 51.0045C15.2675 51.3086 15.4308 53.0066 15.6821 53.8176C15.6821 54.2991 16.2222 55.2774 18.3828 55.3382C20.5434 55.399 20.2879 53.2854 19.8902 52.221C19.3668 51.6888 17.9808 50.7004 16.6242 51.0045Z" fill="#999999" stroke="black" stroke-linecap="round" stroke-linejoin="round"/>
  <path d="M16.6242 51.0045C15.2675 51.3086 15.4308 53.0066 15.6821 53.8176C16.4776 54.0711 18.433 54.1066 19.8902 52.221C19.3668 51.6888 17.9808 50.7004 16.6242 51.0045Z" fill="#B6B6B6" stroke="black" stroke-linecap="round" stroke-linejoin="round"/>
  <rect x="6.86328" y="60.1328" width="66.7766" height="15.1074" rx="4" transform="rotate(-5 6.86328 60.1328)" fill="#866224" stroke="black" stroke-linecap="round"/>
  <rect x="5" y="58.9731" width="66.8101" height="15.1074" rx="4" transform="rotate(-5 5 58.9731)" fill="#E9B965" stroke="black" stroke-linecap="round"/>
  <path d="M14.2859 68.5019C14.0601 68.5217 13.8659 68.4818 13.7033 68.3823C13.5467 68.2755 13.4298 68.1251 13.3526 67.9311C13.2832 67.7498 13.2323 67.5501 13.1999 67.3321C13.174 67.1136 13.1437 66.805 13.1088 66.4066C13.0763 66.0346 13.0356 65.7605 12.9867 65.5841C12.9444 65.4071 12.8669 65.3235 12.754 65.3334C12.6211 65.345 12.5334 65.4129 12.4907 65.5371C12.4475 65.6547 12.4351 65.8197 12.4537 66.0322C12.4706 66.2248 12.5236 66.5247 12.6127 66.9318C12.6263 67.0109 12.6507 67.1359 12.6857 67.3069C12.7207 67.4778 12.7432 67.6197 12.7531 67.7326C12.7809 68.0514 12.7276 68.2836 12.5932 68.4292C12.4653 68.5742 12.2652 68.6587 11.993 68.6825C11.6675 68.7109 11.3699 68.5596 11.1 68.2286C10.8301 67.8975 10.6124 67.4749 10.447 66.9607C10.281 66.4398 10.1756 65.9237 10.1309 65.4123C10.0774 64.8013 10.1141 64.2259 10.2408 63.6862C10.3742 63.1458 10.603 62.7009 10.9271 62.3513C11.2578 62.0011 11.6756 61.804 12.1803 61.7598C12.6054 61.7226 12.9557 61.8258 13.2313 62.0694C13.5063 62.3063 13.7033 62.607 13.8222 62.9713C13.8633 62.5997 13.9984 62.27 14.2275 61.9822C14.4633 61.6939 14.7903 61.5315 15.2087 61.4948C15.7068 61.4513 16.1455 61.5702 16.5248 61.8515C16.9102 62.1256 17.22 62.5302 17.4541 63.0651C17.695 63.5995 17.8471 64.2286 17.9104 64.9525C17.9516 65.4241 17.9279 65.918 17.8393 66.4344C17.75 66.9441 17.6004 67.3754 17.3903 67.7284C17.1803 68.0814 16.9225 68.2713 16.617 68.298C16.3381 68.3224 16.1195 68.2713 15.9612 68.1446C15.8029 68.0179 15.7098 67.7952 15.6819 67.4764C15.6691 67.3303 15.6718 67.0556 15.6901 66.6525C15.706 66.2228 15.7059 65.915 15.6896 65.7291C15.6518 65.2974 15.5167 65.0917 15.2843 65.112C15.1647 65.1225 15.0968 65.2255 15.0804 65.421C15.0707 65.6159 15.0814 65.9295 15.1126 66.3618C15.141 66.6872 15.1582 66.96 15.1641 67.1804C15.1694 67.3941 15.1567 67.5926 15.1259 67.776C15.0896 67.9732 14.997 68.1386 14.848 68.2721C14.7058 68.405 14.5184 68.4816 14.2859 68.5019ZM20.2887 67.9768C19.7707 68.0221 19.3355 67.9431 18.9831 67.7397C18.6301 67.5296 18.4341 67.2021 18.3952 66.7572C18.3615 66.372 18.5041 66.0516 18.8231 65.7962C19.142 65.5408 19.5539 65.391 20.0586 65.3468C20.2446 65.3305 20.4187 65.332 20.581 65.3513C20.7494 65.3633 20.8652 65.3867 20.9284 65.4213C20.9139 65.2553 20.8323 65.1252 20.6835 65.0311C20.5341 64.9304 20.3167 64.8926 20.0311 64.9176C19.9049 64.9286 19.8029 64.9476 19.7249 64.9745C19.647 65.0014 19.5632 65.0388 19.4737 65.0868C19.3842 65.1348 19.3005 65.1722 19.2226 65.1991C19.1513 65.2254 19.0525 65.2441 18.9263 65.2551C18.7138 65.2737 18.5431 65.2351 18.4143 65.1393C18.2849 65.0369 18.2103 64.8728 18.1905 64.647C18.1679 64.388 18.2417 64.1607 18.4119 63.9651C18.5888 63.7689 18.8163 63.6152 19.0943 63.5038C19.3718 63.3859 19.6533 63.3144 19.9389 63.2894C20.5034 63.24 20.9842 63.305 21.3813 63.4844C21.7846 63.6566 22.0909 63.9075 22.3004 64.2372C22.5166 64.5663 22.643 64.94 22.6796 65.3584C22.6994 65.5842 22.6977 65.7952 22.6747 65.9913C22.6584 66.1868 22.625 66.3403 22.5745 66.4517C22.6745 66.5233 22.7523 66.6102 22.8081 66.7124C22.8705 66.814 22.9067 66.9212 22.9166 67.0341C22.9334 67.2267 22.8815 67.3986 22.7609 67.5497C22.6469 67.7002 22.4837 67.7847 22.2711 67.8033C22.1118 67.8173 21.9802 67.8054 21.8765 67.7676C21.7728 67.7298 21.6602 67.6661 21.5386 67.5763C21.3813 67.6905 21.205 67.7795 21.0098 67.8434C20.8213 67.9067 20.5809 67.9512 20.2887 67.9768ZM20.3999 66.9532C20.5394 66.941 20.6464 66.9015 20.7208 66.8348C20.8019 66.7674 20.8387 66.6906 20.8312 66.6043C20.8236 66.5179 20.774 66.4487 20.6825 66.3964C20.5976 66.3436 20.4854 66.3233 20.3459 66.3355C20.2064 66.3477 20.0961 66.3875 20.015 66.4548C19.9406 66.5216 19.9071 66.5981 19.9147 66.6844C19.9222 66.7708 19.9685 66.8404 20.0534 66.8932C20.1449 66.9454 20.2605 66.9654 20.3999 66.9532ZM24.4452 67.6131C24.0201 67.6503 23.7128 67.4262 23.5231 66.9409C23.34 66.455 23.2102 65.7738 23.1335 64.8971C23.0986 64.4986 23.0862 64.1651 23.0961 63.8966C23.1122 63.6208 23.1818 63.3838 23.305 63.1857C23.4342 62.9803 23.6483 62.8645 23.9471 62.8384C24.1331 62.8221 24.2996 62.851 24.4466 62.9252C24.6003 62.9987 24.704 63.1134 24.7578 63.2693C24.8923 63.1237 25.0728 63.0076 25.2995 62.9208C25.5261 62.8341 25.7723 62.7791 26.0379 62.7558C26.2504 62.7372 26.4709 62.7715 26.6994 62.8586C26.9345 62.9451 27.1332 63.0749 27.2956 63.2481C27.464 63.414 27.5575 63.6033 27.5761 63.8158C27.5947 64.0283 27.5349 64.2243 27.3967 64.4037C27.2645 64.5758 27.0756 64.6727 26.8299 64.6942C26.7502 64.7011 26.6729 64.6979 26.5981 64.6843C26.53 64.6702 26.4684 64.6555 26.4136 64.6403C26.2761 64.5987 26.1675 64.5815 26.0878 64.5884C25.8288 64.6111 25.6087 64.7341 25.4275 64.9574C25.2523 65.1735 25.1787 65.4409 25.2065 65.7597C25.2373 66.1117 25.2496 66.4051 25.2434 66.6398C25.2372 66.8746 25.1758 67.0908 25.0592 67.2884C24.9421 67.4793 24.7374 67.5876 24.4452 67.6131ZM31.9039 64.4711C32.0146 64.5886 32.1946 64.8104 32.444 65.1366C32.739 65.5257 32.899 65.863 32.924 66.1486C32.9444 66.381 32.8834 66.5637 32.7411 66.6966C32.5982 66.8229 32.4238 66.895 32.218 66.913C32.0254 66.9299 31.8225 66.8673 31.6093 66.7254C31.4027 66.5828 31.1813 66.3847 30.945 66.131C30.693 65.8519 30.525 65.6524 30.4409 65.5326C30.3575 65.5734 30.2641 65.615 30.1607 65.6575C30.1578 66.1597 30.0965 66.5298 29.9768 66.7678C29.8571 67.0058 29.6544 67.1373 29.3688 67.1623C29.0766 67.1878 28.8337 67.0886 28.6401 66.8647C28.4465 66.6407 28.2878 66.2798 28.164 65.782C28.0468 65.2837 27.9518 64.6194 27.8792 63.7893C27.8101 62.999 27.7778 62.3627 27.7825 61.8804C27.7932 61.391 27.8727 60.9992 28.0209 60.7052C28.1686 60.4045 28.4152 60.2391 28.7605 60.2088C29.0461 60.1839 29.2673 60.2649 29.4242 60.4519C29.5877 60.6384 29.7048 60.9059 29.7755 61.2544C29.8522 61.5956 29.9161 62.0585 29.9672 62.6429L30.0221 63.2705L30.0503 63.248C30.4128 62.9553 30.7338 62.7231 31.0132 62.5514C31.2993 62.3792 31.5619 62.2826 31.801 62.2617C32.0733 62.2378 32.2939 62.3122 32.463 62.4848C32.638 62.6502 32.7354 62.8458 32.7552 63.0716C32.7761 63.3107 32.7156 63.5368 32.5736 63.75C32.4317 63.9632 32.2084 64.2035 31.9039 64.4711ZM35.7833 66.6212C35.2918 66.6642 34.8484 66.6059 34.453 66.4464C34.0576 66.287 33.7385 66.0438 33.4958 65.7171C33.2591 65.3831 33.1216 64.997 33.0832 64.5586C33.0455 64.127 33.1136 63.7195 33.2875 63.3362C33.468 62.9523 33.7347 62.6345 34.0874 62.3828C34.4402 62.1311 34.8523 61.9847 35.3238 61.9434C35.7489 61.9062 36.1317 61.9597 36.4722 62.1039C36.8127 62.2481 37.0818 62.4555 37.2795 62.7259C37.4766 62.9898 37.5885 63.2744 37.6152 63.5799C37.6588 64.078 37.5014 64.4599 37.1432 64.7254C36.7911 64.9838 36.356 65.1356 35.838 65.1809C35.4926 65.2111 35.1966 65.1935 34.95 65.1281C35.1777 65.4361 35.5207 65.5701 35.9789 65.53C36.1649 65.5137 36.3621 65.473 36.5705 65.4079C36.6485 65.381 36.724 65.3644 36.797 65.358C36.9432 65.3452 37.0626 65.3716 37.1553 65.4371C37.2547 65.502 37.3099 65.5976 37.3209 65.7237C37.3389 65.9296 37.2284 66.12 36.9894 66.2948C36.7498 66.463 36.3478 66.5718 35.7833 66.6212ZM34.8735 63.9101C34.9414 63.9979 35.0272 64.0607 35.1309 64.0984C35.2407 64.129 35.3586 64.1387 35.4848 64.1277C35.6309 64.1149 35.7542 64.0707 35.8547 63.995C35.9618 63.9187 36.0107 63.8274 36.0014 63.7211C35.9909 63.6016 35.9321 63.503 35.8249 63.4254C35.7244 63.3472 35.5845 63.3159 35.4051 63.3316C35.2258 63.3473 35.088 63.4162 34.9916 63.5384C34.9013 63.6534 34.8619 63.7773 34.8735 63.9101ZM42.6506 61.6738C42.6808 62.0192 42.5387 62.2692 42.2243 62.4238C41.9093 62.5718 41.4699 62.6739 40.906 62.7299C40.9139 62.8965 40.9341 63.1658 40.9666 63.5377C40.9997 63.9162 41.0498 64.1829 41.1169 64.3376C41.16 64.4476 41.2162 64.5163 41.2855 64.5437C41.3615 64.5705 41.4698 64.5845 41.6104 64.5856C41.6575 64.5881 41.7081 64.5937 41.7624 64.6024C41.8228 64.6038 41.8901 64.6079 41.9643 64.6148C42.1199 64.6347 42.2467 64.7072 42.3447 64.8325C42.4421 64.9511 42.4995 65.1101 42.5169 65.3093C42.5367 65.5351 42.4358 65.7213 42.2144 65.8678C41.993 66.0143 41.6798 66.1053 41.2746 66.1407C40.9027 66.1733 40.5381 66.0981 40.1808 65.9152C39.8229 65.7257 39.5649 65.4538 39.4068 65.0996C39.2397 64.7194 39.1085 63.9847 39.0132 62.8955C38.5471 62.9229 38.1667 62.8959 37.8718 62.8147C37.583 62.7262 37.4261 62.5391 37.4011 62.2535C37.3697 61.8949 37.4816 61.6442 37.7368 61.5014C37.9915 61.352 38.3675 61.2522 38.865 61.202C38.8385 60.6689 38.8829 60.22 38.9982 59.8552C39.1129 59.4838 39.3595 59.2815 39.7381 59.2484C40.1233 59.2147 40.3869 59.359 40.5288 59.6812C40.6774 60.0028 40.7703 60.453 40.8076 61.032C41.4114 60.9725 41.8604 60.98 42.1547 61.0547C42.4557 61.1287 42.6209 61.3351 42.6506 61.6738ZM44.1715 67.3228C43.8461 67.3512 43.5958 67.2058 43.4206 66.8865C43.246 66.5739 43.1239 66.2098 43.054 65.7943C42.9909 65.3783 42.9294 64.8282 42.8695 64.1441C42.8236 63.6195 42.8032 63.1562 42.8081 62.7542C42.8198 62.3516 42.8925 61.9973 43.0263 61.6911C43.1601 61.385 43.3898 61.2177 43.7152 61.1892C44.0539 61.1596 44.3112 61.2709 44.4872 61.5232C44.6301 61.3969 44.8115 61.2907 45.0315 61.2045C45.2576 61.1111 45.4968 61.0534 45.7492 61.0313C46.1742 60.9941 46.5753 61.0661 46.9526 61.2472C47.3298 61.4284 47.6404 61.689 47.8843 62.029C48.1282 62.3691 48.2687 62.7516 48.3059 63.1766C48.3431 63.6017 48.2714 64.0061 48.0908 64.39C47.9097 64.7672 47.6491 65.0778 47.309 65.3217C46.969 65.5656 46.5865 65.7061 46.1614 65.7433C45.9024 65.766 45.6571 65.754 45.4255 65.7073C45.1933 65.654 44.9923 65.5746 44.8224 65.469C44.8596 65.894 44.8751 66.2239 44.8688 66.4587C44.8626 66.6935 44.8061 66.8891 44.6994 67.0457C44.5998 67.2083 44.4239 67.3007 44.1715 67.3228ZM45.9669 64.094C46.1396 64.0789 46.2835 64.0027 46.3987 63.8655C46.5199 63.721 46.5729 63.5625 46.5578 63.3898C46.5427 63.2171 46.4632 63.0735 46.3193 62.959C46.1815 62.8372 46.0263 62.7838 45.8536 62.7989C45.681 62.814 45.534 62.8938 45.4128 63.0383C45.2977 63.1755 45.2476 63.3304 45.2628 63.5031C45.2779 63.6758 45.3543 63.823 45.4921 63.9448C45.636 64.0594 45.7943 64.1091 45.9669 64.094ZM50.1678 65.3426C49.8358 65.3717 49.576 65.2706 49.3884 65.0394C49.2009 64.8082 49.0563 64.4561 48.9547 63.9832C48.8592 63.503 48.7736 62.8312 48.6981 61.9679C48.6255 61.1377 48.5888 60.4884 48.5879 60.02C48.5937 59.5511 48.6675 59.1699 48.8091 58.8764C48.9574 58.5824 49.2108 58.4197 49.5694 58.3883C49.9281 58.3569 50.2026 58.4734 50.393 58.7378C50.5901 59.0017 50.7289 59.3643 50.8094 59.8257C50.8966 60.2865 50.9765 60.932 51.0491 61.7622C51.1206 62.579 51.1419 63.2431 51.113 63.7542C51.0902 64.2581 51.0034 64.6438 50.8528 64.9113C50.7017 65.1721 50.4733 65.3159 50.1678 65.3426ZM53.4531 65.0753C52.935 65.1206 52.4998 65.0415 52.1474 64.8382C51.7944 64.6281 51.5985 64.3006 51.5595 63.8557C51.5258 63.4705 51.6685 63.1501 51.9874 62.8947C52.3064 62.6393 52.7182 62.4895 53.223 62.4453C53.4089 62.429 53.583 62.4305 53.7453 62.4498C53.9137 62.4618 54.0295 62.4852 54.0928 62.5198C54.0782 62.3538 53.9966 62.2237 53.8478 62.1296C53.6985 62.0289 53.481 61.9911 53.1954 62.0161C53.0693 62.0271 52.9672 62.0461 52.8892 62.073C52.8113 62.0999 52.7276 62.1373 52.6381 62.1853C52.5486 62.2333 52.4649 62.2707 52.3869 62.2976C52.3156 62.3239 52.2168 62.3426 52.0907 62.3536C51.8781 62.3722 51.7075 62.3336 51.5786 62.2378C51.4492 62.1354 51.3746 61.9713 51.3549 61.7455C51.3322 61.4865 51.406 61.2592 51.5763 61.0636C51.7532 60.8674 51.9806 60.7137 52.2587 60.6023C52.5361 60.4844 52.8176 60.4129 53.1032 60.3879C53.6677 60.3385 54.1485 60.4035 54.5457 60.5829C54.9489 60.7551 55.2553 61.006 55.4648 61.3357C55.681 61.6648 55.8073 62.0385 55.8439 62.4569C55.8637 62.6827 55.8621 62.8937 55.8391 63.0898C55.8227 63.2853 55.7893 63.4387 55.7388 63.5502C55.8388 63.6218 55.9167 63.7087 55.9724 63.8109C56.0349 63.9125 56.071 64.0197 56.0809 64.1326C56.0977 64.3252 56.0459 64.4971 55.9252 64.6482C55.8113 64.7987 55.648 64.8832 55.4355 64.9018C55.2761 64.9158 55.1445 64.9039 55.0409 64.8661C54.9372 64.8283 54.8245 64.7645 54.7029 64.6748C54.5456 64.789 54.3693 64.878 54.1742 64.9419C53.9856 65.0052 53.7453 65.0497 53.4531 65.0753ZM53.5643 64.0517C53.7037 64.0395 53.8107 64 53.8852 63.9333C53.9663 63.8659 54.003 63.7891 53.9955 63.7028C53.9879 63.6164 53.9384 63.5471 53.8468 63.4949C53.7619 63.4421 53.6497 63.4218 53.5102 63.434C53.3708 63.4462 53.2605 63.486 53.1794 63.5533C53.1049 63.6201 53.0714 63.6966 53.079 63.7829C53.0865 63.8693 53.1328 63.9389 53.2177 63.9916C53.3093 64.0439 53.4248 64.0639 53.5643 64.0517ZM58.8861 64.5899C58.4611 64.6271 58.0503 64.5593 57.6537 64.3865C57.2632 64.2065 56.9393 63.9471 56.6822 63.6082C56.425 63.2694 56.2769 62.8774 56.238 62.4325C56.1973 61.9676 56.2715 61.5529 56.4604 61.1884C56.6554 60.8166 56.9274 60.5218 57.2764 60.3039C57.6321 60.0854 58.0224 59.9575 58.4475 59.9204C58.8526 59.8849 59.2248 59.9326 59.5642 60.0636C59.9036 60.1945 60.1742 60.3816 60.3762 60.6249C60.5776 60.8616 60.6905 61.1194 60.7149 61.3984C60.7352 61.6308 60.6779 61.8165 60.5428 61.9555C60.4144 62.0939 60.2107 62.1753 59.9318 62.1997C59.7857 62.2124 59.6704 62.1958 59.5861 62.1496C59.5017 62.1034 59.4118 62.031 59.3161 61.9323C59.2277 61.8397 59.1449 61.7733 59.0678 61.7332C58.9968 61.6859 58.8981 61.6677 58.772 61.6788C58.5926 61.6945 58.4454 61.7709 58.3303 61.9081C58.2145 62.0387 58.1651 62.2003 58.182 62.3929C58.1994 62.5921 58.2731 62.7463 58.4031 62.8554C58.5397 62.9639 58.701 63.01 58.887 62.9937C59.0065 62.9833 59.0981 62.9585 59.1616 62.9195C59.2251 62.8805 59.2935 62.821 59.3668 62.741C59.4528 62.6531 59.5342 62.5891 59.611 62.5489C59.6872 62.5021 59.8017 62.472 59.9544 62.4587C60.2267 62.4349 60.4423 62.4896 60.6012 62.6229C60.7601 62.7563 60.848 62.9192 60.8648 63.1118C60.8846 63.3376 60.8135 63.558 60.6516 63.7729C60.4964 63.9873 60.2646 64.1681 59.9563 64.3156C59.648 64.463 59.2912 64.5544 58.8861 64.5899ZM63.8791 64.1631C63.3876 64.2061 62.9442 64.1479 62.5488 63.9884C62.1534 63.8289 61.8343 63.5858 61.5916 63.259C61.3549 62.9251 61.2174 62.5389 61.179 62.1006C61.1413 61.6689 61.2094 61.2614 61.3833 60.8781C61.5638 60.4943 61.8305 60.1765 62.1832 59.9248C62.536 59.6731 62.9481 59.5266 63.4196 59.4853C63.8447 59.4482 64.2275 59.5017 64.568 59.6459C64.9085 59.7901 65.1776 59.9974 65.3753 60.2679C65.5724 60.5317 65.6843 60.8164 65.711 61.1219C65.7546 61.62 65.5973 62.0018 65.239 62.2674C64.8869 62.5257 64.4518 62.6775 63.9338 62.7229C63.5884 62.7531 63.2924 62.7355 63.0458 62.67C63.2735 62.978 63.6165 63.112 64.0747 63.0719C64.2607 63.0556 64.4579 63.015 64.6663 62.9499C64.7443 62.923 64.8198 62.9063 64.8929 62.8999C65.039 62.8872 65.1584 62.9135 65.2511 62.979C65.3505 63.0439 65.4057 63.1395 65.4167 63.2657C65.4347 63.4716 65.3242 63.6619 65.0852 63.8367C64.8456 64.0049 64.4436 64.1137 63.8791 64.1631ZM62.9693 61.4521C63.0372 61.5398 63.123 61.6026 63.2267 61.6404C63.3365 61.6709 63.4544 61.6807 63.5806 61.6696C63.7267 61.6568 63.85 61.6126 63.9505 61.5369C64.0576 61.4606 64.1065 61.3693 64.0972 61.2631C64.0867 61.1435 64.0279 61.0449 63.9207 60.9673C63.8202 60.8891 63.6803 60.8579 63.5009 60.8735C63.3216 60.8892 63.1838 60.9582 63.0874 61.0804C62.9971 61.1953 62.9577 61.3192 62.9693 61.4521Z" fill="black"/>
</svg>
