<svg width="472" height="138" viewBox="0 0 472 138" fill="none" xmlns="http://www.w3.org/2000/svg">
<g filter="url(#filter0_i_31843_1291)">
<path d="M22.5941 17.4451C24.3137 7.92467 32.6012 1 42.2757 1H429.724C439.399 1 447.686 7.92469 449.406 17.4451L471 137H1L22.5941 17.4451Z" fill="#435589"/>
</g>
<path d="M22.5941 17.4451C24.3137 7.92467 32.6012 1 42.2757 1H429.724C439.399 1 447.686 7.92469 449.406 17.4451L471 137H1L22.5941 17.4451Z" stroke="black"/>
<g filter="url(#filter1_i_31843_1291)">
<path d="M41.8641 23.6825C42.5246 18.7126 46.7633 15 51.777 15H420.223C425.237 15 429.475 18.7126 430.136 23.6826L444 128H28L41.8641 23.6825Z" fill="#483F7D"/>
</g>
<path d="M41.8641 23.6825C42.5246 18.7126 46.7633 15 51.777 15H420.223C425.237 15 429.475 18.7126 430.136 23.6826L444 128H28L41.8641 23.6825Z" stroke="black"/>
<defs>
<filter id="filter0_i_31843_1291" x="0.401611" y="0.5" width="471.197" height="137" filterUnits="userSpaceOnUse" color-interpolation-filters="sRGB">
<feFlood flood-opacity="0" result="BackgroundImageFix"/>
<feBlend mode="normal" in="SourceGraphic" in2="BackgroundImageFix" result="shape"/>
<feColorMatrix in="SourceAlpha" type="matrix" values="0 0 0 0 0 0 0 0 0 0 0 0 0 0 0 0 0 0 127 0" result="hardAlpha"/>
<feOffset dy="6"/>
<feComposite in2="hardAlpha" operator="arithmetic" k2="-1" k3="1"/>
<feColorMatrix type="matrix" values="0 0 0 0 0 0 0 0 0 0 0 0 0 0 0 0 0 0 0.25 0"/>
<feBlend mode="normal" in2="shape" result="effect1_innerShadow_31843_1291"/>
</filter>
<filter id="filter1_i_31843_1291" x="27.4292" y="14.5" width="417.142" height="114" filterUnits="userSpaceOnUse" color-interpolation-filters="sRGB">
<feFlood flood-opacity="0" result="BackgroundImageFix"/>
<feBlend mode="normal" in="SourceGraphic" in2="BackgroundImageFix" result="shape"/>
<feColorMatrix in="SourceAlpha" type="matrix" values="0 0 0 0 0 0 0 0 0 0 0 0 0 0 0 0 0 0 127 0" result="hardAlpha"/>
<feOffset dy="6"/>
<feComposite in2="hardAlpha" operator="arithmetic" k2="-1" k3="1"/>
<feColorMatrix type="matrix" values="0 0 0 0 0 0 0 0 0 0 0 0 0 0 0 0 0 0 0.25 0"/>
<feBlend mode="normal" in2="shape" result="effect1_innerShadow_31843_1291"/>
</filter>
</defs>
</svg>
