<svg width="472" height="138" viewBox="0 0 472 138" fill="none" xmlns="http://www.w3.org/2000/svg">
  <g filter="url(#filter0_i_31843_1291)">
    <path
      d="M22.5941 17.4451C24.3137 7.92467 32.6012 1 42.2757 1H429.724C439.399 1 447.686 7.92469 449.406 17.4451L471 137H1L22.5941 17.4451Z"
      fill="#435589" />
  </g>
  <path
    d="M22.5941 17.4451C24.3137 7.92467 32.6012 1 42.2757 1H429.724C439.399 1 447.686 7.92469 449.406 17.4451L471 137H1L22.5941 17.4451Z"
    stroke="black" />
  <g filter="url(#filter1_i_31843_1291)">
    <path
      d="M41.8641 23.6825C42.5246 18.7126 46.7633 15 51.777 15H420.223C425.237 15 429.475 18.7126 430.136 23.6826L444 128H28L41.8641 23.6825Z"
      fill="#483F7D" />
  </g>
  <path
    d="M41.8641 23.6825C42.5246 18.7126 46.7633 15 51.777 15H420.223C425.237 15 429.475 18.7126 430.136 23.6826L444 128H28L41.8641 23.6825Z"
    stroke="black" />
  <g filter="url(#filter2_d_31843_1291)">
    <path
      d="M392.243 40.0427C391.594 36.3687 394.421 33 398.152 33H407.966C410.878 33 413.369 35.0901 413.875 37.9573L414.757 42.9573C415.406 46.6313 412.579 50 408.848 50H399.034C396.122 50 393.631 47.9099 393.125 45.0427L392.243 40.0427Z"
      fill="#A6A6D2" />
    <path
      d="M392.243 40.0427C391.594 36.3687 394.421 33 398.152 33H407.966C410.878 33 413.369 35.0901 413.875 37.9573L414.757 42.9573C415.406 46.6313 412.579 50 408.848 50H399.034C396.122 50 393.631 47.9099 393.125 45.0427L392.243 40.0427Z"
      stroke="black" />
  </g>
  <g filter="url(#filter3_d_31843_1291)">
    <path
      d="M357.788 39.701C357.369 36.1341 360.156 33 363.747 33H373.665C376.707 33 379.268 35.2773 379.623 38.299L380.212 43.299C380.631 46.8659 377.844 50 374.253 50H364.335C361.293 50 358.732 47.7227 358.377 44.701L357.788 39.701Z"
      fill="#A6A6D2" />
    <path
      d="M357.788 39.701C357.369 36.1341 360.156 33 363.747 33H373.665C376.707 33 379.268 35.2773 379.623 38.299L380.212 43.299C380.631 46.8659 377.844 50 374.253 50H364.335C361.293 50 358.732 47.7227 358.377 44.701L357.788 39.701Z"
      stroke="black" />
  </g>
  <g filter="url(#filter4_d_31843_1291)">
    <path
      d="M324.374 39.3523C324.171 35.9061 326.911 33 330.363 33H340.343C343.519 33 346.146 35.4763 346.332 38.6477L346.626 43.6477C346.829 47.0939 344.089 50 340.637 50H330.657C327.481 50 324.854 47.5237 324.668 44.3523L324.374 39.3523Z"
      fill="#A6A6D2" />
    <path
      d="M324.374 39.3523C324.171 35.9061 326.911 33 330.363 33H340.343C343.519 33 346.146 35.4763 346.332 38.6477L346.626 43.6477C346.829 47.0939 344.089 50 340.637 50H330.657C327.481 50 324.854 47.5237 324.668 44.3523L324.374 39.3523Z"
      stroke="black" />
  </g>
  <g filter="url(#filter5_d_31843_1291)">
    <path
      d="M292 39C292 35.6863 294.686 33 298 33H308C311.314 33 314 35.6863 314 39V44C314 47.3137 311.314 50 308 50H298C294.686 50 292 47.3137 292 44V39Z"
      fill="#A6A6D2" />
    <path
      d="M292 39C292 35.6863 294.686 33 298 33H308C311.314 33 314 35.6863 314 39V44C314 47.3137 311.314 50 308 50H298C294.686 50 292 47.3137 292 44V39Z"
      stroke="black" />
  </g>
  <defs>
    <filter id="filter0_i_31843_1291" x="0.401611" y="0.5" width="471.197" height="137"
      filterUnits="userSpaceOnUse" color-interpolation-filters="sRGB">
      <feFlood flood-opacity="0" result="BackgroundImageFix" />
      <feBlend mode="normal" in="SourceGraphic" in2="BackgroundImageFix" result="shape" />
      <feColorMatrix in="SourceAlpha" type="matrix"
        values="0 0 0 0 0 0 0 0 0 0 0 0 0 0 0 0 0 0 127 0" result="hardAlpha" />
      <feOffset dy="6" />
      <feComposite in2="hardAlpha" operator="arithmetic" k2="-1" k3="1" />
      <feColorMatrix type="matrix" values="0 0 0 0 0 0 0 0 0 0 0 0 0 0 0 0 0 0 0.25 0" />
      <feBlend mode="normal" in2="shape" result="effect1_innerShadow_31843_1291" />
    </filter>
    <filter id="filter1_i_31843_1291" x="27.4292" y="14.5" width="417.142" height="114"
      filterUnits="userSpaceOnUse" color-interpolation-filters="sRGB">
      <feFlood flood-opacity="0" result="BackgroundImageFix" />
      <feBlend mode="normal" in="SourceGraphic" in2="BackgroundImageFix" result="shape" />
      <feColorMatrix in="SourceAlpha" type="matrix"
        values="0 0 0 0 0 0 0 0 0 0 0 0 0 0 0 0 0 0 127 0" result="hardAlpha" />
      <feOffset dy="6" />
      <feComposite in2="hardAlpha" operator="arithmetic" k2="-1" k3="1" />
      <feColorMatrix type="matrix" values="0 0 0 0 0 0 0 0 0 0 0 0 0 0 0 0 0 0 0.25 0" />
      <feBlend mode="normal" in2="shape" result="effect1_innerShadow_31843_1291" />
    </filter>
    <filter id="filter2_d_31843_1291" x="391.65" y="32.5" width="23.7007" height="22"
      filterUnits="userSpaceOnUse" color-interpolation-filters="sRGB">
      <feFlood flood-opacity="0" result="BackgroundImageFix" />
      <feColorMatrix in="SourceAlpha" type="matrix"
        values="0 0 0 0 0 0 0 0 0 0 0 0 0 0 0 0 0 0 127 0" result="hardAlpha" />
      <feOffset dy="4" />
      <feComposite in2="hardAlpha" operator="out" />
      <feColorMatrix type="matrix" values="0 0 0 0 0 0 0 0 0 0 0 0 0 0 0 0 0 0 1 0" />
      <feBlend mode="normal" in2="BackgroundImageFix" result="effect1_dropShadow_31843_1291" />
      <feBlend mode="normal" in="SourceGraphic" in2="effect1_dropShadow_31843_1291" result="shape" />
    </filter>
    <filter id="filter3_d_31843_1291" x="357.246" y="32.5" width="23.5073" height="22"
      filterUnits="userSpaceOnUse" color-interpolation-filters="sRGB">
      <feFlood flood-opacity="0" result="BackgroundImageFix" />
      <feColorMatrix in="SourceAlpha" type="matrix"
        values="0 0 0 0 0 0 0 0 0 0 0 0 0 0 0 0 0 0 127 0" result="hardAlpha" />
      <feOffset dy="4" />
      <feComposite in2="hardAlpha" operator="out" />
      <feColorMatrix type="matrix" values="0 0 0 0 0 0 0 0 0 0 0 0 0 0 0 0 0 0 1 0" />
      <feBlend mode="normal" in2="BackgroundImageFix" result="effect1_dropShadow_31843_1291" />
      <feBlend mode="normal" in="SourceGraphic" in2="effect1_dropShadow_31843_1291" result="shape" />
    </filter>
    <filter id="filter4_d_31843_1291" x="323.863" y="32.5" width="23.2739" height="22"
      filterUnits="userSpaceOnUse" color-interpolation-filters="sRGB">
      <feFlood flood-opacity="0" result="BackgroundImageFix" />
      <feColorMatrix in="SourceAlpha" type="matrix"
        values="0 0 0 0 0 0 0 0 0 0 0 0 0 0 0 0 0 0 127 0" result="hardAlpha" />
      <feOffset dy="4" />
      <feComposite in2="hardAlpha" operator="out" />
      <feColorMatrix type="matrix" values="0 0 0 0 0 0 0 0 0 0 0 0 0 0 0 0 0 0 1 0" />
      <feBlend mode="normal" in2="BackgroundImageFix" result="effect1_dropShadow_31843_1291" />
      <feBlend mode="normal" in="SourceGraphic" in2="effect1_dropShadow_31843_1291" result="shape" />
    </filter>
    <filter id="filter5_d_31843_1291" x="291.5" y="32.5" width="23" height="22"
      filterUnits="userSpaceOnUse" color-interpolation-filters="sRGB">
      <feFlood flood-opacity="0" result="BackgroundImageFix" />
      <feColorMatrix in="SourceAlpha" type="matrix"
        values="0 0 0 0 0 0 0 0 0 0 0 0 0 0 0 0 0 0 127 0" result="hardAlpha" />
      <feOffset dy="4" />
      <feComposite in2="hardAlpha" operator="out" />
      <feColorMatrix type="matrix" values="0 0 0 0 0 0 0 0 0 0 0 0 0 0 0 0 0 0 1 0" />
      <feBlend mode="normal" in2="BackgroundImageFix" result="effect1_dropShadow_31843_1291" />
      <feBlend mode="normal" in="SourceGraphic" in2="effect1_dropShadow_31843_1291" result="shape" />
    </filter>
  </defs>
</svg>