<svg width="43" height="43" viewBox="0 0 43 43" fill="none" xmlns="http://www.w3.org/2000/svg">
  <rect width="43" height="43" rx="10" fill="black"/>
  <mask id="mask0_22142_417" style="mask-type:luminance" maskUnits="userSpaceOnUse" x="5" y="4" width="35" height="34">
    <path d="M5 4H39.001V38H5V4Z" fill="white"/>
  </mask>
  <g mask="url(#mask0_22142_417)">
    <mask id="mask1_22142_417" style="mask-type:luminance" maskUnits="userSpaceOnUse" x="5" y="4" width="35" height="34">
      <path d="M5 4H39.001V38H5V4Z" fill="white"/>
    </mask>
    <g mask="url(#mask1_22142_417)">
      <path d="M25.3743 5.35298L26.2793 7.47224C28.0554 11.6333 31.3698 14.9476 35.5308 16.7237L37.6501 17.6288C38.2052 17.8655 38.6551 18.2043 39.0031 18.6083C37.948 11.0404 31.9627 5.05504 24.3948 4C24.7978 4.34692 25.1376 4.79791 25.3743 5.35298ZM6.35298 17.6288L8.47224 16.7237C12.6335 14.9476 15.9482 11.6333 17.7247 7.47224L18.6288 5.35298C18.8471 4.83275 19.1822 4.36979 19.6083 4C12.0404 5.05504 6.05504 11.0404 5 18.6083C5.34692 18.2043 5.79791 17.8655 6.35298 17.6288ZM37.6511 24.3722L35.5308 25.2773C31.3696 27.0536 28.0552 30.3684 26.2793 34.5298L25.3743 36.648C25.1561 37.1686 24.821 37.632 24.3948 38.002C31.9627 36.946 37.948 30.9606 39.0031 23.3927C38.6335 23.8191 38.1715 24.1543 37.6511 24.3722ZM18.6288 36.648L17.7247 34.5298C15.9483 30.3684 12.6336 27.0538 8.47224 25.2773L6.35298 24.3722C5.83257 24.1543 5.36954 23.8191 5 23.3927C6.05504 30.9606 12.0404 36.946 19.6083 38.002C19.1824 37.6317 18.8472 37.1685 18.6288 36.648Z" fill="#999999"/>
    </g>
    <path d="M14.2884 19.338L15.3322 18.8921C17.3828 18.017 19.0163 16.3838 19.892 14.3333L20.3368 13.2885C20.9613 11.8264 23.0356 11.8264 23.66 13.2885L24.1049 14.3333C24.9805 16.3838 26.614 18.017 28.6646 18.8921L29.7094 19.338C31.1716 19.9624 31.1716 22.0357 29.7094 22.6601L28.6646 23.106C26.6137 23.9813 24.9801 25.6149 24.1049 27.6658L23.66 28.7096C23.0356 30.1717 20.9613 30.1717 20.3368 28.7096L19.892 27.6658C19.0167 25.6149 17.3831 23.9813 15.3322 23.106L14.2884 22.6601C12.8253 22.0357 12.8253 19.9624 14.2884 19.338Z" fill="white"/>
  </g>
</svg>
