<svg width="10" height="9" viewBox="0 0 10 9" fill="none" xmlns="http://www.w3.org/2000/svg">
<path fill-rule="evenodd" clip-rule="evenodd" d="M7.12511 3.89927L5.23595 5.78843C5.03897 5.98541 4.71643 5.98541 4.51945 5.78843L2.63029 3.89812C2.43331 3.70114 2.43331 3.3786 2.63029 3.18162C2.82727 2.98464 3.14981 2.98464 3.34679 3.18162L4.33399 4.16882V0.543709C4.33399 0.24536 4.5782 0 4.8777 0C5.17605 0 5.42141 0.244208 5.42141 0.543709V4.16997L6.40861 3.18277C6.60559 2.98579 6.92813 2.98579 7.12511 3.18277C7.32209 3.37975 7.32209 3.70229 7.12511 3.89927ZM9.75336 5.48689V8.39551C9.75336 8.72841 9.4815 9.00027 9.14975 9.00027H0.604761C0.271855 9.00027 0 8.72841 0 8.39551V5.48689C0.00806348 5.21389 0.231537 4.99502 0.506848 4.99502C0.782158 4.99502 1.00563 5.21389 1.0137 5.48689V7.98657H8.73967V5.48689C8.74773 5.21389 8.9712 4.99502 9.24651 4.99502C9.52182 4.99502 9.7453 5.21389 9.75336 5.48689Z" fill="black"/>
</svg>
