<svg width="18" height="19" viewBox="0 0 18 19" fill="none" xmlns="http://www.w3.org/2000/svg">
<g opacity="1">
<path d="M14.2501 19.0002H2.85001C2.09414 19.0002 1.36923 18.6999 0.834749 18.1655C0.300268 17.631 0 16.9061 0 16.1502V4.75016C0 3.99429 0.300268 3.26938 0.834749 2.7349C1.36923 2.20041 2.09414 1.90015 2.85001 1.90015H14.2501C15.0059 1.90015 15.7308 2.20041 16.2653 2.7349C16.7998 3.26938 17.1001 3.99429 17.1001 4.75016V16.1502C17.1001 16.9061 16.7998 17.631 16.2653 18.1655C15.7308 18.6999 15.0059 19.0002 14.2501 19.0002ZM2.85001 3.80015C2.59805 3.80015 2.35642 3.90024 2.17826 4.0784C2.0001 4.25656 1.90001 4.4982 1.90001 4.75016V16.1502C1.90001 16.4022 2.0001 16.6438 2.17826 16.822C2.35642 17.0001 2.59805 17.1002 2.85001 17.1002H14.2501C14.502 17.1002 14.7436 17.0001 14.9218 16.822C15.1 16.6438 15.2001 16.4022 15.2001 16.1502V4.75016C15.2001 4.4982 15.1 4.25656 14.9218 4.0784C14.7436 3.90024 14.502 3.80015 14.2501 3.80015H2.85001Z" fill="black"/>
<path d="M6.65001 0.949478H10.45C11.7167 0.949478 12.35 1.58281 12.35 2.84949C12.35 4.11616 11.7167 4.74949 10.45 4.74949H6.65001C5.38334 4.74949 4.75 4.11616 4.75 2.84949C4.75 1.58281 5.38334 0.949478 6.65001 0.949478Z" fill="white"/>
<path d="M12.3498 9.49937H4.74981C4.49788 9.49933 4.25628 9.39923 4.07815 9.22107C3.90002 9.04292 3.79995 8.8013 3.79995 8.54937C3.79995 8.29744 3.90002 8.05582 4.07815 7.87767C4.25628 7.69951 4.49788 7.5994 4.74981 7.59937H12.3498C12.6018 7.5994 12.8434 7.69951 13.0215 7.87767C13.1996 8.05582 13.2997 8.29744 13.2997 8.54937C13.2997 8.8013 13.1996 9.04292 13.0215 9.22107C12.8434 9.39923 12.6018 9.49933 12.3498 9.49937ZM12.3498 13.2994H4.74981C4.49785 13.2994 4.25621 13.1993 4.07805 13.0211C3.89989 12.843 3.7998 12.6013 3.7998 12.3494C3.7998 12.0974 3.89989 11.8558 4.07805 11.6776C4.25621 11.4995 4.49785 11.3994 4.74981 11.3994H12.3498C12.6018 11.3994 12.8434 11.4995 13.0216 11.6776C13.1998 11.8558 13.2998 12.0974 13.2998 12.3494C13.2998 12.6013 13.1998 12.843 13.0216 13.0211C12.8434 13.1993 12.6018 13.2994 12.3498 13.2994Z" fill="black"/>
<path fill-rule="evenodd" clip-rule="evenodd" d="M10.4498 5.70002H6.64982C5.89395 5.70002 5.16903 5.39975 4.63455 4.86527C4.10007 4.33079 3.7998 3.60588 3.7998 2.85001C3.7998 2.09414 4.10007 1.36923 4.63455 0.834749C5.16903 0.300268 5.89395 0 6.64982 0H10.4498C11.2057 0 11.9306 0.300268 12.4651 0.834749C12.9996 1.36923 13.2998 2.09414 13.2998 2.85001C13.2998 3.60588 12.9996 4.33079 12.4651 4.86527C11.9306 5.39975 11.2057 5.70002 10.4498 5.70002ZM6.64986 1.90014C6.39793 1.90018 6.15633 2.00028 5.9782 2.17844C5.80007 2.3566 5.7 2.59821 5.7 2.85014C5.7 3.10208 5.80007 3.34369 5.9782 3.52185C6.15633 3.7 6.39793 3.80011 6.64986 3.80015H10.4499C10.7018 3.80011 10.9434 3.7 11.1215 3.52185C11.2997 3.34369 11.3997 3.10208 11.3997 2.85014C11.3997 2.59821 11.2997 2.3566 11.1215 2.17844C10.9434 2.00028 10.7018 1.90018 10.4499 1.90014H6.64986Z" fill="black"/>
</g>
</svg>
