<svg width="32" height="32" viewBox="0 0 32 32" fill="none" xmlns="http://www.w3.org/2000/svg">
<rect width="32" height="32" rx="8" fill="#ADBDDB"/>
<path fill-rule="evenodd" clip-rule="evenodd" d="M10.8731 9.79875C12.2988 8.67319 14.0997 8 16.0593 8C20.5143 8 24.1574 11.4799 24.4185 15.8694L24.9587 15.3656C25.3146 15.0354 25.8699 15.0547 26.2001 15.4084C26.5302 15.7622 26.5109 16.3196 26.1572 16.6498L23.9918 18.6693C23.8211 18.8287 23.603 18.9066 23.3859 18.9049L23.3722 18.905C23.1396 18.905 22.9166 18.8126 22.7521 18.6481C22.7285 18.6245 22.7063 18.5996 22.6857 18.5736L20.701 16.4457C20.3687 16.0898 20.388 15.5345 20.7439 15.2043C21.0976 14.8742 21.655 14.8935 21.9852 15.2472L22.666 15.9772C22.4618 12.5056 19.5821 9.75373 16.0593 9.75373C14.5467 9.75373 13.1521 10.263 12.0382 11.1167C12.0264 11.1301 12.014 11.1432 12.0013 11.1559C11.8369 11.3204 11.6138 11.4128 11.3813 11.4128C11.1487 11.4128 10.9257 11.3204 10.7612 11.1559C10.5968 10.9915 10.5044 10.7684 10.5044 10.5359C10.5044 10.3033 10.5968 10.0803 10.7612 9.91585C10.7995 9.87763 10.8408 9.8433 10.8848 9.81312L10.8731 9.79875ZM16.0593 22.9924C17.6715 22.9924 19.1487 22.4157 20.2978 21.4574L20.3119 21.4748C20.4624 21.3627 20.646 21.301 20.836 21.301C21.0685 21.301 21.2916 21.3934 21.456 21.5579C21.6204 21.7223 21.7128 21.9453 21.7128 22.1779C21.7128 22.4105 21.6204 22.6335 21.456 22.7979C21.3916 22.8623 21.3182 22.9157 21.2388 22.9567C19.8144 24.0793 18.0153 24.7505 16.0593 24.7505C11.4348 24.7505 7.68512 21.0007 7.68512 16.3763C7.68512 16.2867 7.68654 16.1975 7.68935 16.1086L7.18993 16.5063C6.81046 16.8086 6.25947 16.7465 5.95718 16.367C5.65488 15.9875 5.71706 15.4344 6.09653 15.1321L8.33962 13.3438C8.36228 13.3214 8.38638 13.2999 8.41193 13.2795C8.7914 12.9772 9.34454 13.0394 9.64683 13.4189L11.4927 15.7343C11.795 16.1138 11.7329 16.6669 11.3534 16.9692C10.9739 17.2715 10.4208 17.2093 10.1185 16.8299L9.45176 15.9935C9.44461 16.1195 9.44099 16.2464 9.44099 16.3742C9.44099 20.0295 12.4039 22.9924 16.0593 22.9924Z" fill="#242424"/>
</svg>
