<svg width="32" height="32" viewBox="0 0 32 32" fill="none" xmlns="http://www.w3.org/2000/svg">
<rect width="32" height="32" rx="8" fill="#ADBDDB"/>
<path fill-rule="evenodd" clip-rule="evenodd" d="M16.3775 8.23638C16.0623 7.92121 15.5462 7.92121 15.2311 8.23638L12.2084 11.2609C11.8932 11.576 11.8932 12.0921 12.2084 12.4073C12.5236 12.7224 13.0396 12.7224 13.3548 12.4073L14.9343 10.8277V16.6279C14.9343 17.1053 15.3251 17.4979 15.8043 17.4979C16.2816 17.4979 16.6742 17.1071 16.6742 16.6279V10.8259L18.2537 12.4054C18.5689 12.7206 19.0849 12.7206 19.4001 12.4054C19.7153 12.0903 19.7153 11.5742 19.4001 11.259L16.3775 8.23638ZM23.6054 16.7769V21.4307C23.6054 21.9633 23.1704 22.3983 22.6396 22.3983H8.96762C8.43497 22.3983 8 21.9633 8 21.4307V16.7769C8.0129 16.3401 8.37046 15.9899 8.81096 15.9899C9.25145 15.9899 9.60901 16.3401 9.62191 16.7769V20.7764H21.9835V16.7769C21.9964 16.3401 22.3539 15.9899 22.7944 15.9899C23.2349 15.9899 23.5925 16.3401 23.6054 16.7769Z" fill="black"/>
</svg>
