<svg width="32" height="32" viewBox="0 0 32 32" fill="none" xmlns="http://www.w3.org/2000/svg">
<rect width="32" height="32" rx="8" fill="#ADBDDB"/>
<path fill-rule="evenodd" clip-rule="evenodd" d="M16.3775 17.2615C16.0623 17.5767 15.5462 17.5767 15.2311 17.2615L12.2084 14.237C11.8932 13.9218 11.8932 13.4058 12.2084 13.0906C12.5236 12.7754 13.0396 12.7754 13.3548 13.0906L14.9343 14.6701V8.86993C14.9343 8.39258 15.3251 8 15.8043 8C16.2816 8 16.6742 8.39073 16.6742 8.86993V14.672L18.2537 13.0924C18.5689 12.7773 19.0849 12.7773 19.4001 13.0924C19.7153 13.4076 19.7153 13.9237 19.4001 14.2388L16.3775 17.2615ZM23.6054 16.7769V21.4307C23.6054 21.9633 23.1704 22.3983 22.6396 22.3983H8.96762C8.43497 22.3983 8 21.9633 8 21.4307V16.7769C8.0129 16.3401 8.37046 15.9899 8.81096 15.9899C9.25145 15.9899 9.60901 16.3401 9.62191 16.7769V20.7764H21.9835V16.7769C21.9964 16.3401 22.3539 15.9899 22.7944 15.9899C23.2349 15.9899 23.5925 16.3401 23.6054 16.7769Z" fill="black"/>
</svg>
