<svg width="80" height="162" viewBox="0 0 80 162" fill="none" xmlns="http://www.w3.org/2000/svg">
  <g filter="url(#filter0_d_33710_15918)">
  <path d="M62.3476 13.819C61.87 11.5613 59.873 10 57.5653 10H15.84C12.6066 10 10.1632 13.023 10.7189 16.2083C12.4731 26.2637 15.498 48.3382 15.498 81C15.498 113.662 12.4731 135.736 10.7189 145.792C10.1632 148.977 12.6066 152 15.84 152H57.5653C59.873 152 61.87 150.439 62.3476 148.181C64.4072 138.445 69.498 111.313 69.498 81C69.498 50.6866 64.4072 23.555 62.3476 13.819Z" fill="#A5FFFD"/>
  <path d="M57.5654 10.5H15.8398C13.021 10.5001 10.8465 13.0621 11.1719 15.8516L11.2119 16.1221C12.9707 26.2037 15.998 48.3073 15.998 81C15.998 111.649 13.3365 132.992 11.5547 143.847L11.2119 145.878C10.7075 148.77 12.93 151.5 15.8398 151.5H57.5654C59.5808 151.5 61.3197 150.182 61.8145 148.265L61.8584 148.077C63.9147 138.357 68.998 111.264 68.998 81C68.998 52.6277 64.5301 27.042 62.2773 15.9453L61.8584 13.9229C61.4315 11.9049 59.6457 10.5 57.5654 10.5Z" stroke="#A5FFFD"/>
  </g>
  <defs>
  <filter id="filter0_d_33710_15918" x="0.639893" y="0" width="78.8582" height="162" filterUnits="userSpaceOnUse" color-interpolation-filters="sRGB">
  <feFlood flood-opacity="0" result="BackgroundImageFix"/>
  <feColorMatrix in="SourceAlpha" type="matrix" values="0 0 0 0 0 0 0 0 0 0 0 0 0 0 0 0 0 0 127 0" result="hardAlpha"/>
  <feOffset/>
  <feGaussianBlur stdDeviation="5"/>
  <feComposite in2="hardAlpha" operator="out"/>
  <feColorMatrix type="matrix" values="0 0 0 0 0.647059 0 0 0 0 1 0 0 0 0 0.992157 0 0 0 1 0"/>
  <feBlend mode="normal" in2="BackgroundImageFix" result="effect1_dropShadow_33710_15918"/>
  <feBlend mode="normal" in="SourceGraphic" in2="effect1_dropShadow_33710_15918" result="shape"/>
  </filter>
  </defs>
  </svg>
  