<svg width="77" height="162" viewBox="0 0 77 162" fill="none" xmlns="http://www.w3.org/2000/svg">
  <g filter="url(#filter0_d_33710_15919)">
  <path d="M62.0855 14.2482C61.7644 11.7969 59.6707 10 57.1986 10H15.5971C12.4418 10 10.0298 12.888 10.4865 16.01C11.9438 25.9716 14.498 48.1218 14.498 81C14.498 113.878 11.9438 136.028 10.4865 145.99C10.0298 149.112 12.4418 152 15.5971 152H57.1986C59.6707 152 61.7644 150.203 62.0855 147.752C63.4068 137.667 66.498 110.879 66.498 81C66.498 51.1209 63.4068 24.3331 62.0855 14.2482Z" fill="#A5FFFD"/>
  <path d="M57.1982 10.5H15.5967C12.8464 10.5002 10.7049 12.946 10.9502 15.6729L10.9814 15.9375C12.442 25.9214 14.998 48.0959 14.998 81C14.998 111.848 12.7509 133.265 11.2666 144.048L10.9814 146.062C10.5673 148.894 12.7577 151.5 15.5967 151.5H57.1982C59.3558 151.5 61.185 149.983 61.5586 147.891L61.5898 147.687C62.9098 137.612 65.998 110.848 65.998 81C65.998 53.0171 63.2833 27.7454 61.8564 16.3945L61.5898 14.3135C61.3021 12.1169 59.4252 10.5 57.1982 10.5Z" stroke="#A5FFFD"/>
  </g>
  <defs>
  <filter id="filter0_d_33710_15919" x="0.430908" y="0" width="76.0671" height="162" filterUnits="userSpaceOnUse" color-interpolation-filters="sRGB">
  <feFlood flood-opacity="0" result="BackgroundImageFix"/>
  <feColorMatrix in="SourceAlpha" type="matrix" values="0 0 0 0 0 0 0 0 0 0 0 0 0 0 0 0 0 0 127 0" result="hardAlpha"/>
  <feOffset/>
  <feGaussianBlur stdDeviation="5"/>
  <feComposite in2="hardAlpha" operator="out"/>
  <feColorMatrix type="matrix" values="0 0 0 0 0.647059 0 0 0 0 1 0 0 0 0 0.992157 0 0 0 1 0"/>
  <feBlend mode="normal" in2="BackgroundImageFix" result="effect1_dropShadow_33710_15919"/>
  <feBlend mode="normal" in="SourceGraphic" in2="effect1_dropShadow_33710_15919" result="shape"/>
  </filter>
  </defs>
  </svg>
  