<svg xmlns="http://www.w3.org/2000/svg" width="76" height="162" viewBox="0 0 76 162" fill="none">
  <g filter="url(#filter0_d_33710_15917)">
    <path d="M14.0121 14.401C14.2748 11.886 16.3999 10 18.9286 10H60.8622C63.8598 10 66.207 12.6113 65.9414 15.5972C65.074 25.3511 63.498 47.6597 63.498 81C63.498 114.34 65.074 136.649 65.9414 146.403C66.207 149.389 63.8598 152 60.8622 152H18.9286C16.3999 152 14.2748 150.114 14.0121 147.599C12.9463 137.398 10.498 110.729 10.498 81C10.498 51.2706 12.9463 24.6017 14.0121 14.401Z" fill="#A5FFFD"/>
    <path d="M18.9287 10.5H60.8623C63.4763 10.5001 65.55 12.7091 65.459 15.3008L65.4434 15.5527C64.5747 25.3204 62.998 47.6439 62.998 81C62.998 112.271 64.3835 133.846 65.2725 144.469L65.4434 146.447C65.6833 149.146 63.5606 151.5 60.8623 151.5H18.9287C16.7231 151.5 14.8644 149.908 14.5361 147.757L14.5098 147.547C13.4449 137.355 10.998 110.705 10.998 81C10.998 53.1516 13.1487 27.9884 14.2949 16.5537L14.5098 14.4531C14.7455 12.1967 16.652 10.5 18.9287 10.5Z" stroke="#A5FFFD"/>
  </g>
  <defs>
    <filter id="filter0_d_33710_15917" x="0.498047" y="0" width="75.4639" height="162" filterUnits="userSpaceOnUse" color-interpolation-filters="sRGB">
      <feFlood flood-opacity="0" result="BackgroundImageFix"/>
      <feColorMatrix in="SourceAlpha" type="matrix" values="0 0 0 0 0 0 0 0 0 0 0 0 0 0 0 0 0 0 127 0" result="hardAlpha"/>
      <feOffset/>
      <feGaussianBlur stdDeviation="5"/>
      <feComposite in2="hardAlpha" operator="out"/>
      <feColorMatrix type="matrix" values="0 0 0 0 0.647059 0 0 0 0 1 0 0 0 0 0.992157 0 0 0 1 0"/>
      <feBlend mode="normal" in2="BackgroundImageFix" result="effect1_dropShadow_33710_15917"/>
      <feBlend mode="normal" in="SourceGraphic" in2="effect1_dropShadow_33710_15917" result="shape"/>
    </filter>
  </defs>
</svg>