<svg width="76" height="162" viewBox="0 0 76 162" fill="none" xmlns="http://www.w3.org/2000/svg">
  <g filter="url(#filter0_d_33710_15920)">
  <path d="M61.984 14.401C61.7213 11.886 59.5962 10 57.0675 10H15.1339C12.1363 10 9.78911 12.6113 10.0546 15.5972C10.9221 25.3511 12.498 47.6597 12.498 81C12.498 114.34 10.9221 136.649 10.0546 146.403C9.78911 149.389 12.1363 152 15.1339 152H57.0675C59.5962 152 61.7213 150.114 61.984 147.599C63.0498 137.398 65.498 110.729 65.498 81C65.498 51.2706 63.0498 24.6017 61.984 14.401Z" fill="#A5FFFD"/>
  <path d="M57.0674 10.5H15.1338C12.5198 10.5001 10.446 12.7091 10.5371 15.3008L10.5527 15.5527C11.4214 25.3204 12.998 47.6439 12.998 81C12.998 112.271 11.6126 133.846 10.7236 144.469L10.5527 146.447C10.3128 149.146 12.4355 151.5 15.1338 151.5H57.0674C59.273 151.5 61.1317 149.908 61.46 147.757L61.4863 147.547C62.5512 137.355 64.998 110.705 64.998 81C64.998 53.1516 62.8474 27.9884 61.7012 16.5537L61.4863 14.4531C61.2506 12.1967 59.3441 10.5 57.0674 10.5Z" stroke="#A5FFFD"/>
  </g>
  <defs>
  <filter id="filter0_d_33710_15920" x="0.0341797" y="0" width="75.4639" height="162" filterUnits="userSpaceOnUse" color-interpolation-filters="sRGB">
  <feFlood flood-opacity="0" result="BackgroundImageFix"/>
  <feColorMatrix in="SourceAlpha" type="matrix" values="0 0 0 0 0 0 0 0 0 0 0 0 0 0 0 0 0 0 127 0" result="hardAlpha"/>
  <feOffset/>
  <feGaussianBlur stdDeviation="5"/>
  <feComposite in2="hardAlpha" operator="out"/>
  <feColorMatrix type="matrix" values="0 0 0 0 0.647059 0 0 0 0 1 0 0 0 0 0.992157 0 0 0 1 0"/>
  <feBlend mode="normal" in2="BackgroundImageFix" result="effect1_dropShadow_33710_15920"/>
  <feBlend mode="normal" in="SourceGraphic" in2="effect1_dropShadow_33710_15920" result="shape"/>
  </filter>
  </defs>
  </svg>
  