<svg width="16" height="16" viewBox="0 0 16 16" fill="none" xmlns="http://www.w3.org/2000/svg">
<path fill-rule="evenodd" clip-rule="evenodd" d="M12.8105 12.0901C12.969 12.2486 13.1839 12.3376 13.408 12.3376C14.0725 12.3361 14.7093 12.0715 15.1792 11.6017C15.649 11.1318 15.9137 10.495 15.9151 9.83053V2.50709C15.9137 1.84262 15.649 1.20579 15.1792 0.735941C14.7093 0.266089 14.0725 0.00147627 13.408 0H6.0846C5.42014 0.00147627 4.7833 0.266089 4.31345 0.735941C3.8436 1.20579 3.57899 1.84262 3.57751 2.50709C3.57751 2.7312 3.66654 2.94614 3.82501 3.10461C3.98348 3.26308 4.19841 3.3521 4.42252 3.3521C4.64664 3.3521 4.86157 3.26308 5.02004 3.10461C5.17851 2.94614 5.26754 2.7312 5.26754 2.50709C5.26754 2.29039 5.35362 2.08257 5.50685 1.92934C5.66008 1.77611 5.8679 1.69002 6.0846 1.69002H13.408C13.6247 1.69002 13.8326 1.77611 13.9858 1.92934C14.139 2.08257 14.2251 2.29039 14.2251 2.50709V9.83053C14.2251 10.0472 14.139 10.2551 13.9858 10.4083C13.8326 10.5615 13.6247 10.6476 13.408 10.6476C13.1839 10.6476 12.969 10.7366 12.8105 10.8951C12.6521 11.0536 12.563 11.2685 12.563 11.4926C12.563 11.7167 12.6521 11.9317 12.8105 12.0901ZM2.64793 16.0004H9.66175C11.1271 16.0004 12.3376 14.8167 12.3097 13.3513V6.30955C12.3101 5.9617 12.2419 5.61718 12.109 5.29571C11.9761 4.97425 11.7811 4.68217 11.5351 4.4362C11.2891 4.19023 10.9971 3.9952 10.6756 3.86229C10.3541 3.72938 10.0096 3.66119 9.66175 3.66163H2.64793C2.29998 3.66119 1.95537 3.72941 1.63383 3.8624C1.3123 3.99538 1.02017 4.19051 0.774183 4.4366C0.528198 4.68269 0.333193 4.9749 0.200344 5.29649C0.0674958 5.61808 -0.000584746 5.96272 3.78331e-06 6.31067V13.3524C-0.000437564 13.7003 0.0677517 14.0448 0.200666 14.3663C0.333581 14.6877 0.528609 14.9798 0.774579 15.2258C1.02055 15.4718 1.31263 15.6668 1.63409 15.7997C1.95555 15.9326 2.30008 16.0008 2.64793 16.0004ZM2.28013 5.42244C2.39682 5.37467 2.52185 5.35061 2.64793 5.35165H9.66175C9.78784 5.35061 9.91287 5.37467 10.0296 5.42244C10.1462 5.47021 10.2523 5.54073 10.3414 5.62989C10.4306 5.71905 10.5011 5.82506 10.5489 5.94175C10.5966 6.05844 10.6207 6.18347 10.6197 6.30955V13.3513C10.6207 13.4774 10.5966 13.6024 10.5489 13.7191C10.5011 13.8358 10.4306 13.9418 10.3414 14.031C10.2523 14.1201 10.1462 14.1907 10.0296 14.2384C9.91287 14.2862 9.78784 14.3103 9.66175 14.3092H2.64793C2.52185 14.3103 2.39682 14.2862 2.28013 14.2384C2.16344 14.1907 2.05742 14.1201 1.96827 14.031C1.87911 13.9418 1.80859 13.8358 1.76082 13.7191C1.71305 13.6024 1.68898 13.4774 1.69003 13.3513V6.30955C1.68898 6.18347 1.71305 6.05844 1.76082 5.94175C1.80859 5.82506 1.87911 5.71905 1.96827 5.62989C2.05742 5.54073 2.16344 5.47021 2.28013 5.42244Z" fill="#6F6F6F"/>
</svg>
