<svg width="188" height="161" viewBox="0 0 188 161" fill="none" xmlns="http://www.w3.org/2000/svg">
  <path d="M90.8521 133.426L95.3706 131.219C95.6149 131.1 95.8972 131.085 96.1526 131.179L112.186 137.037C112.901 137.298 113.073 138.231 112.499 138.731L104.029 146.1C103.706 146.381 103.241 146.425 102.871 146.211L95.0425 141.669C94.9081 141.591 94.7937 141.483 94.7084 141.353L90.4549 134.873C90.1243 134.37 90.3108 133.69 90.8521 133.426Z" fill="#C7B8A1" stroke="black" stroke-width="0.6"/>
  <path d="M9.44137 139.988L16.174 136.846C16.4901 136.698 16.8602 136.726 17.1507 136.919L25.074 142.19C25.1763 142.258 25.2652 142.344 25.3363 142.445L28.1924 146.478C28.715 147.216 28.0676 148.214 27.1808 148.037L15.7384 145.756C15.6164 145.731 15.5 145.684 15.3952 145.617L9.32555 141.736C8.66129 141.312 8.7269 140.321 9.44137 139.988Z" fill="#C7B8A1"/>
  <path d="M19.2314 136.225L22.8676 138.935C23.4738 139.387 24.3329 138.933 24.3013 138.178C24.254 137.047 23.0442 135.209 22.2429 134.11C21.7791 133.474 20.416 134.021 19.2813 134.677C18.6979 135.013 18.6913 135.823 19.2314 136.225Z" fill="#C7B8A1"/>
  <path d="M9.44137 139.988L16.174 136.846C16.4901 136.698 16.8602 136.726 17.1507 136.919L25.074 142.19C25.1763 142.258 25.2652 142.344 25.3363 142.445L28.1924 146.478C28.715 147.216 28.0676 148.214 27.1808 148.037L15.7384 145.756C15.6164 145.731 15.5 145.684 15.3952 145.617L9.32555 141.736C8.66129 141.312 8.7269 140.321 9.44137 139.988Z" stroke="black" stroke-width="0.6"/>
  <path d="M19.2314 136.225L22.8676 138.935C23.4738 139.387 24.3329 138.933 24.3013 138.178C24.254 137.047 23.0442 135.209 22.2429 134.11C21.7791 133.474 20.416 134.021 19.2813 134.677C18.6979 135.013 18.6913 135.823 19.2314 136.225Z" stroke="black" stroke-width="0.6"/>
  <path d="M83.5769 133.514L89.6177 137.217C89.7336 137.288 89.8338 137.382 89.9122 137.493L94.9482 144.629C95.4048 145.276 94.9642 146.171 94.173 146.205L86.0512 146.544C85.8143 146.554 85.5817 146.48 85.3947 146.334L77.7071 140.343C77.2474 139.985 77.1902 139.311 77.583 138.88L82.3155 133.693C82.6388 133.339 83.168 133.264 83.5769 133.514Z" fill="#9CADB5" stroke="black" stroke-width="0.6"/>
  <path d="M96.6671 148.365L88.2887 148.716C87.8995 148.732 87.5569 148.973 87.408 149.333L86.561 151.381C86.4712 151.598 86.4572 151.841 86.5459 152.059C86.9963 153.164 88.0752 154.641 89.6645 153.67C91.8659 152.325 98.0194 148.308 96.6671 148.365Z" fill="#9CADB5" stroke="black" stroke-width="0.6"/>
  <path d="M42.1704 133.967L47.1999 138.882C47.679 139.35 47.5713 140.147 46.9852 140.472L35.4098 146.878C35.0811 147.06 34.6781 147.042 34.3666 146.832L27.7537 142.374C27.5827 142.258 27.4515 142.093 27.3781 141.9L25.0141 135.687C24.7714 135.049 25.2249 134.361 25.9069 134.333L41.4297 133.683C41.7052 133.671 41.9732 133.774 42.1704 133.967Z" fill="#9CADB5" stroke="black" stroke-width="0.6"/>
  <path d="M66.1867 140.579L73.4648 140.275C73.7175 140.264 73.9647 140.35 74.1568 140.514L84.5049 149.37C84.9051 149.713 84.971 150.307 84.6557 150.729L77.802 159.898C77.5339 160.257 77.0601 160.393 76.6421 160.233L66.4472 156.313C66.0752 156.17 65.8237 155.819 65.807 155.421L65.2294 141.62C65.2063 141.068 65.6349 140.602 66.1867 140.579Z" fill="#C7B8A1" stroke="black" stroke-width="0.6"/>
  <path d="M96.6883 127.627L99.9672 126.446C100.048 126.417 100.132 126.398 100.217 126.39L118.324 124.767C119.055 124.701 119.605 125.419 119.352 126.108L115.962 135.336C115.773 135.851 115.204 136.118 114.687 135.933L96.6909 129.509C95.8072 129.194 95.8054 127.945 96.6883 127.627Z" fill="#B9AFB0" stroke="black" stroke-width="0.6"/>
  <path d="M38.9329 146.33L46.5287 141.513C46.652 141.435 46.7911 141.385 46.936 141.366L62.7527 139.321C63.3886 139.239 63.9365 139.768 63.8765 140.407L62.5436 154.591C62.4834 155.231 61.8434 155.649 61.2332 155.447L39.1536 148.123C38.353 147.858 38.2205 146.781 38.9329 146.33Z" fill="#B9AFB0" stroke="black" stroke-width="0.6"/>
  <path d="M100.444 9.42188C109.601 9.42188 115.728 16.1605 119.705 24.8838C123.688 33.6212 125.596 44.5045 126.264 53.156C126.558 56.9567 124.545 60.6012 121.028 62.1494C104.8 69.2936 89.2536 66.0729 80.1812 62.0385C76.876 60.5688 75.0627 57.1464 75.2681 53.5864C75.7669 44.9379 77.4764 33.9489 81.3215 25.1045C85.1603 16.2749 91.2086 9.42188 100.444 9.42188Z" fill="#74DA95" stroke="black" stroke-linecap="round"/>
  <path d="M100.444 9.92188C108.179 9.92188 113.732 14.8823 117.646 21.907C118.164 24.6353 117.325 30.3258 109.822 31.2613C102.32 32.1967 98.0783 27.5585 96.8954 25.1225C94.5676 29.215 87.8476 36.1722 79.5899 31.2613C83.1679 19.7116 89.5777 9.92188 100.444 9.92188Z" fill="#B2F0C6"/>
  <path d="M75.6048 59.0317C75.6048 42.6618 80.5727 9.92188 100.444 9.92188C86.6558 21.147 85.7433 51.2966 87.5176 64.0914C82.3934 62.7137 78.2585 60.7574 75.6048 59.0317Z" fill="black" fill-opacity="0.3"/>
  <ellipse cx="8.01972" cy="3.86135" rx="8.01972" ry="3.86135" transform="matrix(-1 0 0 1 153.072 54.7832)" fill="black" fill-opacity="0.2"/>
  <rect width="3.90378" height="9.97633" rx="1.95189" transform="matrix(-1 0 0 1 147.3 48.6094)" fill="#4E3827" stroke="black" stroke-width="0.6"/>
  <path d="M147.3 53.3789C147.3 53.3789 146.433 54.2464 145.349 54.6802C144.264 55.1139 143.397 55.1139 143.397 55.1139V56.8489C143.397 57.9269 144.271 58.8008 145.349 58.8008C146.427 58.8008 147.3 57.9269 147.3 56.8489V53.3789Z" fill="#A6818B" stroke="black" stroke-width="0.6"/>
  <circle cx="13.6632" cy="13.6632" r="13.6632" transform="matrix(-1 0 0 1 159.012 25.3008)" fill="url(#paint0_radial_30236_9870)" stroke="black" stroke-width="0.6"/>
  <ellipse cx="8.52468" cy="4.10448" rx="8.52468" ry="4.10448" transform="matrix(-1 0 0 1 135.008 60.582)" fill="black" fill-opacity="0.2"/>
  <path d="M128.693 56.7954C128.693 55.4004 127.562 54.2695 126.167 54.2695C124.772 54.2695 123.641 55.4004 123.641 56.7954V62.4785C123.641 63.8735 124.772 65.0043 126.167 65.0043C127.562 65.0043 128.693 63.8735 128.693 62.4785V56.7954Z" fill="#4E3827" stroke="black" stroke-width="0.6"/>
  <path d="M142.585 54.3187L136.195 39.1133H117.777L110.696 54.3187C112.043 55.0719 113.491 55.6772 114.972 56.1627L117.668 52.0582V56.9148L119.44 54.3187V57.2856C123.768 58.087 127.795 58.1008 129.805 58.0273L130.557 53.2061L132.06 57.2856L132.436 53.9478L133.94 56.9148L134.316 53.2061L136.195 56.5439C137.999 56.2472 141.207 54.9368 142.585 54.3187Z" fill="#1D773A" stroke="black" stroke-width="0.6"/>
  <path d="M140.058 43.5328L134.691 30.5879H119.22L113.537 45.1114C119.347 46.6269 126.482 46.7953 129.324 46.6901L129.955 42.5856L131.218 46.0586L131.534 43.2171L132.797 45.7429L133.112 42.5856L134.691 45.4272C136.207 45.1746 138.901 44.059 140.058 43.5328Z" fill="#417682" stroke="black" stroke-width="0.6"/>
  <path d="M134.376 18.906L126.798 0.59375L121.431 14.1701L123.009 12.9072L119.221 19.2218L122.694 17.0117L117.642 22.3791L121.431 19.8532L116.063 28.3779L119.221 26.1678L114.485 33.7453C116 34.5031 117.221 34.6925 118.273 35.0082L120.168 32.4824C119.747 33.3243 119.221 35.4292 120.168 35.6397C122.441 36.1448 127.956 35.8502 129.64 35.6397L130.271 32.7981L131.85 35.6397V32.7981L133.428 35.324L133.113 32.1667L134.691 35.0082C136.965 34.5031 137.954 34.2715 138.48 33.7453L135.954 29.9566H137.849L134.376 26.7993L136.901 27.7465L133.113 22.6948L136.901 24.9049L131.218 16.3802L134.376 18.906Z" fill="#66CC9A" stroke="black" stroke-width="0.6" stroke-linejoin="round"/>
  <ellipse cx="9.28598" cy="4.47103" rx="9.28598" ry="4.47103" transform="matrix(-1 0 0 1 171.167 63.8145)" fill="black" fill-opacity="0.2"/>
  <path d="M164.287 64.5034C164.287 62.9838 163.056 61.752 161.536 61.752C160.016 61.752 158.785 62.9838 158.785 64.5034V65.8791C158.785 67.3986 160.016 68.6305 161.536 68.6305C163.056 68.6305 164.287 67.3986 164.287 65.8791V64.5034Z" fill="#4E3827" stroke="black" stroke-width="0.6"/>
  <path d="M172.518 59.4438C171.061 43.5955 166.125 30.7083 162.899 24.3428C162.273 23.108 160.675 23.0289 160.061 24.2698C156.111 32.2539 152.276 51.4478 150.913 59.4539C150.885 59.6145 150.875 59.7693 150.909 59.9286C151.24 61.4765 153.706 64.1583 161.535 64.1583C169.373 64.1583 172.043 61.4703 172.488 59.9232C172.533 59.768 172.533 59.6046 172.518 59.4438Z" stroke="black" stroke-width="0.6"/>
  <path d="M161.535 64.159C169.789 64.159 172.311 61.1783 172.541 59.688C172.405 58.1697 172.237 56.6783 172.041 55.2169C170.302 56.8219 163.956 58.2435 152.486 51.0898C151.791 54.5123 151.237 57.5361 150.873 59.688C150.988 61.1783 153.281 64.159 161.535 64.159Z" fill="#1D773A" stroke="black" stroke-width="0.6"/>
  <path d="M153.205 47.6511C161.949 54.8047 169.136 53.8417 171.637 52.466C171.299 50.3675 170.908 48.3387 170.478 46.3896C168.106 47.7272 161.563 48.8204 154.366 42.4922C153.956 44.2331 153.567 45.9684 153.205 47.6511Z" fill="#3AA75D" stroke="black" stroke-width="0.6"/>
  <path d="M153.205 47.6504C161.949 54.804 169.136 53.841 171.637 52.4653C171.782 53.3698 171.918 54.2872 172.042 55.2167C170.303 56.8217 163.956 58.2433 152.486 51.0896C152.712 49.9798 152.952 48.828 153.205 47.6504Z" fill="#3AA75D" stroke="black" stroke-width="0.6"/>
  <path d="M154.367 42.49C160.463 48.5431 167.682 47.7636 170.529 46.6171C170.325 45.6815 170.111 44.764 169.89 43.8657C167.128 44.5536 160.323 44.5536 155.207 39.0508C154.918 40.1906 154.638 41.3415 154.367 42.49Z" fill="#3AA75D" stroke="black" stroke-width="0.6"/>
  <path d="M169.889 43.8667C167.777 35.2814 164.983 28.4553 162.901 24.3457C162.275 23.1108 160.672 23.0356 160.058 24.2767C158.356 27.7193 156.676 33.2413 155.205 39.0517C160.597 44.8297 167.241 44.6692 169.889 43.8667Z" fill="#66CC9A" stroke="black" stroke-width="0.6"/>
  <ellipse cx="9.28598" cy="4.47103" rx="9.28598" ry="4.47103" transform="matrix(-1 0 0 1 183.729 73.4746)" fill="black" fill-opacity="0.2"/>
  <path d="M176.849 74.1635C176.849 72.644 175.617 71.4121 174.098 71.4121C172.578 71.4121 171.346 72.644 171.346 74.1635V75.5392C171.346 77.0588 172.578 78.2906 174.098 78.2906C175.617 78.2906 176.849 77.0588 176.849 75.5392V74.1635Z" fill="#4E3827" stroke="black" stroke-width="0.6"/>
  <path d="M185.08 69.104C183.623 53.2556 178.687 40.3684 175.461 34.003C174.835 32.7681 173.237 32.689 172.623 33.9299C168.673 41.914 164.838 61.108 163.475 69.1141C163.447 69.2746 163.437 69.4295 163.471 69.5888C163.802 71.1367 166.268 73.8184 174.097 73.8184C181.935 73.8184 184.605 71.1304 185.05 69.5834C185.095 69.4282 185.095 69.2648 185.08 69.104Z" stroke="black" stroke-width="0.6"/>
  <path d="M174.097 73.8192C182.351 73.8192 184.873 70.8385 185.102 69.3481C184.966 67.8298 184.798 66.3385 184.603 64.8771C182.864 66.4821 176.517 67.9036 165.047 60.75C164.352 64.1725 163.798 67.1963 163.435 69.3481C163.55 70.8385 165.843 73.8192 174.097 73.8192Z" fill="#1D773A" stroke="black" stroke-width="0.6"/>
  <path d="M165.767 57.3112C174.51 64.4649 181.698 63.5019 184.198 62.1262C183.861 60.0277 183.47 57.9988 183.039 56.0497C180.667 57.3874 174.124 58.4806 166.928 52.1523C166.518 53.8932 166.129 55.6286 165.767 57.3112Z" fill="#3AA75D" stroke="black" stroke-width="0.6"/>
  <path d="M165.767 57.3105C174.51 64.4642 181.698 63.5012 184.198 62.1255C184.344 63.03 184.479 63.9474 184.604 64.8769C182.864 66.4819 176.518 67.9034 165.048 60.7498C165.274 59.6399 165.514 58.4881 165.767 57.3105Z" fill="#3AA75D" stroke="black" stroke-width="0.6"/>
  <path d="M166.929 52.1521C173.025 58.2052 180.243 57.4257 183.091 56.2792C182.886 55.3436 182.673 54.4261 182.452 53.5278C179.689 54.2157 172.885 54.2157 167.769 48.7129C167.48 49.8527 167.2 51.0036 166.929 52.1521Z" fill="#3AA75D" stroke="black" stroke-width="0.6"/>
  <path d="M182.451 53.5268C180.34 44.9415 177.545 38.1154 175.463 34.0059C174.837 32.7709 173.234 32.6958 172.62 33.9369C170.918 37.3794 169.238 42.9015 167.768 48.7119C173.159 54.4898 179.803 54.3293 182.451 53.5268Z" fill="#66CC9A" stroke="black" stroke-width="0.6"/>
  <ellipse cx="8.67087" cy="4.17487" rx="8.67087" ry="4.17487" transform="matrix(-1 0 0 1 67.903 87.6445)" fill="black" fill-opacity="0.2"/>
  <path d="M61.4817 88.2859C61.4817 86.867 60.3314 85.7168 58.9125 85.7168C57.4936 85.7168 56.3434 86.867 56.3434 88.2859V89.5705C56.3434 90.9894 57.4936 92.1397 58.9125 92.1397C60.3314 92.1397 61.4817 90.9894 61.4817 89.5705V88.2859Z" fill="#4E3827" stroke="black" stroke-width="0.6"/>
  <path d="M69.1652 83.5472C67.8149 68.8935 63.2813 56.9529 60.2689 50.9548C59.6476 49.7176 58.0547 49.6439 57.4513 50.8899C53.7949 58.4393 50.2603 76.1285 48.9949 83.557C48.9675 83.7176 48.9565 83.8731 48.9919 84.0321C49.3146 85.4799 51.627 87.9655 58.9107 87.9655C66.2036 87.9655 68.7044 85.4736 69.1337 84.0266C69.1796 83.8718 69.18 83.708 69.1652 83.5472Z" stroke="black" stroke-width="0.6"/>
  <path d="M58.9111 87.9652C66.6186 87.9652 68.9736 85.1819 69.1877 83.7903C69.0608 82.3726 68.9039 80.98 68.7213 79.6154C67.0972 81.1141 61.1714 82.4415 50.4612 75.7617C49.8122 78.9575 49.2949 81.781 48.9557 83.7903C49.0627 85.1819 51.2037 87.9652 58.9111 87.9652Z" fill="#1D773A" stroke="black" stroke-width="0.6"/>
  <path d="M51.132 72.5515C59.2963 79.2313 66.0074 78.3321 68.3424 77.0475C68.0273 75.088 67.6621 73.1936 67.2605 71.3736C65.0456 72.6226 58.9359 73.6434 52.2164 67.7344C51.833 69.3599 51.47 70.9803 51.132 72.5515Z" fill="#3AA75D" stroke="black" stroke-width="0.6"/>
  <path d="M51.1332 72.5488C59.2974 79.2286 66.0086 78.3294 68.3436 77.0448C68.4794 77.8894 68.606 78.746 68.7221 79.614C67.098 81.1127 61.1722 82.44 50.4619 75.7603C50.6724 74.7239 50.8967 73.6484 51.1332 72.5488Z" fill="#3AA75D" stroke="black" stroke-width="0.6"/>
  <path d="M52.2162 67.7329C57.908 73.385 64.6486 72.6571 67.3073 71.5866C67.1165 70.713 66.9172 69.8562 66.711 69.0175C64.1314 69.6598 57.7779 69.6598 53.0002 64.5215C52.7309 65.5858 52.4691 66.6605 52.2162 67.7329Z" fill="#3AA75D" stroke="black" stroke-width="0.6"/>
  <path d="M66.713 69.018C64.7699 61.1169 62.2074 54.8115 60.2722 50.9576C59.6509 49.7204 58.0542 49.6481 57.451 50.8942C55.8901 54.1186 54.3515 59.1903 53.0022 64.522C58.0368 69.9172 64.2405 69.7674 66.713 69.018Z" fill="#66CC9A" stroke="black" stroke-width="0.6"/>
  <ellipse cx="8.55636" cy="4.11973" rx="8.55636" ry="4.11973" transform="matrix(-1 0 0 1 47.4636 92.8086)" fill="black" fill-opacity="0.2"/>
  <path d="M41.1244 93.4434C41.1244 92.0433 39.9893 90.9082 38.5891 90.9082C37.189 90.9082 36.0539 92.0433 36.0539 93.4434V94.711C36.0539 96.1112 37.189 97.2462 38.5891 97.2462C39.9893 97.2462 41.1244 96.1112 41.1244 94.711V93.4434Z" fill="#4E3827" stroke="black" stroke-width="0.6"/>
  <path d="M48.7085 88.7623C47.3782 74.3311 42.9193 62.5667 39.9469 56.6372C39.3265 55.3996 37.7343 55.327 37.1329 56.574C33.5313 64.0418 30.0526 81.4511 28.8054 88.7721C28.778 88.9327 28.767 89.0883 28.8027 89.2472C29.1237 90.6764 31.4076 93.1255 38.5897 93.1255C45.7811 93.1255 48.2505 90.6701 48.6767 89.2417C48.7229 89.087 48.7233 88.9232 48.7085 88.7623Z" stroke="black" stroke-width="0.6"/>
  <path d="M38.5895 93.1263C46.1952 93.1263 48.5191 90.3798 48.7304 89.0065C48.6051 87.6075 48.4503 86.2333 48.2702 84.8868C46.6675 86.3657 40.82 87.6756 30.2512 81.084C29.6108 84.2376 29.1003 87.0238 28.7656 89.0065C28.8712 90.3798 30.9839 93.1263 38.5895 93.1263Z" fill="#1D773A" stroke="black" stroke-width="0.6"/>
  <path d="M30.9129 77.9137C38.9694 84.5053 45.5919 83.6179 47.8961 82.3503C47.5851 80.4167 47.2248 78.5473 46.8284 76.7513C44.6427 77.9839 38.6137 78.9912 31.983 73.1602C31.6047 74.7643 31.2465 76.3632 30.9129 77.9137Z" fill="#3AA75D" stroke="black" stroke-width="0.6"/>
  <path d="M30.9126 77.9141C38.969 84.5056 45.5915 83.6183 47.8957 82.3507C48.0297 83.1841 48.1546 84.0294 48.2692 84.8859C46.6665 86.3648 40.819 87.6747 30.2502 81.0831C30.4578 80.0604 30.6792 78.9991 30.9126 77.9141Z" fill="#3AA75D" stroke="black" stroke-width="0.6"/>
  <path d="M31.9822 73.1593C37.5989 78.7367 44.2504 78.0184 46.8741 76.9621C46.6858 76.0999 46.4891 75.2545 46.2856 74.4269C43.7401 75.0607 37.4704 75.0607 32.7559 69.9902C32.4901 71.0405 32.2318 72.101 31.9822 73.1593Z" fill="#3AA75D" stroke="black" stroke-width="0.6"/>
  <path d="M46.2854 74.4282C44.3736 66.6545 41.8543 60.4462 39.9466 56.6401C39.3263 55.4024 37.7305 55.3306 37.1294 56.5777C35.5947 59.7612 34.0825 64.749 32.7558 69.9916C37.7238 75.3156 43.8456 75.1677 46.2854 74.4282Z" fill="#66CC9A" stroke="black" stroke-width="0.6"/>
  <path d="M72.496 150.651C57.4819 151.724 51.0472 143.055 49.7066 138.586L148.014 65.3027C155.759 70.367 173.574 82.1937 182.868 88.9858C192.163 95.778 186.741 101.944 182.868 104.179C152.333 119.223 87.5102 149.579 72.496 150.651Z" fill="black" fill-opacity="0.2"/>
  <mask id="path-54-outside-1_30236_9870" maskUnits="userSpaceOnUse" x="32.1703" y="58.4062" width="142" height="89" fill="black">
    <rect fill="white" x="32.1703" y="58.4062" width="142" height="89"/>
    <path fill-rule="evenodd" clip-rule="evenodd" d="M147.454 62.4976L170.893 86.7889C175.58 92.329 172.69 99.5738 165.353 102.983C163.861 103.676 162.295 104.403 160.665 105.157V105.157C135.713 116.708 95.8163 134.869 78.8417 141.848V134.093L78.8412 134.092V141.848C76.0186 143.008 73.8298 143.86 72.4489 144.32C62.221 147.729 56.6808 144.746 51.5668 139.632C43.8959 130.683 39.208 123.864 35.3725 116.619C33.6542 113.374 33.6629 109.355 33.6677 107.139C33.6679 107.027 33.6682 106.92 33.6682 106.818C33.6682 106.199 34.094 104.261 36.2249 102.982L38.7819 101.704C40.9326 100.753 43.2145 99.7479 45.6004 98.6991L45.6009 98.6997C72.6907 86.791 113.194 69.2813 127.424 63.2037L127.424 63.2038C129.739 62.2154 131.358 61.5294 132.112 61.2191C138.504 58.5869 143.618 58.6621 147.454 62.4976Z"/>
  </mask>
  <path fill-rule="evenodd" clip-rule="evenodd" d="M147.454 62.4976L170.893 86.7889C175.58 92.329 172.69 99.5738 165.353 102.983C163.861 103.676 162.295 104.403 160.665 105.157V105.157C135.713 116.708 95.8163 134.869 78.8417 141.848V134.093L78.8412 134.092V141.848C76.0186 143.008 73.8298 143.86 72.4489 144.32C62.221 147.729 56.6808 144.746 51.5668 139.632C43.8959 130.683 39.208 123.864 35.3725 116.619C33.6542 113.374 33.6629 109.355 33.6677 107.139C33.6679 107.027 33.6682 106.92 33.6682 106.818C33.6682 106.199 34.094 104.261 36.2249 102.982L38.7819 101.704C40.9326 100.753 43.2145 99.7479 45.6004 98.6991L45.6009 98.6997C72.6907 86.791 113.194 69.2813 127.424 63.2037L127.424 63.2038C129.739 62.2154 131.358 61.5294 132.112 61.2191C138.504 58.5869 143.618 58.6621 147.454 62.4976Z" fill="#FFB854"/>
  <path d="M170.893 86.7889L171.612 86.0945C171.627 86.1102 171.642 86.1264 171.656 86.143L170.893 86.7889ZM147.454 62.4976L148.161 61.7905C148.165 61.7947 148.169 61.7989 148.173 61.8032L147.454 62.4976ZM165.353 102.983L164.931 102.076L164.931 102.076L165.353 102.983ZM160.665 105.157L161.085 106.065C160.775 106.208 160.414 106.184 160.126 106C159.839 105.816 159.665 105.498 159.665 105.157H160.665ZM160.665 105.157L160.245 104.25C160.554 104.106 160.916 104.131 161.203 104.314C161.491 104.498 161.665 104.816 161.665 105.157H160.665ZM78.8417 141.848L79.2219 142.773C78.9135 142.9 78.5621 142.865 78.285 142.679C78.0079 142.494 77.8417 142.182 77.8417 141.848H78.8417ZM78.8417 134.093L79.6194 133.464C79.7632 133.642 79.8417 133.864 79.8417 134.093H78.8417ZM78.8412 134.092H77.8412C77.8412 133.668 78.1083 133.291 78.5079 133.149C78.9074 133.008 79.3526 133.134 79.6189 133.464L78.8412 134.092ZM78.8412 141.848H79.8412C79.8412 142.253 79.5964 142.619 79.2215 142.773L78.8412 141.848ZM72.4489 144.32L72.7651 145.269L72.4489 144.32ZM51.5668 139.632L50.8597 140.339C50.8416 140.321 50.8242 140.302 50.8076 140.283L51.5668 139.632ZM35.3725 116.619L36.2563 116.151L35.3725 116.619ZM33.6677 107.139L32.6677 107.137V107.137L33.6677 107.139ZM36.2249 102.982L35.7104 102.125C35.7323 102.111 35.7548 102.099 35.7777 102.088L36.2249 102.982ZM38.7819 101.704L38.3347 100.809C38.3489 100.802 38.3633 100.795 38.3778 100.789L38.7819 101.704ZM45.6004 98.6991L45.198 97.7836C45.6133 97.6011 46.0995 97.721 46.3823 98.0757L45.6004 98.6991ZM45.6009 98.6997L46.0033 99.6151C45.588 99.7977 45.1018 99.6778 44.819 99.3231L45.6009 98.6997ZM127.424 63.2037L127.032 62.284C127.42 62.1179 127.872 62.2144 128.159 62.525L127.424 63.2037ZM127.424 63.2038L127.817 64.1234C127.428 64.2895 126.977 64.1931 126.69 63.8825L127.424 63.2038ZM132.112 61.2191L132.492 62.1438L132.492 62.1438L132.112 61.2191ZM170.173 87.4833L146.734 63.192L148.173 61.8032L171.612 86.0945L170.173 87.4833ZM164.931 102.076C168.411 100.46 170.746 97.9753 171.691 95.3466C172.624 92.7539 172.243 89.9327 170.129 87.4348L171.656 86.143C174.23 89.1852 174.748 92.7565 173.573 96.0235C172.411 99.2546 169.632 102.097 165.774 103.89L164.931 102.076ZM160.245 104.25C161.874 103.495 163.44 102.769 164.931 102.076L165.774 103.89C164.282 104.583 162.715 105.31 161.085 106.065L160.245 104.25ZM161.665 105.157V105.157H159.665V105.157H161.665ZM78.4614 140.924C95.4122 133.954 135.288 115.803 160.245 104.25L161.085 106.064C136.138 117.613 96.2205 135.784 79.2219 142.773L78.4614 140.924ZM79.8417 134.093V141.848H77.8417V134.093H79.8417ZM79.6189 133.464L79.6194 133.464L78.0639 134.721L78.0635 134.721L79.6189 133.464ZM79.8412 134.092V141.848H77.8412V134.092H79.8412ZM79.2215 142.773C76.3979 143.934 74.1814 144.797 72.7651 145.269L72.1327 143.371C73.4782 142.923 75.6393 142.083 78.461 140.923L79.2215 142.773ZM72.7651 145.269C67.5137 147.019 63.3582 147.162 59.8113 146.133C56.2761 145.106 53.47 142.95 50.8597 140.339L52.274 138.925C54.7777 141.429 57.2986 143.321 60.3689 144.212C63.4276 145.1 67.1561 145.03 72.1327 143.371L72.7651 145.269ZM50.8076 140.283C43.1005 131.291 38.3665 124.412 34.4887 117.087L36.2563 116.151C40.0495 123.316 44.6913 130.074 52.3261 138.981L50.8076 140.283ZM34.4887 117.087C32.6362 113.588 32.663 109.318 32.6677 107.137L34.6677 107.141C34.6628 109.393 34.6722 113.159 36.2563 116.151L34.4887 117.087ZM32.6677 107.137C32.6679 107.025 32.6682 106.919 32.6682 106.818H34.6682C34.6682 106.921 34.6679 107.029 34.6677 107.141L32.6677 107.137ZM32.6682 106.818C32.6682 105.909 33.2296 103.613 35.7104 102.125L36.7393 103.84C34.9585 104.908 34.6682 106.49 34.6682 106.818H32.6682ZM35.7777 102.088L38.3347 100.809L39.2291 102.598L36.672 103.877L35.7777 102.088ZM38.3778 100.789C40.5291 99.8384 42.8116 98.8327 45.198 97.7836L46.0029 99.6146C43.6174 100.663 41.3362 101.668 39.1861 102.618L38.3778 100.789ZM46.3823 98.0757L46.3828 98.0763L44.819 99.3231L44.8186 99.3225L46.3823 98.0757ZM127.817 64.1233C113.59 70.1995 73.0899 87.7079 46.0033 99.6151L45.1985 97.7842C72.2915 85.8741 112.798 68.363 127.032 62.284L127.817 64.1233ZM126.69 63.8825L126.69 63.8823L128.159 62.525L128.159 62.5251L126.69 63.8825ZM132.492 62.1438C131.746 62.4512 130.133 63.1345 127.817 64.1234L127.032 62.2842C129.345 61.2964 130.97 60.6077 131.731 60.2944L132.492 62.1438ZM146.746 63.2047C145.002 61.4598 142.993 60.5841 140.675 60.4308C138.327 60.2754 135.61 60.8599 132.492 62.1438L131.731 60.2944C135.005 58.9461 138.042 58.2521 140.807 58.4351C143.604 58.6202 146.07 59.6998 148.161 61.7905L146.746 63.2047Z" fill="black" mask="url(#path-54-outside-1_30236_9870)"/>
  <path d="M78.8416 134.092V141.848C95.8164 134.869 135.713 116.707 160.665 105.156V99.5729L127.424 63.2031C113.194 69.2807 72.6907 86.7905 45.6008 98.6991L78.8416 134.092Z" fill="#787A77"/>
  <path d="M78.8416 134.092V141.848C95.8164 134.869 135.713 116.707 160.665 105.156V99.5729M78.8416 134.092L45.6008 98.6991C72.6907 86.7905 113.194 69.2807 127.424 63.2031L160.665 99.5729M78.8416 134.092L160.665 99.5729M156.83 98.6991L78.8416 131.109L49.8625 99.5729L127.424 66.3321L156.83 98.6991Z" stroke="black" stroke-width="0.6"/>
  <path d="M126.572 70.5957L150.011 97.0178L80.9724 126.849L56.2549 100.427L126.572 70.5957Z" fill="#B6FAFD" stroke="black" stroke-width="0.6"/>
  <path d="M147.454 62.4976L170.893 86.7889C175.58 92.329 172.69 99.5738 165.353 102.983C163.861 103.676 162.295 104.403 160.665 105.157V99.5738L127.424 63.2041C129.738 62.2155 131.358 61.5295 132.112 61.2191C138.504 58.5869 143.618 58.6621 147.454 62.4976Z" fill="#9885F6"/>
  <path d="M160.665 99.5738V105.157C162.295 104.403 163.861 103.676 165.353 102.983C172.69 99.5738 175.58 92.329 170.893 86.7889L147.454 62.4976C143.618 58.6621 138.504 58.5869 132.112 61.2191C131.358 61.5295 129.738 62.2155 127.424 63.2041L160.665 99.5738ZM160.665 99.5738C164.074 98.8635 170.807 95.994 170.466 90.1982" stroke="black" stroke-width="0.6" stroke-linecap="round" stroke-linejoin="round"/>
  <path d="M168.336 92.755C168.904 91.7606 169.529 89.2604 167.483 87.2148" stroke="white" stroke-opacity="0.5" stroke-width="2" stroke-linecap="round"/>
  <path d="M164.074 82.9516L145.322 62.9219M165.352 84.6562L165.778 85.0824" stroke="white" stroke-opacity="0.5" stroke-width="2" stroke-linecap="round"/>
  <path d="M35.3725 116.619C33.5675 113.21 33.6681 108.949 33.6681 106.818C33.6681 106.199 34.094 104.261 36.2248 102.982L38.7819 101.704C40.9326 100.753 43.2145 99.7481 45.6004 98.6992L78.8412 134.092V141.848C76.0185 143.009 73.8297 143.86 72.4488 144.32C62.2209 147.729 56.6808 144.746 51.5668 139.632C43.8958 130.683 39.2079 123.864 35.3725 116.619Z" fill="#FFB854"/>
  <path d="M78.8412 134.092L45.6004 98.6992C43.2145 99.7481 40.9326 100.753 38.7819 101.704L36.2248 102.982M78.8412 134.092V141.848C76.0185 143.009 73.8297 143.86 72.4488 144.32C62.2209 147.729 56.6808 144.746 51.5668 139.632C43.8958 130.683 39.2079 123.864 35.3725 116.619C33.5675 113.21 33.6681 108.949 33.6681 106.818C33.6681 106.199 34.094 104.261 36.2248 102.982M78.8412 134.092L66.9086 138.78C61.7946 140.058 57.0216 139.377 53.2713 134.945M46.8789 125.995C30.2585 105.965 34.5201 105.113 36.2248 102.982" stroke="black" stroke-width="0.6" stroke-linecap="round" stroke-linejoin="round"/>
  <path d="M74.1536 133.668L65.6303 137.078C63.7836 137.646 59.2378 137.93 55.8285 134.521M54.55 132.816L53.6977 131.964M51.9931 130.259L48.5837 126.85" stroke="white" stroke-opacity="0.5" stroke-width="2" stroke-linecap="round"/>
  <ellipse cx="2.13082" cy="1.27849" rx="2.13082" ry="1.27849" transform="matrix(-1 0 0 1 66.4825 125.57)" fill="#767676" stroke="black" stroke-width="0.6" stroke-linecap="round" stroke-linejoin="round"/>
  <ellipse cx="2.13082" cy="1.70465" rx="2.13082" ry="1.70465" transform="matrix(-1 0 0 1 51.993 110.229)" fill="#767676" stroke="black" stroke-width="0.6" stroke-linecap="round" stroke-linejoin="round"/>
  <ellipse cx="2.13082" cy="1.70465" rx="2.13082" ry="1.70465" transform="matrix(-1 0 0 1 157.682 75.2832)" fill="#767676" stroke="black" stroke-width="0.6" stroke-linecap="round" stroke-linejoin="round"/>
  <ellipse cx="2.13082" cy="1.70465" rx="2.13082" ry="1.70465" transform="matrix(-1 0 0 1 46.0269 108.523)" fill="#767676" stroke="black" stroke-width="0.6" stroke-linecap="round" stroke-linejoin="round"/>
  <ellipse cx="2.13082" cy="1.70465" rx="2.13082" ry="1.70465" transform="matrix(-1 0 0 1 151.715 73.5781)" fill="#767676" stroke="black" stroke-width="0.6" stroke-linecap="round" stroke-linejoin="round"/>
  <ellipse cx="2.13082" cy="1.70465" rx="2.13082" ry="1.70465" transform="matrix(-1 0 0 1 50.2885 114.488)" fill="#767676" stroke="black" stroke-width="0.6" stroke-linecap="round" stroke-linejoin="round"/>
  <ellipse cx="2.13082" cy="1.70465" rx="2.13082" ry="1.70465" transform="matrix(-1 0 0 1 155.977 79.543)" fill="#767676" stroke="black" stroke-width="0.6" stroke-linecap="round" stroke-linejoin="round"/>
  <path d="M55.4028 124.292C53.0492 124.292 51.1412 123.013 51.1412 121.735C50.9992 121.593 50.7151 122.161 50.7151 123.013C50.7151 125.144 54.9759 126.849 58.386 125.144C60.8446 123.915 60.2263 122.019 59.6548 121.309C59.6612 121.438 59.6645 121.579 59.6645 121.735C59.6645 123.013 57.7565 124.292 55.4028 124.292Z" fill="black" stroke="black" stroke-width="0.6" stroke-linecap="round" stroke-linejoin="round"/>
  <path d="M142.686 68.8894C140.333 68.8894 138.425 67.6109 138.425 66.3324C138.283 66.1904 137.999 66.7586 137.999 67.6109C137.999 69.7417 142.259 71.4464 145.669 69.7417C148.128 68.5127 147.51 66.6165 146.938 65.9062C146.945 66.0355 146.948 66.1768 146.948 66.3324C146.948 67.6109 145.04 68.8894 142.686 68.8894Z" fill="black" stroke="black" stroke-width="0.6" stroke-linecap="round" stroke-linejoin="round"/>
  <ellipse cx="2.13082" cy="1.70465" rx="2.13082" ry="1.70465" transform="matrix(-1 0 0 1 44.322 112.783)" fill="#767676" stroke="black" stroke-width="0.6" stroke-linecap="round" stroke-linejoin="round"/>
  <ellipse cx="2.13082" cy="1.70465" rx="2.13082" ry="1.70465" transform="matrix(-1 0 0 1 150.011 77.8379)" fill="#767676" stroke="black" stroke-width="0.6" stroke-linecap="round" stroke-linejoin="round"/>
  <path d="M51.1417 121.734C51.1417 123.012 53.0497 124.291 55.4033 124.291C57.757 124.291 59.665 123.012 59.665 121.734C59.665 121.578 59.6617 121.437 59.6553 121.308C59.6179 120.549 59.2381 119.603 59.2381 119.603C58.5474 118.466 57.0902 117.898 55.4033 117.898C53.6149 117.898 52.1994 118.354 51.5672 119.603C51.5672 119.603 51.1417 121.282 51.1417 121.734Z" fill="#767676"/>
  <path d="M59.2381 119.603C58.5474 118.466 57.0902 117.898 55.4033 117.898C53.6149 117.898 52.1994 118.354 51.5672 119.603M59.2381 119.603C59.5223 120.241 59.4093 121.904 56.6818 122.586M59.2381 119.603C59.2381 119.603 59.6179 120.549 59.6553 121.308C59.6617 121.437 59.665 121.578 59.665 121.734C59.665 123.012 57.757 124.291 55.4033 124.291C53.0497 124.291 51.1417 123.012 51.1417 121.734C51.1417 121.282 51.5672 119.603 51.5672 119.603M54.9772 122.586C53.2725 122.586 51.1332 121.308 51.5672 119.603" stroke="black" stroke-width="0.6" stroke-linecap="round" stroke-linejoin="round"/>
  <path d="M138.425 66.3316C138.425 67.6101 140.333 68.8885 142.686 68.8885C145.04 68.8885 146.948 67.6101 146.948 66.3316C146.948 66.176 146.945 66.0347 146.938 65.9054C146.901 65.1464 146.521 64.2007 146.521 64.2007C145.83 63.0633 144.373 62.4961 142.686 62.4961C140.898 62.4961 139.482 62.9513 138.85 64.2007C138.85 64.2007 138.425 65.8794 138.425 66.3316Z" fill="#767676"/>
  <path d="M146.521 64.2007C145.83 63.0633 144.373 62.4961 142.686 62.4961C140.898 62.4961 139.482 62.9513 138.85 64.2007M146.521 64.2007C146.805 64.8388 146.692 66.502 143.965 67.1839M146.521 64.2007C146.521 64.2007 146.901 65.1464 146.938 65.9054C146.945 66.0347 146.948 66.176 146.948 66.3316C146.948 67.6101 145.04 68.8885 142.686 68.8885C140.333 68.8885 138.425 67.6101 138.425 66.3316C138.425 65.8794 138.85 64.2007 138.85 64.2007M142.26 67.1839C140.555 67.1839 138.416 65.9054 138.85 64.2007" stroke="black" stroke-width="0.6" stroke-linecap="round" stroke-linejoin="round"/>
  <path fill-rule="evenodd" clip-rule="evenodd" d="M44.4088 101.688C44.64 101.559 44.9281 101.595 45.12 101.778L45.7252 102.352L46.7734 101.854C46.9933 101.749 47.2541 101.784 47.4389 101.942C47.7771 102.232 47.7049 102.774 47.3026 102.966L46.6821 103.261L47.0939 103.652C47.3901 103.933 47.3284 104.421 46.9716 104.62C46.7404 104.749 46.4523 104.712 46.2603 104.53L45.511 103.818L44.4429 104.327C44.223 104.431 43.9622 104.397 43.7774 104.238C43.4392 103.948 43.5113 103.406 43.9136 103.215L44.5541 102.91L44.2864 102.655C43.9903 102.374 44.0519 101.886 44.4088 101.688Z" fill="#767676"/>
  <path d="M45.12 101.778L44.9134 101.995L45.12 101.778ZM44.4088 101.688L44.5547 101.95V101.95L44.4088 101.688ZM45.7252 102.352L45.8541 102.623C45.742 102.677 45.6087 102.655 45.5187 102.57L45.7252 102.352ZM46.7734 101.854L46.9023 102.125L46.7734 101.854ZM47.4389 101.942L47.6342 101.715L47.6342 101.715L47.4389 101.942ZM47.3026 102.966L47.1737 102.695H47.1737L47.3026 102.966ZM46.6821 103.261L46.4755 103.479C46.4038 103.411 46.3703 103.312 46.3858 103.214C46.4013 103.116 46.4639 103.033 46.5532 102.99L46.6821 103.261ZM47.0939 103.652L46.8873 103.87L47.0939 103.652ZM46.9716 104.62L47.1175 104.882H47.1175L46.9716 104.62ZM46.2603 104.53L46.0538 104.748H46.0538L46.2603 104.53ZM45.511 103.818L45.3821 103.547C45.4942 103.494 45.6275 103.515 45.7176 103.601L45.511 103.818ZM44.4429 104.327L44.5718 104.598H44.5718L44.4429 104.327ZM43.7774 104.238L43.5821 104.466H43.5821L43.7774 104.238ZM43.9136 103.215L44.0426 103.485L43.9136 103.215ZM44.5541 102.91L44.7607 102.692C44.8324 102.76 44.8659 102.859 44.8504 102.957C44.8349 103.054 44.7723 103.138 44.683 103.181L44.5541 102.91ZM44.2864 102.655L44.493 102.438H44.493L44.2864 102.655ZM44.9134 101.995C44.8166 101.903 44.6713 101.885 44.5547 101.95L44.2628 101.426C44.6087 101.233 45.0395 101.288 45.3266 101.56L44.9134 101.995ZM45.5187 102.57L44.9134 101.995L45.3266 101.56L45.9318 102.135L45.5187 102.57ZM46.9023 102.125L45.8541 102.623L45.5963 102.082L46.6445 101.583L46.9023 102.125ZM47.2436 102.17C47.1488 102.089 47.0151 102.071 46.9023 102.125L46.6445 101.583C46.9715 101.427 47.3593 101.479 47.6342 101.715L47.2436 102.17ZM47.1737 102.695C47.38 102.597 47.4171 102.319 47.2436 102.17L47.6342 101.715C48.1372 102.146 48.0298 102.952 47.4315 103.237L47.1737 102.695ZM46.5532 102.99L47.1737 102.695L47.4315 103.237L46.811 103.532L46.5532 102.99ZM46.8873 103.87L46.4755 103.479L46.8887 103.044L47.3005 103.435L46.8873 103.87ZM46.8256 104.358C47.0056 104.258 47.0367 104.012 46.8873 103.87L47.3005 103.435C47.7434 103.855 47.6512 104.585 47.1175 104.882L46.8256 104.358ZM46.4669 104.312C46.5637 104.404 46.709 104.423 46.8256 104.358L47.1175 104.882C46.7717 105.075 46.3408 105.02 46.0538 104.748L46.4669 104.312ZM45.7176 103.601L46.4669 104.312L46.0538 104.748L45.3044 104.036L45.7176 103.601ZM44.314 104.056L45.3821 103.547L45.6399 104.089L44.5718 104.598L44.314 104.056ZM43.9727 104.01C44.0674 104.092 44.2012 104.109 44.314 104.056L44.5718 104.598C44.2448 104.753 43.8569 104.701 43.5821 104.466L43.9727 104.01ZM44.0426 103.485C43.8362 103.584 43.7992 103.862 43.9727 104.01L43.5821 104.466C43.0791 104.034 43.1865 103.228 43.7847 102.944L44.0426 103.485ZM44.683 103.181L44.0426 103.485L43.7847 102.944L44.4252 102.639L44.683 103.181ZM44.493 102.438L44.7607 102.692L44.3476 103.127L44.0798 102.873L44.493 102.438ZM44.5547 101.95C44.3747 102.05 44.3436 102.296 44.493 102.438L44.0798 102.873C43.6369 102.452 43.7291 101.723 44.2628 101.426L44.5547 101.95Z" fill="black"/>
  <ellipse cx="82.1998" cy="104.595" rx="12.5283" ry="5.95095" fill="#01132C" fill-opacity="0.5"/>
  <circle cx="72.3174" cy="98.9433" r="2.57413" fill="#E49F63" stroke="black" stroke-width="0.6" stroke-linecap="round"/>
  <circle cx="72.3174" cy="98.9433" r="2.57413" fill="#E49F63" stroke="black" stroke-width="0.6"/>
  <path d="M91.3608 96.3513C93.4201 96.3513 94.5551 95.2566 93.1822 91.8245C92.512 90.1488 90.2968 86.2902 88.1575 84.5137C87.5318 84.6254 86.7916 84.4431 87.4138 85.5607C89.2172 87.7803 91.1888 91.4442 91.4703 94.3986C91.537 95.0989 91.5088 95.7594 91.3608 96.3513Z" fill="#E49F63"/>
  <path d="M87.4128 85.5608C89.2162 87.7804 91.1878 91.4443 91.4693 94.3987M92.0462 93.4548C91.8904 93.512 91.5569 93.781 91.4693 94.3987M91.4693 94.3987C91.536 95.099 91.5078 95.7595 91.3598 96.3514C93.4191 96.3514 94.5541 95.2567 93.1812 91.8246C92.5122 90.1519 90.3039 86.3042 88.1682 84.5234" stroke="black" stroke-width="0.6" stroke-linecap="round"/>
  <path d="M84.3275 105.722H89.7332C91.1919 105.722 90.8486 103.292 89.7332 102.976L90.4196 97.914C88.966 99.445 86.4341 99.843 83.3837 99.7159L82.6972 100.488C82.6972 102.462 83.212 105.722 84.3275 105.722Z" fill="#E49F63"/>
  <path d="M75.0595 84.5285C76.7724 84.7 81.6665 83.7316 83.3826 83.6705C85.3046 83.602 87.158 83.8422 87.158 83.8422L87.4154 85.5581C89.2188 87.7777 91.1905 91.4416 91.4719 94.396C91.5386 95.0964 91.5104 95.7568 91.3624 96.3487C91.0953 97.132 90.4185 97.914 90.4185 97.914L89.7321 102.976C90.8476 103.292 91.1908 105.722 89.7321 105.722H84.3264C83.211 105.722 82.6961 102.462 82.6961 100.488C82.6961 100.488 81.6665 102.584 81.2375 103.7C82.6961 104.3 82.6961 106.474 80.8084 106.474C78.9207 106.474 78.8349 106.56 74.8912 106.474C72.6983 106.426 73.0002 97.914 73.0002 97.914C73.0002 97.914 71.7131 97.1417 71.7131 94.7392C72.1882 91.6469 74.6482 85.8596 75.0595 84.5285Z" fill="#FFB06A"/>
  <path d="M84.3266 105.723H89.7322C91.1909 105.723 90.8477 103.292 89.7322 102.977L90.4187 97.9148C88.965 99.4458 86.4331 99.8438 83.3827 99.7167L82.6963 100.489C82.6963 102.462 83.2111 105.723 84.3266 105.723Z" fill="#E49F63"/>
  <path d="M75.0596 84.5293C74.6483 85.8604 72.1884 91.6477 71.7132 94.74C71.7133 97.1426 73.0004 97.9148 73.0004 97.9148C73.0004 97.9148 72.6984 106.427 74.8913 106.475C78.8351 106.56 78.9209 106.475 80.8086 106.475C82.6963 106.475 82.6963 104.301 81.2376 103.701M87.4155 85.559C89.2189 87.7786 91.1906 91.4425 91.472 94.3969C91.5388 95.0972 91.5105 95.7576 91.3625 96.3495C91.0955 97.1329 90.4187 97.9148 90.4187 97.9148M80.8086 98.9444C80.8086 98.9444 81.5808 99.7167 83.3827 99.7167M78.9209 103.729C80.637 103.414 81.2376 103.701 81.2376 103.701M81.2376 103.701C81.6666 102.585 82.6963 100.489 82.6963 100.489M83.3827 99.7167L82.6963 100.489M83.3827 99.7167C86.4331 99.8438 88.965 99.4458 90.4187 97.9148M89.7322 102.977C88.7884 102.606 87.6729 102.949 87.6729 102.949M89.7322 102.977C90.8477 103.292 91.1909 105.723 89.7322 105.723H84.3266C83.2111 105.723 82.6963 102.462 82.6963 100.489M89.7322 102.977L90.4187 97.9148" stroke="black" stroke-width="0.6" stroke-linecap="round"/>
  <path d="M67.1692 94.7447C67.0052 90.3986 72.8331 85.5847 74.6305 84.9587C76.4278 84.3328 78.2394 85.4992 76.5994 87.1595C74.9593 88.8198 74.3785 92.2932 74.4468 93.4251C75.069 93.4843 75.7541 93.7731 75.8818 94.5397C76.0458 95.5237 75.3352 95.838 74.9593 95.8722C75.1643 96.1114 75.4923 96.8562 75.1643 97.9222C75.0178 98.3984 73.9814 98.8222 72.7004 98.9224C70.3963 99.1026 67.3009 98.2361 67.1692 94.7447Z" fill="#E49F63"/>
  <path d="M74.8024 84.873C72.2399 86.2397 67.0056 90.3987 67.1696 94.7448C67.3014 98.2363 70.3968 99.1028 72.7008 98.9225C73.9819 98.8223 74.8965 98.3421 75.1648 97.9224C75.8823 96.7999 75.1648 96.1115 74.9598 95.8723M74.9598 95.8723C74.6522 95.8382 74.0577 95.9338 74.1397 96.5899M74.9598 95.8723C75.3356 95.8382 76.0463 95.5238 75.8823 94.5398C75.7545 93.7733 75.0694 93.4844 74.4472 93.4252M73.5247 93.5148C73.7178 93.4375 74.071 93.3894 74.4472 93.4252M74.4472 93.4252C74.3789 92.2934 74.7137 89.4557 76.5998 87.1597" stroke="black" stroke-width="0.6" stroke-linecap="round"/>
  <path fill-rule="evenodd" clip-rule="evenodd" d="M87.9612 84.7188C89.5199 86.5063 91.1097 90.5617 91.3499 93.5134C91.6502 97.203 91.3499 98.919 86.1159 99.7342C82.2758 100.332 76.4585 99.7492 73.4685 98.8321C74.4148 98.6597 75.1199 98.3077 75.2388 97.9213C75.5668 96.8553 75.2388 96.1104 75.0338 95.8712C75.4097 95.8371 76.1204 95.5227 75.9564 94.5387C75.8286 93.7721 75.1435 93.4833 74.5213 93.4241C74.453 92.2923 75.0338 88.8188 76.6739 87.1585C77.7038 86.1159 77.3725 85.268 76.5383 84.9365C76.6041 84.8431 76.665 84.7834 76.7203 84.7613C77.0255 84.6392 78.1292 84.8197 79.5282 85.0484C81.2099 85.3233 83.3181 85.668 84.9789 85.6408C85.4265 85.6335 86.0632 85.3737 86.6563 85.1319C87.1778 84.9191 87.6655 84.7202 87.9612 84.7188Z" fill="#F9732A"/>
  <path d="M91.3499 93.5134L91.6489 93.489L91.3499 93.5134ZM87.9612 84.7188L88.1873 84.5216L88.097 84.4181L87.9597 84.4188L87.9612 84.7188ZM86.1159 99.7342L86.0697 99.4378L86.1159 99.7342ZM73.4685 98.8321L73.4147 98.537L73.3805 99.119L73.4685 98.8321ZM75.2388 97.9213L74.9521 97.833L74.9521 97.833L75.2388 97.9213ZM75.0338 95.8712L75.0067 95.5725L74.4277 95.6251L74.8061 96.0665L75.0338 95.8712ZM75.9564 94.5387L75.6604 94.588L75.9564 94.5387ZM74.5213 93.4241L74.2219 93.4422L74.2373 93.6984L74.4929 93.7227L74.5213 93.4241ZM76.6739 87.1585L76.4604 86.9477L76.6739 87.1585ZM76.5383 84.9365L76.2931 84.7637L76.074 85.0748L76.4275 85.2153L76.5383 84.9365ZM76.7203 84.7613L76.8317 85.0398L76.7203 84.7613ZM79.5282 85.0484L79.5766 84.7523L79.5282 85.0484ZM84.9789 85.6408L84.974 85.3408L84.9789 85.6408ZM86.6563 85.1319L86.7696 85.4096L86.6563 85.1319ZM91.6489 93.489C91.5258 91.9765 91.0592 90.1958 90.4297 88.5711C89.8016 86.9499 88.9993 85.4528 88.1873 84.5216L87.735 84.9159C88.4818 85.7723 89.2537 87.1966 89.8702 88.7879C90.4854 90.3758 90.9338 92.0986 91.0509 93.5377L91.6489 93.489ZM86.162 100.031C88.7874 99.6217 90.2859 98.9753 91.0544 97.8733C91.817 96.7796 91.7977 95.3169 91.6489 93.489L91.0509 93.5377C91.2025 95.3995 91.1832 96.6395 90.5622 97.5301C89.947 98.4123 88.6784 99.0315 86.0697 99.4378L86.162 100.031ZM73.3805 99.119C74.9035 99.5861 77.1286 99.9637 79.4493 100.15C81.7704 100.337 84.2103 100.335 86.162 100.031L86.0697 99.4378C84.1814 99.7318 81.7926 99.7369 79.4974 99.5523C77.202 99.3677 75.0235 98.9953 73.5565 98.5453L73.3805 99.119ZM74.9521 97.833C74.9303 97.904 74.8211 98.04 74.5276 98.1897C74.2512 98.3307 73.8681 98.4544 73.4147 98.537L73.5223 99.1273C74.0152 99.0374 74.4578 98.8989 74.8003 98.7242C75.1256 98.5582 75.4285 98.3249 75.5256 98.0095L74.9521 97.833ZM74.8061 96.0665C74.9392 96.2218 75.2521 96.858 74.9521 97.833L75.5256 98.0095C75.8816 96.8525 75.5384 95.999 75.2616 95.676L74.8061 96.0665ZM75.6604 94.588C75.7283 94.9951 75.6138 95.2195 75.4845 95.3499C75.341 95.4946 75.1415 95.5602 75.0067 95.5725L75.061 96.17C75.302 96.1481 75.6457 96.0394 75.9105 95.7724C76.1896 95.491 76.3484 95.0663 76.2523 94.4894L75.6604 94.588ZM74.4929 93.7227C75.0714 93.7778 75.5672 94.0287 75.6604 94.588L76.2523 94.4894C76.09 93.5155 75.2156 93.1888 74.5497 93.1254L74.4929 93.7227ZM76.4604 86.9477C75.5874 87.8315 75.0148 89.1731 74.6681 90.4084C74.321 91.645 74.185 92.8316 74.2219 93.4422L74.8208 93.406C74.7893 92.8847 74.9095 91.7687 75.2458 90.5705C75.5824 89.3711 76.1203 88.1458 76.8873 87.3694L76.4604 86.9477ZM76.4275 85.2153C76.7807 85.3556 76.9712 85.5802 77.0085 85.8259C77.0468 86.0775 76.9421 86.4601 76.4604 86.9477L76.8873 87.3694C77.4356 86.8143 77.6802 86.2517 77.6017 85.7357C77.5224 85.214 77.1302 84.8489 76.6492 84.6577L76.4275 85.2153ZM76.6088 84.4828C76.4675 84.5393 76.3643 84.6626 76.2931 84.7637L76.7836 85.1092C76.8095 85.0725 76.8291 85.0501 76.8418 85.0378C76.8559 85.0242 76.8528 85.0314 76.8317 85.0398L76.6088 84.4828ZM79.5766 84.7523C78.8795 84.6383 78.2465 84.5348 77.7497 84.4754C77.5014 84.4457 77.2798 84.4261 77.097 84.4225C76.9272 84.4192 76.7466 84.4277 76.6088 84.4828L76.8317 85.0398C76.831 85.0401 76.836 85.0381 76.8488 85.0354C76.8613 85.0327 76.8786 85.03 76.9015 85.0277C76.9477 85.023 77.0084 85.0209 77.0851 85.0224C77.2388 85.0255 77.4378 85.0424 77.6785 85.0712C78.1596 85.1287 78.7779 85.2297 79.4798 85.3445L79.5766 84.7523ZM84.974 85.3408C83.3456 85.3675 81.2663 85.0286 79.5766 84.7523L79.4798 85.3445C81.1534 85.6181 83.2907 85.9685 84.9839 85.9408L84.974 85.3408ZM86.543 84.8541C86.2444 84.9759 85.9465 85.0972 85.6685 85.1896C85.3864 85.2833 85.1507 85.3379 84.974 85.3408L84.9839 85.9408C85.2548 85.9363 85.5613 85.8574 85.8576 85.759C86.1581 85.6592 86.4751 85.5297 86.7696 85.4096L86.543 84.8541ZM87.9597 84.4188C87.7592 84.4197 87.5233 84.4847 87.2965 84.5622C87.0624 84.6421 86.8015 84.7486 86.543 84.8541L86.7696 85.4096C87.0326 85.3024 87.2762 85.2031 87.4903 85.13C87.7116 85.0544 87.8675 85.0192 87.9626 85.0187L87.9597 84.4188ZM74.5497 93.1254C74.3182 93.1034 74.0939 93.1099 73.9006 93.1352L73.9787 93.7301C74.1278 93.7105 74.3069 93.705 74.4929 93.7227L74.5497 93.1254Z" fill="black"/>
  <path fill-rule="evenodd" clip-rule="evenodd" d="M91.3509 92.656C91.6513 96.3455 91.3509 98.0616 86.1169 98.8768C82.8125 99.3914 78.044 99.0315 74.8728 98.3367C75.0664 98.2084 75.1949 98.0674 75.2399 97.9214C75.5679 96.8554 75.2399 96.1105 75.0348 95.8714C75.4107 95.8372 76.1214 95.5228 75.9574 94.5388C75.8296 93.7723 75.1445 93.4834 74.5223 93.4242C74.454 92.2924 75.0348 88.8189 76.6749 87.1587C77.5688 86.2537 77.4373 85.4955 76.8416 85.0943C76.9033 84.9751 76.9622 84.8689 77.018 84.777C79.2052 84.7614 81.1522 85.0335 82.6749 85.2464C83.6341 85.3805 84.4249 85.491 85.0014 85.4913C85.489 85.4915 86.0035 85.2927 86.5761 85.0715C87.0756 84.8785 87.6193 84.6685 88.2278 84.5586C89.7082 86.4227 91.1222 89.8453 91.3509 92.656Z" fill="white"/>
  <path d="M86.1169 98.8768L86.0707 98.5803L86.1169 98.8768ZM91.3509 92.656L91.65 92.6316L91.3509 92.656ZM74.8728 98.3367L74.7071 98.0867L74.1165 98.4781L74.8086 98.6298L74.8728 98.3367ZM75.2399 97.9214L74.9531 97.8332L74.9531 97.8332L75.2399 97.9214ZM75.0348 95.8714L75.0077 95.5726L74.4288 95.6252L74.8071 96.0666L75.0348 95.8714ZM75.9574 94.5388L75.6615 94.5881L75.9574 94.5388ZM74.5223 93.4242L74.2229 93.4423L74.2384 93.6985L74.4939 93.7229L74.5223 93.4242ZM76.6749 87.1587L76.4615 86.9478L76.6749 87.1587ZM76.8416 85.0943L76.5752 84.9564L76.4523 85.1938L76.674 85.3431L76.8416 85.0943ZM77.018 84.777L77.0158 84.477L76.8483 84.4782L76.7614 84.6214L77.018 84.777ZM82.6749 85.2464L82.7164 84.9493L82.6749 85.2464ZM85.0014 85.4913L85.0013 85.7913L85.0014 85.4913ZM86.5761 85.0715L86.6842 85.3513L86.5761 85.0715ZM88.2278 84.5586L88.4627 84.372L88.3511 84.2315L88.1745 84.2634L88.2278 84.5586ZM86.163 99.1732C88.7884 98.7643 90.287 98.1179 91.0554 97.0159C91.818 95.9222 91.7987 94.4594 91.65 92.6316L91.0519 92.6803C91.2035 94.542 91.1842 95.7821 90.5632 96.6727C89.948 97.5549 88.6794 98.1741 86.0707 98.5803L86.163 99.1732ZM74.8086 98.6298C78.0052 99.3301 82.8124 99.695 86.163 99.1732L86.0707 98.5803C82.8126 99.0878 78.0828 98.7328 74.937 98.0437L74.8086 98.6298ZM74.9531 97.8332C74.938 97.8822 74.8768 97.9742 74.7071 98.0867L75.0386 98.5868C75.256 98.4426 75.4519 98.2525 75.5266 98.0096L74.9531 97.8332ZM74.8071 96.0666C74.9402 96.222 75.2531 96.8581 74.9531 97.8332L75.5266 98.0096C75.8826 96.8526 75.5395 95.9991 75.2626 95.6761L74.8071 96.0666ZM75.6615 94.5881C75.7293 94.9952 75.6148 95.2197 75.4855 95.35C75.342 95.4947 75.1425 95.5603 75.0077 95.5726L75.062 96.1701C75.3031 96.1482 75.6468 96.0396 75.9116 95.7725C76.1906 95.4912 76.3494 95.0665 76.2533 94.4895L75.6615 94.5881ZM74.4939 93.7229C75.0724 93.7779 75.5682 94.0289 75.6615 94.5881L76.2533 94.4895C76.091 93.5157 75.2166 93.1889 74.5508 93.1256L74.4939 93.7229ZM76.4615 86.9478C75.5884 87.8317 75.0158 89.1732 74.6691 90.4085C74.3221 91.6452 74.186 92.8318 74.2229 93.4423L74.8218 93.4061C74.7903 92.8848 74.9105 91.7688 75.2468 90.5707C75.5835 89.3712 76.1213 88.1459 76.8883 87.3695L76.4615 86.9478ZM76.674 85.3431C76.9047 85.4985 77.0198 85.7008 77.0169 85.9339C77.0138 86.1799 76.8785 86.5256 76.4615 86.9478L76.8883 87.3695C77.3651 86.8868 77.6111 86.401 77.6168 85.9413C77.6227 85.4688 77.3742 85.0913 77.0092 84.8455L76.674 85.3431ZM76.7614 84.6214C76.7013 84.7205 76.6391 84.8328 76.5752 84.9564L77.108 85.2322C77.1675 85.1174 77.223 85.0173 77.2745 84.9326L76.7614 84.6214ZM82.7164 84.9493C81.1944 84.7365 79.2275 84.4612 77.0158 84.477L77.0201 85.077C79.1828 85.0615 81.11 85.3306 82.6334 85.5435L82.7164 84.9493ZM85.0015 85.1913C84.4509 85.191 83.6848 85.0847 82.7164 84.9493L82.6334 85.5435C83.5833 85.6763 84.3989 85.791 85.0013 85.7913L85.0015 85.1913ZM86.468 84.7917C85.8797 85.0189 85.4217 85.1915 85.0015 85.1913L85.0013 85.7913C85.5563 85.7915 86.1273 85.5665 86.6842 85.3513L86.468 84.7917ZM88.1745 84.2634C87.5338 84.3791 86.9647 84.5998 86.468 84.7917L86.6842 85.3513C87.1865 85.1573 87.7048 84.9579 88.2811 84.8538L88.1745 84.2634ZM91.65 92.6316C91.4164 89.7622 89.9804 86.283 88.4627 84.372L87.9929 84.7452C89.4361 86.5624 90.8279 89.9285 91.0519 92.6803L91.65 92.6316ZM74.5508 93.1256C74.2892 93.1007 74.0362 93.1121 73.8264 93.1464L73.9233 93.7385C74.0818 93.7126 74.2831 93.7028 74.4939 93.7229L74.5508 93.1256Z" fill="black"/>
  <path fill-rule="evenodd" clip-rule="evenodd" d="M74.8713 90.821C74.5954 91.9133 74.4922 92.9121 74.5233 93.4267C75.1455 93.486 75.8306 93.7748 75.9584 94.5413C76.1224 95.5254 75.4117 95.8397 75.0358 95.8739C75.2261 96.0959 75.5223 96.7535 75.3017 97.6992C76.6289 97.9378 78.9326 97.9886 81.161 97.9587C83.4437 97.928 85.1545 95.9158 84.9203 93.6449L84.0764 85.4615L84.0063 84.7852C83.1406 84.8079 79.3841 84.8603 78.1517 84.81C77.856 85.1944 77.5779 85.5825 77.3169 85.9721C77.3017 86.3179 77.1094 86.7223 76.6759 87.1612C76.578 87.2603 76.4839 87.3658 76.3935 87.4769C75.7535 88.6195 75.2519 89.7518 74.8713 90.821Z" fill="#686874"/>
  <path d="M74.8713 90.821L74.5887 90.7204L74.5839 90.7338L74.5804 90.7475L74.8713 90.821ZM74.5233 93.4267L74.2239 93.4448L74.2393 93.7011L74.4949 93.7254L74.5233 93.4267ZM75.9584 94.5413L75.6624 94.5907L75.9584 94.5413ZM75.0358 95.8739L75.0087 95.5751L74.4297 95.6277L74.8081 96.0691L75.0358 95.8739ZM75.3017 97.6992L75.0095 97.631L74.9377 97.9386L75.2486 97.9945L75.3017 97.6992ZM81.161 97.9587L81.1651 98.2586L81.161 97.9587ZM84.9203 93.6449L85.2188 93.6142L84.9203 93.6449ZM84.0764 85.4615L84.3748 85.4307L84.3748 85.4306L84.0764 85.4615ZM84.0063 84.7852L84.3047 84.7542L84.2761 84.478L83.9984 84.4853L84.0063 84.7852ZM78.1517 84.81L78.164 84.5102L78.0087 84.5039L77.9139 84.627L78.1517 84.81ZM77.3169 85.9721L77.0677 85.8051L77.0209 85.8749L77.0172 85.9589L77.3169 85.9721ZM76.6759 87.1612L76.4624 86.9504H76.4624L76.6759 87.1612ZM76.3935 87.4769L76.1608 87.2876L76.1444 87.3077L76.1317 87.3303L76.3935 87.4769ZM74.5804 90.7475C74.3004 91.8564 74.1903 92.8881 74.2239 93.4448L74.8228 93.4087C74.7942 92.9361 74.8904 91.9703 75.1622 90.8945L74.5804 90.7475ZM74.4949 93.7254C75.0734 93.7805 75.5692 94.0314 75.6624 94.5907L76.2543 94.492C76.092 93.5182 75.2176 93.1915 74.5517 93.1281L74.4949 93.7254ZM75.6624 94.5907C75.7303 94.9977 75.6158 95.2222 75.4865 95.3526C75.343 95.4973 75.1435 95.5629 75.0087 95.5751L75.063 96.1727C75.304 96.1507 75.6477 96.0421 75.9125 95.7751C76.1916 95.4937 76.3504 95.069 76.2543 94.492L75.6624 94.5907ZM74.8081 96.0691C74.9313 96.2129 75.2102 96.7708 75.0095 97.631L75.5938 97.7674C75.8344 96.7362 75.521 95.9789 75.2636 95.6786L74.8081 96.0691ZM75.2486 97.9945C76.6081 98.2389 78.9393 98.2885 81.1651 98.2586L81.157 97.6587C78.9258 97.6886 76.6497 97.6367 75.3547 97.404L75.2486 97.9945ZM81.1651 98.2586C83.6324 98.2255 85.4702 96.0518 85.2188 93.6142L84.6219 93.6757C84.8389 95.7797 83.255 97.6305 81.157 97.6587L81.1651 98.2586ZM85.2188 93.6142L84.3748 85.4307L83.7779 85.4923L84.6219 93.6757L85.2188 93.6142ZM84.3748 85.4306L84.3047 84.7542L83.7079 84.8161L83.778 85.4924L84.3748 85.4306ZM83.9984 84.4853C83.132 84.5081 79.3849 84.5601 78.164 84.5102L78.1395 85.1097C79.3833 85.1605 83.1493 85.1078 84.0142 85.0851L83.9984 84.4853ZM77.9139 84.627C77.6141 85.0168 77.3323 85.4102 77.0677 85.8051L77.5661 86.139C77.8236 85.7548 78.0978 85.372 78.3895 84.9929L77.9139 84.627ZM77.0172 85.9589C77.0065 86.2031 76.8668 86.541 76.4624 86.9504L76.8893 87.372C77.352 86.9036 77.597 86.4327 77.6166 85.9852L77.0172 85.9589ZM76.4624 86.9504C76.3573 87.0568 76.2568 87.1696 76.1608 87.2876L76.6261 87.6663C76.711 87.5621 76.7987 87.4637 76.8893 87.372L76.4624 86.9504ZM76.1317 87.3303C75.4832 88.4882 74.9747 89.636 74.5887 90.7204L75.1539 90.9216C75.5291 89.8677 76.0238 88.7508 76.6552 87.6235L76.1317 87.3303ZM74.5517 93.1281C74.406 93.1142 74.2635 93.1117 74.1303 93.1179L74.1583 93.7172C74.2644 93.7123 74.3785 93.7143 74.4949 93.7254L74.5517 93.1281Z" fill="black"/>
  <path d="M91.1776 95.4019C91.1193 95.5439 91.0698 95.6766 91.0195 95.8015C90.1662 97.922 87.2031 95.6909 86.9136 93.4235L85.8815 85.3377L85.8017 84.7733C86.1119 84.7841 86.6748 84.709 87.0826 84.6702C91.9461 90.8028 91.8466 93.7731 91.1776 95.4019Z" fill="#686874" stroke="black" stroke-width="0.6" stroke-linejoin="round"/>
  <path d="M91.793 95.5949C91.9033 95.0578 91.9017 92.8981 91.2888 92.8599C89.0529 93.5687 89.0552 94.1719 88.0419 94.6335C87.4878 94.8859 87.8791 96.7967 88.171 97.3466C89.8763 96.9431 91.2146 96.3422 91.793 95.5949Z" fill="#686874" stroke="black" stroke-width="0.6"/>
  <path fill-rule="evenodd" clip-rule="evenodd" d="M75.3034 97.6904C77.732 97.9569 82.1586 97.9948 84.095 97.8791C84.3946 97.2491 84.5414 95.2587 83.6906 95.1896C82.345 95.0802 79.0306 94.9021 75.9822 94.8711C75.9529 95.594 75.3661 95.8393 75.0366 95.8693C75.2266 96.0909 75.5223 96.7469 75.3034 97.6904Z" fill="#686874"/>
  <path d="M84.095 97.8791L84.1129 98.1785L84.2898 98.1679L84.366 98.0079L84.095 97.8791ZM75.3034 97.6904L75.0112 97.6226L74.9349 97.9517L75.2707 97.9886L75.3034 97.6904ZM83.6906 95.1896L83.6663 95.4886L83.6906 95.1896ZM75.9822 94.8711L75.9852 94.5711L75.6942 94.5681L75.6824 94.8589L75.9822 94.8711ZM75.0366 95.8693L75.0095 95.5705L74.4305 95.6231L74.8088 96.0645L75.0366 95.8693ZM84.0771 97.5796C82.1543 97.6945 77.745 97.6565 75.3362 97.3922L75.2707 97.9886C77.719 98.2573 82.1628 98.2951 84.1129 98.1785L84.0771 97.5796ZM83.6663 95.4886C83.7382 95.4944 83.8128 95.5344 83.8855 95.6826C83.9614 95.8372 84.0096 96.0666 84.0246 96.3405C84.0551 96.8939 83.9456 97.4947 83.8241 97.7502L84.366 98.0079C84.544 97.6334 84.6577 96.9241 84.6237 96.3075C84.6066 95.9965 84.5506 95.6759 84.4241 95.4182C84.2945 95.1541 84.0683 94.9193 83.7149 94.8906L83.6663 95.4886ZM75.9791 95.1711C79.0207 95.202 82.328 95.3798 83.6663 95.4886L83.7149 94.8906C82.3619 94.7806 79.0405 94.6022 75.9852 94.5711L75.9791 95.1711ZM75.6824 94.8589C75.6714 95.1301 75.5609 95.2932 75.4329 95.3971C75.2953 95.5088 75.1256 95.5599 75.0095 95.5705L75.0638 96.168C75.2772 96.1486 75.5656 96.0622 75.811 95.863C76.0661 95.656 76.2636 95.335 76.2819 94.8832L75.6824 94.8589ZM74.8088 96.0645C74.9319 96.208 75.2102 96.7645 75.0112 97.6226L75.5957 97.7582C75.8343 96.7293 75.5214 95.9738 75.2644 95.674L74.8088 96.0645Z" fill="black"/>
  <path fill-rule="evenodd" clip-rule="evenodd" d="M75.9715 94.9855C78.3587 95.3 82.1394 95.4782 83.867 95.4406C84.1776 94.8227 84.3924 92.8396 83.5795 92.7375C82.0932 92.5507 78.0887 92.17 74.8621 92.0625C74.7687 92.0845 74.6821 92.1258 74.6023 92.1824C74.5296 92.7021 74.5053 93.1391 74.5226 93.4258C75.1448 93.485 75.8299 93.7738 75.9576 94.5404C75.9855 94.7074 75.9881 94.8552 75.9715 94.9855Z" fill="#686874"/>
  <path d="M83.867 95.4406L83.8735 95.7406L84.0539 95.7366L84.135 95.5754L83.867 95.4406ZM75.9715 94.9855L75.6739 94.9475L75.636 95.2439L75.9323 95.283L75.9715 94.9855ZM83.5795 92.7375L83.6169 92.4398V92.4398L83.5795 92.7375ZM74.8621 92.0625L74.872 91.7627L74.8321 91.7613L74.7932 91.7705L74.8621 92.0625ZM74.6023 92.1824L74.4287 91.9378L74.3231 92.0127L74.3052 92.1409L74.6023 92.1824ZM74.5226 93.4258L74.2232 93.4439L74.2386 93.7001L74.4942 93.7244L74.5226 93.4258ZM75.9576 94.5404L75.6617 94.5897V94.5897L75.9576 94.5404ZM83.8604 95.1407C82.148 95.1779 78.3826 95.0005 76.0106 94.6881L75.9323 95.283C78.3349 95.5994 82.1308 95.7784 83.8735 95.7406L83.8604 95.1407ZM83.5421 93.0351C83.6 93.0424 83.6692 93.0788 83.735 93.2335C83.8026 93.3924 83.8403 93.6251 83.8446 93.9003C83.8532 94.456 83.7256 95.054 83.5989 95.3059L84.135 95.5754C84.319 95.2094 84.4541 94.5069 84.4445 93.891C84.4397 93.5805 84.3982 93.2596 84.2871 92.9986C84.1743 92.7335 83.9655 92.4836 83.6169 92.4398L83.5421 93.0351ZM74.8521 92.3623C78.0681 92.4695 82.0634 92.8493 83.5421 93.0351L83.6169 92.4398C82.123 92.2521 78.1092 91.8706 74.872 91.7627L74.8521 92.3623ZM74.776 92.4271C74.8281 92.3901 74.8795 92.3666 74.9309 92.3545L74.7932 91.7705C74.6579 91.8024 74.5362 91.8615 74.4287 91.9378L74.776 92.4271ZM74.3052 92.1409C74.2312 92.6703 74.2042 93.1292 74.2232 93.4439L74.8221 93.4077C74.8064 93.1489 74.8281 92.7339 74.8994 92.224L74.3052 92.1409ZM74.4942 93.7244C75.0727 93.7795 75.5685 94.0304 75.6617 94.5897L76.2536 94.4911C76.0913 93.5172 75.2169 93.1905 74.551 93.1271L74.4942 93.7244ZM75.6617 94.5897C75.6854 94.7314 75.6864 94.8496 75.6739 94.9475L76.269 95.0236C76.2898 94.8608 76.2856 94.6834 76.2536 94.4911L75.6617 94.5897ZM74.551 93.1271C74.3238 93.1055 74.1036 93.1113 73.9129 93.1355L73.9884 93.7307C74.1359 93.712 74.3117 93.7071 74.4942 93.7244L74.551 93.1271Z" fill="black"/>
  <path d="M91.448 92.8374C91.5371 92.2968 91.0831 90.6286 90.4934 90.6177C88.3688 91.424 88.7059 91.7083 87.7475 92.2137C87.2233 92.4901 87.6587 94.3791 87.9561 94.9147C89.5809 94.4366 90.916 93.6086 91.448 92.8374Z" fill="#686874" stroke="black" stroke-width="0.6"/>
  <path fill-rule="evenodd" clip-rule="evenodd" d="M76.05 84.6609C75.0205 84.6418 74.3146 84.6794 74.1737 84.8153C72.6457 85.7499 69.8 87.9141 68.2343 90.3808C67.418 91.6667 67.547 93.5398 69.0053 93.9791C70.5678 94.4496 72.7695 93.9935 74.5157 93.0823C74.6292 91.3804 76.0499 87.3975 78.3556 84.7967C77.5702 84.7741 76.7994 84.7327 76.05 84.6609Z" fill="#686874"/>
  <path d="M74.1737 84.8153L74.3302 85.0712L74.3582 85.0541L74.3819 85.0312L74.1737 84.8153ZM76.05 84.6609L76.0786 84.3622L76.0671 84.3611L76.0555 84.3609L76.05 84.6609ZM68.2343 90.3808L68.4876 90.5415L68.2343 90.3808ZM69.0053 93.9791L68.9188 94.2663H68.9188L69.0053 93.9791ZM74.5157 93.0823L74.6545 93.3483L74.8039 93.2703L74.8151 93.1023L74.5157 93.0823ZM78.3556 84.7967L78.5801 84.9957L79.006 84.5152L78.3642 84.4968L78.3556 84.7967ZM74.3819 85.0312C74.3604 85.052 74.3472 85.0541 74.3644 85.0472C74.3787 85.0415 74.4045 85.0332 74.4456 85.0242C74.5279 85.0062 74.6458 84.9907 74.8008 84.9792C75.1097 84.9562 75.5326 84.9514 76.0444 84.9608L76.0555 84.3609C75.5379 84.3513 75.0931 84.3558 74.7564 84.3808C74.5887 84.3933 74.4392 84.4114 74.3174 84.4381C74.2564 84.4514 74.1959 84.4683 74.1406 84.4905C74.0882 84.5116 74.0222 84.5446 73.9654 84.5993L74.3819 85.0312ZM68.4876 90.5415C70.018 88.1305 72.8196 85.9952 74.3302 85.0712L74.0171 84.5594C72.4718 85.5045 69.5821 87.6977 67.981 90.22L68.4876 90.5415ZM69.0919 93.6918C68.4938 93.5117 68.1607 93.0436 68.0628 92.4487C67.9633 91.8438 68.1154 91.1279 68.4876 90.5415L67.981 90.22C67.537 90.9195 67.3453 91.7832 67.4708 92.5461C67.5979 93.319 68.0585 94.0072 68.9188 94.2663L69.0919 93.6918ZM74.3769 92.8163C72.6667 93.7088 70.5497 94.1309 69.0919 93.6918L68.9188 94.2663C70.5859 94.7684 72.8722 94.2783 74.6545 93.3483L74.3769 92.8163ZM78.1311 84.5977C76.9508 85.9291 76.0038 87.6053 75.3378 89.1584C74.6741 90.7063 74.2763 92.1631 74.2164 93.0623L74.8151 93.1023C74.8686 92.2996 75.2379 90.914 75.8893 89.3948C76.5385 87.8807 77.4547 86.2651 78.5801 84.9957L78.1311 84.5977ZM78.3642 84.4968C77.5836 84.4744 76.8197 84.4332 76.0786 84.3622L76.0214 84.9595C76.7791 85.0321 77.5569 85.0739 78.347 85.0965L78.3642 84.4968Z" fill="black"/>
  <path d="M93.0334 90.4687C91.719 87.9958 89.6438 85.5494 88.1133 84.6133C87.8452 84.7205 87.7954 84.8774 87.7954 84.8774C90.1216 87.4772 91.3219 91.7757 91.7754 93.5897C91.9136 93.616 92.0476 93.6302 92.1767 93.6335C93.6292 93.6704 93.7153 91.7516 93.0334 90.4687Z" fill="#686874" stroke="black" stroke-width="0.6"/>
  <path d="M75.8861 88.6353C75.4756 87.7231 72.6558 86.7337 71.2114 86.5246C70.9262 86.4109 68.9297 88.2364 69.2718 88.9774C70.5489 88.7949 73.5289 90.4977 74.8592 91.372C74.9731 90.403 75.3722 89.7188 75.8861 88.6353Z" fill="#F9732A" stroke="black" stroke-width="0.6"/>
  <path d="M88.5183 88.8824C88.9288 87.9702 89.5395 87.543 90.9839 87.334C91.6292 87.4299 92.7109 89.083 92.7616 89.9484C91.4845 89.766 90.8755 90.7449 89.5452 91.6191C89.4313 90.6501 89.0322 89.9659 88.5183 88.8824Z" fill="#F9732A" stroke="black" stroke-width="0.6"/>
  <path d="M76.7685 86.702C76.5969 85.4666 77.1423 84.67 77.9843 84.7843C80.5504 84.8919 81.7761 84.8299 82.9718 84.8272C83.6359 84.8257 83.7184 86.8278 83.4713 87.4456C81.5329 87.4986 77.5094 87.2846 76.7685 86.702Z" fill="#686874" stroke="black" stroke-width="0.6"/>
  <path d="M87.0477 87.0226C88.3415 86.6529 88.5011 87.0464 88.9066 86.3167C88.8619 85.5077 88.287 84.898 87.872 84.5767C87.5811 84.6077 86.9925 84.6948 86.66 84.7162C86.6054 85.3572 86.8617 86.6222 87.0477 87.0226Z" fill="#686874" stroke="black" stroke-width="0.6" stroke-linejoin="round"/>
  <path d="M75.4586 89.4122C75.1085 88.8296 75.9548 86.9167 76.7131 86.7578C79.3383 86.8653 82.1972 87.3997 83.4204 87.3971C84.0998 87.3956 83.907 89.4823 83.6542 90.1002C81.6711 90.1532 76.2166 89.9948 75.4586 89.4122Z" fill="#686874" stroke="black" stroke-width="0.6"/>
  <path d="M90.0973 88.7642C90.2435 88.1195 89.3995 86.4363 88.8729 86.446C87.1472 87.1216 87.8783 86.7056 87.0664 86.9689C86.6155 87.1151 87.0516 89.1101 87.3106 89.6583C88.634 89.2789 89.6805 89.4977 90.0973 88.7642Z" fill="#686874" stroke="black" stroke-width="0.6"/>
  <path d="M74.647 91.804C74.4209 91.3048 74.6875 89.5313 75.4653 89.332C78.4369 89.4396 82.1251 89.8202 83.4939 90.007C84.2427 90.1092 84.0448 92.0923 83.7587 92.7102C81.5139 92.7631 75.5051 92.3866 74.647 91.804Z" fill="#686874" stroke="black" stroke-width="0.6"/>
  <path d="M90.8158 90.9412C90.8921 90.4048 90.4532 88.7317 89.9078 88.7062C87.9523 89.4571 88.2848 89.0514 87.4043 89.5313C86.9227 89.7938 87.3469 91.6864 87.628 92.2274C89.1251 91.7911 90.3326 91.6964 90.8158 90.9412Z" fill="#686874" stroke="black" stroke-width="0.6"/>
  <rect x="79.3369" y="93.3027" width="0.858045" height="2.6785" rx="0.429022" transform="rotate(16.9292 79.3369 93.3027)" fill="#686874" stroke="black" stroke-width="0.6"/>
  <path d="M90.4963 92.571C90.4382 92.4088 90.2597 92.3244 90.0975 92.3825C89.9353 92.4406 89.851 92.6191 89.909 92.7813L90.4363 94.2536C90.4943 94.4158 90.6729 94.5002 90.8351 94.4421C90.9972 94.384 91.0816 94.2055 91.0235 94.0433L90.4963 92.571Z" fill="#686874" stroke="black" stroke-width="0.6"/>
  <circle cx="4.03509" cy="4.03509" r="4.03509" transform="matrix(-0.998596 0.0529806 0.0529806 0.998596 93.4816 62.8066)" fill="#E49F63"/>
  <circle cx="2.22342" cy="2.22342" r="2.22342" transform="matrix(-0.998596 0.0529806 0.0529806 0.998596 91.7679 64.7109)" fill="#FABEBE" stroke="black" stroke-width="0.6"/>
  <path d="M85.6365 67.2636C85.5185 65.0382 87.2268 63.1385 89.4522 63.0204C91.6776 62.9024 93.5773 64.6107 93.6954 66.8361C93.8134 69.0614 92.1051 70.9612 89.8797 71.0793" stroke="black" stroke-width="0.6"/>
  <g filter="url(#filter0_i_30236_9870)">
    <path d="M70.2468 85.3205C66.8134 83.2418 66.0769 80.0922 67.3275 74.3169C68.2371 70.1167 70.7424 65.3129 81.0932 64.7637C91.4439 64.2145 96.5412 72.248 94.4564 81.8657C94.4564 81.8657 95.3263 82.7249 95.0888 84.0025C94.685 86.1746 92.4447 86.9973 86.4417 87.3158C80.4387 87.6343 73.6802 87.3991 70.2468 85.3205Z" fill="#E49F63"/>
  </g>
  <path d="M67.3275 74.3169L67.0343 74.2535L67.3275 74.3169ZM70.2468 85.3205L70.0915 85.5771L70.2468 85.3205ZM95.0888 84.0025L94.7939 83.9477L95.0888 84.0025ZM94.4564 81.8657L94.1632 81.8022C94.1415 81.9025 94.1726 82.007 94.2456 82.0791L94.4564 81.8657ZM81.0932 64.7637L81.1091 65.0632L81.0932 64.7637ZM77.2184 82.5176C77.078 82.6056 77.0355 82.7907 77.1234 82.9311C77.2114 83.0715 77.3965 83.114 77.5369 83.0261L77.2184 82.5176ZM81.8674 83.3594C81.9906 83.4702 82.1803 83.4601 82.291 83.3369C82.4018 83.2137 82.3918 83.0241 82.2686 82.9133L81.8674 83.3594ZM67.0343 74.2535C66.4057 77.1565 66.2656 79.4428 66.7402 81.28C67.2195 83.1356 68.3177 84.5033 70.0915 85.5771L70.4022 85.0639C68.7425 84.0591 67.7558 82.8126 67.3211 81.1299C66.8817 79.4288 66.9987 77.2527 67.6207 74.3804L67.0343 74.2535ZM86.4576 87.6154C89.46 87.4561 91.5627 87.1699 92.9715 86.6347C93.6806 86.3653 94.2302 86.0271 94.6312 85.5961C95.0351 85.162 95.2737 84.6494 95.3837 84.0573L94.7939 83.9477C94.702 84.4416 94.5092 84.8464 94.1919 85.1874C93.8717 85.5315 93.4103 85.8262 92.7584 86.0738C91.4453 86.5726 89.4263 86.857 86.4258 87.0162L86.4576 87.6154ZM95.3837 84.0573C95.5175 83.3377 95.3384 82.7365 95.1299 82.3206C95.0256 82.1127 94.9131 81.949 94.8258 81.8362C94.7821 81.7797 94.7443 81.7356 94.7166 81.7048C94.7028 81.6893 94.6914 81.6772 94.683 81.6684C94.6788 81.664 94.6754 81.6605 94.6727 81.6578C94.6714 81.6564 94.6703 81.6553 94.6694 81.6544C94.6689 81.6539 94.6685 81.6535 94.6682 81.6532C94.668 81.653 94.6678 81.6528 94.6677 81.6527C94.6676 81.6526 94.6675 81.6525 94.6675 81.6525C94.6674 81.6524 94.6673 81.6523 94.4564 81.8657C94.2456 82.0791 94.2455 82.0791 94.2454 82.079C94.2454 82.079 94.2453 82.0789 94.2453 82.0788C94.2452 82.0787 94.2451 82.0786 94.245 82.0786C94.2449 82.0784 94.2448 82.0783 94.2448 82.0783C94.2447 82.0782 94.2448 82.0783 94.2451 82.0787C94.2458 82.0793 94.2472 82.0807 94.2493 82.083C94.2535 82.0874 94.2606 82.0949 94.2701 82.1055C94.289 82.1266 94.3174 82.1596 94.3514 82.2036C94.4198 82.2919 94.5099 82.4228 94.5935 82.5895C94.7605 82.9225 94.8976 83.3897 94.7939 83.9477L95.3837 84.0573ZM94.7496 81.9293C95.8057 77.0572 95.0498 72.5513 92.6799 69.3245C90.3041 66.0897 86.3386 64.1849 81.0773 64.4641L81.1091 65.0632C86.1985 64.7932 89.957 66.6307 92.1963 69.6797C94.4416 72.7368 95.1919 77.0565 94.1632 81.8022L94.7496 81.9293ZM81.0773 64.4641C75.8585 64.741 72.5716 66.0931 70.4714 67.9462C68.3706 69.8 67.4961 72.1212 67.0343 74.2535L67.6207 74.3804C68.0686 72.3125 68.9015 70.1316 70.8684 68.3961C72.836 66.66 75.9771 65.3355 81.1091 65.0632L81.0773 64.4641ZM70.0915 85.5771C71.8675 86.6523 74.4709 87.2357 77.3516 87.5157C80.2413 87.7964 83.448 87.775 86.4576 87.6154L86.4258 87.0162C83.4324 87.175 80.2583 87.1953 77.4097 86.9185C74.5521 86.6408 72.0596 86.0673 70.4022 85.0639L70.0915 85.5771ZM77.3777 82.7718C77.5369 83.0261 77.5368 83.0261 77.5367 83.0262C77.5367 83.0262 77.5366 83.0263 77.5366 83.0263C77.5365 83.0263 77.5365 83.0264 77.5365 83.0264C77.5364 83.0264 77.5366 83.0263 77.5369 83.0261C77.5375 83.0257 77.5386 83.025 77.5404 83.024C77.5439 83.0218 77.5498 83.0183 77.5579 83.0136C77.5741 83.0041 77.5992 82.9898 77.6326 82.9718C77.6995 82.9358 77.7991 82.8853 77.9259 82.83C78.1802 82.7192 78.5398 82.5909 78.9609 82.5199C79.798 82.3786 80.87 82.4626 81.8674 83.3594L82.2686 82.9133C81.101 81.8634 79.8279 81.7651 78.8611 81.9282C78.3802 82.0094 77.9731 82.155 77.6862 82.28C77.5424 82.3427 77.4278 82.4006 77.3482 82.4435C77.3083 82.465 77.2771 82.4827 77.2552 82.4955C77.2443 82.5019 77.2357 82.507 77.2295 82.5108C77.2265 82.5126 77.224 82.5141 77.2221 82.5153C77.2212 82.5159 77.2204 82.5163 77.2198 82.5167C77.2195 82.5169 77.2192 82.5171 77.219 82.5172C77.2188 82.5173 77.2187 82.5174 77.2186 82.5174C77.2185 82.5175 77.2184 82.5176 77.3777 82.7718Z" fill="black"/>
  <ellipse cx="1.79259" cy="1.97196" rx="1.79259" ry="1.97196" transform="matrix(0.997307 -0.0733392 0.0227813 0.99974 79.7356 78.9062)" fill="black"/>
  <ellipse cx="0.622207" cy="0.689073" rx="0.622207" ry="0.689073" transform="matrix(0.996187 0.0872382 -0.137534 0.990497 81.3882 80.0566)" fill="white"/>
  <ellipse cx="1.56729" cy="1.84259" rx="1.56729" ry="1.84259" transform="matrix(-0.999972 -0.00742026 0.0431881 0.999067 92.1711 78.127)" fill="black"/>
  <ellipse cx="81.7228" cy="78.3861" rx="2.08187" ry="1.13557" transform="rotate(6.34755 81.7228 78.3861)" fill="#FED2AB"/>
  <ellipse cx="89.798" cy="78.0064" rx="1.81167" ry="0.988185" transform="rotate(-21.4182 89.798 78.0064)" fill="#FED2AB"/>
  <ellipse cx="0.537251" cy="0.593775" rx="0.537251" ry="0.593775" transform="matrix(0.984716 -0.174166 0.217554 0.976048 90.4221 79.1895)" fill="white"/>
  <ellipse cx="86.6981" cy="82.3701" rx="3.88701" ry="2.07307" transform="rotate(-3.03699 86.6981 82.3701)" fill="#FED2AB"/>
  <path d="M88.6644 80.831C88.0198 80.7756 86.8552 80.8248 86.1552 80.9786C85.2553 81.1764 86.896 82.5501 87.7958 82.3522C88.6957 82.1544 89.4701 80.9002 88.6644 80.831Z" fill="black"/>
  <ellipse cx="87.4281" cy="81.3424" rx="0.494093" ry="0.164697" transform="rotate(-1.3549 87.4281 81.3424)" fill="#D9D9D9"/>
  <path d="M87.7065 81.8006C87.7477 82.5769 87.5302 83.367 87.0401 83.912" stroke="black" stroke-width="0.6" stroke-linecap="round"/>
  <circle cx="71.7084" cy="66.968" r="4.03509" transform="rotate(-3.03699 71.7084 66.968)" fill="#E49F63"/>
  <circle cx="71.7071" cy="66.9677" r="2.22342" transform="rotate(-3.03699 71.7071 66.9677)" fill="#FABEBE" stroke="black" stroke-width="0.6"/>
  <path d="M75.7378 66.7542C75.6197 64.5288 73.72 62.8205 71.4946 62.9386C69.2692 63.0566 67.5609 64.9564 67.679 67.1818C67.797 69.4071 69.6968 71.1155 71.9222 70.9974" stroke="black" stroke-width="0.6"/>
  <path d="M85.6712 80.2725C85.4204 82.5286 82.7555 85.2996 79.8837 84.9803C77.0119 84.661 74.8871 82.5733 75.1379 80.3173C75.3887 78.0613 77.9201 76.4912 80.7919 76.8105C83.6637 77.1298 85.922 78.0165 85.6712 80.2725Z" fill="url(#paint1_linear_30236_9870)" fill-opacity="0.8" stroke="black" stroke-width="0.6"/>
  <path d="M88.4638 79.4129C88.6288 81.445 90.9473 84.0038 93.5341 83.7938C96.1208 83.5837 98.084 81.7662 97.9191 79.7341C97.7541 77.702 95.5234 76.2249 92.9366 76.4349C90.3499 76.645 88.2988 77.3808 88.4638 79.4129Z" fill="url(#paint2_linear_30236_9870)" fill-opacity="0.8" stroke="black" stroke-width="0.6"/>
  <path d="M84.8792 78.4019C85.754 78.1277 87.7282 77.746 88.6266 78.4132" stroke="black" stroke-width="0.6"/>
  <path d="M75.3094 65.1807C75.0589 69.1898 70.1937 69.9833 67.7924 69.8789C74.8083 71.6328 88.0466 70.8185 93.7887 69.8789C91.9095 62.3619 86.2437 58.0424 80.634 58.6034C75.9359 58.6034 73.117 60.7471 71.8642 62.9396C73.7434 62.9396 75.1006 64.5543 75.3094 65.1807Z" fill="#F9732A" stroke="black" stroke-width="0.6"/>
  <path d="M93.7887 69.5655C94.9659 69.5655 95.2582 72.7509 95.3308 74.3329C95.3537 74.8317 94.9865 75.2545 94.4916 75.3208C94.3612 75.3382 94.2313 75.3555 94.1019 75.3726C93.1314 75.5006 92.192 75.6168 91.283 75.7221C89.9675 75.8744 88.7155 76.0036 87.5245 76.1118C86.0789 76.2432 84.7232 76.3437 83.4528 76.417C81.8601 76.509 80.4015 76.5583 79.0679 76.5725C77.6838 76.5873 76.4343 76.5641 75.3094 76.5115C73.744 76.4383 72.4198 76.3079 71.3096 76.1428C70.1127 75.9649 69.1646 75.7467 68.4312 75.5164C67.7144 75.2914 67.2026 75.0548 66.864 74.8331C66.6421 74.6878 66.5384 74.4287 66.5449 74.1636C66.5905 72.3111 66.9445 69.2082 68.1057 69.5655C68.4166 69.6611 68.8404 69.7423 69.3585 69.8106C70.0431 69.9009 70.8926 69.9685 71.8641 70.0171C72.8926 70.0685 74.0579 70.0985 75.3094 70.1114C76.451 70.1231 77.6644 70.1206 78.9112 70.1069C80.1948 70.0928 81.5138 70.0669 82.8264 70.0327C84.207 69.9967 85.5804 69.9514 86.8981 69.901C88.224 69.8502 89.4933 69.7942 90.6566 69.737C91.5643 69.6924 92.4074 69.6471 93.1623 69.603C93.3785 69.5904 93.5875 69.5778 93.7887 69.5655Z" fill="#F9732A"/>
  <path d="M69.3585 69.8106C68.8404 69.7423 68.4166 69.6611 68.1057 69.5655C66.9445 69.2082 66.5905 72.3111 66.5449 74.1636C66.5384 74.4287 66.6421 74.6878 66.864 74.8331C67.2026 75.0548 67.7144 75.2914 68.4312 75.5164M69.3585 69.8106C69.0535 70.1465 68.4411 71.7579 68.4312 75.5164M69.3585 69.8106C70.0431 69.9009 70.8926 69.9685 71.8641 70.0171M68.4312 75.5164C69.1646 75.7467 70.1127 75.9649 71.3096 76.1428M71.8641 70.0171C71.7033 70.5973 71.3672 72.6349 71.3096 76.1428M71.8641 70.0171C72.8926 70.0685 74.0579 70.0985 75.3094 70.1114M71.3096 76.1428C72.4198 76.3079 73.744 76.4383 75.3094 76.5115M75.3094 70.1114C75.3094 71.7413 75.3094 75.3031 75.3094 76.5115M75.3094 70.1114C76.451 70.1231 77.6644 70.1206 78.9112 70.1069M75.3094 76.5115C76.4343 76.5641 77.6838 76.5873 79.0679 76.5725M78.9112 70.1069C79.0157 71.5701 79.1933 74.9118 79.0679 76.5725M78.9112 70.1069C80.1948 70.0928 81.5138 70.0669 82.8264 70.0327M79.0679 76.5725C80.4015 76.5583 81.8601 76.509 83.4528 76.417M82.8264 70.0327C83.0352 70.5817 83.4528 72.6273 83.4528 76.417M82.8264 70.0327C84.207 69.9967 85.5804 69.9514 86.8981 69.901M83.4528 76.417C84.7232 76.3437 86.0789 76.2432 87.5245 76.1118M86.8981 69.901C87.2113 70.8125 87.7751 73.3308 87.5245 76.1118M86.8981 69.901C88.224 69.8502 89.4933 69.7942 90.6566 69.737M87.5245 76.1118C88.7155 76.0036 89.9675 75.8744 91.283 75.7221M90.6566 69.737C90.9698 70.5478 91.5336 72.8798 91.283 75.7221M90.6566 69.737C91.5643 69.6924 92.4074 69.6471 93.1623 69.603M91.283 75.7221C92.192 75.6168 93.1314 75.5006 94.1019 75.3726M93.1623 69.603C93.3785 69.5904 93.5875 69.5778 93.7887 69.5655C94.9659 69.5655 95.2582 72.7509 95.3308 74.3329C95.3537 74.8317 94.9865 75.2545 94.4916 75.3208C94.3612 75.3382 94.2313 75.3555 94.1019 75.3726M93.1623 69.603C93.5799 70.2254 94.3525 72.2507 94.1019 75.3726" stroke="black" stroke-width="0.6"/>
  <ellipse cx="106.051" cy="107.214" rx="6.74358" ry="2.95032" transform="rotate(180 106.051 107.214)" fill="#01132C" fill-opacity="0.5"/>
  <path d="M114.606 92.5845C114.606 95.1924 113.865 97.5319 112.693 99.2062C111.52 100.882 109.947 101.854 108.267 101.854H104.37V83.3145H108.267C109.947 83.3145 111.52 84.2869 112.693 85.9628C113.865 87.637 114.606 89.9765 114.606 92.5845Z" fill="#FAA134" stroke="#4B371F"/>
  <path d="M110.698 92.5845C110.698 95.1924 109.957 97.5319 108.785 99.2062C107.612 100.882 106.039 101.854 104.359 101.854C102.678 101.854 101.106 100.882 99.9326 99.2062C98.7606 97.5319 98.0199 95.1924 98.0199 92.5845C98.0199 89.9765 98.7606 87.637 99.9326 85.9628C101.106 84.2869 102.678 83.3145 104.359 83.3145C106.039 83.3145 107.612 84.2869 108.785 85.9628C109.957 87.637 110.698 89.9765 110.698 92.5845Z" fill="#FFB050" stroke="#4B371F"/>
  <path d="M108.148 92.5846C108.148 94.4984 107.654 96.2076 106.882 97.4227C106.107 98.6438 105.097 99.3059 104.06 99.3059C103.024 99.3059 102.014 98.6438 101.238 97.4227C100.467 96.2076 99.9728 94.4984 99.9728 92.5846C99.9728 90.6707 100.467 88.9615 101.238 87.7465C102.014 86.5254 103.024 85.8633 104.06 85.8633C105.097 85.8633 106.107 86.5254 106.882 87.7465C107.654 88.9615 108.148 90.6707 108.148 92.5846Z" fill="#FFCF23" stroke="#AF7026"/>
  <path d="M106.139 89.6408L106.139 89.6408C105.94 89.3815 105.639 89.1603 105.258 89.1652C104.939 89.1691 104.677 89.3326 104.489 89.5411C104.397 89.6433 104.319 89.7607 104.253 89.8876C104.205 89.8022 104.152 89.7217 104.093 89.6475C103.948 89.4645 103.754 89.3042 103.51 89.2317C103.255 89.1558 102.996 89.192 102.771 89.3164C102.557 89.435 102.394 89.6214 102.274 89.8234C102.153 90.0277 102.065 90.2654 102.008 90.5151C101.951 90.7661 101.923 91.0339 101.926 91.3016C101.929 91.5692 101.961 91.8367 102.023 92.0872C102.068 92.2685 102.129 92.4433 102.207 92.6032C102.138 93.0809 102.122 93.5817 102.162 94.0734C102.206 94.6253 102.319 95.1592 102.497 95.63C102.673 96.0976 102.915 96.5101 103.222 96.8109C103.531 97.1143 103.918 97.3129 104.351 97.3071C104.784 97.3014 105.166 97.0926 105.467 96.781C105.766 96.4723 105.997 96.0535 106.16 95.5813C106.325 95.106 106.424 94.5694 106.454 94.0165C106.48 93.5238 106.452 93.0236 106.369 92.548C106.484 92.2961 106.558 92.008 106.592 91.7124C106.636 91.3431 106.62 90.9553 106.546 90.596C106.472 90.2408 106.339 89.9018 106.139 89.6408Z" fill="#FFB050" stroke="#AF7026"/>
  <path d="M100.45 90.6302C100.504 90.0719 100.775 88.7041 101.427 87.6992" stroke="white" stroke-linecap="round" stroke-linejoin="round"/>
  <ellipse cx="131.382" cy="97.2744" rx="7.06926" ry="3.0928" transform="rotate(180 131.382 97.2744)" fill="#01132C" fill-opacity="0.5"/>
  <circle cx="9.72024" cy="9.72024" r="9.22024" transform="matrix(-1 0 0 1 141.984 72.0918)" fill="#FFB050" stroke="#4B371F"/>
  <circle cx="7.18452" cy="7.18452" r="6.68452" transform="matrix(-1 0 0 1 139.448 74.627)" fill="#FFCF23" stroke="#AF7026"/>
  <path d="M129.96 77.9608C130.362 77.8165 130.798 77.7983 131.211 77.9087L131.211 77.9088C131.558 78.0015 131.875 78.1819 132.132 78.4326C132.307 78.6035 132.451 78.803 132.556 79.0218C132.796 79.0614 133.031 79.1244 133.258 79.2099C133.412 79.1047 133.581 79.0205 133.759 78.9597C134.045 78.8619 134.349 78.8272 134.65 78.858C134.95 78.8887 135.241 78.9841 135.501 79.1377C135.762 79.2913 135.986 79.4993 136.158 79.7477C136.331 79.996 136.447 80.2787 136.5 80.5764C136.553 80.874 136.541 81.1796 136.465 81.4721C136.388 81.7647 136.25 82.0373 136.058 82.2712C135.939 82.4166 135.801 82.545 135.649 82.6531C135.65 83.1383 135.556 83.6201 135.37 84.0707C135.144 84.6203 134.788 85.107 134.333 85.4897C133.878 85.8723 133.338 86.1395 132.758 86.2685C132.178 86.3975 131.575 86.3845 131.001 86.2307C130.426 86.0769 129.898 85.7867 129.46 85.3849C129.022 84.983 128.688 84.4814 128.485 83.9226C128.282 83.3638 128.218 82.7644 128.296 82.1752C128.361 81.6922 128.52 81.2279 128.764 80.8084C128.635 80.527 128.569 80.219 128.573 79.9065C128.578 79.4795 128.714 79.0643 128.962 78.7166C129.21 78.3689 129.558 78.1052 129.96 77.9608Z" fill="#FFB050" stroke="#AF7026"/>
  <path d="M137.336 80.1204C137.195 79.557 136.49 78.1764 134.8 77.1621" stroke="white" stroke-linecap="round" stroke-linejoin="round"/>
  <ellipse cx="7.89863" cy="3.80305" rx="7.89863" ry="3.80305" transform="matrix(-1 0 0 1 23.525 115.414)" fill="black" fill-opacity="0.2"/>
  <path d="M17.674 111.903C17.674 110.61 16.6262 109.562 15.3337 109.562C14.0412 109.562 12.9934 110.61 12.9934 111.903V117.169C12.9934 118.461 14.0412 119.509 15.3337 119.509C16.6262 119.509 17.674 118.461 17.674 117.169V111.903Z" fill="#4E3827" stroke="black" stroke-width="0.6"/>
  <path d="M30.5468 109.61L24.6263 95.5215H7.56131L1.00002 109.61C2.24769 110.308 3.58961 110.869 4.96227 111.319L7.45971 107.516V112.016L9.10142 109.61V112.359C13.112 113.102 16.8434 113.115 18.7058 113.046L19.4023 108.579L20.7954 112.359L21.1436 109.267L22.5367 112.016L22.8849 108.579L24.6263 111.672C26.2979 111.397 29.2698 110.183 30.5468 109.61Z" fill="#1D773A" stroke="black" stroke-width="0.6"/>
  <path d="M28.2069 99.6153L23.2337 87.6211H8.8991L3.63335 101.078C9.01612 102.482 15.6276 102.638 18.2604 102.541L18.8455 98.7377L20.0157 101.956L20.3082 99.3228L21.4784 101.663L21.771 98.7377L23.2337 101.371C24.6379 101.137 27.1342 100.103 28.2069 99.6153Z" fill="#3AA75D" stroke="black" stroke-width="0.6"/>
  <path d="M22.9411 76.7975L15.9201 59.8301L10.9469 72.4094L12.4096 71.2392L8.89908 77.0901L12.117 75.0423L7.43637 80.0155L10.9469 77.6751L5.97366 85.5738L8.89908 83.526L4.51095 90.547C5.91515 91.2491 7.04632 91.4246 8.02146 91.7172L9.77671 89.3768C9.38665 90.1569 8.89908 92.1072 9.77671 92.3022C11.883 92.7703 16.9927 92.4973 18.553 92.3022L19.1381 89.6694L20.6008 92.3022V89.6694L22.0635 92.0097L21.7709 89.0843L23.2336 91.7172C25.3399 91.2491 26.2566 91.0346 26.7441 90.547L24.4038 87.0365H26.1591L22.9411 84.1111L25.2814 84.9887L21.7709 80.308L25.2814 82.3558L20.0157 74.4572L22.9411 76.7975Z" fill="#66CC9A" stroke="black" stroke-width="0.6" stroke-linejoin="round"/>
  <ellipse cx="9.28682" cy="4.47143" rx="9.28682" ry="4.47143" transform="matrix(-1 0 0 1 33.8955 126.049)" fill="black" fill-opacity="0.2"/>
  <rect width="4.52057" height="11.5526" rx="2.26029" transform="matrix(-1 0 0 1 27.2115 118.775)" fill="#4E3827" stroke="black" stroke-width="0.6"/>
  <path d="M27.2116 124.299C27.2116 124.299 26.2071 125.303 24.9514 125.806C23.6956 126.308 22.6911 126.308 22.6911 126.308V128.317C22.6911 129.565 23.703 130.577 24.9514 130.577C26.1997 130.577 27.2116 129.565 27.2116 128.317V124.299Z" fill="#A6818B" stroke="black" stroke-width="0.6"/>
  <circle cx="15.822" cy="15.822" r="15.822" transform="matrix(-1 0 0 1 40.7748 91.6523)" fill="url(#paint3_radial_30236_9870)" stroke="black" stroke-width="0.6"/>
  <ellipse cx="8.93088" cy="4.30006" rx="8.93088" ry="4.30006" transform="matrix(-1 0 0 1 46.2192 141.002)" fill="black" fill-opacity="0.2"/>
  <path d="M39.6046 141.662C39.6046 140.2 38.4198 139.016 36.9584 139.016C35.4969 139.016 34.3122 140.2 34.3122 141.662V142.985C34.3122 144.446 35.4969 145.631 36.9584 145.631C38.4198 145.631 39.6046 144.446 39.6046 142.985V141.662Z" fill="#4E3827" stroke="black" stroke-width="0.6"/>
  <path d="M47.5183 136.788C46.1226 121.629 41.4192 109.289 38.3163 103.135C37.693 101.899 36.0983 101.823 35.4903 103.067C31.7097 110.8 28.048 129.125 26.7413 136.798C26.7139 136.959 26.703 137.114 26.7379 137.273C27.064 138.763 29.4413 141.332 36.9557 141.332C44.4792 141.332 47.0512 138.757 47.4873 137.268C47.5326 137.113 47.5331 136.949 47.5183 136.788Z" stroke="black" stroke-width="0.6"/>
  <path d="M36.9558 141.333C44.8943 141.333 47.32 138.466 47.5405 137.033C47.4098 135.573 47.2482 134.138 47.0601 132.733C45.3873 134.277 39.2839 135.644 28.2524 128.764C27.5841 132.055 27.0512 134.963 26.7018 137.033C26.8121 138.466 29.0172 141.333 36.9558 141.333Z" fill="#1D773A" stroke="black" stroke-width="0.6"/>
  <path d="M28.9456 125.454C37.3547 132.334 44.2671 131.408 46.6721 130.085C46.3476 128.066 45.9714 126.115 45.5577 124.241C43.2764 125.527 36.9835 126.578 30.0625 120.492C29.6676 122.167 29.2937 123.835 28.9456 125.454Z" fill="#3AA75D" stroke="black" stroke-width="0.6"/>
  <path d="M28.9446 125.453C37.3537 132.333 44.2661 131.407 46.6711 130.084C46.811 130.954 46.9413 131.836 47.0609 132.73C45.3881 134.274 39.2847 135.641 28.2532 128.761C28.47 127.693 28.701 126.586 28.9446 125.453Z" fill="#3AA75D" stroke="black" stroke-width="0.6"/>
  <path d="M30.0628 120.493C35.9253 126.315 42.868 125.565 45.6065 124.463C45.41 123.563 45.2047 122.68 44.9922 121.816C42.3353 122.478 35.7913 122.478 30.8704 117.186C30.5929 118.282 30.3233 119.389 30.0628 120.493Z" fill="#3AA75D" stroke="black" stroke-width="0.6"/>
  <path d="M44.9925 121.816C42.9783 113.626 40.3178 107.1 38.3202 103.138C37.697 101.902 36.0978 101.828 35.4901 103.072C33.8697 106.389 32.2711 111.651 30.8706 117.185C36.0562 122.742 42.4459 122.588 44.9925 121.816Z" fill="#66CC9A" stroke="black" stroke-width="0.6"/>
  <defs>
    <filter id="filter0_i_30236_9870" x="66.4576" y="64.4375" width="28.9723" height="23.2949" filterUnits="userSpaceOnUse" color-interpolation-filters="sRGB">
      <feFlood flood-opacity="0" result="BackgroundImageFix"/>
      <feBlend mode="normal" in="SourceGraphic" in2="BackgroundImageFix" result="shape"/>
      <feColorMatrix in="SourceAlpha" type="matrix" values="0 0 0 0 0 0 0 0 0 0 0 0 0 0 0 0 0 0 127 0" result="hardAlpha"/>
      <feOffset dx="3" dy="-3"/>
      <feComposite in2="hardAlpha" operator="arithmetic" k2="-1" k3="1"/>
      <feColorMatrix type="matrix" values="0 0 0 0 0 0 0 0 0 0 0 0 0 0 0 0 0 0 0.25 0"/>
      <feBlend mode="normal" in2="shape" result="effect1_innerShadow_30236_9870"/>
    </filter>
    <radialGradient id="paint0_radial_30236_9870" cx="0" cy="0" r="1" gradientUnits="userSpaceOnUse" gradientTransform="translate(13.6632 3.62393) rotate(90) scale(23.7569)">
      <stop stop-color="#66CC9A"/>
      <stop offset="1" stop-color="#349051"/>
    </radialGradient>
    <linearGradient id="paint1_linear_30236_9870" x1="80.7919" y1="76.8105" x2="79.8837" y2="84.9803" gradientUnits="userSpaceOnUse">
      <stop stop-color="#F9732A"/>
      <stop offset="1"/>
    </linearGradient>
    <linearGradient id="paint2_linear_30236_9870" x1="92.9366" y1="76.4349" x2="93.5341" y2="83.7938" gradientUnits="userSpaceOnUse">
      <stop stop-color="#F9732A"/>
      <stop offset="1" stop-color="#070707"/>
    </linearGradient>
    <radialGradient id="paint3_radial_30236_9870" cx="0" cy="0" r="1" gradientUnits="userSpaceOnUse" gradientTransform="translate(15.822 4.19651) rotate(90) scale(27.5104)">
      <stop stop-color="#66CC9A"/>
      <stop offset="1" stop-color="#349051"/>
    </radialGradient>
  </defs>
</svg>
