<svg width="197" height="83" viewBox="0 0 197 83" fill="none" xmlns="http://www.w3.org/2000/svg">
<g filter="url(#filter0_d_35289_1453)">
<path d="M11.8288 55.5877C11.9836 55.4855 14.6394 54.7435 19.7962 53.3618C23.5929 52.3445 25.5961 51.8305 25.8058 51.8198C26.3746 51.7889 26.8496 52.0033 27.2308 52.4629L27.394 52.647L31.1806 66.7784L31.1001 67.0733C30.9555 67.7802 30.5502 68.2228 29.8844 68.4012C29.6577 68.462 29.4428 68.4816 29.2397 68.4601C28.8372 68.4313 28.4727 68.2328 28.1463 67.8648L27.9122 67.5859C27.5791 66.3997 27.0957 64.6236 26.4617 62.2577C25.824 59.8777 25.3386 58.0946 25.0056 56.9083L24.7771 56.6507C24.2994 56.1713 23.7348 56.0189 23.0831 56.1936C22.8139 56.2657 22.5986 56.3689 22.4372 56.5033C22.0795 56.8117 21.883 57.1832 21.8476 57.6179C21.8223 57.8068 22.2652 59.6014 23.1763 63.0014C24.0797 66.3731 24.5438 68.162 24.5686 68.3679C24.6071 68.9649 24.4178 69.4484 24.0007 69.8183C23.878 69.9271 23.6467 70.0271 23.3066 70.1182C22.995 70.2017 22.7427 70.2237 22.55 70.1843C22.1323 70.0988 21.807 69.905 21.5743 69.603L21.4054 69.3977C21.0865 68.2077 20.603 66.4316 19.9549 64.0695C19.3068 61.7075 18.8253 59.9385 18.5102 58.7627L18.276 58.4838C17.8257 57.9363 17.2392 57.7594 16.5167 57.953C16.205 58.0365 15.9827 58.1417 15.8496 58.2684C15.5448 58.5475 15.3548 58.8869 15.2797 59.2866L15.2304 59.5276L16.6384 64.8671C17.5504 68.3276 18.0104 70.1859 18.0182 70.4419C18.0127 70.5345 17.976 70.681 17.9082 70.8814C17.7284 71.4003 17.3268 71.7432 16.7035 71.9103C15.9668 72.1076 15.3681 71.9416 14.9074 71.4122L14.6732 71.1333L10.9151 57.108L10.9743 56.8188C11.0823 56.2585 11.3671 55.8481 11.8288 55.5877ZM30.3643 50.6439C30.4559 50.589 32.8321 49.9371 37.493 48.6882L44.4575 46.7994L44.7409 46.8373C45.1047 46.8916 45.4148 47.0287 45.6711 47.2486C45.9453 47.4788 46.1318 47.778 46.2305 48.1464C46.4279 48.883 46.2354 49.4964 45.6531 49.9865L45.411 50.188C44.9435 50.3133 44.2371 50.5102 43.2917 50.7787C42.3463 51.0472 41.6398 51.2441 41.1723 51.3693L40.9727 51.5595C40.6641 51.8244 40.4755 52.1406 40.407 52.5082L40.338 52.8456L41.2961 56.5063L41.8313 58.5039C42.1274 59.6089 42.3266 60.2388 42.4288 60.3936C42.6474 60.6995 42.9141 60.9013 43.2288 60.9992C43.4831 61.0981 43.7202 61.1333 43.9403 61.1046C44.1708 61.0581 44.8617 60.8881 46.013 60.5948L48.1225 60.0524L48.4117 60.1115C48.733 60.1773 49.0147 60.322 49.2568 60.5456C49.4989 60.7692 49.6617 61.0369 49.7453 61.3485C49.7908 61.5185 49.8108 61.6498 49.8052 61.7424C49.8002 62.2904 49.6033 62.7455 49.2145 63.1078L49.0362 63.2923L34.7984 67.1073L34.5036 67.0269C34.136 66.9583 33.8037 66.7665 33.5066 66.4513C33.394 66.3144 33.2998 66.1043 33.2239 65.821C33.0341 65.1126 33.1987 64.5371 33.7178 64.0943L33.9697 63.8446C34.4335 63.7052 35.1187 63.514 36.0253 63.271C36.9462 63.0243 37.6314 62.8331 38.0809 62.6974L38.3075 62.5229C38.6199 62.2721 38.8117 61.9398 38.883 61.5259L38.9521 61.1886L36.9592 53.7509L36.7577 53.5088C36.4786 53.204 36.1552 53.0173 35.7877 52.9488L35.4985 52.8896L33.4315 53.4207C32.266 53.7178 31.5822 53.8859 31.3801 53.9248C31.1742 53.9496 30.9441 53.9126 30.6898 53.8137C30.1567 53.6377 29.8124 53.2592 29.6568 52.6784C29.6492 52.6501 29.6397 52.6146 29.6283 52.5721C29.6311 52.5258 29.6287 52.4885 29.6211 52.4602C29.4662 51.7121 29.7139 51.1067 30.3643 50.6439ZM49.201 45.6422C49.3068 45.5835 51.6618 44.9373 56.266 43.7036L63.2206 41.8629L63.5098 41.9221C63.9236 41.9934 64.2541 42.1782 64.501 42.4764L64.7507 42.7284L68.5372 56.8599L68.447 57.2029C68.2871 57.8531 67.8743 58.2674 67.2084 58.4458C66.5284 58.628 65.9562 58.4473 65.4916 57.9037L65.2632 57.646C64.9443 56.456 64.4608 54.68 63.8127 52.3179C63.1646 49.9558 62.683 48.1868 62.368 47.011L62.1664 46.7689C61.9413 46.4952 61.6179 46.3085 61.1964 46.2089L60.9498 46.1383L53.3846 48.1654L53.2063 48.3498C52.8873 48.6327 52.6973 48.9721 52.6364 49.368L52.5928 49.6302C52.9079 50.8061 53.3753 52.5789 53.995 54.9485C54.6148 57.3182 55.0841 59.098 55.403 60.2881L55.334 60.6254C55.2242 61.2926 54.8421 61.7366 54.1877 61.9575C53.9686 62.0466 53.7664 62.0855 53.5813 62.0744C53.1542 62.0674 52.7766 61.9332 52.4485 61.6719C52.3293 61.5672 52.2499 61.4974 52.2101 61.4625C52.1884 61.4379 52.1202 61.2968 52.0056 61.039C51.9089 60.7916 51.7998 60.4412 51.6784 59.9878C51.5531 59.5203 51.3614 58.8049 51.1033 57.8416L50.0954 54.0802L48.2775 47.2107L48.3253 46.879C48.4087 46.3404 48.7007 45.9281 49.201 45.6422ZM67.7148 40.7042C67.8451 40.6238 70.2123 39.9667 74.8166 38.733L79.2154 37.5543C80.9438 37.0912 81.8793 36.8709 82.022 36.8934C82.4387 36.9184 82.7974 37.0956 83.0982 37.425C83.2941 37.6458 83.43 37.8979 83.5059 38.1812C83.7033 38.9179 83.532 39.5256 82.9922 40.0043L82.7714 40.2001L80.6945 40.7794C79.2958 41.1694 78.5209 41.4225 78.3699 41.5389C78.0292 41.7973 77.8179 42.1424 77.7363 42.5742C77.6809 42.8775 77.8392 43.7234 78.2112 45.1117C78.5263 46.2876 78.8143 47.3341 79.0752 48.2511L79.7243 50.6736C80.1836 52.3878 80.4176 53.2893 80.4262 53.3781C80.4513 53.8118 80.3582 54.2011 80.147 54.5462C79.9358 54.8913 79.6106 55.1227 79.1714 55.2404C78.4631 55.4302 77.8657 55.241 77.3795 54.6728L77.2163 54.4888C76.887 53.3167 76.4054 51.5477 75.7715 49.1819C75.1376 46.816 74.6541 45.0399 74.3211 43.8537L74.1195 43.6116C73.8329 43.2785 73.4736 43.0711 73.0418 42.9894L72.7313 42.9359C72.2742 43.0432 71.5923 43.2183 70.6856 43.4613C69.7789 43.7042 69.097 43.8793 68.6399 43.9867L68.3507 43.9275C67.6401 43.7687 67.1898 43.3351 67 42.6267C66.9317 42.3717 66.9102 42.1497 66.9355 41.9608C66.9906 41.4297 67.2503 41.0109 67.7148 40.7042ZM86.298 35.7704C86.4 35.6976 88.7743 35.0386 93.4211 33.7935L95.9286 33.1216C98.337 32.4763 99.7433 32.1146 100.148 32.0367C100.548 31.9446 100.866 31.9428 101.103 32.0313C101.672 32.2281 102.04 32.6381 102.207 33.2615C102.34 33.7573 102.285 34.2047 102.043 34.6037C101.879 34.8448 101.747 35.0018 101.645 35.0747L101.403 35.2762L96.0378 36.7593L90.6884 38.2154L90.4888 38.4056C90.1774 38.7168 89.9818 39.0349 89.9019 39.36C89.8624 39.5528 89.8863 39.8121 89.9737 40.1379C90.0572 40.4496 90.1732 40.6842 90.3217 40.8418C90.597 41.1325 90.9255 41.3102 91.3073 41.3749L91.5964 41.4341C92.0677 41.323 92.7567 41.146 93.6634 40.903C94.5842 40.6563 95.2732 40.4793 95.7304 40.3719L96.0195 40.4311C96.4013 40.4959 96.7298 40.6735 97.0051 40.9642C97.1536 41.1218 97.2696 41.3564 97.3531 41.6681C97.4442 42.0081 97.4767 42.2424 97.4504 42.3709C97.3649 42.7886 97.1678 43.1299 96.8592 43.3948L96.6384 43.5906C96.1888 43.7263 95.5036 43.9174 94.5828 44.1642C93.6761 44.4071 92.998 44.5964 92.5484 44.7321L92.2695 44.9662C91.9713 45.2132 91.7742 45.5545 91.6784 45.9901C91.6389 46.1829 91.6591 46.428 91.7388 46.7255C91.8185 47.023 91.9326 47.2506 92.0811 47.4082C92.3564 47.6988 92.6849 47.8765 93.0667 47.9413L93.3559 48.0004L98.7379 46.5811C102.312 45.6387 104.161 45.1735 104.286 45.1857C104.874 45.2861 105.303 45.5813 105.571 46.0713C105.622 46.1487 105.672 46.2795 105.721 46.4636C105.907 47.1578 105.731 47.7442 105.191 48.2229L105.007 48.3861L97.9573 50.2978C94.4297 51.243 92.3594 51.7901 91.7465 51.9392C91.1373 52.1024 90.7613 52.1728 90.6187 52.1503C90.1802 52.1007 89.8106 51.9113 89.5098 51.5819L89.3139 51.3611L85.5103 37.1658L85.5695 36.8767C85.6719 36.4089 85.9148 36.0401 86.298 35.7704ZM116.983 31.1243C116.752 31.1104 116.034 31.2647 114.829 31.5874C113.569 31.9252 112.871 32.1273 112.737 32.1936C112.243 32.4474 111.951 32.8597 111.861 33.4304L111.814 33.7621L113.784 41.1147L113.98 41.3355C114.226 41.6338 114.545 41.8295 114.934 41.9225L115.256 42.0185L117.296 41.4719C117.522 41.4111 117.786 41.348 118.088 41.2824C118.385 41.2027 118.577 41.1515 118.662 41.1287C119.087 41.0148 119.396 40.894 119.589 40.7662C119.755 40.646 119.905 40.4692 120.039 40.2357C120.174 40.0022 120.252 39.7838 120.274 39.5807C120.299 39.3917 119.989 38.093 119.344 35.6846C118.71 33.3188 118.36 32.0688 118.293 31.9347C117.997 31.4523 117.56 31.1821 116.983 31.1243ZM105.063 30.583C105.154 30.5281 107.531 29.8762 112.191 28.6273L119.162 26.7597L119.478 26.8344C119.924 26.9123 120.281 27.1126 120.55 27.4354L120.751 27.6775L124.526 41.7665L124.473 42.0769C124.402 42.4908 124.192 42.843 123.845 43.1334L123.603 43.335L109.535 47.1044L109.204 47.0566C108.79 46.9853 108.441 46.7902 108.158 46.4712C108.024 46.3098 107.919 46.0874 107.843 45.8041C107.725 45.3649 107.773 44.9496 107.987 44.5582C108.201 44.1668 108.572 43.8778 109.099 43.691C109.82 43.437 110.243 42.9745 110.367 42.3035L110.436 41.9662L108.489 34.6985L108.308 34.4508C107.89 33.9099 107.259 33.7071 106.414 33.8422C105.659 33.9688 105.061 33.7796 104.622 33.2747C104.488 33.1133 104.379 32.8768 104.296 32.5651C104.212 32.2534 104.188 31.9941 104.224 31.7872C104.329 31.2731 104.609 30.8717 105.063 30.583ZM141.076 24.828L140.76 24.7533L137.062 25.7441C134.555 26.416 133.274 26.7666 133.221 26.7959C132.912 27.0004 132.694 27.2638 132.568 27.5861C132.513 27.7222 132.477 27.8153 132.46 27.8654C132.454 27.8975 132.448 27.9901 132.444 28.1432C132.453 28.2924 132.479 28.4752 132.522 28.6915C132.579 28.904 132.661 29.2086 132.767 29.6053C133.002 30.4836 133.222 31.2751 133.426 31.9796L134.437 35.5808L134.632 35.8016C134.905 36.1386 135.23 36.3323 135.608 36.3829L135.892 36.4208L143.308 34.4336L143.534 34.259C143.857 33.9903 144.051 33.6651 144.116 33.2833L144.159 33.0211L143.201 29.3604C142.545 26.9095 142.165 25.6066 142.063 25.4518C141.823 25.1214 141.493 24.9135 141.076 24.828ZM131.837 23.4999C132 23.426 133.42 23.0303 136.097 22.3129C138.789 21.5917 140.224 21.2224 140.401 21.2052C141.381 21.0642 142.312 21.2247 143.195 21.6865C144.074 22.1342 144.756 22.8094 145.241 23.712C145.388 23.9764 145.844 25.5394 146.611 28.4011L147.778 32.7575L147.759 33.1954C147.759 33.818 147.672 34.3727 147.499 34.8594C147.033 36.1231 146.205 37.0283 145.015 37.5748C144.881 37.6411 143.341 38.069 140.394 38.8586C137.458 39.6302 135.883 40.0143 135.669 40.0107C134.769 39.9939 133.945 39.7516 133.197 39.2839C132.449 38.8162 131.869 38.182 131.457 37.3813C131.332 37.1415 130.894 35.619 130.142 32.814C129.379 29.9664 128.997 28.4822 128.995 28.3613C128.903 27.5659 128.963 26.8818 129.174 26.309C129.639 24.9849 130.527 24.0485 131.837 23.4999ZM146.881 20.4028C146.936 20.0995 147.072 19.8126 147.288 19.5421C147.518 19.2679 147.796 19.0871 148.122 18.9998C148.901 18.791 149.529 18.9797 150.005 19.5658L150.168 19.7498C150.505 20.9502 150.994 22.7475 151.635 25.1417C152.277 27.536 152.766 29.3333 153.103 30.5336L153.299 30.7545C153.589 31.1018 153.934 31.313 154.334 31.3881L154.692 31.4515L162.003 29.4927L162.239 29.27C162.586 28.9795 162.796 28.6273 162.867 28.2134L162.92 27.903C162.616 26.7092 162.141 24.9081 161.495 22.4997C160.85 20.0913 160.375 18.2903 160.07 17.0964L160.13 16.8073C160.218 16.3433 160.441 15.9873 160.8 15.7394C160.941 15.6409 161.138 15.5576 161.393 15.4892C162.073 15.307 162.655 15.4929 163.137 16.0469L163.333 16.2678L167.091 30.293L167.038 30.6034C166.97 31.0315 166.768 31.3817 166.431 31.6542L166.173 31.8827L152.191 35.6294L151.832 35.566C151.436 35.5051 151.097 35.3151 150.814 34.9961L150.618 34.7753L146.831 20.6438L146.881 20.4028ZM166.309 14.286C166.439 14.2055 168.807 13.5484 173.411 12.3147L177.81 11.1361C179.538 10.673 180.474 10.4527 180.616 10.4752C181.033 10.5002 181.392 10.6774 181.692 11.0067C181.888 11.2276 182.024 11.4796 182.1 11.763C182.298 12.4997 182.126 13.1074 181.586 13.5861L181.366 13.7819L179.289 14.3611C177.89 14.7511 177.115 15.0043 176.964 15.1207C176.623 15.379 176.412 15.7241 176.33 16.156C176.275 16.4593 176.433 17.3051 176.805 18.6935C177.121 19.8694 177.409 20.9158 177.669 21.8329L178.319 24.2554C178.778 25.9696 179.012 26.8711 179.02 26.9599C179.046 27.3935 178.952 27.7829 178.741 28.128C178.53 28.473 178.205 28.7044 177.766 28.8221C177.057 29.0119 176.46 28.8227 175.974 28.2546L175.81 28.0705C175.481 26.8985 175 25.1295 174.366 22.7636C173.732 20.3978 173.248 18.6217 172.915 17.4355L172.714 17.1934C172.427 16.8602 172.068 16.6528 171.636 16.5711L171.326 16.5177C170.868 16.625 170.187 16.8001 169.28 17.043C168.373 17.286 167.691 17.4611 167.234 17.5684L166.945 17.5092C166.234 17.3504 165.784 16.9168 165.594 16.2085C165.526 15.9535 165.504 15.7315 165.53 15.5425C165.585 15.0115 165.845 14.5926 166.309 14.286Z" fill="#FF4346"/>
</g>
<defs>
<filter id="filter0_d_35289_1453" x="0.573242" y="-0.000976562" width="195.524" height="82.5156" filterUnits="userSpaceOnUse" color-interpolation-filters="sRGB">
<feFlood flood-opacity="0" result="BackgroundImageFix"/>
<feColorMatrix in="SourceAlpha" type="matrix" values="0 0 0 0 0 0 0 0 0 0 0 0 0 0 0 0 0 0 127 0" result="hardAlpha"/>
<feOffset/>
<feGaussianBlur stdDeviation="5"/>
<feComposite in2="hardAlpha" operator="out"/>
<feColorMatrix type="matrix" values="0 0 0 0 1 0 0 0 0 0.262745 0 0 0 0 0.27451 0 0 0 0.6 0"/>
<feBlend mode="normal" in2="BackgroundImageFix" result="effect1_dropShadow_35289_1453"/>
<feBlend mode="normal" in="SourceGraphic" in2="effect1_dropShadow_35289_1453" result="shape"/>
</filter>
</defs>
</svg>
