<svg width="253" height="119" viewBox="0 0 253 119" fill="none" xmlns="http://www.w3.org/2000/svg">
<g filter="url(#filter0_d_35300_1760)">
<path d="M86.4232 49.8046C86.578 49.7024 89.2338 48.9604 94.3906 47.5786C98.1873 46.5613 100.191 46.0473 100.4 46.0367C100.969 46.0057 101.444 46.2201 101.825 46.6798L101.988 46.8638L105.775 60.9953L105.695 61.2901C105.55 61.997 105.145 62.4396 104.479 62.6181C104.252 62.6788 104.037 62.6984 103.834 62.6769C103.432 62.6481 103.067 62.4497 102.741 62.0816L102.507 61.8027C102.174 60.6165 101.69 58.8404 101.056 56.4746C100.418 54.0945 99.933 52.3114 99.6 51.1252L99.3715 50.8675C98.8938 50.3882 98.3292 50.2358 97.6775 50.4104C97.4083 50.4825 97.193 50.5858 97.0316 50.7201C96.6739 51.0285 96.4774 51.4001 96.442 51.8347C96.4167 52.0237 96.8596 53.8182 97.7707 57.2183C98.6741 60.59 99.1382 62.3788 99.163 62.5847C99.2016 63.1818 99.0122 63.6653 98.5951 64.0352C98.4724 64.1439 98.2411 64.2439 97.901 64.335C97.5894 64.4185 97.3372 64.4405 97.1444 64.4011C96.7267 64.3156 96.4015 64.1219 96.1687 63.8198L95.9998 63.6145C95.6809 62.4245 95.1974 60.6485 94.5493 58.2864C93.9012 55.9243 93.4197 54.1553 93.1046 52.9795L92.8704 52.7006C92.4201 52.1532 91.8336 51.9763 91.1111 52.1698C90.7994 52.2534 90.5771 52.3585 90.444 52.4853C90.1392 52.7643 89.9492 53.1037 89.8741 53.5034L89.8248 53.7444L91.2328 59.084C92.1448 62.5445 92.6048 64.4028 92.6126 64.6588C92.6071 64.7514 92.5704 64.8978 92.5026 65.0982C92.3228 65.6171 91.9212 65.9601 91.2979 66.1271C90.5612 66.3245 89.9625 66.1585 89.5018 65.629L89.2676 65.3501L85.5095 51.3249L85.5687 51.0357C85.6767 50.4753 85.9615 50.0649 86.4232 49.8046ZM104.776 45.1147L105.055 44.8805L112.131 42.9844L119.214 41.1095L119.524 41.163C119.881 41.2495 120.201 41.4522 120.484 41.7712C120.618 41.9326 120.727 42.1692 120.811 42.4808C120.894 42.7925 120.918 43.0518 120.883 43.2588C120.797 43.6765 120.6 44.0177 120.292 44.2826L120.028 44.4899L117.915 45.1018L115.795 45.6924L115.538 45.9209C115.247 46.1962 115.069 46.5247 115.004 46.9064L114.945 47.1956L116.915 54.5482L117.117 54.7903C117.407 55.1377 117.758 55.3399 118.168 55.397L118.451 55.435C118.919 55.3097 119.629 55.127 120.582 54.8868C121.535 54.6466 122.245 54.4639 122.713 54.3387L122.996 54.3766C123.695 54.4929 124.142 54.9123 124.335 55.6348C124.51 56.2865 124.356 56.8441 123.873 57.3076L123.621 57.5573L118.866 58.854C117.128 59.3351 114.764 59.9761 111.774 60.7771L109.458 61.3977L109.148 61.3443C108.452 61.2421 108.008 60.8298 107.814 60.1073C107.62 59.3847 107.799 58.8054 108.351 58.3692L108.593 58.1677C109.046 58.0462 109.724 57.8569 110.627 57.5998C111.544 57.3389 112.229 57.1477 112.683 57.0262L112.956 56.7708C113.299 56.4662 113.498 56.1017 113.551 55.6775L113.589 55.394L111.642 48.1264L111.413 47.8687C111.148 47.5601 110.814 47.3612 110.411 47.2719L110.1 47.2184L108.033 47.7495L105.982 48.2536L105.677 48.2214C105.249 48.1539 104.899 47.9516 104.626 47.6147C104.478 47.4571 104.36 47.2154 104.272 46.8895C104.189 46.5779 104.167 46.3256 104.206 46.1329C104.292 45.7152 104.482 45.3758 104.776 45.1147ZM123.777 39.9552C123.882 39.8965 126.188 39.2635 130.693 38.0564C135.212 36.8455 137.525 36.2409 137.632 36.2427C137.898 36.2168 138.162 36.2675 138.424 36.3948C138.697 36.504 138.922 36.6639 139.099 36.8744L139.263 37.0584L143.026 51.1049L142.963 51.4635C142.829 52.1524 142.422 52.588 141.742 52.7702C141.062 52.9524 140.491 52.7787 140.03 52.2493L139.796 51.9704C139.477 50.7804 138.996 49.0114 138.352 46.6635C137.703 44.3014 137.222 42.5324 136.907 41.3566L136.657 41.1046C136.392 40.796 136.06 40.6042 135.66 40.5291L135.377 40.4911L127.982 42.4727L127.761 42.6685C127.477 42.9116 127.283 43.2369 127.179 43.6442L127.13 43.8851L128.532 49.2034C129.471 52.7631 129.93 54.5912 129.911 54.6876C129.867 55.4888 129.455 56.0169 128.673 56.272L128.524 56.3118C127.844 56.4941 127.274 56.3204 126.813 55.791L126.579 55.5121L122.832 41.5293L122.88 41.1977C122.974 40.6411 123.273 40.2269 123.777 39.9552ZM142.282 35.065C142.374 35.0101 144.75 34.3582 149.411 33.1093L156.36 31.2474L156.649 31.3065C157.031 31.3713 157.359 31.549 157.634 31.8396C157.783 31.9972 157.905 32.2531 158 32.6073C158.094 32.9614 158.127 33.2259 158.098 33.4007C158.037 33.7967 157.833 34.1399 157.486 34.4303L157.223 34.6375L155.109 35.2495L153.011 35.8344L152.811 36.0245C152.517 36.2857 152.334 36.6232 152.263 37.037L152.194 37.3744C152.509 38.5503 152.978 40.3301 153.602 42.7139C154.221 45.0836 154.691 46.8635 155.009 48.0535L154.95 48.3426C154.812 49.0174 154.396 49.4477 153.702 49.6337C152.979 49.8273 152.393 49.6504 151.943 49.103L151.741 48.8609C151.412 47.6889 150.93 45.9199 150.296 43.554C149.662 41.1881 149.179 39.4121 148.846 38.2259L148.617 37.9682C148.352 37.6596 148.02 37.4677 147.62 37.3926C147.428 37.3532 146.673 37.51 145.355 37.863C144.037 38.216 143.268 38.3766 143.047 38.3448C142.241 38.2267 141.736 37.7851 141.531 37.0201C141.307 36.1843 141.557 35.5326 142.282 35.065ZM17.3877 91.1242C17.5038 91.0476 19.8852 90.3867 24.532 89.1416L31.4865 87.3009L31.8451 87.3642C32.5199 87.5023 32.9464 87.9043 33.1248 88.5701L33.1647 88.7189C33.3044 89.4103 33.143 89.9698 32.6806 90.3973L32.4655 90.6144C31.2651 90.9513 29.4678 91.4404 27.0736 92.082C24.6794 92.7235 22.8892 93.2108 21.7029 93.5438L21.4551 93.7241C21.2022 93.9133 21.0074 94.1781 20.8708 94.5184C20.7446 94.8407 20.727 95.1718 20.8182 95.5118C20.8713 95.7102 20.9887 95.9217 21.1704 96.1463C21.4353 96.4549 21.7695 96.6539 22.173 96.7431L22.4622 96.8023C23.6702 96.4938 25.4712 96.0188 27.8655 95.3773C30.2597 94.7358 32.0608 94.2608 33.2687 93.9523L33.5579 94.0114C33.9756 94.0969 34.3131 94.2798 34.5704 94.5601L34.7932 94.7965L35.7783 98.4728C36.4388 100.938 36.7635 102.263 36.7523 102.448C36.7273 102.865 36.536 103.227 36.1783 103.536L35.8994 103.77L28.9775 105.647C24.3449 106.889 21.9521 107.507 21.799 107.503C21.0838 107.497 20.5784 107.169 20.2829 106.519C20.2535 106.467 20.2218 106.376 20.1876 106.249C20.0016 105.555 20.1875 104.973 20.7453 104.505L21.0086 104.298C22.1807 103.969 23.9497 103.487 26.3155 102.853C28.6814 102.219 30.4575 101.736 31.6437 101.403L31.8645 101.207C32.4261 100.753 32.612 100.171 32.4222 99.4631C32.2134 98.684 31.6815 98.2571 30.8264 98.1825C30.7621 98.1694 28.936 98.6359 25.348 99.5821L20.0084 100.99L19.7887 100.935C19.3672 100.835 19.0349 100.644 18.7918 100.359L18.525 100.044L16.5548 92.6912L16.5871 92.3864C16.6525 91.8375 16.9194 91.4167 17.3877 91.1242ZM35.2174 87.3717C35.3441 86.6544 35.7687 86.199 36.4912 86.0054C36.7037 85.9485 36.9489 85.9284 37.2267 85.945C37.7294 86.0077 38.1137 86.2236 38.3796 86.5927L38.5599 86.8405C38.8929 88.0267 39.3802 89.8169 40.0217 92.2111C40.6594 94.5912 41.1448 96.3743 41.4778 97.5605L41.6737 97.7814C41.9206 98.0796 42.2388 98.2753 42.6281 98.3684L42.9173 98.4275L46.5936 97.4425C49.0586 96.782 50.3686 96.4006 50.5234 96.2984C50.8783 96.0362 51.1037 95.6874 51.1995 95.2517L51.253 94.9413C50.9445 93.7333 50.4695 91.9322 49.828 89.538C49.1865 87.1438 48.7133 85.3498 48.4086 84.156L48.4564 83.8243C48.5014 83.5389 48.639 83.2591 48.8692 82.9849C49.0994 82.7106 49.3774 82.5298 49.7033 82.4425C49.9299 82.3818 50.1557 82.3744 50.3806 82.4204C50.8229 82.4841 51.1892 82.6897 51.4797 83.037L51.6429 83.221L55.4294 97.3525L55.3547 97.6686C55.2626 98.1185 55.0443 98.4654 54.6998 98.7096C54.5874 98.8004 54.2267 98.9275 53.6175 99.0907C53.0121 99.2681 50.974 99.8218 47.5031 100.752C44.0464 101.678 42.0044 102.218 41.3773 102.37C40.7681 102.534 40.3922 102.604 40.2495 102.582C39.847 102.553 39.4826 102.354 39.1562 101.986L38.9277 101.729L35.1697 87.7033L35.2174 87.3717ZM54.7577 81.2476C54.8918 81.1813 57.261 80.5313 61.8652 79.2976L68.7928 77.4414L69.1302 77.5104C69.562 77.5921 69.9085 77.7801 70.1696 78.0746C70.304 78.236 70.4167 78.4867 70.5078 78.8267C70.6027 79.1809 70.6318 79.4312 70.5952 79.5777C70.4889 80.0313 70.299 80.3707 70.0253 80.5959L69.7832 80.7974L64.455 82.2478C60.8888 83.2186 59.0617 83.7385 58.974 83.8076C58.552 84.1029 58.3002 84.4664 58.2185 84.8983C58.1659 85.1553 58.2915 85.8505 58.5951 86.9839L59.1702 89.1302C59.7234 91.1381 60.0432 92.2747 60.1295 92.5401C60.2261 92.7875 60.3898 93.0017 60.6206 93.1829C60.891 93.3989 61.2256 93.5142 61.6243 93.5289C61.7736 93.5192 63.5412 93.0608 66.9271 92.1536C70.3271 91.2425 72.1178 90.7855 72.2992 90.7824C72.6903 90.7687 73.0495 90.8623 73.3766 91.0631C73.7037 91.264 73.9256 91.5538 74.0423 91.9325L74.0707 92.0387C74.1732 92.4212 74.1562 92.7826 74.0196 93.1229C73.8972 93.4594 73.6722 93.7247 73.3446 93.9187C73.1614 94.0285 70.7536 94.7041 66.121 95.9454L59.1664 97.7861L58.856 97.7326C58.4241 97.6509 58.0649 97.4435 57.7782 97.1103L57.5767 96.8683L53.8073 82.8005L53.8664 82.5113C53.9734 81.8905 54.2705 81.4693 54.7577 81.2476ZM73.4763 76.232C73.6104 76.1657 75.9795 75.5157 80.5838 74.282L87.5114 72.4257L87.8488 72.4948C88.2806 72.5764 88.6271 72.7645 88.8882 73.059C89.0226 73.2203 89.1353 73.471 89.2264 73.8111C89.3213 74.1652 89.3504 74.4156 89.3137 74.562C89.2075 75.0157 89.0176 75.355 88.7439 75.5802L88.5018 75.7818L83.1736 77.2322C79.6074 78.203 77.7803 78.7229 77.6925 78.792C77.2706 79.0872 77.0188 79.4508 76.9371 79.8826C76.8845 80.1397 77.01 80.8349 77.3137 81.9682L77.8888 84.1145C78.442 86.1224 78.7618 87.2591 78.8481 87.5244C78.9447 87.7719 79.1084 87.9861 79.3392 88.1672C79.6096 88.3833 79.9442 88.4986 80.3429 88.5132C80.4922 88.5036 82.2597 88.0452 85.6456 87.1379C89.0457 86.2269 90.8364 85.7698 91.0178 85.7668C91.4089 85.7531 91.7681 85.8467 92.0952 86.0475C92.4223 86.2484 92.6442 86.5381 92.7609 86.9168L92.7893 87.0231C92.8918 87.4056 92.8748 87.767 92.7382 88.1073C92.6158 88.4438 92.3908 88.709 92.0632 88.9031C91.88 89.0129 89.4722 89.6885 84.8396 90.9298L77.885 92.7705L77.5746 92.717C77.1427 92.6353 76.7835 92.4279 76.4968 92.0947L76.2953 91.8526L72.5258 77.7849L72.585 77.4957C72.692 76.8749 72.9891 76.4536 73.4763 76.232ZM92.5178 71.0615C92.8219 70.9496 95.1344 70.3148 99.4553 69.157L101.602 68.5819C104.024 67.9328 105.438 67.5693 105.842 67.4913C106.26 67.4096 106.604 67.4163 106.872 67.5114C107.441 67.7081 107.807 68.1111 107.97 68.7203C108.043 68.9895 108.049 69.2686 107.99 69.5578C107.915 69.9575 107.723 70.2898 107.414 70.5547L107.209 70.7236C106.023 71.0567 104.233 71.5439 101.838 72.1855C99.4583 72.8232 97.6751 73.3086 96.4889 73.6416L96.2468 73.8431C95.6787 74.3294 95.4895 74.9267 95.6793 75.6351C95.8615 76.3151 96.306 76.7274 97.0129 76.8721C97.2198 76.9077 97.8404 76.787 98.8746 76.5099L99.7458 76.2764C100.794 75.9955 101.443 75.8672 101.693 75.8915C102.431 75.9822 102.9 76.403 103.101 77.1539C103.189 77.4797 103.185 77.8071 103.091 78.136C103.011 78.4611 102.832 78.7291 102.555 78.9401L102.334 79.136C101.87 79.2754 101.171 79.4704 100.236 79.7209C99.3152 79.9677 98.63 80.1589 98.1804 80.2945L97.9228 80.523C97.4293 81.0044 97.2679 81.5639 97.4387 82.2014C97.6209 82.8815 98.0655 83.2938 98.7723 83.4384L99.0346 83.4821C100.228 83.1774 102.015 82.7061 104.395 82.0684C106.79 81.4269 108.584 80.9538 109.777 80.6491L110.136 80.7124C110.835 80.8287 111.282 81.2481 111.475 81.9707C111.669 82.6932 111.485 83.2815 110.923 83.7357L110.702 83.9315L96.5922 87.7123L96.2818 87.6588C95.8499 87.5772 95.4907 87.3697 95.204 87.0366L95.0025 86.7945L91.2444 72.7693L91.3135 72.4319C91.4657 71.7534 91.8672 71.2966 92.5178 71.0615ZM110.898 66.2277C111.067 66.1216 113.397 65.467 117.888 64.2636C121.557 63.2805 123.672 62.729 124.232 62.6093C124.788 62.4754 125.208 62.4541 125.49 62.5454C125.723 62.6198 125.946 62.7726 126.16 63.0038C126.388 63.2312 126.543 63.5008 126.627 63.8124C126.699 64.0816 126.707 64.3376 126.65 64.5805C126.595 64.8838 126.475 65.1438 126.29 65.3604C126.126 65.541 125.927 65.6778 125.694 65.7706C125.361 65.8901 123.603 66.3839 120.42 67.2522L115.049 68.714L114.828 68.9099C114.593 69.1095 114.42 69.3686 114.307 69.6871C114.206 69.9876 114.199 70.3008 114.286 70.6267C114.331 70.7967 114.382 70.9275 114.437 71.019C114.638 71.375 114.918 71.6264 115.276 71.7734C115.531 71.8723 115.747 71.9131 115.924 71.8959C116.276 71.8473 117.528 71.5345 119.681 70.9575L121.36 70.5077L126.673 69.0842L127.01 69.1532C127.424 69.2245 127.77 69.4126 128.05 69.7174L128.23 69.9652C128.446 70.7727 128.78 71.9891 129.23 73.6145C129.681 75.2399 130.015 76.4564 130.231 77.2639L130.199 77.5686C130.177 77.7718 130.099 77.9901 129.964 78.2236C129.83 78.4572 129.68 78.634 129.514 78.7542L129.267 78.9345L122.339 80.7907C117.749 82.0206 115.379 82.6404 115.23 82.65C114.896 82.6485 114.568 82.5313 114.247 82.2983C113.941 82.0616 113.737 81.7519 113.634 81.3694C113.57 81.1286 113.55 80.9137 113.575 80.7247C113.631 80.2541 113.856 79.875 114.25 79.5873L114.492 79.3858C115.678 79.0528 117.454 78.5693 119.82 77.9354C122.186 77.3014 123.955 76.8198 125.127 76.4906L125.369 76.2891C125.866 75.8218 126.026 75.2552 125.847 74.5893C125.665 73.9093 125.239 73.5074 124.568 73.3835L124.23 73.3144C123.051 73.6153 121.278 74.0827 118.912 74.7167C116.546 75.3506 114.766 75.8199 113.573 76.1246L113.262 76.0712C112.67 75.9566 112.239 75.6241 111.97 75.0736C111.904 74.9395 111.552 73.6825 110.914 71.3024L109.996 67.7904L110.034 67.507C110.089 66.9759 110.377 66.5495 110.898 66.2277ZM129.554 61.2287C129.723 61.1227 132.053 60.468 136.544 59.2647C140.213 58.2815 142.328 57.7301 142.888 57.6104C143.444 57.4765 143.864 57.4552 144.146 57.5465C144.379 57.6209 144.602 57.7736 144.816 58.0049C145.044 58.2323 145.2 58.5018 145.283 58.8135C145.355 59.0827 145.363 59.3387 145.307 59.5815C145.251 59.8849 145.131 60.1448 144.946 60.3614C144.782 60.5421 144.583 60.6788 144.35 60.7717C144.018 60.8911 142.26 61.385 139.076 62.2532L133.705 63.7151L133.484 63.9109C133.249 64.1105 133.076 64.3696 132.964 64.6881C132.862 64.9887 132.855 65.3019 132.942 65.6277C132.988 65.7977 133.038 65.9285 133.093 66.0201C133.295 66.376 133.575 66.6275 133.933 66.7744C134.187 66.8733 134.403 66.9142 134.581 66.8969C134.932 66.8483 136.184 66.5355 138.338 65.9585L140.016 65.5087L145.329 64.0852L145.666 64.1542C146.08 64.2256 146.427 64.4136 146.706 64.7184L146.886 64.9662C147.103 65.7737 147.436 66.9902 147.887 68.6156C148.337 70.241 148.671 71.4575 148.887 72.265L148.855 72.5697C148.834 72.7728 148.756 72.9912 148.621 73.2247C148.486 73.4582 148.336 73.6351 148.171 73.7552L147.923 73.9355L140.995 75.7918C136.405 77.0217 134.036 77.6414 133.886 77.6511C133.552 77.6496 133.224 77.5324 132.904 77.2994C132.597 77.0626 132.393 76.753 132.29 76.3705C132.226 76.1296 132.206 75.9147 132.232 75.7257C132.288 75.2552 132.513 74.8761 132.906 74.5884L133.148 74.3869C134.335 74.0538 136.111 73.5703 138.476 72.9364C140.842 72.3025 142.611 71.8209 143.783 71.4916L144.025 71.2901C144.523 70.8228 144.682 70.2562 144.504 69.5904C144.322 68.9104 143.895 68.5084 143.224 68.3845L142.887 68.3155C141.707 68.6164 139.934 69.0838 137.568 69.7177C135.203 70.3517 133.423 70.821 132.229 71.1257L131.918 71.0722C131.326 70.9577 130.895 70.6251 130.626 70.0747C130.56 69.9406 130.208 68.6835 129.57 66.3035L128.652 62.7915L128.69 62.508C128.745 61.977 129.033 61.5505 129.554 61.2287ZM148.087 56.1945C148.15 56.1472 148.82 55.9527 150.095 55.611L155.258 54.2274L162.229 52.3598L162.523 52.4402C162.991 52.5426 163.345 52.759 163.586 53.0894C163.706 53.2546 163.802 53.4718 163.874 53.7409C163.927 53.9393 163.952 54.1452 163.949 54.3587C163.907 54.8255 163.695 55.2239 163.312 55.5541L163.091 55.75C161.905 56.083 160.122 56.5684 157.742 57.2061C155.362 57.8438 153.579 58.3292 152.393 58.6622L152.172 58.8581C151.621 59.2943 151.442 59.8736 151.635 60.5961C151.825 61.3045 152.272 61.7239 152.975 61.8544L153.264 61.9135L155.288 61.3939C156.624 61.0512 157.379 60.8944 157.554 60.9235C158.321 61.0671 158.798 61.486 158.984 62.1802C159.155 62.8177 158.986 63.3791 158.478 63.8644L158.221 64.0929L156.235 64.6706C154.896 65.0595 154.194 65.2706 154.127 65.3037C153.648 65.6142 153.38 66.0581 153.322 66.6354C153.31 66.7601 153.477 67.4973 153.823 68.847L154.328 70.8984L154.264 71.257C154.189 71.6567 153.997 71.989 153.689 72.254C153.552 72.3665 153.327 72.4646 153.016 72.5481C152.704 72.6316 152.452 72.6537 152.259 72.6142C151.677 72.4817 151.266 72.1364 151.025 71.5783C150.959 71.4443 150.312 69.0893 149.086 64.5133L147.297 57.75L147.335 57.4666C147.39 56.9355 147.641 56.5115 148.087 56.1945ZM165.916 52.3512C166.042 51.634 166.467 51.1786 167.189 50.985C167.402 50.9281 167.647 50.9079 167.925 50.9246C168.427 50.9873 168.812 51.2032 169.078 51.5723L169.258 51.82C169.591 53.0063 170.078 54.7965 170.72 57.1907C171.357 59.5707 171.843 61.3539 172.176 62.5401L172.372 62.7609C172.619 63.0592 172.937 63.2548 173.326 63.3479L173.615 63.4071L177.292 62.422C179.757 61.7615 181.067 61.3801 181.221 61.2779C181.576 61.0158 181.802 60.6669 181.898 60.2313L181.951 59.9208C181.643 58.7129 181.168 56.9118 180.526 54.5176C179.885 52.1234 179.411 50.3293 179.107 49.1355L179.154 48.8039C179.199 48.5185 179.337 48.2387 179.567 47.9644C179.797 47.6902 180.076 47.5094 180.401 47.4221C180.628 47.3613 180.854 47.354 181.079 47.4C181.521 47.4637 181.887 47.6692 182.178 48.0166L182.341 48.2006L186.127 62.3321L186.053 62.6482C185.961 63.098 185.742 63.445 185.398 63.6892C185.286 63.78 184.925 63.907 184.316 64.0703C183.71 64.2476 181.672 64.8014 178.201 65.7314C174.744 66.6576 172.703 67.1972 172.075 67.35C171.466 67.5132 171.09 67.5836 170.948 67.5611C170.545 67.5323 170.181 67.3339 169.854 66.9658L169.626 66.7081L165.868 52.6829L165.916 52.3512ZM185.267 46.1183C185.33 46.071 185.532 46.0017 185.872 45.9106C186.188 45.8413 186.435 45.8282 186.613 45.8715C187.067 45.9777 187.448 46.2399 187.758 46.658C187.823 46.7317 188.345 48.5658 189.323 52.1604L190.785 57.531L190.981 57.7519C191.238 58.0321 191.576 58.215 191.993 58.3005L192.283 58.3597C193.476 58.055 195.256 57.5857 197.622 56.9517C200.002 56.314 201.789 55.8428 202.983 55.5381L203.326 55.6284C204.033 55.773 204.477 56.1853 204.66 56.8654C204.864 57.6304 204.635 58.2462 203.97 58.7127C203.844 58.8074 201.45 59.4791 196.789 60.728L189.819 62.5956L189.46 62.5323C189.079 62.4676 188.737 62.2705 188.436 61.9412L188.241 61.7203L184.443 47.5463L184.486 47.2841C184.599 46.7983 184.859 46.4097 185.267 46.1183ZM203.924 41.1193C203.987 41.072 204.188 41.0028 204.528 40.9117C204.844 40.8423 205.091 40.8293 205.269 40.8725C205.723 40.9788 206.105 41.2409 206.414 41.6591C206.479 41.7327 207.001 43.5668 207.98 47.1614L209.441 52.5321L209.637 52.7529C209.895 53.0332 210.232 53.2161 210.65 53.3016L210.939 53.3607C212.133 53.056 213.913 52.5867 216.278 51.9528C218.658 51.315 220.445 50.8438 221.639 50.5391L221.982 50.6294C222.689 50.7741 223.134 51.1864 223.316 51.8664C223.521 52.6314 223.291 53.2472 222.626 53.7138C222.5 53.8084 220.106 54.4802 215.445 55.7291L208.475 57.5967L208.117 57.5333C207.735 57.4686 207.394 57.2716 207.093 56.9422L206.897 56.7214L203.099 42.5474L203.143 42.2851C203.255 41.7994 203.516 41.4108 203.924 41.1193ZM221.973 36.2373C222.079 36.1786 222.465 36.06 223.131 35.8816L223.768 35.7108C224.066 35.6311 224.265 35.6082 224.365 35.6421C224.64 35.705 224.852 35.9292 225.001 36.3145C225.112 36.6185 225.397 37.5672 225.854 39.1605L226.542 41.6411L226.715 41.7769C226.866 41.8882 226.993 41.9377 227.096 41.9253C227.338 41.9212 228.344 41.6819 230.115 41.2074L231.539 40.8259L233.834 40.211C235.251 39.8313 236.004 39.5839 236.095 39.4685C236.116 39.4326 236.133 39.3825 236.146 39.3182L236.177 39.2643L236.243 39.0871L235.496 36.2126C234.986 34.2538 234.742 33.2564 234.762 33.2205C234.808 32.9956 234.937 32.8244 235.149 32.707C235.307 32.619 235.677 32.4971 236.258 32.3415C236.924 32.1631 237.33 32.0922 237.476 32.1289C237.659 32.1863 237.779 32.2376 237.836 32.2829C237.912 32.3385 238.363 33.8803 239.19 36.9083C239.547 38.2399 239.841 39.3379 240.072 40.2021L242.168 48.0222C242.097 48.2689 241.985 48.4735 241.831 48.6362C240.135 49.1059 237.58 49.7982 234.165 50.713C230.751 51.6279 228.196 52.3201 226.5 52.7898L226.28 52.7348C226.123 52.7161 225.988 52.6383 225.876 52.5015C225.771 52.3929 225.627 51.9987 225.445 51.3187C225.27 50.667 225.182 50.2807 225.18 50.1598C225.193 49.8678 225.325 49.6504 225.575 49.5074C225.652 49.4563 227.695 48.8936 231.705 47.8193C235.671 46.7564 237.697 46.1834 237.781 46.1001C237.816 46.0604 237.871 45.9545 237.946 45.7825C237.979 45.6218 237.963 45.4211 237.899 45.1803C237.887 45.1378 237.852 45.0334 237.792 44.8672C237.746 44.6972 237.707 44.5484 237.672 44.4209L237.365 43.2734L237.176 43.1645C237.033 43.0816 236.893 43.043 236.758 43.0488C236.435 43.0898 235.14 43.414 232.874 44.0214L230.727 44.5965L226.923 45.6157C225.422 46.0181 224.621 46.2023 224.521 46.1684C224.378 46.1459 224.203 46.0332 223.997 45.8304L222.814 41.501C222.025 38.5543 221.628 37.0436 221.623 36.969C221.621 36.848 221.652 36.7105 221.717 36.5565C221.796 36.3986 221.882 36.2922 221.973 36.2373Z" fill="#00FF11"/>
</g>
<defs>
<filter id="filter0_d_35300_1760" x="0.490723" y="0.664062" width="251.865" height="117.455" filterUnits="userSpaceOnUse" color-interpolation-filters="sRGB">
<feFlood flood-opacity="0" result="BackgroundImageFix"/>
<feColorMatrix in="SourceAlpha" type="matrix" values="0 0 0 0 0 0 0 0 0 0 0 0 0 0 0 0 0 0 127 0" result="hardAlpha"/>
<feOffset/>
<feGaussianBlur stdDeviation="5"/>
<feComposite in2="hardAlpha" operator="out"/>
<feColorMatrix type="matrix" values="0 0 0 0 0 0 0 0 0 1 0 0 0 0 0.0666667 0 0 0 0.6 0"/>
<feBlend mode="normal" in2="BackgroundImageFix" result="effect1_dropShadow_35300_1760"/>
<feBlend mode="normal" in="SourceGraphic" in2="effect1_dropShadow_35300_1760" result="shape"/>
</filter>
</defs>
</svg>
