<svg width="28" height="28" viewBox="0 0 28 28" fill="none" xmlns="http://www.w3.org/2000/svg">
  <g clip-path="url(#clip0_33317_10)">
    <g filter="url(#filter0_d_33317_10)">
      <path d="M-894 28.2166C-894 27.1558 -893.579 26.1384 -892.829 25.3883L-870.615 3.17174C-869.864 2.42149 -868.847 2 -867.786 2H-0.213928C0.84702 2 1.8645 2.42149 2.61466 3.17174L24.8286 25.3883C25.5786 26.1384 26 27.1558 26 28.2166V601.783C26 602.844 25.5786 603.862 24.8286 604.612L2.61466 626.828C1.8645 627.579 0.847009 628 -0.21394 628H-867.786C-868.847 628 -869.864 627.579 -870.615 626.828L-892.829 604.612C-893.579 603.862 -894 602.844 -894 601.783V28.2166Z" fill="#2B294A"/>
      <path d="M27 601.783V28.2166C27 26.8906 26.4733 25.6189 25.5358 24.6812L3.32178 2.46468C2.38409 1.52687 1.11224 1 -0.213928 1H-867.786C-869.112 1 -870.384 1.52687 -871.322 2.46468L-893.536 24.6812C-894.473 25.6189 -895 26.8906 -895 28.2166V601.783C-895 603.109 -894.473 604.381 -893.536 605.319L-871.322 627.535C-870.384 628.473 -869.112 629 -867.786 629H-0.213928C1.11224 629 2.38409 628.473 3.32178 627.535L25.5358 605.319C26.4733 604.381 27 603.109 27 601.783Z" stroke="url(#paint0_linear_33317_10)" stroke-width="2" stroke-linejoin="round"/>
    </g>
  </g>
  <defs>
    <filter id="filter0_d_33317_10" x="-906" y="-10" width="944" height="650" filterUnits="userSpaceOnUse" color-interpolation-filters="sRGB">
      <feFlood flood-opacity="0" result="BackgroundImageFix"/>
      <feColorMatrix in="SourceAlpha" type="matrix" values="0 0 0 0 0 0 0 0 0 0 0 0 0 0 0 0 0 0 127 0" result="hardAlpha"/>
      <feOffset/>
      <feGaussianBlur stdDeviation="5"/>
      <feComposite in2="hardAlpha" operator="out"/>
      <feColorMatrix type="matrix" values="0 0 0 0 0 0 0 0 0 0 0 0 0 0 0 0 0 0 0.05 0"/>
      <feBlend mode="normal" in2="BackgroundImageFix" result="effect1_dropShadow_33317_10"/>
      <feBlend mode="normal" in="SourceGraphic" in2="effect1_dropShadow_33317_10" result="shape"/>
    </filter>
    <linearGradient id="paint0_linear_33317_10" x1="-434" y1="2" x2="-434" y2="600" gradientUnits="userSpaceOnUse">
      <stop stop-color="#9892C0"/>
      <stop offset="1" stop-color="#47445A"/>
    </linearGradient>
    <clipPath id="clip0_33317_10">
      <rect width="28" height="28" fill="white"/>
    </clipPath>
  </defs>
</svg>
