<svg width="28" height="28" viewBox="0 0 28 28" fill="none" xmlns="http://www.w3.org/2000/svg">
  <g clip-path="url(#clip0_33317_3)">
    <g filter="url(#filter0_d_33317_3)">
      <path d="M2 28.2166C2 27.1558 2.42136 26.1384 3.17141 25.3883L25.3854 3.17174C26.1355 2.42149 27.153 2 28.214 2H895.786C896.847 2 897.864 2.42149 898.615 3.17174L920.829 25.3883C921.579 26.1384 922 27.1558 922 28.2166V601.783C922 602.844 921.579 603.862 920.829 604.612L898.615 626.828C897.864 627.579 896.847 628 895.786 628H28.2139C27.153 628 26.1355 627.579 25.3854 626.828L3.17141 604.612C2.42136 603.862 2 602.844 2 601.783V28.2166Z" fill="#2B294A"/>
      <path d="M923 601.783V28.2166C923 26.8906 922.473 25.6189 921.536 24.6812L899.322 2.46468C898.384 1.52687 897.112 1 895.786 1H28.214C26.8878 1 25.6159 1.52687 24.6782 2.46468L2.46426 24.6812C1.5267 25.6189 1 26.8906 1 28.2166V601.783C1 603.109 1.5267 604.381 2.46426 605.319L24.6782 627.535C25.6159 628.473 26.8878 629 28.2139 629H895.786C897.112 629 898.384 628.473 899.322 627.535L921.536 605.319C922.473 604.381 923 603.109 923 601.783Z" stroke="url(#paint0_linear_33317_3)" stroke-width="2" stroke-linejoin="round"/>
    </g>
  </g>
  <defs>
    <filter id="filter0_d_33317_3" x="-10" y="-10" width="944" height="650" filterUnits="userSpaceOnUse" color-interpolation-filters="sRGB">
      <feFlood flood-opacity="0" result="BackgroundImageFix"/>
      <feColorMatrix in="SourceAlpha" type="matrix" values="0 0 0 0 0 0 0 0 0 0 0 0 0 0 0 0 0 0 127 0" result="hardAlpha"/>
      <feOffset/>
      <feGaussianBlur stdDeviation="5"/>
      <feComposite in2="hardAlpha" operator="out"/>
      <feColorMatrix type="matrix" values="0 0 0 0 0 0 0 0 0 0 0 0 0 0 0 0 0 0 0.05 0"/>
      <feBlend mode="normal" in2="BackgroundImageFix" result="effect1_dropShadow_33317_3"/>
      <feBlend mode="normal" in="SourceGraphic" in2="effect1_dropShadow_33317_3" result="shape"/>
    </filter>
    <linearGradient id="paint0_linear_33317_3" x1="462" y1="2" x2="462" y2="600" gradientUnits="userSpaceOnUse">
      <stop stop-color="#9892C0"/>
      <stop offset="1" stop-color="#47445A"/>
    </linearGradient>
    <clipPath id="clip0_33317_3">
      <rect width="28" height="28" fill="white"/>
    </clipPath>
  </defs>
</svg>
