<svg width="1" height="28" viewBox="0 0 1 28" fill="none" xmlns="http://www.w3.org/2000/svg">
  <g clip-path="url(#clip0_33317_14)">
    <g filter="url(#filter0_d_33317_14)">
      <path d="M-205 -573.783C-205 -574.844 -204.579 -575.862 -203.829 -576.612L-181.615 -598.828C-180.864 -599.579 -179.847 -600 -178.786 -600H688.786C689.847 -600 690.864 -599.579 691.615 -598.828L713.829 -576.612C714.579 -575.862 715 -574.844 715 -573.783V-0.216601C715 0.844182 714.579 1.86154 713.829 2.61167L691.615 24.8283C690.864 25.5785 689.847 26 688.786 26H-178.786C-179.847 26 -180.864 25.5785 -181.615 24.8283L-203.829 2.61167C-204.579 1.86154 -205 0.844193 -205 -0.216591V-573.783Z" fill="#2B294A"/>
      <path d="M716 -0.216614V-573.783C716 -575.109 715.473 -576.381 714.536 -577.319L692.322 -599.535C691.384 -600.473 690.112 -601 688.786 -601H-178.786C-180.112 -601 -181.384 -600.473 -182.322 -599.535L-204.536 -577.319C-205.473 -576.381 -206 -575.109 -206 -573.783V-0.216614C-206 1.10938 -205.473 2.38104 -204.536 3.31873L-182.322 25.5353C-181.384 26.4731 -180.112 27 -178.786 27H688.786C690.112 27 691.384 26.4731 692.322 25.5353L714.536 3.31873C715.473 2.38104 716 1.10938 716 -0.216614Z" stroke="url(#paint0_linear_33317_14)" stroke-width="2" stroke-linejoin="round"/>
    </g>
  </g>
  <defs>
    <filter id="filter0_d_33317_14" x="-217" y="-612" width="944" height="650" filterUnits="userSpaceOnUse" color-interpolation-filters="sRGB">
      <feFlood flood-opacity="0" result="BackgroundImageFix"/>
      <feColorMatrix in="SourceAlpha" type="matrix" values="0 0 0 0 0 0 0 0 0 0 0 0 0 0 0 0 0 0 127 0" result="hardAlpha"/>
      <feOffset/>
      <feGaussianBlur stdDeviation="5"/>
      <feComposite in2="hardAlpha" operator="out"/>
      <feColorMatrix type="matrix" values="0 0 0 0 0 0 0 0 0 0 0 0 0 0 0 0 0 0 0.05 0"/>
      <feBlend mode="normal" in2="BackgroundImageFix" result="effect1_dropShadow_33317_14"/>
      <feBlend mode="normal" in="SourceGraphic" in2="effect1_dropShadow_33317_14" result="shape"/>
    </filter>
    <linearGradient id="paint0_linear_33317_14" x1="255" y1="-600" x2="255" y2="-2.00003" gradientUnits="userSpaceOnUse">
      <stop stop-color="#9892C0"/>
      <stop offset="1" stop-color="#47445A"/>
    </linearGradient>
    <clipPath id="clip0_33317_14">
      <rect width="1" height="28" fill="white"/>
    </clipPath>
  </defs>
</svg>
