<svg width="17" height="14" viewBox="0 0 17 14" fill="none" xmlns="http://www.w3.org/2000/svg">
  <path d="M6.76795 1C7.53775 -0.333332 9.46225 -0.333333 10.2321 1L15.8612 10.75C16.631 12.0833 15.6688 13.75 14.1292 13.75H2.87084C1.33123 13.75 0.368984 12.0833 1.13878 10.75L6.76795 1Z" fill="#FFBF49"/>
  <path d="M7.55 3.5H9.68L9.34 8.35H7.89L7.55 3.5ZM8.62 11.1C8.28 11.1 8.00333 11.0033 7.79 10.81C7.58333 10.6167 7.48 10.3633 7.48 10.05C7.48 9.73 7.58333 9.47333 7.79 9.28C8.00333 9.08667 8.28 8.99 8.62 8.99C8.96 8.99 9.23333 9.08667 9.44 9.28C9.64667 9.47333 9.75 9.73 9.75 10.05C9.75 10.3633 9.64667 10.6167 9.44 10.81C9.23333 11.0033 8.96 11.1 8.62 11.1Z" fill="black"/>
</svg>
