<svg width="21" height="20" viewBox="0 0 21 20" fill="none" xmlns="http://www.w3.org/2000/svg">
<path d="M10.4843 18.621C15.3413 18.621 19.2787 14.684 19.2787 9.82735C19.2787 4.97066 15.3413 1.0337 10.4843 1.0337C5.62742 1.0337 1.68995 4.97066 1.68995 9.82735C1.68995 14.684 5.62742 18.621 10.4843 18.621Z" fill="url(#paint0_linear_1287_5022)"/>
<path d="M10.4843 18.621C15.3413 18.621 19.2787 14.684 19.2787 9.82735C19.2787 4.97066 15.3413 1.0337 10.4843 1.0337C5.62742 1.0337 1.68995 4.97066 1.68995 9.82735C1.68995 14.684 5.62742 18.621 10.4843 18.621Z" fill="url(#paint1_linear_1287_5022)"/>
<path d="M10.4843 18.621C15.3413 18.621 19.2787 14.684 19.2787 9.82735C19.2787 4.97066 15.3413 1.0337 10.4843 1.0337C5.62742 1.0337 1.68995 4.97066 1.68995 9.82735C1.68995 14.684 5.62742 18.621 10.4843 18.621Z" stroke="#1B1715" stroke-width="2.02636"/>
<path d="M10.7696 11.9236H10.6948L8.86781 6.18669C8.78512 5.92287 8.60794 5.79688 8.33231 5.79688H7.42275C7.07625 5.79688 6.92269 6.00556 7.03687 6.33631L9.49781 13.4789C9.58837 13.7428 9.76162 13.8609 10.0372 13.8609H11.4232C11.6989 13.8609 11.8721 13.7428 11.9627 13.4789L14.4276 6.33631C14.5417 6.00556 14.3882 5.79688 14.0417 5.79688H13.1282C12.8526 5.79688 12.6754 5.92287 12.5927 6.18669L10.7696 11.9236Z" fill="white"/>
<defs>
<linearGradient id="paint0_linear_1287_5022" x1="10.4843" y1="2.04687" x2="10.4843" y2="17.6078" gradientUnits="userSpaceOnUse">
<stop stop-color="#E8BD4D"/>
<stop offset="1" stop-color="#755500"/>
</linearGradient>
<linearGradient id="paint1_linear_1287_5022" x1="10.4843" y1="2.04687" x2="10.4843" y2="17.6078" gradientUnits="userSpaceOnUse">
<stop stop-color="#FFCF53"/>
<stop offset="1" stop-color="#A77800"/>
</linearGradient>
</defs>
</svg>
