<svg width="349" height="156" viewBox="0 0 349 156" fill="none" xmlns="http://www.w3.org/2000/svg">
<path d="M104.218 56.4367C104.294 56.5881 104.44 56.6912 104.608 56.7107C104.776 56.7303 104.943 56.6637 105.051 56.5337L115.295 44.2092C115.347 44.1469 115.383 44.0731 115.4 43.9939L116.314 39.7126C116.327 39.6474 116.328 39.5801 116.316 39.5147L113.335 23.8697C113.296 23.6613 113.129 23.5006 112.919 23.4689L101.033 21.6692C100.865 21.6439 100.696 21.7052 100.583 21.8323L92.1164 31.4003C91.9814 31.5528 91.9525 31.7719 92.0431 31.9543L104.218 56.4367Z" fill="#FF009B" stroke="black" stroke-linejoin="round"/>
<path d="M101.266 33.5263L107.146 45.4812C107.252 45.6966 107.496 45.8063 107.728 45.7425L113.993 44.0154C114.243 43.9464 114.399 43.6975 114.352 43.4423L111.573 28.4327C111.512 28.1039 111.152 27.9264 110.854 28.0784L101.487 32.8603C101.244 32.9846 101.146 33.2811 101.266 33.5263Z" fill="#D55AAA"/>
<path d="M112.81 26.2127L115.327 39.0427C115.34 39.1055 115.34 39.1701 115.328 39.2329L114.935 41.2847C114.831 41.8278 114.053 41.8254 113.953 41.2818L111.471 27.8788C111.458 27.8098 111.46 27.7388 111.477 27.6706L111.833 26.1917C111.959 25.67 112.707 25.686 112.81 26.2127Z" fill="#AE2A5D"/>
<path d="M101.045 32.4942L100.969 23.4665C100.965 23.0083 100.398 22.7962 100.094 23.1394L93.0951 31.0488C92.8335 31.3444 93.0016 31.8124 93.3915 31.874L100.466 32.9922C100.772 33.0405 101.047 32.8031 101.045 32.4942Z" fill="#BD3789"/>
<path d="M101.043 32.2756L100.969 23.4477C100.966 23.076 101.355 22.831 101.689 22.9944L110.554 27.3343C110.924 27.5154 110.928 28.0413 110.561 28.2287L101.77 32.7167C101.439 32.8858 101.046 32.6473 101.043 32.2756Z" fill="#F37EC6"/>
<path d="M111.816 23.8959L104.581 22.9712C104.031 22.9009 103.793 23.6442 104.281 23.9073L110.88 27.4652C111.169 27.6208 111.527 27.4611 111.603 27.1423L112.238 24.5091C112.308 24.2196 112.111 23.9337 111.816 23.8959Z" fill="#C73F93"/>
<path d="M101.52 32.6066L109.8 28.3797C110.39 28.0782 111.105 28.4246 111.235 29.075L112.96 37.7339" stroke="url(#paint0_linear_30956_3017)" stroke-width="1.2" stroke-linecap="round" stroke-linejoin="round"/>
<path d="M107.679 53.8992C107.675 54.0287 107.721 54.1549 107.808 54.2511L108.179 53.9161C107.808 54.2511 107.808 54.2512 107.808 54.2514L107.808 54.2517L107.809 54.2527L107.812 54.2557L107.821 54.2657C107.829 54.274 107.84 54.2858 107.854 54.3009C107.882 54.3309 107.924 54.374 107.978 54.4288C108.086 54.5384 108.246 54.6947 108.457 54.8871C108.878 55.2716 109.503 55.8005 110.325 56.387C111.97 57.5596 114.411 58.9649 117.601 59.9042C120.822 60.8526 124.652 60.7743 127.643 60.4717C129.145 60.3198 130.449 60.1097 131.378 59.9375C131.843 59.8514 132.214 59.7746 132.47 59.7192C132.598 59.6915 132.698 59.6692 132.765 59.6536L132.843 59.6356L132.863 59.6307L132.869 59.6294L132.87 59.629L132.871 59.6289C132.871 59.6289 132.871 59.6289 132.753 59.1429L132.871 59.6289C133.027 59.591 133.155 59.4806 133.216 59.332L138.391 46.6623C138.447 46.5253 138.44 46.3706 138.371 46.2397L134.153 38.2556C134.088 38.1313 133.973 38.0403 133.837 38.0051L116.378 33.4824C116.223 33.4422 116.058 33.4788 115.934 33.5809L108.324 39.8641C108.213 39.9553 108.147 40.0895 108.142 40.2327L107.679 53.8992Z" fill="#FF009B" stroke="black" stroke-linejoin="round"/>
<path d="M122.676 46.1177L137.017 46.9229C137.794 46.9665 138.321 46.1453 137.957 45.4574L134.256 38.4507C134.125 38.2021 133.895 38.0203 133.623 37.9497L116.625 33.5464C116.315 33.466 115.985 33.5392 115.738 33.7433L108.985 39.3186C108.394 39.8061 108.548 40.7491 109.263 41.0234L122.374 46.0529C122.471 46.09 122.573 46.1119 122.676 46.1177Z" fill="#F896CB" stroke="black" stroke-linejoin="round"/>
<path d="M123.889 36.8338L122.715 44.9941C122.67 45.3117 122.341 45.5047 122.041 45.3897L109.442 40.5566C109.085 40.4194 109.008 39.9479 109.303 39.7042L116.043 34.1399C116.174 34.0318 116.351 33.9975 116.512 34.049L123.545 36.2862C123.778 36.3603 123.924 36.5919 123.889 36.8338Z" fill="#C53382"/>
<path d="M127.498 58.3861L119.338 57.1705C119.032 57.1248 118.84 56.8146 118.936 56.5204L122.597 45.3379C122.67 45.1149 122.888 44.9727 123.122 44.9959L137.264 46.4059C137.596 46.4391 137.803 46.783 137.677 47.0925L132.902 58.7806C132.816 58.993 132.595 59.1191 132.368 59.0865L127.498 58.3861Z" fill="#D5429C"/>
<path d="M108.564 53.931L118.281 56.9393C118.542 57.0201 118.819 56.8767 118.904 56.6172L122.565 45.4295C122.651 45.1682 122.51 44.8869 122.249 44.7998L109.278 40.4628C108.961 40.3567 108.631 40.5862 108.62 40.9207L108.212 53.4371C108.205 53.6622 108.349 53.8644 108.564 53.931Z" fill="#FF009B"/>
<path d="M136.622 46.2391L122.651 44.2301M122.651 44.2301L117.074 60.9123M122.651 44.2301L123.684 37.0469" stroke="url(#paint1_linear_30956_3017)" stroke-width="1.2" stroke-linecap="round" stroke-linejoin="round"/>
<path d="M344.977 125.078C346.546 125.677 347.533 126.297 348.051 126.897C348.305 127.19 348.436 127.466 348.481 127.725C348.526 127.982 348.493 128.257 348.362 128.562C348.092 129.192 347.414 129.918 346.252 130.716C345.103 131.505 343.536 132.326 341.574 133.169C333.715 136.545 319.784 140.157 301.908 143.47C266.174 150.093 214.826 155.5 165.151 155.5C115.479 155.5 69.6722 149.646 39.0008 142.726C23.6537 139.263 12.1377 135.542 5.82129 132.174C4.24492 131.333 3.00994 130.524 2.12473 129.757C1.23177 128.984 0.738572 128.292 0.568828 127.698C0.410537 127.144 0.517979 126.624 0.969578 126.097C1.44325 125.544 2.29725 124.988 3.61912 124.465C13.9553 120.375 23.6706 116.422 32.9122 112.662C83.105 92.2377 119.323 77.5 165.151 77.5C214.826 77.5 240.271 81.9493 263.026 90.1003C273.663 93.9109 283.719 98.5325 295.405 103.904C296.231 104.283 297.065 104.666 297.907 105.053C310.674 110.915 325.469 117.621 344.977 125.078Z" fill="#FFF5A9" stroke="black"/>
<ellipse cx="224.5" cy="100.5" rx="66.5" ry="9.5" fill="black" fill-opacity="0.2"/>
<path d="M269.149 77.158C267.949 79.158 267.649 90.658 267.649 96.158C270.449 96.9578 273.816 95.8247 275.149 95.1582C278.349 97.5582 281.816 99.4915 283.149 100.158C288.149 92.6582 298.149 80.658 286.149 77.158C274.149 73.658 270.649 74.658 269.149 77.158Z" fill="#7EA82B" stroke="black" stroke-linejoin="round"/>
<path d="M269.149 77.158C267.949 79.158 267.649 90.658 267.649 96.158C268.137 96.2972 268.641 96.3779 269.149 96.4126C269.149 90.4945 269.849 78.5582 272.649 78.1582C276.149 77.6582 285.649 79.6582 287.649 82.1582C289.249 84.1582 284.082 94.3249 281.298 99.1582C282.08 99.6033 282.724 99.9453 283.149 100.158C288.149 92.6582 298.149 80.658 286.149 77.158C274.149 73.658 270.649 74.658 269.149 77.158Z" fill="#AEFF0F" stroke="black" stroke-linejoin="round"/>
<path fill-rule="evenodd" clip-rule="evenodd" d="M277.149 83.1582C277.549 82.3582 283.816 59.4908 286.649 47.6575C284.316 47.1575 279.649 45.5575 279.649 43.1575C279.649 40.1575 279.649 35.6575 284.649 36.1575C289.649 36.6575 304.149 38.6575 303.149 43.1575C302.149 47.6575 299.649 51.6582 292.149 49.1582L280.649 84.1575L277.149 83.1582ZM284.649 39.6576C287.816 40.1576 294.649 41.3576 296.649 42.1576C299.149 43.1576 297.649 44.6576 296.649 45.1576C295.649 45.6576 285.149 43.6576 284.149 42.1576C283.149 40.6576 283.649 39.4962 284.649 39.6576Z" fill="#AEFF0F"/>
<path d="M286.649 47.6575L287.136 47.7739C287.167 47.6429 287.144 47.5049 287.072 47.3909C287.001 47.277 286.886 47.1968 286.754 47.1686L286.649 47.6575ZM277.149 83.1582L276.702 82.9346C276.636 83.0676 276.632 83.2234 276.692 83.3596C276.752 83.4957 276.869 83.5981 277.012 83.639L277.149 83.1582ZM284.649 36.1575L284.699 35.66L284.649 36.1575ZM292.149 49.1582L292.308 48.6839C292.181 48.6418 292.044 48.6517 291.925 48.7115C291.806 48.7712 291.716 48.8758 291.674 49.0021L292.149 49.1582ZM280.649 84.1575L280.512 84.6383C280.77 84.712 281.041 84.5686 281.124 84.3136L280.649 84.1575ZM296.649 42.1576L296.464 42.6218L296.649 42.1576ZM284.649 39.6576L284.57 40.1512L284.571 40.1515L284.649 39.6576ZM286.163 47.5411C284.748 53.4505 282.475 62.1201 280.504 69.415C279.519 73.0618 278.61 76.3632 277.923 78.8021C277.579 80.0219 277.291 81.0245 277.077 81.7462C276.97 82.1073 276.882 82.3959 276.815 82.6053C276.781 82.7103 276.754 82.7927 276.732 82.8532C276.708 82.922 276.699 82.941 276.702 82.9346L277.597 83.3818C277.643 83.2892 277.703 83.1094 277.767 82.91C277.837 82.6908 277.928 82.3945 278.036 82.0307C278.252 81.3025 278.541 80.2949 278.885 79.0734C279.574 76.63 280.484 73.3249 281.47 69.6757C283.441 62.3786 285.717 53.6978 287.136 47.7739L286.163 47.5411ZM279.149 43.1575C279.149 43.9305 279.527 44.5979 280.054 45.1485C280.58 45.6983 281.288 46.1686 282.043 46.5631C283.553 47.3527 285.349 47.8902 286.545 48.1464L286.754 47.1686C285.616 46.9248 283.913 46.4123 282.506 45.6769C281.802 45.3089 281.198 44.898 280.776 44.4571C280.355 44.0171 280.149 43.5845 280.149 43.1575H279.149ZM284.699 35.66C283.376 35.5277 282.328 35.7211 281.512 36.1834C280.694 36.6472 280.161 37.3521 279.816 38.1456C279.141 39.697 279.149 41.6854 279.149 43.1575H280.149C280.149 41.6296 280.157 39.868 280.733 38.5444C281.013 37.9004 281.418 37.3865 282.005 37.0534C282.596 36.7189 283.423 36.5373 284.6 36.655L284.699 35.66ZM303.638 43.266C303.96 41.8141 302.991 40.6689 301.653 39.8142C300.291 38.9447 298.357 38.2414 296.281 37.6751C292.116 36.5392 287.209 35.9109 284.699 35.66L284.6 36.655C287.09 36.9041 291.933 37.5258 296.018 38.6399C298.066 39.1986 299.883 39.8703 301.115 40.657C302.37 41.4586 302.839 42.2509 302.661 43.049L303.638 43.266ZM291.991 49.6325C295.83 50.912 298.518 50.5671 300.385 49.1846C302.221 47.8244 303.13 45.5496 303.638 43.266L302.661 43.049C302.169 45.2654 301.328 47.241 299.789 48.3811C298.28 49.4989 295.969 49.9044 292.308 48.6839L291.991 49.6325ZM281.124 84.3136L292.624 49.3143L291.674 49.0021L280.174 84.0014L281.124 84.3136ZM277.012 83.639L280.512 84.6383L280.787 83.6767L277.287 82.6774L277.012 83.639ZM296.835 41.6933C295.783 41.2725 293.524 40.7644 291.183 40.3045C288.822 39.8405 286.315 39.4144 284.727 39.1637L284.571 40.1515C286.15 40.4007 288.644 40.8247 290.991 41.2857C293.358 41.7508 295.516 42.2427 296.464 42.6218L296.835 41.6933ZM296.873 45.6048C297.163 45.4597 297.485 45.2452 297.764 44.9837C298.04 44.726 298.306 44.3928 298.436 44.0032C298.574 43.5909 298.551 43.1294 298.259 42.698C297.984 42.2916 297.505 41.9613 296.835 41.6933L296.464 42.6218C297.044 42.8538 297.314 43.0861 297.43 43.2578C297.53 43.4045 297.538 43.5368 297.488 43.687C297.43 43.8598 297.29 44.0579 297.081 44.2534C296.876 44.445 296.636 44.6055 296.426 44.7104L296.873 45.6048ZM283.733 42.4349C283.935 42.7379 284.313 42.9818 284.704 43.1826C285.119 43.3951 285.64 43.6033 286.222 43.8025C287.387 44.2016 288.845 44.5814 290.293 44.8962C291.742 45.2112 293.195 45.4641 294.354 45.6069C294.932 45.6782 295.446 45.7233 295.854 45.7336C296.057 45.7388 296.243 45.7356 296.402 45.7206C296.547 45.7069 296.724 45.6794 296.873 45.6048L296.426 44.7104C296.45 44.6983 296.428 44.7137 296.308 44.725C296.203 44.7349 296.06 44.7385 295.879 44.7339C295.517 44.7247 295.039 44.6838 294.476 44.6145C293.354 44.4761 291.931 44.229 290.506 43.919C289.079 43.6088 287.662 43.2385 286.546 42.8564C285.987 42.665 285.516 42.4747 285.161 42.2927C284.783 42.099 284.613 41.9522 284.565 41.8802L283.733 42.4349ZM284.729 39.164C284.377 39.1072 284.031 39.1622 283.74 39.3476C283.449 39.533 283.258 39.8215 283.167 40.1528C282.99 40.802 283.189 41.6181 283.733 42.4349L284.565 41.8802C284.11 41.1971 284.059 40.6825 284.132 40.4163C284.166 40.2899 284.225 40.2245 284.278 40.1907C284.331 40.1569 284.421 40.1273 284.57 40.1512L284.729 39.164Z" fill="black"/>
<path d="M127.445 107.042C133.473 107.163 148.941 106.388 168.34 102.328C170.885 101.795 172.827 101.121 174.238 100.322C175.649 99.5225 176.563 98.5788 176.986 97.4969C177.839 95.3169 176.594 92.9305 174.521 90.6941C170.322 86.1662 162.016 81.4769 155.687 78.5463C155.564 78.4894 155.424 78.4848 155.297 78.5333C150.202 80.4931 140.713 86.1063 131.407 93.0608C127.176 91.1046 120.423 88.2424 113.551 85.8479C106.551 83.4089 99.3534 81.428 94.5742 81.428C89.7364 81.428 84.0223 84.185 78.7825 87.3563C76.1493 88.95 73.6105 90.6648 71.3334 92.2207C71.0513 92.4135 70.7734 92.6037 70.5 92.7908C68.5609 94.1179 66.8461 95.2914 65.4483 96.1388C65.0349 96.382 64.6263 96.6314 64.3008 96.8818C63.9949 97.1172 63.6679 97.4219 63.548 97.8006C63.4811 98.0117 63.4799 98.241 63.5714 98.4662C63.6585 98.6805 63.8139 98.8531 63.9945 98.9938C64.3461 99.2678 64.8958 99.4992 65.6393 99.7131C68.6212 100.571 75.7053 101.402 90.4433 102.337C95.0483 102.63 98.1833 103.012 100.176 103.452C101.176 103.673 101.859 103.902 102.289 104.125C102.746 104.361 102.789 104.522 102.792 104.541C102.793 104.551 102.799 104.68 102.494 104.943C102.209 105.188 101.755 105.46 101.139 105.751C99.9148 106.329 98.1731 106.924 96.2059 107.508C93.5402 108.3 90.5181 109.055 87.8884 109.712C86.6349 110.025 85.4706 110.316 84.4765 110.578C83.7105 110.78 83.0435 110.965 82.5187 111.13C82.0132 111.289 81.5848 111.445 81.3379 111.597C81.2733 111.637 81.193 111.693 81.1244 111.769C81.0615 111.839 80.947 111.995 80.9663 112.218C80.9866 112.452 81.139 112.59 81.2306 112.651C81.323 112.713 81.4232 112.748 81.5003 112.769C81.796 112.85 82.3058 112.879 83 112.879C87.0998 112.879 89.9587 112.664 92.6729 112.459C97.7051 112.079 102.24 111.736 113.262 112.877C121.753 113.755 127.224 113.909 130.438 113.46C132.029 113.238 133.168 112.857 133.827 112.254C134.171 111.939 134.387 111.562 134.455 111.129C134.523 110.705 134.443 110.273 134.274 109.851C134.064 109.327 133.587 108.935 133.058 108.635C132.516 108.327 131.843 108.072 131.126 107.856C129.963 107.507 128.63 107.245 127.445 107.042Z" fill="#ECE39E" stroke="black" stroke-linejoin="round"/>
<path d="M118.461 105.938L118.502 105.439C118.418 105.433 118.334 105.447 118.258 105.481L118.461 105.938ZM118.461 105.938C118.258 105.481 118.258 105.481 118.257 105.481L118.257 105.481L118.255 105.482L118.252 105.484L118.24 105.489C118.231 105.493 118.219 105.499 118.203 105.506C118.172 105.521 118.129 105.543 118.077 105.571C117.973 105.626 117.831 105.708 117.673 105.814C117.365 106.022 116.963 106.349 116.691 106.793C116.407 107.256 116.264 107.851 116.515 108.522C116.755 109.164 117.33 109.805 118.307 110.454C122.149 113.002 126.308 113.66 127.951 113.668C127.959 113.668 127.967 113.668 127.974 113.668C130.533 113.561 132.286 113.225 133.316 112.625C133.846 112.316 134.225 111.914 134.39 111.404C134.554 110.897 134.48 110.366 134.274 109.851C134.069 109.338 133.611 108.929 133.079 108.596C132.535 108.256 131.847 107.956 131.082 107.689C129.551 107.155 127.639 106.728 125.784 106.397C123.925 106.065 122.105 105.826 120.752 105.67C120.075 105.592 119.513 105.534 119.121 105.496C118.924 105.477 118.77 105.463 118.665 105.454L118.544 105.443L118.513 105.44L118.505 105.44L118.503 105.439L118.502 105.439C118.502 105.439 118.502 105.439 118.461 105.938ZM94.5742 81.428C94.3278 81.428 94.1182 81.6074 94.0802 81.8508C93.5741 85.0895 94.1508 89.98 97.5066 94.1861C100.874 98.4062 106.979 101.865 117.39 102.338C117.415 102.339 117.439 102.338 117.464 102.336C121.958 101.872 128.104 100.901 131.849 99.4849C132.787 99.1299 133.603 98.737 134.209 98.3005C134.803 97.8731 135.28 97.3436 135.377 96.6926C135.477 96.0101 135.137 95.382 134.526 94.8284C133.918 94.277 132.974 93.732 131.67 93.1828C127.46 91.225 120.568 88.2926 113.551 85.8479C106.551 83.4089 99.3534 81.428 94.5742 81.428ZM155.604 78.5669C155.449 78.4777 155.258 78.4777 155.104 78.567C154.949 78.6564 154.854 78.8214 154.854 79C154.854 81.2643 156.071 86.5539 160.923 89.9505C163.94 92.0621 167.84 93.1104 170.626 93.2609C171.326 93.2988 171.968 93.2807 172.516 93.2043C173.056 93.129 173.545 92.9921 173.909 92.7651C174.287 92.5299 174.583 92.157 174.559 91.6474C174.538 91.1882 174.258 90.7552 173.861 90.3585C173.24 89.7371 172.094 88.8723 170.681 87.8944C169.257 86.9095 167.53 85.7888 165.722 84.6523C162.104 82.3789 158.145 80.0332 155.604 78.5669Z" fill="#C49259" stroke="black" stroke-linejoin="round"/>
<path d="M195.749 50.8191C195.701 50.8835 195.669 50.9586 195.656 51.038L189.419 88.9428C189.227 90.1049 189.878 91.2547 190.992 91.6649C211.591 99.2439 228.812 95.2415 236.147 91.704C237.11 91.2395 237.591 90.1985 237.437 89.1797L231.644 51.0441C231.631 50.9572 231.595 50.8754 231.54 50.8068C231.147 50.3154 230.414 49.7569 229.426 49.1994C228.427 48.6349 227.126 48.0498 225.559 47.5204C222.425 46.4615 218.204 45.6191 213.149 45.6191C208.088 45.6191 204.028 46.5471 201.098 47.6513C199.633 48.2031 198.448 48.8003 197.558 49.3501C196.683 49.8912 196.056 50.4099 195.749 50.8191Z" fill="#FBCF9C" stroke="black" stroke-linejoin="round"/>
<g filter="url(#filter0_ii_30956_3017)">
<path d="M225.649 95.1191H205.652C205.652 88.7858 205.208 76.1191 215.281 76.1191C225.353 76.1191 225.649 87.0807 225.649 95.1191Z" fill="#C19771"/>
</g>
<path d="M213.149 46.1191C203.149 46.1191 197.149 49.7858 196.149 51.1191C196.816 52.7858 201.149 56.1191 213.149 56.1191C225.149 56.1191 230.149 52.7858 231.149 51.1191C229.816 49.4525 223.149 46.1191 213.149 46.1191Z" fill="#FFDDB5"/>
<circle cx="203.649" cy="67.6191" r="2.5" fill="#C19771"/>
<circle cx="228.149" cy="74.6191" r="2.5" fill="#C19771"/>
<ellipse cx="198.149" cy="88.1191" rx="3" ry="2.5" fill="#C19771"/>
<circle cx="200.149" cy="80.6191" r="1" fill="#C19771"/>
<circle cx="215.149" cy="86.6191" r="1" fill="#C19771"/>
<circle cx="229.149" cy="85.6191" r="1" fill="#C19771"/>
<circle cx="222.149" cy="67.1191" r="1" fill="#C19771"/>
<circle cx="231.149" cy="72.6191" r="2" fill="#C19771"/>
<path d="M163.249 55.3191C163.201 55.3835 163.169 55.4586 163.156 55.538L156.919 93.4428C156.727 94.6049 157.378 95.7547 158.492 96.1649C179.091 103.744 196.312 99.7415 203.647 96.204C204.61 95.7395 205.091 94.6985 204.937 93.6797L199.144 55.5441C199.131 55.4572 199.095 55.3754 199.04 55.3068C198.647 54.8154 197.914 54.2569 196.926 53.6994C195.927 53.1349 194.626 52.5498 193.059 52.0204C189.925 50.9615 185.704 50.1191 180.649 50.1191C175.588 50.1191 171.528 51.0471 168.598 52.1513C167.133 52.7031 165.948 53.3003 165.058 53.8501C164.183 54.3912 163.556 54.9099 163.249 55.3191Z" fill="#FBCF9C" stroke="black" stroke-linejoin="round"/>
<g filter="url(#filter1_ii_30956_3017)">
<path d="M188.649 82.1191H175.149C175.149 77.7858 174.849 69.1191 181.649 69.1191C188.449 69.1191 188.649 76.6191 188.649 82.1191Z" fill="#C19771"/>
</g>
<path d="M180.649 50.6191C170.649 50.6191 164.649 54.2858 163.649 55.6191C164.316 57.2858 168.649 60.6191 180.649 60.6191C192.649 60.6191 197.649 57.2858 198.649 55.6191C197.316 53.9525 190.649 50.6191 180.649 50.6191Z" fill="#FFDDB5"/>
<circle cx="171.149" cy="65.6191" r="2.5" fill="#C19771"/>
<ellipse cx="165.649" cy="92.6191" rx="3" ry="2.5" fill="#C19771"/>
<circle cx="167.649" cy="85.1191" r="1" fill="#C19771"/>
<circle cx="182.649" cy="91.1191" r="1" fill="#C19771"/>
<circle cx="196.649" cy="90.1191" r="1" fill="#C19771"/>
<circle cx="189.649" cy="65.1191" r="1" fill="#C19771"/>
<circle cx="198.649" cy="77.1191" r="2" fill="#C19771"/>
<path d="M232.749 55.3191C232.701 55.3835 232.669 55.4586 232.656 55.538L226.419 93.4428C226.227 94.6049 226.878 95.7547 227.992 96.1649C248.591 103.744 265.812 99.7415 273.147 96.204C274.11 95.7395 274.591 94.6985 274.437 93.6797L268.644 55.5441C268.631 55.4572 268.595 55.3754 268.54 55.3068C268.147 54.8154 267.414 54.2569 266.426 53.6994C265.427 53.1349 264.126 52.5498 262.559 52.0204C259.425 50.9615 255.204 50.1191 250.149 50.1191C245.088 50.1191 241.028 51.0471 238.098 52.1513C236.633 52.7031 235.448 53.3003 234.558 53.8501C233.683 54.3912 233.056 54.9099 232.749 55.3191Z" fill="#FBCF9C" stroke="black" stroke-linejoin="round"/>
<g filter="url(#filter2_ii_30956_3017)">
<path d="M258.149 82.1191H244.649C244.649 77.7858 244.349 69.1191 251.149 69.1191C257.949 69.1191 258.149 76.6191 258.149 82.1191Z" fill="#C19771"/>
</g>
<path d="M250.149 50.6191C240.149 50.6191 234.149 54.2858 233.149 55.6191C233.816 57.2858 238.149 60.6191 250.149 60.6191C262.149 60.6191 267.149 57.2858 268.149 55.6191C266.816 53.9525 260.149 50.6191 250.149 50.6191Z" fill="#FFDDB5"/>
<circle cx="240.649" cy="65.6191" r="2.5" fill="#C19771"/>
<ellipse cx="235.149" cy="92.6191" rx="3" ry="2.5" fill="#C19771"/>
<circle cx="237.149" cy="85.1191" r="1" fill="#C19771"/>
<circle cx="252.149" cy="91.1191" r="1" fill="#C19771"/>
<circle cx="266.149" cy="90.1191" r="1" fill="#C19771"/>
<circle cx="259.149" cy="65.1191" r="1" fill="#C19771"/>
<circle cx="268.149" cy="77.1191" r="2" fill="#C19771"/>
<path d="M124.149 102.665C132.547 102.665 139.355 101.264 139.355 99.5346L144.649 65.665H102.649L108.944 99.5346C108.944 101.264 115.751 102.665 124.149 102.665Z" fill="#AEFF0F" stroke="black" stroke-linejoin="round"/>
<path d="M123 70.1191C135.724 70.1191 146.039 68.0168 146.039 65.4235L148 58.1191H98L99.9608 65.4235C99.9608 68.0168 110.276 70.1191 123 70.1191Z" fill="#AEFF0F" stroke="black" stroke-linejoin="round"/>
<path d="M148.149 58.165C148.149 58.2693 148.091 58.4466 147.805 58.6933C147.522 58.9372 147.075 59.1955 146.453 59.4552C145.212 59.9728 143.387 60.45 141.094 60.8546C136.516 61.6625 130.171 62.165 123.149 62.165C116.128 62.165 109.783 61.6625 105.205 60.8546C102.912 60.45 101.086 59.9728 99.8459 59.4552C99.2234 59.1955 98.7768 58.9372 98.494 58.6933C98.2079 58.4466 98.1494 58.2693 98.1494 58.165C98.1494 58.0608 98.2079 57.8835 98.494 57.6368C98.7768 57.3929 99.2234 57.1346 99.8459 56.8749C101.086 56.3573 102.912 55.8801 105.205 55.4755C109.783 54.6676 116.128 54.165 123.149 54.165C130.171 54.165 136.516 54.6676 141.094 55.4755C143.387 55.8801 145.212 56.3573 146.453 56.8749C147.075 57.1346 147.522 57.3929 147.805 57.6368C148.091 57.8835 148.149 58.0608 148.149 58.165Z" fill="#7EA82B" stroke="black"/>
<path d="M133.833 52.052L134.224 52.3721L134.54 51.9774C134.653 51.8356 134.922 51.6112 135.337 51.3424C135.738 51.0825 136.235 50.8064 136.765 50.5538C137.748 50.0848 138.761 49.7355 139.448 49.6745C140.784 51.0684 143.35 54.4563 144.13 58.1219C144.098 58.1496 144.046 58.1877 143.966 58.2334C143.733 58.3658 143.357 58.5097 142.827 58.6553C141.776 58.9444 140.231 59.2103 138.294 59.4354C134.428 59.885 129.073 60.1643 123.149 60.1643C117.225 60.1643 111.871 59.885 108.004 59.4354C106.068 59.2103 104.523 58.9444 103.472 58.6553C102.942 58.5097 102.566 58.3658 102.333 58.2334C102.321 58.2267 102.31 58.2202 102.3 58.2138C104.728 55.7447 108.679 52.2418 112.987 49.407C115.228 47.9318 117.555 46.6452 119.806 45.7777C122.005 44.9301 124.1 44.4944 125.959 44.6489C126.426 45.0221 127.016 45.6268 127.813 46.4433C128.068 46.7044 128.344 46.9872 128.644 47.291C129.934 48.5979 131.614 50.2366 133.833 52.052Z" fill="#F9CB94" stroke="black"/>
<path d="M127.782 51.2739C126.872 49.2057 126.581 46.9492 126.598 45.2218C126.942 45.5524 127.341 45.9612 127.813 46.4441C128.067 46.7052 128.343 46.9879 128.643 47.2917C129.85 48.514 131.398 50.0265 133.408 51.7023C133.34 51.8546 133.299 52.0228 133.272 52.1832C133.199 52.6114 133.195 53.1716 133.225 53.7537C133.27 54.6397 133.397 55.6522 133.529 56.4944C130.562 55.6283 128.795 53.5772 127.782 51.2739ZM139.007 53.5997C138.664 52.3039 139.091 50.9569 139.71 49.9568C141.006 51.391 143.105 54.279 143.969 57.4609C140.654 56.4704 139.371 54.9724 139.007 53.5997Z" fill="#BA986E" stroke="black"/>
<rect x="123.348" y="65.3078" width="5" height="35.7469" rx="2.5" transform="rotate(-36.0855 123.348 65.3078)" fill="#FDD54C" stroke="black"/>
<circle cx="120.149" cy="53.6191" r="2.5" fill="#C19771"/>
<circle cx="109.149" cy="55.6191" r="1.5" fill="#C19771"/>
<circle cx="127.649" cy="58.1191" r="1" fill="#C19771"/>
<circle cx="123.649" cy="48.1191" r="1" fill="#C19771"/>
<path d="M199.749 15.8191C199.701 15.8835 199.669 15.9586 199.656 16.038L193.419 53.9428C193.227 55.1049 193.878 56.2547 194.992 56.6649C215.591 64.2439 232.812 60.2415 240.147 56.704C241.11 56.2395 241.591 55.1985 241.437 54.1797L235.644 16.0441C235.631 15.9572 235.595 15.8754 235.54 15.8068C235.147 15.3154 234.414 14.7569 233.426 14.1994C232.427 13.6349 231.126 13.0498 229.559 12.5204C226.425 11.4615 222.204 10.6191 217.149 10.6191C212.088 10.6191 208.028 11.5471 205.098 12.6513C203.633 13.2031 202.448 13.8003 201.558 14.3501C200.683 14.8912 200.056 15.4099 199.749 15.8191Z" fill="#FBCF9C" stroke="black" stroke-linejoin="round"/>
<g filter="url(#filter3_ii_30956_3017)">
<path d="M225.149 42.6191H211.649C211.649 38.2858 211.349 29.6191 218.149 29.6191C224.949 29.6191 225.149 37.1191 225.149 42.6191Z" fill="#C19771"/>
</g>
<path d="M217.149 11.1191C207.149 11.1191 201.149 14.7858 200.149 16.1191C200.816 17.7858 205.149 21.1191 217.149 21.1191C229.149 21.1191 234.149 17.7858 235.149 16.1191C233.816 14.4525 227.149 11.1191 217.149 11.1191Z" fill="#FFDDB5"/>
<circle cx="207.649" cy="26.1191" r="2.5" fill="#C19771"/>
<ellipse cx="202.149" cy="53.1191" rx="3" ry="2.5" fill="#C19771"/>
<circle cx="204.149" cy="45.6191" r="1" fill="#C19771"/>
<circle cx="219.149" cy="51.6191" r="1" fill="#C19771"/>
<circle cx="233.149" cy="50.6191" r="1" fill="#C19771"/>
<circle cx="226.149" cy="25.6191" r="1" fill="#C19771"/>
<circle cx="235.149" cy="37.6191" r="2" fill="#C19771"/>
<g filter="url(#filter4_d_30956_3017)">
<path fill-rule="evenodd" clip-rule="evenodd" d="M229.167 101.854C229.353 101.994 229.682 102.174 230.212 102.38C232.31 103.196 233.785 104.053 234.782 104.805C235.051 105.008 235.289 105.206 235.497 105.397C235.471 105.024 235.436 104.631 235.388 104.241C235.259 103.179 235.055 102.258 234.782 101.78C234.782 101.781 234.782 101.78 234.781 101.779C234.771 101.769 234.681 101.675 234.386 101.574C234.101 101.478 233.72 101.406 233.275 101.364C232.387 101.282 231.323 101.327 230.447 101.477C230.007 101.553 229.633 101.652 229.358 101.764C229.283 101.795 229.22 101.825 229.167 101.854ZM236.31 103.356C236.172 102.513 235.964 101.678 235.641 101.112C235.424 100.732 235.02 100.536 234.675 100.418C234.298 100.29 233.839 100.209 233.357 100.164C232.389 100.074 231.248 100.123 230.296 100.286C229.821 100.367 229.376 100.48 229.015 100.628C228.835 100.702 228.663 100.79 228.514 100.898C228.371 101.001 228.213 101.148 228.109 101.357C227.993 101.591 227.964 101.87 228.05 102.145C228.126 102.39 228.278 102.577 228.432 102.72C228.739 103.005 229.227 103.267 229.886 103.523C231.918 104.313 233.311 105.13 234.221 105.816C235.053 106.444 235.443 106.933 235.574 107.164C235.828 109.084 237.756 111.99 242.989 111.583C244.527 111.463 246.009 111.763 247.213 112.325C248.429 112.892 249.306 113.699 249.711 114.539C249.909 114.951 249.992 115.363 249.961 115.77C249.93 116.177 249.781 116.623 249.451 117.094C248.781 118.055 247.392 119.076 244.956 119.941C244.683 120.037 244.529 120.374 244.612 120.692C244.695 121.01 244.984 121.19 245.256 121.093C247.767 120.201 249.39 119.09 250.252 117.855C250.689 117.228 250.937 116.561 250.989 115.878C251.042 115.194 250.896 114.541 250.611 113.948C250.048 112.781 248.935 111.831 247.597 111.207C246.247 110.577 244.61 110.249 242.921 110.381C238.533 110.722 237.036 108.603 236.673 107.348C237.633 106.913 238.8 106.272 239.556 105.568C239.778 105.361 239.982 105.133 240.136 104.885C240.289 104.639 240.415 104.337 240.427 103.994C240.453 103.229 239.934 102.722 239.287 102.398C238.595 102.052 237.963 102.004 237.412 102.249C236.925 102.467 236.568 102.884 236.31 103.356ZM236.635 106.068C236.705 105.384 236.857 104.658 237.122 104.116C237.311 103.729 237.533 103.485 237.78 103.375C238.02 103.268 238.367 103.249 238.88 103.505C239.144 103.637 239.281 103.758 239.346 103.841C239.398 103.908 239.396 103.938 239.395 103.945C239.395 103.945 239.395 103.946 239.395 103.946C239.395 103.97 239.383 104.045 239.3 104.177C239.219 104.308 239.091 104.46 238.911 104.627C238.35 105.15 237.464 105.669 236.635 106.068Z" fill="#FF4C4C"/>
<path d="M239.096 103.93C239.096 103.93 239.096 103.93 239.096 103.93L239.096 103.936M239.096 103.93L239.096 103.936C239.096 103.936 239.096 103.936 239.096 103.936L239.096 103.936L239.096 103.936M239.096 103.93C239.096 103.932 239.096 103.933 239.096 103.936M239.096 103.93L239.096 103.936M234.546 101.975C234.653 102.177 234.755 102.478 234.847 102.861C234.945 103.27 235.027 103.754 235.091 104.277C235.108 104.418 235.123 104.559 235.137 104.7C235.08 104.655 235.022 104.61 234.962 104.565C233.94 103.794 232.44 102.925 230.321 102.101C230.147 102.033 229.997 101.969 229.87 101.91C230.053 101.859 230.264 101.813 230.497 101.773C231.349 101.627 232.386 101.583 233.247 101.663C233.679 101.703 234.035 101.772 234.289 101.858C234.418 101.902 234.494 101.942 234.533 101.966C234.538 101.969 234.542 101.972 234.546 101.975ZM234.04 106.056C234.793 106.623 235.153 107.06 235.285 107.266C235.437 108.288 236.021 109.535 237.229 110.482C238.467 111.452 240.336 112.09 243.013 111.882C244.498 111.766 245.928 112.057 247.086 112.597C248.26 113.144 249.074 113.909 249.441 114.669C249.619 115.038 249.689 115.398 249.662 115.747C249.635 116.095 249.507 116.49 249.205 116.922C248.586 117.81 247.263 118.803 244.855 119.658C244.407 119.817 244.208 120.331 244.322 120.768C244.439 121.215 244.881 121.545 245.357 121.376C247.896 120.474 249.585 119.334 250.498 118.026C250.963 117.361 251.231 116.643 251.288 115.901C251.346 115.159 251.187 114.453 250.881 113.818C250.28 112.571 249.104 111.579 247.724 110.935C246.327 110.283 244.639 109.946 242.897 110.082C240.755 110.248 239.354 109.812 238.454 109.213C237.675 108.695 237.251 108.041 237.044 107.507C237.963 107.073 239.035 106.464 239.761 105.787C239.995 105.569 240.218 105.32 240.391 105.043L240.136 104.885L240.391 105.043C240.562 104.768 240.713 104.415 240.727 104.004C240.759 103.066 240.112 102.476 239.421 102.13C238.672 101.756 237.944 101.684 237.29 101.975C236.964 102.121 236.694 102.34 236.471 102.595C236.337 101.988 236.155 101.407 235.901 100.963C235.628 100.484 235.133 100.257 234.772 100.134C234.364 99.9953 233.88 99.9111 233.384 99.865C232.39 99.7726 231.222 99.8226 230.246 99.9902C229.759 100.074 229.29 100.191 228.901 100.351C228.707 100.43 228.512 100.529 228.338 100.654C228.172 100.774 227.973 100.956 227.841 101.224C227.691 101.525 227.653 101.884 227.763 102.235C227.861 102.546 228.051 102.776 228.228 102.94C228.577 103.265 229.109 103.543 229.777 103.803C231.788 104.585 233.156 105.388 234.04 106.056ZM239.046 104.019L239.3 104.177L239.046 104.019C238.983 104.12 238.874 104.251 238.707 104.407C238.287 104.799 237.661 105.197 237.009 105.543C237.091 105.064 237.216 104.606 237.392 104.247C237.565 103.893 237.745 103.719 237.903 103.649C238.039 103.588 238.29 103.546 238.746 103.774C238.918 103.86 239.016 103.933 239.068 103.982C239.062 103.993 239.054 104.005 239.046 104.019Z" stroke="black" stroke-width="0.6" stroke-linecap="round" stroke-linejoin="round"/>
</g>
<g filter="url(#filter5_d_30956_3017)">
<path fill-rule="evenodd" clip-rule="evenodd" d="M177.696 116.805C178.394 116.524 179.276 116.551 180.343 116.871C180.876 117.031 181.311 117.221 181.641 117.45C181.973 117.68 182.234 117.975 182.341 118.349C182.559 119.112 182.051 119.772 181.578 120.211C180.652 121.069 179.02 121.863 177.721 122.376C177.555 123.462 177.038 125.263 175.968 126.996C174.756 128.961 172.801 130.885 169.796 131.529C166.21 132.297 161.884 132.166 158.337 132.041C158.235 132.038 158.135 132.034 158.035 132.031C156.367 131.972 154.893 131.92 153.731 131.963C153.116 131.986 152.615 132.035 152.234 132.117C151.833 132.202 151.655 132.305 151.594 132.366C151.36 132.6 150.98 132.6 150.746 132.366C150.511 132.132 150.511 131.752 150.746 131.518C151.06 131.204 151.523 131.041 151.983 130.943C152.463 130.841 153.044 130.788 153.687 130.764C154.893 130.719 156.409 130.773 158.056 130.831C158.163 130.835 158.271 130.838 158.379 130.842C161.957 130.968 166.13 131.087 169.544 130.355C172.139 129.799 173.851 128.141 174.947 126.366C175.768 125.035 176.226 123.665 176.437 122.71C176.125 122.846 175.738 123.042 175.25 123.289C175.205 123.311 175.16 123.335 175.113 123.358C173.904 123.97 172.216 124.81 169.987 125.562C165.519 127.067 158.917 128.2 149.565 126.533C144.838 125.69 141.356 125.43 138.896 125.557C136.396 125.686 135.088 126.209 134.539 126.776C134.287 127.037 134.192 127.307 134.2 127.595C134.209 127.903 134.337 128.281 134.63 128.717C135.218 129.596 136.374 130.562 137.955 131.414C138.246 131.571 138.356 131.935 138.199 132.226C138.041 132.518 137.678 132.627 137.386 132.47C135.716 131.571 134.372 130.49 133.633 129.385C133.261 128.831 133.018 128.234 133.001 127.629C132.984 127.005 133.209 126.425 133.676 125.942C134.565 125.024 136.287 124.49 138.834 124.359C141.421 124.225 145.002 124.5 149.776 125.351C158.923 126.982 165.321 125.867 169.604 124.424C171.215 123.882 172.533 123.29 173.596 122.773C171.87 122.833 170.243 122.796 169.024 122.572C168.503 122.476 168.023 122.34 167.63 122.144C167.241 121.949 166.878 121.666 166.69 121.246C166.494 120.808 166.538 120.338 166.734 119.887C166.924 119.448 167.27 118.994 167.746 118.518C168.498 117.766 169.675 116.696 171.409 116.848C172.764 116.966 174.316 117.817 176.166 119.815C176.15 119.305 176.196 118.784 176.35 118.31C176.558 117.671 176.974 117.095 177.696 116.805ZM175.995 121.438C173.886 118.916 172.365 118.136 171.304 118.043C170.163 117.943 169.339 118.622 168.595 119.367C168.171 119.791 167.94 120.121 167.835 120.365C167.734 120.596 167.762 120.704 167.785 120.756C167.816 120.825 167.909 120.942 168.166 121.07C168.419 121.196 168.778 121.306 169.242 121.392C170.881 121.694 173.427 121.626 175.995 121.438ZM177.564 121.146C178.755 120.654 180.06 119.982 180.762 119.331C181.206 118.919 181.198 118.717 181.187 118.68C181.18 118.654 181.144 118.565 180.957 118.436C180.769 118.305 180.465 118.16 179.998 118.02C179.064 117.74 178.488 117.78 178.144 117.918C177.825 118.046 177.616 118.295 177.491 118.681C177.36 119.083 177.334 119.603 177.392 120.169C177.426 120.5 177.487 120.833 177.564 121.146Z" fill="#FF4C4C"/>
<path d="M166.416 121.369L166.69 121.246L166.416 121.369C166.644 121.876 167.074 122.201 167.496 122.412C167.924 122.626 168.434 122.768 168.97 122.867C169.873 123.033 170.985 123.098 172.185 123.099C171.4 123.445 170.512 123.802 169.508 124.14C165.272 125.567 158.925 126.677 149.828 125.056C145.043 124.203 141.437 123.924 138.819 124.059C136.26 124.191 134.434 124.727 133.461 125.733C132.94 126.272 132.681 126.929 132.701 127.637C132.72 128.317 132.992 128.968 133.383 129.552C134.161 130.713 135.552 131.823 137.244 132.734C137.681 132.97 138.227 132.806 138.463 132.369C138.698 131.931 138.535 131.385 138.097 131.149C136.539 130.31 135.429 129.372 134.879 128.55C134.606 128.144 134.507 127.82 134.5 127.587C134.495 127.383 134.556 127.189 134.754 126.985C134.981 126.751 135.393 126.498 136.074 126.289C136.752 126.081 137.678 125.921 138.912 125.857C141.34 125.732 144.797 125.987 149.512 126.828C158.915 128.504 165.568 127.367 170.083 125.846C172.333 125.088 174.036 124.239 175.249 123.626L175.386 123.556C175.609 123.443 175.81 123.342 175.99 123.252C175.745 124.111 175.331 125.173 174.692 126.208C173.625 127.937 171.974 129.528 169.481 130.062C166.11 130.784 161.975 130.668 158.389 130.542L158.067 130.531L158.057 130.531C156.418 130.473 154.893 130.419 153.676 130.464C153.026 130.489 152.426 130.542 151.921 130.649C151.445 130.751 150.911 130.928 150.534 131.305C150.182 131.657 150.182 132.227 150.534 132.578C150.885 132.93 151.455 132.93 151.806 132.578C151.806 132.579 151.805 132.579 151.805 132.579C151.806 132.58 151.831 132.558 151.905 132.526C151.985 132.491 152.11 132.45 152.296 132.41C152.653 132.334 153.135 132.286 153.743 132.263C154.89 132.22 156.352 132.272 158.024 132.331L158.326 132.341C161.865 132.465 166.23 132.599 169.859 131.822C172.966 131.156 174.982 129.165 176.224 127.154C177.263 125.469 177.792 123.722 177.99 122.592C179.268 122.075 180.851 121.294 181.782 120.431C182.261 119.987 182.9 119.211 182.629 118.267C182.497 117.805 182.18 117.458 181.812 117.203C181.447 116.95 180.979 116.749 180.429 116.584C179.33 116.254 178.371 116.21 177.585 116.526C176.76 116.858 176.293 117.515 176.064 118.217C175.972 118.5 175.917 118.796 175.888 119.093C174.225 117.432 172.766 116.665 171.435 116.549C169.553 116.384 168.288 117.552 167.534 118.306C167.045 118.795 166.67 119.28 166.459 119.767C166.239 120.272 166.177 120.834 166.416 121.369ZM171.278 118.342C172.159 118.419 173.491 119.042 175.378 121.18C173.02 121.335 170.769 121.368 169.296 121.097C168.846 121.014 168.518 120.91 168.3 120.801C168.138 120.721 168.08 120.659 168.064 120.638C168.065 120.62 168.072 120.572 168.11 120.484C168.194 120.29 168.396 119.99 168.807 119.579C169.55 118.836 170.285 118.255 171.278 118.342ZM180.558 119.111C179.959 119.667 178.864 120.258 177.779 120.729C177.741 120.534 177.711 120.335 177.691 120.138C177.635 119.594 177.663 119.121 177.776 118.774C177.881 118.452 178.038 118.284 178.256 118.196C178.512 118.094 179.011 118.038 179.912 118.308C180.362 118.443 180.634 118.576 180.786 118.682C180.823 118.708 180.85 118.729 180.869 118.747C180.834 118.813 180.75 118.933 180.558 119.111ZM180.911 118.791C180.91 118.791 180.91 118.791 180.909 118.79C180.91 118.791 180.911 118.791 180.911 118.791ZM180.891 118.695C180.891 118.693 180.891 118.693 180.892 118.693L180.891 118.695Z" stroke="black" stroke-width="0.6" stroke-linecap="round" stroke-linejoin="round"/>
</g>
<g filter="url(#filter6_d_30956_3017)">
<path d="M175 121.119C193.129 116.119 220.389 112.519 235.815 106.119C235.815 106.119 237.299 108.619 231.86 112.619C223.959 118.43 235.815 123.119 233.343 131.119L224.938 135.119C217.521 135.119 219.005 125.619 201.205 129.119C187.913 131.733 175 123.952 175 121.119Z" fill="#FF4C4C"/>
<path d="M175 121.119C193.129 116.119 220.389 112.519 235.815 106.119C235.815 106.119 237.299 108.619 231.86 112.619C223.959 118.43 235.815 123.119 233.343 131.119L224.938 135.119M175 121.119C175 123.952 187.913 131.733 201.205 129.119C219.005 125.619 217.521 135.119 224.938 135.119M175 121.119C177.967 122.619 182.416 122.619 197.744 122.619C210.006 122.619 222.136 131.119 224.938 135.119" stroke="black" stroke-width="0.6" stroke-linecap="round" stroke-linejoin="round"/>
</g>
<path d="M282.02 95.4586C282.111 95.642 282.081 95.8624 281.945 96.0149L272.915 106.088C272.869 106.14 272.813 106.181 272.75 106.21L266.526 109.043C266.412 109.095 266.284 109.102 266.165 109.064L258.894 106.721C258.714 106.663 258.582 106.508 258.553 106.321L257.907 102.1C257.897 102.034 257.9 101.967 257.916 101.902L261.709 86.8361C261.747 86.6835 261.855 86.5579 262 86.497L267.732 84.0948C267.827 84.0548 267.933 84.0454 268.034 84.0679L273.98 85.3939C274.058 85.4112 274.13 85.4469 274.192 85.498L279.028 89.5352C279.081 89.5795 279.125 89.6344 279.156 89.6964L282.02 95.4586Z" fill="#FF009B" stroke="black" stroke-linejoin="round"/>
<path d="M272.917 96.9381L266.522 108.226C266.404 108.435 266.153 108.53 265.926 108.453L259.944 106.422C259.698 106.338 259.557 106.081 259.619 105.829L263.172 91.3969C263.252 91.0722 263.622 90.916 263.911 91.0852L272.735 96.2603C272.971 96.3986 273.052 96.7004 272.917 96.9381Z" fill="#E02D72"/>
<path d="M262.085 89.2045L258.918 101.499C258.902 101.561 258.898 101.625 258.907 101.689L259.163 103.642C259.236 104.19 260.013 104.234 260.145 103.697L263.307 90.8515C263.324 90.7833 263.326 90.7124 263.314 90.6433L263.061 89.2406C262.966 88.7124 262.219 88.6848 262.085 89.2045Z" fill="#AE2A5D"/>
<path d="M273.288 95.8538L274.475 89.719C274.531 89.4297 274.824 89.2512 275.106 89.3342L278.478 90.3236C278.605 90.3609 278.712 90.4473 278.776 90.5636L281.21 95.0188C281.382 95.3332 281.177 95.7209 280.82 95.7561L273.828 96.4464C273.495 96.4793 273.224 96.1823 273.288 95.8538Z" fill="#D71243"/>
<path d="M273.295 95.8181L274.508 89.5486C274.55 89.3299 274.443 89.1095 274.244 89.0083L268.612 86.1355C268.422 86.0387 268.191 86.0729 268.038 86.2207L263.809 90.2909C263.57 90.5206 263.616 90.9148 263.902 91.0824L272.551 96.1545C272.849 96.329 273.229 96.1568 273.295 95.8181Z" fill="#FC8AA7"/>
<path d="M276.371 89.7035L274.625 89.1912C274.595 89.1824 274.566 89.1709 274.538 89.1568L268.589 86.1223C268.41 86.0314 268.304 85.8408 268.317 85.6413C268.338 85.333 268.63 85.1128 268.931 85.1839L273.726 86.3161C273.801 86.334 273.872 86.3692 273.931 86.4189L276.832 88.8399C277.248 89.1874 276.891 89.8562 276.371 89.7035Z" fill="#BF1131"/>
<path d="M263.063 86.8493L267.659 85.2852C267.991 85.1723 268.331 85.4331 268.307 85.7828C268.299 85.9046 268.246 86.0191 268.158 86.1038L264.006 90.0991C263.719 90.3761 263.238 90.2205 263.168 89.8275L262.732 87.4113C262.688 87.1679 262.829 86.929 263.063 86.8493Z" fill="#FF009B"/>
<path d="M272.73 96.0171L264.936 91.4463C264.364 91.1108 263.63 91.4149 263.462 92.0567L261.298 100.359" stroke="url(#paint2_linear_30956_3017)" stroke-width="1.2" stroke-linecap="round" stroke-linejoin="round"/>
<path d="M168.704 101.757C168.658 101.808 168.602 101.849 168.539 101.878L159.1 106.175C158.987 106.226 158.858 106.234 158.74 106.196L147.714 102.643C147.534 102.585 147.402 102.43 147.373 102.242L146.393 95.8413C146.383 95.7755 146.386 95.7082 146.402 95.6436L152.153 72.7976C152.205 72.5919 152.381 72.4412 152.592 72.4217L170.3 70.7897C170.469 70.7741 170.634 70.8453 170.739 70.9786L182.417 85.8384C182.567 86.0292 182.558 86.3003 182.396 86.481L168.704 101.757Z" fill="#FF009B" stroke="black" stroke-linejoin="round"/>
<path d="M169.025 87.8359L159.096 105.36C158.978 105.569 158.728 105.665 158.5 105.587L149.002 102.362C148.756 102.278 148.615 102.021 148.677 101.769L154.205 79.3184C154.285 78.9937 154.655 78.8375 154.943 79.0066L168.843 87.1581C169.079 87.2963 169.16 87.5981 169.025 87.8359Z" fill="#D55AAA"/>
<path d="M152.768 75.1843L147.659 95.0202C147.643 95.0822 147.639 95.1466 147.647 95.2101L148.222 99.5821C148.294 100.13 149.071 100.173 149.203 99.6365L154.34 78.7725C154.357 78.7043 154.359 78.6334 154.347 78.5643L153.744 75.2204C153.649 74.6922 152.902 74.6646 152.768 75.1843Z" fill="#AE2A5D"/>
<path d="M169.308 86.8176L170.259 72.5877C170.29 72.1304 170.868 71.9518 171.151 72.3121L181.461 85.4303C181.704 85.7407 181.509 86.1981 181.117 86.2369L169.856 87.3485C169.549 87.3788 169.287 87.1258 169.308 86.8176Z" fill="#BD3789"/>
<path d="M169.323 86.6011L170.246 72.7974C170.271 72.4266 169.896 72.1593 169.554 72.303L155.289 78.282C154.909 78.4413 154.874 78.966 155.229 79.1745L168.571 86.9991C168.892 87.1871 169.298 86.972 169.323 86.6011Z" fill="#F37EC6"/>
<path d="M153.896 72.927L166.213 72.0785C166.766 72.0405 166.961 72.7965 166.459 73.0306L154.955 78.3915C154.658 78.53 154.31 78.3497 154.252 78.0269L153.439 73.5145C153.386 73.2214 153.599 72.9475 153.896 72.927Z" fill="#C73F93"/>
<path d="M168.614 86.6635L156.206 79.3869C155.634 79.0515 154.899 79.3556 154.732 79.9973L151.278 93.2482" stroke="url(#paint3_linear_30956_3017)" stroke-width="1.2" stroke-linecap="round" stroke-linejoin="round"/>
<path d="M153.614 98.3047C153.801 98.3921 153.915 98.5852 153.901 98.7909L153.382 106.551C153.37 106.74 153.252 106.905 153.077 106.979L146.908 109.564C146.837 109.594 146.759 109.607 146.681 109.602L134.743 108.804C134.6 108.794 134.469 108.724 134.381 108.612L129.965 102.92C129.844 102.764 129.826 102.551 129.92 102.377L133.343 96.0101C133.409 95.8876 133.523 95.7981 133.658 95.7631L142.811 93.377C142.924 93.3476 143.043 93.3585 143.149 93.408L153.614 98.3047Z" fill="#FF009B" stroke="black" stroke-linejoin="round"/>
<path d="M152.118 106.841L147.27 108.872C146.982 108.993 146.654 108.822 146.588 108.516L145.881 105.222C145.833 105.001 145.94 104.775 146.142 104.672L148.613 103.405C148.79 103.315 149.004 103.337 149.158 103.464L152.241 105.993C152.533 106.232 152.465 106.695 152.118 106.841Z" fill="#EA2978"/>
<path d="M135.533 108.355L146.053 109.058C146.385 109.08 146.645 108.779 146.576 108.454L145.879 105.213C145.833 104.995 145.647 104.834 145.424 104.819L137.175 104.267C136.976 104.254 136.788 104.361 136.697 104.539L135.121 107.629C134.958 107.949 135.175 108.331 135.533 108.355Z" fill="#FAC7EA"/>
<path d="M134.293 107.682L130.648 102.985C130.486 102.776 130.515 102.477 130.714 102.302L132.558 100.69C132.755 100.518 133.051 100.526 133.237 100.709L136.583 103.989C136.739 104.141 136.778 104.378 136.679 104.573L135.133 107.603C134.967 107.929 134.517 107.972 134.293 107.682Z" fill="#F178C2"/>
<path d="M133.631 96.5309L130.882 101.643C130.777 101.839 131.023 102.034 131.19 101.888L132.835 100.449C132.883 100.407 132.922 100.357 132.951 100.3L134.633 97.0026C134.796 96.6829 134.579 96.3005 134.221 96.2766L134.105 96.2688C133.909 96.2557 133.724 96.3582 133.631 96.5309Z" fill="#DF399A"/>
<path d="M152.949 105.546L153.375 99.1641C153.391 98.9263 153.237 98.7103 153.007 98.6481L150.93 98.0865C150.668 98.0155 150.397 98.1674 150.32 98.4284L148.998 102.934C148.941 103.126 149.006 103.334 149.161 103.461L152.133 105.899C152.447 106.157 152.921 105.951 152.949 105.546Z" fill="#FF009B"/>
<path d="M148.905 103.25L145.8 104.841M145.8 104.841L136.847 104.242M145.8 104.841L146.715 109.099M136.847 104.242L132.907 100.382M136.847 104.242L134.776 108.301" stroke="url(#paint4_linear_30956_3017)" stroke-width="1.2" stroke-linecap="round" stroke-linejoin="round"/>
<path d="M185.871 100.149C186.058 100.237 186.172 100.43 186.158 100.635L185.53 110.029C185.517 110.218 185.399 110.384 185.224 110.457L177.757 113.587C177.685 113.617 177.608 113.63 177.53 113.625L163.078 112.658C162.936 112.649 162.804 112.579 162.717 112.466L157.371 105.576C157.249 105.42 157.232 105.207 157.325 105.033L161.47 97.3261C161.536 97.2036 161.649 97.1141 161.784 97.079L172.864 94.1906C172.977 94.1612 173.097 94.1722 173.202 94.2216L185.871 100.149Z" fill="#FF009B" stroke="black" stroke-linejoin="round"/>
<path d="M184.268 110.318L178.122 112.894C177.833 113.015 177.506 112.844 177.44 112.538L176.54 108.347C176.492 108.126 176.599 107.9 176.801 107.797L179.926 106.195C180.103 106.104 180.317 106.127 180.471 106.254L184.392 109.47C184.683 109.709 184.615 110.172 184.268 110.318Z" fill="#EA2978"/>
<path d="M163.869 112.209L176.903 113.08C177.234 113.102 177.495 112.801 177.425 112.476L176.536 108.339C176.489 108.12 176.304 107.96 176.081 107.945L165.947 107.267C165.748 107.254 165.559 107.361 165.468 107.539L163.457 111.483C163.294 111.803 163.511 112.185 163.869 112.209Z" fill="#FAC7EA"/>
<path d="M162.629 111.538L158.055 105.643C157.892 105.433 157.921 105.134 158.12 104.96L160.501 102.878C160.697 102.706 160.993 102.714 161.18 102.897L165.355 106.99C165.511 107.143 165.55 107.379 165.451 107.574L163.469 111.458C163.303 111.785 162.853 111.827 162.629 111.538Z" fill="#F178C2"/>
<path d="M161.757 97.8452L158.287 104.297C158.182 104.493 158.428 104.689 158.595 104.542L160.776 102.635C160.824 102.593 160.863 102.542 160.892 102.486L163.01 98.3337C163.173 98.0139 162.956 97.6316 162.598 97.6076L162.231 97.5831C162.035 97.57 161.85 97.6725 161.757 97.8452Z" fill="#DF399A"/>
<path d="M185.096 109.026L185.631 101.01C185.647 100.773 185.493 100.557 185.263 100.494L182.567 99.7652C182.304 99.6942 182.033 99.8461 181.956 100.107L180.307 105.727C180.251 105.919 180.315 106.127 180.47 106.254L184.28 109.379C184.594 109.637 185.068 109.432 185.096 109.026Z" fill="#FF009B"/>
<path d="M180.214 106.046L176.457 107.972M176.457 107.972L165.618 107.247M176.457 107.972L177.564 113.127M165.618 107.247L160.849 102.574M165.618 107.247L163.112 112.161" stroke="url(#paint5_linear_30956_3017)" stroke-width="1.2" stroke-linecap="round" stroke-linejoin="round"/>
<g filter="url(#filter7_d_30956_3017)">
<path fill-rule="evenodd" clip-rule="evenodd" d="M220.501 10.0484C218.451 8.9099 215.895 7.6695 213.467 6.84966C211.863 6.30784 210.276 5.93598 208.911 5.91813C207.556 5.9004 206.289 6.23379 205.52 7.25813C205.142 7.76288 204.975 8.33126 205.172 8.90358C205.353 9.43182 205.799 9.81974 206.293 10.1104C207.287 10.6952 208.864 11.1085 210.624 11.4097C213.67 11.9306 217.51 12.1523 220.548 12.2053C218.678 13.7199 214.618 15.8856 207.944 16.5213C199.322 17.3424 196.596 22.0508 196.402 24.5726C196.377 24.903 196.624 25.1914 196.954 25.2169C197.285 25.2423 197.573 24.995 197.599 24.6646C197.738 22.8531 199.879 18.4948 208.057 17.7159C215.431 17.0137 219.877 14.4791 221.777 12.7289C222.915 15.5914 225.033 19.5225 228.098 23.038C231.504 26.9432 211.708 30.8713 217.5 31.6986C219.931 32.0458 222.034 32.3166 223.868 32.5528C227.358 33.0024 229.874 33.3263 231.815 33.8116C233.272 34.176 234.351 34.6207 235.238 35.2501C236.122 35.8772 236.851 36.7134 237.571 37.9133C237.741 38.1975 238.11 38.2896 238.394 38.1191C238.678 37.9487 238.77 37.5801 238.6 37.2959C237.82 35.9959 236.986 35.0195 235.933 34.2715C234.882 33.5259 233.648 33.033 232.106 32.6474C230.097 32.1451 227.47 31.8066 223.915 31.3484C222.092 31.1134 220.024 30.8469 217.67 30.5107C212.262 29.7383 232.297 26.0276 229.003 22.2493C225.936 18.7322 223.848 14.7784 222.786 12.0138C226.953 10.8483 229.645 11.1777 231.315 11.9836C233.059 12.8257 233.767 14.2241 233.906 15.2031C233.953 15.5312 234.257 15.7591 234.585 15.7122C234.913 15.6654 235.141 15.3615 235.094 15.0334C234.901 13.6791 233.959 11.9275 231.836 10.9029C229.958 9.99603 227.219 9.6875 223.353 10.6255C224.129 9.30625 224.869 7.70357 225.141 6.2138C225.327 5.18972 225.308 4.13477 224.835 3.2575C224.345 2.34951 223.435 1.74976 222.099 1.52718C220.782 1.30763 219.759 1.58287 219.193 2.44391C218.679 3.22485 218.679 4.30883 218.859 5.35783C219.112 6.83233 219.78 8.54651 220.501 10.0484ZM222.05 10.4595C222.875 9.14072 223.692 7.47046 223.96 5.99867C224.124 5.10208 224.068 4.36342 223.779 3.82724C223.506 3.32179 222.966 2.88828 221.902 2.71085C220.819 2.53041 220.392 2.8051 220.195 3.10334C219.947 3.48167 219.872 4.1663 220.042 5.15465C220.322 6.78589 221.191 8.8226 222.05 10.4595ZM219.717 10.9866C217.751 9.90581 215.349 8.75172 213.083 7.98657C211.529 7.46168 210.079 7.13351 208.896 7.11803C207.703 7.10242 206.912 7.40239 206.48 7.97811C206.259 8.27339 206.278 8.43004 206.307 8.514C206.351 8.64203 206.503 8.84163 206.901 9.07601C207.693 9.54125 209.079 9.92792 210.827 10.2268C213.518 10.6871 216.875 10.9102 219.717 10.9866Z" fill="#FF4C4C"/>
<path d="M218.366 5.44248C218.555 6.54275 218.961 7.7557 219.443 8.91194C217.646 7.97738 215.598 7.04167 213.627 6.37595C212.002 5.82707 210.358 5.43701 208.918 5.41817C207.496 5.39957 206.029 5.74643 205.12 6.95814C204.677 7.54878 204.432 8.28884 204.699 9.0659C204.937 9.76105 205.506 10.2274 206.04 10.5414C207.119 11.1759 208.774 11.6004 210.54 11.9025C213.133 12.3459 216.282 12.5737 219.031 12.6665C216.909 13.9931 213.279 15.5109 207.896 16.0236C199.091 16.8622 196.12 21.7159 195.904 24.5343C195.857 25.14 196.31 25.6688 196.916 25.7154C197.522 25.762 198.051 25.3087 198.097 24.703C198.214 23.1866 200.111 18.9749 208.105 18.2137C214.96 17.5608 219.361 15.3394 221.578 13.5584C222.782 16.3923 224.837 20.0591 227.721 23.3666C227.888 23.5572 227.96 23.7209 227.985 23.8576C228.009 23.9923 227.993 24.1369 227.922 24.3027C227.908 24.3367 227.892 24.3711 227.873 24.4061C227.783 24.4731 227.686 24.5411 227.583 24.6101C226.306 25.4654 224.331 26.2898 222.366 27.0401C221.811 27.2516 221.256 27.4578 220.72 27.6567C219.392 28.1501 218.183 28.5989 217.405 28.9751C217.129 29.1086 216.882 29.2443 216.694 29.382C216.601 29.4508 216.506 29.531 216.429 29.624C216.354 29.7138 216.267 29.8487 216.244 30.0242C216.218 30.219 216.273 30.3729 216.359 30.4918C216.333 30.5128 216.308 30.534 216.285 30.5553C216.141 30.6846 215.899 30.9422 215.935 31.2996C215.974 31.6874 216.3 31.8786 216.504 31.9669C216.739 32.0686 217.054 32.1399 217.43 32.1936C219.863 32.5412 221.969 32.8124 223.803 33.0486L223.804 33.0487C227.307 33.4999 229.788 33.8202 231.693 34.2967C233.116 34.6523 234.13 35.0769 234.949 35.6579C235.761 36.2346 236.447 37.0123 237.142 38.1706C237.455 38.6915 238.13 38.8605 238.651 38.5479C239.172 38.2353 239.341 37.5596 239.029 37.0387C238.223 35.697 237.347 34.6621 236.222 33.8638C235.103 33.0697 233.805 32.5568 232.227 32.1624C230.19 31.653 227.539 31.3114 224.014 30.857L223.979 30.8525C222.517 30.6641 220.901 30.4558 219.107 30.2077C219.577 30.0101 220.095 29.7998 220.644 29.5773C221.11 29.3884 221.597 29.1908 222.096 28.9845C223.989 28.2003 226.016 27.2973 227.357 26.3275C227.876 25.9528 228.332 25.5396 228.631 25.0855C229.098 24.7183 229.48 24.3153 229.691 23.8729C229.837 23.5665 229.906 23.2315 229.853 22.8814C229.801 22.5331 229.634 22.2122 229.379 21.9207C226.543 18.668 224.555 15.0329 223.458 12.3513C227.241 11.3815 229.642 11.7312 231.097 12.4339C232.684 13.2 233.294 14.4513 233.411 15.2738C233.497 15.8752 234.055 16.2931 234.656 16.2072C235.257 16.1213 235.675 15.5641 235.589 14.9627C235.374 13.4521 234.334 11.5533 232.054 10.4527C230.23 9.57206 227.708 9.24597 224.323 9.90168C224.905 8.77312 225.412 7.51206 225.633 6.30344C225.829 5.22638 225.825 4.03959 225.275 3.02011C224.694 1.94401 223.629 1.27528 222.181 1.03398C220.769 0.79859 219.497 1.07199 218.775 2.16914C218.151 3.11782 218.182 4.36817 218.366 5.44248ZM223.468 5.90904C223.265 7.02584 222.716 8.2907 222.085 9.41955C221.386 7.97818 220.758 6.37336 220.535 5.06999C220.369 4.10685 220.475 3.58865 220.613 3.3781C220.651 3.32049 220.714 3.25202 220.865 3.20481C221.032 3.15283 221.324 3.12141 221.82 3.20405C222.77 3.36252 223.156 3.72633 223.339 4.06463C223.551 4.4588 223.622 5.06577 223.468 5.90904ZM212.923 8.46028C214.446 8.97443 216.036 9.6693 217.514 10.4C215.263 10.2839 212.898 10.0739 210.911 9.73399C209.168 9.43596 207.861 9.0604 207.155 8.64502C206.984 8.54429 206.883 8.46153 206.828 8.40495C206.821 8.39791 206.815 8.39144 206.81 8.38553C206.824 8.36013 206.846 8.32457 206.88 8.2781C207.173 7.88865 207.765 7.60328 208.889 7.61798C209.997 7.63247 211.39 7.94243 212.923 8.46028Z" stroke="black" stroke-linecap="round" stroke-linejoin="round"/>
</g>
<path d="M227.769 22.6618C227.561 22.8433 227.539 23.1591 227.721 23.3673C231.172 27.3253 235.892 30.8581 241.844 31.7083C244.278 32.0559 246.384 32.3271 248.218 32.5633L248.219 32.5634C251.721 33.0145 254.202 33.3349 256.108 33.8113C257.53 34.167 258.545 34.5916 259.363 35.1726C260.176 35.7493 260.862 36.527 261.557 37.6853C261.869 38.2062 262.545 38.3751 263.066 38.0626L262.809 37.6338L263.066 38.0626C263.587 37.75 263.756 37.0743 263.443 36.5534L263.014 36.8106L263.443 36.5534C262.638 35.2117 261.761 34.1768 260.637 33.3785C259.518 32.5844 258.219 32.0715 256.642 31.677C254.604 31.1676 251.954 30.826 248.428 30.3716L248.393 30.3671L248.393 30.3671L248.393 30.3671C248.393 30.3671 248.393 30.3671 248.393 30.3671C246.57 30.1321 244.505 29.866 242.155 29.5304C236.908 28.7808 232.627 25.6468 229.379 21.9214C229.292 21.8214 229.168 21.7602 229.036 21.7512C228.904 21.7421 228.773 21.786 228.673 21.8732L227.769 22.6618Z" fill="#FF4C4C" stroke="black" stroke-linecap="round" stroke-linejoin="round"/>
<path d="M219 10.6188C221 11.0188 221.5 12.7855 221.5 13.6188C222.5 13.2855 224.3 12.1188 223.5 10.1188C222.5 7.61884 216.5 10.1188 219 10.6188Z" fill="#FF4C4C" stroke="black" stroke-width="1.2" stroke-linecap="round" stroke-linejoin="round"/>
<g filter="url(#filter8_d_30956_3017)">
<path fill-rule="evenodd" clip-rule="evenodd" d="M213.08 32.4637C213.166 32.7837 212.976 33.1129 212.656 33.1991C210.564 33.7625 207.457 35.147 204.984 37.4466C202.525 39.7336 200.719 42.8953 201.098 47.0654C201.604 52.633 200.978 59.4985 198.481 64.8123C197.23 67.4753 195.495 69.7777 193.167 71.3156C190.83 72.8598 187.938 73.6053 184.434 73.216C184.105 73.1794 183.868 72.8828 183.904 72.5534C183.941 72.2241 184.237 71.9868 184.567 72.0234C187.813 72.3841 190.421 71.6921 192.506 70.3144C194.6 68.9305 196.209 66.8265 197.395 64.302C199.773 59.2409 200.397 52.6064 199.903 47.174C199.482 42.544 201.509 39.0391 204.167 36.5678C206.811 34.109 210.104 32.6435 212.344 32.0403C212.664 31.9542 212.994 32.1437 213.08 32.4637ZM268.623 64.1533C268.88 63.9448 269.258 63.9846 269.467 64.2422C272.312 67.757 275.786 73.0447 276.81 77.4076C277.321 79.585 277.258 81.6929 275.995 83.2017C274.731 84.7117 272.432 85.4226 268.965 85.2186C265.649 85.0236 263.338 85.6216 261.754 86.6523C260.178 87.6776 259.256 89.1738 258.793 90.9117C257.854 94.4316 258.826 98.86 260.056 101.894C260.181 102.201 260.033 102.551 259.726 102.676C259.419 102.8 259.069 102.652 258.944 102.345C257.674 99.2127 256.597 94.4911 257.633 90.6026C258.157 88.6364 259.229 86.8638 261.1 85.6465C262.963 84.4344 265.552 83.8158 269.036 84.0207C272.369 84.2168 274.178 83.5026 275.075 82.4315C275.972 81.359 276.122 79.7294 275.641 77.6818C274.682 73.5947 271.355 68.4823 268.534 64.9972C268.326 64.7396 268.365 64.3618 268.623 64.1533Z" fill="#FF4C4C"/>
<path d="M212.786 33.6819C213.373 33.5239 213.721 32.9203 213.563 32.3337C213.405 31.7471 212.801 31.3996 212.214 31.5575C209.913 32.1773 206.542 33.6765 203.826 36.2017C201.087 38.7496 198.967 42.3976 199.405 47.2193C199.894 52.5953 199.271 59.1335 196.942 64.0894C195.783 66.5562 194.227 68.5774 192.23 69.8973C190.25 71.2055 187.761 71.8752 184.622 71.5264C184.018 71.4593 183.474 71.8944 183.407 72.4982C183.34 73.102 183.775 73.6459 184.379 73.713C187.989 74.1141 191.001 73.3463 193.443 71.7327C195.867 70.1307 197.655 67.7457 198.934 65.025C201.48 59.6058 202.107 52.644 201.596 47.0201C201.234 43.0415 202.948 40.0229 205.325 37.8127C207.726 35.5796 210.755 34.2288 212.786 33.6819ZM269.855 63.9276C269.473 63.4554 268.78 63.3825 268.308 63.7647C267.836 64.147 267.763 64.8396 268.145 65.3118C270.957 68.7845 274.222 73.8238 275.155 77.796C275.622 79.7889 275.437 81.2196 274.691 82.1105C273.948 82.999 272.342 83.7143 269.065 83.5216C265.511 83.3125 262.806 83.9397 260.827 85.2274C258.833 86.5247 257.7 88.4126 257.15 90.4738C256.072 94.5159 257.195 99.3597 258.481 102.533C258.709 103.096 259.351 103.367 259.914 103.139C260.477 102.911 260.748 102.269 260.52 101.706C259.306 98.713 258.378 94.4068 259.276 91.0405C259.714 89.3978 260.574 88.0168 262.027 87.0714C263.495 86.1163 265.69 85.5268 268.936 85.7178C272.458 85.925 274.961 85.2157 276.378 83.5226C277.793 81.8318 277.82 79.5244 277.296 77.2933C276.245 72.8156 272.711 67.4549 269.855 63.9276Z" stroke="black" stroke-linecap="round" stroke-linejoin="round"/>
</g>
<path fill-rule="evenodd" clip-rule="evenodd" d="M240.799 56.6735C236.752 51.4235 233.398 51.8861 232.521 52.3742C232.135 52.589 231.648 52.4503 231.433 52.0642C231.218 51.6782 231.357 51.191 231.743 50.9761C233.583 49.952 237.753 50.1014 242.066 55.6966C242.336 56.0465 242.271 56.5488 241.921 56.8186C241.571 57.0883 241.069 57.0234 240.799 56.6735Z" fill="#FF4C4C" stroke="black" stroke-linecap="round" stroke-linejoin="round"/>
<g filter="url(#filter9_di_30956_3017)">
<path d="M232.148 52.6405C226.182 56.4012 218.307 54.2194 214.02 44.1053C212.167 39.7326 211.822 35.8893 212.509 32.5425C214.678 21.9654 227.148 16.3469 234.868 14.6453C244.068 33.9904 239.596 47.9459 232.148 52.6405Z" fill="#FF4C4C"/>
<path d="M262.156 70.4715C250.557 70.6206 243.519 61.6529 241.449 57.1504C249.708 39.7388 259.554 36.323 263.54 37.5483C264.626 37.8821 265.277 38.5601 265.343 39.3935C265.563 42.1628 271.195 56.6251 269.208 64.8097C268.401 68.1304 266.341 70.4177 262.156 70.4715Z" fill="#FF4C4C"/>
<path d="M232.148 52.6405C226.182 56.4012 218.307 54.2194 214.02 44.1053C212.167 39.7326 211.822 35.8893 212.509 32.5425C214.678 21.9654 227.148 16.3469 234.868 14.6453C244.068 33.9904 239.596 47.9459 232.148 52.6405Z" stroke="black" stroke-width="0.6" stroke-linecap="round" stroke-linejoin="round"/>
<path d="M262.156 70.4715C250.557 70.6206 243.519 61.6529 241.449 57.1504C249.708 39.7388 259.554 36.323 263.54 37.5483C264.626 37.8821 265.277 38.5601 265.343 39.3935C265.563 42.1628 271.195 56.6251 269.208 64.8097C268.401 68.1304 266.341 70.4177 262.156 70.4715Z" stroke="black" stroke-width="0.6" stroke-linecap="round" stroke-linejoin="round"/>
<path d="M222.619 31.1901C223.48 29.2711 224.047 27.5027 224.174 26.1785C226.141 27.0423 229.599 29.1184 229.087 31.7381C228.843 32.9837 227.369 32.9209 225.889 32.5123C227.41 33.5877 228.501 35.2514 227.493 37.2895C226.616 39.0621 222.912 37.3098 220.612 35.0296C221.378 33.7399 222.06 32.4334 222.619 31.1901Z" fill="#FF4C4C" stroke="white" stroke-width="2" stroke-linecap="round" stroke-linejoin="round"/>
<path d="M235.138 36.4805C234.804 34.8461 233.486 32.8889 232.172 31.5859C232.506 33.2204 232.264 35.072 231.541 36.8236M232.555 44.3442C232.218 42.0554 229.592 40.1039 229.592 40.1039C230.243 39.4467 230.609 39.078 231.541 36.8236M231.541 36.8236C232.118 37.3959 233.184 38.4522 233.844 39.758" stroke="white" stroke-width="2" stroke-linecap="round" stroke-linejoin="round"/>
<path d="M248.783 55.9556C248.751 54.0852 251.598 50.0343 253.026 48.2426C254.194 48.2899 256.656 48.8569 257.156 50.7462C257.78 53.1077 253.723 54.6951 250.762 52.2389C251.756 53.4473 253.87 56.4533 254.378 58.8101M257.616 60.4015C257.934 59.9806 258.909 58.8316 259.316 58.1462M263.477 61.807C264.806 57.6556 262.556 53.5928 261.265 52.0804C261.466 53.9427 260.37 56.3707 259.316 58.1462M259.316 58.1462C260.102 58.3687 261.85 58.8792 262.555 59.1414" stroke="white" stroke-width="2" stroke-linecap="round" stroke-linejoin="round"/>
</g>
<defs>
<filter id="filter0_ii_30956_3017" x="205.649" y="76.1191" width="20" height="19" filterUnits="userSpaceOnUse" color-interpolation-filters="sRGB">
<feFlood flood-opacity="0" result="BackgroundImageFix"/>
<feBlend mode="normal" in="SourceGraphic" in2="BackgroundImageFix" result="shape"/>
<feColorMatrix in="SourceAlpha" type="matrix" values="0 0 0 0 0 0 0 0 0 0 0 0 0 0 0 0 0 0 127 0" result="hardAlpha"/>
<feOffset dx="-3"/>
<feComposite in2="hardAlpha" operator="arithmetic" k2="-1" k3="1"/>
<feColorMatrix type="matrix" values="0 0 0 0 1 0 0 0 0 1 0 0 0 0 1 0 0 0 0.25 0"/>
<feBlend mode="normal" in2="shape" result="effect1_innerShadow_30956_3017"/>
<feColorMatrix in="SourceAlpha" type="matrix" values="0 0 0 0 0 0 0 0 0 0 0 0 0 0 0 0 0 0 127 0" result="hardAlpha"/>
<feOffset dx="3"/>
<feComposite in2="hardAlpha" operator="arithmetic" k2="-1" k3="1"/>
<feColorMatrix type="matrix" values="0 0 0 0 0 0 0 0 0 0 0 0 0 0 0 0 0 0 0.25 0"/>
<feBlend mode="normal" in2="effect1_innerShadow_30956_3017" result="effect2_innerShadow_30956_3017"/>
</filter>
<filter id="filter1_ii_30956_3017" x="175.147" y="69.1191" width="13.502" height="13" filterUnits="userSpaceOnUse" color-interpolation-filters="sRGB">
<feFlood flood-opacity="0" result="BackgroundImageFix"/>
<feBlend mode="normal" in="SourceGraphic" in2="BackgroundImageFix" result="shape"/>
<feColorMatrix in="SourceAlpha" type="matrix" values="0 0 0 0 0 0 0 0 0 0 0 0 0 0 0 0 0 0 127 0" result="hardAlpha"/>
<feOffset dx="-3"/>
<feComposite in2="hardAlpha" operator="arithmetic" k2="-1" k3="1"/>
<feColorMatrix type="matrix" values="0 0 0 0 1 0 0 0 0 1 0 0 0 0 1 0 0 0 0.25 0"/>
<feBlend mode="normal" in2="shape" result="effect1_innerShadow_30956_3017"/>
<feColorMatrix in="SourceAlpha" type="matrix" values="0 0 0 0 0 0 0 0 0 0 0 0 0 0 0 0 0 0 127 0" result="hardAlpha"/>
<feOffset dx="3"/>
<feComposite in2="hardAlpha" operator="arithmetic" k2="-1" k3="1"/>
<feColorMatrix type="matrix" values="0 0 0 0 0 0 0 0 0 0 0 0 0 0 0 0 0 0 0.25 0"/>
<feBlend mode="normal" in2="effect1_innerShadow_30956_3017" result="effect2_innerShadow_30956_3017"/>
</filter>
<filter id="filter2_ii_30956_3017" x="244.647" y="69.1191" width="13.502" height="13" filterUnits="userSpaceOnUse" color-interpolation-filters="sRGB">
<feFlood flood-opacity="0" result="BackgroundImageFix"/>
<feBlend mode="normal" in="SourceGraphic" in2="BackgroundImageFix" result="shape"/>
<feColorMatrix in="SourceAlpha" type="matrix" values="0 0 0 0 0 0 0 0 0 0 0 0 0 0 0 0 0 0 127 0" result="hardAlpha"/>
<feOffset dx="-3"/>
<feComposite in2="hardAlpha" operator="arithmetic" k2="-1" k3="1"/>
<feColorMatrix type="matrix" values="0 0 0 0 1 0 0 0 0 1 0 0 0 0 1 0 0 0 0.25 0"/>
<feBlend mode="normal" in2="shape" result="effect1_innerShadow_30956_3017"/>
<feColorMatrix in="SourceAlpha" type="matrix" values="0 0 0 0 0 0 0 0 0 0 0 0 0 0 0 0 0 0 127 0" result="hardAlpha"/>
<feOffset dx="3"/>
<feComposite in2="hardAlpha" operator="arithmetic" k2="-1" k3="1"/>
<feColorMatrix type="matrix" values="0 0 0 0 0 0 0 0 0 0 0 0 0 0 0 0 0 0 0.25 0"/>
<feBlend mode="normal" in2="effect1_innerShadow_30956_3017" result="effect2_innerShadow_30956_3017"/>
</filter>
<filter id="filter3_ii_30956_3017" x="211.647" y="29.6191" width="13.502" height="13" filterUnits="userSpaceOnUse" color-interpolation-filters="sRGB">
<feFlood flood-opacity="0" result="BackgroundImageFix"/>
<feBlend mode="normal" in="SourceGraphic" in2="BackgroundImageFix" result="shape"/>
<feColorMatrix in="SourceAlpha" type="matrix" values="0 0 0 0 0 0 0 0 0 0 0 0 0 0 0 0 0 0 127 0" result="hardAlpha"/>
<feOffset dx="-3"/>
<feComposite in2="hardAlpha" operator="arithmetic" k2="-1" k3="1"/>
<feColorMatrix type="matrix" values="0 0 0 0 1 0 0 0 0 1 0 0 0 0 1 0 0 0 0.25 0"/>
<feBlend mode="normal" in2="shape" result="effect1_innerShadow_30956_3017"/>
<feColorMatrix in="SourceAlpha" type="matrix" values="0 0 0 0 0 0 0 0 0 0 0 0 0 0 0 0 0 0 127 0" result="hardAlpha"/>
<feOffset dx="3"/>
<feComposite in2="hardAlpha" operator="arithmetic" k2="-1" k3="1"/>
<feColorMatrix type="matrix" values="0 0 0 0 0 0 0 0 0 0 0 0 0 0 0 0 0 0 0.25 0"/>
<feBlend mode="normal" in2="effect1_innerShadow_30956_3017" result="effect2_innerShadow_30956_3017"/>
</filter>
<filter id="filter4_d_30956_3017" x="227.4" y="99.5195" width="24.1992" height="24.2021" filterUnits="userSpaceOnUse" color-interpolation-filters="sRGB">
<feFlood flood-opacity="0" result="BackgroundImageFix"/>
<feColorMatrix in="SourceAlpha" type="matrix" values="0 0 0 0 0 0 0 0 0 0 0 0 0 0 0 0 0 0 127 0" result="hardAlpha"/>
<feOffset dy="2"/>
<feComposite in2="hardAlpha" operator="out"/>
<feColorMatrix type="matrix" values="0 0 0 0 0 0 0 0 0 0 0 0 0 0 0 0 0 0 0.25 0"/>
<feBlend mode="normal" in2="BackgroundImageFix" result="effect1_dropShadow_30956_3017"/>
<feBlend mode="normal" in="SourceGraphic" in2="effect1_dropShadow_30956_3017" result="shape"/>
</filter>
<filter id="filter5_d_30956_3017" x="132.4" y="116.012" width="50.5938" height="19.1299" filterUnits="userSpaceOnUse" color-interpolation-filters="sRGB">
<feFlood flood-opacity="0" result="BackgroundImageFix"/>
<feColorMatrix in="SourceAlpha" type="matrix" values="0 0 0 0 0 0 0 0 0 0 0 0 0 0 0 0 0 0 127 0" result="hardAlpha"/>
<feOffset dy="2"/>
<feComposite in2="hardAlpha" operator="out"/>
<feColorMatrix type="matrix" values="0 0 0 0 0 0 0 0 0 0 0 0 0 0 0 0 0 0 0.25 0"/>
<feBlend mode="normal" in2="BackgroundImageFix" result="effect1_dropShadow_30956_3017"/>
<feBlend mode="normal" in="SourceGraphic" in2="effect1_dropShadow_30956_3017" result="shape"/>
</filter>
<filter id="filter6_d_30956_3017" x="174.7" y="105.819" width="61.5996" height="31.5996" filterUnits="userSpaceOnUse" color-interpolation-filters="sRGB">
<feFlood flood-opacity="0" result="BackgroundImageFix"/>
<feColorMatrix in="SourceAlpha" type="matrix" values="0 0 0 0 0 0 0 0 0 0 0 0 0 0 0 0 0 0 127 0" result="hardAlpha"/>
<feOffset dy="2"/>
<feComposite in2="hardAlpha" operator="out"/>
<feColorMatrix type="matrix" values="0 0 0 0 0 0 0 0 0 0 0 0 0 0 0 0 0 0 0.25 0"/>
<feBlend mode="normal" in2="BackgroundImageFix" result="effect1_dropShadow_30956_3017"/>
<feBlend mode="normal" in="SourceGraphic" in2="effect1_dropShadow_30956_3017" result="shape"/>
</filter>
<filter id="filter7_d_30956_3017" x="195.4" y="0.457031" width="44.2852" height="39.748" filterUnits="userSpaceOnUse" color-interpolation-filters="sRGB">
<feFlood flood-opacity="0" result="BackgroundImageFix"/>
<feColorMatrix in="SourceAlpha" type="matrix" values="0 0 0 0 0 0 0 0 0 0 0 0 0 0 0 0 0 0 127 0" result="hardAlpha"/>
<feOffset dy="1"/>
<feComposite in2="hardAlpha" operator="out"/>
<feColorMatrix type="matrix" values="0 0 0 0 0 0 0 0 0 0 0 0 0 0 0 0 0 0 0.25 0"/>
<feBlend mode="normal" in2="BackgroundImageFix" result="effect1_dropShadow_30956_3017"/>
<feBlend mode="normal" in="SourceGraphic" in2="effect1_dropShadow_30956_3017" result="shape"/>
</filter>
<filter id="filter8_d_30956_3017" x="182.9" y="31.0195" width="95.209" height="75.7002" filterUnits="userSpaceOnUse" color-interpolation-filters="sRGB">
<feFlood flood-opacity="0" result="BackgroundImageFix"/>
<feColorMatrix in="SourceAlpha" type="matrix" values="0 0 0 0 0 0 0 0 0 0 0 0 0 0 0 0 0 0 127 0" result="hardAlpha"/>
<feOffset dy="3"/>
<feComposite in2="hardAlpha" operator="out"/>
<feColorMatrix type="matrix" values="0 0 0 0 0 0 0 0 0 0 0 0 0 0 0 0 0 0 0.25 0"/>
<feBlend mode="normal" in2="BackgroundImageFix" result="effect1_dropShadow_30956_3017"/>
<feBlend mode="normal" in="SourceGraphic" in2="effect1_dropShadow_30956_3017" result="shape"/>
</filter>
<filter id="filter9_di_30956_3017" x="211.882" y="14.3457" width="58.0498" height="63.4277" filterUnits="userSpaceOnUse" color-interpolation-filters="sRGB">
<feFlood flood-opacity="0" result="BackgroundImageFix"/>
<feColorMatrix in="SourceAlpha" type="matrix" values="0 0 0 0 0 0 0 0 0 0 0 0 0 0 0 0 0 0 127 0" result="hardAlpha"/>
<feOffset dy="7"/>
<feComposite in2="hardAlpha" operator="out"/>
<feColorMatrix type="matrix" values="0 0 0 0 0 0 0 0 0 0 0 0 0 0 0 0 0 0 0.25 0"/>
<feBlend mode="normal" in2="BackgroundImageFix" result="effect1_dropShadow_30956_3017"/>
<feBlend mode="normal" in="SourceGraphic" in2="effect1_dropShadow_30956_3017" result="shape"/>
<feColorMatrix in="SourceAlpha" type="matrix" values="0 0 0 0 0 0 0 0 0 0 0 0 0 0 0 0 0 0 127 0" result="hardAlpha"/>
<feOffset dx="3" dy="-5"/>
<feComposite in2="hardAlpha" operator="arithmetic" k2="-1" k3="1"/>
<feColorMatrix type="matrix" values="0 0 0 0 0 0 0 0 0 0 0 0 0 0 0 0 0 0 0.25 0"/>
<feBlend mode="normal" in2="shape" result="effect2_innerShadow_30956_3017"/>
</filter>
<linearGradient id="paint0_linear_30956_3017" x1="107.178" y1="27.8106" x2="107.262" y2="37.7817" gradientUnits="userSpaceOnUse">
<stop stop-color="white"/>
<stop offset="1" stop-color="white" stop-opacity="0"/>
</linearGradient>
<linearGradient id="paint1_linear_30956_3017" x1="117.645" y1="42.4552" x2="112.987" y2="55.5953" gradientUnits="userSpaceOnUse">
<stop stop-color="white"/>
<stop offset="1" stop-color="white" stop-opacity="0"/>
</linearGradient>
<linearGradient id="paint2_linear_30956_3017" x1="267.493" y1="91.0248" x2="266.844" y2="100.73" gradientUnits="userSpaceOnUse">
<stop stop-color="white"/>
<stop offset="1" stop-color="white" stop-opacity="0"/>
</linearGradient>
<linearGradient id="paint3_linear_30956_3017" x1="160.672" y1="79.0931" x2="159.688" y2="93.8103" gradientUnits="userSpaceOnUse">
<stop stop-color="white"/>
<stop offset="1" stop-color="white" stop-opacity="0"/>
</linearGradient>
<linearGradient id="paint4_linear_30956_3017" x1="140.966" y1="100.92" x2="140.447" y2="108.68" gradientUnits="userSpaceOnUse">
<stop stop-color="white"/>
<stop offset="1" stop-color="white" stop-opacity="0"/>
</linearGradient>
<linearGradient id="paint5_linear_30956_3017" x1="170.604" y1="103.226" x2="169.976" y2="112.62" gradientUnits="userSpaceOnUse">
<stop stop-color="white"/>
<stop offset="1" stop-color="white" stop-opacity="0"/>
</linearGradient>
</defs>
</svg>
