<svg width="365" height="226" viewBox="0 0 365 226" fill="none" xmlns="http://www.w3.org/2000/svg">
<g clip-path="url(#clip0_30956_4191)">
<path d="M358.967 183.846C360.59 184.48 361.61 185.107 362.139 185.695C362.398 185.982 362.522 186.241 362.562 186.47C362.6 186.695 362.565 186.935 362.429 187.204C362.142 187.769 361.431 188.419 360.203 189.121C358.992 189.814 357.346 190.52 355.289 191.231C347.052 194.078 332.503 196.91 313.864 199.364C276.606 204.268 223.151 207.641 171.546 206.642C119.934 205.642 72.4732 201.614 40.7559 196.823C24.8856 194.426 12.9962 191.842 6.49872 189.365C4.87645 188.747 3.6109 188.142 2.7098 187.56C1.79079 186.967 1.3288 186.446 1.18407 186.026C1.11706 185.832 1.11622 185.655 1.17361 185.48C1.23357 185.297 1.36742 185.085 1.61785 184.849C2.12719 184.369 3.03874 183.866 4.43443 183.365C26.5192 175.44 45.9381 166.903 63.9355 158.99C74.2567 154.452 84.1103 150.12 93.7312 146.227C120.158 135.533 144.911 128.111 173.057 128.656C224.646 129.656 250.999 135.614 274.487 145.219C284.131 149.163 293.294 153.722 303.536 158.818C305.784 159.936 308.083 161.08 310.45 162.249C323.604 168.744 338.846 175.998 358.967 183.846Z" fill="#FFF5A9" stroke="black"/>
<path d="M363.36 220.036C363.615 220.136 363.748 220.223 363.81 220.278C363.771 220.326 363.689 220.407 363.528 220.513C363.313 220.656 363.007 220.812 362.604 220.979C360.984 221.649 358.083 222.366 354.323 223.012C346.823 224.301 336.053 225.283 325.657 225.082C315.269 224.881 305.719 223.315 299.347 221.6C296.151 220.739 293.795 219.852 292.533 219.1C292.22 218.913 291.991 218.745 291.837 218.599C291.697 218.466 291.648 218.379 291.633 218.34C291.672 218.298 291.781 218.215 292.031 218.125C292.351 218.01 292.669 217.896 292.984 217.783C306.478 212.939 314.903 209.914 325.947 210.128C337.257 210.347 347.114 213.699 363.36 220.036Z" fill="#FFF5A9" stroke="black"/>
<path d="M181.447 146.766C181.818 146.677 182.201 146.648 182.582 146.682L295.763 156.823C299.707 157.176 300.123 162.779 296.273 163.711L221.146 181.887C220.775 181.977 220.391 182.006 220.011 181.971L106.83 171.831C102.886 171.477 102.47 165.874 106.319 164.943L181.447 146.766Z" fill="#CBCBCB" stroke="black"/>
<ellipse cx="48.07" cy="7.2105" rx="48.07" ry="7.2105" transform="matrix(-0.999974 0.00724792 0.00724792 0.999974 245.449 161.932)" fill="black" fill-opacity="0.2"/>
<ellipse cx="26.0797" cy="7.6912" rx="26.0797" ry="7.6912" transform="matrix(-0.999974 0.00724792 0.00724792 0.999974 103.336 174.85)" fill="black" fill-opacity="0.2"/>
<path d="M188.702 96.4744L120.771 96.9668L138.559 131.128L208.631 132.511L188.702 96.4744Z" fill="#8C8C8C"/>
<path d="M208.631 132.511L188.702 96.4744L120.771 96.9668L138.559 131.128M208.631 132.511L138.559 131.128M208.631 132.511L221.004 155.104M138.559 131.128L148.068 149.726" stroke="black"/>
<path d="M189.014 96.4728L116.726 96.9985L95.5027 135.43L169.932 136.779L189.014 96.4728Z" fill="#E0E0E0"/>
<path d="M169.932 136.779L189.014 96.4728L116.726 96.9985L95.5027 135.43M169.932 136.779L95.5027 135.43M169.932 136.779L156.456 168.302M95.5027 135.43L79.1626 162.957" stroke="black"/>
<path fill-rule="evenodd" clip-rule="evenodd" d="M81.0406 187.529C94.8475 187.594 106.054 184.671 106.103 174.255C106.153 163.838 94.9738 160.809 81.1668 160.744C67.3598 160.679 56.1545 163.305 56.104 174.019C56.0591 183.543 67.2336 187.464 81.0406 187.529ZM72.8576 173.678C75.437 171.78 86.1315 170.504 90.5726 173.248C88.7355 174.309 75.626 174.938 72.8576 173.678Z" fill="#ABABAB"/>
<path d="M106.103 174.255L105.603 174.252L106.103 174.255ZM81.1668 160.744L81.1692 160.244L81.1668 160.744ZM56.104 174.019L55.604 174.017L56.104 174.019ZM72.8576 173.678L72.5612 173.276L71.8752 173.781L72.6506 174.134L72.8576 173.678ZM90.5726 173.248L90.8226 173.681L91.5474 173.263L90.8354 172.823L90.5726 173.248ZM105.603 174.252C105.592 176.761 104.91 178.792 103.705 180.437C102.496 182.087 100.738 183.379 98.5273 184.366C94.0932 186.346 87.927 187.062 81.0429 187.029L81.0382 188.029C87.9611 188.062 94.3019 187.348 98.9351 185.279C101.259 184.241 103.174 182.854 104.512 181.028C105.853 179.197 106.591 176.956 106.603 174.257L105.603 174.252ZM81.1645 161.244C88.0485 161.276 94.2077 162.05 98.6229 164.072C100.824 165.08 102.57 166.388 103.763 168.05C104.953 169.706 105.615 171.743 105.603 174.252L106.603 174.257C106.616 171.557 105.9 169.31 104.575 167.466C103.255 165.628 101.353 164.222 99.0393 163.163C94.4258 161.05 88.0921 160.277 81.1692 160.244L81.1645 161.244ZM56.604 174.021C56.6162 171.435 57.2995 169.367 58.5042 167.709C59.7122 166.047 61.4687 164.766 63.6775 163.797C68.1106 161.854 74.2754 161.212 81.1645 161.244L81.1692 160.244C74.2512 160.211 67.9099 160.85 63.276 162.881C60.9512 163.901 59.0339 165.28 57.6953 167.122C56.3533 168.968 55.617 171.246 55.604 174.017L56.604 174.021ZM81.0429 187.029C74.1734 186.997 68.0132 186.004 63.5952 183.871C59.1975 181.748 56.5827 178.534 56.604 174.021L55.604 174.017C55.5804 179.028 58.5304 182.536 63.1605 184.771C67.7703 186.997 74.1008 187.997 81.0382 188.029L81.0429 187.029ZM73.1541 174.081C73.7145 173.668 74.7844 173.251 76.2057 172.91C77.6089 172.574 79.2971 172.326 81.0469 172.221C82.7971 172.116 84.5964 172.155 86.2235 172.386C87.8575 172.618 89.2822 173.039 90.3098 173.674L90.8354 172.823C89.6425 172.086 88.0649 171.637 86.364 171.396C84.6563 171.153 82.788 171.115 80.987 171.223C79.1857 171.331 77.439 171.587 75.9727 171.938C74.5246 172.285 73.2904 172.739 72.5612 173.276L73.1541 174.081ZM90.3226 172.815C90.1668 172.905 89.8294 173.018 89.2922 173.134C88.7724 173.246 88.1148 173.351 87.3578 173.444C85.845 173.63 83.9627 173.768 82.0472 173.834C80.1315 173.899 78.1926 173.893 76.5659 173.793C75.7524 173.742 75.0235 173.669 74.418 173.571C73.8042 173.472 73.3492 173.353 73.0647 173.223L72.6506 174.134C73.0582 174.319 73.6184 174.455 74.2586 174.559C74.9071 174.663 75.6709 174.739 76.5044 174.791C78.1718 174.894 80.1442 174.9 82.0815 174.833C84.0191 174.766 85.9316 174.627 87.48 174.436C88.2537 174.341 88.9433 174.232 89.5028 174.112C90.0451 173.995 90.5191 173.856 90.8226 173.681L90.3226 172.815Z" fill="black"/>
<path d="M69.7351 171.805C69.7236 172.493 71.0593 174.591 82.551 174.204C87.1582 174.049 92.9867 173.895 93.2802 170.867" stroke="black" stroke-linecap="round" stroke-linejoin="round"/>
<path d="M63.3625 168.545C63.8686 167.301 66.4521 165.129 73.2552 164.467M77.0242 163.924L79.0855 163.958" stroke="white" stroke-width="2" stroke-linecap="round"/>
<rect x="249.757" y="91.8216" width="6.3933" height="53.5967" rx="1.5" transform="rotate(-0.415279 249.757 91.8216)" fill="#787878" stroke="black"/>
<path d="M254.383 92.9951L254.743 142.756" stroke="black"/>
<rect x="226.804" y="94.5579" width="52.3351" height="29.1187" rx="1.5" transform="rotate(-0.415279 226.804 94.5579)" fill="#E0E0E0" stroke="black"/>
<path d="M176.391 85.4763C137.992 89.6906 135.751 85.7952 135.751 85.7952C149.993 78.7528 164.473 74.0055 178.363 70.9291C191.016 68.1268 203.179 66.711 214.228 66.21C233.536 65.3346 249.441 67.2529 258.605 69.4476C258.605 69.4476 258.497 73.0665 218.908 79.5795C213.233 80.5132 206.746 81.5064 199.332 82.5569C190.524 83.805 182.932 84.7583 176.391 85.4763Z" fill="#CFCAB9"/>
<path d="M176.391 85.4763C137.992 89.6906 135.751 85.7952 135.751 85.7952C149.993 78.7528 164.473 74.0055 178.363 70.9291C191.016 68.1268 203.179 66.711 214.228 66.21C233.536 65.3346 249.441 67.2529 258.605 69.4476C258.605 69.4476 258.497 73.0665 218.908 79.5795C213.233 80.5132 206.746 81.5064 199.332 82.5569C190.524 83.805 182.932 84.7583 176.391 85.4763Z" fill="#CFCAB9"/>
<path d="M176.391 85.4763C137.992 89.6906 135.751 85.7952 135.751 85.7952C149.993 78.7528 164.473 74.0055 178.363 70.9291M176.391 85.4763C182.932 84.7583 190.524 83.805 199.332 82.5569C206.746 81.5064 213.233 80.5132 218.908 79.5795M176.391 85.4763C176.478 82.2272 176.995 74.7691 178.363 70.9291M178.363 70.9291C191.016 68.1268 203.179 66.711 214.228 66.21M214.228 66.21C233.536 65.3346 249.441 67.2529 258.605 69.4476C258.605 69.4476 258.497 73.0665 218.908 79.5795M214.228 66.21C215.576 69.1207 218.4 75.8695 218.908 79.5795" stroke="black" stroke-linecap="round"/>
<path d="M199.333 82.5572C190.524 83.8052 182.933 84.7586 176.392 85.4765C176.479 82.2275 176.996 74.7693 178.364 70.9293C191.017 68.127 203.18 66.7112 214.229 66.2103C215.577 69.1209 218.401 75.8698 218.909 79.5797C213.234 80.5134 206.747 81.5066 199.333 82.5572Z" fill="#878787" stroke="black" stroke-linecap="round"/>
<rect x="190.347" y="39.2329" width="5" height="104.474" rx="2.5" transform="rotate(-7.23018 190.347 39.2329)" fill="#A6A6A6" stroke="black"/>
<path d="M194.215 47.8001C148.256 52.3654 136.09 75.0331 135.752 85.7963C185.64 61.1282 238.441 64.6195 258.606 69.4487C256.292 60.3303 240.175 43.2348 194.215 47.8001Z" fill="#C4C4C4" stroke="black" stroke-linecap="round"/>
<path d="M169.976 72.9789C175.516 55.6669 188.444 48.9798 194.216 47.8002C200.699 47.1636 215.517 49.9115 222.925 65.9962C207.434 66.0576 189.096 67.8657 169.976 72.9789Z" fill="white" stroke="black" stroke-linecap="round"/>
<path d="M245.851 118.816C245.625 118.975 245.571 119.287 245.731 119.512C245.89 119.738 246.202 119.792 246.428 119.633L245.851 118.816ZM252.691 114.599L252.945 114.168C252.775 114.069 252.563 114.078 252.403 114.191L252.691 114.599ZM256.663 116.935L256.41 117.366C256.578 117.465 256.789 117.457 256.949 117.346L256.663 116.935ZM263.993 111.836L264.298 111.44C264.125 111.307 263.887 111.301 263.708 111.426L263.993 111.836ZM267.147 114.258L266.842 114.655C267.053 114.817 267.354 114.785 267.527 114.583L267.147 114.258ZM273.542 107.303C273.52 107.028 273.279 106.823 273.004 106.845L268.518 107.201C268.243 107.223 268.037 107.464 268.059 107.739C268.081 108.015 268.322 108.22 268.597 108.198L272.585 107.881L272.902 111.868C272.924 112.144 273.164 112.349 273.44 112.327C273.715 112.305 273.92 112.064 273.899 111.789L273.542 107.303ZM246.428 119.633L252.979 115.008L252.403 114.191L245.851 118.816L246.428 119.633ZM252.438 115.03L256.41 117.366L256.917 116.504L252.945 114.168L252.438 115.03ZM256.949 117.346L264.279 112.247L263.708 111.426L256.378 116.525L256.949 117.346ZM263.689 112.233L266.842 114.655L267.451 113.862L264.298 111.44L263.689 112.233ZM267.527 114.583L273.424 107.667L272.663 107.019L266.766 113.934L267.527 114.583Z" fill="black"/>
<path d="M233.467 104.81C232.92 104.815 232.544 104.505 232.338 103.88C232.138 103.256 232.034 102.456 232.025 101.483C232.019 100.85 232.127 100.255 232.348 99.7C232.576 99.1378 232.925 98.6845 233.395 98.34C233.865 97.9888 234.44 97.81 235.12 97.8036C235.667 97.7984 236.164 97.9103 236.613 98.1394C237.062 98.3618 237.419 98.6851 237.683 99.1092C237.953 99.5333 238.091 100.025 238.097 100.585C238.103 101.232 237.978 101.777 237.722 102.219C237.466 102.661 237.133 102.991 236.722 103.209C236.31 103.426 235.875 103.537 235.415 103.541C235.041 103.545 234.697 103.485 234.383 103.361C234.425 103.574 234.446 103.737 234.448 103.85C234.454 104.484 234.127 104.803 233.467 104.81ZM235.26 101.992C235.5 101.99 235.706 101.902 235.877 101.727C236.056 101.545 236.144 101.337 236.141 101.104C236.139 100.864 236.047 100.658 235.866 100.487C235.691 100.308 235.483 100.22 235.243 100.222C235.01 100.225 234.804 100.317 234.626 100.498C234.447 100.673 234.359 100.881 234.362 101.121C234.364 101.354 234.456 101.56 234.637 101.738C234.819 101.91 235.027 101.995 235.26 101.992ZM240.738 104.74C240.258 104.752 239.827 104.656 239.445 104.453C239.07 104.25 238.774 103.969 238.557 103.611C238.347 103.246 238.233 102.841 238.215 102.394C238.205 101.948 238.304 101.547 238.514 101.191C238.724 100.836 239.018 100.553 239.396 100.343C239.781 100.133 240.213 100.025 240.693 100.021C241.16 100.016 241.581 100.112 241.956 100.309C242.338 100.505 242.64 100.782 242.864 101.14C243.087 101.498 243.208 101.9 243.225 102.347C243.236 102.78 243.137 103.178 242.927 103.54C242.717 103.895 242.419 104.181 242.035 104.398C241.657 104.615 241.225 104.729 240.738 104.74ZM240.754 103.28C240.934 103.278 241.09 103.207 241.222 103.066C241.354 102.924 241.419 102.76 241.417 102.574C241.416 102.387 241.347 102.228 241.213 102.096C241.078 101.957 240.921 101.889 240.741 101.89C240.561 101.892 240.405 101.963 240.273 102.105C240.141 102.239 240.076 102.4 240.077 102.587C240.079 102.773 240.147 102.936 240.282 103.075C240.417 103.213 240.574 103.282 240.754 103.28ZM244.718 104.693C244.291 104.697 244.002 104.449 243.851 103.951C243.706 103.452 243.629 102.763 243.621 101.883C243.617 101.483 243.631 101.149 243.662 100.882C243.699 100.609 243.787 100.378 243.925 100.19C244.07 99.9951 244.292 99.8964 244.592 99.8935C244.779 99.8917 244.943 99.9335 245.083 100.019C245.231 100.104 245.325 100.227 245.367 100.386C245.512 100.251 245.701 100.15 245.934 100.081C246.167 100.012 246.416 99.9761 246.683 99.9736C246.896 99.9716 247.113 100.023 247.334 100.127C247.562 100.232 247.75 100.377 247.899 100.562C248.054 100.741 248.132 100.937 248.134 101.15C248.136 101.363 248.061 101.554 247.91 101.722C247.765 101.883 247.569 101.965 247.322 101.968C247.242 101.968 247.165 101.959 247.092 101.94C247.025 101.92 246.965 101.901 246.911 101.882C246.777 101.829 246.67 101.804 246.59 101.805C246.33 101.807 246.101 101.913 245.903 102.121C245.712 102.323 245.618 102.584 245.621 102.904C245.624 103.257 245.614 103.551 245.589 103.784C245.565 104.018 245.487 104.229 245.355 104.416C245.224 104.598 245.011 104.69 244.718 104.693ZM253.506 100.279C253.509 100.625 253.348 100.864 253.023 100.993C252.697 101.116 252.251 101.184 251.684 101.196C251.679 101.363 251.679 101.633 251.682 102.006C251.686 102.386 251.715 102.656 251.77 102.815C251.804 102.928 251.855 103.001 251.922 103.034C251.996 103.067 252.102 103.089 252.243 103.101C252.289 103.107 252.339 103.117 252.393 103.129C252.453 103.135 252.52 103.145 252.593 103.157C252.747 103.189 252.868 103.272 252.955 103.404C253.043 103.53 253.088 103.693 253.09 103.893C253.092 104.119 252.977 104.297 252.745 104.426C252.513 104.555 252.194 104.621 251.787 104.625C251.414 104.629 251.056 104.526 250.714 104.315C250.372 104.099 250.136 103.808 250.006 103.442C249.869 103.05 249.795 102.307 249.784 101.214C249.318 101.205 248.94 101.149 248.653 101.045C248.372 100.934 248.23 100.736 248.227 100.449C248.224 100.089 248.355 99.8477 248.62 99.7252C248.886 99.596 249.268 99.5256 249.768 99.5142C249.783 98.9807 249.862 98.5366 250.006 98.1819C250.149 97.8205 250.41 97.638 250.79 97.6344C251.177 97.6307 251.429 97.795 251.545 98.1272C251.668 98.4594 251.726 98.9156 251.718 99.4957C252.325 99.4832 252.772 99.5256 253.059 99.6229C253.354 99.7201 253.502 99.9387 253.506 100.279ZM257.16 100.594C257.813 100.601 258.284 100.667 258.572 100.79C258.866 100.914 259.015 101.156 259.019 101.516C259.022 101.87 258.874 102.111 258.575 102.241C258.283 102.363 257.824 102.434 257.197 102.454L257.215 103.244C257.223 103.37 257.228 103.547 257.23 103.773C257.233 104.06 257.155 104.264 256.996 104.386C256.837 104.5 256.651 104.559 256.437 104.561C256.071 104.564 255.802 104.384 255.632 104.019C255.462 103.654 255.354 103.131 255.307 102.452C254.874 102.422 254.55 102.342 254.335 102.211C254.127 102.08 254.022 101.864 254.019 101.564C254.016 101.264 254.117 101.046 254.323 100.911C254.535 100.769 254.857 100.676 255.29 100.632C255.324 99.9847 255.415 99.4405 255.565 98.999C255.714 98.5576 255.96 98.2119 256.305 97.9619C256.649 97.7053 257.114 97.5742 257.701 97.5686C258.068 97.5651 258.372 97.6489 258.613 97.82C258.862 97.9843 258.987 98.2264 258.99 98.5464C258.994 98.8797 258.893 99.134 258.688 99.3093C258.489 99.4779 258.214 99.5972 257.861 99.6672C257.628 99.7161 257.459 99.821 257.354 99.982C257.249 100.136 257.184 100.34 257.16 100.594ZM261.694 104.541C261.214 104.552 260.783 104.456 260.401 104.253C260.026 104.05 259.73 103.77 259.513 103.412C259.303 103.047 259.189 102.641 259.172 102.195C259.161 101.748 259.26 101.347 259.47 100.992C259.68 100.637 259.974 100.354 260.352 100.144C260.737 99.9332 261.169 99.8257 261.649 99.8211C262.116 99.8167 262.537 99.9127 262.912 100.109C263.294 100.306 263.596 100.583 263.82 100.941C264.043 101.298 264.164 101.701 264.181 102.147C264.192 102.58 264.093 102.978 263.883 103.34C263.673 103.695 263.375 103.982 262.991 104.199C262.613 104.416 262.181 104.53 261.694 104.541ZM261.71 103.081C261.89 103.079 262.046 103.008 262.178 102.866C262.31 102.725 262.375 102.561 262.373 102.374C262.372 102.188 262.303 102.028 262.169 101.896C262.034 101.758 261.877 101.689 261.697 101.691C261.517 101.692 261.361 101.764 261.229 101.905C261.097 102.04 261.032 102.2 261.033 102.387C261.035 102.574 261.103 102.736 261.238 102.875C261.373 103.014 261.53 103.082 261.71 103.081ZM265.871 104.471C265.538 104.474 265.287 104.353 265.118 104.108C264.949 103.863 264.832 103.501 264.768 103.022C264.71 102.535 264.676 101.859 264.668 100.992C264.66 100.159 264.674 99.509 264.71 99.042C264.752 98.5749 264.855 98.2006 265.019 97.919C265.19 97.6374 265.455 97.4948 265.815 97.4914C266.175 97.488 266.44 97.6255 266.609 97.9039C266.785 98.1822 266.895 98.5545 266.94 99.0208C266.991 99.487 267.02 100.137 267.028 100.97C267.036 101.79 267.006 102.454 266.937 102.961C266.875 103.462 266.759 103.839 266.588 104.094C266.417 104.343 266.178 104.468 265.871 104.471ZM268.687 99.6142C268.36 99.6173 268.082 99.5032 267.853 99.2721C267.624 99.0342 267.508 98.7453 267.505 98.4053C267.502 98.072 267.612 97.7876 267.837 97.5522C268.061 97.31 268.337 97.1874 268.663 97.1843C268.983 97.1812 269.258 97.2986 269.487 97.5364C269.722 97.7675 269.842 98.0498 269.845 98.3831C269.848 98.7231 269.734 99.0142 269.503 99.2564C269.279 99.4918 269.007 99.6111 268.687 99.6142ZM268.733 104.464C268.459 104.467 268.255 104.392 268.121 104.24C267.992 104.081 267.903 103.845 267.854 103.532C267.811 103.213 267.786 102.76 267.781 102.173C267.776 101.68 267.796 101.289 267.84 101.002C267.89 100.715 267.982 100.501 268.114 100.36C268.246 100.218 268.438 100.147 268.692 100.144C268.965 100.142 269.166 100.22 269.294 100.378C269.429 100.53 269.518 100.766 269.561 101.086C269.61 101.399 269.638 101.849 269.643 102.435C269.648 102.928 269.625 103.319 269.575 103.606C269.531 103.893 269.443 104.107 269.311 104.248C269.179 104.39 268.986 104.462 268.733 104.464ZM272.709 104.436C272.229 104.447 271.798 104.351 271.416 104.148C271.041 103.945 270.745 103.665 270.528 103.307C270.318 102.942 270.204 102.537 270.187 102.09C270.176 101.643 270.275 101.242 270.485 100.887C270.695 100.532 270.989 100.249 271.367 100.039C271.752 99.8283 272.184 99.7209 272.664 99.7163C273.131 99.7119 273.552 99.8079 273.927 100.004C274.309 100.201 274.612 100.478 274.835 100.836C275.058 101.194 275.179 101.596 275.196 102.042C275.207 102.476 275.108 102.873 274.898 103.235C274.688 103.591 274.391 103.877 274.006 104.094C273.628 104.311 273.196 104.425 272.709 104.436ZM272.725 102.976C272.905 102.974 273.061 102.903 273.193 102.761C273.325 102.62 273.39 102.456 273.389 102.27C273.387 102.083 273.319 101.924 273.184 101.791C273.049 101.653 272.892 101.584 272.712 101.586C272.532 101.588 272.376 101.659 272.244 101.8C272.112 101.935 272.047 102.096 272.049 102.282C272.05 102.469 272.119 102.632 272.253 102.77C272.388 102.909 272.545 102.978 272.725 102.976Z" fill="black" fill-opacity="0.8"/>
<rect x="216.142" y="113.881" width="4.83973" height="70.075" rx="2.41986" transform="rotate(39.3222 216.142 113.881)" fill="#8C8C8C" stroke="black"/>
<rect x="174.871" y="145.425" width="4.83973" height="43.5246" rx="2.41986" transform="rotate(-54.0288 174.871 145.425)" fill="#8C8C8C" stroke="black"/>
<path d="M216.202 117.811C216.485 117.476 216.9 117.281 217.339 117.278L236.794 117.137C238.04 117.128 238.753 118.554 237.998 119.546L211.352 154.529C211.041 154.937 210.543 155.158 210.032 155.115L189.341 153.365C188.128 153.262 187.536 151.834 188.32 150.903L216.202 117.811L215.823 117.491L216.202 117.811Z" fill="#DFDFDF" stroke="black" stroke-linejoin="round"/>
<path d="M233.474 117.43L236.463 117.347L205 155.369L202.507 154.183L233.474 117.43Z" fill="#919191"/>
<path d="M226.196 117.55L229.185 117.467L197.722 155.489L195.229 154.303L226.196 117.55Z" fill="#919191"/>
<path d="M218.916 117.67L221.906 117.587L190.443 155.609L187.95 154.423L218.916 117.67Z" fill="#8C8C8C"/>
<rect x="220.077" y="143.91" width="3.61615" height="23.8163" rx="1.80807" transform="rotate(-18.55 220.077 143.91)" fill="#8C8C8C" stroke="black"/>
<rect x="241.824" y="114.898" width="4.83973" height="73.1894" rx="2.41986" transform="rotate(39.3222 241.824 114.898)" fill="#8C8C8C" stroke="black"/>
<rect x="164.655" y="158.441" width="4.83973" height="32.7565" rx="2.41986" transform="rotate(-90.5251 164.655 158.441)" fill="#8C8C8C" stroke="black"/>
<rect x="166.144" y="156.999" width="2.34456" height="23.8453" rx="1.17228" transform="rotate(-90.4153 166.144 156.999)" fill="#91D9FF" stroke="black" stroke-linejoin="round"/>
<rect x="187.294" y="158.249" width="4.83973" height="25.4078" rx="2.41986" transform="rotate(-90.5251 187.294 158.249)" fill="#8C8C8C" stroke="black"/>
<rect x="197.401" y="147.382" width="4.83973" height="44.0966" rx="2.41986" transform="rotate(-56.1044 197.401 147.382)" fill="#8C8C8C" stroke="black"/>
<mask id="path-37-inside-1_30956_4191" fill="white">
<path fill-rule="evenodd" clip-rule="evenodd" d="M192.891 39.4146C191.795 39.5536 191.02 40.5546 191.159 41.6504L191.969 48.0406C147.859 53.1096 136.085 75.2098 135.752 85.7957L135.752 85.7959C135.752 85.7959 137.993 89.6913 176.391 85.477L176.392 85.4772C182.196 84.8402 188.827 84.0178 196.4 82.9687L200.916 118.558L188.87 96.7767L189.014 96.4714L188.702 96.4737L188.702 96.4731L120.77 96.9655L120.771 96.9677L116.726 96.9971L95.5027 135.428L121.042 135.891C102.472 141.5 83.9767 149.632 63.7043 158.545L63.7041 158.545C45.7208 166.452 26.3389 174.973 4.26529 182.894C-18.3964 191.026 68.2785 205.141 171.536 207.141C274.794 209.142 385.454 193.642 359.148 183.38C335.431 174.129 318.5 165.704 303.765 158.373C287.551 150.306 273.997 143.562 256.988 138.494L256.882 123.959L277.853 123.807C278.957 123.799 279.846 122.897 279.838 121.792L279.649 95.6745C279.641 94.5699 278.739 93.681 277.634 93.689L256.489 93.8423C256.002 92.3554 254.597 91.2864 252.949 91.2984C251.3 91.3103 249.912 92.3995 249.446 93.8933L228.3 94.0466C227.196 94.0546 226.307 94.9565 226.315 96.061L226.465 116.711L219.354 116.763C219.234 116.105 218.889 115.485 218.331 115.028C217.084 114.006 215.244 114.189 214.222 115.436L205.848 125.659L200.362 82.4116C207.349 81.415 213.498 80.4707 218.909 79.5804L218.909 79.5801C258.266 73.1053 258.603 69.4908 258.606 69.4486L258.606 69.4486C256.322 60.4459 240.582 43.6672 195.95 47.6367L195.127 41.1469C194.988 40.0512 193.987 39.2755 192.891 39.4146ZM233.805 133.114C239.46 134.096 244.678 135.212 249.579 136.454L249.489 124.012L241.211 124.072L233.805 133.114ZM363.541 219.57C368.855 221.643 346.503 225.985 325.647 225.581C304.791 225.177 287.285 219.297 291.862 217.654L292.86 217.296C306.314 212.466 314.819 209.412 325.956 209.628C337.366 209.849 347.3 213.235 363.541 219.57Z"/>
</mask>
<path fill-rule="evenodd" clip-rule="evenodd" d="M192.891 39.4146C191.795 39.5536 191.02 40.5546 191.159 41.6504L191.969 48.0406C147.859 53.1096 136.085 75.2098 135.752 85.7957L135.752 85.7959C135.752 85.7959 137.993 89.6913 176.391 85.477L176.392 85.4772C182.196 84.8402 188.827 84.0178 196.4 82.9687L200.916 118.558L188.87 96.7767L189.014 96.4714L188.702 96.4737L188.702 96.4731L120.77 96.9655L120.771 96.9677L116.726 96.9971L95.5027 135.428L121.042 135.891C102.472 141.5 83.9767 149.632 63.7043 158.545L63.7041 158.545C45.7208 166.452 26.3389 174.973 4.26529 182.894C-18.3964 191.026 68.2785 205.141 171.536 207.141C274.794 209.142 385.454 193.642 359.148 183.38C335.431 174.129 318.5 165.704 303.765 158.373C287.551 150.306 273.997 143.562 256.988 138.494L256.882 123.959L277.853 123.807C278.957 123.799 279.846 122.897 279.838 121.792L279.649 95.6745C279.641 94.5699 278.739 93.681 277.634 93.689L256.489 93.8423C256.002 92.3554 254.597 91.2864 252.949 91.2984C251.3 91.3103 249.912 92.3995 249.446 93.8933L228.3 94.0466C227.196 94.0546 226.307 94.9565 226.315 96.061L226.465 116.711L219.354 116.763C219.234 116.105 218.889 115.485 218.331 115.028C217.084 114.006 215.244 114.189 214.222 115.436L205.848 125.659L200.362 82.4116C207.349 81.415 213.498 80.4707 218.909 79.5804L218.909 79.5801C258.266 73.1053 258.603 69.4908 258.606 69.4486L258.606 69.4486C256.322 60.4459 240.582 43.6672 195.95 47.6367L195.127 41.1469C194.988 40.0512 193.987 39.2755 192.891 39.4146ZM233.805 133.114C239.46 134.096 244.678 135.212 249.579 136.454L249.489 124.012L241.211 124.072L233.805 133.114ZM363.541 219.57C368.855 221.643 346.503 225.985 325.647 225.581C304.791 225.177 287.285 219.297 291.862 217.654L292.86 217.296C306.314 212.466 314.819 209.412 325.956 209.628C337.366 209.849 347.3 213.235 363.541 219.57Z" fill="black" fill-opacity="0.3"/>
<path d="M95.0727 135.173L87.5903 147.778L88.4503 148.288L95.9326 135.684L95.0727 135.173ZM191.159 41.6504L190.167 41.7762V41.7762L191.159 41.6504ZM191.969 48.0406L192.083 49.034L193.089 48.9185L192.961 47.9147L191.969 48.0406ZM135.752 85.7957L136.199 86.6901L136.733 86.4234L136.751 85.8272L135.752 85.7957ZM135.752 85.7959L135.304 84.9015L134.356 85.3756L134.885 86.2946L135.752 85.7959ZM176.391 85.477L177.071 84.7434L176.736 84.4331L176.282 84.4829L176.391 85.477ZM176.392 85.4772L175.712 86.2108L176.047 86.521L176.501 86.4712L176.392 85.4772ZM196.4 82.9687L197.393 82.8429L197.265 81.8394L196.263 81.9782L196.4 82.9687ZM200.916 118.558L200.04 119.042L201.908 118.433L200.916 118.558ZM188.87 96.7767L187.966 96.3488L187.747 96.8121L187.995 97.2607L188.87 96.7767ZM189.014 96.4714L189.918 96.8993L190.6 95.4598L189.007 95.4714L189.014 96.4714ZM188.702 96.4737L187.824 96.9525L188.111 97.478L188.709 97.4736L188.702 96.4737ZM188.702 96.4731L189.58 95.9943L189.293 95.4688L188.695 95.4732L188.702 96.4731ZM120.77 96.9655L120.763 95.9655L119.127 95.9774L119.884 97.4279L120.77 96.9655ZM120.771 96.9677L120.779 97.9676L122.414 97.9557L121.658 96.5053L120.771 96.9677ZM116.726 96.9971L116.718 95.9971L116.133 96.0014L115.85 96.5137L116.726 96.9971ZM95.5027 135.428L94.6273 134.945L93.8248 136.398L95.4845 136.428L95.5027 135.428ZM121.042 135.891L121.331 136.848L121.06 134.891L121.042 135.891ZM63.7043 158.545L63.3018 157.629L63.2935 157.633L63.2852 157.637L63.7043 158.545ZM63.7041 158.545L64.1066 159.46L64.115 159.457L64.1232 159.453L63.7041 158.545ZM4.26529 182.894L3.92755 181.953H3.92755L4.26529 182.894ZM171.536 207.141L171.517 208.141L171.536 207.141ZM359.148 183.38L358.785 184.312L359.148 183.38ZM303.765 158.373L304.21 157.478L303.765 158.373ZM256.988 138.494L255.988 138.502L255.993 139.242L256.702 139.453L256.988 138.494ZM256.882 123.959L256.875 122.959L255.875 122.966L255.882 123.966L256.882 123.959ZM277.853 123.807L277.845 122.807L277.853 123.807ZM279.838 121.792L280.838 121.785V121.785L279.838 121.792ZM279.649 95.6745L280.649 95.6672V95.6672L279.649 95.6745ZM277.634 93.689L277.627 92.689H277.627L277.634 93.689ZM256.489 93.8423L255.539 94.1538L255.766 94.8475L256.496 94.8422L256.489 93.8423ZM249.446 93.8933L249.453 94.8933L250.183 94.888L250.4 94.191L249.446 93.8933ZM228.3 94.0466L228.293 93.0466L228.3 94.0466ZM226.315 96.061L225.315 96.0683V96.0683L226.315 96.061ZM226.465 116.711L226.472 117.711L227.472 117.704L227.465 116.704L226.465 116.711ZM219.354 116.763L218.37 116.942L218.52 117.769L219.361 117.763L219.354 116.763ZM218.331 115.028L218.965 114.254V114.254L218.331 115.028ZM214.222 115.436L214.996 116.07V116.07L214.222 115.436ZM205.848 125.659L204.856 125.785L205.149 128.091L206.622 126.293L205.848 125.659ZM200.362 82.4116L200.221 81.4216L199.246 81.5606L199.37 82.5374L200.362 82.4116ZM218.909 79.5804L219.072 80.5672L220.008 80.4131L219.903 79.47L218.909 79.5804ZM218.909 79.5801L218.747 78.5934L217.811 78.7475L217.916 79.6906L218.909 79.5801ZM258.606 69.4486L258.591 68.4487L257.664 68.4621L257.608 69.3872L258.606 69.4486ZM258.606 69.4486L258.62 70.4485L259.887 70.4303L259.575 69.2027L258.606 69.4486ZM195.95 47.6367L194.958 47.7626L195.079 48.7181L196.039 48.6328L195.95 47.6367ZM195.127 41.1469L196.119 41.0211V41.0211L195.127 41.1469ZM249.579 136.454L249.334 137.424L250.589 137.742L250.579 136.447L249.579 136.454ZM233.805 133.114L233.031 132.481L231.945 133.806L233.633 134.1L233.805 133.114ZM249.489 124.012L250.489 124.005L250.482 123.005L249.482 123.012L249.489 124.012ZM241.211 124.072L241.204 123.072L240.735 123.076L240.438 123.439L241.211 124.072ZM325.647 225.581L325.628 226.581L325.647 225.581ZM363.541 219.57L363.178 220.502L363.541 219.57ZM291.862 217.654L292.2 218.595L292.2 218.595L291.862 217.654ZM292.86 217.296L293.197 218.237L293.198 218.237L292.86 217.296ZM325.956 209.628L325.976 208.628L325.956 209.628ZM192.151 41.5245C192.081 40.9766 192.469 40.4761 193.017 40.4066L192.765 38.4225C191.121 38.631 189.958 40.1325 190.167 41.7762L192.151 41.5245ZM192.961 47.9147L192.151 41.5245L190.167 41.7762L190.977 48.1664L192.961 47.9147ZM136.751 85.8272C137.063 75.9105 148.271 54.0688 192.083 49.034L191.855 47.0471C147.447 52.1505 135.106 74.509 134.752 85.7643L136.751 85.8272ZM136.199 86.6903L136.199 86.6901L135.305 84.9013L135.304 84.9015L136.199 86.6903ZM176.282 84.4829C157.105 86.5877 147.02 86.6593 141.755 86.2203C139.121 86.0006 137.74 85.6564 137.048 85.4007C136.705 85.2739 136.553 85.1768 136.508 85.144C136.486 85.1282 136.493 85.1302 136.516 85.1546C136.527 85.1668 136.542 85.1846 136.56 85.2083C136.569 85.2202 136.578 85.2335 136.588 85.2483C136.593 85.2557 136.598 85.2635 136.603 85.2717C136.606 85.2758 136.608 85.2799 136.611 85.2842C136.612 85.2863 136.614 85.2896 136.614 85.2906C136.616 85.2939 136.618 85.2972 135.752 85.7959C134.885 86.2946 134.887 86.2979 134.889 86.3013C134.889 86.3024 134.891 86.3057 134.893 86.308C134.895 86.3125 134.898 86.317 134.901 86.3215C134.906 86.3306 134.912 86.3398 134.918 86.3491C134.931 86.3676 134.944 86.3865 134.958 86.4056C134.987 86.4438 135.019 86.4829 135.057 86.5226C135.131 86.602 135.223 86.6836 135.338 86.7661C135.565 86.9298 135.888 87.1041 136.355 87.2767C137.283 87.6197 138.863 87.986 141.589 88.2133C147.044 88.6683 157.279 88.5806 176.501 86.471L176.282 84.4829ZM177.071 84.7436L177.071 84.7434L175.712 86.2105L175.712 86.2108L177.071 84.7436ZM196.263 81.9782C188.698 83.0262 182.076 83.8473 176.283 84.4832L176.501 86.4712C182.316 85.833 188.956 85.0095 196.538 83.9593L196.263 81.9782ZM201.908 118.433L197.393 82.8429L195.408 83.0946L199.923 118.684L201.908 118.433ZM187.995 97.2607L200.04 119.042L201.791 118.074L189.745 96.2928L187.995 97.2607ZM188.111 96.0435L187.966 96.3488L189.774 97.2047L189.918 96.8993L188.111 96.0435ZM188.709 97.4736L189.022 97.4714L189.007 95.4714L188.695 95.4737L188.709 97.4736ZM187.824 96.952L187.824 96.9525L189.58 95.9948L189.58 95.9943L187.824 96.952ZM120.778 97.9655L188.709 97.4731L188.695 95.4732L120.763 95.9655L120.778 97.9655ZM121.658 96.5053L121.657 96.5032L119.884 97.4279L119.885 97.43L121.658 96.5053ZM116.733 97.9971L120.779 97.9676L120.764 95.9677L116.718 95.9971L116.733 97.9971ZM96.3781 135.912L117.601 97.4805L115.85 96.5137L94.6273 134.945L96.3781 135.912ZM121.06 134.891L95.5208 134.428L95.4845 136.428L121.024 136.891L121.06 134.891ZM64.1068 159.46C84.3915 150.542 102.83 142.436 121.331 136.848L120.753 134.934C102.114 140.563 83.5619 148.722 63.3018 157.629L64.1068 159.46ZM64.1232 159.453L64.1234 159.453L63.2852 157.637L63.2851 157.637L64.1232 159.453ZM4.60304 183.835C26.7138 175.901 46.1255 167.366 64.1066 159.46L63.3017 157.629C45.316 165.537 25.9639 174.045 3.92755 181.953L4.60304 183.835ZM171.556 206.141C119.96 205.142 72.5217 201.116 40.8304 196.328C24.9614 193.931 13.1192 191.354 6.67658 188.898C5.07014 188.285 3.84061 187.695 2.98082 187.14C2.08523 186.561 1.74449 186.118 1.65649 185.862C1.6232 185.766 1.62678 185.701 1.64855 185.635C1.67545 185.553 1.75186 185.409 1.96033 185.213C2.39419 184.804 3.22802 184.329 4.60304 183.835L3.92755 181.953C2.46985 182.476 1.32516 183.064 0.589399 183.756C0.213055 184.111 -0.0931211 184.527 -0.252245 185.013C-0.416494 185.515 -0.402362 186.027 -0.234207 186.515C0.0806865 187.428 0.906458 188.181 1.8957 188.82C2.92074 189.482 4.29437 190.13 5.96411 190.766C12.6263 193.306 24.6574 195.908 40.5316 198.306C72.3269 203.109 119.855 207.14 171.517 208.141L171.556 206.141ZM358.785 184.312C360.388 184.937 361.318 185.53 361.768 186.029C361.98 186.265 362.049 186.441 362.069 186.555C362.086 186.659 362.077 186.79 361.982 186.978C361.765 187.407 361.162 187.996 359.955 188.687C358.781 189.358 357.168 190.052 355.126 190.758C346.94 193.587 332.434 196.414 313.798 198.867C276.566 203.768 223.137 207.141 171.556 206.141L171.517 208.141C223.194 209.142 276.724 205.765 314.059 200.85C332.707 198.396 347.387 195.549 355.779 192.648C357.881 191.922 359.623 191.18 360.948 190.423C362.238 189.685 363.274 188.853 363.767 187.881C364.027 187.368 364.14 186.803 364.04 186.217C363.941 185.64 363.65 185.131 363.254 184.691C362.485 183.837 361.196 183.106 359.512 182.448L358.785 184.312ZM303.319 159.268C318.058 166.602 335.024 175.043 358.785 184.312L359.512 182.448C335.839 173.214 318.941 164.807 304.21 157.478L303.319 159.268ZM256.702 139.453C273.617 144.492 287.098 151.197 303.319 159.268L304.21 157.478C288.004 149.414 274.376 142.631 257.273 137.536L256.702 139.453ZM255.882 123.966L255.988 138.502L257.988 138.487L257.882 123.952L255.882 123.966ZM277.845 122.807L256.875 122.959L256.889 124.959L277.86 124.807L277.845 122.807ZM278.838 121.8C278.842 122.352 278.398 122.803 277.845 122.807L277.86 124.807C279.517 124.795 280.85 123.442 280.838 121.785L278.838 121.8ZM278.649 95.6817L278.838 121.8L280.838 121.785L280.649 95.6672L278.649 95.6817ZM277.642 94.689C278.194 94.685 278.645 95.1294 278.649 95.6817L280.649 95.6672C280.637 94.0104 279.284 92.677 277.627 92.689L277.642 94.689ZM256.496 94.8422L277.642 94.689L277.627 92.689L256.482 92.8423L256.496 94.8422ZM252.956 92.2983C254.157 92.2896 255.183 93.0681 255.539 94.1538L257.439 93.5308C256.82 91.6426 255.037 90.2832 252.942 90.2984L252.956 92.2983ZM250.4 94.191C250.741 93.1003 251.755 92.307 252.956 92.2983L252.942 90.2984C250.846 90.3136 249.083 91.6987 248.491 93.5956L250.4 94.191ZM228.308 95.0466L249.453 94.8933L249.439 92.8933L228.293 93.0466L228.308 95.0466ZM227.315 96.0538C227.311 95.5015 227.755 95.0506 228.308 95.0466L228.293 93.0466C226.636 93.0586 225.303 94.4115 225.315 96.0683L227.315 96.0538ZM227.465 116.704L227.315 96.0538L225.315 96.0683L225.465 116.718L227.465 116.704ZM219.361 117.763L226.472 117.711L226.457 115.711L219.346 115.763L219.361 117.763ZM217.698 115.801C218.065 116.102 218.291 116.509 218.37 116.942L220.338 116.584C220.177 115.701 219.713 114.867 218.965 114.254L217.698 115.801ZM214.996 116.07C215.668 115.25 216.877 115.13 217.698 115.801L218.965 114.254C217.29 112.882 214.821 113.128 213.449 114.803L214.996 116.07ZM206.622 126.293L214.996 116.07L213.449 114.803L205.075 125.026L206.622 126.293ZM199.37 82.5374L204.856 125.785L206.84 125.533L201.354 82.2857L199.37 82.5374ZM218.747 78.5937C213.344 79.4827 207.202 80.4259 200.221 81.4216L200.503 83.4016C207.496 82.4041 213.653 81.4587 219.072 80.5672L218.747 78.5937ZM217.916 79.6906L217.916 79.6909L219.903 79.47L219.903 79.4697L217.916 79.6906ZM257.608 69.3872C257.636 68.9277 257.938 68.923 257.369 69.3156C256.831 69.6862 255.658 70.3092 253.19 71.1563C248.267 72.8469 238.41 75.3585 218.747 78.5934L219.072 80.5669C238.766 77.3269 248.755 74.7939 253.84 73.0479C256.377 72.1768 257.748 71.4836 258.504 70.9623C259.228 70.463 259.574 69.9907 259.604 69.5101L257.608 69.3872ZM258.592 68.4487L258.591 68.4487L258.62 70.4485L258.62 70.4485L258.592 68.4487ZM196.039 48.6328C240.484 44.6798 255.535 61.4118 257.637 69.6946L259.575 69.2027C257.108 59.48 240.679 42.6546 195.862 46.6407L196.039 48.6328ZM194.135 41.2728L194.958 47.7626L196.942 47.5109L196.119 41.0211L194.135 41.2728ZM193.017 40.4066C193.565 40.3371 194.065 40.7249 194.135 41.2728L196.119 41.0211C195.91 39.3774 194.409 38.214 192.765 38.4225L193.017 40.4066ZM249.825 135.485C244.898 134.236 239.655 133.115 233.976 132.129L233.633 134.1C239.265 135.078 244.458 136.188 249.334 137.424L249.825 135.485ZM248.489 124.02L248.579 136.462L250.579 136.447L250.489 124.005L248.489 124.02ZM241.218 125.072L249.496 125.012L249.482 123.012L241.204 123.072L241.218 125.072ZM234.578 133.748L241.985 124.706L240.438 123.439L233.031 132.481L234.578 133.748ZM325.628 226.581C336.122 226.784 346.987 225.795 354.577 224.49C358.353 223.841 361.394 223.102 363.177 222.365C363.627 222.178 364.031 221.979 364.357 221.762C364.658 221.563 365.015 221.271 365.205 220.853C365.309 220.623 365.365 220.348 365.318 220.052C365.272 219.76 365.139 219.521 364.984 219.338C364.699 219 364.287 218.788 363.905 218.638L363.178 220.502C363.46 220.612 363.496 220.676 363.457 220.629C363.425 220.592 363.364 220.502 363.342 220.362C363.32 220.218 363.351 220.099 363.383 220.027C363.429 219.926 363.455 219.961 363.252 220.096C363.074 220.214 362.799 220.357 362.413 220.516C360.848 221.164 357.993 221.874 354.238 222.519C346.768 223.803 336.029 224.782 325.667 224.581L325.628 226.581ZM291.524 216.713C291.17 216.84 290.788 217.031 290.509 217.346C290.184 217.713 290.048 218.198 290.175 218.697C290.283 219.121 290.555 219.45 290.804 219.686C291.068 219.936 291.398 220.169 291.765 220.388C293.212 221.25 295.733 222.18 298.957 223.048C305.449 224.795 315.12 226.378 325.628 226.581L325.667 224.581C315.318 224.381 305.808 222.821 299.477 221.116C296.29 220.258 293.989 219.385 292.789 218.67C292.494 218.494 292.299 218.347 292.181 218.236C292.05 218.111 292.086 218.098 292.113 218.202C292.159 218.383 292.095 218.572 292.006 218.672C291.963 218.721 291.982 218.674 292.2 218.595L291.524 216.713ZM292.522 216.355L291.524 216.713L292.2 218.595L293.197 218.237L292.522 216.355ZM325.976 208.628C314.625 208.408 305.949 211.534 292.522 216.355L293.198 218.237C306.679 213.397 315.013 210.416 325.937 210.628L325.976 208.628ZM363.905 218.638C347.674 212.307 337.586 208.853 325.976 208.628L325.937 210.628C337.147 210.845 346.927 214.163 363.178 220.502L363.905 218.638Z" fill="black" mask="url(#path-37-inside-1_30956_4191)"/>
<g filter="url(#filter0_d_30956_4191)">
<path d="M182.738 131.008H177.348V124.766C177.348 123.408 177.619 122.141 178.16 120.966C178.702 119.791 179.451 118.758 180.406 117.866C181.362 116.975 182.488 116.274 183.786 115.764C185.084 115.255 186.503 115 188.043 115C189.412 115 190.731 115.255 192 115.764C193.269 116.274 194.396 116.975 195.38 117.866C196.364 118.758 197.148 119.791 197.733 120.966C198.317 122.141 198.61 123.408 198.61 124.766V131.008H193.433V125.955C193.433 124.172 192.934 122.792 191.936 121.815C190.938 120.839 189.583 120.35 187.872 120.35C186.332 120.35 185.091 120.839 184.15 121.815C183.209 122.792 182.738 124.172 182.738 125.955V131.008ZM201.176 133.556C201.947 133.556 202.61 133.832 203.166 134.384C203.722 134.936 204 135.594 204 136.359V149.522C204 150.287 203.865 151.001 203.594 151.667C203.323 152.332 202.952 152.912 202.481 153.408C202.011 153.903 201.455 154.292 200.813 154.575C200.171 154.858 199.465 155 198.695 155H177.091C176.321 155 175.622 154.858 174.995 154.575C174.367 154.292 173.832 153.917 173.39 153.45C172.948 152.983 172.606 152.438 172.364 151.815C172.121 151.193 172 150.527 172 149.82V136.359C172 135.594 172.271 134.936 172.813 134.384C173.355 133.832 174.011 133.556 174.781 133.556H177.348H182.738H193.433H198.61H201.176Z" fill="white"/>
<path d="M182.738 131.508H183.238V131.008V125.955C183.238 124.259 183.684 123.019 184.51 122.162C185.344 121.297 186.447 120.85 187.872 120.85C189.483 120.85 190.702 121.307 191.586 122.173C192.463 123.031 192.933 124.267 192.933 125.955V131.008V131.508H193.433H198.61H199.11V131.008V124.766C199.11 123.333 198.801 121.99 198.18 120.743C197.567 119.512 196.745 118.429 195.715 117.496C194.686 116.563 193.509 115.831 192.186 115.3C190.858 114.767 189.476 114.5 188.043 114.5C186.447 114.5 184.965 114.764 183.603 115.299C182.251 115.83 181.07 116.563 180.065 117.501C179.063 118.436 178.276 119.522 177.706 120.757C177.133 122 176.848 123.339 176.848 124.766V131.008V131.508H177.348H182.738ZM203.518 134.029C202.87 133.386 202.081 133.056 201.176 133.056H198.61H193.433H182.738H177.348H174.781C173.876 133.056 173.091 133.387 172.456 134.034C171.824 134.678 171.5 135.462 171.5 136.359V149.82C171.5 150.586 171.631 151.313 171.898 151.997C172.163 152.677 172.539 153.278 173.027 153.794C173.517 154.311 174.106 154.723 174.789 155.031C175.488 155.347 176.258 155.5 177.091 155.5H198.695C199.528 155.5 200.303 155.347 201.015 155.033C201.715 154.724 202.326 154.297 202.844 153.752C203.359 153.209 203.763 152.575 204.057 151.855C204.354 151.126 204.5 150.347 204.5 149.522V136.359C204.5 135.458 204.166 134.673 203.518 134.029Z" stroke="black"/>
</g>
</g>
<defs>
<filter id="filter0_d_30956_4191" x="161" y="104" width="54" height="62" filterUnits="userSpaceOnUse" color-interpolation-filters="sRGB">
<feFlood flood-opacity="0" result="BackgroundImageFix"/>
<feColorMatrix in="SourceAlpha" type="matrix" values="0 0 0 0 0 0 0 0 0 0 0 0 0 0 0 0 0 0 127 0" result="hardAlpha"/>
<feOffset/>
<feGaussianBlur stdDeviation="5"/>
<feComposite in2="hardAlpha" operator="out"/>
<feColorMatrix type="matrix" values="0 0 0 0 0 0 0 0 0 0 0 0 0 0 0 0 0 0 0.25 0"/>
<feBlend mode="normal" in2="BackgroundImageFix" result="effect1_dropShadow_30956_4191"/>
<feBlend mode="normal" in="SourceGraphic" in2="effect1_dropShadow_30956_4191" result="shape"/>
</filter>
<clipPath id="clip0_30956_4191">
<rect width="365" height="226" fill="white"/>
</clipPath>
</defs>
</svg>
