<svg width="365" height="226" viewBox="0 0 365 226" fill="none" xmlns="http://www.w3.org/2000/svg">
<g clip-path="url(#clip0_30956_4244)">
<path d="M359.327 183.469C360.96 184.07 361.99 184.69 362.531 185.29C362.796 185.583 362.93 185.856 362.976 186.109C363.022 186.359 362.99 186.627 362.856 186.927C362.577 187.55 361.874 188.271 360.665 189.063C359.471 189.846 357.844 190.66 355.806 191.494C347.645 194.836 333.178 198.399 314.614 201.664C277.507 208.19 224.178 213.5 172.569 213.5C120.962 213.5 73.605 207.895 41.9713 201.224C26.1428 197.886 14.2926 194.289 7.81486 191.013C6.19806 190.195 4.93438 189.406 4.03201 188.658C3.12048 187.902 2.62716 187.229 2.46392 186.655C2.31364 186.127 2.42501 185.622 2.90351 185.097C3.40499 184.547 4.30121 183.992 5.67818 183.467C18.6011 178.546 30.5571 173.786 41.8247 169.301C90.7763 149.815 126.738 135.5 172.569 135.5C224.176 135.5 250.598 140.047 274.224 148.296C285.107 152.097 295.403 156.684 307.312 161.991C308.342 162.45 309.385 162.914 310.44 163.384C323.697 169.282 339.062 176.013 359.327 183.469Z" fill="#FFF5A9" stroke="black"/>
<ellipse cx="117.5" cy="20" rx="117.5" ry="20" transform="matrix(-1 0 0 1 295 156)" fill="black" fill-opacity="0.2"/>
<path d="M282.06 155.326C274.143 161.545 267.706 155.326 265.477 151.439C267.516 140.455 268.536 129.731 268.84 119.596C268.88 118.246 268.908 116.907 268.923 115.579C268.997 109.32 268.804 103.31 268.42 97.6309C268.285 95.6462 268.127 93.702 267.949 91.8016C266.296 74.1737 262.897 60.3182 260.293 53.0021C273.162 66.3739 279.473 86.1997 282.133 105.555C283.47 115.289 283.884 124.903 283.745 133.518C283.713 135.466 283.653 137.362 283.57 139.196C283.286 145.406 282.728 150.914 282.06 155.326Z" fill="#595959"/>
<path d="M283.57 139.196C283.286 145.406 282.728 150.914 282.06 155.326C274.143 161.545 267.706 155.326 265.477 151.439C267.516 140.455 268.536 129.731 268.84 119.596M283.57 139.196C281.537 139.617 276.578 140.249 273.007 139.412M283.57 139.196C283.653 137.362 283.713 135.466 283.745 133.518M283.745 133.518C282.79 133.855 280.227 134.443 277.616 134.1M283.745 133.518C283.884 124.903 283.47 115.289 282.133 105.555M268.84 119.596C271.224 120.043 276.322 120.677 277.641 119.641M268.84 119.596C268.88 118.246 268.908 116.907 268.923 115.579M268.923 115.579C269.959 115.821 272.458 116.205 274.168 115.799M268.923 115.579C268.997 109.32 268.804 103.31 268.42 97.6309M282.133 105.555C279.473 86.1996 273.162 66.3739 260.293 53.0021C262.897 60.3182 266.296 74.1737 267.949 91.8016M282.133 105.555C280.623 105.874 276.968 106.43 274.423 106.103M268.42 97.6309C269.687 97.7036 272.429 97.696 273.259 97.0832M268.42 97.6309C268.285 95.6462 268.127 93.702 267.949 91.8016M267.949 91.8016C269.921 91.4789 274.088 90.6167 274.978 89.7488" stroke="black"/>
<path d="M209.869 16.96C249.985 -4.92276 263.226 32.8313 261.344 54.2567C254.313 42.9201 245.211 34.103 241.538 31.1115C241.522 30.0312 243.143 28.572 243.955 27.9775C242.935 27.7383 239.454 28.0438 237.841 28.2264C234.748 25.3484 229.122 22.3699 226.695 21.2404L227.856 19.1577C226.776 19.1736 224.769 19.8918 223.9 20.249C220.253 18.5868 213.026 17.3637 209.869 16.96Z" fill="#A9A9A9" stroke="black"/>
<path d="M197.819 56.8496C215.792 14.8363 249.555 36.3013 261.334 54.297C248.796 49.7422 236.19 48.4479 231.454 48.3702C230.773 47.5314 231.143 45.3824 231.413 44.4128C230.464 44.8563 227.919 47.25 226.765 48.3914C222.554 48.0445 216.291 49.1862 213.686 49.8004L213.309 47.4459C212.471 48.1268 211.338 49.9331 210.877 50.7512C206.983 51.7023 200.549 55.2131 197.819 56.8496Z" fill="#A9A9A9"/>
<path d="M261.334 54.297C249.555 36.3013 215.792 14.8363 197.819 56.8496C200.549 55.2131 206.983 51.7023 210.877 50.7512C211.338 49.9331 212.471 48.1268 213.309 47.4459L213.686 49.8004C216.291 49.1862 222.554 48.0445 226.765 48.3914C227.919 47.25 230.464 44.8563 231.413 44.4128C231.143 45.3824 230.773 47.5314 231.454 48.3702C236.19 48.4479 248.796 49.7422 261.334 54.297ZM261.334 54.297C252.73 46.0063 231.402 31.6496 214.926 40.5481" stroke="black"/>
<path d="M320.829 31.3325C287.594 -0.0298586 265.19 33.1176 261.563 54.3176C271.246 45.1409 282.29 38.9275 286.602 36.9678C286.892 35.9271 285.696 34.1039 285.062 33.3224C286.109 33.3505 289.398 34.5308 290.911 35.1174C294.634 33.1203 300.833 31.67 303.467 31.1946L302.874 28.8851C303.914 29.1751 305.673 30.3801 306.422 30.9463C310.372 30.266 317.672 30.9203 320.829 31.3325Z" fill="#A9A9A9"/>
<path d="M261.563 54.3176C265.19 33.1176 287.594 -0.0298592 320.829 31.3325C317.672 30.9203 310.372 30.266 306.422 30.9463C305.673 30.3801 303.914 29.1751 302.874 28.8851L303.467 31.1946C300.833 31.67 294.634 33.1203 290.911 35.1174C289.398 34.5308 286.109 33.3505 285.062 33.3224C285.696 34.1039 286.892 35.9271 286.602 36.9678C282.29 38.9275 271.246 45.1409 261.563 54.3176ZM261.563 54.3176C266.148 43.2835 279.983 21.6131 298.64 23.2041" stroke="black"/>
<path d="M301.807 69.7964C299.343 38.6447 272.774 45.1745 261.208 54.261C270.328 54.0499 278.78 55.9663 281.865 56.9509C282.49 56.5562 282.72 55.0829 282.756 54.3955C283.275 54.8905 284.401 56.9978 284.899 57.9896C287.703 58.685 291.512 60.7936 293.066 61.7609L293.825 60.3176C294.219 60.9421 294.558 62.3601 294.679 62.991C296.994 64.4583 300.395 68.1393 301.807 69.7964Z" fill="#898989"/>
<path d="M261.208 54.261C272.774 45.1745 299.343 38.6447 301.807 69.7964C300.395 68.1393 296.994 64.4583 294.679 62.991C294.558 62.3601 294.219 60.9421 293.825 60.3176L293.066 61.7609C291.512 60.7936 287.703 58.685 284.899 57.9896C284.401 56.9978 283.275 54.8905 282.756 54.3955C282.72 55.0829 282.49 56.5562 281.865 56.9509C278.78 55.9663 270.328 54.0499 261.208 54.261ZM261.208 54.261C268.596 50.7694 285.553 46.1278 294.284 55.4946" stroke="black"/>
<circle cx="8.18828" cy="8.18828" r="8.18828" transform="matrix(-0.97361 -0.22822 -0.22822 0.97361 265.957 54.665)" fill="#888888" stroke="black"/>
<circle cx="8.18828" cy="8.18828" r="8.18828" transform="matrix(-0.97361 -0.22822 -0.22822 0.97361 279.381 49.0664)" fill="#888888" stroke="black"/>
<path d="M226.81 80.7202C220.335 50.1493 247.665 48.8731 261.333 54.3051C252.528 56.69 244.968 60.9254 242.288 62.745C241.577 62.5437 240.939 61.1961 240.708 60.5475C240.352 61.1692 239.87 63.5093 239.673 64.6017C237.182 66.0642 234.128 69.1667 232.912 70.5351L231.775 69.3663C231.574 70.0771 231.651 71.533 231.715 72.1721C229.911 74.2359 227.693 78.7307 226.81 80.7202Z" fill="#898989"/>
<path d="M261.333 54.3051C247.665 48.8731 220.335 50.1493 226.81 80.7202C227.693 78.7307 229.911 74.2359 231.715 72.1721C231.651 71.533 231.574 70.0771 231.775 69.3663L232.912 70.5351C234.128 69.1667 237.182 66.0642 239.673 64.6017C239.87 63.5093 240.352 61.1692 240.708 60.5475C240.939 61.1961 241.577 62.5437 242.288 62.745C244.968 60.9254 252.528 56.69 261.333 54.3051ZM261.333 54.3051C253.259 53.0528 235.681 53.4129 229.966 64.8719" stroke="black"/>
<circle cx="8.18828" cy="8.18828" r="8.18828" transform="matrix(-0.97361 -0.22822 -0.22822 0.97361 264.822 42.291)" fill="#888888" stroke="black"/>
<g filter="url(#filter0_i_30956_4244)">
<path d="M146.341 136.248C167.051 137.671 172.568 157.893 172.737 167.827C169.063 167.197 165.302 166.935 161.569 166.948C157.955 166.961 154.367 167.231 150.909 167.675C146.576 168.23 142.447 169.057 138.727 169.988C132.892 171.449 128.061 173.167 125.021 174.498C123.498 161.155 125.63 134.825 146.341 136.248Z" fill="#6B6B6B"/>
</g>
<path d="M138.727 169.988C132.892 171.449 128.061 173.167 125.021 174.498C123.498 161.155 125.63 134.825 146.341 136.248C167.051 137.671 172.568 157.893 172.737 167.827C169.063 167.197 165.302 166.935 161.569 166.948M138.727 169.988V161.6M138.727 169.988C142.447 169.057 146.576 168.23 150.909 167.675M140.757 162.49C140.757 161.6 140.757 157.152 141.265 154.039M150.909 167.675C150.571 164.167 150.097 156.441 150.909 153.594M150.909 167.675C154.367 167.231 157.955 166.961 161.569 166.948M159.539 155.373C160.216 157.753 161.569 163.399 161.569 166.948" stroke="black" stroke-linecap="round" stroke-linejoin="round"/>
<path d="M72.0727 172.271C71.2268 155.249 77.863 128.621 86.7714 112.586C113.051 78.7341 232.404 83.982 252.447 103.135C268.482 118.457 273.995 146.043 275.182 166.829C270.842 169.764 266.368 172.368 261.82 174.673C241.642 184.9 220.006 189.256 202.134 190.619C201.385 190.676 200.643 190.728 199.907 190.775C195.976 191.025 192.788 191.131 189.315 191.125L189.057 191.125C182.212 191.113 178.186 191.107 175.107 189.643C172.028 186.823 171.542 175.778 171.53 166.705C170.059 165.758 169.155 162.325 169.155 160.594C168.086 160.237 167.818 156.882 167.818 155.249C167.106 154.892 166.631 153.615 166.482 153.021C164.7 153.021 164.405 150.052 164.48 148.567C164.24 149.502 163.77 150.349 162.919 150.349C161.493 150.349 161.712 147.973 161.999 146.786C161.534 148.156 160.705 149.458 159.355 149.458C157.217 149.458 156.98 144.41 157.128 141.886C156.237 144.113 154.01 148.478 152.229 148.122C150.447 147.766 149.742 145.598 149.612 144.559C149.285 145.992 148.717 147.3 147.775 147.676C145.993 148.389 144.732 147.083 144.324 146.34C144.295 146.651 144.258 146.95 144.211 147.231C143.855 149.369 141.566 149.013 140.466 148.567C140.401 149.416 140.315 150.448 140.203 151.685C139.846 155.605 138.272 156.585 137.53 156.585C137.53 158.366 135.674 158.812 134.746 158.812C134.762 159.585 134.798 160.471 134.858 161.484C135.214 167.542 132.927 167.869 131.74 167.275C131.74 167.353 131.736 167.366 131.73 167.324C131.447 168.784 130.238 171.279 127.565 169.947C127.5 171.638 127.415 172.956 127.304 173.511C126.948 175.292 125.671 173.956 125.077 173.065C123.786 181.528 122.45 186.079 122.45 186.079C119.332 187.416 113.613 185.445 110.824 184.689C98.0319 181.221 91.6522 182.516 83.6535 178.062C76.0814 175.835 72.9983 174.55 72.0727 172.271Z" fill="#A3A3A3"/>
<path d="M127.75 157.476C127.75 158.471 127.746 159.702 127.735 161.039C127.713 163.959 127.663 167.382 127.565 169.947M130.868 154.358C130.868 152.361 131.74 168.56 131.74 167.275M131.74 163.266C131.74 163.652 131.74 164.89 131.74 167.275M131.74 167.275C132.927 167.869 135.214 167.542 134.858 161.484C134.798 160.471 134.762 159.585 134.746 158.812M131.74 167.275C131.474 168.727 130.268 171.294 127.565 169.947M135.303 153.912C135.056 153.912 134.664 154.962 134.746 158.812M134.746 158.812C135.674 158.812 137.53 158.366 137.53 156.585C138.272 156.585 139.846 155.605 140.203 151.685C140.315 150.448 140.401 149.416 140.466 148.567M140.648 145.449C140.648 145.754 140.606 146.727 140.466 148.567M140.466 148.567C141.566 149.013 143.855 149.369 144.211 147.231C144.258 146.95 144.295 146.651 144.324 146.34M144.211 140.55C144.34 141.711 144.514 144.283 144.324 146.34M144.324 146.34C144.732 147.083 145.993 148.389 147.775 147.676C148.717 147.3 149.285 145.992 149.612 144.559M150.002 140.995C150.002 141.904 149.903 143.282 149.612 144.559M149.612 144.559C149.742 145.598 150.447 147.766 152.229 148.122C154.01 148.478 156.237 144.113 157.128 141.886C156.98 144.41 157.217 149.458 159.355 149.458C160.705 149.458 161.534 148.156 161.999 146.786M162.473 144.559C162.419 145.161 162.271 145.985 161.999 146.786M161.999 146.786C161.712 147.973 161.493 150.349 162.919 150.349C163.77 150.349 164.24 149.502 164.48 148.567M164.7 146.786C164.7 147.264 164.643 147.936 164.48 148.567M164.48 148.567C164.405 150.052 164.7 153.021 166.482 153.021M166.482 153.021V150.349M166.482 153.021C166.631 153.615 167.106 154.892 167.818 155.249M167.818 155.249V151.685M167.818 155.249C167.818 156.882 168.086 160.237 169.155 160.594M169.155 160.594C169.155 162.524 170.279 166.57 172.06 166.926M169.155 160.594V157.921M172.06 166.926L172.034 164.254M172.06 166.926C172.06 168.411 170.688 153.556 171.401 153.912C172.291 154.358 169.698 184.689 175.107 189.643C178.225 191.125 182.313 191.113 189.315 191.125M110.824 184.689C113.613 185.445 119.332 187.416 122.45 186.079C122.45 186.079 123.786 181.528 125.077 173.065C125.671 173.956 126.948 175.292 127.304 173.511C127.415 172.956 127.5 171.638 127.565 169.947M110.824 184.689C111.715 176.954 111.314 173.697 114.878 165.145M110.824 184.689C98.0319 181.221 91.6522 182.516 83.6535 178.062M83.6535 178.062C76.0814 175.835 72.9983 174.55 72.0727 172.271C71.2268 155.249 77.863 128.621 86.7714 112.586C113.051 78.7341 232.404 83.982 252.447 103.135C268.482 118.457 273.995 146.043 275.182 166.829C270.842 169.764 266.368 172.368 261.82 174.673M83.6535 178.062C83.9371 169.302 83.6535 163.809 86.7714 153.564M93.4339 134.759C91.8007 137.283 89.0688 142.243 91.2068 141.886C93.3448 141.529 94.1762 139.956 94.3247 139.213C92.3946 142.777 89.5142 149.815 93.4339 149.458C97.3535 149.102 100.709 144.855 101.897 142.777C101.154 144.855 100.65 148.567 104.569 146.786M112.587 145.449C111.844 148.122 111.429 152.843 115.705 150.349M121.94 140.104C123.722 135.204 127.82 124.693 129.958 121.842M99.6697 134.759C100.857 132.68 103.857 127.632 106.351 124.069M111.696 120.951C110.063 123.624 106.618 129.414 105.905 131.196M208.797 123.178C210.43 129.266 214.052 143.49 215.478 151.685M211.469 124.96C212.508 128.226 214.676 135.561 215.032 138.768M240.867 115.161C242.203 118.576 245.142 126.385 246.211 130.305M256.52 151.685C257.856 158.102 259.326 159.212 261.82 174.673M261.82 174.673C241.642 184.9 220.006 189.256 202.134 190.619M199.907 190.775C199.462 186.801 198.125 177.073 196.344 169.947M199.907 190.775C200.643 190.728 201.385 190.676 202.134 190.619M199.907 190.775C195.976 191.025 192.788 191.131 189.315 191.125M202.134 190.619C201.689 188.182 200.798 182.953 200.798 181.528M189.315 191.125C189.019 181.542 187.614 160.683 186.545 153.912" stroke="black" stroke-linecap="round" stroke-linejoin="round"/>
<path opacity="0.3" fill-rule="evenodd" clip-rule="evenodd" d="M81.6945 123.432C81.9589 123.206 82.2267 122.973 82.4969 122.733C82.3034 122.813 82.0961 122.894 81.8775 122.976C83.3977 119.212 85.0417 115.699 86.7713 112.586C110.631 81.8509 211.214 83.3471 244.535 98.2177C246.201 99.6908 247.81 101.126 249.357 102.506C253.013 105.767 256.32 108.716 259.198 111.115C261.511 114.464 263.518 118.111 265.253 121.947C263.893 122.253 262.415 122.507 260.91 122.679C256.981 123.127 252.87 123.02 250.22 121.842C253.486 124.218 258.861 128.969 254.229 128.969C252.401 128.969 250.79 128.414 249.446 127.633C251.337 129.563 252.714 132.354 243.093 128.078C238.158 125.885 234.261 123.284 231.416 120.952C234.45 123.772 239.607 129.147 235.967 128.078C232.326 127.009 228.808 124.663 227.504 123.624C229.815 127.187 233.834 134.136 231.416 133.423C229.585 132.883 227.229 131.035 225.358 128.969C226.276 131.79 227.561 137.165 225.358 136.096C223.417 135.154 220.853 132.221 219.041 129.481C220.229 132.576 222.07 138.412 219.932 136.987C217.912 135.64 215.204 130.744 213.909 128.078C214.58 132.362 214.765 139.784 210.133 135.205C208.484 133.575 207.162 131.885 206.124 130.297C207.312 132.972 209.242 138.056 207.46 136.987C205.233 135.65 201.67 131.328 201.224 129.481C200.185 133.17 197.216 140.283 193.652 139.214C191.168 138.468 190.704 134.649 190.903 131.196C189.444 134.017 185.991 139.481 183.853 138.768C182.092 138.181 182.627 134.16 183.369 131.196C182.342 133.72 179.933 138.501 178.508 137.432C177.394 136.596 177.477 131.352 177.779 127.187C176.834 131.345 174.232 139.124 171.381 136.987C169.897 139.659 166.482 143.757 164.7 138.768C163.227 134.644 162.87 131.453 162.875 129.8C162.697 131.491 161.932 133.327 159.8 131.196C158.019 135.205 153.476 142.599 149.556 140.104C147.461 138.771 146.375 133.476 145.864 127.633C145.313 131.938 143.231 139.837 139.311 136.987C136.652 135.052 135.209 130.821 134.51 127.187C135.071 130.308 135.57 135.924 133.076 133.423C132.171 132.516 131.434 131.154 130.849 129.658C131.294 130.913 131.739 133.423 129.958 133.423C128.326 133.423 127.318 130.187 126.931 128.16C127.323 130.621 127.492 134.532 125.504 133.869C123.366 133.156 122.534 123.772 122.386 119.17C121.346 123.772 118.466 133.067 115.259 133.423C112.052 133.78 113.923 130.602 115.259 128.969C113.18 131.345 108.132 136.096 104.569 136.096C101.768 136.096 101.903 134.628 102.593 133.423C101.634 133.423 100.44 132.383 102.112 128.524C100.853 130.305 97.7988 133.601 95.6608 132.532C93.9517 131.678 96.2445 128.091 98.6457 124.335C98.9863 123.802 99.329 123.266 99.6629 122.733C95.3711 126.395 86.2045 132.013 79.3945 129.663C80.1218 127.531 80.8904 125.447 81.6945 123.432Z" fill="black"/>
<path d="M178.063 48.3483C216.814 51.4662 258.238 104.025 268.928 105.807C276.084 107 268.868 110.189 260.911 111.097C256.981 111.546 252.871 111.439 250.221 110.261C253.487 112.637 258.862 117.388 254.229 117.388C252.401 117.388 250.791 116.833 249.447 116.052C251.338 117.982 252.715 120.773 243.094 116.497C238.158 114.303 234.262 111.703 231.417 109.37C234.45 112.191 239.608 117.566 235.967 116.497C232.327 115.428 228.809 113.082 227.504 112.043C229.816 115.606 233.834 122.555 231.417 121.842C229.586 121.302 227.229 119.454 225.359 117.388C226.277 120.209 227.562 125.583 225.359 124.514C223.418 123.573 220.854 120.64 219.041 117.899C220.229 120.995 222.07 126.831 219.932 125.405C217.913 124.059 215.205 119.163 213.91 116.497C214.581 120.781 214.765 128.203 210.133 123.624C208.484 121.994 207.163 120.304 206.124 118.716C207.312 121.391 209.242 126.474 207.461 125.405C205.234 124.069 201.67 119.747 201.225 117.899C200.186 121.589 197.216 128.701 193.653 127.632C191.168 126.887 190.705 123.067 190.903 119.615C189.444 122.436 185.992 127.9 183.854 127.187C182.093 126.6 182.628 122.579 183.369 119.615C182.343 122.139 179.934 126.92 178.509 125.851C177.395 125.015 177.478 119.771 177.78 115.606C176.835 119.763 174.233 127.543 171.382 125.405C169.897 128.078 166.482 132.176 164.701 127.187C163.228 123.063 162.871 119.872 162.875 118.219C162.698 119.91 161.932 121.746 159.801 119.615C158.019 123.624 153.476 131.017 149.556 128.523C147.461 127.19 146.376 121.894 145.864 116.052C145.313 120.357 143.232 128.256 139.312 125.405C136.652 123.471 135.209 119.24 134.51 115.606C135.072 118.727 135.57 124.343 133.076 121.842C132.172 120.935 131.435 119.572 130.849 118.076C131.295 119.332 131.74 121.842 129.958 121.842C128.327 121.842 127.318 118.606 126.931 116.578C127.323 119.04 127.493 122.95 125.504 122.287C123.366 121.575 122.535 112.191 122.386 107.589C121.347 112.191 118.467 121.486 115.26 121.842C112.053 122.198 113.923 119.021 115.26 117.388C113.181 119.763 108.133 124.514 104.57 124.514C101.769 124.514 101.903 123.047 102.594 121.842C101.634 121.842 100.44 120.801 102.113 116.942C100.853 118.724 97.7993 122.02 95.6613 120.951C93.7099 119.975 96.976 115.437 99.6634 111.152C94.6176 115.458 82.8334 122.466 76.063 116.052C77.4457 115.207 79.8537 113.495 82.4975 111.152C79.6103 112.34 73.6578 113.914 72.9451 110.707C72.0543 106.698 79.6264 108.479 96.9976 88.8812C114.369 69.2829 142.43 44.785 178.063 48.3483Z" fill="#E7E7E7"/>
<path d="M250.221 110.261C248.736 108.925 245.499 105.807 244.43 104.025M250.221 110.261C253.487 112.637 258.862 117.388 254.229 117.388C252.401 117.388 250.791 116.833 249.447 116.052M250.221 110.261C252.871 111.439 256.981 111.546 260.911 111.097M245.321 112.043C245.95 113.121 247.385 114.853 249.447 116.052M249.447 116.052C251.338 117.982 252.715 120.773 243.094 116.497C238.158 114.303 234.262 111.703 231.417 109.37M226.168 104.025C226.963 105.182 228.716 107.156 231.417 109.37M231.417 109.37C234.45 112.191 239.608 117.566 235.967 116.497C232.327 115.428 228.809 113.082 227.504 112.043C229.816 115.606 233.834 122.555 231.417 121.842C229.586 121.302 227.229 119.454 225.359 117.388M222.605 113.379C223.131 114.608 224.142 116.044 225.359 117.388M225.359 117.388C226.277 120.209 227.562 125.583 225.359 124.514C223.418 123.573 220.854 120.64 219.041 117.899M217.26 114.715C217.654 115.636 218.282 116.751 219.041 117.899M219.041 117.899C220.229 120.995 222.07 126.831 219.932 125.405C217.913 124.059 215.205 119.163 213.91 116.497M213.251 113.379L213.696 116.052C213.762 116.192 213.834 116.34 213.91 116.497M213.91 116.497C214.581 120.781 214.765 128.203 210.133 123.624C208.484 121.994 207.163 120.304 206.124 118.716M203.006 112.043C203.293 113.3 204.245 115.842 206.124 118.716M206.124 118.716C207.312 121.391 209.242 126.474 207.461 125.405C205.234 124.069 201.67 119.747 201.225 117.899C200.186 121.589 197.216 128.701 193.653 127.632C191.168 126.887 190.705 123.067 190.903 119.615M191.426 115.606C191.201 116.685 190.99 118.115 190.903 119.615M190.903 119.615C189.444 122.436 185.992 127.9 183.854 127.187C182.093 126.6 182.628 122.579 183.369 119.615M183.854 117.899C183.696 118.393 183.528 118.98 183.369 119.615M183.369 119.615C182.343 122.139 179.934 126.92 178.509 125.851C177.395 125.015 177.478 119.771 177.78 115.606M178.063 112.488C177.966 113.364 177.864 114.443 177.78 115.606M177.78 115.606C176.835 119.763 174.233 127.543 171.382 125.405M171.382 125.405C172.273 123.327 174.233 117.922 174.945 112.934M171.382 125.405C169.897 128.078 166.482 132.176 164.701 127.187C162.919 122.198 162.77 118.576 162.919 117.388C162.919 119.169 162.295 122.109 159.801 119.615M159.801 119.615C160.098 119.021 160.781 117.388 161.137 115.606M159.801 119.615C158.019 123.624 153.476 131.017 149.556 128.523C147.461 127.19 146.376 121.894 145.864 116.052M145.548 101.798C145.41 105.461 145.419 110.964 145.864 116.052M145.864 116.052C145.313 120.357 143.232 128.256 139.312 125.405C136.652 123.471 135.209 119.24 134.51 115.606M133.967 111.152C134.015 112.297 134.179 113.885 134.51 115.606M134.51 115.606C135.072 118.727 135.57 124.343 133.076 121.842C132.172 120.935 131.435 119.572 130.849 118.076M129.067 110.707C129.257 112.408 129.82 115.448 130.849 118.076M130.849 118.076C131.295 119.332 131.74 121.842 129.958 121.842C128.177 121.842 127.137 117.982 126.84 116.052C127.286 118.427 127.642 123 125.504 122.287C123.366 121.575 122.535 112.191 122.386 107.589C121.347 112.191 118.467 121.486 115.26 121.842C112.053 122.198 113.923 119.021 115.26 117.388M115.26 117.388C116.15 116.2 118.11 113.201 118.823 110.707M115.26 117.388C113.181 119.763 108.133 124.514 104.57 124.514C101.769 124.514 101.903 123.047 102.594 121.842M109.024 112.934C108.311 115.072 104.867 119.169 103.233 120.951C103.011 121.205 102.782 121.514 102.594 121.842M102.594 121.842C101.634 121.842 100.44 120.801 102.113 116.942M103.233 114.715C102.766 115.545 102.398 116.285 102.113 116.942M102.113 116.942C100.853 118.724 97.7993 122.02 95.6613 120.951C93.7099 119.975 96.976 115.437 99.6634 111.152M102.113 106.698C101.57 108.02 100.656 109.569 99.6634 111.152M99.6634 111.152C94.6176 115.458 82.8334 122.466 76.063 116.052C77.4457 115.207 79.8537 113.495 82.4975 111.152M89.8709 103.134C87.6352 106.23 84.9638 108.966 82.4975 111.152M82.4975 111.152C79.6103 112.34 73.6578 113.914 72.9451 110.707C72.0543 106.698 79.6264 108.479 96.9976 88.8812C114.369 69.2829 142.43 44.785 178.063 48.3483C216.814 51.4662 258.238 104.025 268.928 105.807C276.084 107 268.868 110.189 260.911 111.097M113.478 82.1996C110.805 84.7238 106.262 89.5941 109.469 88.8812C112.676 88.1682 114.666 86.5053 115.26 85.7629C114.072 87.5446 112.409 91.0188 115.26 90.6625M145.548 62.6013C141.687 66.0161 132.898 74.8948 128.622 83.0904M146.439 56.3655C142.875 57.9987 134.234 62.7795 128.177 68.8371M158.019 81.3088C157.871 83.2389 158.019 87.0992 159.801 87.0992C161.583 87.0992 161.434 85.0206 161.137 83.9812C161.583 86.2083 163.186 90.6625 166.037 90.6625C168.888 90.6625 168.116 86.5053 167.373 84.4267C168.646 87.99 171.025 89.5935 171.382 87.0992M173.609 55.0292C175.539 56.9594 179.845 61.8886 181.626 66.1646M179.399 58.1471C181.207 60.2257 185.429 65.6301 187.862 70.6188M185.19 80.4179C186.526 82.9419 189.644 87.99 191.426 87.99C193.207 87.99 192.168 85.6144 191.426 84.4267C193.653 86.357 198.552 89.9504 200.334 88.8812C202.116 87.8119 201.67 86.3568 201.225 85.7629C203.006 86.9507 206.926 89.059 208.351 87.99C209.777 86.921 208.351 84.8721 207.461 83.9812C209.688 84.8721 214.053 86.2083 213.696 84.4267M200.334 93.335C201.67 94.9708 205.144 100.29 208.351 108.479M218.151 73.7367C222.308 78.1908 232.582 89.2372 240.421 97.7891M239.085 92.8896C239.976 93.9289 242.292 96.3638 244.43 97.7891M250.221 105.807C252.002 107.255 256.635 110.341 260.911 111.097M91.6525 108.479C93.8796 106.821 99.581 102.005 104.57 96.0075" stroke="black" stroke-linecap="round" stroke-linejoin="round"/>
<ellipse cx="19.2223" cy="5.28674" rx="19.2223" ry="5.28674" transform="matrix(-0.977824 0.209426 0.209426 0.977824 296.207 167.766)" fill="black" fill-opacity="0.2"/>
<path d="M301.059 165.954C301.013 162.075 298.63 153.614 289.461 150.807C280.292 148 271.942 151.015 268.913 152.874C267.472 154.479 264.991 159.366 266.599 166.075C268.128 172.45 272.563 175.055 277.408 174.539C294.059 176.277 300.113 169.54 301.059 165.954Z" fill="#B6B6B6"/>
<path d="M268.913 152.874C271.942 151.015 280.292 148 289.461 150.807C298.63 153.614 301.013 162.075 301.059 165.954C300.113 169.54 294.059 176.277 277.408 174.539M268.913 152.874C267.472 154.479 264.991 159.366 266.599 166.075C268.128 172.45 272.563 175.055 277.408 174.539M268.913 152.874C275.178 154.125 283.158 158.38 286.055 161.908C288.953 165.436 288.422 169.957 282.035 173.14C280.504 173.903 278.936 174.376 277.408 174.539" stroke="black" stroke-width="0.6" stroke-linecap="round" stroke-linejoin="round"/>
<path d="M268.914 152.874C267.473 154.479 264.993 159.366 266.601 166.074C268.129 172.449 272.564 175.055 277.41 174.538C294.061 176.277 300.115 169.54 301.06 165.954C298.156 166.403 291.423 166.981 287.723 165.699C287.613 164.382 287.027 163.089 286.057 161.907C283.159 158.379 275.179 154.124 268.914 152.874Z" fill="#7C7C7C"/>
<path d="M277.41 174.538C272.564 175.055 268.129 172.449 266.601 166.074C264.993 159.366 267.473 154.479 268.914 152.874C275.179 154.124 283.159 158.379 286.057 161.907C287.027 163.089 287.613 164.382 287.723 165.699M277.41 174.538C278.937 174.376 280.506 173.903 282.037 173.14C286.284 171.023 287.942 168.314 287.723 165.699M277.41 174.538C294.061 176.277 300.115 169.54 301.06 165.954C298.156 166.403 291.423 166.981 287.723 165.699" stroke="black" stroke-width="0.6" stroke-linecap="round" stroke-linejoin="round"/>
<path d="M266.6 166.074C264.992 159.365 267.472 154.478 268.913 152.873C275.179 154.124 283.158 158.379 286.056 161.907C288.953 165.435 288.422 169.956 282.036 173.139C280.505 173.902 278.936 174.375 277.409 174.538C272.563 175.054 268.128 172.449 266.6 166.074Z" fill="#818181" stroke="black" stroke-width="0.6" stroke-linecap="round" stroke-linejoin="round"/>
<path d="M269.469 163.535C274.105 163.579 274.758 169.23 274.506 172.05C274.842 173.62 273.764 177.187 266.761 178.894C259.758 180.601 259.115 173.531 259.669 169.782C261.004 167.681 264.833 163.491 269.469 163.535Z" fill="#999999" stroke="black" stroke-width="0.6" stroke-linecap="round" stroke-linejoin="round"/>
<path d="M269.469 163.535C274.105 163.579 274.758 169.23 274.506 172.05C272.088 173.432 265.737 174.913 259.669 169.782C261.004 167.681 264.833 163.491 269.469 163.535Z" fill="#B6B6B6" stroke="black" stroke-width="0.6" stroke-linecap="round" stroke-linejoin="round"/>
<mask id="path-32-inside-1_30956_4244" fill="white">
<path fill-rule="evenodd" clip-rule="evenodd" d="M261.404 53.4761C261.389 53.6973 261.372 53.9168 261.353 54.1346L261.36 54.1416L261.422 54.0935C261.457 53.8298 261.506 53.5654 261.568 53.301L261.581 53.2448L261.546 53.2924C261.529 53.3144 261.513 53.3363 261.496 53.3581C261.466 53.3978 261.435 53.4371 261.404 53.4761ZM261.014 42.8559C262.255 44.2107 263.027 45.9661 263.153 47.8403C269.664 27.2618 290.836 3.02961 320.828 31.3316C317.672 30.9194 310.372 30.2651 306.422 30.9454C305.672 30.3792 303.913 29.1742 302.873 28.8842L303.466 31.1937C300.832 31.6691 294.634 33.1194 290.91 35.1166C289.397 34.5299 286.108 33.3496 285.061 33.3215C285.695 34.103 286.891 35.9262 286.601 36.9669C283.559 38.3494 277.167 41.849 270.265 47.0126C270.645 47.0468 271.027 47.108 271.409 47.1975C272.17 47.376 272.881 47.6553 273.532 48.018C285.714 44.4619 300.029 47.3292 301.806 69.7959C300.394 68.1388 296.993 64.4578 294.678 62.9905C294.558 62.3596 294.218 60.9416 293.824 60.3171L293.065 61.7604C291.511 60.7931 287.703 58.6845 284.898 57.9891C284.4 56.9973 283.274 54.89 282.756 54.395C282.719 55.0824 282.489 56.5557 281.864 56.9504C280.927 56.6513 279.494 56.2662 277.698 55.8808C277.664 56.2652 277.603 56.6518 277.512 57.0384C276.523 61.2587 272.434 63.9444 268.219 63.251C275.891 75.5366 280.089 90.6846 282.132 105.555C283.47 115.289 283.884 124.903 283.744 133.518C283.713 135.465 283.653 137.362 283.569 139.196C283.396 142.982 283.121 146.508 282.781 149.683C284.909 149.764 287.159 150.102 289.461 150.806C293.786 152.131 296.602 154.713 298.374 157.48C301.336 158.78 304.368 160.132 307.512 161.532C321.479 167.756 337.635 174.955 359.5 183C386 192.75 275.846 214 172.569 214C69.2918 214 -16.9998 191.569 5.50022 183C18.4026 178.086 30.3458 173.331 41.6068 168.848L41.607 168.848C52.6203 164.464 62.9812 160.339 72.9486 156.58C74.6889 143.917 78.6826 129.734 83.748 118.612C80.9286 118.787 78.237 118.111 76.0626 116.051C77.4453 115.206 79.8532 113.495 82.497 111.152C79.6098 112.339 73.6573 113.913 72.9447 110.706C72.5744 109.04 73.666 108.374 76.3152 106.758C80.0403 104.486 86.8454 100.334 96.9971 88.8808C114.368 69.2825 142.429 44.7847 178.063 48.348C185.02 48.9078 192.063 51.0611 198.999 54.2282C212.871 24.9599 235.043 30.0723 249.933 41.9469C250.407 41.576 250.921 41.258 251.465 40.9991C247.333 36.2699 243.589 32.7819 241.538 31.1112C241.522 30.0309 243.142 28.5717 243.954 27.9771C242.934 27.7379 239.453 28.0434 237.841 28.2261C234.747 25.348 229.121 22.3696 226.695 21.2401L227.856 19.1574C226.775 19.1733 224.768 19.8915 223.899 20.2486C220.252 18.5864 213.026 17.3634 209.868 16.9597C243.472 -1.37066 258.218 22.1447 261.014 42.8559ZM200.88 55.1126C203.983 53.4326 208.083 51.4328 210.877 50.7504C211.338 49.9324 212.471 48.126 213.309 47.4451L213.686 49.7996C216.291 49.1854 222.554 48.0437 226.765 48.3907C227.919 47.2493 230.464 44.8556 231.413 44.412C231.143 45.3817 230.773 47.5307 231.454 48.3694C234.331 48.4167 240.113 48.9129 247.02 50.3165C247.146 50.8343 247.321 51.3364 247.542 51.8162C237.006 51.9141 226.38 56.7046 225.853 71.0348C217.975 64.9806 209.525 59.2955 200.88 55.1126ZM249.356 90.9234L249.357 90.924L249.357 90.9241C258.363 98.9569 265.248 105.097 268.825 105.788C268.736 103.003 268.599 100.281 268.419 97.6308C268.285 95.6462 268.127 93.7019 267.948 91.8015C266.934 80.9901 265.264 71.5977 263.523 64.2626C261.912 67.6858 258.079 69.6384 254.247 68.7403C250.032 67.7522 247.348 63.6713 248.033 59.4614C245.428 60.7727 243.421 61.9746 242.287 62.7443C241.576 62.543 240.938 61.1955 240.708 60.5468C240.351 61.1685 239.869 63.5087 239.673 64.6011C237.181 66.0636 234.127 69.166 232.911 70.5344L231.774 69.3656C231.573 70.0765 231.65 71.5324 231.714 72.1715C231.204 72.755 230.661 73.5329 230.124 74.3935C237.178 80.0617 243.687 85.8668 249.355 90.9225L249.356 90.9234ZM268.909 109.309C266.848 110.078 263.932 110.752 260.91 111.097C260.372 111.159 259.831 111.21 259.29 111.249C263.066 116.745 266.019 123.038 268.306 129.646C268.567 126.242 268.741 122.888 268.839 119.596C268.88 118.246 268.907 116.907 268.923 115.579C268.948 113.459 268.942 111.368 268.909 109.309Z"/>
</mask>
<path fill-rule="evenodd" clip-rule="evenodd" d="M261.404 53.4761C261.389 53.6973 261.372 53.9168 261.353 54.1346L261.36 54.1416L261.422 54.0935C261.457 53.8298 261.506 53.5654 261.568 53.301L261.581 53.2448L261.546 53.2924C261.529 53.3144 261.513 53.3363 261.496 53.3581C261.466 53.3978 261.435 53.4371 261.404 53.4761ZM261.014 42.8559C262.255 44.2107 263.027 45.9661 263.153 47.8403C269.664 27.2618 290.836 3.02961 320.828 31.3316C317.672 30.9194 310.372 30.2651 306.422 30.9454C305.672 30.3792 303.913 29.1742 302.873 28.8842L303.466 31.1937C300.832 31.6691 294.634 33.1194 290.91 35.1166C289.397 34.5299 286.108 33.3496 285.061 33.3215C285.695 34.103 286.891 35.9262 286.601 36.9669C283.559 38.3494 277.167 41.849 270.265 47.0126C270.645 47.0468 271.027 47.108 271.409 47.1975C272.17 47.376 272.881 47.6553 273.532 48.018C285.714 44.4619 300.029 47.3292 301.806 69.7959C300.394 68.1388 296.993 64.4578 294.678 62.9905C294.558 62.3596 294.218 60.9416 293.824 60.3171L293.065 61.7604C291.511 60.7931 287.703 58.6845 284.898 57.9891C284.4 56.9973 283.274 54.89 282.756 54.395C282.719 55.0824 282.489 56.5557 281.864 56.9504C280.927 56.6513 279.494 56.2662 277.698 55.8808C277.664 56.2652 277.603 56.6518 277.512 57.0384C276.523 61.2587 272.434 63.9444 268.219 63.251C275.891 75.5366 280.089 90.6846 282.132 105.555C283.47 115.289 283.884 124.903 283.744 133.518C283.713 135.465 283.653 137.362 283.569 139.196C283.396 142.982 283.121 146.508 282.781 149.683C284.909 149.764 287.159 150.102 289.461 150.806C293.786 152.131 296.602 154.713 298.374 157.48C301.336 158.78 304.368 160.132 307.512 161.532C321.479 167.756 337.635 174.955 359.5 183C386 192.75 275.846 214 172.569 214C69.2918 214 -16.9998 191.569 5.50022 183C18.4026 178.086 30.3458 173.331 41.6068 168.848L41.607 168.848C52.6203 164.464 62.9812 160.339 72.9486 156.58C74.6889 143.917 78.6826 129.734 83.748 118.612C80.9286 118.787 78.237 118.111 76.0626 116.051C77.4453 115.206 79.8532 113.495 82.497 111.152C79.6098 112.339 73.6573 113.913 72.9447 110.706C72.5744 109.04 73.666 108.374 76.3152 106.758C80.0403 104.486 86.8454 100.334 96.9971 88.8808C114.368 69.2825 142.429 44.7847 178.063 48.348C185.02 48.9078 192.063 51.0611 198.999 54.2282C212.871 24.9599 235.043 30.0723 249.933 41.9469C250.407 41.576 250.921 41.258 251.465 40.9991C247.333 36.2699 243.589 32.7819 241.538 31.1112C241.522 30.0309 243.142 28.5717 243.954 27.9771C242.934 27.7379 239.453 28.0434 237.841 28.2261C234.747 25.348 229.121 22.3696 226.695 21.2401L227.856 19.1574C226.775 19.1733 224.768 19.8915 223.899 20.2486C220.252 18.5864 213.026 17.3634 209.868 16.9597C243.472 -1.37066 258.218 22.1447 261.014 42.8559ZM200.88 55.1126C203.983 53.4326 208.083 51.4328 210.877 50.7504C211.338 49.9324 212.471 48.126 213.309 47.4451L213.686 49.7996C216.291 49.1854 222.554 48.0437 226.765 48.3907C227.919 47.2493 230.464 44.8556 231.413 44.412C231.143 45.3817 230.773 47.5307 231.454 48.3694C234.331 48.4167 240.113 48.9129 247.02 50.3165C247.146 50.8343 247.321 51.3364 247.542 51.8162C237.006 51.9141 226.38 56.7046 225.853 71.0348C217.975 64.9806 209.525 59.2955 200.88 55.1126ZM249.356 90.9234L249.357 90.924L249.357 90.9241C258.363 98.9569 265.248 105.097 268.825 105.788C268.736 103.003 268.599 100.281 268.419 97.6308C268.285 95.6462 268.127 93.7019 267.948 91.8015C266.934 80.9901 265.264 71.5977 263.523 64.2626C261.912 67.6858 258.079 69.6384 254.247 68.7403C250.032 67.7522 247.348 63.6713 248.033 59.4614C245.428 60.7727 243.421 61.9746 242.287 62.7443C241.576 62.543 240.938 61.1955 240.708 60.5468C240.351 61.1685 239.869 63.5087 239.673 64.6011C237.181 66.0636 234.127 69.166 232.911 70.5344L231.774 69.3656C231.573 70.0765 231.65 71.5324 231.714 72.1715C231.204 72.755 230.661 73.5329 230.124 74.3935C237.178 80.0617 243.687 85.8668 249.355 90.9225L249.356 90.9234ZM268.909 109.309C266.848 110.078 263.932 110.752 260.91 111.097C260.372 111.159 259.831 111.21 259.29 111.249C263.066 116.745 266.019 123.038 268.306 129.646C268.567 126.242 268.741 122.888 268.839 119.596C268.88 118.246 268.907 116.907 268.923 115.579C268.948 113.459 268.942 111.368 268.909 109.309Z" fill="black" fill-opacity="0.3"/>
<path d="M261.353 54.1346L260.357 54.0501L260.32 54.4849L260.614 54.8076L261.353 54.1346ZM261.404 53.4761L260.62 52.8552L260.428 53.0979L260.407 53.4067L261.404 53.4761ZM261.36 54.1416L260.62 54.8146L261.241 55.4971L261.971 54.9329L261.36 54.1416ZM261.422 54.0935L262.033 54.8848L262.359 54.6335L262.413 54.2261L261.422 54.0935ZM261.568 53.301L260.595 53.0692L260.594 53.0728L261.568 53.301ZM261.581 53.2448L262.554 53.4765L260.778 52.6494L261.581 53.2448ZM261.546 53.2924L262.347 53.8905L262.349 53.8878L261.546 53.2924ZM261.496 53.3581L262.291 53.965L262.291 53.9644L261.496 53.3581ZM263.153 47.8403L262.155 47.9076L264.107 48.1419L263.153 47.8403ZM261.014 42.8559L260.023 42.9896L260.065 43.3003L260.277 43.5315L261.014 42.8559ZM320.828 31.3316L320.698 32.3231L323.759 32.7229L321.514 30.6043L320.828 31.3316ZM306.422 30.9454L305.819 31.7432L306.164 32.0044L306.591 31.9309L306.422 30.9454ZM302.873 28.8842L303.141 27.9209L301.473 27.4561L301.904 29.1331L302.873 28.8842ZM303.466 31.1937L303.644 32.1778L304.702 31.9867L304.435 30.9448L303.466 31.1937ZM290.91 35.1166L290.549 36.0489L290.978 36.2152L291.383 35.9978L290.91 35.1166ZM285.061 33.3215L285.088 32.3219L282.914 32.2636L284.284 33.9517L285.061 33.3215ZM286.601 36.9669L287.015 37.8773L287.439 37.6845L287.565 37.2354L286.601 36.9669ZM270.265 47.0126L269.666 46.2119L267.578 47.7743L270.175 48.0086L270.265 47.0126ZM271.409 47.1975L271.637 46.2239V46.2239L271.409 47.1975ZM273.532 48.018L273.045 48.8914L273.41 49.0952L273.812 48.9779L273.532 48.018ZM301.806 69.7959L301.045 70.4443L303.046 72.7944L302.803 69.717L301.806 69.7959ZM294.678 62.9905L293.695 63.1776L293.776 63.6032L294.142 63.8352L294.678 62.9905ZM293.824 60.3171L294.669 59.7829L293.744 58.3192L292.939 59.8518L293.824 60.3171ZM293.065 61.7604L292.537 62.6093L293.45 63.1779L293.95 62.2257L293.065 61.7604ZM284.898 57.9891L284.005 58.438L284.211 58.849L284.658 58.9597L284.898 57.9891ZM282.756 54.395L283.446 53.6717L281.874 52.1704L281.757 54.3414L282.756 54.395ZM281.864 56.9504L281.56 57.9031L282.004 58.0448L282.399 57.7957L281.864 56.9504ZM277.698 55.8808L277.908 54.9031L276.802 54.6657L276.702 55.7927L277.698 55.8808ZM277.512 57.0384L276.538 56.8102V56.8102L277.512 57.0384ZM268.219 63.251L268.381 62.2643L266.2 61.9055L267.371 63.7807L268.219 63.251ZM282.132 105.555L283.123 105.419L282.132 105.555ZM283.744 133.518L284.744 133.535V133.535L283.744 133.518ZM283.569 139.196L282.57 139.151L283.569 139.196ZM282.781 149.683L281.787 149.576L281.673 150.641L282.743 150.682L282.781 149.683ZM289.461 150.806L289.754 149.85L289.461 150.806ZM298.374 157.48L297.532 158.019L297.695 158.274L297.972 158.396L298.374 157.48ZM307.512 161.532L307.105 162.446L307.512 161.532ZM359.5 183L359.845 182.061L359.5 183ZM5.50022 183L5.14431 182.065H5.14431L5.50022 183ZM41.6068 168.848L41.2508 167.914L41.2438 167.917L41.2369 167.919L41.6068 168.848ZM41.607 168.848L41.963 169.783L41.97 169.78L41.9769 169.777L41.607 168.848ZM72.9486 156.58L73.3015 157.515L73.8583 157.305L73.9393 156.716L72.9486 156.58ZM83.748 118.612L84.6581 119.026L85.3484 117.511L83.6861 117.614L83.748 118.612ZM76.0626 116.051L75.5411 115.198L74.4267 115.879L75.3748 116.777L76.0626 116.051ZM82.497 111.152L83.1603 111.9L82.1166 110.227L82.497 111.152ZM72.9447 110.706L71.9685 110.923V110.923L72.9447 110.706ZM76.3152 106.758L76.836 107.612L76.3152 106.758ZM96.9971 88.8808L97.7455 89.5442L96.9971 88.8808ZM178.063 48.348L177.963 49.343L177.973 49.344L177.983 49.3448L178.063 48.348ZM198.999 54.2282L198.584 55.1378L199.481 55.5473L199.903 54.6565L198.999 54.2282ZM249.933 41.9469L249.31 42.7288L249.927 43.2212L250.549 42.7347L249.933 41.9469ZM251.465 40.9991L251.895 41.9019L253.086 41.3346L252.218 40.3412L251.465 40.9991ZM241.538 31.1112L240.538 31.1259L240.545 31.592L240.906 31.8865L241.538 31.1112ZM243.954 27.9771L244.545 28.784L246.299 27.4997L244.183 27.0035L243.954 27.9771ZM237.841 28.2261L237.159 28.9582L237.496 29.2715L237.953 29.2197L237.841 28.2261ZM226.695 21.2401L225.821 20.7532L225.297 21.6927L226.273 22.1467L226.695 21.2401ZM227.856 19.1574L228.729 19.6443L229.572 18.132L227.841 18.1575L227.856 19.1574ZM223.899 20.2486L223.485 21.1586L223.879 21.3382L224.28 21.1735L223.899 20.2486ZM209.868 16.9597L209.389 16.0818L206.679 17.56L209.741 17.9516L209.868 16.9597ZM210.877 50.7504L211.114 51.7219L211.535 51.6191L211.748 51.2417L210.877 50.7504ZM200.88 55.1126L200.404 54.2333L198.687 55.1627L200.444 56.0128L200.88 55.1126ZM213.309 47.4451L214.297 47.2871L214.023 45.5775L212.679 46.6687L213.309 47.4451ZM213.686 49.7996L212.699 49.9576L212.869 51.0198L213.916 50.7729L213.686 49.7996ZM226.765 48.3907L226.683 49.3873L227.141 49.425L227.468 49.1016L226.765 48.3907ZM231.413 44.412L232.377 44.6804L232.96 42.5859L230.99 43.506L231.413 44.412ZM231.454 48.3694L230.678 48.9997L230.972 49.3616L231.438 49.3693L231.454 48.3694ZM247.02 50.3165L247.992 50.081L247.842 49.4631L247.219 49.3365L247.02 50.3165ZM247.542 51.8162L247.551 52.8161L249.097 52.8018L248.45 51.3976L247.542 51.8162ZM225.853 71.0348L225.244 71.8277L226.781 73.0092L226.853 71.0716L225.853 71.0348ZM249.357 90.924L250.064 90.2169L250.051 90.2038L250.037 90.1912L249.357 90.924ZM249.356 90.9234L250.037 90.1906L250.026 90.1809L250.016 90.1715L249.356 90.9234ZM249.357 90.9241L248.65 91.6312L248.67 91.6514L248.691 91.6704L249.357 90.9241ZM268.825 105.788L268.635 106.77L269.864 107.007L269.824 105.756L268.825 105.788ZM268.419 97.6308L269.417 97.5632V97.5632L268.419 97.6308ZM267.948 91.8015L268.944 91.7082V91.7081L267.948 91.8015ZM263.523 64.2626L264.496 64.0317L263.836 61.2495L262.618 63.8368L263.523 64.2626ZM254.247 68.7403L254.019 69.7139L254.247 68.7403ZM248.033 59.4614L249.02 59.6219L249.334 57.6864L247.583 58.5681L248.033 59.4614ZM242.287 62.7443L242.015 63.7065L242.463 63.8335L242.849 63.5716L242.287 62.7443ZM240.708 60.5468L241.65 60.2121L240.922 58.1633L239.84 60.0492L240.708 60.5468ZM239.673 64.6011L240.179 65.4635L240.575 65.2307L240.657 64.778L239.673 64.6011ZM232.911 70.5344L232.195 71.2317L232.945 72.0028L233.659 71.1985L232.911 70.5344ZM231.774 69.3656L232.491 68.6683L231.284 67.4273L230.812 69.0932L231.774 69.3656ZM231.714 72.1715L232.467 72.8296L232.752 72.5033L232.709 72.0722L231.714 72.1715ZM230.124 74.3935L229.276 73.8644L228.806 74.6173L229.498 75.173L230.124 74.3935ZM249.355 90.9225L248.69 91.6688L248.696 91.6744L249.355 90.9225ZM260.91 111.097L260.797 110.104V110.104L260.91 111.097ZM268.909 109.309L269.909 109.293L269.886 107.878L268.56 108.372L268.909 109.309ZM259.29 111.249L259.218 110.251L257.479 110.378L258.466 111.815L259.29 111.249ZM268.306 129.646L267.361 129.974L269.304 129.723L268.306 129.646ZM268.839 119.596L269.839 119.626V119.626L268.839 119.596ZM268.923 115.579L269.923 115.59V115.59L268.923 115.579ZM262.35 54.2192C262.369 53.9963 262.386 53.7717 262.402 53.5455L260.407 53.4067C260.392 53.6228 260.375 53.8372 260.357 54.0501L262.35 54.2192ZM262.099 53.4686L262.093 53.4616L260.614 54.8076L260.62 54.8146L262.099 53.4686ZM260.81 53.3023L260.748 53.3503L261.971 54.9329L262.033 54.8848L260.81 53.3023ZM260.594 53.0728C260.525 53.3688 260.47 53.6651 260.431 53.9609L262.413 54.2261C262.444 53.9945 262.487 53.762 262.541 53.5292L260.594 53.0728ZM260.608 53.013L260.595 53.0692L262.54 53.5328L262.554 53.4765L260.608 53.013ZM262.349 53.8878L262.384 53.8402L260.778 52.6494L260.742 52.697L262.349 53.8878ZM262.291 53.9644C262.31 53.9406 262.328 53.9159 262.347 53.8905L260.744 52.6943C260.73 52.7129 260.716 52.732 260.701 52.7519L262.291 53.9644ZM262.188 54.0971C262.223 54.0532 262.257 54.0092 262.291 53.965L260.701 52.7512C260.675 52.7863 260.648 52.821 260.62 52.8552L262.188 54.0971ZM264.151 47.773C264.009 45.668 263.143 43.6991 261.751 42.1802L260.277 43.5315C261.368 44.7222 262.045 46.2642 262.155 47.9076L264.151 47.773ZM321.514 30.6043C313.926 23.4438 306.823 19.5369 300.294 18.1007C293.747 16.6607 287.848 17.7209 282.726 20.3674C272.541 25.6302 265.497 37.1174 262.2 47.5386L264.107 48.1419C267.32 37.9847 274.118 27.0666 283.644 22.1442C288.378 19.6981 293.803 18.7207 299.864 20.054C305.943 21.391 312.734 25.0684 320.142 32.0589L321.514 30.6043ZM306.591 31.9309C308.452 31.6105 311.171 31.5981 313.875 31.7276C316.558 31.8563 319.144 32.1202 320.698 32.3231L320.957 30.34C319.355 30.1307 316.714 29.8614 313.97 29.7299C311.247 29.5994 308.342 29.6 306.252 29.9599L306.591 31.9309ZM302.604 29.8475C302.978 29.9515 303.574 30.2575 304.232 30.6629C304.865 31.0523 305.466 31.4766 305.819 31.7432L307.025 30.1476C306.628 29.848 305.975 29.3867 305.281 28.9596C304.612 28.5484 303.809 28.1069 303.141 27.9209L302.604 29.8475ZM304.435 30.9448L303.841 28.6354L301.904 29.1331L302.498 31.4425L304.435 30.9448ZM291.383 35.9978C294.959 34.0797 301.025 32.6506 303.644 32.1778L303.289 30.2096C300.64 30.6877 294.308 32.1591 290.438 34.2353L291.383 35.9978ZM285.034 34.3212C285.172 34.3249 285.478 34.3765 285.954 34.4996C286.405 34.6162 286.94 34.7778 287.501 34.9604C288.622 35.3254 289.805 35.7605 290.549 36.0489L291.272 34.1842C290.503 33.886 289.284 33.4376 288.121 33.0587C287.539 32.8694 286.961 32.694 286.454 32.5631C285.972 32.4386 285.473 32.3322 285.088 32.3219L285.034 34.3212ZM287.565 37.2354C287.702 36.743 287.645 36.2425 287.543 35.8287C287.438 35.4034 287.263 34.9812 287.072 34.5995C286.69 33.8371 286.189 33.1251 285.837 32.6913L284.284 33.9517C284.567 34.2995 284.981 34.8898 285.283 35.4946C285.434 35.7964 285.544 36.0741 285.601 36.3077C285.662 36.5529 285.646 36.6705 285.638 36.6985L287.565 37.2354ZM270.864 47.8133C277.711 42.6904 284.042 39.2284 287.015 37.8773L286.188 36.0566C283.076 37.4705 276.622 41.0076 269.666 46.2119L270.864 47.8133ZM271.637 46.2239C271.209 46.1237 270.781 46.0551 270.355 46.0166L270.175 48.0086C270.509 48.0386 270.844 48.0923 271.18 48.1711L271.637 46.2239ZM274.019 47.1445C273.288 46.737 272.489 46.4238 271.637 46.2239L271.18 48.1711C271.85 48.3282 272.475 48.5735 273.045 48.8914L274.019 47.1445ZM302.803 69.717C301.898 58.2788 297.772 51.5816 292.072 48.2829C286.419 45.0119 279.481 45.2396 273.251 47.058L273.812 48.9779C279.765 47.2402 286.075 47.1236 291.07 50.0139C296.017 52.8765 299.937 58.8463 300.809 69.8747L302.803 69.717ZM294.142 63.8352C295.202 64.5064 296.566 65.7268 297.875 67.0306C299.17 68.3201 300.355 69.6343 301.045 70.4443L302.567 69.1475C301.846 68.3004 300.624 66.9455 299.286 65.6135C297.963 64.2956 296.469 62.9418 295.213 62.1459L294.142 63.8352ZM292.978 60.8513C293.094 61.0344 293.246 61.4252 293.394 61.9313C293.533 62.4082 293.64 62.8891 293.695 63.1776L295.66 62.8034C295.595 62.461 295.473 61.9174 295.314 61.3715C295.163 60.8548 294.948 60.2243 294.669 59.7829L292.978 60.8513ZM293.95 62.2257L294.709 60.7823L292.939 59.8518L292.18 61.2951L293.95 62.2257ZM284.658 58.9597C287.3 59.6148 290.996 61.65 292.537 62.6093L293.594 60.9115C292.027 59.9362 288.106 57.7542 285.139 57.0185L284.658 58.9597ZM282.065 55.1183C282.105 55.1566 282.219 55.296 282.404 55.5762C282.575 55.8349 282.768 56.1561 282.967 56.5031C283.364 57.1962 283.762 57.9541 284.005 58.438L285.792 57.5402C285.537 57.0322 285.122 56.2406 284.702 55.5083C284.492 55.1427 284.276 54.7823 284.074 54.4757C283.886 54.1906 283.665 53.881 283.446 53.6717L282.065 55.1183ZM282.399 57.7957C282.758 57.5683 282.991 57.2359 283.143 56.9551C283.299 56.6638 283.412 56.3454 283.494 56.0506C283.658 55.4621 283.733 54.8476 283.754 54.4486L281.757 54.3414C281.742 54.6298 281.684 55.0956 281.567 55.5143C281.509 55.7231 281.444 55.8901 281.381 56.0075C281.312 56.1354 281.283 56.1352 281.33 56.1051L282.399 57.7957ZM277.488 56.8586C279.261 57.2388 280.661 57.6161 281.56 57.9031L282.168 55.9977C281.193 55.6865 279.728 55.2935 277.908 54.9031L277.488 56.8586ZM278.486 57.2667C278.587 56.8338 278.656 56.4003 278.694 55.9689L276.702 55.7927C276.672 56.1301 276.618 56.4699 276.538 56.8102L278.486 57.2667ZM268.056 64.2378C272.787 65.016 277.375 62.0027 278.486 57.2667L276.538 56.8102C275.67 60.5147 272.08 62.8728 268.381 62.2643L268.056 64.2378ZM283.123 105.419C281.069 90.471 276.841 75.1704 269.067 62.7214L267.371 63.7807C274.94 75.9029 279.109 90.8982 281.141 105.691L283.123 105.419ZM284.744 133.535C284.884 124.877 284.468 115.211 283.123 105.419L281.141 105.691C282.471 115.366 282.883 124.929 282.744 133.502L284.744 133.535ZM284.568 139.242C284.652 137.397 284.712 135.492 284.744 133.535L282.744 133.502C282.713 135.439 282.654 137.326 282.57 139.151L284.568 139.242ZM283.776 149.789C284.118 146.593 284.394 143.048 284.568 139.242L282.57 139.151C282.398 142.917 282.125 146.422 281.787 149.576L283.776 149.789ZM289.754 149.85C287.362 149.118 285.026 148.768 282.819 148.683L282.743 150.682C284.792 150.76 286.956 151.085 289.168 151.763L289.754 149.85ZM299.216 156.94C297.331 153.998 294.331 151.252 289.754 149.85L289.168 151.763C293.242 153.01 295.873 155.429 297.532 158.019L299.216 156.94ZM307.919 160.619C304.776 159.218 301.741 157.866 298.776 156.564L297.972 158.396C300.931 159.695 303.961 161.045 307.105 162.446L307.919 160.619ZM359.845 182.061C338.014 174.029 321.884 166.842 307.919 160.619L307.105 162.446C321.075 168.671 337.256 175.881 359.155 183.938L359.845 182.061ZM172.569 215C224.266 215 277.682 209.682 314.874 203.141C333.451 199.874 348.054 196.289 356.374 192.882C358.458 192.029 360.183 191.173 361.488 190.318C362.765 189.481 363.766 188.564 364.225 187.54C364.465 187.004 364.56 186.427 364.452 185.837C364.344 185.253 364.051 184.735 363.645 184.285C362.856 183.411 361.548 182.688 359.845 182.061L359.155 183.938C360.764 184.53 361.701 185.116 362.16 185.625C362.377 185.865 362.458 186.057 362.485 186.199C362.51 186.336 362.498 186.501 362.399 186.723C362.18 187.212 361.577 187.868 360.391 188.645C359.234 189.403 357.639 190.203 355.616 191.031C347.508 194.351 333.087 197.907 314.528 201.171C277.449 207.692 224.149 213 172.569 213V215ZM5.14431 182.065C3.67949 182.623 2.52809 183.282 1.79486 184.086C1.01566 184.941 0.709874 185.972 1.02121 187.066C1.30662 188.069 2.07229 188.982 3.07473 189.813C4.09547 190.659 5.46678 191.506 7.13779 192.351C13.8007 195.721 25.8137 199.35 41.6618 202.692C73.4046 209.386 120.866 215 172.569 215V213C120.995 213 73.6718 207.398 42.0745 200.735C26.2526 197.398 14.4566 193.812 8.04055 190.566C6.44183 189.758 5.21402 188.988 4.3511 188.273C3.46988 187.542 3.06735 186.949 2.94483 186.518C2.84823 186.179 2.8948 185.849 3.27306 185.434C3.69729 184.968 4.50845 184.448 5.85613 183.934L5.14431 182.065ZM41.2369 167.919C29.9752 172.403 18.0387 177.154 5.14431 182.065L5.85613 183.934C18.7665 179.017 30.7163 174.26 41.9766 169.778L41.2369 167.919ZM41.251 167.914L41.2508 167.914L41.9628 169.783L41.963 169.783L41.251 167.914ZM72.5956 155.644C62.6182 159.408 52.2486 163.536 41.2371 167.919L41.9769 169.777C52.992 165.392 63.3441 161.271 73.3015 157.515L72.5956 155.644ZM82.838 118.197C77.7292 129.414 73.7104 143.692 71.9579 156.443L73.9393 156.716C75.6674 144.141 79.636 130.053 84.6581 119.026L82.838 118.197ZM75.3748 116.777C77.7965 119.071 80.7838 119.798 83.8099 119.61L83.6861 117.614C81.0734 117.776 78.6775 117.151 76.7503 115.325L75.3748 116.777ZM81.8337 110.403C79.2288 112.712 76.8679 114.387 75.5411 115.198L76.584 116.904C78.0226 116.025 80.4777 114.278 83.1603 111.9L81.8337 110.403ZM71.9685 110.923C72.2284 112.093 72.9958 112.834 73.9565 113.223C74.8646 113.59 75.9423 113.65 76.978 113.574C79.0622 113.423 81.3818 112.692 82.8775 112.076L82.1166 110.227C80.7251 110.799 78.6249 111.449 76.8328 111.58C75.9305 111.645 75.206 111.571 74.7073 111.369C74.2612 111.188 74.0172 110.923 73.9209 110.489L71.9685 110.923ZM75.7944 105.904C74.5224 106.68 73.4477 107.327 72.7788 108.018C72.4191 108.39 72.1291 108.819 71.9808 109.34C71.8325 109.861 71.8499 110.39 71.9685 110.923L73.9209 110.489C73.8543 110.19 73.8694 110.01 73.9044 109.888C73.9394 109.765 74.0184 109.613 74.2165 109.409C74.663 108.947 75.4587 108.452 76.836 107.612L75.7944 105.904ZM96.2488 88.2175C86.1806 99.5766 79.4606 103.668 75.7944 105.904L76.836 107.612C80.6201 105.303 87.5103 101.092 97.7455 89.5442L96.2488 88.2175ZM178.162 47.353C142.005 43.7372 113.644 68.592 96.2488 88.2175L97.7455 89.5442C115.093 69.9731 142.854 45.8321 177.963 49.343L178.162 47.353ZM199.415 53.3185C192.406 50.1184 185.248 47.9229 178.143 47.3512L177.983 49.3448C184.792 49.8927 191.72 52.0039 198.584 55.1378L199.415 53.3185ZM250.557 41.1651C243.007 35.1445 233.487 30.7321 223.987 31.6637C214.402 32.6036 205.135 38.9475 198.096 53.7999L199.903 54.6565C206.735 40.2405 215.49 34.5065 224.182 33.6542C232.958 32.7936 241.969 36.8747 249.31 42.7288L250.557 41.1651ZM251.035 40.0963C250.425 40.3867 249.849 40.7433 249.317 41.1592L250.549 42.7347C250.966 42.4088 251.417 42.1294 251.895 41.9019L251.035 40.0963ZM240.906 31.8865C242.907 33.5165 246.612 36.9637 250.712 41.657L252.218 40.3412C248.055 35.5761 244.27 32.0474 242.169 30.3359L240.906 31.8865ZM243.364 27.1703C242.913 27.5003 242.247 28.0615 241.684 28.7019C241.403 29.0225 241.126 29.3862 240.916 29.7709C240.712 30.1452 240.53 30.6148 240.538 31.1259L242.538 31.0964C242.537 31.0674 242.552 30.9496 242.672 30.7278C242.788 30.5165 242.964 30.2757 243.187 30.0222C243.633 29.5142 244.184 29.0486 244.545 28.784L243.364 27.1703ZM237.953 29.2197C238.746 29.1299 240.001 29.0098 241.177 28.9418C241.766 28.9077 242.325 28.8874 242.791 28.8894C243.283 28.8916 243.592 28.9192 243.726 28.9508L244.183 27.0035C243.807 26.9155 243.298 26.8916 242.8 26.8895C242.276 26.8872 241.672 26.9098 241.062 26.9451C239.84 27.0157 238.548 27.1396 237.728 27.2324L237.953 29.2197ZM226.273 22.1467C228.686 23.2698 234.189 26.1941 237.159 28.9582L238.522 27.494C235.306 24.5019 229.557 21.4693 227.117 20.3335L226.273 22.1467ZM226.982 18.6705L225.821 20.7532L227.568 21.727L228.729 19.6443L226.982 18.6705ZM224.28 21.1735C224.689 21.0054 225.378 20.7477 226.089 20.532C226.829 20.3074 227.483 20.163 227.87 20.1573L227.841 18.1575C227.148 18.1677 226.259 18.3903 225.508 18.6181C224.728 18.8548 223.979 19.1348 223.519 19.3237L224.28 21.1735ZM209.741 17.9516C211.296 18.1504 213.865 18.5527 216.492 19.1104C219.14 19.6724 221.767 20.3758 223.485 21.1586L224.314 19.3387C222.384 18.4593 219.575 17.7201 216.908 17.154C214.221 16.5838 211.598 16.1727 209.995 15.9677L209.741 17.9516ZM262.005 42.7221C260.589 32.2372 256.134 20.8714 247.594 14.4672C238.949 7.98443 226.417 6.79357 209.389 16.0818L210.347 17.8375C226.923 8.79543 238.566 10.1971 246.394 16.0673C254.327 22.0159 258.642 32.7634 260.023 42.9896L262.005 42.7221ZM210.639 49.779C207.706 50.4957 203.501 52.5561 200.404 54.2333L201.356 55.992C204.464 54.3092 208.461 52.3699 211.114 51.7219L210.639 49.779ZM212.679 46.6687C212.141 47.1055 211.58 47.8308 211.131 48.4743C210.665 49.1428 210.25 49.8263 210.006 50.2592L211.748 51.2417C211.965 50.8565 212.347 50.2278 212.772 49.6184C213.214 48.984 213.639 48.4656 213.94 48.2215L212.679 46.6687ZM214.674 49.6417L214.297 47.2871L212.322 47.6031L212.699 49.9576L214.674 49.6417ZM226.847 47.394C222.469 47.0334 216.076 48.2086 213.457 48.8263L213.916 50.7729C216.506 50.1622 222.639 49.0541 226.683 49.3873L226.847 47.394ZM230.99 43.506C230.641 43.6693 230.226 43.9656 229.833 44.2721C229.421 44.5943 228.96 44.9857 228.503 45.3911C227.586 46.2026 226.648 47.0995 226.062 47.6797L227.468 49.1016C228.035 48.5404 228.947 47.6697 229.829 46.8882C230.27 46.4971 230.697 46.1355 231.064 45.8485C231.452 45.5457 231.711 45.3766 231.837 45.3181L230.99 43.506ZM232.231 47.7391C232.212 47.7166 232.151 47.615 232.109 47.3661C232.068 47.1288 232.058 46.8307 232.076 46.4936C232.112 45.8183 232.257 45.1118 232.377 44.6804L230.45 44.1437C230.3 44.6819 230.125 45.5347 230.079 46.386C230.056 46.8122 230.063 47.2692 230.137 47.7011C230.208 48.1213 230.356 48.6029 230.678 48.9997L232.231 47.7391ZM247.219 49.3365C240.26 47.9222 234.416 47.4179 231.471 47.3695L231.438 49.3693C234.246 49.4154 239.967 49.9036 246.821 51.2965L247.219 49.3365ZM248.45 51.3976C248.256 50.9762 248.102 50.5353 247.992 50.081L246.048 50.552C246.189 51.1332 246.386 51.6966 246.634 52.2347L248.45 51.3976ZM226.853 71.0716C227.106 64.1795 229.768 59.694 233.541 56.8911C237.354 54.058 242.412 52.8639 247.551 52.8161L247.533 50.8162C242.136 50.8664 236.613 52.1165 232.348 55.2857C228.042 58.4851 225.128 63.5599 224.854 70.9981L226.853 71.0716ZM200.444 56.0128C209.005 60.155 217.396 65.7963 225.244 71.8277L226.463 70.2419C218.555 64.165 210.045 58.436 201.315 54.2125L200.444 56.0128ZM250.037 90.1912L250.037 90.1906L248.676 91.6562L248.677 91.6568L250.037 90.1912ZM250.064 90.217L250.064 90.2169L248.65 91.6311L248.65 91.6312L250.064 90.217ZM269.015 104.806C268.302 104.669 267.325 104.233 266.067 103.454C264.826 102.685 263.383 101.629 261.75 100.327C258.483 97.7229 254.533 94.2009 250.023 90.1778L248.691 91.6704C253.187 95.68 257.183 99.2446 260.504 101.891C262.165 103.215 263.677 104.326 265.014 105.154C266.334 105.971 267.56 106.562 268.635 106.77L269.015 104.806ZM267.421 97.6984C267.6 100.337 267.737 103.047 267.825 105.82L269.824 105.756C269.736 102.959 269.597 100.225 269.417 97.5632L267.421 97.6984ZM266.953 91.8949C267.13 93.7869 267.288 95.7225 267.421 97.6984L269.417 97.5632C269.282 95.5698 269.123 93.617 268.944 91.7082L266.953 91.8949ZM262.55 64.4935C264.281 71.7838 265.943 81.1302 266.953 91.8949L268.944 91.7081C267.926 80.85 266.248 71.4116 264.496 64.0317L262.55 64.4935ZM254.019 69.7139C258.32 70.722 262.62 68.53 264.428 64.6884L262.618 63.8368C261.204 66.8417 257.838 68.5548 254.476 67.7667L254.019 69.7139ZM247.046 59.3008C246.277 64.0258 249.289 68.605 254.019 69.7139L254.476 67.7667C250.775 66.8993 248.418 63.3167 249.02 59.6219L247.046 59.3008ZM242.849 63.5716C243.939 62.8312 245.907 61.6508 248.482 60.3546L247.583 58.5681C244.948 59.8946 242.902 61.118 241.726 61.917L242.849 63.5716ZM239.765 60.8815C239.899 61.258 240.146 61.8259 240.47 62.3438C240.632 62.6032 240.83 62.8766 241.063 63.1114C241.288 63.3379 241.605 63.5905 242.015 63.7065L242.56 61.7821C242.614 61.7975 242.585 61.8062 242.483 61.7031C242.389 61.6084 242.28 61.4666 242.165 61.2829C241.935 60.9145 241.747 60.4842 241.65 60.2121L239.765 60.8815ZM240.657 64.778C240.753 64.2451 240.919 63.4055 241.103 62.6283C241.195 62.2391 241.29 61.8761 241.38 61.5797C241.477 61.2586 241.547 61.0925 241.575 61.0445L239.84 60.0492C239.689 60.312 239.566 60.6715 239.466 60.9982C239.359 61.3496 239.254 61.7565 239.157 62.1666C238.962 62.9879 238.789 63.8646 238.688 64.4241L240.657 64.778ZM233.659 71.1985C234.865 69.8414 237.831 66.8413 240.179 65.4635L239.166 63.7386C236.53 65.2859 233.389 68.4907 232.164 69.8703L233.659 71.1985ZM231.058 70.0629L232.195 71.2317L233.628 69.8371L232.491 68.6683L231.058 70.0629ZM232.709 72.0722C232.68 71.7799 232.647 71.2882 232.645 70.7915C232.643 70.2643 232.678 69.8465 232.737 69.6381L230.812 69.0932C230.67 69.5956 230.643 70.2612 230.645 70.7994C230.647 71.3681 230.684 71.9239 230.719 72.2707L232.709 72.0722ZM230.973 74.9226C231.497 74.0821 232.008 73.3552 232.467 72.8296L230.961 71.5134C230.4 72.1548 229.825 72.9836 229.276 73.8644L230.973 74.9226ZM250.021 90.1762C244.355 85.1223 237.827 79.3006 230.751 73.614L229.498 75.173C236.529 80.8227 243.019 86.6113 248.69 91.6687L250.021 90.1762ZM250.016 90.1715L250.015 90.1706L248.696 91.6744L248.697 91.6753L250.016 90.1715ZM261.024 112.091C264.107 111.738 267.105 111.049 269.258 110.246L268.56 108.372C266.59 109.107 263.757 109.765 260.797 110.104L261.024 112.091ZM259.363 112.246C259.917 112.206 260.473 112.154 261.024 112.091L260.797 110.104C260.272 110.163 259.744 110.213 259.218 110.251L259.363 112.246ZM269.251 129.319C266.942 122.648 263.952 116.27 260.115 110.683L258.466 111.815C262.179 117.221 265.096 123.428 267.361 129.974L269.251 129.319ZM267.84 119.566C267.742 122.843 267.568 126.181 267.309 129.57L269.304 129.723C269.565 126.302 269.74 122.932 269.839 119.626L267.84 119.566ZM267.923 115.567C267.907 116.889 267.88 118.222 267.84 119.566L269.839 119.626C269.879 118.27 269.907 116.924 269.923 115.59L267.923 115.567ZM267.909 109.325C267.942 111.375 267.948 113.457 267.923 115.567L269.923 115.59C269.948 113.461 269.942 111.361 269.909 109.293L267.909 109.325Z" fill="black" mask="url(#path-32-inside-1_30956_4244)"/>
<g filter="url(#filter1_d_30956_4244)">
<path d="M176.738 131.008H171.348V124.766C171.348 123.408 171.619 122.141 172.16 120.966C172.702 119.791 173.451 118.758 174.406 117.866C175.362 116.975 176.488 116.274 177.786 115.764C179.084 115.255 180.503 115 182.043 115C183.412 115 184.731 115.255 186 115.764C187.269 116.274 188.396 116.975 189.38 117.866C190.364 118.758 191.148 119.791 191.733 120.966C192.317 122.141 192.61 123.408 192.61 124.766V131.008H187.433V125.955C187.433 124.172 186.934 122.792 185.936 121.815C184.938 120.839 183.583 120.35 181.872 120.35C180.332 120.35 179.091 120.839 178.15 121.815C177.209 122.792 176.738 124.172 176.738 125.955V131.008ZM195.176 133.556C195.947 133.556 196.61 133.832 197.166 134.384C197.722 134.936 198 135.594 198 136.359V149.522C198 150.287 197.865 151.001 197.594 151.667C197.323 152.332 196.952 152.912 196.481 153.408C196.011 153.903 195.455 154.292 194.813 154.575C194.171 154.858 193.465 155 192.695 155H171.091C170.321 155 169.622 154.858 168.995 154.575C168.367 154.292 167.832 153.917 167.39 153.45C166.948 152.983 166.606 152.438 166.364 151.815C166.121 151.193 166 150.527 166 149.82V136.359C166 135.594 166.271 134.936 166.813 134.384C167.355 133.832 168.011 133.556 168.781 133.556H171.348H176.738H187.433H192.61H195.176Z" fill="white"/>
<path d="M176.738 131.508H177.238V131.008V125.955C177.238 124.259 177.684 123.019 178.51 122.162C179.344 121.297 180.447 120.85 181.872 120.85C183.483 120.85 184.702 121.307 185.586 122.173C186.463 123.031 186.933 124.267 186.933 125.955V131.008V131.508H187.433H192.61H193.11V131.008V124.766C193.11 123.333 192.801 121.99 192.18 120.743C191.567 119.512 190.745 118.429 189.715 117.496C188.686 116.563 187.509 115.831 186.186 115.3C184.858 114.767 183.476 114.5 182.043 114.5C180.447 114.5 178.965 114.764 177.603 115.299C176.251 115.83 175.07 116.563 174.065 117.501C173.063 118.436 172.276 119.522 171.706 120.757C171.133 122 170.848 123.339 170.848 124.766V131.008V131.508H171.348H176.738ZM197.518 134.029C196.87 133.386 196.081 133.056 195.176 133.056H192.61H187.433H176.738H171.348H168.781C167.876 133.056 167.091 133.387 166.456 134.034C165.824 134.678 165.5 135.462 165.5 136.359V149.82C165.5 150.586 165.631 151.313 165.898 151.997C166.163 152.677 166.539 153.278 167.027 153.794C167.517 154.311 168.106 154.723 168.789 155.031C169.488 155.347 170.258 155.5 171.091 155.5H192.695C193.528 155.5 194.303 155.347 195.015 155.033C195.715 154.724 196.326 154.297 196.844 153.752C197.359 153.209 197.763 152.575 198.057 151.855C198.354 151.126 198.5 150.347 198.5 149.522V136.359C198.5 135.458 198.166 134.673 197.518 134.029Z" stroke="black"/>
</g>
</g>
<defs>
<filter id="filter0_i_30956_4244" x="124.132" y="135.692" width="49.1045" height="39.3057" filterUnits="userSpaceOnUse" color-interpolation-filters="sRGB">
<feFlood flood-opacity="0" result="BackgroundImageFix"/>
<feBlend mode="normal" in="SourceGraphic" in2="BackgroundImageFix" result="shape"/>
<feColorMatrix in="SourceAlpha" type="matrix" values="0 0 0 0 0 0 0 0 0 0 0 0 0 0 0 0 0 0 127 0" result="hardAlpha"/>
<feOffset dx="12" dy="17"/>
<feComposite in2="hardAlpha" operator="arithmetic" k2="-1" k3="1"/>
<feColorMatrix type="matrix" values="0 0 0 0 0 0 0 0 0 0 0 0 0 0 0 0 0 0 0.25 0"/>
<feBlend mode="normal" in2="shape" result="effect1_innerShadow_30956_4244"/>
</filter>
<filter id="filter1_d_30956_4244" x="155" y="104" width="54" height="62" filterUnits="userSpaceOnUse" color-interpolation-filters="sRGB">
<feFlood flood-opacity="0" result="BackgroundImageFix"/>
<feColorMatrix in="SourceAlpha" type="matrix" values="0 0 0 0 0 0 0 0 0 0 0 0 0 0 0 0 0 0 127 0" result="hardAlpha"/>
<feOffset/>
<feGaussianBlur stdDeviation="5"/>
<feComposite in2="hardAlpha" operator="out"/>
<feColorMatrix type="matrix" values="0 0 0 0 0 0 0 0 0 0 0 0 0 0 0 0 0 0 0.25 0"/>
<feBlend mode="normal" in2="BackgroundImageFix" result="effect1_dropShadow_30956_4244"/>
<feBlend mode="normal" in="SourceGraphic" in2="effect1_dropShadow_30956_4244" result="shape"/>
</filter>
<clipPath id="clip0_30956_4244">
<rect width="365" height="226" fill="white"/>
</clipPath>
</defs>
</svg>
