<svg width="365" height="226" viewBox="0 0 365 226" fill="none" xmlns="http://www.w3.org/2000/svg">
<path d="M105.53 208.501L105.52 208.5L105.511 208.5C55.9852 207.541 27.4288 204.683 13.5107 200.209C10.0366 199.092 7.50976 197.885 5.8037 196.605C4.10182 195.328 3.25138 194.007 3.04458 192.656C2.83693 191.299 3.26192 189.808 4.33112 188.161C5.40067 186.513 7.08813 184.752 9.32265 182.883C13.6073 179.298 21.8339 174.479 32.6471 169.276C43.4483 164.079 56.7954 158.516 71.2946 153.437C100.305 143.276 133.874 135.076 160.873 135.599C210.363 136.557 233.455 140.576 253.961 147.767C262.577 150.788 270.738 154.37 280.224 158.532C282.041 159.33 283.908 160.149 285.835 160.99C297.816 166.214 312.132 172.256 331.754 179.13C340.401 182.16 347.078 185.051 351.378 187.799C353.53 189.174 355.051 190.492 355.933 191.742C356.805 192.979 357.028 194.112 356.677 195.186C356.315 196.292 355.312 197.445 353.481 198.62C351.659 199.789 349.074 200.943 345.654 202.075C338.816 204.338 328.725 206.483 314.928 208.505C296.07 211.269 276.488 211.934 258.891 212.532L257.718 212.571C239.85 213.179 224.065 213.763 213.376 216.516C198.483 220.351 179.557 218.834 160.298 216.102C154.098 215.222 147.862 214.216 141.721 213.225C128.833 211.146 116.364 209.134 105.53 208.501Z" fill="#FFF5A9" stroke="black"/>
<path d="M74.2051 54.7617H280.65L291.305 65.5141H63.5498L74.2051 54.7617Z" fill="#E0E7FF" stroke="black" stroke-linejoin="round"/>
<ellipse cx="176.5" cy="175.5" rx="120.5" ry="16.5" fill="black" fill-opacity="0.2"/>
<path d="M66.8331 180.858H289.977L291.305 174.016H65.5049L66.8331 180.858Z" fill="#AFAFAF" stroke="black" stroke-linejoin="round"/>
<path d="M65.5049 174.016H291.305L278.023 161.308H78.7873L65.5049 174.016Z" fill="#DCDCDC" stroke="black" stroke-linejoin="round"/>
<rect x="76.2568" y="55.7393" width="204.295" height="1.95498" fill="#CFCEEB" stroke="black"/>
<path d="M73 61H283V56H73V61Z" fill="#4D4B53" stroke="black" stroke-linejoin="round"/>
<rect x="75.2803" y="60.626" width="206.25" height="4.88745" fill="#CFCEEB" stroke="black"/>
<path d="M64.8818 69.4238H289.973L291.305 65.5139H63.5498L64.8818 69.4238Z" fill="#4D4B53" stroke="black" stroke-linejoin="round"/>
<path d="M67.459 69.4238H287.394L286.728 72.3563H68.2166L67.459 69.4238Z" fill="#CFCEEB" stroke="black"/>
<path d="M66.8332 77.2451H289.977L291.305 72.3577H65.5049L66.8332 77.2451Z" fill="#4D4B53" stroke="black" stroke-linejoin="round"/>
<path d="M66.4824 77.2451H290.328L284.988 168.152H71.8221L66.4824 77.2451Z" fill="#CFCEEB" stroke="black"/>
<path d="M154.176 118.753L152.047 101.104C152.095 91.4455 159.939 83.6309 169.608 83.6309H183.293C192.962 83.6309 200.806 91.4455 200.854 101.104L198.725 118.753H176.45H154.176Z" fill="#D3F8FF" stroke="#494453" stroke-width="3"/>
<path d="M77.8241 144.12L76.8652 126.642H100.173L100.173 144.203L100.173 161.764H78.792L77.8241 144.12Z" fill="#D3F8FF" stroke="#494453" stroke-width="3"/>
<path d="M75.9448 102.082L74.9152 84.6094H100.171L100.171 102.17L100.171 119.732H76.9848L75.9448 102.082Z" fill="#D3F8FF" stroke="#494453" stroke-width="3"/>
<path d="M156.147 144.602L155.071 126.642H197.828L196.752 144.602L195.664 162.741H176.45H157.235L156.147 144.602Z" fill="#D3F8FF" stroke="#494453" stroke-width="3"/>
<path d="M82.6931 44.0098H272.777L283.485 55.7397H73.3242L82.6931 44.0098Z" fill="#8C3C3C" stroke="black" stroke-linejoin="round"/>
<path d="M178.405 18.5947L282.507 65.5143H74.3018L178.405 18.5947Z" fill="#E0E7FF" stroke="black"/>
<path d="M178.405 18.2367L282.507 65.5144L263.822 43.8454L178.405 1L90.9849 43.8454L74.3018 65.5144L178.405 18.2367Z" fill="#8C3C3C"/>
<path d="M178.405 18.2367L282.507 65.5144L263.822 43.8454L178.405 1M178.405 18.2367L74.3018 65.5144L90.9849 43.8454L178.405 1M178.405 18.2367V1" stroke="black"/>
<g filter="url(#filter0_i_31499_5070)">
<path d="M178.405 23.4824L261.003 60.6271H95.8066L178.405 23.4824Z" fill="#CFCEEB"/>
</g>
<path d="M178.405 23.4824L261.003 60.6271H95.8066L178.405 23.4824Z" stroke="black"/>
<g filter="url(#filter1_i_31499_5070)">
<path d="M178.405 29.3467L239.498 56.7164H117.312L178.405 29.3467Z" fill="#E0E7FF"/>
</g>
<path d="M178.405 29.3467L239.498 56.7164H117.312L178.405 29.3467Z" stroke="black"/>
<path d="M75.2803 64.5371H282.508L279.834 73.3345H77.9542L75.2803 64.5371Z" fill="#E0E7FF" stroke="black"/>
<path d="M105.581 77.2451H119.463L122.198 168.152H109.685L105.581 77.2451Z" fill="#E0E7FF" stroke="black"/>
<path d="M130.997 77.2451H144.344L145.659 168.152H133.627L130.997 77.2451Z" fill="#E0E7FF" stroke="black"/>
<rect x="106.56" y="167.174" width="16.6173" height="2.93247" rx="1.46624" fill="#D9CEC6" stroke="black"/>
<rect x="131.974" y="167.174" width="16.6173" height="2.93247" rx="1.46624" fill="#D9CEC6" stroke="black"/>
<path d="M277.07 144.124L277.994 126.642H255.66L255.66 144.203L255.66 161.764H276.138L277.07 144.124Z" fill="#D3F8FF" stroke="#494453" stroke-width="3"/>
<path d="M279.887 102.082L280.917 84.6094H255.661L255.661 102.17L255.661 119.732H278.847L279.887 102.082Z" fill="#D3F8FF" stroke="#494453" stroke-width="3"/>
<path d="M249.273 77.2451H235.392L232.656 168.152H245.17L249.273 77.2451Z" fill="#E0E7FF" stroke="black"/>
<path d="M223.858 77.2451H210.511L209.196 168.152H221.228L223.858 77.2451Z" fill="#E0E7FF" stroke="black"/>
<rect width="17.5948" height="2.93247" rx="1.46624" transform="matrix(-1 0 0 1 249.273 167.174)" fill="#D9CEC6" stroke="black"/>
<rect width="17.5948" height="2.93247" rx="1.46624" transform="matrix(-1 0 0 1 223.858 167.174)" fill="#D9CEC6" stroke="black"/>
<path fill-rule="evenodd" clip-rule="evenodd" d="M110.051 83.1146C110.051 86.2219 107.532 88.7409 104.425 88.7409C101.318 88.7409 98.7988 86.2219 98.7988 83.1146C98.7988 80.0073 101.318 77.4883 104.425 77.4883L104.45 77.4883H118.639C118.639 77.4883 118.64 77.4883 118.64 77.4883C121.747 77.4884 124.266 80.0073 124.266 83.1146C124.266 86.2219 121.747 88.7409 118.639 88.7409C115.532 88.7409 113.013 86.2219 113.013 83.1146C113.013 82.8123 113.037 82.5156 113.083 82.2263H109.982C110.028 82.5156 110.051 82.8123 110.051 83.1146Z" fill="#E0E7FF"/>
<path d="M104.425 77.4883L104.426 76.9883H104.425V77.4883ZM104.45 77.4883L104.449 77.9883H104.45V77.4883ZM118.64 77.4883L118.64 76.9883L118.64 77.4883ZM113.083 82.2263L113.577 82.3046L113.668 81.7263H113.083V82.2263ZM109.982 82.2263V81.7263H109.396L109.488 82.3046L109.982 82.2263ZM104.425 89.2409C107.809 89.2409 110.551 86.498 110.551 83.1146H109.551C109.551 85.9458 107.256 88.2409 104.425 88.2409V89.2409ZM98.2988 83.1146C98.2988 86.498 101.042 89.2409 104.425 89.2409V88.2409C101.594 88.2409 99.2988 85.9458 99.2988 83.1146H98.2988ZM104.425 76.9883C101.042 76.9883 98.2988 79.7311 98.2988 83.1146H99.2988C99.2988 80.2834 101.594 77.9883 104.425 77.9883V76.9883ZM104.451 76.9883L104.426 76.9883L104.424 77.9883L104.449 77.9883L104.451 76.9883ZM118.639 76.9883H104.45V77.9883H118.639V76.9883ZM118.639 77.9883C118.639 77.9883 118.64 77.9883 118.64 77.9883L118.64 76.9883C118.64 76.9883 118.639 76.9883 118.639 76.9883V77.9883ZM118.64 77.9883C121.471 77.9884 123.766 80.2835 123.766 83.1146H124.766C124.766 79.7312 122.023 76.9884 118.64 76.9883L118.64 77.9883ZM123.766 83.1146C123.766 85.9458 121.471 88.2409 118.639 88.2409V89.2409C122.023 89.2409 124.766 86.4981 124.766 83.1146H123.766ZM118.639 88.2409C115.808 88.2409 113.513 85.9458 113.513 83.1146H112.513C112.513 86.4981 115.256 89.2409 118.639 89.2409V88.2409ZM113.513 83.1146C113.513 82.8387 113.535 82.5682 113.577 82.3046L112.589 82.1479C112.539 82.4631 112.513 82.786 112.513 83.1146H113.513ZM109.982 82.7263H113.083V81.7263H109.982V82.7263ZM110.551 83.1146C110.551 82.786 110.526 82.4631 110.476 82.1479L109.488 82.3046C109.53 82.5681 109.551 82.8386 109.551 83.1146H110.551Z" fill="black"/>
<circle cx="118.637" cy="83.1108" r="3.25733" fill="#D9CEC6" stroke="black"/>
<circle cx="104.421" cy="83.1108" r="3.25733" fill="#D9CEC6" stroke="black"/>
<path fill-rule="evenodd" clip-rule="evenodd" d="M215.62 83.1146C215.62 86.2219 213.101 88.7409 209.993 88.7409C206.886 88.7409 204.367 86.2219 204.367 83.1146C204.367 80.0073 206.886 77.4883 209.993 77.4883L210.018 77.4883H224.207C224.207 77.4883 224.208 77.4883 224.208 77.4883C227.315 77.489 229.833 80.0077 229.833 83.1146C229.833 86.2219 227.314 88.7409 224.207 88.7409C221.099 88.7409 218.58 86.2219 218.58 83.1146C218.58 82.8123 218.604 82.5156 218.65 82.2263H215.55C215.596 82.5156 215.62 82.8123 215.62 83.1146Z" fill="#E0E7FF"/>
<path d="M209.993 77.4883L209.995 76.9883H209.993V77.4883ZM210.018 77.4883L210.017 77.9883H210.018V77.4883ZM224.208 77.4883L224.208 77.9883L224.208 77.4883ZM218.65 82.2263L219.144 82.3046L219.236 81.7263H218.65V82.2263ZM215.55 82.2263V81.7263H214.965L215.056 82.3046L215.55 82.2263ZM209.993 89.2409C213.377 89.2409 216.12 86.498 216.12 83.1146H215.12C215.12 85.9458 212.825 88.2409 209.993 88.2409V89.2409ZM203.867 83.1146C203.867 86.498 206.61 89.2409 209.993 89.2409V88.2409C207.162 88.2409 204.867 85.9458 204.867 83.1146H203.867ZM209.993 76.9883C206.61 76.9883 203.867 79.7311 203.867 83.1146H204.867C204.867 80.2834 207.162 77.9883 209.993 77.9883V76.9883ZM210.019 76.9883L209.995 76.9883L209.992 77.9883L210.017 77.9883L210.019 76.9883ZM224.207 76.9883H210.018V77.9883H224.207V76.9883ZM224.207 77.9883C224.207 77.9883 224.207 77.9883 224.208 77.9883L224.208 76.9883C224.208 76.9883 224.207 76.9883 224.207 76.9883V77.9883ZM224.208 77.9883C227.038 77.989 229.333 80.2838 229.333 83.1146H230.333C230.333 79.7316 227.591 76.9891 224.208 76.9883L224.208 77.9883ZM229.333 83.1146C229.333 85.9458 227.038 88.2409 224.207 88.2409V89.2409C227.59 89.2409 230.333 86.4981 230.333 83.1146H229.333ZM224.207 88.2409C221.376 88.2409 219.08 85.9458 219.08 83.1146H218.08C218.08 86.4981 220.823 89.2409 224.207 89.2409V88.2409ZM219.08 83.1146C219.08 82.8387 219.102 82.5682 219.144 82.3046L218.156 82.1479C218.106 82.4631 218.08 82.786 218.08 83.1146H219.08ZM215.55 82.7263H218.65V81.7263H215.55V82.7263ZM216.12 83.1146C216.12 82.786 216.094 82.4631 216.044 82.1479L215.056 82.3046C215.098 82.5681 215.12 82.8386 215.12 83.1146H216.12Z" fill="black"/>
<circle cx="224.208" cy="83.1108" r="3.25733" fill="#D9CEC6" stroke="black"/>
<circle cx="209.994" cy="83.1108" r="3.25733" fill="#D9CEC6" stroke="black"/>
<path fill-rule="evenodd" clip-rule="evenodd" d="M136.946 83.1146C136.946 86.2219 134.427 88.7409 131.32 88.7409C128.212 88.7409 125.693 86.2219 125.693 83.1146C125.693 80.0073 128.212 77.4883 131.32 77.4883L131.344 77.4883H145.533C145.533 77.4883 145.533 77.4883 145.533 77.4883C148.64 77.4884 151.159 80.0073 151.159 83.1146C151.159 86.2219 148.64 88.7409 145.533 88.7409C142.425 88.7409 139.906 86.2219 139.906 83.1146C139.906 82.8123 139.93 82.5156 139.976 82.2263H136.876C136.922 82.5156 136.946 82.8123 136.946 83.1146Z" fill="#E0E7FF"/>
<path d="M131.32 77.4883L131.321 76.9883H131.32V77.4883ZM131.344 77.4883L131.343 77.9883H131.344V77.4883ZM145.533 77.4883L145.533 76.9883L145.533 77.4883ZM139.976 82.2263L140.47 82.3046L140.562 81.7263H139.976V82.2263ZM136.876 82.2263V81.7263H136.291L136.382 82.3046L136.876 82.2263ZM131.32 89.2409C134.703 89.2409 137.446 86.498 137.446 83.1146H136.446C136.446 85.9458 134.151 88.2409 131.32 88.2409V89.2409ZM125.193 83.1146C125.193 86.498 127.936 89.2409 131.32 89.2409V88.2409C128.488 88.2409 126.193 85.9458 126.193 83.1146H125.193ZM131.32 76.9883C127.936 76.9883 125.193 79.7311 125.193 83.1146H126.193C126.193 80.2834 128.488 77.9883 131.32 77.9883V76.9883ZM131.345 76.9883L131.321 76.9883L131.319 77.9883L131.343 77.9883L131.345 76.9883ZM145.533 76.9883H131.344V77.9883H145.533V76.9883ZM145.533 77.9883C145.533 77.9883 145.533 77.9883 145.533 77.9883L145.533 76.9883C145.533 76.9883 145.533 76.9883 145.533 76.9883V77.9883ZM145.533 77.9883C148.364 77.9884 150.659 80.2835 150.659 83.1146H151.659C151.659 79.7312 148.916 76.9884 145.533 76.9883L145.533 77.9883ZM150.659 83.1146C150.659 85.9458 148.364 88.2409 145.533 88.2409V89.2409C148.916 89.2409 151.659 86.4981 151.659 83.1146H150.659ZM145.533 88.2409C142.702 88.2409 140.406 85.9458 140.406 83.1146H139.406C139.406 86.4981 142.149 89.2409 145.533 89.2409V88.2409ZM140.406 83.1146C140.406 82.8387 140.428 82.5682 140.47 82.3046L139.482 82.1479C139.432 82.4631 139.406 82.786 139.406 83.1146H140.406ZM136.876 82.7263H139.976V81.7263H136.876V82.7263ZM137.446 83.1146C137.446 82.786 137.42 82.4631 137.37 82.1479L136.382 82.3046C136.424 82.5681 136.446 82.8386 136.446 83.1146H137.446Z" fill="black"/>
<circle cx="145.534" cy="83.1108" r="3.25733" fill="#D9CEC6" stroke="black"/>
<circle cx="131.319" cy="83.1108" r="3.25733" fill="#D9CEC6" stroke="black"/>
<path fill-rule="evenodd" clip-rule="evenodd" d="M242.52 83.1146C242.52 86.2219 240.001 88.7409 236.894 88.7409C233.787 88.7409 231.268 86.2219 231.268 83.1146C231.268 80.0073 233.787 77.4883 236.894 77.4883L236.918 77.4883H251.107C251.107 77.4883 251.108 77.4883 251.108 77.4883C254.215 77.489 256.733 80.0077 256.733 83.1146C256.733 86.2219 254.214 88.7409 251.107 88.7409C248 88.7409 245.481 86.2219 245.481 83.1146C245.481 82.8123 245.505 82.5156 245.55 82.2263H242.45C242.496 82.5156 242.52 82.8123 242.52 83.1146Z" fill="#E0E7FF"/>
<path d="M236.894 77.4883L236.895 76.9883H236.894V77.4883ZM236.918 77.4883L236.917 77.9883H236.918V77.4883ZM251.108 77.4883L251.108 77.9883L251.108 77.4883ZM245.55 82.2263L246.044 82.3046L246.136 81.7263H245.55V82.2263ZM242.45 82.2263V81.7263H241.865L241.957 82.3046L242.45 82.2263ZM236.894 89.2409C240.277 89.2409 243.02 86.498 243.02 83.1146H242.02C242.02 85.9458 239.725 88.2409 236.894 88.2409V89.2409ZM230.768 83.1146C230.768 86.498 233.51 89.2409 236.894 89.2409V88.2409C234.063 88.2409 231.768 85.9458 231.768 83.1146H230.768ZM236.894 76.9883C233.51 76.9883 230.768 79.7311 230.768 83.1146H231.768C231.768 80.2834 234.063 77.9883 236.894 77.9883V76.9883ZM236.919 76.9883L236.895 76.9883L236.893 77.9883L236.917 77.9883L236.919 76.9883ZM251.107 76.9883H236.918V77.9883H251.107V76.9883ZM251.107 77.9883C251.108 77.9883 251.108 77.9883 251.108 77.9883L251.108 76.9883C251.108 76.9883 251.107 76.9883 251.107 76.9883V77.9883ZM251.108 77.9883C253.939 77.989 256.233 80.2838 256.233 83.1146H257.233C257.233 79.7316 254.491 76.9891 251.108 76.9883L251.108 77.9883ZM256.233 83.1146C256.233 85.9458 253.938 88.2409 251.107 88.2409V89.2409C254.49 89.2409 257.233 86.4981 257.233 83.1146H256.233ZM251.107 88.2409C248.276 88.2409 245.981 85.9458 245.981 83.1146H244.981C244.981 86.4981 247.724 89.2409 251.107 89.2409V88.2409ZM245.981 83.1146C245.981 82.8387 246.002 82.5682 246.044 82.3046L245.057 82.1479C245.007 82.4631 244.981 82.786 244.981 83.1146H245.981ZM242.45 82.7263H245.55V81.7263H242.45V82.7263ZM243.02 83.1146C243.02 82.786 242.994 82.4631 242.944 82.1479L241.957 82.3046C241.998 82.5681 242.02 82.8386 242.02 83.1146H243.02Z" fill="black"/>
<circle cx="251.11" cy="83.1108" r="3.25733" fill="#D9CEC6" stroke="black"/>
<circle cx="236.895" cy="83.1108" r="3.25733" fill="#D9CEC6" stroke="black"/>
<path d="M184.741 48.1977C185.393 49.048 185.53 49.9722 185.151 50.9705C184.773 51.9687 184.021 52.6235 182.897 52.9348C182.36 53.0837 181.811 53.0895 181.252 52.9523C180.693 52.8152 180.234 52.5555 179.877 52.1735C178.58 52.7388 177.362 52.7112 176.222 52.0905C175.082 51.4698 174.397 50.4612 174.167 49.0647C173.599 48.9297 173.117 48.6638 172.72 48.2669C172.323 47.8701 172.037 47.3696 171.861 46.7653C171.579 45.7954 171.803 44.8872 172.534 44.0405C173.265 43.1938 174.113 42.8259 175.078 42.9365L176.774 43.137C176.956 42.5539 177.271 42.0328 177.719 41.5739C178.166 41.115 178.695 40.7839 179.305 40.5806L178.944 39.3404C178.884 39.1337 178.904 38.9436 179.003 38.7701C179.102 38.5966 179.257 38.4805 179.469 38.4219C179.681 38.3632 179.876 38.3823 180.054 38.4791C180.231 38.5759 180.35 38.7276 180.411 38.9343L180.827 40.3653C181.48 40.3733 182.057 40.5099 182.557 40.7753C183.056 41.0406 183.542 41.4689 184.013 42.06L185.43 41.6674C185.642 41.6088 185.837 41.6278 186.015 41.7246C186.192 41.8214 186.311 41.9732 186.372 42.1799C186.432 42.3866 186.412 42.5767 186.313 42.7502C186.214 42.9236 186.058 43.0398 185.846 43.0984L184.576 43.4503C184.719 44.0635 184.716 44.6743 184.567 45.2824C184.418 45.8906 184.137 46.4236 183.725 46.8814L184.741 48.1977ZM178.847 50.4486C178.722 50.0193 178.637 49.5917 178.593 49.166C178.548 48.7403 178.544 48.3163 178.58 47.8941C178.256 48.1728 177.888 48.4077 177.477 48.5988C177.066 48.7899 176.644 48.9282 176.212 49.0138C176.392 49.6338 176.717 50.072 177.188 50.3282C177.659 50.5844 178.212 50.6246 178.847 50.4486ZM175.901 47.0381C176.423 46.8937 176.864 46.7026 177.227 46.4649C177.589 46.2271 178.032 45.8295 178.556 45.2719L175.277 44.8916C174.749 44.8316 174.347 44.9472 174.071 45.2385C173.795 45.5297 173.719 45.89 173.844 46.3193C173.964 46.7327 174.19 46.9965 174.523 47.1105C174.855 47.2247 175.315 47.2005 175.901 47.0381ZM182.342 51.0268C182.75 50.914 183.039 50.6835 183.211 50.3354C183.382 49.9872 183.359 49.6801 183.141 49.4141L180.878 46.5359C180.717 47.1304 180.624 47.7058 180.601 48.262C180.578 48.8182 180.626 49.3029 180.747 49.7164C180.899 50.2411 181.11 50.6166 181.378 50.8429C181.646 51.0693 181.968 51.1306 182.342 51.0268ZM182.416 45.2855C182.532 45.0814 182.602 44.8346 182.623 44.5452C182.644 44.2557 182.614 43.9679 182.53 43.6817C182.382 43.1729 182.087 42.791 181.643 42.5359C181.199 42.2809 180.724 42.2233 180.219 42.3632C179.926 42.4444 179.663 42.5689 179.43 42.7364C179.197 42.904 179.016 43.1001 178.888 43.3246L181.044 43.6553L182.416 45.2855Z" fill="#451D07" fill-opacity="0.5"/>
<path d="M168.304 42.1718C168.231 42.1981 168.133 42.1718 168.133 42.0666C168.06 41.7773 167.914 41.1198 168.182 40.5676C168.45 40.0153 169.035 39.726 169.303 39.6208C169.376 39.5945 169.473 39.6208 169.473 39.726C169.571 40.0153 169.693 40.6728 169.425 41.225C169.157 41.7773 168.572 42.0666 168.304 42.1718ZM168.109 43.6971C168.474 43.3815 168.962 43.2763 169.23 43.25C169.327 43.25 169.4 43.3289 169.376 43.4341C169.303 43.7234 169.157 44.1968 168.791 44.5124C168.425 44.8279 167.938 44.9331 167.67 44.9594C167.597 44.9594 167.548 44.9068 167.524 44.8542C167.475 44.9068 167.402 44.9331 167.329 44.8805C167.085 44.7227 166.622 44.3283 166.427 43.7497C166.232 43.1711 166.378 42.5663 166.476 42.3033C166.5 42.2244 166.598 42.1718 166.695 42.2244C166.939 42.3822 167.402 42.7766 167.597 43.3552C167.719 43.7234 167.719 44.0916 167.67 44.3809C167.743 44.1442 167.889 43.9075 168.109 43.6971ZM166.963 46.2218C167.158 46.5373 167.231 46.9318 167.231 47.2474C167.28 47.0107 167.353 46.7214 167.548 46.4584C167.841 46.064 168.279 45.8536 168.547 45.7747C168.645 45.7484 168.718 45.8273 168.718 45.9062C168.718 46.1692 168.669 46.6951 168.377 47.0896C168.084 47.5104 167.646 47.6945 167.377 47.7734C167.304 47.7997 167.231 47.7471 167.207 47.6945C167.183 47.7734 167.109 47.7997 167.036 47.7734C166.768 47.6682 166.232 47.4052 165.915 46.8792C165.598 46.3796 165.623 45.7484 165.647 45.4591C165.647 45.3539 165.745 45.3013 165.842 45.3276C166.11 45.4591 166.646 45.7221 166.963 46.2218ZM165.964 48.4308C166.232 48.4571 166.817 48.5623 167.256 48.9831C167.524 49.2198 167.67 49.5354 167.767 49.7984C167.767 49.5617 167.767 49.325 167.865 49.062C168.036 48.5886 168.401 48.2731 168.62 48.1153C168.694 48.0627 168.815 48.089 168.84 48.1942C168.913 48.4571 168.986 48.9568 168.815 49.4302C168.645 49.9036 168.279 50.2191 168.06 50.3769C168.011 50.4032 167.938 50.4032 167.889 50.3769C167.865 50.4295 167.816 50.4558 167.743 50.4295C167.451 50.4032 166.866 50.298 166.451 49.8773C166.013 49.4565 165.866 48.8779 165.818 48.5886C165.793 48.4834 165.866 48.4045 165.964 48.4308ZM167.353 51.2711C167.646 51.2185 168.328 51.1922 168.864 51.5604C169.108 51.7182 169.303 51.9286 169.449 52.1389C169.352 51.9023 169.279 51.613 169.279 51.3237C169.279 50.6662 169.62 50.0877 169.79 49.8247C169.839 49.7458 169.961 49.7458 170.01 49.8247C170.18 50.0877 170.521 50.6399 170.521 51.3237C170.521 51.9812 170.18 52.5597 170.01 52.8227C169.961 52.9016 169.839 52.9016 169.79 52.8227L169.766 52.7964C169.766 52.8227 169.79 52.849 169.79 52.849C169.815 52.9279 169.766 53.0331 169.668 53.0331C169.376 53.0594 168.694 53.112 168.157 52.7438C167.621 52.4019 167.329 51.7708 167.231 51.4552C167.207 51.3763 167.256 51.2711 167.353 51.2711Z" fill="#451D07" fill-opacity="0.5"/>
<path d="M188.623 42.1718C188.696 42.1981 188.794 42.1718 188.794 42.0666C188.867 41.7773 189.013 41.1198 188.745 40.5676C188.477 40.0153 187.892 39.726 187.624 39.6208C187.551 39.5945 187.453 39.6208 187.453 39.726C187.356 40.0153 187.234 40.6728 187.502 41.225C187.77 41.7773 188.355 42.0666 188.623 42.1718ZM188.818 43.6971C188.453 43.3815 187.965 43.2763 187.697 43.25C187.6 43.25 187.526 43.3289 187.551 43.4341C187.624 43.7234 187.77 44.1968 188.136 44.5124C188.501 44.8279 188.989 44.9331 189.257 44.9594C189.33 44.9594 189.379 44.9068 189.403 44.8542C189.452 44.9068 189.525 44.9331 189.598 44.8805C189.842 44.7227 190.305 44.3283 190.5 43.7497C190.695 43.1711 190.549 42.5663 190.451 42.3033C190.427 42.2244 190.329 42.1718 190.232 42.2244C189.988 42.3822 189.525 42.7766 189.33 43.3552C189.208 43.7234 189.208 44.0916 189.257 44.3809C189.184 44.1442 189.037 43.9075 188.818 43.6971ZM189.964 46.2218C189.769 46.5373 189.696 46.9318 189.696 47.2474C189.647 47.0107 189.574 46.7214 189.379 46.4584C189.086 46.064 188.648 45.8536 188.379 45.7747C188.282 45.7484 188.209 45.8273 188.209 45.9062C188.209 46.1692 188.258 46.6951 188.55 47.0896C188.842 47.5104 189.281 47.6945 189.549 47.7734C189.622 47.7997 189.696 47.7471 189.72 47.6945C189.744 47.7734 189.817 47.7997 189.89 47.7734C190.159 47.6682 190.695 47.4052 191.012 46.8792C191.328 46.3796 191.304 45.7484 191.28 45.4591C191.28 45.3539 191.182 45.3013 191.085 45.3276C190.817 45.4591 190.28 45.7221 189.964 46.2218ZM190.963 48.4308C190.695 48.4571 190.11 48.5623 189.671 48.9831C189.403 49.2198 189.257 49.5354 189.159 49.7984C189.159 49.5617 189.159 49.325 189.062 49.062C188.891 48.5886 188.526 48.2731 188.306 48.1153C188.233 48.0627 188.111 48.089 188.087 48.1942C188.014 48.4571 187.941 48.9568 188.111 49.4302C188.282 49.9036 188.648 50.2191 188.867 50.3769C188.916 50.4032 188.989 50.4032 189.037 50.3769C189.062 50.4295 189.111 50.4558 189.184 50.4295C189.476 50.4032 190.061 50.298 190.475 49.8773C190.914 49.4565 191.06 48.8779 191.109 48.5886C191.133 48.4834 191.06 48.4045 190.963 48.4308ZM189.574 51.2711C189.281 51.2185 188.599 51.1922 188.063 51.5604C187.819 51.7182 187.624 51.9286 187.478 52.1389C187.575 51.9023 187.648 51.613 187.648 51.3237C187.648 50.6662 187.307 50.0877 187.136 49.8247C187.088 49.7458 186.966 49.7458 186.917 49.8247C186.746 50.0877 186.405 50.6399 186.405 51.3237C186.405 51.9812 186.746 52.5597 186.917 52.8227C186.966 52.9016 187.088 52.9016 187.136 52.8227L187.161 52.7964C187.161 52.8227 187.136 52.849 187.136 52.849C187.112 52.9279 187.161 53.0331 187.258 53.0331C187.551 53.0594 188.233 53.112 188.769 52.7438C189.306 52.4019 189.598 51.7708 189.696 51.4552C189.72 51.3763 189.671 51.2711 189.574 51.2711Z" fill="#451D07" fill-opacity="0.5"/>
<rect x="65.2168" y="30.8125" width="2.66689" height="34.2122" fill="#C1C1C1" stroke="black"/>
<path d="M85.0898 34.1753C83.0633 31.6294 71.3062 32.8836 65.5645 32.53V53.8344C68.4691 53.1861 76.3488 51.1722 82.1818 55.2072C85.0898 57.2188 96.1647 54.7114 98.7991 54.4757V34.908C95.1514 35.1732 87.1163 36.7212 85.0898 34.1753Z" fill="#FCBE24" stroke="black"/>
<rect x="287.903" y="30.8125" width="2.66689" height="34.2122" fill="#C1C1C1" stroke="black"/>
<circle cx="288.922" cy="30.0795" r="2.44373" fill="#C1C1C1" stroke="black"/>
<path d="M307.555 34.2441C305.469 31.5921 293.366 32.8987 287.455 32.5303V54.7223C290.445 54.0471 298.557 51.9493 304.561 56.1523C307.555 58.2478 318.955 55.6359 321.667 55.3904V35.0073C317.912 35.2836 309.641 36.8961 307.555 34.2441Z" fill="#262626" stroke="black"/>
<path d="M86.271 46.2426C86.9666 47.0929 87.1124 48.0171 86.7085 49.0154C86.3045 50.0136 85.503 50.6684 84.3039 50.9797C83.7304 51.1286 83.1454 51.1344 82.5489 50.9973C81.9524 50.8601 81.4635 50.6005 81.082 50.2184C79.6988 50.7837 78.3992 50.7561 77.1833 50.1355C75.9675 49.5148 75.2368 48.5061 74.9914 47.1096C74.3862 46.9746 73.8718 46.7087 73.4483 46.3118C73.0248 45.915 72.7193 45.4145 72.5319 44.8103C72.2311 43.8404 72.4704 42.9321 73.25 42.0854C74.0296 41.2388 74.9341 40.8708 75.9637 40.9814L77.7723 41.182C77.9669 40.5988 78.3029 40.0777 78.7802 39.6189C79.2576 39.1599 79.8215 38.8288 80.4721 38.6255L80.0874 37.3853C80.0233 37.1786 80.0441 36.9885 80.1499 36.815C80.2557 36.6415 80.4215 36.5254 80.6475 36.4668C80.8734 36.4081 81.0812 36.4272 81.2708 36.524C81.4604 36.6208 81.5874 36.7726 81.6514 36.9792L82.0953 38.4102C82.7925 38.4182 83.4076 38.5549 83.9406 38.8202C84.4736 39.0856 84.9914 39.5138 85.4939 40.1049L87.0059 39.7123C87.2318 39.6537 87.4396 39.6727 87.6292 39.7696C87.8188 39.8663 87.9457 40.0181 88.0098 40.2248C88.0739 40.4315 88.0531 40.6216 87.9472 40.7951C87.8415 40.9686 87.6756 41.0847 87.4497 41.1433L86.0942 41.4953C86.2468 42.1085 86.2438 42.7192 86.085 43.3274C85.9262 43.9355 85.6268 44.4686 85.1867 44.9264L86.271 46.2426ZM79.9837 48.4935C79.8505 48.0642 79.7602 47.6367 79.7126 47.2109C79.6651 46.7852 79.6604 46.3612 79.6984 45.939C79.3529 46.2177 78.961 46.4526 78.5227 46.6437C78.0843 46.8348 77.6343 46.9731 77.1726 47.0587C77.365 47.6788 77.7121 48.1169 78.2141 48.3731C78.7161 48.6294 79.306 48.6695 79.9837 48.4935ZM76.8415 45.083C77.3976 44.9386 77.8689 44.7476 78.2552 44.5098C78.6415 44.2721 79.1144 43.8744 79.6737 43.3168L76.1757 42.9365C75.6126 42.8765 75.1837 42.9922 74.8891 43.2834C74.5945 43.5747 74.5138 43.935 74.6469 44.3642C74.7751 44.7776 75.0165 45.0414 75.3712 45.1555C75.7258 45.2696 76.2159 45.2454 76.8415 45.083ZM83.7121 49.0717C84.1465 48.959 84.4553 48.7284 84.6384 48.3803C84.8214 48.0321 84.7966 47.725 84.5638 47.459L82.1502 44.5808C81.9778 45.1754 81.8793 45.7508 81.8546 46.3069C81.8299 46.8631 81.8817 47.3479 82.0099 47.7613C82.1727 48.286 82.3971 48.6615 82.6833 48.8879C82.9695 49.1142 83.3124 49.1755 83.7121 49.0717ZM83.7904 43.3304C83.9148 43.1263 83.9885 42.8795 84.0114 42.5901C84.0343 42.3007 84.0014 42.0129 83.9126 41.7267C83.7548 41.2179 83.4392 40.8359 82.9657 40.5809C82.4923 40.3258 81.9862 40.2683 81.4475 40.4081C81.1347 40.4893 80.854 40.6138 80.6055 40.7813C80.357 40.949 80.1643 41.145 80.0275 41.3695L82.327 41.7002L83.7904 43.3304Z" fill="#451D07"/>
<path d="M303.82 49.7628C303.658 49.5951 303.516 49.4098 303.397 49.2106C303.094 48.7477 302.587 47.6608 302.585 46.4657C301.514 47.0733 300.279 47.1916 299.711 47.1677C299.497 47.1673 299.283 47.1454 299.073 47.1022C299.311 48.2294 299.908 49.0521 300.864 49.5704C301.791 50.0735 302.777 50.1377 303.82 49.7628ZM307.664 44.8128C307.97 44.4352 308.187 43.9967 308.299 43.5284C308.431 42.9887 308.434 42.4467 308.306 41.9025L309.439 41.5905C309.526 41.5692 309.608 41.5307 309.679 41.4775C309.751 41.4243 309.81 41.3574 309.854 41.281C309.898 41.2046 309.925 41.1203 309.934 41.0334C309.943 40.9464 309.933 40.8586 309.906 40.7753C309.884 40.6905 309.845 40.6108 309.79 40.5413C309.736 40.4717 309.667 40.4138 309.589 40.3709C309.51 40.3284 309.423 40.3021 309.334 40.2934C309.244 40.2847 309.154 40.294 309.068 40.3206L307.805 40.669C307.385 40.1445 306.953 39.7644 306.508 39.5287C306.062 39.2935 305.549 39.1723 304.966 39.1651L304.596 37.8946C304.574 37.8098 304.534 37.7303 304.48 37.6608C304.425 37.5914 304.356 37.5335 304.278 37.4908C304.199 37.4483 304.112 37.422 304.023 37.4133C303.933 37.4046 303.843 37.4139 303.757 37.4405C303.67 37.4617 303.588 37.4999 303.517 37.5529C303.445 37.6059 303.386 37.6725 303.342 37.7487C303.298 37.8251 303.271 37.9095 303.262 37.9966C303.253 38.0837 303.262 38.1716 303.289 38.255L303.61 39.3557C303.073 39.5337 302.588 39.8364 302.198 40.2376C301.881 40.5579 301.63 40.9335 301.458 41.3446L305.236 41.7974L307.664 44.8128ZM299.7 41.7421C299.042 41.7445 298.413 42.0008 297.949 42.4547C297.486 42.9085 297.227 43.5227 297.23 44.1621C297.232 44.8015 297.496 45.4137 297.963 45.8642C298.429 46.3146 299.061 46.5663 299.719 46.5638H299.733C300.31 46.5903 301.714 46.4355 302.713 45.6499L304.697 42.3409L299.7 41.7421ZM303.243 45.9644L305.193 42.7126L308.238 46.5097C308.565 47.0649 308.651 47.7234 308.478 48.3404C308.305 48.9574 307.887 49.4823 307.316 49.7996C306.745 50.117 306.068 50.2008 305.433 50.0327C304.798 49.8645 304.258 49.4582 303.932 48.903L303.925 48.8904C303.616 48.4231 303.062 47.1859 303.243 45.9644Z" fill="url(#paint0_linear_31499_5070)"/>
<circle cx="66.0521" cy="30.0804" r="2.44373" fill="#C1C1C1" stroke="black"/>
<path d="M100.924 192H256.076L257 187H100L100.924 192Z" fill="#AFAFAF" stroke="black" stroke-linejoin="round"/>
<path d="M100 187H257L247.765 178H109.235L100 187Z" fill="#DCDCDC" stroke="black" stroke-linejoin="round"/>
<defs>
<filter id="filter0_i_31499_5070" x="95.6016" y="22.9346" width="165.606" height="38.1924" filterUnits="userSpaceOnUse" color-interpolation-filters="sRGB">
<feFlood flood-opacity="0" result="BackgroundImageFix"/>
<feBlend mode="normal" in="SourceGraphic" in2="BackgroundImageFix" result="shape"/>
<feColorMatrix in="SourceAlpha" type="matrix" values="0 0 0 0 0 0 0 0 0 0 0 0 0 0 0 0 0 0 127 0" result="hardAlpha"/>
<feOffset dy="4"/>
<feComposite in2="hardAlpha" operator="arithmetic" k2="-1" k3="1"/>
<feColorMatrix type="matrix" values="0 0 0 0 0 0 0 0 0 0 0 0 0 0 0 0 0 0 0.25 0"/>
<feBlend mode="normal" in2="shape" result="effect1_innerShadow_31499_5070"/>
</filter>
<filter id="filter1_i_31499_5070" x="117.107" y="28.7988" width="122.595" height="28.418" filterUnits="userSpaceOnUse" color-interpolation-filters="sRGB">
<feFlood flood-opacity="0" result="BackgroundImageFix"/>
<feBlend mode="normal" in="SourceGraphic" in2="BackgroundImageFix" result="shape"/>
<feColorMatrix in="SourceAlpha" type="matrix" values="0 0 0 0 0 0 0 0 0 0 0 0 0 0 0 0 0 0 127 0" result="hardAlpha"/>
<feOffset dy="4"/>
<feComposite in2="hardAlpha" operator="arithmetic" k2="-1" k3="1"/>
<feColorMatrix type="matrix" values="0 0 0 0 0 0 0 0 0 0 0 0 0 0 0 0 0 0 0.25 0"/>
<feBlend mode="normal" in2="shape" result="effect1_innerShadow_31499_5070"/>
</filter>
<linearGradient id="paint0_linear_31499_5070" x1="317.568" y1="43.8542" x2="290.298" y2="44.2369" gradientUnits="userSpaceOnUse">
<stop stop-color="#F8F29C"/>
<stop offset="0.165" stop-color="#F6DB2A"/>
<stop offset="0.333" stop-color="#F4A435"/>
<stop offset="0.55" stop-color="#E85A46"/>
<stop offset="0.699" stop-color="#B93483"/>
<stop offset="0.867" stop-color="#502B6E"/>
<stop offset="1" stop-color="#2A2136"/>
</linearGradient>
</defs>
</svg>
