<svg width="363" height="214" viewBox="0 0 363 214" fill="none" xmlns="http://www.w3.org/2000/svg">
<path d="M356.966 181.017C358.586 181.649 359.602 182.294 360.13 182.912C360.389 183.214 360.519 183.497 360.56 183.759C360.602 184.019 360.563 184.298 360.421 184.606C360.126 185.244 359.404 185.974 358.179 186.768C356.968 187.553 355.322 188.365 353.266 189.192C345.031 192.504 330.484 195.959 311.847 199.037C274.593 205.189 221.144 209.812 169.546 208.812C117.941 207.813 71.0447 202.658 39.8915 196.74C24.3027 193.779 12.6977 190.634 6.41477 187.741C4.84648 187.018 3.63028 186.321 2.77197 185.658C1.90135 184.986 1.46134 184.398 1.33287 183.912C1.21896 183.482 1.32764 183.042 1.83242 182.551C2.35789 182.041 3.27708 181.522 4.66854 181.022C22.054 174.784 37.6297 168.456 52.0912 162.492C53.9597 161.722 55.8094 160.957 57.642 160.2C69.9962 155.095 81.5692 150.312 92.834 146.147C118.698 136.582 142.899 130.282 171.057 130.827C222.658 131.827 249.017 136.538 272.509 144.898C283.893 148.95 294.612 153.861 307.223 159.639L308.463 160.207C321.612 166.231 336.85 173.17 356.966 181.017Z" fill="#FFF5A9" stroke="black"/>
<path d="M302.52 169.681C293.694 173.528 287.048 166.953 284.829 163.184C287.544 154.116 289.148 145.079 289.952 136.413C290.059 135.259 290.152 134.111 290.232 132.971C290.606 127.598 290.681 122.388 290.534 117.427C290.482 115.693 290.403 113.989 290.301 112.32C289.349 96.8321 286.338 84.2602 283.876 77.4679C297.118 91.4234 302.986 109.688 304.942 126.853C305.925 135.486 305.919 143.841 305.363 151.229C305.238 152.899 305.084 154.52 304.907 156.084C304.309 161.374 303.448 166.009 302.52 169.681Z" fill="#825A11"/>
<path d="M304.907 156.084C304.309 161.374 303.448 166.009 302.52 169.681C293.694 173.528 287.048 166.953 284.829 163.184C287.544 154.116 289.148 145.079 289.952 136.413M304.907 156.084C302.696 156.059 297.321 155.661 293.511 154.261M304.907 156.084C305.084 154.52 305.238 152.899 305.363 151.229M305.363 151.229C304.318 151.338 301.527 151.357 298.729 150.566M305.363 151.229C305.919 143.841 305.925 135.486 304.942 126.853M289.952 136.413C292.501 137.251 297.966 138.765 299.437 138.124M289.952 136.413C290.059 135.259 290.152 134.111 290.232 132.971M290.232 132.971C291.337 133.377 294.012 134.182 295.875 134.157M290.232 132.971C290.606 127.598 290.681 122.388 290.534 117.427M304.942 126.853C302.986 109.688 297.118 91.4234 283.876 77.4679C286.338 84.2602 289.349 96.8321 290.301 112.32M304.942 126.853C303.3 126.841 299.334 126.625 296.606 125.86M290.534 117.427C291.896 117.73 294.852 118.245 295.776 117.875M290.534 117.427C290.482 115.693 290.403 113.989 290.301 112.32M290.301 112.32C292.442 112.417 296.974 112.466 297.974 111.888" stroke="black"/>
<path d="M233.333 31.1062C280.335 12.4601 289.807 55.7067 284.861 78.9867C278.661 65.5904 269.848 54.6832 266.217 50.9042C266.344 49.7155 268.32 48.3305 269.292 47.7865C268.204 47.3867 264.34 47.2547 262.544 47.2387C259.533 43.6619 253.753 39.6347 251.24 38.0681L252.795 35.9365C251.606 35.8088 249.305 36.328 248.303 36.6036C244.52 34.2879 236.747 31.9738 233.333 31.1062Z" fill="#4DA058" stroke="black"/>
<path d="M214.739 73.3012C240.124 29.5697 274.325 57.6819 284.845 79.0302C271.685 72.3429 258.013 69.2278 252.822 68.5062C252.186 67.4935 252.882 65.1828 253.308 64.1541C252.206 64.5137 249.089 66.8009 247.668 67.8996C243.09 66.9528 236.057 67.3655 233.114 67.6901L233.016 65.0534C232.003 65.6886 230.517 67.5205 229.9 68.357C225.496 68.8786 217.958 71.8705 214.739 73.3012Z" fill="#4DA058"/>
<path d="M284.845 79.0302C274.325 57.6819 240.124 29.5697 214.739 73.3012C217.958 71.8705 225.496 68.8786 229.9 68.357C230.517 67.5205 232.003 65.6886 233.016 65.0534L233.114 67.6901C236.057 67.3655 243.09 66.9528 247.668 67.8996C249.089 66.8009 252.206 64.5137 253.308 64.1541C252.882 65.1828 252.186 67.4935 252.822 68.5062C258.013 69.2278 271.685 72.3429 284.845 79.0302ZM284.845 79.0302C276.508 68.768 255.011 50.1338 235.719 57.6943" stroke="black"/>
<path d="M353.276 61.7988C320.985 22.8867 291.924 56.285 285.093 79.0831C296.961 70.3046 309.926 64.9636 314.926 63.3905C315.384 62.2864 314.315 60.1231 313.723 59.1795C314.87 59.3511 318.324 61.0893 319.907 61.937C324.265 60.2436 331.268 59.4834 334.225 59.315L333.884 56.6986C334.988 57.157 336.758 58.7168 337.505 59.4393C341.935 59.2227 349.865 60.9221 353.276 61.7988Z" fill="#4DA058"/>
<path d="M285.093 79.0831C291.924 56.285 320.985 22.8867 353.276 61.7988C349.865 60.9221 341.935 59.2227 337.505 59.4393C336.758 58.7168 334.988 57.157 333.884 56.6986L334.225 59.315C331.268 59.4834 324.265 60.2436 319.907 61.937C318.324 61.0893 314.87 59.3511 313.723 59.1795C314.315 60.1231 315.384 62.2864 314.926 63.3905C309.926 64.9636 296.961 70.3046 285.093 79.0831ZM285.093 79.0831C291.612 67.5797 309.718 45.6362 329.997 49.8902" stroke="black"/>
<path d="M327.216 101.491C328.694 66.9442 298.634 70.547 284.711 78.9737C294.756 79.9669 303.781 83.2072 307.038 84.7032C307.777 84.3536 308.228 82.7662 308.361 82.0162C308.863 82.6295 309.817 85.0954 310.231 86.2516C313.218 87.3923 317.118 90.2199 318.695 91.4911L319.722 90.0077C320.071 90.7467 320.253 92.3497 320.301 93.0588C322.646 94.9815 325.888 99.4815 327.216 101.491Z" fill="#348A62"/>
<path d="M284.711 78.9737C298.634 70.547 328.694 66.9442 327.216 101.491C325.888 99.4815 322.646 94.9815 320.301 93.0588C320.253 92.3497 320.071 90.7467 319.722 90.0077L318.695 91.4911C317.118 90.2199 313.218 87.3923 310.231 86.2516C309.817 85.0954 308.863 82.6295 308.361 82.0162C308.228 82.7662 307.777 84.3536 307.038 84.7032C303.781 83.2072 294.756 79.9669 284.711 78.9737ZM284.711 78.9737C293.294 76.131 312.543 73.3109 320.875 84.7721" stroke="black"/>
<circle cx="9.06075" cy="9.06075" r="9.06075" transform="matrix(-0.938701 -0.344733 -0.344733 0.938701 289.873 80.0557)" fill="#9D7939" stroke="black"/>
<circle cx="9.06075" cy="9.06075" r="9.06075" transform="matrix(-0.938701 -0.344733 -0.344733 0.938701 305.37 75.71)" fill="#9D7939" stroke="black"/>
<path d="M243.375 103.413C240.369 68.9655 270.559 71.2352 284.842 79.0378C274.85 80.4744 265.977 84.1107 262.79 85.7493C262.036 85.4327 261.516 83.8668 261.35 83.1234C260.874 83.7583 260.031 86.264 259.668 87.4374C256.735 88.709 252.964 91.7064 251.445 93.0461L250.353 91.6096C250.037 92.3633 249.926 93.9728 249.91 94.6833C247.651 96.7078 244.612 101.347 243.375 103.413Z" fill="#348A62"/>
<path d="M284.842 79.0378C270.559 71.2352 240.369 68.9655 243.375 103.413C244.612 101.347 247.651 96.7078 249.91 94.6833C249.926 93.9728 250.037 92.3633 250.353 91.6096L251.445 93.0461C252.964 91.7064 256.735 88.709 259.668 87.4374C260.031 86.264 260.874 83.7583 261.35 83.1234C261.516 83.8668 262.036 85.4327 262.79 85.7493C265.977 84.1107 274.85 80.4744 284.842 79.0378ZM284.842 79.0378C276.141 76.5776 256.786 74.6116 248.97 86.4301" stroke="black"/>
<circle cx="9.06075" cy="9.06075" r="9.06075" transform="matrix(-0.938701 -0.344733 -0.344733 0.938701 290.29 66.3115)" fill="#9D7939" stroke="black"/>
<ellipse cx="95.848" cy="180.754" rx="19.848" ry="4.962" fill="black" fill-opacity="0.2"/>
<ellipse cx="157.98" cy="149.545" rx="47.966" ry="9.37267" fill="black" fill-opacity="0.2"/>
<ellipse cx="117.946" cy="188.907" rx="19.848" ry="5.51333" fill="black" fill-opacity="0.2"/>
<ellipse cx="185.775" cy="191.849" rx="30.3233" ry="6.616" fill="black" fill-opacity="0.2"/>
<ellipse cx="214.331" cy="170.746" rx="30.3233" ry="7.71867" fill="black" fill-opacity="0.2"/>
<ellipse cx="267.754" cy="162.226" rx="17.0913" ry="3.308" fill="black" fill-opacity="0.25"/>
<rect x="153.737" y="43.3369" width="11.4557" height="107.086" rx="5.72787" fill="#906925" stroke="black" stroke-linecap="round"/>
<path d="M146.735 149.107C146.099 149.003 146.343 150.373 146.777 151.326C146.917 151.633 147.237 151.801 147.573 151.801L154.316 151.801C154.465 151.801 154.612 151.766 154.756 151.726C155.118 151.627 155.41 151.571 155.443 149.751C155.469 148.268 155.052 147.961 154.64 148.057C154.271 148.143 154.08 148.217 153.944 147.864C153.65 147.1 153.023 145.807 152.201 145.827C150.957 145.857 150.781 147.634 150.814 147.832C150.846 148.03 149.768 145.062 148.351 145.684C146.934 146.307 147.662 148.967 148.202 150.219C148.028 149.9 147.49 149.23 146.735 149.107Z" fill="#71A20F" stroke="black" stroke-linejoin="round"/>
<path d="M170.569 144.005C173.418 144.532 169.721 148.339 168.025 149.6L167.007 150.423H165.311H163.784C163.445 149.436 164.123 144.334 165.989 144.499C167.243 144.609 167.189 145.425 166.921 146.008C167.668 144.745 168.855 143.688 170.569 144.005Z" fill="#71A20F"/>
<path d="M165.989 148.448C166.108 147.851 166.357 147.061 166.753 146.309M168.025 149.6C169.721 148.339 173.418 144.532 170.569 144.005C168.72 143.663 167.485 144.92 166.753 146.309M166.753 146.309C167.12 145.76 167.482 144.63 165.989 144.499C164.123 144.334 163.445 149.436 163.784 150.423" stroke="black" stroke-linecap="round"/>
<rect x="111.898" y="87.668" width="93.6383" height="37.8538" rx="10" fill="#14653C" stroke="black" stroke-linejoin="round"/>
<path d="M158.221 120.04H162.703" stroke="#7EA82B" stroke-linecap="round"/>
<path d="M154.234 117.054H158.717" stroke="#7EA82B" stroke-linecap="round"/>
<path d="M127.838 95.6348H132.321" stroke="#7EA82B" stroke-linecap="round"/>
<path d="M188.603 97.1299H193.085" stroke="#7EA82B" stroke-linecap="round"/>
<path d="M125.348 120.539H129.83" stroke="#7EA82B" stroke-linecap="round"/>
<path d="M188.603 119.541H193.085" stroke="#7EA82B" stroke-linecap="round"/>
<rect x="129.332" y="50.3105" width="59.271" height="34.3672" rx="10" fill="#14653C" stroke="black" stroke-linejoin="round"/>
<rect x="136.306" y="17.9365" width="44.8268" height="28.8884" rx="10" fill="#14653C" stroke="black" stroke-linejoin="round"/>
<path d="M145.27 37.8584H149.752" stroke="#7EA82B" stroke-linecap="round"/>
<path d="M141.285 34.3701H145.768" stroke="#7EA82B" stroke-linecap="round"/>
<path fill-rule="evenodd" clip-rule="evenodd" d="M212.44 90.1572C213.855 90.1572 215.002 91.3263 215.002 92.7685V96.5548C215.002 100.449 211.905 103.605 208.086 103.605H204.613C203.199 103.605 202.052 102.436 202.052 100.994C202.052 99.5518 203.199 98.3827 204.613 98.3827H208.086C209.076 98.3827 209.879 97.5644 209.879 96.5548V92.7685C209.879 91.3263 211.026 90.1572 212.44 90.1572Z" fill="#906925" stroke="black" stroke-linecap="round"/>
<rect x="201.178" y="88.2861" width="23.4173" height="6.09184" rx="3.04592" fill="#EA9A2C" stroke="black"/>
<rect x="198.292" y="84.7393" width="29.1887" height="6.09184" rx="3.04592" fill="#EA9A2C" stroke="black"/>
<rect x="195.184" y="79.8867" width="35.404" height="6.09184" rx="3.04592" fill="#EA9A2C" stroke="black"/>
<rect x="0.5" y="-0.5" width="23.4174" height="6.09184" rx="3.04592" transform="matrix(1 0 0 -1 200.678 66.2715)" fill="#EA9A2C" stroke="black"/>
<rect x="0.5" y="-0.5" width="29.1887" height="6.09184" rx="3.04592" transform="matrix(1 0 0 -1 197.792 69.8164)" fill="#EA9A2C" stroke="black"/>
<rect x="0.5" y="-0.5" width="35.404" height="6.09184" rx="3.04592" transform="matrix(1 0 0 -1 194.684 74.123)" fill="#EA9A2C" stroke="black"/>
<rect x="193.63" y="73.8496" width="38.5117" height="6.09184" rx="3.04592" fill="#EA9A2C" stroke="black"/>
<path d="M199.717 75.8623H223.75" stroke="#EBF479" stroke-width="2" stroke-linecap="round"/>
<path d="M201.519 82.4727H221.946" stroke="#EBF479" stroke-width="2" stroke-linecap="round"/>
<path d="M201.519 70.457H221.946" stroke="#EBF479" stroke-width="2" stroke-linecap="round"/>
<path d="M206.927 62.043H218.943" stroke="#EBF479" stroke-width="2" stroke-linecap="round"/>
<path d="M205.724 65.6504H220.143" stroke="#EBF479" stroke-width="2" stroke-linecap="round"/>
<path d="M205.724 87.8789H220.143" stroke="#EBF479" stroke-width="2" stroke-linecap="round"/>
<ellipse cx="227.387" cy="76.034" rx="1.23474" ry="1.37193" fill="#EBF479"/>
<ellipse cx="225.584" cy="82.6415" rx="1.23474" ry="1.37193" fill="#EBF479"/>
<ellipse cx="225.584" cy="70.6063" rx="1.23474" ry="1.37193" fill="#EBF479"/>
<ellipse cx="223.659" cy="65.8021" rx="1.11127" ry="1.23474" fill="#EBF479"/>
<ellipse cx="223.659" cy="87.9135" rx="1.11127" ry="1.23474" fill="#EBF479"/>
<circle cx="209.931" cy="81.2696" r="8.31064" fill="#905708" stroke="black"/>
<ellipse cx="210.831" cy="81.2686" rx="6.90941" ry="7.81064" fill="black"/>
<path fill-rule="evenodd" clip-rule="evenodd" d="M106.996 91.1533C105.578 91.1533 104.428 92.3224 104.428 93.7646V97.5509C104.428 101.445 107.533 104.601 111.362 104.601H113.316C114.734 104.601 115.884 103.432 115.884 101.99C115.884 100.548 114.734 99.3788 113.316 99.3788H111.362C110.369 99.3788 109.564 98.5605 109.564 97.5509V93.7646C109.564 92.3224 108.415 91.1533 106.996 91.1533Z" fill="#906925" stroke="black" stroke-linecap="round"/>
<rect x="143.362" y="0.5" width="31.9659" height="31.9659" rx="10.5" fill="#B2E946" stroke="black" stroke-linejoin="round"/>
<rect x="143.862" y="3.58008" width="30.9659" height="28.3854" rx="10" fill="#9ACA3B"/>
<rect x="89.9824" y="62.9492" width="31.9659" height="31.9659" rx="10.5" fill="#B2E946" stroke="black" stroke-linejoin="round"/>
<rect x="90.4824" y="66.0273" width="30.9659" height="28.3854" rx="10" fill="#9ACA3B"/>
<path fill-rule="evenodd" clip-rule="evenodd" d="M125.798 55.1914C124.373 55.1914 123.218 56.3467 123.218 57.7719V61.5136C123.218 65.3616 126.337 68.481 130.185 68.481H134.572C135.997 68.481 137.152 67.3256 137.152 65.9005C137.152 64.4753 135.997 63.32 134.572 63.32H130.185C129.187 63.32 128.379 62.5112 128.379 61.5136V57.7719C128.379 56.3467 127.223 55.1914 125.798 55.1914Z" fill="#906925" stroke="black" stroke-linecap="round"/>
<path fill-rule="evenodd" clip-rule="evenodd" d="M193.982 55.1924C195.407 55.1924 196.563 56.3477 196.563 57.7729V61.5146C196.563 65.3625 193.443 68.4819 189.595 68.4819H185.208C183.783 68.4819 182.628 67.3266 182.628 65.9014C182.628 64.4763 183.783 63.3209 185.208 63.3209H189.595C190.593 63.3209 191.402 62.5122 191.402 61.5146V57.7729C191.402 56.3477 192.557 55.1924 193.982 55.1924Z" fill="#906925" stroke="black" stroke-linecap="round"/>
<path d="M156.727 78.7021H161.209" stroke="#7EA82B" stroke-linecap="round"/>
<path d="M168.182 76.2119H173.162" stroke="#7EA82B" stroke-linecap="round"/>
<path d="M173.661 32.3799H178.144" stroke="#7EA82B" stroke-linecap="round"/>
<path d="M137.799 76.2119H142.78" stroke="#7EA82B" stroke-linecap="round"/>
<path d="M165.194 57.7822H170.175" stroke="#7EA82B" stroke-linecap="round"/>
<rect x="120.364" y="101.301" width="31.9659" height="31.9659" rx="10.5" fill="#B2E946" stroke="black" stroke-linejoin="round"/>
<rect x="120.866" y="104.382" width="30.9659" height="28.3854" rx="10" fill="#9ACA3B"/>
<path d="M128.336 114.562H132.819" stroke="#238252" stroke-linecap="round"/>
<path d="M133.317 118.547H137.8" stroke="#238252" stroke-linecap="round"/>
<rect x="163.391" y="101.301" width="31.9659" height="31.9659" rx="10.5" fill="#B2E946" stroke="black" stroke-linejoin="round"/>
<rect x="163.891" y="104.381" width="30.9659" height="28.3854" rx="10" fill="#9ACA3B"/>
<path d="M182.627 110.579H187.11" stroke="#238252" stroke-linecap="round"/>
<path d="M178.144 121.537H182.626" stroke="#238252" stroke-linecap="round"/>
<rect x="142.777" y="62.9482" width="31.9659" height="31.9659" rx="10.5" fill="#B2E946" stroke="black" stroke-linejoin="round"/>
<rect x="143.277" y="66.0264" width="30.9659" height="28.3854" rx="10" fill="#9ACA3B"/>
<path d="M156.726 78.6992H161.208" stroke="#238252" stroke-linecap="round"/>
<path d="M150.748 71.2275H155.231" stroke="#238252" stroke-linecap="round"/>
<path d="M149.752 87.665H154.235" stroke="#238252" stroke-linecap="round"/>
<rect x="109.905" y="28.3945" width="31.9659" height="31.9659" rx="10.5" fill="#B2E946" stroke="black" stroke-linejoin="round"/>
<rect x="110.405" y="31.4746" width="30.9659" height="28.3854" rx="10" fill="#9ACA3B"/>
<rect x="177.146" y="28.3945" width="31.9659" height="31.9659" rx="10.5" fill="#B2E946" stroke="black" stroke-linejoin="round"/>
<rect x="177.646" y="31.4766" width="30.9659" height="28.3854" rx="10" fill="#9ACA3B"/>
<path d="M195.611 122.582C195.611 121.773 196.099 121.043 196.847 120.734L214.473 113.44C214.963 113.238 215.513 113.238 216.002 113.44L233.629 120.734C234.376 121.043 234.864 121.773 234.864 122.582V166.619C234.864 167.724 233.968 168.619 232.864 168.619H227.502C226.397 168.619 225.502 167.724 225.502 166.619V165.431C225.502 164.326 224.607 163.431 223.502 163.431H206.973C205.869 163.431 204.973 164.326 204.973 165.431V166.619C204.973 167.724 204.078 168.619 202.973 168.619H197.611C196.507 168.619 195.611 167.724 195.611 166.619V122.582Z" fill="#A38F16" stroke="black" stroke-linecap="round"/>
<path d="M189.338 121.73C188.94 120.711 189.434 119.56 190.447 119.148L214.479 109.373C214.966 109.175 215.511 109.176 215.997 109.377L239.73 119.198C240.681 119.591 241.178 120.643 240.879 121.628L240.464 122.99C240.122 124.114 238.891 124.702 237.802 124.263L215.987 115.457C215.507 115.263 214.97 115.263 214.49 115.457L192.524 124.324C191.492 124.74 190.318 124.234 189.913 123.198L189.338 121.73Z" fill="#CFB727" stroke="black" stroke-linecap="round"/>
<rect x="194.709" y="133.878" width="41.0573" height="7.67005" rx="2" fill="#CFB727" stroke="black" stroke-linecap="round"/>
<rect x="194.709" y="142.9" width="41.0573" height="7.67005" rx="2" fill="#CFB727" stroke="black" stroke-linecap="round"/>
<rect x="194.709" y="151.926" width="41.0573" height="7.67005" rx="2" fill="#CFB727" stroke="black" stroke-linecap="round"/>
<path d="M194.71 126.665C194.71 125.845 195.211 125.108 195.974 124.806L214.503 117.476C214.976 117.289 215.502 117.289 215.974 117.476L234.503 124.806C235.266 125.108 235.767 125.845 235.767 126.665V130.525C235.767 131.629 234.872 132.525 233.767 132.525H196.71C195.605 132.525 194.71 131.629 194.71 130.525V126.665Z" fill="#CFB727" stroke="black" stroke-linecap="round"/>
<circle cx="215.013" cy="125.08" r="3.38384" fill="#875510" stroke="black" stroke-linecap="round"/>
<rect x="251.601" y="139.672" width="22.9814" height="22.9814" rx="8.5" fill="#B2E946" stroke="black" stroke-linejoin="round"/>
<rect x="252.102" y="142.002" width="21.9814" height="20.1497" rx="8" fill="#9ACA3B"/>
<path d="M265.4 146.4H268.582" stroke="#238252" stroke-linecap="round"/>
<path d="M262.218 154.182H265.4" stroke="#238252" stroke-linecap="round"/>
<path d="M147.912 150.448C143.991 151.248 143.948 155.294 144.514 158.068L146.559 158.153C146.559 158.153 148.244 157.307 149.124 156.392C151.783 153.626 150.289 149.964 147.912 150.448Z" fill="white" stroke="black" stroke-linecap="round"/>
<path d="M139.518 163.923C139.13 162.021 140.06 160.511 140.573 159.993C144.139 159.266 147.463 157.35 148.409 155.919C149.356 154.488 154.353 154.708 154.607 158.989C154.861 163.271 149.875 166.144 145.121 167.114C141.317 167.889 140.597 166.179 139.76 165.112L137.856 164.881L139.518 163.923Z" fill="#FEEF48" stroke="black" stroke-linecap="round"/>
<path d="M139.516 163.921C139.128 162.019 139.978 160.112 141.761 159.748C141.761 159.748 140.733 160.782 141.299 163.557C142.156 167.76 145.119 167.111 145.119 167.111C145.119 167.111 141.08 168.554 139.758 165.109L137.854 164.878L139.516 163.921Z" fill="black"/>
<path d="M143.543 159.386C143.709 161.209 143.897 164.761 146.186 166.275" stroke="black" stroke-linecap="round"/>
<path d="M146.896 157.463C147.061 159.286 148.823 163.879 151.701 163.912" stroke="black" stroke-linecap="round"/>
<path d="M140.493 152.696C144.103 150.97 146.137 156.085 146.702 158.859L144.853 159.738C144.853 159.738 142.972 159.619 141.804 159.121C138.275 157.617 135.981 154.854 140.493 152.696Z" fill="white" stroke="black" stroke-linecap="round"/>
<path d="M149.16 157.621C148.602 156.909 147.794 155.175 149.027 153.934" stroke="black" stroke-linecap="round"/>
<path d="M152.095 155.787C151.966 155.153 151.926 153.741 152.799 153.167" stroke="black" stroke-linecap="round"/>
<path d="M234.667 116.38C238.465 115.121 240.518 118.608 241.408 121.295L239.677 122.388C239.677 122.388 237.795 122.493 236.576 122.138C232.893 121.063 232.364 117.144 234.667 116.38Z" fill="white" stroke="black" stroke-linecap="round"/>
<path d="M248.656 123.885C248.045 122.043 246.486 121.196 245.783 121.003C242.329 122.149 238.493 122.143 236.959 121.373C235.426 120.603 231.202 123.282 233.114 127.121C235.026 130.96 240.78 130.97 245.386 129.443C249.071 128.221 248.844 126.379 249.038 125.037L250.574 123.888L248.656 123.885Z" fill="#FEEF48" stroke="black" stroke-linecap="round"/>
<path d="M248.656 123.885C248.046 122.042 246.36 120.812 244.632 121.385C244.632 121.385 246.038 121.769 246.929 124.457C248.279 128.529 245.387 129.442 245.387 129.442C245.387 129.442 249.608 128.681 249.038 125.036L250.575 123.888L248.656 123.885Z" fill="black"/>
<path d="M242.906 121.957C243.671 123.62 245.276 126.794 244.045 129.248" stroke="black" stroke-linecap="round"/>
<path d="M239.041 121.961C239.806 123.625 240.566 128.485 238.086 129.947" stroke="black" stroke-linecap="round"/>
<path d="M242.219 114.639C238.229 114.939 239.013 120.388 239.904 123.075L241.945 122.916C241.945 122.916 243.518 121.877 244.283 120.863C246.594 117.801 247.207 114.263 242.219 114.639Z" fill="white" stroke="black" stroke-linecap="round"/>
<path d="M237.157 123.224C237.286 122.329 237.123 120.423 235.435 119.96" stroke="black" stroke-linecap="round"/>
<path d="M233.696 123.092C233.493 122.478 232.824 121.234 231.781 121.171" stroke="black" stroke-linecap="round"/>
<path d="M261.745 60.425C257.825 61.2244 257.781 65.271 258.347 68.0446L260.392 68.1293C260.392 68.1293 262.077 67.2839 262.957 66.3682C265.616 63.6023 264.123 59.9403 261.745 60.425Z" fill="white" stroke="black" stroke-linecap="round"/>
<path d="M253.352 73.8976C252.964 71.9957 253.894 70.4854 254.407 69.968C257.973 69.2409 261.297 67.3251 262.243 65.894C263.19 64.463 268.187 64.6822 268.441 68.9637C268.695 73.2453 263.709 76.119 258.955 77.0884C255.151 77.864 254.431 76.1536 253.594 75.0861L251.69 74.8555L253.352 73.8976Z" fill="#FEEF48" stroke="black" stroke-linecap="round"/>
<path d="M253.351 73.8971C252.963 71.9952 253.813 70.0884 255.596 69.7249C255.596 69.7249 254.568 70.7587 255.134 73.5335C255.991 77.7361 258.954 77.088 258.954 77.088C258.954 77.088 254.915 78.5303 253.593 75.0856L251.689 74.855L253.351 73.8971Z" fill="black"/>
<path d="M257.379 69.3614C257.545 71.1848 257.733 74.737 260.022 76.2511" stroke="black" stroke-linecap="round"/>
<path d="M260.732 67.4394C260.897 69.2628 262.659 73.856 265.537 73.8883" stroke="black" stroke-linecap="round"/>
<path d="M254.329 62.6719C257.939 60.9454 259.973 66.0609 260.538 68.8345L258.689 69.7133C258.689 69.7133 256.808 69.5951 255.64 69.097C252.111 67.5926 249.817 64.83 254.329 62.6719Z" fill="white" stroke="black" stroke-linecap="round"/>
<path d="M262.995 67.5964C262.437 66.8847 261.629 65.1509 262.862 63.9092" stroke="black" stroke-linecap="round"/>
<path d="M265.93 65.7621C265.801 65.1282 265.761 63.7167 266.634 63.1424" stroke="black" stroke-linecap="round"/>
<path d="M99.1863 119.111C103.107 119.91 103.15 123.956 102.585 126.73L100.539 126.815C100.539 126.815 98.8544 125.969 97.9743 125.054C95.3161 122.288 96.8091 118.626 99.1863 119.111Z" fill="white" stroke="black" stroke-linecap="round"/>
<path d="M107.58 132.584C107.968 130.682 107.038 129.172 106.524 128.654C102.958 127.927 99.6347 126.012 98.6884 124.581C97.7422 123.15 92.7452 123.369 92.4912 127.65C92.2373 131.932 97.2227 134.805 101.977 135.775C105.781 136.55 106.501 134.84 107.338 133.773L109.242 133.542L107.58 132.584Z" fill="#FEEF48" stroke="black" stroke-linecap="round"/>
<path d="M107.58 132.583C107.967 130.681 107.118 128.774 105.335 128.41C105.335 128.41 106.363 129.444 105.797 132.219C104.94 136.422 101.977 135.773 101.977 135.773C101.977 135.773 106.016 137.216 107.337 133.771L109.242 133.54L107.58 132.583Z" fill="black"/>
<path d="M103.554 128.047C103.388 129.87 103.2 133.422 100.91 134.936" stroke="black" stroke-linecap="round"/>
<path d="M100.201 126.126C100.035 127.949 98.2737 132.542 95.3958 132.575" stroke="black" stroke-linecap="round"/>
<path d="M106.603 121.358C102.994 119.632 100.96 124.747 100.395 127.521L102.244 128.4C102.244 128.4 104.125 128.281 105.293 127.783C108.822 126.279 111.116 123.517 106.603 121.358Z" fill="white" stroke="black" stroke-linecap="round"/>
<path d="M97.937 126.282C98.4948 125.57 99.3023 123.836 98.0698 122.595" stroke="black" stroke-linecap="round"/>
<path d="M95.0016 124.447C95.1309 123.813 95.171 122.401 94.2977 121.827" stroke="black" stroke-linecap="round"/>
<path d="M248.331 76.7041C246.346 79.0204 240.886 82.958 234.93 80.1785" stroke="black" stroke-linecap="round" stroke-linejoin="round" stroke-dasharray="2 2"/>
<path d="M190.761 141.314C182.654 146.112 184.521 154.984 208.133 151.241C248.832 144.789 272.657 118.483 264.219 115.008C257.469 112.229 251.149 113.85 248.832 115.008" stroke="black" stroke-linecap="round" stroke-linejoin="round" stroke-dasharray="2 2"/>
<path d="M161.428 143.531C161.428 142.722 161.915 141.993 162.663 141.683L180.289 134.39C180.779 134.187 181.329 134.187 181.819 134.39L199.445 141.683C200.193 141.993 200.68 142.722 200.68 143.531V187.568C200.68 188.673 199.785 189.568 198.68 189.568H193.318C192.214 189.568 191.318 188.673 191.318 187.568V186.38C191.318 185.275 190.423 184.38 189.318 184.38H172.79C171.685 184.38 170.79 185.275 170.79 186.38V187.568C170.79 188.673 169.894 189.568 168.79 189.568H163.428C162.323 189.568 161.428 188.673 161.428 187.568V143.531Z" fill="#A38F16" stroke="black" stroke-linecap="round"/>
<path d="M155.154 142.679C154.755 141.66 155.249 140.51 156.263 140.097L180.294 130.322C180.781 130.124 181.327 130.125 181.812 130.326L205.545 140.147C206.497 140.541 206.994 141.592 206.694 142.577L206.28 143.939C205.938 145.063 204.706 145.651 203.618 145.212L181.803 136.406C181.323 136.212 180.786 136.212 180.305 136.406L158.339 145.273C157.307 145.689 156.134 145.183 155.728 144.147L155.154 142.679Z" fill="#CFB727" stroke="black" stroke-linecap="round"/>
<rect x="160.525" y="154.828" width="41.0573" height="7.67005" rx="2" fill="#CFB727" stroke="black" stroke-linecap="round"/>
<rect x="160.525" y="163.85" width="41.0573" height="7.67005" rx="2" fill="#CFB727" stroke="black" stroke-linecap="round"/>
<rect x="160.526" y="172.876" width="41.0573" height="7.67005" rx="2" fill="#CFB727" stroke="black" stroke-linecap="round"/>
<path d="M160.525 147.615C160.525 146.794 161.027 146.057 161.79 145.755L180.318 138.425C180.791 138.238 181.317 138.238 181.79 138.425L200.318 145.755C201.081 146.057 201.583 146.794 201.583 147.615V151.474C201.583 152.578 200.687 153.474 199.583 153.474H162.525C161.421 153.474 160.525 152.578 160.525 151.474V147.615Z" fill="#CFB727" stroke="black" stroke-linecap="round"/>
<circle cx="180.829" cy="146.027" r="3.38384" fill="#875510" stroke="black" stroke-linecap="round"/>
<rect x="83.3652" y="146.604" width="30.1328" height="30.1328" rx="10.5" fill="#7BA130" stroke="black" stroke-linejoin="round"/>
<rect x="83.8662" y="149.529" width="29.1328" height="26.7051" rx="10" fill="#527213"/>
<path d="M95.6572 155.361H99.8745" stroke="#7BA130" stroke-linecap="round"/>
<path d="M91.4404 165.669H95.6577" stroke="#7BA130" stroke-linecap="round"/>
<rect x="104.925" y="162.919" width="21.9756" height="21.9756" rx="8.5" fill="#B2E946" stroke="black" stroke-linejoin="round"/>
<rect x="105.425" y="165.165" width="20.9756" height="19.2276" rx="8" fill="#9ACA3B"/>
<path d="M118.117 169.363H121.154" stroke="#238252" stroke-linecap="round"/>
<path d="M115.08 176.786H118.117" stroke="#238252" stroke-linecap="round"/>
</svg>
