<svg width="363" height="214" viewBox="0 0 363 214" fill="none" xmlns="http://www.w3.org/2000/svg">
<path d="M358.327 183.469C359.96 184.07 360.99 184.69 361.531 185.29C361.796 185.583 361.93 185.856 361.976 186.109C362.022 186.359 361.99 186.627 361.856 186.927C361.577 187.55 360.874 188.271 359.665 189.063C358.471 189.846 356.844 190.66 354.806 191.494C346.645 194.836 332.178 198.399 313.614 201.664C276.507 208.19 223.178 213.5 171.569 213.5C119.962 213.5 72.605 207.895 40.9713 201.224C25.1428 197.886 13.2926 194.289 6.81486 191.013C5.19806 190.195 3.93438 189.406 3.03201 188.658C2.12048 187.902 1.62716 187.229 1.46392 186.655C1.31364 186.127 1.42501 185.622 1.90351 185.097C2.40499 184.547 3.30121 183.992 4.67818 183.467C17.6011 178.546 29.5571 173.786 40.8247 169.301C89.7763 149.815 125.738 135.5 171.569 135.5C223.176 135.5 249.598 140.047 273.224 148.296C284.107 152.097 294.403 156.684 306.312 161.991C307.342 162.45 308.385 162.914 309.44 163.384C322.697 169.282 338.062 176.013 358.327 183.469Z" fill="#FFF5A9" stroke="black"/>
<ellipse cx="117.5" cy="20" rx="117.5" ry="20" transform="matrix(-1 0 0 1 294 156)" fill="black" fill-opacity="0.2"/>
<path d="M281.06 155.326C273.143 161.545 266.706 155.326 264.477 151.439C266.516 140.455 267.536 129.731 267.84 119.596C267.88 118.246 267.908 116.907 267.923 115.579C267.997 109.32 267.804 103.31 267.42 97.6309C267.285 95.6462 267.127 93.702 266.949 91.8016C265.296 74.1737 261.897 60.3182 259.293 53.0021C272.162 66.3739 278.473 86.1997 281.133 105.555C282.47 115.289 282.884 124.903 282.745 133.518C282.713 135.466 282.653 137.362 282.57 139.196C282.286 145.406 281.728 150.914 281.06 155.326Z" fill="#825A11"/>
<path d="M282.57 139.196C282.286 145.406 281.728 150.914 281.06 155.326C273.143 161.545 266.706 155.326 264.477 151.439C266.516 140.455 267.536 129.731 267.84 119.596M282.57 139.196C280.537 139.617 275.578 140.249 272.007 139.412M282.57 139.196C282.653 137.362 282.713 135.466 282.745 133.518M282.745 133.518C281.79 133.855 279.227 134.443 276.616 134.1M282.745 133.518C282.884 124.903 282.47 115.289 281.133 105.555M267.84 119.596C270.224 120.043 275.322 120.677 276.641 119.641M267.84 119.596C267.88 118.246 267.908 116.907 267.923 115.579M267.923 115.579C268.959 115.821 271.458 116.205 273.168 115.799M267.923 115.579C267.997 109.32 267.804 103.31 267.42 97.6309M281.133 105.555C278.473 86.1996 272.162 66.3739 259.293 53.0021C261.897 60.3182 265.296 74.1737 266.949 91.8016M281.133 105.555C279.623 105.874 275.968 106.43 273.423 106.103M267.42 97.6309C268.687 97.7036 271.429 97.696 272.259 97.0832M267.42 97.6309C267.285 95.6462 267.127 93.702 266.949 91.8016M266.949 91.8016C268.921 91.4789 273.088 90.6167 273.978 89.7488" stroke="black"/>
<path d="M208.869 16.96C248.985 -4.92276 262.226 32.8313 260.344 54.2567C253.313 42.9201 244.211 34.103 240.538 31.1115C240.522 30.0312 242.143 28.572 242.955 27.9775C241.935 27.7383 238.454 28.0438 236.841 28.2264C233.748 25.3484 228.122 22.3699 225.695 21.2404L226.856 19.1577C225.776 19.1736 223.769 19.8918 222.9 20.249C219.253 18.5868 212.026 17.3637 208.869 16.96Z" fill="#4DA058" stroke="black"/>
<path d="M196.819 56.8496C214.792 14.8363 248.555 36.3013 260.334 54.297C247.796 49.7422 235.19 48.4479 230.454 48.3702C229.773 47.5314 230.143 45.3824 230.413 44.4128C229.464 44.8563 226.919 47.25 225.765 48.3914C221.554 48.0445 215.291 49.1862 212.686 49.8004L212.309 47.4459C211.471 48.1268 210.338 49.9331 209.877 50.7512C205.983 51.7023 199.549 55.2131 196.819 56.8496Z" fill="#4DA058"/>
<path d="M260.334 54.297C248.555 36.3013 214.792 14.8363 196.819 56.8496C199.549 55.2131 205.983 51.7023 209.877 50.7512C210.338 49.9331 211.471 48.1268 212.309 47.4459L212.686 49.8004C215.291 49.1862 221.554 48.0445 225.765 48.3914C226.919 47.25 229.464 44.8563 230.413 44.4128C230.143 45.3824 229.773 47.5314 230.454 48.3702C235.19 48.4479 247.796 49.7422 260.334 54.297ZM260.334 54.297C251.73 46.0063 230.402 31.6496 213.926 40.5481" stroke="black"/>
<path d="M319.829 31.3325C286.594 -0.0298586 264.19 33.1176 260.563 54.3176C270.246 45.1409 281.29 38.9275 285.602 36.9678C285.892 35.9271 284.696 34.1039 284.062 33.3224C285.109 33.3505 288.398 34.5308 289.911 35.1174C293.634 33.1203 299.833 31.67 302.467 31.1946L301.874 28.8851C302.914 29.1751 304.673 30.3801 305.422 30.9463C309.372 30.266 316.672 30.9203 319.829 31.3325Z" fill="#4DA058"/>
<path d="M260.563 54.3176C264.19 33.1176 286.594 -0.0298592 319.829 31.3325C316.672 30.9203 309.372 30.266 305.422 30.9463C304.673 30.3801 302.914 29.1751 301.874 28.8851L302.467 31.1946C299.833 31.67 293.634 33.1203 289.911 35.1174C288.398 34.5308 285.109 33.3505 284.062 33.3224C284.696 34.1039 285.892 35.9271 285.602 36.9678C281.29 38.9275 270.246 45.1409 260.563 54.3176ZM260.563 54.3176C265.148 43.2835 278.983 21.6131 297.64 23.2041" stroke="black"/>
<path d="M300.807 69.7964C298.343 38.6447 271.774 45.1745 260.208 54.261C269.328 54.0499 277.78 55.9663 280.865 56.9509C281.49 56.5562 281.72 55.0829 281.756 54.3955C282.275 54.8905 283.401 56.9978 283.899 57.9896C286.703 58.685 290.512 60.7936 292.066 61.7609L292.825 60.3176C293.219 60.9421 293.558 62.3601 293.679 62.991C295.994 64.4583 299.395 68.1393 300.807 69.7964Z" fill="#348A62"/>
<path d="M260.208 54.261C271.774 45.1745 298.343 38.6447 300.807 69.7964C299.395 68.1393 295.994 64.4583 293.679 62.991C293.558 62.3601 293.219 60.9421 292.825 60.3176L292.066 61.7609C290.512 60.7936 286.703 58.685 283.899 57.9896C283.401 56.9978 282.275 54.8905 281.756 54.3955C281.72 55.0829 281.49 56.5562 280.865 56.9509C277.78 55.9663 269.328 54.0499 260.208 54.261ZM260.208 54.261C267.596 50.7694 284.553 46.1278 293.284 55.4946" stroke="black"/>
<circle cx="8.18828" cy="8.18828" r="8.18828" transform="matrix(-0.97361 -0.22822 -0.22822 0.97361 264.957 54.665)" fill="#9D7939" stroke="black"/>
<circle cx="8.18828" cy="8.18828" r="8.18828" transform="matrix(-0.97361 -0.22822 -0.22822 0.97361 278.381 49.0664)" fill="#9D7939" stroke="black"/>
<path d="M225.81 80.7202C219.335 50.1493 246.665 48.8731 260.333 54.3051C251.528 56.69 243.968 60.9254 241.288 62.745C240.577 62.5437 239.939 61.1961 239.708 60.5475C239.352 61.1692 238.87 63.5093 238.673 64.6017C236.182 66.0642 233.128 69.1667 231.912 70.5351L230.775 69.3663C230.574 70.0771 230.651 71.533 230.715 72.1721C228.911 74.2359 226.693 78.7307 225.81 80.7202Z" fill="#348A62"/>
<path d="M260.333 54.3051C246.665 48.8731 219.335 50.1493 225.81 80.7202C226.693 78.7307 228.911 74.2359 230.715 72.1721C230.651 71.533 230.574 70.0771 230.775 69.3663L231.912 70.5351C233.128 69.1667 236.182 66.0642 238.673 64.6017C238.87 63.5093 239.352 61.1692 239.708 60.5475C239.939 61.1961 240.577 62.5437 241.288 62.745C243.968 60.9254 251.528 56.69 260.333 54.3051ZM260.333 54.3051C252.259 53.0528 234.681 53.4129 228.966 64.8719" stroke="black"/>
<circle cx="8.18828" cy="8.18828" r="8.18828" transform="matrix(-0.97361 -0.22822 -0.22822 0.97361 263.822 42.291)" fill="#9D7939" stroke="black"/>
<g filter="url(#filter0_i_30956_3399)">
<path d="M145.341 136.248C166.051 137.671 171.568 157.893 171.737 167.827C168.063 167.197 164.302 166.935 160.569 166.948C156.955 166.961 153.367 167.231 149.909 167.675C145.576 168.23 141.447 169.057 137.727 169.988C131.892 171.449 127.061 173.167 124.021 174.498C122.498 161.155 124.63 134.825 145.341 136.248Z" fill="#8F6354"/>
</g>
<path d="M137.727 169.988C131.892 171.449 127.061 173.167 124.021 174.498C122.498 161.155 124.63 134.825 145.341 136.248C166.051 137.671 171.568 157.893 171.737 167.827C168.063 167.197 164.302 166.935 160.569 166.948M137.727 169.988V161.6M137.727 169.988C141.447 169.057 145.576 168.23 149.909 167.675M139.757 162.49C139.757 161.6 139.757 157.152 140.265 154.039M149.909 167.675C149.571 164.167 149.097 156.441 149.909 153.594M149.909 167.675C153.367 167.231 156.955 166.961 160.569 166.948M158.539 155.373C159.216 157.753 160.569 163.399 160.569 166.948" stroke="black" stroke-linecap="round" stroke-linejoin="round"/>
<path d="M71.0727 172.271C70.2268 155.249 76.863 128.621 85.7714 112.586C112.051 78.7341 231.404 83.982 251.447 103.135C267.482 118.457 272.995 146.043 274.182 166.829C269.842 169.764 265.368 172.368 260.82 174.673C240.642 184.9 219.006 189.256 201.134 190.619C200.385 190.676 199.643 190.728 198.907 190.775C194.976 191.025 191.788 191.131 188.315 191.125L188.057 191.125C181.212 191.113 177.186 191.107 174.107 189.643C171.028 186.823 170.542 175.778 170.53 166.705C169.059 165.758 168.155 162.325 168.155 160.594C167.086 160.237 166.818 156.882 166.818 155.249C166.106 154.892 165.631 153.615 165.482 153.021C163.7 153.021 163.405 150.052 163.48 148.567C163.24 149.502 162.77 150.349 161.919 150.349C160.493 150.349 160.712 147.973 160.999 146.786C160.534 148.156 159.705 149.458 158.355 149.458C156.217 149.458 155.98 144.41 156.128 141.886C155.237 144.113 153.01 148.478 151.229 148.122C149.447 147.766 148.742 145.598 148.612 144.559C148.285 145.992 147.717 147.3 146.775 147.676C144.993 148.389 143.732 147.083 143.324 146.34C143.295 146.651 143.258 146.95 143.211 147.231C142.855 149.369 140.566 149.013 139.466 148.567C139.401 149.416 139.315 150.448 139.203 151.685C138.846 155.605 137.272 156.585 136.53 156.585C136.53 158.366 134.674 158.812 133.746 158.812C133.762 159.585 133.798 160.471 133.858 161.484C134.214 167.542 131.927 167.869 130.74 167.275C130.74 167.353 130.736 167.366 130.73 167.324C130.447 168.784 129.238 171.279 126.565 169.947C126.5 171.638 126.415 172.956 126.304 173.511C125.948 175.292 124.671 173.956 124.077 173.065C122.786 181.528 121.45 186.079 121.45 186.079C118.332 187.416 112.613 185.445 109.824 184.689C97.0319 181.221 90.6522 182.516 82.6535 178.062C75.0814 175.835 71.9983 174.55 71.0727 172.271Z" fill="#A08256"/>
<path d="M126.75 157.476C126.75 158.471 126.746 159.702 126.735 161.039C126.713 163.959 126.663 167.382 126.565 169.947M129.868 154.358C129.868 152.361 130.74 168.56 130.74 167.275M130.74 163.266C130.74 163.652 130.74 164.89 130.74 167.275M130.74 167.275C131.927 167.869 134.214 167.542 133.858 161.484C133.798 160.471 133.762 159.585 133.746 158.812M130.74 167.275C130.474 168.727 129.268 171.294 126.565 169.947M134.303 153.912C134.056 153.912 133.664 154.962 133.746 158.812M133.746 158.812C134.674 158.812 136.53 158.366 136.53 156.585C137.272 156.585 138.846 155.605 139.203 151.685C139.315 150.448 139.401 149.416 139.466 148.567M139.648 145.449C139.648 145.754 139.606 146.727 139.466 148.567M139.466 148.567C140.566 149.013 142.855 149.369 143.211 147.231C143.258 146.95 143.295 146.651 143.324 146.34M143.211 140.55C143.34 141.711 143.514 144.283 143.324 146.34M143.324 146.34C143.732 147.083 144.993 148.389 146.775 147.676C147.717 147.3 148.285 145.992 148.612 144.559M149.002 140.995C149.002 141.904 148.903 143.282 148.612 144.559M148.612 144.559C148.742 145.598 149.447 147.766 151.229 148.122C153.01 148.478 155.237 144.113 156.128 141.886C155.98 144.41 156.217 149.458 158.355 149.458C159.705 149.458 160.534 148.156 160.999 146.786M161.473 144.559C161.419 145.161 161.271 145.985 160.999 146.786M160.999 146.786C160.712 147.973 160.493 150.349 161.919 150.349C162.77 150.349 163.24 149.502 163.48 148.567M163.7 146.786C163.7 147.264 163.643 147.936 163.48 148.567M163.48 148.567C163.405 150.052 163.7 153.021 165.482 153.021M165.482 153.021V150.349M165.482 153.021C165.631 153.615 166.106 154.892 166.818 155.249M166.818 155.249V151.685M166.818 155.249C166.818 156.882 167.086 160.237 168.155 160.594M168.155 160.594C168.155 162.524 169.279 166.57 171.06 166.926M168.155 160.594V157.921M171.06 166.926L171.034 164.254M171.06 166.926C171.06 168.411 169.688 153.556 170.401 153.912C171.291 154.358 168.698 184.689 174.107 189.643C177.225 191.125 181.313 191.113 188.315 191.125M109.824 184.689C112.613 185.445 118.332 187.416 121.45 186.079C121.45 186.079 122.786 181.528 124.077 173.065C124.671 173.956 125.948 175.292 126.304 173.511C126.415 172.956 126.5 171.638 126.565 169.947M109.824 184.689C110.715 176.954 110.314 173.697 113.878 165.145M109.824 184.689C97.0319 181.221 90.6522 182.516 82.6535 178.062M82.6535 178.062C75.0814 175.835 71.9983 174.55 71.0727 172.271C70.2268 155.249 76.863 128.621 85.7714 112.586C112.051 78.7341 231.404 83.982 251.447 103.135C267.482 118.457 272.995 146.043 274.182 166.829C269.842 169.764 265.368 172.368 260.82 174.673M82.6535 178.062C82.9371 169.302 82.6535 163.809 85.7714 153.564M92.4339 134.759C90.8007 137.283 88.0688 142.243 90.2068 141.886C92.3448 141.529 93.1762 139.956 93.3247 139.213C91.3946 142.777 88.5142 149.815 92.4339 149.458C96.3535 149.102 99.709 144.855 100.897 142.777C100.154 144.855 99.6496 148.567 103.569 146.786M111.587 145.449C110.844 148.122 110.429 152.843 114.705 150.349M120.94 140.104C122.722 135.204 126.82 124.693 128.958 121.842M98.6697 134.759C99.8575 132.68 102.857 127.632 105.351 124.069M110.696 120.951C109.063 123.624 105.618 129.414 104.905 131.196M207.797 123.178C209.43 129.266 213.052 143.49 214.478 151.685M210.469 124.96C211.508 128.226 213.676 135.561 214.032 138.768M239.867 115.161C241.203 118.576 244.142 126.385 245.211 130.305M255.52 151.685C256.856 158.102 258.326 159.212 260.82 174.673M260.82 174.673C240.642 184.9 219.006 189.256 201.134 190.619M198.907 190.775C198.462 186.801 197.125 177.073 195.344 169.947M198.907 190.775C199.643 190.728 200.385 190.676 201.134 190.619M198.907 190.775C194.976 191.025 191.788 191.131 188.315 191.125M201.134 190.619C200.689 188.182 199.798 182.953 199.798 181.528M188.315 191.125C188.019 181.542 186.614 160.683 185.545 153.912" stroke="black" stroke-linecap="round" stroke-linejoin="round"/>
<path opacity="0.3" fill-rule="evenodd" clip-rule="evenodd" d="M80.6945 123.432C80.9589 123.206 81.2267 122.973 81.4969 122.733C81.3034 122.813 81.0961 122.894 80.8775 122.976C82.3977 119.212 84.0417 115.699 85.7713 112.586C109.631 81.8509 210.214 83.3471 243.535 98.2177C245.201 99.6908 246.81 101.126 248.357 102.506C252.013 105.767 255.32 108.716 258.198 111.115C260.511 114.464 262.518 118.111 264.253 121.947C262.893 122.253 261.415 122.507 259.91 122.679C255.981 123.127 251.87 123.02 249.22 121.842C252.486 124.218 257.861 128.969 253.229 128.969C251.401 128.969 249.79 128.414 248.446 127.633C250.337 129.563 251.714 132.354 242.093 128.078C237.158 125.885 233.261 123.284 230.416 120.952C233.45 123.772 238.607 129.147 234.967 128.078C231.326 127.009 227.808 124.663 226.504 123.624C228.815 127.187 232.834 134.136 230.416 133.423C228.585 132.883 226.229 131.035 224.358 128.969C225.276 131.79 226.561 137.165 224.358 136.096C222.417 135.154 219.853 132.221 218.041 129.481C219.229 132.576 221.07 138.412 218.932 136.987C216.912 135.64 214.204 130.744 212.909 128.078C213.58 132.362 213.765 139.784 209.133 135.205C207.484 133.575 206.162 131.885 205.124 130.297C206.312 132.972 208.242 138.056 206.46 136.987C204.233 135.65 200.67 131.328 200.224 129.481C199.185 133.17 196.216 140.283 192.652 139.214C190.168 138.468 189.704 134.649 189.903 131.196C188.444 134.017 184.991 139.481 182.853 138.768C181.092 138.181 181.627 134.16 182.369 131.196C181.342 133.72 178.933 138.501 177.508 137.432C176.394 136.596 176.477 131.352 176.779 127.187C175.834 131.345 173.232 139.124 170.381 136.987C168.897 139.659 165.482 143.757 163.7 138.768C162.227 134.644 161.87 131.453 161.875 129.8C161.697 131.491 160.932 133.327 158.8 131.196C157.019 135.205 152.476 142.599 148.556 140.104C146.461 138.771 145.375 133.476 144.864 127.633C144.313 131.938 142.231 139.837 138.311 136.987C135.652 135.052 134.209 130.821 133.51 127.187C134.071 130.308 134.57 135.924 132.076 133.423C131.171 132.516 130.434 131.154 129.849 129.658C130.294 130.913 130.739 133.423 128.958 133.423C127.326 133.423 126.318 130.187 125.931 128.16C126.323 130.621 126.492 134.532 124.504 133.869C122.366 133.156 121.534 123.772 121.386 119.17C120.346 123.772 117.466 133.067 114.259 133.423C111.052 133.78 112.923 130.602 114.259 128.969C112.18 131.345 107.132 136.096 103.569 136.096C100.768 136.096 100.903 134.628 101.593 133.423C100.634 133.423 99.4395 132.383 101.112 128.524C99.8527 130.305 96.7987 133.601 94.6608 132.532C92.9517 131.678 95.2445 128.091 97.6457 124.335C97.9863 123.802 98.329 123.266 98.6629 122.733C94.3711 126.395 85.2045 132.013 78.3945 129.663C79.1218 127.531 79.8904 125.447 80.6945 123.432Z" fill="black"/>
<path d="M177.063 48.3483C215.814 51.4662 257.238 104.025 267.928 105.807C275.084 107 267.868 110.189 259.911 111.097C255.981 111.546 251.871 111.439 249.221 110.261C252.487 112.637 257.862 117.388 253.229 117.388C251.401 117.388 249.791 116.833 248.447 116.052C250.338 117.982 251.715 120.773 242.094 116.497C237.158 114.303 233.262 111.703 230.417 109.37C233.45 112.191 238.608 117.566 234.967 116.497C231.327 115.428 227.809 113.082 226.504 112.043C228.816 115.606 232.834 122.555 230.417 121.842C228.586 121.302 226.229 119.454 224.359 117.388C225.277 120.209 226.562 125.583 224.359 124.514C222.418 123.573 219.854 120.64 218.041 117.899C219.229 120.995 221.07 126.831 218.932 125.405C216.913 124.059 214.205 119.163 212.91 116.497C213.581 120.781 213.765 128.203 209.133 123.624C207.484 121.994 206.163 120.304 205.124 118.716C206.312 121.391 208.242 126.474 206.461 125.405C204.234 124.069 200.67 119.747 200.225 117.899C199.186 121.589 196.216 128.701 192.653 127.632C190.168 126.887 189.705 123.067 189.903 119.615C188.444 122.436 184.992 127.9 182.854 127.187C181.093 126.6 181.628 122.579 182.369 119.615C181.343 122.139 178.934 126.92 177.509 125.851C176.395 125.015 176.478 119.771 176.78 115.606C175.835 119.763 173.233 127.543 170.382 125.405C168.897 128.078 165.482 132.176 163.701 127.187C162.228 123.063 161.871 119.872 161.875 118.219C161.698 119.91 160.932 121.746 158.801 119.615C157.019 123.624 152.476 131.017 148.556 128.523C146.461 127.19 145.376 121.894 144.864 116.052C144.313 120.357 142.232 128.256 138.312 125.405C135.652 123.471 134.209 119.24 133.51 115.606C134.072 118.727 134.57 124.343 132.076 121.842C131.172 120.935 130.435 119.572 129.849 118.076C130.295 119.332 130.74 121.842 128.958 121.842C127.327 121.842 126.318 118.606 125.931 116.578C126.323 119.04 126.493 122.95 124.504 122.287C122.366 121.575 121.535 112.191 121.386 107.589C120.347 112.191 117.467 121.486 114.26 121.842C111.053 122.198 112.923 119.021 114.26 117.388C112.181 119.763 107.133 124.514 103.57 124.514C100.769 124.514 100.903 123.047 101.594 121.842C100.634 121.842 99.4401 120.801 101.113 116.942C99.8533 118.724 96.7993 122.02 94.6613 120.951C92.7099 119.975 95.976 115.437 98.6634 111.152C93.6176 115.458 81.8334 122.466 75.063 116.052C76.4457 115.207 78.8537 113.495 81.4975 111.152C78.6103 112.34 72.6578 113.914 71.9451 110.707C71.0543 106.698 78.6264 108.479 95.9976 88.8812C113.369 69.2829 141.43 44.785 177.063 48.3483Z" fill="#DBB275"/>
<path d="M249.221 110.261C247.736 108.925 244.499 105.807 243.43 104.025M249.221 110.261C252.487 112.637 257.862 117.388 253.229 117.388C251.401 117.388 249.791 116.833 248.447 116.052M249.221 110.261C251.871 111.439 255.981 111.546 259.911 111.097M244.321 112.043C244.95 113.121 246.385 114.853 248.447 116.052M248.447 116.052C250.338 117.982 251.715 120.773 242.094 116.497C237.158 114.303 233.262 111.703 230.417 109.37M225.168 104.025C225.963 105.182 227.716 107.156 230.417 109.37M230.417 109.37C233.45 112.191 238.608 117.566 234.967 116.497C231.327 115.428 227.809 113.082 226.504 112.043C228.816 115.606 232.834 122.555 230.417 121.842C228.586 121.302 226.229 119.454 224.359 117.388M221.605 113.379C222.131 114.608 223.142 116.044 224.359 117.388M224.359 117.388C225.277 120.209 226.562 125.583 224.359 124.514C222.418 123.573 219.854 120.64 218.041 117.899M216.26 114.715C216.654 115.636 217.282 116.751 218.041 117.899M218.041 117.899C219.229 120.995 221.07 126.831 218.932 125.405C216.913 124.059 214.205 119.163 212.91 116.497M212.251 113.379L212.696 116.052C212.762 116.192 212.834 116.34 212.91 116.497M212.91 116.497C213.581 120.781 213.765 128.203 209.133 123.624C207.484 121.994 206.163 120.304 205.124 118.716M202.006 112.043C202.293 113.3 203.245 115.842 205.124 118.716M205.124 118.716C206.312 121.391 208.242 126.474 206.461 125.405C204.234 124.069 200.67 119.747 200.225 117.899C199.186 121.589 196.216 128.701 192.653 127.632C190.168 126.887 189.705 123.067 189.903 119.615M190.426 115.606C190.201 116.685 189.99 118.115 189.903 119.615M189.903 119.615C188.444 122.436 184.992 127.9 182.854 127.187C181.093 126.6 181.628 122.579 182.369 119.615M182.854 117.899C182.696 118.393 182.528 118.98 182.369 119.615M182.369 119.615C181.343 122.139 178.934 126.92 177.509 125.851C176.395 125.015 176.478 119.771 176.78 115.606M177.063 112.488C176.966 113.364 176.864 114.443 176.78 115.606M176.78 115.606C175.835 119.763 173.233 127.543 170.382 125.405M170.382 125.405C171.273 123.327 173.233 117.922 173.945 112.934M170.382 125.405C168.897 128.078 165.482 132.176 163.701 127.187C161.919 122.198 161.77 118.576 161.919 117.388C161.919 119.169 161.295 122.109 158.801 119.615M158.801 119.615C159.098 119.021 159.781 117.388 160.137 115.606M158.801 119.615C157.019 123.624 152.476 131.017 148.556 128.523C146.461 127.19 145.376 121.894 144.864 116.052M144.548 101.798C144.41 105.461 144.419 110.964 144.864 116.052M144.864 116.052C144.313 120.357 142.232 128.256 138.312 125.405C135.652 123.471 134.209 119.24 133.51 115.606M132.967 111.152C133.015 112.297 133.179 113.885 133.51 115.606M133.51 115.606C134.072 118.727 134.57 124.343 132.076 121.842C131.172 120.935 130.435 119.572 129.849 118.076M128.067 110.707C128.257 112.408 128.82 115.448 129.849 118.076M129.849 118.076C130.295 119.332 130.74 121.842 128.958 121.842C127.177 121.842 126.137 117.982 125.84 116.052C126.286 118.427 126.642 123 124.504 122.287C122.366 121.575 121.535 112.191 121.386 107.589C120.347 112.191 117.467 121.486 114.26 121.842C111.053 122.198 112.923 119.021 114.26 117.388M114.26 117.388C115.15 116.2 117.11 113.201 117.823 110.707M114.26 117.388C112.181 119.763 107.133 124.514 103.57 124.514C100.769 124.514 100.903 123.047 101.594 121.842M108.024 112.934C107.311 115.072 103.867 119.169 102.233 120.951C102.011 121.205 101.782 121.514 101.594 121.842M101.594 121.842C100.634 121.842 99.4401 120.801 101.113 116.942M102.233 114.715C101.766 115.545 101.398 116.285 101.113 116.942M101.113 116.942C99.8533 118.724 96.7993 122.02 94.6613 120.951C92.7099 119.975 95.976 115.437 98.6634 111.152M101.113 106.698C100.57 108.02 99.6564 109.569 98.6634 111.152M98.6634 111.152C93.6176 115.458 81.8334 122.466 75.063 116.052C76.4457 115.207 78.8537 113.495 81.4975 111.152M88.8709 103.134C86.6352 106.23 83.9638 108.966 81.4975 111.152M81.4975 111.152C78.6103 112.34 72.6578 113.914 71.9451 110.707C71.0543 106.698 78.6264 108.479 95.9976 88.8812C113.369 69.2829 141.43 44.785 177.063 48.3483C215.814 51.4662 257.238 104.025 267.928 105.807C275.084 107 267.868 110.189 259.911 111.097M112.478 82.1996C109.805 84.7238 105.262 89.5941 108.469 88.8812C111.676 88.1682 113.666 86.5053 114.26 85.7629C113.072 87.5446 111.409 91.0188 114.26 90.6625M144.548 62.6013C140.687 66.0161 131.898 74.8948 127.622 83.0904M145.439 56.3655C141.875 57.9987 133.234 62.7795 127.177 68.8371M157.019 81.3088C156.871 83.2389 157.019 87.0992 158.801 87.0992C160.583 87.0992 160.434 85.0206 160.137 83.9812C160.583 86.2083 162.186 90.6625 165.037 90.6625C167.888 90.6625 167.116 86.5053 166.373 84.4267C167.646 87.99 170.025 89.5935 170.382 87.0992M172.609 55.0292C174.539 56.9594 178.845 61.8886 180.626 66.1646M178.399 58.1471C180.207 60.2257 184.429 65.6301 186.862 70.6188M184.19 80.4179C185.526 82.9419 188.644 87.99 190.426 87.99C192.207 87.99 191.168 85.6144 190.426 84.4267C192.653 86.357 197.552 89.9504 199.334 88.8812C201.116 87.8119 200.67 86.3568 200.225 85.7629C202.006 86.9507 205.926 89.059 207.351 87.99C208.777 86.921 207.351 84.8721 206.461 83.9812C208.688 84.8721 213.053 86.2083 212.696 84.4267M199.334 93.335C200.67 94.9708 204.144 100.29 207.351 108.479M217.151 73.7367C221.308 78.1908 231.582 89.2372 239.421 97.7891M238.085 92.8896C238.976 93.9289 241.292 96.3638 243.43 97.7891M249.221 105.807C251.002 107.255 255.635 110.341 259.911 111.097M90.6525 108.479C92.8796 106.821 98.581 102.005 103.57 96.0075" stroke="black" stroke-linecap="round" stroke-linejoin="round"/>
<ellipse cx="19.2223" cy="5.28674" rx="19.2223" ry="5.28674" transform="matrix(-0.977824 0.209426 0.209426 0.977824 295.207 167.766)" fill="black" fill-opacity="0.2"/>
<path d="M300.059 165.954C300.013 162.075 297.63 153.614 288.461 150.807C279.292 148 270.942 151.015 267.913 152.874C266.472 154.479 263.991 159.366 265.599 166.075C267.128 172.45 271.563 175.055 276.408 174.539C293.059 176.277 299.113 169.54 300.059 165.954Z" fill="#B6B6B6"/>
<path d="M267.913 152.874C270.942 151.015 279.292 148 288.461 150.807C297.63 153.614 300.013 162.075 300.059 165.954C299.113 169.54 293.059 176.277 276.408 174.539M267.913 152.874C266.472 154.479 263.991 159.366 265.599 166.075C267.128 172.45 271.563 175.055 276.408 174.539M267.913 152.874C274.178 154.125 282.158 158.38 285.055 161.908C287.953 165.436 287.422 169.957 281.035 173.14C279.504 173.903 277.936 174.376 276.408 174.539" stroke="black" stroke-width="0.6" stroke-linecap="round" stroke-linejoin="round"/>
<path d="M267.914 152.874C266.473 154.479 263.993 159.366 265.601 166.074C267.129 172.449 271.564 175.055 276.41 174.538C293.061 176.277 299.115 169.54 300.06 165.954C297.156 166.403 290.423 166.981 286.723 165.699C286.613 164.382 286.027 163.089 285.057 161.907C282.159 158.379 274.179 154.124 267.914 152.874Z" fill="#7C7C7C"/>
<path d="M276.41 174.538C271.564 175.055 267.129 172.449 265.601 166.074C263.993 159.366 266.473 154.479 267.914 152.874C274.179 154.124 282.159 158.379 285.057 161.907C286.027 163.089 286.613 164.382 286.723 165.699M276.41 174.538C277.937 174.376 279.506 173.903 281.037 173.14C285.284 171.023 286.942 168.314 286.723 165.699M276.41 174.538C293.061 176.277 299.115 169.54 300.06 165.954C297.156 166.403 290.423 166.981 286.723 165.699" stroke="black" stroke-width="0.6" stroke-linecap="round" stroke-linejoin="round"/>
<path d="M265.6 166.074C263.992 159.365 266.472 154.478 267.913 152.873C274.179 154.124 282.158 158.379 285.056 161.907C287.953 165.435 287.422 169.956 281.036 173.139C279.505 173.902 277.936 174.375 276.409 174.538C271.563 175.054 267.128 172.449 265.6 166.074Z" fill="#818181" stroke="black" stroke-width="0.6" stroke-linecap="round" stroke-linejoin="round"/>
<path d="M268.469 163.535C273.105 163.579 273.758 169.23 273.506 172.05C273.842 173.62 272.764 177.187 265.761 178.894C258.758 180.601 258.115 173.531 258.669 169.782C260.004 167.681 263.833 163.491 268.469 163.535Z" fill="#999999" stroke="black" stroke-width="0.6" stroke-linecap="round" stroke-linejoin="round"/>
<path d="M268.469 163.535C273.105 163.579 273.758 169.23 273.506 172.05C271.088 173.432 264.737 174.913 258.669 169.782C260.004 167.681 263.833 163.491 268.469 163.535Z" fill="#B6B6B6" stroke="black" stroke-width="0.6" stroke-linecap="round" stroke-linejoin="round"/>
<defs>
<filter id="filter0_i_30956_3399" x="123.132" y="135.692" width="49.1045" height="39.3057" filterUnits="userSpaceOnUse" color-interpolation-filters="sRGB">
<feFlood flood-opacity="0" result="BackgroundImageFix"/>
<feBlend mode="normal" in="SourceGraphic" in2="BackgroundImageFix" result="shape"/>
<feColorMatrix in="SourceAlpha" type="matrix" values="0 0 0 0 0 0 0 0 0 0 0 0 0 0 0 0 0 0 127 0" result="hardAlpha"/>
<feOffset dx="12" dy="17"/>
<feComposite in2="hardAlpha" operator="arithmetic" k2="-1" k3="1"/>
<feColorMatrix type="matrix" values="0 0 0 0 0 0 0 0 0 0 0 0 0 0 0 0 0 0 0.25 0"/>
<feBlend mode="normal" in2="shape" result="effect1_innerShadow_30956_3399"/>
</filter>
</defs>
</svg>
