<svg width="327" height="226" viewBox="0 0 327 226" fill="none" xmlns="http://www.w3.org/2000/svg">
<path d="M322.763 181.248C324.394 181.848 325.421 182.476 325.961 183.091C326.225 183.391 326.362 183.675 326.409 183.943C326.456 184.209 326.422 184.496 326.285 184.815C326.002 185.474 325.293 186.233 324.084 187.069C322.888 187.896 321.259 188.761 319.219 189.651C311.053 193.214 296.578 197.075 278.007 200.639C240.884 207.761 187.541 213.668 135.935 213.668C84.3138 213.668 41.8981 208.34 18.922 200.557C13.1798 198.611 8.68023 196.522 5.56038 194.342C2.42691 192.152 0.772302 189.934 0.531098 187.754C0.29262 185.599 1.41876 183.287 4.32569 180.853C7.22924 178.422 11.8309 175.941 18.3264 173.467C44.7945 163.387 60.984 154.376 74.0293 147.116C78.0056 144.903 81.6899 142.853 85.284 140.984C100.634 133.003 114.414 128.29 142.584 128.29C194.179 128.29 218.944 134.081 240.915 143.568C248.775 146.961 256.274 150.826 264.527 155.079C267.834 156.783 271.261 158.549 274.882 160.373C287.53 166.743 302.49 173.789 322.763 181.248Z" fill="#FFF5A9" stroke="black"/>
<path d="M170.648 186.5C147.648 161.5 114.648 151.5 103.148 149C107.948 137.8 129.148 137 137.648 137C157.248 144.2 193.982 168.334 210.648 180.5L170.648 186.5Z" fill="black" fill-opacity="0.2"/>
<path d="M208.123 175.925C207.826 172.648 209.105 165.304 216.597 162.143C224.089 158.983 231.394 160.805 234.11 162.111C235.465 163.34 237.98 167.249 237.203 173.047C236.465 178.557 232.949 181.138 228.817 181.122C214.92 184.028 209.231 178.868 208.123 175.925Z" fill="#D9D9D9"/>
<path d="M234.11 162.111C231.394 160.805 224.089 158.983 216.597 162.143C209.105 165.304 207.826 172.648 208.123 175.925C209.231 178.868 214.92 184.028 228.817 181.122M234.11 162.111C235.465 163.34 237.98 167.249 237.203 173.047C236.465 178.557 232.949 181.138 228.817 181.122M234.11 162.111C228.933 163.708 222.569 167.987 220.43 171.214C218.291 174.441 219.13 178.209 224.793 180.342C226.15 180.853 227.514 181.117 228.817 181.122" stroke="black" stroke-linecap="round" stroke-linejoin="round"/>
<path d="M234.11 162.111C235.464 163.341 237.979 167.249 237.203 173.047C236.465 178.558 232.948 181.139 228.816 181.122C214.92 184.028 209.23 178.868 208.122 175.925C210.611 176.053 216.341 175.958 219.352 174.557C219.33 173.436 219.713 172.295 220.429 171.214C222.569 167.987 228.933 163.708 234.11 162.111Z" fill="#676767"/>
<path d="M228.816 181.122C232.948 181.139 236.465 178.558 237.203 173.047C237.979 167.249 235.464 163.341 234.11 162.111C228.933 163.708 222.569 167.987 220.429 171.214C219.713 172.295 219.33 173.436 219.352 174.557M228.816 181.122C227.513 181.117 226.149 180.854 224.792 180.342C221.026 178.924 219.393 176.782 219.352 174.557M228.816 181.122C214.92 184.028 209.23 178.868 208.122 175.925C210.611 176.053 216.341 175.958 219.352 174.557" stroke="black" stroke-linecap="round" stroke-linejoin="round"/>
<path d="M237.204 173.047C237.98 167.249 235.465 163.341 234.111 162.111C228.933 163.708 222.569 167.987 220.43 171.214C218.291 174.441 219.13 178.21 224.793 180.342C226.15 180.854 227.514 181.117 228.817 181.122C232.949 181.139 236.466 178.558 237.204 173.047Z" fill="#999999" stroke="black" stroke-linecap="round" stroke-linejoin="round"/>
<ellipse cx="35.4333" cy="9.44889" rx="35.4333" ry="9.44889" transform="matrix(-0.994082 -0.108633 -0.108633 0.994082 229.156 181.568)" fill="black" fill-opacity="0.2"/>
<path d="M136.538 136.278L137.589 126.665C129.639 112.597 120.895 109.579 113.119 116.566C106.259 122.731 104.705 137.507 104.538 145.326L109.199 144.185L109.957 137.256C114.03 134.769 125.722 133.342 131.488 133.422L130.996 137.923L136.538 136.278Z" fill="#553322" stroke="black" stroke-linecap="round" stroke-linejoin="round"/>
<path d="M211.336 182.773L217.167 186.912C207.884 135.313 171.866 109.198 168.416 108.432C165.655 107.819 165.545 109.545 165.835 110.484C197.134 131.648 209.21 167.495 211.336 182.773Z" fill="#DDAA44" stroke="black" stroke-linecap="round" stroke-linejoin="round"/>
<path d="M169.939 189.184C187.613 187.485 205.125 182.992 211.672 180.958C211.942 178.484 211.38 175.114 210.508 171.756C209.426 167.589 207.869 163.44 206.837 161.044C194.92 161.391 174.38 166.158 165.6 168.499L168.877 184.118L169.939 189.184Z" fill="#C09344"/>
<path d="M210.508 171.756C209.426 167.589 207.869 163.44 206.837 161.044C194.92 161.391 174.38 166.158 165.6 168.499L168.877 184.118M210.508 171.756C211.38 175.114 211.942 178.484 211.672 180.958C205.125 182.992 187.613 187.485 169.939 189.184L168.877 184.118M210.508 171.756L197.259 173.196M168.877 184.118L180.071 183.279" stroke="black" stroke-linecap="round" stroke-linejoin="round"/>
<path d="M206.838 161.043C194.921 161.391 174.381 166.158 165.601 168.498L164.432 160.327L163.263 152.157C189.486 150.733 198.028 147.294 199.022 145.753L206.838 161.043Z" fill="#C09344"/>
<path d="M164.432 160.327L163.263 152.157C189.486 150.733 198.028 147.294 199.022 145.753L206.838 161.043C194.921 161.391 174.381 166.158 165.601 168.498L164.432 160.327ZM164.432 160.327C169.751 159.465 181.067 157.567 183.783 156.874" stroke="black" stroke-linecap="round" stroke-linejoin="round"/>
<path d="M163.263 152.157C189.486 150.733 198.028 147.295 199.022 145.754L191.576 134.628C189.024 134.074 181.666 133.215 172.648 134.21C163.63 135.204 158.031 138.387 156.358 139.854L158.331 143.369L163.263 152.157Z" fill="#C09344"/>
<path d="M158.331 143.369L156.358 139.854C158.031 138.387 163.63 135.204 172.648 134.21C181.666 133.215 189.024 134.074 191.576 134.628L199.022 145.754C198.028 147.295 189.486 150.733 163.263 152.157L158.331 143.369ZM158.331 143.369C163.137 142.519 173.584 140.746 176.916 140.45" stroke="black" stroke-linecap="round" stroke-linejoin="round"/>
<path d="M172.648 134.209C181.666 133.214 189.024 134.073 191.575 134.627L181.002 121.923C178.752 121.127 172.259 119.647 164.291 120.096C156.323 120.545 149.928 123.201 147.727 124.473L150.933 130.186L156.358 139.853C158.03 138.386 163.63 135.203 172.648 134.209Z" fill="#C09344"/>
<path d="M150.933 130.186L147.727 124.473C149.928 123.201 156.323 120.545 164.291 120.096C172.259 119.647 178.752 121.127 181.002 121.923L191.575 134.627C189.024 134.073 181.666 133.214 172.648 134.209C163.63 135.203 158.03 138.386 156.358 139.853L150.933 130.186ZM150.933 130.186C154.696 129.359 164.051 127.577 171.367 127.056" stroke="black" stroke-linecap="round" stroke-linejoin="round"/>
<path d="M164.292 120.096C172.26 119.647 178.753 121.127 181.004 121.923L176.425 118.525L165.361 110.314C160.243 109.342 147.635 107.964 138.148 110.227L140.244 113.344L147.728 124.473C149.929 123.201 156.324 120.545 164.292 120.096Z" fill="#C09344"/>
<path d="M176.425 118.525L181.004 121.923C178.753 121.127 172.26 119.647 164.292 120.096C156.324 120.545 149.929 123.201 147.728 124.473L140.244 113.344M176.425 118.525L165.361 110.314C160.243 109.342 147.635 107.964 138.148 110.227L140.244 113.344M176.425 118.525C174.81 118.208 170.918 117.585 168.273 117.634M140.244 113.344C143.485 112.735 151.354 111.671 156.897 112.276" stroke="black" stroke-linecap="round" stroke-linejoin="round"/>
<path d="M217.47 186.946C208.207 135.144 172.191 108.939 168.74 108.171C170.09 107.797 173.687 107.461 177.278 109.104C181.766 111.157 195.628 120.876 210.949 145.992C223.205 166.085 226.117 179.686 226.041 183.976L217.47 186.946Z" fill="#825A11" stroke="black" stroke-linecap="round" stroke-linejoin="round"/>
<path d="M136.906 125.352C150.746 146.663 154.981 180.123 155.369 194.189C157.947 197.77 160.405 199.689 161.311 200.2C160.384 163.39 142.962 119.002 125.288 110.884C107.615 102.766 100.969 133.387 100.619 140.36C100.402 144.685 103.215 145.543 104.633 145.148L105.949 133.106C107.241 121.286 119.606 98.7141 136.906 125.352Z" fill="#DDAA44" stroke="black" stroke-linecap="round" stroke-linejoin="round"/>
<path d="M161.402 199.385C159.386 161.218 142.964 119.002 125.29 110.883C122.613 109.654 120.189 109.313 118.001 109.644C119.584 109.002 124.071 107.698 129.359 107.616C135.97 107.513 144.81 113.429 157.989 140.029C171.168 166.63 174.037 200.765 172.407 200.587C172.407 200.587 167.338 201.683 161.402 199.385Z" fill="#825A11" stroke="black" stroke-linecap="round" stroke-linejoin="round"/>
<ellipse cx="26.9293" cy="6.61423" rx="26.9293" ry="6.61423" transform="matrix(-0.999718 0.0237322 0.0237322 0.999718 191.21 198.841)" fill="black" fill-opacity="0.25"/>
<path d="M134.407 201.467C138.038 207.131 143.977 205.766 146.493 204.375C147.525 205.681 151.927 207.813 161.276 205.888C170.625 203.962 173.34 196.373 173.529 192.819C175.052 191.807 177.682 188.301 176.012 182.378C174.342 176.454 167.547 174.77 164.359 174.668C164.844 172.083 163.409 166.864 153.791 166.666C144.173 166.469 141.59 174.232 141.5 178.139C140.944 177.708 138.822 178.042 134.784 182.824C130.746 187.605 133.258 191.379 135.018 192.668C133.302 193.241 130.777 195.803 134.407 201.467Z" fill="#66CC9A"/>
<path d="M167.797 192.955L165.987 197.257M148.874 201.124L153.241 201.02M160.828 186.998C160.489 188.07 159.431 190.278 157.908 190.528M140.63 187.477C141.163 186.932 142.619 186.152 144.178 187.393M145.906 179.632C146.545 179.705 147.939 180.169 148.406 181.436M154.755 172.766C155.316 173.374 156.444 174.91 156.475 176.186M170.845 183.299C171.488 183.55 172.726 184.319 172.533 185.389M146.493 204.375C143.977 205.766 138.038 207.131 134.407 201.467C130.777 195.803 133.302 193.241 135.018 192.668C133.258 191.379 130.746 187.605 134.784 182.824C138.822 178.042 140.944 177.708 141.5 178.139C141.59 174.232 144.173 166.469 153.791 166.666C163.409 166.864 164.844 172.083 164.359 174.668C167.547 174.77 174.342 176.454 176.012 182.378C177.682 188.301 175.052 191.807 173.529 192.819C173.34 196.373 170.625 203.962 161.276 205.888C151.927 207.813 147.525 205.681 146.493 204.375Z" stroke="black" stroke-linecap="round"/>
<path d="M189.119 196.172C184.307 206.061 173.738 203.622 168.918 200.789C161.538 198.528 162.694 193.072 164.331 191.004C164.271 188.804 165.504 183.706 170.916 180.916C176.329 178.125 180.679 181.75 182.178 183.911C186.497 183.878 193.931 186.284 189.119 196.172Z" fill="#65C33E"/>
<path d="M173.834 185.409C173.85 186.002 173.888 187.39 173.91 188.202M178.446 186.808L178 189.107M182.866 190.499C182.8 191.178 182.416 192.645 181.412 193.079M168.918 200.789C173.738 203.622 184.307 206.061 189.119 196.172C193.931 186.284 186.497 183.878 182.178 183.911C180.679 181.75 176.329 178.125 170.916 180.916C165.504 183.706 164.271 188.804 164.331 191.004C162.694 193.072 161.538 198.528 168.918 200.789Z" stroke="black" stroke-linecap="round"/>
<ellipse cx="22.2049" cy="6.14178" rx="22.2049" ry="6.14178" transform="matrix(-0.994082 -0.108633 -0.108633 0.994082 265.919 184.385)" fill="black" fill-opacity="0.2"/>
<path d="M254.756 185.526C255.686 182.605 256.001 175.665 249.819 171.281C243.638 166.897 236.625 167.084 233.89 167.726C232.41 168.572 229.335 171.622 228.875 177.054C228.437 182.217 231.117 185.274 234.881 186.09C246.94 191.532 253.156 187.982 254.756 185.526Z" fill="#B6B6B6"/>
<path d="M233.89 167.726C236.625 167.084 243.638 166.897 249.819 171.281C256.001 175.665 255.686 182.605 254.756 185.526C253.156 187.982 246.94 191.532 234.881 186.09M233.89 167.726C232.41 168.572 229.335 171.622 228.875 177.054C228.437 182.217 231.117 185.274 234.881 186.09M233.89 167.726C238.28 170.221 243.209 175.396 244.506 178.763C245.803 182.129 244.282 185.39 238.699 186.191C237.361 186.382 236.067 186.348 234.881 186.09" stroke="black" stroke-linecap="round" stroke-linejoin="round"/>
<path d="M233.891 167.726C232.411 168.572 229.336 171.622 228.876 177.054C228.438 182.217 231.118 185.273 234.882 186.09C246.942 191.532 253.157 187.982 254.758 185.526C252.467 185.142 247.272 183.902 244.815 182.021C245.06 181.006 244.942 179.89 244.507 178.763C243.21 175.396 238.281 170.221 233.891 167.726Z" fill="#7C7C7C"/>
<path d="M234.882 186.09C231.118 185.273 228.438 182.217 228.876 177.054C229.336 171.622 232.411 168.572 233.891 167.726C238.281 170.221 243.21 175.396 244.507 178.763C244.942 179.89 245.06 181.006 244.815 182.021M234.882 186.09C236.068 186.348 237.362 186.382 238.7 186.19C242.413 185.658 244.33 184.037 244.815 182.021M234.882 186.09C246.942 191.532 253.157 187.982 254.758 185.526C252.467 185.142 247.272 183.902 244.815 182.021" stroke="black" stroke-linecap="round" stroke-linejoin="round"/>
<path d="M228.875 177.055C229.335 171.623 232.41 168.573 233.89 167.727C238.28 170.222 243.209 175.397 244.506 178.763C245.803 182.13 244.281 185.39 238.699 186.191C237.361 186.383 236.067 186.348 234.88 186.091C231.117 185.274 228.437 182.218 228.875 177.055Z" fill="#818181" stroke="black" stroke-linecap="round" stroke-linejoin="round"/>
<path d="M231.656 175.861C235.123 177.046 234.209 181.448 233.319 183.5C233.181 184.762 231.486 187.17 225.808 186.711C220.131 186.251 221.405 180.787 222.752 178.113C224.275 176.868 228.189 174.676 231.656 175.861Z" fill="#999999" stroke="black" stroke-linecap="round" stroke-linejoin="round"/>
<path d="M231.656 175.861C235.123 177.046 234.209 181.448 233.319 183.5C231.162 183.937 226.029 183.47 222.752 178.113C224.275 176.868 228.189 174.676 231.656 175.861Z" fill="#B6B6B6" stroke="black" stroke-linecap="round" stroke-linejoin="round"/>
<path d="M78.4225 148.541C84.7364 155.639 91.754 150.939 94.4736 147.702C94.4158 137.158 95.2603 127.027 96.6722 117.564C96.8603 116.303 97.0584 115.055 97.2658 113.818C98.2431 107.993 99.4265 102.443 100.733 97.2326C101.19 95.4118 101.661 93.6323 102.144 91.897C106.626 75.8005 112.097 63.4994 115.739 57.1393C101.551 67.4085 92.3768 84.7681 86.6722 102.301C83.8033 111.118 81.8119 119.979 80.5017 128.004C80.2056 129.818 79.9443 131.589 79.7155 133.307C78.9412 139.122 78.5395 144.331 78.4225 148.541Z" fill="#825A11"/>
<path d="M79.7155 133.307C78.9412 139.122 78.5395 144.331 78.4225 148.541C84.7364 155.639 91.754 150.939 94.4736 147.702C94.4158 137.158 95.2603 127.027 96.6722 117.564M79.7155 133.307C81.5334 134.037 86.0334 135.453 89.4905 135.272M79.7155 133.307C79.9443 131.589 80.2056 129.818 80.5017 128.004M80.5017 128.004C81.3326 128.477 83.6149 129.451 86.0972 129.569M80.5017 128.004C81.8119 119.979 83.8033 111.118 86.6722 102.301M96.6722 117.564C94.3833 117.58 89.5423 117.317 88.49 116.134M96.6722 117.564C96.8603 116.303 97.0584 115.055 97.2658 113.818M97.2658 113.818C96.2632 113.871 93.8779 113.81 92.3575 113.146M97.2658 113.818C98.2431 107.993 99.4265 102.443 100.733 97.2326M86.6722 102.301C92.3768 84.7681 101.551 67.4085 115.739 57.1393C112.097 63.4994 106.626 75.8005 102.144 91.897M86.6722 102.301C88.0207 102.85 91.3225 103.977 93.7416 104.098M100.733 97.2326C99.5438 97.0884 96.9983 96.6231 96.3298 95.9152M100.733 97.2326C101.19 95.4118 101.661 93.6323 102.144 91.897M102.144 91.897C100.366 91.2678 96.64 89.7705 95.9586 88.8157" stroke="black"/>
<path d="M168.595 32.0914C134.992 5.06282 116.384 37.9161 114.552 58.1306C122.977 48.7762 132.905 42.1079 136.815 39.943C137.011 38.9424 135.75 37.3163 135.095 36.6283C136.082 36.5767 139.264 37.442 140.731 37.8812C144.085 35.7249 149.809 33.8988 152.251 33.2552L151.521 31.1268C152.522 31.3221 154.266 32.3246 155.013 32.8015C158.679 31.8671 165.595 31.9388 168.595 32.0914Z" fill="#4DA058" stroke="black"/>
<path d="M173.12 71.1517C163.447 29.1262 128.501 43.4206 114.554 58.1667C126.96 56.0315 138.885 56.936 143.297 57.6552C144.069 56.9899 144.085 54.9321 143.996 53.9864C144.804 54.557 146.768 57.2056 147.649 58.4586C151.618 58.84 157.244 60.947 159.561 61.9528L160.304 59.8289C160.969 60.6015 161.719 62.4685 162.011 63.3054C165.469 64.8395 170.858 69.1755 173.12 71.1517Z" fill="#4DA058"/>
<path d="M114.554 58.1667C128.501 43.4206 163.447 29.1262 173.12 71.1517C170.858 69.1755 165.469 64.8395 162.011 63.3054C161.719 62.4685 160.969 60.6015 160.304 59.8289L159.561 61.9528C157.244 60.947 151.618 58.84 147.649 58.4586C146.768 57.2056 144.804 54.557 143.996 53.9864C144.085 54.9321 144.069 56.9899 143.297 57.6552C138.885 56.936 126.96 56.0315 114.554 58.1667ZM114.554 58.1667C123.931 51.9042 146.139 42.1338 159.955 53.152" stroke="black"/>
<path d="M63.1338 26.8969C99.2434 3.32145 114.513 37.8529 114.338 58.1494C106.879 48.0081 97.6592 40.3914 93.9817 37.8507C93.8863 36.8356 95.302 35.3421 96.0218 34.7223C95.044 34.5733 91.7923 35.12 90.2887 35.412C87.1644 32.9348 81.6494 30.552 79.2824 29.6702L80.2195 27.6243C79.2044 27.7198 77.3695 28.545 76.5788 28.9457C73.0237 27.6537 66.1342 27.0415 63.1338 26.8969Z" fill="#4DA058"/>
<path d="M114.338 58.1494C114.513 37.8529 99.2434 3.32145 63.1338 26.8969C66.1342 27.0415 73.0237 27.6537 76.5788 28.9457C77.3695 28.545 79.2044 27.7198 80.2195 27.6243L79.2824 29.6702C81.6494 30.552 87.1644 32.9348 90.2887 35.412C91.7923 35.12 95.044 34.5733 96.0218 34.7223C95.302 35.3421 93.8863 36.8356 93.9817 37.8507C97.6592 40.3914 106.879 48.0081 114.338 58.1494ZM114.338 58.1494C111.924 47.1348 102.696 24.6954 85.1007 23.0552" stroke="black"/>
<path d="M74.3729 65.8013C81.8674 37.2793 105.454 47.7842 114.677 58.1565C106.242 56.4364 98.0718 56.804 95.0413 57.2029C94.5272 56.7319 94.5598 55.3251 94.6404 54.6805C94.0762 55.0536 92.6782 56.8227 92.0497 57.6606C89.3288 57.8379 85.439 59.1598 83.8341 59.7986L83.3707 58.3313C82.8997 58.8454 82.3479 60.1058 82.1308 60.6717C79.7353 61.6476 75.9607 64.4981 74.3729 65.8013Z" fill="#348A62"/>
<path d="M114.677 58.1565C105.454 47.7842 81.8674 37.2793 74.3729 65.8013C75.9607 64.4981 79.7353 61.6476 82.1308 60.6717C82.3479 60.1058 82.8997 58.8454 83.3707 58.3313L83.8341 59.7986C85.439 59.1598 89.3288 57.8379 92.0497 57.6606C92.6782 56.8227 94.0762 55.0536 94.6404 54.6805C94.5598 55.3251 94.5272 56.7319 95.0413 57.2029C98.0718 56.804 106.242 56.4364 114.677 58.1565ZM114.677 58.1565C108.399 53.679 93.4243 46.534 83.7496 53.7749" stroke="black"/>
<circle cx="118.319" cy="65.0527" r="7.72741" transform="rotate(-2.99269 118.319 65.0527)" fill="#9D7939" stroke="black"/>
<circle cx="106.786" cy="57.6074" r="7.72741" transform="rotate(-2.99269 106.786 57.6074)" fill="#9D7939" stroke="black"/>
<path d="M142.204 88.4791C153.327 61.1669 128.157 55.4143 114.554 58.1755C122.334 61.8621 128.648 67.0593 130.832 69.1971C131.526 69.129 132.345 67.984 132.667 67.4201C132.894 68.0571 132.951 70.3112 132.951 71.3586C135.021 73.1334 137.339 76.5253 138.239 77.9994L139.49 77.1038C139.559 77.7977 139.244 79.1371 139.078 79.72C140.408 81.9383 141.717 86.4837 142.204 88.4791Z" fill="#348A62"/>
<path d="M114.554 58.1755C128.157 55.4143 153.327 61.1669 142.204 88.4791C141.717 86.4837 140.408 81.9383 139.078 79.72C139.244 79.1371 139.559 77.7977 139.49 77.1038L138.239 77.9994C137.339 76.5253 135.021 73.1334 132.951 71.3586C132.951 70.3112 132.894 68.0571 132.667 67.4201C132.345 67.984 131.526 69.129 130.832 69.1971C128.648 67.0593 122.334 61.8621 114.554 58.1755ZM114.554 58.1755C122.263 58.3617 138.529 61.6336 141.922 73.2318" stroke="black"/>
<circle cx="121.442" cy="53.7461" r="7.72741" transform="rotate(-2.99269 121.442 53.7461)" fill="#9D7939" stroke="black"/>
<ellipse cx="15.191" cy="4.17802" rx="15.191" ry="4.17802" transform="matrix(-0.98152 0.191359 0.191359 0.98152 104.253 149.382)" fill="black" fill-opacity="0.2"/>
<path d="M108.114 148.02C108.135 144.954 106.375 138.234 99.1707 135.882C91.9667 133.53 85.3248 135.792 82.9044 137.216C81.7423 138.463 79.7112 142.289 80.8841 147.613C81.9987 152.673 85.4653 154.796 89.3015 154.458C102.433 156.075 107.315 150.839 108.114 148.02Z" fill="#B6B6B6"/>
<path d="M82.9044 137.216C85.3248 135.792 91.9667 133.53 99.1707 135.882C106.375 138.234 108.135 144.954 108.114 148.02C107.315 150.839 102.433 156.075 89.3015 154.458M82.9044 137.216C81.7423 138.463 79.7112 142.289 80.8841 147.613C81.9987 152.673 85.4653 154.796 89.3015 154.458M82.9044 137.216C87.8368 138.296 94.0799 141.774 96.318 144.604C98.5561 147.434 98.0706 150.999 92.9778 153.421C91.757 154.001 90.5109 154.352 89.3015 154.458" stroke="black" stroke-linecap="round" stroke-linejoin="round"/>
<path d="M82.9058 137.216C81.7437 138.464 79.7126 142.289 80.8855 147.613C82.0002 152.673 85.4668 154.796 89.3029 154.459C102.434 156.075 107.316 150.84 108.115 148.02C105.814 148.333 100.486 148.691 97.5809 147.624C97.5131 146.582 97.069 145.552 96.3194 144.604C94.0813 141.774 87.8382 138.296 82.9058 137.216Z" fill="#7C7C7C"/>
<path d="M89.3029 154.459C85.4668 154.796 82.0002 152.673 80.8855 147.613C79.7126 142.289 81.7437 138.464 82.9058 137.216C87.8382 138.296 94.0813 141.774 96.3194 144.604C97.069 145.552 97.5131 146.582 97.5809 147.624M89.3029 154.459C90.5123 154.352 91.7585 154.001 92.9792 153.421C96.3663 151.81 97.7155 149.694 97.5809 147.624M89.3029 154.459C102.434 156.075 107.316 150.84 108.115 148.02C105.814 148.333 100.486 148.691 97.5809 147.624" stroke="black" stroke-linecap="round" stroke-linejoin="round"/>
<path d="M80.8846 147.614C79.7117 142.29 81.7428 138.464 82.9049 137.217C87.8373 138.297 94.0804 141.775 96.3185 144.605C98.5566 147.435 98.0712 151 92.9783 153.422C91.7576 154.002 90.5114 154.353 89.302 154.459C85.4659 154.797 81.9993 152.674 80.8846 147.614Z" fill="#818181" stroke="black" stroke-linecap="round" stroke-linejoin="round"/>
<path d="M83.1873 145.648C86.8499 145.75 87.2838 150.225 87.0429 152.449C87.2857 153.695 86.3819 156.497 80.8239 157.744C75.2659 158.991 74.8606 153.395 75.3528 150.441C76.4382 148.801 79.5248 145.545 83.1873 145.648Z" fill="#999999" stroke="black" stroke-linecap="round" stroke-linejoin="round"/>
<path d="M83.1873 145.648C86.8499 145.75 87.2838 150.225 87.0429 152.449C85.1129 153.506 80.0728 154.584 75.3528 150.441C76.4382 148.801 79.5248 145.545 83.1873 145.648Z" fill="#B6B6B6" stroke="black" stroke-linecap="round" stroke-linejoin="round"/>
</svg>
