<svg width="354" height="220" viewBox="0 0 354 220" fill="none" xmlns="http://www.w3.org/2000/svg">
<path d="M155.831 197.371L155.821 197.371L155.812 197.37C141.14 197.086 127.091 196.88 113.86 196.685C82.4259 196.224 55.6111 195.83 36.0384 194.621C22.1165 193.762 11.9308 192.493 6.35679 190.522C4.96843 190.031 3.89267 189.505 3.12396 188.948C2.35448 188.391 1.92769 187.829 1.76723 187.272C1.61019 186.728 1.68514 186.108 2.08573 185.377C2.49134 184.636 3.21938 183.805 4.32146 182.883C8.60609 179.299 16.8327 174.48 27.6459 169.277C38.4471 164.08 51.7942 158.517 66.2934 153.438C95.3042 143.277 128.873 135.076 155.872 135.599C205.362 136.558 228.454 140.577 248.96 147.768C257.575 150.789 265.737 154.37 275.223 158.533C277.04 159.331 278.907 160.15 280.834 160.99C292.815 166.215 307.131 172.257 326.753 179.131C335.385 182.155 342.006 185.463 346.232 188.828C350.479 192.21 352.168 195.525 351.34 198.6C350.496 201.733 346.985 204.902 340.063 207.805C333.177 210.693 323.059 213.259 309.271 215.28C289.993 218.106 270.836 218.095 258.611 215.624C255.557 215.006 252.952 214.239 250.892 213.332C248.825 212.421 247.349 211.389 246.504 210.266C245.678 209.17 245.441 207.973 245.869 206.633C246.308 205.258 247.461 203.691 249.52 201.945C250.379 201.216 250.957 200.514 251.18 199.825C251.295 199.47 251.317 199.114 251.227 198.768C251.138 198.425 250.947 198.126 250.691 197.868C250.19 197.366 249.401 196.988 248.433 196.689C247.452 196.386 246.229 196.148 244.806 195.963C239.126 195.224 229.987 195.295 219.478 195.659C213.533 195.865 207.144 196.166 200.677 196.47C184.227 197.243 167.272 198.04 155.831 197.371Z" fill="#FFF5A9" stroke="black"/>
<ellipse cx="117.63" cy="18.4393" rx="117.63" ry="18.4393" transform="matrix(-1 0 0 1 277.869 150.364)" fill="black" fill-opacity="0.2"/>
<path d="M99.2152 167.276C108.909 169.99 112.475 161.782 113.047 157.338C106.959 147.97 101.912 138.453 97.7533 129.206C97.1993 127.975 96.6612 126.748 96.1384 125.527C93.6746 119.773 91.5526 114.147 89.7346 108.753C89.0992 106.868 88.501 105.011 87.9384 103.187C82.719 86.2686 80.5555 72.1676 80.1611 64.4118C73.3897 81.6909 75.1477 102.422 80.0986 121.322C82.5884 130.826 85.8856 139.867 89.3117 147.773C90.086 149.56 90.867 151.289 91.6466 152.952C94.2851 158.58 96.9092 163.455 99.2152 167.276Z" fill="#825A11"/>
<path d="M91.6466 152.952C94.2851 158.58 96.9092 163.455 99.2152 167.276C108.909 169.99 112.475 161.782 113.047 157.338C106.959 147.97 101.912 138.453 97.7533 129.206M91.6466 152.952C93.6857 152.562 98.5086 151.248 101.488 149.108M91.6466 152.952C90.867 151.289 90.086 149.56 89.3117 147.773M89.3117 147.773C90.323 147.719 92.9159 147.281 95.1967 145.965M89.3117 147.773C85.8856 139.867 82.5884 130.826 80.0986 121.322M97.7533 129.206C95.7217 130.531 91.2547 133.068 89.6391 132.616M97.7533 129.206C97.1993 127.975 96.6612 126.748 96.1384 125.527M96.1384 125.527C95.2744 126.147 93.1126 127.459 91.3771 127.738M96.1384 125.527C93.6746 119.773 91.5526 114.147 89.7346 108.753M80.0986 121.322C75.1477 102.422 73.3897 81.6909 80.1611 64.4118C80.5555 72.1676 82.719 86.2686 87.9384 103.187M80.0986 121.322C81.6151 121.039 85.2046 120.154 87.431 118.877M89.7346 108.753C88.5917 109.305 86.0555 110.347 85.0542 110.099M89.7346 108.753C89.0992 106.868 88.501 105.011 87.9384 103.187M87.9384 103.187C85.9927 103.644 81.8129 104.442 80.6587 103.981" stroke="black"/>
<path d="M112.952 11.8144C67.5151 6.9516 69.732 46.8988 79.6713 65.9724C81.8282 52.8079 86.8626 41.1785 89.1101 37.0093C88.7114 36.0053 86.6559 35.2773 85.678 35.0389C86.5292 34.4273 89.8616 33.3775 91.4215 32.929C93.1776 29.0862 97.2355 24.1811 99.045 22.2089L97.1753 20.7292C98.1793 20.3304 100.309 20.2257 101.248 20.2231C103.981 17.2916 110.189 13.3958 112.952 11.8144Z" fill="#4DA058" stroke="black"/>
<path d="M139.35 44.0557C106.666 12.1202 83.6889 44.8731 79.6945 66.0068C89.5348 56.9999 100.686 50.9795 105.031 49.0951C105.339 48.0596 104.175 46.2158 103.554 45.4234C104.601 45.4697 107.869 46.707 109.372 47.3199C113.129 45.3878 119.352 44.0455 121.994 43.6159L121.441 41.2965C122.476 41.6046 124.214 42.8399 124.953 43.4191C128.914 42.8076 136.202 43.5887 139.35 44.0557Z" fill="#4DA058"/>
<path d="M79.6945 66.0068C83.6889 44.8731 106.666 12.1202 139.35 44.0557C136.202 43.5887 128.914 42.8076 124.953 43.4191C124.214 42.8399 122.476 41.6046 121.441 41.2965L121.994 43.6159C119.352 44.0455 113.129 45.3878 109.372 47.3199C107.869 46.707 104.601 45.4697 103.554 45.4234C104.175 46.2158 105.339 48.0596 105.031 49.0951C100.686 50.9795 89.5348 56.9999 79.6945 66.0068ZM79.6945 66.0068C84.4707 55.0541 98.6799 33.6276 117.307 35.5428" stroke="black"/>
<path d="M15.9415 67.5599C34.6424 25.8655 68.0273 47.9143 79.4914 66.1121C67.0342 61.34 54.4525 59.8267 49.7189 59.6666C49.0526 58.8161 49.4599 56.6739 49.7469 55.7091C48.7897 56.1361 46.2033 58.4851 45.0297 59.6063C40.8256 59.1862 34.5439 60.2188 31.9285 60.7876L31.5928 58.4269C30.7424 59.0932 29.5786 60.8796 29.103 61.6895C25.1934 62.5727 18.6997 65.9711 15.9415 67.5599Z" fill="#4DA058"/>
<path d="M79.4914 66.1121C68.0273 47.9143 34.6424 25.8655 15.9415 67.5599C18.6997 65.9711 25.1934 62.5727 29.103 61.6895C29.5786 60.8796 30.7424 59.0932 31.5928 58.4269L31.9285 60.7876C34.5439 60.2188 40.8256 59.1862 45.0297 59.6063C46.2033 58.4851 48.7897 56.1361 49.7469 55.7091C49.4599 56.6739 49.0526 58.8161 49.7189 59.6666C54.4525 59.8267 67.0342 61.34 79.4914 66.1121ZM79.4914 66.1121C71.0324 57.6731 49.9573 42.9476 33.3294 51.5583" stroke="black"/>
<path d="M48.2366 95.8156C38.5903 66.0927 65.6354 61.9564 79.798 65.9247C71.2915 69.2201 64.2172 74.2252 61.7434 76.3158C61.0153 76.1903 60.239 74.9171 59.9419 74.2962C59.6524 74.9519 59.4186 77.3297 59.3379 78.4367C57.0133 80.1525 54.3016 83.5582 53.2364 85.0465L51.983 84.0035C51.8574 84.7315 52.0869 86.1713 52.2173 86.8002C50.64 89.0418 48.9063 93.7444 48.2366 95.8156Z" fill="#348A62"/>
<path d="M79.798 65.9247C65.6354 61.9564 38.5903 66.0927 48.2366 95.8156C48.9063 93.7444 50.64 89.0418 52.2173 86.8002C52.0869 86.1713 51.8574 84.7315 51.983 84.0035L53.2364 85.0465C54.3016 83.5582 57.0133 80.1525 59.3379 78.4367C59.4186 77.3297 59.6524 74.9519 59.9419 74.2962C60.239 74.9171 61.0153 76.1903 61.7434 76.3158C64.2172 74.2252 71.2915 69.2201 79.798 65.9247ZM79.798 65.9247C71.6366 65.5263 54.1936 67.7284 49.7123 79.7237" stroke="black"/>
<circle cx="86.9921" cy="69.9885" r="8.18828" transform="rotate(-35.6954 86.9921 69.9885)" fill="#9D7939" stroke="black"/>
<circle cx="72.4481" cy="69.9533" r="8.18828" transform="rotate(-35.6954 72.4481 69.9533)" fill="#9D7939" stroke="black"/>
<path d="M121.704 77.2037C115.985 46.4824 90.2479 55.7633 79.6995 66.013C88.7471 64.8463 97.3528 65.8656 100.525 66.521C101.104 66.063 101.178 64.5737 101.143 63.8863C101.71 64.3241 103.051 66.3017 103.651 67.2357C106.513 67.6331 110.522 69.3305 112.168 70.1295L112.771 68.6145C113.229 69.1942 113.715 70.5688 113.901 71.1836C116.357 72.4 120.126 75.7038 121.704 77.2037Z" fill="#348A62"/>
<path d="M79.6995 66.013C90.2479 55.7633 115.985 46.4824 121.704 77.2037C120.126 75.7038 116.357 72.4 113.901 71.1836C113.715 70.5688 113.229 69.1942 112.771 68.6145L112.168 70.1295C110.522 69.3305 106.513 67.6331 103.651 67.2357C103.051 66.3017 101.71 64.3241 101.143 63.8863C101.178 64.5737 101.104 66.063 100.525 66.521C97.3528 65.8656 88.7471 64.8463 79.6995 66.013ZM79.6995 66.013C86.6799 61.7657 103.057 55.3707 112.723 63.7699" stroke="black"/>
<circle cx="83.3046" cy="58.1223" r="8.18828" transform="rotate(-35.6954 83.3046 58.1223)" fill="#9D7939" stroke="black"/>
<ellipse cx="19.2223" cy="5.28674" rx="19.2223" ry="5.28674" transform="matrix(-1 0 0 1 99.8799 162.5)" fill="black" fill-opacity="0.2"/>
<path d="M105.004 161.745C105.772 157.942 105.214 149.17 96.8358 144.505C88.458 139.84 79.6613 141.04 76.3102 142.223C74.5648 143.491 71.116 147.75 71.2835 154.646C71.4428 161.2 75.2341 164.677 80.0802 165.187C95.998 170.373 103.329 165.054 105.004 161.745Z" fill="#B6B6B6"/>
<path d="M76.3102 142.223C79.6613 141.04 88.458 139.84 96.8358 144.505C105.214 149.17 105.772 157.942 105.004 161.745C103.329 165.054 95.998 170.373 80.0802 165.187M76.3102 142.223C74.5648 143.491 71.116 147.75 71.2835 154.646C71.4428 161.2 75.2341 164.677 80.0802 165.187M76.3102 142.223C82.1747 144.758 89.0864 150.59 91.1808 154.646C93.2753 158.703 91.8091 163.013 84.8975 164.788C83.2407 165.213 81.6081 165.347 80.0802 165.187" stroke="black" stroke-width="0.6" stroke-linecap="round" stroke-linejoin="round"/>
<path d="M76.311 142.223C74.5656 143.49 71.1168 147.75 71.2843 154.646C71.4436 161.2 75.2349 164.676 80.081 165.186C95.9988 170.373 103.329 165.053 105.005 161.745C102.071 161.576 95.3662 160.731 92.017 158.703C92.1852 157.392 91.8831 156.005 91.1816 154.646C89.0871 150.589 82.1754 144.758 76.311 142.223Z" fill="#7C7C7C"/>
<path d="M80.081 165.186C75.2349 164.676 71.4436 161.2 71.2843 154.646C71.1168 147.75 74.5656 143.49 76.311 142.223C82.1754 144.758 89.0871 150.589 91.1816 154.646C91.8831 156.005 92.1852 157.392 92.017 158.703M80.081 165.186C81.6088 165.347 83.2415 165.213 84.8982 164.788C89.495 163.607 91.683 161.305 92.017 158.703M80.081 165.186C95.9988 170.373 103.329 165.053 105.005 161.745C102.071 161.576 95.3662 160.731 92.017 158.703" stroke="black" stroke-width="0.6" stroke-linecap="round" stroke-linejoin="round"/>
<path d="M71.2843 154.646C71.1168 147.75 74.5656 143.49 76.311 142.223C82.1754 144.758 89.0871 150.589 91.1816 154.646C93.276 158.703 91.8099 163.013 84.8982 164.788C83.2415 165.213 81.6088 165.347 80.081 165.186C75.2349 164.676 71.4436 161.2 71.2843 154.646Z" fill="#818181" stroke="black" stroke-width="0.6" stroke-linecap="round" stroke-linejoin="round"/>
<path d="M74.6214 152.764C79.1454 153.778 78.6008 159.441 77.763 162.145C77.763 163.751 75.9618 167.013 68.7569 167.216C61.552 167.418 62.4038 160.37 63.7302 156.821C65.4756 155.046 70.0973 151.75 74.6214 152.764Z" fill="#999999" stroke="black" stroke-width="0.6" stroke-linecap="round" stroke-linejoin="round"/>
<path d="M74.6214 152.764C79.1454 153.778 78.6008 159.441 77.763 162.145C75.1101 162.99 68.5894 163.109 63.7302 156.821C65.4756 155.046 70.0973 151.75 74.6214 152.764Z" fill="#B6B6B6" stroke="black" stroke-width="0.6" stroke-linecap="round" stroke-linejoin="round"/>
<path d="M182.703 162.793C233.69 162.793 275.023 160.47 275.023 157.605C277.863 162.052 272.182 162.793 271.472 164.275C270.762 165.757 275.733 166.498 274.313 168.721C272.892 170.944 243.066 178.683 182.703 177.942C122.339 177.201 97.4838 172.426 92.5127 169.462C87.5416 166.498 94.6431 165.016 90.3821 162.793C86.9734 161.014 88.9618 158.593 90.3821 157.605C90.3821 160.47 131.715 162.793 182.703 162.793Z" fill="#A0722E" stroke="black" stroke-linecap="round" stroke-linejoin="round"/>
<ellipse cx="182.691" cy="157.07" rx="92.0508" ry="11.2388" fill="#DCA450" stroke="black" stroke-width="0.6" stroke-linecap="round" stroke-linejoin="round"/>
<path d="M123.522 153.643V153.829L123.688 153.912C124.616 154.376 126.405 154.939 129.186 155.526C131.974 156.113 135.779 156.728 140.754 157.286C150.704 158.403 165.344 159.295 185.903 159.295C206.461 159.295 219.766 158.403 228.048 157.285C232.189 156.727 235.082 156.111 237.002 155.519C237.962 155.223 238.687 154.93 239.206 154.649C239.712 154.375 240.069 154.087 240.224 153.777L240.256 153.714V153.643V125.811V125.511H239.956H123.822H123.522V125.811V153.643Z" fill="#6B3D28" stroke="black" stroke-width="0.6"/>
<path d="M182.691 76.3389C206.935 76.3389 228.889 75.2604 244.786 73.5156C252.733 72.6434 259.176 71.6037 263.639 70.4458C265.867 69.8674 267.619 69.2554 268.819 68.6115C269.419 68.2897 269.897 67.952 270.228 67.5944C270.56 67.2352 270.761 66.8373 270.761 66.4057C270.761 65.9741 270.56 65.5762 270.228 65.217C269.897 64.8593 269.419 64.5217 268.819 64.1999C267.619 63.556 265.867 62.944 263.639 62.3656C259.176 61.2077 252.733 60.1679 244.786 59.2958C228.889 57.551 206.935 56.4725 182.691 56.4725C158.447 56.4725 136.493 57.551 120.596 59.2958C112.65 60.1679 106.206 61.2077 101.744 62.3656C99.5152 62.944 97.7638 63.556 96.5632 64.1999C95.9633 64.5217 95.4858 64.8593 95.1548 65.217C94.8225 65.5762 94.6219 65.9741 94.6219 66.4057C94.6219 66.8373 94.8225 67.2352 95.1548 67.5944C95.4858 67.952 95.9633 68.2897 96.5632 68.6115C97.7638 69.2554 99.5152 69.8674 101.744 70.4458C106.206 71.6037 112.65 72.6434 120.596 73.5156C136.493 75.2604 158.447 76.3389 182.691 76.3389Z" fill="#6B3D28" stroke="black" stroke-width="0.6"/>
<ellipse cx="182.691" cy="117.247" rx="69.5733" ry="3.74625" fill="#D9D9D9"/>
<ellipse cx="182.691" cy="117.247" rx="69.5733" ry="3.74625" fill="#DCA450" stroke="black" stroke-width="0.6" stroke-linecap="round" stroke-linejoin="round"/>
<ellipse cx="184.404" cy="114.981" rx="50.011" ry="1.76509" fill="#5B3E14" stroke="black" stroke-width="0.6" stroke-linecap="round" stroke-linejoin="round"/>
<path d="M229.296 115.157C219.435 116.252 184.1 115.613 167.666 115.157C165.992 102.526 169.947 79.089 199.622 79.0898C227.781 79.0906 230.514 103.743 229.296 115.157Z" fill="#7C953B" stroke="black" stroke-width="0.6" stroke-linecap="round" stroke-linejoin="round"/>
<path d="M169.744 104.655C171.208 93.9271 178.008 81.3715 196.113 81.3721C213.065 81.3726 218.175 94.2288 219.182 104.655H169.744Z" fill="#397034" stroke="black" stroke-width="0.6" stroke-linecap="round" stroke-linejoin="round"/>
<path d="M169.744 104.655C171.208 93.9271 178.008 81.3715 196.113 81.3721C180.783 84.2938 178.457 98.1113 179.21 104.655H169.744Z" fill="#244220" stroke="black" stroke-width="0.6" stroke-linecap="round" stroke-linejoin="round"/>
<mask id="path-35-outside-1_30956_2685" maskUnits="userSpaceOnUse" x="177.297" y="90.417" width="15" height="15" fill="black">
<rect fill="white" x="177.297" y="90.417" width="15" height="15"/>
<path fill-rule="evenodd" clip-rule="evenodd" d="M189.441 93.3682C189.448 93.3285 189.451 93.2884 189.451 93.248C189.451 92.2367 187.265 91.417 184.569 91.417C181.872 91.417 179.686 92.2367 179.686 93.248C179.686 93.2884 179.69 93.3285 179.697 93.3682H179.686V94.4668C179.686 94.623 179.738 94.7747 179.836 94.9195C179.102 95.4754 178.297 96.5364 178.297 98.2907C178.297 101.401 180.519 103.239 182.046 103.805C183.573 104.37 186.489 104.37 188.017 103.522C189.544 102.674 191.21 100.836 191.071 98.2907C190.962 96.2839 190.075 95.3321 189.365 94.8112C189.422 94.6997 189.451 94.5846 189.451 94.4668V93.3682H189.441Z"/>
</mask>
<path fill-rule="evenodd" clip-rule="evenodd" d="M189.441 93.3682C189.448 93.3285 189.451 93.2884 189.451 93.248C189.451 92.2367 187.265 91.417 184.569 91.417C181.872 91.417 179.686 92.2367 179.686 93.248C179.686 93.2884 179.69 93.3285 179.697 93.3682H179.686V94.4668C179.686 94.623 179.738 94.7747 179.836 94.9195C179.102 95.4754 178.297 96.5364 178.297 98.2907C178.297 101.401 180.519 103.239 182.046 103.805C183.573 104.37 186.489 104.37 188.017 103.522C189.544 102.674 191.21 100.836 191.071 98.2907C190.962 96.2839 190.075 95.3321 189.365 94.8112C189.422 94.6997 189.451 94.5846 189.451 94.4668V93.3682H189.441Z" fill="white"/>
<path d="M189.441 93.3682L188.85 93.266C188.82 93.4404 188.868 93.6193 188.982 93.7547C189.096 93.8901 189.264 93.9682 189.441 93.9682V93.3682ZM179.697 93.3682V93.9682C179.874 93.9682 180.042 93.8901 180.156 93.7547C180.27 93.6193 180.318 93.4404 180.288 93.266L179.697 93.3682ZM179.686 93.3682V92.7682C179.355 92.7682 179.086 93.0369 179.086 93.3682H179.686ZM179.836 94.9195L180.199 95.3979C180.453 95.2052 180.512 94.847 180.333 94.5827L179.836 94.9195ZM182.046 103.805L182.254 103.242H182.254L182.046 103.805ZM191.071 98.2907L191.671 98.258L191.071 98.2907ZM189.365 94.8112L188.83 94.5397C188.697 94.8017 188.773 95.1214 189.01 95.2951L189.365 94.8112ZM189.451 93.3682H190.051C190.051 93.0369 189.783 92.7682 189.451 92.7682V93.3682ZM188.851 93.248C188.851 93.2536 188.851 93.2595 188.85 93.266L190.032 93.4705C190.045 93.3974 190.051 93.3231 190.051 93.248H188.851ZM184.569 92.017C185.864 92.017 187.01 92.2149 187.811 92.5151C188.213 92.666 188.497 92.8312 188.67 92.9842C188.843 93.1379 188.851 93.2284 188.851 93.248H190.051C190.051 92.7619 189.786 92.3708 189.466 92.0863C189.144 91.8012 188.713 91.5719 188.232 91.3915C187.265 91.0289 185.97 90.817 184.569 90.817V92.017ZM180.286 93.248C180.286 93.2284 180.295 93.1379 180.468 92.9842C180.64 92.8312 180.924 92.666 181.327 92.5151C182.127 92.2149 183.273 92.017 184.569 92.017V90.817C183.168 90.817 181.872 91.0289 180.906 91.3915C180.424 91.5719 179.993 91.8012 179.672 92.0863C179.351 92.3708 179.086 92.7619 179.086 93.248H180.286ZM180.288 93.266C180.287 93.2595 180.286 93.2536 180.286 93.248H179.086C179.086 93.3231 179.093 93.3974 179.105 93.4705L180.288 93.266ZM179.686 93.9682H179.697V92.7682H179.686V93.9682ZM180.286 94.4668V93.3682H179.086V94.4668H180.286ZM180.333 94.5827C180.29 94.519 180.286 94.4826 180.286 94.4668H179.086C179.086 94.7635 179.187 95.0304 179.34 95.2562L180.333 94.5827ZM178.897 98.2907C178.897 96.7462 179.596 95.8543 180.199 95.3979L179.474 94.441C178.608 95.0965 177.697 96.3265 177.697 98.2907H178.897ZM182.254 103.242C180.891 102.737 178.897 101.082 178.897 98.2907H177.697C177.697 101.72 180.146 103.741 181.838 104.368L182.254 103.242ZM187.725 102.998C187.081 103.355 186.08 103.56 185.012 103.594C183.95 103.628 182.922 103.49 182.254 103.242L181.838 104.368C182.697 104.686 183.891 104.83 185.05 104.793C186.204 104.757 187.425 104.537 188.308 104.047L187.725 102.998ZM190.472 98.3234C190.595 100.565 189.126 102.22 187.725 102.998L188.308 104.047C189.962 103.128 191.826 101.106 191.671 98.258L190.472 98.3234ZM189.01 95.2951C189.6 95.7276 190.374 96.5242 190.472 98.3234L191.671 98.258C191.55 96.0437 190.551 94.9365 189.72 94.3273L189.01 95.2951ZM188.851 94.4668C188.851 94.4804 188.849 94.5031 188.83 94.5397L189.9 95.0828C189.995 94.8962 190.051 94.6887 190.051 94.4668H188.851ZM188.851 93.3682V94.4668H190.051V93.3682H188.851ZM189.441 93.9682H189.451V92.7682H189.441V93.9682Z" fill="black" mask="url(#path-35-outside-1_30956_2685)"/>
<g filter="url(#filter0_i_30956_2685)">
<path d="M179.132 98.3729C179.132 96.2246 180.556 95.2806 181.207 95.0771H188.409C189.019 95.4433 190.125 96.1757 190.247 98.3729C190.369 100.57 188.95 102.076 187.607 102.809C186.265 103.541 183.77 103.622 182.428 103.133C181.085 102.645 179.132 101.058 179.132 98.3729Z" fill="#FBC322"/>
</g>
<path d="M181.207 94.7771H181.161L181.117 94.7908C180.369 95.0248 178.832 96.0666 178.832 98.3729C178.832 101.221 180.903 102.898 182.325 103.415C183.047 103.678 184.05 103.78 185.033 103.728C186.016 103.676 187.025 103.468 187.751 103.072C189.155 102.306 190.677 100.709 190.547 98.3562C190.483 97.2064 190.159 96.4168 189.753 95.8614C189.349 95.3085 188.878 95.0089 188.563 94.8199L188.492 94.7771H188.409H181.207Z" stroke="url(#paint0_linear_30956_2685)" stroke-width="0.6"/>
<path d="M189.154 94.4667C189.154 94.6029 189.081 94.7686 188.871 94.955C188.661 95.141 188.34 95.3222 187.918 95.4805C187.076 95.7963 185.893 95.9977 184.571 95.9977C183.249 95.9977 182.066 95.7963 181.224 95.4805C180.802 95.3222 180.481 95.141 180.271 94.955C180.061 94.7686 179.988 94.6029 179.988 94.4667V93.6682H189.154V94.4667Z" fill="#4ACCD7" stroke="url(#paint1_linear_30956_2685)" stroke-width="0.6"/>
<path d="M189.154 93.248C189.154 93.3842 189.081 93.5498 188.871 93.7362C188.661 93.9222 188.34 94.1035 187.918 94.2617C187.076 94.5775 185.893 94.7789 184.571 94.7789C183.249 94.7789 182.066 94.5775 181.224 94.2617C180.802 94.1035 180.481 93.9222 180.271 93.7362C180.061 93.5498 179.988 93.3842 179.988 93.248C179.988 93.1118 180.061 92.9461 180.271 92.7597C180.481 92.5737 180.802 92.3925 181.224 92.2342C182.066 91.9184 183.249 91.717 184.571 91.717C185.893 91.717 187.076 91.9184 187.918 92.2342C188.34 92.3925 188.661 92.5737 188.871 92.7597C189.081 92.9461 189.154 93.1118 189.154 93.248Z" fill="#81E2D6" stroke="url(#paint2_linear_30956_2685)" stroke-width="0.6"/>
<ellipse cx="184.693" cy="93.1269" rx="2.92954" ry="0.976514" fill="#EECD2D"/>
<ellipse cx="184.692" cy="93.126" rx="1.46477" ry="0.488257" fill="white"/>
<circle cx="181.633" cy="100.865" r="0.277884" fill="#FFFFB4"/>
<circle cx="185.107" cy="98.5032" r="0.138942" fill="#FFFFB4"/>
<circle cx="181.216" cy="97.9466" r="0.138942" fill="#FFFFB4"/>
<circle cx="186.495" cy="100.169" r="0.138942" fill="#FFFFB4"/>
<circle cx="188.441" cy="100.446" r="0.138942" fill="#FFE1B4"/>
<circle cx="188.718" cy="98.5032" r="0.138942" fill="#FFE1B4"/>
<circle cx="182.05" cy="97.3924" r="0.416826" fill="#FFFFB4"/>
<circle cx="183.718" cy="100.447" r="0.416826" fill="#FFFFB4"/>
<circle cx="185.524" cy="101.42" r="0.555767" fill="#FFFFB4"/>
<path d="M204.734 95.5795L204.734 95.5795C204.511 95.2776 204.255 94.9936 203.972 94.7356C203.135 93.8003 202.55 93.0783 202.202 92.2762C201.858 91.4821 201.737 90.5851 201.885 89.2895L201.923 88.9575L201.589 88.9554L199.306 88.9409L197.022 88.9264L196.689 88.9243L196.722 89.2564C196.852 90.5554 196.72 91.451 196.366 92.2403C196.008 93.0376 195.415 93.7514 194.566 94.6761C193.437 95.6854 192.725 97.067 192.715 98.6072C192.695 101.784 195.646 104.313 199.208 104.332C202.77 104.352 205.753 101.867 205.773 98.69C205.78 97.5392 205.393 96.4729 204.734 95.5795Z" stroke="black" stroke-width="0.6"/>
<path d="M196.904 90.1041L196.904 90.1041L196.906 90.1041L201.697 90.1345C202.008 90.1365 202.294 90.0129 202.501 89.8083L202.504 89.8055C202.711 89.6009 202.839 89.316 202.841 89.005C202.845 88.3749 202.341 87.8652 201.711 87.8612L196.92 87.8308L196.92 87.8308L196.919 87.8308C196.293 87.8306 195.784 88.3325 195.777 88.9584L195.777 88.9584L195.777 88.9621C195.776 89.5881 196.278 90.0963 196.904 90.1041Z" stroke="black" stroke-width="0.6"/>
<path d="M204.493 95.7576C204.279 95.468 204.032 95.195 203.759 94.947C202.075 93.067 201.282 91.9203 201.587 89.2554L199.304 89.2409L197.02 89.2264C197.289 91.8977 196.484 93.0316 194.777 94.89C193.696 95.8514 193.024 97.1596 193.015 98.6091C192.996 101.581 195.771 104.013 199.21 104.032C202.649 104.051 205.454 101.66 205.473 98.6881C205.48 97.608 205.117 96.6039 204.493 95.7576Z" fill="#8DDBE8"/>
<path d="M204.493 95.7572C204.279 95.4676 204.032 95.1946 203.759 94.9466C202.075 93.0666 201.282 91.9199 201.587 89.255L200.949 89.2509C200.512 91.6072 201.178 92.8119 202.579 94.76C202.824 95.0358 203.04 95.3338 203.223 95.6428C203.754 96.5528 204.005 97.5898 203.884 98.6608C203.549 101.617 200.502 103.696 197.085 103.305C196.529 103.243 195.995 103.113 195.498 102.937C196.535 103.615 197.822 104.023 199.218 104.029C202.66 104.051 205.463 101.657 205.481 98.685C205.488 97.6048 205.125 96.6007 204.501 95.7545L204.493 95.7572Z" fill="#82AED9"/>
<path d="M201.587 89.2558L199.304 89.2413L197.02 89.2268C197.057 89.5908 197.072 89.9267 197.067 90.2373C197.066 90.366 200.544 90.542 201.084 92.2049C201.194 92.5414 201.721 92.444 201.986 92.5268C201.569 91.6371 201.424 90.6567 201.582 89.2558L201.587 89.2558Z" fill="#82AED9"/>
<path d="M203.949 96.0305L194.575 95.9663C193.957 96.7428 193.619 97.6555 193.613 98.6069C193.598 101.248 196.112 103.412 199.218 103.433C202.324 103.455 204.861 101.323 204.879 98.6842C204.884 97.7719 204.584 96.8828 204.013 96.1121C203.99 96.084 203.971 96.0587 203.949 96.0305Z" fill="#DE4A1A"/>
<path d="M196.884 98.4235C196.882 98.7314 196.628 98.9816 196.318 98.9823C196.01 98.9801 195.759 98.7265 195.758 98.4157C195.757 98.105 196.014 97.8576 196.324 97.857C196.632 97.8591 196.883 98.1127 196.884 98.4235Z" fill="#E88668"/>
<path d="M201.164 101.762C201.162 102.143 200.852 102.449 200.474 102.443C200.093 102.441 199.787 102.131 199.792 101.753C199.797 101.375 200.104 101.066 200.482 101.072C200.863 101.074 201.169 101.384 201.164 101.762Z" fill="#E88668"/>
<path d="M201.69 97.1995C201.689 97.5019 201.441 97.7465 201.138 97.7444C200.836 97.7423 200.591 97.4943 200.593 97.192C200.595 96.8897 200.842 96.645 201.145 96.6471C201.447 96.6492 201.692 96.8972 201.69 97.1995Z" fill="#E88668"/>
<path d="M199.885 99.6303C199.883 99.9047 199.658 100.127 199.384 100.125C199.109 100.123 198.887 99.8978 198.888 99.6235C198.89 99.3492 199.115 99.1268 199.39 99.1286C199.664 99.1305 199.886 99.356 199.885 99.6303Z" fill="#E88668"/>
<path d="M196.303 101.446C196.301 101.67 196.121 101.848 195.9 101.844C195.676 101.842 195.498 101.662 195.502 101.441C195.503 101.217 195.683 101.039 195.905 101.043C196.129 101.045 196.307 101.225 196.303 101.446Z" fill="#E88668"/>
<path d="M203.949 96.0304L203.417 96.0268C203.807 96.8383 203.984 97.738 203.878 98.6609C203.577 101.295 201.128 103.229 198.182 103.344C198.518 103.402 198.865 103.432 199.217 103.435C202.324 103.456 204.861 101.324 204.879 98.6846C204.885 97.7722 204.585 96.8828 204.013 96.112C203.991 96.0839 203.971 96.0586 203.949 96.0304Z" fill="#C21717"/>
<path d="M197.431 95.9906C197.426 96.7181 196.833 97.3045 196.105 97.2995C195.377 97.2945 194.79 96.7 194.795 95.9725C194.799 95.2449 195.393 94.6586 196.12 94.6636C196.848 94.6685 197.435 95.263 197.431 95.9906Z" fill="#D9FAFF"/>
<mask id="path-65-outside-2_30956_2685" maskUnits="userSpaceOnUse" x="194.388" y="81.79" width="9.86717" height="9.8671" fill="black">
<rect fill="white" x="194.388" y="81.79" width="9.86717" height="9.8671"/>
<path d="M201.842 85.7352L196.811 85.7007L197.25 88.1719L201.377 88.203L201.842 85.7352Z"/>
</mask>
<path d="M201.842 85.7352L196.811 85.7007L197.25 88.1719L201.377 88.203L201.842 85.7352Z" fill="#A95A3B"/>
<path d="M201.842 85.7352L202.43 85.8459C202.463 85.6717 202.417 85.4919 202.304 85.3551C202.191 85.2182 202.024 85.1384 201.846 85.1372L201.842 85.7352ZM196.811 85.7007L196.815 85.1027C196.638 85.1015 196.469 85.1793 196.354 85.315C196.239 85.4508 196.191 85.6304 196.222 85.8053L196.811 85.7007ZM197.25 88.1719L196.661 88.2765L196.748 88.7662L197.246 88.7699L197.25 88.1719ZM201.377 88.203L201.373 88.801L201.873 88.8048L201.965 88.3137L201.377 88.203ZM201.846 85.1372L196.815 85.1027L196.807 86.2987L201.838 86.3332L201.846 85.1372ZM196.222 85.8053L196.661 88.2765L197.839 88.0673L197.4 85.5961L196.222 85.8053ZM197.246 88.7699L201.373 88.801L201.382 87.6049L197.255 87.5738L197.246 88.7699ZM201.965 88.3137L202.43 85.8459L201.255 85.6245L200.79 88.0922L201.965 88.3137Z" fill="black" mask="url(#path-65-outside-2_30956_2685)"/>
<path d="M201.194 85.7292L200.767 87.9372L197.205 87.91L197.251 88.1706L201.379 88.2017L201.844 85.7337L201.194 85.7292Z" fill="#93422C"/>
<path d="M197.215 85.7046L197.747 85.7083L197.479 86.5071L197.215 85.7046Z" fill="#93422C"/>
<path d="M197.949 85.7076L198.278 85.7098L198.187 86.1116L197.949 85.7076Z" fill="#93422C"/>
<path d="M200.447 87.0474C200.553 86.9432 200.554 86.773 200.449 86.6673C200.345 86.5617 200.175 86.5605 200.069 86.6648C199.964 86.769 199.963 86.9392 200.067 87.0448C200.171 87.1505 200.341 87.1517 200.447 87.0474Z" fill="#93422C"/>
<path d="M198.997 86.1314C198.997 86.2488 198.901 86.3431 198.784 86.3424C198.666 86.3416 198.572 86.2459 198.572 86.1285C198.573 86.0111 198.669 85.9168 198.786 85.9176C198.903 85.9183 198.998 86.014 198.997 86.1314Z" fill="#93422C"/>
<path d="M198.569 87.2092C198.568 87.4108 198.405 87.572 198.2 87.5734C197.999 87.572 197.837 87.4085 197.836 87.2042C197.837 87.0026 198 86.8414 198.205 86.84C198.406 86.8414 198.568 87.0048 198.569 87.2092Z" fill="#93422C"/>
<path d="M202.291 89.5962C202.139 89.7463 201.928 89.8372 201.699 89.8356L196.908 89.8028C196.447 89.7968 196.077 89.4221 196.077 88.9604C196.082 88.4987 196.456 88.1291 196.918 88.1294L201.709 88.1623C202.173 88.1655 202.543 88.5402 202.541 89.0047C202.539 89.2341 202.446 89.4434 202.294 89.5934L202.291 89.5962Z" fill="#8DDBE8"/>
<path d="M197.012 88.7168L197.958 88.7168M198.904 88.7167L199.378 88.7167" stroke="white" stroke-width="0.6" stroke-linecap="round"/>
<path d="M215.155 98.9407L215.155 98.9407C215.031 98.7719 214.888 98.6134 214.731 98.4693C214.28 97.9659 213.98 97.5914 213.802 97.1818C213.628 96.7804 213.563 96.3211 213.641 95.6376L213.679 95.3056L213.345 95.3034L212.11 95.2956L210.876 95.2878L210.542 95.2857L210.576 95.6178C210.644 96.3032 210.573 96.7618 210.394 97.1608C210.212 97.568 209.907 97.9383 209.45 98.4359C208.818 99.0037 208.414 99.7843 208.409 100.659C208.397 102.47 210.073 103.882 212.056 103.893C214.038 103.903 215.732 102.517 215.744 100.705C215.748 100.05 215.528 99.4453 215.155 98.9407Z" stroke="black" stroke-width="0.6"/>
<path d="M210.811 96.1988L210.811 96.1988L210.812 96.1988L213.402 96.2152C213.608 96.2165 213.798 96.1348 213.935 95.9991L213.937 95.9976C214.074 95.8619 214.158 95.6732 214.159 95.4676C214.162 95.0508 213.829 94.7132 213.412 94.7105L210.822 94.6941L210.822 94.6941L210.82 94.6941C210.406 94.694 210.07 95.026 210.065 95.4398L210.065 95.4398L210.065 95.4435C210.065 95.8574 210.397 96.1936 210.811 96.1988Z" stroke="black" stroke-width="0.6"/>
<path d="M214.914 99.1188C214.798 98.9622 214.665 98.8146 214.517 98.6806C213.607 97.6642 213.178 97.0442 213.343 95.6034L212.109 95.5956L210.874 95.5878C211.019 97.032 210.584 97.645 209.661 98.6498C209.077 99.1695 208.714 99.8768 208.709 100.66C208.699 102.267 210.199 103.582 212.058 103.593C213.917 103.603 215.434 102.31 215.444 100.703C215.448 100.119 215.251 99.5763 214.914 99.1188Z" fill="#8DDBE8"/>
<path d="M214.915 99.118C214.799 98.9615 214.666 98.8139 214.518 98.6798C213.608 97.6634 213.179 97.0434 213.344 95.6027L212.999 95.6005C212.763 96.8744 213.123 97.5257 213.88 98.5789C214.013 98.728 214.13 98.8891 214.228 99.0562C214.516 99.5482 214.651 100.109 214.586 100.688C214.405 102.286 212.757 103.41 210.91 103.199C210.609 103.165 210.321 103.095 210.052 103C210.612 103.366 211.309 103.587 212.063 103.59C213.924 103.602 215.439 102.308 215.449 100.701C215.453 100.117 215.257 99.5741 214.919 99.1165L214.915 99.118Z" fill="#82AED9"/>
<path d="M213.344 95.6023L212.109 95.5945L210.875 95.5867C210.895 95.7835 210.902 95.9651 210.9 96.133C210.899 96.2026 212.779 96.2977 213.072 97.1967C213.131 97.3787 213.416 97.326 213.559 97.3708C213.334 96.8898 213.256 96.3598 213.341 95.6023L213.344 95.6023Z" fill="#82AED9"/>
<path d="M214.62 99.2732L209.552 99.2384C209.219 99.6583 209.036 100.152 209.033 100.666C209.024 102.094 210.384 103.264 212.063 103.275C213.742 103.287 215.114 102.134 215.123 100.708C215.126 100.215 214.964 99.734 214.655 99.3173C214.643 99.3021 214.632 99.2884 214.62 99.2732Z" fill="#741CD2"/>
<path d="M210.8 100.567C210.799 100.734 210.662 100.869 210.494 100.869C210.328 100.868 210.192 100.731 210.192 100.563C210.191 100.395 210.33 100.261 210.498 100.261C210.664 100.262 210.8 100.399 210.8 100.567Z" fill="#BD68E8"/>
<path d="M213.114 102.371C213.113 102.577 212.945 102.742 212.741 102.739C212.535 102.738 212.37 102.57 212.373 102.366C212.375 102.161 212.541 101.995 212.745 101.997C212.951 101.999 213.117 102.167 213.114 102.371Z" fill="#BD68E8"/>
<path d="M213.399 99.9043C213.398 100.068 213.265 100.2 213.101 100.199C212.938 100.198 212.805 100.064 212.806 99.9003C212.807 99.7368 212.941 99.6045 213.105 99.6057C213.268 99.6068 213.4 99.7409 213.399 99.9043Z" fill="#BD68E8"/>
<path d="M212.421 101.218C212.421 101.366 212.299 101.486 212.151 101.485C212.003 101.484 211.883 101.363 211.884 101.215C211.884 101.067 212.006 100.946 212.154 100.947C212.302 100.948 212.422 101.07 212.421 101.218Z" fill="#BD68E8"/>
<path d="M210.485 102.199C210.484 102.32 210.387 102.416 210.267 102.413C210.146 102.413 210.05 102.315 210.053 102.196C210.053 102.075 210.151 101.979 210.27 101.981C210.391 101.982 210.487 102.079 210.485 102.199Z" fill="#BD68E8"/>
<path d="M214.62 99.27L214.333 99.268C214.543 99.7068 214.639 100.193 214.582 100.692C214.419 102.116 213.095 103.162 211.503 103.224C211.684 103.255 211.871 103.272 212.062 103.273C213.742 103.285 215.113 102.132 215.123 100.705C215.126 100.212 214.964 99.7309 214.655 99.3141C214.643 99.2989 214.632 99.2852 214.62 99.27Z" fill="#670782"/>
<path d="M211.097 99.2492C211.094 99.6426 210.773 99.9598 210.38 99.9571C209.986 99.9543 209.669 99.6328 209.671 99.2393C209.673 98.8459 209.995 98.5287 210.388 98.5314C210.782 98.5341 211.099 98.8557 211.097 99.2492Z" fill="#D9FAFF"/>
<mask id="path-88-outside-3_30956_2685" maskUnits="userSpaceOnUse" x="208.805" y="90.7121" width="7.04798" height="7.04793" fill="black">
<rect fill="white" x="208.805" y="90.7121" width="7.04798" height="7.04793"/>
<path d="M213.483 93.7004L210.763 93.6818L211 95.0178L213.231 95.0346L213.483 93.7004Z"/>
</mask>
<path d="M213.483 93.7004L210.763 93.6818L211 95.0178L213.231 95.0346L213.483 93.7004Z" fill="#A95A3B"/>
<path d="M213.483 93.7004L214.07 93.8111C214.103 93.6369 214.057 93.4571 213.944 93.3203C213.832 93.1834 213.664 93.1036 213.487 93.1024L213.483 93.7004ZM210.763 93.6818L210.767 93.0837C210.589 93.0825 210.42 93.1603 210.306 93.2961C210.191 93.4318 210.143 93.6115 210.174 93.7864L210.763 93.6818ZM211 95.0178L210.411 95.1224L210.498 95.6121L210.995 95.6158L211 95.0178ZM213.231 95.0346L213.227 95.6326L213.727 95.6364L213.819 95.1453L213.231 95.0346ZM213.487 93.1024L210.767 93.0837L210.759 94.2798L213.479 94.2985L213.487 93.1024ZM210.174 93.7864L210.411 95.1224L211.589 94.9132L211.351 93.5772L210.174 93.7864ZM210.995 95.6158L213.227 95.6326L213.236 94.4366L211.004 94.4197L210.995 95.6158ZM213.819 95.1453L214.07 93.8111L212.895 93.5897L212.644 94.9239L213.819 95.1453Z" fill="black" mask="url(#path-88-outside-3_30956_2685)"/>
<path d="M213.133 93.699L212.902 94.8932L210.975 94.8784L211 95.0194L213.232 95.0363L213.484 93.7014L213.133 93.699Z" fill="#93422C"/>
<path d="M210.981 93.6834L211.268 93.6854L211.123 94.1172L210.981 93.6834Z" fill="#93422C"/>
<path d="M211.377 93.684L211.556 93.6852L211.506 93.9028L211.377 93.684Z" fill="#93422C"/>
<path d="M212.728 94.4068C212.785 94.3504 212.786 94.2582 212.729 94.201C212.673 94.1437 212.581 94.1431 212.523 94.1996C212.466 94.256 212.466 94.3482 212.522 94.4054C212.579 94.4626 212.671 94.4632 212.728 94.4068Z" fill="#93422C"/>
<path d="M211.944 93.9129C211.943 93.9762 211.892 94.0272 211.828 94.0268C211.765 94.0264 211.714 93.9748 211.714 93.9114C211.715 93.8481 211.766 93.7972 211.83 93.7976C211.893 93.798 211.944 93.8496 211.944 93.9129Z" fill="#93422C"/>
<path d="M211.713 94.4984C211.712 94.6074 211.624 94.6945 211.513 94.6953C211.404 94.6946 211.317 94.6062 211.316 94.4957C211.317 94.3867 211.405 94.2995 211.516 94.2988C211.624 94.2995 211.712 94.3879 211.713 94.4984Z" fill="#93422C"/>
<path d="M213.724 95.7855C213.642 95.8666 213.529 95.9158 213.404 95.9149L210.814 95.8971C210.565 95.8939 210.365 95.6913 210.365 95.4417C210.368 95.1921 210.57 94.9923 210.82 94.9925L213.41 95.0102C213.661 95.0119 213.861 95.2145 213.859 95.4657C213.859 95.5897 213.808 95.7028 213.726 95.784L213.724 95.7855Z" fill="#8DDBE8"/>
<path d="M210.87 95.3086L211.382 95.3086M211.893 95.3086L212.149 95.3086" stroke="white" stroke-width="0.6" stroke-linecap="round"/>
<path d="M182.691 72.8281C221.116 72.8281 252.265 71.1508 252.265 69.0818C252.265 68.4503 249.363 67.8552 244.237 67.3332C246.378 68.2606 245.843 69.0818 182.691 69.617C132.171 70.0451 121.681 68.1699 122.751 67.1787C116.631 67.7365 113.118 68.3871 113.118 69.0818C113.118 71.1508 144.267 72.8281 182.691 72.8281Z" fill="#572B17" stroke="black" stroke-width="0.6" stroke-linecap="round" stroke-linejoin="round"/>
<path d="M182.691 120.993C221.115 120.993 252.264 119.316 252.264 117.247C254.405 120.458 250.123 120.993 249.588 122.064C249.053 123.134 252.799 123.669 251.729 125.275C250.659 126.88 228.181 130.091 182.691 129.556C137.201 129.021 118.469 127.951 114.723 125.81C110.977 123.669 116.329 122.599 113.118 120.993C110.549 119.709 112.047 117.961 113.118 117.247C113.118 119.316 144.267 120.993 182.691 120.993Z" fill="#A0722E" stroke="black" stroke-width="0.6" stroke-linecap="round" stroke-linejoin="round"/>
<path d="M182.691 65.3953C221.115 65.3953 252.264 67.0726 252.264 69.1416C254.405 65.9305 250.123 65.3953 249.588 64.325C249.053 63.2546 252.799 62.7195 251.729 61.1139C250.659 59.5084 228.181 56.2973 182.691 56.8325C137.201 57.3677 118.469 58.438 114.723 60.5787C110.977 62.7195 116.329 63.7898 113.118 65.3953C110.549 66.6798 112.047 68.428 113.118 69.1416C113.118 67.0726 144.267 65.3953 182.691 65.3953Z" fill="#8F4D2F" stroke="black" stroke-width="0.6" stroke-linecap="round" stroke-linejoin="round"/>
<path d="M88.5 62.8026C90.0387 59.1494 121.839 39.4629 137.546 30.0762C148.461 27.7338 158.779 26.2831 168.32 25.4873C198.461 22.9734 220.86 26.9931 229.869 30.0762L277.953 64.3239L271.222 68.8904C270.26 67.3682 254.873 60.2149 193.324 58.9972C131.776 57.7795 101.643 65.5932 94.2702 69.6523L88.5 62.8026Z" fill="#DCA450"/>
<path d="M88.5 62.8026C90.0387 59.1494 121.839 39.4629 137.546 30.0762C148.461 27.7338 158.779 26.2831 168.32 25.4873M88.5 62.8026L94.2702 69.6523C101.643 65.5932 131.776 57.7795 193.324 58.9972C254.873 60.2149 270.26 67.3682 271.222 68.8904L277.953 64.3239M88.5 62.8026L100.04 58.9972L99.0786 56.7131M277.953 64.3239L229.869 30.0762C220.86 26.9931 198.461 22.9734 168.32 25.4873M277.953 64.3239C271.222 60.5185 262.566 57.475 258.72 56.7131M99.0786 56.7131L111.581 54.4299M99.0786 56.7131L108.696 49.8634M111.581 54.4299L114.466 55.952C117.351 55.4446 123.506 54.4299 125.044 54.4299M111.581 54.4299C113.504 52.1466 118.12 47.2757 121.198 46.058M125.044 54.4299C126.968 54.4299 127.929 52.9077 131.776 52.9077C134.854 52.9077 135.623 53.9225 135.623 54.4299L145.24 53.6688L148.125 52.1466M125.044 54.4299C127.609 50.8782 133.7 43.0137 137.546 39.9694M148.125 52.1466L152.933 53.6688C156.78 53.1614 165.243 52.2988 168.32 52.9077M148.125 52.1466L152.933 44.5358M168.32 52.9077C172.167 53.6688 180.822 52.1466 183.708 52.1466C186.016 52.1466 191.081 52.654 193.324 52.9077H203.903M168.32 52.9077L170.244 43.7748M203.903 52.9077C206.468 52.4003 212.174 51.5378 214.482 52.1466M203.903 52.9077C202.3 48.5949 198.518 39.3605 196.21 36.9251M214.482 52.1466C217.367 52.9077 222.175 53.6688 227.945 54.4299C232.562 55.0387 237.562 55.6983 239.486 55.952M214.482 52.1466C212.238 47.5802 206.98 37.5339 203.903 33.8807M239.486 55.952C242.05 56.2057 247.756 56.7131 250.064 56.7131C251.988 56.9665 255.642 56.1035 258.72 56.7131M239.486 55.952C236.28 51.8929 229.099 43.0137 226.022 39.9694M258.72 56.7131C254.232 52.9077 244.294 44.8403 240.447 43.0137M168.32 25.4873C165.756 28.5388 160.435 35.0985 159.665 36.9251M187.554 51.3856C186.913 48.3412 185.439 41.6437 184.669 39.2083" stroke="black" stroke-width="0.6" stroke-linecap="round" stroke-linejoin="round"/>
<path d="M94.2702 69.6516L88.5 62.8019L100.04 58.9965L99.0786 56.7124L111.581 54.4292L114.466 55.9513C117.351 55.4439 123.506 54.4292 125.044 54.4292C126.968 54.4292 127.929 52.907 131.776 52.907C134.854 52.907 135.623 53.9218 135.623 54.4292L145.24 53.6681L148.125 52.1459L152.933 53.6681C156.78 53.1607 165.243 52.2982 168.32 52.907C172.167 53.6681 180.822 52.1459 183.708 52.1459C186.016 52.1459 191.081 52.6533 193.324 52.907H203.903C206.468 52.3996 212.174 51.5371 214.482 52.1459C217.367 52.907 222.175 53.6681 227.945 54.4292L239.486 55.9513C242.05 56.205 247.756 56.7124 250.064 56.7124C251.988 56.9658 255.642 56.1029 258.72 56.7124C262.566 57.4744 271.222 60.5178 277.953 64.3232L271.222 68.8897C270.26 67.3675 254.873 60.2142 193.324 58.9965C131.776 57.7788 101.643 65.5925 94.2702 69.6516Z" fill="#A0722E" stroke="black" stroke-width="0.6" stroke-linecap="round" stroke-linejoin="round"/>
<path d="M130.779 27.9094C131.636 25.3405 149.332 11.4972 158.073 4.89666C164.147 3.24949 169.889 2.22943 175.199 1.6698C191.973 -0.0979503 204.437 2.72869 209.451 4.89666L236.21 28.9791L232.463 32.1902C231.928 31.1198 223.365 26.0898 189.114 25.2335C154.862 24.3772 138.093 29.8717 133.99 32.726L130.779 27.9094Z" fill="#DCA450"/>
<path d="M130.779 27.9094C131.636 25.3405 149.332 11.4972 158.073 4.89666C164.147 3.24949 169.889 2.22943 175.199 1.6698M130.779 27.9094L133.99 32.726C138.093 29.8717 154.862 24.3772 189.114 25.2335C223.365 26.0898 231.928 31.1198 232.463 32.1902L236.21 28.9791M130.779 27.9094L137.201 25.2335L136.666 23.6273M236.21 28.9791L209.451 4.89666C204.437 2.72869 191.973 -0.0979504 175.199 1.6698M236.21 28.9791C232.463 26.3032 227.647 24.1631 225.506 23.6273M136.666 23.6273L143.624 22.0218M136.666 23.6273L142.018 18.8107M143.624 22.0218L145.229 23.0921C146.835 22.7354 150.26 22.0218 151.116 22.0218M143.624 22.0218C144.694 20.4162 147.263 16.9911 148.975 16.1348M151.116 22.0218C152.186 22.0218 152.722 20.9514 154.862 20.9514C156.575 20.9514 157.003 21.665 157.003 22.0218L162.355 21.4866L163.96 20.4162M151.116 22.0218C152.543 19.5243 155.933 13.9941 158.073 11.8534M163.96 20.4162L166.636 21.4866C168.777 21.1298 173.487 20.5233 175.199 20.9514M163.96 20.4162L166.636 15.0645M175.199 20.9514C177.34 21.4866 182.156 20.4162 183.762 20.4162C185.046 20.4162 187.865 20.773 189.114 20.9514H195.001M175.199 20.9514L176.27 14.5293M195.001 20.9514C196.428 20.5946 199.603 19.9881 200.888 20.4162M195.001 20.9514C194.109 17.9187 192.004 11.4252 190.719 9.71266M200.888 20.4162C202.493 20.9514 205.169 21.4866 208.38 22.0218C210.949 22.4499 213.732 22.9137 214.802 23.0921M200.888 20.4162C199.639 17.2052 196.713 10.1408 195.001 7.57195M214.802 23.0921C216.23 23.2705 219.405 23.6273 220.689 23.6273C221.76 23.8055 223.793 23.1987 225.506 23.6273M214.802 23.0921C213.018 20.2379 209.022 13.9941 207.31 11.8534M225.506 23.6273C223.008 20.9514 217.478 15.2785 215.338 13.9941M175.199 1.6698C173.772 3.81558 170.811 8.42823 170.383 9.71266M185.903 19.8811C185.546 17.7403 184.725 13.0308 184.297 11.3182" stroke="black" stroke-width="0.6" stroke-linecap="round" stroke-linejoin="round"/>
<path d="M133.99 32.7275L130.779 27.9109L137.201 25.235L136.666 23.6288L143.624 22.0233L145.229 23.0937C146.835 22.7369 150.26 22.0233 151.116 22.0233C152.186 22.0233 152.722 20.9529 154.862 20.9529C156.575 20.9529 157.003 21.6665 157.003 22.0233L162.355 21.4881L163.96 20.4178L166.636 21.4881C168.777 21.1313 173.487 20.5248 175.199 20.9529C177.34 21.4881 182.156 20.4178 183.762 20.4178C185.046 20.4178 187.865 20.7746 189.114 20.9529H195.001C196.428 20.5962 199.603 19.9896 200.888 20.4178C202.493 20.9529 205.169 21.4881 208.38 22.0233L214.802 23.0937C216.23 23.2721 219.405 23.6288 220.689 23.6288C221.76 23.807 223.793 23.2002 225.506 23.6288C227.647 24.1646 232.463 26.3047 236.21 28.9806L232.463 32.1917C231.928 31.1213 223.365 26.0913 189.114 25.235C154.862 24.3787 138.093 29.8732 133.99 32.7275Z" fill="#A0722E" stroke="black" stroke-width="0.6" stroke-linecap="round" stroke-linejoin="round"/>
<path d="M124.785 69.0826C122.644 68.2263 121.038 69.4394 120.503 70.153C127.947 98.8666 119.014 112.26 116.799 115.58L116.757 115.643C115.044 118.212 118.898 117.784 121.038 117.249C128.745 106.117 126.747 80.4998 124.785 69.0826Z" fill="#C48556" stroke="black" stroke-width="0.6" stroke-linecap="round" stroke-linejoin="round"/>
<path d="M128.313 70.6899C130.454 69.8336 132.06 70.5099 132.595 71.2234C125.995 100.219 130.812 112.967 132.595 115.636C134.31 118.203 130.454 117.777 128.313 117.241C124.389 105.468 126.083 82.4641 128.313 70.6899Z" fill="#C48556" stroke="black" stroke-width="0.6" stroke-linecap="round" stroke-linejoin="round"/>
<path d="M120.687 82.5754C120.216 84.2277 122.059 84.9851 123.039 85.1572L123.038 83.6077C123.234 83.2634 124.214 82.575 126.566 82.575C128.918 82.575 129.897 83.6077 130.093 84.124V85.6731C134.797 84.124 131.269 81.0232 128.33 80.5069C125.39 79.9905 121.275 80.51 120.687 82.5754Z" fill="#AA8A2E" stroke="black" stroke-width="0.6" stroke-linecap="round" stroke-linejoin="round"/>
<path d="M120.687 84.717C120.216 86.3693 122.059 87.1267 123.039 87.2988L123.038 85.7493C123.234 85.405 124.214 84.7166 126.566 84.7166C128.918 84.7166 129.897 85.7493 130.093 86.2656V87.8147C134.797 86.2656 131.269 83.1648 128.33 82.6485C125.39 82.1321 121.275 82.6516 120.687 84.717Z" fill="#AA8A2E" stroke="black" stroke-width="0.6" stroke-linecap="round" stroke-linejoin="round"/>
<path d="M124.582 102.906C118.694 103.409 119.226 105.389 119.761 106.103C121.902 105.246 126.719 104.497 131.001 105.033C131.536 104.497 131.824 102.288 124.582 102.906Z" fill="#CDB23F" stroke="black" stroke-width="0.6" stroke-linecap="round" stroke-linejoin="round"/>
<path d="M124.584 105.168C117.087 106.104 118.157 108.245 119.227 108.78C121.368 107.924 127.974 106.94 131.006 106.761C131.542 106.226 133.16 104.097 124.584 105.168Z" fill="#CDB23F" stroke="black" stroke-width="0.6" stroke-linecap="round" stroke-linejoin="round"/>
<path d="M236.955 69.0826C239.095 68.2263 240.701 69.4394 241.236 70.153C233.792 98.8666 242.725 112.26 244.94 115.58L244.982 115.643C246.695 118.212 242.842 117.784 240.701 117.249C232.994 106.117 234.992 80.4998 236.955 69.0826Z" fill="#C48556" stroke="black" stroke-width="0.6" stroke-linecap="round" stroke-linejoin="round"/>
<path d="M233.426 70.6899C231.285 69.8336 229.68 70.5099 229.145 71.2234C235.744 100.219 230.928 112.967 229.145 115.636C227.429 118.203 231.285 117.777 233.426 117.241C237.35 105.468 235.657 82.4641 233.426 70.6899Z" fill="#C48556" stroke="black" stroke-width="0.6" stroke-linecap="round" stroke-linejoin="round"/>
<path d="M241.052 82.5754C241.523 84.2277 239.681 84.9851 238.701 85.1572L238.701 83.6077C238.505 83.2634 237.525 82.575 235.173 82.575C232.822 82.575 231.842 83.6077 231.646 84.124V85.6731C226.942 84.124 230.47 81.0232 233.41 80.5069C236.349 79.9905 240.465 80.51 241.052 82.5754Z" fill="#AA8A2E" stroke="black" stroke-width="0.6" stroke-linecap="round" stroke-linejoin="round"/>
<path d="M241.052 84.717C241.523 86.3693 239.681 87.1267 238.701 87.2988L238.701 85.7493C238.505 85.405 237.525 84.7166 235.173 84.7166C232.822 84.7166 231.842 85.7493 231.646 86.2656V87.8147C226.942 86.2656 230.47 83.1648 233.41 82.6485C236.349 82.1321 240.465 82.6516 241.052 84.717Z" fill="#AA8A2E" stroke="black" stroke-width="0.6" stroke-linecap="round" stroke-linejoin="round"/>
<path d="M237.157 102.906C243.044 103.409 242.512 105.389 241.977 106.103C239.836 105.246 235.019 104.497 230.738 105.033C230.203 104.497 229.915 102.288 237.157 102.906Z" fill="#CDB23F" stroke="black" stroke-width="0.6" stroke-linecap="round" stroke-linejoin="round"/>
<path d="M237.155 105.168C244.652 106.104 243.583 108.245 242.512 108.78C240.372 107.924 233.766 106.94 230.733 106.761C230.198 106.226 228.579 104.097 237.155 105.168Z" fill="#CDB23F" stroke="black" stroke-width="0.6" stroke-linecap="round" stroke-linejoin="round"/>
<path d="M221.237 125.97C221.21 125.208 221.807 124.568 222.57 124.542C223.333 124.515 223.972 125.112 223.999 125.875C224.184 131.254 223.228 145.46 217.967 159.928C217.706 160.645 216.913 161.015 216.196 160.754C215.479 160.493 215.109 159.701 215.37 158.983C220.493 144.894 221.412 131.047 221.237 125.97Z" fill="#9B683C" stroke="black" stroke-width="0.6" stroke-linecap="round" stroke-linejoin="round"/>
<path d="M239.157 124.874C239.176 124.111 238.574 123.477 237.811 123.458C237.048 123.439 236.414 124.042 236.395 124.805C236.262 130.141 236.95 144.3 240.752 158.725C240.947 159.463 241.702 159.903 242.44 159.709C243.178 159.514 243.619 158.758 243.424 158.021C239.7 143.888 239.029 129.995 239.157 124.874Z" fill="#9B683C" stroke="black" stroke-width="0.6" stroke-linecap="round" stroke-linejoin="round"/>
<path d="M223.342 133.859L223.342 133.858L223.329 133.857C222.57 133.78 221.892 134.333 221.815 135.092C221.739 135.84 222.275 136.51 223.018 136.603L226.096 137.561C226.187 137.589 226.286 137.573 226.363 137.516C226.44 137.46 226.485 137.37 226.485 137.274L226.485 134.574C226.485 134.425 226.376 134.299 226.228 134.277L223.342 133.859Z" fill="#AB9034" stroke="black" stroke-width="0.6" stroke-linecap="round" stroke-linejoin="round"/>
<path d="M247.498 102.902C247.664 102.902 247.798 103.036 247.798 103.202V112.938C247.798 113.103 247.664 113.238 247.498 113.238H229.864C227.489 113.238 225.564 111.312 225.564 108.938V107.202C225.564 104.827 227.489 102.902 229.864 102.902H247.498Z" fill="#7EA82B" stroke="black" stroke-width="0.6" stroke-linejoin="round"/>
<path d="M245.634 123.759C245.634 123.916 245.512 124.047 245.355 124.058L230.211 125.14C230.193 125.141 230.175 125.141 230.157 125.139L220.421 124.057C220.27 124.04 220.155 123.912 220.155 123.759L220.155 123.432C220.155 121.057 222.08 119.132 224.455 119.132L241.334 119.132C243.709 119.132 245.634 121.057 245.634 123.432L245.634 123.759Z" fill="#7EA82B" stroke="black" stroke-width="0.6" stroke-linejoin="round"/>
<path d="M246.679 100.792C246.817 100.041 247.537 99.5442 248.288 99.6818C249.038 99.8194 249.535 100.539 249.398 101.29C249.306 101.788 249.214 102.321 249.12 102.888C248.714 105.359 248.299 108.457 247.95 111.994C246.667 125.015 246.305 143.775 250.454 159.092C250.653 159.829 250.218 160.588 249.481 160.787C248.745 160.987 247.986 160.551 247.786 159.815C243.652 144.549 243.884 126.152 245.072 113.074C242.949 112.851 240.071 112.651 237.225 112.658C234.418 112.665 231.791 112.877 229.949 113.392V127.249C229.949 132.098 229.787 139.669 229.297 146.635C229.052 150.117 228.724 153.469 228.29 156.265C227.866 158.996 227.313 161.393 226.535 162.819C226.17 163.489 225.331 163.736 224.661 163.371C223.991 163.005 223.744 162.166 224.109 161.496C224.629 160.543 225.132 158.593 225.559 155.841C225.977 153.153 226.298 149.886 226.54 146.441C227.024 139.556 227.186 132.052 227.186 127.249V101.041C227.186 100.278 227.804 99.6592 228.568 99.6592C229.331 99.6592 229.949 100.278 229.949 101.041V101.295C232.472 100.638 235.48 100.444 238.315 100.468C241.401 100.494 244.414 100.781 246.625 101.091C246.643 100.99 246.661 100.89 246.679 100.792ZM245.344 110.324C245.601 107.914 245.887 105.724 246.176 103.818C244.376 103.568 242.013 103.333 239.532 103.256L238.769 109.909C241.188 109.96 243.525 110.134 245.344 110.324ZM235.987 109.911L236.752 103.243C234.21 103.303 231.807 103.578 229.949 104.17V110.544C231.74 110.139 233.868 109.962 235.987 109.911Z" fill="#D8B74D" stroke="black" stroke-width="0.6" stroke-linecap="round" stroke-linejoin="round"/>
<path d="M219.98 123.46L219.98 123.459L219.967 123.459C219.204 123.43 218.562 124.024 218.533 124.786C218.504 125.547 219.094 126.187 219.854 126.22L226.379 126.759C226.461 126.766 226.542 126.739 226.603 126.685C226.664 126.631 226.701 126.554 226.704 126.472L226.787 124.31C226.793 124.15 226.672 124.013 226.512 124L219.98 123.46Z" fill="#AB9034" stroke="black" stroke-width="0.6" stroke-linecap="round" stroke-linejoin="round"/>
<path d="M230.511 134.91C230.457 134.969 230.428 135.046 230.431 135.126L230.515 137.287C230.521 137.453 230.66 137.582 230.825 137.576L245.387 137.036L245.387 137.036C246.15 137.006 246.744 136.364 246.715 135.602C246.686 134.839 246.044 134.245 245.281 134.274L245.282 134.274L230.511 134.91ZM230.511 134.91C230.565 134.852 230.64 134.817 230.72 134.814L245.281 134.274L230.511 134.91Z" fill="#D8B74D" stroke="black" stroke-width="0.6" stroke-linecap="round" stroke-linejoin="round"/>
<path d="M230.511 124.095C230.457 124.153 230.428 124.231 230.431 124.31L230.515 126.472C230.521 126.637 230.66 126.766 230.825 126.76L245.387 126.22L245.387 126.22C246.15 126.191 246.744 125.549 246.715 124.786C246.686 124.024 246.044 123.43 245.281 123.459L245.282 123.459L230.511 124.095ZM230.511 124.095C230.565 124.036 230.64 124.002 230.72 123.999L245.281 123.459L230.511 124.095Z" fill="#D8B74D" stroke="black" stroke-width="0.6" stroke-linecap="round" stroke-linejoin="round"/>
<path d="M150.58 78.7144C150.58 83.7391 146.507 87.8125 141.482 87.8125C136.457 87.8125 132.384 83.7391 132.384 78.7144C132.384 73.6897 136.457 69.6164 141.482 69.6164C146.507 69.6164 150.58 73.6897 150.58 78.7144Z" fill="#D39924"/>
<path d="M141.482 69.6164C136.457 69.6164 132.384 73.6897 132.384 78.7144C132.384 83.7391 136.457 87.8125 141.482 87.8125C146.507 87.8125 150.58 83.7391 150.58 78.7144C150.58 73.6897 146.507 69.6164 141.482 69.6164ZM141.482 69.6164V65.8701" stroke="black" stroke-width="0.6"/>
<path d="M176.269 80.9723C176.269 84.1587 173.633 86.7418 170.382 86.7418C167.131 86.7418 164.495 84.1587 164.495 80.9723C164.495 77.7859 167.131 75.2028 170.382 75.2028C173.633 75.2028 176.269 77.7859 176.269 80.9723Z" fill="#976B15"/>
<path d="M170.382 75.2028C167.131 75.2028 164.495 77.7859 164.495 80.9723C164.495 84.1587 167.131 86.7418 170.382 86.7418C173.633 86.7418 176.269 84.1587 176.269 80.9723C176.269 77.7859 173.633 75.2028 170.382 75.2028ZM170.382 75.2028V72.8271" stroke="black" stroke-width="0.6"/>
<path d="M223.365 78.7144C223.365 83.7391 219.292 87.8125 214.267 87.8125C209.242 87.8125 205.169 83.7391 205.169 78.7144C205.169 73.6897 209.242 69.6164 214.267 69.6164C219.292 69.6164 223.365 73.6897 223.365 78.7144Z" fill="#D39924"/>
<path d="M214.267 69.6164C209.242 69.6164 205.169 73.6897 205.169 78.7144C205.169 83.7391 209.242 87.8125 214.267 87.8125C219.292 87.8125 223.365 83.7391 223.365 78.7144C223.365 73.6897 219.292 69.6164 214.267 69.6164ZM214.267 69.6164V65.8701" stroke="black" stroke-width="0.6"/>
<rect x="136.986" y="20.1387" width="96.5916" height="21.8527" rx="4" transform="rotate(-1.59232 136.986 20.1387)" fill="#866224" stroke="black" stroke-width="0.6" stroke-linecap="round"/>
<rect x="134.393" y="18.3027" width="96.6401" height="21.8527" rx="4" transform="rotate(-1.59232 134.393 18.3027)" fill="#E9B965" stroke="black" stroke-width="0.6" stroke-linecap="round"/>
<path d="M152.305 31.2974C152.01 31.3056 151.761 31.2388 151.558 31.0971C151.363 30.9465 151.223 30.7423 151.138 30.4845C151.062 30.2439 151.011 29.9809 150.986 29.6955C150.969 29.4098 150.954 29.0071 150.939 28.4873C150.926 28.0021 150.894 27.6432 150.844 27.4105C150.803 27.1776 150.709 27.0631 150.562 27.0672C150.388 27.072 150.269 27.1534 150.204 27.3112C150.139 27.4605 150.11 27.6737 150.118 27.9509C150.125 28.2021 150.171 28.5953 150.255 29.1305C150.266 29.2343 150.288 29.3984 150.32 29.6229C150.353 29.8474 150.371 30.0333 150.375 30.1806C150.387 30.5964 150.299 30.8937 150.114 31.0722C149.937 31.2505 149.67 31.3446 149.315 31.3545C148.891 31.3663 148.516 31.147 148.191 30.6965C147.867 30.246 147.617 29.6807 147.442 29.0007C147.267 28.3119 147.17 27.634 147.151 26.9669C147.129 26.1699 147.221 25.4261 147.428 24.7354C147.642 24.0445 147.974 23.4848 148.421 23.0561C148.878 22.6273 149.435 22.4037 150.093 22.3854C150.648 22.37 151.094 22.531 151.433 22.8684C151.772 23.1971 152.004 23.6025 152.13 24.0845C152.212 23.6053 152.413 23.1879 152.733 22.8323C153.061 22.4763 153.498 22.2908 154.044 22.2756C154.693 22.2575 155.254 22.4457 155.724 22.8401C156.203 23.2256 156.574 23.7746 156.836 24.4869C157.107 25.1989 157.256 26.0271 157.282 26.9714C157.3 27.5865 157.231 28.2257 157.076 28.8889C156.92 29.5435 156.693 30.0917 156.393 30.5335C156.093 30.9754 155.744 31.2018 155.346 31.2129C154.982 31.223 154.702 31.1397 154.506 30.9631C154.311 30.7865 154.207 30.4902 154.196 30.0744C154.19 29.8838 154.215 29.5277 154.27 29.0059C154.324 28.4495 154.347 28.0501 154.341 27.8075C154.325 27.2444 154.165 26.967 153.862 26.9755C153.706 26.9798 153.61 27.1082 153.574 27.3606C153.546 27.6128 153.536 28.0206 153.543 28.584C153.555 29.0085 153.556 29.3639 153.546 29.6503C153.537 29.928 153.505 30.1846 153.451 30.4202C153.389 30.6734 153.256 30.8808 153.052 31.0426C152.857 31.204 152.608 31.289 152.305 31.2974ZM160.135 31.0797C159.459 31.0985 158.901 30.9623 158.459 30.6712C158.017 30.3713 157.788 29.9312 157.772 29.3507C157.758 28.8483 157.968 28.4436 158.402 28.1368C158.835 27.8299 159.381 27.6674 160.04 27.6491C160.282 27.6423 160.508 27.6577 160.717 27.6953C160.935 27.7239 161.083 27.7631 161.163 27.8129C161.157 27.5963 161.061 27.4213 160.875 27.2877C160.689 27.1455 160.41 27.0796 160.037 27.0899C159.873 27.0945 159.739 27.1112 159.635 27.1401C159.532 27.169 159.421 27.2111 159.301 27.2665C159.181 27.3218 159.069 27.3639 158.966 27.3928C158.872 27.4214 158.742 27.438 158.577 27.4426C158.3 27.4503 158.082 27.387 157.922 27.2528C157.762 27.1098 157.678 26.8911 157.67 26.5965C157.66 26.2587 157.774 25.9694 158.01 25.7287C158.254 25.4878 158.561 25.3059 158.931 25.1829C159.3 25.0513 159.671 24.9803 160.043 24.9699C160.78 24.9495 161.399 25.071 161.9 25.3345C162.41 25.5891 162.788 25.9384 163.035 26.3824C163.29 26.8261 163.425 27.3209 163.44 27.8667C163.448 28.1612 163.43 28.4348 163.385 28.6875C163.349 28.94 163.293 29.1366 163.219 29.2773C163.343 29.3779 163.438 29.4967 163.502 29.6336C163.575 29.7703 163.614 29.9123 163.618 30.0596C163.625 30.3108 163.545 30.5298 163.376 30.7165C163.217 30.903 162.998 31.0002 162.721 31.0079C162.513 31.0136 162.343 30.988 162.212 30.931C162.08 30.8739 161.939 30.7825 161.788 30.6567C161.575 30.7926 161.339 30.8945 161.081 30.9624C160.832 31.03 160.516 31.0691 160.135 31.0797ZM160.359 29.76C160.54 29.755 160.682 29.712 160.784 29.6311C160.895 29.55 160.948 29.4532 160.945 29.3406C160.942 29.2279 160.883 29.1342 160.768 29.0594C160.662 28.9843 160.518 28.9493 160.336 28.9543C160.154 28.9594 160.008 29.0025 159.898 29.0836C159.796 29.1644 159.746 29.2612 159.75 29.3738C159.753 29.4864 159.807 29.5803 159.913 29.6554C160.028 29.7302 160.177 29.7651 160.359 29.76ZM165.557 30.929C165.003 30.9444 164.621 30.6299 164.412 29.9855C164.212 29.3408 164.097 28.4466 164.065 27.3031C164.05 26.7833 164.06 26.3495 164.094 26.0018C164.136 25.6451 164.244 25.343 164.42 25.0954C164.603 24.8388 164.89 24.7052 165.28 24.6943C165.522 24.6876 165.736 24.738 165.921 24.8456C166.115 24.9529 166.241 25.1098 166.298 25.3163C166.484 25.1377 166.727 25.0009 167.028 24.9058C167.329 24.8108 167.653 24.7584 167.999 24.7488C168.277 24.7411 168.56 24.8025 168.85 24.9332C169.148 25.0636 169.396 25.2475 169.593 25.4848C169.799 25.7131 169.906 25.9659 169.914 26.2432C169.921 26.5204 169.829 26.7701 169.635 26.9922C169.45 27.2054 169.198 27.3165 168.877 27.3254C168.773 27.3283 168.673 27.318 168.577 27.2947C168.49 27.2711 168.411 27.2473 168.341 27.2232C168.166 27.1587 168.026 27.1279 167.922 27.1308C167.585 27.1402 167.289 27.2828 167.037 27.5586C166.793 27.8255 166.677 28.1668 166.688 28.5827C166.701 29.0418 166.694 29.4235 166.668 29.7277C166.642 30.0319 166.546 30.3076 166.379 30.555C166.212 30.7938 165.938 30.9184 165.557 30.929ZM175.479 27.428C175.614 27.5889 175.83 27.8907 176.129 28.3333C176.481 28.861 176.663 29.3111 176.673 29.6836C176.682 29.9869 176.588 30.2192 176.394 30.3807C176.198 30.5335 175.967 30.6136 175.698 30.6211C175.447 30.6281 175.188 30.5312 174.923 30.3305C174.666 30.1296 174.394 29.8554 174.106 29.5079C173.801 29.1262 173.598 28.8544 173.499 28.6925C173.387 28.7389 173.263 28.7857 173.125 28.8329C173.083 29.4843 172.975 29.9599 172.801 30.2595C172.627 30.5591 172.354 30.7141 171.981 30.7244C171.6 30.735 171.293 30.5875 171.059 30.2819C170.825 29.9763 170.647 29.4957 170.524 28.8402C170.411 28.1844 170.339 27.3151 170.309 26.2322C170.28 25.2012 170.288 24.373 170.331 23.7476C170.383 23.1132 170.516 22.611 170.731 22.2409C170.946 21.8621 171.279 21.6665 171.729 21.6539C172.102 21.6436 172.383 21.7658 172.572 22.0207C172.77 22.2753 172.901 22.6314 172.966 23.0891C173.039 23.5379 173.086 24.1435 173.107 24.9059L173.13 25.7246L173.168 25.6975C173.661 25.3457 174.096 25.0692 174.472 24.868C174.856 24.6665 175.204 24.5615 175.516 24.5528C175.871 24.5429 176.152 24.6565 176.358 24.8936C176.572 25.1217 176.684 25.383 176.692 25.6776C176.701 25.9895 176.605 26.2782 176.404 26.5439C176.203 26.8096 175.895 27.1043 175.479 27.428ZM180.347 30.5179C179.706 30.5357 179.135 30.4259 178.634 30.1883C178.134 29.9508 177.738 29.6107 177.449 29.1679C177.167 28.7162 177.019 28.2045 177.003 27.6327C176.987 27.0696 177.107 26.5461 177.362 26.0621C177.626 25.5779 177.997 25.1861 178.474 24.8868C178.951 24.5874 179.497 24.4291 180.112 24.412C180.667 24.3966 181.16 24.4956 181.59 24.7091C182.021 24.9225 182.354 25.2124 182.59 25.5787C182.825 25.9363 182.948 26.3143 182.959 26.7128C182.978 27.3626 182.744 27.8459 182.259 28.1629C181.782 28.4709 181.205 28.6343 180.529 28.6531C180.079 28.6656 179.696 28.6199 179.381 28.5159C179.653 28.9332 180.088 29.1336 180.685 29.1169C180.928 29.1102 181.187 29.0727 181.463 29.0043C181.566 28.9754 181.665 28.9597 181.76 28.957C181.951 28.9517 182.104 28.9951 182.219 29.0873C182.343 29.1792 182.407 29.3075 182.412 29.4721C182.419 29.7407 182.261 29.9791 181.938 30.1876C181.614 30.3873 181.084 30.4974 180.347 30.5179ZM179.376 26.9295C179.457 27.0486 179.564 27.1367 179.696 27.1937C179.836 27.2418 179.988 27.2636 180.153 27.259C180.343 27.2537 180.507 27.2058 180.643 27.1154C180.788 27.0246 180.858 26.91 180.854 26.7713C180.85 26.6154 180.781 26.4829 180.648 26.3739C180.524 26.2647 180.345 26.2133 180.111 26.2198C179.877 26.2263 179.693 26.3051 179.558 26.4562C179.432 26.5985 179.371 26.7562 179.376 26.9295ZM189.641 24.6283C189.654 25.0788 189.45 25.3923 189.03 25.5687C188.61 25.7364 188.032 25.8349 187.296 25.864C187.293 26.0808 187.298 26.4318 187.312 26.917C187.326 27.4108 187.37 27.7607 187.445 27.9667C187.493 28.1127 187.56 28.2062 187.648 28.2471C187.744 28.2878 187.884 28.3143 188.066 28.3265C188.127 28.3335 188.193 28.3447 188.262 28.3601C188.341 28.3666 188.428 28.3772 188.523 28.3919C188.724 28.4296 188.883 28.5336 189 28.7037C189.117 28.8652 189.18 29.0759 189.187 29.3358C189.195 29.6303 189.05 29.8641 188.751 30.0372C188.453 30.2102 188.039 30.3041 187.51 30.3188C187.025 30.3322 186.558 30.2065 186.108 29.9416C185.659 29.668 185.345 29.2952 185.167 28.8233C184.98 28.317 184.866 27.3534 184.827 25.9326C184.22 25.9322 183.728 25.8678 183.352 25.7395C182.984 25.6024 182.795 25.3475 182.784 24.975C182.771 24.5072 182.936 24.1905 183.278 24.0249C183.62 23.8507 184.116 23.7502 184.765 23.7235C184.772 23.0297 184.864 22.4506 185.042 21.9861C185.22 21.513 185.555 21.2696 186.049 21.2559C186.552 21.2419 186.882 21.4494 187.042 21.8785C187.21 22.3073 187.296 22.8989 187.299 23.653C188.087 23.6225 188.669 23.667 189.046 23.7866C189.43 23.9059 189.629 24.1865 189.641 24.6283ZM191.178 32.0765C190.754 32.0883 190.44 31.8803 190.238 31.4524C190.035 31.0332 189.905 30.5513 189.846 30.0067C189.797 29.4619 189.759 28.7433 189.734 27.851C189.715 27.1666 189.725 26.5638 189.762 26.0425C189.808 25.521 189.93 25.0668 190.127 24.6799C190.325 24.2929 190.636 24.0935 191.06 24.0817C191.502 24.0694 191.827 24.2338 192.036 24.5748C192.231 24.422 192.475 24.2981 192.767 24.2033C193.068 24.0996 193.383 24.0432 193.712 24.034C194.266 24.0186 194.781 24.143 195.257 24.4072C195.732 24.6714 196.115 25.0336 196.406 25.4937C196.696 25.9538 196.849 26.4611 196.864 27.0156C196.879 27.57 196.755 28.0893 196.491 28.5735C196.227 29.0491 195.865 29.4319 195.405 29.7222C194.945 30.0124 194.437 30.1652 193.883 30.1806C193.545 30.19 193.227 30.1555 192.931 30.077C192.633 29.9899 192.379 29.8713 192.166 29.7211C192.182 30.2756 192.176 30.7049 192.15 31.0091C192.124 31.3133 192.035 31.5628 191.885 31.7578C191.743 31.9611 191.508 32.0674 191.178 32.0765ZM193.758 28.0253C193.983 28.019 194.176 27.9313 194.336 27.7621C194.504 27.584 194.585 27.3824 194.579 27.1571C194.573 26.9319 194.481 26.7393 194.303 26.5796C194.133 26.4109 193.936 26.3297 193.711 26.3359C193.486 26.3422 193.289 26.4344 193.12 26.6124C192.96 26.7816 192.883 26.9788 192.89 27.2041C192.896 27.4293 192.984 27.6263 193.153 27.795C193.331 27.9548 193.533 28.0315 193.758 28.0253ZM199.113 29.9702C198.68 29.9823 198.35 29.831 198.125 29.5165C197.899 29.202 197.739 28.7339 197.644 28.1123C197.557 27.4818 197.498 26.6035 197.466 25.4772C197.436 24.3943 197.439 23.5489 197.474 22.941C197.518 22.3329 197.643 21.8439 197.849 21.474C198.064 21.1039 198.406 20.9124 198.874 20.8994C199.342 20.8864 199.689 21.0588 199.915 21.4166C200.151 21.7742 200.303 22.2555 200.372 22.8605C200.449 23.4652 200.503 24.3091 200.533 25.392C200.563 26.4576 200.539 27.3209 200.462 27.982C200.394 28.6341 200.251 29.1279 200.035 29.4634C199.819 29.7902 199.511 29.9591 199.113 29.9702ZM203.397 29.8771C202.721 29.8959 202.162 29.7597 201.721 29.4686C201.279 29.1687 201.05 28.7286 201.034 28.1481C201.02 27.6457 201.23 27.241 201.663 26.9342C202.097 26.6273 202.643 26.4648 203.301 26.4465C203.544 26.4397 203.77 26.4551 203.979 26.4927C204.196 26.5213 204.345 26.5605 204.424 26.6103C204.418 26.3937 204.322 26.2187 204.137 26.0851C203.951 25.9429 203.671 25.877 203.299 25.8873C203.134 25.8919 203 25.9086 202.897 25.9375C202.794 25.9664 202.682 26.0085 202.562 26.0638C202.443 26.1192 202.331 26.1613 202.228 26.1902C202.133 26.2188 202.004 26.2354 201.839 26.24C201.562 26.2477 201.343 26.1844 201.184 26.0502C201.024 25.9072 200.939 25.6885 200.931 25.3939C200.922 25.056 201.035 24.7668 201.271 24.5261C201.516 24.2852 201.823 24.1033 202.192 23.9803C202.562 23.8487 202.932 23.7777 203.305 23.7673C204.041 23.7469 204.66 23.8684 205.162 24.1319C205.672 24.3865 206.05 24.7358 206.296 25.1798C206.551 25.6235 206.687 26.1183 206.702 26.6641C206.71 26.9586 206.692 27.2322 206.647 27.4849C206.61 27.7374 206.555 27.934 206.481 28.0747C206.605 28.1753 206.699 28.2941 206.764 28.431C206.837 28.5677 206.876 28.7097 206.88 28.857C206.887 29.1082 206.806 29.3272 206.638 29.5139C206.478 29.7004 206.26 29.7975 205.983 29.8053C205.775 29.811 205.605 29.7854 205.473 29.7284C205.342 29.6713 205.201 29.5799 205.05 29.454C204.837 29.59 204.601 29.6919 204.343 29.7598C204.093 29.8274 203.778 29.8665 203.397 29.8771ZM203.62 28.5574C203.802 28.5524 203.944 28.5094 204.046 28.4285C204.156 28.3474 204.21 28.2506 204.207 28.138C204.204 28.0253 204.145 27.9316 204.03 27.8568C203.924 27.7817 203.78 27.7467 203.598 27.7517C203.416 27.7568 203.27 27.7999 203.159 27.881C203.057 27.9618 203.008 28.0586 203.011 28.1712C203.014 28.2838 203.069 28.3777 203.175 28.4527C203.29 28.5276 203.438 28.5625 203.62 28.5574ZM210.485 29.6671C209.93 29.6825 209.402 29.5628 208.901 29.308C208.408 29.0442 208.008 28.6825 207.701 28.2229C207.393 27.7633 207.231 27.2432 207.215 26.6628C207.198 26.0564 207.326 25.5239 207.6 25.0655C207.882 24.5981 208.257 24.2366 208.727 23.9807C209.205 23.7247 209.722 23.5889 210.276 23.5735C210.805 23.5588 211.284 23.6496 211.714 23.8457C212.145 24.0418 212.482 24.3055 212.725 24.6369C212.968 24.9596 213.094 25.3029 213.105 25.6668C213.113 25.97 213.024 26.2065 212.838 26.3764C212.661 26.5461 212.39 26.636 212.026 26.6461C211.836 26.6514 211.688 26.6208 211.582 26.5544C211.476 26.488 211.365 26.387 211.248 26.2516C211.141 26.1245 211.038 26.032 210.941 25.974C210.853 25.9071 210.726 25.8759 210.562 25.8805C210.328 25.887 210.131 25.9748 209.971 26.144C209.81 26.3045 209.734 26.5104 209.741 26.7617C209.748 27.0216 209.832 27.2273 209.992 27.3789C210.161 27.5303 210.367 27.6026 210.609 27.5958C210.765 27.5915 210.886 27.5665 210.971 27.5207C211.057 27.475 211.15 27.4031 211.251 27.3049C211.37 27.1976 211.48 27.1208 211.583 27.0746C211.686 27.0197 211.837 26.9895 212.036 26.984C212.391 26.9741 212.667 27.0618 212.862 27.2471C213.058 27.4324 213.16 27.6507 213.167 27.9019C213.175 28.1964 213.066 28.4769 212.839 28.7433C212.621 29.0095 212.306 29.2263 211.895 29.3938C211.483 29.5613 211.013 29.6524 210.485 29.6671ZM216.997 29.4991C216.356 29.5169 215.785 29.407 215.284 29.1695C214.784 28.932 214.388 28.5919 214.098 28.1491C213.817 27.6974 213.669 27.1857 213.653 26.6139C213.637 26.0508 213.757 25.5272 214.012 25.0433C214.276 24.5591 214.647 24.1673 215.124 23.8679C215.601 23.5686 216.147 23.4103 216.762 23.3932C217.317 23.3778 217.809 23.4768 218.24 23.6903C218.671 23.9037 219.004 24.1936 219.24 24.5598C219.475 24.9174 219.598 25.2955 219.609 25.694C219.627 26.3438 219.394 26.8271 218.908 27.144C218.431 27.4521 217.855 27.6155 217.179 27.6343C216.729 27.6468 216.346 27.6011 216.031 27.4971C216.303 27.9144 216.738 28.1147 217.335 28.0981C217.578 28.0914 217.837 28.0538 218.112 27.9855C218.216 27.9566 218.315 27.9408 218.41 27.9382C218.601 27.9329 218.754 27.9763 218.869 28.0685C218.993 28.1604 219.057 28.2887 219.062 28.4533C219.069 28.7219 218.911 28.9603 218.588 29.1687C218.264 29.3685 217.734 29.4786 216.997 29.4991ZM216.026 25.9107C216.107 26.0298 216.214 26.1179 216.345 26.1749C216.486 26.223 216.638 26.2448 216.802 26.2402C216.993 26.2349 217.156 26.187 217.293 26.0965C217.438 26.0058 217.508 25.8911 217.504 25.7525C217.5 25.5966 217.431 25.4641 217.298 25.3551C217.174 25.2459 216.995 25.1945 216.761 25.201C216.527 25.2075 216.342 25.2863 216.208 25.4374C216.082 25.5797 216.021 25.7374 216.026 25.9107Z" fill="#473013"/>
<ellipse cx="164.987" cy="106.155" rx="11.7673" ry="3.53019" fill="#D7AD83" stroke="black" stroke-width="0.6"/>
<path d="M164.987 109.685C171.486 109.685 176.754 108.331 176.754 106.155C176.754 109.98 174.905 117.194 167.929 118.784C167.035 118.988 166.056 119.099 164.987 119.099C163.678 119.099 162.505 118.932 161.457 118.634C154.964 116.783 153.22 109.87 153.22 106.155C153.22 108.331 158.488 109.685 164.987 109.685Z" fill="#737A18"/>
<path d="M167.929 118.784C167.035 118.988 166.056 119.099 164.987 119.099C163.678 119.099 162.505 118.932 161.457 118.634M167.929 118.784C174.905 117.194 176.754 109.98 176.754 106.155C176.754 108.331 171.486 109.685 164.987 109.685C158.488 109.685 153.22 108.331 153.22 106.155C153.22 109.87 154.964 116.783 161.457 118.634M167.929 118.784C168.713 118.514 170.4 117.186 170.871 114.034M161.457 118.634C160.672 117.663 159.103 115.272 159.103 113.471" stroke="black" stroke-width="0.6" stroke-linecap="round" stroke-linejoin="round"/>
<path d="M174.101 106.155C174.101 106.309 173.969 106.541 173.508 106.813C173.068 107.074 172.41 107.319 171.571 107.528C169.897 107.947 167.569 108.209 164.987 108.209C162.405 108.209 160.077 107.947 158.403 107.528C157.564 107.319 156.906 107.074 156.466 106.813C156.005 106.541 155.873 106.309 155.873 106.155C155.873 106.002 156.005 105.77 156.466 105.497C156.906 105.237 157.564 104.992 158.403 104.782C160.077 104.364 162.405 104.102 164.987 104.102C167.569 104.102 169.897 104.364 171.571 104.782C172.41 104.992 173.068 105.237 173.508 105.497C173.969 105.77 174.101 106.002 174.101 106.155Z" fill="#D5FFFF" stroke="black" stroke-width="0.6"/>
<path d="M159.957 99.1877L159.957 99.1877L159.954 99.1803C159.885 98.9974 159.731 98.8599 159.542 98.8125L154.835 97.6358C154.516 97.5562 154.194 97.7498 154.114 98.0681C154.035 98.3865 154.228 98.7091 154.547 98.7887L158.946 99.8885L161.211 106.459L161.211 106.459L161.213 106.467C161.329 106.774 161.671 106.93 161.978 106.815C162.284 106.7 162.44 106.36 162.328 106.054L159.957 99.1877Z" fill="white" stroke="black" stroke-width="0.6" stroke-linecap="round" stroke-linejoin="round"/>
<path d="M171.079 97.1534C173.898 98.0522 174.401 101.034 174.401 101.917L169.694 100.328L164.987 98.7383C165.91 97.8554 167.756 96.0942 171.079 97.1534Z" fill="#FF888A"/>
<path d="M171.079 97.1534C173.898 98.0522 174.401 101.034 174.401 101.917L169.694 100.328M171.079 97.1534C167.756 96.0942 165.91 97.8554 164.987 98.7383L169.694 100.328M171.079 97.1534L171.632 95.5645M169.694 100.328L167.756 106.155" stroke="black" stroke-width="0.6" stroke-linecap="round" stroke-linejoin="round"/>
<path d="M157.083 126.679C157.11 125.9 156.5 125.246 155.721 125.219C154.942 125.193 154.289 125.802 154.262 126.581C154.071 132.107 155.054 146.702 160.459 161.565C160.725 162.298 161.535 162.676 162.267 162.409C163 162.143 163.378 161.333 163.111 160.6C157.847 146.123 156.903 131.896 157.083 126.679Z" fill="#9B683C" stroke="black" stroke-width="0.6" stroke-linecap="round" stroke-linejoin="round"/>
<path d="M138.688 125.557C138.669 124.778 139.285 124.13 140.064 124.111C140.843 124.091 141.491 124.707 141.51 125.486C141.647 130.968 140.939 145.514 137.033 160.334C136.835 161.088 136.063 161.538 135.309 161.339C134.555 161.141 134.105 160.368 134.304 159.615C138.131 145.094 138.82 130.819 138.688 125.557Z" fill="#9B683C" stroke="black" stroke-width="0.6" stroke-linecap="round" stroke-linejoin="round"/>
<path d="M154.93 134.796L154.93 134.796L154.943 134.794C155.718 134.716 156.411 135.28 156.49 136.056C156.568 136.821 156.019 137.505 155.26 137.599L152.097 138.584C152.006 138.612 151.907 138.596 151.83 138.539C151.753 138.483 151.708 138.393 151.708 138.298L151.708 135.523C151.708 135.374 151.817 135.248 151.964 135.226L154.93 134.796Z" fill="#AB9034" stroke="black" stroke-width="0.6" stroke-linecap="round" stroke-linejoin="round"/>
<path d="M130.11 102.994C129.945 102.994 129.81 103.128 129.81 103.294V113.296C129.81 113.462 129.945 113.596 130.11 113.596H148.338C150.713 113.596 152.638 111.671 152.638 109.296V107.294C152.638 104.919 150.713 102.994 148.338 102.994H130.11Z" fill="#7EA82B" stroke="black" stroke-width="0.6" stroke-linejoin="round"/>
<path d="M132.034 124.407C132.034 124.565 132.156 124.695 132.313 124.706L147.872 125.818C147.89 125.819 147.908 125.819 147.926 125.817L157.929 124.705C158.081 124.688 158.196 124.56 158.196 124.407L158.196 123.962C158.196 121.587 156.271 119.662 153.896 119.662L136.334 119.662C133.959 119.662 132.034 121.587 132.034 123.962L132.034 124.407Z" fill="#7EA82B" stroke="black" stroke-width="0.6" stroke-linejoin="round"/>
<path d="M130.943 100.816C130.803 100.049 130.067 99.5418 129.301 99.6823C128.534 99.8229 128.026 100.558 128.167 101.325C128.261 101.836 128.356 102.384 128.452 102.967C128.869 105.506 129.296 108.689 129.654 112.323C130.973 125.701 131.344 144.977 127.081 160.716C126.878 161.469 127.322 162.244 128.075 162.447C128.827 162.651 129.602 162.207 129.806 161.454C134.054 145.768 133.816 126.863 132.594 113.427C134.776 113.197 137.737 112.991 140.665 112.998C143.553 113.006 146.255 113.223 148.149 113.754V127.997C148.149 132.979 148.316 140.758 148.819 147.915C149.07 151.492 149.407 154.936 149.853 157.808C150.289 160.614 150.857 163.076 151.655 164.539C152.028 165.224 152.886 165.476 153.57 165.103C154.254 164.729 154.506 163.872 154.133 163.188C153.598 162.207 153.082 160.202 152.643 157.375C152.213 154.613 151.883 151.256 151.635 147.717C151.137 140.643 150.971 132.933 150.971 127.997V101.071C150.971 100.291 150.339 99.6592 149.56 99.6592C148.78 99.6592 148.149 100.291 148.149 101.071V101.343C145.556 100.666 142.461 100.466 139.546 100.49C136.372 100.517 133.272 100.812 131 101.131C130.981 101.025 130.962 100.92 130.943 100.816ZM132.317 110.618C132.052 108.135 131.757 105.879 131.459 103.917C133.312 103.659 135.747 103.417 138.302 103.338L139.088 110.19C136.596 110.242 134.188 110.421 132.317 110.618ZM141.929 110.192L141.141 103.324C143.76 103.386 146.236 103.669 148.149 104.279V110.845C146.305 110.427 144.113 110.244 141.929 110.192Z" fill="#D8B74D" stroke="black" stroke-width="0.6" stroke-linecap="round" stroke-linejoin="round"/>
<path d="M158.384 124.112L158.384 124.112L158.397 124.111C159.176 124.081 159.831 124.688 159.861 125.467C159.891 126.244 159.288 126.898 158.512 126.932L151.808 127.486C151.726 127.493 151.645 127.466 151.584 127.412C151.523 127.357 151.486 127.28 151.483 127.198L151.398 124.977C151.391 124.817 151.513 124.68 151.673 124.667L158.384 124.112Z" fill="#AB9034" stroke="black" stroke-width="0.6" stroke-linecap="round" stroke-linejoin="round"/>
<path d="M147.558 135.874C147.612 135.933 147.641 136.01 147.637 136.09L147.552 138.311C147.546 138.476 147.407 138.605 147.241 138.599L132.28 138.044L132.28 138.044C131.501 138.014 130.894 137.359 130.924 136.58C130.954 135.801 131.609 135.194 132.388 135.224L132.388 135.224L147.558 135.874ZM147.558 135.874C147.504 135.816 147.428 135.781 147.349 135.778L132.388 135.224L147.558 135.874Z" fill="#D8B74D" stroke="black" stroke-width="0.6" stroke-linecap="round" stroke-linejoin="round"/>
<path d="M147.558 124.762C147.612 124.82 147.641 124.898 147.637 124.977L147.552 127.198C147.546 127.364 147.407 127.493 147.241 127.487L132.28 126.932L132.28 126.932C131.501 126.902 130.894 126.246 130.924 125.467C130.954 124.688 131.609 124.081 132.388 124.111L132.388 124.111L147.558 124.762ZM147.558 124.762C147.504 124.703 147.428 124.669 147.349 124.666L132.388 124.111L147.558 124.762Z" fill="#D8B74D" stroke="black" stroke-width="0.6" stroke-linecap="round" stroke-linejoin="round"/>
<defs>
<filter id="filter0_i_30956_2685" x="178.532" y="94.4775" width="12.3223" height="9.56348" filterUnits="userSpaceOnUse" color-interpolation-filters="sRGB">
<feFlood flood-opacity="0" result="BackgroundImageFix"/>
<feBlend mode="normal" in="SourceGraphic" in2="BackgroundImageFix" result="shape"/>
<feColorMatrix in="SourceAlpha" type="matrix" values="0 0 0 0 0 0 0 0 0 0 0 0 0 0 0 0 0 0 127 0" result="hardAlpha"/>
<feOffset dx="-11" dy="-3"/>
<feComposite in2="hardAlpha" operator="arithmetic" k2="-1" k3="1"/>
<feColorMatrix type="matrix" values="0 0 0 0 0.992157 0 0 0 0 0.647059 0 0 0 0 0.0666667 0 0 0 1 0"/>
<feBlend mode="normal" in2="shape" result="effect1_innerShadow_30956_2685"/>
</filter>
<linearGradient id="paint0_linear_30956_2685" x1="189.342" y1="102.115" x2="179.663" y2="97.3641" gradientUnits="userSpaceOnUse">
<stop stop-color="#FFE588"/>
<stop offset="1" stop-color="#FEFFF3"/>
</linearGradient>
<linearGradient id="paint1_linear_30956_2685" x1="184.571" y1="92.6358" x2="184.571" y2="96.2977" gradientUnits="userSpaceOnUse">
<stop stop-color="#4FCBD3"/>
<stop offset="1" stop-color="#148D91"/>
</linearGradient>
<linearGradient id="paint2_linear_30956_2685" x1="184.571" y1="91.417" x2="184.571" y2="95.0789" gradientUnits="userSpaceOnUse">
<stop stop-color="white" stop-opacity="0.34"/>
<stop offset="1" stop-color="white"/>
</linearGradient>
</defs>
</svg>
