<svg width="365" height="208" viewBox="0 0 365 208" fill="none" xmlns="http://www.w3.org/2000/svg">
<path d="M358.967 165.846C360.59 166.48 361.61 167.107 362.139 167.695C362.398 167.982 362.522 168.241 362.562 168.47C362.6 168.695 362.565 168.935 362.429 169.204C362.142 169.769 361.431 170.419 360.203 171.121C358.992 171.814 357.346 172.52 355.289 173.231C347.052 176.078 332.503 178.91 313.864 181.364C276.606 186.268 223.151 189.641 171.546 188.642C119.934 187.642 72.4732 183.614 40.7559 178.823C24.8856 176.426 12.9962 173.842 6.49872 171.365C4.87645 170.747 3.6109 170.142 2.7098 169.56C1.79079 168.967 1.3288 168.446 1.18407 168.026C1.11706 167.832 1.11622 167.655 1.17361 167.48C1.23357 167.297 1.36742 167.085 1.61785 166.849C2.12719 166.369 3.03874 165.866 4.43443 165.365C26.5192 157.44 45.9381 148.903 63.9355 140.99C74.2567 136.452 84.1103 132.12 93.7312 128.227C120.158 117.533 144.911 110.111 173.057 110.656C224.646 111.656 250.999 117.614 274.487 127.219C284.131 131.163 293.294 135.722 303.536 140.818C305.784 141.936 308.083 143.08 310.45 144.249C323.604 150.744 338.846 157.998 358.967 165.846Z" fill="#FFF5A9" stroke="black"/>
<path d="M363.36 202.036C363.615 202.136 363.748 202.223 363.81 202.278C363.771 202.326 363.689 202.407 363.528 202.513C363.313 202.656 363.007 202.812 362.604 202.979C360.984 203.649 358.083 204.366 354.323 205.012C346.823 206.301 336.053 207.283 325.657 207.082C315.269 206.881 305.719 205.315 299.347 203.6C296.151 202.739 293.795 201.852 292.533 201.1C292.22 200.913 291.991 200.745 291.837 200.599C291.697 200.466 291.648 200.379 291.633 200.34C291.672 200.298 291.781 200.215 292.031 200.125C292.351 200.01 292.669 199.896 292.984 199.783C306.478 194.939 314.903 191.914 325.947 192.128C337.257 192.347 347.114 195.699 363.36 202.036Z" fill="#FFF5A9" stroke="black"/>
<path d="M181.447 128.766C181.818 128.677 182.201 128.648 182.582 128.682L295.763 138.823C299.707 139.176 300.123 144.779 296.273 145.711L221.146 163.887C220.775 163.977 220.391 164.006 220.011 163.971L106.83 153.831C102.886 153.477 102.47 147.874 106.319 146.943L181.447 128.766Z" fill="#FFC9A3" stroke="black"/>
<ellipse cx="48.07" cy="7.2105" rx="48.07" ry="7.2105" transform="matrix(-0.999974 0.00724792 0.00724792 0.999974 245.449 143.932)" fill="black" fill-opacity="0.2"/>
<ellipse cx="26.0797" cy="7.6912" rx="26.0797" ry="7.6912" transform="matrix(-0.999974 0.00724792 0.00724792 0.999974 103.336 156.85)" fill="black" fill-opacity="0.2"/>
<path d="M188.702 78.4744L120.771 78.9668L138.559 113.128L208.631 114.511L188.702 78.4744Z" fill="#AFA05E"/>
<path d="M208.631 114.511L188.702 78.4744L120.771 78.9668L138.559 113.128M208.631 114.511L138.559 113.128M208.631 114.511L221.004 137.104M138.559 113.128L148.068 131.726" stroke="black"/>
<path d="M189.014 78.4728L116.726 78.9985L95.5027 117.43L169.932 118.779L189.014 78.4728Z" fill="#F7E697"/>
<path d="M169.932 118.779L189.014 78.4728L116.726 78.9985L95.5027 117.43M169.932 118.779L95.5027 117.43M169.932 118.779L156.456 150.302M95.5027 117.43L79.1626 144.957" stroke="black"/>
<path fill-rule="evenodd" clip-rule="evenodd" d="M81.0406 169.529C94.8475 169.594 106.054 166.671 106.103 156.255C106.153 145.838 94.9738 142.809 81.1668 142.744C67.3598 142.679 56.1545 145.305 56.104 156.019C56.0591 165.543 67.2336 169.464 81.0406 169.529ZM72.8576 155.678C75.437 153.78 86.1315 152.504 90.5726 155.248C88.7355 156.309 75.626 156.938 72.8576 155.678Z" fill="#FF97D0"/>
<path d="M106.103 156.255L105.603 156.252L106.103 156.255ZM81.0406 169.529L81.0382 170.029L81.0406 169.529ZM81.1668 142.744L81.1692 142.244L81.1692 142.244L81.1668 142.744ZM56.104 156.019L56.604 156.021L56.104 156.019ZM72.8576 155.678L72.5612 155.276L71.8752 155.781L72.6506 156.134L72.8576 155.678ZM90.5726 155.248L90.8226 155.681L91.5474 155.263L90.8354 154.823L90.5726 155.248ZM105.603 156.252C105.592 158.761 104.91 160.792 103.705 162.437C102.496 164.087 100.738 165.379 98.5273 166.366C94.0932 168.346 87.927 169.062 81.0429 169.029L81.0382 170.029C87.9611 170.062 94.3019 169.348 98.9351 167.279C101.259 166.241 103.174 164.854 104.512 163.028C105.853 161.197 106.591 158.956 106.603 156.257L105.603 156.252ZM81.1645 143.244C88.0485 143.276 94.2077 144.05 98.6229 146.072C100.824 147.08 102.57 148.388 103.763 150.05C104.953 151.706 105.615 153.743 105.603 156.252L106.603 156.257C106.616 153.557 105.9 151.31 104.575 149.466C103.255 147.628 101.353 146.222 99.0393 145.163C94.4258 143.05 88.0921 142.277 81.1692 142.244L81.1645 143.244ZM56.604 156.021C56.6162 153.435 57.2995 151.367 58.5042 149.709C59.7122 148.047 61.4687 146.766 63.6775 145.797C68.1106 143.854 74.2754 143.212 81.1645 143.244L81.1692 142.244C74.2512 142.211 67.9099 142.85 63.276 144.881C60.9512 145.901 59.0339 147.28 57.6953 149.122C56.3533 150.968 55.617 153.246 55.604 156.017L56.604 156.021ZM81.0429 169.029C74.1734 168.997 68.0132 168.004 63.5952 165.871C59.1975 163.748 56.5827 160.534 56.604 156.021L55.604 156.017C55.5804 161.028 58.5304 164.536 63.1605 166.771C67.7703 168.997 74.1008 169.997 81.0382 170.029L81.0429 169.029ZM73.1541 156.081C73.7145 155.668 74.7844 155.251 76.2057 154.91C77.6089 154.574 79.2971 154.326 81.0469 154.221C82.7971 154.116 84.5964 154.155 86.2235 154.386C87.8575 154.618 89.2822 155.039 90.3098 155.674L90.8354 154.823C89.6425 154.086 88.0649 153.637 86.364 153.396C84.6563 153.153 82.788 153.115 80.987 153.223C79.1857 153.331 77.439 153.587 75.9727 153.938C74.5246 154.285 73.2904 154.739 72.5612 155.276L73.1541 156.081ZM90.3226 154.815C90.1668 154.905 89.8294 155.018 89.2922 155.134C88.7724 155.246 88.1148 155.351 87.3578 155.444C85.845 155.63 83.9627 155.768 82.0472 155.834C80.1315 155.899 78.1926 155.893 76.5659 155.793C75.7524 155.742 75.0235 155.669 74.418 155.571C73.8042 155.472 73.3492 155.353 73.0647 155.223L72.6506 156.134C73.0582 156.319 73.6184 156.455 74.2586 156.559C74.9071 156.663 75.6709 156.739 76.5044 156.791C78.1718 156.894 80.1442 156.9 82.0815 156.833C84.0191 156.766 85.9316 156.627 87.48 156.436C88.2537 156.341 88.9433 156.232 89.5028 156.112C90.0451 155.995 90.5191 155.856 90.8226 155.681L90.3226 154.815Z" fill="black"/>
<path d="M69.7351 153.805C69.7236 154.493 71.0593 156.591 82.551 156.204C87.1582 156.049 92.9867 155.895 93.2802 152.867" stroke="black" stroke-linecap="round" stroke-linejoin="round"/>
<path d="M63.3625 150.545C63.8686 149.301 66.4521 147.129 73.2552 146.467M77.0242 145.924L79.0855 145.958" stroke="white" stroke-width="2" stroke-linecap="round"/>
<rect x="249.757" y="73.8216" width="6.3933" height="53.5967" rx="1.5" transform="rotate(-0.415279 249.757 73.8216)" fill="#A05A5A" stroke="black"/>
<path d="M254.383 74.9951L254.743 124.756" stroke="black"/>
<rect x="226.804" y="76.5579" width="52.3351" height="29.1187" rx="1.5" transform="rotate(-0.415279 226.804 76.5579)" fill="#E0CEAC" stroke="black"/>
<path d="M176.391 67.4763C137.992 71.6906 135.751 67.7952 135.751 67.7952C149.993 60.7528 164.473 56.0055 178.363 52.9291C191.016 50.1268 203.179 48.711 214.228 48.21C233.536 47.3346 249.441 49.2529 258.605 51.4476C258.605 51.4476 258.497 55.0665 218.908 61.5795C213.233 62.5132 206.746 63.5064 199.332 64.5569C190.524 65.805 182.932 66.7583 176.391 67.4763Z" fill="#CFCAB9"/>
<path d="M176.391 67.4763C137.992 71.6906 135.751 67.7952 135.751 67.7952C149.993 60.7528 164.473 56.0055 178.363 52.9291C191.016 50.1268 203.179 48.711 214.228 48.21C233.536 47.3346 249.441 49.2529 258.605 51.4476C258.605 51.4476 258.497 55.0665 218.908 61.5795C213.233 62.5132 206.746 63.5064 199.332 64.5569C190.524 65.805 182.932 66.7583 176.391 67.4763Z" fill="#CFCAB9"/>
<path d="M176.391 67.4763C137.992 71.6906 135.751 67.7952 135.751 67.7952C149.993 60.7528 164.473 56.0055 178.363 52.9291M176.391 67.4763C182.932 66.7583 190.524 65.805 199.332 64.5569C206.746 63.5064 213.233 62.5132 218.908 61.5795M176.391 67.4763C176.478 64.2272 176.995 56.7691 178.363 52.9291M178.363 52.9291C191.016 50.1268 203.179 48.711 214.228 48.21M214.228 48.21C233.536 47.3346 249.441 49.2529 258.605 51.4476C258.605 51.4476 258.497 55.0665 218.908 61.5795M214.228 48.21C215.576 51.1207 218.4 57.8695 218.908 61.5795" stroke="black" stroke-linecap="round"/>
<path d="M199.333 64.5572C190.524 65.8052 182.933 66.7586 176.392 67.4765C176.479 64.2275 176.996 56.7693 178.364 52.9293C191.017 50.127 203.18 48.7112 214.229 48.2103C215.577 51.1209 218.401 57.8698 218.909 61.5797C213.234 62.5134 206.747 63.5066 199.333 64.5572Z" fill="#C4A22E" stroke="black" stroke-linecap="round"/>
<rect x="190.347" y="21.2329" width="5" height="104.474" rx="2.5" transform="rotate(-7.23018 190.347 21.2329)" fill="#A1A1D2" stroke="black"/>
<path d="M194.215 29.8001C148.256 34.3654 136.09 57.0331 135.752 67.7963C185.64 43.1282 238.441 46.6195 258.606 51.4487C256.292 42.3303 240.175 25.2348 194.215 29.8001Z" fill="#FDD54C" stroke="black" stroke-linecap="round"/>
<path d="M169.976 54.9789C175.516 37.6669 188.444 30.9798 194.216 29.8002C200.699 29.1636 215.517 31.9115 222.925 47.9962C207.434 48.0576 189.096 49.8657 169.976 54.9789Z" fill="white" stroke="black" stroke-linecap="round"/>
<path d="M245.851 100.816C245.625 100.975 245.571 101.287 245.731 101.512C245.89 101.738 246.202 101.792 246.428 101.633L245.851 100.816ZM252.691 96.5994L252.945 96.1684C252.775 96.0688 252.563 96.0776 252.403 96.1909L252.691 96.5994ZM256.663 98.9354L256.41 99.3664C256.578 99.4654 256.789 99.4574 256.949 99.3459L256.663 98.9354ZM263.993 93.8363L264.298 93.4398C264.125 93.3071 263.887 93.3015 263.708 93.4258L263.993 93.8363ZM267.147 96.2585L266.842 96.655C267.053 96.8172 267.354 96.7855 267.527 96.5829L267.147 96.2585ZM273.542 89.3034C273.52 89.0281 273.279 88.8227 273.004 88.8446L268.518 89.2012C268.243 89.2231 268.037 89.464 268.059 89.7393C268.081 90.0145 268.322 90.22 268.597 90.1981L272.585 89.8811L272.902 93.8685C272.924 94.1437 273.164 94.3492 273.44 94.3273C273.715 94.3054 273.92 94.0645 273.899 93.7892L273.542 89.3034ZM246.428 101.633L252.979 97.0079L252.403 96.1909L245.851 100.816L246.428 101.633ZM252.438 97.0304L256.41 99.3664L256.917 98.5044L252.945 96.1684L252.438 97.0304ZM256.949 99.3459L264.279 94.2467L263.708 93.4258L256.378 98.525L256.949 99.3459ZM263.689 94.2328L266.842 96.655L267.451 95.862L264.298 93.4398L263.689 94.2328ZM267.527 96.5829L273.424 89.6674L272.663 89.0186L266.766 95.9341L267.527 96.5829Z" fill="black"/>
<path d="M233.467 86.8096C232.92 86.8148 232.544 86.505 232.338 85.8803C232.138 85.2555 232.034 84.4565 232.025 83.4832C232.019 82.8499 232.127 82.2555 232.348 81.7C232.576 81.1378 232.925 80.6845 233.395 80.34C233.865 79.9888 234.44 79.81 235.12 79.8036C235.667 79.7984 236.164 79.9103 236.613 80.1394C237.062 80.3618 237.419 80.6851 237.683 81.1092C237.953 81.5333 238.091 82.0254 238.097 82.5854C238.103 83.232 237.978 83.7765 237.722 84.219C237.466 84.6614 237.133 84.9913 236.722 85.2086C236.31 85.4258 235.875 85.5366 235.415 85.541C235.041 85.5446 234.697 85.4845 234.383 85.3608C234.425 85.5738 234.446 85.7369 234.448 85.8502C234.454 86.4835 234.127 86.8033 233.467 86.8096ZM235.26 83.9924C235.5 83.9901 235.706 83.9015 235.877 83.7265C236.056 83.5448 236.144 83.3373 236.141 83.104C236.139 82.864 236.047 82.6582 235.866 82.4866C235.691 82.3082 235.483 82.2202 235.243 82.2225C235.01 82.2247 234.804 82.3167 234.626 82.4984C234.447 82.6734 234.359 82.8809 234.362 83.1209C234.364 83.3542 234.456 83.5601 234.637 83.7383C234.819 83.9099 235.027 83.9946 235.26 83.9924ZM240.738 86.7404C240.258 86.7516 239.827 86.6557 239.445 86.4527C239.07 86.2496 238.774 85.9691 238.557 85.6111C238.347 85.2464 238.233 84.8408 238.215 84.3943C238.205 83.9477 238.304 83.5468 238.514 83.1914C238.724 82.8361 239.018 82.5532 239.396 82.343C239.781 82.1326 240.213 82.0252 240.693 82.0206C241.16 82.0162 241.581 82.1122 241.956 82.3086C242.338 82.505 242.64 82.7821 242.864 83.14C243.087 83.4979 243.208 83.9001 243.225 84.3466C243.236 84.7799 243.137 85.1775 242.927 85.5395C242.717 85.8949 242.419 86.181 242.035 86.398C241.657 86.615 241.225 86.7291 240.738 86.7404ZM240.754 85.2802C240.934 85.2785 241.09 85.207 241.222 85.0657C241.354 84.9245 241.419 84.7605 241.417 84.5738C241.416 84.3872 241.347 84.2278 241.213 84.0958C241.078 83.957 240.921 83.8885 240.741 83.8902C240.561 83.892 240.405 83.9634 240.273 84.1047C240.141 84.2393 240.076 84.3999 240.077 84.5866C240.079 84.7732 240.147 84.9359 240.282 85.0747C240.417 85.2134 240.574 85.2819 240.754 85.2802ZM244.718 86.6925C244.291 86.6966 244.002 86.4493 243.851 85.9507C243.706 85.4521 243.629 84.7628 243.621 83.8828C243.617 83.4828 243.631 83.1494 243.662 82.8824C243.699 82.6087 243.787 82.3779 243.925 82.1899C244.07 81.9951 244.292 81.8964 244.592 81.8935C244.779 81.8917 244.943 81.9335 245.083 82.0188C245.231 82.1041 245.325 82.2265 245.367 82.3861C245.512 82.2514 245.701 82.1496 245.934 82.0807C246.167 82.0119 246.416 81.9761 246.683 81.9736C246.896 81.9716 247.113 82.0228 247.334 82.1274C247.562 82.2319 247.75 82.3768 247.899 82.5621C248.054 82.7406 248.132 82.9365 248.134 83.1498C248.136 83.3632 248.061 83.5539 247.91 83.722C247.765 83.8834 247.569 83.9653 247.322 83.9676C247.242 83.9684 247.165 83.9591 247.092 83.9398C247.025 83.9204 246.965 83.901 246.911 83.8815C246.777 83.8295 246.67 83.8038 246.59 83.8046C246.33 83.807 246.101 83.9126 245.903 84.1211C245.712 84.3229 245.618 84.5839 245.621 84.9038C245.624 85.2572 245.614 85.5506 245.589 85.7842C245.565 86.0178 245.487 86.2285 245.355 86.4164C245.224 86.5977 245.011 86.6897 244.718 86.6925ZM253.506 82.2787C253.509 82.6253 253.348 82.8635 253.023 82.9933C252.697 83.1164 252.251 83.184 251.684 83.1961C251.679 83.3628 251.679 83.6328 251.682 84.0061C251.686 84.3861 251.715 84.6558 251.77 84.8153C251.804 84.9283 251.855 85.0012 251.922 85.0339C251.996 85.0665 252.102 85.0888 252.243 85.1008C252.289 85.1071 252.339 85.1166 252.393 85.1294C252.453 85.1355 252.52 85.1449 252.593 85.1575C252.747 85.1894 252.868 85.2716 252.955 85.4041C253.043 85.5299 253.088 85.6928 253.09 85.8928C253.092 86.1195 252.977 86.2972 252.745 86.4261C252.513 86.555 252.194 86.6214 251.787 86.6252C251.414 86.6288 251.056 86.5255 250.714 86.3154C250.372 86.0987 250.136 85.8076 250.006 85.4421C249.869 85.0501 249.795 84.3074 249.784 83.2141C249.318 83.2052 248.94 83.1488 248.653 83.0449C248.372 82.9342 248.23 82.7356 248.227 82.4489C248.224 82.0889 248.355 81.8477 248.62 81.7252C248.886 81.596 249.268 81.5256 249.768 81.5142C249.783 80.9807 249.862 80.5366 250.006 80.1819C250.149 79.8205 250.41 79.638 250.79 79.6344C251.177 79.6307 251.429 79.795 251.545 80.1272C251.668 80.4594 251.726 80.9156 251.718 81.4957C252.325 81.4832 252.772 81.5256 253.059 81.6229C253.354 81.7201 253.502 81.9387 253.506 82.2787ZM257.16 82.5939C257.813 82.601 258.284 82.6666 258.572 82.7905C258.866 82.9144 259.015 83.1563 259.019 83.5163C259.022 83.8696 258.874 84.111 258.575 84.2405C258.283 84.3633 257.824 84.4343 257.197 84.4536L257.215 85.2435C257.223 85.3701 257.228 85.5467 257.23 85.7734C257.233 86.06 257.155 86.2641 256.996 86.3856C256.837 86.5005 256.651 86.5589 256.437 86.561C256.071 86.5645 255.802 86.3837 255.632 86.0186C255.462 85.6535 255.354 85.1312 255.307 84.4516C254.874 84.4224 254.55 84.3422 254.335 84.2109C254.127 84.0795 254.022 83.8638 254.019 83.5639C254.016 83.2639 254.117 83.0462 254.323 82.9109C254.535 82.7689 254.857 82.6758 255.29 82.6317C255.324 81.9847 255.415 81.4405 255.565 80.999C255.714 80.5576 255.96 80.2119 256.305 79.9619C256.649 79.7053 257.114 79.5742 257.701 79.5686C258.068 79.5651 258.372 79.6489 258.613 79.82C258.862 79.9843 258.987 80.2264 258.99 80.5464C258.994 80.8797 258.893 81.134 258.688 81.3093C258.489 81.4779 258.214 81.5972 257.861 81.6672C257.628 81.7161 257.459 81.821 257.354 81.982C257.249 82.1364 257.184 82.3403 257.16 82.5939ZM261.694 86.5409C261.214 86.5522 260.783 86.4563 260.401 86.2532C260.026 86.0501 259.73 85.7696 259.513 85.4116C259.303 85.047 259.189 84.6414 259.172 84.1948C259.161 83.7483 259.26 83.3473 259.47 82.9919C259.68 82.6366 259.974 82.3538 260.352 82.1435C260.737 81.9332 261.169 81.8257 261.649 81.8211C262.116 81.8167 262.537 81.9127 262.912 82.1091C263.294 82.3055 263.596 82.5826 263.82 82.9405C264.043 83.2984 264.164 83.7006 264.181 84.1472C264.192 84.5804 264.093 84.978 263.883 85.34C263.673 85.6954 263.375 85.9816 262.991 86.1986C262.613 86.4155 262.181 86.5296 261.694 86.5409ZM261.71 85.0807C261.89 85.079 262.046 85.0075 262.178 84.8663C262.31 84.725 262.375 84.561 262.373 84.3744C262.372 84.1877 262.303 84.0284 262.169 83.8963C262.034 83.7576 261.877 83.6891 261.697 83.6908C261.517 83.6925 261.361 83.764 261.229 83.9052C261.097 84.0398 261.032 84.2005 261.033 84.3871C261.035 84.5738 261.103 84.7365 261.238 84.8752C261.373 85.0139 261.53 85.0824 261.71 85.0807ZM265.871 86.4712C265.538 86.4743 265.287 86.3534 265.118 86.1083C264.949 85.8633 264.832 85.501 264.768 85.0216C264.71 84.5355 264.676 83.8591 264.668 82.9925C264.66 82.1592 264.674 81.509 264.71 81.042C264.752 80.5749 264.855 80.2006 265.019 79.919C265.19 79.6374 265.455 79.4948 265.815 79.4914C266.175 79.488 266.44 79.6255 266.609 79.9039C266.785 80.1822 266.895 80.5545 266.94 81.0208C266.991 81.487 267.02 82.1367 267.028 82.97C267.036 83.79 267.006 84.4536 266.937 84.961C266.875 85.4616 266.759 85.8394 266.588 86.0943C266.417 86.3426 266.178 86.4683 265.871 86.4712ZM268.687 81.6142C268.36 81.6173 268.082 81.5032 267.853 81.2721C267.624 81.0342 267.508 80.7453 267.505 80.4053C267.502 80.072 267.612 79.7876 267.837 79.5522C268.061 79.31 268.337 79.1874 268.663 79.1843C268.983 79.1812 269.258 79.2986 269.487 79.5364C269.722 79.7675 269.842 80.0498 269.845 80.3831C269.848 80.7231 269.734 81.0142 269.503 81.2564C269.279 81.4918 269.007 81.6111 268.687 81.6142ZM268.733 86.4639C268.459 86.4665 268.255 86.3918 268.121 86.2398C267.992 86.081 267.903 85.8451 267.854 85.5323C267.811 85.2127 267.786 84.7595 267.781 84.1729C267.776 83.6796 267.796 83.2894 267.84 83.0023C267.89 82.7151 267.982 82.5009 268.114 82.3596C268.246 82.2184 268.438 82.1465 268.692 82.1441C268.965 82.1415 269.166 82.2196 269.294 82.3784C269.429 82.5305 269.518 82.7663 269.561 83.0859C269.61 83.3988 269.638 83.8485 269.643 84.4352C269.648 84.9285 269.625 85.3187 269.575 85.6059C269.531 85.893 269.443 86.1072 269.311 86.2484C269.179 86.3897 268.986 86.4615 268.733 86.4639ZM272.709 86.4361C272.229 86.4473 271.798 86.3514 271.416 86.1484C271.041 85.9453 270.745 85.6647 270.528 85.3068C270.318 84.9421 270.204 84.5365 270.187 84.09C270.176 83.6434 270.275 83.2424 270.485 82.8871C270.695 82.5317 270.989 82.2489 271.367 82.0387C271.752 81.8283 272.184 81.7209 272.664 81.7163C273.131 81.7119 273.552 81.8079 273.927 82.0043C274.309 82.2007 274.612 82.4778 274.835 82.8357C275.058 83.1936 275.179 83.5958 275.196 84.0423C275.207 84.4756 275.108 84.8732 274.898 85.2352C274.688 85.5906 274.391 85.8767 274.006 86.0937C273.628 86.3107 273.196 86.4248 272.709 86.4361ZM272.725 84.9759C272.905 84.9742 273.061 84.9027 273.193 84.7614C273.325 84.6201 273.39 84.4562 273.389 84.2695C273.387 84.0829 273.319 83.9235 273.184 83.7915C273.049 83.6527 272.892 83.5842 272.712 83.5859C272.532 83.5876 272.376 83.6591 272.244 83.8004C272.112 83.935 272.047 84.0956 272.049 84.2823C272.05 84.4689 272.119 84.6316 272.253 84.7704C272.388 84.9091 272.545 84.9776 272.725 84.9759Z" fill="black" fill-opacity="0.8"/>
<rect x="216.142" y="95.8814" width="4.83973" height="70.075" rx="2.41986" transform="rotate(39.3222 216.142 95.8814)" fill="#B08686" stroke="black"/>
<rect x="174.871" y="127.425" width="4.83973" height="43.5246" rx="2.41986" transform="rotate(-54.0288 174.871 127.425)" fill="#B08686" stroke="black"/>
<path d="M216.202 99.8111C216.485 99.4758 216.9 99.2809 217.339 99.2777L236.794 99.1367C238.04 99.1276 238.753 100.554 237.998 101.546L211.352 136.529C211.041 136.937 210.543 137.158 210.032 137.115L189.341 135.365C188.128 135.262 187.536 133.834 188.32 132.903L216.202 99.8111L215.823 99.4912L216.202 99.8111Z" fill="#BCE8FF" stroke="black" stroke-linejoin="round"/>
<path d="M233.474 99.43L236.463 99.3467L205 137.369L202.507 136.183L233.474 99.43Z" fill="#00A6FF"/>
<path d="M226.196 99.5501L229.185 99.4668L197.722 137.489L195.229 136.303L226.196 99.5501Z" fill="#00A6FF"/>
<path d="M218.916 99.6703L221.906 99.5869L190.443 137.609L187.95 136.423L218.916 99.6703Z" fill="#00A6FF"/>
<rect x="220.077" y="125.91" width="3.61615" height="23.8163" rx="1.80807" transform="rotate(-18.55 220.077 125.91)" fill="#B08686" stroke="black"/>
<rect x="241.824" y="96.898" width="4.83973" height="73.1894" rx="2.41986" transform="rotate(39.3222 241.824 96.898)" fill="#A05A5A" stroke="black"/>
<rect x="164.655" y="140.441" width="4.83973" height="32.7565" rx="2.41986" transform="rotate(-90.5251 164.655 140.441)" fill="#A05A5A" stroke="black"/>
<rect x="166.144" y="138.999" width="2.34456" height="23.8453" rx="1.17228" transform="rotate(-90.4153 166.144 138.999)" fill="#91D9FF" stroke="black" stroke-linejoin="round"/>
<rect x="187.294" y="140.249" width="4.83973" height="25.4078" rx="2.41986" transform="rotate(-90.5251 187.294 140.249)" fill="#A05A5A" stroke="black"/>
<rect x="197.401" y="129.382" width="4.83973" height="44.0966" rx="2.41986" transform="rotate(-56.1044 197.401 129.382)" fill="#A05A5A" stroke="black"/>
</svg>
