<svg width="82" height="47" viewBox="0 0 82 47" fill="none" xmlns="http://www.w3.org/2000/svg">
<g filter="url(#filter0_d_30557_1232)">
<rect x="5.4873" width="72.8264" height="30" rx="15" transform="rotate(10.5393 5.4873 0)" fill="#C4A165"/>
<rect x="5.4873" width="72.8264" height="30" rx="15" transform="rotate(10.5393 5.4873 0)" stroke="black" stroke-linecap="round" stroke-linejoin="round"/>
</g>
<path d="M20.9223 11.7728C21.5119 11.8687 21.9312 12.1476 22.1803 12.6096C22.4398 13.0733 22.5633 13.7093 22.5507 14.5178C22.5398 15.3157 22.429 16.3622 22.2184 17.6572C22.0077 18.9521 21.7812 19.9798 21.5386 20.74C21.2978 21.4898 20.9869 22.039 20.606 22.3877C20.2251 22.7364 19.7345 22.8619 19.1344 22.7643C18.4185 22.6478 17.9628 22.2603 17.7673 21.6017C17.5719 20.9431 17.5523 19.9673 17.7086 18.6743C17.3805 18.6318 16.8427 18.5497 16.0952 18.4281L15.274 18.2945C15.0019 19.5687 14.6688 20.4871 14.2746 21.0498C13.8805 21.6125 13.3255 21.8356 12.6096 21.7192C12.0095 21.6216 11.584 21.347 11.3333 20.8956C11.0825 20.4441 10.9617 19.8247 10.9709 19.0373C10.9923 18.2411 11.1092 17.1902 11.3216 15.8847C11.5339 14.5792 11.7561 13.5455 11.9881 12.7835C12.2307 12.0232 12.5424 11.4688 12.9233 11.1201C13.306 10.7608 13.7973 10.63 14.3974 10.7276C14.9133 10.8116 15.2921 11.0407 15.5338 11.415C15.7772 11.7788 15.9072 12.2754 15.9237 12.9049C15.9524 13.5256 15.9046 14.3175 15.7804 15.2807L16.9017 15.4631C17.4807 15.5573 17.9063 15.6319 18.1783 15.687C18.4462 14.2392 18.7779 13.1963 19.1735 12.5582C19.5813 11.9113 20.1643 11.6495 20.9223 11.7728ZM25.2113 15.9232C24.6954 15.8393 24.2885 15.584 23.9905 15.1572C23.6942 14.72 23.5897 14.2329 23.677 13.696C23.7626 13.1695 24.0144 12.7512 24.4323 12.4409C24.8519 12.1201 25.3197 12.0017 25.8355 12.0856C26.3409 12.1678 26.7417 12.4275 27.038 12.8648C27.3466 13.2932 27.4581 13.7706 27.3724 14.297C27.2851 14.834 27.0264 15.262 26.5962 15.5811C26.1783 15.8914 25.7167 16.0054 25.2113 15.9232ZM23.9655 23.5825C23.5338 23.5123 23.2324 23.339 23.0612 23.0626C22.9023 22.7774 22.8262 22.3814 22.833 21.8746C22.852 21.3589 22.9369 20.6379 23.0876 19.7114C23.2143 18.9323 23.3514 18.3224 23.4987 17.8816C23.6566 17.4426 23.8588 17.1297 24.1053 16.9428C24.3518 16.756 24.6751 16.6951 25.0752 16.7602C25.5069 16.8304 25.8022 17.0081 25.9611 17.2933C26.1323 17.5697 26.2083 17.9657 26.1893 18.4814C26.1825 18.9882 26.1038 19.7049 25.9531 20.6313C25.8263 21.4104 25.6841 22.0195 25.5262 22.4585C25.3789 22.8992 25.1819 23.213 24.9354 23.3999C24.6889 23.5867 24.3656 23.6476 23.9655 23.5825ZM29.3294 24.455C28.4029 24.3043 27.6907 24.0318 27.1929 23.6374C26.6951 23.243 26.4856 22.8037 26.5644 22.3194C26.6157 22.0035 26.7604 21.7785 26.9984 21.6443C27.2486 21.5013 27.5421 21.4572 27.879 21.512C28.0686 21.5428 28.2169 21.594 28.3242 21.6654C28.4314 21.7369 28.5353 21.8294 28.6357 21.943C28.7079 22.0304 28.7678 22.0942 28.8153 22.1344C28.8733 22.1762 28.9444 22.204 29.0287 22.2177C29.2498 22.2537 29.3731 22.1927 29.3988 22.0348C29.4228 21.8874 29.3829 21.7674 29.2791 21.6749C29.1769 21.5718 28.9932 21.4392 28.7278 21.2772C28.4817 21.1291 28.3199 21.0271 28.2426 20.9713C27.7959 20.6609 27.4825 20.329 27.3023 19.9754C27.122 19.6219 27.061 19.2662 27.1192 18.9082C27.1843 18.5081 27.3881 18.1522 27.7306 17.8405C28.0853 17.52 28.5439 17.292 29.1062 17.1565C29.6808 17.0122 30.3156 16.9966 31.0105 17.1096C31.6106 17.2072 32.1391 17.3796 32.596 17.6269C33.0634 17.8758 33.4153 18.1708 33.6516 18.5118C33.8896 18.8423 33.9804 19.1813 33.9239 19.5287C33.8708 19.8551 33.7253 20.0854 33.4873 20.2196C33.2598 20.3555 32.9724 20.3952 32.625 20.3387C32.4881 20.3164 32.3793 20.2879 32.2985 20.2532C32.2299 20.2096 32.1376 20.146 32.0215 20.0622C31.9547 20.0081 31.8817 19.9584 31.8026 19.9132C31.7341 19.8696 31.6524 19.8401 31.5577 19.8247C31.4734 19.811 31.3946 19.8306 31.3212 19.8835C31.2494 19.9258 31.2067 19.9891 31.193 20.0734C31.1673 20.2313 31.2643 20.3659 31.4839 20.4773C32.062 20.7767 32.5105 21.109 32.8293 21.4742C33.1587 21.8412 33.2797 22.2932 33.1924 22.8301C33.081 23.5145 32.6726 23.9992 31.967 24.2842C31.2719 24.571 30.3927 24.628 29.3294 24.455ZM42.6269 19.5989C42.5378 20.1464 42.2191 20.4782 41.6707 20.5943C41.1239 20.6999 40.4023 20.6852 39.5057 20.5501C39.4523 20.8116 39.3777 21.2372 39.2818 21.8267C39.1842 22.4269 39.1569 22.8601 39.2001 23.1265C39.2236 23.314 39.2837 23.4427 39.3804 23.5124C39.4877 23.5839 39.6502 23.6482 39.8678 23.7052C39.9398 23.7277 40.0162 23.7563 40.097 23.7911C40.19 23.817 40.2928 23.85 40.4051 23.8899C40.6387 23.9819 40.8068 24.1443 40.9095 24.3771C41.0138 24.5994 41.0403 24.8685 40.9889 25.1844C40.9307 25.5423 40.701 25.7914 40.3 25.9315C39.899 26.0716 39.3774 26.0894 38.7351 25.9849C38.1455 25.889 37.6097 25.6289 37.1275 25.2047C36.6471 24.7699 36.354 24.2467 36.2481 23.6351C36.1386 22.9797 36.2243 21.7887 36.5051 20.0621C35.7715 19.9211 35.1921 19.7296 34.7668 19.4875C34.3537 19.2366 34.184 18.8848 34.2576 18.4321C34.3501 17.8636 34.6223 17.5188 35.0743 17.3978C35.528 17.2662 36.1505 17.2594 36.9418 17.3773C37.1104 16.5402 37.3559 15.8615 37.6782 15.3412C38.0023 14.8103 38.4644 14.5937 39.0646 14.6913C39.6752 14.7906 40.0272 15.1181 40.1206 15.6736C40.2244 16.2308 40.1914 16.9657 40.0213 17.8782C40.9811 18.0236 41.6745 18.212 42.1015 18.4436C42.5391 18.6768 42.7142 19.0619 42.6269 19.5989ZM45.4646 27.0957C44.7048 26.9829 44.0514 26.7146 43.5044 26.2906C42.9679 25.8683 42.5775 25.3455 42.333 24.7222C42.1008 24.09 42.0316 23.4195 42.1253 22.7107C42.2295 22.0036 42.4954 21.3985 42.9231 20.8953C43.3508 20.3921 43.8912 20.0261 44.5444 19.7973C45.2081 19.5703 45.919 19.5184 46.677 19.6417C47.414 19.7616 48.0516 20.0274 48.5898 20.4391C49.1386 20.8526 49.5404 21.3718 49.7954 21.9969C50.0503 22.6219 50.131 23.2888 50.0373 23.9977C49.9365 24.6837 49.6714 25.2836 49.242 25.7973C48.8144 26.3005 48.2678 26.6709 47.6024 26.9085C46.9475 27.1478 46.2349 27.2102 45.4646 27.0957ZM45.887 24.7977C46.1713 24.844 46.4367 24.7737 46.6832 24.5868C46.9297 24.4 47.077 24.1592 47.1249 23.8644C47.1729 23.5696 47.1087 23.2998 46.9324 23.0549C46.7578 22.7996 46.5283 22.6488 46.2441 22.6026C45.9598 22.5563 45.6944 22.6266 45.4479 22.8135C45.2031 22.9898 45.0567 23.2254 45.0087 23.5201C44.9608 23.8149 45.0241 24.09 45.1987 24.3454C45.3733 24.6007 45.6027 24.7515 45.887 24.7977ZM51.7528 28.1023C51.079 27.9927 50.6905 27.5243 50.5873 26.697C50.4946 25.8714 50.5613 24.7637 50.7874 23.374C50.8901 22.7423 51.0021 22.2202 51.1232 21.8076C51.2566 21.3862 51.4578 21.0461 51.7269 20.7873C52.0082 20.5196 52.3857 20.4243 52.8595 20.5014C53.1543 20.5494 53.4011 20.6597 53.5999 20.8326C53.8093 21.0071 53.925 21.2259 53.947 21.4888C54.2129 21.3159 54.5387 21.2068 54.9243 21.1615C55.3099 21.1161 55.7133 21.1277 56.1344 21.1962C56.4713 21.251 56.7998 21.3909 57.1198 21.6158C57.4504 21.8425 57.7075 22.1221 57.8912 22.4546C58.0871 22.7782 58.1576 23.1085 58.1028 23.4454C58.048 23.7823 57.8781 24.0627 57.5932 24.2865C57.3205 24.5015 56.9893 24.5773 56.5998 24.514C56.4734 24.4934 56.3549 24.4579 56.2443 24.4075C56.1441 24.3588 56.0545 24.3118 55.9754 24.2665C55.7785 24.148 55.6169 24.0785 55.4906 24.058C55.08 23.9912 54.6902 24.0953 54.3213 24.3703C53.9646 24.6365 53.7451 25.0222 53.6629 25.5276C53.5722 26.0856 53.4758 26.5454 53.3737 26.9071C53.2717 27.2687 53.0914 27.5798 52.8329 27.8403C52.5761 28.0903 52.216 28.1777 51.7528 28.1023ZM59.9388 31.833C59.3703 31.7405 58.9145 31.5529 58.5714 31.2701C58.2284 30.9874 58.0919 30.6302 58.1621 30.1985C58.2187 29.8511 58.4264 29.6039 58.7853 29.457C59.1442 29.31 59.543 29.283 59.9818 29.376C60.4416 29.4724 60.803 29.5096 61.066 29.4875C61.3395 29.4671 61.5583 29.3839 61.7226 29.2377C60.754 29.0801 60.0024 28.8174 59.4679 28.4495C58.9351 28.071 58.585 27.5656 58.4177 26.9332C58.2626 26.292 58.2647 25.4818 58.424 24.5027C58.561 23.6604 58.7978 23.0019 59.1344 22.5271C59.4832 22.0435 59.9366 21.8471 60.4946 21.9378C60.9895 22.0183 61.3296 22.2195 61.515 22.5415C61.7126 22.8546 61.7754 23.2323 61.7035 23.6745L61.5747 24.3668C61.5419 24.5019 61.5041 24.7011 61.4613 24.9643C61.3791 25.4697 61.3798 25.8642 61.4633 26.148C61.5485 26.4212 61.7806 26.5886 62.1597 26.6503C62.5387 26.7119 62.8119 26.6267 62.9794 26.3946C63.1485 26.1519 63.2733 25.7832 63.3538 25.2883C63.3966 25.0251 63.4239 24.8242 63.4356 24.6857L63.5303 24.004C63.6074 23.5302 63.784 23.1753 64.0601 22.9393C64.3468 22.7049 64.7375 22.628 65.2324 22.7085C65.7904 22.7992 66.1582 23.1292 66.3357 23.6985C66.5133 24.2677 66.5345 24.9682 66.3992 25.7999C66.1971 27.0422 65.8323 28.1554 65.3048 29.1395C64.7896 30.1148 64.0796 30.8585 63.175 31.3705C62.2809 31.8843 61.2022 32.0385 59.9388 31.833Z" fill="black"/>
<defs>
<filter id="filter0_d_30557_1232" x="1.98785" y="1.98828" width="79.1094" height="44.8389" filterUnits="userSpaceOnUse" color-interpolation-filters="sRGB">
<feFlood flood-opacity="0" result="BackgroundImageFix"/>
<feColorMatrix in="SourceAlpha" type="matrix" values="0 0 0 0 0 0 0 0 0 0 0 0 0 0 0 0 0 0 127 0" result="hardAlpha"/>
<feOffset dx="6" dy="6"/>
<feComposite in2="hardAlpha" operator="out"/>
<feColorMatrix type="matrix" values="0 0 0 0 0 0 0 0 0 0 0 0 0 0 0 0 0 0 0.5 0"/>
<feBlend mode="normal" in2="BackgroundImageFix" result="effect1_dropShadow_30557_1232"/>
<feBlend mode="normal" in="SourceGraphic" in2="effect1_dropShadow_30557_1232" result="shape"/>
</filter>
</defs>
</svg>
