<svg width="14" height="19" viewBox="0 0 14 19" fill="none" xmlns="http://www.w3.org/2000/svg">
  <path d="M11.8041 5.8H9.20414L10.7041 2C11.0041 1.3 10.5041 0.5 9.70414 0.5H4.60414C4.40414 0.5 4.20414 0.6 4.00414 0.7C3.80414 0.8 3.60414 1 3.60414 1.2L0.504141 9.5C0.204141 10.2 0.804141 11 1.60414 11H3.90414L2.50414 16.4C2.40414 16.9 2.60414 17.4 3.00414 17.6C3.40414 17.8 4.00414 17.8 4.30414 17.4L12.6041 7.6C13.1041 7 12.7041 5.8 11.8041 5.8Z" fill="#9CD1FF"/>
  <path d="M3.60405 18.2C3.30405 18.2 3.10405 18.1 2.80405 18C2.20405 17.6 1.90405 16.9 2.00405 16.2L3.20405 11.5H1.60405C1.10405 11.5 0.604052 11.2 0.304052 10.8C0.0040518 10.4 -0.0959482 9.8 0.104052 9.3L3.10405 1C3.20405 0.7 3.40405 0.4 3.70405 0.3C4.00405 0.1 4.30405 0 4.60405 0H9.70405C10.2041 0 10.7041 0.2 11.0041 0.7C11.3041 1.1 11.4041 1.7 11.2041 2.2L10.0041 5.4H11.9041C12.5041 5.4 13.0041 5.7 13.3041 6.3C13.6041 6.9 13.5041 7.6 13.1041 8L4.90405 17.7C4.50405 18 4.10405 18.2 3.60405 18.2ZM4.60405 1.2C4.40405 1.2 4.10415 1.39961 4.00415 1.59961L1.00405 9.7C0.904052 9.9 1.00405 10.1 1.10405 10.3C1.20405 10.5 1.40405 10.6 1.60405 10.6H4.60405L3.10405 16.6C3.00405 16.9 3.20405 17.2 3.40405 17.3C3.60405 17.4 3.90405 17.4 4.10405 17.2L12.3041 7.5C12.5041 7.3 12.5041 7 12.4041 6.8C12.3041 6.7 12.2041 6.5 11.9041 6.5H8.40405L10.2041 2C10.3041 1.8 10.2041 1.6 10.1041 1.4C10.0041 1.3 9.90405 1.2 9.60405 1.2H4.60405Z" fill="#4B371F"/>
</svg>
