<svg width="54" height="54" viewBox="0 0 54 54" fill="none" xmlns="http://www.w3.org/2000/svg">
  <mask id="mask0_29023_2564" style="mask-type:alpha" maskUnits="userSpaceOnUse" x="0" y="0" width="54" height="54">
    <circle cx="26.7411" cy="27.0756" r="25.4452" fill="#C7FF6E" stroke="#709D27" stroke-width="2"/>
  </mask>
  <g mask="url(#mask0_29023_2564)">
    <path d="M1.0016 30.4879H-1.76761C-2.12915 30.4879 -2.37855 30.1404 -2.2499 29.8161L0.501769 22.8797C0.538995 22.7858 0.605031 22.7051 0.691128 22.6481C0.777225 22.5911 0.87932 22.5606 0.983887 22.5605H5.62722C5.99358 22.5605 6.24333 22.917 6.10504 23.2429L4.50285 27.0197H7.51905C7.96264 27.0197 8.19932 27.5219 7.90674 27.842L0.511745 35.9344C0.152264 36.3279 -0.514239 35.9869 -0.374746 35.481L1.0016 30.4879Z" fill="#9CD1FF" fill-opacity="0.3"/>
    <path d="M0.0370002 22.6953C0.0370014 22.6953 0.0370023 22.6953 0.0370035 22.6953C0.112815 22.5042 0.245896 22.3432 0.415141 22.2311L0.691128 22.6481L0.415142 22.2311C0.584168 22.1193 0.782447 22.0606 0.983814 22.0605H0.983887H5.62722C6.31983 22.0605 6.85575 22.7537 6.56533 23.4382C6.56533 23.4382 6.56532 23.4382 6.56532 23.4382L5.25809 26.5197H7.51905C8.35521 26.5197 8.88975 27.5075 8.27584 28.1793L0.0370002 22.6953ZM0.0370002 22.6953L-2.71465 29.6317L0.0370002 22.6953ZM0.880882 36.2717L8.27582 28.1793L-2.71466 29.6318C-2.98482 30.3127 -2.45112 30.9879 -1.76761 30.9879H0.345128L-0.856763 35.3481C-0.856765 35.3481 -0.856767 35.3481 -0.856768 35.3481C-1.00042 35.8692 -0.712784 36.3027 -0.346313 36.4901C0.0174994 36.6762 0.527015 36.659 0.880845 36.2717C0.880857 36.2717 0.88087 36.2717 0.880882 36.2717Z" stroke="#4B371F" stroke-opacity="0.3"/>
    <path d="M13.257 8.55776H10.4878C10.1262 8.55776 9.87682 8.21021 10.0055 7.88596L12.7571 0.949508C12.7944 0.855664 12.8604 0.774896 12.9465 0.717904C13.0326 0.660912 13.1347 0.630386 13.2393 0.630371H17.8826C18.249 0.630371 18.4987 0.98684 18.3604 1.31275L16.7582 5.08954H19.7744C20.218 5.08954 20.4547 5.5917 20.1621 5.91183L12.7671 14.0042C12.4076 14.3977 11.7411 14.0568 11.8806 13.5508L13.257 8.55776Z" fill="#9CD1FF" fill-opacity="0.3"/>
    <path d="M12.2924 0.765145C12.2924 0.765143 12.2924 0.76514 12.2924 0.765137C12.3682 0.574026 12.5013 0.413005 12.6705 0.300973L12.9465 0.717904L12.6705 0.300973C12.8395 0.189086 13.0378 0.130401 13.2392 0.130371H13.2393H17.8826C18.5752 0.130371 19.1111 0.823504 18.8207 1.50802C18.8207 1.50803 18.8207 1.50804 18.8207 1.50805L17.5135 4.58954H19.7744C20.6106 4.58954 21.1451 5.57737 20.5312 6.24912L12.2924 0.765145ZM12.2924 0.765145L9.54072 7.70155L12.2924 0.765145ZM13.1363 14.3415L20.5312 6.24914L9.54071 7.70158C9.27055 8.38253 9.80425 9.05776 10.4878 9.05776H12.6005L11.3986 13.4179C11.3986 13.4179 11.3986 13.4179 11.3986 13.4179C11.2549 13.939 11.5426 14.3725 11.9091 14.56C12.2729 14.746 12.7824 14.7288 13.1362 14.3415C13.1362 14.3415 13.1362 14.3415 13.1363 14.3415Z" stroke="#4B371F" stroke-opacity="0.3"/>
    <path d="M13.257 51.1281H10.4878C10.1262 51.1281 9.87682 50.7805 10.0055 50.4563L12.7571 43.5198C12.7944 43.426 12.8604 43.3452 12.9465 43.2882C13.0326 43.2312 13.1347 43.2007 13.2393 43.2007H17.8826C18.249 43.2007 18.4987 43.5572 18.3604 43.8831L16.7582 47.6599H19.7744C20.218 47.6599 20.4547 48.162 20.1621 48.4821L12.7671 56.5746C12.4076 56.968 11.7411 56.6271 11.8806 56.1211L13.257 51.1281Z" fill="#9CD1FF" fill-opacity="0.3"/>
    <path d="M12.2924 43.3355C12.2924 43.3355 12.2924 43.3355 12.2924 43.3354C12.3682 43.1443 12.5013 42.9833 12.6705 42.8713L12.9465 43.2882L12.6705 42.8713C12.8395 42.7594 13.0378 42.7007 13.2392 42.7007H13.2393H17.8826C18.5752 42.7007 19.1111 43.3938 18.8207 44.0783C18.8207 44.0783 18.8207 44.0784 18.8207 44.0784L17.5135 47.1599H19.7744C20.6106 47.1599 21.1451 48.1477 20.5312 48.8194L12.2924 43.3355ZM12.2924 43.3355L9.54072 50.2719L12.2924 43.3355ZM13.1363 56.9118L20.5312 48.8195L9.54071 50.2719C9.27055 50.9528 9.80425 51.6281 10.4878 51.6281H12.6005L11.3986 55.9882C11.3986 55.9882 11.3986 55.9882 11.3986 55.9882C11.2549 56.5093 11.5426 56.9428 11.9091 57.1303C12.2729 57.3164 12.7824 57.2991 13.1362 56.9118C13.1362 56.9118 13.1362 56.9118 13.1363 56.9118Z" stroke="#4B371F" stroke-opacity="0.3"/>
    <path d="M23.4611 31.3677H18.6149C17.9822 31.3677 17.5458 30.7554 17.7709 30.184L22.5863 17.9627C22.6515 17.7973 22.7671 17.655 22.9177 17.5546C23.0684 17.4542 23.2471 17.4004 23.4301 17.4004H31.5559C32.197 17.4004 32.6341 18.0285 32.3921 18.6027L29.5882 25.257H34.8666C35.6429 25.257 36.0571 26.1418 35.5451 26.7058L22.6038 40.9639C21.9747 41.6571 20.8083 41.0564 21.0524 40.165L23.4611 31.3677Z" fill="#9CD1FF" fill-opacity="0.3"/>
    <path d="M22.8058 31.8677H18.6149C17.6555 31.8677 16.942 30.9238 17.3057 30.0007C17.3057 30.0007 17.3057 30.0007 17.3057 30.0007L22.1212 17.7794L22.1212 17.7794L22.5863 17.9627L22.8058 31.8677ZM22.8058 31.8677L20.5702 40.0329C20.5702 40.0329 20.5702 40.0329 20.5702 40.0329C20.3754 40.7443 20.7588 41.3391 21.2718 41.6032C21.7824 41.8662 22.4856 41.8382 22.9741 41.2999L35.9153 27.0419C35.9153 27.0419 35.9153 27.0419 35.9153 27.0419C36.7421 26.131 36.0419 24.757 34.8666 24.757H30.3415L32.8528 18.7969L22.8058 31.8677Z" stroke="#4B371F" stroke-opacity="0.3"/>
    <path d="M37.1222 8.55776H34.353C33.9915 8.55776 33.7421 8.21021 33.8707 7.88596L36.6224 0.949508C36.6596 0.855664 36.7256 0.774896 36.8117 0.717904C36.8978 0.660912 36.9999 0.630386 37.1045 0.630371H41.7478C42.1142 0.630371 42.3639 0.98684 42.2256 1.31275L40.6235 5.08954H43.6397C44.0833 5.08954 44.3199 5.5917 44.0273 5.91183L36.6324 14.0042C36.2729 14.3977 35.6064 14.0568 35.7459 13.5508L37.1222 8.55776Z" fill="#9CD1FF" fill-opacity="0.3"/>
    <path d="M36.1576 0.765145C36.1576 0.765143 36.1576 0.76514 36.1576 0.765137C36.2334 0.574026 36.3665 0.413005 36.5357 0.300973L36.8117 0.717904L36.5357 0.300973C36.7048 0.189086 36.9031 0.130401 37.1044 0.130371H37.1045H41.7478C42.4404 0.130371 42.9764 0.823504 42.6859 1.50802C42.6859 1.50803 42.6859 1.50804 42.6859 1.50805L41.3787 4.58954H43.6397C44.4758 4.58954 45.0104 5.57737 44.3965 6.24912L36.1576 0.765145ZM36.1576 0.765145L33.406 7.70155L36.1576 0.765145ZM37.0015 14.3415L44.3964 6.24914L33.4059 7.70158C33.1358 8.38253 33.6695 9.05776 34.353 9.05776H36.4657L35.2638 13.4179C35.2638 13.4179 35.2638 13.4179 35.2638 13.4179C35.1202 13.939 35.4078 14.3725 35.7743 14.56C36.1381 14.746 36.6476 14.7288 37.0015 14.3415C37.0015 14.3415 37.0015 14.3415 37.0015 14.3415Z" stroke="#4B371F" stroke-opacity="0.3"/>
    <path d="M37.1222 51.1281H34.353C33.9915 51.1281 33.7421 50.7805 33.8707 50.4563L36.6224 43.5198C36.6596 43.426 36.7256 43.3452 36.8117 43.2882C36.8978 43.2312 36.9999 43.2007 37.1045 43.2007H41.7478C42.1142 43.2007 42.3639 43.5572 42.2256 43.8831L40.6235 47.6599H43.6397C44.0833 47.6599 44.3199 48.162 44.0273 48.4821L36.6324 56.5746C36.2729 56.968 35.6064 56.6271 35.7459 56.1211L37.1222 51.1281Z" fill="#9CD1FF" fill-opacity="0.3"/>
    <path d="M36.1576 43.3355C36.1576 43.3355 36.1576 43.3355 36.1576 43.3354C36.2334 43.1443 36.3665 42.9833 36.5357 42.8713L36.8117 43.2882L36.5357 42.8713C36.7048 42.7594 36.9031 42.7007 37.1044 42.7007H37.1045H41.7478C42.4404 42.7007 42.9764 43.3938 42.6859 44.0783C42.6859 44.0783 42.6859 44.0784 42.6859 44.0784L41.3787 47.1599H43.6397C44.4758 47.1599 45.0104 48.1477 44.3965 48.8194L36.1576 43.3355ZM36.1576 43.3355L33.406 50.2719L36.1576 43.3355ZM37.0015 56.9118L44.3964 48.8195L33.4059 50.2719C33.1358 50.9528 33.6695 51.6281 34.353 51.6281H36.4657L35.2638 55.9882C35.2638 55.9882 35.2638 55.9882 35.2638 55.9882C35.1202 56.5093 35.4078 56.9428 35.7743 57.1303C36.1381 57.3164 36.6476 57.2991 37.0015 56.9118C37.0015 56.9118 37.0015 56.9118 37.0015 56.9118Z" stroke="#4B371F" stroke-opacity="0.3"/>
    <path d="M48.7321 30.4879H45.9629C45.6013 30.4879 45.3519 30.1404 45.4806 29.8161L48.2322 22.8797C48.2695 22.7858 48.3355 22.7051 48.4216 22.6481C48.5077 22.5911 48.6098 22.5606 48.7144 22.5605H53.3577C53.724 22.5605 53.9738 22.917 53.8355 23.2429L52.2333 27.0197H55.2495C55.6931 27.0197 55.9298 27.5219 55.6372 27.842L48.2422 35.9344C47.8827 36.3279 47.2162 35.9869 47.3557 35.481L48.7321 30.4879Z" fill="#9CD1FF" fill-opacity="0.3"/>
    <path d="M47.7675 22.6953C47.7675 22.6953 47.7675 22.6953 47.7675 22.6953C47.8433 22.5042 47.9764 22.3432 48.1456 22.2311L48.4216 22.6481L48.1456 22.2311C48.3146 22.1193 48.5129 22.0606 48.7143 22.0605H48.7144H53.3577C54.0503 22.0605 54.5862 22.7537 54.2958 23.4382C54.2958 23.4382 54.2958 23.4382 54.2958 23.4382L52.9886 26.5197H55.2495C56.0857 26.5197 56.6202 27.5075 56.0063 28.1793L47.7675 22.6953ZM47.7675 22.6953L45.0158 29.6317L47.7675 22.6953ZM48.6114 36.2717L56.0063 28.1793L45.0158 29.6318C44.7456 30.3127 45.2794 30.9879 45.9629 30.9879H48.0756L46.8737 35.3481C46.8737 35.3481 46.8737 35.3481 46.8737 35.3481C46.73 35.8692 47.0177 36.3027 47.3842 36.4901C47.748 36.6762 48.2575 36.659 48.6113 36.2717C48.6113 36.2717 48.6113 36.2717 48.6114 36.2717Z" stroke="#4B371F" stroke-opacity="0.3"/>
  </g>
</svg>
