<svg width="130" height="228" viewBox="0 0 130 228" fill="none" xmlns="http://www.w3.org/2000/svg">
<path d="M31.4993 19.7046L31.4928 19.7132C29.036 22.92 29.3762 27.9635 32.1998 33.6747C35.0077 39.3539 40.2057 45.5358 47.1415 50.8502C54.0775 56.1647 61.3993 59.5758 67.6136 60.8095C73.8602 62.0495 78.8171 61.0672 81.2753 57.8637L86.1668 51.3401L36.6294 12.7155L31.4993 19.7046Z" fill="#6347FF" stroke="black"/>
<path d="M70.9628 19.774C64.0269 14.4596 56.7051 11.0498 50.4909 9.81615C44.2415 8.57555 39.2833 9.55898 36.8262 12.7658C34.3691 15.9726 34.7095 21.016 37.5332 26.7273C40.3411 32.4065 45.5384 38.5892 52.4742 43.9036C59.4103 49.2182 66.7327 52.6284 72.947 53.8621C79.1963 55.1027 84.1545 54.1192 86.6117 50.9125C89.0688 47.7057 88.7284 42.6623 85.9047 36.9509C83.0967 31.2716 77.8989 25.0886 70.9628 19.774Z" fill="#836EF9" stroke="black"/>
<path d="M68.9013 22.4656C63.4733 18.3066 57.7473 15.6413 52.8945 14.6779C48.0067 13.7076 44.1757 14.4869 42.2879 16.9504C40.4002 19.414 40.644 23.3166 42.8525 27.7837C45.0453 32.2188 49.1092 37.0535 54.5371 41.2124C59.965 45.3714 65.6904 48.0376 70.5432 49.0009C75.4311 49.9712 79.2627 49.1913 81.1504 46.7277C83.038 44.264 82.7936 40.362 80.5852 35.8951C78.3925 31.46 74.3292 26.6246 68.9013 22.4656Z" fill="#836EF9" stroke="black"/>
<path d="M122.908 199.953L120.284 208.205C118.642 213.367 114.212 217.155 108.291 219.067C102.37 220.979 94.998 220.998 87.587 218.641C80.176 216.284 74.1688 212.01 70.4401 207.03C66.7108 202.048 65.2831 196.398 66.9249 191.235L69.5493 182.983L122.908 199.953Z" fill="#2E6ABD" stroke="black"/>
<path d="M101.985 173.567C109.396 175.924 115.404 180.198 119.132 185.178C122.862 190.16 124.289 195.81 122.648 200.973C121.006 206.135 116.576 209.922 110.655 211.834C104.734 213.746 97.3619 213.765 89.9508 211.409C82.5398 209.052 76.5329 204.777 72.8042 199.797C69.0751 194.815 67.647 189.165 69.2887 184.003C70.9306 178.841 75.3599 175.053 81.2816 173.141C87.2021 171.229 94.5744 171.21 101.985 173.567Z" fill="#45B8FF" stroke="black"/>
<path d="M100.818 177.236C106.811 179.142 111.664 182.597 114.674 186.618C117.685 190.64 118.831 195.189 117.511 199.339C116.192 203.488 112.628 206.541 107.847 208.085C103.068 209.628 97.1101 209.644 91.1176 207.739C85.1254 205.833 80.2723 202.379 77.2621 198.358C74.2512 194.336 73.106 189.786 74.4256 185.636C75.7453 181.487 79.3083 178.435 84.0892 176.891C88.8689 175.348 94.8258 175.33 100.818 177.236Z" fill="#45B8FF" stroke="black"/>
</svg>
