<svg width="137" height="228" viewBox="0 0 137 228" fill="none" xmlns="http://www.w3.org/2000/svg">
<path d="M65.058 139.991L65.0579 139.991L65.0641 139.999C67.5213 143.206 67.1811 148.249 64.3573 153.96C61.5494 159.64 56.3516 165.822 49.4155 171.137C42.4794 176.452 35.1574 179.862 28.9431 181.095C22.6951 182.336 17.7377 181.353 15.28 178.148L10.391 171.626L59.9277 133.002L65.058 139.991Z" fill="#6347FF" stroke="black"/>
<path d="M59.7309 133.052C62.188 136.259 61.8478 141.302 59.0241 147.013C56.2162 152.693 51.0184 158.875 44.0823 164.19C37.1462 169.505 29.8242 172.915 23.6099 174.149C17.3605 175.389 12.4023 174.406 9.94523 171.199C7.48811 167.992 7.82831 162.949 10.652 157.237C13.46 151.558 18.6577 145.375 25.5938 140.061C32.5299 134.746 39.8519 131.336 46.0663 130.102C52.3156 128.862 57.2738 129.845 59.7309 133.052Z" fill="#836EF9" stroke="black"/>
<path d="M54.2695 137.236C56.1572 139.7 55.9128 143.602 53.7042 148.069C51.5115 152.505 47.4483 157.34 42.0203 161.499C36.5923 165.658 30.8665 168.323 26.0136 169.287C21.1258 170.257 17.2944 169.478 15.4067 167.014C13.5189 164.55 13.7634 160.648 15.9719 156.181C18.1647 151.746 22.2279 146.911 27.6559 142.752C33.0838 138.593 38.8097 135.927 43.6625 134.964C48.5504 133.994 52.3818 134.773 54.2695 137.236Z" fill="#836EF9" stroke="black"/>
<path d="M38.499 19.7045L38.4991 19.7045L38.4929 19.7127C36.0357 22.9195 36.376 27.9628 39.1997 33.6742C42.0076 39.3536 47.2054 45.5362 54.1415 50.8508C61.0776 56.1654 68.3996 59.5757 74.6139 60.8093C80.8619 62.0497 85.8193 61.0667 88.277 57.8616L93.166 51.3404L43.6293 12.716L38.499 19.7045Z" fill="#6347FF" stroke="black"/>
<path d="M43.8261 12.7656C41.3689 15.9724 41.7091 21.0157 44.5329 26.7271C47.3408 32.4065 52.5385 38.5891 59.4747 43.9037C66.4108 49.2183 73.7328 52.6286 79.9471 53.8622C86.1964 55.1028 91.1546 54.1192 93.6117 50.9124C96.0688 47.7056 95.7286 42.6622 92.9049 36.9509C90.097 31.2715 84.8992 25.0888 77.9631 19.7743C71.027 14.4597 63.705 11.0494 57.4907 9.81575C51.2413 8.57516 46.2832 9.55876 43.8261 12.7656Z" fill="#836EF9" stroke="black"/>
<path d="M49.2874 16.9503C47.3997 19.414 47.6441 23.3162 49.8527 27.7833C52.0454 32.2184 56.1086 37.0536 61.5366 41.2127C66.9646 45.3717 72.6905 48.037 77.5433 49.0004C82.4312 49.9707 86.2626 49.1915 88.1503 46.7278C90.038 44.2642 89.7936 40.362 87.585 35.8949C85.3923 31.4598 81.3291 26.6245 75.9011 22.4655C70.4731 18.3065 64.7473 15.6411 59.8944 14.6778C55.0065 13.7074 51.1752 14.4867 49.2874 16.9503Z" fill="#836EF9" stroke="black"/>
<path d="M127.284 208.205C125.642 213.367 121.212 217.155 115.291 219.067C109.37 220.979 101.998 220.998 94.587 218.641C87.1759 216.284 81.169 212.01 77.4404 207.03C73.7111 202.048 72.283 196.398 73.9248 191.235L76.5493 182.983L129.908 199.953L127.284 208.205Z" fill="#2E6ABD" stroke="black"/>
<path d="M129.648 200.972C128.006 206.135 123.576 209.922 117.655 211.834C111.734 213.746 104.362 213.765 96.9509 211.408C89.5399 209.051 83.533 204.778 79.8043 199.797C76.075 194.816 74.647 189.165 76.2888 184.003C77.9306 178.84 82.36 175.053 88.2817 173.141C94.2022 171.229 101.574 171.21 108.985 173.567C116.396 175.924 122.403 180.198 126.132 185.178C129.861 190.16 131.289 195.81 129.648 200.972Z" fill="#45B8FF" stroke="black"/>
<path d="M124.511 199.339C123.191 203.488 119.628 206.541 114.847 208.085C110.068 209.628 104.11 209.645 98.1178 207.739C92.1252 205.833 87.2719 202.378 84.2617 198.358C81.2508 194.336 80.106 189.786 81.4256 185.636C82.7452 181.487 86.3079 178.434 91.0888 176.891C95.8686 175.347 101.826 175.33 107.818 177.236C113.811 179.142 118.664 182.597 121.675 186.618C124.685 190.639 125.83 195.189 124.511 199.339Z" fill="#45B8FF" stroke="black"/>
</svg>
