<svg width="80" height="18" viewBox="0 0 80 18" fill="none" xmlns="http://www.w3.org/2000/svg">
<g filter="url(#filter0_d_36669_9838)">
<mask id="path-1-outside-1_36669_9838" maskUnits="userSpaceOnUse" x="0" y="0" width="80" height="16" fill="black">
<rect fill="white" width="80" height="16"/>
<path d="M5.94863 11.984V8.704H14.1246V11.984H5.94863ZM12.8606 2L18.1246 14H13.7246L9.58063 3.824H10.6366L6.49263 14H2.09262L7.35663 2H12.8606ZM18.3204 4.8H22.4804L23.0244 8.048V14H18.9604V8L18.3204 4.8ZM27.0884 4.608V8.048C26.7257 7.984 26.4004 7.94133 26.1124 7.92C25.8244 7.888 25.5684 7.872 25.3444 7.872C24.939 7.872 24.5604 7.94667 24.2084 8.096C23.8564 8.23467 23.5684 8.49067 23.3444 8.864C23.131 9.23733 23.0244 9.77067 23.0244 10.464L22.3044 9.568C22.411 8.90667 22.5444 8.27733 22.7044 7.68C22.875 7.072 23.099 6.53333 23.3764 6.064C23.6537 5.584 24.0057 5.20533 24.4324 4.928C24.859 4.65067 25.3924 4.512 26.0324 4.512C26.1924 4.512 26.3577 4.52267 26.5284 4.544C26.699 4.55467 26.8857 4.576 27.0884 4.608ZM39.4279 9.952C39.3532 10.816 39.0492 11.5733 38.5159 12.224C37.9825 12.8747 37.2839 13.3813 36.4199 13.744C35.5665 14.1067 34.6012 14.288 33.5239 14.288C32.3505 14.288 31.3159 14.0853 30.4199 13.68C29.5239 13.264 28.8252 12.688 28.3239 11.952C27.8225 11.216 27.5719 10.368 27.5719 9.408C27.5719 8.43733 27.8225 7.58933 28.3239 6.864C28.8252 6.128 29.5239 5.552 30.4199 5.136C31.3159 4.72 32.3505 4.512 33.5239 4.512C34.6012 4.512 35.5665 4.69333 36.4199 5.056C37.2839 5.41867 37.9825 5.92533 38.5159 6.576C39.0492 7.216 39.3532 7.97333 39.4279 8.848H35.4119C35.3159 8.38933 35.0972 8.048 34.7559 7.824C34.4252 7.58933 34.0145 7.472 33.5239 7.472C33.1505 7.472 32.8199 7.54667 32.5319 7.696C32.2545 7.83467 32.0412 8.048 31.8919 8.336C31.7425 8.624 31.6679 8.98133 31.6679 9.408C31.6679 9.83467 31.7425 10.192 31.8919 10.48C32.0412 10.7573 32.2545 10.9707 32.5319 11.12C32.8199 11.2587 33.1505 11.328 33.5239 11.328C34.0145 11.328 34.4252 11.2053 34.7559 10.96C35.0972 10.704 35.3159 10.368 35.4119 9.952H39.4279ZM48.6456 14L48.1816 10.752L48.6456 9.408L48.1816 8.08L48.6456 4.8H52.8696L52.2296 9.392L52.8696 14H48.6456ZM49.4936 9.408C49.387 10.3893 49.1203 11.248 48.6936 11.984C48.2776 12.7093 47.7283 13.2747 47.0456 13.68C46.3736 14.0853 45.6003 14.288 44.7256 14.288C43.8296 14.288 43.0403 14.0853 42.3576 13.68C41.6856 13.2747 41.1576 12.704 40.7736 11.968C40.4003 11.232 40.2136 10.3787 40.2136 9.408C40.2136 8.42667 40.4003 7.568 40.7736 6.832C41.1576 6.096 41.6856 5.52533 42.3576 5.12C43.0403 4.71467 43.8296 4.512 44.7256 4.512C45.6003 4.512 46.3736 4.71467 47.0456 5.12C47.7283 5.51467 48.283 6.08 48.7096 6.816C49.1363 7.54133 49.3976 8.40533 49.4936 9.408ZM44.3096 9.408C44.3096 9.76 44.379 10.0747 44.5176 10.352C44.667 10.6187 44.8696 10.832 45.1256 10.992C45.3923 11.152 45.6963 11.232 46.0376 11.232C46.3896 11.232 46.731 11.152 47.0616 10.992C47.3923 10.832 47.6803 10.6187 47.9256 10.352C48.1816 10.0747 48.3576 9.76 48.4536 9.408C48.3576 9.056 48.1816 8.74133 47.9256 8.464C47.6803 8.18667 47.3923 7.968 47.0616 7.808C46.731 7.648 46.3896 7.568 46.0376 7.568C45.6963 7.568 45.3923 7.648 45.1256 7.808C44.8696 7.968 44.667 8.18667 44.5176 8.464C44.379 8.74133 44.3096 9.056 44.3096 9.408ZM62.2413 14L61.7773 10.576L62.4013 9.44L61.7773 7.904L62.6093 1.68H66.8333L65.8093 9.072L66.4653 14H62.2413ZM63.0093 9.408C62.9026 10.3893 62.6359 11.248 62.2093 11.984C61.7933 12.7093 61.2439 13.2747 60.5613 13.68C59.8893 14.0853 59.1159 14.288 58.2413 14.288C57.3453 14.288 56.5559 14.0853 55.8733 13.68C55.2013 13.2747 54.6733 12.704 54.2893 11.968C53.9159 11.232 53.7293 10.3787 53.7293 9.408C53.7293 8.42667 53.9159 7.568 54.2893 6.832C54.6733 6.096 55.2013 5.52533 55.8733 5.12C56.5559 4.71467 57.3453 4.512 58.2413 4.512C59.1159 4.512 59.8893 4.71467 60.5613 5.12C61.2439 5.51467 61.7986 6.08 62.2253 6.816C62.6519 7.54133 62.9133 8.40533 63.0093 9.408ZM57.8253 9.408C57.8253 9.76 57.8946 10.0747 58.0333 10.352C58.1826 10.6187 58.3853 10.832 58.6413 10.992C58.9079 11.152 59.2119 11.232 59.5533 11.232C59.9053 11.232 60.2466 11.152 60.5773 10.992C60.9079 10.832 61.1959 10.6187 61.4413 10.352C61.6973 10.0747 61.8733 9.76 61.9693 9.408C61.8733 9.056 61.6973 8.74133 61.4413 8.464C61.1959 8.18667 60.9079 7.968 60.5773 7.808C60.2466 7.648 59.9053 7.568 59.5533 7.568C59.2119 7.568 58.9079 7.648 58.6413 7.808C58.3853 7.968 58.1826 8.18667 58.0333 8.464C57.8946 8.74133 57.8253 9.056 57.8253 9.408ZM73.2434 14.288C72.102 14.288 71.078 14.0853 70.1714 13.68C69.2754 13.264 68.566 12.688 68.0434 11.952C67.5207 11.2053 67.2594 10.3413 67.2594 9.36C67.2594 8.38933 67.51 7.54133 68.0114 6.816C68.5234 6.09067 69.2167 5.52533 70.0914 5.12C70.966 4.71467 71.9474 4.512 73.0354 4.512C74.1767 4.512 75.1474 4.74667 75.9474 5.216C76.7474 5.68533 77.3607 6.352 77.7874 7.216C78.214 8.06933 78.4274 9.08267 78.4274 10.256H70.5874V8.384H76.0594L74.9714 8.992C74.918 8.576 74.8114 8.22933 74.6514 7.952C74.4914 7.67467 74.278 7.46667 74.0114 7.328C73.7554 7.17867 73.446 7.104 73.0834 7.104C72.678 7.104 72.3314 7.19467 72.0434 7.376C71.766 7.55733 71.5527 7.808 71.4034 8.128C71.2647 8.43733 71.1954 8.78933 71.1954 9.184C71.1954 9.696 71.3074 10.128 71.5314 10.48C71.766 10.8213 72.118 11.0827 72.5874 11.264C73.0567 11.4453 73.6487 11.536 74.3634 11.536C75.0567 11.536 75.7287 11.4507 76.3794 11.28C77.0407 11.0987 77.6487 10.8427 78.2034 10.512V12.816C77.5207 13.296 76.742 13.664 75.8674 13.92C75.0034 14.1653 74.1287 14.288 73.2434 14.288Z"/>
</mask>
<path d="M5.94863 11.984V8.704H14.1246V11.984H5.94863ZM12.8606 2L18.1246 14H13.7246L9.58063 3.824H10.6366L6.49263 14H2.09262L7.35663 2H12.8606ZM18.3204 4.8H22.4804L23.0244 8.048V14H18.9604V8L18.3204 4.8ZM27.0884 4.608V8.048C26.7257 7.984 26.4004 7.94133 26.1124 7.92C25.8244 7.888 25.5684 7.872 25.3444 7.872C24.939 7.872 24.5604 7.94667 24.2084 8.096C23.8564 8.23467 23.5684 8.49067 23.3444 8.864C23.131 9.23733 23.0244 9.77067 23.0244 10.464L22.3044 9.568C22.411 8.90667 22.5444 8.27733 22.7044 7.68C22.875 7.072 23.099 6.53333 23.3764 6.064C23.6537 5.584 24.0057 5.20533 24.4324 4.928C24.859 4.65067 25.3924 4.512 26.0324 4.512C26.1924 4.512 26.3577 4.52267 26.5284 4.544C26.699 4.55467 26.8857 4.576 27.0884 4.608ZM39.4279 9.952C39.3532 10.816 39.0492 11.5733 38.5159 12.224C37.9825 12.8747 37.2839 13.3813 36.4199 13.744C35.5665 14.1067 34.6012 14.288 33.5239 14.288C32.3505 14.288 31.3159 14.0853 30.4199 13.68C29.5239 13.264 28.8252 12.688 28.3239 11.952C27.8225 11.216 27.5719 10.368 27.5719 9.408C27.5719 8.43733 27.8225 7.58933 28.3239 6.864C28.8252 6.128 29.5239 5.552 30.4199 5.136C31.3159 4.72 32.3505 4.512 33.5239 4.512C34.6012 4.512 35.5665 4.69333 36.4199 5.056C37.2839 5.41867 37.9825 5.92533 38.5159 6.576C39.0492 7.216 39.3532 7.97333 39.4279 8.848H35.4119C35.3159 8.38933 35.0972 8.048 34.7559 7.824C34.4252 7.58933 34.0145 7.472 33.5239 7.472C33.1505 7.472 32.8199 7.54667 32.5319 7.696C32.2545 7.83467 32.0412 8.048 31.8919 8.336C31.7425 8.624 31.6679 8.98133 31.6679 9.408C31.6679 9.83467 31.7425 10.192 31.8919 10.48C32.0412 10.7573 32.2545 10.9707 32.5319 11.12C32.8199 11.2587 33.1505 11.328 33.5239 11.328C34.0145 11.328 34.4252 11.2053 34.7559 10.96C35.0972 10.704 35.3159 10.368 35.4119 9.952H39.4279ZM48.6456 14L48.1816 10.752L48.6456 9.408L48.1816 8.08L48.6456 4.8H52.8696L52.2296 9.392L52.8696 14H48.6456ZM49.4936 9.408C49.387 10.3893 49.1203 11.248 48.6936 11.984C48.2776 12.7093 47.7283 13.2747 47.0456 13.68C46.3736 14.0853 45.6003 14.288 44.7256 14.288C43.8296 14.288 43.0403 14.0853 42.3576 13.68C41.6856 13.2747 41.1576 12.704 40.7736 11.968C40.4003 11.232 40.2136 10.3787 40.2136 9.408C40.2136 8.42667 40.4003 7.568 40.7736 6.832C41.1576 6.096 41.6856 5.52533 42.3576 5.12C43.0403 4.71467 43.8296 4.512 44.7256 4.512C45.6003 4.512 46.3736 4.71467 47.0456 5.12C47.7283 5.51467 48.283 6.08 48.7096 6.816C49.1363 7.54133 49.3976 8.40533 49.4936 9.408ZM44.3096 9.408C44.3096 9.76 44.379 10.0747 44.5176 10.352C44.667 10.6187 44.8696 10.832 45.1256 10.992C45.3923 11.152 45.6963 11.232 46.0376 11.232C46.3896 11.232 46.731 11.152 47.0616 10.992C47.3923 10.832 47.6803 10.6187 47.9256 10.352C48.1816 10.0747 48.3576 9.76 48.4536 9.408C48.3576 9.056 48.1816 8.74133 47.9256 8.464C47.6803 8.18667 47.3923 7.968 47.0616 7.808C46.731 7.648 46.3896 7.568 46.0376 7.568C45.6963 7.568 45.3923 7.648 45.1256 7.808C44.8696 7.968 44.667 8.18667 44.5176 8.464C44.379 8.74133 44.3096 9.056 44.3096 9.408ZM62.2413 14L61.7773 10.576L62.4013 9.44L61.7773 7.904L62.6093 1.68H66.8333L65.8093 9.072L66.4653 14H62.2413ZM63.0093 9.408C62.9026 10.3893 62.6359 11.248 62.2093 11.984C61.7933 12.7093 61.2439 13.2747 60.5613 13.68C59.8893 14.0853 59.1159 14.288 58.2413 14.288C57.3453 14.288 56.5559 14.0853 55.8733 13.68C55.2013 13.2747 54.6733 12.704 54.2893 11.968C53.9159 11.232 53.7293 10.3787 53.7293 9.408C53.7293 8.42667 53.9159 7.568 54.2893 6.832C54.6733 6.096 55.2013 5.52533 55.8733 5.12C56.5559 4.71467 57.3453 4.512 58.2413 4.512C59.1159 4.512 59.8893 4.71467 60.5613 5.12C61.2439 5.51467 61.7986 6.08 62.2253 6.816C62.6519 7.54133 62.9133 8.40533 63.0093 9.408ZM57.8253 9.408C57.8253 9.76 57.8946 10.0747 58.0333 10.352C58.1826 10.6187 58.3853 10.832 58.6413 10.992C58.9079 11.152 59.2119 11.232 59.5533 11.232C59.9053 11.232 60.2466 11.152 60.5773 10.992C60.9079 10.832 61.1959 10.6187 61.4413 10.352C61.6973 10.0747 61.8733 9.76 61.9693 9.408C61.8733 9.056 61.6973 8.74133 61.4413 8.464C61.1959 8.18667 60.9079 7.968 60.5773 7.808C60.2466 7.648 59.9053 7.568 59.5533 7.568C59.2119 7.568 58.9079 7.648 58.6413 7.808C58.3853 7.968 58.1826 8.18667 58.0333 8.464C57.8946 8.74133 57.8253 9.056 57.8253 9.408ZM73.2434 14.288C72.102 14.288 71.078 14.0853 70.1714 13.68C69.2754 13.264 68.566 12.688 68.0434 11.952C67.5207 11.2053 67.2594 10.3413 67.2594 9.36C67.2594 8.38933 67.51 7.54133 68.0114 6.816C68.5234 6.09067 69.2167 5.52533 70.0914 5.12C70.966 4.71467 71.9474 4.512 73.0354 4.512C74.1767 4.512 75.1474 4.74667 75.9474 5.216C76.7474 5.68533 77.3607 6.352 77.7874 7.216C78.214 8.06933 78.4274 9.08267 78.4274 10.256H70.5874V8.384H76.0594L74.9714 8.992C74.918 8.576 74.8114 8.22933 74.6514 7.952C74.4914 7.67467 74.278 7.46667 74.0114 7.328C73.7554 7.17867 73.446 7.104 73.0834 7.104C72.678 7.104 72.3314 7.19467 72.0434 7.376C71.766 7.55733 71.5527 7.808 71.4034 8.128C71.2647 8.43733 71.1954 8.78933 71.1954 9.184C71.1954 9.696 71.3074 10.128 71.5314 10.48C71.766 10.8213 72.118 11.0827 72.5874 11.264C73.0567 11.4453 73.6487 11.536 74.3634 11.536C75.0567 11.536 75.7287 11.4507 76.3794 11.28C77.0407 11.0987 77.6487 10.8427 78.2034 10.512V12.816C77.5207 13.296 76.742 13.664 75.8674 13.92C75.0034 14.1653 74.1287 14.288 73.2434 14.288Z" fill="#BFFF60"/>
<path d="M5.94863 11.984H4.94863V12.984H5.94863V11.984ZM5.94863 8.704V7.704H4.94863V8.704H5.94863ZM14.1246 8.704H15.1246V7.704H14.1246V8.704ZM14.1246 11.984V12.984H15.1246V11.984H14.1246ZM12.8606 2L13.7764 1.59828L13.5139 0.999999H12.8606V2ZM18.1246 14V15H19.6553L19.0404 13.5983L18.1246 14ZM13.7246 14L12.7985 14.3772L13.0521 15H13.7246V14ZM9.58063 3.824V2.824H8.09365L8.65448 4.20116L9.58063 3.824ZM10.6366 3.824L11.5628 4.20116L12.1236 2.824H10.6366V3.824ZM6.49263 14V15H7.16513L7.41877 14.3772L6.49263 14ZM2.09262 14L1.17686 13.5983L0.561975 15H2.09262V14ZM7.35663 2V0.999999H6.70331L6.44086 1.59828L7.35663 2ZM5.94863 11.984H6.94863V8.704H5.94863H4.94863V11.984H5.94863ZM5.94863 8.704V9.704H14.1246V8.704V7.704H5.94863V8.704ZM14.1246 8.704H13.1246V11.984H14.1246H15.1246V8.704H14.1246ZM14.1246 11.984V10.984H5.94863V11.984V12.984H14.1246V11.984ZM12.8606 2L11.9449 2.40171L17.2089 14.4017L18.1246 14L19.0404 13.5983L13.7764 1.59828L12.8606 2ZM18.1246 14V13H13.7246V14V15H18.1246V14ZM13.7246 14L14.6508 13.6228L10.5068 3.44684L9.58063 3.824L8.65448 4.20116L12.7985 14.3772L13.7246 14ZM9.58063 3.824V4.824H10.6366V3.824V2.824H9.58063V3.824ZM10.6366 3.824L9.71048 3.44684L5.56648 13.6228L6.49263 14L7.41877 14.3772L11.5628 4.20116L10.6366 3.824ZM6.49263 14V13H2.09262V14V15H6.49263V14ZM2.09262 14L3.00839 14.4017L8.27239 2.40171L7.35663 2L6.44086 1.59828L1.17686 13.5983L2.09262 14ZM7.35663 2V3H12.8606V2V0.999999H7.35663V2ZM18.3204 4.8V3.8H17.1006L17.3398 4.99612L18.3204 4.8ZM22.4804 4.8L23.4666 4.63481L23.3268 3.8H22.4804V4.8ZM23.0244 8.048H24.0244V7.96484L24.0106 7.88281L23.0244 8.048ZM23.0244 14V15H24.0244V14H23.0244ZM18.9604 14H17.9604V15H18.9604V14ZM18.9604 8H19.9604V7.90098L19.941 7.80388L18.9604 8ZM27.0884 4.608H28.0884V3.75351L27.2443 3.62024L27.0884 4.608ZM27.0884 8.048L26.9146 9.03278L28.0884 9.23992V8.048H27.0884ZM26.1124 7.92L26.0019 8.91388L26.0202 8.91591L26.0385 8.91727L26.1124 7.92ZM24.2084 8.096L24.5749 9.02641L24.587 9.02165L24.5989 9.01658L24.2084 8.096ZM23.3444 8.864L22.4869 8.3495L22.4814 8.35863L22.4761 8.36786L23.3444 8.864ZM23.0244 10.464L22.2449 11.0904L24.0244 13.3049V10.464H23.0244ZM22.3044 9.568L21.3171 9.40877L21.2463 9.84777L21.5249 10.1944L22.3044 9.568ZM22.7044 7.68L21.7415 7.40972L21.7384 7.42126L22.7044 7.68ZM23.3764 6.064L24.2373 6.57275L24.2422 6.56428L23.3764 6.064ZM24.4324 4.928L24.9774 5.76644V5.76644L24.4324 4.928ZM26.5284 4.544L26.4043 5.53628L26.4351 5.54012L26.466 5.54205L26.5284 4.544ZM18.3204 4.8V5.8H22.4804V4.8V3.8H18.3204V4.8ZM22.4804 4.8L21.4941 4.96519L22.0381 8.21319L23.0244 8.048L24.0106 7.88281L23.4666 4.63481L22.4804 4.8ZM23.0244 8.048H22.0244V14H23.0244H24.0244V8.048H23.0244ZM23.0244 14V13H18.9604V14V15H23.0244V14ZM18.9604 14H19.9604V8H18.9604H17.9604V14H18.9604ZM18.9604 8L19.941 7.80388L19.301 4.60388L18.3204 4.8L17.3398 4.99612L17.9798 8.19612L18.9604 8ZM27.0884 4.608H26.0884V8.048H27.0884H28.0884V4.608H27.0884ZM27.0884 8.048L27.2622 7.06322C26.8749 6.99488 26.5154 6.94711 26.1862 6.92273L26.1124 7.92L26.0385 8.91727C26.2854 8.93555 26.5765 8.97312 26.9146 9.03278L27.0884 8.048ZM26.1124 7.92L26.2228 6.92612C25.9081 6.89115 25.6141 6.872 25.3444 6.872V7.872V8.872C25.5226 8.872 25.7406 8.88485 26.0019 8.91388L26.1124 7.92ZM25.3444 7.872V6.872C24.813 6.872 24.3007 6.97057 23.8178 7.17542L24.2084 8.096L24.5989 9.01658C24.8201 8.92276 25.0651 8.872 25.3444 8.872V7.872ZM24.2084 8.096L23.8419 7.16559C23.2547 7.39688 22.8064 7.817 22.4869 8.3495L23.3444 8.864L24.2019 9.3785C24.3304 9.16434 24.458 9.07245 24.5749 9.02641L24.2084 8.096ZM23.3444 8.864L22.4761 8.36786C22.1389 8.958 22.0244 9.6924 22.0244 10.464H23.0244H24.0244C24.0244 9.84893 24.1232 9.51666 24.2126 9.36014L23.3444 8.864ZM23.0244 10.464L23.8039 9.83761L23.0839 8.94161L22.3044 9.568L21.5249 10.1944L22.2449 11.0904L23.0244 10.464ZM22.3044 9.568L23.2916 9.72723C23.3933 9.09667 23.5198 8.50071 23.6703 7.93874L22.7044 7.68L21.7384 7.42126C21.569 8.05396 21.4288 8.71666 21.3171 9.40877L22.3044 9.568ZM22.7044 7.68L23.6672 7.95026C23.818 7.41295 24.0105 6.95663 24.2373 6.57273L23.3764 6.064L22.5154 5.55527C22.1876 6.11004 21.9321 6.73105 21.7416 7.40974L22.7044 7.68ZM23.3764 6.064L24.2422 6.56428C24.4479 6.20827 24.6943 5.95041 24.9774 5.76644L24.4324 4.928L23.8874 4.08956C23.3171 4.46026 22.8595 4.95973 22.5105 5.56372L23.3764 6.064ZM24.4324 4.928L24.9774 5.76644C25.2046 5.61871 25.5361 5.512 26.0324 5.512V4.512V3.512C25.2486 3.512 24.5134 3.68262 23.8874 4.08956L24.4324 4.928ZM26.0324 4.512V5.512C26.148 5.512 26.2718 5.51971 26.4043 5.53628L26.5284 4.544L26.6524 3.55172C26.4436 3.52562 26.2368 3.512 26.0324 3.512V4.512ZM26.5284 4.544L26.466 5.54205C26.5999 5.55042 26.7549 5.56773 26.9324 5.59576L27.0884 4.608L27.2443 3.62024C27.0166 3.58427 26.7982 3.55891 26.5908 3.54595L26.5284 4.544ZM39.4279 9.952L40.4242 10.0381L40.518 8.952H39.4279V9.952ZM38.5159 12.224L37.7425 11.5901L38.5159 12.224ZM36.4199 13.744L36.0328 12.8219L36.0287 12.8237L36.4199 13.744ZM30.4199 13.68L29.9987 14.5871L30.0077 14.5911L30.4199 13.68ZM28.3239 11.952L29.1504 11.389L28.3239 11.952ZM28.3239 6.864L29.1465 7.43259L29.1504 7.42696L28.3239 6.864ZM30.4199 5.136L30.841 6.04301V6.04301L30.4199 5.136ZM36.4199 5.056L36.0287 5.97634L36.0328 5.97806L36.4199 5.056ZM38.5159 6.576L37.7425 7.20995L37.7477 7.21618L38.5159 6.576ZM39.4279 8.848V9.848H40.5169L40.4243 8.76294L39.4279 8.848ZM35.4119 8.848L34.4331 9.05286L34.5995 9.848H35.4119V8.848ZM34.7559 7.824L34.1771 8.63951L34.192 8.65005L34.2072 8.66005L34.7559 7.824ZM32.5319 7.696L32.9791 8.59043L32.9857 8.58714L32.9922 8.58375L32.5319 7.696ZM31.8919 8.336L32.7796 8.79632L32.7796 8.79632L31.8919 8.336ZM31.8919 10.48L31.0041 10.9403L31.0077 10.9472L31.0114 10.9541L31.8919 10.48ZM32.5319 11.12L32.0578 12.0005L32.0777 12.0112L32.0981 12.021L32.5319 11.12ZM34.7559 10.96L35.3517 11.7631L35.3559 11.76L34.7559 10.96ZM35.4119 9.952V8.952H34.6164L34.4375 9.72714L35.4119 9.952ZM39.4279 9.952L38.4316 9.8659C38.3737 10.5356 38.1439 11.1004 37.7425 11.5901L38.5159 12.224L39.2893 12.8579C39.9546 12.0463 40.3327 11.0964 40.4242 10.0381L39.4279 9.952ZM38.5159 12.224L37.7425 11.5901C37.3238 12.1008 36.7639 12.5151 36.0328 12.8219L36.4199 13.744L36.8069 14.6661C37.8039 14.2476 38.6412 13.6485 39.2893 12.8579L38.5159 12.224ZM36.4199 13.744L36.0287 12.8237C35.3175 13.1259 34.4883 13.288 33.5239 13.288V14.288V15.288C34.7141 15.288 35.8156 15.0874 36.811 14.6643L36.4199 13.744ZM33.5239 14.288V13.288C32.4656 13.288 31.576 13.1054 30.832 12.7689L30.4199 13.68L30.0077 14.5911C31.0558 15.0652 32.2354 15.288 33.5239 15.288V14.288ZM30.4199 13.68L30.841 12.773C30.0903 12.4245 29.5392 11.96 29.1504 11.389L28.3239 11.952L27.4974 12.515C28.1112 13.416 28.9575 14.1035 29.9988 14.587L30.4199 13.68ZM28.3239 11.952L29.1504 11.389C28.771 10.8321 28.5719 10.1836 28.5719 9.408H27.5719H26.5719C26.5719 10.5524 26.8741 11.5999 27.4974 12.515L28.3239 11.952ZM27.5719 9.408H28.5719C28.5719 8.61906 28.7723 7.97401 29.1465 7.43258L28.3239 6.864L27.5012 6.29542C26.8728 7.20466 26.5719 8.25561 26.5719 9.408H27.5719ZM28.3239 6.864L29.1504 7.42696C29.5392 6.85603 30.0903 6.39155 30.841 6.04301L30.4199 5.136L29.9988 4.22899C28.9575 4.71245 28.1112 5.39996 27.4974 6.30103L28.3239 6.864ZM30.4199 5.136L30.841 6.04301C31.5826 5.69869 32.469 5.512 33.5239 5.512V4.512V3.512C32.2321 3.512 31.0492 3.74131 29.9988 4.22899L30.4199 5.136ZM33.5239 4.512V5.512C34.4883 5.512 35.3175 5.67405 36.0287 5.97633L36.4199 5.056L36.811 4.13567C35.8156 3.71261 34.7141 3.512 33.5239 3.512V4.512ZM36.4199 5.056L36.0328 5.97806C36.7639 6.28492 37.3238 6.69918 37.7425 7.20993L38.5159 6.576L39.2893 5.94207C38.6412 5.15148 37.8039 4.55242 36.8069 4.13394L36.4199 5.056ZM38.5159 6.576L37.7477 7.21618C38.1426 7.69015 38.3733 8.25082 38.4315 8.93306L39.4279 8.848L40.4243 8.76294C40.3332 7.69585 39.9558 6.74185 39.2841 5.93582L38.5159 6.576ZM39.4279 8.848V7.848H35.4119V8.848V9.848H39.4279V8.848ZM35.4119 8.848L36.3907 8.64314C36.2491 7.96696 35.9002 7.37887 35.3045 6.98795L34.7559 7.824L34.2072 8.66005C34.2942 8.71713 34.3826 8.8117 34.4331 9.05286L35.4119 8.848ZM34.7559 7.824L35.3346 7.00849C34.8019 6.63044 34.1775 6.472 33.5239 6.472V7.472V8.472C33.8516 8.472 34.0485 8.54823 34.1771 8.63951L34.7559 7.824ZM33.5239 7.472V6.472C33.0146 6.472 32.5219 6.57474 32.0716 6.80825L32.5319 7.696L32.9922 8.58375C33.1179 8.51859 33.2865 8.472 33.5239 8.472V7.472ZM32.5319 7.696L32.0847 6.80157C31.6092 7.03931 31.2459 7.40932 31.0041 7.87568L31.8919 8.336L32.7796 8.79632C32.8365 8.68668 32.8999 8.63002 32.9791 8.59043L32.5319 7.696ZM31.8919 8.336L31.0041 7.87568C30.7615 8.34359 30.6679 8.86975 30.6679 9.408H31.6679H32.6679C32.6679 9.09291 32.7236 8.90441 32.7796 8.79632L31.8919 8.336ZM31.6679 9.408H30.6679C30.6679 9.94625 30.7615 10.4724 31.0041 10.9403L31.8919 10.48L32.7796 10.0197C32.7236 9.91159 32.6679 9.72308 32.6679 9.408H31.6679ZM31.8919 10.48L31.0114 10.9541C31.2535 11.4037 31.6081 11.7584 32.0578 12.0005L32.5319 11.12L33.006 10.2395C32.9009 10.183 32.8289 10.1109 32.7723 10.0059L31.8919 10.48ZM32.5319 11.12L32.0981 12.021C32.5423 12.2349 33.0254 12.328 33.5239 12.328V11.328V10.328C33.2756 10.328 33.0974 10.2824 32.9657 10.219L32.5319 11.12ZM33.5239 11.328V12.328C34.1868 12.328 34.8176 12.1594 35.3517 11.7631L34.7559 10.96L34.16 10.1569C34.0329 10.2513 33.8423 10.328 33.5239 10.328V11.328ZM34.7559 10.96L35.3559 11.76C35.8861 11.3624 36.2373 10.8226 36.3863 10.1769L35.4119 9.952L34.4375 9.72714C34.3945 9.91342 34.3083 10.0456 34.1559 10.16L34.7559 10.96ZM35.4119 9.952V10.952H39.4279V9.952V8.952H35.4119V9.952ZM48.6456 14L47.6557 14.1414L47.7783 15H48.6456V14ZM48.1816 10.752L47.2364 10.4257L47.1575 10.6541L47.1917 10.8934L48.1816 10.752ZM48.6456 9.408L49.5909 9.73434L49.7042 9.40604L49.5897 9.07816L48.6456 9.408ZM48.1816 8.08L47.1915 7.93993L47.1575 8.18049L47.2376 8.40984L48.1816 8.08ZM48.6456 4.8V3.8H47.7771L47.6555 4.65993L48.6456 4.8ZM52.8696 4.8L53.8601 4.93804L54.0187 3.8H52.8696V4.8ZM52.2296 9.392L51.2392 9.25396L51.22 9.39176L51.2391 9.52957L52.2296 9.392ZM52.8696 14V15H54.0181L53.8601 13.8624L52.8696 14ZM49.4936 9.408L50.4878 9.51606L50.4988 9.41444L50.4891 9.31269L49.4936 9.408ZM48.6936 11.984L47.8285 11.4825L47.8262 11.4865L48.6936 11.984ZM47.0456 13.68L46.5351 12.8201L46.5291 12.8237L47.0456 13.68ZM42.3576 13.68L41.8411 14.5363L41.8471 14.5399L42.3576 13.68ZM40.7736 11.968L39.8817 12.4204L39.887 12.4306L40.7736 11.968ZM40.7736 6.832L39.887 6.3694L39.8818 6.37962L40.7736 6.832ZM42.3576 5.12L41.8471 4.26012L41.8411 4.26371L42.3576 5.12ZM47.0456 5.12L46.5291 5.97629L46.5371 5.98109L46.5451 5.98573L47.0456 5.12ZM48.7096 6.816L47.8445 7.31754L47.8477 7.32302L48.7096 6.816ZM44.5176 10.352L43.6232 10.7992L43.6337 10.8202L43.6451 10.8406L44.5176 10.352ZM45.1256 10.992L44.5956 11.84L44.6033 11.8448L44.6111 11.8495L45.1256 10.992ZM47.0616 10.992L47.4972 11.8922L47.0616 10.992ZM47.9256 10.352L47.1908 9.67372L47.1897 9.67494L47.9256 10.352ZM48.4536 9.408L49.4184 9.67112L49.4902 9.408L49.4184 9.14488L48.4536 9.408ZM47.9256 8.464L47.1766 9.12657L47.1836 9.1345L47.1908 9.14228L47.9256 8.464ZM47.0616 7.808L47.4972 6.90784L47.4972 6.90784L47.0616 7.808ZM45.1256 7.808L44.6111 6.95051L44.6033 6.95518L44.5956 6.96L45.1256 7.808ZM44.5176 8.464L43.6372 7.9899L43.63 8.00324L43.6232 8.01679L44.5176 8.464ZM48.6456 14L49.6356 13.8586L49.1716 10.6106L48.1816 10.752L47.1917 10.8934L47.6557 14.1414L48.6456 14ZM48.1816 10.752L49.1269 11.0783L49.5909 9.73434L48.6456 9.408L47.7004 9.08166L47.2364 10.4257L48.1816 10.752ZM48.6456 9.408L49.5897 9.07816L49.1257 7.75016L48.1816 8.08L47.2376 8.40984L47.7016 9.73784L48.6456 9.408ZM48.1816 8.08L49.1718 8.22007L49.6358 4.94007L48.6456 4.8L47.6555 4.65993L47.1915 7.93993L48.1816 8.08ZM48.6456 4.8V5.8H52.8696V4.8V3.8H48.6456V4.8ZM52.8696 4.8L51.8792 4.66196L51.2392 9.25396L52.2296 9.392L53.2201 9.53004L53.8601 4.93804L52.8696 4.8ZM52.2296 9.392L51.2391 9.52957L51.8791 14.1376L52.8696 14L53.8601 13.8624L53.2201 9.25443L52.2296 9.392ZM52.8696 14V13H48.6456V14V15H52.8696V14ZM49.4936 9.408L48.4995 9.29994C48.4055 10.1646 48.1748 10.885 47.8285 11.4825L48.6936 11.984L49.5588 12.4855C50.0658 11.611 50.3684 10.614 50.4878 9.51606L49.4936 9.408ZM48.6936 11.984L47.8262 11.4865C47.4912 12.0705 47.0616 12.5075 46.5351 12.8201L47.0456 13.68L47.5562 14.5399C48.395 14.0418 49.0641 13.3481 49.5611 12.4815L48.6936 11.984ZM47.0456 13.68L46.5291 12.8237C46.0304 13.1245 45.4397 13.288 44.7256 13.288V14.288V15.288C45.7609 15.288 46.7169 15.0461 47.5621 14.5363L47.0456 13.68ZM44.7256 14.288V13.288C43.9857 13.288 43.3772 13.1224 42.8682 12.8201L42.3576 13.68L41.8471 14.5399C42.7034 15.0483 43.6736 15.288 44.7256 15.288V14.288ZM42.3576 13.68L42.8741 12.8237C42.3685 12.5187 41.9644 12.0885 41.6602 11.5054L40.7736 11.968L39.887 12.4306C40.3508 13.3195 41.0028 14.0306 41.8411 14.5363L42.3576 13.68ZM40.7736 11.968L41.6655 11.5156C41.3747 10.9425 41.2136 10.2491 41.2136 9.408H40.2136H39.2136C39.2136 10.5083 39.4258 11.5215 39.8818 12.4204L40.7736 11.968ZM40.2136 9.408H41.2136C41.2136 8.55433 41.3755 7.85602 41.6655 7.28438L40.7736 6.832L39.8818 6.37962C39.4251 7.27998 39.2136 8.299 39.2136 9.408H40.2136ZM40.7736 6.832L41.6602 7.29457C41.9644 6.71147 42.3685 6.28127 42.8741 5.97629L42.3576 5.12L41.8411 4.26371C41.0028 4.76939 40.3508 5.48053 39.887 6.36943L40.7736 6.832ZM42.3576 5.12L42.8682 5.97985C43.3772 5.6776 43.9857 5.512 44.7256 5.512V4.512V3.512C43.6736 3.512 42.7034 3.75173 41.8471 4.26015L42.3576 5.12ZM44.7256 4.512V5.512C45.4397 5.512 46.0304 5.67546 46.5291 5.97629L47.0456 5.12L47.5621 4.26371C46.7169 3.75387 45.7609 3.512 44.7256 3.512V4.512ZM47.0456 5.12L46.5451 5.98573C47.0647 6.28609 47.4983 6.7204 47.8445 7.31753L48.7096 6.816L49.5748 6.31447C49.0676 5.4396 48.3919 4.74324 47.5461 4.25426L47.0456 5.12ZM48.7096 6.816L47.8477 7.32302C48.1872 7.90017 48.4134 8.61776 48.4982 9.50331L49.4936 9.408L50.4891 9.31269C50.3819 8.19291 50.0854 7.1825 49.5716 6.30898L48.7096 6.816ZM44.3096 9.408H43.3096C43.3096 9.89412 43.4062 10.3653 43.6232 10.7992L44.5176 10.352L45.4121 9.90479C45.3517 9.78405 45.3096 9.62588 45.3096 9.408H44.3096ZM44.5176 10.352L43.6451 10.8406C43.8755 11.2521 44.1952 11.5897 44.5956 11.84L45.1256 10.992L45.6556 10.144C45.544 10.0743 45.4584 9.98528 45.3901 9.8634L44.5176 10.352ZM45.1256 10.992L44.6111 11.8495C45.0481 12.1117 45.5333 12.232 46.0376 12.232V11.232V10.232C45.8593 10.232 45.7364 10.1923 45.6401 10.1345L45.1256 10.992ZM46.0376 11.232V12.232C46.5471 12.232 47.0368 12.1149 47.4972 11.8922L47.0616 10.992L46.6261 10.0918C46.4251 10.1891 46.2322 10.232 46.0376 10.232V11.232ZM47.0616 10.992L47.4972 11.8922C47.9395 11.6781 48.3298 11.3896 48.6616 11.0291L47.9256 10.352L47.1897 9.67494C47.0308 9.84771 46.8451 9.98588 46.6261 10.0918L47.0616 10.992ZM47.9256 10.352L48.6604 11.0303C49.0214 10.6392 49.2787 10.1834 49.4184 9.67112L48.4536 9.408L47.4889 9.14488C47.4366 9.33662 47.3418 9.51011 47.1908 9.67372L47.9256 10.352ZM48.4536 9.408L49.4184 9.14488C49.2787 8.63262 49.0214 8.17678 48.6604 7.78572L47.9256 8.464L47.1908 9.14228C47.3418 9.30589 47.4366 9.47938 47.4889 9.67112L48.4536 9.408ZM47.9256 8.464L48.6746 7.80143C48.3423 7.42574 47.948 7.12598 47.4972 6.90784L47.0616 7.808L46.6261 8.70816C46.8366 8.81002 47.0183 8.94759 47.1766 9.12657L47.9256 8.464ZM47.0616 7.808L47.4972 6.90784C47.0368 6.68508 46.5471 6.568 46.0376 6.568V7.568V8.568C46.2322 8.568 46.4251 8.61092 46.6261 8.70816L47.0616 7.808ZM46.0376 7.568V6.568C45.5333 6.568 45.0481 6.6883 44.6111 6.95051L45.1256 7.808L45.6401 8.66549C45.7364 8.6077 45.8593 8.568 46.0376 8.568V7.568ZM45.1256 7.808L44.5956 6.96C44.1858 7.21615 43.8651 7.56651 43.6372 7.9899L44.5176 8.464L45.3981 8.9381C45.4688 8.80682 45.5535 8.71985 45.6556 8.656L45.1256 7.808ZM44.5176 8.464L43.6232 8.01679C43.4062 8.45071 43.3096 8.92188 43.3096 9.408H44.3096H45.3096C45.3096 9.19012 45.3517 9.03195 45.4121 8.91121L44.5176 8.464ZM62.2412 14L61.2503 14.1343L61.3676 15H62.2412V14ZM61.7773 10.576L60.9008 10.0946L60.742 10.3835L60.7863 10.7103L61.7773 10.576ZM62.4013 9.44L63.2777 9.92144L63.5068 9.50443L63.3277 9.06362L62.4013 9.44ZM61.7773 7.904L60.7861 7.7715L60.7509 8.03453L60.8508 8.28038L61.7773 7.904ZM62.6092 1.68V0.679999H61.734L61.6181 1.5475L62.6092 1.68ZM66.8333 1.68L67.8238 1.81722L67.9813 0.679999H66.8333V1.68ZM65.8092 9.072L64.8187 8.93478L64.8001 9.06932L64.818 9.20395L65.8092 9.072ZM66.4652 14V15H67.6072L67.4565 13.868L66.4652 14ZM63.0093 9.408L64.0034 9.51606L64.0144 9.41444L64.0047 9.31269L63.0093 9.408ZM62.2093 11.984L61.3441 11.4825L61.3418 11.4865L62.2093 11.984ZM60.5612 13.68L60.0507 12.8201L60.0448 12.8237L60.5612 13.68ZM55.8732 13.68L55.3567 14.5363L55.3627 14.5399L55.8732 13.68ZM54.2892 11.968L53.3974 12.4204L53.4027 12.4306L54.2892 11.968ZM54.2892 6.832L53.4026 6.3694L53.3974 6.37962L54.2892 6.832ZM55.8732 5.12L55.3627 4.26012L55.3568 4.26371L55.8732 5.12ZM60.5612 5.12L60.0448 5.97629L60.0527 5.98109L60.0607 5.98573L60.5612 5.12ZM62.2253 6.816L61.3601 7.31754L61.3633 7.32302L62.2253 6.816ZM58.0332 10.352L57.1388 10.7992L57.1493 10.8202L57.1607 10.8406L58.0332 10.352ZM58.6413 10.992L58.1113 11.84L58.119 11.8448L58.1268 11.8495L58.6413 10.992ZM60.5773 10.992L61.0128 11.8922L60.5773 10.992ZM61.4412 10.352L60.7064 9.67372L60.7053 9.67494L61.4412 10.352ZM61.9692 9.408L62.934 9.67112L63.0058 9.408L62.934 9.14488L61.9692 9.408ZM61.4412 8.464L60.6923 9.12657L60.6993 9.1345L60.7064 9.14228L61.4412 8.464ZM60.5773 7.808L61.0128 6.90784L61.0128 6.90784L60.5773 7.808ZM58.6413 7.808L58.1268 6.95051L58.119 6.95518L58.1113 6.96L58.6413 7.808ZM58.0332 8.464L57.1528 7.9899L57.1456 8.00324L57.1388 8.01679L58.0332 8.464ZM62.2412 14L63.2322 13.8657L62.7682 10.4417L61.7773 10.576L60.7863 10.7103L61.2503 14.1343L62.2412 14ZM61.7773 10.576L62.6537 11.0574L63.2777 9.92144L62.4013 9.44L61.5248 8.95855L60.9008 10.0946L61.7773 10.576ZM62.4013 9.44L63.3277 9.06362L62.7037 7.52762L61.7773 7.904L60.8508 8.28038L61.4748 9.81638L62.4013 9.44ZM61.7773 7.904L62.7684 8.0365L63.6004 1.8125L62.6092 1.68L61.6181 1.5475L60.7861 7.7715L61.7773 7.904ZM62.6092 1.68V2.68H66.8333V1.68V0.679999H62.6092V1.68ZM66.8333 1.68L65.8427 1.54278L64.8187 8.93478L65.8092 9.072L66.7998 9.20922L67.8238 1.81722L66.8333 1.68ZM65.8092 9.072L64.818 9.20395L65.474 14.132L66.4652 14L67.4565 13.868L66.8005 8.94005L65.8092 9.072ZM66.4652 14V13H62.2412V14V15H66.4652V14ZM63.0093 9.408L62.0151 9.29994C61.9211 10.1646 61.6905 10.885 61.3441 11.4825L62.2093 11.984L63.0744 12.4855C63.5814 11.611 63.884 10.614 64.0034 9.51606L63.0093 9.408ZM62.2093 11.984L61.3418 11.4865C61.0068 12.0705 60.5772 12.5075 60.0507 12.8201L60.5612 13.68L61.0718 14.5399C61.9106 14.0418 62.5797 13.3481 63.0767 12.4815L62.2093 11.984ZM60.5612 13.68L60.0448 12.8237C59.546 13.1245 58.9553 13.288 58.2412 13.288V14.288V15.288C59.2765 15.288 60.2325 15.0461 61.0777 14.5363L60.5612 13.68ZM58.2412 14.288V13.288C57.5013 13.288 56.8928 13.1224 56.3838 12.8201L55.8732 13.68L55.3627 14.5399C56.219 15.0483 57.1892 15.288 58.2412 15.288V14.288ZM55.8732 13.68L56.3897 12.8237C55.8841 12.5187 55.4801 12.0885 55.1758 11.5054L54.2892 11.968L53.4027 12.4306C53.8664 13.3195 54.5184 14.0306 55.3568 14.5363L55.8732 13.68ZM54.2892 11.968L55.1811 11.5156C54.8904 10.9425 54.7293 10.2491 54.7293 9.408H53.7293H52.7293C52.7293 10.5083 52.9415 11.5215 53.3974 12.4204L54.2892 11.968ZM53.7293 9.408H54.7293C54.7293 8.55433 54.8911 7.85602 55.1811 7.28438L54.2892 6.832L53.3974 6.37962C52.9407 7.27998 52.7293 8.299 52.7293 9.408H53.7293ZM54.2892 6.832L55.1758 7.29457C55.4801 6.71147 55.8841 6.28127 56.3897 5.97629L55.8732 5.12L55.3568 4.26371C54.5184 4.76939 53.8664 5.48053 53.4027 6.36943L54.2892 6.832ZM55.8732 5.12L56.3838 5.97985C56.8928 5.6776 57.5013 5.512 58.2412 5.512V4.512V3.512C57.1892 3.512 56.219 3.75173 55.3627 4.26015L55.8732 5.12ZM58.2412 4.512V5.512C58.9553 5.512 59.546 5.67546 60.0448 5.97629L60.5612 5.12L61.0777 4.26371C60.2325 3.75387 59.2765 3.512 58.2412 3.512V4.512ZM60.5612 5.12L60.0607 5.98573C60.5803 6.28609 61.0139 6.7204 61.3601 7.31753L62.2253 6.816L63.0904 6.31447C62.5832 5.4396 61.9076 4.74324 61.0618 4.25426L60.5612 5.12ZM62.2253 6.816L61.3633 7.32302C61.7028 7.90017 61.929 8.61776 62.0138 9.50331L63.0093 9.408L64.0047 9.31269C63.8975 8.19291 63.601 7.1825 63.0872 6.30898L62.2253 6.816ZM57.8252 9.408H56.8252C56.8252 9.89412 56.9219 10.3653 57.1388 10.7992L58.0332 10.352L58.9277 9.90479C58.8673 9.78405 58.8252 9.62588 58.8252 9.408H57.8252ZM58.0332 10.352L57.1607 10.8406C57.3912 11.2521 57.7108 11.5897 58.1113 11.84L58.6413 10.992L59.1712 10.144C59.0597 10.0743 58.974 9.98528 58.9058 9.8634L58.0332 10.352ZM58.6413 10.992L58.1268 11.8495C58.5638 12.1117 59.0489 12.232 59.5532 12.232V11.232V10.232C59.3749 10.232 59.2521 10.1923 59.1557 10.1345L58.6413 10.992ZM59.5532 11.232V12.232C60.0627 12.232 60.5524 12.1149 61.0128 11.8922L60.5773 10.992L60.1417 10.0918C59.9407 10.1891 59.7478 10.232 59.5532 10.232V11.232ZM60.5773 10.992L61.0128 11.8922C61.4552 11.6781 61.8455 11.3896 62.1772 11.0291L61.4412 10.352L60.7053 9.67494C60.5464 9.84771 60.3607 9.98588 60.1417 10.0918L60.5773 10.992ZM61.4412 10.352L62.1761 11.0303C62.537 10.6392 62.7943 10.1834 62.934 9.67112L61.9692 9.408L61.0045 9.14488C60.9522 9.33662 60.8575 9.51011 60.7064 9.67372L61.4412 10.352ZM61.9692 9.408L62.934 9.14488C62.7943 8.63262 62.537 8.17678 62.1761 7.78572L61.4412 8.464L60.7064 9.14228C60.8575 9.30589 60.9522 9.47938 61.0045 9.67112L61.9692 9.408ZM61.4412 8.464L62.1902 7.80143C61.8579 7.42574 61.4636 7.12598 61.0128 6.90784L60.5773 7.808L60.1417 8.70816C60.3522 8.81002 60.5339 8.94759 60.6923 9.12657L61.4412 8.464ZM60.5773 7.808L61.0128 6.90784C60.5524 6.68508 60.0627 6.568 59.5532 6.568V7.568V8.568C59.7478 8.568 59.9407 8.61092 60.1417 8.70816L60.5773 7.808ZM59.5532 7.568V6.568C59.0489 6.568 58.5638 6.6883 58.1268 6.95051L58.6413 7.808L59.1557 8.66549C59.2521 8.6077 59.3749 8.568 59.5532 8.568V7.568ZM58.6413 7.808L58.1113 6.96C57.7014 7.21615 57.3808 7.56651 57.1528 7.9899L58.0332 8.464L58.9137 8.9381C58.9844 8.80682 59.0691 8.71985 59.1712 8.656L58.6413 7.808ZM58.0332 8.464L57.1388 8.01679C56.9219 8.45071 56.8252 8.92188 56.8252 9.408H57.8252H58.8252C58.8252 9.19012 58.8673 9.03195 58.9277 8.91121L58.0332 8.464ZM70.1714 13.68L69.7503 14.587L69.7567 14.59L69.7632 14.5929L70.1714 13.68ZM68.0434 11.952L67.2241 12.5255L67.2281 12.531L68.0434 11.952ZM68.0114 6.816L67.1944 6.23929L67.1888 6.24742L68.0114 6.816ZM70.0914 5.12L70.5118 6.02731L70.0914 5.12ZM77.7874 7.216L76.8907 7.65879L76.893 7.66321L77.7874 7.216ZM78.4274 10.256V11.256H79.4274V10.256H78.4274ZM70.5874 10.256H69.5874V11.256H70.5874V10.256ZM70.5874 8.384V7.384H69.5874V8.384H70.5874ZM76.0594 8.384L76.5472 9.25694L79.8988 7.384H76.0594V8.384ZM74.9714 8.992L73.9795 9.11916L74.1676 10.5867L75.4592 9.86494L74.9714 8.992ZM74.6514 7.952L73.7852 8.45172V8.45172L74.6514 7.952ZM74.0114 7.328L73.5075 8.19178L73.5285 8.20401L73.55 8.21522L74.0114 7.328ZM72.0434 7.376L71.5106 6.52977L71.5033 6.53434L71.4961 6.53903L72.0434 7.376ZM71.4034 8.128L70.4972 7.70511L70.494 7.71201L70.4909 7.71894L71.4034 8.128ZM71.5314 10.48L70.6877 11.0169L70.6973 11.0319L70.7073 11.0465L71.5314 10.48ZM72.5874 11.264L72.227 12.1968L72.5874 11.264ZM76.3794 11.28L76.6331 12.2473L76.6438 12.2444L76.3794 11.28ZM78.2034 10.512H79.2034V8.75163L77.6913 9.65305L78.2034 10.512ZM78.2034 12.816L78.7785 13.634L79.2034 13.3353V12.816H78.2034ZM75.8674 13.92L76.1405 14.882L76.1483 14.8797L75.8674 13.92ZM73.2434 14.288V13.288C72.2218 13.288 71.34 13.107 70.5795 12.7671L70.1714 13.68L69.7632 14.5929C70.8161 15.0636 71.9823 15.288 73.2434 15.288V14.288ZM70.1714 13.68L70.5925 12.773C69.8389 12.4231 69.2714 11.9541 68.8587 11.373L68.0434 11.952L67.2281 12.531C67.8607 13.4219 68.7119 14.1049 69.7503 14.587L70.1714 13.68ZM68.0434 11.952L68.8626 11.3785C68.4668 10.813 68.2594 10.1527 68.2594 9.36H67.2594H66.2594C66.2594 10.5299 66.5747 11.5976 67.2241 12.5255L68.0434 11.952ZM67.2594 9.36H68.2594C68.2594 8.57106 68.4598 7.92601 68.834 7.38458L68.0114 6.816L67.1888 6.24742C66.5603 7.15666 66.2594 8.20761 66.2594 9.36H67.2594ZM68.0114 6.816L68.8283 7.39268C69.2308 6.8225 69.782 6.36555 70.5118 6.02731L70.0914 5.12L69.6709 4.21269C68.6515 4.68512 67.8159 5.35883 67.1944 6.23932L68.0114 6.816ZM70.0914 5.12L70.5118 6.02731C71.2387 5.69045 72.0739 5.512 73.0354 5.512V4.512V3.512C71.8209 3.512 70.6933 3.73888 69.6709 4.21269L70.0914 5.12ZM73.0354 4.512V5.512C74.0396 5.512 74.8265 5.71782 75.4414 6.07852L75.9474 5.216L76.4534 4.35347C75.4682 3.77551 74.3138 3.512 73.0354 3.512V4.512ZM75.9474 5.216L75.4414 6.07852C76.0662 6.44509 76.547 6.96263 76.8907 7.65878L77.7874 7.216L78.684 6.77322C78.1745 5.74137 77.4286 4.92558 76.4534 4.35347L75.9474 5.216ZM77.7874 7.216L76.893 7.66321C77.2361 8.34942 77.4274 9.20287 77.4274 10.256H78.4274H79.4274C79.4274 8.96246 79.192 7.78925 78.6818 6.76879L77.7874 7.216ZM78.4274 10.256V9.256H70.5874V10.256V11.256H78.4274V10.256ZM70.5874 10.256H71.5874V8.384H70.5874H69.5874V10.256H70.5874ZM70.5874 8.384V9.384H76.0594V8.384V7.384H70.5874V8.384ZM76.0594 8.384L75.5716 7.51106L74.4836 8.11906L74.9714 8.992L75.4592 9.86494L76.5472 9.25694L76.0594 8.384ZM74.9714 8.992L75.9633 8.86484C75.8981 8.35626 75.7607 7.87381 75.5176 7.45228L74.6514 7.952L73.7852 8.45172C73.862 8.58486 73.938 8.79574 73.9795 9.11916L74.9714 8.992ZM74.6514 7.952L75.5176 7.45228C75.2688 7.02111 74.9197 6.67321 74.4727 6.44078L74.0114 7.328L73.55 8.21522C73.6364 8.26013 73.7139 8.32823 73.7852 8.45172L74.6514 7.952ZM74.0114 7.328L74.5152 6.46422C74.0755 6.20771 73.5837 6.104 73.0834 6.104V7.104V8.104C73.3084 8.104 73.4352 8.14963 73.5075 8.19178L74.0114 7.328ZM73.0834 7.104V6.104C72.5259 6.104 71.9864 6.23019 71.5106 6.52977L72.0434 7.376L72.5762 8.22223C72.6764 8.15915 72.8302 8.104 73.0834 8.104V7.104ZM72.0434 7.376L71.4961 6.53903C71.0526 6.82904 70.7199 7.22792 70.4972 7.70511L71.4034 8.128L72.3096 8.55089C72.3855 8.38807 72.4795 8.28562 72.5906 8.21297L72.0434 7.376ZM71.4034 8.128L70.4909 7.71894C70.2858 8.17636 70.1954 8.67131 70.1954 9.184H71.1954H72.1954C72.1954 8.90736 72.2436 8.6983 72.3159 8.53706L71.4034 8.128ZM71.1954 9.184H70.1954C70.1954 9.84286 70.3406 10.4714 70.6877 11.0169L71.5314 10.48L72.375 9.94312C72.2741 9.78458 72.1954 9.54914 72.1954 9.184H71.1954ZM71.5314 10.48L70.7073 11.0465C71.0787 11.5867 71.6106 11.9587 72.227 12.1968L72.5874 11.264L72.9478 10.3312C72.6255 10.2067 72.4534 10.056 72.3554 9.91347L71.5314 10.48ZM72.5874 11.264L72.227 12.1968C72.8487 12.437 73.5732 12.536 74.3634 12.536V11.536V10.536C73.7242 10.536 73.2647 10.4537 72.9478 10.3312L72.5874 11.264ZM74.3634 11.536V12.536C75.1397 12.536 75.8971 12.4403 76.6331 12.2473L76.3794 11.28L76.1257 10.3127C75.5603 10.461 74.9737 10.536 74.3634 10.536V11.536ZM76.3794 11.28L76.6438 12.2444C77.3867 12.0407 78.0787 11.7505 78.7154 11.3709L78.2034 10.512L77.6913 9.65305C77.2187 9.9348 76.6947 10.1566 76.1149 10.3156L76.3794 11.28ZM78.2034 10.512H77.2034V12.816H78.2034H79.2034V10.512H78.2034ZM78.2034 12.816L77.6282 11.998C77.0431 12.4094 76.3656 12.7322 75.5865 12.9603L75.8674 13.92L76.1483 14.8797C77.1185 14.5958 77.9983 14.1826 78.7785 13.634L78.2034 12.816ZM75.8674 13.92L75.5942 12.958C74.8178 13.1785 74.035 13.288 73.2434 13.288V14.288V15.288C74.2224 15.288 75.189 15.1522 76.1405 14.882L75.8674 13.92Z" fill="black" mask="url(#path-1-outside-1_36669_9838)"/>
</g>
<defs>
<filter id="filter0_d_36669_9838" x="0.562012" y="0.679993" width="79.3367" height="16.608" filterUnits="userSpaceOnUse" color-interpolation-filters="sRGB">
<feFlood flood-opacity="0" result="BackgroundImageFix"/>
<feColorMatrix in="SourceAlpha" type="matrix" values="0 0 0 0 0 0 0 0 0 0 0 0 0 0 0 0 0 0 127 0" result="hardAlpha"/>
<feOffset dy="2"/>
<feComposite in2="hardAlpha" operator="out"/>
<feColorMatrix type="matrix" values="0 0 0 0 0 0 0 0 0 0 0 0 0 0 0 0 0 0 0.5 0"/>
<feBlend mode="normal" in2="BackgroundImageFix" result="effect1_dropShadow_36669_9838"/>
<feBlend mode="normal" in="SourceGraphic" in2="effect1_dropShadow_36669_9838" result="shape"/>
</filter>
</defs>
</svg>
