<svg width="87" height="25" viewBox="0 0 87 25" fill="none" xmlns="http://www.w3.org/2000/svg">
<g filter="url(#filter0_d_31979_1746)">
<mask id="path-1-outside-1_31979_1746" maskUnits="userSpaceOnUse" x="-0.774048" y="0" width="88" height="23" fill="black">
<rect fill="white" x="-0.774048" width="88" height="23"/>
<path d="M12.6106 10.72L13.0106 9.8C14.144 9.84 15.0906 10.02 15.8506 10.34C16.6106 10.66 17.1773 11.1067 17.5506 11.68C17.9373 12.24 18.1306 12.9133 18.1306 13.7C18.1306 14.5133 17.944 15.2467 17.5706 15.9C17.2106 16.5533 16.6573 17.0667 15.9106 17.44C15.164 17.8133 14.2306 18 13.1106 18H1.33064L2.47064 10.3L1.33064 3H12.6906C14.0773 3 15.164 3.32667 15.9506 3.98C16.7373 4.62 17.1306 5.51333 17.1306 6.66C17.1306 7.31333 16.984 7.92667 16.6906 8.5C16.3973 9.07333 15.9173 9.56 15.2506 9.96C14.5973 10.3467 13.7173 10.6 12.6106 10.72ZM6.37064 16.88L4.41064 14.58H11.4706C11.9106 14.58 12.2573 14.4667 12.5106 14.24C12.764 14 12.8906 13.68 12.8906 13.28C12.8906 12.92 12.764 12.6133 12.5106 12.36C12.2706 12.1067 11.9106 11.98 11.4306 11.98H5.51064V8.62H10.6706C11.0173 8.62 11.304 8.51333 11.5306 8.3C11.7706 8.08667 11.8906 7.81333 11.8906 7.48C11.8906 7.17333 11.784 6.92 11.5706 6.72C11.3573 6.52 11.0573 6.42 10.6706 6.42H4.43064L6.37064 4.12L7.39064 10.3L6.37064 16.88ZM18.9194 6.5H24.1194L24.7994 10.56V18H19.7194V10.5L18.9194 6.5ZM29.8794 6.26V10.56C29.4261 10.48 29.0194 10.4267 28.6594 10.4C28.2994 10.36 27.9794 10.34 27.6994 10.34C27.1927 10.34 26.7194 10.4333 26.2794 10.62C25.8394 10.7933 25.4794 11.1133 25.1994 11.58C24.9327 12.0467 24.7994 12.7133 24.7994 13.58L23.8994 12.46C24.0327 11.6333 24.1994 10.8467 24.3994 10.1C24.6127 9.34 24.8927 8.66667 25.2394 8.08C25.5861 7.48 26.0261 7.00667 26.5594 6.66C27.0927 6.31333 27.7594 6.14 28.5594 6.14C28.7594 6.14 28.9661 6.15333 29.1794 6.18C29.3927 6.19333 29.6261 6.22 29.8794 6.26ZM31.1586 6.26L33.6986 6.78L36.2386 6.26V18H31.1586V6.26ZM33.6986 5.66C32.8453 5.66 32.1586 5.45333 31.6386 5.04C31.1186 4.62667 30.8586 4.06 30.8586 3.34C30.8586 2.62 31.1186 2.05333 31.6386 1.64C32.1586 1.22667 32.8453 1.02 33.6986 1.02C34.5653 1.02 35.2519 1.22667 35.7586 1.64C36.2786 2.05333 36.5386 2.62 36.5386 3.34C36.5386 4.06 36.2786 4.62667 35.7586 5.04C35.2519 5.45333 34.5653 5.66 33.6986 5.66ZM48.3908 18L47.8108 13.72L48.5908 12.3L47.8108 10.38L48.8508 2.6H54.1308L52.8508 11.84L53.6708 18H48.3908ZM49.3508 12.26C49.2175 13.4867 48.8841 14.56 48.3508 15.48C47.8308 16.3867 47.1441 17.0933 46.2908 17.6C45.4508 18.1067 44.4841 18.36 43.3908 18.36C42.2708 18.36 41.2841 18.1067 40.4308 17.6C39.5908 17.0933 38.9308 16.38 38.4508 15.46C37.9841 14.54 37.7508 13.4733 37.7508 12.26C37.7508 11.0333 37.9841 9.96 38.4508 9.04C38.9308 8.12 39.5908 7.40667 40.4308 6.9C41.2841 6.39333 42.2708 6.14 43.3908 6.14C44.4841 6.14 45.4508 6.39333 46.2908 6.9C47.1441 7.39333 47.8375 8.1 48.3708 9.02C48.9041 9.92667 49.2308 11.0067 49.3508 12.26ZM42.8708 12.26C42.8708 12.7 42.9575 13.0933 43.1308 13.44C43.3175 13.7733 43.5708 14.04 43.8908 14.24C44.2241 14.44 44.6041 14.54 45.0308 14.54C45.4708 14.54 45.8975 14.44 46.3108 14.24C46.7241 14.04 47.0841 13.7733 47.3908 13.44C47.7108 13.0933 47.9308 12.7 48.0508 12.26C47.9308 11.82 47.7108 11.4267 47.3908 11.08C47.0841 10.7333 46.7241 10.46 46.3108 10.26C45.8975 10.06 45.4708 9.96 45.0308 9.96C44.6041 9.96 44.2241 10.06 43.8908 10.26C43.5708 10.46 43.3175 10.7333 43.1308 11.08C42.9575 11.4267 42.8708 11.82 42.8708 12.26ZM64.9225 15.06V13.16L65.0825 12.6V9.38L64.9225 8.96V6.5H70.0025V14.94C70.0025 16.3133 69.6625 17.5 68.9825 18.5C68.3025 19.5133 67.3425 20.2933 66.1025 20.84C64.8625 21.3867 63.3892 21.66 61.6825 21.66C60.5892 21.66 59.5758 21.52 58.6425 21.24C57.7225 20.96 56.7892 20.5533 55.8425 20.02V16.32C56.6692 16.92 57.5492 17.3667 58.4825 17.66C59.4292 17.94 60.3892 18.08 61.3625 18.08C62.5092 18.08 63.3892 17.86 64.0025 17.42C64.6158 16.98 64.9225 16.1933 64.9225 15.06ZM60.3825 16.58C59.2892 16.58 58.3158 16.3667 57.4625 15.94C56.6092 15.5 55.9358 14.8867 55.4425 14.1C54.9625 13.3133 54.7225 12.4 54.7225 11.36C54.7225 10.3067 54.9625 9.39333 55.4425 8.62C55.9358 7.83333 56.6092 7.22667 57.4625 6.8C58.3158 6.36 59.2892 6.14 60.3825 6.14C61.2092 6.14 61.9558 6.26667 62.6225 6.52C63.3025 6.77333 63.8958 7.10667 64.4025 7.52C64.9225 7.93333 65.3558 8.38 65.7025 8.86C66.0492 9.32667 66.3092 9.78667 66.4825 10.24C66.6558 10.6933 66.7425 11.0867 66.7425 11.42C66.7425 11.8867 66.6025 12.4133 66.3225 13C66.0558 13.5867 65.6558 14.1533 65.1225 14.7C64.5892 15.2467 63.9225 15.7 63.1225 16.06C62.3358 16.4067 61.4225 16.58 60.3825 16.58ZM62.1625 13.22C62.8292 13.22 63.4092 13.06 63.9025 12.74C64.3958 12.42 64.7892 11.96 65.0825 11.36C64.7758 10.7467 64.3758 10.2867 63.8825 9.98C63.3892 9.66 62.8158 9.5 62.1625 9.5C61.6958 9.5 61.2825 9.57333 60.9225 9.72C60.5758 9.85333 60.3025 10.06 60.1025 10.34C59.9158 10.62 59.8225 10.96 59.8225 11.36C59.8225 11.7467 59.9158 12.08 60.1025 12.36C60.2892 12.64 60.5558 12.8533 60.9025 13C61.2625 13.1467 61.6825 13.22 62.1625 13.22ZM78.9013 18.36C77.4746 18.36 76.1946 18.1067 75.0613 17.6C73.9413 17.08 73.0546 16.36 72.4013 15.44C71.7479 14.5067 71.4213 13.4267 71.4213 12.2C71.4213 10.9867 71.7346 9.92667 72.3613 9.02C73.0013 8.11333 73.8679 7.40667 74.9613 6.9C76.0546 6.39333 77.2813 6.14 78.6413 6.14C80.0679 6.14 81.2813 6.43333 82.2813 7.02C83.2813 7.60667 84.0479 8.44 84.5813 9.52C85.1146 10.5867 85.3813 11.8533 85.3813 13.32H75.5813V10.98H82.4213L81.0613 11.74C80.9946 11.22 80.8613 10.7867 80.6613 10.44C80.4613 10.0933 80.1946 9.83333 79.8613 9.66C79.5413 9.47333 79.1546 9.38 78.7013 9.38C78.1946 9.38 77.7613 9.49333 77.4013 9.72C77.0546 9.94667 76.7879 10.26 76.6013 10.66C76.4279 11.0467 76.3413 11.4867 76.3413 11.98C76.3413 12.62 76.4813 13.16 76.7613 13.6C77.0546 14.0267 77.4946 14.3533 78.0813 14.58C78.6679 14.8067 79.4079 14.92 80.3013 14.92C81.1679 14.92 82.0079 14.8133 82.8213 14.6C83.6479 14.3733 84.4079 14.0533 85.1013 13.64V16.52C84.2479 17.12 83.2746 17.58 82.1813 17.9C81.1013 18.2067 80.0079 18.36 78.9013 18.36Z"/>
</mask>
<path d="M12.6106 10.72L13.0106 9.8C14.144 9.84 15.0906 10.02 15.8506 10.34C16.6106 10.66 17.1773 11.1067 17.5506 11.68C17.9373 12.24 18.1306 12.9133 18.1306 13.7C18.1306 14.5133 17.944 15.2467 17.5706 15.9C17.2106 16.5533 16.6573 17.0667 15.9106 17.44C15.164 17.8133 14.2306 18 13.1106 18H1.33064L2.47064 10.3L1.33064 3H12.6906C14.0773 3 15.164 3.32667 15.9506 3.98C16.7373 4.62 17.1306 5.51333 17.1306 6.66C17.1306 7.31333 16.984 7.92667 16.6906 8.5C16.3973 9.07333 15.9173 9.56 15.2506 9.96C14.5973 10.3467 13.7173 10.6 12.6106 10.72ZM6.37064 16.88L4.41064 14.58H11.4706C11.9106 14.58 12.2573 14.4667 12.5106 14.24C12.764 14 12.8906 13.68 12.8906 13.28C12.8906 12.92 12.764 12.6133 12.5106 12.36C12.2706 12.1067 11.9106 11.98 11.4306 11.98H5.51064V8.62H10.6706C11.0173 8.62 11.304 8.51333 11.5306 8.3C11.7706 8.08667 11.8906 7.81333 11.8906 7.48C11.8906 7.17333 11.784 6.92 11.5706 6.72C11.3573 6.52 11.0573 6.42 10.6706 6.42H4.43064L6.37064 4.12L7.39064 10.3L6.37064 16.88ZM18.9194 6.5H24.1194L24.7994 10.56V18H19.7194V10.5L18.9194 6.5ZM29.8794 6.26V10.56C29.4261 10.48 29.0194 10.4267 28.6594 10.4C28.2994 10.36 27.9794 10.34 27.6994 10.34C27.1927 10.34 26.7194 10.4333 26.2794 10.62C25.8394 10.7933 25.4794 11.1133 25.1994 11.58C24.9327 12.0467 24.7994 12.7133 24.7994 13.58L23.8994 12.46C24.0327 11.6333 24.1994 10.8467 24.3994 10.1C24.6127 9.34 24.8927 8.66667 25.2394 8.08C25.5861 7.48 26.0261 7.00667 26.5594 6.66C27.0927 6.31333 27.7594 6.14 28.5594 6.14C28.7594 6.14 28.9661 6.15333 29.1794 6.18C29.3927 6.19333 29.6261 6.22 29.8794 6.26ZM31.1586 6.26L33.6986 6.78L36.2386 6.26V18H31.1586V6.26ZM33.6986 5.66C32.8453 5.66 32.1586 5.45333 31.6386 5.04C31.1186 4.62667 30.8586 4.06 30.8586 3.34C30.8586 2.62 31.1186 2.05333 31.6386 1.64C32.1586 1.22667 32.8453 1.02 33.6986 1.02C34.5653 1.02 35.2519 1.22667 35.7586 1.64C36.2786 2.05333 36.5386 2.62 36.5386 3.34C36.5386 4.06 36.2786 4.62667 35.7586 5.04C35.2519 5.45333 34.5653 5.66 33.6986 5.66ZM48.3908 18L47.8108 13.72L48.5908 12.3L47.8108 10.38L48.8508 2.6H54.1308L52.8508 11.84L53.6708 18H48.3908ZM49.3508 12.26C49.2175 13.4867 48.8841 14.56 48.3508 15.48C47.8308 16.3867 47.1441 17.0933 46.2908 17.6C45.4508 18.1067 44.4841 18.36 43.3908 18.36C42.2708 18.36 41.2841 18.1067 40.4308 17.6C39.5908 17.0933 38.9308 16.38 38.4508 15.46C37.9841 14.54 37.7508 13.4733 37.7508 12.26C37.7508 11.0333 37.9841 9.96 38.4508 9.04C38.9308 8.12 39.5908 7.40667 40.4308 6.9C41.2841 6.39333 42.2708 6.14 43.3908 6.14C44.4841 6.14 45.4508 6.39333 46.2908 6.9C47.1441 7.39333 47.8375 8.1 48.3708 9.02C48.9041 9.92667 49.2308 11.0067 49.3508 12.26ZM42.8708 12.26C42.8708 12.7 42.9575 13.0933 43.1308 13.44C43.3175 13.7733 43.5708 14.04 43.8908 14.24C44.2241 14.44 44.6041 14.54 45.0308 14.54C45.4708 14.54 45.8975 14.44 46.3108 14.24C46.7241 14.04 47.0841 13.7733 47.3908 13.44C47.7108 13.0933 47.9308 12.7 48.0508 12.26C47.9308 11.82 47.7108 11.4267 47.3908 11.08C47.0841 10.7333 46.7241 10.46 46.3108 10.26C45.8975 10.06 45.4708 9.96 45.0308 9.96C44.6041 9.96 44.2241 10.06 43.8908 10.26C43.5708 10.46 43.3175 10.7333 43.1308 11.08C42.9575 11.4267 42.8708 11.82 42.8708 12.26ZM64.9225 15.06V13.16L65.0825 12.6V9.38L64.9225 8.96V6.5H70.0025V14.94C70.0025 16.3133 69.6625 17.5 68.9825 18.5C68.3025 19.5133 67.3425 20.2933 66.1025 20.84C64.8625 21.3867 63.3892 21.66 61.6825 21.66C60.5892 21.66 59.5758 21.52 58.6425 21.24C57.7225 20.96 56.7892 20.5533 55.8425 20.02V16.32C56.6692 16.92 57.5492 17.3667 58.4825 17.66C59.4292 17.94 60.3892 18.08 61.3625 18.08C62.5092 18.08 63.3892 17.86 64.0025 17.42C64.6158 16.98 64.9225 16.1933 64.9225 15.06ZM60.3825 16.58C59.2892 16.58 58.3158 16.3667 57.4625 15.94C56.6092 15.5 55.9358 14.8867 55.4425 14.1C54.9625 13.3133 54.7225 12.4 54.7225 11.36C54.7225 10.3067 54.9625 9.39333 55.4425 8.62C55.9358 7.83333 56.6092 7.22667 57.4625 6.8C58.3158 6.36 59.2892 6.14 60.3825 6.14C61.2092 6.14 61.9558 6.26667 62.6225 6.52C63.3025 6.77333 63.8958 7.10667 64.4025 7.52C64.9225 7.93333 65.3558 8.38 65.7025 8.86C66.0492 9.32667 66.3092 9.78667 66.4825 10.24C66.6558 10.6933 66.7425 11.0867 66.7425 11.42C66.7425 11.8867 66.6025 12.4133 66.3225 13C66.0558 13.5867 65.6558 14.1533 65.1225 14.7C64.5892 15.2467 63.9225 15.7 63.1225 16.06C62.3358 16.4067 61.4225 16.58 60.3825 16.58ZM62.1625 13.22C62.8292 13.22 63.4092 13.06 63.9025 12.74C64.3958 12.42 64.7892 11.96 65.0825 11.36C64.7758 10.7467 64.3758 10.2867 63.8825 9.98C63.3892 9.66 62.8158 9.5 62.1625 9.5C61.6958 9.5 61.2825 9.57333 60.9225 9.72C60.5758 9.85333 60.3025 10.06 60.1025 10.34C59.9158 10.62 59.8225 10.96 59.8225 11.36C59.8225 11.7467 59.9158 12.08 60.1025 12.36C60.2892 12.64 60.5558 12.8533 60.9025 13C61.2625 13.1467 61.6825 13.22 62.1625 13.22ZM78.9013 18.36C77.4746 18.36 76.1946 18.1067 75.0613 17.6C73.9413 17.08 73.0546 16.36 72.4013 15.44C71.7479 14.5067 71.4213 13.4267 71.4213 12.2C71.4213 10.9867 71.7346 9.92667 72.3613 9.02C73.0013 8.11333 73.8679 7.40667 74.9613 6.9C76.0546 6.39333 77.2813 6.14 78.6413 6.14C80.0679 6.14 81.2813 6.43333 82.2813 7.02C83.2813 7.60667 84.0479 8.44 84.5813 9.52C85.1146 10.5867 85.3813 11.8533 85.3813 13.32H75.5813V10.98H82.4213L81.0613 11.74C80.9946 11.22 80.8613 10.7867 80.6613 10.44C80.4613 10.0933 80.1946 9.83333 79.8613 9.66C79.5413 9.47333 79.1546 9.38 78.7013 9.38C78.1946 9.38 77.7613 9.49333 77.4013 9.72C77.0546 9.94667 76.7879 10.26 76.6013 10.66C76.4279 11.0467 76.3413 11.4867 76.3413 11.98C76.3413 12.62 76.4813 13.16 76.7613 13.6C77.0546 14.0267 77.4946 14.3533 78.0813 14.58C78.6679 14.8067 79.4079 14.92 80.3013 14.92C81.1679 14.92 82.0079 14.8133 82.8213 14.6C83.6479 14.3733 84.4079 14.0533 85.1013 13.64V16.52C84.2479 17.12 83.2746 17.58 82.1813 17.9C81.1013 18.2067 80.0079 18.36 78.9013 18.36Z" fill="#BFFF60"/>
<path d="M12.6106 10.72L11.6936 10.3213L11.0073 11.8997L12.7184 11.7142L12.6106 10.72ZM13.0106 9.8L13.0459 8.80062L12.3652 8.7766L12.0936 9.40127L13.0106 9.8ZM17.5506 11.68L16.7126 12.2257L16.72 12.237L16.7277 12.2482L17.5506 11.68ZM17.5706 15.9L16.7024 15.4039L16.6985 15.4106L16.6948 15.4174L17.5706 15.9ZM1.33064 18L0.341422 17.8535L0.171687 19H1.33064V18ZM2.47064 10.3L3.45986 10.4465L3.48213 10.296L3.45866 10.1457L2.47064 10.3ZM1.33064 3V2H0.162355L0.342615 3.15429L1.33064 3ZM15.9506 3.98L15.3117 4.74933L15.3196 4.75571L15.9506 3.98ZM16.6906 8.5L15.8004 8.04452V8.04452L16.6906 8.5ZM15.2506 9.96L15.76 10.8206L15.7651 10.8175L15.2506 9.96ZM6.37064 16.88L5.60952 17.5286L7.02462 19.1892L7.35884 17.0332L6.37064 16.88ZM4.41064 14.58V13.58H2.24462L3.64952 15.2286L4.41064 14.58ZM12.5106 14.24L13.1774 14.9852L13.188 14.9757L13.1984 14.966L12.5106 14.24ZM12.5106 12.36L11.7847 13.0477L11.794 13.0576L11.8035 13.0671L12.5106 12.36ZM5.51064 11.98H4.51064V12.98H5.51064V11.98ZM5.51064 8.62V7.62H4.51064V8.62H5.51064ZM11.5306 8.3L10.8663 7.55259L10.8556 7.56205L10.8453 7.5718L11.5306 8.3ZM11.5706 6.72L10.8867 7.44954L11.5706 6.72ZM4.43064 6.42L3.66625 5.77525L2.27893 7.42H4.43064V6.42ZM6.37064 4.12L7.35729 3.95715L7.00421 1.81788L5.60625 3.47525L6.37064 4.12ZM7.39064 10.3L8.37884 10.4532L8.40335 10.295L8.37729 10.1372L7.39064 10.3ZM13.5277 11.1187L13.9277 10.1987L12.0936 9.40127L11.6936 10.3213L13.5277 11.1187ZM12.9754 10.7994C14.0298 10.8366 14.8479 11.0028 15.4626 11.2616L16.2387 9.41836C15.3334 9.0372 14.2582 8.84341 13.0459 8.80062L12.9754 10.7994ZM15.4626 11.2616C16.0768 11.5202 16.4691 11.8516 16.7126 12.2257L18.3886 11.1343C17.8856 10.3617 17.1445 9.79975 16.2387 9.41836L15.4626 11.2616ZM16.7277 12.2482C16.9818 12.6162 17.1306 13.0837 17.1306 13.7H19.1306C19.1306 12.743 18.8928 11.8638 18.3735 11.1118L16.7277 12.2482ZM17.1306 13.7C17.1306 14.3538 16.9825 14.9137 16.7024 15.4039L18.4389 16.3961C18.9055 15.5796 19.1306 14.6728 19.1306 13.7H17.1306ZM16.6948 15.4174C16.4441 15.8724 16.0512 16.2517 15.4634 16.5456L16.3579 18.3344C17.2634 17.8817 17.9772 17.2343 18.4465 16.3826L16.6948 15.4174ZM15.4634 16.5456C14.8947 16.8299 14.126 17 13.1106 17V19C14.3353 19 15.4332 18.7967 16.3579 18.3344L15.4634 16.5456ZM13.1106 17H1.33064V19H13.1106V17ZM2.31986 18.1465L3.45986 10.4465L1.48142 10.1535L0.341422 17.8535L2.31986 18.1465ZM3.45866 10.1457L2.31866 2.8457L0.342615 3.15429L1.48261 10.4543L3.45866 10.1457ZM1.33064 4H12.6906V2H1.33064V4ZM12.6906 4C13.927 4 14.7595 4.29067 15.3117 4.74929L16.5895 3.21071C15.5684 2.36266 14.2276 2 12.6906 2V4ZM15.3196 4.75571C15.8404 5.17948 16.1306 5.76986 16.1306 6.66H18.1306C18.1306 5.2568 17.6342 4.06052 16.5817 3.20429L15.3196 4.75571ZM16.1306 6.66C16.1306 7.15734 16.0205 7.61429 15.8004 8.04452L17.5809 8.95548C17.9474 8.23904 18.1306 7.46933 18.1306 6.66H16.1306ZM15.8004 8.04452C15.6084 8.41975 15.2759 8.77867 14.7361 9.10251L15.7651 10.8175C16.5587 10.3413 17.1862 9.72692 17.5809 8.95548L15.8004 8.04452ZM14.7413 9.09942C14.2542 9.3877 13.5284 9.61462 12.5028 9.72583L12.7184 11.7142C13.9062 11.5854 14.9404 11.3056 15.76 10.8206L14.7413 9.09942ZM7.13176 16.2314L5.17176 13.9314L3.64952 15.2286L5.60952 17.5286L7.13176 16.2314ZM4.41064 15.58H11.4706V13.58H4.41064V15.58ZM11.4706 15.58C12.0823 15.58 12.692 15.4196 13.1774 14.9852L11.8438 13.4948C11.8226 13.5138 11.739 13.58 11.4706 13.58V15.58ZM13.1984 14.966C13.6809 14.5089 13.8906 13.9106 13.8906 13.28H11.8906C11.8906 13.4494 11.8471 13.4911 11.8229 13.514L13.1984 14.966ZM13.8906 13.28C13.8906 12.6562 13.6596 12.0948 13.2177 11.6529L11.8035 13.0671C11.8683 13.1319 11.8906 13.1838 11.8906 13.28H13.8906ZM13.2366 11.6723C12.7454 11.1537 12.079 10.98 11.4306 10.98V12.98C11.5855 12.98 11.6788 13.0008 11.7287 13.0183C11.7732 13.034 11.7838 13.0469 11.7847 13.0477L13.2366 11.6723ZM11.4306 10.98H5.51064V12.98H11.4306V10.98ZM6.51064 11.98V8.62H4.51064V11.98H6.51064ZM5.51064 9.62H10.6706V7.62H5.51064V9.62ZM10.6706 9.62C11.2406 9.62 11.7822 9.43652 12.216 9.0282L10.8453 7.5718C10.8258 7.59014 10.794 7.62 10.6706 7.62V9.62ZM12.195 9.04741C12.6576 8.63624 12.8906 8.0866 12.8906 7.48H10.8906C10.8906 7.50321 10.8886 7.51752 10.8871 7.52471C10.8858 7.53161 10.8847 7.53375 10.885 7.53301C10.8854 7.5322 10.8855 7.53225 10.8842 7.53405C10.8827 7.53603 10.8777 7.54242 10.8663 7.55259L12.195 9.04741ZM12.8906 7.48C12.8906 6.91207 12.6804 6.38963 12.2546 5.99046L10.8867 7.44954C10.8933 7.45571 10.8948 7.45823 10.8937 7.45668C10.8925 7.45499 10.8906 7.45181 10.889 7.44806C10.8875 7.44438 10.8876 7.44349 10.8883 7.44711C10.889 7.45098 10.8906 7.46141 10.8906 7.48H12.8906ZM12.2546 5.99046C11.8026 5.56669 11.2274 5.42 10.6706 5.42V7.42C10.7796 7.42 10.8412 7.43427 10.8694 7.44368C10.8938 7.4518 10.8937 7.45611 10.8867 7.44954L12.2546 5.99046ZM10.6706 5.42H4.43064V7.42H10.6706V5.42ZM5.19503 7.06475L7.13503 4.76475L5.60625 3.47525L3.66625 5.77525L5.19503 7.06475ZM5.38399 4.28285L6.40399 10.4628L8.37729 10.1372L7.35729 3.95715L5.38399 4.28285ZM6.40244 10.1468L5.38244 16.7268L7.35884 17.0332L8.37884 10.4532L6.40244 10.1468ZM18.9194 6.5V5.5H17.6996L17.9388 6.69612L18.9194 6.5ZM24.1194 6.5L25.1057 6.33481L24.9658 5.5H24.1194V6.5ZM24.7994 10.56H25.7994V10.4768L25.7857 10.3948L24.7994 10.56ZM24.7994 18V19H25.7994V18H24.7994ZM19.7194 18H18.7194V19H19.7194V18ZM19.7194 10.5H20.7194V10.401L20.7 10.3039L19.7194 10.5ZM29.8794 6.26H30.8794V5.40551L30.0354 5.27224L29.8794 6.26ZM29.8794 10.56L29.7056 11.5448L30.8794 11.7519V10.56H29.8794ZM28.6594 10.4L28.549 11.3939L28.5672 11.3959L28.5855 11.3973L28.6594 10.4ZM26.2794 10.62L26.6459 11.5504L26.658 11.5457L26.6699 11.5406L26.2794 10.62ZM25.1994 11.58L24.3419 11.0655L24.3364 11.0746L24.3311 11.0839L25.1994 11.58ZM24.7994 13.58L24.0199 14.2064L25.7994 16.4209V13.58H24.7994ZM23.8994 12.46L22.9121 12.3008L22.8413 12.7398L23.1199 13.0864L23.8994 12.46ZM24.3994 10.1L23.4365 9.82972L23.4334 9.84126L24.3994 10.1ZM25.2394 8.08L26.1004 8.58875L26.1053 8.58028L25.2394 8.08ZM26.5594 6.66L27.1044 7.49844L27.1044 7.49844L26.5594 6.66ZM29.1794 6.18L29.0554 7.17228L29.0861 7.17612L29.117 7.17805L29.1794 6.18ZM18.9194 7.5H24.1194V5.5H18.9194V7.5ZM23.1331 6.66519L23.8131 10.7252L25.7857 10.3948L25.1057 6.33481L23.1331 6.66519ZM23.7994 10.56V18H25.7994V10.56H23.7994ZM24.7994 17H19.7194V19H24.7994V17ZM20.7194 18V10.5H18.7194V18H20.7194ZM20.7 10.3039L19.9 6.30388L17.9388 6.69612L18.7388 10.6961L20.7 10.3039ZM28.8794 6.26V10.56H30.8794V6.26H28.8794ZM30.0532 9.57522C29.5753 9.49088 29.1344 9.43244 28.7333 9.40273L28.5855 11.3973C28.9044 11.4209 29.2768 11.4691 29.7056 11.5448L30.0532 9.57522ZM28.7698 9.40612C28.3832 9.36315 28.0251 9.34 27.6994 9.34V11.34C27.9336 11.34 28.2156 11.3568 28.549 11.3939L28.7698 9.40612ZM27.6994 9.34C27.0667 9.34 26.4597 9.45724 25.8888 9.69942L26.6699 11.5406C26.9791 11.4094 27.3187 11.34 27.6994 11.34V9.34ZM25.9129 9.68959C25.2377 9.95555 24.7174 10.4397 24.3419 11.0655L26.0569 12.0945C26.2414 11.787 26.441 11.6311 26.6459 11.5504L25.9129 9.68959ZM24.3311 11.0839C23.9406 11.7673 23.7994 12.6351 23.7994 13.58H25.7994C25.7994 12.7916 25.9249 12.326 26.0676 12.0761L24.3311 11.0839ZM25.5789 12.9536L24.6789 11.8336L23.1199 13.0864L24.0199 14.2064L25.5789 12.9536ZM24.8866 12.6192C25.015 11.8233 25.1748 11.07 25.3653 10.3587L23.4334 9.84126C23.224 10.6233 23.0504 11.4433 22.9121 12.3008L24.8866 12.6192ZM25.3622 10.3703C25.5557 9.68095 25.8041 9.08996 26.1003 8.58873L24.3785 7.57127C23.9813 8.24337 23.6698 8.99905 23.4366 9.82974L25.3622 10.3703ZM26.1053 8.58028C26.3803 8.10427 26.7147 7.75174 27.1044 7.49844L26.0144 5.82156C25.3374 6.26159 24.7918 6.85573 24.3735 7.57972L26.1053 8.58028ZM27.1044 7.49844C27.4383 7.28138 27.9032 7.14 28.5594 7.14V5.14C27.6156 5.14 26.7471 5.34529 26.0144 5.82156L27.1044 7.49844ZM28.5594 7.14C28.715 7.14 28.8801 7.15037 29.0554 7.17228L29.3034 5.18772C29.052 5.15629 28.8038 5.14 28.5594 5.14V7.14ZM29.117 7.17805C29.2936 7.18909 29.4952 7.21173 29.7234 7.24776L30.0354 5.27224C29.7569 5.22827 29.4919 5.19758 29.2418 5.18195L29.117 7.17805ZM31.1586 6.26L31.3592 5.28032L30.1586 5.03453V6.26H31.1586ZM33.6986 6.78L33.498 7.75968L33.6986 7.80074L33.8992 7.75968L33.6986 6.78ZM36.2386 6.26H37.2386V5.03453L36.038 5.28032L36.2386 6.26ZM36.2386 18V19H37.2386V18H36.2386ZM31.1586 18H30.1586V19H31.1586V18ZM31.6386 5.04L31.0164 5.82282V5.82282L31.6386 5.04ZM31.6386 1.64L32.2609 2.42282V2.42282L31.6386 1.64ZM35.7586 1.64L35.1264 2.41493L35.1364 2.42282L35.7586 1.64ZM35.7586 5.04L35.1363 4.25711L35.1265 4.26513L35.7586 5.04ZM30.958 7.23968L33.498 7.75968L33.8992 5.80032L31.3592 5.28032L30.958 7.23968ZM33.8992 7.75968L36.4392 7.23968L36.038 5.28032L33.498 5.80032L33.8992 7.75968ZM35.2386 6.26V18H37.2386V6.26H35.2386ZM36.2386 17H31.1586V19H36.2386V17ZM32.1586 18V6.26H30.1586V18H32.1586ZM33.6986 4.66C33.0061 4.66 32.5589 4.49409 32.2609 4.25718L31.0164 5.82282C31.7583 6.41258 32.6844 6.66 33.6986 6.66V4.66ZM32.2609 4.25718C32.0016 4.05109 31.8586 3.78446 31.8586 3.34H29.8586C29.8586 4.33554 30.2356 5.20224 31.0164 5.82282L32.2609 4.25718ZM31.8586 3.34C31.8586 2.89554 32.0016 2.62891 32.2609 2.42282L31.0164 0.857176C30.2356 1.47776 29.8586 2.34446 29.8586 3.34H31.8586ZM32.2609 2.42282C32.5589 2.18591 33.0061 2.02 33.6986 2.02V0.0199993C32.6844 0.0199993 31.7583 0.26742 31.0164 0.857177L32.2609 2.42282ZM33.6986 2.02C34.4103 2.02 34.8491 2.18856 35.1265 2.41486L36.3907 0.865135C35.6548 0.264768 34.7202 0.0199993 33.6986 0.0199993V2.02ZM35.1364 2.42282C35.3956 2.62891 35.5386 2.89554 35.5386 3.34H37.5386C37.5386 2.34446 37.1616 1.47776 36.3809 0.857176L35.1364 2.42282ZM35.5386 3.34C35.5386 3.78446 35.3956 4.05109 35.1364 4.25718L36.3809 5.82282C37.1616 5.20224 37.5386 4.33554 37.5386 3.34H35.5386ZM35.1265 4.26513C34.8491 4.49143 34.4103 4.66 33.6986 4.66V6.66C34.7202 6.66 35.6548 6.41523 36.3907 5.81487L35.1265 4.26513ZM48.3908 18L47.3999 18.1343L47.5172 19H48.3908V18ZM47.8108 13.72L46.9343 13.2386L46.7756 13.5275L46.8199 13.8543L47.8108 13.72ZM48.5908 12.3L49.4673 12.7814L49.6963 12.3644L49.5173 11.9236L48.5908 12.3ZM47.8108 10.38L46.8196 10.2475L46.7845 10.5105L46.8843 10.7564L47.8108 10.38ZM48.8508 2.6V1.6H47.9756L47.8596 2.4675L48.8508 2.6ZM54.1308 2.6L55.1213 2.73722L55.2789 1.6H54.1308V2.6ZM52.8508 11.84L51.8603 11.7028L51.8416 11.8373L51.8595 11.972L52.8508 11.84ZM53.6708 18V19H54.8127L54.6621 17.868L53.6708 18ZM49.3508 12.26L50.3449 12.3681L50.356 12.2664L50.3462 12.1647L49.3508 12.26ZM48.3508 15.48L47.4856 14.9785L47.4833 14.9825L48.3508 15.48ZM46.2908 17.6L45.7802 16.7401L45.7743 16.7437L46.2908 17.6ZM40.4308 17.6L39.9143 18.4563L39.9203 18.4599L40.4308 17.6ZM38.4508 15.46L37.5589 15.9124L37.5642 15.9226L38.4508 15.46ZM38.4508 9.04L37.5642 8.5774L37.559 8.58762L38.4508 9.04ZM40.4308 6.9L39.9202 6.04012L39.9143 6.04371L40.4308 6.9ZM46.2908 6.9L45.7743 7.75629L45.7823 7.76109L45.7903 7.76573L46.2908 6.9ZM48.3708 9.02L47.5056 9.52154L47.5089 9.52702L48.3708 9.02ZM43.1308 13.44L42.2364 13.8872L42.2468 13.9082L42.2583 13.9286L43.1308 13.44ZM43.8908 14.24L43.3608 15.088L43.3685 15.0928L43.3763 15.0975L43.8908 14.24ZM46.3108 14.24L46.7464 15.1402V15.1402L46.3108 14.24ZM47.3908 13.44L46.656 12.7617L46.6549 12.7629L47.3908 13.44ZM48.0508 12.26L49.0156 12.5231L49.0873 12.26L49.0156 11.9969L48.0508 12.26ZM47.3908 11.08L46.6418 11.7426L46.6488 11.7505L46.656 11.7583L47.3908 11.08ZM46.3108 10.26L46.7464 9.35984L46.3108 10.26ZM43.8908 10.26L43.3763 9.40251L43.3685 9.40718L43.3608 9.412L43.8908 10.26ZM43.1308 11.08L42.2503 10.6059L42.2431 10.6192L42.2364 10.6328L43.1308 11.08ZM49.3817 17.8657L48.8017 13.5857L46.8199 13.8543L47.3999 18.1343L49.3817 17.8657ZM48.6873 14.2014L49.4673 12.7814L47.7143 11.8186L46.9343 13.2386L48.6873 14.2014ZM49.5173 11.9236L48.7373 10.0036L46.8843 10.7564L47.6643 12.6764L49.5173 11.9236ZM48.802 10.5125L49.842 2.7325L47.8596 2.4675L46.8196 10.2475L48.802 10.5125ZM48.8508 3.6H54.1308V1.6H48.8508V3.6ZM53.1403 2.46278L51.8603 11.7028L53.8413 11.9772L55.1213 2.73722L53.1403 2.46278ZM51.8595 11.972L52.6795 18.132L54.6621 17.868L53.8421 11.708L51.8595 11.972ZM53.6708 17H48.3908V19H53.6708V17ZM48.3567 12.1519C48.236 13.262 47.9387 14.197 47.4857 14.9785L49.2159 15.9815C49.8296 14.923 50.1989 13.7114 50.3449 12.3681L48.3567 12.1519ZM47.4833 14.9825C47.0444 15.7479 46.4774 16.3262 45.7803 16.7401L46.8013 18.4599C47.8109 17.8605 48.6172 17.0254 49.2183 15.9775L47.4833 14.9825ZM45.7743 16.7437C45.1076 17.1459 44.3235 17.36 43.3908 17.36V19.36C44.6447 19.36 45.794 19.0675 46.8073 18.4563L45.7743 16.7437ZM43.3908 17.36C42.4269 17.36 41.6211 17.1437 40.9413 16.7401L39.9203 18.4599C40.9472 19.0696 42.1147 19.36 43.3908 19.36V17.36ZM40.9473 16.7437C40.2737 16.3374 39.7376 15.7645 39.3374 14.9974L37.5642 15.9226C38.124 16.9955 38.9079 17.8493 39.9143 18.4563L40.9473 16.7437ZM39.3426 15.0076C38.9586 14.2505 38.7508 13.3437 38.7508 12.26H36.7508C36.7508 13.6029 37.0097 14.8295 37.559 15.9124L39.3426 15.0076ZM38.7508 12.26C38.7508 11.161 38.9593 10.248 39.3426 9.49238L37.559 8.58762C37.0089 9.67198 36.7508 10.9057 36.7508 12.26H38.7508ZM39.3374 9.50257C39.7376 8.73547 40.2737 8.1626 40.9473 7.75629L39.9143 6.04371C38.9079 6.65073 38.124 7.50453 37.5642 8.57743L39.3374 9.50257ZM40.9413 7.75985C41.6211 7.35627 42.4269 7.14 43.3908 7.14V5.14C42.1147 5.14 40.9472 5.4304 39.9203 6.04015L40.9413 7.75985ZM43.3908 7.14C44.3235 7.14 45.1076 7.35412 45.7743 7.75629L46.8073 6.04371C45.794 5.43254 44.6447 5.14 43.3908 5.14V7.14ZM45.7903 7.76573C46.4805 8.16476 47.0528 8.7404 47.5057 9.52153L49.2359 8.51847C48.6221 7.4596 47.8078 6.62191 46.7913 6.03427L45.7903 7.76573ZM47.5089 9.52702C47.955 10.2855 48.2466 11.2191 48.3554 12.3553L50.3462 12.1647C50.215 10.7942 49.8532 9.56783 49.2327 8.51298L47.5089 9.52702ZM41.8708 12.26C41.8708 12.8341 41.9847 13.384 42.2364 13.8872L44.0252 12.9928C43.9302 12.8027 43.8708 12.5659 43.8708 12.26H41.8708ZM42.2583 13.9286C42.526 14.4067 42.8964 14.7977 43.3608 15.088L44.4208 13.392C44.2452 13.2823 44.1089 13.1399 44.0033 12.9514L42.2583 13.9286ZM43.3763 15.0975C43.88 15.3997 44.4411 15.54 45.0308 15.54V13.54C44.7671 13.54 44.5683 13.4803 44.4053 13.3825L43.3763 15.0975ZM45.0308 15.54C45.6283 15.54 46.2033 15.4029 46.7464 15.1402L45.8752 13.3398C45.5916 13.4771 45.3133 13.54 45.0308 13.54V15.54ZM46.7464 15.1402C47.2714 14.8861 47.7337 14.5443 48.1267 14.1171L46.6549 12.7629C46.4346 13.0024 46.1769 13.1939 45.8752 13.3398L46.7464 15.1402ZM48.1256 14.1183C48.5506 13.6579 48.8519 13.1234 49.0156 12.5231L47.086 11.9969C47.0097 12.2766 46.871 12.5288 46.656 12.7617L48.1256 14.1183ZM49.0156 11.9969C48.8519 11.3966 48.5506 10.8621 48.1256 10.4017L46.656 11.7583C46.871 11.9912 47.0097 12.2434 47.086 12.5231L49.0156 11.9969ZM48.1398 10.4174C47.7461 9.97241 47.2798 9.61798 46.7464 9.35984L45.8752 11.1602C46.1684 11.302 46.4221 11.4943 46.6418 11.7426L48.1398 10.4174ZM46.7464 9.35984C46.2033 9.09708 45.6283 8.96 45.0308 8.96V10.96C45.3133 10.96 45.5916 11.0229 45.8752 11.1602L46.7464 9.35984ZM45.0308 8.96C44.4411 8.96 43.88 9.1003 43.3763 9.40251L44.4053 11.1175C44.5683 11.0197 44.7671 10.96 45.0308 10.96V8.96ZM43.3608 9.412C42.887 9.70815 42.5156 10.1132 42.2503 10.6059L44.0113 11.5541C44.1193 11.3535 44.2546 11.2119 44.4208 11.108L43.3608 9.412ZM42.2364 10.6328C41.9847 11.136 41.8708 11.6859 41.8708 12.26H43.8708C43.8708 11.9541 43.9302 11.7173 44.0252 11.5272L42.2364 10.6328ZM64.9225 13.16L63.961 12.8853L63.9225 13.0199V13.16H64.9225ZM65.0825 12.6L66.044 12.8747L66.0825 12.7401V12.6H65.0825ZM65.0825 9.38H66.0825V9.19597L66.017 9.024L65.0825 9.38ZM64.9225 8.96H63.9225V9.14403L63.988 9.316L64.9225 8.96ZM64.9225 6.5V5.5H63.9225V6.5H64.9225ZM70.0025 6.5H71.0025V5.5H70.0025V6.5ZM68.9825 18.5L68.1556 17.9377L68.1522 17.9428L68.9825 18.5ZM66.1025 20.84L65.6991 19.925L66.1025 20.84ZM58.6425 21.24L58.3514 22.1967L58.3552 22.1978L58.6425 21.24ZM55.8425 20.02H54.8425V20.6044L55.3517 20.8912L55.8425 20.02ZM55.8425 16.32L56.4299 15.5107L54.8425 14.3586V16.32H55.8425ZM58.4825 17.66L58.1827 18.614L58.1908 18.6165L58.1989 18.6189L58.4825 17.66ZM64.0025 17.42L63.4196 16.6075L64.0025 17.42ZM57.4625 15.94L57.0042 16.8289L57.0153 16.8344L57.4625 15.94ZM55.4425 14.1L54.5888 14.6209L54.5953 14.6313L55.4425 14.1ZM55.4425 8.62L54.5953 8.08871L54.5929 8.09264L55.4425 8.62ZM57.4625 6.8L57.9098 7.6945L57.9208 7.6888L57.4625 6.8ZM62.6225 6.52L62.2673 7.4548L62.2734 7.45708L62.6225 6.52ZM64.4025 7.52L63.7703 8.29493L63.7803 8.30282L64.4025 7.52ZM65.7025 8.86L64.8918 9.44554L64.8998 9.45632L65.7025 8.86ZM66.3225 13L65.42 12.5693L65.416 12.5777L65.4121 12.5862L66.3225 13ZM65.1225 14.7L64.4067 14.0017V14.0017L65.1225 14.7ZM63.1225 16.06L63.5258 16.9751L63.5329 16.9719L63.1225 16.06ZM63.9025 12.74L63.3583 11.901L63.9025 12.74ZM65.0825 11.36L65.9809 11.7992L66.1981 11.355L65.9769 10.9128L65.0825 11.36ZM63.8825 9.98L63.3383 10.819L63.3464 10.8242L63.3546 10.8293L63.8825 9.98ZM60.9225 9.72L61.2815 10.6533L61.2907 10.6498L61.2998 10.6461L60.9225 9.72ZM60.1025 10.34L59.2888 9.75876L59.2794 9.77188L59.2705 9.7853L60.1025 10.34ZM60.9025 13L60.5128 13.921L60.5252 13.9261L60.9025 13ZM65.9225 15.06V13.16H63.9225V15.06H65.9225ZM65.884 13.4347L66.044 12.8747L64.121 12.3253L63.961 12.8853L65.884 13.4347ZM66.0825 12.6V9.38H64.0825V12.6H66.0825ZM66.017 9.024L65.857 8.604L63.988 9.316L64.148 9.736L66.017 9.024ZM65.9225 8.96V6.5H63.9225V8.96H65.9225ZM64.9225 7.5H70.0025V5.5H64.9225V7.5ZM69.0025 6.5V14.94H71.0025V6.5H69.0025ZM69.0025 14.94C69.0025 16.1409 68.708 17.1254 68.1556 17.9377L69.8094 19.0623C70.6171 17.8746 71.0025 16.4858 71.0025 14.94H69.0025ZM68.1522 17.9428C67.5891 18.7818 66.7856 19.446 65.6991 19.925L66.5059 21.755C67.8995 21.1407 69.0159 20.2449 69.8129 19.0572L68.1522 17.9428ZM65.6991 19.925C64.6146 20.4031 63.2851 20.66 61.6825 20.66V22.66C63.4933 22.66 65.1104 22.3703 66.5059 21.755L65.6991 19.925ZM61.6825 20.66C60.6748 20.66 59.7594 20.531 58.9299 20.2822L58.3552 22.1978C59.3923 22.509 60.5036 22.66 61.6825 22.66V20.66ZM58.9337 20.2833C58.0914 20.027 57.2248 19.651 56.3334 19.1488L55.3517 20.8912C56.3536 21.4557 57.3536 21.893 58.3514 22.1967L58.9337 20.2833ZM56.8425 20.02V16.32H54.8425V20.02H56.8425ZM55.2551 17.1293C56.1653 17.7899 57.1418 18.2869 58.1827 18.614L58.7823 16.706C57.9565 16.4465 57.173 16.0501 56.4299 15.5107L55.2551 17.1293ZM58.1989 18.6189C59.2363 18.9258 60.2918 19.08 61.3625 19.08V17.08C60.4866 17.08 59.6221 16.9542 58.7661 16.7011L58.1989 18.6189ZM61.3625 19.08C62.6162 19.08 63.7347 18.8429 64.5854 18.2325L63.4196 16.6075C63.0437 16.8771 62.4022 17.08 61.3625 17.08V19.08ZM64.5854 18.2325C65.5728 17.5242 65.9225 16.3468 65.9225 15.06H63.9225C63.9225 16.0399 63.6589 16.4358 63.4196 16.6075L64.5854 18.2325ZM60.3825 15.58C59.4217 15.58 58.6052 15.3933 57.9097 15.0456L57.0153 16.8344C58.0265 17.34 59.1567 17.58 60.3825 17.58V15.58ZM57.9208 15.0512C57.2211 14.6904 56.6845 14.1982 56.2897 13.5687L54.5953 14.6313C55.1872 15.5751 55.9972 16.3096 57.0042 16.8288L57.9208 15.0512ZM56.2962 13.5791C55.9237 12.9688 55.7225 12.2404 55.7225 11.36H53.7225C53.7225 12.5596 54.0013 13.6579 54.5889 14.6209L56.2962 13.5791ZM55.7225 11.36C55.7225 10.4632 55.9251 9.73877 56.2922 9.14736L54.5929 8.09264C54 9.0479 53.7225 10.1502 53.7225 11.36H55.7225ZM56.2897 9.15129C56.6828 8.5245 57.2158 8.0414 57.9097 7.69443L57.0153 5.90557C56.0026 6.41193 55.1889 7.14217 54.5953 8.08871L56.2897 9.15129ZM57.9208 7.6888C58.6138 7.33145 59.4263 7.14 60.3825 7.14V5.14C59.152 5.14 58.0178 5.38855 57.0042 5.9112L57.9208 7.6888ZM60.3825 7.14C61.1068 7.14 61.7306 7.25084 62.2673 7.45478L62.9777 5.58522C62.1811 5.28249 61.3115 5.14 60.3825 5.14V7.14ZM62.2734 7.45708C62.862 7.67636 63.3573 7.95789 63.7704 8.29486L65.0346 6.74513C64.4344 6.25545 63.743 5.8703 62.9716 5.58292L62.2734 7.45708ZM63.7803 8.30282C64.2373 8.66611 64.6047 9.04795 64.8918 9.44549L66.5132 8.27451C66.107 7.71205 65.6077 7.20055 65.0248 6.73718L63.7803 8.30282ZM64.8998 9.45632C65.2023 9.86363 65.4135 10.244 65.5485 10.5971L67.4166 9.88286C67.2049 9.3293 66.896 8.7897 66.5053 8.26368L64.8998 9.45632ZM65.5485 10.5971C65.6963 10.9839 65.7425 11.2509 65.7425 11.42H67.7425C67.7425 10.9224 67.6154 10.4028 67.4166 9.88286L65.5485 10.5971ZM65.7425 11.42C65.7425 11.691 65.6595 12.0675 65.42 12.5693L67.225 13.4307C67.5455 12.7592 67.7425 12.0823 67.7425 11.42H65.7425ZM65.4121 12.5862C65.2013 13.05 64.8738 13.5229 64.4067 14.0017L65.8383 15.3983C66.4379 14.7838 66.9104 14.1233 67.2329 13.4138L65.4121 12.5862ZM64.4067 14.0017C63.9729 14.4463 63.4147 14.8319 62.7122 15.1481L63.5329 16.9719C64.4304 16.5681 65.2054 16.047 65.8383 15.3983L64.4067 14.0017ZM62.7193 15.1449C62.0834 15.4251 61.3122 15.58 60.3825 15.58V17.58C61.5328 17.58 62.5883 17.3882 63.5258 16.9751L62.7193 15.1449ZM62.1625 14.22C62.9957 14.22 63.7704 14.0177 64.4467 13.579L63.3583 11.901C63.048 12.1023 62.6626 12.22 62.1625 12.22V14.22ZM64.4467 13.579C65.112 13.1474 65.619 12.5395 65.9809 11.7992L64.1841 10.9208C63.9594 11.3805 63.6797 11.6926 63.3583 11.901L64.4467 13.579ZM65.9769 10.9128C65.6027 10.1643 65.0871 9.55136 64.4104 9.13071L63.3546 10.8293C63.6646 11.022 63.949 11.329 64.1881 11.8072L65.9769 10.9128ZM64.4267 9.14104C63.7537 8.70446 62.9868 8.5 62.1625 8.5V10.5C62.6449 10.5 63.0247 10.6155 63.3383 10.819L64.4267 9.14104ZM62.1625 8.5C61.5918 8.5 61.0465 8.5897 60.5452 8.79391L61.2998 10.6461C61.5186 10.557 61.7999 10.5 62.1625 10.5V8.5ZM60.5635 8.78665C60.0493 8.98445 59.6117 9.30665 59.2888 9.75876L60.9162 10.9212C60.9933 10.8133 61.1024 10.7222 61.2815 10.6533L60.5635 8.78665ZM59.2705 9.7853C58.955 10.2585 58.8225 10.8005 58.8225 11.36H60.8225C60.8225 11.1195 60.8767 10.9815 60.9346 10.8947L59.2705 9.7853ZM58.8225 11.36C58.8225 11.9138 58.9586 12.4469 59.2705 12.9147L60.9346 11.8053C60.8731 11.7131 60.8225 11.5795 60.8225 11.36H58.8225ZM59.2705 12.9147C59.5782 13.3763 60.0082 13.7075 60.5129 13.921L61.2922 12.079C61.1035 11.9992 61.0002 11.9037 60.9346 11.8053L59.2705 12.9147ZM60.5252 13.9261C61.0295 14.1316 61.5826 14.22 62.1625 14.22V12.22C61.7825 12.22 61.4955 12.1618 61.2798 12.0739L60.5252 13.9261ZM75.0613 17.6L74.6402 18.507L74.6466 18.51L74.6531 18.5129L75.0613 17.6ZM72.4013 15.44L71.582 16.0135L71.5859 16.019L72.4013 15.44ZM72.3613 9.02L71.5443 8.44329L71.5386 8.45142L72.3613 9.02ZM74.9613 6.9L75.3817 7.80731V7.80731L74.9613 6.9ZM84.5813 9.52L83.6846 9.96279L83.6868 9.96721L84.5813 9.52ZM85.3813 13.32V14.32H86.3813V13.32H85.3813ZM75.5813 13.32H74.5813V14.32H75.5813V13.32ZM75.5813 10.98V9.98H74.5813V10.98H75.5813ZM82.4213 10.98L82.9091 11.8529L86.2607 9.98H82.4213V10.98ZM81.0613 11.74L80.0694 11.8672L80.2575 13.3347L81.5491 12.6129L81.0613 11.74ZM80.6613 10.44L79.7951 10.9397L80.6613 10.44ZM79.8613 9.66L79.3574 10.5238L79.3784 10.536L79.3999 10.5472L79.8613 9.66ZM77.4013 9.72L76.8685 8.87377L76.8612 8.87834L76.854 8.88303L77.4013 9.72ZM76.6013 10.66L75.6951 10.2371L75.6919 10.244L75.6888 10.2509L76.6013 10.66ZM76.7613 13.6L75.9176 14.1369L75.9271 14.1519L75.9372 14.1665L76.7613 13.6ZM78.0813 14.58L77.7209 15.5128L78.0813 14.58ZM82.8213 14.6L83.075 15.5673L83.0857 15.5644L82.8213 14.6ZM85.1013 13.64H86.1013V11.8796L84.5892 12.7811L85.1013 13.64ZM85.1013 16.52L85.6764 17.338L86.1013 17.0393V16.52H85.1013ZM82.1813 17.9L82.4544 18.862L82.4622 18.8597L82.1813 17.9ZM78.9013 17.36C77.5944 17.36 76.4565 17.1284 75.4694 16.6871L74.6531 18.5129C75.9327 19.0849 77.3548 19.36 78.9013 19.36V17.36ZM75.4824 16.693C74.5048 16.2391 73.7599 15.6261 73.2166 14.861L71.5859 16.019C72.3493 17.0939 73.3778 17.9209 74.6402 18.507L75.4824 16.693ZM73.2205 14.8665C72.694 14.1144 72.4213 13.2381 72.4213 12.2H70.4213C70.4213 13.6153 70.8019 14.899 71.582 16.0135L73.2205 14.8665ZM72.4213 12.2C72.4213 11.1684 72.6843 10.3113 73.1839 9.58858L71.5386 8.45142C70.7849 9.54199 70.4213 10.8049 70.4213 12.2H72.4213ZM73.1782 9.59668C73.7087 8.84517 74.4332 8.24688 75.3817 7.80731L74.5408 5.99269C73.3027 6.56645 72.2938 7.3815 71.5443 8.44332L73.1782 9.59668ZM75.3817 7.80731C76.3273 7.36912 77.4078 7.14 78.6413 7.14V5.14C77.1548 5.14 75.7819 5.41755 74.5408 5.99269L75.3817 7.80731ZM78.6413 7.14C79.9308 7.14 80.9604 7.40449 81.7753 7.88252L82.7873 6.15747C81.6021 5.46218 80.205 5.14 78.6413 5.14V7.14ZM81.7753 7.88252C82.6001 8.36642 83.2342 9.05063 83.6846 9.96278L85.4779 9.07722C84.8617 7.82937 83.9625 6.84691 82.7873 6.15747L81.7753 7.88252ZM83.6868 9.96721C84.1366 10.8668 84.3813 11.9735 84.3813 13.32H86.3813C86.3813 11.7331 86.0926 10.3066 85.4757 9.07279L83.6868 9.96721ZM85.3813 12.32H75.5813V14.32H85.3813V12.32ZM76.5813 13.32V10.98H74.5813V13.32H76.5813ZM75.5813 11.98H82.4213V9.98H75.5813V11.98ZM81.9334 10.1071L80.5734 10.8671L81.5491 12.6129L82.9091 11.8529L81.9334 10.1071ZM82.0531 11.6128C81.9746 11.0003 81.8106 10.4311 81.5275 9.94028L79.7951 10.9397C79.9119 11.1422 80.0146 11.4397 80.0694 11.8672L82.0531 11.6128ZM81.5275 9.94028C81.2387 9.43977 80.8363 9.03987 80.3226 8.77278L79.3999 10.5472C79.5529 10.6268 79.6838 10.7469 79.7951 10.9397L81.5275 9.94028ZM80.3651 8.79622C79.8614 8.50237 79.2922 8.38 78.7013 8.38V10.38C79.017 10.38 79.2211 10.4443 79.3574 10.5238L80.3651 8.79622ZM78.7013 8.38C78.0425 8.38 77.4163 8.52885 76.8685 8.87377L77.9341 10.5662C78.1063 10.4578 78.3467 10.38 78.7013 10.38V8.38ZM76.854 8.88303C76.3411 9.21838 75.9551 9.67992 75.6951 10.2371L77.5074 11.0829C77.6208 10.8401 77.7681 10.675 77.9485 10.557L76.854 8.88303ZM75.6888 10.2509C75.449 10.7857 75.3413 11.3686 75.3413 11.98H77.3413C77.3413 11.6047 77.4068 11.3076 77.5138 11.0691L75.6888 10.2509ZM75.3413 11.98C75.3413 12.7669 75.5145 13.5034 75.9176 14.1369L77.6049 13.0631C77.448 12.8166 77.3413 12.4731 77.3413 11.98H75.3413ZM75.9372 14.1665C76.3672 14.792 76.9872 15.2293 77.7209 15.5128L78.4417 13.6472C78.002 13.4773 77.742 13.2613 77.5853 13.0335L75.9372 14.1665ZM77.7209 15.5128C78.4599 15.7983 79.3324 15.92 80.3013 15.92V13.92C79.4835 13.92 78.876 13.815 78.4417 13.6472L77.7209 15.5128ZM80.3013 15.92C81.2509 15.92 82.1763 15.803 83.075 15.5673L82.5676 13.6327C81.8396 13.8237 81.085 13.92 80.3013 13.92V15.92ZM83.0857 15.5644C83.9939 15.3154 84.8379 14.9612 85.6133 14.4989L84.5892 12.7811C83.9779 13.1455 83.3019 13.4313 82.5568 13.6356L83.0857 15.5644ZM84.1013 13.64V16.52H86.1013V13.64H84.1013ZM84.5261 15.702C83.7703 16.2334 82.8982 16.6482 81.9004 16.9403L82.4622 18.8597C83.651 18.5118 84.7256 18.0066 85.6764 17.338L84.5261 15.702ZM81.9081 16.938C80.9157 17.2198 79.9142 17.36 78.9013 17.36V19.36C80.1016 19.36 81.2869 19.1935 82.4544 18.862L81.9081 16.938Z" fill="black" mask="url(#path-1-outside-1_31979_1746)"/>
</g>
<defs>
<filter id="filter0_d_31979_1746" x="0.162354" y="0.0200195" width="86.2189" height="24.64" filterUnits="userSpaceOnUse" color-interpolation-filters="sRGB">
<feFlood flood-opacity="0" result="BackgroundImageFix"/>
<feColorMatrix in="SourceAlpha" type="matrix" values="0 0 0 0 0 0 0 0 0 0 0 0 0 0 0 0 0 0 127 0" result="hardAlpha"/>
<feOffset dy="2"/>
<feComposite in2="hardAlpha" operator="out"/>
<feColorMatrix type="matrix" values="0 0 0 0 0 0 0 0 0 0 0 0 0 0 0 0 0 0 0.5 0"/>
<feBlend mode="normal" in2="BackgroundImageFix" result="effect1_dropShadow_31979_1746"/>
<feBlend mode="normal" in="SourceGraphic" in2="effect1_dropShadow_31979_1746" result="shape"/>
</filter>
</defs>
</svg>
