<svg width="54" height="19" viewBox="0 0 54 19" fill="none" xmlns="http://www.w3.org/2000/svg">
<g filter="url(#filter0_d_33018_3433)">
<mask id="path-1-outside-1_33018_3433" maskUnits="userSpaceOnUse" x="0" y="0" width="54" height="17" fill="black">
<rect fill="white" width="54" height="17"/>
<path d="M15.3402 12.24L13.9402 12.58V0.999999H18.9402V16H12.4802L5.04023 4.44L6.44023 4.1V16H1.44023V0.999999H8.10023L15.3402 12.24ZM23.8626 6.86H34.8226V11.16H23.8626V6.86ZM35.2226 0.999999V5.3H24.1426L26.5026 3V16H21.3426V0.999999H35.2226ZM41.7829 3.22H46.9429V16H41.7829V3.22ZM36.3829 0.999999H52.3429V5.6H36.3829V0.999999Z"/>
</mask>
<path d="M15.3402 12.24L13.9402 12.58V0.999999H18.9402V16H12.4802L5.04023 4.44L6.44023 4.1V16H1.44023V0.999999H8.10023L15.3402 12.24ZM23.8626 6.86H34.8226V11.16H23.8626V6.86ZM35.2226 0.999999V5.3H24.1426L26.5026 3V16H21.3426V0.999999H35.2226ZM41.7829 3.22H46.9429V16H41.7829V3.22ZM36.3829 0.999999H52.3429V5.6H36.3829V0.999999Z" fill="#75759D"/>
<path d="M15.3402 12.24L15.5762 13.2118L16.942 12.8801L16.1809 11.6985L15.3402 12.24ZM13.9402 12.58H12.9402V13.8519L14.1762 13.5518L13.9402 12.58ZM13.9402 0.999999V-1.19209e-06H12.9402V0.999999H13.9402ZM18.9402 0.999999H19.9402V-1.19209e-06H18.9402V0.999999ZM18.9402 16V17H19.9402V16H18.9402ZM12.4802 16L11.6393 16.5412L11.9346 17H12.4802V16ZM5.04023 4.44L4.80424 3.46825L3.439 3.7998L4.19934 4.9812L5.04023 4.44ZM6.44023 4.1H7.44023V2.82807L6.20424 3.12825L6.44023 4.1ZM6.44023 16V17H7.44023V16H6.44023ZM1.44023 16H0.440234V17H1.44023V16ZM1.44023 0.999999V-1.19209e-06H0.440234V0.999999H1.44023ZM8.10023 0.999999L8.94093 0.458485L8.6456 -1.19209e-06H8.10023V0.999999ZM15.3402 12.24L15.1042 11.2682L13.7042 11.6082L13.9402 12.58L14.1762 13.5518L15.5762 13.2118L15.3402 12.24ZM13.9402 12.58H14.9402V0.999999H13.9402H12.9402V12.58H13.9402ZM13.9402 0.999999V2H18.9402V0.999999V-1.19209e-06H13.9402V0.999999ZM18.9402 0.999999H17.9402V16H18.9402H19.9402V0.999999H18.9402ZM18.9402 16V15H12.4802V16V17H18.9402V16ZM12.4802 16L13.3211 15.4588L5.88113 3.8988L5.04023 4.44L4.19934 4.9812L11.6393 16.5412L12.4802 16ZM5.04023 4.44L5.27623 5.41175L6.67623 5.07175L6.44023 4.1L6.20424 3.12825L4.80424 3.46825L5.04023 4.44ZM6.44023 4.1H5.44023V16H6.44023H7.44023V4.1H6.44023ZM6.44023 16V15H1.44023V16V17H6.44023V16ZM1.44023 16H2.44023V0.999999H1.44023H0.440234V16H1.44023ZM1.44023 0.999999V2H8.10023V0.999999V-1.19209e-06H1.44023V0.999999ZM8.10023 0.999999L7.25954 1.54151L14.4995 12.7815L15.3402 12.24L16.1809 11.6985L8.94093 0.458485L8.10023 0.999999ZM23.8626 6.86V5.86H22.8626V6.86H23.8626ZM34.8226 6.86H35.8226V5.86H34.8226V6.86ZM34.8226 11.16V12.16H35.8226V11.16H34.8226ZM23.8626 11.16H22.8626V12.16H23.8626V11.16ZM35.2226 0.999999H36.2226V-1.19209e-06H35.2226V0.999999ZM35.2226 5.3V6.3H36.2226V5.3H35.2226ZM24.1426 5.3L23.4446 4.58385L21.6837 6.3H24.1426V5.3ZM26.5026 3H27.5026V0.629071L25.8046 2.28385L26.5026 3ZM26.5026 16V17H27.5026V16H26.5026ZM21.3426 16H20.3426V17H21.3426V16ZM21.3426 0.999999V-1.19209e-06H20.3426V0.999999H21.3426ZM23.8626 6.86V7.86H34.8226V6.86V5.86H23.8626V6.86ZM34.8226 6.86H33.8226V11.16H34.8226H35.8226V6.86H34.8226ZM34.8226 11.16V10.16H23.8626V11.16V12.16H34.8226V11.16ZM23.8626 11.16H24.8626V6.86H23.8626H22.8626V11.16H23.8626ZM35.2226 0.999999H34.2226V5.3H35.2226H36.2226V0.999999H35.2226ZM35.2226 5.3V4.3H24.1426V5.3V6.3H35.2226V5.3ZM24.1426 5.3L24.8405 6.01615L27.2005 3.71615L26.5026 3L25.8046 2.28385L23.4446 4.58385L24.1426 5.3ZM26.5026 3H25.5026V16H26.5026H27.5026V3H26.5026ZM26.5026 16V15H21.3426V16V17H26.5026V16ZM21.3426 16H22.3426V0.999999H21.3426H20.3426V16H21.3426ZM21.3426 0.999999V2H35.2226V0.999999V-1.19209e-06H21.3426V0.999999ZM41.7829 3.22V2.22H40.7829V3.22H41.7829ZM46.9429 3.22H47.9429V2.22H46.9429V3.22ZM46.9429 16V17H47.9429V16H46.9429ZM41.7829 16H40.7829V17H41.7829V16ZM36.3829 0.999999V-1.19209e-06H35.3829V0.999999H36.3829ZM52.3429 0.999999H53.3429V-1.19209e-06H52.3429V0.999999ZM52.3429 5.6V6.6H53.3429V5.6H52.3429ZM36.3829 5.6H35.3829V6.6H36.3829V5.6ZM41.7829 3.22V4.22H46.9429V3.22V2.22H41.7829V3.22ZM46.9429 3.22H45.9429V16H46.9429H47.9429V3.22H46.9429ZM46.9429 16V15H41.7829V16V17H46.9429V16ZM41.7829 16H42.7829V3.22H41.7829H40.7829V16H41.7829ZM36.3829 0.999999V2H52.3429V0.999999V-1.19209e-06H36.3829V0.999999ZM52.3429 0.999999H51.3429V5.6H52.3429H53.3429V0.999999H52.3429ZM52.3429 5.6V4.6H36.3829V5.6V6.6H52.3429V5.6ZM36.3829 5.6H37.3829V0.999999H36.3829H35.3829V5.6H36.3829Z" fill="black" mask="url(#path-1-outside-1_33018_3433)"/>
</g>
<defs>
<filter id="filter0_d_33018_3433" x="0.440247" y="0" width="52.9026" height="19" filterUnits="userSpaceOnUse" color-interpolation-filters="sRGB">
<feFlood flood-opacity="0" result="BackgroundImageFix"/>
<feColorMatrix in="SourceAlpha" type="matrix" values="0 0 0 0 0 0 0 0 0 0 0 0 0 0 0 0 0 0 127 0" result="hardAlpha"/>
<feOffset dy="2"/>
<feComposite in2="hardAlpha" operator="out"/>
<feColorMatrix type="matrix" values="0 0 0 0 0 0 0 0 0 0 0 0 0 0 0 0 0 0 0.5 0"/>
<feBlend mode="normal" in2="BackgroundImageFix" result="effect1_dropShadow_33018_3433"/>
<feBlend mode="normal" in="SourceGraphic" in2="effect1_dropShadow_33018_3433" result="shape"/>
</filter>
</defs>
</svg>
