<svg width="93" height="20" viewBox="0 0 93 20" fill="none" xmlns="http://www.w3.org/2000/svg">
<g filter="url(#filter0_d_31979_1738)">
<mask id="path-1-outside-1_31979_1738" maskUnits="userSpaceOnUse" x="0" y="0" width="93" height="18" fill="black">
<rect fill="white" width="93" height="18"/>
<path d="M3.84109 6.86H14.8011V11.16H3.84109V6.86ZM15.2011 0.999999V5.3H4.12109L6.48109 3V16H1.32109V0.999999H15.2011ZM26.7289 16L26.1489 11.94L26.7289 10.26L26.1489 8.6L26.7289 4.5H32.0089L31.2089 10.24L32.0089 16H26.7289ZM27.7889 10.26C27.6556 11.4867 27.3222 12.56 26.7889 13.48C26.2689 14.3867 25.5822 15.0933 24.7289 15.6C23.8889 16.1067 22.9222 16.36 21.8289 16.36C20.7089 16.36 19.7222 16.1067 18.8689 15.6C18.0289 15.0933 17.3689 14.38 16.8889 13.46C16.4222 12.54 16.1889 11.4733 16.1889 10.26C16.1889 9.03333 16.4222 7.96 16.8889 7.04C17.3689 6.12 18.0289 5.40667 18.8689 4.9C19.7222 4.39333 20.7089 4.14 21.8289 4.14C22.9222 4.14 23.8889 4.39333 24.7289 4.9C25.5822 5.39333 26.2756 6.1 26.8089 7.02C27.3422 7.92667 27.6689 9.00667 27.7889 10.26ZM21.3089 10.26C21.3089 10.7 21.3956 11.0933 21.5689 11.44C21.7556 11.7733 22.0089 12.04 22.3289 12.24C22.6622 12.44 23.0422 12.54 23.4689 12.54C23.9089 12.54 24.3356 12.44 24.7489 12.24C25.1622 12.04 25.5222 11.7733 25.8289 11.44C26.1489 11.0933 26.3689 10.7 26.4889 10.26C26.3689 9.82 26.1489 9.42667 25.8289 9.08C25.5222 8.73333 25.1622 8.46 24.7489 8.26C24.3356 8.06 23.9089 7.96 23.4689 7.96C23.0422 7.96 22.6622 8.06 22.3289 8.26C22.0089 8.46 21.7556 8.73333 21.5689 9.08C21.3956 9.42667 21.3089 9.82 21.3089 10.26ZM38.6402 16.34C37.5602 16.34 36.6335 16.12 35.8602 15.68C35.0868 15.2267 34.4935 14.6 34.0802 13.8C33.6802 12.9867 33.4802 12.0467 33.4802 10.98V4.5H38.5602V10.26C38.5602 10.8867 38.7202 11.3733 39.0402 11.72C39.3735 12.0667 39.8402 12.24 40.4402 12.24C40.9068 12.24 41.2868 12.16 41.5802 12C41.8868 11.8267 42.1135 11.5733 42.2602 11.24C42.4202 10.8933 42.5002 10.4733 42.5002 9.98L44.0002 10.74C43.8268 11.98 43.4735 13.02 42.9402 13.86C42.4202 14.6867 41.7868 15.3067 41.0402 15.72C40.3068 16.1333 39.5068 16.34 38.6402 16.34ZM43.3002 16L42.5002 11.1V4.5H47.5802V11.88L48.3802 16H43.3002ZM63.9958 10.94C63.9024 12.02 63.5224 12.9667 62.8558 13.78C62.1891 14.5933 61.3158 15.2267 60.2358 15.68C59.1691 16.1333 57.9624 16.36 56.6158 16.36C55.1491 16.36 53.8558 16.1067 52.7358 15.6C51.6158 15.08 50.7424 14.36 50.1158 13.44C49.4891 12.52 49.1758 11.46 49.1758 10.26C49.1758 9.04667 49.4891 7.98667 50.1158 7.08C50.7424 6.16 51.6158 5.44 52.7358 4.92C53.8558 4.4 55.1491 4.14 56.6158 4.14C57.9624 4.14 59.1691 4.36667 60.2358 4.82C61.3158 5.27333 62.1891 5.90667 62.8558 6.72C63.5224 7.52 63.9024 8.46667 63.9958 9.56H58.9758C58.8558 8.98667 58.5824 8.56 58.1558 8.28C57.7424 7.98667 57.2291 7.84 56.6158 7.84C56.1491 7.84 55.7358 7.93333 55.3758 8.12C55.0291 8.29333 54.7624 8.56 54.5758 8.92C54.3891 9.28 54.2958 9.72667 54.2958 10.26C54.2958 10.7933 54.3891 11.24 54.5758 11.6C54.7624 11.9467 55.0291 12.2133 55.3758 12.4C55.7358 12.5733 56.1491 12.66 56.6158 12.66C57.2291 12.66 57.7424 12.5067 58.1558 12.2C58.5824 11.88 58.8558 11.46 58.9758 10.94H63.9958ZM72.398 16.36C70.9713 16.36 69.6913 16.1067 68.558 15.6C67.438 15.08 66.5513 14.36 65.898 13.44C65.2446 12.5067 64.918 11.4267 64.918 10.2C64.918 8.98667 65.2313 7.92667 65.858 7.02C66.498 6.11333 67.3646 5.40667 68.458 4.9C69.5513 4.39333 70.778 4.14 72.138 4.14C73.5646 4.14 74.778 4.43333 75.778 5.02C76.778 5.60667 77.5446 6.44 78.078 7.52C78.6113 8.58667 78.878 9.85333 78.878 11.32H69.078V8.98H75.918L74.558 9.74C74.4913 9.22 74.358 8.78667 74.158 8.44C73.958 8.09333 73.6913 7.83333 73.358 7.66C73.038 7.47333 72.6513 7.38 72.198 7.38C71.6913 7.38 71.258 7.49333 70.898 7.72C70.5513 7.94667 70.2846 8.26 70.098 8.66C69.9246 9.04667 69.838 9.48667 69.838 9.98C69.838 10.62 69.978 11.16 70.258 11.6C70.5513 12.0267 70.9913 12.3533 71.578 12.58C72.1646 12.8067 72.9046 12.92 73.798 12.92C74.6646 12.92 75.5046 12.8133 76.318 12.6C77.1446 12.3733 77.9046 12.0533 78.598 11.64V14.52C77.7446 15.12 76.7713 15.58 75.678 15.9C74.598 16.2067 73.5046 16.36 72.398 16.36ZM79.3036 8.2V6.02L81.5636 4.88L83.7836 1.36H86.6436V4.5H91.1436V8.2H86.6436V10.56C86.6436 11.2933 86.7836 11.8133 87.0636 12.12C87.3436 12.4133 87.9169 12.56 88.7836 12.56C89.3169 12.56 89.7903 12.5267 90.2036 12.46C90.6303 12.38 91.0103 12.2867 91.3436 12.18V15.86C90.8903 15.9933 90.3303 16.1067 89.6636 16.2C89.0103 16.3067 88.3236 16.36 87.6036 16.36C86.2436 16.36 85.1169 16.16 84.2236 15.76C83.3303 15.3467 82.6636 14.7533 82.2236 13.98C81.7836 13.2067 81.5636 12.2867 81.5636 11.22V8.2H79.3036Z"/>
</mask>
<path d="M3.84109 6.86H14.8011V11.16H3.84109V6.86ZM15.2011 0.999999V5.3H4.12109L6.48109 3V16H1.32109V0.999999H15.2011ZM26.7289 16L26.1489 11.94L26.7289 10.26L26.1489 8.6L26.7289 4.5H32.0089L31.2089 10.24L32.0089 16H26.7289ZM27.7889 10.26C27.6556 11.4867 27.3222 12.56 26.7889 13.48C26.2689 14.3867 25.5822 15.0933 24.7289 15.6C23.8889 16.1067 22.9222 16.36 21.8289 16.36C20.7089 16.36 19.7222 16.1067 18.8689 15.6C18.0289 15.0933 17.3689 14.38 16.8889 13.46C16.4222 12.54 16.1889 11.4733 16.1889 10.26C16.1889 9.03333 16.4222 7.96 16.8889 7.04C17.3689 6.12 18.0289 5.40667 18.8689 4.9C19.7222 4.39333 20.7089 4.14 21.8289 4.14C22.9222 4.14 23.8889 4.39333 24.7289 4.9C25.5822 5.39333 26.2756 6.1 26.8089 7.02C27.3422 7.92667 27.6689 9.00667 27.7889 10.26ZM21.3089 10.26C21.3089 10.7 21.3956 11.0933 21.5689 11.44C21.7556 11.7733 22.0089 12.04 22.3289 12.24C22.6622 12.44 23.0422 12.54 23.4689 12.54C23.9089 12.54 24.3356 12.44 24.7489 12.24C25.1622 12.04 25.5222 11.7733 25.8289 11.44C26.1489 11.0933 26.3689 10.7 26.4889 10.26C26.3689 9.82 26.1489 9.42667 25.8289 9.08C25.5222 8.73333 25.1622 8.46 24.7489 8.26C24.3356 8.06 23.9089 7.96 23.4689 7.96C23.0422 7.96 22.6622 8.06 22.3289 8.26C22.0089 8.46 21.7556 8.73333 21.5689 9.08C21.3956 9.42667 21.3089 9.82 21.3089 10.26ZM38.6402 16.34C37.5602 16.34 36.6335 16.12 35.8602 15.68C35.0868 15.2267 34.4935 14.6 34.0802 13.8C33.6802 12.9867 33.4802 12.0467 33.4802 10.98V4.5H38.5602V10.26C38.5602 10.8867 38.7202 11.3733 39.0402 11.72C39.3735 12.0667 39.8402 12.24 40.4402 12.24C40.9068 12.24 41.2868 12.16 41.5802 12C41.8868 11.8267 42.1135 11.5733 42.2602 11.24C42.4202 10.8933 42.5002 10.4733 42.5002 9.98L44.0002 10.74C43.8268 11.98 43.4735 13.02 42.9402 13.86C42.4202 14.6867 41.7868 15.3067 41.0402 15.72C40.3068 16.1333 39.5068 16.34 38.6402 16.34ZM43.3002 16L42.5002 11.1V4.5H47.5802V11.88L48.3802 16H43.3002ZM63.9958 10.94C63.9024 12.02 63.5224 12.9667 62.8558 13.78C62.1891 14.5933 61.3158 15.2267 60.2358 15.68C59.1691 16.1333 57.9624 16.36 56.6158 16.36C55.1491 16.36 53.8558 16.1067 52.7358 15.6C51.6158 15.08 50.7424 14.36 50.1158 13.44C49.4891 12.52 49.1758 11.46 49.1758 10.26C49.1758 9.04667 49.4891 7.98667 50.1158 7.08C50.7424 6.16 51.6158 5.44 52.7358 4.92C53.8558 4.4 55.1491 4.14 56.6158 4.14C57.9624 4.14 59.1691 4.36667 60.2358 4.82C61.3158 5.27333 62.1891 5.90667 62.8558 6.72C63.5224 7.52 63.9024 8.46667 63.9958 9.56H58.9758C58.8558 8.98667 58.5824 8.56 58.1558 8.28C57.7424 7.98667 57.2291 7.84 56.6158 7.84C56.1491 7.84 55.7358 7.93333 55.3758 8.12C55.0291 8.29333 54.7624 8.56 54.5758 8.92C54.3891 9.28 54.2958 9.72667 54.2958 10.26C54.2958 10.7933 54.3891 11.24 54.5758 11.6C54.7624 11.9467 55.0291 12.2133 55.3758 12.4C55.7358 12.5733 56.1491 12.66 56.6158 12.66C57.2291 12.66 57.7424 12.5067 58.1558 12.2C58.5824 11.88 58.8558 11.46 58.9758 10.94H63.9958ZM72.398 16.36C70.9713 16.36 69.6913 16.1067 68.558 15.6C67.438 15.08 66.5513 14.36 65.898 13.44C65.2446 12.5067 64.918 11.4267 64.918 10.2C64.918 8.98667 65.2313 7.92667 65.858 7.02C66.498 6.11333 67.3646 5.40667 68.458 4.9C69.5513 4.39333 70.778 4.14 72.138 4.14C73.5646 4.14 74.778 4.43333 75.778 5.02C76.778 5.60667 77.5446 6.44 78.078 7.52C78.6113 8.58667 78.878 9.85333 78.878 11.32H69.078V8.98H75.918L74.558 9.74C74.4913 9.22 74.358 8.78667 74.158 8.44C73.958 8.09333 73.6913 7.83333 73.358 7.66C73.038 7.47333 72.6513 7.38 72.198 7.38C71.6913 7.38 71.258 7.49333 70.898 7.72C70.5513 7.94667 70.2846 8.26 70.098 8.66C69.9246 9.04667 69.838 9.48667 69.838 9.98C69.838 10.62 69.978 11.16 70.258 11.6C70.5513 12.0267 70.9913 12.3533 71.578 12.58C72.1646 12.8067 72.9046 12.92 73.798 12.92C74.6646 12.92 75.5046 12.8133 76.318 12.6C77.1446 12.3733 77.9046 12.0533 78.598 11.64V14.52C77.7446 15.12 76.7713 15.58 75.678 15.9C74.598 16.2067 73.5046 16.36 72.398 16.36ZM79.3036 8.2V6.02L81.5636 4.88L83.7836 1.36H86.6436V4.5H91.1436V8.2H86.6436V10.56C86.6436 11.2933 86.7836 11.8133 87.0636 12.12C87.3436 12.4133 87.9169 12.56 88.7836 12.56C89.3169 12.56 89.7903 12.5267 90.2036 12.46C90.6303 12.38 91.0103 12.2867 91.3436 12.18V15.86C90.8903 15.9933 90.3303 16.1067 89.6636 16.2C89.0103 16.3067 88.3236 16.36 87.6036 16.36C86.2436 16.36 85.1169 16.16 84.2236 15.76C83.3303 15.3467 82.6636 14.7533 82.2236 13.98C81.7836 13.2067 81.5636 12.2867 81.5636 11.22V8.2H79.3036Z" fill="#BFFF60"/>
<path d="M3.84109 6.86V5.86H2.84109V6.86H3.84109ZM14.8011 6.86H15.8011V5.86H14.8011V6.86ZM14.8011 11.16V12.16H15.8011V11.16H14.8011ZM3.84109 11.16H2.84109V12.16H3.84109V11.16ZM15.2011 0.999999H16.2011V-1.19209e-06H15.2011V0.999999ZM15.2011 5.3V6.3H16.2011V5.3H15.2011ZM4.12109 5.3L3.42315 4.58385L1.66223 6.3H4.12109V5.3ZM6.48109 3H7.48109V0.629071L5.78315 2.28385L6.48109 3ZM6.48109 16V17H7.48109V16H6.48109ZM1.32109 16H0.321094V17H1.32109V16ZM1.32109 0.999999V-1.19209e-06H0.321094V0.999999H1.32109ZM3.84109 7.86H14.8011V5.86H3.84109V7.86ZM13.8011 6.86V11.16H15.8011V6.86H13.8011ZM14.8011 10.16H3.84109V12.16H14.8011V10.16ZM4.84109 11.16V6.86H2.84109V11.16H4.84109ZM14.2011 0.999999V5.3H16.2011V0.999999H14.2011ZM15.2011 4.3H4.12109V6.3H15.2011V4.3ZM4.81904 6.01615L7.17904 3.71615L5.78315 2.28385L3.42315 4.58385L4.81904 6.01615ZM5.48109 3V16H7.48109V3H5.48109ZM6.48109 15H1.32109V17H6.48109V15ZM2.32109 16V0.999999H0.321094V16H2.32109ZM1.32109 2H15.2011V-1.19209e-06H1.32109V2ZM26.7289 16L25.739 16.1414L25.8616 17H26.7289V16ZM26.1489 11.94L25.2037 11.6137L25.1248 11.8421L25.159 12.0814L26.1489 11.94ZM26.7289 10.26L27.6742 10.5863L27.7875 10.258L27.6729 9.93016L26.7289 10.26ZM26.1489 8.6L25.1588 8.45993L25.1247 8.70049L25.2049 8.92984L26.1489 8.6ZM26.7289 4.5V3.5H25.8604L25.7388 4.35993L26.7289 4.5ZM32.0089 4.5L32.9993 4.63804L33.1579 3.5H32.0089V4.5ZM31.2089 10.24L30.2185 10.102L30.1993 10.2398L30.2184 10.3776L31.2089 10.24ZM32.0089 16V17H33.1574L32.9994 15.8624L32.0089 16ZM27.7889 10.26L28.7831 10.3681L28.7941 10.2664L28.7844 10.1647L27.7889 10.26ZM26.7889 13.48L25.9238 12.9785L25.9214 12.9825L26.7889 13.48ZM24.7289 15.6L24.2184 14.7401L24.2124 14.7437L24.7289 15.6ZM18.8689 15.6L18.3524 16.4563L18.3584 16.4599L18.8689 15.6ZM16.8889 13.46L15.997 13.9124L16.0023 13.9226L16.8889 13.46ZM16.8889 7.04L16.0023 6.5774L15.9971 6.58762L16.8889 7.04ZM18.8689 4.9L18.3584 4.04012L18.3524 4.04371L18.8689 4.9ZM24.7289 4.9L24.2124 5.75629L24.2204 5.76109L24.2284 5.76573L24.7289 4.9ZM26.8089 7.02L25.9437 7.52154L25.947 7.52702L26.8089 7.02ZM21.5689 11.44L20.6745 11.8872L20.685 11.9082L20.6964 11.9286L21.5689 11.44ZM22.3289 12.24L21.7989 13.088L21.8066 13.0928L21.8144 13.0975L22.3289 12.24ZM24.7489 12.24L25.1845 13.1402V13.1402L24.7489 12.24ZM25.8289 11.44L25.0941 10.7617L25.093 10.7629L25.8289 11.44ZM26.4889 10.26L27.4537 10.5231L27.5254 10.26L27.4537 9.99688L26.4889 10.26ZM25.8289 9.08L25.0799 9.74257L25.0869 9.7505L25.0941 9.75828L25.8289 9.08ZM24.7489 8.26L25.1845 7.35984H25.1845L24.7489 8.26ZM22.3289 8.26L21.8144 7.40251L21.8066 7.40718L21.7989 7.412L22.3289 8.26ZM21.5689 9.08L20.6884 8.6059L20.6813 8.61924L20.6745 8.63279L21.5689 9.08ZM27.7189 15.8586L27.1389 11.7986L25.159 12.0814L25.739 16.1414L27.7189 15.8586ZM27.0942 12.2663L27.6742 10.5863L25.7837 9.93366L25.2037 11.6137L27.0942 12.2663ZM27.6729 9.93016L27.0929 8.27016L25.2049 8.92984L25.7849 10.5898L27.6729 9.93016ZM27.139 8.74007L27.719 4.64007L25.7388 4.35993L25.1588 8.45993L27.139 8.74007ZM26.7289 5.5H32.0089V3.5H26.7289V5.5ZM31.0185 4.36196L30.2185 10.102L32.1993 10.378L32.9993 4.63804L31.0185 4.36196ZM30.2184 10.3776L31.0184 16.1376L32.9994 15.8624L32.1994 10.1024L30.2184 10.3776ZM32.0089 15H26.7289V17H32.0089V15ZM26.7948 10.1519C26.6741 11.262 26.3768 12.197 25.9238 12.9785L27.654 13.9815C28.2677 12.923 28.637 11.7114 28.7831 10.3681L26.7948 10.1519ZM25.9214 12.9825C25.4825 13.7479 24.9155 14.3262 24.2184 14.7401L25.2394 16.4599C26.249 15.8605 27.0553 15.0254 27.6564 13.9775L25.9214 12.9825ZM24.2124 14.7437C23.5457 15.1459 22.7616 15.36 21.8289 15.36V17.36C23.0829 17.36 24.2321 17.0675 25.2454 16.4563L24.2124 14.7437ZM21.8289 15.36C20.865 15.36 20.0592 15.1437 19.3794 14.7401L18.3584 16.4599C19.3853 17.0696 20.5528 17.36 21.8289 17.36V15.36ZM19.3854 14.7437C18.7118 14.3374 18.1757 13.7645 17.7755 12.9974L16.0023 13.9226C16.5621 14.9955 17.346 15.8493 18.3524 16.4563L19.3854 14.7437ZM17.7807 13.0076C17.3967 12.2505 17.1889 11.3437 17.1889 10.26H15.1889C15.1889 11.6029 15.4478 12.8295 15.9971 13.9124L17.7807 13.0076ZM17.1889 10.26C17.1889 9.161 17.3974 8.24802 17.7807 7.49238L15.9971 6.58762C15.447 7.67198 15.1889 8.90567 15.1889 10.26H17.1889ZM17.7755 7.50257C18.1757 6.73547 18.7118 6.1626 19.3854 5.75629L18.3524 4.04371C17.346 4.65073 16.5621 5.50453 16.0023 6.57743L17.7755 7.50257ZM19.3794 5.75985C20.0592 5.35627 20.865 5.14 21.8289 5.14V3.14C20.5528 3.14 19.3853 3.4304 18.3584 4.04015L19.3794 5.75985ZM21.8289 5.14C22.7616 5.14 23.5457 5.35412 24.2124 5.75629L25.2454 4.04371C24.2321 3.43254 23.0829 3.14 21.8289 3.14V5.14ZM24.2284 5.76573C24.9186 6.16476 25.4909 6.7404 25.9438 7.52153L27.674 6.51847C27.0602 5.4596 26.2459 4.62191 25.2294 4.03427L24.2284 5.76573ZM25.947 7.52702C26.3931 8.2855 26.6847 9.21909 26.7935 10.3553L28.7844 10.1647C28.6531 8.79424 28.2913 7.56783 27.6708 6.51298L25.947 7.52702ZM20.3089 10.26C20.3089 10.8341 20.4228 11.384 20.6745 11.8872L22.4633 10.9928C22.3683 10.8027 22.3089 10.5659 22.3089 10.26H20.3089ZM20.6964 11.9286C20.9641 12.4067 21.3345 12.7977 21.7989 13.088L22.8589 11.392C22.6833 11.2823 22.547 11.1399 22.4414 10.9514L20.6964 11.9286ZM21.8144 13.0975C22.3181 13.3997 22.8792 13.54 23.4689 13.54V11.54C23.2052 11.54 23.0064 11.4803 22.8434 11.3825L21.8144 13.0975ZM23.4689 13.54C24.0664 13.54 24.6414 13.4029 25.1845 13.1402L24.3133 11.3398C24.0297 11.4771 23.7514 11.54 23.4689 11.54V13.54ZM25.1845 13.1402C25.7095 12.8861 26.1718 12.5443 26.5648 12.1171L25.093 10.7629C24.8727 11.0024 24.615 11.1939 24.3133 11.3398L25.1845 13.1402ZM26.5637 12.1183C26.9887 11.6579 27.29 11.1234 27.4537 10.5231L25.5241 9.99688C25.4479 10.2766 25.3091 10.5288 25.0941 10.7617L26.5637 12.1183ZM27.4537 9.99688C27.29 9.39662 26.9887 8.86211 26.5637 8.40172L25.0941 9.75828C25.3091 9.99122 25.4479 10.2434 25.5241 10.5231L27.4537 9.99688ZM26.5779 8.41743C26.1842 7.97241 25.718 7.61798 25.1845 7.35984L24.3133 9.16016C24.6065 9.30202 24.8602 9.49426 25.0799 9.74257L26.5779 8.41743ZM25.1845 7.35984C24.6414 7.09708 24.0664 6.96 23.4689 6.96V8.96C23.7514 8.96 24.0297 9.02292 24.3133 9.16016L25.1845 7.35984ZM23.4689 6.96C22.8792 6.96 22.3181 7.1003 21.8144 7.40251L22.8434 9.11749C23.0064 9.0197 23.2052 8.96 23.4689 8.96V6.96ZM21.7989 7.412C21.3251 7.70815 20.9537 8.11318 20.6884 8.6059L22.4494 9.5541C22.5574 9.35349 22.6927 9.21185 22.8589 9.108L21.7989 7.412ZM20.6745 8.63279C20.4228 9.13605 20.3089 9.68588 20.3089 10.26H22.3089C22.3089 9.95412 22.3683 9.71729 22.4633 9.52721L20.6745 8.63279ZM35.8602 15.68L35.3544 16.5428L35.3656 16.5492L35.8602 15.68ZM34.0802 13.8L33.1828 14.2413L33.1872 14.2502L33.1917 14.259L34.0802 13.8ZM33.4802 4.5V3.5H32.4802V4.5H33.4802ZM38.5602 4.5H39.5602V3.5H38.5602V4.5ZM39.0402 11.72L38.3054 12.3983L38.3123 12.4058L38.3193 12.4131L39.0402 11.72ZM41.5802 12L42.059 12.8779L42.0656 12.8743L42.0722 12.8706L41.5802 12ZM42.2602 11.24L41.3522 10.8209L41.3484 10.8291L41.3448 10.8373L42.2602 11.24ZM42.5002 9.98L42.9521 9.08796L41.5002 8.3523V9.98H42.5002ZM44.0002 10.74L44.9905 10.8784L45.0894 10.1709L44.4521 9.84796L44.0002 10.74ZM42.9402 13.86L42.0959 13.324L42.0937 13.3275L42.9402 13.86ZM41.0402 15.72L40.5558 14.8451L40.5491 14.8488L41.0402 15.72ZM43.3002 16L42.3132 16.1611L42.4502 17H43.3002V16ZM42.5002 11.1H41.5002V11.1811L41.5132 11.2611L42.5002 11.1ZM42.5002 4.5V3.5H41.5002V4.5H42.5002ZM47.5802 4.5H48.5802V3.5H47.5802V4.5ZM47.5802 11.88H46.5802V11.9762L46.5985 12.0706L47.5802 11.88ZM48.3802 16V17H49.593L49.3618 15.8094L48.3802 16ZM38.6402 15.34C37.6966 15.34 36.9482 15.1485 36.3547 14.8108L35.3656 16.5492C36.3188 17.0915 37.4237 17.34 38.6402 17.34V15.34ZM36.3659 14.8173C35.7565 14.4601 35.2955 13.9737 34.9686 13.341L33.1917 14.259C33.6915 15.2263 34.4171 15.9932 35.3544 16.5427L36.3659 14.8173ZM34.9775 13.3587C34.656 12.7049 34.4802 11.9206 34.4802 10.98H32.4802C32.4802 12.1728 32.7043 13.2684 33.1828 14.2413L34.9775 13.3587ZM34.4802 10.98V4.5H32.4802V10.98H34.4802ZM33.4802 5.5H38.5602V3.5H33.4802V5.5ZM37.5602 4.5V10.26H39.5602V4.5H37.5602ZM37.5602 10.26C37.5602 11.0537 37.7652 11.8131 38.3054 12.3983L39.775 11.0417C39.6752 10.9336 39.5602 10.7196 39.5602 10.26H37.5602ZM38.3193 12.4131C38.8857 13.0021 39.6398 13.24 40.4402 13.24V11.24C40.0405 11.24 39.8613 11.1312 39.761 11.0269L38.3193 12.4131ZM40.4402 13.24C41.0113 13.24 41.5721 13.1435 42.059 12.8779L41.1013 11.1221C41.0016 11.1765 40.8023 11.24 40.4402 11.24V13.24ZM42.0722 12.8706C42.5735 12.5873 42.945 12.1664 43.1755 11.6427L41.3448 10.8373C41.2819 10.9802 41.2002 11.0661 41.0881 11.1294L42.0722 12.8706ZM43.1681 11.6591C43.4037 11.1485 43.5002 10.5774 43.5002 9.98H41.5002C41.5002 10.3693 41.4366 10.6381 41.3522 10.8209L43.1681 11.6591ZM42.0482 10.872L43.5482 11.632L44.4521 9.84796L42.9521 9.08796L42.0482 10.872ZM43.0098 10.6016C42.8513 11.7355 42.5356 12.6315 42.0959 13.324L43.7844 14.396C44.4113 13.4085 44.8024 12.2245 44.9905 10.8784L43.0098 10.6016ZM42.0937 13.3275C41.6505 14.0322 41.1347 14.5247 40.5558 14.8451L41.5245 16.5949C42.439 16.0886 43.1899 15.3411 43.7866 14.3925L42.0937 13.3275ZM40.5491 14.8488C39.9702 15.1751 39.3401 15.34 38.6402 15.34V17.34C39.6735 17.34 40.6434 17.0915 41.5312 16.5912L40.5491 14.8488ZM44.2871 15.8389L43.4871 10.9389L41.5132 11.2611L42.3132 16.1611L44.2871 15.8389ZM43.5002 11.1V4.5H41.5002V11.1H43.5002ZM42.5002 5.5H47.5802V3.5H42.5002V5.5ZM46.5802 4.5V11.88H48.5802V4.5H46.5802ZM46.5985 12.0706L47.3985 16.1906L49.3618 15.8094L48.5618 11.6894L46.5985 12.0706ZM48.3802 15H43.3002V17H48.3802V15ZM63.9958 10.94L64.9921 11.0261L65.0859 9.94H63.9958V10.94ZM62.8558 13.78L62.0824 13.1461L62.8558 13.78ZM60.2358 15.68L59.8487 14.7579L59.8446 14.7597L60.2358 15.68ZM52.7358 15.6L52.3147 16.5071L52.3236 16.5111L52.7358 15.6ZM50.1158 13.44L50.9423 12.877L50.1158 13.44ZM50.1158 7.08L50.9384 7.64859L50.9423 7.64296L50.1158 7.08ZM52.7358 4.92L53.1569 5.82701L53.1569 5.82701L52.7358 4.92ZM60.2358 4.82L59.8446 5.74034L59.8487 5.74206L60.2358 4.82ZM62.8558 6.72L62.0824 7.35395L62.0876 7.36018L62.8558 6.72ZM63.9958 9.56V10.56H65.0848L64.9922 9.47494L63.9958 9.56ZM58.9758 9.56L57.997 9.76486L58.1634 10.56H58.9758V9.56ZM58.1558 8.28L57.577 9.09551L57.5919 9.10605L57.6071 9.11605L58.1558 8.28ZM55.3758 8.12L55.823 9.01443L55.8296 9.01114L55.8361 9.00775L55.3758 8.12ZM54.5758 8.92L55.4635 9.38032V9.38032L54.5758 8.92ZM54.5758 11.6L53.688 12.0603L53.6916 12.0672L53.6953 12.0741L54.5758 11.6ZM55.3758 12.4L54.9017 13.2805L54.9216 13.2912L54.942 13.301L55.3758 12.4ZM58.1558 12.2L58.7516 13.0031L58.7558 13L58.1558 12.2ZM58.9758 10.94V9.94H58.1803L58.0014 10.7151L58.9758 10.94ZM62.9995 10.8539C62.923 11.7396 62.6171 12.4937 62.0824 13.1461L63.6292 14.4139C64.4278 13.4396 64.8819 12.3004 64.9921 11.0261L62.9995 10.8539ZM62.0824 13.1461C61.5304 13.8195 60.7958 14.3604 59.8487 14.7579L60.6228 16.6021C61.8358 16.0929 62.8478 15.3672 63.6292 14.4139L62.0824 13.1461ZM59.8446 14.7597C58.9201 15.1526 57.8496 15.36 56.6158 15.36V17.36C58.0753 17.36 59.4182 17.1141 60.6269 16.6003L59.8446 14.7597ZM56.6158 15.36C55.2642 15.36 54.1159 15.1268 53.1479 14.6889L52.3236 16.5111C53.5957 17.0866 55.034 17.36 56.6158 17.36V15.36ZM53.1569 14.693C52.1822 14.2405 51.4565 13.632 50.9423 12.877L49.2893 14.003C50.0284 15.088 51.0494 15.9195 52.3147 16.507L53.1569 14.693ZM50.9423 12.877C50.4376 12.1361 50.1758 11.2756 50.1758 10.26H48.1758C48.1758 11.6444 48.5407 12.9039 49.2893 14.003L50.9423 12.877ZM50.1758 10.26C50.1758 9.22839 50.4389 8.37134 50.9384 7.64858L49.2932 6.51142C48.5394 7.60199 48.1758 8.86494 48.1758 10.26H50.1758ZM50.9423 7.64296C51.4565 6.88803 52.1822 6.27955 53.1569 5.82701L52.3147 4.01299C51.0494 4.60045 50.0284 5.43196 49.2893 6.51704L50.9423 7.64296ZM53.1569 5.82701C54.1225 5.37869 55.2676 5.14 56.6158 5.14V3.14C55.0306 3.14 53.5891 3.42131 52.3147 4.01299L53.1569 5.82701ZM56.6158 5.14C57.8496 5.14 58.9201 5.34738 59.8446 5.74033L60.6269 3.89967C59.4182 3.38595 58.0753 3.14 56.6158 3.14V5.14ZM59.8487 5.74206C60.7958 6.13958 61.5304 6.68052 62.0824 7.35393L63.6292 6.08607C62.8478 5.13281 61.8358 4.40708 60.6228 3.89794L59.8487 5.74206ZM62.0876 7.36018C62.6159 7.99415 62.9225 8.74415 62.9994 9.64506L64.9922 9.47494C64.8824 8.18918 64.429 7.04585 63.624 6.07982L62.0876 7.36018ZM63.9958 8.56H58.9758V10.56H63.9958V8.56ZM59.9546 9.35514C59.789 8.5643 59.3855 7.89087 58.7044 7.44395L57.6071 9.11605C57.7794 9.22913 57.9225 9.40904 57.997 9.76486L59.9546 9.35514ZM58.7345 7.46449C58.1191 7.02777 57.3921 6.84 56.6158 6.84V8.84C57.0661 8.84 57.3657 8.94556 57.577 9.09551L58.7345 7.46449ZM56.6158 6.84C56.0132 6.84 55.4378 6.96141 54.9155 7.23224L55.8361 9.00775C56.0338 8.90526 56.285 8.84 56.6158 8.84V6.84ZM54.9286 7.22557C54.3838 7.49798 53.9672 7.92132 53.688 8.45968L55.4635 9.38032C55.5577 9.19868 55.6745 9.08869 55.823 9.01443L54.9286 7.22557ZM53.688 8.45968C53.4081 8.99959 53.2958 9.61508 53.2958 10.26H55.2958C55.2958 9.83825 55.3702 9.56041 55.4635 9.38032L53.688 8.45968ZM53.2958 10.26C53.2958 10.9049 53.4081 11.5204 53.688 12.0603L55.4635 11.1397C55.3702 10.9596 55.2958 10.6818 55.2958 10.26H53.2958ZM53.6953 12.0741C53.9748 12.5931 54.3827 13.001 54.9017 13.2805L55.8499 11.5195C55.6755 11.4256 55.5501 11.3003 55.4563 11.1259L53.6953 12.0741ZM54.942 13.301C55.4582 13.5496 56.024 13.66 56.6158 13.66V11.66C56.2742 11.66 56.0133 11.5971 55.8096 11.499L54.942 13.301ZM56.6158 13.66C57.4014 13.66 58.1348 13.4607 58.7516 13.0031L57.5599 11.3969C57.3501 11.5526 57.0569 11.66 56.6158 11.66V13.66ZM58.7558 13C59.3713 12.5384 59.7772 11.9146 59.9502 11.1649L58.0014 10.7151C57.9344 11.0054 57.7936 11.2216 57.5558 11.4L58.7558 13ZM58.9758 11.94H63.9958V9.94H58.9758V11.94ZM68.558 15.6L68.1369 16.507L68.1433 16.51L68.1498 16.5129L68.558 15.6ZM65.898 13.44L65.0787 14.0135L65.0826 14.019L65.898 13.44ZM65.858 7.02L65.041 6.44329L65.0353 6.45142L65.858 7.02ZM68.458 4.9L68.8784 5.80731V5.80731L68.458 4.9ZM78.078 7.52L77.1813 7.96279L77.1835 7.96721L78.078 7.52ZM78.878 11.32V12.32H79.878V11.32H78.878ZM69.078 11.32H68.078V12.32H69.078V11.32ZM69.078 8.98V7.98H68.078V8.98H69.078ZM75.918 8.98L76.4058 9.85294L79.7574 7.98H75.918V8.98ZM74.558 9.74L73.5661 9.86716L73.7542 11.3347L75.0458 10.6129L74.558 9.74ZM74.158 8.44L73.2918 8.93972L74.158 8.44ZM73.358 7.66L72.8541 8.52378L72.8751 8.53601L72.8966 8.54722L73.358 7.66ZM70.898 7.72L70.3652 6.87377L70.3579 6.87834L70.3507 6.88303L70.898 7.72ZM70.098 8.66L69.1918 8.23711L69.1886 8.24401L69.1855 8.25094L70.098 8.66ZM70.258 11.6L69.4143 12.1369L69.4239 12.1519L69.4339 12.1665L70.258 11.6ZM71.578 12.58L71.2176 13.5128L71.578 12.58ZM76.318 12.6L76.5717 13.5673L76.5824 13.5644L76.318 12.6ZM78.598 11.64H79.598V9.87963L78.0859 10.7811L78.598 11.64ZM78.598 14.52L79.1731 15.338L79.598 15.0393V14.52H78.598ZM75.678 15.9L75.9511 16.862L75.9589 16.8597L75.678 15.9ZM72.398 15.36C71.0911 15.36 69.9532 15.1284 68.9661 14.6871L68.1498 16.5129C69.4294 17.0849 70.8515 17.36 72.398 17.36V15.36ZM68.9791 14.693C68.0015 14.2391 67.2566 13.6261 66.7133 12.861L65.0826 14.019C65.846 15.0939 66.8745 15.9209 68.1369 16.507L68.9791 14.693ZM66.7172 12.8665C66.1907 12.1144 65.918 11.2381 65.918 10.2H63.918C63.918 11.6153 64.2986 12.899 65.0787 14.0135L66.7172 12.8665ZM65.918 10.2C65.918 9.16839 66.181 8.31134 66.6806 7.58858L65.0353 6.45142C64.2816 7.54199 63.918 8.80494 63.918 10.2H65.918ZM66.6749 7.59668C67.2054 6.84517 67.9299 6.24688 68.8784 5.80731L68.0375 3.99269C66.7994 4.56645 65.7905 5.3815 65.041 6.44332L66.6749 7.59668ZM68.8784 5.80731C69.824 5.36912 70.9045 5.14 72.138 5.14V3.14C70.6515 3.14 69.2786 3.41755 68.0375 3.99269L68.8784 5.80731ZM72.138 5.14C73.4275 5.14 74.4571 5.40449 75.272 5.88252L76.284 4.15747C75.0988 3.46218 73.7018 3.14 72.138 3.14V5.14ZM75.272 5.88252C76.0968 6.36642 76.7309 7.05063 77.1813 7.96278L78.9746 7.07722C78.3584 5.82937 77.4592 4.84691 76.284 4.15747L75.272 5.88252ZM77.1835 7.96721C77.6333 8.86675 77.878 9.97354 77.878 11.32H79.878C79.878 9.73313 79.5893 8.30658 78.9724 7.07279L77.1835 7.96721ZM78.878 10.32H69.078V12.32H78.878V10.32ZM70.078 11.32V8.98H68.078V11.32H70.078ZM69.078 9.98H75.918V7.98H69.078V9.98ZM75.4301 8.10706L74.0701 8.86706L75.0458 10.6129L76.4058 9.85294L75.4301 8.10706ZM75.5499 9.61283C75.4713 9.00026 75.3073 8.43114 75.0242 7.94028L73.2918 8.93972C73.4086 9.14219 73.5113 9.43974 73.5661 9.86716L75.5499 9.61283ZM75.0242 7.94028C74.7354 7.43977 74.333 7.03987 73.8193 6.77278L72.8966 8.54722C73.0496 8.62679 73.1805 8.74689 73.2918 8.93972L75.0242 7.94028ZM73.8618 6.79622C73.3581 6.50237 72.7889 6.38 72.198 6.38V8.38C72.5137 8.38 72.7178 8.44429 72.8541 8.52378L73.8618 6.79622ZM72.198 6.38C71.5392 6.38 70.913 6.52885 70.3652 6.87377L71.4308 8.56623C71.603 8.45781 71.8434 8.38 72.198 8.38V6.38ZM70.3507 6.88303C69.8378 7.21838 69.4518 7.67992 69.1918 8.23711L71.0042 9.08288C71.1175 8.84007 71.2648 8.67496 71.4452 8.55697L70.3507 6.88303ZM69.1855 8.25094C68.9457 8.7857 68.838 9.36864 68.838 9.98H70.838C70.838 9.60469 70.9035 9.30764 71.0105 9.06906L69.1855 8.25094ZM68.838 9.98C68.838 10.7669 69.0112 11.5034 69.4143 12.1369L71.1016 11.0631C70.9447 10.8166 70.838 10.4731 70.838 9.98H68.838ZM69.4339 12.1665C69.8639 12.792 70.4839 13.2293 71.2176 13.5128L71.9384 11.6472C71.4987 11.4773 71.2387 11.2613 71.082 11.0335L69.4339 12.1665ZM71.2176 13.5128C71.9566 13.7983 72.8291 13.92 73.798 13.92V11.92C72.9802 11.92 72.3727 11.815 71.9384 11.6472L71.2176 13.5128ZM73.798 13.92C74.7476 13.92 75.673 13.803 76.5717 13.5673L76.0643 11.6327C75.3363 11.8237 74.5817 11.92 73.798 11.92V13.92ZM76.5824 13.5644C77.4906 13.3154 78.3346 12.9612 79.11 12.4989L78.0859 10.7811C77.4746 11.1455 76.7987 11.4313 76.0535 11.6356L76.5824 13.5644ZM77.598 11.64V14.52H79.598V11.64H77.598ZM78.0228 13.702C77.267 14.2334 76.3949 14.6482 75.3971 14.9403L75.9589 16.8597C77.1477 16.5118 78.2223 16.0066 79.1731 15.338L78.0228 13.702ZM75.4048 14.938C74.4124 15.2198 73.4109 15.36 72.398 15.36V17.36C73.5984 17.36 74.7836 17.1935 75.9511 16.862L75.4048 14.938ZM79.3036 8.2H78.3036V9.2H79.3036V8.2ZM79.3036 6.02L78.8532 5.12716L78.3036 5.40441V6.02H79.3036ZM81.5636 4.88L82.014 5.77284L82.2615 5.64797L82.4094 5.41345L81.5636 4.88ZM83.7836 1.36V0.359999H83.232L82.9378 0.826548L83.7836 1.36ZM86.6436 1.36H87.6436V0.359999H86.6436V1.36ZM86.6436 4.5H85.6436V5.5H86.6436V4.5ZM91.1436 4.5H92.1436V3.5H91.1436V4.5ZM91.1436 8.2V9.2H92.1436V8.2H91.1436ZM86.6436 8.2V7.2H85.6436V8.2H86.6436ZM87.0636 12.12L86.3251 12.7943L86.3326 12.8025L86.3402 12.8105L87.0636 12.12ZM90.2036 12.46L90.3628 13.4472L90.3754 13.4452L90.3879 13.4429L90.2036 12.46ZM91.3436 12.18H92.3436V10.81L91.0388 11.2276L91.3436 12.18ZM91.3436 15.86L91.6258 16.8194L92.3436 16.6082V15.86H91.3436ZM89.6636 16.2L89.5249 15.2097L89.5137 15.2112L89.5025 15.2131L89.6636 16.2ZM84.2236 15.76L83.8036 16.6676L83.8149 16.6727L84.2236 15.76ZM82.2236 13.98L83.0928 13.4855L82.2236 13.98ZM81.5636 8.2H82.5636V7.2H81.5636V8.2ZM80.3036 8.2V6.02H78.3036V8.2H80.3036ZM79.754 6.91284L82.014 5.77284L81.1132 3.98716L78.8532 5.12716L79.754 6.91284ZM82.4094 5.41345L84.6294 1.89345L82.9378 0.826548L80.7178 4.34655L82.4094 5.41345ZM83.7836 2.36H86.6436V0.359999H83.7836V2.36ZM85.6436 1.36V4.5H87.6436V1.36H85.6436ZM86.6436 5.5H91.1436V3.5H86.6436V5.5ZM90.1436 4.5V8.2H92.1436V4.5H90.1436ZM91.1436 7.2H86.6436V9.2H91.1436V7.2ZM85.6436 8.2V10.56H87.6436V8.2H85.6436ZM85.6436 10.56C85.6436 11.369 85.7881 12.2061 86.3251 12.7943L87.8021 11.4457C87.7791 11.4205 87.6436 11.2176 87.6436 10.56H85.6436ZM86.3402 12.8105C86.656 13.1412 87.0662 13.3191 87.4558 13.4188C87.8514 13.52 88.3015 13.56 88.7836 13.56V11.56C88.399 11.56 88.1291 11.5267 87.9514 11.4812C87.7677 11.4342 87.7512 11.3921 87.7869 11.4295L86.3402 12.8105ZM88.7836 13.56C89.3566 13.56 89.8849 13.5243 90.3628 13.4472L90.0444 11.4728C89.6957 11.529 89.2773 11.56 88.7836 11.56V13.56ZM90.3879 13.4429C90.8461 13.357 91.2675 13.2543 91.6484 13.1324L91.0388 11.2276C90.753 11.319 90.4145 11.403 90.0193 11.4771L90.3879 13.4429ZM90.3436 12.18V15.86H92.3436V12.18H90.3436ZM91.0614 14.9006C90.6702 15.0157 90.1616 15.1205 89.5249 15.2097L89.8022 17.1903C90.4989 17.0928 91.1103 16.971 91.6258 16.8194L91.0614 14.9006ZM89.5025 15.2131C88.9068 15.3103 88.2743 15.36 87.6036 15.36V17.36C88.3729 17.36 89.1137 17.303 89.8247 17.1869L89.5025 15.2131ZM87.6036 15.36C86.3331 15.36 85.3573 15.1719 84.6323 14.8473L83.8149 16.6727C84.8766 17.1481 86.1541 17.36 87.6036 17.36V15.36ZM84.6435 14.8524C83.9182 14.5169 83.4188 14.0585 83.0928 13.4855L81.3544 14.4745C81.9084 15.4482 82.7423 16.1765 83.8037 16.6676L84.6435 14.8524ZM83.0928 13.4855C82.7541 12.8902 82.5636 12.1477 82.5636 11.22H80.5636C80.5636 12.4256 80.8131 13.5231 81.3544 14.4745L83.0928 13.4855ZM82.5636 11.22V8.2H80.5636V11.22H82.5636ZM81.5636 7.2H79.3036V9.2H81.5636V7.2Z" fill="black" mask="url(#path-1-outside-1_31979_1738)"/>
</g>
<defs>
<filter id="filter0_d_31979_1738" x="0.321106" y="0" width="92.0225" height="19.36" filterUnits="userSpaceOnUse" color-interpolation-filters="sRGB">
<feFlood flood-opacity="0" result="BackgroundImageFix"/>
<feColorMatrix in="SourceAlpha" type="matrix" values="0 0 0 0 0 0 0 0 0 0 0 0 0 0 0 0 0 0 127 0" result="hardAlpha"/>
<feOffset dy="2"/>
<feComposite in2="hardAlpha" operator="out"/>
<feColorMatrix type="matrix" values="0 0 0 0 0 0 0 0 0 0 0 0 0 0 0 0 0 0 0.5 0"/>
<feBlend mode="normal" in2="BackgroundImageFix" result="effect1_dropShadow_31979_1738"/>
<feBlend mode="normal" in="SourceGraphic" in2="effect1_dropShadow_31979_1738" result="shape"/>
</filter>
</defs>
</svg>
