<svg width="409" height="283" viewBox="0 0 409 283" fill="none" xmlns="http://www.w3.org/2000/svg">
<ellipse cx="202.829" cy="67.1539" rx="169.246" ry="180.911" transform="rotate(11.5585 202.829 67.1539)" fill="#2F325F" stroke="black"/>
<ellipse cx="208.668" cy="75.7657" rx="165.861" ry="177.469" transform="rotate(11.5585 208.668 75.7657)" fill="#1D2347" stroke="black"/>
<ellipse cx="215.095" cy="84.8878" rx="138.782" ry="148.401" transform="rotate(11.5585 215.095 84.8878)" fill="#D9D9D9" stroke="black"/>
<ellipse cx="215.095" cy="84.8878" rx="138.782" ry="148.401" transform="rotate(11.5585 215.095 84.8878)" fill="#242381" stroke="black"/>
<path fill-rule="evenodd" clip-rule="evenodd" d="M150.844 214.823C225.936 230.181 300.124 177.537 316.546 97.2392C329.463 34.0797 302.793 -27.3761 254.278 -58.2057C251.18 -59.0815 248.03 -59.849 244.83 -60.5035C169.737 -75.8611 95.5497 -23.217 79.1276 57.0804C66.2106 120.24 92.8798 181.696 141.396 212.525C144.493 213.401 147.643 214.169 150.844 214.823Z" fill="#141476"/>
<path d="M254.278 -58.2057L254.546 -58.6277L254.484 -58.667L254.414 -58.6869L254.278 -58.2057ZM141.396 212.525L141.127 212.947L141.189 212.987L141.26 213.006L141.396 212.525ZM316.056 97.139C299.683 177.197 225.735 229.629 150.944 214.333L150.743 215.313C226.137 230.732 300.565 177.876 317.035 97.3393L316.056 97.139ZM254.009 -57.7837C302.342 -27.0706 328.933 34.1728 316.056 97.139L317.035 97.3393C329.992 33.9866 303.245 -27.6815 254.546 -58.6277L254.009 -57.7837ZM244.729 -60.0136C247.918 -59.3616 251.056 -58.5971 254.142 -57.7246L254.414 -58.6869C251.304 -59.566 248.142 -60.3364 244.93 -60.9933L244.729 -60.0136ZM79.6175 57.1806C95.9906 -22.8777 169.938 -75.3097 244.729 -60.0136L244.93 -60.9933C169.536 -76.4125 95.1087 -23.5562 78.6378 56.9802L79.6175 57.1806ZM141.664 212.103C93.3314 181.39 66.74 120.147 79.6175 57.1806L78.6378 56.9802C65.6812 120.333 92.4282 182.001 141.127 212.947L141.664 212.103ZM150.944 214.333C147.756 213.681 144.617 212.917 141.532 212.044L141.26 213.006C144.369 213.886 147.531 214.656 150.743 215.313L150.944 214.333Z" fill="black"/>
<circle cx="114.467" cy="11.4001" r="2.40557" fill="#A5FFFD" fill-opacity="0.2"/>
<circle cx="179.898" cy="64.3228" r="2.40557" fill="#A5FFFD" fill-opacity="0.5"/>
<circle cx="222.718" cy="42.6729" r="0.962615" fill="#A5FFFD" fill-opacity="0.2"/>
<circle cx="155.362" cy="9.95711" r="0.962615" fill="#A5FFFD" fill-opacity="0.2"/>
<circle cx="210.209" cy="33.0506" r="0.962615" fill="#A5FFFD" fill-opacity="0.2"/>
<circle cx="217.907" cy="110.991" r="0.962615" fill="#A5FFFD" fill-opacity="0.5"/>
<circle cx="183.267" cy="139.858" r="0.962615" fill="#A5FFFD" fill-opacity="0.2"/>
<circle cx="271.792" cy="143.707" r="0.962615" fill="#A5FFFD" fill-opacity="0.2"/>
<circle cx="141.891" cy="123.5" r="0.962615" fill="#A5FFFD" fill-opacity="0.5"/>
<circle cx="136.117" cy="169.687" r="0.962615" fill="#A5FFFD" fill-opacity="0.5"/>
<circle cx="285.744" cy="78.7562" r="2.40557" fill="#A5FFFD" fill-opacity="0.2"/>
<circle cx="195.294" cy="169.206" r="2.40557" fill="#A5FFFD" fill-opacity="0.2"/>
<circle cx="214.539" cy="148.037" r="2.40557" fill="#A5FFFD" fill-opacity="0.2"/>
</svg>
