<svg width="30" height="27" viewBox="0 0 30 27" fill="none" xmlns="http://www.w3.org/2000/svg">
<g filter="url(#filter0_i_33018_3432)">
<path d="M11.5158 23.5616C13.0554 26.2283 16.9044 26.2283 18.444 23.5616L27.9475 7.1012C29.4871 4.43454 27.5626 1.1012 24.4834 1.1012H5.47647C2.39727 1.1012 0.472772 4.43453 2.01237 7.1012L11.5158 23.5616Z" fill="#75759D"/>
</g>
<path d="M11.2524 24.0841C13.0827 26.8088 17.1994 26.7179 18.8774 23.8116L28.3803 7.35168L28.5317 7.0675C29.9757 4.12032 27.8393 0.602013 24.4838 0.601685H5.47601C2.01218 0.602018 -0.152445 4.35182 1.57953 7.35168L11.0825 23.8116L11.2524 24.0841Z" stroke="black"/>
<defs>
<filter id="filter0_i_33018_3432" x="0.468994" y="0.101196" width="29.0219" height="26.4604" filterUnits="userSpaceOnUse" color-interpolation-filters="sRGB">
<feFlood flood-opacity="0" result="BackgroundImageFix"/>
<feBlend mode="normal" in="SourceGraphic" in2="BackgroundImageFix" result="shape"/>
<feColorMatrix in="SourceAlpha" type="matrix" values="0 0 0 0 0 0 0 0 0 0 0 0 0 0 0 0 0 0 127 0" result="hardAlpha"/>
<feOffset dx="-3" dy="-5"/>
<feComposite in2="hardAlpha" operator="arithmetic" k2="-1" k3="1"/>
<feColorMatrix type="matrix" values="0 0 0 0 0 0 0 0 0 0 0 0 0 0 0 0 0 0 0.25 0"/>
<feBlend mode="normal" in2="shape" result="effect1_innerShadow_33018_3432"/>
</filter>
</defs>
</svg>
