<svg width="27" height="30" viewBox="0 0 27 30" fill="none" xmlns="http://www.w3.org/2000/svg">
<g filter="url(#filter0_i_36086_627)">
<path d="M23.9473 18.4377C26.6139 16.8981 26.6139 13.0491 23.9473 11.5095L7.48682 2.0061C4.82016 0.466497 1.48682 2.391 1.48682 5.4702L1.48682 24.4771C1.48682 27.5563 4.82015 29.4808 7.48682 27.9412L23.9473 18.4377Z" fill="#BFFF60"/>
</g>
<path d="M24.4697 18.7012C27.1945 16.8709 27.1036 12.7541 24.1973 11.0762L7.7373 1.57324L7.45312 1.42188C4.50594 -0.0221106 0.987631 2.11429 0.987303 5.46973L0.987304 24.4775C0.987638 27.9414 4.73744 30.106 7.7373 28.374L24.1973 18.8711L24.4697 18.7012Z" stroke="black"/>
<defs>
<filter id="filter0_i_36086_627" x="0.486816" y="0.462708" width="26.4604" height="29.0219" filterUnits="userSpaceOnUse" color-interpolation-filters="sRGB">
<feFlood flood-opacity="0" result="BackgroundImageFix"/>
<feBlend mode="normal" in="SourceGraphic" in2="BackgroundImageFix" result="shape"/>
<feColorMatrix in="SourceAlpha" type="matrix" values="0 0 0 0 0 0 0 0 0 0 0 0 0 0 0 0 0 0 127 0" result="hardAlpha"/>
<feOffset dx="-3" dy="-5"/>
<feComposite in2="hardAlpha" operator="arithmetic" k2="-1" k3="1"/>
<feColorMatrix type="matrix" values="0 0 0 0 0 0 0 0 0 0 0 0 0 0 0 0 0 0 0.25 0"/>
<feBlend mode="normal" in2="shape" result="effect1_innerShadow_36086_627"/>
</filter>
</defs>
</svg>
