<svg width="427" height="313" viewBox="0 0 427 313" fill="none" xmlns="http://www.w3.org/2000/svg">
<path d="M16.5599 -25.6443C9.21729 -55.6226 37.1544 -82.2697 66.7523 -73.5191L330.054 4.32668C343.703 8.36189 354.179 19.3454 357.565 33.1693L409.528 245.322C416.871 275.3 388.933 301.947 359.336 293.197L96.0337 215.351C82.3853 211.316 71.9089 200.332 68.523 186.508L16.5599 -25.6443Z" fill="#1D2347" stroke="black"/>
<path d="M29.26 -26.7283C23.7527 -49.2119 44.7053 -69.1975 66.9038 -62.6347L324.995 13.6668C335.232 16.6931 343.089 24.9307 345.629 35.2986L397.338 246.406C402.846 268.89 381.893 288.875 359.694 282.313L101.603 206.011C91.3665 202.985 83.5091 194.747 80.9696 184.379L29.26 -26.7283Z" fill="#242381" stroke="black"/>
<path fill-rule="evenodd" clip-rule="evenodd" d="M68.1798 -62.2575C68.1194 -59.6638 68.3989 -56.9919 69.0622 -54.2837L120.772 156.824C123.311 167.192 131.169 175.429 141.405 178.456L398.221 254.38C398.281 251.786 398.002 249.114 397.338 246.406L345.629 35.2986C343.089 24.9307 335.232 16.6932 324.995 13.6669L68.1798 -62.2575Z" fill="#141476"/>
<path d="M69.0622 -54.2837L69.5479 -54.4026L69.0622 -54.2837ZM68.1798 -62.2575L68.3215 -62.737L67.6951 -62.9221L67.6799 -62.2691L68.1798 -62.2575ZM120.772 156.824L121.257 156.705L120.772 156.824ZM141.405 178.456L141.263 178.935L141.405 178.456ZM398.221 254.38L398.079 254.859L398.705 255.045L398.721 254.392L398.221 254.38ZM397.338 246.406L396.853 246.525L397.338 246.406ZM345.629 35.2986L345.143 35.4176L345.629 35.2986ZM324.995 13.6669L325.137 13.1874L324.995 13.6669ZM69.5479 -54.4026C68.8949 -57.0683 68.6203 -59.6963 68.6796 -62.2458L67.6799 -62.2691C67.6185 -59.6313 67.9028 -56.9155 68.5766 -54.1647L69.5479 -54.4026ZM121.257 156.705L69.5479 -54.4026L68.5766 -54.1647L120.286 156.943L121.257 156.705ZM141.547 177.976C131.481 175 123.755 166.9 121.257 156.705L120.286 156.943C122.868 167.483 130.856 175.858 141.263 178.935L141.547 177.976ZM398.362 253.9L141.547 177.976L141.263 178.935L398.079 254.859L398.362 253.9ZM396.853 246.525C397.506 249.191 397.78 251.819 397.721 254.368L398.721 254.392C398.782 251.754 398.498 249.038 397.824 246.287L396.853 246.525ZM345.143 35.4176L396.853 246.525L397.824 246.287L346.114 35.1797L345.143 35.4176ZM324.854 14.1464C334.919 17.1222 342.646 25.2225 345.143 35.4176L346.114 35.1797C343.532 24.639 335.544 16.2641 325.137 13.1874L324.854 14.1464ZM68.038 -61.778L324.854 14.1464L325.137 13.1874L68.3215 -62.737L68.038 -61.778Z" fill="black"/>
<circle cx="2.23777" cy="2.23777" r="2.23777" transform="matrix(-1 0 0 1 312.392 47.2772)" fill="#A5FFFD" fill-opacity="0.2"/>
<circle cx="3.13341" cy="3.13341" r="3.13341" transform="matrix(-1 0 0 1 347.301 171.697)" fill="#A5FFFD" fill-opacity="0.3"/>
<circle cx="2.23777" cy="2.23777" r="2.23777" transform="matrix(-1 0 0 1 314.182 121.571)" fill="#A5FFFD" fill-opacity="0.2"/>
<circle cx="2.23777" cy="2.23777" r="2.23777" transform="matrix(-1 0 0 1 251.525 96.5079)" fill="#A5FFFD" fill-opacity="0.5"/>
<circle cx="2.23777" cy="2.23777" r="2.23777" transform="matrix(-1 0 0 1 169.175 32.9554)" fill="#A5FFFD" fill-opacity="0.2"/>
<circle cx="0.895465" cy="0.895465" r="0.895465" transform="matrix(-1 0 0 1 210.35 77.7107)" fill="#A5FFFD" fill-opacity="0.2"/>
<circle cx="0.895465" cy="0.895465" r="0.895465" transform="matrix(-1 0 0 1 193.343 28.48)" fill="#A5FFFD" fill-opacity="0.5"/>
<circle cx="0.895465" cy="0.895465" r="0.895465" transform="matrix(-1 0 0 1 273.008 47.2772)" fill="#A5FFFD" fill-opacity="0.2"/>
<circle cx="0.895465" cy="0.895465" r="0.895465" transform="matrix(-1 0 0 1 121.734 -1.05859)" fill="#A5FFFD" fill-opacity="0.2"/>
<circle cx="0.895465" cy="0.895465" r="0.895465" transform="matrix(-1 0 0 1 136.951 13.2632)" fill="#A5FFFD" fill-opacity="0.2"/>
<circle cx="0.895465" cy="0.895465" r="0.895465" transform="matrix(-1 0 0 1 122.63 46.382)" fill="#A5FFFD" fill-opacity="0.2"/>
<circle cx="0.895465" cy="0.895465" r="0.895465" transform="matrix(-1 0 0 1 221.986 68.7597)" fill="#A5FFFD" fill-opacity="0.2"/>
<circle cx="0.895465" cy="0.895465" r="0.895465" transform="matrix(-1 0 0 1 214.826 141.263)" fill="#A5FFFD" fill-opacity="0.5"/>
<circle cx="0.895465" cy="0.895465" r="0.895465" transform="matrix(-1 0 0 1 247.049 168.116)" fill="#A5FFFD" fill-opacity="0.2"/>
<circle cx="0.895465" cy="0.895465" r="0.895465" transform="matrix(-1 0 0 1 164.7 171.697)" fill="#A5FFFD" fill-opacity="0.2"/>
<circle cx="0.895465" cy="0.895465" r="0.895465" transform="matrix(-1 0 0 1 285.539 152.9)" fill="#A5FFFD" fill-opacity="0.5"/>
<circle cx="0.895465" cy="0.895465" r="0.895465" transform="matrix(-1 0 0 1 290.91 195.865)" fill="#A5FFFD" fill-opacity="0.5"/>
<circle cx="2.23777" cy="2.23777" r="2.23777" transform="matrix(-1 0 0 1 153.063 109.935)" fill="#A5FFFD" fill-opacity="0.2"/>
<circle cx="2.23777" cy="2.23777" r="2.23777" transform="matrix(-1 0 0 1 237.203 194.075)" fill="#A5FFFD" fill-opacity="0.2"/>
<circle cx="2.23777" cy="2.23777" r="2.23777" transform="matrix(-1 0 0 1 219.301 174.382)" fill="#A5FFFD" fill-opacity="0.2"/>
</svg>
