<svg width="95" height="21" viewBox="0 0 95 21" fill="none" xmlns="http://www.w3.org/2000/svg">
<g filter="url(#filter0_d_31979_1739)">
<mask id="path-1-outside-1_31979_1739" maskUnits="userSpaceOnUse" x="0" y="0" width="95" height="19" fill="black">
<rect fill="white" width="95" height="19"/>
<path d="M6.91375 4.22H12.0738V17H6.91375V4.22ZM1.51375 2H17.4738V6.6H1.51375V2ZM23.9398 17.36C22.4198 17.36 21.0865 17.1067 19.9398 16.6C18.8065 16.0933 17.9198 15.38 17.2798 14.46C16.6532 13.54 16.3398 12.4733 16.3398 11.26C16.3398 10.0333 16.6532 8.96 17.2798 8.04C17.9198 7.12 18.8065 6.40667 19.9398 5.9C21.0865 5.39333 22.4198 5.14 23.9398 5.14C25.4598 5.14 26.7865 5.39333 27.9198 5.9C29.0665 6.40667 29.9532 7.12 30.5798 8.04C31.2198 8.96 31.5398 10.0333 31.5398 11.26C31.5398 12.4733 31.2198 13.54 30.5798 14.46C29.9532 15.38 29.0665 16.0933 27.9198 16.6C26.7865 17.1067 25.4598 17.36 23.9398 17.36ZM23.9398 13.66C24.4732 13.66 24.9198 13.5667 25.2798 13.38C25.6532 13.1933 25.9332 12.92 26.1198 12.56C26.3198 12.2 26.4198 11.7667 26.4198 11.26C26.4198 10.74 26.3198 10.3 26.1198 9.94C25.9332 9.58 25.6532 9.30667 25.2798 9.12C24.9198 8.93333 24.4732 8.84 23.9398 8.84C23.4198 8.84 22.9732 8.93333 22.5998 9.12C22.2265 9.30667 21.9398 9.58 21.7398 9.94C21.5532 10.3 21.4598 10.74 21.4598 11.26C21.4598 11.7667 21.5532 12.2 21.7398 12.56C21.9398 12.92 22.2265 13.1933 22.5998 13.38C22.9732 13.5667 23.4198 13.66 23.9398 13.66ZM38.0713 13.06L36.7113 12.62L42.4513 5.5H47.6113L37.4713 17H32.9913V1.6H38.0713V13.06ZM39.1713 11.44L43.0913 8.94L47.8913 17H42.2513L39.1713 11.44ZM54.8355 17.36C53.4088 17.36 52.1288 17.1067 50.9955 16.6C49.8755 16.08 48.9888 15.36 48.3355 14.44C47.6821 13.5067 47.3555 12.4267 47.3555 11.2C47.3555 9.98667 47.6688 8.92667 48.2955 8.02C48.9355 7.11333 49.8021 6.40667 50.8955 5.9C51.9888 5.39333 53.2155 5.14 54.5755 5.14C56.0021 5.14 57.2155 5.43333 58.2155 6.02C59.2155 6.60667 59.9821 7.44 60.5155 8.52C61.0488 9.58667 61.3155 10.8533 61.3155 12.32H51.5155V9.98H58.3555L56.9955 10.74C56.9288 10.22 56.7955 9.78667 56.5955 9.44C56.3955 9.09333 56.1288 8.83333 55.7955 8.66C55.4755 8.47333 55.0888 8.38 54.6355 8.38C54.1288 8.38 53.6955 8.49333 53.3355 8.72C52.9888 8.94667 52.7221 9.26 52.5355 9.66C52.3621 10.0467 52.2755 10.4867 52.2755 10.98C52.2755 11.62 52.4155 12.16 52.6955 12.6C52.9888 13.0267 53.4288 13.3533 54.0155 13.58C54.6021 13.8067 55.3421 13.92 56.2355 13.92C57.1021 13.92 57.9421 13.8133 58.7555 13.6C59.5821 13.3733 60.3421 13.0533 61.0355 12.64V15.52C60.1821 16.12 59.2088 16.58 58.1155 16.9C57.0355 17.2067 55.9421 17.36 54.8355 17.36ZM62.1778 5.5H67.2578L68.0578 10.4V17H62.9778V9.62L62.1778 5.5ZM72.0378 5.14C73.1578 5.14 74.1111 5.36667 74.8978 5.82C75.6845 6.26 76.2845 6.88667 76.6978 7.7C77.1245 8.5 77.3378 9.44 77.3378 10.52V17H72.2578V11.24C72.2578 10.6 72.0778 10.1067 71.7178 9.76C71.3711 9.41333 70.8778 9.24 70.2378 9.24C69.7845 9.24 69.3911 9.33333 69.0578 9.52C68.7378 9.69333 68.4911 9.95333 68.3178 10.3C68.1445 10.6333 68.0578 11.04 68.0578 11.52L66.5578 10.76C66.7445 9.50667 67.1045 8.46667 67.6378 7.64C68.1711 6.8 68.8178 6.17333 69.5778 5.76C70.3378 5.34667 71.1578 5.14 72.0378 5.14ZM93.3841 13.08C93.3841 14.04 93.0841 14.84 92.4841 15.48C91.8841 16.1067 91.0441 16.58 89.9641 16.9C88.8974 17.2067 87.6441 17.36 86.2041 17.36C84.7241 17.36 83.4174 17.1867 82.2841 16.84C81.1641 16.48 80.2774 15.98 79.6241 15.34C78.9841 14.7 78.6441 13.9533 78.6041 13.1H83.7641C83.8574 13.3533 84.0174 13.5667 84.2441 13.74C84.4707 13.9 84.7641 14.0267 85.1241 14.12C85.4974 14.2 85.9507 14.24 86.4841 14.24C87.1241 14.24 87.6107 14.18 87.9441 14.06C88.2774 13.9267 88.4441 13.7467 88.4441 13.52C88.4441 13.2933 88.3041 13.1333 88.0241 13.04C87.7441 12.9467 87.2907 12.88 86.6641 12.84L84.7841 12.72C83.3307 12.6267 82.1707 12.44 81.3041 12.16C80.4507 11.8667 79.8374 11.4733 79.4641 10.98C79.0907 10.4867 78.9041 9.89333 78.9041 9.2C78.9041 8.28 79.1907 7.52 79.7641 6.92C80.3507 6.32 81.1641 5.87333 82.2041 5.58C83.2441 5.28667 84.4574 5.14 85.8441 5.14C87.2041 5.14 88.4107 5.31333 89.4641 5.66C90.5174 5.99333 91.3641 6.46667 92.0041 7.08C92.6441 7.69333 93.0174 8.40667 93.1241 9.22H87.9641C87.8974 8.98 87.7641 8.77333 87.5641 8.6C87.3641 8.42667 87.1041 8.29333 86.7841 8.2C86.4641 8.10667 86.0774 8.06 85.6241 8.06C85.0107 8.06 84.5641 8.13333 84.2841 8.28C84.0041 8.41333 83.8641 8.59333 83.8641 8.82C83.8641 9.03333 83.9507 9.18667 84.1241 9.28C84.2974 9.36 84.6374 9.41333 85.1441 9.44L87.6641 9.6C89.1041 9.68 90.2374 9.86667 91.0641 10.16C91.9041 10.44 92.4974 10.82 92.8441 11.3C93.2041 11.78 93.3841 12.3733 93.3841 13.08Z"/>
</mask>
<path d="M6.91375 4.22H12.0738V17H6.91375V4.22ZM1.51375 2H17.4738V6.6H1.51375V2ZM23.9398 17.36C22.4198 17.36 21.0865 17.1067 19.9398 16.6C18.8065 16.0933 17.9198 15.38 17.2798 14.46C16.6532 13.54 16.3398 12.4733 16.3398 11.26C16.3398 10.0333 16.6532 8.96 17.2798 8.04C17.9198 7.12 18.8065 6.40667 19.9398 5.9C21.0865 5.39333 22.4198 5.14 23.9398 5.14C25.4598 5.14 26.7865 5.39333 27.9198 5.9C29.0665 6.40667 29.9532 7.12 30.5798 8.04C31.2198 8.96 31.5398 10.0333 31.5398 11.26C31.5398 12.4733 31.2198 13.54 30.5798 14.46C29.9532 15.38 29.0665 16.0933 27.9198 16.6C26.7865 17.1067 25.4598 17.36 23.9398 17.36ZM23.9398 13.66C24.4732 13.66 24.9198 13.5667 25.2798 13.38C25.6532 13.1933 25.9332 12.92 26.1198 12.56C26.3198 12.2 26.4198 11.7667 26.4198 11.26C26.4198 10.74 26.3198 10.3 26.1198 9.94C25.9332 9.58 25.6532 9.30667 25.2798 9.12C24.9198 8.93333 24.4732 8.84 23.9398 8.84C23.4198 8.84 22.9732 8.93333 22.5998 9.12C22.2265 9.30667 21.9398 9.58 21.7398 9.94C21.5532 10.3 21.4598 10.74 21.4598 11.26C21.4598 11.7667 21.5532 12.2 21.7398 12.56C21.9398 12.92 22.2265 13.1933 22.5998 13.38C22.9732 13.5667 23.4198 13.66 23.9398 13.66ZM38.0713 13.06L36.7113 12.62L42.4513 5.5H47.6113L37.4713 17H32.9913V1.6H38.0713V13.06ZM39.1713 11.44L43.0913 8.94L47.8913 17H42.2513L39.1713 11.44ZM54.8355 17.36C53.4088 17.36 52.1288 17.1067 50.9955 16.6C49.8755 16.08 48.9888 15.36 48.3355 14.44C47.6821 13.5067 47.3555 12.4267 47.3555 11.2C47.3555 9.98667 47.6688 8.92667 48.2955 8.02C48.9355 7.11333 49.8021 6.40667 50.8955 5.9C51.9888 5.39333 53.2155 5.14 54.5755 5.14C56.0021 5.14 57.2155 5.43333 58.2155 6.02C59.2155 6.60667 59.9821 7.44 60.5155 8.52C61.0488 9.58667 61.3155 10.8533 61.3155 12.32H51.5155V9.98H58.3555L56.9955 10.74C56.9288 10.22 56.7955 9.78667 56.5955 9.44C56.3955 9.09333 56.1288 8.83333 55.7955 8.66C55.4755 8.47333 55.0888 8.38 54.6355 8.38C54.1288 8.38 53.6955 8.49333 53.3355 8.72C52.9888 8.94667 52.7221 9.26 52.5355 9.66C52.3621 10.0467 52.2755 10.4867 52.2755 10.98C52.2755 11.62 52.4155 12.16 52.6955 12.6C52.9888 13.0267 53.4288 13.3533 54.0155 13.58C54.6021 13.8067 55.3421 13.92 56.2355 13.92C57.1021 13.92 57.9421 13.8133 58.7555 13.6C59.5821 13.3733 60.3421 13.0533 61.0355 12.64V15.52C60.1821 16.12 59.2088 16.58 58.1155 16.9C57.0355 17.2067 55.9421 17.36 54.8355 17.36ZM62.1778 5.5H67.2578L68.0578 10.4V17H62.9778V9.62L62.1778 5.5ZM72.0378 5.14C73.1578 5.14 74.1111 5.36667 74.8978 5.82C75.6845 6.26 76.2845 6.88667 76.6978 7.7C77.1245 8.5 77.3378 9.44 77.3378 10.52V17H72.2578V11.24C72.2578 10.6 72.0778 10.1067 71.7178 9.76C71.3711 9.41333 70.8778 9.24 70.2378 9.24C69.7845 9.24 69.3911 9.33333 69.0578 9.52C68.7378 9.69333 68.4911 9.95333 68.3178 10.3C68.1445 10.6333 68.0578 11.04 68.0578 11.52L66.5578 10.76C66.7445 9.50667 67.1045 8.46667 67.6378 7.64C68.1711 6.8 68.8178 6.17333 69.5778 5.76C70.3378 5.34667 71.1578 5.14 72.0378 5.14ZM93.3841 13.08C93.3841 14.04 93.0841 14.84 92.4841 15.48C91.8841 16.1067 91.0441 16.58 89.9641 16.9C88.8974 17.2067 87.6441 17.36 86.2041 17.36C84.7241 17.36 83.4174 17.1867 82.2841 16.84C81.1641 16.48 80.2774 15.98 79.6241 15.34C78.9841 14.7 78.6441 13.9533 78.6041 13.1H83.7641C83.8574 13.3533 84.0174 13.5667 84.2441 13.74C84.4707 13.9 84.7641 14.0267 85.1241 14.12C85.4974 14.2 85.9507 14.24 86.4841 14.24C87.1241 14.24 87.6107 14.18 87.9441 14.06C88.2774 13.9267 88.4441 13.7467 88.4441 13.52C88.4441 13.2933 88.3041 13.1333 88.0241 13.04C87.7441 12.9467 87.2907 12.88 86.6641 12.84L84.7841 12.72C83.3307 12.6267 82.1707 12.44 81.3041 12.16C80.4507 11.8667 79.8374 11.4733 79.4641 10.98C79.0907 10.4867 78.9041 9.89333 78.9041 9.2C78.9041 8.28 79.1907 7.52 79.7641 6.92C80.3507 6.32 81.1641 5.87333 82.2041 5.58C83.2441 5.28667 84.4574 5.14 85.8441 5.14C87.2041 5.14 88.4107 5.31333 89.4641 5.66C90.5174 5.99333 91.3641 6.46667 92.0041 7.08C92.6441 7.69333 93.0174 8.40667 93.1241 9.22H87.9641C87.8974 8.98 87.7641 8.77333 87.5641 8.6C87.3641 8.42667 87.1041 8.29333 86.7841 8.2C86.4641 8.10667 86.0774 8.06 85.6241 8.06C85.0107 8.06 84.5641 8.13333 84.2841 8.28C84.0041 8.41333 83.8641 8.59333 83.8641 8.82C83.8641 9.03333 83.9507 9.18667 84.1241 9.28C84.2974 9.36 84.6374 9.41333 85.1441 9.44L87.6641 9.6C89.1041 9.68 90.2374 9.86667 91.0641 10.16C91.9041 10.44 92.4974 10.82 92.8441 11.3C93.2041 11.78 93.3841 12.3733 93.3841 13.08Z" fill="#BFFF60"/>
<path d="M6.91375 4.22V3.22H5.91375V4.22H6.91375ZM12.0738 4.22H13.0738V3.22H12.0738V4.22ZM12.0738 17V18H13.0738V17H12.0738ZM6.91375 17H5.91375V18H6.91375V17ZM1.51375 2V0.999999H0.51375V2H1.51375ZM17.4738 2H18.4738V0.999999H17.4738V2ZM17.4738 6.6V7.6H18.4738V6.6H17.4738ZM1.51375 6.6H0.51375V7.6H1.51375V6.6ZM6.91375 5.22H12.0738V3.22H6.91375V5.22ZM11.0738 4.22V17H13.0738V4.22H11.0738ZM12.0738 16H6.91375V18H12.0738V16ZM7.91375 17V4.22H5.91375V17H7.91375ZM1.51375 3H17.4738V0.999999H1.51375V3ZM16.4738 2V6.6H18.4738V2H16.4738ZM17.4738 5.6H1.51375V7.6H17.4738V5.6ZM2.51375 6.6V2H0.51375V6.6H2.51375ZM19.9398 16.6L19.5317 17.5129L19.5357 17.5147L19.9398 16.6ZM17.2798 14.46L16.4533 15.023L16.4589 15.0311L17.2798 14.46ZM17.2798 8.04L16.4589 7.46891L16.4534 7.47703L17.2798 8.04ZM19.9398 5.9L19.5357 4.9853L19.5317 4.98708L19.9398 5.9ZM27.9198 5.9L27.5117 6.81293L27.5157 6.81469L27.9198 5.9ZM30.5798 8.04L29.7533 8.60299L29.7589 8.61106L30.5798 8.04ZM30.5798 14.46L29.7589 13.8889L29.7534 13.897L30.5798 14.46ZM27.9198 16.6L27.5157 15.6853L27.5117 15.6871L27.9198 16.6ZM25.2798 13.38L24.8326 12.4856L24.8261 12.4889L24.8195 12.4922L25.2798 13.38ZM26.1198 12.56L25.2457 12.0744L25.2387 12.0869L25.2321 12.0997L26.1198 12.56ZM26.1198 9.94L25.2321 10.4003L25.2387 10.4131L25.2457 10.4256L26.1198 9.94ZM25.2798 9.12L24.8195 10.0078L24.8261 10.0111L24.8326 10.0144L25.2798 9.12ZM22.5998 9.12L23.0471 10.0144L22.5998 9.12ZM21.7398 9.94L20.8657 9.45436L20.8587 9.46692L20.8521 9.47968L21.7398 9.94ZM21.7398 12.56L20.8521 13.0203L20.8587 13.0331L20.8657 13.0456L21.7398 12.56ZM22.5998 13.38L23.0471 12.4856L22.5998 13.38ZM23.9398 16.36C22.5301 16.36 21.3393 16.1251 20.344 15.6853L19.5357 17.5147C20.8337 18.0882 22.3096 18.36 23.9398 18.36V16.36ZM20.348 15.6871C19.3624 15.2464 18.6259 14.6438 18.1007 13.8889L16.4589 15.0311C17.2138 16.1162 18.2507 16.9402 19.5317 17.5129L20.348 15.6871ZM18.1063 13.897C17.6029 13.158 17.3398 12.2914 17.3398 11.26H15.3398C15.3398 12.6552 15.7034 13.922 16.4534 15.023L18.1063 13.897ZM17.3398 11.26C17.3398 10.2128 17.6042 9.34017 18.1063 8.60296L16.4534 7.47703C15.7022 8.57983 15.3398 9.85388 15.3398 11.26H17.3398ZM18.1007 8.61106C18.6259 7.85619 19.3624 7.25355 20.348 6.81292L19.5317 4.98708C18.2507 5.55978 17.2138 6.38381 16.4589 7.46894L18.1007 8.61106ZM20.344 6.81469C21.3393 6.3749 22.5301 6.14 23.9398 6.14V4.14C22.3096 4.14 20.8337 4.41176 19.5357 4.98531L20.344 6.81469ZM23.9398 6.14C25.35 6.14 26.5322 6.37503 27.5117 6.81292L28.328 4.98708C27.0408 4.41163 25.5697 4.14 23.9398 4.14V6.14ZM27.5157 6.81469C28.5136 7.25564 29.2447 7.85621 29.7534 8.60296L31.4063 7.47703C30.6617 6.38379 29.6194 5.55769 28.324 4.98531L27.5157 6.81469ZM29.7589 8.61106C30.2713 9.34759 30.5398 10.2173 30.5398 11.26H32.5398C32.5398 9.84938 32.1684 8.57241 31.4007 7.46894L29.7589 8.61106ZM30.5398 11.26C30.5398 12.2869 30.2726 13.1505 29.7589 13.8889L31.4007 15.0311C32.1671 13.9295 32.5398 12.6598 32.5398 11.26H30.5398ZM29.7534 13.897C29.2447 14.6438 28.5136 15.2444 27.5157 15.6853L28.324 17.5147C29.6194 16.9423 30.6617 16.1162 31.4063 15.023L29.7534 13.897ZM27.5117 15.6871C26.5322 16.125 25.35 16.36 23.9398 16.36V18.36C25.5697 18.36 27.0408 18.0884 28.328 17.5129L27.5117 15.6871ZM23.9398 14.66C24.5848 14.66 25.2003 14.5477 25.7402 14.2678L24.8195 12.4922C24.6394 12.5856 24.3616 12.66 23.9398 12.66V14.66ZM25.7271 14.2744C26.2835 13.9962 26.7206 13.5737 27.0076 13.0203L25.2321 12.0997C25.1457 12.2663 25.0229 12.3905 24.8326 12.4856L25.7271 14.2744ZM26.994 13.0456C27.2935 12.5065 27.4198 11.8979 27.4198 11.26H25.4198C25.4198 11.6355 25.3462 11.8935 25.2457 12.0744L26.994 13.0456ZM27.4198 11.26C27.4198 10.6139 27.2955 9.99702 26.994 9.45436L25.2457 10.4256C25.3442 10.603 25.4198 10.8661 25.4198 11.26H27.4198ZM27.0076 9.47968C26.7206 8.92626 26.2835 8.50379 25.7271 8.22557L24.8326 10.0144C25.0229 10.1095 25.1457 10.2337 25.2321 10.4003L27.0076 9.47968ZM25.7402 8.23224C25.2003 7.95229 24.5848 7.84 23.9398 7.84V9.84C24.3616 9.84 24.6394 9.91437 24.8195 10.0078L25.7402 8.23224ZM23.9398 7.84C23.3019 7.84 22.6947 7.95452 22.1526 8.22557L23.0471 10.0144C23.2516 9.91215 23.5378 9.84 23.9398 9.84V7.84ZM22.1526 8.22557C21.6016 8.50106 21.165 8.91566 20.8657 9.45436L22.614 10.4256C22.7147 10.2443 22.8514 10.1123 23.0471 10.0144L22.1526 8.22557ZM20.8521 9.47968C20.5738 10.0164 20.4598 10.6237 20.4598 11.26H22.4598C22.4598 10.8563 22.5326 10.5836 22.6276 10.4003L20.8521 9.47968ZM20.4598 11.26C20.4598 11.8877 20.5755 12.487 20.8521 13.0203L22.6276 12.0997C22.5308 11.913 22.4598 11.6456 22.4598 11.26H20.4598ZM20.8657 13.0456C21.165 13.5843 21.6016 13.9989 22.1526 14.2744L23.0471 12.4856C22.8514 12.3877 22.7147 12.2557 22.614 12.0744L20.8657 13.0456ZM22.1526 14.2744C22.6947 14.5455 23.3019 14.66 23.9398 14.66V12.66C23.5378 12.66 23.2516 12.5879 23.0471 12.4856L22.1526 14.2744ZM38.0713 13.06L37.7634 14.0114L39.0713 14.4346V13.06H38.0713ZM36.7113 12.62L35.9327 11.9924L35.0204 13.124L36.4034 13.5714L36.7113 12.62ZM42.4513 5.5V4.5H41.9729L41.6727 4.87238L42.4513 5.5ZM47.6113 5.5L48.3613 6.16136L49.8262 4.5H47.6113V5.5ZM37.4712 17V18H37.9227L38.2213 17.6614L37.4712 17ZM32.9912 17H31.9912V18H32.9912V17ZM32.9912 1.6V0.599999H31.9912V1.6H32.9912ZM38.0713 1.6H39.0713V0.599999H38.0713V1.6ZM39.1712 11.44L38.6335 10.5969L37.841 11.1023L38.2965 11.9246L39.1712 11.44ZM43.0913 8.94L43.9504 8.42833L43.4229 7.54245L42.5535 8.09687L43.0913 8.94ZM47.8913 17V18H49.6507L48.7504 16.4883L47.8913 17ZM42.2513 17L41.3765 17.4846L41.662 18H42.2513V17ZM38.3791 12.1086L37.0191 11.6686L36.4034 13.5714L37.7634 14.0114L38.3791 12.1086ZM37.4898 13.2476L43.2298 6.12762L41.6727 4.87238L35.9327 11.9924L37.4898 13.2476ZM42.4513 6.5H47.6113V4.5H42.4513V6.5ZM46.8612 4.83864L36.7212 16.3386L38.2213 17.6614L48.3613 6.16136L46.8612 4.83864ZM37.4712 16H32.9912V18H37.4712V16ZM33.9912 17V1.6H31.9912V17H33.9912ZM32.9912 2.6H38.0713V0.599999H32.9912V2.6ZM37.0713 1.6V13.06H39.0713V1.6H37.0713ZM39.709 12.2831L43.629 9.78313L42.5535 8.09687L38.6335 10.5969L39.709 12.2831ZM42.2321 9.45167L47.0321 17.5117L48.7504 16.4883L43.9504 8.42833L42.2321 9.45167ZM47.8913 16H42.2513V18H47.8913V16ZM43.126 16.5154L40.046 10.9554L38.2965 11.9246L41.3765 17.4846L43.126 16.5154ZM50.9955 16.6L50.5744 17.507L50.5808 17.51L50.5873 17.5129L50.9955 16.6ZM48.3355 14.44L47.5162 15.0135L47.5201 15.019L48.3355 14.44ZM48.2955 8.02L47.4785 7.44329L47.4728 7.45142L48.2955 8.02ZM50.8955 5.9L51.3159 6.80731V6.80731L50.8955 5.9ZM60.5155 8.52L59.6188 8.96279L59.621 8.96721L60.5155 8.52ZM61.3155 12.32V13.32H62.3155V12.32H61.3155ZM51.5155 12.32H50.5155V13.32H51.5155V12.32ZM51.5155 9.98V8.98H50.5155V9.98H51.5155ZM58.3555 9.98L58.8433 10.8529L62.1949 8.98H58.3555V9.98ZM56.9955 10.74L56.0036 10.8672L56.1917 12.3347L57.4833 11.6129L56.9955 10.74ZM56.5955 9.44L55.7293 9.93972L56.5955 9.44ZM55.7955 8.66L55.2916 9.52378L55.3126 9.53601L55.3341 9.54722L55.7955 8.66ZM53.3355 8.72L52.8027 7.87377L52.7954 7.87834L52.7882 7.88303L53.3355 8.72ZM52.5355 9.66L51.6293 9.23711L51.6261 9.24401L51.623 9.25094L52.5355 9.66ZM52.6955 12.6L51.8518 13.1369L51.8614 13.1519L51.8714 13.1665L52.6955 12.6ZM54.0155 13.58L53.6551 14.5128L54.0155 13.58ZM58.7555 13.6L59.0092 14.5673L59.0199 14.5644L58.7555 13.6ZM61.0355 12.64H62.0355V10.8796L60.5234 11.7811L61.0355 12.64ZM61.0355 15.52L61.6106 16.338L62.0355 16.0393V15.52H61.0355ZM58.1155 16.9L58.3886 17.862L58.3964 17.8597L58.1155 16.9ZM54.8355 16.36C53.5286 16.36 52.3907 16.1284 51.4036 15.6871L50.5873 17.5129C51.8669 18.0849 53.289 18.36 54.8355 18.36V16.36ZM51.4166 15.693C50.439 15.2391 49.6941 14.6261 49.1508 13.861L47.5201 15.019C48.2835 16.0939 49.312 16.9209 50.5744 17.507L51.4166 15.693ZM49.1547 13.8665C48.6282 13.1144 48.3555 12.2381 48.3555 11.2H46.3555C46.3555 12.6153 46.7361 13.899 47.5162 15.0135L49.1547 13.8665ZM48.3555 11.2C48.3555 10.1684 48.6185 9.31134 49.1181 8.58858L47.4728 7.45142C46.7191 8.54199 46.3555 9.80494 46.3555 11.2H48.3555ZM49.1124 8.59668C49.6429 7.84517 50.3674 7.24688 51.3159 6.80731L50.475 4.99269C49.2369 5.56645 48.228 6.3815 47.4785 7.44332L49.1124 8.59668ZM51.3159 6.80731C52.2615 6.36912 53.342 6.14 54.5755 6.14V4.14C53.089 4.14 51.7161 4.41755 50.475 4.99269L51.3159 6.80731ZM54.5755 6.14C55.865 6.14 56.8946 6.40449 57.7095 6.88252L58.7215 5.15747C57.5363 4.46218 56.1392 4.14 54.5755 4.14V6.14ZM57.7095 6.88252C58.5343 7.36642 59.1684 8.05063 59.6188 8.96278L61.4121 8.07722C60.7959 6.82937 59.8967 5.84691 58.7215 5.15747L57.7095 6.88252ZM59.621 8.96721C60.0708 9.86675 60.3155 10.9735 60.3155 12.32H62.3155C62.3155 10.7331 62.0268 9.30658 61.4099 8.07279L59.621 8.96721ZM61.3155 11.32H51.5155V13.32H61.3155V11.32ZM52.5155 12.32V9.98H50.5155V12.32H52.5155ZM51.5155 10.98H58.3555V8.98H51.5155V10.98ZM57.8676 9.10706L56.5076 9.86706L57.4833 11.6129L58.8433 10.8529L57.8676 9.10706ZM57.9874 10.6128C57.9088 10.0003 57.7448 9.43114 57.4617 8.94028L55.7293 9.93972C55.8461 10.1422 55.9488 10.4397 56.0036 10.8672L57.9874 10.6128ZM57.4617 8.94028C57.1729 8.43977 56.7705 8.03987 56.2568 7.77278L55.3341 9.54722C55.4871 9.62679 55.618 9.74689 55.7293 9.93972L57.4617 8.94028ZM56.2993 7.79622C55.7956 7.50237 55.2264 7.38 54.6355 7.38V9.38C54.9512 9.38 55.1553 9.44429 55.2916 9.52378L56.2993 7.79622ZM54.6355 7.38C53.9767 7.38 53.3505 7.52885 52.8027 7.87377L53.8683 9.56623C54.0405 9.45781 54.2809 9.38 54.6355 9.38V7.38ZM52.7882 7.88303C52.2753 8.21838 51.8893 8.67992 51.6293 9.23711L53.4417 10.0829C53.555 9.84007 53.7023 9.67496 53.8827 9.55697L52.7882 7.88303ZM51.623 9.25094C51.3832 9.7857 51.2755 10.3686 51.2755 10.98H53.2755C53.2755 10.6047 53.341 10.3076 53.448 10.0691L51.623 9.25094ZM51.2755 10.98C51.2755 11.7669 51.4487 12.5034 51.8518 13.1369L53.5391 12.0631C53.3822 11.8166 53.2755 11.4731 53.2755 10.98H51.2755ZM51.8714 13.1665C52.3014 13.792 52.9214 14.2293 53.6551 14.5128L54.3759 12.6472C53.9362 12.4773 53.6762 12.2613 53.5195 12.0335L51.8714 13.1665ZM53.6551 14.5128C54.3941 14.7983 55.2666 14.92 56.2355 14.92V12.92C55.4177 12.92 54.8102 12.815 54.3759 12.6472L53.6551 14.5128ZM56.2355 14.92C57.1851 14.92 58.1105 14.803 59.0092 14.5673L58.5018 12.6327C57.7738 12.8237 57.0192 12.92 56.2355 12.92V14.92ZM59.0199 14.5644C59.9281 14.3154 60.7721 13.9612 61.5475 13.4989L60.5234 11.7811C59.9121 12.1455 59.2362 12.4313 58.491 12.6356L59.0199 14.5644ZM60.0355 12.64V15.52H62.0355V12.64H60.0355ZM60.4603 14.702C59.7045 15.2334 58.8324 15.6482 57.8346 15.9403L58.3964 17.8597C59.5852 17.5118 60.6598 17.0066 61.6106 16.338L60.4603 14.702ZM57.8423 15.938C56.8499 16.2198 55.8484 16.36 54.8355 16.36V18.36C56.0359 18.36 57.2211 18.1935 58.3886 17.862L57.8423 15.938ZM62.1778 5.5V4.5H60.965L61.1961 5.69061L62.1778 5.5ZM67.2578 5.5L68.2447 5.33887L68.1078 4.5H67.2578V5.5ZM68.0578 10.4H69.0578V10.3189L69.0447 10.2389L68.0578 10.4ZM68.0578 17V18H69.0578V17H68.0578ZM62.9778 17H61.9778V18H62.9778V17ZM62.9778 9.62H63.9778V9.52381L63.9595 9.42939L62.9778 9.62ZM74.8978 5.82L74.3985 6.6865L74.4097 6.69276L74.8978 5.82ZM76.6978 7.7L75.8063 8.15305L75.8108 8.16186L75.8155 8.17059L76.6978 7.7ZM77.3378 17V18H78.3378V17H77.3378ZM72.2578 17H71.2578V18H72.2578V17ZM71.7178 9.76L71.0107 10.4671L71.0174 10.4738L71.0242 10.4803L71.7178 9.76ZM69.0578 9.52L69.5341 10.3994L69.5464 10.3925L69.0578 9.52ZM68.3178 10.3L69.205 10.7614L69.2087 10.7543L69.2122 10.7472L68.3178 10.3ZM68.0578 11.52L67.6059 12.412L69.0578 13.1477V11.52H68.0578ZM66.5578 10.76L65.5687 10.6127L65.4625 11.3261L66.1059 11.652L66.5578 10.76ZM67.6378 7.64L68.4781 8.18214L68.482 8.17601L67.6378 7.64ZM69.5778 5.76L70.0556 6.63848L69.5778 5.76ZM62.1778 6.5H67.2578V4.5H62.1778V6.5ZM66.2709 5.66113L67.0709 10.5611L69.0447 10.2389L68.2447 5.33887L66.2709 5.66113ZM67.0578 10.4V17H69.0578V10.4H67.0578ZM68.0578 16H62.9778V18H68.0578V16ZM63.9778 17V9.62H61.9778V17H63.9778ZM63.9595 9.42939L63.1595 5.30938L61.1961 5.69061L61.9961 9.81061L63.9595 9.42939ZM72.0378 6.14C73.0232 6.14 73.7954 6.33887 74.3985 6.68643L75.3971 4.95357C74.4269 4.39446 73.2925 4.14 72.0378 4.14V6.14ZM74.4097 6.69276C75.021 7.0347 75.4817 7.51422 75.8063 8.15305L77.5893 7.24695C77.0873 6.25911 76.348 5.4853 75.386 4.94724L74.4097 6.69276ZM75.8155 8.17059C76.1514 8.80047 76.3378 9.57286 76.3378 10.52H78.3378C78.3378 9.30714 78.0976 8.19953 77.5802 7.22941L75.8155 8.17059ZM76.3378 10.52V17H78.3378V10.52H76.3378ZM77.3378 16H72.2578V18H77.3378V16ZM73.2578 17V11.24H71.2578V17H73.2578ZM73.2578 11.24C73.2578 10.4086 73.0184 9.62414 72.4115 9.03968L71.0242 10.4803C71.1372 10.5892 71.2578 10.7914 71.2578 11.24H73.2578ZM72.4249 9.05289C71.8385 8.46647 71.0587 8.24 70.2378 8.24V10.24C70.6969 10.24 70.9038 10.3602 71.0107 10.4671L72.4249 9.05289ZM70.2378 8.24C69.6454 8.24 69.0774 8.36288 68.5692 8.64749L69.5464 10.3925C69.7048 10.3038 69.9236 10.24 70.2378 10.24V8.24ZM68.5815 8.64071C68.0691 8.91826 67.6822 9.33521 67.4234 9.85279L69.2122 10.7472C69.3001 10.5715 69.4065 10.4684 69.5341 10.3993L68.5815 8.64071ZM67.4306 9.83865C67.1655 10.3485 67.0578 10.9228 67.0578 11.52H69.0578C69.0578 11.1572 69.1235 10.9181 69.205 10.7614L67.4306 9.83865ZM68.5098 10.628L67.0098 9.86796L66.1059 11.652L67.6059 12.412L68.5098 10.628ZM67.5469 10.9073C67.7184 9.75572 68.0407 8.8601 68.4781 8.18213L66.7975 7.09787C66.1683 8.07324 65.7705 9.25762 65.5687 10.6127L67.5469 10.9073ZM68.482 8.17601C68.9381 7.45768 69.466 6.95916 70.0556 6.63848L69.1 4.88152C68.1697 5.38751 67.4042 6.14232 66.7936 7.10399L68.482 8.17601ZM70.0556 6.63848C70.6664 6.30631 71.3217 6.14 72.0378 6.14V4.14C70.9939 4.14 70.0093 4.38702 69.1 4.88152L70.0556 6.63848ZM92.4841 15.48L93.2064 16.1716L93.2136 16.1639L92.4841 15.48ZM89.9641 16.9L90.2404 17.8611L90.2482 17.8588L89.9641 16.9ZM82.2841 16.84L81.9781 17.792L81.9848 17.7942L81.9916 17.7963L82.2841 16.84ZM79.6241 15.34L78.9169 16.0471L78.9243 16.0544L79.6241 15.34ZM78.6041 13.1V12.1H77.5561L77.6052 13.1468L78.6041 13.1ZM83.7641 13.1L84.7024 12.7543L84.4613 12.1H83.7641V13.1ZM84.2441 13.74L83.6366 14.5344L83.6518 14.546L83.6674 14.557L84.2441 13.74ZM85.1241 14.12L84.8731 15.088L84.8937 15.0933L84.9145 15.0978L85.1241 14.12ZM87.9441 14.06L88.2828 15.0009L88.2992 14.995L88.3155 14.9885L87.9441 14.06ZM88.0241 13.04L88.3403 12.0913L88.0241 13.04ZM86.6641 12.84L86.6004 13.838L86.6641 12.84ZM84.7841 12.72L84.72 13.7179L84.7204 13.718L84.7841 12.72ZM81.3041 12.16L80.979 13.1057L80.9878 13.1087L80.9966 13.1116L81.3041 12.16ZM79.4641 10.98L80.2615 10.3766V10.3766L79.4641 10.98ZM79.7641 6.92L79.049 6.22084L79.0411 6.22914L79.7641 6.92ZM82.2041 5.58L82.4755 6.54245L82.2041 5.58ZM89.4641 5.66L89.1514 6.60994L89.1624 6.6134L89.4641 5.66ZM92.0041 7.08L91.3122 7.80199V7.80199L92.0041 7.08ZM93.1241 9.22V10.22H94.2638L94.1156 9.08996L93.1241 9.22ZM87.9641 9.22L87.0005 9.48764L87.204 10.22H87.9641V9.22ZM87.5641 8.6L88.219 7.84431V7.84431L87.5641 8.6ZM86.7841 8.2L87.0641 7.24L86.7841 8.2ZM84.2841 8.28L84.714 9.18286L84.7312 9.17467L84.7481 9.16583L84.2841 8.28ZM84.1241 9.28L83.65 10.1605L83.6771 10.1751L83.705 10.188L84.1241 9.28ZM85.1441 9.44L85.2074 8.44195L85.1966 8.44138L85.1441 9.44ZM87.6641 9.6L87.6007 10.598L87.6086 10.5985L87.6641 9.6ZM91.0641 10.16L90.7297 11.1024L90.7387 11.1056L90.7478 11.1087L91.0641 10.16ZM92.8441 11.3L92.0334 11.8855L92.0387 11.8928L92.0441 11.9L92.8441 11.3ZM92.3841 13.08C92.3841 13.812 92.1637 14.3596 91.7545 14.7961L93.2136 16.1639C94.0044 15.3204 94.3841 14.268 94.3841 13.08H92.3841ZM91.7618 14.7884C91.3128 15.2573 90.6417 15.6563 89.68 15.9412L90.2482 17.8588C91.4465 17.5037 92.4553 16.956 93.2064 16.1716L91.7618 14.7884ZM89.6878 15.9389C88.733 16.2134 87.5767 16.36 86.2041 16.36V18.36C87.7114 18.36 89.0618 18.1999 90.2404 17.8611L89.6878 15.9389ZM86.2041 16.36C84.7997 16.36 83.595 16.1952 82.5766 15.8837L81.9916 17.7963C83.2398 18.1781 84.6485 18.36 86.2041 18.36V16.36ZM82.5901 15.888C81.577 15.5623 80.839 15.1303 80.3238 14.6256L78.9243 16.0544C79.7158 16.8297 80.7511 17.3977 81.9781 17.792L82.5901 15.888ZM80.3312 14.6329C79.8558 14.1575 79.6306 13.642 79.603 13.0532L77.6052 13.1468C77.6576 14.2646 78.1123 15.2425 78.917 16.0471L80.3312 14.6329ZM78.6041 14.1H83.7641V12.1H78.6041V14.1ZM82.8257 13.4457C82.9884 13.8872 83.2683 14.2527 83.6366 14.5344L84.8515 12.9456C84.7665 12.8806 84.7264 12.8194 84.7024 12.7543L82.8257 13.4457ZM83.6674 14.557C84.0199 14.8058 84.4336 14.9741 84.8731 15.088L85.375 13.152C85.0945 13.0793 84.9216 12.9942 84.8207 12.923L83.6674 14.557ZM84.9145 15.0978C85.3778 15.1971 85.9058 15.24 86.4841 15.24V13.24C85.9957 13.24 85.617 13.2029 85.3336 13.1422L84.9145 15.0978ZM86.4841 15.24C87.162 15.24 87.7862 15.1797 88.2828 15.0009L87.6053 13.1191C87.4353 13.1803 87.0861 13.24 86.4841 13.24V15.24ZM88.3155 14.9885C88.777 14.8039 89.4441 14.3717 89.4441 13.52H87.4441C87.4441 13.4508 87.4575 13.3753 87.4875 13.302C87.517 13.23 87.5551 13.1782 87.5853 13.1456C87.6384 13.0882 87.6604 13.0964 87.5727 13.1315L88.3155 14.9885ZM89.4441 13.52C89.4441 13.1819 89.3322 12.8465 89.0916 12.5715C88.8677 12.3156 88.5865 12.1734 88.3403 12.0913L87.7078 13.9887C87.7417 14 87.6704 13.9844 87.5865 13.8885C87.5425 13.8383 87.5038 13.7753 87.4775 13.7029C87.4517 13.6315 87.4441 13.5676 87.4441 13.52H89.4441ZM88.3403 12.0913C87.9297 11.9545 87.3664 11.8828 86.7278 11.842L86.6004 13.838C87.2151 13.8772 87.5584 13.9389 87.7078 13.9887L88.3403 12.0913ZM86.7278 11.842L84.8478 11.722L84.7204 13.718L86.6004 13.838L86.7278 11.842ZM84.8482 11.7221C83.4345 11.6313 82.3668 11.4524 81.6115 11.2084L80.9966 13.1116C81.9747 13.4276 83.2269 13.6221 84.72 13.7179L84.8482 11.7221ZM81.6291 11.2143C80.882 10.9575 80.4716 10.6542 80.2615 10.3766L78.6667 11.5834C79.2032 12.2925 80.0195 12.7759 80.979 13.1057L81.6291 11.2143ZM80.2615 10.3766C80.0353 10.0777 79.9041 9.70312 79.9041 9.2H77.9041C77.9041 10.0835 78.1461 10.8956 78.6667 11.5834L80.2615 10.3766ZM79.9041 9.2C79.9041 8.50693 80.1115 8.00391 80.4871 7.61086L79.0411 6.22914C78.27 7.03609 77.9041 8.05307 77.9041 9.2H79.9041ZM80.4791 7.61912C80.9131 7.1752 81.5565 6.80166 82.4755 6.54245L81.9326 4.61755C80.7716 4.945 79.7883 5.4648 79.0491 6.22088L80.4791 7.61912ZM82.4755 6.54245C83.4063 6.27991 84.5247 6.14 85.8441 6.14V4.14C84.3901 4.14 83.0818 4.29342 81.9326 4.61755L82.4755 6.54245ZM85.8441 6.14C87.121 6.14 88.2188 6.30295 89.1514 6.60988L89.7767 4.71012C88.6026 4.32372 87.2871 4.14 85.8441 4.14V6.14ZM89.1624 6.6134C90.1048 6.91163 90.8066 7.31752 91.3122 7.80199L92.696 6.35801C91.9215 5.61581 90.93 5.07503 89.7658 4.7066L89.1624 6.6134ZM91.3122 7.80199C91.802 8.27143 92.0579 8.78109 92.1326 9.35003L94.1156 9.08996C93.9769 8.03224 93.4861 7.11524 92.696 6.35801L91.3122 7.80199ZM93.1241 8.22H87.9641V10.22H93.1241V8.22ZM88.9276 8.95236C88.8049 8.51079 88.5578 8.13798 88.219 7.84431L86.9091 9.35569C86.9703 9.40869 86.9899 9.44921 87.0005 9.48764L88.9276 8.95236ZM88.219 7.84431C87.8858 7.55554 87.4875 7.36351 87.0641 7.24L86.5041 9.16C86.7206 9.22315 86.8423 9.2978 86.9091 9.35569L88.219 7.84431ZM87.0641 7.24C86.6271 7.11254 86.1406 7.06 85.6241 7.06V9.06C86.0142 9.06 86.301 9.10079 86.5041 9.16L87.0641 7.24ZM85.6241 7.06C84.974 7.06 84.3234 7.13051 83.8201 7.39417L84.7481 9.16583C84.8047 9.13616 85.0474 9.06 85.6241 9.06V7.06ZM83.8541 7.37714C83.3758 7.60493 82.8641 8.06551 82.8641 8.82H84.8641C84.8641 8.86808 84.8563 8.9248 84.8359 8.98426C84.8154 9.04365 84.7869 9.09233 84.7584 9.12894C84.7047 9.19802 84.6666 9.20544 84.714 9.18286L83.8541 7.37714ZM82.8641 8.82C82.8641 9.06282 82.9141 9.33156 83.0585 9.58706C83.2054 9.84687 83.4173 10.0352 83.65 10.1605L84.5982 8.39953C84.6575 8.43147 84.7394 8.49647 84.7996 8.60294C84.8574 8.7051 84.8641 8.79052 84.8641 8.82H82.8641ZM83.705 10.188C83.9173 10.286 84.1534 10.3364 84.3541 10.3679C84.5698 10.4018 84.8183 10.4242 85.0915 10.4386L85.1966 8.44138C84.9632 8.42909 84.7883 8.41158 84.664 8.39208C84.5247 8.37023 84.5041 8.35404 84.5431 8.37204L83.705 10.188ZM85.0807 10.438L87.6007 10.598L87.7274 8.60201L85.2074 8.44201L85.0807 10.438ZM87.6086 10.5985C89.0062 10.6761 90.0318 10.8548 90.7297 11.1024L91.3985 9.21757C90.443 8.87852 89.2019 8.68389 87.7195 8.60154L87.6086 10.5985ZM90.7478 11.1087C91.4823 11.3535 91.8566 11.6407 92.0334 11.8855L93.6547 10.7145C93.1382 9.9993 92.3258 9.52649 91.3803 9.21132L90.7478 11.1087ZM92.0441 11.9C92.2522 12.1776 92.3841 12.5499 92.3841 13.08H94.3841C94.3841 12.1968 94.1559 11.3824 93.6441 10.7L92.0441 11.9Z" fill="black" mask="url(#path-1-outside-1_31979_1739)"/>
</g>
<defs>
<filter id="filter0_d_31979_1739" x="0.513763" y="0.599976" width="93.8703" height="19.76" filterUnits="userSpaceOnUse" color-interpolation-filters="sRGB">
<feFlood flood-opacity="0" result="BackgroundImageFix"/>
<feColorMatrix in="SourceAlpha" type="matrix" values="0 0 0 0 0 0 0 0 0 0 0 0 0 0 0 0 0 0 127 0" result="hardAlpha"/>
<feOffset dy="2"/>
<feComposite in2="hardAlpha" operator="out"/>
<feColorMatrix type="matrix" values="0 0 0 0 0 0 0 0 0 0 0 0 0 0 0 0 0 0 0.5 0"/>
<feBlend mode="normal" in2="BackgroundImageFix" result="effect1_dropShadow_31979_1739"/>
<feBlend mode="normal" in="SourceGraphic" in2="effect1_dropShadow_31979_1739" result="shape"/>
</filter>
</defs>
</svg>
