<svg width="85" height="21" viewBox="0 0 85 21" fill="none" xmlns="http://www.w3.org/2000/svg">
<g filter="url(#filter0_d_34787_1727)">
<mask id="path-1-outside-1_34787_1727" maskUnits="userSpaceOnUse" x="0" y="0" width="85" height="19" fill="black">
<rect fill="white" width="85" height="19"/>
<path d="M19.5435 10.5C19.3835 11.8733 18.9102 13.0733 18.1235 14.1C17.3502 15.1267 16.3235 15.9267 15.0435 16.5C13.7635 17.0733 12.2968 17.36 10.6435 17.36C8.85685 17.36 7.29685 17.0333 5.96352 16.38C4.63018 15.7267 3.59018 14.8133 2.84352 13.64C2.11018 12.4533 1.74352 11.0733 1.74352 9.5C1.74352 7.92667 2.11018 6.55333 2.84352 5.38C3.59018 4.19333 4.63018 3.27333 5.96352 2.62C7.29685 1.96667 8.85685 1.64 10.6435 1.64C12.2968 1.64 13.7635 1.92667 15.0435 2.5C16.3235 3.07333 17.3502 3.87333 18.1235 4.9C18.9102 5.92667 19.3835 7.12667 19.5435 8.5H14.3635C14.2435 7.98 14.0235 7.54 13.7035 7.18C13.3835 6.80667 12.9635 6.52667 12.4435 6.34C11.9368 6.14 11.3368 6.04 10.6435 6.04C9.87018 6.04 9.20352 6.18 8.64352 6.46C8.09685 6.72667 7.67685 7.12 7.38352 7.64C7.09018 8.16 6.94352 8.78 6.94352 9.5C6.94352 10.22 7.09018 10.84 7.38352 11.36C7.67685 11.8667 8.09685 12.26 8.64352 12.54C9.20352 12.82 9.87018 12.96 10.6435 12.96C11.3368 12.96 11.9368 12.8733 12.4435 12.7C12.9635 12.5133 13.3835 12.24 13.7035 11.88C14.0235 11.5067 14.2435 11.0467 14.3635 10.5H19.5435ZM28.0902 17.36C26.5702 17.36 25.2369 17.1067 24.0902 16.6C22.9569 16.0933 22.0702 15.38 21.4302 14.46C20.8036 13.54 20.4902 12.4733 20.4902 11.26C20.4902 10.0333 20.8036 8.96 21.4302 8.04C22.0702 7.12 22.9569 6.40667 24.0902 5.9C25.2369 5.39333 26.5702 5.14 28.0902 5.14C29.6102 5.14 30.9369 5.39333 32.0702 5.9C33.2169 6.40667 34.1036 7.12 34.7302 8.04C35.3702 8.96 35.6902 10.0333 35.6902 11.26C35.6902 12.4733 35.3702 13.54 34.7302 14.46C34.1036 15.38 33.2169 16.0933 32.0702 16.6C30.9369 17.1067 29.6102 17.36 28.0902 17.36ZM28.0902 13.66C28.6236 13.66 29.0702 13.5667 29.4302 13.38C29.8036 13.1933 30.0836 12.92 30.2702 12.56C30.4702 12.2 30.5702 11.7667 30.5702 11.26C30.5702 10.74 30.4702 10.3 30.2702 9.94C30.0836 9.58 29.8036 9.30667 29.4302 9.12C29.0702 8.93333 28.6236 8.84 28.0902 8.84C27.5702 8.84 27.1236 8.93333 26.7502 9.12C26.3769 9.30667 26.0902 9.58 25.8902 9.94C25.7036 10.3 25.6102 10.74 25.6102 11.26C25.6102 11.7667 25.7036 12.2 25.8902 12.56C26.0902 12.92 26.3769 13.1933 26.7502 13.38C27.1236 13.5667 27.5702 13.66 28.0902 13.66ZM47.3816 17L46.8016 12.72L47.5816 11.3L46.8016 9.38L47.8416 1.6H53.1216L51.8416 10.84L52.6616 17H47.3816ZM48.3416 11.26C48.2083 12.4867 47.875 13.56 47.3416 14.48C46.8216 15.3867 46.135 16.0933 45.2816 16.6C44.4416 17.1067 43.475 17.36 42.3816 17.36C41.2616 17.36 40.275 17.1067 39.4216 16.6C38.5816 16.0933 37.9216 15.38 37.4416 14.46C36.975 13.54 36.7416 12.4733 36.7416 11.26C36.7416 10.0333 36.975 8.96 37.4416 8.04C37.9216 7.12 38.5816 6.40667 39.4216 5.9C40.275 5.39333 41.2616 5.14 42.3816 5.14C43.475 5.14 44.4416 5.39333 45.2816 5.9C46.135 6.39333 46.8283 7.1 47.3616 8.02C47.895 8.92667 48.2216 10.0067 48.3416 11.26ZM41.8616 11.26C41.8616 11.7 41.9483 12.0933 42.1216 12.44C42.3083 12.7733 42.5616 13.04 42.8816 13.24C43.215 13.44 43.595 13.54 44.0216 13.54C44.4616 13.54 44.8883 13.44 45.3016 13.24C45.715 13.04 46.075 12.7733 46.3816 12.44C46.7016 12.0933 46.9216 11.7 47.0416 11.26C46.9216 10.82 46.7016 10.4267 46.3816 10.08C46.075 9.73333 45.715 9.46 45.3016 9.26C44.8883 9.06 44.4616 8.96 44.0216 8.96C43.595 8.96 43.215 9.06 42.8816 9.26C42.5616 9.46 42.3083 9.73333 42.1216 10.08C41.9483 10.4267 41.8616 10.82 41.8616 11.26ZM61.1343 17.36C59.7076 17.36 58.4276 17.1067 57.2943 16.6C56.1743 16.08 55.2876 15.36 54.6343 14.44C53.981 13.5067 53.6543 12.4267 53.6543 11.2C53.6543 9.98667 53.9676 8.92667 54.5943 8.02C55.2343 7.11333 56.101 6.40667 57.1943 5.9C58.2876 5.39333 59.5143 5.14 60.8743 5.14C62.301 5.14 63.5143 5.43333 64.5143 6.02C65.5143 6.60667 66.281 7.44 66.8143 8.52C67.3476 9.58667 67.6143 10.8533 67.6143 12.32H57.8143V9.98H64.6543L63.2943 10.74C63.2276 10.22 63.0943 9.78667 62.8943 9.44C62.6943 9.09333 62.4276 8.83333 62.0943 8.66C61.7743 8.47333 61.3876 8.38 60.9343 8.38C60.4276 8.38 59.9943 8.49333 59.6343 8.72C59.2876 8.94667 59.021 9.26 58.8343 9.66C58.661 10.0467 58.5743 10.4867 58.5743 10.98C58.5743 11.62 58.7143 12.16 58.9943 12.6C59.2876 13.0267 59.7276 13.3533 60.3143 13.58C60.901 13.8067 61.641 13.92 62.5343 13.92C63.401 13.92 64.241 13.8133 65.0543 13.6C65.881 13.3733 66.641 13.0533 67.3343 12.64V15.52C66.481 16.12 65.5076 16.58 64.4143 16.9C63.3343 17.2067 62.241 17.36 61.1343 17.36ZM83.3743 13.08C83.3743 14.04 83.0743 14.84 82.4743 15.48C81.8743 16.1067 81.0343 16.58 79.9543 16.9C78.8876 17.2067 77.6343 17.36 76.1943 17.36C74.7143 17.36 73.4076 17.1867 72.2743 16.84C71.1543 16.48 70.2676 15.98 69.6143 15.34C68.9743 14.7 68.6343 13.9533 68.5943 13.1H73.7543C73.8476 13.3533 74.0076 13.5667 74.2343 13.74C74.461 13.9 74.7543 14.0267 75.1143 14.12C75.4876 14.2 75.941 14.24 76.4743 14.24C77.1143 14.24 77.601 14.18 77.9343 14.06C78.2676 13.9267 78.4343 13.7467 78.4343 13.52C78.4343 13.2933 78.2943 13.1333 78.0143 13.04C77.7343 12.9467 77.281 12.88 76.6543 12.84L74.7743 12.72C73.321 12.6267 72.161 12.44 71.2943 12.16C70.441 11.8667 69.8276 11.4733 69.4543 10.98C69.081 10.4867 68.8943 9.89333 68.8943 9.2C68.8943 8.28 69.181 7.52 69.7543 6.92C70.341 6.32 71.1543 5.87333 72.1943 5.58C73.2343 5.28667 74.4476 5.14 75.8343 5.14C77.1943 5.14 78.401 5.31333 79.4543 5.66C80.5076 5.99333 81.3543 6.46667 81.9943 7.08C82.6343 7.69333 83.0076 8.40667 83.1143 9.22H77.9543C77.8876 8.98 77.7543 8.77333 77.5543 8.6C77.3543 8.42667 77.0943 8.29333 76.7743 8.2C76.4543 8.10667 76.0676 8.06 75.6143 8.06C75.001 8.06 74.5543 8.13333 74.2743 8.28C73.9943 8.41333 73.8543 8.59333 73.8543 8.82C73.8543 9.03333 73.941 9.18667 74.1143 9.28C74.2876 9.36 74.6276 9.41333 75.1343 9.44L77.6543 9.6C79.0943 9.68 80.2276 9.86667 81.0543 10.16C81.8943 10.44 82.4876 10.82 82.8343 11.3C83.1943 11.78 83.3743 12.3733 83.3743 13.08Z"/>
</mask>
<path d="M19.5435 10.5C19.3835 11.8733 18.9102 13.0733 18.1235 14.1C17.3502 15.1267 16.3235 15.9267 15.0435 16.5C13.7635 17.0733 12.2968 17.36 10.6435 17.36C8.85685 17.36 7.29685 17.0333 5.96352 16.38C4.63018 15.7267 3.59018 14.8133 2.84352 13.64C2.11018 12.4533 1.74352 11.0733 1.74352 9.5C1.74352 7.92667 2.11018 6.55333 2.84352 5.38C3.59018 4.19333 4.63018 3.27333 5.96352 2.62C7.29685 1.96667 8.85685 1.64 10.6435 1.64C12.2968 1.64 13.7635 1.92667 15.0435 2.5C16.3235 3.07333 17.3502 3.87333 18.1235 4.9C18.9102 5.92667 19.3835 7.12667 19.5435 8.5H14.3635C14.2435 7.98 14.0235 7.54 13.7035 7.18C13.3835 6.80667 12.9635 6.52667 12.4435 6.34C11.9368 6.14 11.3368 6.04 10.6435 6.04C9.87018 6.04 9.20352 6.18 8.64352 6.46C8.09685 6.72667 7.67685 7.12 7.38352 7.64C7.09018 8.16 6.94352 8.78 6.94352 9.5C6.94352 10.22 7.09018 10.84 7.38352 11.36C7.67685 11.8667 8.09685 12.26 8.64352 12.54C9.20352 12.82 9.87018 12.96 10.6435 12.96C11.3368 12.96 11.9368 12.8733 12.4435 12.7C12.9635 12.5133 13.3835 12.24 13.7035 11.88C14.0235 11.5067 14.2435 11.0467 14.3635 10.5H19.5435ZM28.0902 17.36C26.5702 17.36 25.2369 17.1067 24.0902 16.6C22.9569 16.0933 22.0702 15.38 21.4302 14.46C20.8036 13.54 20.4902 12.4733 20.4902 11.26C20.4902 10.0333 20.8036 8.96 21.4302 8.04C22.0702 7.12 22.9569 6.40667 24.0902 5.9C25.2369 5.39333 26.5702 5.14 28.0902 5.14C29.6102 5.14 30.9369 5.39333 32.0702 5.9C33.2169 6.40667 34.1036 7.12 34.7302 8.04C35.3702 8.96 35.6902 10.0333 35.6902 11.26C35.6902 12.4733 35.3702 13.54 34.7302 14.46C34.1036 15.38 33.2169 16.0933 32.0702 16.6C30.9369 17.1067 29.6102 17.36 28.0902 17.36ZM28.0902 13.66C28.6236 13.66 29.0702 13.5667 29.4302 13.38C29.8036 13.1933 30.0836 12.92 30.2702 12.56C30.4702 12.2 30.5702 11.7667 30.5702 11.26C30.5702 10.74 30.4702 10.3 30.2702 9.94C30.0836 9.58 29.8036 9.30667 29.4302 9.12C29.0702 8.93333 28.6236 8.84 28.0902 8.84C27.5702 8.84 27.1236 8.93333 26.7502 9.12C26.3769 9.30667 26.0902 9.58 25.8902 9.94C25.7036 10.3 25.6102 10.74 25.6102 11.26C25.6102 11.7667 25.7036 12.2 25.8902 12.56C26.0902 12.92 26.3769 13.1933 26.7502 13.38C27.1236 13.5667 27.5702 13.66 28.0902 13.66ZM47.3816 17L46.8016 12.72L47.5816 11.3L46.8016 9.38L47.8416 1.6H53.1216L51.8416 10.84L52.6616 17H47.3816ZM48.3416 11.26C48.2083 12.4867 47.875 13.56 47.3416 14.48C46.8216 15.3867 46.135 16.0933 45.2816 16.6C44.4416 17.1067 43.475 17.36 42.3816 17.36C41.2616 17.36 40.275 17.1067 39.4216 16.6C38.5816 16.0933 37.9216 15.38 37.4416 14.46C36.975 13.54 36.7416 12.4733 36.7416 11.26C36.7416 10.0333 36.975 8.96 37.4416 8.04C37.9216 7.12 38.5816 6.40667 39.4216 5.9C40.275 5.39333 41.2616 5.14 42.3816 5.14C43.475 5.14 44.4416 5.39333 45.2816 5.9C46.135 6.39333 46.8283 7.1 47.3616 8.02C47.895 8.92667 48.2216 10.0067 48.3416 11.26ZM41.8616 11.26C41.8616 11.7 41.9483 12.0933 42.1216 12.44C42.3083 12.7733 42.5616 13.04 42.8816 13.24C43.215 13.44 43.595 13.54 44.0216 13.54C44.4616 13.54 44.8883 13.44 45.3016 13.24C45.715 13.04 46.075 12.7733 46.3816 12.44C46.7016 12.0933 46.9216 11.7 47.0416 11.26C46.9216 10.82 46.7016 10.4267 46.3816 10.08C46.075 9.73333 45.715 9.46 45.3016 9.26C44.8883 9.06 44.4616 8.96 44.0216 8.96C43.595 8.96 43.215 9.06 42.8816 9.26C42.5616 9.46 42.3083 9.73333 42.1216 10.08C41.9483 10.4267 41.8616 10.82 41.8616 11.26ZM61.1343 17.36C59.7076 17.36 58.4276 17.1067 57.2943 16.6C56.1743 16.08 55.2876 15.36 54.6343 14.44C53.981 13.5067 53.6543 12.4267 53.6543 11.2C53.6543 9.98667 53.9676 8.92667 54.5943 8.02C55.2343 7.11333 56.101 6.40667 57.1943 5.9C58.2876 5.39333 59.5143 5.14 60.8743 5.14C62.301 5.14 63.5143 5.43333 64.5143 6.02C65.5143 6.60667 66.281 7.44 66.8143 8.52C67.3476 9.58667 67.6143 10.8533 67.6143 12.32H57.8143V9.98H64.6543L63.2943 10.74C63.2276 10.22 63.0943 9.78667 62.8943 9.44C62.6943 9.09333 62.4276 8.83333 62.0943 8.66C61.7743 8.47333 61.3876 8.38 60.9343 8.38C60.4276 8.38 59.9943 8.49333 59.6343 8.72C59.2876 8.94667 59.021 9.26 58.8343 9.66C58.661 10.0467 58.5743 10.4867 58.5743 10.98C58.5743 11.62 58.7143 12.16 58.9943 12.6C59.2876 13.0267 59.7276 13.3533 60.3143 13.58C60.901 13.8067 61.641 13.92 62.5343 13.92C63.401 13.92 64.241 13.8133 65.0543 13.6C65.881 13.3733 66.641 13.0533 67.3343 12.64V15.52C66.481 16.12 65.5076 16.58 64.4143 16.9C63.3343 17.2067 62.241 17.36 61.1343 17.36ZM83.3743 13.08C83.3743 14.04 83.0743 14.84 82.4743 15.48C81.8743 16.1067 81.0343 16.58 79.9543 16.9C78.8876 17.2067 77.6343 17.36 76.1943 17.36C74.7143 17.36 73.4076 17.1867 72.2743 16.84C71.1543 16.48 70.2676 15.98 69.6143 15.34C68.9743 14.7 68.6343 13.9533 68.5943 13.1H73.7543C73.8476 13.3533 74.0076 13.5667 74.2343 13.74C74.461 13.9 74.7543 14.0267 75.1143 14.12C75.4876 14.2 75.941 14.24 76.4743 14.24C77.1143 14.24 77.601 14.18 77.9343 14.06C78.2676 13.9267 78.4343 13.7467 78.4343 13.52C78.4343 13.2933 78.2943 13.1333 78.0143 13.04C77.7343 12.9467 77.281 12.88 76.6543 12.84L74.7743 12.72C73.321 12.6267 72.161 12.44 71.2943 12.16C70.441 11.8667 69.8276 11.4733 69.4543 10.98C69.081 10.4867 68.8943 9.89333 68.8943 9.2C68.8943 8.28 69.181 7.52 69.7543 6.92C70.341 6.32 71.1543 5.87333 72.1943 5.58C73.2343 5.28667 74.4476 5.14 75.8343 5.14C77.1943 5.14 78.401 5.31333 79.4543 5.66C80.5076 5.99333 81.3543 6.46667 81.9943 7.08C82.6343 7.69333 83.0076 8.40667 83.1143 9.22H77.9543C77.8876 8.98 77.7543 8.77333 77.5543 8.6C77.3543 8.42667 77.0943 8.29333 76.7743 8.2C76.4543 8.10667 76.0676 8.06 75.6143 8.06C75.001 8.06 74.5543 8.13333 74.2743 8.28C73.9943 8.41333 73.8543 8.59333 73.8543 8.82C73.8543 9.03333 73.941 9.18667 74.1143 9.28C74.2876 9.36 74.6276 9.41333 75.1343 9.44L77.6543 9.6C79.0943 9.68 80.2276 9.86667 81.0543 10.16C81.8943 10.44 82.4876 10.82 82.8343 11.3C83.1943 11.78 83.3743 12.3733 83.3743 13.08Z" fill="#75759D"/>
<path d="M19.5435 10.5L20.5368 10.6157L20.6668 9.5H19.5435V10.5ZM18.1235 14.1L17.3297 13.4918L17.3248 13.4983L18.1235 14.1ZM15.0435 16.5L15.4523 17.4126L15.0435 16.5ZM5.96352 16.38L5.5235 17.278L5.96352 16.38ZM2.84352 13.64L1.99277 14.1657L1.99985 14.1769L2.84352 13.64ZM2.84352 5.38L1.99712 4.84744L1.99552 4.85L2.84352 5.38ZM5.96352 2.62L5.5235 1.72201L5.5235 1.72201L5.96352 2.62ZM18.1235 4.9L17.3247 5.50168L17.3297 5.50821L18.1235 4.9ZM19.5435 8.5V9.5H20.6668L20.5368 8.38428L19.5435 8.5ZM14.3635 8.5L13.3891 8.72486L13.568 9.5H14.3635V8.5ZM13.7035 7.18L12.9443 7.83079L12.9501 7.83763L12.9561 7.84436L13.7035 7.18ZM12.4435 6.34L12.0764 7.27015L12.0909 7.2759L12.1057 7.28119L12.4435 6.34ZM8.64352 6.46L9.08196 7.35881L9.09073 7.35443L8.64352 6.46ZM7.38352 7.64L6.51254 7.14868L6.51254 7.14868L7.38352 7.64ZM7.38352 11.36L6.51248 11.8514L6.51809 11.861L7.38352 11.36ZM8.64352 12.54L8.18762 13.4301L8.1963 13.4344L8.64352 12.54ZM12.4435 12.7L12.7672 13.6462L12.7743 13.6437L12.7814 13.6412L12.4435 12.7ZM13.7035 11.88L14.4509 12.5444L14.4569 12.5376L14.4628 12.5308L13.7035 11.88ZM14.3635 10.5V9.5H13.5592L13.3868 10.2856L14.3635 10.5ZM19.5435 10.5L18.5502 10.3843C18.4096 11.5913 17.9991 12.6182 17.3297 13.4918L18.1235 14.1L18.9173 14.7082C19.8213 13.5285 20.3574 12.1554 20.5368 10.6157L19.5435 10.5ZM18.1235 14.1L17.3248 13.4983C16.6622 14.378 15.775 15.0766 14.6347 15.5874L15.0435 16.5L15.4523 17.4126C16.8721 16.7767 18.0382 15.8753 18.9223 14.7017L18.1235 14.1ZM15.0435 16.5L14.6347 15.5874C13.5042 16.0937 12.1808 16.36 10.6435 16.36V17.36V18.36C12.4129 18.36 14.0228 18.0529 15.4523 17.4126L15.0435 16.5ZM10.6435 17.36V16.36C8.97876 16.36 7.57482 16.0559 6.40353 15.482L5.96352 16.38L5.5235 17.278C7.01888 18.0107 8.73494 18.36 10.6435 18.36V17.36ZM5.96352 16.38L6.40353 15.482C5.22377 14.9039 4.32835 14.1107 3.68718 13.1031L2.84352 13.64L1.99985 14.1769C2.85202 15.516 4.03659 16.5494 5.5235 17.278L5.96352 16.38ZM2.84352 13.64L3.69419 13.1143C3.07054 12.1051 2.74352 10.912 2.74352 9.5H1.74352H0.743516C0.743516 11.2347 1.14983 12.8015 1.99284 14.1657L2.84352 13.64ZM1.74352 9.5H2.74352C2.74352 8.08775 3.0706 6.90346 3.69151 5.91L2.84352 5.38L1.99552 4.85C1.14976 6.20321 0.743516 7.76558 0.743516 9.5H1.74352ZM2.84352 5.38L3.68991 5.91256C4.33175 4.89249 5.22668 4.09465 6.40353 3.51799L5.96352 2.62L5.5235 1.72201C4.03369 2.45202 2.84862 3.49417 1.99712 4.84744L2.84352 5.38ZM5.96352 2.62L6.40353 3.51799C7.57482 2.94406 8.97876 2.64 10.6435 2.64V1.64V0.64C8.73494 0.64 7.01888 0.989273 5.5235 1.72201L5.96352 2.62ZM10.6435 1.64V2.64C12.1808 2.64 13.5042 2.90627 14.6347 3.41263L15.0435 2.5L15.4523 1.58737C14.0228 0.947066 12.4129 0.64 10.6435 0.64V1.64ZM15.0435 2.5L14.6347 3.41263C15.775 3.92337 16.6622 4.622 17.3248 5.50166L18.1235 4.9L18.9223 4.29834C18.0382 3.12466 16.8721 2.2233 15.4523 1.58737L15.0435 2.5ZM18.1235 4.9L17.3297 5.50821C17.9991 6.38179 18.4096 7.40871 18.5502 8.61572L19.5435 8.5L20.5368 8.38428C20.3574 6.84462 19.8213 5.47154 18.9173 4.29178L18.1235 4.9ZM19.5435 8.5V7.5H14.3635V8.5V9.5H19.5435V8.5ZM14.3635 8.5L15.3379 8.27514C15.1844 7.60992 14.8938 7.01392 14.4509 6.51564L13.7035 7.18L12.9561 7.84436C13.1532 8.06608 13.3026 8.35008 13.3891 8.72486L14.3635 8.5ZM13.7035 7.18L14.4628 6.52921C14.0164 6.0085 13.4441 5.63669 12.7814 5.3988L12.4435 6.34L12.1057 7.28119C12.483 7.41664 12.7506 7.60483 12.9443 7.83079L13.7035 7.18ZM12.4435 6.34L12.8107 5.40984C12.16 5.153 11.4297 5.04 10.6435 5.04V6.04V7.04C11.244 7.04 11.7137 7.127 12.0764 7.27015L12.4435 6.34ZM10.6435 6.04V5.04C9.75074 5.04 8.92398 5.20173 8.1963 5.56557L8.64352 6.46L9.09073 7.35443C9.48305 7.15827 9.98962 7.04 10.6435 7.04V6.04ZM8.64352 6.46L8.20509 5.56123C7.47994 5.91497 6.90742 6.44867 6.51254 7.14868L7.38352 7.64L8.25449 8.13132C8.44628 7.79133 8.71376 7.53837 9.08194 7.35877L8.64352 6.46ZM7.38352 7.64L6.51254 7.14868C6.1188 7.84667 5.94352 8.64322 5.94352 9.5H6.94352H7.94352C7.94352 8.91678 8.06157 8.47333 8.25449 8.13132L7.38352 7.64ZM6.94352 9.5H5.94352C5.94352 10.3568 6.1188 11.1533 6.51254 11.8513L7.38352 11.36L8.25449 10.8687C8.06157 10.5267 7.94352 10.0832 7.94352 9.5H6.94352ZM7.38352 11.36L6.51809 11.861C6.91257 12.5424 7.47874 13.0669 8.18764 13.43L8.64352 12.54L9.09939 11.65C8.71496 11.4531 8.44112 11.1909 8.24894 10.859L7.38352 11.36ZM8.64352 12.54L8.1963 13.4344C8.92398 13.7983 9.75074 13.96 10.6435 13.96V12.96V11.96C9.98962 11.96 9.48305 11.8417 9.09073 11.6456L8.64352 12.54ZM10.6435 12.96V13.96C11.4163 13.96 12.1308 13.8639 12.7672 13.6462L12.4435 12.7L12.1198 11.7538C11.7429 11.8828 11.2574 11.96 10.6435 11.96V12.96ZM12.4435 12.7L12.7814 13.6412C13.4355 13.4064 14.0043 13.0468 14.4509 12.5444L13.7035 11.88L12.9561 11.2156C12.7627 11.4332 12.4915 11.6203 12.1057 11.7588L12.4435 12.7ZM13.7035 11.88L14.4628 12.5308C14.9042 12.0158 15.1898 11.3997 15.3403 10.7144L14.3635 10.5L13.3868 10.2856C13.2972 10.6936 13.1428 10.9976 12.9443 11.2292L13.7035 11.88ZM14.3635 10.5V11.5H19.5435V10.5V9.5H14.3635V10.5ZM24.0902 16.6L23.6821 17.5129L23.6861 17.5147L24.0902 16.6ZM21.4302 14.46L20.6037 15.023L20.6093 15.0311L21.4302 14.46ZM21.4302 8.04L20.6093 7.46891L20.6038 7.47703L21.4302 8.04ZM24.0902 5.9L23.6861 4.9853L23.6821 4.98708L24.0902 5.9ZM32.0702 5.9L31.6621 6.81293L31.6661 6.81469L32.0702 5.9ZM34.7302 8.04L33.9037 8.60299L33.9093 8.61106L34.7302 8.04ZM34.7302 14.46L33.9093 13.8889L33.9038 13.897L34.7302 14.46ZM32.0702 16.6L31.6661 15.6853L31.6621 15.6871L32.0702 16.6ZM29.4302 13.38L28.983 12.4856L28.9764 12.4889L28.9699 12.4922L29.4302 13.38ZM30.2702 12.56L29.3961 12.0744L29.3891 12.0869L29.3825 12.0997L30.2702 12.56ZM30.2702 9.94L29.3825 10.4003L29.3891 10.4131L29.3961 10.4256L30.2702 9.94ZM29.4302 9.12L28.9699 10.0078L28.9764 10.0111L28.983 10.0144L29.4302 9.12ZM26.7502 9.12L27.1974 10.0144L26.7502 9.12ZM25.8902 9.94L25.0161 9.45436L25.0091 9.46692L25.0025 9.47968L25.8902 9.94ZM25.8902 12.56L25.0025 13.0203L25.0091 13.0331L25.0161 13.0456L25.8902 12.56ZM26.7502 13.38L27.1974 12.4856L26.7502 13.38ZM28.0902 17.36V16.36C26.6805 16.36 25.4897 16.1251 24.4944 15.6853L24.0902 16.6L23.6861 17.5147C24.9841 18.0882 26.46 18.36 28.0902 18.36V17.36ZM24.0902 16.6L24.4984 15.6871C23.5127 15.2464 22.7763 14.6438 22.2511 13.8889L21.4302 14.46L20.6093 15.0311C21.3642 16.1162 22.4011 16.9402 23.6821 17.5129L24.0902 16.6ZM21.4302 14.46L22.2567 13.897C21.7533 13.158 21.4902 12.2914 21.4902 11.26H20.4902H19.4902C19.4902 12.6552 19.8538 13.922 20.6038 15.023L21.4302 14.46ZM20.4902 11.26H21.4902C21.4902 10.2128 21.7546 9.34017 22.2567 8.60296L21.4302 8.04L20.6038 7.47703C19.8526 8.57983 19.4902 9.85388 19.4902 11.26H20.4902ZM21.4302 8.04L22.2511 8.61106C22.7763 7.85619 23.5127 7.25355 24.4984 6.81292L24.0902 5.9L23.6821 4.98708C22.4011 5.55978 21.3642 6.38381 20.6093 7.46894L21.4302 8.04ZM24.0902 5.9L24.4944 6.81469C25.4897 6.3749 26.6805 6.14 28.0902 6.14V5.14V4.14C26.46 4.14 24.9841 4.41176 23.6861 4.98531L24.0902 5.9ZM28.0902 5.14V6.14C29.5004 6.14 30.6826 6.37503 31.6621 6.81292L32.0702 5.9L32.4784 4.98708C31.1912 4.41163 29.7201 4.14 28.0902 4.14V5.14ZM32.0702 5.9L31.6661 6.81469C32.664 7.25564 33.3951 7.85621 33.9038 8.60296L34.7302 8.04L35.5567 7.47703C34.812 6.38379 33.7698 5.55769 32.4744 4.98531L32.0702 5.9ZM34.7302 8.04L33.9093 8.61106C34.4217 9.34759 34.6902 10.2173 34.6902 11.26H35.6902H36.6902C36.6902 9.84938 36.3188 8.57241 35.5511 7.46894L34.7302 8.04ZM35.6902 11.26H34.6902C34.6902 12.2869 34.423 13.1505 33.9093 13.8889L34.7302 14.46L35.5511 15.0311C36.3175 13.9295 36.6902 12.6598 36.6902 11.26H35.6902ZM34.7302 14.46L33.9038 13.897C33.3951 14.6438 32.664 15.2444 31.6661 15.6853L32.0702 16.6L32.4744 17.5147C33.7698 16.9423 34.812 16.1162 35.5567 15.023L34.7302 14.46ZM32.0702 16.6L31.6621 15.6871C30.6826 16.125 29.5004 16.36 28.0902 16.36V17.36V18.36C29.7201 18.36 31.1912 18.0884 32.4784 17.5129L32.0702 16.6ZM28.0902 13.66V14.66C28.7351 14.66 29.3506 14.5477 29.8906 14.2678L29.4302 13.38L28.9699 12.4922C28.7898 12.5856 28.512 12.66 28.0902 12.66V13.66ZM29.4302 13.38L29.8774 14.2744C30.4339 13.9962 30.871 13.5737 31.158 13.0203L30.2702 12.56L29.3825 12.0997C29.2961 12.2663 29.1733 12.3905 28.983 12.4856L29.4302 13.38ZM30.2702 12.56L31.1444 13.0456C31.4439 12.5065 31.5702 11.8979 31.5702 11.26H30.5702H29.5702C29.5702 11.6355 29.4966 11.8935 29.3961 12.0744L30.2702 12.56ZM30.5702 11.26H31.5702C31.5702 10.6139 31.4459 9.99702 31.1444 9.45436L30.2702 9.94L29.3961 10.4256C29.4946 10.603 29.5702 10.8661 29.5702 11.26H30.5702ZM30.2702 9.94L31.158 9.47968C30.871 8.92626 30.4339 8.50379 29.8774 8.22557L29.4302 9.12L28.983 10.0144C29.1733 10.1095 29.2961 10.2337 29.3825 10.4003L30.2702 9.94ZM29.4302 9.12L29.8906 8.23224C29.3506 7.95229 28.7351 7.84 28.0902 7.84V8.84V9.84C28.512 9.84 28.7898 9.91437 28.9699 10.0078L29.4302 9.12ZM28.0902 8.84V7.84C27.4523 7.84 26.8451 7.95452 26.303 8.22557L26.7502 9.12L27.1974 10.0144C27.402 9.91215 27.6882 9.84 28.0902 9.84V8.84ZM26.7502 9.12L26.303 8.22557C25.752 8.50106 25.3154 8.91566 25.0161 9.45436L25.8902 9.94L26.7644 10.4256C26.8651 10.2443 27.0018 10.1123 27.1974 10.0144L26.7502 9.12ZM25.8902 9.94L25.0025 9.47968C24.7242 10.0164 24.6102 10.6237 24.6102 11.26H25.6102H26.6102C26.6102 10.8563 26.6829 10.5836 26.778 10.4003L25.8902 9.94ZM25.6102 11.26H24.6102C24.6102 11.8877 24.7259 12.487 25.0025 13.0203L25.8902 12.56L26.778 12.0997C26.6812 11.913 26.6102 11.6456 26.6102 11.26H25.6102ZM25.8902 12.56L25.0161 13.0456C25.3154 13.5843 25.752 13.9989 26.303 14.2744L26.7502 13.38L27.1974 12.4856C27.0018 12.3877 26.8651 12.2557 26.7644 12.0744L25.8902 12.56ZM26.7502 13.38L26.303 14.2744C26.8451 14.5455 27.4523 14.66 28.0902 14.66V13.66V12.66C27.6882 12.66 27.402 12.5879 27.1974 12.4856L26.7502 13.38ZM47.3816 17L46.3907 17.1343L46.508 18H47.3816V17ZM46.8016 12.72L45.9252 12.2386L45.7664 12.5275L45.8107 12.8543L46.8016 12.72ZM47.5816 11.3L48.4581 11.7814L48.6872 11.3644L48.5081 10.9236L47.5816 11.3ZM46.8016 9.38L45.8105 9.2475L45.7753 9.51053L45.8752 9.75638L46.8016 9.38ZM47.8416 1.6V0.599999H46.9664L46.8505 1.4675L47.8416 1.6ZM53.1216 1.6L54.1122 1.73722L54.2697 0.599999H53.1216V1.6ZM51.8416 10.84L50.8511 10.7028L50.8325 10.8373L50.8504 10.972L51.8416 10.84ZM52.6616 17V18H53.8036L53.6529 16.868L52.6616 17ZM48.3416 11.26L49.3358 11.3681L49.3468 11.2664L49.3371 11.1647L48.3416 11.26ZM47.3416 14.48L46.4765 13.9785L46.4742 13.9825L47.3416 14.48ZM45.2816 16.6L44.7711 15.7401L44.7651 15.7437L45.2816 16.6ZM39.4216 16.6L38.9051 17.4563L38.9111 17.4599L39.4216 16.6ZM37.4416 14.46L36.5498 14.9124L36.5551 14.9226L37.4416 14.46ZM37.4416 8.04L36.555 7.5774L36.5498 7.58762L37.4416 8.04ZM39.4216 5.9L38.9111 5.04012L38.9051 5.04371L39.4216 5.9ZM45.2816 5.9L44.7651 6.75629L44.7731 6.76109L44.7811 6.76573L45.2816 5.9ZM47.3616 8.02L46.4965 8.52154L46.4997 8.52702L47.3616 8.02ZM42.1216 12.44L41.2272 12.8872L41.2377 12.9082L41.2491 12.9286L42.1216 12.44ZM42.8816 13.24L42.3516 14.088L42.3594 14.0928L42.3671 14.0975L42.8816 13.24ZM45.3016 13.24L45.7372 14.1402V14.1402L45.3016 13.24ZM46.3816 12.44L45.6468 11.7617L45.6457 11.7629L46.3816 12.44ZM47.0416 11.26L48.0064 11.5231L48.0782 11.26L48.0064 10.9969L47.0416 11.26ZM46.3816 10.08L45.6326 10.7426L45.6397 10.7505L45.6468 10.7583L46.3816 10.08ZM45.3016 9.26L45.7372 8.35984L45.3016 9.26ZM42.8816 9.26L42.3671 8.40251L42.3594 8.40718L42.3516 8.412L42.8816 9.26ZM42.1216 10.08L41.2412 9.6059L41.234 9.61924L41.2272 9.63279L42.1216 10.08ZM47.3816 17L48.3726 16.8657L47.7926 12.5857L46.8016 12.72L45.8107 12.8543L46.3907 17.1343L47.3816 17ZM46.8016 12.72L47.6781 13.2014L48.4581 11.7814L47.5816 11.3L46.7052 10.8186L45.9252 12.2386L46.8016 12.72ZM47.5816 11.3L48.5081 10.9236L47.7281 9.00362L46.8016 9.38L45.8752 9.75638L46.6552 11.6764L47.5816 11.3ZM46.8016 9.38L47.7928 9.5125L48.8328 1.7325L47.8416 1.6L46.8505 1.4675L45.8105 9.2475L46.8016 9.38ZM47.8416 1.6V2.6H53.1216V1.6V0.599999H47.8416V1.6ZM53.1216 1.6L52.1311 1.46278L50.8511 10.7028L51.8416 10.84L52.8322 10.9772L54.1122 1.73722L53.1216 1.6ZM51.8416 10.84L50.8504 10.972L51.6704 17.132L52.6616 17L53.6529 16.868L52.8329 10.708L51.8416 10.84ZM52.6616 17V16H47.3816V17V18H52.6616V17ZM48.3416 11.26L47.3475 11.1519C47.2268 12.262 46.9295 13.197 46.4765 13.9785L47.3416 14.48L48.2068 14.9815C48.8204 13.923 49.1898 12.7114 49.3358 11.3681L48.3416 11.26ZM47.3416 14.48L46.4742 13.9825C46.0352 14.7479 45.4683 15.3262 44.7711 15.7401L45.2816 16.6L45.7922 17.4599C46.8017 16.8605 47.6081 16.0254 48.2091 14.9775L47.3416 14.48ZM45.2816 16.6L44.7651 15.7437C44.0984 16.1459 43.3144 16.36 42.3816 16.36V17.36V18.36C43.6356 18.36 44.7849 18.0675 45.7981 17.4563L45.2816 16.6ZM42.3816 17.36V16.36C41.4177 16.36 40.6119 16.1437 39.9322 15.7401L39.4216 16.6L38.9111 17.4599C39.938 18.0696 41.1056 18.36 42.3816 18.36V17.36ZM39.4216 16.6L39.9381 15.7437C39.2645 15.3374 38.7285 14.7645 38.3282 13.9974L37.4416 14.46L36.5551 14.9226C37.1148 15.9955 37.8988 16.8493 38.9051 17.4563L39.4216 16.6ZM37.4416 14.46L38.3335 14.0076C37.9494 13.2505 37.7416 12.3437 37.7416 11.26H36.7416H35.7416C35.7416 12.6029 36.0005 13.8295 36.5498 14.9124L37.4416 14.46ZM36.7416 11.26H37.7416C37.7416 10.161 37.9502 9.24802 38.3335 8.49238L37.4416 8.04L36.5498 7.58762C35.9998 8.67198 35.7416 9.90567 35.7416 11.26H36.7416ZM37.4416 8.04L38.3282 8.50257C38.7285 7.73547 39.2645 7.1626 39.9381 6.75629L39.4216 5.9L38.9051 5.04371C37.8988 5.65073 37.1148 6.50453 36.5551 7.57743L37.4416 8.04ZM39.4216 5.9L39.9322 6.75985C40.6119 6.35627 41.4177 6.14 42.3816 6.14V5.14V4.14C41.1056 4.14 39.938 4.4304 38.9111 5.04015L39.4216 5.9ZM42.3816 5.14V6.14C43.3144 6.14 44.0984 6.35412 44.7651 6.75629L45.2816 5.9L45.7981 5.04371C44.7849 4.43254 43.6356 4.14 42.3816 4.14V5.14ZM45.2816 5.9L44.7811 6.76573C45.4713 7.16476 46.0437 7.7404 46.4965 8.52153L47.3616 8.02L48.2268 7.51847C47.6129 6.4596 46.7986 5.62191 45.7821 5.03427L45.2816 5.9ZM47.3616 8.02L46.4997 8.52702C46.9459 9.2855 47.2374 10.2191 47.3462 11.3553L48.3416 11.26L49.3371 11.1647C49.2059 9.79424 48.8441 8.56783 48.2236 7.51298L47.3616 8.02ZM41.8616 11.26H40.8616C40.8616 11.8341 40.9756 12.384 41.2272 12.8872L42.1216 12.44L43.0161 11.9928C42.921 11.8027 42.8616 11.5659 42.8616 11.26H41.8616ZM42.1216 12.44L41.2491 12.9286C41.5169 13.4067 41.8872 13.7977 42.3516 14.088L42.8816 13.24L43.4116 12.392C43.236 12.2823 43.0997 12.1399 42.9941 11.9514L42.1216 12.44ZM42.8816 13.24L42.3671 14.0975C42.8708 14.3997 43.432 14.54 44.0216 14.54V13.54V12.54C43.758 12.54 43.5591 12.4803 43.3961 12.3825L42.8816 13.24ZM44.0216 13.54V14.54C44.6191 14.54 45.1942 14.4029 45.7372 14.1402L45.3016 13.24L44.8661 12.3398C44.5825 12.4771 44.3042 12.54 44.0216 12.54V13.54ZM45.3016 13.24L45.7372 14.1402C46.2622 13.8861 46.7245 13.5443 47.1176 13.1171L46.3816 12.44L45.6457 11.7629C45.4254 12.0024 45.1677 12.1939 44.8661 12.3398L45.3016 13.24ZM46.3816 12.44L47.1164 13.1183C47.5414 12.6579 47.8427 12.1234 48.0064 11.5231L47.0416 11.26L46.0769 10.9969C46.0006 11.2766 45.8619 11.5288 45.6468 11.7617L46.3816 12.44ZM47.0416 11.26L48.0064 10.9969C47.8427 10.3966 47.5414 9.86211 47.1164 9.40172L46.3816 10.08L45.6468 10.7583C45.8619 10.9912 46.0006 11.2434 46.0769 11.5231L47.0416 11.26ZM46.3816 10.08L47.1306 9.41743C46.737 8.97241 46.2707 8.61798 45.7372 8.35984L45.3016 9.26L44.8661 10.1602C45.1593 10.302 45.413 10.4943 45.6326 10.7426L46.3816 10.08ZM45.3016 9.26L45.7372 8.35984C45.1942 8.09708 44.6191 7.96 44.0216 7.96V8.96V9.96C44.3042 9.96 44.5825 10.0229 44.8661 10.1602L45.3016 9.26ZM44.0216 8.96V7.96C43.432 7.96 42.8708 8.1003 42.3671 8.40251L42.8816 9.26L43.3961 10.1175C43.5591 10.0197 43.758 9.96 44.0216 9.96V8.96ZM42.8816 9.26L42.3516 8.412C41.8778 8.70815 41.5065 9.11318 41.2412 9.6059L42.1216 10.08L43.0021 10.5541C43.1101 10.3535 43.2455 10.2119 43.4116 10.108L42.8816 9.26ZM42.1216 10.08L41.2272 9.63279C40.9756 10.136 40.8616 10.6859 40.8616 11.26H41.8616H42.8616C42.8616 10.9541 42.921 10.7173 43.0161 10.5272L42.1216 10.08ZM57.2943 16.6L56.8732 17.507L56.8797 17.51L56.8862 17.5129L57.2943 16.6ZM54.6343 14.44L53.815 15.0135L53.819 15.019L54.6343 14.44ZM54.5943 8.02L53.7773 7.44329L53.7717 7.45142L54.5943 8.02ZM57.1943 5.9L57.6148 6.80731V6.80731L57.1943 5.9ZM66.8143 8.52L65.9177 8.96279L65.9199 8.96721L66.8143 8.52ZM67.6143 12.32V13.32H68.6143V12.32H67.6143ZM57.8143 12.32H56.8143V13.32H57.8143V12.32ZM57.8143 9.98V8.98H56.8143V9.98H57.8143ZM64.6543 9.98L65.1421 10.8529L68.4937 8.98H64.6543V9.98ZM63.2943 10.74L62.3024 10.8672L62.4906 12.3347L63.7821 11.6129L63.2943 10.74ZM62.8943 9.44L62.0281 9.93972L62.8943 9.44ZM62.0943 8.66L61.5904 9.52378L61.6114 9.53601L61.6329 9.54722L62.0943 8.66ZM59.6343 8.72L59.1015 7.87377L59.0942 7.87834L59.087 7.88303L59.6343 8.72ZM58.8343 9.66L57.9281 9.23711L57.9249 9.24401L57.9218 9.25094L58.8343 9.66ZM58.9943 12.6L58.1506 13.1369L58.1602 13.1519L58.1703 13.1665L58.9943 12.6ZM60.3143 13.58L59.9539 14.5128L60.3143 13.58ZM65.0543 13.6L65.308 14.5673L65.3187 14.5644L65.0543 13.6ZM67.3343 12.64H68.3343V10.8796L66.8222 11.7811L67.3343 12.64ZM67.3343 15.52L67.9095 16.338L68.3343 16.0393V15.52H67.3343ZM64.4143 16.9L64.6875 17.862L64.6952 17.8597L64.4143 16.9ZM61.1343 17.36V16.36C59.8274 16.36 58.6896 16.1284 57.7024 15.6871L57.2943 16.6L56.8862 17.5129C58.1657 18.0849 59.5879 18.36 61.1343 18.36V17.36ZM57.2943 16.6L57.7154 15.693C56.7378 15.2391 55.993 14.6261 55.4496 13.861L54.6343 14.44L53.819 15.019C54.5823 16.0939 55.6108 16.9209 56.8732 17.507L57.2943 16.6ZM54.6343 14.44L55.4535 13.8665C54.927 13.1144 54.6543 12.2381 54.6543 11.2H53.6543H52.6543C52.6543 12.6153 53.0349 13.899 53.8151 15.0135L54.6343 14.44ZM53.6543 11.2H54.6543C54.6543 10.1684 54.9174 9.31134 55.4169 8.58858L54.5943 8.02L53.7717 7.45142C53.0179 8.54199 52.6543 9.80494 52.6543 11.2H53.6543ZM54.5943 8.02L55.4113 8.59668C55.9417 7.84517 56.6662 7.24688 57.6148 6.80731L57.1943 5.9L56.7738 4.99269C55.5357 5.56645 54.5268 6.3815 53.7773 7.44332L54.5943 8.02ZM57.1943 5.9L57.6148 6.80731C58.5603 6.36912 59.6408 6.14 60.8743 6.14V5.14V4.14C59.3878 4.14 58.0149 4.41755 56.7738 4.99269L57.1943 5.9ZM60.8743 5.14V6.14C62.1639 6.14 63.1934 6.40449 64.0083 6.88252L64.5143 6.02L65.0203 5.15747C63.8352 4.46218 62.4381 4.14 60.8743 4.14V5.14ZM64.5143 6.02L64.0083 6.88252C64.8331 7.36642 65.4672 8.05063 65.9177 8.96278L66.8143 8.52L67.7109 8.07722C67.0947 6.82937 66.1955 5.84691 65.0203 5.15747L64.5143 6.02ZM66.8143 8.52L65.9199 8.96721C66.3696 9.86675 66.6143 10.9735 66.6143 12.32H67.6143H68.6143C68.6143 10.7331 68.3256 9.30658 67.7087 8.07279L66.8143 8.52ZM67.6143 12.32V11.32H57.8143V12.32V13.32H67.6143V12.32ZM57.8143 12.32H58.8143V9.98H57.8143H56.8143V12.32H57.8143ZM57.8143 9.98V10.98H64.6543V9.98V8.98H57.8143V9.98ZM64.6543 9.98L64.1665 9.10706L62.8065 9.86706L63.2943 10.74L63.7821 11.6129L65.1421 10.8529L64.6543 9.98ZM63.2943 10.74L64.2862 10.6128C64.2076 10.0003 64.0437 9.43114 63.7605 8.94028L62.8943 9.44L62.0281 9.93972C62.1449 10.1422 62.2476 10.4397 62.3024 10.8672L63.2943 10.74ZM62.8943 9.44L63.7605 8.94028C63.4717 8.43977 63.0693 8.03987 62.5556 7.77278L62.0943 8.66L61.6329 9.54722C61.786 9.62679 61.9169 9.74689 62.0281 9.93972L62.8943 9.44ZM62.0943 8.66L62.5982 7.79622C62.0944 7.50237 61.5252 7.38 60.9343 7.38V8.38V9.38C61.25 9.38 61.4542 9.44429 61.5904 9.52378L62.0943 8.66ZM60.9343 8.38V7.38C60.2755 7.38 59.6493 7.52885 59.1015 7.87377L59.6343 8.72L60.1671 9.56623C60.3393 9.45781 60.5798 9.38 60.9343 9.38V8.38ZM59.6343 8.72L59.087 7.88303C58.5742 8.21838 58.1881 8.67992 57.9281 9.23711L58.8343 9.66L59.7405 10.0829C59.8538 9.84007 60.0011 9.67496 60.1815 9.55697L59.6343 8.72ZM58.8343 9.66L57.9218 9.25094C57.6821 9.7857 57.5743 10.3686 57.5743 10.98H58.5743H59.5743C59.5743 10.6047 59.6399 10.3076 59.7468 10.0691L58.8343 9.66ZM58.5743 10.98H57.5743C57.5743 11.7669 57.7475 12.5034 58.1506 13.1369L58.9943 12.6L59.838 12.0631C59.6811 11.8166 59.5743 11.4731 59.5743 10.98H58.5743ZM58.9943 12.6L58.1703 13.1665C58.6003 13.792 59.2202 14.2293 59.9539 14.5128L60.3143 13.58L60.6747 12.6472C60.235 12.4773 59.975 12.2613 59.8183 12.0335L58.9943 12.6ZM60.3143 13.58L59.9539 14.5128C60.6929 14.7983 61.5654 14.92 62.5343 14.92V13.92V12.92C61.7165 12.92 61.109 12.815 60.6747 12.6472L60.3143 13.58ZM62.5343 13.92V14.92C63.4839 14.92 64.4093 14.803 65.308 14.5673L65.0543 13.6L64.8006 12.6327C64.0726 12.8237 63.318 12.92 62.5343 12.92V13.92ZM65.0543 13.6L65.3187 14.5644C66.2269 14.3154 67.071 13.9612 67.8464 13.4989L67.3343 12.64L66.8222 11.7811C66.211 12.1455 65.535 12.4313 64.7899 12.6356L65.0543 13.6ZM67.3343 12.64H66.3343V15.52H67.3343H68.3343V12.64H67.3343ZM67.3343 15.52L66.7591 14.702C66.0033 15.2334 65.1312 15.6482 64.1334 15.9403L64.4143 16.9L64.6952 17.8597C65.8841 17.5118 66.9586 17.0066 67.9095 16.338L67.3343 15.52ZM64.4143 16.9L64.1411 15.938C63.1487 16.2198 62.1473 16.36 61.1343 16.36V17.36V18.36C62.3347 18.36 63.5199 18.1935 64.6875 17.862L64.4143 16.9ZM82.4743 15.48L83.1966 16.1716L83.2038 16.1639L82.4743 15.48ZM79.9543 16.9L80.2306 17.8611L80.2384 17.8588L79.9543 16.9ZM72.2743 16.84L71.9683 17.792L71.975 17.7942L71.9818 17.7963L72.2743 16.84ZM69.6143 15.34L68.9072 16.0471L68.9145 16.0544L69.6143 15.34ZM68.5943 13.1V12.1H67.5463L67.5954 13.1468L68.5943 13.1ZM73.7543 13.1L74.6926 12.7543L74.4516 12.1H73.7543V13.1ZM74.2343 13.74L73.6268 14.5344L73.642 14.546L73.6576 14.557L74.2343 13.74ZM75.1143 14.12L74.8633 15.088L74.8839 15.0933L74.9048 15.0978L75.1143 14.12ZM77.9343 14.06L78.273 15.0009L78.2895 14.995L78.3057 14.9885L77.9343 14.06ZM78.0143 13.04L78.3305 12.0913L78.0143 13.04ZM76.6543 12.84L76.5906 13.838L76.6543 12.84ZM74.7743 12.72L74.7102 13.7179L74.7106 13.718L74.7743 12.72ZM71.2943 12.16L70.9692 13.1057L70.978 13.1087L70.9869 13.1116L71.2943 12.16ZM69.4543 10.98L70.2517 10.3766V10.3766L69.4543 10.98ZM69.7543 6.92L69.0392 6.22084L69.0313 6.22914L69.7543 6.92ZM72.1943 5.58L72.4658 6.54245L72.1943 5.58ZM79.4543 5.66L79.1417 6.60994L79.1526 6.6134L79.4543 5.66ZM81.9943 7.08L81.3024 7.80199V7.80199L81.9943 7.08ZM83.1143 9.22V10.22H84.254L84.1058 9.08996L83.1143 9.22ZM77.9543 9.22L76.9908 9.48764L77.1942 10.22H77.9543V9.22ZM77.5543 8.6L78.2092 7.84431V7.84431L77.5543 8.6ZM76.7743 8.2L77.0543 7.24L76.7743 8.2ZM74.2743 8.28L74.7042 9.18286L74.7214 9.17467L74.7383 9.16583L74.2743 8.28ZM74.1143 9.28L73.6402 10.1605L73.6673 10.1751L73.6952 10.188L74.1143 9.28ZM75.1343 9.44L75.1977 8.44195L75.1869 8.44138L75.1343 9.44ZM77.6543 9.6L77.5909 10.598L77.5988 10.5985L77.6543 9.6ZM81.0543 10.16L80.7199 11.1024L80.729 11.1056L80.7381 11.1087L81.0543 10.16ZM82.8343 11.3L82.0236 11.8855L82.0289 11.8928L82.0343 11.9L82.8343 11.3ZM83.3743 13.08H82.3743C82.3743 13.812 82.1539 14.3596 81.7448 14.7961L82.4743 15.48L83.2038 16.1639C83.9947 15.3204 84.3743 14.268 84.3743 13.08H83.3743ZM82.4743 15.48L81.752 14.7884C81.3031 15.2573 80.6319 15.6563 79.6702 15.9412L79.9543 16.9L80.2384 17.8588C81.4367 17.5037 82.4455 16.956 83.1966 16.1716L82.4743 15.48ZM79.9543 16.9L79.678 15.9389C78.7232 16.2134 77.567 16.36 76.1943 16.36V17.36V18.36C77.7016 18.36 79.052 18.1999 80.2306 17.8611L79.9543 16.9ZM76.1943 17.36V16.36C74.7899 16.36 73.5852 16.1952 72.5668 15.8837L72.2743 16.84L71.9818 17.7963C73.2301 18.1781 74.6387 18.36 76.1943 18.36V17.36ZM72.2743 16.84L72.5803 15.888C71.5673 15.5623 70.8293 15.1303 70.3141 14.6256L69.6143 15.34L68.9145 16.0544C69.706 16.8297 70.7413 17.3977 71.9683 17.792L72.2743 16.84ZM69.6143 15.34L70.3214 14.6329C69.846 14.1575 69.6208 13.642 69.5932 13.0532L68.5943 13.1L67.5954 13.1468C67.6478 14.2646 68.1026 15.2425 68.9072 16.0471L69.6143 15.34ZM68.5943 13.1V14.1H73.7543V13.1V12.1H68.5943V13.1ZM73.7543 13.1L72.816 13.4457C72.9786 13.8872 73.2586 14.2527 73.6268 14.5344L74.2343 13.74L74.8417 12.9456C74.7567 12.8806 74.7166 12.8194 74.6926 12.7543L73.7543 13.1ZM74.2343 13.74L73.6576 14.557C74.0101 14.8058 74.4239 14.9741 74.8633 15.088L75.1143 14.12L75.3653 13.152C75.0847 13.0793 74.9118 12.9942 74.811 12.923L74.2343 13.74ZM75.1143 14.12L74.9048 15.0978C75.3681 15.1971 75.896 15.24 76.4743 15.24V14.24V13.24C75.9859 13.24 75.6072 13.2029 75.3238 13.1422L75.1143 14.12ZM76.4743 14.24V15.24C77.1522 15.24 77.7764 15.1797 78.273 15.0009L77.9343 14.06L77.5956 13.1191C77.4255 13.1803 77.0764 13.24 76.4743 13.24V14.24ZM77.9343 14.06L78.3057 14.9885C78.7672 14.8039 79.4343 14.3717 79.4343 13.52H78.4343H77.4343C77.4343 13.4508 77.4477 13.3753 77.4777 13.302C77.5073 13.23 77.5453 13.1782 77.5755 13.1456C77.6287 13.0882 77.6506 13.0964 77.5629 13.1315L77.9343 14.06ZM78.4343 13.52H79.4343C79.4343 13.1819 79.3225 12.8465 79.0819 12.5715C78.8579 12.3156 78.5767 12.1734 78.3305 12.0913L78.0143 13.04L77.6981 13.9887C77.7319 14 77.6606 13.9844 77.5767 13.8885C77.5328 13.8383 77.494 13.7753 77.4678 13.7029C77.4419 13.6315 77.4343 13.5676 77.4343 13.52H78.4343ZM78.0143 13.04L78.3305 12.0913C77.92 11.9545 77.3566 11.8828 76.718 11.842L76.6543 12.84L76.5906 13.838C77.2053 13.8772 77.5486 13.9389 77.6981 13.9887L78.0143 13.04ZM76.6543 12.84L76.718 11.842L74.838 11.722L74.7743 12.72L74.7106 13.718L76.5906 13.838L76.6543 12.84ZM74.7743 12.72L74.8384 11.7221C73.4248 11.6313 72.357 11.4524 71.6017 11.2084L71.2943 12.16L70.9869 13.1116C71.9649 13.4276 73.2172 13.6221 74.7102 13.7179L74.7743 12.72ZM71.2943 12.16L71.6194 11.2143C70.8722 10.9575 70.4618 10.6542 70.2517 10.3766L69.4543 10.98L68.6569 11.5834C69.1935 12.2925 70.0097 12.7759 70.9692 13.1057L71.2943 12.16ZM69.4543 10.98L70.2517 10.3766C70.0256 10.0777 69.8943 9.70312 69.8943 9.2H68.8943H67.8943C67.8943 10.0835 68.1364 10.8956 68.6569 11.5834L69.4543 10.98ZM68.8943 9.2H69.8943C69.8943 8.50693 70.1017 8.00391 70.4773 7.61086L69.7543 6.92L69.0313 6.22914C68.2602 7.03609 67.8943 8.05307 67.8943 9.2H68.8943ZM69.7543 6.92L70.4693 7.61912C70.9034 7.1752 71.5467 6.80166 72.4658 6.54245L72.1943 5.58L71.9228 4.61755C70.7619 4.945 69.7786 5.4648 69.0393 6.22088L69.7543 6.92ZM72.1943 5.58L72.4658 6.54245C73.3966 6.27991 74.5149 6.14 75.8343 6.14V5.14V4.14C74.3804 4.14 73.072 4.29342 71.9228 4.61755L72.1943 5.58ZM75.8343 5.14V6.14C77.1112 6.14 78.2091 6.30295 79.1417 6.60988L79.4543 5.66L79.7669 4.71012C78.5928 4.32372 77.2774 4.14 75.8343 4.14V5.14ZM79.4543 5.66L79.1526 6.6134C80.095 6.91163 80.7969 7.31752 81.3024 7.80199L81.9943 7.08L82.6862 6.35801C81.9117 5.61581 80.9203 5.07503 79.756 4.7066L79.4543 5.66ZM81.9943 7.08L81.3024 7.80199C81.7922 8.27143 82.0482 8.78109 82.1228 9.35003L83.1143 9.22L84.1058 9.08996C83.9671 8.03224 83.4763 7.11524 82.6862 6.35801L81.9943 7.08ZM83.1143 9.22V8.22H77.9543V9.22V10.22H83.1143V9.22ZM77.9543 9.22L78.9178 8.95236C78.7952 8.51079 78.5481 8.13798 78.2092 7.84431L77.5543 8.6L76.8994 9.35569C76.9605 9.40869 76.9801 9.44921 76.9908 9.48764L77.9543 9.22ZM77.5543 8.6L78.2092 7.84431C77.876 7.55554 77.4778 7.36351 77.0543 7.24L76.7743 8.2L76.4943 9.16C76.7108 9.22315 76.8326 9.2978 76.8994 9.35569L77.5543 8.6ZM76.7743 8.2L77.0543 7.24C76.6173 7.11254 76.1308 7.06 75.6143 7.06V8.06V9.06C76.0045 9.06 76.2913 9.10079 76.4943 9.16L76.7743 8.2ZM75.6143 8.06V7.06C74.9643 7.06 74.3136 7.13051 73.8103 7.39417L74.2743 8.28L74.7383 9.16583C74.795 9.13616 75.0377 9.06 75.6143 9.06V8.06ZM74.2743 8.28L73.8444 7.37714C73.366 7.60493 72.8543 8.06551 72.8543 8.82H73.8543H74.8543C74.8543 8.86808 74.8466 8.9248 74.8261 8.98426C74.8056 9.04365 74.7771 9.09233 74.7486 9.12894C74.6949 9.19802 74.6568 9.20544 74.7042 9.18286L74.2743 8.28ZM73.8543 8.82H72.8543C72.8543 9.06282 72.9043 9.33156 73.0487 9.58706C73.1956 9.84687 73.4075 10.0352 73.6402 10.1605L74.1143 9.28L74.5884 8.39953C74.6477 8.43147 74.7297 8.49647 74.7899 8.60294C74.8476 8.7051 74.8543 8.79052 74.8543 8.82H73.8543ZM74.1143 9.28L73.6952 10.188C73.9076 10.286 74.1436 10.3364 74.3443 10.3679C74.56 10.4018 74.8085 10.4242 75.0817 10.4386L75.1343 9.44L75.1869 8.44138C74.9534 8.42909 74.7785 8.41158 74.6543 8.39208C74.515 8.37023 74.4944 8.35404 74.5334 8.37204L74.1143 9.28ZM75.1343 9.44L75.0709 10.438L77.5909 10.598L77.6543 9.6L77.7177 8.60201L75.1977 8.44201L75.1343 9.44ZM77.6543 9.6L77.5988 10.5985C78.9964 10.6761 80.0221 10.8548 80.7199 11.1024L81.0543 10.16L81.3887 9.21757C80.4332 8.87852 79.1921 8.68389 77.7098 8.60154L77.6543 9.6ZM81.0543 10.16L80.7381 11.1087C81.4725 11.3535 81.8468 11.6407 82.0236 11.8855L82.8343 11.3L83.645 10.7145C83.1284 9.9993 82.316 9.52649 81.3705 9.21132L81.0543 10.16ZM82.8343 11.3L82.0343 11.9C82.2425 12.1776 82.3743 12.5499 82.3743 13.08H83.3743H84.3743C84.3743 12.1968 84.1461 11.3824 83.6343 10.7L82.8343 11.3Z" fill="black" mask="url(#path-1-outside-1_34787_1727)"/>
</g>
<defs>
<filter id="filter0_d_34787_1727" x="0.743652" y="0.600006" width="83.6309" height="19.76" filterUnits="userSpaceOnUse" color-interpolation-filters="sRGB">
<feFlood flood-opacity="0" result="BackgroundImageFix"/>
<feColorMatrix in="SourceAlpha" type="matrix" values="0 0 0 0 0 0 0 0 0 0 0 0 0 0 0 0 0 0 127 0" result="hardAlpha"/>
<feOffset dy="2"/>
<feComposite in2="hardAlpha" operator="out"/>
<feColorMatrix type="matrix" values="0 0 0 0 0 0 0 0 0 0 0 0 0 0 0 0 0 0 0.5 0"/>
<feBlend mode="normal" in2="BackgroundImageFix" result="effect1_dropShadow_34787_1727"/>
<feBlend mode="normal" in="SourceGraphic" in2="effect1_dropShadow_34787_1727" result="shape"/>
</filter>
</defs>
</svg>
