<svg width="96" height="23" viewBox="0 0 96 23" fill="none" xmlns="http://www.w3.org/2000/svg">
<g filter="url(#filter0_d_31979_1747)">
<mask id="path-1-outside-1_31979_1747" maskUnits="userSpaceOnUse" x="0" y="0" width="96" height="21" fill="black">
<rect fill="white" width="96" height="21"/>
<path d="M9.15234 16V8.6H14.3123V16H9.15234ZM2.15234 0.999999H7.81234L12.7923 7.42H10.6523L15.6123 0.999999H21.2723L13.3923 11.12L10.0523 11.18L2.15234 0.999999ZM28.9555 16L28.3755 11.94L28.9555 10.26L28.3755 8.6L28.9555 4.5H34.2355L33.4355 10.24L34.2355 16H28.9555ZM30.0155 10.26C29.8821 11.4867 29.5488 12.56 29.0155 13.48C28.4955 14.3867 27.8088 15.0933 26.9555 15.6C26.1155 16.1067 25.1488 16.36 24.0555 16.36C22.9355 16.36 21.9488 16.1067 21.0955 15.6C20.2555 15.0933 19.5955 14.38 19.1155 13.46C18.6488 12.54 18.4155 11.4733 18.4155 10.26C18.4155 9.03333 18.6488 7.96 19.1155 7.04C19.5955 6.12 20.2555 5.40667 21.0955 4.9C21.9488 4.39333 22.9355 4.14 24.0555 4.14C25.1488 4.14 26.1155 4.39333 26.9555 4.9C27.8088 5.39333 28.5021 6.1 29.0355 7.02C29.5688 7.92667 29.8955 9.00667 30.0155 10.26ZM23.5355 10.26C23.5355 10.7 23.6221 11.0933 23.7955 11.44C23.9821 11.7733 24.2355 12.04 24.5555 12.24C24.8888 12.44 25.2688 12.54 25.6955 12.54C26.1355 12.54 26.5621 12.44 26.9755 12.24C27.3888 12.04 27.7488 11.7733 28.0555 11.44C28.3755 11.0933 28.5955 10.7 28.7155 10.26C28.5955 9.82 28.3755 9.42667 28.0555 9.08C27.7488 8.73333 27.3888 8.46 26.9755 8.26C26.5621 8.06 26.1355 7.96 25.6955 7.96C25.2688 7.96 24.8888 8.06 24.5555 8.26C24.2355 8.46 23.9821 8.73333 23.7955 9.08C23.6221 9.42667 23.5355 9.82 23.5355 10.26ZM35.8467 4.5H40.9267V7.34L40.7267 7.9V11.7L40.9267 12.8V19.3H35.8467V4.5ZM39.4267 10.26C39.5601 9.00667 39.8867 7.92667 40.4067 7.02C40.9401 6.1 41.6334 5.39333 42.4867 4.9C43.3401 4.39333 44.3067 4.14 45.3867 4.14C46.5201 4.14 47.5067 4.39333 48.3467 4.9C49.1867 5.40667 49.8401 6.12 50.3067 7.04C50.7867 7.96 51.0267 9.03333 51.0267 10.26C51.0267 11.4733 50.7867 12.54 50.3067 13.46C49.8401 14.38 49.1867 15.0933 48.3467 15.6C47.5067 16.1067 46.5201 16.36 45.3867 16.36C44.2934 16.36 43.3201 16.1067 42.4667 15.6C41.6267 15.0933 40.9467 14.3867 40.4267 13.48C39.9067 12.56 39.5734 11.4867 39.4267 10.26ZM45.9067 10.26C45.9067 9.82 45.8134 9.42667 45.6267 9.08C45.4534 8.73333 45.2001 8.46 44.8667 8.26C44.5467 8.06 44.1734 7.96 43.7467 7.96C43.3067 7.96 42.8801 8.06 42.4667 8.26C42.0534 8.46 41.6934 8.73333 41.3867 9.08C41.0801 9.42667 40.8601 9.82 40.7267 10.26C40.8601 10.7 41.0801 11.0933 41.3867 11.44C41.6934 11.7733 42.0534 12.04 42.4667 12.24C42.8801 12.44 43.3067 12.54 43.7467 12.54C44.1734 12.54 44.5467 12.44 44.8667 12.24C45.2001 12.04 45.4534 11.7733 45.6267 11.44C45.8134 11.0933 45.9067 10.7 45.9067 10.26ZM52.5264 4.5H57.6064V7.34L57.4064 7.9V11.7L57.6064 12.8V19.3H52.5264V4.5ZM56.1064 10.26C56.2397 9.00667 56.5664 7.92667 57.0864 7.02C57.6197 6.1 58.3131 5.39333 59.1664 4.9C60.0197 4.39333 60.9864 4.14 62.0664 4.14C63.1997 4.14 64.1864 4.39333 65.0264 4.9C65.8664 5.40667 66.5197 6.12 66.9864 7.04C67.4664 7.96 67.7064 9.03333 67.7064 10.26C67.7064 11.4733 67.4664 12.54 66.9864 13.46C66.5197 14.38 65.8664 15.0933 65.0264 15.6C64.1864 16.1067 63.1997 16.36 62.0664 16.36C60.9731 16.36 59.9997 16.1067 59.1464 15.6C58.3064 15.0933 57.6264 14.3867 57.1064 13.48C56.5864 12.56 56.2531 11.4867 56.1064 10.26ZM62.5864 10.26C62.5864 9.82 62.4931 9.42667 62.3064 9.08C62.1331 8.73333 61.8797 8.46 61.5464 8.26C61.2264 8.06 60.8531 7.96 60.4264 7.96C59.9864 7.96 59.5597 8.06 59.1464 8.26C58.7331 8.46 58.3731 8.73333 58.0664 9.08C57.7597 9.42667 57.5397 9.82 57.4064 10.26C57.5397 10.7 57.7597 11.0933 58.0664 11.44C58.3731 11.7733 58.7331 12.04 59.1464 12.24C59.5597 12.44 59.9864 12.54 60.4264 12.54C60.8531 12.54 61.2264 12.44 61.5464 12.24C61.8797 12.04 62.1331 11.7733 62.3064 11.44C62.4931 11.0933 62.5864 10.7 62.5864 10.26ZM76.2261 16.36C74.7994 16.36 73.5194 16.1067 72.3861 15.6C71.2661 15.08 70.3794 14.36 69.7261 13.44C69.0728 12.5067 68.7461 11.4267 68.7461 10.2C68.7461 8.98667 69.0594 7.92667 69.6861 7.02C70.3261 6.11333 71.1928 5.40667 72.2861 4.9C73.3794 4.39333 74.6061 4.14 75.9661 4.14C77.3928 4.14 78.6061 4.43333 79.6061 5.02C80.6061 5.60667 81.3728 6.44 81.9061 7.52C82.4394 8.58667 82.7061 9.85333 82.7061 11.32H72.9061V8.98H79.7461L78.3861 9.74C78.3194 9.22 78.1861 8.78667 77.9861 8.44C77.7861 8.09333 77.5194 7.83333 77.1861 7.66C76.8661 7.47333 76.4794 7.38 76.0261 7.38C75.5194 7.38 75.0861 7.49333 74.7261 7.72C74.3794 7.94667 74.1128 8.26 73.9261 8.66C73.7528 9.04667 73.6661 9.48667 73.6661 9.98C73.6661 10.62 73.8061 11.16 74.0861 11.6C74.3794 12.0267 74.8194 12.3533 75.4061 12.58C75.9928 12.8067 76.7328 12.92 77.6261 12.92C78.4928 12.92 79.3328 12.8133 80.1461 12.6C80.9728 12.3733 81.7328 12.0533 82.4261 11.64V14.52C81.5728 15.12 80.5994 15.58 79.5061 15.9C78.4261 16.2067 77.3328 16.36 76.2261 16.36ZM83.5684 4.5H88.7684L89.4484 8.56V16H84.3684V8.5L83.5684 4.5ZM94.5284 4.26V8.56C94.0751 8.48 93.6684 8.42667 93.3084 8.4C92.9484 8.36 92.6284 8.34 92.3484 8.34C91.8418 8.34 91.3684 8.43333 90.9284 8.62C90.4884 8.79333 90.1284 9.11333 89.8484 9.58C89.5818 10.0467 89.4484 10.7133 89.4484 11.58L88.5484 10.46C88.6818 9.63333 88.8484 8.84667 89.0484 8.1C89.2618 7.34 89.5418 6.66667 89.8884 6.08C90.2351 5.48 90.6751 5.00667 91.2084 4.66C91.7418 4.31333 92.4084 4.14 93.2084 4.14C93.4084 4.14 93.6151 4.15333 93.8284 4.18C94.0418 4.19333 94.2751 4.22 94.5284 4.26Z"/>
</mask>
<path d="M9.15234 16V8.6H14.3123V16H9.15234ZM2.15234 0.999999H7.81234L12.7923 7.42H10.6523L15.6123 0.999999H21.2723L13.3923 11.12L10.0523 11.18L2.15234 0.999999ZM28.9555 16L28.3755 11.94L28.9555 10.26L28.3755 8.6L28.9555 4.5H34.2355L33.4355 10.24L34.2355 16H28.9555ZM30.0155 10.26C29.8821 11.4867 29.5488 12.56 29.0155 13.48C28.4955 14.3867 27.8088 15.0933 26.9555 15.6C26.1155 16.1067 25.1488 16.36 24.0555 16.36C22.9355 16.36 21.9488 16.1067 21.0955 15.6C20.2555 15.0933 19.5955 14.38 19.1155 13.46C18.6488 12.54 18.4155 11.4733 18.4155 10.26C18.4155 9.03333 18.6488 7.96 19.1155 7.04C19.5955 6.12 20.2555 5.40667 21.0955 4.9C21.9488 4.39333 22.9355 4.14 24.0555 4.14C25.1488 4.14 26.1155 4.39333 26.9555 4.9C27.8088 5.39333 28.5021 6.1 29.0355 7.02C29.5688 7.92667 29.8955 9.00667 30.0155 10.26ZM23.5355 10.26C23.5355 10.7 23.6221 11.0933 23.7955 11.44C23.9821 11.7733 24.2355 12.04 24.5555 12.24C24.8888 12.44 25.2688 12.54 25.6955 12.54C26.1355 12.54 26.5621 12.44 26.9755 12.24C27.3888 12.04 27.7488 11.7733 28.0555 11.44C28.3755 11.0933 28.5955 10.7 28.7155 10.26C28.5955 9.82 28.3755 9.42667 28.0555 9.08C27.7488 8.73333 27.3888 8.46 26.9755 8.26C26.5621 8.06 26.1355 7.96 25.6955 7.96C25.2688 7.96 24.8888 8.06 24.5555 8.26C24.2355 8.46 23.9821 8.73333 23.7955 9.08C23.6221 9.42667 23.5355 9.82 23.5355 10.26ZM35.8467 4.5H40.9267V7.34L40.7267 7.9V11.7L40.9267 12.8V19.3H35.8467V4.5ZM39.4267 10.26C39.5601 9.00667 39.8867 7.92667 40.4067 7.02C40.9401 6.1 41.6334 5.39333 42.4867 4.9C43.3401 4.39333 44.3067 4.14 45.3867 4.14C46.5201 4.14 47.5067 4.39333 48.3467 4.9C49.1867 5.40667 49.8401 6.12 50.3067 7.04C50.7867 7.96 51.0267 9.03333 51.0267 10.26C51.0267 11.4733 50.7867 12.54 50.3067 13.46C49.8401 14.38 49.1867 15.0933 48.3467 15.6C47.5067 16.1067 46.5201 16.36 45.3867 16.36C44.2934 16.36 43.3201 16.1067 42.4667 15.6C41.6267 15.0933 40.9467 14.3867 40.4267 13.48C39.9067 12.56 39.5734 11.4867 39.4267 10.26ZM45.9067 10.26C45.9067 9.82 45.8134 9.42667 45.6267 9.08C45.4534 8.73333 45.2001 8.46 44.8667 8.26C44.5467 8.06 44.1734 7.96 43.7467 7.96C43.3067 7.96 42.8801 8.06 42.4667 8.26C42.0534 8.46 41.6934 8.73333 41.3867 9.08C41.0801 9.42667 40.8601 9.82 40.7267 10.26C40.8601 10.7 41.0801 11.0933 41.3867 11.44C41.6934 11.7733 42.0534 12.04 42.4667 12.24C42.8801 12.44 43.3067 12.54 43.7467 12.54C44.1734 12.54 44.5467 12.44 44.8667 12.24C45.2001 12.04 45.4534 11.7733 45.6267 11.44C45.8134 11.0933 45.9067 10.7 45.9067 10.26ZM52.5264 4.5H57.6064V7.34L57.4064 7.9V11.7L57.6064 12.8V19.3H52.5264V4.5ZM56.1064 10.26C56.2397 9.00667 56.5664 7.92667 57.0864 7.02C57.6197 6.1 58.3131 5.39333 59.1664 4.9C60.0197 4.39333 60.9864 4.14 62.0664 4.14C63.1997 4.14 64.1864 4.39333 65.0264 4.9C65.8664 5.40667 66.5197 6.12 66.9864 7.04C67.4664 7.96 67.7064 9.03333 67.7064 10.26C67.7064 11.4733 67.4664 12.54 66.9864 13.46C66.5197 14.38 65.8664 15.0933 65.0264 15.6C64.1864 16.1067 63.1997 16.36 62.0664 16.36C60.9731 16.36 59.9997 16.1067 59.1464 15.6C58.3064 15.0933 57.6264 14.3867 57.1064 13.48C56.5864 12.56 56.2531 11.4867 56.1064 10.26ZM62.5864 10.26C62.5864 9.82 62.4931 9.42667 62.3064 9.08C62.1331 8.73333 61.8797 8.46 61.5464 8.26C61.2264 8.06 60.8531 7.96 60.4264 7.96C59.9864 7.96 59.5597 8.06 59.1464 8.26C58.7331 8.46 58.3731 8.73333 58.0664 9.08C57.7597 9.42667 57.5397 9.82 57.4064 10.26C57.5397 10.7 57.7597 11.0933 58.0664 11.44C58.3731 11.7733 58.7331 12.04 59.1464 12.24C59.5597 12.44 59.9864 12.54 60.4264 12.54C60.8531 12.54 61.2264 12.44 61.5464 12.24C61.8797 12.04 62.1331 11.7733 62.3064 11.44C62.4931 11.0933 62.5864 10.7 62.5864 10.26ZM76.2261 16.36C74.7994 16.36 73.5194 16.1067 72.3861 15.6C71.2661 15.08 70.3794 14.36 69.7261 13.44C69.0728 12.5067 68.7461 11.4267 68.7461 10.2C68.7461 8.98667 69.0594 7.92667 69.6861 7.02C70.3261 6.11333 71.1928 5.40667 72.2861 4.9C73.3794 4.39333 74.6061 4.14 75.9661 4.14C77.3928 4.14 78.6061 4.43333 79.6061 5.02C80.6061 5.60667 81.3728 6.44 81.9061 7.52C82.4394 8.58667 82.7061 9.85333 82.7061 11.32H72.9061V8.98H79.7461L78.3861 9.74C78.3194 9.22 78.1861 8.78667 77.9861 8.44C77.7861 8.09333 77.5194 7.83333 77.1861 7.66C76.8661 7.47333 76.4794 7.38 76.0261 7.38C75.5194 7.38 75.0861 7.49333 74.7261 7.72C74.3794 7.94667 74.1128 8.26 73.9261 8.66C73.7528 9.04667 73.6661 9.48667 73.6661 9.98C73.6661 10.62 73.8061 11.16 74.0861 11.6C74.3794 12.0267 74.8194 12.3533 75.4061 12.58C75.9928 12.8067 76.7328 12.92 77.6261 12.92C78.4928 12.92 79.3328 12.8133 80.1461 12.6C80.9728 12.3733 81.7328 12.0533 82.4261 11.64V14.52C81.5728 15.12 80.5994 15.58 79.5061 15.9C78.4261 16.2067 77.3328 16.36 76.2261 16.36ZM83.5684 4.5H88.7684L89.4484 8.56V16H84.3684V8.5L83.5684 4.5ZM94.5284 4.26V8.56C94.0751 8.48 93.6684 8.42667 93.3084 8.4C92.9484 8.36 92.6284 8.34 92.3484 8.34C91.8418 8.34 91.3684 8.43333 90.9284 8.62C90.4884 8.79333 90.1284 9.11333 89.8484 9.58C89.5818 10.0467 89.4484 10.7133 89.4484 11.58L88.5484 10.46C88.6818 9.63333 88.8484 8.84667 89.0484 8.1C89.2618 7.34 89.5418 6.66667 89.8884 6.08C90.2351 5.48 90.6751 5.00667 91.2084 4.66C91.7418 4.31333 92.4084 4.14 93.2084 4.14C93.4084 4.14 93.6151 4.15333 93.8284 4.18C94.0418 4.19333 94.2751 4.22 94.5284 4.26Z" fill="#75759D"/>
<path d="M9.15234 16H8.15234V17H9.15234V16ZM9.15234 8.6V7.6H8.15234V8.6H9.15234ZM14.3123 8.6H15.3123V7.6H14.3123V8.6ZM14.3123 16V17H15.3123V16H14.3123ZM2.15234 0.999999V-1.19209e-06H0.110522L1.36232 1.61308L2.15234 0.999999ZM7.81234 0.999999L8.60249 0.387081L8.30223 -1.19209e-06H7.81234V0.999999ZM12.7923 7.42V8.42H14.8336L13.5825 6.80708L12.7923 7.42ZM10.6523 7.42L9.861 6.80862L8.61608 8.42H10.6523V7.42ZM15.6123 0.999999V-1.19209e-06H15.1212L14.821 0.388621L15.6123 0.999999ZM21.2723 0.999999L22.0614 1.61437L23.3184 -1.19209e-06H21.2723V0.999999ZM13.3923 11.12L13.4103 12.1198L13.8879 12.1113L14.1814 11.7344L13.3923 11.12ZM10.0523 11.18L9.26232 11.7931L9.56944 12.1888L10.0703 12.1798L10.0523 11.18ZM10.1523 16V8.6H8.15234V16H10.1523ZM9.15234 9.6H14.3123V7.6H9.15234V9.6ZM13.3123 8.6V16H15.3123V8.6H13.3123ZM14.3123 15H9.15234V17H14.3123V15ZM2.15234 2H7.81234V-1.19209e-06H2.15234V2ZM7.0222 1.61292L12.0022 8.03292L13.5825 6.80708L8.60249 0.387081L7.0222 1.61292ZM12.7923 6.42H10.6523V8.42H12.7923V6.42ZM11.4437 8.03138L16.4037 1.61138L14.821 0.388621L9.861 6.80862L11.4437 8.03138ZM15.6123 2H21.2723V-1.19209e-06H15.6123V2ZM20.4833 0.385627L12.6033 10.5056L14.1814 11.7344L22.0614 1.61437L20.4833 0.385627ZM13.3744 10.1202L10.0344 10.1802L10.0703 12.1798L13.4103 12.1198L13.3744 10.1202ZM10.8424 10.5669L2.94236 0.386918L1.36232 1.61308L9.26232 11.7931L10.8424 10.5669ZM28.9555 16L27.9655 16.1414L28.0882 17H28.9555V16ZM28.3755 11.94L27.4302 11.6137L27.3513 11.8421L27.3855 12.0814L28.3755 11.94ZM28.9555 10.26L29.9007 10.5863L30.0141 10.258L29.8995 9.93016L28.9555 10.26ZM28.3755 8.6L27.3853 8.45993L27.3513 8.70049L27.4314 8.92984L28.3755 8.6ZM28.9555 4.5V3.5H28.087L27.9653 4.35993L28.9555 4.5ZM34.2355 4.5L35.2259 4.63804L35.3845 3.5H34.2355V4.5ZM33.4355 10.24L32.445 10.102L32.4258 10.2398L32.445 10.3776L33.4355 10.24ZM34.2355 16V17H35.384L35.226 15.8624L34.2355 16ZM30.0155 10.26L31.0096 10.3681L31.0207 10.2664L31.0109 10.1647L30.0155 10.26ZM29.0155 13.48L28.1503 12.9785L28.148 12.9825L29.0155 13.48ZM26.9555 15.6L26.4449 14.7401L26.439 14.7437L26.9555 15.6ZM21.0955 15.6L20.579 16.4563L20.5849 16.4599L21.0955 15.6ZM19.1155 13.46L18.2236 13.9124L18.2289 13.9226L19.1155 13.46ZM19.1155 7.04L18.2288 6.5774L18.2236 6.58762L19.1155 7.04ZM21.0955 4.9L20.5849 4.04012L20.579 4.04371L21.0955 4.9ZM26.9555 4.9L26.439 5.75629L26.4469 5.76109L26.455 5.76573L26.9555 4.9ZM29.0355 7.02L28.1703 7.52154L28.1735 7.52702L29.0355 7.02ZM23.7955 11.44L22.901 11.8872L22.9115 11.9082L22.923 11.9286L23.7955 11.44ZM24.5555 12.24L24.0255 13.088L24.0332 13.0928L24.041 13.0975L24.5555 12.24ZM26.9755 12.24L27.411 13.1402V13.1402L26.9755 12.24ZM28.0555 11.44L27.3207 10.7617L27.3195 10.7629L28.0555 11.44ZM28.7155 10.26L29.6802 10.5231L29.752 10.26L29.6802 9.99688L28.7155 10.26ZM28.0555 9.08L27.3065 9.74257L27.3135 9.7505L27.3207 9.75828L28.0555 9.08ZM26.9755 8.26L27.411 7.35984H27.411L26.9755 8.26ZM24.5555 8.26L24.041 7.40251L24.0332 7.40718L24.0255 7.412L24.5555 8.26ZM23.7955 9.08L22.915 8.6059L22.9078 8.61924L22.901 8.63279L23.7955 9.08ZM29.9454 15.8586L29.3654 11.7986L27.3855 12.0814L27.9655 16.1414L29.9454 15.8586ZM29.3207 12.2663L29.9007 10.5863L28.0102 9.93366L27.4302 11.6137L29.3207 12.2663ZM29.8995 9.93016L29.3195 8.27016L27.4314 8.92984L28.0114 10.5898L29.8995 9.93016ZM29.3656 8.74007L29.9456 4.64007L27.9653 4.35993L27.3853 8.45993L29.3656 8.74007ZM28.9555 5.5H34.2355V3.5H28.9555V5.5ZM33.245 4.36196L32.445 10.102L34.4259 10.378L35.2259 4.63804L33.245 4.36196ZM32.445 10.3776L33.245 16.1376L35.226 15.8624L34.426 10.1024L32.445 10.3776ZM34.2355 15H28.9555V17H34.2355V15ZM29.0213 10.1519C28.9007 11.262 28.6033 12.197 28.1503 12.9785L29.8806 13.9815C30.4943 12.923 30.8636 11.7114 31.0096 10.3681L29.0213 10.1519ZM28.148 12.9825C27.709 13.7479 27.1421 14.3262 26.4449 14.7401L27.466 16.4599C28.4755 15.8605 29.2819 15.0254 29.8829 13.9775L28.148 12.9825ZM26.439 14.7437C25.7722 15.1459 24.9882 15.36 24.0555 15.36V17.36C25.3094 17.36 26.4587 17.0675 27.472 16.4563L26.439 14.7437ZM24.0555 15.36C23.0915 15.36 22.2857 15.1437 21.606 14.7401L20.5849 16.4599C21.6119 17.0696 22.7794 17.36 24.0555 17.36V15.36ZM21.612 14.7437C20.9383 14.3374 20.4023 13.7645 20.0021 12.9974L18.2289 13.9226C18.7887 14.9955 19.5726 15.8493 20.579 16.4563L21.612 14.7437ZM20.0073 13.0076C19.6233 12.2505 19.4155 11.3437 19.4155 10.26H17.4155C17.4155 11.6029 17.6743 12.8295 18.2236 13.9124L20.0073 13.0076ZM19.4155 10.26C19.4155 9.161 19.624 8.24802 20.0073 7.49238L18.2236 6.58762C17.6736 7.67198 17.4155 8.90567 17.4155 10.26H19.4155ZM20.0021 7.50257C20.4023 6.73547 20.9383 6.1626 21.612 5.75629L20.579 4.04371C19.5726 4.65073 18.7887 5.50453 18.2289 6.57743L20.0021 7.50257ZM21.606 5.75985C22.2857 5.35627 23.0915 5.14 24.0555 5.14V3.14C22.7794 3.14 21.6119 3.4304 20.5849 4.04015L21.606 5.75985ZM24.0555 5.14C24.9882 5.14 25.7722 5.35412 26.439 5.75629L27.472 4.04371C26.4587 3.43254 25.3094 3.14 24.0555 3.14V5.14ZM26.455 5.76573C27.1452 6.16476 27.7175 6.7404 28.1703 7.52153L29.9006 6.51847C29.2868 5.4596 28.4724 4.62191 27.456 4.03427L26.455 5.76573ZM28.1735 7.52702C28.6197 8.2855 28.9112 9.21909 29.02 10.3553L31.0109 10.1647C30.8797 8.79424 30.5179 7.56783 29.8974 6.51298L28.1735 7.52702ZM22.5355 10.26C22.5355 10.8341 22.6494 11.384 22.901 11.8872L24.6899 10.9928C24.5949 10.8027 24.5355 10.5659 24.5355 10.26H22.5355ZM22.923 11.9286C23.1907 12.4067 23.5611 12.7977 24.0255 13.088L25.0855 11.392C24.9099 11.2823 24.7736 11.1399 24.668 10.9514L22.923 11.9286ZM24.041 13.0975C24.5447 13.3997 25.1058 13.54 25.6955 13.54V11.54C25.4318 11.54 25.233 11.4803 25.07 11.3825L24.041 13.0975ZM25.6955 13.54C26.2929 13.54 26.868 13.4029 27.411 13.1402L26.5399 11.3398C26.2563 11.4771 25.978 11.54 25.6955 11.54V13.54ZM27.411 13.1402C27.936 12.8861 28.3983 12.5443 28.7914 12.1171L27.3195 10.7629C27.0993 11.0024 26.8416 11.1939 26.5399 11.3398L27.411 13.1402ZM28.7903 12.1183C29.2152 11.6579 29.5165 11.1234 29.6802 10.5231L27.7507 9.99688C27.6744 10.2766 27.5357 10.5288 27.3207 10.7617L28.7903 12.1183ZM29.6802 9.99688C29.5165 9.39662 29.2152 8.86211 28.7903 8.40172L27.3207 9.75828C27.5357 9.99122 27.6744 10.2434 27.7507 10.5231L29.6802 9.99688ZM28.8045 8.41743C28.4108 7.97241 27.9445 7.61798 27.411 7.35984L26.5399 9.16016C26.8331 9.30202 27.0868 9.49426 27.3065 9.74257L28.8045 8.41743ZM27.411 7.35984C26.868 7.09708 26.2929 6.96 25.6955 6.96V8.96C25.978 8.96 26.2563 9.02292 26.5399 9.16016L27.411 7.35984ZM25.6955 6.96C25.1058 6.96 24.5447 7.1003 24.041 7.40251L25.07 9.11749C25.233 9.0197 25.4318 8.96 25.6955 8.96V6.96ZM24.0255 7.412C23.5516 7.70815 23.1803 8.11318 22.915 8.6059L24.6759 9.5541C24.784 9.35349 24.9193 9.21185 25.0855 9.108L24.0255 7.412ZM22.901 8.63279C22.6494 9.13605 22.5355 9.68588 22.5355 10.26H24.5355C24.5355 9.95412 24.5949 9.71729 24.6899 9.52721L22.901 8.63279ZM35.8467 4.5V3.5H34.8467V4.5H35.8467ZM40.9267 4.5H41.9267V3.5H40.9267V4.5ZM40.9267 7.34L41.8685 7.67634L41.9267 7.51321V7.34H40.9267ZM40.7267 7.9L39.785 7.56366L39.7267 7.72679V7.9H40.7267ZM40.7267 11.7H39.7267V11.7902L39.7428 11.8789L40.7267 11.7ZM40.9267 12.8H41.9267V12.7098L41.9106 12.6211L40.9267 12.8ZM40.9267 19.3V20.3H41.9267V19.3H40.9267ZM35.8467 19.3H34.8467V20.3H35.8467V19.3ZM39.4267 10.26L38.4323 10.1542L38.4204 10.2665L38.4338 10.3787L39.4267 10.26ZM40.4067 7.02L39.5416 6.51846L39.5393 6.52249L40.4067 7.02ZM42.4867 4.9L42.9873 5.76579L42.9973 5.75985L42.4867 4.9ZM48.3467 4.9L47.8302 5.75629V5.75629L48.3467 4.9ZM50.3067 7.04L49.4148 7.4924L49.4201 7.50257L50.3067 7.04ZM50.3067 13.46L49.4201 12.9974L49.4149 13.0076L50.3067 13.46ZM48.3467 15.6L47.8302 14.7437L48.3467 15.6ZM42.4667 15.6L41.9502 16.4563L41.9562 16.4599L42.4667 15.6ZM40.4267 13.48L39.5561 13.9721L39.5593 13.9775L40.4267 13.48ZM45.6267 9.08L44.7323 9.52721L44.7391 9.54076L44.7462 9.5541L45.6267 9.08ZM44.8667 8.26L44.3367 9.108L44.3444 9.11282L44.3522 9.11749L44.8667 8.26ZM42.4667 8.26L42.0312 7.35984L42.4667 8.26ZM40.7267 10.26L39.7697 9.96999L39.6818 10.26L39.7697 10.55L40.7267 10.26ZM41.3867 11.44L40.6377 12.1026L40.6442 12.1099L40.6508 12.1171L41.3867 11.44ZM42.4667 12.24L42.0312 13.1402V13.1402L42.4667 12.24ZM44.8667 12.24L44.3522 11.3825L44.3444 11.3872L44.3367 11.392L44.8667 12.24ZM45.6267 11.44L44.7462 10.9659L44.7428 10.9722L44.7395 10.9786L45.6267 11.44ZM35.8467 5.5H40.9267V3.5H35.8467V5.5ZM39.9267 4.5V7.34H41.9267V4.5H39.9267ZM39.985 7.00366L39.785 7.56366L41.6685 8.23634L41.8685 7.67634L39.985 7.00366ZM39.7267 7.9V11.7H41.7267V7.9H39.7267ZM39.7428 11.8789L39.9428 12.9789L41.9106 12.6211L41.7106 11.5211L39.7428 11.8789ZM39.9267 12.8V19.3H41.9267V12.8H39.9267ZM40.9267 18.3H35.8467V20.3H40.9267V18.3ZM36.8467 19.3V4.5H34.8467V19.3H36.8467ZM40.4211 10.3658C40.5427 9.22258 40.8359 8.2817 41.2742 7.51751L39.5393 6.52249C38.9375 7.57163 38.5774 8.79076 38.4323 10.1542L40.4211 10.3658ZM41.2719 7.52153C41.7247 6.7404 42.297 6.16476 42.9872 5.76573L41.9862 4.03427C40.9697 4.62191 40.1554 5.4596 39.5416 6.51847L41.2719 7.52153ZM42.9973 5.75985C43.6826 5.35294 44.47 5.14 45.3867 5.14V3.14C44.1434 3.14 42.9975 3.43373 41.9762 4.04015L42.9973 5.75985ZM45.3867 5.14C46.3668 5.14 47.169 5.35746 47.8302 5.75629L48.8632 4.04371C47.8444 3.42921 46.6733 3.14 45.3867 3.14V5.14ZM47.8302 5.75629C48.5013 6.16105 49.0284 6.73049 49.4149 7.49238L51.1985 6.58762C50.6517 5.50951 49.8722 4.65228 48.8632 4.04371L47.8302 5.75629ZM49.4201 7.50257C49.8132 8.2559 50.0267 9.16515 50.0267 10.26H52.0267C52.0267 8.90152 51.7603 7.6641 51.1933 6.57743L49.4201 7.50257ZM50.0267 10.26C50.0267 11.3395 49.814 12.2426 49.4201 12.9974L51.1933 13.9226C51.7595 12.8374 52.0267 11.6071 52.0267 10.26H50.0267ZM49.4149 13.0076C49.0284 13.7695 48.5013 14.3389 47.8302 14.7437L48.8632 16.4563C49.8722 15.8477 50.6517 14.9905 51.1985 13.9124L49.4149 13.0076ZM47.8302 14.7437C47.169 15.1425 46.3668 15.36 45.3867 15.36V17.36C46.6733 17.36 47.8444 17.0708 48.8632 16.4563L47.8302 14.7437ZM45.3867 15.36C44.4543 15.36 43.6607 15.1459 42.9773 14.7401L41.9562 16.4599C42.9794 17.0674 44.1325 17.36 45.3867 17.36V15.36ZM42.9832 14.7437C42.2983 14.3306 41.7353 13.7516 41.2942 12.9825L39.5593 13.9775C40.1581 15.0217 40.9551 15.8561 41.9502 16.4563L42.9832 14.7437ZM41.2973 12.9879C40.8524 12.2008 40.5532 11.2585 40.4196 10.1413L38.4338 10.3787C38.5935 11.7148 38.961 12.9192 39.5562 13.9721L41.2973 12.9879ZM46.9067 10.26C46.9067 9.67428 46.7812 9.11474 46.5072 8.6059L44.7462 9.5541C44.8456 9.73859 44.9067 9.96572 44.9067 10.26H46.9067ZM46.5211 8.63279C46.2625 8.11548 45.8771 7.70005 45.3812 7.40251L44.3522 9.11749C44.523 9.21995 44.6443 9.35119 44.7323 9.52721L46.5211 8.63279ZM45.3967 7.412C44.8977 7.10014 44.3357 6.96 43.7467 6.96V8.96C44.0111 8.96 44.1957 9.01986 44.3367 9.108L45.3967 7.412ZM43.7467 6.96C43.1492 6.96 42.5742 7.09708 42.0312 7.35984L42.9023 9.16016C43.1859 9.02292 43.4642 8.96 43.7467 8.96V6.96ZM42.0312 7.35984C41.4977 7.61798 41.0314 7.97241 40.6377 8.41743L42.1357 9.74257C42.3554 9.49426 42.6091 9.30202 42.9023 9.16016L42.0312 7.35984ZM40.6377 8.41743C40.2364 8.87112 39.945 9.39133 39.7697 9.96999L41.6837 10.55C41.7751 10.2487 41.9237 9.98221 42.1357 9.74257L40.6377 8.41743ZM39.7697 10.55C39.945 11.1287 40.2364 11.6489 40.6377 12.1026L42.1357 10.7774C41.9237 10.5378 41.7751 10.2713 41.6837 9.96999L39.7697 10.55ZM40.6508 12.1171C41.0438 12.5443 41.5062 12.8861 42.0312 13.1402L42.9023 11.3398C42.6006 11.1939 42.3429 11.0024 42.1227 10.7629L40.6508 12.1171ZM42.0312 13.1402C42.5742 13.4029 43.1492 13.54 43.7467 13.54V11.54C43.4642 11.54 43.1859 11.4771 42.9023 11.3398L42.0312 13.1402ZM43.7467 13.54C44.3357 13.54 44.8977 13.3999 45.3967 13.088L44.3367 11.392C44.1957 11.4801 44.0111 11.54 43.7467 11.54V13.54ZM45.3812 13.0975C45.8672 12.8059 46.2523 12.4045 46.5139 11.9014L44.7395 10.9786C44.6545 11.1422 44.5329 11.2741 44.3522 11.3825L45.3812 13.0975ZM46.5072 11.9141C46.7812 11.4053 46.9067 10.8457 46.9067 10.26H44.9067C44.9067 10.5543 44.8456 10.7814 44.7462 10.9659L46.5072 11.9141ZM52.5264 4.5V3.5H51.5264V4.5H52.5264ZM57.6064 4.5H58.6064V3.5H57.6064V4.5ZM57.6064 7.34L58.5481 7.67634L58.6064 7.51321V7.34H57.6064ZM57.4064 7.9L56.4647 7.56366L56.4064 7.72679V7.9H57.4064ZM57.4064 11.7H56.4064V11.7902L56.4225 11.8789L57.4064 11.7ZM57.6064 12.8H58.6064V12.7098L58.5903 12.6211L57.6064 12.8ZM57.6064 19.3V20.3H58.6064V19.3H57.6064ZM52.5264 19.3H51.5264V20.3H52.5264V19.3ZM56.1064 10.26L55.112 10.1542L55.1001 10.2665L55.1135 10.3787L56.1064 10.26ZM57.0864 7.02L56.2213 6.51846L56.2189 6.52249L57.0864 7.02ZM59.1664 4.9L59.6669 5.76579L59.6769 5.75985L59.1664 4.9ZM65.0264 4.9L64.5099 5.75629V5.75629L65.0264 4.9ZM66.9864 7.04L66.0945 7.4924L66.0998 7.50257L66.9864 7.04ZM66.9864 13.46L66.0998 12.9974L66.0946 13.0076L66.9864 13.46ZM65.0264 15.6L64.5099 14.7437L65.0264 15.6ZM59.1464 15.6L58.6299 16.4563L58.6359 16.4599L59.1464 15.6ZM57.1064 13.48L56.2358 13.9721L56.2389 13.9775L57.1064 13.48ZM62.3064 9.08L61.412 9.52721L61.4188 9.54076L61.4259 9.5541L62.3064 9.08ZM61.5464 8.26L61.0164 9.108L61.0241 9.11282L61.0319 9.11749L61.5464 8.26ZM59.1464 8.26L58.7108 7.35984L59.1464 8.26ZM57.4064 10.26L56.4494 9.96999L56.3615 10.26L56.4494 10.55L57.4064 10.26ZM58.0664 11.44L57.3174 12.1026L57.3239 12.1099L57.3305 12.1171L58.0664 11.44ZM59.1464 12.24L58.7108 13.1402V13.1402L59.1464 12.24ZM61.5464 12.24L61.0319 11.3825L61.0241 11.3872L61.0164 11.392L61.5464 12.24ZM62.3064 11.44L61.4259 10.9659L61.4225 10.9722L61.4192 10.9786L62.3064 11.44ZM52.5264 5.5H57.6064V3.5H52.5264V5.5ZM56.6064 4.5V7.34H58.6064V4.5H56.6064ZM56.6647 7.00366L56.4647 7.56366L58.3481 8.23634L58.5481 7.67634L56.6647 7.00366ZM56.4064 7.9V11.7H58.4064V7.9H56.4064ZM56.4225 11.8789L56.6225 12.9789L58.5903 12.6211L58.3903 11.5211L56.4225 11.8789ZM56.6064 12.8V19.3H58.6064V12.8H56.6064ZM57.6064 18.3H52.5264V20.3H57.6064V18.3ZM53.5264 19.3V4.5H51.5264V19.3H53.5264ZM57.1008 10.3658C57.2224 9.22258 57.5156 8.2817 57.9539 7.51751L56.2189 6.52249C55.6172 7.57163 55.2571 8.79076 55.112 10.1542L57.1008 10.3658ZM57.9515 7.52153C58.4044 6.7404 58.9767 6.16476 59.6669 5.76573L58.6659 4.03427C57.6494 4.62191 56.8351 5.4596 56.2213 6.51847L57.9515 7.52153ZM59.6769 5.75985C60.3623 5.35294 61.1497 5.14 62.0664 5.14V3.14C60.8231 3.14 59.6772 3.43373 58.6559 4.04015L59.6769 5.75985ZM62.0664 5.14C63.0464 5.14 63.8487 5.35746 64.5099 5.75629L65.5429 4.04371C64.5241 3.42921 63.353 3.14 62.0664 3.14V5.14ZM64.5099 5.75629C65.181 6.16105 65.7081 6.73049 66.0946 7.49238L67.8782 6.58762C67.3314 5.50951 66.5518 4.65228 65.5429 4.04371L64.5099 5.75629ZM66.0998 7.50257C66.4929 8.2559 66.7064 9.16515 66.7064 10.26H68.7064C68.7064 8.90152 68.4399 7.6641 67.873 6.57743L66.0998 7.50257ZM66.7064 10.26C66.7064 11.3395 66.4936 12.2426 66.0998 12.9974L67.873 13.9226C68.4392 12.8374 68.7064 11.6071 68.7064 10.26H66.7064ZM66.0946 13.0076C65.7081 13.7695 65.181 14.3389 64.5099 14.7437L65.5429 16.4563C66.5518 15.8477 67.3314 14.9905 67.8782 13.9124L66.0946 13.0076ZM64.5099 14.7437C63.8487 15.1425 63.0464 15.36 62.0664 15.36V17.36C63.353 17.36 64.5241 17.0708 65.5429 16.4563L64.5099 14.7437ZM62.0664 15.36C61.1339 15.36 60.3404 15.1459 59.6569 14.7401L58.6359 16.4599C59.6591 17.0674 60.8122 17.36 62.0664 17.36V15.36ZM59.6629 14.7437C58.978 14.3306 58.415 13.7516 57.9739 12.9825L56.2389 13.9775C56.8378 15.0217 57.6348 15.8561 58.6299 16.4563L59.6629 14.7437ZM57.977 12.9879C57.5321 12.2008 57.2329 11.2585 57.0993 10.1413L55.1135 10.3787C55.2732 11.7148 55.6407 12.9192 56.2358 13.9721L57.977 12.9879ZM63.5864 10.26C63.5864 9.67428 63.4609 9.11474 63.1869 8.6059L61.4259 9.5541C61.5253 9.73859 61.5864 9.96572 61.5864 10.26H63.5864ZM63.2008 8.63279C62.9422 8.11548 62.5568 7.70005 62.0609 7.40251L61.0319 9.11749C61.2027 9.21995 61.324 9.35119 61.412 9.52721L63.2008 8.63279ZM62.0764 7.412C61.5774 7.10014 61.0154 6.96 60.4264 6.96V8.96C60.6908 8.96 60.8754 9.01986 61.0164 9.108L62.0764 7.412ZM60.4264 6.96C59.8289 6.96 59.2539 7.09708 58.7108 7.35984L59.582 9.16016C59.8656 9.02292 60.1439 8.96 60.4264 8.96V6.96ZM58.7108 7.35984C58.1774 7.61798 57.7111 7.97241 57.3174 8.41743L58.8154 9.74257C59.0351 9.49426 59.2888 9.30202 59.582 9.16016L58.7108 7.35984ZM57.3174 8.41743C56.9161 8.87112 56.6247 9.39133 56.4494 9.96999L58.3634 10.55C58.4547 10.2487 58.6034 9.98221 58.8154 9.74257L57.3174 8.41743ZM56.4494 10.55C56.6247 11.1287 56.9161 11.6489 57.3174 12.1026L58.8154 10.7774C58.6034 10.5378 58.4547 10.2713 58.3634 9.96999L56.4494 10.55ZM57.3305 12.1171C57.7235 12.5443 58.1858 12.8861 58.7108 13.1402L59.582 11.3398C59.2803 11.1939 59.0226 11.0024 58.8023 10.7629L57.3305 12.1171ZM58.7108 13.1402C59.2539 13.4029 59.8289 13.54 60.4264 13.54V11.54C60.1439 11.54 59.8656 11.4771 59.582 11.3398L58.7108 13.1402ZM60.4264 13.54C61.0154 13.54 61.5774 13.3999 62.0764 13.088L61.0164 11.392C60.8754 11.4801 60.6908 11.54 60.4264 11.54V13.54ZM62.0609 13.0975C62.5469 12.8059 62.932 12.4045 63.1936 11.9014L61.4192 10.9786C61.3342 11.1422 61.2126 11.2741 61.0319 11.3825L62.0609 13.0975ZM63.1869 11.9141C63.4609 11.4053 63.5864 10.8457 63.5864 10.26H61.5864C61.5864 10.5543 61.5253 10.7814 61.4259 10.9659L63.1869 11.9141ZM72.3861 15.6L71.965 16.507L71.9715 16.51L71.978 16.5129L72.3861 15.6ZM69.7261 13.44L68.9068 14.0135L68.9108 14.019L69.7261 13.44ZM69.6861 7.02L68.8691 6.44329L68.8635 6.45142L69.6861 7.02ZM72.2861 4.9L72.7066 5.80731V5.80731L72.2861 4.9ZM81.9061 7.52L81.0095 7.96279L81.0117 7.96721L81.9061 7.52ZM82.7061 11.32V12.32H83.7061V11.32H82.7061ZM72.9061 11.32H71.9061V12.32H72.9061V11.32ZM72.9061 8.98V7.98H71.9061V8.98H72.9061ZM79.7461 8.98L80.2339 9.85294L83.5855 7.98H79.7461V8.98ZM78.3861 9.74L77.3942 9.86716L77.5824 11.3347L78.8739 10.6129L78.3861 9.74ZM77.9861 8.44L77.1199 8.93972L77.9861 8.44ZM77.1861 7.66L76.6822 8.52378L76.7032 8.53601L76.7247 8.54722L77.1861 7.66ZM74.7261 7.72L74.1933 6.87377L74.186 6.87834L74.1788 6.88303L74.7261 7.72ZM73.9261 8.66L73.0199 8.23711L73.0167 8.24401L73.0136 8.25094L73.9261 8.66ZM74.0861 11.6L73.2424 12.1369L73.252 12.1519L73.2621 12.1665L74.0861 11.6ZM75.4061 12.58L75.0457 13.5128L75.4061 12.58ZM80.1461 12.6L80.3998 13.5673L80.4105 13.5644L80.1461 12.6ZM82.4261 11.64H83.4261V9.87963L81.914 10.7811L82.4261 11.64ZM82.4261 14.52L83.0013 15.338L83.4261 15.0393V14.52H82.4261ZM79.5061 15.9L79.7793 16.862L79.787 16.8597L79.5061 15.9ZM76.2261 15.36C74.9192 15.36 73.7814 15.1284 72.7942 14.6871L71.978 16.5129C73.2575 17.0849 74.6797 17.36 76.2261 17.36V15.36ZM72.8072 14.693C71.8296 14.2391 71.0848 13.6261 70.5414 12.861L68.9108 14.019C69.6741 15.0939 70.7026 15.9209 71.965 16.507L72.8072 14.693ZM70.5453 12.8665C70.0188 12.1144 69.7461 11.2381 69.7461 10.2H67.7461C67.7461 11.6153 68.1267 12.899 68.9069 14.0135L70.5453 12.8665ZM69.7461 10.2C69.7461 9.16839 70.0092 8.31134 70.5087 7.58858L68.8635 6.45142C68.1097 7.54199 67.7461 8.80494 67.7461 10.2H69.7461ZM70.5031 7.59668C71.0335 6.84517 71.758 6.24688 72.7066 5.80731L71.8656 3.99269C70.6275 4.56645 69.6186 5.3815 68.8691 6.44332L70.5031 7.59668ZM72.7066 5.80731C73.6521 5.36912 74.7326 5.14 75.9661 5.14V3.14C74.4796 3.14 73.1067 3.41755 71.8656 3.99269L72.7066 5.80731ZM75.9661 5.14C77.2556 5.14 78.2852 5.40449 79.1001 5.88252L80.1121 4.15747C78.9269 3.46218 77.5299 3.14 75.9661 3.14V5.14ZM79.1001 5.88252C79.9249 6.36642 80.559 7.05063 81.0095 7.96278L82.8027 7.07722C82.1865 5.82937 81.2873 4.84691 80.1121 4.15747L79.1001 5.88252ZM81.0117 7.96721C81.4614 8.86675 81.7061 9.97354 81.7061 11.32H83.7061C83.7061 9.73313 83.4174 8.30658 82.8005 7.07279L81.0117 7.96721ZM82.7061 10.32H72.9061V12.32H82.7061V10.32ZM73.9061 11.32V8.98H71.9061V11.32H73.9061ZM72.9061 9.98H79.7461V7.98H72.9061V9.98ZM79.2583 8.10706L77.8983 8.86706L78.8739 10.6129L80.2339 9.85294L79.2583 8.10706ZM79.378 9.61283C79.2994 9.00026 79.1355 8.43114 78.8523 7.94028L77.1199 8.93972C77.2367 9.14219 77.3394 9.43974 77.3942 9.86716L79.378 9.61283ZM78.8523 7.94028C78.5635 7.43977 78.1611 7.03987 77.6474 6.77278L76.7247 8.54722C76.8778 8.62679 77.0087 8.74689 77.1199 8.93972L78.8523 7.94028ZM77.69 6.79622C77.1862 6.50237 76.617 6.38 76.0261 6.38V8.38C76.3418 8.38 76.546 8.44429 76.6822 8.52378L77.69 6.79622ZM76.0261 6.38C75.3673 6.38 74.7411 6.52885 74.1933 6.87377L75.2589 8.56623C75.4311 8.45781 75.6716 8.38 76.0261 8.38V6.38ZM74.1788 6.88303C73.666 7.21838 73.2799 7.67992 73.0199 8.23711L74.8323 9.08288C74.9456 8.84007 75.0929 8.67496 75.2733 8.55697L74.1788 6.88303ZM73.0136 8.25094C72.7739 8.7857 72.6661 9.36864 72.6661 9.98H74.6661C74.6661 9.60469 74.7317 9.30764 74.8386 9.06906L73.0136 8.25094ZM72.6661 9.98C72.6661 10.7669 72.8393 11.5034 73.2424 12.1369L74.9298 11.0631C74.7729 10.8166 74.6661 10.4731 74.6661 9.98H72.6661ZM73.2621 12.1665C73.6921 12.792 74.312 13.2293 75.0457 13.5128L75.7665 11.6472C75.3268 11.4773 75.0668 11.2613 74.9101 11.0335L73.2621 12.1665ZM75.0457 13.5128C75.7847 13.7983 76.6572 13.92 77.6261 13.92V11.92C76.8083 11.92 76.2008 11.815 75.7665 11.6472L75.0457 13.5128ZM77.6261 13.92C78.5757 13.92 79.5011 13.803 80.3998 13.5673L79.8924 11.6327C79.1644 11.8237 78.4098 11.92 77.6261 11.92V13.92ZM80.4105 13.5644C81.3187 13.3154 82.1628 12.9612 82.9382 12.4989L81.914 10.7811C81.3028 11.1455 80.6268 11.4313 79.8817 11.6356L80.4105 13.5644ZM81.4261 11.64V14.52H83.4261V11.64H81.4261ZM81.8509 13.702C81.0951 14.2334 80.223 14.6482 79.2252 14.9403L79.787 16.8597C80.9759 16.5118 82.0504 16.0066 83.0013 15.338L81.8509 13.702ZM79.2329 14.938C78.2405 15.2198 77.2391 15.36 76.2261 15.36V17.36C77.4265 17.36 78.6117 17.1935 79.7792 16.862L79.2329 14.938ZM83.5684 4.5V3.5H82.3486L82.5879 4.69612L83.5684 4.5ZM88.7684 4.5L89.7547 4.33481L89.6149 3.5H88.7684V4.5ZM89.4484 8.56H90.4484V8.47684L90.4347 8.39481L89.4484 8.56ZM89.4484 16V17H90.4484V16H89.4484ZM84.3684 16H83.3684V17H84.3684V16ZM84.3684 8.5H85.3684V8.40098L85.349 8.30388L84.3684 8.5ZM94.5284 4.26H95.5284V3.40551L94.6844 3.27224L94.5284 4.26ZM94.5284 8.56L94.3547 9.54478L95.5284 9.75192V8.56H94.5284ZM93.3084 8.4L93.198 9.39388L93.2163 9.39591L93.2346 9.39727L93.3084 8.4ZM90.9284 8.62L91.295 9.55041L91.307 9.54565L91.319 9.54058L90.9284 8.62ZM89.8484 9.58L88.9909 9.0655L88.9855 9.07463L88.9802 9.08386L89.8484 9.58ZM89.4484 11.58L88.6689 12.2064L90.4484 14.4209V11.58H89.4484ZM88.5484 10.46L87.5612 10.3008L87.4904 10.7398L87.7689 11.0864L88.5484 10.46ZM89.0484 8.1L88.0856 7.82972L88.0825 7.84126L89.0484 8.1ZM89.8884 6.08L90.7494 6.58875L90.7543 6.58028L89.8884 6.08ZM91.2084 4.66L91.7534 5.49844V5.49844L91.2084 4.66ZM93.8284 4.18L93.7044 5.17228L93.7351 5.17612L93.7661 5.17805L93.8284 4.18ZM83.5684 5.5H88.7684V3.5H83.5684V5.5ZM87.7822 4.66519L88.4622 8.72519L90.4347 8.39481L89.7547 4.33481L87.7822 4.66519ZM88.4484 8.56V16H90.4484V8.56H88.4484ZM89.4484 15H84.3684V17H89.4484V15ZM85.3684 16V8.5H83.3684V16H85.3684ZM85.349 8.30388L84.549 4.30388L82.5879 4.69612L83.3879 8.69612L85.349 8.30388ZM93.5284 4.26V8.56H95.5284V4.26H93.5284ZM94.7022 7.57522C94.2243 7.49088 93.7834 7.43244 93.3823 7.40273L93.2346 9.39727C93.5534 9.42089 93.9259 9.46912 94.3547 9.54478L94.7022 7.57522ZM93.4189 7.40612C93.0322 7.36315 92.6742 7.34 92.3484 7.34V9.34C92.5827 9.34 92.8647 9.35684 93.198 9.39388L93.4189 7.40612ZM92.3484 7.34C91.7158 7.34 91.1087 7.45724 90.5379 7.69942L91.319 9.54058C91.6281 9.40943 91.9678 9.34 92.3484 9.34V7.34ZM90.5619 7.68959C89.8868 7.95555 89.3664 8.43966 88.9909 9.0655L90.7059 10.0945C90.8904 9.787 91.0901 9.63112 91.295 9.55041L90.5619 7.68959ZM88.9802 9.08386C88.5896 9.76734 88.4484 10.6351 88.4484 11.58H90.4484C90.4484 10.7916 90.5739 10.326 90.7167 10.0761L88.9802 9.08386ZM90.2279 10.9536L89.3279 9.83361L87.7689 11.0864L88.6689 12.2064L90.2279 10.9536ZM89.5357 10.6192C89.664 9.82334 89.8239 9.07004 90.0144 8.35874L88.0825 7.84126C87.873 8.62329 87.6995 9.44333 87.5612 10.3008L89.5357 10.6192ZM90.0112 8.37026C90.2047 7.68095 90.4532 7.08996 90.7494 6.58873L89.0275 5.57127C88.6304 6.24337 88.3188 6.99905 88.0856 7.82974L90.0112 8.37026ZM90.7543 6.58028C91.0293 6.10427 91.3637 5.75174 91.7534 5.49844L90.6635 3.82156C89.9865 4.26159 89.4409 4.85573 89.0226 5.57972L90.7543 6.58028ZM91.7534 5.49844C92.0874 5.28138 92.5522 5.14 93.2084 5.14V3.14C92.2647 3.14 91.3962 3.34529 90.6635 3.82156L91.7534 5.49844ZM93.2084 5.14C93.364 5.14 93.5292 5.15037 93.7044 5.17228L93.9525 3.18772C93.701 3.15629 93.4529 3.14 93.2084 3.14V5.14ZM93.7661 5.17805C93.9426 5.18909 94.1443 5.21173 94.3725 5.24776L94.6844 3.27224C94.406 3.22827 94.1409 3.19758 93.8908 3.18195L93.7661 5.17805Z" fill="black" mask="url(#path-1-outside-1_31979_1747)"/>
</g>
<defs>
<filter id="filter0_d_31979_1747" x="0.110535" y="0" width="95.4179" height="22.3" filterUnits="userSpaceOnUse" color-interpolation-filters="sRGB">
<feFlood flood-opacity="0" result="BackgroundImageFix"/>
<feColorMatrix in="SourceAlpha" type="matrix" values="0 0 0 0 0 0 0 0 0 0 0 0 0 0 0 0 0 0 127 0" result="hardAlpha"/>
<feOffset dy="2"/>
<feComposite in2="hardAlpha" operator="out"/>
<feColorMatrix type="matrix" values="0 0 0 0 0 0 0 0 0 0 0 0 0 0 0 0 0 0 0.5 0"/>
<feBlend mode="normal" in2="BackgroundImageFix" result="effect1_dropShadow_31979_1747"/>
<feBlend mode="normal" in="SourceGraphic" in2="effect1_dropShadow_31979_1747" result="shape"/>
</filter>
</defs>
</svg>
