<svg width="1544" height="235" viewBox="0 0 1544 235" fill="none" xmlns="http://www.w3.org/2000/svg"><g filter="url(#a)"><path d="m1231.66 204.489 18.54-70.123c.53-1.989 3.35-1.984 3.87.007l18.28 70.123a2.002 2.002 0 0 1-1.94 2.504h-36.81a2.008 2.008 0 0 1-1.94-2.511z" fill="#003958"/><path d="m1231.66 204.489 18.54-70.123c.53-1.989 3.35-1.984 3.87.007l18.28 70.123a2.002 2.002 0 0 1-1.94 2.504h-36.81a2.008 2.008 0 0 1-1.94-2.511z" stroke="#000"/></g><g filter="url(#b)"><path d="m1494.66 204.489 18.54-70.123c.53-1.989 3.35-1.984 3.87.007l18.28 70.123a2.002 2.002 0 0 1-1.94 2.504h-36.81a2.008 2.008 0 0 1-1.94-2.511z" fill="#003958"/><path d="m1494.66 204.489 18.54-70.123c.53-1.989 3.35-1.984 3.87.007l18.28 70.123a2.002 2.002 0 0 1-1.94 2.504h-36.81a2.008 2.008 0 0 1-1.94-2.511z" stroke="#000"/></g><g filter="url(#c)"><path d="m557.675 204.482 32.379-120.728c.531-1.98 3.342-1.974 3.866.007l31.916 120.728a2 2 0 0 1-1.933 2.511h-64.296a2 2 0 0 1-1.932-2.518z" fill="#003958"/><path d="m557.675 204.482 32.379-120.728c.531-1.98 3.342-1.974 3.866.007l31.916 120.728a2 2 0 0 1-1.933 2.511h-64.296a2 2 0 0 1-1.932-2.518z" stroke="#000"/></g><g filter="url(#d)"><path d="m849.675 204.482 32.379-120.728c.531-1.98 3.342-1.974 3.866.007l31.916 120.728a2 2 0 0 1-1.933 2.511h-64.296a2 2 0 0 1-1.932-2.518z" fill="#003958"/><path d="m849.675 204.482 32.379-120.728c.531-1.98 3.342-1.974 3.866.007l31.916 120.728a2 2 0 0 1-1.933 2.511h-64.296a2 2 0 0 1-1.932-2.518z" stroke="#000"/></g><g filter="url(#e)"><path d="m464.667 204.487 26.595-100.155c.527-1.986 3.347-1.981 3.868.007l26.214 100.155a2 2 0 0 1-1.935 2.506H466.6a2 2 0 0 1-1.933-2.513z" fill="#003958"/><path d="m464.667 204.487 26.595-100.155c.527-1.986 3.347-1.981 3.868.007l26.214 100.155a2 2 0 0 1-1.935 2.506H466.6a2 2 0 0 1-1.933-2.513z" stroke="#000"/></g><g filter="url(#f)"><path d="m158.667 204.487 26.595-100.155c.527-1.986 3.347-1.981 3.868.007l26.214 100.155a2 2 0 0 1-1.935 2.506H160.6a2 2 0 0 1-1.933-2.513z" fill="#003958"/><path d="m158.667 204.487 26.595-100.155c.527-1.986 3.347-1.981 3.868.007l26.214 100.155a2 2 0 0 1-1.935 2.506H160.6a2 2 0 0 1-1.933-2.513z" stroke="#000"/></g><g filter="url(#g)"><path d="m247.661 204.491 14.513-55.096c.525-1.991 3.353-1.986 3.87.007l14.306 55.095a2 2 0 0 1-1.936 2.503h-28.819a2 2 0 0 1-1.934-2.509z" fill="#003958"/><path d="m247.661 204.491 14.513-55.096c.525-1.991 3.353-1.986 3.87.007l14.306 55.095a2 2 0 0 1-1.936 2.503h-28.819a2 2 0 0 1-1.934-2.509z" stroke="#000"/></g><g filter="url(#h)"><path d="m776.661 204.491 14.513-55.096c.525-1.991 3.353-1.986 3.87.007l14.306 55.095a2 2 0 0 1-1.936 2.503h-28.819a2 2 0 0 1-1.934-2.509z" fill="#003958"/><path d="m776.661 204.491 14.513-55.096c.525-1.991 3.353-1.986 3.87.007l14.306 55.095a2 2 0 0 1-1.936 2.503h-28.819a2 2 0 0 1-1.934-2.509z" stroke="#000"/></g><g filter="url(#i)"><path d="m.661 204.491 14.513-55.096c.525-1.991 3.353-1.986 3.87.007l14.306 55.095A2 2 0 0 1 31.414 207H2.595a2 2 0 0 1-1.934-2.509z" fill="#003958"/><path d="m.661 204.491 14.513-55.096c.525-1.991 3.353-1.986 3.87.007l14.306 55.095A2 2 0 0 1 31.414 207H2.595a2 2 0 0 1-1.934-2.509z" stroke="#000"/></g><g filter="url(#j)"><path d="m1057.67 204.487 26.59-100.155c.53-1.986 3.35-1.981 3.87.007l26.21 100.155a1.993 1.993 0 0 1-1.93 2.506h-52.81a1.998 1.998 0 0 1-1.93-2.513z" fill="#003958"/><path d="m1057.67 204.487 26.59-100.155c.53-1.986 3.35-1.981 3.87.007l26.21 100.155a1.993 1.993 0 0 1-1.93 2.506h-52.81a1.998 1.998 0 0 1-1.93-2.513z" stroke="#000"/></g><g filter="url(#k)"><path d="m1411.67 204.486 30.62-115.165c.53-1.985 3.35-1.98 3.87.007l30.18 115.165a1.994 1.994 0 0 1-1.93 2.507h-60.81a1.999 1.999 0 0 1-1.93-2.514z" fill="#003958"/><path d="m1411.67 204.486 30.62-115.165c.53-1.985 3.35-1.98 3.87.007l30.18 115.165a1.994 1.994 0 0 1-1.93 2.507h-60.81a1.999 1.999 0 0 1-1.93-2.514z" stroke="#000"/></g><g filter="url(#l)"><path d="m1262.66 204.489 23.58-89.127c.53-1.988 3.35-1.983 3.87.007l23.24 89.126a2.003 2.003 0 0 1-1.94 2.505h-46.81a2.008 2.008 0 0 1-1.94-2.511z" fill="#003958"/><path d="m1262.66 204.489 23.58-89.127c.53-1.988 3.35-1.983 3.87.007l23.24 89.126a2.003 2.003 0 0 1-1.94 2.505h-46.81a2.008 2.008 0 0 1-1.94-2.511z" stroke="#000"/></g><g filter="url(#m)"><path d="M921.951 169.557c14.826-32.799 18.956-65.66 25.701-65.66 9.358 4.991 63.518 99.001 56.768 103.083-6.744 4.083-19.799-3.118-23.453-8.505 5.059 8.222 11.466 25.006-3.372 26.367-14.838 1.36-23.606-15.31-26.136-23.815-1.686 7.371-7.419 22.114-16.862 22.114-9.442 0-7.868-10.774-5.901-16.161-7.026 5.387-13.551 13.969-20.97 9.206-9.274-5.953 0-15.159 14.225-46.629z" fill="#025B8C"/><path d="M921.951 169.557c14.826-32.799 18.956-65.66 25.701-65.66 9.358 4.991 63.518 99.001 56.768 103.083-6.744 4.083-19.799-3.118-23.453-8.505 5.059 8.222 11.466 25.006-3.372 26.367-14.838 1.36-23.606-15.31-26.136-23.815-1.686 7.371-7.419 22.114-16.862 22.114-9.442 0-7.868-10.774-5.901-16.161-7.026 5.387-13.551 13.969-20.97 9.206-9.274-5.953 0-15.159 14.225-46.629z" stroke="#000"/></g><g filter="url(#n)"><path d="M949.386 90.797c13.725 1.248 34.935 54.897 41.173 64.878 6.238 9.982 3.119 12.477 0 13.101-2.495.499-11.437-3.119-15.596-4.991 1.248 2.703 2.995 8.484 0 9.981-2.994 1.498-8.733-5.198-11.229-8.733 1.248 4.782 2.371 14.597-3.119 15.595-5.489.999-7.694-9.981-8.11-15.595-.207 7.07-2.37 21.21-9.357 21.21-6.249 0-6.643-10.314-5.912-17.104-.826 4.799-3.118 11.489-7.812 11.489-5.25 0-4.452-5.705-3.281-8.932-1.48 3.627-6.463 9.892-16.058 8.932-12.477-1.247 28.072-89.831 39.301-89.831z" fill="#025B8C"/><path d="M949.386 90.797c13.725 1.248 34.935 54.897 41.173 64.878 6.238 9.982 3.119 12.477 0 13.101-2.495.499-11.437-3.119-15.596-4.991 1.248 2.703 2.995 8.484 0 9.981-2.994 1.498-8.733-5.198-11.229-8.733 1.248 4.782 2.371 14.597-3.119 15.595-5.489.999-7.694-9.981-8.11-15.595-.207 7.07-2.37 21.21-9.357 21.21-6.249 0-6.643-10.314-5.912-17.104-.826 4.799-3.118 11.489-7.812 11.489-5.25 0-4.452-5.705-3.281-8.932-1.48 3.627-6.463 9.892-16.058 8.932-12.477-1.247 28.072-89.831 39.301-89.831z" stroke="#000"/></g><g filter="url(#o)"><path d="M974.338 102.649C959.367 80.815 961.238 49 956.247 49c-8.733 0-46.163 79.226-39.925 82.969 4.991 2.995 11.645-4.158 14.348-8.109-3.743 6.03-8.484 18.34 2.496 19.338 10.979.999 17.467-11.229 19.338-17.467 1.248 5.407 5.49 16.22 12.477 16.22s5.822-7.902 4.367-11.853c5.198 3.951 16.968 10.979 22.458 7.486 6.862-4.367-2.496-13.101-17.468-34.935z" fill="#156D9D"/><path d="M974.338 102.649C959.367 80.815 961.238 49 956.247 49c-8.733 0-46.163 79.226-39.925 82.969 4.991 2.995 11.645-4.158 14.348-8.109-3.743 6.03-8.484 18.34 2.496 19.338 10.979.999 17.467-11.229 19.338-17.467 1.248 5.407 5.49 16.22 12.477 16.22s5.822-7.902 4.367-11.853c5.198 3.951 16.968 10.979 22.458 7.486 6.862-4.367-2.496-13.101-17.468-34.935z" stroke="#000"/></g><g filter="url(#p)"><path d="M96.951 169.557c14.826-32.799 18.956-65.66 25.701-65.66 9.358 4.991 63.513 99.001 56.768 103.083-6.744 4.083-19.799-3.118-23.453-8.505 5.059 8.222 11.466 25.006-3.372 26.367-14.838 1.36-23.606-15.31-26.136-23.815-1.686 7.371-7.419 22.114-16.862 22.114-9.442 0-7.868-10.774-5.901-16.161-7.026 5.387-13.55 13.969-20.97 9.206-9.274-5.953 0-15.159 14.225-46.629z" fill="#025B8C"/><path d="M96.951 169.557c14.826-32.799 18.956-65.66 25.701-65.66 9.358 4.991 63.513 99.001 56.768 103.083-6.744 4.083-19.799-3.118-23.453-8.505 5.059 8.222 11.466 25.006-3.372 26.367-14.838 1.36-23.606-15.31-26.136-23.815-1.686 7.371-7.419 22.114-16.862 22.114-9.442 0-7.868-10.774-5.901-16.161-7.026 5.387-13.55 13.969-20.97 9.206-9.274-5.953 0-15.159 14.225-46.629z" stroke="#000"/></g><g filter="url(#q)"><path d="M124.386 90.796C138.111 92.044 165.761 150.52 172 160.5c6.238 9.981 2.603 18.301 0 20.128-8 5.614-17-14.628-18-16.628 0 0-1.042 18.003-4.037 19.5-2.994 1.497-8.733-14.933-11.229-18.468 1.248 4.783 2.371 14.598-3.119 15.596-5.489.998-7.694-9.981-8.11-15.596-.207 7.07-2.37 21.21-9.357 21.21-6.249 0-6.643-10.313-5.912-17.104-.826 4.8-3.118 11.49-7.812 11.49-5.25 0-4.452-5.706-3.281-8.932-1.48 3.627-6.463 9.891-16.058 8.932-12.476-1.248 28.072-89.832 39.301-89.832z" fill="#025B8C"/><path d="M124.386 90.796C138.111 92.044 165.761 150.52 172 160.5c6.238 9.981 2.603 18.301 0 20.128-8 5.614-17-14.628-18-16.628 0 0-1.042 18.003-4.037 19.5-2.994 1.497-8.733-14.933-11.229-18.468 1.248 4.783 2.371 14.598-3.119 15.596-5.489.998-7.694-9.981-8.11-15.596-.207 7.07-2.37 21.21-9.357 21.21-6.249 0-6.643-10.313-5.912-17.104-.826 4.8-3.118 11.49-7.812 11.49-5.25 0-4.452-5.706-3.281-8.932-1.48 3.627-6.463 9.891-16.058 8.932-12.476-1.248 28.072-89.832 39.301-89.832z" stroke="#000"/></g><g filter="url(#r)"><path d="M393.8 119c10.805 1.242 32.575 59.443 37.487 69.378 4.912 9.934 2.05 18.215 0 20.034-6.299 5.588-13.385-14.56-14.172-16.551 0 0-.82 17.919-3.178 19.409-2.357 1.491-6.876-14.863-8.84-18.381.982 4.76 1.866 14.529-2.456 15.523-4.322.993-6.058-9.935-6.385-15.523-.164 7.037-1.867 21.111-7.368 21.111-4.92 0-5.23-10.265-4.655-17.024-.65 4.777-2.454 11.436-6.15 11.436-4.134 0-3.505-5.68-2.583-8.891-1.166 3.61-5.089 9.846-12.643 8.891C353.034 207.17 384.959 119 393.8 119z" fill="#025B8C"/><path d="M393.8 119c10.805 1.242 32.575 59.443 37.487 69.378 4.912 9.934 2.05 18.215 0 20.034-6.299 5.588-13.385-14.56-14.172-16.551 0 0-.82 17.919-3.178 19.409-2.357 1.491-6.876-14.863-8.84-18.381.982 4.76 1.866 14.529-2.456 15.523-4.322.993-6.058-9.935-6.385-15.523-.164 7.037-1.867 21.111-7.368 21.111-4.92 0-5.23-10.265-4.655-17.024-.65 4.777-2.454 11.436-6.15 11.436-4.134 0-3.505-5.68-2.583-8.891-1.166 3.61-5.089 9.846-12.643 8.891C353.034 207.17 384.959 119 393.8 119z" stroke="#000"/></g><g filter="url(#s)"><path d="M147.442 104c-5.651-8.241-17.504-23-22.495-23-8.733 0-42.42 51.726-36.182 55.469 4.991 2.995 11.645-4.159 14.348-8.109-3.743 6.03-8.484 18.34 2.496 19.338 10.979.998 17.467-11.229 19.338-17.467 1.248 5.407 5.49 16.22 12.477 16.22s5.822-7.902 4.367-11.853c5.198 3.951 16.968 10.979 22.458 7.486 6.862-4.367-1.835-16.25-16.807-38.084z" fill="#156D9D"/><path d="M147.442 104c-5.651-8.241-17.504-23-22.495-23-8.733 0-42.42 51.726-36.182 55.469 4.991 2.995 11.645-4.159 14.348-8.109-3.743 6.03-8.484 18.34 2.496 19.338 10.979.998 17.467-11.229 19.338-17.467 1.248 5.407 5.49 16.22 12.477 16.22s5.822-7.902 4.367-11.853c5.198 3.951 16.968 10.979 22.458 7.486 6.862-4.367-1.835-16.25-16.807-38.084z" stroke="#000"/></g><g filter="url(#t)"><path d="M412.382 132.084C407.783 123.813 398.135 109 394.073 109c-7.109 0-34.528 51.916-29.45 55.672 4.062 3.006 9.478-4.174 11.678-8.139-3.046 6.052-6.905 18.407 2.031 19.409 8.937 1.002 14.218-11.27 15.741-17.531 1.016 5.426 4.468 16.279 10.155 16.279 5.687 0 4.739-7.931 3.555-11.896 4.231 3.965 13.811 11.019 18.279 7.513 5.586-4.383-1.493-16.309-13.68-38.223z" fill="#156D9D"/><path d="M412.382 132.084C407.783 123.813 398.135 109 394.073 109c-7.109 0-34.528 51.916-29.45 55.672 4.062 3.006 9.478-4.174 11.678-8.139-3.046 6.052-6.905 18.407 2.031 19.409 8.937 1.002 14.218-11.27 15.741-17.531 1.016 5.426 4.468 16.279 10.155 16.279 5.687 0 4.739-7.931 3.555-11.896 4.231 3.965 13.811 11.019 18.279 7.513 5.586-4.383-1.493-16.309-13.68-38.223z" stroke="#000"/></g><path d="M657.492 217.364c-6.017-4.955 45.122-151.738 48.662-151.738 3.54 0 2.654 3.094 18.581 53.084 16.736 52.529 30.083 96.884 21.677 96.884-6.724 0-13.714-10.912-16.368-16.368.589 5.456.354 16.368-5.309 16.368s-8.848-12.387-9.733-18.58c-.295 9.29-2.389 27.693-8.405 26.986-6.017-.708-11.355-15.337-13.272-22.562-2.359 5.308-8.228 15.572-12.829 14.156-4.601-1.416-1.917-15.631 0-22.562-5.161 10.175-16.988 29.286-23.004 24.332z" fill="#025B8C" stroke="#000"/><g filter="url(#u)"><path d="M657.492 177.549c-6.017-4.955 45.122-151.738 48.662-151.738 3.54 0 2.654 3.095 18.581 53.084 16.736 52.529 30.083 96.884 21.677 96.884-6.724 0-13.714-10.912-16.368-16.368.589 5.456.354 16.368-5.309 16.368s-8.848-12.387-9.733-18.58c-.295 9.29-2.389 27.693-8.405 26.986-6.017-.708-11.355-15.337-13.272-22.562-2.359 5.308-8.228 15.572-12.829 14.156-4.601-1.415-1.917-15.631 0-22.562-5.161 10.175-16.988 29.286-23.004 24.332z" fill="#025B8C"/><path d="M657.492 177.549c-6.017-4.955 45.122-151.738 48.662-151.738 3.54 0 2.654 3.095 18.581 53.084 16.736 52.529 30.083 96.884 21.677 96.884-6.724 0-13.714-10.912-16.368-16.368.589 5.456.354 16.368-5.309 16.368s-8.848-12.387-9.733-18.58c-.295 9.29-2.389 27.693-8.405 26.986-6.017-.708-11.355-15.337-13.272-22.562-2.359 5.308-8.228 15.572-12.829 14.156-4.601-1.415-1.917-15.631 0-22.562-5.161 10.175-16.988 29.286-23.004 24.332z" stroke="#000"/></g><g filter="url(#v)"><path d="M665.371 125.635c-4.976-4.069 37.32-124.598 40.248-124.598 2.928 0 2.195 2.541 15.368 43.59 13.842 43.133 24.881 79.555 17.929 79.555-5.562 0-11.343-8.961-13.538-13.441.488 4.48.292 13.441-4.391 13.441s-7.318-10.172-8.05-15.257c-.244 7.628-1.975 22.74-6.952 22.159-4.976-.581-9.391-12.593-10.976-18.527-1.952 4.359-6.806 12.787-10.611 11.625-3.805-1.163-1.586-12.836 0-18.527-4.269 8.355-14.051 24.048-19.027 19.98z" fill="#156D9D"/><path d="M665.371 125.635c-4.976-4.069 37.32-124.598 40.248-124.598 2.928 0 2.195 2.541 15.368 43.59 13.842 43.133 24.881 79.555 17.929 79.555-5.562 0-11.343-8.961-13.538-13.441.488 4.48.292 13.441-4.391 13.441s-7.318-10.172-8.05-15.257c-.244 7.628-1.975 22.74-6.952 22.159-4.976-.581-9.391-12.593-10.976-18.527-1.952 4.359-6.806 12.787-10.611 11.625-3.805-1.163-1.586-12.836 0-18.527-4.269 8.355-14.051 24.048-19.027 19.98z" stroke="#000"/></g><path d="M1304.42 218.348c-5.13-4.222 38.45-129.307 41.47-129.307 3.01 0 2.26 2.637 15.83 45.237 14.26 44.764 25.64 82.562 18.47 82.562-5.73 0-11.68-9.299-13.94-13.949.5 4.65.3 13.949-4.53 13.949-4.82 0-7.54-10.556-8.29-15.834-.25 7.917-2.04 23.6-7.16 22.997-5.13-.603-9.68-13.069-11.31-19.227-2.02 4.524-7.02 13.27-10.94 12.064-3.92-1.207-1.63-13.321 0-19.227-4.4 8.671-14.47 24.957-19.6 20.735z" fill="#025B8C" stroke="#000"/><g filter="url(#w)"><path d="M1304.42 184.419c-5.13-4.223 38.45-129.307 41.47-129.307 3.01 0 2.26 2.637 15.83 45.237 14.26 44.764 25.64 82.562 18.47 82.562-5.73 0-11.68-9.3-13.94-13.949.5 4.649.3 13.949-4.53 13.949-4.82 0-7.54-10.556-8.29-15.834-.25 7.917-2.04 23.6-7.16 22.997-5.13-.604-9.68-13.07-11.31-19.227-2.02 4.524-7.02 13.27-10.94 12.064-3.92-1.207-1.63-13.321 0-19.227-4.4 8.671-14.47 24.957-19.6 20.735z" fill="#025B8C"/><path d="M1304.42 184.419c-5.13-4.223 38.45-129.307 41.47-129.307 3.01 0 2.26 2.637 15.83 45.237 14.26 44.764 25.64 82.562 18.47 82.562-5.73 0-11.68-9.3-13.94-13.949.5 4.649.3 13.949-4.53 13.949-4.82 0-7.54-10.556-8.29-15.834-.25 7.917-2.04 23.6-7.16 22.997-5.13-.604-9.68-13.07-11.31-19.227-2.02 4.524-7.02 13.27-10.94 12.064-3.92-1.207-1.63-13.321 0-19.227-4.4 8.671-14.47 24.957-19.6 20.735z" stroke="#000"/></g><g filter="url(#x)"><path d="M1311.13 140.179c-4.24-3.467 31.8-106.179 34.3-106.179 2.49 0 1.87 2.165 13.1 37.146 11.79 36.757 21.2 67.795 15.27 67.795-4.74 0-9.66-7.636-11.53-11.454.41 3.818.25 11.454-3.74 11.454-4 0-6.24-8.668-6.86-13.002-.21 6.501-1.69 19.379-5.93 18.883-4.24-.495-8-10.731-9.35-15.787-1.67 3.714-5.8 10.896-9.04 9.906-3.25-.991-1.36-10.938 0-15.788-3.64 7.12-11.98 20.493-16.22 17.026z" fill="#156D9D"/><path d="M1311.13 140.179c-4.24-3.467 31.8-106.179 34.3-106.179 2.49 0 1.87 2.165 13.1 37.146 11.79 36.757 21.2 67.795 15.27 67.795-4.74 0-9.66-7.636-11.53-11.454.41 3.818.25 11.454-3.74 11.454-4 0-6.24-8.668-6.86-13.002-.21 6.501-1.69 19.379-5.93 18.883-4.24-.495-8-10.731-9.35-15.787-1.67 3.714-5.8 10.896-9.04 9.906-3.25-.991-1.36-10.938 0-15.788-3.64 7.12-11.98 20.493-16.22 17.026z" stroke="#000"/></g><defs><filter id="a" x="1231.1" y="132.377" width="41.816" height="81.123" filterUnits="userSpaceOnUse" color-interpolation-filters="sRGB"><feFlood flood-opacity="0" result="BackgroundImageFix"/><feColorMatrix in="SourceAlpha" values="0 0 0 0 0 0 0 0 0 0 0 0 0 0 0 0 0 0 127 0" result="hardAlpha"/><feOffset dy="6"/><feComposite in2="hardAlpha" operator="out"/><feColorMatrix values="0 0 0 0 0 0 0 0 0 0 0 0 0 0 0 0 0 0 0.25 0"/><feBlend in2="BackgroundImageFix" result="effect1_dropShadow_22057_76"/><feBlend in="SourceGraphic" in2="effect1_dropShadow_22057_76" result="shape"/></filter><filter id="b" x="1494.1" y="132.377" width="41.816" height="81.123" filterUnits="userSpaceOnUse" color-interpolation-filters="sRGB"><feFlood flood-opacity="0" result="BackgroundImageFix"/><feColorMatrix in="SourceAlpha" values="0 0 0 0 0 0 0 0 0 0 0 0 0 0 0 0 0 0 127 0" result="hardAlpha"/><feOffset dy="6"/><feComposite in2="hardAlpha" operator="out"/><feColorMatrix values="0 0 0 0 0 0 0 0 0 0 0 0 0 0 0 0 0 0 0.25 0"/><feBlend in2="BackgroundImageFix" result="effect1_dropShadow_22057_76"/><feBlend in="SourceGraphic" in2="effect1_dropShadow_22057_76" result="shape"/></filter><filter id="c" x="557.105" y="81.772" width="69.297" height="131.728" filterUnits="userSpaceOnUse" color-interpolation-filters="sRGB"><feFlood flood-opacity="0" result="BackgroundImageFix"/><feColorMatrix in="SourceAlpha" values="0 0 0 0 0 0 0 0 0 0 0 0 0 0 0 0 0 0 127 0" result="hardAlpha"/><feOffset dy="6"/><feComposite in2="hardAlpha" operator="out"/><feColorMatrix values="0 0 0 0 0 0 0 0 0 0 0 0 0 0 0 0 0 0 0.25 0"/><feBlend in2="BackgroundImageFix" result="effect1_dropShadow_22057_76"/><feBlend in="SourceGraphic" in2="effect1_dropShadow_22057_76" result="shape"/></filter><filter id="d" x="849.105" y="81.772" width="69.297" height="131.728" filterUnits="userSpaceOnUse" color-interpolation-filters="sRGB"><feFlood flood-opacity="0" result="BackgroundImageFix"/><feColorMatrix in="SourceAlpha" values="0 0 0 0 0 0 0 0 0 0 0 0 0 0 0 0 0 0 127 0" result="hardAlpha"/><feOffset dy="6"/><feComposite in2="hardAlpha" operator="out"/><feColorMatrix values="0 0 0 0 0 0 0 0 0 0 0 0 0 0 0 0 0 0 0.25 0"/><feBlend in2="BackgroundImageFix" result="effect1_dropShadow_22057_76"/><feBlend in="SourceGraphic" in2="effect1_dropShadow_22057_76" result="shape"/></filter><filter id="e" x="464.098" y="102.345" width="57.813" height="111.155" filterUnits="userSpaceOnUse" color-interpolation-filters="sRGB"><feFlood flood-opacity="0" result="BackgroundImageFix"/><feColorMatrix in="SourceAlpha" values="0 0 0 0 0 0 0 0 0 0 0 0 0 0 0 0 0 0 127 0" result="hardAlpha"/><feOffset dy="6"/><feComposite in2="hardAlpha" operator="out"/><feColorMatrix values="0 0 0 0 0 0 0 0 0 0 0 0 0 0 0 0 0 0 0.25 0"/><feBlend in2="BackgroundImageFix" result="effect1_dropShadow_22057_76"/><feBlend in="SourceGraphic" in2="effect1_dropShadow_22057_76" result="shape"/></filter><filter id="f" x="158.098" y="102.345" width="57.813" height="111.155" filterUnits="userSpaceOnUse" color-interpolation-filters="sRGB"><feFlood flood-opacity="0" result="BackgroundImageFix"/><feColorMatrix in="SourceAlpha" values="0 0 0 0 0 0 0 0 0 0 0 0 0 0 0 0 0 0 127 0" result="hardAlpha"/><feOffset dy="6"/><feComposite in2="hardAlpha" operator="out"/><feColorMatrix values="0 0 0 0 0 0 0 0 0 0 0 0 0 0 0 0 0 0 0.25 0"/><feBlend in2="BackgroundImageFix" result="effect1_dropShadow_22057_76"/><feBlend in="SourceGraphic" in2="effect1_dropShadow_22057_76" result="shape"/></filter><filter id="g" x="247.094" y="147.404" width="33.82" height="66.096" filterUnits="userSpaceOnUse" color-interpolation-filters="sRGB"><feFlood flood-opacity="0" result="BackgroundImageFix"/><feColorMatrix in="SourceAlpha" values="0 0 0 0 0 0 0 0 0 0 0 0 0 0 0 0 0 0 127 0" result="hardAlpha"/><feOffset dy="6"/><feComposite in2="hardAlpha" operator="out"/><feColorMatrix values="0 0 0 0 0 0 0 0 0 0 0 0 0 0 0 0 0 0 0.25 0"/><feBlend in2="BackgroundImageFix" result="effect1_dropShadow_22057_76"/><feBlend in="SourceGraphic" in2="effect1_dropShadow_22057_76" result="shape"/></filter><filter id="h" x="776.094" y="147.404" width="33.82" height="66.096" filterUnits="userSpaceOnUse" color-interpolation-filters="sRGB"><feFlood flood-opacity="0" result="BackgroundImageFix"/><feColorMatrix in="SourceAlpha" values="0 0 0 0 0 0 0 0 0 0 0 0 0 0 0 0 0 0 127 0" result="hardAlpha"/><feOffset dy="6"/><feComposite in2="hardAlpha" operator="out"/><feColorMatrix values="0 0 0 0 0 0 0 0 0 0 0 0 0 0 0 0 0 0 0.25 0"/><feBlend in2="BackgroundImageFix" result="effect1_dropShadow_22057_76"/><feBlend in="SourceGraphic" in2="effect1_dropShadow_22057_76" result="shape"/></filter><filter id="i" x=".094" y="147.404" width="33.822" height="66.096" filterUnits="userSpaceOnUse" color-interpolation-filters="sRGB"><feFlood flood-opacity="0" result="BackgroundImageFix"/><feColorMatrix in="SourceAlpha" values="0 0 0 0 0 0 0 0 0 0 0 0 0 0 0 0 0 0 127 0" result="hardAlpha"/><feOffset dy="6"/><feComposite in2="hardAlpha" operator="out"/><feColorMatrix values="0 0 0 0 0 0 0 0 0 0 0 0 0 0 0 0 0 0 0.25 0"/><feBlend in2="BackgroundImageFix" result="effect1_dropShadow_22057_76"/><feBlend in="SourceGraphic" in2="effect1_dropShadow_22057_76" result="shape"/></filter><filter id="j" x="1057.1" y="102.345" width="57.813" height="111.155" filterUnits="userSpaceOnUse" color-interpolation-filters="sRGB"><feFlood flood-opacity="0" result="BackgroundImageFix"/><feColorMatrix in="SourceAlpha" values="0 0 0 0 0 0 0 0 0 0 0 0 0 0 0 0 0 0 127 0" result="hardAlpha"/><feOffset dy="6"/><feComposite in2="hardAlpha" operator="out"/><feColorMatrix values="0 0 0 0 0 0 0 0 0 0 0 0 0 0 0 0 0 0 0.25 0"/><feBlend in2="BackgroundImageFix" result="effect1_dropShadow_22057_76"/><feBlend in="SourceGraphic" in2="effect1_dropShadow_22057_76" result="shape"/></filter><filter id="k" x="1411.1" y="87.335" width="65.809" height="126.165" filterUnits="userSpaceOnUse" color-interpolation-filters="sRGB"><feFlood flood-opacity="0" result="BackgroundImageFix"/><feColorMatrix in="SourceAlpha" values="0 0 0 0 0 0 0 0 0 0 0 0 0 0 0 0 0 0 127 0" result="hardAlpha"/><feOffset dy="6"/><feComposite in2="hardAlpha" operator="out"/><feColorMatrix values="0 0 0 0 0 0 0 0 0 0 0 0 0 0 0 0 0 0 0.25 0"/><feBlend in2="BackgroundImageFix" result="effect1_dropShadow_22057_76"/><feBlend in="SourceGraphic" in2="effect1_dropShadow_22057_76" result="shape"/></filter><filter id="l" x="1262.1" y="113.374" width="51.816" height="100.126" filterUnits="userSpaceOnUse" color-interpolation-filters="sRGB"><feFlood flood-opacity="0" result="BackgroundImageFix"/><feColorMatrix in="SourceAlpha" values="0 0 0 0 0 0 0 0 0 0 0 0 0 0 0 0 0 0 127 0" result="hardAlpha"/><feOffset dy="6"/><feComposite in2="hardAlpha" operator="out"/><feColorMatrix values="0 0 0 0 0 0 0 0 0 0 0 0 0 0 0 0 0 0 0.25 0"/><feBlend in2="BackgroundImageFix" result="effect1_dropShadow_22057_76"/><feBlend in="SourceGraphic" in2="effect1_dropShadow_22057_76" result="shape"/></filter><filter id="m" x="903.5" y="103.397" width="102" height="131.023" filterUnits="userSpaceOnUse" color-interpolation-filters="sRGB"><feFlood flood-opacity="0" result="BackgroundImageFix"/><feColorMatrix in="SourceAlpha" values="0 0 0 0 0 0 0 0 0 0 0 0 0 0 0 0 0 0 127 0" result="hardAlpha"/><feOffset dy="9"/><feComposite in2="hardAlpha" operator="out"/><feColorMatrix values="0 0 0 0 0 0 0 0 0 0 0 0 0 0 0 0 0 0 0.25 0"/><feBlend in2="BackgroundImageFix" result="effect1_dropShadow_22057_76"/><feBlend in="SourceGraphic" in2="effect1_dropShadow_22057_76" result="shape"/></filter><filter id="n" x="907.227" y="90.297" width="87.434" height="105.446" filterUnits="userSpaceOnUse" color-interpolation-filters="sRGB"><feFlood flood-opacity="0" result="BackgroundImageFix"/><feColorMatrix in="SourceAlpha" values="0 0 0 0 0 0 0 0 0 0 0 0 0 0 0 0 0 0 127 0" result="hardAlpha"/><feOffset dy="9"/><feComposite in2="hardAlpha" operator="out"/><feColorMatrix values="0 0 0 0 0 0 0 0 0 0 0 0 0 0 0 0 0 0 0.25 0"/><feBlend in2="BackgroundImageFix" result="effect1_dropShadow_22057_76"/><feBlend in="SourceGraphic" in2="effect1_dropShadow_22057_76" result="shape"/></filter><filter id="o" x="915.125" y="48.5" width="79.469" height="104.256" filterUnits="userSpaceOnUse" color-interpolation-filters="sRGB"><feFlood flood-opacity="0" result="BackgroundImageFix"/><feColorMatrix in="SourceAlpha" values="0 0 0 0 0 0 0 0 0 0 0 0 0 0 0 0 0 0 127 0" result="hardAlpha"/><feOffset dy="9"/><feComposite in2="hardAlpha" operator="out"/><feColorMatrix values="0 0 0 0 0 0 0 0 0 0 0 0 0 0 0 0 0 0 0.25 0"/><feBlend in2="BackgroundImageFix" result="effect1_dropShadow_22057_76"/><feBlend in="SourceGraphic" in2="effect1_dropShadow_22057_76" result="shape"/></filter><filter id="p" x="78.5" y="103.397" width="102" height="131.023" filterUnits="userSpaceOnUse" color-interpolation-filters="sRGB"><feFlood flood-opacity="0" result="BackgroundImageFix"/><feColorMatrix in="SourceAlpha" values="0 0 0 0 0 0 0 0 0 0 0 0 0 0 0 0 0 0 127 0" result="hardAlpha"/><feOffset dy="9"/><feComposite in2="hardAlpha" operator="out"/><feColorMatrix values="0 0 0 0 0 0 0 0 0 0 0 0 0 0 0 0 0 0 0.25 0"/><feBlend in2="BackgroundImageFix" result="effect1_dropShadow_22057_76"/><feBlend in="SourceGraphic" in2="effect1_dropShadow_22057_76" result="shape"/></filter><filter id="q" x="82.227" y="90.296" width="93.719" height="105.446" filterUnits="userSpaceOnUse" color-interpolation-filters="sRGB"><feFlood flood-opacity="0" result="BackgroundImageFix"/><feColorMatrix in="SourceAlpha" values="0 0 0 0 0 0 0 0 0 0 0 0 0 0 0 0 0 0 127 0" result="hardAlpha"/><feOffset dy="9"/><feComposite in2="hardAlpha" operator="out"/><feColorMatrix values="0 0 0 0 0 0 0 0 0 0 0 0 0 0 0 0 0 0 0.25 0"/><feBlend in2="BackgroundImageFix" result="effect1_dropShadow_22057_76"/><feBlend in="SourceGraphic" in2="effect1_dropShadow_22057_76" result="shape"/></filter><filter id="r" x="360.5" y="118.5" width="74" height="105" filterUnits="userSpaceOnUse" color-interpolation-filters="sRGB"><feFlood flood-opacity="0" result="BackgroundImageFix"/><feColorMatrix in="SourceAlpha" values="0 0 0 0 0 0 0 0 0 0 0 0 0 0 0 0 0 0 127 0" result="hardAlpha"/><feOffset dy="9"/><feComposite in2="hardAlpha" operator="out"/><feColorMatrix values="0 0 0 0 0 0 0 0 0 0 0 0 0 0 0 0 0 0 0.25 0"/><feBlend in2="BackgroundImageFix" result="effect1_dropShadow_22057_76"/><feBlend in="SourceGraphic" in2="effect1_dropShadow_22057_76" result="shape"/></filter><filter id="s" x="87.5" y="80.5" width="79.629" height="76.756" filterUnits="userSpaceOnUse" color-interpolation-filters="sRGB"><feFlood flood-opacity="0" result="BackgroundImageFix"/><feColorMatrix in="SourceAlpha" values="0 0 0 0 0 0 0 0 0 0 0 0 0 0 0 0 0 0 127 0" result="hardAlpha"/><feOffset dy="9"/><feComposite in2="hardAlpha" operator="out"/><feColorMatrix values="0 0 0 0 0 0 0 0 0 0 0 0 0 0 0 0 0 0 0.25 0"/><feBlend in2="BackgroundImageFix" result="effect1_dropShadow_22057_76"/><feBlend in="SourceGraphic" in2="effect1_dropShadow_22057_76" result="shape"/></filter><filter id="t" x="363.5" y="108.5" width="65" height="77.001" filterUnits="userSpaceOnUse" color-interpolation-filters="sRGB"><feFlood flood-opacity="0" result="BackgroundImageFix"/><feColorMatrix in="SourceAlpha" values="0 0 0 0 0 0 0 0 0 0 0 0 0 0 0 0 0 0 127 0" result="hardAlpha"/><feOffset dy="9"/><feComposite in2="hardAlpha" operator="out"/><feColorMatrix values="0 0 0 0 0 0 0 0 0 0 0 0 0 0 0 0 0 0 0.25 0"/><feBlend in2="BackgroundImageFix" result="effect1_dropShadow_22057_76"/><feBlend in="SourceGraphic" in2="effect1_dropShadow_22057_76" result="shape"/></filter><filter id="u" x="656.5" y="25.311" width="93" height="168.394" filterUnits="userSpaceOnUse" color-interpolation-filters="sRGB"><feFlood flood-opacity="0" result="BackgroundImageFix"/><feColorMatrix in="SourceAlpha" values="0 0 0 0 0 0 0 0 0 0 0 0 0 0 0 0 0 0 127 0" result="hardAlpha"/><feOffset dy="9"/><feComposite in2="hardAlpha" operator="out"/><feColorMatrix values="0 0 0 0 0 0 0 0 0 0 0 0 0 0 0 0 0 0 0.25 0"/><feBlend in2="BackgroundImageFix" result="effect1_dropShadow_22057_76"/><feBlend in="SourceGraphic" in2="effect1_dropShadow_22057_76" result="shape"/></filter><filter id="v" x="664.465" y=".537" width="77.09" height="140.063" filterUnits="userSpaceOnUse" color-interpolation-filters="sRGB"><feFlood flood-opacity="0" result="BackgroundImageFix"/><feColorMatrix in="SourceAlpha" values="0 0 0 0 0 0 0 0 0 0 0 0 0 0 0 0 0 0 127 0" result="hardAlpha"/><feOffset dy="9"/><feComposite in2="hardAlpha" operator="out"/><feColorMatrix values="0 0 0 0 0 0 0 0 0 0 0 0 0 0 0 0 0 0 0.25 0"/><feBlend in2="BackgroundImageFix" result="effect1_dropShadow_22057_76"/><feBlend in="SourceGraphic" in2="effect1_dropShadow_22057_76" result="shape"/></filter><filter id="w" x="1303.5" y="54.612" width="79.398" height="144.979" filterUnits="userSpaceOnUse" color-interpolation-filters="sRGB"><feFlood flood-opacity="0" result="BackgroundImageFix"/><feColorMatrix in="SourceAlpha" values="0 0 0 0 0 0 0 0 0 0 0 0 0 0 0 0 0 0 127 0" result="hardAlpha"/><feOffset dy="9"/><feComposite in2="hardAlpha" operator="out"/><feColorMatrix values="0 0 0 0 0 0 0 0 0 0 0 0 0 0 0 0 0 0 0.25 0"/><feBlend in2="BackgroundImageFix" result="effect1_dropShadow_22057_76"/><feBlend in="SourceGraphic" in2="effect1_dropShadow_22057_76" result="shape"/></filter><filter id="x" x="1310.29" y="33.5" width="65.844" height="120.836" filterUnits="userSpaceOnUse" color-interpolation-filters="sRGB"><feFlood flood-opacity="0" result="BackgroundImageFix"/><feColorMatrix in="SourceAlpha" values="0 0 0 0 0 0 0 0 0 0 0 0 0 0 0 0 0 0 127 0" result="hardAlpha"/><feOffset dy="9"/><feComposite in2="hardAlpha" operator="out"/><feColorMatrix values="0 0 0 0 0 0 0 0 0 0 0 0 0 0 0 0 0 0 0.25 0"/><feBlend in2="BackgroundImageFix" result="effect1_dropShadow_22057_76"/><feBlend in="SourceGraphic" in2="effect1_dropShadow_22057_76" result="shape"/></filter></defs></svg>