<svg width="56" height="56" viewBox="0 0 56 56" fill="none" xmlns="http://www.w3.org/2000/svg">
<rect width="56" height="56" rx="10" fill="black"/>
<path fill-rule="evenodd" clip-rule="evenodd" d="M28 20.8C33.6333 20.8 38.2 19.2778 38.2 17.4C38.2 15.5222 33.6333 14 28 14C22.3667 14 17.8 15.5222 17.8 17.4C17.8 19.2778 22.3667 20.8 28 20.8ZM33.2155 21.1885C31.6624 21.4846 29.8818 21.65 28 21.65C26.1182 21.65 24.3376 21.4846 22.7846 21.1885C17.8617 21.9557 14.4001 23.7763 14.4001 25.9C14.4001 28.7167 20.489 31 28.0001 31C35.5112 31 41.6001 28.7167 41.6001 25.9C41.6001 23.7762 38.1384 21.9557 33.2155 21.1885ZM37.73 30.3701C35.1697 31.2963 31.7396 31.8498 28 31.8498C24.2604 31.8498 20.8304 31.2963 18.2701 30.3701C13.8747 31.4457 11 33.2303 11 35.2498C11 38.5359 18.6112 41.1998 28 41.1998C37.3889 41.1998 45 38.5359 45 35.2498C45 33.2303 42.1253 31.4458 37.73 30.3701Z" fill="#E5D3BE"/>
</svg>
