<svg width="56" height="56" viewBox="0 0 56 56" fill="none" xmlns="http://www.w3.org/2000/svg">
  <rect width="56" height="56" rx="10" fill="black" />
  <g clip-path="url(#clip0_32005_733)">
    <path
      d="M9.85532 26.1766L21.9491 8.76233L28.061 17.5994L21.8624 26.3932H9.98537C9.94202 26.3932 9.94202 26.3932 9.89867 26.3499C9.85532 26.3499 9.85532 26.3066 9.85532 26.3066C9.85532 26.2632 9.85532 26.2632 9.85532 26.2199C9.81198 26.2199 9.85532 26.2199 9.85532 26.1766Z"
      fill="#7F4AFE" />
    <path
      d="M46.2234 26.1766L34.1296 8.76233L28.061 17.5994L34.2163 26.4365H46.0933C46.1367 26.4365 46.1367 26.4365 46.18 26.3932C46.2234 26.3932 46.2234 26.3499 46.2234 26.3499C46.2234 26.3066 46.2234 26.3066 46.2234 26.2632C46.2667 26.2199 46.2234 26.2199 46.2234 26.1766Z"
      fill="#7F4AFE" />
    <path
      d="M46.4401 28.6891C46.4835 31.115 46.0066 33.5408 45.0964 35.7934C44.1861 38.046 42.8423 40.1253 41.1084 41.8581C39.3746 43.5908 37.3373 44.9771 35.1266 45.8868C32.9159 46.7965 30.4884 47.3163 28.0177 47.3163C25.5902 47.3163 23.1628 46.8398 20.9088 45.8868C18.6547 44.9337 16.6174 43.5908 14.9269 41.8581C13.2364 40.1253 11.8493 38.0893 10.939 35.7934C10.0721 33.5408 9.59524 31.115 9.63858 28.6891H21.3422C21.3422 29.5988 21.4723 30.4652 21.8191 31.2882C22.1658 32.1113 22.6427 32.891 23.2495 33.4975C23.8564 34.1473 24.6366 34.6238 25.4602 34.9704C26.2838 35.3169 27.1507 35.4902 28.061 35.4902C28.9713 35.4902 29.8382 35.3169 30.6618 34.9704C31.4854 34.6238 32.2223 34.104 32.8725 33.4975C33.4794 32.8477 33.9995 32.1113 34.303 31.2882C34.6497 30.4652 34.7798 29.5555 34.7798 28.6891H46.4401Z"
      fill="#0166FF" />
  </g>
  <defs>
    <clipPath id="clip0_32005_733">
      <rect width="36.8015" height="38.554" fill="white" transform="translate(9.63855 8.76233)" />
    </clipPath>
  </defs>
</svg>