<svg width="56" height="56" viewBox="0 0 56 56" fill="none" xmlns="http://www.w3.org/2000/svg">
<rect width="56" height="56" rx="10" fill="black"/>
<g clip-path="url(#clip0_3_16)">
<path d="M23.6016 26.2745V15.5606C23.6016 14.7904 23.0257 14.1701 22.3105 14.1701H16.2912C15.5759 14.1701 15 14.7904 15 15.5606V22.313C15 22.8432 15.2787 23.3234 15.706 23.5535L22.2826 27.1348C22.8864 27.4649 23.6016 26.9947 23.6016 26.2644V26.2745Z" fill="#BCF987"/>
<path d="M23.6016 29.4556V40.1694C23.6016 40.9397 23.0257 41.5599 22.3105 41.5599H16.2912C15.5759 41.5599 15 40.9397 15 40.1694V33.4171C15 32.8868 15.2787 32.4066 15.706 32.1765L22.2826 28.5953C22.8864 28.2652 23.6016 28.7353 23.6016 29.4656V29.4556Z" fill="#BCF987"/>
<path d="M25.896 27.2548L39.8203 23.5635C40.3962 23.4134 40.8049 22.8532 40.8049 22.213V15.5606C40.8049 14.7904 40.229 14.1701 39.5137 14.1701H32.8906C32.4633 14.1701 32.0639 14.4002 31.8224 14.7804L24.9299 25.7543C24.4655 26.4945 25.0879 27.4649 25.9053 27.2548H25.896Z" fill="#BCF987"/>
<path d="M25.896 28.4752L39.8203 32.1666C40.3962 32.3165 40.8049 32.8767 40.8049 33.5169V40.1694C40.8049 40.9396 40.229 41.5598 39.5137 41.5598H32.8906C32.4633 41.5598 32.0639 41.3297 31.8224 40.9497L24.9299 29.9757C24.4655 29.2354 25.0879 28.2651 25.9053 28.4752H25.896Z" fill="#BCF987"/>
</g>
<defs>
<clipPath id="clip0_3_16">
<rect width="26" height="28" fill="white" transform="translate(15 14)"/>
</clipPath>
</defs>
</svg>
