<svg xmlns="http://www.w3.org/2000/svg" width="56" height="56" viewBox="0 0 56 56" fill="none">
  <rect width="56" height="56" rx="10" fill="black"/>
  <path fill-rule="evenodd" clip-rule="evenodd" d="M15.8116 27.6169L24.996 21.5507V21.5613C25.5175 21.2101 25.8368 20.6248 25.8368 19.9969V10.4825C25.8368 10.0887 25.4005 9.86524 25.0812 10.0887L8.68112 21.54C8.25542 21.838 8 22.3169 8 22.8384V33.1616C8 33.6831 8.25542 34.162 8.68112 34.46L25.0812 45.9007C25.4005 46.1242 25.8368 45.89 25.8368 45.5069V35.8967C25.8368 35.3327 25.5495 34.8006 25.0812 34.4919L15.8116 28.3725C15.5455 28.1916 15.5455 27.7978 15.8116 27.6169ZM47.0579 33.1616V22.8384C47.0579 22.3169 46.8025 21.838 46.3768 21.54L29.9661 10.0887C29.6468 9.86518 29.2105 10.0993 29.2105 10.4824V19.9968C29.2105 20.6247 29.5298 21.2101 30.0513 21.5613L39.2357 27.6275C39.5018 27.8084 39.5018 28.2022 39.2357 28.3831L29.9661 34.5025C29.4978 34.8112 29.2105 35.3433 29.2105 35.9073V45.5175C29.2105 45.9113 29.6468 46.1348 29.9661 45.9113L46.3768 34.46C46.8025 34.162 47.0579 33.6831 47.0579 33.1616Z" fill="#FAF0F0"/>
</svg>