<svg width="56" height="56" viewBox="0 0 56 56" fill="none" xmlns="http://www.w3.org/2000/svg">
<rect width="56" height="56" rx="10" fill="black"/>
<g clip-path="url(#clip0_3_5)">
<path d="M34.5949 23.0919L36.5453 25.3836C36.7686 25.641 36.9666 25.8527 37.0467 25.9731C37.63 26.5528 37.957 27.3363 37.9566 28.1527C37.9018 29.1158 37.2741 29.7718 36.6928 30.4734L35.3279 32.0759L34.616 32.9062C34.5904 32.9349 34.574 32.9702 34.5686 33.008C34.5632 33.0458 34.5692 33.0842 34.5858 33.1187C34.6024 33.1531 34.6288 33.182 34.6619 33.2018C34.695 33.2216 34.7332 33.2314 34.7718 33.2301H41.887C42.9738 33.2301 44.3429 34.1434 44.2629 35.53C44.2607 36.1603 44.0056 36.7641 43.5534 37.2097C43.1012 37.6554 42.4885 37.9067 41.849 37.9089H30.7067C29.9737 37.9089 28.0021 37.9878 27.4503 36.3064C27.3329 35.955 27.3169 35.5785 27.404 35.2187C27.5644 34.6866 27.8181 34.1864 28.1538 33.7407C28.7141 32.9104 29.3207 32.0801 29.9189 31.2747C30.6898 30.2202 31.4818 29.1989 32.2611 28.1236C32.2888 28.0886 32.3038 28.0455 32.3038 28.0011C32.3038 27.9568 32.2888 27.9137 32.2611 27.8787L29.4302 24.5574C29.4118 24.5333 29.3879 24.5138 29.3605 24.5004C29.3331 24.4869 29.3029 24.4799 29.2723 24.4799C29.2416 24.4799 29.2114 24.4869 29.184 24.5004C29.1566 24.5138 29.1327 24.5333 29.1143 24.5574C28.356 25.5662 25.0365 30.0333 24.3287 30.9384C23.621 31.8434 21.877 31.8932 20.9123 30.9384L16.4848 26.5585C16.4565 26.5305 16.4205 26.5115 16.3812 26.5037C16.3419 26.496 16.3012 26.4999 16.2642 26.5151C16.2272 26.5302 16.1955 26.5558 16.1733 26.5887C16.1511 26.6215 16.1393 26.6601 16.1394 26.6996V35.1232C16.1498 35.7209 15.9702 36.3069 15.6257 36.799C15.2813 37.2911 14.7892 37.6647 14.2184 37.8674C13.8538 37.9924 13.464 38.0298 13.0817 37.9763C12.6994 37.9228 12.3356 37.78 12.0207 37.5598C11.7058 37.3396 11.4488 37.0484 11.2713 36.7105C11.0937 36.3726 11.0007 35.9977 11 35.6172V20.4723C11.0254 19.9265 11.2247 19.4025 11.5695 18.9747C11.9144 18.5469 12.3872 18.2371 12.921 18.0893C13.3788 17.9691 13.8607 17.9703 14.3179 18.0928C14.7751 18.2152 15.1913 18.4547 15.5244 18.7867L22.332 25.504C22.3523 25.5244 22.377 25.5401 22.4042 25.5501C22.4315 25.56 22.4606 25.564 22.4895 25.5616C22.5185 25.5592 22.5465 25.5506 22.5717 25.5363C22.5969 25.5221 22.6186 25.5025 22.6353 25.4791L27.4714 18.8822C27.6948 18.6144 27.975 18.398 28.2923 18.2481C28.6096 18.0982 28.9562 18.0185 29.3081 18.0145H41.887C42.2312 18.0151 42.5714 18.0881 42.8847 18.2286C43.198 18.3692 43.4773 18.574 43.7038 18.8295C43.9303 19.085 44.0988 19.3852 44.1982 19.71C44.2975 20.0348 44.3253 20.3768 44.2797 20.7131C44.1911 21.2964 43.8908 21.8282 43.4345 22.21C42.9782 22.5917 42.3969 22.7974 41.7985 22.7888H34.755C34.7196 22.7897 34.6851 22.7999 34.655 22.8183C34.625 22.8368 34.6005 22.8629 34.5842 22.8938C34.5678 22.9248 34.5602 22.9595 34.5621 22.9943C34.564 23.0291 34.5753 23.0629 34.5949 23.0919Z" fill="#E42575"/>
</g>
<defs>
<clipPath id="clip0_3_5">
<rect width="34" height="20" fill="white" transform="translate(11 18)"/>
</clipPath>
</defs>
</svg>
