<svg width="56" height="56" viewBox="0 0 56 56" fill="none" xmlns="http://www.w3.org/2000/svg">
<rect width="56" height="56" rx="10" fill="black"/>
<path fill-rule="evenodd" clip-rule="evenodd" d="M16.8436 28.6253C16.8436 22.6024 21.7261 17.7199 27.749 17.7199C31.6636 17.7199 35.0965 19.7825 37.0202 22.8803C36.1318 22.7834 35.1817 22.7183 34.1106 22.7183C32.4578 22.7183 31.1565 22.9091 30.2382 23.1132V27.771L30.4603 27.7607C30.4766 27.7545 30.4995 27.747 30.5523 27.7297L30.5524 27.7297L30.5527 27.7296L30.568 27.7246C30.6961 27.6826 30.9159 27.6173 31.2239 27.5489C31.8391 27.4122 32.8097 27.2622 34.1106 27.2622C35.7899 27.2622 37.0652 27.4478 38.6145 27.6853C38.6409 27.9952 38.6544 28.3087 38.6544 28.6253C38.6544 28.7511 38.6523 28.8764 38.648 29.0011C37.2859 28.7989 35.8596 28.6254 34.1106 28.6254C32.4578 28.6254 31.1565 28.8162 30.2382 29.0203V33.6781L30.4603 33.6678C30.4766 33.6616 30.4996 33.654 30.5527 33.6367L30.568 33.6317C30.6961 33.5897 30.9159 33.5244 31.2239 33.456C31.8391 33.3193 32.8097 33.1693 34.1106 33.1693C35.3882 33.1693 36.4319 33.2767 37.5403 33.4327C35.7635 37.0449 32.0465 39.5307 27.749 39.5307C21.7261 39.5307 16.8436 34.6482 16.8436 28.6253ZM43.1472 34.1596C40.8788 40.4704 34.8409 44.9834 27.749 44.9834C18.7146 44.9834 11.3909 37.6597 11.3909 28.6253C11.3909 19.591 18.7146 12.2672 27.749 12.2672C35.0709 12.2672 41.2693 17.0777 43.356 23.7107C44.4154 23.798 45.6223 23.8542 47.0607 23.8542V28.3982C45.9664 28.3982 44.9897 28.368 44.1043 28.3174C44.1062 28.4198 44.1071 28.5224 44.1071 28.6253C44.1071 28.9764 44.096 29.3248 44.0743 29.6704C44.9552 29.727 45.9374 29.7613 47.0607 29.7613V34.3053C45.557 34.3053 44.2753 34.2482 43.1472 34.1596Z" fill="white"/>
</svg>
