<svg xmlns="http://www.w3.org/2000/svg" width="56" height="56" viewBox="0 0 56 56" fill="none">
  <rect width="56" height="56" rx="10" fill="black"/>
  <path fill-rule="evenodd" clip-rule="evenodd" d="M40.1851 13.7355C40.4161 13.7355 40.5316 13.4275 40.3391 13.2735C37.0666 10.617 32.8316 9 28.2501 9C23.6686 9 19.4721 10.5785 16.1611 13.2735C15.9686 13.4275 16.0841 13.7355 16.3151 13.7355H40.1851ZM20.1649 33.178C20.4344 33.178 20.6269 33.2935 20.7809 33.486H20.7039C22.3209 35.8345 25.0929 37.3745 28.1729 37.3745C31.2529 37.3745 33.9864 35.8345 35.6419 33.486C35.7959 33.2935 36.0269 33.178 36.2579 33.178H46.3449C46.5759 33.178 46.7684 33.3705 46.6914 33.6015C44.3814 41.648 36.9509 47.5 28.2114 47.5C19.4719 47.5 12.0414 41.6095 9.73145 33.6015C9.69295 33.409 9.84695 33.178 10.0779 33.178H20.1649ZM35.026 22.1285C35.18 22.2825 35.3725 22.3595 35.565 22.3595H46.114C46.345 22.3595 46.5375 22.1285 46.4605 21.8975C45.729 19.78 44.6125 17.8165 43.2265 16.084C43.111 15.93 42.88 15.8145 42.6875 15.8145H13.851C13.6585 15.8145 13.4275 15.8915 13.312 16.084C11.926 17.778 10.8095 19.7415 10.078 21.8975C10.001 22.1285 10.155 22.3595 10.4245 22.3595H20.9735C21.166 22.3595 21.3585 22.2825 21.5125 22.1285C23.168 20.2805 25.5935 19.1255 28.2885 19.1255C30.9835 19.1255 33.3705 20.2805 35.0645 22.1285H35.026ZM37.028 30.714C36.9895 30.868 37.105 31.0605 37.2975 31.0605L37.336 31.099H47.0765C47.2305 31.099 47.346 30.9835 47.346 30.868C47.3603 30.7102 47.3747 30.5645 47.3885 30.4238C47.449 29.8092 47.5 29.291 47.5 28.2885C47.5 27.0565 47.3845 25.863 47.1535 24.708C47.115 24.554 46.9995 24.477 46.884 24.477H36.951C36.7585 24.477 36.643 24.6695 36.72 24.862C37.1435 25.9015 37.3745 27.403 37.3745 28.25C37.3745 29.097 37.259 29.944 37.028 30.714ZM19.164 31.0605C19.3565 31.0605 19.472 30.868 19.4335 30.714L19.472 30.6755C19.241 29.9055 19.1255 29.405 19.1255 28.2115C19.1255 27.018 19.3565 25.863 19.78 24.8235C19.857 24.631 19.7415 24.4385 19.549 24.4385H9.616C9.462 24.4385 9.3465 24.554 9.3465 24.6695C9.1155 25.8245 9 27.3645 9 28.25C9 29.1355 9.0385 29.9825 9.154 30.8295C9.1925 30.9835 9.308 31.0605 9.4235 31.0605H19.164Z" fill="#9C75FF"/>
</svg>