<svg xmlns="http://www.w3.org/2000/svg" width="56" height="56" viewBox="0 0 56 56" fill="none">
  <rect width="56" height="56" rx="10" fill="black"/>
  <path fill-rule="evenodd" clip-rule="evenodd" d="M27.9852 46.8643C22.1258 46.8599 17.4057 45.4538 14.1079 42.9284C10.7705 40.3726 9 36.7456 9 32.6415C9 28.6871 10.7665 25.8357 12.7655 23.9082C14.3321 22.3978 16.0607 21.4305 17.2644 20.8739C16.9922 20.0385 16.6526 18.945 16.3487 17.8154C15.9423 16.3039 15.5435 14.5304 15.5435 13.2309C15.5435 11.6928 15.8787 10.1479 16.7829 8.94758C17.7383 7.67944 19.1767 7 20.9069 7C22.2591 7 23.4072 7.5016 24.3059 8.3669C25.1649 9.19386 25.737 10.2924 26.1318 11.4375C26.8255 13.4495 27.0957 15.9774 27.1713 18.5002H28.8287C28.9045 15.9774 29.1745 13.4495 29.8684 11.4375C30.2632 10.2924 30.8349 9.19406 31.6941 8.3669C32.593 7.5018 33.7409 7 35.0931 7C36.8235 7 38.2617 7.67944 39.2171 8.94758C40.1213 10.1479 40.4567 11.6928 40.4567 13.2309C40.4567 14.5304 40.0577 16.3039 39.6513 17.8154C39.3474 18.945 39.0078 20.0385 38.7356 20.8739C39.9393 21.4305 41.6681 22.3978 43.2345 23.9084C45.2335 25.8357 47 28.6871 47 32.6415C47 36.7456 45.2297 40.3726 41.8921 42.9284C38.5943 45.4538 33.8742 46.8599 28.0148 46.8643H27.9852Z" fill="#633001"/>
  <path d="M20.9067 8.46289C18.3726 8.46289 17.206 10.3729 17.206 13.0142C17.206 15.1137 18.5615 19.3184 19.1175 20.9553C19.2428 21.3236 19.046 21.7268 18.6876 21.8695C16.6565 22.6786 10.6626 25.6409 10.6626 32.425C10.6626 39.5712 16.7538 44.9595 27.9867 44.9681L27.9999 44.9679L28.0134 44.9681C39.246 44.9595 45.3373 39.5712 45.3373 32.425C45.3373 25.6409 39.3434 22.6786 37.3123 21.8695C36.9538 21.727 36.7573 21.3236 36.8824 20.9553C37.4386 19.3186 38.794 15.1137 38.794 13.0142C38.794 10.3727 37.6274 8.46289 35.0932 8.46289C31.4453 8.46289 30.5358 13.683 30.471 19.2857C30.4668 19.6596 30.1673 19.9631 29.7972 19.9631H26.2029C25.8326 19.9631 25.5333 19.6596 25.5289 19.2857C25.464 13.683 24.5548 8.46289 20.9067 8.46289Z" fill="#D1884F"/>
  <path d="M28.0134 42.6789C19.7602 42.6789 10.6768 38.2159 10.6626 32.4386V32.4655C10.6626 39.6175 16.7635 45.0087 28.0134 45.0087C39.2633 45.0087 45.3642 39.6175 45.3642 32.4655V32.4386C45.3499 38.2159 36.2666 42.6789 28.0134 42.6789Z" fill="#FEDC90"/>
  <path d="M23.4278 30.664C23.4278 32.6146 22.5153 33.6304 21.3897 33.6304C20.264 33.6304 19.3516 32.6146 19.3516 30.664C19.3516 28.7134 20.264 27.6976 21.3897 27.6976C22.5153 27.6976 23.4278 28.7134 23.4278 30.664ZM36.6755 30.664C36.6755 32.6146 35.763 33.6304 34.6374 33.6304C33.5117 33.6304 32.5992 32.6146 32.5992 30.664C32.5992 28.7134 33.5117 27.6976 34.6374 27.6976C35.763 27.6976 36.6755 28.7134 36.6755 30.664Z" fill="#633001"/>
</svg>