<svg width="56" height="56" viewBox="0 0 56 56" fill="none" xmlns="http://www.w3.org/2000/svg">
<rect width="56" height="56" rx="10" fill="black"/>
<g clip-path="url(#clip0_3_10)">
<path d="M38.1054 17.4816V18.8404C38.1054 19.7746 37.8598 20.6602 37.4053 21.4366L33.5727 28.0122L29.5681 21.1576C28.61 19.5198 25.8461 19.5198 24.8879 21.1576L20.8834 27.9879L17.0753 21.4609C16.6085 20.6602 16.3506 19.7503 16.3506 18.8404V17.4816C16.3506 16.2927 17.3333 15.3221 18.5371 15.3221H35.9189C37.1227 15.3221 38.1054 16.2927 38.1054 17.4816Z" fill="#7B78FF"/>
<path d="M33.5727 28.0121L29.5681 34.8425C29.0891 35.6674 28.1923 36.177 27.2219 36.177C26.2515 36.177 25.367 35.6553 24.8757 34.8425L20.8711 27.9879L24.8757 21.1575C25.8338 19.5197 28.5977 19.5197 29.5558 21.1575L33.5727 28.0121Z" fill="#12429F"/>
<path d="M38.1054 37.1476V38.5064C38.1054 39.6953 37.1227 40.6659 35.9189 40.6659H18.5371C17.3333 40.678 16.3506 39.7075 16.3506 38.5185V37.1355C16.3506 36.2256 16.5963 35.3399 17.0508 34.5635L20.8834 27.9879L24.8879 34.8425C25.367 35.6675 26.2637 36.177 27.2342 36.177C28.2046 36.177 29.089 35.6554 29.5804 34.8425L33.585 28.0122L37.393 34.5392C37.8598 35.3399 38.1054 36.2498 38.1054 37.1476Z" fill="#A0D2EB"/>
</g>
<defs>
<clipPath id="clip0_3_10">
<rect width="23" height="26" fill="white" transform="translate(16 15)"/>
</clipPath>
</defs>
</svg>
