<svg width="254" height="204" viewBox="0 0 254 204" fill="none" xmlns="http://www.w3.org/2000/svg">
<g clip-path="url(#clip0_33375_2304)">
<g filter="url(#filter0_d_33375_2304)">
<path d="M118.742 112.292C122.975 110.807 127.584 110.788 131.828 112.238L251.533 153.132C253.33 153.746 253.341 156.284 251.549 156.912L135.258 197.708C131.025 199.193 126.416 199.212 122.172 197.762L2.46667 156.868C0.669884 156.254 0.659488 153.716 2.45118 153.088L118.742 112.292Z" fill="#463882"/>
<path d="M118.742 112.292C122.975 110.807 127.584 110.788 131.828 112.238L251.533 153.132C253.33 153.746 253.341 156.284 251.549 156.912L135.258 197.708C131.025 199.193 126.416 199.212 122.172 197.762L2.46667 156.868C0.669884 156.254 0.659488 153.716 2.45118 153.088L118.742 112.292Z" stroke="black"/>
</g>
<path d="M13.669 151.559C11.4984 150.831 11.4821 147.767 13.6447 147.016L106.445 114.796C118.984 110.443 132.612 110.37 145.196 114.589L214.794 137.922C218.412 139.135 218.439 144.242 214.835 145.493L126.464 176.175C113.926 180.528 100.298 180.601 87.7132 176.382L13.669 151.559Z" fill="#C2C0FF" stroke="black"/>
<path d="M122.458 163.572L109.081 168.43C100.05 171.71 90.1717 171.824 81.0667 168.753C80.4202 168.535 80.4275 167.619 81.0773 167.411L108.169 158.753L122.458 163.572Z" fill="#A6A6DB" stroke="black"/>
<path d="M127.223 176.208L218.387 143.978C219.985 143.413 221.054 141.902 221.054 140.207L221.054 134.994L121.265 169.368C112.096 172.527 102.14 172.559 92.9509 169.461L92.237 169.22C91.6396 169.018 91.0208 169.463 91.0208 170.093C91.0208 170.725 90.3993 171.17 89.8013 170.965L80.6656 167.846C79.9977 167.618 79.3036 168.114 79.3036 168.82C79.3036 169.52 78.6202 170.016 77.9549 169.799L13.7851 148.862C12.8344 148.552 11.8579 149.26 11.858 150.26C11.858 150.895 12.2649 151.458 12.8675 151.657L88.4032 176.611C101.03 180.782 114.686 180.64 127.223 176.208Z" fill="#ACACEC" stroke="black"/>
<path d="M135.397 178.95C134.478 178.64 134.494 177.335 135.42 177.048L161.165 169.069C161.366 169.007 161.581 169.009 161.781 169.076L165.048 170.179C165.967 170.49 165.951 171.795 165.024 172.082L139.28 180.061C139.079 180.123 138.864 180.121 138.664 180.053L135.397 178.95Z" fill="#FFBF49" stroke="black"/>
<path d="M148.411 183.831C147.492 183.521 147.509 182.215 148.435 181.928L174.179 173.949C174.38 173.887 174.596 173.89 174.795 173.957L178.063 175.06C178.982 175.37 178.965 176.675 178.039 176.963L152.295 184.941C152.094 185.004 151.878 185.001 151.679 184.934L148.411 183.831Z" fill="#FFBF49" stroke="black"/>
<path d="M221.054 134.993L121.147 169.408C112.055 172.54 102.182 172.572 93.0696 169.499C92.4105 169.277 92.4119 168.344 93.0717 168.124L206.765 130.174L221.054 134.993Z" fill="#9999DA" stroke="black"/>
<path d="M110.5 147.5C110.5 148.317 110.004 149.174 108.922 150.027C107.846 150.875 106.259 151.66 104.252 152.329C100.244 153.665 94.6744 154.5 88.5 154.5C82.3256 154.5 76.7564 153.665 72.7482 152.329C70.7415 151.66 69.1536 150.875 68.0776 150.027C66.9961 149.174 66.5 148.317 66.5 147.5C66.5 146.683 66.9961 145.826 68.0776 144.973C69.1536 144.125 70.7415 143.34 72.7482 142.671C76.7564 141.335 82.3256 140.5 88.5 140.5C94.6744 140.5 100.244 141.335 104.252 142.671C106.259 143.34 107.846 144.125 108.922 144.973C110.004 145.826 110.5 146.683 110.5 147.5Z" fill="#2B235C" stroke="black"/>
<path d="M10.4293 31.2953L59.4373 18.9863C65.7515 17.4004 71.8733 22.1748 71.8733 28.685V70.7339L23.3639 85.6253C16.9347 87.5989 10.4293 82.7909 10.4293 76.0655V31.2953Z" fill="#D7D7F6" stroke="black"/>
<path d="M10.4293 31.2939L10.6217 31.3555C14.7635 32.6809 17.5739 36.5311 17.5739 40.8798V88.4514C13.8252 89.0512 10.4293 86.1554 10.4293 82.359V31.2939Z" fill="#6D7EA5" stroke="black"/>
<path d="M12.8931 32.7225L61.9011 20.4135C68.2153 18.8276 74.3371 23.602 74.3371 30.1123V67.7267C74.3371 70.3622 72.6173 72.6891 70.0979 73.4625L25.8277 87.0525C19.3985 89.0261 12.8931 84.2181 12.8931 77.4928V32.7225Z" fill="#BFFF60" stroke="black"/>
<path d="M23.8708 39.4064C23.8708 38.6652 24.3645 38.0148 25.0784 37.8156L58.6417 28.4491C59.6945 28.1553 60.7372 28.9468 60.7372 30.0399C60.7372 30.7811 60.2435 31.4315 59.5296 31.6307L25.9664 40.9972C24.9135 41.2911 23.8708 40.4995 23.8708 39.4064Z" fill="black" fill-opacity="0.25"/>
<path d="M23.8708 75.4157C23.8708 74.6745 24.3645 74.0241 25.0784 73.8249L58.6417 64.4583C59.6945 64.1645 60.7372 64.9561 60.7372 66.0492C60.7372 66.7904 60.2435 67.4408 59.5296 67.64L25.9664 77.0065C24.9135 77.3003 23.8708 76.5088 23.8708 75.4157Z" fill="black" fill-opacity="0.25"/>
<path d="M23.8708 46.286C23.8708 45.5347 24.3762 44.8774 25.1022 44.6844L44.365 39.5639C45.4168 39.2844 46.4479 40.0772 46.4479 41.1655C46.4479 41.9168 45.9425 42.574 45.2165 42.767L25.9537 47.8875C24.9019 48.1671 23.8708 47.3743 23.8708 46.286Z" fill="black" fill-opacity="0.25"/>
<path d="M23.8708 52.8602C23.8708 52.1089 24.3762 51.4517 25.1022 51.2587L44.365 46.1382C45.4168 45.8586 46.4479 46.6514 46.4479 47.7397C46.4479 48.491 45.9425 49.1483 45.2165 49.3413L25.9537 54.4618C24.9019 54.7413 23.8708 53.9485 23.8708 52.8602Z" fill="black" fill-opacity="0.25"/>
<path d="M23.8708 68.2914C23.8708 67.5401 24.3762 66.8828 25.1022 66.6898L44.365 61.5693C45.4168 61.2897 46.4479 62.0826 46.4479 63.1709C46.4479 63.9221 45.9425 64.5794 45.2165 64.7724L25.9537 69.8929C24.9019 70.1725 23.8708 69.3796 23.8708 68.2914Z" fill="black" fill-opacity="0.25"/>
<path d="M23.8708 60.8681C23.8708 60.1137 24.3798 59.4543 25.1097 59.2633L52.3711 52.1294C53.4224 51.8543 54.4499 52.6475 54.4499 53.7343C54.4499 54.4887 53.9409 55.1481 53.211 55.3391L25.9496 62.4729C24.8983 62.7481 23.8708 61.9548 23.8708 60.8681Z" fill="black" fill-opacity="0.25"/>
<path d="M116.349 91.022H130.067V114.882C130.067 114.882 128.648 116.743 123.208 116.743C117.768 116.743 116.349 114.882 116.349 114.882V91.022Z" fill="#2F2F2F"/>
<path d="M36.8998 124.175H53.4755V146.466C53.4755 146.466 51.7607 148.753 45.1876 148.753C38.6146 148.753 36.8998 146.466 36.8998 146.466V124.175Z" fill="#2F2F2F"/>
<path d="M30.8982 114.743C32.9558 127.775 51.7606 135.701 62.0489 138.464C69.4794 140.459 76.2429 136.844 76.9098 135.606V131.319C76.9098 129.033 67.4788 127.89 58.6195 117.887C49.7601 107.885 78.6245 99.8825 104.059 95.31C129.494 90.7374 138.354 97.882 148.928 98.4536C157.387 98.9109 161.503 90.9279 162.36 87.5937V81.8779C143.593 78.639 94.8002 76.6768 70.3368 84.4502C39.7577 94.167 28.3261 98.4536 30.8982 114.743Z" fill="#D7D7F6" stroke="black"/>
<path d="M76.3383 77.3041V83.3057C86.6266 92.7367 82.9565 95.6236 106.262 90.7456C129.65 85.8505 144.626 96.7194 153.854 92.1054C156.573 90.7456 160.74 85.7825 162.36 83.3057V77.3041C159.502 74.7321 147.385 69.5879 121.778 69.5879C96.1718 69.5879 80.8156 74.7321 76.3383 77.3041Z" fill="#6D7EA5" stroke="black"/>
<path d="M76.3383 77.3041L82.3398 82.1625C92.6281 91.5935 99.181 87.1347 110.633 85.8778C134.067 83.3057 142.017 90.5844 150.59 88.2981C152.494 87.7904 154.126 86.6663 157.216 83.3057L162.36 77.3041C159.502 74.7321 147.385 69.5879 121.778 69.5879C96.1718 69.5879 80.8156 74.7321 76.3383 77.3041Z" fill="#D7D7F6" stroke="black"/>
<path d="M108.873 75.3932C109.345 74.9681 109.958 74.7329 110.594 74.7329H133.769C134.404 74.7329 135.017 74.9681 135.49 75.3932C137.242 76.9701 136.126 79.8771 133.769 79.8771H110.594C108.237 79.8771 107.121 76.9701 108.873 75.3932Z" fill="white" stroke="black"/>
<rect x="80.9109" y="9.85986" width="87.4506" height="56.5859" rx="6" fill="#D7D7F6" stroke="black"/>
<rect x="82.6255" y="11.5737" width="84.0212" height="49.1554" rx="6" fill="#232323"/>
<g filter="url(#filter1_i_33375_2304)">
<path d="M107.337 7.82142C106.983 6.54703 107.941 5.28613 109.264 5.28613H140.438C141.803 5.28613 142.767 6.62353 142.335 7.91859L140.239 14.2069C139.967 15.0236 139.203 15.5745 138.342 15.5745H111.01C110.112 15.5745 109.324 14.9754 109.083 14.1098L107.337 7.82142Z" fill="#D7D7F6"/>
</g>
<path d="M107.337 7.82142C106.983 6.54703 107.941 5.28613 109.264 5.28613H140.438C141.803 5.28613 142.767 6.62353 142.335 7.91859L140.239 14.2069C139.967 15.0236 139.203 15.5745 138.342 15.5745H111.01C110.112 15.5745 109.324 14.9754 109.083 14.1098L107.337 7.82142Z" stroke="black"/>
<path d="M180.436 16.0486V61.0046C180.436 63.9358 182.398 66.5043 185.226 67.2755L201.518 71.7191C205.653 72.8468 209.729 69.734 209.729 65.4481V48.7795C209.729 47.7247 209.472 46.6856 208.981 45.7522L204.646 37.5161C204.23 36.7263 204.013 35.8471 204.013 34.9545V15.1705C204.013 12.3051 202.137 9.77779 199.394 8.94859L193.727 7.2353C192.09 6.74045 190.324 6.91053 188.812 7.70868L183.902 10.3001C181.77 11.4253 180.436 13.638 180.436 16.0486Z" fill="#BFFF60" stroke="black"/>
<path d="M190.724 7.00125V7.37243L191.079 7.47985L199.105 9.90607C201.425 10.6077 203.013 12.7462 203.013 15.1707V34.9548C203.013 36.0097 203.27 37.0487 203.761 37.9821L208.096 46.2182C208.511 47.008 208.729 47.8872 208.729 48.7798V65.4484C208.729 69.0749 205.28 71.7088 201.782 70.7546L183.594 65.7942C182.003 65.3605 180.436 66.5577 180.436 68.2061V70.8916C180.436 72.0349 181.211 73.0326 182.319 73.3144L210.899 80.5847C212.479 80.9867 214.015 79.7926 214.015 78.1619V46.6508C214.015 46.2431 213.916 45.8415 213.725 45.4811L209.046 36.6424C208.931 36.4262 208.871 36.1852 208.871 35.9406V7.68044C208.871 6.54781 208.11 5.55669 207.015 5.26485L193.868 1.75893C192.281 1.3357 190.724 2.53193 190.724 4.17451V7.00125Z" fill="#6D7EA5" stroke="black"/>
<path d="M206.444 6.77095L204.689 6.24448C203.759 5.96543 203.017 7.04229 203.609 7.81202L205.364 10.0934C205.946 10.8502 207.157 10.4385 207.157 9.48366V7.72877C207.157 7.28716 206.867 6.89784 206.444 6.77095Z" fill="#FFBF49" stroke="black"/>
<path d="M206.93 5.72487L192.653 1.57157L193.579 1.30682C194.282 1.10611 195.026 1.10163 195.731 1.29386L208.898 4.88487C209.768 5.12218 210.371 5.9125 210.371 6.8144V35.6536C210.371 35.9807 210.452 36.3029 210.605 36.5919L214.996 44.857C215.15 45.1459 215.23 45.4681 215.23 45.7953V76.9591C215.23 78.2466 214.586 79.4489 213.515 80.1631V46.6511C213.515 46.3249 213.435 46.0037 213.283 45.7154L208.603 36.8766C208.451 36.5883 208.371 36.2671 208.371 35.9409V7.64526C208.371 6.75585 207.784 5.97331 206.93 5.72487Z" fill="#D7D7F6" stroke="black"/>
<path d="M196.772 18.8483C196.772 18.0977 196.267 17.4409 195.542 17.2475L185.995 14.7017C184.943 14.4212 183.911 15.214 183.911 16.3025C183.911 17.0532 184.416 17.71 185.141 17.9034L194.688 20.4492C195.74 20.7297 196.772 19.9369 196.772 18.8483Z" fill="black" fill-opacity="0.25"/>
<path d="M196.772 25.7072C196.772 24.9566 196.267 24.2998 195.542 24.1063L185.995 21.5605C184.943 21.2801 183.911 22.0728 183.911 23.1614C183.911 23.9121 184.416 24.5689 185.141 24.7623L194.688 27.3081C195.74 27.5886 196.772 26.7958 196.772 25.7072Z" fill="black" fill-opacity="0.25"/>
<path d="M196.772 32.5661C196.772 31.8155 196.267 31.1586 195.542 30.9652L185.995 28.4194C184.943 28.1389 183.911 28.9317 183.911 30.0203C183.911 30.7709 184.416 31.4278 185.141 31.6212L194.688 34.167C195.74 34.4475 196.772 33.6547 196.772 32.5661Z" fill="black" fill-opacity="0.25"/>
<path d="M191.055 37.7514C191.055 36.9805 190.526 36.31 189.777 36.1301L185.967 35.2157C184.918 34.9641 183.91 35.7588 183.91 36.8371C183.91 37.608 184.439 38.2785 185.188 38.4584L188.998 39.3728C190.047 39.6244 191.055 38.8297 191.055 37.7514Z" fill="black" fill-opacity="0.25"/>
<path d="M191.055 57.7563C191.055 56.9854 190.526 56.3149 189.777 56.135L185.967 55.2206C184.918 54.969 183.91 55.7637 183.91 56.8419C183.91 57.6129 184.439 58.2834 185.188 58.4633L188.998 59.3777C190.047 59.6293 191.055 58.8346 191.055 57.7563Z" fill="black" fill-opacity="0.25"/>
<path d="M200.2 40.0386C200.2 39.2676 199.672 38.5971 198.922 38.4172L195.112 37.5028C194.064 37.2512 193.056 38.0459 193.056 39.1242C193.056 39.8951 193.584 40.5656 194.334 40.7455L198.144 41.6599C199.192 41.9115 200.2 41.1168 200.2 40.0386Z" fill="black" fill-opacity="0.25"/>
<path d="M196.772 46.2834C196.772 45.5328 196.267 44.8759 195.542 44.6825L185.995 42.1367C184.943 41.8562 183.911 42.649 183.911 43.7376C183.911 44.4882 184.416 45.1451 185.141 45.3385L194.688 47.8843C195.74 48.1648 196.772 47.372 196.772 46.2834Z" fill="black" fill-opacity="0.25"/>
<path d="M204.202 55.7126C204.202 54.9627 203.698 54.3064 202.973 54.1125L185.995 49.5691C184.943 49.2876 183.911 50.0803 183.911 51.1692C183.911 51.9191 184.415 52.5755 185.139 52.7694L202.117 57.3128C203.169 57.5943 204.202 56.8016 204.202 55.7126Z" fill="black" fill-opacity="0.25"/>
<path d="M171.008 86.6714L163.499 89.4019C162.709 89.6893 162.183 90.4405 162.183 91.2815V102.947C162.183 103.698 161.762 104.385 161.094 104.727L151.554 109.614C150.886 109.956 150.465 110.644 150.465 111.394V130.48C150.465 131.326 150.998 132.081 151.795 132.364L200.391 149.662C200.817 149.813 201.283 149.816 201.711 149.669L219.703 143.5C220.512 143.223 221.055 142.463 221.055 141.608V96.7521C221.055 95.8912 220.504 95.127 219.687 94.8547L212.288 92.3882C211.858 92.2449 211.392 92.2519 210.967 92.4078L203.658 95.0877C203.263 95.2326 202.832 95.2491 202.427 95.135L172.234 86.626C171.831 86.5123 171.402 86.5282 171.008 86.6714Z" fill="#D7D7F6" stroke="black"/>
<path d="M150.465 110.17V135.891L169.908 142.464L175.052 140.749L201.05 149.894V126.46L150.465 110.17Z" fill="#6D7EA5" stroke="black"/>
<path d="M161.094 104.727L150.465 110.171L199.381 125.924C200.336 126.231 201.371 125.784 201.801 124.877L211.431 104.577C211.558 104.309 211.624 104.016 211.624 103.719V100.514C211.624 99.6304 211.044 98.8518 210.198 98.598L205.529 97.1973C204.294 96.8266 203.05 97.7519 203.05 99.042C203.05 100.322 201.824 101.246 200.593 100.893L164.734 90.6118C163.456 90.2454 162.183 91.2049 162.183 92.5344V102.947C162.183 103.698 161.762 104.385 161.094 104.727Z" fill="#8EA1CE" stroke="black" stroke-linejoin="round"/>
<path d="M155.871 110.588L174.807 116.49C175.277 116.636 175.784 116.419 176.002 115.977L179.283 109.314L163.441 104.852C163.19 104.781 162.921 104.811 162.691 104.936L155.69 108.755C154.915 109.178 155.028 110.325 155.871 110.588Z" fill="#D7D7F6"/>
<path d="M179.283 109.314L184.686 98.3441C184.9 97.9111 185.392 97.6922 185.856 97.8238L202.202 102.455M179.283 109.314L176.002 115.977C175.784 116.419 175.277 116.636 174.807 116.49L155.871 110.588C155.028 110.325 154.915 109.178 155.69 108.755L162.691 104.936C162.921 104.811 163.19 104.781 163.441 104.852L179.283 109.314Z" stroke="black" stroke-linecap="round" stroke-linejoin="round"/>
<path d="M186.482 103.331C186.798 102.674 187.541 102.339 188.242 102.538L203.735 106.925C204.631 107.179 205.082 108.18 204.678 109.019L199.062 120.686C198.739 121.357 197.973 121.689 197.262 121.466L181.971 116.674C181.098 116.4 180.671 115.416 181.068 114.592L186.482 103.331Z" fill="#FFF0C5" stroke="black"/>
<path d="M90.4645 166.295C89.5509 165.987 89.5594 164.692 90.477 164.396L104.997 159.712C105.201 159.646 105.42 159.648 105.623 159.716L105.828 159.785C106.742 160.093 106.733 161.388 105.816 161.684L91.2958 166.368C91.0919 166.434 90.8723 166.432 90.6693 166.364L90.4645 166.295Z" fill="#FFBF49" stroke="black"/>
<path d="M101.298 167.416C100.391 167.111 100.391 165.828 101.297 165.522L115.917 160.577C116.124 160.507 116.349 160.507 116.557 160.577L116.821 160.666C117.728 160.972 117.728 162.254 116.821 162.561L102.202 167.505C101.994 167.575 101.77 167.575 101.562 167.505L101.298 167.416Z" fill="#FFBF49" stroke="black"/>
<path d="M11.5725 30.9323C11.5725 30.4734 11.8848 30.0735 12.33 29.9622L19.4751 28.1759C20.1063 28.0181 20.7177 28.4954 20.7177 29.146V43.7118C20.7177 43.9941 20.5984 44.2632 20.3892 44.4528L13.244 50.9281C12.6013 51.5106 11.5725 51.0545 11.5725 50.1871V30.9323Z" fill="#D7D7F6" stroke="black"/>
<path d="M11.5737 30.9069C11.5737 30.4605 11.2775 30.068 10.8482 29.9454C10.2094 29.7628 9.57318 30.2424 9.57318 30.9068V50.2608C9.57318 50.7073 9.86934 51.0997 10.2986 51.2224C10.9375 51.4049 11.5737 50.9253 11.5737 50.2609V30.9069Z" fill="#6D7EA5" stroke="black"/>
<path d="M10.1444 29.5791L11.2812 30.0338C11.4714 30.1099 11.6803 30.1257 11.8798 30.0792L20.1469 28.1502L18.1077 27.6404C17.9456 27.5998 17.7759 27.6006 17.6142 27.6425L10.1444 29.5791Z" fill="#D7D7F6" stroke="black" stroke-linejoin="round"/>
<path d="M13.2881 33.2022C13.2881 32.7512 13.5899 32.356 14.025 32.2374L18.3123 31.0681C18.9484 30.8946 19.5754 31.3735 19.5754 32.0329V32.2461C19.5754 32.6971 19.2736 33.0922 18.8385 33.2109L14.5512 34.3802C13.9151 34.5537 13.2881 34.0748 13.2881 33.4154V33.2022Z" fill="#FFBF49" stroke="black"/>
<path d="M68.4994 122.685L67.6567 122.776C64.6079 123.102 62.2959 125.675 62.2959 128.741V137.152C62.2959 139.773 63.9968 142.09 66.4969 142.876L73.2459 144.997C74.4138 145.364 75.666 145.365 76.8345 145L101.708 137.227C103.279 136.736 104.579 135.621 105.304 134.144L113.147 118.168C113.701 117.039 113.887 115.765 113.677 114.524L109.976 92.6272C109.755 91.3175 109.017 90.1511 107.929 89.3894C106.702 88.5304 105.152 88.2717 103.713 88.6856L81.2024 95.1574C78.6313 95.8966 76.8603 98.2486 76.8603 100.924V106.469C76.8603 107.04 76.7789 107.607 76.6187 108.154L73.6186 118.405C72.9362 120.736 70.915 122.426 68.4994 122.685Z" fill="#D7D7F6" stroke="black"/>
<path d="M68.1361 122.685L67.2934 122.776C64.2446 123.102 61.9326 125.675 61.9326 128.742V137.152C61.9326 139.773 63.6335 142.09 66.1337 142.876L69.7653 144.017C72.5907 144.905 75.6413 143.599 76.9483 140.941L85.0334 124.502C85.4067 123.742 85.6158 122.915 85.6436 122.069C85.8794 114.908 86.1478 102.149 85.5997 99.6829C85.0575 97.2431 81.3197 96.1436 79.1408 95.8341C78.8376 95.791 78.5304 95.8213 78.2362 95.9059C77.2064 96.202 76.497 97.144 76.497 98.2155V106.469C76.497 107.04 76.4156 107.607 76.2554 108.155L73.2553 118.405C72.5729 120.737 70.5517 122.427 68.1361 122.685Z" fill="#6D7EA5" stroke="black"/>
<path d="M104.183 135.686L111.745 120.282C112.494 118.757 111.12 117.052 109.471 117.459L86.5034 123.126C85.93 123.268 85.4485 123.655 85.1879 124.185L76.7322 141.378C75.9566 142.955 77.4461 144.694 79.1235 144.17L102.984 136.714C103.508 136.55 103.941 136.178 104.183 135.686Z" fill="#6D7EA5" stroke="black"/>
<path d="M99.5658 86.551L87.4714 90.0398C86.2611 90.3889 84.9673 90.3085 83.8095 89.8123C81.8032 88.9525 80.5023 86.9797 80.5023 84.7969V78.8256C80.5023 76.0974 82.3429 73.7126 84.9822 73.0214L93.48 70.7957C94.9663 70.4065 96.5454 70.6022 97.8917 71.3427L100.422 72.7342C102.092 73.6526 103.226 75.3096 103.478 77.1985L103.85 79.9931C104.243 82.9383 102.421 85.7274 99.5658 86.551Z" fill="#D7D7F6" stroke="black"/>
<path d="M101.162 86.0918L90.7084 89.1072C88.151 89.8449 85.5998 87.9256 85.5998 85.2639V80.5799C85.5998 78.7519 86.8391 77.1564 88.6103 76.7042L98.4306 74.1969C100.723 73.6115 103.021 75.1336 103.375 77.4733L104.008 81.6493C104.309 83.6346 103.091 85.5353 101.162 86.0918Z" fill="#6D7EA5" stroke="black"/>
<path d="M76.6184 131.579C76.6184 129.334 67.3961 128.039 58.6696 118.217C56.6931 115.993 55.9451 113.969 57.3098 111.962C49.501 109.963 35.4316 107.839 32.0183 112.836C33.7406 124.318 45.6159 129.639 59.2135 134.534C69.5476 138.255 74.6952 134.673 76.6184 132.359V131.579Z" fill="#D7D7F6"/>
<path d="M39.7421 117.094L43.4522 118.154C44.2548 118.383 44.9776 117.579 44.7137 116.787C42.342 109.67 44.1699 105.641 46.131 103.867C46.6738 103.376 46.8008 102.448 46.2499 101.966L43.476 99.5389C43.1177 99.2254 42.5875 99.2055 42.2306 99.5205C40.4854 101.061 37.7506 104.222 37.1444 107.859C36.4988 111.733 38.1656 115.235 39.2375 116.745C39.3594 116.917 39.5396 117.036 39.7421 117.094Z" fill="white" stroke="black"/>
<path d="M30.7371 114.804C32.7948 127.836 51.5996 135.762 61.8879 138.524C69.3183 140.52 75.9516 136.905 76.6185 135.667V132.633C71.5885 137.205 64.7457 136.619 61.8879 135.667C27.822 126.521 28.8524 108.803 33.6259 101.086C30.6965 104.649 29.8131 108.952 30.7371 114.804Z" fill="#6D7EA5" stroke="black"/>
</g>
<defs>
<filter id="filter0_d_33375_2304" x="0.61322" y="110.665" width="252.774" height="92.6709" filterUnits="userSpaceOnUse" color-interpolation-filters="sRGB">
<feFlood flood-opacity="0" result="BackgroundImageFix"/>
<feColorMatrix in="SourceAlpha" type="matrix" values="0 0 0 0 0 0 0 0 0 0 0 0 0 0 0 0 0 0 127 0" result="hardAlpha"/>
<feOffset dy="4"/>
<feComposite in2="hardAlpha" operator="out"/>
<feColorMatrix type="matrix" values="0 0 0 0 0.117647 0 0 0 0 0.12549 0 0 0 0 0.364706 0 0 0 1 0"/>
<feBlend mode="normal" in2="BackgroundImageFix" result="effect1_dropShadow_33375_2304"/>
<feBlend mode="normal" in="SourceGraphic" in2="effect1_dropShadow_33375_2304" result="shape"/>
</filter>
<filter id="filter1_i_33375_2304" x="106.762" y="4.78613" width="36.1779" height="11.2886" filterUnits="userSpaceOnUse" color-interpolation-filters="sRGB">
<feFlood flood-opacity="0" result="BackgroundImageFix"/>
<feBlend mode="normal" in="SourceGraphic" in2="BackgroundImageFix" result="shape"/>
<feColorMatrix in="SourceAlpha" type="matrix" values="0 0 0 0 0 0 0 0 0 0 0 0 0 0 0 0 0 0 127 0" result="hardAlpha"/>
<feOffset dy="5"/>
<feComposite in2="hardAlpha" operator="arithmetic" k2="-1" k3="1"/>
<feColorMatrix type="matrix" values="0 0 0 0 1 0 0 0 0 1 0 0 0 0 1 0 0 0 0.8 0"/>
<feBlend mode="normal" in2="shape" result="effect1_innerShadow_33375_2304"/>
</filter>
<clipPath id="clip0_33375_2304">
<rect width="254" height="204" fill="white"/>
</clipPath>
</defs>
</svg>
