<svg width="252" height="226" viewBox="0 0 252 226" fill="none" xmlns="http://www.w3.org/2000/svg">
<g clip-path="url(#clip0_33375_1403)">
<g filter="url(#filter0_d_33375_1403)">
<path d="M117.742 134.292C121.975 132.807 126.584 132.788 130.828 134.238L250.533 175.132C252.33 175.746 252.341 178.284 250.549 178.912L134.258 219.708C130.025 221.193 125.416 221.212 121.172 219.762L1.46667 178.868C-0.330116 178.254 -0.340512 175.716 1.45118 175.088L117.742 134.292Z" fill="#463882"/>
<path d="M117.742 134.292C121.975 132.807 126.584 132.788 130.828 134.238L250.533 175.132C252.33 175.746 252.341 178.284 250.549 178.912L134.258 219.708C130.025 221.193 125.416 221.212 121.172 219.762L1.46667 178.868C-0.330116 178.254 -0.340512 175.716 1.45118 175.088L117.742 134.292Z" stroke="black"/>
</g>
<path d="M129.017 190.234C160.355 190.234 185.759 182.071 185.759 172.002V164.46V133.89H72.2751V172.002C72.2751 182.071 97.6795 190.234 129.017 190.234Z" fill="#7781F5"/>
<path d="M185.759 164.46V133.89H72.2751V172.002C72.2751 182.071 97.6795 190.234 129.017 190.234C160.355 190.234 185.759 182.071 185.759 172.002V164.46ZM185.759 164.46C183.198 169.188 172.042 179.205 147.906 181.443C123.771 183.68 101.221 180.91 92.9623 179.245" stroke="black"/>
<path d="M129.217 150.274C160.665 150.274 186.159 142.134 186.159 132.093V124.3H72.2751V132.093C72.2751 142.134 97.7689 150.274 129.217 150.274Z" fill="#4B35C5" stroke="black"/>
<ellipse cx="129.217" cy="124.499" rx="56.942" ry="18.1818" fill="#6956D4" stroke="black"/>
<path d="M129.217 136.288C154.928 136.288 175.77 129.579 175.77 121.303V112.312H82.6648V121.303C82.6648 129.579 103.507 136.288 129.217 136.288Z" fill="#7781F5" stroke="black"/>
<ellipse cx="129.217" cy="112.512" rx="46.5526" ry="14.985" fill="#AAA1FE" stroke="black"/>
<ellipse cx="129.217" cy="106.518" rx="37.7615" ry="12.1878" fill="#5148A9" stroke="black"/>
<path d="M129.217 121.903C153.383 121.903 172.973 115.618 172.973 107.865C172.973 107.865 179.966 102.322 176.969 42.3823H81.4659C79.0684 102.122 85.4618 107.865 85.4618 107.865C85.4618 115.618 105.052 121.903 129.217 121.903Z" fill="url(#paint0_radial_33375_1403)" stroke="black"/>
<path d="M85.1703 99.7241C85.9586 107.449 89.5329 111.404 91.292 112.469C91.3409 112.498 91.3838 112.528 91.428 112.564C108.311 126.485 173.07 121.687 164.889 109.315C157.887 98.7251 147.906 113.872 125.329 116.108C105.15 118.106 101.312 103.45 96.9583 96.1277C92.5628 88.7351 84.1714 89.9339 85.1703 99.7241Z" fill="#78FEFF" stroke="black" stroke-linecap="round" stroke-linejoin="round"/>
<path d="M160.59 108.71C158.221 107.434 154.338 109.561 152.692 110.784C149.401 113.495 157.299 111.741 159.768 111.9C162.236 112.06 163.552 110.305 160.59 108.71Z" stroke="black"/>
<path d="M98.357 104.919C96.5988 100.923 94.9604 98.9917 94.361 98.5255C92.7627 97.7929 90.2452 97.6463 92.9625 102.921C95.6797 108.196 102.02 112.112 104.151 112.911C102.153 112.004 100.115 108.915 98.357 104.919Z" stroke="black"/>
<path d="M129.217 55.5686C156.914 55.5686 179.366 48.386 179.366 39.5259V23.6006H79.0684V39.5259C79.0684 48.386 101.521 55.5686 129.217 55.5686Z" fill="#4B35C5" stroke="black"/>
<path d="M129.217 45.5782C160.665 45.5782 186.159 37.438 186.159 27.3964V19.2046H72.2751V27.3964C72.2751 37.438 97.7689 45.5782 129.217 45.5782Z" fill="#BAAFFC" stroke="black"/>
<ellipse cx="129.217" cy="18.6057" rx="56.942" ry="18.1818" fill="#7370C8" stroke="black"/>
<ellipse cx="129.125" cy="18.6054" rx="36.3629" ry="11.3886" fill="#524FA8" stroke="black"/>
<path fill-rule="evenodd" clip-rule="evenodd" d="M93.3202 20.6037C96.3356 15.2665 111.219 11.2129 129.125 11.2129C147.032 11.2129 161.915 15.2665 164.931 20.6037C161.915 25.9408 147.032 29.9944 129.125 29.9944C111.219 29.9944 96.3356 25.9408 93.3202 20.6037Z" fill="#78FEFF"/>
<path d="M93.3202 20.6037L92.8849 20.3577L92.7459 20.6037L92.8849 20.8496L93.3202 20.6037ZM164.931 20.6037L165.366 20.8496L165.505 20.6037L165.366 20.3577L164.931 20.6037ZM93.7555 20.8496C94.4419 19.6348 95.8417 18.4367 97.9059 17.325C99.9601 16.2186 102.623 15.224 105.767 14.3901C112.053 12.7228 120.206 11.7129 129.125 11.7129V10.7129C120.138 10.7129 111.897 11.7298 105.511 13.4236C102.318 14.2703 99.5758 15.2898 97.4317 16.4445C95.2976 17.594 93.7062 18.904 92.8849 20.3577L93.7555 20.8496ZM129.125 11.7129C138.045 11.7129 146.198 12.7228 152.484 14.3901C155.628 15.224 158.291 16.2186 160.345 17.325C162.409 18.4367 163.809 19.6348 164.495 20.8496L165.366 20.3577C164.545 18.904 162.953 17.594 160.819 16.4445C158.675 15.2898 155.933 14.2703 152.74 13.4236C146.354 11.7298 138.113 10.7129 129.125 10.7129V11.7129ZM164.495 20.3577C163.809 21.5726 162.409 22.7706 160.345 23.8824C158.291 24.9887 155.628 25.9834 152.484 26.8172C146.198 28.4845 138.045 29.4944 129.125 29.4944V30.4944C138.113 30.4944 146.354 29.4776 152.74 27.7838C155.933 26.937 158.675 25.9176 160.819 24.7628C162.953 23.6134 164.545 22.3033 165.366 20.8496L164.495 20.3577ZM129.125 29.4944C120.206 29.4944 112.053 28.4845 105.767 26.8172C102.623 25.9834 99.9601 24.9887 97.9059 23.8824C95.8417 22.7706 94.4419 21.5726 93.7555 20.3577L92.8849 20.8496C93.7062 22.3033 95.2976 23.6134 97.4317 24.7628C99.5758 25.9176 102.318 26.937 105.511 27.7838C111.897 29.4776 120.138 30.4944 129.125 30.4944V29.4944Z" fill="black"/>
<path d="M66.1399 153.412L73.7277 174.715C73.821 174.977 74.019 175.188 74.2742 175.298L122.397 196.023C122.668 196.139 122.976 196.131 123.24 195.999L130.863 192.185C131.201 192.016 131.415 191.67 131.415 191.291V169.132C130.35 160.007 129.652 139.716 102.844 133.567C81.2377 128.611 66.3178 145.98 66.0847 153.083C66.0809 153.197 66.1015 153.305 66.1399 153.412Z" fill="#5462D1" stroke="black"/>
<path d="M65.083 157.144V179.521L122.624 196.304V173.527C121.559 164.403 120.861 144.111 94.0535 137.963C72.2757 132.968 65.083 150.151 65.083 157.144Z" fill="#4B35C5" stroke="black"/>
<path d="M73.6829 164.501V181.296C73.6829 181.724 73.9548 182.104 74.3595 182.243L109.88 194.381C110.115 194.462 110.372 194.452 110.6 194.353L112.039 193.733C112.406 193.574 112.643 193.214 112.643 192.814V175.649C112.643 169.496 114.304 151.888 93.4543 147.076C76.516 143.168 73.6829 159.029 73.6829 164.501Z" fill="#A1B7F5" stroke="black"/>
<path d="M71.0853 165.735V182.497C71.0853 182.941 71.3776 183.331 71.8031 183.456L108.763 194.329C109.404 194.517 110.046 194.037 110.046 193.369V176.883C110.046 170.73 110.046 152.865 90.8567 149.074C74.6732 145.878 71.0853 160.263 71.0853 165.735Z" fill="#4764B7" stroke="black"/>
<path d="M100.632 185.15C97.3358 187.029 93.2294 187.057 89.2223 185.522C85.2146 183.986 81.336 180.895 78.5607 176.596C75.7853 172.297 74.659 167.636 75.0609 163.587C75.4627 159.537 77.3854 156.127 80.6816 154.248C83.9777 152.368 88.084 152.34 92.0912 153.876C96.0988 155.411 99.9775 158.502 102.753 162.801C105.528 167.1 106.654 171.761 106.253 175.811C105.851 179.86 103.928 183.27 100.632 185.15Z" fill="#5D71E1" stroke="black"/>
<path fill-rule="evenodd" clip-rule="evenodd" d="M83.7809 152.797C90.3628 151.499 98.3302 155.371 103.051 162.683C108.378 170.935 107.662 180.609 101.63 185.01C97.7518 185.614 93.4159 184.43 89.5663 181.821C87.0271 180.1 84.6995 177.758 82.8543 174.9C82.3766 174.16 81.9465 173.409 81.5635 172.652C79.6925 168.953 78.9468 165.105 79.2716 161.663C79.613 158.045 81.1374 154.875 83.7809 152.797Z" fill="#354CAC"/>
<path d="M83.7809 152.797L83.693 152.309L83.5717 152.333L83.4742 152.409L83.7809 152.797ZM103.051 162.683L102.627 162.958L103.051 162.683ZM101.63 185.01L101.698 185.502L101.821 185.483L101.922 185.409L101.63 185.01ZM89.5663 181.821L89.8555 181.408L89.5663 181.821ZM82.8543 174.9L83.2788 174.626L82.8543 174.9ZM81.5635 172.652L81.1138 172.883L81.5635 172.652ZM79.2716 161.663L79.7715 161.699L79.2716 161.663ZM83.8688 153.285C90.1957 152.037 97.982 155.764 102.627 162.958L103.476 162.409C98.6783 154.978 90.5298 150.96 83.693 152.309L83.8688 153.285ZM102.627 162.958C107.878 171.093 107.065 180.433 101.338 184.611L101.922 185.409C108.26 180.786 108.878 170.777 103.476 162.409L102.627 162.958ZM101.562 184.518C97.8387 185.098 93.628 183.965 89.8555 181.408L89.2771 182.234C93.2038 184.895 97.6649 186.13 101.698 185.502L101.562 184.518ZM89.8555 181.408C87.371 179.724 85.0891 177.43 83.2788 174.626L82.4299 175.175C84.3098 178.087 86.6832 180.476 89.2771 182.234L89.8555 181.408ZM83.2788 174.626C82.8102 173.9 82.3885 173.164 82.0132 172.422L81.1138 172.883C81.5045 173.655 81.943 174.421 82.4299 175.175L83.2788 174.626ZM82.0132 172.422C80.1786 168.794 79.4564 165.038 79.7715 161.699L78.7717 161.627C78.4372 165.172 79.2063 169.112 81.1138 172.883L82.0132 172.422ZM79.7715 161.699C80.1026 158.19 81.5753 155.159 84.0876 153.185L83.4742 152.409C80.6995 154.59 79.1234 157.9 78.7717 161.627L79.7715 161.699ZM89.1371 168.407C87.8678 170.507 86.1489 176.098 89.1153 182.049L90.0173 181.593C87.2296 176 88.8672 170.772 89.9955 168.906L89.1371 168.407ZM89.7141 168.177C88.6972 167.888 87.0688 167.761 85.4289 168.304C83.7667 168.855 82.1165 170.088 81.1018 172.466L82.0253 172.838C82.9198 170.741 84.335 169.71 85.7288 169.248C87.145 168.779 88.5633 168.892 89.4185 169.135L89.7141 168.177ZM90.0479 168.505C89.5631 166.884 88.4504 164.572 86.6626 162.901C84.8541 161.21 82.3322 160.163 79.1265 161.19L79.4167 162.137C82.2007 161.245 84.3583 162.13 85.9657 163.632C87.5938 165.154 88.6336 167.298 89.0847 168.807L90.0479 168.505ZM90.0371 168.819C90.7956 166.772 91.4966 163.592 91.2514 160.436C91.0057 157.275 89.8015 154.074 86.6778 152.126L86.1305 152.972C88.9026 154.701 90.019 157.558 90.2502 160.534C90.4819 163.515 89.8159 166.549 89.0955 168.493L90.0371 168.819ZM89.7514 169.115C92.5923 167.938 97.5752 164.246 99.175 157.724L98.1996 157.508C96.6946 163.643 91.9956 167.114 89.3812 168.197L89.7514 169.115ZM89.4192 169.135C91.4842 169.72 94.3788 170.282 97.3764 170.43C100.365 170.578 103.509 170.317 106.04 169.211L105.652 168.301C103.331 169.315 100.369 169.58 97.4474 169.435C94.5348 169.291 91.7154 168.744 89.7134 168.177L89.4192 169.135ZM89.0965 168.842C89.9639 171.107 91.6925 174.314 94.2056 177.102C96.7173 179.889 100.051 182.299 104.132 182.876L104.294 181.89C100.526 181.357 97.3854 179.12 94.9605 176.43C92.5371 173.741 90.8668 170.64 90.0361 168.471L89.0965 168.842Z" fill="black"/>
<ellipse cx="4.25469" cy="3.15693" rx="4.25469" ry="3.15693" transform="matrix(-0.668025 -0.744139 0.744126 -0.66804 90.6201 173.74)" fill="#92693D" stroke="black"/>
<ellipse cx="2.71233" cy="2.01252" rx="2.71233" ry="2.01252" transform="matrix(-0.668025 -0.744139 0.744126 -0.66804 90.0437 172.115)" fill="#E1A15D"/>
<path d="M184.466 183.265L163.407 190.041C162.786 190.24 162.144 189.811 162.099 189.161C160.957 172.849 156.672 141.409 147.652 130.237C147.07 129.516 147.551 128.134 148.466 127.985C154.648 126.978 168.091 123.798 171.411 122.546C171.766 122.412 172.177 122.444 172.486 122.665C185.161 131.735 185.161 139.867 185.16 145.968L185.16 146.078V182.313C185.16 182.747 184.88 183.132 184.466 183.265Z" fill="#999BFE" stroke="black"/>
<path d="M166.532 149.784C166.041 143.021 161.848 136.26 158.735 132.933C158.157 132.317 158.43 131.208 159.254 131.02L172.488 127.986C172.74 127.929 173.006 127.97 173.224 128.108C178.806 131.664 181.866 138.751 182.062 146.303C182.073 146.758 181.763 147.157 181.321 147.271L167.829 150.751C167.196 150.914 166.579 150.436 166.532 149.784Z" fill="#78FEFF" stroke="black"/>
<path d="M166.979 185.501V158.226C166.979 157.777 167.278 157.383 167.71 157.262L179.296 154.025C179.933 153.847 180.565 154.326 180.565 154.988V182.093C180.565 182.537 180.273 182.927 179.847 183.052L168.261 186.46C167.62 186.649 166.979 186.168 166.979 185.501Z" fill="#4D63F5" stroke="black"/>
<path d="M182.762 182.213V154.299C182.762 153.605 182.073 153.122 181.421 153.359L181.223 153.431C180.828 153.575 180.565 153.95 180.565 154.371V182.141C180.565 182.561 180.828 182.937 181.223 183.081L181.421 183.152C182.073 183.39 182.762 182.907 182.762 182.213Z" fill="#27348A" stroke="black"/>
<path d="M145.8 134.936V129.859C145.8 129.129 146.55 128.651 147.186 129.009C152.667 132.096 161.597 140.112 162.183 152.871C162.779 165.83 162.496 182.509 162.239 189.145C162.214 189.799 161.573 190.242 160.948 190.045L155.605 188.366C155.341 188.283 155.125 188.093 154.995 187.848C153.364 184.766 150.355 182.649 148.584 181.726C148.232 181.543 147.998 181.187 147.998 180.79V150.483C147.998 150.011 148.327 149.604 148.788 149.505L150.005 149.245C150.466 149.146 150.795 148.738 150.795 148.267V141.836C150.795 141.607 150.717 141.386 150.573 141.208L146.022 135.564C145.878 135.386 145.8 135.164 145.8 134.936Z" fill="#334BA4" stroke="black"/>
<path d="M170.274 142.301L168.242 136.564C167.967 135.789 168.693 135.033 169.479 135.274L174.14 136.708C174.763 136.9 175.039 137.629 174.699 138.186L172.069 142.488C171.63 143.206 170.555 143.094 170.274 142.301Z" fill="#FFBF49" stroke="black"/>
<path d="M122.824 173.85L113.119 171.715C112.934 171.674 112.74 171.693 112.566 171.767C111.762 172.112 111.857 173.276 112.71 173.472C117.986 174.684 129.468 177.247 132.214 177.247C140.206 177.247 140.206 172.252 137.409 171.652L132.082 170.587C131.679 170.506 131.275 170.686 131.007 170.997C129.015 173.314 124.807 174.222 122.824 173.85Z" fill="#8685F9" stroke="black"/>
<path d="M111.268 173.139C115.473 174.117 129.179 177.247 132.214 177.247C136.76 177.247 138.72 175.42 139.051 174.25V179.845C139.051 181.643 136.81 183.913 128.618 183.041C125.834 182.745 114.606 180.012 110.779 179.037C110.339 178.925 110.037 178.528 110.037 178.074V174.116C110.037 173.47 110.639 172.993 111.268 173.139Z" fill="#2F489B" stroke="black"/>
<path d="M57.6901 161.238C60.404 162.142 67.0052 163.592 70.4842 164.313C70.7909 164.376 71.0765 164.141 71.0765 163.828C71.0765 163.598 70.918 163.398 70.6939 163.346L65.8553 162.217C65.4027 162.112 65.0826 161.708 65.0826 161.243V157.462C65.0826 156.985 64.746 156.572 64.2754 156.496C55.9745 155.159 54.204 160.076 57.6901 161.238Z" fill="#8685F9" stroke="black"/>
<path d="M57.6903 161.238C60.3518 162.125 66.7517 163.537 70.2793 164.27C70.7446 164.367 71.0767 164.776 71.0767 165.251V169.02C71.0767 169.656 70.4934 170.131 69.8718 169.998C66.133 169.202 60.0636 167.886 58.4894 167.457C56.9067 167.025 56.2612 166.345 56.089 165.971C56.0557 165.898 56.0486 165.818 56.0486 165.738V159.839C56.1254 160.374 56.6786 160.901 57.6903 161.238Z" fill="#2F489B" stroke="black"/>
<path d="M168.416 193.065C167.497 192.755 167.513 191.45 168.44 191.163L186.554 185.548C186.755 185.486 186.97 185.489 187.17 185.556L188.727 186.082C189.646 186.392 189.63 187.697 188.703 187.984L170.589 193.599C170.388 193.661 170.173 193.658 169.973 193.591L168.416 193.065Z" fill="#FFBF49" stroke="black"/>
<path d="M178.006 196.662C177.087 196.352 177.103 195.046 178.03 194.759L196.144 189.145C196.345 189.083 196.56 189.085 196.76 189.153L198.317 189.678C199.236 189.988 199.219 191.294 198.293 191.581L180.179 197.195C179.978 197.258 179.763 197.255 179.563 197.188L178.006 196.662Z" fill="#FFBF49" stroke="black"/>
<path d="M91.2262 194.264C92.1451 193.954 92.1288 192.648 91.2024 192.361L73.0884 186.747C72.8874 186.685 72.6719 186.687 72.4725 186.755L70.9152 187.28C69.9963 187.591 70.0126 188.896 70.939 189.183L89.053 194.797C89.254 194.86 89.4695 194.857 89.6689 194.79L91.2262 194.264Z" fill="#FFBF49" stroke="black"/>
<path d="M81.6359 197.861C82.5548 197.55 82.5385 196.245 81.6121 195.958L63.4981 190.344C63.2971 190.281 63.0816 190.284 62.8822 190.351L61.3249 190.877C60.4059 191.187 60.4223 192.493 61.3486 192.78L79.4627 198.394C79.6637 198.456 79.8792 198.454 80.0786 198.386L81.6359 197.861Z" fill="#FFBF49" stroke="black"/>
<path d="M123.032 108.315C123.032 110.467 121.287 112.211 119.136 112.211C116.985 112.211 115.24 110.467 115.24 108.315C115.24 106.164 116.985 104.419 119.136 104.419C121.287 104.419 123.032 106.164 123.032 108.315Z" fill="#78FEFF" stroke="black"/>
<path d="M162.991 84.5389C162.991 86.3593 161.515 87.8351 159.695 87.8351C157.874 87.8351 156.399 86.3593 156.399 84.5389C156.399 82.7184 157.874 81.2427 159.695 81.2427C161.515 81.2427 162.991 82.7184 162.991 84.5389Z" fill="#78FEFF" stroke="black"/>
<path d="M110.245 87.1359C110.245 88.1839 109.395 89.0335 108.347 89.0335C107.299 89.0335 106.449 88.1839 106.449 87.1359C106.449 86.0879 107.299 85.2383 108.347 85.2383C109.395 85.2383 110.245 86.0879 110.245 87.1359Z" fill="#00BBFF" stroke="black"/>
<path d="M110.644 103.919C110.644 104.526 110.152 105.018 109.546 105.018C108.939 105.018 108.447 104.526 108.447 103.919C108.447 103.313 108.939 102.821 109.546 102.821C110.152 102.821 110.644 103.313 110.644 103.919Z" fill="#78FEFF" stroke="black"/>
<path d="M122.232 95.928C122.232 96.5346 121.74 97.0264 121.134 97.0264C120.527 97.0264 120.035 96.5346 120.035 95.928C120.035 95.3214 120.527 94.8296 121.134 94.8296C121.74 94.8296 122.232 95.3214 122.232 95.928Z" fill="#78FEFF" stroke="black"/>
<path d="M152.202 74.3488C152.202 75.3968 151.352 76.2464 150.304 76.2464C149.256 76.2464 148.407 75.3968 148.407 74.3488C148.407 73.3007 149.256 72.4512 150.304 72.4512C151.352 72.4512 152.202 73.3007 152.202 74.3488Z" fill="#00BBFF" stroke="black"/>
<path d="M166.587 99.9235C166.587 100.972 165.738 101.821 164.69 101.821C163.642 101.821 162.792 100.972 162.792 99.9235C162.792 98.8755 163.642 98.0259 164.69 98.0259C165.738 98.0259 166.587 98.8755 166.587 99.9235Z" fill="#7BF4FF" stroke="black"/>
<path d="M171.382 71.3524C171.382 72.0694 170.801 72.6506 170.084 72.6506C169.367 72.6506 168.786 72.0694 168.786 71.3524C168.786 70.6354 169.367 70.0542 170.084 70.0542C170.801 70.0542 171.382 70.6354 171.382 71.3524Z" fill="#7BF4FF" stroke="black"/>
<path d="M99.4554 63.1604C99.4554 64.8705 98.0691 66.2568 96.359 66.2568C94.649 66.2568 93.2627 64.8705 93.2627 63.1604C93.2627 61.4503 94.649 60.064 96.359 60.064C98.0691 60.064 99.4554 61.4503 99.4554 63.1604Z" fill="#00BBFF" stroke="black"/>
<path d="M156.856 94.1839C157.494 93.6162 158.219 93.2307 159.066 92.8097C159.153 92.7661 159.242 92.7223 159.332 92.6778C160.103 92.297 160.96 91.8733 161.86 91.2613C163.893 89.8791 166.1 87.5688 168.367 82.6303C169.057 81.1258 169.675 80.1639 170.206 79.6168C170.739 79.0668 171.091 79.0231 171.305 79.0843C171.568 79.1595 171.898 79.4573 172.233 80.1292C172.557 80.7787 172.835 81.6769 173.054 82.7555C173.49 84.9081 173.673 87.6855 173.572 90.3988C173.471 93.1086 173.088 95.7079 172.419 97.5344C170.079 102.587 164.276 103.453 159.908 102.079C157.725 101.393 156.038 100.183 155.363 98.8043C155.032 98.1285 154.94 97.4068 155.146 96.6522C155.354 95.8896 155.88 95.0531 156.856 94.1839Z" fill="#78FEFF" stroke="black"/>
<ellipse cx="91.3642" cy="95.3278" rx="1.39857" ry="1.3986" stroke="black"/>
</g>
<defs>
<filter id="filter0_d_33375_1403" x="-0.386719" y="132.665" width="252.773" height="92.6709" filterUnits="userSpaceOnUse" color-interpolation-filters="sRGB">
<feFlood flood-opacity="0" result="BackgroundImageFix"/>
<feColorMatrix in="SourceAlpha" type="matrix" values="0 0 0 0 0 0 0 0 0 0 0 0 0 0 0 0 0 0 127 0" result="hardAlpha"/>
<feOffset dy="4"/>
<feComposite in2="hardAlpha" operator="out"/>
<feColorMatrix type="matrix" values="0 0 0 0 0.117647 0 0 0 0 0.12549 0 0 0 0 0.364706 0 0 0 1 0"/>
<feBlend mode="normal" in2="BackgroundImageFix" result="effect1_dropShadow_33375_1403"/>
<feBlend mode="normal" in="SourceGraphic" in2="effect1_dropShadow_33375_1403" result="shape"/>
</filter>
<radialGradient id="paint0_radial_33375_1403" cx="0" cy="0" r="1" gradientUnits="userSpaceOnUse" gradientTransform="translate(129.322 72.1526) rotate(90) scale(49.7503 48.3936)">
<stop stop-color="#489899" stop-opacity="0"/>
<stop offset="1" stop-color="#78FEFF"/>
</radialGradient>
<clipPath id="clip0_33375_1403">
<rect width="252" height="226" fill="white"/>
</clipPath>
</defs>
</svg>
