<svg width="18" height="16" viewBox="0 0 18 16" fill="none" xmlns="http://www.w3.org/2000/svg">
<path d="M1.12338 2.1119C1.05756 1.51953 1.52125 1.00146 2.11726 1.00146H10.7946C11.3042 1.00146 11.7322 1.3846 11.7885 1.89103L12.6352 9.51172C12.7011 10.1041 12.2374 10.6222 11.6414 10.6222H2.96401C2.45446 10.6222 2.02639 10.239 1.97012 9.73259L1.12338 2.1119Z" fill="black" stroke="black" stroke-width="2"/>
<path d="M10.5862 3.72538H15.026C15.5398 3.72538 15.97 4.11468 16.0211 4.62588L16.89 13.3155C16.9489 13.9042 16.4866 14.415 15.895 14.415H7.21533C6.70158 14.415 6.27142 14.0257 6.22029 13.5145L5.77586 9.07021" stroke="black" stroke-width="2"/>
</svg>
