<svg width="20" height="14" viewBox="0 0 20 14" fill="none" xmlns="http://www.w3.org/2000/svg">
<path d="M19.4899 0.539278C19.1421 0.185102 18.6991 0 18.1982 0H6.5625C5.61316 0 4.8548 0.373943 4.30836 1.13118L0 6.99753L4.3125 12.8254L4.31953 12.8345L4.32672 12.8438C4.59641 13.196 4.89016 13.4682 5.22477 13.6558C5.62043 13.8777 6.07051 14 6.5625 14H18.2031C19.2262 14 20 13.1148 20 12.0511V1.86932C20 1.35939 19.8377 0.893415 19.4899 0.539278ZM16.1501 10.0349C16.2098 10.095 16.2427 10.1766 16.2427 10.262C16.2427 10.3476 16.2098 10.4292 16.1501 10.489L15.2976 11.3602C15.2361 11.4233 15.156 11.4545 15.0753 11.4545C14.9944 11.4545 14.9137 11.4233 14.8529 11.3602L11.8751 8.31918L8.89738 11.3602C8.83652 11.4233 8.75578 11.4545 8.67492 11.4545C8.59422 11.4545 8.5141 11.4233 8.45258 11.3602L7.60008 10.489C7.54043 10.4292 7.50738 10.3476 7.50738 10.262C7.50738 10.1766 7.54043 10.095 7.60008 10.0349L10.5898 7L7.59219 3.96546C7.4693 3.84006 7.4693 3.63642 7.59219 3.51098L8.44402 2.6392C8.50324 2.5791 8.58277 2.54545 8.66652 2.54545C8.75059 2.54545 8.83016 2.57914 8.88883 2.6392L11.8751 5.64335L14.8613 2.6392C14.92 2.5791 14.9996 2.54545 15.0837 2.54545C15.1674 2.54545 15.2469 2.57914 15.3061 2.6392L16.158 3.51098C16.2809 3.63638 16.2809 3.84002 16.158 3.96546L13.1603 7L16.1501 10.0349Z" fill="black"/>
</svg>
