<svg width="342" height="16" viewBox="0 0 342 16" fill="none" xmlns="http://www.w3.org/2000/svg">
<path d="M1.27617 0.179999C1.38284 0.153333 3.60284 0.14 7.93617 0.14L14.4762 0.159999L14.7162 0.279999C15.0628 0.439999 15.3095 0.679999 15.4562 0.999999L15.6162 1.28V14.58L15.4562 14.86C15.1628 15.3933 14.7028 15.66 14.0762 15.66C13.4362 15.66 12.9762 15.3667 12.6962 14.78L12.5562 14.5C12.5562 13.38 12.5495 11.7067 12.5362 9.48C12.5228 7.25333 12.5162 5.58667 12.5162 4.48L12.3962 4.22C12.2628 3.92667 12.0228 3.68667 11.6762 3.5L11.4762 3.38H4.35617L4.15617 3.5C3.80951 3.67333 3.56284 3.92667 3.41617 4.26L3.31617 4.48C3.31617 5.58667 3.30951 7.25333 3.29617 9.48C3.28284 11.7067 3.27617 13.38 3.27617 14.5L3.13617 14.78C2.88284 15.34 2.44284 15.64 1.81617 15.68C1.60284 15.7067 1.41617 15.6933 1.25617 15.64C0.882839 15.5333 0.582839 15.3267 0.356172 15.02C0.276172 14.9 0.222839 14.82 0.196172 14.78C0.182839 14.7533 0.156172 14.6133 0.116172 14.36C0.0895052 14.12 0.0761719 13.7867 0.0761719 13.36C0.0761719 12.92 0.0761719 12.2467 0.0761719 11.34V7.8L0.0961719 1.34L0.216172 1.06C0.416172 0.606666 0.769505 0.313332 1.27617 0.179999ZM29.2352 3.54L28.9952 3.42H25.5552C23.2219 3.42 22.0086 3.43333 21.9152 3.46C21.1952 3.68667 20.8352 4.18 20.8352 4.94C20.8352 5.60667 21.1286 6.08 21.7152 6.36L21.9752 6.48H28.9352L29.1952 6.36C29.8086 6.06667 30.1152 5.59333 30.1152 4.94C30.1152 4.68667 30.0619 4.46 29.9552 4.26C29.7819 3.92667 29.5419 3.68667 29.2352 3.54ZM18.6552 0.259999C18.7486 0.219999 19.5219 0.199999 20.9752 0.199999H25.4752H32.0752L32.3352 0.32C32.6686 0.466666 32.9219 0.719999 33.0952 1.08L33.2152 1.34V14.62L33.0752 14.92C32.8219 15.44 32.3819 15.72 31.7552 15.76H31.5752C31.4152 15.76 31.2619 15.7333 31.1152 15.68C30.9286 15.6133 30.7486 15.4933 30.5752 15.32C30.4152 15.16 30.3019 14.9867 30.2352 14.8C30.1552 14.5867 30.1086 13.86 30.0952 12.62L30.0752 10.7L29.9752 10.48C29.7486 10.0267 29.3686 9.74667 28.8352 9.64C28.7286 9.61333 27.5486 9.6 25.2952 9.6L22.0152 9.62L21.7752 9.72C21.3486 9.93333 21.0552 10.24 20.8952 10.64C20.8552 10.7467 20.8286 11.4333 20.8152 12.7L20.7952 14.62L20.6552 14.92C20.4952 15.2533 20.2486 15.5 19.9152 15.66C19.7686 15.7267 19.5352 15.76 19.2152 15.76C18.8819 15.76 18.6419 15.7267 18.4952 15.66C18.1619 15.5 17.9152 15.2533 17.7552 14.92L17.6152 14.62V1.34L17.7152 1.12C17.9152 0.679999 18.2286 0.393332 18.6552 0.259999ZM46.6929 3.38C46.4929 3.31333 45.8262 3.28 44.6929 3.28C43.5062 3.28 42.8462 3.29333 42.7129 3.32C42.2196 3.42667 41.8662 3.72 41.6529 4.2L41.5329 4.48V11.4L41.6529 11.64C41.7996 11.96 42.0329 12.2067 42.3529 12.38L42.6129 12.54H44.5329C44.7462 12.54 44.9929 12.5467 45.2729 12.56C45.5529 12.56 45.7329 12.56 45.8129 12.56C46.2129 12.56 46.5129 12.5267 46.7129 12.46C46.8862 12.3933 47.0596 12.2733 47.2329 12.1C47.4062 11.9267 47.5262 11.7533 47.5929 11.58C47.6596 11.42 47.6929 10.2067 47.6929 7.94C47.6929 5.71333 47.6796 4.53333 47.6529 4.4C47.5062 3.90667 47.1862 3.56667 46.6929 3.38ZM36.3529 0.099999C36.4462 0.0733326 38.6862 0.0599995 43.0729 0.0599995H49.6329L49.8929 0.199999C50.2662 0.373332 50.5329 0.633333 50.6929 0.98L50.8129 1.24V14.5L50.6929 14.76C50.5329 15.1067 50.2662 15.3667 49.8929 15.54L49.6329 15.66H36.3929L36.1129 15.54C35.7662 15.38 35.5062 15.1267 35.3329 14.78C35.2529 14.6067 35.2129 14.3867 35.2129 14.12C35.2129 13.7067 35.3529 13.3533 35.6329 13.06C35.9129 12.7667 36.3062 12.6 36.8129 12.56C37.5062 12.5067 37.9862 12.2 38.2529 11.64L38.3929 11.36V4.52L38.2929 4.26C38.0529 3.68667 37.5462 3.36 36.7729 3.28C36.0796 3.21333 35.5996 2.90667 35.3329 2.36C35.2529 2.18667 35.2129 1.95333 35.2129 1.66C35.2129 1.36667 35.2529 1.13333 35.3329 0.96C35.5462 0.533333 35.8862 0.246666 36.3529 0.099999ZM53.9105 0.159999C54.0305 0.119999 56.2772 0.099999 60.6505 0.099999L67.1905 0.12L67.4905 0.259999C68.0505 0.54 68.3305 0.993333 68.3305 1.62V1.76C68.2905 2.4 68.0172 2.85333 67.5105 3.12L67.2705 3.26C66.1372 3.27333 64.4439 3.28 62.1905 3.28C59.9372 3.28 58.2505 3.28667 57.1305 3.3L56.8705 3.4C56.6039 3.50667 56.3705 3.69333 56.1705 3.96C55.9839 4.21333 55.8905 4.5 55.8905 4.82C55.8905 5.00667 55.9439 5.22 56.0505 5.46C56.2105 5.79333 56.4572 6.04667 56.7905 6.22L57.0305 6.34C58.1639 6.35333 59.8572 6.36 62.1105 6.36C64.3639 6.36 66.0572 6.36667 67.1905 6.38L67.4305 6.5C67.7772 6.67333 68.0305 6.91333 68.1905 7.22L68.3305 7.48V10.94C68.3305 13.26 68.3039 14.5 68.2505 14.66C68.1305 15.02 67.8772 15.2933 67.4905 15.48L67.1905 15.62L60.6705 15.64C56.3105 15.64 54.0639 15.62 53.9305 15.58C53.3039 15.4067 52.9372 15 52.8305 14.36C52.8172 14.3067 52.8105 14.22 52.8105 14.1C52.8105 13.4467 53.1105 12.98 53.7105 12.7L53.9905 12.58C55.0972 12.5667 56.7639 12.56 58.9905 12.56C61.2172 12.56 62.8905 12.5533 64.0105 12.54L64.2505 12.42C64.8505 12.1533 65.1505 11.6867 65.1505 11.02C65.1505 10.2867 64.7839 9.78667 64.0505 9.52C63.9972 9.49333 62.2839 9.47333 58.9105 9.46L53.8905 9.44L53.7105 9.34C53.3639 9.15333 53.1172 8.90667 52.9705 8.6L52.8105 8.26V1.34L52.9105 1.08C53.0972 0.613332 53.4305 0.306666 53.9105 0.159999ZM81.9501 3.54L81.7101 3.42H78.2701C75.9367 3.42 74.7234 3.43333 74.6301 3.46C73.9101 3.68667 73.5501 4.18 73.5501 4.94C73.5501 5.60667 73.8434 6.08 74.4301 6.36L74.6901 6.48H81.6501L81.9101 6.36C82.5234 6.06667 82.8301 5.59333 82.8301 4.94C82.8301 4.68667 82.7767 4.46 82.6701 4.26C82.4967 3.92667 82.2567 3.68667 81.9501 3.54ZM71.3701 0.259999C71.4634 0.219999 72.2367 0.199999 73.6901 0.199999H78.1901H84.7901L85.0501 0.32C85.3834 0.466666 85.6367 0.719999 85.8101 1.08L85.9301 1.34V14.62L85.7901 14.92C85.5367 15.44 85.0967 15.72 84.4701 15.76H84.2901C84.1301 15.76 83.9767 15.7333 83.8301 15.68C83.6434 15.6133 83.4634 15.4933 83.2901 15.32C83.1301 15.16 83.0167 14.9867 82.9501 14.8C82.8701 14.5867 82.8234 13.86 82.8101 12.62L82.7901 10.7L82.6901 10.48C82.4634 10.0267 82.0834 9.74667 81.5501 9.64C81.4434 9.61333 80.2634 9.6 78.0101 9.6L74.7301 9.62L74.4901 9.72C74.0634 9.93333 73.7701 10.24 73.6101 10.64C73.5701 10.7467 73.5434 11.4333 73.5301 12.7L73.5101 14.62L73.3701 14.92C73.2101 15.2533 72.9634 15.5 72.6301 15.66C72.4834 15.7267 72.2501 15.76 71.9301 15.76C71.5967 15.76 71.3567 15.7267 71.2101 15.66C70.8767 15.5 70.6301 15.2533 70.4701 14.92L70.3301 14.62V1.34L70.4301 1.12C70.6301 0.679999 70.9434 0.393332 71.3701 0.259999ZM94.0077 0.199999C94.1411 0.159999 96.3744 0.14 100.708 0.14H104.848C106.474 0.14 107.348 0.166666 107.468 0.22C107.828 0.34 108.101 0.58 108.288 0.939999C108.408 1.18 108.468 1.43333 108.468 1.7C108.468 2.39333 108.174 2.88667 107.588 3.18L107.348 3.3L105.388 3.32C104.068 3.33333 103.328 3.37333 103.168 3.44C102.808 3.58667 102.541 3.84 102.368 4.2C102.248 4.45333 102.188 5.23333 102.188 6.54C102.188 7.64667 102.194 8.63333 102.208 9.5V11.78C102.208 13.3933 102.201 14.24 102.188 14.32C102.108 14.7067 101.934 15.0267 101.668 15.28C101.401 15.5333 101.061 15.66 100.648 15.66C99.9811 15.66 99.5011 15.3533 99.2077 14.74L99.1077 14.54C99.0944 13.4333 99.0877 11.7667 99.0877 9.54C99.0877 7.31333 99.0811 5.64 99.0677 4.52L98.9477 4.26C98.7744 3.9 98.5077 3.63333 98.1477 3.46L97.8877 3.34C97.4611 3.32667 96.8211 3.32 95.9677 3.32C95.1144 3.32 94.4744 3.31333 94.0477 3.3L93.8077 3.18C93.2211 2.87333 92.9277 2.38667 92.9277 1.72C92.9277 1.48 92.9611 1.28 93.0277 1.12C93.2011 0.666666 93.5277 0.359999 94.0077 0.199999ZM111.487 0.24C111.593 0.199999 113.833 0.179999 118.207 0.179999H120.567C122.833 0.179999 124.153 0.193333 124.527 0.22C124.9 0.233333 125.18 0.306666 125.367 0.439999C125.82 0.746666 126.047 1.19333 126.047 1.78C126.047 2.24667 125.893 2.62667 125.587 2.92C125.387 3.09333 125.233 3.2 125.127 3.24L124.867 3.36L119.807 3.4L114.767 3.42L114.547 3.54C114.2 3.74 113.953 3.97333 113.807 4.24C113.727 4.4 113.687 4.63333 113.687 4.94C113.687 5.23333 113.733 5.46667 113.827 5.64C114 5.96 114.247 6.19333 114.567 6.34L114.807 6.46C115.247 6.47333 115.893 6.48 116.747 6.48C117.613 6.48 118.26 6.48667 118.687 6.5L118.927 6.62C119.247 6.76667 119.493 7 119.667 7.32C119.76 7.49333 119.807 7.72667 119.807 8.02C119.807 8.34 119.78 8.55333 119.727 8.66C119.553 9.00667 119.3 9.26 118.967 9.42L118.727 9.54C118.3 9.55333 117.653 9.56 116.787 9.56C115.933 9.56 115.293 9.56667 114.867 9.58L114.567 9.72C114.247 9.86667 113.993 10.12 113.807 10.48C113.727 10.64 113.687 10.86 113.687 11.14C113.687 11.42 113.733 11.6467 113.827 11.82C114 12.14 114.247 12.3733 114.567 12.52L114.807 12.64L119.867 12.66C123.227 12.6733 124.96 12.7 125.067 12.74C125.56 12.9667 125.867 13.3267 125.987 13.82C126.013 13.9 126.027 14.0267 126.027 14.2C126.027 14.8533 125.733 15.3267 125.147 15.62L124.947 15.72L118.307 15.74C114.987 15.74 113.04 15.7333 112.467 15.72C111.893 15.72 111.547 15.6933 111.427 15.64C111.053 15.4933 110.773 15.24 110.587 14.88L110.467 14.64V1.28L110.587 1.04C110.787 0.653333 111.087 0.386666 111.487 0.24ZM139.465 3.44L139.265 3.34L135.825 3.32H134.385C133.305 3.32 132.652 3.33333 132.425 3.36C132.198 3.37333 132.012 3.42667 131.865 3.52C131.612 3.66667 131.412 3.89333 131.265 4.2C131.185 4.33333 131.145 4.56 131.145 4.88C131.145 5.50667 131.425 5.95333 131.985 6.22L132.205 6.34L135.685 6.36C137.992 6.36 139.225 6.33333 139.385 6.28C139.758 6.14667 140.038 5.88667 140.225 5.5C140.305 5.32667 140.345 5.10667 140.345 4.84C140.345 4.56 140.298 4.33333 140.205 4.16C140.045 3.85333 139.798 3.61333 139.465 3.44ZM129.265 0.14C129.398 0.113333 131.612 0.099999 135.905 0.099999L142.365 0.12L142.585 0.199999C142.892 0.319999 143.132 0.513333 143.305 0.78C143.425 0.966666 143.498 1.17333 143.525 1.4C143.552 1.62667 143.565 2.34667 143.565 3.56V4.8C143.565 7.08 143.532 8.32 143.465 8.52C143.238 9.09333 142.745 9.42 141.985 9.5C141.478 9.54 141.098 9.69333 140.845 9.96C140.552 10.2667 140.405 10.6267 140.405 11.04C140.405 11.4533 140.552 11.8067 140.845 12.1C141.125 12.38 141.485 12.5333 141.925 12.56C142.392 12.6133 142.725 12.7133 142.925 12.86C143.352 13.1533 143.565 13.5667 143.565 14.1C143.565 14.7267 143.285 15.1933 142.725 15.5C142.578 15.58 142.332 15.62 141.985 15.62C141.665 15.62 141.432 15.5867 141.285 15.52C140.765 15.2533 140.465 14.78 140.385 14.1C140.278 13.1667 139.765 12.66 138.845 12.58C137.898 12.5 137.385 11.9867 137.305 11.04C137.278 10.84 137.238 10.6533 137.185 10.48C137.038 10.0933 136.785 9.81333 136.425 9.64L136.165 9.52H132.245L132.005 9.64C131.618 9.82667 131.358 10.1067 131.225 10.48C131.172 10.64 131.145 11.2867 131.145 12.42C131.145 13.5133 131.132 14.1533 131.105 14.34C131.025 14.86 130.745 15.2467 130.265 15.5C130.025 15.6067 129.798 15.66 129.585 15.66C129.252 15.66 128.952 15.56 128.685 15.36C128.432 15.1733 128.252 14.9467 128.145 14.68L128.045 14.42V7.84L128.065 1.24L128.185 0.999999C128.398 0.533332 128.758 0.246666 129.265 0.14ZM146.744 0.12C146.904 0.0666664 149.411 0.0399997 154.264 0.0399997C157.837 0.0399997 159.717 0.0599995 159.904 0.099999C160.411 0.206666 160.777 0.506666 161.004 0.999999L161.104 1.2V14.5L160.964 14.74C160.671 15.3267 160.211 15.62 159.584 15.62C159.371 15.62 159.177 15.5867 159.004 15.52C158.657 15.4 158.384 15.14 158.184 14.74L158.044 14.44C158.031 13.32 158.024 11.6467 158.024 9.42C158.024 7.18 158.017 5.5 158.004 4.38L157.864 4.1C157.557 3.56667 157.097 3.3 156.484 3.3C156.231 3.3 156.017 3.34 155.844 3.42C155.457 3.60667 155.197 3.88667 155.064 4.26C154.997 4.42 154.964 6.1 154.964 9.3C154.964 12.4733 154.951 14.1533 154.924 14.34C154.817 14.8733 154.537 15.2533 154.084 15.48C153.951 15.5467 153.724 15.58 153.404 15.58C153.111 15.58 152.884 15.54 152.724 15.46C152.377 15.2867 152.137 15.04 152.004 14.72L151.904 14.5C151.904 13.38 151.897 11.7067 151.884 9.48C151.871 7.25333 151.864 5.58667 151.864 4.48L151.724 4.18C151.457 3.59333 150.984 3.3 150.304 3.3C150.011 3.3 149.791 3.34 149.644 3.42C149.311 3.59333 149.064 3.84667 148.904 4.18L148.804 4.38L148.784 9.4C148.771 12.6533 148.737 14.3933 148.684 14.62C148.657 14.7 148.591 14.82 148.484 14.98C148.204 15.3933 147.771 15.6 147.184 15.6C146.491 15.6 146.004 15.3133 145.724 14.74L145.584 14.44V1.24L145.704 0.999999C145.931 0.533332 146.277 0.239999 146.744 0.12ZM164.184 0.14C164.277 0.113333 166.517 0.099999 170.904 0.099999L177.464 0.0799992L177.704 0.179999C178.01 0.313332 178.25 0.506666 178.424 0.759999C178.61 1.02667 178.704 1.33333 178.704 1.68C178.704 2.37333 178.39 2.86667 177.764 3.16L177.504 3.28C177.064 3.28 176.397 3.28667 175.504 3.3C174.61 3.31333 173.944 3.32 173.504 3.32L173.284 3.44C172.95 3.6 172.71 3.83333 172.564 4.14L172.424 4.42L172.404 7.86V9.74C172.404 10.78 172.43 11.38 172.484 11.54C172.604 11.86 172.79 12.1 173.044 12.26C173.244 12.4067 173.444 12.4933 173.644 12.52C173.857 12.5333 174.504 12.5467 175.584 12.56L177.564 12.58L177.804 12.7C178.07 12.8333 178.284 13.0267 178.444 13.28C178.604 13.5333 178.684 13.8067 178.684 14.1C178.684 14.26 178.67 14.38 178.644 14.46C178.51 14.94 178.23 15.2933 177.804 15.52L177.604 15.64H164.204L163.964 15.5C163.657 15.3533 163.41 15.1067 163.224 14.76C163.157 14.6133 163.124 14.4067 163.124 14.14C163.124 13.4733 163.404 13.0067 163.964 12.74L164.244 12.58C164.684 12.5667 165.33 12.56 166.184 12.56C167.05 12.56 167.697 12.5533 168.124 12.54L168.364 12.44C168.697 12.2933 168.944 12.0467 169.104 11.7L169.244 11.42V4.42L169.124 4.16C168.95 3.82667 168.71 3.58667 168.404 3.44L168.164 3.32L166.224 3.3C165.13 3.28667 164.49 3.27333 164.304 3.26C164.117 3.23333 163.924 3.14667 163.724 3C163.297 2.72 163.084 2.30667 163.084 1.76C163.084 1.73333 163.084 1.7 163.084 1.66C163.097 1.62 163.104 1.58667 163.104 1.56C163.144 0.866666 163.504 0.393333 164.184 0.14ZM181.901 0.179999C182.008 0.153333 184.228 0.14 188.561 0.14L195.101 0.159999L195.341 0.279999C195.688 0.439999 195.935 0.679999 196.081 0.999999L196.241 1.28V14.58L196.081 14.86C195.788 15.3933 195.328 15.66 194.701 15.66C194.061 15.66 193.601 15.3667 193.321 14.78L193.181 14.5C193.181 13.38 193.175 11.7067 193.161 9.48C193.148 7.25333 193.141 5.58667 193.141 4.48L193.021 4.22C192.888 3.92667 192.648 3.68667 192.301 3.5L192.101 3.38H184.981L184.781 3.5C184.435 3.67333 184.188 3.92667 184.041 4.26L183.941 4.48C183.941 5.58667 183.935 7.25333 183.921 9.48C183.908 11.7067 183.901 13.38 183.901 14.5L183.761 14.78C183.508 15.34 183.068 15.64 182.441 15.68C182.228 15.7067 182.041 15.6933 181.881 15.64C181.508 15.5333 181.208 15.3267 180.981 15.02C180.901 14.9 180.848 14.82 180.821 14.78C180.808 14.7533 180.781 14.6133 180.741 14.36C180.715 14.12 180.701 13.7867 180.701 13.36C180.701 12.92 180.701 12.2467 180.701 11.34V7.8L180.721 1.34L180.841 1.06C181.041 0.606666 181.395 0.313332 181.901 0.179999ZM209.86 3.54L209.62 3.42H206.18C203.847 3.42 202.634 3.43333 202.54 3.46C201.82 3.68667 201.46 4.18 201.46 4.94C201.46 5.60667 201.754 6.08 202.34 6.36L202.6 6.48H209.56L209.82 6.36C210.434 6.06667 210.74 5.59333 210.74 4.94C210.74 4.68667 210.687 4.46 210.58 4.26C210.407 3.92667 210.167 3.68667 209.86 3.54ZM199.28 0.259999C199.374 0.219999 200.147 0.199999 201.6 0.199999H206.1H212.7L212.96 0.32C213.294 0.466666 213.547 0.719999 213.72 1.08L213.84 1.34V14.62L213.7 14.92C213.447 15.44 213.007 15.72 212.38 15.76H212.2C212.04 15.76 211.887 15.7333 211.74 15.68C211.554 15.6133 211.374 15.4933 211.2 15.32C211.04 15.16 210.927 14.9867 210.86 14.8C210.78 14.5867 210.734 13.86 210.72 12.62L210.7 10.7L210.6 10.48C210.374 10.0267 209.994 9.74667 209.46 9.64C209.354 9.61333 208.174 9.6 205.92 9.6L202.64 9.62L202.4 9.72C201.974 9.93333 201.68 10.24 201.52 10.64C201.48 10.7467 201.454 11.4333 201.44 12.7L201.42 14.62L201.28 14.92C201.12 15.2533 200.874 15.5 200.54 15.66C200.394 15.7267 200.16 15.76 199.84 15.76C199.507 15.76 199.267 15.7267 199.12 15.66C198.787 15.5 198.54 15.2533 198.38 14.92L198.24 14.62V1.34L198.34 1.12C198.54 0.679999 198.854 0.393332 199.28 0.259999ZM215.958 0.96C216.251 0.346666 216.738 0.0399997 217.418 0.0399997C217.965 0.0399997 218.391 0.246666 218.698 0.659999C218.711 0.686666 218.731 0.713333 218.758 0.739999C218.891 0.899999 218.965 1.21333 218.978 1.68C219.005 2.14667 219.025 3.68667 219.038 6.3L219.058 11.36L219.178 11.62C219.338 11.9667 219.591 12.22 219.938 12.38L220.178 12.5C221.298 12.5133 222.978 12.52 225.218 12.52C227.471 12.52 229.158 12.5267 230.278 12.54L230.518 12.66C231.105 12.9533 231.398 13.42 231.398 14.06C231.398 14.58 231.178 15.0133 230.738 15.36C230.725 15.3733 230.698 15.3933 230.658 15.42C230.538 15.5133 230.318 15.5667 229.998 15.58C229.691 15.6067 228.771 15.62 227.238 15.62H223.598C219.198 15.6067 216.925 15.5733 216.778 15.52C216.431 15.3867 216.165 15.1333 215.978 14.76L215.838 14.5V1.2L215.958 0.96ZM250.016 3.54L249.776 3.42H246.336C244.003 3.42 242.79 3.43333 242.696 3.46C241.976 3.68667 241.616 4.18 241.616 4.94C241.616 5.60667 241.91 6.08 242.496 6.36L242.756 6.48H249.716L249.976 6.36C250.59 6.06667 250.896 5.59333 250.896 4.94C250.896 4.68667 250.843 4.46 250.736 4.26C250.563 3.92667 250.323 3.68667 250.016 3.54ZM239.436 0.259999C239.53 0.219999 240.303 0.199999 241.756 0.199999H246.256H252.856L253.116 0.32C253.45 0.466666 253.703 0.719999 253.876 1.08L253.996 1.34V14.62L253.856 14.92C253.603 15.44 253.163 15.72 252.536 15.76H252.356C252.196 15.76 252.043 15.7333 251.896 15.68C251.71 15.6133 251.53 15.4933 251.356 15.32C251.196 15.16 251.083 14.9867 251.016 14.8C250.936 14.5867 250.89 13.86 250.876 12.62L250.856 10.7L250.756 10.48C250.53 10.0267 250.15 9.74667 249.616 9.64C249.51 9.61333 248.33 9.6 246.076 9.6L242.796 9.62L242.556 9.72C242.13 9.93333 241.836 10.24 241.676 10.64C241.636 10.7467 241.61 11.4333 241.596 12.7L241.576 14.62L241.436 14.92C241.276 15.2533 241.03 15.5 240.696 15.66C240.55 15.7267 240.316 15.76 239.996 15.76C239.663 15.76 239.423 15.7267 239.276 15.66C238.943 15.5 238.696 15.2533 238.536 14.92L238.396 14.62V1.34L238.496 1.12C238.696 0.679999 239.01 0.393332 239.436 0.259999ZM257.034 0.259999C257.127 0.219999 257.887 0.199999 259.314 0.199999H263.874H270.494L270.754 0.32C270.914 0.413333 271.067 0.533333 271.214 0.68C271.494 1 271.634 1.36667 271.634 1.78C271.634 2.47333 271.341 2.96 270.754 3.24L270.454 3.38C269.334 3.39333 267.647 3.4 265.394 3.4C263.154 3.4 261.474 3.40667 260.354 3.42L260.094 3.54C259.734 3.71333 259.474 4 259.314 4.4L259.214 4.64V11.44L259.314 11.7C259.461 12.06 259.721 12.3333 260.094 12.52L260.394 12.66H270.454L270.734 12.78C271.334 13.06 271.634 13.5267 271.634 14.18C271.634 14.4333 271.574 14.6733 271.454 14.9C271.387 15.0467 271.267 15.1933 271.094 15.34C270.934 15.4867 270.787 15.5867 270.654 15.64C270.494 15.6933 268.221 15.7267 263.834 15.74L257.234 15.78L256.974 15.68C256.801 15.6267 256.627 15.5067 256.454 15.32C256.281 15.1467 256.161 14.9733 256.094 14.8L255.994 14.54V1.42L256.094 1.18C256.281 0.699999 256.594 0.393332 257.034 0.259999ZM274.69 0.259999C274.784 0.219999 275.544 0.199999 276.97 0.199999H281.53H288.15L288.41 0.32C288.57 0.413333 288.724 0.533333 288.87 0.68C289.15 1 289.29 1.36667 289.29 1.78C289.29 2.47333 288.997 2.96 288.41 3.24L288.11 3.38C286.99 3.39333 285.304 3.4 283.05 3.4C280.81 3.4 279.13 3.40667 278.01 3.42L277.75 3.54C277.39 3.71333 277.13 4 276.97 4.4L276.87 4.64V11.44L276.97 11.7C277.117 12.06 277.377 12.3333 277.75 12.52L278.05 12.66H288.11L288.39 12.78C288.99 13.06 289.29 13.5267 289.29 14.18C289.29 14.4333 289.23 14.6733 289.11 14.9C289.044 15.0467 288.924 15.1933 288.75 15.34C288.59 15.4867 288.444 15.5867 288.31 15.64C288.15 15.6933 285.877 15.7267 281.49 15.74L274.89 15.78L274.63 15.68C274.457 15.6267 274.284 15.5067 274.11 15.32C273.937 15.1467 273.817 14.9733 273.75 14.8L273.65 14.54V1.42L273.75 1.18C273.937 0.699999 274.25 0.393332 274.69 0.259999ZM292.327 0.24C292.433 0.199999 294.673 0.179999 299.047 0.179999H301.407C303.673 0.179999 304.993 0.193333 305.367 0.22C305.74 0.233333 306.02 0.306666 306.207 0.439999C306.66 0.746666 306.887 1.19333 306.887 1.78C306.887 2.24667 306.733 2.62667 306.427 2.92C306.227 3.09333 306.073 3.2 305.967 3.24L305.707 3.36L300.647 3.4L295.607 3.42L295.387 3.54C295.04 3.74 294.793 3.97333 294.647 4.24C294.567 4.4 294.527 4.63333 294.527 4.94C294.527 5.23333 294.573 5.46667 294.667 5.64C294.84 5.96 295.087 6.19333 295.407 6.34L295.647 6.46C296.087 6.47333 296.733 6.48 297.587 6.48C298.453 6.48 299.1 6.48667 299.527 6.5L299.767 6.62C300.087 6.76667 300.333 7 300.507 7.32C300.6 7.49333 300.647 7.72667 300.647 8.02C300.647 8.34 300.62 8.55333 300.567 8.66C300.393 9.00667 300.14 9.26 299.807 9.42L299.567 9.54C299.14 9.55333 298.493 9.56 297.627 9.56C296.773 9.56 296.133 9.56667 295.707 9.58L295.407 9.72C295.087 9.86667 294.833 10.12 294.647 10.48C294.567 10.64 294.527 10.86 294.527 11.14C294.527 11.42 294.573 11.6467 294.667 11.82C294.84 12.14 295.087 12.3733 295.407 12.52L295.647 12.64L300.707 12.66C304.067 12.6733 305.8 12.7 305.907 12.74C306.4 12.9667 306.707 13.3267 306.827 13.82C306.853 13.9 306.867 14.0267 306.867 14.2C306.867 14.8533 306.573 15.3267 305.987 15.62L305.787 15.72L299.147 15.74C295.827 15.74 293.88 15.7333 293.307 15.72C292.733 15.72 292.387 15.6933 292.267 15.64C291.893 15.4933 291.613 15.24 291.427 14.88L291.307 14.64V1.28L291.427 1.04C291.627 0.653333 291.927 0.386666 292.327 0.24ZM309.985 0.159999C310.105 0.119999 312.351 0.099999 316.725 0.099999L323.265 0.12L323.565 0.259999C324.125 0.54 324.405 0.993333 324.405 1.62V1.76C324.365 2.4 324.091 2.85333 323.585 3.12L323.345 3.26C322.211 3.27333 320.518 3.28 318.265 3.28C316.011 3.28 314.325 3.28667 313.205 3.3L312.945 3.4C312.678 3.50667 312.445 3.69333 312.245 3.96C312.058 4.21333 311.965 4.5 311.965 4.82C311.965 5.00667 312.018 5.22 312.125 5.46C312.285 5.79333 312.531 6.04667 312.865 6.22L313.105 6.34C314.238 6.35333 315.931 6.36 318.185 6.36C320.438 6.36 322.131 6.36667 323.265 6.38L323.505 6.5C323.851 6.67333 324.105 6.91333 324.265 7.22L324.405 7.48V10.94C324.405 13.26 324.378 14.5 324.325 14.66C324.205 15.02 323.951 15.2933 323.565 15.48L323.265 15.62L316.745 15.64C312.385 15.64 310.138 15.62 310.005 15.58C309.378 15.4067 309.011 15 308.905 14.36C308.891 14.3067 308.885 14.22 308.885 14.1C308.885 13.4467 309.185 12.98 309.785 12.7L310.065 12.58C311.171 12.5667 312.838 12.56 315.065 12.56C317.291 12.56 318.965 12.5533 320.085 12.54L320.325 12.42C320.925 12.1533 321.225 11.6867 321.225 11.02C321.225 10.2867 320.858 9.78667 320.125 9.52C320.071 9.49333 318.358 9.47333 314.985 9.46L309.965 9.44L309.785 9.34C309.438 9.15333 309.191 8.90667 309.045 8.6L308.885 8.26V1.34L308.985 1.08C309.171 0.613332 309.505 0.306666 309.985 0.159999ZM327.504 0.159999C327.624 0.119999 329.871 0.099999 334.244 0.099999L340.784 0.12L341.084 0.259999C341.644 0.54 341.924 0.993333 341.924 1.62V1.76C341.884 2.4 341.611 2.85333 341.104 3.12L340.864 3.26C339.731 3.27333 338.038 3.28 335.784 3.28C333.531 3.28 331.844 3.28667 330.724 3.3L330.464 3.4C330.198 3.50667 329.964 3.69333 329.764 3.96C329.578 4.21333 329.484 4.5 329.484 4.82C329.484 5.00667 329.538 5.22 329.644 5.46C329.804 5.79333 330.051 6.04667 330.384 6.22L330.624 6.34C331.758 6.35333 333.451 6.36 335.704 6.36C337.958 6.36 339.651 6.36667 340.784 6.38L341.024 6.5C341.371 6.67333 341.624 6.91333 341.784 7.22L341.924 7.48V10.94C341.924 13.26 341.898 14.5 341.844 14.66C341.724 15.02 341.471 15.2933 341.084 15.48L340.784 15.62L334.264 15.64C329.904 15.64 327.658 15.62 327.524 15.58C326.898 15.4067 326.531 15 326.424 14.36C326.411 14.3067 326.404 14.22 326.404 14.1C326.404 13.4467 326.704 12.98 327.304 12.7L327.584 12.58C328.691 12.5667 330.358 12.56 332.584 12.56C334.811 12.56 336.484 12.5533 337.604 12.54L337.844 12.42C338.444 12.1533 338.744 11.6867 338.744 11.02C338.744 10.2867 338.378 9.78667 337.644 9.52C337.591 9.49333 335.878 9.47333 332.504 9.46L327.484 9.44L327.304 9.34C326.958 9.15333 326.711 8.90667 326.564 8.6L326.404 8.26V1.34L326.504 1.08C326.691 0.613332 327.024 0.306666 327.504 0.159999Z" fill="#7663F4"/>
</svg>
