<svg width="445" height="22" viewBox="0 0 445 22" fill="none" xmlns="http://www.w3.org/2000/svg">
  <path d="M1.86 1.034C1.99867 0.999333 4.88467 0.982 10.518 0.982L19.02 1.008L19.332 1.164C19.7827 1.372 20.1033 1.684 20.294 2.1L20.502 2.464V19.754L20.294 20.118C19.9127 20.8113 19.3147 21.158 18.5 21.158C17.668 21.158 17.07 20.7767 16.706 20.014L16.524 19.65C16.524 18.194 16.5153 16.0187 16.498 13.124C16.4807 10.2293 16.472 8.06267 16.472 6.624L16.316 6.286C16.1427 5.90467 15.8307 5.59267 15.38 5.35L15.12 5.194H5.864L5.604 5.35C5.15333 5.57533 4.83267 5.90467 4.642 6.338L4.512 6.624C4.512 8.06267 4.50333 10.2293 4.486 13.124C4.46867 16.0187 4.46 18.194 4.46 19.65L4.278 20.014C3.94867 20.742 3.37667 21.132 2.562 21.184C2.28467 21.2187 2.042 21.2013 1.834 21.132C1.34867 20.9933 0.958667 20.7247 0.664 20.326C0.56 20.17 0.490667 20.066 0.456 20.014C0.438667 19.9793 0.404 19.7973 0.352 19.468C0.317333 19.156 0.3 18.7227 0.3 18.168C0.3 17.596 0.3 16.7207 0.3 15.542V10.94L0.326 2.542L0.482 2.178C0.742 1.58867 1.20133 1.20733 1.86 1.034ZM38.2068 5.402L37.8948 5.246H33.4228C30.3894 5.246 28.8121 5.26333 28.6908 5.298C27.7548 5.59267 27.2868 6.234 27.2868 7.222C27.2868 8.08867 27.6681 8.704 28.4308 9.068L28.7688 9.224H37.8168L38.1548 9.068C38.9521 8.68667 39.3508 8.07133 39.3508 7.222C39.3508 6.89267 39.2814 6.598 39.1428 6.338C38.9174 5.90467 38.6054 5.59267 38.2068 5.402ZM24.4528 1.138C24.5741 1.086 25.5794 1.06 27.4688 1.06H33.3188H41.8988L42.2368 1.216C42.6701 1.40667 42.9994 1.736 43.2248 2.204L43.3808 2.542V19.806L43.1988 20.196C42.8694 20.872 42.2974 21.236 41.4828 21.288H41.2488C41.0408 21.288 40.8414 21.2533 40.6508 21.184C40.4081 21.0973 40.1741 20.9413 39.9488 20.716C39.7408 20.508 39.5934 20.2827 39.5068 20.04C39.4028 19.7627 39.3421 18.818 39.3248 17.206L39.2988 14.71L39.1688 14.424C38.8741 13.8347 38.3801 13.4707 37.6868 13.332C37.5481 13.2973 36.0141 13.28 33.0848 13.28L28.8208 13.306L28.5088 13.436C27.9541 13.7133 27.5728 14.112 27.3648 14.632C27.3128 14.7707 27.2781 15.6633 27.2608 17.31L27.2348 19.806L27.0528 20.196C26.8448 20.6293 26.5241 20.95 26.0908 21.158C25.9001 21.2447 25.5968 21.288 25.1808 21.288C24.7474 21.288 24.4354 21.2447 24.2448 21.158C23.8114 20.95 23.4908 20.6293 23.2828 20.196L23.1008 19.806V2.542L23.2308 2.256C23.4908 1.684 23.8981 1.31133 24.4528 1.138ZM60.9017 5.194C60.6417 5.10733 59.7751 5.064 58.3017 5.064C56.7591 5.064 55.9011 5.08133 55.7277 5.116C55.0864 5.25467 54.6271 5.636 54.3497 6.26L54.1937 6.624V15.62L54.3497 15.932C54.5404 16.348 54.8437 16.6687 55.2597 16.894L55.5977 17.102H58.0937C58.3711 17.102 58.6917 17.1107 59.0557 17.128C59.4197 17.128 59.6537 17.128 59.7577 17.128C60.2777 17.128 60.6677 17.0847 60.9277 16.998C61.1531 16.9113 61.3784 16.7553 61.6037 16.53C61.8291 16.3047 61.9851 16.0793 62.0717 15.854C62.1584 15.646 62.2017 14.0687 62.2017 11.122C62.2017 8.22733 62.1844 6.69333 62.1497 6.52C61.9591 5.87867 61.5431 5.43667 60.9017 5.194ZM47.4597 0.929999C47.5811 0.895332 50.4931 0.877999 56.1957 0.877999H64.7237L65.0617 1.06C65.5471 1.28533 65.8937 1.62333 66.1017 2.074L66.2577 2.412V19.65L66.1017 19.988C65.8937 20.4387 65.5471 20.7767 65.0617 21.002L64.7237 21.158H47.5117L47.1477 21.002C46.6971 20.794 46.3591 20.4647 46.1337 20.014C46.0297 19.7887 45.9777 19.5027 45.9777 19.156C45.9777 18.6187 46.1597 18.1593 46.5237 17.778C46.8877 17.3967 47.3991 17.18 48.0577 17.128C48.9591 17.0587 49.5831 16.66 49.9297 15.932L50.1117 15.568V6.676L49.9817 6.338C49.6697 5.59267 49.0111 5.168 48.0057 5.064C47.1044 4.97733 46.4804 4.57867 46.1337 3.868C46.0297 3.64267 45.9777 3.33933 45.9777 2.958C45.9777 2.57667 46.0297 2.27333 46.1337 2.048C46.4111 1.49333 46.8531 1.12067 47.4597 0.929999ZM70.2847 1.008C70.4407 0.955999 73.3614 0.929999 79.0467 0.929999L87.5487 0.956L87.9387 1.138C88.6667 1.502 89.0307 2.09133 89.0307 2.906V3.088C88.9787 3.92 88.6234 4.50933 87.9647 4.856L87.6527 5.038C86.1794 5.05533 83.978 5.064 81.0487 5.064C78.1194 5.064 75.9267 5.07267 74.4707 5.09L74.1327 5.22C73.786 5.35867 73.4827 5.60133 73.2227 5.948C72.98 6.27733 72.8587 6.65 72.8587 7.066C72.8587 7.30867 72.928 7.586 73.0667 7.898C73.2747 8.33133 73.5954 8.66067 74.0287 8.886L74.3407 9.042C75.814 9.05933 78.0154 9.068 80.9447 9.068C83.874 9.068 86.0754 9.07667 87.5487 9.094L87.8607 9.25C88.3114 9.47533 88.6407 9.78733 88.8487 10.186L89.0307 10.524V15.022C89.0307 18.038 88.996 19.65 88.9267 19.858C88.7707 20.326 88.4414 20.6813 87.9387 20.924L87.5487 21.106L79.0727 21.132C73.4047 21.132 70.484 21.106 70.3107 21.054C69.496 20.8287 69.0194 20.3 68.8807 19.468C68.8634 19.3987 68.8547 19.286 68.8547 19.13C68.8547 18.2807 69.2447 17.674 70.0247 17.31L70.3887 17.154C71.8274 17.1367 73.994 17.128 76.8887 17.128C79.7834 17.128 81.9587 17.1193 83.4147 17.102L83.7267 16.946C84.5067 16.5993 84.8967 15.9927 84.8967 15.126C84.8967 14.1727 84.42 13.5227 83.4667 13.176C83.3974 13.1413 81.17 13.1153 76.7847 13.098L70.2587 13.072L70.0247 12.942C69.574 12.6993 69.2534 12.3787 69.0627 11.98L68.8547 11.538V2.542L68.9847 2.204C69.2274 1.59733 69.6607 1.19867 70.2847 1.008ZM106.736 5.402L106.424 5.246H101.952C98.9187 5.246 97.3414 5.26333 97.2201 5.298C96.2841 5.59267 95.8161 6.234 95.8161 7.222C95.8161 8.08867 96.1974 8.704 96.9601 9.068L97.2981 9.224H106.346L106.684 9.068C107.481 8.68667 107.88 8.07133 107.88 7.222C107.88 6.89267 107.811 6.598 107.672 6.338C107.447 5.90467 107.135 5.59267 106.736 5.402ZM92.9821 1.138C93.1034 1.086 94.1087 1.06 95.9981 1.06H101.848H110.428L110.766 1.216C111.199 1.40667 111.529 1.736 111.754 2.204L111.91 2.542V19.806L111.728 20.196C111.399 20.872 110.827 21.236 110.012 21.288H109.778C109.57 21.288 109.371 21.2533 109.18 21.184C108.937 21.0973 108.703 20.9413 108.478 20.716C108.27 20.508 108.123 20.2827 108.036 20.04C107.932 19.7627 107.871 18.818 107.854 17.206L107.828 14.71L107.698 14.424C107.403 13.8347 106.909 13.4707 106.216 13.332C106.077 13.2973 104.543 13.28 101.614 13.28L97.3501 13.306L97.0381 13.436C96.4834 13.7133 96.1021 14.112 95.8941 14.632C95.8421 14.7707 95.8074 15.6633 95.7901 17.31L95.7641 19.806L95.5821 20.196C95.3741 20.6293 95.0534 20.95 94.6201 21.158C94.4294 21.2447 94.1261 21.288 93.7101 21.288C93.2767 21.288 92.9647 21.2447 92.7741 21.158C92.3407 20.95 92.0201 20.6293 91.8121 20.196L91.6301 19.806V2.542L91.7601 2.256C92.0201 1.684 92.4274 1.31133 92.9821 1.138ZM122.411 1.06C122.584 1.008 125.488 0.982 131.121 0.982H136.503C138.618 0.982 139.753 1.01667 139.909 1.086C140.377 1.242 140.732 1.554 140.975 2.022C141.131 2.334 141.209 2.66333 141.209 3.01C141.209 3.91133 140.828 4.55267 140.065 4.934L139.753 5.09L137.205 5.116C135.489 5.13333 134.527 5.18533 134.319 5.272C133.851 5.46267 133.504 5.792 133.279 6.26C133.123 6.58933 133.045 7.60333 133.045 9.302C133.045 10.7407 133.054 12.0233 133.071 13.15V16.114C133.071 18.2113 133.062 19.312 133.045 19.416C132.941 19.9187 132.716 20.3347 132.369 20.664C132.022 20.9933 131.58 21.158 131.043 21.158C130.176 21.158 129.552 20.7593 129.171 19.962L129.041 19.702C129.024 18.2633 129.015 16.0967 129.015 13.202C129.015 10.3073 129.006 8.132 128.989 6.676L128.833 6.338C128.608 5.87 128.261 5.52333 127.793 5.298L127.455 5.142C126.9 5.12467 126.068 5.116 124.959 5.116C123.85 5.116 123.018 5.10733 122.463 5.09L122.151 4.934C121.388 4.53533 121.007 3.90267 121.007 3.036C121.007 2.724 121.05 2.464 121.137 2.256C121.362 1.66667 121.787 1.268 122.411 1.06ZM145.134 1.112C145.272 1.06 148.184 1.034 153.87 1.034H156.938C159.884 1.034 161.6 1.05133 162.086 1.086C162.571 1.10333 162.935 1.19867 163.178 1.372C163.767 1.77067 164.062 2.35133 164.062 3.114C164.062 3.72067 163.862 4.21467 163.464 4.596C163.204 4.82133 163.004 4.96 162.866 5.012L162.528 5.168L155.95 5.22L149.398 5.246L149.112 5.402C148.661 5.662 148.34 5.96533 148.15 6.312C148.046 6.52 147.994 6.82333 147.994 7.222C147.994 7.60333 148.054 7.90667 148.176 8.132C148.401 8.548 148.722 8.85133 149.138 9.042L149.45 9.198C150.022 9.21533 150.862 9.224 151.972 9.224C153.098 9.224 153.939 9.23267 154.494 9.25L154.806 9.406C155.222 9.59667 155.542 9.9 155.768 10.316C155.889 10.5413 155.95 10.8447 155.95 11.226C155.95 11.642 155.915 11.9193 155.846 12.058C155.62 12.5087 155.291 12.838 154.858 13.046L154.546 13.202C153.991 13.2193 153.15 13.228 152.024 13.228C150.914 13.228 150.082 13.2367 149.528 13.254L149.138 13.436C148.722 13.6267 148.392 13.956 148.15 14.424C148.046 14.632 147.994 14.918 147.994 15.282C147.994 15.646 148.054 15.9407 148.176 16.166C148.401 16.582 148.722 16.8853 149.138 17.076L149.45 17.232L156.028 17.258C160.396 17.2753 162.649 17.31 162.788 17.362C163.429 17.6567 163.828 18.1247 163.984 18.766C164.018 18.87 164.036 19.0347 164.036 19.26C164.036 20.1093 163.654 20.7247 162.892 21.106L162.632 21.236L154 21.262C149.684 21.262 147.153 21.2533 146.408 21.236C145.662 21.236 145.212 21.2013 145.056 21.132C144.57 20.9413 144.206 20.612 143.964 20.144L143.808 19.832V2.464L143.964 2.152C144.224 1.64933 144.614 1.30267 145.134 1.112ZM181.505 5.272L181.245 5.142L176.773 5.116H174.901C173.497 5.116 172.648 5.13333 172.353 5.168C172.059 5.18533 171.816 5.25467 171.625 5.376C171.296 5.56667 171.036 5.86133 170.845 6.26C170.741 6.43333 170.689 6.728 170.689 7.144C170.689 7.95867 171.053 8.53933 171.781 8.886L172.067 9.042L176.591 9.068C179.59 9.068 181.193 9.03333 181.401 8.964C181.887 8.79067 182.251 8.45267 182.493 7.95C182.597 7.72467 182.649 7.43867 182.649 7.092C182.649 6.728 182.589 6.43333 182.467 6.208C182.259 5.80933 181.939 5.49733 181.505 5.272ZM168.245 0.982C168.419 0.947332 171.296 0.929999 176.877 0.929999L185.275 0.956L185.561 1.06C185.96 1.216 186.272 1.46733 186.497 1.814C186.653 2.05667 186.749 2.32533 186.783 2.62C186.818 2.91467 186.835 3.85067 186.835 5.428V7.04C186.835 10.004 186.792 11.616 186.705 11.876C186.411 12.6213 185.769 13.046 184.781 13.15C184.123 13.202 183.629 13.4013 183.299 13.748C182.918 14.1467 182.727 14.6147 182.727 15.152C182.727 15.6893 182.918 16.1487 183.299 16.53C183.663 16.894 184.131 17.0933 184.703 17.128C185.31 17.1973 185.743 17.3273 186.003 17.518C186.558 17.8993 186.835 18.4367 186.835 19.13C186.835 19.9447 186.471 20.5513 185.743 20.95C185.553 21.054 185.232 21.106 184.781 21.106C184.365 21.106 184.062 21.0627 183.871 20.976C183.195 20.6293 182.805 20.014 182.701 19.13C182.563 17.9167 181.895 17.258 180.699 17.154C179.469 17.05 178.801 16.3827 178.697 15.152C178.663 14.892 178.611 14.6493 178.541 14.424C178.351 13.9213 178.021 13.5573 177.553 13.332L177.215 13.176H172.119L171.807 13.332C171.305 13.5747 170.967 13.9387 170.793 14.424C170.724 14.632 170.689 15.4727 170.689 16.946C170.689 18.3673 170.672 19.1993 170.637 19.442C170.533 20.118 170.169 20.6207 169.545 20.95C169.233 21.0887 168.939 21.158 168.661 21.158C168.228 21.158 167.838 21.028 167.491 20.768C167.162 20.5253 166.928 20.2307 166.789 19.884L166.659 19.546V10.992L166.685 2.412L166.841 2.1C167.119 1.49333 167.587 1.12067 168.245 0.982ZM190.968 0.956C191.176 0.886666 194.435 0.852 200.744 0.852C205.389 0.852 207.833 0.877999 208.076 0.929999C208.735 1.06867 209.211 1.45867 209.506 2.1L209.636 2.36V19.65L209.454 19.962C209.073 20.7247 208.475 21.106 207.66 21.106C207.383 21.106 207.131 21.0627 206.906 20.976C206.455 20.82 206.1 20.482 205.84 19.962L205.658 19.572C205.641 18.116 205.632 15.9407 205.632 13.046C205.632 10.134 205.623 7.95 205.606 6.494L205.424 6.13C205.025 5.43667 204.427 5.09 203.63 5.09C203.301 5.09 203.023 5.142 202.798 5.246C202.295 5.48867 201.957 5.85267 201.784 6.338C201.697 6.546 201.654 8.73 201.654 12.89C201.654 17.0153 201.637 19.1993 201.602 19.442C201.463 20.1353 201.099 20.6293 200.51 20.924C200.337 21.0107 200.042 21.054 199.626 21.054C199.245 21.054 198.95 21.002 198.742 20.898C198.291 20.6727 197.979 20.352 197.806 19.936L197.676 19.65C197.676 18.194 197.667 16.0187 197.65 13.124C197.633 10.2293 197.624 8.06267 197.624 6.624L197.442 6.234C197.095 5.47133 196.48 5.09 195.596 5.09C195.215 5.09 194.929 5.142 194.738 5.246C194.305 5.47133 193.984 5.80067 193.776 6.234L193.646 6.494L193.62 13.02C193.603 17.2493 193.559 19.5113 193.49 19.806C193.455 19.91 193.369 20.066 193.23 20.274C192.866 20.8113 192.303 21.08 191.54 21.08C190.639 21.08 190.006 20.7073 189.642 19.962L189.46 19.572V2.412L189.616 2.1C189.911 1.49333 190.361 1.112 190.968 0.956ZM213.64 0.982C213.761 0.947332 216.673 0.929999 222.376 0.929999L230.904 0.903999L231.216 1.034C231.614 1.20733 231.926 1.45867 232.152 1.788C232.394 2.13467 232.516 2.53333 232.516 2.984C232.516 3.88533 232.108 4.52667 231.294 4.908L230.956 5.064C230.384 5.064 229.517 5.07267 228.356 5.09C227.194 5.10733 226.328 5.116 225.756 5.116L225.47 5.272C225.036 5.48 224.724 5.78333 224.534 6.182L224.352 6.546L224.326 11.018V13.462C224.326 14.814 224.36 15.594 224.43 15.802C224.586 16.218 224.828 16.53 225.158 16.738C225.418 16.9287 225.678 17.0413 225.938 17.076C226.215 17.0933 227.056 17.1107 228.46 17.128L231.034 17.154L231.346 17.31C231.692 17.4833 231.97 17.7347 232.178 18.064C232.386 18.3933 232.49 18.7487 232.49 19.13C232.49 19.338 232.472 19.494 232.438 19.598C232.264 20.222 231.9 20.6813 231.346 20.976L231.086 21.132H213.666L213.354 20.95C212.955 20.7593 212.634 20.4387 212.392 19.988C212.305 19.7973 212.262 19.5287 212.262 19.182C212.262 18.3153 212.626 17.7087 213.354 17.362L213.718 17.154C214.29 17.1367 215.13 17.128 216.24 17.128C217.366 17.128 218.207 17.1193 218.762 17.102L219.074 16.972C219.507 16.7813 219.828 16.4607 220.036 16.01L220.218 15.646V6.546L220.062 6.208C219.836 5.77467 219.524 5.46267 219.126 5.272L218.814 5.116L216.292 5.09C214.87 5.07267 214.038 5.05533 213.796 5.038C213.553 5.00333 213.302 4.89067 213.042 4.7C212.487 4.336 212.21 3.79867 212.21 3.088C212.21 3.05333 212.21 3.01 212.21 2.958C212.227 2.906 212.236 2.86267 212.236 2.828C212.288 1.92667 212.756 1.31133 213.64 0.982ZM236.673 1.034C236.811 0.999333 239.697 0.982 245.331 0.982L253.833 1.008L254.145 1.164C254.595 1.372 254.916 1.684 255.107 2.1L255.315 2.464V19.754L255.107 20.118C254.725 20.8113 254.127 21.158 253.313 21.158C252.481 21.158 251.883 20.7767 251.519 20.014L251.337 19.65C251.337 18.194 251.328 16.0187 251.311 13.124C251.293 10.2293 251.285 8.06267 251.285 6.624L251.129 6.286C250.955 5.90467 250.643 5.59267 250.193 5.35L249.933 5.194H240.676L240.417 5.35C239.966 5.57533 239.645 5.90467 239.455 6.338L239.325 6.624C239.325 8.06267 239.316 10.2293 239.299 13.124C239.281 16.0187 239.273 18.194 239.273 19.65L239.091 20.014C238.761 20.742 238.189 21.132 237.375 21.184C237.097 21.2187 236.855 21.2013 236.647 21.132C236.161 20.9933 235.771 20.7247 235.477 20.326C235.373 20.17 235.303 20.066 235.269 20.014C235.251 19.9793 235.217 19.7973 235.165 19.468C235.13 19.156 235.113 18.7227 235.113 18.168C235.113 17.596 235.113 16.7207 235.113 15.542V10.94L235.139 2.542L235.295 2.178C235.555 1.58867 236.014 1.20733 236.673 1.034ZM273.019 5.402L272.707 5.246H268.235C265.202 5.246 263.625 5.26333 263.503 5.298C262.567 5.59267 262.099 6.234 262.099 7.222C262.099 8.08867 262.481 8.704 263.243 9.068L263.581 9.224H272.629L272.967 9.068C273.765 8.68667 274.163 8.07133 274.163 7.222C274.163 6.89267 274.094 6.598 273.955 6.338C273.73 5.90467 273.418 5.59267 273.019 5.402ZM259.265 1.138C259.387 1.086 260.392 1.06 262.281 1.06H268.131H276.711L277.049 1.216C277.483 1.40667 277.812 1.736 278.037 2.204L278.193 2.542V19.806L278.011 20.196C277.682 20.872 277.11 21.236 276.295 21.288H276.061C275.853 21.288 275.654 21.2533 275.463 21.184C275.221 21.0973 274.987 20.9413 274.761 20.716C274.553 20.508 274.406 20.2827 274.319 20.04C274.215 19.7627 274.155 18.818 274.137 17.206L274.111 14.71L273.981 14.424C273.687 13.8347 273.193 13.4707 272.499 13.332C272.361 13.2973 270.827 13.28 267.897 13.28L263.633 13.306L263.321 13.436C262.767 13.7133 262.385 14.112 262.177 14.632C262.125 14.7707 262.091 15.6633 262.073 17.31L262.047 19.806L261.865 20.196C261.657 20.6293 261.337 20.95 260.903 21.158C260.713 21.2447 260.409 21.288 259.993 21.288C259.56 21.288 259.248 21.2447 259.057 21.158C258.624 20.95 258.303 20.6293 258.095 20.196L257.913 19.806V2.542L258.043 2.256C258.303 1.684 258.711 1.31133 259.265 1.138ZM280.946 2.048C281.328 1.25067 281.96 0.852 282.844 0.852C283.555 0.852 284.11 1.12067 284.508 1.658C284.526 1.69267 284.552 1.72733 284.586 1.762C284.76 1.97 284.855 2.37733 284.872 2.984C284.907 3.59067 284.933 5.59267 284.95 8.99L284.976 15.568L285.132 15.906C285.34 16.3567 285.67 16.686 286.12 16.894L286.432 17.05C287.888 17.0673 290.072 17.076 292.984 17.076C295.914 17.076 298.106 17.0847 299.562 17.102L299.874 17.258C300.637 17.6393 301.018 18.246 301.018 19.078C301.018 19.754 300.732 20.3173 300.16 20.768C300.143 20.7853 300.108 20.8113 300.056 20.846C299.9 20.9673 299.614 21.0367 299.198 21.054C298.8 21.0887 297.604 21.106 295.61 21.106H290.878C285.158 21.0887 282.203 21.0453 282.012 20.976C281.562 20.8027 281.215 20.4733 280.972 19.988L280.79 19.65V2.36L280.946 2.048ZM325.222 5.402L324.91 5.246H320.438C317.405 5.246 315.828 5.26333 315.706 5.298C314.77 5.59267 314.302 6.234 314.302 7.222C314.302 8.08867 314.684 8.704 315.446 9.068L315.784 9.224H324.832L325.17 9.068C325.968 8.68667 326.366 8.07133 326.366 7.222C326.366 6.89267 326.297 6.598 326.158 6.338C325.933 5.90467 325.621 5.59267 325.222 5.402ZM311.468 1.138C311.59 1.086 312.595 1.06 314.484 1.06H320.334H328.914L329.252 1.216C329.686 1.40667 330.015 1.736 330.24 2.204L330.396 2.542V19.806L330.214 20.196C329.885 20.872 329.313 21.236 328.498 21.288H328.264C328.056 21.288 327.857 21.2533 327.666 21.184C327.424 21.0973 327.19 20.9413 326.964 20.716C326.756 20.508 326.609 20.2827 326.522 20.04C326.418 19.7627 326.358 18.818 326.34 17.206L326.314 14.71L326.184 14.424C325.89 13.8347 325.396 13.4707 324.702 13.332C324.564 13.2973 323.03 13.28 320.1 13.28L315.836 13.306L315.524 13.436C314.97 13.7133 314.588 14.112 314.38 14.632C314.328 14.7707 314.294 15.6633 314.276 17.31L314.25 19.806L314.068 20.196C313.86 20.6293 313.54 20.95 313.106 21.158C312.916 21.2447 312.612 21.288 312.196 21.288C311.763 21.288 311.451 21.2447 311.26 21.158C310.827 20.95 310.506 20.6293 310.298 20.196L310.116 19.806V2.542L310.246 2.256C310.506 1.684 310.914 1.31133 311.468 1.138ZM334.345 1.138C334.467 1.086 335.455 1.06 337.309 1.06H343.237H351.843L352.181 1.216C352.389 1.33733 352.589 1.49333 352.779 1.684C353.143 2.1 353.325 2.57667 353.325 3.114C353.325 4.01533 352.944 4.648 352.181 5.012L351.791 5.194C350.335 5.21133 348.143 5.22 345.213 5.22C342.301 5.22 340.117 5.22867 338.661 5.246L338.323 5.402C337.855 5.62733 337.517 6 337.309 6.52L337.179 6.832V15.672L337.309 16.01C337.5 16.478 337.838 16.8333 338.323 17.076L338.713 17.258H351.791L352.155 17.414C352.935 17.778 353.325 18.3847 353.325 19.234C353.325 19.5633 353.247 19.8753 353.091 20.17C353.005 20.3607 352.849 20.5513 352.623 20.742C352.415 20.9327 352.225 21.0627 352.051 21.132C351.843 21.2013 348.888 21.2447 343.185 21.262L334.605 21.314L334.267 21.184C334.042 21.1147 333.817 20.9587 333.591 20.716C333.366 20.4907 333.21 20.2653 333.123 20.04L332.993 19.702V2.646L333.123 2.334C333.366 1.71 333.773 1.31133 334.345 1.138ZM357.298 1.138C357.42 1.086 358.408 1.06 360.262 1.06H366.19H374.796L375.134 1.216C375.342 1.33733 375.542 1.49333 375.732 1.684C376.096 2.1 376.278 2.57667 376.278 3.114C376.278 4.01533 375.897 4.648 375.134 5.012L374.744 5.194C373.288 5.21133 371.096 5.22 368.166 5.22C365.254 5.22 363.07 5.22867 361.614 5.246L361.276 5.402C360.808 5.62733 360.47 6 360.262 6.52L360.132 6.832V15.672L360.262 16.01C360.453 16.478 360.791 16.8333 361.276 17.076L361.666 17.258H374.744L375.108 17.414C375.888 17.778 376.278 18.3847 376.278 19.234C376.278 19.5633 376.2 19.8753 376.044 20.17C375.958 20.3607 375.802 20.5513 375.576 20.742C375.368 20.9327 375.178 21.0627 375.004 21.132C374.796 21.2013 371.841 21.2447 366.138 21.262L357.558 21.314L357.22 21.184C356.995 21.1147 356.77 20.9587 356.544 20.716C356.319 20.4907 356.163 20.2653 356.076 20.04L355.946 19.702V2.646L356.076 2.334C356.319 1.71 356.726 1.31133 357.298 1.138ZM380.226 1.112C380.364 1.06 383.276 1.034 388.962 1.034H392.03C394.976 1.034 396.692 1.05133 397.178 1.086C397.663 1.10333 398.027 1.19867 398.27 1.372C398.859 1.77067 399.154 2.35133 399.154 3.114C399.154 3.72067 398.954 4.21467 398.556 4.596C398.296 4.82133 398.096 4.96 397.958 5.012L397.62 5.168L391.042 5.22L384.49 5.246L384.204 5.402C383.753 5.662 383.432 5.96533 383.242 6.312C383.138 6.52 383.086 6.82333 383.086 7.222C383.086 7.60333 383.146 7.90667 383.268 8.132C383.493 8.548 383.814 8.85133 384.23 9.042L384.542 9.198C385.114 9.21533 385.954 9.224 387.064 9.224C388.19 9.224 389.031 9.23267 389.586 9.25L389.898 9.406C390.314 9.59667 390.634 9.9 390.86 10.316C390.981 10.5413 391.042 10.8447 391.042 11.226C391.042 11.642 391.007 11.9193 390.938 12.058C390.712 12.5087 390.383 12.838 389.95 13.046L389.638 13.202C389.083 13.2193 388.242 13.228 387.116 13.228C386.006 13.228 385.174 13.2367 384.62 13.254L384.23 13.436C383.814 13.6267 383.484 13.956 383.242 14.424C383.138 14.632 383.086 14.918 383.086 15.282C383.086 15.646 383.146 15.9407 383.268 16.166C383.493 16.582 383.814 16.8853 384.23 17.076L384.542 17.232L391.12 17.258C395.488 17.2753 397.741 17.31 397.88 17.362C398.521 17.6567 398.92 18.1247 399.076 18.766C399.11 18.87 399.128 19.0347 399.128 19.26C399.128 20.1093 398.746 20.7247 397.984 21.106L397.724 21.236L389.092 21.262C384.776 21.262 382.245 21.2533 381.5 21.236C380.754 21.236 380.304 21.2013 380.148 21.132C379.662 20.9413 379.298 20.612 379.056 20.144L378.9 19.832V2.464L379.056 2.152C379.316 1.64933 379.706 1.30267 380.226 1.112ZM403.181 1.008C403.337 0.955999 406.258 0.929999 411.943 0.929999L420.445 0.956L420.835 1.138C421.563 1.502 421.927 2.09133 421.927 2.906V3.088C421.875 3.92 421.52 4.50933 420.861 4.856L420.549 5.038C419.076 5.05533 416.875 5.064 413.945 5.064C411.016 5.064 408.823 5.07267 407.367 5.09L407.029 5.22C406.683 5.35867 406.379 5.60133 406.119 5.948C405.877 6.27733 405.755 6.65 405.755 7.066C405.755 7.30867 405.825 7.586 405.963 7.898C406.171 8.33133 406.492 8.66067 406.925 8.886L407.237 9.042C408.711 9.05933 410.912 9.068 413.841 9.068C416.771 9.068 418.972 9.07667 420.445 9.094L420.757 9.25C421.208 9.47533 421.537 9.78733 421.745 10.186L421.927 10.524V15.022C421.927 18.038 421.893 19.65 421.823 19.858C421.667 20.326 421.338 20.6813 420.835 20.924L420.445 21.106L411.969 21.132C406.301 21.132 403.381 21.106 403.207 21.054C402.393 20.8287 401.916 20.3 401.777 19.468C401.76 19.3987 401.751 19.286 401.751 19.13C401.751 18.2807 402.141 17.674 402.921 17.31L403.285 17.154C404.724 17.1367 406.891 17.128 409.785 17.128C412.68 17.128 414.855 17.1193 416.311 17.102L416.623 16.946C417.403 16.5993 417.793 15.9927 417.793 15.126C417.793 14.1727 417.317 13.5227 416.363 13.176C416.294 13.1413 414.067 13.1153 409.681 13.098L403.155 13.072L402.921 12.942C402.471 12.6993 402.15 12.3787 401.959 11.98L401.751 11.538V2.542L401.881 2.204C402.124 1.59733 402.557 1.19867 403.181 1.008ZM425.957 1.008C426.113 0.955999 429.033 0.929999 434.719 0.929999L443.221 0.956L443.611 1.138C444.339 1.502 444.703 2.09133 444.703 2.906V3.088C444.651 3.92 444.295 4.50933 443.637 4.856L443.325 5.038C441.851 5.05533 439.65 5.064 436.721 5.064C433.791 5.064 431.599 5.07267 430.143 5.09L429.805 5.22C429.458 5.35867 429.155 5.60133 428.895 5.948C428.652 6.27733 428.531 6.65 428.531 7.066C428.531 7.30867 428.6 7.586 428.739 7.898C428.947 8.33133 429.267 8.66067 429.701 8.886L430.013 9.042C431.486 9.05933 433.687 9.068 436.617 9.068C439.546 9.068 441.747 9.07667 443.221 9.094L443.533 9.25C443.983 9.47533 444.313 9.78733 444.521 10.186L444.703 10.524V15.022C444.703 18.038 444.668 19.65 444.599 19.858C444.443 20.326 444.113 20.6813 443.611 20.924L443.221 21.106L434.745 21.132C429.077 21.132 426.156 21.106 425.983 21.054C425.168 20.8287 424.691 20.3 424.553 19.468C424.535 19.3987 424.527 19.286 424.527 19.13C424.527 18.2807 424.917 17.674 425.697 17.31L426.061 17.154C427.499 17.1367 429.666 17.128 432.561 17.128C435.455 17.128 437.631 17.1193 439.087 17.102L439.399 16.946C440.179 16.5993 440.569 15.9927 440.569 15.126C440.569 14.1727 440.092 13.5227 439.139 13.176C439.069 13.1413 436.842 13.1153 432.457 13.098L425.931 13.072L425.697 12.942C425.246 12.6993 424.925 12.3787 424.735 11.98L424.527 11.538V2.542L424.657 2.204C424.899 1.59733 425.333 1.19867 425.957 1.008Z" fill="#7B23FF"/>
</svg>
