<svg width="142" height="72" viewBox="0 0 142 72" fill="none" xmlns="http://www.w3.org/2000/svg">
  <g filter="url(#filter0_d_27056_4722)">
    <path d="M136 33C136 51.2254 119 66 68 66C14.2326 66 0 51.2254 0 33C0 14.7746 20.1628 0 68 0C115.837 0 136 14.7746 136 33Z" fill="#FFFDEB"/>
    <path d="M135.5 33C135.5 41.9205 131.358 50.0096 120.88 55.8987C110.365 61.8085 93.4669 65.5 68 65.5C41.1433 65.5 24.2516 61.8067 14.0884 55.9022C9.01613 52.9554 5.62673 49.4619 3.50192 45.6039C1.37627 41.7444 0.5 37.4905 0.5 33C0.5 24.1093 5.40329 16.0095 16.2993 10.1051C27.2159 4.18943 44.1211 0.5 68 0.5C91.8789 0.5 108.784 4.18943 119.701 10.1051C130.597 16.0095 135.5 24.1093 135.5 33Z" stroke="black"/>
  </g>
  <defs>
    <filter id="filter0_d_27056_4722" x="0" y="0" width="142" height="72" filterUnits="userSpaceOnUse" color-interpolation-filters="sRGB">
      <feFlood flood-opacity="0" result="BackgroundImageFix"/>
      <feColorMatrix in="SourceAlpha" type="matrix" values="0 0 0 0 0 0 0 0 0 0 0 0 0 0 0 0 0 0 127 0" result="hardAlpha"/>
      <feOffset dx="6" dy="6"/>
      <feComposite in2="hardAlpha" operator="out"/>
      <feColorMatrix type="matrix" values="0 0 0 0 0 0 0 0 0 0 0 0 0 0 0 0 0 0 0.25 0"/>
      <feBlend mode="normal" in2="BackgroundImageFix" result="effect1_dropShadow_27056_4722"/>
      <feBlend mode="normal" in="SourceGraphic" in2="effect1_dropShadow_27056_4722" result="shape"/>
    </filter>
  </defs>
</svg>
