<svg width="390" height="486" viewBox="0 0 390 486" fill="none" xmlns="http://www.w3.org/2000/svg">
  <g filter="url(#filter0_d_22057_76)">
    <path d="M276.737 85.3771L290.166 35.3066C290.386 34.4856 291.552 34.4876 291.769 35.3094L305.006 85.3799C305.145 85.9061 304.748 86.4214 304.204 86.4214H277.538C276.993 86.4214 276.596 85.9039 276.737 85.3771Z" fill="#003958"/>
    <path d="M276.737 85.3771L290.166 35.3066C290.386 34.4856 291.552 34.4876 291.769 35.3094L305.006 85.3799C305.145 85.9061 304.748 86.4214 304.204 86.4214H277.538C276.993 86.4214 276.596 85.9039 276.737 85.3771Z" stroke="black" stroke-width="0.41474"/>
  </g>
  <g filter="url(#filter1_d_22057_76)">
    <path d="M117.062 85.3793L128.092 43.8412C128.31 43.0176 129.48 43.0197 129.696 43.8441L140.568 85.3822C140.706 85.9079 140.309 86.4217 139.766 86.4217H117.864C117.319 86.4217 116.922 85.9057 117.062 85.3793Z" fill="#003958"/>
    <path d="M117.062 85.3793L128.092 43.8412C128.31 43.0176 129.48 43.0197 129.696 43.8441L140.568 85.3822C140.706 85.9079 140.309 86.4217 139.766 86.4217H117.864C117.319 86.4217 116.922 85.9057 117.062 85.3793Z" stroke="black" stroke-width="0.41474"/>
  </g>
  <g filter="url(#filter2_d_22057_76)">
    <path d="M362.996 85.3793L374.025 43.8412C374.244 43.0176 375.414 43.0197 375.629 43.8441L386.502 85.3822C386.639 85.9079 386.243 86.4217 385.699 86.4217H363.797C363.253 86.4217 362.856 85.9057 362.996 85.3793Z" fill="#003958"/>
    <path d="M362.996 85.3793L374.025 43.8412C374.244 43.0176 375.414 43.0197 375.629 43.8441L386.502 85.3822C386.639 85.9079 386.243 86.4217 385.699 86.4217H363.797C363.253 86.4217 362.856 85.9057 362.996 85.3793Z" stroke="black" stroke-width="0.41474"/>
  </g>
  <g filter="url(#filter3_d_22057_76)">
    <path d="M306.724 70.892C312.873 57.2888 314.586 43.6602 317.383 43.6602C321.264 45.73 343.725 84.7198 340.928 86.413C338.13 88.1062 332.716 85.1196 331.201 82.8855C333.299 86.2954 335.956 93.2563 329.802 93.8207C323.648 94.3851 320.011 87.4712 318.962 83.9437C318.263 87.0009 315.885 93.1152 311.969 93.1152C308.053 93.1152 308.706 88.6471 309.522 86.413C306.608 88.6471 303.902 92.2065 300.825 90.2311C296.978 87.7618 300.825 83.9437 306.724 70.892Z" fill="#025B8C"/>
    <path d="M306.724 70.892C312.873 57.2888 314.586 43.6602 317.383 43.6602C321.264 45.73 343.725 84.7198 340.928 86.413C338.13 88.1062 332.716 85.1196 331.201 82.8855C333.299 86.2954 335.956 93.2563 329.802 93.8207C323.648 94.3851 320.011 87.4712 318.962 83.9437C318.263 87.0009 315.885 93.1152 311.969 93.1152C308.053 93.1152 308.706 88.6471 309.522 86.413C306.608 88.6471 303.902 92.2065 300.825 90.2311C296.978 87.7618 300.825 83.9437 306.724 70.892Z" stroke="black" stroke-width="0.41474"/>
  </g>
  <g filter="url(#filter4_d_22057_76)">
    <path d="M318.098 38.2275C323.79 38.745 332.587 60.9956 335.174 65.1352C337.762 69.2748 336.468 70.3097 335.174 70.5685C334.139 70.7755 330.431 69.2748 328.706 68.4987C329.224 69.6198 329.948 72.0173 328.706 72.6383C327.464 73.2592 325.084 70.4822 324.049 69.0161C324.566 70.9997 325.032 75.0703 322.755 75.4843C320.479 75.8983 319.564 71.3447 319.392 69.0161C319.306 71.9484 318.409 77.8128 315.511 77.8128C312.919 77.8128 312.756 73.5353 313.059 70.7191C312.717 72.7095 311.766 75.4843 309.819 75.4843C307.642 75.4843 307.973 73.1178 308.458 71.7797C307.844 73.2839 305.778 75.8822 301.798 75.4843C296.624 74.9668 313.441 38.2275 318.098 38.2275Z" fill="#025B8C"/>
    <path d="M318.098 38.2275C323.79 38.745 332.587 60.9956 335.174 65.1352C337.762 69.2748 336.468 70.3097 335.174 70.5685C334.139 70.7755 330.431 69.2748 328.706 68.4987C329.224 69.6198 329.948 72.0173 328.706 72.6383C327.464 73.2592 325.084 70.4822 324.049 69.0161C324.566 70.9997 325.032 75.0703 322.755 75.4843C320.479 75.8983 319.564 71.3447 319.392 69.0161C319.306 71.9484 318.409 77.8128 315.511 77.8128C312.919 77.8128 312.756 73.5353 313.059 70.7191C312.717 72.7095 311.766 75.4843 309.819 75.4843C307.642 75.4843 307.973 73.1178 308.458 71.7797C307.844 73.2839 305.778 75.8822 301.798 75.4843C296.624 74.9668 313.441 38.2275 318.098 38.2275Z" stroke="black" stroke-width="0.41474"/>
  </g>
  <g filter="url(#filter5_d_22057_76)">
    <path d="M328.445 43.1431C322.235 34.0877 323.011 20.8926 320.941 20.8926C317.319 20.8926 301.796 53.751 304.383 55.3033C306.453 56.5452 309.213 53.5785 310.334 51.9399C308.781 54.4409 306.815 59.5465 311.369 59.9604C315.922 60.3744 318.613 55.3033 319.389 52.7161C319.907 54.9584 321.666 59.443 324.564 59.443C327.461 59.443 326.978 56.1658 326.375 54.5272C328.531 56.1658 333.412 59.0808 335.689 57.6319C338.535 55.8208 334.654 52.1986 328.445 43.1431Z" fill="#156D9D"/>
    <path d="M328.445 43.1431C322.235 34.0877 323.011 20.8926 320.941 20.8926C317.319 20.8926 301.796 53.751 304.383 55.3033C306.453 56.5452 309.213 53.5785 310.334 51.9399C308.781 54.4409 306.815 59.5465 311.369 59.9604C315.922 60.3744 318.613 55.3033 319.389 52.7161C319.907 54.9584 321.666 59.443 324.564 59.443C327.461 59.443 326.978 56.1658 326.375 54.5272C328.531 56.1658 333.412 59.0808 335.689 57.6319C338.535 55.8208 334.654 52.1986 328.445 43.1431Z" stroke="black" stroke-width="0.41474"/>
  </g>
  <g filter="url(#filter6_d_22057_76)">
    <path d="M23.4547 70.8924C29.6035 57.2893 31.3164 43.6606 34.1138 43.6606C37.9949 45.7305 60.4554 84.7203 57.658 86.4135C54.8607 88.1067 49.4464 85.12 47.9312 82.886C50.0292 86.2959 52.6866 93.2568 46.5325 93.8212C40.3784 94.3856 36.7419 87.4717 35.6929 83.9442C34.9936 87.0014 32.6159 93.1157 28.6997 93.1157C24.7834 93.1157 25.4361 88.6475 26.252 86.4135C23.3382 88.6475 20.6322 92.207 17.5551 90.2316C13.7088 87.7623 17.5551 83.9442 23.4547 70.8924Z" fill="#025B8C"/>
    <path d="M23.4547 70.8924C29.6035 57.2893 31.3164 43.6606 34.1138 43.6606C37.9949 45.7305 60.4554 84.7203 57.658 86.4135C54.8607 88.1067 49.4464 85.12 47.9312 82.886C50.0292 86.2959 52.6866 93.2568 46.5325 93.8212C40.3784 94.3856 36.7419 87.4717 35.6929 83.9442C34.9936 87.0014 32.6159 93.1157 28.6997 93.1157C24.7834 93.1157 25.4361 88.6475 26.252 86.4135C23.3382 88.6475 20.6322 92.207 17.5551 90.2316C13.7088 87.7623 17.5551 83.9442 23.4547 70.8924Z" stroke="black" stroke-width="0.41474"/>
  </g>
  <g filter="url(#filter7_d_22057_76)">
    <path d="M34.8287 38.2275C40.5208 38.745 51.9886 62.9968 54.5758 67.1364C57.1631 71.2761 55.6557 74.7264 54.5758 75.4843C51.2579 77.8128 47.5253 69.4175 47.1105 68.588C47.1105 68.588 46.6785 76.0545 45.4366 76.6754C44.1947 77.2964 41.8144 70.4822 40.7795 69.0161C41.2969 70.9997 41.7626 75.0703 39.4858 75.4843C37.209 75.8983 36.2949 71.3447 36.1224 69.0161C36.0361 71.9484 35.1392 77.8128 32.2415 77.8128C29.6497 77.8128 29.4864 73.5353 29.7894 70.7191C29.447 72.7095 28.4965 75.4843 26.5495 75.4843C24.372 75.4843 24.703 73.1178 25.1887 71.7797C24.5749 73.2839 22.5082 75.8822 18.529 75.4843C13.3544 74.9668 30.1717 38.2275 34.8287 38.2275Z" fill="#025B8C"/>
    <path d="M34.8287 38.2275C40.5208 38.745 51.9886 62.9968 54.5758 67.1364C57.1631 71.2761 55.6557 74.7264 54.5758 75.4843C51.2579 77.8128 47.5253 69.4175 47.1105 68.588C47.1105 68.588 46.6785 76.0545 45.4366 76.6754C44.1947 77.2964 41.8144 70.4822 40.7795 69.0161C41.2969 70.9997 41.7626 75.0703 39.4858 75.4843C37.209 75.8983 36.2949 71.3447 36.1224 69.0161C36.0361 71.9484 35.1392 77.8128 32.2415 77.8128C29.6497 77.8128 29.4864 73.5353 29.7894 70.7191C29.447 72.7095 28.4965 75.4843 26.5495 75.4843C24.372 75.4843 24.703 73.1178 25.1887 71.7797C24.5749 73.2839 22.5082 75.8822 18.529 75.4843C13.3544 74.9668 30.1717 38.2275 34.8287 38.2275Z" stroke="black" stroke-width="0.41474"/>
  </g>
  <g filter="url(#filter8_d_22057_76)">
    <path d="M44.3912 43.7035C42.0475 40.2855 37.1316 34.1646 35.0618 34.1646C31.4396 34.1646 17.4684 55.6176 20.0557 57.1699C22.1255 58.4118 24.8852 55.4451 26.0064 53.8065C24.454 56.3075 22.4877 61.4131 27.0413 61.827C31.5949 62.241 34.2856 57.1699 35.0618 54.5826C35.5793 56.8249 37.3386 61.3096 40.2364 61.3096C43.1341 61.3096 42.6512 58.0323 42.0475 56.3937C44.2035 58.0323 49.0849 60.9473 51.3617 59.4985C54.2077 57.6874 50.6007 52.759 44.3912 43.7035Z" fill="#156D9D"/>
    <path d="M44.3912 43.7035C42.0475 40.2855 37.1316 34.1646 35.0618 34.1646C31.4396 34.1646 17.4684 55.6176 20.0557 57.1699C22.1255 58.4118 24.8852 55.4451 26.0064 53.8065C24.454 56.3075 22.4877 61.4131 27.0413 61.827C31.5949 62.241 34.2856 57.1699 35.0618 54.5826C35.5793 56.8249 37.3386 61.3096 40.2364 61.3096C43.1341 61.3096 42.6512 58.0323 42.0475 56.3937C44.2035 58.0323 49.0849 60.9473 51.3617 59.4985C54.2077 57.6874 50.6007 52.759 44.3912 43.7035Z" stroke="black" stroke-width="0.41474"/>
  </g>
  <g filter="url(#filter9_d_22057_76)">
    <path d="M87.6698 49.9248C92.1513 50.4398 101.18 74.5783 103.217 78.6986C105.254 82.8189 104.067 86.2531 103.217 87.0074C100.605 89.3251 97.6661 80.969 97.3396 80.1434C97.3396 80.1434 96.9994 87.575 96.0217 88.193C95.0439 88.8111 93.1698 82.0287 92.355 80.5695C92.7624 82.5438 93.1291 86.5954 91.3365 87.0074C89.5439 87.4195 88.8241 82.8871 88.6883 80.5695C88.6204 83.488 87.9143 89.3251 85.6328 89.3251C83.5922 89.3251 83.4637 85.0676 83.7022 82.2645C83.4326 84.2456 82.6842 87.0074 81.1514 87.0074C79.437 87.0074 79.6976 84.652 80.0799 83.3202C79.5966 84.8174 77.9695 87.4035 74.8365 87.0074C70.7625 86.4924 84.0032 49.9248 87.6698 49.9248Z" fill="#025B8C"/>
    <path d="M87.6698 49.9248C92.1513 50.4398 101.18 74.5783 103.217 78.6986C105.254 82.8189 104.067 86.2531 103.217 87.0074C100.605 89.3251 97.6661 80.969 97.3396 80.1434C97.3396 80.1434 96.9994 87.575 96.0217 88.193C95.0439 88.8111 93.1698 82.0287 92.355 80.5695C92.7624 82.5438 93.1291 86.5954 91.3365 87.0074C89.5439 87.4195 88.8241 82.8871 88.6883 80.5695C88.6204 83.488 87.9143 89.3251 85.6328 89.3251C83.5922 89.3251 83.4637 85.0676 83.7022 82.2645C83.4326 84.2456 82.6842 87.0074 81.1514 87.0074C79.437 87.0074 79.6976 84.652 80.0799 83.3202C79.5966 84.8174 77.9695 87.4035 74.8365 87.0074C70.7625 86.4924 84.0032 49.9248 87.6698 49.9248Z" stroke="black" stroke-width="0.41474"/>
  </g>
  <g filter="url(#filter10_d_22057_76)">
    <path d="M95.3747 55.3512C93.467 51.9207 89.4658 45.7773 87.7811 45.7773C84.8328 45.7773 73.4611 67.3088 75.567 68.8668C77.2517 70.1133 79.4979 67.1357 80.4105 65.4911C79.1469 68.0012 77.5464 73.1255 81.2528 73.541C84.9592 73.9564 87.1493 68.8668 87.7811 66.2701C88.2023 68.5206 89.6343 73.0216 91.9929 73.0216C94.3515 73.0216 93.9584 69.7324 93.467 68.0878C95.2219 69.7324 99.1951 72.6581 101.048 71.2039C103.365 69.3862 100.429 64.4398 95.3747 55.3512Z" fill="#156D9D"/>
    <path d="M95.3747 55.3512C93.467 51.9207 89.4658 45.7773 87.7811 45.7773C84.8328 45.7773 73.4611 67.3088 75.567 68.8668C77.2517 70.1133 79.4979 67.1357 80.4105 65.4911C79.1469 68.0012 77.5464 73.1255 81.2528 73.541C84.9592 73.9564 87.1493 68.8668 87.7811 66.2701C88.2023 68.5206 89.6343 73.0216 91.9929 73.0216C94.3515 73.0216 93.9584 69.7324 93.467 68.0878C95.2219 69.7324 99.1951 72.6581 101.048 71.2039C103.365 69.3862 100.429 64.4398 95.3747 55.3512Z" stroke="black" stroke-width="0.41474"/>
  </g>
  <path d="M197.024 90.7193C194.529 88.6644 215.738 27.7876 217.206 27.7876C218.675 27.7876 218.307 29.071 224.913 49.8039C231.854 71.5897 237.389 89.9854 233.903 89.9854C231.114 89.9854 228.215 85.4596 227.114 83.1967C227.359 85.4596 227.261 89.9854 224.913 89.9854C222.564 89.9854 221.243 84.848 220.876 82.2793C220.754 86.1324 219.885 93.765 217.39 93.4715C214.895 93.1779 212.681 87.1109 211.886 84.1141C210.907 86.3158 208.473 90.5725 206.565 89.9854C204.657 89.3983 205.77 83.5025 206.565 80.6281C204.424 84.848 199.519 92.7742 197.024 90.7193Z" fill="#025B8C" stroke="black" stroke-width="0.41474"/>
  <g filter="url(#filter11_d_22057_76)">
    <path d="M197.024 74.2061C194.529 72.1512 215.738 11.2744 217.206 11.2744C218.675 11.2744 218.307 12.5578 224.913 33.2907C231.854 55.0765 237.389 73.4722 233.903 73.4722C231.114 73.4722 228.215 68.9464 227.114 66.6836C227.359 68.9464 227.261 73.4722 224.913 73.4722C222.564 73.4722 221.243 68.3348 220.876 65.7662C220.754 69.6192 219.885 77.2518 217.39 76.9583C214.895 76.6647 212.681 70.5977 211.886 67.6009C210.907 69.8027 208.473 74.0593 206.565 73.4722C204.657 72.8851 205.77 66.9893 206.565 64.1149C204.424 68.3348 199.519 76.2611 197.024 74.2061Z" fill="#025B8C"/>
    <path d="M197.024 74.2061C194.529 72.1512 215.738 11.2744 217.206 11.2744C218.675 11.2744 218.307 12.5578 224.913 33.2907C231.854 55.0765 237.389 73.4722 233.903 73.4722C231.114 73.4722 228.215 68.9464 227.114 66.6836C227.359 68.9464 227.261 73.4722 224.913 73.4722C222.564 73.4722 221.243 68.3348 220.876 65.7662C220.754 69.6192 219.885 77.2518 217.39 76.9583C214.895 76.6647 212.681 70.5977 211.886 67.6009C210.907 69.8027 208.473 74.0593 206.565 73.4722C204.657 72.8851 205.77 66.9893 206.565 64.1149C204.424 68.3348 199.519 76.2611 197.024 74.2061Z" stroke="black" stroke-width="0.41474"/>
  </g>
  <g filter="url(#filter12_d_22057_76)">
    <path d="M200.294 52.6756C198.23 50.9882 215.772 1 216.986 1C218.2 1 217.896 2.05385 223.36 19.0784C229.1 36.9676 233.679 52.073 230.795 52.073C228.489 52.073 226.091 48.3567 225.181 46.4986C225.383 48.3567 225.302 52.073 223.36 52.073C221.417 52.073 220.325 47.8545 220.021 45.7453C219.92 48.9091 219.202 55.1766 217.138 54.9355C215.074 54.6945 213.243 49.7127 212.585 47.2519C211.776 49.0598 209.763 52.5551 208.185 52.073C206.606 51.5909 207.527 46.7497 208.185 44.3893C206.414 47.8545 202.357 54.363 200.294 52.6756Z" fill="#156D9D"/>
    <path d="M200.294 52.6756C198.23 50.9882 215.772 1 216.986 1C218.2 1 217.896 2.05385 223.36 19.0784C229.1 36.9676 233.679 52.073 230.795 52.073C228.489 52.073 226.091 48.3567 225.181 46.4986C225.383 48.3567 225.302 52.073 223.36 52.073C221.417 52.073 220.325 47.8545 220.021 45.7453C219.92 48.9091 219.202 55.1766 217.138 54.9355C215.074 54.6945 213.243 49.7127 212.585 47.2519C211.776 49.0598 209.763 52.5551 208.185 52.073C206.606 51.5909 207.527 46.7497 208.185 44.3893C206.414 47.8545 202.357 54.363 200.294 52.6756Z" stroke="black" stroke-width="0.41474"/>
  </g>
  <path d="M64.4525 80.5576C47.6987 80.5576 11.3901 86.1735 -1.71484 86.1735V158.806H395.032V86.1736C386.039 86.1736 376.146 80.5576 356.231 80.5576C332.976 80.5576 334.004 86.1735 298.287 86.1735C262.569 86.1735 243.682 80.5576 219.785 80.5576C195.888 80.5576 165.438 86.1735 137.172 86.1735C108.907 86.1735 85.3948 80.5576 64.4525 80.5576Z" fill="url(#paint0_linear_22057_76)"/>
  <rect y="158.586" width="395" height="327" fill="url(#paint1_linear_22057_76)"/>
  <defs>
    <filter id="filter0_d_22057_76" x="276.5" y="34.4844" width="28.7422" height="54.633" filterUnits="userSpaceOnUse" color-interpolation-filters="sRGB">
      <feFlood flood-opacity="0" result="BackgroundImageFix"/>
      <feColorMatrix in="SourceAlpha" type="matrix" values="0 0 0 0 0 0 0 0 0 0 0 0 0 0 0 0 0 0 127 0" result="hardAlpha"/>
      <feOffset dy="2.48844"/>
      <feComposite in2="hardAlpha" operator="out"/>
      <feColorMatrix type="matrix" values="0 0 0 0 0 0 0 0 0 0 0 0 0 0 0 0 0 0 0.25 0"/>
      <feBlend mode="normal" in2="BackgroundImageFix" result="effect1_dropShadow_22057_76"/>
      <feBlend mode="normal" in="SourceGraphic" in2="effect1_dropShadow_22057_76" result="shape"/>
    </filter>
    <filter id="filter1_d_22057_76" x="116.828" y="43.0171" width="23.9766" height="46.1003" filterUnits="userSpaceOnUse" color-interpolation-filters="sRGB">
      <feFlood flood-opacity="0" result="BackgroundImageFix"/>
      <feColorMatrix in="SourceAlpha" type="matrix" values="0 0 0 0 0 0 0 0 0 0 0 0 0 0 0 0 0 0 127 0" result="hardAlpha"/>
      <feOffset dy="2.48844"/>
      <feComposite in2="hardAlpha" operator="out"/>
      <feColorMatrix type="matrix" values="0 0 0 0 0 0 0 0 0 0 0 0 0 0 0 0 0 0 0.25 0"/>
      <feBlend mode="normal" in2="BackgroundImageFix" result="effect1_dropShadow_22057_76"/>
      <feBlend mode="normal" in="SourceGraphic" in2="effect1_dropShadow_22057_76" result="shape"/>
    </filter>
    <filter id="filter2_d_22057_76" x="362.762" y="43.0171" width="23.9766" height="46.1003" filterUnits="userSpaceOnUse" color-interpolation-filters="sRGB">
      <feFlood flood-opacity="0" result="BackgroundImageFix"/>
      <feColorMatrix in="SourceAlpha" type="matrix" values="0 0 0 0 0 0 0 0 0 0 0 0 0 0 0 0 0 0 127 0" result="hardAlpha"/>
      <feOffset dy="2.48844"/>
      <feComposite in2="hardAlpha" operator="out"/>
      <feColorMatrix type="matrix" values="0 0 0 0 0 0 0 0 0 0 0 0 0 0 0 0 0 0 0.25 0"/>
      <feBlend mode="normal" in2="BackgroundImageFix" result="effect1_dropShadow_22057_76"/>
      <feBlend mode="normal" in="SourceGraphic" in2="effect1_dropShadow_22057_76" result="shape"/>
    </filter>
    <filter id="filter3_d_22057_76" x="299.07" y="43.4526" width="42.3047" height="54.3406" filterUnits="userSpaceOnUse" color-interpolation-filters="sRGB">
      <feFlood flood-opacity="0" result="BackgroundImageFix"/>
      <feColorMatrix in="SourceAlpha" type="matrix" values="0 0 0 0 0 0 0 0 0 0 0 0 0 0 0 0 0 0 127 0" result="hardAlpha"/>
      <feOffset dy="3.73266"/>
      <feComposite in2="hardAlpha" operator="out"/>
      <feColorMatrix type="matrix" values="0 0 0 0 0 0 0 0 0 0 0 0 0 0 0 0 0 0 0.25 0"/>
      <feBlend mode="normal" in2="BackgroundImageFix" result="effect1_dropShadow_22057_76"/>
      <feBlend mode="normal" in="SourceGraphic" in2="effect1_dropShadow_22057_76" result="shape"/>
    </filter>
    <filter id="filter4_d_22057_76" x="300.613" y="38.02" width="36.2617" height="43.7327" filterUnits="userSpaceOnUse" color-interpolation-filters="sRGB">
      <feFlood flood-opacity="0" result="BackgroundImageFix"/>
      <feColorMatrix in="SourceAlpha" type="matrix" values="0 0 0 0 0 0 0 0 0 0 0 0 0 0 0 0 0 0 127 0" result="hardAlpha"/>
      <feOffset dy="3.73266"/>
      <feComposite in2="hardAlpha" operator="out"/>
      <feColorMatrix type="matrix" values="0 0 0 0 0 0 0 0 0 0 0 0 0 0 0 0 0 0 0.25 0"/>
      <feBlend mode="normal" in2="BackgroundImageFix" result="effect1_dropShadow_22057_76"/>
      <feBlend mode="normal" in="SourceGraphic" in2="effect1_dropShadow_22057_76" result="shape"/>
    </filter>
    <filter id="filter5_d_22057_76" x="303.887" y="20.6851" width="32.9609" height="43.2395" filterUnits="userSpaceOnUse" color-interpolation-filters="sRGB">
      <feFlood flood-opacity="0" result="BackgroundImageFix"/>
      <feColorMatrix in="SourceAlpha" type="matrix" values="0 0 0 0 0 0 0 0 0 0 0 0 0 0 0 0 0 0 127 0" result="hardAlpha"/>
      <feOffset dy="3.73266"/>
      <feComposite in2="hardAlpha" operator="out"/>
      <feColorMatrix type="matrix" values="0 0 0 0 0 0 0 0 0 0 0 0 0 0 0 0 0 0 0.25 0"/>
      <feBlend mode="normal" in2="BackgroundImageFix" result="effect1_dropShadow_22057_76"/>
      <feBlend mode="normal" in="SourceGraphic" in2="effect1_dropShadow_22057_76" result="shape"/>
    </filter>
    <filter id="filter6_d_22057_76" x="15.8008" y="43.4531" width="42.3047" height="54.3406" filterUnits="userSpaceOnUse" color-interpolation-filters="sRGB">
      <feFlood flood-opacity="0" result="BackgroundImageFix"/>
      <feColorMatrix in="SourceAlpha" type="matrix" values="0 0 0 0 0 0 0 0 0 0 0 0 0 0 0 0 0 0 127 0" result="hardAlpha"/>
      <feOffset dy="3.73266"/>
      <feComposite in2="hardAlpha" operator="out"/>
      <feColorMatrix type="matrix" values="0 0 0 0 0 0 0 0 0 0 0 0 0 0 0 0 0 0 0.25 0"/>
      <feBlend mode="normal" in2="BackgroundImageFix" result="effect1_dropShadow_22057_76"/>
      <feBlend mode="normal" in="SourceGraphic" in2="effect1_dropShadow_22057_76" result="shape"/>
    </filter>
    <filter id="filter7_d_22057_76" x="17.3438" y="38.02" width="38.8672" height="43.7327" filterUnits="userSpaceOnUse" color-interpolation-filters="sRGB">
      <feFlood flood-opacity="0" result="BackgroundImageFix"/>
      <feColorMatrix in="SourceAlpha" type="matrix" values="0 0 0 0 0 0 0 0 0 0 0 0 0 0 0 0 0 0 127 0" result="hardAlpha"/>
      <feOffset dy="3.73266"/>
      <feComposite in2="hardAlpha" operator="out"/>
      <feColorMatrix type="matrix" values="0 0 0 0 0 0 0 0 0 0 0 0 0 0 0 0 0 0 0.25 0"/>
      <feBlend mode="normal" in2="BackgroundImageFix" result="effect1_dropShadow_22057_76"/>
      <feBlend mode="normal" in="SourceGraphic" in2="effect1_dropShadow_22057_76" result="shape"/>
    </filter>
    <filter id="filter8_d_22057_76" x="19.5312" y="33.957" width="33.0234" height="31.8337" filterUnits="userSpaceOnUse" color-interpolation-filters="sRGB">
      <feFlood flood-opacity="0" result="BackgroundImageFix"/>
      <feColorMatrix in="SourceAlpha" type="matrix" values="0 0 0 0 0 0 0 0 0 0 0 0 0 0 0 0 0 0 127 0" result="hardAlpha"/>
      <feOffset dy="3.73266"/>
      <feComposite in2="hardAlpha" operator="out"/>
      <feColorMatrix type="matrix" values="0 0 0 0 0 0 0 0 0 0 0 0 0 0 0 0 0 0 0.25 0"/>
      <feBlend mode="normal" in2="BackgroundImageFix" result="effect1_dropShadow_22057_76"/>
      <feBlend mode="normal" in="SourceGraphic" in2="effect1_dropShadow_22057_76" result="shape"/>
    </filter>
    <filter id="filter9_d_22057_76" x="73.8594" y="49.7173" width="30.6914" height="43.5476" filterUnits="userSpaceOnUse" color-interpolation-filters="sRGB">
      <feFlood flood-opacity="0" result="BackgroundImageFix"/>
      <feColorMatrix in="SourceAlpha" type="matrix" values="0 0 0 0 0 0 0 0 0 0 0 0 0 0 0 0 0 0 127 0" result="hardAlpha"/>
      <feOffset dy="3.73266"/>
      <feComposite in2="hardAlpha" operator="out"/>
      <feColorMatrix type="matrix" values="0 0 0 0 0 0 0 0 0 0 0 0 0 0 0 0 0 0 0.25 0"/>
      <feBlend mode="normal" in2="BackgroundImageFix" result="effect1_dropShadow_22057_76"/>
      <feBlend mode="normal" in="SourceGraphic" in2="effect1_dropShadow_22057_76" result="shape"/>
    </filter>
    <filter id="filter10_d_22057_76" x="75.1016" y="45.5698" width="26.957" height="31.9353" filterUnits="userSpaceOnUse" color-interpolation-filters="sRGB">
      <feFlood flood-opacity="0" result="BackgroundImageFix"/>
      <feColorMatrix in="SourceAlpha" type="matrix" values="0 0 0 0 0 0 0 0 0 0 0 0 0 0 0 0 0 0 127 0" result="hardAlpha"/>
      <feOffset dy="3.73266"/>
      <feComposite in2="hardAlpha" operator="out"/>
      <feColorMatrix type="matrix" values="0 0 0 0 0 0 0 0 0 0 0 0 0 0 0 0 0 0 0.25 0"/>
      <feBlend mode="normal" in2="BackgroundImageFix" result="effect1_dropShadow_22057_76"/>
      <feBlend mode="normal" in="SourceGraphic" in2="effect1_dropShadow_22057_76" result="shape"/>
    </filter>
    <filter id="filter11_d_22057_76" x="196.613" y="11.0669" width="38.5703" height="69.8396" filterUnits="userSpaceOnUse" color-interpolation-filters="sRGB">
      <feFlood flood-opacity="0" result="BackgroundImageFix"/>
      <feColorMatrix in="SourceAlpha" type="matrix" values="0 0 0 0 0 0 0 0 0 0 0 0 0 0 0 0 0 0 127 0" result="hardAlpha"/>
      <feOffset dy="3.73266"/>
      <feComposite in2="hardAlpha" operator="out"/>
      <feColorMatrix type="matrix" values="0 0 0 0 0 0 0 0 0 0 0 0 0 0 0 0 0 0 0.25 0"/>
      <feBlend mode="normal" in2="BackgroundImageFix" result="effect1_dropShadow_22057_76"/>
      <feBlend mode="normal" in="SourceGraphic" in2="effect1_dropShadow_22057_76" result="shape"/>
    </filter>
    <filter id="filter12_d_22057_76" x="199.918" y="0.79248" width="31.9727" height="58.0901" filterUnits="userSpaceOnUse" color-interpolation-filters="sRGB">
      <feFlood flood-opacity="0" result="BackgroundImageFix"/>
      <feColorMatrix in="SourceAlpha" type="matrix" values="0 0 0 0 0 0 0 0 0 0 0 0 0 0 0 0 0 0 127 0" result="hardAlpha"/>
      <feOffset dy="3.73266"/>
      <feComposite in2="hardAlpha" operator="out"/>
      <feColorMatrix type="matrix" values="0 0 0 0 0 0 0 0 0 0 0 0 0 0 0 0 0 0 0.25 0"/>
      <feBlend mode="normal" in2="BackgroundImageFix" result="effect1_dropShadow_22057_76"/>
      <feBlend mode="normal" in="SourceGraphic" in2="effect1_dropShadow_22057_76" result="shape"/>
    </filter>
    <linearGradient id="paint0_linear_22057_76" x1="196.98" y1="70.1612" x2="196.98" y2="127.17" gradientUnits="userSpaceOnUse">
      <stop stop-color="#82BCDC"/>
      <stop offset="1" stop-color="#E9EEF7"/>
    </linearGradient>
    <linearGradient id="paint1_linear_22057_76" x1="197.82" y1="251.58" x2="197.82" y2="480.175" gradientUnits="userSpaceOnUse">
      <stop stop-color="#E9EEF7"/>
      <stop offset="0.6" stop-color="#B2DFFF"/>
      <stop offset="1" stop-color="#76AFCF"/>
    </linearGradient>
  </defs>
</svg>
