<svg width="428" height="289" viewBox="0 0 428 289" fill="none" xmlns="http://www.w3.org/2000/svg">
  <ellipse cx="49.5" cy="232.886" rx="49.5" ry="10.5" fill="black" fill-opacity="0.2"/>
  <path d="M52.7306 205.364C57.6895 206.282 57.0926 211.409 56.1743 213.858C56.1743 215.312 54.1999 218.266 46.3025 218.449C38.4051 218.633 39.3387 212.251 40.7927 209.037C42.7058 207.43 47.7718 204.445 52.7306 205.364Z" fill="#999999" stroke="black" stroke-linecap="round" stroke-linejoin="round"/>
  <path d="M52.7306 205.364C57.6895 206.282 57.0926 211.409 56.1743 213.858C54.4624 209.037 50.127 209.037 40.7927 209.037C42.7058 207.43 47.7718 204.445 52.7306 205.364Z" fill="#D9D9D9" stroke="black" stroke-linecap="round" stroke-linejoin="round"/>
  <path d="M62.398 208.448C57.405 209.373 51.7299 215.054 52.6545 217.519C52.6545 218.983 60.9186 221.439 68.8703 221.624C76.8221 221.809 75.8821 215.383 74.4181 212.147C72.4918 210.529 67.391 207.524 62.398 208.448Z" fill="#999999" stroke="black" stroke-linecap="round" stroke-linejoin="round"/>
  <path d="M62.3963 208.449C57.4033 209.373 57.8028 212.384 62.9241 214.952C70.1284 220.088 67.3684 214.656 74.4164 212.147C72.4901 210.529 67.3892 207.524 62.3963 208.449Z" fill="#D9D9D9" stroke="black" stroke-linecap="round" stroke-linejoin="round"/>
  <path d="M24.5079 205.456C16.8716 206.871 17.7908 214.766 19.2049 218.537C19.2049 220.776 22.2453 225.325 34.4069 225.608C46.5685 225.891 45.1308 216.062 42.8917 211.113C39.9456 208.638 32.1443 204.042 24.5079 205.456Z" fill="#999999" stroke="black" stroke-linecap="round" stroke-linejoin="round"/>
  <path d="M24.5079 205.456C16.8716 206.871 17.7908 214.766 19.2049 218.537C21.8411 211.113 28.5174 211.113 42.8917 211.113C39.9456 208.638 32.1443 204.042 24.5079 205.456Z" fill="#D9D9D9" stroke="black" stroke-linecap="round" stroke-linejoin="round"/>
  <path d="M15.2618 215.73C7.62546 217.144 8.54466 225.04 9.9588 228.811C9.9588 231.05 12.9992 235.599 25.1608 235.881C37.3224 236.164 35.8847 226.336 33.6456 221.387C30.6995 218.912 22.8982 214.316 15.2618 215.73Z" fill="#999999" stroke="black" stroke-linecap="round" stroke-linejoin="round"/>
  <path d="M15.2618 215.73C7.62546 217.144 8.54466 225.04 9.9588 228.811C14.4369 229.989 25.4436 230.155 33.6456 221.387C30.6995 218.912 22.8982 214.316 15.2618 215.73Z" fill="#D9D9D9" stroke="black" stroke-linecap="round" stroke-linejoin="round"/>
  <rect x="35.3745" y="211.832" width="8.43989" height="38.7585" rx="4.21994" transform="rotate(-55.6891 35.3745 211.832)" fill="#B27D7D" stroke="black"/>
  <rect x="-0.694837" y="-0.131154" width="8.43989" height="38.7585" rx="4.21994" transform="matrix(-0.563683 -0.825991 -0.825991 0.563683 67.5356 210.305)" fill="#A05A5A" stroke="black"/>
  <path d="M76.7904 216.492C73.9144 217.314 68.7445 222.313 66.519 224.709C65.028 226.251 66.519 236.007 74.7361 236.007C81.3098 236.007 86.377 234.98 88.0889 234.467C89.116 232.584 90.8621 227.996 89.6296 224.709C88.0889 220.601 80.3854 215.465 76.7904 216.492Z" fill="#999999" stroke="black" stroke-linecap="round" stroke-linejoin="round"/>
  <path d="M76.7909 216.492C73.9149 217.314 68.745 222.312 66.5195 224.709L76.7909 228.304L89.63 224.709C88.0893 220.601 80.3858 215.465 76.7909 216.492Z" fill="#D9D9D9" stroke="black" stroke-linecap="round" stroke-linejoin="round"/>
  <path d="M55.3204 222.921C47.6841 224.335 48.6033 232.231 50.0174 236.002C50.0174 238.241 53.0578 242.789 65.2194 243.072C77.381 243.355 75.9433 233.527 73.7042 228.577C70.7581 226.103 62.9568 221.507 55.3204 222.921Z" fill="#999999" stroke="black" stroke-linecap="round" stroke-linejoin="round"/>
  <path d="M55.3204 222.921C47.6841 224.335 48.6033 232.231 50.0174 236.002C52.6536 228.577 59.3299 228.577 73.7042 228.577C70.7581 226.103 62.9568 221.507 55.3204 222.921Z" fill="#D9D9D9" stroke="black" stroke-linecap="round" stroke-linejoin="round"/>
  <path d="M32.7228 222.921C25.0864 224.335 26.0056 232.231 27.4197 236.002C27.4197 238.241 30.4601 242.789 42.6217 243.072C54.7833 243.355 53.3456 233.527 51.1066 228.577C48.1605 226.103 40.3591 221.507 32.7228 222.921Z" fill="#999999" stroke="black" stroke-linecap="round" stroke-linejoin="round"/>
  <path d="M32.7228 222.921C25.0864 224.335 26.0056 232.231 27.4197 236.002C31.8978 237.18 40.3272 232.414 51.1066 228.577C48.1605 226.103 40.3591 221.507 32.7228 222.921Z" fill="#D9D9D9" stroke="black" stroke-linecap="round" stroke-linejoin="round"/>
  <mask id="path-18-inside-1_22057_76" fill="white">
    <path fill-rule="evenodd" clip-rule="evenodd" d="M64.5895 180.662C66.3381 179.671 67.2411 177.895 67.1722 174.326C75.9994 181.301 67.5281 215.76 44.3868 208.708C39.7278 207.557 35.7132 204.609 33.2187 200.509C30.7243 196.409 29.9524 191.489 31.0715 186.822C32.2662 182.994 34.8683 179.762 38.3528 177.777C37.093 180.677 37.4443 183.864 38.9721 185.861C39.6971 183.522 41.0376 181.37 44.9799 181.079C43.8477 183.405 44.2969 185.478 45.057 187.478C48.0875 186.28 47.8493 182.451 47.5676 177.925C47.1689 171.517 46.6832 163.711 55.2649 160C53.8978 167.946 58.0618 172.872 62.2262 177.798C63.0271 178.745 63.8279 179.693 64.5895 180.662Z"/>
  </mask>
  <path fill-rule="evenodd" clip-rule="evenodd" d="M64.5895 180.662C66.3381 179.671 67.2411 177.895 67.1722 174.326C75.9994 181.301 67.5281 215.76 44.3868 208.708C39.7278 207.557 35.7132 204.609 33.2187 200.509C30.7243 196.409 29.9524 191.489 31.0715 186.822C32.2662 182.994 34.8683 179.762 38.3528 177.777C37.093 180.677 37.4443 183.864 38.9721 185.861C39.6971 183.522 41.0376 181.37 44.9799 181.079C43.8477 183.405 44.2969 185.478 45.057 187.478C48.0875 186.28 47.8493 182.451 47.5676 177.925C47.1689 171.517 46.6832 163.711 55.2649 160C53.8978 167.946 58.0618 172.872 62.2262 177.798C63.0271 178.745 63.8279 179.693 64.5895 180.662Z" fill="#FF6242"/>
  <path d="M67.1722 174.326L67.7922 173.541L66.1316 172.229L66.1724 174.345L67.1722 174.326ZM64.5895 180.662L63.8033 181.28L64.3346 181.956L65.0826 181.532L64.5895 180.662ZM44.3868 208.708L44.6783 207.752L44.6528 207.744L44.6268 207.738L44.3868 208.708ZM33.2187 200.509L34.073 199.99H34.073L33.2187 200.509ZM31.0715 186.822L30.1169 186.524L30.1069 186.556L30.099 186.589L31.0715 186.822ZM38.3528 177.777L39.27 178.175L40.4661 175.422L37.8579 176.908L38.3528 177.777ZM38.9721 185.861L38.1778 186.469L39.354 188.006L39.9273 186.157L38.9721 185.861ZM44.9799 181.079L45.879 181.516L46.6398 179.953L44.9061 180.081L44.9799 181.079ZM45.057 187.478L44.1223 187.833L44.4823 188.78L45.4246 188.408L45.057 187.478ZM47.5676 177.925L48.5657 177.863L47.5676 177.925ZM55.2649 160L56.2504 160.17L56.5637 158.349L54.868 159.082L55.2649 160ZM62.2262 177.798L62.9899 177.153L62.2262 177.798ZM66.1724 174.345C66.2054 176.055 66.0016 177.233 65.6437 178.066C65.2988 178.868 64.7912 179.398 64.0964 179.792L65.0826 181.532C66.1364 180.935 66.9546 180.081 67.4812 178.856C67.9947 177.661 68.2079 176.166 68.172 174.306L66.1724 174.345ZM44.0953 209.665C50.1411 211.507 55.3037 210.648 59.4658 208.149C63.5973 205.669 66.6669 201.62 68.6782 197.19C70.6905 192.758 71.6788 187.87 71.59 183.611C71.5023 179.41 70.3537 175.565 67.7922 173.541L66.5522 175.11C68.4043 176.574 69.507 179.652 69.5904 183.653C69.6727 187.597 68.7519 192.19 66.8571 196.364C64.9614 200.539 62.1258 204.219 58.4363 206.435C54.7775 208.631 50.2032 209.435 44.6783 207.752L44.0953 209.665ZM32.3644 201.029C34.9961 205.355 39.2315 208.464 44.1469 209.679L44.6268 207.738C40.224 206.649 36.4303 203.864 34.073 199.99L32.3644 201.029ZM30.099 186.589C28.9184 191.513 29.7327 196.703 32.3644 201.029L34.073 199.99C31.7158 196.115 30.9864 191.465 32.0439 187.055L30.099 186.589ZM37.8579 176.908C34.1534 179.018 31.387 182.454 30.1169 186.524L32.0261 187.12C33.1453 183.534 35.5832 180.505 38.8478 178.646L37.8579 176.908ZM39.7664 185.254C38.4915 183.587 38.1321 180.794 39.27 178.175L37.4357 177.378C36.0538 180.559 36.3971 184.141 38.1778 186.469L39.7664 185.254ZM39.9273 186.157C40.2671 185.061 40.7174 184.126 41.4558 183.43C42.1766 182.749 43.2657 182.208 45.0536 182.076L44.9061 180.081C42.7517 180.241 41.1995 180.921 40.0832 181.975C38.9846 183.012 38.4021 184.322 38.0169 185.565L39.9273 186.157ZM44.0807 180.641C42.7684 183.338 43.326 185.739 44.1223 187.833L45.9917 187.123C45.2678 185.218 44.927 183.472 45.879 181.516L44.0807 180.641ZM46.5695 177.987C46.7128 180.29 46.8289 182.248 46.5685 183.782C46.3174 185.261 45.7587 186.125 44.6895 186.548L45.4246 188.408C47.3858 187.633 48.2233 185.984 48.5403 184.117C48.8479 182.305 48.704 180.086 48.5657 177.863L46.5695 177.987ZM54.868 159.082C50.2849 161.064 48.0638 164.191 47.0857 167.681C46.1305 171.089 46.3723 174.817 46.5695 177.987L48.5657 177.863C48.3642 174.624 48.1637 171.246 49.0115 168.221C49.8362 165.278 51.6632 162.647 55.6618 160.918L54.868 159.082ZM62.9899 177.153C58.8007 172.197 54.9708 167.607 56.2504 160.17L54.2794 159.83C52.8248 168.285 57.3229 173.547 61.4625 178.444L62.9899 177.153ZM65.3757 180.044C64.6013 179.059 63.7888 178.098 62.9899 177.153L61.4625 178.444C62.2653 179.393 63.0546 180.327 63.8033 181.28L65.3757 180.044Z" fill="black" mask="url(#path-18-inside-1_22057_76)"/>
  <path d="M52.2879 199.193C54.4788 198.321 56.3824 196.799 57.7847 194.819C59.3985 197.671 58.8064 200.402 57.1408 202.265C55.3292 204.291 52.2292 205.31 49.1835 204.297C48.1389 203.933 47.2132 203.239 46.5289 202.299C45.9792 201.544 45.6063 200.658 45.4397 199.717C47.7176 200.245 50.094 200.065 52.2879 199.193Z" fill="#FFE500" stroke="black"/>
  <ellipse cx="216" cy="236.132" rx="116" ry="16" fill="black" fill-opacity="0.2"/>
  <mask id="path-22-outside-2_22057_76" maskUnits="userSpaceOnUse" x="165.863" y="110.495" width="174" height="129" fill="black">
    <rect fill="white" x="165.863" y="110.495" width="174" height="129"/>
    <path fill-rule="evenodd" clip-rule="evenodd" d="M281.914 113.907C279.319 111.75 275.466 112.105 273.308 114.7L216.959 182.483L201.203 170.872C198.486 168.87 194.661 169.45 192.659 172.167C190.656 174.884 191.236 178.709 193.953 180.712L209.132 191.897L208.465 192.701L173.963 192.767C170.588 192.773 167.857 195.515 167.863 198.89C167.87 202.265 170.611 204.996 173.986 204.989L198.288 204.942L186.026 219.692C183.868 222.288 184.223 226.141 186.819 228.298C189.414 230.456 193.267 230.101 195.425 227.506L214.18 204.945L226.806 204.921L243.753 217.409L235.593 227.225C233.436 229.821 233.791 233.674 236.386 235.831C238.981 237.989 242.834 237.634 244.992 235.039L253.61 224.672L259.133 228.742C261.85 230.745 265.675 230.165 267.678 227.448C269.68 224.731 269.1 220.905 266.383 218.903L261.436 215.258L270.153 204.772L309.079 231.337C311.867 233.239 315.669 232.521 317.572 229.734C319.474 226.946 318.757 223.144 315.969 221.241L305.402 214.03L297.425 173.74C297.337 173.293 297.19 172.873 296.993 172.486L336.441 125.034C338.599 122.439 338.244 118.586 335.649 116.428C333.053 114.27 329.2 114.625 327.043 117.221L326.332 118.076C325.986 117.755 325.521 117.551 324.977 117.551H284.027C283.786 116.174 283.074 114.871 281.914 113.907ZM294.015 206.259L289.187 181.876L278.002 195.331L294.015 206.259ZM254.179 204.868L247.355 204.881L251.58 207.995L254.179 204.868Z"/>
  </mask>
  <path fill-rule="evenodd" clip-rule="evenodd" d="M281.914 113.907C279.319 111.75 275.466 112.105 273.308 114.7L216.959 182.483L201.203 170.872C198.486 168.87 194.661 169.45 192.659 172.167C190.656 174.884 191.236 178.709 193.953 180.712L209.132 191.897L208.465 192.701L173.963 192.767C170.588 192.773 167.857 195.515 167.863 198.89C167.87 202.265 170.611 204.996 173.986 204.989L198.288 204.942L186.026 219.692C183.868 222.288 184.223 226.141 186.819 228.298C189.414 230.456 193.267 230.101 195.425 227.506L214.18 204.945L226.806 204.921L243.753 217.409L235.593 227.225C233.436 229.821 233.791 233.674 236.386 235.831C238.981 237.989 242.834 237.634 244.992 235.039L253.61 224.672L259.133 228.742C261.85 230.745 265.675 230.165 267.678 227.448C269.68 224.731 269.1 220.905 266.383 218.903L261.436 215.258L270.153 204.772L309.079 231.337C311.867 233.239 315.669 232.521 317.572 229.734C319.474 226.946 318.757 223.144 315.969 221.241L305.402 214.03L297.425 173.74C297.337 173.293 297.19 172.873 296.993 172.486L336.441 125.034C338.599 122.439 338.244 118.586 335.649 116.428C333.053 114.27 329.2 114.625 327.043 117.221L326.332 118.076C325.986 117.755 325.521 117.551 324.977 117.551H284.027C283.786 116.174 283.074 114.871 281.914 113.907ZM294.015 206.259L289.187 181.876L278.002 195.331L294.015 206.259ZM254.179 204.868L247.355 204.881L251.58 207.995L254.179 204.868Z" fill="#CED2A0"/>
  <path d="M273.308 114.7L274.846 115.979V115.979L273.308 114.7ZM281.914 113.907L283.193 112.369V112.369L281.914 113.907ZM216.959 182.483L215.773 184.093L217.291 185.212L218.497 183.761L216.959 182.483ZM201.203 170.872L200.017 172.482L201.203 170.872ZM193.953 180.712L192.766 182.322H192.766L193.953 180.712ZM209.132 191.897L210.67 193.176L212.026 191.545L210.319 190.287L209.132 191.897ZM208.465 192.701L208.468 194.701L209.404 194.699L210.003 193.979L208.465 192.701ZM173.963 192.767L173.967 194.767H173.967L173.963 192.767ZM167.863 198.89L165.863 198.893L167.863 198.89ZM173.986 204.989L173.99 206.989L173.986 204.989ZM198.288 204.942L199.826 206.221L202.558 202.934L198.284 202.942L198.288 204.942ZM186.026 219.692L184.488 218.414L186.026 219.692ZM186.819 228.298L185.54 229.836H185.54L186.819 228.298ZM195.425 227.506L196.963 228.784H196.963L195.425 227.506ZM214.18 204.945L214.176 202.945L213.24 202.947L212.642 203.666L214.18 204.945ZM226.806 204.921L227.992 203.311L227.461 202.919L226.802 202.921L226.806 204.921ZM243.753 217.409L245.291 218.688L246.647 217.057L244.94 215.799L243.753 217.409ZM235.593 227.225L234.055 225.947L235.593 227.225ZM236.386 235.831L237.665 234.293L236.386 235.831ZM244.992 235.039L243.454 233.76L244.992 235.039ZM253.61 224.672L254.796 223.062L253.277 221.943L252.072 223.394L253.61 224.672ZM259.133 228.742L260.319 227.132H260.319L259.133 228.742ZM267.678 227.448L269.288 228.635V228.635L267.678 227.448ZM266.383 218.903L267.57 217.293H267.57L266.383 218.903ZM261.436 215.258L259.898 213.979L258.543 215.61L260.25 216.868L261.436 215.258ZM270.153 204.772L271.28 203.12L269.778 202.095L268.615 203.494L270.153 204.772ZM309.079 231.337L310.207 229.685L309.079 231.337ZM317.572 229.734L315.92 228.606H315.92L317.572 229.734ZM315.969 221.241L317.096 219.589L315.969 221.241ZM305.402 214.03L303.44 214.418L303.599 215.221L304.275 215.682L305.402 214.03ZM297.425 173.74L295.463 174.128V174.128L297.425 173.74ZM296.993 172.486L295.455 171.208L294.614 172.22L295.21 173.392L296.993 172.486ZM336.441 125.034L334.903 123.755V123.755L336.441 125.034ZM335.649 116.428L334.37 117.966V117.966L335.649 116.428ZM327.043 117.221L325.505 115.942V115.942L327.043 117.221ZM326.332 118.076L324.971 119.542L326.519 120.979L327.87 119.354L326.332 118.076ZM284.027 117.551L282.057 117.896L282.346 119.551H284.027V117.551ZM294.015 206.259L292.887 207.911L296.926 210.667L295.976 205.871L294.015 206.259ZM289.187 181.876L291.149 181.488L290.334 177.368L287.649 180.597L289.187 181.876ZM278.002 195.331L276.464 194.053L275.058 195.744L276.874 196.983L278.002 195.331ZM247.355 204.881L247.351 202.881L241.285 202.893L246.169 206.491L247.355 204.881ZM254.179 204.868L255.717 206.147L258.45 202.86L254.175 202.868L254.179 204.868ZM251.58 207.995L250.394 209.605L251.912 210.724L253.118 209.273L251.58 207.995ZM274.846 115.979C276.298 114.233 278.89 113.994 280.636 115.445L283.193 112.369C279.748 109.506 274.634 109.977 271.77 113.422L274.846 115.979ZM218.497 183.761L274.846 115.979L271.77 113.422L215.421 181.204L218.497 183.761ZM200.017 172.482L215.773 184.093L218.146 180.872L202.39 169.262L200.017 172.482ZM194.269 173.353C195.616 171.525 198.189 171.135 200.017 172.482L202.39 169.262C198.784 166.605 193.706 167.374 191.048 170.98L194.269 173.353ZM195.139 179.101C193.311 177.755 192.922 175.181 194.269 173.353L191.048 170.98C188.391 174.586 189.16 179.664 192.766 182.322L195.139 179.101ZM210.319 190.287L195.139 179.101L192.766 182.322L207.946 193.507L210.319 190.287ZM210.003 193.979L210.67 193.176L207.595 190.619L206.927 191.422L210.003 193.979ZM173.967 194.767L208.468 194.701L208.461 190.701L173.959 190.767L173.967 194.767ZM169.863 198.886C169.859 196.615 171.696 194.771 173.967 194.767L173.959 190.767C169.479 190.775 165.855 194.414 165.863 198.893L169.863 198.886ZM173.982 202.989C171.712 202.993 169.868 201.156 169.863 198.886L165.863 198.893C165.872 203.373 169.51 206.998 173.99 206.989L173.982 202.989ZM198.284 202.942L173.982 202.989L173.99 206.989L198.292 206.942L198.284 202.942ZM187.564 220.971L199.826 206.221L196.75 203.664L184.488 218.414L187.564 220.971ZM188.097 226.76C186.351 225.309 186.112 222.717 187.564 220.971L184.488 218.414C181.624 221.859 182.095 226.973 185.54 229.836L188.097 226.76ZM193.887 226.227C192.435 227.973 189.843 228.212 188.097 226.76L185.54 229.836C188.985 232.7 194.099 232.229 196.963 228.784L193.887 226.227ZM212.642 203.666L193.887 226.227L196.963 228.784L215.718 206.223L212.642 203.666ZM226.802 202.921L214.176 202.945L214.184 206.945L226.81 206.921L226.802 202.921ZM244.94 215.799L227.992 203.311L225.619 206.531L242.567 219.02L244.94 215.799ZM237.131 228.504L245.291 218.688L242.215 216.131L234.055 225.947L237.131 228.504ZM237.665 234.293C235.919 232.842 235.68 230.25 237.131 228.504L234.055 225.947C231.192 229.391 231.663 234.505 235.108 237.369L237.665 234.293ZM243.454 233.76C242.003 235.506 239.411 235.745 237.665 234.293L235.108 237.369C238.552 240.233 243.666 239.762 246.53 236.317L243.454 233.76ZM252.072 223.394L243.454 233.76L246.53 236.317L255.148 225.951L252.072 223.394ZM260.319 227.132L254.796 223.062L252.423 226.283L257.946 230.353L260.319 227.132ZM266.068 226.262C264.721 228.09 262.147 228.479 260.319 227.132L257.946 230.353C261.553 233.01 266.63 232.241 269.288 228.635L266.068 226.262ZM265.197 220.513C267.025 221.86 267.415 224.434 266.068 226.262L269.288 228.635C271.945 225.028 271.176 219.951 267.57 217.293L265.197 220.513ZM260.25 216.868L265.197 220.513L267.57 217.293L262.623 213.648L260.25 216.868ZM268.615 203.494L259.898 213.979L262.974 216.536L271.691 206.051L268.615 203.494ZM310.207 229.685L271.28 203.12L269.026 206.424L307.952 232.989L310.207 229.685ZM315.92 228.606C314.64 230.482 312.082 230.965 310.207 229.685L307.952 232.989C311.652 235.514 316.699 234.561 319.224 230.861L315.92 228.606ZM314.841 222.893C316.717 224.173 317.2 226.731 315.92 228.606L319.224 230.861C321.749 227.161 320.796 222.114 317.096 219.589L314.841 222.893ZM304.275 215.682L314.841 222.893L317.096 219.589L306.529 212.378L304.275 215.682ZM295.463 174.128L303.44 214.418L307.364 213.642L299.387 173.351L295.463 174.128ZM295.21 173.392C295.324 173.617 295.411 173.863 295.463 174.128L299.387 173.351C299.263 172.723 299.055 172.129 298.776 171.58L295.21 173.392ZM334.903 123.755L295.455 171.208L298.531 173.765L337.979 126.312L334.903 123.755ZM334.37 117.966C336.116 119.417 336.355 122.009 334.903 123.755L337.979 126.312C340.843 122.868 340.372 117.754 336.927 114.89L334.37 117.966ZM328.581 118.499C330.032 116.753 332.624 116.514 334.37 117.966L336.927 114.89C333.482 112.026 328.368 112.497 325.505 115.942L328.581 118.499ZM327.87 119.354L328.581 118.499L325.505 115.942L324.794 116.797L327.87 119.354ZM324.977 119.551C324.982 119.551 324.986 119.551 324.988 119.552C324.991 119.552 324.992 119.552 324.992 119.552C324.992 119.552 324.991 119.552 324.99 119.551C324.989 119.551 324.987 119.551 324.985 119.55C324.982 119.548 324.978 119.547 324.976 119.545C324.973 119.543 324.971 119.542 324.971 119.542L327.692 116.61C326.991 115.959 326.044 115.551 324.977 115.551V119.551ZM284.027 119.551H324.977V115.551H284.027V119.551ZM280.636 115.445C281.417 116.095 281.895 116.968 282.057 117.896L285.997 117.207C285.677 115.379 284.73 113.648 283.193 112.369L280.636 115.445ZM295.976 205.871L291.149 181.488L287.225 182.264L292.053 206.647L295.976 205.871ZM287.649 180.597L276.464 194.053L279.54 196.61L290.725 183.154L287.649 180.597ZM276.874 196.983L292.887 207.911L295.142 204.607L279.129 193.679L276.874 196.983ZM247.359 206.881L254.183 206.868L254.175 202.868L247.351 202.881L247.359 206.881ZM252.767 206.385L248.542 203.271L246.169 206.491L250.394 209.605L252.767 206.385ZM252.641 203.59L250.042 206.716L253.118 209.273L255.717 206.147L252.641 203.59Z" fill="black" mask="url(#path-22-outside-2_22057_76)"/>
  <rect x="277.28" y="110.705" width="11.2222" height="147.756" rx="5.61112" transform="rotate(39.7375 277.28 110.705)" fill="#CED2A0" stroke="black"/>
  <rect x="189.73" y="176.98" width="11.2222" height="92.1876" rx="5.61112" transform="rotate(-53.6135 189.73 176.98)" fill="#CED2A0" stroke="black"/>
  <path d="M277.656 118.576C277.941 118.243 278.357 118.051 278.796 118.051H324.975C326.222 118.051 326.924 119.483 326.162 120.469L266.406 197.753C266.092 198.159 265.593 198.377 265.082 198.33L216.402 193.857C215.191 193.745 214.609 192.313 215.4 191.388L277.656 118.576Z" fill="#DF8365" stroke="black" stroke-linejoin="round"/>
  <rect x="287.595" y="171.271" width="8.66136" height="50.9391" rx="4.33068" transform="rotate(-11.1984 287.595 171.271)" fill="#CED2A0" stroke="black"/>
  <rect x="331.014" y="113.225" width="11.2222" height="154.275" rx="5.61112" transform="rotate(39.7375 331.014 113.225)" fill="#CED2A0" stroke="black"/>
  <rect x="168.374" y="204.5" width="11.2222" height="69.6506" rx="5.61112" transform="rotate(-90.1098 168.374 204.5)" fill="#CED2A0" stroke="black"/>
  <rect x="171.508" y="201.501" width="6" height="51" rx="3" transform="rotate(-90 171.508 201.501)" fill="#FFD891" stroke="black" stroke-linejoin="round"/>
  <rect x="197.515" y="204.477" width="11.2222" height="72.5082" rx="5.61112" transform="rotate(-90.1098 197.515 204.477)" fill="#CED2A0" stroke="black"/>
  <rect x="236.859" y="181.447" width="11.2222" height="93.3847" rx="5.61112" transform="rotate(-55.6891 236.859 181.447)" fill="#CED2A0" stroke="black"/>
  <path d="M249.34 37.9024C244.988 37.0317 239.332 42.396 238.923 44.0299C237.902 48.3191 240.272 54.9361 248.115 54.4459C257.918 53.8332 258.53 39.7408 249.34 37.9024Z" fill="#725D41" stroke="black" stroke-linecap="round" stroke-linejoin="round"/>
  <path d="M197.66 33.0958C202.012 32.2251 207.668 37.5894 208.077 39.2233C209.098 43.5124 206.728 50.1294 198.885 49.6392C189.082 49.0265 188.47 34.9341 197.66 33.0958Z" fill="#725D41" stroke="black" stroke-linecap="round" stroke-linejoin="round"/>
  <path d="M121.533 163.34C129.715 154.137 146.995 147.258 154.7 145.368C178.057 148.703 179.908 186.071 174.929 187.168C131.817 196.665 142.698 221.448 133.991 219.893C126.745 218.598 97.5831 209.989 101.712 205.032C105.015 201.066 112.011 197.366 115.245 198.003C120.843 194.457 113.352 172.543 121.533 163.34Z" fill="#725D41" stroke="black" stroke-linecap="round" stroke-linejoin="round"/>
  <path d="M115.743 120.006C127.631 109.576 153.603 116.491 191.492 87.9116C192.543 87.1185 194.087 87.5029 194.51 88.7502C200.177 105.468 193.675 125.95 172.751 134.099C150.794 142.65 140.89 142.677 122.03 137.936C120.774 140.839 121.266 142.252 118.832 143.902C115.474 146.179 100.611 133.282 115.743 120.006Z" fill="#725D41"/>
  <path d="M123.734 132.874C122.565 135.743 122.03 137.936 122.03 137.936M122.03 137.936C120.774 140.839 121.266 142.252 118.832 143.902C115.474 146.179 100.611 133.282 115.743 120.006C127.631 109.576 153.603 116.491 191.492 87.9116C192.543 87.1185 194.087 87.5029 194.51 88.7502C200.177 105.468 193.675 125.95 172.751 134.099C150.794 142.65 140.89 142.677 122.03 137.936Z" stroke="black"/>
  <path d="M270.175 108.365C267.234 93.1696 254.858 78.3419 249.955 58.1222L192.973 78.3419C192.973 109.59 151.364 125.104 148.502 148.001C147.002 160.001 151.002 163.501 151.002 163.501C136.502 178.001 144.502 205.001 139.502 205.001C137.216 205.001 128.043 205.459 125.002 208.501C118.502 215.001 155.501 236.501 160.002 230.501C163.602 225.701 179.612 202.443 192.973 196.001C203.389 190.978 216.166 197.523 249.955 192.501C270.688 189.419 273.852 127.359 270.175 108.365Z" fill="#725D41"/>
  <path d="M176.002 152.501C167.002 152.501 156.502 158.001 151.002 163.501M151.002 163.501C136.502 178.001 144.502 205.001 139.502 205.001C137.216 205.001 128.043 205.459 125.002 208.501C118.502 215.001 155.501 236.501 160.002 230.501C163.602 225.701 179.612 202.443 192.973 196.001C203.389 190.978 216.166 197.523 249.955 192.501C270.688 189.419 273.852 127.359 270.175 108.365C267.234 93.1696 254.858 78.3419 249.955 58.1222L192.973 78.3419C192.973 109.59 151.364 125.104 148.502 148.001C147.002 160.001 151.002 163.501 151.002 163.501Z" stroke="black" stroke-linecap="round" stroke-linejoin="round"/>
  <path d="M248.729 69.7639C244.404 75.5302 211.855 79.6085 194.028 83.0378C193.362 83.1658 192.82 83.6216 192.569 84.2508C189.245 92.5817 183.319 107.691 181.362 115.108C180.954 116.655 182.44 117.508 183.745 116.583C209.031 98.646 248.729 80.3595 248.729 69.7639Z" fill="#B5966E" stroke="black"/>
  <path d="M199.712 38.5153C190.889 42.4367 185.62 55.6716 184.395 66.0878C189.909 85.082 194.198 91.8219 226.672 83.2439C259.146 74.6658 251.181 58.1225 243.828 46.4809C236.475 34.8392 210.741 33.6136 199.712 38.5153Z" fill="#725D41" stroke="black" stroke-linecap="round" stroke-linejoin="round"/>
  <path d="M214.529 52.6885C214.466 54.9379 216.239 56.8121 218.488 56.8747C220.738 56.9373 222.612 55.1645 222.675 52.9151C222.737 50.6658 221.091 51.9597 218.842 51.8971C216.592 51.8345 214.591 50.4391 214.529 52.6885Z" fill="black"/>
  <path d="M192.47 51.463C192.408 53.7124 194.18 55.5866 196.43 55.6492C198.679 55.7118 200.553 53.9391 200.616 51.6897C200.679 49.4403 199.033 50.7342 196.783 50.6716C194.534 50.6091 192.533 49.2136 192.47 51.463Z" fill="black"/>
  <circle cx="193.582" cy="51.3824" r="8.07804" fill="white" fill-opacity="0.21" stroke="black"/>
  <path d="M205.913 50.2866C203.003 50.7716 192.057 55.095 181.737 61.1203C181.517 61.2488 181.315 61.4292 181.163 61.6344C171.375 74.9205 195.579 82.7463 205.913 80.9227C216.329 79.0845 213.878 71.7317 213.265 61.3155C212.653 50.8993 209.589 49.6739 205.913 50.2866Z" fill="#B5966E" stroke="black"/>
  <path d="M181.443 62.492C181.38 64.7413 183.153 66.6156 185.402 66.6782C187.652 66.7408 189.526 64.968 189.589 62.7186C189.651 60.4692 188.005 61.7632 185.756 61.7006C183.506 61.638 181.505 60.2426 181.443 62.492Z" fill="black"/>
  <circle cx="216.866" cy="52.6078" r="9.30347" fill="white" fill-opacity="0.21" stroke="black"/>
  <path d="M109.805 108.741L105.516 111.192L120.221 133.862L158.209 123.446L158.822 110.579L157.597 107.515L156.371 104.452C138.725 104.452 122.059 116.706 120.221 120.995C118.75 115.603 115.932 113.643 109.805 108.741Z" fill="white"/>
  <path d="M133.701 114.255C137.581 111.6 147.793 106.535 157.597 107.515M157.597 107.515L156.371 104.452C138.725 104.452 122.059 116.706 120.221 120.995C118.75 115.603 115.932 113.643 109.805 108.741L105.516 111.192L120.221 133.862L158.209 123.446L158.822 110.579L157.597 107.515Z" stroke="black"/>
  <path d="M159.045 109.698L123.163 122.051C122.855 122.157 122.617 122.408 122.527 122.722L121.652 125.784C121.53 126.214 121.137 126.51 120.691 126.51H116.931C116.378 126.51 115.931 126.062 115.931 125.51V122.567C115.931 122.343 115.855 122.125 115.716 121.948L105.691 109.224C104.951 108.284 103.484 109.202 104.005 110.278L118.339 139.902C118.367 139.96 118.401 140.015 118.44 140.067L133.087 159.596H139.214L171.246 153.071C171.815 152.955 172.166 152.38 172.009 151.82L160.333 110.372C160.177 109.819 159.589 109.511 159.045 109.698Z" fill="#F5C142"/>
  <path d="M139.214 159.596L171.246 153.071C171.815 152.955 172.166 152.38 172.009 151.82L160.333 110.372C160.177 109.819 159.589 109.511 159.045 109.698L123.163 122.051C122.855 122.157 122.617 122.408 122.527 122.722L121.652 125.784C121.53 126.214 121.137 126.51 120.691 126.51H116.931C116.378 126.51 115.931 126.062 115.931 125.51V122.567C115.931 122.343 115.855 122.125 115.716 121.948L105.691 109.224C104.951 108.284 103.484 109.202 104.005 110.278L118.339 139.902C118.367 139.96 118.401 140.015 118.44 140.067L133.087 159.596M139.214 159.596H133.087M139.214 159.596L124.509 129.573M133.087 159.596L117.156 129.573" stroke="black" stroke-linejoin="round"/>
  <path d="M187.308 122.804C193.935 121.477 214.098 98.7852 233.255 87.0618C234.4 86.3611 235.871 87.0161 236.165 88.3259L244.936 127.458C245.013 127.801 244.997 128.155 244.835 128.467C243.991 130.093 240.199 135.732 225.23 144.379C202.822 157.324 200.362 149.557 173.519 149.557C156.284 149.557 151.113 146.105 156.284 137.475C161.455 128.845 178.69 124.53 187.308 122.804Z" fill="#725D41"/>
  <path d="M235.575 85.6945C215.752 96.9136 194.203 121.423 187.308 122.804C178.69 124.53 161.455 128.845 156.284 137.475C151.113 146.105 156.284 149.557 173.519 149.557C200.362 149.557 202.822 157.324 225.231 144.379C243.157 134.023 245.053 127.982 245.053 127.982" stroke="black"/>
  <path d="M150.691 140.839C151.304 139.613 155.593 137.775 158.044 137.775L157.431 139.613C155.961 139.123 153.142 140.022 150.691 140.839Z" fill="black" stroke="black" stroke-linejoin="round"/>
  <path d="M150.691 145.128C151.304 143.902 155.593 142.064 158.044 142.064L157.431 143.902C155.961 143.412 153.142 144.311 150.691 145.128Z" fill="black" stroke="black" stroke-linejoin="round"/>
  <path d="M123.594 140.962C122.61 141.809 119.091 141.899 117.605 141.041L118.895 139.664C119.542 140.603 121.7 140.811 123.594 140.962Z" fill="black" stroke="black" stroke-linejoin="round"/>
  <path d="M122.372 143.413C121.387 144.259 117.868 144.35 116.382 143.492L117.672 142.115C118.319 143.054 120.477 143.262 122.372 143.413Z" fill="black" stroke="black" stroke-linejoin="round"/>
  <path d="M152.531 147.579C154.982 147.498 156.208 147.579 158.658 146.354L159.884 147.579C158.046 148.192 154.982 148.192 152.531 147.579Z" fill="black" stroke="black" stroke-linejoin="round"/>
  <path d="M266 92.5009C271 103.668 277.6 136.501 264 178.501C247 176.168 206.5 167.101 180.5 149.501C180.333 144.168 179.1 132.001 175.5 126.001C169.5 127.601 166.333 129.001 165.5 129.501L159.5 109.001L158 109.501L157 105.501L184.5 92.5009C186.667 95.8342 194.6 102.901 209 104.501L266 92.5009Z" fill="#D73F3F"/>
  <path d="M180.5 149.501C206.5 167.101 247 176.168 264 178.501C277.6 136.501 271 103.668 266 92.5009L209 104.501M180.5 149.501C180.333 144.168 179.1 132.001 175.5 126.001M180.5 149.501C180.5 149.501 201.4 153.701 217 148.501C224.5 145.001 240.6 136.801 245 132.001M175.5 126.001C178.833 124.668 190.2 118.501 209 104.501M175.5 126.001C169.5 127.601 166.333 129.001 165.5 129.501M209 104.501C194.6 102.901 186.667 95.8342 184.5 92.5009L157 105.501L158 109.501L159.5 109.001L165.5 129.501M165.5 129.501C167.667 124.501 174.1 111.701 182.5 100.501" stroke="black" stroke-linecap="round" stroke-linejoin="round"/>
  <path d="M230.5 176.001C204.1 170.401 179.167 156.001 170 149.501C179.6 148.301 186.667 150.001 189 151.001C202 159.501 241 169.501 252 172.001C263 174.501 269 173.001 268 179.001C267 185.001 263.5 183.001 230.5 176.001Z" fill="white" stroke="black" stroke-linecap="round" stroke-linejoin="round"/>
  <path d="M269 159.501C258 159.001 230.167 151.668 218 148.001C212.8 150.801 205.167 151.501 202 151.501C213.2 160.301 249.667 167.834 266.5 170.501L269 159.501Z" fill="black" stroke="black" stroke-linecap="round" stroke-linejoin="round"/>
  <path d="M185.001 93.0009C182.601 87.8009 186.001 80.8342 188.001 78.0009C194.001 86.8009 200.834 88.0009 203.501 87.5009L197.501 102.501C194.334 101.501 187.401 98.2009 185.001 93.0009Z" fill="white" stroke="black" stroke-linecap="round" stroke-linejoin="round"/>
  <path d="M252.352 65.3802C260.202 62.2919 269.783 72.3927 270.413 83.3746C271.044 94.3564 257.993 97.1161 225.934 102.455C207.578 105.513 194.763 108.412 197.022 96.102C199.281 83.7918 216.101 79.6417 252.352 65.3802Z" fill="white" stroke="black" stroke-linecap="round" stroke-linejoin="round"/>
  <rect x="236.695" y="180.965" width="11.2222" height="93.3847" rx="5.61112" transform="rotate(-55.6891 236.695 180.965)" fill="#CED2A0" stroke="black"/>
  <path d="M109.435 197.915C101.397 200.153 96.44 203.11 94.9663 204.309C88.1337 208.049 119.483 226.686 127.923 224.289C134.676 222.37 141.455 208.838 144 202.311C135.292 196.317 122.001 184.64 117.5 184.001C112.999 183.361 112 192.001 109.435 197.915Z" fill="#D73F3F" stroke="black" stroke-linecap="round" stroke-linejoin="round"/>
  <path d="M118 179.001C115.2 179.001 114.5 183.001 114.5 185.001C124.1 188.201 133.5 196.001 137 199.501C139.833 197.168 144.5 191.901 140.5 189.501C135.5 186.501 121.5 179.001 118 179.001Z" fill="white" stroke="black" stroke-linecap="round" stroke-linejoin="round"/>
  <path d="M136.512 210.299C127.621 211.697 120.029 214.915 120.961 220.843C122.468 230.428 162.227 244.101 167.117 234.337C172.895 222.799 179.689 208.065 179.689 208.065C167.822 202.339 146.297 191.045 140.709 191.924C137.745 192.39 137.4 203.073 136.512 210.299Z" fill="#D73F3F" stroke="black" stroke-linecap="round" stroke-linejoin="round"/>
  <path d="M140.194 185.425C136.575 185.59 133.406 195.29 136.73 195.587C149.05 196.686 169.035 204.679 176.805 209.025C183.466 212.751 181.949 212.771 184.658 204.247C187.367 195.723 144.717 185.22 140.194 185.425Z" fill="white" stroke="black" stroke-linecap="round" stroke-linejoin="round"/>
  <path d="M181.999 121.001C179.599 120.601 175.778 122.001 173.499 123.501C171.22 125.001 176.5 148.501 177.499 150.001C180 153.754 184.769 153.025 187.499 152.001C191.499 150.501 184.999 121.501 181.999 121.001Z" fill="white" stroke="black" stroke-linecap="round" stroke-linejoin="round"/>
  <path d="M272.05 42.0496C270.119 38.9279 266.478 38.0499 263.349 39.3071C260.505 41.1035 258.905 43.2916 259.247 46.5408C259.59 49.7899 262.832 53.953 267.876 52.4015C272.92 50.8501 274.464 45.9518 272.05 42.0496Z" fill="white" stroke="black"/>
  <path d="M238.932 11.6957C221.351 9.69877 205.665 24.9599 199.818 29.8684C213.913 33.2982 244.744 47.8259 258.397 54.661C258.772 52.6694 258.199 46.0486 256.996 39.4218C263.594 43.5267 265.85 44.5054 265.551 42.1179C262.667 33.6136 256.514 13.6926 238.932 11.6957Z" fill="#D73F3F"/>
  <path d="M256.996 39.4218C263.594 43.5267 265.85 44.5054 265.551 42.1179C262.667 33.6136 256.514 13.6926 238.932 11.6957C221.351 9.69877 205.665 24.9599 199.818 29.8684C213.913 33.2982 244.744 47.8259 258.397 54.661C258.772 52.6694 258.199 46.0486 256.996 39.4218ZM256.996 39.4218C256.824 35.0921 255.794 32.7944 254.931 29.563" stroke="black"/>
  <path d="M232.746 38.1052C248.416 45.0067 256.794 50.0215 259.379 52.662C262.942 55.8165 258.45 63.3233 254.512 62.0822C250.288 60.7509 244.648 59.7726 222.312 51.9333C195.988 42.6943 194.489 42.9066 193.057 41.4281C191.624 39.9496 191.484 29.5506 197.596 27.0264C203.707 24.5022 219.076 32.0848 232.746 38.1052Z" fill="white" stroke="black"/>
  <path d="M409.784 165.981L405.147 142.252C405.06 141.808 404.687 141.478 404.237 141.441C403.127 141.351 401.174 141.17 400.941 141C400.941 141 399.64 140.121 398.513 139.497C397.987 139.206 397.368 139.516 397.223 140.1L389.529 171.067C389.51 171.144 389.5 171.223 389.499 171.302L389.072 234.062C389.071 234.129 389.078 234.196 389.09 234.261L396.29 270.93C396.403 271.506 396.984 271.861 397.548 271.699L408.842 268.45L414.321 266.874L420.385 265.13C420.848 264.997 421.15 264.553 421.104 264.073L419.79 250.359C419.779 250.252 419.752 250.148 419.708 250.049L418.585 247.517C418.454 247.22 418.652 246.881 418.975 246.85C419.237 246.825 419.428 246.593 419.403 246.331L418.079 232.515C418.053 232.251 417.924 232.007 417.72 231.839L415.262 229.811C414.775 229.409 414.778 228.663 415.267 228.264L417.064 226.801C417.333 226.581 417.469 226.238 417.423 225.893L410.515 174.11C410.505 174.037 410.487 173.965 410.462 173.896L408.958 169.814C408.882 169.61 408.876 169.387 408.939 169.179L409.76 166.463C409.807 166.307 409.816 166.141 409.784 165.981Z" fill="#7A4A12"/>
  <path d="M408.842 268.45L397.548 271.699C396.984 271.861 396.403 271.506 396.29 270.93L389.09 234.261C389.078 234.196 389.071 234.129 389.072 234.062L389.499 171.302C389.5 171.223 389.51 171.144 389.529 171.067L397.223 140.1C397.368 139.516 397.987 139.206 398.513 139.497C399.64 140.121 400.941 141 400.941 141M408.842 268.45L406 218.5M408.842 268.45L414.321 266.874M412 250.198L414.321 266.874M414.321 266.874L420.385 265.13C420.848 264.997 421.15 264.553 421.104 264.073L419.79 250.359C419.779 250.252 419.752 250.148 419.708 250.049L418.585 247.517C418.454 247.22 418.652 246.881 418.975 246.85V246.85C419.237 246.825 419.428 246.593 419.403 246.331L418.079 232.515C418.053 232.251 417.924 232.007 417.72 231.839L415.262 229.811C414.775 229.409 414.778 228.663 415.267 228.264L417.064 226.801C417.333 226.581 417.469 226.238 417.423 225.893L410.515 174.11C410.505 174.037 410.487 173.965 410.462 173.896L408.958 169.814C408.882 169.61 408.876 169.387 408.939 169.179L409.76 166.463C409.807 166.307 409.816 166.141 409.784 165.981L405.147 142.252C405.06 141.808 404.687 141.478 404.237 141.441C403.127 141.351 401.174 141.17 400.941 141M400.941 141L404.5 165" stroke="black" stroke-linecap="round" stroke-linejoin="round"/>
  <path d="M235.152 143.146L397.049 138.846C397.611 138.831 398.075 139.283 398.075 139.845L398.09 162.65C398.09 162.74 398.077 162.83 398.053 162.917L396.284 169.31C396.248 169.44 396.238 169.575 396.256 169.709L397.011 175.371C397.017 175.419 397.02 175.468 397.019 175.517L396.235 231.609C396.231 231.889 396.111 232.154 395.902 232.34L392.796 235.12C392.345 235.524 392.353 236.232 392.812 236.626L396.745 239.988L396.804 270.722C396.805 271.285 396.343 271.737 395.781 271.724L226.433 267.727C225.846 267.713 225.397 267.199 225.463 266.615L228.393 240.622C228.423 240.354 228.56 240.11 228.773 239.945L233.461 236.298L229.065 230.187C228.927 229.996 228.862 229.763 228.879 229.529L233.34 169.823C233.355 169.617 233.434 169.421 233.566 169.262L236.431 165.788L232.901 161.915C232.712 161.708 232.619 161.431 232.644 161.152L234.183 144.056C234.228 143.55 234.645 143.159 235.152 143.146Z" fill="#BC9549"/>
  <path d="M236.431 165.788L232.901 161.915C232.712 161.708 232.619 161.431 232.644 161.152L234.183 144.056C234.228 143.55 234.645 143.159 235.152 143.146L397.049 138.846C397.611 138.831 398.075 139.283 398.075 139.845L398.09 162.65C398.09 162.74 398.077 162.83 398.053 162.917L396.284 169.31C396.248 169.44 396.238 169.575 396.256 169.709L397.011 175.371C397.017 175.419 397.02 175.468 397.019 175.517L396.235 231.609C396.231 231.889 396.111 232.154 395.902 232.34L392.796 235.12C392.345 235.524 392.353 236.232 392.812 236.626L396.745 239.988M236.431 165.788L233.566 169.262C233.434 169.421 233.355 169.617 233.34 169.823L228.879 229.529C228.862 229.763 228.927 229.996 229.065 230.187L233.461 236.298M236.431 165.788C237.67 166.811 240.224 166.482 247.462 165.788M233.461 236.298L228.773 239.945C228.56 240.11 228.423 240.354 228.393 240.622L225.463 266.615C225.397 267.199 225.846 267.713 226.433 267.727L395.781 271.724C396.343 271.737 396.805 271.285 396.804 270.722L396.745 239.988M233.461 236.298L244.462 235.883M396.745 239.988C389 238.5 376.388 237.432 373.5 235.883M310.294 151.8C296.128 150.875 254.7 149.199 247.462 149.893" stroke="black" stroke-linecap="round" stroke-linejoin="round"/>
  <path d="M244.525 260.5L249.484 141.5L392.483 141.5L387.524 260.5L244.525 260.5Z" fill="#9F9F9F" stroke="black"/>
  <path d="M238.534 257.5L245.475 139.5L388.474 139.5L381.532 257.5L238.534 257.5Z" fill="#9F9F9F" stroke="black"/>
  <path d="M233.539 254.5L241.471 137.5L384.469 137.5L376.537 254.5L233.539 254.5Z" fill="#F9F9F9" stroke="black"/>
  <path d="M263.932 127.773C258.571 127.773 253.773 132.566 253.773 139.06C253.773 145.555 258.571 150.348 263.932 150.348C265.802 150.348 267.318 151.864 267.318 153.734C267.318 155.605 265.802 157.121 263.932 157.121C254.33 157.121 247 148.775 247 139.06C247 129.346 254.33 121 263.932 121C272.603 121 279.422 127.807 280.662 136.282C280.747 136.863 280.284 137.367 279.697 137.367H274.855C274.354 137.367 273.934 136.994 273.833 136.503C272.77 131.346 268.56 127.773 263.932 127.773Z" fill="#BC9549" stroke="black" stroke-linecap="round" stroke-linejoin="round"/>
  <path d="M357.932 127.773C352.571 127.773 347.773 132.566 347.773 139.06C347.773 145.555 352.571 150.348 357.932 150.348C359.802 150.348 361.318 151.864 361.318 153.734C361.318 155.605 359.802 157.121 357.932 157.121C348.33 157.121 341 148.775 341 139.06C341 129.346 348.33 121 357.932 121C366.603 121 373.422 127.807 374.662 136.282C374.747 136.863 374.284 137.367 373.697 137.367H368.855C368.354 137.367 367.934 136.994 367.833 136.503C366.77 131.346 362.56 127.773 357.932 127.773Z" fill="#BC9549" stroke="black" stroke-linecap="round" stroke-linejoin="round"/>
  <path d="M381.999 258.03C351.336 258.81 329.457 258.039 321.172 274.428C321.079 274.612 321.01 274.822 321.002 275.027C320.566 286.403 390.183 284.459 415.647 282.514C441.345 280.552 420.546 257.049 381.999 258.03Z" fill="url(#paint0_linear_22057_76)" stroke="#8B98BD"/>
  <path d="M218.226 249.03C201.991 249.812 190.417 249.035 186.062 265.536C186.033 265.648 186.011 265.773 186.006 265.89C185.476 277.419 222.496 275.466 236.002 273.514C249.578 271.552 238.59 248.049 218.226 249.03Z" fill="url(#paint1_linear_22057_76)" stroke="#8B98BD"/>
  <defs>
    <linearGradient id="paint0_linear_22057_76" x1="372.439" y1="257.414" x2="366.557" y2="289.561" gradientUnits="userSpaceOnUse">
      <stop stop-color="white"/>
      <stop offset="1" stop-color="#C4C7CB"/>
    </linearGradient>
    <linearGradient id="paint1_linear_22057_76" x1="213.176" y1="248.414" x2="202.901" y2="278.079" gradientUnits="userSpaceOnUse">
      <stop stop-color="white"/>
      <stop offset="1" stop-color="#C4C7CB"/>
    </linearGradient>
  </defs>
</svg>
