<svg width="1544" height="587" viewBox="0 0 1544 587" fill="none" xmlns="http://www.w3.org/2000/svg">
  <g filter="url(#filter0_d_22057_76)">
    <path d="M1231.66 204.452L1250.2 134.329C1250.73 132.34 1253.55 132.345 1254.07 134.336L1272.35 204.458C1272.68 205.725 1271.72 206.963 1270.41 206.963H1233.6C1232.29 206.963 1231.33 205.72 1231.66 204.452Z" fill="#003958"/>
    <path d="M1231.66 204.452L1250.2 134.329C1250.73 132.34 1253.55 132.345 1254.07 134.336L1272.35 204.458C1272.68 205.725 1271.72 206.963 1270.41 206.963H1233.6C1232.29 206.963 1231.33 205.72 1231.66 204.452Z" stroke="black"/>
  </g>
  <g filter="url(#filter1_d_22057_76)">
    <path d="M1494.66 204.452L1513.2 134.329C1513.73 132.34 1516.55 132.345 1517.07 134.336L1535.35 204.458C1535.68 205.725 1534.72 206.963 1533.41 206.963H1496.6C1495.29 206.963 1494.33 205.72 1494.66 204.452Z" fill="#003958"/>
    <path d="M1494.66 204.452L1513.2 134.329C1513.73 132.34 1516.55 132.345 1517.07 134.336L1535.35 204.458C1535.68 205.725 1534.72 206.963 1533.41 206.963H1496.6C1495.29 206.963 1494.33 205.72 1494.66 204.452Z" stroke="black"/>
  </g>
  <g filter="url(#filter2_d_22057_76)">
    <path d="M557.675 204.445L590.054 83.7172C590.585 81.7377 593.396 81.7427 593.92 83.7241L625.836 204.452C626.172 205.72 625.215 206.963 623.903 206.963H559.607C558.292 206.963 557.335 205.715 557.675 204.445Z" fill="#003958"/>
    <path d="M557.675 204.445L590.054 83.7172C590.585 81.7377 593.396 81.7427 593.92 83.7241L625.836 204.452C626.172 205.72 625.215 206.963 623.903 206.963H559.607C558.292 206.963 557.335 205.715 557.675 204.445Z" stroke="black"/>
  </g>
  <g filter="url(#filter3_d_22057_76)">
    <path d="M849.675 204.445L882.054 83.7172C882.585 81.7377 885.396 81.7427 885.92 83.7241L917.836 204.452C918.172 205.72 917.215 206.963 915.903 206.963H851.607C850.292 206.963 849.335 205.715 849.675 204.445Z" fill="#003958"/>
    <path d="M849.675 204.445L882.054 83.7172C882.585 81.7377 885.396 81.7427 885.92 83.7241L917.836 204.452C918.172 205.72 917.215 206.963 915.903 206.963H851.607C850.292 206.963 849.335 205.715 849.675 204.445Z" stroke="black"/>
  </g>
  <g filter="url(#filter4_d_22057_76)">
    <path d="M464.667 204.449L491.262 104.295C491.789 102.309 494.609 102.314 495.13 104.302L521.344 204.456C521.676 205.724 520.719 206.963 519.409 206.963H466.6C465.287 206.963 464.33 205.719 464.667 204.449Z" fill="#003958"/>
    <path d="M464.667 204.449L491.262 104.295C491.789 102.309 494.609 102.314 495.13 104.302L521.344 204.456C521.676 205.724 520.719 206.963 519.409 206.963H466.6C465.287 206.963 464.33 205.719 464.667 204.449Z" stroke="black"/>
  </g>
  <g filter="url(#filter5_d_22057_76)">
    <path d="M158.667 204.449L185.262 104.295C185.789 102.309 188.609 102.314 189.13 104.302L215.344 204.456C215.676 205.724 214.719 206.963 213.409 206.963H160.6C159.287 206.963 158.33 205.719 158.667 204.449Z" fill="#003958"/>
    <path d="M158.667 204.449L185.262 104.295C185.789 102.309 188.609 102.314 189.13 104.302L215.344 204.456C215.676 205.724 214.719 206.963 213.409 206.963H160.6C159.287 206.963 158.33 205.719 158.667 204.449Z" stroke="black"/>
  </g>
  <g filter="url(#filter6_d_22057_76)">
    <path d="M247.661 204.453L262.174 149.358C262.699 147.367 265.527 147.372 266.044 149.365L280.35 204.46C280.679 205.727 279.723 206.963 278.414 206.963H249.595C248.284 206.963 247.327 205.722 247.661 204.453Z" fill="#003958"/>
    <path d="M247.661 204.453L262.174 149.358C262.699 147.367 265.527 147.372 266.044 149.365L280.35 204.46C280.679 205.727 279.723 206.963 278.414 206.963H249.595C248.284 206.963 247.327 205.722 247.661 204.453Z" stroke="black"/>
  </g>
  <g filter="url(#filter7_d_22057_76)">
    <path d="M776.661 204.453L791.174 149.358C791.699 147.367 794.527 147.372 795.044 149.365L809.35 204.46C809.679 205.727 808.723 206.963 807.414 206.963H778.595C777.284 206.963 776.327 205.722 776.661 204.453Z" fill="#003958"/>
    <path d="M776.661 204.453L791.174 149.358C791.699 147.367 794.527 147.372 795.044 149.365L809.35 204.46C809.679 205.727 808.723 206.963 807.414 206.963H778.595C777.284 206.963 776.327 205.722 776.661 204.453Z" stroke="black"/>
  </g>
  <g filter="url(#filter8_d_22057_76)">
    <path d="M0.661044 204.453L15.1744 149.358C15.6988 147.367 18.5267 147.372 19.0442 149.364L33.3502 204.46C33.6791 205.727 32.723 206.963 31.4144 206.963H2.59507C1.28352 206.963 0.326952 205.722 0.661044 204.453Z" fill="#003958"/>
    <path d="M0.661044 204.453L15.1744 149.358C15.6988 147.367 18.5267 147.372 19.0442 149.364L33.3502 204.46C33.6791 205.727 32.723 206.963 31.4144 206.963H2.59507C1.28352 206.963 0.326952 205.722 0.661044 204.453Z" stroke="black"/>
  </g>
  <g filter="url(#filter9_d_22057_76)">
    <path d="M1057.67 204.449L1084.26 104.295C1084.79 102.309 1087.61 102.314 1088.13 104.302L1114.34 204.456C1114.68 205.724 1113.72 206.963 1112.41 206.963H1059.6C1058.29 206.963 1057.33 205.719 1057.67 204.449Z" fill="#003958"/>
    <path d="M1057.67 204.449L1084.26 104.295C1084.79 102.309 1087.61 102.314 1088.13 104.302L1114.34 204.456C1114.68 205.724 1113.72 206.963 1112.41 206.963H1059.6C1058.29 206.963 1057.33 205.719 1057.67 204.449Z" stroke="black"/>
  </g>
  <g filter="url(#filter10_d_22057_76)">
    <path d="M1411.67 204.449L1442.29 89.2842C1442.82 87.2991 1445.64 87.3041 1446.16 89.291L1476.34 204.456C1476.68 205.723 1475.72 206.963 1474.41 206.963H1413.6C1412.29 206.963 1411.33 205.718 1411.67 204.449Z" fill="#003958"/>
    <path d="M1411.67 204.449L1442.29 89.2842C1442.82 87.2991 1445.64 87.3041 1446.16 89.291L1476.34 204.456C1476.68 205.723 1475.72 206.963 1474.41 206.963H1413.6C1412.29 206.963 1411.33 205.718 1411.67 204.449Z" stroke="black"/>
  </g>
  <g filter="url(#filter11_d_22057_76)">
    <path d="M1262.66 204.451L1286.24 115.325C1286.77 113.337 1289.59 113.342 1290.11 115.332L1313.35 204.458C1313.68 205.725 1312.72 206.963 1311.41 206.963H1264.6C1263.29 206.963 1262.33 205.72 1262.66 204.451Z" fill="#003958"/>
    <path d="M1262.66 204.451L1286.24 115.325C1286.77 113.337 1289.59 113.342 1290.11 115.332L1313.35 204.458C1313.68 205.725 1312.72 206.963 1311.41 206.963H1264.6C1263.29 206.963 1262.33 205.72 1262.66 204.451Z" stroke="black"/>
  </g>
  <g filter="url(#filter12_d_22057_76)">
    <path d="M921.951 169.52C936.777 136.72 940.907 103.86 947.652 103.86C957.01 108.851 1011.17 202.861 1004.42 206.943C997.676 211.026 984.621 203.825 980.967 198.438C986.026 206.66 992.433 223.444 977.595 224.804C962.757 226.165 953.989 209.495 951.459 200.99C949.773 208.361 944.04 223.103 934.597 223.103C925.155 223.103 926.729 212.33 928.696 206.943C921.67 212.33 915.145 220.912 907.726 216.149C898.452 210.196 907.726 200.99 921.951 169.52Z" fill="#025B8C"/>
    <path d="M921.951 169.52C936.777 136.72 940.907 103.86 947.652 103.86C957.01 108.851 1011.17 202.861 1004.42 206.943C997.676 211.026 984.621 203.825 980.967 198.438C986.026 206.66 992.433 223.444 977.595 224.804C962.757 226.165 953.989 209.495 951.459 200.99C949.773 208.361 944.04 223.103 934.597 223.103C925.155 223.103 926.729 212.33 928.696 206.943C921.67 212.33 915.145 220.912 907.726 216.149C898.452 210.196 907.726 200.99 921.951 169.52Z" stroke="black"/>
  </g>
  <g filter="url(#filter13_d_22057_76)">
    <path d="M949.386 90.7594C963.111 92.0071 984.321 145.656 990.559 155.638C996.797 165.619 993.678 168.114 990.559 168.738C988.064 169.237 979.122 165.619 974.963 163.748C976.211 166.451 977.958 172.232 974.963 173.729C971.969 175.226 966.23 168.53 963.734 164.995C964.982 169.778 966.105 179.593 960.615 180.591C955.126 181.589 952.921 170.61 952.505 164.995C952.298 172.065 950.135 186.205 943.148 186.205C936.899 186.205 936.505 175.892 937.236 169.101C936.41 173.901 934.118 180.591 929.424 180.591C924.174 180.591 924.972 174.885 926.143 171.659C924.663 175.286 919.68 181.55 910.085 180.591C897.608 179.343 938.157 90.7594 949.386 90.7594Z" fill="#025B8C"/>
    <path d="M949.386 90.7594C963.111 92.0071 984.321 145.656 990.559 155.638C996.797 165.619 993.678 168.114 990.559 168.738C988.064 169.237 979.122 165.619 974.963 163.748C976.211 166.451 977.958 172.232 974.963 173.729C971.969 175.226 966.23 168.53 963.734 164.995C964.982 169.778 966.105 179.593 960.615 180.591C955.126 181.589 952.921 170.61 952.505 164.995C952.298 172.065 950.135 186.205 943.148 186.205C936.899 186.205 936.505 175.892 937.236 169.101C936.41 173.901 934.118 180.591 929.424 180.591C924.174 180.591 924.972 174.885 926.143 171.659C924.663 175.286 919.68 181.55 910.085 180.591C897.608 179.343 938.157 90.7594 949.386 90.7594Z" stroke="black"/>
  </g>
  <g filter="url(#filter14_d_22057_76)">
    <path d="M974.338 102.612C959.367 80.7781 961.238 48.9628 956.247 48.9628C947.514 48.9628 910.084 128.189 916.322 131.932C921.313 134.927 927.967 127.773 930.67 123.822C926.927 129.853 922.186 142.163 933.166 143.161C944.145 144.159 950.633 131.932 952.504 125.694C953.752 131.1 957.994 141.914 964.981 141.914C971.968 141.914 970.803 134.012 969.348 130.061C974.546 134.012 986.316 141.04 991.806 137.547C998.668 133.18 989.31 124.446 974.338 102.612Z" fill="#156D9D"/>
    <path d="M974.338 102.612C959.367 80.7781 961.238 48.9628 956.247 48.9628C947.514 48.9628 910.084 128.189 916.322 131.932C921.313 134.927 927.967 127.773 930.67 123.822C926.927 129.853 922.186 142.163 933.166 143.161C944.145 144.159 950.633 131.932 952.504 125.694C953.752 131.1 957.994 141.914 964.981 141.914C971.968 141.914 970.803 134.012 969.348 130.061C974.546 134.012 986.316 141.04 991.806 137.547C998.668 133.18 989.31 124.446 974.338 102.612Z" stroke="black"/>
  </g>
  <g filter="url(#filter15_d_22057_76)">
    <path d="M96.951 169.52C111.777 136.72 115.907 103.86 122.652 103.86C132.01 108.851 186.165 202.861 179.42 206.943C172.676 211.026 159.621 203.825 155.967 198.438C161.026 206.66 167.433 223.444 152.595 224.804C137.757 226.165 128.989 209.495 126.459 200.99C124.773 208.361 119.04 223.103 109.597 223.103C100.155 223.103 101.729 212.33 103.696 206.943C96.67 212.33 90.1455 220.912 82.7263 216.149C73.4523 210.196 82.7263 200.99 96.951 169.52Z" fill="#025B8C"/>
    <path d="M96.951 169.52C111.777 136.72 115.907 103.86 122.652 103.86C132.01 108.851 186.165 202.861 179.42 206.943C172.676 211.026 159.621 203.825 155.967 198.438C161.026 206.66 167.433 223.444 152.595 224.804C137.757 226.165 128.989 209.495 126.459 200.99C124.773 208.361 119.04 223.103 109.597 223.103C100.155 223.103 101.729 212.33 103.696 206.943C96.67 212.33 90.1455 220.912 82.7263 216.149C73.4523 210.196 82.7263 200.99 96.951 169.52Z" stroke="black"/>
  </g>
  <g filter="url(#filter16_d_22057_76)">
    <path d="M124.386 90.7592C138.111 92.0068 165.761 150.481 172 160.463C178.238 170.444 174.603 178.763 172 180.591C164 186.205 155 165.963 154 163.963C154 163.963 152.958 181.966 149.963 183.463C146.969 184.96 141.23 168.53 138.734 164.995C139.982 169.778 141.105 179.593 135.615 180.591C130.126 181.589 127.921 170.609 127.505 164.995C127.298 172.065 125.135 186.205 118.148 186.205C111.899 186.205 111.505 175.892 112.236 169.101C111.41 173.9 109.118 180.591 104.424 180.591C99.1736 180.591 99.9717 174.885 101.143 171.659C99.6627 175.285 94.6795 181.55 85.0851 180.591C72.6085 179.343 113.157 90.7592 124.386 90.7592Z" fill="#025B8C"/>
    <path d="M124.386 90.7592C138.111 92.0068 165.761 150.481 172 160.463C178.238 170.444 174.603 178.763 172 180.591C164 186.205 155 165.963 154 163.963C154 163.963 152.958 181.966 149.963 183.463C146.969 184.96 141.23 168.53 138.734 164.995C139.982 169.778 141.105 179.593 135.615 180.591C130.126 181.589 127.921 170.609 127.505 164.995C127.298 172.065 125.135 186.205 118.148 186.205C111.899 186.205 111.505 175.892 112.236 169.101C111.41 173.9 109.118 180.591 104.424 180.591C99.1736 180.591 99.9717 174.885 101.143 171.659C99.6627 175.285 94.6795 181.55 85.0851 180.591C72.6085 179.343 113.157 90.7592 124.386 90.7592Z" stroke="black"/>
  </g>
  <g filter="url(#filter17_d_22057_76)">
    <path d="M393.8 118.963C404.605 120.205 426.375 178.406 431.287 188.341C436.199 198.275 433.337 206.556 431.287 208.375C424.988 213.963 417.902 193.815 417.115 191.824C417.115 191.824 416.295 209.743 413.937 211.233C411.58 212.723 407.061 196.37 405.097 192.852C406.079 197.612 406.963 207.381 402.641 208.375C398.319 209.368 396.583 198.44 396.256 192.852C396.092 199.889 394.389 213.963 388.888 213.963C383.968 213.963 383.658 203.697 384.233 196.939C383.583 201.715 381.779 208.375 378.083 208.375C373.949 208.375 374.578 202.695 375.5 199.484C374.334 203.094 370.411 209.329 362.857 208.375C353.034 207.133 384.959 118.963 393.8 118.963Z" fill="#025B8C"/>
    <path d="M393.8 118.963C404.605 120.205 426.375 178.406 431.287 188.341C436.199 198.275 433.337 206.556 431.287 208.375C424.988 213.963 417.902 193.815 417.115 191.824C417.115 191.824 416.295 209.743 413.937 211.233C411.58 212.723 407.061 196.37 405.097 192.852C406.079 197.612 406.963 207.381 402.641 208.375C398.319 209.368 396.583 198.44 396.256 192.852C396.092 199.889 394.389 213.963 388.888 213.963C383.968 213.963 383.658 203.697 384.233 196.939C383.583 201.715 381.779 208.375 378.083 208.375C373.949 208.375 374.578 202.695 375.5 199.484C374.334 203.094 370.411 209.329 362.857 208.375C353.034 207.133 384.959 118.963 393.8 118.963Z" stroke="black"/>
  </g>
  <g filter="url(#filter18_d_22057_76)">
    <path d="M147.442 103.963C141.791 95.7214 129.938 80.9628 124.947 80.9628C116.214 80.9628 82.5271 132.689 88.7654 136.432C93.756 139.427 100.41 132.273 103.113 128.322C99.3703 134.353 94.6292 146.663 105.609 147.661C116.588 148.659 123.076 136.432 124.947 130.194C126.195 135.6 130.437 146.413 137.424 146.413C144.411 146.413 143.246 138.512 141.791 134.561C146.989 138.512 158.759 145.54 164.249 142.047C171.111 137.68 162.414 125.797 147.442 103.963Z" fill="#156D9D"/>
    <path d="M147.442 103.963C141.791 95.7214 129.938 80.9628 124.947 80.9628C116.214 80.9628 82.5271 132.689 88.7654 136.432C93.756 139.427 100.41 132.273 103.113 128.322C99.3703 134.353 94.6292 146.663 105.609 147.661C116.588 148.659 123.076 136.432 124.947 130.194C126.195 135.6 130.437 146.413 137.424 146.413C144.411 146.413 143.246 138.512 141.791 134.561C146.989 138.512 158.759 145.54 164.249 142.047C171.111 137.68 162.414 125.797 147.442 103.963Z" stroke="black"/>
  </g>
  <g filter="url(#filter19_d_22057_76)">
    <path d="M412.382 132.047C407.783 123.775 398.135 108.963 394.073 108.963C386.964 108.963 359.545 160.878 364.623 164.635C368.685 167.64 374.101 160.461 376.301 156.495C373.255 162.548 369.396 174.903 378.332 175.905C387.269 176.907 392.55 164.635 394.073 158.374C395.089 163.8 398.541 174.653 404.228 174.653C409.915 174.653 408.967 166.722 407.783 162.757C412.014 166.722 421.594 173.776 426.062 170.27C431.648 165.887 424.569 153.961 412.382 132.047Z" fill="#156D9D"/>
    <path d="M412.382 132.047C407.783 123.775 398.135 108.963 394.073 108.963C386.964 108.963 359.545 160.878 364.623 164.635C368.685 167.64 374.101 160.461 376.301 156.495C373.255 162.548 369.396 174.903 378.332 175.905C387.269 176.907 392.55 164.635 394.073 158.374C395.089 163.8 398.541 174.653 404.228 174.653C409.915 174.653 408.967 166.722 407.783 162.757C412.014 166.722 421.594 173.776 426.062 170.27C431.648 165.887 424.569 153.961 412.382 132.047Z" stroke="black"/>
  </g>
  <path d="M657.492 217.327C651.475 212.372 702.614 65.589 706.154 65.589C709.694 65.589 708.808 68.6835 724.735 118.673C741.471 171.202 754.818 215.557 746.412 215.557C739.688 215.557 732.698 204.645 730.044 199.189C730.633 204.645 730.398 215.557 724.735 215.557C719.072 215.557 715.887 203.17 715.002 196.977C714.707 206.267 712.613 224.67 706.597 223.963C700.58 223.255 695.242 208.626 693.325 201.401C690.966 206.709 685.097 216.973 680.496 215.557C675.895 214.141 678.579 199.926 680.496 192.995C675.335 203.17 663.508 222.281 657.492 217.327Z" fill="#025B8C" stroke="black"/>
  <g filter="url(#filter20_d_22057_76)">
    <path d="M657.492 177.512C651.475 172.557 702.614 25.774 706.154 25.774C709.694 25.774 708.808 28.8685 724.735 78.8585C741.471 131.387 754.818 175.742 746.412 175.742C739.688 175.742 732.698 164.83 730.044 159.374C730.633 164.83 730.398 175.742 724.735 175.742C719.072 175.742 715.887 163.355 715.002 157.162C714.707 166.452 712.613 184.855 706.597 184.148C700.58 183.44 695.242 168.811 693.325 161.586C690.966 166.894 685.097 177.158 680.496 175.742C675.895 174.327 678.579 160.111 680.496 153.18C675.335 163.355 663.508 182.467 657.492 177.512Z" fill="#025B8C"/>
    <path d="M657.492 177.512C651.475 172.557 702.614 25.774 706.154 25.774C709.694 25.774 708.808 28.8685 724.735 78.8585C741.471 131.387 754.818 175.742 746.412 175.742C739.688 175.742 732.698 164.83 730.044 159.374C730.633 164.83 730.398 175.742 724.735 175.742C719.072 175.742 715.887 163.355 715.002 157.162C714.707 166.452 712.613 184.855 706.597 184.148C700.58 183.44 695.242 168.811 693.325 161.586C690.966 166.894 685.097 177.158 680.496 175.742C675.895 174.327 678.579 160.111 680.496 153.18C675.335 163.355 663.508 182.467 657.492 177.512Z" stroke="black"/>
  </g>
  <g filter="url(#filter21_d_22057_76)">
    <path d="M665.371 125.598C660.395 121.529 702.691 1 705.619 1C708.547 1 707.814 3.54099 720.987 44.5897C734.829 87.7233 745.868 124.145 738.916 124.145C733.354 124.145 727.573 115.184 725.378 110.704C725.866 115.184 725.67 124.145 720.987 124.145C716.304 124.145 713.669 113.973 712.937 108.888C712.693 116.516 710.962 131.628 705.985 131.047C701.009 130.465 696.594 118.453 695.009 112.52C693.057 116.879 688.203 125.307 684.398 124.145C680.593 122.982 682.812 111.309 684.398 105.618C680.129 113.973 670.347 129.666 665.371 125.598Z" fill="#156D9D"/>
    <path d="M665.371 125.598C660.395 121.529 702.691 1 705.619 1C708.547 1 707.814 3.54099 720.987 44.5897C734.829 87.7233 745.868 124.145 738.916 124.145C733.354 124.145 727.573 115.184 725.378 110.704C725.866 115.184 725.67 124.145 720.987 124.145C716.304 124.145 713.669 113.973 712.937 108.888C712.693 116.516 710.962 131.628 705.985 131.047C701.009 130.465 696.594 118.453 695.009 112.52C693.057 116.879 688.203 125.307 684.398 124.145C680.593 122.982 682.812 111.309 684.398 105.618C680.129 113.973 670.347 129.666 665.371 125.598Z" stroke="black"/>
  </g>
  <path d="M1304.42 218.311C1299.29 214.088 1342.87 89.0038 1345.89 89.0038C1348.9 89.0038 1348.15 91.6408 1361.72 134.241C1375.98 179.005 1387.36 216.803 1380.19 216.803C1374.46 216.803 1368.51 207.503 1366.25 202.854C1366.75 207.503 1366.55 216.803 1361.72 216.803C1356.9 216.803 1354.18 206.247 1353.43 200.969C1353.18 208.886 1351.39 224.569 1346.27 223.966C1341.14 223.362 1336.59 210.896 1334.96 204.739C1332.94 209.263 1327.94 218.009 1324.02 216.803C1320.1 215.596 1322.39 203.482 1324.02 197.576C1319.62 206.247 1309.55 222.533 1304.42 218.311Z" fill="#025B8C" stroke="black"/>
  <g filter="url(#filter22_d_22057_76)">
    <path d="M1304.42 184.381C1299.29 180.159 1342.87 55.0743 1345.89 55.0743C1348.9 55.0743 1348.15 57.7114 1361.72 100.312C1375.98 145.075 1387.36 182.873 1380.19 182.873C1374.46 182.873 1368.51 173.574 1366.25 168.924C1366.75 173.574 1366.55 182.873 1361.72 182.873C1356.9 182.873 1354.18 172.317 1353.43 167.039C1353.18 174.956 1351.39 190.639 1346.27 190.036C1341.14 189.433 1336.59 176.967 1334.96 170.809C1332.94 175.333 1327.94 184.08 1324.02 182.873C1320.1 181.667 1322.39 169.553 1324.02 163.647C1319.62 172.317 1309.55 188.604 1304.42 184.381Z" fill="#025B8C"/>
    <path d="M1304.42 184.381C1299.29 180.159 1342.87 55.0743 1345.89 55.0743C1348.9 55.0743 1348.15 57.7114 1361.72 100.312C1375.98 145.075 1387.36 182.873 1380.19 182.873C1374.46 182.873 1368.51 173.574 1366.25 168.924C1366.75 173.574 1366.55 182.873 1361.72 182.873C1356.9 182.873 1354.18 172.317 1353.43 167.039C1353.18 174.956 1351.39 190.639 1346.27 190.036C1341.14 189.433 1336.59 176.967 1334.96 170.809C1332.94 175.333 1327.94 184.08 1324.02 182.873C1320.1 181.667 1322.39 169.553 1324.02 163.647C1319.62 172.317 1309.55 188.604 1304.42 184.381Z" stroke="black"/>
  </g>
  <g filter="url(#filter23_d_22057_76)">
    <path d="M1311.13 140.142C1306.89 136.674 1342.93 33.9628 1345.43 33.9628C1347.92 33.9628 1347.3 36.1281 1358.53 71.1087C1370.32 107.866 1379.73 138.903 1373.8 138.903C1369.06 138.903 1364.14 131.267 1362.27 127.449C1362.68 131.267 1362.52 138.903 1358.53 138.903C1354.53 138.903 1352.29 130.236 1351.67 125.902C1351.46 132.402 1349.98 145.28 1345.74 144.785C1341.5 144.29 1337.74 134.054 1336.39 128.997C1334.72 132.712 1330.59 139.894 1327.35 138.903C1324.1 137.913 1325.99 127.965 1327.35 123.116C1323.71 130.236 1315.37 143.609 1311.13 140.142Z" fill="#156D9D"/>
    <path d="M1311.13 140.142C1306.89 136.674 1342.93 33.9628 1345.43 33.9628C1347.92 33.9628 1347.3 36.1281 1358.53 71.1087C1370.32 107.866 1379.73 138.903 1373.8 138.903C1369.06 138.903 1364.14 131.267 1362.27 127.449C1362.68 131.267 1362.52 138.903 1358.53 138.903C1354.53 138.903 1352.29 130.236 1351.67 125.902C1351.46 132.402 1349.98 145.28 1345.74 144.785C1341.5 144.29 1337.74 134.054 1336.39 128.997C1334.72 132.712 1330.59 139.894 1327.35 138.903C1324.1 137.913 1325.99 127.965 1327.35 123.116C1323.71 130.236 1315.37 143.609 1311.13 140.142Z" stroke="black"/>
  </g>
  <rect x="-0.5" y="384.5" width="1545" height="202" fill="url(#paint0_linear_22057_76)" stroke="black"/>
  <path d="M257.5 176.463C192.3 176.463 51 191.463 0 191.463V385.463H1544V191.463C1509 191.463 1470.5 176.463 1393 176.463C1302.5 176.463 1306.5 191.463 1167.5 191.463C1028.5 191.463 955 176.463 862 176.463C769 176.463 650.5 191.463 540.5 191.463C430.5 191.463 339 176.463 257.5 176.463Z" fill="url(#paint1_linear_22057_76)"/>
  <defs>
    <filter id="filter0_d_22057_76" x="1231.1" y="132.34" width="41.8164" height="81.1228" filterUnits="userSpaceOnUse" color-interpolation-filters="sRGB">
      <feFlood flood-opacity="0" result="BackgroundImageFix"/>
      <feColorMatrix in="SourceAlpha" type="matrix" values="0 0 0 0 0 0 0 0 0 0 0 0 0 0 0 0 0 0 127 0" result="hardAlpha"/>
      <feOffset dy="6"/>
      <feComposite in2="hardAlpha" operator="out"/>
      <feColorMatrix type="matrix" values="0 0 0 0 0 0 0 0 0 0 0 0 0 0 0 0 0 0 0.25 0"/>
      <feBlend mode="normal" in2="BackgroundImageFix" result="effect1_dropShadow_22057_76"/>
      <feBlend mode="normal" in="SourceGraphic" in2="effect1_dropShadow_22057_76" result="shape"/>
    </filter>
    <filter id="filter1_d_22057_76" x="1494.1" y="132.34" width="41.8164" height="81.1228" filterUnits="userSpaceOnUse" color-interpolation-filters="sRGB">
      <feFlood flood-opacity="0" result="BackgroundImageFix"/>
      <feColorMatrix in="SourceAlpha" type="matrix" values="0 0 0 0 0 0 0 0 0 0 0 0 0 0 0 0 0 0 127 0" result="hardAlpha"/>
      <feOffset dy="6"/>
      <feComposite in2="hardAlpha" operator="out"/>
      <feColorMatrix type="matrix" values="0 0 0 0 0 0 0 0 0 0 0 0 0 0 0 0 0 0 0.25 0"/>
      <feBlend mode="normal" in2="BackgroundImageFix" result="effect1_dropShadow_22057_76"/>
      <feBlend mode="normal" in="SourceGraphic" in2="effect1_dropShadow_22057_76" result="shape"/>
    </filter>
    <filter id="filter2_d_22057_76" x="557.105" y="81.7354" width="69.2969" height="131.727" filterUnits="userSpaceOnUse" color-interpolation-filters="sRGB">
      <feFlood flood-opacity="0" result="BackgroundImageFix"/>
      <feColorMatrix in="SourceAlpha" type="matrix" values="0 0 0 0 0 0 0 0 0 0 0 0 0 0 0 0 0 0 127 0" result="hardAlpha"/>
      <feOffset dy="6"/>
      <feComposite in2="hardAlpha" operator="out"/>
      <feColorMatrix type="matrix" values="0 0 0 0 0 0 0 0 0 0 0 0 0 0 0 0 0 0 0.25 0"/>
      <feBlend mode="normal" in2="BackgroundImageFix" result="effect1_dropShadow_22057_76"/>
      <feBlend mode="normal" in="SourceGraphic" in2="effect1_dropShadow_22057_76" result="shape"/>
    </filter>
    <filter id="filter3_d_22057_76" x="849.105" y="81.7354" width="69.2969" height="131.727" filterUnits="userSpaceOnUse" color-interpolation-filters="sRGB">
      <feFlood flood-opacity="0" result="BackgroundImageFix"/>
      <feColorMatrix in="SourceAlpha" type="matrix" values="0 0 0 0 0 0 0 0 0 0 0 0 0 0 0 0 0 0 127 0" result="hardAlpha"/>
      <feOffset dy="6"/>
      <feComposite in2="hardAlpha" operator="out"/>
      <feColorMatrix type="matrix" values="0 0 0 0 0 0 0 0 0 0 0 0 0 0 0 0 0 0 0.25 0"/>
      <feBlend mode="normal" in2="BackgroundImageFix" result="effect1_dropShadow_22057_76"/>
      <feBlend mode="normal" in="SourceGraphic" in2="effect1_dropShadow_22057_76" result="shape"/>
    </filter>
    <filter id="filter4_d_22057_76" x="464.098" y="102.308" width="57.8125" height="111.155" filterUnits="userSpaceOnUse" color-interpolation-filters="sRGB">
      <feFlood flood-opacity="0" result="BackgroundImageFix"/>
      <feColorMatrix in="SourceAlpha" type="matrix" values="0 0 0 0 0 0 0 0 0 0 0 0 0 0 0 0 0 0 127 0" result="hardAlpha"/>
      <feOffset dy="6"/>
      <feComposite in2="hardAlpha" operator="out"/>
      <feColorMatrix type="matrix" values="0 0 0 0 0 0 0 0 0 0 0 0 0 0 0 0 0 0 0.25 0"/>
      <feBlend mode="normal" in2="BackgroundImageFix" result="effect1_dropShadow_22057_76"/>
      <feBlend mode="normal" in="SourceGraphic" in2="effect1_dropShadow_22057_76" result="shape"/>
    </filter>
    <filter id="filter5_d_22057_76" x="158.098" y="102.308" width="57.8125" height="111.155" filterUnits="userSpaceOnUse" color-interpolation-filters="sRGB">
      <feFlood flood-opacity="0" result="BackgroundImageFix"/>
      <feColorMatrix in="SourceAlpha" type="matrix" values="0 0 0 0 0 0 0 0 0 0 0 0 0 0 0 0 0 0 127 0" result="hardAlpha"/>
      <feOffset dy="6"/>
      <feComposite in2="hardAlpha" operator="out"/>
      <feColorMatrix type="matrix" values="0 0 0 0 0 0 0 0 0 0 0 0 0 0 0 0 0 0 0.25 0"/>
      <feBlend mode="normal" in2="BackgroundImageFix" result="effect1_dropShadow_22057_76"/>
      <feBlend mode="normal" in="SourceGraphic" in2="effect1_dropShadow_22057_76" result="shape"/>
    </filter>
    <filter id="filter6_d_22057_76" x="247.094" y="147.367" width="33.8203" height="66.0957" filterUnits="userSpaceOnUse" color-interpolation-filters="sRGB">
      <feFlood flood-opacity="0" result="BackgroundImageFix"/>
      <feColorMatrix in="SourceAlpha" type="matrix" values="0 0 0 0 0 0 0 0 0 0 0 0 0 0 0 0 0 0 127 0" result="hardAlpha"/>
      <feOffset dy="6"/>
      <feComposite in2="hardAlpha" operator="out"/>
      <feColorMatrix type="matrix" values="0 0 0 0 0 0 0 0 0 0 0 0 0 0 0 0 0 0 0.25 0"/>
      <feBlend mode="normal" in2="BackgroundImageFix" result="effect1_dropShadow_22057_76"/>
      <feBlend mode="normal" in="SourceGraphic" in2="effect1_dropShadow_22057_76" result="shape"/>
    </filter>
    <filter id="filter7_d_22057_76" x="776.094" y="147.367" width="33.8203" height="66.0957" filterUnits="userSpaceOnUse" color-interpolation-filters="sRGB">
      <feFlood flood-opacity="0" result="BackgroundImageFix"/>
      <feColorMatrix in="SourceAlpha" type="matrix" values="0 0 0 0 0 0 0 0 0 0 0 0 0 0 0 0 0 0 127 0" result="hardAlpha"/>
      <feOffset dy="6"/>
      <feComposite in2="hardAlpha" operator="out"/>
      <feColorMatrix type="matrix" values="0 0 0 0 0 0 0 0 0 0 0 0 0 0 0 0 0 0 0.25 0"/>
      <feBlend mode="normal" in2="BackgroundImageFix" result="effect1_dropShadow_22057_76"/>
      <feBlend mode="normal" in="SourceGraphic" in2="effect1_dropShadow_22057_76" result="shape"/>
    </filter>
    <filter id="filter8_d_22057_76" x="0.09375" y="147.367" width="33.8203" height="66.0957" filterUnits="userSpaceOnUse" color-interpolation-filters="sRGB">
      <feFlood flood-opacity="0" result="BackgroundImageFix"/>
      <feColorMatrix in="SourceAlpha" type="matrix" values="0 0 0 0 0 0 0 0 0 0 0 0 0 0 0 0 0 0 127 0" result="hardAlpha"/>
      <feOffset dy="6"/>
      <feComposite in2="hardAlpha" operator="out"/>
      <feColorMatrix type="matrix" values="0 0 0 0 0 0 0 0 0 0 0 0 0 0 0 0 0 0 0.25 0"/>
      <feBlend mode="normal" in2="BackgroundImageFix" result="effect1_dropShadow_22057_76"/>
      <feBlend mode="normal" in="SourceGraphic" in2="effect1_dropShadow_22057_76" result="shape"/>
    </filter>
    <filter id="filter9_d_22057_76" x="1057.1" y="102.308" width="57.8125" height="111.155" filterUnits="userSpaceOnUse" color-interpolation-filters="sRGB">
      <feFlood flood-opacity="0" result="BackgroundImageFix"/>
      <feColorMatrix in="SourceAlpha" type="matrix" values="0 0 0 0 0 0 0 0 0 0 0 0 0 0 0 0 0 0 127 0" result="hardAlpha"/>
      <feOffset dy="6"/>
      <feComposite in2="hardAlpha" operator="out"/>
      <feColorMatrix type="matrix" values="0 0 0 0 0 0 0 0 0 0 0 0 0 0 0 0 0 0 0.25 0"/>
      <feBlend mode="normal" in2="BackgroundImageFix" result="effect1_dropShadow_22057_76"/>
      <feBlend mode="normal" in="SourceGraphic" in2="effect1_dropShadow_22057_76" result="shape"/>
    </filter>
    <filter id="filter10_d_22057_76" x="1411.1" y="87.2981" width="65.8086" height="126.165" filterUnits="userSpaceOnUse" color-interpolation-filters="sRGB">
      <feFlood flood-opacity="0" result="BackgroundImageFix"/>
      <feColorMatrix in="SourceAlpha" type="matrix" values="0 0 0 0 0 0 0 0 0 0 0 0 0 0 0 0 0 0 127 0" result="hardAlpha"/>
      <feOffset dy="6"/>
      <feComposite in2="hardAlpha" operator="out"/>
      <feColorMatrix type="matrix" values="0 0 0 0 0 0 0 0 0 0 0 0 0 0 0 0 0 0 0.25 0"/>
      <feBlend mode="normal" in2="BackgroundImageFix" result="effect1_dropShadow_22057_76"/>
      <feBlend mode="normal" in="SourceGraphic" in2="effect1_dropShadow_22057_76" result="shape"/>
    </filter>
    <filter id="filter11_d_22057_76" x="1262.1" y="113.336" width="51.8164" height="100.126" filterUnits="userSpaceOnUse" color-interpolation-filters="sRGB">
      <feFlood flood-opacity="0" result="BackgroundImageFix"/>
      <feColorMatrix in="SourceAlpha" type="matrix" values="0 0 0 0 0 0 0 0 0 0 0 0 0 0 0 0 0 0 127 0" result="hardAlpha"/>
      <feOffset dy="6"/>
      <feComposite in2="hardAlpha" operator="out"/>
      <feColorMatrix type="matrix" values="0 0 0 0 0 0 0 0 0 0 0 0 0 0 0 0 0 0 0.25 0"/>
      <feBlend mode="normal" in2="BackgroundImageFix" result="effect1_dropShadow_22057_76"/>
      <feBlend mode="normal" in="SourceGraphic" in2="effect1_dropShadow_22057_76" result="shape"/>
    </filter>
    <filter id="filter12_d_22057_76" x="903.5" y="103.36" width="102" height="131.023" filterUnits="userSpaceOnUse" color-interpolation-filters="sRGB">
      <feFlood flood-opacity="0" result="BackgroundImageFix"/>
      <feColorMatrix in="SourceAlpha" type="matrix" values="0 0 0 0 0 0 0 0 0 0 0 0 0 0 0 0 0 0 127 0" result="hardAlpha"/>
      <feOffset dy="9"/>
      <feComposite in2="hardAlpha" operator="out"/>
      <feColorMatrix type="matrix" values="0 0 0 0 0 0 0 0 0 0 0 0 0 0 0 0 0 0 0.25 0"/>
      <feBlend mode="normal" in2="BackgroundImageFix" result="effect1_dropShadow_22057_76"/>
      <feBlend mode="normal" in="SourceGraphic" in2="effect1_dropShadow_22057_76" result="shape"/>
    </filter>
    <filter id="filter13_d_22057_76" x="907.227" y="90.2594" width="87.4336" height="105.446" filterUnits="userSpaceOnUse" color-interpolation-filters="sRGB">
      <feFlood flood-opacity="0" result="BackgroundImageFix"/>
      <feColorMatrix in="SourceAlpha" type="matrix" values="0 0 0 0 0 0 0 0 0 0 0 0 0 0 0 0 0 0 127 0" result="hardAlpha"/>
      <feOffset dy="9"/>
      <feComposite in2="hardAlpha" operator="out"/>
      <feColorMatrix type="matrix" values="0 0 0 0 0 0 0 0 0 0 0 0 0 0 0 0 0 0 0.25 0"/>
      <feBlend mode="normal" in2="BackgroundImageFix" result="effect1_dropShadow_22057_76"/>
      <feBlend mode="normal" in="SourceGraphic" in2="effect1_dropShadow_22057_76" result="shape"/>
    </filter>
    <filter id="filter14_d_22057_76" x="915.125" y="48.4628" width="79.4688" height="104.256" filterUnits="userSpaceOnUse" color-interpolation-filters="sRGB">
      <feFlood flood-opacity="0" result="BackgroundImageFix"/>
      <feColorMatrix in="SourceAlpha" type="matrix" values="0 0 0 0 0 0 0 0 0 0 0 0 0 0 0 0 0 0 127 0" result="hardAlpha"/>
      <feOffset dy="9"/>
      <feComposite in2="hardAlpha" operator="out"/>
      <feColorMatrix type="matrix" values="0 0 0 0 0 0 0 0 0 0 0 0 0 0 0 0 0 0 0.25 0"/>
      <feBlend mode="normal" in2="BackgroundImageFix" result="effect1_dropShadow_22057_76"/>
      <feBlend mode="normal" in="SourceGraphic" in2="effect1_dropShadow_22057_76" result="shape"/>
    </filter>
    <filter id="filter15_d_22057_76" x="78.5" y="103.36" width="102" height="131.023" filterUnits="userSpaceOnUse" color-interpolation-filters="sRGB">
      <feFlood flood-opacity="0" result="BackgroundImageFix"/>
      <feColorMatrix in="SourceAlpha" type="matrix" values="0 0 0 0 0 0 0 0 0 0 0 0 0 0 0 0 0 0 127 0" result="hardAlpha"/>
      <feOffset dy="9"/>
      <feComposite in2="hardAlpha" operator="out"/>
      <feColorMatrix type="matrix" values="0 0 0 0 0 0 0 0 0 0 0 0 0 0 0 0 0 0 0.25 0"/>
      <feBlend mode="normal" in2="BackgroundImageFix" result="effect1_dropShadow_22057_76"/>
      <feBlend mode="normal" in="SourceGraphic" in2="effect1_dropShadow_22057_76" result="shape"/>
    </filter>
    <filter id="filter16_d_22057_76" x="82.2266" y="90.2592" width="93.7188" height="105.446" filterUnits="userSpaceOnUse" color-interpolation-filters="sRGB">
      <feFlood flood-opacity="0" result="BackgroundImageFix"/>
      <feColorMatrix in="SourceAlpha" type="matrix" values="0 0 0 0 0 0 0 0 0 0 0 0 0 0 0 0 0 0 127 0" result="hardAlpha"/>
      <feOffset dy="9"/>
      <feComposite in2="hardAlpha" operator="out"/>
      <feColorMatrix type="matrix" values="0 0 0 0 0 0 0 0 0 0 0 0 0 0 0 0 0 0 0.25 0"/>
      <feBlend mode="normal" in2="BackgroundImageFix" result="effect1_dropShadow_22057_76"/>
      <feBlend mode="normal" in="SourceGraphic" in2="effect1_dropShadow_22057_76" result="shape"/>
    </filter>
    <filter id="filter17_d_22057_76" x="360.5" y="118.463" width="74" height="105" filterUnits="userSpaceOnUse" color-interpolation-filters="sRGB">
      <feFlood flood-opacity="0" result="BackgroundImageFix"/>
      <feColorMatrix in="SourceAlpha" type="matrix" values="0 0 0 0 0 0 0 0 0 0 0 0 0 0 0 0 0 0 127 0" result="hardAlpha"/>
      <feOffset dy="9"/>
      <feComposite in2="hardAlpha" operator="out"/>
      <feColorMatrix type="matrix" values="0 0 0 0 0 0 0 0 0 0 0 0 0 0 0 0 0 0 0.25 0"/>
      <feBlend mode="normal" in2="BackgroundImageFix" result="effect1_dropShadow_22057_76"/>
      <feBlend mode="normal" in="SourceGraphic" in2="effect1_dropShadow_22057_76" result="shape"/>
    </filter>
    <filter id="filter18_d_22057_76" x="87.5" y="80.4628" width="79.6289" height="76.756" filterUnits="userSpaceOnUse" color-interpolation-filters="sRGB">
      <feFlood flood-opacity="0" result="BackgroundImageFix"/>
      <feColorMatrix in="SourceAlpha" type="matrix" values="0 0 0 0 0 0 0 0 0 0 0 0 0 0 0 0 0 0 127 0" result="hardAlpha"/>
      <feOffset dy="9"/>
      <feComposite in2="hardAlpha" operator="out"/>
      <feColorMatrix type="matrix" values="0 0 0 0 0 0 0 0 0 0 0 0 0 0 0 0 0 0 0.25 0"/>
      <feBlend mode="normal" in2="BackgroundImageFix" result="effect1_dropShadow_22057_76"/>
      <feBlend mode="normal" in="SourceGraphic" in2="effect1_dropShadow_22057_76" result="shape"/>
    </filter>
    <filter id="filter19_d_22057_76" x="363.5" y="108.463" width="65" height="77.0002" filterUnits="userSpaceOnUse" color-interpolation-filters="sRGB">
      <feFlood flood-opacity="0" result="BackgroundImageFix"/>
      <feColorMatrix in="SourceAlpha" type="matrix" values="0 0 0 0 0 0 0 0 0 0 0 0 0 0 0 0 0 0 127 0" result="hardAlpha"/>
      <feOffset dy="9"/>
      <feComposite in2="hardAlpha" operator="out"/>
      <feColorMatrix type="matrix" values="0 0 0 0 0 0 0 0 0 0 0 0 0 0 0 0 0 0 0.25 0"/>
      <feBlend mode="normal" in2="BackgroundImageFix" result="effect1_dropShadow_22057_76"/>
      <feBlend mode="normal" in="SourceGraphic" in2="effect1_dropShadow_22057_76" result="shape"/>
    </filter>
    <filter id="filter20_d_22057_76" x="656.5" y="25.274" width="93" height="168.394" filterUnits="userSpaceOnUse" color-interpolation-filters="sRGB">
      <feFlood flood-opacity="0" result="BackgroundImageFix"/>
      <feColorMatrix in="SourceAlpha" type="matrix" values="0 0 0 0 0 0 0 0 0 0 0 0 0 0 0 0 0 0 127 0" result="hardAlpha"/>
      <feOffset dy="9"/>
      <feComposite in2="hardAlpha" operator="out"/>
      <feColorMatrix type="matrix" values="0 0 0 0 0 0 0 0 0 0 0 0 0 0 0 0 0 0 0.25 0"/>
      <feBlend mode="normal" in2="BackgroundImageFix" result="effect1_dropShadow_22057_76"/>
      <feBlend mode="normal" in="SourceGraphic" in2="effect1_dropShadow_22057_76" result="shape"/>
    </filter>
    <filter id="filter21_d_22057_76" x="664.465" y="0.5" width="77.0898" height="140.063" filterUnits="userSpaceOnUse" color-interpolation-filters="sRGB">
      <feFlood flood-opacity="0" result="BackgroundImageFix"/>
      <feColorMatrix in="SourceAlpha" type="matrix" values="0 0 0 0 0 0 0 0 0 0 0 0 0 0 0 0 0 0 127 0" result="hardAlpha"/>
      <feOffset dy="9"/>
      <feComposite in2="hardAlpha" operator="out"/>
      <feColorMatrix type="matrix" values="0 0 0 0 0 0 0 0 0 0 0 0 0 0 0 0 0 0 0.25 0"/>
      <feBlend mode="normal" in2="BackgroundImageFix" result="effect1_dropShadow_22057_76"/>
      <feBlend mode="normal" in="SourceGraphic" in2="effect1_dropShadow_22057_76" result="shape"/>
    </filter>
    <filter id="filter22_d_22057_76" x="1303.5" y="54.5743" width="79.3984" height="144.979" filterUnits="userSpaceOnUse" color-interpolation-filters="sRGB">
      <feFlood flood-opacity="0" result="BackgroundImageFix"/>
      <feColorMatrix in="SourceAlpha" type="matrix" values="0 0 0 0 0 0 0 0 0 0 0 0 0 0 0 0 0 0 127 0" result="hardAlpha"/>
      <feOffset dy="9"/>
      <feComposite in2="hardAlpha" operator="out"/>
      <feColorMatrix type="matrix" values="0 0 0 0 0 0 0 0 0 0 0 0 0 0 0 0 0 0 0.25 0"/>
      <feBlend mode="normal" in2="BackgroundImageFix" result="effect1_dropShadow_22057_76"/>
      <feBlend mode="normal" in="SourceGraphic" in2="effect1_dropShadow_22057_76" result="shape"/>
    </filter>
    <filter id="filter23_d_22057_76" x="1310.29" y="33.4628" width="65.8438" height="120.837" filterUnits="userSpaceOnUse" color-interpolation-filters="sRGB">
      <feFlood flood-opacity="0" result="BackgroundImageFix"/>
      <feColorMatrix in="SourceAlpha" type="matrix" values="0 0 0 0 0 0 0 0 0 0 0 0 0 0 0 0 0 0 127 0" result="hardAlpha"/>
      <feOffset dy="9"/>
      <feComposite in2="hardAlpha" operator="out"/>
      <feColorMatrix type="matrix" values="0 0 0 0 0 0 0 0 0 0 0 0 0 0 0 0 0 0 0.25 0"/>
      <feBlend mode="normal" in2="BackgroundImageFix" result="effect1_dropShadow_22057_76"/>
      <feBlend mode="normal" in="SourceGraphic" in2="effect1_dropShadow_22057_76" result="shape"/>
    </filter>
    <linearGradient id="paint0_linear_22057_76" x1="773.25" y1="442.161" x2="773.25" y2="582.674" gradientUnits="userSpaceOnUse">
      <stop stop-color="#E9EEF7"/>
      <stop offset="0.6" stop-color="#B2DFFF"/>
      <stop offset="1" stop-color="#76AFCF"/>
    </linearGradient>
    <linearGradient id="paint1_linear_22057_76" x1="773.25" y1="148.694" x2="773.25" y2="300.963" gradientUnits="userSpaceOnUse">
      <stop stop-color="#82BCDC"/>
      <stop offset="1" stop-color="#E9EEF7"/>
    </linearGradient>
  </defs>
</svg>
