<svg width="243" height="168" viewBox="0 0 243 168" fill="none" xmlns="http://www.w3.org/2000/svg">
  <ellipse cx="75.9703" cy="143.574" rx="70.5289" ry="9.72812" fill="black" fill-opacity="0.2"/>
  <mask id="path-2-outside-1_22057_76" maskUnits="userSpaceOnUse" x="45.707" y="67.4028" width="106" height="78" fill="black">
    <rect fill="white" x="45.707" y="67.4028" width="106" height="78"/>
    <path fill-rule="evenodd" clip-rule="evenodd" d="M116.055 69.2613C114.477 67.9495 112.134 68.1653 110.822 69.7433L76.5618 110.955L66.9832 103.897C65.3312 102.679 63.0052 103.032 61.7878 104.684C60.5705 106.336 60.9228 108.662 62.5748 109.879L71.8031 116.679L71.3962 117.169L50.4155 117.209C48.3634 117.213 46.7031 118.88 46.707 120.932C46.711 122.984 48.3777 124.644 50.4298 124.64L65.2086 124.612L57.7539 133.579C56.442 135.157 56.6578 137.5 58.2358 138.812C59.8138 140.124 62.1565 139.908 63.4683 138.33L74.8711 124.613L82.5498 124.599L92.8485 132.188L87.8841 138.159C86.5723 139.737 86.788 142.08 88.366 143.392C89.944 144.704 92.2867 144.488 93.5986 142.91L98.8411 136.604L102.205 139.082C103.857 140.3 106.183 139.947 107.4 138.295C108.617 136.643 108.265 134.317 106.613 133.1L103.6 130.879L108.899 124.505L132.571 140.659C134.266 141.816 136.577 141.38 137.734 139.685C138.891 137.99 138.454 135.678 136.759 134.521L130.334 130.136L125.485 105.64C125.43 105.367 125.34 105.11 125.219 104.873L149.2 76.0263C150.512 74.4483 150.296 72.1056 148.718 70.7938C147.14 69.482 144.798 69.6977 143.486 71.2757L143.316 71.4804C143.293 71.4784 143.27 71.4774 143.247 71.4774H117.339C117.193 70.6396 116.76 69.8475 116.055 69.2613ZM123.411 125.411L120.474 110.581L113.671 118.765L123.411 125.411ZM99.1839 124.567L95.044 124.575L97.6072 126.463L99.1839 124.567Z"/>
  </mask>
  <path fill-rule="evenodd" clip-rule="evenodd" d="M116.055 69.2613C114.477 67.9495 112.134 68.1653 110.822 69.7433L76.5618 110.955L66.9832 103.897C65.3312 102.679 63.0052 103.032 61.7878 104.684C60.5705 106.336 60.9228 108.662 62.5748 109.879L71.8031 116.679L71.3962 117.169L50.4155 117.209C48.3634 117.213 46.7031 118.88 46.707 120.932C46.711 122.984 48.3777 124.644 50.4298 124.64L65.2086 124.612L57.7539 133.579C56.442 135.157 56.6578 137.5 58.2358 138.812C59.8138 140.124 62.1565 139.908 63.4683 138.33L74.8711 124.613L82.5498 124.599L92.8485 132.188L87.8841 138.159C86.5723 139.737 86.788 142.08 88.366 143.392C89.944 144.704 92.2867 144.488 93.5986 142.91L98.8411 136.604L102.205 139.082C103.857 140.3 106.183 139.947 107.4 138.295C108.617 136.643 108.265 134.317 106.613 133.1L103.6 130.879L108.899 124.505L132.571 140.659C134.266 141.816 136.577 141.38 137.734 139.685C138.891 137.99 138.454 135.678 136.759 134.521L130.334 130.136L125.485 105.64C125.43 105.367 125.34 105.11 125.219 104.873L149.2 76.0263C150.512 74.4483 150.296 72.1056 148.718 70.7938C147.14 69.482 144.798 69.6977 143.486 71.2757L143.316 71.4804C143.293 71.4784 143.27 71.4774 143.247 71.4774H117.339C117.193 70.6396 116.76 69.8475 116.055 69.2613ZM123.411 125.411L120.474 110.581L113.671 118.765L123.411 125.411ZM99.1839 124.567L95.044 124.575L97.6072 126.463L99.1839 124.567Z" fill="#CED2A0"/>
  <path d="M110.822 69.7433L111.377 70.2041V70.2041L110.822 69.7433ZM116.055 69.2613L115.594 69.8157V69.8157L116.055 69.2613ZM76.5618 110.955L76.1341 111.536L76.6815 111.939L77.1162 111.416L76.5618 110.955ZM66.9832 103.897L66.5555 104.477H66.5555L66.9832 103.897ZM61.7878 104.684L62.3682 105.111L61.7878 104.684ZM62.5748 109.879L62.1471 110.459L62.5748 109.879ZM71.8031 116.679L72.3575 117.14L72.8462 116.552L72.2308 116.099L71.8031 116.679ZM71.3962 117.169L71.3976 117.89L71.7349 117.889L71.9506 117.63L71.3962 117.169ZM50.4155 117.209L50.4169 117.93H50.4169L50.4155 117.209ZM46.707 120.932L45.9861 120.933L46.707 120.932ZM50.4298 124.64L50.4311 125.361H50.4311L50.4298 124.64ZM65.2086 124.612L65.763 125.073L66.7479 123.888L65.2072 123.891L65.2086 124.612ZM57.7539 133.579L57.1995 133.118H57.1995L57.7539 133.579ZM63.4683 138.33L64.0227 138.791H64.0227L63.4683 138.33ZM74.8711 124.613L74.8698 123.892L74.5324 123.893L74.3167 124.152L74.8711 124.613ZM82.5498 124.599L82.9775 124.018L82.7861 123.877L82.5484 123.878L82.5498 124.599ZM92.8485 132.188L93.4028 132.649L93.8915 132.061L93.2761 131.607L92.8485 132.188ZM87.8841 138.159L87.3297 137.698L87.8841 138.159ZM93.5986 142.91L94.153 143.371L93.5986 142.91ZM98.8411 136.604L99.2688 136.023L98.7214 135.62L98.2867 136.143L98.8411 136.604ZM102.205 139.082L101.777 139.663L102.205 139.082ZM107.4 138.295L106.82 137.868L107.4 138.295ZM106.613 133.1L107.041 132.519L106.613 133.1ZM103.6 130.879L103.045 130.419L102.557 131.006L103.172 131.46L103.6 130.879ZM108.899 124.505L109.305 123.909L108.764 123.54L108.345 124.044L108.899 124.505ZM132.571 140.659L132.164 141.255L132.571 140.659ZM137.734 139.685L137.139 139.278L137.734 139.685ZM136.759 134.521L136.353 135.117L136.759 134.521ZM130.334 130.136L129.627 130.276L129.684 130.566L129.928 130.732L130.334 130.136ZM125.485 105.64L126.192 105.5V105.5L125.485 105.64ZM125.219 104.873L124.665 104.412L124.361 104.778L124.577 105.201L125.219 104.873ZM149.2 76.0263L149.755 76.4872V76.4872L149.2 76.0263ZM148.718 70.7938L148.257 71.3482V71.3482L148.718 70.7938ZM143.486 71.2757L144.04 71.7366L144.04 71.7366L143.486 71.2757ZM143.316 71.4804L143.251 72.1985L143.628 72.2324L143.87 71.9413L143.316 71.4804ZM117.339 71.4774L116.629 71.6014L116.733 72.1983H117.339V71.4774ZM123.411 125.411L123.004 126.007L124.46 127L124.118 125.271L123.411 125.411ZM120.474 110.581L121.182 110.441L120.888 108.956L119.92 110.12L120.474 110.581ZM113.671 118.765L113.117 118.304L112.61 118.913L113.265 119.36L113.671 118.765ZM95.044 124.575L95.0427 123.854L92.8561 123.858L94.6164 125.155L95.044 124.575ZM99.1839 124.567L99.7383 125.028L100.723 123.843L99.1825 123.846L99.1839 124.567ZM97.6072 126.463L97.1795 127.044L97.7269 127.447L98.1615 126.924L97.6072 126.463ZM111.377 70.2041C112.434 68.9323 114.322 68.7584 115.594 69.8157L116.516 68.7069C114.631 67.1405 111.834 67.3982 110.268 69.2824L111.377 70.2041ZM77.1162 111.416L111.377 70.2041L110.268 69.2824L76.0074 110.494L77.1162 111.416ZM66.5555 104.477L76.1341 111.536L76.9895 110.375L67.4109 103.316L66.5555 104.477ZM62.3682 105.111C63.3493 103.78 65.2241 103.496 66.5555 104.477L67.4109 103.316C65.4384 101.863 62.661 102.283 61.2074 104.256L62.3682 105.111ZM63.0025 109.299C61.671 108.318 61.3871 106.443 62.3682 105.111L61.2074 104.256C59.7539 106.229 60.1746 109.006 62.1471 110.459L63.0025 109.299ZM72.2308 116.099L63.0025 109.299L62.1471 110.459L71.3754 117.26L72.2308 116.099ZM71.9506 117.63L72.3575 117.14L71.2487 116.219L70.8418 116.708L71.9506 117.63ZM50.4169 117.93L71.3976 117.89L71.3948 116.448L50.4141 116.488L50.4169 117.93ZM47.428 120.93C47.4248 119.276 48.763 117.933 50.4169 117.93L50.4141 116.488C47.9639 116.493 45.9814 118.483 45.9861 120.933L47.428 120.93ZM50.4284 123.919C48.7745 123.922 47.4311 122.584 47.428 120.93L45.9861 120.933C45.9908 123.383 47.9809 125.366 50.4311 125.361L50.4284 123.919ZM65.2072 123.891L50.4284 123.919L50.4311 125.361L65.21 125.333L65.2072 123.891ZM58.3083 134.04L65.763 125.073L64.6542 124.151L57.1995 133.118L58.3083 134.04ZM58.6967 138.257C57.4249 137.2 57.251 135.312 58.3083 134.04L57.1995 133.118C55.6331 135.003 55.8908 137.8 57.7749 139.366L58.6967 138.257ZM62.9139 137.869C61.8567 139.141 59.9685 139.315 58.6967 138.257L57.7749 139.366C59.6591 140.933 62.4564 140.675 64.0227 138.791L62.9139 137.869ZM74.3167 124.152L62.9139 137.869L64.0227 138.791L75.4255 125.074L74.3167 124.152ZM82.5484 123.878L74.8698 123.892L74.8725 125.334L82.5512 125.32L82.5484 123.878ZM93.2761 131.607L82.9775 124.018L82.1221 125.179L92.4208 132.768L93.2761 131.607ZM88.4385 138.62L93.4028 132.649L92.2941 131.727L87.3297 137.698L88.4385 138.62ZM88.8269 142.837C87.5551 141.78 87.3812 139.892 88.4385 138.62L87.3297 137.698C85.7633 139.583 86.021 142.38 87.9052 143.946L88.8269 142.837ZM93.0442 142.449C91.9869 143.721 90.0987 143.895 88.8269 142.837L87.9052 143.946C89.7894 145.513 92.5866 145.255 94.153 143.371L93.0442 142.449ZM98.2867 136.143L93.0442 142.449L94.153 143.371L99.3955 137.065L98.2867 136.143ZM102.632 138.502L99.2688 136.023L98.4134 137.184L101.777 139.663L102.632 138.502ZM106.82 137.868C105.839 139.199 103.964 139.483 102.632 138.502L101.777 139.663C103.749 141.116 106.527 140.695 107.98 138.723L106.82 137.868ZM106.185 133.68C107.517 134.661 107.801 136.536 106.82 137.868L107.98 138.723C109.434 136.75 109.013 133.973 107.041 132.519L106.185 133.68ZM103.172 131.46L106.185 133.68L107.041 132.519L104.027 130.299L103.172 131.46ZM108.345 124.044L103.045 130.419L104.154 131.34L109.453 124.966L108.345 124.044ZM132.977 140.064L109.305 123.909L108.493 125.1L132.164 141.255L132.977 140.064ZM137.139 139.278C136.206 140.644 134.343 140.996 132.977 140.064L132.164 141.255C134.188 142.636 136.948 142.115 138.33 140.091L137.139 139.278ZM136.353 135.117C137.719 136.049 138.071 137.912 137.139 139.278L138.33 140.091C139.711 138.067 139.19 135.307 137.166 133.926L136.353 135.117ZM129.928 130.732L136.353 135.117L137.166 133.926L130.741 129.541L129.928 130.732ZM124.777 105.78L129.627 130.276L131.041 129.996L126.192 105.5L124.777 105.78ZM124.577 105.201C124.668 105.379 124.736 105.573 124.777 105.78L126.192 105.5C126.125 105.161 126.012 104.841 125.861 104.545L124.577 105.201ZM148.646 75.5654L124.665 104.412L125.774 105.334L149.755 76.4872L148.646 75.5654ZM148.257 71.3482C149.529 72.4055 149.703 74.2936 148.646 75.5654L149.755 76.4872C151.321 74.603 151.063 71.8058 149.179 70.2394L148.257 71.3482ZM144.04 71.7366C145.098 70.4648 146.986 70.2909 148.257 71.3482L149.179 70.2394C147.295 68.673 144.498 68.9307 142.931 70.8149L144.04 71.7366ZM143.87 71.9413L144.04 71.7366L142.931 70.8149L142.761 71.0195L143.87 71.9413ZM143.247 72.1983C143.249 72.1983 143.25 72.1984 143.251 72.1985L143.38 70.7624C143.336 70.7584 143.292 70.7564 143.247 70.7564V72.1983ZM117.339 72.1983H143.247V70.7564H117.339V72.1983ZM115.594 69.8157C116.163 70.2886 116.511 70.9258 116.629 71.6014L118.049 71.3533C117.875 70.3535 117.357 69.4065 116.516 68.7069L115.594 69.8157ZM124.118 125.271L121.182 110.441L119.767 110.721L122.703 125.551L124.118 125.271ZM119.92 110.12L113.117 118.304L114.225 119.226L121.029 111.042L119.92 110.12ZM113.265 119.36L123.004 126.007L123.817 124.816L114.077 118.169L113.265 119.36ZM95.0454 125.296L99.1853 125.288L99.1825 123.846L95.0427 123.854L95.0454 125.296ZM98.0348 125.883L95.4717 123.994L94.6164 125.155L97.1795 127.044L98.0348 125.883ZM98.6295 124.106L97.0528 126.003L98.1615 126.924L99.7383 125.028L98.6295 124.106Z" fill="black" mask="url(#path-2-outside-1_22057_76)"/>
  <rect x="113.219" y="67.1396" width="7.07074" height="90.0844" rx="3.53537" transform="rotate(39.7375 113.219 67.1396)" fill="#CED2A0" stroke="black" stroke-width="0.360471"/>
  <rect x="59.838" y="107.637" width="7.07074" height="56.2983" rx="3.53537" transform="rotate(-53.6135 59.838 107.637)" fill="#CED2A0" stroke="black" stroke-width="0.360471"/>
  <path d="M113.52 71.8461C113.623 71.726 113.773 71.6568 113.931 71.6568H143.245C143.694 71.6568 143.948 72.1729 143.673 72.5282L106.557 120.531C106.444 120.677 106.264 120.756 106.08 120.739L75.2594 117.907C74.8225 117.866 74.6128 117.35 74.8979 117.017L113.52 71.8461Z" fill="#DF8365" stroke="black" stroke-width="0.360471" stroke-linejoin="round"/>
  <rect x="119.372" y="104.041" width="5.5137" height="31.2189" rx="2.75685" transform="rotate(-11.1984 119.372 104.041)" fill="#CED2A0" stroke="black" stroke-width="0.360471"/>
  <rect x="145.894" y="68.6723" width="7.07074" height="94.0476" rx="3.53537" transform="rotate(39.7375 145.894 68.6723)" fill="#CED2A0" stroke="black" stroke-width="0.360471"/>
  <rect x="46.8986" y="124.466" width="7.07074" height="42.5956" rx="3.53537" transform="rotate(-90.1098 46.8986 124.466)" fill="#CED2A0" stroke="black" stroke-width="0.360471"/>
  <rect x="48.8091" y="122.643" width="3.89558" height="31.2559" rx="1.94779" transform="rotate(-90 48.8091 122.643)" fill="#FFD891" stroke="black" stroke-width="0.360471" stroke-linejoin="round"/>
  <rect x="64.6174" y="124.452" width="7.07074" height="44.333" rx="3.53537" transform="rotate(-90.1098 64.6174 124.452)" fill="#CED2A0" stroke="black" stroke-width="0.360471"/>
  <rect x="88.4966" y="110.358" width="7.07074" height="57.0261" rx="3.53537" transform="rotate(-55.6891 88.4966 110.358)" fill="#CED2A0" stroke="black" stroke-width="0.360471"/>
  <path d="M96.2745 23.0504C93.6282 22.521 90.1892 25.7825 89.9409 26.776C89.32 29.3838 90.7611 33.407 95.5295 33.1089C101.49 32.7364 101.862 24.1681 96.2745 23.0504Z" fill="#725D41" stroke="black" stroke-width="0.360471" stroke-linecap="round" stroke-linejoin="round"/>
  <path d="M64.8466 20.1275C67.4929 19.5982 70.9319 22.8597 71.1802 23.8531C71.8011 26.4609 70.36 30.4841 65.5916 30.1861C59.6311 29.8135 59.2592 21.2453 64.8466 20.1275Z" fill="#725D41" stroke="black" stroke-width="0.360471" stroke-linecap="round" stroke-linejoin="round"/>
  <path d="M18.5645 99.3173C23.5391 93.7215 34.0457 89.5392 38.7301 88.3901C52.9315 90.4178 54.0568 113.138 51.0295 113.805C24.8169 119.579 31.4328 134.648 26.139 133.702C21.733 132.915 4.0026 127.68 6.51286 124.666C8.52106 122.255 12.7748 120.006 14.7411 120.393C18.1445 118.237 13.5899 104.913 18.5645 99.3173Z" fill="#725D41" stroke="black" stroke-width="0.360471" stroke-linecap="round" stroke-linejoin="round"/>
  <path d="M15.0386 72.9697C22.3207 66.5808 38.2935 70.8954 61.6102 53.064C61.9874 52.7756 62.5473 52.9112 62.7127 53.3562C66.5305 63.6273 62.6775 76.484 49.6996 81.5382C36.3501 86.7372 30.3283 86.7536 18.8611 83.8714C18.0976 85.636 18.3966 86.4955 16.9169 87.4987C14.875 88.8831 5.83796 81.0417 15.0386 72.9697Z" fill="#725D41"/>
  <path d="M19.8972 80.7931C19.1862 82.5377 18.8611 83.8714 18.8611 83.8714M18.8611 83.8714C18.0976 85.636 18.3966 86.4955 16.9169 87.4987C14.875 88.8831 5.83796 81.0417 15.0386 72.9697C22.3207 66.5808 38.2935 70.8954 61.6102 53.064C61.9874 52.7756 62.5473 52.9112 62.7127 53.3562C66.5305 63.6273 62.6775 76.484 49.6996 81.5382C36.3501 86.7372 30.3283 86.7536 18.8611 83.8714Z" stroke="black" stroke-width="0.360471"/>
  <path d="M108.938 65.8922C107.15 56.6533 99.6245 47.6379 96.6436 35.3442L61.998 47.6379C61.998 66.6373 36.6997 76.0698 34.9596 89.991C34.0476 97.2871 36.4796 99.4151 36.4796 99.4151C27.6635 108.231 32.5274 124.647 29.4874 124.647C28.0975 124.647 22.5205 124.926 20.6714 126.775C16.7193 130.727 39.2153 143.8 41.9516 140.152C44.1405 137.233 53.8748 123.092 61.998 119.175C68.3315 116.122 76.0999 120.101 96.6436 117.047C109.249 115.173 111.173 77.4408 108.938 65.8922Z" fill="#725D41"/>
  <path d="M51.6798 92.727C46.2076 92.727 39.8236 96.071 36.4796 99.4151M36.4796 99.4151C27.6635 108.231 32.5274 124.647 29.4874 124.647C28.0975 124.647 22.5205 124.926 20.6714 126.775C16.7193 130.727 39.2153 143.8 41.9516 140.152C44.1405 137.233 53.8748 123.092 61.998 119.175C68.3315 116.122 76.0999 120.101 96.6436 117.047C109.249 115.173 111.173 77.4408 108.938 65.8922C107.15 56.6533 99.6245 47.6379 96.6436 35.3442L61.998 47.6379C61.998 66.6373 36.6997 76.0698 34.9596 89.991C34.0476 97.2871 36.4796 99.4151 36.4796 99.4151Z" stroke="black" stroke-width="0.360471" stroke-linecap="round" stroke-linejoin="round"/>
  <path d="M95.9039 42.4219C93.253 45.9565 73.1595 48.4479 62.381 50.5436C62.1413 50.5902 61.9502 50.7498 61.8596 50.9766C59.7178 56.3382 55.6197 66.7645 54.7258 70.8912C54.6037 71.4547 55.1712 71.7662 55.6385 71.4284C70.9631 60.351 95.9039 48.9705 95.9039 42.4219Z" fill="#B5966E" stroke="black" stroke-width="0.360471"/>
  <path d="M66.0868 23.4222C60.7223 25.8064 57.5185 33.8533 56.7734 40.1865C60.1263 51.7351 62.734 55.833 82.4785 50.6175C102.223 45.402 97.3799 35.3435 92.9095 28.2653C88.439 21.1871 72.7925 20.4419 66.0868 23.4222Z" fill="#725D41" stroke="black" stroke-width="0.360471" stroke-linecap="round" stroke-linejoin="round"/>
  <path d="M75.0916 32.04C75.0536 33.4077 76.1314 34.5472 77.4991 34.5853C78.8667 34.6233 80.0063 33.5455 80.0443 32.1779C80.0824 30.8102 79.0816 31.5969 77.7139 31.5589C76.3463 31.5208 75.1297 30.6724 75.0916 32.04Z" fill="black"/>
  <path d="M60.6893 30.2949C60.6512 31.6626 61.7291 32.8021 63.0967 32.8402C64.4644 32.8782 65.6039 31.8004 65.642 30.4327C65.68 29.0651 64.6792 29.8518 63.3116 29.8138C61.9439 29.7757 60.7273 28.9273 60.6893 30.2949Z" fill="black"/>
  <circle cx="62.3679" cy="31.2448" r="5.03527" fill="white" fill-opacity="0.21" stroke="black" stroke-width="0.360471"/>
  <path d="M69.8548 30.5793C68.0779 30.8755 61.3718 33.5259 55.0733 37.2145C54.994 37.2609 54.9207 37.3266 54.8655 37.4001C48.7598 45.5259 63.5514 50.3186 69.8548 49.2063C76.1879 48.0886 74.6977 43.6181 74.3252 37.285C73.9527 30.9518 72.09 30.2068 69.8548 30.5793Z" fill="#B5966E" stroke="black" stroke-width="0.360471"/>
  <path d="M54.9862 38C54.9481 39.3676 56.026 40.5072 57.3936 40.5453C58.7612 40.5833 59.9008 39.5055 59.9388 38.1378C59.9769 36.7702 58.9761 37.5569 57.6085 37.5188C56.2408 37.4808 55.0242 36.6324 54.9862 38Z" fill="black"/>
  <circle cx="76.5153" cy="31.9899" r="5.78035" fill="white" fill-opacity="0.21" stroke="black" stroke-width="0.360471"/>
  <path d="M11.4281 66.1195L8.82031 67.6096L17.7612 81.3935L40.8584 75.0603L41.231 67.2371L40.4859 65.3744L39.7408 63.5117C29.0118 63.5117 18.8788 70.9624 17.7612 73.5702C16.8671 70.2919 15.1534 69.0998 11.4281 66.1195Z" fill="white"/>
  <path d="M25.957 69.4723C28.3164 67.858 34.5253 64.7783 40.4859 65.3744M40.4859 65.3744L39.7408 63.5117C29.0118 63.5117 18.8788 70.9624 17.7612 73.5702C16.8671 70.2919 15.1534 69.0998 11.4281 66.1195L8.82031 67.6096L17.7612 81.3935L40.8584 75.0603L41.231 67.2371L40.4859 65.3744Z" stroke="black" stroke-width="0.360471"/>
  <path d="M41.6126 66.6166L19.4263 74.2545C19.315 74.2928 19.2294 74.3831 19.1971 74.4963L18.5783 76.662C18.5341 76.8167 18.3927 76.9234 18.2317 76.9234H15.5113C15.3122 76.9234 15.1508 76.762 15.1508 76.563V74.4406C15.1508 74.3597 15.1236 74.2811 15.0735 74.2175L7.51624 64.6257C7.24939 64.287 6.7208 64.6176 6.90861 65.0058L16.6257 85.0878C16.6358 85.1087 16.6479 85.1286 16.6619 85.1471L25.5818 97.0404H29.3072L49.0439 93.0199C49.2492 92.9781 49.3757 92.7707 49.3189 92.569L42.0769 66.8597C42.0207 66.6603 41.8084 66.5492 41.6126 66.6166Z" fill="#F5C142"/>
  <path d="M29.3072 97.0404L49.0439 93.0199C49.2492 92.9781 49.3757 92.7707 49.3189 92.569L42.0769 66.8597C42.0207 66.6603 41.8084 66.5492 41.6126 66.6166L19.4263 74.2545C19.315 74.2928 19.2294 74.3831 19.1971 74.4963L18.5783 76.662C18.5341 76.8167 18.3927 76.9234 18.2317 76.9234H15.5113C15.3122 76.9234 15.1508 76.762 15.1508 76.563V74.4406C15.1508 74.3597 15.1236 74.2811 15.0735 74.2175L7.51624 64.6257C7.24939 64.287 6.7208 64.6176 6.90861 65.0058L16.6257 85.0878C16.6359 85.1087 16.6479 85.1286 16.6619 85.1471L25.5818 97.0404M29.3072 97.0404H25.5818M29.3072 97.0404L20.3663 78.7861M25.5818 97.0404L15.8959 78.7861" stroke="black" stroke-width="0.360471" stroke-linejoin="round"/>
  <path d="M58.5457 74.6707C62.6408 73.8505 75.2378 59.6116 87.0533 52.5944C87.4694 52.3473 87.9987 52.5843 88.1046 53.0565L93.6126 77.6301C93.6403 77.7538 93.6347 77.8818 93.5806 77.9965C93.2014 78.8 91.1099 82.2962 81.6026 87.7885C67.9782 95.6593 66.4821 90.9368 50.1617 90.9368C39.6825 90.9368 36.5386 88.838 39.6827 83.5908C42.8268 78.3437 53.3055 75.7201 58.5457 74.6707Z" fill="#725D41"/>
  <path d="M87.892 52.1079C75.8396 58.9292 62.7378 73.8311 58.5457 74.6707C53.3056 75.7201 42.8268 78.3437 39.6827 83.5908C36.5387 88.838 39.6825 90.9368 50.1617 90.9368C66.4821 90.9368 67.9782 95.6593 81.6026 87.7885C92.5021 81.492 93.6549 77.8189 93.6549 77.8189" stroke="black" stroke-width="0.360471"/>
  <path d="M36.2852 85.6355C36.6577 84.8905 39.2654 83.7729 40.7556 83.7729L40.3831 84.8905C39.489 84.5924 37.7753 85.1388 36.2852 85.6355Z" fill="black" stroke="black" stroke-width="0.360471" stroke-linejoin="round"/>
  <path d="M36.2852 88.2435C36.6577 87.4984 39.2654 86.3809 40.7556 86.3809L40.3831 87.4984C39.489 87.2003 37.7753 87.7467 36.2852 88.2435Z" fill="black" stroke="black" stroke-width="0.360471" stroke-linejoin="round"/>
  <path d="M19.8141 85.7102C19.2157 86.225 17.0759 86.28 16.1724 85.7584L16.957 84.921C17.3501 85.4921 18.6623 85.6187 19.8141 85.7102Z" fill="black" stroke="black" stroke-width="0.360471" stroke-linejoin="round"/>
  <path d="M19.068 87.1999C18.4696 87.7148 16.3298 87.7697 15.4263 87.2481L16.2109 86.4107C16.604 86.9818 17.9162 87.1085 19.068 87.1999Z" fill="black" stroke="black" stroke-width="0.360471" stroke-linejoin="round"/>
  <path d="M37.4023 89.7338C38.8925 89.6847 39.6376 89.7338 41.1274 88.9888L41.8728 89.7338C40.7555 90.1064 38.8925 90.1064 37.4023 89.7338Z" fill="black" stroke="black" stroke-width="0.360471" stroke-linejoin="round"/>
  <path d="M106.374 56.2451C109.414 63.0345 113.427 82.9974 105.158 108.534C94.8222 107.115 70.1979 101.602 54.3897 90.9015C54.2884 87.6588 53.5385 80.2614 51.3497 76.6134C47.7017 77.5862 45.7763 78.4374 45.2696 78.7414L41.6216 66.2772L40.7096 66.5812L40.1016 64.1492L56.8218 56.2451C58.1391 58.2718 62.9626 62.5684 71.7179 63.5412L106.374 56.2451Z" fill="#D73F3F"/>
  <path d="M54.3897 90.9015C70.1979 101.602 94.8222 107.115 105.158 108.534C113.427 82.9974 109.414 63.0345 106.374 56.2451L71.7179 63.5412M54.3897 90.9015C54.2884 87.6588 53.5385 80.2614 51.3497 76.6134M54.3897 90.9015C54.3897 90.9015 67.0971 93.4552 76.582 90.2935C81.1421 88.1655 90.931 83.1798 93.6062 80.2614M51.3497 76.6134C53.3764 75.8027 60.2874 72.0533 71.7179 63.5412M51.3497 76.6134C47.7017 77.5862 45.7763 78.4374 45.2696 78.7414M71.7179 63.5412C62.9626 62.5684 58.1391 58.2718 56.8218 56.2451L40.1016 64.1492L40.7096 66.5812L41.6216 66.2772L45.2696 78.7414M45.2696 78.7414C46.587 75.7014 50.4985 67.9189 55.6058 61.1092" stroke="black" stroke-width="0.360471" stroke-linecap="round" stroke-linejoin="round"/>
  <path d="M84.7884 107.014C68.737 103.609 53.5773 94.8534 48.0039 90.9013C53.8408 90.1717 58.1374 91.2053 59.556 91.8133C67.4601 96.9814 91.1724 103.061 97.8605 104.582C104.549 106.102 108.197 105.19 107.589 108.838C106.981 112.486 104.853 111.27 84.7884 107.014Z" fill="white" stroke="black" stroke-width="0.360471" stroke-linecap="round" stroke-linejoin="round"/>
  <path d="M108.19 96.9818C101.502 96.6778 84.5787 92.2191 77.1812 89.9897C74.0196 91.6922 69.3785 92.1178 67.4531 92.1178C74.2628 97.4682 96.4348 102.049 106.67 103.67L108.19 96.9818Z" fill="black" stroke="black" stroke-width="0.360471" stroke-linecap="round" stroke-linejoin="round"/>
  <path d="M57.1191 56.5493C55.6599 53.3877 57.7271 49.1519 58.9431 47.4292C62.5913 52.7797 66.7458 53.5093 68.367 53.2053L64.719 62.3254C62.7937 61.7174 58.5783 59.7109 57.1191 56.5493Z" fill="white" stroke="black" stroke-width="0.360471" stroke-linecap="round" stroke-linejoin="round"/>
  <path d="M98.0738 39.7552C102.847 37.8775 108.672 44.0188 109.055 50.6959C109.439 57.3729 101.504 59.0508 82.0117 62.2972C70.8513 64.1559 63.0594 65.919 64.4328 58.4343C65.8062 50.9496 76.033 48.4263 98.0738 39.7552Z" fill="white" stroke="black" stroke-width="0.360471" stroke-linecap="round" stroke-linejoin="round"/>
  <rect x="88.3794" y="110.065" width="7.07074" height="57.0261" rx="3.53537" transform="rotate(-55.6891 88.3794 110.065)" fill="#CED2A0" stroke="black" stroke-width="0.360471"/>
  <path d="M11.1777 120.337C6.29035 121.698 3.27648 123.495 2.38047 124.224C-1.77378 126.498 17.2869 137.83 22.4186 136.372C26.524 135.206 30.6457 126.978 32.1933 123.01C26.8987 119.365 18.8181 112.266 16.0811 111.877C13.3442 111.488 12.7371 116.741 11.1777 120.337Z" fill="#D73F3F" stroke="black" stroke-width="0.360471" stroke-linecap="round" stroke-linejoin="round"/>
  <path d="M16.3858 108.837C14.6834 108.837 14.2578 111.269 14.2578 112.485C20.0947 114.431 25.81 119.173 27.938 121.301C29.6607 119.882 32.498 116.68 30.066 115.221C27.026 113.397 18.5139 108.837 16.3858 108.837Z" fill="white" stroke="black" stroke-width="0.360471" stroke-linecap="round" stroke-linejoin="round"/>
  <path d="M27.6445 127.867C22.239 128.717 17.6231 130.674 18.1896 134.278C19.1056 140.105 43.2797 148.419 46.2527 142.482C49.7658 135.467 53.8966 126.509 53.8966 126.509C46.6815 123.027 33.594 116.161 30.1963 116.695C28.3945 116.978 28.1846 123.474 27.6445 127.867Z" fill="#D73F3F" stroke="black" stroke-width="0.360471" stroke-linecap="round" stroke-linejoin="round"/>
  <path d="M29.8761 112.743C27.676 112.843 25.749 118.741 27.7701 118.921C35.2611 119.59 47.4121 124.45 52.1359 127.092C56.1858 129.357 55.2638 129.37 56.9108 124.187C58.5577 119.004 32.6261 112.619 29.8761 112.743Z" fill="white" stroke="black" stroke-width="0.360471" stroke-linecap="round" stroke-linejoin="round"/>
  <path d="M55.2969 73.5728C53.8377 73.3296 51.5144 74.1809 50.1289 75.0929C48.7434 76.0049 51.9533 90.293 52.5609 91.2051C54.0813 93.4868 56.9812 93.0435 58.641 92.4211C61.073 91.5091 57.1209 73.8768 55.2969 73.5728Z" fill="white" stroke="black" stroke-width="0.360471" stroke-linecap="round" stroke-linejoin="round"/>
  <path d="M108.337 25.5681C107.162 23.6701 104.949 23.1363 103.046 23.9007C101.317 24.9929 100.344 26.3233 100.552 28.2988C100.76 30.2743 102.732 32.8055 105.799 31.8622C108.866 30.9189 109.804 27.9407 108.337 25.5681Z" fill="white" stroke="black" stroke-width="0.360471"/>
  <path d="M88.2124 7.11313C77.5228 5.89899 67.9856 15.1779 64.4307 18.1623C73.0004 20.2476 91.7459 29.0806 100.047 33.2364C100.275 32.0254 99.9271 28 99.1957 23.9708C103.207 26.4666 104.579 27.0617 104.397 25.61C102.644 20.4394 98.902 8.32727 88.2124 7.11313Z" fill="#D73F3F"/>
  <path d="M99.1957 23.9708C103.207 26.4666 104.579 27.0617 104.397 25.61C102.644 20.4394 98.902 8.32727 88.2124 7.11313C77.5228 5.89899 67.9856 15.1779 64.4307 18.1623C73.0004 20.2476 91.7459 29.0806 100.047 33.2364C100.275 32.0254 99.9271 28 99.1957 23.9708ZM99.1957 23.9708C99.0905 21.3383 98.4644 19.9413 97.94 17.9766" stroke="black" stroke-width="0.360471"/>
  <path d="M84.4451 23.1702C93.9728 27.3663 99.0669 30.4153 100.639 32.0208C102.804 33.9387 100.073 38.503 97.6791 37.7483C95.1111 36.9389 91.682 36.344 78.1014 31.5777C62.096 25.9603 61.1848 26.0894 60.3138 25.1905C59.4428 24.2916 59.3579 17.9689 63.0737 16.4342C66.7894 14.8994 76.1337 19.5097 84.4451 23.1702Z" fill="white" stroke="black" stroke-width="0.360471"/>
  <path d="M229.484 79.1131L226.17 62.1552C226.084 61.7114 225.71 61.3812 225.259 61.3429C224.439 61.2732 223.231 61.1532 223.076 61.0398C223.076 61.0398 222.326 60.5328 221.583 60.1018C221.062 59.8 220.446 60.1033 220.301 60.6871L214.797 82.8412C214.778 82.9179 214.768 82.9966 214.767 83.0756L214.457 128.588C214.457 128.655 214.463 128.722 214.476 128.788L219.641 155.095C219.754 155.67 220.335 156.025 220.899 155.863L228.813 153.587L232.792 152.442L236.977 151.238C237.439 151.105 237.742 150.661 237.696 150.182L236.767 140.494C236.757 140.387 236.729 140.283 236.686 140.184L235.888 138.386C235.793 138.17 235.936 137.924 236.171 137.902C236.361 137.884 236.5 137.715 236.482 137.525L235.531 127.605C235.506 127.341 235.377 127.098 235.172 126.929L233.733 125.742C233.246 125.34 233.248 124.594 233.738 124.195L234.664 123.44C234.934 123.22 235.07 122.877 235.024 122.532L230.032 85.1122C230.022 85.0393 230.004 84.9676 229.979 84.8986L228.929 82.0493C228.854 81.8452 228.847 81.6222 228.91 81.4141L229.46 79.5944C229.507 79.4383 229.516 79.2731 229.484 79.1131Z" fill="#7A4A12"/>
  <path d="M228.813 153.587L220.899 155.863C220.335 156.025 219.754 155.67 219.641 155.095L214.476 128.788C214.463 128.722 214.457 128.655 214.457 128.588L214.767 83.0756C214.768 82.9966 214.778 82.9179 214.797 82.8412L220.301 60.6871C220.446 60.1033 221.062 59.8 221.583 60.1018C222.326 60.5328 223.076 61.0398 223.076 61.0398M228.813 153.587L226.749 117.316M228.813 153.587L232.792 152.442M231.106 140.333L232.792 152.442M232.792 152.442L236.977 151.238C237.439 151.105 237.742 150.661 237.696 150.182L236.767 140.494C236.757 140.387 236.729 140.283 236.686 140.184L235.888 138.386C235.793 138.17 235.936 137.924 236.171 137.902V137.902C236.361 137.884 236.5 137.715 236.482 137.525L235.531 127.605C235.506 127.341 235.377 127.098 235.172 126.929L233.733 125.742C233.246 125.34 233.248 124.594 233.738 124.195L234.664 123.44C234.934 123.22 235.07 122.877 235.024 122.532L230.032 85.1122C230.022 85.0393 230.004 84.9676 229.979 84.8986L228.929 82.0493C228.854 81.8452 228.847 81.6222 228.91 81.4141L229.46 79.5944C229.507 79.4383 229.516 79.2731 229.484 79.1131L226.17 62.1552C226.084 61.7114 225.71 61.3812 225.259 61.3429C224.439 61.2732 223.231 61.1532 223.076 61.0398M223.076 61.0398L225.66 78.4672" stroke="black" stroke-linecap="round" stroke-linejoin="round"/>
  <path d="M102.933 62.5911L219.968 59.4831C220.53 59.4682 220.994 59.9197 220.995 60.4822L221.005 76.7231C221.005 76.8135 220.993 76.9035 220.969 76.9906L219.709 81.5427C219.673 81.6725 219.663 81.8082 219.681 81.9416L220.219 85.9776C220.225 86.0261 220.228 86.0749 220.228 86.1237L219.66 126.714C219.656 126.994 219.536 127.259 219.327 127.446L217.394 129.176C216.943 129.579 216.951 130.288 217.411 130.681L220.028 132.919L220.071 154.955C220.072 155.518 219.61 155.97 219.047 155.957L96.6575 153.068C96.0704 153.055 95.6216 152.54 95.6874 151.957L97.7682 133.494C97.7984 133.226 97.9353 132.982 98.148 132.817L101.461 130.239L98.3273 125.883C98.19 125.692 98.1243 125.459 98.1418 125.224L101.367 82.0562C101.382 81.8501 101.461 81.6538 101.593 81.4943L103.618 79.0395L101.136 76.3159C100.947 76.1087 100.854 75.8318 100.879 75.5526L101.964 63.5011C102.009 62.9958 102.426 62.6046 102.933 62.5911Z" fill="#BC9549"/>
  <path d="M103.618 79.0395L101.136 76.3159C100.947 76.1087 100.854 75.8318 100.879 75.5526L101.964 63.5011C102.009 62.9958 102.426 62.6046 102.933 62.5911L219.968 59.4831C220.53 59.4682 220.994 59.9197 220.995 60.4822L221.005 76.7231C221.005 76.8135 220.993 76.9035 220.969 76.9906L219.709 81.5427C219.673 81.6725 219.663 81.8082 219.681 81.9416L220.219 85.9776C220.225 86.0261 220.228 86.0749 220.228 86.1237L219.66 126.714C219.656 126.994 219.536 127.259 219.327 127.446L217.394 129.176C216.943 129.579 216.951 130.288 217.411 130.681L220.028 132.919M103.618 79.0395L101.593 81.4943C101.461 81.6538 101.382 81.8501 101.367 82.0562L98.1418 125.224C98.1243 125.459 98.19 125.692 98.3273 125.883L101.461 130.239M103.618 79.0395C104.518 79.782 106.372 79.5434 111.628 79.0395M101.461 130.239L98.148 132.817C97.9353 132.982 97.7984 133.226 97.7682 133.494L95.6874 151.957C95.6216 152.54 96.0704 153.055 96.6575 153.068L219.047 155.957C219.61 155.97 220.072 155.518 220.071 154.955L220.028 132.919M101.461 130.239L109.45 129.938M220.028 132.919C214.405 131.838 205.246 131.063 203.149 129.938M157.253 68.8819C146.967 68.2104 116.884 66.9935 111.628 67.4974" stroke="black" stroke-linecap="round" stroke-linejoin="round"/>
  <path d="M109.638 147.676L113.227 61.5396L216.791 61.5396L213.202 147.676L109.638 147.676Z" fill="#9F9F9F" stroke="black"/>
  <path d="M105.292 145.498L110.316 60.0874L213.879 60.0874L208.855 145.498L105.292 145.498Z" fill="#9F9F9F" stroke="black"/>
  <path d="M101.664 143.319L107.405 58.6348L210.967 58.6348L205.226 143.319L101.664 143.319Z" fill="#F9F9F9" stroke="black"/>
  <ellipse cx="125.224" cy="70.2867" rx="3.27861" ry="4.09827" fill="black"/>
  <ellipse cx="193.486" cy="70.2867" rx="3.27861" ry="4.09827" fill="black"/>
  <path d="M123.588 51.4345C119.695 51.4345 116.211 54.9152 116.211 59.6311C116.211 64.3469 119.695 67.8276 123.588 67.8276C124.946 67.8276 126.047 68.9285 126.047 70.2865C126.047 71.6446 124.946 72.7455 123.588 72.7455C116.616 72.7455 111.293 66.6849 111.293 59.6311C111.293 52.5772 116.616 46.5166 123.588 46.5166C129.783 46.5166 134.676 51.3023 135.69 57.318C135.787 57.8969 135.323 58.4016 134.736 58.4016H131.759C131.258 58.4016 130.841 58.0281 130.726 57.5401C129.877 53.9219 126.878 51.4345 123.588 51.4345Z" fill="#BC9549" stroke="black" stroke-linecap="round" stroke-linejoin="round"/>
  <path d="M191.846 51.4345C187.953 51.4345 184.469 54.9152 184.469 59.6311C184.469 64.3469 187.953 67.8276 191.846 67.8276C193.204 67.8276 194.305 68.9285 194.305 70.2865C194.305 71.6446 193.204 72.7455 191.846 72.7455C184.874 72.7455 179.551 66.6849 179.551 59.6311C179.551 52.5772 184.874 46.5166 191.846 46.5166C198.041 46.5166 202.934 51.3023 203.947 57.318C204.045 57.8969 203.581 58.4016 202.994 58.4016H200.017C199.516 58.4016 199.098 58.0281 198.984 57.5401C198.135 53.9219 195.136 51.4345 191.846 51.4345Z" fill="#BC9549" stroke="black" stroke-linecap="round" stroke-linejoin="round"/>
  <path d="M209.321 146.02C187.103 146.586 171.236 146.029 165.191 157.851C165.097 158.034 165.026 158.243 165.027 158.448C165.063 166.613 215.329 165.206 233.754 163.799C252.415 162.374 237.312 145.308 209.321 146.02Z" fill="url(#paint0_linear_22057_76)" stroke="#8B98BD"/>
  <path d="M90.4006 139.485C78.6273 140.052 70.2298 139.491 67.0578 151.423C67.0278 151.536 67.006 151.66 67.0021 151.777C66.7246 160.094 93.5204 158.679 103.309 157.264C113.167 155.839 105.188 138.773 90.4006 139.485Z" fill="url(#paint1_linear_22057_76)" stroke="#8B98BD"/>
  <defs>
    <linearGradient id="paint0_linear_22057_76" x1="202.38" y1="145.573" x2="198.108" y2="168.916" gradientUnits="userSpaceOnUse">
      <stop stop-color="white"/>
      <stop offset="1" stop-color="#C4C7CB"/>
    </linearGradient>
    <linearGradient id="paint1_linear_22057_76" x1="86.7333" y1="139.038" x2="79.2724" y2="160.579" gradientUnits="userSpaceOnUse">
      <stop stop-color="white"/>
      <stop offset="1" stop-color="#C4C7CB"/>
    </linearGradient>
  </defs>
</svg>
