<svg width="27" height="16" viewBox="0 0 27 16" fill="none" xmlns="http://www.w3.org/2000/svg">
  <g filter="url(#filter0_d_27056_4724)">
    <ellipse cx="10.5" cy="5" rx="10.5" ry="5" fill="#FFFDEB"/>
    <path d="M20.5 5C20.5 6.07642 19.5662 7.20004 17.7097 8.0841C15.8904 8.95041 13.342 9.5 10.5 9.5C7.65802 9.5 5.1096 8.95041 3.29035 8.0841C1.4338 7.20004 0.5 6.07642 0.5 5C0.5 3.92358 1.4338 2.79996 3.29035 1.9159C5.1096 1.04959 7.65802 0.5 10.5 0.5C13.342 0.5 15.8904 1.04959 17.7097 1.9159C19.5662 2.79996 20.5 3.92358 20.5 5Z" stroke="black"/>
  </g>
  <defs>
    <filter id="filter0_d_27056_4724" x="0" y="0" width="27" height="16" filterUnits="userSpaceOnUse" color-interpolation-filters="sRGB">
      <feFlood flood-opacity="0" result="BackgroundImageFix"/>
      <feColorMatrix in="SourceAlpha" type="matrix" values="0 0 0 0 0 0 0 0 0 0 0 0 0 0 0 0 0 0 127 0" result="hardAlpha"/>
      <feOffset dx="6" dy="6"/>
      <feComposite in2="hardAlpha" operator="out"/>
      <feColorMatrix type="matrix" values="0 0 0 0 0 0 0 0 0 0 0 0 0 0 0 0 0 0 0.25 0"/>
      <feBlend mode="normal" in2="BackgroundImageFix" result="effect1_dropShadow_27056_4724"/>
      <feBlend mode="normal" in="SourceGraphic" in2="effect1_dropShadow_27056_4724" result="shape"/>
    </filter>
  </defs>
</svg>
