<svg width="155" height="203" viewBox="0 0 155 203" fill="none" xmlns="http://www.w3.org/2000/svg">
  <g filter="url(#filter0_d_27056_6516)">
    <path d="M5.71289 154.647V75.3562L81.1165 98.2086V181.654L5.71289 154.647Z" fill="#F25E82" stroke="#471C1C" stroke-width="2" stroke-linejoin="round"/>
    <path d="M141.859 149.747V74.833L81.1172 98.0702V181.655L141.859 149.747Z" fill="#C93357" stroke="#471C1C" stroke-width="2" stroke-linejoin="round"/>
    <path d="M128.759 94.0255C119.926 86.4347 102.742 103.261 95.2539 112.623L102.488 118.696C107.818 109.207 119.621 101.237 119.621 106.171C119.621 110.118 108.199 118.949 102.488 122.871V137.293L113.149 131.221V125.907C122.033 118.443 137.592 101.616 128.759 94.0255Z" fill="#D7A0B6"/>
    <path d="M102.488 152.855V141.468L113.149 135.775V147.921L102.488 152.855Z" fill="#D7A0B6"/>
    <path d="M128.759 94.0255C119.926 86.4347 102.742 103.261 95.2539 112.623L102.488 118.696C107.818 109.207 119.621 101.237 119.621 106.171C119.621 110.118 108.199 118.949 102.488 122.871V137.293L113.149 131.221V125.907C122.033 118.443 137.592 101.616 128.759 94.0255Z" stroke="#471C1C" stroke-width="2"/>
    <path d="M102.488 152.855V141.468L113.149 135.775V147.921L102.488 152.855Z" stroke="#471C1C" stroke-width="2"/>
    <path d="M1 74.394V55.3951L76.9903 32.9418L145 55.3951V74.394L81.1542 98.9199L1 74.394Z" fill="#F57BAC" stroke="#471C1C" stroke-width="2" stroke-linejoin="round"/>
    <path d="M81.1172 98.9197V81.673L145.001 57.2906V74.4293L81.1172 98.9197Z" fill="#D0235C" stroke="#471C1C" stroke-width="2"/>
    <path d="M81.1161 98.9199V81.6028L1.52344 54.9344V73.9833L81.1161 98.9199Z" fill="#E12969" stroke="#471C1C" stroke-width="2" stroke-linejoin="round"/>
    <path d="M49.7122 100.041C40.3414 96.6152 31.1363 99.3273 27.7051 101.112L34.4492 112.531C43.678 107.178 53.6166 112.888 53.9716 115.742C54.2555 118.026 41.075 118.121 34.4492 117.883V133.228L46.5176 136.44V130.016C52.9067 129.66 65.827 127.233 66.3949 120.381C67.1048 111.817 61.4256 104.323 49.7122 100.041Z" fill="#FCD2E3"/>
    <path d="M34.4492 148.573V136.44L46.5176 140.008V152.855L34.4492 148.573Z" fill="#FCD2E3"/>
    <path d="M49.7122 100.041C40.3414 96.6152 31.1363 99.3273 27.7051 101.112L34.4492 112.531C43.678 107.178 53.6166 112.888 53.9716 115.742C54.2555 118.026 41.075 118.121 34.4492 117.883V133.228L46.5176 136.44V130.016C52.9067 129.66 65.827 127.233 66.3949 120.381C67.1048 111.817 61.4256 104.323 49.7122 100.041Z" stroke="#471C1C" stroke-width="2"/>
    <path d="M34.4492 148.573V136.44L46.5176 140.008V152.855L34.4492 148.573Z" stroke="#471C1C" stroke-width="2"/>
    <path d="M24.6198 60.1208L53.3075 48.3932C55.0511 47.6804 57.0233 47.8367 58.6722 48.7474C60.5589 49.7895 62.7254 50.9048 64.3223 51.5286C65.2679 51.898 66.0138 52.0951 66.3838 52.0026C68.033 51.5903 51.1289 60.6608 50.9227 81.2756C50.7974 93.8076 51.5371 101.34 52.201 105.049C52.4648 106.522 52.0415 108.111 50.9227 109.105C47.46 106.797 39.7606 100.288 34.9946 91.7891L20.2261 96.6677C18.9366 97.0937 17.5181 96.8063 16.4961 95.912C17.3197 86.5354 19.6037 67.7075 22.5401 61.8543C22.9608 61.0157 23.7514 60.4759 24.6198 60.1208Z" fill="#FF888A"/>
    <path d="M50.9227 109.105V109.105C52.0415 108.111 52.4648 106.522 52.201 105.049C51.5371 101.34 50.7974 93.8076 50.9227 81.2756C51.1289 60.6608 68.033 51.5903 66.3838 52.0026C66.0138 52.0951 65.2679 51.898 64.3223 51.5286M50.9227 109.105C47.46 106.797 39.7606 100.288 34.9946 91.7891M50.9227 109.105C48.9987 99.2104 46.1401 77.1938 50.0981 68.2883C54.0562 59.3827 61.2301 53.4045 64.3223 51.5286M16.4961 95.912L32.0343 90.6108C33.1689 90.2237 34.4082 90.7434 34.9946 91.7891V91.7891M16.4961 95.912C17.3197 86.5354 19.6037 67.7075 22.5401 61.8543C22.9608 61.0157 23.7514 60.4759 24.6198 60.1208L53.3075 48.3932C55.0511 47.6804 57.0233 47.8367 58.6722 48.7474C60.5589 49.7895 62.7254 50.9048 64.3223 51.5286M16.4961 95.912V95.912C17.5181 96.8063 18.9366 97.0936 20.2261 96.6677L34.9946 91.7891" stroke="#471C1C" stroke-width="2" stroke-linecap="round"/>
    <path d="M119.745 64.0826L82.3636 46.8329C80.5681 46.0044 78.4854 46.1232 76.7529 47.0762C74.9013 48.0947 72.8051 49.1689 71.2493 49.7767C70.3037 50.1461 69.5578 50.3432 69.1878 50.2507C67.5387 49.8384 95.1621 67.2909 95.3683 87.9056C95.4936 100.438 94.7539 107.97 94.0899 111.679C93.8262 113.152 94.2495 114.741 95.3683 115.736C98.831 113.427 106.53 106.918 111.296 98.4191L126.065 103.298C127.354 103.724 128.773 103.436 129.795 102.542C128.963 93.0762 124.844 71.6661 121.618 65.6885C121.214 64.9417 120.516 64.4382 119.745 64.0826Z" fill="#FF888A"/>
    <path d="M95.3683 115.736V115.736C94.2495 114.741 93.8262 113.152 94.0899 111.679C94.7539 107.97 95.4936 100.438 95.3683 87.9056C95.1621 67.2909 67.5387 49.8384 69.1878 50.2507C69.5578 50.3432 70.3037 50.1461 71.2493 49.7767M95.3683 115.736C98.831 113.427 106.53 106.918 111.296 98.4191M95.3683 115.736C97.2923 105.84 100.151 83.8239 96.1928 74.9183C92.2348 66.0128 74.3415 51.6526 71.2493 49.7767M129.795 102.542L114.257 97.2408C113.122 96.8537 111.883 97.3735 111.296 98.4191V98.4191M129.795 102.542C128.963 93.0762 124.844 71.6661 121.618 65.6885C121.214 64.9417 120.516 64.4382 119.745 64.0826L82.3636 46.8329C80.5681 46.0044 78.4854 46.1232 76.7529 47.0762C74.9013 48.0947 72.8051 49.1689 71.2493 49.7767M129.795 102.542V102.542C128.773 103.436 127.354 103.724 126.065 103.298L111.296 98.4191" stroke="#471C1C" stroke-width="2" stroke-linecap="round"/>
    <path d="M72.9809 44.3751C69.8475 46.8488 65.9718 47.6734 69.0641 42.932C73.8055 37.1599 84.0304 25.327 89.4727 21.6988C94.915 18.0706 98.8868 22.1111 100.192 24.5849C86.9989 24.3787 76.8977 41.2829 72.9809 44.3751Z" fill="#CE494D" stroke="#471C1C" stroke-width="2" stroke-linecap="round"/>
    <path d="M83.2876 41.6953C76.8558 42.355 71.2623 44.9937 69.2695 46.2305C70.7813 46.2305 74.5881 46.7253 77.7216 48.7043C81.6384 51.1781 87.4105 67.0514 97.0994 65.4023C104.851 64.0829 104.589 43.8255 103.49 33.8617C99.4358 36.198 89.7194 41.0356 83.2876 41.6953Z" fill="#CE494D" stroke="#471C1C" stroke-width="2" stroke-linecap="round"/>
    <path d="M65.3527 9.12403C70.7949 16.0506 70.5063 31.1131 69.6818 37.7785L59.5805 39.4277C59.9103 34.6451 48.7234 24.6538 43.0887 20.256C42.058 22.9359 40.8623 29.6563 44.3256 35.0986C47.7889 40.5409 54.5643 41.3517 57.519 41.0769C56.9328 42.0149 56.5028 42.9285 56.1922 43.7568C55.6288 45.2585 55.4576 46.4794 55.4576 47.0551C50.7162 45.406 35.8736 49.7351 26.5969 47.0551C17.3203 44.3752 12.3728 27.6773 13.8158 16.3392C15.2588 5.00105 23.7109 4.79491 26.5969 5.2072C27.3213 5.23175 28.2737 5.3765 29.4201 5.68048C32.6884 6.26444 37.4338 7.17848 39.9965 7.68097C41.7144 7.13125 46.2634 5.37214 50.7162 2.73346C56.2822 -0.564904 58.5498 0.465833 65.3527 9.12403Z" fill="#FF888A"/>
    <path d="M39.9965 7.68097C41.7144 7.13125 46.2634 5.37214 50.7162 2.73346C56.2822 -0.564904 58.5498 0.465833 65.3527 9.12403C70.7949 16.0506 70.5063 31.1131 69.6818 37.7785L59.5805 39.4277C59.9103 34.6451 48.7234 24.6538 43.0887 20.256M39.9965 7.68097C41.5083 8.16198 45.1502 8.8354 47.624 7.68097M39.9965 7.68097C36.492 6.99381 28.9058 5.53704 26.5969 5.2072M26.5969 5.2072C23.7109 4.79491 15.2588 5.00105 13.8158 16.3392C12.3728 27.6773 17.3203 44.3752 26.5969 47.0551C35.8736 49.7351 50.7162 45.406 55.4576 47.0551C55.4576 46.4794 55.6288 45.2585 56.1921 43.7568M26.5969 5.2072C30.6512 5.34463 41.8518 9.24769 54.2207 23.7605M43.0887 20.256C42.058 22.9359 40.8623 29.6563 44.3256 35.0986C47.7889 40.5409 54.5642 41.3517 57.519 41.0769C56.9328 42.0148 56.5028 42.9285 56.1921 43.7568M43.0887 20.256C39.1032 16.4766 29.6479 9.37138 23.7109 11.1855C16.2895 13.4531 18.351 21.0806 19.1756 27.265C20.0002 33.4494 21.4432 42.3137 30.7199 43.7568C39.9965 45.1998 47.0316 41.283 56.1921 43.7568" stroke="#471C1C" stroke-width="2" stroke-linecap="round"/>
    <path d="M44.3268 35.0986C47.7901 40.5409 54.5655 41.3517 57.5203 41.0768C56.934 42.0148 56.5041 42.9285 56.1934 43.7568C47.0329 41.283 39.9978 45.1998 30.7211 43.7568C21.4445 42.3137 20.0015 33.4494 19.1769 27.265C18.3523 21.0805 16.2908 13.4531 23.7121 11.1855C29.6492 9.37137 39.1044 16.4766 43.09 20.256C42.0592 22.9359 40.8636 29.6563 44.3268 35.0986Z" fill="#CE494D" stroke="#471C1C" stroke-width="2" stroke-linecap="round"/>
    <path d="M109.88 14.7464C103.464 13.3943 97.1403 13.6534 94.2129 14.0716C96.8241 14.8962 102.912 19.885 106.376 33.2433C109.839 46.6016 104.108 61.7603 100.81 67.6699C103.352 63.3408 110.416 54.7239 118.332 54.8888C128.227 55.0949 133.793 52.415 136.885 39.2216C139.978 26.0281 133.587 13.247 127.815 9.74246C123.197 6.93886 113.934 11.9102 109.88 14.7464Z" fill="#CE494D"/>
    <path d="M115.858 16.5454C113.925 15.7562 111.898 15.1716 109.88 14.7464M109.88 14.7464C103.464 13.3943 97.1403 13.6534 94.2129 14.0716C96.8241 14.8962 102.912 19.885 106.376 33.2433C109.839 46.6016 104.108 61.7603 100.81 67.6699C103.352 63.3408 110.416 54.7239 118.332 54.8888C128.227 55.0949 133.793 52.415 136.885 39.2216C139.978 26.0281 133.587 13.247 127.815 9.74246C123.197 6.93886 113.934 11.9102 109.88 14.7464Z" stroke="#471C1C" stroke-width="2" stroke-linecap="round"/>
    <path d="M95.2436 14.2781C89.6364 13.4535 76.9652 30.2889 71.3305 38.8097C70.2998 40.3901 68.4857 43.4686 69.4752 43.1387C70.7121 42.7264 78.1334 34.2744 82.2563 28.9146C86.3793 23.5547 94.3924 14.2781 100.191 25.4101C105.99 36.542 104.27 63.5473 96.2743 64.7842C88.2786 66.0211 82.2563 52.8277 78.1334 48.0863C74.835 44.2932 70.1623 45.6812 68.2383 46.8494L68.8567 48.0863C69.6813 48.0176 71.9902 48.1687 74.6289 49.3232C77.9272 50.7662 83.9055 68.4949 93.8006 68.9072C103.696 69.3195 104.933 66.2272 107.612 46.8494C110.292 27.4715 102.253 15.3089 95.2436 14.2781Z" fill="#FF888A" stroke="#471C1C" stroke-width="2" stroke-linecap="round"/>
    <path d="M55.6643 45.8183C54.8397 52.2501 63.8415 53.8581 68.4455 53.8581C69.9572 53.1709 72.9395 51.3019 72.7746 49.3229C72.6097 47.3439 69.8198 47.6241 68.4455 48.0115C67.2503 45.8523 68.6725 42.9493 69.6824 42.1077C70.6719 41.2831 71.1942 39.0155 71.3316 37.9847C69.4075 37.7099 64.8586 37.3251 62.0549 37.9847C58.5504 38.8093 56.6951 37.7786 55.6643 45.8183Z" fill="#FF888A"/>
    <path d="M71.3316 37.9847C69.4075 37.7099 64.8586 37.3251 62.0549 37.9847C58.5504 38.8093 56.6951 37.7786 55.6643 45.8183C54.8397 52.2501 63.8415 53.8581 68.4455 53.8581C69.9572 53.1709 72.9395 51.3019 72.7746 49.3229C72.6097 47.3439 69.8198 47.6241 68.4455 48.0115M71.3316 37.9847C71.1942 39.0155 70.6719 41.2831 69.6824 42.1077C68.6725 42.9493 67.2503 45.8523 68.4455 48.0115M71.3316 37.9847C62.9208 44.7463 65.3533 49.4603 67.6209 50.9721M69.6824 49.3229C69.1149 48.9446 68.7141 48.4968 68.4455 48.0115" stroke="#471C1C" stroke-width="2" stroke-linecap="round"/>
  </g>
  <defs>
    <filter id="filter0_d_27056_6516" x="0" y="-0.000854492" width="155" height="202.656" filterUnits="userSpaceOnUse" color-interpolation-filters="sRGB">
      <feFlood flood-opacity="0" result="BackgroundImageFix"/>
      <feColorMatrix in="SourceAlpha" type="matrix" values="0 0 0 0 0 0 0 0 0 0 0 0 0 0 0 0 0 0 127 0" result="hardAlpha"/>
      <feOffset dx="9" dy="20"/>
      <feComposite in2="hardAlpha" operator="out"/>
      <feColorMatrix type="matrix" values="0 0 0 0 0 0 0 0 0 0 0 0 0 0 0 0 0 0 0.25 0"/>
      <feBlend mode="normal" in2="BackgroundImageFix" result="effect1_dropShadow_27056_6516"/>
      <feBlend mode="normal" in="SourceGraphic" in2="effect1_dropShadow_27056_6516" result="shape"/>
    </filter>
  </defs>
</svg>
