<svg width="119" height="121" viewBox="0 0 119 121" fill="none" xmlns="http://www.w3.org/2000/svg">
  <path d="M61.6694 17.874C64.8323 14.9261 69.9382 15.8303 71.8963 19.6851L80.877 37.3646C81.555 38.6993 82.6168 39.8005 83.926 40.5266L101.267 50.1448C105.048 52.2419 105.766 57.3773 102.705 60.4309L88.6656 74.4352C87.6058 75.4925 86.8866 76.8427 86.6006 78.3121L82.8118 97.7764C81.9857 102.02 77.3235 104.29 73.4735 102.322L55.8162 93.2981C54.4832 92.6169 52.9768 92.3501 51.491 92.5321L31.8085 94.9436C27.5169 95.4694 23.9176 91.7367 24.5993 87.4671L27.7255 67.8854C27.9615 66.4071 27.7497 64.8921 27.1174 63.5352L18.7417 45.5612C16.9155 41.6421 19.3533 37.0656 23.6246 36.3945L43.2139 33.3166C44.6928 33.0843 46.0683 32.4147 47.1634 31.394L61.6694 17.874Z" fill="#E91A21" stroke="black"/>
  <path d="M46.85 38.2827C46.5457 39.8872 46.08 42.3431 45.6557 44.5806M44.6889 49.6789C44.8057 49.0627 45.2076 46.9434 45.6557 44.5806M45.6557 44.5806L51.1357 44.9984M51.1357 44.9984L51.5063 39.787M51.1357 44.9984C51.069 46.4356 50.9981 49.6326 51.2476 50.9226M58.8438 48.3242C58.1959 46.8551 56.4541 44.6399 54.6701 47.5328C52.4401 51.1488 59.3539 52.1492 58.8438 48.3242ZM58.8438 48.3242C58.9576 47.7244 59.2561 46.4762 59.5401 46.2815M58.8438 48.3242C58.8484 48.8429 59.0506 50.1654 59.8226 51.306M62.3627 55.8266L63.4879 50.7583M63.4879 50.7583L64.4807 46.2863C65.6117 46.2937 67.7288 47.0732 67.362 49.0075C66.9639 51.1068 65.08 51.3709 63.4879 50.7583ZM68.3252 56.9573L69.4504 51.889M69.4504 51.889L70.4432 47.417C71.5742 47.4244 73.6913 48.2039 73.3245 50.1382C72.9264 52.2375 71.0425 52.5017 69.4504 51.889ZM76.292 49.1475C76.8026 50.7978 78.4119 53.2778 80.7638 49.9956C79.5707 51.9441 77.139 56.0811 76.957 57.0408M47.1271 62.8793L48.8902 53.5824C49.5048 55.7702 50.998 60.3822 52.054 61.3281C52.9961 60.1605 55.1701 56.9481 56.3295 53.4398M56.5259 62.1762C57.8367 62.3212 60.3705 62.0975 60.019 60.0424C59.5796 57.4736 55.3627 58.5381 56.5259 62.1762ZM56.5259 62.1762C56.8332 63.2701 58.0895 65.331 60.6565 64.8236M63.2984 60.6643C63.1134 62.1827 63.0756 65.0959 64.4046 64.6023C65.7336 64.1087 66.3313 62.5858 66.464 61.886C66.4542 63.0233 66.8038 65.3058 68.2803 65.3373C70.1259 65.3766 71.4752 63.147 72.1146 61.4041M42.5553 64.1871C42.843 67.5557 44.8189 72.4456 50.4203 65.0572C48.9337 67.4679 45.8125 73.069 45.2211 76.188M50.8579 74.1501C52.1687 74.2951 54.7025 74.0714 54.351 72.0163C53.9116 69.4475 49.6947 70.512 50.8579 74.1501ZM50.8579 74.1501C51.1652 75.244 52.4216 77.3049 54.9885 76.7975M62.2866 74.1426C61.6387 72.6734 59.8968 70.4583 58.1129 73.3511C55.8829 76.9671 62.7967 77.9675 62.2866 74.1426ZM62.2866 74.1426C62.4004 73.5428 62.6989 72.2945 62.9829 72.0998M62.2866 74.1426C62.2912 74.6613 62.4934 75.9838 63.2654 77.1243M65.7779 78.5329C65.6935 75.7207 66.7937 70.8962 71.8697 74.0958M38.3642 74.8877C43.1847 81.4977 57.219 92.0712 74.7923 81.485" stroke="white" stroke-width="2" stroke-linecap="round" stroke-linejoin="round"/>
  <path d="M58 3.5L60.5 9M71.5 2L70 9M78.5 12.5L82.5 8" stroke="white" stroke-width="3" stroke-linecap="round"/>
</svg>
