<svg width="15" height="15" viewBox="0 0 15 15" fill="none" xmlns="http://www.w3.org/2000/svg">
  <circle cx="7.5" cy="7.5" r="7.5" fill="#FFF5A9"/>
  <path d="M6.36092 4.47174C6.59292 4.09574 6.98092 3.90774 7.52492 3.90774C8.04492 3.90774 8.42092 4.08774 8.65292 4.44774C8.89292 4.80774 9.01292 5.24374 9.01292 5.75574C9.01292 6.17974 8.97292 6.65174 8.89292 7.17174C8.81292 7.68374 8.70092 8.14374 8.55692 8.55174C8.48492 8.75174 8.36092 8.92774 8.18492 9.07974C8.01692 9.22374 7.79692 9.29574 7.52492 9.29574C7.25292 9.29574 7.02892 9.22374 6.85292 9.07974C6.67692 8.92774 6.55292 8.75174 6.48092 8.55174C6.33692 8.15174 6.22492 7.70374 6.14492 7.20774C6.06492 6.70374 6.02492 6.24774 6.02492 5.83974C6.02492 5.29574 6.13692 4.83974 6.36092 4.47174ZM8.38892 11.8757C8.14092 12.1237 7.84892 12.2477 7.51292 12.2477C7.17692 12.2477 6.88492 12.1237 6.63692 11.8757C6.38892 11.6277 6.26492 11.3357 6.26492 10.9997C6.26492 10.6637 6.38892 10.3717 6.63692 10.1237C6.88492 9.87574 7.17692 9.75174 7.51292 9.75174C7.84892 9.75174 8.14092 9.87574 8.38892 10.1237C8.63692 10.3717 8.76092 10.6637 8.76092 10.9997C8.76092 11.3357 8.63692 11.6277 8.38892 11.8757Z" fill="black"/>
</svg>
