<svg width="69" height="133" viewBox="0 0 69 133" fill="none" xmlns="http://www.w3.org/2000/svg">
  <ellipse cx="33.6829" cy="125.187" rx="30.6829" ry="7.18699" fill="black" fill-opacity="0.2"/>
  <rect x="26.5" y="97.5" width="15" height="28" rx="3.5" fill="#745222" stroke="black"/>
  <path d="M1.33657 114.806C-2.78343 112.429 32.2355 42 34.6598 42C37.0841 42 36.4774 43.4848 47.3837 67.4709C58.8439 92.6752 67.9837 113.957 62.2278 113.957C57.6231 113.957 52.8367 108.721 51.019 106.104C51.4229 108.721 51.2614 113.957 47.3837 113.957C43.5061 113.957 41.3249 108.014 40.719 105.042C40.517 109.5 39.0831 118.33 34.9631 117.99C30.843 117.651 27.1876 110.632 25.8749 107.165C24.2592 109.712 20.2402 114.637 17.0896 113.957C13.939 113.278 15.7768 106.457 17.0896 103.132C13.5552 108.014 5.45658 117.184 1.33657 114.806Z" fill="#1C4B51" stroke="black"/>
  <g filter="url(#filter0_d_27314_663)">
    <path d="M1.33657 90.3527C-2.78343 88.382 32.2355 30 34.6598 30C37.0841 30 36.4774 31.2308 47.3837 51.114C58.8439 72.0071 67.9837 89.6489 62.2278 89.6489C57.6231 89.6489 52.8367 85.3086 51.019 83.1385C51.4229 85.3086 51.2614 89.6489 47.3837 89.6489C43.5061 89.6489 41.3249 84.7221 40.719 82.2587C40.517 85.9538 39.0831 93.2736 34.9631 92.9921C30.843 92.7106 27.1876 86.8922 25.8749 84.0182C24.2592 86.1297 20.2402 90.212 17.0896 89.6489C13.939 89.0858 15.7768 83.4317 17.0896 80.675C13.5552 84.7221 5.45658 92.3235 1.33657 90.3527Z" fill="#1C4B51"/>
    <path d="M1.33657 90.3527C-2.78343 88.382 32.2355 30 34.6598 30C37.0841 30 36.4774 31.2308 47.3837 51.114C58.8439 72.0071 67.9837 89.6489 62.2278 89.6489C57.6231 89.6489 52.8367 85.3086 51.019 83.1385C51.4229 85.3086 51.2614 89.6489 47.3837 89.6489C43.5061 89.6489 41.3249 84.7221 40.719 82.2587C40.517 85.9538 39.0831 93.2736 34.9631 92.9921C30.843 92.7106 27.1876 86.8922 25.8749 84.0182C24.2592 86.1297 20.2402 90.212 17.0896 89.6489C13.939 89.0858 15.7768 83.4317 17.0896 80.675C13.5552 84.7221 5.45658 92.3235 1.33657 90.3527Z" stroke="black"/>
  </g>
  <g filter="url(#filter1_d_27314_663)">
    <circle cx="48.844" cy="43.5118" r="3.57056" fill="#FFF5A9"/>
    <circle cx="48.844" cy="43.5118" r="3.07056" stroke="black"/>
  </g>
  <g filter="url(#filter2_d_27314_663)">
    <path d="M9.35353 64.7315C5.95887 62.7917 28.0542 32.22 31.0607 27.7426C34.0672 23.2651 37.5751 20.0069 44.5094 35.1091C53.952 55.674 60.1054 64.7315 55.3628 64.7315C51.5688 64.7315 50.4561 57.1687 48.9585 55.0326C49.2913 57.1687 49.1582 61.4408 45.9632 61.4408C42.7682 61.4408 40.971 56.5914 40.4718 54.1666C40.3054 57.8037 39.124 65.0086 35.7293 64.7315C32.3346 64.4544 29.3227 58.7274 28.2411 55.8986C26.9098 57.9769 23.5984 61.995 21.0024 61.4408C18.4065 60.8866 20.5411 56.329 21.6227 53.6156C18.7106 57.5991 12.7482 66.6713 9.35353 64.7315Z" fill="#2B646B"/>
    <path d="M9.35353 64.7315C5.95887 62.7917 28.0542 32.22 31.0607 27.7426C34.0672 23.2651 37.5751 20.0069 44.5094 35.1091C53.952 55.674 60.1054 64.7315 55.3628 64.7315C51.5688 64.7315 50.4561 57.1687 48.9585 55.0326C49.2913 57.1687 49.1582 61.4408 45.9632 61.4408C42.7682 61.4408 40.971 56.5914 40.4718 54.1666C40.3054 57.8037 39.124 65.0086 35.7293 64.7315C32.3346 64.4544 29.3227 58.7274 28.2411 55.8986C26.9098 57.9769 23.5984 61.995 21.0024 61.4408C18.4065 60.8866 20.5411 56.329 21.6227 53.6156C18.7106 57.5991 12.7482 66.6713 9.35353 64.7315Z" stroke="black"/>
  </g>
  <g filter="url(#filter3_d_27314_663)">
    <path d="M35.5537 11L37.4014 17.4744L43.9323 15.8374L39.2491 20.6748L43.9323 25.5122L37.4014 23.8751L35.5537 30.3496L33.706 23.8751L27.1751 25.5122L31.8583 20.6748L27.1751 15.8374L33.706 17.4744L35.5537 11Z" fill="#FFF5A9"/>
    <path d="M36.0345 10.8628C35.9732 10.6481 35.777 10.5 35.5537 10.5C35.3304 10.5 35.1342 10.6481 35.0729 10.8628L33.358 16.8718L27.2967 15.3524C27.0801 15.2981 26.8537 15.394 26.7421 15.5874C26.6304 15.7808 26.6605 16.0247 26.8158 16.1852L31.1623 20.6748L26.8158 25.1644C26.6605 25.3248 26.6304 25.5688 26.7421 25.7622C26.8537 25.9556 27.0801 26.0515 27.2967 25.9972L33.358 24.4778L35.0729 30.4868C35.1342 30.7015 35.3304 30.8496 35.5537 30.8496C35.777 30.8496 35.9732 30.7015 36.0345 30.4868L37.7494 24.4778L43.8108 25.9972C44.0273 26.0515 44.2537 25.9556 44.3653 25.7622C44.477 25.5688 44.4469 25.3248 44.2916 25.1644L39.9451 20.6748L44.2916 16.1852C44.4469 16.0247 44.477 15.7808 44.3653 15.5874C44.2537 15.394 44.0273 15.2981 43.8108 15.3524L37.7494 16.8718L36.0345 10.8628Z" stroke="black" stroke-linejoin="round"/>
  </g>
  <g filter="url(#filter4_d_27314_663)">
    <circle cx="25.5198" cy="38.275" r="3.57056" fill="#FFF5A9"/>
    <circle cx="25.5198" cy="38.275" r="3.07056" stroke="black"/>
  </g>
  <g filter="url(#filter5_d_27314_663)">
    <circle cx="41.2268" cy="56.8419" r="3.57056" fill="#FFF5A9"/>
    <circle cx="41.2268" cy="56.8419" r="3.07056" stroke="black"/>
  </g>
  <circle cx="30.5549" cy="80.3591" r="3.07056" fill="#FFF5A9" stroke="black"/>
  <g filter="url(#filter6_d_27314_663)">
    <circle cx="54.8792" cy="93.0746" r="3.57056" fill="#FFF5A9"/>
    <circle cx="54.8792" cy="93.0746" r="3.07056" stroke="black"/>
  </g>
  <defs>
    <filter id="filter0_d_27314_663" x="0.5" y="29.5" width="64" height="73" filterUnits="userSpaceOnUse" color-interpolation-filters="sRGB">
      <feFlood flood-opacity="0" result="BackgroundImageFix"/>
      <feColorMatrix in="SourceAlpha" type="matrix" values="0 0 0 0 0 0 0 0 0 0 0 0 0 0 0 0 0 0 127 0" result="hardAlpha"/>
      <feOffset dy="9"/>
      <feComposite in2="hardAlpha" operator="out"/>
      <feColorMatrix type="matrix" values="0 0 0 0 0 0 0 0 0 0 0 0 0 0 0 0 0 0 0.25 0"/>
      <feBlend mode="normal" in2="BackgroundImageFix" result="effect1_dropShadow_27314_663"/>
      <feBlend mode="normal" in="SourceGraphic" in2="effect1_dropShadow_27314_663" result="shape"/>
    </filter>
    <filter id="filter1_d_27314_663" x="35.2734" y="29.9413" width="27.1406" height="27.1411" filterUnits="userSpaceOnUse" color-interpolation-filters="sRGB">
      <feFlood flood-opacity="0" result="BackgroundImageFix"/>
      <feColorMatrix in="SourceAlpha" type="matrix" values="0 0 0 0 0 0 0 0 0 0 0 0 0 0 0 0 0 0 127 0" result="hardAlpha"/>
      <feOffset/>
      <feGaussianBlur stdDeviation="5"/>
      <feComposite in2="hardAlpha" operator="out"/>
      <feColorMatrix type="matrix" values="0 0 0 0 1 0 0 0 0 0.960784 0 0 0 0 0.662745 0 0 0 1 0"/>
      <feBlend mode="normal" in2="BackgroundImageFix" result="effect1_dropShadow_27314_663"/>
      <feBlend mode="normal" in="SourceGraphic" in2="effect1_dropShadow_27314_663" result="shape"/>
    </filter>
    <filter id="filter2_d_27314_663" x="8.5" y="23.4996" width="49" height="51.0011" filterUnits="userSpaceOnUse" color-interpolation-filters="sRGB">
      <feFlood flood-opacity="0" result="BackgroundImageFix"/>
      <feColorMatrix in="SourceAlpha" type="matrix" values="0 0 0 0 0 0 0 0 0 0 0 0 0 0 0 0 0 0 127 0" result="hardAlpha"/>
      <feOffset dy="9"/>
      <feComposite in2="hardAlpha" operator="out"/>
      <feColorMatrix type="matrix" values="0 0 0 0 0 0 0 0 0 0 0 0 0 0 0 0 0 0 0.25 0"/>
      <feBlend mode="normal" in2="BackgroundImageFix" result="effect1_dropShadow_27314_663"/>
      <feBlend mode="normal" in="SourceGraphic" in2="effect1_dropShadow_27314_663" result="shape"/>
    </filter>
    <filter id="filter3_d_27314_663" x="16.1758" y="0" width="38.7578" height="41.3496" filterUnits="userSpaceOnUse" color-interpolation-filters="sRGB">
      <feFlood flood-opacity="0" result="BackgroundImageFix"/>
      <feColorMatrix in="SourceAlpha" type="matrix" values="0 0 0 0 0 0 0 0 0 0 0 0 0 0 0 0 0 0 127 0" result="hardAlpha"/>
      <feOffset/>
      <feGaussianBlur stdDeviation="5"/>
      <feComposite in2="hardAlpha" operator="out"/>
      <feColorMatrix type="matrix" values="0 0 0 0 1 0 0 0 0 0.960784 0 0 0 0 0.662745 0 0 0 1 0"/>
      <feBlend mode="normal" in2="BackgroundImageFix" result="effect1_dropShadow_27314_663"/>
      <feBlend mode="normal" in="SourceGraphic" in2="effect1_dropShadow_27314_663" result="shape"/>
    </filter>
    <filter id="filter4_d_27314_663" x="11.9492" y="24.7045" width="27.1406" height="27.1411" filterUnits="userSpaceOnUse" color-interpolation-filters="sRGB">
      <feFlood flood-opacity="0" result="BackgroundImageFix"/>
      <feColorMatrix in="SourceAlpha" type="matrix" values="0 0 0 0 0 0 0 0 0 0 0 0 0 0 0 0 0 0 127 0" result="hardAlpha"/>
      <feOffset/>
      <feGaussianBlur stdDeviation="5"/>
      <feComposite in2="hardAlpha" operator="out"/>
      <feColorMatrix type="matrix" values="0 0 0 0 1 0 0 0 0 0.960784 0 0 0 0 0.662745 0 0 0 1 0"/>
      <feBlend mode="normal" in2="BackgroundImageFix" result="effect1_dropShadow_27314_663"/>
      <feBlend mode="normal" in="SourceGraphic" in2="effect1_dropShadow_27314_663" result="shape"/>
    </filter>
    <filter id="filter5_d_27314_663" x="27.6562" y="43.2714" width="27.1406" height="27.1411" filterUnits="userSpaceOnUse" color-interpolation-filters="sRGB">
      <feFlood flood-opacity="0" result="BackgroundImageFix"/>
      <feColorMatrix in="SourceAlpha" type="matrix" values="0 0 0 0 0 0 0 0 0 0 0 0 0 0 0 0 0 0 127 0" result="hardAlpha"/>
      <feOffset/>
      <feGaussianBlur stdDeviation="5"/>
      <feComposite in2="hardAlpha" operator="out"/>
      <feColorMatrix type="matrix" values="0 0 0 0 1 0 0 0 0 0.960784 0 0 0 0 0.662745 0 0 0 1 0"/>
      <feBlend mode="normal" in2="BackgroundImageFix" result="effect1_dropShadow_27314_663"/>
      <feBlend mode="normal" in="SourceGraphic" in2="effect1_dropShadow_27314_663" result="shape"/>
    </filter>
    <filter id="filter6_d_27314_663" x="41.3086" y="79.504" width="27.1406" height="27.1411" filterUnits="userSpaceOnUse" color-interpolation-filters="sRGB">
      <feFlood flood-opacity="0" result="BackgroundImageFix"/>
      <feColorMatrix in="SourceAlpha" type="matrix" values="0 0 0 0 0 0 0 0 0 0 0 0 0 0 0 0 0 0 127 0" result="hardAlpha"/>
      <feOffset/>
      <feGaussianBlur stdDeviation="5"/>
      <feComposite in2="hardAlpha" operator="out"/>
      <feColorMatrix type="matrix" values="0 0 0 0 1 0 0 0 0 0.960784 0 0 0 0 0.662745 0 0 0 1 0"/>
      <feBlend mode="normal" in2="BackgroundImageFix" result="effect1_dropShadow_27314_663"/>
      <feBlend mode="normal" in="SourceGraphic" in2="effect1_dropShadow_27314_663" result="shape"/>
    </filter>
  </defs>
</svg>
