<svg width="210" height="263" viewBox="0 0 210 263" fill="none" xmlns="http://www.w3.org/2000/svg">
  <path fill-rule="evenodd" clip-rule="evenodd" d="M100.229 49.9661C101.013 39.2699 100.502 21.4561 93.6156 12.6922C83.8249 0.231232 80.5613 -1.25222 72.5507 3.49482C66.1422 7.29244 59.5952 9.82417 57.1228 10.6153C53.4345 9.89214 46.6049 8.57665 41.9012 7.7362C40.2512 7.29872 38.8804 7.09039 37.838 7.05506C33.6843 6.46168 21.5201 6.75837 19.4432 23.0763C17.3664 39.3942 24.4869 63.4261 37.838 67.2831C38.5083 67.4767 39.1987 67.6449 39.9065 67.79L2.45189 78.857L1.75369 78.623V79.0633L1 79.286V106.629L7.78284 108.705V222.13L116.305 261L116.304 261L203.725 215.078V108.414L208.246 106.68V82.0141L208.246 82.0142V79.286L188.766 72.8546C192.145 69.4079 194.677 64.0729 196.567 56.0089C201.017 37.0208 191.82 18.626 183.513 13.5823C176.867 9.54728 163.536 16.7022 157.701 20.784C148.466 18.838 139.365 19.2109 135.152 19.8128C135.365 19.8799 135.593 19.9662 135.836 20.0727C128.987 20.3806 116.231 35.7197 107.484 47.8226L100.229 49.9661ZM143.756 36.1312C145.522 39.5204 146.803 43.9318 147.617 48.7983C144.545 50.5176 139.831 52.9215 134.784 55.0326L117.328 49.2693C124.174 42.1358 132.992 35.0856 143.1 34.9431C143.321 35.3198 143.54 35.7156 143.756 36.1312ZM123.802 34.3829C127.864 30.3748 132.696 27.277 137.274 29.1693C134.797 28.3324 131.767 28.4979 128.329 30.79C126.995 31.6791 125.462 32.9105 123.802 34.3829ZM85.0959 54.4377C83.1553 47.0819 69.0072 34.5157 61.5734 28.7136C60.09 32.5707 58.3693 42.2426 63.3536 50.075C66.0394 54.2956 70.1092 56.5807 73.9571 57.7289L85.0959 54.4377Z" fill="black" fill-opacity="0.4"/>
  <path d="M93.6156 12.6922L94.4019 12.0744L93.6156 12.6922ZM100.229 49.9661L99.2321 49.8931L99.1265 51.3347L100.513 50.9251L100.229 49.9661ZM72.5507 3.49482L72.0409 2.63453V2.63453L72.5507 3.49482ZM57.1228 10.6153L56.9304 11.5966L57.1827 11.6461L57.4276 11.5678L57.1228 10.6153ZM41.9012 7.7362L41.6449 8.7028L41.6847 8.71336L41.7253 8.72061L41.9012 7.7362ZM37.838 7.05506L37.6966 8.04501L37.7501 8.05265L37.8041 8.05448L37.838 7.05506ZM19.4432 23.0763L18.4512 22.95L19.4432 23.0763ZM37.838 67.2831L37.5604 68.2438L37.838 67.2831ZM39.9065 67.79L40.1899 68.7491L40.1074 66.8104L39.9065 67.79ZM2.45189 78.857L2.1342 79.8052L2.43302 79.9053L2.73526 79.816L2.45189 78.857ZM1.75369 78.623L2.07139 77.6749L0.753688 77.2333V78.623H1.75369ZM1.75369 79.0633L2.03705 80.0223L2.75369 79.8106V79.0633H1.75369ZM1 79.286L0.716638 78.327L0 78.5387V79.286H1ZM1 106.629H0V107.369L0.707407 107.586L1 106.629ZM7.78284 108.705H8.78284V107.965L8.07544 107.749L7.78284 108.705ZM7.78284 222.13H6.78284V222.834L7.44565 223.072L7.78284 222.13ZM116.305 261L117.298 261.111L117.387 260.325L116.642 260.058L116.305 261ZM116.304 261L115.311 260.889L115.1 262.763L116.769 261.886L116.304 261ZM203.725 215.078L204.19 215.964L204.725 215.683V215.078H203.725ZM203.725 108.414L203.367 107.48L202.725 107.726V108.414H203.725ZM208.246 106.68L208.604 107.614L209.246 107.368V106.68H208.246ZM208.246 82.0141H209.246V80.5371L207.875 81.0856L208.246 82.0141ZM208.246 82.0142H207.246V83.4912L208.618 82.9426L208.246 82.0142ZM208.246 79.286H209.246V78.563L208.56 78.3364L208.246 79.286ZM188.766 72.8546L188.052 72.1546L186.928 73.3009L188.453 73.8042L188.766 72.8546ZM196.567 56.0089L197.541 56.2371L196.567 56.0089ZM183.513 13.5823L184.032 12.7275V12.7275L183.513 13.5823ZM157.701 20.784L157.494 21.7625L157.919 21.8519L158.274 21.6034L157.701 20.784ZM135.152 19.8128L135.011 18.8229L134.851 20.7664L135.152 19.8128ZM135.836 20.0727L135.881 21.0717L136.238 19.1569L135.836 20.0727ZM107.484 47.8226L107.767 48.7816L108.094 48.685L108.294 48.4084L107.484 47.8226ZM147.617 48.7983L148.105 49.6709L148.719 49.3273L148.603 48.6333L147.617 48.7983ZM143.756 36.1312L144.643 35.6692V35.6692L143.756 36.1312ZM134.784 55.0326L134.471 55.9821L134.825 56.0993L135.17 55.9551L134.784 55.0326ZM117.328 49.2693L116.606 48.5769L115.508 49.7216L117.014 50.2189L117.328 49.2693ZM143.1 34.9431L143.963 34.4377L143.669 33.935L143.086 33.9432L143.1 34.9431ZM137.274 29.1693L136.954 30.1167L137.656 28.2451L137.274 29.1693ZM123.802 34.3829L123.1 33.6711L124.466 35.131L123.802 34.3829ZM128.329 30.79L128.883 31.622L128.329 30.79ZM61.5734 28.7136L62.1887 27.9253L61.1246 27.0948L60.64 28.3546L61.5734 28.7136ZM85.0959 54.4377L85.3793 55.3967L86.3105 55.1215L86.0628 54.1826L85.0959 54.4377ZM63.3536 50.075L64.1973 49.5382L63.3536 50.075ZM73.9571 57.7289L73.6711 58.6872L73.9557 58.7721L74.2404 58.6879L73.9571 57.7289ZM93.0235 10.3397C92.6772 9.90952 92.0477 9.8415 91.6174 10.1878C91.1872 10.5341 91.1192 11.1636 91.4655 11.5938L93.0235 10.3397ZM88.6821 8.26525C89.0466 8.68014 89.6785 8.72097 90.0934 8.35644C90.5083 7.99191 90.5491 7.36006 90.1846 6.94517L88.6821 8.26525ZM87.0727 3.70035C86.6677 3.32492 86.035 3.34893 85.6595 3.75398C85.2841 4.15903 85.3081 4.79174 85.7131 5.16718L87.0727 3.70035ZM82.4134 2.74483C82.9064 2.99361 83.5078 2.79557 83.7566 2.30249C84.0054 1.80941 83.8074 1.20802 83.3143 0.959238L82.4134 2.74483ZM78.5019 0.0569493C77.9533 0.120459 77.56 0.616689 77.6235 1.16531C77.6871 1.71393 78.1833 2.10719 78.7319 2.04368L78.5019 0.0569493ZM74.9252 3.32646C75.4186 3.07837 75.6175 2.47726 75.3694 1.98383C75.1213 1.4904 74.5202 1.29151 74.0268 1.5396L74.9252 3.32646ZM70.2195 3.67881C69.7367 3.94683 69.5625 4.55556 69.8305 5.03845C70.0985 5.52134 70.7073 5.69552 71.1901 5.4275L70.2195 3.67881ZM67.373 7.41997C67.8687 7.17649 68.0732 6.57725 67.8297 6.08153C67.5862 5.58582 66.987 5.38133 66.4913 5.62481L67.373 7.41997ZM62.6712 7.39257C62.1647 7.61293 61.9329 8.2021 62.1532 8.70852C62.3736 9.21494 62.9628 9.44683 63.4692 9.22647L62.6712 7.39257ZM59.4782 10.8474C59.9954 10.6537 60.2576 10.0774 60.0639 9.56016C59.8702 9.04296 59.2939 8.78072 58.7767 8.97442L59.4782 10.8474ZM55.4135 9.26293C54.8713 9.15759 54.3465 9.51169 54.2411 10.0538C54.1358 10.596 54.4899 11.1209 55.032 11.2262L55.4135 9.26293ZM51.2314 10.4932C51.7738 10.5971 52.2977 10.2415 52.4015 9.69909C52.5054 9.15665 52.1498 8.63274 51.6074 8.5289L51.2314 10.4932ZM47.7991 7.80585C47.2564 7.70374 46.7336 8.06096 46.6315 8.60372C46.5294 9.14648 46.8866 9.66926 47.4293 9.77137L47.7991 7.80585ZM43.6262 9.0647C44.1695 9.16412 44.6905 8.80431 44.7899 8.26105C44.8893 7.71779 44.5295 7.19679 43.9863 7.09737L43.6262 9.0647ZM41.1178 6.51461C40.579 6.3936 40.044 6.73234 39.923 7.27121C39.802 7.81007 40.1408 8.34501 40.6796 8.46601L41.1178 6.51461ZM38.7502 8.12865C39.2987 8.19279 39.7954 7.80011 39.8596 7.25156C39.9237 6.70301 39.531 6.20633 38.9825 6.14218L38.7502 8.12865ZM35.5501 5.89915C34.9978 5.89858 34.5496 6.34583 34.5491 6.89811C34.5485 7.4504 34.9957 7.89858 35.548 7.89915L35.5501 5.89915ZM31.2616 8.45336C31.7946 8.30901 32.1098 7.75984 31.9654 7.22675C31.8211 6.69366 31.2719 6.37853 30.7388 6.52288L31.2616 8.45336ZM26.267 8.5061C25.8044 8.80766 25.6737 9.42721 25.9753 9.88989C26.2768 10.3526 26.8964 10.4832 27.3591 10.1816L26.267 8.5061ZM24.2276 13.0583C24.5692 12.6244 24.4944 11.9957 24.0605 11.654C23.6265 11.3124 22.9978 11.3872 22.6562 11.8212L24.2276 13.0583ZM20.2198 16.0224C20.0066 16.5319 20.2468 17.1177 20.7563 17.3308C21.2658 17.544 21.8516 17.3038 22.0648 16.7943L20.2198 16.0224ZM20.7974 20.9984C20.9078 20.4572 20.5587 19.929 20.0176 19.8185C19.4765 19.7081 18.9483 20.0572 18.8378 20.5983L20.7974 20.9984ZM18.2317 25.1108C18.1893 25.6614 18.6013 26.1422 19.1519 26.1846C19.7026 26.227 20.1833 25.815 20.2258 25.2644L18.2317 25.1108ZM20.0891 29.431C20.0843 28.8788 19.6327 28.435 19.0804 28.4398C18.5282 28.4446 18.0844 28.8962 18.0892 29.4485L20.0891 29.431ZM18.29 33.7678C18.3357 34.3182 18.8189 34.7273 19.3693 34.6816C19.9197 34.6359 20.3288 34.1526 20.2831 33.6023L18.29 33.7678ZM20.7736 37.7579C20.6902 37.212 20.18 36.837 19.6341 36.9204C19.0881 37.0038 18.7131 37.5139 18.7965 38.0599L20.7736 37.7579ZM19.592 42.3056C19.712 42.8447 20.2462 43.1844 20.7853 43.0644C21.3244 42.9445 21.6642 42.4102 21.5442 41.8711L19.592 42.3056ZM22.5934 45.9195C22.4361 45.3901 21.8793 45.0885 21.35 45.2459C20.8206 45.4033 20.519 45.96 20.6764 46.4894L22.5934 45.9195ZM22.0648 50.5895C22.2622 51.1053 22.8404 51.3634 23.3562 51.1659C23.872 50.9685 24.1301 50.3904 23.9326 49.8746L22.0648 50.5895ZM25.5863 53.6951C25.3441 53.1988 24.7454 52.9928 24.249 53.235C23.7527 53.4772 23.5467 54.0759 23.7889 54.5722L25.5863 53.6951ZM25.9021 58.3859C26.1963 58.8532 26.8138 58.9935 27.2811 58.6993C27.7485 58.405 27.8888 57.7876 27.5945 57.3202L25.9021 58.3859ZM30.0093 60.6451C29.6531 60.2231 29.0221 60.1697 28.6001 60.5259C28.178 60.8821 28.1246 61.513 28.4808 61.9351L30.0093 60.6451ZM31.6295 65.0555C32.058 65.4039 32.6878 65.339 33.0363 64.9105C33.3847 64.482 33.3198 63.8521 32.8913 63.5037L31.6295 65.0555ZM36.2657 65.6323C35.7639 65.4018 35.1701 65.6217 34.9396 66.1236C34.709 66.6255 34.929 67.2192 35.4308 67.4498L36.2657 65.6323ZM38.0942 68.3918C38.6279 68.5337 39.1757 68.2161 39.3176 67.6823C39.4595 67.1486 39.1419 66.6009 38.6082 66.4589L38.0942 68.3918ZM39.6045 66.7026C39.0656 66.5818 38.5308 66.9207 38.41 67.4597C38.2892 67.9986 38.6282 68.5334 39.1671 68.6541L39.6045 66.7026ZM37.7504 67.3844C37.2208 67.5409 36.9183 68.0971 37.0748 68.6268C37.2313 69.1564 37.7875 69.4589 38.3172 69.3024L37.7504 67.3844ZM34.5717 70.4091C35.1013 70.2526 35.4038 69.6964 35.2473 69.1667C35.0908 68.6371 34.5346 68.3346 34.005 68.4911L34.5717 70.4091ZM30.2595 69.5978C29.7299 69.7543 29.4274 70.3105 29.5839 70.8401C29.7404 71.3698 30.2966 71.6723 30.8262 71.5158L30.2595 69.5978ZM27.0808 72.6225C27.6104 72.466 27.9129 71.9098 27.7564 71.3801C27.5999 70.8505 27.0437 70.548 26.514 70.7045L27.0808 72.6225ZM22.7686 71.8112C22.2389 71.9677 21.9364 72.5239 22.0929 73.0535C22.2494 73.5832 22.8057 73.8857 23.3353 73.7292L22.7686 71.8112ZM19.5898 74.8359C20.1195 74.6794 20.422 74.1231 20.2655 73.5935C20.109 73.0638 19.5528 72.7614 19.0231 72.9178L19.5898 74.8359ZM15.2776 74.0245C14.748 74.181 14.4455 74.7373 14.602 75.2669C14.7585 75.7966 15.3147 76.0991 15.8444 75.9426L15.2776 74.0245ZM12.0989 77.0493C12.6286 76.8928 12.9311 76.3365 12.7746 75.8069C12.6181 75.2772 12.0618 74.9747 11.5322 75.1312L12.0989 77.0493ZM7.78673 76.2379C7.25708 76.3944 6.95458 76.9507 7.11108 77.4803C7.26758 78.0099 7.82381 78.3124 8.35346 78.156L7.78673 76.2379ZM4.60799 79.2626C5.13764 79.1061 5.44013 78.5499 5.28364 78.0203C5.12714 77.4906 4.57091 77.1881 4.04126 77.3446L4.60799 79.2626ZM2.59504 77.8503C2.07137 77.6748 1.50461 77.9571 1.32915 78.4808C1.15369 79.0045 1.43597 79.5712 1.95964 79.7467L2.59504 77.8503ZM1.61054 79.6297C2.13421 79.8052 2.70097 79.5229 2.87643 78.9992C3.05189 78.4756 2.76961 77.9088 2.24594 77.7333L1.61054 79.6297ZM0.753688 78.7331C0.753688 79.2854 1.2014 79.7331 1.75369 79.7331C2.30597 79.7331 2.75369 79.2854 2.75369 78.7331H0.753688ZM2.75369 78.9532C2.75369 78.4009 2.30597 77.9532 1.75369 77.9532C1.2014 77.9532 0.753688 78.4009 0.753688 78.9532H2.75369ZM1.2819 78.16C0.752256 78.3164 0.449757 78.8727 0.606253 79.4023C0.76275 79.932 1.31898 80.2345 1.84863 80.078L1.2819 78.16ZM1.47178 80.1893C2.00143 80.0328 2.30393 79.4766 2.14743 78.9469C1.99094 78.4173 1.43471 78.1148 0.90506 78.2713L1.47178 80.1893ZM0 81.5646C0 82.1169 0.447715 82.5646 1 82.5646C1.55228 82.5646 2 82.1169 2 81.5646H0ZM2 86.1219C2 85.5696 1.55228 85.1219 1 85.1219C0.447715 85.1219 0 85.5696 0 86.1219H2ZM0 90.6791C0 91.2314 0.447715 91.6791 1 91.6791C1.55228 91.6791 2 91.2314 2 90.6791H0ZM2 95.2364C2 94.6841 1.55228 94.2364 1 94.2364C0.447715 94.2364 0 94.6841 0 95.2364H2ZM0 99.7936C0 100.346 0.447715 100.794 1 100.794C1.55228 100.794 2 100.346 2 99.7936H0ZM2 104.351C2 103.799 1.55228 103.351 1 103.351C0.447715 103.351 0 103.799 0 104.351H2ZM2.40312 108.105C2.93123 108.266 3.49035 107.969 3.65195 107.441C3.81354 106.913 3.51642 106.354 2.9883 106.192L2.40312 108.105ZM6.37972 107.23C5.85161 107.068 5.29249 107.365 5.13089 107.893C4.9693 108.422 5.26642 108.981 5.79454 109.142L6.37972 107.23ZM6.78284 110.73C6.78284 111.283 7.23056 111.73 7.78284 111.73C8.33513 111.73 8.78284 111.283 8.78284 110.73H6.78284ZM8.78284 114.781C8.78284 114.229 8.33513 113.781 7.78284 113.781C7.23056 113.781 6.78284 114.229 6.78284 114.781H8.78284ZM6.78284 118.832C6.78284 119.384 7.23056 119.832 7.78284 119.832C8.33513 119.832 8.78284 119.384 8.78284 118.832H6.78284ZM8.78284 122.883C8.78284 122.331 8.33513 121.883 7.78284 121.883C7.23056 121.883 6.78284 122.331 6.78284 122.883H8.78284ZM6.78284 126.934C6.78284 127.486 7.23056 127.934 7.78284 127.934C8.33513 127.934 8.78284 127.486 8.78284 126.934H6.78284ZM8.78284 130.985C8.78284 130.433 8.33513 129.985 7.78284 129.985C7.23056 129.985 6.78284 130.433 6.78284 130.985H8.78284ZM6.78284 135.036C6.78284 135.588 7.23056 136.036 7.78284 136.036C8.33513 136.036 8.78284 135.588 8.78284 135.036H6.78284ZM8.78284 139.087C8.78284 138.534 8.33513 138.087 7.78284 138.087C7.23056 138.087 6.78284 138.534 6.78284 139.087H8.78284ZM6.78284 143.138C6.78284 143.69 7.23056 144.138 7.78284 144.138C8.33513 144.138 8.78284 143.69 8.78284 143.138H6.78284ZM8.78284 147.189C8.78284 146.636 8.33513 146.189 7.78284 146.189C7.23056 146.189 6.78284 146.636 6.78284 147.189H8.78284ZM6.78284 151.239C6.78284 151.792 7.23056 152.239 7.78284 152.239C8.33513 152.239 8.78284 151.792 8.78284 151.239H6.78284ZM8.78284 155.29C8.78284 154.738 8.33513 154.29 7.78284 154.29C7.23056 154.29 6.78284 154.738 6.78284 155.29H8.78284ZM6.78284 159.341C6.78284 159.894 7.23056 160.341 7.78284 160.341C8.33513 160.341 8.78284 159.894 8.78284 159.341H6.78284ZM8.78284 163.392C8.78284 162.84 8.33513 162.392 7.78284 162.392C7.23056 162.392 6.78284 162.84 6.78284 163.392H8.78284ZM6.78284 167.443C6.78284 167.995 7.23056 168.443 7.78284 168.443C8.33513 168.443 8.78284 167.995 8.78284 167.443H6.78284ZM8.78284 171.494C8.78284 170.942 8.33513 170.494 7.78284 170.494C7.23056 170.494 6.78284 170.942 6.78284 171.494H8.78284ZM6.78284 175.545C6.78284 176.097 7.23056 176.545 7.78284 176.545C8.33513 176.545 8.78284 176.097 8.78284 175.545H6.78284ZM8.78284 179.596C8.78284 179.044 8.33513 178.596 7.78284 178.596C7.23056 178.596 6.78284 179.044 6.78284 179.596H8.78284ZM6.78284 183.647C6.78284 184.199 7.23056 184.647 7.78284 184.647C8.33513 184.647 8.78284 184.199 8.78284 183.647H6.78284ZM8.78284 187.698C8.78284 187.145 8.33513 186.698 7.78284 186.698C7.23056 186.698 6.78284 187.145 6.78284 187.698H8.78284ZM6.78284 191.749C6.78284 192.301 7.23056 192.749 7.78284 192.749C8.33513 192.749 8.78284 192.301 8.78284 191.749H6.78284ZM8.78284 195.799C8.78284 195.247 8.33513 194.799 7.78284 194.799C7.23056 194.799 6.78284 195.247 6.78284 195.799H8.78284ZM6.78284 199.85C6.78284 200.403 7.23056 200.85 7.78284 200.85C8.33513 200.85 8.78284 200.403 8.78284 199.85H6.78284ZM8.78284 203.901C8.78284 203.349 8.33513 202.901 7.78284 202.901C7.23056 202.901 6.78284 203.349 6.78284 203.901H8.78284ZM6.78284 207.952C6.78284 208.505 7.23056 208.952 7.78284 208.952C8.33513 208.952 8.78284 208.505 8.78284 207.952H6.78284ZM8.78284 212.003C8.78284 211.451 8.33513 211.003 7.78284 211.003C7.23056 211.003 6.78284 211.451 6.78284 212.003H8.78284ZM6.78284 216.054C6.78284 216.606 7.23056 217.054 7.78284 217.054C8.33513 217.054 8.78284 216.606 8.78284 216.054H6.78284ZM8.78284 220.105C8.78284 219.553 8.33513 219.105 7.78284 219.105C7.23056 219.105 6.78284 219.553 6.78284 220.105H8.78284ZM9.38354 223.766C9.90348 223.952 10.4759 223.682 10.6622 223.162C10.8484 222.642 10.5779 222.069 10.0579 221.883L9.38354 223.766ZM13.9337 223.271C13.4138 223.085 12.8413 223.356 12.6551 223.876C12.4688 224.395 12.7394 224.968 13.2593 225.154L13.9337 223.271ZM17.1351 226.542C17.655 226.729 18.2275 226.458 18.4137 225.938C18.5999 225.418 18.3294 224.846 17.8095 224.659L17.1351 226.542ZM21.6852 226.048C21.1653 225.861 20.5928 226.132 20.4066 226.652C20.2204 227.172 20.4909 227.744 21.0109 227.931L21.6852 226.048ZM24.8866 229.319C25.4066 229.505 25.979 229.234 26.1653 228.714C26.3515 228.195 26.081 227.622 25.561 227.436L24.8866 229.319ZM29.4368 228.824C28.9169 228.638 28.3444 228.908 28.1582 229.428C27.9719 229.948 28.2425 230.521 28.7624 230.707L29.4368 228.824ZM32.6382 232.095C33.1581 232.281 33.7306 232.011 33.9168 231.491C34.103 230.971 33.8325 230.398 33.3126 230.212L32.6382 232.095ZM37.1883 231.6C36.6684 231.414 36.0959 231.685 35.9097 232.205C35.7235 232.725 35.994 233.297 36.514 233.483L37.1883 231.6ZM40.3897 234.871C40.9097 235.058 41.4821 234.787 41.6684 234.267C41.8546 233.747 41.5841 233.175 41.0641 232.989L40.3897 234.871ZM44.9399 234.377C44.4199 234.191 43.8475 234.461 43.6613 234.981C43.475 235.501 43.7456 236.073 44.2655 236.26L44.9399 234.377ZM48.1413 237.648C48.6612 237.834 49.2337 237.564 49.4199 237.044C49.6061 236.524 49.3356 235.951 48.8157 235.765L48.1413 237.648ZM52.6914 237.153C52.1715 236.967 51.599 237.237 51.4128 237.757C51.2266 238.277 51.4971 238.85 52.017 239.036L52.6914 237.153ZM55.8928 240.424C56.4128 240.61 56.9852 240.34 57.1715 239.82C57.3577 239.3 57.0872 238.728 56.5672 238.541L55.8928 240.424ZM60.443 239.93C59.923 239.743 59.3506 240.014 59.1644 240.534C58.9781 241.054 59.2487 241.626 59.7686 241.812L60.443 239.93ZM63.6444 243.201C64.1643 243.387 64.7368 243.116 64.923 242.596C65.1092 242.076 64.8387 241.504 64.3188 241.318L63.6444 243.201ZM68.1945 242.706C67.6746 242.52 67.1021 242.79 66.9159 243.31C66.7297 243.83 67.0002 244.403 67.5201 244.589L68.1945 242.706ZM71.3959 245.977C71.9159 246.163 72.4883 245.893 72.6745 245.373C72.8608 244.853 72.5902 244.28 72.0703 244.094L71.3959 245.977ZM75.9461 245.482C75.4261 245.296 74.8537 245.567 74.6675 246.087C74.4812 246.606 74.7518 247.179 75.2717 247.365L75.9461 245.482ZM79.1475 248.753C79.6674 248.94 80.2399 248.669 80.4261 248.149C80.6123 247.629 80.3418 247.057 79.8219 246.87L79.1475 248.753ZM83.6976 248.259C83.1777 248.072 82.6052 248.343 82.419 248.863C82.2328 249.383 82.5033 249.955 83.0233 250.142L83.6976 248.259ZM86.899 251.53C87.419 251.716 87.9914 251.445 88.1777 250.925C88.3639 250.406 88.0934 249.833 87.5734 249.647L86.899 251.53ZM91.4492 251.035C90.9293 250.849 90.3568 251.119 90.1706 251.639C89.9843 252.159 90.2549 252.732 90.7748 252.918L91.4492 251.035ZM94.6506 254.306C95.1705 254.492 95.743 254.222 95.9292 253.702C96.1154 253.182 95.8449 252.609 95.325 252.423L94.6506 254.306ZM99.2008 253.811C98.6808 253.625 98.1084 253.896 97.9221 254.416C97.7359 254.936 98.0064 255.508 98.5264 255.694L99.2008 253.811ZM102.402 257.082C102.922 257.269 103.495 256.998 103.681 256.478C103.867 255.958 103.596 255.386 103.077 255.2L102.402 257.082ZM106.952 256.588C106.432 256.402 105.86 256.672 105.674 257.192C105.487 257.712 105.758 258.284 106.278 258.471L106.952 256.588ZM110.154 259.859C110.674 260.045 111.246 259.775 111.432 259.255C111.619 258.735 111.348 258.162 110.828 257.976L110.154 259.859ZM114.704 259.364C114.184 259.178 113.611 259.448 113.425 259.968C113.239 260.488 113.51 261.061 114.029 261.247L114.704 259.364ZM115.311 260.888C115.249 261.437 115.644 261.932 116.193 261.994C116.742 262.055 117.236 261.66 117.298 261.112L115.311 260.888ZM117.298 261.112C117.36 260.563 116.965 260.068 116.416 260.006C115.867 259.945 115.372 260.34 115.311 260.888L117.298 261.112ZM118.591 260.929C119.08 260.672 119.268 260.067 119.011 259.579C118.754 259.09 118.15 258.901 117.661 259.158L118.591 260.929ZM121.303 257.245C120.814 257.502 120.626 258.106 120.883 258.595C121.14 259.084 121.744 259.272 122.233 259.015L121.303 257.245ZM125.876 257.102C126.365 256.845 126.553 256.241 126.296 255.752C126.039 255.263 125.435 255.075 124.946 255.331L125.876 257.102ZM128.588 253.418C128.099 253.675 127.911 254.279 128.168 254.768C128.425 255.257 129.029 255.445 129.518 255.189L128.588 253.418ZM133.161 253.275C133.65 253.018 133.838 252.414 133.581 251.925C133.324 251.436 132.72 251.248 132.231 251.505L133.161 253.275ZM135.873 249.591C135.384 249.848 135.196 250.453 135.453 250.942C135.71 251.43 136.314 251.619 136.803 251.362L135.873 249.591ZM140.446 249.448C140.935 249.192 141.123 248.587 140.866 248.098C140.609 247.609 140.005 247.421 139.516 247.678L140.446 249.448ZM143.158 245.764C142.669 246.021 142.481 246.626 142.738 247.115C142.995 247.604 143.599 247.792 144.088 247.535L143.158 245.764ZM147.731 245.622C148.22 245.365 148.408 244.76 148.151 244.271C147.894 243.782 147.29 243.594 146.801 243.851L147.731 245.622ZM150.443 241.938C149.954 242.194 149.766 242.799 150.023 243.288C150.28 243.777 150.884 243.965 151.373 243.708L150.443 241.938ZM155.016 241.795C155.505 241.538 155.693 240.933 155.436 240.444C155.179 239.955 154.575 239.767 154.086 240.024L155.016 241.795ZM157.728 238.111C157.239 238.368 157.051 238.972 157.308 239.461C157.565 239.95 158.169 240.138 158.658 239.881L157.728 238.111ZM162.301 237.968C162.79 237.711 162.978 237.106 162.721 236.618C162.464 236.129 161.86 235.94 161.371 236.197L162.301 237.968ZM165.013 234.284C164.524 234.541 164.336 235.145 164.593 235.634C164.85 236.123 165.454 236.311 165.943 236.054L165.013 234.284ZM169.586 234.141C170.075 233.884 170.263 233.28 170.006 232.791C169.749 232.302 169.145 232.114 168.656 232.37L169.586 234.141ZM172.298 230.457C171.809 230.714 171.621 231.318 171.878 231.807C172.135 232.296 172.739 232.484 173.228 232.228L172.298 230.457ZM176.871 230.314C177.36 230.057 177.548 229.453 177.291 228.964C177.034 228.475 176.43 228.287 175.941 228.544L176.871 230.314ZM179.583 226.63C179.094 226.887 178.906 227.492 179.163 227.981C179.42 228.469 180.025 228.658 180.513 228.401L179.583 226.63ZM184.156 226.487C184.645 226.23 184.833 225.626 184.576 225.137C184.319 224.648 183.715 224.46 183.226 224.717L184.156 226.487ZM186.868 222.803C186.379 223.06 186.191 223.665 186.448 224.154C186.705 224.643 187.31 224.831 187.798 224.574L186.868 222.803ZM191.441 222.66C191.93 222.404 192.118 221.799 191.861 221.31C191.604 220.821 191 220.633 190.511 220.89L191.441 222.66ZM194.153 218.977C193.664 219.233 193.476 219.838 193.733 220.327C193.99 220.816 194.595 221.004 195.083 220.747L194.153 218.977ZM198.726 218.834C199.215 218.577 199.403 217.972 199.146 217.483C198.889 216.994 198.285 216.806 197.796 217.063L198.726 218.834ZM201.438 215.15C200.949 215.406 200.761 216.011 201.018 216.5C201.275 216.989 201.88 217.177 202.368 216.92L201.438 215.15ZM204.725 213.027C204.725 212.475 204.277 212.027 203.725 212.027C203.172 212.027 202.725 212.475 202.725 213.027H204.725ZM202.725 208.925C202.725 209.477 203.172 209.925 203.725 209.925C204.277 209.925 204.725 209.477 204.725 208.925H202.725ZM204.725 204.822C204.725 204.27 204.277 203.822 203.725 203.822C203.172 203.822 202.725 204.27 202.725 204.822H204.725ZM202.725 200.72C202.725 201.272 203.172 201.72 203.725 201.72C204.277 201.72 204.725 201.272 204.725 200.72H202.725ZM204.725 196.617C204.725 196.065 204.277 195.617 203.725 195.617C203.172 195.617 202.725 196.065 202.725 196.617H204.725ZM202.725 192.515C202.725 193.067 203.172 193.515 203.725 193.515C204.277 193.515 204.725 193.067 204.725 192.515H202.725ZM204.725 188.412C204.725 187.86 204.277 187.412 203.725 187.412C203.172 187.412 202.725 187.86 202.725 188.412H204.725ZM202.725 184.31C202.725 184.862 203.172 185.31 203.725 185.31C204.277 185.31 204.725 184.862 204.725 184.31H202.725ZM204.725 180.207C204.725 179.655 204.277 179.207 203.725 179.207C203.172 179.207 202.725 179.655 202.725 180.207H204.725ZM202.725 176.105C202.725 176.657 203.172 177.105 203.725 177.105C204.277 177.105 204.725 176.657 204.725 176.105H202.725ZM204.725 172.002C204.725 171.45 204.277 171.002 203.725 171.002C203.172 171.002 202.725 171.45 202.725 172.002H204.725ZM202.725 167.9C202.725 168.452 203.172 168.9 203.725 168.9C204.277 168.9 204.725 168.452 204.725 167.9H202.725ZM204.725 163.797C204.725 163.245 204.277 162.797 203.725 162.797C203.172 162.797 202.725 163.245 202.725 163.797H204.725ZM202.725 159.695C202.725 160.247 203.172 160.695 203.725 160.695C204.277 160.695 204.725 160.247 204.725 159.695H202.725ZM204.725 155.592C204.725 155.04 204.277 154.592 203.725 154.592C203.172 154.592 202.725 155.04 202.725 155.592H204.725ZM202.725 151.49C202.725 152.042 203.172 152.49 203.725 152.49C204.277 152.49 204.725 152.042 204.725 151.49H202.725ZM204.725 147.387C204.725 146.835 204.277 146.387 203.725 146.387C203.172 146.387 202.725 146.835 202.725 147.387H204.725ZM202.725 143.285C202.725 143.837 203.172 144.285 203.725 144.285C204.277 144.285 204.725 143.837 204.725 143.285H202.725ZM204.725 139.182C204.725 138.63 204.277 138.182 203.725 138.182C203.172 138.182 202.725 138.63 202.725 139.182H204.725ZM202.725 135.08C202.725 135.632 203.172 136.08 203.725 136.08C204.277 136.08 204.725 135.632 204.725 135.08H202.725ZM204.725 130.977C204.725 130.425 204.277 129.977 203.725 129.977C203.172 129.977 202.725 130.425 202.725 130.977H204.725ZM202.725 126.875C202.725 127.427 203.172 127.875 203.725 127.875C204.277 127.875 204.725 127.427 204.725 126.875H202.725ZM204.725 122.772C204.725 122.22 204.277 121.772 203.725 121.772C203.172 121.772 202.725 122.22 202.725 122.772H204.725ZM202.725 118.67C202.725 119.222 203.172 119.67 203.725 119.67C204.277 119.67 204.725 119.222 204.725 118.67H202.725ZM204.725 114.567C204.725 114.015 204.277 113.567 203.725 113.567C203.172 113.567 202.725 114.015 202.725 114.567H204.725ZM202.725 110.465C202.725 111.017 203.172 111.465 203.725 111.465C204.277 111.465 204.725 111.017 204.725 110.465H202.725ZM205.213 108.914C205.729 108.716 205.987 108.138 205.789 107.622C205.591 107.107 205.013 106.849 204.497 107.047L205.213 108.914ZM206.758 106.18C206.242 106.378 205.985 106.956 206.182 107.472C206.38 107.987 206.958 108.245 207.474 108.047L206.758 106.18ZM209.246 104.625C209.246 104.073 208.799 103.625 208.246 103.625C207.694 103.625 207.246 104.073 207.246 104.625H209.246ZM207.246 100.514C207.246 101.066 207.694 101.514 208.246 101.514C208.799 101.514 209.246 101.066 209.246 100.514H207.246ZM209.246 96.4027C209.246 95.8504 208.799 95.4027 208.246 95.4027C207.694 95.4027 207.246 95.8504 207.246 96.4027H209.246ZM207.246 92.2917C207.246 92.844 207.694 93.2917 208.246 93.2917C208.799 93.2917 209.246 92.844 209.246 92.2917H207.246ZM209.246 88.1807C209.246 87.6284 208.799 87.1807 208.246 87.1807C207.694 87.1807 207.246 87.6284 207.246 88.1807H209.246ZM207.246 84.0696C207.246 84.6219 207.694 85.0696 208.246 85.0696C208.799 85.0696 209.246 84.6219 209.246 84.0696H207.246ZM207.875 81.0856C207.362 81.2908 207.113 81.8727 207.318 82.3855C207.523 82.8983 208.105 83.1477 208.618 82.9426L207.875 81.0856ZM208.618 82.9426C209.13 82.7375 209.38 82.1555 209.175 81.6428C208.97 81.13 208.388 80.8806 207.875 81.0857L208.618 82.9426ZM209.246 81.3321C209.246 80.7798 208.799 80.3321 208.246 80.3321C207.694 80.3321 207.246 80.7798 207.246 81.3321H209.246ZM207.246 79.968C207.246 80.5203 207.694 80.968 208.246 80.968C208.799 80.968 209.246 80.5203 209.246 79.968H207.246ZM206.936 77.8004C206.412 77.6273 205.846 77.9121 205.673 78.4365C205.5 78.961 205.785 79.5265 206.309 79.6996L206.936 77.8004ZM203.063 78.6277C203.587 78.8009 204.153 78.5161 204.326 77.9916C204.499 77.4672 204.214 76.9017 203.69 76.7286L203.063 78.6277ZM200.443 75.6567C199.919 75.4835 199.353 75.7683 199.18 76.2927C199.007 76.8172 199.292 77.3827 199.816 77.5558L200.443 75.6567ZM196.569 76.4839C197.094 76.6571 197.659 76.3723 197.832 75.8479C198.006 75.3234 197.721 74.7579 197.196 74.5848L196.569 76.4839ZM193.95 73.5129C193.425 73.3397 192.86 73.6245 192.687 74.1489C192.513 74.6734 192.798 75.2389 193.323 75.412L193.95 73.5129ZM190.076 74.3401C190.6 74.5133 191.166 74.2285 191.339 73.7041C191.512 73.1796 191.227 72.6141 190.703 72.441L190.076 74.3401ZM191.095 71.6887C191.432 71.2505 191.349 70.6227 190.911 70.2866C190.472 69.9504 189.845 70.0331 189.509 70.4714L191.095 71.6887ZM191.881 66.6432C191.632 67.1361 191.829 67.7376 192.322 67.9867C192.815 68.2357 193.417 68.038 193.666 67.5451L191.881 66.6432ZM195.55 63.1105C195.736 62.5906 195.466 62.0181 194.946 61.8318C194.426 61.6455 193.853 61.9159 193.667 62.4358L195.55 63.1105ZM195.03 58.0293C194.888 58.5628 195.204 59.111 195.738 59.2537C196.272 59.3965 196.82 59.0796 196.962 58.5461L195.03 58.0293ZM197.952 54.2854C198.054 53.7426 197.696 53.22 197.154 53.1182C196.611 53.0164 196.088 53.3739 195.986 53.9167L197.952 54.2854ZM196.522 50.1446C196.468 50.6943 196.871 51.1833 197.42 51.2367C197.97 51.2902 198.459 50.8879 198.512 50.3382L196.522 50.1446ZM198.726 46.3598C198.732 45.8076 198.289 45.3552 197.736 45.3493C197.184 45.3435 196.732 45.7865 196.726 46.3387L198.726 46.3598ZM196.605 42.5281C196.646 43.0789 197.125 43.4924 197.676 43.4518C198.227 43.4112 198.64 42.9317 198.599 42.3809L196.605 42.5281ZM198.143 38.4281C198.058 37.8825 197.546 37.5097 197 37.5955C196.455 37.6812 196.082 38.1931 196.168 38.7386L198.143 38.4281ZM195.422 34.9942C195.552 35.531 196.092 35.8611 196.629 35.7314C197.166 35.6017 197.496 35.0614 197.366 34.5245L195.422 34.9942ZM196.277 30.7007C196.104 30.1762 195.538 29.891 195.014 30.0639C194.489 30.2367 194.204 30.802 194.377 31.3266L196.277 30.7007ZM193.033 27.754C193.249 28.2623 193.836 28.4991 194.345 28.283C194.853 28.0669 195.09 27.4797 194.874 26.9715L193.033 27.754ZM193.154 23.3749C192.893 22.888 192.287 22.7047 191.8 22.9653C191.313 23.226 191.13 23.832 191.39 24.3189L193.154 23.3749ZM189.436 21.0656C189.745 21.5236 190.366 21.6447 190.824 21.336C191.282 21.0274 191.403 20.4059 191.095 19.9479L189.436 21.0656ZM188.65 16.7524C188.287 16.3367 187.655 16.2944 187.239 16.658C186.823 17.0215 186.781 17.6533 187.145 18.069L188.65 16.7524ZM184.48 15.4842C184.911 15.8293 185.541 15.7594 185.886 15.3282C186.231 14.8969 186.161 14.2676 185.73 13.9226L184.48 15.4842ZM181.612 11.7324C181.077 11.5976 180.533 11.9225 180.399 12.4581C180.264 12.9936 180.589 13.5371 181.124 13.6719L181.612 11.7324ZM176.859 13.4962C177.407 13.4326 177.8 12.9362 177.737 12.3876C177.673 11.839 177.177 11.4459 176.628 11.5095L176.859 13.4962ZM171.909 12.5417C171.381 12.7039 171.085 13.2633 171.247 13.7913C171.409 14.3192 171.969 14.6157 172.497 14.4535L171.909 12.5417ZM168.243 16.0423C168.75 15.8225 168.982 15.2336 168.762 14.727C168.543 14.2203 167.954 13.9878 167.447 14.2076L168.243 16.0423ZM163.186 16.2738C162.699 16.534 162.515 17.1399 162.775 17.627C163.035 18.1141 163.641 18.298 164.128 18.0378L163.186 16.2738ZM160.172 20.3422C160.638 20.0465 160.777 19.4287 160.481 18.9622C160.185 18.4957 159.568 18.3573 159.101 18.6529L160.172 20.3422ZM156.022 19.4388C155.479 19.3415 154.959 19.7034 154.862 20.2471C154.765 20.7908 155.127 21.3103 155.67 21.4075L156.022 19.4388ZM151.989 20.8579C152.538 20.9243 153.036 20.5337 153.102 19.9854C153.169 19.4371 152.778 18.9388 152.23 18.8724L151.989 20.8579ZM148.418 18.5119C147.867 18.474 147.39 18.8899 147.352 19.4409C147.314 19.9918 147.73 20.4693 148.281 20.5072L148.418 18.5119ZM144.556 20.3434C145.109 20.354 145.565 19.9151 145.576 19.3629C145.586 18.8107 145.147 18.3544 144.595 18.3437L144.556 20.3434ZM140.765 18.3658C140.213 18.3833 139.779 18.8449 139.797 19.3969C139.814 19.9489 140.276 20.3823 140.828 20.3648L140.765 18.3658ZM137.12 20.5904C137.67 20.5388 138.074 20.0511 138.022 19.5013C137.971 18.9514 137.483 18.5476 136.933 18.5992L137.12 20.5904ZM134.995 20.8144C135.516 20.997 136.087 20.7226 136.27 20.2013C136.452 19.6801 136.178 19.1096 135.656 18.9269L134.995 20.8144ZM136.048 19.0763C135.537 18.8662 134.953 19.11 134.743 19.6208C134.533 20.1315 134.777 20.7159 135.287 20.9259L136.048 19.0763ZM133.534 19.5589C133.014 19.7473 132.746 20.3209 132.935 20.84C133.123 21.3592 133.697 21.6274 134.216 21.439L133.534 19.5589ZM130.906 23.2405C131.361 22.9272 131.476 22.3045 131.162 21.8497C130.849 21.3949 130.226 21.2801 129.772 21.5934L130.906 23.2405ZM126.507 24.1516C126.089 24.5135 126.044 25.1451 126.406 25.5623C126.768 25.9795 127.4 26.0243 127.817 25.6625L126.507 24.1516ZM124.91 28.3664C125.303 27.9784 125.307 27.3452 124.919 26.9522C124.531 26.5592 123.898 26.5552 123.505 26.9432L124.91 28.3664ZM120.669 29.8751C120.293 30.2799 120.316 30.9126 120.721 31.2884C121.126 31.6641 121.759 31.6406 122.134 31.2358L120.669 29.8751ZM119.462 34.2134C119.825 33.7968 119.781 33.1652 119.364 32.8026C118.947 32.4401 118.316 32.484 117.953 32.9006L119.462 34.2134ZM115.328 35.9989C114.977 36.4247 115.037 37.055 115.462 37.4068C115.888 37.7586 116.518 37.6987 116.87 37.2729L115.328 35.9989ZM114.347 40.3952C114.689 39.9621 114.616 39.3332 114.183 38.9905C113.75 38.6478 113.121 38.7211 112.778 39.1542L114.347 40.3952ZM110.293 42.3568C109.958 42.7961 110.043 43.4236 110.483 43.7582C110.922 44.0928 111.55 44.0079 111.884 43.5686L110.293 42.3568ZM109.476 46.7871C109.803 46.3421 109.708 45.7162 109.263 45.3891C108.818 45.0619 108.192 45.1574 107.865 45.6024L109.476 46.7871ZM105.387 47.3995C104.857 47.556 104.555 48.1122 104.711 48.6419C104.868 49.1715 105.424 49.474 105.953 49.3175L105.387 47.3995ZM102.326 50.3892C102.856 50.2327 103.158 49.6765 103.002 49.1469C102.845 48.6172 102.289 48.3147 101.76 48.4712L102.326 50.3892ZM101.35 48.098C101.379 47.5465 100.956 47.0754 100.405 47.0457C99.8535 47.0161 99.3823 47.4391 99.3527 47.9906L101.35 48.098ZM99.4883 44.1734C99.4786 44.7256 99.9184 45.1811 100.471 45.1908C101.023 45.2005 101.478 44.7607 101.488 44.2085L99.4883 44.1734ZM101.486 40.316C101.476 39.7638 101.02 39.3246 100.467 39.3349C99.9153 39.3453 99.4761 39.8014 99.4864 40.3535L101.486 40.316ZM99.3414 36.5386C99.3734 37.09 99.8462 37.511 100.398 37.4791C100.949 37.4471 101.37 36.9743 101.338 36.4229L99.3414 36.5386ZM101.028 32.5343C100.972 31.9849 100.481 31.5851 99.9316 31.6414C99.3822 31.6977 98.9824 32.1888 99.0387 32.7382L101.028 32.5343ZM98.5553 28.9647C98.6402 29.5105 99.1514 29.884 99.6971 29.7991C100.243 29.7142 100.616 29.203 100.531 28.6572L98.5553 28.9647ZM99.8093 24.8039C99.6896 24.2648 99.1554 23.9248 98.6163 24.0445C98.0771 24.1643 97.7371 24.6984 97.8569 25.2376L99.8093 24.8039ZM96.8948 21.5887C97.0585 22.1162 97.6187 22.4112 98.1462 22.2475C98.6737 22.0839 98.9687 21.5236 98.805 20.9961L96.8948 21.5887ZM97.4339 17.2764C97.2132 16.7702 96.6239 16.5387 96.1176 16.7594C95.6114 16.9801 95.3799 17.5694 95.6006 18.0757L97.4339 17.2764ZM93.8813 14.8019C94.1772 15.2682 94.7951 15.4063 95.2614 15.1103C95.7277 14.8144 95.8658 14.1965 95.5699 13.7302L93.8813 14.8019ZM145.579 48.7747C145.092 49.0361 144.91 49.6424 145.171 50.1289C145.433 50.6154 146.039 50.7979 146.525 50.5366L145.579 48.7747ZM143.334 52.1928C143.828 51.9451 144.027 51.3441 143.779 50.8505C143.531 50.3569 142.93 50.1576 142.437 50.4053L143.334 52.1928ZM139.25 51.9531C138.75 52.1879 138.535 52.7835 138.77 53.2833C139.005 53.7832 139.601 53.9981 140.101 53.7633L139.25 51.9531ZM136.825 55.2478C137.331 55.0269 137.562 54.4375 137.342 53.9313C137.121 53.4251 136.531 53.1938 136.025 53.4147L136.825 55.2478ZM132.916 53.3626C132.391 53.1894 131.826 53.4742 131.653 53.9986C131.479 54.5231 131.764 55.0886 132.289 55.2617L132.916 53.3626ZM127.925 53.8209C128.449 53.9941 129.014 53.7093 129.188 53.1849C129.361 52.6604 129.076 52.0949 128.552 51.9218L127.925 53.8209ZM124.187 50.481C123.663 50.3078 123.098 50.5926 122.924 51.117C122.751 51.6415 123.036 52.207 123.56 52.3801L124.187 50.481ZM119.196 50.9393C119.721 51.1125 120.286 50.8277 120.459 50.3032C120.633 49.7788 120.348 49.2133 119.823 49.0402L119.196 50.9393ZM119.358 48.6246C119.749 48.234 119.749 47.6008 119.358 47.2104C118.968 46.8199 118.334 46.82 117.944 47.2106L119.358 48.6246ZM120.716 44.5646C120.307 44.9358 120.276 45.5682 120.647 45.9772C121.019 46.3862 121.651 46.417 122.06 46.0458L120.716 44.5646ZM124.889 43.6263C125.32 43.2808 125.389 42.6514 125.043 42.2206C124.698 41.7898 124.068 41.7207 123.637 42.0662L124.889 43.6263ZM126.733 39.763C126.277 40.0752 126.161 40.6976 126.473 41.1531C126.785 41.6087 127.408 41.725 127.863 41.4128L126.733 39.763ZM130.997 39.4656C131.48 39.1971 131.653 38.5882 131.385 38.1056C131.116 37.623 130.507 37.4494 130.025 37.718L130.997 39.4656ZM133.528 36.0144C133.018 36.2263 132.777 36.8115 132.989 37.3215C133.2 37.8316 133.786 38.0733 134.296 37.8614L133.528 36.0144ZM137.746 36.6905C138.28 36.5503 138.6 36.0036 138.46 35.4694C138.32 34.9352 137.773 34.6158 137.239 34.7559L137.746 36.6905ZM141.114 34.0548C140.564 34.1091 140.163 34.5987 140.217 35.1483C140.271 35.6979 140.761 36.0994 141.31 36.0451L141.114 34.0548ZM142.4 35.7309C142.673 36.2112 143.284 36.3793 143.764 36.1065C144.244 35.8337 144.412 35.2233 144.139 34.7431L142.4 35.7309ZM144.479 35.359C144.218 34.8721 143.612 34.6889 143.125 34.9497C142.639 35.2106 142.455 35.8166 142.716 36.3035L144.479 35.359ZM143.562 38.0342C143.786 38.5389 144.377 38.7663 144.882 38.5421C145.387 38.3179 145.614 37.727 145.39 37.2223L143.562 38.0342ZM146.618 40.4133C146.443 39.8893 145.877 39.6061 145.353 39.7807C144.829 39.9553 144.546 40.5216 144.72 41.0455L146.618 40.4133ZM145.631 44.1657C145.767 44.7009 146.311 45.0244 146.846 44.8883C147.381 44.7521 147.705 44.2078 147.569 43.6726L145.631 44.1657ZM148.304 46.9727C148.199 46.4304 147.674 46.0759 147.132 46.1808C146.59 46.2857 146.235 46.8103 146.34 47.3525L148.304 46.9727ZM135.567 27.678C135.02 27.6031 134.516 27.9859 134.441 28.5331C134.366 29.0802 134.749 29.5846 135.296 29.6595L135.567 27.678ZM131.96 30.0071C132.486 29.8384 132.775 29.2753 132.606 28.7494C132.438 28.2235 131.875 27.934 131.349 28.1027L131.96 30.0071ZM127.682 29.8966C127.219 30.1971 127.087 30.8163 127.387 31.2797C127.688 31.7431 128.307 31.8752 128.77 31.5747L127.682 29.8966ZM125.862 33.8204C126.275 33.4535 126.313 32.8215 125.946 32.4086C125.579 31.9958 124.947 31.9585 124.534 32.3254L125.862 33.8204ZM125.541 34.1963C125.962 33.8386 126.013 33.2075 125.655 32.7867C125.298 32.3659 124.667 32.3148 124.246 32.6725L125.541 34.1963ZM126.551 30.8241C126.108 31.1543 126.017 31.7809 126.348 32.2236C126.678 32.6663 127.304 32.7574 127.747 32.4272L126.551 30.8241ZM130.797 30.5526C131.3 30.326 131.525 29.734 131.298 29.2303C131.072 28.7267 130.48 28.5021 129.976 28.7287L130.797 30.5526ZM135.022 27.7221C134.471 27.6913 133.999 28.1134 133.968 28.6648C133.937 29.2162 134.359 29.6882 134.911 29.719L135.022 27.7221ZM60.0412 30.2038C59.8953 30.7365 60.2089 31.2866 60.7416 31.4324C61.2743 31.5783 61.8243 31.2647 61.9702 30.732L60.0412 30.2038ZM61.2776 34.2151C61.3495 33.6675 60.964 33.1653 60.4164 33.0934C59.8688 33.0215 59.3666 33.4071 59.2946 33.9546L61.2776 34.2151ZM59.0382 37.764C59.0366 38.3163 59.4829 38.7653 60.0352 38.767C60.5875 38.7686 61.0365 38.3222 61.0382 37.7699L59.0382 37.764ZM61.2696 41.312C61.1945 40.7648 60.6901 40.3821 60.143 40.4572C59.5958 40.5323 59.2131 41.0367 59.2882 41.5838L61.2696 41.312ZM60.1046 45.3423C60.2651 45.8708 60.8236 46.1691 61.352 46.0086C61.8805 45.8482 62.1788 45.2897 62.0184 44.7612L60.1046 45.3423ZM63.3275 48.0174C63.076 47.5257 62.4736 47.331 61.9819 47.5824C61.4901 47.8339 61.2954 48.4363 61.5468 48.928L63.3275 48.0174ZM63.5328 52.0562C63.8741 52.4905 64.5027 52.5659 64.937 52.2247C65.3712 51.8834 65.4467 51.2548 65.1054 50.8205L63.5328 52.0562ZM67.28 53.0839C66.8602 52.725 66.229 52.7744 65.8701 53.1942C65.5113 53.614 65.5607 54.2452 65.9805 54.6041L67.28 53.0839ZM68.8569 56.6324C69.335 56.9089 69.9467 56.7454 70.2231 56.2673C70.4996 55.7892 70.3361 55.1775 69.858 54.9011L68.8569 56.6324ZM72.73 56.2591C72.2138 56.063 71.6362 56.3226 71.4402 56.8389C71.2441 57.3552 71.5036 57.9327 72.02 58.1288L72.73 56.2591ZM77.0251 57.8651C77.5548 57.7086 77.8573 57.1524 77.7008 56.6228C77.5443 56.0931 76.9881 55.7906 76.4584 55.9471L77.0251 57.8651ZM82.0278 54.3015C81.4982 54.458 81.1957 55.0142 81.3522 55.5439C81.5087 56.0735 82.0649 56.376 82.5946 56.2195L82.0278 54.3015ZM85.2156 51.9526C84.9759 51.4551 84.3783 51.246 83.8807 51.4856C83.3831 51.7253 83.1741 52.3229 83.4137 52.8205L85.2156 51.9526ZM81.207 49.2219C81.53 49.6699 82.155 49.7713 82.603 49.4483C83.051 49.1253 83.1523 48.5003 82.8294 48.0523L81.207 49.2219ZM80.0359 44.5377C79.6756 44.1191 79.0442 44.0718 78.6256 44.4321C78.207 44.7924 78.1598 45.4238 78.5201 45.8424L80.0359 44.5377ZM75.5882 42.6273C75.9705 43.0259 76.6036 43.0391 77.0022 42.6568C77.4007 42.2746 77.414 41.6415 77.0317 41.2429L75.5882 42.6273ZM73.8926 38.1001C73.4952 37.7166 72.8621 37.728 72.4787 38.1254C72.0952 38.5229 72.1065 39.1559 72.504 39.5394L73.8926 38.1001ZM69.3096 36.5546C69.7188 36.9255 70.3512 36.8945 70.7221 36.4853C71.093 36.0761 71.062 35.4437 70.6529 35.0728L69.3096 36.5546ZM67.3268 32.1412C66.9075 31.7817 66.2762 31.8302 65.9167 32.2495C65.5573 32.6688 65.6058 33.3001 66.025 33.6595L67.3268 32.1412ZM62.6637 30.8581C63.0931 31.2054 63.7227 31.1389 64.0701 30.7095C64.4174 30.2801 64.3509 29.6505 63.9215 29.3031L62.6637 30.8581ZM94.4019 12.0744C93.9281 11.4713 93.469 10.8933 93.0235 10.3397L91.4655 11.5938C91.9054 12.1403 92.3596 12.7122 92.8293 13.31L94.4019 12.0744ZM90.1846 6.94517C89.0779 5.68563 88.0496 4.60584 87.0727 3.70035L85.7131 5.16718C86.6247 6.01208 87.6043 7.03858 88.6821 8.26525L90.1846 6.94517ZM83.3143 0.959238C81.7192 0.154465 80.1557 -0.134492 78.5019 0.0569493L78.7319 2.04368C79.9735 1.89995 81.1457 2.10523 82.4134 2.74483L83.3143 0.959238ZM74.0268 1.5396C73.3888 1.86038 72.7286 2.22697 72.0409 2.63453L73.0605 4.35511C73.7188 3.96496 74.3378 3.62181 74.9252 3.32646L74.0268 1.5396ZM72.0409 2.63453C71.4342 2.99405 70.8258 3.34228 70.2195 3.67881L71.1901 5.4275C71.812 5.08236 72.4367 4.72476 73.0605 4.35511L72.0409 2.63453ZM66.4913 5.62481C65.149 6.28406 63.8604 6.87506 62.6712 7.39257L63.4692 9.22647C64.6843 8.69771 66.001 8.09385 67.373 7.41997L66.4913 5.62481ZM58.7767 8.97442C57.972 9.2758 57.3073 9.50633 56.818 9.66291L57.4276 11.5678C57.9548 11.3991 58.6509 11.1572 59.4782 10.8474L58.7767 8.97442ZM57.3152 9.63402C56.7488 9.52297 56.1086 9.39798 55.4135 9.26293L55.032 11.2262C55.7261 11.3611 56.3652 11.4858 56.9304 11.5966L57.3152 9.63402ZM51.6074 8.5289C50.3697 8.29196 49.0788 8.0466 47.7991 7.80585L47.4293 9.77137C48.7066 10.0117 49.9954 10.2566 51.2314 10.4932L51.6074 8.5289ZM43.9863 7.09737C43.3225 6.9759 42.6824 6.85995 42.077 6.75179L41.7253 8.72061C42.3274 8.82819 42.9647 8.94364 43.6262 9.0647L43.9863 7.09737ZM42.1574 6.7696C41.799 6.67455 41.4523 6.58971 41.1178 6.51461L40.6796 8.46601C40.9882 8.53531 41.3101 8.61404 41.6449 8.7028L42.1574 6.7696ZM38.9825 6.14218C38.5869 6.09592 38.216 6.0673 37.8719 6.05563L37.8041 8.05448C38.087 8.06407 38.4026 8.088 38.7502 8.12865L38.9825 6.14218ZM37.9794 6.06511C37.3251 5.97163 36.4961 5.90012 35.5501 5.89915L35.548 7.89915C36.3967 7.90002 37.1318 7.96433 37.6966 8.04501L37.9794 6.06511ZM30.7388 6.52288C29.2677 6.92122 27.7365 7.54839 26.267 8.5061L27.3591 10.1816C28.6296 9.35358 29.9632 8.80493 31.2616 8.45336L30.7388 6.52288ZM22.6562 11.8212C21.7303 12.9972 20.9041 14.3867 20.2198 16.0224L22.0648 16.7943C22.6829 15.317 23.4191 14.0854 24.2276 13.0583L22.6562 11.8212ZM18.8378 20.5983C18.6851 21.3461 18.5557 22.1295 18.4512 22.95L20.4352 23.2026C20.5336 22.4292 20.6551 21.6951 20.7974 20.9984L18.8378 20.5983ZM18.4512 22.95C18.3611 23.6578 18.2881 24.3788 18.2317 25.1108L20.2258 25.2644C20.2797 24.564 20.3495 23.876 20.4352 23.2026L18.4512 22.95ZM18.0892 29.4485C18.1016 30.8676 18.1691 32.3118 18.29 33.7678L20.2831 33.6023C20.1661 32.1936 20.1011 30.7988 20.0891 29.431L18.0892 29.4485ZM18.7965 38.0599C19.0133 39.4795 19.2789 40.8987 19.592 42.3056L21.5442 41.8711C21.241 40.5084 20.9836 39.1334 20.7736 37.7579L18.7965 38.0599ZM20.6764 46.4894C21.0912 47.885 21.5544 49.256 22.0648 50.5895L23.9326 49.8746C23.4414 48.591 22.9945 47.2685 22.5934 45.9195L20.6764 46.4894ZM23.7889 54.5722C24.4397 55.9059 25.1444 57.1827 25.9021 58.3859L27.5945 57.3202C26.8785 56.1832 26.2084 54.9699 25.5863 53.6951L23.7889 54.5722ZM28.4808 61.9351C29.4616 63.0971 30.5115 64.1463 31.6295 65.0555L32.8913 63.5037C31.8815 62.6826 30.9196 61.7238 30.0093 60.6451L28.4808 61.9351ZM35.4308 67.4498C36.1212 67.7669 36.8313 68.0331 37.5604 68.2438L38.1155 66.3223C37.4857 66.1404 36.869 65.9095 36.2657 65.6323L35.4308 67.4498ZM37.5604 68.2438C37.7372 68.2948 37.9151 68.3441 38.0942 68.3918L38.6082 66.4589C38.4426 66.4149 38.2783 66.3694 38.1155 66.3223L37.5604 68.2438ZM39.1671 68.6541C39.3456 68.6942 39.5252 68.7327 39.7056 68.7697L40.1074 66.8104C39.9386 66.7758 39.7709 66.7399 39.6045 66.7026L39.1671 68.6541ZM39.6232 66.831L37.7504 67.3844L38.3172 69.3024L40.1899 68.7491L39.6232 66.831ZM34.005 68.4911L30.2595 69.5978L30.8262 71.5158L34.5717 70.4091L34.005 68.4911ZM26.514 70.7045L22.7686 71.8112L23.3353 73.7292L27.0808 72.6225L26.514 70.7045ZM19.0231 72.9178L15.2776 74.0245L15.8444 75.9426L19.5898 74.8359L19.0231 72.9178ZM11.5322 75.1312L7.78673 76.2379L8.35346 78.156L12.0989 77.0493L11.5322 75.1312ZM4.04126 77.3446L2.16853 77.898L2.73526 79.816L4.60799 79.2626L4.04126 77.3446ZM2.76959 77.9088L2.59504 77.8503L1.95964 79.7467L2.1342 79.8052L2.76959 77.9088ZM2.24594 77.7333L2.07139 77.6749L1.43599 79.5712L1.61054 79.6297L2.24594 77.7333ZM0.753688 78.623V78.7331H2.75369V78.623H0.753688ZM0.753688 78.9532V79.0633H2.75369V78.9532H0.753688ZM1.47033 78.1043L1.2819 78.16L1.84863 80.078L2.03705 80.0223L1.47033 78.1043ZM0.90506 78.2713L0.716638 78.327L1.28336 80.245L1.47178 80.1893L0.90506 78.2713ZM0 79.286V81.5646H2V79.286H0ZM0 86.1219V90.6791H2V86.1219H0ZM0 95.2364V99.7936H2V95.2364H0ZM0 104.351V106.629H2V104.351H0ZM0.707407 107.586L2.40312 108.105L2.9883 106.192L1.29259 105.673L0.707407 107.586ZM5.79454 109.142L7.49025 109.661L8.07544 107.749L6.37972 107.23L5.79454 109.142ZM6.78284 108.705V110.73H8.78284V108.705H6.78284ZM6.78284 114.781V118.832H8.78284V114.781H6.78284ZM6.78284 122.883V126.934H8.78284V122.883H6.78284ZM6.78284 130.985V135.036H8.78284V130.985H6.78284ZM6.78284 139.087V143.138H8.78284V139.087H6.78284ZM6.78284 147.189V151.239H8.78284V147.189H6.78284ZM6.78284 155.29V159.341H8.78284V155.29H6.78284ZM6.78284 163.392V167.443H8.78284V163.392H6.78284ZM6.78284 171.494V175.545H8.78284V171.494H6.78284ZM6.78284 179.596V183.647H8.78284V179.596H6.78284ZM6.78284 187.698V191.749H8.78284V187.698H6.78284ZM6.78284 195.799V199.85H8.78284V195.799H6.78284ZM6.78284 203.901V207.952H8.78284V203.901H6.78284ZM6.78284 212.003V216.054H8.78284V212.003H6.78284ZM6.78284 220.105V222.13H8.78284V220.105H6.78284ZM7.44565 223.072L9.38354 223.766L10.0579 221.883L8.12004 221.189L7.44565 223.072ZM13.2593 225.154L17.1351 226.542L17.8095 224.659L13.9337 223.271L13.2593 225.154ZM21.0109 227.931L24.8866 229.319L25.561 227.436L21.6852 226.048L21.0109 227.931ZM28.7624 230.707L32.6382 232.095L33.3126 230.212L29.4368 228.824L28.7624 230.707ZM36.514 233.483L40.3897 234.871L41.0641 232.989L37.1883 231.6L36.514 233.483ZM44.2655 236.26L48.1413 237.648L48.8157 235.765L44.9399 234.377L44.2655 236.26ZM52.017 239.036L55.8928 240.424L56.5672 238.541L52.6914 237.153L52.017 239.036ZM59.7686 241.812L63.6444 243.201L64.3188 241.318L60.443 239.93L59.7686 241.812ZM67.5201 244.589L71.3959 245.977L72.0703 244.094L68.1945 242.706L67.5201 244.589ZM75.2717 247.365L79.1475 248.753L79.8219 246.87L75.9461 245.482L75.2717 247.365ZM83.0233 250.142L86.899 251.53L87.5734 249.647L83.6976 248.259L83.0233 250.142ZM90.7748 252.918L94.6506 254.306L95.325 252.423L91.4492 251.035L90.7748 252.918ZM98.5264 255.694L102.402 257.082L103.077 255.2L99.2008 253.811L98.5264 255.694ZM106.278 258.471L110.154 259.859L110.828 257.976L106.952 256.588L106.278 258.471ZM114.029 261.247L115.967 261.941L116.642 260.058L114.704 259.364L114.029 261.247ZM115.311 260.888L115.311 260.888L117.298 261.112L117.298 261.111L115.311 260.888ZM115.311 260.888L115.311 260.889L117.298 261.112L117.298 261.112L115.311 260.888ZM116.769 261.886L118.591 260.929L117.661 259.158L115.839 260.115L116.769 261.886ZM122.233 259.015L125.876 257.102L124.946 255.331L121.303 257.245L122.233 259.015ZM129.518 255.189L133.161 253.275L132.231 251.505L128.588 253.418L129.518 255.189ZM136.803 251.362L140.446 249.448L139.516 247.678L135.873 249.591L136.803 251.362ZM144.088 247.535L147.731 245.622L146.801 243.851L143.158 245.764L144.088 247.535ZM151.373 243.708L155.016 241.795L154.086 240.024L150.443 241.938L151.373 243.708ZM158.658 239.881L162.301 237.968L161.371 236.197L157.728 238.111L158.658 239.881ZM165.943 236.054L169.586 234.141L168.656 232.37L165.013 234.284L165.943 236.054ZM173.228 232.228L176.871 230.314L175.941 228.544L172.298 230.457L173.228 232.228ZM180.513 228.401L184.156 226.487L183.226 224.717L179.583 226.63L180.513 228.401ZM187.798 224.574L191.441 222.66L190.511 220.89L186.868 222.803L187.798 224.574ZM195.083 220.747L198.726 218.834L197.796 217.063L194.153 218.977L195.083 220.747ZM202.368 216.92L204.19 215.964L203.26 214.193L201.438 215.15L202.368 216.92ZM204.725 215.078V213.027H202.725V215.078H204.725ZM204.725 208.925V204.822H202.725V208.925H204.725ZM204.725 200.72V196.617H202.725V200.72H204.725ZM204.725 192.515V188.412H202.725V192.515H204.725ZM204.725 184.31V180.207H202.725V184.31H204.725ZM204.725 176.105V172.002H202.725V176.105H204.725ZM204.725 167.9V163.797H202.725V167.9H204.725ZM204.725 159.695V155.592H202.725V159.695H204.725ZM204.725 151.49V147.387H202.725V151.49H204.725ZM204.725 143.285V139.182H202.725V143.285H204.725ZM204.725 135.08V130.977H202.725V135.08H204.725ZM204.725 126.875V122.772H202.725V126.875H204.725ZM204.725 118.67V114.567H202.725V118.67H204.725ZM204.725 110.465V108.414H202.725V110.465H204.725ZM204.083 109.347L205.213 108.914L204.497 107.047L203.367 107.48L204.083 109.347ZM207.474 108.047L208.604 107.614L207.888 105.747L206.758 106.18L207.474 108.047ZM209.246 106.68V104.625H207.246V106.68H209.246ZM209.246 100.514V96.4027H207.246V100.514H209.246ZM209.246 92.2917V88.1807H207.246V92.2917H209.246ZM209.246 84.0696V82.0141H207.246V84.0696H209.246ZM207.875 81.0856L207.875 81.0856L208.618 82.9426L208.618 82.9426L207.875 81.0856ZM207.875 81.0857L207.875 81.0857L208.618 82.9426L208.618 82.9426L207.875 81.0857ZM209.246 82.0142V81.3321H207.246V82.0142H209.246ZM209.246 79.968V79.286H207.246V79.968H209.246ZM208.56 78.3364L206.936 77.8004L206.309 79.6996L207.933 80.2356L208.56 78.3364ZM203.69 76.7286L200.443 75.6567L199.816 77.5558L203.063 78.6277L203.69 76.7286ZM197.196 74.5848L193.95 73.5129L193.323 75.412L196.569 76.4839L197.196 74.5848ZM190.703 72.441L189.08 71.905L188.453 73.8042L190.076 74.3401L190.703 72.441ZM189.48 73.5546C190.042 72.9811 190.581 72.36 191.095 71.6887L189.509 70.4714C189.041 71.0814 188.555 71.6412 188.052 72.1546L189.48 73.5546ZM193.666 67.5451C194.343 66.204 194.97 64.7293 195.55 63.1105L193.667 62.4358C193.111 63.9878 192.516 65.3854 191.881 66.6432L193.666 67.5451ZM196.962 58.5461C197.162 57.8013 197.354 57.0318 197.541 56.2371L195.593 55.7807C195.412 56.5564 195.224 57.3057 195.03 58.0293L196.962 58.5461ZM197.541 56.2371C197.693 55.5856 197.83 54.9349 197.952 54.2854L195.986 53.9167C195.87 54.5371 195.739 55.1586 195.593 55.7807L197.541 56.2371ZM198.512 50.3382C198.643 49.0008 198.712 47.6732 198.726 46.3598L196.726 46.3387C196.713 47.5959 196.646 48.8659 196.522 50.1446L198.512 50.3382ZM198.599 42.3809C198.501 41.0412 198.347 39.7219 198.143 38.4281L196.168 38.7386C196.363 39.9795 196.51 41.2443 196.605 42.5281L198.599 42.3809ZM197.366 34.5245C197.049 33.2138 196.684 31.9372 196.277 30.7007L194.377 31.3266C194.768 32.5122 195.118 33.7367 195.422 34.9942L197.366 34.5245ZM194.874 26.9715C194.339 25.7152 193.763 24.5137 193.154 23.3749L191.39 24.3189C191.971 25.4041 192.522 26.5517 193.033 27.754L194.874 26.9715ZM191.095 19.9479C190.31 18.7831 189.49 17.7133 188.65 16.7524L187.145 18.069C187.925 18.9619 188.694 19.9644 189.436 21.0656L191.095 19.9479ZM185.73 13.9226C185.168 13.473 184.601 13.0729 184.032 12.7275L182.994 14.437C183.482 14.7332 183.978 15.0827 184.48 15.4842L185.73 13.9226ZM184.032 12.7275C183.282 12.2725 182.468 11.9478 181.612 11.7324L181.124 13.6719C181.809 13.8443 182.434 14.0973 182.994 14.437L184.032 12.7275ZM176.628 11.5095C175.09 11.6879 173.497 12.0538 171.909 12.5417L172.497 14.4535C173.998 13.9921 175.47 13.6573 176.859 13.4962L176.628 11.5095ZM167.447 14.2076C165.97 14.8481 164.534 15.5535 163.186 16.2738L164.128 18.0378C165.435 17.3396 166.823 16.6585 168.243 16.0423L167.447 14.2076ZM159.101 18.6529C158.38 19.1102 157.717 19.5519 157.127 19.9646L158.274 21.6034C158.837 21.2092 159.474 20.7842 160.172 20.3422L159.101 18.6529ZM157.907 19.8055C157.277 19.6728 156.649 19.5508 156.022 19.4388L155.67 21.4075C156.277 21.5161 156.886 21.6342 157.494 21.7625L157.907 19.8055ZM152.23 18.8724C150.931 18.7153 149.656 18.5971 148.418 18.5119L148.281 20.5072C149.486 20.5902 150.727 20.7052 151.989 20.8579L152.23 18.8724ZM144.595 18.3437C143.239 18.3175 141.954 18.3283 140.765 18.3658L140.828 20.3648C141.984 20.3283 143.235 20.3178 144.556 20.3434L144.595 18.3437ZM136.933 18.5992C136.219 18.6663 135.575 18.7423 135.011 18.8229L135.294 20.8028C135.822 20.7273 136.434 20.6549 137.12 20.5904L136.933 18.5992ZM134.851 20.7664C134.898 20.7811 134.946 20.7971 134.995 20.8144L135.656 18.9269C135.588 18.9029 135.52 18.8804 135.453 18.8592L134.851 20.7664ZM135.287 20.9259C135.335 20.9457 135.384 20.9665 135.434 20.9885L136.238 19.1569C136.174 19.1289 136.111 19.102 136.048 19.0763L135.287 20.9259ZM135.791 19.0737C135.057 19.1067 134.299 19.2811 133.534 19.5589L134.216 21.439C134.842 21.2118 135.397 21.0934 135.881 21.0717L135.791 19.0737ZM129.772 21.5934C128.717 22.32 127.623 23.183 126.507 24.1516L127.817 25.6625C128.892 24.7301 129.926 23.9155 130.906 23.2405L129.772 21.5934ZM123.505 26.9432C122.568 27.8679 121.62 28.8501 120.669 29.8751L122.134 31.2358C123.069 30.229 123.997 29.2681 124.91 28.3664L123.505 26.9432ZM117.953 32.9006C117.074 33.911 116.197 34.9475 115.328 35.9989L116.87 37.2729C117.729 36.2333 118.595 35.2098 119.462 34.2134L117.953 32.9006ZM112.778 39.1542C111.934 40.2208 111.104 41.2919 110.293 42.3568L111.884 43.5686C112.688 42.5129 113.511 41.4515 114.347 40.3952L112.778 39.1542ZM107.865 45.6024C107.46 46.1526 107.063 46.6979 106.673 47.2369L108.294 48.4084C108.681 47.8738 109.075 47.3328 109.476 46.7871L107.865 45.6024ZM107.2 46.8636L105.387 47.3995L105.953 49.3175L107.767 48.7816L107.2 46.8636ZM101.76 48.4712L99.946 49.0071L100.513 50.9251L102.326 50.3892L101.76 48.4712ZM101.227 50.0391C101.272 49.4148 101.314 48.7667 101.35 48.098L99.3527 47.9906C99.3174 48.6464 99.2769 49.2816 99.2321 49.8931L101.227 50.0391ZM101.488 44.2085C101.51 42.9501 101.511 41.6474 101.486 40.316L99.4864 40.3535C99.511 41.6595 99.51 42.938 99.4883 44.1734L101.488 44.2085ZM101.338 36.4229C101.263 35.135 101.162 33.8344 101.028 32.5343L99.0387 32.7382C99.1688 34.0067 99.2683 35.2778 99.3414 36.5386L101.338 36.4229ZM100.531 28.6572C100.329 27.3557 100.09 26.0667 99.8093 24.8039L97.8569 25.2376C98.1271 26.4543 98.3586 27.7011 98.5553 28.9647L100.531 28.6572ZM98.805 20.9961C98.4047 19.7058 97.9499 18.4598 97.4339 17.2764L95.6006 18.0757C96.0834 19.1831 96.5134 20.3592 96.8948 21.5887L98.805 20.9961ZM95.5699 13.7302C95.2031 13.1523 94.8142 12.5991 94.4019 12.0744L92.8293 13.31C93.1973 13.7784 93.5477 14.2764 93.8813 14.8019L95.5699 13.7302ZM147.128 47.9257C146.651 48.1929 146.133 48.4771 145.579 48.7747L146.525 50.5366C147.089 50.2338 147.617 49.944 148.105 49.6709L147.128 47.9257ZM142.437 50.4053C141.43 50.9105 140.362 51.4309 139.25 51.9531L140.101 53.7633C141.229 53.2334 142.313 52.7054 143.334 52.1928L142.437 50.4053ZM136.025 53.4147C135.488 53.6492 134.945 53.8814 134.398 54.11L135.17 55.9551C135.727 55.7223 136.279 55.4861 136.825 55.2478L136.025 53.4147ZM135.098 54.083L132.916 53.3626L132.289 55.2617L134.471 55.9821L135.098 54.083ZM128.552 51.9218L124.187 50.481L123.56 52.3801L127.925 53.8209L128.552 51.9218ZM119.823 49.0402L117.641 48.3198L117.014 50.2189L119.196 50.9393L119.823 49.0402ZM118.049 49.9618C118.478 49.5148 118.915 49.0685 119.358 48.6246L117.944 47.2106C117.49 47.6648 117.044 48.1209 116.606 48.5769L118.049 49.9618ZM122.06 46.0458C122.978 45.2134 123.921 44.4028 124.889 43.6263L123.637 42.0662C122.635 42.8708 121.66 43.708 120.716 44.5646L122.06 46.0458ZM127.863 41.4128C128.886 40.712 129.931 40.0589 130.997 39.4656L130.025 37.718C128.899 38.3443 127.801 39.0307 126.733 39.763L127.863 41.4128ZM134.296 37.8614C135.427 37.3916 136.577 36.9972 137.746 36.6905L137.239 34.7559C135.974 35.0877 134.737 35.5124 133.528 36.0144L134.296 37.8614ZM141.31 36.0451C141.907 35.9861 142.509 35.9515 143.115 35.943L143.086 33.9432C142.423 33.9526 141.765 33.9904 141.114 34.0548L141.31 36.0451ZM142.238 35.4485C142.292 35.5414 142.346 35.6355 142.4 35.7309L144.139 34.7431C144.081 34.64 144.022 34.5383 143.963 34.4377L142.238 35.4485ZM142.716 36.3035C142.767 36.3988 142.818 36.4954 142.869 36.5932L144.643 35.6692C144.589 35.5647 144.534 35.4612 144.479 35.359L142.716 36.3035ZM142.869 36.5932C143.109 37.0527 143.34 37.5334 143.562 38.0342L145.39 37.2223C145.152 36.6863 144.903 36.168 144.643 35.6692L142.869 36.5932ZM144.72 41.0455C145.051 42.0384 145.355 43.0811 145.631 44.1657L147.569 43.6726C147.282 42.5457 146.965 41.4562 146.618 40.4133L144.72 41.0455ZM146.34 47.3525C146.443 47.8828 146.54 48.42 146.63 48.9633L148.603 48.6333C148.509 48.0739 148.41 47.5201 148.304 46.9727L146.34 47.3525ZM137.656 28.2451C136.967 27.96 136.269 27.7741 135.567 27.678L135.296 29.6595C135.828 29.7325 136.361 29.8737 136.892 30.0934L137.656 28.2451ZM131.349 28.1027C130.087 28.5076 128.859 29.1337 127.682 29.8966L128.77 31.5747C129.837 30.8827 130.905 30.3454 131.96 30.0071L131.349 28.1027ZM124.534 32.3254C124.045 32.7595 123.567 33.2102 123.1 33.6711L124.504 35.0948C124.95 34.6556 125.403 34.229 125.862 33.8204L124.534 32.3254ZM124.466 35.131C124.831 34.8067 125.19 34.4948 125.541 34.1963L124.246 32.6725C123.883 32.9809 123.514 33.3021 123.138 33.6349L124.466 35.131ZM127.747 32.4272C128.143 32.1316 128.522 31.8627 128.883 31.622L127.774 29.9579C127.379 30.221 126.971 30.5107 126.551 30.8241L127.747 32.4272ZM128.883 31.622C129.544 31.1814 130.183 30.8289 130.797 30.5526L129.976 28.7287C129.254 29.0535 128.52 29.4608 127.774 29.9579L128.883 31.622ZM134.911 29.719C135.629 29.7591 136.311 29.8993 136.954 30.1167L137.594 28.2219C136.791 27.9504 135.932 27.7728 135.022 27.7221L134.911 29.719ZM60.64 28.3546C60.4365 28.884 60.2323 29.5061 60.0412 30.2038L61.9702 30.732C62.1459 30.0905 62.3299 29.5324 62.5067 29.0726L60.64 28.3546ZM59.2946 33.9546C59.139 35.1397 59.0422 36.4217 59.0382 37.764L61.0382 37.7699C61.0419 36.5193 61.1321 35.3225 61.2776 34.2151L59.2946 33.9546ZM59.2882 41.5838C59.4581 42.8225 59.7225 44.0837 60.1046 45.3423L62.0184 44.7612C61.6695 43.6124 61.4265 42.4554 61.2696 41.312L59.2882 41.5838ZM61.5468 48.928C61.8373 49.4961 62.1576 50.0583 62.5099 50.6119L64.1973 49.5382C63.8794 49.0387 63.5902 48.5311 63.3275 48.0174L61.5468 48.928ZM62.5099 50.6119C62.8327 51.1191 63.1745 51.6001 63.5328 52.0562L65.1054 50.8205C64.7876 50.416 64.4841 49.9889 64.1973 49.5382L62.5099 50.6119ZM65.9805 54.6041C66.8965 55.3872 67.8646 56.0587 68.8569 56.6324L69.858 54.9011C68.9631 54.3836 68.0962 53.7816 67.28 53.0839L65.9805 54.6041ZM72.02 58.1288C72.5725 58.3386 73.1243 58.524 73.6711 58.6872L74.243 56.7707C73.7406 56.6208 73.235 56.4508 72.73 56.2591L72.02 58.1288ZM74.2404 58.6879L77.0251 57.8651L76.4584 55.9471L73.6737 56.7699L74.2404 58.6879ZM82.5946 56.2195L85.3793 55.3967L84.8125 53.4787L82.0278 54.3015L82.5946 56.2195ZM86.0628 54.1826C85.8724 53.4608 85.5822 52.7137 85.2156 51.9526L83.4137 52.8205C83.7393 53.4964 83.9785 54.1222 84.129 54.6928L86.0628 54.1826ZM82.8294 48.0523C82.0018 46.9045 81.0581 45.7253 80.0359 44.5377L78.5201 45.8424C79.5136 46.9967 80.42 48.1303 81.207 49.2219L82.8294 48.0523ZM77.0317 41.2429C76.0163 40.1842 74.9616 39.1314 73.8926 38.1001L72.504 39.5394C73.5568 40.5551 74.5929 41.5896 75.5882 42.6273L77.0317 41.2429ZM70.6529 35.0728C69.5242 34.0497 68.406 33.0665 67.3268 32.1412L66.025 33.6595C67.0912 34.5736 68.1955 35.5446 69.3096 36.5546L70.6529 35.0728ZM63.9215 29.3031C63.3136 28.8114 62.7335 28.3506 62.1887 27.9253L60.9581 29.5019C61.4933 29.9197 62.0643 30.3732 62.6637 30.8581L63.9215 29.3031Z" fill="#471C1C"/>
</svg>
