<svg width="26" height="26" viewBox="0 0 26 26" fill="none" xmlns="http://www.w3.org/2000/svg">
  <g filter="url(#filter0_d_27063_11183)">
    <circle cx="11.7734" cy="11.5" r="10.5" fill="#FFDC50"/>
    <circle cx="11.7734" cy="11.5" r="10.5" stroke="black"/>
  </g>
  <path d="M17.9043 6.51568C17.8963 6.20818 17.651 6.01438 17.2997 6.02144C16.9479 6.02851 16.7666 6.23354 16.7088 6.54117C16.6788 6.7007 16.6884 6.8676 16.6867 7.03126C16.6838 7.31047 16.6859 7.58974 16.6859 7.86901C16.6402 7.8888 16.5945 7.9086 16.5488 7.92842C16.3952 7.78751 16.2443 7.64395 16.0878 7.50613C14.6772 6.26412 13.0036 5.80175 11.1293 6.07656C8.48298 6.46454 6.52229 8.56873 6.29222 11.1955C6.07639 13.6595 7.74081 16.0403 10.2391 16.8411C12.7665 17.6513 15.5786 16.7083 17 14.5716C17.0915 14.434 17.1866 14.2928 17.2425 14.1407C17.3509 13.8453 17.2964 13.5703 16.9909 13.4125C16.6965 13.2604 16.4175 13.3215 16.2085 13.5795C16.104 13.7086 16.0245 13.8558 15.927 13.9904C15.0457 15.2058 13.8351 15.868 12.286 15.9402C10.2117 16.0367 8.31031 14.7518 7.7058 12.8578C7.08146 10.9017 7.94502 8.79401 9.79211 7.7658C11.5876 6.76628 13.8926 7.05312 15.3456 8.46247C15.452 8.56567 15.5237 8.70153 15.6962 8.93848C15.1289 8.93848 14.6922 8.91642 14.2592 8.94493C13.8592 8.97129 13.6474 9.19859 13.6507 9.51768C13.6539 9.82837 13.8806 10.0854 14.2654 10.0945C15.2699 10.1181 16.2754 10.1095 17.2804 10.0993C17.6115 10.0959 17.8856 9.91491 17.8956 9.60245C17.9287 8.57421 17.9313 7.54408 17.9043 6.51568Z" fill="black"/>
  <defs>
    <filter id="filter0_d_27063_11183" x="0.773438" y="0.5" width="25" height="25" filterUnits="userSpaceOnUse" color-interpolation-filters="sRGB">
      <feFlood flood-opacity="0" result="BackgroundImageFix"/>
      <feColorMatrix in="SourceAlpha" type="matrix" values="0 0 0 0 0 0 0 0 0 0 0 0 0 0 0 0 0 0 127 0" result="hardAlpha"/>
      <feOffset dx="3" dy="3"/>
      <feComposite in2="hardAlpha" operator="out"/>
      <feColorMatrix type="matrix" values="0 0 0 0 0 0 0 0 0 0 0 0 0 0 0 0 0 0 0.25 0"/>
      <feBlend mode="normal" in2="BackgroundImageFix" result="effect1_dropShadow_27063_11183"/>
      <feBlend mode="normal" in="SourceGraphic" in2="effect1_dropShadow_27063_11183" result="shape"/>
    </filter>
  </defs>
</svg>
