<svg width="20" height="20" viewBox="0 0 20 20" fill="none" xmlns="http://www.w3.org/2000/svg">
  <path d="M1.25 8.74998H18.7492V17.5001C18.7492 18.8808 17.63 20 16.2493 20H3.74993C2.36925 20 1.25 18.8808 1.25 17.5001V8.74998Z" fill="#E01616"/>
  <path d="M9.97702 5.45796L10.197 6.25015H9.37445C4.86859 6.25015 2.5 5.44064 2.5 3.48773C2.49916 1.13731 3.5426 0.000734329 5.54853 0.000734329C7.13627 0.000734329 8.2362 1.1372 9.04487 2.82405C9.42918 3.67418 9.74101 4.55525 9.97702 5.45786V5.45796ZM7.91807 3.90844C7.66863 3.49784 7.3222 3.15476 6.9092 2.90932C6.4962 2.66388 6.02926 2.52359 5.54937 2.50077C4.25993 2.50077 3.74944 2.86931 3.74944 3.99023C3.74944 4.5424 5.28342 4.93278 8.53197 4.99021C8.3589 4.61134 8.15228 4.24871 7.9146 3.90666L7.91796 3.90844H7.91807Z" fill="#559D4D"/>
  <path d="M10.22 5.45796L10 6.25015H10.8225C15.3285 6.25015 17.6971 5.44064 17.6971 3.48773C17.6971 1.13552 16.6536 0 14.6476 0C13.0599 0 11.9599 1.13647 11.1513 2.82332C10.7672 3.67373 10.4556 4.55508 10.22 5.45796ZM12.279 3.90844C12.5285 3.49784 12.8749 3.15476 13.2879 2.90932C13.7009 2.66388 14.1678 2.5236 14.6477 2.50077C15.9371 2.50077 16.4475 2.86931 16.4475 3.99024C16.4475 4.54241 14.9137 4.93278 11.6651 4.99021C11.8382 4.61134 12.0448 4.24871 12.2825 3.90666L12.279 3.90844Z" fill="#559D4D"/>
  <path d="M2.49993 5.0006H17.4992C18.8799 5.0006 19.9992 6.11985 19.9992 7.50054C19.9992 8.88123 18.8799 10.0005 17.4992 10.0005H2.49993C1.11925 10.0004 0 8.88112 0 7.50043C0 6.11975 1.11925 5.0005 2.49993 5.0005V5.0006Z" fill="#FB3939"/>
  <path d="M7.50011 10.0004H12.4999V19.9999H7.5L7.50011 10.0004Z" fill="#2D5E1A"/>
  <path d="M7.50011 5.0006C7.75385 4.56227 8.11838 4.19835 8.55716 3.94536C8.99593 3.69237 9.49351 3.5592 9.99999 3.5592C10.5065 3.5592 11.004 3.69237 11.4428 3.94536C11.8816 4.19835 12.2461 4.56227 12.4999 5.0006V10.0005H7.5V5.0006H7.50011Z" fill="#398830"/>
</svg>
