<svg width="346" height="412" viewBox="0 0 346 412" fill="none" xmlns="http://www.w3.org/2000/svg">
<g filter="url(#filter0_d_162_452)">
<path d="M11 32.2609C11 29.0779 12.2646 26.0254 14.5155 23.7749L23.778 14.514C26.0284 12.264 29.0803 11 32.2625 11H313.737C316.92 11 319.972 12.264 322.222 14.514L331.485 23.7749C333.735 26.0253 335 29.0779 335 32.2609V401H11V32.2609Z" fill="#2B294A"/>
<path d="M335 401.5H335.5V401V32.2609C335.5 28.9453 334.183 25.7655 331.838 23.4213L322.576 14.1604C320.231 11.8167 317.052 10.5 313.737 10.5H32.2625C28.9477 10.5 25.7686 11.8167 23.4245 14.1604L14.162 23.4213C11.8173 25.7655 10.5 28.9453 10.5 32.2609V401V401.5H11H335Z" stroke="url(#paint0_linear_162_452)"/>
</g>
<defs>
<filter id="filter0_d_162_452" x="0" y="0" width="346" height="412" filterUnits="userSpaceOnUse" color-interpolation-filters="sRGB">
<feFlood flood-opacity="0" result="BackgroundImageFix"/>
<feColorMatrix in="SourceAlpha" type="matrix" values="0 0 0 0 0 0 0 0 0 0 0 0 0 0 0 0 0 0 127 0" result="hardAlpha"/>
<feOffset/>
<feGaussianBlur stdDeviation="5"/>
<feComposite in2="hardAlpha" operator="out"/>
<feColorMatrix type="matrix" values="0 0 0 0 0 0 0 0 0 0 0 0 0 0 0 0 0 0 0.05 0"/>
<feBlend mode="normal" in2="BackgroundImageFix" result="effect1_dropShadow_162_452"/>
<feBlend mode="normal" in="SourceGraphic" in2="effect1_dropShadow_162_452" result="shape"/>
</filter>
<linearGradient id="paint0_linear_162_452" x1="183.5" y1="11" x2="183.5" y2="407.633" gradientUnits="userSpaceOnUse">
<stop stop-color="#9892C0"/>
<stop offset="1" stop-color="#47445A"/>
</linearGradient>
</defs>
</svg>
