<svg width="136" height="52" viewBox="0 0 136 52" fill="none" xmlns="http://www.w3.org/2000/svg">
<rect x="1.58398" y="1" width="133" height="50" rx="25" fill="black" stroke="url(#paint0_linear_35794_704)" stroke-width="2" stroke-linecap="round"/>
<g filter="url(#filter0_ii_35794_704)">
<rect x="5.58398" y="5" width="125" height="42" rx="21" fill="#836EF9"/>
</g>
<rect x="6.08398" y="5.5" width="124" height="41" rx="20.5" stroke="black"/>
<path d="M52.592 32.192C51.696 32.192 50.8373 32.0747 50.016 31.84C49.1947 31.5947 48.5333 31.28 48.032 30.896L48.912 28.944C49.392 29.2853 49.9573 29.568 50.608 29.792C51.2693 30.0053 51.936 30.112 52.608 30.112C53.12 30.112 53.5307 30.064 53.84 29.968C54.16 29.8613 54.3947 29.7173 54.544 29.536C54.6933 29.3547 54.768 29.1467 54.768 28.912C54.768 28.6133 54.6507 28.3787 54.416 28.208C54.1813 28.0267 53.872 27.8827 53.488 27.776C53.104 27.6587 52.6773 27.552 52.208 27.456C51.7493 27.3493 51.2853 27.2213 50.816 27.072C50.3573 26.9227 49.936 26.7307 49.552 26.496C49.168 26.2613 48.8533 25.952 48.608 25.568C48.3733 25.184 48.256 24.6933 48.256 24.096C48.256 23.456 48.4267 22.8747 48.768 22.352C49.12 21.8187 49.6427 21.3973 50.336 21.088C51.04 20.768 51.92 20.608 52.976 20.608C53.68 20.608 54.3733 20.6933 55.056 20.864C55.7387 21.024 56.3413 21.2693 56.864 21.6L56.064 23.568C55.5413 23.2693 55.0187 23.0507 54.496 22.912C53.9733 22.7627 53.4613 22.688 52.96 22.688C52.4587 22.688 52.048 22.7467 51.728 22.864C51.408 22.9813 51.1787 23.136 51.04 23.328C50.9013 23.5093 50.832 23.7227 50.832 23.968C50.832 24.256 50.9493 24.4907 51.184 24.672C51.4187 24.8427 51.728 24.9813 52.112 25.088C52.496 25.1947 52.9173 25.3013 53.376 25.408C53.8453 25.5147 54.3093 25.6373 54.768 25.776C55.2373 25.9147 55.664 26.1013 56.048 26.336C56.432 26.5707 56.7413 26.88 56.976 27.264C57.2213 27.648 57.344 28.1333 57.344 28.72C57.344 29.3493 57.168 29.9253 56.816 30.448C56.464 30.9707 55.936 31.392 55.232 31.712C54.5387 32.032 53.6587 32.192 52.592 32.192ZM62.4591 32.128C61.4458 32.128 60.6564 31.872 60.0911 31.36C59.5258 30.8373 59.2431 30.064 59.2431 29.04V21.488H61.7391V29.008C61.7391 29.3707 61.8351 29.6533 62.0271 29.856C62.2191 30.048 62.4804 30.144 62.8111 30.144C63.2058 30.144 63.5418 30.0373 63.8191 29.824L64.4911 31.584C64.2351 31.7653 63.9258 31.904 63.5631 32C63.2111 32.0853 62.8431 32.128 62.4591 32.128ZM57.9151 25.504V23.584H63.8831V25.504H57.9151ZM71.1722 32V30.32L71.0122 29.952V26.944C71.0122 26.4107 70.8469 25.9947 70.5162 25.696C70.1962 25.3973 69.7002 25.248 69.0282 25.248C68.5696 25.248 68.1162 25.3227 67.6682 25.472C67.2309 25.6107 66.8576 25.8027 66.5482 26.048L65.6522 24.304C66.1216 23.9733 66.6869 23.7173 67.3482 23.536C68.0096 23.3547 68.6816 23.264 69.3642 23.264C70.6762 23.264 71.6949 23.5733 72.4202 24.192C73.1456 24.8107 73.5082 25.776 73.5082 27.088V32H71.1722ZM68.5482 32.128C67.8762 32.128 67.3002 32.016 66.8202 31.792C66.3402 31.5573 65.9722 31.2427 65.7162 30.848C65.4602 30.4533 65.3322 30.0107 65.3322 29.52C65.3322 29.008 65.4549 28.56 65.7002 28.176C65.9562 27.792 66.3562 27.4933 66.9002 27.28C67.4442 27.056 68.1536 26.944 69.0282 26.944H71.3162V28.4H69.3002C68.7136 28.4 68.3082 28.496 68.0842 28.688C67.8709 28.88 67.7642 29.12 67.7642 29.408C67.7642 29.728 67.8869 29.984 68.1322 30.176C68.3882 30.3573 68.7349 30.448 69.1722 30.448C69.5882 30.448 69.9616 30.352 70.2922 30.16C70.6229 29.9573 70.8629 29.664 71.0122 29.28L71.3962 30.432C71.2149 30.9867 70.8842 31.408 70.4042 31.696C69.9242 31.984 69.3056 32.128 68.5482 32.128ZM75.7672 32V23.392H78.1512V25.824L77.8152 25.12C78.0712 24.512 78.4819 24.0533 79.0472 23.744C79.6126 23.424 80.3006 23.264 81.1112 23.264V25.568C81.0046 25.5573 80.9086 25.552 80.8232 25.552C80.7379 25.5413 80.6472 25.536 80.5512 25.536C79.8686 25.536 79.3139 25.7333 78.8872 26.128C78.4712 26.512 78.2632 27.1147 78.2632 27.936V32H75.7672ZM86.4122 32.128C85.3989 32.128 84.6096 31.872 84.0442 31.36C83.4789 30.8373 83.1962 30.064 83.1962 29.04V21.488H85.6922V29.008C85.6922 29.3707 85.7882 29.6533 85.9802 29.856C86.1722 30.048 86.4336 30.144 86.7642 30.144C87.1589 30.144 87.4949 30.0373 87.7722 29.824L88.4442 31.584C88.1882 31.7653 87.8789 31.904 87.5162 32C87.1642 32.0853 86.7962 32.128 86.4122 32.128ZM81.8682 25.504V23.584H87.8362V25.504H81.8682Z" fill="white"/>
<defs>
<filter id="filter0_ii_35794_704" x="5.58398" y="5" width="125" height="42" filterUnits="userSpaceOnUse" color-interpolation-filters="sRGB">
<feFlood flood-opacity="0" result="BackgroundImageFix"/>
<feBlend mode="normal" in="SourceGraphic" in2="BackgroundImageFix" result="shape"/>
<feColorMatrix in="SourceAlpha" type="matrix" values="0 0 0 0 0 0 0 0 0 0 0 0 0 0 0 0 0 0 127 0" result="hardAlpha"/>
<feOffset dy="3"/>
<feComposite in2="hardAlpha" operator="arithmetic" k2="-1" k3="1"/>
<feColorMatrix type="matrix" values="0 0 0 0 1 0 0 0 0 1 0 0 0 0 1 0 0 0 0.5 0"/>
<feBlend mode="normal" in2="shape" result="effect1_innerShadow_35794_704"/>
<feColorMatrix in="SourceAlpha" type="matrix" values="0 0 0 0 0 0 0 0 0 0 0 0 0 0 0 0 0 0 127 0" result="hardAlpha"/>
<feOffset dy="-3"/>
<feComposite in2="hardAlpha" operator="arithmetic" k2="-1" k3="1"/>
<feColorMatrix type="matrix" values="0 0 0 0 0 0 0 0 0 0 0 0 0 0 0 0 0 0 0.25 0"/>
<feBlend mode="normal" in2="effect1_innerShadow_35794_704" result="effect2_innerShadow_35794_704"/>
</filter>
<linearGradient id="paint0_linear_35794_704" x1="68.084" y1="1" x2="68.084" y2="51" gradientUnits="userSpaceOnUse">
<stop stop-color="#414266"/>
<stop offset="1" stop-color="#8184CC"/>
</linearGradient>
</defs>
</svg>
