<svg width="263" height="52" viewBox="0 0 263 52" fill="none" xmlns="http://www.w3.org/2000/svg">
<rect x="1" y="1" width="261" height="50" rx="25" fill="black" stroke="url(#paint0_linear_35794_835)" stroke-linecap="round"/>
<g filter="url(#filter0_ii_35794_835)">
<rect x="5" y="5" width="253" height="42" rx="21" fill="#BFFF60"/>
</g>
<rect x="5.5" y="5.5" width="252" height="41" rx="20.5" stroke="black"/>
<path d="M50.688 32.192C49.824 32.192 49.0187 32.0533 48.272 31.776C47.536 31.488 46.896 31.0827 46.352 30.56C45.808 30.0373 45.3813 29.424 45.072 28.72C44.7733 28.016 44.624 27.2427 44.624 26.4C44.624 25.5573 44.7733 24.784 45.072 24.08C45.3813 23.376 45.808 22.7627 46.352 22.24C46.9067 21.7173 47.552 21.3173 48.288 21.04C49.024 20.752 49.8293 20.608 50.704 20.608C51.6747 20.608 52.5493 20.7787 53.328 21.12C54.1173 21.4507 54.7787 21.9413 55.312 22.592L53.648 24.128C53.264 23.6907 52.8373 23.3653 52.368 23.152C51.8987 22.928 51.3867 22.816 50.832 22.816C50.3093 22.816 49.8293 22.9013 49.392 23.072C48.9547 23.2427 48.576 23.488 48.256 23.808C47.936 24.128 47.6853 24.5067 47.504 24.944C47.3333 25.3813 47.248 25.8667 47.248 26.4C47.248 26.9333 47.3333 27.4187 47.504 27.856C47.6853 28.2933 47.936 28.672 48.256 28.992C48.576 29.312 48.9547 29.5573 49.392 29.728C49.8293 29.8987 50.3093 29.984 50.832 29.984C51.3867 29.984 51.8987 29.8773 52.368 29.664C52.8373 29.44 53.264 29.104 53.648 28.656L55.312 30.192C54.7787 30.8427 54.1173 31.3387 53.328 31.68C52.5493 32.0213 51.6693 32.192 50.688 32.192ZM56.8864 32V23.392H59.2704V25.824L58.9344 25.12C59.1904 24.512 59.601 24.0533 60.1664 23.744C60.7317 23.424 61.4197 23.264 62.2304 23.264V25.568C62.1237 25.5573 62.0277 25.552 61.9424 25.552C61.857 25.5413 61.7664 25.536 61.6704 25.536C60.9877 25.536 60.433 25.7333 60.0064 26.128C59.5904 26.512 59.3824 27.1147 59.3824 27.936V32H56.8864ZM67.9084 32.128C66.927 32.128 66.063 31.936 65.3164 31.552C64.5804 31.168 64.0097 30.6453 63.6044 29.984C63.199 29.312 62.9964 28.5493 62.9964 27.696C62.9964 26.832 63.1937 26.0693 63.5884 25.408C63.9937 24.736 64.543 24.2133 65.2364 23.84C65.9297 23.456 66.7137 23.264 67.5884 23.264C68.431 23.264 69.1884 23.4453 69.8604 23.808C70.543 24.16 71.0817 24.672 71.4764 25.344C71.871 26.0053 72.0684 26.8 72.0684 27.728C72.0684 27.824 72.063 27.936 72.0524 28.064C72.0417 28.1813 72.031 28.2933 72.0204 28.4H65.0284V26.944H70.7084L69.7484 27.376C69.7484 26.928 69.6577 26.5387 69.4764 26.208C69.295 25.8773 69.0444 25.6213 68.7244 25.44C68.4044 25.248 68.031 25.152 67.6044 25.152C67.1777 25.152 66.799 25.248 66.4684 25.44C66.1484 25.6213 65.8977 25.8827 65.7164 26.224C65.535 26.5547 65.4444 26.9493 65.4444 27.408V27.792C65.4444 28.2613 65.5457 28.6773 65.7484 29.04C65.9617 29.392 66.255 29.664 66.6284 29.856C67.0124 30.0373 67.4604 30.128 67.9724 30.128C68.431 30.128 68.831 30.0587 69.1724 29.92C69.5244 29.7813 69.8444 29.5733 70.1324 29.296L71.4604 30.736C71.0657 31.184 70.5697 31.5307 69.9724 31.776C69.375 32.0107 68.687 32.128 67.9084 32.128ZM78.7758 32V30.32L78.6158 29.952V26.944C78.6158 26.4107 78.4504 25.9947 78.1198 25.696C77.7998 25.3973 77.3038 25.248 76.6318 25.248C76.1731 25.248 75.7198 25.3227 75.2718 25.472C74.8344 25.6107 74.4611 25.8027 74.1518 26.048L73.2558 24.304C73.7251 23.9733 74.2904 23.7173 74.9518 23.536C75.6131 23.3547 76.2851 23.264 76.9678 23.264C78.2798 23.264 79.2984 23.5733 80.0238 24.192C80.7491 24.8107 81.1118 25.776 81.1118 27.088V32H78.7758ZM76.1518 32.128C75.4798 32.128 74.9038 32.016 74.4238 31.792C73.9438 31.5573 73.5758 31.2427 73.3198 30.848C73.0638 30.4533 72.9358 30.0107 72.9358 29.52C72.9358 29.008 73.0584 28.56 73.3038 28.176C73.5598 27.792 73.9598 27.4933 74.5038 27.28C75.0478 27.056 75.7571 26.944 76.6318 26.944H78.9198V28.4H76.9038C76.3171 28.4 75.9118 28.496 75.6878 28.688C75.4744 28.88 75.3678 29.12 75.3678 29.408C75.3678 29.728 75.4904 29.984 75.7358 30.176C75.9918 30.3573 76.3384 30.448 76.7758 30.448C77.1918 30.448 77.5651 30.352 77.8958 30.16C78.2264 29.9573 78.4664 29.664 78.6158 29.28L78.9998 30.432C78.8184 30.9867 78.4878 31.408 78.0078 31.696C77.5278 31.984 76.9091 32.128 76.1518 32.128ZM86.8908 32.128C85.8774 32.128 85.0881 31.872 84.5228 31.36C83.9574 30.8373 83.6748 30.064 83.6748 29.04V21.488H86.1708V29.008C86.1708 29.3707 86.2668 29.6533 86.4588 29.856C86.6508 30.048 86.9121 30.144 87.2428 30.144C87.6374 30.144 87.9734 30.0373 88.2508 29.824L88.9228 31.584C88.6668 31.7653 88.3574 31.904 87.9948 32C87.6428 32.0853 87.2748 32.128 86.8908 32.128ZM82.3468 25.504V23.584H88.3148V25.504H82.3468ZM94.3303 32.128C93.3489 32.128 92.4849 31.936 91.7383 31.552C91.0023 31.168 90.4316 30.6453 90.0263 29.984C89.6209 29.312 89.4183 28.5493 89.4183 27.696C89.4183 26.832 89.6156 26.0693 90.0103 25.408C90.4156 24.736 90.9649 24.2133 91.6583 23.84C92.3516 23.456 93.1356 23.264 94.0103 23.264C94.8529 23.264 95.6103 23.4453 96.2823 23.808C96.9649 24.16 97.5036 24.672 97.8983 25.344C98.2929 26.0053 98.4903 26.8 98.4903 27.728C98.4903 27.824 98.4849 27.936 98.4743 28.064C98.4636 28.1813 98.4529 28.2933 98.4423 28.4H91.4503V26.944H97.1302L96.1703 27.376C96.1703 26.928 96.0796 26.5387 95.8983 26.208C95.7169 25.8773 95.4663 25.6213 95.1463 25.44C94.8263 25.248 94.4529 25.152 94.0263 25.152C93.5996 25.152 93.2209 25.248 92.8903 25.44C92.5703 25.6213 92.3196 25.8827 92.1383 26.224C91.9569 26.5547 91.8663 26.9493 91.8663 27.408V27.792C91.8663 28.2613 91.9676 28.6773 92.1703 29.04C92.3836 29.392 92.6769 29.664 93.0503 29.856C93.4343 30.0373 93.8823 30.128 94.3943 30.128C94.8529 30.128 95.2529 30.0587 95.5943 29.92C95.9463 29.7813 96.2663 29.5733 96.5543 29.296L97.8823 30.736C97.4876 31.184 96.9916 31.5307 96.3943 31.776C95.7969 32.0107 95.1089 32.128 94.3303 32.128ZM110.267 32.192C109.382 32.192 108.566 32.0533 107.819 31.776C107.083 31.488 106.438 31.0827 105.883 30.56C105.339 30.0373 104.913 29.424 104.603 28.72C104.305 28.016 104.155 27.2427 104.155 26.4C104.155 25.5573 104.305 24.784 104.603 24.08C104.913 23.376 105.345 22.7627 105.899 22.24C106.454 21.7173 107.105 21.3173 107.851 21.04C108.598 20.752 109.419 20.608 110.315 20.608C111.307 20.608 112.198 20.7733 112.987 21.104C113.787 21.4347 114.459 21.9147 115.003 22.544L113.339 24.08C112.934 23.6533 112.491 23.3387 112.011 23.136C111.531 22.9227 111.009 22.816 110.443 22.816C109.899 22.816 109.403 22.9013 108.955 23.072C108.507 23.2427 108.118 23.488 107.787 23.808C107.467 24.128 107.217 24.5067 107.035 24.944C106.865 25.3813 106.779 25.8667 106.779 26.4C106.779 26.9227 106.865 27.4027 107.035 27.84C107.217 28.2773 107.467 28.6613 107.787 28.992C108.118 29.312 108.502 29.5573 108.939 29.728C109.387 29.8987 109.878 29.984 110.411 29.984C110.923 29.984 111.419 29.904 111.899 29.744C112.39 29.5733 112.865 29.2907 113.323 28.896L114.795 30.768C114.187 31.2267 113.478 31.5787 112.667 31.824C111.867 32.0693 111.067 32.192 110.267 32.192ZM112.427 30.432V26.224H114.795V30.768L112.427 30.432ZM122.307 32V30.32L122.147 29.952V26.944C122.147 26.4107 121.982 25.9947 121.651 25.696C121.331 25.3973 120.835 25.248 120.163 25.248C119.704 25.248 119.251 25.3227 118.803 25.472C118.366 25.6107 117.992 25.8027 117.683 26.048L116.787 24.304C117.256 23.9733 117.822 23.7173 118.483 23.536C119.144 23.3547 119.816 23.264 120.499 23.264C121.811 23.264 122.83 23.5733 123.555 24.192C124.28 24.8107 124.643 25.776 124.643 27.088V32H122.307ZM119.683 32.128C119.011 32.128 118.435 32.016 117.955 31.792C117.475 31.5573 117.107 31.2427 116.851 30.848C116.595 30.4533 116.467 30.0107 116.467 29.52C116.467 29.008 116.59 28.56 116.835 28.176C117.091 27.792 117.491 27.4933 118.035 27.28C118.579 27.056 119.288 26.944 120.163 26.944H122.451V28.4H120.435C119.848 28.4 119.443 28.496 119.219 28.688C119.006 28.88 118.899 29.12 118.899 29.408C118.899 29.728 119.022 29.984 119.267 30.176C119.523 30.3573 119.87 30.448 120.307 30.448C120.723 30.448 121.096 30.352 121.427 30.16C121.758 29.9573 121.998 29.664 122.147 29.28L122.531 30.432C122.35 30.9867 122.019 31.408 121.539 31.696C121.059 31.984 120.44 32.128 119.683 32.128ZM137.926 23.264C138.609 23.264 139.211 23.4027 139.734 23.68C140.267 23.9467 140.683 24.3627 140.982 24.928C141.291 25.4827 141.446 26.1973 141.446 27.072V32H138.95V27.456C138.95 26.7627 138.806 26.2507 138.518 25.92C138.23 25.5893 137.825 25.424 137.302 25.424C136.939 25.424 136.614 25.5093 136.326 25.68C136.038 25.84 135.814 26.0853 135.654 26.416C135.494 26.7467 135.414 27.168 135.414 27.68V32H132.918V27.456C132.918 26.7627 132.774 26.2507 132.486 25.92C132.209 25.5893 131.809 25.424 131.286 25.424C130.923 25.424 130.598 25.5093 130.31 25.68C130.022 25.84 129.798 26.0853 129.638 26.416C129.478 26.7467 129.398 27.168 129.398 27.68V32H126.902V23.392H129.286V25.744L128.838 25.056C129.137 24.4693 129.558 24.0267 130.102 23.728C130.657 23.4187 131.286 23.264 131.99 23.264C132.779 23.264 133.467 23.4667 134.054 23.872C134.651 24.2667 135.046 24.8747 135.238 25.696L134.358 25.456C134.646 24.784 135.105 24.2507 135.734 23.856C136.374 23.4613 137.105 23.264 137.926 23.264ZM148.018 32.128C147.036 32.128 146.172 31.936 145.426 31.552C144.69 31.168 144.119 30.6453 143.714 29.984C143.308 29.312 143.106 28.5493 143.106 27.696C143.106 26.832 143.303 26.0693 143.698 25.408C144.103 24.736 144.652 24.2133 145.346 23.84C146.039 23.456 146.823 23.264 147.698 23.264C148.54 23.264 149.298 23.4453 149.97 23.808C150.652 24.16 151.191 24.672 151.586 25.344C151.98 26.0053 152.178 26.8 152.178 27.728C152.178 27.824 152.172 27.936 152.162 28.064C152.151 28.1813 152.14 28.2933 152.13 28.4H145.138V26.944H150.818L149.858 27.376C149.858 26.928 149.767 26.5387 149.586 26.208C149.404 25.8773 149.154 25.6213 148.834 25.44C148.514 25.248 148.14 25.152 147.714 25.152C147.287 25.152 146.908 25.248 146.578 25.44C146.258 25.6213 146.007 25.8827 145.826 26.224C145.644 26.5547 145.554 26.9493 145.554 27.408V27.792C145.554 28.2613 145.655 28.6773 145.858 29.04C146.071 29.392 146.364 29.664 146.738 29.856C147.122 30.0373 147.57 30.128 148.082 30.128C148.54 30.128 148.94 30.0587 149.282 29.92C149.634 29.7813 149.954 29.5733 150.242 29.296L151.57 30.736C151.175 31.184 150.679 31.5307 150.082 31.776C149.484 32.0107 148.796 32.128 148.018 32.128ZM157.075 32L162.067 20.8H164.627L169.635 32H166.915L162.819 22.112H163.843L159.731 32H157.075ZM159.571 29.6L160.259 27.632H166.019L166.723 29.6H159.571ZM174.703 32.128C173.775 32.128 172.948 31.9413 172.223 31.568C171.497 31.184 170.927 30.656 170.511 29.984C170.105 29.312 169.903 28.5493 169.903 27.696C169.903 26.832 170.105 26.0693 170.511 25.408C170.927 24.736 171.497 24.2133 172.223 23.84C172.948 23.456 173.775 23.264 174.703 23.264C175.609 23.264 176.399 23.456 177.071 23.84C177.743 24.2133 178.239 24.752 178.559 25.456L176.623 26.496C176.399 26.0907 176.116 25.792 175.775 25.6C175.444 25.408 175.081 25.312 174.687 25.312C174.26 25.312 173.876 25.408 173.535 25.6C173.193 25.792 172.921 26.064 172.719 26.416C172.527 26.768 172.431 27.1947 172.431 27.696C172.431 28.1973 172.527 28.624 172.719 28.976C172.921 29.328 173.193 29.6 173.535 29.792C173.876 29.984 174.26 30.08 174.687 30.08C175.081 30.08 175.444 29.9893 175.775 29.808C176.116 29.616 176.399 29.312 176.623 28.896L178.559 29.952C178.239 30.6453 177.743 31.184 177.071 31.568C176.399 31.9413 175.609 32.128 174.703 32.128ZM184.046 32.128C183.118 32.128 182.292 31.9413 181.566 31.568C180.841 31.184 180.27 30.656 179.854 29.984C179.449 29.312 179.246 28.5493 179.246 27.696C179.246 26.832 179.449 26.0693 179.854 25.408C180.27 24.736 180.841 24.2133 181.566 23.84C182.292 23.456 183.118 23.264 184.046 23.264C184.953 23.264 185.742 23.456 186.414 23.84C187.086 24.2133 187.582 24.752 187.902 25.456L185.966 26.496C185.742 26.0907 185.46 25.792 185.118 25.6C184.788 25.408 184.425 25.312 184.03 25.312C183.604 25.312 183.22 25.408 182.878 25.6C182.537 25.792 182.265 26.064 182.062 26.416C181.87 26.768 181.774 27.1947 181.774 27.696C181.774 28.1973 181.87 28.624 182.062 28.976C182.265 29.328 182.537 29.6 182.878 29.792C183.22 29.984 183.604 30.08 184.03 30.08C184.425 30.08 184.788 29.9893 185.118 29.808C185.46 29.616 185.742 29.312 185.966 28.896L187.902 29.952C187.582 30.6453 187.086 31.184 186.414 31.568C185.742 31.9413 184.953 32.128 184.046 32.128ZM193.326 32.128C192.409 32.128 191.593 31.936 190.878 31.552C190.174 31.168 189.614 30.6453 189.198 29.984C188.793 29.312 188.59 28.5493 188.59 27.696C188.59 26.832 188.793 26.0693 189.198 25.408C189.614 24.736 190.174 24.2133 190.878 23.84C191.593 23.456 192.409 23.264 193.326 23.264C194.233 23.264 195.043 23.456 195.758 23.84C196.473 24.2133 197.033 24.7307 197.438 25.392C197.843 26.0533 198.046 26.8213 198.046 27.696C198.046 28.5493 197.843 29.312 197.438 29.984C197.033 30.6453 196.473 31.168 195.758 31.552C195.043 31.936 194.233 32.128 193.326 32.128ZM193.326 30.08C193.742 30.08 194.115 29.984 194.446 29.792C194.777 29.6 195.038 29.328 195.23 28.976C195.422 28.6133 195.518 28.1867 195.518 27.696C195.518 27.1947 195.422 26.768 195.23 26.416C195.038 26.064 194.777 25.792 194.446 25.6C194.115 25.408 193.742 25.312 193.326 25.312C192.91 25.312 192.537 25.408 192.206 25.6C191.875 25.792 191.609 26.064 191.406 26.416C191.214 26.768 191.118 27.1947 191.118 27.696C191.118 28.1867 191.214 28.6133 191.406 28.976C191.609 29.328 191.875 29.6 192.206 29.792C192.537 29.984 192.91 30.08 193.326 30.08ZM203.347 32.128C202.632 32.128 201.992 31.9893 201.427 31.712C200.872 31.4347 200.44 31.0133 200.131 30.448C199.821 29.872 199.667 29.1413 199.667 28.256V23.392H202.163V27.888C202.163 28.6027 202.312 29.1307 202.611 29.472C202.92 29.8027 203.352 29.968 203.907 29.968C204.291 29.968 204.632 29.888 204.931 29.728C205.229 29.5573 205.464 29.3013 205.635 28.96C205.805 28.608 205.891 28.1707 205.891 27.648V23.392H208.387V32H206.019V29.632L206.451 30.32C206.163 30.9173 205.736 31.3707 205.171 31.68C204.616 31.9787 204.008 32.128 203.347 32.128ZM215.931 23.264C216.614 23.264 217.222 23.4027 217.755 23.68C218.299 23.9467 218.726 24.3627 219.035 24.928C219.344 25.4827 219.499 26.1973 219.499 27.072V32H217.003V27.456C217.003 26.7627 216.848 26.2507 216.539 25.92C216.24 25.5893 215.814 25.424 215.259 25.424C214.864 25.424 214.507 25.5093 214.187 25.68C213.878 25.84 213.632 26.0907 213.451 26.432C213.28 26.7733 213.195 27.2107 213.195 27.744V32H210.699V23.392H213.083V25.776L212.635 25.056C212.944 24.48 213.387 24.0373 213.963 23.728C214.539 23.4187 215.195 23.264 215.931 23.264ZM225.281 32.128C224.268 32.128 223.479 31.872 222.913 31.36C222.348 30.8373 222.065 30.064 222.065 29.04V21.488H224.561V29.008C224.561 29.3707 224.657 29.6533 224.849 29.856C225.041 30.048 225.303 30.144 225.633 30.144C226.028 30.144 226.364 30.0373 226.641 29.824L227.313 31.584C227.057 31.7653 226.748 31.904 226.385 32C226.033 32.0853 225.665 32.128 225.281 32.128ZM220.737 25.504V23.584H226.705V25.504H220.737Z" fill="black"/>
<defs>
<filter id="filter0_ii_35794_835" x="5" y="5" width="253" height="42" filterUnits="userSpaceOnUse" color-interpolation-filters="sRGB">
<feFlood flood-opacity="0" result="BackgroundImageFix"/>
<feBlend mode="normal" in="SourceGraphic" in2="BackgroundImageFix" result="shape"/>
<feColorMatrix in="SourceAlpha" type="matrix" values="0 0 0 0 0 0 0 0 0 0 0 0 0 0 0 0 0 0 127 0" result="hardAlpha"/>
<feOffset dy="3"/>
<feComposite in2="hardAlpha" operator="arithmetic" k2="-1" k3="1"/>
<feColorMatrix type="matrix" values="0 0 0 0 1 0 0 0 0 1 0 0 0 0 1 0 0 0 0.5 0"/>
<feBlend mode="normal" in2="shape" result="effect1_innerShadow_35794_835"/>
<feColorMatrix in="SourceAlpha" type="matrix" values="0 0 0 0 0 0 0 0 0 0 0 0 0 0 0 0 0 0 127 0" result="hardAlpha"/>
<feOffset dy="-3"/>
<feComposite in2="hardAlpha" operator="arithmetic" k2="-1" k3="1"/>
<feColorMatrix type="matrix" values="0 0 0 0 0 0 0 0 0 0 0 0 0 0 0 0 0 0 0.25 0"/>
<feBlend mode="normal" in2="effect1_innerShadow_35794_835" result="effect2_innerShadow_35794_835"/>
</filter>
<linearGradient id="paint0_linear_35794_835" x1="131.5" y1="1" x2="131.5" y2="51" gradientUnits="userSpaceOnUse">
<stop stop-color="#414266"/>
<stop offset="1" stop-color="#8184CC"/>
</linearGradient>
</defs>
</svg>
