<svg width="533" height="554" viewBox="0 0 533 554" fill="none" xmlns="http://www.w3.org/2000/svg">
<path d="M520.807 105.491C524.004 111.459 522.038 119.137 516.092 127.057C510.164 134.953 500.369 142.951 488.257 149.44C476.144 155.929 464.059 159.652 454.2 160.213C444.313 160.775 436.833 158.158 433.636 152.19L428.318 142.236L515.49 95.5368L520.807 105.491Z" fill="#3E347C" stroke="black"/>
<path d="M513.744 93.0547C516.959 99.0565 515.19 107.141 509.455 115.452C503.736 123.74 494.153 132.121 482.051 138.605C469.949 145.088 457.662 148.422 447.594 148.592C437.498 148.761 429.787 145.756 426.572 139.754C423.357 133.752 425.126 125.667 430.861 117.356C436.58 109.068 446.163 100.687 458.265 94.2035C470.367 87.7202 482.654 84.3859 492.721 84.2166C502.818 84.0469 510.529 87.0528 513.744 93.0547Z" fill="#836EF9" stroke="black"/>
<path d="M501.716 104.236C501.445 98.7473 478.03 93.3125 468.793 96.5949C459.556 99.8773 437.475 121.479 437.746 126.968C438.016 132.457 461.432 137.892 470.669 134.609C479.905 131.327 501.987 109.725 501.716 104.236ZM451.295 119.139C452.242 116.448 470.253 103.715 474.179 102.962C478.105 102.209 489.114 109.373 488.167 112.065C487.219 114.757 469.209 127.489 465.282 128.242C461.356 128.995 450.347 121.831 451.295 119.139Z" fill="white"/>
<path d="M93.811 444.178C87.5466 438.199 77.7541 436.169 67.1038 438.143C56.4625 440.116 45.0275 446.079 35.5723 455.986C26.1165 465.893 20.4507 477.848 18.7373 488.826C17.022 499.817 19.276 509.745 25.5314 515.716L35.8767 525.572L104.157 454.034L93.811 444.178Z" fill="#3E347C" stroke="black"/>
<path d="M104.845 455.2C89.5601 440.611 61.8271 444.574 42.8874 464.417C23.9478 484.261 21.2802 512.149 36.565 526.738C51.8501 541.327 79.5843 537.364 98.5241 517.52C117.464 497.676 120.13 469.788 104.845 455.2Z" fill="#836EF9" stroke="black"/>
<path d="M90.8621 463.001C98.4075 465.498 103.127 491.412 97.4971 499.437C91.8674 507.462 59.4199 521.076 51.8746 518.579C44.3291 516.082 39.6101 490.168 45.2395 482.143C50.869 474.118 83.3165 460.504 90.8621 463.001ZM64.293 508.028C68.1217 508.159 87.8404 495.075 89.3471 491.404C90.8539 487.733 82.2722 473.683 78.4436 473.552C74.6147 473.422 54.896 486.505 53.3892 490.176C51.8825 493.847 60.4642 507.898 64.293 508.028Z" fill="white"/>
<path d="M168.562 61.6054C167.023 68.1987 160.477 72.6665 150.783 74.6896C141.116 76.707 128.48 76.2488 115.098 73.1259C101.716 70.003 90.1814 64.8205 82.4063 58.7329C74.6091 52.6278 70.7179 45.7243 72.2566 39.1311L74.8346 28.1444L171.14 50.6186L168.562 61.6054Z" fill="#3E347C" stroke="black"/>
<path d="M171.467 47.6013C169.919 54.2319 163.253 59.136 153.458 61.5926C143.692 64.0419 130.961 64.0108 117.59 60.8906C104.22 57.7704 92.7902 52.1632 85.1168 45.6439C77.421 39.1057 73.6142 31.7576 75.1616 25.1269C76.709 18.4962 83.375 13.5921 93.1699 11.1356C102.936 8.68627 115.668 8.71738 129.038 11.8376C142.408 14.9578 153.838 20.565 161.511 27.0842C169.207 33.6225 173.014 40.9707 171.467 47.6013Z" fill="#836EF9" stroke="black"/>
<path d="M155.05 48.0594C158.47 43.758 144.471 24.2178 135.366 20.585C126.261 16.9521 95.4146 18.5994 91.9944 22.9008C88.5741 27.2023 102.574 46.743 111.678 50.3756C120.783 54.0083 151.629 52.361 155.05 48.0594ZM107.339 25.9658C109.828 24.5693 131.762 26.8969 135.208 28.9231C138.654 30.9493 142.193 43.5982 139.705 44.9945C137.216 46.3911 115.282 44.0637 111.836 42.0374C108.39 40.0112 104.851 27.3622 107.339 25.9658Z" fill="white"/>
</svg>
