<svg width="128" height="36" viewBox="0 0 128 36" fill="none" xmlns="http://www.w3.org/2000/svg">
<g filter="url(#filter0_d_8_87)">
<path d="M4.30573 6.20702C4.70318 3.22618 7.24588 1 10.2531 1H117.747C120.754 1 123.297 3.22618 123.694 6.20702L126.094 24.207C126.574 27.8039 123.776 31 120.147 31H7.8531C4.22436 31 1.42614 27.8039 1.90573 24.207L4.30573 6.20702Z" fill="#BFFF60"/>
<path d="M10.2531 0.5C6.99528 0.5 4.24068 2.91169 3.81012 6.14093L1.41012 24.1409C0.890564 28.0376 3.92197 31.5 7.8531 31.5H120.147C124.078 31.5 127.109 28.0376 126.59 24.1409L124.19 6.14094C123.759 2.9117 121.005 0.5 117.747 0.5H10.2531Z" stroke="black"/>
</g>
<path d="M43.7891 16.28C43.7011 17.056 43.4331 17.74 42.9851 18.332C42.5371 18.916 41.9451 19.372 41.2091 19.7C40.4731 20.028 39.6331 20.192 38.6891 20.192C37.6571 20.192 36.7491 19.996 35.9651 19.604C35.1891 19.212 34.5851 18.664 34.1531 17.96C33.7211 17.256 33.5051 16.436 33.5051 15.5C33.5051 14.564 33.7211 13.744 34.1531 13.04C34.5851 12.336 35.1891 11.788 35.9651 11.396C36.7491 11.004 37.6571 10.808 38.6891 10.808C39.6331 10.808 40.4731 10.972 41.2091 11.3C41.9451 11.628 42.5371 12.084 42.9851 12.668C43.4331 13.252 43.7011 13.936 43.7891 14.72H41.5091C41.4291 14.312 41.2651 13.964 41.0171 13.676C40.7771 13.388 40.4571 13.168 40.0571 13.016C39.6651 12.856 39.2091 12.776 38.6891 12.776C38.0891 12.776 37.5731 12.888 37.1411 13.112C36.7091 13.328 36.3771 13.64 36.1451 14.048C35.9131 14.456 35.7971 14.94 35.7971 15.5C35.7971 16.06 35.9131 16.544 36.1451 16.952C36.3771 17.36 36.7091 17.676 37.1411 17.9C37.5731 18.116 38.0891 18.224 38.6891 18.224C39.2091 18.224 39.6651 18.148 40.0571 17.996C40.4571 17.844 40.7771 17.624 41.0171 17.336C41.2651 17.048 41.4291 16.696 41.5091 16.28H43.7891ZM48.8622 20.192C47.9982 20.192 47.2422 20.04 46.5942 19.736C45.9462 19.432 45.4422 19.008 45.0822 18.464C44.7222 17.92 44.5422 17.292 44.5422 16.58C44.5422 15.86 44.7222 15.232 45.0822 14.696C45.4422 14.152 45.9462 13.728 46.5942 13.424C47.2502 13.12 48.0062 12.968 48.8622 12.968C49.7262 12.968 50.4822 13.12 51.1302 13.424C51.7782 13.728 52.2822 14.152 52.6422 14.696C53.0102 15.232 53.1942 15.86 53.1942 16.58C53.1942 17.3 53.0102 17.932 52.6422 18.476C52.2822 19.012 51.7782 19.432 51.1302 19.736C50.4822 20.04 49.7262 20.192 48.8622 20.192ZM48.8622 18.512C49.3022 18.512 49.6742 18.436 49.9782 18.284C50.2902 18.124 50.5262 17.9 50.6862 17.612C50.8542 17.324 50.9382 16.98 50.9382 16.58C50.9382 16.18 50.8542 15.836 50.6862 15.548C50.5262 15.252 50.2902 15.028 49.9782 14.876C49.6742 14.716 49.3022 14.636 48.8622 14.636C48.4382 14.636 48.0702 14.716 47.7582 14.876C47.4462 15.028 47.2062 15.252 47.0382 15.548C46.8702 15.836 46.7862 16.18 46.7862 16.58C46.7862 16.98 46.8702 17.324 47.0382 17.612C47.2062 17.9 47.4462 18.124 47.7582 18.284C48.0702 18.436 48.4382 18.512 48.8622 18.512ZM53.9409 13.16H56.1609L56.6049 15.824V20H54.3729V15.488L53.9409 13.16ZM59.1609 12.968C59.8169 12.968 60.3729 13.1 60.8289 13.364C61.2929 13.628 61.6449 14 61.8849 14.48C62.1329 14.952 62.2569 15.52 62.2569 16.184V20H60.0249V16.52C60.0249 15.952 59.8849 15.524 59.6049 15.236C59.3249 14.94 58.9249 14.792 58.4049 14.792C58.0369 14.792 57.7169 14.872 57.4449 15.032C57.1729 15.184 56.9649 15.404 56.8209 15.692C56.6769 15.972 56.6049 16.308 56.6049 16.7L55.8969 16.328C55.9849 15.6 56.1809 14.988 56.4849 14.492C56.7969 13.996 57.1809 13.62 57.6369 13.364C58.1009 13.1 58.6089 12.968 59.1609 12.968ZM63.2573 13.16H65.4773L65.9213 15.824V20H63.6893V15.488L63.2573 13.16ZM68.4773 12.968C69.1333 12.968 69.6893 13.1 70.1453 13.364C70.6093 13.628 70.9613 14 71.2013 14.48C71.4493 14.952 71.5733 15.52 71.5733 16.184V20H69.3413V16.52C69.3413 15.952 69.2013 15.524 68.9213 15.236C68.6413 14.94 68.2413 14.792 67.7213 14.792C67.3533 14.792 67.0333 14.872 66.7613 15.032C66.4893 15.184 66.2813 15.404 66.1373 15.692C65.9933 15.972 65.9213 16.308 65.9213 16.7L65.2133 16.328C65.3013 15.6 65.4973 14.988 65.8013 14.492C66.1133 13.996 66.4973 13.62 66.9533 13.364C67.4173 13.1 67.9253 12.968 68.4773 12.968ZM76.8452 20.192C76.0292 20.192 75.2972 20.04 74.6492 19.736C74.0092 19.432 73.5052 19.008 73.1372 18.464C72.7692 17.92 72.5852 17.284 72.5852 16.556C72.5852 15.844 72.7612 15.22 73.1132 14.684C73.4652 14.148 73.9492 13.728 74.5652 13.424C75.1892 13.12 75.8932 12.968 76.6772 12.968C77.4772 12.968 78.1652 13.144 78.7412 13.496C79.3172 13.848 79.7612 14.344 80.0732 14.984C80.3852 15.624 80.5412 16.376 80.5412 17.24H74.3732V15.836H79.3172L78.5132 16.34C78.4892 15.964 78.3972 15.648 78.2372 15.392C78.0852 15.128 77.8812 14.928 77.6252 14.792C77.3692 14.648 77.0652 14.576 76.7132 14.576C76.3292 14.576 75.9972 14.652 75.7172 14.804C75.4372 14.956 75.2172 15.168 75.0572 15.44C74.9052 15.712 74.8292 16.028 74.8292 16.388C74.8292 16.844 74.9292 17.232 75.1292 17.552C75.3372 17.872 75.6332 18.116 76.0172 18.284C76.4092 18.452 76.8852 18.536 77.4452 18.536C77.9572 18.536 78.4692 18.468 78.9812 18.332C79.4932 18.188 79.9532 17.988 80.3612 17.732V19.184C79.8972 19.504 79.3652 19.752 78.7652 19.928C78.1732 20.104 77.5332 20.192 76.8452 20.192ZM89.6436 17.168C89.5796 17.76 89.3556 18.284 88.9716 18.74C88.5956 19.196 88.1076 19.552 87.5076 19.808C86.9156 20.064 86.2476 20.192 85.5036 20.192C84.6796 20.192 83.9516 20.04 83.3196 19.736C82.6876 19.432 82.1956 19.008 81.8436 18.464C81.4916 17.92 81.3156 17.292 81.3156 16.58C81.3156 15.868 81.4916 15.244 81.8436 14.708C82.1956 14.164 82.6876 13.74 83.3196 13.436C83.9516 13.124 84.6796 12.968 85.5036 12.968C86.2476 12.968 86.9156 13.096 87.5076 13.352C88.1076 13.608 88.5956 13.964 88.9716 14.42C89.3556 14.868 89.5796 15.396 89.6436 16.004H87.4236C87.3356 15.564 87.1156 15.228 86.7636 14.996C86.4196 14.756 85.9996 14.636 85.5036 14.636C85.1116 14.636 84.7676 14.712 84.4716 14.864C84.1836 15.016 83.9596 15.24 83.7996 15.536C83.6396 15.824 83.5596 16.172 83.5596 16.58C83.5596 16.988 83.6396 17.336 83.7996 17.624C83.9596 17.912 84.1836 18.132 84.4716 18.284C84.7676 18.436 85.1116 18.512 85.5036 18.512C86.0076 18.512 86.4316 18.392 86.7756 18.152C87.1196 17.904 87.3356 17.576 87.4236 17.168H89.6436ZM89.933 14.816V13.844L91.349 13.328L92.297 11.336H93.581V13.16H96.533V14.816H93.581V17.072C93.581 17.584 93.685 17.944 93.893 18.152C94.101 18.352 94.473 18.452 95.009 18.452C95.345 18.452 95.645 18.424 95.909 18.368C96.173 18.304 96.421 18.22 96.653 18.116V19.808C96.413 19.904 96.097 19.992 95.705 20.072C95.321 20.152 94.921 20.192 94.505 20.192C93.777 20.192 93.177 20.076 92.705 19.844C92.241 19.612 91.897 19.288 91.673 18.872C91.457 18.448 91.349 17.952 91.349 17.384V14.816H89.933Z" fill="black"/>
<defs>
<filter id="filter0_d_8_87" x="0.851944" y="0" width="126.296" height="36" filterUnits="userSpaceOnUse" color-interpolation-filters="sRGB">
<feFlood flood-opacity="0" result="BackgroundImageFix"/>
<feColorMatrix in="SourceAlpha" type="matrix" values="0 0 0 0 0 0 0 0 0 0 0 0 0 0 0 0 0 0 127 0" result="hardAlpha"/>
<feOffset dy="4"/>
<feComposite in2="hardAlpha" operator="out"/>
<feColorMatrix type="matrix" values="0 0 0 0 0.221853 0 0 0 0 0.364446 0 0 0 0 0.0101912 0 0 0 1 0"/>
<feBlend mode="normal" in2="BackgroundImageFix" result="effect1_dropShadow_8_87"/>
<feBlend mode="normal" in="SourceGraphic" in2="effect1_dropShadow_8_87" result="shape"/>
</filter>
</defs>
</svg>
