<svg width="392" height="53" viewBox="0 0 392 53" fill="none" xmlns="http://www.w3.org/2000/svg">
<path fill-rule="evenodd" clip-rule="evenodd" d="M133.808 1C129.219 1 125.219 4.12297 124.106 8.57464L116 41H1V52H391V41H276L267.894 8.57464C266.781 4.12297 262.781 1 258.192 1H133.808Z" fill="#1A1843"/>
<mask id="path-2-outside-1_5_59" maskUnits="userSpaceOnUse" x="0" y="0" width="392" height="53" fill="black">
<rect fill="white" width="392" height="53"/>
<path fill-rule="evenodd" clip-rule="evenodd" d="M133.808 1C129.219 1 125.219 4.12297 124.106 8.57464L116 41H1V52H391V41H276L267.894 8.57464C266.781 4.12297 262.781 1 258.192 1H133.808Z"/>
</mask>
<path fill-rule="evenodd" clip-rule="evenodd" d="M133.808 1C129.219 1 125.219 4.12297 124.106 8.57464L116 41H1V52H391V41H276L267.894 8.57464C266.781 4.12297 262.781 1 258.192 1H133.808Z" fill="#1A1843"/>
<path d="M124.106 8.57464L125.076 8.81718L125.076 8.81718L124.106 8.57464ZM116 41V42H116.781L116.97 41.2425L116 41ZM1 41V40H0V41H1ZM1 52H0V53H1V52ZM391 52V53H392V52H391ZM391 41H392V40H391V41ZM276 41L275.03 41.2425L275.219 42H276V41ZM267.894 8.57464L266.924 8.81718L266.924 8.81718L267.894 8.57464ZM125.076 8.81718C126.078 4.81068 129.678 2 133.808 2V0C128.76 0 124.36 3.43527 123.136 8.33211L125.076 8.81718ZM116.97 41.2425L125.076 8.81718L123.136 8.33211L115.03 40.7575L116.97 41.2425ZM1 42H116V40H1V42ZM2 52V41H0V52H2ZM391 51H1V53H391V51ZM390 41V52H392V41H390ZM276 42H391V40H276V42ZM266.924 8.81718L275.03 41.2425L276.97 40.7575L268.864 8.33211L266.924 8.81718ZM258.192 2C262.322 2 265.922 4.81068 266.924 8.81718L268.864 8.33211C267.64 3.43527 263.24 0 258.192 0V2ZM133.808 2H258.192V0H133.808V2Z" fill="#3E347C" mask="url(#path-2-outside-1_5_59)"/>
</svg>
