<svg width="390" height="830" viewBox="0 0 390 830" fill="none" xmlns="http://www.w3.org/2000/svg">
<g clip-path="url(#clip0_33375_2922)">
<mask id="mask0_33375_2922" style="mask-type:alpha" maskUnits="userSpaceOnUse" x="-105" y="0" width="600" height="830">
<rect width="600" height="830" transform="matrix(-1 0 0 1 495 0)" fill="#D9D9D9"/>
</mask>
<g mask="url(#mask0_33375_2922)">
<path d="M723.687 313.06C723.687 311.374 722.63 309.869 721.044 309.297L323.42 165.982C239.439 135.713 147.747 134.407 62.9372 162.27L-345.759 296.546C-347.401 297.085 -348.511 298.618 -348.511 300.346L-348.508 911.861L122.371 911.862L723.687 911.861L723.687 313.06Z" fill="#4A4784" stroke="black"/>
<path d="M327.022 306L241.645 276L158.522 304.5L244.022 334.5L327.022 306Z" fill="black" fill-opacity="0.06"/>
<path d="M246.522 395L160.145 364L84.022 390.5L169.522 421.5L246.522 395Z" fill="black" fill-opacity="0.06"/>
<path d="M536.522 439L437.022 403.5L352.772 432.417L453.022 467.5L536.522 439Z" fill="black" fill-opacity="0.06"/>
<path d="M284.522 525.5L185.022 490L100.772 518.917L201.022 554L284.522 525.5Z" fill="black" fill-opacity="0.06"/>
<path d="M321.522 653.5L222.022 618L136.022 648L235.022 683.5L321.522 653.5Z" fill="black" fill-opacity="0.06"/>
<path d="M135.522 648.5L36.022 613L-46.478 641.5L52.522 677L135.522 648.5Z" fill="black" fill-opacity="0.06"/>
<path d="M571.522 566.5L472.022 531L386.022 561L485.022 596.5L571.522 566.5Z" fill="black" fill-opacity="0.06"/>
<path d="M22.522 547.5L-81.978 510L-166.228 539.917L-62.978 577L22.522 547.5Z" fill="black" fill-opacity="0.06"/>
<path d="M78.522 275.5L-4.97803 246.5L-90.978 274.5L-8.97803 304L78.522 275.5Z" fill="black" fill-opacity="0.06"/>
<path d="M344.522 191.581L266.822 161L171.336 190.957L251.532 220.913L344.522 191.581Z" fill="black" fill-opacity="0.06"/>
<g opacity="0.2">
<path d="M-98.4762 96.5005L726.524 389.502" stroke="black"/>
<path d="M-98.4762 154.913L726.524 447.915" stroke="black"/>
<path d="M-98.4762 213.325L726.524 506.327" stroke="black"/>
<path d="M-144.976 255.501L726.524 564.739" stroke="black"/>
<path d="M-344.461 235.501L726.539 623.151" stroke="black"/>
<path d="M-349.961 413.501L726.539 798.388" stroke="black"/>
<path d="M-349.961 358.354L726.539 743.241" stroke="black"/>
<path d="M-349.961 298.354L726.539 683.241" stroke="black"/>
<path d="M-349.961 474.354L726.539 859.24" stroke="black"/>
<path d="M-349.966 533.353L726.535 918.239" stroke="black"/>
<path d="M-349.966 592.354L726.535 977.24" stroke="black"/>
<path d="M-349.971 662.353L726.529 1047.24" stroke="black"/>
<path d="M250.623 165.149L-351.978 358" stroke="black"/>
<path d="M336.748 193.821L-349.978 413.001" stroke="black"/>
<path d="M407.77 219.103L-347.478 476.501" stroke="black"/>
<path d="M581.58 278.392L-349.978 603.501" stroke="black"/>
<path d="M708.272 308.989L-297.478 658.708" stroke="black"/>
<path d="M708.272 378.989L-297.478 728.708" stroke="black"/>
<path d="M708.272 448.989L-297.478 798.708" stroke="black"/>
<path d="M708.272 518.989L-297.478 868.708" stroke="black"/>
<path d="M708.272 588.989L-297.478 938.708" stroke="black"/>
<path d="M708.272 658.989L-297.478 1008.71" stroke="black"/>
<path d="M487.78 250.751L-351.978 540.501" stroke="black"/>
</g>
<g filter="url(#filter0_d_33375_2922)">
<path d="M659.905 309.824C659.905 312.597 657.151 314.529 654.544 313.585L243.414 164.812C222.713 157.321 200.118 156.87 179.135 163.53L-236.703 295.514C-239.283 296.332 -241.913 294.407 -241.913 291.701L-241.913 282.761L174.115 142.827C196.049 135.45 219.862 135.907 241.495 144.122L659.905 303.002L659.905 309.824Z" fill="#5C58AD"/>
<path d="M659.905 309.824C659.905 312.597 657.151 314.529 654.544 313.585L243.414 164.812C222.713 157.321 200.118 156.87 179.135 163.53L-236.703 295.514C-239.283 296.332 -241.913 294.407 -241.913 291.701L-241.913 282.761L174.115 142.827C196.049 135.45 219.862 135.907 241.495 144.122L659.905 303.002L659.905 309.824Z" stroke="black"/>
</g>
<g filter="url(#filter1_i_33375_2922)">
<path d="M-312.379 311.461L179.513 157.714C200.296 151.217 222.632 151.683 243.126 159.038L691.234 319.864L871.358 266.224L871.358 241.214C871.358 238.529 868.764 236.606 866.195 237.387L691.234 290.592L243.131 130.779C222.632 123.468 200.309 123.044 179.548 129.571L-313.788 284.665L-472.391 218.197L-472.391 244.097L-315.145 311.322C-314.269 311.696 -313.288 311.746 -312.379 311.461Z" fill="#302D62"/>
</g>
<path d="M-312.379 311.461L179.513 157.714C200.296 151.217 222.632 151.683 243.126 159.038L691.234 319.864L871.358 266.224L871.358 241.214C871.358 238.529 868.764 236.606 866.195 237.387L691.234 290.592L243.131 130.779C222.632 123.468 200.309 123.044 179.548 129.571L-313.788 284.665L-472.391 218.197L-472.391 244.097L-315.145 311.322C-314.269 311.696 -313.288 311.746 -312.379 311.461Z" stroke="black"/>
<path d="M845.826 239.35C849.537 238.244 849.668 233.036 846.017 231.745L256.297 23.208C214.42 8.3992 168.804 7.95282 126.644 21.9392L-452.752 214.154C-456.29 215.328 -456.441 220.277 -452.98 221.664L-311.507 278.365L180.837 124.306C201.62 117.803 223.957 118.261 244.455 125.612L690.61 285.6L845.826 239.35Z" fill="#4D4997" stroke="black"/>
<path d="M383.555 67.9834L337.271 51.6723L299.615 63.4185L345.899 79.7295L383.555 67.9834Z" fill="black" fill-opacity="0.08"/>
<path d="M409.767 153.996L363.483 137.685L325.827 149.431L372.111 165.742L409.767 153.996Z" fill="black" fill-opacity="0.08"/>
<path d="M317.401 121.542L271.117 105.231L233.461 116.977L279.745 133.288L317.401 121.542Z" fill="black" fill-opacity="0.08"/>
<path d="M233.149 117.173L186.864 100.862L149.208 112.608L195.492 128.919L233.149 117.173Z" fill="black" fill-opacity="0.08"/>
<path d="M392.293 96.5806L346.008 80.2695L308.352 92.0156L354.637 108.327L392.293 96.5806Z" fill="black" fill-opacity="0.08"/>
<path d="M299.303 63.5029L253.018 47.1919L215.362 58.938L261.647 75.2491L299.303 63.5029Z" fill="black" fill-opacity="0.08"/>
<path d="M206.522 30.2856L160.237 13.9746L122.581 25.7207L168.865 42.0318L206.522 30.2856Z" fill="black" fill-opacity="0.08"/>
<path d="M401.03 125.289L354.746 108.978L317.089 120.724L363.374 137.035L401.03 125.289Z" fill="black" fill-opacity="0.08"/>
<path d="M308.04 92.2119L261.755 75.9009L224.099 87.647L270.384 103.958L308.04 92.2119Z" fill="black" fill-opacity="0.08"/>
<path d="M224.411 87.8433L178.126 71.5322L140.47 83.2783L186.754 99.5894L224.411 87.8433Z" fill="black" fill-opacity="0.08"/>
<path d="M150.143 112.183L103.859 95.872L66.2025 107.618L112.487 123.929L150.143 112.183Z" fill="black" fill-opacity="0.08"/>
<path d="M76.5006 135.896L30.2161 119.585L-7.44022 131.332L38.8443 147.643L76.5006 135.896Z" fill="black" fill-opacity="0.08"/>
<path d="M1.60938 160.236L-44.6752 143.925L-82.3315 155.671L-36.0469 171.982L1.60938 160.236Z" fill="black" fill-opacity="0.08"/>
<path d="M214.425 59.1357L168.14 42.8247L130.484 54.5708L176.769 70.8819L214.425 59.1357Z" fill="black" fill-opacity="0.08"/>
<path d="M290.522 35.2856L244.237 18.9746L206.581 30.7207L252.865 47.0318L290.522 35.2856Z" fill="black" fill-opacity="0.08"/>
<path d="M140.158 83.4746L93.8732 67.1635L56.2169 78.9097L102.501 95.2208L140.158 83.4746Z" fill="black" fill-opacity="0.08"/>
<path d="M66.5151 107.188L20.2306 90.8769L-17.4257 102.623L28.8589 118.934L66.5151 107.188Z" fill="black" fill-opacity="0.08"/>
<path d="M70.8838 159.283L38.9537 147.537L1.29743 159.283L33.2275 171.029L70.8838 159.283Z" fill="black" fill-opacity="0.08"/>
<path d="M144.527 135.567L112.597 123.822L74.9406 135.568L106.871 147.314L144.527 135.567Z" fill="black" fill-opacity="0.08"/>
<path d="M130.796 54.7661L84.5117 38.4551L46.8554 50.2012L93.14 66.5123L130.796 54.7661Z" fill="black" fill-opacity="0.08"/>
<path d="M56.5289 79.106L10.2444 62.7949L-27.4119 74.541L18.8726 90.8521L56.5289 79.106Z" fill="black" fill-opacity="0.08"/>
<path fill-rule="evenodd" clip-rule="evenodd" d="M860.109 231.97C863.751 233.258 863.632 238.449 859.936 239.569L690.611 290.903L244.933 130.99C224.428 123.632 202.081 123.172 181.29 129.68L-313.871 284.661L-467.167 221.505C-470.596 220.092 -470.423 215.178 -466.903 214.01L126.527 17.1397C168.686 3.15329 214.302 3.59968 256.18 18.4085L860.109 231.97ZM846.007 231.74C849.659 233.031 849.527 238.241 845.814 239.345L690.298 285.598L244.464 125.621C223.961 118.264 201.616 117.803 180.826 124.308L-311.507 278.363L-452.98 221.662C-456.44 220.275 -456.29 215.326 -452.752 214.152L126.645 21.9376C168.804 7.95118 214.42 8.39756 256.297 23.2064L846.007 231.74Z" fill="#5C58AD"/>
<path d="M859.936 239.569L859.791 239.091L859.936 239.569ZM860.109 231.97L860.275 231.499H860.275L860.109 231.97ZM690.611 290.903L690.756 291.381L690.597 291.429L690.442 291.373L690.611 290.903ZM244.933 130.99L244.764 131.46L244.933 130.99ZM181.29 129.68L181.141 129.202L181.29 129.68ZM-313.871 284.661L-313.722 285.138L-313.894 285.192L-314.061 285.123L-313.871 284.661ZM-467.167 221.505L-466.976 221.043L-467.167 221.505ZM-466.903 214.01L-467.06 213.536L-466.903 214.01ZM126.527 17.1397L126.684 17.6143L126.527 17.1397ZM256.18 18.4085L256.013 18.8799L256.18 18.4085ZM845.814 239.345L845.957 239.824L845.814 239.345ZM846.007 231.74L845.841 232.211L846.007 231.74ZM690.298 285.598L690.441 286.077L690.284 286.124L690.13 286.069L690.298 285.598ZM244.464 125.621L244.295 126.091L244.464 125.621ZM180.826 124.308L180.677 123.83L180.826 124.308ZM-311.507 278.363L-311.358 278.84L-311.527 278.893L-311.693 278.827L-311.507 278.363ZM-452.98 221.662L-453.166 222.126L-452.98 221.662ZM-452.752 214.152L-452.909 213.678L-452.752 214.152ZM126.645 21.9376L126.802 22.4122L126.645 21.9376ZM256.297 23.2064L256.131 23.6778L256.297 23.2064ZM859.791 239.091C863.025 238.11 863.129 233.569 859.942 232.442L860.275 231.499C864.373 232.948 864.24 238.787 860.081 240.048L859.791 239.091ZM690.465 290.424L859.791 239.091L860.081 240.048L690.756 291.381L690.465 290.424ZM245.102 130.519L690.779 290.432L690.442 291.373L244.764 131.46L245.102 130.519ZM181.141 129.202C202.036 122.663 224.494 123.125 245.102 130.519L244.764 131.46C224.362 124.14 202.126 123.682 181.44 130.157L181.141 129.202ZM-314.02 284.183L181.141 129.202L181.44 130.157L-313.722 285.138L-314.02 284.183ZM-466.976 221.043L-313.681 284.198L-314.061 285.123L-467.357 221.967L-466.976 221.043ZM-466.745 214.485C-469.825 215.506 -469.977 219.807 -466.976 221.043L-467.357 221.967C-471.215 220.378 -471.02 214.849 -467.06 213.536L-466.745 214.485ZM126.684 17.6143L-466.745 214.485L-467.06 213.536L126.37 16.6651L126.684 17.6143ZM256.013 18.8799C214.24 4.10809 168.738 3.66283 126.684 17.6143L126.37 16.6651C168.634 2.64376 214.364 3.09126 256.347 17.9371L256.013 18.8799ZM859.942 232.442L256.013 18.8799L256.347 17.9371L860.275 231.499L859.942 232.442ZM845.672 238.866C848.92 237.9 849.036 233.341 845.841 232.211L846.174 231.269C850.283 232.721 850.134 238.582 845.957 239.824L845.672 238.866ZM690.156 285.119L845.672 238.866L845.957 239.824L690.441 286.077L690.156 285.119ZM244.633 125.15L690.467 285.127L690.13 286.069L244.295 126.091L244.633 125.15ZM180.677 123.83C201.57 117.293 224.027 117.756 244.633 125.15L244.295 126.091C223.894 118.771 201.661 118.312 180.976 124.785L180.677 123.83ZM-311.656 277.886L180.677 123.83L180.976 124.785L-311.358 278.84L-311.656 277.886ZM-452.794 221.198L-311.321 277.899L-311.693 278.827L-453.166 222.126L-452.794 221.198ZM-452.594 214.627C-455.69 215.654 -455.822 219.984 -452.794 221.198L-453.166 222.126C-457.059 220.566 -456.89 214.998 -452.909 213.678L-452.594 214.627ZM126.802 22.4122L-452.594 214.627L-452.909 213.678L126.487 21.463L126.802 22.4122ZM256.131 23.6778C214.358 8.90598 168.856 8.46072 126.802 22.4122L126.487 21.463C168.752 7.44165 214.482 7.88915 256.464 22.735L256.131 23.6778ZM845.841 232.211L256.131 23.6778L256.464 22.735L846.174 231.269L845.841 232.211Z" fill="black"/>
<g filter="url(#filter2_d_33375_2922)">
<path d="M50.2886 183.935C50.2886 183.595 49.9577 183.354 49.6348 183.459L-0.541004 199.674C-0.747398 199.741 -0.887245 199.933 -0.887245 200.15V202.844C-0.887245 203.183 -0.5564 203.424 -0.23349 203.319L49.9423 187.104C50.1487 187.037 50.2886 186.845 50.2886 186.628V183.935Z" fill="#78FEFF"/>
</g>
<path d="M133.918 157.091C133.918 156.754 133.591 156.513 133.27 156.613L79.9732 173.154C79.764 173.218 79.6214 173.412 79.6214 173.631V176.329C79.6214 176.665 79.9479 176.906 80.2696 176.806L133.566 160.266C133.775 160.201 133.918 160.007 133.918 159.788V157.091Z" fill="#23243D" stroke="black"/>
<path d="M275.587 156.495C275.587 156.15 275.928 155.908 276.254 156.023L326.429 173.769C326.629 173.839 326.763 174.028 326.763 174.24V176.924C326.763 177.269 326.421 177.51 326.096 177.395L275.92 159.65C275.72 159.579 275.587 159.391 275.587 159.179V156.495Z" fill="#23243D" stroke="black"/>
<g filter="url(#filter3_d_33375_2922)">
<path d="M361.712 187.075C361.712 186.73 362.054 186.489 362.379 186.604L412.555 204.349C412.754 204.42 412.888 204.609 412.888 204.82V207.504C412.888 207.849 412.547 208.091 412.221 207.976L362.045 190.231C361.846 190.16 361.712 189.971 361.712 189.759V187.075Z" fill="#78FEFF"/>
</g>
<g filter="url(#filter4_d_33375_2922)">
<path d="M238.522 144.261C238.522 144.055 238.396 143.87 238.203 143.799C236.149 143.047 224.454 139 210.584 139C196.561 139 182.154 143.978 179.861 144.803C179.665 144.874 179.545 145.057 179.545 145.265V147.913C179.545 148.27 179.905 148.517 180.238 148.39C183.276 147.225 195.922 142.745 210.584 142.745C224.951 142.745 235.129 146.32 237.817 147.374C238.154 147.506 238.522 147.256 238.522 146.894V144.261Z" fill="#78FEFF"/>
</g>
<g filter="url(#filter5_d_33375_2922)">
<path d="M122.137 132.448C121.324 132.157 120.439 132.137 119.614 132.391L55.2236 152.185C53.4422 152.732 53.3121 155.204 55.0262 155.936L68.4293 161.657C69.2874 162.023 70.2465 162.078 71.1407 161.812L137.921 141.934C139.774 141.383 139.844 138.785 138.025 138.134L122.137 132.448Z" fill="#463882"/>
<path d="M122.137 132.448C121.324 132.157 120.439 132.137 119.614 132.391L55.2236 152.185C53.4422 152.732 53.3121 155.204 55.0262 155.936L68.4293 161.657C69.2874 162.023 70.2465 162.078 71.1407 161.812L137.921 141.934C139.774 141.383 139.844 138.785 138.025 138.134L122.137 132.448Z" stroke="black"/>
</g>
<g filter="url(#filter6_d_33375_2922)">
<path d="M72.3729 152.689C71.9364 152.63 71.5126 152.863 71.3292 153.263L70.4777 155.123C70.1106 155.925 70.8857 156.775 71.7179 156.483L75.7775 155.059C76.7689 154.711 76.6222 153.266 75.5812 153.125L72.3729 152.689Z" fill="#78FEFF"/>
</g>
<g filter="url(#filter7_d_33375_2922)">
<path d="M121.6 141.764C122.037 141.824 122.461 141.59 122.644 141.19L123.495 139.33C123.863 138.528 123.087 137.678 122.255 137.97L118.196 139.394C117.204 139.742 117.351 141.187 118.392 141.329L121.6 141.764Z" fill="#FFBF49"/>
</g>
<g filter="url(#filter8_d_33375_2922)">
<path d="M137.411 150.448C136.598 150.157 135.713 150.137 134.888 150.391L70.498 170.185C68.7166 170.732 68.5865 173.204 70.3006 173.936L83.7037 179.657C84.5618 180.023 85.5209 180.078 86.4151 179.812L153.196 159.934C155.048 159.383 155.119 156.785 153.299 156.134L137.411 150.448Z" fill="#463882"/>
<path d="M137.411 150.448C136.598 150.157 135.713 150.137 134.888 150.391L70.498 170.185C68.7166 170.732 68.5865 173.204 70.3006 173.936L83.7037 179.657C84.5618 180.023 85.5209 180.078 86.4151 179.812L153.196 159.934C155.048 159.383 155.119 156.785 153.299 156.134L137.411 150.448Z" stroke="black"/>
</g>
<g filter="url(#filter9_d_33375_2922)">
<path d="M87.6474 170.689C87.2109 170.63 86.787 170.863 86.6036 171.263L85.7521 173.123C85.385 173.925 86.1601 174.775 86.9923 174.483L91.052 173.059C92.0433 172.711 91.8966 171.266 90.8556 171.125L87.6474 170.689Z" fill="#78FEFF"/>
</g>
<g filter="url(#filter10_d_33375_2922)">
<path d="M136.875 159.764C137.311 159.824 137.735 159.59 137.918 159.19L138.77 157.33C139.137 156.528 138.362 155.678 137.53 155.97L133.47 157.394C132.479 157.742 132.625 159.187 133.666 159.329L136.875 159.764Z" fill="#FFBF49"/>
</g>
<g filter="url(#filter11_d_33375_2922)">
<path d="M153.411 168.257C152.598 167.966 151.713 167.946 150.888 168.199L86.498 187.993C84.7166 188.541 84.5865 191.013 86.3006 191.744L99.7037 197.465C100.562 197.832 101.521 197.886 102.415 197.62L169.196 177.743C171.048 177.191 171.119 174.594 169.299 173.943L153.411 168.257Z" fill="#463882"/>
<path d="M153.411 168.257C152.598 167.966 151.713 167.946 150.888 168.199L86.498 187.993C84.7166 188.541 84.5865 191.013 86.3006 191.744L99.7037 197.465C100.562 197.832 101.521 197.886 102.415 197.62L169.196 177.743C171.048 177.191 171.119 174.594 169.299 173.943L153.411 168.257Z" stroke="black"/>
</g>
<g filter="url(#filter12_d_33375_2922)">
<path d="M103.647 188.497C103.211 188.438 102.787 188.672 102.604 189.072L101.752 190.931C101.385 191.733 102.16 192.583 102.992 192.291L107.052 190.868C108.043 190.52 107.897 189.075 106.856 188.933L103.647 188.497Z" fill="#78FEFF"/>
</g>
<g filter="url(#filter13_d_33375_2922)">
<path d="M152.875 177.573C153.311 177.632 153.735 177.399 153.918 176.998L154.77 175.139C155.137 174.337 154.362 173.487 153.53 173.779L149.47 175.203C148.479 175.55 148.625 176.996 149.666 177.137L152.875 177.573Z" fill="#FFBF49"/>
</g>
</g>
<g filter="url(#filter14_i_33375_2922)">
<path d="M214.263 210.044L149 186L117.5 196L162.734 211.965C164.557 212.608 164.497 215.207 162.646 215.766L27.8849 256.415C24.1656 257.537 24.0675 262.768 27.7421 264.028L296.751 356.313C300.324 357.538 300.364 362.576 296.811 363.858L-25.4771 480.201C-29.011 481.477 -28.9957 486.48 -25.4541 487.734L258.771 588.378C262.276 589.619 262.339 594.553 258.867 595.884L51.9159 675.2C48.4701 676.52 48.4982 681.405 51.9589 682.686L412.302 816.057C413.081 816.345 413.931 816.384 414.733 816.167L451.217 806.316C454.996 805.296 455.212 800.017 451.529 798.691L128.956 682.583C125.488 681.335 125.41 676.459 128.836 675.101L328.625 595.914C332.056 594.554 331.972 589.669 328.496 588.428L46.6694 487.809C43.1161 486.541 43.1338 481.509 46.6958 480.266L373.103 366.305C376.687 365.053 376.675 359.98 373.085 358.746L97.2096 263.856C93.5887 262.61 93.6187 257.479 97.2539 256.276L214.137 217.595C217.73 216.406 217.815 211.353 214.263 210.044Z" fill="#312F5A"/>
</g>
<g filter="url(#filter15_d_33375_2922)">
<path d="M129.955 286.023C129.998 286.008 130.045 286.008 130.088 286.023L157.462 295.543C157.64 295.606 157.641 295.858 157.463 295.921L153.066 297.477C153.023 297.492 152.977 297.492 152.934 297.477L125.56 287.957C125.381 287.894 125.381 287.642 125.559 287.579L129.955 286.023Z" fill="#78FEFF"/>
</g>
<g opacity="0.6" filter="url(#filter16_d_33375_2922)">
<path d="M73.4231 258.327C73.6074 258.382 73.6149 258.64 73.4341 258.706L65.5275 261.59C65.3508 261.654 65.3526 261.905 65.5303 261.967L84.4402 268.543C84.6187 268.606 84.6194 268.858 84.4412 268.921L80.0448 270.477C80.0019 270.492 79.9551 270.492 79.9122 270.477L55.5469 261.973C55.3674 261.911 55.3683 261.657 55.5481 261.595L68.9393 257.021C68.9788 257.007 69.0215 257.006 69.0614 257.018L73.4231 258.327Z" fill="#78FEFF"/>
</g>
<g filter="url(#filter17_d_33375_2922)">
<path d="M192.934 308.023C192.977 308.008 193.023 308.008 193.066 308.023L220.44 317.543C220.619 317.606 220.619 317.858 220.441 317.921L216.045 319.477C216.002 319.492 215.955 319.492 215.912 319.477L188.538 309.957C188.36 309.894 188.359 309.642 188.537 309.579L192.934 308.023Z" fill="#78FEFF"/>
</g>
<g filter="url(#filter18_d_33375_2922)">
<path d="M136.934 532.023C136.977 532.008 137.023 532.008 137.066 532.023L164.44 541.543C164.619 541.606 164.619 541.858 164.441 541.921L160.045 543.477C160.002 543.492 159.955 543.492 159.912 543.477L132.538 533.957C132.36 533.894 132.359 533.642 132.537 533.579L136.934 532.023Z" fill="#78FEFF"/>
</g>
<g filter="url(#filter19_d_33375_2922)">
<path d="M203.934 724.023C203.977 724.008 204.023 724.008 204.066 724.023L231.44 733.543C231.619 733.606 231.619 733.858 231.441 733.921L227.045 735.477C227.002 735.492 226.955 735.492 226.912 735.477L199.538 725.957C199.36 725.894 199.359 725.642 199.537 725.579L203.934 724.023Z" fill="#78FEFF"/>
</g>
<g filter="url(#filter20_d_33375_2922)">
<path d="M52.934 502.023C52.9768 502.008 53.0235 502.008 53.0664 502.023L80.4402 511.543C80.6187 511.606 80.6194 511.858 80.4412 511.921L76.0447 513.477C76.0018 513.492 75.9551 513.492 75.9122 513.477L48.5385 503.957C48.3599 503.894 48.3592 503.642 48.5375 503.579L52.934 502.023Z" fill="#78FEFF"/>
</g>
<g filter="url(#filter21_d_33375_2922)">
<path d="M119.934 693.023C119.977 693.008 120.023 693.008 120.066 693.023L147.44 702.543C147.619 702.606 147.619 702.858 147.441 702.921L143.045 704.477C143.002 704.492 142.955 704.492 142.912 704.477L115.538 694.957C115.36 694.894 115.359 694.642 115.537 694.579L119.934 693.023Z" fill="#78FEFF"/>
</g>
<g filter="url(#filter22_d_33375_2922)">
<path d="M213.434 559.023C213.477 559.008 213.523 559.008 213.566 559.023L240.94 568.543C241.119 568.606 241.119 568.858 240.941 568.921L236.545 570.477C236.502 570.492 236.455 570.492 236.412 570.477L209.038 560.957C208.86 560.894 208.859 560.642 209.037 560.579L213.434 559.023Z" fill="#78FEFF"/>
</g>
<g filter="url(#filter23_d_33375_2922)">
<path d="M287.934 755.023C287.977 755.008 288.023 755.008 288.066 755.023L315.44 764.543C315.619 764.606 315.619 764.858 315.441 764.921L311.045 766.477C311.002 766.492 310.955 766.492 310.912 766.477L283.538 756.957C283.36 756.894 283.359 756.642 283.537 756.579L287.934 755.023Z" fill="#78FEFF"/>
</g>
<g filter="url(#filter24_d_33375_2922)">
<path d="M365.934 784.023C365.977 784.008 366.023 784.008 366.066 784.023L393.44 793.543C393.619 793.606 393.619 793.858 393.441 793.921L389.045 795.477C389.002 795.492 388.955 795.492 388.912 795.477L361.538 785.957C361.36 785.894 361.359 785.642 361.537 785.579L365.934 784.023Z" fill="#78FEFF"/>
</g>
<g filter="url(#filter25_d_33375_2922)">
<path d="M258.934 331.023C258.977 331.008 259.023 331.008 259.066 331.023L286.44 340.543C286.619 340.606 286.619 340.858 286.441 340.921L282.045 342.477C282.002 342.492 281.955 342.492 281.912 342.477L254.538 332.957C254.36 332.894 254.359 332.642 254.537 332.579L258.934 331.023Z" fill="#78FEFF"/>
</g>
<g filter="url(#filter26_d_33375_2922)">
<path d="M325.434 355.023C325.477 355.008 325.524 355.008 325.567 355.023L342.973 361.077C343.15 361.138 343.152 361.388 342.976 361.453L322.569 368.975C322.524 368.991 322.476 368.991 322.431 368.975L317.52 367.189C317.344 367.125 317.345 366.876 317.521 366.813L332.476 361.448C332.652 361.385 332.652 361.135 332.476 361.072L321.028 356.959C320.851 356.895 320.852 356.645 321.029 356.582L325.434 355.023Z" fill="#78FEFF"/>
</g>
<g opacity="0.6" filter="url(#filter27_d_33375_2922)">
<path d="M173.063 222.023C173.022 222.008 172.978 222.007 172.936 222.019L148.074 229.331C147.89 229.385 147.881 229.643 148.061 229.71L151.437 230.977C151.478 230.992 151.522 230.993 151.564 230.981L176.426 223.669C176.61 223.615 176.619 223.357 176.439 223.29L173.063 222.023Z" fill="#78FEFF"/>
</g>
<g opacity="0.6" filter="url(#filter28_d_33375_2922)">
<path d="M125.063 237.023C125.022 237.008 124.978 237.007 124.936 237.019L100.074 244.331C99.8901 244.385 99.8807 244.643 100.061 244.71L103.437 245.977C103.478 245.992 103.522 245.993 103.564 245.981L128.426 238.669C128.61 238.615 128.619 238.357 128.439 238.29L125.063 237.023Z" fill="#78FEFF"/>
</g>
<g filter="url(#filter29_d_33375_2922)">
<path d="M225.066 403.022C225.023 403.008 224.977 403.009 224.934 403.024L191.536 415.303C191.358 415.368 191.362 415.621 191.541 415.68L196.934 417.478C196.977 417.492 197.023 417.491 197.066 417.476L230.464 405.197C230.642 405.132 230.638 404.879 230.459 404.82L225.066 403.022Z" fill="#78FEFF"/>
</g>
<g filter="url(#filter30_d_33375_2922)">
<path d="M281.566 599.022C281.523 599.008 281.477 599.009 281.434 599.024L248.036 611.303C247.858 611.368 247.862 611.621 248.041 611.68L253.434 613.478C253.477 613.492 253.523 613.491 253.566 613.476L286.964 601.197C287.142 601.132 287.138 600.879 286.959 600.82L281.566 599.022Z" fill="#78FEFF"/>
</g>
<g filter="url(#filter31_d_33375_2922)">
<path d="M209.566 626.022C209.523 626.008 209.477 626.009 209.434 626.024L176.036 638.303C175.858 638.368 175.862 638.621 176.041 638.68L181.434 640.478C181.477 640.492 181.523 640.491 181.566 640.476L214.964 628.197C215.142 628.132 215.138 627.879 214.959 627.82L209.566 626.022Z" fill="#78FEFF"/>
</g>
<g filter="url(#filter32_d_33375_2922)">
<path d="M139.566 654.022C139.523 654.008 139.477 654.009 139.434 654.024L106.036 666.303C105.858 666.368 105.862 666.621 106.041 666.68L111.434 668.478C111.477 668.492 111.523 668.491 111.566 668.476L144.964 656.197C145.142 656.132 145.138 655.879 144.959 655.82L139.566 654.022Z" fill="#78FEFF"/>
</g>
<g filter="url(#filter33_d_33375_2922)">
<path d="M149.066 430.022C149.023 430.008 148.977 430.009 148.934 430.024L115.536 442.303C115.358 442.368 115.362 442.621 115.541 442.68L120.934 444.478C120.977 444.492 121.023 444.491 121.066 444.476L154.464 432.197C154.642 432.132 154.638 431.879 154.459 431.82L149.066 430.022Z" fill="#78FEFF"/>
</g>
<g filter="url(#filter34_d_33375_2922)">
<path d="M64.0665 461.022C64.0234 461.008 63.9768 461.009 63.9342 461.024L30.5357 473.303C30.3582 473.368 30.3621 473.621 30.5415 473.68L35.9335 475.478C35.9766 475.492 36.0232 475.491 36.0658 475.476L69.4643 463.197C69.6418 463.132 69.6379 462.879 69.4585 462.82L64.0665 461.022Z" fill="#78FEFF"/>
</g>
<g filter="url(#filter35_d_33375_2922)">
<path d="M297.066 377.022C297.023 377.008 296.977 377.009 296.934 377.024L263.536 389.303C263.358 389.368 263.362 389.621 263.541 389.68L268.934 391.478C268.977 391.492 269.023 391.491 269.066 391.476L302.464 379.197C302.642 379.132 302.638 378.879 302.459 378.82L297.066 377.022Z" fill="#78FEFF"/>
</g>
<g opacity="0.6" filter="url(#filter36_d_33375_2922)">
<path d="M148.964 196.013C149.002 196.004 149.041 196.007 149.077 196.021L164.366 201.762C164.553 201.832 164.533 202.102 164.338 202.145L161.536 202.757C161.498 202.765 161.459 202.762 161.423 202.748L146.134 197.007C145.947 196.937 145.967 196.667 146.162 196.625L148.964 196.013Z" fill="#78FEFF"/>
</g>
</g>
<defs>
<filter id="filter0_d_33375_2922" x="-242.413" y="137.109" width="902.818" height="185.219" filterUnits="userSpaceOnUse" color-interpolation-filters="sRGB">
<feFlood flood-opacity="0" result="BackgroundImageFix"/>
<feColorMatrix in="SourceAlpha" type="matrix" values="0 0 0 0 0 0 0 0 0 0 0 0 0 0 0 0 0 0 127 0" result="hardAlpha"/>
<feOffset dy="8"/>
<feComposite in2="hardAlpha" operator="out"/>
<feColorMatrix type="matrix" values="0 0 0 0 0 0 0 0 0 0 0 0 0 0 0 0 0 0 0.25 0"/>
<feBlend mode="normal" in2="BackgroundImageFix" result="effect1_dropShadow_33375_2922"/>
<feBlend mode="normal" in="SourceGraphic" in2="effect1_dropShadow_33375_2922" result="shape"/>
</filter>
<filter id="filter1_i_33375_2922" x="-472.891" y="124.468" width="1344.75" height="195.923" filterUnits="userSpaceOnUse" color-interpolation-filters="sRGB">
<feFlood flood-opacity="0" result="BackgroundImageFix"/>
<feBlend mode="normal" in="SourceGraphic" in2="BackgroundImageFix" result="shape"/>
<feColorMatrix in="SourceAlpha" type="matrix" values="0 0 0 0 0 0 0 0 0 0 0 0 0 0 0 0 0 0 127 0" result="hardAlpha"/>
<feOffset dy="6"/>
<feComposite in2="hardAlpha" operator="arithmetic" k2="-1" k3="1"/>
<feColorMatrix type="matrix" values="0 0 0 0 0 0 0 0 0 0 0 0 0 0 0 0 0 0 0.25 0"/>
<feBlend mode="normal" in2="shape" result="effect1_innerShadow_33375_2922"/>
</filter>
<filter id="filter2_d_33375_2922" x="-10.8872" y="173.434" width="71.1758" height="39.9097" filterUnits="userSpaceOnUse" color-interpolation-filters="sRGB">
<feFlood flood-opacity="0" result="BackgroundImageFix"/>
<feColorMatrix in="SourceAlpha" type="matrix" values="0 0 0 0 0 0 0 0 0 0 0 0 0 0 0 0 0 0 127 0" result="hardAlpha"/>
<feOffset/>
<feGaussianBlur stdDeviation="5"/>
<feComposite in2="hardAlpha" operator="out"/>
<feColorMatrix type="matrix" values="0 0 0 0 0.647059 0 0 0 0 1 0 0 0 0 0.992157 0 0 0 1 0"/>
<feBlend mode="normal" in2="BackgroundImageFix" result="effect1_dropShadow_33375_2922"/>
<feBlend mode="normal" in="SourceGraphic" in2="effect1_dropShadow_33375_2922" result="shape"/>
</filter>
<filter id="filter3_d_33375_2922" x="351.712" y="176.575" width="71.1758" height="41.4302" filterUnits="userSpaceOnUse" color-interpolation-filters="sRGB">
<feFlood flood-opacity="0" result="BackgroundImageFix"/>
<feColorMatrix in="SourceAlpha" type="matrix" values="0 0 0 0 0 0 0 0 0 0 0 0 0 0 0 0 0 0 127 0" result="hardAlpha"/>
<feOffset/>
<feGaussianBlur stdDeviation="5"/>
<feComposite in2="hardAlpha" operator="out"/>
<feColorMatrix type="matrix" values="0 0 0 0 0.647059 0 0 0 0 1 0 0 0 0 0.992157 0 0 0 1 0"/>
<feBlend mode="normal" in2="BackgroundImageFix" result="effect1_dropShadow_33375_2922"/>
<feBlend mode="normal" in="SourceGraphic" in2="effect1_dropShadow_33375_2922" result="shape"/>
</filter>
<filter id="filter4_d_33375_2922" x="169.545" y="129" width="78.9771" height="29.4233" filterUnits="userSpaceOnUse" color-interpolation-filters="sRGB">
<feFlood flood-opacity="0" result="BackgroundImageFix"/>
<feColorMatrix in="SourceAlpha" type="matrix" values="0 0 0 0 0 0 0 0 0 0 0 0 0 0 0 0 0 0 127 0" result="hardAlpha"/>
<feOffset/>
<feGaussianBlur stdDeviation="5"/>
<feComposite in2="hardAlpha" operator="out"/>
<feColorMatrix type="matrix" values="0 0 0 0 0.647059 0 0 0 0 1 0 0 0 0 0.992157 0 0 0 1 0"/>
<feBlend mode="normal" in2="BackgroundImageFix" result="effect1_dropShadow_33375_2922"/>
<feBlend mode="normal" in="SourceGraphic" in2="effect1_dropShadow_33375_2922" result="shape"/>
</filter>
<filter id="filter5_d_33375_2922" x="53.3112" y="131.714" width="86.5396" height="34.7637" filterUnits="userSpaceOnUse" color-interpolation-filters="sRGB">
<feFlood flood-opacity="0" result="BackgroundImageFix"/>
<feColorMatrix in="SourceAlpha" type="matrix" values="0 0 0 0 0 0 0 0 0 0 0 0 0 0 0 0 0 0 127 0" result="hardAlpha"/>
<feOffset dy="4"/>
<feComposite in2="hardAlpha" operator="out"/>
<feColorMatrix type="matrix" values="0 0 0 0 0.0613667 0 0 0 0 0.0682398 0 0 0 0 0.24923 0 0 0 1 0"/>
<feBlend mode="normal" in2="BackgroundImageFix" result="effect1_dropShadow_33375_2922"/>
<feBlend mode="normal" in="SourceGraphic" in2="effect1_dropShadow_33375_2922" result="shape"/>
</filter>
<filter id="filter6_d_33375_2922" x="60.384" y="142.68" width="26.0629" height="23.8618" filterUnits="userSpaceOnUse" color-interpolation-filters="sRGB">
<feFlood flood-opacity="0" result="BackgroundImageFix"/>
<feColorMatrix in="SourceAlpha" type="matrix" values="0 0 0 0 0 0 0 0 0 0 0 0 0 0 0 0 0 0 127 0" result="hardAlpha"/>
<feOffset/>
<feGaussianBlur stdDeviation="5"/>
<feComposite in2="hardAlpha" operator="out"/>
<feColorMatrix type="matrix" values="0 0 0 0 0.647059 0 0 0 0 1 0 0 0 0 0.992157 0 0 0 1 0"/>
<feBlend mode="normal" in2="BackgroundImageFix" result="effect1_dropShadow_33375_2922"/>
<feBlend mode="normal" in="SourceGraphic" in2="effect1_dropShadow_33375_2922" result="shape"/>
</filter>
<filter id="filter7_d_33375_2922" x="107.526" y="127.912" width="26.0629" height="23.8618" filterUnits="userSpaceOnUse" color-interpolation-filters="sRGB">
<feFlood flood-opacity="0" result="BackgroundImageFix"/>
<feColorMatrix in="SourceAlpha" type="matrix" values="0 0 0 0 0 0 0 0 0 0 0 0 0 0 0 0 0 0 127 0" result="hardAlpha"/>
<feOffset/>
<feGaussianBlur stdDeviation="5"/>
<feComposite in2="hardAlpha" operator="out"/>
<feColorMatrix type="matrix" values="0 0 0 0 1 0 0 0 0 0.750323 0 0 0 0 0.286637 0 0 0 1 0"/>
<feBlend mode="normal" in2="BackgroundImageFix" result="effect1_dropShadow_33375_2922"/>
<feBlend mode="normal" in="SourceGraphic" in2="effect1_dropShadow_33375_2922" result="shape"/>
</filter>
<filter id="filter8_d_33375_2922" x="68.5856" y="149.714" width="86.5396" height="34.7637" filterUnits="userSpaceOnUse" color-interpolation-filters="sRGB">
<feFlood flood-opacity="0" result="BackgroundImageFix"/>
<feColorMatrix in="SourceAlpha" type="matrix" values="0 0 0 0 0 0 0 0 0 0 0 0 0 0 0 0 0 0 127 0" result="hardAlpha"/>
<feOffset dy="4"/>
<feComposite in2="hardAlpha" operator="out"/>
<feColorMatrix type="matrix" values="0 0 0 0 0.0613667 0 0 0 0 0.0682398 0 0 0 0 0.24923 0 0 0 1 0"/>
<feBlend mode="normal" in2="BackgroundImageFix" result="effect1_dropShadow_33375_2922"/>
<feBlend mode="normal" in="SourceGraphic" in2="effect1_dropShadow_33375_2922" result="shape"/>
</filter>
<filter id="filter9_d_33375_2922" x="75.6584" y="160.68" width="26.0629" height="23.8618" filterUnits="userSpaceOnUse" color-interpolation-filters="sRGB">
<feFlood flood-opacity="0" result="BackgroundImageFix"/>
<feColorMatrix in="SourceAlpha" type="matrix" values="0 0 0 0 0 0 0 0 0 0 0 0 0 0 0 0 0 0 127 0" result="hardAlpha"/>
<feOffset/>
<feGaussianBlur stdDeviation="5"/>
<feComposite in2="hardAlpha" operator="out"/>
<feColorMatrix type="matrix" values="0 0 0 0 0.647059 0 0 0 0 1 0 0 0 0 0.992157 0 0 0 1 0"/>
<feBlend mode="normal" in2="BackgroundImageFix" result="effect1_dropShadow_33375_2922"/>
<feBlend mode="normal" in="SourceGraphic" in2="effect1_dropShadow_33375_2922" result="shape"/>
</filter>
<filter id="filter10_d_33375_2922" x="122.801" y="145.912" width="26.0629" height="23.8618" filterUnits="userSpaceOnUse" color-interpolation-filters="sRGB">
<feFlood flood-opacity="0" result="BackgroundImageFix"/>
<feColorMatrix in="SourceAlpha" type="matrix" values="0 0 0 0 0 0 0 0 0 0 0 0 0 0 0 0 0 0 127 0" result="hardAlpha"/>
<feOffset/>
<feGaussianBlur stdDeviation="5"/>
<feComposite in2="hardAlpha" operator="out"/>
<feColorMatrix type="matrix" values="0 0 0 0 1 0 0 0 0 0.750323 0 0 0 0 0.286637 0 0 0 1 0"/>
<feBlend mode="normal" in2="BackgroundImageFix" result="effect1_dropShadow_33375_2922"/>
<feBlend mode="normal" in="SourceGraphic" in2="effect1_dropShadow_33375_2922" result="shape"/>
</filter>
<filter id="filter11_d_33375_2922" x="84.5856" y="167.523" width="86.5396" height="34.7637" filterUnits="userSpaceOnUse" color-interpolation-filters="sRGB">
<feFlood flood-opacity="0" result="BackgroundImageFix"/>
<feColorMatrix in="SourceAlpha" type="matrix" values="0 0 0 0 0 0 0 0 0 0 0 0 0 0 0 0 0 0 127 0" result="hardAlpha"/>
<feOffset dy="4"/>
<feComposite in2="hardAlpha" operator="out"/>
<feColorMatrix type="matrix" values="0 0 0 0 0.0613667 0 0 0 0 0.0682398 0 0 0 0 0.24923 0 0 0 1 0"/>
<feBlend mode="normal" in2="BackgroundImageFix" result="effect1_dropShadow_33375_2922"/>
<feBlend mode="normal" in="SourceGraphic" in2="effect1_dropShadow_33375_2922" result="shape"/>
</filter>
<filter id="filter12_d_33375_2922" x="91.6584" y="178.488" width="26.0629" height="23.8618" filterUnits="userSpaceOnUse" color-interpolation-filters="sRGB">
<feFlood flood-opacity="0" result="BackgroundImageFix"/>
<feColorMatrix in="SourceAlpha" type="matrix" values="0 0 0 0 0 0 0 0 0 0 0 0 0 0 0 0 0 0 127 0" result="hardAlpha"/>
<feOffset/>
<feGaussianBlur stdDeviation="5"/>
<feComposite in2="hardAlpha" operator="out"/>
<feColorMatrix type="matrix" values="0 0 0 0 0.647059 0 0 0 0 1 0 0 0 0 0.992157 0 0 0 1 0"/>
<feBlend mode="normal" in2="BackgroundImageFix" result="effect1_dropShadow_33375_2922"/>
<feBlend mode="normal" in="SourceGraphic" in2="effect1_dropShadow_33375_2922" result="shape"/>
</filter>
<filter id="filter13_d_33375_2922" x="138.801" y="163.72" width="26.0629" height="23.8618" filterUnits="userSpaceOnUse" color-interpolation-filters="sRGB">
<feFlood flood-opacity="0" result="BackgroundImageFix"/>
<feColorMatrix in="SourceAlpha" type="matrix" values="0 0 0 0 0 0 0 0 0 0 0 0 0 0 0 0 0 0 127 0" result="hardAlpha"/>
<feOffset/>
<feGaussianBlur stdDeviation="5"/>
<feComposite in2="hardAlpha" operator="out"/>
<feColorMatrix type="matrix" values="0 0 0 0 1 0 0 0 0 0.750323 0 0 0 0 0.286637 0 0 0 1 0"/>
<feBlend mode="normal" in2="BackgroundImageFix" result="effect1_dropShadow_33375_2922"/>
<feBlend mode="normal" in="SourceGraphic" in2="effect1_dropShadow_33375_2922" result="shape"/>
</filter>
<filter id="filter14_i_33375_2922" x="-28.1189" y="186" width="482.293" height="630.305" filterUnits="userSpaceOnUse" color-interpolation-filters="sRGB">
<feFlood flood-opacity="0" result="BackgroundImageFix"/>
<feBlend mode="normal" in="SourceGraphic" in2="BackgroundImageFix" result="shape"/>
<feColorMatrix in="SourceAlpha" type="matrix" values="0 0 0 0 0 0 0 0 0 0 0 0 0 0 0 0 0 0 127 0" result="hardAlpha"/>
<feOffset dy="4"/>
<feComposite in2="hardAlpha" operator="arithmetic" k2="-1" k3="1"/>
<feColorMatrix type="matrix" values="0 0 0 0 0.118524 0 0 0 0 0.111159 0 0 0 0 0.247408 0 0 0 1 0"/>
<feBlend mode="normal" in2="shape" result="effect1_innerShadow_33375_2922"/>
</filter>
<filter id="filter15_d_33375_2922" x="115.426" y="276.012" width="52.1703" height="31.4766" filterUnits="userSpaceOnUse" color-interpolation-filters="sRGB">
<feFlood flood-opacity="0" result="BackgroundImageFix"/>
<feColorMatrix in="SourceAlpha" type="matrix" values="0 0 0 0 0 0 0 0 0 0 0 0 0 0 0 0 0 0 127 0" result="hardAlpha"/>
<feOffset/>
<feGaussianBlur stdDeviation="5"/>
<feComposite in2="hardAlpha" operator="out"/>
<feColorMatrix type="matrix" values="0 0 0 0 0.647059 0 0 0 0 1 0 0 0 0 0.992157 0 0 0 1 0"/>
<feBlend mode="normal" in2="BackgroundImageFix" result="effect1_dropShadow_33375_2922"/>
<feBlend mode="normal" in="SourceGraphic" in2="effect1_dropShadow_33375_2922" result="shape"/>
</filter>
<filter id="filter16_d_33375_2922" x="45.4127" y="247.01" width="49.1617" height="33.478" filterUnits="userSpaceOnUse" color-interpolation-filters="sRGB">
<feFlood flood-opacity="0" result="BackgroundImageFix"/>
<feColorMatrix in="SourceAlpha" type="matrix" values="0 0 0 0 0 0 0 0 0 0 0 0 0 0 0 0 0 0 127 0" result="hardAlpha"/>
<feOffset/>
<feGaussianBlur stdDeviation="5"/>
<feComposite in2="hardAlpha" operator="out"/>
<feColorMatrix type="matrix" values="0 0 0 0 0.647059 0 0 0 0 1 0 0 0 0 0.992157 0 0 0 1 0"/>
<feBlend mode="normal" in2="BackgroundImageFix" result="effect1_dropShadow_33375_2922"/>
<feBlend mode="normal" in="SourceGraphic" in2="effect1_dropShadow_33375_2922" result="shape"/>
</filter>
<filter id="filter17_d_33375_2922" x="178.404" y="298.012" width="52.1703" height="31.4766" filterUnits="userSpaceOnUse" color-interpolation-filters="sRGB">
<feFlood flood-opacity="0" result="BackgroundImageFix"/>
<feColorMatrix in="SourceAlpha" type="matrix" values="0 0 0 0 0 0 0 0 0 0 0 0 0 0 0 0 0 0 127 0" result="hardAlpha"/>
<feOffset/>
<feGaussianBlur stdDeviation="5"/>
<feComposite in2="hardAlpha" operator="out"/>
<feColorMatrix type="matrix" values="0 0 0 0 0.647059 0 0 0 0 1 0 0 0 0 0.992157 0 0 0 1 0"/>
<feBlend mode="normal" in2="BackgroundImageFix" result="effect1_dropShadow_33375_2922"/>
<feBlend mode="normal" in="SourceGraphic" in2="effect1_dropShadow_33375_2922" result="shape"/>
</filter>
<filter id="filter18_d_33375_2922" x="122.404" y="522.012" width="52.1703" height="31.4766" filterUnits="userSpaceOnUse" color-interpolation-filters="sRGB">
<feFlood flood-opacity="0" result="BackgroundImageFix"/>
<feColorMatrix in="SourceAlpha" type="matrix" values="0 0 0 0 0 0 0 0 0 0 0 0 0 0 0 0 0 0 127 0" result="hardAlpha"/>
<feOffset/>
<feGaussianBlur stdDeviation="5"/>
<feComposite in2="hardAlpha" operator="out"/>
<feColorMatrix type="matrix" values="0 0 0 0 0.647059 0 0 0 0 1 0 0 0 0 0.992157 0 0 0 1 0"/>
<feBlend mode="normal" in2="BackgroundImageFix" result="effect1_dropShadow_33375_2922"/>
<feBlend mode="normal" in="SourceGraphic" in2="effect1_dropShadow_33375_2922" result="shape"/>
</filter>
<filter id="filter19_d_33375_2922" x="189.404" y="714.012" width="52.1703" height="31.4766" filterUnits="userSpaceOnUse" color-interpolation-filters="sRGB">
<feFlood flood-opacity="0" result="BackgroundImageFix"/>
<feColorMatrix in="SourceAlpha" type="matrix" values="0 0 0 0 0 0 0 0 0 0 0 0 0 0 0 0 0 0 127 0" result="hardAlpha"/>
<feOffset/>
<feGaussianBlur stdDeviation="5"/>
<feComposite in2="hardAlpha" operator="out"/>
<feColorMatrix type="matrix" values="0 0 0 0 0.647059 0 0 0 0 1 0 0 0 0 0.992157 0 0 0 1 0"/>
<feBlend mode="normal" in2="BackgroundImageFix" result="effect1_dropShadow_33375_2922"/>
<feBlend mode="normal" in="SourceGraphic" in2="effect1_dropShadow_33375_2922" result="shape"/>
</filter>
<filter id="filter20_d_33375_2922" x="38.4042" y="492.012" width="52.1703" height="31.4766" filterUnits="userSpaceOnUse" color-interpolation-filters="sRGB">
<feFlood flood-opacity="0" result="BackgroundImageFix"/>
<feColorMatrix in="SourceAlpha" type="matrix" values="0 0 0 0 0 0 0 0 0 0 0 0 0 0 0 0 0 0 127 0" result="hardAlpha"/>
<feOffset/>
<feGaussianBlur stdDeviation="5"/>
<feComposite in2="hardAlpha" operator="out"/>
<feColorMatrix type="matrix" values="0 0 0 0 0.647059 0 0 0 0 1 0 0 0 0 0.992157 0 0 0 1 0"/>
<feBlend mode="normal" in2="BackgroundImageFix" result="effect1_dropShadow_33375_2922"/>
<feBlend mode="normal" in="SourceGraphic" in2="effect1_dropShadow_33375_2922" result="shape"/>
</filter>
<filter id="filter21_d_33375_2922" x="105.404" y="683.012" width="52.1703" height="31.4766" filterUnits="userSpaceOnUse" color-interpolation-filters="sRGB">
<feFlood flood-opacity="0" result="BackgroundImageFix"/>
<feColorMatrix in="SourceAlpha" type="matrix" values="0 0 0 0 0 0 0 0 0 0 0 0 0 0 0 0 0 0 127 0" result="hardAlpha"/>
<feOffset/>
<feGaussianBlur stdDeviation="5"/>
<feComposite in2="hardAlpha" operator="out"/>
<feColorMatrix type="matrix" values="0 0 0 0 0.647059 0 0 0 0 1 0 0 0 0 0.992157 0 0 0 1 0"/>
<feBlend mode="normal" in2="BackgroundImageFix" result="effect1_dropShadow_33375_2922"/>
<feBlend mode="normal" in="SourceGraphic" in2="effect1_dropShadow_33375_2922" result="shape"/>
</filter>
<filter id="filter22_d_33375_2922" x="198.904" y="549.012" width="52.1703" height="31.4766" filterUnits="userSpaceOnUse" color-interpolation-filters="sRGB">
<feFlood flood-opacity="0" result="BackgroundImageFix"/>
<feColorMatrix in="SourceAlpha" type="matrix" values="0 0 0 0 0 0 0 0 0 0 0 0 0 0 0 0 0 0 127 0" result="hardAlpha"/>
<feOffset/>
<feGaussianBlur stdDeviation="5"/>
<feComposite in2="hardAlpha" operator="out"/>
<feColorMatrix type="matrix" values="0 0 0 0 0.647059 0 0 0 0 1 0 0 0 0 0.992157 0 0 0 1 0"/>
<feBlend mode="normal" in2="BackgroundImageFix" result="effect1_dropShadow_33375_2922"/>
<feBlend mode="normal" in="SourceGraphic" in2="effect1_dropShadow_33375_2922" result="shape"/>
</filter>
<filter id="filter23_d_33375_2922" x="273.404" y="745.012" width="52.1703" height="31.4766" filterUnits="userSpaceOnUse" color-interpolation-filters="sRGB">
<feFlood flood-opacity="0" result="BackgroundImageFix"/>
<feColorMatrix in="SourceAlpha" type="matrix" values="0 0 0 0 0 0 0 0 0 0 0 0 0 0 0 0 0 0 127 0" result="hardAlpha"/>
<feOffset/>
<feGaussianBlur stdDeviation="5"/>
<feComposite in2="hardAlpha" operator="out"/>
<feColorMatrix type="matrix" values="0 0 0 0 0.647059 0 0 0 0 1 0 0 0 0 0.992157 0 0 0 1 0"/>
<feBlend mode="normal" in2="BackgroundImageFix" result="effect1_dropShadow_33375_2922"/>
<feBlend mode="normal" in="SourceGraphic" in2="effect1_dropShadow_33375_2922" result="shape"/>
</filter>
<filter id="filter24_d_33375_2922" x="351.404" y="774.012" width="52.1703" height="31.4766" filterUnits="userSpaceOnUse" color-interpolation-filters="sRGB">
<feFlood flood-opacity="0" result="BackgroundImageFix"/>
<feColorMatrix in="SourceAlpha" type="matrix" values="0 0 0 0 0 0 0 0 0 0 0 0 0 0 0 0 0 0 127 0" result="hardAlpha"/>
<feOffset/>
<feGaussianBlur stdDeviation="5"/>
<feComposite in2="hardAlpha" operator="out"/>
<feColorMatrix type="matrix" values="0 0 0 0 0.647059 0 0 0 0 1 0 0 0 0 0.992157 0 0 0 1 0"/>
<feBlend mode="normal" in2="BackgroundImageFix" result="effect1_dropShadow_33375_2922"/>
<feBlend mode="normal" in="SourceGraphic" in2="effect1_dropShadow_33375_2922" result="shape"/>
</filter>
<filter id="filter25_d_33375_2922" x="244.404" y="321.012" width="52.1703" height="31.4766" filterUnits="userSpaceOnUse" color-interpolation-filters="sRGB">
<feFlood flood-opacity="0" result="BackgroundImageFix"/>
<feColorMatrix in="SourceAlpha" type="matrix" values="0 0 0 0 0 0 0 0 0 0 0 0 0 0 0 0 0 0 127 0" result="hardAlpha"/>
<feOffset/>
<feGaussianBlur stdDeviation="5"/>
<feComposite in2="hardAlpha" operator="out"/>
<feColorMatrix type="matrix" values="0 0 0 0 0.647059 0 0 0 0 1 0 0 0 0 0.992157 0 0 0 1 0"/>
<feBlend mode="normal" in2="BackgroundImageFix" result="effect1_dropShadow_33375_2922"/>
<feBlend mode="normal" in="SourceGraphic" in2="effect1_dropShadow_33375_2922" result="shape"/>
</filter>
<filter id="filter26_d_33375_2922" x="307.389" y="345.012" width="45.7183" height="33.9751" filterUnits="userSpaceOnUse" color-interpolation-filters="sRGB">
<feFlood flood-opacity="0" result="BackgroundImageFix"/>
<feColorMatrix in="SourceAlpha" type="matrix" values="0 0 0 0 0 0 0 0 0 0 0 0 0 0 0 0 0 0 127 0" result="hardAlpha"/>
<feOffset/>
<feGaussianBlur stdDeviation="5"/>
<feComposite in2="hardAlpha" operator="out"/>
<feColorMatrix type="matrix" values="0 0 0 0 0.647059 0 0 0 0 1 0 0 0 0 0.992157 0 0 0 1 0"/>
<feBlend mode="normal" in2="BackgroundImageFix" result="effect1_dropShadow_33375_2922"/>
<feBlend mode="normal" in="SourceGraphic" in2="effect1_dropShadow_33375_2922" result="shape"/>
</filter>
<filter id="filter27_d_33375_2922" x="137.931" y="212.011" width="48.6384" height="28.9785" filterUnits="userSpaceOnUse" color-interpolation-filters="sRGB">
<feFlood flood-opacity="0" result="BackgroundImageFix"/>
<feColorMatrix in="SourceAlpha" type="matrix" values="0 0 0 0 0 0 0 0 0 0 0 0 0 0 0 0 0 0 127 0" result="hardAlpha"/>
<feOffset/>
<feGaussianBlur stdDeviation="5"/>
<feComposite in2="hardAlpha" operator="out"/>
<feColorMatrix type="matrix" values="0 0 0 0 0.647059 0 0 0 0 1 0 0 0 0 0.992157 0 0 0 1 0"/>
<feBlend mode="normal" in2="BackgroundImageFix" result="effect1_dropShadow_33375_2922"/>
<feBlend mode="normal" in="SourceGraphic" in2="effect1_dropShadow_33375_2922" result="shape"/>
</filter>
<filter id="filter28_d_33375_2922" x="89.9308" y="227.011" width="48.6384" height="28.9785" filterUnits="userSpaceOnUse" color-interpolation-filters="sRGB">
<feFlood flood-opacity="0" result="BackgroundImageFix"/>
<feColorMatrix in="SourceAlpha" type="matrix" values="0 0 0 0 0 0 0 0 0 0 0 0 0 0 0 0 0 0 127 0" result="hardAlpha"/>
<feOffset/>
<feGaussianBlur stdDeviation="5"/>
<feComposite in2="hardAlpha" operator="out"/>
<feColorMatrix type="matrix" values="0 0 0 0 0.647059 0 0 0 0 1 0 0 0 0 0.992157 0 0 0 1 0"/>
<feBlend mode="normal" in2="BackgroundImageFix" result="effect1_dropShadow_33375_2922"/>
<feBlend mode="normal" in="SourceGraphic" in2="effect1_dropShadow_33375_2922" result="shape"/>
</filter>
<filter id="filter29_d_33375_2922" x="181.405" y="393.012" width="59.1904" height="34.4766" filterUnits="userSpaceOnUse" color-interpolation-filters="sRGB">
<feFlood flood-opacity="0" result="BackgroundImageFix"/>
<feColorMatrix in="SourceAlpha" type="matrix" values="0 0 0 0 0 0 0 0 0 0 0 0 0 0 0 0 0 0 127 0" result="hardAlpha"/>
<feOffset/>
<feGaussianBlur stdDeviation="5"/>
<feComposite in2="hardAlpha" operator="out"/>
<feColorMatrix type="matrix" values="0 0 0 0 0.647059 0 0 0 0 1 0 0 0 0 0.992157 0 0 0 1 0"/>
<feBlend mode="normal" in2="BackgroundImageFix" result="effect1_dropShadow_33375_2922"/>
<feBlend mode="normal" in="SourceGraphic" in2="effect1_dropShadow_33375_2922" result="shape"/>
</filter>
<filter id="filter30_d_33375_2922" x="237.905" y="589.012" width="59.1904" height="34.4766" filterUnits="userSpaceOnUse" color-interpolation-filters="sRGB">
<feFlood flood-opacity="0" result="BackgroundImageFix"/>
<feColorMatrix in="SourceAlpha" type="matrix" values="0 0 0 0 0 0 0 0 0 0 0 0 0 0 0 0 0 0 127 0" result="hardAlpha"/>
<feOffset/>
<feGaussianBlur stdDeviation="5"/>
<feComposite in2="hardAlpha" operator="out"/>
<feColorMatrix type="matrix" values="0 0 0 0 0.647059 0 0 0 0 1 0 0 0 0 0.992157 0 0 0 1 0"/>
<feBlend mode="normal" in2="BackgroundImageFix" result="effect1_dropShadow_33375_2922"/>
<feBlend mode="normal" in="SourceGraphic" in2="effect1_dropShadow_33375_2922" result="shape"/>
</filter>
<filter id="filter31_d_33375_2922" x="165.905" y="616.012" width="59.1904" height="34.4766" filterUnits="userSpaceOnUse" color-interpolation-filters="sRGB">
<feFlood flood-opacity="0" result="BackgroundImageFix"/>
<feColorMatrix in="SourceAlpha" type="matrix" values="0 0 0 0 0 0 0 0 0 0 0 0 0 0 0 0 0 0 127 0" result="hardAlpha"/>
<feOffset/>
<feGaussianBlur stdDeviation="5"/>
<feComposite in2="hardAlpha" operator="out"/>
<feColorMatrix type="matrix" values="0 0 0 0 0.647059 0 0 0 0 1 0 0 0 0 0.992157 0 0 0 1 0"/>
<feBlend mode="normal" in2="BackgroundImageFix" result="effect1_dropShadow_33375_2922"/>
<feBlend mode="normal" in="SourceGraphic" in2="effect1_dropShadow_33375_2922" result="shape"/>
</filter>
<filter id="filter32_d_33375_2922" x="95.9048" y="644.012" width="59.1904" height="34.4766" filterUnits="userSpaceOnUse" color-interpolation-filters="sRGB">
<feFlood flood-opacity="0" result="BackgroundImageFix"/>
<feColorMatrix in="SourceAlpha" type="matrix" values="0 0 0 0 0 0 0 0 0 0 0 0 0 0 0 0 0 0 127 0" result="hardAlpha"/>
<feOffset/>
<feGaussianBlur stdDeviation="5"/>
<feComposite in2="hardAlpha" operator="out"/>
<feColorMatrix type="matrix" values="0 0 0 0 0.647059 0 0 0 0 1 0 0 0 0 0.992157 0 0 0 1 0"/>
<feBlend mode="normal" in2="BackgroundImageFix" result="effect1_dropShadow_33375_2922"/>
<feBlend mode="normal" in="SourceGraphic" in2="effect1_dropShadow_33375_2922" result="shape"/>
</filter>
<filter id="filter33_d_33375_2922" x="105.405" y="420.012" width="59.1904" height="34.4766" filterUnits="userSpaceOnUse" color-interpolation-filters="sRGB">
<feFlood flood-opacity="0" result="BackgroundImageFix"/>
<feColorMatrix in="SourceAlpha" type="matrix" values="0 0 0 0 0 0 0 0 0 0 0 0 0 0 0 0 0 0 127 0" result="hardAlpha"/>
<feOffset/>
<feGaussianBlur stdDeviation="5"/>
<feComposite in2="hardAlpha" operator="out"/>
<feColorMatrix type="matrix" values="0 0 0 0 0.647059 0 0 0 0 1 0 0 0 0 0.992157 0 0 0 1 0"/>
<feBlend mode="normal" in2="BackgroundImageFix" result="effect1_dropShadow_33375_2922"/>
<feBlend mode="normal" in="SourceGraphic" in2="effect1_dropShadow_33375_2922" result="shape"/>
</filter>
<filter id="filter34_d_33375_2922" x="20.4048" y="451.012" width="59.1904" height="34.4766" filterUnits="userSpaceOnUse" color-interpolation-filters="sRGB">
<feFlood flood-opacity="0" result="BackgroundImageFix"/>
<feColorMatrix in="SourceAlpha" type="matrix" values="0 0 0 0 0 0 0 0 0 0 0 0 0 0 0 0 0 0 127 0" result="hardAlpha"/>
<feOffset/>
<feGaussianBlur stdDeviation="5"/>
<feComposite in2="hardAlpha" operator="out"/>
<feColorMatrix type="matrix" values="0 0 0 0 0.647059 0 0 0 0 1 0 0 0 0 0.992157 0 0 0 1 0"/>
<feBlend mode="normal" in2="BackgroundImageFix" result="effect1_dropShadow_33375_2922"/>
<feBlend mode="normal" in="SourceGraphic" in2="effect1_dropShadow_33375_2922" result="shape"/>
</filter>
<filter id="filter35_d_33375_2922" x="253.405" y="367.012" width="59.1904" height="34.4766" filterUnits="userSpaceOnUse" color-interpolation-filters="sRGB">
<feFlood flood-opacity="0" result="BackgroundImageFix"/>
<feColorMatrix in="SourceAlpha" type="matrix" values="0 0 0 0 0 0 0 0 0 0 0 0 0 0 0 0 0 0 127 0" result="hardAlpha"/>
<feOffset/>
<feGaussianBlur stdDeviation="5"/>
<feComposite in2="hardAlpha" operator="out"/>
<feColorMatrix type="matrix" values="0 0 0 0 0.647059 0 0 0 0 1 0 0 0 0 0.992157 0 0 0 1 0"/>
<feBlend mode="normal" in2="BackgroundImageFix" result="effect1_dropShadow_33375_2922"/>
<feBlend mode="normal" in="SourceGraphic" in2="effect1_dropShadow_33375_2922" result="shape"/>
</filter>
<filter id="filter36_d_33375_2922" x="136.004" y="186.008" width="38.4912" height="26.7534" filterUnits="userSpaceOnUse" color-interpolation-filters="sRGB">
<feFlood flood-opacity="0" result="BackgroundImageFix"/>
<feColorMatrix in="SourceAlpha" type="matrix" values="0 0 0 0 0 0 0 0 0 0 0 0 0 0 0 0 0 0 127 0" result="hardAlpha"/>
<feOffset/>
<feGaussianBlur stdDeviation="5"/>
<feComposite in2="hardAlpha" operator="out"/>
<feColorMatrix type="matrix" values="0 0 0 0 0.647059 0 0 0 0 1 0 0 0 0 0.992157 0 0 0 1 0"/>
<feBlend mode="normal" in2="BackgroundImageFix" result="effect1_dropShadow_33375_2922"/>
<feBlend mode="normal" in="SourceGraphic" in2="effect1_dropShadow_33375_2922" result="shape"/>
</filter>
<clipPath id="clip0_33375_2922">
<rect width="390" height="830" fill="white"/>
</clipPath>
</defs>
</svg>
