<svg width="390" height="278" viewBox="0 0 390 278" fill="none" xmlns="http://www.w3.org/2000/svg">
<g clip-path="url(#clip0_33375_2834)">
<rect width="390" height="278" fill="white"/>
<rect x="-165" width="714.497" height="300" fill="url(#paint0_linear_33375_2834)"/>
<path d="M281.446 63.4671C276.673 43.9813 294.832 26.6606 314.071 32.3486L415.778 62.4185C424.649 65.0413 431.459 72.1806 433.66 81.1662L452.844 159.489C457.616 178.975 439.457 196.295 420.218 190.607L318.511 160.537C309.64 157.914 302.83 150.775 300.629 141.79L281.446 63.4671Z" fill="#1D2347" stroke="black"/>
<path d="M461.105 138.158L447.298 80.8149C443.953 66.9205 433.449 55.8666 419.743 51.8175L312.875 20.2459C286.186 12.3611 261.025 36.4477 267.739 63.4555L286.828 140.246C290.251 154.017 300.714 164.944 314.323 168.961L403.931 195.409C437.887 205.431 469.962 174.943 461.675 140.522L461.105 138.158ZM461.105 138.158L480.319 143.542M528.54 157.055L480.319 143.542M480.319 143.542L492.019 194.678C496.83 215.706 477.305 234.178 456.576 228.209V228.209C451.217 226.667 446.191 231.489 447.511 236.906L448.85 242.405L453.152 260.064M453.152 260.064L415.12 247.421M453.152 260.064L532.164 284.74M234.693 40.5495L267.965 162.476C269.951 169.754 275.432 175.565 282.582 177.972L302.019 183.758C305.274 184.854 307.779 187.484 308.715 190.788L315.369 214.261L341.769 222.891M341.769 222.891L339.757 212.587C338.31 205.176 345.285 198.897 352.504 201.111L402.089 216.319C405.404 217.336 407.956 219.997 408.832 223.352L415.12 247.421M341.769 222.891L415.12 247.421" stroke="#313B58"/>
<path d="M380.482 209.805L365.767 205.277L366.802 206.726C367.597 207.839 368.749 208.647 370.066 209.016L377.293 211.04C378.513 211.381 379.811 210.878 380.482 209.805Z" fill="#2B2B54" stroke="#313B58"/>
<path d="M286.586 60.487C282.915 45.4979 296.883 32.1743 311.682 36.5494L414.298 66.8865C421.122 68.904 426.36 74.3958 428.053 81.3077L447.933 162.467C451.604 177.456 437.636 190.78 422.837 186.405L320.221 156.068C313.397 154.05 308.159 148.558 306.466 141.646L286.586 60.487Z" fill="#242381" stroke="black"/>
<path fill-rule="evenodd" clip-rule="evenodd" d="M312.999 41.0006C308.51 47.6082 306.582 56.0667 308.748 64.9119L323.121 123.587C325.66 133.955 333.518 142.193 343.754 145.219L424.171 168.993C429.482 170.563 434.721 170.614 439.543 169.475C444.032 162.867 445.96 154.408 443.794 145.563L429.422 86.8879C426.882 76.52 419.025 68.2824 408.788 65.2561L328.371 41.4818C323.061 39.9118 317.821 39.8612 312.999 41.0006Z" fill="#141476"/>
<path d="M308.748 64.9119L309.234 64.7929L308.748 64.9119ZM312.999 41.0006L312.884 40.514L312.695 40.5587L312.585 40.7197L312.999 41.0006ZM323.121 123.587L322.635 123.706L323.121 123.587ZM343.754 145.219L343.896 144.74L343.754 145.219ZM424.171 168.993L424.029 169.473L424.171 168.993ZM439.543 169.475L439.658 169.961L439.848 169.916L439.957 169.756L439.543 169.475ZM443.794 145.563L444.28 145.444L443.794 145.563ZM429.422 86.8879L428.936 87.0068L429.422 86.8879ZM408.788 65.2561L408.93 64.7766L408.788 65.2561ZM328.371 41.4818L328.229 41.9613L328.371 41.4818ZM309.234 64.7929C307.103 56.0925 308.999 47.7784 313.412 41.2816L312.585 40.7197C308.022 47.438 306.061 56.0409 308.263 65.0308L309.234 64.7929ZM323.606 123.468L309.234 64.7929L308.263 65.0308L322.635 123.706L323.606 123.468ZM343.896 144.74C333.83 141.764 326.103 133.663 323.606 123.468L322.635 123.706C325.217 134.247 333.205 142.622 343.612 145.699L343.896 144.74ZM424.313 168.514L343.896 144.74L343.612 145.699L424.029 169.473L424.313 168.514ZM439.428 168.988C434.689 170.108 429.539 170.059 424.313 168.514L424.029 169.473C429.425 171.068 434.752 171.12 439.658 169.961L439.428 168.988ZM443.308 145.682C445.439 154.383 443.543 162.697 439.13 169.194L439.957 169.756C444.521 163.037 446.482 154.434 444.28 145.444L443.308 145.682ZM428.936 87.0068L443.308 145.682L444.28 145.444L429.907 86.7689L428.936 87.0068ZM408.647 65.7356C418.712 68.7114 426.439 76.8117 428.936 87.0068L429.907 86.7689C427.325 76.2282 419.337 67.8533 408.93 64.7766L408.647 65.7356ZM328.229 41.9613L408.647 65.7356L408.93 64.7766L328.513 41.0023L328.229 41.9613ZM313.114 41.4872C317.853 40.3675 323.004 40.4163 328.229 41.9613L328.513 41.0023C323.118 39.4072 317.79 39.3548 312.884 40.514L313.114 41.4872Z" fill="black"/>
<ellipse cx="15.6859" cy="96.2223" rx="76.6318" ry="81.9137" transform="rotate(11.5585 15.6859 96.2223)" fill="#2F325F" stroke="black"/>
<ellipse cx="18.3304" cy="96.0474" rx="75.0992" ry="80.3551" transform="rotate(11.5585 18.3304 96.0474)" fill="#1D2347" stroke="black"/>
<ellipse cx="21.2399" cy="100.177" rx="62.8381" ry="67.1935" transform="rotate(11.5585 21.2399 100.177)" fill="#D9D9D9" stroke="black"/>
<ellipse cx="21.2399" cy="100.177" rx="62.8381" ry="67.1935" transform="rotate(11.5585 21.2399 100.177)" fill="#242381" stroke="black"/>
<path fill-rule="evenodd" clip-rule="evenodd" d="M-7.85202 159.01C26.1487 165.964 59.7395 142.127 67.1752 105.77C73.0238 77.1723 60.9484 49.3461 38.9813 35.3869C37.5789 34.9904 36.1525 34.6429 34.7035 34.3466C0.702809 27.3929 -32.888 51.2293 -40.3236 87.5867C-46.1723 116.184 -34.0969 144.01 -12.1298 157.97C-10.7273 158.366 -9.301 158.714 -7.85202 159.01Z" fill="#141476"/>
<path d="M38.9813 35.3869L39.2494 34.9649L39.1877 34.9257L39.1173 34.9058L38.9813 35.3869ZM-12.1298 157.97L-12.3979 158.392L-12.3362 158.431L-12.2658 158.451L-12.1298 157.97ZM66.6853 105.67C59.2986 141.788 25.948 165.412 -7.75183 158.52L-7.9522 159.5C26.3495 166.515 60.1805 142.466 67.665 105.87L66.6853 105.67ZM38.7131 35.8089C60.4968 49.6516 72.4944 77.2654 66.6853 105.67L67.665 105.87C73.5532 77.0792 61.4 49.0407 39.2494 34.9649L38.7131 35.8089ZM34.6034 34.8364C36.0403 35.1303 37.4546 35.4749 38.8452 35.8681L39.1173 34.9058C37.7031 34.5059 36.2648 34.1555 34.8037 33.8567L34.6034 34.8364ZM-39.8338 87.6869C-32.447 51.5686 0.903571 27.9443 34.6034 34.8364L34.8037 33.8567C0.502048 26.8415 -33.329 50.89 -40.8135 87.4865L-39.8338 87.6869ZM-11.8616 157.548C-33.6453 143.705 -45.6429 116.091 -39.8338 87.6869L-40.8135 87.4865C-46.7017 116.277 -34.5485 144.316 -12.3979 158.392L-11.8616 157.548ZM-7.75183 158.52C-9.18875 158.226 -10.6031 157.882 -11.9937 157.488L-12.2658 158.451C-10.8516 158.851 -9.41326 159.201 -7.9522 159.5L-7.75183 158.52Z" fill="black"/>
<circle cx="1.01322" cy="1.01322" r="1.01322" transform="matrix(-1 0 0 1 384.567 105.439)" fill="#A5FFFD" fill-opacity="0.5"/>
<circle cx="1.01322" cy="1.01322" r="1.01322" transform="matrix(-1 0 0 1 347.281 76.6646)" fill="#A5FFFD" fill-opacity="0.2"/>
<circle cx="0.405452" cy="0.405452" r="0.405452" transform="matrix(-1 0 0 1 365.924 96.9297)" fill="#A5FFFD" fill-opacity="0.2"/>
<circle cx="0.405452" cy="0.405452" r="0.405452" transform="matrix(-1 0 0 1 358.224 74.6382)" fill="#A5FFFD" fill-opacity="0.5"/>
<circle cx="0.405452" cy="0.405452" r="0.405452" transform="matrix(-1 0 0 1 325.801 61.2637)" fill="#A5FFFD" fill-opacity="0.2"/>
<circle cx="0.405452" cy="0.405452" r="0.405452" transform="matrix(-1 0 0 1 332.691 67.749)" fill="#A5FFFD" fill-opacity="0.2"/>
<circle cx="0.405452" cy="0.405452" r="0.405452" transform="matrix(-1 0 0 1 326.206 82.7441)" fill="#A5FFFD" fill-opacity="0.2"/>
<circle cx="0.405452" cy="0.405452" r="0.405452" transform="matrix(-1 0 0 1 371.193 92.8765)" fill="#A5FFFD" fill-opacity="0.2"/>
<circle cx="0.405452" cy="0.405452" r="0.405452" transform="matrix(-1 0 0 1 367.95 125.705)" fill="#A5FFFD" fill-opacity="0.5"/>
<circle cx="0.405452" cy="0.405452" r="0.405452" transform="matrix(-1 0 0 1 382.541 137.864)" fill="#A5FFFD" fill-opacity="0.2"/>
<circle cx="0.405452" cy="0.405452" r="0.405452" transform="matrix(-1 0 0 1 345.255 139.484)" fill="#A5FFFD" fill-opacity="0.2"/>
<circle cx="1.01322" cy="1.01322" r="1.01322" transform="matrix(-1 0 0 1 339.986 111.519)" fill="#A5FFFD" fill-opacity="0.2"/>
<circle cx="1.01322" cy="1.01322" r="1.01322" transform="matrix(-1 0 0 1 378.083 149.617)" fill="#A5FFFD" fill-opacity="0.2"/>
<circle cx="1.01322" cy="1.01322" r="1.01322" transform="matrix(-1 0 0 1 369.977 140.702)" fill="#A5FFFD" fill-opacity="0.2"/>
<circle cx="5.30429" cy="90.8675" r="1.0892" fill="#A5FFFD" fill-opacity="0.5"/>
<circle cx="45.3873" cy="59.9325" r="1.0892" fill="#A5FFFD" fill-opacity="0.2"/>
<circle cx="24.6924" cy="81.0648" r="0.435857" fill="#A5FFFD" fill-opacity="0.2"/>
<circle cx="32.9702" cy="57.1019" r="0.435857" fill="#A5FFFD" fill-opacity="0.5"/>
<circle cx="19.029" cy="76.7083" r="0.435857" fill="#A5FFFD" fill-opacity="0.2"/>
<circle cx="22.5142" cy="111.998" r="0.435857" fill="#A5FFFD" fill-opacity="0.5"/>
<circle cx="6.82917" cy="125.069" r="0.435857" fill="#A5FFFD" fill-opacity="0.2"/>
<circle cx="46.9122" cy="126.811" r="0.435857" fill="#A5FFFD" fill-opacity="0.2"/>
<circle cx="53.2298" cy="97.4012" r="1.0892" fill="#A5FFFD" fill-opacity="0.2"/>
<circle cx="12.2757" cy="138.356" r="1.0892" fill="#A5FFFD" fill-opacity="0.2"/>
<circle cx="20.9885" cy="128.771" r="1.0892" fill="#A5FFFD" fill-opacity="0.2"/>
<path d="M320.219 198.544C320.006 197.728 320.773 196.996 321.578 197.247C321.933 197.357 322.205 197.643 322.299 198.002L325.557 210.494C325.77 211.31 325.003 212.042 324.198 211.791C323.843 211.681 323.571 211.395 323.477 211.036L320.219 198.544Z" fill="#2B2B54"/>
<path d="M325.652 200.808C325.44 199.992 326.207 199.26 327.012 199.51C327.366 199.621 327.639 199.906 327.733 200.266L330.991 212.757C331.203 213.573 330.436 214.305 329.631 214.055C329.277 213.944 329.004 213.659 328.91 213.3L325.652 200.808Z" fill="#2B2B54"/>
<path d="M120.659 135.343L119.186 135.785C116.342 136.638 114.024 138.711 112.86 141.442L108.021 152.795C106.014 157.503 110.445 162.401 115.33 160.874L121.373 158.986C123.408 158.35 124.953 156.682 125.431 154.605L128.231 142.435C129.263 137.949 125.068 134.02 120.659 135.343Z" fill="url(#paint1_linear_33375_2834)"/>
<path d="M113.902 167.367L102.144 170.564C100.888 170.905 99.7768 171.646 98.9785 172.674L98.1075 173.796C94.4097 178.558 99.2585 185.188 104.917 183.107L117.454 178.497C119.27 177.829 120.638 176.305 121.108 174.427C122.191 170.094 118.212 166.196 113.902 167.367Z" fill="url(#paint2_linear_33375_2834)"/>
<path d="M120.659 135.343L119.186 135.785C116.342 136.638 114.024 138.711 112.86 141.442L108.021 152.795C106.014 157.503 110.445 162.401 115.33 160.874L121.373 158.986C123.408 158.35 124.953 156.682 125.431 154.605L128.231 142.435C129.263 137.949 125.068 134.02 120.659 135.343Z" stroke="#313B58"/>
<path d="M113.902 167.367L102.144 170.564C100.888 170.905 99.7768 171.646 98.9785 172.674L98.1075 173.796C94.4097 178.558 99.2585 185.188 104.917 183.107L117.454 178.497C119.27 177.829 120.638 176.305 121.108 174.427C122.191 170.094 118.212 166.196 113.902 167.367Z" stroke="#313B58"/>
<g filter="url(#filter0_d_33375_2834)">
<ellipse cx="1.84004" cy="1.68215" rx="1.84004" ry="1.68215" transform="matrix(0.690382 -0.723445 0.579283 0.815126 74.1742 192.09)" fill="#78FEFF"/>
</g>
<g filter="url(#filter1_d_33375_2834)">
<ellipse cx="1.84004" cy="1.68215" rx="1.84004" ry="1.68215" transform="matrix(0.690382 -0.723445 0.579283 0.815126 81.4186 189.373)" fill="#78FEFF"/>
</g>
<g filter="url(#filter2_d_33375_2834)">
<ellipse cx="1.84004" cy="1.68215" rx="1.84004" ry="1.68215" transform="matrix(0.690382 -0.723445 0.579283 0.815126 66.9297 194.806)" fill="#FFC966"/>
</g>
<path d="M90.7005 47.9336C90.7005 47.9336 100.888 66.2713 100.888 100.23M100.888 100.23C96.9071 151.621 61.2695 186.259 16.2175 196.899M100.888 100.23L158.553 86.873M100.888 100.23C100.888 100.23 96.3603 102.132 93.6436 102.494M16.2175 196.899C-37.211 201.654 -78.1727 161.356 -81.87 115.625M16.2175 196.899L9.42577 230.965M16.2175 196.899C26.1788 194.106 30.933 186.259 33.1969 174.939M-81.87 115.625C-85.6588 68.7617 -68.4531 47.9336 -68.4531 47.9336M-81.87 115.625C-74.792 116.983 -65.7364 116.983 -58.9446 113.814M-81.87 115.625L-126.636 126.492M310.074 195.768C293.595 190.208 279.496 186.216 267.012 183.333C263.831 182.598 261.255 180.253 260.29 177.134V177.134C259.424 174.338 257.266 172.116 254.452 171.308C219.769 161.355 175.005 163.91 143.564 173.122C139.96 174.178 137.313 177.193 136.536 180.867V180.867C135.768 184.497 133.164 187.463 129.664 188.693L9.42577 230.965M-127.994 279.08L9.42577 230.965M158.553 86.873L165.286 55.8148C166.283 51.2153 170.352 47.9336 175.059 47.9336L195 47.9336M158.553 86.873L142.276 154.608C141.524 157.739 144.609 160.486 147.666 159.473C153.283 157.612 161.25 155.235 168 154.221M168 154.221L172.43 137.425C173.393 133.775 176.327 130.964 180.048 130.327C185.323 129.425 192.08 128.5 197 128.5C201.962 128.5 208.951 129.441 214.398 130.35C218.147 130.976 221.113 133.797 222.083 137.472L226.5 154.221M168 154.221C185.529 151.587 208.868 152.505 226.5 154.221M226.5 154.221C228.058 154.372 237.995 155.5 239.5 155.687M195 47.9336L217.801 47.9336C222.294 47.9336 226.235 50.9303 227.437 55.2598L254.956 154.435C255.605 156.776 253.333 158.929 251 158.248C247.662 157.272 243.321 156.162 239.5 155.687M195 47.9336L191.232 86.6139C191.111 87.8562 192.14 88.9235 193.387 88.9053C200.771 88.7975 217.486 89.6212 222.531 89.8813C223.412 89.9267 224.137 90.5217 224.345 91.3789C226.103 98.616 234.178 131.967 239.5 155.687M111.294 130.857L132.548 125.06C135.448 124.27 138.151 126.84 137.508 129.776L126.94 178.002C126.648 179.338 125.693 180.431 124.409 180.902L66.8358 201.999C63.952 203.056 61.0025 200.603 61.5158 197.575L62.2519 193.232C62.4853 191.854 63.4202 190.712 64.6914 190.132C80.5206 182.915 100.229 163.499 108.441 133.737C108.825 132.345 109.9 131.237 111.294 130.857Z" stroke="#313B58"/>
<path d="M197 119C192.092 119 184.985 119.931 181.648 120.814C181.259 120.917 181 121.273 181 121.675C181 122.317 181.643 122.775 182.264 122.615C185.426 121.796 191.488 121 197 121C202.691 121 208.223 121.849 211.793 122.694C212.404 122.839 213 122.381 213 121.753C213 121.311 212.698 120.927 212.267 120.831C208.277 119.943 201.94 119 197 119Z" fill="url(#paint3_linear_33375_2834)" stroke="#313B58"/>
<path d="M197 113C192.131 113 185.85 114.162 182.637 115.266C182.249 115.399 182 115.77 182 116.18V116.425C182 117.158 182.771 117.661 183.466 117.432C186.472 116.44 191.683 115.5 197 115.5C202.561 115.5 207.288 116.528 210.67 117.569C211.326 117.77 212 117.287 212 116.602V116.244C212 115.802 211.711 115.412 211.287 115.29C207.42 114.18 201.906 113 197 113Z" fill="url(#paint4_linear_33375_2834)" stroke="#313B58"/>
<path d="M197 108C192.182 108 186.729 108.926 183.641 109.807C183.257 109.917 183 110.271 183 110.671C183 111.313 183.644 111.764 184.261 111.584C187.029 110.776 191.642 110 197 110C202.559 110 206.591 110.836 209.793 111.675C210.402 111.834 211 111.378 211 110.749C211 110.31 210.699 109.927 210.271 109.825C206.534 108.939 201.852 108 197 108Z" fill="url(#paint5_linear_33375_2834)" stroke="#313B58"/>
<path d="M103.66 106.83C104.331 102.479 104.431 99.0273 104.247 95.2526C104.164 93.5561 102.808 92.2104 101.114 92.0801C101.567 97.7399 100.888 104.758 100.209 109.965C101.947 109.831 103.394 108.553 103.66 106.83Z" fill="#0E0F29" stroke="black"/>
</g>
<defs>
<filter id="filter0_d_33375_2834" x="64.8179" y="180.219" width="23.2021" height="23.8223" filterUnits="userSpaceOnUse" color-interpolation-filters="sRGB">
<feFlood flood-opacity="0" result="BackgroundImageFix"/>
<feColorMatrix in="SourceAlpha" type="matrix" values="0 0 0 0 0 0 0 0 0 0 0 0 0 0 0 0 0 0 127 0" result="hardAlpha"/>
<feOffset/>
<feGaussianBlur stdDeviation="5"/>
<feComposite in2="hardAlpha" operator="out"/>
<feColorMatrix type="matrix" values="0 0 0 0 0.647059 0 0 0 0 1 0 0 0 0 0.992157 0 0 0 1 0"/>
<feBlend mode="normal" in2="BackgroundImageFix" result="effect1_dropShadow_33375_2834"/>
<feBlend mode="normal" in="SourceGraphic" in2="effect1_dropShadow_33375_2834" result="shape"/>
</filter>
<filter id="filter1_d_33375_2834" x="72.0623" y="177.502" width="23.2021" height="23.8223" filterUnits="userSpaceOnUse" color-interpolation-filters="sRGB">
<feFlood flood-opacity="0" result="BackgroundImageFix"/>
<feColorMatrix in="SourceAlpha" type="matrix" values="0 0 0 0 0 0 0 0 0 0 0 0 0 0 0 0 0 0 127 0" result="hardAlpha"/>
<feOffset/>
<feGaussianBlur stdDeviation="5"/>
<feComposite in2="hardAlpha" operator="out"/>
<feColorMatrix type="matrix" values="0 0 0 0 0.647059 0 0 0 0 1 0 0 0 0 0.992157 0 0 0 1 0"/>
<feBlend mode="normal" in2="BackgroundImageFix" result="effect1_dropShadow_33375_2834"/>
<feBlend mode="normal" in="SourceGraphic" in2="effect1_dropShadow_33375_2834" result="shape"/>
</filter>
<filter id="filter2_d_33375_2834" x="57.5734" y="182.935" width="23.2021" height="23.8223" filterUnits="userSpaceOnUse" color-interpolation-filters="sRGB">
<feFlood flood-opacity="0" result="BackgroundImageFix"/>
<feColorMatrix in="SourceAlpha" type="matrix" values="0 0 0 0 0 0 0 0 0 0 0 0 0 0 0 0 0 0 127 0" result="hardAlpha"/>
<feOffset/>
<feGaussianBlur stdDeviation="5"/>
<feComposite in2="hardAlpha" operator="out"/>
<feColorMatrix type="matrix" values="0 0 0 0 1 0 0 0 0 0.788235 0 0 0 0 0.4 0 0 0 1 0"/>
<feBlend mode="normal" in2="BackgroundImageFix" result="effect1_dropShadow_33375_2834"/>
<feBlend mode="normal" in="SourceGraphic" in2="effect1_dropShadow_33375_2834" result="shape"/>
</filter>
<linearGradient id="paint0_linear_33375_2834" x1="192.249" y1="0" x2="192.249" y2="300" gradientUnits="userSpaceOnUse">
<stop stop-color="#212240"/>
<stop offset="1" stop-color="#0E0F29"/>
</linearGradient>
<linearGradient id="paint1_linear_33375_2834" x1="107.906" y1="132.377" x2="107.906" y2="190.333" gradientUnits="userSpaceOnUse">
<stop stop-color="#2F304E"/>
<stop offset="1" stop-color="#232542"/>
</linearGradient>
<linearGradient id="paint2_linear_33375_2834" x1="107.906" y1="132.377" x2="107.906" y2="190.333" gradientUnits="userSpaceOnUse">
<stop stop-color="#2F304E"/>
<stop offset="1" stop-color="#232542"/>
</linearGradient>
<linearGradient id="paint3_linear_33375_2834" x1="197.889" y1="118.2" x2="197.889" y2="124.6" gradientUnits="userSpaceOnUse">
<stop stop-color="#2F304E"/>
<stop offset="1" stop-color="#232542"/>
</linearGradient>
<linearGradient id="paint4_linear_33375_2834" x1="197.882" y1="112" x2="197.882" y2="120" gradientUnits="userSpaceOnUse">
<stop stop-color="#2F304E"/>
<stop offset="1" stop-color="#232542"/>
</linearGradient>
<linearGradient id="paint5_linear_33375_2834" x1="197.875" y1="107.2" x2="197.875" y2="113.6" gradientUnits="userSpaceOnUse">
<stop stop-color="#2F304E"/>
<stop offset="1" stop-color="#232542"/>
</linearGradient>
<clipPath id="clip0_33375_2834">
<rect width="390" height="278" fill="white"/>
</clipPath>
</defs>
</svg>
