<svg width="390" height="218" viewBox="0 0 390 218" fill="none" xmlns="http://www.w3.org/2000/svg">
<g clip-path="url(#clip0_33375_3140)">
<path d="M334.514 86.6245L334.514 37.7665L406.999 37.7664L406.999 118.488L341.287 96.0897C337.237 94.709 334.514 90.9039 334.514 86.6245Z" fill="#5C58AD" stroke="black"/>
<path d="M332.084 34.0615L332.084 25.8638L406.811 -1.0002L406.812 69.7418L338.486 43.3918C334.628 41.9041 332.084 38.196 332.084 34.0615Z" fill="#302D62" stroke="black"/>
<path d="M407.313 56.9877L335.969 30.3264C330.68 28.3498 330.801 20.827 336.151 19.0212L407.313 -5.00007L407.313 56.9877Z" fill="#4A4791" stroke="black"/>
<path d="M407.016 40.806L361.552 25.0215C359.749 24.3952 359.764 21.8386 361.576 21.2348L407.016 6.0893L407.016 40.806Z" fill="#5C58AD" stroke="black"/>
<path d="M-106 94.3679V287.736H407V77.4839L152.406 161.361C131.712 168.179 109.358 168.051 88.7434 160.998L-106 94.3679Z" fill="#8581DF" stroke="black"/>
<path fill-rule="evenodd" clip-rule="evenodd" d="M205.127 126.031C204.091 126.031 203.251 126.871 203.251 127.907L203.251 145.541C203.251 146.577 204.091 147.417 205.127 147.417C206.163 147.417 207.003 146.577 207.003 145.541L207.003 127.907C207.003 126.871 206.163 126.031 205.127 126.031Z" fill="#AE8D43" stroke="black" stroke-linecap="round"/>
<path fill-rule="evenodd" clip-rule="evenodd" d="M243.398 112.748C242.361 112.748 241.522 113.587 241.522 114.624V133.008C241.522 134.045 242.361 134.884 243.398 134.884C244.434 134.884 245.274 134.045 245.274 133.008V114.624C245.274 113.587 244.434 112.748 243.398 112.748Z" fill="#AE8D43" stroke="black" stroke-linecap="round"/>
<path fill-rule="evenodd" clip-rule="evenodd" d="M282.419 98.8647C281.383 98.8647 280.543 99.7047 280.543 100.741V120.251C280.543 121.287 281.383 122.127 282.419 122.127C283.455 122.127 284.295 121.287 284.295 120.251V100.741C284.295 99.7047 283.455 98.8647 282.419 98.8647Z" fill="#AE8D43" stroke="black" stroke-linecap="round"/>
<path fill-rule="evenodd" clip-rule="evenodd" d="M322.565 84.6084C321.529 84.6084 320.689 85.4483 320.689 86.4844V106.37C320.689 107.406 321.529 108.246 322.565 108.246C323.601 108.246 324.441 107.406 324.441 106.37V86.4844C324.441 85.4483 323.601 84.6084 322.565 84.6084Z" fill="#AE8D43" stroke="black" stroke-linecap="round"/>
<path fill-rule="evenodd" clip-rule="evenodd" d="M360.835 71.8516C359.799 71.8516 358.959 72.6915 358.959 73.7276V93.9884C358.959 95.0245 359.799 95.8644 360.835 95.8644C361.871 95.8644 362.711 95.0245 362.711 93.9884V73.7276C362.711 72.6915 361.871 71.8516 360.835 71.8516Z" fill="#AE8D43" stroke="black" stroke-linecap="round"/>
<path d="M396.279 58.4098C395.611 56.4484 393.479 55.4003 391.517 56.0688L207.69 118.72C200.473 121.088 186.032 130.394 184.688 149.214C184.658 149.63 184.698 150.036 184.797 150.419L192.378 147.792C194.245 134.318 204.867 127.537 210.044 125.845L210.067 125.838L393.938 63.1716C395.899 62.5032 396.948 60.3712 396.279 58.4098Z" fill="#CDA954" stroke="black" stroke-linecap="round"/>
<path d="M193.496 137.287C192.459 137.287 191.62 138.127 191.62 139.163L191.62 148.167L195.372 147.042L195.372 139.163C195.372 138.127 194.532 137.287 193.496 137.287Z" fill="#AE8D43" stroke="black" stroke-linecap="round"/>
<path fill-rule="evenodd" clip-rule="evenodd" d="M14.5168 121.867C13.4807 121.867 12.6408 122.707 12.6408 123.743L12.6408 141.378C12.6408 142.414 13.4807 143.254 14.5168 143.254C15.5529 143.254 16.3928 142.414 16.3928 141.378L16.3928 123.743C16.3928 122.707 15.5529 121.867 14.5168 121.867Z" fill="#AE8D43" stroke="black" stroke-linecap="round"/>
<path fill-rule="evenodd" clip-rule="evenodd" d="M54.6633 136.867C53.6272 136.867 52.7873 137.707 52.7873 138.743L52.7873 156.378C52.7873 157.414 53.6272 158.254 54.6633 158.254C55.6994 158.254 56.5393 157.414 56.5393 156.378L56.5393 138.743C56.5393 137.707 55.6994 136.867 54.6633 136.867Z" fill="#AE8D43" stroke="black" stroke-linecap="round"/>
<path fill-rule="evenodd" clip-rule="evenodd" d="M90.6838 146.867C89.6477 146.867 88.8078 147.707 88.8078 148.743L88.8078 166.378C88.8078 167.414 89.6477 168.254 90.6838 168.254C91.7199 168.254 92.5598 167.414 92.5598 166.378L92.5598 148.743C92.5598 147.707 91.7199 146.867 90.6838 146.867Z" fill="#AE8D43" stroke="black" stroke-linecap="round"/>
<path d="M-100.071 81.3681C-100.763 83.3215 -99.74 85.4656 -97.7866 86.1571L95.7365 153.242C100.702 152.799 100.441 146.947 96.7819 145.652L-95.2823 79.0833C-97.2357 78.3918 -99.3799 79.4147 -100.071 81.3681Z" fill="#CDA954" stroke="black" stroke-linecap="round"/>
<g filter="url(#filter0_d_33375_3140)">
<path d="M175.031 147.585C174.657 147.481 174.26 147.489 173.89 147.607L129.667 161.695C127.84 162.277 127.799 164.846 129.606 165.486L144.681 170.826C145.096 170.973 145.549 170.979 145.968 170.842L191.571 155.978C193.455 155.364 193.395 152.679 191.486 152.149L175.031 147.585Z" fill="#463882"/>
<path d="M175.031 147.585C174.657 147.481 174.26 147.489 173.89 147.607L129.667 161.695C127.84 162.277 127.799 164.846 129.606 165.486L144.681 170.826C145.096 170.973 145.549 170.979 145.968 170.842L191.571 155.978C193.455 155.364 193.395 152.679 191.486 152.149L175.031 147.585Z" stroke="black"/>
</g>
<path d="M337.166 122.167L407 99.0898V102.501L344.48 122.692L373.212 136.601L208.599 190.313L204.998 188.562L365.115 135.813L337.166 122.167Z" fill="black" fill-opacity="0.1"/>
<path d="M-36.1661 143.077L-106 120V123.412L-43.4798 143.602L-72.212 157.511L113.5 218H121.5L-64.1147 156.723L-36.1661 143.077Z" fill="black" fill-opacity="0.1"/>
<path opacity="0.1" d="M322.827 163L278 177.243L343 218.5" stroke="black"/>
<path d="M386.25 149.903C385.771 149.646 385.207 149.595 384.69 149.763L314.535 172.423C312.857 172.965 312.65 175.256 314.204 176.089L330.181 184.656C330.66 184.913 331.224 184.964 331.741 184.797L401.896 162.136C403.574 161.594 403.781 159.304 402.227 158.47L386.25 149.903Z" fill="black" fill-opacity="0.08"/>
<path d="M199.677 185.455C199.204 185.201 198.649 185.149 198.137 185.308L131.553 206.054C129.86 206.581 129.64 208.888 131.203 209.726L145.801 217.554C146.274 217.807 146.829 217.86 147.341 217.7L213.925 196.955C215.618 196.427 215.838 194.121 214.275 193.283L199.677 185.455Z" fill="black" fill-opacity="0.08"/>
<path d="M13.8005 157.396C14.2734 157.143 14.8283 157.09 15.3406 157.25L81.9245 177.995C83.6175 178.523 83.8375 180.829 82.2747 181.667L67.6767 189.495C67.2039 189.749 66.6489 189.801 66.1367 189.642L-0.44723 168.896C-2.14025 168.369 -2.36022 166.062 -0.797441 165.224L13.8005 157.396Z" fill="black" fill-opacity="0.08"/>
<path d="M280.997 136.457C280.5 136.185 279.912 136.136 279.377 136.322L192.436 166.602C190.8 167.172 190.613 169.411 192.133 170.245L208.149 179.028C208.645 179.3 209.234 179.349 209.768 179.163L296.709 148.883C298.346 148.313 298.532 146.073 297.013 145.24L280.997 136.457Z" fill="black" fill-opacity="0.08"/>
</g>
<defs>
<filter id="filter0_d_33375_3140" x="127.774" y="147.012" width="65.6777" height="28.4282" filterUnits="userSpaceOnUse" color-interpolation-filters="sRGB">
<feFlood flood-opacity="0" result="BackgroundImageFix"/>
<feColorMatrix in="SourceAlpha" type="matrix" values="0 0 0 0 0 0 0 0 0 0 0 0 0 0 0 0 0 0 127 0" result="hardAlpha"/>
<feOffset dy="4"/>
<feComposite in2="hardAlpha" operator="out"/>
<feColorMatrix type="matrix" values="0 0 0 0 0.116424 0 0 0 0 0.125523 0 0 0 0 0.365104 0 0 0 1 0"/>
<feBlend mode="normal" in2="BackgroundImageFix" result="effect1_dropShadow_33375_3140"/>
<feBlend mode="normal" in="SourceGraphic" in2="effect1_dropShadow_33375_3140" result="shape"/>
</filter>
<clipPath id="clip0_33375_3140">
<rect width="390" height="218" fill="white"/>
</clipPath>
</defs>
</svg>
