<svg width="162" height="42" viewBox="0 0 162 42" fill="none" xmlns="http://www.w3.org/2000/svg">
<path d="M1 1H161L143.764 35.4721C142.07 38.86 138.607 41 134.82 41H27.1803C23.3926 41 19.93 38.86 18.2361 35.4721L1 1Z" fill="#1A1843"/>
<path d="M1 1L18.2361 35.4721C19.93 38.86 23.3926 41 27.1803 41H134.82C138.607 41 142.07 38.86 143.764 35.4721L161 1" stroke="#3E347C"/>
<path d="M42.1433 27.1715L37 27.2092C37 27.2092 43.5487 18.5134 44.221 17.5352C45.2598 16.0235 45.5126 15.079 48.351 14.8145C50.7336 14.5926 52.5317 15.1627 52.5317 16.325L52.0122 24.0726L58.2453 15.1156H62.9201L56.573 24.4881C55.1288 26.3968 53.8112 27.2097 50.9734 27.2091C47.7049 27.2085 47.9456 26.3968 47.9456 25.6974L48.7564 17.5352L42.1433 27.1715Z" fill="#836EF9"/>
<path d="M61.8101 27.2092H56.4965L63.9355 16.665C64.4669 15.8874 65.1798 14.7673 68.0828 14.7673C70.4052 14.7673 71.4651 15.4902 71.9059 16.665L75.159 27.2092H70.5971L67.6551 18.1059L61.8101 27.2092Z" fill="#836EF9"/>
<path d="M90.9522 19.4784C89.8154 16.3313 92.9016 14.7761 96.1373 14.7761C95.2289 15.9567 92.9969 18.7243 91.3357 20.3497C91.1936 20.0829 91.0657 19.7928 90.9522 19.4784Z" fill="#836EF9"/>
<path d="M101.729 19.7751C103.891 19.7751 105.933 20.2194 106.94 22.4931C108.451 26.0515 105.429 27.2179 101.729 27.2179H92.3338L92.2359 26.7375L94.9298 24.1075H101.729C102.253 24.1075 102.632 23.7214 102.491 23.3318C102.395 23.0679 102.084 22.8855 101.729 22.8855H96.1373C96.6561 22.4582 98.0846 20.6338 98.734 19.7751H101.729Z" fill="#836EF9"/>
<path d="M99.9879 17.8822C100.542 17.0515 101.372 15.4595 101.718 14.7673L103.807 14.7761L105.427 17.8822H99.9879Z" fill="#836EF9"/>
<path d="M119.814 27.2181H125.128L116.626 16.674C116.095 15.8964 115.382 14.7763 112.479 14.7763C110.157 14.7763 109.097 15.4992 108.656 16.674L107.502 27.2181H112.064L112.907 18.1148L119.814 27.2181Z" fill="#836EF9"/>
<path fill-rule="evenodd" clip-rule="evenodd" d="M84.6415 15.1048C86.6645 15.2063 89.5599 15.9313 90.7106 21.182C88.8421 22.8731 84.759 26.4558 83.3746 27.2582H77.3587C76.8192 27.1569 75.7402 26.7113 75.7402 25.739C75.7402 25.3758 75.7949 24.3512 75.8634 23.0674C75.9783 20.9145 76.1321 18.0327 76.1321 16.3196C76.1321 15.9149 76.4558 15.1052 77.7506 15.1048H84.6415ZM80.3428 18.2769V23.7055C80.3428 23.9264 80.5219 24.1055 80.7428 24.1055H84.49C86.5636 24.1055 87.0026 22.562 86.5636 20.9912C86.2632 19.9161 85.9232 19.182 85.6379 18.6978C85.2962 18.1179 84.6424 17.8769 83.9693 17.8769H80.7428C80.5219 17.8769 80.3428 18.0559 80.3428 18.2769Z" fill="#836EF9"/>
<path fill-rule="evenodd" clip-rule="evenodd" d="M86.5519 29.5127C98.0387 20.9878 104.752 10.5752 101.546 6.25554C99.2551 3.16864 92.5188 4.02866 84.6685 7.88207C91.2317 4.84863 96.6939 4.22168 98.5718 6.7521C101.378 10.5329 95.1192 19.9308 84.5931 27.7428C74.0669 35.5549 63.2592 38.8228 60.4533 35.042C59.485 33.7373 59.5962 31.7636 60.5897 29.417C58.9787 32.6324 58.6514 35.3788 59.9488 37.1271C63.1546 41.4468 75.0652 38.0377 86.5519 29.5127Z" fill="#BFFF60"/>
<path d="M80.5021 4.96317L82.8914 7.78301L86.5135 7.04832L83.6937 9.43759L84.4284 13.0598L82.0391 10.24L78.417 10.9747L81.2368 8.58538L80.5021 4.96317Z" fill="#BFFF60"/>
</svg>
