<svg width="69" height="35" viewBox="0 0 69 35" fill="none" xmlns="http://www.w3.org/2000/svg">
<path d="M34.2549 15.9463C43.6813 15.9463 52.1969 17.0377 58.3398 18.791C61.4147 19.6687 63.8672 20.7039 65.5391 21.832C67.2283 22.972 68.0107 24.1277 68.0107 25.2236C68.0107 26.3194 67.228 27.4744 65.5391 28.6143C63.8672 29.7424 61.4147 30.7786 58.3398 31.6562C52.1969 33.4096 43.6813 34.501 34.2549 34.501C24.8285 34.501 16.3128 33.4096 10.1699 31.6562C7.09521 30.7786 4.64343 29.7424 2.97168 28.6143C1.28252 27.4743 0.50008 26.3195 0.5 25.2236C0.5 24.1277 1.28231 22.972 2.97168 21.832C4.64341 20.704 7.09533 19.6686 10.1699 18.791C16.3128 17.0377 24.8285 15.9463 34.2549 15.9463Z" fill="#A6A6DB" stroke="black"/>
<ellipse cx="34.2555" cy="23.2104" rx="29.0518" ry="8.33936" fill="black"/>
<path d="M58.5002 10.4805V19.7578C58.5002 20.0737 58.369 20.4469 58.053 20.875C57.7374 21.3025 57.2569 21.757 56.6135 22.2227C55.327 23.1539 53.4525 24.0843 51.1448 24.9102C46.5338 26.5603 40.2784 27.7636 33.7493 27.7637C27.2208 27.7637 21.4489 26.5603 17.3245 24.916C15.2602 24.093 13.6282 23.1679 12.5227 22.2441C11.3977 21.304 10.9076 20.4434 10.9075 19.7578V10.4805H58.5002Z" fill="#454768" stroke="black"/>
<path d="M34.5 0.5C41.2169 0.5 47.2747 1.61206 51.6348 3.3916C53.8161 4.28193 55.5487 5.33015 56.7275 6.46777C57.9048 7.60394 58.5 8.79736 58.5 10C58.5 11.2026 57.9048 12.3961 56.7275 13.5322C55.5487 14.6698 53.8161 15.7181 51.6348 16.6084C47.2747 18.3879 41.2169 19.5 34.5 19.5C27.7831 19.5 21.7253 18.3879 17.3652 16.6084C15.1839 15.7181 13.4513 14.6698 12.2725 13.5322C11.0952 12.3961 10.5 11.2026 10.5 10C10.5 8.79736 11.0952 7.60394 12.2725 6.46777C13.4513 5.33015 15.1839 4.28193 17.3652 3.3916C21.7253 1.61206 27.7831 0.5 34.5 0.5Z" fill="#8888AC" stroke="black"/>
<path opacity="0.5" d="M36.1025 5.53081C36.1231 5.52426 36.2134 5.52098 36.3734 5.52098C36.6008 5.52753 36.7538 5.58324 36.8324 5.68809C36.9189 5.79294 36.918 5.93711 36.8295 6.1206C36.8042 6.17958 36.5736 6.52035 36.1377 7.1429L35.5062 8.02759L35.3448 8.15537C35.142 8.3192 34.9149 8.44371 34.6632 8.52891L34.4899 8.58789H32.1139L32.0232 8.52891C31.7882 8.38474 31.7808 8.15537 32.001 7.84082C32.1387 7.64422 32.346 7.47384 32.6229 7.32967C32.8621 7.20516 33.1738 7.11997 33.5579 7.07409C34.0586 7.02167 34.4981 6.75954 34.8765 6.28771C35.1781 5.91417 35.5867 5.66187 36.1025 5.53081ZM28.6298 5.5603C28.679 5.54719 28.7636 5.54064 28.8836 5.54064C29.0996 5.54064 29.2475 5.56358 29.3274 5.60945C29.5717 5.74051 29.5819 5.98298 29.3581 6.33686C29.0597 6.80869 29.1688 7.06426 29.6852 7.10358C30.0509 7.1298 30.2523 7.22482 30.2896 7.38865C30.3258 7.51971 30.2797 7.67699 30.1512 7.86048C29.9218 8.18814 29.5869 8.42078 29.1466 8.5584L28.9801 8.60755H26.4721L26.3814 8.54857C26.2491 8.46337 26.1894 8.34869 26.2023 8.20452L26.2198 8.07673L27.6033 6.10094L27.7648 5.97315C28.027 5.77 28.3154 5.63239 28.6298 5.5603ZM30.3155 8.63703C30.3521 8.63048 30.4584 8.6272 30.6344 8.6272C30.7898 8.63376 30.8937 8.65669 30.9462 8.69601C31.1584 8.82708 31.1567 9.04661 30.941 9.35461C30.707 9.68883 30.3658 9.92474 29.9175 10.0624C29.8145 10.0951 29.6711 10.1115 29.4871 10.1115C29.2711 10.1115 29.1237 10.082 29.045 10.023C28.9789 9.95751 28.942 9.85593 28.9344 9.71832C28.9323 9.65278 28.9863 9.54138 29.0964 9.3841C29.2111 9.22027 29.3177 9.10231 29.4162 9.03023C29.7036 8.81397 30.0034 8.68291 30.3155 8.63703ZM31.0744 10.141C31.111 10.1344 31.2093 10.1312 31.3693 10.1312C31.5133 10.1312 31.6252 10.1541 31.7051 10.2C31.9265 10.3179 31.9339 10.5473 31.7273 10.8881C31.4633 11.3337 31.5826 11.586 32.0853 11.645C32.5538 11.6843 32.7058 11.8842 32.5415 12.2446C32.5116 12.3101 32.4829 12.3625 32.4553 12.4019C32.2305 12.723 31.8876 12.9556 31.4266 13.0998C31.3237 13.1325 30.8842 13.1489 30.1082 13.1489H28.9442L28.8415 13.0899C28.7046 13.0113 28.6426 12.8999 28.6555 12.7557C28.6707 12.6312 28.8963 12.2577 29.3322 11.6351C29.7635 11.0191 30.0588 10.6489 30.218 10.5244C30.4802 10.3212 30.7657 10.1934 31.0744 10.141ZM26.7383 10.3867C27.013 10.2229 27.3024 10.141 27.6064 10.141C28.0224 10.141 28.2163 10.2753 28.1882 10.544L28.1776 10.662L27.5237 11.5958C27.0832 12.2249 26.8257 12.5755 26.7513 12.6476L26.6069 12.7852C26.5542 12.8376 26.4569 12.8966 26.315 12.9622C26.1685 13.0342 26.0278 13.0867 25.8929 13.1194C25.7945 13.1456 25.3533 13.1588 24.5693 13.1588H23.4173L23.2718 13.1096C22.9772 13.0048 22.9492 12.7819 23.1878 12.4412L23.2429 12.3625C23.5857 11.93 24.0686 11.6974 24.6916 11.6646C24.9933 11.645 25.2529 11.5827 25.4703 11.4779C25.642 11.3927 25.769 11.314 25.8515 11.2419C25.9466 11.1633 26.0664 11.0322 26.2108 10.8487C26.3645 10.6521 26.5403 10.4981 26.7383 10.3867ZM40.915 5.66843C41.0053 5.64221 41.2065 5.62911 41.5185 5.62911H42.2505H43.4145L43.5154 5.70775C43.6478 5.79294 43.7029 5.91417 43.6808 6.07145L43.6702 6.18941C43.2847 6.73988 42.7152 7.55903 41.9615 8.64686C41.2077 9.7347 40.6382 10.5539 40.2527 11.1043L40.2421 11.2223C40.2188 11.3927 40.2779 11.5139 40.4195 11.586L40.5513 11.6548L41.6724 11.6646C42.2838 11.6712 42.6449 11.681 42.7557 11.6941C42.8792 11.7007 42.9756 11.74 43.0452 11.8121C43.2048 11.9497 43.1791 12.1692 42.968 12.4707C42.8946 12.5755 42.7846 12.6869 42.638 12.8049C42.4273 12.9687 42.1904 13.0899 41.9273 13.1686L41.7111 13.2374L37.8642 13.2472C35.2802 13.2472 33.9608 13.2407 33.906 13.2276C33.697 13.1948 33.5709 13.1063 33.5279 12.9622C33.4848 12.818 33.5298 12.6509 33.6629 12.4608C33.7088 12.3953 33.7472 12.3462 33.7781 12.3134C34.0303 12.0447 34.3496 11.8514 34.7362 11.7334L34.9215 11.6745L36.1164 11.6646C36.913 11.6581 37.3628 11.6384 37.4657 11.6056C37.7002 11.5336 37.8981 11.4451 38.0595 11.3402C38.1912 11.255 38.2971 11.1666 38.3774 11.0748C38.4576 10.9831 38.6239 10.757 38.8763 10.3966L39.599 9.36444L40.714 7.77201L40.7264 7.63439C40.7671 7.35916 40.5887 7.20843 40.191 7.18222C39.7785 7.1429 39.607 6.98235 39.6763 6.70056C39.7005 6.60881 39.7516 6.50724 39.8296 6.39583C39.9489 6.22545 40.1042 6.078 40.2954 5.95349C40.4991 5.82243 40.7057 5.72741 40.915 5.66843Z" fill="black"/>
</svg>
