<svg width="70" height="35" viewBox="0 0 70 35" fill="none" xmlns="http://www.w3.org/2000/svg">
<path d="M34.7651 15.9458C44.1916 15.9458 52.7072 17.0372 58.8501 18.7905C61.925 19.6682 64.3775 20.7034 66.0493 21.8315C67.7385 22.9715 68.521 24.1272 68.521 25.2231C68.5209 26.3189 67.7383 27.4739 66.0493 28.6138C64.3775 29.7419 61.925 30.7781 58.8501 31.6558C52.7072 33.4091 44.1915 34.5005 34.7651 34.5005C25.3388 34.5005 16.8231 33.4091 10.6802 31.6558C7.60547 30.7781 5.15368 29.7419 3.48193 28.6138C1.79278 27.4739 1.01033 26.319 1.01025 25.2231C1.01025 24.1272 1.79257 22.9715 3.48193 21.8315C5.15366 20.7035 7.60558 19.6681 10.6802 18.7905C16.8231 17.0372 25.3388 15.9458 34.7651 15.9458Z" fill="#A6A6DB" stroke="black"/>
<ellipse cx="34.7658" cy="23.2104" rx="29.0518" ry="8.33936" fill="black"/>
<path d="M59.0105 10.48V19.7573C59.0105 20.0732 58.8793 20.4464 58.5632 20.8745C58.2476 21.3021 57.7671 21.7565 57.1238 22.2222C55.8372 23.1534 53.9628 24.0838 51.655 24.9097C47.0441 26.5598 40.7887 27.7631 34.2595 27.7632C27.7311 27.7632 21.9591 26.5598 17.8347 24.9155C15.7704 24.0926 14.1385 23.1675 13.033 22.2437C11.9079 21.3035 11.4178 20.443 11.4177 19.7573V10.48H59.0105Z" fill="#454768" stroke="black"/>
<path d="M35.0103 0.5C41.7271 0.5 47.7849 1.61206 52.145 3.3916C54.3263 4.28193 56.0589 5.33015 57.2378 6.46777C58.4151 7.60394 59.0103 8.79736 59.0103 10C59.0103 11.2026 58.4151 12.3961 57.2378 13.5322C56.0589 14.6698 54.3263 15.7181 52.145 16.6084C47.7849 18.3879 41.7271 19.5 35.0103 19.5C28.2934 19.5 22.2356 18.3879 17.8755 16.6084C15.6942 15.7181 13.9616 14.6698 12.7827 13.5322C11.6054 12.3961 11.0103 11.2026 11.0103 10C11.0103 8.79736 11.6054 7.60394 12.7827 6.46777C13.9616 5.33015 15.6942 4.28193 17.8755 3.3916C22.2356 1.61206 28.2934 0.5 35.0103 0.5Z" fill="#8888AC" stroke="black"/>
<path opacity="0.5" d="M31.3745 5.53081C31.3951 5.52426 31.4853 5.52098 31.6453 5.52098C31.8728 5.52753 32.0258 5.58324 32.1043 5.68809C32.1909 5.79294 32.19 5.93711 32.1015 6.1206C32.0762 6.17958 31.8456 6.52035 31.4097 7.1429L30.7782 8.02759L30.6167 8.15537C30.414 8.3192 30.1868 8.44371 29.9352 8.52891L29.7619 8.58789H27.3859L27.2952 8.52891C27.0601 8.38474 27.0527 8.15537 27.273 7.84082C27.4106 7.64422 27.6179 7.47384 27.8949 7.32967C28.1341 7.20516 28.4457 7.11997 28.8298 7.07409C29.3306 7.02167 29.7701 6.75954 30.1485 6.28771C30.45 5.91417 30.8587 5.66187 31.3745 5.53081ZM23.9018 5.5603C23.951 5.54719 24.0356 5.54064 24.1556 5.54064C24.3716 5.54064 24.5195 5.56358 24.5994 5.60945C24.8436 5.74051 24.8539 5.98298 24.6301 6.33686C24.3317 6.80869 24.4407 7.06426 24.9572 7.10358C25.3228 7.1298 25.5243 7.22482 25.5616 7.38865C25.5978 7.51971 25.5517 7.67699 25.4232 7.86048C25.1938 8.18814 24.8589 8.42078 24.4185 8.5584L24.2521 8.60755H21.7441L21.6534 8.54857C21.5211 8.46337 21.4614 8.34869 21.4743 8.20452L21.4918 8.07673L22.8753 6.10094L23.0367 5.97315C23.299 5.77 23.5873 5.63239 23.9018 5.5603ZM25.5875 8.63703C25.6241 8.63048 25.7303 8.6272 25.9063 8.6272C26.0618 8.63376 26.1657 8.65669 26.2182 8.69601C26.4304 8.82708 26.4287 9.04661 26.213 9.35461C25.979 9.68883 25.6378 9.92474 25.1894 10.0624C25.0865 10.0951 24.943 10.1115 24.759 10.1115C24.543 10.1115 24.3957 10.082 24.317 10.023C24.2509 9.95751 24.214 9.85593 24.2063 9.71832C24.2042 9.65278 24.2582 9.54138 24.3684 9.3841C24.4831 9.22027 24.5897 9.10231 24.6881 9.03023C24.9756 8.81397 25.2753 8.68291 25.5875 8.63703ZM26.3464 10.141C26.383 10.1344 26.4813 10.1312 26.6413 10.1312C26.7853 10.1312 26.8972 10.1541 26.9771 10.2C27.1985 10.3179 27.2059 10.5473 26.9993 10.8881C26.7353 11.3337 26.8546 11.586 27.3573 11.645C27.8258 11.6843 27.9778 11.8842 27.8134 12.2446C27.7835 12.3101 27.7548 12.3625 27.7273 12.4019C27.5025 12.723 27.1596 12.9556 26.6986 13.0998C26.5957 13.1325 26.1562 13.1489 25.3802 13.1489H24.2162L24.1135 13.0899C23.9766 13.0113 23.9146 12.8999 23.9275 12.7557C23.9427 12.6312 24.1683 12.2577 24.6042 11.6351C25.0355 11.0191 25.3308 10.6489 25.4899 10.5244C25.7522 10.3212 26.0377 10.1934 26.3464 10.141ZM22.0103 10.3867C22.285 10.2229 22.5744 10.141 22.8784 10.141C23.2944 10.141 23.4883 10.2753 23.4602 10.544L23.4496 10.662L22.7957 11.5958C22.3552 12.2249 22.0977 12.5755 22.0232 12.6476L21.8789 12.7852C21.8262 12.8376 21.7289 12.8966 21.587 12.9622C21.4405 13.0342 21.2998 13.0867 21.1649 13.1194C21.0665 13.1456 20.6253 13.1588 19.8413 13.1588H18.6893L18.5437 13.1096C18.2492 13.0048 18.2212 12.7819 18.4598 12.4412L18.5148 12.3625C18.8577 11.93 19.3406 11.6974 19.9635 11.6646C20.2653 11.645 20.5249 11.5827 20.7423 11.4779C20.914 11.3927 21.041 11.314 21.1235 11.2419C21.2186 11.1633 21.3383 11.0322 21.4828 10.8487C21.6365 10.6521 21.8123 10.4981 22.0103 10.3867ZM34.2602 5.60945C34.3506 5.58324 34.5278 5.57013 34.7918 5.57013C35.0604 5.56358 35.9547 5.5603 37.4747 5.5603L40.4918 5.57013L40.6236 5.63894C40.8678 5.77 40.8729 6.00264 40.6389 6.33686C40.4232 6.64486 40.0964 6.8775 39.6582 7.03477L39.4472 7.11341C38.9786 7.11997 38.2763 7.12324 37.3403 7.12324C36.4123 7.12324 35.714 7.12652 35.2454 7.13307L35.0481 7.19205C34.8262 7.25758 34.6214 7.35588 34.4336 7.48695C34.2504 7.61146 34.1084 7.7458 34.0074 7.88997C33.8376 8.13244 33.8217 8.33231 33.9596 8.48959C34.0245 8.56823 34.1507 8.61082 34.3381 8.61737C34.5335 8.62393 35.4849 8.63048 37.1923 8.63703L40.1905 8.65669L40.295 8.69601C40.4479 8.77465 40.5099 8.90899 40.4808 9.09904L40.4753 9.22682L38.1214 12.5886L37.9719 12.7164C37.7646 12.8868 37.5105 13.0211 37.2097 13.1194L36.9935 13.1882H29.0735L28.9417 13.1194C28.7968 13.0408 28.7336 12.9196 28.7524 12.7557C28.7628 12.6836 28.8231 12.569 28.9333 12.4117C29.0526 12.2413 29.1615 12.1201 29.2599 12.048C29.5599 11.8252 29.8803 11.6876 30.221 11.6351C30.3422 11.622 31.3628 11.6155 33.2828 11.6155C35.1948 11.6155 36.1954 11.6089 36.2845 11.5958C36.5213 11.5434 36.7455 11.4516 36.9573 11.3206C37.177 11.1895 37.3512 11.0322 37.4797 10.8487C37.6907 10.5473 37.6707 10.3245 37.4197 10.1803L37.2879 10.1115C36.6079 10.1115 35.5942 10.1082 34.2468 10.1017C32.8993 10.0951 31.8896 10.0918 31.2176 10.0918L31.1098 10.023C30.9501 9.93129 30.8921 9.79695 30.936 9.62002C30.9511 9.54138 31.3486 8.94504 32.1287 7.83099C32.9134 6.71039 33.3532 6.11077 33.4483 6.03213C33.5353 5.95349 33.6607 5.87158 33.8244 5.78639C33.988 5.70119 34.1333 5.64221 34.2602 5.60945ZM49.946 7.25103L49.8433 7.19205L47.7861 7.18222C46.4181 7.18222 45.6873 7.19205 45.5935 7.21171C45.3728 7.26414 45.1674 7.34605 44.9774 7.45746C44.8675 7.52299 44.7908 7.57541 44.7473 7.61473C44.7038 7.65405 44.6258 7.74252 44.5134 7.88014C44.4137 8.0112 44.2514 8.23729 44.0265 8.5584L43.3864 9.47257L42.2146 11.1633L42.2057 11.2616C42.1962 11.4123 42.2582 11.5237 42.3917 11.5958L42.4944 11.6548H46.7424L46.9277 11.5958C47.1794 11.5106 47.402 11.3927 47.5955 11.2419L47.7381 11.124L50.1196 7.72286L50.1404 7.62456C50.1557 7.45418 50.0909 7.32967 49.946 7.25103ZM46.2439 5.64877C46.3856 5.62911 47.2525 5.61928 48.8445 5.61928C50.1485 5.61928 50.9159 5.62583 51.1468 5.63894C51.3902 5.64549 51.5952 5.67826 51.7619 5.73724C52.1296 5.87485 52.3507 6.10749 52.4252 6.43515C52.5078 6.76281 52.4251 7.12652 52.1772 7.52626C52.1681 7.53937 52.1405 7.57869 52.0946 7.64422C52.0613 7.7032 52.0057 7.78839 51.9277 7.8998C51.8543 8.00465 51.7786 8.11278 51.7005 8.22418C51.618 8.34214 51.4602 8.56167 51.2274 8.88278C51.0071 9.19733 50.8305 9.44963 50.6974 9.63968C49.7992 10.911 49.2934 11.5991 49.18 11.7039C48.787 12.0709 48.3371 12.3822 47.8301 12.6378C47.3312 12.8933 46.821 13.0736 46.2996 13.1784L46.0063 13.2374H43.5703C42.2663 13.2374 41.4988 13.2308 41.268 13.2177C41.0326 13.2112 40.8316 13.1784 40.6649 13.1194C40.3166 12.9884 40.0938 12.7754 39.9962 12.4805C39.9067 12.1856 39.955 11.8481 40.1412 11.468C40.1561 11.4353 40.6293 10.7537 41.5608 9.42342C42.4831 8.10622 42.9884 7.40175 43.0767 7.31001C43.4743 6.8906 43.9564 6.53345 44.5229 6.23856C45.094 5.93711 45.6676 5.74051 46.2439 5.64877ZM46.3455 8.7255C46.4233 8.70584 46.5182 8.69601 46.6302 8.69601C46.7982 8.69601 46.9227 8.7124 47.0038 8.74516C47.1202 8.78448 47.1926 8.86967 47.2208 9.00074C47.249 9.1318 47.2081 9.27597 47.0979 9.43325C47.0521 9.49878 46.9747 9.5807 46.8659 9.679C46.6666 9.84938 46.4371 9.97717 46.1774 10.0624C46.0207 10.1148 45.8544 10.141 45.6784 10.141C45.5024 10.141 45.3761 10.1213 45.2997 10.082C45.1661 10.0099 45.1053 9.88542 45.1172 9.70849C45.1231 9.64295 45.1696 9.54793 45.2568 9.42342C45.344 9.29891 45.4305 9.20389 45.5164 9.13836C45.7787 8.93521 46.055 8.79759 46.3455 8.7255Z" fill="black"/>
</svg>
