<svg width="69" height="30" viewBox="0 0 69 30" fill="none" xmlns="http://www.w3.org/2000/svg">
<path d="M34.2549 10.9458C43.6813 10.9458 52.1969 12.0372 58.3398 13.7905C61.4147 14.6682 63.8672 15.7034 65.5391 16.8315C67.2283 17.9715 68.0107 19.1272 68.0107 20.2231C68.0107 21.3189 67.228 22.4739 65.5391 23.6138C63.8672 24.7419 61.4147 25.7781 58.3398 26.6558C52.1969 28.4091 43.6813 29.5005 34.2549 29.5005C24.8285 29.5005 16.3128 28.4091 10.1699 26.6558C7.09521 25.7781 4.64343 24.7419 2.97168 23.6138C1.28252 22.4739 0.50008 21.319 0.5 20.2231C0.5 19.1272 1.28231 17.9715 2.97168 16.8315C4.64341 15.7035 7.09533 14.6681 10.1699 13.7905C16.3128 12.0372 24.8285 10.9458 34.2549 10.9458Z" fill="#A6A6DB" stroke="black"/>
<ellipse cx="34.2555" cy="18.2104" rx="29.0518" ry="8.33936" fill="black"/>
<path d="M58.5002 10.48V14.7573C58.5002 15.0732 58.369 15.4464 58.053 15.8745C57.7374 16.3021 57.2569 16.7565 56.6135 17.2222C55.327 18.1534 53.4525 19.0838 51.1448 19.9097C46.5338 21.5598 40.2784 22.7631 33.7493 22.7632C27.2208 22.7632 21.4489 21.5598 17.3245 19.9155C15.2602 19.0926 13.6282 18.1675 12.5227 17.2437C11.3977 16.3035 10.9076 15.443 10.9075 14.7573V10.48H58.5002Z" fill="#B28229" stroke="black"/>
<path d="M34.5 0.5C41.2169 0.5 47.2747 1.61206 51.6348 3.3916C53.8161 4.28193 55.5487 5.33015 56.7275 6.46777C57.9048 7.60394 58.5 8.79736 58.5 10C58.5 11.2026 57.9048 12.3961 56.7275 13.5322C55.5487 14.6698 53.8161 15.7181 51.6348 16.6084C47.2747 18.3879 41.2169 19.5 34.5 19.5C27.7831 19.5 21.7253 18.3879 17.3652 16.6084C15.1839 15.7181 13.4513 14.6698 12.2725 13.5322C11.0952 12.3961 10.5 11.2026 10.5 10C10.5 8.79736 11.0952 7.60394 12.2725 6.46777C13.4513 5.33015 15.1839 4.28193 17.3652 3.3916C21.7253 1.61206 27.7831 0.5 34.5 0.5Z" fill="#FFBF49" stroke="black"/>
<path d="M30.8642 5.53081C30.8848 5.52426 30.9751 5.52098 31.1351 5.52098C31.3625 5.52753 31.5155 5.58324 31.5941 5.68809C31.6807 5.79294 31.6797 5.93711 31.5912 6.1206C31.5659 6.17958 31.3353 6.52035 30.8994 7.1429L30.268 8.02759L30.1065 8.15537C29.9038 8.3192 29.6766 8.44371 29.4249 8.52891L29.2516 8.58789H26.8756L26.7849 8.52891C26.5499 8.38474 26.5425 8.15537 26.7627 7.84082C26.9004 7.64422 27.1077 7.47384 27.3846 7.32967C27.6238 7.20516 27.9355 7.11997 28.3196 7.07409C28.8203 7.02167 29.2598 6.75954 29.6382 6.28771C29.9398 5.91417 30.3484 5.66187 30.8642 5.53081ZM23.3916 5.5603C23.4407 5.54719 23.5253 5.54064 23.6453 5.54064C23.8613 5.54064 24.0093 5.56358 24.0891 5.60945C24.3334 5.74051 24.3436 5.98298 24.1198 6.33686C23.8214 6.80869 23.9305 7.06426 24.4469 7.10358C24.8126 7.1298 25.0141 7.22482 25.0513 7.38865C25.0876 7.51971 25.0414 7.67699 24.913 7.86048C24.6835 8.18814 24.3486 8.42078 23.9083 8.5584L23.7419 8.60755H21.2339L21.1432 8.54857C21.0108 8.46337 20.9511 8.34869 20.9641 8.20452L20.9815 8.07673L22.365 6.10094L22.5265 5.97315C22.7887 5.77 23.0771 5.63239 23.3916 5.5603ZM25.0772 8.63703C25.1138 8.63048 25.2201 8.6272 25.3961 8.6272C25.5515 8.63376 25.6554 8.65669 25.7079 8.69601C25.9201 8.82708 25.9184 9.04661 25.7028 9.35461C25.4687 9.68883 25.1275 9.92474 24.6792 10.0624C24.5762 10.0951 24.4328 10.1115 24.2488 10.1115C24.0328 10.1115 23.8854 10.082 23.8067 10.023C23.7406 9.95751 23.7037 9.85593 23.6961 9.71832C23.694 9.65278 23.748 9.54138 23.8581 9.3841C23.9728 9.22027 24.0794 9.10231 24.1779 9.03023C24.4653 8.81397 24.7651 8.68291 25.0772 8.63703ZM25.8361 10.141C25.8727 10.1344 25.971 10.1312 26.131 10.1312C26.275 10.1312 26.3869 10.1541 26.4668 10.2C26.6882 10.3179 26.6956 10.5473 26.489 10.8881C26.225 11.3337 26.3443 11.586 26.847 11.645C27.3155 11.6843 27.4676 11.8842 27.3032 12.2446C27.2733 12.3101 27.2446 12.3625 27.2171 12.4019C26.9922 12.723 26.6493 12.9556 26.1884 13.0998C26.0854 13.1325 25.646 13.1489 24.87 13.1489H23.706L23.6032 13.0899C23.4663 13.0113 23.4043 12.8999 23.4173 12.7557C23.4325 12.6312 23.658 12.2577 24.0939 11.6351C24.5252 11.0191 24.8205 10.6489 24.9797 10.5244C25.2419 10.3212 25.5274 10.1934 25.8361 10.141ZM21.5001 10.3867C21.7748 10.2229 22.0641 10.141 22.3681 10.141C22.7841 10.141 22.9781 10.2753 22.9499 10.544L22.9393 10.662L22.2855 11.5958C21.8449 12.2249 21.5875 12.5755 21.513 12.6476L21.3686 12.7852C21.3159 12.8376 21.2186 12.8966 21.0767 12.9622C20.9303 13.0342 20.7895 13.0867 20.6546 13.1194C20.5562 13.1456 20.1151 13.1588 19.3311 13.1588H18.1791L18.0335 13.1096C17.7389 13.0048 17.7109 12.7819 17.9495 12.4412L18.0046 12.3625C18.3474 11.93 18.8303 11.6974 19.4533 11.6646C19.755 11.645 20.0146 11.5827 20.232 11.4779C20.4037 11.3927 20.5308 11.314 20.6132 11.2419C20.7083 11.1633 20.8281 11.0322 20.9726 10.8487C21.1262 10.6521 21.302 10.4981 21.5001 10.3867ZM33.75 5.60945C33.8403 5.58324 34.0175 5.57013 34.2815 5.57013C34.5501 5.56358 35.4444 5.5603 36.9644 5.5603L39.9815 5.57013L40.1133 5.63894C40.3576 5.77 40.3627 6.00264 40.1287 6.33686C39.913 6.64486 39.5861 6.8775 39.148 7.03477L38.9369 7.11341C38.4683 7.11997 37.766 7.12324 36.83 7.12324C35.902 7.12324 35.2037 7.12652 34.7351 7.13307L34.5378 7.19205C34.316 7.25758 34.1111 7.35588 33.9234 7.48695C33.7402 7.61146 33.5981 7.7458 33.4972 7.88997C33.3274 8.13244 33.3114 8.33231 33.4493 8.48959C33.5142 8.56823 33.6404 8.61082 33.8278 8.61737C34.0232 8.62393 34.9746 8.63048 36.6821 8.63703L39.6803 8.65669L39.7848 8.69601C39.9377 8.77465 39.9996 8.90899 39.9706 9.09904L39.9651 9.22682L37.6111 12.5886L37.4616 12.7164C37.2543 12.8868 37.0003 13.0211 36.6994 13.1194L36.4833 13.1882H28.5633L28.4314 13.1194C28.2865 13.0408 28.2234 12.9196 28.2421 12.7557C28.2526 12.6836 28.3129 12.569 28.423 12.4117C28.5423 12.2413 28.6512 12.1201 28.7497 12.048C29.0497 11.8252 29.3701 11.6876 29.7108 11.6351C29.8319 11.622 30.8525 11.6155 32.7725 11.6155C34.6845 11.6155 35.6851 11.6089 35.7743 11.5958C36.011 11.5434 36.2352 11.4516 36.447 11.3206C36.6668 11.1895 36.8409 11.0322 36.9694 10.8487C37.1805 10.5473 37.1605 10.3245 36.9094 10.1803L36.7776 10.1115C36.0976 10.1115 35.0839 10.1082 33.7365 10.1017C32.3891 10.0951 31.3794 10.0918 30.7074 10.0918L30.5996 10.023C30.4398 9.93129 30.3819 9.79695 30.4258 9.62002C30.4408 9.54138 30.8384 8.94504 31.6185 7.83099C32.4031 6.71039 32.843 6.11077 32.938 6.03213C33.0251 5.95349 33.1504 5.87158 33.3141 5.78639C33.4778 5.70119 33.623 5.64221 33.75 5.60945ZM49.4357 7.25103L49.333 7.19205L47.2759 7.18222C45.9079 7.18222 45.177 7.19205 45.0832 7.21171C44.8625 7.26414 44.6572 7.34605 44.4672 7.45746C44.3573 7.52299 44.2806 7.57541 44.237 7.61473C44.1935 7.65405 44.1156 7.74252 44.0032 7.88014C43.9034 8.0112 43.7411 8.23729 43.5163 8.5584L42.8762 9.47257L41.7043 11.1633L41.6955 11.2616C41.6859 11.4123 41.7479 11.5237 41.8815 11.5958L41.9842 11.6548H46.2322L46.4175 11.5958C46.6691 11.5106 46.8917 11.3927 47.0852 11.2419L47.2278 11.124L49.6093 7.72286L49.6302 7.62456C49.6455 7.45418 49.5806 7.32967 49.4357 7.25103ZM45.7336 5.64877C45.8754 5.62911 46.7423 5.61928 48.3343 5.61928C49.6383 5.61928 50.4057 5.62583 50.6365 5.63894C50.8799 5.64549 51.085 5.67826 51.2517 5.73724C51.6193 5.87485 51.8404 6.10749 51.915 6.43515C51.9976 6.76281 51.9149 7.12652 51.667 7.52626C51.6578 7.53937 51.6303 7.57869 51.5844 7.64422C51.5511 7.7032 51.4954 7.78839 51.4174 7.8998C51.344 8.00465 51.2683 8.11278 51.1903 8.22418C51.1077 8.34214 50.95 8.56167 50.7171 8.88278C50.4969 9.19733 50.3202 9.44963 50.1872 9.63968C49.289 10.911 48.7832 11.5991 48.6697 11.7039C48.2768 12.0709 47.8268 12.3822 47.3199 12.6378C46.8209 12.8933 46.3107 13.0736 45.7893 13.1784L45.496 13.2374H43.06C41.756 13.2374 40.9886 13.2308 40.7578 13.2177C40.5224 13.2112 40.3213 13.1784 40.1546 13.1194C39.8064 12.9884 39.5835 12.7754 39.486 12.4805C39.3965 12.1856 39.4448 11.8481 39.6309 11.468C39.6459 11.4353 40.1191 10.7537 41.0506 9.42342C41.9729 8.10622 42.4782 7.40175 42.5664 7.31001C42.9641 6.8906 43.4462 6.53345 44.0126 6.23856C44.5837 5.93711 45.1574 5.74051 45.7336 5.64877ZM45.8353 8.7255C45.913 8.70584 46.0079 8.69601 46.1199 8.69601C46.2879 8.69601 46.4124 8.7124 46.4935 8.74516C46.61 8.78448 46.6823 8.86967 46.7105 9.00074C46.7388 9.1318 46.6978 9.27597 46.5877 9.43325C46.5418 9.49878 46.4644 9.5807 46.3556 9.679C46.1563 9.84938 45.9268 9.97717 45.6672 10.0624C45.5105 10.1148 45.3441 10.141 45.1681 10.141C44.9921 10.141 44.8659 10.1213 44.7894 10.082C44.6559 10.0099 44.5951 9.88542 44.607 9.70849C44.6129 9.64295 44.6594 9.54793 44.7466 9.42342C44.8338 9.29891 44.9203 9.20389 45.0062 9.13836C45.2684 8.93521 45.5448 8.79759 45.8353 8.7255Z" fill="black"/>
</svg>
