<svg width="357" height="430" viewBox="0 0 357 430" fill="none" xmlns="http://www.w3.org/2000/svg">
<path fill-rule="evenodd" clip-rule="evenodd" d="M201.886 235.596C201.95 235.596 202.015 235.596 202.079 235.596L202.215 235.597C237.079 235.597 265.342 197.471 265.342 150.44C265.342 142.909 264.617 135.606 263.257 128.651C259.306 105.684 248.063 81.6959 222.271 69.5584L222.249 69.6621C215.955 66.8224 209.218 65.2842 202.215 65.2842C202.105 65.2842 201.996 65.2846 201.886 65.2853V65.2842H170.651C160.043 65.2842 150.046 68.8138 141.271 75.0498C127.533 80.5238 115.913 92.6869 108.468 108.754L105.551 106.712L96.1835 105.699C94.5053 105.517 92.8853 106.401 92.2352 107.959C90.7316 111.562 89.1406 116.383 87.8244 122.137L78.2616 131.699V157.016L78.4101 157.031L69.8279 173.365C69.2623 173.209 68.6737 173.127 68.0692 173.127C67.7352 173.127 67.406 173.152 67.0829 173.201C66.7597 173.152 66.4305 173.127 66.0965 173.127C61.7385 173.127 58.2056 177.396 58.2056 182.662C58.2056 187.928 61.7385 192.197 66.0965 192.197C66.4305 192.197 66.7597 192.172 67.0829 192.123C67.406 192.172 67.7352 192.197 68.0692 192.197C68.2698 192.197 68.4685 192.188 68.6653 192.17L77.2753 206.335L77.904 206.472L73.6586 207.321V220.801L74.9316 221.129L70.0419 222.116V241.966L3 264.699V273.319L14.2435 277.076V361.393L24.8012 364.988L5.01091 402.264L18.1282 407.136H23.3752L23.7663 406.402L67.2596 421.262L66.8497 422.128L81.0914 427L87.8374 424.002L103.475 391.779L114.334 395.476L114.31 395.498L170.04 414.446L170.029 414.568L169.963 415.322L170.682 415.087L204.037 404.219L204.364 404.112L204.382 403.769C204.399 403.439 204.415 403.11 204.43 402.782L274.716 378.258C276.837 336.557 267.183 306.297 260.209 291.563L270.594 287.936C270.594 287.936 273.217 284.563 270.968 280.065L245.6 271.788C242.781 266.719 238.95 263.62 235.118 261.943L214.034 255.495L204.389 258.341L130.204 234.135L129.553 233.359V222.116L96.6763 229.02L129.224 222.116L118.045 219.356V208.307L107.156 205.459L97.4928 192.172C98.4258 190.606 98.9753 188.684 98.9753 186.607C98.9753 186.513 98.9742 186.42 98.972 186.327L103.578 187.594L106.136 186.61C113.347 205.398 126.001 219.747 141.271 225.831C150.046 232.067 160.043 235.597 170.651 235.597H201.886V235.596ZM86.3343 166.986C86.8711 170.342 87.5709 173.754 88.4566 177.204C87.7614 177.344 87.097 177.595 86.476 177.94L77.3795 176.85L82.2071 166.551L86.3343 166.986ZM72.8816 190.219L82.2058 191.483L81.8783 191.539L72.7663 190.324L72.812 190.283L72.8383 190.259L72.8816 190.219Z" fill="black"/>
<path d="M274.716 378.258C276.965 334.034 265.971 302.677 258.975 289.06L152.912 321.666C170.302 358.545 171.901 398.996 170.527 414.612L274.716 378.258Z" fill="#7B8EDB" stroke="black"/>
<path d="M203.883 403.743C206.131 359.519 195.138 329.661 188.142 316.044L152.912 321.666C170.302 358.545 171.901 398.996 170.527 414.612L203.883 403.743Z" stroke="black"/>
<path d="M261.974 368.514L204.101 387.628C203.935 381.435 203.516 375.557 202.905 370.013L247.732 353.897C246.832 338.007 241.61 322.041 239.112 316.044L256.352 329.911C260.549 340.705 261.849 360.144 261.974 368.514Z" fill="#5B5F8C" stroke="black"/>
<path d="M248.481 357.645C247.582 341.754 243.484 325.039 240.986 319.043L234.615 299.929L218.874 304.801C223.971 318.593 229.368 335.908 231.242 353.148L248.481 357.645Z" fill="#384381" stroke="black"/>
<path d="M202.009 362.142C197.136 333.659 191.89 323.915 188.517 316.419L218.874 305.925C225.245 318.668 229.743 337.782 231.617 355.022L202.009 362.142Z" fill="#9BCBF9" stroke="black"/>
<path d="M14.2435 361.393V274.444L152.912 321.666C170.302 358.545 171.901 398.996 170.527 414.612L14.2435 361.393Z" fill="#364588" stroke="black"/>
<path d="M248.107 357.645L203.133 369.638L202.009 362.142L232.366 353.522L248.107 357.645Z" fill="#89A8DF" stroke="black"/>
<path d="M203.882 403.743L170.527 414.612L114.31 395.498L125.553 385.379L170.86 400.745L204.176 390.626C204.203 394.861 204.112 399.235 203.882 403.743Z" fill="#0EBBE7"/>
<path d="M170.527 414.612L203.882 403.743C204.112 399.235 204.203 394.861 204.176 390.626L170.86 400.745M170.527 414.612C170.834 411.123 170.993 406.395 170.86 400.745M170.527 414.612L114.31 395.498L125.553 385.379L170.86 400.745" stroke="black"/>
<path d="M3 264.699L111.312 227.971L270.968 280.065C273.217 284.563 270.594 287.936 270.594 287.936L161.158 326.164L3 273.319V264.699Z" fill="#98BEFD"/>
<path d="M3 264.699L111.312 227.971L270.968 280.065C273.217 284.563 270.593 287.936 270.593 287.936L161.157 326.164M3 264.699V273.319L161.157 326.164M3 264.699L161.157 317.918C162.282 319.293 162.657 323.915 161.157 326.164" stroke="black"/>
<path d="M3 273.319L161.157 326.164C162.657 323.915 162.282 319.293 161.157 317.918L3 264.699V273.319Z" fill="#5077B7" stroke="black"/>
<path d="M67.5992 421.378L22.6255 406.012L32.7446 385.774L49.5744 353.918L65.3506 325.06L76.7001 302.573L123.442 317.564L110.699 340.8L96.4574 368.909L79.132 400.765L67.5992 421.378Z" fill="#6F83C7"/>
<path d="M32.7446 385.774L22.6255 406.012L67.5992 421.378L79.132 400.765M32.7446 385.774L41.3646 388.772L47.7359 383.525L69.0984 391.021V397.767L79.132 400.765M32.7446 385.774L49.5744 353.918M79.132 400.765L96.4574 368.909M96.4574 368.909L86.7131 365.536V358.79L63.2079 350.545L56.3558 356.166L49.5744 353.918M96.4574 368.909L110.699 340.8M49.5744 353.918L65.3506 325.06M65.3506 325.06L76.7001 302.573L123.442 317.564L110.699 340.8M65.3506 325.06L72.0966 327.308L79.132 323.56L103.203 331.806V338.177L110.699 340.8" stroke="black"/>
<path d="M133.186 295.827L147.428 299.2V307.445L137.309 309.694V322.061L87.8375 424.002L81.0914 427L66.8497 422.128L117.07 316.065V299.2L133.186 295.827Z" fill="#0ED2FA"/>
<path d="M147.428 299.2L133.186 295.827L117.07 299.2M147.428 299.2V307.445L137.309 309.694V322.061L87.8375 424.002L81.0914 427M147.428 299.2L131.687 303.322M81.0914 427L66.8497 422.128L117.07 316.065V299.2M81.0914 427L131.687 320.562V303.322M117.07 299.2L131.687 303.322" stroke="black"/>
<path d="M75.8445 274.839L90.0862 279.711V286.832L78.8427 289.83V302.947L23.3752 407.136H18.1283L5.01093 402.264L59.7289 299.2V279.711L75.8445 274.839Z" fill="#0ED2FA"/>
<path d="M90.0862 279.711L75.8445 274.839L59.7289 279.711M90.0862 279.711V286.832L78.8427 289.83V302.947L23.3752 407.136H18.1283M90.0862 279.711L74.3454 284.208M18.1283 407.136L5.01093 402.264L59.7289 299.2V279.711M18.1283 407.136L74.3454 301.074V284.208M59.7289 279.711L74.3454 284.208" stroke="black"/>
<path d="M78.2615 131.7V157.016L88.454 158.003V132.357L104.236 118.219H91.7419L78.2615 131.7Z" fill="#7173A4"/>
<path d="M78.2615 131.7V157.016L88.454 158.003V132.357M78.2615 131.7L91.7419 118.219H104.236L88.454 132.357M78.2615 131.7L88.454 132.357" stroke="black"/>
<path d="M78.5903 156.688L68.3979 176.086L74.3161 177.072L80.8918 164.25L88.454 164.907V157.674L78.5903 156.688Z" fill="#B8E5FF" stroke="black"/>
<path d="M82.207 166.551L77.2752 177.072H74.3161L80.8918 164.25L88.454 164.907V167.209L82.207 166.551Z" fill="#6075B4" stroke="black"/>
<path d="M74.3162 265.188L97.3314 272.092V260.256L74.3162 254.009V265.188Z" fill="#7D79C5" stroke="black"/>
<path d="M102.592 215.541L129.224 222.116L96.6736 229.021L70.0417 222.116L102.592 215.541Z" fill="#4C64A4" stroke="black" stroke-linejoin="round"/>
<path d="M129.553 254.337L96.6738 260.913V229.021L129.553 222.116V254.337Z" fill="#2D4174" stroke="black" stroke-linejoin="round"/>
<path d="M70.0418 254.337L96.6737 260.913V229.021L70.0418 222.116V254.337Z" fill="#3C4785" stroke="black" stroke-linejoin="round"/>
<path d="M117.716 278.668L147.965 269.462V255.324L129.224 232.966L96.6738 240.528V271.435L117.716 278.668Z" fill="#798ADA" stroke="black" stroke-linejoin="round"/>
<path d="M96.6738 272.092L117.059 279.325V264.53L96.6738 240.857V272.092Z" fill="#7F83DC" stroke="black" stroke-linejoin="round"/>
<path d="M117.059 279.326L147.965 269.462V255.324L117.059 264.53V279.326Z" fill="#393780" stroke="black" stroke-linejoin="round"/>
<path d="M73.6585 220.801L96.6737 226.719V212.581L73.6585 207.321V220.801Z" fill="#8781DF" stroke="black" stroke-linejoin="round"/>
<path d="M118.045 221.787L96.6738 226.719V212.581L118.045 208.307V221.787Z" fill="#46498E" stroke="black" stroke-linejoin="round"/>
<path d="M96.6738 202.718L73.6586 207.321L96.6738 212.581L118.045 208.307L96.6738 202.718Z" fill="#9B9EF1" stroke="black" stroke-linejoin="round"/>
<path d="M95.3586 189.238L81.8783 191.539L95.3586 210.28L108.51 207.321L95.3586 189.238Z" fill="#46498E" stroke="black" stroke-linejoin="round"/>
<path d="M67.0828 189.566L81.8783 191.539L95.3586 210.28L77.2752 206.335L67.0828 189.566Z" fill="#8781DF" stroke="black" stroke-linejoin="round"/>
<path d="M75.3025 197.128L83.851 198.772L89.7692 208.965L81.2207 206.992L75.3025 197.128Z" fill="#3B5C89" stroke="black" stroke-linejoin="round"/>
<ellipse cx="7.89092" cy="9.53487" rx="7.89092" ry="9.53487" transform="matrix(-1 0 0 1 73.9874 173.127)" fill="#5661B1" stroke="black"/>
<ellipse cx="7.89092" cy="9.53487" rx="7.89092" ry="9.53487" transform="matrix(-1 0 0 1 75.9601 173.127)" fill="#2A225B" stroke="black"/>
<path d="M68.0691 189.566C64.8006 189.566 62.1509 186.475 62.1509 182.662C62.1509 178.849 64.8006 175.757 68.0691 175.757C68.4052 175.757 68.7347 175.79 69.0555 175.853L87.4677 178.059V192.197L68.0691 189.566Z" fill="#4D5FA9" stroke="black"/>
<ellipse cx="7.89092" cy="9.53487" rx="7.89092" ry="9.53487" transform="matrix(-1 0 0 1 97.6601 177.072)" fill="#5661B1" stroke="black"/>
<ellipse cx="7.89092" cy="9.53487" rx="7.89092" ry="9.53487" transform="matrix(-1 0 0 1 98.9753 177.072)" fill="#2A225B" stroke="black"/>
<ellipse cx="3.28788" cy="4.27425" rx="3.28788" ry="4.27425" transform="matrix(-1 0 0 1 94.3723 182.333)" fill="#42478E" stroke="black"/>
<path d="M105.551 106.712L108.839 109.013C97.0025 137.947 101.277 171.483 107.853 185.95L103.578 187.594L92.5026 184.548C91.2066 184.191 90.1695 183.204 89.7782 181.918C80.1447 150.26 86.7676 121.061 92.2352 107.959C92.8853 106.401 94.5052 105.517 96.1835 105.699L105.551 106.712Z" fill="#948AFB" stroke="black"/>
<path d="M105.551 106.712L108.839 109.013C97.0025 137.947 101.277 171.483 107.853 185.95L103.578 187.594C103.578 187.594 95.3044 167.209 96.6738 147.81C98.2519 125.453 103.578 110.328 105.551 106.712Z" fill="#423096" stroke="black"/>
<path d="M100.133 150.44C100.133 172.044 106.604 191.582 117.043 205.708C127.481 219.834 141.862 228.521 157.701 228.521H185.933V72.3599H157.701C141.862 72.3599 127.481 81.0468 117.043 95.1727C106.604 109.299 100.133 128.837 100.133 150.44Z" fill="#4C3F97" stroke="black"/>
<path d="M170.651 235.597C135.787 235.597 107.524 197.471 107.524 150.44C107.524 103.41 135.787 65.2842 170.651 65.2842H201.886V235.597H170.651Z" fill="#D9D9D9" stroke="black"/>
<ellipse cx="63.1274" cy="85.1562" rx="63.1274" ry="85.1562" transform="matrix(-1 0 0 1 265.342 65.2842)" fill="#6659CB" stroke="black"/>
<path d="M167.363 100.465L162.103 85.3403L130.868 84.0251C126.265 88.957 109.795 111.036 107.524 139.262C105.222 167.866 110.812 183.977 117.716 197.128L149.937 197.786L159.472 189.566C142.704 155.372 151.253 117.89 167.363 100.465Z" fill="#7B8EDB"/>
<path d="M162.103 85.3403L167.363 100.465C151.253 117.89 142.704 155.372 159.472 189.566L149.937 197.786M162.103 85.3403L130.868 84.0251C126.265 88.957 109.795 111.036 107.524 139.262C105.222 167.866 110.812 183.977 117.716 197.128L149.937 197.786M162.103 85.3403C128.237 124.137 139.416 177.401 149.937 197.786" stroke="black"/>
<path d="M149.937 197.786L118.045 196.8C130.407 225.733 155.198 234.501 166.048 235.268H198.072C199.874 235.404 201.49 235.391 202.872 235.268C217.076 235.268 227.86 228.473 231.477 225.076L224.244 220.473C221.065 224.528 210.106 231.586 191.694 227.377C173.281 223.169 159.363 203.156 154.705 193.676L149.937 197.786Z" fill="#728BC4"/>
<path d="M149.937 197.786L118.045 196.8C130.407 225.733 155.198 234.501 166.048 235.268C172.405 235.268 188.669 235.268 202.872 235.268M149.937 197.786L154.705 193.676C159.363 203.156 173.281 223.169 191.694 227.377C210.106 231.586 221.065 224.528 224.244 220.473L231.477 225.076C227.86 228.473 217.076 235.268 202.872 235.268M149.937 197.786C165.719 230.139 191.803 236.254 202.872 235.268" stroke="black"/>
<path d="M149.937 197.786L118.045 196.8C130.407 225.733 155.198 234.501 166.048 235.268H198.072C199.874 235.403 201.49 235.391 202.872 235.268H198.072C185.449 234.318 163.748 226.098 149.937 197.786Z" fill="#4D4F79" stroke="black"/>
<ellipse cx="44.7152" cy="60.8259" rx="44.7152" ry="60.8259" transform="matrix(-1 0 0 1 246.93 89.6145)" fill="#7440E1" stroke="black"/>
<g filter="url(#filter0_d_32095_174)">
<ellipse cx="41.7561" cy="57.538" rx="41.7561" ry="57.538" transform="matrix(-1 0 0 1 241.012 92.9023)" fill="url(#paint0_radial_32095_174)"/>
<ellipse cx="41.7561" cy="57.538" rx="41.7561" ry="57.538" transform="matrix(-1 0 0 1 241.012 92.9023)" stroke="black"/>
</g>
<path d="M219.312 83.6963L222.271 69.5583C266.986 90.6008 267.973 147.262 263.041 172.469L254.821 169.181C259.293 107.632 233.011 86.5458 219.312 83.6963Z" fill="#7B8EDB" stroke="black"/>
<path d="M182.552 307.215L249.638 285.103C248.014 271.615 241.566 264.764 235.118 261.943L214.034 255.495L148.475 274.839V296.201L182.552 307.215Z" fill="#71BDEF" stroke="black" stroke-linejoin="round"/>
<path d="M148.475 296.201L182.326 307.078C181.577 301.206 179.035 287.293 170.64 282.496C162.245 277.698 152.223 274.839 148.475 274.839V296.201Z" fill="#1498C8" stroke="black" stroke-linejoin="round"/>
<path d="M207.014 299.147L231.088 291.362C228.989 269.474 217.386 265.57 196.834 260.331L172.655 267.585C204.491 274.436 206.139 289.903 207.014 299.147Z" fill="#1498C8" stroke="black" stroke-linejoin="round"/>
<path d="M152.102 297.003L177.49 305.466C176.92 301.007 174.67 291.361 168.46 286.526C162.658 282.007 152.102 280.283 152.102 280.283V297.003Z" fill="#8A7CD3" stroke="black" stroke-linejoin="round"/>
<path d="M201.886 235.596L201.89 235.096C201.756 235.095 201.628 235.147 201.534 235.241C201.439 235.335 201.386 235.462 201.386 235.596H201.886ZM263.257 128.651L262.764 128.736L262.766 128.747L263.257 128.651ZM222.271 69.5584L222.484 69.106C222.346 69.0409 222.185 69.0427 222.048 69.1109C221.911 69.1791 221.813 69.3063 221.782 69.456L222.271 69.5584ZM222.249 69.6621L222.044 70.1179C222.182 70.1802 222.341 70.1765 222.476 70.1078C222.611 70.0391 222.708 69.9129 222.739 69.7645L222.249 69.6621ZM201.886 65.2853H201.386C201.386 65.4185 201.439 65.5462 201.534 65.6401C201.628 65.7339 201.756 65.7862 201.89 65.7853L201.886 65.2853ZM201.886 65.2842H202.386C202.386 65.0081 202.162 64.7842 201.886 64.7842V65.2842ZM141.271 75.0498L141.456 75.5143C141.493 75.4996 141.528 75.4805 141.56 75.4574L141.271 75.0498ZM108.468 108.754L108.182 109.163C108.303 109.248 108.456 109.275 108.598 109.236C108.741 109.198 108.86 109.098 108.922 108.964L108.468 108.754ZM105.551 106.712L105.838 106.302C105.769 106.254 105.689 106.224 105.605 106.214L105.551 106.712ZM87.8244 122.137L88.178 122.49C88.2445 122.424 88.2909 122.34 88.3118 122.248L87.8244 122.137ZM78.2616 131.699L77.9081 131.346C77.8143 131.44 77.7616 131.567 77.7616 131.699H78.2616ZM78.2616 157.016H77.7616C77.7616 157.274 77.9572 157.489 78.2134 157.514L78.2616 157.016ZM78.4101 157.031L78.8527 157.263C78.9302 157.116 78.9292 156.939 78.85 156.793C78.7709 156.646 78.624 156.549 78.4583 156.533L78.4101 157.031ZM69.8279 173.365L69.6953 173.847C69.9218 173.909 70.1612 173.805 70.2705 173.597L69.8279 173.365ZM67.0829 173.201L67.0084 173.695C67.0578 173.702 67.108 173.702 67.1574 173.695L67.0829 173.201ZM67.0829 192.123L67.1574 191.628C67.108 191.621 67.0578 191.621 67.0084 191.628L67.0829 192.123ZM68.6653 192.17L69.0926 191.91C68.9935 191.747 68.8103 191.655 68.6204 191.672L68.6653 192.17ZM77.2753 206.335L76.848 206.594C76.9191 206.711 77.035 206.794 77.1687 206.823L77.2753 206.335ZM77.904 206.472L78.0021 206.962C78.2342 206.916 78.402 206.713 78.404 206.476C78.4061 206.239 78.2419 206.034 78.0106 205.983L77.904 206.472ZM73.6586 207.321L73.5606 206.831C73.3294 206.877 73.1619 207.078 73.1587 207.314C73.1555 207.55 73.3174 207.756 73.5472 207.808L73.6586 207.321ZM96.5624 213.069C96.8316 213.13 97.0997 212.962 97.1612 212.693C97.2228 212.424 97.0544 212.156 96.7852 212.094L96.5624 213.069ZM73.6586 207.321L73.77 206.833C73.6216 206.8 73.4659 206.835 73.3469 206.93C73.2279 207.025 73.1586 207.169 73.1586 207.321H73.6586ZM73.6586 220.801H73.1586C73.1586 221.029 73.3131 221.229 73.534 221.285L73.6586 220.801ZM74.9316 221.129L75.0306 221.619C75.259 221.573 75.4253 221.375 75.4314 221.142C75.4375 220.909 75.2818 220.702 75.0561 220.644L74.9316 221.129ZM70.0419 222.116L69.9429 221.626C69.7096 221.673 69.5419 221.878 69.5419 222.116H70.0419ZM70.0419 241.966L70.2025 242.439C70.4054 242.37 70.5419 242.18 70.5419 241.966H70.0419ZM3 264.699L2.83943 264.226C2.63652 264.295 2.5 264.485 2.5 264.699H3ZM3 273.319H2.5C2.5 273.535 2.63755 273.726 2.84155 273.794L3 273.319ZM14.2435 277.076H14.7435C14.7435 276.861 14.6059 276.67 14.4019 276.602L14.2435 277.076ZM14.2435 361.393H13.7435C13.7435 361.607 13.8797 361.797 14.0823 361.866L14.2435 361.393ZM24.8012 364.988L25.2428 365.223C25.3115 365.093 25.32 364.94 25.266 364.804C25.212 364.668 25.101 364.562 24.9623 364.515L24.8012 364.988ZM5.01091 402.264L4.56929 402.03C4.50171 402.157 4.49234 402.307 4.54359 402.442C4.59484 402.577 4.70172 402.683 4.83682 402.733L5.01091 402.264ZM18.1282 407.136L17.9541 407.605C18.0099 407.626 18.0688 407.636 18.1282 407.636V407.136ZM23.3752 407.136V407.636C23.56 407.636 23.7297 407.535 23.8165 407.371L23.3752 407.136ZM23.7663 406.402L23.9279 405.929C23.6957 405.849 23.4402 405.95 23.3249 406.167L23.7663 406.402ZM67.2596 421.262L67.7115 421.476C67.7724 421.347 67.7756 421.199 67.7201 421.068C67.6647 420.936 67.556 420.835 67.4212 420.789L67.2596 421.262ZM66.8497 422.128L66.3978 421.914C66.3369 422.042 66.3337 422.191 66.3891 422.322C66.4445 422.453 66.5531 422.555 66.6879 422.601L66.8497 422.128ZM81.0914 427L80.9295 427.473C81.0489 427.514 81.1792 427.508 81.2944 427.457L81.0914 427ZM87.8374 424.002L88.0405 424.458C88.1483 424.411 88.2357 424.326 88.2873 424.22L87.8374 424.002ZM103.475 391.779L103.636 391.305C103.397 391.224 103.135 391.333 103.025 391.56L103.475 391.779ZM114.334 395.476L114.668 395.848C114.8 395.729 114.859 395.55 114.824 395.376C114.788 395.202 114.663 395.06 114.495 395.003L114.334 395.476ZM114.31 395.498L113.975 395.126C113.843 395.245 113.784 395.425 113.82 395.599C113.856 395.772 113.981 395.914 114.149 395.971L114.31 395.498ZM170.04 414.446L170.538 414.489C170.558 414.26 170.419 414.047 170.201 413.972L170.04 414.446ZM170.029 414.568L170.527 414.612V414.611L170.029 414.568ZM169.963 415.322L169.465 415.278C169.45 415.445 169.52 415.608 169.651 415.713C169.783 415.817 169.958 415.849 170.118 415.797L169.963 415.322ZM204.364 404.112L204.519 404.587C204.716 404.523 204.853 404.344 204.864 404.137L204.364 404.112ZM204.43 402.782L204.265 402.31C204.073 402.378 203.94 402.555 203.931 402.759L204.43 402.782ZM274.716 378.258L274.881 378.73C275.073 378.663 275.205 378.487 275.215 378.283L274.716 378.258ZM260.209 291.563L260.044 291.091C259.91 291.138 259.802 291.24 259.747 291.37C259.693 291.501 259.696 291.649 259.757 291.777L260.209 291.563ZM270.594 287.936L270.758 288.408C270.849 288.376 270.929 288.319 270.988 288.243L270.594 287.936ZM270.968 280.065L271.415 279.842C271.356 279.722 271.25 279.632 271.123 279.59L270.968 280.065ZM245.6 271.788L245.163 272.031C245.225 272.141 245.325 272.224 245.445 272.264L245.6 271.788ZM235.118 261.943L235.318 261.485C235.301 261.477 235.283 261.471 235.264 261.465L235.118 261.943ZM214.034 255.495L214.18 255.017C214.086 254.989 213.986 254.988 213.892 255.016L214.034 255.495ZM204.389 258.341L204.234 258.817C204.33 258.848 204.433 258.849 204.53 258.821L204.389 258.341ZM130.204 234.135L129.821 234.456C129.881 234.528 129.96 234.582 130.049 234.611L130.204 234.135ZM129.553 233.359H129.053C129.053 233.476 129.094 233.59 129.169 233.68L129.553 233.359ZM129.553 222.116H130.053C130.053 221.966 129.985 221.823 129.868 221.728C129.751 221.633 129.597 221.596 129.45 221.627L129.553 222.116ZM96.6763 229.02L96.5726 228.531C96.3026 228.589 96.1301 228.854 96.1871 229.124C96.2441 229.394 96.509 229.566 96.7791 229.51L96.6763 229.02ZM129.224 222.116L129.327 222.606C129.555 222.557 129.72 222.358 129.724 222.125C129.727 221.892 129.57 221.687 129.344 221.631L129.224 222.116ZM118.045 219.356H117.545C117.545 219.586 117.702 219.787 117.925 219.842L118.045 219.356ZM118.045 208.307H118.545C118.545 208.08 118.392 207.881 118.172 207.823L118.045 208.307ZM107.156 205.459L106.752 205.753C106.82 205.847 106.918 205.914 107.03 205.943L107.156 205.459ZM97.4928 192.172L97.0632 191.916C96.9608 192.088 96.9707 192.304 97.0884 192.466L97.4928 192.172ZM98.972 186.327L99.1046 185.845C98.9521 185.803 98.7888 185.835 98.6642 185.933C98.5396 186.03 98.4684 186.181 98.4721 186.339L98.972 186.327ZM103.578 187.594L103.446 188.076C103.549 188.104 103.658 188.099 103.758 188.06L103.578 187.594ZM106.136 186.61L106.603 186.431C106.556 186.307 106.461 186.207 106.339 186.153C106.218 186.099 106.081 186.095 105.957 186.143L106.136 186.61ZM141.271 225.831L141.561 225.424C141.528 225.401 141.493 225.381 141.456 225.367L141.271 225.831ZM201.886 235.597V236.097C202.162 236.097 202.386 235.873 202.386 235.597H201.886ZM88.4566 177.204L88.5558 177.694C88.6901 177.667 88.8074 177.585 88.8803 177.469C88.9531 177.353 88.975 177.212 88.9409 177.079L88.4566 177.204ZM86.3343 166.986L86.828 166.907C86.7923 166.683 86.6114 166.512 86.3866 166.488L86.3343 166.986ZM86.476 177.94L86.4165 178.436C86.521 178.449 86.6268 178.428 86.7188 178.377L86.476 177.94ZM77.3795 176.85L76.9267 176.638C76.8586 176.783 76.8644 176.952 76.9423 177.093C77.0201 177.233 77.1606 177.327 77.32 177.346L77.3795 176.85ZM82.2071 166.551L82.2594 166.054C82.0475 166.031 81.8448 166.146 81.7543 166.339L82.2071 166.551ZM82.2058 191.483L82.29 191.976C82.5334 191.934 82.71 191.721 82.7058 191.475C82.7015 191.228 82.5177 191.021 82.273 190.988L82.2058 191.483ZM72.8816 190.219L72.9488 189.723C72.8009 189.703 72.6518 189.75 72.5422 189.852L72.8816 190.219ZM81.8783 191.539L81.8122 192.035C81.8622 192.041 81.9128 192.04 81.9625 192.032L81.8783 191.539ZM72.7663 190.324L72.4311 189.953C72.2866 190.084 72.231 190.286 72.2888 190.472C72.3465 190.658 72.5071 190.794 72.7002 190.82L72.7663 190.324ZM72.812 190.283L73.1472 190.654L73.1493 190.652L72.812 190.283ZM72.8383 190.259L73.1756 190.628L73.1777 190.626L72.8383 190.259ZM202.081 235.096C202.017 235.096 201.953 235.096 201.89 235.096L201.883 236.095C201.948 236.096 202.013 236.096 202.078 236.096L202.081 235.096ZM202.216 235.097L202.081 235.096L202.078 236.096L202.214 236.097L202.216 235.097ZM264.842 150.44C264.842 173.859 257.805 195.041 246.451 210.357C235.097 225.673 219.452 235.097 202.215 235.097L202.214 236.097C219.841 236.097 235.761 226.457 247.254 210.953C258.748 195.448 265.842 174.052 265.842 150.44H264.842ZM262.766 128.747C264.121 135.67 264.842 142.941 264.842 150.44H265.842C265.842 142.877 265.114 135.542 263.748 128.555L262.766 128.747ZM222.058 70.0108C247.647 82.0527 258.829 105.858 262.764 128.736L263.75 128.566C259.784 105.51 248.479 81.3391 222.484 69.106L222.058 70.0108ZM222.739 69.7645L222.76 69.6608L221.782 69.456L221.76 69.5597L222.739 69.7645ZM202.215 65.7842C209.143 65.7842 215.81 67.3058 222.044 70.1179L222.455 69.2063C216.099 66.3391 209.293 64.7842 202.215 64.7842V65.7842ZM201.89 65.7853C201.998 65.7846 202.106 65.7842 202.215 65.7842V64.7842C202.104 64.7842 201.993 64.7846 201.883 64.7853L201.89 65.7853ZM201.386 65.2842V65.2853H202.386V65.2842H201.386ZM170.651 65.7842H201.886V64.7842H170.651V65.7842ZM141.56 75.4574C150.261 69.2745 160.158 65.7842 170.651 65.7842V64.7842C159.928 64.7842 149.832 68.353 140.981 74.6423L141.56 75.4574ZM108.922 108.964C116.327 92.9833 127.864 80.9301 141.456 75.5143L141.086 74.5853C127.202 80.1175 115.499 92.3905 108.015 108.543L108.922 108.964ZM105.264 107.121L108.182 109.163L108.755 108.344L105.838 106.302L105.264 107.121ZM96.1298 106.196L105.497 107.209L105.605 106.214L96.2373 105.202L96.1298 106.196ZM92.6967 108.151C93.2552 106.813 94.6551 106.037 96.1298 106.196L96.2373 105.202C94.3555 104.998 92.5155 105.989 91.7738 107.766L92.6967 108.151ZM88.3118 122.248C89.6223 116.519 91.2051 111.726 92.6967 108.151L91.7738 107.766C90.2582 111.398 88.6589 116.246 87.337 122.025L88.3118 122.248ZM78.6152 132.053L88.178 122.49L87.4709 121.783L77.9081 131.346L78.6152 132.053ZM78.7616 157.016V131.699H77.7616V157.016H78.7616ZM78.4583 156.533L78.3098 156.519L78.2134 157.514L78.3619 157.528L78.4583 156.533ZM70.2705 173.597L78.8527 157.263L77.9675 156.798L69.3852 173.132L70.2705 173.597ZM68.0692 173.627C68.6281 173.627 69.1721 173.703 69.6953 173.847L69.9604 172.882C69.3525 172.715 68.7193 172.627 68.0692 172.627V173.627ZM67.1574 173.695C67.456 173.65 67.7603 173.627 68.0692 173.627V172.627C67.7101 172.627 67.356 172.654 67.0084 172.706L67.1574 173.695ZM66.0965 173.627C66.4055 173.627 66.7098 173.65 67.0084 173.695L67.1574 172.706C66.8097 172.654 66.4556 172.627 66.0965 172.627V173.627ZM58.7056 182.662C58.7056 177.579 62.099 173.627 66.0965 173.627V172.627C61.3779 172.627 57.7056 177.212 57.7056 182.662H58.7056ZM66.0965 191.697C62.099 191.697 58.7056 187.744 58.7056 182.662H57.7056C57.7056 188.111 61.3779 192.697 66.0965 192.697V191.697ZM67.0084 191.628C66.7098 191.673 66.4055 191.697 66.0965 191.697V192.697C66.4556 192.697 66.8097 192.67 67.1574 192.617L67.0084 191.628ZM68.0692 191.697C67.7603 191.697 67.456 191.673 67.1574 191.628L67.0084 192.617C67.356 192.67 67.7101 192.697 68.0692 192.697V191.697ZM68.6204 191.672C68.4385 191.688 68.2547 191.697 68.0692 191.697V192.697C68.2848 192.697 68.4986 192.687 68.7103 192.668L68.6204 191.672ZM77.7025 206.075L69.0926 191.91L68.2381 192.43L76.848 206.594L77.7025 206.075ZM78.0106 205.983L77.3819 205.846L77.1687 206.823L77.7975 206.96L78.0106 205.983ZM73.7567 207.811L78.0021 206.962L77.806 205.981L73.5606 206.831L73.7567 207.811ZM96.7852 212.094L73.77 206.833L73.5472 207.808L96.5624 213.069L96.7852 212.094ZM73.5472 207.808L96.5624 213.069L96.7852 212.094L73.77 206.833L73.5472 207.808ZM74.1586 220.801V207.321H73.1586V220.801H74.1586ZM75.0561 220.644L73.7831 220.317L73.534 221.285L74.8071 221.613L75.0561 220.644ZM70.1409 222.606L75.0306 221.619L74.8326 220.638L69.9429 221.626L70.1409 222.606ZM70.5419 241.966V222.116H69.5419V241.966H70.5419ZM3.16057 265.173L70.2025 242.439L69.8813 241.492L2.83943 264.226L3.16057 265.173ZM3.5 273.319V264.699H2.5V273.319H3.5ZM14.4019 276.602L3.15845 272.845L2.84155 273.794L14.085 277.55L14.4019 276.602ZM14.7435 361.393V277.076H13.7435V361.393H14.7435ZM24.9623 364.515L14.4047 360.92L14.0823 361.866L24.64 365.461L24.9623 364.515ZM5.45253 402.499L25.2428 365.223L24.3595 364.754L4.56929 402.03L5.45253 402.499ZM18.3023 406.668L5.185 401.796L4.83682 402.733L17.9541 407.605L18.3023 406.668ZM23.3752 406.636H18.1282V407.636H23.3752V406.636ZM23.3249 406.167L22.9338 406.902L23.8165 407.371L24.2076 406.637L23.3249 406.167ZM67.4212 420.789L23.9279 405.929L23.6046 406.875L67.0979 421.735L67.4212 420.789ZM67.3016 422.342L67.7115 421.476L66.8077 421.048L66.3978 421.914L67.3016 422.342ZM81.2532 426.527L67.0115 421.655L66.6879 422.601L80.9295 427.473L81.2532 426.527ZM87.6344 423.545L80.8883 426.543L81.2944 427.457L88.0405 424.458L87.6344 423.545ZM103.025 391.56L87.3876 423.783L88.2873 424.22L103.925 391.997L103.025 391.56ZM114.495 395.003L103.636 391.305L103.314 392.252L114.173 395.95L114.495 395.003ZM114.644 395.87L114.668 395.848L113.999 395.105L113.975 395.126L114.644 395.87ZM170.201 413.972L114.471 395.025L114.149 395.971L169.879 414.919L170.201 413.972ZM170.527 414.611L170.538 414.489L169.542 414.402L169.531 414.525L170.527 414.611ZM170.461 415.365L170.527 414.612L169.531 414.524L169.465 415.278L170.461 415.365ZM170.527 414.612L169.808 414.846L170.118 415.797L170.837 415.563L170.527 414.612ZM203.883 403.743L170.527 414.612L170.837 415.563L204.192 404.694L203.883 403.743ZM204.21 403.637L203.883 403.743L204.192 404.694L204.519 404.587L204.21 403.637ZM203.883 403.743L203.865 404.087L204.864 404.137L204.881 403.794L203.883 403.743ZM203.931 402.759C203.915 403.086 203.899 403.414 203.883 403.743L204.881 403.794C204.898 403.464 204.914 403.134 204.929 402.806L203.931 402.759ZM274.551 377.786L204.265 402.31L204.595 403.254L274.881 378.73L274.551 377.786ZM259.757 291.777C266.698 306.442 276.333 336.62 274.217 378.233L275.215 378.283C277.34 336.495 267.668 306.153 260.661 291.35L259.757 291.777ZM270.429 287.464L260.044 291.091L260.374 292.035L270.758 288.408L270.429 287.464ZM270.521 280.289C271.582 282.412 271.49 284.251 271.141 285.558C270.966 286.216 270.725 286.741 270.529 287.099C270.432 287.278 270.346 287.415 270.286 287.505C270.256 287.55 270.232 287.583 270.217 287.604C270.21 287.614 270.204 287.622 270.201 287.626C270.2 287.628 270.199 287.629 270.198 287.63C270.198 287.629 270.199 287.629 270.199 287.629C270.199 287.629 270.199 287.629 270.594 287.936C270.988 288.243 270.988 288.243 270.989 288.242C270.989 288.241 270.99 288.241 270.99 288.241C270.991 288.24 270.992 288.238 270.993 288.237C270.995 288.234 270.997 288.231 271.001 288.226C271.007 288.217 271.016 288.205 271.028 288.19C271.05 288.159 271.08 288.116 271.118 288.06C271.193 287.947 271.294 287.785 271.407 287.578C271.633 287.164 271.908 286.564 272.107 285.816C272.508 284.312 272.603 282.217 271.415 279.842L270.521 280.289ZM245.445 272.264L270.813 280.541L271.123 279.59L245.755 271.313L245.445 272.264ZM234.918 262.401C238.651 264.034 242.398 267.059 245.163 272.031L246.037 271.545C243.164 266.379 239.248 263.205 235.318 261.485L234.918 262.401ZM213.887 255.974L234.972 262.421L235.264 261.465L214.18 255.017L213.887 255.974ZM204.53 258.821L214.175 255.975L213.892 255.016L204.247 257.862L204.53 258.821ZM130.049 234.611L204.234 258.817L204.544 257.866L130.359 233.66L130.049 234.611ZM129.169 233.68L129.821 234.456L130.587 233.814L129.936 233.037L129.169 233.68ZM129.053 222.116V233.359H130.053V222.116H129.053ZM96.7791 229.51L129.655 222.606L129.45 221.627L96.5726 228.531L96.7791 229.51ZM129.12 221.627L96.5726 228.531L96.7791 229.51L129.327 222.606L129.12 221.627ZM117.925 219.842L129.104 222.602L129.344 221.631L118.165 218.871L117.925 219.842ZM117.545 208.307V219.356H118.545V208.307H117.545ZM107.03 205.943L117.919 208.791L118.172 207.823L107.283 204.976L107.03 205.943ZM97.0884 192.466L106.752 205.753L107.561 205.165L97.8971 191.878L97.0884 192.466ZM98.4753 186.607C98.4753 188.597 97.9489 190.43 97.0632 191.916L97.9223 192.428C98.9027 190.782 99.4753 188.772 99.4753 186.607H98.4753ZM98.4721 186.339C98.4743 186.428 98.4753 186.517 98.4753 186.607H99.4753C99.4753 186.509 99.4742 186.412 99.4718 186.315L98.4721 186.339ZM103.711 187.111L99.1046 185.845L98.8394 186.809L103.446 188.076L103.711 187.111ZM105.957 186.143L103.399 187.127L103.758 188.06L106.316 187.076L105.957 186.143ZM141.456 225.367C126.348 219.347 113.778 205.125 106.603 186.431L105.669 186.789C112.917 205.671 125.654 220.147 141.086 226.296L141.456 225.367ZM170.651 235.097C160.158 235.097 150.261 231.606 141.561 225.424L140.981 226.239C149.832 232.528 159.928 236.097 170.651 236.097V235.097ZM201.886 235.097H170.651V236.097H201.886V235.097ZM201.386 235.596V235.597H202.386V235.596H201.386ZM88.9409 177.079C88.0591 173.645 87.3625 170.248 86.828 166.907L85.8406 167.064C86.3798 170.435 87.0826 173.862 87.9723 177.328L88.9409 177.079ZM86.7188 178.377C87.2971 178.056 87.9133 177.824 88.5558 177.694L88.3575 176.714C87.6095 176.865 86.8968 177.134 86.2331 177.503L86.7188 178.377ZM77.32 177.346L86.4165 178.436L86.5354 177.443L77.439 176.353L77.32 177.346ZM81.7543 166.339L76.9267 176.638L77.8322 177.062L82.6598 166.763L81.7543 166.339ZM86.3866 166.488L82.2594 166.054L82.1547 167.048L86.282 167.483L86.3866 166.488ZM82.273 190.988L72.9488 189.723L72.8144 190.714L82.1387 191.979L82.273 190.988ZM81.9625 192.032L82.29 191.976L82.1217 190.99L81.7942 191.046L81.9625 192.032ZM72.7002 190.82L81.8122 192.035L81.9444 191.043L72.8324 189.829L72.7002 190.82ZM72.4768 189.912L72.4311 189.953L73.1015 190.695L73.1472 190.654L72.4768 189.912ZM72.5009 189.89L72.4747 189.914L73.1493 190.652L73.1756 190.628L72.5009 189.89ZM72.5422 189.852L72.4989 189.892L73.1777 190.626L73.221 190.586L72.5422 189.852Z" fill="black"/>
<path opacity="0.5" fill-rule="evenodd" clip-rule="evenodd" d="M201.886 235.596C201.95 235.596 202.015 235.596 202.079 235.596L202.215 235.597C237.079 235.597 265.342 197.471 265.342 150.44C265.342 142.909 264.617 135.606 263.257 128.651C259.306 105.684 248.063 81.6959 222.271 69.5584L222.249 69.6621C215.955 66.8224 209.218 65.2842 202.215 65.2842C202.105 65.2842 201.996 65.2846 201.886 65.2853V65.2842H170.651C160.043 65.2842 150.046 68.8138 141.271 75.0498C127.533 80.5238 115.913 92.6869 108.468 108.754L105.551 106.712L96.1835 105.699C94.5053 105.517 92.8853 106.401 92.2352 107.959C90.7316 111.562 89.1406 116.383 87.8244 122.137L78.2616 131.699V157.016L78.4101 157.031L69.8279 173.365C69.2623 173.209 68.6737 173.127 68.0692 173.127C67.7352 173.127 67.406 173.152 67.0829 173.201C66.7597 173.152 66.4305 173.127 66.0965 173.127C61.7385 173.127 58.2056 177.396 58.2056 182.662C58.2056 187.928 61.7385 192.197 66.0965 192.197C66.4305 192.197 66.7597 192.172 67.0829 192.123C67.406 192.172 67.7352 192.197 68.0692 192.197C68.2698 192.197 68.4685 192.188 68.6653 192.17L77.2753 206.335L77.904 206.472L73.6586 207.321V220.801L74.9316 221.129L70.0419 222.116V241.966L3 264.699V273.319L14.2435 277.076V361.393L24.8012 364.988L5.01091 402.264L18.1282 407.136H23.3752L23.7663 406.402L67.2596 421.262L66.8497 422.128L81.0914 427L87.8374 424.002L103.475 391.779L114.334 395.476L114.31 395.498L170.04 414.446L170.029 414.568L169.963 415.322L170.682 415.087L204.037 404.219L204.364 404.112L204.382 403.769C204.399 403.439 204.415 403.11 204.43 402.782L274.716 378.258C276.837 336.557 267.183 306.297 260.209 291.563L270.594 287.936C270.594 287.936 273.217 284.563 270.968 280.065L245.6 271.788C242.781 266.719 238.95 263.62 235.118 261.943L214.034 255.495L204.389 258.341L130.204 234.135L129.553 233.359V222.116L96.6763 229.02L129.224 222.116L118.045 219.356V208.307L107.156 205.459L97.4928 192.172C98.4258 190.606 98.9753 188.684 98.9753 186.607C98.9753 186.513 98.9742 186.42 98.972 186.327L103.578 187.594L106.136 186.61C113.347 205.398 126.001 219.747 141.271 225.831C150.046 232.067 160.043 235.597 170.651 235.597H201.886V235.596ZM86.3343 166.986C86.8711 170.342 87.5709 173.754 88.4566 177.204C87.7614 177.344 87.097 177.595 86.476 177.94L77.3795 176.85L82.2071 166.551L86.3343 166.986ZM72.8816 190.219L82.2058 191.483L81.8783 191.539L72.7663 190.324L72.812 190.283L72.8383 190.259L72.8816 190.219Z" fill="black"/>
<path opacity="0.5" d="M201.886 235.596L201.89 235.096C201.756 235.095 201.628 235.147 201.534 235.241C201.439 235.335 201.386 235.462 201.386 235.596H201.886ZM263.257 128.651L262.764 128.736L262.766 128.747L263.257 128.651ZM222.271 69.5584L222.484 69.106C222.346 69.0409 222.185 69.0427 222.048 69.1109C221.911 69.1791 221.813 69.3063 221.782 69.456L222.271 69.5584ZM222.249 69.6621L222.044 70.1179C222.182 70.1802 222.341 70.1765 222.476 70.1078C222.611 70.0391 222.708 69.9129 222.739 69.7645L222.249 69.6621ZM201.886 65.2853H201.386C201.386 65.4185 201.439 65.5462 201.534 65.6401C201.628 65.7339 201.756 65.7862 201.89 65.7853L201.886 65.2853ZM201.886 65.2842H202.386C202.386 65.0081 202.162 64.7842 201.886 64.7842V65.2842ZM141.271 75.0498L141.456 75.5143C141.493 75.4996 141.528 75.4805 141.56 75.4574L141.271 75.0498ZM108.468 108.754L108.182 109.163C108.303 109.248 108.456 109.275 108.598 109.236C108.741 109.198 108.86 109.098 108.922 108.964L108.468 108.754ZM105.551 106.712L105.838 106.302C105.769 106.254 105.689 106.224 105.605 106.214L105.551 106.712ZM87.8244 122.137L88.178 122.49C88.2445 122.424 88.2909 122.34 88.3118 122.248L87.8244 122.137ZM78.2616 131.699L77.9081 131.346C77.8143 131.44 77.7616 131.567 77.7616 131.699H78.2616ZM78.2616 157.016H77.7616C77.7616 157.274 77.9572 157.489 78.2134 157.514L78.2616 157.016ZM78.4101 157.031L78.8527 157.263C78.9302 157.116 78.9292 156.939 78.85 156.793C78.7709 156.646 78.624 156.549 78.4583 156.533L78.4101 157.031ZM69.8279 173.365L69.6953 173.847C69.9218 173.909 70.1612 173.805 70.2705 173.597L69.8279 173.365ZM67.0829 173.201L67.0084 173.695C67.0578 173.702 67.108 173.702 67.1574 173.695L67.0829 173.201ZM67.0829 192.123L67.1574 191.628C67.108 191.621 67.0578 191.621 67.0084 191.628L67.0829 192.123ZM68.6653 192.17L69.0926 191.91C68.9935 191.747 68.8103 191.655 68.6204 191.672L68.6653 192.17ZM77.2753 206.335L76.848 206.594C76.9191 206.711 77.035 206.794 77.1687 206.823L77.2753 206.335ZM77.904 206.472L78.0021 206.962C78.2342 206.916 78.402 206.713 78.404 206.476C78.4061 206.239 78.2419 206.034 78.0106 205.983L77.904 206.472ZM73.6586 207.321L73.5606 206.831C73.3294 206.877 73.1619 207.078 73.1587 207.314C73.1555 207.55 73.3174 207.756 73.5472 207.808L73.6586 207.321ZM96.5624 213.069C96.8316 213.13 97.0997 212.962 97.1612 212.693C97.2228 212.424 97.0544 212.156 96.7852 212.094L96.5624 213.069ZM73.6586 207.321L73.77 206.833C73.6216 206.8 73.4659 206.835 73.3469 206.93C73.2279 207.025 73.1586 207.169 73.1586 207.321H73.6586ZM73.6586 220.801H73.1586C73.1586 221.029 73.3131 221.229 73.534 221.285L73.6586 220.801ZM74.9316 221.129L75.0306 221.619C75.259 221.573 75.4253 221.375 75.4314 221.142C75.4375 220.909 75.2818 220.702 75.0561 220.644L74.9316 221.129ZM70.0419 222.116L69.9429 221.626C69.7096 221.673 69.5419 221.878 69.5419 222.116H70.0419ZM70.0419 241.966L70.2025 242.439C70.4054 242.37 70.5419 242.18 70.5419 241.966H70.0419ZM3 264.699L2.83943 264.226C2.63652 264.295 2.5 264.485 2.5 264.699H3ZM3 273.319H2.5C2.5 273.535 2.63755 273.726 2.84155 273.794L3 273.319ZM14.2435 277.076H14.7435C14.7435 276.861 14.6059 276.67 14.4019 276.602L14.2435 277.076ZM14.2435 361.393H13.7435C13.7435 361.607 13.8797 361.797 14.0823 361.866L14.2435 361.393ZM24.8012 364.988L25.2428 365.223C25.3115 365.093 25.32 364.94 25.266 364.804C25.212 364.668 25.101 364.562 24.9623 364.515L24.8012 364.988ZM5.01091 402.264L4.56929 402.03C4.50171 402.157 4.49234 402.307 4.54359 402.442C4.59484 402.577 4.70172 402.683 4.83682 402.733L5.01091 402.264ZM18.1282 407.136L17.9541 407.605C18.0099 407.626 18.0688 407.636 18.1282 407.636V407.136ZM23.3752 407.136V407.636C23.56 407.636 23.7297 407.535 23.8165 407.371L23.3752 407.136ZM23.7663 406.402L23.9279 405.929C23.6957 405.849 23.4402 405.95 23.3249 406.167L23.7663 406.402ZM67.2596 421.262L67.7115 421.476C67.7724 421.347 67.7756 421.199 67.7201 421.068C67.6647 420.936 67.556 420.835 67.4212 420.789L67.2596 421.262ZM66.8497 422.128L66.3978 421.914C66.3369 422.042 66.3337 422.191 66.3891 422.322C66.4445 422.453 66.5531 422.555 66.6879 422.601L66.8497 422.128ZM81.0914 427L80.9295 427.473C81.0489 427.514 81.1792 427.508 81.2944 427.457L81.0914 427ZM87.8374 424.002L88.0405 424.458C88.1483 424.411 88.2357 424.326 88.2873 424.22L87.8374 424.002ZM103.475 391.779L103.636 391.305C103.397 391.224 103.135 391.333 103.025 391.56L103.475 391.779ZM114.334 395.476L114.668 395.848C114.8 395.729 114.859 395.55 114.824 395.376C114.788 395.202 114.663 395.06 114.495 395.003L114.334 395.476ZM114.31 395.498L113.975 395.126C113.843 395.245 113.784 395.425 113.82 395.599C113.856 395.772 113.981 395.914 114.149 395.971L114.31 395.498ZM170.04 414.446L170.538 414.489C170.558 414.26 170.419 414.047 170.201 413.972L170.04 414.446ZM170.029 414.568L170.527 414.612V414.611L170.029 414.568ZM169.963 415.322L169.465 415.278C169.45 415.445 169.52 415.608 169.651 415.713C169.783 415.817 169.958 415.849 170.118 415.797L169.963 415.322ZM204.364 404.112L204.519 404.587C204.716 404.523 204.853 404.344 204.864 404.137L204.364 404.112ZM204.43 402.782L204.265 402.31C204.073 402.378 203.94 402.555 203.931 402.759L204.43 402.782ZM274.716 378.258L274.881 378.73C275.073 378.663 275.205 378.487 275.215 378.283L274.716 378.258ZM260.209 291.563L260.044 291.091C259.91 291.138 259.802 291.24 259.747 291.37C259.693 291.501 259.696 291.649 259.757 291.777L260.209 291.563ZM270.594 287.936L270.758 288.408C270.849 288.376 270.929 288.319 270.988 288.243L270.594 287.936ZM270.968 280.065L271.415 279.842C271.356 279.722 271.25 279.632 271.123 279.59L270.968 280.065ZM245.6 271.788L245.163 272.031C245.225 272.141 245.325 272.224 245.445 272.264L245.6 271.788ZM235.118 261.943L235.318 261.485C235.301 261.477 235.283 261.471 235.264 261.465L235.118 261.943ZM214.034 255.495L214.18 255.017C214.086 254.989 213.986 254.988 213.892 255.016L214.034 255.495ZM204.389 258.341L204.234 258.817C204.33 258.848 204.433 258.849 204.53 258.821L204.389 258.341ZM130.204 234.135L129.821 234.456C129.881 234.528 129.96 234.582 130.049 234.611L130.204 234.135ZM129.553 233.359H129.053C129.053 233.476 129.094 233.59 129.169 233.68L129.553 233.359ZM129.553 222.116H130.053C130.053 221.966 129.985 221.823 129.868 221.728C129.751 221.633 129.597 221.596 129.45 221.627L129.553 222.116ZM96.6763 229.02L96.5726 228.531C96.3026 228.589 96.1301 228.854 96.1871 229.124C96.2441 229.394 96.509 229.566 96.7791 229.51L96.6763 229.02ZM129.224 222.116L129.327 222.606C129.555 222.557 129.72 222.358 129.724 222.125C129.727 221.892 129.57 221.687 129.344 221.631L129.224 222.116ZM118.045 219.356H117.545C117.545 219.586 117.702 219.787 117.925 219.842L118.045 219.356ZM118.045 208.307H118.545C118.545 208.08 118.392 207.881 118.172 207.823L118.045 208.307ZM107.156 205.459L106.752 205.753C106.82 205.847 106.918 205.914 107.03 205.943L107.156 205.459ZM97.4928 192.172L97.0632 191.916C96.9608 192.088 96.9707 192.304 97.0884 192.466L97.4928 192.172ZM98.972 186.327L99.1046 185.845C98.9521 185.803 98.7888 185.835 98.6642 185.933C98.5396 186.03 98.4684 186.181 98.4721 186.339L98.972 186.327ZM103.578 187.594L103.446 188.076C103.549 188.104 103.658 188.099 103.758 188.06L103.578 187.594ZM106.136 186.61L106.603 186.431C106.556 186.307 106.461 186.207 106.339 186.153C106.218 186.099 106.081 186.095 105.957 186.143L106.136 186.61ZM141.271 225.831L141.561 225.424C141.528 225.401 141.493 225.381 141.456 225.367L141.271 225.831ZM201.886 235.597V236.097C202.162 236.097 202.386 235.873 202.386 235.597H201.886ZM88.4566 177.204L88.5558 177.694C88.6901 177.667 88.8074 177.585 88.8803 177.469C88.9531 177.353 88.975 177.212 88.9409 177.079L88.4566 177.204ZM86.3343 166.986L86.828 166.907C86.7923 166.683 86.6114 166.512 86.3866 166.488L86.3343 166.986ZM86.476 177.94L86.4165 178.436C86.521 178.449 86.6268 178.428 86.7188 178.377L86.476 177.94ZM77.3795 176.85L76.9267 176.638C76.8586 176.783 76.8644 176.952 76.9423 177.093C77.0201 177.233 77.1606 177.327 77.32 177.346L77.3795 176.85ZM82.2071 166.551L82.2594 166.054C82.0475 166.031 81.8448 166.146 81.7543 166.339L82.2071 166.551ZM82.2058 191.483L82.29 191.976C82.5334 191.934 82.71 191.721 82.7058 191.475C82.7015 191.228 82.5177 191.021 82.273 190.988L82.2058 191.483ZM72.8816 190.219L72.9488 189.723C72.8009 189.703 72.6518 189.75 72.5422 189.852L72.8816 190.219ZM81.8783 191.539L81.8122 192.035C81.8622 192.041 81.9128 192.04 81.9625 192.032L81.8783 191.539ZM72.7663 190.324L72.4311 189.953C72.2866 190.084 72.231 190.286 72.2888 190.472C72.3465 190.658 72.5071 190.794 72.7002 190.82L72.7663 190.324ZM72.812 190.283L73.1472 190.654L73.1493 190.652L72.812 190.283ZM72.8383 190.259L73.1756 190.628L73.1777 190.626L72.8383 190.259ZM202.081 235.096C202.017 235.096 201.953 235.096 201.89 235.096L201.883 236.095C201.948 236.096 202.013 236.096 202.078 236.096L202.081 235.096ZM202.216 235.097L202.081 235.096L202.078 236.096L202.214 236.097L202.216 235.097ZM264.842 150.44C264.842 173.859 257.805 195.041 246.451 210.357C235.097 225.673 219.452 235.097 202.215 235.097L202.214 236.097C219.841 236.097 235.761 226.457 247.254 210.953C258.748 195.448 265.842 174.052 265.842 150.44H264.842ZM262.766 128.747C264.121 135.67 264.842 142.941 264.842 150.44H265.842C265.842 142.877 265.114 135.542 263.748 128.555L262.766 128.747ZM222.058 70.0108C247.647 82.0527 258.829 105.858 262.764 128.736L263.75 128.566C259.784 105.51 248.479 81.3391 222.484 69.106L222.058 70.0108ZM222.739 69.7645L222.76 69.6608L221.782 69.456L221.76 69.5597L222.739 69.7645ZM202.215 65.7842C209.143 65.7842 215.81 67.3058 222.044 70.1179L222.455 69.2063C216.099 66.3391 209.293 64.7842 202.215 64.7842V65.7842ZM201.89 65.7853C201.998 65.7846 202.106 65.7842 202.215 65.7842V64.7842C202.104 64.7842 201.993 64.7846 201.883 64.7853L201.89 65.7853ZM201.386 65.2842V65.2853H202.386V65.2842H201.386ZM170.651 65.7842H201.886V64.7842H170.651V65.7842ZM141.56 75.4574C150.261 69.2745 160.158 65.7842 170.651 65.7842V64.7842C159.928 64.7842 149.832 68.353 140.981 74.6423L141.56 75.4574ZM108.922 108.964C116.327 92.9833 127.864 80.9301 141.456 75.5143L141.086 74.5853C127.202 80.1175 115.499 92.3905 108.015 108.543L108.922 108.964ZM105.264 107.121L108.182 109.163L108.755 108.344L105.838 106.302L105.264 107.121ZM96.1298 106.196L105.497 107.209L105.605 106.214L96.2373 105.202L96.1298 106.196ZM92.6967 108.151C93.2552 106.813 94.6551 106.037 96.1298 106.196L96.2373 105.202C94.3555 104.998 92.5155 105.989 91.7738 107.766L92.6967 108.151ZM88.3118 122.248C89.6223 116.519 91.2051 111.726 92.6967 108.151L91.7738 107.766C90.2582 111.398 88.6589 116.246 87.337 122.025L88.3118 122.248ZM78.6152 132.053L88.178 122.49L87.4709 121.783L77.9081 131.346L78.6152 132.053ZM78.7616 157.016V131.699H77.7616V157.016H78.7616ZM78.4583 156.533L78.3098 156.519L78.2134 157.514L78.3619 157.528L78.4583 156.533ZM70.2705 173.597L78.8527 157.263L77.9675 156.798L69.3852 173.132L70.2705 173.597ZM68.0692 173.627C68.6281 173.627 69.1721 173.703 69.6953 173.847L69.9604 172.882C69.3525 172.715 68.7193 172.627 68.0692 172.627V173.627ZM67.1574 173.695C67.456 173.65 67.7603 173.627 68.0692 173.627V172.627C67.7101 172.627 67.356 172.654 67.0084 172.706L67.1574 173.695ZM66.0965 173.627C66.4055 173.627 66.7098 173.65 67.0084 173.695L67.1574 172.706C66.8097 172.654 66.4556 172.627 66.0965 172.627V173.627ZM58.7056 182.662C58.7056 177.579 62.099 173.627 66.0965 173.627V172.627C61.3779 172.627 57.7056 177.212 57.7056 182.662H58.7056ZM66.0965 191.697C62.099 191.697 58.7056 187.744 58.7056 182.662H57.7056C57.7056 188.111 61.3779 192.697 66.0965 192.697V191.697ZM67.0084 191.628C66.7098 191.673 66.4055 191.697 66.0965 191.697V192.697C66.4556 192.697 66.8097 192.67 67.1574 192.617L67.0084 191.628ZM68.0692 191.697C67.7603 191.697 67.456 191.673 67.1574 191.628L67.0084 192.617C67.356 192.67 67.7101 192.697 68.0692 192.697V191.697ZM68.6204 191.672C68.4385 191.688 68.2547 191.697 68.0692 191.697V192.697C68.2848 192.697 68.4986 192.687 68.7103 192.668L68.6204 191.672ZM77.7025 206.075L69.0926 191.91L68.2381 192.43L76.848 206.594L77.7025 206.075ZM78.0106 205.983L77.3819 205.846L77.1687 206.823L77.7975 206.96L78.0106 205.983ZM73.7567 207.811L78.0021 206.962L77.806 205.981L73.5606 206.831L73.7567 207.811ZM96.7852 212.094L73.77 206.833L73.5472 207.808L96.5624 213.069L96.7852 212.094ZM73.5472 207.808L96.5624 213.069L96.7852 212.094L73.77 206.833L73.5472 207.808ZM74.1586 220.801V207.321H73.1586V220.801H74.1586ZM75.0561 220.644L73.7831 220.317L73.534 221.285L74.8071 221.613L75.0561 220.644ZM70.1409 222.606L75.0306 221.619L74.8326 220.638L69.9429 221.626L70.1409 222.606ZM70.5419 241.966V222.116H69.5419V241.966H70.5419ZM3.16057 265.173L70.2025 242.439L69.8813 241.492L2.83943 264.226L3.16057 265.173ZM3.5 273.319V264.699H2.5V273.319H3.5ZM14.4019 276.602L3.15845 272.845L2.84155 273.794L14.085 277.55L14.4019 276.602ZM14.7435 361.393V277.076H13.7435V361.393H14.7435ZM24.9623 364.515L14.4047 360.92L14.0823 361.866L24.64 365.461L24.9623 364.515ZM5.45253 402.499L25.2428 365.223L24.3595 364.754L4.56929 402.03L5.45253 402.499ZM18.3023 406.668L5.185 401.796L4.83682 402.733L17.9541 407.605L18.3023 406.668ZM23.3752 406.636H18.1282V407.636H23.3752V406.636ZM23.3249 406.167L22.9338 406.902L23.8165 407.371L24.2076 406.637L23.3249 406.167ZM67.4212 420.789L23.9279 405.929L23.6046 406.875L67.0979 421.735L67.4212 420.789ZM67.3016 422.342L67.7115 421.476L66.8077 421.048L66.3978 421.914L67.3016 422.342ZM81.2532 426.527L67.0115 421.655L66.6879 422.601L80.9295 427.473L81.2532 426.527ZM87.6344 423.545L80.8883 426.543L81.2944 427.457L88.0405 424.458L87.6344 423.545ZM103.025 391.56L87.3876 423.783L88.2873 424.22L103.925 391.997L103.025 391.56ZM114.495 395.003L103.636 391.305L103.314 392.252L114.173 395.95L114.495 395.003ZM114.644 395.87L114.668 395.848L113.999 395.105L113.975 395.126L114.644 395.87ZM170.201 413.972L114.471 395.025L114.149 395.971L169.879 414.919L170.201 413.972ZM170.527 414.611L170.538 414.489L169.542 414.402L169.531 414.525L170.527 414.611ZM170.461 415.365L170.527 414.612L169.531 414.524L169.465 415.278L170.461 415.365ZM170.527 414.612L169.808 414.846L170.118 415.797L170.837 415.563L170.527 414.612ZM203.883 403.743L170.527 414.612L170.837 415.563L204.192 404.694L203.883 403.743ZM204.21 403.637L203.883 403.743L204.192 404.694L204.519 404.587L204.21 403.637ZM203.883 403.743L203.865 404.087L204.864 404.137L204.881 403.794L203.883 403.743ZM203.931 402.759C203.915 403.086 203.899 403.414 203.883 403.743L204.881 403.794C204.898 403.464 204.914 403.134 204.929 402.806L203.931 402.759ZM274.551 377.786L204.265 402.31L204.595 403.254L274.881 378.73L274.551 377.786ZM259.757 291.777C266.698 306.442 276.333 336.62 274.217 378.233L275.215 378.283C277.34 336.495 267.668 306.153 260.661 291.35L259.757 291.777ZM270.429 287.464L260.044 291.091L260.374 292.035L270.758 288.408L270.429 287.464ZM270.521 280.289C271.582 282.412 271.49 284.251 271.141 285.558C270.966 286.216 270.725 286.741 270.529 287.099C270.432 287.278 270.346 287.415 270.286 287.505C270.256 287.55 270.232 287.583 270.217 287.604C270.21 287.614 270.204 287.622 270.201 287.626C270.2 287.628 270.199 287.629 270.198 287.63C270.198 287.629 270.199 287.629 270.199 287.629C270.199 287.629 270.199 287.629 270.594 287.936C270.988 288.243 270.988 288.243 270.989 288.242C270.989 288.241 270.99 288.241 270.99 288.241C270.991 288.24 270.992 288.238 270.993 288.237C270.995 288.234 270.997 288.231 271.001 288.226C271.007 288.217 271.016 288.205 271.028 288.19C271.05 288.159 271.08 288.116 271.118 288.06C271.193 287.947 271.294 287.785 271.407 287.578C271.633 287.164 271.908 286.564 272.107 285.816C272.508 284.312 272.603 282.217 271.415 279.842L270.521 280.289ZM245.445 272.264L270.813 280.541L271.123 279.59L245.755 271.313L245.445 272.264ZM234.918 262.401C238.651 264.034 242.398 267.059 245.163 272.031L246.037 271.545C243.164 266.379 239.248 263.205 235.318 261.485L234.918 262.401ZM213.887 255.974L234.972 262.421L235.264 261.465L214.18 255.017L213.887 255.974ZM204.53 258.821L214.175 255.975L213.892 255.016L204.247 257.862L204.53 258.821ZM130.049 234.611L204.234 258.817L204.544 257.866L130.359 233.66L130.049 234.611ZM129.169 233.68L129.821 234.456L130.587 233.814L129.936 233.037L129.169 233.68ZM129.053 222.116V233.359H130.053V222.116H129.053ZM96.7791 229.51L129.655 222.606L129.45 221.627L96.5726 228.531L96.7791 229.51ZM129.12 221.627L96.5726 228.531L96.7791 229.51L129.327 222.606L129.12 221.627ZM117.925 219.842L129.104 222.602L129.344 221.631L118.165 218.871L117.925 219.842ZM117.545 208.307V219.356H118.545V208.307H117.545ZM107.03 205.943L117.919 208.791L118.172 207.823L107.283 204.976L107.03 205.943ZM97.0884 192.466L106.752 205.753L107.561 205.165L97.8971 191.878L97.0884 192.466ZM98.4753 186.607C98.4753 188.597 97.9489 190.43 97.0632 191.916L97.9223 192.428C98.9027 190.782 99.4753 188.772 99.4753 186.607H98.4753ZM98.4721 186.339C98.4743 186.428 98.4753 186.517 98.4753 186.607H99.4753C99.4753 186.509 99.4742 186.412 99.4718 186.315L98.4721 186.339ZM103.711 187.111L99.1046 185.845L98.8394 186.809L103.446 188.076L103.711 187.111ZM105.957 186.143L103.399 187.127L103.758 188.06L106.316 187.076L105.957 186.143ZM141.456 225.367C126.348 219.347 113.778 205.125 106.603 186.431L105.669 186.789C112.917 205.671 125.654 220.147 141.086 226.296L141.456 225.367ZM170.651 235.097C160.158 235.097 150.261 231.606 141.561 225.424L140.981 226.239C149.832 232.528 159.928 236.097 170.651 236.097V235.097ZM201.886 235.097H170.651V236.097H201.886V235.097ZM201.386 235.596V235.597H202.386V235.596H201.386ZM88.9409 177.079C88.0591 173.645 87.3625 170.248 86.828 166.907L85.8406 167.064C86.3798 170.435 87.0826 173.862 87.9723 177.328L88.9409 177.079ZM86.7188 178.377C87.2971 178.056 87.9133 177.824 88.5558 177.694L88.3575 176.714C87.6095 176.865 86.8968 177.134 86.2331 177.503L86.7188 178.377ZM77.32 177.346L86.4165 178.436L86.5354 177.443L77.439 176.353L77.32 177.346ZM81.7543 166.339L76.9267 176.638L77.8322 177.062L82.6598 166.763L81.7543 166.339ZM86.3866 166.488L82.2594 166.054L82.1547 167.048L86.282 167.483L86.3866 166.488ZM82.273 190.988L72.9488 189.723L72.8144 190.714L82.1387 191.979L82.273 190.988ZM81.9625 192.032L82.29 191.976L82.1217 190.99L81.7942 191.046L81.9625 192.032ZM72.7002 190.82L81.8122 192.035L81.9444 191.043L72.8324 189.829L72.7002 190.82ZM72.4768 189.912L72.4311 189.953L73.1015 190.695L73.1472 190.654L72.4768 189.912ZM72.5009 189.89L72.4747 189.914L73.1493 190.652L73.1756 190.628L72.5009 189.89ZM72.5422 189.852L72.4989 189.892L73.1777 190.626L73.221 190.586L72.5422 189.852Z" fill="black"/>
<g filter="url(#filter1_d_32095_174)">
<path d="M129.053 227.006H125.011V222.325C125.011 221.306 125.214 220.356 125.62 219.475C126.027 218.593 126.588 217.818 127.305 217.15C128.021 216.481 128.866 215.955 129.84 215.573C130.813 215.191 131.877 215 133.032 215C134.059 215 135.048 215.191 136 215.573C136.952 215.955 137.797 216.481 138.535 217.15C139.273 217.818 139.861 218.593 140.299 219.475C140.738 220.356 140.957 221.306 140.957 222.325V227.006H137.075V223.217C137.075 221.879 136.701 220.844 135.952 220.111C135.203 219.379 134.187 219.013 132.904 219.013C131.749 219.013 130.818 219.379 130.112 220.111C129.406 220.844 129.053 221.879 129.053 223.217V227.006ZM142.882 228.917C143.46 228.917 143.957 229.124 144.374 229.538C144.791 229.952 145 230.446 145 231.019V240.892C145 241.465 144.898 242.001 144.695 242.5C144.492 242.999 144.214 243.434 143.861 243.806C143.508 244.177 143.091 244.469 142.61 244.682C142.128 244.894 141.599 245 141.021 245H124.818C124.241 245 123.717 244.894 123.246 244.682C122.775 244.469 122.374 244.188 122.043 243.838C121.711 243.487 121.455 243.079 121.273 242.611C121.091 242.144 121 241.645 121 241.115V231.019C121 230.446 121.203 229.952 121.61 229.538C122.016 229.124 122.508 228.917 123.086 228.917H125.011H129.053H137.075H140.957H142.882Z" fill="url(#paint1_linear_32095_174)"/>
<path d="M129.053 227.506H129.553V227.006V223.217C129.553 221.966 129.882 221.071 130.472 220.458C131.071 219.837 131.864 219.513 132.904 219.513C134.088 219.513 134.967 219.848 135.602 220.469C136.23 221.083 136.575 221.974 136.575 223.217V227.006V227.506H137.075H140.957H141.457V227.006V222.325C141.457 221.231 141.221 220.205 140.747 219.252C140.28 218.314 139.654 217.489 138.871 216.779C138.087 216.069 137.191 215.513 136.186 215.109C135.175 214.703 134.123 214.5 133.032 214.5C131.821 214.5 130.694 214.701 129.657 215.108C128.629 215.511 127.729 216.07 126.964 216.784C126.2 217.497 125.6 218.325 125.166 219.265C124.728 220.215 124.511 221.237 124.511 222.325V227.006V227.506H125.011H129.053ZM144.727 229.183C144.218 228.678 143.594 228.417 142.882 228.417H140.957H137.075H129.053H125.011H123.086C122.373 228.417 121.753 228.679 121.253 229.188C120.756 229.694 120.5 230.313 120.5 231.019V241.115C120.5 241.704 120.601 242.265 120.807 242.793C121.011 243.318 121.302 243.782 121.68 244.181C122.059 244.582 122.515 244.9 123.04 245.137C123.583 245.382 124.178 245.5 124.818 245.5H141.021C141.662 245.5 142.261 245.382 142.811 245.139C143.352 244.901 143.824 244.571 144.223 244.15C144.622 243.731 144.933 243.242 145.158 242.689C145.387 242.126 145.5 241.525 145.5 240.892V231.019C145.5 230.309 145.236 229.689 144.727 229.183Z" stroke="black"/>
</g>
<defs>
<filter id="filter0_d_32095_174" x="147" y="72.4023" width="124.512" height="156.076" filterUnits="userSpaceOnUse" color-interpolation-filters="sRGB">
<feFlood flood-opacity="0" result="BackgroundImageFix"/>
<feColorMatrix in="SourceAlpha" type="matrix" values="0 0 0 0 0 0 0 0 0 0 0 0 0 0 0 0 0 0 127 0" result="hardAlpha"/>
<feOffset dx="10"/>
<feGaussianBlur stdDeviation="10"/>
<feComposite in2="hardAlpha" operator="out"/>
<feColorMatrix type="matrix" values="0 0 0 0 0.470588 0 0 0 0 0.996078 0 0 0 0 1 0 0 0 1 0"/>
<feBlend mode="normal" in2="BackgroundImageFix" result="effect1_dropShadow_32095_174"/>
<feBlend mode="normal" in="SourceGraphic" in2="effect1_dropShadow_32095_174" result="shape"/>
</filter>
<filter id="filter1_d_32095_174" x="110" y="204" width="46" height="52" filterUnits="userSpaceOnUse" color-interpolation-filters="sRGB">
<feFlood flood-opacity="0" result="BackgroundImageFix"/>
<feColorMatrix in="SourceAlpha" type="matrix" values="0 0 0 0 0 0 0 0 0 0 0 0 0 0 0 0 0 0 127 0" result="hardAlpha"/>
<feOffset/>
<feGaussianBlur stdDeviation="5"/>
<feComposite in2="hardAlpha" operator="out"/>
<feColorMatrix type="matrix" values="0 0 0 0 0 0 0 0 0 0 0 0 0 0 0 0 0 0 0.25 0"/>
<feBlend mode="normal" in2="BackgroundImageFix" result="effect1_dropShadow_32095_174"/>
<feBlend mode="normal" in="SourceGraphic" in2="effect1_dropShadow_32095_174" result="shape"/>
</filter>
<radialGradient id="paint0_radial_32095_174" cx="0" cy="0" r="1" gradientUnits="userSpaceOnUse" gradientTransform="translate(41.7561 57.538) rotate(-90) scale(57.538 41.7561)">
<stop stop-color="#C6FFFE"/>
<stop offset="1" stop-color="#78FEFF"/>
</radialGradient>
<linearGradient id="paint1_linear_32095_174" x1="133" y1="215" x2="133" y2="245" gradientUnits="userSpaceOnUse">
<stop stop-color="white"/>
<stop offset="1" stop-color="#999999"/>
</linearGradient>
</defs>
</svg>
