<svg width="357" height="430" viewBox="0 0 357 430" fill="none" xmlns="http://www.w3.org/2000/svg">
<path d="M274.716 378.258C276.965 334.034 265.971 302.677 258.975 289.06L152.912 321.666C170.302 358.545 171.901 398.996 170.527 414.612L274.716 378.258Z" fill="#7B8EDB" stroke="black"/>
<path d="M203.883 403.743C206.131 359.519 195.138 329.662 188.142 316.045L152.912 321.666C170.302 358.545 171.901 398.996 170.527 414.612L203.883 403.743Z" stroke="black"/>
<path d="M261.973 368.514L204.101 387.628C203.935 381.435 203.516 375.558 202.905 370.013L247.732 353.898C246.832 338.007 241.61 322.041 239.112 316.045L256.352 329.912C260.549 340.705 261.849 360.144 261.973 368.514Z" fill="#5B5F8C" stroke="black"/>
<path d="M248.481 357.645C247.582 341.754 243.484 325.039 240.986 319.043L234.615 299.929L218.874 304.801C223.971 318.593 229.368 335.908 231.242 353.148L248.481 357.645Z" fill="#384381" stroke="black"/>
<path d="M202.009 362.143C197.136 333.659 191.89 323.915 188.517 316.419L218.874 305.926C225.245 318.668 229.743 337.782 231.617 355.022L202.009 362.143Z" fill="#9BCBF9" stroke="black"/>
<path d="M14.2435 361.393V274.444L152.912 321.666C170.302 358.545 171.901 398.996 170.527 414.612L14.2435 361.393Z" fill="#364588" stroke="black"/>
<path d="M248.107 357.645L203.133 369.638L202.009 362.143L232.366 353.523L248.107 357.645Z" fill="#89A8DF" stroke="black"/>
<path d="M203.882 403.743L170.527 414.612L114.31 395.498L125.553 385.379L170.86 400.745L204.176 390.626C204.203 394.861 204.112 399.235 203.882 403.743Z" fill="#0EBBE7"/>
<path d="M170.527 414.612L203.882 403.743C204.112 399.235 204.203 394.861 204.176 390.626L170.86 400.745M170.527 414.612C170.834 411.123 170.993 406.396 170.86 400.745M170.527 414.612L114.31 395.498L125.553 385.379L170.86 400.745" stroke="black"/>
<path d="M3 264.7L111.312 227.971L270.968 280.066C273.217 284.563 270.594 287.936 270.594 287.936L161.158 326.164L3 273.32V264.7Z" fill="#98BEFD"/>
<path d="M3 264.7L111.312 227.971L270.968 280.066C273.217 284.563 270.593 287.936 270.593 287.936L161.157 326.164M3 264.7V273.32L161.157 326.164M3 264.7L161.157 317.918C162.282 319.293 162.657 323.915 161.157 326.164" stroke="black"/>
<path d="M3 273.32L161.157 326.164C162.657 323.915 162.282 319.293 161.157 317.918L3 264.7V273.32Z" fill="#5077B7" stroke="black"/>
<path d="M67.5992 421.378L22.6255 406.012L32.7446 385.774L49.5744 353.918L65.3506 325.06L76.7001 302.573L123.442 317.564L110.699 340.8L96.4574 368.909L79.132 400.765L67.5992 421.378Z" fill="#6F83C7"/>
<path d="M32.7446 385.774L22.6255 406.012L67.5992 421.378L79.132 400.765M32.7446 385.774L41.3646 388.772L47.7359 383.525L69.0984 391.021V397.767L79.132 400.765M32.7446 385.774L49.5744 353.918M79.132 400.765L96.4574 368.909M96.4574 368.909L86.7131 365.536V358.79L63.2079 350.545L56.3558 356.166L49.5744 353.918M96.4574 368.909L110.699 340.8M49.5744 353.918L65.3506 325.06M65.3506 325.06L76.7001 302.573L123.442 317.564L110.699 340.8M65.3506 325.06L72.0966 327.308L79.132 323.56L103.203 331.806V338.177L110.699 340.8" stroke="black"/>
<path d="M133.186 295.827L147.428 299.2V307.445L137.309 309.694V322.061L87.8375 424.002L81.0914 427L66.8497 422.128L117.07 316.065V299.2L133.186 295.827Z" fill="#0ED2FA"/>
<path d="M147.428 299.2L133.186 295.827L117.07 299.2M147.428 299.2V307.445L137.309 309.694V322.061L87.8375 424.002L81.0914 427M147.428 299.2L131.687 303.322M81.0914 427L66.8497 422.128L117.07 316.065V299.2M81.0914 427L131.687 320.562V303.322M117.07 299.2L131.687 303.322" stroke="black"/>
<path d="M75.8445 274.839L90.0862 279.711V286.832L78.8427 289.83V302.948L23.3752 407.137H18.1283L5.01093 402.264L59.7289 299.2V279.711L75.8445 274.839Z" fill="#0ED2FA"/>
<path d="M90.0862 279.711L75.8445 274.839L59.7289 279.711M90.0862 279.711V286.832L78.8427 289.83V302.948L23.3752 407.137H18.1283M90.0862 279.711L74.3454 284.209M18.1283 407.137L5.01093 402.264L59.7289 299.2V279.711M18.1283 407.137L74.3454 301.074V284.209M59.7289 279.711L74.3454 284.209" stroke="black"/>
<path d="M78.2616 131.7V157.016L88.4541 158.003V132.357L104.236 118.219H91.7419L78.2616 131.7Z" fill="#7173A4"/>
<path d="M78.2616 131.7V157.016L88.4541 158.003V132.357M78.2616 131.7L91.7419 118.219H104.236L88.4541 132.357M78.2616 131.7L88.4541 132.357" stroke="black"/>
<path d="M78.5904 156.688L68.3979 176.086L74.3161 177.072L80.8919 164.25L88.454 164.907V157.674L78.5904 156.688Z" fill="#B8E5FF" stroke="black"/>
<path d="M82.2071 166.551L77.2752 177.072H74.3161L80.8919 164.25L88.454 164.907V167.209L82.2071 166.551Z" fill="#6075B4" stroke="black"/>
<path d="M74.3162 265.188L97.3314 272.092V260.256L74.3162 254.009V265.188Z" fill="#7D79C5" stroke="black"/>
<path d="M102.592 215.541L129.224 222.117L96.6736 229.021L70.0418 222.117L102.592 215.541Z" fill="#4C64A4" stroke="black" stroke-linejoin="round"/>
<path d="M129.553 254.338L96.6738 260.914V229.021L129.553 222.117V254.338Z" fill="#2D4174" stroke="black" stroke-linejoin="round"/>
<path d="M70.0419 254.338L96.6738 260.914V229.021L70.0419 222.117V254.338Z" fill="#3C4785" stroke="black" stroke-linejoin="round"/>
<path d="M117.716 278.668L147.965 269.462V255.324L129.224 232.967L96.6738 240.529V271.435L117.716 278.668Z" fill="#798ADA" stroke="black" stroke-linejoin="round"/>
<path d="M96.6738 272.092L117.059 279.326V264.53L96.6738 240.857V272.092Z" fill="#7F83DC" stroke="black" stroke-linejoin="round"/>
<path d="M117.059 279.326L147.965 269.462V255.324L117.059 264.53V279.326Z" fill="#393780" stroke="black" stroke-linejoin="round"/>
<path d="M73.6586 220.801L96.6738 226.719V212.582L73.6586 207.321V220.801Z" fill="#8781DF" stroke="black" stroke-linejoin="round"/>
<path d="M118.045 221.788L96.6738 226.72V212.582L118.045 208.307V221.788Z" fill="#46498E" stroke="black" stroke-linejoin="round"/>
<path d="M96.6739 202.718L73.6587 207.321L96.6739 212.582L118.045 208.307L96.6739 202.718Z" fill="#9B9EF1" stroke="black" stroke-linejoin="round"/>
<path d="M95.3587 189.238L81.8783 191.539L95.3587 210.28L108.51 207.321L95.3587 189.238Z" fill="#46498E" stroke="black" stroke-linejoin="round"/>
<path d="M67.0828 189.567L81.8783 191.539L95.3586 210.28L77.2753 206.335L67.0828 189.567Z" fill="#8781DF" stroke="black" stroke-linejoin="round"/>
<path d="M75.3026 197.129L83.8511 198.773L89.7693 208.965L81.2208 206.992L75.3026 197.129Z" fill="#3B5C89" stroke="black" stroke-linejoin="round"/>
<ellipse cx="7.89092" cy="9.53487" rx="7.89092" ry="9.53487" transform="matrix(-1 0 0 1 73.9874 173.127)" fill="#5661B1" stroke="black"/>
<ellipse cx="7.89092" cy="9.53487" rx="7.89092" ry="9.53487" transform="matrix(-1 0 0 1 75.9601 173.127)" fill="#2A225B" stroke="black"/>
<path d="M68.0691 189.566C64.8006 189.566 62.1509 186.475 62.1509 182.662C62.1509 178.848 64.8006 175.757 68.0691 175.757C68.4052 175.757 68.7347 175.79 69.0555 175.853L87.4677 178.059V192.197L68.0691 189.566Z" fill="#4D5FA9" stroke="black"/>
<ellipse cx="7.89092" cy="9.53487" rx="7.89092" ry="9.53487" transform="matrix(-1 0 0 1 97.6601 177.072)" fill="#5661B1" stroke="black"/>
<ellipse cx="7.89092" cy="9.53487" rx="7.89092" ry="9.53487" transform="matrix(-1 0 0 1 98.9753 177.072)" fill="#2A225B" stroke="black"/>
<ellipse cx="3.28788" cy="4.27425" rx="3.28788" ry="4.27425" transform="matrix(-1 0 0 1 94.3723 182.333)" fill="#42478E" stroke="black"/>
<path d="M105.551 106.712L108.839 109.013C97.0026 137.947 101.277 171.483 107.853 185.95L103.578 187.594L92.5027 184.548C91.2067 184.191 90.1696 183.204 89.7783 181.918C80.1447 150.26 86.7676 121.061 92.2353 107.959C92.8854 106.401 94.5053 105.517 96.1836 105.699L105.551 106.712Z" fill="#948AFB" stroke="black"/>
<path d="M105.551 106.712L108.839 109.013C97.0026 137.947 101.277 171.483 107.853 185.95L103.578 187.594C103.578 187.594 95.3045 167.209 96.6738 147.81C98.252 125.453 103.578 110.328 105.551 106.712Z" fill="#423096" stroke="black"/>
<path d="M100.133 150.441C100.133 172.044 106.604 191.582 117.043 205.708C127.481 219.834 141.862 228.521 157.701 228.521H185.933V72.3601H157.701C141.862 72.3601 127.481 81.047 117.043 95.1729C106.604 109.299 100.133 128.837 100.133 150.441Z" fill="#4C3F97" stroke="black"/>
<path d="M170.651 235.597C135.787 235.597 107.524 197.471 107.524 150.441C107.524 103.41 135.787 65.2843 170.651 65.2843H201.886V235.597H170.651Z" fill="#D9D9D9" stroke="black"/>
<ellipse cx="63.1274" cy="85.1562" rx="63.1274" ry="85.1562" transform="matrix(-1 0 0 1 265.342 65.2843)" fill="#6659CB" stroke="black"/>
<path d="M167.363 100.465L162.103 85.3404L130.868 84.0253C126.265 88.9571 109.795 111.036 107.524 139.262C105.222 167.866 110.812 183.977 117.716 197.129L149.938 197.786L159.472 189.566C142.704 155.372 151.253 117.89 167.363 100.465Z" fill="#7B8EDB"/>
<path d="M162.103 85.3404L167.363 100.465C151.253 117.89 142.704 155.372 159.472 189.566L149.938 197.786M162.103 85.3404L130.868 84.0253C126.265 88.9571 109.795 111.036 107.524 139.262C105.222 167.866 110.812 183.977 117.716 197.129L149.938 197.786M162.103 85.3404C128.237 124.137 139.416 177.401 149.938 197.786" stroke="black"/>
<path d="M149.938 197.786L118.045 196.8C130.408 225.733 155.198 234.501 166.048 235.268H198.072C199.874 235.404 201.49 235.391 202.873 235.268C217.076 235.268 227.86 228.473 231.477 225.076L224.244 220.473C221.065 224.528 210.106 231.586 191.694 227.377C173.282 223.169 159.363 203.156 154.705 193.676L149.938 197.786Z" fill="#728BC4"/>
<path d="M149.938 197.786L118.045 196.8C130.408 225.733 155.198 234.501 166.048 235.268C172.405 235.268 188.669 235.268 202.873 235.268M149.938 197.786L154.705 193.676C159.363 203.156 173.282 223.169 191.694 227.377C210.106 231.586 221.065 224.528 224.244 220.473L231.477 225.076C227.86 228.473 217.076 235.268 202.873 235.268M149.938 197.786C165.719 230.139 191.803 236.254 202.873 235.268" stroke="black"/>
<path d="M149.938 197.786L118.045 196.8C130.408 225.733 155.198 234.501 166.048 235.268H198.072C199.874 235.404 201.49 235.391 202.872 235.268H198.072C185.449 234.318 163.749 226.099 149.938 197.786Z" fill="#4D4F79" stroke="black"/>
<ellipse cx="44.7152" cy="60.8259" rx="44.7152" ry="60.8259" transform="matrix(-1 0 0 1 246.93 89.6146)" fill="#7440E1" stroke="black"/>
<g filter="url(#filter0_d_31866_3251)">
<ellipse cx="41.7561" cy="57.538" rx="41.7561" ry="57.538" transform="matrix(-1 0 0 1 241.012 92.9026)" fill="url(#paint0_radial_31866_3251)"/>
<ellipse cx="41.7561" cy="57.538" rx="41.7561" ry="57.538" transform="matrix(-1 0 0 1 241.012 92.9026)" stroke="black"/>
</g>
<path d="M219.312 83.6965L222.271 69.5586C266.986 90.6011 267.973 147.262 263.041 172.469L254.821 169.182C259.293 107.632 233.011 86.546 219.312 83.6965Z" fill="#7B8EDB" stroke="black"/>
<path d="M182.552 307.215L249.638 285.103C248.014 271.615 241.566 264.764 235.118 261.943L214.034 255.495L148.475 274.839V296.201L182.552 307.215Z" fill="#71BDEF" stroke="black" stroke-linejoin="round"/>
<path d="M148.475 296.201L182.326 307.078C181.577 301.207 179.035 287.293 170.64 282.496C162.245 277.699 152.223 274.839 148.475 274.839V296.201Z" fill="#1498C8" stroke="black" stroke-linejoin="round"/>
<path d="M207.014 299.147L231.088 291.362C228.989 269.474 217.387 265.57 196.834 260.331L172.655 267.585C204.491 274.436 206.139 289.903 207.014 299.147Z" fill="#1498C8" stroke="black" stroke-linejoin="round"/>
<path d="M152.102 297.003L177.49 305.466C176.92 301.007 174.67 291.361 168.46 286.526C162.658 282.007 152.102 280.283 152.102 280.283V297.003Z" fill="#8A7CD3" stroke="black" stroke-linejoin="round"/>
<defs>
<filter id="filter0_d_31866_3251" x="147" y="72.4026" width="124.512" height="156.076" filterUnits="userSpaceOnUse" color-interpolation-filters="sRGB">
<feFlood flood-opacity="0" result="BackgroundImageFix"/>
<feColorMatrix in="SourceAlpha" type="matrix" values="0 0 0 0 0 0 0 0 0 0 0 0 0 0 0 0 0 0 127 0" result="hardAlpha"/>
<feOffset dx="10"/>
<feGaussianBlur stdDeviation="10"/>
<feComposite in2="hardAlpha" operator="out"/>
<feColorMatrix type="matrix" values="0 0 0 0 0.470588 0 0 0 0 0.996078 0 0 0 0 1 0 0 0 1 0"/>
<feBlend mode="normal" in2="BackgroundImageFix" result="effect1_dropShadow_31866_3251"/>
<feBlend mode="normal" in="SourceGraphic" in2="effect1_dropShadow_31866_3251" result="shape"/>
</filter>
<radialGradient id="paint0_radial_31866_3251" cx="0" cy="0" r="1" gradientUnits="userSpaceOnUse" gradientTransform="translate(41.7561 57.538) rotate(-90) scale(57.538 41.7561)">
<stop stop-color="#C6FFFE"/>
<stop offset="1" stop-color="#78FEFF"/>
</radialGradient>
</defs>
</svg>
