<svg width="519" height="451" viewBox="0 0 519 451" fill="none" xmlns="http://www.w3.org/2000/svg">
<g clip-path="url(#clip0_32095_918)">
<path d="M154.762 104.071C154.762 108.56 157.291 112.657 161.47 116.251V149.172C150.473 154.139 139.665 162.504 130.544 171.353C121.17 180.448 113.485 190.148 109.136 197.396L108.922 197.753V198.168V231.954L97.0874 234.732L97.087 234.732C96.4969 234.87 95.9715 235.154 95.5447 235.538L94.3871 235.064V237.3V238.139V318.953L6.50612 349.483L6.50587 349.483C5.05802 349.986 4.14192 351.214 3.6059 352.463C3.06104 353.732 2.81203 355.23 2.81104 356.673C2.81005 358.117 3.05701 359.615 3.59997 360.885C4.13408 362.135 5.04808 363.364 6.49458 363.87L238.564 445.076C251.669 449.663 265.942 449.678 279.058 445.122L513.188 363.783C514.636 363.28 515.552 362.053 516.089 360.804C516.633 359.534 516.883 358.037 516.884 356.593C516.885 355.149 516.638 353.651 516.095 352.381C515.561 351.131 514.647 349.902 513.2 349.396L423.112 317.873V240.801V238.045V236.912L422.022 236.602L406.342 232.144V195.932V195.517L406.128 195.16C401.634 187.669 393.574 177.557 383.766 168.199C374.233 159.103 362.945 150.62 351.557 145.974V116.252C355.737 112.657 358.265 108.56 358.265 104.071V89.7172V88.358V88.2172H358.264C358.226 84.9644 356.867 81.3981 354.553 77.7732C352.193 74.077 348.768 70.2068 344.465 66.3793C335.959 58.8119 323.907 51.308 309.507 45.5709C304.444 36.2637 297.112 25.6538 288.257 17.2986C279.267 8.81738 268.533 2.5 256.886 2.5C245.315 2.5 234.646 8.73507 225.694 17.1311C216.877 25.4009 209.559 35.9187 204.471 45.1963C189.809 50.9175 177.521 58.4824 168.843 66.1303C164.455 69.998 160.96 73.9134 158.551 77.6528C156.189 81.32 154.801 84.9291 154.763 88.2172H154.762V88.358V89.7172V104.071Z" fill="black" stroke="#A5FFFD" stroke-width="3"/>
<g filter="url(#filter0_d_32095_918)">
<path d="M6.98983 358.454C3.41378 357.203 3.41946 352.144 6.99831 350.9L241.128 269.562C253.925 265.116 267.849 265.132 280.635 269.606L512.704 350.812C516.281 352.063 516.275 357.123 512.696 358.366L278.566 439.705C265.77 444.15 251.845 444.135 239.059 439.66L6.98983 358.454Z" fill="#463882"/>
<path d="M6.98983 358.454C3.41378 357.203 3.41946 352.144 6.99831 350.9L241.128 269.562C253.925 265.116 267.849 265.132 280.635 269.606L512.704 350.812C516.281 352.063 516.275 357.123 512.696 358.366L278.566 439.705C265.77 444.15 251.845 444.135 239.059 439.66L6.98983 358.454Z" stroke="black"/>
</g>
<ellipse cx="253.159" cy="337.552" rx="110.314" ry="25.7152" fill="#A6A6DB" stroke="black"/>
<path d="M258.004 352.459C205.233 352.459 173.157 331.713 162.97 325.998V106.115H350.057V325.998C343.597 329.725 310.776 352.459 258.004 352.459Z" fill="#8E7FEB" stroke="black"/>
<g clip-path="url(#clip1_32095_918)">
<rect width="96" height="96" transform="translate(211 247)" fill="white"/>
<path d="M215.5 329.799V260.201L227.713 247.5H291.287L303.5 260.201V329.799L291.287 342.5H227.713L215.5 329.799Z" fill="#A5FFFD" stroke="black"/>
<path d="M306.5 332.5C306.5 334.106 305.338 335.752 302.951 337.338C300.584 338.913 297.125 340.35 292.806 341.565C284.175 343.992 272.222 345.5 259 345.5C245.778 345.5 233.825 343.992 225.194 341.565C220.875 340.35 217.416 338.913 215.049 337.338C212.662 335.752 211.5 334.106 211.5 332.5C211.5 330.894 212.662 329.248 215.049 327.662C217.416 326.087 220.875 324.65 225.194 323.435C233.825 321.008 245.778 319.5 259 319.5C272.222 319.5 284.175 321.008 292.806 323.435C297.125 324.65 300.584 326.087 302.951 327.662C305.338 329.248 306.5 330.894 306.5 332.5Z" fill="#EFBF68" stroke="black"/>
<ellipse opacity="0.4" cx="19.4384" cy="3.82877" rx="19.4384" ry="3.82877" transform="matrix(-1 0 0 1 279 323.343)" fill="black"/>
<path d="M241.883 299.055C242.304 297.16 244.251 292.476 245.567 291.16C248.725 288.003 253.725 297.213 252.672 298.792C251.83 300.055 251.093 301.558 250.83 302.151C251.004 302.174 251.18 302.194 251.356 302.213C250.965 303.09 248.968 305.853 248.341 306.95C247.289 308.792 247.552 308.792 246.762 310.371C246.499 310.809 245.868 311.897 245.447 312.739C244.92 313.792 245.069 315.257 243.547 314.656C243.24 314.88 242.75 314.939 242.096 314.656C241.944 314.765 241.708 314.801 241.356 314.723C239.979 314.415 239.656 312.89 239.751 312.269C239.502 312.088 239.273 311.73 239.131 311.16C238.71 309.476 239.394 308.616 239.92 307.476L241.356 298.792L241.883 299.055Z" fill="#6C53A7"/>
<path d="M241.883 299.055C242.304 297.16 244.251 292.476 245.567 291.16C248.725 288.003 253.725 297.213 252.672 298.792C251.83 300.055 251.093 301.558 250.83 302.151M241.883 299.055L241.356 298.792L239.92 307.476C239.394 308.616 238.71 309.476 239.131 311.16C239.657 313.265 241.356 312.476 240.973 310.609C241.845 310.534 243.341 309.581 243.341 308.266M241.883 299.055C243.057 299.726 247.056 301.66 250.83 302.151M250.83 302.151C251.004 302.174 251.18 302.194 251.356 302.213C250.965 303.09 248.968 305.853 248.341 306.95C247.289 308.792 247.552 308.792 246.762 310.371C246.499 310.809 245.868 311.897 245.447 312.739C244.92 313.792 245.069 315.257 243.547 314.656M239.751 312.269C239.656 312.89 239.979 314.415 241.356 314.723C241.708 314.801 241.944 314.765 242.096 314.656M243.078 310.371C242.727 310.985 242.026 312.265 242.026 312.476C242.026 312.685 242.692 314.229 242.096 314.656M244.657 310.897C244.306 311.511 243.657 312.897 243.868 313.529C244.007 313.946 243.891 314.404 243.547 314.656M242.096 314.656C242.75 314.939 243.24 314.88 243.547 314.656" stroke="black" stroke-linecap="round"/>
<path d="M241.356 298.792L239.92 307.476C239.394 308.616 238.71 309.476 239.131 311.16C239.273 311.73 239.502 312.088 239.751 312.269C239.656 312.89 239.979 314.415 241.356 314.723C241.708 314.802 241.944 314.765 242.096 314.656C242.75 314.939 243.24 314.88 243.547 314.656C245.069 315.257 244.92 313.792 245.447 312.739C245.868 311.897 246.499 310.809 246.762 310.371C247.552 308.792 247.289 308.792 248.341 306.95C248.968 305.853 250.965 303.09 251.356 302.213C251.18 302.194 251.004 302.174 250.83 302.151C247.056 301.66 243.057 299.726 241.883 299.055L241.356 298.792Z" fill="#9F974C"/>
<path d="M243.341 308.266C243.341 309.581 241.845 310.534 240.973 310.609C241.356 312.476 239.657 313.266 239.131 311.16C238.71 309.476 239.394 308.616 239.92 307.476L241.356 298.792L241.883 299.055C243.057 299.726 247.056 301.66 250.83 302.151C251.004 302.174 251.18 302.194 251.356 302.213C250.965 303.09 248.968 305.853 248.341 306.95C247.289 308.792 247.552 308.792 246.762 310.371C246.499 310.809 245.868 311.897 245.447 312.739C244.92 313.792 245.069 315.257 243.547 314.656M239.751 312.269C239.656 312.89 239.979 314.415 241.356 314.723C241.708 314.802 241.944 314.765 242.096 314.656M243.078 310.371C242.727 310.985 242.026 312.266 242.026 312.476C242.026 312.686 242.692 314.229 242.096 314.656M244.657 310.897C244.306 311.511 243.657 312.897 243.868 313.529C244.007 313.946 243.891 314.405 243.547 314.656M242.096 314.656C242.75 314.939 243.24 314.88 243.547 314.656" stroke="black" stroke-linecap="round"/>
<path d="M253.406 271.476L253.563 271.951L253.406 271.476C257.508 270.118 261.512 270.181 264.801 271.64C268.099 273.104 270.631 275.952 271.803 280.06C277.39 299.632 277.811 307.168 276.56 311.779C276.097 313.483 275.398 314.796 274.695 316.116C274.452 316.571 274.209 317.027 273.976 317.5C273.076 319.319 272.228 321.526 271.846 325.202C272.128 325.464 272.386 325.799 272.523 326.207C272.701 326.738 272.651 327.335 272.289 327.95C272.084 328.297 271.73 328.552 271.348 328.745C270.958 328.944 270.483 329.104 269.967 329.234C268.935 329.493 267.677 329.64 266.455 329.683C265.235 329.725 264.022 329.663 263.08 329.488C262.612 329.401 262.184 329.282 261.851 329.119C261.541 328.968 261.182 328.714 261.091 328.292C260.936 327.567 261.075 326.963 261.359 326.479C261.547 326.159 261.792 325.901 262.033 325.696L258.891 318.504H255.613C255.196 319.678 255.006 321.236 254.834 322.809C254.824 322.894 254.815 322.98 254.806 323.065C254.723 323.82 254.641 324.569 254.535 325.243C254.417 325.988 254.262 326.686 254.02 327.229C253.836 327.64 253.445 327.9 253.044 328.07C252.63 328.246 252.119 328.363 251.565 328.437C250.455 328.585 249.083 328.573 247.76 328.444C246.439 328.314 245.131 328.065 244.154 327.722C243.669 327.552 243.232 327.347 242.914 327.1C242.606 326.861 242.303 326.493 242.361 326.005C242.462 325.145 242.852 324.539 243.385 324.136C243.716 323.887 244.09 323.725 244.458 323.621C244.379 323.475 244.278 323.304 244.155 323.098C244.136 323.067 244.118 323.035 244.098 323.003C243.785 322.478 243.372 321.786 242.944 320.907C242.033 319.035 241.057 316.327 240.742 312.478C240.347 307.665 239.864 298.671 241.275 290.276C242.678 281.925 245.998 273.929 253.406 271.476Z" fill="#B392FF" stroke="black" stroke-linecap="round"/>
<g filter="url(#filter1_d_32095_918)">
<path d="M265.507 288.263C265.507 293.143 260.101 294.04 253.432 294.04C246.763 294.04 241.356 293.143 241.356 288.263C241.356 283.383 246.763 276.369 253.432 276.369C260.101 276.369 265.507 283.383 265.507 288.263Z" fill="black" stroke="black" stroke-linecap="round"/>
<path d="M263.74 285.794C262.326 279.432 255.493 277.547 253.726 277.547H253.719C252.228 277.547 249.088 277.547 253.726 279.609C261.678 283.143 253.726 288.739 258.438 290.506C260.712 291.359 264.852 290.801 263.74 285.794Z" fill="white"/>
</g>
<g filter="url(#filter2_d_32095_918)">
<path d="M275.792 303.193C275.447 301.283 273.689 296.524 272.427 295.157C269.399 291.875 264.033 300.877 265.022 302.497C265.813 303.793 266.489 305.324 266.728 305.928C266.553 305.943 266.377 305.957 266.199 305.968L268.838 312.395C268.102 313.243 266.888 315.056 267.923 315.519C268.958 315.982 270.149 314.73 270.616 314.047C271.226 314.159 272.366 315.065 272.046 317.791C271.704 320.697 274.201 319.695 274.677 317.857C274.651 318.484 274.814 319.693 275.663 319.517C276.347 319.375 277.065 318.362 277.239 316.946C277.345 317.389 277.719 318.177 278.367 317.782C279.177 317.287 279.829 314.153 278.588 312.26L276.328 302.951L275.792 303.193Z" fill="#B392FF"/>
<path d="M275.792 303.193C275.447 301.283 273.689 296.524 272.427 295.157C269.399 291.875 264.033 300.877 265.022 302.497C265.813 303.793 266.489 305.324 266.728 305.928M275.792 303.193L276.328 302.951L278.588 312.26C279.829 314.153 279.177 317.287 278.367 317.782C277.719 318.177 277.345 317.389 277.239 316.946M275.792 303.193C274.592 303.816 270.519 305.589 266.728 305.928M274.013 314.71C274.104 314.626 274.373 314.935 274.717 316.845C274.781 317.197 274.759 317.539 274.677 317.857M274.677 317.857C274.201 319.695 271.704 320.697 272.046 317.791C272.366 315.065 271.226 314.159 270.616 314.047C270.149 314.73 268.958 315.982 267.923 315.519C266.888 315.056 268.102 313.243 268.838 312.395L266.199 305.968C266.377 305.957 266.553 305.943 266.728 305.928M274.677 317.857C274.651 318.484 274.814 319.693 275.663 319.517C276.347 319.375 277.065 318.362 277.239 316.946M276.926 314.3C277.264 315.253 277.335 316.161 277.239 316.946" stroke="black" stroke-linecap="round"/>
</g>
<g filter="url(#filter3_d_32095_918)">
<path d="M268.839 312.396L266.199 305.969C266.377 305.957 266.553 305.944 266.728 305.928C270.519 305.589 274.592 303.817 275.792 303.193L276.329 302.952L278.589 312.26C279.829 314.154 279.177 317.288 278.367 317.782C277.719 318.177 277.345 317.39 277.239 316.947C277.065 318.362 276.347 319.375 275.664 319.517C274.814 319.694 274.652 318.484 274.677 317.857C274.201 319.696 271.704 320.697 272.046 317.792C272.366 315.065 271.226 314.159 270.616 314.047C270.149 314.731 268.958 315.982 267.923 315.519C266.888 315.056 268.102 313.244 268.839 312.396Z" fill="#F0E78C"/>
<path d="M274.013 314.71C274.104 314.626 274.373 314.935 274.717 316.845C274.781 317.197 274.759 317.54 274.677 317.857M274.677 317.857C274.201 319.696 271.704 320.697 272.046 317.792C272.366 315.065 271.226 314.159 270.616 314.047C270.149 314.731 268.958 315.982 267.923 315.519C266.888 315.056 268.102 313.244 268.839 312.396L266.199 305.969C266.377 305.957 266.553 305.944 266.728 305.928C270.519 305.589 274.592 303.817 275.792 303.193L276.329 302.952L278.589 312.26C279.829 314.154 279.177 317.288 278.367 317.782C277.719 318.177 277.345 317.39 277.239 316.947M274.677 317.857C274.652 318.484 274.814 319.694 275.664 319.517C276.347 319.375 277.065 318.362 277.239 316.947M276.926 314.3C277.264 315.253 277.335 316.162 277.239 316.947" stroke="black" stroke-linecap="round"/>
</g>
<g opacity="0.3" filter="url(#filter4_d_32095_918)">
<path d="M266.2 305.968L268.839 312.395C268.102 313.244 266.888 315.056 267.923 315.519C268.384 315.725 268.875 315.591 269.32 315.32C269.875 314.98 270.357 314.426 270.616 314.047C271.226 314.159 272.366 315.065 272.046 317.791C271.843 319.52 272.644 319.866 273.427 319.475C273.96 319.209 274.484 318.602 274.677 317.857C274.652 318.484 274.814 319.693 275.664 319.517C275.955 319.456 276.253 319.238 276.512 318.897C276.412 319.005 276.077 319.027 275.534 318.25C275.001 317.49 274.632 316.333 274.505 315.818C274.503 315.807 274.5 315.797 274.498 315.786C274.5 315.797 274.503 315.807 274.505 315.818C274.572 316.094 274.643 316.432 274.717 316.845C274.781 317.197 274.759 317.539 274.677 317.857C274.484 318.602 273.96 319.209 273.427 319.475C272.69 319.019 273.282 316.733 272.815 315.041C272.441 313.687 271.193 313.814 270.616 314.047C270.357 314.426 269.875 314.98 269.32 315.32C268.375 313.074 270.24 312.684 270.719 311.876C271.102 311.23 270.104 307.322 269.556 305.449C269.271 305.518 268.982 305.581 268.692 305.639C268.162 303.718 266.289 301.083 265.419 300.006C264.946 301.112 264.759 302.066 265.022 302.497C265.813 303.793 266.489 305.324 266.728 305.928C266.553 305.943 266.377 305.957 266.2 305.968Z" fill="black"/>
</g>
<path d="M215.5 324.241L227.14 336.347L227.287 336.5H227.5H291.5H291.713L291.86 336.347L303.5 324.241V329.799L291.287 342.5H227.713L215.5 329.799V324.241Z" fill="#A5FFFD" stroke="black"/>
<path d="M291.5 343L304 330V343H291.5Z" fill="#8E7FEB"/>
<path d="M177 260V327L189.36 340H221V247H189.36L177 260Z" fill="#75759D" stroke="black"/>
<path d="M342 327V260L329.36 247H297V340H329.36L342 327Z" fill="#75759D" stroke="black"/>
<path d="M291.14 247.347L290.326 246.5H291.5H304H307.5H308V247V343.5V344H307.5H290.5H289.293L290.146 343.146L303.5 329.793V260.201L291.14 247.347Z" fill="#8E7FEB" stroke="black"/>
<path d="M227.36 247.347L228.174 246.5H227H214.5H211H210.5V247V343.5V344H211H228H229.207L228.354 343.146L215 329.793V260.201L227.36 247.347Z" fill="#8E7FEB" stroke="black"/>
</g>
<path d="M256.514 135.93C311.881 135.93 356.765 121.666 356.765 104.071V89.7173H156.262V104.071C156.262 121.666 201.146 135.93 256.514 135.93Z" fill="#4B35C5" stroke="black"/>
<path d="M356.765 88.358C356.765 105.986 311.881 120.277 256.514 120.277C201.146 120.277 156.262 105.986 156.262 88.358C156.262 70.7295 201.146 36.7961 256.514 36.7961C311.881 36.7961 356.765 70.7295 356.765 88.358Z" fill="#8C89E2" stroke="black"/>
<path d="M315.77 66.2553C315.77 76.743 289.407 85.245 256.886 85.245C224.365 85.245 198.002 76.743 198.002 66.2553C198.002 55.7676 224.365 4 256.886 4C289.407 4 315.77 55.7676 315.77 66.2553Z" fill="#78FEFF" stroke="black"/>
<path d="M95.8871 359.234V238.139C95.8871 237.211 96.5261 236.404 97.4301 236.192L168.475 219.518C168.776 219.448 169.09 219.448 169.391 219.519L180.848 222.214C181.334 222.329 181.76 222.621 182.042 223.035L192.437 238.281C192.664 238.613 192.785 239.005 192.785 239.407V347.278C192.785 348.145 192.226 348.913 191.402 349.18L125.594 370.514C125.18 370.648 124.734 370.643 124.323 370.501L97.2329 361.124C96.4274 360.845 95.8871 360.086 95.8871 359.234Z" fill="#D7D7F6" stroke="black"/>
<path d="M192.785 241.528V347.278C192.785 348.145 192.226 348.913 191.402 349.181L126.455 370.244C125.163 370.663 123.838 369.7 123.838 368.342V262.24C123.838 261.37 124.401 260.599 125.231 260.335L190.177 239.622C191.467 239.211 192.785 240.173 192.785 241.528Z" fill="#B6C2DF" stroke="black"/>
<path d="M95.8871 360.658V237.3L113.031 244.381L124.211 260.779V370.72L95.8871 360.658Z" fill="#6D7EA5" stroke="black"/>
<path d="M110.422 198.168V235.436L120.857 239.163V201.522C130.547 180.279 168.312 155.309 182.35 150.465L171.914 147.11C146.945 153.073 120.111 182.018 110.422 198.168Z" fill="#99814A" stroke="black"/>
<path d="M182.35 222.392L120.857 239.163V201.522C130.547 180.279 168.312 155.309 182.35 150.465V222.392Z" fill="#EFBF68" stroke="black"/>
<path d="M175.641 218.089L127.938 231.337V201.603C135.455 184.823 164.751 165.099 175.641 161.272V218.089Z" fill="#99814A" stroke="black"/>
<path d="M421.612 361.403V238.045L345.585 216.429L332.914 219.411L321.733 235.809V345.751L392.543 369.975L421.612 361.403Z" fill="#AAB5D1" stroke="black"/>
<path d="M393.288 367.623V261.867C393.288 260.997 392.726 260.226 391.897 259.962L324.714 238.505C323.424 238.093 322.106 239.056 322.106 240.411V346.519C322.106 347.392 322.673 348.165 323.506 348.427L390.689 369.531C391.977 369.936 393.288 368.974 393.288 367.623Z" fill="#5F6E91" stroke="black"/>
<path d="M421.612 359.919V240.801C421.612 239.441 420.285 238.478 418.992 238.9L405.117 243.424C404.697 243.561 404.334 243.834 404.085 244.199L393.636 259.524C393.409 259.856 393.288 260.248 393.288 260.65V367.28C393.288 368.622 394.583 369.583 395.868 369.194L420.192 361.833C421.035 361.578 421.612 360.8 421.612 359.919Z" fill="#D7D7F6" stroke="black"/>
<path d="M301.235 143.384C279.769 145.769 225.705 144.377 216.264 143.384L198.748 164.626V201.522L216.264 223.51C233.556 224.405 288.067 223.883 298.254 223.51L315.77 201.522V164.626L301.235 143.384Z" stroke="black"/>
<path d="M297.837 148.718L297.668 148.47L297.369 148.503C288.117 149.535 270.871 149.751 254.893 149.6C238.914 149.449 224.264 148.931 220.208 148.503L219.94 148.474L219.769 148.683L204.614 167.127L204.5 167.265V167.444V199.48V199.654L204.608 199.79L219.764 218.882L219.904 219.059L220.129 219.071C235.112 219.848 286.043 219.395 294.863 219.071L295.093 219.062L295.236 218.882L310.392 199.79L310.5 199.654V199.48V167.444V167.29L310.413 167.163L297.837 148.718Z" fill="#08FFFA" stroke="black"/>
<path d="M176.014 330.098L149.181 338.67L140.609 330.098V276.059L149.181 260.406L176.014 251.089L183.84 262.642V318.172L176.014 330.098Z" fill="#A5FFFD" stroke="black"/>
<path fill-rule="evenodd" clip-rule="evenodd" d="M142.983 332.471L165.579 325.253L173.405 313.327V257.797L170.223 253.1L176.014 251.089L183.84 262.642V318.172L176.014 330.098L149.181 338.67L142.983 332.471Z" fill="#08FFFA"/>
<path d="M165.579 325.253L165.731 325.729L165.9 325.676L165.997 325.527L165.579 325.253ZM142.983 332.471L142.83 331.995L142.049 332.245L142.629 332.825L142.983 332.471ZM173.405 313.327L173.823 313.602L173.905 313.477V313.327H173.405ZM173.405 257.797H173.905V257.644L173.819 257.517L173.405 257.797ZM170.223 253.1L170.059 252.628L169.444 252.841L169.809 253.38L170.223 253.1ZM176.014 251.089L176.428 250.809L176.213 250.491L175.85 250.617L176.014 251.089ZM183.84 262.642H184.34V262.489L184.254 262.362L183.84 262.642ZM183.84 318.172L184.258 318.446L184.34 318.322V318.172H183.84ZM176.014 330.098L176.166 330.574L176.335 330.52L176.432 330.372L176.014 330.098ZM149.181 338.67L148.827 339.023L149.043 339.239L149.333 339.146L149.181 338.67ZM165.427 324.777L142.83 331.995L143.135 332.948L165.731 325.729L165.427 324.777ZM172.987 313.053L165.161 324.979L165.997 325.527L173.823 313.602L172.987 313.053ZM172.905 257.797V313.327H173.905V257.797H172.905ZM169.809 253.38L172.991 258.078L173.819 257.517L170.637 252.819L169.809 253.38ZM170.387 253.572L176.178 251.561L175.85 250.617L170.059 252.628L170.387 253.572ZM175.6 251.37L183.426 262.923L184.254 262.362L176.428 250.809L175.6 251.37ZM183.34 262.642V318.172H184.34V262.642H183.34ZM183.422 317.898L175.596 329.824L176.432 330.372L184.258 318.446L183.422 317.898ZM175.862 329.622L149.029 338.193L149.333 339.146L176.166 330.574L175.862 329.622ZM149.534 338.316L143.336 332.118L142.629 332.825L148.827 339.023L149.534 338.316Z" fill="black"/>
<path d="M342.976 332.707L369.809 341.278L378.381 332.707V278.668L369.809 263.015L342.976 253.698L335.15 265.251V320.781L342.976 332.707Z" fill="#A5FFFD" stroke="black"/>
<path fill-rule="evenodd" clip-rule="evenodd" d="M377.216 333.872L354.902 326.744L347.076 314.818V259.288L349.361 255.915L342.976 253.698L335.15 265.251V320.781L342.976 332.707L369.809 341.278L377.216 333.872Z" fill="#08FFFA"/>
<path d="M354.902 326.744L354.484 327.018L354.581 327.166L354.75 327.22L354.902 326.744ZM377.216 333.872L377.57 334.225L378.15 333.645L377.368 333.395L377.216 333.872ZM347.076 314.818H346.576V314.967L346.658 315.092L347.076 314.818ZM347.076 259.288L346.662 259.008L346.576 259.135V259.288H347.076ZM349.361 255.915L349.775 256.195L350.14 255.656L349.525 255.442L349.361 255.915ZM342.976 253.698L343.14 253.225L342.778 253.099L342.562 253.417L342.976 253.698ZM335.15 265.251L334.736 264.971L334.65 265.098V265.251H335.15ZM335.15 320.781H334.65V320.93L334.732 321.055L335.15 320.781ZM342.976 332.707L342.558 332.981L342.655 333.129L342.824 333.183L342.976 332.707ZM369.809 341.278L369.657 341.755L369.948 341.847L370.163 341.632L369.809 341.278ZM354.75 327.22L377.064 334.348L377.368 333.395L355.054 326.267L354.75 327.22ZM346.658 315.092L354.484 327.018L355.32 326.469L347.494 314.543L346.658 315.092ZM346.576 259.288V314.818H347.576V259.288H346.576ZM348.947 255.634L346.662 259.008L347.49 259.568L349.775 256.195L348.947 255.634ZM349.525 255.442L343.14 253.225L342.812 254.17L349.197 256.387L349.525 255.442ZM342.562 253.417L334.736 264.971L335.564 265.531L343.39 253.978L342.562 253.417ZM334.65 265.251V320.781H335.65V265.251H334.65ZM334.732 321.055L342.558 332.981L343.394 332.432L335.568 320.506L334.732 321.055ZM342.824 333.183L369.657 341.755L369.962 340.802L343.128 332.23L342.824 333.183ZM370.163 341.632L377.57 334.225L376.863 333.518L369.456 340.925L370.163 341.632Z" fill="black"/>
<mask id="mask0_32095_918" style="mask-type:alpha" maskUnits="userSpaceOnUse" x="346" y="255" width="33" height="80">
<path fill-rule="evenodd" clip-rule="evenodd" d="M377.216 333.872L354.902 326.744L347.076 314.818V259.288L349.361 255.915L369.809 263.015L378.381 278.667V332.707L377.216 333.872Z" fill="#A5FFFD"/>
<path d="M354.902 326.744L354.484 327.018L354.581 327.166L354.75 327.22L354.902 326.744ZM377.216 333.872L377.064 334.348L377.354 334.441L377.569 334.225L377.216 333.872ZM347.076 314.818H346.576V314.967L346.658 315.092L347.076 314.818ZM347.076 259.288L346.662 259.007L346.576 259.134V259.288H347.076ZM349.361 255.915L349.525 255.442L349.162 255.316L348.947 255.634L349.361 255.915ZM369.809 263.015L370.248 262.775L370.155 262.606L369.973 262.542L369.809 263.015ZM378.381 278.667H378.881V278.539L378.82 278.427L378.381 278.667ZM378.381 332.707L378.735 333.06L378.881 332.914V332.707H378.381ZM354.75 327.22L377.064 334.348L377.368 333.395L355.054 326.267L354.75 327.22ZM346.658 315.092L354.484 327.018L355.32 326.469L347.494 314.543L346.658 315.092ZM346.576 259.288V314.818H347.576V259.288H346.576ZM348.947 255.634L346.662 259.007L347.49 259.568L349.775 256.195L348.947 255.634ZM369.973 262.542L349.525 255.442L349.197 256.387L369.645 263.487L369.973 262.542ZM378.82 278.427L370.248 262.775L369.371 263.255L377.943 278.908L378.82 278.427ZM378.881 332.707V278.667H377.881V332.707H378.881ZM377.569 334.225L378.735 333.06L378.027 332.353L376.862 333.518L377.569 334.225Z" fill="black"/>
</mask>
<g mask="url(#mask0_32095_918)">
<rect width="19.3287" height="23.8517" rx="4" transform="matrix(0.951057 0.309017 0 1 359.401 275.089)" fill="black"/>
<g clip-path="url(#clip2_32095_918)">
<rect width="11.9654" height="15.3333" rx="4" transform="matrix(0.951057 0.309017 0 1 362.903 280.202)" fill="black"/>
<path d="M362.97 287.15L366.709 281.439L368.599 285.568L366.683 288.442L363.01 287.249C362.997 287.245 362.997 287.245 362.983 287.223C362.97 287.219 362.97 287.202 362.97 287.202C362.97 287.184 362.97 287.184 362.97 287.167C362.956 287.163 362.97 287.167 362.97 287.15Z" fill="#7F4AFE"/>
<path d="M374.216 290.804L370.476 282.663L368.599 285.568L370.503 289.701L374.175 290.894C374.189 290.898 374.189 290.898 374.202 290.886C374.216 290.89 374.216 290.873 374.216 290.873C374.216 290.856 374.216 290.856 374.216 290.838C374.229 290.825 374.216 290.821 374.216 290.804Z" fill="#7F4AFE"/>
<path d="M374.283 291.825C374.296 292.794 374.149 293.711 373.867 294.515C373.586 295.32 373.17 296.012 372.634 296.527C372.098 297.042 371.468 297.388 370.784 297.528C370.101 297.668 369.35 297.63 368.586 297.382C367.836 297.138 367.085 296.705 366.388 296.099C365.691 295.494 365.061 294.755 364.538 293.896C364.015 293.037 363.587 292.088 363.305 291.084C363.037 290.101 362.89 289.088 362.903 288.127L366.522 289.303C366.522 289.665 366.562 290.023 366.669 290.385C366.777 290.747 366.924 291.105 367.112 291.407C367.299 291.727 367.541 291.995 367.795 292.215C368.05 292.436 368.318 292.592 368.6 292.683C368.881 292.775 369.149 292.793 369.404 292.738C369.658 292.683 369.886 292.55 370.087 292.374C370.275 292.177 370.436 291.936 370.53 291.639C370.637 291.347 370.677 290.998 370.677 290.653L374.283 291.825Z" fill="#0166FF"/>
</g>
<path d="M357.628 305.407L358.836 306.059L360.044 306.192V312.062L357.628 311.277V305.407ZM358.836 305.499C358.43 305.367 358.104 305.158 357.856 304.871C357.609 304.584 357.485 304.26 357.485 303.9C357.485 303.54 357.609 303.297 357.856 303.171C358.104 303.044 358.43 303.047 358.836 303.179C359.248 303.313 359.574 303.522 359.815 303.807C360.063 304.094 360.186 304.418 360.186 304.778C360.186 305.138 360.063 305.381 359.815 305.507C359.574 305.636 359.248 305.633 358.836 305.499ZM360.905 312.342V310.512L365.176 307.749L367.021 308.798L360.934 306.821V304.841L367.953 307.121V308.951L363.692 311.717L362.113 310.754L367.981 312.661V314.641L360.905 312.342ZM371.114 315.828C370.6 315.662 370.16 315.408 369.792 315.069C369.424 314.723 369.142 314.318 368.945 313.854C368.755 313.385 368.66 312.885 368.66 312.351V309.111L371.076 309.896V312.776C371.076 313.089 371.152 313.357 371.304 313.58C371.463 313.805 371.685 313.964 371.97 314.057C372.192 314.129 372.372 314.147 372.512 314.113C372.658 314.073 372.766 313.982 372.835 313.838C372.911 313.689 372.949 313.492 372.949 313.245L373.663 313.857C373.58 314.45 373.412 314.915 373.159 315.253C372.911 315.586 372.61 315.798 372.255 315.889C371.906 315.983 371.526 315.962 371.114 315.828ZM373.33 316.378L372.949 313.805V310.505L375.365 311.29V314.98L375.746 317.163L373.33 316.378ZM359.178 315.03L361.593 315.815L361.974 318.389V321.689L359.558 320.904V317.214L359.178 315.03ZM363.771 316.343C364.285 316.51 364.722 316.765 365.084 317.109C365.445 317.447 365.721 317.849 365.911 318.318C366.101 318.78 366.196 319.281 366.196 319.821V323.061L363.781 322.276V319.396C363.781 319.076 363.705 318.804 363.553 318.582C363.407 318.361 363.194 318.205 362.915 318.115C362.719 318.051 362.548 318.042 362.402 318.088C362.262 318.129 362.154 318.224 362.078 318.373C362.009 318.517 361.974 318.709 361.974 318.949L361.26 318.337C361.349 317.739 361.514 317.273 361.755 316.938C362.002 316.598 362.3 316.381 362.649 316.288C362.998 316.195 363.372 316.213 363.771 316.343ZM367.984 317.712C368.498 317.878 368.935 318.134 369.297 318.478C369.665 318.818 369.944 319.222 370.134 319.69C370.324 320.152 370.419 320.653 370.419 321.193V324.433L368.003 323.648V320.768C368.003 320.448 367.927 320.176 367.775 319.954C367.629 319.733 367.417 319.577 367.138 319.487C366.941 319.423 366.77 319.414 366.624 319.46C366.485 319.501 366.377 319.596 366.301 319.745C366.231 319.889 366.196 320.081 366.196 320.321L365.483 319.709C365.572 319.111 365.737 318.645 365.978 318.31C366.219 317.968 366.513 317.75 366.862 317.657C367.211 317.564 367.585 317.582 367.984 317.712ZM371.267 318.838L372.475 319.491L373.683 319.623V325.493L371.267 324.708V318.838ZM372.475 318.931C372.069 318.799 371.742 318.589 371.495 318.302C371.248 318.015 371.124 317.692 371.124 317.332C371.124 316.972 371.248 316.729 371.495 316.602C371.742 316.476 372.069 316.479 372.475 316.611C372.887 316.745 373.213 316.954 373.454 317.239C373.702 317.526 373.825 317.849 373.825 318.209C373.825 318.569 373.702 318.813 373.454 318.939C373.213 319.067 372.887 319.065 372.475 318.931Z" fill="black"/>
</g>
<path d="M404.842 195.932V233.2L394.406 236.927V199.286C384.717 178.043 346.951 153.073 332.914 148.228L343.349 144.874C368.319 150.837 395.152 179.782 404.842 195.932Z" fill="#EFBF68" stroke="black"/>
<path d="M332.914 220.156L394.406 236.927V199.286C384.717 178.043 346.951 153.073 332.914 148.229V220.156Z" fill="#99814A" stroke="black"/>
<path d="M339.622 215.853L387.326 229.101V199.368C379.809 182.587 350.512 162.863 339.622 159.036V215.853Z" fill="#86703C" stroke="black"/>
<path d="M303.844 370.348L279.992 362.521L309.807 387.491L327.323 391.218V384.137L303.844 377.429V370.348Z" fill="#3C3C7D" stroke="black"/>
<path d="M303.099 377.429L367.201 356.186L391.052 363.267L326.578 384.51L303.099 377.429Z" fill="#A6A6DB" stroke="black" stroke-linejoin="round"/>
<path d="M279.993 362.521L343.349 342.396L367.201 349.477L303.472 370.72L279.993 362.521Z" fill="#A6A6DB" stroke="black" stroke-linejoin="round"/>
<path d="M327.323 391.218L391.052 369.975V362.894L327.323 384.137V391.218Z" fill="#5C5CAC" stroke="black" stroke-linejoin="round"/>
<path d="M303.472 377.429L367.201 356.186V349.105L303.472 370.348V377.429Z" fill="#5C5CAC" stroke="black" stroke-linejoin="round"/>
<path d="M241.735 407.572L193.903 392.709L235.271 362.521H280.365L326.951 391.591L277.941 407.383C266.18 411.173 253.535 411.239 241.735 407.572Z" fill="#5757BC" stroke="black"/>
<path d="M275.436 366.994H244.722C244.403 366.994 244.104 367.145 243.915 367.402L241.282 370.993C240.798 371.653 241.27 372.584 242.089 372.584H278.548C279.405 372.584 279.865 371.577 279.304 370.929L276.192 367.339C276.002 367.12 275.726 366.994 275.436 366.994Z" fill="#FFBF49" stroke="black"/>
<path d="M283.472 376.683H238.263C237.958 376.683 237.67 376.822 237.48 377.061L234.326 381.024C233.805 381.679 234.271 382.646 235.109 382.646H286.794C287.643 382.646 288.106 381.655 287.56 381.004L284.238 377.041C284.048 376.814 283.768 376.683 283.472 376.683Z" fill="#FFBF49" stroke="black"/>
<path d="M290.926 387.119H230.809C230.504 387.119 230.216 387.258 230.027 387.496L226.873 391.459C226.351 392.114 226.818 393.082 227.655 393.082H294.248C295.097 393.082 295.56 392.09 295.014 391.439L291.692 387.476C291.502 387.25 291.221 387.119 290.926 387.119Z" fill="#FFBF49" stroke="black"/>
<path d="M269.603 359.913H251.968C250.831 359.913 250.576 358.316 251.657 357.962L260.188 355.166C260.384 355.102 260.596 355.1 260.793 355.161L269.897 357.957C270.994 358.294 270.751 359.913 269.603 359.913Z" fill="#FFBF49" stroke="black"/>
<path d="M214.028 370.721L235.643 362.521L205.456 388.982L193.53 393.082V385.255L214.028 377.802V370.721Z" fill="#3C3C7D" stroke="black"/>
<path d="M214.773 377.801L149.181 355.068L127.192 362.521L193.157 386L214.773 377.801Z" fill="#A6A6DB" stroke="black" stroke-linejoin="round"/>
<path d="M235.643 362.894L170.051 340.906L148.063 348.359L214.028 371.093L235.643 362.894Z" fill="#A6A6DB" stroke="black" stroke-linejoin="round"/>
<path d="M193.903 393.082L127.193 369.602V362.521L193.903 386.001V393.082Z" fill="#5C5CAC" stroke="black"/>
<path d="M214.028 378.174L148.063 355.44V348.359L214.028 371.093V378.174Z" fill="#5C5CAC" stroke="black"/>
<mask id="mask1_32095_918" style="mask-type:alpha" maskUnits="userSpaceOnUse" x="140" y="252" width="34" height="82">
<path fill-rule="evenodd" clip-rule="evenodd" d="M142.983 332.471L165.579 325.253L173.405 313.327V257.797L170.223 253.1L149.181 260.406L140.609 276.059V330.098L142.983 332.471Z" fill="#A5FFFD"/>
<path d="M165.579 325.253L165.731 325.729L165.9 325.675L165.997 325.527L165.579 325.253ZM142.983 332.471L142.629 332.825L142.844 333.04L143.135 332.948L142.983 332.471ZM173.405 313.327L173.823 313.602L173.905 313.477V313.327H173.405ZM173.405 257.797H173.905V257.644L173.819 257.517L173.405 257.797ZM170.223 253.1L170.637 252.819L170.422 252.502L170.059 252.628L170.223 253.1ZM149.181 260.406L149.017 259.934L148.835 259.997L148.742 260.166L149.181 260.406ZM140.609 276.059L140.171 275.819L140.109 275.931V276.059H140.609ZM140.609 330.098H140.109V330.305L140.256 330.452L140.609 330.098ZM165.427 324.777L142.83 331.995L143.135 332.948L165.731 325.729L165.427 324.777ZM172.987 313.053L165.161 324.979L165.997 325.527L173.823 313.602L172.987 313.053ZM172.905 257.797V313.327H173.905V257.797H172.905ZM169.809 253.38L172.991 258.078L173.819 257.517L170.637 252.819L169.809 253.38ZM149.345 260.879L170.387 253.572L170.059 252.628L149.017 259.934L149.345 260.879ZM141.048 276.299L149.619 260.646L148.742 260.166L140.171 275.819L141.048 276.299ZM141.109 330.098V276.059H140.109V330.098H141.109ZM143.336 332.118L140.963 329.744L140.256 330.452L142.629 332.825L143.336 332.118Z" fill="black"/>
</mask>
<g mask="url(#mask1_32095_918)">
<rect width="19.0976" height="23.8517" rx="4" transform="matrix(0.951057 -0.309017 0 1 147.318 280.265)" fill="black"/>
<path fill-rule="evenodd" clip-rule="evenodd" d="M156.235 297.998C154.329 298.615 152.794 298.513 151.721 297.783C150.635 297.044 150.059 295.682 150.059 293.928C150.059 292.239 150.634 290.834 151.284 289.799C151.794 288.989 152.356 288.393 152.748 288.028C152.659 287.699 152.549 287.268 152.45 286.818C152.318 286.215 152.188 285.499 152.188 284.944C152.188 284.287 152.297 283.592 152.591 282.983C152.902 282.341 153.37 281.898 153.933 281.716C154.373 281.573 154.746 281.666 155.038 281.94C155.318 282.203 155.504 282.612 155.632 283.059C155.858 283.845 155.946 284.897 155.971 285.966L156.51 285.791C156.534 284.705 156.622 283.597 156.848 282.664C156.976 282.133 157.162 281.603 157.442 281.159C157.734 280.695 158.108 280.359 158.548 280.216C159.111 280.033 159.578 280.171 159.889 280.612C160.183 281.029 160.292 281.654 160.292 282.311C160.292 282.866 160.163 283.666 160.03 284.355C159.932 284.869 159.821 285.372 159.733 285.758C160.124 285.869 160.687 286.099 161.196 286.579C161.846 287.191 162.421 288.222 162.421 289.912C162.421 291.665 161.845 293.402 160.759 294.846C159.687 296.274 158.151 297.373 156.245 297.994L156.235 297.998Z" fill="#633001"/>
<path d="M153.933 282.341C153.108 282.608 152.729 283.548 152.729 284.676C152.729 285.573 153.17 287.226 153.35 287.866C153.391 288.011 153.327 288.204 153.211 288.302C152.55 288.863 150.6 290.762 150.6 293.66C150.6 296.713 152.582 298.371 156.236 297.187L156.24 297.186L156.244 297.185C159.899 295.994 161.88 293.048 161.88 289.995C161.88 287.097 159.93 286.465 159.269 286.334C159.153 286.311 159.089 286.159 159.13 285.989C159.311 285.231 159.751 283.291 159.751 282.394C159.751 281.266 159.372 280.573 158.548 280.841C157.361 281.227 157.065 283.553 157.044 285.953C157.043 286.113 156.945 286.275 156.825 286.314L155.655 286.694C155.535 286.733 155.438 286.635 155.436 286.476C155.415 284.089 155.119 281.955 153.933 282.341Z" fill="#D1884F"/>
<path d="M156.244 296.206C153.56 297.079 150.605 296.132 150.6 293.666V293.677C150.6 296.733 152.585 298.391 156.244 297.202C159.904 296.013 161.889 293.065 161.889 290.009V289.998C161.884 292.467 158.929 295.334 156.244 296.206Z" fill="#FEDC90"/>
<path d="M154.753 291.559C154.753 292.392 154.456 292.922 154.09 293.041C153.723 293.16 153.427 292.823 153.427 291.989C153.427 291.156 153.723 290.626 154.09 290.507C154.456 290.388 154.753 290.725 154.753 291.559ZM159.062 290.158C159.062 290.992 158.765 291.522 158.399 291.641C158.033 291.76 157.736 291.422 157.736 290.589C157.736 289.756 158.033 289.225 158.399 289.106C158.765 288.987 159.062 289.325 159.062 290.158Z" fill="#633001"/>
<path d="M147.577 308.549C148.224 308.339 148.775 308.273 149.232 308.351C149.695 308.421 150.047 308.623 150.288 308.958C150.529 309.287 150.649 309.727 150.649 310.281C150.649 310.834 150.529 311.357 150.288 311.848C150.047 312.333 149.695 312.764 149.232 313.141C148.775 313.51 148.224 313.799 147.577 314.009L144.562 314.988V312.978L147.415 312.051C147.656 311.973 147.843 311.849 147.977 311.679C148.11 311.509 148.176 311.311 148.176 311.084C148.176 310.851 148.11 310.696 147.977 310.619C147.843 310.536 147.656 310.533 147.415 310.611L144.771 311.471L145.875 309.952V316.602L143.421 317.399V309.899L147.577 308.549ZM155.986 313.317L155.71 311.376L155.986 310.447L155.71 309.706L155.986 307.567L158.497 306.751L158.116 309.744L158.497 312.501L155.986 313.317ZM156.49 310.283C156.427 310.917 156.268 311.505 156.015 312.047C155.767 312.581 155.441 313.041 155.035 313.426C154.636 313.809 154.176 314.085 153.656 314.254C153.123 314.427 152.654 314.453 152.248 314.331C151.849 314.208 151.535 313.953 151.307 313.567C151.085 313.179 150.974 312.682 150.974 312.075C150.974 311.462 151.085 310.889 151.307 310.357C151.535 309.823 151.849 309.364 152.248 308.981C152.654 308.596 153.123 308.317 153.656 308.144C154.176 307.975 154.636 307.952 155.035 308.076C155.441 308.191 155.77 308.437 156.024 308.814C156.278 309.185 156.433 309.675 156.49 310.283ZM153.409 311.284C153.409 311.504 153.45 311.687 153.532 311.834C153.621 311.972 153.742 312.066 153.894 312.117C154.052 312.165 154.233 312.156 154.436 312.09C154.645 312.022 154.848 311.906 155.045 311.743C155.241 311.579 155.412 311.39 155.558 311.176C155.71 310.953 155.815 310.722 155.872 310.484C155.815 310.282 155.71 310.12 155.558 309.996C155.412 309.87 155.241 309.789 155.045 309.753C154.848 309.716 154.645 309.732 154.436 309.8C154.233 309.866 154.052 309.975 153.894 310.127C153.742 310.276 153.621 310.452 153.532 310.654C153.45 310.854 153.409 311.064 153.409 311.284ZM159.006 306.585L161.422 305.8L161.802 308.127V311.427L159.387 312.212V308.522L159.006 306.585ZM163.695 304.882C164.228 304.709 164.681 304.675 165.055 304.78C165.429 304.878 165.714 305.099 165.911 305.442C166.114 305.776 166.215 306.213 166.215 306.753V309.993L163.8 310.778V307.898C163.8 307.578 163.714 307.359 163.543 307.241C163.378 307.122 163.143 307.111 162.839 307.21C162.623 307.28 162.436 307.387 162.278 307.532C162.126 307.668 162.008 307.837 161.926 308.037C161.844 308.23 161.802 308.447 161.802 308.687L161.089 308.539C161.178 307.883 161.349 307.307 161.603 306.812C161.856 306.309 162.164 305.896 162.525 305.572C162.887 305.248 163.277 305.018 163.695 304.882ZM173.893 304.968C173.849 305.523 173.668 306.055 173.351 306.564C173.034 307.074 172.619 307.526 172.105 307.919C171.598 308.311 171.024 308.61 170.384 308.819C169.686 309.045 169.071 309.118 168.539 309.038C168.006 308.951 167.591 308.726 167.293 308.363C166.995 308 166.846 307.518 166.846 306.918C166.846 306.311 166.995 305.733 167.293 305.183C167.591 304.626 168.006 304.131 168.539 303.698C169.071 303.265 169.686 302.935 170.384 302.709C171.024 302.5 171.598 302.427 172.105 302.489C172.619 302.549 173.034 302.731 173.351 303.034C173.668 303.331 173.849 303.746 173.893 304.278L171.506 305.054C171.449 304.786 171.319 304.615 171.116 304.541C170.92 304.458 170.676 304.464 170.384 304.559C170.162 304.631 169.965 304.741 169.794 304.89C169.629 305.03 169.503 305.205 169.414 305.414C169.325 305.623 169.281 305.86 169.281 306.127C169.281 306.394 169.325 306.603 169.414 306.754C169.503 306.898 169.629 306.99 169.794 307.03C169.965 307.061 170.162 307.041 170.384 306.969C170.676 306.874 170.92 306.718 171.116 306.501C171.319 306.275 171.449 306.022 171.506 305.744L173.893 304.968ZM152.61 323.414L152.334 321.473L152.61 320.544L152.334 319.803L152.61 317.664L155.121 316.848L154.74 319.841L155.121 322.598L152.61 323.414ZM153.114 320.38C153.051 321.014 152.892 321.602 152.639 322.144C152.391 322.678 152.065 323.137 151.659 323.523C151.26 323.906 150.8 324.182 150.28 324.351C149.747 324.524 149.278 324.55 148.872 324.428C148.473 324.305 148.159 324.05 147.931 323.664C147.709 323.276 147.598 322.779 147.598 322.172C147.598 321.559 147.709 320.986 147.931 320.454C148.159 319.92 148.473 319.461 148.872 319.078C149.278 318.693 149.747 318.414 150.28 318.241C150.8 318.072 151.26 318.049 151.659 318.173C152.065 318.287 152.394 318.534 152.648 318.911C152.902 319.282 153.057 319.772 153.114 320.38ZM150.033 321.381C150.033 321.601 150.074 321.784 150.156 321.931C150.245 322.069 150.366 322.163 150.518 322.213C150.676 322.262 150.857 322.253 151.06 322.187C151.269 322.119 151.472 322.003 151.668 321.84C151.865 321.676 152.036 321.487 152.182 321.273C152.334 321.05 152.439 320.819 152.496 320.581C152.439 320.379 152.334 320.217 152.182 320.093C152.036 319.967 151.865 319.886 151.668 319.85C151.472 319.813 151.269 319.829 151.06 319.897C150.857 319.963 150.676 320.072 150.518 320.223C150.366 320.373 150.245 320.549 150.156 320.751C150.074 320.951 150.033 321.161 150.033 321.381ZM158.303 319.594L157.656 319.584L160.385 315.137L162.839 314.34L158.017 321.657L155.887 322.349V314.649L158.303 313.864V319.594ZM158.826 318.614L160.69 316.758L162.972 320.047L160.29 320.918L158.826 318.614ZM166.275 319.154C165.596 319.374 164.987 319.445 164.449 319.367C163.916 319.28 163.494 319.057 163.184 318.698C162.873 318.332 162.718 317.843 162.718 317.229C162.718 316.623 162.867 316.044 163.165 315.494C163.469 314.942 163.881 314.455 164.401 314.033C164.921 313.61 165.504 313.294 166.151 313.084C166.829 312.863 167.406 312.823 167.882 312.962C168.357 313.1 168.722 313.399 168.976 313.856C169.229 314.307 169.356 314.899 169.356 315.633L164.696 317.147V315.977L167.948 314.92L167.302 315.51C167.27 315.26 167.207 315.064 167.111 314.922C167.016 314.779 166.89 314.691 166.731 314.655C166.579 314.612 166.395 314.625 166.179 314.695C165.938 314.773 165.732 314.897 165.561 315.066C165.396 315.232 165.27 315.43 165.181 315.659C165.098 315.879 165.057 316.113 165.057 316.359C165.057 316.679 165.124 316.928 165.257 317.104C165.396 317.272 165.606 317.368 165.885 317.39C166.164 317.413 166.515 317.355 166.94 317.217C167.352 317.084 167.752 316.9 168.139 316.668C168.532 316.427 168.893 316.15 169.223 315.836V317.276C168.817 317.708 168.354 318.088 167.834 318.417C167.321 318.737 166.801 318.983 166.275 319.154Z" fill="black"/>
</g>
</g>
<defs>
<filter id="filter0_d_32095_918" x="3.81104" y="265.739" width="512.072" height="181.789" filterUnits="userSpaceOnUse" color-interpolation-filters="sRGB">
<feFlood flood-opacity="0" result="BackgroundImageFix"/>
<feColorMatrix in="SourceAlpha" type="matrix" values="0 0 0 0 0 0 0 0 0 0 0 0 0 0 0 0 0 0 127 0" result="hardAlpha"/>
<feOffset dy="4"/>
<feComposite in2="hardAlpha" operator="out"/>
<feColorMatrix type="matrix" values="0 0 0 0 0.116424 0 0 0 0 0.125523 0 0 0 0 0.365104 0 0 0 1 0"/>
<feBlend mode="normal" in2="BackgroundImageFix" result="effect1_dropShadow_32095_918"/>
<feBlend mode="normal" in="SourceGraphic" in2="effect1_dropShadow_32095_918" result="shape"/>
</filter>
<filter id="filter1_d_32095_918" x="240.856" y="275.869" width="25.1506" height="20.6711" filterUnits="userSpaceOnUse" color-interpolation-filters="sRGB">
<feFlood flood-opacity="0" result="BackgroundImageFix"/>
<feColorMatrix in="SourceAlpha" type="matrix" values="0 0 0 0 0 0 0 0 0 0 0 0 0 0 0 0 0 0 127 0" result="hardAlpha"/>
<feOffset dy="2"/>
<feComposite in2="hardAlpha" operator="out"/>
<feColorMatrix type="matrix" values="0 0 0 0 0 0 0 0 0 0 0 0 0 0 0 0 0 0 0.25 0"/>
<feBlend mode="normal" in2="BackgroundImageFix" result="effect1_dropShadow_32095_918"/>
<feBlend mode="normal" in="SourceGraphic" in2="effect1_dropShadow_32095_918" result="shape"/>
</filter>
<filter id="filter2_d_32095_918" x="262.402" y="293.943" width="17.3774" height="27.177" filterUnits="userSpaceOnUse" color-interpolation-filters="sRGB">
<feFlood flood-opacity="0" result="BackgroundImageFix"/>
<feColorMatrix in="SourceAlpha" type="matrix" values="0 0 0 0 0 0 0 0 0 0 0 0 0 0 0 0 0 0 127 0" result="hardAlpha"/>
<feOffset dx="-2" dy="1"/>
<feComposite in2="hardAlpha" operator="out"/>
<feColorMatrix type="matrix" values="0 0 0 0 0 0 0 0 0 0 0 0 0 0 0 0 0 0 0.25 0"/>
<feBlend mode="normal" in2="BackgroundImageFix" result="effect1_dropShadow_32095_918"/>
<feBlend mode="normal" in="SourceGraphic" in2="effect1_dropShadow_32095_918" result="shape"/>
</filter>
<filter id="filter3_d_32095_918" x="263.473" y="302.248" width="16.3071" height="18.8718" filterUnits="userSpaceOnUse" color-interpolation-filters="sRGB">
<feFlood flood-opacity="0" result="BackgroundImageFix"/>
<feColorMatrix in="SourceAlpha" type="matrix" values="0 0 0 0 0 0 0 0 0 0 0 0 0 0 0 0 0 0 127 0" result="hardAlpha"/>
<feOffset dx="-2" dy="1"/>
<feComposite in2="hardAlpha" operator="out"/>
<feColorMatrix type="matrix" values="0 0 0 0 0 0 0 0 0 0 0 0 0 0 0 0 0 0 0.25 0"/>
<feBlend mode="normal" in2="BackgroundImageFix" result="effect1_dropShadow_32095_918"/>
<feBlend mode="normal" in="SourceGraphic" in2="effect1_dropShadow_32095_918" result="shape"/>
</filter>
<filter id="filter4_d_32095_918" x="262.902" y="300.006" width="13.6094" height="20.6143" filterUnits="userSpaceOnUse" color-interpolation-filters="sRGB">
<feFlood flood-opacity="0" result="BackgroundImageFix"/>
<feColorMatrix in="SourceAlpha" type="matrix" values="0 0 0 0 0 0 0 0 0 0 0 0 0 0 0 0 0 0 127 0" result="hardAlpha"/>
<feOffset dx="-2" dy="1"/>
<feComposite in2="hardAlpha" operator="out"/>
<feColorMatrix type="matrix" values="0 0 0 0 0 0 0 0 0 0 0 0 0 0 0 0 0 0 0.25 0"/>
<feBlend mode="normal" in2="BackgroundImageFix" result="effect1_dropShadow_32095_918"/>
<feBlend mode="normal" in="SourceGraphic" in2="effect1_dropShadow_32095_918" result="shape"/>
</filter>
<clipPath id="clip0_32095_918">
<rect width="519" height="451" fill="white"/>
</clipPath>
<clipPath id="clip1_32095_918">
<rect width="96" height="96" fill="white" transform="translate(211 247)"/>
</clipPath>
<clipPath id="clip2_32095_918">
<rect width="11.9654" height="15.3333" rx="4" transform="matrix(0.951057 0.309017 0 1 362.903 280.202)" fill="white"/>
</clipPath>
</defs>
</svg>
