<svg width="513" height="445" viewBox="0 0 513 445" fill="none" xmlns="http://www.w3.org/2000/svg">
<g clip-path="url(#clip0_31866_3769)">
<g filter="url(#filter0_d_31866_3769)">
<path d="M3.98983 355.454C0.413779 354.203 0.419457 349.144 3.99831 347.9L238.128 266.562C250.925 262.116 264.849 262.132 277.635 266.606L509.704 347.812C513.281 349.063 513.275 354.123 509.696 355.366L275.566 436.705C262.77 441.15 248.845 441.135 236.059 436.66L3.98983 355.454Z" fill="#463882"/>
<path d="M3.98983 355.454C0.413779 354.203 0.419457 349.144 3.99831 347.9L238.128 266.562C250.925 262.116 264.849 262.132 277.635 266.606L509.704 347.812C513.281 349.063 513.275 354.123 509.696 355.366L275.566 436.705C262.77 441.15 248.845 441.135 236.059 436.66L3.98983 355.454Z" stroke="black"/>
</g>
<ellipse cx="250.159" cy="334.552" rx="110.314" ry="25.7152" fill="#A6A6DB" stroke="black"/>
<path d="M255.004 349.459C202.232 349.459 170.157 328.713 159.97 322.998V103.115H347.057V322.998C340.597 326.725 307.776 349.459 255.004 349.459Z" fill="#8E7FEB" stroke="black"/>
<path d="M283.328 248.462C261.862 250.847 237.612 249.456 228.171 248.462L210.655 269.705V323.744L228.171 343.496C245.464 344.39 270.16 343.869 280.347 343.496L297.863 323.744V269.705L283.328 248.462Z" fill="#A5FFFD" stroke="black"/>
<path fill-rule="evenodd" clip-rule="evenodd" d="M297.863 269.705L283.328 248.462C261.862 250.847 237.612 249.456 228.171 248.462L210.655 269.705L210.655 313.309L228.171 333.061C245.464 333.955 270.16 333.434 280.347 333.061L297.863 313.309L297.863 269.705Z" fill="#A5FFFD"/>
<path d="M297.863 269.705L298.363 269.705L298.363 269.55L298.276 269.422L297.863 269.705ZM283.328 248.462L283.741 248.179L283.571 247.932L283.273 247.965L283.328 248.462ZM228.171 248.462L228.223 247.965L227.956 247.936L227.785 248.144L228.171 248.462ZM210.655 269.705L210.269 269.387L210.155 269.525L210.155 269.705L210.655 269.705ZM210.655 313.309L210.155 313.309L210.155 313.498L210.281 313.64L210.655 313.309ZM228.171 333.061L227.797 333.393L227.936 333.549L228.145 333.56L228.171 333.061ZM280.347 333.061L280.365 333.561L280.579 333.553L280.721 333.393L280.347 333.061ZM297.863 313.309L298.237 313.64L298.363 313.498L298.363 313.309L297.863 313.309ZM298.276 269.422L283.741 248.179L282.916 248.744L297.45 269.987L298.276 269.422ZM283.273 247.965C261.855 250.345 237.644 248.956 228.223 247.965L228.119 248.959C237.581 249.955 261.869 251.349 283.383 248.959L283.273 247.965ZM227.785 248.144L210.269 269.387L211.041 270.023L228.557 248.78L227.785 248.144ZM210.155 269.705L210.155 313.309L211.155 313.309L211.155 269.705L210.155 269.705ZM210.281 313.64L227.797 333.393L228.545 332.729L211.029 312.977L210.281 313.64ZM228.145 333.56C245.461 334.456 270.175 333.933 280.365 333.561L280.329 332.561C270.145 332.934 245.467 333.455 228.197 332.562L228.145 333.56ZM280.721 333.393L298.237 313.64L297.489 312.977L279.973 332.729L280.721 333.393ZM298.363 313.309L298.363 269.705L297.363 269.705L297.363 313.309L298.363 313.309Z" fill="black"/>
<ellipse cx="253.886" cy="329.334" rx="34.2869" ry="9.31708" fill="#EFBF68" stroke="black"/>
<path fill-rule="evenodd" clip-rule="evenodd" d="M210.655 313.309V323.744L228.171 343.496C245.464 344.39 270.16 343.869 280.347 343.496L297.863 323.744V313.309L280.347 333.061C270.16 333.434 245.464 333.955 228.171 333.061L210.655 313.309Z" fill="#08FFFA"/>
<path d="M210.655 313.309L211.029 312.977L210.155 311.991V313.309H210.655ZM210.655 323.744H210.155V323.934L210.281 324.076L210.655 323.744ZM228.171 343.496L227.797 343.828L227.936 343.985L228.145 343.995L228.171 343.496ZM280.347 343.496L280.365 343.996L280.579 343.988L280.721 343.828L280.347 343.496ZM297.863 323.744L298.237 324.076L298.363 323.934V323.744H297.863ZM297.863 313.309H298.363V311.991L297.489 312.977L297.863 313.309ZM280.347 333.061L280.365 333.561L280.579 333.553L280.721 333.393L280.347 333.061ZM228.171 333.061L227.797 333.393L227.936 333.549L228.145 333.56L228.171 333.061ZM210.155 313.309V323.744H211.155V313.309H210.155ZM210.281 324.076L227.797 343.828L228.545 343.164L211.029 323.412L210.281 324.076ZM228.145 343.995C245.461 344.891 270.175 344.368 280.365 343.996L280.329 342.996C270.145 343.369 245.467 343.89 228.197 342.997L228.145 343.995ZM280.721 343.828L298.237 324.076L297.489 323.412L279.973 343.164L280.721 343.828ZM298.363 323.744V313.309H297.363V323.744H298.363ZM280.721 333.393L298.237 313.64L297.489 312.977L279.973 332.729L280.721 333.393ZM228.145 333.56C245.461 334.456 270.175 333.933 280.365 333.561L280.329 332.561C270.145 332.934 245.467 333.455 228.197 332.562L228.145 333.56ZM210.281 313.64L227.797 333.393L228.545 332.729L211.029 312.977L210.281 313.64Z" fill="black"/>
<path d="M253.514 132.93C308.881 132.93 353.765 118.666 353.765 101.071V86.7172H153.262V101.071C153.262 118.666 198.146 132.93 253.514 132.93Z" fill="#4B35C5" stroke="black"/>
<path d="M353.765 85.358C353.765 102.986 308.881 117.277 253.514 117.277C198.146 117.277 153.262 102.986 153.262 85.358C153.262 67.7295 198.146 33.7961 253.514 33.7961C308.881 33.7961 353.765 67.7295 353.765 85.358Z" fill="#8C89E2" stroke="black"/>
<path d="M312.77 63.2553C312.77 73.743 286.407 82.245 253.886 82.245C221.365 82.245 195.002 73.743 195.002 63.2553C195.002 52.7676 221.365 1 253.886 1C286.407 1 312.77 52.7676 312.77 63.2553Z" fill="#78FEFF" stroke="black"/>
<path d="M92.8871 356.234V235.139C92.8871 234.211 93.5261 233.404 94.4301 233.192L165.475 216.518C165.776 216.448 166.09 216.448 166.391 216.519L177.848 219.214C178.334 219.329 178.76 219.622 179.042 220.035L189.437 235.281C189.664 235.613 189.785 236.005 189.785 236.407V344.278C189.785 345.145 189.226 345.913 188.402 346.18L122.594 367.514C122.18 367.648 121.734 367.643 121.323 367.501L94.2329 358.124C93.4274 357.845 92.8871 357.086 92.8871 356.234Z" fill="#D7D7F6" stroke="black"/>
<path d="M189.785 238.528V344.278C189.785 345.145 189.226 345.913 188.402 346.181L123.455 367.244C122.163 367.663 120.838 366.7 120.838 365.342V259.24C120.838 258.37 121.401 257.599 122.231 257.335L187.177 236.622C188.467 236.211 189.785 237.173 189.785 238.528Z" fill="#B6C2DF" stroke="black"/>
<path d="M92.8871 357.658V234.3L110.031 241.381L121.211 257.779V367.72L92.8871 357.658Z" fill="#6D7EA5" stroke="black"/>
<path d="M107.422 195.168V232.436L117.857 236.163V198.522C127.547 177.279 165.312 152.309 179.35 147.465L168.914 144.11C143.945 150.073 117.111 179.018 107.422 195.168Z" fill="#99814A" stroke="black"/>
<path d="M179.35 219.392L117.857 236.163V198.522C127.547 177.279 165.312 152.309 179.35 147.464V219.392Z" fill="#EFBF68" stroke="black"/>
<path d="M172.641 215.089L124.938 228.337V198.604C132.455 181.823 161.751 162.099 172.641 158.272V215.089Z" fill="#99814A" stroke="black"/>
<path d="M418.612 358.403V235.045L342.585 213.429L329.914 216.411L318.733 232.809V342.751L389.543 366.975L418.612 358.403Z" fill="#AAB5D1" stroke="black"/>
<path d="M390.288 364.623V258.867C390.288 257.997 389.726 257.226 388.897 256.962L321.714 235.506C320.424 235.093 319.106 236.056 319.106 237.411V343.519C319.106 344.392 319.673 345.165 320.506 345.427L387.689 366.531C388.977 366.936 390.288 365.974 390.288 364.623Z" fill="#5F6E91" stroke="black"/>
<path d="M418.612 356.919V237.801C418.612 236.441 417.285 235.478 415.992 235.899L402.117 240.424C401.697 240.561 401.334 240.833 401.085 241.199L390.636 256.524C390.409 256.856 390.288 257.248 390.288 257.65V364.28C390.288 365.622 391.583 366.583 392.868 366.194L417.192 358.833C418.035 358.578 418.612 357.8 418.612 356.919Z" fill="#D7D7F6" stroke="black"/>
<path d="M298.236 140.384C276.769 142.769 222.705 141.377 213.264 140.384L195.748 161.626V198.522L213.264 220.51C230.556 221.405 285.067 220.883 295.254 220.51L312.77 198.522V161.626L298.236 140.384Z" stroke="black"/>
<path d="M217.57 145.849L217.303 145.821L217.132 146.028L202.07 164.293L201.956 164.432V164.612V196.335V196.51L202.065 196.647L217.126 215.553L217.267 215.729L217.492 215.74C232.382 216.51 282.998 216.061 291.764 215.741L291.994 215.732L292.137 215.553L307.198 196.647L307.307 196.51V196.335V164.612V164.457L307.22 164.329L294.722 146.064L294.552 145.816L294.254 145.85C285.059 146.871 267.92 147.086 252.041 146.936C236.16 146.786 221.601 146.274 217.57 145.849Z" fill="#08FFFA" stroke="black"/>
<path d="M173.014 327.098L146.181 335.67L137.609 327.098V273.059L146.181 257.406L173.014 248.089L180.84 259.642V315.172L173.014 327.098Z" fill="#A5FFFD" stroke="black"/>
<path fill-rule="evenodd" clip-rule="evenodd" d="M139.982 329.471L162.579 322.253L170.405 310.327V254.797L167.223 250.1L173.014 248.089L180.84 259.642V315.172L173.014 327.098L146.181 335.67L139.982 329.471Z" fill="#08FFFA"/>
<path d="M162.579 322.253L162.731 322.729L162.9 322.675L162.997 322.527L162.579 322.253ZM139.982 329.471L139.83 328.995L139.049 329.245L139.629 329.825L139.982 329.471ZM170.405 310.327L170.823 310.602L170.905 310.477V310.327H170.405ZM170.405 254.797H170.905V254.644L170.819 254.517L170.405 254.797ZM167.223 250.1L167.059 249.627L166.444 249.841L166.809 250.38L167.223 250.1ZM173.014 248.089L173.428 247.809L173.213 247.491L172.85 247.617L173.014 248.089ZM180.84 259.642H181.34V259.489L181.254 259.362L180.84 259.642ZM180.84 315.172L181.258 315.446L181.34 315.321V315.172H180.84ZM173.014 327.098L173.166 327.574L173.335 327.52L173.432 327.372L173.014 327.098ZM146.181 335.67L145.827 336.023L146.043 336.239L146.333 336.146L146.181 335.67ZM162.427 321.777L139.83 328.995L140.135 329.948L162.731 322.729L162.427 321.777ZM169.987 310.053L162.161 321.979L162.997 322.527L170.823 310.602L169.987 310.053ZM169.905 254.797V310.327H170.905V254.797H169.905ZM166.809 250.38L169.991 255.078L170.819 254.517L167.637 249.819L166.809 250.38ZM167.387 250.572L173.178 248.561L172.85 247.617L167.059 249.627L167.387 250.572ZM172.6 248.369L180.426 259.923L181.254 259.362L173.428 247.809L172.6 248.369ZM180.34 259.642V315.172H181.34V259.642H180.34ZM180.422 314.898L172.596 326.824L173.432 327.372L181.258 315.446L180.422 314.898ZM172.862 326.622L146.029 335.193L146.333 336.146L173.166 327.574L172.862 326.622ZM146.534 335.316L140.336 329.118L139.629 329.825L145.827 336.023L146.534 335.316Z" fill="black"/>
<path d="M339.976 329.707L366.809 338.278L375.381 329.707V275.668L366.809 260.015L339.976 250.698L332.15 262.251V317.781L339.976 329.707Z" fill="#A5FFFD" stroke="black"/>
<path fill-rule="evenodd" clip-rule="evenodd" d="M374.216 330.872L351.902 323.744L344.076 311.818V256.288L346.361 252.915L339.976 250.698L332.15 262.251V317.781L339.976 329.707L366.809 338.278L374.216 330.872Z" fill="#08FFFA"/>
<path d="M351.902 323.744L351.484 324.018L351.581 324.166L351.75 324.22L351.902 323.744ZM374.216 330.872L374.57 331.225L375.15 330.645L374.368 330.396L374.216 330.872ZM344.076 311.818H343.576V311.967L343.658 312.092L344.076 311.818ZM344.076 256.288L343.662 256.008L343.576 256.135V256.288H344.076ZM346.361 252.915L346.775 253.195L347.14 252.656L346.525 252.442L346.361 252.915ZM339.976 250.698L340.14 250.226L339.777 250.1L339.562 250.417L339.976 250.698ZM332.15 262.251L331.736 261.971L331.65 262.098V262.251H332.15ZM332.15 317.781H331.65V317.93L331.732 318.055L332.15 317.781ZM339.976 329.707L339.558 329.981L339.655 330.129L339.824 330.183L339.976 329.707ZM366.809 338.278L366.657 338.755L366.947 338.847L367.163 338.632L366.809 338.278ZM351.75 324.22L374.064 331.348L374.368 330.396L352.054 323.267L351.75 324.22ZM343.658 312.092L351.484 324.018L352.32 323.469L344.494 311.544L343.658 312.092ZM343.576 256.288V311.818H344.576V256.288H343.576ZM345.947 252.634L343.662 256.008L344.49 256.568L346.775 253.195L345.947 252.634ZM346.525 252.442L340.14 250.226L339.812 251.17L346.197 253.387L346.525 252.442ZM339.562 250.417L331.736 261.971L332.564 262.531L340.39 250.978L339.562 250.417ZM331.65 262.251V317.781H332.65V262.251H331.65ZM331.732 318.055L339.558 329.981L340.394 329.432L332.568 317.507L331.732 318.055ZM339.824 330.183L366.657 338.755L366.961 337.802L340.128 329.23L339.824 330.183ZM367.163 338.632L374.57 331.225L373.862 330.518L366.456 337.925L367.163 338.632Z" fill="black"/>
<mask id="mask0_31866_3769" style="mask-type:alpha" maskUnits="userSpaceOnUse" x="343" y="252" width="33" height="80">
<path fill-rule="evenodd" clip-rule="evenodd" d="M374.216 330.872L351.902 323.744L344.076 311.818V256.288L346.361 252.915L366.809 260.015L375.381 275.668V329.707L374.216 330.872Z" fill="#A5FFFD"/>
<path d="M351.902 323.744L351.484 324.018L351.581 324.166L351.75 324.22L351.902 323.744ZM374.216 330.872L374.064 331.348L374.354 331.441L374.569 331.225L374.216 330.872ZM344.076 311.818H343.576V311.967L343.658 312.092L344.076 311.818ZM344.076 256.288L343.662 256.008L343.576 256.135V256.288H344.076ZM346.361 252.915L346.525 252.442L346.162 252.316L345.947 252.634L346.361 252.915ZM366.809 260.015L367.248 259.775L367.155 259.606L366.973 259.543L366.809 260.015ZM375.381 275.668H375.881V275.54L375.82 275.427L375.381 275.668ZM375.381 329.707L375.735 330.06L375.881 329.914V329.707H375.381ZM351.75 324.22L374.064 331.348L374.368 330.395L352.054 323.267L351.75 324.22ZM343.658 312.092L351.484 324.018L352.32 323.469L344.494 311.544L343.658 312.092ZM343.576 256.288V311.818H344.576V256.288H343.576ZM345.947 252.634L343.662 256.008L344.49 256.568L346.775 253.195L345.947 252.634ZM366.973 259.543L346.525 252.442L346.197 253.387L366.645 260.487L366.973 259.543ZM375.82 275.427L367.248 259.775L366.371 260.255L374.942 275.908L375.82 275.427ZM375.881 329.707V275.668H374.881V329.707H375.881ZM374.569 331.225L375.735 330.06L375.027 329.353L373.862 330.518L374.569 331.225Z" fill="black"/>
</mask>
<g mask="url(#mask0_31866_3769)">
<rect width="19.3287" height="23.8517" rx="4" transform="matrix(0.951057 0.309017 0 1 356.401 272.089)" fill="black"/>
<g clip-path="url(#clip1_31866_3769)">
<rect width="11.9654" height="15.3333" rx="4" transform="matrix(0.951057 0.309017 0 1 359.903 277.202)" fill="black"/>
<path d="M359.97 284.15L363.709 278.439L365.599 282.568L363.682 285.443L360.01 284.249C359.996 284.245 359.996 284.245 359.983 284.223C359.97 284.219 359.97 284.202 359.97 284.202C359.97 284.184 359.97 284.184 359.97 284.167C359.956 284.163 359.97 284.167 359.97 284.15Z" fill="#7F4AFE"/>
<path d="M371.215 287.804L367.476 279.663L365.599 282.568L367.502 286.701L371.175 287.894C371.188 287.899 371.188 287.899 371.202 287.886C371.215 287.89 371.215 287.873 371.215 287.873C371.215 287.856 371.215 287.856 371.215 287.838C371.229 287.826 371.215 287.821 371.215 287.804Z" fill="#7F4AFE"/>
<path d="M371.282 288.825C371.296 289.794 371.148 290.711 370.867 291.515C370.585 292.32 370.17 293.012 369.634 293.527C369.098 294.042 368.468 294.388 367.784 294.528C367.1 294.668 366.35 294.631 365.586 294.382C364.835 294.138 364.085 293.705 363.388 293.1C362.691 292.494 362.061 291.755 361.538 290.896C361.015 290.037 360.586 289.088 360.305 288.084C360.037 287.101 359.889 286.088 359.903 285.128L363.522 286.303C363.522 286.665 363.562 287.023 363.669 287.385C363.776 287.747 363.924 288.105 364.111 288.407C364.299 288.727 364.54 288.995 364.795 289.215C365.05 289.436 365.318 289.592 365.599 289.683C365.881 289.775 366.149 289.793 366.403 289.738C366.658 289.683 366.886 289.55 367.087 289.374C367.275 289.177 367.436 288.936 367.529 288.639C367.637 288.347 367.677 287.998 367.677 287.654L371.282 288.825Z" fill="#0166FF"/>
</g>
<path d="M354.628 302.407L355.836 303.059L357.044 303.192V309.062L354.628 308.277V302.407ZM355.836 302.499C355.43 302.368 355.103 302.158 354.856 301.871C354.609 301.584 354.485 301.261 354.485 300.901C354.485 300.541 354.609 300.297 354.856 300.171C355.103 300.045 355.43 300.048 355.836 300.179C356.248 300.313 356.574 300.523 356.815 300.808C357.063 301.095 357.186 301.418 357.186 301.778C357.186 302.138 357.063 302.381 356.815 302.508C356.574 302.636 356.248 302.633 355.836 302.499ZM357.905 309.342V307.512L362.176 304.749L364.021 305.799L357.934 303.821V301.841L364.953 304.122V305.952L360.692 308.717L359.113 307.754L364.981 309.661V311.641L357.905 309.342ZM368.114 312.829C367.6 312.662 367.16 312.409 366.792 312.069C366.424 311.723 366.142 311.318 365.945 310.854C365.755 310.386 365.66 309.885 365.66 309.351V306.111L368.076 306.896V309.776C368.076 310.09 368.152 310.358 368.304 310.581C368.462 310.805 368.684 310.964 368.97 311.057C369.192 311.129 369.372 311.148 369.512 311.113C369.658 311.074 369.765 310.982 369.835 310.838C369.911 310.689 369.949 310.492 369.949 310.245L370.663 310.857C370.58 311.45 370.412 311.916 370.159 312.253C369.911 312.586 369.61 312.798 369.255 312.89C368.906 312.983 368.526 312.963 368.114 312.829ZM370.33 313.379L369.949 310.805V307.505L372.365 308.29V311.98L372.745 314.164L370.33 313.379ZM356.178 312.03L358.593 312.815L358.974 315.389V318.689L356.558 317.904V314.214L356.178 312.03ZM360.771 313.343C361.285 313.51 361.722 313.765 362.084 314.109C362.445 314.447 362.721 314.85 362.911 315.318C363.101 315.78 363.196 316.281 363.196 316.821V320.061L360.781 319.276V316.396C360.781 316.076 360.705 315.805 360.552 315.582C360.407 315.361 360.194 315.206 359.915 315.115C359.719 315.051 359.547 315.042 359.402 315.088C359.262 315.129 359.154 315.224 359.078 315.373C359.008 315.517 358.974 315.709 358.974 315.949L358.26 315.337C358.349 314.739 358.514 314.273 358.755 313.938C359.002 313.598 359.3 313.382 359.649 313.288C359.998 313.195 360.372 313.213 360.771 313.343ZM364.984 314.712C365.498 314.879 365.935 315.134 366.297 315.478C366.665 315.818 366.943 316.222 367.134 316.69C367.324 317.152 367.419 317.653 367.419 318.193V321.433L365.003 320.648V317.768C365.003 317.448 364.927 317.177 364.775 316.954C364.629 316.733 364.417 316.578 364.138 316.487C363.941 316.423 363.77 316.414 363.624 316.46C363.485 316.501 363.377 316.596 363.301 316.745C363.231 316.889 363.196 317.081 363.196 317.321L362.483 316.709C362.572 316.111 362.737 315.645 362.978 315.31C363.219 314.968 363.513 314.751 363.862 314.657C364.211 314.564 364.585 314.582 364.984 314.712ZM368.267 315.838L369.475 316.491L370.682 316.623V322.493L368.267 321.708V315.838ZM369.475 315.931C369.069 315.799 368.742 315.59 368.495 315.303C368.248 315.016 368.124 314.692 368.124 314.332C368.124 313.972 368.248 313.729 368.495 313.603C368.742 313.476 369.069 313.479 369.475 313.611C369.887 313.745 370.213 313.954 370.454 314.239C370.701 314.526 370.825 314.85 370.825 315.21C370.825 315.57 370.701 315.813 370.454 315.939C370.213 316.068 369.887 316.065 369.475 315.931Z" fill="black"/>
</g>
<path d="M401.842 192.932V230.2L391.406 233.927V196.286C381.717 175.043 343.951 150.073 329.914 145.228L340.349 141.874C365.319 147.837 392.152 176.782 401.842 192.932Z" fill="#EFBF68" stroke="black"/>
<path d="M329.914 217.156L391.406 233.927V196.286C381.717 175.043 343.951 150.073 329.914 145.228V217.156Z" fill="#99814A" stroke="black"/>
<path d="M336.622 212.853L384.326 226.101V196.367C376.809 179.587 347.512 159.863 336.622 156.036V212.853Z" fill="#86703C" stroke="black"/>
<path d="M300.844 367.348L276.993 359.521L306.807 384.491L324.323 388.218V381.137L300.844 374.429V367.348Z" fill="#3C3C7D" stroke="black"/>
<path d="M300.099 374.429L364.201 353.186L388.052 360.267L323.578 381.51L300.099 374.429Z" fill="#A6A6DB" stroke="black" stroke-linejoin="round"/>
<path d="M276.993 359.521L340.349 339.396L364.201 346.477L300.472 367.72L276.993 359.521Z" fill="#A6A6DB" stroke="black" stroke-linejoin="round"/>
<path d="M324.323 388.218L388.052 366.975V359.894L324.323 381.137V388.218Z" fill="#5C5CAC" stroke="black" stroke-linejoin="round"/>
<path d="M300.472 374.429L364.201 353.186V346.105L300.472 367.348V374.429Z" fill="#5C5CAC" stroke="black" stroke-linejoin="round"/>
<path d="M238.735 404.572L190.903 389.709L232.271 359.521H277.365L323.951 388.591L274.941 404.383C263.18 408.172 250.535 408.239 238.735 404.572Z" fill="#5757BC" stroke="black"/>
<path d="M272.436 363.994H241.722C241.403 363.994 241.104 364.145 240.915 364.402L238.282 367.992C237.798 368.653 238.27 369.584 239.089 369.584H275.548C276.405 369.584 276.865 368.576 276.304 367.929L273.192 364.339C273.002 364.119 272.726 363.994 272.436 363.994Z" fill="#FFBF49" stroke="black"/>
<path d="M280.472 373.683H235.262C234.958 373.683 234.67 373.822 234.48 374.061L231.326 378.023C230.805 378.679 231.271 379.646 232.108 379.646H283.794C284.643 379.646 285.106 378.655 284.56 378.004L281.238 374.041C281.048 373.814 280.767 373.683 280.472 373.683Z" fill="#FFBF49" stroke="black"/>
<path d="M287.925 384.119H227.809C227.504 384.119 227.216 384.257 227.026 384.496L223.872 388.459C223.351 389.114 223.818 390.081 224.655 390.081H291.248C292.097 390.081 292.559 389.09 292.014 388.439L288.692 384.476C288.502 384.249 288.221 384.119 287.925 384.119Z" fill="#FFBF49" stroke="black"/>
<path d="M266.603 356.913H248.968C247.831 356.913 247.576 355.316 248.657 354.962L257.188 352.167C257.384 352.102 257.596 352.1 257.793 352.161L266.897 354.957C267.994 355.294 267.751 356.913 266.603 356.913Z" fill="#FFBF49" stroke="black"/>
<path d="M211.028 367.72L232.643 359.521L202.456 385.982L190.53 390.081V382.255L211.028 374.801V367.72Z" fill="#3C3C7D" stroke="black"/>
<path d="M211.773 374.801L146.181 352.068L124.192 359.521L190.157 383L211.773 374.801Z" fill="#A6A6DB" stroke="black" stroke-linejoin="round"/>
<path d="M232.643 359.894L167.051 337.906L145.063 345.359L211.028 368.093L232.643 359.894Z" fill="#A6A6DB" stroke="black" stroke-linejoin="round"/>
<path d="M190.903 390.081L124.192 366.602V359.521L190.903 383V390.081Z" fill="#5C5CAC" stroke="black"/>
<path d="M211.028 375.174L145.063 352.44V345.359L211.028 368.093V375.174Z" fill="#5C5CAC" stroke="black"/>
<mask id="mask1_31866_3769" style="mask-type:alpha" maskUnits="userSpaceOnUse" x="137" y="249" width="34" height="82">
<path fill-rule="evenodd" clip-rule="evenodd" d="M139.982 329.471L162.579 322.253L170.405 310.327V254.797L167.223 250.1L146.181 257.406L137.609 273.059V327.098L139.982 329.471Z" fill="#A5FFFD"/>
<path d="M162.579 322.253L162.731 322.729L162.9 322.675L162.997 322.527L162.579 322.253ZM139.982 329.471L139.629 329.825L139.844 330.04L140.135 329.948L139.982 329.471ZM170.405 310.327L170.823 310.601L170.905 310.477V310.327H170.405ZM170.405 254.797H170.905V254.644L170.819 254.517L170.405 254.797ZM167.223 250.1L167.637 249.819L167.422 249.502L167.059 249.627L167.223 250.1ZM146.181 257.406L146.017 256.934L145.835 256.997L145.742 257.166L146.181 257.406ZM137.609 273.059L137.171 272.819L137.109 272.931V273.059H137.609ZM137.609 327.098H137.109V327.305L137.256 327.451L137.609 327.098ZM162.427 321.777L139.83 328.995L140.135 329.948L162.731 322.729L162.427 321.777ZM169.987 310.053L162.161 321.979L162.997 322.527L170.823 310.601L169.987 310.053ZM169.905 254.797V310.327H170.905V254.797H169.905ZM166.809 250.38L169.991 255.078L170.819 254.517L167.637 249.819L166.809 250.38ZM146.345 257.878L167.387 250.572L167.059 249.627L146.017 256.934L146.345 257.878ZM138.048 273.299L146.619 257.646L145.742 257.166L137.171 272.819L138.048 273.299ZM138.109 327.098V273.059H137.109V327.098H138.109ZM140.336 329.118L137.963 326.744L137.256 327.451L139.629 329.825L140.336 329.118Z" fill="black"/>
</mask>
<g mask="url(#mask1_31866_3769)">
<rect width="19.0976" height="23.8517" rx="4" transform="matrix(0.951057 -0.309017 0 1 144.318 277.265)" fill="black"/>
<path fill-rule="evenodd" clip-rule="evenodd" d="M153.235 294.997C151.329 295.615 149.794 295.513 148.721 294.783C147.635 294.044 147.059 292.681 147.059 290.928C147.059 289.239 147.634 287.834 148.284 286.799C148.794 285.988 149.356 285.392 149.748 285.027C149.659 284.699 149.549 284.268 149.45 283.818C149.317 283.215 149.188 282.499 149.188 281.944C149.188 281.287 149.297 280.592 149.591 279.983C149.902 279.341 150.37 278.898 150.933 278.715C151.372 278.573 151.746 278.665 152.038 278.94C152.318 279.203 152.504 279.611 152.632 280.059C152.858 280.845 152.946 281.896 152.97 282.966L153.51 282.791C153.534 281.705 153.622 280.597 153.848 279.664C153.976 279.133 154.162 278.603 154.442 278.159C154.734 277.695 155.108 277.359 155.547 277.216C156.11 277.033 156.578 277.171 156.889 277.612C157.183 278.029 157.292 278.654 157.292 279.311C157.292 279.866 157.163 280.666 157.03 281.355C156.931 281.869 156.821 282.372 156.732 282.758C157.124 282.868 157.686 283.099 158.196 283.579C158.846 284.191 159.421 285.222 159.421 286.912C159.421 288.665 158.845 290.401 157.759 291.846C156.686 293.273 155.151 294.373 153.245 294.994L153.235 294.997Z" fill="#633001"/>
<path d="M150.932 279.34C150.108 279.608 149.729 280.547 149.729 281.676C149.729 282.573 150.169 284.226 150.35 284.866C150.391 285.01 150.327 285.203 150.21 285.302C149.55 285.863 147.6 287.762 147.6 290.66C147.6 293.713 149.581 295.371 153.236 294.187L153.24 294.186L153.244 294.184C156.898 292.993 158.88 290.048 158.88 286.995C158.88 284.097 156.93 283.465 156.269 283.334C156.153 283.311 156.089 283.159 156.129 282.989C156.31 282.231 156.751 280.291 156.751 279.394C156.751 278.266 156.372 277.573 155.547 277.841C154.361 278.226 154.065 280.553 154.044 282.953C154.042 283.113 153.945 283.274 153.825 283.314L152.655 283.693C152.535 283.733 152.437 283.635 152.436 283.475C152.415 281.089 152.119 278.955 150.932 279.34Z" fill="#D1884F"/>
<path d="M153.244 293.206C150.559 294.079 147.604 293.132 147.6 290.666V290.677C147.6 293.733 149.585 295.391 153.244 294.202C156.904 293.013 158.889 290.065 158.889 287.009V286.998C158.884 289.467 155.929 292.334 153.244 293.206Z" fill="#FEDC90"/>
<path d="M151.752 288.558C151.752 289.392 151.456 289.922 151.089 290.041C150.723 290.16 150.426 289.822 150.426 288.989C150.426 288.156 150.723 287.625 151.089 287.506C151.456 287.388 151.752 287.725 151.752 288.558ZM156.062 287.158C156.062 287.991 155.765 288.522 155.399 288.641C155.033 288.76 154.736 288.422 154.736 287.589C154.736 286.756 155.033 286.225 155.399 286.106C155.765 285.987 156.062 286.325 156.062 287.158Z" fill="#633001"/>
<path d="M144.577 305.549C145.224 305.339 145.775 305.273 146.232 305.351C146.695 305.421 147.047 305.623 147.287 305.958C147.528 306.287 147.649 306.727 147.649 307.281C147.649 307.834 147.528 308.357 147.287 308.848C147.047 309.333 146.695 309.764 146.232 310.141C145.775 310.509 145.224 310.799 144.577 311.009L141.562 311.988V309.978L144.415 309.051C144.656 308.973 144.843 308.849 144.976 308.679C145.11 308.509 145.176 308.311 145.176 308.084C145.176 307.851 145.11 307.696 144.976 307.619C144.843 307.536 144.656 307.533 144.415 307.611L141.771 308.47L142.875 306.952V313.602L140.421 314.399V306.899L144.577 305.549ZM152.986 310.317L152.71 308.376L152.986 307.447L152.71 306.706L152.986 304.567L155.497 303.751L155.116 306.744L155.497 309.501L152.986 310.317ZM153.49 307.283C153.427 307.917 153.268 308.505 153.014 309.047C152.767 309.581 152.441 310.04 152.035 310.426C151.635 310.809 151.176 311.085 150.656 311.254C150.123 311.427 149.654 311.453 149.248 311.331C148.849 311.208 148.535 310.953 148.307 310.567C148.085 310.179 147.974 309.682 147.974 309.075C147.974 308.462 148.085 307.889 148.307 307.357C148.535 306.823 148.849 306.364 149.248 305.981C149.654 305.596 150.123 305.317 150.656 305.144C151.176 304.975 151.635 304.952 152.035 305.076C152.441 305.19 152.77 305.437 153.024 305.814C153.278 306.185 153.433 306.675 153.49 307.283ZM150.409 308.284C150.409 308.504 150.45 308.687 150.532 308.834C150.621 308.972 150.741 309.066 150.894 309.116C151.052 309.165 151.233 309.156 151.436 309.09C151.645 309.022 151.848 308.906 152.044 308.743C152.241 308.579 152.412 308.39 152.558 308.176C152.71 307.953 152.815 307.722 152.872 307.484C152.815 307.282 152.71 307.12 152.558 306.996C152.412 306.87 152.241 306.789 152.044 306.753C151.848 306.716 151.645 306.732 151.436 306.8C151.233 306.866 151.052 306.975 150.894 307.126C150.741 307.276 150.621 307.452 150.532 307.654C150.45 307.854 150.409 308.064 150.409 308.284ZM156.006 303.585L158.422 302.8L158.802 305.127V308.427L156.387 309.212V305.522L156.006 303.585ZM160.695 301.882C161.227 301.709 161.681 301.675 162.055 301.78C162.429 301.878 162.714 302.099 162.911 302.442C163.114 302.776 163.215 303.213 163.215 303.753V306.993L160.799 307.778V304.898C160.799 304.578 160.714 304.359 160.543 304.241C160.378 304.122 160.143 304.111 159.839 304.21C159.623 304.28 159.436 304.387 159.278 304.532C159.126 304.668 159.008 304.836 158.926 305.037C158.843 305.23 158.802 305.447 158.802 305.687L158.089 305.539C158.178 304.883 158.349 304.307 158.603 303.812C158.856 303.309 159.164 302.896 159.525 302.572C159.886 302.248 160.276 302.018 160.695 301.882ZM170.893 301.968C170.849 302.523 170.668 303.055 170.351 303.564C170.034 304.074 169.619 304.526 169.105 304.919C168.598 305.311 168.024 305.61 167.384 305.818C166.686 306.045 166.071 306.118 165.539 306.038C165.006 305.951 164.591 305.726 164.293 305.363C163.995 305 163.846 304.518 163.846 303.918C163.846 303.311 163.995 302.733 164.293 302.183C164.591 301.626 165.006 301.131 165.539 300.698C166.071 300.265 166.686 299.935 167.384 299.708C168.024 299.5 168.598 299.427 169.105 299.489C169.619 299.549 170.034 299.731 170.351 300.034C170.668 300.331 170.849 300.746 170.893 301.278L168.506 302.054C168.449 301.786 168.319 301.615 168.116 301.541C167.92 301.458 167.675 301.464 167.384 301.558C167.162 301.631 166.965 301.741 166.794 301.89C166.629 302.03 166.502 302.205 166.414 302.414C166.325 302.623 166.281 302.86 166.281 303.127C166.281 303.394 166.325 303.603 166.414 303.754C166.502 303.898 166.629 303.99 166.794 304.03C166.965 304.061 167.162 304.041 167.384 303.968C167.675 303.874 167.92 303.718 168.116 303.501C168.319 303.275 168.449 303.022 168.506 302.744L170.893 301.968ZM149.61 320.414L149.334 318.473L149.61 317.544L149.334 316.803L149.61 314.664L152.121 313.848L151.74 316.841L152.121 319.598L149.61 320.414ZM150.114 317.38C150.051 318.014 149.892 318.602 149.638 319.144C149.391 319.678 149.065 320.137 148.659 320.523C148.259 320.906 147.8 321.182 147.28 321.351C146.747 321.524 146.278 321.549 145.872 321.428C145.473 321.304 145.159 321.05 144.931 320.664C144.709 320.276 144.598 319.779 144.598 319.172C144.598 318.559 144.709 317.986 144.931 317.454C145.159 316.92 145.473 316.461 145.872 316.078C146.278 315.693 146.747 315.414 147.28 315.241C147.8 315.072 148.259 315.049 148.659 315.173C149.065 315.287 149.394 315.534 149.648 315.911C149.902 316.282 150.057 316.772 150.114 317.38ZM147.033 318.381C147.033 318.601 147.074 318.784 147.156 318.931C147.245 319.069 147.365 319.163 147.518 319.213C147.676 319.262 147.857 319.253 148.06 319.187C148.269 319.119 148.472 319.003 148.668 318.839C148.865 318.676 149.036 318.487 149.182 318.273C149.334 318.05 149.439 317.819 149.496 317.581C149.439 317.379 149.334 317.217 149.182 317.093C149.036 316.967 148.865 316.886 148.668 316.849C148.472 316.813 148.269 316.829 148.06 316.897C147.857 316.963 147.676 317.072 147.518 317.223C147.365 317.373 147.245 317.549 147.156 317.751C147.074 317.951 147.033 318.161 147.033 318.381ZM155.303 316.594L154.656 316.584L157.385 312.137L159.839 311.34L155.017 318.657L152.887 319.349V311.649L155.303 310.864V316.594ZM155.826 315.614L157.69 313.758L159.972 317.047L157.29 317.918L155.826 315.614ZM163.274 316.154C162.596 316.374 161.987 316.445 161.448 316.367C160.916 316.28 160.494 316.057 160.183 315.698C159.873 315.332 159.717 314.843 159.717 314.229C159.717 313.623 159.866 313.044 160.164 312.494C160.469 311.942 160.881 311.455 161.401 311.032C161.921 310.61 162.504 310.294 163.151 310.084C163.829 309.863 164.406 309.823 164.882 309.961C165.357 310.1 165.722 310.398 165.975 310.856C166.229 311.307 166.356 311.899 166.356 312.632L161.696 314.147V312.977L164.948 311.92L164.302 312.51C164.27 312.26 164.206 312.064 164.111 311.922C164.016 311.779 163.889 311.691 163.731 311.655C163.579 311.611 163.395 311.625 163.179 311.695C162.938 311.773 162.732 311.896 162.561 312.065C162.396 312.232 162.269 312.43 162.181 312.659C162.098 312.879 162.057 313.113 162.057 313.359C162.057 313.679 162.124 313.928 162.257 314.104C162.396 314.272 162.605 314.368 162.884 314.39C163.163 314.413 163.515 314.355 163.94 314.217C164.352 314.083 164.752 313.9 165.138 313.668C165.532 313.427 165.893 313.15 166.223 312.836V314.276C165.817 314.708 165.354 315.088 164.834 315.417C164.321 315.737 163.801 315.983 163.274 316.154Z" fill="black"/>
</g>
<ellipse opacity="0.4" cx="24.4154" cy="4.8091" rx="24.4154" ry="4.8091" transform="matrix(-1 0 0 1 279.997 318.744)" fill="black"/>
<path d="M233.621 288.238C234.15 285.858 236.596 279.975 238.248 278.322C242.215 274.356 248.495 285.924 247.173 287.907C246.115 289.494 245.189 291.381 244.859 292.127C245.078 292.155 245.298 292.181 245.52 292.204C245.029 293.306 242.52 296.777 241.733 298.154C240.411 300.468 240.741 300.468 239.75 302.451C239.419 303.002 238.626 304.368 238.097 305.426C237.436 306.748 237.623 308.588 235.712 307.833C235.326 308.115 234.711 308.189 233.889 307.833C233.697 307.971 233.401 308.016 232.96 307.918C231.229 307.531 230.824 305.616 230.944 304.836C230.63 304.608 230.343 304.158 230.164 303.443C229.636 301.327 230.495 300.248 231.156 298.815L232.96 287.908L233.621 288.238Z" fill="#6C53A7"/>
<path d="M233.621 288.238C234.15 285.858 236.596 279.975 238.248 278.322C242.215 274.356 248.495 285.924 247.173 287.907C246.115 289.494 245.189 291.381 244.859 292.127M233.621 288.238L232.96 287.908L231.156 298.815C230.495 300.248 229.636 301.327 230.164 303.443C230.825 306.087 232.96 305.095 232.478 302.751C233.573 302.656 235.453 301.46 235.453 299.807M233.621 288.238C235.095 289.081 240.118 291.51 244.859 292.127M244.859 292.127C245.078 292.155 245.298 292.181 245.52 292.204C245.029 293.306 242.52 296.777 241.733 298.154C240.411 300.468 240.741 300.468 239.75 302.451C239.419 303.002 238.626 304.368 238.097 305.426C237.436 306.748 237.623 308.588 235.712 307.833M230.944 304.836C230.824 305.616 231.229 307.531 232.96 307.918C233.401 308.016 233.697 307.971 233.889 307.833M235.122 302.451C234.682 303.222 233.8 304.831 233.8 305.095C233.8 305.358 234.638 307.297 233.889 307.833M237.106 303.112C236.665 303.883 235.85 305.624 236.114 306.418C236.289 306.941 236.144 307.518 235.712 307.833M233.889 307.833C234.711 308.189 235.326 308.115 235.712 307.833" stroke="black" stroke-linecap="round"/>
<path d="M232.96 287.908L231.156 298.815C230.495 300.248 229.636 301.327 230.164 303.443C230.343 304.158 230.63 304.608 230.944 304.836C230.824 305.616 231.229 307.531 232.96 307.918C233.401 308.016 233.697 307.971 233.889 307.833C234.711 308.189 235.326 308.115 235.712 307.833C237.623 308.588 237.436 306.748 238.097 305.426C238.626 304.368 239.419 303.002 239.75 302.451C240.741 300.468 240.411 300.468 241.733 298.154C242.52 296.777 245.029 293.306 245.52 292.204C245.298 292.181 245.078 292.155 244.859 292.127C240.118 291.51 235.095 289.081 233.621 288.238L232.96 287.908Z" fill="#9F974C"/>
<path d="M235.453 299.807C235.453 301.46 233.573 302.656 232.478 302.751C232.96 305.095 230.825 306.087 230.164 303.443C229.636 301.327 230.495 300.248 231.156 298.815L232.96 287.908L233.621 288.238C235.095 289.081 240.118 291.51 244.859 292.127C245.078 292.155 245.298 292.181 245.52 292.204C245.029 293.306 242.52 296.777 241.733 298.154C240.411 300.468 240.741 300.468 239.75 302.451C239.419 303.002 238.626 304.368 238.097 305.426C237.436 306.748 237.623 308.588 235.712 307.833M230.944 304.836C230.824 305.616 231.229 307.531 232.96 307.918C233.401 308.016 233.697 307.971 233.889 307.833M235.122 302.451C234.682 303.222 233.8 304.831 233.8 305.095C233.8 305.359 234.638 307.297 233.889 307.833M237.106 303.112C236.665 303.883 235.85 305.624 236.114 306.418C236.289 306.941 236.144 307.518 235.712 307.833M233.889 307.833C234.711 308.189 235.326 308.115 235.712 307.833" stroke="black" stroke-linecap="round"/>
<g filter="url(#filter1_i_31866_3769)">
<path d="M248.292 254.195C258.361 250.861 267.748 254.565 270.598 264.553C284.641 313.754 272.481 301.762 270.599 321.343C271.393 321.968 272.012 322.957 271.271 324.213C269.926 326.492 258.765 326.707 258.362 324.83C258.039 323.328 258.94 322.435 259.702 321.899L255.394 312.039H250.436C249.092 315.257 249.368 320.956 248.292 323.37C247.216 325.784 234.576 324.443 234.845 322.163C235.06 320.339 236.452 319.736 237.707 319.557C237.618 318.35 233.592 314.543 232.813 305.047C231.823 292.981 230.413 260.114 248.292 254.195Z" fill="#B392FF"/>
</g>
<path d="M248.135 253.72L248.292 254.195L248.135 253.72C253.263 252.022 258.258 252.103 262.355 253.921C266.461 255.743 269.616 259.289 271.079 264.415C278.097 289.002 278.615 298.434 277.053 304.186C276.476 306.312 275.607 307.943 274.726 309.598C274.42 310.172 274.113 310.748 273.816 311.349C272.675 313.656 271.6 316.459 271.122 321.13C271.484 321.457 271.814 321.874 271.984 322.383C272.195 323.013 272.14 323.724 271.702 324.467C271.463 324.871 271.043 325.178 270.573 325.417C270.094 325.66 269.507 325.859 268.865 326.02C267.58 326.342 266.009 326.527 264.481 326.58C262.953 326.633 261.44 326.555 260.269 326.338C259.686 326.23 259.162 326.083 258.757 325.885C258.377 325.699 257.974 325.404 257.873 324.935C257.684 324.056 257.853 323.33 258.194 322.749C258.44 322.33 258.768 321.998 259.086 321.738L255.067 312.539H250.777C250.224 314.042 249.981 316.053 249.76 318.061C249.749 318.168 249.737 318.275 249.725 318.381C249.622 319.331 249.519 320.268 249.386 321.112C249.238 322.045 249.045 322.907 248.749 323.573C248.538 324.047 248.082 324.356 247.589 324.565C247.084 324.779 246.455 324.924 245.765 325.016C244.384 325.201 242.671 325.186 241.016 325.024C239.362 324.863 237.73 324.551 236.516 324.125C235.912 323.913 235.378 323.661 234.995 323.363C234.621 323.073 234.284 322.65 234.348 322.104C234.472 321.058 234.943 320.328 235.585 319.844C236.031 319.507 236.543 319.302 237.044 319.177C236.934 318.961 236.78 318.7 236.585 318.372C236.562 318.333 236.538 318.293 236.514 318.253C236.12 317.593 235.604 316.728 235.069 315.629C233.93 313.29 232.71 309.904 232.315 305.088C231.819 299.045 231.215 287.761 232.984 277.233C234.745 266.748 238.904 256.776 248.135 253.72Z" stroke="black" stroke-linecap="round"/>
<g filter="url(#filter2_d_31866_3769)">
<path d="M263.294 274.683C263.294 280.812 256.503 281.939 248.127 281.939C239.75 281.939 232.959 280.812 232.959 274.683C232.959 268.554 239.75 259.743 248.127 259.743C256.503 259.743 263.294 268.554 263.294 274.683Z" fill="black" stroke="black" stroke-linecap="round"/>
<path d="M261.074 271.581C259.298 263.591 250.716 261.223 248.496 261.223H248.487C246.615 261.223 242.67 261.223 248.496 263.812C258.484 268.252 248.497 275.281 254.415 277.5C257.271 278.571 262.471 277.87 261.074 271.581Z" fill="white"/>
</g>
<g filter="url(#filter3_d_31866_3769)">
<path d="M276.212 293.436C275.779 291.037 273.571 285.06 271.986 283.342C268.182 279.22 261.443 290.527 262.685 292.562C263.678 294.19 264.527 296.112 264.827 296.87C264.607 296.89 264.386 296.907 264.164 296.922L267.478 304.994C266.553 306.06 265.028 308.336 266.328 308.917C267.628 309.499 269.125 307.927 269.711 307.068C270.477 307.209 271.909 308.348 271.507 311.772C271.078 315.421 274.214 314.163 274.811 311.854C274.78 312.642 274.983 314.161 276.051 313.939C276.909 313.761 277.812 312.489 278.03 310.71C278.163 311.267 278.632 312.256 279.446 311.76C280.464 311.139 281.283 307.202 279.725 304.824L276.886 293.132L276.212 293.436Z" fill="#B392FF"/>
<path d="M276.212 293.436C275.779 291.037 273.571 285.06 271.986 283.342C268.182 279.22 261.443 290.527 262.685 292.562C263.678 294.19 264.527 296.112 264.827 296.87M276.212 293.436L276.886 293.132L279.725 304.824C281.283 307.202 280.464 311.139 279.446 311.76C278.632 312.256 278.163 311.267 278.03 310.71M276.212 293.436C274.705 294.218 269.589 296.445 264.827 296.87M273.978 307.901C274.092 307.796 274.429 308.184 274.862 310.583C274.942 311.025 274.915 311.455 274.811 311.854M274.811 311.854C274.214 314.163 271.078 315.421 271.507 311.772C271.909 308.348 270.477 307.209 269.711 307.068C269.125 307.927 267.628 309.499 266.328 308.917C265.028 308.336 266.553 306.06 267.478 304.994L264.164 296.922C264.386 296.907 264.607 296.89 264.827 296.87M274.811 311.854C274.78 312.642 274.983 314.161 276.051 313.939C276.909 313.761 277.812 312.489 278.03 310.71M277.637 307.387C278.061 308.583 278.15 309.725 278.03 310.71" stroke="black" stroke-linecap="round"/>
</g>
<g filter="url(#filter4_d_31866_3769)">
<path d="M267.478 304.994L264.163 296.922C264.386 296.908 264.607 296.89 264.827 296.871C269.589 296.445 274.705 294.219 276.212 293.436L276.886 293.132L279.725 304.824C281.283 307.203 280.463 311.139 279.446 311.76C278.632 312.257 278.163 311.267 278.029 310.711C277.811 312.489 276.909 313.761 276.051 313.939C274.983 314.161 274.78 312.642 274.811 311.855C274.213 314.164 271.078 315.422 271.506 311.772C271.909 308.348 270.477 307.21 269.71 307.069C269.125 307.927 267.628 309.499 266.328 308.918C265.028 308.336 266.553 306.06 267.478 304.994Z" fill="#F0E78C"/>
<path d="M273.977 307.902C274.092 307.796 274.429 308.184 274.862 310.584C274.942 311.025 274.914 311.456 274.811 311.855M274.811 311.855C274.213 314.164 271.078 315.422 271.506 311.772C271.909 308.348 270.477 307.21 269.71 307.069C269.125 307.927 267.628 309.499 266.328 308.918C265.028 308.336 266.553 306.06 267.478 304.994L264.163 296.922C264.386 296.908 264.607 296.89 264.827 296.871C269.589 296.445 274.705 294.219 276.212 293.436L276.886 293.132L279.725 304.824C281.283 307.203 280.463 311.139 279.446 311.76C278.632 312.257 278.163 311.267 278.029 310.711M274.811 311.855C274.78 312.642 274.983 314.161 276.051 313.939C276.909 313.761 277.811 312.489 278.029 310.711M277.637 307.387C278.061 308.584 278.15 309.725 278.029 310.711" stroke="black" stroke-linecap="round"/>
</g>
<g opacity="0.3" filter="url(#filter5_d_31866_3769)">
<path d="M264.164 296.922L267.478 304.994C266.553 306.059 265.029 308.336 266.328 308.917C266.907 309.176 267.524 309.008 268.083 308.667C268.78 308.241 269.386 307.545 269.711 307.068C270.477 307.209 271.909 308.347 271.507 311.772C271.252 313.943 272.259 314.377 273.242 313.886C273.911 313.552 274.569 312.789 274.811 311.854C274.78 312.642 274.983 314.161 276.051 313.939C276.417 313.863 276.791 313.588 277.116 313.16C276.991 313.296 276.57 313.324 275.887 312.348C275.219 311.393 274.755 309.94 274.596 309.293C274.593 309.28 274.59 309.267 274.586 309.253C274.59 309.266 274.593 309.28 274.596 309.293C274.68 309.639 274.769 310.064 274.862 310.583C274.942 311.025 274.915 311.455 274.811 311.854C274.569 312.789 273.911 313.552 273.242 313.886C272.316 313.314 273.059 310.442 272.472 308.317C272.003 306.616 270.436 306.776 269.711 307.068C269.386 307.545 268.78 308.241 268.083 308.667C266.895 305.846 269.238 305.357 269.84 304.342C270.322 303.53 269.067 298.622 268.38 296.27C268.021 296.355 267.658 296.435 267.294 296.508C266.628 294.095 264.276 290.786 263.183 289.432C262.589 290.822 262.354 292.02 262.685 292.562C263.678 294.19 264.527 296.112 264.827 296.87C264.607 296.89 264.386 296.907 264.164 296.922Z" fill="black"/>
</g>
</g>
<defs>
<filter id="filter0_d_31866_3769" x="0.811035" y="262.739" width="512.072" height="181.789" filterUnits="userSpaceOnUse" color-interpolation-filters="sRGB">
<feFlood flood-opacity="0" result="BackgroundImageFix"/>
<feColorMatrix in="SourceAlpha" type="matrix" values="0 0 0 0 0 0 0 0 0 0 0 0 0 0 0 0 0 0 127 0" result="hardAlpha"/>
<feOffset dy="4"/>
<feComposite in2="hardAlpha" operator="out"/>
<feColorMatrix type="matrix" values="0 0 0 0 0.116424 0 0 0 0 0.125523 0 0 0 0 0.365104 0 0 0 1 0"/>
<feBlend mode="normal" in2="BackgroundImageFix" result="effect1_dropShadow_31866_3769"/>
<feBlend mode="normal" in="SourceGraphic" in2="effect1_dropShadow_31866_3769" result="shape"/>
</filter>
<filter id="filter1_i_31866_3769" x="231.3" y="252" width="46.979" height="75.0958" filterUnits="userSpaceOnUse" color-interpolation-filters="sRGB">
<feFlood flood-opacity="0" result="BackgroundImageFix"/>
<feBlend mode="normal" in="SourceGraphic" in2="BackgroundImageFix" result="shape"/>
<feColorMatrix in="SourceAlpha" type="matrix" values="0 0 0 0 0 0 0 0 0 0 0 0 0 0 0 0 0 0 127 0" result="hardAlpha"/>
<feOffset dx="8"/>
<feComposite in2="hardAlpha" operator="arithmetic" k2="-1" k3="1"/>
<feColorMatrix type="matrix" values="0 0 0 0 0 0 0 0 0 0 0 0 0 0 0 0 0 0 0.25 0"/>
<feBlend mode="normal" in2="shape" result="effect1_innerShadow_31866_3769"/>
</filter>
<filter id="filter2_d_31866_3769" x="232.459" y="259.243" width="31.3344" height="25.1959" filterUnits="userSpaceOnUse" color-interpolation-filters="sRGB">
<feFlood flood-opacity="0" result="BackgroundImageFix"/>
<feColorMatrix in="SourceAlpha" type="matrix" values="0 0 0 0 0 0 0 0 0 0 0 0 0 0 0 0 0 0 127 0" result="hardAlpha"/>
<feOffset dy="2"/>
<feComposite in2="hardAlpha" operator="out"/>
<feColorMatrix type="matrix" values="0 0 0 0 0 0 0 0 0 0 0 0 0 0 0 0 0 0 0.25 0"/>
<feBlend mode="normal" in2="BackgroundImageFix" result="effect1_dropShadow_31866_3769"/>
<feBlend mode="normal" in="SourceGraphic" in2="effect1_dropShadow_31866_3769" result="shape"/>
</filter>
<filter id="filter3_d_31866_3769" x="260.034" y="281.945" width="21.0588" height="33.6234" filterUnits="userSpaceOnUse" color-interpolation-filters="sRGB">
<feFlood flood-opacity="0" result="BackgroundImageFix"/>
<feColorMatrix in="SourceAlpha" type="matrix" values="0 0 0 0 0 0 0 0 0 0 0 0 0 0 0 0 0 0 127 0" result="hardAlpha"/>
<feOffset dx="-2" dy="1"/>
<feComposite in2="hardAlpha" operator="out"/>
<feColorMatrix type="matrix" values="0 0 0 0 0 0 0 0 0 0 0 0 0 0 0 0 0 0 0.25 0"/>
<feBlend mode="normal" in2="BackgroundImageFix" result="effect1_dropShadow_31866_3769"/>
<feBlend mode="normal" in="SourceGraphic" in2="effect1_dropShadow_31866_3769" result="shape"/>
</filter>
<filter id="filter4_d_31866_3769" x="261.437" y="292.429" width="19.6562" height="23.1398" filterUnits="userSpaceOnUse" color-interpolation-filters="sRGB">
<feFlood flood-opacity="0" result="BackgroundImageFix"/>
<feColorMatrix in="SourceAlpha" type="matrix" values="0 0 0 0 0 0 0 0 0 0 0 0 0 0 0 0 0 0 127 0" result="hardAlpha"/>
<feOffset dx="-2" dy="1"/>
<feComposite in2="hardAlpha" operator="out"/>
<feColorMatrix type="matrix" values="0 0 0 0 0 0 0 0 0 0 0 0 0 0 0 0 0 0 0.25 0"/>
<feBlend mode="normal" in2="BackgroundImageFix" result="effect1_dropShadow_31866_3769"/>
<feBlend mode="normal" in="SourceGraphic" in2="effect1_dropShadow_31866_3769" result="shape"/>
</filter>
<filter id="filter5_d_31866_3769" x="260.534" y="289.432" width="16.5819" height="25.6364" filterUnits="userSpaceOnUse" color-interpolation-filters="sRGB">
<feFlood flood-opacity="0" result="BackgroundImageFix"/>
<feColorMatrix in="SourceAlpha" type="matrix" values="0 0 0 0 0 0 0 0 0 0 0 0 0 0 0 0 0 0 127 0" result="hardAlpha"/>
<feOffset dx="-2" dy="1"/>
<feComposite in2="hardAlpha" operator="out"/>
<feColorMatrix type="matrix" values="0 0 0 0 0 0 0 0 0 0 0 0 0 0 0 0 0 0 0.25 0"/>
<feBlend mode="normal" in2="BackgroundImageFix" result="effect1_dropShadow_31866_3769"/>
<feBlend mode="normal" in="SourceGraphic" in2="effect1_dropShadow_31866_3769" result="shape"/>
</filter>
<clipPath id="clip0_31866_3769">
<rect width="513" height="445" fill="white"/>
</clipPath>
<clipPath id="clip1_31866_3769">
<rect width="11.9654" height="15.3333" rx="4" transform="matrix(0.951057 0.309017 0 1 359.903 277.202)" fill="white"/>
</clipPath>
</defs>
</svg>
