<svg width="380" height="463" viewBox="0 0 380 463" fill="none" xmlns="http://www.w3.org/2000/svg">
<g clip-path="url(#clip0_31866_3251)">
<path d="M292.715 410.491C295.138 362.849 283.295 329.069 275.758 314.4L161.498 349.526C180.232 389.254 181.955 432.832 180.474 449.655L292.715 410.491Z" fill="#7B8EDB" stroke="black"/>
<path d="M216.407 437.946C218.83 390.304 206.987 358.139 199.45 343.47L161.498 349.526C180.232 389.254 181.955 432.832 180.474 449.655L216.407 437.946Z" stroke="black"/>
<path d="M278.988 399.994L216.642 420.585C216.464 413.913 216.012 407.582 215.354 401.609L263.646 384.248C262.677 367.129 257.051 349.93 254.359 343.47L272.932 358.408C277.454 370.036 278.853 390.977 278.988 399.994Z" fill="#5B5F8C" stroke="black"/>
<path d="M264.453 388.285C263.484 371.166 259.07 353.159 256.378 346.7L249.515 326.109L232.557 331.357C238.048 346.215 243.862 364.868 245.881 383.44L264.453 388.285Z" fill="#384381" stroke="black"/>
<path d="M214.389 393.13C209.14 362.446 203.488 351.948 199.854 343.873L232.557 332.568C239.421 346.296 244.267 366.887 246.285 385.459L214.389 393.13Z" fill="#9BCBF9" stroke="black"/>
<path d="M12.1124 392.323V298.654L161.498 349.526C180.232 389.254 181.955 432.832 180.474 449.655L12.1124 392.323Z" fill="#364588" stroke="black"/>
<path d="M264.049 388.285L215.6 401.205L214.389 393.13L247.092 383.844L264.049 388.285Z" fill="#89A8DF" stroke="black"/>
<path d="M216.407 437.946L180.474 449.655L119.912 429.064L132.025 418.162L180.833 434.716L216.723 423.815C216.753 428.377 216.654 433.09 216.407 437.946Z" fill="#0EBBE7"/>
<path d="M180.474 449.655L216.407 437.946C216.654 433.09 216.753 428.377 216.723 423.815L180.833 434.716M180.474 449.655C180.805 445.896 180.976 440.803 180.833 434.716M180.474 449.655L119.912 429.064L132.025 418.162L180.833 434.716" stroke="black"/>
<path d="M0 288.157L116.682 248.589L288.678 304.71C291.1 309.555 288.274 313.189 288.274 313.189L170.38 354.371L0 297.443V288.157Z" fill="#98BEFD"/>
<path d="M0 288.157L116.682 248.589L288.678 304.71C291.1 309.555 288.274 313.189 288.274 313.189L170.38 354.371M0 288.157V297.443L170.38 354.371M0 288.157L170.38 345.488C171.592 346.969 171.995 351.948 170.38 354.371" stroke="black"/>
<path d="M0 297.443L170.38 354.371C171.995 351.948 171.592 346.969 170.38 345.488L0 288.156V297.443Z" fill="#5077B7" stroke="black"/>
<path d="M69.5917 456.944L21.1423 440.39L32.0434 418.588L50.1738 384.27L67.1692 353.181L79.3958 328.957L129.75 345.106L116.022 370.139L100.68 400.419L82.0157 434.738L69.5917 456.944Z" fill="#6F83C7"/>
<path d="M32.0434 418.588L21.1423 440.39L69.5917 456.944L82.0157 434.738M32.0434 418.588L41.3295 421.818L48.1932 416.166L71.2067 424.24V431.508L82.0157 434.738M32.0434 418.588L50.1738 384.27M82.0157 434.738L100.68 400.419M100.68 400.419L90.1827 396.786V389.518L64.861 380.636L57.4793 386.692L50.1738 384.27M100.68 400.419L116.022 370.139M50.1738 384.27L67.1692 353.181M67.1692 353.181L79.3958 328.957L129.75 345.106L116.022 370.139M67.1692 353.181L74.4366 355.604L82.0157 351.566L107.947 360.449V367.312L116.022 370.139" stroke="black"/>
<path d="M140.247 321.689L155.589 325.323V334.205L144.688 336.628V349.951L91.394 459.77L84.1266 463L68.7842 457.751L122.886 343.491V325.323L140.247 321.689Z" fill="#0ED2FA"/>
<path d="M155.589 325.323L140.247 321.689L122.886 325.323M155.589 325.323V334.205L144.688 336.628V349.951L91.394 459.77L84.1266 463M155.589 325.323L138.632 329.764M84.1266 463L68.7842 457.751L122.886 343.491V325.323M84.1266 463L138.632 348.336V329.764M122.886 325.323L138.632 329.764" stroke="black"/>
<path d="M78.4741 299.079L93.8165 304.328V311.999L81.7041 315.229V329.36L21.9498 441.601H16.2974L2.16632 436.353L61.1131 325.323V304.328L78.4741 299.079Z" fill="#0ED2FA"/>
<path d="M93.8165 304.328L78.4741 299.079L61.1131 304.328M93.8165 304.328V311.999L81.7041 315.229V329.36L21.9498 441.601H16.2974M93.8165 304.328L76.8592 309.173M16.2974 441.601L2.16632 436.353L61.1131 325.323V304.328M16.2974 441.601L76.8592 327.342V309.173M61.1131 304.328L76.8592 309.173" stroke="black"/>
<path d="M81.0781 144.878V172.151L92.0582 173.214V145.586L109.06 130.356H95.6002L81.0781 144.878Z" fill="#7173A4"/>
<path d="M81.0781 144.878V172.151L92.0582 173.214V145.586M81.0781 144.878L95.6002 130.356H109.06L92.0582 145.586M81.0781 144.878L92.0582 145.586" stroke="black"/>
<path d="M81.4323 171.797L70.4521 192.695L76.8277 193.757L83.9117 179.943L92.0582 180.652V172.859L81.4323 171.797Z" fill="#B8E5FF" stroke="black"/>
<path d="M85.3285 182.423L80.0155 193.757H76.8277L83.9117 179.943L92.0582 180.652V183.131L85.3285 182.423Z" fill="#6075B4" stroke="black"/>
<path d="M76.8278 288.682L101.622 296.121V283.369L76.8278 276.64V288.682Z" fill="#7D79C5" stroke="black"/>
<path d="M107.289 235.198L135.979 242.282L100.913 249.721L72.223 242.282L107.289 235.198Z" fill="#4C64A4" stroke="black" stroke-linejoin="round"/>
<path d="M136.333 276.994L100.913 284.078V249.721L136.333 242.282V276.994Z" fill="#2D4174" stroke="black" stroke-linejoin="round"/>
<path d="M72.2231 276.994L100.913 284.078V249.721L72.2231 242.282V276.994Z" fill="#3C4785" stroke="black" stroke-linejoin="round"/>
<path d="M123.582 303.205L156.168 293.287V278.056L135.979 253.971L100.913 262.118V295.412L123.582 303.205Z" fill="#798ADA" stroke="black" stroke-linejoin="round"/>
<path d="M100.913 296.121L122.874 303.913V287.974L100.913 262.472V296.121Z" fill="#7F83DC" stroke="black" stroke-linejoin="round"/>
<path d="M122.874 303.913L156.168 293.287V278.056L122.874 287.974V303.913Z" fill="#393780" stroke="black" stroke-linejoin="round"/>
<path d="M76.1193 240.866L100.913 247.241V232.011L76.1193 226.343V240.866Z" fill="#8781DF" stroke="black" stroke-linejoin="round"/>
<path d="M123.936 241.928L100.913 247.241V232.011L123.936 227.406V241.928Z" fill="#46498E" stroke="black" stroke-linejoin="round"/>
<path d="M100.913 221.385L76.1194 226.343L100.913 232.011L123.936 227.406L100.913 221.385Z" fill="#9B9EF1" stroke="black" stroke-linejoin="round"/>
<path d="M99.4964 206.863L84.9743 209.342L99.4964 229.531L113.664 226.343L99.4964 206.863Z" fill="#46498E" stroke="black" stroke-linejoin="round"/>
<path d="M69.0354 207.217L84.9743 209.342L99.4965 229.531L80.0155 225.281L69.0354 207.217Z" fill="#8781DF" stroke="black" stroke-linejoin="round"/>
<path d="M77.8904 215.363L87.0995 217.134L93.4751 228.114L84.2659 225.989L77.8904 215.363Z" fill="#3B5C89" stroke="black" stroke-linejoin="round"/>
<ellipse cx="8.50076" cy="10.2718" rx="8.50076" ry="10.2718" transform="matrix(-1 0 0 1 76.4736 189.507)" fill="#5661B1" stroke="black"/>
<ellipse cx="8.50076" cy="10.2718" rx="8.50076" ry="10.2718" transform="matrix(-1 0 0 1 78.5988 189.507)" fill="#2A225B" stroke="black"/>
<path d="M70.0979 207.217C66.5768 207.217 63.7223 203.887 63.7223 199.779C63.7223 195.671 66.5768 192.34 70.0979 192.34C70.4599 192.34 70.8149 192.376 71.1605 192.443L90.9956 194.82V210.05L70.0979 207.217Z" fill="#4D5FA9" stroke="black"/>
<ellipse cx="8.50076" cy="10.2718" rx="8.50076" ry="10.2718" transform="matrix(-1 0 0 1 101.976 193.757)" fill="#5661B1" stroke="black"/>
<ellipse cx="8.50076" cy="10.2718" rx="8.50076" ry="10.2718" transform="matrix(-1 0 0 1 103.393 193.757)" fill="#2A225B" stroke="black"/>
<ellipse cx="3.54198" cy="4.60458" rx="3.54198" ry="4.60458" transform="matrix(-1 0 0 1 98.4339 199.424)" fill="#42478E" stroke="black"/>
<path d="M110.477 117.959L114.019 120.438C101.267 151.608 105.872 187.736 112.956 203.321L108.351 205.092L96.2593 201.766C94.9633 201.41 93.9263 200.421 93.5332 199.136C83.0354 164.81 90.2999 133.143 96.2147 119.104C96.8701 117.549 98.4906 116.663 100.169 116.844L110.477 117.959Z" fill="#948AFB" stroke="black"/>
<path d="M110.477 117.959L114.019 120.438C101.267 151.608 105.872 187.736 112.956 203.321L108.351 205.092C108.351 205.092 99.4381 183.131 100.913 162.234C102.613 138.148 108.351 121.855 110.477 117.959Z" fill="#423096" stroke="black"/>
<path d="M104.601 165.067C104.601 188.348 111.575 209.404 122.825 224.629C134.076 239.854 149.579 249.221 166.657 249.221H197.109V80.9137H166.657C149.579 80.9137 134.076 90.2803 122.825 105.505C111.575 120.73 104.601 141.787 104.601 165.067Z" fill="#4C3F97" stroke="black"/>
<path d="M180.608 256.804C143.049 256.804 112.602 215.732 112.602 165.067C112.602 114.402 143.049 73.3297 180.608 73.3297H214.257V256.804H180.608Z" fill="#D9D9D9" stroke="black"/>
<ellipse cx="68.0061" cy="91.7374" rx="68.0061" ry="91.7374" transform="matrix(-1 0 0 1 282.617 73.3297)" fill="#6659CB" stroke="black"/>
<path d="M177.066 111.229L171.399 94.9358L137.75 93.519C132.791 98.832 115.048 122.617 112.602 153.024C110.122 183.84 116.144 201.195 123.582 215.363L158.293 216.072L168.565 207.217C150.501 170.38 159.71 130.001 177.066 111.229Z" fill="#7B8EDB"/>
<path d="M171.399 94.9358L177.066 111.229C159.71 130.001 150.501 170.38 168.565 207.217L158.293 216.072M171.399 94.9358L137.75 93.519C132.791 98.832 115.048 122.617 112.602 153.024C110.122 183.84 116.144 201.195 123.582 215.363L158.293 216.072M171.399 94.9358C134.916 136.731 146.959 194.111 158.293 216.072" stroke="black"/>
<path d="M158.293 216.072L123.936 215.009C137.254 246.179 163.961 255.624 175.649 256.45H210.148C212.089 256.596 213.83 256.583 215.319 256.45C230.621 256.45 242.238 249.13 246.135 245.47L238.342 240.511C234.918 244.88 223.112 252.483 203.277 247.95C183.441 243.416 168.447 221.857 163.429 211.644L158.293 216.072Z" fill="#728BC4"/>
<path d="M158.293 216.072L123.936 215.009C137.254 246.179 163.961 255.624 175.649 256.45C182.497 256.45 200.018 256.45 215.319 256.45M158.293 216.072L163.429 211.644C168.447 221.857 183.441 243.416 203.277 247.95C223.112 252.483 234.918 244.88 238.342 240.511L246.135 245.47C242.238 249.13 230.621 256.45 215.319 256.45M158.293 216.072C175.295 250.925 203.395 257.513 215.319 256.45" stroke="black"/>
<path d="M158.293 216.072L123.936 215.009C137.254 246.179 163.961 255.624 175.649 256.45H210.148C212.089 256.596 213.83 256.583 215.319 256.45H210.148C196.549 255.427 173.172 246.572 158.293 216.072Z" fill="#4D4F79"/>
<path d="M158.293 216.072L123.936 215.009C137.254 246.179 163.961 255.624 175.649 256.45C182.497 256.45 200.018 256.45 215.319 256.45C203.395 257.513 175.295 250.925 158.293 216.072Z" stroke="black"/>
<ellipse cx="48.171" cy="65.5267" rx="48.171" ry="65.5267" transform="matrix(-1 0 0 1 262.782 99.5404)" fill="#7440E1" stroke="black"/>
<g filter="url(#filter0_d_31866_3251)">
<ellipse cx="44.9832" cy="61.9847" rx="44.9832" ry="61.9847" transform="matrix(-1 0 0 1 256.406 103.082)" fill="url(#paint0_radial_31866_3251)"/>
<ellipse cx="44.9832" cy="61.9847" rx="44.9832" ry="61.9847" transform="matrix(-1 0 0 1 256.406 103.082)" stroke="black"/>
</g>
<path d="M233.029 93.1648L236.217 77.9343C284.388 100.603 285.451 161.643 280.138 188.798L271.283 185.256C276.1 118.95 247.788 96.2345 233.029 93.1648Z" fill="#7B8EDB" stroke="black"/>
<path d="M193.428 333.958L265.699 310.137C263.949 295.606 257.003 288.226 250.057 285.187L227.343 278.241L156.718 299.08V322.093L193.428 333.958Z" fill="#71BDEF" stroke="black" stroke-linejoin="round"/>
<path d="M156.718 322.093L193.185 333.81C192.378 327.485 189.639 312.496 180.595 307.328C171.552 302.16 160.756 299.08 156.718 299.08V322.093Z" fill="#1498C8" stroke="black" stroke-linejoin="round"/>
<path d="M219.78 325.266L245.716 316.879C243.455 293.3 230.955 289.094 208.814 283.451L182.766 291.265C217.063 298.645 218.838 315.307 219.78 325.266Z" fill="#1498C8" stroke="black" stroke-linejoin="round"/>
<path d="M160.625 322.957L187.976 332.074C187.361 327.27 184.937 316.879 178.247 311.669C171.997 306.802 160.625 304.944 160.625 304.944V322.957Z" fill="#8A7CD3" stroke="black" stroke-linejoin="round"/>
<path d="M204.441 151.871C191.004 143.931 196.806 125.914 202.532 118.661C208.258 111.408 213.381 107.969 213.602 101.484C215.892 34.301 225.053 3 251.392 3C277.731 3 280.021 37.3547 268.188 44.9892C256.354 52.6236 252.156 40.7903 260.172 41.5537C268.188 42.3171 267.424 7.96236 246.811 19.414C226.199 30.8655 245.666 82.0159 246.811 109.881C248.286 145.763 221.236 161.795 204.441 151.871Z" fill="#631C9E" stroke="black"/>
<path d="M253.682 9.10747C251.774 7.19887 250.629 4.90855 252.156 4.52683C256.599 3.41587 260.553 5.67199 260.553 7.96231C260.553 10.2526 255.493 10.9181 253.682 9.10747Z" fill="#8843C2"/>
<path d="M262.958 11.0656C262.339 9.39986 262.289 7.73421 263.319 7.95644C266.315 8.60322 268.073 11.0663 267.432 12.3987C266.79 13.7311 263.545 12.6458 262.958 11.0656Z" fill="#8843C2"/>
<path d="M263.234 16.3961C262.799 15.2258 262.763 14.0555 263.487 14.2116C265.592 14.666 266.827 16.3966 266.376 17.3327C265.926 18.2689 263.646 17.5064 263.234 16.3961Z" fill="#8843C2"/>
<path d="M228.29 96.585C237.126 94.4965 239.228 106.336 239.486 112.101C239.236 121.009 238.311 125.885 233.367 127.218C228.422 128.551 218.023 126.051 223.68 111.619C226.911 103.375 222.971 97.8421 228.29 96.585Z" stroke="#8843C2" stroke-width="4"/>
<path d="M225.467 72.7587C228.077 70.4362 229.818 70.5169 231.994 72.0329C233.444 73.0435 234.17 75.6618 234.532 78.2021C234.895 80.7423 233.807 83.6455 229.093 81.831C224.379 80.0165 222.203 75.6618 225.467 72.7587Z" stroke="#8843C2" stroke-width="4"/>
<path d="M235.033 88.3894C235.265 85.9903 239.048 85.8103 240.751 86.8192C242.454 87.8281 242.485 95.2594 240.751 94.0066C238.727 92.545 234.742 91.3883 235.033 88.3894Z" stroke="#8843C2" stroke-width="3"/>
<path d="M211.108 117.547C213.226 119.686 213.228 121.18 212.005 123.105C211.189 124.389 208.953 125.119 206.769 125.535C204.585 125.952 202.027 125.141 203.403 121.029C204.78 116.918 208.46 114.874 211.108 117.547Z" fill="#8843C2"/>
<path d="M231.161 43.4932C229.634 43.1878 227.725 45.2035 227.725 46.9287C227.725 51.891 232.688 52.6545 233.833 49.6007C234.978 46.547 233.07 43.8749 231.161 43.4932Z" stroke="#8843C2" stroke-width="4"/>
<path d="M226.58 56.4717C225.053 56.1663 223.145 58.182 223.145 59.9071C223.145 64.8695 228.107 65.6329 229.252 62.5792C230.398 59.5254 228.489 56.8534 226.58 56.4717Z" stroke="#8843C2" stroke-width="4"/>
<path d="M238.795 62.5483C237.268 62.93 236.123 64.2895 236.123 66.0147C236.123 69.4358 238.032 70.5644 239.941 70.1827" stroke="#8843C2" stroke-width="4"/>
<path d="M215.966 189.435C210.739 174.702 222.987 164.32 229.764 160.971C243.367 157.659 247.994 168.253 266.126 179.663C296.034 198.486 341.502 208.145 356.031 207.269C357.536 207.178 358.918 206.963 360.18 206.652C358.404 206.233 355.45 204.517 357.833 201.011C360.216 197.505 366.977 195.06 370.356 194.859C376.715 194.481 378.09 200.28 378.676 203.308C380.599 213.259 372.856 231.992 327.493 234.832C282.13 237.672 222.499 207.851 215.966 189.435Z" fill="#9640DD"/>
<path d="M360.18 206.652C358.918 206.963 357.536 207.178 356.031 207.269C341.502 208.145 296.034 198.486 266.126 179.663C247.994 168.253 243.367 157.659 229.764 160.971C222.987 164.32 210.739 174.702 215.966 189.435C222.499 207.851 282.13 237.672 327.493 234.832C372.856 231.992 380.599 213.259 378.676 203.308C378.09 200.28 376.715 194.481 370.356 194.859C366.977 195.06 360.216 197.505 357.833 201.011C355.45 204.517 358.404 206.233 360.18 206.652ZM360.18 206.652C362.328 206.123 364.13 205.316 365.612 204.372M365.612 204.372C364.866 203.633 363.67 201.951 364.845 201.133M365.612 204.372C367.486 203.177 368.736 201.548 369.505 199.951" stroke="black"/>
<path d="M215.966 189.435C210.739 174.702 222.987 164.32 229.764 160.971C227.803 176.134 235.256 210.905 280.753 228.676C248.799 219.382 220.362 201.827 215.966 189.435Z" fill="#631C9E"/>
<path d="M257.078 201.545C259.286 192.72 270.143 195.122 275.086 196.99C282.433 200.469 286.103 203.092 285.004 208.09C283.906 213.089 277.154 221.665 267.602 211.238C262.146 205.281 255.748 206.857 257.078 201.545Z" fill="#631C9E"/>
<path d="M242.983 196.19C239.858 193.759 243.417 188.52 245.588 186.205C252.534 179.693 257.31 191.414 255.139 194.019C252.968 196.624 246.891 199.229 242.983 196.19Z" fill="#631C9E"/>
<path d="M301.203 218.417C300.361 214.548 306.451 212.807 309.601 212.42C319.106 211.872 315.262 223.931 311.926 224.54C308.591 225.149 302.255 223.254 301.203 218.417Z" fill="#631C9E"/>
<path d="M291.736 211.091C289.201 209.027 292.088 204.581 293.849 202.615C299.484 197.087 303.358 207.037 301.597 209.248C299.836 211.459 294.906 213.671 291.736 211.091Z" fill="#631C9E"/>
<path d="M282.185 225.852C279.65 223.788 282.537 219.341 284.298 217.376C289.933 211.848 299.879 225.67 298.118 227.882C296.358 230.093 285.355 228.431 282.185 225.852Z" fill="#631C9E"/>
<path d="M353.477 216.469C356.098 215.667 355.443 211.41 353.933 209.741C352.423 208.071 344.133 209.717 345.922 211.367C348.009 213.292 350.2 217.472 353.477 216.469Z" stroke="#631C9E" stroke-width="3"/>
<path d="M366.317 212.462C368.721 211.402 368.807 208.022 367.751 206.89C366.696 205.757 359.232 208.381 360.534 209.454C362.052 210.706 363.313 213.787 366.317 212.462Z" stroke="#631C9E" stroke-width="3"/>
<path d="M336.954 217.258C339.742 216.029 338.881 210.336 337.656 209.023C336.432 207.709 330.388 210.382 329.284 211.998C326.378 216.251 333.469 218.795 336.954 217.258Z" stroke="#631C9E" stroke-width="3"/>
<path d="M168.444 180.995C170.181 174.338 176.258 160.851 186.678 160.156C237.037 174.483 235.301 224.842 227.052 256.1C220.453 281.106 219.093 288.805 219.238 289.528C220.974 289.528 222.711 290.831 222.711 293.87C222.711 296.909 215.765 304.289 205.345 293.87C194.926 283.451 201.438 227.447 196.229 215.726C192.061 206.348 182.047 204.872 177.127 205.741C171.917 197.753 169.023 186.06 168.444 180.995Z" fill="#8133C2"/>
<path d="M219.238 289.528C220.974 289.528 222.711 290.831 222.711 293.87C222.711 296.909 215.765 304.289 205.345 293.87C194.926 283.451 201.438 227.447 196.229 215.726C192.061 206.348 182.047 204.872 177.127 205.741C171.917 197.753 169.023 186.06 168.444 180.995C170.181 174.338 176.258 160.851 186.678 160.156C237.037 174.483 235.301 224.842 227.052 256.1C220.453 281.106 219.093 288.805 219.238 289.528ZM219.238 289.528C219.093 290.252 218.89 291.96 219.238 293.002" stroke="black"/>
<path d="M177.127 205.306C171.917 197.318 169.023 186.06 168.444 180.995C182.192 178.824 210.677 190.16 214.028 215.292C218.138 246.115 195.794 264.349 205.345 293.87C194.926 283.451 201.872 227.013 196.663 215.292C192.495 205.914 182.047 204.438 177.127 205.306Z" fill="#631C9E"/>
<path d="M198.686 230.741C200.422 230.741 203.461 230.741 204.764 233.346C205.567 234.952 205.09 238.53 202.302 239.76C201.215 240.24 200.422 239.76 199.12 239.76" stroke="#8843C2" stroke-width="4"/>
<path d="M199.332 254.684C201.29 254.684 203.945 252.236 203.461 249.409C202.986 246.633 200.505 247.679 199.15 247.709" stroke="#8843C2" stroke-width="4"/>
<path d="M200.055 183.489C196.217 182.514 197.379 176.288 198.44 173.297C202.195 164.547 211.267 173.373 210.322 176.629C209.377 179.885 204.852 184.707 200.055 183.489Z" fill="#631C9E"/>
<path d="M207.822 189.592C206.21 186.747 210.517 183.655 212.872 182.464C220.131 179.363 224.371 195.856 221.927 197.276C219.482 198.695 209.837 193.147 207.822 189.592Z" fill="#631C9E"/>
<path d="M218.065 208.486C215.53 206.422 218.417 201.976 220.178 200.01C225.813 194.483 229.687 204.432 227.926 206.644C226.165 208.855 221.235 211.066 218.065 208.486Z" fill="#631C9E"/>
<path d="M188.567 177.71C184.308 178.081 182.971 171.277 182.835 167.829C183.093 157.511 195.787 163.325 196.147 167.004C196.507 170.683 193.891 177.247 188.567 177.71Z" fill="#631C9E"/>
</g>
<defs>
<filter id="filter0_d_31866_3251" x="155.94" y="82.5824" width="130.966" height="164.969" filterUnits="userSpaceOnUse" color-interpolation-filters="sRGB">
<feFlood flood-opacity="0" result="BackgroundImageFix"/>
<feColorMatrix in="SourceAlpha" type="matrix" values="0 0 0 0 0 0 0 0 0 0 0 0 0 0 0 0 0 0 127 0" result="hardAlpha"/>
<feOffset dx="10"/>
<feGaussianBlur stdDeviation="10"/>
<feComposite in2="hardAlpha" operator="out"/>
<feColorMatrix type="matrix" values="0 0 0 0 0.470588 0 0 0 0 0.996078 0 0 0 0 1 0 0 0 1 0"/>
<feBlend mode="normal" in2="BackgroundImageFix" result="effect1_dropShadow_31866_3251"/>
<feBlend mode="normal" in="SourceGraphic" in2="effect1_dropShadow_31866_3251" result="shape"/>
</filter>
<radialGradient id="paint0_radial_31866_3251" cx="0" cy="0" r="1" gradientUnits="userSpaceOnUse" gradientTransform="translate(44.9832 61.9847) rotate(-90) scale(61.9847 44.9832)">
<stop stop-color="#C6FFFE"/>
<stop offset="1" stop-color="#78FEFF"/>
</radialGradient>
<clipPath id="clip0_31866_3251">
<rect width="380" height="463" fill="white"/>
</clipPath>
</defs>
</svg>
