<svg width="244" height="223" viewBox="0 0 244 223" fill="none" xmlns="http://www.w3.org/2000/svg">
<path d="M39.6548 56.2337C39.6547 56.2337 39.6547 56.2337 39.6546 56.2336C31.8043 71.6494 30.6548 94.6945 37.4425 117.077C44.2867 139.647 59.18 161.47 83.2928 174.049C107.421 186.636 135.842 188.102 160.263 182.534C184.498 177.009 204.671 164.59 212.832 149.393C212.804 149.375 212.775 149.355 212.745 149.334C212.441 149.13 211.99 148.827 211.398 148.432C210.214 147.643 208.468 146.486 206.221 145.019C201.728 142.085 195.23 137.909 187.217 132.942C171.191 123.009 149.106 109.914 124.866 97.2689C100.621 84.6204 79.2093 74.3148 63.8596 67.1715C56.1849 63.5998 50.0258 60.8189 45.7858 58.931C43.6658 57.9871 42.0256 57.2664 40.9157 56.7819C40.3607 56.5396 39.9383 56.3563 39.6548 56.2337Z" fill="#4D4F79" stroke="black"/>
<path d="M39.3845 56.5835C31.3721 71.9423 33.7896 90.9711 44.3128 109.371C54.8328 127.766 73.4234 145.465 97.6051 158.081C121.787 170.696 146.94 175.816 168.045 173.92C189.157 172.023 206.146 163.119 214.159 147.76C222.171 132.401 219.754 113.372 209.231 94.972C198.711 76.5775 180.12 58.8779 155.938 46.2627C131.757 33.6476 106.604 28.5271 85.4983 30.4234C64.3866 32.3202 47.3969 41.2247 39.3845 56.5835Z" fill="#BAAFFC" stroke="black"/>
<path d="M47.8305 64.4427C40.98 77.5743 43.4033 94.0522 53.0196 110.136C62.631 126.211 79.3902 141.813 101.033 153.104C122.675 164.394 145.06 169.212 163.743 167.898C182.436 166.583 197.337 159.143 204.188 146.011C211.038 132.88 208.615 116.402 198.998 100.318C189.387 84.2432 172.628 68.6405 150.985 57.35C129.343 46.0596 106.958 41.2414 88.2746 42.5558C69.5819 43.8709 54.681 51.3111 47.8305 64.4427Z" fill="#7370C8" stroke="black"/>
<path d="M86.1691 105.497C83.8193 110.001 84.6275 115.7 87.9939 121.331C91.3555 126.953 97.2303 132.429 104.835 136.396C112.44 140.363 120.292 142.049 126.827 141.589C133.371 141.129 138.507 138.531 140.857 134.026C143.206 129.522 142.398 123.823 139.032 118.193C135.67 112.571 129.795 107.095 122.191 103.127C114.586 99.1602 106.734 97.4749 100.199 97.9346C93.6552 98.395 88.5189 100.993 86.1691 105.497Z" fill="#4D4F79" stroke="black"/>
<path d="M88.1581 104.679C86.029 108.76 86.9087 114.025 90.2455 119.305C93.5744 124.573 99.2999 129.761 106.645 133.594C113.991 137.426 121.523 139.153 127.747 138.869C133.987 138.585 138.808 136.294 140.937 132.213C143.066 128.132 142.187 122.867 138.85 117.587C135.521 112.319 129.795 107.13 122.45 103.298C115.104 99.4664 107.573 97.7394 101.348 98.0229C95.1085 98.3071 90.2873 100.598 88.1581 104.679Z" fill="#BAAFFC" stroke="black"/>
<path d="M94.1458 107.803C92.619 110.73 93.3512 114.604 95.9985 118.58C98.6343 122.538 103.107 126.486 108.803 129.458C114.499 132.429 120.296 133.839 125.051 133.736C129.826 133.632 133.423 132.016 134.949 129.089C136.476 126.163 135.744 122.288 133.097 118.313C130.461 114.354 125.988 110.406 120.292 107.434C114.596 104.463 108.799 103.054 104.044 103.157C99.2692 103.26 95.6726 104.876 94.1458 107.803Z" fill="#7370C8" stroke="black"/>
<path d="M124.343 122.909L166.789 42.8445L163.721 40.7918L105.095 110.291C104.421 112.522 104.646 118.005 110.94 122.091C117.234 126.178 122.498 124.339 124.343 122.909Z" fill="#D7D7F6" stroke="black"/>
<circle cx="14.4124" cy="14.4124" r="14.4124" transform="matrix(-0.992939 0.118629 0.118629 0.992939 182.13 16.0138)" fill="#D7D7F6" stroke="black"/>
</svg>
