<svg width="263" height="240" viewBox="0 0 263 240" fill="none" xmlns="http://www.w3.org/2000/svg">
<path d="M42.6829 60.4715C42.6717 60.4667 42.6607 60.462 42.65 60.4573C34.1829 77.0555 32.9409 101.878 40.251 125.984C47.6176 150.276 63.6482 173.767 89.6039 187.307C115.575 200.856 146.164 202.433 172.449 196.44C198.546 190.491 220.275 177.111 229.052 160.732C229.015 160.706 228.974 160.679 228.93 160.65C228.604 160.43 228.118 160.104 227.481 159.679C226.207 158.829 224.329 157.585 221.911 156.006C217.076 152.849 210.084 148.355 201.462 143.011C184.218 132.322 160.454 118.232 134.371 104.626C108.283 91.016 85.2441 79.9271 68.7277 72.2408C60.4696 68.3977 53.8424 65.4053 49.2801 63.374C46.9989 62.3583 45.2341 61.5828 44.0397 61.0614C43.4425 60.8007 42.988 60.6035 42.6829 60.4715Z" fill="#4D4F79" stroke="black"/>
<path d="M42.3433 60.8652C33.7141 77.4064 36.3201 97.8952 47.6467 117.7C58.9702 137.5 78.9791 156.549 105.004 170.125C131.028 183.702 158.099 189.213 180.817 187.172C203.54 185.131 221.835 175.545 230.465 159.004C239.094 142.463 236.488 121.974 225.161 102.169C213.838 82.3698 193.829 63.3206 167.804 49.7441C141.78 36.1676 114.708 30.656 91.9912 32.6972C69.2675 34.7388 50.9725 44.324 42.3433 60.8652Z" fill="#BAAFFC" stroke="black"/>
<path d="M51.431 69.3216C44.0516 83.467 46.6648 101.212 57.0155 118.523C67.3613 135.827 85.3996 152.619 108.692 164.77C131.984 176.921 156.077 182.108 176.188 180.693C196.308 179.277 212.356 171.268 219.736 157.123C227.115 142.977 224.502 125.233 214.151 107.921C203.805 90.6176 185.767 73.8249 162.475 61.6739C139.183 49.5229 115.09 44.3365 94.9791 45.7514C74.8588 47.1669 58.8104 55.1761 51.431 69.3216Z" fill="#7370C8" stroke="black"/>
<path d="M92.6826 113.495C90.1459 118.358 91.0211 124.504 94.6472 130.569C98.2683 136.625 104.595 142.522 112.783 146.793C120.971 151.065 129.427 152.88 136.466 152.385C143.514 151.889 149.056 149.09 151.593 144.228C154.129 139.365 153.254 133.218 149.628 127.154C146.007 121.097 139.68 115.201 131.492 110.929C123.305 106.658 114.849 104.843 107.81 105.338C100.761 105.834 95.2193 108.633 92.6826 113.495Z" fill="#4D4F79" stroke="black"/>
<path d="M94.8228 112.615C92.523 117.024 93.4764 122.704 97.0703 128.39C100.656 134.065 106.822 139.652 114.731 143.778C122.639 147.904 130.75 149.764 137.455 149.458C144.176 149.152 149.38 146.684 151.679 142.276C153.979 137.868 153.026 132.188 149.432 126.501C145.846 120.827 139.68 115.239 131.771 111.113C123.863 106.988 115.752 105.127 109.047 105.433C102.327 105.739 97.1226 108.207 94.8228 112.615Z" fill="#BAAFFC" stroke="black"/>
<path d="M101.265 115.976C99.6132 119.143 100.409 123.328 103.261 127.61C106.101 131.876 110.919 136.128 117.052 139.328C123.186 142.528 129.43 144.046 134.553 143.935C139.697 143.824 143.585 142.082 145.237 138.915C146.889 135.748 146.093 131.564 143.241 127.281C140.401 123.016 135.583 118.763 129.45 115.564C123.316 112.364 117.072 110.846 111.949 110.957C106.805 111.068 102.918 112.809 101.265 115.976Z" fill="#7370C8" stroke="black"/>
<path d="M133.791 132.248L179.462 46.0998L176.161 43.8912L113.08 118.671C112.355 121.071 112.597 126.971 119.369 131.368C126.142 135.765 131.805 133.787 133.791 132.248Z" fill="#D7D7F6" stroke="black"/>
<circle cx="15.5075" cy="15.5075" r="15.5075" transform="matrix(-0.992939 0.118629 0.118629 0.992939 195.969 17.2305)" fill="#D7D7F6" stroke="black"/>
</svg>
