<svg width="520" height="450" viewBox="0 0 520 450" fill="none" xmlns="http://www.w3.org/2000/svg">
<g clip-path="url(#clip0_32095_429)">
<path d="M151.786 48.3383C151.766 48.4347 151.756 48.5344 151.756 48.6365V64.7896C151.756 71.5797 156.929 77.6028 165.151 82.6341V88.7063C165.151 92.3598 166.832 95.7597 169.703 98.826C167.832 149.097 169.192 179.349 171.303 197.481C173.12 213.085 175.504 219.82 176.946 222.635C174.163 225.463 172.448 228.605 172.259 232.001C172.248 232.076 172.242 232.152 172.242 232.23V232.624V234.649C166.213 237.456 161.297 240.585 157.795 243.989C154.163 247.52 151.957 251.445 151.768 255.673C151.76 255.737 151.756 255.802 151.756 255.868V256.262V271.233C151.756 272.137 151.849 273.032 152.03 273.915C151.857 274.159 151.756 274.457 151.756 274.779V290.559C148.7 293.38 146.205 296.534 144.209 299.762L5.50616 347.948C4.00799 348.468 3.10434 349.816 2.5886 351.125C2.05609 352.477 1.81195 354.085 1.81098 355.638C1.81001 357.19 2.05215 358.798 2.58275 360.152C3.09662 361.462 3.99792 362.811 5.49417 363.335L5.4944 363.335L237.564 444.541C250.669 449.127 264.942 449.143 278.058 444.586L512.188 363.248L512.188 363.248C513.686 362.727 514.59 361.38 515.106 360.07C515.638 358.718 515.883 357.11 515.884 355.558C515.885 354.005 515.643 352.397 515.112 351.044C514.598 349.733 513.697 348.385 512.2 347.861L378.534 301.089V275.766C379.052 274.29 379.322 272.776 379.322 271.233V256.262V255.868C379.322 255.802 379.318 255.737 379.31 255.674C379.121 251.445 376.915 247.52 373.283 243.989C369.781 240.585 364.865 237.456 358.836 234.649V232.624V232.23C358.836 232.152 358.83 232.076 358.819 232.001C358.631 228.633 356.942 225.513 354.199 222.703C355.776 219.905 358.348 213.225 360.248 197.719C362.466 179.612 363.783 149.31 361.416 98.7815C364.262 95.7269 365.927 92.3421 365.927 88.7063V82.6341C374.149 77.6028 379.322 71.5797 379.322 64.7896V48.6365C379.322 48.5344 379.312 48.4347 379.292 48.3383C379.312 48.0444 379.322 47.7499 379.322 47.4547C379.322 41.8197 375.747 36.7145 369.902 32.3023C364.033 27.8715 355.634 23.9452 345.391 20.6746C324.888 14.1279 296.656 10.1028 265.539 10.1028C234.422 10.1028 206.19 14.1279 185.687 20.6746C175.444 23.9452 167.045 27.8715 161.176 32.3023C155.331 36.7145 151.756 41.8197 151.756 47.4547C151.756 47.7498 151.766 48.0444 151.786 48.3383Z" fill="black" stroke="#A5FFFD" stroke-width="3" stroke-linejoin="round"/>
<g filter="url(#filter0_d_32095_429)">
<path d="M5.98983 356.919C2.41378 355.668 2.41946 350.608 5.99831 349.365L240.128 268.026C252.925 263.581 266.849 263.596 279.636 268.071L511.705 349.277C515.281 350.528 515.275 355.587 511.696 356.831L277.566 438.169C264.77 442.615 250.845 442.599 238.059 438.125L5.98983 356.919Z" fill="#463882"/>
<path d="M5.98983 356.919C2.41378 355.668 2.41946 350.608 5.99831 349.365L240.128 268.026C252.925 263.581 266.849 263.596 279.636 268.071L511.705 349.277C515.281 350.528 515.275 355.587 511.696 356.831L277.566 438.169C264.77 442.615 250.845 442.599 238.059 438.125L5.98983 356.919Z" stroke="black"/>
</g>
<path d="M265.145 385.88C326.94 385.88 377.034 369.785 377.034 349.93V335.057V274.779H153.256V349.93C153.256 369.785 203.35 385.88 265.145 385.88Z" fill="#7781F5"/>
<path d="M377.034 335.057V274.779H153.256V349.93C153.256 369.785 203.35 385.88 265.145 385.88C326.94 385.88 377.034 369.785 377.034 349.93V335.057ZM377.034 335.057C371.984 344.382 349.984 364.133 302.392 368.545C254.8 372.958 210.333 367.495 194.048 364.212" stroke="black"/>
<path d="M265.539 307.085C327.551 307.085 377.822 291.034 377.822 271.233V255.868H153.256V271.233C153.256 291.034 203.527 307.085 265.539 307.085Z" fill="#4B35C5" stroke="black"/>
<ellipse cx="265.539" cy="256.262" rx="112.283" ry="35.8519" fill="#6956D4" stroke="black"/>
<path d="M265.539 279.507C316.237 279.507 357.336 266.278 357.336 249.959V232.23H173.742V249.959C173.742 266.278 214.841 279.507 265.539 279.507Z" fill="#7781F5" stroke="black"/>
<ellipse cx="265.539" cy="232.624" rx="91.7965" ry="29.5482" fill="#AAA1FE" stroke="black"/>
<ellipse cx="265.539" cy="220.804" rx="74.4616" ry="24.0326" fill="#5148A9" stroke="black"/>
<path d="M265.539 251.141C313.19 251.141 351.82 238.748 351.82 223.461C351.82 223.461 365.609 212.531 359.699 94.3384H171.378C166.651 212.137 179.258 223.461 179.258 223.461C179.258 238.748 217.887 251.141 265.539 251.141Z" fill="url(#paint0_radial_32095_429)" stroke="black"/>
<path d="M178.683 207.409C180.248 222.746 187.382 230.545 190.825 232.582C190.874 232.611 190.916 232.64 190.96 232.677C224.155 260.19 352.023 250.731 335.88 226.32C322.072 205.439 302.392 235.307 257.873 239.715C218.081 243.655 210.513 214.756 201.928 200.317C193.26 185.74 176.713 188.104 178.683 207.409Z" fill="#78FEFF" stroke="black" stroke-linecap="round" stroke-linejoin="round"/>
<path d="M327.404 225.127C322.731 222.611 315.074 226.804 311.829 229.215C305.34 234.561 320.914 231.102 325.781 231.416C330.648 231.731 333.244 228.272 327.404 225.127Z" stroke="black"/>
<path d="M204.686 217.653C201.219 209.773 197.988 205.965 196.806 205.045C193.654 203.601 188.69 203.312 194.048 213.713C199.407 224.114 211.909 231.836 216.111 233.412C212.171 231.623 208.153 225.532 204.686 217.653Z" stroke="black"/>
<path d="M265.539 120.34C320.153 120.34 364.427 106.177 364.427 88.7062V57.304H166.651V88.7062C166.651 106.177 210.925 120.34 265.539 120.34Z" fill="#4B35C5" stroke="black"/>
<path d="M265.539 100.641C327.551 100.641 377.822 84.59 377.822 64.7895V48.6365H153.256V64.7895C153.256 84.59 203.527 100.641 265.539 100.641Z" fill="#BAAFFC" stroke="black"/>
<ellipse cx="265.539" cy="47.4547" rx="112.283" ry="35.8519" fill="#7370C8" stroke="black"/>
<ellipse cx="265.358" cy="47.4547" rx="71.7037" ry="22.4567" fill="#524FA8" stroke="black"/>
<path fill-rule="evenodd" clip-rule="evenodd" d="M194.754 51.3943C200.701 40.8705 230.049 32.8774 265.358 32.8774C300.667 32.8774 330.016 40.8705 335.962 51.3943C330.016 61.9182 300.667 69.9112 265.358 69.9112C230.049 69.9112 200.701 61.9182 194.754 51.3943Z" fill="#78FEFF"/>
<path d="M194.754 51.3943L194.319 51.1484L194.18 51.3943L194.319 51.6403L194.754 51.3943ZM335.962 51.3943L336.397 51.6403L336.536 51.3943L336.397 51.1484L335.962 51.3943ZM195.19 51.6403C196.609 49.1287 199.462 46.712 203.567 44.5015C207.661 42.2965 212.951 40.3232 219.173 38.6727C231.617 35.3722 247.738 33.3774 265.358 33.3774V32.3774C247.67 32.3774 231.461 34.3792 218.917 37.7062C212.646 39.3695 207.277 41.3676 203.092 43.6211C198.918 45.8692 195.873 48.398 194.319 51.1484L195.19 51.6403ZM265.358 33.3774C282.979 33.3774 299.099 35.3722 311.543 38.6727C317.766 40.3232 323.055 42.2965 327.15 44.5015C331.254 46.712 334.108 49.1287 335.527 51.6403L336.397 51.1484C334.843 48.398 331.798 45.8692 327.624 43.6211C323.44 41.3676 318.071 39.3695 311.799 37.7062C299.255 34.3792 283.047 32.3774 265.358 32.3774V33.3774ZM335.527 51.1484C334.108 53.6599 331.254 56.0767 327.15 58.2871C323.055 60.4922 317.766 62.4655 311.543 64.1159C299.099 67.4164 282.979 69.4112 265.358 69.4112V70.4112C283.047 70.4112 299.255 68.4095 311.799 65.0825C318.071 63.4192 323.44 61.421 327.624 59.1676C331.798 56.9195 334.843 54.3907 336.397 51.6403L335.527 51.1484ZM265.358 69.4112C247.738 69.4112 231.617 67.4164 219.173 64.1159C212.951 62.4655 207.661 60.4922 203.567 58.2871C199.462 56.0767 196.609 53.6599 195.19 51.1484L194.319 51.6403C195.873 54.3907 198.918 56.9195 203.092 59.1676C207.277 61.421 212.646 63.4192 218.917 65.0825C231.461 68.4095 247.67 70.4112 265.358 70.4112V69.4112Z" fill="black"/>
<path d="M141.1 313.117L156.261 355.68C156.355 355.941 156.553 356.153 156.808 356.262L252.505 397.475C252.775 397.592 253.084 397.583 253.348 397.451L269.32 389.461C269.659 389.291 269.873 388.945 269.873 388.566V344.271C267.772 326.279 266.395 286.267 213.534 274.143C170.762 264.333 141.278 298.888 141.044 312.788C141.042 312.902 141.062 313.009 141.1 313.117Z" fill="#5462D1" stroke="black"/>
<path d="M139.073 320.632V364.758L252.538 397.852V352.938C250.437 334.947 249.06 294.935 196.199 282.81C153.256 272.961 139.073 306.843 139.073 320.632Z" fill="#4B35C5" stroke="black"/>
<path d="M156.03 335.14V368.953C156.03 369.381 156.302 369.761 156.707 369.899L227.763 394.181C227.998 394.261 228.254 394.251 228.482 394.153L232.252 392.527C232.618 392.369 232.856 392.008 232.856 391.609V357.123C232.856 344.99 236.131 310.269 195.017 300.782C161.617 293.074 156.03 324.35 156.03 335.14Z" fill="#A1B7F5" stroke="black"/>
<path d="M150.908 337.573V371.353C150.908 371.796 151.201 372.187 151.626 372.312L226.452 394.323C227.092 394.511 227.734 394.031 227.734 393.363V359.556C227.734 347.423 227.734 312.196 189.895 304.721C157.983 298.418 150.908 326.783 150.908 337.573Z" fill="#4764B7" stroke="black"/>
<path d="M209.435 376.264C202.776 380.061 194.511 380.098 186.497 377.028C178.484 373.958 170.753 367.788 165.227 359.23C159.702 350.672 157.449 341.378 158.253 333.28C159.056 325.183 162.909 318.311 169.568 314.514C176.227 310.717 184.493 310.679 192.506 313.749C200.519 316.819 208.251 322.989 213.776 331.547C219.301 340.106 221.554 349.4 220.75 357.497C219.947 365.594 216.094 372.467 209.435 376.264Z" fill="#5D71E1" stroke="black"/>
<path fill-rule="evenodd" clip-rule="evenodd" d="M175.942 312.059C188.921 309.499 204.632 317.135 213.941 331.554C224.446 347.824 223.034 366.901 211.139 375.578C203.492 376.769 194.942 374.435 187.351 369.29C182.344 365.896 177.754 361.279 174.116 355.644C173.174 354.184 172.325 352.704 171.57 351.211C167.881 343.916 166.41 336.329 167.051 329.542C167.724 322.407 170.73 316.156 175.942 312.059Z" fill="#354CAC"/>
<path d="M175.942 312.059L175.854 311.571L175.733 311.595L175.636 311.671L175.942 312.059ZM213.941 331.554L214.366 331.279L213.941 331.554ZM211.139 375.578L211.207 376.07L211.33 376.051L211.431 375.977L211.139 375.578ZM187.351 369.29L187.062 369.703L187.351 369.29ZM174.116 355.644L174.54 355.369L174.116 355.644ZM171.57 351.211L171.12 351.441L171.57 351.211ZM167.051 329.542L166.551 329.506L167.051 329.542ZM176.03 312.547C188.754 310.037 204.284 317.528 213.517 331.829L214.366 331.279C204.98 316.742 189.088 308.96 175.854 311.571L176.03 312.547ZM213.517 331.829C223.946 347.982 222.437 366.724 210.847 375.179L211.431 375.977C223.631 367.077 224.946 347.667 214.366 331.279L213.517 331.829ZM211.072 375.086C203.579 376.253 195.154 373.97 187.64 368.877L187.062 369.703C194.73 374.9 203.405 377.285 211.207 376.07L211.072 375.086ZM187.64 368.877C182.688 365.52 178.144 360.95 174.54 355.369L173.691 355.918C177.364 361.608 182 366.272 187.062 369.703L187.64 368.877ZM174.54 355.369C173.607 353.924 172.767 352.458 172.02 350.98L171.12 351.441C171.883 352.95 172.74 354.445 173.691 355.918L174.54 355.369ZM172.02 350.98C168.367 343.758 166.92 336.262 167.551 329.578L166.551 329.506C165.901 336.396 167.395 344.075 171.12 351.441L172.02 350.98ZM167.551 329.578C168.214 322.552 171.168 316.441 176.249 312.447L175.636 311.671C170.292 315.872 167.234 322.262 166.551 329.506L167.551 329.578ZM186.922 343.082C184.487 347.109 181.137 357.957 186.9 369.518L187.802 369.062C182.218 357.86 185.487 347.374 187.78 343.58L186.922 343.082ZM187.499 342.852C185.572 342.304 182.463 342.06 179.338 343.096C176.191 344.138 173.051 346.471 171.108 351.025L172.032 351.396C173.854 347.125 176.759 344.993 179.638 344.039C182.539 343.078 185.438 343.308 187.203 343.81L187.499 342.852ZM187.832 343.18C186.893 340.038 184.734 335.561 181.286 332.338C177.818 329.095 173.022 327.11 166.906 329.068L167.196 330.015C172.891 328.192 177.322 330.015 180.59 333.069C183.878 336.143 185.963 340.452 186.869 343.482L187.832 343.18ZM187.822 343.494C189.299 339.508 190.664 333.307 190.187 327.17C189.71 321.027 187.378 314.882 181.389 311.147L180.842 311.993C186.479 315.509 188.723 321.31 189.186 327.267C189.649 333.23 188.319 339.285 186.88 343.168L187.822 343.494ZM187.536 343.79C193.028 341.515 202.715 334.342 205.824 321.669L204.849 321.453C201.835 333.739 192.431 340.691 187.166 342.872L187.536 343.79ZM187.204 343.81C191.245 344.954 196.916 346.055 202.786 346.345C208.647 346.635 214.758 346.119 219.647 343.983L219.258 343.073C214.58 345.117 208.65 345.637 202.857 345.351C197.072 345.065 191.476 343.978 187.498 342.852L187.204 343.81ZM186.881 343.516C188.574 347.936 191.954 354.209 196.866 359.659C201.776 365.107 208.256 369.774 216.151 370.89L216.313 369.904C208.731 368.832 202.444 364.338 197.621 358.986C192.798 353.636 189.476 347.47 187.821 343.146L186.881 343.516Z" fill="black"/>
<ellipse cx="188.457" cy="342.957" rx="8.38968" ry="6.22506" transform="rotate(-131.915 188.457 342.957)" fill="#92693D" stroke="black"/>
<ellipse cx="187.672" cy="343.522" rx="5.34836" ry="3.96843" transform="rotate(-131.915 187.672 343.522)" fill="#E1A15D"/>
<path d="M375.159 371.921L331.769 385.881C331.148 386.081 330.507 385.668 330.464 385.018C328.281 352.246 319.379 285.914 300.178 265.608C299.541 264.935 299.994 263.638 300.912 263.518C311.721 262.113 343.454 254.654 349.295 252.189C349.645 252.042 350.056 252.072 350.366 252.291C375.855 270.317 375.853 286.485 375.852 298.594L375.852 298.812V370.969C375.852 371.403 375.572 371.788 375.159 371.921Z" fill="#999BFE" stroke="black"/>
<path d="M339.188 307.371C338.632 292.54 328.67 277.453 322.293 271.43C321.679 270.849 321.937 269.767 322.761 269.578L351.247 263.05C351.498 262.992 351.764 263.034 351.983 263.17C363.388 270.225 369.556 284.687 369.757 300.006C369.763 300.462 369.453 300.861 369.012 300.975L340.462 308.339C339.829 308.502 339.213 308.024 339.188 307.371Z" fill="#78FEFF" stroke="black"/>
<path d="M340.001 377.846V322.027C340.001 321.579 340.299 321.185 340.731 321.064L365.522 314.137C366.159 313.959 366.791 314.438 366.791 315.1V370.555C366.791 370.999 366.499 371.389 366.073 371.514L341.283 378.806C340.642 378.994 340.001 378.514 340.001 377.846Z" fill="#4D63F5" stroke="black"/>
<path d="M371.125 371.452V313.635C371.125 312.941 370.435 312.458 369.783 312.695L367.449 313.544C367.054 313.687 366.791 314.063 366.791 314.483V370.603C366.791 371.024 367.054 371.399 367.449 371.543L369.783 372.392C370.435 372.629 371.125 372.146 371.125 371.452Z" fill="#27348A" stroke="black"/>
<path d="M298.239 277.184V265.311C298.239 264.581 298.986 264.096 299.634 264.431C310.256 269.917 329.339 285.98 330.545 312.207C331.76 338.623 331.122 372.88 330.604 384.991C330.576 385.645 329.934 386.083 329.31 385.886L317.171 382.071C316.906 381.988 316.689 381.798 316.564 381.55C313.224 374.924 306.61 370.493 303.163 368.819C302.806 368.646 302.573 368.29 302.573 367.893V306.712C302.573 306.24 302.902 305.833 303.363 305.734L307.298 304.891C307.759 304.792 308.088 304.384 308.088 303.913V290.103C308.088 289.875 308.01 289.653 307.867 289.475L298.461 277.812C298.317 277.634 298.239 277.412 298.239 277.184Z" fill="#334BA4" stroke="black"/>
<path d="M347.179 293.287L341.846 278.229C341.572 277.455 342.297 276.698 343.083 276.94L355.317 280.704C355.941 280.896 356.217 281.624 355.876 282.181L348.975 293.474C348.536 294.192 347.46 294.08 347.179 293.287Z" fill="#FFBF49" stroke="black"/>
<path d="M252.932 353.575L233.547 349.31C233.343 349.265 233.13 349.285 232.938 349.367L230.504 350.41C229.618 350.79 229.712 352.072 230.651 352.29C239.485 354.338 265.581 360.272 271.449 360.272C287.208 360.272 287.208 350.423 281.692 349.241L270.539 347.01C270.137 346.93 269.73 347.106 269.483 347.434C265.756 352.382 256.985 354.335 252.932 353.575Z" fill="#8685F9" stroke="black"/>
<path d="M228.927 351.888C235.32 353.383 265.126 360.272 271.449 360.272C280.412 360.272 284.277 356.668 284.929 354.362V365.394C284.929 368.939 280.51 373.416 264.357 371.697C258.679 371.093 235.18 365.346 228.454 363.615C228.014 363.502 227.717 363.107 227.717 362.652V352.869C227.717 352.223 228.298 351.741 228.927 351.888Z" fill="#2F489B" stroke="black"/>
<path d="M124.495 328.705C129.847 330.489 142.864 333.347 149.724 334.768C150.329 334.893 150.892 334.43 150.892 333.813C150.892 333.359 150.579 332.966 150.138 332.862L139.845 330.461C139.393 330.355 139.073 329.952 139.073 329.487L139.073 320.463C139.073 319.986 138.725 319.572 138.256 319.488C121.224 316.414 117.514 326.378 124.495 328.705Z" fill="#8685F9" stroke="black"/>
<path d="M124.495 328.705C129.945 330.521 143.345 333.453 150.096 334.845C150.562 334.941 150.892 335.35 150.892 335.825V345.249C150.892 345.885 150.31 346.36 149.689 346.228C142.487 344.698 129.346 341.86 126.071 340.967C122.792 340.073 121.553 338.637 121.293 337.929C121.266 337.854 121.258 337.775 121.258 337.695V325.947C121.41 327 122.5 328.04 124.495 328.705Z" fill="#2F489B" stroke="black"/>
<path d="M339.989 390.504C339.07 390.194 339.086 388.889 340.013 388.601L378.9 376.549C379.101 376.487 379.317 376.489 379.516 376.557L385.73 378.654C386.649 378.964 386.632 380.27 385.706 380.557L346.819 392.609C346.618 392.672 346.402 392.669 346.203 392.602L339.989 390.504Z" fill="#FFBF49" stroke="black"/>
<path d="M358.9 397.596C357.981 397.286 357.997 395.98 358.924 395.693L397.811 383.641C398.012 383.578 398.228 383.581 398.427 383.648L404.641 385.746C405.56 386.056 405.543 387.361 404.617 387.648L365.73 399.701C365.529 399.763 365.313 399.76 365.114 399.693L358.9 397.596Z" fill="#FFBF49" stroke="black"/>
<path d="M193.469 392.868C194.388 392.558 194.372 391.253 193.445 390.966L154.558 378.913C154.357 378.851 154.142 378.853 153.942 378.921L147.728 381.018C146.81 381.328 146.826 382.634 147.752 382.921L186.64 394.973C186.841 395.036 187.056 395.033 187.255 394.966L193.469 392.868Z" fill="#FFBF49" stroke="black"/>
<path d="M174.558 399.96C175.477 399.65 175.461 398.344 174.535 398.057L135.647 386.005C135.446 385.942 135.231 385.945 135.031 386.012L128.818 388.11C127.899 388.42 127.915 389.725 128.841 390.012L167.729 402.065C167.93 402.127 168.145 402.124 168.345 402.057L174.558 399.96Z" fill="#FFBF49" stroke="black"/>
<circle cx="245.659" cy="224.35" r="8.16748" fill="#78FEFF" stroke="black"/>
<circle cx="325.637" cy="177.467" r="6.98556" fill="#78FEFF" stroke="black"/>
<circle cx="224.385" cy="182.589" r="4.22772" fill="#00BBFF" stroke="black"/>
<circle cx="226.748" cy="215.683" r="2.65181" fill="#78FEFF" stroke="black"/>
<circle cx="249.599" cy="199.924" r="2.65181" fill="#78FEFF" stroke="black"/>
<circle cx="307.12" cy="157.374" r="4.22772" fill="#00BBFF" stroke="black"/>
<circle cx="335.486" cy="207.803" r="4.22772" fill="#7BF4FF" stroke="black"/>
<circle cx="346.123" cy="151.464" r="3.04579" fill="#7BF4FF" stroke="black"/>
<circle cx="200.746" cy="135.312" r="6.59158" fill="#00BBFF" stroke="black"/>
<path d="M319.717 196.122C321.028 194.956 322.509 194.171 324.18 193.341C324.354 193.254 324.529 193.168 324.706 193.08C326.228 192.328 327.889 191.507 329.634 190.321C333.553 187.655 337.854 183.177 342.296 173.501C343.666 170.516 344.911 168.56 346.015 167.423C347.121 166.283 347.99 166.051 348.665 166.244C349.388 166.451 350.12 167.198 350.796 168.555C351.461 169.889 352.02 171.706 352.456 173.854C353.326 178.145 353.688 183.661 353.487 189.04C353.286 194.416 352.525 199.607 351.177 203.278C346.423 213.574 334.649 215.264 325.911 212.517C321.544 211.144 318.073 208.698 316.659 205.81C315.959 204.38 315.759 202.835 316.199 201.225C316.641 199.606 317.742 197.88 319.717 196.122Z" fill="#78FEFF" stroke="black"/>
<circle cx="190.897" cy="198.742" r="2.75784" stroke="black"/>
</g>
<defs>
<filter id="filter0_d_32095_429" x="2.81097" y="264.203" width="512.072" height="181.789" filterUnits="userSpaceOnUse" color-interpolation-filters="sRGB">
<feFlood flood-opacity="0" result="BackgroundImageFix"/>
<feColorMatrix in="SourceAlpha" type="matrix" values="0 0 0 0 0 0 0 0 0 0 0 0 0 0 0 0 0 0 127 0" result="hardAlpha"/>
<feOffset dy="4"/>
<feComposite in2="hardAlpha" operator="out"/>
<feColorMatrix type="matrix" values="0 0 0 0 0.116424 0 0 0 0 0.125523 0 0 0 0 0.365104 0 0 0 1 0"/>
<feBlend mode="normal" in2="BackgroundImageFix" result="effect1_dropShadow_32095_429"/>
<feBlend mode="normal" in="SourceGraphic" in2="effect1_dropShadow_32095_429" result="shape"/>
</filter>
<radialGradient id="paint0_radial_32095_429" cx="0" cy="0" r="1" gradientUnits="userSpaceOnUse" gradientTransform="translate(265.745 153.041) rotate(90) scale(98.1002 95.427)">
<stop stop-color="#489899" stop-opacity="0"/>
<stop offset="1" stop-color="#78FEFF"/>
</radialGradient>
<clipPath id="clip0_32095_429">
<rect width="520" height="450" fill="white"/>
</clipPath>
</defs>
</svg>
