<svg width="514" height="444" viewBox="0 0 514 444" fill="none" xmlns="http://www.w3.org/2000/svg">
<g clip-path="url(#clip0_31866_3768)">
<g filter="url(#filter0_d_31866_3768)">
<path d="M3.98983 353.919C0.413779 352.668 0.419457 347.608 3.99831 346.365L238.128 265.026C250.925 260.581 264.849 260.596 277.635 265.071L509.704 346.277C513.281 347.528 513.275 352.587 509.696 353.831L275.566 435.169C262.77 439.615 248.845 439.599 236.059 435.125L3.98983 353.919Z" fill="#463882"/>
<path d="M3.98983 353.919C0.413779 352.668 0.419457 347.608 3.99831 346.365L238.128 265.026C250.925 260.581 264.849 260.596 277.635 265.071L509.704 346.277C513.281 347.528 513.275 352.587 509.696 353.831L275.566 435.169C262.77 439.615 248.845 439.599 236.059 435.125L3.98983 353.919Z" stroke="black"/>
</g>
<path d="M263.145 382.881C324.94 382.881 375.034 366.785 375.034 346.93V332.058V271.779H151.256V346.93C151.256 366.785 201.35 382.881 263.145 382.881Z" fill="#7781F5"/>
<path d="M375.034 332.058V271.779H151.256V346.93C151.256 366.785 201.35 382.881 263.145 382.881C324.94 382.881 375.034 366.785 375.034 346.93V332.058ZM375.034 332.058C369.984 341.382 347.984 361.133 300.392 365.546C252.8 369.958 208.333 364.495 192.048 361.212" stroke="black"/>
<path d="M263.539 304.085C325.551 304.085 375.822 288.034 375.822 268.233V252.868H151.256V268.233C151.256 288.034 201.527 304.085 263.539 304.085Z" fill="#4B35C5" stroke="black"/>
<ellipse cx="263.539" cy="253.262" rx="112.283" ry="35.8519" fill="#6956D4" stroke="black"/>
<path d="M263.539 276.507C314.237 276.507 355.336 263.278 355.336 246.959V229.23H171.742V246.959C171.742 263.278 212.841 276.507 263.539 276.507Z" fill="#7781F5" stroke="black"/>
<ellipse cx="263.539" cy="229.624" rx="91.7965" ry="29.5482" fill="#AAA1FE" stroke="black"/>
<ellipse cx="263.539" cy="217.804" rx="74.4616" ry="24.0326" fill="#5148A9" stroke="black"/>
<path d="M263.539 248.141C311.19 248.141 349.82 235.748 349.82 220.461C349.82 220.461 363.609 209.531 357.699 91.3383H169.378C164.651 209.137 177.258 220.461 177.258 220.461C177.258 235.748 215.887 248.141 263.539 248.141Z" fill="url(#paint0_radial_31866_3768)" stroke="black"/>
<path d="M176.683 204.409C178.248 219.746 185.382 227.545 188.825 229.582C188.874 229.611 188.916 229.64 188.96 229.677C222.155 257.19 350.023 247.731 333.88 223.32C320.072 202.439 300.392 232.307 255.873 236.715C216.081 240.655 208.513 211.756 199.928 197.318C191.26 182.74 174.713 185.104 176.683 204.409Z" fill="#78FEFF" stroke="black" stroke-linecap="round" stroke-linejoin="round"/>
<path d="M325.404 222.127C320.731 219.611 313.074 223.804 309.829 226.215C303.34 231.561 318.914 228.102 323.781 228.416C328.648 228.731 331.244 225.272 325.404 222.127Z" stroke="black"/>
<path d="M202.686 214.652C199.219 206.773 195.988 202.964 194.806 202.045C191.654 200.601 186.69 200.312 192.048 210.713C197.407 221.114 209.909 228.836 214.111 230.412C210.171 228.623 206.153 222.532 202.686 214.652Z" stroke="black"/>
<path d="M263.539 117.34C318.153 117.34 362.427 103.177 362.427 85.7063V54.3041H164.651V85.7063C164.651 103.177 208.925 117.34 263.539 117.34Z" fill="#4B35C5" stroke="black"/>
<path d="M263.539 97.6415C325.551 97.6415 375.822 81.5901 375.822 61.7896V45.6366H151.256V61.7896C151.256 81.5901 201.527 97.6415 263.539 97.6415Z" fill="#BAAFFC" stroke="black"/>
<ellipse cx="263.539" cy="44.4547" rx="112.283" ry="35.8519" fill="#7370C8" stroke="black"/>
<ellipse cx="263.358" cy="44.4547" rx="71.7037" ry="22.4567" fill="#524FA8" stroke="black"/>
<path fill-rule="evenodd" clip-rule="evenodd" d="M192.754 48.3944C198.701 37.8706 228.049 29.8775 263.358 29.8775C298.667 29.8775 328.016 37.8706 333.962 48.3944C328.016 58.9183 298.667 66.9113 263.358 66.9113C228.049 66.9113 198.701 58.9183 192.754 48.3944Z" fill="#78FEFF"/>
<path d="M192.754 48.3944L192.319 48.1485L192.18 48.3944L192.319 48.6404L192.754 48.3944ZM333.962 48.3944L334.397 48.6404L334.536 48.3944L334.397 48.1485L333.962 48.3944ZM193.19 48.6404C194.609 46.1289 197.462 43.7121 201.567 41.5016C205.661 39.2966 210.951 37.3233 217.173 35.6728C229.617 32.3723 245.738 30.3775 263.358 30.3775V29.3775C245.67 29.3775 229.461 31.3793 216.917 34.7063C210.646 36.3696 205.277 38.3677 201.092 40.6212C196.918 42.8693 193.873 45.3981 192.319 48.1485L193.19 48.6404ZM263.358 30.3775C280.979 30.3775 297.099 32.3723 309.543 35.6728C315.766 37.3233 321.055 39.2966 325.15 41.5016C329.254 43.7121 332.108 46.1289 333.527 48.6404L334.397 48.1485C332.843 45.3981 329.798 42.8693 325.624 40.6212C321.44 38.3677 316.071 36.3696 309.799 34.7063C297.255 31.3793 281.047 29.3775 263.358 29.3775V30.3775ZM333.527 48.1485C332.108 50.66 329.254 53.0768 325.15 55.2872C321.055 57.4923 315.766 59.4656 309.543 61.116C297.099 64.4165 280.979 66.4113 263.358 66.4113V67.4113C281.047 67.4113 297.255 65.4096 309.799 62.0826C316.071 60.4193 321.44 58.4211 325.624 56.1677C329.798 53.9196 332.843 51.3908 334.397 48.6404L333.527 48.1485ZM263.358 66.4113C245.738 66.4113 229.617 64.4165 217.173 61.116C210.951 59.4656 205.661 57.4923 201.567 55.2872C197.462 53.0768 194.609 50.66 193.19 48.1485L192.319 48.6404C193.873 51.3908 196.918 53.9196 201.092 56.1677C205.277 58.4211 210.646 60.4193 216.917 62.0826C229.461 65.4096 245.67 67.4113 263.358 67.4113V66.4113Z" fill="black"/>
<path d="M139.1 310.117L154.261 352.68C154.355 352.941 154.553 353.153 154.808 353.262L250.505 394.475C250.775 394.592 251.084 394.583 251.348 394.451L267.32 386.461C267.659 386.291 267.873 385.945 267.873 385.566V341.271C265.772 323.279 264.395 283.267 211.534 271.143C168.762 261.333 139.278 295.888 139.044 309.788C139.042 309.902 139.062 310.009 139.1 310.117Z" fill="#5462D1" stroke="black"/>
<path d="M137.073 317.632V361.758L250.538 394.852V349.938C248.437 331.947 247.06 291.935 194.199 279.811C151.256 269.961 137.073 303.843 137.073 317.632Z" fill="#4B35C5" stroke="black"/>
<path d="M154.03 332.14V365.953C154.03 366.381 154.302 366.761 154.707 366.899L225.763 391.181C225.998 391.261 226.254 391.251 226.482 391.153L230.252 389.527C230.618 389.369 230.856 389.008 230.856 388.609V354.123C230.856 341.99 234.131 307.269 193.017 297.782C159.617 290.074 154.03 321.35 154.03 332.14Z" fill="#A1B7F5" stroke="black"/>
<path d="M148.908 334.573V368.353C148.908 368.796 149.201 369.187 149.626 369.312L224.452 391.323C225.092 391.511 225.734 391.031 225.734 390.363V356.556C225.734 344.423 225.734 309.196 187.895 301.721C155.983 295.418 148.908 323.783 148.908 334.573Z" fill="#4764B7" stroke="black"/>
<path d="M207.435 373.264C200.776 377.061 192.511 377.098 184.497 374.028C176.484 370.958 168.753 364.788 163.227 356.23C157.702 347.672 155.449 338.378 156.253 330.28C157.056 322.183 160.909 315.311 167.568 311.514C174.227 307.717 182.493 307.679 190.506 310.749C198.519 313.819 206.251 319.989 211.776 328.547C217.301 337.106 219.554 346.4 218.75 354.497C217.947 362.594 214.094 369.467 207.435 373.264Z" fill="#5D71E1" stroke="black"/>
<path fill-rule="evenodd" clip-rule="evenodd" d="M173.942 309.059C186.921 306.499 202.632 314.135 211.941 328.554C222.446 344.824 221.034 363.901 209.139 372.578C201.492 373.769 192.942 371.435 185.351 366.29C180.344 362.896 175.754 358.279 172.116 352.644C171.174 351.184 170.325 349.704 169.57 348.211C165.881 340.916 164.41 333.329 165.051 326.542C165.724 319.407 168.73 313.156 173.942 309.059Z" fill="#354CAC"/>
<path d="M173.942 309.059L173.854 308.571L173.733 308.595L173.636 308.671L173.942 309.059ZM211.941 328.554L212.366 328.279L212.366 328.279L211.941 328.554ZM209.139 372.578L209.207 373.07L209.33 373.051L209.431 372.977L209.139 372.578ZM185.351 366.29L185.062 366.703L185.062 366.703L185.351 366.29ZM172.116 352.644L172.54 352.369L172.54 352.369L172.116 352.644ZM169.57 348.211L169.121 348.441L169.121 348.441L169.57 348.211ZM165.051 326.542L164.551 326.506L164.551 326.506L165.051 326.542ZM174.03 309.547C186.754 307.037 202.284 314.528 211.517 328.829L212.366 328.279C202.98 313.742 187.088 305.96 173.854 308.571L174.03 309.547ZM211.517 328.829C221.946 344.982 220.437 363.724 208.847 372.179L209.431 372.977C221.631 364.077 222.946 344.667 212.366 328.279L211.517 328.829ZM209.072 372.086C201.579 373.253 193.154 370.97 185.64 365.877L185.062 366.703C192.73 371.9 201.405 374.285 209.207 373.07L209.072 372.086ZM185.64 365.877C180.688 362.52 176.144 357.95 172.54 352.369L171.691 352.918C175.364 358.608 180 363.272 185.062 366.703L185.64 365.877ZM172.54 352.369C171.607 350.924 170.767 349.458 170.02 347.98L169.121 348.441C169.883 349.95 170.74 351.445 171.691 352.918L172.54 352.369ZM170.02 347.98C166.367 340.758 164.92 333.262 165.551 326.578L164.551 326.506C163.901 333.396 165.395 341.075 169.121 348.441L170.02 347.98ZM165.551 326.578C166.214 319.552 169.168 313.441 174.249 309.447L173.636 308.671C168.292 312.872 165.234 319.262 164.551 326.506L165.551 326.578ZM184.922 340.082C182.487 344.109 179.137 354.957 184.9 366.518L185.802 366.062C180.218 354.86 183.487 344.374 185.78 340.58L184.922 340.082ZM185.499 339.852C183.572 339.304 180.463 339.06 177.338 340.096C174.191 341.138 171.051 343.471 169.108 348.025L170.032 348.396C171.854 344.125 174.759 341.993 177.638 341.039C180.539 340.078 183.438 340.308 185.203 340.81L185.499 339.852ZM185.832 340.18C184.893 337.038 182.734 332.561 179.286 329.338C175.818 326.095 171.022 324.11 164.906 326.068L165.196 327.015C170.891 325.192 175.322 327.015 178.59 330.069C181.878 333.143 183.963 337.452 184.869 340.482L185.832 340.18ZM185.822 340.494C187.299 336.508 188.664 330.307 188.187 324.17C187.71 318.027 185.378 311.882 179.389 308.147L178.842 308.993C184.479 312.509 186.723 318.31 187.186 324.267C187.649 330.23 186.319 336.285 184.88 340.168L185.822 340.494ZM185.536 340.79C191.028 338.515 200.715 331.342 203.824 318.669L202.849 318.453C199.835 330.739 190.431 337.691 185.166 339.872L185.536 340.79ZM185.204 340.81C189.245 341.954 194.916 343.055 200.786 343.345C206.647 343.635 212.758 343.119 217.647 340.983L217.259 340.073C212.58 342.117 206.65 342.637 200.857 342.351C195.072 342.065 189.476 340.978 185.498 339.852L185.204 340.81ZM184.881 340.516C186.574 344.936 189.954 351.209 194.866 356.659C199.776 362.107 206.256 366.774 214.151 367.89L214.314 366.904C206.731 365.832 200.445 361.338 195.621 355.986C190.798 350.636 187.476 344.47 185.821 340.146L184.881 340.516Z" fill="black"/>
<ellipse cx="186.457" cy="339.957" rx="8.38968" ry="6.22506" transform="rotate(-131.915 186.457 339.957)" fill="#92693D" stroke="black"/>
<ellipse cx="185.672" cy="340.522" rx="5.34836" ry="3.96843" transform="rotate(-131.915 185.672 340.522)" fill="#E1A15D"/>
<path d="M373.159 368.921L329.769 382.881C329.148 383.081 328.507 382.668 328.464 382.018C326.281 349.246 317.379 282.914 298.178 262.608C297.541 261.935 297.994 260.638 298.912 260.518C309.721 259.113 341.454 251.654 347.295 249.189C347.645 249.042 348.056 249.072 348.366 249.291C373.855 267.317 373.853 283.485 373.852 295.594L373.852 295.812V367.969C373.852 368.403 373.572 368.788 373.159 368.921Z" fill="#999BFE" stroke="black"/>
<path d="M337.188 304.371C336.632 289.54 326.67 274.453 320.293 268.43C319.679 267.849 319.937 266.767 320.761 266.578L349.247 260.05C349.498 259.992 349.764 260.034 349.983 260.17C361.388 267.225 367.556 281.687 367.757 297.006C367.763 297.462 367.453 297.861 367.012 297.975L338.462 305.339C337.829 305.502 337.213 305.024 337.188 304.371Z" fill="#78FEFF" stroke="black"/>
<path d="M338.001 374.846V319.027C338.001 318.579 338.299 318.185 338.731 318.064L363.522 311.137C364.159 310.959 364.791 311.439 364.791 312.101V367.555C364.791 367.999 364.499 368.389 364.073 368.515L339.283 375.806C338.642 375.994 338.001 375.514 338.001 374.846Z" fill="#4D63F5" stroke="black"/>
<path d="M369.125 368.452V310.635C369.125 309.941 368.435 309.458 367.783 309.695L365.449 310.543C365.054 310.687 364.791 311.063 364.791 311.483V367.603C364.791 368.023 365.054 368.399 365.449 368.543L367.783 369.391C368.435 369.629 369.125 369.146 369.125 368.452Z" fill="#27348A" stroke="black"/>
<path d="M296.239 274.184V262.311C296.239 261.581 296.986 261.096 297.634 261.431C308.256 266.917 327.339 282.98 328.545 309.207C329.76 335.623 329.122 369.88 328.604 381.991C328.576 382.645 327.934 383.083 327.31 382.886L315.171 379.071C314.906 378.988 314.689 378.798 314.564 378.55C311.224 371.924 304.61 367.493 301.163 365.819C300.806 365.646 300.573 365.29 300.573 364.893V303.712C300.573 303.24 300.902 302.833 301.363 302.734L305.298 301.891C305.759 301.792 306.088 301.384 306.088 300.913V287.103C306.088 286.875 306.01 286.653 305.867 286.475L296.461 274.812C296.317 274.634 296.239 274.412 296.239 274.184Z" fill="#334BA4" stroke="black"/>
<path d="M345.179 290.287L339.846 275.229C339.572 274.455 340.297 273.698 341.083 273.94L353.317 277.704C353.941 277.896 354.217 278.624 353.876 279.181L346.975 290.474C346.536 291.193 345.46 291.08 345.179 290.287Z" fill="#FFBF49" stroke="black"/>
<path d="M250.932 350.574L231.547 346.31C231.343 346.265 231.13 346.285 230.938 346.367L228.504 347.41C227.618 347.79 227.712 349.072 228.651 349.29C237.485 351.338 263.581 357.272 269.449 357.272C285.208 357.272 285.208 347.423 279.692 346.241L268.539 344.01C268.137 343.93 267.73 344.106 267.483 344.434C263.756 349.382 254.985 351.335 250.932 350.574Z" fill="#8685F9" stroke="black"/>
<path d="M226.927 348.888C233.32 350.383 263.126 357.272 269.449 357.272C278.412 357.272 282.277 353.668 282.929 351.362V362.394C282.929 365.939 278.51 370.416 262.357 368.697C256.679 368.093 233.18 362.346 226.454 360.615C226.014 360.502 225.717 360.107 225.717 359.652V349.869C225.717 349.223 226.298 348.741 226.927 348.888Z" fill="#2F489B" stroke="black"/>
<path d="M122.495 325.705C127.847 327.489 140.864 330.347 147.724 331.768C148.329 331.893 148.892 331.43 148.892 330.813C148.892 330.359 148.579 329.965 148.138 329.862L137.845 327.461C137.393 327.355 137.073 326.952 137.073 326.487L137.073 317.463C137.073 316.986 136.725 316.572 136.256 316.488C119.224 313.414 115.514 323.378 122.495 325.705Z" fill="#8685F9" stroke="black"/>
<path d="M122.495 325.705C127.945 327.521 141.345 330.453 148.096 331.845C148.562 331.941 148.892 332.35 148.892 332.825V342.249C148.892 342.885 148.31 343.36 147.689 343.228C140.487 341.698 127.346 338.86 124.071 337.967C120.792 337.073 119.553 335.638 119.293 334.929C119.266 334.855 119.258 334.775 119.258 334.695V322.947C119.41 324.001 120.5 325.04 122.495 325.705Z" fill="#2F489B" stroke="black"/>
<path d="M337.989 387.504C337.07 387.194 337.086 385.889 338.013 385.602L376.9 373.549C377.101 373.487 377.317 373.489 377.516 373.557L383.73 375.654C384.649 375.964 384.632 377.27 383.706 377.557L344.819 389.609C344.618 389.672 344.402 389.669 344.203 389.602L337.989 387.504Z" fill="#FFBF49" stroke="black"/>
<path d="M356.9 394.596C355.981 394.286 355.997 392.98 356.924 392.693L395.811 380.641C396.012 380.578 396.228 380.581 396.427 380.648L402.641 382.746C403.56 383.056 403.543 384.361 402.617 384.648L363.73 396.701C363.529 396.763 363.313 396.761 363.114 396.693L356.9 394.596Z" fill="#FFBF49" stroke="black"/>
<path d="M191.469 389.868C192.388 389.558 192.372 388.253 191.445 387.965L152.558 375.913C152.357 375.851 152.142 375.853 151.942 375.921L145.728 378.018C144.81 378.328 144.826 379.634 145.752 379.921L184.64 391.973C184.841 392.035 185.056 392.033 185.255 391.966L191.469 389.868Z" fill="#FFBF49" stroke="black"/>
<path d="M172.558 396.96C173.477 396.649 173.461 395.344 172.535 395.057L133.647 383.004C133.446 382.942 133.231 382.945 133.031 383.012L126.818 385.11C125.899 385.42 125.915 386.725 126.841 387.012L165.729 399.065C165.93 399.127 166.145 399.124 166.345 399.057L172.558 396.96Z" fill="#FFBF49" stroke="black"/>
<circle cx="243.659" cy="221.35" r="8.16748" fill="#78FEFF" stroke="black"/>
<circle cx="323.637" cy="174.467" r="6.98556" fill="#78FEFF" stroke="black"/>
<circle cx="222.385" cy="179.589" r="4.22772" fill="#00BBFF" stroke="black"/>
<circle cx="224.748" cy="212.683" r="2.65181" fill="#78FEFF" stroke="black"/>
<circle cx="247.599" cy="196.924" r="2.65181" fill="#78FEFF" stroke="black"/>
<circle cx="305.12" cy="154.374" r="4.22772" fill="#00BBFF" stroke="black"/>
<circle cx="333.486" cy="204.803" r="4.22772" fill="#7BF4FF" stroke="black"/>
<circle cx="344.123" cy="148.464" r="3.04579" fill="#7BF4FF" stroke="black"/>
<circle cx="198.746" cy="132.311" r="6.59158" fill="#00BBFF" stroke="black"/>
<path d="M317.717 193.123C319.028 191.956 320.509 191.171 322.18 190.341C322.354 190.254 322.529 190.168 322.706 190.08C324.228 189.328 325.889 188.508 327.634 187.321C331.553 184.656 335.854 180.177 340.296 170.501C341.666 167.516 342.911 165.56 344.015 164.423C345.121 163.283 345.99 163.052 346.665 163.244C347.388 163.451 348.12 164.199 348.796 165.555C349.461 166.889 350.02 168.706 350.456 170.854C351.326 175.145 351.688 180.661 351.487 186.04C351.286 191.416 350.525 196.607 349.177 200.278C344.423 210.574 332.649 212.264 323.911 209.517C319.544 208.144 316.073 205.698 314.659 202.81C313.959 201.38 313.759 199.835 314.199 198.225C314.641 196.606 315.742 194.88 317.717 193.123Z" fill="#78FEFF" stroke="black"/>
<circle cx="188.897" cy="195.742" r="2.75784" stroke="black"/>
</g>
<defs>
<filter id="filter0_d_31866_3768" x="0.810974" y="261.203" width="512.072" height="181.789" filterUnits="userSpaceOnUse" color-interpolation-filters="sRGB">
<feFlood flood-opacity="0" result="BackgroundImageFix"/>
<feColorMatrix in="SourceAlpha" type="matrix" values="0 0 0 0 0 0 0 0 0 0 0 0 0 0 0 0 0 0 127 0" result="hardAlpha"/>
<feOffset dy="4"/>
<feComposite in2="hardAlpha" operator="out"/>
<feColorMatrix type="matrix" values="0 0 0 0 0.116424 0 0 0 0 0.125523 0 0 0 0 0.365104 0 0 0 1 0"/>
<feBlend mode="normal" in2="BackgroundImageFix" result="effect1_dropShadow_31866_3768"/>
<feBlend mode="normal" in="SourceGraphic" in2="effect1_dropShadow_31866_3768" result="shape"/>
</filter>
<radialGradient id="paint0_radial_31866_3768" cx="0" cy="0" r="1" gradientUnits="userSpaceOnUse" gradientTransform="translate(263.745 150.041) rotate(90) scale(98.1002 95.427)">
<stop stop-color="#489899" stop-opacity="0"/>
<stop offset="1" stop-color="#78FEFF"/>
</radialGradient>
<clipPath id="clip0_31866_3768">
<rect width="514" height="444" fill="white"/>
</clipPath>
</defs>
</svg>
