<svg width="378" height="290" viewBox="0 0 378 290" fill="none" xmlns="http://www.w3.org/2000/svg">
<g clip-path="url(#clip0_32029_1463)">
<g filter="url(#filter0_d_32029_1463)">
<path d="M7.53486 229.566C3.86391 228.387 3.82175 223.208 7.47302 221.969L171.877 166.201C184.061 162.068 197.25 161.961 209.498 165.894L374.263 218.811C377.934 219.99 377.977 225.169 374.325 226.407L209.921 282.176C197.738 286.309 184.549 286.416 172.3 282.482L7.53486 229.566Z" fill="#463882"/>
<path d="M7.53486 229.566C3.86391 228.387 3.82175 223.208 7.47302 221.969L171.877 166.201C184.061 162.068 197.25 161.961 209.498 165.894L374.263 218.811C377.934 219.99 377.977 225.169 374.325 226.407L209.921 282.176C197.738 286.309 184.549 286.416 172.3 282.482L7.53486 229.566Z" stroke="black"/>
</g>
<path d="M108.882 222.757C108.882 226.836 111.13 230.786 115.335 234.439C119.538 238.092 125.65 241.404 133.245 244.195C148.432 249.776 169.445 253.238 192.681 253.238C215.916 253.238 236.93 249.776 252.116 244.195C259.712 241.404 265.823 238.092 270.027 234.439C274.231 230.786 276.479 226.836 276.479 222.757V211.177H108.882V222.757Z" fill="#7370C8" stroke="black"/>
<path d="M108.882 211.772C108.882 215.856 111.13 219.81 115.335 223.468C119.538 227.125 125.65 230.441 133.245 233.236C148.432 238.824 169.445 242.291 192.681 242.291C215.916 242.291 236.929 238.824 252.116 233.236C259.711 230.441 265.823 227.125 270.026 223.468C274.231 219.81 276.479 215.856 276.479 211.772C276.479 207.687 274.231 203.733 270.026 200.075C265.823 196.418 259.711 193.102 252.116 190.307C236.929 184.719 215.916 181.253 192.681 181.253C169.445 181.253 148.432 184.719 133.245 190.307C125.65 193.102 119.538 196.418 115.335 200.075C111.13 203.733 108.882 207.687 108.882 211.772Z" fill="#BAAFFC" stroke="black"/>
<ellipse cx="76.2701" cy="28.0995" rx="76.2701" ry="28.0995" transform="matrix(-1 0 0 1 268.951 177.103)" fill="#DEDDF6" stroke="black"/>
<path d="M210.562 217.61L223.335 230.748L217.131 231.478L208.738 221.99C125.242 224.033 122.249 199.729 130.643 189.511L134.657 187.321C112.761 213.231 177.719 221.496 210.562 217.61Z" fill="#78FEFF" stroke="black" stroke-linejoin="round"/>
<path d="M247.785 205.933C262.382 198.05 253.867 189.511 247.785 186.227C265.01 193.817 258.125 203.987 252.529 208.122L252.164 222.355L246.69 224.544L247.785 205.933Z" fill="#78FEFF" stroke="black" stroke-linejoin="round"/>
<path d="M135.157 195.35C135.157 197.637 136.632 199.907 139.515 202.051C142.389 204.187 146.579 206.133 151.802 207.775C162.241 211.058 176.694 213.096 192.681 213.096C208.667 213.096 223.12 211.058 233.56 207.775C238.782 206.133 242.973 204.187 245.846 202.051C248.729 199.907 250.204 197.637 250.204 195.35C250.204 193.062 248.729 190.792 245.846 188.649C242.973 186.512 238.782 184.567 233.56 182.925C223.12 179.642 208.667 177.603 192.681 177.603C176.694 177.603 162.241 179.642 151.802 182.925C146.579 184.567 142.389 186.512 139.515 188.649C136.632 190.792 135.157 193.062 135.157 195.35Z" fill="#BAAFFC" stroke="black"/>
<path d="M147.565 189.511C147.565 191.631 148.73 193.713 150.978 195.668C153.224 197.622 156.503 199.405 160.598 200.912C168.784 203.925 180.127 205.798 192.681 205.798C205.234 205.798 216.577 203.925 224.763 200.912C228.859 199.405 232.138 197.622 234.384 195.668C236.631 193.713 237.797 191.631 237.797 189.511V179.063H147.565V189.511Z" fill="#7370C8" stroke="black"/>
<path d="M147.565 179.293C147.565 181.413 148.73 183.495 150.978 185.45C153.224 187.404 156.503 189.187 160.598 190.694C168.784 193.706 180.127 195.58 192.681 195.58C205.234 195.58 216.577 193.706 224.763 190.694C228.859 189.187 232.138 187.404 234.384 185.45C236.631 183.495 237.797 181.413 237.797 179.293C237.797 177.173 236.631 175.091 234.384 173.136C232.138 171.182 228.859 169.399 224.763 167.892C216.577 164.88 205.234 163.006 192.681 163.006C180.127 163.006 168.784 164.88 160.598 167.892C156.503 169.399 153.224 171.182 150.978 173.136C148.73 175.091 147.565 177.173 147.565 179.293Z" fill="#BAAFFC" stroke="black"/>
<path d="M160.702 177.833C160.702 179.243 161.495 180.652 163.078 181.998C164.659 183.342 166.977 184.575 169.884 185.62C175.694 187.709 183.754 189.011 192.681 189.011C201.607 189.011 209.667 187.709 215.477 185.62C218.385 184.575 220.702 183.342 222.283 181.998C223.866 180.652 224.659 179.243 224.659 177.833C224.659 176.424 223.866 175.015 222.283 173.669C220.702 172.325 218.385 171.092 215.477 170.046C209.667 167.957 201.607 166.656 192.681 166.656C183.754 166.656 175.694 167.957 169.884 170.046C166.977 171.092 164.659 172.325 163.078 173.669C161.495 175.015 160.702 176.424 160.702 177.833Z" fill="#31324F" stroke="black"/>
<path d="M217.861 128.203H208.373H192.316H176.259H166.771V179.293C166.771 179.293 168.435 182.289 176.259 184.234C180.021 185.169 185.206 185.862 192.316 185.862C199.425 185.862 204.611 185.169 208.373 184.234C216.197 182.289 217.861 179.293 217.861 179.293V128.203Z" fill="#364588"/>
<path d="M192.316 185.862V128.203M192.316 185.862C185.206 185.862 180.021 185.169 176.259 184.234M192.316 185.862C199.425 185.862 204.611 185.169 208.373 184.234M192.316 128.203H176.259M192.316 128.203H208.373M176.259 184.234C168.435 182.289 166.771 179.293 166.771 179.293V128.203H176.259M176.259 184.234V128.203M208.373 184.234C216.197 182.289 217.861 179.293 217.861 179.293V128.203H208.373M208.373 184.234V128.203" stroke="black"/>
<path d="M165.961 240.606C173.291 241.45 180.484 241.903 184.704 241.925L190.059 230.881C173.5 230.817 159.308 228.757 153.836 227.307L146.774 237.058C151.497 238.579 158.771 239.778 165.961 240.606Z" fill="#BAAFFC" stroke="black"/>
<path d="M185.017 242.426L178.448 259.942C161.224 259.942 149.741 257.023 144.51 255.563L145.97 237.317C155.458 240.601 176.624 242.426 185.017 242.426Z" fill="#7370C8" stroke="black" stroke-linecap="round"/>
<path d="M178.448 265.781V259.942C161.224 259.942 149.741 257.023 144.51 255.563V261.767C153.998 265.051 170.055 265.781 178.448 265.781Z" fill="#7370C8" stroke="black" stroke-linecap="round"/>
<path d="M178.448 265.781V259.942L185.017 242.426L190.856 230.383V232.938L187.937 242.061V253.009L178.448 265.781Z" fill="#7370C8" stroke="black" stroke-linecap="round"/>
<path d="M117.14 202.648L117.87 199.729H111.667L95.2447 208.852V217.975H108.747V209.947C108.747 209.947 109.842 205.568 111.667 203.743C113.491 201.919 117.14 202.648 117.14 202.648Z" fill="#7370C8" stroke="black" stroke-linecap="round"/>
<path d="M111.424 199.292L111.537 199.229H111.666H117.626L119.358 197.002L113.643 197.302L101.731 204.522L100.989 205.089L111.424 199.292Z" fill="#BAAFFC" stroke="black"/>
<path d="M270.411 224.179L255.084 219.435V221.26L266.761 225.639V237.317L290.847 242.791V237.317L270.411 228.923V224.179Z" fill="#7370C8" stroke="black" stroke-linecap="round" stroke-linejoin="round"/>
<path d="M270.411 224.179L255.084 219.435L267.491 208.487L278.439 210.677V214.691L295.956 224.179L290.847 237.317L270.411 228.923V224.179Z" fill="#BAAFFC" stroke="black" stroke-linejoin="round"/>
<path d="M290.847 237.317L295.956 224.179L295.591 230.018L290.847 242.791V237.317Z" fill="#7370C8" stroke="black" stroke-linecap="round" stroke-linejoin="round"/>
<path d="M270.41 223.814C270.41 223.814 275.155 218.705 278.439 210.677V214.691C275.884 221.625 270.41 228.923 270.41 228.923V223.814Z" fill="#7370C8" stroke="black" stroke-linecap="round" stroke-linejoin="round"/>
<path d="M132.655 40.2338C132.655 40.2337 132.655 40.2337 132.655 40.2337C124.804 55.6495 123.655 78.6946 130.442 101.077C137.287 123.647 152.18 145.47 176.293 158.049C200.421 170.636 228.842 172.102 253.263 166.534C277.498 161.009 297.671 148.59 305.832 133.393C305.804 133.375 305.775 133.355 305.745 133.335C305.441 133.13 304.99 132.827 304.398 132.432C303.214 131.643 301.468 130.486 299.221 129.019C294.728 126.085 288.23 121.909 280.217 116.942C264.191 107.009 242.106 93.9143 217.866 81.269C193.621 68.6205 172.209 58.3149 156.86 51.1715C149.185 47.5999 143.026 44.8189 138.786 42.9311C136.666 41.9872 135.026 41.2665 133.916 40.7819C133.361 40.5397 132.938 40.3564 132.655 40.2338Z" fill="#4D4F79" stroke="black"/>
<path d="M132.385 40.5835C124.372 55.9423 126.79 74.971 137.313 93.3712C147.833 111.766 166.423 129.465 190.605 142.081C214.787 154.696 239.94 159.816 261.045 157.92C282.157 156.023 299.146 147.119 307.159 131.76C315.171 116.401 312.754 97.3722 302.231 78.972C291.711 60.5775 273.12 42.8778 248.938 30.2627C224.757 17.6476 199.604 12.5271 178.498 14.4234C157.387 16.3202 140.397 25.2246 132.385 40.5835Z" fill="#BAAFFC" stroke="black"/>
<path d="M140.83 48.4427C133.98 61.5744 136.403 78.0522 146.02 94.1356C155.631 110.211 172.39 125.813 194.033 137.104C215.675 148.394 238.06 153.212 256.744 151.898C275.436 150.583 290.337 143.143 297.188 130.011C304.038 116.88 301.615 100.402 291.998 84.3183C282.387 68.2432 265.628 52.6405 243.985 41.3501C222.343 30.0597 199.958 25.2415 181.275 26.5559C162.582 27.871 147.681 35.3111 140.83 48.4427Z" fill="#7370C8" stroke="black"/>
<path d="M179.169 89.4972C176.819 94.0014 177.627 99.7003 180.994 105.331C184.356 110.953 190.23 116.429 197.835 120.396C205.44 124.363 213.292 126.049 219.827 125.589C226.371 125.129 231.507 122.531 233.857 118.027C236.206 113.522 235.398 107.823 232.032 102.193C228.67 96.5707 222.795 91.0948 215.191 87.1275C207.586 83.1603 199.734 81.475 193.199 81.9347C186.655 82.3951 181.519 84.9929 179.169 89.4972Z" fill="#4D4F79" stroke="black"/>
<path d="M181.158 88.6791C179.029 92.7604 179.909 98.0252 183.245 103.305C186.574 108.573 192.3 113.761 199.645 117.594C206.991 121.426 214.523 123.153 220.747 122.869C226.987 122.585 231.808 120.294 233.937 116.213C236.066 112.132 235.187 106.867 231.85 101.587C228.521 96.3193 222.795 91.1305 215.45 87.2984C208.104 83.4664 200.573 81.7394 194.348 82.0229C188.109 82.3071 183.287 84.5978 181.158 88.6791Z" fill="#BAAFFC" stroke="black"/>
<path d="M187.146 91.8029C185.619 94.7295 186.351 98.6041 188.998 102.58C191.634 106.538 196.107 110.486 201.803 113.458C207.499 116.429 213.296 117.839 218.051 117.736C222.826 117.632 226.423 116.016 227.949 113.089C229.476 110.163 228.744 106.288 226.097 102.313C223.461 98.3544 218.988 94.4059 213.292 91.4343C207.596 88.4627 201.799 87.0536 197.044 87.1566C192.269 87.2599 188.673 88.8762 187.146 91.8029Z" fill="#7370C8" stroke="black"/>
<path d="M217.343 106.909L259.789 26.8445L256.721 24.7918L198.095 94.2908C197.421 96.5217 197.646 102.005 203.94 106.091C210.234 110.178 215.498 108.339 217.343 106.909Z" fill="#D7D7F6" stroke="black"/>
<circle cx="14.4124" cy="14.4124" r="14.4124" transform="matrix(-0.992939 0.118629 0.118629 0.992939 275.13 0.0137939)" fill="#D7D7F6" stroke="black"/>
<g opacity="0.5">
<path fill-rule="evenodd" clip-rule="evenodd" d="M254.192 27.7904C250.989 25.5173 248.721 21.9511 248.219 17.7439C247.274 9.84037 252.916 2.66781 260.82 1.72355C268.723 0.779294 275.896 6.4209 276.84 14.3244C277.784 22.228 272.143 29.4005 264.239 30.3448C262.15 30.5944 260.112 30.3838 258.226 29.7928L256.157 33.6946C300.146 59.586 323.04 102.398 307.602 131.991C305.787 135.47 303.519 138.62 300.854 141.434C287.093 157.429 259.877 168.865 230.72 170.025C233.206 171.404 235.153 172.926 236.451 174.551L374.263 218.811C377.934 219.99 377.977 225.169 374.325 226.407L209.921 282.176C197.738 286.309 184.549 286.416 172.3 282.482L7.53485 229.566C3.8639 228.387 3.82175 223.208 7.47302 221.969L149.604 173.756C152.818 170.37 158.896 167.479 166.771 165.475V152.9C130.487 127.909 119.537 80.32 128.404 49.7548C129.199 46.5051 130.372 43.3604 131.941 40.3523C148.177 9.2298 200.662 4.5141 249.17 29.8195C249.937 30.2197 250.699 30.6251 251.455 31.0355L254.192 27.7904Z" fill="black"/>
<path opacity="0.6" d="M254.192 27.7905L254.574 28.1129C254.664 28.006 254.706 27.8662 254.688 27.7274C254.67 27.5887 254.595 27.4637 254.481 27.3827L254.192 27.7905ZM258.226 29.7929L258.376 29.3158C258.146 29.2438 257.897 29.3459 257.784 29.5587L258.226 29.7929ZM256.157 33.6946L255.716 33.4604C255.59 33.6968 255.673 33.9898 255.904 34.1255L256.157 33.6946ZM300.854 141.434L300.491 141.09C300.485 141.096 300.48 141.102 300.475 141.108L300.854 141.434ZM230.72 170.025L230.7 169.525C230.476 169.534 230.285 169.691 230.233 169.909C230.182 170.127 230.281 170.353 230.477 170.462L230.72 170.025ZM236.451 174.551L236.06 174.863C236.122 174.94 236.204 174.997 236.298 175.027L236.451 174.551ZM149.604 173.756L149.765 174.23C149.842 174.204 149.911 174.159 149.967 174.1L149.604 173.756ZM166.771 165.475L166.894 165.96C167.116 165.903 167.271 165.704 167.271 165.475H166.771ZM166.771 152.9H167.271C167.271 152.735 167.19 152.582 167.054 152.488L166.771 152.9ZM128.404 49.7548L128.884 49.8941C128.886 49.8873 128.888 49.8806 128.889 49.8736L128.404 49.7548ZM251.455 31.0356L251.216 31.475C251.425 31.5882 251.684 31.5393 251.837 31.358L251.455 31.0356ZM247.722 17.8033C248.242 22.1565 250.589 25.8469 253.903 28.1983L254.481 27.3827C251.389 25.1879 249.2 21.7459 248.715 17.6847L247.722 17.8033ZM260.76 1.22713C252.583 2.20415 246.745 9.62554 247.722 17.8033L248.715 17.6847C247.804 10.0553 253.25 3.13157 260.879 2.22007L260.76 1.22713ZM277.336 14.2652C276.359 6.08745 268.938 0.250115 260.76 1.22713L260.879 2.22007C268.508 1.30857 275.432 6.75446 276.344 14.3839L277.336 14.2652ZM264.298 30.8414C272.476 29.8644 278.313 22.443 277.336 14.2652L276.344 14.3839C277.255 22.0132 271.809 28.9369 264.18 29.8484L264.298 30.8414ZM258.076 30.2701C260.028 30.8817 262.138 31.0995 264.298 30.8414L264.18 29.8484C262.162 30.0895 260.195 29.8861 258.376 29.3158L258.076 30.2701ZM256.599 33.9288L258.668 30.0271L257.784 29.5587L255.716 33.4604L256.599 33.9288ZM308.045 132.222C315.865 117.234 313.948 98.9522 304.607 81.2219C295.265 63.4881 278.472 46.2486 256.411 33.2637L255.904 34.1255C277.832 47.0322 294.48 64.1444 303.722 81.688C312.966 99.2347 314.778 117.155 307.159 131.76L308.045 132.222ZM301.217 141.778C303.913 138.931 306.208 135.744 308.045 132.222L307.159 131.76C305.366 135.197 303.125 138.309 300.491 141.09L301.217 141.778ZM230.74 170.524C259.989 169.361 287.355 157.891 301.233 141.76L300.475 141.108C286.831 156.967 259.765 168.369 230.7 169.525L230.74 170.524ZM236.842 174.239C235.49 172.546 233.483 170.986 230.962 169.588L230.477 170.462C232.929 171.822 234.817 173.306 236.06 174.863L236.842 174.239ZM374.416 218.335L236.604 174.075L236.298 175.027L374.111 219.287L374.416 218.335ZM374.486 226.881C378.594 225.487 378.546 219.661 374.416 218.335L374.111 219.287C377.323 220.318 377.36 224.85 374.165 225.934L374.486 226.881ZM210.082 282.649L374.486 226.881L374.165 225.934L209.76 281.702L210.082 282.649ZM172.147 282.958C184.498 286.925 197.797 286.817 210.082 282.649L209.76 281.702C197.679 285.801 184.6 285.907 172.453 282.006L172.147 282.958ZM7.38196 230.042L172.147 282.958L172.453 282.006L7.68774 229.09L7.38196 230.042ZM7.3124 221.496C3.20472 222.889 3.25215 228.716 7.38196 230.042L7.68774 229.09C4.47566 228.058 4.43878 223.527 7.63364 222.443L7.3124 221.496ZM149.444 173.283L7.3124 221.496L7.63364 222.443L149.765 174.23L149.444 173.283ZM166.647 164.991C158.745 167.001 152.554 169.922 149.242 173.412L149.967 174.1C153.082 170.818 159.048 167.956 166.894 165.96L166.647 164.991ZM166.271 152.9V165.475H167.271V152.9H166.271ZM127.923 49.6156C119.003 80.3663 130.009 128.186 166.487 153.312L167.054 152.488C130.966 127.631 120.071 80.2738 128.884 49.8941L127.923 49.6156ZM131.498 40.121C129.91 43.1655 128.722 46.348 127.918 49.6359L128.889 49.8736C129.675 46.6623 130.834 43.5554 132.385 40.5835L131.498 40.121ZM249.401 29.3763C225.075 16.686 199.732 11.5117 178.409 13.4275C157.092 15.3428 139.721 24.3574 131.498 40.121L132.385 40.5835C140.397 25.2248 157.387 16.3204 178.498 14.4235C199.604 12.5272 224.757 17.6477 248.938 30.2629L249.401 29.3763ZM251.693 30.5962C250.935 30.1845 250.171 29.7778 249.401 29.3763L248.938 30.2629C249.703 30.6619 250.462 31.066 251.216 31.475L251.693 30.5962ZM253.81 27.4681L251.072 30.7132L251.837 31.358L254.574 28.1129L253.81 27.4681Z" fill="black"/>
</g>
<g filter="url(#filter1_d_32029_1463)">
<path d="M187.053 127.006H183.011V122.325C183.011 121.306 183.214 120.356 183.62 119.475C184.027 118.593 184.588 117.818 185.305 117.15C186.021 116.481 186.866 115.955 187.84 115.573C188.813 115.191 189.877 115 191.032 115C192.059 115 193.048 115.191 194 115.573C194.952 115.955 195.797 116.481 196.535 117.15C197.273 117.818 197.861 118.593 198.299 119.475C198.738 120.356 198.957 121.306 198.957 122.325V127.006H195.075V123.217C195.075 121.879 194.701 120.844 193.952 120.111C193.203 119.379 192.187 119.013 190.904 119.013C189.749 119.013 188.818 119.379 188.112 120.111C187.406 120.844 187.053 121.879 187.053 123.217V127.006ZM200.882 128.917C201.46 128.917 201.957 129.124 202.374 129.538C202.791 129.952 203 130.446 203 131.019V140.892C203 141.465 202.898 142.001 202.695 142.5C202.492 142.999 202.214 143.434 201.861 143.806C201.508 144.177 201.091 144.469 200.61 144.682C200.128 144.894 199.599 145 199.021 145H182.818C182.241 145 181.717 144.894 181.246 144.682C180.775 144.469 180.374 144.188 180.043 143.838C179.711 143.487 179.455 143.079 179.273 142.611C179.091 142.144 179 141.645 179 141.115V131.019C179 130.446 179.203 129.952 179.61 129.538C180.016 129.124 180.508 128.917 181.086 128.917H183.011H187.053H195.075H198.957H200.882Z" fill="url(#paint0_linear_32029_1463)"/>
<path d="M187.053 127.506H187.553V127.006V123.217C187.553 121.966 187.882 121.071 188.472 120.458C189.071 119.837 189.864 119.513 190.904 119.513C192.088 119.513 192.967 119.848 193.602 120.469C194.23 121.083 194.575 121.974 194.575 123.217V127.006V127.506H195.075H198.957H199.457V127.006V122.325C199.457 121.231 199.221 120.205 198.747 119.252C198.28 118.314 197.654 117.489 196.871 116.779C196.087 116.069 195.191 115.513 194.186 115.109C193.175 114.703 192.123 114.5 191.032 114.5C189.821 114.5 188.694 114.701 187.657 115.108C186.629 115.511 185.729 116.07 184.964 116.784C184.2 117.497 183.6 118.325 183.166 119.265C182.728 120.215 182.511 121.237 182.511 122.325V127.006V127.506H183.011H187.053ZM202.727 129.183C202.218 128.678 201.594 128.417 200.882 128.417H198.957H195.075H187.053H183.011H181.086C180.373 128.417 179.753 128.679 179.253 129.188C178.756 129.694 178.5 130.313 178.5 131.019V141.115C178.5 141.704 178.601 142.265 178.807 142.793C179.011 143.318 179.302 143.782 179.68 144.181C180.059 144.582 180.515 144.9 181.04 145.137C181.583 145.382 182.178 145.5 182.818 145.5H199.021C199.662 145.5 200.261 145.382 200.811 145.139C201.352 144.901 201.824 144.571 202.223 144.15C202.622 143.731 202.933 143.242 203.158 142.689C203.387 142.126 203.5 141.525 203.5 140.892V131.019C203.5 130.309 203.236 129.689 202.727 129.183Z" stroke="black"/>
</g>
</g>
<defs>
<filter id="filter0_d_32029_1463" x="4.25797" y="162.521" width="373.282" height="127.335" filterUnits="userSpaceOnUse" color-interpolation-filters="sRGB">
<feFlood flood-opacity="0" result="BackgroundImageFix"/>
<feColorMatrix in="SourceAlpha" type="matrix" values="0 0 0 0 0 0 0 0 0 0 0 0 0 0 0 0 0 0 127 0" result="hardAlpha"/>
<feOffset dy="4"/>
<feComposite in2="hardAlpha" operator="out"/>
<feColorMatrix type="matrix" values="0 0 0 0 0.116424 0 0 0 0 0.125523 0 0 0 0 0.365104 0 0 0 1 0"/>
<feBlend mode="normal" in2="BackgroundImageFix" result="effect1_dropShadow_32029_1463"/>
<feBlend mode="normal" in="SourceGraphic" in2="effect1_dropShadow_32029_1463" result="shape"/>
</filter>
<filter id="filter1_d_32029_1463" x="168" y="104" width="46" height="52" filterUnits="userSpaceOnUse" color-interpolation-filters="sRGB">
<feFlood flood-opacity="0" result="BackgroundImageFix"/>
<feColorMatrix in="SourceAlpha" type="matrix" values="0 0 0 0 0 0 0 0 0 0 0 0 0 0 0 0 0 0 127 0" result="hardAlpha"/>
<feOffset/>
<feGaussianBlur stdDeviation="5"/>
<feComposite in2="hardAlpha" operator="out"/>
<feColorMatrix type="matrix" values="0 0 0 0 0 0 0 0 0 0 0 0 0 0 0 0 0 0 0.25 0"/>
<feBlend mode="normal" in2="BackgroundImageFix" result="effect1_dropShadow_32029_1463"/>
<feBlend mode="normal" in="SourceGraphic" in2="effect1_dropShadow_32029_1463" result="shape"/>
</filter>
<linearGradient id="paint0_linear_32029_1463" x1="191" y1="115" x2="191" y2="145" gradientUnits="userSpaceOnUse">
<stop stop-color="white"/>
<stop offset="1" stop-color="#999999"/>
</linearGradient>
<clipPath id="clip0_32029_1463">
<rect width="378" height="290" fill="white"/>
</clipPath>
</defs>
</svg>
