<svg width="378" height="290" viewBox="0 0 378 290" fill="none" xmlns="http://www.w3.org/2000/svg">
<g clip-path="url(#clip0_31866_3252)">
<g filter="url(#filter0_d_31866_3252)">
<path d="M7.53486 229.566C3.86391 228.387 3.82175 223.208 7.47302 221.969L171.877 166.201C184.061 162.068 197.25 161.961 209.498 165.894L374.263 218.811C377.934 219.99 377.977 225.169 374.325 226.407L209.921 282.176C197.738 286.309 184.549 286.416 172.3 282.482L7.53486 229.566Z" fill="#463882"/>
<path d="M7.53486 229.566C3.86391 228.387 3.82175 223.208 7.47302 221.969L171.877 166.201C184.061 162.068 197.25 161.961 209.498 165.894L374.263 218.811C377.934 219.99 377.977 225.169 374.325 226.407L209.921 282.176C197.738 286.309 184.549 286.416 172.3 282.482L7.53486 229.566Z" stroke="black"/>
</g>
<path d="M108.882 222.757C108.882 226.836 111.13 230.786 115.335 234.439C119.538 238.092 125.65 241.404 133.245 244.195C148.432 249.776 169.445 253.238 192.681 253.238C215.916 253.238 236.93 249.776 252.116 244.195C259.712 241.404 265.823 238.092 270.027 234.439C274.231 230.786 276.479 226.836 276.479 222.757V211.177H108.882V222.757Z" fill="#7370C8" stroke="black"/>
<path d="M108.882 211.772C108.882 215.856 111.13 219.81 115.335 223.468C119.538 227.125 125.65 230.441 133.245 233.236C148.432 238.824 169.445 242.291 192.681 242.291C215.916 242.291 236.929 238.824 252.116 233.236C259.711 230.441 265.823 227.125 270.026 223.468C274.231 219.81 276.479 215.856 276.479 211.772C276.479 207.687 274.231 203.733 270.026 200.075C265.823 196.418 259.711 193.102 252.116 190.307C236.929 184.719 215.916 181.253 192.681 181.253C169.445 181.253 148.432 184.719 133.245 190.307C125.65 193.102 119.538 196.418 115.335 200.075C111.13 203.733 108.882 207.687 108.882 211.772Z" fill="#BAAFFC" stroke="black"/>
<ellipse cx="76.2701" cy="28.0995" rx="76.2701" ry="28.0995" transform="matrix(-1 0 0 1 268.951 177.103)" fill="#DEDDF6" stroke="black"/>
<path d="M210.562 217.61L223.335 230.748L217.131 231.478L208.738 221.99C125.242 224.033 122.249 199.729 130.643 189.511L134.657 187.321C112.761 213.231 177.719 221.496 210.562 217.61Z" fill="#78FEFF" stroke="black" stroke-linejoin="round"/>
<path d="M247.785 205.933C262.382 198.05 253.867 189.511 247.785 186.227C265.01 193.817 258.125 203.986 252.529 208.122L252.164 222.355L246.69 224.544L247.785 205.933Z" fill="#78FEFF" stroke="black" stroke-linejoin="round"/>
<path d="M135.157 195.35C135.157 197.637 136.632 199.908 139.515 202.051C142.389 204.188 146.579 206.133 151.802 207.775C162.241 211.058 176.694 213.096 192.681 213.096C208.667 213.096 223.12 211.058 233.56 207.775C238.782 206.133 242.973 204.188 245.846 202.051C248.729 199.908 250.204 197.637 250.204 195.35C250.204 193.062 248.729 190.792 245.846 188.649C242.973 186.512 238.782 184.567 233.56 182.925C223.12 179.642 208.667 177.603 192.681 177.603C176.694 177.603 162.241 179.642 151.802 182.925C146.579 184.567 142.389 186.512 139.515 188.649C136.632 190.792 135.157 193.062 135.157 195.35Z" fill="#BAAFFC" stroke="black"/>
<path d="M147.565 189.511C147.565 191.631 148.73 193.713 150.978 195.668C153.224 197.622 156.503 199.405 160.598 200.912C168.784 203.924 180.127 205.798 192.681 205.798C205.234 205.798 216.577 203.924 224.763 200.912C228.859 199.405 232.138 197.622 234.384 195.668C236.631 193.713 237.797 191.631 237.797 189.511V179.063H147.565V189.511Z" fill="#7370C8" stroke="black"/>
<path d="M147.565 179.293C147.565 181.413 148.73 183.495 150.978 185.45C153.224 187.404 156.503 189.187 160.598 190.694C168.784 193.706 180.127 195.58 192.681 195.58C205.234 195.58 216.577 193.706 224.763 190.694C228.859 189.187 232.138 187.404 234.384 185.45C236.631 183.495 237.797 181.413 237.797 179.293C237.797 177.173 236.631 175.091 234.384 173.136C232.138 171.182 228.859 169.399 224.763 167.892C216.577 164.88 205.234 163.006 192.681 163.006C180.127 163.006 168.784 164.88 160.598 167.892C156.503 169.399 153.224 171.182 150.978 173.136C148.73 175.091 147.565 177.173 147.565 179.293Z" fill="#BAAFFC" stroke="black"/>
<path d="M160.702 177.833C160.702 179.243 161.495 180.652 163.078 181.998C164.659 183.342 166.977 184.575 169.884 185.62C175.694 187.709 183.754 189.011 192.681 189.011C201.607 189.011 209.667 187.709 215.477 185.62C218.385 184.575 220.702 183.342 222.283 181.998C223.866 180.652 224.659 179.243 224.659 177.833C224.659 176.424 223.866 175.015 222.283 173.669C220.702 172.325 218.385 171.092 215.477 170.046C209.667 167.957 201.607 166.656 192.681 166.656C183.754 166.656 175.694 167.957 169.884 170.046C166.977 171.092 164.659 172.325 163.078 173.669C161.495 175.015 160.702 176.424 160.702 177.833Z" fill="#31324F" stroke="black"/>
<path d="M217.861 128.203H208.373H192.316H176.259H166.771V179.293C166.771 179.293 168.435 182.289 176.259 184.234C180.021 185.169 185.206 185.862 192.316 185.862C199.425 185.862 204.611 185.169 208.373 184.234C216.197 182.289 217.861 179.293 217.861 179.293V128.203Z" fill="#364588"/>
<path d="M192.316 185.862V128.203M192.316 185.862C185.206 185.862 180.021 185.169 176.259 184.234M192.316 185.862C199.425 185.862 204.611 185.169 208.373 184.234M192.316 128.203H176.259M192.316 128.203H208.373M176.259 184.234C168.435 182.289 166.771 179.293 166.771 179.293V128.203H176.259M176.259 184.234V128.203M208.373 184.234C216.197 182.289 217.861 179.293 217.861 179.293V128.203H208.373M208.373 184.234V128.203" stroke="black"/>
<path d="M184.704 241.925L190.059 230.881C173.5 230.817 159.308 228.757 153.836 227.307L146.774 237.058C151.497 238.579 158.771 239.778 165.961 240.606C173.291 241.45 180.484 241.903 184.704 241.925Z" fill="#BAAFFC" stroke="black"/>
<path d="M185.017 242.426L178.448 259.942C161.224 259.942 149.741 257.023 144.51 255.563L145.97 237.317C155.458 240.601 176.624 242.426 185.017 242.426Z" fill="#7370C8" stroke="black" stroke-linecap="round"/>
<path d="M178.448 265.781V259.942C161.224 259.942 149.741 257.023 144.51 255.563V261.767C153.998 265.051 170.055 265.781 178.448 265.781Z" fill="#7370C8" stroke="black" stroke-linecap="round"/>
<path d="M178.448 265.781V259.942L185.017 242.426L190.856 230.383V232.938L187.937 242.061V253.009L178.448 265.781Z" fill="#7370C8" stroke="black" stroke-linecap="round"/>
<path d="M117.14 202.648L117.87 199.729H111.667L95.2447 208.852V217.975H108.747V209.947C108.747 209.947 109.842 205.568 111.667 203.743C113.491 201.919 117.14 202.648 117.14 202.648Z" fill="#7370C8" stroke="black" stroke-linecap="round"/>
<path d="M117.626 199.229L119.358 197.002L113.643 197.302L101.731 204.522L100.989 205.089L111.424 199.292L111.537 199.229H111.666H117.626Z" fill="#BAAFFC" stroke="black"/>
<path d="M270.411 224.179L255.084 219.435V221.26L266.761 225.639V237.317L290.847 242.791V237.317L270.411 228.923V224.179Z" fill="#7370C8" stroke="black" stroke-linecap="round" stroke-linejoin="round"/>
<path d="M270.411 224.179L255.084 219.435L267.491 208.487L278.439 210.677V214.691L295.956 224.179L290.847 237.317L270.411 228.923V224.179Z" fill="#BAAFFC" stroke="black" stroke-linejoin="round"/>
<path d="M290.847 237.317L295.956 224.179L295.591 230.018L290.847 242.791V237.317Z" fill="#7370C8" stroke="black" stroke-linecap="round" stroke-linejoin="round"/>
<path d="M270.41 223.814C270.41 223.814 275.155 218.705 278.439 210.677V214.691C275.884 221.625 270.41 228.923 270.41 228.923V223.814Z" fill="#7370C8" stroke="black" stroke-linecap="round" stroke-linejoin="round"/>
</g>
<defs>
<filter id="filter0_d_31866_3252" x="4.25797" y="162.521" width="373.282" height="127.335" filterUnits="userSpaceOnUse" color-interpolation-filters="sRGB">
<feFlood flood-opacity="0" result="BackgroundImageFix"/>
<feColorMatrix in="SourceAlpha" type="matrix" values="0 0 0 0 0 0 0 0 0 0 0 0 0 0 0 0 0 0 127 0" result="hardAlpha"/>
<feOffset dy="4"/>
<feComposite in2="hardAlpha" operator="out"/>
<feColorMatrix type="matrix" values="0 0 0 0 0.116424 0 0 0 0 0.125523 0 0 0 0 0.365104 0 0 0 1 0"/>
<feBlend mode="normal" in2="BackgroundImageFix" result="effect1_dropShadow_31866_3252"/>
<feBlend mode="normal" in="SourceGraphic" in2="effect1_dropShadow_31866_3252" result="shape"/>
</filter>
<clipPath id="clip0_31866_3252">
<rect width="378" height="290" fill="white"/>
</clipPath>
</defs>
</svg>
