<svg width="446" height="324" viewBox="0 0 446 324" fill="none" xmlns="http://www.w3.org/2000/svg">
<g clip-path="url(#clip0_31866_3252)">
<g filter="url(#filter0_d_31866_3252)">
<path d="M4.53486 251.302C0.863914 250.123 0.821748 244.944 4.47302 243.705L203.99 176.025C216.174 171.893 229.363 171.785 241.612 175.719L441.584 239.943C445.255 241.122 445.297 246.301 441.646 247.539L242.128 315.219C229.945 319.352 216.756 319.459 204.507 315.525L4.53486 251.302Z" fill="#463882"/>
<path d="M4.53486 251.302C0.863914 250.123 0.821748 244.944 4.47302 243.705L203.99 176.025C216.174 171.893 229.363 171.785 241.612 175.719L441.584 239.943C445.255 241.122 445.297 246.301 441.646 247.539L242.128 315.219C229.945 319.352 216.756 319.459 204.507 315.525L4.53486 251.302Z" stroke="black"/>
</g>
<path d="M126.156 243.933C126.156 248.784 128.829 253.468 133.804 257.79C138.777 262.112 146.002 266.026 154.973 269.323C172.912 275.916 197.728 280.003 225.162 280.003C252.597 280.003 277.413 275.916 295.351 269.323C304.323 266.026 311.548 262.112 316.521 257.79C321.495 253.468 324.169 248.784 324.169 243.933V230.173H126.156V243.933Z" fill="#7370C8" stroke="black"/>
<path d="M126.156 230.966C126.156 235.823 128.83 240.513 133.804 244.841C138.777 249.167 146.002 253.086 154.974 256.387C172.912 262.988 197.728 267.08 225.162 267.08C252.597 267.08 277.412 262.988 295.351 256.387C304.323 253.086 311.548 249.167 316.521 244.841C321.495 240.513 324.169 235.823 324.169 230.966C324.169 226.108 321.495 221.418 316.521 217.091C311.548 212.764 304.323 208.845 295.351 205.544C277.412 198.943 252.597 194.851 225.162 194.851C197.728 194.851 172.912 198.943 154.974 205.544C146.002 208.845 138.777 212.764 133.804 217.091C128.83 221.418 126.156 226.108 126.156 230.966Z" fill="#BAAFFC" stroke="black"/>
<ellipse cx="90.0294" cy="33.1687" rx="90.0294" ry="33.1687" transform="matrix(-1 0 0 1 315.192 190.043)" fill="#DEDDF6" stroke="black"/>
<path d="M246.27 237.858L261.346 253.365L254.023 254.227L244.116 243.027C145.557 245.439 142.025 216.75 151.933 204.689L156.671 202.104C130.825 232.689 207.501 242.444 246.27 237.858Z" fill="#78FEFF" stroke="black" stroke-linejoin="round"/>
<path d="M290.208 224.073C307.438 214.769 297.387 204.689 290.208 200.812C310.54 209.772 302.413 221.776 295.807 226.658L295.377 243.458L288.915 246.042L290.208 224.073Z" fill="#78FEFF" stroke="black" stroke-linejoin="round"/>
<path d="M157.171 211.581C157.171 214.323 158.939 217.026 162.352 219.564C165.755 222.094 170.712 224.394 176.882 226.334C189.216 230.213 206.285 232.619 225.162 232.619C244.039 232.619 261.109 230.213 273.443 226.334C279.613 224.394 284.57 222.094 287.973 219.564C291.386 217.026 293.154 214.323 293.154 211.581C293.154 208.839 291.386 206.136 287.973 203.599C284.57 201.069 279.613 198.769 273.443 196.828C261.109 192.95 244.039 190.543 225.162 190.543C206.285 190.543 189.216 192.95 176.882 196.828C170.712 198.769 165.755 201.069 162.352 203.599C158.939 206.136 157.171 208.839 157.171 211.581Z" fill="#BAAFFC" stroke="black"/>
<path d="M171.817 204.689C171.817 207.227 173.213 209.707 175.877 212.025C178.539 214.341 182.421 216.45 187.261 218.231C196.936 221.792 210.337 224.004 225.162 224.004C239.988 224.004 253.388 221.792 263.064 218.231C267.904 216.45 271.786 214.341 274.448 212.025C277.112 209.707 278.508 207.227 278.508 204.689V192.266H171.817V204.689Z" fill="#7370C8" stroke="black"/>
<path d="M171.817 192.628C171.817 195.166 173.213 197.646 175.877 199.963C178.539 202.28 182.421 204.389 187.261 206.17C196.936 209.731 210.337 211.943 225.162 211.943C239.988 211.943 253.388 209.731 263.064 206.17C267.904 204.389 271.786 202.28 274.448 199.963C277.112 197.646 278.508 195.166 278.508 192.628C278.508 190.09 277.112 187.61 274.448 185.292C271.786 182.976 267.904 180.867 263.064 179.086C253.388 175.525 239.988 173.313 225.162 173.313C210.337 173.313 196.936 175.525 187.261 179.086C182.421 180.867 178.539 182.976 175.877 185.292C173.213 187.61 171.817 190.09 171.817 192.628Z" fill="#BAAFFC" stroke="black"/>
<path d="M187.324 190.905C187.324 192.605 188.281 194.291 190.161 195.889C192.039 197.485 194.785 198.945 198.223 200.181C205.093 202.652 214.618 204.189 225.162 204.189C235.707 204.189 245.232 202.652 252.102 200.181C255.54 198.945 258.286 197.485 260.164 195.889C262.043 194.291 263 192.605 263 190.905C263 189.204 262.043 187.518 260.164 185.92C258.286 184.324 255.54 182.864 252.102 181.628C245.232 179.158 235.707 177.62 225.162 177.62C214.618 177.62 205.093 179.158 198.223 181.628C194.785 182.864 192.039 184.324 190.161 185.92C188.281 187.518 187.324 189.204 187.324 190.905Z" fill="#31324F" stroke="black"/>
<path d="M254.885 132.321H243.685H224.732H205.778H194.578V192.628C194.578 192.628 196.543 196.164 205.778 198.46C210.218 199.564 216.34 200.381 224.732 200.381C233.124 200.381 239.245 199.564 243.685 198.46C252.921 196.164 254.885 192.628 254.885 192.628V132.321Z" fill="#364588"/>
<path d="M224.732 200.381V132.321M224.732 200.381C216.34 200.381 210.218 199.564 205.778 198.46M224.732 200.381C233.124 200.381 239.245 199.564 243.685 198.46M224.732 132.321H205.778M224.732 132.321H243.685M205.778 198.46C196.543 196.164 194.578 192.628 194.578 192.628V132.321H205.778M205.778 198.46V132.321M243.685 198.46C252.921 196.164 254.885 192.628 254.885 192.628V132.321H243.685M243.685 198.46V132.321" stroke="black"/>
<path d="M215.803 266.649L222.211 253.433C202.547 253.368 185.693 250.914 179.273 249.2L170.829 260.861C176.409 262.678 185.065 264.107 193.612 265.091C202.3 266.092 210.825 266.627 215.803 266.649Z" fill="#BAAFFC" stroke="black"/>
<path d="M216.116 267.15L208.363 287.826C188.031 287.826 174.476 284.38 168.302 282.657L170.025 261.119C181.225 264.996 206.209 267.15 216.116 267.15Z" fill="#7370C8" stroke="black" stroke-linecap="round"/>
<path d="M208.363 294.719V287.826C188.031 287.826 174.476 284.38 168.302 282.657V289.98C179.502 293.857 198.455 294.719 208.363 294.719Z" fill="#7370C8" stroke="black" stroke-linecap="round"/>
<path d="M208.362 294.719V287.826L216.116 267.15L223.009 252.935V255.95L219.562 266.719V279.642L208.362 294.719Z" fill="#7370C8" stroke="black" stroke-linecap="round"/>
<path d="M135.994 220.197L136.856 216.75H129.533L110.149 227.519V238.289H126.087V228.812C126.087 228.812 127.379 223.643 129.533 221.489C131.687 219.335 135.994 220.197 135.994 220.197Z" fill="#7370C8" stroke="black" stroke-linecap="round"/>
<path d="M136.611 216.251L138.805 213.43L131.839 213.797L117.754 222.333L115.893 223.756L129.29 216.313L129.403 216.251H129.533H136.611Z" fill="#BAAFFC" stroke="black"/>
<path d="M316.915 245.612L298.823 240.012V242.165L312.607 247.335V261.119L341.038 267.58V261.119L316.915 251.211V245.612Z" fill="#7370C8" stroke="black" stroke-linecap="round" stroke-linejoin="round"/>
<path d="M316.915 245.612L298.823 240.012L313.469 227.089L326.392 229.673V234.412L347.068 245.612L341.038 261.119L316.915 251.211V245.612Z" fill="#BAAFFC" stroke="black" stroke-linejoin="round"/>
<path d="M341.038 261.119L347.068 245.612L346.638 252.504L341.038 267.58V261.119Z" fill="#7370C8" stroke="black" stroke-linecap="round" stroke-linejoin="round"/>
<path d="M316.915 245.181C316.915 245.181 322.515 239.15 326.392 229.673V234.412C323.376 242.596 316.915 251.211 316.915 251.211V245.181Z" fill="#7370C8" stroke="black" stroke-linecap="round" stroke-linejoin="round"/>
</g>
<defs>
<filter id="filter0_d_31866_3252" x="1.25797" y="172.345" width="443.603" height="150.554" filterUnits="userSpaceOnUse" color-interpolation-filters="sRGB">
<feFlood flood-opacity="0" result="BackgroundImageFix"/>
<feColorMatrix in="SourceAlpha" type="matrix" values="0 0 0 0 0 0 0 0 0 0 0 0 0 0 0 0 0 0 127 0" result="hardAlpha"/>
<feOffset dy="4"/>
<feComposite in2="hardAlpha" operator="out"/>
<feColorMatrix type="matrix" values="0 0 0 0 0.116424 0 0 0 0 0.125523 0 0 0 0 0.365104 0 0 0 1 0"/>
<feBlend mode="normal" in2="BackgroundImageFix" result="effect1_dropShadow_31866_3252"/>
<feBlend mode="normal" in="SourceGraphic" in2="effect1_dropShadow_31866_3252" result="shape"/>
</filter>
<clipPath id="clip0_31866_3252">
<rect width="446" height="324" fill="white"/>
</clipPath>
</defs>
</svg>
