<svg width="380" height="294" viewBox="0 0 380 294" fill="none" xmlns="http://www.w3.org/2000/svg">
<g clip-path="url(#clip0_35566_557)">
<path d="M260.051 1.19067C268.614 0.387227 276.303 6.55709 277.329 15.1467L277.373 15.5549C278.164 23.9824 272.201 31.5637 263.824 32.7805L263.417 32.8342C261.554 33.0569 259.725 32.9466 257.99 32.551L257.151 34.136C278.739 47.1118 295.224 64.1647 304.491 81.7551C313.781 99.3889 315.887 117.73 308.301 132.962L307.932 133.685C306.057 137.278 303.717 140.53 300.971 143.435C287.573 158.99 261.983 170.164 234.263 172.263C235.039 172.899 235.731 173.564 236.326 174.257L373.722 218.383L373.993 218.481C375.32 219.012 376.184 220.161 376.706 221.339C377.271 222.614 377.533 224.123 377.54 225.579C377.548 227.036 377.301 228.548 376.75 229.83C376.242 231.015 375.392 232.175 374.076 232.726L373.807 232.827L209.402 288.597C197.305 292.701 184.24 292.931 172.021 289.276L170.841 288.91L6.07632 235.994C4.59522 235.519 3.64855 234.295 3.09195 233.038C2.5273 231.763 2.26525 230.253 2.25797 228.797C2.25072 227.341 2.49757 225.828 3.048 224.546C3.59038 223.283 4.52117 222.047 5.99136 221.548L147.783 173.449C151.171 170.054 157.029 167.281 164.271 165.319V154.682C127.922 129.171 116.988 81.2754 125.963 50.3372C126.786 46.9946 127.995 43.7567 129.611 40.6584L130.013 39.9055C138.601 24.2064 156.134 15.3353 177.319 13.4319C198.86 11.4965 224.394 16.7243 248.863 29.4895L250.022 30.0999C250.045 30.1125 250.069 30.1253 250.093 30.1379L251.047 29.0061C248.193 26.5088 246.215 22.9859 245.73 18.9221L245.686 18.5139C244.881 9.95023 251.052 2.26104 259.642 1.23462L260.051 1.19067Z" fill="black" stroke="#78FEFF" stroke-width="3"/>
<g filter="url(#filter0_d_35566_557)">
<path d="M6.53486 230.566C2.86391 229.387 2.82175 224.208 6.47302 222.969L170.877 167.2C183.061 163.068 196.25 162.96 208.498 166.894L373.263 219.811C376.934 220.989 376.977 226.168 373.325 227.407L208.921 283.176C196.738 287.308 183.549 287.416 171.3 283.482L6.53486 230.566Z" fill="#463882"/>
<path d="M6.53486 230.566C2.86391 229.387 2.82175 224.208 6.47302 222.969L170.877 167.2C183.061 163.068 196.25 162.96 208.498 166.894L373.263 219.811C376.934 220.989 376.977 226.168 373.325 227.407L208.921 283.176C196.738 287.308 183.549 287.416 171.3 283.482L6.53486 230.566Z" stroke="black"/>
</g>
<path d="M107.883 212.177V223.757C107.883 227.836 110.13 231.786 114.335 235.439C118.538 239.092 124.65 242.404 132.245 245.195C147.432 250.777 168.445 254.238 191.68 254.238C214.915 254.238 235.929 250.777 251.116 245.195C258.711 242.404 264.824 239.092 269.027 235.439C273.232 231.786 275.479 227.836 275.479 223.757V212.177H107.883Z" fill="#7370C8" stroke="black"/>
<path d="M191.68 182.253C168.445 182.253 147.431 185.719 132.245 191.307C124.65 194.102 118.538 197.418 114.335 201.075C110.13 204.733 107.883 208.687 107.883 212.771C107.883 216.856 110.13 220.811 114.335 224.469C118.538 228.125 124.65 231.441 132.245 234.236C147.431 239.824 168.445 243.291 191.68 243.291C214.916 243.291 235.929 239.824 251.116 234.236C258.711 231.441 264.823 228.125 269.026 224.469C273.231 220.811 275.479 216.856 275.479 212.771C275.479 208.687 273.231 204.733 269.026 201.075C264.823 197.418 258.711 194.102 251.116 191.307C235.929 185.719 214.916 182.253 191.68 182.253Z" fill="#BAAFFC" stroke="black"/>
<ellipse cx="76.2701" cy="28.0995" rx="76.2701" ry="28.0995" transform="matrix(-1 0 0 1 267.951 178.103)" fill="#DEDDF6" stroke="black"/>
<path d="M209.562 218.61L222.335 231.748L216.131 232.478L207.738 222.99C124.242 225.033 121.249 200.729 129.643 190.511L133.657 188.321C111.761 214.231 176.719 222.496 209.562 218.61Z" fill="#78FEFF" stroke="black" stroke-linejoin="round"/>
<path d="M246.785 206.933C261.382 199.05 252.867 190.511 246.785 187.227C264.01 194.817 257.125 204.986 251.529 209.122L251.164 223.354L245.69 225.544L246.785 206.933Z" fill="#78FEFF" stroke="black" stroke-linejoin="round"/>
<path d="M191.681 178.603C175.695 178.603 161.242 180.642 150.802 183.925C145.579 185.567 141.389 187.512 138.515 189.648C135.632 191.792 134.158 194.062 134.157 196.349C134.157 198.637 135.632 200.907 138.515 203.051C141.389 205.187 145.579 207.133 150.802 208.775C161.242 212.058 175.695 214.096 191.681 214.096C207.667 214.096 222.12 212.058 232.56 208.775C237.782 207.133 241.972 205.187 244.846 203.051C247.729 200.907 249.204 198.637 249.204 196.349C249.204 194.062 247.729 191.792 244.846 189.648C241.972 187.512 237.782 185.567 232.56 183.925C222.12 180.642 207.667 178.603 191.681 178.603Z" fill="#BAAFFC" stroke="black"/>
<path d="M146.564 180.063V190.511C146.565 192.631 147.73 194.712 149.977 196.667C152.223 198.622 155.502 200.405 159.598 201.912C167.784 204.924 179.127 206.797 191.681 206.797C204.234 206.797 215.577 204.924 223.764 201.912C227.859 200.405 231.138 198.622 233.384 196.667C235.631 194.712 236.797 192.631 236.797 190.511V180.063H146.564Z" fill="#7370C8" stroke="black"/>
<path d="M191.681 164.006C179.127 164.006 167.784 165.879 159.598 168.892C155.502 170.399 152.223 172.182 149.977 174.136C147.73 176.091 146.564 178.174 146.564 180.293C146.565 182.413 147.73 184.494 149.977 186.449C152.223 188.404 155.502 190.187 159.598 191.694C167.784 194.706 179.127 196.579 191.681 196.579C204.234 196.579 215.577 194.706 223.764 191.694C227.859 190.187 231.138 188.404 233.384 186.449C235.631 184.494 236.797 182.413 236.797 180.293C236.797 178.174 235.631 176.091 233.384 174.136C231.138 172.182 227.859 170.399 223.764 168.892C215.577 165.879 204.234 164.006 191.681 164.006Z" fill="#BAAFFC" stroke="black"/>
<path d="M191.681 167.656C182.754 167.656 174.694 168.957 168.884 171.046C165.977 172.091 163.659 173.324 162.078 174.668C160.495 176.014 159.702 177.424 159.702 178.833C159.702 180.243 160.495 181.652 162.078 182.997C163.659 184.341 165.977 185.575 168.884 186.62C174.694 188.709 182.754 190.011 191.681 190.011C200.607 190.011 208.667 188.709 214.478 186.62C217.385 185.575 219.702 184.341 221.283 182.997C222.866 181.652 223.659 180.243 223.659 178.833C223.659 177.424 222.867 176.014 221.283 174.668C219.702 173.324 217.385 172.091 214.478 171.046C208.667 168.957 200.607 167.656 191.681 167.656Z" fill="#31324F" stroke="black"/>
<path d="M216.861 129.203H207.373H191.316H175.259H165.771V180.293C165.771 180.293 167.435 183.289 175.259 185.234C179.021 186.169 184.206 186.862 191.316 186.862C198.425 186.862 203.611 186.169 207.373 185.234C215.197 183.289 216.861 180.293 216.861 180.293V129.203Z" fill="#364588"/>
<path d="M191.316 186.862V129.203M191.316 186.862C184.206 186.862 179.021 186.169 175.259 185.234M191.316 186.862C198.425 186.862 203.611 186.169 207.373 185.234M191.316 129.203H175.259M191.316 129.203H207.373M175.259 185.234C167.435 183.289 165.771 180.293 165.771 180.293V129.203H175.259M175.259 185.234V129.203M207.373 185.234C215.197 183.289 216.861 180.293 216.861 180.293V129.203H207.373M207.373 185.234V129.203" stroke="black"/>
<path d="M145.777 238.055C150.5 239.576 157.772 240.778 164.962 241.606C172.292 242.45 179.484 242.901 183.705 242.923L189.059 231.879C172.501 231.815 158.309 229.755 152.837 228.305L145.777 238.055Z" fill="#BAAFFC" stroke="black"/>
<path d="M184.017 243.426L177.448 260.942C160.224 260.942 148.741 258.023 143.51 256.563L144.97 238.317C154.458 241.601 175.624 243.426 184.017 243.426Z" fill="#7370C8" stroke="black" stroke-linecap="round"/>
<path d="M177.448 266.781V260.942C160.224 260.942 148.741 258.023 143.51 256.563V262.767C152.998 266.051 169.055 266.781 177.448 266.781Z" fill="#7370C8" stroke="black" stroke-linecap="round"/>
<path d="M177.448 266.781V260.942L184.017 243.425L189.856 231.383V233.937L186.937 243.061V254.008L177.448 266.781Z" fill="#7370C8" stroke="black" stroke-linecap="round"/>
<path d="M116.14 203.648L116.87 200.729H110.667L94.2447 209.852V218.975H107.747V210.947C107.747 210.947 108.842 206.568 110.667 204.743C112.491 202.919 116.14 203.648 116.14 203.648Z" fill="#7370C8" stroke="black" stroke-linecap="round"/>
<path d="M112.644 198.302L100.729 205.522L99.9863 206.09L110.424 200.292L110.537 200.229H116.626L118.359 198L112.644 198.302Z" fill="#BAAFFC" stroke="black"/>
<path d="M269.411 225.179L254.084 220.435V222.26L265.761 226.639V238.317L289.847 243.79V238.317L269.411 229.923V225.179Z" fill="#7370C8" stroke="black" stroke-linecap="round" stroke-linejoin="round"/>
<path d="M269.411 225.179L254.084 220.435L266.491 209.487L277.439 211.677V215.691L294.956 225.179L289.847 238.317L269.411 229.923V225.179Z" fill="#BAAFFC" stroke="black" stroke-linejoin="round"/>
<path d="M289.847 238.317L294.956 225.179L294.591 231.018L289.847 243.791V238.317Z" fill="#7370C8" stroke="black" stroke-linecap="round" stroke-linejoin="round"/>
<path d="M269.41 224.814C269.41 224.814 274.155 219.705 277.439 211.677V215.691C274.884 222.625 269.41 229.923 269.41 229.923V224.814Z" fill="#7370C8" stroke="black" stroke-linecap="round" stroke-linejoin="round"/>
<path d="M216.867 82.269C192.621 69.6207 171.21 59.3146 155.86 52.1713C148.186 48.5997 142.026 45.8188 137.786 43.9309C135.666 42.987 134.025 42.2665 132.915 41.782C132.362 41.5403 131.941 41.3562 131.657 41.2336C123.806 56.6493 122.655 79.6941 129.443 102.078C136.287 124.647 151.18 146.47 175.293 159.049C199.421 171.636 227.842 173.102 252.264 167.534C276.499 162.009 296.671 149.589 304.831 134.391C304.804 134.373 304.774 134.354 304.744 134.334C304.441 134.13 303.99 133.827 303.398 133.432C302.214 132.643 300.468 131.486 298.221 130.019C293.727 127.085 287.23 122.909 279.218 117.942C263.192 108.008 241.106 94.9142 216.867 82.269Z" fill="#4D4F79" stroke="black"/>
<path d="M247.938 31.2629C223.757 18.6478 198.604 13.5276 177.499 15.4238C156.387 17.3207 139.397 26.225 131.385 41.5839C123.372 56.9427 125.79 75.9715 136.313 94.3716C146.833 112.766 165.424 130.466 189.605 143.081C213.787 155.696 238.94 160.816 260.045 158.92C281.157 157.023 298.146 148.119 306.159 132.76C314.171 117.401 311.754 98.3724 301.23 79.9722C290.711 61.5777 272.12 43.878 247.938 31.2629Z" fill="#BAAFFC" stroke="black"/>
<path d="M242.985 42.3498C221.343 31.0595 198.957 26.2412 180.274 27.5556C161.582 28.8707 146.681 36.3111 139.831 49.4426C132.98 62.5741 135.403 79.0519 145.02 95.1351C154.631 111.21 171.39 126.813 193.032 138.103C214.675 149.394 237.061 154.212 255.744 152.898C274.436 151.583 289.337 144.142 296.188 131.011C303.038 117.879 300.615 101.402 290.999 85.3184C281.388 69.2433 264.628 53.6402 242.985 42.3498Z" fill="#7370C8" stroke="black"/>
<path d="M214.191 88.1276C206.586 84.1604 198.734 82.475 192.2 82.9346C185.656 83.395 180.519 85.993 178.169 90.4972C175.82 95.0014 176.628 100.701 179.994 106.331C183.356 111.953 189.231 117.429 196.835 121.396C204.44 125.363 212.292 127.049 218.827 126.589C225.37 126.129 230.507 123.531 232.857 119.026C235.206 114.522 234.398 108.823 231.032 103.193C227.67 97.5705 221.795 92.0948 214.191 88.1276Z" fill="#4D4F79" stroke="black"/>
<path d="M214.45 88.2984C207.104 84.4664 199.572 82.7394 193.348 83.0229C187.108 83.3072 182.287 85.598 180.158 89.6792C178.029 93.7604 178.909 99.0252 182.245 104.305C185.574 109.572 191.3 114.762 198.645 118.594C205.991 122.426 213.523 124.153 219.748 123.869C225.987 123.585 230.808 121.294 232.937 117.213C235.066 113.132 234.187 107.867 230.85 102.587C227.521 97.3196 221.795 92.1305 214.45 88.2984Z" fill="#BAAFFC" stroke="black"/>
<path d="M212.293 92.4345C206.596 89.4629 200.798 88.0537 196.044 88.1566C191.269 88.2601 187.673 89.8761 186.146 92.8026C184.619 95.7292 185.351 99.6042 187.998 103.58C190.634 107.538 195.107 111.487 200.803 114.459C206.499 117.43 212.297 118.839 217.051 118.736C221.826 118.633 225.423 117.016 226.95 114.089C228.476 111.163 227.744 107.288 225.097 103.313C222.461 99.3547 217.989 95.406 212.293 92.4345Z" fill="#7370C8" stroke="black"/>
<path d="M216.343 107.909L258.789 27.8446L255.721 25.7919L197.095 95.2909C196.421 97.5218 196.646 103.005 202.94 107.092C209.234 111.178 214.498 109.339 216.343 107.909Z" fill="#D7D7F6" stroke="black"/>
<circle cx="14.4124" cy="14.4124" r="14.4124" transform="matrix(-0.992939 0.118629 0.118629 0.992939 274.13 1.01367)" fill="#D7D7F6" stroke="black"/>
</g>
<defs>
<filter id="filter0_d_35566_557" x="3.25797" y="163.52" width="373.282" height="127.336" filterUnits="userSpaceOnUse" color-interpolation-filters="sRGB">
<feFlood flood-opacity="0" result="BackgroundImageFix"/>
<feColorMatrix in="SourceAlpha" type="matrix" values="0 0 0 0 0 0 0 0 0 0 0 0 0 0 0 0 0 0 127 0" result="hardAlpha"/>
<feOffset dy="4"/>
<feComposite in2="hardAlpha" operator="out"/>
<feColorMatrix type="matrix" values="0 0 0 0 0.116424 0 0 0 0 0.125523 0 0 0 0 0.365104 0 0 0 1 0"/>
<feBlend mode="normal" in2="BackgroundImageFix" result="effect1_dropShadow_35566_557"/>
<feBlend mode="normal" in="SourceGraphic" in2="effect1_dropShadow_35566_557" result="shape"/>
</filter>
<clipPath id="clip0_35566_557">
<rect width="380" height="294" fill="white"/>
</clipPath>
</defs>
</svg>
