<svg width="20" height="20" viewBox="0 0 20 20" fill="none" xmlns="http://www.w3.org/2000/svg">
  <circle cx="10" cy="10" r="9" fill="#FFC95C" stroke="black"/>
  <path fill-rule="evenodd" clip-rule="evenodd" d="M13.1837 11.9096V11.1875C13.6281 11.035 13.9518 10.5616 13.9518 10.0013C13.9518 9.44105 13.6281 8.96633 13.1837 8.81523V8.09313C13.6023 7.95005 13.9144 7.52079 13.9489 7.00195H13.4397V7.22259C13.4397 7.39242 13.3362 7.54219 13.1837 7.61708V7.51411C13.1837 7.363 13.0514 7.23998 12.8888 7.23998H12.8629C12.7004 7.23998 12.5681 7.363 12.5681 7.51411V7.61708C12.4156 7.54219 12.312 7.39376 12.312 7.22259V7.00195H11.8029C11.8374 7.52079 12.1495 7.95005 12.5681 8.09313V8.81523C12.125 8.96633 11.8 9.43971 11.8 10.0013C11.8 10.563 12.1236 11.0363 12.5681 11.1875V11.9096C12.1495 12.0526 11.8374 12.4819 11.8029 13.0007H12.312V12.7801C12.312 12.6103 12.4156 12.4605 12.5681 12.3856V12.4886C12.5681 12.6397 12.7004 12.7627 12.8629 12.7627H12.8888C13.0514 12.7627 13.1837 12.6397 13.1837 12.4886V12.3856C13.3362 12.4605 13.4397 12.6089 13.4397 12.7801V13.0007H13.9489C13.9144 12.4819 13.6023 12.0526 13.1837 11.9096ZM12.312 10.3169V9.68442C12.312 9.51459 12.4156 9.36482 12.5681 9.28994V9.3929C12.5681 9.54401 12.7004 9.66703 12.8629 9.66703H12.8888C13.0514 9.66703 13.1837 9.54401 13.1837 9.3929V9.28994C13.3362 9.36482 13.4397 9.51325 13.4397 9.68442V10.3169C13.4397 10.4868 13.3362 10.6365 13.1837 10.7114V10.6084C13.1837 10.4573 13.0514 10.3343 12.8888 10.3343H12.8629C12.7004 10.3343 12.5681 10.4573 12.5681 10.6084V10.7114C12.417 10.6365 12.312 10.4881 12.312 10.3169ZM16.3086 10.3851V9.61622C16.753 9.46378 17.0767 8.9904 17.0767 8.43011C17.0767 7.86981 16.753 7.3951 16.3086 7.24399V7.00195H15.6944V7.24399C15.2499 7.39643 14.9263 7.86981 14.9263 8.43011C14.9263 8.9904 15.2499 9.46511 15.6944 9.61622V10.3851C15.2499 10.5376 14.9263 11.0109 14.9263 11.5712C14.9263 12.1315 15.2499 12.6062 15.6944 12.7574V12.9994H16.3086V12.7574C16.753 12.6049 17.0767 12.1315 17.0767 11.5712C17.0767 11.0109 16.753 10.5376 16.3086 10.3851ZM15.4369 8.74569V8.11318C15.4369 7.94336 15.5405 7.79359 15.6929 7.7187V7.82167C15.6929 7.97278 15.8253 8.0958 15.9878 8.0958H16.0123C16.1748 8.0958 16.3071 7.97278 16.3071 7.82167V7.7187C16.4596 7.79359 16.5632 7.94202 16.5632 8.11318V8.74569C16.5632 8.91552 16.4596 9.06529 16.3071 9.14017V9.0372C16.3071 8.8861 16.1748 8.76307 16.0123 8.76307H15.9864C15.8239 8.76307 15.6915 8.8861 15.6915 9.0372V9.14017C15.5419 9.06529 15.4369 8.91685 15.4369 8.74569ZM16.5646 11.8882C16.5646 12.058 16.4611 12.2078 16.3086 12.2826V12.1315C16.3086 11.9804 16.1763 11.8574 16.0137 11.8574H15.9893C15.8267 11.8574 15.6944 11.9804 15.6944 12.1315V12.2826C15.5419 12.2078 15.4383 12.0593 15.4383 11.8882V11.2557C15.4383 11.0858 15.5419 10.9361 15.6944 10.8612V10.916C15.6944 11.0671 15.8267 11.1901 15.9893 11.1901H16.0152C16.1777 11.1901 16.31 11.0671 16.31 10.916V10.8612C16.4625 10.9361 16.566 11.0845 16.566 11.2557V11.8882H16.5646ZM9.63988 9.30131C9.65139 9.32939 9.65859 9.35881 9.66434 9.38957C9.7024 9.60191 9.82997 9.75555 9.96887 9.92284C10.1764 10.1727 10.4091 10.453 10.4065 11.0049C10.4065 11.945 9.72616 12.6858 8.33669 12.6858H7.76709C7.76565 12.6898 7.53119 12.9987 7.04933 12.9987C6.80768 13.0067 6.70268 12.996 6.70268 12.996C6.26557 12.9793 6.04529 12.7091 6.02648 12.686C6.02573 12.6851 6.0253 12.6846 6.02519 12.6845H5.45559C4.0661 12.6845 3.38574 11.9437 3.38574 11.0036C3.38574 10.4515 3.61907 10.1713 3.82682 9.92186C3.96624 9.75445 4.09414 9.60089 4.13227 9.38823C4.13802 9.35881 4.14665 9.32939 4.15672 9.29997C4.1524 9.29462 3.19875 8.05635 4.08193 7.29146C4.95706 6.53353 5.97768 7.50614 6.00177 7.5291C6.00199 7.52931 6.00213 7.52944 6.00218 7.52949C6.16472 7.48269 6.3287 7.45327 6.49123 7.4399C6.49123 7.4399 6.96302 7.38774 7.29961 7.4399H7.30105C7.46503 7.45327 7.63044 7.48269 7.79442 7.53083C7.79447 7.53078 7.7946 7.53065 7.79482 7.53045C7.81864 7.50774 8.83943 6.53476 9.7147 7.2928C10.5806 8.04156 9.68367 9.24266 9.6414 9.29926C9.64049 9.30048 9.63997 9.30117 9.63988 9.30131Z" fill="black"/>
</svg>
