<svg width="136" height="124" viewBox="0 0 136 124" fill="none" xmlns="http://www.w3.org/2000/svg">
<g clip-path="url(#clip0_31185_628)">
<path d="M69.293 61.3877L60.3413 66.3313L69.293 70.9687L79.6109 65.8097L69.293 61.3877Z" fill="#BC9549" stroke="black" stroke-linejoin="round"/>
<path d="M75.5575 126.642L69.293 130.327V52.159L79.6109 47L75.5575 126.642Z" fill="#76500D" stroke="black" stroke-linejoin="round"/>
<path d="M61.4676 128.377L69.293 130.327V52.1589L60.3413 47.5215L61.4676 128.377Z" fill="#7A4A12" stroke="black" stroke-linejoin="round"/>
<path d="M128.398 6.20871C128.289 5.07419 122.902 2.31491 119.923 0.995218C119.31 0.723602 118.633 1.1493 118.583 1.81812L114.682 53.9911C114.673 54.1155 114.687 54.2406 114.724 54.3598L122.781 80.5341C122.966 81.1351 123.653 81.4182 124.208 81.1221L132.06 76.9299C132.416 76.7398 132.623 76.3542 132.585 75.9523L131.635 66.0456C131.625 65.9386 131.597 65.834 131.554 65.7357L130.752 63.9272C130.656 63.7105 130.8 63.4633 131.036 63.4406C131.227 63.4223 131.367 63.2527 131.349 63.0617L130.393 53.088C130.367 52.824 130.238 52.5808 130.034 52.412L128.58 51.2128C128.093 50.8112 128.096 50.0646 128.585 49.6661L129.603 48.8371C129.828 48.6535 129.962 48.381 129.971 48.0905L130.522 28.92C130.53 28.6502 130.429 28.3886 130.241 28.1949L127.46 25.3292C127.105 24.9635 127.082 24.3895 127.406 23.9965L129.559 21.3877C129.728 21.1831 129.808 20.9203 129.783 20.6563L128.398 6.20871Z" fill="#7A4A12" stroke="black" stroke-linecap="round" stroke-linejoin="round"/>
<path d="M10.7941 4.21261L120.211 1.09187C120.774 1.07581 121.239 1.52763 121.24 2.09084L121.25 18.5569L117.384 24.0531C117.083 24.4804 117.162 25.0672 117.565 25.3998L120.136 27.5208C120.349 27.6964 120.48 27.9521 120.498 28.2274L122.05 52.1493C122.07 52.4558 121.948 52.7545 121.719 52.9593L119.806 54.6718C119.355 55.0753 119.363 55.7837 119.823 56.177L122.458 58.4306L123.892 80.5214C123.93 81.108 123.456 81.6007 122.869 81.5859L8.05808 78.6852C7.50024 78.6711 7.06186 78.2031 7.08414 77.6455L7.82735 59.0521C7.83912 58.7577 7.98007 58.4835 8.2126 58.3027L11.511 55.7372L8.34798 51.3407C8.21761 51.1595 8.15162 50.9398 8.16053 50.7167L9.23648 23.7991C9.24521 23.5807 9.32524 23.3712 9.46432 23.2026L11.4891 20.7485L8.99226 18.0089C8.80344 17.8017 8.71025 17.5248 8.73538 17.2457L9.82661 5.12255C9.87203 4.61795 10.2876 4.22705 10.7941 4.21261Z" fill="#BC9549"/>
<path d="M11.4891 20.7485L8.99226 18.0089C8.80344 17.8017 8.71025 17.5248 8.73538 17.2457L9.82661 5.12255C9.87203 4.61795 10.2876 4.22705 10.7941 4.21261L120.211 1.09187C120.774 1.07581 121.239 1.52763 121.24 2.09084L121.25 18.5569M11.4891 20.7485L9.46433 23.2026C9.32524 23.3712 9.24521 23.5807 9.23648 23.7991L8.16053 50.7167C8.15162 50.9398 8.21761 51.1595 8.34799 51.3407L11.511 55.7372M11.4891 20.7485C12.3938 21.4949 15.5239 22.861 20.8073 22.3545M121.25 18.5569L117.384 24.053C117.083 24.4804 117.162 25.0672 117.565 25.3998L120.136 27.5208C120.349 27.6964 120.48 27.9521 120.498 28.2274L122.05 52.1493C122.07 52.4558 121.948 52.7545 121.719 52.9593L119.806 54.6718C119.355 55.0753 119.363 55.7837 119.823 56.177L122.458 58.4306M121.25 18.5569C115.366 18.0102 100.311 17.3985 93.7703 18.692M11.511 55.7372L8.2126 58.3027C7.98007 58.4835 7.83912 58.7577 7.82735 59.0521L7.08414 77.6455C7.06185 78.2031 7.50023 78.6711 8.05809 78.6852L122.869 81.5859C123.456 81.6007 123.93 81.108 123.892 80.5214L122.458 58.4306M11.511 55.7372L25.7032 56.0428M122.458 58.4306C117.373 60.0289 106.677 62.9427 104.569 61.8118M57.1646 10.5378C46.8248 9.86283 24.8244 8.63954 19.541 9.14605" stroke="black" stroke-linecap="round" stroke-linejoin="round"/>
</g>
<defs>
<clipPath id="clip0_31185_628">
<rect width="136" height="124" fill="white"/>
</clipPath>
</defs>
</svg>
