<svg width="492" height="370" viewBox="0 0 492 370" fill="none" xmlns="http://www.w3.org/2000/svg">
  <path d="M460.871 -21.8565C464.71 -58.0834 624.794 -156.7 504.917 50.4746C472.155 107.095 306.006 220.774 156.251 276.554C204.319 256.969 237.062 235.226 237.062 235.226C157.551 278.745 75.4505 292.026 40.6758 298.979C68.3631 289.51 133.016 263.449 187.198 205.582C220.346 170.18 232.393 146.059 275.341 144.451C271.125 129.901 264.038 83.6548 297.091 58.7624C330.144 33.8699 371.836 29.5591 388.55 30.5152C384.457 21.7675 382.167 0.115168 405.751 -16.5129C429.334 -33.141 452.324 -27.0036 460.871 -21.8565Z" fill="url(#paint0_linear_22057_76)"/>
  <path d="M245.595 47.246C229.761 119.646 84.6201 232.725 43.6939 255.434C56.6323 245.826 81.8211 228.952 108.563 194.44C125.263 172.888 144.567 147.079 144.108 125.658C139.457 118.731 136.012 100.713 149.18 82.1131C156.206 72.1899 172.271 58.5799 181.2 56.2799C177.586 52.3767 172.755 41.4011 182.341 28.7244C191.926 16.0477 205.016 15.4141 210.363 16.6818C206.305 -2.96741 273.76 -81.5375 245.595 47.246Z" fill="url(#paint1_linear_22057_76)"/>
  <path d="M736.359 321.139C438.209 403.635 110.25 361.638 0.311646 334.986C39.0454 339.094 131.711 343.919 229.585 304.482C289.462 280.355 317.54 258.003 370.283 280.162C373.36 260.236 401.227 214.12 450.629 189.767C511.877 159.575 548.529 180.044 570.871 206.177C570.839 193.322 588.366 151.232 626.164 144.397C663.962 137.562 680.128 172.542 687.556 183.55C728.326 88.9773 1043.42 236.177 736.359 321.139Z" fill="url(#paint2_linear_22057_76)"/>
  <defs>
    <linearGradient id="paint0_linear_22057_76" x1="12.2485" y1="206.936" x2="555.572" y2="39.1309" gradientUnits="userSpaceOnUse">
      <stop stop-color="#2C353C"/>
      <stop offset="1" stop-color="#2C353C" stop-opacity="0"/>
    </linearGradient>
    <linearGradient id="paint1_linear_22057_76" x1="11.5883" y1="209.381" x2="268.505" y2="30.2743" gradientUnits="userSpaceOnUse">
      <stop stop-color="#2C353C"/>
      <stop offset="1" stop-color="#2C353C" stop-opacity="0"/>
    </linearGradient>
    <linearGradient id="paint2_linear_22057_76" x1="18.2482" y1="203.558" x2="823.444" y2="313.445" gradientUnits="userSpaceOnUse">
      <stop stop-color="#2C353C"/>
      <stop offset="1" stop-color="#2C353C" stop-opacity="0"/>
    </linearGradient>
  </defs>
</svg>
