<svg width="493" height="370" viewBox="0 0 493 370" fill="none" xmlns="http://www.w3.org/2000/svg">
  <path d="M461.247 -21.8565C465.086 -58.0834 625.17 -156.7 505.293 50.4746C472.531 107.095 306.382 220.774 156.627 276.554C204.695 256.969 237.437 235.226 237.437 235.226C157.927 278.745 75.8265 292.026 41.0518 298.979C68.7391 289.51 133.392 263.449 187.574 205.582C220.722 170.18 232.769 146.059 275.717 144.451C271.501 129.901 264.414 83.6548 297.467 58.7624C330.52 33.8699 372.212 29.5591 388.926 30.5152C384.833 21.7675 382.543 0.115168 406.126 -16.5129C429.71 -33.141 452.7 -27.0036 461.247 -21.8565Z" fill="url(#paint0_linear_22057_76)"/>
  <path d="M245.971 47.246C230.137 119.646 84.9966 232.725 44.0703 255.434C57.0088 245.826 82.1976 228.952 108.94 194.44C125.64 172.888 144.944 147.079 144.484 125.658C139.834 118.731 136.388 100.713 149.557 82.1131C156.582 72.1899 172.647 58.5799 181.576 56.2799C177.963 52.3767 173.132 41.4011 182.717 28.7244C192.303 16.0477 205.393 15.4141 210.739 16.6818C206.681 -2.96741 274.136 -81.5375 245.971 47.246Z" fill="url(#paint1_linear_22057_76)"/>
  <path d="M736.735 321.139C438.585 403.635 110.626 361.638 0.688111 334.986C39.4219 339.094 132.087 343.919 229.962 304.482C289.838 280.355 317.916 258.003 370.66 280.162C373.736 260.236 401.603 214.12 451.005 189.767C512.253 159.575 548.905 180.044 571.248 206.177C571.216 193.322 588.742 151.232 626.54 144.397C664.338 137.562 680.504 172.542 687.932 183.55C728.702 88.9773 1043.8 236.177 736.735 321.139Z" fill="url(#paint2_linear_22057_76)"/>
  <defs>
    <linearGradient id="paint0_linear_22057_76" x1="11.6428" y1="203.758" x2="594.957" y2="23.6014" gradientUnits="userSpaceOnUse">
      <stop stop-color="white"/>
      <stop offset="1" stop-color="white" stop-opacity="0"/>
    </linearGradient>
    <linearGradient id="paint1_linear_22057_76" x1="12.6806" y1="210.408" x2="288.507" y2="18.1181" gradientUnits="userSpaceOnUse">
      <stop stop-color="white"/>
      <stop offset="1" stop-color="white" stop-opacity="0"/>
    </linearGradient>
    <linearGradient id="paint2_linear_22057_76" x1="18.6246" y1="203.558" x2="823.82" y2="313.445" gradientUnits="userSpaceOnUse">
      <stop stop-color="white"/>
      <stop offset="1" stop-color="white" stop-opacity="0"/>
    </linearGradient>
  </defs>
</svg>
