<svg width="472" height="371" viewBox="0 0 472 371" fill="none" xmlns="http://www.w3.org/2000/svg">
  <path d="M240.371 41.2761C257.233 118.325 411.713 238.645 455.272 262.807C441.501 252.583 414.691 234.63 386.226 197.904C368.45 174.97 347.903 147.507 348.388 124.709C353.336 117.337 357 98.1608 342.984 78.3683C335.505 67.8088 318.406 53.327 308.903 50.8806C312.748 46.7261 317.888 35.0448 307.685 21.5553C297.482 8.06583 283.551 7.39344 277.861 8.74343C282.177 -12.1686 210.377 -95.7753 240.371 41.2761Z" fill="url(#paint0_linear_22057_76)"/>
  <path d="M50.3992 6.04293C48.494 -22.6274 -74.6238 -105.3 13.4485 61.6873C37.5183 107.324 192.471 228.182 308.773 276.775C271.494 259.854 218.841 215.579 218.841 215.579C280.16 252.336 419.519 306.014 446.711 312.569C425.183 304.25 299.97 241.04 259.056 193.757C234.027 164.831 225.278 145.448 191.479 142.852C195.251 131.515 202.267 95.2867 176.987 74.646C151.706 54.0053 118.98 49.3185 105.778 49.5552C109.274 42.7874 111.749 25.7933 93.6761 11.9589C75.6032 -1.87553 57.2945 2.25057 50.3992 6.04293Z" fill="url(#paint1_linear_22057_76)"/>
  <path d="M-121.908 299.634C197.739 413.168 381.156 358.711 471.135 344.34C439.771 345.162 365.057 343.111 288.991 305.186C242.456 281.985 221.34 262.241 177.573 276.661C176.377 260.464 121.526 304.667 83.4156 281.954C36.167 253.795 40.8525 184.872 21.2417 204.427C22.0893 194.108 10.7082 159.191 -19.2047 151.286C-49.1177 143.38 -64.3349 170.433 -71.0033 178.798C-97.6919 100.253 -363.737 213.74 -121.908 299.634Z" fill="url(#paint2_linear_22057_76)"/>
  <defs>
    <linearGradient id="paint0_linear_22057_76" x1="489.433" y1="213.79" x2="215.986" y2="23.2177" gradientUnits="userSpaceOnUse">
      <stop stop-color="#2C353C"/>
      <stop offset="1" stop-color="#2C353C" stop-opacity="0"/>
    </linearGradient>
    <linearGradient id="paint1_linear_22057_76" x1="473.729" y1="235.891" x2="-25.5649" y2="59.9614" gradientUnits="userSpaceOnUse">
      <stop stop-color="#2C353C"/>
      <stop offset="1" stop-color="#2C353C" stop-opacity="0"/>
    </linearGradient>
    <linearGradient id="paint2_linear_22057_76" x1="465.532" y1="244.676" x2="-191.124" y2="281.594" gradientUnits="userSpaceOnUse">
      <stop stop-color="#2C353C"/>
      <stop offset="1" stop-color="#2C353C" stop-opacity="0"/>
    </linearGradient>
  </defs>
</svg>
