<svg width="914" height="252" viewBox="0 0 914 252" fill="none" xmlns="http://www.w3.org/2000/svg">
  <mask id="path-1-inside-1_30811_44" fill="white">
    <path fill-rule="evenodd" clip-rule="evenodd" d="M56.4014 233.257C53.1257 234.009 49.7053 234.424 46.1852 234.46C21.7232 234.703 1.70964 216.507 1.48361 193.818C1.25757 171.129 20.9047 152.538 45.3667 152.294C48.7565 152.26 52.061 152.581 55.2392 153.218C54.2259 150.29 53.6604 147.145 53.6277 143.866C53.4688 127.912 65.9854 114.854 81.5843 114.698C86.2173 114.652 90.601 115.749 94.4791 117.733C95.109 76.8009 127.999 43.6184 168.824 43.2117C199.939 42.9017 226.826 61.7196 238.494 88.8015C243.041 85.4805 248.596 83.5034 254.609 83.4435C270.208 83.2881 282.982 96.095 283.141 112.048C283.18 115.923 282.471 119.626 281.152 123.016C303.014 127.939 319.443 147.367 319.676 170.748C319.948 198.046 298.039 220.396 270.741 220.668C262.795 220.747 255.268 218.947 248.583 215.681C230.428 235.496 189.52 249.577 141.831 250.052C108.251 250.387 77.8975 243.909 56.4014 233.257Z"/>
  </mask>
  <path fill-rule="evenodd" clip-rule="evenodd" d="M56.4014 233.257C53.1257 234.009 49.7053 234.424 46.1852 234.46C21.7232 234.703 1.70964 216.507 1.48361 193.818C1.25757 171.129 20.9047 152.538 45.3667 152.294C48.7565 152.26 52.061 152.581 55.2392 153.218C54.2259 150.29 53.6604 147.145 53.6277 143.866C53.4688 127.912 65.9854 114.854 81.5843 114.698C86.2173 114.652 90.601 115.749 94.4791 117.733C95.109 76.8009 127.999 43.6184 168.824 43.2117C199.939 42.9017 226.826 61.7196 238.494 88.8015C243.041 85.4805 248.596 83.5034 254.609 83.4435C270.208 83.2881 282.982 96.095 283.141 112.048C283.18 115.923 282.471 119.626 281.152 123.016C303.014 127.939 319.443 147.367 319.676 170.748C319.948 198.046 298.039 220.396 270.741 220.668C262.795 220.747 255.268 218.947 248.583 215.681C230.428 235.496 189.52 249.577 141.831 250.052C108.251 250.387 77.8975 243.909 56.4014 233.257Z" fill="#4F5C68"/>
  <path d="M56.4014 233.257L56.8455 232.361L56.5256 232.203L56.1776 232.282L56.4014 233.257ZM55.2392 153.218L55.0425 154.198L56.7556 154.542L56.1842 152.891L55.2392 153.218ZM94.4791 117.733L94.0238 118.623L95.4543 119.355L95.479 117.748L94.4791 117.733ZM238.494 88.8015L237.576 89.1972L238.072 90.3483L239.084 89.6091L238.494 88.8015ZM281.152 123.016L280.22 122.653L279.798 123.736L280.932 123.991L281.152 123.016ZM248.583 215.681L249.022 214.783L248.351 214.455L247.846 215.006L248.583 215.681ZM56.1776 232.282C52.9717 233.019 49.6231 233.425 46.1753 233.46L46.1952 235.459C49.7875 235.424 53.2796 235 56.6253 234.232L56.1776 232.282ZM46.1753 233.46C22.1934 233.699 2.7034 215.876 2.48356 193.808L0.483658 193.828C0.715887 217.139 21.2531 235.708 46.1952 235.459L46.1753 233.46ZM2.48356 193.808C2.26372 171.74 21.3948 153.533 45.3766 153.294L45.3567 151.294C20.4146 151.543 0.251428 170.517 0.483658 193.828L2.48356 193.808ZM45.3766 153.294C48.6969 153.261 51.9321 153.575 55.0425 154.198L55.4358 152.237C52.1898 151.587 48.8162 151.26 45.3567 151.294L45.3766 153.294ZM56.1842 152.891C55.2058 150.064 54.6592 147.025 54.6277 143.856L52.6278 143.876C52.6615 147.264 53.2459 150.516 54.2942 153.545L56.1842 152.891ZM54.6277 143.856C54.474 128.433 66.5687 115.848 81.5943 115.698L81.5744 113.698C65.4021 113.859 52.4635 127.391 52.6278 143.876L54.6277 143.856ZM81.5943 115.698C86.061 115.654 90.2855 116.711 94.0238 118.623L94.9345 116.842C90.9165 114.787 86.3735 113.65 81.5744 113.698L81.5943 115.698ZM95.479 117.748C96.1007 77.3495 128.56 44.6129 168.834 44.2117L168.814 42.2118C127.437 42.624 94.1173 76.2523 93.4792 117.717L95.479 117.748ZM168.834 44.2117C199.528 43.9059 226.059 62.4686 237.576 89.1972L239.412 88.4058C227.592 60.9705 200.35 41.8976 168.814 42.2118L168.834 44.2117ZM239.084 89.6091C243.47 86.4061 248.823 84.5012 254.619 84.4434L254.599 82.4435C248.369 82.5056 242.613 84.5549 237.904 87.9939L239.084 89.6091ZM254.619 84.4434C269.645 84.2938 281.988 96.6359 282.141 112.058L284.141 112.038C283.977 95.5541 270.771 82.2824 254.599 82.4435L254.619 84.4434ZM282.141 112.058C282.178 115.804 281.493 119.381 280.22 122.653L282.084 123.379C283.448 119.872 284.181 116.042 284.141 112.038L282.141 112.058ZM280.932 123.991C302.352 128.815 318.448 147.851 318.676 170.758L320.676 170.738C320.438 146.883 303.676 127.063 281.371 122.04L280.932 123.991ZM318.676 170.758C318.942 197.503 297.477 219.401 270.731 219.668L270.751 221.668C298.601 221.39 320.953 198.588 320.676 170.738L318.676 170.758ZM270.731 219.668C262.944 219.745 255.571 217.981 249.022 214.783L248.144 216.58C254.966 219.912 262.646 221.748 270.751 221.668L270.731 219.668ZM247.846 215.006C238.926 224.741 224.336 233.143 205.97 239.169C187.62 245.19 165.574 248.816 141.821 249.052L141.841 251.052C165.777 250.814 188.029 247.161 206.594 241.069C225.143 234.983 240.085 226.437 249.321 216.357L247.846 215.006ZM141.821 249.052C108.359 249.386 78.1695 242.928 56.8455 232.361L55.9574 234.153C77.6254 244.891 108.142 251.388 141.841 251.052L141.821 249.052Z" fill="#949494" mask="url(#path-1-inside-1_30811_44)"/>
  <mask id="path-3-inside-2_30811_44" fill="white">
    <path fill-rule="evenodd" clip-rule="evenodd" d="M677.261 31.602C672.718 35.3305 665.072 38.334 656.17 39.4468C647.607 40.5172 639.74 39.606 634.418 37.314C633.605 37.6685 632.728 37.9138 631.803 38.0294C626.615 38.6779 621.884 34.998 621.235 29.8101C620.587 24.6221 624.267 19.8908 629.455 19.2423C629.587 19.2258 629.718 19.2121 629.849 19.2011C629.948 12.1046 635.513 5.94397 643.063 5.0002C648.623 4.3052 653.835 6.61732 656.933 10.6217C658.374 9.79482 660.01 9.23155 661.776 9.0108C667.481 8.29759 672.749 11.3842 674.825 16.2248C675.106 16.3469 675.379 16.4728 675.645 16.6026C676.165 16.4185 676.712 16.2873 677.281 16.2161C681.53 15.685 685.405 18.6989 685.936 22.9477C686.467 27.1966 683.453 31.0715 679.205 31.6026C678.544 31.6852 677.893 31.6821 677.261 31.602Z"/>
  </mask>
  <path fill-rule="evenodd" clip-rule="evenodd" d="M677.261 31.602C672.718 35.3305 665.072 38.334 656.17 39.4468C647.607 40.5172 639.74 39.606 634.418 37.314C633.605 37.6685 632.728 37.9138 631.803 38.0294C626.615 38.6779 621.884 34.998 621.235 29.8101C620.587 24.6221 624.267 19.8908 629.455 19.2423C629.587 19.2258 629.718 19.2121 629.849 19.2011C629.948 12.1046 635.513 5.94397 643.063 5.0002C648.623 4.3052 653.835 6.61732 656.933 10.6217C658.374 9.79482 660.01 9.23155 661.776 9.0108C667.481 8.29759 672.749 11.3842 674.825 16.2248C675.106 16.3469 675.379 16.4728 675.645 16.6026C676.165 16.4185 676.712 16.2873 677.281 16.2161C681.53 15.685 685.405 18.6989 685.936 22.9477C686.467 27.1966 683.453 31.0715 679.205 31.6026C678.544 31.6852 677.893 31.6821 677.261 31.602Z" fill="#4F5C68"/>
  <path d="M677.261 31.602L677.387 30.6099L676.96 30.5557L676.627 30.829L677.261 31.602ZM634.418 37.314L634.813 36.3955L634.415 36.2241L634.018 36.3974L634.418 37.314ZM629.849 19.2011L629.932 20.1977L630.837 20.1223L630.849 19.215L629.849 19.2011ZM656.933 10.6217L656.142 11.2335L656.675 11.9226L657.431 11.4891L656.933 10.6217ZM674.825 16.2248L673.906 16.6191L674.063 16.9836L674.426 17.1418L674.825 16.2248ZM675.645 16.6026L675.207 17.5014L675.584 17.6852L675.98 17.5451L675.645 16.6026ZM676.627 30.829C672.274 34.4013 664.827 37.3569 656.046 38.4545L656.294 40.4391C665.317 39.3112 673.162 36.2598 677.896 32.375L676.627 30.829ZM656.046 38.4545C647.603 39.5099 639.927 38.5974 634.813 36.3955L634.022 38.2325C639.554 40.6145 647.612 41.5244 656.294 40.4391L656.046 38.4545ZM634.018 36.3974C633.292 36.714 632.508 36.9336 631.679 37.0371L631.927 39.0217C632.948 38.8941 633.918 38.623 634.817 38.2306L634.018 36.3974ZM631.679 37.0371C627.039 37.6171 622.808 34.3259 622.228 29.686L620.243 29.9341C620.96 35.67 626.191 39.7387 631.927 39.0217L631.679 37.0371ZM622.228 29.686C621.648 25.0461 624.939 20.8145 629.579 20.2345L629.331 18.25C623.595 18.967 619.526 24.1981 620.243 29.9341L622.228 29.686ZM629.579 20.2345C629.697 20.2198 629.815 20.2075 629.932 20.1977L629.766 18.2046C629.621 18.2167 629.476 18.2318 629.331 18.25L629.579 20.2345ZM630.849 19.215C630.94 12.6435 636.106 6.87762 643.187 5.99248L642.939 4.00792C634.92 5.01031 628.955 11.5658 628.85 19.1873L630.849 19.215ZM643.187 5.99248C648.396 5.34132 653.261 7.50884 656.142 11.2335L657.724 10.0099C654.41 5.7258 648.849 3.26908 642.939 4.00792L643.187 5.99248ZM657.431 11.4891C658.758 10.7274 660.267 10.2072 661.9 10.0031L661.652 8.01852C659.753 8.25592 657.99 8.86224 656.435 9.75433L657.431 11.4891ZM661.9 10.0031C667.177 9.34341 672.011 12.2005 673.906 16.6191L675.744 15.8305C673.486 10.5679 667.786 7.25178 661.652 8.01852L661.9 10.0031ZM674.426 17.1418C674.694 17.2583 674.955 17.3782 675.207 17.5014L676.084 15.7037C675.804 15.5675 675.518 15.4355 675.224 15.3078L674.426 17.1418ZM675.98 17.5451C676.431 17.385 676.908 17.2706 677.405 17.2084L677.157 15.2239C676.516 15.304 675.898 15.452 675.311 15.66L675.98 17.5451ZM677.405 17.2084C681.106 16.7458 684.481 19.3709 684.944 23.0717L686.928 22.8237C686.329 18.0268 681.954 14.6242 677.157 15.2239L677.405 17.2084ZM684.944 23.0717C685.406 26.7726 682.781 30.1477 679.081 30.6103L679.329 32.5949C684.125 31.9953 687.528 27.6205 686.928 22.8237L684.944 23.0717ZM679.081 30.6103C678.504 30.6824 677.936 30.6796 677.387 30.6099L677.135 32.594C677.849 32.6845 678.584 32.6879 679.329 32.5949L679.081 30.6103Z" fill="#949494" mask="url(#path-3-inside-2_30811_44)"/>
  <mask id="path-5-inside-3_30811_44" fill="white">
    <path fill-rule="evenodd" clip-rule="evenodd" d="M785.736 79.8044C784.447 80.0141 783.112 80.0672 781.752 79.945C773.019 79.1603 766.575 71.4442 767.36 62.7107C768.144 53.9772 775.86 47.5334 784.594 48.3181C788.591 48.6773 792.109 50.4885 794.673 53.1847C794.679 53.109 794.685 53.0332 794.692 52.9573C795.31 46.0819 801.384 41.0092 808.259 41.6269C812.39 41.9981 815.87 44.3387 817.856 47.6392C821.122 35.8325 835.899 27.8297 852.777 29.3462C870.685 30.9553 884.356 42.6886 883.944 55.8236C886.604 54.8014 889.533 54.3563 892.563 54.6285C903.155 55.5802 910.97 64.938 910.018 75.5297C909.066 86.1214 899.708 93.9362 889.117 92.9845C886.426 92.7428 883.914 91.9584 881.68 90.7491C872.57 97.2828 854.281 100.707 833.643 98.8528C810.896 96.8089 792.098 88.963 785.736 79.8044Z"/>
  </mask>
  <path fill-rule="evenodd" clip-rule="evenodd" d="M785.736 79.8044C784.447 80.0141 783.112 80.0672 781.752 79.945C773.019 79.1603 766.575 71.4442 767.36 62.7107C768.144 53.9772 775.86 47.5334 784.594 48.3181C788.591 48.6773 792.109 50.4885 794.673 53.1847C794.679 53.109 794.685 53.0332 794.692 52.9573C795.31 46.0819 801.384 41.0092 808.259 41.6269C812.39 41.9981 815.87 44.3387 817.856 47.6392C821.122 35.8325 835.899 27.8297 852.777 29.3462C870.685 30.9553 884.356 42.6886 883.944 55.8236C886.604 54.8014 889.533 54.3563 892.563 54.6285C903.155 55.5802 910.97 64.938 910.018 75.5297C909.066 86.1214 899.708 93.9362 889.117 92.9845C886.426 92.7428 883.914 91.9584 881.68 90.7491C872.57 97.2828 854.281 100.707 833.643 98.8528C810.896 96.8089 792.098 88.963 785.736 79.8044Z" fill="#4F5C68"/>
  <path d="M785.736 79.8044L786.557 79.2339L786.197 78.7162L785.575 78.8174L785.736 79.8044ZM794.673 53.1847L793.949 53.8739L795.509 55.5139L795.671 53.2564L794.673 53.1847ZM817.856 47.6392L816.999 48.1549L818.199 50.1491L818.82 47.9059L817.856 47.6392ZM883.944 55.8236L882.945 55.7923L882.898 57.2972L884.303 56.7571L883.944 55.8236ZM881.68 90.7491L882.156 89.8697L881.606 89.5718L881.097 89.9365L881.68 90.7491ZM785.575 78.8174C784.369 79.0138 783.117 79.0636 781.842 78.949L781.663 80.941C783.107 81.0707 784.526 81.0145 785.896 80.7915L785.575 78.8174ZM781.842 78.949C773.658 78.2137 767.62 70.9836 768.356 62.8002L766.364 62.6212C765.53 71.9048 772.379 80.1068 781.663 80.941L781.842 78.949ZM768.356 62.8002C769.091 54.6167 776.321 48.5788 784.504 49.3141L784.683 47.3221C775.4 46.488 767.198 53.3376 766.364 62.6212L768.356 62.8002ZM784.504 49.3141C788.251 49.6507 791.545 51.3469 793.949 53.8739L795.398 52.4955C792.673 49.6301 788.932 47.7038 784.683 47.3221L784.504 49.3141ZM795.671 53.2564C795.676 53.1866 795.681 53.1167 795.688 53.0467L793.696 52.8678C793.688 52.9496 793.682 53.0314 793.676 53.113L795.671 53.2564ZM795.688 53.0467C796.256 46.7215 801.844 42.0546 808.17 42.6229L808.349 40.6309C800.923 39.9638 794.363 45.4424 793.696 52.8678L795.688 53.0467ZM808.17 42.6229C811.969 42.9643 815.17 45.1159 816.999 48.1549L818.713 47.1236C816.569 43.5615 812.81 41.0318 808.349 40.6309L808.17 42.6229ZM818.82 47.9059C821.906 36.7493 836.071 28.8492 852.687 30.3422L852.866 28.3502C835.728 26.8103 820.338 34.9158 816.892 47.3726L818.82 47.9059ZM852.687 30.3422C861.455 31.13 869.149 34.3941 874.582 39.0238C880.016 43.655 883.139 49.6005 882.945 55.7923L884.944 55.855C885.161 48.9117 881.654 42.423 875.879 37.5015C870.102 32.5785 862.007 29.1715 852.866 28.3502L852.687 30.3422ZM884.303 56.7571C886.824 55.7884 889.599 55.3662 892.474 55.6245L892.652 53.6325C889.467 53.3463 886.385 53.8143 883.586 54.8902L884.303 56.7571ZM892.474 55.6245C902.515 56.5268 909.924 65.3986 909.022 75.4402L911.014 75.6192C912.015 64.4774 903.794 54.6336 892.652 53.6325L892.474 55.6245ZM909.022 75.4402C908.12 85.4819 899.248 92.8908 889.206 91.9885L889.027 93.9805C900.169 94.9816 910.013 86.761 911.014 75.6192L909.022 75.4402ZM889.206 91.9885C886.653 91.7592 884.273 91.0155 882.156 89.8697L881.204 91.6286C883.556 92.9014 886.198 93.7264 889.027 93.9805L889.206 91.9885ZM881.097 89.9365C876.712 93.0818 870.026 95.5338 861.813 96.9612C853.618 98.3857 843.974 98.777 833.733 97.8568L833.554 99.8488C843.95 100.783 853.77 100.389 862.156 98.9317C870.525 97.4771 877.538 94.9502 882.263 91.5617L881.097 89.9365ZM833.733 97.8568C822.443 96.8424 812.154 94.3894 803.919 91.0692C795.653 87.7366 789.575 83.5786 786.557 79.2339L784.914 80.375C788.259 85.1889 794.761 89.5331 803.171 92.9241C811.612 96.3274 822.096 98.8193 833.554 99.8488L833.733 97.8568Z" fill="#949494" mask="url(#path-5-inside-3_30811_44)"/>
</svg>
