<svg width="209" height="200" viewBox="0 0 209 200" fill="none" xmlns="http://www.w3.org/2000/svg">
  <ellipse cx="19.848" cy="181.305" rx="19.848" ry="4.962" fill="black" fill-opacity="0.2"/>
  <ellipse cx="81.9797" cy="150.095" rx="47.966" ry="9.37267" fill="black" fill-opacity="0.2"/>
  <ellipse cx="41.9457" cy="189.458" rx="19.848" ry="5.51333" fill="black" fill-opacity="0.2"/>
  <ellipse cx="109.775" cy="192.4" rx="30.3233" ry="6.616" fill="black" fill-opacity="0.2"/>
  <ellipse cx="138.331" cy="171.297" rx="30.3233" ry="7.71867" fill="black" fill-opacity="0.2"/>
  <ellipse cx="191.754" cy="162.777" rx="17.0913" ry="3.308" fill="black" fill-opacity="0.25"/>
  <rect x="77.7368" y="43.8877" width="11.4557" height="107.086" rx="5.72787" fill="#906925" stroke="black" stroke-linecap="round"/>
  <path d="M70.7349 149.658C70.0981 149.554 70.3422 150.924 70.7765 151.877C70.9163 152.183 71.236 152.351 71.573 152.351L78.3152 152.351C78.4643 152.351 78.6115 152.316 78.7552 152.277C79.1172 152.177 79.4096 152.122 79.4423 150.302C79.469 148.818 79.0519 148.512 78.6391 148.608C78.2706 148.694 78.0798 148.768 77.9436 148.415C77.6492 147.651 77.0222 146.358 76.2009 146.378C74.9567 146.408 74.7808 148.185 74.8131 148.383C74.8454 148.581 73.7679 145.612 72.3508 146.235C70.9338 146.858 71.6611 149.518 72.2018 150.77C72.0273 150.451 71.4897 149.781 70.7349 149.658Z" fill="#71A20F" stroke="black" stroke-linejoin="round"/>
  <path d="M94.5684 144.556C97.4179 145.082 93.7202 148.889 92.0241 150.151L91.0064 150.974H89.3102H87.7837C87.4445 149.987 88.123 144.885 89.9887 145.049C91.243 145.16 91.1881 145.976 90.9207 146.559C91.6678 145.296 92.8541 144.239 94.5684 144.556Z" fill="#71A20F"/>
  <path d="M89.9887 148.999C90.1079 148.402 90.3566 147.611 90.7527 146.86M92.0241 150.151C93.7202 148.889 97.4179 145.082 94.5684 144.556C92.7194 144.214 91.4846 145.471 90.7527 146.86M90.7527 146.86C91.12 146.311 91.4814 145.181 89.9887 145.049C88.123 144.885 87.4445 149.987 87.7837 150.974" stroke="black" stroke-linecap="round"/>
  <rect x="35.8979" y="88.2188" width="93.6383" height="37.8538" rx="10" fill="#14653C" stroke="black" stroke-linejoin="round"/>
  <path d="M82.2197 120.591H86.7024" stroke="#7EA82B" stroke-linecap="round"/>
  <path d="M78.2339 117.604H82.7166" stroke="#7EA82B" stroke-linecap="round"/>
  <path d="M51.8374 96.1855H56.3201" stroke="#7EA82B" stroke-linecap="round"/>
  <path d="M112.602 97.6807H117.084" stroke="#7EA82B" stroke-linecap="round"/>
  <path d="M49.3472 121.09H53.8299" stroke="#7EA82B" stroke-linecap="round"/>
  <path d="M112.603 120.092H117.085" stroke="#7EA82B" stroke-linecap="round"/>
  <rect x="53.332" y="50.8613" width="59.271" height="34.3672" rx="10" fill="#14653C" stroke="black" stroke-linejoin="round"/>
  <rect x="60.3052" y="18.4873" width="44.8268" height="28.8884" rx="10" fill="#14653C" stroke="black" stroke-linejoin="round"/>
  <path d="M69.2695 38.4092H73.7522" stroke="#7EA82B" stroke-linecap="round"/>
  <path d="M65.2847 34.9209H69.7674" stroke="#7EA82B" stroke-linecap="round"/>
  <path fill-rule="evenodd" clip-rule="evenodd" d="M136.44 90.708C137.854 90.708 139.001 91.8771 139.001 93.3193V97.1056C139.001 100.999 135.905 104.156 132.085 104.156H128.613C127.198 104.156 126.051 102.987 126.051 101.545C126.051 100.103 127.198 98.9335 128.613 98.9335H132.085C133.075 98.9335 133.878 98.1151 133.878 97.1056V93.3193C133.878 91.8771 135.025 90.708 136.44 90.708Z" fill="#906925" stroke="black" stroke-linecap="round"/>
  <rect x="125.177" y="88.8369" width="23.4173" height="6.09184" rx="3.04592" fill="#EA9A2C" stroke="black"/>
  <rect x="122.292" y="85.29" width="29.1887" height="6.09184" rx="3.04592" fill="#EA9A2C" stroke="black"/>
  <rect x="119.183" y="80.4375" width="35.404" height="6.09184" rx="3.04592" fill="#EA9A2C" stroke="black"/>
  <rect x="0.5" y="-0.5" width="23.4174" height="6.09184" rx="3.04592" transform="matrix(1 0 0 -1 124.678 66.8223)" fill="#EA9A2C" stroke="black"/>
  <rect x="0.5" y="-0.5" width="29.1887" height="6.09184" rx="3.04592" transform="matrix(1 0 0 -1 121.792 70.3672)" fill="#EA9A2C" stroke="black"/>
  <rect x="0.5" y="-0.5" width="35.404" height="6.09184" rx="3.04592" transform="matrix(1 0 0 -1 118.683 74.6738)" fill="#EA9A2C" stroke="black"/>
  <rect x="117.629" y="74.4004" width="38.5117" height="6.09184" rx="3.04592" fill="#EA9A2C" stroke="black"/>
  <path d="M123.716 76.4131H147.749" stroke="#EBF479" stroke-width="2" stroke-linecap="round"/>
  <path d="M125.518 83.0234H145.945" stroke="#EBF479" stroke-width="2" stroke-linecap="round"/>
  <path d="M125.518 71.0078H145.946" stroke="#EBF479" stroke-width="2" stroke-linecap="round"/>
  <path d="M130.926 62.5938H142.942" stroke="#EBF479" stroke-width="2" stroke-linecap="round"/>
  <path d="M129.724 66.2012H144.143" stroke="#EBF479" stroke-width="2" stroke-linecap="round"/>
  <path d="M129.723 88.4297H144.143" stroke="#EBF479" stroke-width="2" stroke-linecap="round"/>
  <ellipse cx="151.387" cy="76.5848" rx="1.23474" ry="1.37193" fill="#EBF479"/>
  <ellipse cx="149.584" cy="83.1922" rx="1.23474" ry="1.37193" fill="#EBF479"/>
  <ellipse cx="149.584" cy="71.1571" rx="1.23474" ry="1.37193" fill="#EBF479"/>
  <ellipse cx="147.659" cy="66.3529" rx="1.11127" ry="1.23474" fill="#EBF479"/>
  <ellipse cx="147.658" cy="88.4642" rx="1.11127" ry="1.23474" fill="#EBF479"/>
  <circle cx="133.93" cy="81.8204" r="8.31064" fill="#905708" stroke="black"/>
  <ellipse cx="134.831" cy="81.8194" rx="6.90941" ry="7.81064" fill="black"/>
  <path fill-rule="evenodd" clip-rule="evenodd" d="M30.9958 91.7041C29.5774 91.7041 28.4276 92.8732 28.4276 94.3154V98.1017C28.4276 101.996 31.5321 105.152 35.3617 105.152H37.3151C38.7335 105.152 39.8833 103.983 39.8833 102.541C39.8833 101.099 38.7335 99.9296 37.3151 99.9296H35.3617C34.3688 99.9296 33.564 99.1112 33.564 98.1017V94.3154C33.564 92.8732 32.4141 91.7041 30.9958 91.7041Z" fill="#906925" stroke="black" stroke-linecap="round"/>
  <rect x="67.3623" y="1.05078" width="31.9659" height="31.9659" rx="10.5" fill="#B2E946" stroke="black" stroke-linejoin="round"/>
  <rect x="67.8623" y="4.13086" width="30.9659" height="28.3854" rx="10" fill="#9ACA3B"/>
  <rect x="13.9819" y="63.5" width="31.9659" height="31.9659" rx="10.5" fill="#B2E946" stroke="black" stroke-linejoin="round"/>
  <rect x="14.4824" y="66.5781" width="30.9659" height="28.3854" rx="10" fill="#9ACA3B"/>
  <path fill-rule="evenodd" clip-rule="evenodd" d="M49.7977 55.7422C48.3725 55.7422 47.2172 56.8975 47.2172 58.3227V62.0644C47.2172 65.9124 50.3366 69.0317 54.1845 69.0317H58.5714C59.9965 69.0317 61.1519 67.8764 61.1519 66.4512C61.1519 65.0261 59.9965 63.8707 58.5714 63.8707H54.1845C53.1869 63.8707 52.3782 63.062 52.3782 62.0644V58.3227C52.3782 56.8975 51.2228 55.7422 49.7977 55.7422Z" fill="#906925" stroke="black" stroke-linecap="round"/>
  <path fill-rule="evenodd" clip-rule="evenodd" d="M117.982 55.7432C119.407 55.7432 120.562 56.8985 120.562 58.3237V62.0654C120.562 65.9133 117.443 69.0327 113.595 69.0327H109.208C107.783 69.0327 106.627 67.8774 106.627 66.4522C106.627 65.027 107.783 63.8717 109.208 63.8717H113.595C114.592 63.8717 115.401 63.063 115.401 62.0654V58.3237C115.401 56.8985 116.556 55.7432 117.982 55.7432Z" fill="#906925" stroke="black" stroke-linecap="round"/>
  <path d="M80.7261 79.2529H85.2088" stroke="#7EA82B" stroke-linecap="round"/>
  <path d="M92.1812 76.7627H97.1619" stroke="#7EA82B" stroke-linecap="round"/>
  <path d="M97.6606 32.9307H102.143" stroke="#7EA82B" stroke-linecap="round"/>
  <path d="M61.7988 76.7627H66.7796" stroke="#7EA82B" stroke-linecap="round"/>
  <path d="M89.1938 58.333H94.1746" stroke="#7EA82B" stroke-linecap="round"/>
  <rect x="44.3638" y="101.852" width="31.9659" height="31.9659" rx="10.5" fill="#B2E946" stroke="black" stroke-linejoin="round"/>
  <rect x="44.8652" y="104.933" width="30.9659" height="28.3854" rx="10" fill="#9ACA3B"/>
  <path d="M52.335 115.113H56.8176" stroke="#238252" stroke-linecap="round"/>
  <path d="M57.3169 119.098H61.7996" stroke="#238252" stroke-linecap="round"/>
  <rect x="87.3896" y="101.852" width="31.9659" height="31.9659" rx="10.5" fill="#B2E946" stroke="black" stroke-linejoin="round"/>
  <rect x="87.8896" y="104.932" width="30.9659" height="28.3854" rx="10" fill="#9ACA3B"/>
  <path d="M106.625 111.13H111.108" stroke="#238252" stroke-linecap="round"/>
  <path d="M102.143 122.088H106.625" stroke="#238252" stroke-linecap="round"/>
  <rect x="66.7773" y="63.499" width="31.9659" height="31.9659" rx="10.5" fill="#B2E946" stroke="black" stroke-linejoin="round"/>
  <rect x="67.2778" y="66.5771" width="30.9659" height="28.3854" rx="10" fill="#9ACA3B"/>
  <path d="M80.7251 79.25H85.2078" stroke="#238252" stroke-linecap="round"/>
  <path d="M74.7476 71.7783H79.2302" stroke="#238252" stroke-linecap="round"/>
  <path d="M73.752 88.2158H78.2346" stroke="#238252" stroke-linecap="round"/>
  <rect x="33.9043" y="28.9453" width="31.9659" height="31.9659" rx="10.5" fill="#B2E946" stroke="black" stroke-linejoin="round"/>
  <rect x="34.4043" y="32.0254" width="30.9659" height="28.3854" rx="10" fill="#9ACA3B"/>
  <rect x="101.145" y="28.9453" width="31.9659" height="31.9659" rx="10.5" fill="#B2E946" stroke="black" stroke-linejoin="round"/>
  <rect x="101.645" y="32.0273" width="30.9659" height="28.3854" rx="10" fill="#9ACA3B"/>
  <path d="M119.612 123.133C119.612 122.324 120.099 121.594 120.847 121.285L138.473 113.991C138.963 113.789 139.513 113.789 140.003 113.991L157.629 121.285C158.377 121.594 158.864 122.324 158.864 123.133V167.17C158.864 168.274 157.969 169.17 156.864 169.17H151.502C150.398 169.17 149.502 168.274 149.502 167.17V165.981C149.502 164.877 148.607 163.981 147.502 163.981H130.974C129.869 163.981 128.974 164.877 128.974 165.981V167.17C128.974 168.274 128.078 169.17 126.974 169.17H121.612C120.507 169.17 119.612 168.274 119.612 167.17V123.133Z" fill="#A38F16" stroke="black" stroke-linecap="round"/>
  <path d="M113.338 122.28C112.94 121.261 113.434 120.111 114.447 119.699L138.479 109.923C138.966 109.725 139.511 109.727 139.997 109.928L163.73 119.749C164.681 120.142 165.178 121.194 164.879 122.179L164.464 123.541C164.122 124.664 162.891 125.253 161.802 124.813L139.987 116.007C139.507 115.814 138.97 115.814 138.49 116.007L116.524 124.874C115.492 125.291 114.318 124.785 113.913 123.749L113.338 122.28Z" fill="#CFB727" stroke="black" stroke-linecap="round"/>
  <rect x="118.709" y="134.429" width="41.0573" height="7.67005" rx="2" fill="#CFB727" stroke="black" stroke-linecap="round"/>
  <rect x="118.709" y="143.451" width="41.0573" height="7.67005" rx="2" fill="#CFB727" stroke="black" stroke-linecap="round"/>
  <rect x="118.709" y="152.477" width="41.0573" height="7.67005" rx="2" fill="#CFB727" stroke="black" stroke-linecap="round"/>
  <path d="M118.709 127.216C118.709 126.396 119.211 125.658 119.974 125.356L138.502 118.026C138.975 117.839 139.501 117.839 139.974 118.026L158.503 125.356C159.266 125.658 159.767 126.396 159.767 127.216V131.075C159.767 132.18 158.871 133.075 157.767 133.075H120.709C119.605 133.075 118.709 132.18 118.709 131.075V127.216Z" fill="#CFB727" stroke="black" stroke-linecap="round"/>
  <circle cx="139.012" cy="125.631" r="3.38384" fill="#875510" stroke="black" stroke-linecap="round"/>
  <rect x="175.6" y="140.223" width="22.9814" height="22.9814" rx="8.5" fill="#B2E946" stroke="black" stroke-linejoin="round"/>
  <rect x="176.101" y="142.553" width="21.9814" height="20.1497" rx="8" fill="#9ACA3B"/>
  <path d="M189.4 146.951H192.582" stroke="#238252" stroke-linecap="round"/>
  <path d="M186.217 154.732H189.399" stroke="#238252" stroke-linecap="round"/>
  <path d="M71.9128 150.999C67.992 151.799 67.9488 155.845 68.5143 158.619L70.56 158.704C70.56 158.704 72.2447 157.858 73.1248 156.942C75.783 154.176 74.29 150.514 71.9128 150.999Z" fill="white" stroke="black" stroke-linecap="round"/>
  <path d="M63.5171 164.474C63.1293 162.572 64.0594 161.062 64.573 160.544C68.139 159.817 71.4626 157.901 72.4089 156.47C73.3552 155.039 78.3523 155.258 78.6063 159.54C78.8602 163.821 73.8748 166.695 69.1201 167.665C65.3163 168.44 64.5961 166.73 63.7594 165.662L61.8552 165.432L63.5171 164.474Z" fill="#FEEF48" stroke="black" stroke-linecap="round"/>
  <path d="M63.516 164.471C63.1283 162.569 63.9775 160.663 65.7606 160.299C65.7606 160.299 64.7333 161.333 65.2991 164.108C66.156 168.31 69.119 167.662 69.119 167.662C69.119 167.662 65.0798 169.105 63.7584 165.66L61.8542 165.429L63.516 164.471Z" fill="black"/>
  <path d="M67.5431 159.937C67.7086 161.76 67.8967 165.312 70.1864 166.826" stroke="black" stroke-linecap="round"/>
  <path d="M70.896 158.014C71.0614 159.837 72.823 164.43 75.701 164.462" stroke="black" stroke-linecap="round"/>
  <path d="M64.4934 153.247C68.1033 151.521 70.1368 156.636 70.7023 159.41L68.8531 160.289C68.8531 160.289 66.9719 160.17 65.8036 159.672C62.2746 158.168 59.9811 155.405 64.4934 153.247Z" fill="white" stroke="black" stroke-linecap="round"/>
  <path d="M73.1592 158.172C72.6014 157.46 71.7939 155.726 73.0264 154.484" stroke="black" stroke-linecap="round"/>
  <path d="M76.0951 156.337C75.9658 155.703 75.9256 154.292 76.799 153.718" stroke="black" stroke-linecap="round"/>
  <path d="M158.667 116.931C162.465 115.672 164.518 119.159 165.408 121.846L163.677 122.938C163.677 122.938 161.795 123.044 160.576 122.688C156.893 121.614 156.364 117.695 158.667 116.931Z" fill="white" stroke="black" stroke-linecap="round"/>
  <path d="M172.656 124.436C172.046 122.594 170.487 121.747 169.784 121.554C166.329 122.7 162.493 122.693 160.96 121.924C159.427 121.154 155.202 123.833 157.114 127.672C159.026 131.511 164.781 131.52 169.387 129.993C173.072 128.772 172.844 126.93 173.038 125.587L174.575 124.439L172.656 124.436Z" fill="#FEEF48" stroke="black" stroke-linecap="round"/>
  <path d="M172.657 124.436C172.047 122.593 170.361 121.363 168.633 121.935C168.633 121.935 170.039 122.32 170.93 125.008C172.28 129.079 169.388 129.993 169.388 129.993C169.388 129.993 173.609 129.232 173.039 125.587L174.576 124.439L172.657 124.436Z" fill="black"/>
  <path d="M166.906 122.508C167.671 124.171 169.277 127.345 168.045 129.798" stroke="black" stroke-linecap="round"/>
  <path d="M163.041 122.512C163.806 124.176 164.566 129.036 162.086 130.497" stroke="black" stroke-linecap="round"/>
  <path d="M166.22 115.19C162.23 115.49 163.014 120.939 163.905 123.626L165.946 123.467C165.946 123.467 167.518 122.428 168.283 121.414C170.594 118.352 171.208 114.814 166.22 115.19Z" fill="white" stroke="black" stroke-linecap="round"/>
  <path d="M161.157 123.774C161.286 122.879 161.123 120.974 159.435 120.511" stroke="black" stroke-linecap="round"/>
  <path d="M157.696 123.643C157.493 123.029 156.824 121.785 155.781 121.722" stroke="black" stroke-linecap="round"/>
  <path d="M185.745 60.9758C181.825 61.7752 181.781 65.8218 182.347 68.5954L184.392 68.6801C184.392 68.6801 186.077 67.8347 186.957 66.919C189.616 64.153 188.123 60.4911 185.745 60.9758Z" fill="white" stroke="black" stroke-linecap="round"/>
  <path d="M177.351 74.4483C176.963 72.5465 177.893 71.0362 178.407 70.5188C181.973 69.7916 185.297 67.8759 186.243 66.4448C187.189 65.0138 192.186 65.2329 192.44 69.5145C192.694 73.7961 187.709 76.6697 182.954 77.6392C179.15 78.4148 178.43 76.7044 177.593 75.6369L175.689 75.4062L177.351 74.4483Z" fill="#FEEF48" stroke="black" stroke-linecap="round"/>
  <path d="M177.351 74.4479C176.964 72.546 177.813 70.6392 179.596 70.2756C179.596 70.2756 178.569 71.3095 179.135 74.0843C179.991 78.2869 182.954 77.6388 182.954 77.6388C182.954 77.6388 178.915 79.0811 177.594 75.6364L175.69 75.4058L177.351 74.4479Z" fill="black"/>
  <path d="M181.379 69.9122C181.544 71.7356 181.732 75.2877 184.022 76.8018" stroke="black" stroke-linecap="round"/>
  <path d="M184.731 67.9902C184.897 69.8136 186.658 74.4068 189.536 74.4391" stroke="black" stroke-linecap="round"/>
  <path d="M178.329 63.2227C181.939 61.4961 183.972 66.6117 184.538 69.3852L182.689 70.2641C182.689 70.2641 180.807 70.1459 179.639 69.6478C176.11 68.1434 173.817 65.3808 178.329 63.2227Z" fill="white" stroke="black" stroke-linecap="round"/>
  <path d="M186.995 68.1471C186.437 67.4355 185.63 65.7017 186.862 64.4599" stroke="black" stroke-linecap="round"/>
  <path d="M189.93 66.3129C189.801 65.6789 189.761 64.2674 190.634 63.6932" stroke="black" stroke-linecap="round"/>
  <path d="M23.1858 119.661C27.1065 120.461 27.1497 124.507 26.5842 127.281L24.5386 127.365C24.5386 127.365 22.8539 126.52 21.9739 125.604C19.3156 122.839 20.8087 119.177 23.1858 119.661Z" fill="white" stroke="black" stroke-linecap="round"/>
  <path d="M31.5807 133.135C31.9684 131.233 31.0383 129.723 30.5248 129.205C26.9588 128.478 23.6352 126.562 22.6889 125.131C21.7426 123.7 16.7457 123.92 16.4917 128.201C16.2378 132.482 21.2231 135.356 25.9778 136.326C29.7815 137.101 30.5016 135.391 31.3383 134.323L33.2425 134.093L31.5807 133.135Z" fill="#FEEF48" stroke="black" stroke-linecap="round"/>
  <path d="M31.5802 133.133C31.968 131.232 31.1187 129.325 29.3357 128.961C29.3357 128.961 30.363 129.995 29.7972 132.77C28.9403 136.972 25.9773 136.324 25.9773 136.324C25.9773 136.324 30.0165 137.767 31.3379 134.322L33.242 134.091L31.5802 133.133Z" fill="black"/>
  <path d="M27.5536 128.599C27.3881 130.422 27.2 133.974 24.9104 135.488" stroke="black" stroke-linecap="round"/>
  <path d="M24.2007 126.677C24.0352 128.5 22.2737 133.093 19.3958 133.125" stroke="black" stroke-linecap="round"/>
  <path d="M30.6033 121.909C26.9935 120.183 24.9601 125.298 24.3945 128.072L26.2437 128.951C26.2437 128.951 28.1249 128.832 29.2932 128.334C32.8221 126.83 35.1156 124.067 30.6033 121.909Z" fill="white" stroke="black" stroke-linecap="round"/>
  <path d="M21.937 126.833C22.4948 126.121 23.3023 124.387 22.0698 123.145" stroke="black" stroke-linecap="round"/>
  <path d="M19.0016 124.997C19.1309 124.363 19.171 122.952 18.2977 122.378" stroke="black" stroke-linecap="round"/>
  <path d="M172.332 77.2549C170.346 79.5711 164.886 83.5088 158.93 80.7293" stroke="black" stroke-linecap="round" stroke-linejoin="round" stroke-dasharray="2 2"/>
  <path d="M114.761 141.865C106.654 146.663 108.521 155.535 132.133 151.792C172.832 145.339 196.657 119.033 188.219 115.559C181.469 112.78 175.149 114.401 172.832 115.559" stroke="black" stroke-linecap="round" stroke-linejoin="round" stroke-dasharray="2 2"/>
  <path d="M85.4282 144.082C85.4282 143.273 85.9158 142.543 86.6635 142.234L104.29 134.94C104.779 134.738 105.33 134.738 105.819 134.94L123.446 142.234C124.193 142.543 124.681 143.273 124.681 144.082V188.119C124.681 189.224 123.785 190.119 122.681 190.119H117.319C116.214 190.119 115.319 189.224 115.319 188.119V186.931C115.319 185.826 114.423 184.931 113.319 184.931H96.7902C95.6856 184.931 94.7902 185.826 94.7902 186.931V188.119C94.7902 189.224 93.8948 190.119 92.7902 190.119H87.4282C86.3237 190.119 85.4282 189.224 85.4282 188.119V144.082Z" fill="#A38F16" stroke="black" stroke-linecap="round"/>
  <path d="M79.1537 143.23C78.755 142.211 79.2491 141.06 80.2626 140.648L104.294 130.873C104.781 130.675 105.327 130.676 105.812 130.877L129.545 140.698C130.497 141.091 130.994 142.143 130.694 143.128L130.28 144.49C129.938 145.614 128.706 146.202 127.618 145.763L105.803 136.957C105.323 136.763 104.786 136.763 104.305 136.957L82.3394 145.824C81.3074 146.24 80.1338 145.734 79.7283 144.698L79.1537 143.23Z" fill="#CFB727" stroke="black" stroke-linecap="round"/>
  <rect x="84.5254" y="155.379" width="41.0573" height="7.67005" rx="2" fill="#CFB727" stroke="black" stroke-linecap="round"/>
  <rect x="84.5259" y="164.4" width="41.0573" height="7.67005" rx="2" fill="#CFB727" stroke="black" stroke-linecap="round"/>
  <rect x="84.5264" y="173.427" width="41.0573" height="7.67005" rx="2" fill="#CFB727" stroke="black" stroke-linecap="round"/>
  <path d="M84.5249 148.165C84.5249 147.345 85.0261 146.608 85.7892 146.306L104.318 138.976C104.79 138.789 105.317 138.789 105.789 138.976L124.318 146.306C125.081 146.608 125.582 147.345 125.582 148.165V152.025C125.582 153.129 124.687 154.025 123.582 154.025H86.5249C85.4203 154.025 84.5249 153.129 84.5249 152.025V148.165Z" fill="#CFB727" stroke="black" stroke-linecap="round"/>
  <circle cx="104.829" cy="146.578" r="3.38384" fill="#875510" stroke="black" stroke-linecap="round"/>
  <rect x="7.36523" y="147.154" width="30.1328" height="30.1328" rx="10.5" fill="#7BA130" stroke="black" stroke-linejoin="round"/>
  <rect x="7.86621" y="150.08" width="29.1328" height="26.7051" rx="10" fill="#527213"/>
  <path d="M19.6567 155.912H23.8741" stroke="#7BA130" stroke-linecap="round"/>
  <path d="M15.4399 166.22H19.6573" stroke="#7BA130" stroke-linecap="round"/>
  <rect x="28.9248" y="163.47" width="21.9756" height="21.9756" rx="8.5" fill="#B2E946" stroke="black" stroke-linejoin="round"/>
  <rect x="29.4253" y="165.716" width="20.9756" height="19.2276" rx="8" fill="#9ACA3B"/>
  <path d="M42.1167 169.914H45.1532" stroke="#238252" stroke-linecap="round"/>
  <path d="M39.0801 177.337H42.1165" stroke="#238252" stroke-linecap="round"/>
</svg>
