<svg width="203" height="122" viewBox="0 0 203 122" fill="none" xmlns="http://www.w3.org/2000/svg">
  <ellipse cx="99.8564" cy="15.6532" rx="99.8564" ry="15.6532" transform="matrix(-1 0 0 1 200.09 90.6875)" fill="black" fill-opacity="0.2"/>
  <path d="M137.969 84.7352C136.477 83.5414 135.358 67.8238 134.985 60.1143L169.678 67.2021V94.0613C159.73 91.45 139.461 85.9289 137.969 84.7352Z" stroke="black"/>
  <path d="M134.551 61.422C134.764 65.4483 135.141 71.0102 135.642 75.7105C135.893 78.0592 136.175 80.203 136.486 81.8357C136.64 82.6507 136.805 83.3515 136.98 83.8916C137.067 84.1614 137.161 84.4025 137.263 84.6023C137.36 84.7932 137.486 84.9891 137.657 85.1256C137.797 85.2377 138.002 85.3459 138.224 85.4488C138.457 85.5568 138.748 85.6766 139.089 85.8063C139.77 86.0661 140.668 86.3742 141.731 86.7177C143.857 87.4049 146.66 88.2406 149.736 89.1242C155.89 90.8918 163.151 92.8557 168.302 94.216C169.257 94.4683 170.178 93.7437 170.178 92.7649V68.0184C170.178 67.3058 169.676 66.6915 168.978 66.5488L136.346 59.882C135.391 59.6869 134.498 60.4386 134.551 61.422Z" fill="#885F0F" stroke="black" stroke-linejoin="round"/>
  <path opacity="0.3" d="M139.834 62.7275C139.959 68.3232 140.506 80.7829 141.7 85.8563" stroke="#553322" stroke-linecap="round"/>
  <path opacity="0.3" d="M149.534 64.2188C149.534 67.5761 149.534 86.6014 150.28 88.4666" stroke="#553322" stroke-width="2" stroke-linecap="round"/>
  <path opacity="0.3" d="M153.264 77.2744C153.264 78.9274 153.264 88.2942 154.01 89.2125" stroke="#553322" stroke-linecap="round"/>
  <path opacity="0.3" d="M157.74 68.6943C157.74 70.3473 157.367 82.8708 157.367 82.8708" stroke="#553322" stroke-linecap="round"/>
  <path opacity="0.3" d="M137.224 63.4736C137.224 65.1266 138.716 79.8885 138.716 79.8885" stroke="#553322" stroke-linecap="round"/>
  <path opacity="0.3" d="M141.699 69.0684C141.699 70.7213 142.818 83.2448 142.818 83.2448" stroke="#553322" stroke-linecap="round"/>
  <path opacity="0.3" d="M159.979 66.085C159.979 66.458 159.979 90.7059 159.979 90.7059" stroke="#553322" stroke-width="2" stroke-linecap="round"/>
  <path d="M157.41 31.9232C156.429 36.7832 153.525 48.5821 152.313 53.4658C152.025 54.6249 152.81 55.7755 153.994 55.9325L186.36 60.226C187.45 60.3705 188.453 59.6082 188.604 58.5191L192.127 33.2197C192.291 32.0426 191.398 30.9832 190.211 30.9449L159.805 29.964C158.676 29.9276 157.634 30.8157 157.41 31.9232Z" fill="#553322" stroke="black"/>
  <path d="M165.575 37.3604L188.704 38.4795" stroke="#1D130E" stroke-linecap="round"/>
  <path d="M162.217 50.418L186.465 53.7754" stroke="#1D130E" stroke-linecap="round"/>
  <path d="M165.575 44.4502L188.703 47.0615" stroke="#1D130E" stroke-linecap="round"/>
  <path d="M134.612 59.7428L151.772 55.6396L188.704 60.489L170.051 66.8307L134.612 59.7428Z" fill="#595959" stroke="black"/>
  <path d="M134.612 60.1168L151.772 56.0137L188.704 60.8631L170.051 67.2047L134.612 60.1168Z" fill="#241403" stroke="black"/>
  <path d="M185.799 86.0672C188.667 79.9726 189.822 70.1155 189.625 62.5209C189.599 61.5214 188.619 60.8551 187.684 61.1542L170.968 66.5034C170.346 66.7022 169.925 67.2798 169.925 67.9321V92.5017C169.925 93.59 171.049 94.3264 172.046 93.8568C173.845 93.0104 177.067 91.4669 179.925 89.9593C181.353 89.2061 182.698 88.4574 183.731 87.8063C184.247 87.4812 184.694 87.1746 185.038 86.8992C185.36 86.6418 185.663 86.3569 185.799 86.0672Z" fill="#DDAA44" stroke="black" stroke-linejoin="round"/>
  <path d="M191.43 32.5207L188.331 60.0694C188.234 60.9289 188.93 61.8039 189.916 61.5907C193.18 60.8854 199.274 57.4416 200.761 47.5085C201.505 42.5423 200.465 38.8778 198.819 36.2626C197.179 33.6577 194.959 32.126 193.381 31.3764C192.462 30.9395 191.532 31.617 191.43 32.5207Z" fill="#DDAA44" stroke="black" stroke-linejoin="round"/>
  <path d="M157.642 32.3477L153.073 52.4501C152.789 53.7016 153.746 54.8749 154.999 54.5962C158.518 53.8135 163.922 51.1269 165.202 42.5829C166.494 33.9517 162.944 31.7289 160.166 30.8323C159.069 30.478 157.898 31.223 157.642 32.3477Z" fill="#472A1C"/>
  <path opacity="0.3" d="M179.003 65.7109L178.257 89.5858" stroke="#553322" stroke-width="2" stroke-linecap="round"/>
  <path opacity="0.3" d="M184.227 64.2197L182.361 86.2293" stroke="#553322" stroke-width="2" stroke-linecap="round"/>
  <path opacity="0.3" d="M171.916 92.1982C172.662 89.7113 174.229 83.469 174.527 78.3956C174.9 72.0538 175.646 69.8156 176.019 71.6808C176.393 73.546 176.766 82.126 176.019 87.3487" stroke="#553322" stroke-linecap="round"/>
  <path opacity="0.3" d="M162.592 66.457C163.089 68.8198 163.935 74.5152 163.338 78.3951C162.592 83.245 165.203 82.8719 165.203 76.9028C165.203 72.1276 165.203 68.9441 165.203 67.9493" stroke="#553322" stroke-linecap="round"/>
  <path d="M134.333 59.9996C134.187 59.9708 134.035 60.0092 133.92 60.1042C133.804 60.1992 133.737 60.3408 133.737 60.4902C133.737 61.3753 133.767 62.4186 133.82 63.5704C134.129 70.2685 135.236 80.7677 135.982 85.561C136.011 85.7509 136.147 85.9071 136.331 85.9627L164.682 94.5428C164.708 94.5506 164.734 94.5563 164.761 94.5598L170.356 95.3059C170.499 95.3249 170.643 95.2814 170.752 95.1865C170.86 95.0915 170.923 94.9544 170.923 94.8103V67.5781C170.923 67.339 170.753 67.1334 170.519 67.0874L134.333 59.9996ZM139.61 82.7924C138.966 77.9603 138.191 70.3227 137.871 64.7525L166.938 70.4461V90.8305L165.567 90.6476L139.61 82.7924Z" fill="#797979" stroke="black" stroke-linecap="round" stroke-linejoin="round"/>
  <path d="M189.36 61.3545C189.495 61.3783 189.634 61.3456 189.744 61.2639C189.855 61.1822 189.926 61.0588 189.943 60.9226L193.674 30.333C193.691 30.1936 193.649 30.0535 193.557 29.9469C193.466 29.8403 193.334 29.7771 193.193 29.7727L157.381 28.6536C157.142 28.6461 156.931 28.8088 156.878 29.0419L150.909 55.155C150.878 55.2914 150.905 55.4347 150.985 55.5499C151.064 55.6652 151.188 55.7419 151.327 55.7615L183.027 60.2368L189.36 61.3545ZM183.592 56.2928L155.638 52.3463L160.123 32.7256L189.257 33.636L186.433 56.792L183.71 56.3116C183.671 56.3047 183.632 56.2984 183.592 56.2928Z" fill="#919191" stroke="black" stroke-linecap="round" stroke-linejoin="round"/>
  <path d="M170.254 67.1074C170.055 67.1786 169.923 67.367 169.923 67.5781V94.8103C169.923 94.9827 170.012 95.143 170.158 95.2343C170.304 95.3257 170.487 95.3353 170.642 95.2597L185.937 87.7988C186.029 87.7539 186.105 87.6818 186.155 87.5922C187.785 84.6586 188.841 80.3855 189.522 76.0278C190.205 71.6564 190.519 67.1447 190.636 63.6984C190.677 62.4796 190.694 61.3926 190.694 60.4902C190.694 60.3275 190.615 60.175 190.482 60.0814C190.349 59.9877 190.179 59.9647 190.025 60.0196L170.254 67.1074ZM186.571 65.4904C186.451 67.8328 186.241 70.5069 185.898 73.2001C185.321 77.7376 184.411 81.9357 183.136 84.7318L173.907 89.2338V70.0304L186.571 65.4904Z" fill="#D4D4D4" stroke="black" stroke-linecap="round" stroke-linejoin="round"/>
  <path d="M189.324 60.4332C189.306 60.5875 189.361 60.7414 189.472 60.8497C189.584 60.9579 189.739 61.0082 189.893 60.9857C190.505 60.8963 191.306 60.6751 192.202 60.2741C195.208 58.9297 199.329 55.5437 201.076 48.1715C201.079 48.16 201.081 48.1483 201.083 48.1366C201.946 42.8393 201.426 39.0705 200.24 36.3719C199.052 33.6677 197.215 32.085 195.535 31.1271C194.789 30.7017 194.075 30.4002 193.466 30.1778C193.322 30.1253 193.163 30.1415 193.032 30.2218C192.902 30.3021 192.816 30.4376 192.798 30.5897L189.324 60.4332ZM196.779 36.4436C197.999 38.3361 198.998 41.6458 198.056 47.5304C196.944 52.1382 194.819 54.7692 192.919 56.2278L195.409 34.8437C195.899 35.2779 196.366 35.8031 196.779 36.4436Z" fill="#D4D4D4" stroke="black" stroke-linecap="round" stroke-linejoin="round"/>
  <path d="M154.882 65.3399C154.882 65.1016 154.714 64.8964 154.48 64.8496L148.884 63.7304C148.745 63.7025 148.6 63.7354 148.486 63.8207L146.994 64.9399C146.868 65.0343 146.794 65.1825 146.794 65.3399V68.6975C146.794 68.9207 146.942 69.1169 147.157 69.1782L152.379 70.6705C152.535 70.715 152.703 70.6813 152.829 70.5802L154.695 69.0879C154.813 68.993 154.882 68.8494 154.882 68.6975V65.3399Z" fill="#797979" stroke="black" stroke-linecap="round" stroke-linejoin="round"/>
  <path d="M154.382 65.3398L152.517 66.459V70.1897L154.382 68.6974V65.3398Z" fill="#BDBDBD"/>
  <path d="M179.75 64.9675C176.659 64.9675 174.154 63.8125 174.154 62.3877C174.154 61.6847 174.154 60.1178 174.154 60.1178C175.169 59.6401 178.184 59.8079 179.75 59.8079C181.315 59.8079 184.33 59.6401 185.346 60.1177C185.346 60.1177 185.346 61.6847 185.346 62.3877C185.346 63.8125 182.84 64.9675 179.75 64.9675Z" fill="#D99530" stroke="black" stroke-linecap="round"/>
  <ellipse cx="179.748" cy="60.0857" rx="2.57983" ry="5.59597" transform="rotate(90 179.748 60.0857)" fill="#FFFF52" stroke="black" stroke-linecap="round"/>
  <path d="M176.766 59.7439C173.675 59.7439 171.17 58.5889 171.17 57.1641C171.17 56.461 171.17 54.8941 171.17 54.8941C172.186 54.4164 175.2 54.5842 176.766 54.5842C178.331 54.5842 181.346 54.4164 182.362 54.8941C182.362 54.8941 182.362 56.461 182.362 57.1641C182.362 58.5889 179.856 59.7439 176.766 59.7439Z" fill="#D99530" stroke="black" stroke-linecap="round"/>
  <ellipse cx="176.764" cy="54.8621" rx="2.57983" ry="5.59597" transform="rotate(90 176.764 54.8621)" fill="#FFFF52" stroke="black" stroke-linecap="round"/>
  <path d="M169.302 66.4568C166.212 66.4568 163.706 65.3018 163.706 63.877C163.706 63.1739 163.706 61.607 163.706 61.607C164.722 61.1293 167.737 61.2971 169.302 61.2971C170.868 61.2971 173.883 61.1293 174.898 61.607C174.898 61.607 174.898 63.1739 174.898 63.877C174.898 65.3018 172.393 66.4568 169.302 66.4568Z" fill="#D99530" stroke="black" stroke-linecap="round"/>
  <ellipse cx="169.301" cy="61.5759" rx="2.57983" ry="5.59597" transform="rotate(90 169.301 61.5759)" fill="#FFFF52" stroke="black" stroke-linecap="round"/>
  <path d="M165.697 104.553C161.642 104.553 158.354 103.037 158.354 101.168C158.354 100.245 158.354 98.1892 158.354 98.1892C159.687 97.5624 163.643 97.7826 165.697 97.7826C167.751 97.7826 171.707 97.5624 173.039 98.1892C173.039 98.1892 173.04 100.245 173.04 101.168C173.04 103.037 169.752 104.553 165.697 104.553Z" fill="#D99530" stroke="black" stroke-linecap="round"/>
  <ellipse cx="165.697" cy="98.1488" rx="3.3851" ry="7.3427" transform="rotate(90 165.697 98.1488)" fill="#FFFF52" stroke="black" stroke-linecap="round"/>
  <path d="M150.65 62.7302C147.56 62.7302 145.054 61.5752 145.054 60.1504C145.054 59.4473 145.054 57.8804 145.054 57.8804C146.07 57.4028 149.085 57.5706 150.65 57.5706C152.216 57.5706 155.23 57.4027 156.246 57.8804C156.246 57.8804 156.246 59.4473 156.246 60.1504C156.246 61.5752 153.741 62.7302 150.65 62.7302Z" fill="#D99530" stroke="black" stroke-linecap="round"/>
  <ellipse cx="150.651" cy="57.8474" rx="2.57983" ry="5.59597" transform="rotate(90 150.651 57.8474)" fill="#FFFF52" stroke="black" stroke-linecap="round"/>
  <path d="M169.304 61.9822C166.213 61.9822 163.708 60.8272 163.708 59.4024C163.708 58.6993 163.708 57.1324 163.708 57.1324C164.724 56.6547 167.738 56.8225 169.304 56.8225C170.869 56.8225 173.884 56.6547 174.9 57.1324C174.9 57.1324 174.9 58.6993 174.9 59.4024C174.9 60.8272 172.394 61.9822 169.304 61.9822Z" fill="#D99530" stroke="black" stroke-linecap="round"/>
  <ellipse cx="169.304" cy="57.0994" rx="2.57983" ry="5.59597" transform="rotate(90 169.304 57.0994)" fill="#FFFF52" stroke="black" stroke-linecap="round"/>
  <path d="M169.611 99.6544C165.556 99.6544 162.268 98.1388 162.268 96.2693C162.268 95.3468 162.268 93.2908 162.268 93.2908C163.601 92.664 167.557 92.8842 169.611 92.8842C171.665 92.8842 175.621 92.664 176.953 93.2908C176.953 93.2908 176.954 95.3468 176.954 96.2693C176.954 98.1388 173.666 99.6544 169.611 99.6544Z" fill="#D99530" stroke="black" stroke-linecap="round"/>
  <ellipse cx="169.611" cy="93.2503" rx="3.3851" ry="7.3427" transform="rotate(90 169.611 93.2503)" fill="#FFFF52" stroke="black" stroke-linecap="round"/>
  <path d="M152.887 58.9978C149.797 58.9978 147.291 57.8428 147.291 56.418C147.291 55.7149 147.291 54.148 147.291 54.148C148.307 53.6703 151.322 53.8382 152.887 53.8382C154.453 53.8382 157.468 53.6703 158.483 54.148C158.483 54.148 158.483 55.7149 158.483 56.418C158.483 57.8428 155.978 58.9978 152.887 58.9978Z" fill="#D99530" stroke="black" stroke-linecap="round"/>
  <ellipse cx="152.888" cy="54.115" rx="2.57983" ry="5.59597" transform="rotate(90 152.888 54.115)" fill="#FFFF52" stroke="black" stroke-linecap="round"/>
  <path d="M159.606 54.5232C156.516 54.5232 154.01 53.3682 154.01 51.9434C154.01 51.2403 154.01 49.6734 154.01 49.6734C155.026 49.1957 158.041 49.3635 159.606 49.3635C161.172 49.3635 164.186 49.1957 165.202 49.6734C165.202 49.6734 165.202 51.2403 165.202 51.9434C165.202 53.3682 162.697 54.5232 159.606 54.5232Z" fill="#D99530" stroke="black" stroke-linecap="round"/>
  <ellipse cx="159.604" cy="49.6394" rx="2.57983" ry="5.59597" transform="rotate(90 159.604 49.6394)" fill="#FFFF52" stroke="black" stroke-linecap="round"/>
  <ellipse cx="159.407" cy="60.0798" rx="4.47678" ry="5.59597" transform="rotate(23.3149 159.407 60.0798)" fill="#D99530" stroke="black" stroke-linecap="round"/>
  <ellipse cx="157.352" cy="59.1941" rx="4.47678" ry="5.59597" transform="rotate(23.3149 157.352 59.1941)" fill="#FFFF52" stroke="black" stroke-linecap="round"/>
  <path d="M167.065 57.5046C163.974 57.5046 161.469 56.3496 161.469 54.9248C161.469 54.2218 161.469 52.6549 161.469 52.6549C162.484 52.1772 165.499 52.345 167.065 52.345C168.63 52.345 171.645 52.1772 172.661 52.6549C172.661 52.6549 172.661 54.2218 172.661 54.9248C172.661 56.3496 170.155 57.5046 167.065 57.5046Z" fill="#D99530" stroke="black" stroke-linecap="round"/>
  <ellipse cx="167.064" cy="52.6238" rx="2.57983" ry="5.59597" transform="rotate(90 167.064 52.6238)" fill="#FFFF52" stroke="black" stroke-linecap="round"/>
  <path d="M172.03 54.3661C169.082 53.4397 167.038 51.5868 167.465 50.2275C167.675 49.5568 168.145 48.062 168.145 48.062C169.257 47.9107 172.083 48.9744 173.577 49.4437C175.07 49.9129 177.997 50.6564 178.822 51.4166C178.822 51.4166 178.353 52.9115 178.142 53.5822C177.715 54.9415 174.978 55.2925 172.03 54.3661Z" fill="#D99530" stroke="black" stroke-linecap="round"/>
  <ellipse cx="173.494" cy="49.7077" rx="2.57983" ry="5.59597" transform="rotate(107.442 173.494 49.7077)" fill="#FFFF52" stroke="black" stroke-linecap="round"/>
  <path d="M178.422 107.487C174.367 107.487 171.079 105.972 171.079 104.102C171.079 103.18 171.079 101.124 171.079 101.124C172.412 100.497 176.368 100.717 178.422 100.717C180.476 100.717 184.432 100.497 185.765 101.124C185.765 101.124 185.765 103.18 185.765 104.102C185.765 105.972 182.477 107.487 178.422 107.487Z" fill="#D99530" stroke="black" stroke-linecap="round"/>
  <ellipse cx="178.422" cy="101.083" rx="3.3851" ry="7.3427" transform="rotate(90 178.422 101.083)" fill="#FFFF52" stroke="black" stroke-linecap="round"/>
  <path d="M182.339 102.593C178.284 102.593 174.996 101.077 174.996 99.2078C174.996 98.2853 174.996 96.2293 174.996 96.2293C176.329 95.6025 180.285 95.8227 182.339 95.8227C184.393 95.8227 188.349 95.6024 189.682 96.2293C189.682 96.2293 189.682 98.2853 189.682 99.2078C189.682 101.077 186.394 102.593 182.339 102.593Z" fill="#D99530" stroke="black" stroke-linecap="round"/>
  <ellipse cx="182.339" cy="96.1888" rx="3.3851" ry="7.3427" transform="rotate(90 182.339 96.1888)" fill="#FFFF52" stroke="black" stroke-linecap="round"/>
  <path d="M178.425 98.6768C174.37 98.6768 171.082 97.1613 171.082 95.2917C171.082 94.3692 171.082 92.3132 171.082 92.3132C172.415 91.6864 176.371 91.9066 178.425 91.9066C180.479 91.9066 184.435 91.6864 185.767 92.3132C185.767 92.3132 185.768 94.3692 185.768 95.2917C185.768 97.1613 182.48 98.6768 178.425 98.6768Z" fill="#D99530" stroke="black" stroke-linecap="round"/>
  <ellipse cx="178.423" cy="92.2738" rx="3.3851" ry="7.3427" transform="rotate(90 178.423 92.2738)" fill="#FFFF52" stroke="black" stroke-linecap="round"/>
  <ellipse cx="153.769" cy="91.5683" rx="4.47678" ry="5.59597" transform="rotate(44.2888 153.769 91.5683)" fill="#D99530" stroke="black" stroke-linecap="round"/>
  <ellipse cx="152.168" cy="90.0048" rx="4.47678" ry="5.59597" transform="rotate(44.2888 152.168 90.0048)" fill="#FFFF52" stroke="black" stroke-linecap="round"/>
  <path d="M142.977 66.1041C142.934 66.1585 142.881 66.2035 142.82 66.2362L135.634 70.1055C135.525 70.1646 135.397 70.1806 135.276 70.1504L126.432 67.9393C126.248 67.8934 126.106 67.7476 126.065 67.5627L124.959 62.5879C124.945 62.5228 124.944 62.4556 124.956 62.39L128.272 44.1489C128.31 43.9402 128.476 43.7782 128.685 43.7447L142.504 41.5336C142.672 41.5068 142.841 41.5668 142.955 41.6929L152.904 52.748C153.067 52.9285 153.076 53.1995 152.926 53.3907L142.977 66.1041Z" fill="#921D64" stroke="black" stroke-linejoin="round"/>
  <path d="M142.371 55.1843L135.579 69.2922C135.474 69.5085 135.231 69.6202 134.999 69.5584L127.551 67.5722C127.3 67.5053 127.142 67.2577 127.187 67.0022L130.308 49.3202C130.366 48.9909 130.725 48.8104 131.024 48.9599L142.144 54.5202C142.389 54.6424 142.49 54.9382 142.371 55.1843Z" fill="#D55AAA"/>
  <path d="M128.895 46.4869L126.018 61.8314C126.006 61.8943 126.007 61.9588 126.019 62.0216L126.585 64.8492C126.693 65.3914 127.471 65.3826 127.568 64.8381L130.404 48.7652C130.416 48.6961 130.414 48.6252 130.397 48.5571L129.872 46.4578C129.742 45.9371 128.994 45.9594 128.895 46.4869Z" fill="#AE2A5D"/>
  <path d="M142.583 54.1506V43.3303C142.583 42.8721 143.148 42.6552 143.455 42.9958L151.923 52.4048C152.187 52.6982 152.023 53.1675 151.633 53.2324L143.165 54.6438C142.86 54.6946 142.583 54.4595 142.583 54.1506Z" fill="#BD3789"/>
  <path d="M142.583 53.9318V43.3891C142.583 43.0174 142.192 42.7757 141.859 42.9419L131.317 48.2132C130.948 48.3975 130.948 48.9234 131.317 49.1076L141.859 54.379C142.192 54.5452 142.583 54.3035 142.583 53.9318Z" fill="#F37EC6"/>
  <path d="M129.87 44.1639L138.81 42.9447C139.36 42.8699 139.605 43.6112 139.119 43.8783L130.991 48.3487C130.704 48.5067 130.344 48.35 130.265 48.0318L129.452 44.7806C129.38 44.4918 129.575 44.2042 129.87 44.1639Z" fill="#C73F93"/>
  <path d="M142.03 54.1877L132.157 49.2513C131.564 48.9547 130.852 49.3071 130.728 49.9586L128.764 60.2681" stroke="url(#paint0_linear_30273_23080)" stroke-width="1.2" stroke-linecap="round" stroke-linejoin="round"/>
  <path d="M110.789 35.8944C110.746 36.058 110.624 36.1889 110.463 36.2425C110.303 36.296 110.127 36.2649 109.994 36.1598L97.4428 26.1943C97.3794 26.144 97.3292 26.079 97.2964 26.005L95.5253 22.0015C95.4984 21.9406 95.4839 21.8749 95.4827 21.8082L95.1962 5.88445C95.1924 5.67235 95.3228 5.48093 95.5216 5.4069L106.788 1.21137C106.947 1.15217 107.125 1.17761 107.261 1.27893L117.508 8.91038C117.671 9.03203 117.744 9.24058 117.693 9.43764L110.789 35.8944Z" fill="#921D64" stroke="black" stroke-linejoin="round"/>
  <path d="M108.987 12.865L105.679 25.7707C105.62 26.0033 105.403 26.1606 105.164 26.1456L98.6777 25.738C98.4187 25.7217 98.2152 25.51 98.2092 25.2505L97.8555 9.98995C97.8478 9.65563 98.1641 9.40808 98.4867 9.49593L108.634 12.2585C108.897 12.3302 109.055 12.6004 108.987 12.865Z" fill="#D55AAA"/>
  <path d="M96.1902 8.07003L96.3536 21.1437C96.3544 21.2077 96.3674 21.2709 96.3921 21.33L97.1964 23.2579C97.4093 23.7682 98.1705 23.6065 98.1577 23.0538L97.8419 9.42671C97.8403 9.35653 97.8239 9.28748 97.7938 9.22405L97.142 7.84954C96.912 7.3646 96.1835 7.53337 96.1902 8.07003Z" fill="#AE2A5D"/>
  <path d="M108.993 11.8093L107.218 2.9575C107.128 2.5082 107.64 2.1845 108.007 2.45822L116.478 8.76673C116.794 9.00253 116.725 9.49499 116.356 9.63516L109.66 12.1785C109.372 12.2882 109.053 12.1123 108.993 11.8093Z" fill="#BD3789"/>
  <path d="M108.949 11.5958L107.214 2.93972C107.141 2.57528 106.71 2.41513 106.417 2.64346L98.6284 8.70671C98.3032 8.95981 98.4066 9.47546 98.8042 9.58369L108.328 12.1765C108.686 12.2741 109.022 11.9602 108.949 11.5958Z" fill="#F37EC6"/>
  <path d="M96.6887 5.59942L103.58 3.21286C104.104 3.0315 104.49 3.71019 104.066 4.06753L98.3353 8.90148C98.0846 9.11292 97.7017 9.02984 97.5612 8.73352L96.4006 6.28613C96.273 6.01709 96.4074 5.69685 96.6887 5.59942Z" fill="#C73F93"/>
  <path d="M108.55 12.016L99.5807 9.57416C98.9408 9.39995 98.3116 9.88551 98.318 10.5487L98.403 19.3772" stroke="url(#paint1_linear_30273_23080)" stroke-width="1.2" stroke-linecap="round" stroke-linejoin="round"/>
  <path d="M84.9514 49.749L104.204 51.7406L147.355 65.6818L155.321 89.5811L52.4219 98.8752L26.5311 92.2365L25.2033 86.9256L35.1613 61.0348L84.9514 49.749Z" fill="#BBBBBB" stroke="black" stroke-linecap="round" stroke-linejoin="round"/>
  <path d="M85.115 49.7679L101.074 51.4188C102.044 51.5192 102.311 52.8069 101.461 53.2851L93.7378 57.6296C93.6346 57.6877 93.5219 57.7269 93.4049 57.7456L48.0082 64.9827C47.8548 65.0072 47.6978 64.9956 47.5496 64.9488L38.6837 62.149C37.7107 61.8418 37.7687 60.4457 38.7638 60.2202L84.7911 49.7873C84.8973 49.7633 85.0067 49.7567 85.115 49.7679Z" fill="#838E97"/>
  <path d="M26.5301 92.2357L52.4209 98.2105L47.7738 78.2945L34.4965 73.6475L26.5301 92.2357Z" fill="#999999" stroke="black" stroke-linecap="round" stroke-linejoin="round"/>
  <path d="M34.4977 73.6471L35.8255 61.6975L105.532 52.4033L144.7 66.3445L47.7751 78.2941L34.4977 73.6471Z" fill="#D9D9D9" stroke="black" stroke-linecap="round" stroke-linejoin="round"/>
  <path d="M73.0018 5.93262L92.2539 7.92422L102.212 42.4453L38.4807 65.0168L37.1529 27.8402L39.8084 7.92422L73.0018 5.93262Z" fill="#D9D9D9" stroke="black" stroke-linecap="round" stroke-linejoin="round"/>
  <path d="M45.0947 13.4241L92.1332 8.09863L102.211 42.4474L37.9362 64.4283L45.0947 13.4241Z" fill="#BBBBBB" stroke="black" stroke-linecap="round" stroke-linejoin="round"/>
  <path d="M37.1532 27.8417L37.9374 64.8747L45.1196 13.2366L39.7773 8.09766L37.1532 27.8417Z" fill="#999999" stroke="black" stroke-linecap="round" stroke-linejoin="round"/>
  <path d="M92.9173 29.168L112.169 31.1596L118.808 64.3529L55.7407 71.6555L38.4802 64.3529L43.1272 40.4537L92.9173 29.168Z" fill="#BBBBBB" stroke="black" stroke-linecap="round" stroke-linejoin="round"/>
  <path d="M93.345 29.1475L112.597 31.1391L101.975 37.1139L56.1685 44.4164L43.555 40.4332L93.345 29.1475Z" fill="#D9D9D9" stroke="black" stroke-linecap="round" stroke-linejoin="round"/>
  <path d="M38.1567 64.7738L55.4292 71.7907L52.7619 45.0073L43.5544 40.4844L38.1567 64.7738Z" fill="#999999" stroke="black" stroke-linecap="round" stroke-linejoin="round"/>
  <path d="M118.144 63.0283L85.6149 67.0115L90.262 98.2133L122.792 94.2301L118.144 63.0283Z" fill="black"/>
  <path d="M64.726 49.2225L68.3696 48.5832C68.8851 48.4928 69.3832 48.8152 69.5118 49.3226L72.8608 62.5427C72.948 62.8866 72.8464 63.2509 72.5939 63.5L68.9945 67.0521C68.4313 67.6079 67.4763 67.3204 67.3135 66.5462L63.9202 50.4133C63.8038 49.8599 64.169 49.3202 64.726 49.2225Z" fill="#553322" stroke="black" stroke-linejoin="round"/>
  <path d="M74.0157 62.2942L118.908 53.3157C119.537 53.1899 120.12 53.6801 120.104 54.3211L119.89 62.9405C119.878 63.4179 119.53 63.8203 119.059 63.9012L81.7387 70.3124C81.6671 70.3247 81.5944 70.3291 81.5218 70.3257L69.6742 69.7615C68.8535 69.7224 68.4275 68.7653 68.9478 68.1294L73.4378 62.6416C73.5844 62.4624 73.7886 62.3396 74.0157 62.2942Z" fill="#553322" stroke="black" stroke-linejoin="round"/>
  <path d="M90.8308 82.7374L87.2114 62.6658C87.1147 62.1296 86.6066 61.7694 86.0686 61.8559L76.6059 63.3769C76.0758 63.4622 75.7075 63.9509 75.7718 64.484L80.2789 101.867C80.3451 102.415 80.8431 102.806 81.3914 102.74L94.4375 101.167C95.0384 101.095 95.4377 100.51 95.2858 99.9238L90.8308 82.7374Z" fill="#DDAA44" stroke="black" stroke-linejoin="round"/>
  <path d="M134.647 74.7716L131.027 54.7C130.931 54.1637 130.422 53.8036 129.885 53.8901L120.422 55.4111C119.892 55.4963 119.523 55.985 119.588 56.5182L124.095 93.9013C124.161 94.4496 124.659 94.8406 125.207 94.7745L138.253 93.2017C138.854 93.1292 139.254 92.5438 139.102 91.9579L134.647 74.7716Z" fill="#DDAA44" stroke="black" stroke-linejoin="round"/>
  <path d="M74.2628 99.6339L70.4265 67.0257C70.3783 66.6161 70.5866 66.2188 70.951 66.0255L74.3709 64.2112C74.9911 63.8821 75.7484 64.2778 75.8324 64.9748L80.1905 101.122C80.2831 101.89 79.5057 102.468 78.7969 102.158L74.8552 100.433C74.5298 100.291 74.3043 99.9866 74.2628 99.6339Z" fill="#AA6622" stroke="black" stroke-linejoin="round"/>
  <path d="M118.078 91.6681L114.241 59.0599C114.193 58.6502 114.402 58.253 114.766 58.0597L118.186 56.2453C118.806 55.9163 119.563 56.312 119.647 57.009L124.005 93.1558C124.098 93.924 123.321 94.5018 122.612 94.1917L118.67 92.4674C118.345 92.3251 118.119 92.0208 118.078 91.6681Z" fill="#AA6622" stroke="black" stroke-linejoin="round"/>
  <path d="M69.8636 48.554L128.948 39.2759C129.478 39.1927 129.979 39.5425 130.084 40.0686L131.732 48.3517C131.775 48.5689 131.745 48.7942 131.647 48.9924L131.291 49.7068C131.046 50.1999 131.245 50.7985 131.738 51.0458L132.199 51.2777C132.537 51.4474 132.75 51.7931 132.75 52.1712V52.6134C132.75 53.1048 132.393 53.5235 131.908 53.6009L73.7908 62.8719C73.2534 62.9576 72.7461 62.5979 72.6492 62.0624L70.9936 52.9107C70.9528 52.6855 71.0936 52.4672 71.3156 52.4114C71.8128 52.2865 71.7223 51.5545 71.2096 51.5545H69.647C69.3 51.5545 69.0188 51.2733 69.0188 50.9263V49.5419C69.0188 49.0495 69.3772 48.6304 69.8636 48.554Z" fill="#DDAA44" stroke="black" stroke-linecap="round" stroke-linejoin="round"/>
  <path d="M73.6657 51.742L100.884 47.7588" stroke="black" stroke-linecap="round" stroke-linejoin="round"/>
  <path d="M128.767 50.415L115.49 52.4066" stroke="black" stroke-linecap="round" stroke-linejoin="round"/>
  <path d="M161.852 86.0564C161.955 86.2333 161.94 86.4553 161.814 86.6165L153.477 97.2699C153.434 97.3243 153.381 97.3693 153.32 97.402L147.299 100.644C147.189 100.703 147.061 100.719 146.94 100.689L139.529 98.8364C139.345 98.7905 139.203 98.6447 139.162 98.4598L138.236 94.2911C138.221 94.226 138.22 94.1588 138.232 94.0932L141.011 78.8079C141.039 78.653 141.139 78.5205 141.28 78.4501L146.838 75.671C146.93 75.6246 147.035 75.6082 147.138 75.624L153.159 76.5504C153.238 76.5625 153.313 76.5933 153.377 76.6402L158.472 80.3457C158.528 80.3864 158.575 80.4383 158.61 80.4981L161.852 86.0564Z" fill="#A91C57" stroke="black" stroke-linejoin="round"/>
  <path d="M152.869 88.1405L147.241 99.83C147.136 100.046 146.893 100.158 146.661 100.096L140.556 98.4683C140.306 98.4014 140.148 98.1538 140.193 97.8983L142.776 83.2616C142.834 82.9323 143.193 82.7518 143.492 82.9013L152.642 87.4764C152.886 87.5986 152.987 87.8943 152.869 88.1405Z" fill="#E02D72"/>
  <path d="M141.545 81.1461L139.205 93.6244C139.193 93.6873 139.193 93.7518 139.206 93.8146L139.592 95.7466C139.701 96.2887 140.479 96.2799 140.575 95.7354L142.874 82.7079C142.886 82.6387 142.884 82.5678 142.867 82.4997L142.521 81.117C142.391 80.5963 141.643 80.6186 141.545 81.1461Z" fill="#AE2A5D"/>
  <path d="M153.166 87.0337L153.941 80.8334C153.978 80.5409 154.258 80.3434 154.546 80.4073L157.976 81.1695C158.105 81.1983 158.218 81.2773 158.289 81.3892L161.015 85.6722C161.207 85.9744 161.029 86.3749 160.675 86.4338L153.744 87.5889C153.415 87.6439 153.125 87.3656 153.166 87.0337Z" fill="#D71243"/>
  <path d="M153.17 86.9978L153.962 80.6613C153.99 80.4402 153.868 80.2275 153.663 80.1397L147.851 77.6491C147.656 77.5651 147.428 77.6146 147.285 77.7723L143.336 82.1155C143.113 82.3607 143.186 82.7509 143.483 82.8991L152.45 87.383C152.759 87.5372 153.127 87.3401 153.17 86.9978Z" fill="#FC8AA7"/>
  <path d="M155.831 80.6905L154.055 80.2957C154.025 80.289 153.995 80.2795 153.967 80.2672L147.828 77.6363C147.644 77.5575 147.525 77.3745 147.525 77.1744C147.525 76.8655 147.802 76.6263 148.107 76.6771L152.967 77.4871C153.043 77.4998 153.116 77.5302 153.179 77.5759L156.234 79.798C156.673 80.117 156.361 80.8081 155.831 80.6905Z" fill="#BF1131"/>
  <path d="M142.363 78.7316L146.845 76.8643C147.168 76.7296 147.524 76.9672 147.524 77.3176C147.524 77.4398 147.479 77.5575 147.397 77.6479L143.521 81.9112C143.252 82.2067 142.763 82.0836 142.666 81.6962L142.07 79.3144C142.01 79.0744 142.135 78.8267 142.363 78.7316Z" fill="#AF1043"/>
  <path d="M152.621 87.2335L144.539 83.1927C143.946 82.8961 143.234 83.2485 143.109 83.9L141.504 92.3286" stroke="url(#paint2_linear_30273_23080)" stroke-width="1.2" stroke-linecap="round" stroke-linejoin="round"/>
  <path d="M93.0076 44.2667C92.8114 44.3024 92.6128 44.2181 92.5021 44.0522L88.6674 38.3H83.624C83.3946 38.3 83.1946 38.1439 83.139 37.9213L79.8196 24.6439C79.7837 24.5004 79.8133 24.3483 79.9003 24.2286L85.2113 16.926C85.2939 16.8123 85.4207 16.7387 85.5604 16.7232L103.485 14.7316C103.644 14.7139 103.802 14.7736 103.91 14.8922L110.549 22.1947C110.649 22.305 110.695 22.4542 110.674 22.6018L108.018 41.19C107.988 41.4031 107.824 41.5728 107.613 41.6113L93.0076 44.2667Z" fill="#921D64" stroke="black" stroke-linejoin="round"/>
  <path d="M95.4524 26.3417L81.1428 25.0974C80.3677 25.03 79.9631 24.1422 80.4207 23.513L85.0815 17.1045C85.2468 16.8771 85.5003 16.7299 85.7798 16.6988L103.231 14.7597C103.55 14.7244 103.866 14.8438 104.082 15.081L109.972 21.5607C110.487 22.1273 110.201 23.0388 109.454 23.2085L95.7607 26.3206C95.6596 26.3436 95.5557 26.3507 95.4524 26.3417Z" fill="#F896CB" stroke="black" stroke-linejoin="round"/>
  <path d="M95.5736 16.9798V25.224C95.5736 25.5449 95.8716 25.7827 96.1844 25.7116L109.343 22.7209C109.717 22.6361 109.86 22.1803 109.602 21.897L103.723 15.4302C103.609 15.3045 103.439 15.2454 103.271 15.2733L95.9914 16.4866C95.7503 16.5268 95.5736 16.7354 95.5736 16.9798Z" fill="#C53382"/>
  <path d="M93.2517 43.7003L98.4178 42.5523C98.6819 42.4936 98.8514 42.2354 98.8003 41.9698L95.6474 25.5743C95.6036 25.3469 95.4094 25.1792 95.1781 25.1692L80.9731 24.5516C80.6391 24.537 80.3852 24.848 80.4663 25.1724L83.5285 37.4211C83.5841 37.6437 83.7841 37.7998 84.0135 37.7998H88.6665C88.8337 37.7998 88.9898 37.8834 89.0825 38.0225L92.7272 43.4895C92.8418 43.6614 93.0502 43.7451 93.2517 43.7003Z" fill="#D5429C"/>
  <path d="M107.157 41.1749L99.369 42.3731C99.1033 42.4139 98.8528 42.2373 98.802 41.9733L95.669 25.6817C95.6165 25.4086 95.7969 25.1451 96.0706 25.0954L109.496 22.6544C109.832 22.5933 110.129 22.8792 110.081 23.217L107.576 40.7515C107.545 40.9695 107.374 41.1415 107.157 41.1749Z" fill="#921D64"/>
  <path d="M81.6315 24.4767L95.7466 24.4769M95.7466 24.4769L98.8917 41.7829M95.7466 24.4769L95.7466 17.2197" stroke="url(#paint3_linear_30273_23080)" stroke-width="1.2" stroke-linecap="round" stroke-linejoin="round"/>
  <path d="M91.9228 102.65C91.8802 102.704 91.8268 102.749 91.7661 102.782L86.9614 105.369C86.8517 105.428 86.7239 105.444 86.6031 105.414L80.6896 103.935C80.5059 103.89 80.3639 103.744 80.3228 103.559L79.5836 100.233C79.5691 100.167 79.5678 100.1 79.5798 100.035L81.7973 87.8381C81.8353 87.6294 82.0008 87.4674 82.2102 87.4339L91.45 85.9555C91.6175 85.9287 91.7872 85.9887 91.9007 86.1147L98.5533 93.5066C98.7157 93.687 98.725 93.958 98.5754 94.1492L91.9228 102.65Z" fill="#921D64" stroke="black" stroke-linejoin="round"/>
  <path d="M91.3151 95.3951L86.9036 104.557C86.7995 104.774 86.5563 104.885 86.3243 104.824L81.6236 103.57C81.3728 103.503 81.2149 103.256 81.26 103L83.2813 91.5458C83.3394 91.2165 83.6982 91.0359 83.9973 91.1855L91.0882 94.7309C91.3326 94.8531 91.4336 95.1489 91.3151 95.3951Z" fill="#D55AAA"/>
  <path d="M82.2371 90.1783L80.4591 99.6614C80.4473 99.7243 80.4477 99.7888 80.4602 99.8516L80.6594 100.848C80.7679 101.39 81.546 101.381 81.6421 100.836L83.3794 90.9913C83.3916 90.9221 83.3892 90.8512 83.3721 90.7831L83.2137 90.1492C83.0835 89.6285 82.3361 89.6508 82.2371 90.1783Z" fill="#AE2A5D"/>
  <path d="M91.529 94.3596V87.7522C91.529 87.294 92.0941 87.0771 92.4007 87.4177L97.5716 93.1633C97.8357 93.4567 97.6716 93.926 97.2822 93.9909L92.1112 94.8528C91.8064 94.9036 91.529 94.6685 91.529 94.3596Z" fill="#BD3789"/>
  <path d="M91.5293 94.1403V87.6274C91.5293 87.2557 91.1381 87.0139 90.8057 87.1802L84.2927 90.4366C83.9242 90.6209 83.9242 91.1468 84.2927 91.3311L90.8057 94.5876C91.1381 94.7538 91.5293 94.512 91.5293 94.1403Z" fill="#F37EC6"/>
  <path d="M83.2124 87.8517L88.1234 87.1821C88.6726 87.1072 88.9176 87.8485 88.432 88.1156L83.9673 90.5711C83.68 90.7292 83.3209 90.5724 83.2413 90.2543L82.7949 88.4684C82.7226 88.1796 82.9173 87.892 83.2124 87.8517Z" fill="#C73F93"/>
  <path d="M91.1587 94.5816L84.9491 91.4769C84.3559 91.1803 83.6436 91.5327 83.5196 92.1842L82.2885 98.6471" stroke="url(#paint4_linear_30273_23080)" stroke-width="1.2" stroke-linecap="round" stroke-linejoin="round"/>
  <path d="M85.4268 99.3832C85.619 99.4579 85.7456 99.6429 85.7456 99.8492V105.855C85.7456 106.044 85.6386 106.218 85.4692 106.302L80.8493 108.612C80.7799 108.647 80.7033 108.665 80.6257 108.665H71.386C71.2431 108.665 71.1071 108.604 71.0122 108.497L67.3163 104.339C67.185 104.191 67.153 103.98 67.2349 103.8L69.5448 98.7183C69.6023 98.5917 69.71 98.4948 69.8419 98.4508L76.7717 96.1409C76.8823 96.104 77.0024 96.107 77.111 96.1492L85.4268 99.3832Z" fill="#F57EC3" stroke="black" stroke-linejoin="round"/>
  <path d="M84.5028 106.228L81.1646 107.897C80.8846 108.037 80.5462 107.889 80.4602 107.587L79.8071 105.302C79.745 105.084 79.8366 104.852 80.0306 104.736L81.7306 103.716C81.9013 103.613 82.1165 103.622 82.2784 103.737L84.5698 105.374C84.8764 105.593 84.8398 106.06 84.5028 106.228Z" fill="#EA2978"/>
  <path d="M72.144 108.165H79.9626C80.2948 108.165 80.5346 107.847 80.4434 107.527L79.8051 105.293C79.7438 105.079 79.5476 104.931 79.3244 104.931H73.1014C72.9014 104.931 72.7206 105.05 72.6418 105.234L71.6844 107.468C71.543 107.798 71.785 108.165 72.144 108.165Z" fill="#FAC7EA"/>
  <path d="M70.8624 107.576L68.0028 104.359C67.8269 104.161 67.8358 103.86 68.023 103.673L69.2102 102.486C69.3949 102.301 69.6907 102.289 69.8891 102.46L72.4926 104.691C72.6586 104.833 72.7129 105.067 72.6268 105.268L71.6957 107.44C71.5514 107.777 71.1058 107.849 70.8624 107.576Z" fill="#F178C2"/>
  <path d="M69.8864 99.1755L68.1468 103.003C68.0547 103.205 68.3128 103.384 68.4703 103.227L69.4703 102.227C69.5152 102.182 69.5512 102.129 69.5763 102.07L70.6688 99.521C70.7898 99.2387 70.5828 98.9248 70.2757 98.9248C70.108 98.9248 69.9558 99.0228 69.8864 99.1755Z" fill="#DF399A"/>
  <path d="M85.2456 104.882V100.258C85.2456 100.019 85.0774 99.8141 84.8437 99.7673L83.4156 99.4817C83.1489 99.4284 82.8885 99.598 82.8295 99.8636L82.0835 103.221C82.0399 103.416 82.1177 103.619 82.2809 103.736L84.455 105.289C84.7859 105.525 85.2456 105.289 85.2456 104.882Z" fill="#D52C6B"/>
  <path d="M82.0117 103.542L79.7018 104.928M79.7018 104.928H72.7719M79.7018 104.928L80.6258 108.162M72.7719 104.928L69.538 102.156M72.7719 104.928L71.386 108.162" stroke="url(#paint5_linear_30273_23080)" stroke-width="1.2" stroke-linecap="round" stroke-linejoin="round"/>
  <path d="M110.376 99.1421C110.568 99.2168 110.695 99.4019 110.695 99.6081V106.878C110.695 107.068 110.588 107.241 110.418 107.326L104.826 110.122C104.757 110.157 104.68 110.175 104.602 110.175H93.4173C93.2745 110.175 93.1385 110.114 93.0436 110.007L88.5696 104.974C88.4383 104.826 88.4064 104.614 88.4882 104.434L91.2844 98.2827C91.3419 98.1561 91.4496 98.0592 91.5815 98.0153L99.9702 95.219C100.081 95.1821 100.201 95.1851 100.31 95.2274L110.376 99.1421Z" fill="#F57EC3" stroke="black" stroke-linejoin="round"/>
  <path d="M109.454 107.251L105.143 109.406C104.863 109.546 104.525 109.397 104.439 109.096L103.591 106.13C103.529 105.912 103.621 105.68 103.815 105.563L106.001 104.252C106.172 104.149 106.387 104.158 106.549 104.274L109.521 106.397C109.828 106.616 109.791 107.082 109.454 107.251Z" fill="#EA2978"/>
  <path d="M94.1758 109.674H103.94C104.272 109.674 104.512 109.356 104.42 109.036L103.588 106.121C103.526 105.907 103.33 105.759 103.107 105.759H95.425C95.225 105.759 95.0442 105.878 94.9654 106.062L93.7163 108.977C93.5749 109.307 93.8169 109.674 94.1758 109.674Z" fill="#FAC7EA"/>
  <path d="M92.8939 109.086L89.2562 104.994C89.0803 104.796 89.0892 104.495 89.2764 104.308L90.8526 102.732C91.0373 102.547 91.3332 102.536 91.5315 102.706L94.8159 105.521C94.9818 105.663 95.0361 105.896 94.9501 106.097L93.7271 108.951C93.5828 109.288 93.1373 109.36 92.8939 109.086Z" fill="#F178C2"/>
  <path d="M91.6052 98.7824L89.3986 103.637C89.3064 103.84 89.5646 104.019 89.7221 103.861L91.1111 102.472C91.1561 102.427 91.1921 102.374 91.2171 102.315L92.5582 99.1862C92.6996 98.8563 92.4576 98.4893 92.0987 98.4893H92.0604C91.8643 98.4893 91.6863 98.6039 91.6052 98.7824Z" fill="#DF399A"/>
  <path d="M110.194 105.907V100.018C110.194 99.7796 110.026 99.5744 109.792 99.5277L107.878 99.1448C107.611 99.0915 107.351 99.2611 107.292 99.5266L106.351 103.759C106.308 103.955 106.386 104.158 106.549 104.274L109.404 106.314C109.735 106.55 110.194 106.313 110.194 105.907Z" fill="#D52C6B"/>
  <path d="M106.28 104.084L103.484 105.762M103.484 105.762H95.0953M103.484 105.762L104.603 109.676M95.0953 105.762L91.1805 102.406M95.0953 105.762L93.4175 109.676" stroke="url(#paint6_linear_30273_23080)" stroke-width="1.2" stroke-linecap="round" stroke-linejoin="round"/>
  <path d="M52.2929 96.5519C57.255 97.6643 56.6577 103.875 55.7388 106.841C55.7388 108.602 53.7632 112.18 45.8607 112.403C37.9582 112.625 38.8924 104.894 40.3473 101.001C42.2617 99.0547 47.3309 95.4396 52.2929 96.5519Z" fill="#999999" stroke="black" stroke-linecap="round" stroke-linejoin="round"/>
  <path d="M52.2929 96.5519C57.255 97.6643 56.6577 103.875 55.7388 106.841C52.829 107.768 45.6769 107.898 40.3473 101.001C42.2617 99.0547 47.3309 95.4396 52.2929 96.5519Z" fill="#D9D9D9" stroke="black" stroke-linecap="round" stroke-linejoin="round"/>
  <path d="M42.7646 110.031C43.6069 105.86 42.9943 96.2383 33.8054 91.1215C24.6164 86.0047 14.968 87.3209 11.2925 88.6187C9.3781 90.0091 5.59531 94.681 5.77909 102.245C5.95375 109.434 10.1122 113.246 15.4275 113.806C32.8865 119.495 40.9268 113.66 42.7646 110.031Z" fill="#D9D9D9"/>
  <path d="M11.2925 88.6187C14.968 87.3209 24.6164 86.0047 33.8054 91.1215C42.9943 96.2383 43.6069 105.86 42.7646 110.031C40.9268 113.66 32.8865 119.495 15.4275 113.806M11.2925 88.6187C9.3781 90.0091 5.59531 94.681 5.77909 102.245C5.95375 109.434 10.1122 113.246 15.4275 113.806M11.2925 88.6187C17.7247 91.3995 25.3056 97.7956 27.6029 102.245C29.9001 106.694 28.292 111.422 20.7112 113.368C18.894 113.835 17.1033 113.982 15.4275 113.806" stroke="black" stroke-linecap="round" stroke-linejoin="round"/>
  <path d="M11.2911 88.6191C9.3767 90.0096 5.59391 94.6815 5.77769 102.245C5.95235 109.434 10.1108 113.247 15.4261 113.806C32.8851 119.495 40.9254 113.66 42.7632 110.032C39.5453 109.846 32.1913 108.92 28.5178 106.695C28.7022 105.257 28.3709 103.736 27.6015 102.245C25.3042 97.796 17.7233 91.4 11.2911 88.6191Z" fill="#676767"/>
  <path d="M15.4261 113.806C10.1108 113.247 5.95235 109.434 5.77769 102.245C5.59391 94.6815 9.3767 90.0096 11.2911 88.6191C17.7233 91.4 25.3042 97.796 27.6015 102.245C28.3709 103.736 28.7022 105.257 28.5178 106.695M15.4261 113.806C17.1019 113.983 18.8926 113.836 20.7097 113.369C25.7516 112.074 28.1515 109.55 28.5178 106.695M15.4261 113.806C32.8851 119.495 40.9254 113.66 42.7632 110.032C39.5453 109.846 32.1913 108.92 28.5178 106.695" stroke="black" stroke-linecap="round" stroke-linejoin="round"/>
  <path d="M5.77836 102.244C5.59458 94.6805 9.37737 90.0086 11.2917 88.6182C17.724 91.399 25.3049 97.7951 27.6021 102.244C29.8994 106.694 28.2913 111.421 20.7104 113.368C18.8933 113.835 17.1025 113.982 15.4268 113.805C10.1115 113.246 5.95302 109.433 5.77836 102.244Z" fill="#999999" stroke="black" stroke-linecap="round" stroke-linejoin="round"/>
  <rect x="55.3174" y="40.5156" width="82.7889" height="26.5292" rx="4" transform="rotate(-8.95502 55.3174 40.5156)" fill="#866224" stroke="black" stroke-linecap="round"/>
  <rect x="58.1016" y="38.0195" width="83.4458" height="25.4301" rx="4" transform="rotate(-8.95502 58.1016 38.0195)" fill="#E9B965" stroke="black" stroke-linecap="round"/>
  <path opacity="0.8" d="M78.122 50.8689C78.5528 50.9349 78.7995 51.1735 78.8621 51.5848C78.9207 51.9704 78.7699 52.3045 78.4097 52.5872C78.0494 52.87 77.3852 53.085 76.417 53.2322C75.2089 53.416 74.1279 53.2824 73.1739 52.8314C72.2284 52.3792 71.6241 51.2876 71.3608 49.5569C71.2278 48.6829 71.2578 47.8719 71.4508 47.1237C71.6438 46.3755 72.0047 45.7507 72.5333 45.2495C73.0705 44.747 73.7718 44.43 74.6372 44.2983C75.7939 44.1224 76.6352 44.1785 77.1612 44.4666C77.6859 44.7462 77.9873 45.1431 78.0655 45.6572C78.102 45.8971 78.0759 46.129 77.9873 46.3528C77.8973 46.5682 77.7408 46.7498 77.5179 46.8976C77.3279 47.0317 77.0701 47.1236 76.7445 47.1731L76.3955 47.213C76.3257 47.2149 76.2265 47.2256 76.098 47.2451C75.6524 47.3129 75.3135 47.4477 75.0812 47.6496C74.8477 47.843 74.7085 48.1096 74.6638 48.4495C75.021 48.3776 75.3453 48.3195 75.6366 48.2752C76.502 48.1436 77.0671 48.0839 77.332 48.0962C77.6324 48.1119 77.8728 48.1937 78.0531 48.3416C78.242 48.4882 78.354 48.6771 78.3892 48.9085C78.4244 49.1398 78.3779 49.3529 78.2497 49.5477C78.1203 49.734 77.9059 49.8805 77.6066 49.9874C77.3745 50.0753 76.7957 50.1897 75.8704 50.3305C75.4934 50.3878 75.2271 50.4239 75.0716 50.4388C75.4232 50.9639 75.9632 51.1711 76.6915 51.0603C76.7343 51.0537 76.8316 51.0302 76.9832 50.9896C77.1862 50.9412 77.3606 50.9059 77.5062 50.8837C77.7547 50.8459 77.9599 50.841 78.122 50.8689ZM82.1165 52.3652C81.4482 52.4669 80.8771 52.4004 80.403 52.1656C79.9277 51.9224 79.6464 51.5137 79.5591 50.9396C79.4835 50.4427 79.642 50.0153 80.0346 49.6575C80.4273 49.2997 80.9492 49.0713 81.6004 48.9722C81.8403 48.9357 82.0663 48.9233 82.2785 48.9348C82.4979 48.9365 82.6501 48.9572 82.735 48.9969C82.7024 48.7827 82.5857 48.6207 82.385 48.511C82.1829 48.3927 81.8976 48.3616 81.5292 48.4176C81.3664 48.4424 81.2355 48.4755 81.1366 48.5168C81.0377 48.5582 80.9322 48.6137 80.8201 48.6833C80.7079 48.753 80.6024 48.8085 80.5035 48.8498C80.4132 48.8899 80.2866 48.9223 80.1238 48.947C79.8496 48.9887 79.625 48.9528 79.4499 48.8391C79.2735 48.717 79.1632 48.5102 79.1189 48.2189C79.068 47.8847 79.145 47.5837 79.3497 47.3159C79.563 47.0468 79.8454 46.8285 80.1968 46.661C80.547 46.485 80.9063 46.369 81.2748 46.313C82.003 46.2022 82.6322 46.2467 83.1623 46.4466C83.6997 46.6366 84.1179 46.9368 84.417 47.3472C84.7247 47.7562 84.9196 48.2306 85.0017 48.7704C85.046 49.0617 85.0614 49.3355 85.0478 49.5918C85.0427 49.8468 85.0121 50.0487 84.9558 50.1975C85.0914 50.2821 85.1996 50.3884 85.2805 50.5163C85.3699 50.643 85.4257 50.7792 85.4478 50.9248C85.4856 51.1733 85.4325 51.4005 85.2885 51.6065C85.1531 51.8112 84.9483 51.9344 84.6741 51.9761C84.4685 52.0074 84.2969 52.0028 84.1592 51.9624C84.0216 51.922 83.8701 51.8486 83.7049 51.7422C83.5103 51.9033 83.289 52.0334 83.0411 52.1325C82.8017 52.2303 82.4935 52.3079 82.1165 52.3652ZM82.1761 51.028C82.3561 51.0007 82.4916 50.9406 82.5826 50.8479C82.6823 50.7538 82.7237 50.6511 82.7067 50.5397C82.6898 50.4283 82.6197 50.3425 82.4966 50.2824C82.3821 50.2209 82.2348 50.2038 82.0549 50.2312C81.875 50.2586 81.7352 50.3193 81.6355 50.4133C81.5444 50.5061 81.5074 50.6082 81.5243 50.7196C81.5413 50.8309 81.607 50.9174 81.7216 50.9788C81.8447 51.039 81.9962 51.0554 82.1761 51.028ZM87.4789 51.5495C86.9305 51.6329 86.5132 51.3676 86.227 50.7537C85.9493 50.1385 85.7244 49.2653 85.5524 48.1344C85.4742 47.6203 85.4304 47.1886 85.4211 46.8394C85.4191 46.4803 85.4898 46.1671 85.6332 45.8998C85.7839 45.6226 86.0521 45.4547 86.4376 45.3961C86.6775 45.3596 86.8959 45.3833 87.0928 45.4674C87.2982 45.5501 87.4423 45.6903 87.525 45.8881C87.6874 45.6881 87.9121 45.5224 88.1989 45.3911C88.4858 45.2598 88.8005 45.1681 89.1433 45.116C89.4175 45.0743 89.7063 45.1004 90.0099 45.1945C90.3221 45.2873 90.5907 45.4393 90.8157 45.6505C91.0479 45.8519 91.1849 46.0897 91.2266 46.3638C91.2684 46.638 91.207 46.8972 91.0425 47.1414C90.8853 47.3757 90.6482 47.517 90.3311 47.5652C90.2283 47.5808 90.1278 47.583 90.0297 47.5716C89.9401 47.5589 89.8591 47.545 89.7866 47.5297C89.6048 47.4872 89.4625 47.4738 89.3597 47.4894C89.0255 47.5403 88.7501 47.718 88.5335 48.0227C88.3241 48.3176 88.2507 48.6706 88.3133 49.0819C88.3824 49.536 88.4226 49.9156 88.4339 50.2207C88.4453 50.5258 88.3835 50.8113 88.2487 51.0773C88.1125 51.3347 87.8559 51.4921 87.4789 51.5495ZM97.3805 50.0432C97.072 50.0901 96.8276 50.0396 96.6474 49.8917C96.4756 49.7425 96.3537 49.5463 96.2817 49.303C96.2096 49.0598 96.1436 48.7411 96.0836 48.3469C96.0067 47.8414 95.8789 47.462 95.7001 47.2087C95.5213 46.9553 95.2776 46.8521 94.9692 46.8991C94.6864 46.9421 94.4931 47.1118 94.3891 47.4081C94.2925 47.6946 94.28 48.0734 94.3517 48.5447C94.4207 48.9988 94.46 49.3434 94.4695 49.5787C94.479 49.8139 94.4246 50.0326 94.3063 50.2347C94.1867 50.4282 93.9598 50.5504 93.6257 50.6012C93.1373 50.6755 92.747 50.4149 92.4548 49.8194C92.1613 49.2154 91.95 48.4892 91.821 47.641C91.5081 45.5846 91.7844 44.4906 92.6498 44.359C92.8897 44.3225 93.0959 44.3525 93.2684 44.449C93.4395 44.5369 93.5714 44.6834 93.664 44.8885C93.7571 44.7516 93.9122 44.6184 94.1292 44.489C94.3547 44.3582 94.6003 44.2727 94.8659 44.2323C95.8084 44.0889 96.5632 44.3247 97.1301 44.9398C97.7056 45.5536 98.0827 46.4473 98.2612 47.6212C98.3668 48.3152 98.3603 48.8772 98.2416 49.3073C98.1216 49.7288 97.8346 49.9741 97.3805 50.0432ZM110.78 42.0217C110.942 43.0841 110.814 43.9715 110.396 44.6837C109.978 45.3874 109.334 45.9105 108.465 46.2529C108.492 46.3716 108.525 46.5552 108.562 46.8036C108.635 47.2834 108.551 47.6777 108.308 47.9863C108.073 48.285 107.763 48.4637 107.377 48.5224C106.966 48.585 106.586 48.5069 106.237 48.2882C105.887 48.061 105.677 47.716 105.606 47.2533C105.566 46.9877 105.541 46.7943 105.531 46.673C104.649 46.5793 103.913 46.266 103.324 45.7333C102.743 45.1993 102.379 44.4482 102.232 43.48C102.076 42.4604 102.126 41.6332 102.38 40.9984C102.634 40.3636 103.095 39.9954 103.764 39.8938C104.243 39.8208 104.647 39.9084 104.974 40.1567C105.3 40.3965 105.501 40.7691 105.578 41.2746C105.599 41.4117 105.626 41.732 105.658 42.2354C105.671 42.5491 105.683 42.7445 105.695 42.8216C105.75 43.1815 105.851 43.4465 106 43.6168C106.157 43.7857 106.377 43.8487 106.66 43.8057C106.943 43.7627 107.13 43.6378 107.221 43.431C107.321 43.223 107.343 42.939 107.289 42.5792C107.276 42.4935 107.228 42.299 107.147 41.9958C107.026 41.4882 106.957 41.1745 106.938 41.0545C106.863 40.5576 106.949 40.1455 107.197 39.8185C107.444 39.4829 107.803 39.2792 108.275 39.2075C108.943 39.1058 109.492 39.3117 109.92 39.825C110.349 40.3384 110.636 41.0706 110.78 42.0217ZM112.74 41.3291C112.32 41.3929 111.942 41.2971 111.605 41.0415C111.267 40.7774 111.064 40.4268 110.998 39.9899C110.933 39.5615 111.023 39.1752 111.269 38.831C111.513 38.4782 111.845 38.2699 112.265 38.206C112.676 38.1434 113.051 38.2442 113.389 38.5084C113.735 38.7626 113.94 39.104 114.005 39.5324C114.072 39.9693 113.978 40.3649 113.725 40.7189C113.48 41.0631 113.151 41.2665 112.74 41.3291ZM113.688 47.5624C113.337 47.6158 113.061 47.557 112.859 47.386C112.665 47.2052 112.508 46.9179 112.386 46.5244C112.272 46.1209 112.158 45.5422 112.043 44.7882C111.947 44.1542 111.901 43.6484 111.905 43.2708C111.917 42.892 111.995 42.5995 112.139 42.3935C112.283 42.1875 112.518 42.0598 112.844 42.0102C113.195 41.9568 113.468 42.0205 113.662 42.2014C113.863 42.3724 114.021 42.6596 114.135 43.0631C114.256 43.4566 114.374 44.0304 114.489 44.7844C114.585 45.4184 114.627 45.9249 114.614 46.3038C114.611 46.6813 114.537 46.9731 114.393 47.1791C114.249 47.3851 114.014 47.5128 113.688 47.5624ZM118.812 46.783C118.178 46.8794 117.598 46.8405 117.071 46.6664C116.545 46.4922 116.111 46.2032 115.769 45.7994C115.434 45.3857 115.224 44.8961 115.138 44.3306C115.053 43.7736 115.108 43.2393 115.302 42.7277C115.504 42.2147 115.824 41.7804 116.261 41.4247C116.698 41.0689 117.22 40.8448 117.829 40.7522C118.377 40.6688 118.878 40.7066 119.332 40.8655C119.785 41.0244 120.152 41.2711 120.43 41.6056C120.708 41.9316 120.877 42.2916 120.937 42.6858C121.034 43.3284 120.862 43.8368 120.419 44.211C119.984 44.5753 119.432 44.8082 118.763 44.9099C118.318 44.9777 117.932 44.9793 117.607 44.9149C117.928 45.2956 118.384 45.441 118.975 45.3511C119.215 45.3146 119.468 45.2455 119.733 45.1438C119.832 45.1025 119.928 45.0746 120.022 45.0603C120.211 45.0316 120.368 45.0559 120.494 45.1332C120.628 45.2092 120.708 45.3286 120.732 45.4914C120.773 45.757 120.645 46.0131 120.35 46.2597C120.053 46.4978 119.54 46.6722 118.812 46.783ZM117.407 43.3411C117.502 43.4493 117.619 43.5236 117.757 43.564C117.902 43.5946 118.055 43.5975 118.218 43.5727C118.407 43.544 118.563 43.4764 118.687 43.3699C118.82 43.2621 118.875 43.1396 118.855 43.0025C118.831 42.8483 118.747 42.7252 118.601 42.6334C118.464 42.5403 118.28 42.5113 118.049 42.5465C117.818 42.5817 117.644 42.6825 117.529 42.8491C117.422 43.0057 117.381 43.1697 117.407 43.3411ZM123.637 46.0226C123.209 46.0878 122.863 45.9781 122.601 45.6937C122.339 45.4093 122.122 44.9645 121.951 44.3593C121.787 43.7442 121.621 42.8798 121.451 41.7659C121.288 40.6949 121.187 39.8556 121.147 39.248C121.116 38.6392 121.18 38.1385 121.339 37.746C121.507 37.3523 121.823 37.1202 122.285 37.0498C122.748 36.9795 123.114 37.1079 123.383 37.4352C123.66 37.7611 123.87 38.2201 124.013 38.812C124.164 39.4027 124.321 40.2335 124.484 41.3045C124.645 42.3584 124.727 43.2181 124.732 43.8836C124.744 44.5393 124.663 45.0468 124.49 45.4063C124.316 45.7572 124.031 45.9626 123.637 46.0226ZM128.623 45.2905C128.014 45.383 127.452 45.3195 126.937 45.0999C126.428 44.8704 126.014 44.5389 125.694 44.1054C125.373 43.6634 125.171 43.1725 125.089 42.6327C124.992 41.9987 125.039 41.4436 125.23 40.9676C125.428 40.4816 125.716 40.1003 126.095 39.8235C126.482 39.5454 126.915 39.3699 127.395 39.2969C127.875 39.2239 128.319 39.2616 128.727 39.4098C128.683 39.2325 128.619 39.0449 128.537 38.8471C128.462 38.648 128.413 38.5241 128.388 38.4753C128.279 38.2201 128.194 38.0051 128.132 37.8304C128.07 37.6557 128.026 37.4784 127.999 37.2984C127.944 36.9386 128.009 36.6481 128.195 36.427C128.38 36.2059 128.623 36.0726 128.923 36.027C129.403 35.954 129.829 36.1346 130.202 36.5688C130.575 37.003 130.88 37.5659 131.116 38.2575C131.362 38.9478 131.54 39.657 131.65 40.3853C131.8 41.3707 131.721 42.3777 131.413 43.4064C131.112 44.4252 130.182 45.0533 128.623 45.2905ZM128.391 43.2481C128.622 43.2129 128.81 43.0966 128.956 42.8992C129.1 42.6932 129.154 42.4702 129.117 42.2303C129.081 41.9904 128.963 41.7935 128.764 41.6397C128.565 41.4858 128.35 41.4265 128.119 41.4617C127.888 41.4969 127.696 41.6181 127.543 41.8254C127.399 42.0314 127.345 42.2544 127.382 42.4943C127.418 42.7342 127.536 42.9311 127.735 43.0849C127.941 43.2289 128.159 43.2833 128.391 43.2481Z" fill="black"/>
  <defs>
    <linearGradient id="paint0_linear_30273_23080" x1="135.397" y1="48.6602" x2="135.397" y2="60.2681" gradientUnits="userSpaceOnUse">
      <stop stop-color="white"/>
      <stop offset="1" stop-color="white" stop-opacity="0"/>
    </linearGradient>
    <linearGradient id="paint1_linear_30273_23080" x1="102.03" y1="8.48031" x2="103.99" y2="18.2573" gradientUnits="userSpaceOnUse">
      <stop stop-color="white"/>
      <stop offset="1" stop-color="white" stop-opacity="0"/>
    </linearGradient>
    <linearGradient id="paint2_linear_30273_23080" x1="147.062" y1="82.6016" x2="147.062" y2="92.3286" gradientUnits="userSpaceOnUse">
      <stop stop-color="white"/>
      <stop offset="1" stop-color="white" stop-opacity="0"/>
    </linearGradient>
    <linearGradient id="paint3_linear_30273_23080" x1="100.954" y1="23.4326" x2="103.694" y2="37.1019" gradientUnits="userSpaceOnUse">
      <stop stop-color="white"/>
      <stop offset="1" stop-color="white" stop-opacity="0"/>
    </linearGradient>
    <linearGradient id="paint4_linear_30273_23080" x1="86.7236" y1="90.8857" x2="86.7236" y2="98.6471" gradientUnits="userSpaceOnUse">
      <stop stop-color="white"/>
      <stop offset="1" stop-color="white" stop-opacity="0"/>
    </linearGradient>
    <linearGradient id="paint5_linear_30273_23080" x1="75.7749" y1="102.156" x2="75.7749" y2="108.162" gradientUnits="userSpaceOnUse">
      <stop stop-color="white"/>
      <stop offset="1" stop-color="white" stop-opacity="0"/>
    </linearGradient>
    <linearGradient id="paint6_linear_30273_23080" x1="98.7304" y1="102.406" x2="98.7304" y2="109.676" gradientUnits="userSpaceOnUse">
      <stop stop-color="white"/>
      <stop offset="1" stop-color="white" stop-opacity="0"/>
    </linearGradient>
  </defs>
</svg>
