<svg width="232" height="168" viewBox="0 0 232 168" fill="none" xmlns="http://www.w3.org/2000/svg">
  <path d="M25.0887 45.6553H196.564L205.415 54.5864H16.2383L25.0887 45.6553Z" fill="#D8CABD" stroke="black" stroke-linejoin="round"/>
  <ellipse cx="110.015" cy="149.862" rx="110.015" ry="17.8622" fill="black" fill-opacity="0.2"/>
  <path d="M19.4201 150.393H204.766L205.87 144.709H18.3169L19.4201 150.393Z" fill="#A38B76" stroke="black" stroke-linejoin="round"/>
  <path d="M52.0287 159H171.605L172.317 155H51.3169L52.0287 159Z" fill="#A38B76" stroke="black" stroke-linejoin="round"/>
  <path d="M51.3169 155H172.317L165.199 148H58.4345L51.3169 155Z" fill="#CCC1B0" stroke="black" stroke-linejoin="round"/>
  <path d="M17.8623 144.709H205.415L194.383 134.154H28.8948L17.8623 144.709Z" fill="#CCC1B0" stroke="black" stroke-linejoin="round"/>
  <rect x="26.793" y="46.4668" width="169.691" height="1.62383" fill="#AA6852" stroke="black"/>
  <path d="M24.3574 50.5264H198.919V48.0906H24.3574V50.5264Z" fill="#D8CABD" stroke="black"/>
  <rect x="25.9814" y="50.5264" width="171.314" height="4.05958" fill="#AA6852" stroke="black"/>
  <path d="M17.3446 57.834H204.308L205.415 54.5863H16.2383L17.3446 57.834Z" fill="#A38B76" stroke="black" stroke-linejoin="round"/>
  <path d="M19.4858 57.834H202.167L201.613 60.2697H20.1151L19.4858 57.834Z" fill="#AA6852" stroke="black"/>
  <path d="M18.9656 64.3301H204.312L205.415 60.2705H17.8623L18.9656 64.3301Z" fill="#A38B76" stroke="black" stroke-linejoin="round"/>
  <path d="M18.6743 64.3301H204.603L200.168 139.838H23.1095L18.6743 64.3301Z" fill="#AA6852" stroke="black"/>
  <path d="M91.7383 98.5534L89.9993 84.1331C90.0466 76.258 96.4452 69.8887 104.331 69.8887H115.698C123.584 69.8887 129.983 76.258 130.03 84.1331L128.291 98.5534H110.015H91.7383Z" fill="#D3F8FF" stroke="#602B00" stroke-width="3"/>
  <path d="M28.3481 119.863L27.5663 105.613H46.4035L46.4033 119.946L46.4032 134.278H29.1389L28.3481 119.863Z" fill="#D3F8FF" stroke="#602B00" stroke-width="3"/>
  <path d="M26.7878 84.9453L25.9484 70.7012H46.403L46.4029 85.0335L46.4027 99.3659H27.6375L26.7878 84.9453Z" fill="#D3F8FF" stroke="#602B00" stroke-width="3"/>
  <path d="M93.4051 120.262L92.5272 105.613H127.502L126.624 120.262L125.735 135.09H110.015H94.2938L93.4051 120.262Z" fill="#D3F8FF" stroke="#602B00" stroke-width="3"/>
  <path d="M32.1394 36.7246H190.026L198.92 46.4676H24.3574L32.1394 36.7246Z" fill="#C55542" stroke="black"/>
  <path d="M111.639 15.6143L198.108 54.5863H25.1694L111.639 15.6143Z" fill="#D8CABD" stroke="black"/>
  <path d="M111.639 15.317L198.108 54.5865L182.588 36.588L111.639 1L39.0267 36.588L25.1694 54.5865L111.639 15.317Z" fill="#C55542"/>
  <path d="M111.639 15.317L198.108 54.5865L182.588 36.588L111.639 1M111.639 15.317L25.1694 54.5865L39.0267 36.588L111.639 1M111.639 15.317V1" stroke="black"/>
  <g filter="url(#filter0_i_31537_83)">
    <path d="M111.639 19.6738L180.246 50.5267H43.0317L111.639 19.6738Z" fill="#AA6852"/>
  </g>
  <path d="M111.639 19.6738L180.246 50.5267H43.0317L111.639 19.6738Z" stroke="black"/>
  <g filter="url(#filter1_i_31537_83)">
    <path d="M111.638 24.5449L162.383 47.2786H60.8936L111.638 24.5449Z" fill="#D8CABD"/>
  </g>
  <path d="M111.638 24.5449L162.383 47.2786H60.8936L111.638 24.5449Z" stroke="black"/>
  <path d="M25.9814 53.7744H198.108L195.887 61.0817H28.2024L25.9814 53.7744Z" fill="#A38B76" stroke="black" stroke-linejoin="round"/>
  <path d="M51.1504 64.3301H62.6807L64.953 139.838H54.5588L51.1504 64.3301Z" fill="#D8CABD" stroke="black"/>
  <path d="M72.2603 64.3301H83.3466L84.439 139.838H74.445L72.2603 64.3301Z" fill="#D8CABD" stroke="black"/>
  <rect x="51.9629" y="139.026" width="13.8026" height="2.43575" rx="1.21787" fill="#D9CEC6" stroke="black"/>
  <rect x="73.0728" y="139.026" width="13.8026" height="2.43575" rx="1.21787" fill="#D9CEC6" stroke="black"/>
  <path d="M193.337 119.867L194.09 105.613H176.062L176.062 119.946L176.062 134.278H192.576L193.337 119.867Z" fill="#D3F8FF" stroke="#602B00" stroke-width="3"/>
  <path d="M195.678 84.9453L196.517 70.7012H176.062L176.062 85.0335L176.063 99.3659H194.828L195.678 84.9453Z" fill="#D3F8FF" stroke="#602B00" stroke-width="3"/>
  <path d="M170.502 64.3301H158.972L156.7 139.838H167.094L170.502 64.3301Z" fill="#D8CABD" stroke="black"/>
  <path d="M149.393 64.3301H138.306L137.214 139.838H147.208L149.393 64.3301Z" fill="#D8CABD" stroke="black"/>
  <rect width="14.6145" height="2.43575" rx="1.21787" transform="matrix(-1 0 0 1 170.502 139.026)" fill="#D9CEC6" stroke="black"/>
  <rect width="14.6145" height="2.43575" rx="1.21787" transform="matrix(-1 0 0 1 149.393 139.026)" fill="#D9CEC6" stroke="black"/>
  <path fill-rule="evenodd" clip-rule="evenodd" d="M54.8627 69.2055C54.8627 71.7865 52.7704 73.8788 50.1894 73.8788C47.6084 73.8788 45.5161 71.7865 45.5161 69.2055C45.5161 66.6245 47.6084 64.5322 50.1894 64.5322L50.2181 64.5323H61.9957C61.996 64.5323 61.9963 64.5323 61.9966 64.5323C64.5772 64.5328 66.669 66.6249 66.669 69.2056C66.669 71.7866 64.5767 73.8789 61.9957 73.8789C59.4148 73.8789 57.3225 71.7866 57.3225 69.2056C57.3225 68.9545 57.3423 68.7081 57.3804 68.4677H54.8048C54.8429 68.708 54.8627 68.9545 54.8627 69.2055Z" fill="#D8CABD"/>
  <path d="M50.1894 64.5322L50.1909 64.0322H50.1894V64.5322ZM50.2181 64.5323L50.2166 65.0323H50.2181V64.5323ZM61.9966 64.5323L61.9966 64.0323L61.9966 64.5323ZM57.3804 68.4677L57.8742 68.546L57.9659 67.9677H57.3804V68.4677ZM54.8048 68.4677V67.9677H54.2192L54.3109 68.546L54.8048 68.4677ZM50.1894 74.3788C53.0465 74.3788 55.3627 72.0626 55.3627 69.2055H54.3627C54.3627 71.5103 52.4942 73.3788 50.1894 73.3788V74.3788ZM45.0161 69.2055C45.0161 72.0626 47.3323 74.3788 50.1894 74.3788V73.3788C47.8846 73.3788 46.0161 71.5103 46.0161 69.2055H45.0161ZM50.1894 64.0322C47.3323 64.0322 45.0161 66.3484 45.0161 69.2055H46.0161C46.0161 66.9007 47.8846 65.0322 50.1894 65.0322V64.0322ZM50.2196 64.0323L50.1909 64.0322L50.1879 65.0322L50.2166 65.0323L50.2196 64.0323ZM61.9957 64.0323H50.2181V65.0323H61.9957V64.0323ZM61.9957 65.0323C61.9961 65.0323 61.9963 65.0323 61.9965 65.0323L61.9966 64.0323C61.9963 64.0323 61.9959 64.0323 61.9957 64.0323V65.0323ZM61.9965 65.0323C64.301 65.0327 66.169 66.901 66.169 69.2056H67.169C67.169 66.3488 64.8534 64.0328 61.9966 64.0323L61.9965 65.0323ZM66.169 69.2056C66.169 71.5104 64.3006 73.3789 61.9957 73.3789V74.3789C64.8529 74.3789 67.169 72.0627 67.169 69.2056H66.169ZM61.9957 73.3789C59.6909 73.3789 57.8225 71.5104 57.8225 69.2056H56.8225C56.8225 72.0627 59.1386 74.3789 61.9957 74.3789V73.3789ZM57.8225 69.2056C57.8225 68.9808 57.8402 68.7606 57.8742 68.546L56.8866 68.3894C56.8443 68.6555 56.8225 68.9282 56.8225 69.2056H57.8225ZM54.8048 68.9677H57.3804V67.9677H54.8048V68.9677ZM55.3627 69.2055C55.3627 68.9281 55.3408 68.6555 55.2986 68.3894L54.3109 68.546C54.345 68.7605 54.3627 68.9808 54.3627 69.2055H55.3627Z" fill="black"/>
  <circle cx="61.9937" cy="69.2027" r="2.70558" fill="#D9CEC6" stroke="black"/>
  <circle cx="50.187" cy="69.2027" r="2.70558" fill="#D9CEC6" stroke="black"/>
  <path fill-rule="evenodd" clip-rule="evenodd" d="M142.55 69.2055C142.55 71.7865 140.458 73.8788 137.877 73.8788C135.296 73.8788 133.204 71.7865 133.204 69.2055C133.204 66.6245 135.296 64.5322 137.877 64.5322L137.906 64.5323H149.683C149.683 64.5323 149.683 64.5323 149.684 64.5323C152.264 64.5328 154.356 66.6249 154.356 69.2056C154.356 71.7866 152.264 73.8789 149.683 73.8789C147.102 73.8789 145.01 71.7866 145.01 69.2056C145.01 68.9545 145.029 68.7081 145.068 68.4677H142.492C142.53 68.708 142.55 68.9545 142.55 69.2055Z" fill="#D8CABD"/>
  <path d="M137.877 64.5322L137.878 64.0322H137.877V64.5322ZM137.906 64.5323L137.904 65.0323H137.906V64.5323ZM149.684 64.5323L149.684 64.0323L149.684 64.5323ZM145.068 68.4677L145.561 68.546L145.653 67.9677H145.068V68.4677ZM142.492 68.4677V67.9677H141.907L141.998 68.546L142.492 68.4677ZM137.877 74.3788C140.734 74.3788 143.05 72.0626 143.05 69.2055H142.05C142.05 71.5103 140.182 73.3788 137.877 73.3788V74.3788ZM132.704 69.2055C132.704 72.0626 135.02 74.3788 137.877 74.3788V73.3788C135.572 73.3788 133.704 71.5103 133.704 69.2055H132.704ZM137.877 64.0322C135.02 64.0322 132.704 66.3484 132.704 69.2055H133.704C133.704 66.9007 135.572 65.0322 137.877 65.0322V64.0322ZM137.907 64.0323L137.878 64.0322L137.875 65.0322L137.904 65.0323L137.907 64.0323ZM149.683 64.0323H137.906V65.0323H149.683V64.0323ZM149.683 65.0323C149.683 65.0323 149.683 65.0323 149.684 65.0323L149.684 64.0323C149.683 64.0323 149.683 64.0323 149.683 64.0323V65.0323ZM149.684 65.0323C151.988 65.0327 153.856 66.901 153.856 69.2056H154.856C154.856 66.3488 152.541 64.0328 149.684 64.0323L149.684 65.0323ZM153.856 69.2056C153.856 71.5104 151.988 73.3789 149.683 73.3789V74.3789C152.54 74.3789 154.856 72.0627 154.856 69.2056H153.856ZM149.683 73.3789C147.378 73.3789 145.51 71.5104 145.51 69.2056H144.51C144.51 72.0627 146.826 74.3789 149.683 74.3789V73.3789ZM145.51 69.2056C145.51 68.9808 145.527 68.7606 145.561 68.546L144.574 68.3894C144.531 68.6555 144.51 68.9282 144.51 69.2056H145.51ZM142.492 68.9677H145.068V67.9677H142.492V68.9677ZM143.05 69.2055C143.05 68.9281 143.028 68.6555 142.986 68.3894L141.998 68.546C142.032 68.7605 142.05 68.9808 142.05 69.2055H143.05Z" fill="black"/>
  <circle cx="149.683" cy="69.2027" r="2.70558" fill="#D9CEC6" stroke="black"/>
  <circle cx="137.877" cy="69.2027" r="2.70558" fill="#D9CEC6" stroke="black"/>
  <path fill-rule="evenodd" clip-rule="evenodd" d="M77.202 69.2055C77.202 71.7865 75.1097 73.8788 72.5287 73.8788C69.9478 73.8788 67.8555 71.7865 67.8555 69.2055C67.8555 66.6245 69.9478 64.5322 72.5287 64.5322L72.5574 64.5323H84.3347C84.3347 64.5323 84.3348 64.5323 84.3348 64.5323C86.9158 64.5323 89.0081 66.6246 89.0081 69.2056C89.0081 71.7866 86.9158 73.8789 84.3348 73.8789C81.7538 73.8789 79.6615 71.7866 79.6615 69.2056C79.6615 68.9545 79.6813 68.7081 79.7194 68.4677H77.1441C77.1822 68.708 77.202 68.9545 77.202 69.2055Z" fill="#D8CABD"/>
  <path d="M72.5287 64.5322L72.5302 64.0322H72.5287V64.5322ZM72.5574 64.5323L72.5559 65.0323H72.5574V64.5323ZM84.3347 64.5323V65.0323H84.3347L84.3347 64.5323ZM79.7194 68.4677L80.2133 68.546L80.305 67.9677H79.7194V68.4677ZM77.1441 68.4677V67.9677H76.5586L76.6503 68.546L77.1441 68.4677ZM72.5287 74.3788C75.3859 74.3788 77.702 72.0626 77.702 69.2055H76.702C76.702 71.5103 74.8336 73.3788 72.5287 73.3788V74.3788ZM67.3555 69.2055C67.3555 72.0626 69.6716 74.3788 72.5287 74.3788V73.3788C70.2239 73.3788 68.3555 71.5103 68.3555 69.2055H67.3555ZM72.5287 64.0322C69.6716 64.0322 67.3555 66.3484 67.3555 69.2055H68.3555C68.3555 66.9007 70.2239 65.0322 72.5287 65.0322V64.0322ZM72.5589 64.0323L72.5302 64.0322L72.5272 65.0322L72.5559 65.0323L72.5589 64.0323ZM84.3347 64.0323H72.5574V65.0323H84.3347V64.0323ZM84.3347 65.0323C84.3347 65.0323 84.3348 65.0323 84.3348 65.0323V64.0323C84.3348 64.0323 84.3347 64.0323 84.3347 64.0323L84.3347 65.0323ZM84.3348 65.0323C86.6396 65.0323 88.5081 66.9008 88.5081 69.2056H89.5081C89.5081 66.3485 87.1919 64.0323 84.3348 64.0323V65.0323ZM88.5081 69.2056C88.5081 71.5104 86.6396 73.3789 84.3348 73.3789V74.3789C87.1919 74.3789 89.5081 72.0627 89.5081 69.2056H88.5081ZM84.3348 73.3789C82.0299 73.3789 80.1615 71.5104 80.1615 69.2056H79.1615C79.1615 72.0627 81.4777 74.3789 84.3348 74.3789V73.3789ZM80.1615 69.2056C80.1615 68.9808 80.1792 68.7606 80.2133 68.546L79.2256 68.3894C79.1834 68.6555 79.1615 68.9282 79.1615 69.2056H80.1615ZM77.1441 68.9677H79.7194V67.9677H77.1441V68.9677ZM77.702 69.2055C77.702 68.9281 77.6802 68.6555 77.6379 68.3894L76.6503 68.546C76.6843 68.7605 76.702 68.9808 76.702 69.2055H77.702Z" fill="black"/>
  <circle cx="84.335" cy="69.2027" r="2.70558" fill="#D9CEC6" stroke="black"/>
  <circle cx="72.5283" cy="69.2027" r="2.70558" fill="#D9CEC6" stroke="black"/>
  <path fill-rule="evenodd" clip-rule="evenodd" d="M164.893 69.2055C164.893 71.7865 162.801 73.8788 160.22 73.8788C157.639 73.8788 155.547 71.7865 155.547 69.2055C155.547 66.6245 157.639 64.5322 160.22 64.5322L160.249 64.5323H172.026C172.026 64.5323 172.026 64.5323 172.027 64.5323C174.607 64.5328 176.699 66.6249 176.699 69.2056C176.699 71.7866 174.607 73.8789 172.026 73.8789C169.445 73.8789 167.353 71.7866 167.353 69.2056C167.353 68.9545 167.372 68.7081 167.411 68.4677H164.836C164.874 68.708 164.893 68.9545 164.893 69.2055Z" fill="#D8CABD"/>
  <path d="M160.22 64.5322L160.222 64.0322H160.22V64.5322ZM160.249 64.5323L160.247 65.0323H160.249V64.5323ZM172.027 64.5323L172.027 64.0323L172.027 64.5323ZM167.411 68.4677L167.904 68.546L167.996 67.9677H167.411V68.4677ZM164.836 68.4677V67.9677H164.25L164.342 68.546L164.836 68.4677ZM160.22 74.3788C163.077 74.3788 165.393 72.0626 165.393 69.2055H164.393C164.393 71.5103 162.525 73.3788 160.22 73.3788V74.3788ZM155.047 69.2055C155.047 72.0626 157.363 74.3788 160.22 74.3788V73.3788C157.915 73.3788 156.047 71.5103 156.047 69.2055H155.047ZM160.22 64.0322C157.363 64.0322 155.047 66.3484 155.047 69.2055H156.047C156.047 66.9007 157.915 65.0322 160.22 65.0322V64.0322ZM160.25 64.0323L160.222 64.0322L160.219 65.0322L160.247 65.0323L160.25 64.0323ZM172.026 64.0323H160.249V65.0323H172.026V64.0323ZM172.026 65.0323C172.026 65.0323 172.026 65.0323 172.027 65.0323L172.027 64.0323C172.027 64.0323 172.026 64.0323 172.026 64.0323V65.0323ZM172.027 65.0323C174.331 65.0327 176.199 66.901 176.199 69.2056H177.199C177.199 66.3488 174.884 64.0328 172.027 64.0323L172.027 65.0323ZM176.199 69.2056C176.199 71.5104 174.331 73.3789 172.026 73.3789V74.3789C174.883 74.3789 177.199 72.0627 177.199 69.2056H176.199ZM172.026 73.3789C169.721 73.3789 167.853 71.5104 167.853 69.2056H166.853C166.853 72.0627 169.169 74.3789 172.026 74.3789V73.3789ZM167.853 69.2056C167.853 68.9808 167.87 68.7606 167.904 68.546L166.917 68.3894C166.875 68.6555 166.853 68.9282 166.853 69.2056H167.853ZM164.836 68.9677H167.411V67.9677H164.836V68.9677ZM165.393 69.2055C165.393 68.9281 165.372 68.6555 165.329 68.3894L164.342 68.546C164.376 68.7605 164.393 68.9808 164.393 69.2055H165.393Z" fill="black"/>
  <circle cx="172.028" cy="69.2027" r="2.70558" fill="#D9CEC6" stroke="black"/>
  <circle cx="160.222" cy="69.2027" r="2.70558" fill="#D9CEC6" stroke="black"/>
  <path d="M116.902 40.2032C117.444 40.9094 117.557 41.6771 117.243 42.5063C116.928 43.3354 116.304 43.8793 115.37 44.1379C114.924 44.2615 114.468 44.2664 114.004 44.1524C113.539 44.0385 113.158 43.8229 112.861 43.5055C111.784 43.9751 110.772 43.9521 109.825 43.4366C108.879 42.9211 108.31 42.0833 108.119 40.9233C107.647 40.8112 107.247 40.5903 106.917 40.2607C106.587 39.9311 106.349 39.5153 106.203 39.0134C105.969 38.2078 106.155 37.4534 106.763 36.7501C107.37 36.0469 108.074 35.7413 108.876 35.8331L110.284 35.9997C110.436 35.5153 110.697 35.0825 111.069 34.7014C111.441 34.3201 111.88 34.0451 112.386 33.8763L112.087 32.8462C112.037 32.6745 112.053 32.5166 112.135 32.3725C112.218 32.2284 112.347 32.132 112.523 32.0832C112.699 32.0345 112.861 32.0504 113.008 32.1308C113.156 32.2112 113.255 32.3372 113.305 32.5089L113.65 33.6975C114.193 33.7041 114.672 33.8176 115.087 34.038C115.502 34.2584 115.905 34.6141 116.297 35.1051L117.474 34.779C117.65 34.7303 117.812 34.7461 117.96 34.8266C118.107 34.9069 118.206 35.033 118.256 35.2047C118.306 35.3764 118.29 35.5343 118.207 35.6784C118.125 35.8225 117.996 35.9189 117.82 35.9676L116.764 36.26C116.883 36.7693 116.881 37.2766 116.757 37.7817C116.633 38.2868 116.4 38.7296 116.058 39.1099L116.902 40.2032ZM112.006 42.0728C111.902 41.7162 111.832 41.3611 111.795 41.0075C111.758 40.6538 111.754 40.3017 111.784 39.951C111.515 40.1825 111.21 40.3776 110.868 40.5363C110.527 40.695 110.177 40.8099 109.817 40.881C109.967 41.396 110.237 41.76 110.628 41.9728C111.019 42.1856 111.478 42.2189 112.006 42.0728ZM109.559 39.24C109.992 39.1201 110.359 38.9614 110.66 38.7639C110.961 38.5664 111.329 38.2361 111.765 37.7729L109.041 37.4571C108.602 37.4072 108.268 37.5033 108.039 37.7452C107.809 37.9871 107.747 38.2864 107.85 38.643C107.95 38.9863 108.138 39.2054 108.414 39.3002C108.69 39.395 109.072 39.3749 109.559 39.24ZM114.909 42.5531C115.248 42.4594 115.488 42.2679 115.631 41.9787C115.773 41.6895 115.754 41.4344 115.573 41.2135L113.693 38.8229C113.559 39.3167 113.482 39.7946 113.463 40.2566C113.444 40.7186 113.484 41.1212 113.584 41.4646C113.711 41.9004 113.885 42.2123 114.108 42.4003C114.331 42.5883 114.598 42.6393 114.909 42.5531ZM114.97 37.7843C115.067 37.6147 115.125 37.4097 115.142 37.1693C115.16 36.9289 115.135 36.6899 115.065 36.4522C114.943 36.0295 114.697 35.7123 114.328 35.5004C113.959 35.2886 113.565 35.2408 113.146 35.3569C112.902 35.4244 112.684 35.5278 112.49 35.667C112.297 35.8062 112.147 35.969 112.04 36.1555L113.831 36.4302L114.97 37.7843Z" fill="#451D07" fill-opacity="0.5"/>
  <path d="M103.249 35.198C103.188 35.2199 103.107 35.198 103.107 35.1107C103.046 34.8704 102.925 34.3243 103.147 33.8656C103.37 33.4068 103.856 33.1665 104.079 33.0792C104.139 33.0573 104.22 33.0792 104.22 33.1665C104.301 33.4068 104.403 33.9529 104.18 34.4116C103.957 34.8704 103.471 35.1107 103.249 35.198ZM103.087 36.465C103.39 36.2029 103.795 36.1155 104.018 36.0936C104.099 36.0936 104.16 36.1592 104.139 36.2465C104.079 36.4868 103.957 36.88 103.654 37.1421C103.35 37.4043 102.945 37.4916 102.722 37.5135C102.662 37.5135 102.621 37.4698 102.601 37.4261C102.56 37.4698 102.5 37.4916 102.439 37.448C102.236 37.3169 101.852 36.9892 101.69 36.5087C101.528 36.0281 101.649 35.5257 101.73 35.3073C101.751 35.2417 101.832 35.198 101.913 35.2417C102.115 35.3728 102.5 35.7004 102.662 36.181C102.763 36.4868 102.763 36.7926 102.722 37.0329C102.783 36.8363 102.904 36.6397 103.087 36.465ZM102.135 38.562C102.297 38.8241 102.358 39.1518 102.358 39.4139C102.398 39.2173 102.459 38.977 102.621 38.7586C102.864 38.4309 103.228 38.2562 103.451 38.1907C103.532 38.1688 103.593 38.2343 103.593 38.2999C103.593 38.5183 103.552 38.9552 103.309 39.2829C103.066 39.6324 102.702 39.7853 102.479 39.8508C102.419 39.8726 102.358 39.829 102.338 39.7853C102.317 39.8508 102.257 39.8726 102.196 39.8508C101.973 39.7634 101.528 39.545 101.265 39.1081C101.002 38.6931 101.022 38.1688 101.042 37.9285C101.042 37.8412 101.123 37.7975 101.204 37.8193C101.427 37.9285 101.872 38.147 102.135 38.562ZM101.305 40.3969C101.528 40.4187 102.014 40.5061 102.378 40.8556C102.601 41.0522 102.722 41.3143 102.803 41.5328C102.803 41.3362 102.803 41.1396 102.884 40.9212C103.026 40.528 103.33 40.2658 103.512 40.1348C103.573 40.0911 103.674 40.1129 103.694 40.2003C103.755 40.4187 103.815 40.8338 103.674 41.227C103.532 41.6202 103.228 41.8823 103.046 42.0134C103.006 42.0352 102.945 42.0352 102.904 42.0134C102.884 42.057 102.844 42.0789 102.783 42.057C102.54 42.0352 102.054 41.9478 101.71 41.5983C101.346 41.2488 101.224 40.7682 101.184 40.528C101.164 40.4406 101.224 40.3751 101.305 40.3969ZM102.459 42.756C102.702 42.7124 103.269 42.6905 103.714 42.9963C103.917 43.1274 104.079 43.3021 104.2 43.4769C104.119 43.2803 104.058 43.04 104.058 42.7997C104.058 42.2536 104.342 41.7731 104.484 41.5546C104.524 41.4891 104.625 41.4891 104.666 41.5546C104.807 41.7731 105.091 42.2318 105.091 42.7997C105.091 43.3458 104.807 43.8264 104.666 44.0448C104.625 44.1104 104.524 44.1104 104.484 44.0448L104.463 44.023C104.463 44.0448 104.484 44.0667 104.484 44.0667C104.504 44.1322 104.463 44.2196 104.382 44.2196C104.139 44.2414 103.573 44.2851 103.127 43.9793C102.682 43.6953 102.439 43.1711 102.358 42.909C102.338 42.8434 102.378 42.756 102.459 42.756Z" fill="#451D07" fill-opacity="0.5"/>
  <path d="M120.126 35.198C120.187 35.2199 120.268 35.198 120.268 35.1107C120.329 34.8704 120.45 34.3243 120.228 33.8656C120.005 33.4068 119.519 33.1665 119.296 33.0792C119.236 33.0573 119.155 33.0792 119.155 33.1665C119.074 33.4068 118.972 33.9529 119.195 34.4116C119.418 34.8704 119.904 35.1107 120.126 35.198ZM120.288 36.465C119.985 36.2029 119.58 36.1155 119.357 36.0936C119.276 36.0936 119.215 36.1592 119.236 36.2465C119.296 36.4868 119.418 36.88 119.721 37.1421C120.025 37.4043 120.43 37.4916 120.653 37.5135C120.713 37.5135 120.754 37.4698 120.774 37.4261C120.815 37.4698 120.875 37.4916 120.936 37.448C121.139 37.3169 121.523 36.9892 121.685 36.5087C121.847 36.0281 121.726 35.5257 121.645 35.3073C121.624 35.2417 121.543 35.198 121.462 35.2417C121.26 35.3728 120.875 35.7004 120.713 36.181C120.612 36.4868 120.612 36.7926 120.653 37.0329C120.592 36.8363 120.471 36.6397 120.288 36.465ZM121.24 38.562C121.078 38.8241 121.017 39.1518 121.017 39.4139C120.977 39.2173 120.916 38.977 120.754 38.7586C120.511 38.4309 120.147 38.2562 119.924 38.1907C119.843 38.1688 119.782 38.2343 119.782 38.2999C119.782 38.5183 119.823 38.9552 120.066 39.2829C120.309 39.6324 120.673 39.7853 120.896 39.8508C120.956 39.8726 121.017 39.829 121.037 39.7853C121.058 39.8508 121.118 39.8726 121.179 39.8508C121.402 39.7634 121.847 39.545 122.11 39.1081C122.373 38.6931 122.353 38.1688 122.333 37.9285C122.333 37.8412 122.252 37.7975 122.171 37.8193C121.948 37.9285 121.503 38.147 121.24 38.562ZM122.07 40.3969C121.847 40.4187 121.361 40.5061 120.997 40.8556C120.774 41.0522 120.653 41.3143 120.572 41.5328C120.572 41.3362 120.572 41.1396 120.491 40.9212C120.349 40.528 120.045 40.2658 119.863 40.1348C119.802 40.0911 119.701 40.1129 119.681 40.2003C119.62 40.4187 119.56 40.8338 119.701 41.227C119.843 41.6202 120.147 41.8823 120.329 42.0134C120.369 42.0352 120.43 42.0352 120.471 42.0134C120.491 42.057 120.531 42.0789 120.592 42.057C120.835 42.0352 121.321 41.9478 121.665 41.5983C122.029 41.2488 122.151 40.7682 122.191 40.528C122.211 40.4406 122.151 40.3751 122.07 40.3969ZM120.916 42.756C120.673 42.7124 120.106 42.6905 119.661 42.9963C119.458 43.1274 119.296 43.3021 119.175 43.4769C119.256 43.2803 119.317 43.04 119.317 42.7997C119.317 42.2536 119.033 41.7731 118.891 41.5546C118.851 41.4891 118.75 41.4891 118.709 41.5546C118.568 41.7731 118.284 42.2318 118.284 42.7997C118.284 43.3458 118.568 43.8264 118.709 44.0448C118.75 44.1104 118.851 44.1104 118.891 44.0448L118.912 44.023C118.912 44.0448 118.891 44.0667 118.891 44.0667C118.871 44.1322 118.912 44.2196 118.993 44.2196C119.236 44.2414 119.802 44.2851 120.248 43.9793C120.693 43.6953 120.936 43.1711 121.017 42.909C121.037 42.8434 120.997 42.756 120.916 42.756Z" fill="#451D07" fill-opacity="0.5"/>
  <rect x="17.6226" y="25.7627" width="2.21516" height="28.4171" fill="#C1C1C1" stroke="black"/>
  <path d="M34.1292 28.5557C32.4459 26.441 22.6803 27.4828 17.9111 27.1891V44.8847C20.3238 44.3463 26.8688 42.6735 31.7137 46.025C34.1292 47.6959 43.3281 45.6132 45.5163 45.4174V29.1642C42.4865 29.3845 35.8124 30.6703 34.1292 28.5557Z" fill="#FCBE24" stroke="black"/>
  <rect x="202.588" y="25.7627" width="2.21516" height="28.4171" fill="#C1C1C1" stroke="black"/>
  <circle cx="203.435" cy="25.1538" r="2.02979" fill="#C1C1C1" stroke="black"/>
  <path d="M218.911 28.6128C217.179 26.41 207.126 27.4953 202.216 27.1893V45.6223C204.7 45.0614 211.437 43.3189 216.425 46.8101C218.911 48.5506 228.381 46.3811 230.633 46.1772V29.2467C227.514 29.4762 220.644 30.8156 218.911 28.6128Z" fill="#262626" stroke="black"/>
  <path d="M35.111 38.5792C35.6887 39.2854 35.8098 40.053 35.4743 40.8822C35.1388 41.7114 34.473 42.2553 33.4771 42.5139C33.0007 42.6375 32.5148 42.6424 32.0193 42.5284C31.5239 42.4145 31.1178 42.1988 30.801 41.8815C29.6521 42.351 28.5726 42.3281 27.5626 41.8126C26.5527 41.297 25.9458 40.4592 25.742 39.2993C25.2393 39.1872 24.8121 38.9663 24.4603 38.6366C24.1085 38.307 23.8547 37.8913 23.6991 37.3894C23.4492 36.5838 23.648 35.8294 24.2956 35.1261C24.9431 34.4229 25.6944 34.1173 26.5496 34.2091L28.0518 34.3757C28.2135 33.8913 28.4926 33.4585 28.889 33.0774C29.2856 32.6961 29.7539 32.4211 30.2943 32.2523L29.9748 31.2222C29.9215 31.0505 29.9388 30.8926 30.0267 30.7485C30.1146 30.6044 30.2523 30.5079 30.44 30.4592C30.6276 30.4105 30.8003 30.4263 30.9577 30.5067C31.1153 30.5871 31.2207 30.7132 31.2739 30.8849L31.6426 32.0735C32.2217 32.0801 32.7326 32.1936 33.1753 32.414C33.618 32.6344 34.0481 32.9901 34.4655 33.4811L35.7214 33.155C35.909 33.1063 36.0816 33.1221 36.2391 33.2025C36.3966 33.2829 36.502 33.409 36.5553 33.5806C36.6085 33.7524 36.5912 33.9102 36.5033 34.0544C36.4154 34.1984 36.2776 34.2949 36.09 34.3436L34.9641 34.6359C35.0909 35.1453 35.0884 35.6526 34.9565 36.1577C34.8246 36.6628 34.5759 37.1056 34.2103 37.4859L35.111 38.5792ZM29.8887 40.4488C29.778 40.0922 29.703 39.7371 29.6635 39.3834C29.624 39.0298 29.6201 38.6776 29.6517 38.3269C29.3647 38.5584 29.0392 38.7536 28.6751 38.9123C28.311 39.071 27.9372 39.1859 27.5538 39.257C27.7135 39.772 28.0018 40.136 28.4188 40.3487C28.8357 40.5616 29.3257 40.5949 29.8887 40.4488ZM27.2787 37.6159C27.7406 37.496 28.1321 37.3373 28.4529 37.1399C28.7738 36.9424 29.1666 36.6121 29.6312 36.1489L26.7257 35.8331C26.258 35.7832 25.9017 35.8793 25.657 36.1212C25.4123 36.3631 25.3452 36.6624 25.4558 37.0189C25.5623 37.3623 25.7629 37.5814 26.0574 37.6761C26.352 37.7709 26.759 37.7509 27.2787 37.6159ZM32.9855 40.929C33.3464 40.8354 33.6028 40.6439 33.7549 40.3547C33.9069 40.0655 33.8863 39.8104 33.693 39.5895L31.6882 37.1989C31.545 37.6927 31.4631 38.1706 31.4426 38.6326C31.4221 39.0945 31.4652 39.4972 31.5717 39.8406C31.7068 40.2764 31.8933 40.5883 32.1309 40.7763C32.3687 40.9643 32.6535 41.0152 32.9855 40.929ZM33.0505 36.1602C33.1539 35.9907 33.2151 35.7857 33.2341 35.5453C33.2531 35.3049 33.2258 35.0659 33.1521 34.8281C33.021 34.4055 32.7588 34.0883 32.3656 33.8764C31.9723 33.6646 31.5519 33.6168 31.1045 33.7329C30.8447 33.8004 30.6115 33.9038 30.4051 34.0429C30.1987 34.1822 30.0387 34.345 29.925 34.5315L31.8351 34.8062L33.0505 36.1602Z" fill="#451D07"/>
  <path d="M215.81 41.5035C215.675 41.3641 215.557 41.2102 215.458 41.0448C215.206 40.6602 214.785 39.7575 214.784 38.7648C213.895 39.2695 212.869 39.3677 212.397 39.3479C212.219 39.3476 212.041 39.3294 211.867 39.2935C212.065 40.2298 212.56 40.9131 213.354 41.3436C214.124 41.7615 214.943 41.8148 215.81 41.5035ZM219.002 37.3919C219.257 37.0782 219.437 36.714 219.53 36.325C219.64 35.8768 219.642 35.4266 219.536 34.9745L220.477 34.7154C220.549 34.6977 220.617 34.6658 220.676 34.6216C220.736 34.5774 220.785 34.5218 220.822 34.4584C220.858 34.3949 220.88 34.3249 220.888 34.2527C220.895 34.1804 220.887 34.1075 220.865 34.0383C220.847 33.9678 220.814 33.9017 220.769 33.8439C220.723 33.7862 220.666 33.738 220.601 33.7024C220.536 33.6671 220.464 33.6452 220.389 33.638C220.315 33.6308 220.24 33.6385 220.169 33.6606L219.12 33.95C218.771 33.5143 218.412 33.1986 218.042 33.0029C217.672 32.8075 217.245 32.7068 216.762 32.7009L216.454 31.6456C216.436 31.5751 216.403 31.509 216.358 31.4514C216.312 31.3937 216.255 31.3456 216.19 31.3101C216.125 31.2749 216.053 31.253 215.978 31.2458C215.904 31.2386 215.829 31.2463 215.757 31.2684C215.685 31.2859 215.617 31.3177 215.558 31.3617C215.498 31.4058 215.449 31.4611 215.412 31.5243C215.376 31.5879 215.353 31.6579 215.346 31.7303C215.338 31.8026 215.346 31.8756 215.369 31.9449L215.635 32.8592C215.189 33.007 214.786 33.2584 214.462 33.5916C214.199 33.8577 213.991 34.1697 213.847 34.5111L216.986 34.8873L219.002 37.3919ZM212.388 34.8413C211.841 34.8433 211.318 35.0562 210.933 35.4332C210.548 35.8102 210.333 36.3203 210.335 36.8514C210.338 37.3825 210.557 37.891 210.944 38.2652C211.332 38.6393 211.857 38.8483 212.403 38.8463H212.415C212.894 38.8683 214.06 38.7398 214.89 38.0872L216.538 35.3387L212.388 34.8413ZM215.331 38.3485L216.95 35.6474L219.48 38.8014C219.751 39.2625 219.822 39.8095 219.679 40.322C219.535 40.8344 219.188 41.2704 218.713 41.534C218.239 41.7976 217.676 41.8673 217.149 41.7276C216.622 41.5879 216.174 41.2504 215.902 40.7893L215.897 40.7788C215.64 40.3907 215.18 39.363 215.331 38.3485Z" fill="url(#paint0_linear_31537_83)"/>
  <circle cx="18.3174" cy="25.1548" r="2.02979" fill="#C1C1C1" stroke="black"/>
  <defs>
    <filter id="filter0_i_31537_83" x="42.8267" y="19.126" width="137.624" height="31.9004" filterUnits="userSpaceOnUse" color-interpolation-filters="sRGB">
      <feFlood flood-opacity="0" result="BackgroundImageFix"/>
      <feBlend mode="normal" in="SourceGraphic" in2="BackgroundImageFix" result="shape"/>
      <feColorMatrix in="SourceAlpha" type="matrix" values="0 0 0 0 0 0 0 0 0 0 0 0 0 0 0 0 0 0 127 0" result="hardAlpha"/>
      <feOffset dy="4"/>
      <feComposite in2="hardAlpha" operator="arithmetic" k2="-1" k3="1"/>
      <feColorMatrix type="matrix" values="0 0 0 0 0 0 0 0 0 0 0 0 0 0 0 0 0 0 0.25 0"/>
      <feBlend mode="normal" in2="shape" result="effect1_innerShadow_31537_83"/>
    </filter>
    <filter id="filter1_i_31537_83" x="60.689" y="23.9971" width="101.898" height="23.7812" filterUnits="userSpaceOnUse" color-interpolation-filters="sRGB">
      <feFlood flood-opacity="0" result="BackgroundImageFix"/>
      <feBlend mode="normal" in="SourceGraphic" in2="BackgroundImageFix" result="shape"/>
      <feColorMatrix in="SourceAlpha" type="matrix" values="0 0 0 0 0 0 0 0 0 0 0 0 0 0 0 0 0 0 127 0" result="hardAlpha"/>
      <feOffset dy="4"/>
      <feComposite in2="hardAlpha" operator="arithmetic" k2="-1" k3="1"/>
      <feColorMatrix type="matrix" values="0 0 0 0 0 0 0 0 0 0 0 0 0 0 0 0 0 0 0.25 0"/>
      <feBlend mode="normal" in2="shape" result="effect1_innerShadow_31537_83"/>
    </filter>
    <linearGradient id="paint0_linear_31537_83" x1="227.229" y1="36.5957" x2="204.578" y2="36.9136" gradientUnits="userSpaceOnUse">
      <stop stop-color="#F8F29C"/>
      <stop offset="0.165" stop-color="#F6DB2A"/>
      <stop offset="0.333" stop-color="#F4A435"/>
      <stop offset="0.55" stop-color="#E85A46"/>
      <stop offset="0.699" stop-color="#B93483"/>
      <stop offset="0.867" stop-color="#502B6E"/>
      <stop offset="1" stop-color="#2A2136"/>
    </linearGradient>
  </defs>
</svg>
