<svg width="487" height="227" viewBox="0 0 487 227" fill="none" xmlns="http://www.w3.org/2000/svg">
  <path d="M125.036 155.746C169.922 178.602 355.566 70.46 471.425 77.3821C346.707 93.5697 240.586 164.97 156.647 190.349C72.7068 215.729 10.6813 202.587 24.2301 161.554C48.0887 89.2967 230.704 70.6709 281.495 70.0894C239.237 75.0779 81.8149 133.738 125.036 155.746Z" fill="url(#paint0_linear_31633_90)" stroke="black" stroke-opacity="0.6" stroke-linecap="round" stroke-linejoin="round"/>
  <path d="M200.572 105.622C199.539 102.498 199.118 95.0554 205.698 90.2767C212.277 85.498 219.805 85.6147 222.746 86.2703C224.345 87.1603 227.681 90.396 228.241 96.2191C228.772 101.753 225.933 105.065 221.905 105.987C209.031 111.971 202.319 108.237 200.572 105.622Z" fill="#D9D9D9"/>
  <path d="M222.746 86.2703C219.805 85.6147 212.277 85.498 205.698 90.2767C199.118 95.0554 199.539 102.498 200.572 105.622C202.319 108.237 209.031 111.971 221.905 105.987M222.746 86.2703C224.345 87.1603 227.681 90.396 228.241 96.2191C228.772 101.753 225.933 105.065 221.905 105.987M222.746 86.2703C218.067 89.0007 212.84 94.6124 211.489 98.2405C210.138 101.869 211.81 105.348 217.809 106.14C219.247 106.33 220.635 106.277 221.905 105.987" stroke="black" stroke-linecap="round" stroke-linejoin="round"/>
  <path d="M222.747 86.2705C224.345 87.1605 227.681 90.3962 228.241 96.2193C228.772 101.753 225.934 105.065 221.905 105.987C209.031 111.971 202.319 108.237 200.572 105.622C203.025 105.181 208.584 103.789 211.198 101.741C210.923 100.654 211.036 99.4558 211.489 98.2406C212.84 94.6126 218.067 89.0008 222.747 86.2705Z" fill="#676767"/>
  <path d="M221.905 105.987C225.934 105.065 228.772 101.753 228.241 96.2193C227.681 90.3962 224.345 87.1605 222.747 86.2705C218.067 89.0008 212.84 94.6126 211.489 98.2406C211.036 99.4558 210.923 100.654 211.198 101.741M221.905 105.987C220.636 106.277 219.247 106.33 217.809 106.141C213.819 105.614 211.743 103.898 211.198 101.741M221.905 105.987C209.031 111.971 202.319 108.237 200.572 105.622C203.025 105.181 208.584 103.789 211.198 101.741" stroke="black" stroke-linecap="round" stroke-linejoin="round"/>
  <path d="M228.241 96.2196C227.681 90.3966 224.345 87.1609 222.747 86.2709C218.067 89.0012 212.84 94.6129 211.489 98.241C210.138 101.869 211.81 105.349 217.809 106.141C219.247 106.331 220.636 106.278 221.906 105.987C225.934 105.066 228.773 101.754 228.241 96.2196Z" fill="#999999" stroke="black" stroke-linecap="round" stroke-linejoin="round"/>
  <ellipse cx="35.4333" cy="9.44889" rx="35.4333" ry="9.44889" transform="matrix(-0.992798 0.119798 0.119798 0.992798 222.337 106.344)" fill="black" fill-opacity="0.2"/>
  <path d="M121.857 83.2543L120.698 73.6532C109.764 61.7567 100.563 60.8019 94.5756 69.3713C89.2931 76.9324 91.1328 91.6757 92.7445 99.3282L97.0258 97.1596L96.1907 90.2394C99.5939 86.8925 110.657 82.8495 116.29 81.6191L116.833 86.1142L121.857 83.2543Z" fill="#553322" stroke="black" stroke-linecap="round" stroke-linejoin="round"/>
  <path d="M205.255 111.562L211.872 114.27C191.123 66.1236 150.117 48.8637 146.583 48.9005C143.756 48.93 144.04 50.6359 144.536 51.4852C179.821 64.9939 199.717 97.1648 205.255 111.562Z" fill="#DDAA44" stroke="black" stroke-linecap="round" stroke-linejoin="round"/>
  <path d="M166.393 127.198C183.22 121.533 199.256 113.183 205.17 109.716C204.872 107.246 203.559 104.092 201.948 101.019C199.949 97.2063 197.491 93.519 195.941 91.419C184.414 94.4619 165.493 103.766 157.473 108.038L164.208 122.506L166.393 127.198Z" fill="#C09344"/>
  <path d="M201.948 101.019C199.949 97.2063 197.491 93.519 195.941 91.419C184.414 94.4619 165.493 103.766 157.473 108.038L164.208 122.506M201.948 101.019C203.559 104.092 204.872 107.246 205.17 109.716C199.256 113.183 183.22 121.533 166.393 127.198L164.208 122.506M201.948 101.019L189.372 105.428M164.208 122.506L174.92 119.148" stroke="black" stroke-linecap="round" stroke-linejoin="round"/>
  <path d="M195.942 91.4193C184.415 94.4622 165.493 103.766 157.474 108.038L154.48 100.346L151.487 92.6535C176.703 85.3156 184.242 80.0281 184.86 78.3016L195.942 91.4193Z" fill="#C09344"/>
  <path d="M154.48 100.346L151.487 92.6535C176.703 85.3156 184.242 80.0281 184.86 78.3016L195.942 91.4193C184.415 94.4622 165.493 103.766 157.474 108.038L154.48 100.346ZM154.48 100.346C159.465 98.2988 170.055 93.8822 172.542 92.5908" stroke="black" stroke-linecap="round" stroke-linejoin="round"/>
  <path d="M151.487 92.6546C176.703 85.3167 184.242 80.0292 184.86 78.3027L175.083 69.1575C172.473 69.1972 165.112 70.0303 156.555 73.0452C147.998 76.0602 143.266 80.4306 141.97 82.2389L144.689 85.2148L151.487 92.6546Z" fill="#C09344"/>
  <path d="M144.689 85.2148L141.97 82.2389C143.266 80.4306 147.998 76.0602 156.555 73.0452C165.112 70.0303 172.473 69.1972 175.083 69.1575L184.86 78.3027C184.242 80.0292 176.703 85.3167 151.487 92.6546L144.689 85.2148ZM144.689 85.2148C149.178 83.2965 158.949 79.1989 162.127 78.1546" stroke="black" stroke-linecap="round" stroke-linejoin="round"/>
  <path d="M156.556 73.0441C165.112 70.0292 172.473 69.1961 175.084 69.1564L161.904 59.1828C159.532 58.9184 152.873 58.951 145.214 61.1967C137.556 63.4424 131.93 67.4801 130.075 69.2183L134.494 74.0543L141.971 82.2378C143.267 80.4295 147.999 76.0591 156.556 73.0441Z" fill="#C09344"/>
  <path d="M134.494 74.0543L130.075 69.2183C131.93 67.4801 137.556 63.4424 145.214 61.1967C152.873 58.951 159.532 58.9184 161.904 59.1828L175.084 69.1564C172.473 69.1961 165.112 70.0292 156.556 73.0441C147.999 76.0591 143.267 80.4295 141.971 82.2378L134.494 74.0543ZM134.494 74.0543C137.971 72.3956 146.678 68.5365 153.685 66.3693" stroke="black" stroke-linecap="round" stroke-linejoin="round"/>
  <path d="M145.215 61.1971C152.873 58.9514 159.532 58.9188 161.904 59.1832L156.674 56.9132L144.036 51.4273C138.83 51.6424 126.238 53.1619 117.513 57.5187L120.261 60.078L130.076 69.2187C131.931 67.4805 137.556 63.4428 145.215 61.1971Z" fill="#C09344"/>
  <path d="M156.674 56.9132L161.904 59.1832C159.532 58.9188 152.873 58.9514 145.215 61.1971C137.556 63.4428 131.931 67.4805 130.076 69.2187L120.261 60.078M156.674 56.9132L144.036 51.4273C138.83 51.6424 126.238 53.1619 117.513 57.5187L120.261 60.078M156.674 56.9132C155.029 56.9707 151.098 57.2477 148.533 57.8956M120.261 60.078C123.28 58.7501 130.702 55.9272 136.238 55.2592" stroke="black" stroke-linecap="round" stroke-linejoin="round"/>
  <path d="M212.175 114.233C191.398 65.8845 150.375 48.5365 146.84 48.5719C148.07 47.9019 151.497 46.7581 155.367 47.5429C160.204 48.524 175.909 54.8439 196.53 75.8274C213.027 92.6142 218.95 105.2 219.849 109.395L212.175 114.233Z" fill="#825A11" stroke="black" stroke-linecap="round" stroke-linejoin="round"/>
  <path d="M119.736 72.5317C138.05 90.1455 149.769 121.771 153.338 135.382C156.662 138.285 159.491 139.596 160.49 139.888C151.234 104.249 124.193 64.9731 105.138 61.0774C86.0827 57.1818 86.5593 88.512 87.8014 95.383C88.5717 99.6444 91.5056 99.841 92.797 99.1345L91.3459 87.1083C89.9214 75.3033 96.8421 50.5144 119.736 72.5317Z" fill="#DDAA44" stroke="black" stroke-linecap="round" stroke-linejoin="round"/>
  <path d="M160.393 139.072C149.768 102.359 124.194 64.9713 105.139 61.0756C102.253 60.4855 99.8143 60.7037 97.759 61.5227C99.1545 60.5385 103.229 58.2499 108.36 56.9699C114.775 55.3698 124.727 59.1249 143.599 82.0404C162.471 104.956 173.012 137.55 171.384 137.746C171.384 137.746 166.696 139.964 160.393 139.072Z" fill="#825A11" stroke="black" stroke-linecap="round" stroke-linejoin="round"/>
  <ellipse cx="26.9293" cy="6.61423" rx="26.9293" ry="6.61423" transform="matrix(-0.968249 0.249989 0.249989 0.968249 189.3 131.777)" fill="black" fill-opacity="0.25"/>
  <path d="M134.575 147.226C139.396 151.919 144.871 149.241 147.006 147.315C148.308 148.354 153.078 149.431 161.747 145.434C170.415 141.437 171.336 133.429 170.714 129.925C171.968 128.594 173.733 124.583 170.763 119.193C167.792 113.803 160.792 113.705 157.664 114.329C157.549 111.702 154.967 106.944 145.555 108.934C136.144 110.925 135.39 119.072 136.189 122.897C135.55 122.604 133.559 123.411 130.711 128.984C127.864 134.556 131.166 137.662 133.173 138.518C131.632 139.466 129.755 142.534 134.575 147.226Z" fill="#66CC9A"/>
  <path d="M165.162 131.359L164.376 135.959M148.586 143.609L152.816 142.517M157.023 127.138C156.937 128.26 156.407 130.651 154.98 131.239M137.46 132.189C137.856 131.537 139.097 130.447 140.897 131.302M140.818 123.351C141.457 123.278 142.921 123.413 143.663 124.541M147.879 114.657C148.563 115.122 150.011 116.36 150.33 117.597M165.939 121.263C166.623 121.361 168.003 121.83 168.058 122.915M147.006 147.315C144.871 149.241 139.396 151.919 134.575 147.226C129.755 142.534 131.632 139.466 133.173 138.518C131.166 137.662 127.864 134.556 130.711 128.984C133.559 123.411 135.55 122.604 136.189 122.897C135.39 119.072 136.144 110.925 145.555 108.934C154.967 106.944 157.549 111.702 157.664 114.329C160.792 113.705 167.792 113.803 170.763 119.193C173.733 124.583 171.968 128.594 170.714 129.925C171.336 133.429 170.415 141.437 161.747 145.434C153.078 149.431 148.308 148.354 147.006 147.315Z" stroke="black" stroke-linecap="round"/>
  <path d="M186.658 129.654C184.216 140.376 173.369 140.399 168.032 138.734C160.332 138.206 160.219 132.631 161.345 130.246C160.787 128.117 160.831 122.871 165.468 118.926C170.106 114.98 175.166 117.523 177.116 119.288C181.314 118.275 189.101 118.931 186.658 129.654Z" fill="#65C33E"/>
  <path d="M169.33 122.64C169.48 123.213 169.832 124.557 170.038 125.343M174.139 122.956L174.227 125.296M179.281 125.547C179.371 126.224 179.33 127.74 178.45 128.39M168.032 138.734C173.369 140.399 184.216 140.376 186.658 129.654C189.101 118.931 181.314 118.275 177.116 119.288C175.166 117.523 170.106 114.98 165.468 118.926C160.831 122.871 160.787 128.117 161.345 130.246C160.219 132.631 160.332 138.206 168.032 138.734Z" stroke="black" stroke-linecap="round"/>
  <ellipse cx="22.2049" cy="6.14178" rx="22.2049" ry="6.14178" transform="matrix(-0.992798 0.119798 0.119798 0.992798 258.78 100.744)" fill="black" fill-opacity="0.2"/>
  <path d="M248.168 104.389C248.41 101.332 247.142 94.5021 240.127 91.6351C233.112 88.768 226.324 90.5424 223.807 91.788C222.557 92.9479 220.254 96.6163 221.039 102.011C221.784 107.138 225.088 109.507 228.939 109.448C241.919 112.011 247.166 107.143 248.168 104.389Z" fill="#B6B6B6"/>
  <path d="M223.807 91.788C226.324 90.5424 233.112 88.768 240.127 91.6351C247.142 94.5021 248.41 101.332 248.168 104.389C247.166 107.143 241.919 112.011 228.939 109.448M223.807 91.788C222.557 92.9479 220.254 96.6163 221.039 102.011C221.784 107.138 225.088 109.507 228.939 109.448M223.807 91.788C228.648 93.222 234.623 97.1429 236.65 100.127C238.677 103.112 237.935 106.632 232.68 108.679C231.421 109.17 230.152 109.43 228.939 109.448" stroke="black" stroke-linecap="round" stroke-linejoin="round"/>
  <path d="M223.807 91.7888C222.558 92.9487 220.255 96.6172 221.04 102.012C221.785 107.139 225.089 109.508 228.939 109.449C241.919 112.012 247.167 107.144 248.169 104.389C245.851 104.535 240.51 104.506 237.69 103.232C237.698 102.188 237.33 101.128 236.651 100.128C234.623 97.1438 228.649 93.2228 223.807 91.7888Z" fill="#7C7C7C"/>
  <path d="M228.939 109.449C225.089 109.508 221.785 107.139 221.04 102.012C220.255 96.6172 222.558 92.9487 223.807 91.7888C228.649 93.2228 234.623 97.1438 236.651 100.128C237.33 101.128 237.698 102.188 237.69 103.232M228.939 109.449C230.153 109.431 231.422 109.171 232.681 108.68C236.176 107.319 237.675 105.306 237.69 103.232M228.939 109.449C241.919 112.012 247.167 107.144 248.169 104.389C245.851 104.535 240.51 104.506 237.69 103.232" stroke="black" stroke-linecap="round" stroke-linejoin="round"/>
  <path d="M221.039 102.011C220.254 96.6165 222.557 92.948 223.807 91.7881C228.648 93.2221 234.623 97.1431 236.65 100.128C238.677 103.112 237.935 106.633 232.68 108.679C231.421 109.17 230.152 109.43 228.939 109.448C225.088 109.507 221.784 107.138 221.039 102.011Z" fill="#818181" stroke="black" stroke-linecap="round" stroke-linejoin="round"/>
  <path d="M223.477 100.219C227.123 100.586 227.232 105.08 226.831 107.282C226.983 108.541 225.878 111.271 220.244 112.113C214.611 112.954 214.612 107.343 215.316 104.433C216.518 102.875 219.832 99.8515 223.477 100.219Z" fill="#999999" stroke="black" stroke-linecap="round" stroke-linejoin="round"/>
  <path d="M223.477 100.219C227.123 100.586 227.232 105.08 226.831 107.282C224.829 108.196 219.724 108.906 215.316 104.433C216.518 102.875 219.832 99.8515 223.477 100.219Z" fill="#B6B6B6" stroke="black" stroke-linecap="round" stroke-linejoin="round"/>
  <ellipse cx="15.191" cy="4.17802" rx="15.191" ry="4.17802" transform="matrix(-0.912484 0.409112 0.409112 0.912484 89.3633 98.9512)" fill="black" fill-opacity="0.2"/>
  <path d="M92.8151 96.748C92.1393 93.7572 88.9003 87.6118 81.3506 86.9563C73.8009 86.3009 67.8455 90.0104 65.8115 91.9471C64.9627 93.4255 63.8528 97.6122 66.2033 102.531C68.4371 107.206 72.2951 108.487 75.9546 107.288C89.1103 105.882 92.6765 99.6753 92.8151 96.748Z" fill="#B6B6B6"/>
  <path d="M65.8115 91.9471C67.8455 90.0104 73.8009 86.3009 81.3506 86.9563C88.9003 87.6118 92.1393 93.7572 92.8151 96.748C92.6765 99.6753 89.1103 105.882 75.9546 107.288M65.8115 91.9471C64.9627 93.4255 63.8528 97.6122 66.2033 102.531C68.4371 107.206 72.2951 108.487 75.9546 107.288M65.8115 91.9471C70.8602 91.8793 77.7297 93.8498 80.5516 96.098C83.3735 98.3461 83.7098 101.928 79.2995 105.443C78.2423 106.285 77.1083 106.91 75.9546 107.288" stroke="black" stroke-linecap="round" stroke-linejoin="round"/>
  <path d="M65.8121 91.9471C64.9634 93.4255 63.8535 97.6122 66.204 102.531C68.4378 107.206 72.2958 108.487 75.9553 107.288C89.1109 105.882 92.6772 99.6754 92.8158 96.748C90.6455 97.5746 85.5373 99.133 82.4663 98.7532C82.1638 97.7536 81.4975 96.851 80.5523 96.098C77.7304 93.8498 70.8608 91.8793 65.8121 91.9471Z" fill="#7C7C7C"/>
  <path d="M75.9553 107.288C72.2958 108.487 68.4378 107.206 66.204 102.531C63.8535 97.6122 64.9634 93.4255 65.8121 91.9471C70.8608 91.8793 77.7304 93.8498 80.5523 96.098C81.4975 96.851 82.1638 97.7536 82.4663 98.7532M75.9553 107.288C77.109 106.91 78.243 106.285 79.3002 105.443C82.2333 103.105 83.067 100.738 82.4663 98.7532M75.9553 107.288C89.1109 105.882 92.6772 99.6754 92.8158 96.748C90.6455 97.5746 85.5373 99.133 82.4663 98.7532" stroke="black" stroke-linecap="round" stroke-linejoin="round"/>
  <path d="M66.204 102.532C63.8535 97.6133 64.9634 93.4266 65.8122 91.9482C70.8609 91.8804 77.7304 93.8509 80.5523 96.0991C83.3742 98.3472 83.7105 101.929 79.3002 105.444C78.243 106.286 77.109 106.911 75.9553 107.289C72.2958 108.488 68.4378 107.207 66.204 102.532Z" fill="#818181" stroke="black" stroke-linecap="round" stroke-linejoin="round"/>
  <path d="M68.0005 100.094C71.5907 99.3627 73.0288 103.622 73.299 105.843C73.8182 107.001 73.5739 109.936 68.4439 112.411C63.3139 114.887 61.6493 109.529 61.4582 106.541C62.1431 104.697 64.4102 100.825 68.0005 100.094Z" fill="#999999" stroke="black" stroke-linecap="round" stroke-linejoin="round"/>
  <path d="M68.0005 100.094C71.5907 99.3627 73.0288 103.622 73.299 105.843C71.6592 107.31 66.9952 109.504 61.4582 106.541C62.1431 104.697 64.4102 100.825 68.0005 100.094Z" fill="#B6B6B6" stroke="black" stroke-linecap="round" stroke-linejoin="round"/>
  <defs>
    <linearGradient id="paint0_linear_31633_90" x1="213.67" y1="140.823" x2="224.573" y2="59.09" gradientUnits="userSpaceOnUse">
      <stop stop-color="#CCEBFF"/>
      <stop offset="1" stop-color="#4CB8FF" stop-opacity="0.74"/>
    </linearGradient>
  </defs>
</svg>
