<svg width="286" height="165" viewBox="0 0 286 165" fill="none" xmlns="http://www.w3.org/2000/svg">
<ellipse cx="142.92" cy="113.275" rx="142.543" ry="50.9081" fill="url(#paint0_radial_30273_23861)"/>
<path d="M129.452 85.9108L113.63 89.6025L107.038 44.7741L122.596 23.6784L161.359 16.2949L180.609 50.3117L178.499 71.4075C169.85 68.876 159.777 71.4075 155.821 72.9897C155.294 73.9566 153.817 76.2595 152.13 77.7362C150.02 79.5821 137.099 80.9006 133.407 81.9553C130.504 82.7848 129.571 84.871 129.457 85.8602C129.455 85.8771 129.453 85.894 129.452 85.9108Z" fill="#6F4F22"/>
<path d="M129.452 85.9108L113.63 89.6025L107.038 44.7741L122.596 23.6784L161.359 16.2949L180.609 50.3117L178.499 71.4075C169.85 68.876 159.777 71.4075 155.821 72.9897C155.294 73.9566 153.817 76.2595 152.13 77.7362M129.452 85.9108C129.54 84.9439 130.454 82.7992 133.407 81.9553C137.099 80.9006 150.02 79.5821 152.13 77.7362M129.452 85.9108C130.243 78.2636 132.141 61.7034 133.407 56.6404C134.989 50.3117 135.78 46.3563 140.263 42.6645C144.746 38.9728 148.702 23.6784 158.195 23.6784M152.13 77.7362C152.569 68.5068 153.923 48.9932 155.821 44.7741C158.195 39.5002 162.15 27.3702 165.051 25.5243" stroke="black"/>
<path d="M180.083 66.7163L180.352 66.3152C179.1 65.2219 172.21 63.1098 169.782 65.3793C161.099 58.68 155.826 60.8333 154.883 63.6411C154.128 65.8873 156.545 67.7859 157.847 68.4545C154.29 68.6684 152.412 71.6634 151.918 73.1341C156.662 75.1664 160.453 74.694 161.755 74.2038C159.599 80.1937 163.642 83.7413 165.933 84.7664C173.885 81.5706 173.684 77.4269 172.416 75.4039C173.95 77.2981 177.033 77.63 178.465 77.5464C180.049 71.4698 176.936 69.6861 175.077 69.5317C177.813 69.6832 179.551 67.7273 180.083 66.7163Z" fill="#CF6029"/>
<path d="M169.782 65.3793C169.446 65.6934 169.149 66.0117 168.898 66.3152C168.269 67.4295 166.903 70.1928 166.472 72.332M169.782 65.3793C172.21 63.1098 179.1 65.2219 180.352 66.3152L180.083 66.7163C179.543 67.7414 177.765 69.738 174.962 69.5241C176.803 69.6132 180.083 71.3425 178.465 77.5464C176.938 77.6355 173.533 77.2522 172.132 75.006C173.614 76.8333 174.45 81.3436 165.933 84.7664C163.642 83.7413 159.599 80.1937 161.755 74.2038C160.453 74.694 156.662 75.1664 151.918 73.1341C152.412 71.6634 154.29 68.6684 157.847 68.4545C156.545 67.7859 154.128 65.8873 154.883 63.6411C155.826 60.8333 161.099 58.68 169.782 65.3793Z" stroke="black"/>
<path d="M139.962 79.8794L140.362 79.7854C140.214 78.3816 137.145 73.0866 134.323 73.0968C132.787 63.9105 128.261 62.2047 126.052 63.4076C124.284 64.3699 124.692 66.9479 125.117 68.1166C122.778 66.1946 119.879 66.9743 118.722 67.6044C120.501 71.6097 123.134 73.5057 124.228 73.9531C119.426 76.4363 119.893 80.9801 120.727 82.9416C127.523 85.5458 129.792 82.8503 130.171 80.8584C130.032 82.9237 131.759 84.9116 132.699 85.6869C137.195 82.8193 136.288 79.9104 135.22 78.7403C136.836 80.4155 139.047 80.2016 139.962 79.8794Z" fill="#CF6029"/>
<path d="M134.323 73.0968C133.932 73.0982 133.563 73.1246 133.231 73.1684C132.196 73.4987 129.75 74.43 128.245 75.5126M134.323 73.0968C137.145 73.0866 140.214 78.3816 140.362 79.7854L139.962 79.8794C139.034 80.2061 136.774 80.4214 135.152 78.669C136.247 79.7884 137.29 82.7592 132.699 85.6869C131.697 84.8601 129.799 82.6546 130.224 80.4467C130.091 82.4405 128.006 85.7308 120.727 82.9416C119.893 80.9801 119.426 76.4363 124.228 73.9531C123.134 73.5057 120.501 71.6097 118.722 67.6044C119.879 66.9743 122.778 66.1946 125.117 68.1166C124.692 66.9479 124.284 64.3699 126.052 63.4076C128.261 62.2047 132.787 63.9105 134.323 73.0968Z" stroke="black"/>
<path d="M143.081 66.709C151.688 67.3238 154.864 73.3692 155.377 76.3151C155.991 81.2334 154.608 83.4876 153.84 83.9999C139.699 85.8443 133.09 82.2068 131.554 80.1575L135.012 78.6205C132.553 77.0835 131.169 72.3445 130.785 70.1672C138.163 66.7858 142.056 68.7583 143.081 70.1672V66.709Z" fill="#906925"/>
<path d="M153.84 83.9999C139.699 85.8443 133.09 82.2068 131.554 80.1575L135.012 78.6205C132.553 77.0835 131.169 72.3445 130.785 70.1672C138.163 66.7858 142.056 68.7583 143.081 70.1672V66.709C151.688 67.3238 154.864 73.3692 155.377 76.3151C155.991 81.2334 154.608 83.4876 153.84 83.9999ZM153.84 83.9999C151.278 80.6698 144.387 73.6254 137.317 72.0884" stroke="black"/>
<path d="M105.809 73.5262C109.31 73.7396 116.27 74.3585 119.595 75.2874C118.869 74.6386 116.982 73.119 115.241 72.2304V70.9346C117.478 72.0453 122.461 74.785 124.492 76.8584C128.025 77.4217 133.405 78.2809 138.638 79.1188L153.839 75.7477L158.066 71.7031L159.218 72.0873L156.913 75.2874L177.278 73.5262V75.2874V79.2649V81.4863V82.4119V85.7441V89.6316C178.815 90.8279 180.659 93.2207 175.741 93.2207C170.822 93.2207 162.553 92.1855 159.032 91.6679C150.648 92.651 142.238 93.7132 138.097 94.4447C130.551 95.7775 119.111 92.5318 114.334 90.7423C113.751 89.7662 113.007 88.4832 112.198 87.0399C111.242 85.3324 110.196 83.4003 109.224 81.4863C108.581 80.221 107.97 78.9635 107.438 77.784C107.117 77.0716 106.824 76.3877 106.571 75.7477C106.245 74.9234 105.983 74.172 105.809 73.5262Z" fill="#A86C43"/>
<path d="M120.864 75.7477C120.549 75.5868 120.117 75.4333 119.595 75.2874M119.595 75.2874C116.27 74.3585 109.31 73.7396 105.809 73.5262C105.983 74.172 106.245 74.9234 106.571 75.7477M119.595 75.2874C118.869 74.6386 116.982 73.119 115.241 72.2304V70.9346C117.478 72.0453 122.461 74.785 124.492 76.8584M124.492 76.8584H123.222M124.492 76.8584C128.025 77.4217 133.405 78.2809 138.638 79.1188M177.278 79.2649C171.171 80.3139 157.832 82.2268 153.334 81.4863C151.641 81.2078 148.235 80.6584 144.233 80.0158M177.278 79.2649V81.4863V82.4119M177.278 79.2649V75.2874M177.278 89.6316V85.7441M177.278 89.6316C172.803 90.1049 165.926 90.8596 159.032 91.6679M177.278 89.6316C178.815 90.8279 180.659 93.2207 175.741 93.2207C170.822 93.2207 162.553 92.1855 159.032 91.6679M114.334 90.7423C119.111 92.5318 130.551 95.7775 138.097 94.4447C142.238 93.7132 150.648 92.651 159.032 91.6679M114.334 90.7423C113.751 89.7662 113.007 88.4832 112.198 87.0399M114.334 90.7423L127.757 91.6679L147.892 90.7423M106.571 75.7477C110.428 76.1796 119.159 77.4878 123.222 79.2649M106.571 75.7477C106.824 76.3877 107.117 77.0716 107.438 77.784M130.478 81.4863C136.162 82.2268 148.291 83.8559 151.338 84.4482M163.855 84.4482L177.278 82.4119M177.278 82.4119V85.7441M107.438 77.784L135.194 85.7441C141.543 86.5463 155.474 88.0766 160.408 87.7804C165.342 87.4842 173.71 86.2994 177.278 85.7441M107.438 77.784C107.97 78.9635 108.581 80.221 109.224 81.4863M109.224 81.4863L119.595 83.7078M109.224 81.4863C110.196 83.4003 111.242 85.3324 112.198 87.0399M124.492 85.7441L139.004 88.706L155.148 89.4617M158.776 89.6316L155.148 89.4617M112.198 87.0399L128.664 89.6316L147.892 90.7423M147.892 90.7423L155.148 89.4617M177.278 75.2874C170.782 75.386 155.078 76.4698 144.233 80.0158M177.278 75.2874V73.5262L156.913 75.2874L159.218 72.0873L158.066 71.7031L153.839 75.7477L138.638 79.1188M144.233 80.0158C142.453 79.73 140.556 79.4258 138.638 79.1188" stroke="black"/>
<path d="M112.31 74.0845V79.7149C112.31 80.1526 112.346 80.5896 112.416 81.0215C113.36 86.802 107.944 92.063 102.093 91.8086C100.685 91.7475 99.1671 91.7114 97.5431 91.7114C93.904 91.6648 91.0319 91.5313 88.7835 91.3412C85.2887 91.0457 76.8438 86.7634 73.5302 85.6138C71.1735 84.7961 70.0881 82.0801 71.2322 79.8634L72.6258 77.1633C73.0591 76.3236 73.6644 75.5846 74.4023 74.9943L75.7695 73.9006C78.4271 71.7745 80.2799 68.8055 81.022 65.4839L82.4563 59.0638C84.3272 50.689 89.8679 43.601 97.5431 39.7633C98.9187 36.3245 101.281 33.3697 104.333 31.2714L106.943 29.4774C110.478 27.0473 113.434 23.8686 115.602 20.1671L115.974 19.5323C120.533 11.7487 128.12 6.20839 136.922 4.23552L138.416 3.90066C142.033 2.00626 146.115 1.18285 150.183 1.52707L168.01 3.03556C174.349 3.57195 179.937 7.40749 182.717 13.13L194.709 19.9825C201.188 23.6847 205.836 29.9135 207.541 37.1781L209.786 46.7461C210.5 49.7855 212.724 52.2454 215.676 53.2603C218.035 54.0711 219.956 55.816 220.99 58.0857L227.185 71.6904C230.22 78.356 226.919 86.1931 220.03 88.6789L207.241 93.2936L200.668 96.8788C197.41 98.6558 193.648 99.2826 189.99 98.6581C181.122 97.1439 175.101 88.8034 176.456 79.9089L177.434 73.4952C177.959 70.0448 177.641 66.5184 176.507 63.2177L176.135 62.1371C175.604 60.5925 175.333 58.9706 175.333 57.3374C175.333 55.4826 174.984 53.6444 174.303 51.9191L168.509 37.2318C165.715 30.1495 159.357 25.0944 151.827 23.9693C145.06 22.9582 138.22 25.2558 133.435 30.1465L131.56 32.0634C129.992 33.6662 128.134 34.9571 126.085 35.8677C120.616 38.2984 116.742 43.3236 115.783 49.231L112.866 67.1919C112.496 69.4708 112.31 71.7758 112.31 74.0845Z" fill="#B79260"/>
<path d="M207.241 93.2936L200.668 96.8788C197.41 98.6558 193.648 99.2826 189.99 98.6581V98.6581C181.122 97.1439 175.101 88.8034 176.456 79.9089L177.434 73.4952C177.959 70.0448 177.641 66.5184 176.507 63.2177L176.135 62.1371C175.604 60.5925 175.333 58.9706 175.333 57.3374V57.3374C175.333 55.4826 174.984 53.6444 174.303 51.9191L168.509 37.2318C165.715 30.1495 159.357 25.0944 151.827 23.9693V23.9693C145.06 22.9582 138.22 25.2558 133.435 30.1465L131.56 32.0634C129.992 33.6662 128.134 34.9571 126.085 35.8678V35.8678C120.616 38.2984 116.742 43.3236 115.783 49.231L112.866 67.1919C112.496 69.4708 112.31 71.7757 112.31 74.0845V79.7149C112.31 80.1526 112.346 80.5896 112.416 81.0215V81.0215C113.36 86.802 107.944 92.063 102.093 91.8086C100.685 91.7475 99.1671 91.7114 97.5431 91.7114C93.904 91.6648 91.0319 91.5313 88.7835 91.3412C85.2887 91.0457 76.8438 86.7634 73.5302 85.6138V85.6138C71.1735 84.7961 70.0881 82.0801 71.2322 79.8634L72.6258 77.1633C73.0591 76.3236 73.6644 75.5846 74.4023 74.9943L75.7695 73.9006C78.4271 71.7745 80.2799 68.8055 81.022 65.4839L82.4563 59.0638C84.3272 50.689 89.8679 43.601 97.5431 39.7633V39.7633M207.241 93.2936L201.176 70.6158L194.538 30.3181C194.071 27.4781 192.248 25.0441 189.655 23.7955V23.7955C187.732 22.8695 186.209 21.2785 185.368 19.3167L182.717 13.13M207.241 93.2936L220.03 88.6789M182.717 13.13L194.709 19.9825C201.188 23.6847 205.836 29.9135 207.541 37.1781L209.786 46.7461C210.5 49.7854 212.724 52.2454 215.676 53.2603V53.2603C218.035 54.0711 219.956 55.816 220.99 58.0857L227.185 71.6904C230.22 78.356 226.919 86.1931 220.03 88.6789V88.6789M182.717 13.13V13.13C179.937 7.40749 174.349 3.57195 168.01 3.03556L150.183 1.52707C146.115 1.18285 142.033 2.00626 138.416 3.90066V3.90066M138.416 3.90066L136.922 4.23552C128.12 6.20839 120.533 11.7487 115.974 19.5323L115.602 20.1671C113.434 23.8686 110.478 27.0473 106.943 29.4774L104.333 31.2714C101.281 33.3697 98.9187 36.3245 97.5431 39.7633V39.7633M138.416 3.90066C141.405 4.34015 148.384 5.27188 152.392 5.48283M97.5431 39.7633L92.2811 63.9524M213.569 57.9583L220.03 88.6789" stroke="black"/>
<path d="M220.991 58.0876L227.186 71.6922C230.221 78.3578 226.921 86.1949 220.031 88.6807C213.151 91.1634 205.619 87.2271 203.729 80.1607L201.177 70.6176L194.54 30.3199C194.072 27.4799 192.25 25.0459 189.656 23.7973C187.733 22.8713 186.21 21.2803 185.37 19.3185L182.718 13.1318L194.71 19.9843C201.189 23.6865 205.837 29.9153 207.542 37.1799L209.788 46.7479C210.501 49.7873 212.725 52.2473 215.677 53.2621C218.036 54.0729 219.957 55.8178 220.991 58.0876Z" fill="#9C6923"/>
<path d="M213.571 57.9602L220.031 88.6807M220.031 88.6807V88.6807C213.151 91.1634 205.619 87.2271 203.729 80.1607L201.177 70.6176L194.54 30.3199C194.072 27.4799 192.25 25.0459 189.656 23.7973V23.7973C187.733 22.8713 186.21 21.2803 185.37 19.3185L182.718 13.1318L194.71 19.9843C201.189 23.6865 205.837 29.9153 207.542 37.1799L209.788 46.7479C210.501 49.7873 212.725 52.2472 215.677 53.2621V53.2621C218.036 54.0729 219.957 55.8178 220.991 58.0876L227.186 71.6922C230.221 78.3578 226.921 86.1949 220.031 88.6807V88.6807Z" stroke="black" stroke-linejoin="round"/>
<path d="M187.227 39.6863L189.281 63.3067M182.435 25.9933V25.9933C178.225 24.6639 174.596 21.9371 172.147 18.2641L168.399 12.6426M112.6 34.5514V34.5514C107.939 39.2125 104.952 45.2853 104.105 51.8224L103.015 60.2258" stroke="black"/>
<path d="M216.208 87.4941L225.173 72.4634L228.338 66.3984C229.656 66.6621 232.504 67.4532 233.348 68.508C234.192 69.5628 235.809 72.4634 237.567 72.7271L243.368 91.977L233.348 94.8776C229.041 93.9107 219.583 91.0804 216.208 87.4941Z" fill="#9C6923"/>
<path d="M228.338 66.3984L225.173 72.4634L216.208 87.4941C219.583 91.0804 229.041 93.9107 233.348 94.8776M228.338 66.3984C229.656 66.6621 232.504 67.4532 233.348 68.508C234.192 69.5628 235.809 72.4634 237.567 72.7271L243.368 91.977L233.348 94.8776M228.338 66.3984C229.129 68.3322 231.238 73.1491 233.348 76.9463C235.457 80.7435 235.897 90.5706 233.348 94.8776" stroke="black" stroke-linejoin="round"/>
<path d="M199.33 98.0419L208.296 83.0113L216.47 77.21C217.789 77.4737 220.637 78.2647 221.481 79.3195C222.324 80.3743 226.051 81.1654 227.809 81.4291L233.611 100.679L216.47 105.425C212.163 104.459 202.705 101.628 199.33 98.0419Z" fill="#B79260"/>
<path d="M216.47 77.21L208.296 83.0113L199.33 98.0419C202.705 101.628 212.163 104.459 216.47 105.425M216.47 77.21C217.789 77.4737 220.637 78.2647 221.481 79.3195C222.324 80.3743 226.051 81.1654 227.809 81.4291L233.611 100.679L216.47 105.425M216.47 77.21C217.261 79.1437 219.371 83.9606 221.481 87.7578C223.59 91.555 219.019 101.118 216.47 105.425" stroke="black"/>
<path d="M221.482 79.3205C220.639 78.2657 217.791 77.4746 216.472 77.2109C217.263 79.1447 219.373 83.9616 221.482 87.7588C223.592 91.556 219.021 101.119 216.472 105.426L233.612 100.68L227.811 81.4301C226.053 81.1664 222.326 80.3753 221.482 79.3205Z" fill="#9C6923" stroke="black" stroke-linejoin="round"/>
<path d="M55.0889 88.5483L63.7906 76.1817L71.9652 73.2539C73.2836 73.387 76.1316 73.7862 76.9754 74.3185C77.8192 74.8509 82.5133 79.5826 82.5133 79.5826L84.6226 91.9763L71.9652 93.5585C67.2189 93.5585 58.4642 90.3582 55.0889 88.5483Z" fill="#9C6923"/>
<path d="M71.9652 73.2539L63.7906 76.1817L55.0889 88.5483C58.4642 90.3582 67.2189 93.5585 71.9652 93.5585M71.9652 73.2539C73.2836 73.387 76.1316 73.7862 76.9754 74.3185C77.8192 74.8509 82.5133 79.5826 82.5133 79.5826L84.6226 91.9763L71.9652 93.5585M71.9652 73.2539C72.7562 74.2298 74.2766 77.9153 71.9652 79.5826C66.1638 83.7672 74.6021 87.7227 71.9652 93.5585" stroke="black" stroke-linejoin="round"/>
<path d="M63.7906 76.1817L55.0889 88.5483C58.4642 90.3582 67.2189 93.5585 71.9652 93.5585C74.6021 87.7227 66.1638 83.7672 71.9652 79.5826C74.2766 77.9153 72.7562 74.2298 71.9652 73.2539L63.7906 76.1817Z" fill="#B79260" stroke="black"/>
<path d="M89.8152 83.4545C94.122 84.8004 94.5258 91.4176 94.1893 94.558C93.5164 93.4365 91.4976 90.9242 88.8058 89.8474C86.114 88.7707 82.0763 89.3988 80.394 89.8474C81.7399 87.1557 85.5084 82.1086 89.8152 83.4545Z" fill="#FF4848" stroke="black" stroke-linejoin="round"/>
<path d="M86.5435 92.877C90.8503 94.2229 92.2635 95.9055 94.1904 94.56C93.5175 93.4385 91.4986 90.9262 88.8069 89.8494C86.1151 88.7726 82.0774 89.4008 80.3951 89.8494C80.3951 91.1949 82.2366 91.5311 86.5435 92.877Z" fill="#6E1313" stroke="black" stroke-linejoin="round"/>
<path d="M87.8884 98.9341C87.35 96.5115 87.6641 92.5412 87.8884 90.8588C86.2061 87.4941 83.1778 98.9341 83.5143 100.28C83.8507 101.626 88.5613 101.962 87.8884 98.9341Z" fill="#F6D6B7" stroke="black"/>
<path d="M197.512 86.5878C192.274 86.9285 190.237 91.9065 189.873 94.3528C190.908 93.6053 193.812 92.012 197.142 91.6194C200.471 91.2269 204.932 92.3475 206.746 92.9568C205.85 90.6918 202.75 86.247 197.512 86.5878Z" fill="#FF4848" stroke="black" stroke-linejoin="round"/>
<path d="M199.007 94.2843C193.769 94.6251 191.754 95.6824 189.875 94.3509C190.91 93.6033 193.814 92.01 197.144 91.6175C200.474 91.225 204.934 92.3455 206.748 92.9549C206.427 93.98 204.245 93.9435 199.007 94.2843Z" fill="#593C08" stroke="black" stroke-linejoin="round"/>
<path d="M196.275 99.3562C196.903 96.5307 197.955 94.6822 197.693 92.72C199.656 88.7956 201.769 99.3562 201.377 100.926C200.985 102.496 195.49 102.888 196.275 99.3562Z" fill="#F6D6B7" stroke="black"/>
<path d="M138.951 93.1675C135.803 90.0096 127.149 91.8517 123.215 93.1675C118.438 91.6493 113.38 93.1675 113.38 94.6856C113.38 95.9002 116.002 96.2038 117.314 96.2038C115.44 97.216 112.031 99.6654 113.38 101.366C114.728 103.066 118.438 100.657 120.124 99.2403C120.311 101.669 121.416 106.163 124.339 104.706C127.261 103.248 126.68 100.455 126.025 99.2403C130.333 101.872 134.411 104.813 137.108 102.87C139.806 100.926 136.328 98.2281 131.645 96.2038C135.391 96.5075 142.098 96.3254 138.951 93.1675Z" fill="#F18C34"/>
<path d="M123.215 93.1675C127.149 91.8517 135.803 90.0096 138.951 93.1675C142.098 96.3254 135.391 96.5075 131.645 96.2038C136.328 98.2281 139.806 100.926 137.108 102.87C134.411 104.813 130.333 101.872 126.025 99.2403C126.68 100.455 127.261 103.248 124.339 104.706C121.416 106.163 120.311 101.669 120.124 99.2403C118.438 100.657 114.728 103.066 113.38 101.366C112.031 99.6654 115.44 97.216 117.314 96.2038C116.002 96.2038 113.38 95.9002 113.38 94.6856C113.38 93.1675 118.438 91.6493 123.215 93.1675ZM123.215 93.1675C124.432 93.7747 127.092 95.2322 127.992 96.2038" stroke="black"/>
<path d="M186.244 81.7345C186.419 80.698 185.004 80.8707 184.274 81.0867C184.274 82.9871 182.669 85.6214 181.867 86.7011C171.012 85.6645 168.591 87.9487 168.737 89.2203C166.542 89.409 164.265 89.8115 163.703 90.5881C162.828 91.7973 166.111 92.5316 167.861 92.7475C165.308 92.6035 160.027 92.5747 159.326 93.6113C158.626 94.6478 161.077 95.1949 162.39 95.3388C160.858 95.1949 157.444 95.2525 156.044 96.6345C154.643 98.0165 158.816 98.9379 161.077 99.2258C159.91 99.5138 157.663 100.824 158.013 103.761C158.344 106.53 163.371 103.5 166.267 101.335C165.719 101.936 165.409 103.098 166.767 104.84C168.518 107.086 170.998 103.185 172.019 100.953C171.873 101.673 172.107 103.458 174.208 104.84C176.305 106.22 177.705 101.687 178.145 99.2367C178.006 100.035 178.556 101.909 181.867 103.113C185.193 104.322 184.128 98.434 183.18 95.3388C183.545 95.9147 185.106 97.1096 188.432 97.2823C191.758 97.4551 187.046 91.1639 184.274 87.9967C184.858 86.3412 186.069 82.771 186.244 81.7345Z" fill="#A6AA30"/>
<path d="M172.019 89.0764C171.158 89.0764 169.96 89.1152 168.737 89.2203M168.737 89.2203C166.542 89.409 164.265 89.8115 163.703 90.5881C162.828 91.7973 166.111 92.5316 167.861 92.7475C165.308 92.6035 160.027 92.5747 159.326 93.6113C158.626 94.6478 161.077 95.1949 162.39 95.3388C160.858 95.1949 157.444 95.2525 156.044 96.6345C154.643 98.0165 158.816 98.9379 161.077 99.2258C159.91 99.5138 157.663 100.824 158.013 103.761C158.364 106.698 163.995 103.113 166.767 100.953C166.038 101.313 165.016 102.595 166.767 104.84C168.518 107.086 170.998 103.185 172.019 100.953C171.873 101.673 172.107 103.458 174.208 104.84C176.308 106.222 177.709 101.673 178.147 99.2258C178.001 100.018 178.541 101.904 181.867 103.113C185.193 104.322 184.128 98.434 183.18 95.3388C183.545 95.9147 185.106 97.1096 188.432 97.2823C191.758 97.4551 187.046 91.1639 184.274 87.9967C184.858 86.3412 186.069 82.771 186.244 81.7345C186.419 80.698 185.004 80.8707 184.274 81.0867C184.274 82.9871 182.669 85.6214 181.867 86.7011M168.737 89.2203C168.591 87.9487 171.012 85.6645 181.867 86.7011M181.867 86.7011C179.714 89.2204 173.68 95.0365 166.767 98.1461" stroke="black"/>
<path d="M102.748 63.6531L103.08 63.3827C102.298 62.1352 96.9971 58.576 94.3558 59.8737C88.7108 51.9695 83.6862 52.4376 82.1657 54.5727C80.9493 56.2808 82.5117 58.5095 83.4449 59.4104C80.3728 58.6772 78.0119 60.7307 77.2155 61.8491C80.7169 64.7891 84.0533 65.3634 85.2839 65.2831C81.9183 69.801 84.4365 73.8441 86.1163 75.3008C93.6801 74.6383 94.5731 71.0779 94.0167 69.0391C94.8316 71.0372 97.3615 72.1107 98.5976 72.408C101.5 67.6696 99.3175 65.3591 97.7804 64.7506C100.062 65.5822 102.038 64.3725 102.748 63.6531Z" fill="#CF6029"/>
<path d="M94.3558 59.8737C93.9901 60.0534 93.6563 60.2464 93.3653 60.4389C92.546 61.2208 90.6788 63.2097 89.7642 64.9103M94.3558 59.8737C96.9971 58.576 102.298 62.1352 103.08 63.3827L102.748 63.6531C102.028 64.3825 100.007 65.6161 97.6847 64.7145C99.2238 65.2633 101.561 67.5703 98.5976 72.408C97.2795 72.091 94.4902 70.8913 93.8781 68.6291C94.6663 70.5574 94.2175 74.5913 86.1163 75.3008C84.4365 73.8441 81.9183 69.8011 85.2839 65.2831C84.0533 65.3634 80.7169 64.7891 77.2155 61.8491C78.0119 60.7307 80.3729 58.6772 83.4449 59.4104C82.5117 58.5095 80.9493 56.2808 82.1657 54.5727C83.6862 52.4376 88.7108 51.9695 94.3558 59.8737Z" stroke="black"/>
<path d="M100.902 79.6011L102.255 81.1736C102.537 81.5018 102.549 81.9837 102.282 82.325C102.016 82.6663 101.546 82.7721 101.159 82.5778L99.3048 81.6467C98.5586 81.2719 98.3418 80.3082 98.8556 79.6499C99.3694 78.9917 100.357 78.9681 100.902 79.6011Z" fill="#4B371F" stroke="black"/>
<path d="M99.6026 91.0631C100.743 91.9536 102.358 92.1097 104.111 91.5382C105.86 90.9679 107.688 89.6851 109.155 87.8056C110.622 85.9261 111.423 83.8411 111.552 82.0061C111.681 80.1674 111.137 78.6386 109.997 77.7482C108.856 76.8578 107.241 76.7017 105.489 77.2731C103.74 77.8435 101.911 79.1263 100.444 81.0057C98.977 82.8852 98.1763 84.9702 98.0475 86.8052C97.9185 88.644 98.4619 90.1727 99.6026 91.0631Z" fill="#4B371F" stroke="black"/>
<path d="M104.272 92.698C107.317 95.0749 111.802 95.251 114.293 93.0467C114.435 92.9205 114.602 92.8842 114.707 92.8713C114.819 92.8574 114.933 92.8624 115.031 92.8717C115.209 92.8887 115.413 92.9291 115.586 92.9634C115.601 92.9664 115.616 92.9694 115.631 92.9723C115.701 92.9862 115.767 92.9989 115.827 93.0096C115.802 92.954 115.774 92.8937 115.743 92.8285C115.736 92.8149 115.73 92.8011 115.723 92.787C115.648 92.6275 115.559 92.4399 115.5 92.2715C115.467 92.1788 115.434 92.0694 115.421 91.9567C115.408 91.8519 115.402 91.6815 115.49 91.5125C117.024 88.5609 115.765 84.2532 112.72 81.8763C111.088 80.6026 109.71 80.4829 108.461 80.9758C107.155 81.4917 105.91 82.7085 104.668 84.2992C103.427 85.8898 102.548 87.3927 102.365 88.7855C102.19 90.1163 102.64 91.4243 104.272 92.698Z" fill="#9C6923" stroke="black"/>
<path d="M112.881 86.8449C112.691 86.0818 111.851 84.3268 110.02 83.4111" stroke="#F6D6B7" stroke-linecap="round" stroke-linejoin="round"/>
<path d="M224.982 81.1077C223.771 78.5632 218.168 77.7145 215.518 77.6083C212.973 75.6591 209.603 75.4211 209.275 76.3079C209.013 77.0173 210.524 77.778 211.313 78.0696C209.968 78.2442 207.388 78.9167 207.832 80.2099C208.276 81.5031 211.027 80.9209 212.347 80.4681C211.935 81.9287 211.629 84.7995 213.702 84.5981C215.774 84.3966 216.028 82.6357 215.896 81.7804C217.919 84.2758 222.475 89.1327 224.517 88.5974C226.559 88.0622 222.311 83.4805 219.932 81.2566C222.12 82.2672 226.192 83.6522 224.982 81.1077Z" fill="#F18C34"/>
<path d="M215.518 77.6083C218.168 77.7145 223.771 78.5632 224.982 81.1077C226.192 83.6522 222.12 82.2672 219.932 81.2566C222.311 83.4805 226.559 88.0622 224.517 88.5974C222.475 89.1327 217.919 84.2758 215.896 81.7804C216.028 82.6357 215.774 84.3966 213.702 84.5981C211.629 84.7995 211.935 81.9287 212.347 80.4681C211.027 80.9209 208.276 81.5031 207.832 80.2099C207.388 78.9167 209.968 78.2442 211.313 78.0696C210.524 77.778 209.013 77.0173 209.275 76.3079C209.603 75.4211 212.973 75.6591 215.518 77.6083ZM215.518 77.6083C216.119 78.2338 217.404 79.6767 217.735 80.4442" stroke="black"/>
<path d="M190.75 52.1025L187.617 123.031H193.211L190.75 52.1025Z" fill="#896736" stroke="black"/>
<path d="M185.828 65.7511C180.943 69.008 176.133 69.0327 174.193 68.4361C181.339 67.3903 188.126 56.1958 191.198 50.5361C192.081 61.9921 199.69 66.7952 203.057 67.5411C197.329 67.5411 192.466 63.3644 190.751 61.2761C190.751 61.2761 189.185 63.5136 185.828 65.7511Z" fill="#14653C" stroke="black"/>
<path d="M185.828 75.371C180.235 78.7273 172.105 79.3239 170.166 78.7273C180.458 77.6556 187.679 69.8433 190.751 64.1836C191.633 75.6395 202.61 77.3848 206.19 78.056C194.778 78.951 192.466 72.9844 190.751 70.8961C190.751 70.8961 189.287 73.2957 185.828 75.371Z" fill="#14653C" stroke="black"/>
<path d="M185.827 83.4277C180.233 86.7839 172.104 87.3806 170.165 86.7839C180.457 85.7123 187.678 77.8999 190.749 72.2402C191.632 83.6962 202.384 83.8752 205.964 84.5464C194.553 85.4414 192.465 81.041 190.749 78.9527C190.749 78.9527 189.286 81.3524 185.827 83.4277Z" fill="#14653C" stroke="black"/>
<path d="M176.206 92.1539C183.545 92.1539 189.407 86.3365 191.42 83.4277C191.42 84.6956 190.66 87.9475 187.617 90.8115C184.574 93.6754 178.741 92.8998 176.206 92.1539Z" fill="#14653C" stroke="black"/>
<path d="M200.819 91.2603C196.881 91.2603 192.913 88.1278 191.421 86.5615C190.377 87.7549 189.05 90.3653 192.093 91.2603C195.136 92.1552 199.178 91.6332 200.819 91.2603Z" fill="#14653C" stroke="black"/>
<path d="M183.365 96.4675C186.523 96.4675 189.704 94.038 190.9 92.8232C191.737 93.7488 192.802 95.7733 190.362 96.4675C187.922 97.1616 184.681 96.7567 183.365 96.4675Z" fill="#14653C" stroke="black"/>
<defs>
<radialGradient id="paint0_radial_30273_23861" cx="0" cy="0" r="1" gradientUnits="userSpaceOnUse" gradientTransform="translate(142.92 113.275) rotate(90) scale(50.9081 142.543)">
<stop offset="0.31" stop-color="#D7D570"/>
<stop offset="1" stop-color="#B6DF5D" stop-opacity="0"/>
</radialGradient>
</defs>
</svg>
