<svg width="214" height="138" viewBox="0 0 214 138" fill="none" xmlns="http://www.w3.org/2000/svg">
  <ellipse cx="99.9638" cy="15.67" rx="99.9638" ry="15.67" transform="matrix(-1 0 0 1 208.869 105.827)" fill="black" fill-opacity="0.2"/>
  <path d="M23.823 73.1846L16.7349 118.854H29.0459L23.823 73.1846Z" fill="#896736" stroke="black" stroke-linejoin="round"/>
  <path d="M43.0977 105.621H1.9292C-0.776343 93.2466 7.11478 86.7158 11.3985 84.9971C8.91847 85.8564 3.55251 85.8564 1.9292 78.9819C0.305882 72.1074 9.85516 62.8829 13.688 61.1642C3.77076 58.4284 13.8485 37.7432 22.6415 37.7432C27.4415 37.7432 41.0458 56.0346 28.3081 60.0426C30.1117 60.0426 37.9681 61.1642 43.0977 74.1592C45.5468 80.3636 41.4382 83.6859 37.9966 82.8416C46.1514 88.4688 42.4692 101.096 43.0977 105.621Z" fill="#14653C" stroke="black" stroke-linejoin="round"/>
  <path d="M43.3151 81.4521L37.999 125.454H50.3101L43.3151 81.4521Z" fill="#896736" stroke="black" stroke-linejoin="round"/>
  <path d="M65.76 113.142H21.459C21.459 102.126 28.2374 98.4814 32.4624 97.1486C30.0164 97.815 24.8321 99.7784 23.231 94.4471C22.3441 91.4937 31.4508 83.154 35.2311 81.8212C25.003 79.6801 37.1897 60.7783 42.1328 60.7783C47.0758 60.7783 58.6719 80.2708 49.1403 81.8212C50.9193 81.8212 57.9464 85.5718 62.2159 90.903C66.4855 96.2343 59.8532 97.9912 55.1277 97.1486C65.8016 100.88 65.0929 109.366 65.76 113.142Z" fill="#238252" stroke="black" stroke-linejoin="round"/>
  <path d="M91.7991 41.6123C78.1742 49.3706 68.6982 65.7699 68.6982 79.6206C68.6982 90.9336 75.0199 97.98 84.7606 101.812H131.323C141.064 97.98 147.386 90.9336 147.386 79.6206C147.386 65.7699 137.91 49.3706 124.285 41.6123H91.7991Z" fill="#DCA450" stroke="black" stroke-linecap="round"/>
  <path d="M72.2834 63.6318C69.9818 68.8377 68.6982 74.2552 68.6982 79.3291C68.6982 83.4249 69.5347 86.9589 71.0678 89.9813H145.016C146.549 86.9589 147.386 83.4249 147.386 79.3291C147.386 74.2552 146.102 68.8377 143.801 63.6318H72.2834Z" fill="#EBD783" stroke="black" stroke-linecap="round"/>
  <path d="M108.042 29.3408C105.45 29.3408 103.35 31.3273 103.35 33.7778C103.35 35.4356 104.311 36.881 105.736 37.6427H110.348C111.773 36.881 112.734 35.4356 112.734 33.7778C112.734 31.3273 110.633 29.3408 108.042 29.3408Z" fill="#A77148" stroke="black" stroke-linecap="round"/>
  <path d="M87.8281 44.1404C87.8281 39.356 91.7066 35.4775 96.4909 35.4775H119.953C124.737 35.4775 128.616 39.356 128.616 44.1404H87.8281Z" fill="#A77148" stroke="black" stroke-linecap="round"/>
  <rect x="88.6958" y="95.9844" width="23.7462" height="6.249" rx="3.1245" transform="rotate(90 88.6958 95.9844)" fill="#76500D" stroke="black" stroke-linecap="round"/>
  <rect x="141.812" y="95.9834" width="23.7462" height="6.249" rx="3.1245" transform="rotate(90 141.812 95.9834)" fill="#76500D" stroke="black" stroke-linecap="round"/>
  <rect x="201.802" y="95.9834" width="23.7462" height="6.249" rx="3.1245" transform="rotate(90 201.802 95.9834)" fill="#76500D" stroke="black" stroke-linecap="round"/>
  <path d="M135.254 18.0977C116.27 28.9071 103.068 51.7557 103.068 71.0535C103.068 86.8155 111.876 96.633 125.447 101.972H190.321C203.893 96.6331 212.701 86.8155 212.701 71.0535C212.701 51.7557 199.498 28.9071 180.515 18.0977L135.254 18.0977Z" fill="#DCA450" stroke="black" stroke-linecap="round"/>
  <path d="M108.063 48.7764C104.856 56.0295 103.068 63.5776 103.068 70.6469C103.068 76.3534 104.233 81.2772 106.369 85.4882H209.399C211.535 81.2772 212.701 76.3534 212.701 70.6469C212.701 63.5776 210.912 56.0295 207.705 48.7764H108.063Z" fill="#EBD783" stroke="black" stroke-linecap="round"/>
  <path d="M157.884 40.7295C139.831 40.7295 125.196 55.2902 125.196 73.2517C125.196 85.4029 131.894 95.9977 141.817 101.581H173.952C183.875 95.9977 190.573 85.4029 190.573 73.2517C190.573 55.2902 175.938 40.7295 157.884 40.7295Z" fill="#A77148"/>
  <path d="M157.884 40.7295C139.831 40.7295 125.196 55.2902 125.196 73.2517C125.196 85.4029 131.894 95.9977 141.817 101.581H173.952C183.875 95.9977 190.573 85.4029 190.573 73.2517C190.573 55.2902 175.938 40.7295 157.884 40.7295Z" fill="#A77148"/>
  <path d="M157.884 40.7295C139.831 40.7295 125.196 55.2902 125.196 73.2517C125.196 85.4029 131.894 95.9977 141.817 101.581H173.952C183.875 95.9977 190.573 85.4029 190.573 73.2517C190.573 55.2902 175.938 40.7295 157.884 40.7295Z" stroke="black" stroke-linecap="round"/>
  <path d="M157.884 46.2617C142.886 46.2617 130.728 58.175 130.728 72.8708C130.728 82.8127 136.292 91.4812 144.536 96.0491H164.405H171.232C179.476 91.4812 185.041 82.8127 185.041 72.8708C185.041 58.175 172.883 46.2617 157.884 46.2617Z" fill="#C09344"/>
  <path d="M149.638 55.344V77.1992M155.545 65.3856V79.5619M168.54 51.2092V65.3856M164.405 88.4221V96.0491M164.405 96.0491H144.536C136.292 91.4812 130.728 82.8127 130.728 72.8708C130.728 58.175 142.886 46.2617 157.884 46.2617C172.883 46.2617 185.041 58.175 185.041 72.8708C185.041 82.8127 179.476 91.4812 171.232 96.0491H164.405Z" stroke="black" stroke-linecap="round"/>
  <circle cx="177.4" cy="74.2453" r="3.54408" fill="#A77148" stroke="black" stroke-linecap="round"/>
  <path d="M157.885 1C154.275 1 151.348 3.76774 151.348 7.18191C151.348 9.49165 152.687 11.5055 154.672 12.5668H161.099C163.083 11.5055 164.423 9.49165 164.423 7.18191C164.423 3.76774 161.496 1 157.885 1Z" fill="#A77148" stroke="black" stroke-linecap="round"/>
  <path d="M129.723 21.6185C129.723 14.9526 135.126 9.54883 141.792 9.54883L174.481 9.54883C181.147 9.54883 186.551 14.9526 186.551 21.6185H129.723Z" fill="#A77148" stroke="black" stroke-linecap="round"/>
  <path d="M161.799 42.123C162.057 42.123 162.272 42.3188 162.297 42.5752L163.551 55.6192C163.564 55.7595 163.518 55.8989 163.423 56.0032C163.329 56.1076 163.194 56.167 163.053 56.167H152.769C152.628 56.167 152.493 56.1076 152.398 56.0032C152.304 55.8989 152.257 55.7595 152.271 55.6192L153.525 42.5752C153.55 42.3188 153.765 42.123 154.023 42.123H161.799Z" fill="#F7BE4A" stroke="black" stroke-linejoin="round"/>
  <path d="M163.053 55.168C163.329 55.168 163.553 55.3918 163.553 55.668V59.5017C163.553 59.5274 163.551 59.5531 163.547 59.5785L163.053 59.5017C163.547 59.5785 163.547 59.5789 163.547 59.5793L163.547 59.5801L163.547 59.582L163.546 59.5867L163.544 59.5992C163.542 59.609 163.54 59.6216 163.536 59.6368C163.53 59.6672 163.521 59.7081 163.507 59.758C163.48 59.8578 163.437 59.9942 163.369 60.155C163.234 60.4766 163 60.8978 162.601 61.3161C161.792 62.1655 160.367 62.9408 157.911 62.9408C155.454 62.9408 154.03 62.1655 153.221 61.3161C152.822 60.8978 152.588 60.4766 152.452 60.155C152.385 59.9942 152.341 59.8578 152.315 59.758C152.301 59.7081 152.292 59.6672 152.285 59.6368C152.282 59.6216 152.28 59.609 152.278 59.5992L152.276 59.5867L152.275 59.582L152.275 59.5801L152.275 59.5793C152.275 59.5789 152.274 59.5785 152.769 59.5017L152.274 59.5785C152.271 59.5531 152.269 59.5274 152.269 59.5017V55.668C152.269 55.3918 152.492 55.168 152.769 55.168H163.053Z" fill="#D39924" stroke="black" stroke-linejoin="round"/>
  <path d="M183.999 42.125C184.14 42.125 184.274 42.1841 184.369 42.2878L196.284 55.3318C196.417 55.4781 196.452 55.6894 196.372 55.8707C196.292 56.052 196.113 56.169 195.915 56.169H184.626C184.452 56.169 184.289 56.0776 184.199 55.928L176.297 42.8841C176.204 42.7297 176.201 42.5368 176.289 42.3796C176.378 42.2223 176.544 42.125 176.725 42.125H183.999Z" fill="white" stroke="black" stroke-linejoin="round"/>
  <path d="M195.914 55.168C196.19 55.168 196.414 55.3918 196.414 55.668V59.5017C196.414 59.5298 196.412 59.558 196.407 59.5858L195.914 59.5017C196.407 59.5858 196.407 59.5862 196.407 59.5866L196.407 59.5876L196.406 59.5896L196.405 59.5945L196.403 59.6076C196.401 59.6178 196.398 59.6307 196.395 59.6463C196.387 59.6774 196.377 59.719 196.362 59.7697C196.332 59.871 196.284 60.0088 196.209 60.1707C196.059 60.4951 195.801 60.9162 195.366 61.3326C194.486 62.1743 192.941 62.9408 190.27 62.9408C187.599 62.9408 186.054 62.1743 185.174 61.3326C184.739 60.9162 184.481 60.4951 184.331 60.1707C184.256 60.0088 184.208 59.871 184.178 59.7697C184.163 59.719 184.153 59.6774 184.146 59.6463C184.142 59.6307 184.139 59.6178 184.137 59.6076L184.135 59.5945L184.134 59.5896L184.133 59.5876L184.133 59.5866C184.133 59.5862 184.133 59.5858 184.626 59.5017L184.133 59.5858C184.128 59.558 184.126 59.5298 184.126 59.5017V55.668C184.126 55.3918 184.35 55.168 184.626 55.168H195.914Z" fill="#D9D9D9" stroke="black" stroke-linejoin="round"/>
  <path d="M176.724 42.125C176.899 42.125 177.061 42.2164 177.151 42.3659L185.053 55.4099C185.147 55.5643 185.15 55.7571 185.061 55.9144C184.973 56.0717 184.806 56.169 184.625 56.169H173.588C173.37 56.169 173.178 56.0279 173.112 55.8202L168.973 42.7762C168.925 42.6242 168.952 42.4584 169.046 42.3297C169.14 42.201 169.29 42.125 169.449 42.125H176.724Z" fill="#F7BE4A" stroke="black" stroke-linejoin="round"/>
  <path d="M184.625 55.1689C184.902 55.1689 185.125 55.3928 185.125 55.6689V59.5026C185.125 59.5302 185.123 59.5577 185.119 59.5849L184.625 59.5026C185.119 59.5849 185.119 59.5854 185.119 59.5858L185.118 59.5867L185.118 59.5887L185.117 59.5936L185.115 59.6065C185.113 59.6166 185.11 59.6294 185.107 59.6449C185.1 59.6758 185.09 59.7173 185.075 59.7678C185.046 59.8687 184.999 60.0061 184.926 60.1678C184.78 60.4916 184.528 60.9127 184.101 61.3296C183.239 62.1733 181.724 62.9418 179.107 62.9418C176.49 62.9418 174.975 62.1733 174.112 61.3296C173.686 60.9127 173.434 60.4916 173.288 60.1678C173.215 60.0061 173.168 59.8687 173.139 59.7678C173.124 59.7173 173.114 59.6758 173.107 59.6449C173.104 59.6294 173.101 59.6166 173.099 59.6065L173.097 59.5936L173.096 59.5887L173.095 59.5867L173.095 59.5858C173.095 59.5854 173.095 59.5849 173.588 59.5026L173.095 59.5849C173.091 59.5577 173.088 59.5302 173.088 59.5026V55.6689C173.088 55.3928 173.312 55.1689 173.588 55.1689H184.625Z" fill="#D39924" stroke="black" stroke-linejoin="round"/>
  <path d="M169.449 42.125C169.667 42.125 169.86 42.2661 169.926 42.4738L174.064 55.5178C174.113 55.6697 174.086 55.8356 173.991 55.9643C173.897 56.0929 173.747 56.169 173.588 56.169H163.052C162.797 56.169 162.582 55.9759 162.555 55.7216L161.175 42.6776C161.161 42.5366 161.206 42.3959 161.301 42.2906C161.396 42.1852 161.531 42.125 161.673 42.125H169.449Z" fill="white" stroke="black" stroke-linejoin="round"/>
  <path d="M173.587 55.168C173.864 55.168 174.087 55.3918 174.087 55.668V59.5017C174.087 59.528 174.085 59.5543 174.081 59.5803L173.587 59.5017C174.081 59.5803 174.081 59.5807 174.081 59.5811L174.081 59.582L174.081 59.5839L174.08 59.5887L174.078 59.6013C174.076 59.6112 174.073 59.6239 174.07 59.6392C174.063 59.6697 174.054 59.7108 174.04 59.7609C174.012 59.8611 173.968 59.9979 173.898 60.159C173.759 60.4813 173.519 60.9025 173.111 61.3204C172.284 62.168 170.83 62.9408 168.32 62.9408C165.81 62.9408 164.355 62.168 163.528 61.3204C163.12 60.9025 162.88 60.4813 162.741 60.159C162.671 59.9979 162.627 59.8611 162.599 59.7609C162.586 59.7108 162.576 59.6697 162.569 59.6392C162.566 59.6239 162.564 59.6112 162.562 59.6013L162.559 59.5887L162.559 59.5839L162.558 59.582L162.558 59.5811C162.558 59.5807 162.558 59.5803 163.052 59.5017L162.558 59.5803C162.554 59.5543 162.552 59.528 162.552 59.5017V55.668C162.552 55.3918 162.776 55.168 163.052 55.168H173.587Z" fill="#D9D9D9" stroke="black" stroke-linejoin="round"/>
  <path d="M146.246 42.125C146.028 42.125 145.835 42.2661 145.769 42.4738L141.63 55.5178C141.582 55.6697 141.609 55.8356 141.703 55.9643C141.798 56.0929 141.947 56.169 142.107 56.169H152.768C153.025 56.169 153.241 55.9733 153.266 55.7168L154.52 42.6729C154.533 42.5326 154.487 42.3931 154.392 42.2888C154.297 42.1845 154.163 42.125 154.022 42.125H146.246Z" fill="white" stroke="black" stroke-linejoin="round"/>
  <path d="M152.769 55.1689C153.045 55.1689 153.269 55.3928 153.269 55.6689V59.5026C153.269 59.529 153.266 59.5553 153.262 59.5813L152.769 59.5026C153.262 59.5813 153.262 59.5817 153.262 59.5821L153.262 59.583L153.262 59.5849L153.261 59.5896L153.259 59.6023C153.257 59.6122 153.254 59.6249 153.251 59.6401C153.245 59.6707 153.235 59.7118 153.221 59.7619C153.193 59.8621 153.149 59.9989 153.079 60.16C152.94 60.4823 152.7 60.9035 152.292 61.3214C151.465 62.1689 150.011 62.9418 147.501 62.9418C144.991 62.9418 143.536 62.1689 142.709 61.3214C142.301 60.9035 142.061 60.4823 141.922 60.16C141.853 59.9989 141.808 59.8621 141.781 59.7619C141.767 59.7118 141.757 59.6707 141.75 59.6401C141.747 59.6249 141.745 59.6122 141.743 59.6023L141.741 59.5896L141.74 59.5849L141.74 59.583L141.739 59.5821C141.739 59.5817 141.739 59.5813 142.233 59.5026L141.739 59.5813C141.735 59.5553 141.733 59.529 141.733 59.5026V55.6689C141.733 55.3928 141.957 55.1689 142.233 55.1689H152.769Z" fill="#D9D9D9" stroke="black" stroke-linejoin="round"/>
  <path d="M138.971 42.125C138.797 42.125 138.636 42.2151 138.545 42.363L130.518 55.4069C130.423 55.5612 130.419 55.7548 130.507 55.9129C130.596 56.071 130.763 56.169 130.944 56.169H142.232C142.451 56.169 142.645 56.0258 142.71 55.816L146.723 42.772C146.77 42.6204 146.742 42.4556 146.648 42.3279C146.553 42.2003 146.404 42.125 146.245 42.125H138.971Z" fill="#F7BE4A" stroke="black" stroke-linejoin="round"/>
  <path d="M142.231 55.168C142.508 55.168 142.731 55.3918 142.731 55.668V59.5017C142.731 59.5298 142.729 59.558 142.724 59.5858L142.231 59.5017C142.724 59.5858 142.724 59.5862 142.724 59.5866L142.724 59.5876L142.724 59.5896L142.723 59.5945L142.72 59.6076C142.718 59.6178 142.716 59.6307 142.712 59.6463C142.705 59.6774 142.694 59.719 142.679 59.7697C142.649 59.871 142.601 60.0088 142.527 60.1707C142.377 60.4951 142.119 60.9162 141.683 61.3326C140.803 62.1743 139.259 62.9408 136.587 62.9408C133.916 62.9408 132.371 62.1743 131.491 61.3326C131.056 60.9162 130.798 60.4951 130.648 60.1707C130.573 60.0088 130.525 59.871 130.495 59.7697C130.481 59.719 130.47 59.6774 130.463 59.6463C130.459 59.6307 130.457 59.6178 130.455 59.6076L130.452 59.5945L130.451 59.5896L130.451 59.5876L130.451 59.5866C130.451 59.5862 130.451 59.5858 130.943 59.5017L130.451 59.5858C130.446 59.558 130.443 59.5298 130.443 59.5017V55.668C130.443 55.3918 130.667 55.168 130.943 55.168H142.231Z" fill="#D39924" stroke="black" stroke-linejoin="round"/>
  <path d="M131.697 42.124C131.557 42.124 131.424 42.1823 131.329 42.2849L119.289 55.3289C119.154 55.4748 119.119 55.6866 119.198 55.8685C119.278 56.0505 119.458 56.168 119.656 56.168H130.944C131.118 56.168 131.279 56.0779 131.37 55.9301L139.397 42.8861C139.492 42.7318 139.496 42.5382 139.408 42.3801C139.32 42.222 139.153 42.124 138.971 42.124H131.697Z" fill="white" stroke="black" stroke-linejoin="round"/>
  <path d="M130.944 55.168C131.22 55.168 131.444 55.3918 131.444 55.668V59.5017C131.444 59.5298 131.441 59.558 131.437 59.5858L130.944 59.5017C131.437 59.5858 131.437 59.5862 131.437 59.5866L131.436 59.5876L131.436 59.5896L131.435 59.5945L131.433 59.6076C131.431 59.6178 131.428 59.6307 131.424 59.6463C131.417 59.6774 131.407 59.719 131.392 59.7697C131.362 59.871 131.314 60.0088 131.239 60.1707C131.089 60.4951 130.831 60.9162 130.396 61.3326C129.516 62.1743 127.971 62.9408 125.3 62.9408C122.628 62.9408 121.084 62.1743 120.204 61.3326C119.768 60.9162 119.511 60.4951 119.361 60.1707C119.286 60.0088 119.238 59.871 119.208 59.7697C119.193 59.719 119.182 59.6774 119.175 59.6463C119.172 59.6307 119.169 59.6178 119.167 59.6076L119.164 59.5945L119.164 59.5896L119.163 59.5876L119.163 59.5866C119.163 59.5862 119.163 59.5858 119.656 59.5017L119.163 59.5858C119.158 59.558 119.156 59.5298 119.156 59.5017V55.668C119.156 55.3918 119.38 55.168 119.656 55.168H130.944Z" fill="#D9D9D9" stroke="black" stroke-linejoin="round"/>
  <path d="M130.145 43.4375H129.645V42.9375V38.9253V38.8421L129.672 38.7634L130.145 38.9253C129.672 38.7634 129.672 38.7627 129.672 38.7619L129.673 38.7602L129.674 38.7563L129.678 38.7466C129.681 38.7392 129.684 38.7301 129.688 38.7194C129.697 38.698 129.709 38.6699 129.725 38.6357C129.756 38.5673 129.803 38.4743 129.87 38.3605C130.005 38.1327 130.222 37.8226 130.559 37.4588C131.234 36.7305 132.387 35.7936 134.325 34.8687C138.197 33.0218 145.22 31.2146 157.907 31.2146C170.594 31.2146 177.617 33.0218 181.489 34.8687C183.427 35.7936 184.58 36.7305 185.255 37.4588C185.592 37.8226 185.809 38.1327 185.944 38.3605C186.011 38.4743 186.058 38.5673 186.09 38.6357C186.105 38.6699 186.117 38.698 186.126 38.7194C186.13 38.7301 186.133 38.7392 186.136 38.7466L186.14 38.7563L186.141 38.7602L186.142 38.7619C186.142 38.7627 186.142 38.7634 185.669 38.9253L186.142 38.7634L186.169 38.8421V38.9253V42.9375V43.4375H185.669H130.145Z" fill="#D39924" stroke="black"/>
  <rect x="84.3213" y="101.61" width="108.733" height="7.49881" rx="3.7494" fill="#C09344" stroke="black" stroke-linecap="round"/>
  <rect x="138.688" y="107.857" width="46.2426" height="7.49881" rx="3.7494" fill="#C09344" stroke="black" stroke-linecap="round"/>
  <rect x="133.688" y="114.105" width="46.2426" height="7.49881" rx="3.7494" fill="#C09344" stroke="black" stroke-linecap="round"/>
  <rect x="126.601" y="120.316" width="46.2426" height="7.49881" rx="3.7494" fill="#C09344" stroke="black" stroke-linecap="round"/>
</svg>
