<svg width="169" height="83" viewBox="0 0 169 83" fill="none" xmlns="http://www.w3.org/2000/svg">
  <path d="M102.753 10.0502C69.1339 -4.94893 63.3153 2.73811 52.6478 10.0502C31.7405 31.1848 41.9803 48.5179 63.3153 56.5993C84.6502 64.6807 77.5386 88.2785 96.934 94.4204C112.45 99.3339 123.872 89.787 127.643 84.3994C141.112 86.9855 168.115 85.0459 168.374 56.5993C168.697 21.041 144.776 28.7991 102.753 10.0502Z" fill="#F6C5C9" stroke="black"/>
  <path d="M83.6005 12.5447C71.7046 3.23493 60.757 13.8378 56.7701 20.3029C52.8911 31.617 52.2445 41.961 74.8725 52.6285C97.5005 63.296 92.9749 74.2867 121.745 79.4588C150.515 84.6309 162.798 41.961 146.636 32.5865C130.473 23.2121 123.038 45.1936 108.491 41.961C93.9447 38.7284 98.4703 24.182 83.6005 12.5447Z" fill="#EC99A3"/>
  <path d="M119.99 35.9366C130.334 45.311 121.606 50.4832 109.645 46.9273C104.099 45.2784 99.4433 41.7396 96.0686 38.3005C101.241 29.6736 109.645 26.5621 119.99 35.9366Z" fill="#EBF479"/>
  <path d="M90.8965 31.7343C91.8477 33.3648 93.6213 35.8065 96.0686 38.3005M96.0686 38.3005C99.4433 41.7396 104.099 45.2784 109.645 46.9273C121.606 50.4832 130.334 45.311 119.99 35.9366C109.645 26.5621 101.241 29.6736 96.0686 38.3005Z" stroke="black"/>
  <path d="M39.2063 77.3897C46.0539 93.2778 60.2834 104.054 66.5422 107.455C62.71 95.9357 52.1611 68.7505 40.6225 52.1684C26.1994 31.4408 1.70341 27.3737 0.655352 36.4662C-0.392718 45.5587 30.6467 57.5297 39.2063 77.3897Z" fill="#14653C" stroke="black"/>
  <path d="M94.6524 51.89C100.169 65.5195 92.3537 89.2088 87.7565 99.3498C80.9958 101.108 66.9066 100.891 64.635 85.9638C61.7955 67.3044 71.1252 67.7099 72.3422 51.89C73.5591 36.07 87.7565 34.8531 94.6524 51.89Z" fill="#407300" stroke="black"/>
</svg>
