<svg width="159" height="174" viewBox="0 0 159 174" fill="none" xmlns="http://www.w3.org/2000/svg">
  <path d="M19.7009 143.238C26.5485 159.126 40.778 169.902 47.0368 173.304C43.2046 161.784 32.6557 134.599 21.1172 118.017C6.69401 97.2894 -17.802 93.2223 -18.85 102.315C-19.8981 111.407 11.1414 123.378 19.7009 143.238Z" fill="#14653C" stroke="black"/>
  <path d="M89.8212 130.879C68.3929 136.503 54.1465 149.146 49.7019 154.764C50.5977 138.811 68.6442 124.355 83.3493 121.447C98.0544 118.539 116.607 123.848 89.8212 130.879Z" fill="#14653C" stroke="black"/>
  <path d="M50.3283 164.033C52.4971 125.411 62.7024 103.384 67.5339 97.198C67.2605 89.2905 64.1595 78.713 53.9429 99.6634C41.1722 125.851 47.6174 212.31 50.3283 164.033Z" fill="#14653C" stroke="black"/>
  <path d="M75.7017 11.8293C33.5151 -6.99234 26.2137 2.65375 12.8275 11.8293C-13.408 38.3501 -0.558569 60.1006 26.2136 70.2415C52.9858 80.3825 44.0618 109.994 68.4001 117.701C87.8708 123.867 102.203 111.887 106.936 105.127C123.838 108.372 157.722 105.938 158.046 70.2415C158.452 25.6212 128.435 35.3564 75.7017 11.8293Z" fill="#F08A95" stroke="black"/>
  <path d="M51.6687 14.9602C36.7411 3.27775 23.0035 16.5827 18.0006 24.6955C13.1329 38.893 12.3216 51.8732 40.7164 65.2593C69.1112 78.6454 63.4322 92.4372 99.5341 98.9274C135.636 105.418 151.05 51.8732 130.768 40.1097C110.486 28.3461 101.157 55.9296 82.9029 51.8732C64.6491 47.8168 70.3281 29.5632 51.6687 14.9602Z" fill="#E36974"/>
  <path d="M97.3298 44.3137C110.31 56.0773 99.358 62.5675 84.3494 58.1055C77.3895 56.0363 71.5473 51.5957 67.3125 47.28C73.8027 36.4546 84.3494 32.5502 97.3298 44.3137Z" fill="#EBF479"/>
  <path d="M60.8223 39.0404C62.0158 41.0865 64.2415 44.1504 67.3125 47.28M67.3125 47.28C71.5473 51.5957 77.3895 56.0363 84.3494 58.1055C99.358 62.5675 110.31 56.0773 97.3298 44.3137C84.3494 32.5502 73.8027 36.4546 67.3125 47.28Z" stroke="black"/>
</svg>
