<svg width="1888" height="588" viewBox="0 0 1888 588" fill="none" xmlns="http://www.w3.org/2000/svg">
  <path d="M84.174 259.159C82.1301 258.308 79.1044 258.916 78.8933 259.421C78.8976 258.722 78.7798 254.693 75.5208 254.272C71.9505 253.811 71.2201 256.044 70.7851 257.43C67.7995 256.044 61.4522 254.997 59.9471 261.895L57.3667 262.958C56.6581 261.237 54.6822 257.906 52.4478 258.343C50.2134 258.781 48.7643 259.659 48.3191 260.044C46.74 257.676 42.5134 253.863 38.2392 257.556C35.0881 260.278 34.4384 262.276 34.5944 263.425C33.7085 261.95 31.569 260.507 27.6137 262.536C22.8293 264.989 22.2812 268.153 22.6052 269.428C21.421 268.507 18.312 267.212 15.3491 269.399C12.3863 271.585 11.9495 274.823 12.1015 276.169C9.39935 275.471 3.67956 275.654 2.41737 281.969C1.15519 288.284 4.44258 290.794 6.24405 291.259C3.89902 291.891 -0.444779 294.581 0.940355 300.289C2.32548 305.996 6.1719 308.105 7.92196 308.445C8.09832 310.7 9.91677 312.672 12.4977 312.226C15.2026 311.759 22.5703 308.347 25.9161 306.699C25.272 305.624 24.5 303.261 26.5644 302.411C28.6288 301.561 29.9141 302.238 30.2987 302.684C30.5554 301.841 31.5341 300.407 33.3953 301.408C35.2565 302.41 34.8794 303.546 34.4582 303.989L38.8184 301.384L74.9177 286.515C75.4724 285.878 76.4858 283.669 76.1416 281.386L92.4117 274.684C94.5772 273.591 98.3374 270.312 96.0538 265.94C93.7702 261.568 88.2738 263.173 85.811 264.521C87.1951 262.02 85.2964 259.904 84.174 259.159Z" fill="#718843"/>
  <path d="M59.9471 261.895C61.4522 254.997 67.7995 256.044 70.7851 257.43C71.2201 256.044 71.9505 253.811 75.5208 254.272C79.0912 254.733 78.8914 259.524 78.8914 259.524C78.6788 259.008 81.988 258.249 84.174 259.159C85.2964 259.904 87.1951 262.02 85.811 264.521C88.2738 263.173 93.7702 261.568 96.0538 265.94C98.3374 270.312 94.5772 273.591 92.4117 274.684L76.1416 281.386M59.9471 261.895C62.0521 261.631 66.4138 261.766 67.0213 264.414C68.8936 265.051 72.0675 267.285 69.7849 271.123C67.5023 274.961 65.9601 275.515 65.4743 275.313C67.4781 275.293 72.0929 275.847 74.522 278.226C75.5033 279.188 75.9773 280.295 76.1416 281.386M59.9471 261.895L57.3667 262.958C56.6581 261.237 54.6822 257.906 52.4478 258.343C50.2134 258.781 48.7643 259.659 48.3191 260.044C46.74 257.676 42.5134 253.863 38.2392 257.556C33.9649 261.248 34.2931 263.608 34.9914 264.326C34.5257 262.707 32.3981 260.082 27.6137 262.536C22.8293 264.989 22.2812 268.153 22.6052 269.428C21.421 268.507 18.312 267.212 15.3491 269.399C12.3863 271.585 11.9495 274.823 12.1015 276.169C9.39935 275.471 3.67956 275.654 2.41737 281.969C1.15518 288.284 4.44258 290.794 6.24405 291.259C3.89902 291.891 -0.444777 294.581 0.940351 300.289C2.32548 305.996 6.17189 308.105 7.92196 308.445M38.8184 301.384L74.9177 286.515C75.4724 285.878 76.4858 283.669 76.1416 281.386M38.8184 301.384C38.875 299.079 37.4302 294.79 31.1974 296.072C29.5652 294.064 25.6552 291.117 23.0721 295.398C21.2833 293.986 17.1494 292.157 14.9244 296.135C12.6995 300.113 14.6533 303.293 15.9083 304.386C13.7628 304.062 9.22908 303.998 8.25786 306.33C7.97049 307.02 7.86727 307.746 7.92196 308.445M38.8184 301.384L34.4582 303.989C34.8794 303.546 35.2565 302.41 33.3953 301.408C31.5341 300.407 30.5554 301.841 30.2987 302.684C29.9141 302.238 28.6288 301.561 26.5644 302.411C24.5 303.261 25.272 305.624 25.9161 306.699C22.5703 308.347 15.2026 311.759 12.4977 312.226C9.91677 312.672 8.09832 310.7 7.92196 308.445" stroke="#516D12" stroke-linecap="round" stroke-linejoin="round"/>
  <path d="M472.064 128.193C473.314 126.113 476.379 124.683 476.894 124.991C476.435 124.377 473.92 120.745 476.522 118.255C479.373 115.527 481.469 117.022 482.754 117.963C484.488 114.799 489.408 109.748 495.221 114.856L498.189 114.116C497.695 112.138 497.273 107.913 499.529 106.847C501.785 105.78 503.635 105.613 504.278 105.663C504.132 102.547 505.383 96.4347 511.555 96.9141C516.106 97.2675 517.978 98.608 518.588 99.724C518.41 97.8459 519.36 95.1821 524.169 94.4006C529.986 93.4553 532.527 95.8905 533.07 97.2263C533.516 95.644 535.418 92.4799 539.454 92.4829C543.49 92.4859 545.98 95.0596 546.721 96.3461C548.652 93.9734 553.818 90.4162 559.038 95.1681C564.257 99.92 562.988 104.272 561.701 105.854C564.181 104.887 569.763 104.437 572.251 110.374C574.74 116.311 572.716 120.672 571.393 122.11C572.704 124.214 572.381 127.137 569.814 128.421C567.123 129.767 558.403 131.546 554.38 132.268C554.249 130.9 553.394 128.314 551.02 128.905C548.645 129.497 547.952 130.931 547.902 131.574C547.128 130.997 545.331 130.368 544.34 132.462C543.349 134.555 544.42 135.313 545.08 135.43L539.539 135.966L498.017 146.314C497.113 146.113 494.783 144.823 493.602 142.584L474.888 147.248C472.266 147.692 466.816 147.242 465.989 141.9C465.162 136.558 471.055 134.4 474.105 133.989C471.257 132.681 471.558 129.58 472.064 128.193Z" fill="#718843"/>
  <path d="M495.221 114.856C489.408 109.748 484.488 114.799 482.754 117.963C481.469 117.022 479.373 115.527 476.522 118.255C473.671 120.983 476.962 125.081 476.962 125.081C476.815 124.487 473.401 125.969 472.064 128.193C471.558 129.58 471.257 132.681 474.105 133.989C471.055 134.4 465.162 136.558 465.989 141.9C466.816 147.242 472.266 147.692 474.888 147.248L493.602 142.584M495.221 114.856C493.192 115.992 489.431 118.947 490.616 121.678C489.378 123.458 488.03 127.493 492.539 129.395C497.048 131.298 498.77 130.785 499.067 130.29C497.286 131.575 493.574 135.064 492.977 138.743C492.736 140.23 493.038 141.515 493.602 142.584M495.221 114.856L498.189 114.116C497.695 112.138 497.273 107.913 499.529 106.847C501.785 105.78 503.635 105.613 504.278 105.663C504.132 102.547 505.383 96.4347 511.555 96.9141C517.727 97.3934 518.972 99.6891 518.823 100.777C518.181 99.0454 518.352 95.346 524.169 94.4006C529.986 93.4553 532.527 95.8905 533.07 97.2263C533.516 95.644 535.418 92.4799 539.454 92.4829C543.49 92.4859 545.98 95.0596 546.721 96.3461C548.652 93.9734 553.818 90.4162 559.038 95.1681C564.257 99.92 562.988 104.272 561.701 105.854C564.181 104.887 569.763 104.437 572.251 110.374C574.74 116.311 572.716 120.672 571.393 122.11M539.539 135.966L498.017 146.314C497.113 146.113 494.783 144.823 493.602 142.584M539.539 135.966C537.99 133.969 536.477 129.245 542.81 126.324C542.945 123.491 544.48 118.349 549.542 120.447C550.203 118.038 552.661 113.736 557.211 115.8C561.76 117.863 562.104 121.94 561.707 123.72C563.39 122.04 567.348 119.035 569.722 120.461C570.424 120.883 570.987 121.457 571.393 122.11M539.539 135.966L545.08 135.43C544.42 135.313 543.349 134.555 544.34 132.462C545.331 130.368 547.128 130.997 547.902 131.574C547.952 130.931 548.645 129.497 551.02 128.905C553.394 128.314 554.249 130.9 554.38 132.268C558.403 131.546 567.123 129.767 569.814 128.421C572.381 127.137 572.704 124.214 571.393 122.11" stroke="#516D12" stroke-linecap="round" stroke-linejoin="round"/>
  <path d="M699.067 102.654C697.881 101.481 695.595 101.05 695.305 101.342C695.506 100.855 696.564 98.0081 694.407 96.7917C692.044 95.4591 690.901 96.8118 690.205 97.657C688.512 95.8439 684.376 93.3156 681.372 97.7074L679.269 97.7194C679.261 96.3173 678.824 93.4314 677.139 93.1044C675.455 92.7775 674.194 92.981 673.774 93.1237C673.342 91.0229 671.469 87.1636 667.439 88.5326C664.467 89.5419 663.448 90.7534 663.231 91.6006C663.03 90.3192 661.944 88.7062 658.608 89.0034C654.572 89.363 653.293 91.4174 653.159 92.3997C652.592 91.4214 650.787 89.637 648.099 90.3253C645.411 91.0137 644.189 93.1519 643.915 94.135C642.225 92.8827 638.178 91.3915 635.509 95.4449C632.84 99.4983 634.426 102.182 635.552 103.017C633.736 102.794 629.94 103.444 629.292 107.822C628.644 112.2 630.734 114.761 631.86 115.495C631.345 117.119 632.057 119.012 633.986 119.431C636.007 119.87 642.119 119.572 644.922 119.368C644.776 118.435 644.906 116.566 646.588 116.557C648.271 116.547 648.977 117.384 649.119 117.804C649.537 117.289 650.627 116.564 651.643 117.79C652.66 119.016 652.075 119.703 651.655 119.893L655.438 119.308L684.859 119.14C685.427 118.852 686.76 117.597 687.166 115.905L700.427 115.829C702.248 115.678 705.803 114.452 705.445 110.753C705.088 107.053 700.795 106.618 698.693 106.863C700.368 105.507 699.64 103.492 699.067 102.654Z" fill="#718843"/>
  <path d="M681.372 97.7074C684.376 93.3156 688.512 95.8439 690.205 97.657C690.901 96.8118 692.044 95.4591 694.407 96.7917C696.77 98.1243 695.274 101.414 695.274 101.414C695.272 100.993 697.798 101.399 699.067 102.654C699.64 103.492 700.368 105.507 698.693 106.863C700.795 106.618 705.088 107.053 705.445 110.753C705.803 114.452 702.248 115.678 700.427 115.829L687.166 115.905M681.372 97.7074C682.917 98.1192 685.925 99.4481 685.6 101.469C686.727 102.444 688.312 104.903 685.631 106.937C682.951 108.972 681.716 108.923 681.434 108.644C682.84 109.197 685.906 110.89 686.929 113.239C687.342 114.189 687.36 115.096 687.166 115.905M681.372 97.7074L679.269 97.7194C679.261 96.3173 678.824 93.4314 677.139 93.1044C675.455 92.7775 674.194 92.981 673.774 93.1237C673.342 91.0229 671.469 87.1636 667.439 88.5326C663.408 89.9017 662.969 91.6427 663.254 92.3421C663.387 91.0794 662.644 88.6439 658.608 89.0034C654.572 89.363 653.293 91.4174 653.159 92.3997C652.592 91.4214 650.787 89.637 648.099 90.3253C645.411 91.0137 644.189 93.1519 643.915 94.135C642.225 92.8827 638.178 91.3915 635.509 95.4449C632.84 99.4983 634.426 102.182 635.552 103.017C633.736 102.794 629.94 103.444 629.292 107.822C628.644 112.2 630.734 114.761 631.86 115.495M655.438 119.308L684.859 119.14C685.427 118.852 686.76 117.597 687.166 115.905M655.438 119.308C656.13 117.714 656.335 114.309 651.618 113.441C651.047 111.576 649.15 108.412 646.134 110.67C645.284 109.178 642.915 106.73 640.235 108.879C637.555 111.027 638.02 113.801 638.587 114.92C637.18 114.087 634.032 112.758 632.693 114.112C632.297 114.513 632.02 114.991 631.86 115.495M655.438 119.308L651.655 119.893C652.075 119.703 652.66 119.016 651.643 117.79C650.627 116.564 649.537 117.289 649.119 117.804C648.977 117.384 648.271 116.547 646.588 116.557C644.906 116.566 644.776 118.435 644.922 119.368C642.119 119.572 636.007 119.87 633.986 119.431C632.057 119.012 631.345 117.119 631.86 115.495" stroke="#516D12" stroke-linecap="round" stroke-linejoin="round"/>
  <path d="M543.993 136.311C531.352 136.65 529.602 130.737 528.777 122.935C527.952 115.132 533.069 113.565 536.888 112.177C536.943 108.704 537.907 102.28 544.946 100.196C549.783 98.7634 554.388 101.423 554.219 102.247L557.834 100.867C555.948 99.7233 554.165 98.4675 557.572 94.7548C559.212 92.9668 562.502 92.1785 562.944 92.5831C562.618 91.8895 560.88 87.8285 563.927 85.909C567.266 83.806 569.021 85.6903 570.092 86.8689C572.423 84.1153 578.254 80.15 582.928 86.3176L585.984 86.1863C585.896 84.1489 586.327 79.9256 588.751 79.3316C591.175 78.7376 593.021 78.9441 593.641 79.1215C594.121 76.0391 596.569 70.3003 602.52 72.0041C606.908 73.2602 608.474 74.9481 608.849 76.1635C609.05 74.2878 610.514 71.8678 615.382 72.0637C621.271 72.3006 623.273 75.1947 623.538 76.6121C624.292 75.151 626.787 72.4311 630.741 73.241C634.695 74.0509 636.621 77.0707 637.09 78.4794C639.456 76.5407 645.229 74.0883 649.393 79.788C653.557 85.4876 651.443 89.4978 649.865 90.7904C652.735 91.0755 661.102 91.2378 664.185 100.233C665.777 104.879 662.319 109.06 662.319 109.06C662.319 109.06 671.964 120.88 659.51 122.353C659.664 125.94 629.304 127.158 625.048 127.536C622.872 129.142 617.851 130.294 607.462 130.785C607.462 130.785 592.225 132.456 580.033 132.98C572.128 133.32 545.86 136.774 543.993 136.311Z" fill="#89AB3D"/>
  <path d="M554.219 102.247C554.388 101.423 549.783 98.7634 544.946 100.196C537.907 102.28 536.943 108.704 536.888 112.177C533.069 113.565 527.952 115.132 528.777 122.935C529.602 130.737 531.352 136.65 543.993 136.311C545.86 136.774 572.128 133.32 580.033 132.98C592.225 132.456 607.462 130.785 607.462 130.785C617.851 130.294 622.872 129.142 625.048 127.536M554.219 102.247C552.243 103.761 548.715 108.117 550.413 113.433M554.219 102.247L557.834 100.867C555.948 99.7233 554.165 98.4675 557.572 94.7548C559.327 92.8424 562.968 92.0737 562.994 92.6849C562.994 92.6849 560.589 88.0119 563.927 85.909C567.266 83.806 569.021 85.6903 570.092 86.8689C572.423 84.1153 578.254 80.15 582.928 86.3176M582.928 86.3176C580.713 87.0251 576.437 89.1682 577.052 92.081C575.483 93.5772 573.355 97.2611 577.393 100.027C581.431 102.793 583.22 102.634 583.61 102.209C581.608 103.112 577.273 105.788 575.953 109.274C574.303 113.631 580.796 115.689 582.045 116.248C581.826 113.128 586.057 107.86 590.011 108.67C593.965 109.48 595.893 113.046 596.363 114.728C597.547 113.791 600.548 112.38 603.077 114.232C605.606 116.083 607.141 118.548 607.592 119.549C607.756 118.114 614.778 115.775 619.983 122.899M582.928 86.3176L585.984 86.1863C585.896 84.1489 586.327 79.9256 588.751 79.3316C591.175 78.7376 593.021 78.9441 593.641 79.1215C594.121 76.0391 596.569 70.3003 602.52 72.0041C608.472 73.708 609.232 76.2062 608.869 77.2423C608.586 75.4174 609.493 71.8268 615.382 72.0637C621.271 72.3006 623.273 75.1947 623.538 76.6121C624.292 75.151 626.787 72.4311 630.741 73.241C634.695 74.0509 636.621 77.0707 637.09 78.4794C639.456 76.5407 645.229 74.0883 649.393 79.788C653.557 85.4876 651.443 89.4978 649.865 90.7904C652.735 91.0755 661.102 91.2378 664.185 100.233C665.777 104.879 662.319 109.06 662.319 109.06C662.319 109.06 671.964 120.88 659.51 122.353M659.51 122.353C659.041 111.441 646.482 116.582 646.743 115.55C647.267 113.487 646.648 110.731 642.736 110.899C641.63 108.906 638.78 107.188 635.952 109.758C633.123 112.329 634.116 114.535 635.001 116.13C632.963 116.218 628.798 117.132 628.435 120.086C625.751 119.386 620.304 118.967 619.983 122.899M659.51 122.353C659.664 125.94 629.304 127.158 625.048 127.536M619.983 122.899C619.662 126.832 622.026 127.71 623.249 127.657C623.773 127.635 624.382 127.595 625.048 127.536" stroke="#516D12" stroke-linecap="round" stroke-linejoin="round"/>
  <path d="M883.308 112.554C882.163 110.846 879.51 109.763 879.087 110.045C879.45 109.506 881.426 106.328 879.12 104.33C876.594 102.14 874.883 103.493 873.834 104.343C872.235 101.738 867.861 97.6688 863.156 102.234L860.613 101.732C860.948 100.037 861.129 96.4451 859.175 95.6366C857.221 94.8282 855.649 94.7643 855.107 94.8334C855.101 92.1904 853.787 87.0702 848.584 87.7335C844.748 88.2225 843.22 89.435 842.75 90.4049C842.822 88.8082 841.907 86.5938 837.805 86.1332C832.843 85.5761 830.795 87.7429 830.391 88.896C829.947 87.5756 828.206 84.9775 824.791 85.1485C821.376 85.3195 819.375 87.6015 818.802 88.721C817.069 86.7939 812.549 83.9993 808.331 88.2384C804.112 92.4775 805.368 96.1071 806.523 97.392C804.384 96.6771 799.642 96.5293 797.784 101.657C795.926 106.785 797.821 110.391 799 111.553C797.979 113.388 798.374 115.848 800.6 116.827C802.933 117.854 810.387 118.996 813.821 119.438C813.875 118.276 814.49 116.051 816.524 116.453C818.558 116.854 819.205 118.039 819.274 118.581C819.905 118.06 821.399 117.453 822.325 119.183C823.252 120.913 822.376 121.599 821.823 121.726L826.534 121.948L862.103 128.972C862.859 128.763 864.777 127.574 865.683 125.631L881.714 128.796C883.951 129.062 888.544 128.454 889.021 123.899C889.498 119.344 884.421 117.764 881.822 117.543C884.178 116.318 883.794 113.706 883.308 112.554Z" fill="#718843"/>
  <path d="M863.156 102.234C867.861 97.6688 872.235 101.738 873.834 104.343C874.883 103.493 876.594 102.14 879.12 104.33C881.647 106.519 879.033 110.124 879.033 110.124C879.133 109.616 882.084 110.727 883.308 112.554C883.794 113.706 884.178 116.318 881.822 117.543C884.421 117.764 889.498 119.344 889.021 123.899C888.544 128.454 883.951 129.062 881.714 128.796L865.683 125.631M863.156 102.234C864.92 103.111 868.226 105.454 867.337 107.815C868.459 109.269 869.768 112.627 866.032 114.426C862.295 116.224 860.817 115.861 860.545 115.456C862.106 116.468 865.393 119.266 866.051 122.354C866.317 123.602 866.115 124.703 865.683 125.631M863.156 102.234L860.613 101.732C860.948 100.037 861.129 96.4451 859.175 95.6366C857.221 94.8282 855.649 94.7643 855.107 94.8334C855.101 92.1904 853.787 87.0702 848.584 87.7335C843.381 88.3968 842.424 90.3914 842.595 91.3058C843.066 89.8137 842.767 86.6903 837.805 86.1332C832.843 85.5761 830.795 87.7429 830.391 88.896C829.947 87.5756 828.206 84.9775 824.791 85.1485C821.376 85.3195 819.375 87.6015 818.802 88.721C817.069 86.7939 812.549 83.9993 808.331 88.2384C804.112 92.4775 805.368 96.1071 806.523 97.392C804.384 96.6771 799.642 96.5293 797.784 101.657C795.926 106.785 797.821 110.391 799 111.553M826.534 121.948L862.103 128.972C862.859 128.763 864.777 127.574 865.683 125.631M826.534 121.948C827.761 120.194 828.845 116.133 823.363 113.925C823.131 111.534 821.618 107.246 817.421 109.233C816.762 107.222 814.502 103.685 810.738 105.621C806.974 107.557 806.854 111.021 807.264 112.511C805.77 111.159 802.294 108.782 800.346 110.088C799.769 110.474 799.317 110.984 799 111.553M826.534 121.948L821.823 121.726C822.376 121.599 823.252 120.913 822.325 119.183C821.399 117.453 819.905 118.06 819.274 118.581C819.205 118.039 818.558 116.854 816.524 116.453C814.49 116.051 813.875 118.276 813.821 119.438C810.387 118.996 802.933 117.854 800.6 116.827C798.374 115.848 797.979 113.388 799 111.553" stroke="#516D12" stroke-linecap="round" stroke-linejoin="round"/>
  <path d="M822.837 101.478C821.506 99.9359 818.767 99.1908 818.385 99.519C818.677 98.9454 820.238 95.5826 817.73 93.8945C814.983 92.0452 813.463 93.5813 812.534 94.5429C810.648 92.1733 805.858 88.698 801.779 93.7534L799.219 93.5654C799.344 91.8583 799.09 88.304 797.072 87.744C795.053 87.1839 793.499 87.3101 792.975 87.4432C792.65 84.8449 790.743 79.9678 785.706 81.2457C780.669 82.5236 780.685 80.0193 780.964 80.8978C781.247 79.374 780.578 76.3384 775.631 76.3872C770.685 76.436 768.931 78.8131 768.673 79.9955C768.078 78.7504 766.053 76.4049 762.715 76.9837C759.378 77.5625 757.685 80.047 757.256 81.2169C755.32 79.5302 748.764 80.4592 745.126 85.1351C741.487 89.8109 744.216 94.6763 745.506 95.801C743.301 94.8392 738.296 94.0046 735.917 98.361C733.537 102.717 738.988 105.623 742.01 106.532C738.08 106.298 730.499 107.638 731.616 114.862C732.733 122.086 746.604 121.114 753.399 119.725L787.712 122.244C787.988 120.205 789.183 116.173 791.748 116.362C794.312 116.55 795.747 118.598 796.144 119.599C797.96 117.614 802.065 114.951 803.959 120.173C804.678 119.877 806.421 118.477 807.078 116.457L823.223 117.642C825.454 117.634 829.898 116.485 829.819 111.948C829.74 107.411 824.558 106.468 821.976 106.564C824.145 105.075 823.454 102.553 822.837 101.478Z" fill="#718843"/>
  <path d="M801.779 93.7534C805.858 88.698 810.648 92.1733 812.534 94.5429C813.463 93.5813 814.983 92.0452 817.73 93.8945C820.478 95.7439 818.341 99.6031 818.341 99.6031C818.379 99.091 821.414 99.8287 822.837 101.478C823.454 102.553 824.145 105.075 821.976 106.564C824.558 106.468 829.74 107.411 829.819 111.948C829.898 116.485 825.454 117.634 823.223 117.642L807.078 116.457M801.779 93.7534C803.619 94.4034 807.152 96.3103 806.562 98.7384C807.84 100.034 809.531 103.179 806.073 105.396C802.615 107.614 801.118 107.435 800.802 107.069C802.459 107.877 806.027 110.233 807.046 113.191C807.457 114.386 807.391 115.492 807.078 116.457M801.779 93.7534L799.219 93.5654C799.344 91.8583 799.09 88.304 797.072 87.744C795.053 87.1839 793.499 87.3101 792.975 87.4432C792.65 84.8449 790.743 79.9678 785.706 81.2457C780.669 82.5236 780.685 80.0193 780.964 80.8978C781.247 79.374 780.578 76.3384 775.631 76.3872C770.685 76.436 768.931 78.8131 768.673 79.9955C768.078 78.7504 766.053 76.4049 762.715 76.9837C759.378 77.5625 757.685 80.047 757.256 81.2169C755.32 79.5302 748.764 80.4592 745.126 85.1351C741.487 89.8109 744.216 94.6763 745.506 95.801C743.301 94.8392 738.296 94.0046 735.917 98.361C733.537 102.717 738.988 105.623 742.01 106.532C738.08 106.298 730.499 107.638 731.616 114.862C732.733 122.086 746.604 121.114 753.399 119.725L787.712 122.244C787.988 120.205 789.183 116.173 791.748 116.362C794.312 116.55 795.747 118.598 796.144 119.599C797.96 117.614 802.065 114.951 803.959 120.173C804.678 119.877 806.421 118.477 807.078 116.457" stroke="#516D12" stroke-linecap="round" stroke-linejoin="round"/>
  <path d="M450.065 126.297C447.769 125.01 444.095 125.302 443.77 125.865C443.878 125.044 444.333 120.295 440.534 119.344C436.373 118.303 435.178 120.824 434.458 122.392C431.125 120.346 423.76 118.227 420.959 126.12L417.745 127.008C417.159 124.888 415.31 120.697 412.599 120.899C409.887 121.1 408.04 121.93 407.456 122.319C405.935 119.316 401.49 114.245 395.882 117.985C390.273 121.725 389.208 118.688 389.93 119.629C389.617 117.662 387.484 114.28 381.453 116.494C375.423 118.707 374.307 122.347 374.502 123.89C373.235 122.643 369.743 120.686 365.91 122.84C362.077 124.994 361.082 128.738 361.063 130.34C357.965 129.142 350.347 133.122 347.92 140.364C345.492 147.607 350.937 152.306 353.002 153.105C349.888 152.901 343.404 154.071 342.378 160.379C341.353 166.687 349.279 167.829 353.37 167.612C348.461 169.041 339.766 173.964 344.26 182.219C348.754 190.474 365.301 183.257 373.014 178.617L416.081 166.722C415.537 164.134 415.254 158.735 418.473 157.846C421.692 156.957 424.334 158.811 425.252 159.849C426.615 156.657 430.485 151.646 435.061 157.14C435.812 156.469 437.339 154.016 437.268 151.286L457.533 145.689C460.26 144.707 465.198 141.381 463.138 135.925C461.078 130.47 454.329 131.586 451.213 132.826C453.222 130.08 451.284 127.329 450.065 126.297Z" fill="#718843"/>
  <path d="M420.959 126.12C423.76 118.227 431.125 120.346 434.458 122.392C435.178 120.824 436.373 118.303 440.534 119.344C444.696 120.386 443.752 125.986 443.752 125.986C443.577 125.35 447.609 124.921 450.065 126.297C451.284 127.329 453.222 130.08 451.213 132.826C454.329 131.586 461.078 130.47 463.138 135.925C465.198 141.381 460.26 144.707 457.533 145.689L437.268 151.286M420.959 126.12C423.492 126.105 428.639 126.874 428.968 130.07C431.092 131.08 434.523 134.149 431.252 138.339C427.981 142.528 426.072 142.964 425.527 142.658C427.904 142.915 433.289 144.211 435.816 147.347C436.836 148.614 437.234 149.982 437.268 151.286M420.959 126.12L417.745 127.008C417.159 124.888 415.31 120.697 412.599 120.899C409.887 121.1 408.04 121.93 407.456 122.319C405.935 119.316 401.49 114.245 395.882 117.985C390.273 121.725 389.208 118.688 389.93 119.629C389.617 117.662 387.484 114.28 381.453 116.494C375.423 118.707 374.307 122.347 374.502 123.89C373.235 122.643 369.743 120.686 365.91 122.84C362.077 124.994 361.082 128.738 361.063 130.34C357.965 129.142 350.347 133.122 347.92 140.364C345.492 147.607 350.937 152.306 353.002 153.105C349.888 152.901 343.404 154.071 342.378 160.379C341.353 166.687 349.279 167.829 353.37 167.612C348.461 169.041 339.766 173.964 344.26 182.219C348.754 190.474 365.301 183.257 373.014 178.617L416.081 166.722C415.537 164.134 415.254 158.735 418.473 157.846C421.692 156.957 424.334 158.811 425.252 159.849C426.615 156.657 430.485 151.646 435.061 157.14C435.812 156.469 437.339 154.016 437.268 151.286" stroke="#516D12" stroke-linecap="round" stroke-linejoin="round"/>
  <path d="M444.57 140.281C443.868 137.638 439.461 137.662 437.346 138.004L434.778 139.168C434.004 137.462 431.898 134.181 429.657 134.703C427.417 135.225 425.984 136.162 425.548 136.566C423.874 134.24 419.48 130.556 415.291 134.429C411.102 138.302 409.805 135.887 410.534 136.585C410.534 136.585 407.774 132.408 403.028 135.052C398.282 137.697 397.836 140.902 398.206 142.173C396.98 141.29 393.798 140.1 390.882 142.409C387.965 144.718 387.634 147.994 387.833 149.343C385.082 148.739 379.245 153.075 378.184 159.478C377.124 165.881 382.304 169.122 384.138 169.525C381.507 169.759 376.242 171.586 376.228 177.021C376.215 182.455 382.994 182.385 386.386 181.67C382.472 183.51 375.861 188.778 380.723 195.132C385.584 201.486 442.133 173.155 447.96 168.251L453.286 162.241C453.824 161.579 454.772 159.319 454.348 157.033C454.145 155.941 453.63 154.844 452.607 153.912C450.246 151.761 446.023 151.277 443.823 151.297C444.547 151.091 445.868 150.053 447.586 146.934C449.76 142.987 446.482 140.854 444.57 140.281Z" fill="#89AB3D"/>
  <path d="M437.346 138.004C439.461 137.662 443.868 137.638 444.57 140.281C446.482 140.854 449.76 142.987 447.586 146.934C445.412 150.881 443.874 151.495 443.377 151.309C445.399 151.216 450.075 151.605 452.607 153.912C453.63 154.844 454.145 155.941 454.348 157.033C454.772 159.319 453.824 161.579 453.286 162.241L447.96 168.251C442.133 173.155 385.584 201.486 380.723 195.132C375.861 188.778 382.472 183.51 386.386 181.67C382.994 182.385 376.215 182.455 376.228 177.021C376.242 171.586 381.507 169.759 384.138 169.525C382.304 169.122 377.124 165.881 378.184 159.478C379.245 153.075 385.082 148.739 387.833 149.343C387.634 147.994 387.965 144.718 390.882 142.409C393.798 140.1 396.98 141.29 398.206 142.173C397.836 140.902 398.282 137.697 403.028 135.052C407.774 132.408 410.534 136.585 410.534 136.585C409.805 135.887 411.102 138.302 415.291 134.429C419.48 130.556 423.874 134.24 425.548 136.566C425.984 136.162 427.417 135.225 429.657 134.703C431.898 134.181 434.004 137.462 434.778 139.168L437.346 138.004Z" stroke="#516D12" stroke-linecap="round" stroke-linejoin="round"/>
  <path d="M806.864 113.437C806.491 118.528 802.286 119.279 797.195 118.906C792.104 118.532 788.054 117.174 788.428 112.083C788.802 106.992 793.232 103.168 798.323 103.542C803.414 103.915 807.238 108.346 806.864 113.437Z" fill="#89AB3D" stroke="#516D12" stroke-linecap="round" stroke-linejoin="round"/>
  <path d="M801.017 124.079C800.72 128.123 797.47 127.499 793.427 127.203C789.383 126.906 786.077 127.048 786.374 123.004C786.67 118.961 790.189 115.923 794.233 116.22C798.276 116.517 801.314 120.036 801.017 124.079Z" fill="#718843" stroke="#516D12" stroke-linecap="round" stroke-linejoin="round"/>
  <path d="M828.745 123.236C828.177 127.251 824.977 126.411 820.962 125.843C816.948 125.276 813.639 125.196 814.207 121.181C814.774 117.167 818.489 114.372 822.503 114.94C826.518 115.507 829.313 119.222 828.745 123.236Z" fill="#718843" stroke="#516D12" stroke-linecap="round" stroke-linejoin="round"/>
  <path d="M470.199 139.611C471.545 145.125 467.301 147.372 461.721 148.734C456.14 150.096 451.338 150.058 449.992 144.544C448.646 139.029 452.078 133.455 457.658 132.092C463.238 130.73 468.853 134.096 470.199 139.611Z" fill="#718843" stroke="#516D12" stroke-linecap="round" stroke-linejoin="round"/>
  <path d="M911.145 128.558C910.534 132.886 906.857 133.282 902.477 132.664C898.097 132.046 894.672 130.649 895.283 126.32C895.894 121.992 899.939 118.984 904.319 119.602C908.699 120.219 911.755 124.229 911.145 128.558Z" fill="#718843" stroke="#516D12" stroke-linecap="round" stroke-linejoin="round"/>
  <path d="M904.99 123.281C904.38 127.61 900.703 128.006 896.322 127.388C891.942 126.77 888.518 125.372 889.129 121.044C889.739 116.715 893.785 113.707 898.165 114.325C902.545 114.943 905.601 118.953 904.99 123.281Z" fill="#718843" stroke="#516D12" stroke-linecap="round" stroke-linejoin="round"/>
  <path d="M1504.47 303.834C1506.7 303.095 1509.86 303.984 1510.05 304.536C1510.1 303.794 1510.55 299.53 1514.04 299.346C1517.86 299.144 1518.46 301.571 1518.81 303.077C1522.09 301.846 1528.9 301.246 1529.95 308.684L1532.6 310.019C1533.49 308.251 1535.85 304.876 1538.19 305.52C1540.52 306.164 1541.99 307.212 1542.43 307.656C1544.3 305.271 1549.09 301.566 1553.32 305.827C1556.45 308.968 1556.98 311.139 1556.72 312.347C1557.78 310.852 1560.16 309.494 1564.19 311.964C1569.07 314.952 1569.4 318.352 1568.95 319.678C1570.28 318.797 1573.69 317.673 1576.65 320.231C1579.62 322.788 1579.82 326.259 1579.55 327.674C1582.48 327.151 1588.53 327.805 1589.36 334.605C1590.19 341.406 1586.5 343.804 1584.55 344.153C1586.99 345.011 1591.38 348.215 1589.45 354.158C1587.52 360.101 1583.27 362.028 1581.39 362.248C1581.02 364.626 1578.94 366.572 1576.23 365.891C1573.4 365.178 1565.86 360.966 1562.44 358.949C1563.21 357.86 1564.22 355.416 1562.1 354.348C1559.98 353.28 1558.56 353.896 1558.12 354.337C1557.91 353.423 1556.99 351.822 1554.93 352.735C1552.88 353.648 1553.19 354.883 1553.6 355.387L1549.18 352.274L1512.09 333.597C1511.55 332.876 1510.65 330.452 1511.2 328.058L1494.48 319.64C1492.27 318.306 1488.55 314.525 1491.32 310.072C1494.09 305.618 1499.79 307.762 1502.3 309.391C1501.03 306.625 1503.22 304.534 1504.47 303.834Z" fill="#718843"/>
  <path d="M1529.95 308.684C1528.9 301.246 1522.09 301.846 1518.81 303.077C1518.46 301.571 1517.86 299.144 1514.04 299.346C1510.21 299.548 1510.04 304.646 1510.04 304.646C1510.31 304.116 1506.86 303.044 1504.47 303.834C1503.22 304.534 1501.03 306.625 1502.3 309.391C1499.79 307.762 1494.09 305.618 1491.32 310.072C1488.55 314.525 1492.27 318.306 1494.48 319.64L1511.2 328.058M1529.95 308.684C1527.73 308.235 1523.1 308.028 1522.24 310.787C1520.2 311.313 1516.66 313.427 1518.77 317.682C1520.88 321.937 1522.47 322.649 1523 322.474C1520.88 322.291 1515.94 322.507 1513.17 324.837C1512.05 325.778 1511.46 326.914 1511.2 328.058M1529.95 308.684L1532.6 310.019C1533.49 308.251 1535.85 304.876 1538.19 305.52C1540.52 306.164 1541.99 307.212 1542.43 307.656C1544.3 305.271 1549.09 301.566 1553.32 305.827C1557.56 310.087 1557.02 312.564 1556.22 313.27C1556.85 311.59 1559.32 308.977 1564.19 311.964C1569.07 314.952 1569.4 318.352 1568.95 319.678C1570.28 318.797 1573.69 317.673 1576.65 320.231C1579.62 322.788 1579.82 326.259 1579.55 327.674C1582.48 327.151 1588.53 327.805 1589.36 334.605C1590.19 341.406 1586.5 343.804 1584.55 344.153C1586.99 345.011 1591.38 348.215 1589.45 354.158C1587.52 360.101 1583.27 362.028 1581.39 362.248M1549.18 352.274L1512.09 333.597C1511.55 332.876 1510.65 330.452 1511.2 328.058M1549.18 352.274C1549.31 349.824 1551.19 345.39 1557.7 347.251C1559.59 345.252 1563.97 342.441 1566.37 347.19C1568.38 345.836 1572.91 344.228 1574.95 348.627C1576.99 353.025 1574.66 356.241 1573.25 357.3C1575.55 357.129 1580.36 357.426 1581.2 359.977C1581.45 360.732 1581.51 361.511 1581.39 362.248M1549.18 352.274L1553.6 355.387C1553.19 354.883 1552.88 353.648 1554.93 352.735C1556.99 351.822 1557.91 353.423 1558.12 354.337C1558.56 353.896 1559.98 353.28 1562.1 354.348C1564.22 355.416 1563.21 357.86 1562.44 358.949C1565.86 360.966 1573.4 365.178 1576.23 365.891C1578.94 366.572 1581.02 364.626 1581.39 362.248" stroke="#516D12" stroke-linecap="round" stroke-linejoin="round"/>
  <path d="M1687.63 428.771C1687.5 427.157 1686.09 425.393 1685.7 425.424C1686.15 425.193 1688.73 423.768 1687.92 421.508C1687.02 419.031 1685.32 419.303 1684.28 419.484C1684.18 417.079 1682.74 412.599 1677.75 413.929L1676.19 412.606C1677.07 411.569 1678.58 409.17 1677.55 407.863C1676.52 406.556 1675.46 405.907 1675.06 405.746C1676.07 403.927 1677.14 399.902 1673.31 398.357C1670.48 397.219 1668.96 397.464 1668.27 397.951C1668.93 396.881 1669.15 395.006 1666.51 393.112C1663.31 390.822 1661.07 391.524 1660.35 392.161C1660.56 391.083 1660.36 388.627 1657.94 387.432C1655.53 386.236 1653.28 387.035 1652.45 387.585C1652 385.594 1649.97 381.934 1645.44 383.227C1640.91 384.519 1640.38 387.497 1640.68 388.824C1639.48 387.51 1636.28 385.585 1633.03 388.396C1629.78 391.206 1629.7 394.414 1630.06 395.666C1628.65 396.535 1627.98 398.378 1629.13 399.907C1630.34 401.51 1635.03 405.161 1637.22 406.786C1637.7 406.007 1638.98 404.714 1640.22 405.772C1641.47 406.831 1641.46 407.893 1641.3 408.293C1641.93 408.178 1643.19 408.334 1643.16 409.88C1643.13 411.426 1642.27 411.56 1641.84 411.435L1644.99 413.399L1666.74 431.904C1667.34 432.052 1669.12 431.972 1670.49 430.984L1680.29 439.324C1681.73 440.367 1685.12 441.715 1687.2 438.767C1689.28 435.819 1686.39 432.781 1684.69 431.63C1686.78 431.693 1687.52 429.751 1687.63 428.771Z" fill="#718843"/>
  <path d="M1677.75 413.929C1682.74 412.599 1684.18 417.079 1684.28 419.484C1685.32 419.303 1687.02 419.031 1687.92 421.508C1688.81 423.984 1685.63 425.457 1685.63 425.457C1685.89 425.146 1687.49 427.045 1687.63 428.771C1687.52 429.751 1686.78 431.693 1684.69 431.63C1686.39 432.781 1689.28 435.819 1687.2 438.767C1685.12 441.715 1681.73 440.367 1680.29 439.324L1670.49 430.984M1677.75 413.929C1678.62 415.21 1679.99 418.092 1678.48 419.373C1678.69 420.804 1678.3 423.616 1675.04 423.415C1671.78 423.215 1670.9 422.397 1670.87 422.014C1671.55 423.31 1672.74 426.497 1672 428.873C1671.7 429.833 1671.14 430.512 1670.49 430.984M1677.75 413.929L1676.19 412.606C1677.07 411.569 1678.58 409.17 1677.55 407.863C1676.52 406.556 1675.46 405.907 1675.06 405.746C1676.07 403.927 1677.14 399.902 1673.31 398.357C1669.47 396.813 1668.05 397.816 1667.82 398.51C1668.71 397.666 1669.71 395.403 1666.51 393.112C1663.31 390.822 1661.07 391.524 1660.35 392.161C1660.56 391.083 1660.36 388.627 1657.94 387.432C1655.53 386.236 1653.28 387.035 1652.45 387.585C1652 385.594 1649.97 381.934 1645.44 383.227C1640.91 384.519 1640.38 387.497 1640.68 388.824C1639.48 387.51 1636.28 385.585 1633.03 388.396C1629.78 391.206 1629.7 394.414 1630.06 395.666M1644.99 413.399L1666.74 431.904C1667.34 432.052 1669.12 431.972 1670.49 430.984M1644.99 413.399C1646.51 412.665 1648.82 410.29 1645.9 406.665C1646.66 404.931 1647.27 401.402 1643.62 401.154C1643.94 399.519 1643.74 396.218 1640.41 396.101C1637.08 395.985 1635.67 398.32 1635.37 399.502C1634.87 397.998 1633.39 395.028 1631.55 395.176C1631.01 395.22 1630.5 395.396 1630.06 395.666M1644.99 413.399L1641.84 411.435C1642.27 411.56 1643.13 411.426 1643.16 409.88C1643.19 408.334 1641.93 408.178 1641.3 408.293C1641.46 407.893 1641.47 406.831 1640.22 405.772C1638.98 404.714 1637.7 406.007 1637.22 406.786C1635.03 405.161 1630.34 401.51 1629.13 399.907C1627.98 398.378 1628.65 396.535 1630.06 395.666" stroke="#516D12" stroke-linecap="round" stroke-linejoin="round"/>
  <path d="M1554.72 350.502C1545.21 342.748 1547.66 337.291 1552 331.028C1556.33 324.766 1561.09 326.853 1564.77 328.249C1567.01 325.729 1571.79 321.614 1578.29 324.537C1582.75 326.546 1584.46 331.419 1583.81 331.918L1587.34 333.191C1586.68 331.156 1586.16 329.103 1591.02 328.528C1593.36 328.252 1596.28 329.755 1596.35 330.333C1596.55 329.616 1597.84 325.528 1601.3 326.045C1605.08 326.612 1605.18 329.109 1605.22 330.654C1608.68 330.105 1615.48 330.879 1615.02 338.375L1617.35 340.214C1618.57 338.66 1621.56 335.825 1623.72 336.923C1625.88 338.021 1627.11 339.341 1627.45 339.865C1629.76 337.901 1635.19 335.229 1638.49 340.25C1640.92 343.953 1641.01 346.186 1640.51 347.317C1641.85 346.065 1644.46 345.211 1647.92 348.438C1652.1 352.34 1651.74 355.737 1651.04 356.948C1652.52 356.35 1656.07 355.929 1658.47 359.028C1660.87 362.127 1660.37 365.568 1659.82 366.901C1662.79 366.973 1668.59 368.824 1668.05 375.654C1667.5 382.483 1663.41 384.095 1661.43 384.047C1663.36 386.074 1669.41 391.491 1665.98 400.059C1664.21 404.486 1659.02 405.372 1659.02 405.372C1659.02 405.372 1658.63 420.174 1648.54 413.373C1646.38 416.109 1623.28 397.783 1619.91 395.366C1617.29 395.17 1612.86 392.839 1604.91 386.622C1604.91 386.622 1592.64 378.205 1583.34 370.871C1577.31 366.115 1555.8 352.025 1554.72 350.502Z" fill="#89AB3D"/>
  <path d="M1583.81 331.918C1584.46 331.419 1582.75 326.546 1578.29 324.537C1571.79 321.614 1567.01 325.729 1564.77 328.249C1561.09 326.853 1556.33 324.766 1552 331.028C1547.66 337.291 1545.21 342.748 1554.72 350.502C1555.8 352.025 1577.31 366.115 1583.34 370.871C1592.64 378.205 1604.91 386.622 1604.91 386.622C1612.86 392.839 1617.29 395.17 1619.91 395.366M1583.81 331.918C1581.4 331.78 1576.05 332.751 1573.93 337.737M1583.81 331.918L1587.34 333.191C1586.68 331.156 1586.16 329.103 1591.02 328.528C1593.52 328.233 1596.69 329.972 1596.32 330.439C1596.32 330.439 1597.51 325.478 1601.3 326.045C1605.08 326.612 1605.18 329.109 1605.22 330.654C1608.68 330.105 1615.48 330.879 1615.02 338.375M1615.02 338.375C1612.94 337.494 1608.44 336.363 1607.04 338.895C1604.94 339.003 1601.05 340.365 1602.26 344.957C1603.48 349.548 1604.9 350.564 1605.46 350.498C1603.41 349.895 1598.53 349.119 1595.35 350.848C1591.38 353.009 1594.85 358.633 1595.42 359.835C1597.23 357.401 1603.68 356.205 1606.07 359.304C1608.47 362.403 1607.63 366.248 1606.91 367.782C1608.38 367.843 1611.48 368.705 1612.17 371.668C1612.85 374.631 1612.42 377.416 1612.12 378.439C1613.15 377.486 1619.8 380.212 1619.11 388.748M1615.02 338.375L1617.35 340.214C1618.57 338.66 1621.56 335.825 1623.72 336.923C1625.88 338.021 1627.11 339.341 1627.45 339.865C1629.76 337.901 1635.19 335.229 1638.49 340.25C1641.79 345.272 1640.77 347.592 1639.85 348.123C1640.79 346.602 1643.73 344.535 1647.92 348.438C1652.1 352.34 1651.74 355.737 1651.04 356.948C1652.52 356.35 1656.07 355.929 1658.47 359.028C1660.87 362.127 1660.37 365.568 1659.82 366.901C1662.79 366.973 1668.59 368.824 1668.05 375.654C1667.5 382.483 1663.41 384.095 1661.43 384.047C1663.36 386.074 1669.41 391.491 1665.98 400.059C1664.21 404.486 1659.02 405.372 1659.02 405.372C1659.02 405.372 1658.63 420.174 1648.54 413.373M1648.54 413.373C1655.1 405.049 1642.61 400.879 1643.45 400.285C1645.15 399.098 1646.44 396.68 1643.45 394.327C1643.9 392.16 1642.89 389.091 1639.18 389.192C1635.47 389.292 1634.81 391.543 1634.45 393.277C1632.89 392.051 1629.25 390.086 1627.11 392.03C1625.58 389.816 1621.84 386.059 1619.11 388.748M1648.54 413.373C1646.38 416.109 1623.28 397.783 1619.91 395.366M1619.11 388.748C1616.39 391.438 1617.57 393.581 1618.5 394.316C1618.9 394.632 1619.38 394.988 1619.91 395.366" stroke="#516D12" stroke-linecap="round" stroke-linejoin="round"/>
  <path d="M1816.9 552.704C1817.14 550.722 1815.88 548.246 1815.39 548.186C1815.99 548.019 1819.46 546.933 1819.03 544.002C1818.56 540.792 1816.44 540.704 1815.13 540.665C1815.61 537.736 1814.96 531.974 1808.61 532.353L1807.06 530.374C1808.38 529.339 1810.79 526.811 1809.86 524.979C1808.93 523.147 1807.82 522.105 1807.38 521.812C1809.04 519.864 1811.32 515.266 1807.07 512.459C1803.94 510.39 1802.05 510.315 1801.09 510.731C1802.15 509.602 1802.88 507.393 1800.16 504.457C1796.86 500.906 1793.98 501.203 1792.95 501.796C1793.46 500.543 1793.83 497.53 1791.21 495.493C1788.59 493.457 1785.67 493.869 1784.54 494.33C1784.48 491.815 1782.93 486.897 1777.14 487.345C1771.35 487.792 1769.98 491.258 1770.02 492.934C1768.89 491.054 1765.5 487.943 1760.89 490.539C1756.27 493.135 1755.38 496.987 1755.51 498.589C1753.6 499.292 1752.33 501.352 1753.35 503.482C1754.42 505.715 1759.18 511.273 1761.43 513.773C1762.2 512.952 1764.06 511.705 1765.3 513.288C1766.55 514.872 1766.27 516.152 1765.98 516.595C1766.77 516.612 1768.26 517.11 1767.84 518.97C1767.43 520.829 1766.35 520.78 1765.86 520.522L1769.19 523.669L1790.91 551.356C1791.6 551.681 1793.76 552.021 1795.66 551.165L1805.45 563.643C1806.92 565.255 1810.69 567.716 1813.92 564.667C1817.16 561.618 1814.42 557.241 1812.65 555.434C1815.16 556.024 1816.53 553.859 1816.9 552.704Z" fill="#718843"/>
  <path d="M1808.61 532.353C1814.96 531.974 1815.61 537.736 1815.13 540.665C1816.44 540.704 1818.56 540.792 1819.03 544.002C1819.5 547.213 1815.3 548.21 1815.3 548.21C1815.69 547.899 1817.16 550.585 1816.9 552.704C1816.53 553.859 1815.16 556.024 1812.65 555.434C1814.42 557.241 1817.16 561.618 1813.92 564.667C1810.69 567.716 1806.92 565.255 1805.45 563.643L1795.66 551.165M1808.61 532.353C1809.35 534.115 1810.3 537.932 1808.15 539.106C1808.06 540.886 1806.9 544.185 1803.01 543.143C1799.12 542.1 1798.26 540.897 1798.32 540.426C1798.83 542.16 1799.47 546.299 1798 548.988C1797.41 550.074 1796.56 550.756 1795.66 551.165M1808.61 532.353L1807.06 530.374C1808.38 529.339 1810.79 526.811 1809.86 524.979C1808.93 523.147 1807.82 522.105 1807.38 521.812C1809.04 519.864 1811.32 515.266 1807.07 512.459C1802.83 509.653 1800.86 510.514 1800.41 511.296C1801.7 510.496 1803.45 508.009 1800.16 504.457C1796.86 500.906 1793.98 501.203 1792.95 501.796C1793.46 500.543 1793.83 497.53 1791.21 495.493C1788.59 493.457 1785.67 493.869 1784.54 494.33C1784.48 491.815 1782.93 486.897 1777.14 487.345C1771.35 487.792 1769.98 491.258 1770.02 492.934C1768.89 491.054 1765.5 487.943 1760.89 490.539C1756.27 493.135 1755.38 496.987 1755.51 498.589M1769.19 523.669L1790.91 551.356C1791.6 551.681 1793.76 552.021 1795.66 551.165M1769.19 523.669C1771.2 523.155 1774.57 520.854 1771.94 515.759C1773.28 513.853 1774.88 509.741 1770.54 508.545C1771.32 506.648 1771.9 502.615 1767.91 501.656C1763.91 500.698 1761.63 503.17 1760.99 504.526C1760.74 502.585 1759.69 498.636 1757.43 498.363C1756.76 498.282 1756.11 498.37 1755.51 498.589M1769.19 523.669L1765.86 520.522C1766.35 520.78 1767.43 520.829 1767.84 518.97C1768.26 517.11 1766.77 516.612 1765.98 516.595C1766.27 516.152 1766.55 514.872 1765.3 513.288C1764.06 511.705 1762.2 512.952 1761.43 513.773C1759.18 511.273 1754.42 505.715 1753.35 503.482C1752.33 501.352 1753.6 499.292 1755.51 498.589" stroke="#516D12" stroke-linecap="round" stroke-linejoin="round"/>
  <path d="M1779.43 506.269C1779.43 504.292 1777.88 502.009 1777.4 502.009C1777.97 501.771 1781.25 500.286 1780.47 497.457C1779.62 494.357 1777.53 494.524 1776.24 494.643C1776.35 491.706 1775.03 486.117 1768.83 487.253L1767.06 485.494C1768.24 484.317 1770.3 481.542 1769.17 479.852C1768.04 478.162 1766.82 477.271 1766.35 477.037C1767.75 474.92 1769.44 470.124 1764.92 467.876C1760.41 465.627 1762.01 463.794 1761.66 464.617C1762.83 463.676 1764.26 461.019 1760.59 457.923C1756.92 454.827 1754.12 455.465 1753.19 456.171C1753.54 454.879 1753.53 451.871 1750.71 450.184C1747.89 448.496 1745.07 449.252 1744.01 449.841C1743.66 447.375 1738.25 443.907 1732.61 445.044C1726.97 446.18 1725.9 451.487 1726.14 453.131C1725.12 451.027 1721.97 447.244 1717.46 448.943C1712.95 450.641 1715.12 456.23 1716.77 458.812C1714.03 456.152 1707.6 452.337 1703.85 458.359C1700.1 464.381 1710.92 472.448 1716.79 475.728L1740.44 499.306C1741.94 497.981 1745.37 495.772 1747.14 497.534C1748.9 499.296 1748.66 501.712 1748.32 502.699C1750.91 502.389 1755.62 503.029 1753.71 508.069C1754.42 508.306 1756.59 508.38 1758.35 507.31L1769.48 518.404C1771.13 519.811 1775.12 521.779 1777.94 518.392C1780.75 515.004 1777.54 511.029 1775.58 509.465C1778.11 509.743 1779.2 507.45 1779.43 506.269Z" fill="#718843"/>
  <path d="M1768.83 487.253C1775.03 486.117 1776.35 491.706 1776.24 494.643C1777.53 494.524 1779.62 494.357 1780.47 497.457C1781.33 500.557 1777.31 502.043 1777.31 502.043C1777.66 501.69 1779.43 504.154 1779.43 506.269C1779.2 507.45 1778.11 509.743 1775.58 509.465C1777.54 511.029 1780.75 515.004 1777.94 518.392C1775.12 521.779 1771.13 519.811 1769.48 518.404L1758.35 507.31M1768.83 487.253C1769.77 488.897 1771.16 492.536 1769.19 493.949C1769.31 495.711 1768.57 499.095 1764.62 498.537C1760.67 497.979 1759.68 496.9 1759.68 496.43C1760.39 498.074 1761.52 502.066 1760.4 504.887C1759.94 506.027 1759.19 506.799 1758.35 507.31M1768.83 487.253L1767.06 485.494C1768.24 484.317 1770.3 481.542 1769.17 479.852C1768.04 478.162 1766.82 477.271 1766.35 477.037C1767.75 474.92 1769.44 470.124 1764.92 467.876C1760.41 465.627 1762.01 463.794 1761.66 464.617C1762.83 463.676 1764.26 461.019 1760.59 457.923C1756.92 454.827 1754.12 455.465 1753.19 456.171C1753.54 454.879 1753.53 451.871 1750.71 450.184C1747.89 448.496 1745.07 449.252 1744.01 449.841C1743.66 447.375 1738.25 443.907 1732.61 445.044C1726.97 446.18 1725.9 451.487 1726.14 453.131C1725.12 451.027 1721.97 447.244 1717.46 448.943C1712.95 450.641 1715.12 456.23 1716.77 458.812C1714.03 456.152 1707.6 452.337 1703.85 458.359C1700.1 464.381 1710.92 472.448 1716.79 475.728L1740.44 499.306C1741.94 497.981 1745.37 495.772 1747.14 497.534C1748.9 499.296 1748.66 501.712 1748.32 502.699C1750.91 502.389 1755.62 503.029 1753.71 508.069C1754.42 508.306 1756.59 508.38 1758.35 507.31" stroke="#516D12" stroke-linecap="round" stroke-linejoin="round"/>
  <path d="M1489.48 288.511C1488.61 286.112 1485.72 284 1485.13 284.209C1485.73 283.673 1489.07 280.467 1486.87 277.363C1484.47 273.962 1482 275.06 1480.47 275.758C1479.32 272.142 1475.24 265.92 1468.18 269.954L1465.26 268.572C1466.17 266.641 1467.46 262.388 1465.34 260.819C1463.22 259.25 1461.33 258.691 1460.66 258.608C1461.44 255.436 1461.38 248.891 1454.89 248.091C1448.39 247.292 1449.53 244.383 1449.47 245.532C1450.48 243.887 1451.05 240.049 1445.22 237.859C1439.38 235.669 1436.25 237.64 1435.42 238.899C1435.28 237.18 1433.95 233.529 1429.76 232.687C1425.58 231.845 1422.48 233.969 1421.45 235.136C1419.93 232.293 1411.8 230.397 1405.43 234.188C1399.06 237.979 1400.09 244.883 1401.11 246.779C1398.94 244.657 1393.43 241.413 1388.68 245.404C1383.94 249.395 1389.04 255.254 1392.19 257.684C1387.67 255.627 1378.16 253.743 1376.24 262.662C1374.32 271.58 1391.06 276.748 1399.67 278.217L1438.89 296.734C1440.13 294.486 1443.34 290.335 1446.27 291.719C1449.2 293.103 1449.97 296.14 1449.99 297.485C1453.01 295.999 1459.03 294.763 1458.92 301.702C1459.9 301.684 1462.57 300.846 1464.25 298.793L1482.7 307.506C1485.33 308.51 1491.07 309.19 1493.01 303.872C1494.94 298.554 1489.27 295.103 1486.19 294.041C1489.41 293.293 1489.73 290.043 1489.48 288.511Z" fill="#718843"/>
  <path d="M1468.18 269.954C1475.24 265.92 1479.32 272.142 1480.47 275.758C1482 275.06 1484.47 273.962 1486.87 277.363C1489.28 280.764 1485.04 284.286 1485.04 284.286C1485.31 283.707 1488.55 285.945 1489.48 288.511C1489.73 290.043 1489.41 293.293 1486.19 294.041C1489.27 295.103 1494.94 298.554 1493.01 303.872C1491.07 309.19 1485.33 308.51 1482.7 307.506L1464.25 298.793M1468.18 269.954C1470.06 271.546 1473.36 275.371 1471.58 277.93C1472.5 280.018 1473.08 284.448 1468.02 285.459C1462.96 286.47 1461.28 285.582 1461.07 285.012C1462.66 286.706 1465.8 291.069 1465.67 294.976C1465.62 296.554 1465.05 297.812 1464.25 298.793M1468.18 269.954L1465.26 268.572C1466.17 266.641 1467.46 262.388 1465.34 260.819C1463.22 259.25 1461.33 258.691 1460.66 258.608C1461.44 255.436 1461.38 248.891 1454.89 248.091C1448.39 247.292 1449.53 244.383 1449.47 245.532C1450.48 243.887 1451.05 240.049 1445.22 237.859C1439.38 235.669 1436.25 237.64 1435.42 238.899C1435.28 237.18 1433.95 233.529 1429.76 232.687C1425.58 231.845 1422.48 233.969 1421.45 235.136C1419.93 232.293 1411.8 230.397 1405.43 234.188C1399.06 237.979 1400.09 244.883 1401.11 246.779C1398.94 244.657 1393.43 241.413 1388.68 245.404C1383.94 249.395 1389.04 255.254 1392.19 257.684C1387.67 255.627 1378.16 253.743 1376.24 262.662C1374.32 271.58 1391.06 276.748 1399.67 278.217L1438.89 296.734C1440.13 294.486 1443.34 290.335 1446.27 291.719C1449.2 293.103 1449.97 296.14 1449.99 297.485C1453.01 295.999 1459.03 294.763 1458.92 301.702C1459.9 301.684 1462.57 300.846 1464.25 298.793" stroke="#516D12" stroke-linecap="round" stroke-linejoin="round"/>
  <path d="M1476.59 295.32C1477.74 292.931 1474.49 290.158 1472.71 289.071L1470.09 288.301C1470.6 286.556 1471.13 282.809 1469.15 281.774C1467.17 280.74 1465.52 280.522 1464.95 280.543C1465.19 277.772 1464.29 272.28 1458.75 272.477C1453.22 272.674 1453.79 270.077 1453.89 271.051C1453.89 271.051 1454.5 266.23 1449.34 265.171C1444.17 264.112 1441.81 266.187 1441.28 267.357C1440.94 265.93 1439.35 263.041 1435.74 262.893C1432.14 262.745 1429.82 264.945 1429.11 266.063C1427.47 263.878 1420.43 263.371 1415.6 267.41C1410.76 271.449 1412.52 277.114 1413.61 278.571C1411.53 277.077 1406.5 275.088 1403.05 279.078C1399.6 283.067 1404.63 287.308 1407.58 288.929C1403.53 287.805 1395.34 287.495 1394.89 295.247C1394.44 302.999 1453.98 317.961 1461.37 318.043L1469.1 316.993C1469.91 316.847 1472.04 315.785 1473.17 313.834C1473.72 312.903 1474.03 311.769 1473.87 310.436C1473.49 307.359 1470.69 304.329 1469.06 302.951C1469.73 303.258 1471.35 303.33 1474.59 302.124C1478.69 300.597 1477.63 296.952 1476.59 295.32Z" fill="#89AB3D"/>
  <path d="M1472.71 289.071C1474.49 290.158 1477.74 292.931 1476.59 295.32C1477.63 296.952 1478.69 300.597 1474.59 302.124C1470.5 303.65 1468.98 303.129 1468.73 302.678C1470.27 303.889 1473.47 307.135 1473.87 310.436C1474.03 311.769 1473.72 312.903 1473.17 313.834C1472.04 315.785 1469.91 316.847 1469.1 316.993L1461.37 318.043C1453.98 317.961 1394.44 302.999 1394.89 295.247C1395.34 287.495 1403.53 287.805 1407.58 288.929C1404.63 287.308 1399.6 283.067 1403.05 279.078C1406.5 275.088 1411.53 277.077 1413.61 278.571C1412.52 277.114 1410.76 271.449 1415.6 267.41C1420.43 263.371 1427.47 263.878 1429.11 266.063C1429.82 264.945 1432.14 262.745 1435.74 262.893C1439.35 263.041 1440.94 265.93 1441.28 267.357C1441.81 266.187 1444.17 264.112 1449.34 265.171C1454.5 266.23 1453.89 271.051 1453.89 271.051C1453.79 270.077 1453.22 272.674 1458.75 272.477C1464.29 272.28 1465.19 277.772 1464.95 280.543C1465.52 280.522 1467.17 280.74 1469.15 281.774C1471.13 282.809 1470.6 286.556 1470.09 288.301L1472.71 289.071Z" stroke="#516D12" stroke-linecap="round" stroke-linejoin="round"/>
  <path d="M1760.11 504.954C1756.61 508.463 1753.04 506.354 1749.53 502.855C1746.02 499.357 1743.9 495.794 1747.4 492.286C1750.9 488.777 1756.58 488.768 1760.09 492.267C1763.6 495.765 1763.61 501.446 1760.11 504.954Z" fill="#89AB3D" stroke="#516D12" stroke-linecap="round" stroke-linejoin="round"/>
  <path d="M1749.07 509.082C1746.29 511.868 1744.29 509.352 1741.51 506.574C1738.72 503.795 1736.2 501.806 1738.98 499.02C1741.75 496.233 1746.27 496.226 1749.05 499.005C1751.84 501.783 1751.85 506.295 1749.07 509.082Z" fill="#718843" stroke="#516D12" stroke-linecap="round" stroke-linejoin="round"/>
  <path d="M1770 526.017C1767.04 528.611 1765.22 525.966 1762.62 523.007C1760.03 520.048 1757.65 517.894 1760.61 515.3C1763.56 512.706 1768.07 513.002 1770.66 515.962C1773.25 518.921 1772.96 523.423 1770 526.017Z" fill="#718843" stroke="#516D12" stroke-linecap="round" stroke-linejoin="round"/>
  <path d="M1495.87 311.054C1493.37 315.963 1488.82 314.928 1483.85 312.397C1478.89 309.866 1475.38 306.797 1477.88 301.888C1480.38 296.979 1486.43 295.052 1491.4 297.582C1496.37 300.113 1498.37 306.145 1495.87 311.054Z" fill="#718843" stroke="#516D12" stroke-linecap="round" stroke-linejoin="round"/>
  <path d="M1827.25 582.102C1824.06 584.9 1821.1 582.863 1818.27 579.635C1815.44 576.407 1813.81 573.211 1817 570.414C1820.19 567.616 1825.07 567.965 1827.9 571.192C1830.73 574.42 1830.44 579.305 1827.25 582.102Z" fill="#718843" stroke="#516D12" stroke-linecap="round" stroke-linejoin="round"/>
  <path d="M1826.06 574.324C1822.87 577.122 1819.92 575.085 1817.09 571.857C1814.25 568.629 1812.62 565.433 1815.81 562.636C1819 559.838 1823.88 560.187 1826.71 563.414C1829.54 566.642 1829.25 571.527 1826.06 574.324Z" fill="#718843" stroke="#516D12" stroke-linecap="round" stroke-linejoin="round"/>
  <path d="M1081.04 83.436C1081.04 83.436 1058.57 104.565 1006.65 142.663C1084.01 148.531 1146.07 171.115 1209.9 183.96L1192.29 163.221C1188.34 158.905 1180.14 157.492 1173.48 160.474C1158.43 148.92 1152.18 137.377 1150.9 132.601C1125.26 143.304 1110.93 140.11 1106.98 137.174C1095.99 121.158 1081.04 83.436 1081.04 83.436Z" fill="#929EC9"/>
  <path d="M1121.07 152.913C1115.47 148.162 1110.82 142.766 1106.98 137.174M1106.98 137.174C1095.99 121.158 1081.04 83.436 1081.04 83.436C1081.04 83.436 1058.57 104.565 1006.65 142.663C1084.01 148.531 1146.07 171.115 1209.9 183.96L1192.29 163.221C1188.34 158.905 1180.14 157.492 1173.48 160.474M1106.98 137.174C1110.93 140.11 1125.26 143.304 1150.9 132.601C1152.18 137.377 1158.43 148.92 1173.48 160.474M1179.74 164.925C1177.5 163.451 1175.42 161.962 1173.48 160.474" stroke="black" stroke-linecap="round"/>
  <path d="M1080.52 84.7503C1080.52 84.7503 1068.92 95.7429 1049.72 110.561L1066.45 107.698L1076.01 121.002L1088.86 115.456L1097.08 120.624C1089.17 106.068 1080.52 84.7503 1080.52 84.7503Z" fill="#D8DBEF"/>
  <path d="M1150.65 133.367C1140.7 137.517 1134 139.277 1127.41 140.073L1141 141.315L1148.75 150.503L1156.1 147.349L1163.85 152.729C1155.28 144.144 1151.63 137.034 1150.65 133.367Z" fill="#D8DBEF"/>
  <path d="M1257.97 157.824C1257.97 157.824 1240.29 151.634 1184.78 186.518C1254.05 203.856 1306.85 233.981 1362.75 255.545L1350 233.997C1347.09 229.468 1339.87 226.913 1333.37 228.584C1321.51 215.766 1317.63 204.323 1317.21 199.791C1292.28 205.519 1279.78 200.397 1276.65 197.119C1269.17 180.882 1257.97 157.824 1257.97 157.824Z" fill="#929EC9"/>
  <path d="M1286.99 213.586C1282.65 208.406 1279.26 202.788 1276.65 197.119M1276.65 197.119C1269.17 180.882 1257.97 157.824 1257.97 157.824C1257.97 157.824 1240.29 151.634 1184.78 186.518C1254.05 203.856 1306.85 233.981 1362.75 255.545L1350 233.997C1347.09 229.468 1339.87 226.913 1333.37 228.584M1276.65 197.119C1279.78 200.397 1292.28 205.519 1317.21 199.791C1317.63 204.323 1321.51 215.766 1333.37 228.584M1338.35 233.594C1336.55 231.909 1334.89 230.235 1333.37 228.584" stroke="black" stroke-linecap="round"/>
  <path d="M1257.95 158.143C1257.95 158.143 1246.91 155.561 1224.28 165.757L1239.36 167.475L1246.15 181.937L1260.92 178.389L1268.7 181.252C1262.98 169.201 1257.95 158.143 1257.95 158.143Z" fill="#D8DBEF"/>
  <path d="M1316.86 200.446C1307.19 202.668 1300.84 203.224 1294.73 202.922L1306.87 206.159L1312.48 215.698L1319.64 213.978L1325.83 220.062C1319.39 210.942 1317.18 203.925 1316.86 200.446Z" fill="#D8DBEF"/>
  <ellipse cx="21.3594" cy="4.27189" rx="21.3594" ry="4.27189" transform="matrix(-0.918192 0.396136 0.396136 0.918192 211.429 224.334)" fill="black" fill-opacity="0.2"/>
  <path d="M166.24 136.241L203.522 234.346L211.115 231.071L166.24 136.241Z" fill="#896736" stroke="black"/>
  <path d="M167.551 157.649C162.827 164.93 156.313 167.781 153.331 168.106C162.418 162.503 165.075 143.334 165.93 133.853C173.836 148.886 186.977 150.949 191.984 149.99C184.209 153.344 175.163 150.522 171.612 148.693C171.612 148.693 170.796 152.647 167.551 157.649Z" fill="#14653C" stroke="black"/>
  <path d="M173.186 170.707C167.559 178.538 156.874 184.109 153.892 184.434C167.235 176.953 172.461 162.121 173.316 152.64C181.222 167.673 197.142 163.614 202.394 162.429C187.43 170.326 180.798 163.581 177.246 161.751C177.246 161.751 176.665 165.865 173.186 170.707Z" fill="#14653C" stroke="black"/>
  <path d="M177.902 181.64C172.275 189.471 161.591 195.041 158.609 195.367C171.952 187.885 177.177 173.053 178.033 163.573C185.939 178.605 200.638 172.551 205.89 171.366C190.926 179.263 185.514 174.513 181.963 172.683C181.963 172.683 181.382 176.797 177.902 181.64Z" fill="#14653C" stroke="black"/>
  <path d="M169.953 199.118C179.914 194.82 184.464 183.491 185.494 178.364C186.236 180.085 187.108 184.944 184.655 190.614C182.202 196.283 173.831 198.645 169.953 199.118Z" fill="#14653C" stroke="black"/>
  <path d="M202.837 183.494C197.492 185.8 190.272 183.872 187.33 182.619C186.612 184.85 186.338 189.171 190.993 188.604C195.647 188.037 200.828 184.961 202.837 183.494Z" fill="#14653C" stroke="black"/>
  <path d="M182.198 200.784C186.484 198.935 189.379 193.774 190.291 191.425C191.97 192.191 194.6 194.316 191.695 196.687C188.79 199.058 184.153 200.406 182.198 200.784Z" fill="#14653C" stroke="black"/>
</svg>
