<svg width="171" height="62" viewBox="0 0 171 62" fill="none" xmlns="http://www.w3.org/2000/svg">
<path d="M3.85787 11.8379C3.81016 9.62931 5.56193 7.80019 7.77055 7.75249L164.946 4.35744C167.155 4.30973 168.984 6.0615 169.031 8.27012L169.665 37.6132C169.713 39.8252 167.956 41.6558 165.744 41.6988L98.0143 43.0159C96.4412 43.0464 95.0322 43.9964 94.4139 45.4431L91.4603 52.3541C90.137 55.4505 85.8134 55.626 84.2435 52.647L80.5189 45.5795C79.8106 44.2357 78.4024 43.4089 76.8838 43.4456L8.58713 45.0921C6.37472 45.1454 4.53945 43.3921 4.49166 41.1796L3.85787 11.8379Z" fill="#866224" stroke="black" stroke-linecap="round"/>
<path d="M1.08638 8.62505C1.03867 6.41642 2.79044 4.5873 4.99907 4.5396L162.175 1.14455C164.383 1.09684 166.212 2.84861 166.26 5.05723L166.894 34.4003C166.942 36.6123 165.185 38.4429 162.972 38.4859L93.9505 39.8281C93.164 39.8434 92.4595 40.3183 92.1503 41.0417L87.0384 53.003C86.3767 54.5512 84.2149 54.6389 83.43 53.1494L77.1693 41.2698C76.8152 40.5978 76.1111 40.1845 75.3518 40.2028L5.81565 41.8792C3.60324 41.9325 1.76796 40.1792 1.72017 37.9667L1.08638 8.62505Z" fill="#E9B965" stroke="black" stroke-linecap="round"/>
<path d="M22.1789 30.398C19.5232 30.4394 17.5175 29.8265 16.1618 28.5595C14.8221 27.2922 14.1208 25.2028 14.058 22.2915C14.001 19.6521 14.5961 17.5668 15.8433 16.0355C17.0902 14.4882 18.8813 13.6893 21.2168 13.6389C22.6564 13.6078 23.9168 13.7966 24.9979 14.2054C26.079 14.6141 26.9161 15.2122 27.5092 15.9995C28.1024 16.7869 28.4107 17.7245 28.4342 18.8122C28.4528 19.676 28.2775 20.448 27.9081 21.1281C27.5547 21.8079 27.0158 22.4197 26.2913 22.9635C26.8853 23.0467 27.4041 23.3555 27.8477 23.8901C28.3073 24.4243 28.5449 25.0513 28.5605 25.7711C28.5771 26.5389 28.3848 27.2713 27.9838 27.9681C27.5984 28.6486 26.9225 29.2153 25.956 29.6683C25.0056 30.1209 23.7466 30.3642 22.1789 30.398ZM20.33 21.4839C20.621 21.6216 20.9825 21.6858 21.4144 21.6765C21.9263 21.6654 22.3636 21.536 22.7263 21.2881C23.1047 21.0238 23.2885 20.6438 23.2778 20.1479C23.2675 19.668 23.0677 19.3122 22.6786 19.0806C22.3052 18.8326 21.8545 18.7143 21.3267 18.7257C20.9107 18.7347 20.5604 18.8143 20.2756 18.9645C20.0537 19.0653 19.8894 19.2369 19.7826 19.4792C19.6758 19.7216 19.6253 19.9787 19.6312 20.2507C19.6371 20.5226 19.6986 20.7773 19.8157 21.0149C19.9325 21.2364 20.104 21.3927 20.33 21.4839ZM20.4513 27.0986C20.758 27.22 21.1193 27.2762 21.5352 27.2672C22.047 27.2561 22.4847 27.1427 22.8481 26.9268C23.2272 26.6945 23.4121 26.3624 23.4027 25.9305C23.3937 25.5146 23.1949 25.1989 22.8061 24.9832C22.4174 24.7676 21.9671 24.6653 21.4552 24.6763C21.0553 24.6849 20.7047 24.7565 20.4036 24.8911C20.1817 24.9919 20.017 25.1475 19.9095 25.3578C19.8017 25.5522 19.7504 25.7694 19.7556 26.0093C19.7608 26.2493 19.8216 26.472 19.9381 26.6775C20.0542 26.8671 20.2252 27.0074 20.4513 27.0986ZM35.4438 30.1355C34.2601 30.1611 33.2074 29.9517 32.2855 29.5076C31.3637 29.0634 30.6379 28.4309 30.1081 27.6101C29.5939 26.773 29.3254 25.8266 29.3026 24.7709C29.2801 23.7311 29.5073 22.766 29.9842 21.8755C30.4771 20.9846 31.1657 20.2656 32.0501 19.7184C32.9345 19.1711 33.9445 18.8852 35.0803 18.8607C36.104 18.8386 37.0123 19.027 37.8051 19.426C38.5979 19.825 39.2097 20.3639 39.6405 21.0427C40.0709 21.7056 40.294 22.405 40.3099 23.1408C40.3358 24.3405 39.899 25.2301 38.9993 25.8097C38.1152 26.3729 37.0493 26.668 35.8016 26.695C34.9698 26.7129 34.2637 26.6242 33.6834 26.4286C34.1802 27.2021 34.9805 27.5769 36.0842 27.5531C36.5321 27.5434 37.0108 27.477 37.5203 27.354C37.7112 27.3019 37.8946 27.2739 38.0706 27.2701C38.4225 27.2625 38.7043 27.3444 38.9161 27.5159C39.1438 27.687 39.261 27.9245 39.2676 28.2285C39.2783 28.7244 38.9837 29.1628 38.3838 29.5439C37.7835 29.9089 36.8035 30.1061 35.4438 30.1355ZM33.6921 23.4998C33.8409 23.7206 34.0365 23.8844 34.2789 23.9912C34.5369 24.0817 34.8179 24.1236 35.1218 24.117C35.4737 24.1094 35.7759 24.0229 36.0284 23.8574C36.2969 23.6916 36.4284 23.4807 36.4228 23.2247C36.4166 22.9368 36.2913 22.6915 36.0468 22.4887C35.8184 22.2856 35.4882 22.1887 35.0563 22.198C34.6244 22.2073 34.2835 22.3507 34.0334 22.6282C33.799 22.8893 33.6852 23.1799 33.6921 23.4998ZM43.9859 29.951C42.9621 29.9731 42.2613 29.3881 41.8835 28.196C41.5216 27.0035 41.3179 25.3515 41.2723 23.24C41.2516 22.2802 41.2743 21.4796 41.3404 20.838C41.4222 20.1801 41.6263 19.6235 41.9525 19.1684C42.2944 18.6969 42.8253 18.4534 43.5451 18.4378C43.993 18.4281 44.3872 18.5237 44.7276 18.7243C45.084 18.9247 45.3143 19.2158 45.4186 19.5976C45.7636 19.2701 46.2143 19.0203 46.7707 18.8483C47.3271 18.6762 47.9253 18.5833 48.5651 18.5694C49.077 18.5584 49.5997 18.6751 50.1331 18.9197C50.6825 19.1639 51.138 19.5061 51.4996 19.9464C51.8768 20.3703 52.0709 20.8383 52.082 21.3501C52.0931 21.862 51.9189 22.3219 51.5597 22.7297C51.216 23.1213 50.7483 23.3234 50.1564 23.3362C49.9645 23.3403 49.78 23.3203 49.603 23.2761C49.442 23.2316 49.297 23.1867 49.168 23.1415C48.8453 23.0204 48.588 22.962 48.396 22.9661C47.7722 22.9796 47.2257 23.2395 46.7565 23.7457C46.303 24.2356 46.0845 24.8645 46.1011 25.6323C46.1194 26.4801 46.1026 27.1846 46.0507 27.7459C45.9988 28.3071 45.8178 28.8152 45.5075 29.27C45.1969 29.7088 44.6897 29.9358 43.9859 29.951ZM57.0551 29.6687C55.8074 29.6956 54.7776 29.4378 53.9657 28.8952C53.1534 28.3366 52.7357 27.5215 52.7126 26.4497C52.6925 25.5219 53.0846 24.7773 53.8886 24.2158C54.6927 23.6543 55.7026 23.3604 56.9183 23.3342C57.3662 23.3245 57.783 23.3555 58.1686 23.4272C58.5699 23.4825 58.8435 23.5566 58.9896 23.6495C58.9809 23.2496 58.8059 22.9253 58.4644 22.6766C58.1227 22.4119 57.6078 22.287 56.92 22.3019C56.6161 22.3084 56.3686 22.3378 56.1777 22.3899C55.9868 22.4421 55.7804 22.5185 55.5585 22.6194C55.3367 22.7202 55.1303 22.7966 54.9393 22.8488C54.7644 22.9006 54.525 22.9297 54.2211 22.9363C53.7092 22.9474 53.3065 22.828 53.0131 22.5783C52.7192 22.3126 52.5665 21.9078 52.5547 21.3639C52.5412 20.7401 52.7538 20.2074 53.1924 19.7658C53.6469 19.3239 54.2159 18.9915 54.8992 18.7687C55.5822 18.5299 56.2676 18.4031 56.9555 18.3882C58.3152 18.3588 59.4564 18.5902 60.3793 19.0824C61.3178 19.5583 62.012 20.2074 62.4618 21.0299C62.9277 21.852 63.1715 22.767 63.1933 23.7748C63.205 24.3186 63.1679 24.8235 63.082 25.2895C63.012 25.7551 62.9078 26.1175 62.7694 26.3765C62.9974 26.5636 63.1702 26.784 63.2877 27.0375C63.4212 27.2906 63.4909 27.5532 63.4968 27.8251C63.5068 28.289 63.3555 28.6924 63.0428 29.0352C62.7462 29.3777 62.3419 29.5545 61.83 29.5655C61.4461 29.5738 61.133 29.5246 60.8906 29.4178C60.6482 29.311 60.3885 29.1406 60.1114 28.9065C59.7166 29.1551 59.2805 29.3405 58.8031 29.4629C58.3416 29.5849 57.759 29.6535 57.0551 29.6687ZM57.4827 27.2349C57.8186 27.2276 58.081 27.1499 58.2698 27.0018C58.4746 26.8534 58.5748 26.6752 58.5703 26.4672C58.5658 26.2593 58.4581 26.0855 58.247 25.9461C58.0519 25.8063 57.7864 25.74 57.4505 25.7472C57.1146 25.7545 56.8442 25.8323 56.6394 25.9808C56.4505 26.1289 56.3584 26.3069 56.3628 26.5149C56.3673 26.7228 56.4671 26.8967 56.6622 27.0366C56.8732 27.176 57.1467 27.2421 57.4827 27.2349ZM79.8686 29.1519C77.2129 29.1933 75.2072 28.5804 73.8515 27.3134C72.5118 26.046 71.8105 23.9567 71.7476 21.0454C71.6906 18.406 72.2857 16.3207 73.5329 14.7894C74.7798 13.2421 76.571 12.4432 78.9064 12.3928C80.3461 12.3617 81.6065 12.5505 82.6876 12.9592C83.7686 13.368 84.6058 13.9661 85.1989 14.7534C85.792 15.5408 86.1004 16.4784 86.1238 17.5661C86.1425 18.4299 85.9671 19.2019 85.5977 19.882C85.2443 20.5618 84.7054 21.1736 83.981 21.7174C84.5749 21.8005 85.0937 22.1094 85.5374 22.644C85.997 23.1782 86.2346 23.8052 86.2502 24.525C86.2667 25.2928 86.0745 26.0251 85.6735 26.722C85.2881 27.4025 84.6122 27.9692 83.6457 28.4222C82.6953 28.8748 81.4362 29.118 79.8686 29.1519ZM78.0197 20.2377C78.3107 20.3755 78.6722 20.4397 79.1041 20.4304C79.6159 20.4193 80.0533 20.2898 80.416 20.042C80.7944 19.7777 80.9782 19.3977 80.9675 18.9018C80.9571 18.4219 80.7574 18.0661 80.3683 17.8345C79.9949 17.5865 79.5442 17.4682 79.0163 17.4796C78.6004 17.4886 78.2501 17.5681 77.9652 17.7183C77.7434 17.8191 77.579 17.9907 77.4722 18.2331C77.3654 18.4755 77.315 18.7326 77.3209 19.0045C77.3267 19.2765 77.3882 19.5312 77.5054 19.7687C77.6222 19.9903 77.7936 20.1466 78.0197 20.2377ZM78.1409 25.8524C78.4476 25.9738 78.8089 26.0301 79.2248 26.0211C79.7367 26.01 80.1744 25.8965 80.5378 25.6806C80.9169 25.4484 81.1017 25.1163 81.0924 24.6844C81.0834 24.2685 80.8845 23.9527 80.4958 23.7371C80.1071 23.5214 79.6567 23.4191 79.1449 23.4302C78.745 23.4388 78.3944 23.5104 78.0933 23.645C77.8714 23.7458 77.7067 23.9014 77.5992 24.1117C77.4914 24.3061 77.4401 24.5233 77.4452 24.7632C77.4504 25.0032 77.5113 25.2259 77.6277 25.4314C77.7438 25.621 77.9149 25.7613 78.1409 25.8524ZM91.4299 28.9262C90.1822 28.9531 89.1524 28.6953 88.3405 28.1527C87.5282 27.5941 87.1105 26.779 87.0874 25.7072C87.0673 24.7794 87.4594 24.0348 88.2634 23.4733C89.0675 22.9118 90.0774 22.6179 91.2931 22.5917C91.741 22.582 92.1577 22.613 92.5434 22.6847C92.9447 22.74 93.2183 22.8141 93.3644 22.907C93.3557 22.5071 93.1807 22.1828 92.8392 21.9341C92.4974 21.6694 91.9826 21.5445 91.2948 21.5594C90.9909 21.5659 90.7434 21.5953 90.5525 21.6474C90.3616 21.6996 90.1552 21.776 89.9333 21.8768C89.7115 21.9777 89.5051 22.0541 89.3141 22.1063C89.1392 22.1581 88.8998 22.1872 88.5959 22.1938C88.084 22.2049 87.6813 22.0855 87.3878 21.8358C87.094 21.5701 86.9413 21.1653 86.9295 20.6214C86.916 19.9976 87.1286 19.4649 87.5672 19.0233C88.0217 18.5814 88.5907 18.249 89.274 18.0262C89.957 17.7874 90.6424 17.6606 91.3303 17.6457C92.69 17.6163 93.8312 17.8477 94.7541 18.3399C95.6926 18.8158 96.3867 19.4649 96.8366 20.2874C97.3025 21.1095 97.5463 22.0245 97.5681 23.0322C97.5798 23.5761 97.5427 24.081 97.4567 24.547C97.3868 25.0126 97.2826 25.375 97.1441 25.634C97.3722 25.8211 97.545 26.0414 97.6625 26.295C97.796 26.5481 97.8657 26.8107 97.8716 27.0826C97.8816 27.5465 97.7303 27.9499 97.4176 28.2927C97.121 28.6352 96.7167 28.812 96.2048 28.823C95.8209 28.8313 95.5078 28.7821 95.2654 28.6753C95.023 28.5685 94.7633 28.3981 94.4862 28.164C94.0914 28.4126 93.6553 28.598 93.1779 28.7204C92.7164 28.8424 92.1337 28.911 91.4299 28.9262ZM91.8575 26.4924C92.1934 26.4851 92.4558 26.4074 92.6446 26.2593C92.8494 26.1109 92.9496 25.9327 92.9451 25.7247C92.9406 25.5168 92.8329 25.343 92.6218 25.2036C92.4267 25.0637 92.1612 24.9975 91.8253 25.0047C91.4894 25.012 91.219 25.0898 91.0142 25.2383C90.8253 25.3864 90.7332 25.5644 90.7376 25.7724C90.7421 25.9803 90.8419 26.1542 91.037 26.294C91.248 26.4335 91.5215 26.4996 91.8575 26.4924ZM104.35 28.6471C103.214 28.6716 102.201 28.4215 101.309 27.8966C100.433 27.3554 99.7539 26.6499 99.271 25.7801C98.7878 24.8943 98.5353 23.9476 98.5135 22.9398C98.488 21.7561 98.7063 20.7511 99.1686 19.925C99.6465 19.0824 100.265 18.4529 101.024 18.0364C101.799 17.6196 102.635 17.4015 103.531 17.3822C104.426 17.3628 105.23 17.5375 105.943 17.9062C105.903 17.571 105.832 17.2124 105.727 16.8306C105.639 16.4484 105.578 16.2097 105.544 16.1144C105.405 15.6213 105.3 15.2074 105.229 14.8729C105.158 14.5384 105.118 14.2031 105.111 13.8672C105.097 13.1954 105.286 12.6792 105.678 12.3186C106.07 11.9581 106.546 11.7717 107.106 11.7596C108.002 11.7403 108.739 12.1725 109.319 13.0562C109.898 13.9399 110.322 15.043 110.59 16.3655C110.875 17.6876 111.032 19.0286 111.061 20.3882C111.101 22.2278 110.716 24.0525 109.907 25.8624C109.114 27.656 107.261 28.5842 104.35 28.6471ZM104.412 24.8529C104.844 24.8435 105.217 24.6755 105.53 24.3486C105.842 24.0058 105.994 23.6104 105.984 23.1625C105.974 22.7146 105.806 22.3262 105.479 21.9972C105.152 21.6682 104.772 21.5083 104.34 21.5176C103.908 21.527 103.528 21.7032 103.199 22.0464C102.887 22.3892 102.735 22.7846 102.745 23.2325C102.755 23.6804 102.923 24.0688 103.25 24.3979C103.593 24.7105 103.98 24.8622 104.412 24.8529ZM117.683 28.3591C116.547 28.3836 115.534 28.1335 114.642 27.6086C113.766 27.0674 113.087 26.3619 112.604 25.4921C112.121 24.6063 111.868 23.6596 111.846 22.6518C111.821 21.4681 112.039 20.4631 112.501 19.637C112.979 18.7944 113.598 18.1649 114.357 17.7484C115.132 17.3316 115.968 17.1135 116.864 17.0942C117.759 17.0748 118.563 17.2495 119.275 17.6182C119.236 17.283 119.164 16.9244 119.06 16.5426C118.972 16.1604 118.911 15.9217 118.877 15.8264C118.738 15.3333 118.633 14.9194 118.562 14.5849C118.49 14.2504 118.451 13.9151 118.444 13.5792C118.429 12.9074 118.618 12.3912 119.011 12.0306C119.403 11.6701 119.879 11.4837 120.439 11.4716C121.335 11.4523 122.072 11.8845 122.651 12.7682C123.231 13.6519 123.655 14.755 123.923 16.0775C124.208 17.3996 124.365 18.7406 124.394 20.1002C124.434 21.9398 124.049 23.7645 123.24 25.5744C122.447 27.368 120.594 28.2962 117.683 28.3591ZM117.745 24.5649C118.177 24.5555 118.549 24.3875 118.862 24.0606C119.175 23.7178 119.327 23.3224 119.317 22.8745C119.307 22.4266 119.139 22.0382 118.812 21.7092C118.484 21.3802 118.105 21.2203 117.673 21.2296C117.241 21.239 116.861 21.4152 116.532 21.7584C116.219 22.1012 116.068 22.4966 116.078 22.9445C116.087 23.3924 116.256 23.7809 116.583 24.1099C116.926 24.4225 117.313 24.5742 117.745 24.5649ZM127.861 16.4965C127.077 16.5135 126.407 16.2479 125.851 15.6997C125.295 15.1356 125.008 14.4457 124.991 13.6299C124.973 12.83 125.231 12.1443 125.762 11.5727C126.294 10.9851 126.951 10.6828 127.735 10.6659C128.503 10.6493 129.165 10.9231 129.721 11.4872C130.293 12.035 130.588 12.7088 130.605 13.5086C130.623 14.3244 130.358 15.0263 129.811 15.6142C129.279 16.1858 128.629 16.4799 127.861 16.4965ZM128.112 28.1338C127.457 28.148 126.965 27.9746 126.637 27.6136C126.325 27.2362 126.104 26.6728 125.976 25.9234C125.864 25.1577 125.792 24.071 125.762 22.6633C125.736 21.4796 125.772 20.5426 125.869 19.8523C125.982 19.1617 126.195 18.645 126.508 18.3022C126.82 17.9593 127.281 17.7814 127.889 17.7682C128.544 17.7541 129.028 17.9357 129.341 18.313C129.669 18.674 129.889 19.2374 130.001 20.0031C130.13 20.7525 130.209 21.8311 130.239 23.2387C130.265 24.4225 130.221 25.3596 130.108 26.0502C130.011 26.7405 129.806 27.257 129.493 27.5999C129.181 27.9427 128.72 28.1207 128.112 28.1338ZM137.678 27.9272C136.494 27.9528 135.441 27.7435 134.52 27.2993C133.598 26.8551 132.872 26.2226 132.342 25.4018C131.828 24.5647 131.559 23.6183 131.537 22.5626C131.514 21.5228 131.741 20.5577 132.218 19.6672C132.711 18.7763 133.4 18.0573 134.284 17.5101C135.168 16.9628 136.179 16.677 137.314 16.6524C138.338 16.6303 139.246 16.8187 140.039 17.2177C140.832 17.6167 141.444 18.1556 141.874 18.8345C142.305 19.4973 142.528 20.1967 142.544 20.9325C142.57 22.1322 142.133 23.0218 141.233 23.6014C140.349 24.1646 139.283 24.4597 138.036 24.4867C137.204 24.5046 136.498 24.4159 135.917 24.2204C136.414 24.9938 137.214 25.3686 138.318 25.3448C138.766 25.3351 139.245 25.2687 139.754 25.1457C139.945 25.0936 140.129 25.0656 140.305 25.0618C140.656 25.0542 140.938 25.1361 141.15 25.3076C141.378 25.4787 141.495 25.7163 141.502 26.0202C141.512 26.5161 141.218 26.9545 140.618 27.3356C140.017 27.7006 139.037 27.8978 137.678 27.9272ZM135.926 21.2915C136.075 21.5123 136.27 21.6761 136.513 21.7829C136.771 21.8734 137.052 21.9153 137.356 21.9088C137.708 21.9012 138.01 21.8146 138.262 21.6491C138.531 21.4833 138.662 21.2724 138.657 21.0164C138.651 20.7285 138.525 20.4832 138.281 20.2804C138.052 20.0773 137.722 19.9804 137.29 19.9897C136.858 19.999 136.517 20.1424 136.267 20.4199C136.033 20.681 135.919 20.9716 135.926 21.2915ZM148.025 27.7037C146.617 27.7341 145.493 27.5263 144.651 27.0804C143.809 26.6345 143.38 26.0436 143.364 25.3078C143.354 24.8279 143.506 24.4565 143.82 24.1937C144.15 23.9145 144.571 23.7694 145.083 23.7583C145.371 23.7521 145.604 23.7871 145.782 23.8633C145.959 23.9394 146.138 24.0476 146.317 24.1878C146.447 24.297 146.553 24.3747 146.634 24.421C146.731 24.4669 146.843 24.4885 146.971 24.4857C147.307 24.4784 147.473 24.3548 147.467 24.1149C147.463 23.891 147.371 23.7249 147.193 23.6167C147.014 23.4926 146.707 23.3472 146.271 23.1805C145.868 23.0292 145.601 22.9229 145.472 22.8617C144.728 22.5257 144.176 22.1215 143.813 21.6492C143.451 21.177 143.264 20.6689 143.252 20.125C143.239 19.5171 143.443 18.9366 143.863 18.3834C144.299 17.8139 144.913 17.3525 145.705 16.9993C146.514 16.6298 147.446 16.4336 148.501 16.4108C149.413 16.3911 150.24 16.5013 150.981 16.7413C151.738 16.981 152.338 17.3201 152.779 17.7587C153.221 18.1813 153.447 18.6565 153.458 19.1844C153.469 19.6803 153.317 20.0596 153.003 20.3225C152.704 20.585 152.291 20.7219 151.763 20.7333C151.555 20.7378 151.387 20.7255 151.258 20.6962C151.145 20.6507 150.992 20.582 150.798 20.4901C150.685 20.4286 150.563 20.3752 150.434 20.3299C150.321 20.2844 150.193 20.2631 150.049 20.2663C149.921 20.269 149.81 20.3194 149.716 20.4175C149.622 20.4995 149.576 20.6045 149.579 20.7325C149.584 20.9725 149.764 21.1446 150.118 21.249C151.052 21.5329 151.805 21.9007 152.374 22.3525C152.96 22.804 153.262 23.4376 153.28 24.2534C153.302 25.2932 152.832 26.1195 151.869 26.7325C150.922 27.3451 149.641 27.6688 148.025 27.7037Z" fill="black"/>
</svg>
