<svg width="131" height="62" viewBox="0 0 131 62" fill="none" xmlns="http://www.w3.org/2000/svg">
<path d="M3.85737 11.8108C3.8099 9.61292 5.54499 7.78865 7.74247 7.72602L124.919 4.38614C127.138 4.32289 128.984 6.07873 129.032 8.29813L129.666 37.6421C129.714 39.8429 127.974 41.6685 125.773 41.7271L77.9937 42.9982C76.4313 43.0398 75.0362 43.9876 74.4219 45.4249L71.4604 52.3544C70.1371 55.4508 65.8135 55.6263 64.2436 52.6473L60.5303 45.6014C59.8162 44.2464 58.391 43.4181 56.8601 43.4685L8.62162 45.056C6.39602 45.1292 4.53908 43.3708 4.49099 41.1445L3.85737 11.8108Z" fill="#866224" stroke="black" stroke-linecap="round"/>
<path d="M1.08589 8.59789C1.03841 6.40003 2.77351 4.57576 4.97099 4.51313L122.148 1.17325C124.367 1.11 126.213 2.86584 126.261 5.08524L126.895 34.4292C126.942 36.63 125.202 38.4556 123.002 38.5142L73.9403 39.8194C73.1591 39.8402 72.4615 40.3141 72.1544 41.0328L67.0385 53.0033C66.3768 54.5515 64.215 54.6393 63.4301 53.1498L57.1751 41.2809C56.8181 40.6034 56.1054 40.1892 55.34 40.2144L5.85014 41.8431C3.62453 41.9163 1.7676 40.1579 1.71951 37.9316L1.08589 8.59789Z" fill="#E9B965" stroke="black" stroke-linecap="round"/>
<path d="M32.8019 29.7609C32.258 29.7726 31.7992 29.6465 31.4254 29.3825C31.0672 29.1022 30.811 28.7236 30.6567 28.2468C30.519 27.8017 30.4285 27.3155 30.3851 26.7883C30.3577 26.2608 30.3336 25.5172 30.3129 24.5574C30.2936 23.6616 30.2392 22.9986 30.1499 22.5684C30.0766 22.1379 29.904 21.9256 29.632 21.9315C29.3121 21.9384 29.0913 22.0872 28.9695 22.3779C28.8474 22.6526 28.7919 23.0459 28.803 23.5578C28.813 24.0217 28.8927 24.7481 29.0421 25.7371C29.0622 25.9287 29.1008 26.232 29.1578 26.6468C29.2147 27.0617 29.2462 27.4051 29.252 27.677C29.2686 28.4448 29.1044 28.9925 28.7594 29.32C28.4304 29.6472 27.938 29.8179 27.2821 29.8321C26.4983 29.849 25.8093 29.4398 25.2151 28.6044C24.6209 27.7691 24.1662 26.7226 23.851 25.4651C23.5354 24.1917 23.3643 22.9391 23.3377 21.7074C23.306 20.2357 23.4844 18.8635 23.873 17.5908C24.2776 16.3178 24.8955 15.2882 25.7267 14.5021C26.5739 13.7156 27.6054 13.3092 28.8211 13.283C29.8449 13.2609 30.6676 13.5632 31.2893 14.1899C31.9106 14.8006 32.3349 15.5516 32.5622 16.4429C32.7192 15.5593 33.0947 14.791 33.6887 14.1381C34.2987 13.4847 35.1076 13.1472 36.1154 13.1254C37.3151 13.0995 38.347 13.4533 39.211 14.1868C40.0907 14.904 40.7689 15.9216 41.2454 17.2396C41.738 18.5573 42.0031 20.0879 42.0408 21.8315C42.0653 22.9672 41.9307 24.1464 41.6371 25.369C41.3431 26.5757 40.9168 27.5851 40.3582 28.3974C39.7996 29.2096 39.1524 29.6237 38.4166 29.6396C37.7447 29.6541 37.2292 29.4972 36.87 29.1689C36.5109 28.8405 36.323 28.2925 36.3064 27.5246C36.2988 27.1727 36.3486 26.5155 36.4558 25.553C36.5617 24.5264 36.6098 23.7892 36.6001 23.3413C36.5777 22.3016 36.2865 21.7877 35.7266 21.7998C35.4387 21.8061 35.2597 22.042 35.1898 22.5076C35.1358 22.9729 35.1121 23.7256 35.1185 24.7657C35.1355 25.5495 35.1336 26.2057 35.113 26.7342C35.0921 27.2468 35.0303 27.7203 34.9277 28.1546C34.8097 28.6212 34.5619 29.0027 34.1842 29.2989C33.8225 29.5948 33.3617 29.7488 32.8019 29.7609ZM48.8193 29.3909C47.7955 29.413 46.8224 29.1859 45.8999 28.7098C44.9931 28.2172 44.2584 27.5449 43.6958 26.6929C43.1333 25.8408 42.8405 24.8789 42.8173 23.8072C42.7931 22.6874 43.036 21.706 43.5459 20.8628C44.0715 20.0032 44.7693 19.34 45.6394 18.8731C46.5255 18.4058 47.4805 18.1612 48.5042 18.139C49.48 18.118 50.364 18.2909 51.1561 18.6579C51.9482 19.0249 52.5669 19.5156 53.0123 20.1302C53.4573 20.7287 53.6871 21.3639 53.7016 22.0357C53.7137 22.5956 53.5471 23.0313 53.2017 23.3428C52.8724 23.654 52.3718 23.8168 51.6999 23.8314C51.348 23.839 51.0747 23.7808 50.88 23.657C50.6852 23.5332 50.4811 23.3456 50.2677 23.0941C50.0705 22.8583 49.8828 22.6863 49.7044 22.5782C49.5417 22.4536 49.3083 22.3947 49.0044 22.4012C48.5725 22.4106 48.2079 22.5705 47.9105 22.881C47.6128 23.1755 47.469 23.5547 47.479 24.0186C47.4893 24.4984 47.6416 24.8792 47.9357 25.161C48.2459 25.4423 48.6249 25.5782 49.0728 25.5685C49.3607 25.5623 49.5838 25.5175 49.7421 25.434C49.9003 25.3506 50.0735 25.2188 50.2616 25.0387C50.4815 24.8419 50.6865 24.7014 50.8767 24.6173C51.0666 24.5172 51.3455 24.4632 51.7134 24.4552C52.3692 24.441 52.8769 24.6061 53.2364 24.9504C53.596 25.2948 53.7807 25.6989 53.7907 26.1628C53.8025 26.7066 53.5976 27.2232 53.1761 27.7124C52.7705 28.2013 52.187 28.598 51.4254 28.9025C50.6638 29.207 49.7951 29.3698 48.8193 29.3909ZM62.9972 29.0846C60.3415 29.126 58.3358 28.5131 56.9801 27.2461C55.6404 25.9788 54.9391 23.8894 54.8762 20.9781C54.8192 18.3387 55.4143 16.2534 56.6615 14.7221C57.9084 13.1748 59.6996 12.3759 62.035 12.3255C63.4747 12.2944 64.7351 12.4832 65.8162 12.892C66.8972 13.3007 67.7343 13.8988 68.3275 14.6861C68.9206 15.4735 69.2289 16.4111 69.2524 17.4988C69.2711 18.3626 69.0957 19.1346 68.7263 19.8147C68.3729 20.4945 67.834 21.1063 67.1096 21.6501C67.7035 21.7333 68.2223 22.0421 68.666 22.5767C69.1256 23.1109 69.3632 23.7379 69.3788 24.4577C69.3953 25.2255 69.2031 25.9579 68.8021 26.6547C68.4167 27.3352 67.7407 27.9019 66.7743 28.3549C65.8239 28.8075 64.5648 29.0508 62.9972 29.0846ZM61.1482 20.1705C61.4393 20.3082 61.8008 20.3724 62.2327 20.3631C62.7445 20.352 63.1818 20.2226 63.5446 19.9747C63.923 19.7104 64.1068 19.3304 64.0961 18.8345C64.0857 18.3546 63.886 17.9988 63.4969 17.7672C63.1235 17.5192 62.6728 17.4009 62.1449 17.4123C61.729 17.4213 61.3786 17.5009 61.0938 17.6511C60.872 17.7519 60.7076 17.9235 60.6008 18.1658C60.494 18.4082 60.4436 18.6653 60.4495 18.9373C60.4553 19.2092 60.5168 19.4639 60.634 19.7015C60.7508 19.923 60.9222 20.0793 61.1482 20.1705ZM61.2695 25.7852C61.5762 25.9066 61.9375 25.9628 62.3534 25.9538C62.8653 25.9427 63.303 25.8293 63.6664 25.6134C64.0454 25.3811 64.2303 25.049 64.221 24.6171C64.212 24.2012 64.0131 23.8855 63.6244 23.6698C63.2356 23.4542 62.7853 23.3519 62.2735 23.3629C61.8735 23.3715 61.523 23.4431 61.2218 23.5777C61 23.6785 60.8353 23.8341 60.7278 24.0444C60.62 24.2388 60.5687 24.456 60.5738 24.6959C60.579 24.9359 60.6398 25.1586 60.7563 25.3641C60.8724 25.5537 61.0435 25.694 61.2695 25.7852ZM76.2621 28.8221C75.0784 28.8477 74.0256 28.6383 73.1038 28.1942C72.182 27.75 71.4562 27.1175 70.9263 26.2967C70.4121 25.4596 70.1436 24.5132 70.1208 23.4575C70.0984 22.4177 70.3256 21.4526 70.8025 20.5621C71.2953 19.6712 71.984 18.9522 72.8684 18.405C73.7527 17.8577 74.7628 17.5718 75.8985 17.5473C76.9223 17.5252 77.8306 17.7136 78.6234 18.1126C79.4162 18.5116 80.028 19.0505 80.4587 19.7293C80.8891 20.3922 81.1123 21.0915 81.1282 21.8274C81.1541 23.0271 80.7172 23.9167 79.8175 24.4963C78.9335 25.0595 77.8676 25.3546 76.6199 25.3816C75.7881 25.3995 75.082 25.3108 74.5016 25.1152C74.9985 25.8887 75.7987 26.2635 76.9025 26.2397C77.3504 26.23 77.8291 26.1636 78.3385 26.0406C78.5294 25.9885 78.7129 25.9605 78.8888 25.9567C79.2408 25.9491 79.5226 26.031 79.7343 26.2025C79.9621 26.3736 80.0792 26.6111 80.0858 26.9151C80.0965 27.411 79.8019 27.8494 79.202 28.2305C78.6018 28.5955 77.6218 28.7927 76.2621 28.8221ZM74.5104 22.1864C74.6592 22.4072 74.8548 22.571 75.0971 22.6778C75.3552 22.7683 75.6361 22.8102 75.9401 22.8036C76.292 22.796 76.5942 22.7095 76.8467 22.544C77.1151 22.3782 77.2466 22.1673 77.2411 21.9113C77.2349 21.6234 77.1095 21.3781 76.8651 21.1753C76.6367 20.9722 76.3065 20.8753 75.8746 20.8846C75.4427 20.8939 75.1017 21.0373 74.8517 21.3148C74.6172 21.5759 74.5035 21.8664 74.5104 22.1864ZM84.8041 28.6376C83.7804 28.6597 83.0796 28.0747 82.7017 26.8826C82.3399 25.6901 82.1362 24.0381 82.0906 21.9266C82.0698 20.9668 82.0925 20.1662 82.1587 19.5246C82.2405 18.8667 82.4445 18.3101 82.7708 17.855C83.1127 17.3835 83.6435 17.14 84.3634 17.1244C84.8113 17.1147 85.2054 17.2103 85.5458 17.4109C85.9023 17.6113 86.1326 17.9024 86.2369 18.2842C86.5819 17.9567 87.0326 17.7069 87.589 17.5349C88.1454 17.3628 88.7435 17.2699 89.3834 17.256C89.8953 17.245 90.4179 17.3617 90.9513 17.6063C91.5007 17.8505 91.9562 18.1927 92.3178 18.633C92.6951 19.0569 92.8892 19.5249 92.9003 20.0367C92.9113 20.5486 92.7372 21.0085 92.3779 21.4163C92.0343 21.8079 91.5666 22.01 90.9747 22.0228C90.7827 22.0269 90.5983 22.0069 90.4213 21.9627C90.2603 21.9182 90.1153 21.8733 89.9863 21.8281C89.6636 21.707 89.4063 21.6486 89.2143 21.6527C88.5904 21.6662 88.0439 21.9261 87.5748 22.4323C87.1212 22.9222 86.9028 23.5511 86.9193 24.3189C86.9377 25.1667 86.9209 25.8712 86.869 26.4325C86.8171 26.9937 86.636 27.5018 86.3258 27.9566C86.0152 28.3954 85.5079 28.6224 84.8041 28.6376ZM97.8734 28.3553C96.6257 28.3822 95.5959 28.1244 94.784 27.5818C93.9717 27.0232 93.554 26.2081 93.5308 25.1363C93.5108 24.2085 93.9028 23.4639 94.7069 22.9024C95.5109 22.3409 96.5208 22.047 97.7365 22.0208C98.1844 22.0111 98.6012 22.0421 98.9868 22.1138C99.3881 22.1691 99.6618 22.2432 99.8078 22.3361C99.7992 21.9362 99.6242 21.6119 99.2827 21.3632C98.9409 21.0985 98.4261 20.9736 97.7383 20.9885C97.4343 20.995 97.1869 21.0244 96.996 21.0765C96.8051 21.1287 96.5987 21.2051 96.3768 21.306C96.1549 21.4068 95.9485 21.4832 95.7576 21.5354C95.5827 21.5872 95.3433 21.6163 95.0393 21.6229C94.5274 21.634 94.1248 21.5146 93.8313 21.2649C93.5375 20.9992 93.3847 20.5944 93.373 20.0505C93.3595 19.4267 93.5721 18.894 94.0106 18.4524C94.4652 18.0105 95.0341 17.6781 95.7175 17.4553C96.4005 17.2165 97.0859 17.0897 97.7737 17.0748C99.1334 17.0454 100.275 17.2768 101.198 17.769C102.136 18.2449 102.83 18.894 103.28 19.7165C103.746 20.5386 103.99 21.4536 104.012 22.4614C104.023 23.0052 103.986 23.5101 103.9 23.9761C103.83 24.4417 103.726 24.8041 103.588 25.0631C103.816 25.2502 103.989 25.4706 104.106 25.7241C104.24 25.9772 104.309 26.2398 104.315 26.5117C104.325 26.9756 104.174 27.379 103.861 27.7218C103.564 28.0643 103.16 28.2411 102.648 28.2521C102.264 28.2604 101.951 28.2112 101.709 28.1044C101.466 27.9976 101.207 27.8272 100.93 27.5931C100.535 27.8417 100.099 28.0271 99.6213 28.1495C99.1599 28.2715 98.5772 28.3401 97.8734 28.3553ZM98.3009 25.9215C98.6368 25.9142 98.8992 25.8365 99.0881 25.6884C99.2929 25.54 99.3931 25.3618 99.3886 25.1538C99.3841 24.9459 99.2763 24.7721 99.0653 24.6327C98.8702 24.4929 98.6047 24.4266 98.2688 24.4338C97.9329 24.4411 97.6625 24.5189 97.4576 24.6674C97.2688 24.8155 97.1766 24.9935 97.1811 25.2015C97.1856 25.4094 97.2854 25.5833 97.4804 25.7232C97.6915 25.8626 97.965 25.9287 98.3009 25.9215Z" fill="black"/>
</svg>
