<svg width="170" height="59" viewBox="0 0 170 59" fill="none" xmlns="http://www.w3.org/2000/svg">
  <path d="M4.07812 8.27149C4.07812 6.06235 5.86899 4.27148 8.07813 4.27148H165.29C167.499 4.27148 169.29 6.06235 169.29 8.27148V37.6214C169.29 39.8339 167.494 41.6262 165.282 41.6214L97.5393 41.4755C95.9659 41.4721 94.5367 42.3914 93.8873 43.8244L90.7852 50.67C89.3953 53.7371 85.0689 53.8192 83.5637 50.807L79.9926 43.6607C79.3136 42.3019 77.9235 41.4449 76.4044 41.4488L8.08816 41.62C5.87511 41.6255 4.07812 39.833 4.07812 37.62V8.27149Z" fill="#866224" stroke="black" stroke-linecap="round"/>
  <path d="M1.37695 5C1.37695 2.79086 3.16781 1 5.37695 1H162.589C164.798 1 166.589 2.79086 166.589 5V34.3499C166.589 36.5624 164.793 38.3547 162.58 38.3499L93.5456 38.2012C92.7589 38.1995 92.0443 38.6591 91.7196 39.3757L86.3506 51.2237C85.6556 52.7573 83.4924 52.7984 82.7398 51.2923L76.7372 39.2801C76.3977 38.6007 75.7026 38.1723 74.9431 38.1742L5.38698 38.3485C3.17394 38.354 1.37695 36.5616 1.37695 34.3485V5Z" fill="#E9B965" stroke="black" stroke-linecap="round"/>
  <path d="M30.9348 27.2471C28.8708 27.2471 27.3668 26.9991 26.4228 26.5031C25.4788 26.0071 24.8708 25.2151 24.5988 24.1271C24.3268 23.0391 24.1908 21.3431 24.1908 19.0391C24.1908 16.7031 24.3188 14.9671 24.5748 13.8311C24.8468 12.6791 25.4468 11.8311 26.3748 11.2871C27.3188 10.7271 28.8148 10.4471 30.8628 10.4471C32.0948 10.4471 33.3508 10.7351 34.6308 11.3111C35.9108 11.8711 36.9908 12.7991 37.8708 14.0951C38.7508 15.3911 39.1908 17.0471 39.1908 19.0631C39.1908 20.9991 38.7428 22.5831 37.8468 23.8151C36.9508 25.0311 35.8708 25.9111 34.6068 26.4551C33.3428 26.9831 32.1188 27.2471 30.9348 27.2471ZM29.4468 23.0231C29.9588 23.0871 30.3268 23.1191 30.5508 23.1191C31.6868 23.1191 32.5668 22.8151 33.1908 22.2071C33.8148 21.5991 34.1268 20.7591 34.1268 19.6871C34.1268 18.7271 33.8228 17.9831 33.2148 17.4551C32.6068 16.9111 31.7508 16.6391 30.6468 16.6391C30.2308 16.6391 29.8308 16.6711 29.4468 16.7351V23.0231ZM44.1301 27.2951C43.0581 27.2951 42.1941 26.7751 41.5381 25.7351C40.8981 24.6791 40.5221 23.2551 40.4101 21.4631C40.3941 21.2071 40.3861 20.8311 40.3861 20.3351C40.3861 18.3991 40.7061 16.6871 41.3461 15.1991C41.9861 13.6951 42.8901 12.5351 44.0581 11.7191C45.2421 10.8871 46.6181 10.4711 48.1861 10.4711C49.7541 10.4711 51.1221 10.8871 52.2901 11.7191C53.4741 12.5351 54.3781 13.6871 55.0021 15.1751C55.6421 16.6631 55.9621 18.3831 55.9621 20.3351C55.9621 20.8311 55.9541 21.2071 55.9381 21.4631C55.8261 23.2871 55.4501 24.7111 54.8101 25.7351C54.1701 26.7591 53.3061 27.2711 52.2181 27.2711C51.3381 27.2711 50.7221 27.0311 50.3701 26.5511C50.0341 26.0711 49.8661 25.4871 49.8661 24.7991C49.8661 24.4791 49.8901 24.1991 49.9381 23.9591C49.1061 23.9911 48.3701 24.0071 47.7301 24.0071C47.3301 24.0071 46.8901 23.9911 46.4101 23.9591C46.4581 24.1991 46.4821 24.4791 46.4821 24.7991C46.4821 25.5031 46.3061 26.0951 45.9541 26.5751C45.6181 27.0551 45.0101 27.2951 44.1301 27.2951ZM46.2421 19.6871C47.1061 19.6551 47.7381 19.6391 48.1381 19.6391C48.5701 19.6391 49.2021 19.6551 50.0341 19.6871C50.0661 19.5111 50.0821 19.2471 50.0821 18.8951C50.0821 18.1431 49.9221 17.5351 49.6021 17.0711C49.2821 16.5911 48.7861 16.3511 48.1141 16.3511C47.4581 16.3511 46.9701 16.5831 46.6501 17.0471C46.3301 17.5111 46.1701 18.1111 46.1701 18.8471C46.1701 19.1191 46.1941 19.3991 46.2421 19.6871ZM59.6154 30.6791C58.8314 30.6791 58.2634 30.2791 57.9114 29.4791C57.5594 28.6951 57.3434 27.7991 57.2634 26.7911C57.1994 25.7831 57.1674 24.4551 57.1674 22.8071C57.1674 21.5431 57.2154 20.4311 57.3114 19.4711C57.4234 18.5111 57.6714 17.6791 58.0554 16.9751C58.4394 16.2711 59.0234 15.9191 59.8074 15.9191C60.6234 15.9191 61.2154 16.2391 61.5834 16.8791C61.9514 16.6071 62.4074 16.3911 62.9514 16.2311C63.5114 16.0551 64.0954 15.9671 64.7034 15.9671C65.7274 15.9671 66.6714 16.2231 67.5354 16.7351C68.3994 17.2471 69.0874 17.9351 69.5994 18.7991C70.1114 19.6631 70.3674 20.6071 70.3674 21.6311C70.3674 22.6551 70.1114 23.6071 69.5994 24.4871C69.0874 25.3511 68.3994 26.0391 67.5354 26.5511C66.6714 27.0631 65.7274 27.3191 64.7034 27.3191C64.0794 27.3191 63.4954 27.2391 62.9514 27.0791C62.4074 26.9031 61.9434 26.6711 61.5594 26.3831C61.5594 27.4071 61.5274 28.1991 61.4634 28.7591C61.3994 29.3191 61.2234 29.7751 60.9354 30.1271C60.6634 30.4951 60.2234 30.6791 59.6154 30.6791ZM64.5834 23.3351C64.9994 23.3351 65.3594 23.1831 65.6634 22.8791C65.9834 22.5591 66.1434 22.1911 66.1434 21.7751C66.1434 21.3591 65.9834 20.9991 65.6634 20.6951C65.3594 20.3751 64.9994 20.2151 64.5834 20.2151C64.1674 20.2151 63.7994 20.3751 63.4794 20.6951C63.1754 20.9991 63.0234 21.3591 63.0234 21.7751C63.0234 22.1911 63.1754 22.5591 63.4794 22.8791C63.7994 23.1831 64.1674 23.3351 64.5834 23.3351ZM73.5373 30.6791C72.7533 30.6791 72.1853 30.2791 71.8333 29.4791C71.4813 28.6951 71.2653 27.7991 71.1853 26.7911C71.1213 25.7831 71.0893 24.4551 71.0893 22.8071C71.0893 21.5431 71.1373 20.4311 71.2333 19.4711C71.3453 18.5111 71.5933 17.6791 71.9773 16.9751C72.3613 16.2711 72.9453 15.9191 73.7293 15.9191C74.5453 15.9191 75.1373 16.2391 75.5053 16.8791C75.8733 16.6071 76.3293 16.3911 76.8733 16.2311C77.4333 16.0551 78.0173 15.9671 78.6253 15.9671C79.6493 15.9671 80.5933 16.2231 81.4573 16.7351C82.3213 17.2471 83.0093 17.9351 83.5213 18.7991C84.0333 19.6631 84.2893 20.6071 84.2893 21.6311C84.2893 22.6551 84.0333 23.6071 83.5213 24.4871C83.0093 25.3511 82.3213 26.0391 81.4573 26.5511C80.5933 27.0631 79.6493 27.3191 78.6253 27.3191C78.0013 27.3191 77.4173 27.2391 76.8733 27.0791C76.3293 26.9031 75.8653 26.6711 75.4813 26.3831C75.4813 27.4071 75.4493 28.1991 75.3853 28.7591C75.3213 29.3191 75.1453 29.7751 74.8573 30.1271C74.5853 30.4951 74.1453 30.6791 73.5373 30.6791ZM78.5053 23.3351C78.9213 23.3351 79.2813 23.1831 79.5853 22.8791C79.9053 22.5591 80.0653 22.1911 80.0653 21.7751C80.0653 21.3591 79.9053 20.9991 79.5853 20.6951C79.2813 20.3751 78.9213 20.2151 78.5053 20.2151C78.0893 20.2151 77.7213 20.3751 77.4013 20.6951C77.0973 20.9991 76.9453 21.3591 76.9453 21.7751C76.9453 22.1911 77.0973 22.5591 77.4013 22.8791C77.7213 23.1831 78.0893 23.3351 78.5053 23.3351ZM109.643 14.0231C109.643 15.0791 109.203 15.8471 108.323 16.3271C107.459 16.7911 106.043 17.0711 104.075 17.1671C104.139 17.9351 104.171 18.9271 104.171 20.1431C104.171 21.8391 104.075 23.1991 103.883 24.2231C103.707 25.2311 103.395 25.9831 102.947 26.4791C102.499 26.9591 101.875 27.1991 101.075 27.1991C100.291 27.1991 99.6912 26.9431 99.2752 26.4311C98.8592 25.9191 98.5712 25.1591 98.4112 24.1511C98.2512 23.1431 98.1712 21.8071 98.1712 20.1431C98.1712 19.0231 98.1952 18.0311 98.2432 17.1671C96.9152 17.1031 95.8432 16.9671 95.0272 16.7591C94.2272 16.5351 93.6352 16.2071 93.2512 15.7751C92.8672 15.3431 92.6752 14.7591 92.6752 14.0231C92.6752 13.1271 92.9792 12.4231 93.5872 11.9111C94.1952 11.3991 95.1072 11.0391 96.3232 10.8311C97.5392 10.6231 99.1312 10.5191 101.099 10.5191C103.083 10.5191 104.691 10.6231 105.923 10.8311C107.155 11.0391 108.083 11.3991 108.707 11.9111C109.331 12.4231 109.643 13.1271 109.643 14.0231ZM111.251 27.2471C110.227 27.2471 109.539 26.6471 109.187 25.4471C108.851 24.2471 108.683 22.5911 108.683 20.4791C108.683 19.5191 108.723 18.7191 108.803 18.0791C108.899 17.4231 109.115 16.8711 109.451 16.4231C109.803 15.9591 110.339 15.7271 111.059 15.7271C111.507 15.7271 111.899 15.8311 112.235 16.0391C112.587 16.2471 112.811 16.5431 112.907 16.9271C113.259 16.6071 113.715 16.3671 114.275 16.2071C114.835 16.0471 115.435 15.9671 116.075 15.9671C116.587 15.9671 117.107 16.0951 117.635 16.3511C118.179 16.6071 118.627 16.9591 118.979 17.4071C119.347 17.8391 119.531 18.3111 119.531 18.8231C119.531 19.3351 119.347 19.7911 118.979 20.1911C118.627 20.5751 118.155 20.7671 117.563 20.7671C117.371 20.7671 117.187 20.7431 117.011 20.6951C116.851 20.6471 116.707 20.5991 116.579 20.5511C116.259 20.4231 116.003 20.3591 115.811 20.3591C115.187 20.3591 114.635 20.6071 114.155 21.1031C113.691 21.5831 113.459 22.2071 113.459 22.9751C113.459 23.8231 113.427 24.5271 113.363 25.0871C113.299 25.6471 113.107 26.1511 112.787 26.5991C112.467 27.0311 111.955 27.2471 111.251 27.2471ZM125.559 27.2471C124.375 27.2471 123.327 27.0151 122.415 26.5511C121.503 26.0871 120.791 25.4391 120.279 24.6071C119.783 23.7591 119.535 22.8071 119.535 21.7511C119.535 20.7111 119.783 19.7511 120.279 18.8711C120.791 17.9911 121.495 17.2871 122.391 16.7591C123.287 16.2311 124.303 15.9671 125.439 15.9671C126.463 15.9671 127.367 16.1751 128.151 16.5911C128.935 17.0071 129.535 17.5591 129.951 18.2471C130.367 18.9191 130.575 19.6231 130.575 20.3591C130.575 21.5591 130.119 22.4391 129.207 22.9991C128.311 23.5431 127.239 23.8151 125.991 23.8151C125.159 23.8151 124.455 23.7111 123.879 23.5031C124.359 24.2871 125.151 24.6791 126.255 24.6791C126.703 24.6791 127.183 24.6231 127.695 24.5111C127.887 24.4631 128.071 24.4391 128.247 24.4391C128.599 24.4391 128.879 24.5271 129.087 24.7031C129.311 24.8791 129.423 25.1191 129.423 25.4231C129.423 25.9191 129.119 26.3511 128.511 26.7191C127.903 27.0711 126.919 27.2471 125.559 27.2471ZM123.951 20.5751C124.095 20.7991 124.287 20.9671 124.527 21.0791C124.783 21.1751 125.063 21.2231 125.367 21.2231C125.719 21.2231 126.023 21.1431 126.279 20.9831C126.551 20.8231 126.687 20.6151 126.687 20.3591C126.687 20.0711 126.567 19.8231 126.327 19.6151C126.103 19.4071 125.775 19.3031 125.343 19.3031C124.911 19.3031 124.567 19.4391 124.311 19.7111C124.071 19.9671 123.951 20.2551 123.951 20.5751ZM137.324 27.2471C136.14 27.2471 135.092 27.0151 134.18 26.5511C133.268 26.0871 132.556 25.4391 132.044 24.6071C131.548 23.7591 131.3 22.8071 131.3 21.7511C131.3 20.7111 131.548 19.7511 132.044 18.8711C132.556 17.9911 133.26 17.2871 134.156 16.7591C135.052 16.2311 136.068 15.9671 137.204 15.9671C138.228 15.9671 139.132 16.1751 139.916 16.5911C140.7 17.0071 141.3 17.5591 141.716 18.2471C142.132 18.9191 142.34 19.6231 142.34 20.3591C142.34 21.5591 141.884 22.4391 140.972 22.9991C140.076 23.5431 139.004 23.8151 137.756 23.8151C136.924 23.8151 136.22 23.7111 135.644 23.5031C136.124 24.2871 136.916 24.6791 138.02 24.6791C138.468 24.6791 138.948 24.6231 139.46 24.5111C139.652 24.4631 139.836 24.4391 140.012 24.4391C140.364 24.4391 140.644 24.5271 140.852 24.7031C141.076 24.8791 141.188 25.1191 141.188 25.4231C141.188 25.9191 140.884 26.3511 140.276 26.7191C139.668 27.0711 138.684 27.2471 137.324 27.2471ZM135.716 20.5751C135.86 20.7991 136.052 20.9671 136.292 21.0791C136.548 21.1751 136.828 21.2231 137.132 21.2231C137.484 21.2231 137.788 21.1431 138.044 20.9831C138.316 20.8231 138.452 20.6151 138.452 20.3591C138.452 20.0711 138.332 19.8231 138.092 19.6151C137.868 19.4071 137.54 19.3031 137.108 19.3031C136.676 19.3031 136.332 19.4391 136.076 19.7111C135.836 19.9671 135.716 20.2551 135.716 20.5751Z" fill="black"/>
</svg>
