<svg width="170" height="59" viewBox="0 0 170 59" fill="none" xmlns="http://www.w3.org/2000/svg">
  <path d="M4.07812 8.27149C4.07812 6.06235 5.86899 4.27148 8.07812 4.27148H165.29C167.499 4.27148 169.29 6.06235 169.29 8.27148V37.6214C169.29 39.8339 167.494 41.6262 165.282 41.6214L97.5393 41.4755C95.9659 41.4721 94.5367 42.3914 93.8873 43.8244L90.7852 50.67C89.3953 53.7371 85.0689 53.8192 83.5637 50.807L79.9926 43.6607C79.3136 42.3019 77.9235 41.4449 76.4044 41.4488L8.08816 41.62C5.87511 41.6255 4.07812 39.833 4.07812 37.62V8.27149Z" fill="#866224" stroke="black" stroke-linecap="round"/>
  <path d="M1.37695 5C1.37695 2.79086 3.16781 1 5.37695 1H162.589C164.798 1 166.589 2.79086 166.589 5V34.3499C166.589 36.5624 164.793 38.3547 162.58 38.3499L93.5456 38.2012C92.7589 38.1995 92.0443 38.6591 91.7196 39.3757L86.3506 51.2237C85.6556 52.7573 83.4924 52.7984 82.7398 51.2923L76.7372 39.2801C76.3977 38.6007 75.7026 38.1723 74.9431 38.1742L5.38698 38.3485C3.17394 38.354 1.37695 36.5616 1.37695 34.3485V5Z" fill="#E9B965" stroke="black" stroke-linecap="round"/>
  <path d="M35.3522 27.2711C34.0402 27.2711 33.1442 26.5191 32.6642 25.0151C32.2002 23.5111 31.9682 21.5911 31.9682 19.2551C31.9682 17.7351 32.2402 16.3111 32.7842 14.9831C33.3442 13.6391 34.1922 12.5591 35.3282 11.7431C36.4642 10.9111 37.8482 10.4951 39.4802 10.4951C40.7922 10.4951 41.9842 10.7751 43.0562 11.3351C44.1282 11.8791 44.9762 12.6631 45.6002 13.6871C46.2402 14.7111 46.5602 15.8951 46.5602 17.2391C46.5602 18.7911 46.2482 20.0951 45.6242 21.1511C45.0002 22.2071 44.1922 22.9911 43.2002 23.5031C42.2082 24.0151 41.1602 24.2711 40.0562 24.2711C39.1602 24.2711 38.3362 24.1191 37.5842 23.8151C37.6802 24.3271 37.7282 24.7191 37.7282 24.9911C37.7282 26.5111 36.9362 27.2711 35.3522 27.2711ZM39.7202 20.5511C40.2962 20.5511 40.7922 20.3431 41.2082 19.9271C41.6402 19.4951 41.8562 18.9991 41.8562 18.4391C41.8562 17.8631 41.6402 17.3671 41.2082 16.9511C40.7922 16.5191 40.2962 16.3031 39.7202 16.3031C39.1602 16.3031 38.6642 16.5191 38.2322 16.9511C37.8002 17.3671 37.5842 17.8631 37.5842 18.4391C37.5842 18.9991 37.8002 19.4951 38.2322 19.9271C38.6642 20.3431 39.1602 20.5511 39.7202 20.5511ZM52.8041 27.2711C51.6521 27.2871 50.6201 27.0471 49.7081 26.5511C48.8121 26.0551 48.1081 25.3751 47.5961 24.5111C47.1001 23.6311 46.8361 22.6551 46.8041 21.5831C46.7881 20.5111 47.0361 19.5511 47.5481 18.7031C48.0601 17.8551 48.7721 17.1831 49.6841 16.6871C50.6121 16.1911 51.6521 15.9431 52.8041 15.9431C53.9241 15.9431 54.9321 16.1831 55.8281 16.6631C56.7401 17.1431 57.4601 17.8151 57.9881 18.6791C58.5161 19.5431 58.7961 20.5111 58.8281 21.5831C58.8441 22.6231 58.5961 23.5751 58.0841 24.4391C57.5721 25.2871 56.8521 25.9671 55.9241 26.4791C55.0121 26.9911 53.9721 27.2551 52.8041 27.2711ZM52.8761 23.7671C53.3081 23.7671 53.6841 23.5991 54.0041 23.2631C54.3241 22.9271 54.4841 22.5351 54.4841 22.0871C54.4841 21.6391 54.3241 21.2551 54.0041 20.9351C53.6841 20.5991 53.3081 20.4311 52.8761 20.4311C52.4441 20.4311 52.0681 20.5991 51.7481 20.9351C51.4281 21.2551 51.2681 21.6391 51.2681 22.0871C51.2681 22.5351 51.4281 22.9271 51.7481 23.2631C52.0681 23.5991 52.4441 23.7671 52.8761 23.7671ZM62.3565 27.2471C61.3325 27.2471 60.6445 26.6471 60.2925 25.4471C59.9565 24.2471 59.7885 22.5911 59.7885 20.4791C59.7885 19.5191 59.8285 18.7191 59.9085 18.0791C60.0045 17.4231 60.2205 16.8711 60.5565 16.4231C60.9085 15.9591 61.4445 15.7271 62.1645 15.7271C62.6125 15.7271 63.0045 15.8311 63.3405 16.0391C63.6925 16.2471 63.9165 16.5431 64.0125 16.9271C64.3645 16.6071 64.8205 16.3671 65.3805 16.2071C65.9405 16.0471 66.5405 15.9671 67.1805 15.9671C67.6925 15.9671 68.2125 16.0951 68.7405 16.3511C69.2845 16.6071 69.7325 16.9591 70.0845 17.4071C70.4525 17.8391 70.6365 18.3111 70.6365 18.8231C70.6365 19.3351 70.4525 19.7911 70.0845 20.1911C69.7325 20.5751 69.2605 20.7671 68.6685 20.7671C68.4765 20.7671 68.2925 20.7431 68.1165 20.6951C67.9565 20.6471 67.8125 20.5991 67.6845 20.5511C67.3645 20.4231 67.1085 20.3591 66.9165 20.3591C66.2925 20.3591 65.7405 20.6071 65.2605 21.1031C64.7965 21.5831 64.5645 22.2071 64.5645 22.9751C64.5645 23.8231 64.5325 24.5271 64.4685 25.0871C64.4045 25.6471 64.2125 26.1511 63.8925 26.5991C63.5725 27.0311 63.0605 27.2471 62.3565 27.2471ZM83.5474 16.8551C83.5474 17.6871 83.1554 18.2551 82.3714 18.5591C81.5874 18.8471 80.5154 18.9991 79.1554 19.0151C79.1394 19.4151 79.1314 20.0631 79.1314 20.9591C79.1314 21.8711 79.1954 22.5191 79.3234 22.9031C79.4034 23.1751 79.5234 23.3511 79.6834 23.4311C79.8594 23.5111 80.1154 23.5671 80.4514 23.5991C80.5634 23.6151 80.6834 23.6391 80.8114 23.6711C80.9554 23.6871 81.1154 23.7111 81.2914 23.7431C81.6594 23.8231 81.9474 24.0231 82.1554 24.3431C82.3634 24.6471 82.4674 25.0391 82.4674 25.5191C82.4674 26.0631 82.1874 26.4871 81.6274 26.7911C81.0674 27.0951 80.2994 27.2471 79.3234 27.2471C78.4274 27.2471 77.5714 26.9911 76.7554 26.4791C75.9394 25.9511 75.3794 25.2471 75.0754 24.3671C74.7554 23.4231 74.5954 21.6391 74.5954 19.0151C73.4754 18.9831 72.5714 18.8391 71.8834 18.5831C71.2114 18.3111 70.8754 17.8311 70.8754 17.1431C70.8754 16.2791 71.1954 15.7031 71.8354 15.4151C72.4754 15.1111 73.3954 14.9511 74.5954 14.9351C74.6434 13.6551 74.8434 12.5911 75.1954 11.7431C75.5474 10.8791 76.1794 10.4471 77.0914 10.4471C78.0194 10.4471 78.6194 10.8471 78.8914 11.6471C79.1794 12.4471 79.3074 13.5431 79.2754 14.9351C80.7314 14.9191 81.8034 15.0311 82.4914 15.2711C83.1954 15.5111 83.5474 16.0391 83.5474 16.8551ZM92.3094 17.6951C93.8774 17.7271 95.0054 17.8951 95.6934 18.1991C96.3974 18.5031 96.7494 19.0871 96.7494 19.9511C96.7494 20.7991 96.3894 21.3751 95.6694 21.6791C94.9654 21.9671 93.8614 22.1271 92.3574 22.1591L92.3814 24.0551C92.3974 24.3591 92.4054 24.7831 92.4054 25.3271C92.4054 26.0151 92.2134 26.5031 91.8294 26.7911C91.4454 27.0631 90.9974 27.1991 90.4854 27.1991C89.6054 27.1991 88.9654 26.7591 88.5654 25.8791C88.1654 24.9991 87.9174 23.7431 87.8214 22.1111C86.7814 22.0311 86.0054 21.8311 85.4934 21.5111C84.9974 21.1911 84.7494 20.6711 84.7494 19.9511C84.7494 19.2311 84.9974 18.7111 85.4934 18.3911C86.0054 18.0551 86.7814 17.8391 87.8214 17.7431C87.9174 16.1911 88.1494 14.8871 88.5174 13.8311C88.8854 12.7751 89.4854 11.9511 90.3174 11.3591C91.1494 10.7511 92.2694 10.4471 93.6774 10.4471C94.5574 10.4471 95.2854 10.6551 95.8614 11.0711C96.4534 11.4711 96.7494 12.0551 96.7494 12.8231C96.7494 13.6231 96.5014 14.2311 96.0054 14.6471C95.5254 15.0471 94.8614 15.3271 94.0134 15.4871C93.4534 15.5991 93.0454 15.8471 92.7894 16.2311C92.5334 16.5991 92.3734 17.0871 92.3094 17.6951ZM103.101 27.2711C101.949 27.2871 100.917 27.0471 100.005 26.5511C99.109 26.0551 98.405 25.3751 97.893 24.5111C97.397 23.6311 97.133 22.6551 97.101 21.5831C97.085 20.5111 97.333 19.5511 97.845 18.7031C98.357 17.8551 99.069 17.1831 99.981 16.6871C100.909 16.1911 101.949 15.9431 103.101 15.9431C104.221 15.9431 105.229 16.1831 106.125 16.6631C107.037 17.1431 107.757 17.8151 108.285 18.6791C108.813 19.5431 109.093 20.5111 109.125 21.5831C109.141 22.6231 108.893 23.5751 108.381 24.4391C107.869 25.2871 107.149 25.9671 106.221 26.4791C105.309 26.9911 104.269 27.2551 103.101 27.2711ZM103.173 23.7671C103.605 23.7671 103.981 23.5991 104.301 23.2631C104.621 22.9271 104.781 22.5351 104.781 22.0871C104.781 21.6391 104.621 21.2551 104.301 20.9351C103.981 20.5991 103.605 20.4311 103.173 20.4311C102.741 20.4311 102.365 20.5991 102.045 20.9351C101.725 21.2551 101.565 21.6391 101.565 22.0871C101.565 22.5351 101.725 22.9271 102.045 23.2631C102.365 23.5991 102.741 23.7671 103.173 23.7671ZM113.128 27.1991C112.328 27.1991 111.728 26.9031 111.328 26.3111C110.928 25.7191 110.656 24.8471 110.512 23.6951C110.384 22.5271 110.32 20.9031 110.32 18.8231C110.32 16.8231 110.368 15.2631 110.464 14.1431C110.576 13.0231 110.832 12.1271 111.232 11.4551C111.648 10.7831 112.288 10.4471 113.152 10.4471C114.016 10.4471 114.648 10.7831 115.048 11.4551C115.464 12.1271 115.72 13.0231 115.816 14.1431C115.928 15.2631 115.984 16.8231 115.984 18.8231C115.984 20.7911 115.896 22.3831 115.72 23.5991C115.56 24.7991 115.272 25.7031 114.856 26.3111C114.44 26.9031 113.864 27.1991 113.128 27.1991ZM119.995 15.6071C119.211 15.6071 118.547 15.3271 118.003 14.7671C117.459 14.1911 117.187 13.4951 117.187 12.6791C117.187 11.8791 117.459 11.1991 118.003 10.6391C118.547 10.0631 119.211 9.77507 119.995 9.77507C120.763 9.77507 121.419 10.0631 121.963 10.6391C122.523 11.1991 122.803 11.8791 122.803 12.6791C122.803 13.4951 122.523 14.1911 121.963 14.7671C121.419 15.3271 120.763 15.6071 119.995 15.6071ZM119.995 27.2471C119.339 27.2471 118.851 27.0631 118.531 26.6951C118.227 26.3111 118.019 25.7431 117.907 24.9911C117.811 24.2231 117.763 23.1351 117.763 21.7271C117.763 20.5431 117.819 19.6071 117.931 18.9191C118.059 18.2311 118.283 17.7191 118.603 17.3831C118.923 17.0471 119.387 16.8791 119.995 16.8791C120.651 16.8791 121.131 17.0711 121.435 17.4551C121.755 17.8231 121.963 18.3911 122.059 19.1591C122.171 19.9111 122.227 20.9911 122.227 22.3991C122.227 23.5831 122.163 24.5191 122.035 25.2071C121.923 25.8951 121.707 26.4071 121.387 26.7431C121.067 27.0791 120.603 27.2471 119.995 27.2471ZM129.538 27.2711C128.386 27.2871 127.354 27.0471 126.442 26.5511C125.546 26.0551 124.842 25.3751 124.33 24.5111C123.834 23.6311 123.57 22.6551 123.538 21.5831C123.522 20.5111 123.77 19.5511 124.282 18.7031C124.794 17.8551 125.506 17.1831 126.418 16.6871C127.346 16.1911 128.386 15.9431 129.538 15.9431C130.658 15.9431 131.666 16.1831 132.562 16.6631C133.474 17.1431 134.194 17.8151 134.722 18.6791C135.25 19.5431 135.53 20.5111 135.562 21.5831C135.578 22.6231 135.33 23.5751 134.818 24.4391C134.306 25.2871 133.586 25.9671 132.658 26.4791C131.746 26.9911 130.706 27.2551 129.538 27.2711ZM129.61 23.7671C130.042 23.7671 130.418 23.5991 130.738 23.2631C131.058 22.9271 131.218 22.5351 131.218 22.0871C131.218 21.6391 131.058 21.2551 130.738 20.9351C130.418 20.5991 130.042 20.4311 129.61 20.4311C129.178 20.4311 128.802 20.5991 128.482 20.9351C128.162 21.2551 128.002 21.6391 128.002 22.0871C128.002 22.5351 128.162 22.9271 128.482 23.2631C128.802 23.5991 129.178 23.7671 129.61 23.7671Z" fill="black"/>
</svg>
