<svg width="119" height="33" viewBox="0 0 119 33" fill="none" xmlns="http://www.w3.org/2000/svg">
<circle cx="15.6734" cy="16.5463" r="14.107" transform="rotate(2.12068 15.6734 16.5463)" fill="#FFBB46" stroke="#FFE2A8" stroke-width="2" stroke-linecap="round" stroke-linejoin="round"/>
<mask id="mask0_31202_6" style="mask-type:alpha" maskUnits="userSpaceOnUse" x="2" y="3" width="27" height="27">
<circle cx="15.6737" cy="16.5461" r="12.9488" transform="rotate(2.12068 15.6737 16.5461)" fill="#FFBB46"/>
</mask>
<g mask="url(#mask0_31202_6)">
<mask id="path-3-outside-1_31202_6" maskUnits="userSpaceOnUse" x="5.07658" y="4.83459" width="21.0964" height="30.7195" fill="black">
<rect fill="white" x="5.07658" y="4.83459" width="21.0964" height="30.7195"/>
<path fill-rule="evenodd" clip-rule="evenodd" d="M20.4335 9.29106C20.4139 9.81904 20.1836 10.2895 19.8265 10.6245C21.5028 12.1067 22.2169 14.397 22.4817 16.4517L22.5213 16.4767C22.92 16.7273 23.7908 17.2746 23.4566 18.7527C23.186 19.9494 21.9567 20.845 19.7514 21.1156C20.9124 22.1585 22.0714 24.3629 22.4119 25.315C23.1106 27.2684 22.4513 27.8588 21.2964 27.816C21.3917 27.4871 21.4212 27.1173 21.3983 26.7231C21.3018 25.0603 20.2722 22.9645 19.3068 21.6822L19.2487 21.165L19.2482 21.1651L19.3064 21.6825C20.2717 22.9648 21.3014 25.0606 21.3979 26.7234C21.4207 27.1176 21.3912 27.4874 21.2959 27.8163C21.1299 28.25 20.734 28.6745 20.734 28.6745L20.2439 31.4995C20.863 31.6994 21.005 33.0697 20.1869 33.0394L17.1552 32.9272C16.5296 32.904 16.3086 31.0646 16.3496 29.9578C16.3496 29.9578 15.7442 30.6906 15.4804 31.3073C16.286 31.6745 16.2409 32.8933 15.1822 32.8541C14.8344 32.8412 14.5955 32.8376 14.3531 32.8339C13.8576 32.8263 13.3476 32.8185 11.8635 32.7312C11.207 32.6926 10.9956 31.4343 10.941 30.2705C10.8026 30.3085 10.6561 30.3263 10.505 30.3207C9.7077 30.2912 9.08528 29.6209 9.1148 28.8235C9.11777 28.7435 9.1272 28.6651 9.14257 28.5891C8.37395 28.252 7.7622 27.5842 7.76137 26.4144C7.75965 23.9735 11.1282 21.3948 12.1492 21.081C12.2088 21.0627 12.2682 21.0479 12.3272 21.0362C12.3536 20.9694 12.3757 20.9112 12.393 20.8627C10.8844 20.6012 9.57172 20.0774 8.66075 18.9758C6.77721 16.6982 8.21708 14.0175 9.5776 11.8558C8.88271 11.4231 8.43265 10.6405 8.46512 9.76385C8.51334 8.46156 9.60815 7.44494 10.9104 7.49316C12.0132 7.534 12.9111 8.32525 13.1311 9.35746C13.9877 9.10418 14.9687 8.98344 16.0564 9.08187C16.237 9.0982 16.4127 9.11991 16.5837 9.14674C16.624 8.08449 17.5174 7.25553 18.5799 7.29487C19.643 7.33424 20.4729 8.22796 20.4335 9.29106Z"/>
</mask>
<path fill-rule="evenodd" clip-rule="evenodd" d="M20.4335 9.29106C20.4139 9.81904 20.1836 10.2895 19.8265 10.6245C21.5028 12.1067 22.2169 14.397 22.4817 16.4517L22.5213 16.4767C22.92 16.7273 23.7908 17.2746 23.4566 18.7527C23.186 19.9494 21.9567 20.845 19.7514 21.1156C20.9124 22.1585 22.0714 24.3629 22.4119 25.315C23.1106 27.2684 22.4513 27.8588 21.2964 27.816C21.3917 27.4871 21.4212 27.1173 21.3983 26.7231C21.3018 25.0603 20.2722 22.9645 19.3068 21.6822L19.2487 21.165L19.2482 21.1651L19.3064 21.6825C20.2717 22.9648 21.3014 25.0606 21.3979 26.7234C21.4207 27.1176 21.3912 27.4874 21.2959 27.8163C21.1299 28.25 20.734 28.6745 20.734 28.6745L20.2439 31.4995C20.863 31.6994 21.005 33.0697 20.1869 33.0394L17.1552 32.9272C16.5296 32.904 16.3086 31.0646 16.3496 29.9578C16.3496 29.9578 15.7442 30.6906 15.4804 31.3073C16.286 31.6745 16.2409 32.8933 15.1822 32.8541C14.8344 32.8412 14.5955 32.8376 14.3531 32.8339C13.8576 32.8263 13.3476 32.8185 11.8635 32.7312C11.207 32.6926 10.9956 31.4343 10.941 30.2705C10.8026 30.3085 10.6561 30.3263 10.505 30.3207C9.7077 30.2912 9.08528 29.6209 9.1148 28.8235C9.11777 28.7435 9.1272 28.6651 9.14257 28.5891C8.37395 28.252 7.7622 27.5842 7.76137 26.4144C7.75965 23.9735 11.1282 21.3948 12.1492 21.081C12.2088 21.0627 12.2682 21.0479 12.3272 21.0362C12.3536 20.9694 12.3757 20.9112 12.393 20.8627C10.8844 20.6012 9.57172 20.0774 8.66075 18.9758C6.77721 16.6982 8.21708 14.0175 9.5776 11.8558C8.88271 11.4231 8.43265 10.6405 8.46512 9.76385C8.51334 8.46156 9.60815 7.44494 10.9104 7.49316C12.0132 7.534 12.9111 8.32525 13.1311 9.35746C13.9877 9.10418 14.9687 8.98344 16.0564 9.08187C16.237 9.0982 16.4127 9.11991 16.5837 9.14674C16.624 8.08449 17.5174 7.25553 18.5799 7.29487C19.643 7.33424 20.4729 8.22796 20.4335 9.29106Z" fill="black"/>
<path d="M19.8265 10.6245L18.4581 9.16593L16.8567 10.6683L18.5017 12.1228L19.8265 10.6245ZM22.4817 16.4517L20.4981 16.7073L20.6184 17.6415L21.4153 18.1437L22.4817 16.4517ZM22.5213 16.4767L21.4549 18.1687L21.457 18.17L22.5213 16.4767ZM23.4566 18.7527L25.4074 19.1938L25.4074 19.1938L23.4566 18.7527ZM19.7514 21.1156L19.5079 19.1305L15.1446 19.6658L18.4149 22.6035L19.7514 21.1156ZM22.4119 25.315L20.5288 25.9886L20.5288 25.9886L22.4119 25.315ZM21.2964 27.816L19.3754 27.2595L18.6625 29.7198L21.2224 29.8146L21.2964 27.816ZM21.3983 26.7231L19.4017 26.839L19.4017 26.839L21.3983 26.7231ZM19.3068 21.6822L17.3193 21.9055L17.3803 22.4486L17.709 22.8851L19.3068 21.6822ZM19.2487 21.165L21.2362 20.9417L21.021 19.0264L19.099 19.1706L19.2487 21.165ZM19.2482 21.1651L19.0985 19.1707L17.029 19.326L17.2607 21.3884L19.2482 21.1651ZM19.3064 21.6825L17.3189 21.9058L17.3799 22.4488L17.7085 22.8854L19.3064 21.6825ZM21.3979 26.7234L19.4012 26.8393L21.3979 26.7234ZM21.2959 27.8163L23.1637 28.5313L23.1936 28.4531L23.2169 28.3728L21.2959 27.8163ZM20.734 28.6745L19.2713 27.3106L18.8653 27.746L18.7635 28.3326L20.734 28.6745ZM20.2439 31.4995L18.2734 31.1576L17.9764 32.8691L19.6294 33.4028L20.2439 31.4995ZM20.1869 33.0394L20.1129 35.0381L20.1869 33.0394ZM17.1552 32.9272L17.2292 30.9285L17.1552 32.9272ZM16.3496 29.9578L18.3482 30.0318L18.5666 24.134L14.8077 28.684L16.3496 29.9578ZM15.4804 31.3073L13.6415 30.5208L12.8732 32.3171L14.651 33.1272L15.4804 31.3073ZM14.3531 32.8339L14.3836 30.8341L14.3836 30.8341L14.3531 32.8339ZM11.8635 32.7312L11.981 30.7347L11.981 30.7347L11.8635 32.7312ZM10.941 30.2705L12.9388 30.1768L12.8218 27.6809L10.4121 28.3417L10.941 30.2705ZM9.14257 28.5891L11.1029 28.9852L11.4223 27.405L9.94587 26.7575L9.14257 28.5891ZM7.76137 26.4144L5.76137 26.4158L7.76137 26.4144ZM12.1492 21.081L11.5618 19.1692L11.5618 19.1692L12.1492 21.081ZM12.3272 21.0362L12.7137 22.9985L13.7855 22.7874L14.1871 21.7715L12.3272 21.0362ZM12.393 20.8627L14.277 21.534L15.0738 19.2976L12.7347 18.8921L12.393 20.8627ZM8.66075 18.9758L7.11949 20.2504L7.11949 20.2504L8.66075 18.9758ZM9.5776 11.8558L11.2703 12.9211L12.3408 11.2202L10.6347 10.158L9.5776 11.8558ZM13.1311 9.35746L11.175 9.77438L11.6256 11.8882L13.6982 11.2754L13.1311 9.35746ZM16.0564 9.08187L16.2367 7.09L16.2367 7.09L16.0564 9.08187ZM16.5837 9.14674L16.2738 11.1226L18.497 11.4713L18.5823 9.22254L16.5837 9.14674ZM21.1949 12.0831C21.9207 11.4023 22.3923 10.4406 22.4321 9.36506L18.4349 9.21705C18.4351 9.21062 18.4372 9.19956 18.4425 9.18819C18.4471 9.1781 18.4528 9.17096 18.4581 9.16593L21.1949 12.0831ZM24.4653 16.1962C24.1771 13.9596 23.3657 11.0841 21.1513 9.12623L18.5017 12.1228C19.6399 13.1292 20.2568 14.8344 20.4981 16.7073L24.4653 16.1962ZM23.5877 14.7847L23.5481 14.7597L21.4153 18.1437L21.4549 18.1687L23.5877 14.7847ZM25.4074 19.1938C25.6798 17.9888 25.4917 16.9257 24.9486 16.0766C24.4581 15.3099 23.7847 14.9085 23.5856 14.7834L21.457 18.17C21.5088 18.2026 21.5363 18.22 21.5625 18.2379C21.5864 18.2543 21.6 18.2648 21.6075 18.271C21.6225 18.2834 21.604 18.2712 21.5791 18.2322C21.5664 18.2124 21.5547 18.1898 21.5456 18.166C21.5363 18.1419 21.5325 18.124 21.5312 18.1158C21.5283 18.0965 21.5419 18.1521 21.5059 18.3116L25.4074 19.1938ZM19.995 23.1007C22.4965 22.7938 24.8537 21.6424 25.4074 19.1938L21.5059 18.3116C21.501 18.333 21.4808 18.4452 21.2275 18.6125C20.9451 18.7989 20.4101 19.0198 19.5079 19.1305L19.995 23.1007ZM24.2951 24.6415C24.069 24.0093 23.6293 23.1006 23.107 22.2248C22.5943 21.3652 21.892 20.35 21.0879 19.6277L18.4149 22.6035C18.7718 22.924 19.2295 23.5325 19.6716 24.2738C20.1042 24.999 20.4143 25.6686 20.5288 25.9886L24.2951 24.6415ZM21.2224 29.8146C22.0264 29.8444 23.4913 29.6901 24.2837 28.3099C24.9748 27.1061 24.6767 25.7084 24.2951 24.6415L20.5288 25.9886C20.6643 26.3676 20.6938 26.5734 20.6979 26.6474C20.7018 26.7179 20.6777 26.557 20.8148 26.3183C20.8837 26.1983 20.9763 26.09 21.0843 26.0027C21.1894 25.9178 21.2874 25.8702 21.355 25.8449C21.4737 25.8005 21.5032 25.8223 21.3704 25.8174L21.2224 29.8146ZM19.4017 26.839C19.4151 27.0706 19.3917 27.203 19.3754 27.2595L23.2174 28.3725C23.3916 27.7712 23.4273 27.164 23.395 26.6073L19.4017 26.839ZM17.709 22.8851C18.5489 24.0007 19.3369 25.7216 19.4017 26.839L23.395 26.6073C23.2668 24.3991 21.9955 21.9283 20.9047 20.4794L17.709 22.8851ZM17.2612 21.3883L17.3193 21.9055L21.2943 21.4589L21.2362 20.9417L17.2612 21.3883ZM19.3979 23.1595L19.3984 23.1594L19.099 19.1706L19.0985 19.1707L19.3979 23.1595ZM21.2939 21.4592L21.2357 20.9418L17.2607 21.3884L17.3189 21.9058L21.2939 21.4592ZM23.3945 26.6075C23.2664 24.3994 21.995 21.9286 20.9042 20.4796L17.7085 22.8854C18.5484 24.001 19.3364 25.7219 19.4012 26.8393L23.3945 26.6075ZM23.2169 28.3728C23.3911 27.7715 23.4268 27.1643 23.3945 26.6075L19.4012 26.8393C19.4147 27.0708 19.3912 27.2033 19.3749 27.2597L23.2169 28.3728ZM20.734 28.6745C22.1968 30.0385 22.197 30.0383 22.1972 30.038C22.1973 30.038 22.1975 30.0377 22.1976 30.0376C22.1979 30.0373 22.1982 30.037 22.1985 30.0367C22.1991 30.036 22.1997 30.0354 22.2003 30.0347C22.2016 30.0333 22.203 30.0318 22.2045 30.0302C22.2074 30.027 22.2108 30.0233 22.2145 30.0192C22.2221 30.011 22.2311 30.001 22.2416 29.9893C22.2625 29.9659 22.2893 29.9355 22.3205 29.8989C22.3823 29.8265 22.4648 29.7258 22.5553 29.6045C22.718 29.3867 22.9842 29.0004 23.1637 28.5313L19.4281 27.1013C19.4416 27.0659 19.4268 27.1088 19.3501 27.2116C19.3209 27.2506 19.2941 27.2832 19.2765 27.304C19.268 27.3139 19.2625 27.32 19.2611 27.3216C19.2605 27.3223 19.2609 27.3219 19.2625 27.3201C19.2633 27.3192 19.2645 27.3179 19.2659 27.3164C19.2666 27.3156 19.2674 27.3147 19.2683 27.3137C19.2688 27.3133 19.2693 27.3128 19.2698 27.3122C19.27 27.312 19.2702 27.3117 19.2705 27.3114C19.2706 27.3113 19.2708 27.3111 19.2709 27.311C19.2711 27.3108 19.2713 27.3106 20.734 28.6745ZM22.2145 31.8414L22.7046 29.0164L18.7635 28.3326L18.2734 31.1576L22.2145 31.8414ZM20.1129 35.0381C20.9596 35.0694 21.7507 34.7004 22.2488 34.0115C22.6777 33.4183 22.7671 32.7637 22.7535 32.2974C22.7393 31.8109 22.6098 31.3034 22.3554 30.8501C22.1073 30.4078 21.6374 29.8477 20.8584 29.5962L19.6294 33.4028C19.16 33.2512 18.94 32.9374 18.867 32.8073C18.7878 32.6662 18.7588 32.5368 18.7552 32.4142C18.7522 32.3117 18.7624 32.0065 19.0072 31.668C19.1403 31.4838 19.334 31.3066 19.5877 31.1854C19.8401 31.0649 20.0799 31.0341 20.2609 31.0408L20.1129 35.0381ZM17.0812 34.9258L20.1129 35.0381L20.2609 31.0408L17.2292 30.9285L17.0812 34.9258ZM14.3509 29.8838C14.3255 30.5699 14.3775 31.475 14.5465 32.2664C14.6279 32.6479 14.7641 33.1389 15.0145 33.5861C15.2207 33.9545 15.8447 34.88 17.0812 34.9258L17.2292 30.9285C17.6737 30.945 18.0121 31.1295 18.217 31.2997C18.4015 31.4529 18.4851 31.597 18.5047 31.632C18.539 31.6933 18.5052 31.6509 18.4583 31.4313C18.3706 31.0205 18.3326 30.4526 18.3482 30.0318L14.3509 29.8838ZM17.3192 32.0939C17.366 31.9844 17.4843 31.7856 17.6461 31.5571C17.7176 31.4562 17.7832 31.3695 17.83 31.3092C17.8532 31.2794 17.8711 31.2569 17.8821 31.2433C17.8875 31.2365 17.8912 31.232 17.8928 31.23C17.8936 31.229 17.894 31.2286 17.8937 31.2288C17.8936 31.229 17.8934 31.2293 17.893 31.2297C17.8928 31.23 17.8926 31.2302 17.8923 31.2306C17.8922 31.2307 17.8921 31.2309 17.8919 31.2311C17.8918 31.2312 17.8917 31.2313 17.8917 31.2313C17.8916 31.2315 17.8914 31.2316 16.3496 29.9578C14.8077 28.684 14.8075 28.6842 14.8074 28.6843C14.8074 28.6844 14.8072 28.6845 14.8071 28.6847C14.807 28.6849 14.8068 28.6851 14.8066 28.6854C14.8062 28.6859 14.8057 28.6864 14.8052 28.687C14.8043 28.6882 14.8031 28.6895 14.8019 28.691C14.7994 28.6941 14.7962 28.6979 14.7926 28.7024C14.7852 28.7115 14.7756 28.7233 14.764 28.7378C14.7408 28.7666 14.7093 28.8062 14.6716 28.8547C14.5967 28.9511 14.4945 29.0862 14.3817 29.2455C14.1748 29.5376 13.8585 30.0135 13.6415 30.5208L17.3192 32.0939ZM15.1081 34.8527C15.7636 34.877 16.4674 34.7074 17.052 34.2311C17.6329 33.7578 17.937 33.109 18.0151 32.4795C18.1659 31.2651 17.5064 30.0327 16.3098 29.4874L14.651 33.1272C14.2599 32.949 13.9807 32.5097 14.0456 31.9867C14.0808 31.7029 14.2255 31.3744 14.5254 31.1301C14.8289 30.8828 15.1301 30.8508 15.2562 30.8555L15.1081 34.8527ZM14.3226 34.8337C14.5623 34.8373 14.7832 34.8407 15.1081 34.8527L15.2562 30.8555C14.8856 30.8418 14.6286 30.8379 14.3836 30.8341L14.3226 34.8337ZM11.746 34.7278C13.2596 34.8168 13.7986 34.8257 14.3226 34.8337L14.3836 30.8341C13.9165 30.827 13.4355 30.8203 11.981 30.7347L11.746 34.7278ZM8.94322 30.3642C8.97271 30.9932 9.04778 31.7986 9.2635 32.5061C9.36988 32.855 9.55144 33.3213 9.88689 33.7417C10.251 34.198 10.8698 34.6762 11.746 34.7278L11.981 30.7347C12.2273 30.7492 12.4577 30.8243 12.6508 30.9378C12.8345 31.0457 12.9503 31.1676 13.0133 31.2466C13.1228 31.3837 13.125 31.4555 13.0896 31.3395C13.0608 31.2449 13.0272 31.0918 12.9982 30.8754C12.97 30.6646 12.9506 30.4272 12.9388 30.1768L8.94322 30.3642ZM10.431 32.3193C10.7878 32.3325 11.1376 32.2904 11.4699 32.1993L10.4121 28.3417C10.4676 28.3265 10.5243 28.32 10.579 28.3221L10.431 32.3193ZM7.11617 28.7495C7.04577 30.6507 8.52987 32.2489 10.431 32.3193L10.579 28.3221C10.8855 28.3334 11.1248 28.5911 11.1134 28.8976L7.11617 28.7495ZM7.1822 28.1929C7.14545 28.3747 7.12316 28.5608 7.11617 28.7495L11.1134 28.8976C11.1124 28.9261 11.1089 28.9556 11.1029 28.9852L7.1822 28.1929ZM5.76137 26.4158C5.76204 27.3665 6.01738 28.2361 6.52646 28.9622C7.02637 29.6752 7.69066 30.1362 8.33926 30.4207L9.94587 26.7575C9.88595 26.7312 9.8488 26.7071 9.82812 26.691C9.80881 26.6761 9.80279 26.6675 9.80163 26.6658C9.80123 26.6653 9.79421 26.6561 9.78563 26.6274C9.7766 26.5972 9.76145 26.5302 9.76137 26.413L5.76137 26.4158ZM11.5618 19.1692C10.9953 19.3433 10.3834 19.7139 9.87981 20.0691C9.32666 20.4593 8.71696 20.965 8.14356 21.55C7.09608 22.6185 5.75993 24.3679 5.76137 26.4158L9.76137 26.413C9.76109 26.02 10.1084 25.2596 11 24.3501C11.3961 23.946 11.8199 23.5957 12.1854 23.3378C12.6006 23.045 12.7926 22.9756 12.7366 22.9928L11.5618 19.1692ZM11.9406 19.0739C11.8141 19.0989 11.6876 19.1306 11.5618 19.1692L12.7366 22.9928C12.7299 22.9949 12.7223 22.9968 12.7137 22.9985L11.9406 19.0739ZM10.509 20.1914C10.5024 20.2102 10.4893 20.2452 10.4672 20.301L14.1871 21.7715C14.2179 21.6936 14.2491 21.6122 14.277 21.534L10.509 20.1914ZM7.11949 20.2504C8.46361 21.8758 10.3207 22.5333 12.0514 22.8333L12.7347 18.8921C11.4481 18.6691 10.6798 18.2791 10.202 17.7013L7.11949 20.2504ZM7.88495 10.7904C7.20422 11.872 6.33713 13.3284 5.95808 14.9047C5.55291 16.5897 5.68658 18.5177 7.11949 20.2504L10.202 17.7013C9.75138 17.1563 9.66322 16.6051 9.84722 15.8399C10.0574 14.966 10.5905 14.0012 11.2703 12.9211L7.88495 10.7904ZM10.6347 10.158C10.5237 10.0888 10.4589 9.96891 10.4637 9.83786L6.46649 9.68984C6.40642 11.3121 7.24173 12.7574 8.52051 13.5536L10.6347 10.158ZM10.4637 9.83786C10.4711 9.63938 10.638 9.48444 10.8364 9.49179L10.9844 5.49453C8.57834 5.40543 6.55558 7.28374 6.46649 9.68984L10.4637 9.83786ZM10.8364 9.49179C11.0018 9.49792 11.1414 9.61675 11.175 9.77438L15.0872 8.94053C14.6807 7.03374 13.0246 5.57008 10.9844 5.49453L10.8364 9.49179ZM16.2367 7.09C14.8908 6.96822 13.6563 7.11657 12.564 7.43954L13.6982 11.2754C14.319 11.0918 15.0467 10.9987 15.8762 11.0737L16.2367 7.09ZM16.8937 7.17089C16.6786 7.13716 16.4596 7.11018 16.2367 7.09L15.8762 11.0737C16.0144 11.0862 16.1468 11.1027 16.2738 11.1226L16.8937 7.17089ZM18.6539 5.29624C16.4882 5.21605 14.6673 6.90571 14.5852 9.07094L18.5823 9.22254C18.5808 9.26326 18.5466 9.29501 18.5059 9.2935L18.6539 5.29624ZM22.4321 9.36506C22.5124 7.19816 20.8208 5.37648 18.6539 5.29624L18.5059 9.2935C18.4651 9.292 18.4333 9.25777 18.4349 9.21705L22.4321 9.36506Z" fill="#D39924" mask="url(#path-3-outside-1_31202_6)"/>
<path d="M15.4592 18.4234C15.1237 18.4109 14.8642 18.2909 14.6807 18.0634C14.4975 17.8262 14.4121 17.5399 14.4245 17.2045C14.4444 16.6677 14.599 16.2511 14.8884 15.9547C14.9778 15.8716 15.1168 15.7471 15.3053 15.5814C15.4935 15.4252 15.6326 15.2959 15.7228 15.1937C15.813 15.0914 15.8602 14.9828 15.8644 14.8678C15.8712 14.6857 15.8424 14.555 15.7782 14.4759C15.7143 14.3871 15.6104 14.3401 15.4666 14.3348C15.3325 14.3298 15.2205 14.3736 15.1306 14.4663C15.0508 14.5497 15.0075 14.6825 15.0007 14.8646C14.9886 15.1905 14.8395 15.4585 14.5534 15.6687C14.2676 15.8693 13.9139 15.9618 13.4921 15.9461C13.0704 15.9305 12.7354 15.7741 12.4873 15.477C12.2491 15.1706 12.1397 14.7539 12.1592 14.2267C12.1756 13.7858 12.3405 13.3503 12.6539 12.9204C12.9674 12.4905 13.393 12.1415 13.9309 11.8735C14.4783 11.6058 15.0827 11.4842 15.7441 11.5087C16.415 11.5336 17.0091 11.6899 17.5264 11.9779C18.0436 12.2658 18.4377 12.6403 18.7086 13.1014C18.9798 13.553 19.1062 14.028 19.0877 14.5264C19.0689 15.0344 18.9573 15.4574 18.7528 15.7954C18.5582 16.1241 18.333 16.375 18.077 16.5478C17.831 16.7115 17.5321 16.878 17.1803 17.0473C16.9655 17.145 16.8187 17.2211 16.7399 17.2758C16.6614 17.3209 16.621 17.377 16.6185 17.4441C16.6089 17.7029 16.4996 17.934 16.2905 18.1374C16.0814 18.3408 15.8043 18.4361 15.4592 18.4234ZM15.4624 18.7258C15.0407 18.7102 14.6658 18.8547 14.3378 19.1593C14.0197 19.4547 13.8528 19.8132 13.8372 20.235C13.8216 20.6567 13.9613 21.0314 14.2563 21.3591C14.5613 21.6775 14.9246 21.8446 15.3464 21.8602C15.7681 21.8758 16.1428 21.7361 16.4705 21.4411C16.7985 21.1365 16.9703 20.7733 16.9859 20.3516C17.0016 19.9298 16.8569 19.5597 16.5519 19.2413C16.2473 18.9133 15.8842 18.7414 15.4624 18.7258Z" fill="#FFE0A2"/>
</g>
<path d="M40.4784 22.8466C38.4898 22.7304 37.0236 22.1609 36.0798 21.1381C35.148 20.1159 34.7393 18.5143 34.8536 16.3333C34.9572 14.356 35.5179 12.8293 36.5356 11.7531C37.5539 10.6649 38.9379 10.1666 40.6875 10.2583C41.766 10.3149 42.6983 10.5259 43.4842 10.8916C44.2701 11.2572 44.8631 11.7509 45.2631 12.3727C45.6631 12.9945 45.8418 13.7128 45.7991 14.5277C45.7652 15.1748 45.5912 15.7425 45.2772 16.2307C44.9752 16.7196 44.5382 17.1473 43.9663 17.5139C44.4059 17.609 44.7768 17.8688 45.079 18.2932C45.3932 18.7182 45.5362 19.2003 45.5079 19.7396C45.4778 20.3148 45.2934 20.8519 44.9548 21.3509C44.6289 21.8385 44.0919 22.2249 43.3439 22.5102C42.608 22.796 41.6528 22.9082 40.4784 22.8466ZM39.5895 16.0768C39.7995 16.196 40.0663 16.2641 40.3899 16.281C40.7734 16.3011 41.1076 16.2285 41.3927 16.0632C41.6903 15.8865 41.8489 15.6125 41.8684 15.241C41.8872 14.8815 41.7575 14.6043 41.4793 14.4095C41.2138 14.2033 40.8833 14.0898 40.4878 14.0691C40.1762 14.0528 39.9098 14.0929 39.6884 14.1894C39.5169 14.2525 39.3844 14.3718 39.2911 14.5471C39.1978 14.7225 39.1458 14.912 39.1352 15.1157C39.1245 15.3195 39.1564 15.5134 39.2308 15.6976C39.3059 15.8697 39.4255 15.9961 39.5895 16.0768ZM39.369 20.2831C39.5917 20.3909 39.8588 20.4529 40.1704 20.4693C40.5539 20.4894 40.8875 20.4287 41.1713 20.2874C41.4677 20.1347 41.6244 19.8966 41.6413 19.573C41.6577 19.2614 41.5264 19.0142 41.2476 18.8314C40.9688 18.6486 40.6376 18.5471 40.2542 18.527C39.9546 18.5113 39.6884 18.5454 39.4557 18.6293C39.2842 18.6924 39.1524 18.7997 39.0603 18.9511C38.9689 19.0905 38.9185 19.2501 38.9091 19.4298C38.8997 19.6096 38.9328 19.7795 39.0085 19.9397C39.0849 20.0879 39.205 20.2024 39.369 20.2831ZM50.4144 23.3854C49.5277 23.3389 48.7518 23.124 48.087 22.7407C47.4221 22.3574 46.9143 21.8441 46.5635 21.2009C46.2253 20.5463 46.0769 19.8235 46.1184 19.0326C46.1592 18.2537 46.3826 17.5444 46.7886 16.9048C47.2067 16.2658 47.7616 15.7661 48.4534 15.4058C49.1452 15.0455 49.9165 14.8877 50.7673 14.9323C51.5343 14.9725 52.2032 15.1637 52.7741 15.5061C53.3449 15.8484 53.7726 16.2854 54.0572 16.817C54.3424 17.3367 54.4706 17.8721 54.4417 18.4234C54.3946 19.3221 54.0185 19.9633 53.3134 20.3469C52.621 20.7192 51.8074 20.8809 50.8727 20.8319C50.2496 20.7992 49.7264 20.6937 49.3031 20.5153C49.6319 21.1213 50.2097 21.446 51.0365 21.4894C51.3721 21.5069 51.7338 21.4838 52.1216 21.42C52.2673 21.3916 52.4061 21.3809 52.5379 21.3878C52.8015 21.4016 53.0078 21.4785 53.1567 21.6185C53.3175 21.7591 53.392 21.9432 53.3801 22.1709C53.3606 22.5424 53.116 22.8541 52.6461 23.1058C52.1769 23.3456 51.4331 23.4388 50.4144 23.3854ZM49.472 18.3251C49.5711 18.4986 49.7083 18.6319 49.8836 18.7252C50.0716 18.8072 50.2794 18.8541 50.5071 18.866C50.7707 18.8799 51.0016 18.8319 51.1996 18.7221C51.4096 18.6129 51.5196 18.4625 51.5297 18.2707C51.541 18.055 51.4608 17.8646 51.2892 17.6994C51.1296 17.5348 50.888 17.444 50.5645 17.4271C50.2409 17.4101 49.9779 17.4985 49.7755 17.6922C49.5857 17.8745 49.4846 18.0855 49.472 18.3251ZM56.8137 23.7208C56.0467 23.6806 55.555 23.2042 55.3384 22.2916C55.1339 21.3796 55.0731 20.1327 55.156 18.5509C55.1936 17.8319 55.255 17.2343 55.34 16.7581C55.4377 16.2705 55.6211 15.8656 55.8904 15.5432C56.1722 15.2095 56.5828 15.0568 57.122 15.0851C57.4576 15.1027 57.7471 15.1959 57.9906 15.3649C58.2461 15.5345 58.4022 15.765 58.459 16.0564C58.7352 15.8305 59.0862 15.6687 59.5119 15.5708C59.9376 15.473 60.3901 15.4366 60.8695 15.4617C61.2529 15.4818 61.6374 15.5981 62.0228 15.8105C62.4202 16.0236 62.7419 16.3049 62.988 16.6542C63.2466 16.9922 63.3659 17.353 63.3458 17.7364C63.3257 18.1199 63.17 18.4542 62.8787 18.7394C62.6 19.0131 62.2389 19.1384 61.7955 19.1152C61.6517 19.1076 61.5149 19.0824 61.3849 19.0396C61.267 18.9974 61.161 18.9558 61.067 18.9148C60.8324 18.8063 60.6432 18.7484 60.4993 18.7408C60.032 18.7163 59.6088 18.8804 59.2298 19.2331C58.8635 19.5744 58.6652 20.0326 58.6351 20.6078C58.6018 21.2429 58.5502 21.769 58.4803 22.1859C58.4104 22.6028 58.2468 22.9727 57.9895 23.2957C57.7329 23.6067 57.3409 23.7484 56.8137 23.7208ZM66.6045 24.2339C65.6697 24.1849 64.9138 23.935 64.3366 23.4842C63.76 23.0213 63.4928 22.3885 63.5349 21.5856C63.5713 20.8905 63.9058 20.3553 64.5383 19.9799C65.1708 19.6045 65.9424 19.4407 66.8532 19.4884C67.1887 19.506 67.4987 19.5523 67.7832 19.6273C68.0802 19.6909 68.2808 19.7615 68.3849 19.839C68.4006 19.5394 68.2877 19.2872 68.0461 19.0823C67.8051 18.8654 67.4269 18.7434 66.9116 18.7164C66.684 18.7045 66.4973 18.7127 66.3516 18.7411C66.2059 18.7695 66.0473 18.8153 65.8758 18.8784C65.7042 18.9415 65.5456 18.9873 65.3999 19.0157C65.2662 19.0447 65.0855 19.0533 64.8578 19.0413C64.4744 19.0212 64.1798 18.9097 63.9741 18.7066C63.7691 18.4916 63.6773 18.1804 63.6986 17.7729C63.7231 17.3056 63.9116 16.9189 64.2641 16.6129C64.6286 16.3076 65.0726 16.0905 65.596 15.9618C66.1201 15.821 66.6398 15.7641 67.1551 15.7911C68.1737 15.8445 69.0145 16.0808 69.6774 16.5001C70.353 16.908 70.8362 17.432 71.1271 18.0721C71.43 18.7129 71.5617 19.4107 71.5221 20.1657C71.5008 20.5731 71.445 20.9487 71.3549 21.2925C71.2768 21.6368 71.1788 21.9021 71.0609 22.0882C71.2211 22.2408 71.3381 22.4151 71.412 22.6113C71.4978 22.808 71.5354 23.0083 71.5247 23.212C71.5065 23.5595 71.3709 23.8528 71.1181 24.0919C70.8772 24.3316 70.565 24.4414 70.1816 24.4213C69.894 24.4063 69.6625 24.3521 69.4871 24.2588C69.3118 24.1655 69.1269 24.0236 68.9326 23.8332C68.6236 23.9972 68.2872 24.1118 67.9233 24.1768C67.5713 24.2425 67.1317 24.2615 66.6045 24.2339ZM67.0591 22.4372C67.3108 22.4504 67.5113 22.4068 67.6608 22.3065C67.8222 22.2068 67.907 22.0791 67.9152 21.9233C67.9234 21.7675 67.8524 21.6316 67.7022 21.5156C67.5641 21.4002 67.3692 21.3359 67.1175 21.3227C66.8659 21.3095 66.6593 21.3528 66.4979 21.4525C66.3484 21.5528 66.2696 21.6809 66.2615 21.8366C66.2533 21.9924 66.3183 22.128 66.4564 22.2434C66.6066 22.3594 66.8075 22.424 67.0591 22.4372ZM76.4104 24.7298C75.6434 24.6896 74.9282 24.4658 74.2646 24.0585C73.6136 23.6399 73.1013 23.0963 72.7278 22.4279C72.3543 21.7594 72.1886 21.0237 72.2306 20.2208C72.2746 19.382 72.5106 18.6613 72.9388 18.0589C73.3795 17.4451 73.9382 16.9878 74.6149 16.6868C75.3035 16.3864 76.0313 16.2563 76.7983 16.2965C77.5293 16.3348 78.1808 16.5132 78.753 16.8315C79.3251 17.1499 79.7607 17.5513 80.0597 18.0356C80.3594 18.5079 80.4961 18.9957 80.4697 19.499C80.4477 19.9185 80.299 20.2351 80.0234 20.449C79.7598 20.6635 79.3763 20.7575 78.873 20.7312C78.6094 20.7173 78.4082 20.6587 78.2694 20.5553C78.1306 20.4519 77.9884 20.3003 77.8426 20.1004C77.7083 19.9131 77.5774 19.774 77.4499 19.6832C77.3351 19.5811 77.1639 19.5241 76.9362 19.5121C76.6126 19.4952 76.331 19.5946 76.0914 19.8103C75.8524 20.0141 75.7238 20.2897 75.7056 20.6373C75.6868 20.9968 75.7795 21.29 75.9839 21.517C76.2003 21.7447 76.4763 21.8673 76.8118 21.8849C77.0275 21.8962 77.1969 21.875 77.3198 21.8214C77.4428 21.7677 77.5797 21.6788 77.7304 21.5545C77.9057 21.4195 78.0668 21.3258 78.2138 21.2734C78.3613 21.209 78.5729 21.1841 78.8485 21.1985C79.3399 21.2243 79.7104 21.3759 79.9603 21.6533C80.2101 21.9308 80.3259 22.2433 80.3077 22.5908C80.2863 22.9982 80.1044 23.3732 79.7621 23.7158C79.4316 24.059 78.9732 24.3233 78.3867 24.5089C77.8001 24.6944 77.1414 24.7681 76.4104 24.7298ZM83.0968 16.3562C82.5096 16.3254 82.0232 16.0897 81.6378 15.6489C81.2529 15.1961 81.0765 14.6642 81.1086 14.053C81.14 13.4538 81.3704 12.9552 81.7998 12.5571C82.2299 12.1471 82.7385 11.9574 83.3257 11.9882C83.9009 12.0184 84.3809 12.2598 84.7657 12.7126C85.1632 13.154 85.3462 13.6743 85.3148 14.2734C85.2828 14.8846 85.0457 15.3949 84.6037 15.8043C84.1743 16.2024 83.672 16.3864 83.0968 16.3562ZM82.6399 25.0743C82.1485 25.0485 81.7903 24.8915 81.565 24.6034C81.3524 24.3038 81.2189 23.8702 81.1646 23.3026C81.1228 22.7236 81.1296 21.9069 81.1848 20.8523C81.2313 19.9655 81.31 19.2667 81.4209 18.7558C81.5438 18.2455 81.7316 17.8708 81.9845 17.6318C82.2373 17.3927 82.5915 17.285 83.0468 17.3089C83.5382 17.3347 83.8901 17.4973 84.1027 17.7968C84.328 18.085 84.4615 18.5186 84.5032 19.0976C84.5576 19.6652 84.5571 20.4763 84.5019 21.5308C84.4554 22.4176 84.3707 23.1162 84.2478 23.6264C84.137 24.1373 83.9551 24.5123 83.7022 24.7514C83.4494 24.9905 83.0952 25.0981 82.6399 25.0743ZM88.5295 25.3829C87.5947 25.3339 86.8388 25.084 86.2616 24.6332C85.685 24.1704 85.4178 23.5375 85.4598 22.7346C85.4963 22.0396 85.8307 21.5044 86.4633 21.1289C87.0958 20.7535 87.8674 20.5897 88.7782 20.6374C89.1137 20.655 89.4237 20.7013 89.7082 20.7763C90.0052 20.8399 90.2058 20.9105 90.3099 20.9881C90.3256 20.6885 90.2127 20.4362 89.971 20.2313C89.7301 20.0144 89.3519 19.8924 88.8366 19.8654C88.609 19.8535 88.4223 19.8617 88.2766 19.8902C88.1309 19.9186 87.9723 19.9643 87.8007 20.0274C87.6292 20.0905 87.4706 20.1363 87.3249 20.1647C87.1912 20.1938 87.0105 20.2023 86.7828 20.1904C86.3993 20.1703 86.1048 20.0587 85.8991 19.8557C85.6941 19.6407 85.6023 19.3294 85.6236 18.922C85.6481 18.4546 85.8366 18.068 86.1891 17.762C86.5536 17.4566 86.9975 17.2396 87.521 17.1108C88.0451 16.97 88.5648 16.9132 89.0801 16.9402C90.0987 16.9935 90.9395 17.2299 91.6024 17.6491C92.278 18.0571 92.7612 18.5811 93.0521 19.2212C93.355 19.8619 93.4867 20.5597 93.4471 21.3147C93.4258 21.7222 93.37 22.0977 93.2799 22.4415C93.2018 22.7859 93.1038 23.0511 92.9859 23.2372C93.1461 23.3898 93.2631 23.5642 93.337 23.7603C93.4228 23.9571 93.4604 24.1573 93.4497 24.361C93.4315 24.7085 93.2959 25.0019 93.0431 25.2409C92.8022 25.4807 92.49 25.5905 92.1065 25.5704C91.8189 25.5553 91.5875 25.5011 91.4121 25.4078C91.2367 25.3145 91.0519 25.1726 90.8576 24.9822C90.5486 25.1463 90.2122 25.2608 89.8482 25.3259C89.4963 25.3915 89.0567 25.4105 88.5295 25.3829ZM88.9841 23.5862C89.2358 23.5994 89.4363 23.5559 89.5858 23.4556C89.7472 23.3559 89.832 23.2281 89.8402 23.0723C89.8483 22.9166 89.7774 22.7807 89.6272 22.6646C89.4891 22.5493 89.2942 22.485 89.0425 22.4718C88.7909 22.4586 88.5843 22.5018 88.4229 22.6015C88.2734 22.7018 88.1946 22.8299 88.1864 22.9857C88.1783 23.1415 88.2433 23.2771 88.3814 23.3924C88.5316 23.5085 88.7325 23.5731 88.9841 23.5862ZM97.688 28.9451C96.993 28.9087 96.4307 28.747 96.0011 28.4602C95.5709 28.1853 95.3674 27.8261 95.3906 27.3827C95.4114 26.9873 95.5781 26.6716 95.8909 26.4356C96.215 26.2123 96.6108 26.1129 97.0781 26.1374C97.162 26.1417 97.2992 26.161 97.4897 26.195C97.7275 26.2435 97.9482 26.2731 98.1519 26.2838C98.6672 26.3108 99.1153 26.2441 99.4962 26.0838C99.8885 25.9362 100.134 25.7207 100.233 25.4375C100.036 25.5353 99.7613 25.6111 99.4101 25.6647C99.0588 25.7184 98.6854 25.7349 98.2899 25.7142C97.2713 25.6608 96.4428 25.4191 95.8045 24.9891C95.1781 24.5597 94.7362 24.0499 94.4787 23.4596C94.2219 22.8574 94.1082 22.2746 94.1377 21.7114C94.1867 20.7767 94.4328 19.9785 94.8761 19.3168C95.3313 18.6557 95.8979 18.1627 96.5758 17.8377C97.2537 17.5127 97.9522 17.3691 98.6712 17.4068C98.9109 17.4193 99.1856 17.4517 99.4953 17.504C99.8169 17.5569 100.084 17.613 100.298 17.6722C100.41 17.3537 100.585 17.1105 100.822 16.9427C101.072 16.7755 101.43 16.7042 101.897 16.7287C102.676 16.7695 103.214 17.2843 103.511 18.2732C103.819 19.2627 103.936 20.4705 103.861 21.8965C103.826 22.5676 103.757 23.2009 103.654 23.7963C103.385 25.4765 102.722 26.7756 101.665 27.6935C100.607 28.6115 99.2818 29.0286 97.688 28.9451ZM98.6649 23.0301C99.0364 23.0496 99.3669 22.9347 99.6563 22.6856C99.9464 22.4244 100.101 22.108 100.121 21.7366C100.14 21.3651 100.019 21.0343 99.7581 20.7442C99.4969 20.4542 99.1805 20.2994 98.8091 20.2799C98.4376 20.2604 98.1068 20.3813 97.8167 20.6425C97.5386 20.9043 97.3899 21.2209 97.3704 21.5924C97.3509 21.9639 97.4658 22.2944 97.715 22.5838C97.9768 22.8619 98.2934 23.0107 98.6649 23.0301ZM107.576 26.3811C106.641 26.3321 105.885 26.0822 105.308 25.6314C104.731 25.1686 104.464 24.5357 104.506 23.7328C104.542 23.0378 104.877 22.5025 105.509 22.1271C106.142 21.7517 106.914 21.5879 107.824 21.6356C108.16 21.6532 108.47 21.6995 108.754 21.7745C109.051 21.8381 109.252 21.9087 109.356 21.9862C109.372 21.6866 109.259 21.4344 109.017 21.2295C108.776 21.0126 108.398 20.8906 107.883 20.8636C107.655 20.8517 107.468 20.8599 107.323 20.8883C107.177 20.9167 107.018 20.9625 106.847 21.0256C106.675 21.0887 106.517 21.1345 106.371 21.1629C106.237 21.1919 106.057 21.2005 105.829 21.1886C105.445 21.1685 105.151 21.0569 104.945 20.8538C104.74 20.6388 104.648 20.3276 104.67 19.9201C104.694 19.4528 104.883 19.0661 105.235 18.7602C105.6 18.4548 106.044 18.2377 106.567 18.109C107.091 17.9682 107.611 17.9113 108.126 17.9383C109.145 17.9917 109.986 18.228 110.649 18.6473C111.324 19.0552 111.807 19.5792 112.098 20.2193C112.401 20.8601 112.533 21.5579 112.493 22.3129C112.472 22.7203 112.416 23.0959 112.326 23.4397C112.248 23.7841 112.15 24.0493 112.032 24.2354C112.192 24.388 112.309 24.5623 112.383 24.7585C112.469 24.9552 112.506 25.1555 112.496 25.3592C112.478 25.7067 112.342 26 112.089 26.2391C111.848 26.4788 111.536 26.5886 111.153 26.5685C110.865 26.5535 110.634 26.4993 110.458 26.406C110.283 26.3127 110.098 26.1708 109.904 25.9804C109.595 26.1444 109.258 26.259 108.894 26.324C108.542 26.3897 108.103 26.4087 107.576 26.3811ZM108.03 24.5844C108.282 24.5976 108.482 24.554 108.632 24.4537C108.793 24.354 108.878 24.2263 108.886 24.0705C108.894 23.9147 108.823 23.7788 108.673 23.6628C108.535 23.5474 108.34 23.4831 108.089 23.4699C107.837 23.4568 107.63 23.5 107.469 23.5997C107.32 23.7 107.241 23.8281 107.233 23.9838C107.224 24.1396 107.289 24.2752 107.428 24.3906C107.578 24.5066 107.779 24.5712 108.03 24.5844Z" fill="black"/>
</svg>
