<svg width="170" height="72" viewBox="0 0 170 72" fill="none" xmlns="http://www.w3.org/2000/svg">
  <path d="M3.70117 8.5C3.70117 6.29086 5.49203 4.5 7.70117 4.5H86.3072H164.913C167.122 4.5 168.913 6.29086 168.913 8.5V50.6214C168.913 52.8339 167.117 54.6262 164.905 54.6214L97.1623 54.4755C95.589 54.4721 94.1597 55.3914 93.5103 56.8244L90.4082 63.67C89.0183 66.7371 84.692 66.8192 83.1867 63.807L79.6156 56.6607C78.9366 55.3019 77.5465 54.4449 76.0275 54.4488L7.7112 54.62C5.49815 54.6255 3.70117 52.833 3.70117 50.62L3.70117 8.5Z" fill="#866224" stroke="black" stroke-linecap="round"/>
  <path d="M1 5C1 2.79086 2.79086 1 5 1H83.6061H162.212C164.421 1 166.212 2.79086 166.212 5V47.3499C166.212 49.5624 164.416 51.3547 162.203 51.3499L93.1686 51.2012C92.3819 51.1995 91.6673 51.6591 91.3426 52.3757L85.9736 64.2237C85.2787 65.7573 83.1155 65.7984 82.3629 64.2923L76.3602 52.2801C76.0207 51.6007 75.3257 51.1723 74.5662 51.1742L5.01003 51.3485C2.79698 51.354 1 49.5616 1 47.3485V5Z" fill="#E9B965" stroke="black" stroke-linecap="round"/>
  <path d="M68.7975 9.776C68.7975 10.832 68.3575 11.6 67.4775 12.08C66.6135 12.544 65.1975 12.824 63.2295 12.92C63.2935 13.688 63.3255 14.68 63.3255 15.896C63.3255 17.592 63.2295 18.952 63.0375 19.976C62.8615 20.984 62.5495 21.736 62.1015 22.232C61.6535 22.712 61.0295 22.952 60.2295 22.952C59.4455 22.952 58.8455 22.696 58.4295 22.184C58.0135 21.672 57.7255 20.912 57.5655 19.904C57.4055 18.896 57.3255 17.56 57.3255 15.896C57.3255 14.776 57.3495 13.784 57.3975 12.92C56.0695 12.856 54.9975 12.72 54.1815 12.512C53.3815 12.288 52.7895 11.96 52.4055 11.528C52.0215 11.096 51.8295 10.512 51.8295 9.776C51.8295 8.88 52.1335 8.176 52.7415 7.664C53.3495 7.152 54.2615 6.792 55.4775 6.584C56.6935 6.376 58.2855 6.272 60.2535 6.272C62.2375 6.272 63.8455 6.376 65.0775 6.584C66.3095 6.792 67.2375 7.152 67.8615 7.664C68.4855 8.176 68.7975 8.88 68.7975 9.776ZM72.3842 23.024C71.2322 23.04 70.2002 22.8 69.2882 22.304C68.3922 21.808 67.6882 21.128 67.1762 20.264C66.6802 19.384 66.4162 18.408 66.3842 17.336C66.3682 16.264 66.6162 15.304 67.1282 14.456C67.6402 13.608 68.3522 12.936 69.2642 12.44C70.1922 11.944 71.2322 11.696 72.3842 11.696C73.5042 11.696 74.5122 11.936 75.4082 12.416C76.3202 12.896 77.0402 13.568 77.5682 14.432C78.0962 15.296 78.3762 16.264 78.4082 17.336C78.4242 18.376 78.1762 19.328 77.6642 20.192C77.1522 21.04 76.4322 21.72 75.5042 22.232C74.5922 22.744 73.5522 23.008 72.3842 23.024ZM72.4562 19.52C72.8882 19.52 73.2642 19.352 73.5842 19.016C73.9042 18.68 74.0642 18.288 74.0642 17.84C74.0642 17.392 73.9042 17.008 73.5842 16.688C73.2642 16.352 72.8882 16.184 72.4562 16.184C72.0242 16.184 71.6482 16.352 71.3282 16.688C71.0082 17.008 70.8482 17.392 70.8482 17.84C70.8482 18.288 71.0082 18.68 71.3282 19.016C71.6482 19.352 72.0242 19.52 72.4562 19.52ZM88.6142 17.048C88.8542 17.352 89.2382 17.92 89.7662 18.752C90.3902 19.744 90.7022 20.584 90.7022 21.272C90.7022 21.832 90.5182 22.256 90.1502 22.544C89.7822 22.816 89.3502 22.952 88.8542 22.952C88.3902 22.952 87.9182 22.76 87.4382 22.376C86.9742 21.992 86.4862 21.472 85.9742 20.816C85.4302 20.096 85.0702 19.584 84.8942 19.28C84.6862 19.36 84.4542 19.44 84.1982 19.52C84.0862 20.72 83.8622 21.592 83.5262 22.136C83.1902 22.68 82.6782 22.952 81.9902 22.952C81.2862 22.952 80.7262 22.664 80.3102 22.088C79.8942 21.512 79.5902 20.616 79.3982 19.4C79.2222 18.184 79.1342 16.576 79.1342 14.576C79.1342 12.672 79.1902 11.144 79.3022 9.992C79.4302 8.824 79.7022 7.904 80.1182 7.232C80.5342 6.544 81.1582 6.2 81.9902 6.2C82.6782 6.2 83.1902 6.44 83.5262 6.92C83.8782 7.4 84.1022 8.064 84.1982 8.912C84.3102 9.744 84.3662 10.864 84.3662 12.272V13.784L84.4382 13.736C85.3662 13.112 86.1822 12.624 86.8862 12.272C87.6062 11.92 88.2542 11.744 88.8302 11.744C89.4862 11.744 89.9982 11.968 90.3662 12.416C90.7502 12.848 90.9422 13.336 90.9422 13.88C90.9422 14.456 90.7502 14.984 90.3662 15.464C89.9822 15.944 89.3982 16.472 88.6142 17.048ZM97.4394 23C96.2554 23 95.2074 22.768 94.2954 22.304C93.3834 21.84 92.6714 21.192 92.1594 20.36C91.6634 19.512 91.4154 18.56 91.4154 17.504C91.4154 16.464 91.6634 15.504 92.1594 14.624C92.6714 13.744 93.3754 13.04 94.2714 12.512C95.1674 11.984 96.1834 11.72 97.3194 11.72C98.3434 11.72 99.2474 11.928 100.031 12.344C100.815 12.76 101.415 13.312 101.831 14C102.247 14.672 102.455 15.376 102.455 16.112C102.455 17.312 101.999 18.192 101.087 18.752C100.191 19.296 99.1194 19.568 97.8714 19.568C97.0394 19.568 96.3354 19.464 95.7594 19.256C96.2394 20.04 97.0314 20.432 98.1354 20.432C98.5834 20.432 99.0634 20.376 99.5754 20.264C99.7674 20.216 99.9514 20.192 100.127 20.192C100.479 20.192 100.759 20.28 100.967 20.456C101.191 20.632 101.303 20.872 101.303 21.176C101.303 21.672 100.999 22.104 100.391 22.472C99.7834 22.824 98.7994 23 97.4394 23ZM95.8314 16.328C95.9754 16.552 96.1674 16.72 96.4074 16.832C96.6634 16.928 96.9434 16.976 97.2474 16.976C97.5994 16.976 97.9034 16.896 98.1594 16.736C98.4314 16.576 98.5674 16.368 98.5674 16.112C98.5674 15.824 98.4474 15.576 98.2074 15.368C97.9834 15.16 97.6554 15.056 97.2234 15.056C96.7914 15.056 96.4474 15.192 96.1914 15.464C95.9514 15.72 95.8314 16.008 95.8314 16.328ZM112.661 23C112.085 23 111.653 22.84 111.365 22.52C111.093 22.2 110.925 21.808 110.861 21.344C110.797 20.88 110.765 20.28 110.765 19.544C110.765 18.6 110.637 17.872 110.381 17.36C110.125 16.848 109.709 16.592 109.133 16.592C108.605 16.592 108.205 16.848 107.933 17.36C107.677 17.856 107.549 18.544 107.549 19.424C107.549 20.272 107.525 20.912 107.477 21.344C107.429 21.776 107.269 22.16 106.997 22.496C106.725 22.816 106.277 22.976 105.653 22.976C104.741 22.976 104.101 22.392 103.733 21.224C103.365 20.04 103.181 18.656 103.181 17.072C103.181 13.232 103.989 11.312 105.605 11.312C106.053 11.312 106.421 11.424 106.709 11.648C106.997 11.856 107.197 12.16 107.309 12.56C107.517 12.336 107.837 12.136 108.269 11.96C108.717 11.784 109.189 11.696 109.685 11.696C111.445 11.696 112.757 12.336 113.621 13.616C114.501 14.896 114.941 16.632 114.941 18.824C114.941 20.12 114.773 21.144 114.437 21.896C114.101 22.632 113.509 23 112.661 23ZM25.7855 45C25.2415 45 24.7855 44.864 24.4175 44.592C24.0655 44.304 23.8175 43.92 23.6735 43.44C23.5455 42.992 23.4655 42.504 23.4335 41.976C23.4175 41.448 23.4095 40.704 23.4095 39.744C23.4095 38.848 23.3695 38.184 23.2895 37.752C23.2255 37.32 23.0575 37.104 22.7855 37.104C22.4655 37.104 22.2415 37.248 22.1135 37.536C21.9855 37.808 21.9215 38.2 21.9215 38.712C21.9215 39.176 21.9855 39.904 22.1135 40.896C22.1295 41.088 22.1615 41.392 22.2095 41.808C22.2575 42.224 22.2815 42.568 22.2815 42.84C22.2815 43.608 22.1055 44.152 21.7535 44.472C21.4175 44.792 20.9215 44.952 20.2655 44.952C19.4815 44.952 18.8015 44.528 18.2255 43.68C17.6495 42.832 17.2175 41.776 16.9295 40.512C16.6415 39.232 16.4975 37.976 16.4975 36.744C16.4975 35.272 16.7055 33.904 17.1215 32.64C17.5535 31.376 18.1935 30.36 19.0415 29.592C19.9055 28.824 20.9455 28.44 22.1615 28.44C23.1855 28.44 24.0015 28.76 24.6095 29.4C25.2175 30.024 25.6255 30.784 25.8335 31.68C26.0095 30.8 26.4015 30.04 27.0095 29.4C27.6335 28.76 28.4495 28.44 29.4575 28.44C30.6575 28.44 31.6815 28.816 32.5295 29.568C33.3935 30.304 34.0495 31.336 34.4975 32.664C34.9615 33.992 35.1935 35.528 35.1935 37.272C35.1935 38.408 35.0335 39.584 34.7135 40.8C34.3935 42 33.9455 43 33.3695 43.8C32.7935 44.6 32.1375 45 31.4015 45C30.7295 45 30.2175 44.832 29.8655 44.496C29.5135 44.16 29.3375 43.608 29.3375 42.84C29.3375 42.488 29.4015 41.832 29.5295 40.872C29.6575 39.848 29.7215 39.112 29.7215 38.664C29.7215 37.624 29.4415 37.104 28.8815 37.104C28.5935 37.104 28.4095 37.336 28.3295 37.8C28.2655 38.264 28.2255 39.016 28.2095 40.056C28.2095 40.84 28.1935 41.496 28.1615 42.024C28.1295 42.536 28.0575 43.008 27.9455 43.44C27.8175 43.904 27.5615 44.28 27.1775 44.568C26.8095 44.856 26.3455 45 25.7855 45ZM40.2471 45C38.9991 45 37.9751 44.72 37.1751 44.16C36.3751 43.584 35.9751 42.76 35.9751 41.688C35.9751 40.76 36.3831 40.024 37.1991 39.48C38.0151 38.936 39.0311 38.664 40.2471 38.664C40.6951 38.664 41.1111 38.704 41.4951 38.784C41.8951 38.848 42.1671 38.928 42.3111 39.024C42.3111 38.624 42.1431 38.296 41.8071 38.04C41.4711 37.768 40.9591 37.632 40.2711 37.632C39.9671 37.632 39.7191 37.656 39.5271 37.704C39.3351 37.752 39.1271 37.824 38.9031 37.92C38.6791 38.016 38.4711 38.088 38.2791 38.136C38.1031 38.184 37.8631 38.208 37.5591 38.208C37.0471 38.208 36.6471 38.08 36.3591 37.824C36.0711 37.552 35.9271 37.144 35.9271 36.6C35.9271 35.976 36.1511 35.448 36.5991 35.016C37.0631 34.584 37.6391 34.264 38.3271 34.056C39.0151 33.832 39.7031 33.72 40.3911 33.72C41.7511 33.72 42.8871 33.976 43.7991 34.488C44.7271 34.984 45.4071 35.648 45.8391 36.48C46.2871 37.312 46.5111 38.232 46.5111 39.24C46.5111 39.784 46.4631 40.288 46.3671 40.752C46.2871 41.216 46.1751 41.576 46.0311 41.832C46.2551 42.024 46.4231 42.248 46.5351 42.504C46.6631 42.76 46.7271 43.024 46.7271 43.296C46.7271 43.76 46.5671 44.16 46.2471 44.496C45.9431 44.832 45.5351 45 45.0231 45C44.6391 45 44.3271 44.944 44.0871 44.832C43.8471 44.72 43.5911 44.544 43.3191 44.304C42.9191 44.544 42.4791 44.72 41.9991 44.832C41.5351 44.944 40.9511 45 40.2471 45ZM40.7271 42.576C41.0631 42.576 41.3271 42.504 41.5191 42.36C41.7271 42.216 41.8311 42.04 41.8311 41.832C41.8311 41.624 41.7271 41.448 41.5191 41.304C41.3271 41.16 41.0631 41.088 40.7271 41.088C40.3911 41.088 40.1191 41.16 39.9111 41.304C39.7191 41.448 39.6231 41.624 39.6231 41.832C39.6231 42.04 39.7191 42.216 39.9111 42.36C40.1191 42.504 40.3911 42.576 40.7271 42.576ZM50.2608 45C49.2368 45 48.5488 44.4 48.1968 43.2C47.8608 42 47.6928 40.344 47.6928 38.232C47.6928 37.272 47.7328 36.472 47.8128 35.832C47.9088 35.176 48.1248 34.624 48.4608 34.176C48.8128 33.712 49.3488 33.48 50.0688 33.48C50.5168 33.48 50.9088 33.584 51.2448 33.792C51.5968 34 51.8208 34.296 51.9168 34.68C52.2688 34.36 52.7248 34.12 53.2848 33.96C53.8448 33.8 54.4448 33.72 55.0848 33.72C55.5968 33.72 56.1168 33.848 56.6448 34.104C57.1888 34.36 57.6368 34.712 57.9888 35.16C58.3568 35.592 58.5408 36.064 58.5408 36.576C58.5408 37.088 58.3568 37.544 57.9888 37.944C57.6368 38.328 57.1648 38.52 56.5728 38.52C56.3808 38.52 56.1968 38.496 56.0208 38.448C55.8608 38.4 55.7168 38.352 55.5888 38.304C55.2688 38.176 55.0128 38.112 54.8208 38.112C54.1968 38.112 53.6448 38.36 53.1648 38.856C52.7008 39.336 52.4688 39.96 52.4688 40.728C52.4688 41.576 52.4368 42.28 52.3728 42.84C52.3088 43.4 52.1168 43.904 51.7968 44.352C51.4768 44.784 50.9648 45 50.2608 45ZM68.7509 39.048C68.9909 39.352 69.3749 39.92 69.9029 40.752C70.5269 41.744 70.8389 42.584 70.8389 43.272C70.8389 43.832 70.6549 44.256 70.2869 44.544C69.9189 44.816 69.4869 44.952 68.9909 44.952C68.5269 44.952 68.0549 44.76 67.5749 44.376C67.1109 43.992 66.6229 43.472 66.1109 42.816C65.5669 42.096 65.2069 41.584 65.0309 41.28C64.8229 41.36 64.5909 41.44 64.3349 41.52C64.2229 42.72 63.9989 43.592 63.6629 44.136C63.3269 44.68 62.8149 44.952 62.1269 44.952C61.4229 44.952 60.8629 44.664 60.4469 44.088C60.0309 43.512 59.7269 42.616 59.5349 41.4C59.3589 40.184 59.2709 38.576 59.2709 36.576C59.2709 34.672 59.3269 33.144 59.4389 31.992C59.5669 30.824 59.8389 29.904 60.2549 29.232C60.6709 28.544 61.2949 28.2 62.1269 28.2C62.8149 28.2 63.3269 28.44 63.6629 28.92C64.0149 29.4 64.2389 30.064 64.3349 30.912C64.4469 31.744 64.5029 32.864 64.5029 34.272V35.784L64.5749 35.736C65.5029 35.112 66.3189 34.624 67.0229 34.272C67.7429 33.92 68.3909 33.744 68.9669 33.744C69.6229 33.744 70.1349 33.968 70.5029 34.416C70.8869 34.848 71.0789 35.336 71.0789 35.88C71.0789 36.456 70.8869 36.984 70.5029 37.464C70.1189 37.944 69.5349 38.472 68.7509 39.048ZM77.5761 45C76.3921 45 75.3441 44.768 74.4321 44.304C73.5201 43.84 72.8081 43.192 72.2961 42.36C71.8001 41.512 71.5521 40.56 71.5521 39.504C71.5521 38.464 71.8001 37.504 72.2961 36.624C72.8081 35.744 73.5121 35.04 74.4081 34.512C75.3041 33.984 76.3201 33.72 77.4561 33.72C78.4801 33.72 79.3841 33.928 80.1681 34.344C80.9521 34.76 81.5521 35.312 81.9681 36C82.3841 36.672 82.5921 37.376 82.5921 38.112C82.5921 39.312 82.1361 40.192 81.2241 40.752C80.3281 41.296 79.2561 41.568 78.0081 41.568C77.1761 41.568 76.4721 41.464 75.8961 41.256C76.3761 42.04 77.1681 42.432 78.2721 42.432C78.7201 42.432 79.2001 42.376 79.7121 42.264C79.9041 42.216 80.0881 42.192 80.2641 42.192C80.6161 42.192 80.8961 42.28 81.1041 42.456C81.3281 42.632 81.4401 42.872 81.4401 43.176C81.4401 43.672 81.1361 44.104 80.5281 44.472C79.9201 44.824 78.9361 45 77.5761 45ZM75.9681 38.328C76.1121 38.552 76.3041 38.72 76.5441 38.832C76.8001 38.928 77.0801 38.976 77.3841 38.976C77.7361 38.976 78.0401 38.896 78.2961 38.736C78.5681 38.576 78.7041 38.368 78.7041 38.112C78.7041 37.824 78.5841 37.576 78.3441 37.368C78.1201 37.16 77.7921 37.056 77.3601 37.056C76.9281 37.056 76.5841 37.192 76.3281 37.464C76.0881 37.72 75.9681 38.008 75.9681 38.328ZM95.0298 34.608C95.0298 35.44 94.6378 36.008 93.8538 36.312C93.0698 36.6 91.9978 36.752 90.6378 36.768C90.6218 37.168 90.6138 37.816 90.6138 38.712C90.6138 39.624 90.6778 40.272 90.8058 40.656C90.8858 40.928 91.0058 41.104 91.1658 41.184C91.3418 41.264 91.5978 41.32 91.9338 41.352C92.0458 41.368 92.1658 41.392 92.2938 41.424C92.4378 41.44 92.5978 41.464 92.7738 41.496C93.1418 41.576 93.4298 41.776 93.6378 42.096C93.8458 42.4 93.9498 42.792 93.9498 43.272C93.9498 43.816 93.6698 44.24 93.1098 44.544C92.5498 44.848 91.7818 45 90.8058 45C89.9098 45 89.0538 44.744 88.2378 44.232C87.4218 43.704 86.8618 43 86.5578 42.12C86.2378 41.176 86.0778 39.392 86.0778 36.768C84.9578 36.736 84.0538 36.592 83.3658 36.336C82.6938 36.064 82.3578 35.584 82.3578 34.896C82.3578 34.032 82.6778 33.456 83.3178 33.168C83.9578 32.864 84.8778 32.704 86.0778 32.688C86.1258 31.408 86.3258 30.344 86.6778 29.496C87.0298 28.632 87.6618 28.2 88.5738 28.2C89.5018 28.2 90.1018 28.6 90.3738 29.4C90.6618 30.2 90.7898 31.296 90.7578 32.688C92.2138 32.672 93.2858 32.784 93.9738 33.024C94.6778 33.264 95.0298 33.792 95.0298 34.608ZM97.4845 48.432C96.7005 48.432 96.1325 48.032 95.7805 47.232C95.4285 46.448 95.2125 45.552 95.1325 44.544C95.0685 43.536 95.0365 42.208 95.0365 40.56C95.0365 39.296 95.0845 38.184 95.1805 37.224C95.2925 36.264 95.5405 35.432 95.9245 34.728C96.3085 34.024 96.8925 33.672 97.6765 33.672C98.4925 33.672 99.0845 33.992 99.4525 34.632C99.8205 34.36 100.277 34.144 100.821 33.984C101.381 33.808 101.965 33.72 102.573 33.72C103.597 33.72 104.541 33.976 105.405 34.488C106.269 35 106.957 35.688 107.469 36.552C107.981 37.416 108.237 38.36 108.237 39.384C108.237 40.408 107.981 41.36 107.469 42.24C106.957 43.104 106.269 43.792 105.405 44.304C104.541 44.816 103.597 45.072 102.573 45.072C101.949 45.072 101.365 44.992 100.821 44.832C100.277 44.656 99.8125 44.424 99.4285 44.136C99.4285 45.16 99.3965 45.952 99.3325 46.512C99.2685 47.072 99.0925 47.528 98.8045 47.88C98.5325 48.248 98.0925 48.432 97.4845 48.432ZM102.453 41.088C102.869 41.088 103.229 40.936 103.533 40.632C103.853 40.312 104.013 39.944 104.013 39.528C104.013 39.112 103.853 38.752 103.533 38.448C103.229 38.128 102.869 37.968 102.453 37.968C102.037 37.968 101.669 38.128 101.349 38.448C101.045 38.752 100.893 39.112 100.893 39.528C100.893 39.944 101.045 40.312 101.349 40.632C101.669 40.936 102.037 41.088 102.453 41.088ZM112.235 44.952C111.435 44.952 110.835 44.656 110.435 44.064C110.035 43.472 109.763 42.6 109.619 41.448C109.491 40.28 109.427 38.656 109.427 36.576C109.427 34.576 109.475 33.016 109.571 31.896C109.683 30.776 109.939 29.88 110.339 29.208C110.755 28.536 111.395 28.2 112.259 28.2C113.123 28.2 113.755 28.536 114.155 29.208C114.571 29.88 114.827 30.776 114.923 31.896C115.035 33.016 115.091 34.576 115.091 36.576C115.091 38.544 115.003 40.136 114.827 41.352C114.667 42.552 114.379 43.456 113.963 44.064C113.547 44.656 112.971 44.952 112.235 44.952ZM120.146 45C118.898 45 117.874 44.72 117.074 44.16C116.274 43.584 115.874 42.76 115.874 41.688C115.874 40.76 116.282 40.024 117.098 39.48C117.914 38.936 118.93 38.664 120.146 38.664C120.594 38.664 121.01 38.704 121.394 38.784C121.794 38.848 122.066 38.928 122.21 39.024C122.21 38.624 122.042 38.296 121.706 38.04C121.37 37.768 120.858 37.632 120.17 37.632C119.866 37.632 119.618 37.656 119.426 37.704C119.234 37.752 119.026 37.824 118.802 37.92C118.578 38.016 118.37 38.088 118.178 38.136C118.002 38.184 117.762 38.208 117.458 38.208C116.946 38.208 116.546 38.08 116.258 37.824C115.97 37.552 115.826 37.144 115.826 36.6C115.826 35.976 116.05 35.448 116.498 35.016C116.962 34.584 117.538 34.264 118.226 34.056C118.914 33.832 119.602 33.72 120.29 33.72C121.65 33.72 122.786 33.976 123.698 34.488C124.626 34.984 125.306 35.648 125.738 36.48C126.186 37.312 126.41 38.232 126.41 39.24C126.41 39.784 126.362 40.288 126.266 40.752C126.186 41.216 126.074 41.576 125.93 41.832C126.154 42.024 126.322 42.248 126.434 42.504C126.562 42.76 126.626 43.024 126.626 43.296C126.626 43.76 126.466 44.16 126.146 44.496C125.842 44.832 125.434 45 124.922 45C124.538 45 124.226 44.944 123.986 44.832C123.746 44.72 123.49 44.544 123.218 44.304C122.818 44.544 122.378 44.72 121.898 44.832C121.434 44.944 120.85 45 120.146 45ZM120.626 42.576C120.962 42.576 121.226 42.504 121.418 42.36C121.626 42.216 121.73 42.04 121.73 41.832C121.73 41.624 121.626 41.448 121.418 41.304C121.226 41.16 120.962 41.088 120.626 41.088C120.29 41.088 120.018 41.16 119.81 41.304C119.618 41.448 119.522 41.624 119.522 41.832C119.522 42.04 119.618 42.216 119.81 42.36C120.018 42.504 120.29 42.576 120.626 42.576ZM133.237 44.976C132.213 44.976 131.245 44.728 130.333 44.232C129.437 43.72 128.717 43.032 128.173 42.168C127.629 41.304 127.357 40.336 127.357 39.264C127.357 38.144 127.621 37.168 128.149 36.336C128.693 35.488 129.405 34.84 130.285 34.392C131.181 33.944 132.141 33.72 133.165 33.72C134.141 33.72 135.021 33.912 135.805 34.296C136.589 34.68 137.197 35.184 137.629 35.808C138.061 36.416 138.277 37.056 138.277 37.728C138.277 38.288 138.101 38.72 137.749 39.024C137.413 39.328 136.909 39.48 136.237 39.48C135.885 39.48 135.613 39.416 135.421 39.288C135.229 39.16 135.029 38.968 134.821 38.712C134.629 38.472 134.445 38.296 134.269 38.184C134.109 38.056 133.877 37.992 133.573 37.992C133.141 37.992 132.773 38.144 132.469 38.448C132.165 38.736 132.013 39.112 132.013 39.576C132.013 40.056 132.157 40.44 132.445 40.728C132.749 41.016 133.125 41.16 133.573 41.16C133.861 41.16 134.085 41.12 134.245 41.04C134.405 40.96 134.581 40.832 134.773 40.656C134.997 40.464 135.205 40.328 135.397 40.248C135.589 40.152 135.869 40.104 136.237 40.104C136.893 40.104 137.397 40.28 137.749 40.632C138.101 40.984 138.277 41.392 138.277 41.856C138.277 42.4 138.061 42.912 137.629 43.392C137.213 43.872 136.621 44.256 135.853 44.544C135.085 44.832 134.213 44.976 133.237 44.976ZM145.264 45C144.08 45 143.032 44.768 142.12 44.304C141.208 43.84 140.496 43.192 139.984 42.36C139.488 41.512 139.24 40.56 139.24 39.504C139.24 38.464 139.488 37.504 139.984 36.624C140.496 35.744 141.2 35.04 142.096 34.512C142.992 33.984 144.008 33.72 145.144 33.72C146.168 33.72 147.072 33.928 147.856 34.344C148.64 34.76 149.24 35.312 149.656 36C150.072 36.672 150.28 37.376 150.28 38.112C150.28 39.312 149.824 40.192 148.912 40.752C148.016 41.296 146.944 41.568 145.696 41.568C144.864 41.568 144.16 41.464 143.584 41.256C144.064 42.04 144.856 42.432 145.96 42.432C146.408 42.432 146.888 42.376 147.4 42.264C147.592 42.216 147.776 42.192 147.952 42.192C148.304 42.192 148.584 42.28 148.792 42.456C149.016 42.632 149.128 42.872 149.128 43.176C149.128 43.672 148.824 44.104 148.216 44.472C147.608 44.824 146.624 45 145.264 45ZM143.656 38.328C143.8 38.552 143.992 38.72 144.232 38.832C144.488 38.928 144.768 38.976 145.072 38.976C145.424 38.976 145.728 38.896 145.984 38.736C146.256 38.576 146.392 38.368 146.392 38.112C146.392 37.824 146.272 37.576 146.032 37.368C145.808 37.16 145.48 37.056 145.048 37.056C144.616 37.056 144.272 37.192 144.016 37.464C143.776 37.72 143.656 38.008 143.656 38.328Z" fill="black"/>
</svg>
