<svg width="146" height="202" viewBox="0 0 146 202" fill="none" xmlns="http://www.w3.org/2000/svg">
<path d="M83.5701 200.705L78.1387 200.703L76.9182 55.1007L85.8776 55.1035L83.5701 200.705Z" fill="#76500D" stroke="black" stroke-linejoin="round"/>
<path d="M71.2555 198.099L78.1395 200.705L76.9193 56.015L69.0092 56.0125L71.2555 198.099Z" fill="#AE7D44" stroke="black" stroke-linejoin="round"/>
<path d="M137.33 81.2492C137.308 80.3834 135.862 76.6668 128.584 77.3048C128.108 77.3466 127.74 77.7358 127.706 78.2124L125.201 113.868C125.187 114.059 125.229 114.249 125.32 114.417L130.364 123.658C130.595 124.083 131.098 124.281 131.558 124.128L136.123 122.606C136.511 122.477 136.781 122.125 136.805 121.718L137.241 114.535C137.256 114.293 137.183 114.054 137.034 113.863L136.444 113.098C136.077 112.624 136.207 111.936 136.722 111.628L137.22 111.33C137.527 111.147 137.713 110.814 137.707 110.456L137.398 91.2405C137.395 91.0446 137.334 90.854 137.223 90.6923L136.189 89.1794C135.984 88.8791 135.958 88.491 136.121 88.1659L137.152 86.1164C137.226 85.9694 137.262 85.8059 137.258 85.6413C137.197 82.8579 137.353 82.121 137.33 81.2492Z" fill="#7A4A12" stroke="black" stroke-linecap="round" stroke-linejoin="round"/>
<path d="M16.0492 72.5879L132.728 77.5743C133.29 77.5983 133.721 78.0808 133.683 78.6418L133.339 83.6532L130.06 87.6817C129.731 88.0869 129.768 88.6778 130.147 89.0378L131.885 90.6887C132.085 90.8787 132.197 91.143 132.196 91.4189L132.096 110.423C132.094 110.73 131.952 111.02 131.709 111.208L130.342 112.269C129.864 112.64 129.822 113.347 130.253 113.771L132.069 115.558L131.534 123.183C131.495 123.734 131.017 124.15 130.466 124.111L14.266 115.932C13.9122 115.907 13.5981 115.697 13.4404 115.379L10.9698 110.4C10.8168 110.092 10.8331 109.727 11.0129 109.433L12.2639 107.392L10.2971 103.392L4.51148 90.9252C4.35865 90.5959 4.3963 90.2096 4.60981 89.916L12.2132 79.4614C12.2469 79.415 12.2846 79.3716 12.3257 79.3317L14.7122 77.0172L14.2987 75.6384C14.2316 75.4148 14.2449 75.1748 14.3362 74.9599L15.0862 73.1957C15.2492 72.8123 15.6329 72.5701 16.0492 72.5879Z" fill="#BC9549"/>
<path d="M14.7122 77.0172L14.2987 75.6384C14.2316 75.4148 14.2449 75.1748 14.3362 74.9599L15.0862 73.1957C15.2492 72.8123 15.6329 72.5701 16.0492 72.5879L132.728 77.5743C133.29 77.5983 133.721 78.0808 133.683 78.6418L133.339 83.6532M14.7122 77.0172L12.3257 79.3317C12.2846 79.3716 12.2469 79.415 12.2132 79.4614L4.60982 89.916C4.3963 90.2096 4.35865 90.5959 4.51148 90.9252L10.2971 103.392L12.2639 107.392M14.7122 77.0172C15.3927 77.6638 19.2639 78.3917 19.2639 78.3917M133.339 83.6532L130.06 87.6817C129.731 88.0869 129.768 88.6778 130.147 89.0378L131.885 90.6887C132.085 90.8787 132.197 91.143 132.196 91.4189L132.096 110.423C132.094 110.73 131.952 111.02 131.709 111.208L130.342 112.269C129.864 112.64 129.822 113.347 130.253 113.771L132.069 115.558M133.339 83.6532C128.671 82.887 116.685 81.5549 111.39 82.2212M12.2639 107.392L11.0129 109.433C10.8331 109.727 10.8168 110.092 10.9698 110.4L13.4404 115.379C13.5981 115.697 13.9122 115.907 14.266 115.932L130.466 124.111C131.017 124.15 131.495 123.734 131.534 123.183L132.069 115.558M12.2639 107.392L17.2639 107.892M132.069 115.558C127.919 116.55 119.215 118.277 117.596 117.256M52.7381 80.2368C44.52 79.1185 27.0221 76.9088 22.7751 77.0172" stroke="black" stroke-linecap="round" stroke-linejoin="round"/>
<path d="M13.7597 11.2655C13.7905 10.4599 17.2902 8.79718 19.3055 7.97411C19.6807 7.82088 20.1081 7.92183 20.3849 8.21779L22.5293 10.5102C22.6747 10.6656 22.7668 10.8634 22.792 11.0748L27.8348 53.3111C27.8546 53.477 27.8326 53.6451 27.7707 53.8003L23.9963 63.2612C23.8447 63.6413 23.4767 63.8906 23.0675 63.8906L18.6822 63.8906C18.1551 63.8906 17.7185 63.4816 17.6843 62.9556L17.1468 54.7082C17.1253 54.3782 17.2684 54.0589 17.5289 53.8553L18.0333 53.4611C18.5825 53.0318 18.5351 52.1865 17.9413 51.8214L17.6495 51.6419C17.3793 51.4757 17.2039 51.1911 17.177 50.8749L15.1061 26.547C15.0874 26.3267 15.1422 26.1063 15.2621 25.9204L16.3217 24.2767C16.5861 23.8665 16.5159 23.3254 16.1555 22.9963L14.5131 21.4967C14.3202 21.3207 14.2039 21.0776 14.1894 20.8169C14.0544 18.4006 13.7273 12.1097 13.7597 11.2655Z" fill="#7A4A12" stroke="black" stroke-linecap="round" stroke-linejoin="round"/>
<path d="M126.538 4.16554L19.7775 7.85398C19.2172 7.87334 18.7823 8.34938 18.8135 8.90909L19.0936 13.9291L22.3204 17.9991C22.6451 18.4085 22.5997 18.9989 22.2164 19.354L20.4993 20.9444C20.2731 21.1539 20.1562 21.456 20.1824 21.7631L22.6354 50.4954C22.6588 50.7692 22.7938 51.0213 23.0087 51.1925L24.4059 52.3055C24.8793 52.6826 24.9119 53.3903 24.4752 53.8093L22.6371 55.573L23.0736 63.1812C23.1058 63.7415 23.5926 64.1657 24.1521 64.1207L129.944 55.6186C130.296 55.5903 130.606 55.3788 130.762 55.0621L133.191 50.1086C133.409 49.6638 133.269 49.1263 132.861 48.845L130.511 47.2245L132.985 43.3335L144.249 28.543C144.538 28.1637 144.519 27.6332 144.203 27.2757L130.274 11.4834L128.36 9.41725L128.36 7.08737C128.36 6.95719 128.335 6.82825 128.286 6.7078L127.497 4.78551C127.339 4.39844 126.956 4.1511 126.538 4.16554Z" fill="#BC9549"/>
<path d="M128.36 9.41725L128.36 7.08737C128.36 6.95719 128.335 6.82825 128.286 6.7078L127.497 4.78551C127.339 4.39844 126.956 4.1511 126.538 4.16554L19.7775 7.85398C19.2172 7.87334 18.7823 8.34938 18.8135 8.90909L19.0936 13.9291M128.36 9.41725L130.274 11.4834L144.203 27.2757C144.519 27.6332 144.538 28.1637 144.249 28.543L132.985 43.3335L130.511 47.2245M128.36 9.41725C127.671 10.0552 125.233 11.2904 120.987 11.1278M19.0936 13.9291L22.3204 17.9991C22.6451 18.4085 22.5997 18.9989 22.2164 19.354L20.4993 20.9444C20.2731 21.1539 20.1562 21.456 20.1824 21.7631L22.6354 50.4954C22.6588 50.7692 22.7938 51.0213 23.0087 51.1925L24.4059 52.3055C24.8793 52.6826 24.9119 53.3903 24.4752 53.8093L22.6371 55.573M19.0936 13.9291C23.7707 13.2225 37.8892 11.922 43.1754 12.6558M130.511 47.2245L132.861 48.845C133.269 49.1263 133.409 49.6638 133.191 50.1086L130.762 55.0621C130.606 55.3788 130.296 55.5903 129.944 55.6186L24.1521 64.1207C23.5926 64.1657 23.1058 63.7415 23.0736 63.1812L22.6371 55.573M130.511 47.2245L119.184 48.1194M22.6371 55.573C26.7736 56.6171 35.8601 55.8472 37.4927 54.8468M91.8485 11.2924C100.08 10.279 117.605 8.29279 121.85 8.45532" stroke="black" stroke-linecap="round" stroke-linejoin="round"/>
</svg>
