<svg width="170" height="59" viewBox="0 0 170 59" fill="none" xmlns="http://www.w3.org/2000/svg">
  <path d="M4.07812 8.27149C4.07812 6.06235 5.86899 4.27148 8.07813 4.27148H165.29C167.499 4.27148 169.29 6.06235 169.29 8.27148V37.6214C169.29 39.8339 167.494 41.6262 165.282 41.6214L97.5393 41.4755C95.9659 41.4721 94.5367 42.3914 93.8873 43.8244L90.7852 50.67C89.3953 53.7371 85.0689 53.8192 83.5637 50.807L79.9926 43.6607C79.3136 42.3019 77.9235 41.4449 76.4044 41.4488L8.08816 41.62C5.87511 41.6255 4.07812 39.833 4.07812 37.62V8.27149Z" fill="#866224" stroke="black" stroke-linecap="round"/>
  <path d="M1.37695 5C1.37695 2.79086 3.16781 1 5.37695 1H162.589C164.798 1 166.589 2.79086 166.589 5V34.3499C166.589 36.5624 164.793 38.3547 162.58 38.3499L93.5456 38.2012C92.7589 38.1995 92.0443 38.6591 91.7196 39.3757L86.3506 51.2237C85.6556 52.7573 83.4924 52.7984 82.7398 51.2923L76.7372 39.2801C76.3977 38.6007 75.7026 38.1723 74.9431 38.1742L5.38698 38.3485C3.17394 38.354 1.37695 36.5616 1.37695 34.3485V5Z" fill="#E9B965" stroke="black" stroke-linecap="round"/>
  <path d="M55.9083 27.2231C53.2523 27.2071 51.2603 26.5511 49.9323 25.2551C48.6203 23.9591 47.9643 21.8551 47.9643 18.9431C47.9643 16.3031 48.6043 14.2311 49.8843 12.7271C51.1643 11.2071 52.9723 10.4471 55.3083 10.4471C56.7483 10.4471 58.0043 10.6631 59.0763 11.0951C60.1483 11.5271 60.9723 12.1431 61.5483 12.9431C62.1243 13.7431 62.4123 14.6871 62.4123 15.7751C62.4123 16.6391 62.2203 17.4071 61.8363 18.0791C61.4683 18.7511 60.9163 19.3511 60.1803 19.8791C60.7723 19.9751 61.2843 20.2951 61.7163 20.8391C62.1643 21.3831 62.3883 22.0151 62.3883 22.7351C62.3883 23.5031 62.1803 24.2311 61.7643 24.9191C61.3643 25.5911 60.6763 26.1431 59.7003 26.5751C58.7403 27.0071 57.4763 27.2231 55.9083 27.2231ZM54.2523 18.2711C54.5403 18.4151 54.9003 18.4871 55.3323 18.4871C55.8443 18.4871 56.2843 18.3671 56.6523 18.1271C57.0363 17.8711 57.2283 17.4951 57.2283 16.9991C57.2283 16.5191 57.0363 16.1591 56.6523 15.9191C56.2843 15.6631 55.8363 15.5351 55.3083 15.5351C54.8923 15.5351 54.5403 15.6071 54.2523 15.7511C54.0283 15.8471 53.8603 16.0151 53.7483 16.2551C53.6363 16.4951 53.5803 16.7511 53.5803 17.0231C53.5803 17.2951 53.6363 17.5511 53.7483 17.7911C53.8603 18.0151 54.0283 18.1751 54.2523 18.2711ZM54.2523 23.8871C54.5563 24.0151 54.9163 24.0791 55.3323 24.0791C55.8443 24.0791 56.2843 23.9751 56.6523 23.7671C57.0363 23.5431 57.2283 23.2151 57.2283 22.7831C57.2283 22.3671 57.0363 22.0471 56.6523 21.8231C56.2683 21.5991 55.8203 21.4871 55.3083 21.4871C54.9083 21.4871 54.5563 21.5511 54.2523 21.6791C54.0283 21.7751 53.8603 21.9271 53.7483 22.1351C53.6363 22.3271 53.5803 22.5431 53.5803 22.7831C53.5803 23.0231 53.6363 23.2471 53.7483 23.4551C53.8603 23.6471 54.0283 23.7911 54.2523 23.8871ZM66.1885 27.2471C65.1645 27.2471 64.4765 26.6471 64.1245 25.4471C63.7885 24.2471 63.6205 22.5911 63.6205 20.4791C63.6205 19.5191 63.6605 18.7191 63.7405 18.0791C63.8365 17.4231 64.0525 16.8711 64.3885 16.4231C64.7405 15.9591 65.2765 15.7271 65.9965 15.7271C66.4445 15.7271 66.8365 15.8311 67.1725 16.0391C67.5245 16.2471 67.7485 16.5431 67.8445 16.9271C68.1965 16.6071 68.6525 16.3671 69.2125 16.2071C69.7725 16.0471 70.3725 15.9671 71.0125 15.9671C71.5245 15.9671 72.0445 16.0951 72.5725 16.3511C73.1165 16.6071 73.5645 16.9591 73.9165 17.4071C74.2845 17.8391 74.4685 18.3111 74.4685 18.8231C74.4685 19.3351 74.2845 19.7911 73.9165 20.1911C73.5645 20.5751 73.0925 20.7671 72.5005 20.7671C72.3085 20.7671 72.1245 20.7431 71.9485 20.6951C71.7885 20.6471 71.6445 20.5991 71.5165 20.5511C71.1965 20.4231 70.9405 20.3591 70.7485 20.3591C70.1245 20.3591 69.5725 20.6071 69.0925 21.1031C68.6285 21.5831 68.3965 22.2071 68.3965 22.9751C68.3965 23.8231 68.3645 24.5271 68.3005 25.0871C68.2365 25.6471 68.0445 26.1511 67.7245 26.5991C67.4045 27.0311 66.8925 27.2471 66.1885 27.2471ZM77.7488 15.6071C76.9648 15.6071 76.3008 15.3271 75.7568 14.7671C75.2128 14.1911 74.9408 13.4951 74.9408 12.6791C74.9408 11.8791 75.2128 11.1991 75.7568 10.6391C76.3008 10.0631 76.9648 9.77507 77.7488 9.77507C78.5168 9.77507 79.1728 10.0631 79.7168 10.6391C80.2768 11.1991 80.5568 11.8791 80.5568 12.6791C80.5568 13.4951 80.2768 14.1911 79.7168 14.7671C79.1728 15.3271 78.5168 15.6071 77.7488 15.6071ZM77.7488 27.2471C77.0928 27.2471 76.6048 27.0631 76.2848 26.6951C75.9808 26.3111 75.7728 25.7431 75.6608 24.9911C75.5648 24.2231 75.5168 23.1351 75.5168 21.7271C75.5168 20.5431 75.5728 19.6071 75.6848 18.9191C75.8128 18.2311 76.0368 17.7191 76.3568 17.3831C76.6768 17.0471 77.1408 16.8791 77.7488 16.8791C78.4048 16.8791 78.8848 17.0711 79.1888 17.4551C79.5088 17.8231 79.7168 18.3911 79.8128 19.1591C79.9248 19.9111 79.9808 20.9911 79.9808 22.3991C79.9808 23.5831 79.9168 24.5191 79.7888 25.2071C79.6768 25.8951 79.4608 26.4071 79.1408 26.7431C78.8208 27.0791 78.3568 27.2471 77.7488 27.2471ZM87.0044 27.2471C85.8684 27.2471 84.8604 26.9751 83.9804 26.4311C83.1164 25.8711 82.4524 25.1511 81.9884 24.2711C81.5244 23.3751 81.2924 22.4231 81.2924 21.4151C81.2924 20.2311 81.5324 19.2311 82.0124 18.4151C82.5084 17.5831 83.1404 16.9671 83.9084 16.5671C84.6924 16.1671 85.5324 15.9671 86.4284 15.9671C87.3244 15.9671 88.1244 16.1591 88.8284 16.5431C88.7964 16.2071 88.7324 15.8471 88.6364 15.4631C88.5564 15.0791 88.5004 14.8391 88.4684 14.7431C88.3404 14.2471 88.2444 13.8311 88.1804 13.4951C88.1164 13.1591 88.0844 12.8231 88.0844 12.4871C88.0844 11.8151 88.2844 11.3031 88.6844 10.9511C89.0844 10.5991 89.5644 10.4231 90.1244 10.4231C91.0204 10.4231 91.7484 10.8711 92.3084 11.7671C92.8684 12.6631 93.2684 13.7751 93.5084 15.1031C93.7644 16.4311 93.8924 17.7751 93.8924 19.1351C93.8924 20.9751 93.4684 22.7911 92.6204 24.5831C91.7884 26.3591 89.9164 27.2471 87.0044 27.2471ZM87.1484 23.4551C87.5804 23.4551 87.9564 23.2951 88.2764 22.9751C88.5964 22.6391 88.7564 22.2471 88.7564 21.7991C88.7564 21.3511 88.5964 20.9591 88.2764 20.6231C87.9564 20.2871 87.5804 20.1191 87.1484 20.1191C86.7164 20.1191 86.3324 20.2871 85.9964 20.6231C85.6764 20.9591 85.5164 21.3511 85.5164 21.7991C85.5164 22.2471 85.6764 22.6391 85.9964 22.9751C86.3324 23.2951 86.7164 23.4551 87.1484 23.4551ZM99.8603 31.3511C98.9323 31.3511 98.1723 31.1751 97.5803 30.8231C96.9883 30.4871 96.6923 30.0231 96.6923 29.4311C96.6923 28.9031 96.8923 28.4711 97.2923 28.1351C97.7083 27.8151 98.2283 27.6551 98.8523 27.6551C98.9643 27.6551 99.1483 27.6711 99.4043 27.7031C99.7243 27.7511 100.02 27.7751 100.292 27.7751C100.98 27.7751 101.572 27.6551 102.068 27.4151C102.58 27.1911 102.892 26.8871 103.004 26.5031C102.748 26.6471 102.388 26.7671 101.924 26.8631C101.46 26.9591 100.964 27.0071 100.436 27.0071C99.0763 27.0071 97.9563 26.7431 97.0763 26.2151C96.2123 25.6871 95.5883 25.0391 95.2043 24.2711C94.8203 23.4871 94.6283 22.7191 94.6283 21.9671C94.6283 20.7191 94.9003 19.6391 95.4443 18.7271C96.0043 17.8151 96.7243 17.1191 97.6043 16.6391C98.4843 16.1591 99.4043 15.9191 100.364 15.9191C100.684 15.9191 101.052 15.9431 101.468 15.9911C101.9 16.0391 102.26 16.0951 102.548 16.1591C102.676 15.7271 102.892 15.3911 103.196 15.1511C103.516 14.9111 103.988 14.7911 104.612 14.7911C105.652 14.7911 106.404 15.4391 106.868 16.7351C107.348 18.0311 107.588 19.6311 107.588 21.5351C107.588 22.4311 107.54 23.2791 107.444 24.0791C107.204 26.3351 106.412 28.1111 105.068 29.4071C103.724 30.7031 101.988 31.3511 99.8603 31.3511ZM100.748 23.4071C101.244 23.4071 101.676 23.2311 102.044 22.8791C102.412 22.5111 102.596 22.0791 102.596 21.5831C102.596 21.0871 102.412 20.6551 102.044 20.2871C101.676 19.9191 101.244 19.7351 100.748 19.7351C100.252 19.7351 99.8203 19.9191 99.4523 20.2871C99.1003 20.6551 98.9243 21.0871 98.9243 21.5831C98.9243 22.0791 99.1003 22.5111 99.4523 22.8791C99.8203 23.2311 100.252 23.4071 100.748 23.4071ZM114.551 27.2471C113.367 27.2471 112.319 27.0151 111.407 26.5511C110.495 26.0871 109.783 25.4391 109.271 24.6071C108.775 23.7591 108.527 22.8071 108.527 21.7511C108.527 20.7111 108.775 19.7511 109.271 18.8711C109.783 17.9911 110.487 17.2871 111.383 16.7591C112.279 16.2311 113.295 15.9671 114.431 15.9671C115.455 15.9671 116.359 16.1751 117.143 16.5911C117.927 17.0071 118.527 17.5591 118.943 18.2471C119.359 18.9191 119.567 19.6231 119.567 20.3591C119.567 21.5591 119.111 22.4391 118.199 22.9991C117.303 23.5431 116.231 23.8151 114.983 23.8151C114.151 23.8151 113.447 23.7111 112.871 23.5031C113.351 24.2871 114.143 24.6791 115.247 24.6791C115.695 24.6791 116.175 24.6231 116.687 24.5111C116.879 24.4631 117.063 24.4391 117.239 24.4391C117.591 24.4391 117.871 24.5271 118.079 24.7031C118.303 24.8791 118.415 25.1191 118.415 25.4231C118.415 25.9191 118.111 26.3511 117.503 26.7191C116.895 27.0711 115.911 27.2471 114.551 27.2471ZM112.943 20.5751C113.087 20.7991 113.279 20.9671 113.519 21.0791C113.775 21.1751 114.055 21.2231 114.359 21.2231C114.711 21.2231 115.015 21.1431 115.271 20.9831C115.543 20.8231 115.679 20.6151 115.679 20.3591C115.679 20.0711 115.559 19.8231 115.319 19.6151C115.095 19.4071 114.767 19.3031 114.335 19.3031C113.903 19.3031 113.559 19.4391 113.303 19.7111C113.063 19.9671 112.943 20.2551 112.943 20.5751Z" fill="black"/>
</svg>
