<svg xmlns="http://www.w3.org/2000/svg" width="33" height="33" viewBox="0 0 33 33" fill="none">
  <g filter="url(#filter0_d_22798_8045)">
    <circle cx="15" cy="15" r="13" fill="#E9E3B5" />
    <circle cx="15" cy="15" r="14" stroke="black" stroke-width="2" stroke-linejoin="round" />
  </g>
  <path
    d="M16.444 15L19.7799 11.6642C20.0307 11.4133 20.0735 11.0494 19.8756 10.8516L19.1482 10.1242C18.9503 9.92632 18.5869 9.96974 18.3356 10.2204L15.0001 13.5561L11.6643 10.2205C11.4135 9.96941 11.0496 9.92632 10.8517 10.1245L10.1243 10.8519C9.92648 11.0495 9.96931 11.4134 10.2205 11.6642L13.5563 15L10.2205 18.336C9.96973 18.5866 9.92631 18.9503 10.1243 19.1482L10.8517 19.8756C11.0496 20.0735 11.4135 20.0306 11.6643 19.7799L15.0003 16.4439L18.3357 19.7794C18.587 20.0307 18.9504 20.0735 19.1483 19.8756L19.8757 19.1482C20.0735 18.9503 20.0307 18.5866 19.78 18.3356L16.444 15Z"
    fill="black"
  />
  <defs>
    <filter
      id="filter0_d_22798_8045"
      x="0"
      y="0"
      width="33"
      height="33"
      filterUnits="userSpaceOnUse"
      color-interpolation-filters="sRGB"
    >
      <feFlood flood-opacity="0" result="BackgroundImageFix" />
      <feColorMatrix
        in="SourceAlpha"
        type="matrix"
        values="0 0 0 0 0 0 0 0 0 0 0 0 0 0 0 0 0 0 127 0"
        result="hardAlpha"
      />
      <feOffset dx="3" dy="3" />
      <feComposite in2="hardAlpha" operator="out" />
      <feColorMatrix type="matrix" values="0 0 0 0 0 0 0 0 0 0 0 0 0 0 0 0 0 0 0.25 0" />
      <feBlend mode="normal" in2="BackgroundImageFix" result="effect1_dropShadow_22798_8045" />
      <feBlend mode="normal" in="SourceGraphic" in2="effect1_dropShadow_22798_8045" result="shape" />
    </filter>
  </defs>
</svg>