<svg width="14" height="14" viewBox="0 0 14 14" fill="none" xmlns="http://www.w3.org/2000/svg">
<path d="M8.02111 8.09214L12.7387 8.09217C13.0934 8.09211 13.381 7.86507 13.3809 7.58523L13.3809 6.55662C13.3809 6.27673 13.0932 6.05045 12.7383 6.05004L8.02104 6.05018L8.02095 1.33277C8.02112 0.977856 7.79426 0.690062 7.51418 0.690237L6.48551 0.690289C6.20591 0.69011 5.97887 0.977726 5.97911 1.33269L5.9792 6.05023L1.26149 6.05032C0.906932 6.05026 0.619081 6.27671 0.619142 6.55666L0.619089 7.58533C0.619091 7.86523 0.906768 8.09221 1.26144 8.09227L5.97921 8.09224L5.97918 12.8093C5.97913 13.1647 6.20581 13.4519 6.48571 13.452L7.51438 13.4519C7.79422 13.4518 8.02108 13.1644 8.02131 12.8097L8.02111 8.09214Z" fill="currentColor"/>
</svg>
