<svg width="38" height="26" viewBox="0 0 38 26" fill="none" xmlns="http://www.w3.org/2000/svg">
<path d="M2.85893 14.5325C0.0598993 14.076 1.65261 20.9675 3.73119 24.5133C3.9016 24.804 4.21737 24.9707 4.55434 24.9707L32.8855 24.9704C33.0345 24.9704 33.1813 24.9348 33.3199 24.88C34.9957 24.2172 36.4574 25.0939 36.6022 17.0294C36.7407 9.31514 33.784 9.81186 31.9246 11.2736C31.6271 11.5075 31.4995 11.7517 31.3858 11.3908C30.7748 9.45103 27.9868 1.72749 24.0409 1.82226C19.2194 1.93804 18.5379 8.82408 18.6629 9.59181C18.788 10.3595 14.6125 -1.1443 9.12116 1.26828C3.62981 3.68085 6.44811 13.9904 8.54368 18.8435C7.86751 17.6053 5.78392 15.0097 2.85893 14.5325Z" fill="#71A20F" stroke="black" stroke-linejoin="round"/>
</svg>
