<svg width="23" height="20" viewBox="0 0 23 20" fill="none" xmlns="http://www.w3.org/2000/svg">
<path d="M19.5151 1.15761C27.1963 2.6207 17.2289 13.1976 12.6567 16.7029L9.91346 18.989H5.34131H1.22653C0.312104 16.2457 2.14096 2.07204 7.17033 2.52926C10.5511 2.83661 10.4033 5.10238 9.6825 6.72255C11.6962 3.21416 14.8942 0.277424 19.5151 1.15761Z" fill="#71A20F"/>
<path d="M7.17033 13.5024C7.49141 11.8435 8.162 9.64711 9.22961 7.55862M12.6567 16.7029C17.2289 13.1976 27.1963 2.6207 19.5151 1.15761C14.531 0.20826 11.2025 3.69926 9.22961 7.55862M9.22961 7.55862C10.2196 6.03457 11.1938 2.89503 7.17033 2.52926C2.14096 2.07204 0.312104 16.2457 1.22653 18.989" stroke="black" stroke-linecap="round"/>
</svg>