<svg width="53" height="50" viewBox="0 0 53 50" fill="none" xmlns="http://www.w3.org/2000/svg">
<path opacity="0.6" d="M12.3741 8.0241C21.9284 5.50348 26.8156 15.7481 28.5986 22.5067L23.7993 23.5986C23.7993 23.5986 19.1448 23.5708 16.1946 22.5067C7.28346 19.2925 6.58144 9.55233 12.3741 8.0241Z" fill="white" stroke="black" stroke-linecap="round"/>
<path d="M45.7022 28.6633C44.4795 24.0289 40.7678 21.7034 39.0648 21.1199C30.3752 23.4124 20.9213 22.8084 17.2606 20.676C13.5999 18.5436 2.77783 24.4969 6.9007 34.2527C11.0236 44.0086 25.2043 44.9147 36.7906 41.858C46.0595 39.4126 45.7822 34.8382 46.4663 31.5596L50.4291 28.9654L45.7022 28.6633Z" fill="#FEEF48" stroke="black" stroke-linecap="round"/>
<ellipse cx="17.0986" cy="30.001" rx="2" ry="2.5" fill="black"/>
<ellipse cx="8.09863" cy="30.001" rx="2" ry="2.5" fill="black"/>
<path d="M45.7037 28.6657C44.481 24.0312 40.5145 20.7395 36.1696 21.8858C36.1696 21.8858 39.575 23.0503 41.3589 29.8119C44.0606 40.0528 36.7921 41.8603 36.7921 41.8603C36.7921 41.8603 47.3119 40.6333 46.4678 31.562L50.4306 28.9677L45.7037 28.6657Z" fill="black"/>
<path d="M31.5985 22.0007C36.5987 26.5006 38.0986 36.001 31.5991 42.5001" stroke="black" stroke-linecap="round"/>
<path d="M22.3009 22.4453C23.9299 26.6628 25.0565 38.7582 18.7208 41.9787" stroke="black" stroke-linecap="round"/>
<path opacity="0.6" d="M31.2557 4.88718C21.3754 5.01528 22.4714 18.5646 24.2545 25.3232L29.3097 25.2453C29.3097 25.2453 33.3447 22.925 35.386 20.5441C41.5518 13.3523 43.6061 4.72706 31.2557 4.88718Z" fill="white" stroke="black" stroke-linecap="round"/>
<path d="M17.4654 25.2708C17.9215 23.0851 18.5986 18.001 13.0992 16.0013" stroke="black" stroke-linecap="round"/>
<ellipse cx="13.0987" cy="16.0014" rx="1" ry="1.5" transform="rotate(-60.5215 13.0987 16.0014)" fill="black"/>
<ellipse cx="3.89654" cy="19.1098" rx="1" ry="1.5" transform="rotate(-60.5215 3.89654 19.1098)" fill="black"/>
<path d="M8.95315 24.4171C8.54559 22.8723 7.09003 19.7038 4.52825 19.3882" stroke="black" stroke-linecap="round"/>
</svg>
