<svg width="135" height="138" viewBox="0 0 135 138" fill="none" xmlns="http://www.w3.org/2000/svg">
<path d="M57.0755 42.1034C50.805 51.4375 51.5356 63.2443 52.6847 67.981C64.0407 77.8096 79.8423 67.7224 85.7755 64.685C91.7087 61.6477 86.9804 52.0869 82.965 47.8192C79.7527 44.405 75.8734 46.4514 74.3352 47.9013C75.6475 45.2935 76.5414 43.1145 76.6155 41.9174C76.9026 37.2774 64.9135 30.4359 57.0755 42.1034Z" fill="url(#paint0_radial_31362_3186)"/>
<path d="M64.2476 64.89C66.9758 60.75 71.5786 53.3793 74.3352 47.9013M74.3352 47.9013C75.6475 45.2935 76.5414 43.1145 76.6155 41.9174C76.9026 37.2774 64.9135 30.4359 57.0755 42.1034C50.805 51.4374 51.5356 63.2443 52.6847 67.981C64.0407 77.8096 79.8423 67.7224 85.7755 64.685C91.7087 61.6477 86.9804 52.0869 82.965 47.8192C79.7527 44.405 75.8734 46.4514 74.3352 47.9013Z" stroke="black" stroke-linecap="round" stroke-linejoin="round"/>
<path d="M52.5848 71.5135C34.7441 93.2359 5.72201 153.138 -2.24266 175.354L7.59429 176.604C22.1802 124.766 49.7068 82.1057 57.9836 73.1619C60.5333 73.1376 65.3468 72.8088 67.3165 71.3732C69.2861 69.9377 67.2146 60.674 60.4012 59.2558C51.9428 57.4952 52.5101 62.3649 52.5848 71.5135Z" fill="#6E9128" stroke="black"/>
<path d="M42.5363 54.1021C58.6651 70.3047 32.3285 110.458 22.4846 124.367L20.6043 123.396L18.7241 122.425C38.392 90.1799 21.5726 33.0425 42.5363 54.1021Z" fill="#6E9128"/>
<path d="M20.6043 123.396L18.7241 122.425C38.392 90.1799 21.5726 33.0425 42.5363 54.1021C58.6651 70.3047 32.3285 110.458 22.4846 124.367L20.6043 123.396ZM20.6043 123.396C27.5388 111.302 40.4418 81.8529 36.5786 60.8026" stroke="black"/>
<defs>
<radialGradient id="paint0_radial_31362_3186" cx="0" cy="0" r="1" gradientUnits="userSpaceOnUse" gradientTransform="translate(69.5626 59.6298) rotate(26.9073) scale(18.6155 11.6616)">
<stop stop-color="#E9D9A7"/>
<stop offset="1" stop-color="white"/>
</radialGradient>
</defs>
</svg>