<svg width="82" height="148" viewBox="0 0 82 148" fill="none" xmlns="http://www.w3.org/2000/svg">
<path d="M86.0862 26.2081C81.664 17.7653 76.1097 10.2314 69.025 17.2324C63.3573 22.8332 56.2025 33.7309 53.3336 38.4796C53.3661 27.0818 51.2648 4.98456 42.5993 7.77847C31.7674 11.2709 23.4155 18.1941 24.1242 23.3748C24.6912 27.5193 33.9538 36.4395 39.923 43.3303C31.5663 39.1955 15.9347 32.5876 9.8536 36.6366C2.25225 41.6978 2.82027 58.7104 14.3713 58.638C23.6121 58.5801 32.5152 55.3181 35.8116 53.6944C31.5404 57.3783 21.5359 65.449 15.6875 68.2596C8.37708 71.7729 9.18597 78.9263 15.6585 79.0705C32.8959 79.4547 37.4888 70.0434 42.466 61.9199C36.8858 76.2319 44.2766 75.1556 49.2007 71.3836C53.14 68.3661 50.6475 58.4794 48.9088 53.9133C55.3441 55.2386 69.7639 56.3539 75.9609 50.2126C83.7071 42.536 75.5641 44.2883 64.9833 45.2909C76.8387 38.5632 88.455 30.7305 86.0862 26.2081Z" fill="url(#paint0_radial_31362_3192)"/>
<path d="M48.9088 53.9133C55.3441 55.2386 69.7639 56.3539 75.9609 50.2126C83.7071 42.536 75.5641 44.2883 64.9833 45.2909M48.9088 53.9133C53.2237 51.6621 59.1326 48.6111 64.9833 45.2909M48.9088 53.9133C50.6475 58.4794 53.14 68.3661 49.2007 71.3836C44.2766 75.1556 36.8858 76.2319 42.466 61.9199M48.9088 53.9133C46.2502 56.0125 44.3311 58.8758 42.466 61.9199M64.9833 45.2909C76.8387 38.5632 88.455 30.7305 86.0862 26.2081C81.664 17.7653 76.1097 10.2314 69.025 17.2324C63.3573 22.8332 56.2025 33.7309 53.3336 38.4796C53.3661 27.0818 51.2648 4.98456 42.5993 7.77847C31.7674 11.2709 23.4155 18.1941 24.1242 23.3748C24.6912 27.5193 33.9538 36.4395 39.923 43.3303C31.5663 39.1955 15.9347 32.5876 9.8536 36.6366C2.25225 41.6978 2.82027 58.7104 14.3713 58.638C23.6121 58.5801 32.5152 55.3181 35.8116 53.6944C31.5404 57.3784 21.5359 65.449 15.6875 68.2596C8.37708 71.7729 9.18597 78.9263 15.6585 79.0705C32.8959 79.4547 37.4888 70.0434 42.466 61.9199" stroke="black" stroke-linecap="round" stroke-linejoin="round"/>
<path d="M58.2923 57.8185C79.0177 82.569 113.001 151.042 122.391 176.467L111.108 178.011C93.7906 118.64 61.7131 69.9509 52.1104 59.7705C49.182 59.7705 43.6507 59.4455 41.3731 57.8185C39.0955 56.1915 41.3731 45.5306 49.182 43.8275C58.8762 41.7131 58.278 47.3116 58.2923 57.8185Z" fill="#6E9128" stroke="black"/>
<defs>
<radialGradient id="paint0_radial_31362_3192" cx="0" cy="0" r="1" gradientUnits="userSpaceOnUse" gradientTransform="translate(49.0315 51.6502) rotate(149.364) scale(40.93 22.4253)">
<stop stop-color="#E9D9A7"/>
<stop offset="1" stop-color="white"/>
</radialGradient>
</defs>
</svg>
