<svg width="94" height="119" viewBox="0 0 94 119" fill="none" xmlns="http://www.w3.org/2000/svg">
<g filter="url(#filter0_f_31362_4372)">
<path d="M55.7129 13.436C65.856 17.0988 75.1539 22.1702 68.3918 31.1863C62.9821 38.3992 51.8623 48.0916 46.9785 52.0361C59.7514 50.2517 84.8463 49.2186 83.0431 59.3617C80.789 72.0407 74.3084 82.4656 68.3918 82.4656C63.6585 82.4656 52.2378 73.4494 43.5972 67.8144C49.5142 76.5487 59.3195 93.0595 55.7129 100.498C51.2046 109.796 32.0451 111.768 30.3548 98.8073C29.0025 88.4388 31.294 77.9575 32.6088 74.0129C29.1339 79.3663 21.6204 91.8198 19.3664 98.8073C16.5489 107.542 8.40535 107.732 7.25098 100.498C4.17669 81.2323 14.0231 74.64 22.3669 67.8144C7.17781 76.2651 7.25098 67.8144 10.7245 61.7156C13.5033 56.8366 24.9692 58.1147 30.3548 59.3636C27.8821 52.3524 24.4204 36.3577 30.3548 28.4686C37.7729 18.6072 37.0573 28.0049 37.5559 40.0205C43.2801 25.698 50.2797 11.474 55.7129 13.436Z" fill="url(#paint0_radial_31362_4372)"/>
<path d="M30.3548 59.3636C27.8821 52.3524 24.4204 36.3577 30.3548 28.4686C37.7729 18.6072 37.0573 28.0049 37.5559 40.0205M30.3548 59.3636C32.2168 54.181 34.7311 47.0888 37.5559 40.0205M30.3548 59.3636C24.9692 58.1147 13.5033 56.8366 10.7245 61.7156C7.25098 67.8144 7.17781 76.2651 22.3669 67.8144M30.3548 59.3636C28.4091 62.6661 25.4935 65.2566 22.3669 67.8144M37.5559 40.0205C43.2801 25.698 50.2797 11.474 55.7129 13.436C65.856 17.0988 75.1539 22.1702 68.3918 31.1863C62.9821 38.3992 51.8623 48.0916 46.9785 52.0361C59.7514 50.2517 84.8463 49.2186 83.0431 59.3617C80.789 72.0407 74.3084 82.4656 68.3918 82.4656C63.6585 82.4656 52.2378 73.4494 43.5972 67.8144C49.5142 76.5487 59.3195 93.0595 55.7129 100.498C51.2046 109.796 32.0451 111.768 30.3548 98.8073C29.0025 88.4388 31.294 77.9575 32.6088 74.013C29.1339 79.3663 21.6204 91.8198 19.3664 98.8073C16.5489 107.542 8.40535 107.732 7.25098 100.498C4.17669 81.2323 14.0231 74.64 22.3669 67.8144" stroke="black" stroke-linecap="round" stroke-linejoin="round"/>
<path d="M28.7566 51.8543C5.08928 36.9777 -57.0844 16.0716 -80.0004 11L-80.0004 20.8614C-27.0306 28.7505 15.796 49.882 25.6573 56.9259C28.1931 62.6549 25.6573 68.1949 30.273 72.0946C34.9981 76.0867 43.6896 62.561 44.5349 51.8543C45.2111 43.289 37.7727 50.6334 28.7566 51.8543Z" fill="#6E9128" stroke="black"/>
</g>
<g filter="url(#filter1_f_31362_4372)">
<path d="M33.0086 88.7632C35.4403 58.1962 -4.31666 40.2787 -21.2288 25.7975L-20.934 30.1204L-20.6391 34.4433C14.5051 68.9617 29.9689 126.972 33.0086 88.7632Z" fill="#6E9128"/>
<path d="M-20.934 30.1204L-20.6391 34.4433C14.5051 68.9617 29.9689 126.972 33.0086 88.7632C35.4403 58.1962 -4.31666 40.2787 -21.2288 25.7975L-20.934 30.1204ZM-20.934 30.1204C-8.84006 41.8902 16.2566 67.9302 19.8921 77.9318" stroke="black" stroke-linecap="round"/>
</g>
<defs>
<filter id="filter0_f_31362_4372" x="-90.5005" y="0.376953" width="184.136" height="118.123" filterUnits="userSpaceOnUse" color-interpolation-filters="sRGB">
<feFlood flood-opacity="0" result="BackgroundImageFix"/>
<feBlend mode="normal" in="SourceGraphic" in2="BackgroundImageFix" result="shape"/>
<feGaussianBlur stdDeviation="5" result="effect1_foregroundBlur_31362_4372"/>
</filter>
<filter id="filter1_f_31362_4372" x="-31.8086" y="14.6426" width="75.4238" height="97.1719" filterUnits="userSpaceOnUse" color-interpolation-filters="sRGB">
<feFlood flood-opacity="0" result="BackgroundImageFix"/>
<feBlend mode="normal" in="SourceGraphic" in2="BackgroundImageFix" result="shape"/>
<feGaussianBlur stdDeviation="5" result="effect1_foregroundBlur_31362_4372"/>
</filter>
<radialGradient id="paint0_radial_31362_4372" cx="0" cy="0" r="1" gradientUnits="userSpaceOnUse" gradientTransform="translate(32.873 58.8789) rotate(112.847) scale(46.3129 25.3746)">
<stop stop-color="#E9D9A7"/>
<stop offset="1" stop-color="white"/>
</radialGradient>
</defs>
</svg>
