<svg width="118" height="173" viewBox="0 0 118 173" fill="none" xmlns="http://www.w3.org/2000/svg">
<g filter="url(#filter0_f_31362_3224)">
<path d="M118.062 140.026C115.134 148.154 111.079 155.605 103.872 150.186C98.1054 145.852 90.357 136.941 87.2035 133.027C88.6301 143.263 89.456 163.372 81.3472 161.927C71.2111 160.121 62.8771 154.928 62.8771 150.186C62.8771 146.393 70.0849 137.242 74.5898 130.318C67.6072 135.059 54.4079 142.916 48.4614 140.026C41.0283 136.414 39.4516 121.061 49.8129 119.706C58.1019 118.622 66.481 120.459 69.6344 121.512C65.3548 118.728 55.399 112.707 49.8129 110.901C42.8303 108.643 42.6782 102.117 48.4614 101.192C63.863 98.7285 69.1331 106.619 74.5898 113.305C67.834 101.133 74.5898 101.192 79.4654 103.976C83.3659 106.202 82.3441 115.39 81.3457 119.706C86.9507 117.725 99.7374 114.951 106.044 119.706C113.928 125.65 106.415 125.077 96.8093 125.477C108.259 130.064 119.63 135.673 118.062 140.026Z" fill="url(#paint0_radial_31362_3224)"/>
<path d="M81.3457 119.706C86.9507 117.725 99.7374 114.951 106.044 119.706C113.928 125.65 106.415 125.077 96.8093 125.477M81.3457 119.706C85.4889 121.198 91.1587 123.213 96.8093 125.477M81.3457 119.706C82.3441 115.39 83.3659 106.202 79.4654 103.976C74.5898 101.192 67.834 101.133 74.5898 113.305M81.3457 119.706C78.7056 118.147 76.6346 115.81 74.5898 113.305M96.8093 125.477C108.259 130.064 119.63 135.673 118.062 140.026C115.134 148.154 111.079 155.605 103.872 150.186C98.1054 145.852 90.357 136.941 87.2035 133.027C88.6301 143.263 89.456 163.372 81.3472 161.927C71.2111 160.121 62.8771 154.928 62.8771 150.186C62.8771 146.393 70.0849 137.242 74.5898 130.318C67.6072 135.059 54.4079 142.916 48.4614 140.026C41.0283 136.414 39.4516 121.061 49.8129 119.706C58.1019 118.622 66.481 120.459 69.6344 121.512C65.3548 118.728 55.399 112.707 49.8129 110.901C42.8303 108.643 42.6782 102.117 48.4614 101.192C63.863 98.7285 69.1331 106.619 74.5898 113.305" stroke="black" stroke-linecap="round" stroke-linejoin="round"/>
<path d="M88.4497 116.249C102.286 94.2367 121.73 36.4106 126.447 15.097H117.275C109.938 64.3629 90.2841 104.195 83.7327 113.367C78.4044 115.725 73.2517 113.367 69.6247 117.659C65.9118 122.054 78.4917 130.138 88.4497 130.924C96.4161 131.553 89.5852 124.635 88.4497 116.249Z" fill="#6E9128" stroke="black"/>
<path d="M76.5844 75.266C100.187 71.314 121.605 39.2289 129.363 23.6804L122.929 25.7655C103.456 58.9147 47.0809 80.2061 76.5844 75.266Z" fill="#6E9128" stroke="black"/>
<path d="M25.525 38.1624C41.609 45.4584 68.047 33.7366 79.2556 26.9637L74.4525 25.6235C48.7619 38.8409 5.42005 29.0425 25.525 38.1624Z" fill="#6E9128" stroke="black"/>
</g>
<g filter="url(#filter1_f_31362_3224)">
<path d="M77.8219 84.363C74.5434 90.6223 70.4256 96.2077 65.1732 91.0174C60.9713 86.8651 55.6669 78.7858 53.54 75.2653C53.5641 83.7153 52.0062 100.098 45.5818 98.0263C37.5514 95.4371 31.3595 90.3044 31.8849 86.4636C32.3052 83.3909 39.1723 76.7777 43.5977 71.6691C37.4022 74.7345 25.8134 79.6334 21.305 76.6316C15.6696 72.8794 16.0907 60.2667 24.6544 60.3204C31.5053 60.3633 38.1058 62.7816 40.5496 63.9854C37.3831 61.2542 29.966 55.2709 25.6302 53.1872C20.2104 50.5825 20.8101 45.2792 25.6087 45.1722C38.388 44.8874 41.7931 51.8647 45.483 57.8872C41.346 47.2767 46.8254 48.0746 50.476 50.8711C53.3965 53.1082 51.5486 60.4379 50.2595 63.8231C55.0305 62.8406 65.721 62.0137 70.3152 66.5667C76.0581 72.2579 70.0211 70.9588 62.1767 70.2155C70.966 75.2033 79.578 81.0103 77.8219 84.363Z" fill="url(#paint1_radial_31362_3224)"/>
<path d="M50.2595 63.8231C55.0305 62.8406 65.721 62.0137 70.3152 66.5667C76.0581 72.2579 70.0211 70.9588 62.1767 70.2155M50.2595 63.8231C53.4585 65.4921 57.8392 67.7541 62.1767 70.2155M50.2595 63.8231C51.5485 60.4379 53.3965 53.1082 50.476 50.8711C46.8254 48.0746 41.346 47.2767 45.483 57.8872M50.2595 63.8231C48.2885 62.2668 46.8658 60.1441 45.483 57.8872M62.1767 70.2155C70.966 75.2033 79.578 81.0103 77.8219 84.363C74.5434 90.6223 70.4256 96.2077 65.1732 91.0174C60.9713 86.8651 55.6669 78.7858 53.54 75.2653C53.5641 83.7153 52.0062 100.098 45.5818 98.0263C37.5514 95.4371 31.3595 90.3044 31.8849 86.4636C32.3052 83.3909 39.1723 76.7777 43.5977 71.6691C37.4022 74.7345 25.8134 79.6334 21.305 76.6316C15.6696 72.8794 16.0907 60.2667 24.6544 60.3204C31.5053 60.3633 38.1058 62.7816 40.5496 63.9854C37.3831 61.2542 29.966 55.2709 25.6302 53.1872C20.2104 50.5825 20.8101 45.2792 25.6087 45.1722C38.388 44.8874 41.7931 51.8647 45.483 57.8872" stroke="black" stroke-linecap="round" stroke-linejoin="round"/>
<path d="M57.2161 60.9284C72.5814 42.5791 97.7758 -8.18471 104.737 -27.0345L96.372 -28.1788C83.5336 15.8369 59.7522 51.9338 52.633 59.4812C50.462 59.4812 46.3612 59.7222 44.6727 60.9284C42.9841 62.1347 44.6727 70.0383 50.462 71.301C57.649 72.8685 57.2055 68.718 57.2161 60.9284Z" fill="#6E9128" stroke="black"/>
</g>
<g filter="url(#filter2_f_31362_3224)">
<path opacity="0.6" d="M30.1143 101.949C26.5677 102.318 26.2254 106.399 26.4859 108.908L28.2452 108.664C28.2452 108.664 29.8128 108.061 30.6728 107.325C33.2705 105.103 32.2646 101.726 30.1143 101.949Z" fill="white" stroke="black" stroke-linecap="round"/>
<path d="M21.4988 113.168C21.3202 111.448 22.2763 110.189 22.7767 109.775C26.0023 109.44 29.1163 108.03 30.0799 106.843C31.0434 105.656 35.456 106.285 35.3092 110.104C35.1625 113.923 30.4915 116.038 26.1906 116.485C22.7499 116.842 22.2598 115.263 21.6105 114.243L19.9419 113.873L21.4988 113.168Z" fill="#FEEF48" stroke="black" stroke-linecap="round"/>
<ellipse cx="0.721713" cy="0.902141" rx="0.721713" ry="0.902141" transform="matrix(-0.935392 0.353612 0.353612 0.935392 31.6802 108.871)" fill="black"/>
<ellipse cx="0.721713" cy="0.902141" rx="0.721713" ry="0.902141" transform="matrix(-0.935392 0.353612 0.353612 0.935392 34.7183 107.723)" fill="black"/>
<path d="M21.4987 113.17C21.32 111.449 22.2388 109.832 23.8517 109.665C23.8517 109.665 22.8508 110.492 23.1115 113.002C23.5063 116.804 26.1904 116.486 26.1904 116.486C26.1904 116.486 22.4829 117.415 21.6103 114.245L19.9417 113.875L21.4987 113.17Z" fill="black"/>
<path d="M25.4092 109.12C24.2956 111.277 25.0016 114.675 28.0248 116.04" stroke="black" stroke-linecap="round"/>
<path d="M28.6042 108.084C28.5925 109.716 29.7556 113.942 32.3051 114.221" stroke="black" stroke-linecap="round"/>
<path opacity="0.6" d="M23.3411 103.3C26.6924 102.082 28.0514 106.796 28.312 109.304L26.5957 109.923C26.5957 109.923 24.9376 109.655 23.9448 109.112C20.9459 107.471 19.1519 104.822 23.3411 103.3Z" fill="white" stroke="black" stroke-linecap="round"/>
<path d="M30.5969 108.421C30.164 107.741 29.2867 106.112 30.8878 104.735" stroke="black" stroke-linecap="round"/>
<ellipse cx="0.360857" cy="0.541285" rx="0.360857" ry="0.541285" transform="matrix(-0.768137 -0.640285 -0.640285 0.768137 31.5117 104.55)" fill="black"/>
<ellipse cx="0.360857" cy="0.541285" rx="0.360857" ry="0.541285" transform="matrix(-0.768137 -0.640285 -0.640285 0.768137 35.0146 104.425)" fill="black"/>
<path d="M33.361 107.047C33.3015 106.473 33.3885 105.218 34.2129 104.785" stroke="black" stroke-linecap="round"/>
</g>
<defs>
<filter id="filter0_f_31362_3224" x="9.8623" y="4.59668" width="130.48" height="167.904" filterUnits="userSpaceOnUse" color-interpolation-filters="sRGB">
<feFlood flood-opacity="0" result="BackgroundImageFix"/>
<feBlend mode="normal" in="SourceGraphic" in2="BackgroundImageFix" result="shape"/>
<feGaussianBlur stdDeviation="5" result="effect1_foregroundBlur_31362_3224"/>
</filter>
<filter id="filter1_f_31362_3224" x="0.761036" y="-45.0324" width="120.96" height="160.038" filterUnits="userSpaceOnUse" color-interpolation-filters="sRGB">
<feFlood flood-opacity="0" result="BackgroundImageFix"/>
<feBlend mode="normal" in="SourceGraphic" in2="BackgroundImageFix" result="shape"/>
<feGaussianBlur stdDeviation="8.15" result="effect1_foregroundBlur_31362_3224"/>
</filter>
<filter id="filter2_f_31362_3224" x="12.3691" y="95.4385" width="29.4438" height="27.5977" filterUnits="userSpaceOnUse" color-interpolation-filters="sRGB">
<feFlood flood-opacity="0" result="BackgroundImageFix"/>
<feBlend mode="normal" in="SourceGraphic" in2="BackgroundImageFix" result="shape"/>
<feGaussianBlur stdDeviation="3" result="effect1_foregroundBlur_31362_3224"/>
</filter>
<radialGradient id="paint0_radial_31362_3224" cx="0" cy="0" r="1" gradientUnits="userSpaceOnUse" gradientTransform="translate(81.7331 121.724) rotate(-157.105) scale(37.0376 20.3263)">
<stop stop-color="#E9D9A7"/>
<stop offset="1" stop-color="white"/>
</radialGradient>
<radialGradient id="paint1_radial_31362_3224" cx="0" cy="0" r="1" gradientUnits="userSpaceOnUse" gradientTransform="translate(50.3505 65.5009) rotate(-149.364) scale(30.3444 16.6255)">
<stop stop-color="#E9D9A7"/>
<stop offset="1" stop-color="white"/>
</radialGradient>
</defs>
</svg>
