<svg width="227" height="285" viewBox="0 0 227 285" fill="none" xmlns="http://www.w3.org/2000/svg">
  <ellipse cx="171.5" cy="228" rx="55.5" ry="13" fill="black" fill-opacity="0.2"/>
  <path d="M104.612 238.226C97.1219 232.918 160.785 75.6968 165.192 75.6968C169.599 75.6968 168.496 79.0113 188.323 132.556C209.158 188.821 225.773 236.33 215.309 236.33C206.938 236.33 198.237 224.642 194.932 218.798C195.667 224.642 195.373 236.33 188.323 236.33C181.274 236.33 177.309 223.062 176.207 216.428C175.84 226.379 173.233 246.092 165.743 245.333C158.253 244.575 151.608 228.907 149.221 221.167C146.284 226.853 138.978 237.847 133.25 236.33C127.522 234.814 130.864 219.587 133.25 212.164C126.825 223.062 112.102 243.533 104.612 238.226Z" fill="#1C4B51" stroke="black"/>
  <g filter="url(#filter0_d_22057_76)">
    <path d="M104.612 182.316C97.1219 177.925 160.785 47.8491 165.192 47.8491C169.599 47.8491 168.496 50.5914 188.323 94.8915C209.158 141.442 225.773 180.748 215.309 180.748C206.938 180.748 198.237 171.078 194.932 166.243C195.667 171.078 195.373 180.748 188.323 180.748C181.274 180.748 177.309 169.771 176.207 164.282C175.84 172.515 173.233 188.824 165.743 188.197C158.253 187.569 151.608 174.606 149.221 168.203C146.284 172.907 138.978 182.002 133.25 180.748C127.522 179.493 130.864 166.896 133.25 160.754C126.825 169.771 112.102 186.707 104.612 182.316Z" fill="#1C4B51"/>
    <path d="M104.612 182.316C97.1219 177.925 160.785 47.8491 165.192 47.8491C169.599 47.8491 168.496 50.5914 188.323 94.8915C209.158 141.442 225.773 180.748 215.309 180.748C206.938 180.748 198.237 171.078 194.932 166.243C195.667 171.078 195.373 180.748 188.323 180.748C181.274 180.748 177.309 169.771 176.207 164.282C175.84 172.515 173.233 188.824 165.743 188.197C158.253 187.569 151.608 174.606 149.221 168.203C146.284 172.907 138.978 182.002 133.25 180.748C127.522 179.493 130.864 166.896 133.25 160.754C126.825 169.771 112.102 186.707 104.612 182.316Z" stroke="black"/>
  </g>
  <g filter="url(#filter1_d_22057_76)">
    <circle cx="190.544" cy="69.8081" r="6.45852" fill="#FFF5A9"/>
    <circle cx="190.544" cy="69.8081" r="5.95852" stroke="black"/>
  </g>
  <g filter="url(#filter2_d_22057_76)">
    <path d="M118.383 125.507C112.189 121.15 152.51 52.4671 157.996 42.408C163.482 32.349 169.884 25.0292 182.538 58.9578C199.77 105.159 210.999 125.507 202.344 125.507C195.421 125.507 193.39 108.517 190.657 103.718C191.264 108.517 191.021 118.115 185.191 118.115C179.361 118.115 176.081 107.22 175.17 101.772C174.866 109.943 172.71 126.13 166.516 125.507C160.321 124.885 154.824 112.019 152.851 105.663C150.421 110.333 144.378 119.36 139.641 118.115C134.904 116.869 138.799 106.63 140.773 100.535C135.459 109.484 124.578 129.865 118.383 125.507Z" fill="#2B646B"/>
    <path d="M118.383 125.507C112.189 121.15 152.51 52.4671 157.996 42.408C163.482 32.349 169.884 25.0292 182.538 58.9578C199.77 105.159 210.999 125.507 202.344 125.507C195.421 125.507 193.39 108.517 190.657 103.718C191.264 108.517 191.021 118.115 185.191 118.115C179.361 118.115 176.081 107.22 175.17 101.772C174.866 109.943 172.71 126.13 166.516 125.507C160.321 124.885 154.824 112.019 152.851 105.663C150.421 110.333 144.378 119.36 139.641 118.115C134.904 116.869 138.799 106.63 140.773 100.535C135.459 109.484 124.578 129.865 118.383 125.507Z" stroke="black"/>
  </g>
  <g filter="url(#filter3_d_22057_76)">
    <path d="M166.5 11L169.842 22.7111L181.655 19.75L173.184 28.5L181.655 37.25L169.842 34.2889L166.5 46L163.158 34.2889L151.345 37.25L159.816 28.5L151.345 19.75L163.158 22.7111L166.5 11Z" fill="#FFF5A9"/>
    <path d="M166.981 10.8628C166.92 10.6481 166.723 10.5 166.5 10.5C166.277 10.5 166.08 10.6481 166.019 10.8628L162.81 22.1084L151.466 19.265C151.25 19.2107 151.023 19.3066 150.912 19.5C150.8 19.6934 150.83 19.9373 150.985 20.0978L159.12 28.5L150.985 36.9022C150.83 37.0627 150.8 37.3066 150.912 37.5C151.023 37.6934 151.25 37.7893 151.466 37.735L162.81 34.8916L166.019 46.1372C166.08 46.3519 166.277 46.5 166.5 46.5C166.723 46.5 166.92 46.3519 166.981 46.1372L170.19 34.8916L181.534 37.735C181.75 37.7893 181.977 37.6934 182.088 37.5C182.2 37.3066 182.17 37.0627 182.015 36.9022L173.88 28.5L182.015 20.0978C182.17 19.9373 182.2 19.6934 182.088 19.5C181.977 19.3066 181.75 19.2107 181.534 19.265L170.19 22.1084L166.981 10.8628Z" stroke="black" stroke-linejoin="round"/>
  </g>
  <g filter="url(#filter4_d_22057_76)">
    <circle cx="148.349" cy="60.3355" r="6.45852" fill="#FFF5A9"/>
    <circle cx="148.349" cy="60.3355" r="5.95852" stroke="black"/>
  </g>
  <g filter="url(#filter5_d_22057_76)">
    <circle cx="176.767" cy="93.9199" r="6.45852" fill="#FFF5A9"/>
    <circle cx="176.767" cy="93.9199" r="5.95852" stroke="black"/>
  </g>
  <circle cx="157.459" cy="136.459" r="5.95852" fill="#FFF5A9" stroke="black"/>
  <g filter="url(#filter6_d_22057_76)">
    <circle cx="201.459" cy="159.459" r="6.45852" fill="#FFF5A9"/>
    <circle cx="201.459" cy="159.459" r="5.95852" stroke="black"/>
  </g>
  <ellipse cx="113" cy="254" rx="106" ry="15" fill="black" fill-opacity="0.2"/>
  <mask id="mask0_22057_76" style="mask-type:alpha" maskUnits="userSpaceOnUse" x="30" y="58" width="138" height="129">
    <rect x="30.4297" y="58.4292" width="136.619" height="127.571" fill="#D9D9D9"/>
  </mask>
  <g mask="url(#mask0_22057_76)">
    <path d="M89.0187 60.1717C79.9558 60.1717 72.0958 64.3675 69.2986 66.4654C67.7601 65.3465 62.7519 63.1087 59.3834 67.4761C55.2325 72.8581 59.3834 77.4285 62.7519 83.2485C61.6892 87.1412 61.3265 93.5473 61.3265 102.13C59.4278 111.771 53.9164 135.004 47.0609 150.801C46.4975 152.35 46.0168 153.852 45.5713 155.416C43.3625 163.169 42.017 172.443 35.7323 196.535C28.1799 225.485 41.1868 251.499 43.2847 264.926C45.3826 278.352 34.8932 280.87 33.2149 288.002C31.5366 295.135 62.1658 293.037 66.7811 290.1C71.3965 287.163 68.879 254.856 85.2425 258.632C98.3333 261.653 103.284 281.709 104.124 291.359C114.193 292.898 134.501 294.296 135.172 287.583C136.011 279.191 129.298 281.289 132.235 259.471C135.172 237.653 143.144 230.94 141.886 212.478C140.627 194.017 135.592 170.94 136.851 158.353C138.109 145.766 151.536 126.465 157.829 116.815C164.123 107.164 164.962 95.8359 163.704 93.738C162.697 92.0597 160.767 92.4792 159.927 92.8988C160.347 91.3604 160.934 88.1156 159.927 87.4443C158.92 86.773 157.55 87.724 156.99 88.2835C157.13 87.1646 157.074 84.759 155.732 84.0877C154.389 83.4164 152.934 84.9268 152.375 85.766C152.375 84.9268 151.871 83.0807 149.857 82.4094C147.844 81.7381 145.941 86.3254 145.242 88.703C145.242 88.4233 144.823 87.8639 143.144 87.8639C141.046 87.8639 140.627 90.8009 140.627 92.8988C140.627 94.9967 141.046 96.2554 138.109 102.969C135.76 108.339 130.137 114.437 127.62 116.815C126.781 108.843 122.165 103.388 118.809 91.6401C116.123 82.2415 112.375 75.1367 110.837 72.7591C112.235 70.6612 114.764 64.1154 111.407 60.1716C108.051 56.2278 101.886 59.8923 99.5082 61.5356C97.5035 60.8075 94.183 60.1717 89.0187 60.1717Z" fill="white"/>
    <path d="M102.026 63.1087C101.785 62.6876 101.022 62.0853 99.5082 61.5356M99.5082 61.5356C97.5035 60.8075 94.183 60.1717 89.0187 60.1717C79.9558 60.1717 72.0958 64.3675 69.2986 66.4654C67.7601 65.3465 62.7519 63.1087 59.3834 67.4761C55.2325 72.8581 59.3834 77.4285 62.7519 83.2485M99.5082 61.5356C101.886 59.8923 108.051 56.2278 111.407 60.1716C114.764 64.1154 112.235 70.6612 110.837 72.7591M110.837 72.7591L109.598 71.0951M110.837 72.7591C112.375 75.1367 116.123 82.2415 118.809 91.6401C122.165 103.388 126.781 108.843 127.62 116.815M127.62 116.815C125.802 119.053 121.83 124.283 120.487 127.304M127.62 116.815C130.137 114.437 135.76 108.339 138.109 102.969C141.046 96.2554 140.627 94.9967 140.627 92.8988C140.627 90.8009 141.046 87.8639 143.144 87.8639C144.823 87.8639 145.242 88.4233 145.242 88.703C145.941 86.3254 147.844 81.7381 149.857 82.4094C151.871 83.0807 152.375 84.9268 152.375 85.766C152.934 84.9268 154.389 83.4164 155.732 84.0877C157.074 84.759 157.13 87.1646 156.99 88.2835C157.55 87.724 158.92 86.773 159.927 87.4443C160.934 88.1156 160.347 91.3604 159.927 92.8988C160.766 92.4792 162.697 92.0597 163.704 93.738C164.962 95.8359 164.123 107.164 157.829 116.815C151.536 126.465 138.109 145.766 136.851 158.353C135.592 170.94 140.627 194.017 141.886 212.478C143.144 230.94 135.172 237.653 132.235 259.471C129.298 281.289 136.011 279.191 135.172 287.583C134.501 294.296 114.193 292.898 104.124 291.359C103.284 281.709 98.3333 261.653 85.2425 258.632C68.879 254.856 71.3965 287.163 66.7811 290.1C62.1658 293.037 31.5366 295.135 33.2149 288.002C34.8932 280.87 45.3826 278.352 43.2847 264.926C41.1868 251.499 28.1799 225.485 35.7323 196.535C42.017 172.443 43.3625 163.169 45.5713 155.416C46.0168 153.852 46.4975 152.35 47.0609 150.801C53.9164 135.004 59.4278 111.771 61.3265 102.13C61.3265 93.5473 61.6892 87.1412 62.7519 83.2485M63.0049 82.4094C62.9164 82.6747 62.8321 82.9544 62.7519 83.2485M110.837 282.548C113.914 280.87 121.578 278.52 127.62 282.548M43.2847 280.03C45.4669 279.191 51.1234 278.017 56.2916 280.03" stroke="black" stroke-width="2" stroke-linecap="round" stroke-linejoin="round"/>
    <path d="M67.0727 72.4523C66.7108 71.3666 64.5092 69.8888 63.4536 69.2856C60.5584 70.3714 63.7552 75.1666 65.7155 77.4285C66.3187 76.2222 67.4346 73.538 67.0727 72.4523Z" fill="#D5DDDD"/>
    <path d="M105.072 65.6669C104.71 64.5812 108.159 62.651 109.214 62.0479C112.11 63.1336 110.199 67.9288 108.239 70.1907C107.636 68.9844 105.525 67.024 105.072 65.6669Z" fill="#D5DDDD"/>
    <ellipse cx="153.477" cy="97.7857" rx="4.52381" ry="6.78571" fill="#FFB4AF"/>
    <ellipse cx="144.881" cy="91.9047" rx="1.35714" ry="1.80952" fill="#FFB4AF"/>
    <ellipse cx="150.31" cy="87.3808" rx="1.35714" ry="1.80952" fill="#FFB4AF"/>
    <ellipse cx="155.284" cy="87.8332" rx="0.904762" ry="1.35714" fill="#FFB4AF"/>
    <circle cx="161.62" cy="96.4287" r="0.904762" fill="#FFB4AF"/>
    <circle cx="157.999" cy="91" r="0.904762" fill="#FFB4AF"/>
  </g>
  <path d="M100.249 78.0331C99.9049 79.282 98.4137 78.9724 96.9568 78.5713C95.4998 78.1701 94.1586 77.0363 94.3483 76.3472C94.6921 75.0984 96.6845 74.2604 98.1415 74.6615C99.5985 75.0626 100.593 76.7843 100.249 78.0331Z" fill="black"/>
  <path d="M73.3163 81.6064C73.9273 82.7484 75.3133 82.1172 76.6458 81.4043C77.9782 80.6913 79.036 79.2893 78.6988 78.6591C78.0877 77.5171 75.9594 77.1397 74.6269 77.8527C73.2945 78.5656 72.7052 80.4643 73.3163 81.6064Z" fill="black"/>
  <path d="M87.0889 77.9771C81.4859 78.3411 78.4872 79.5568 77.3029 85.77L77.3029 85.77C76.1186 91.9832 75.3291 96.1255 77.8015 97.6698C81.2626 99.8317 83.0453 99.7188 85.6812 99.6092C88.7313 99.4824 99.4205 99.1899 98.4641 90.8762C97.0756 78.8066 92.6918 77.6132 87.0889 77.9771Z" fill="#D5DDDD"/>
  <path d="M85.3116 79.2768C82.2021 79.9683 80.6472 80.8314 80.6472 83.941V83.941C80.6472 87.0505 80.6472 89.1236 82.202 89.6418C84.3785 90.3673 85.3682 90.1487 86.8377 89.8531C88.5381 89.5111 94.5135 88.3859 93.0856 84.459C91.0125 78.7581 88.4212 78.5852 85.3116 79.2768Z" fill="black"/>
  <path d="M86.8377 89.8531C88.5381 89.5111 94.5135 88.3859 93.0856 84.459C91.0125 78.7581 88.4212 78.5852 85.3116 79.2768C82.2021 79.9683 80.6472 80.8314 80.6472 83.941C80.6472 87.0505 80.6472 89.1236 82.202 89.6418C84.3785 90.3673 85.3682 90.1487 86.8377 89.8531ZM86.8377 89.8531C86.8377 90.3049 86.7681 90.8923 86.5914 91.5246M80.1289 96.3793C84.275 96.3793 86.1114 93.2413 86.5914 91.5246M86.5914 91.5246C87.9553 92.8064 93.0854 95.3427 96.7133 92.7514" stroke="black" stroke-linecap="round" stroke-linejoin="round"/>
  <path d="M86.867 97.9299C86.2157 97.1005 85.4571 96.0309 84.793 94.824L86.866 91.9487L88.9391 92.9853L91.0121 94.0218C90.7703 95.3112 90.1902 96.6382 89.6401 97.6871C89.0639 98.7856 87.6331 98.9055 86.867 97.9299Z" fill="#B86F6F" stroke="black" stroke-linecap="round" stroke-linejoin="round"/>
  <circle cx="102.429" cy="42.403" r="4.98756" transform="rotate(8.03681 102.429 42.403)" fill="white" stroke="black" stroke-width="2" stroke-linejoin="round"/>
  <path d="M98.907 44.6534C94.2927 46.1998 85.2442 54.9352 81.2968 59.1096C88.7178 61.6838 103.778 66.5882 104.648 65.6121C105.736 64.392 104.675 42.7203 98.907 44.6534Z" fill="#DA6254" stroke="black" stroke-width="2" stroke-linejoin="round"/>
  <path d="M76.4331 64.3758C73.9189 64.0208 74.6955 60.4672 75.398 58.7347C80.1994 53.9177 106.825 63.1721 109.265 65.3483C111.706 67.5245 113.322 75.5372 102.541 70.8097C91.7612 66.0822 79.5759 64.8195 76.4331 64.3758Z" fill="white" stroke="black" stroke-width="2" stroke-linejoin="round"/>
  <path d="M181.823 242.689C163.681 236.96 138.855 240.302 128.71 242.689L117.968 251.641C123.339 250.646 139.332 248.418 160.339 247.463C186.597 246.27 181.823 257.012 181.823 267.754C181.823 276.347 192.167 282.474 197.339 284.463L223 279.092C171.677 270.738 204.5 249.85 181.823 242.689Z" fill="#BA4E3A" stroke="black" stroke-linejoin="round"/>
  <path d="M23.3315 258.329C42.1394 257.968 48.047 249.446 48.6498 245.23C53.2714 243.875 61.7912 242.972 58.8977 250.199C55.2808 259.233 48.6498 262.846 29.3596 266.008C13.9273 268.538 15.2938 272.483 17.906 274.139H1.02717C0.625291 269.02 4.52352 258.691 23.3315 258.329Z" fill="#BA4E3A" stroke="black" stroke-linejoin="round"/>
  <path d="M26.1419 155.084L25.4816 155.254L25.3979 155.93C23.4711 171.499 21.1578 194.951 20.4828 214.709C20.1455 224.58 20.2155 233.571 20.9575 240.206C21.3277 243.515 21.8713 246.3 22.6454 248.332C23.3875 250.278 24.4931 251.922 26.2323 252.2C29.1967 252.675 38.3972 253.166 50.5579 253.577C62.7576 253.988 78.0242 254.32 93.189 254.465C108.352 254.609 123.423 254.566 135.228 254.226C141.129 254.056 146.226 253.812 150.116 253.479C152.06 253.312 153.717 253.122 155.028 252.905C156.304 252.694 157.361 252.441 158.029 252.107C158.855 251.694 159.448 250.84 159.901 249.888C160.369 248.902 160.768 247.635 161.113 246.158C161.804 243.199 162.312 239.245 162.671 234.668C163.389 225.505 163.519 213.703 163.258 202.052C162.998 190.398 162.347 178.867 161.5 170.239C161.077 165.93 160.602 162.321 160.097 159.777C159.846 158.512 159.579 157.466 159.291 156.717C159.15 156.349 158.981 155.994 158.77 155.713C158.583 155.464 158.194 155.053 157.581 155.053C156.993 155.053 154.306 154.96 150.073 154.815C139.365 154.446 118.764 153.736 97.202 153.321C82.1844 153.032 66.7244 152.888 53.8878 153.104C47.47 153.213 41.699 153.412 36.9625 153.729C32.2467 154.045 28.4915 154.482 26.1419 155.084Z" fill="#E86348" stroke="black" stroke-width="2"/>
  <path d="M26.1446 155.084L25.4843 155.254L25.4006 155.93C23.471 171.521 24.9824 180.699 28.3661 185.66C30.0842 188.178 32.2752 189.592 34.6702 190.175C37.0399 190.75 39.5405 190.496 41.8958 189.811C48.1389 187.995 51.4469 188.641 53.4143 190.24C55.4661 191.908 56.3955 194.838 57.2735 198.496C57.3824 198.95 57.4904 199.414 57.6 199.885C58.342 203.075 59.1604 206.593 60.8902 209.558C62.9316 213.056 66.2241 215.779 71.9571 216.632C77.7777 217.499 81.9682 215.3 85.1609 211.678C88.2958 208.122 90.5019 203.163 92.4862 198.418C92.7028 197.9 92.9165 197.385 93.1284 196.875C94.893 192.625 96.5301 188.682 98.5704 185.898C99.6997 184.357 100.899 183.251 102.232 182.646C103.542 182.052 105.067 181.902 106.944 182.423C113.194 184.159 117.427 188.648 121.532 193C121.607 193.079 121.682 193.158 121.756 193.238C125.824 197.549 129.94 201.861 135.851 201.861C139.59 201.861 142.21 200.002 144.225 197.685C145.225 196.535 146.091 195.256 146.881 194.018C147.154 193.591 147.415 193.174 147.668 192.768C148.165 191.973 148.636 191.22 149.121 190.514C150.621 188.33 151.881 187.198 153.397 187.245C154.183 187.269 155.188 187.608 156.493 188.544C157.799 189.48 159.344 190.969 161.194 193.187L163.08 195.449L162.961 192.506C162.564 182.702 161.916 173.552 161.141 166.843C160.754 163.494 160.333 160.725 159.888 158.779C159.667 157.814 159.43 157.002 159.169 156.413C159.04 156.122 158.88 155.828 158.675 155.592C158.479 155.367 158.116 155.053 157.584 155.053C156.995 155.053 154.309 154.96 150.076 154.815C139.368 154.446 118.767 153.736 97.2047 153.321C82.1871 153.032 66.7271 152.888 53.8905 153.104C47.4727 153.213 41.7017 153.412 36.9652 153.729C32.2494 154.045 28.4941 154.482 26.1446 155.084Z" fill="white" stroke="black" stroke-width="2"/>
  <path d="M135.851 200.862C149.247 200.862 146.938 174.531 161.962 192.547C161.806 188.713 161.613 184.982 161.388 181.46C160.12 178.996 154.808 174.993 143.704 178.688C129.824 183.308 121.993 178.688 107.212 174.069C92.4303 169.45 82.7278 185.156 79.0323 188.851C75.3368 192.547 72.1041 171.297 55.0114 178.688C41.3372 184.601 29.7177 176.225 25.6172 171.297C26.4228 188.57 34.3782 190.957 41.6161 188.851C67.0218 181.46 50.3928 212.41 72.1041 215.644C93.8153 218.877 90.5817 176.841 107.212 181.46C120.564 185.169 125.037 200.862 135.851 200.862Z" fill="#A1BFDA"/>
  <path d="M105.058 198.742L105.8 215.075C105.816 215.428 105.646 215.762 105.352 215.956L92.1268 224.665C91.1767 225.291 91.8424 226.764 92.94 226.465L105.744 222.973C106.438 222.784 107.099 223.367 106.997 224.079L105.541 234.271C105.389 235.331 106.784 235.856 107.368 234.959L110.976 229.428C111.375 228.816 112.274 228.824 112.662 229.444L120.873 242.582C121.446 243.499 122.864 242.981 122.711 241.911L120.275 224.86C120.202 224.349 120.53 223.866 121.032 223.746L129.148 221.798C130.041 221.583 130.197 220.38 129.389 219.945L120.574 215.198C120.084 214.935 119.904 214.322 120.173 213.835L125.559 204.071C126.03 203.218 125.127 202.264 124.249 202.688L114.443 207.421C114.003 207.634 113.473 207.497 113.191 207.096L106.875 198.121C106.299 197.303 105.013 197.743 105.058 198.742Z" fill="#FFC85A"/>
  <path d="M62.1959 216.047L52.7654 216.473C52.1959 216.498 51.7202 216.044 51.7202 215.474L51.7202 211.272C51.7202 210.185 50.2299 209.878 49.8012 210.878L47.2777 216.759C47.0996 217.175 46.6654 217.419 46.2182 217.355L40.3965 216.529C39.3358 216.378 38.813 217.775 39.7121 218.358L41.858 219.749C42.4732 220.147 42.4645 221.051 41.8418 221.437L34.5665 225.956C33.6474 226.527 34.1634 227.948 35.2347 227.796L44.6003 226.466C45.291 226.368 45.8674 226.99 45.7175 227.671L44.2717 234.243C44.0362 235.313 45.4467 235.928 46.0707 235.027L51.84 226.69C52.1314 226.269 52.6939 226.136 53.143 226.382L58.7737 229.47C59.6282 229.938 60.5798 229.032 60.154 228.156L57.4699 222.631C57.2551 222.188 57.3935 221.656 57.7963 221.374L62.8141 217.865C63.6346 217.291 63.1961 216.001 62.1959 216.047Z" fill="#FFC85A"/>
  <path d="M77.2268 245.712L73.8823 251.565C73.5013 252.232 73.9827 253.061 74.7505 253.061H79.2099C79.8373 253.061 80.3097 252.49 80.1923 251.874L79.0774 246.021C78.9036 245.108 77.6878 244.905 77.2268 245.712Z" fill="#FFC85A"/>
  <circle cx="78.5704" cy="227.654" r="1.84776" fill="#FFC85A"/>
  <circle cx="151.097" cy="209.638" r="3.23359" fill="#FFC85A"/>
  <circle cx="30.9914" cy="200.4" r="3.23359" fill="#FFC85A"/>
  <path d="M159.894 230L161.589 232.967C161.675 233.118 161.721 233.288 161.718 233.462C161.68 235.564 161.215 239.889 160.904 242.486C160.844 242.986 160.418 243.36 159.914 243.36H147.398C146.322 243.36 146.005 241.895 146.984 241.45L157.439 236.698C157.796 236.535 158.025 236.179 158.025 235.787V230.496C158.025 229.471 159.385 229.11 159.894 230Z" fill="#FFC85A"/>
  <path d="M157.584 251.214C149.269 255.372 37.9412 253.062 26.3927 251.214C23.4222 250.739 21.964 243.948 21.4805 233.917C61.6105 236.535 145.842 240.199 161.728 233.917C161.025 243.388 159.713 250.149 157.584 251.214Z" fill="black" fill-opacity="0.2"/>
  <path d="M26.9177 180.171C26.638 181.99 27.0016 185.206 30.6939 183.528C32.6733 180.32 38.0941 172.393 43.9426 166.351C51.2532 158.798 61.3231 109.237 61.3231 102.13L51.2532 123.109C43.1973 129.802 28.3163 144.359 21.8828 150.801C10.1346 164.647 11.8129 174.717 12.6521 176.815C13.3234 178.493 14.61 177.514 15.1694 176.815C14.4701 177.934 13.4911 180.507 15.1694 181.85C16.8477 183.192 18.1064 181.29 18.526 180.171C18.2463 181.29 18.3582 183.696 21.0435 184.367C23.7288 185.038 26.0785 181.85 26.9177 180.171Z" fill="white"/>
  <path d="M61.3231 102.13L51.2532 123.109C43.1974 129.802 28.3163 144.359 21.8828 150.801C10.1346 164.647 11.8129 174.717 12.6521 176.815C13.3234 178.493 14.61 177.514 15.1694 176.815C14.4701 177.934 13.4911 180.507 15.1694 181.85C16.8477 183.192 18.1064 181.29 18.526 180.171C18.2463 181.29 18.3582 183.696 21.0435 184.367C23.7288 185.038 26.0785 181.85 26.9177 180.171C26.638 181.99 27.0016 185.206 30.6939 183.528C32.6733 180.32 38.0941 172.393 43.9426 166.351C46.2611 161.572 49.8325 152.335 53.0469 145.286" stroke="black" stroke-width="2" stroke-linejoin="round"/>
  <mask id="path-52-outside-1_22057_76" maskUnits="userSpaceOnUse" x="13.19" y="57.4835" width="21.3625" height="21.8934" fill="black">
    <rect fill="white" x="13.19" y="57.4835" width="21.3625" height="21.8934"/>
    <path d="M19.0679 61.9245C19.3591 61.2369 19.8221 60.8104 20.4569 60.6448C21.0969 60.467 21.9059 60.5055 22.884 60.7604C23.8497 61.0101 25.0877 61.4547 26.5978 62.0942C28.108 62.7337 29.2888 63.3134 30.1401 63.8332C30.9792 64.3478 31.5541 64.8881 31.8646 65.454C32.1752 66.0199 32.1823 66.6528 31.886 67.3526C31.5324 68.1875 30.9268 68.626 30.0691 68.6683C29.2114 68.7105 28.0206 68.4451 26.4967 67.8722C26.3478 68.258 26.0888 68.8868 25.7196 69.7585L25.3141 70.7162C26.7808 71.4242 27.7974 72.1008 28.3639 72.7462C28.9305 73.3915 29.037 74.1316 28.6834 74.9665C28.387 75.6663 27.9276 76.1016 27.305 76.2724C26.6825 76.4432 25.8945 76.4063 24.941 76.1618C23.9805 75.8998 22.739 75.4465 21.2165 74.8018C19.6941 74.157 18.5046 73.5809 17.648 73.0734C16.7966 72.5536 16.2157 72.0107 15.9051 71.4448C15.5822 70.8737 15.569 70.2382 15.8654 69.5384C16.1201 68.9368 16.5106 68.5447 17.0368 68.3621C17.5507 68.1743 18.1923 68.1636 18.9616 68.3301C19.7239 68.4792 20.6714 68.7718 21.8043 69.2081L22.358 67.9006C22.644 67.2253 22.8607 66.7306 23.0082 66.4166C21.3294 65.6623 20.1612 64.9504 19.5035 64.2809C18.8388 63.594 18.6936 62.8085 19.0679 61.9245Z"/>
  </mask>
  <path d="M19.0679 61.9245C19.3591 61.2369 19.8221 60.8104 20.4569 60.6448C21.0969 60.467 21.9059 60.5055 22.884 60.7604C23.8497 61.0101 25.0877 61.4547 26.5978 62.0942C28.108 62.7337 29.2888 63.3134 30.1401 63.8332C30.9792 64.3478 31.5541 64.8881 31.8646 65.454C32.1752 66.0199 32.1823 66.6528 31.886 67.3526C31.5324 68.1875 30.9268 68.626 30.0691 68.6683C29.2114 68.7105 28.0206 68.4451 26.4967 67.8722C26.3478 68.258 26.0888 68.8868 25.7196 69.7585L25.3141 70.7162C26.7808 71.4242 27.7974 72.1008 28.3639 72.7462C28.9305 73.3915 29.037 74.1316 28.6834 74.9665C28.387 75.6663 27.9276 76.1016 27.305 76.2724C26.6825 76.4432 25.8945 76.4063 24.941 76.1618C23.9805 75.8998 22.739 75.4465 21.2165 74.8018C19.6941 74.157 18.5046 73.5809 17.648 73.0734C16.7966 72.5536 16.2157 72.0107 15.9051 71.4448C15.5822 70.8737 15.569 70.2382 15.8654 69.5384C16.1201 68.9368 16.5106 68.5447 17.0368 68.3621C17.5507 68.1743 18.1923 68.1636 18.9616 68.3301C19.7239 68.4792 20.6714 68.7718 21.8043 69.2081L22.358 67.9006C22.644 67.2253 22.8607 66.7306 23.0082 66.4166C21.3294 65.6623 20.1612 64.9504 19.5035 64.2809C18.8388 63.594 18.6936 62.8085 19.0679 61.9245Z" fill="white"/>
  <path d="M20.4569 60.6448L20.7093 61.6125L20.7169 61.6104L20.7246 61.6083L20.4569 60.6448ZM22.884 60.7604L22.6318 61.7281L22.6336 61.7286L22.884 60.7604ZM30.1401 63.8332L30.6629 62.9808L30.6612 62.9797L30.1401 63.8332ZM31.8646 65.454L32.7413 64.9729L32.7413 64.9729L31.8646 65.454ZM30.0691 68.6683L30.1183 69.6671L30.0691 68.6683ZM26.4967 67.8722L26.8486 66.9362L25.9207 66.5873L25.5638 67.5121L26.4967 67.8722ZM25.3141 70.7162L24.3932 70.3262L24.022 71.2029L24.8794 71.6167L25.3141 70.7162ZM28.3639 72.7462L27.6124 73.4059L28.3639 72.7462ZM27.305 76.2724L27.5696 77.2368L27.305 76.2724ZM24.941 76.1618L24.6779 77.1266L24.6853 77.1286L24.6926 77.1305L24.941 76.1618ZM17.648 73.0734L17.1269 73.927L17.1383 73.9337L17.648 73.0734ZM15.9051 71.4448L16.7818 70.9637L16.7756 70.9527L15.9051 71.4448ZM17.0368 68.3621L17.3646 69.3068L17.3724 69.3041L17.38 69.3013L17.0368 68.3621ZM18.9616 68.3301L18.7501 69.3075L18.7599 69.3096L18.7697 69.3116L18.9616 68.3301ZM21.8043 69.2081L21.4449 70.1413L22.3478 70.4891L22.7251 69.5981L21.8043 69.2081ZM23.0082 66.4166L23.9133 66.8417L24.3455 65.9212L23.418 65.5045L23.0082 66.4166ZM19.5035 64.2809L18.7849 64.9763L18.7902 64.9817L19.5035 64.2809ZM19.9888 62.3145C20.1779 61.8679 20.4191 61.6881 20.7093 61.6125L20.2045 59.6772C19.225 59.9326 18.5403 60.606 18.1471 61.5346L19.9888 62.3145ZM20.7246 61.6083C21.1284 61.4961 21.7424 61.4963 22.6318 61.7281L23.1362 59.7927C22.0694 59.5147 21.0654 59.4378 20.1892 59.6813L20.7246 61.6083ZM22.6336 61.7286C23.5313 61.9607 24.7182 62.3842 26.2079 63.0151L26.9878 61.1734C25.4572 60.5252 24.1681 60.0595 23.1343 59.7922L22.6336 61.7286ZM26.2079 63.0151C27.6976 63.6459 28.8277 64.2036 29.619 64.6867L30.6612 62.9797C29.7498 62.4233 28.5184 61.8216 26.9878 61.1734L26.2079 63.0151ZM29.6173 64.6857C30.3797 65.1532 30.7938 65.5813 30.988 65.9351L32.7413 64.9729C32.3143 64.1948 31.5788 63.5424 30.6629 62.9808L29.6173 64.6857ZM30.988 65.9351C31.1244 66.1836 31.1659 66.4886 30.9651 66.9627L32.8068 67.7425C33.1988 66.8169 33.2261 65.8562 32.7413 64.9729L30.988 65.9351ZM30.9651 66.9627C30.8443 67.248 30.7067 67.4061 30.5801 67.4977C30.4566 67.5872 30.2846 67.6564 30.0199 67.6695L30.1183 69.6671C30.7112 69.6379 31.2709 69.4668 31.7531 69.1176C32.2321 68.7708 32.5741 68.2921 32.8068 67.7425L30.9651 66.9627ZM30.0199 67.6695C29.3724 67.7013 28.3387 67.4964 26.8486 66.9362L26.1448 68.8082C27.7025 69.3939 29.0504 69.7196 30.1183 69.6671L30.0199 67.6695ZM25.5638 67.5121C25.4212 67.8816 25.1677 68.4974 24.7988 69.3686L26.6405 70.1485C27.0099 69.2761 27.2744 68.6344 27.4296 68.2323L25.5638 67.5121ZM24.7988 69.3686L24.3932 70.3262L26.2349 71.1061L26.6405 70.1485L24.7988 69.3686ZM24.8794 71.6167C26.3141 72.3093 27.1819 72.9155 27.6124 73.4059L29.1154 72.0864C28.4129 71.2862 27.2474 70.539 25.7488 69.8156L24.8794 71.6167ZM27.6124 73.4059C27.7873 73.6051 27.8572 73.7768 27.8789 73.9277C27.9012 74.0824 27.8834 74.2912 27.7626 74.5766L29.6042 75.3565C29.837 74.8069 29.9427 74.2282 29.8585 73.6428C29.7737 73.0536 29.5071 72.5326 29.1154 72.0864L27.6124 73.4059ZM27.7626 74.5766C27.5618 75.0506 27.3139 75.233 27.0405 75.308L27.5696 77.2368C28.5413 76.9702 29.2122 76.2821 29.6042 75.3565L27.7626 74.5766ZM27.0405 75.308C26.6513 75.4148 26.0557 75.4153 25.1894 75.1931L24.6926 77.1305C25.7333 77.3973 26.7137 77.4715 27.5696 77.2368L27.0405 75.308ZM25.2042 75.197C24.3057 74.952 23.1108 74.518 21.6065 73.8809L20.8266 75.7226C22.3672 76.375 23.6553 76.8477 24.6779 77.1266L25.2042 75.197ZM21.6065 73.8809C20.1022 73.2439 18.959 72.6878 18.1578 72.2131L17.1383 73.9337C18.0502 74.474 19.286 75.0702 20.8266 75.7226L21.6065 73.8809ZM18.1691 72.2199C17.3925 71.7457 16.9746 71.315 16.7818 70.9637L15.0284 71.9259C15.4568 72.7064 16.2008 73.3615 17.1269 73.9269L18.1691 72.2199ZM16.7756 70.9527C16.631 70.6969 16.5892 70.3936 16.7862 69.9284L14.9445 69.1485C14.5488 70.0829 14.5335 71.0505 15.0346 71.9369L16.7756 70.9527ZM16.7862 69.9284C16.9516 69.5378 17.1525 69.3804 17.3646 69.3068L16.709 67.4174C15.8687 67.7089 15.2887 68.3358 14.9445 69.1485L16.7862 69.9284ZM17.38 69.3013C17.6547 69.201 18.0887 69.1644 18.7501 69.3075L19.1732 67.3528C18.2959 67.1629 17.4468 67.1476 16.6936 67.4228L17.38 69.3013ZM18.7697 69.3116C19.4524 69.445 20.3397 69.7157 21.4449 70.1413L22.1637 68.275C21.0031 67.828 19.9953 67.5133 19.1535 67.3487L18.7697 69.3116ZM22.7251 69.5981L23.2789 68.2905L21.4372 67.5106L20.8835 68.8182L22.7251 69.5981ZM23.2789 68.2905C23.564 67.6171 23.7745 67.1373 23.9133 66.8417L22.103 65.9916C21.9469 66.324 21.7239 66.8335 21.4372 67.5106L23.2789 68.2905ZM23.418 65.5045C21.765 64.7617 20.7389 64.1114 20.2169 63.5801L18.7902 64.9817C19.5836 65.7893 20.8938 66.5628 22.5983 67.3287L23.418 65.5045ZM20.2221 63.5855C19.9993 63.3552 19.9097 63.1587 19.8794 62.9948C19.849 62.8306 19.8623 62.613 19.9888 62.3145L18.1471 61.5346C17.8992 62.12 17.7979 62.7371 17.9127 63.3584C18.0276 63.98 18.343 64.5197 18.7849 64.9763L20.2221 63.5855Z" fill="black" mask="url(#path-52-outside-1_22057_76)"/>
  <mask id="path-54-outside-2_22057_76" maskUnits="userSpaceOnUse" x="22.8478" y="49.4841" width="16.9899" height="17.3297" fill="black">
    <rect fill="white" x="22.8478" y="49.4841" width="16.9899" height="17.3297"/>
    <path d="M35.8424 60.3697C35.3328 61.2146 34.7162 61.8626 33.9925 62.3136C33.2689 62.7647 32.5 62.9939 31.686 63.0011C30.8674 62.9901 30.0813 62.7573 29.3278 62.3028C28.5857 61.8552 28.0074 61.265 27.5929 60.5323C27.1853 59.7882 26.986 58.9828 26.9948 58.1162C27.0037 57.2496 27.2526 56.411 27.7416 55.6003C28.1823 54.8696 28.7198 54.3141 29.3541 53.9337C29.9884 53.5533 30.6405 53.3627 31.3105 53.362C31.9691 53.3544 32.561 53.509 33.0862 53.8258C33.9425 54.3423 34.3742 55.0464 34.3812 55.9382C34.3838 56.8117 34.1165 57.6937 33.5793 58.5843C33.2212 59.178 32.844 59.6356 32.4477 59.9571C33.2137 59.952 33.8343 59.5556 34.3095 58.7678C34.5023 58.4481 34.6689 58.0815 34.8094 57.6679C34.8578 57.5103 34.9198 57.3686 34.9956 57.243C35.1471 56.9919 35.3304 56.8299 35.5455 56.7573C35.7675 56.6732 35.987 56.6965 36.2039 56.8274C36.5578 57.0409 36.7353 57.4437 36.7362 58.036C36.7257 58.6213 36.4277 59.3993 35.8424 60.3697ZM30.3893 58.6455C30.6111 58.6391 30.8136 58.5744 30.9968 58.4514C31.1755 58.31 31.3303 58.1309 31.4611 57.9139C31.6127 57.6628 31.6864 57.4114 31.6824 57.1599C31.6853 56.8969 31.5954 56.7103 31.4128 56.6002C31.2072 56.4762 30.9786 56.4551 30.7269 56.5368C30.4821 56.6071 30.2667 56.7964 30.0807 57.1047C29.8948 57.413 29.8438 57.717 29.9277 58.0167C30.0071 58.2981 30.1609 58.5077 30.3893 58.6455Z"/>
  </mask>
  <path d="M35.8424 60.3697C35.3328 61.2146 34.7162 61.8626 33.9925 62.3136C33.2689 62.7647 32.5 62.9939 31.686 63.0011C30.8674 62.9901 30.0813 62.7573 29.3278 62.3028C28.5857 61.8552 28.0074 61.265 27.5929 60.5323C27.1853 59.7882 26.986 58.9828 26.9948 58.1162C27.0037 57.2496 27.2526 56.411 27.7416 55.6003C28.1823 54.8696 28.7198 54.3141 29.3541 53.9337C29.9884 53.5533 30.6405 53.3627 31.3105 53.362C31.9691 53.3544 32.561 53.509 33.0862 53.8258C33.9425 54.3423 34.3742 55.0464 34.3812 55.9382C34.3838 56.8117 34.1165 57.6937 33.5793 58.5843C33.2212 59.178 32.844 59.6356 32.4477 59.9571C33.2137 59.952 33.8343 59.5556 34.3095 58.7678C34.5023 58.4481 34.6689 58.0815 34.8094 57.6679C34.8578 57.5103 34.9198 57.3686 34.9956 57.243C35.1471 56.9919 35.3304 56.8299 35.5455 56.7573C35.7675 56.6732 35.987 56.6965 36.2039 56.8274C36.5578 57.0409 36.7353 57.4437 36.7362 58.036C36.7257 58.6213 36.4277 59.3993 35.8424 60.3697ZM30.3893 58.6455C30.6111 58.6391 30.8136 58.5744 30.9968 58.4514C31.1755 58.31 31.3303 58.1309 31.4611 57.9139C31.6127 57.6628 31.6864 57.4114 31.6824 57.1599C31.6853 56.8969 31.5954 56.7103 31.4128 56.6002C31.2072 56.4762 30.9786 56.4551 30.7269 56.5368C30.4821 56.6071 30.2667 56.7964 30.0807 57.1047C29.8948 57.413 29.8438 57.717 29.9277 58.0167C30.0071 58.2981 30.1609 58.5077 30.3893 58.6455Z" fill="white"/>
  <path d="M33.9925 62.3136L33.4635 61.465L33.9925 62.3136ZM31.686 63.0011L31.6725 64.001L31.6837 64.0012L31.6949 64.0011L31.686 63.0011ZM27.5929 60.5323L26.7158 61.0127L26.7225 61.0247L27.5929 60.5323ZM26.9948 58.1162L27.9948 58.1265L27.9948 58.1265L26.9948 58.1162ZM29.3541 53.9337L28.8398 53.0761L29.3541 53.9337ZM31.3105 53.362L31.3116 54.3621L31.3221 54.3619L31.3105 53.362ZM34.3812 55.9382L35.3812 55.9353L35.3812 55.9303L34.3812 55.9382ZM32.4477 59.9571L31.8177 59.1805L29.6042 60.9759L32.4543 60.9571L32.4477 59.9571ZM34.8094 57.6679L35.7563 57.9895L35.761 57.9755L35.7654 57.9613L34.8094 57.6679ZM35.5455 56.7573L35.8656 57.7047L35.8828 57.6989L35.8997 57.6924L35.5455 56.7573ZM36.7362 58.036L37.736 58.0539L37.7362 58.0442L37.7362 58.0345L36.7362 58.036ZM30.3893 58.6455L29.8728 59.5018L30.1243 59.6535L30.4179 59.6451L30.3893 58.6455ZM30.9968 58.4514L31.5544 59.2815L31.5867 59.2598L31.6173 59.2356L30.9968 58.4514ZM31.6824 57.1599L30.6825 57.1488L30.6823 57.1623L30.6825 57.1757L31.6824 57.1599ZM30.7269 56.5368L31.0029 57.498L31.0194 57.4932L31.0357 57.4879L30.7269 56.5368ZM29.9277 58.0167L28.9647 58.2863L28.9653 58.2882L29.9277 58.0167ZM34.9861 59.8532C34.5451 60.5844 34.0338 61.1095 33.4635 61.465L34.5215 63.1623C35.3985 62.6156 36.1205 61.8448 36.6987 60.8862L34.9861 59.8532ZM33.4635 61.465C32.8883 61.8236 32.2982 61.9956 31.6771 62.0012L31.6949 64.0011C32.7018 63.9921 33.6495 63.7058 34.5215 63.1623L33.4635 61.465ZM31.6995 62.0012C31.0716 61.9927 30.4576 61.8165 29.8443 61.4465L28.8113 63.1591C29.705 63.6981 30.6632 63.9874 31.6725 64.001L31.6995 62.0012ZM29.8443 61.4465C29.2449 61.085 28.7905 60.6184 28.4633 60.0399L26.7225 61.0247C27.2242 61.9116 27.9264 62.6253 28.8113 63.1591L29.8443 61.4465ZM28.4699 60.0519C28.1465 59.4615 27.9876 58.8255 27.9948 58.1265L25.9949 58.106C25.9843 59.1401 26.2241 60.1149 26.7158 61.0127L28.4699 60.0519ZM27.9948 58.1265C28.0017 57.4546 28.1924 56.7891 28.5979 56.1168L26.8853 55.0838C26.3129 56.0328 26.0058 57.0445 25.9949 58.106L27.9948 58.1265ZM28.5979 56.1168C28.9673 55.5044 29.3945 55.0755 29.8684 54.7913L28.8398 53.0761C28.0452 53.5526 27.3974 54.2349 26.8853 55.0838L28.5979 56.1168ZM29.8684 54.7913C30.3642 54.4939 30.8408 54.3625 31.3116 54.362L31.3094 52.362C30.4402 52.363 29.6126 52.6127 28.8398 53.0761L29.8684 54.7913ZM31.3221 54.3619C31.809 54.3563 32.2155 54.4684 32.5697 54.6821L33.6027 52.9695C32.9064 52.5495 32.1292 52.3525 31.299 52.3621L31.3221 54.3619ZM32.5697 54.6821C33.1713 55.045 33.3773 55.4494 33.3813 55.9461L35.3812 55.9303C35.371 54.6434 34.7136 53.6395 33.6027 52.9695L32.5697 54.6821ZM33.3812 55.9411C33.3831 56.5994 33.1838 57.3039 32.723 58.0678L34.4356 59.1008C35.0491 58.0836 35.3844 57.0241 35.3812 55.9353L33.3812 55.9411ZM32.723 58.0678C32.4047 58.5955 32.0983 58.9529 31.8177 59.1805L33.0776 60.7337C33.5897 60.3183 34.0377 59.7605 34.4356 59.1008L32.723 58.0678ZM32.4543 60.9571C33.6429 60.9492 34.553 60.3002 35.1658 59.2843L33.4532 58.2513C33.1156 58.8109 32.7845 58.9548 32.441 58.9571L32.4543 60.9571ZM35.1658 59.2843C35.4013 58.8937 35.5965 58.4599 35.7563 57.9895L33.8625 57.3463C33.7414 57.703 33.6033 58.0025 33.4532 58.2513L35.1658 59.2843ZM35.7654 57.9613C35.7927 57.8723 35.8232 57.8071 35.8519 57.7595L34.1393 56.7265C34.0165 56.9302 33.9228 57.1482 33.8534 57.3745L35.7654 57.9613ZM35.8519 57.7595C35.8852 57.7042 35.9067 57.6845 35.9087 57.6827C35.9095 57.682 35.9058 57.6853 35.8975 57.6902C35.8891 57.6952 35.8782 57.7004 35.8656 57.7047L35.2255 55.8099C34.7276 55.9781 34.3766 56.3331 34.1393 56.7265L35.8519 57.7595ZM35.8997 57.6924C35.8755 57.7016 35.8285 57.7123 35.7707 57.7061C35.7151 57.7002 35.6856 57.6826 35.6874 57.6837L36.7204 55.9711C36.2611 55.694 35.7218 55.6212 35.1913 55.8221L35.8997 57.6924ZM35.6874 57.6837C35.6877 57.6839 35.6865 57.6831 35.6843 57.6813C35.6821 57.6795 35.6802 57.6776 35.6789 57.676C35.6755 57.6721 35.6796 57.6752 35.6872 57.6927C35.7045 57.732 35.7359 57.8345 35.7362 58.0375L37.7362 58.0345C37.735 57.2586 37.4931 56.4372 36.7204 55.9711L35.6874 57.6837ZM35.7363 58.018C35.7308 58.3285 35.5511 58.9165 34.9861 59.8532L36.6987 60.8862C37.3044 59.882 37.7206 58.9142 37.736 58.0539L35.7363 58.018ZM30.4179 59.6451C30.8274 59.6333 31.2135 59.5105 31.5544 59.2815L30.4393 57.6212C30.4138 57.6384 30.3948 57.6449 30.3607 57.6459L30.4179 59.6451ZM31.6173 59.2356C31.8999 59.012 32.1316 58.7386 32.3174 58.4304L30.6049 57.3975C30.529 57.5231 30.4511 57.608 30.3764 57.6671L31.6173 59.2356ZM32.3174 58.4304C32.5494 58.0459 32.6897 57.6123 32.6823 57.144L30.6825 57.1757C30.6831 57.2106 30.6759 57.2797 30.6049 57.3975L32.3174 58.4304ZM32.6824 57.1709C32.6881 56.6497 32.4895 56.0818 31.9292 55.7439L30.8963 57.4564C30.8265 57.4143 30.7584 57.3441 30.7163 57.2568C30.6788 57.179 30.6827 57.131 30.6825 57.1488L32.6824 57.1709ZM31.9292 55.7439C31.4481 55.4536 30.9138 55.4247 30.4181 55.5857L31.0357 57.4879C31.052 57.4827 31.0352 57.4908 30.9952 57.4871C30.9524 57.4832 30.9167 57.4688 30.8963 57.4564L31.9292 55.7439ZM30.4509 55.5757C29.879 55.7399 29.4869 56.1531 29.2245 56.5882L30.937 57.6212C30.9899 57.5335 31.028 57.4949 31.0419 57.4827C31.0526 57.4732 31.0394 57.4875 31.0029 57.498L30.4509 55.5757ZM29.2245 56.5882C28.9205 57.0922 28.7947 57.6787 28.9647 58.2863L30.8907 57.7471C30.8888 57.7403 30.8886 57.7372 30.8886 57.7367C30.8886 57.7362 30.8884 57.7342 30.8892 57.7294C30.8907 57.7205 30.8983 57.6853 30.937 57.6212L29.2245 56.5882ZM28.9653 58.2882C29.1063 58.7884 29.4051 59.2196 29.8728 59.5018L30.9058 57.7892C30.9025 57.7872 30.9026 57.7869 30.9045 57.7886C30.9064 57.7904 30.908 57.7922 30.9087 57.7932C30.911 57.7962 30.9014 57.785 30.8902 57.7453L28.9653 58.2882Z" fill="black" mask="url(#path-54-outside-2_22057_76)"/>
  <mask id="path-56-outside-3_22057_76" maskUnits="userSpaceOnUse" x="28.7297" y="40.4476" width="17.4719" height="17.6382" fill="black">
    <rect fill="white" x="28.7297" y="40.4476" width="17.4719" height="17.6382"/>
    <path d="M43.2493 50.0064C42.9521 50.3834 42.6245 50.5835 42.2665 50.6069C41.9168 50.6199 41.5736 50.5276 41.2369 50.3301C40.9002 50.1326 40.491 49.844 40.0094 49.4643C39.3916 48.9773 38.8491 48.6855 38.382 48.5889C37.9148 48.4923 37.5327 48.6325 37.2355 49.0094C36.9631 49.355 36.9243 49.7488 37.1191 50.191C37.3116 50.6144 37.6958 51.0531 38.2717 51.5071C38.8267 51.9446 39.2332 52.2905 39.4911 52.5447C39.7491 52.799 39.9178 53.1018 39.9974 53.4532C40.0665 53.7963 39.9401 54.172 39.6182 54.5804C39.1477 55.1772 38.4353 55.2948 37.4811 54.9331C36.5164 54.5631 35.5157 53.9695 34.4791 53.1523C31.966 51.1713 31.1263 49.652 31.96 48.5944C32.1911 48.3012 32.4542 48.1182 32.7494 48.0452C33.0341 47.9641 33.3362 47.99 33.6558 48.1231C33.6165 47.8714 33.6507 47.5588 33.7584 47.1853C33.8743 46.8013 34.0602 46.447 34.3161 46.1224C35.2241 44.9706 36.3198 44.4421 37.6032 44.537C38.8949 44.6214 40.258 45.2291 41.6925 46.3599C42.5407 47.0285 43.1242 47.6667 43.443 48.2746C43.7513 48.8742 43.6867 49.4514 43.2493 50.0064Z"/>
  </mask>
  <path d="M43.2493 50.0064C42.9521 50.3834 42.6245 50.5835 42.2665 50.6069C41.9168 50.6199 41.5736 50.5276 41.2369 50.3301C40.9002 50.1326 40.491 49.844 40.0094 49.4643C39.3916 48.9773 38.8491 48.6855 38.382 48.5889C37.9148 48.4923 37.5327 48.6325 37.2355 49.0094C36.9631 49.355 36.9243 49.7488 37.1191 50.191C37.3116 50.6144 37.6958 51.0531 38.2717 51.5071C38.8267 51.9446 39.2332 52.2905 39.4911 52.5447C39.7491 52.799 39.9178 53.1018 39.9974 53.4532C40.0665 53.7963 39.9401 54.172 39.6182 54.5804C39.1477 55.1772 38.4353 55.2948 37.4811 54.9331C36.5164 54.5631 35.5157 53.9695 34.4791 53.1523C31.966 51.1713 31.1263 49.652 31.96 48.5944C32.1911 48.3012 32.4542 48.1182 32.7494 48.0452C33.0341 47.9641 33.3362 47.99 33.6558 48.1231C33.6165 47.8714 33.6507 47.5588 33.7584 47.1853C33.8743 46.8013 34.0602 46.447 34.3161 46.1224C35.2241 44.9706 36.3198 44.4421 37.6032 44.537C38.8949 44.6214 40.258 45.2291 41.6925 46.3599C42.5407 47.0285 43.1242 47.6667 43.443 48.2746C43.7513 48.8742 43.6867 49.4514 43.2493 50.0064Z" fill="white"/>
  <path d="M42.2665 50.6069L42.3035 51.6063L42.3176 51.6057L42.3318 51.6048L42.2665 50.6069ZM41.2369 50.3301L41.7429 49.4675L41.7429 49.4675L41.2369 50.3301ZM37.1191 50.191L36.2038 50.5941L36.2088 50.6049L37.1191 50.191ZM39.4911 52.5447L38.7891 53.2569L39.4911 52.5447ZM39.9974 53.4532L40.9777 53.2557L40.9754 53.244L40.9727 53.2323L39.9974 53.4532ZM37.4811 54.9331L37.123 55.8668L37.1266 55.8681L37.4811 54.9331ZM32.7494 48.0452L32.9892 49.0161L33.0065 49.0118L33.0236 49.0069L32.7494 48.0452ZM33.6558 48.1231L33.2714 49.0462L34.9191 49.7323L34.6438 47.9688L33.6558 48.1231ZM33.7584 47.1853L32.801 46.8962L32.7975 46.9083L33.7584 47.1853ZM37.6032 44.537L37.5295 45.5343L37.538 45.5349L37.6032 44.537ZM43.443 48.2746L44.3323 47.8172L44.3286 47.8101L43.443 48.2746ZM42.4639 49.3873C42.3711 49.5051 42.3002 49.561 42.2593 49.586C42.2237 49.6077 42.2076 49.6087 42.2013 49.6091L42.3318 51.6048C43.0594 51.5573 43.6242 51.1461 44.0346 50.6255L42.4639 49.3873ZM42.2296 49.6076C42.0916 49.6127 41.9348 49.5801 41.7429 49.4675L40.7309 51.1926C41.2123 51.475 41.742 51.627 42.3035 51.6063L42.2296 49.6076ZM41.7429 49.4675C41.4612 49.3023 41.092 49.0444 40.6284 48.679L39.3903 50.2496C39.8901 50.6436 40.3392 50.9629 40.7309 51.1926L41.7429 49.4675ZM40.6284 48.679C39.9585 48.1508 39.2716 47.7517 38.5845 47.6096L38.1795 49.5682C38.4266 49.6193 38.8247 49.8038 39.3903 50.2496L40.6284 48.679ZM38.5845 47.6096C38.2002 47.5302 37.7949 47.5381 37.4006 47.6828C37.0068 47.8272 36.6925 48.0829 36.4502 48.3904L38.0209 49.6285C38.0493 49.5924 38.0699 49.5745 38.08 49.5668C38.0894 49.5597 38.0921 49.5594 38.0894 49.5604C38.0866 49.5614 38.0883 49.5601 38.0988 49.5595C38.1103 49.5589 38.1361 49.5592 38.1795 49.5682L38.5845 47.6096ZM36.4502 48.3904C36.2094 48.6959 36.0471 49.058 36.0069 49.4659C35.9673 49.868 36.0524 50.2501 36.2039 50.5941L38.0342 49.7879C37.991 49.6897 37.9981 49.6538 37.9973 49.6621C37.997 49.6647 37.9962 49.6669 37.9967 49.6656C37.9976 49.6636 38.003 49.6511 38.0209 49.6285L36.4502 48.3904ZM36.2088 50.6049C36.4947 51.2338 37.0164 51.7909 37.6527 52.2924L38.8908 50.7218C38.3752 50.3153 38.1285 49.995 38.0294 49.7771L36.2088 50.6049ZM37.6527 52.2924C38.2004 52.7242 38.5717 53.0426 38.7891 53.2569L40.1931 51.8326C39.8947 51.5384 39.453 51.165 38.8908 50.7218L37.6527 52.2924ZM38.7891 53.2569C38.9117 53.3777 38.985 53.5103 39.0221 53.6741L40.9727 53.2323C40.8507 52.6933 40.5865 52.2203 40.1931 51.8326L38.7891 53.2569ZM39.0171 53.6506C39.0126 53.6283 39.0215 53.6294 39.0066 53.6734C38.9894 53.7247 38.9437 53.8206 38.8329 53.9613L40.4035 55.1994C40.8172 54.6746 41.1283 54.0034 40.9777 53.2557L39.0171 53.6506ZM38.8329 53.9613C38.7431 54.0752 38.6645 54.1137 38.5682 54.1295C38.4434 54.1501 38.2124 54.1408 37.8355 53.998L37.1266 55.8681C37.704 56.087 38.3063 56.1998 38.8939 56.1028C39.51 56.0012 40.0228 55.6824 40.4035 55.1994L38.8329 53.9613ZM37.8392 53.9994C36.9903 53.6738 36.0765 53.1383 35.0981 52.367L33.86 53.9377C34.9549 54.8008 36.0425 55.4523 37.123 55.8668L37.8392 53.9994ZM35.0981 52.367C33.8729 51.4012 33.1616 50.6258 32.8397 50.0434C32.6841 49.7618 32.6487 49.5772 32.6485 49.4718C32.6483 49.3859 32.6696 49.3095 32.7453 49.2135L31.1746 47.9753C30.8335 48.4081 30.6472 48.9183 30.6485 49.4765C30.6497 50.0154 30.825 50.5327 31.0893 51.0108C31.607 51.9477 32.5721 52.9225 33.86 53.9377L35.0981 52.367ZM32.7453 49.2135C32.8709 49.0541 32.9555 49.0244 32.9892 49.0161L32.5096 47.0744C31.953 47.2119 31.5113 47.5483 31.1746 47.9753L32.7453 49.2135ZM33.0236 49.0069C33.0552 48.9979 33.1238 48.9848 33.2714 49.0462L34.0402 47.1999C33.5487 46.9953 33.0131 46.9302 32.4752 47.0836L33.0236 49.0069ZM34.6438 47.9688C34.6357 47.9168 34.6327 47.7624 34.7193 47.4623L32.7975 46.9083C32.6687 47.3551 32.5973 47.826 32.6678 48.2773L34.6438 47.9688ZM34.7157 47.4743C34.7944 47.2138 34.9206 46.9708 35.1015 46.7415L33.5308 45.5033C33.1998 45.9231 32.9543 46.3888 32.8011 46.8962L34.7157 47.4743ZM35.1015 46.7415C35.8372 45.8082 36.628 45.4676 37.5295 45.5343L37.677 43.5397C36.0116 43.4166 34.611 44.133 33.5308 45.5033L35.1015 46.7415ZM37.538 45.5349C38.5604 45.6017 39.7349 46.09 41.0735 47.1452L42.3116 45.5746C40.7811 44.3681 39.2294 43.6412 37.6684 43.5391L37.538 45.5349ZM41.0735 47.1452C41.8677 47.7713 42.3306 48.3066 42.5574 48.739L44.3286 47.8101C43.9178 47.0268 43.2137 46.2857 42.3116 45.5746L41.0735 47.1452ZM42.5537 48.7319C42.6326 48.8854 42.6391 48.983 42.632 49.0461C42.6246 49.1127 42.5923 49.2245 42.4639 49.3873L44.0346 50.6255C44.3438 50.2333 44.5625 49.779 44.6196 49.2684C44.6771 48.7542 44.5617 48.2633 44.3323 47.8172L42.5537 48.7319Z" fill="black" mask="url(#path-56-outside-3_22057_76)"/>
  <mask id="path-58-outside-4_22057_76" maskUnits="userSpaceOnUse" x="32.7179" y="33.4245" width="17.0797" height="16.8547" fill="black">
    <rect fill="white" x="32.7179" y="33.4245" width="17.0797" height="16.8547"/>
    <path d="M46.2614 46.6899C45.7994 47.1705 45.2751 47.3601 44.6884 47.2587C44.1018 47.1572 43.4208 46.8171 42.6454 46.2384C41.8697 45.6409 40.857 44.7416 39.6072 43.5406C38.4055 42.3858 37.4958 41.4562 36.8783 40.7518C36.27 40.0378 35.8795 39.3666 35.7067 38.7382C35.5431 38.1002 35.7107 37.5217 36.2096 37.0025C36.7085 36.4834 37.2753 36.2976 37.9101 36.4453C38.5541 36.5834 39.2403 36.9469 39.9687 37.536C40.7063 38.1154 41.676 38.9825 42.8777 40.1373C44.0602 41.2737 44.9659 42.2458 45.5949 43.0537C46.2236 43.8428 46.6005 44.5378 46.7256 45.1388C46.8411 45.7306 46.6863 46.2476 46.2614 46.6899Z"/>
  </mask>
  <path d="M46.2614 46.6899C45.7994 47.1705 45.2751 47.3601 44.6884 47.2587C44.1018 47.1572 43.4208 46.8171 42.6454 46.2384C41.8697 45.6409 40.857 44.7416 39.6072 43.5406C38.4055 42.3858 37.4958 41.4562 36.8783 40.7518C36.27 40.0378 35.8795 39.3666 35.7067 38.7382C35.5431 38.1002 35.7107 37.5217 36.2096 37.0025C36.7085 36.4834 37.2753 36.2976 37.9101 36.4453C38.5541 36.5834 39.2403 36.9469 39.9687 37.536C40.7063 38.1154 41.676 38.9825 42.8777 40.1373C44.0602 41.2737 44.9659 42.2458 45.5949 43.0537C46.2236 43.8428 46.6005 44.5378 46.7256 45.1388C46.8411 45.7306 46.6863 46.2476 46.2614 46.6899Z" fill="white"/>
  <path d="M44.6884 47.2587L44.518 48.244L44.518 48.244L44.6884 47.2587ZM42.6454 46.2384L42.0352 47.0306L42.0412 47.0353L42.0473 47.0398L42.6454 46.2384ZM36.8783 40.7518L36.1171 41.4003L36.1217 41.4057L36.1264 41.411L36.8783 40.7518ZM35.7067 38.7382L34.738 38.9866L34.7401 38.995L34.7424 39.0034L35.7067 38.7382ZM37.9101 36.4453L37.6835 37.4193L37.6919 37.4213L37.7004 37.4231L37.9101 36.4453ZM39.9687 37.536L39.3399 38.3135L39.3454 38.318L39.3509 38.3224L39.9687 37.536ZM45.5949 43.0537L44.8059 43.6681L44.8128 43.6768L45.5949 43.0537ZM46.7256 45.1388L47.7071 44.9472L47.7046 44.935L46.7256 45.1388ZM45.5403 45.997C45.2763 46.2717 45.0749 46.3107 44.8589 46.2733L44.518 48.244C45.4753 48.4096 46.3226 48.0694 46.9824 47.3828L45.5403 45.997ZM44.8589 46.2733C44.495 46.2103 43.9627 45.9738 43.2435 45.437L42.0473 47.0398C42.8788 47.6604 43.7086 48.104 44.518 48.244L44.8589 46.2733ZM43.2557 45.4462C42.5226 44.8816 41.5403 44.0114 40.3001 42.8196L38.9143 44.2616C40.1736 45.4719 41.2168 46.4003 42.0352 47.0306L43.2557 45.4462ZM40.3001 42.8196C39.1058 41.6718 38.2199 40.7651 37.6303 40.0925L36.1264 41.411C36.7717 42.1472 37.7052 43.0997 38.9143 44.2616L40.3001 42.8196ZM37.6395 40.1033C37.0875 39.4553 36.7917 38.9124 36.6709 38.473L34.7424 39.0034C34.9672 39.8207 35.4525 40.6202 36.1171 41.4003L37.6395 40.1033ZM36.6753 38.4898C36.6069 38.2232 36.6449 37.9927 36.9307 37.6954L35.4886 36.3096C34.7766 37.0506 34.4792 37.9773 34.738 38.9866L36.6753 38.4898ZM36.9307 37.6954C37.2161 37.3984 37.4333 37.3611 37.6835 37.4193L38.1367 35.4713C37.1174 35.2342 36.2009 35.5684 35.4886 36.3096L36.9307 37.6954ZM37.7004 37.4231C38.14 37.5173 38.6853 37.7842 39.3399 38.3135L40.5974 36.7584C39.7952 36.1096 38.9681 35.6494 38.1197 35.4675L37.7004 37.4231ZM39.3509 38.3224C40.0498 38.8714 40.9917 39.7118 42.1848 40.8584L43.5706 39.4163C42.3602 38.2532 41.3627 37.3594 40.5864 36.7496L39.3509 38.3224ZM42.1848 40.8584C43.3506 41.9787 44.2184 42.9135 44.8059 43.6681L46.384 42.4394C45.7134 41.5781 44.7697 40.5687 43.5706 39.4163L42.1848 40.8584ZM44.8128 43.6768C45.3993 44.413 45.6676 44.963 45.7466 45.3426L47.7046 44.935C47.5334 44.1125 47.0478 43.2725 46.3771 42.4306L44.8128 43.6768ZM45.7441 45.3304C45.7959 45.596 45.7443 45.7847 45.5403 45.997L46.9824 47.3828C47.6284 46.7105 47.8862 45.8652 47.7071 44.9473L45.7441 45.3304Z" fill="black" mask="url(#path-58-outside-4_22057_76)"/>
  <mask id="path-60-outside-5_22057_76" maskUnits="userSpaceOnUse" x="39.8102" y="28.2126" width="19.0788" height="18.9526" fill="black">
    <rect fill="white" x="39.8102" y="28.2126" width="19.0788" height="18.9526"/>
    <path d="M52.2419 41.1625C51.5137 41.7883 50.7255 42.1862 49.8773 42.3563C49.0393 42.5179 48.2258 42.4592 47.4367 42.1803C46.6493 41.8826 45.959 41.3995 45.3657 40.7311C44.7827 40.0541 44.4283 39.3077 44.3026 38.4918C44.1769 37.676 44.2732 36.8658 44.5913 36.0613C44.9198 35.2483 45.4523 34.534 46.189 33.9184C46.9052 33.32 47.6781 32.9349 48.5075 32.7631C49.3472 32.5827 50.1667 32.6277 50.966 32.8981C51.7653 33.1685 52.4616 33.6379 53.0548 34.3063C53.6208 34.9628 53.9709 35.7041 54.1051 36.5302C54.2308 37.3461 54.1337 38.1657 53.8139 38.9889C53.5042 39.8036 52.9802 40.5282 52.2419 41.1625ZM50.4156 38.8833C50.6919 38.6524 50.8426 38.3441 50.8677 37.9583C50.8928 37.5724 50.7856 37.2362 50.5462 36.9497C50.3069 36.6633 49.9994 36.5032 49.6237 36.4695C49.2396 36.4257 48.9094 36.5191 48.6331 36.75C48.3568 36.9808 48.2062 37.2891 48.1811 37.675C48.1474 38.0506 48.2503 38.3817 48.4897 38.6681C48.729 38.9546 49.0408 39.1198 49.425 39.1637C49.8091 39.2076 50.1394 39.1141 50.4156 38.8833Z"/>
  </mask>
  <path d="M52.2419 41.1625C51.5137 41.7883 50.7255 42.1862 49.8773 42.3563C49.0393 42.5179 48.2258 42.4592 47.4367 42.1803C46.6493 41.8826 45.959 41.3995 45.3657 40.7311C44.7827 40.0541 44.4283 39.3077 44.3026 38.4918C44.1769 37.676 44.2732 36.8658 44.5913 36.0613C44.9198 35.2483 45.4523 34.534 46.189 33.9184C46.9052 33.32 47.6781 32.9349 48.5075 32.7631C49.3472 32.5827 50.1667 32.6277 50.966 32.8981C51.7653 33.1685 52.4616 33.6379 53.0548 34.3063C53.6208 34.9628 53.9709 35.7041 54.1051 36.5302C54.2308 37.3461 54.1337 38.1657 53.8139 38.9889C53.5042 39.8036 52.9802 40.5282 52.2419 41.1625ZM50.4156 38.8833C50.6919 38.6524 50.8426 38.3441 50.8677 37.9583C50.8928 37.5724 50.7856 37.2362 50.5462 36.9497C50.3069 36.6633 49.9994 36.5032 49.6237 36.4695C49.2396 36.4257 48.9094 36.5191 48.6331 36.75C48.3568 36.9808 48.2062 37.2891 48.1811 37.675C48.1474 38.0506 48.2503 38.3817 48.4897 38.6681C48.729 38.9546 49.0408 39.1198 49.425 39.1637C49.8091 39.2076 50.1394 39.1141 50.4156 38.8833Z" fill="white"/>
  <path d="M52.2419 41.1625L51.5902 40.404L51.5901 40.4041L52.2419 41.1625ZM49.8773 42.3563L50.0666 43.3383L50.074 43.3368L49.8773 42.3563ZM47.4367 42.1803L47.083 43.1157L47.0932 43.1195L47.1034 43.1231L47.4367 42.1803ZM45.3657 40.7311L44.608 41.3837L44.6128 41.3893L44.6178 41.3949L45.3657 40.7311ZM44.3026 38.4918L43.3143 38.6441L43.3143 38.6441L44.3026 38.4918ZM44.5913 36.0613L43.6641 35.6868L43.6614 35.6935L44.5913 36.0613ZM48.5075 32.7631L48.7103 33.7423L48.7175 33.7408L48.5075 32.7631ZM50.966 32.8981L50.6456 33.8454L50.966 32.8981ZM53.0548 34.3063L53.8123 33.6534L53.8076 33.6479L53.8028 33.6425L53.0548 34.3063ZM54.1051 36.5302L55.0935 36.378L55.0922 36.3698L54.1051 36.5302ZM53.8139 38.9889L52.8817 38.6268L52.8791 38.6337L53.8139 38.9889ZM49.6237 36.4695L49.5103 37.4631L49.5224 37.4645L49.5345 37.4655L49.6237 36.4695ZM48.1811 37.675L49.1771 37.7642L49.1782 37.7521L49.179 37.7399L48.1811 37.675ZM49.425 39.1637L49.3115 40.1572L49.3115 40.1572L49.425 39.1637ZM51.5901 40.4041C50.9775 40.9306 50.3427 41.2431 49.6807 41.3759L50.074 43.3368C51.1084 43.1294 52.05 42.646 52.8936 41.9209L51.5901 40.4041ZM49.688 41.3744C49.0209 41.503 48.388 41.4559 47.77 41.2375L47.1034 43.1231C48.0635 43.4625 49.0577 43.5328 50.0666 43.3383L49.688 41.3744ZM47.7904 41.2449C47.1638 41.008 46.6062 40.6223 46.1136 40.0673L44.6178 41.3949C45.3117 42.1767 46.1348 42.7572 47.083 43.1157L47.7904 41.2449ZM46.1234 40.0785C45.6521 39.5313 45.3858 38.9551 45.291 38.3396L43.3143 38.6441C43.4708 39.6602 43.9132 40.5769 44.608 41.3837L46.1234 40.0785ZM45.291 38.3396C45.1936 37.7078 45.2651 37.0768 45.5213 36.4291L43.6614 35.6935C43.2812 36.6548 43.1602 37.6442 43.3143 38.6441L45.291 38.3396ZM45.5186 36.4358C45.7797 35.7894 46.2075 35.2061 46.8302 34.6858L45.5478 33.1511C44.6972 33.8618 44.0598 34.7071 43.6641 35.6868L45.5186 36.4358ZM46.8302 34.6858C47.4331 34.182 48.0582 33.8773 48.7103 33.7423L48.3047 31.7838C47.2979 31.9924 46.3773 32.4579 45.5478 33.1511L46.8302 34.6858ZM48.7175 33.7408C49.3842 33.5976 50.0203 33.6338 50.6456 33.8454L51.2864 31.9508C50.3131 31.6216 49.3102 31.5678 48.2975 31.7854L48.7175 33.7408ZM50.6456 33.8454C51.2703 34.0567 51.822 34.4238 52.3069 34.9701L53.8028 33.6425C53.1012 32.852 52.2603 32.2803 51.2864 31.9508L50.6456 33.8454ZM52.2974 34.9592C52.7473 35.4812 53.0145 36.0535 53.1181 36.6906L55.0922 36.3698C54.9272 35.3548 54.4942 34.4445 53.8123 33.6534L52.2974 34.9592ZM53.1168 36.6825C53.2139 37.3128 53.1427 37.9552 52.8817 38.6268L54.746 39.3511C55.1248 38.3761 55.2477 37.3794 55.0935 36.378L53.1168 36.6825ZM52.8791 38.6337C52.6354 39.2749 52.2171 39.8654 51.5902 40.404L52.8935 41.921C53.7434 41.1909 54.3731 40.3324 54.7486 39.3442L52.8791 38.6337ZM51.0568 39.6507C51.5598 39.2304 51.8241 38.6596 51.8655 38.0232L49.8698 37.8933C49.861 38.0286 49.8239 38.0745 49.7744 38.1159L51.0568 39.6507ZM51.8655 38.0232C51.9067 37.3912 51.724 36.7998 51.3136 36.3086L49.7789 37.5909C49.8472 37.6727 49.8789 37.7536 49.8698 37.8933L51.8655 38.0232ZM51.3136 36.3086C50.9023 35.8162 50.3497 35.5306 49.713 35.4735L49.5345 37.4655C49.649 37.4758 49.7115 37.5103 49.7789 37.5909L51.3136 36.3086ZM49.7372 35.476C49.1036 35.4036 48.4949 35.5623 47.9919 35.9826L49.2743 37.5173C49.3238 37.476 49.3755 37.4477 49.5103 37.4631L49.7372 35.476ZM47.9919 35.9826C47.4889 36.4029 47.2246 36.9737 47.1832 37.6101L49.179 37.7399C49.1878 37.6046 49.2248 37.5587 49.2743 37.5173L47.9919 35.9826ZM47.1851 37.5858C47.128 38.2225 47.3109 38.817 47.7223 39.3093L49.257 38.027C49.1896 37.9463 49.1668 37.8787 49.1771 37.7642L47.1851 37.5858ZM47.7223 39.3093C48.1327 39.8005 48.6823 40.0854 49.3115 40.1572L49.5385 38.1702C49.3993 38.1543 49.3254 38.1087 49.257 38.027L47.7223 39.3093ZM49.3115 40.1572C49.9451 40.2296 50.5538 40.0709 51.0568 39.6507L49.7744 38.1159C49.7249 38.1573 49.6732 38.1855 49.5385 38.1702L49.3115 40.1572Z" fill="black" mask="url(#path-60-outside-5_22057_76)"/>
  <mask id="path-62-outside-6_22057_76" maskUnits="userSpaceOnUse" x="51.7585" y="14.7749" width="22.3743" height="21.9298" fill="black">
    <rect fill="white" x="51.7585" y="14.7749" width="22.3743" height="21.9298"/>
    <path d="M63.4995 17.672C64.1667 17.3367 64.7957 17.3115 65.3866 17.5966C65.9894 17.8756 66.5809 18.4289 67.161 19.2566C67.7351 20.0723 68.3903 21.2129 69.1267 22.6783C69.8631 24.1436 70.3873 25.35 70.6993 26.2975C71.0053 27.233 71.0934 28.017 70.9635 28.6493C70.8336 29.2816 70.4291 29.7684 69.75 30.1097C68.9399 30.5168 68.1944 30.4587 67.5136 29.9354C66.8328 29.412 66.0974 28.4386 65.3074 27.0151C64.9441 27.2126 64.3395 27.5239 63.4936 27.949L62.5643 28.4159C63.2233 29.9053 63.5596 31.0793 63.5733 31.9379C63.5869 32.7966 63.1887 33.4294 62.3786 33.8366C61.6995 34.1778 61.0675 34.2119 60.4826 33.9388C59.8977 33.6657 59.3212 33.1272 58.7531 32.3234C58.1909 31.5017 57.5386 30.3522 56.7962 28.8749C56.0538 27.3976 55.5206 26.1882 55.1967 25.2468C54.8847 24.2993 54.7937 23.5094 54.9236 22.8771C55.0475 22.2328 55.449 21.7401 56.1281 21.3988C56.7118 21.1055 57.2633 21.0596 57.7825 21.2613C58.2957 21.4511 58.7914 21.8585 59.2697 22.4836C59.7539 23.0909 60.2863 23.9276 60.8669 24.9937L62.1357 24.3561C62.7909 24.0268 63.2764 23.7903 63.5922 23.6466C62.8017 21.9845 62.3727 20.6855 62.3052 19.7495C62.2436 18.7955 62.6417 18.103 63.4995 17.672Z"/>
  </mask>
  <path d="M63.4995 17.672C64.1667 17.3367 64.7957 17.3115 65.3866 17.5966C65.9894 17.8756 66.5809 18.4289 67.161 19.2566C67.7351 20.0723 68.3903 21.2129 69.1267 22.6783C69.8631 24.1436 70.3873 25.35 70.6993 26.2975C71.0053 27.233 71.0934 28.017 70.9635 28.6493C70.8336 29.2816 70.4291 29.7684 69.75 30.1097C68.9399 30.5168 68.1944 30.4587 67.5136 29.9354C66.8328 29.412 66.0974 28.4386 65.3074 27.0151C64.9441 27.2126 64.3395 27.5239 63.4936 27.949L62.5643 28.4159C63.2233 29.9053 63.5596 31.0793 63.5733 31.9379C63.5869 32.7966 63.1887 33.4294 62.3786 33.8366C61.6995 34.1778 61.0675 34.2119 60.4826 33.9388C59.8977 33.6657 59.3212 33.1272 58.7531 32.3234C58.1909 31.5017 57.5386 30.3522 56.7962 28.8749C56.0538 27.3976 55.5206 26.1882 55.1967 25.2468C54.8847 24.2993 54.7937 23.5094 54.9236 22.8771C55.0475 22.2328 55.449 21.7401 56.1281 21.3988C56.7118 21.1055 57.2633 21.0596 57.7825 21.2613C58.2957 21.4511 58.7914 21.8585 59.2697 22.4836C59.7539 23.0909 60.2863 23.9276 60.8669 24.9937L62.1357 24.3561C62.7909 24.0268 63.2764 23.7903 63.5922 23.6466C62.8017 21.9845 62.3727 20.6855 62.3052 19.7495C62.2436 18.7955 62.6417 18.103 63.4995 17.672Z" fill="white"/>
  <path d="M65.3866 17.5966L64.9522 18.4973L64.9593 18.5007L64.9666 18.5041L65.3866 17.5966ZM67.161 19.2566L66.3421 19.8305L66.3432 19.8321L67.161 19.2566ZM70.6993 26.2975L71.6498 25.9866L71.6492 25.9847L70.6993 26.2975ZM70.9635 28.6493L71.943 28.8505L71.943 28.8505L70.9635 28.6493ZM67.5136 29.9354L66.9042 30.7282L67.5136 29.9354ZM65.3074 27.0151L66.1818 26.5298L65.7007 25.663L64.8298 26.1365L65.3074 27.0151ZM62.5643 28.4159L62.1153 27.5224L61.2647 27.9499L61.6498 28.8205L62.5643 28.4159ZM63.5733 31.9379L62.5734 31.9539L63.5733 31.9379ZM60.4826 33.9388L60.0595 34.8449L60.4826 33.9388ZM58.7531 32.3234L57.9277 32.8881L57.932 32.8943L57.9364 32.9006L58.7531 32.3234ZM55.1967 25.2468L54.2468 25.5596L54.2511 25.5721L55.1967 25.2468ZM54.9236 22.8771L55.9032 23.0783L55.9056 23.066L54.9236 22.8771ZM57.7825 21.2613L57.4204 22.1934L57.428 22.1964L57.4357 22.1992L57.7825 21.2613ZM59.2697 22.4836L58.4755 23.0913L58.4816 23.0993L58.4879 23.1071L59.2697 22.4836ZM60.8669 24.9937L59.9887 25.472L60.4514 26.3217L61.3159 25.8873L60.8669 24.9937ZM63.5922 23.6466L64.0065 24.5567L64.932 24.1353L64.4952 23.217L63.5922 23.6466ZM62.3052 19.7495L61.3073 19.8139L61.3078 19.8214L62.3052 19.7495ZM63.9486 18.5655C64.3819 18.3477 64.6821 18.367 64.9522 18.4973L65.8211 16.6959C64.9093 16.2561 63.9515 16.3257 63.0505 16.7784L63.9486 18.5655ZM64.9666 18.5041C65.3469 18.6801 65.8146 19.0779 66.3421 19.8305L67.9799 18.6826C67.3472 17.7799 66.632 17.0711 65.8067 16.6891L64.9666 18.5041ZM66.3432 19.8321C66.8768 20.5903 67.5068 21.6818 68.2332 23.1273L70.0202 22.2292C69.2739 20.744 68.5933 19.5543 67.9787 18.6811L66.3432 19.8321ZM68.2332 23.1273C68.9596 24.5728 69.4595 25.7296 69.7495 26.6103L71.6492 25.9847C71.3152 24.9704 70.7666 23.7144 70.0202 22.2292L68.2332 23.1273ZM69.7489 26.6084C70.0269 27.4584 70.0652 28.0528 69.984 28.4481L71.943 28.8505C72.1216 27.9812 71.9838 27.0077 71.6498 25.9866L69.7489 26.6084ZM69.984 28.4481C69.9269 28.7257 69.761 28.985 69.301 29.2162L70.1991 31.0032C71.0973 30.5518 71.7403 29.8375 71.943 28.8505L69.984 28.4481ZM69.301 29.2162C69.0241 29.3553 68.8169 29.3866 68.6611 29.3745C68.5091 29.3626 68.3332 29.304 68.1231 29.1425L66.9042 30.7282C67.3749 31.09 67.9121 31.3222 68.5056 31.3684C69.0952 31.4144 69.6658 31.2712 70.1991 31.0032L69.301 29.2162ZM68.1231 29.1425C67.6091 28.7474 66.9542 27.9217 66.1818 26.5298L64.433 27.5003C65.2405 28.9554 66.0565 30.0766 66.9042 30.7282L68.1231 29.1425ZM64.8298 26.1365C64.4818 26.3256 63.8898 26.6307 63.0446 27.0554L63.9426 28.8425C64.7891 28.4171 65.4063 28.0995 65.785 27.8936L64.8298 26.1365ZM63.0446 27.0554L62.1153 27.5224L63.0134 29.3095L63.9426 28.8425L63.0446 27.0554ZM61.6498 28.8205C62.2944 30.2775 62.563 31.3013 62.5734 31.9539L64.5731 31.922C64.5562 30.8573 64.1521 29.5332 63.4788 28.0113L61.6498 28.8205ZM62.5734 31.9539C62.5776 32.2189 62.5196 32.395 62.4385 32.524C62.3552 32.6563 62.2064 32.8039 61.9296 32.9431L62.8276 34.7301C63.3609 34.4621 63.8163 34.0897 64.1312 33.5891C64.4483 33.0853 64.5826 32.5157 64.5731 31.922L62.5734 31.9539ZM61.9296 32.9431C61.4696 33.1742 61.1625 33.1526 60.9057 33.0327L60.0595 34.8449C60.9726 35.2712 61.9294 35.1815 62.8276 34.7301L61.9296 32.9431ZM60.9057 33.0327C60.54 32.862 60.0859 32.4766 59.5697 31.7463L57.9364 32.9006C58.5565 33.7779 59.2554 34.4694 60.0595 34.8449L60.9057 33.0327ZM59.5784 31.7588C59.0526 30.9901 58.4233 29.8855 57.6897 28.4259L55.9027 29.3239C56.6539 30.8188 57.3292 32.0132 57.9277 32.8881L59.5784 31.7588ZM57.6897 28.4259C56.9562 26.9662 56.4453 25.8021 56.1423 24.9214L54.2511 25.5721C54.596 26.5744 55.1514 27.829 55.9027 29.3239L57.6897 28.4259ZM56.1466 24.934C55.8619 24.0697 55.8225 23.4709 55.9031 23.0783L53.944 22.6759C53.7649 23.5479 53.9075 24.5289 54.2469 25.5595L56.1466 24.934ZM55.9056 23.066C55.9611 22.7774 56.1257 22.5192 56.5771 22.2923L55.679 20.5053C54.7723 20.961 54.1339 21.6883 53.9416 22.6882L55.9056 23.066ZM56.5771 22.2923C56.956 22.1019 57.211 22.1121 57.4204 22.1934L58.1446 20.3292C57.3156 20.0071 56.4676 20.109 55.679 20.5053L56.5771 22.2923ZM57.4357 22.1992C57.7099 22.3006 58.0643 22.5539 58.4755 23.0913L60.0639 21.876C59.5185 21.1631 58.8814 20.6015 58.1293 20.3234L57.4357 22.1992ZM58.4879 23.1071C58.9215 23.6509 59.4223 24.4319 59.9887 25.472L61.7451 24.5155C61.1504 23.4233 60.5864 22.5308 60.0516 21.8602L58.4879 23.1071ZM61.3159 25.8873L62.5847 25.2496L61.6867 23.4626L60.4179 24.1002L61.3159 25.8873ZM62.5847 25.2496C63.2382 24.9212 63.7093 24.692 64.0065 24.5567L63.1778 22.7364C62.8436 22.8886 62.3437 23.1324 61.6867 23.4626L62.5847 25.2496ZM64.4952 23.217C63.7169 21.5805 63.3562 20.4204 63.3026 19.6775L61.3078 19.8214C61.3892 20.9505 61.8865 22.3885 62.6891 24.0761L64.4952 23.217ZM63.3031 19.685C63.2825 19.3653 63.3415 19.1575 63.4246 19.013C63.5078 18.8682 63.6589 18.711 63.9486 18.5655L63.0505 16.7784C62.4824 17.0639 62.0055 17.4685 61.6907 18.0162C61.3756 18.5643 61.2664 19.1797 61.3073 19.8139L63.3031 19.685Z" fill="black" mask="url(#path-62-outside-6_22057_76)"/>
  <mask id="path-64-outside-7_22057_76" maskUnits="userSpaceOnUse" x="67.657" y="14.757" width="17.2264" height="16.5681" fill="black">
    <rect fill="white" x="67.657" y="14.757" width="17.2264" height="16.5681"/>
    <path d="M77.6037 27.3599C76.6909 27.6574 75.8103 27.7216 74.9619 27.5523C74.1262 27.3791 73.3978 27.012 72.7768 26.451C72.1645 25.8733 71.7131 25.1618 71.4226 24.3166C71.1449 23.4674 71.1049 22.6422 71.3027 21.8407C71.5005 21.0393 71.901 20.3285 72.5042 19.7083C73.1201 19.0841 73.8864 18.6297 74.8032 18.3449C75.6945 18.068 76.556 18.0098 77.3877 18.1703C78.2322 18.3268 78.9713 18.6836 79.6051 19.2406C80.2389 19.7977 80.701 20.4988 80.9915 21.344C81.2614 22.1677 81.2994 22.9866 81.1055 23.8008C80.9077 24.6022 80.5028 25.3214 79.8909 25.9583C79.2917 26.5912 78.5293 27.0584 77.6037 27.3599ZM76.7947 24.5535C77.1385 24.4467 77.3962 24.2201 77.5678 23.8736C77.7394 23.5271 77.7698 23.1756 77.6591 22.819C77.5483 22.4625 77.3261 22.1965 76.9923 22.0209C76.6546 21.8326 76.3138 21.7919 75.97 21.8987C75.6262 22.0055 75.3685 22.2322 75.1969 22.5787C75.0214 22.9124 74.989 23.2576 75.0997 23.6141C75.2105 23.9706 75.4347 24.243 75.7725 24.4313C76.1102 24.6196 76.451 24.6603 76.7947 24.5535Z"/>
  </mask>
  <path d="M77.6037 27.3599C76.6909 27.6574 75.8103 27.7216 74.9619 27.5523C74.1262 27.3791 73.3978 27.012 72.7768 26.451C72.1645 25.8733 71.7131 25.1618 71.4226 24.3166C71.1449 23.4674 71.1049 22.6422 71.3027 21.8407C71.5005 21.0393 71.901 20.3285 72.5042 19.7083C73.1201 19.0841 73.8864 18.6297 74.8032 18.3449C75.6945 18.068 76.556 18.0098 77.3877 18.1703C78.2322 18.3268 78.9713 18.6836 79.6051 19.2406C80.2389 19.7977 80.701 20.4988 80.9915 21.344C81.2614 22.1677 81.2994 22.9866 81.1055 23.8008C80.9077 24.6022 80.5028 25.3214 79.8909 25.9583C79.2917 26.5912 78.5293 27.0584 77.6037 27.3599ZM76.7947 24.5535C77.1385 24.4467 77.3962 24.2201 77.5678 23.8736C77.7394 23.5271 77.7698 23.1756 77.6591 22.819C77.5483 22.4625 77.3261 22.1965 76.9923 22.0209C76.6546 21.8326 76.3138 21.7919 75.97 21.8987C75.6262 22.0055 75.3685 22.2322 75.1969 22.5787C75.0214 22.9124 74.989 23.2576 75.0997 23.6141C75.2105 23.9706 75.4347 24.243 75.7725 24.4313C76.1102 24.6196 76.451 24.6603 76.7947 24.5535Z" fill="white"/>
  <path d="M77.6037 27.3599L77.294 26.4091L77.2938 26.4091L77.6037 27.3599ZM74.9619 27.5523L74.7589 28.5315L74.7662 28.533L74.9619 27.5523ZM72.7768 26.451L72.0905 27.1783L72.0984 27.1858L72.1064 27.193L72.7768 26.451ZM71.4226 24.3166L70.4722 24.6275L70.4745 24.6346L70.4769 24.6416L71.4226 24.3166ZM71.3027 21.8407L70.3318 21.6011L70.3318 21.6011L71.3027 21.8407ZM72.5042 19.7083L71.7924 19.0059L71.7873 19.0111L72.5042 19.7083ZM77.3877 18.1703L77.1983 19.1522L77.2055 19.1535L77.3877 18.1703ZM79.6051 19.2406L78.9449 19.9917L79.6051 19.2406ZM80.9915 21.344L81.9418 21.0327L81.9396 21.0258L81.9372 21.019L80.9915 21.344ZM81.1055 23.8008L82.0764 24.0404L82.0783 24.0324L81.1055 23.8008ZM79.8909 25.9583L79.1698 25.2654L79.1647 25.2708L79.8909 25.9583ZM76.9923 22.0209L76.5054 22.8944L76.516 22.9003L76.5268 22.906L76.9923 22.0209ZM75.1969 22.5787L76.082 23.0442L76.0877 23.0334L76.0931 23.0224L75.1969 22.5787ZM75.7725 24.4313L75.2855 25.3048L75.2855 25.3048L75.7725 24.4313ZM77.2938 26.4091C76.5258 26.6594 75.8197 26.7037 75.1575 26.5716L74.7662 28.533C75.8008 28.7394 76.8559 28.6554 77.9136 28.3107L77.2938 26.4091ZM75.1648 26.5731C74.4996 26.4352 73.9335 26.1483 73.4471 25.7089L72.1064 27.193C72.8621 27.8757 73.7527 28.3229 74.7589 28.5315L75.1648 26.5731ZM73.463 25.7236C72.9758 25.2639 72.6095 24.6934 72.3683 23.9916L70.4769 24.6416C70.8167 25.6303 71.3532 26.4826 72.0905 27.1783L73.463 25.7236ZM72.3731 24.0057C72.1485 23.3193 72.1243 22.685 72.2736 22.0804L70.3318 21.6011C70.0855 22.5993 70.1412 23.6156 70.4722 24.6275L72.3731 24.0057ZM72.2736 22.0804C72.4268 21.4597 72.7355 20.9048 73.221 20.4055L71.7873 19.0111C71.0665 19.7522 70.5743 20.6189 70.3318 21.6011L72.2736 22.0804ZM73.216 20.4107C73.7057 19.9144 74.3249 19.5406 75.0999 19.2998L74.5065 17.3899C73.4479 17.7187 72.5345 18.2539 71.7924 19.0059L73.216 20.4107ZM75.0999 19.2998C75.8502 19.0668 76.5444 19.026 77.1983 19.1521L77.5772 17.1884C76.5677 16.9936 75.5388 17.0692 74.5065 17.3899L75.0999 19.2998ZM77.2055 19.1535C77.8759 19.2778 78.4491 19.556 78.9449 19.9917L80.2653 18.4895C79.4935 17.8112 78.5884 17.3758 77.57 17.187L77.2055 19.1535ZM78.9449 19.9917C79.4403 20.4272 79.8084 20.9782 80.0458 21.669L81.9372 21.019C81.5937 20.0194 81.0375 19.1682 80.2653 18.4895L78.9449 19.9917ZM80.0412 21.6553C80.2557 22.3102 80.2822 22.9412 80.1327 23.5692L82.0783 24.0324C82.3165 23.0321 82.267 22.0253 81.9418 21.0327L80.0412 21.6553ZM80.1346 23.5612C79.9818 24.1803 79.6689 24.7459 79.1698 25.2654L80.612 26.6511C81.3367 25.8969 81.8336 25.0242 82.0764 24.0404L80.1346 23.5612ZM79.1647 25.2708C78.6931 25.7689 78.0798 26.1531 77.294 26.4091L77.9134 28.3107C78.9787 27.9637 79.8903 27.4135 80.6171 26.6458L79.1647 25.2708ZM77.0914 25.5085C77.7174 25.3141 78.1809 24.8889 78.464 24.3174L76.6717 23.4298C76.6115 23.5513 76.5597 23.5794 76.4981 23.5986L77.0914 25.5085ZM78.464 24.3174C78.745 23.7499 78.804 23.1337 78.6141 22.5224L76.7041 23.1157C76.7357 23.2175 76.7338 23.3043 76.6717 23.4298L78.464 24.3174ZM78.6141 22.5224C78.4237 21.9097 78.0236 21.4335 77.4578 21.1359L76.5268 22.906C76.6285 22.9595 76.6729 23.0153 76.7041 23.1157L78.6141 22.5224ZM77.4792 21.1475C76.9222 20.8369 76.2993 20.7493 75.6734 20.9437L76.2667 22.8537C76.3283 22.8345 76.3869 22.8283 76.5054 22.8944L77.4792 21.1475ZM75.6734 20.9437C75.0474 21.1382 74.5838 21.5634 74.3008 22.1349L76.0931 23.0224C76.1532 22.9009 76.2051 22.8728 76.2667 22.8537L75.6734 20.9437ZM74.3119 22.1132C74.0143 22.679 73.9544 23.2981 74.1448 23.9108L76.0547 23.3174C76.0235 23.2171 76.0285 23.1459 76.082 23.0442L74.3119 22.1132ZM74.1448 23.9108C74.3347 24.5221 74.7324 24.9964 75.2855 25.3048L76.2594 23.5579C76.1371 23.4897 76.0863 23.4192 76.0547 23.3174L74.1448 23.9108ZM75.2855 25.3048C75.8426 25.6153 76.4654 25.703 77.0914 25.5085L76.4981 23.5986C76.4365 23.6177 76.3778 23.6239 76.2594 23.5579L75.2855 25.3048Z" fill="black" mask="url(#path-64-outside-7_22057_76)"/>
  <mask id="path-66-outside-8_22057_76" maskUnits="userSpaceOnUse" x="83.504" y="8.2548" width="18.5821" height="17.6923" fill="black">
    <rect fill="white" x="83.504" y="8.2548" width="18.5821" height="17.6923"/>
    <path d="M96.1612 9.74803C96.9038 9.66983 97.5012 9.86836 97.9534 10.3436C98.4189 10.8175 98.777 11.544 99.0276 12.5231C99.2768 13.489 99.4872 14.7874 99.659 16.4184C99.8307 18.0494 99.8954 19.3632 99.8528 20.3598C99.8089 21.3431 99.6146 22.1077 99.2698 22.6534C98.9251 23.1992 98.3748 23.5119 97.619 23.5915C96.7173 23.6864 96.0403 23.3689 95.5881 22.6389C95.1358 21.9089 94.7913 20.7386 94.5547 19.1278C94.145 19.1844 93.4694 19.2622 92.528 19.3614L91.4937 19.4703C91.5845 21.0964 91.4847 22.3135 91.1945 23.1217C90.9042 23.9299 90.3082 24.3815 89.4065 24.4764C88.6507 24.556 88.0473 24.3648 87.5965 23.9028C87.1456 23.4408 86.7963 22.7335 86.5485 21.7809C86.3126 20.8136 86.108 19.5078 85.9349 17.8636C85.7617 16.2194 85.6898 14.8996 85.7191 13.9044C85.7616 12.9078 85.9552 12.1367 86.3 11.5909C86.6433 11.0318 87.1929 10.7125 87.9487 10.6329C88.5985 10.5645 89.1306 10.7163 89.5452 11.0883C89.9583 11.447 90.2784 12.0032 90.5052 12.7569C90.7439 13.496 90.9467 14.4667 91.1135 15.6692L92.5257 15.5205C93.255 15.4437 93.7928 15.3938 94.1389 15.3707C93.986 13.5367 94.0432 12.1698 94.3104 11.2702C94.5896 10.356 95.2065 9.84856 96.1612 9.74803Z"/>
  </mask>
  <path d="M96.1612 9.74803C96.9038 9.66983 97.5012 9.86836 97.9534 10.3436C98.4189 10.8175 98.777 11.544 99.0276 12.5231C99.2768 13.489 99.4872 14.7874 99.659 16.4184C99.8307 18.0494 99.8954 19.3632 99.8528 20.3598C99.8089 21.3431 99.6146 22.1077 99.2698 22.6534C98.9251 23.1992 98.3748 23.5119 97.619 23.5915C96.7173 23.6864 96.0403 23.3689 95.5881 22.6389C95.1358 21.9089 94.7913 20.7386 94.5547 19.1278C94.145 19.1844 93.4694 19.2622 92.528 19.3614L91.4937 19.4703C91.5845 21.0964 91.4847 22.3135 91.1945 23.1217C90.9042 23.9299 90.3082 24.3815 89.4065 24.4764C88.6507 24.556 88.0473 24.3648 87.5965 23.9028C87.1456 23.4408 86.7963 22.7335 86.5485 21.7809C86.3126 20.8136 86.108 19.5078 85.9349 17.8636C85.7617 16.2194 85.6898 14.8996 85.7191 13.9044C85.7616 12.9078 85.9552 12.1367 86.3 11.5909C86.6433 11.0318 87.1929 10.7125 87.9487 10.6329C88.5985 10.5645 89.1306 10.7163 89.5452 11.0883C89.9583 11.447 90.2784 12.0032 90.5052 12.7569C90.7439 13.496 90.9467 14.4667 91.1135 15.6692L92.5257 15.5205C93.255 15.4437 93.7928 15.3938 94.1389 15.3707C93.986 13.5367 94.0432 12.1698 94.3104 11.2702C94.5896 10.356 95.2065 9.84856 96.1612 9.74803Z" fill="white"/>
  <path d="M97.9534 10.3436L97.229 11.033L97.2345 11.0387L97.2401 11.0444L97.9534 10.3436ZM99.0276 12.5231L98.0588 12.771L98.0593 12.7729L99.0276 12.5231ZM99.8528 20.3598L100.852 20.4044L100.852 20.4024L99.8528 20.3598ZM99.2698 22.6534L100.115 23.1875L100.115 23.1875L99.2698 22.6534ZM95.5881 22.6389L94.738 23.1656L95.5881 22.6389ZM94.5547 19.1278L95.5441 18.9825L95.4 18.0017L94.4179 18.1372L94.5547 19.1278ZM91.4937 19.4703L91.389 18.4758L90.4422 18.5755L90.4953 19.526L91.4937 19.4703ZM91.1945 23.1217L90.2533 22.7837L91.1945 23.1217ZM87.5965 23.9028L86.8808 24.6012L87.5965 23.9028ZM86.5485 21.7809L85.577 22.0179L85.5788 22.0253L85.5807 22.0326L86.5485 21.7809ZM85.7191 13.9044L84.7199 13.8618L84.7195 13.875L85.7191 13.9044ZM86.3 11.5909L87.1455 12.125L87.1521 12.1142L86.3 11.5909ZM89.5452 11.0883L88.8774 11.8326L88.8834 11.838L88.8896 11.8434L89.5452 11.0883ZM90.5052 12.7569L89.5476 13.0451L89.5505 13.0547L89.5536 13.0643L90.5052 12.7569ZM91.1135 15.6692L90.123 15.8066L90.256 16.765L91.2183 16.6637L91.1135 15.6692ZM94.1389 15.3707L94.2053 16.3685L95.2199 16.301L95.1355 15.2876L94.1389 15.3707ZM94.3104 11.2702L93.354 10.9782L93.3518 10.9854L94.3104 11.2702ZM96.2659 10.7425C96.7482 10.6917 97.0223 10.8158 97.229 11.033L98.6778 9.65424C97.98 8.92096 97.0593 8.64792 96.0565 8.75352L96.2659 10.7425ZM97.2401 11.0444C97.5338 11.3434 97.8309 11.8807 98.0588 12.771L99.9964 12.2752C99.7231 11.2072 99.3041 10.2916 98.6668 9.64281L97.2401 11.0444ZM98.0593 12.7729C98.2909 13.6707 98.4951 14.9142 98.6645 16.5231L100.653 16.3137C100.479 14.6606 100.263 13.3073 99.9959 12.2733L98.0593 12.7729ZM98.6645 16.5231C98.8339 18.132 98.8933 19.3908 98.8537 20.3171L100.852 20.4024C100.897 19.3355 100.828 17.9667 100.653 16.3137L98.6645 16.5231ZM98.8538 20.3151C98.8139 21.2085 98.6399 21.7782 98.4244 22.1194L100.115 23.1875C100.589 22.4371 100.804 21.4777 100.852 20.4044L98.8538 20.3151ZM98.4244 22.1194C98.273 22.359 98.0262 22.5431 97.5143 22.597L97.7237 24.586C98.7234 24.4807 99.5772 24.0394 100.115 23.1875L98.4244 22.1194ZM97.5143 22.597C97.2061 22.6294 97.0012 22.5856 96.8596 22.5192C96.7216 22.4545 96.5777 22.3376 96.4381 22.1123L94.738 23.1656C95.0507 23.6703 95.4714 24.0771 96.0104 24.3299C96.5458 24.5811 97.1302 24.6485 97.7237 24.586L97.5143 22.597ZM96.4381 22.1123C96.0967 21.5612 95.7755 20.5575 95.5441 18.9825L93.5653 19.2732C93.8072 20.9197 94.1749 22.2567 94.738 23.1656L96.4381 22.1123ZM94.4179 18.1372C94.0256 18.1914 93.3641 18.2678 92.4233 18.3669L92.6327 20.3559C93.5748 20.2567 94.2644 20.1774 94.6914 20.1185L94.4179 18.1372ZM92.4233 18.3669L91.389 18.4758L91.5984 20.4648L92.6327 20.3559L92.4233 18.3669ZM90.4953 19.526C90.5841 21.1167 90.4739 22.1695 90.2533 22.7837L92.1356 23.4598C92.4956 22.4576 92.5849 21.0761 92.4921 19.4145L90.4953 19.526ZM90.2533 22.7837C90.1637 23.0331 90.0473 23.1774 89.9258 23.2695C89.8012 23.3639 89.6099 23.4495 89.3018 23.4819L89.5112 25.4709C90.1047 25.4084 90.6623 25.2207 91.1337 24.8636C91.6081 24.5041 91.9349 24.0185 92.1356 23.4598L90.2533 22.7837ZM89.3018 23.4819C88.7898 23.5358 88.5101 23.4072 88.3121 23.2044L86.8808 24.6012C87.5846 25.3224 88.5115 25.5762 89.5112 25.4709L89.3018 23.4819ZM88.3121 23.2044C88.0303 22.9155 87.7414 22.3946 87.5163 21.5291L85.5807 22.0326C85.8511 23.0724 86.2609 23.9661 86.8808 24.6012L88.3121 23.2044ZM87.52 21.5439C87.2993 20.6391 87.1005 19.3835 86.9294 17.7589L84.9404 17.9683C85.1156 19.6322 85.3258 20.9881 85.577 22.0179L87.52 21.5439ZM86.9294 17.7589C86.7583 16.1342 86.6913 14.8647 86.7186 13.9338L84.7195 13.875C84.6883 14.9345 84.7652 16.3045 84.9404 17.9683L86.9294 17.7589ZM86.7182 13.9471C86.757 13.0379 86.9314 12.4638 87.1454 12.1249L85.4545 11.0568C84.9791 11.8096 84.7662 12.7778 84.72 13.8618L86.7182 13.9471ZM87.1521 12.1142C87.3059 11.8638 87.551 11.6804 88.0534 11.6274L87.844 9.63845C86.8348 9.74472 85.9807 10.1999 85.4479 11.0675L87.1521 12.1142ZM88.0534 11.6274C88.4752 11.583 88.7102 11.6826 88.8774 11.8326L90.213 10.3439C89.551 9.75 88.7217 9.54602 87.844 9.63845L88.0534 11.6274ZM88.8896 11.8434C89.1104 12.0351 89.3526 12.3971 89.5476 13.0451L91.4628 12.4687C91.2041 11.6092 90.8063 10.8589 90.2008 10.3331L88.8896 11.8434ZM89.5536 13.0643C89.7674 13.7261 89.9603 14.6336 90.123 15.8066L92.1041 15.5318C91.9331 14.2999 91.7204 13.2658 91.4568 12.4495L89.5536 13.0643ZM91.2183 16.6637L92.6305 16.515L92.421 14.526L91.0088 14.6747L91.2183 16.6637ZM92.6305 16.515C93.3578 16.4384 93.8795 16.3902 94.2053 16.3685L94.0725 14.3729C93.706 14.3973 93.1523 14.449 92.421 14.526L92.6305 16.515ZM95.1355 15.2876C94.9849 13.4817 95.0569 12.269 95.269 11.555L93.3518 10.9854C93.0294 12.0707 92.9871 13.5916 93.1424 15.4538L95.1355 15.2876ZM95.2669 11.5622C95.3604 11.2557 95.489 11.0822 95.6177 10.9763C95.7467 10.8702 95.9435 10.7765 96.2659 10.7425L96.0565 8.75352C95.4242 8.82011 94.8352 9.03032 94.3472 9.43164C93.859 9.83319 93.5396 10.3705 93.354 10.9782L95.2669 11.5622Z" fill="black" mask="url(#path-66-outside-8_22057_76)"/>
  <mask id="path-68-outside-9_22057_76" maskUnits="userSpaceOnUse" x="99.2082" y="12.3649" width="14.2532" height="13.2731" fill="black">
    <rect fill="white" x="99.2082" y="12.3649" width="14.2532" height="13.2731"/>
    <path d="M106.238 23.5204C105.278 23.5148 104.422 23.2979 103.67 22.8697C102.932 22.4418 102.357 21.8637 101.944 21.1354C101.545 20.3941 101.341 19.5766 101.332 18.6829C101.337 17.7895 101.559 16.9937 101.999 16.2956C102.44 15.5974 103.044 15.0492 103.812 14.6509C104.593 14.2529 105.464 14.0633 106.424 14.0822C107.357 14.1006 108.193 14.3171 108.932 14.7317C109.684 15.1466 110.272 15.7183 110.698 16.4468C111.124 17.1754 111.341 17.9865 111.35 18.8801C111.347 19.7469 111.124 20.536 110.684 21.2475C110.243 21.9456 109.632 22.5004 108.851 22.9117C108.082 23.3233 107.211 23.5262 106.238 23.5204ZM106.355 20.6021C106.715 20.6092 107.031 20.4754 107.304 20.2007C107.576 19.926 107.715 19.6021 107.723 19.2288C107.73 18.8555 107.603 18.533 107.342 18.2611C107.081 17.9759 106.77 17.8298 106.41 17.8227C106.05 17.8156 105.734 17.9494 105.462 18.2241C105.19 18.4855 105.051 18.8028 105.043 19.176C105.036 19.5493 105.163 19.8785 105.424 20.1637C105.685 20.4489 105.996 20.5951 106.355 20.6021Z"/>
  </mask>
  <path d="M106.238 23.5204C105.278 23.5148 104.422 23.2979 103.67 22.8697C102.932 22.4418 102.357 21.8637 101.944 21.1354C101.545 20.3941 101.341 19.5766 101.332 18.6829C101.337 17.7895 101.559 16.9937 101.999 16.2956C102.44 15.5974 103.044 15.0492 103.812 14.6509C104.593 14.2529 105.464 14.0633 106.424 14.0822C107.357 14.1006 108.193 14.3171 108.932 14.7317C109.684 15.1466 110.272 15.7183 110.698 16.4468C111.124 17.1754 111.341 17.9865 111.35 18.8801C111.347 19.7469 111.124 20.536 110.684 21.2475C110.243 21.9456 109.632 22.5004 108.851 22.9117C108.082 23.3233 107.211 23.5262 106.238 23.5204ZM106.355 20.6021C106.715 20.6092 107.031 20.4754 107.304 20.2007C107.576 19.926 107.715 19.6021 107.723 19.2288C107.73 18.8555 107.603 18.533 107.342 18.2611C107.081 17.9759 106.77 17.8298 106.41 17.8227C106.05 17.8156 105.734 17.9494 105.462 18.2241C105.19 18.4855 105.051 18.8028 105.043 19.176C105.036 19.5493 105.163 19.8785 105.424 20.1637C105.685 20.4489 105.996 20.5951 106.355 20.6021Z" fill="white"/>
  <path d="M106.238 23.5204L106.244 22.5204L106.244 22.5204L106.238 23.5204ZM103.67 22.8697L103.169 23.7349L103.175 23.7386L103.67 22.8697ZM101.944 21.1354L101.063 21.6092L101.069 21.6187L101.074 21.6282L101.944 21.1354ZM101.332 18.6829L100.332 18.6781L100.332 18.6856L100.332 18.693L101.332 18.6829ZM101.999 16.2956L101.154 15.7619L101.154 15.7619L101.999 16.2956ZM103.812 14.6509L103.358 13.7599L103.352 13.7632L103.812 14.6509ZM108.932 14.7317L108.442 15.6038L108.448 15.6073L108.932 14.7317ZM110.698 16.4468L109.835 16.9514L110.698 16.4468ZM111.35 18.8801L112.35 18.8844L112.35 18.8772L112.35 18.87L111.35 18.8801ZM110.684 21.2475L111.529 21.7811L111.534 21.7741L110.684 21.2475ZM108.851 22.9117L108.385 22.0268L108.378 22.0303L108.851 22.9117ZM107.342 18.2611L106.604 18.9364L106.612 18.9454L106.621 18.9542L107.342 18.2611ZM105.462 18.2241L106.155 18.945L106.164 18.9365L106.173 18.9279L105.462 18.2241ZM105.424 20.1637L104.686 20.839L104.686 20.839L105.424 20.1637ZM106.244 22.5204C105.436 22.5157 104.752 22.335 104.165 22.0008L103.175 23.7386C104.092 24.2608 105.12 24.5139 106.232 24.5204L106.244 22.5204ZM104.172 22.0045C103.584 21.6639 103.137 21.213 102.814 20.6426L101.074 21.6282C101.576 22.5143 102.28 23.2197 103.169 23.7349L104.172 22.0045ZM102.825 20.6616C102.507 20.0717 102.34 19.4148 102.332 18.6727L100.332 18.693C100.343 19.7384 100.583 20.7165 101.063 21.6092L102.825 20.6616ZM102.332 18.6877C102.336 17.9655 102.513 17.3559 102.845 16.8292L101.154 15.7619C100.605 16.6315 100.337 17.6135 100.332 18.6781L102.332 18.6877ZM102.845 16.8292C103.186 16.2885 103.654 15.8593 104.273 15.5386L103.352 13.7632C102.434 14.2391 101.694 14.9063 101.154 15.7619L102.845 16.8292ZM104.266 15.542C104.887 15.2255 105.593 15.0661 106.404 15.082L106.444 13.0824C105.335 13.0606 104.3 13.2803 103.358 13.7599L104.266 15.542ZM106.404 15.082C107.19 15.0975 107.861 15.2777 108.442 15.6037L109.421 13.8597C108.524 13.3565 107.524 13.1037 106.444 13.0824L106.404 15.082ZM108.448 15.6073C109.046 15.9367 109.502 16.3815 109.835 16.9514L111.562 15.9423C111.043 15.0552 110.322 14.3565 109.415 13.8561L108.448 15.6073ZM109.835 16.9514C110.168 17.5208 110.343 18.1598 110.35 18.8903L112.35 18.87C112.34 17.8131 112.08 16.8299 111.562 15.9423L109.835 16.9514ZM110.35 18.8758C110.347 19.5649 110.173 20.1721 109.834 20.7208L111.534 21.7741C112.075 20.8999 112.346 19.9289 112.35 18.8844L110.35 18.8758ZM109.838 20.7139C109.498 21.2532 109.022 21.6912 108.385 22.0268L109.316 23.7966C110.242 23.3095 110.989 22.638 111.529 21.7811L109.838 20.7139ZM108.378 22.0303C107.774 22.3542 107.07 22.5254 106.244 22.5204L106.232 24.5204C107.352 24.5271 108.391 24.2924 109.323 23.7932L108.378 22.0303ZM106.336 21.602C106.991 21.6149 107.565 21.3576 108.014 20.9045L106.593 19.497C106.498 19.5933 106.44 19.6036 106.375 19.6023L106.336 21.602ZM108.014 20.9045C108.46 20.4546 108.71 19.8885 108.723 19.2485L106.723 19.2091C106.721 19.3157 106.692 19.3975 106.593 19.497L108.014 20.9045ZM108.723 19.2485C108.735 18.607 108.506 18.0289 108.063 17.5681L106.621 18.9542C106.701 19.037 106.725 19.104 106.723 19.2091L108.723 19.2485ZM108.079 17.5858C107.649 17.1155 107.085 16.8358 106.43 16.8229L106.391 18.8225C106.455 18.8238 106.513 18.8364 106.604 18.9364L108.079 17.5858ZM106.43 16.8229C105.775 16.81 105.201 17.0673 104.752 17.5203L106.173 18.9279C106.268 18.8316 106.326 18.8212 106.391 18.8225L106.43 16.8229ZM104.769 17.5032C104.308 17.9463 104.056 18.5149 104.043 19.1564L106.043 19.1957C106.045 19.0906 106.072 19.0246 106.155 18.945L104.769 17.5032ZM104.043 19.1564C104.031 19.7963 104.259 20.3719 104.686 20.839L106.162 19.4885C106.067 19.3852 106.041 19.3023 106.043 19.1957L104.043 19.1564ZM104.686 20.839C105.117 21.3094 105.68 21.5891 106.336 21.602L106.375 19.6023C106.311 19.6011 106.253 19.5885 106.162 19.4885L104.686 20.839Z" fill="black" mask="url(#path-68-outside-9_22057_76)"/>
  <defs>
    <filter id="filter0_d_22057_76" x="103.5" y="47.3491" width="115.531" height="150.365" filterUnits="userSpaceOnUse" color-interpolation-filters="sRGB">
      <feFlood flood-opacity="0" result="BackgroundImageFix"/>
      <feColorMatrix in="SourceAlpha" type="matrix" values="0 0 0 0 0 0 0 0 0 0 0 0 0 0 0 0 0 0 127 0" result="hardAlpha"/>
      <feOffset dy="9"/>
      <feComposite in2="hardAlpha" operator="out"/>
      <feColorMatrix type="matrix" values="0 0 0 0 0 0 0 0 0 0 0 0 0 0 0 0 0 0 0.25 0"/>
      <feBlend mode="normal" in2="BackgroundImageFix" result="effect1_dropShadow_22057_76"/>
      <feBlend mode="normal" in="SourceGraphic" in2="effect1_dropShadow_22057_76" result="shape"/>
    </filter>
    <filter id="filter1_d_22057_76" x="174.086" y="53.3496" width="32.918" height="32.917" filterUnits="userSpaceOnUse" color-interpolation-filters="sRGB">
      <feFlood flood-opacity="0" result="BackgroundImageFix"/>
      <feColorMatrix in="SourceAlpha" type="matrix" values="0 0 0 0 0 0 0 0 0 0 0 0 0 0 0 0 0 0 127 0" result="hardAlpha"/>
      <feOffset/>
      <feGaussianBlur stdDeviation="5"/>
      <feComposite in2="hardAlpha" operator="out"/>
      <feColorMatrix type="matrix" values="0 0 0 0 1 0 0 0 0 0.960784 0 0 0 0 0.662745 0 0 0 1 0"/>
      <feBlend mode="normal" in2="BackgroundImageFix" result="effect1_dropShadow_22057_76"/>
      <feBlend mode="normal" in="SourceGraphic" in2="effect1_dropShadow_22057_76" result="shape"/>
    </filter>
    <filter id="filter2_d_22057_76" x="117.238" y="33.499" width="88.5938" height="102.113" filterUnits="userSpaceOnUse" color-interpolation-filters="sRGB">
      <feFlood flood-opacity="0" result="BackgroundImageFix"/>
      <feColorMatrix in="SourceAlpha" type="matrix" values="0 0 0 0 0 0 0 0 0 0 0 0 0 0 0 0 0 0 127 0" result="hardAlpha"/>
      <feOffset dy="9"/>
      <feComposite in2="hardAlpha" operator="out"/>
      <feColorMatrix type="matrix" values="0 0 0 0 0 0 0 0 0 0 0 0 0 0 0 0 0 0 0.25 0"/>
      <feBlend mode="normal" in2="BackgroundImageFix" result="effect1_dropShadow_22057_76"/>
      <feBlend mode="normal" in="SourceGraphic" in2="effect1_dropShadow_22057_76" result="shape"/>
    </filter>
    <filter id="filter3_d_22057_76" x="140.344" y="0" width="52.3125" height="57" filterUnits="userSpaceOnUse" color-interpolation-filters="sRGB">
      <feFlood flood-opacity="0" result="BackgroundImageFix"/>
      <feColorMatrix in="SourceAlpha" type="matrix" values="0 0 0 0 0 0 0 0 0 0 0 0 0 0 0 0 0 0 127 0" result="hardAlpha"/>
      <feOffset/>
      <feGaussianBlur stdDeviation="5"/>
      <feComposite in2="hardAlpha" operator="out"/>
      <feColorMatrix type="matrix" values="0 0 0 0 1 0 0 0 0 0.960784 0 0 0 0 0.662745 0 0 0 1 0"/>
      <feBlend mode="normal" in2="BackgroundImageFix" result="effect1_dropShadow_22057_76"/>
      <feBlend mode="normal" in="SourceGraphic" in2="effect1_dropShadow_22057_76" result="shape"/>
    </filter>
    <filter id="filter4_d_22057_76" x="131.891" y="43.877" width="32.918" height="32.917" filterUnits="userSpaceOnUse" color-interpolation-filters="sRGB">
      <feFlood flood-opacity="0" result="BackgroundImageFix"/>
      <feColorMatrix in="SourceAlpha" type="matrix" values="0 0 0 0 0 0 0 0 0 0 0 0 0 0 0 0 0 0 127 0" result="hardAlpha"/>
      <feOffset/>
      <feGaussianBlur stdDeviation="5"/>
      <feComposite in2="hardAlpha" operator="out"/>
      <feColorMatrix type="matrix" values="0 0 0 0 1 0 0 0 0 0.960784 0 0 0 0 0.662745 0 0 0 1 0"/>
      <feBlend mode="normal" in2="BackgroundImageFix" result="effect1_dropShadow_22057_76"/>
      <feBlend mode="normal" in="SourceGraphic" in2="effect1_dropShadow_22057_76" result="shape"/>
    </filter>
    <filter id="filter5_d_22057_76" x="160.309" y="77.4614" width="32.918" height="32.917" filterUnits="userSpaceOnUse" color-interpolation-filters="sRGB">
      <feFlood flood-opacity="0" result="BackgroundImageFix"/>
      <feColorMatrix in="SourceAlpha" type="matrix" values="0 0 0 0 0 0 0 0 0 0 0 0 0 0 0 0 0 0 127 0" result="hardAlpha"/>
      <feOffset/>
      <feGaussianBlur stdDeviation="5"/>
      <feComposite in2="hardAlpha" operator="out"/>
      <feColorMatrix type="matrix" values="0 0 0 0 1 0 0 0 0 0.960784 0 0 0 0 0.662745 0 0 0 1 0"/>
      <feBlend mode="normal" in2="BackgroundImageFix" result="effect1_dropShadow_22057_76"/>
      <feBlend mode="normal" in="SourceGraphic" in2="effect1_dropShadow_22057_76" result="shape"/>
    </filter>
    <filter id="filter6_d_22057_76" x="185" y="143" width="32.918" height="32.917" filterUnits="userSpaceOnUse" color-interpolation-filters="sRGB">
      <feFlood flood-opacity="0" result="BackgroundImageFix"/>
      <feColorMatrix in="SourceAlpha" type="matrix" values="0 0 0 0 0 0 0 0 0 0 0 0 0 0 0 0 0 0 127 0" result="hardAlpha"/>
      <feOffset/>
      <feGaussianBlur stdDeviation="5"/>
      <feComposite in2="hardAlpha" operator="out"/>
      <feColorMatrix type="matrix" values="0 0 0 0 1 0 0 0 0 0.960784 0 0 0 0 0.662745 0 0 0 1 0"/>
      <feBlend mode="normal" in2="BackgroundImageFix" result="effect1_dropShadow_22057_76"/>
      <feBlend mode="normal" in="SourceGraphic" in2="effect1_dropShadow_22057_76" result="shape"/>
    </filter>
  </defs>
</svg>
