<svg width="54" height="66" viewBox="0 0 54 66" fill="none" xmlns="http://www.w3.org/2000/svg">
  <mask id="path-1-outside-1_27063_10986" maskUnits="userSpaceOnUse" x="0" y="-1" width="54" height="67" fill="black">
    <rect fill="white" y="-1" width="54" height="67"/>
    <path fill-rule="evenodd" clip-rule="evenodd" d="M25.4267 13.0539C25.6196 10.4211 25.4939 6.03553 23.7988 3.87807C21.3888 0.810763 20.5854 0.445608 18.6136 1.6141C17.0361 2.5489 15.4246 3.17209 14.816 3.36684C13.9081 3.18882 12.227 2.86501 11.0691 2.65813C10.663 2.55045 10.3256 2.49917 10.069 2.49047C9.04652 2.34441 6.05225 2.41744 5.54103 6.43414C5.02981 10.4509 6.78256 16.3664 10.069 17.3158C10.2344 17.3636 10.4049 17.4051 10.5796 17.4409L1 20.2714V27.0021L2.67163 27.5136V55.4313L29.3844 64.999V65.0001L50.9032 53.6962V27.4289L52.0143 27.0021V20.2714L47.2153 18.687C48.0478 17.8386 48.6715 16.5251 49.137 14.5389C50.2325 9.86491 47.9685 5.33698 45.9237 4.09545C44.2878 3.10223 41.0062 4.86342 39.57 5.86817C37.2969 5.38916 35.0567 5.48096 34.0196 5.62912C34.0738 5.64624 34.1323 5.66843 34.1945 5.69599C32.5094 5.76805 29.3677 9.54539 27.2136 12.5259L25.4267 13.0539ZM36.1415 9.64896C36.5755 10.4822 36.8906 11.5664 37.091 12.7625C36.3341 13.1862 35.1712 13.7793 33.9265 14.2997L29.6328 12.8822C31.3188 11.1256 33.4906 9.38972 35.98 9.35639C36.0343 9.44914 36.0882 9.54662 36.1415 9.64896ZM31.2661 9.18295C32.2635 8.20881 33.4447 7.46757 34.563 7.9424C33.9495 7.72832 33.1961 7.76344 32.3401 8.33414C32.0226 8.54579 31.6592 8.83624 31.2661 9.18295ZM21.7018 14.1545C21.2248 12.3439 17.7415 9.25008 15.9114 7.82173C15.5463 8.77114 15.1227 11.1519 16.3496 13.08C17.011 14.1193 18.0134 14.6819 18.961 14.9644L21.7018 14.1545Z"/>
  </mask>
  <path fill-rule="evenodd" clip-rule="evenodd" d="M25.4267 13.0539C25.6196 10.4211 25.4939 6.03553 23.7988 3.87807C21.3888 0.810763 20.5854 0.445608 18.6136 1.6141C17.0361 2.5489 15.4246 3.17209 14.816 3.36684C13.9081 3.18882 12.227 2.86501 11.0691 2.65813C10.663 2.55045 10.3256 2.49917 10.069 2.49047C9.04652 2.34441 6.05225 2.41744 5.54103 6.43414C5.02981 10.4509 6.78256 16.3664 10.069 17.3158C10.2344 17.3636 10.4049 17.4051 10.5796 17.4409L1 20.2714V27.0021L2.67163 27.5136V55.4313L29.3844 64.999V65.0001L50.9032 53.6962V27.4289L52.0143 27.0021V20.2714L47.2153 18.687C48.0478 17.8386 48.6715 16.5251 49.137 14.5389C50.2325 9.86491 47.9685 5.33698 45.9237 4.09545C44.2878 3.10223 41.0062 4.86342 39.57 5.86817C37.2969 5.38916 35.0567 5.48096 34.0196 5.62912C34.0738 5.64624 34.1323 5.66843 34.1945 5.69599C32.5094 5.76805 29.3677 9.54539 27.2136 12.5259L25.4267 13.0539ZM36.1415 9.64896C36.5755 10.4822 36.8906 11.5664 37.091 12.7625C36.3341 13.1862 35.1712 13.7793 33.9265 14.2997L29.6328 12.8822C31.3188 11.1256 33.4906 9.38972 35.98 9.35639C36.0343 9.44914 36.0882 9.54662 36.1415 9.64896ZM31.2661 9.18295C32.2635 8.20881 33.4447 7.46757 34.563 7.9424C33.9495 7.72832 33.1961 7.76344 32.3401 8.33414C32.0226 8.54579 31.6592 8.83624 31.2661 9.18295ZM21.7018 14.1545C21.2248 12.3439 17.7415 9.25008 15.9114 7.82173C15.5463 8.77114 15.1227 11.1519 16.3496 13.08C17.011 14.1193 18.0134 14.6819 18.961 14.9644L21.7018 14.1545Z" fill="black"/>
  <path d="M23.7988 3.87807L23.0125 4.49589V4.49589L23.7988 3.87807ZM25.4267 13.0539L24.4294 12.9808C24.4054 13.3082 24.5437 13.6265 24.7993 13.8325C25.0549 14.0385 25.3953 14.1059 25.7101 14.0129L25.4267 13.0539ZM18.6136 1.6141L19.1234 2.4744V2.4744L18.6136 1.6141ZM14.816 3.36684L14.6236 4.34815C14.7891 4.38061 14.9601 4.37067 15.1207 4.31927L14.816 3.36684ZM11.0691 2.65813L10.8128 3.62473C10.8394 3.63177 10.8662 3.63771 10.8932 3.64254L11.0691 2.65813ZM10.069 2.49047L9.92754 3.48042C9.96319 3.48551 9.99909 3.48867 10.0351 3.48989L10.069 2.49047ZM5.54103 6.43414L4.54903 6.30789V6.30789L5.54103 6.43414ZM10.069 17.3158L10.3465 16.3551L10.3465 16.3551L10.069 17.3158ZM10.5796 17.4409L10.863 18.3999C11.3031 18.2698 11.5982 17.8568 11.5787 17.3983C11.5591 16.9397 11.2299 16.5533 10.7803 16.4612L10.5796 17.4409ZM1 20.2714L0.716635 19.3124C0.291653 19.438 0 19.8283 0 20.2714H1ZM1 27.0021H0C0 27.4417 0.287062 27.8297 0.707406 27.9583L1 27.0021ZM2.67163 27.5136H3.67163C3.67163 27.074 3.38456 26.686 2.96422 26.5573L2.67163 27.5136ZM2.67163 55.4313H1.67163C1.67163 55.8536 1.93688 56.2303 2.33443 56.3727L2.67163 55.4313ZM29.3844 64.999H30.3844C30.3844 64.5767 30.1192 64.2 29.7216 64.0576L29.3844 64.999ZM29.3844 65.0001H28.3844C28.3844 65.3502 28.5676 65.6749 28.8672 65.8559C29.1669 66.037 29.5395 66.0482 29.8495 65.8854L29.3844 65.0001ZM50.9032 53.6962L51.3682 54.5815C51.6972 54.4087 51.9032 54.0678 51.9032 53.6962H50.9032ZM50.9032 27.4289L50.5446 26.4954C50.1582 26.6438 49.9032 27.015 49.9032 27.4289H50.9032ZM52.0143 27.0021L52.3729 27.9356C52.7593 27.7871 53.0143 27.416 53.0143 27.0021H52.0143ZM52.0143 20.2714H53.0143C53.0143 19.8399 52.7375 19.4571 52.3278 19.3218L52.0143 20.2714ZM47.2153 18.687L46.5016 17.9867C46.2596 18.2332 46.1621 18.5871 46.2435 18.9228C46.325 19.2585 46.5738 19.5283 46.9018 19.6366L47.2153 18.687ZM49.137 14.5389L48.1634 14.3107V14.3107L49.137 14.5389ZM45.9237 4.09545L45.4047 4.95024L45.9237 4.09545ZM39.57 5.86817L39.3638 6.84668C39.6344 6.90371 39.9165 6.84612 40.1432 6.68758L39.57 5.86817ZM34.0196 5.62912L33.8782 4.63917C33.4161 4.70518 33.0612 5.08204 33.023 5.54722C32.9847 6.01239 33.2734 6.44215 33.7185 6.5827L34.0196 5.62912ZM34.1945 5.69599L34.2372 6.69508C34.7014 6.67523 35.0907 6.33837 35.1771 5.88192C35.2635 5.42547 35.0241 4.96965 34.5993 4.78159L34.1945 5.69599ZM27.2136 12.5259L27.4969 13.4849C27.7091 13.4223 27.8945 13.291 28.024 13.1117L27.2136 12.5259ZM37.091 12.7625L37.5795 13.6351C37.9478 13.4289 38.147 13.0136 38.0773 12.5973L37.091 12.7625ZM36.1415 9.64896L37.0284 9.18697L37.0284 9.18697L36.1415 9.64896ZM33.9265 14.2997L33.613 15.2493C33.8417 15.3248 34.09 15.3153 34.3123 15.2223L33.9265 14.2997ZM29.6328 12.8822L28.9114 12.1897C28.6735 12.4375 28.5795 12.79 28.6623 13.1233C28.7451 13.4566 28.9932 13.7241 29.3193 13.8318L29.6328 12.8822ZM35.98 9.35639L36.8429 8.85097C36.661 8.5405 36.3264 8.35166 35.9666 8.35648L35.98 9.35639ZM34.563 7.9424L34.2336 8.88658C34.743 9.0643 35.3015 8.80596 35.4959 8.30272C35.6902 7.79948 35.4504 7.23277 34.9538 7.02193L34.563 7.9424ZM31.2661 9.18295L30.5674 8.46754C30.1793 8.84651 30.1641 9.46572 30.5331 9.86325C30.9021 10.2608 31.5207 10.2917 31.9275 9.93293L31.2661 9.18295ZM32.3401 8.33414L31.7854 7.50209V7.50209L32.3401 8.33414ZM15.9114 7.82173L16.5267 7.03342C16.2769 6.83848 15.9496 6.77344 15.6443 6.85808C15.339 6.94273 15.0918 7.16705 14.9781 7.46276L15.9114 7.82173ZM21.7018 14.1545L21.9852 15.1135C22.5037 14.9603 22.8066 14.4226 22.6688 13.8998L21.7018 14.1545ZM16.3496 13.08L15.506 13.6168L15.506 13.6168L16.3496 13.08ZM18.961 14.9644L18.6752 15.9227C18.8609 15.978 19.0586 15.9783 19.2443 15.9234L18.961 14.9644ZM23.0125 4.49589C23.6896 5.35774 24.1164 6.77188 24.329 8.41597C24.5374 10.027 24.5224 11.7114 24.4294 12.9808L26.4241 13.127C26.524 11.7635 26.5426 9.93879 26.3125 8.15948C26.0867 6.41323 25.6031 4.55586 24.5851 3.26024L23.0125 4.49589ZM19.1234 2.4744C20.0478 1.92661 20.3585 1.94975 20.6399 2.0733C20.8493 2.16525 21.134 2.36293 21.5403 2.77128C21.9427 3.17581 22.4157 3.73631 23.0125 4.49589L24.5851 3.26024C23.9769 2.48617 23.4457 1.85079 22.9581 1.36069C22.4743 0.874408 21.983 0.478713 21.4439 0.242016C20.2281 -0.291711 19.1512 0.1331 18.1038 0.753813L19.1234 2.4744ZM15.1207 4.31927C15.7897 4.1052 17.4719 3.45308 19.1234 2.4744L18.1038 0.753812C16.6004 1.64472 15.0594 2.23899 14.5112 2.41441L15.1207 4.31927ZM10.8932 3.64254C12.0425 3.8479 13.717 4.17039 14.6236 4.34815L15.0084 2.38553C14.0992 2.20726 12.4114 1.88213 11.245 1.67372L10.8932 3.64254ZM10.0351 3.48989C10.1969 3.49538 10.4576 3.53053 10.8128 3.62473L11.3254 1.69153C10.8684 1.57036 10.4542 1.50295 10.1028 1.49104L10.0351 3.48989ZM6.53303 6.5604C6.75337 4.82916 7.46722 4.1129 8.08432 3.78338C8.76838 3.41811 9.53368 3.42415 9.92754 3.48042L10.2104 1.50052C9.5818 1.41072 8.33875 1.38025 7.14225 2.01915C5.8788 2.69381 4.83991 4.02242 4.54903 6.30789L6.53303 6.5604ZM10.3465 16.3551C9.17386 16.0163 8.07143 14.6912 7.31755 12.675C6.58415 10.7135 6.29968 8.39382 6.53303 6.5604L4.54903 6.30789C4.27116 8.49118 4.60746 11.1376 5.44422 13.3754C6.26051 15.5585 7.67765 17.6658 9.79142 18.2765L10.3465 16.3551ZM10.7803 16.4612C10.6291 16.4302 10.4844 16.3949 10.3465 16.3551L9.79141 18.2765C9.98442 18.3322 10.1806 18.3799 10.3789 18.4205L10.7803 16.4612ZM1.28336 21.2304L10.863 18.3999L10.2962 16.4819L0.716635 19.3124L1.28336 21.2304ZM2 27.0021V20.2714H0V27.0021H2ZM2.96422 26.5573L1.29259 26.0458L0.707406 27.9583L2.37903 28.4698L2.96422 26.5573ZM3.67163 55.4313V27.5136H1.67163V55.4313H3.67163ZM29.7216 64.0576L3.00882 54.4899L2.33443 56.3727L29.0472 65.9405L29.7216 64.0576ZM30.3844 65.0001V64.999H28.3844V65.0001H30.3844ZM50.4381 52.8109L28.9194 64.1148L29.8495 65.8854L51.3682 54.5815L50.4381 52.8109ZM49.9032 27.4289V53.6962H51.9032V27.4289H49.9032ZM51.6557 26.0686L50.5446 26.4954L51.2618 28.3624L52.3729 27.9356L51.6557 26.0686ZM51.0143 20.2714V27.0021H53.0143V20.2714H51.0143ZM46.9018 19.6366L51.7008 21.221L52.3278 19.3218L47.5288 17.7374L46.9018 19.6366ZM48.1634 14.3107C47.716 16.2196 47.1487 17.3271 46.5016 17.9867L47.9291 19.3874C48.9468 18.3502 49.627 16.8305 50.1106 14.7671L48.1634 14.3107ZM45.4047 4.95024C46.1618 5.40993 47.1276 6.62093 47.7689 8.37358C48.3971 10.0909 48.6601 12.1916 48.1634 14.3107L50.1106 14.7671C50.7094 12.2122 50.3882 9.71198 49.6471 7.68642C48.919 5.69622 47.7304 4.0225 46.4426 3.24066L45.4047 4.95024ZM40.1432 6.68758C40.8103 6.22089 41.913 5.57609 43.0163 5.17142C43.5676 4.96923 44.0804 4.84143 44.516 4.80944C44.9565 4.77709 45.2363 4.84799 45.4047 4.95024L46.4426 3.24066C45.7931 2.8463 45.0493 2.76489 44.3695 2.81482C43.6848 2.86511 42.9808 3.05418 42.3276 3.29373C41.0222 3.77253 39.7659 4.51071 38.9967 5.04877L40.1432 6.68758ZM34.161 6.61907C35.102 6.48465 37.2229 6.39552 39.3638 6.84668L39.7762 4.88967C37.371 4.38281 35.0114 4.47728 33.8782 4.63917L34.161 6.61907ZM34.5993 4.78159C34.5073 4.74086 34.4142 4.70506 34.3207 4.67554L33.7185 6.5827C33.7334 6.58743 33.7572 6.596 33.7897 6.61039L34.5993 4.78159ZM28.024 13.1117C29.0884 11.6391 30.3823 9.99019 31.6034 8.71066C32.2154 8.06928 32.7867 7.54458 33.2837 7.1833C33.816 6.79638 34.1252 6.69987 34.2372 6.69508L34.1518 4.6969C33.4212 4.72814 32.7058 5.13082 32.1078 5.56556C31.4744 6.02594 30.8097 6.64537 30.1565 7.32989C28.8469 8.70218 27.4929 10.4322 26.4031 11.9402L28.024 13.1117ZM25.7101 14.0129L27.4969 13.4849L26.9302 11.5669L25.1434 12.0949L25.7101 14.0129ZM38.0773 12.5973C37.867 11.3421 37.5281 10.1463 37.0284 9.18697L35.2546 10.1109C35.623 10.8181 35.9143 11.7906 36.1048 12.9277L38.0773 12.5973ZM34.3123 15.2223C35.5972 14.6851 36.7945 14.0745 37.5795 13.6351L36.6026 11.8899C35.8737 12.2979 34.7452 12.8735 33.5407 13.3771L34.3123 15.2223ZM29.3193 13.8318L33.613 15.2493L34.24 13.3502L29.9463 11.9326L29.3193 13.8318ZM35.9666 8.35648C33.0382 8.39568 30.6148 10.4149 28.9114 12.1897L30.3543 13.5746C32.0228 11.8362 33.943 10.3838 35.9934 10.3563L35.9666 8.35648ZM37.0284 9.18697C36.9678 9.07071 36.906 8.95871 36.8429 8.85097L35.1171 9.86181C35.1627 9.93957 35.2086 10.0225 35.2546 10.111L37.0284 9.18697ZM34.9538 7.02193C34.0705 6.64688 33.1986 6.77999 32.4645 7.10486C31.7488 7.42157 31.1049 7.94253 30.5674 8.46754L31.9648 9.89835C32.4246 9.44923 32.87 9.1125 33.2739 8.93377C33.6593 8.76319 33.9372 8.76309 34.1722 8.86287L34.9538 7.02193ZM32.8948 9.16619C33.5105 8.7557 33.9386 8.78364 34.2336 8.88658L34.8925 6.99822C33.9604 6.673 32.8817 6.77117 31.7854 7.50209L32.8948 9.16619ZM31.9275 9.93293C32.3034 9.60141 32.6293 9.34313 32.8948 9.16619L31.7854 7.50209C31.4158 7.74844 31.0149 8.07108 30.6046 8.43296L31.9275 9.93293ZM15.2962 8.61005C16.1853 9.30403 17.4793 10.4057 18.6012 11.5461C19.1623 12.1165 19.6658 12.6819 20.0512 13.1993C20.4503 13.7353 20.665 14.1443 20.7348 14.4093L22.6688 13.8998C22.5001 13.2594 22.1006 12.6028 21.6552 12.0048C21.1961 11.3883 20.6249 10.7514 20.0269 10.1435C18.8303 8.9272 17.4676 7.76779 16.5267 7.03342L15.2962 8.61005ZM17.1933 12.5431C16.7091 11.7823 16.5351 10.9061 16.5335 10.082C16.5319 9.25196 16.7059 8.54167 16.8448 8.18071L14.9781 7.46276C14.7518 8.0512 14.5314 9.00602 14.5335 10.0858C14.5356 11.1714 14.7632 12.4497 15.506 13.6168L17.1933 12.5431ZM19.2467 14.0061C18.4544 13.7698 17.6887 13.3217 17.1933 12.5431L15.506 13.6168C16.3333 14.917 17.5725 15.5939 18.6752 15.9227L19.2467 14.0061ZM21.4185 13.1955L18.6776 14.0054L19.2443 15.9234L21.9852 15.1135L21.4185 13.1955Z" fill="black" mask="url(#path-1-outside-1_27063_10986)"/>
  <path d="M2.67188 55.4313V27.3413L29.3848 35.4371V64.9991L2.67188 55.4313Z" fill="#F25E82" stroke="black" stroke-linejoin="round"/>
  <path d="M50.9016 53.6962V27.1567L29.3828 35.3889V65.0001L50.9016 53.6962Z" fill="#C93357" stroke="black" stroke-linejoin="round"/>
  <path d="M46.2604 33.955C43.1311 31.2658 37.0433 37.2268 34.3906 40.5435L36.9534 42.6948C38.8418 39.3333 43.0232 36.5097 43.0232 38.2576C43.0232 39.656 38.9767 42.7844 36.9534 44.1738V49.2833L40.7302 47.1319V45.2495C43.8775 42.6052 49.3897 36.6441 46.2604 33.955Z" fill="#D7A0B6"/>
  <path d="M36.9534 54.7961V50.7623L40.7302 48.7455V53.0481L36.9534 54.7961Z" fill="#D7A0B6"/>
  <path d="M46.2604 33.955C43.1311 31.2658 37.0433 37.2268 34.3906 40.5435L36.9534 42.6948C38.8418 39.3333 43.0232 36.5097 43.0232 38.2576C43.0232 39.656 38.9767 42.7844 36.9534 44.1738V49.2833L40.7302 47.1319V45.2495C43.8775 42.6052 49.3897 36.6441 46.2604 33.955Z" stroke="black" stroke-width="1.5"/>
  <path d="M36.9534 54.7961V50.7623L40.7302 48.7455V53.0481L36.9534 54.7961Z" stroke="black" stroke-width="1.5"/>
  <path d="M0.5 27.002C0.5 27.2218 0.643531 27.4158 0.853703 27.4801L29.2496 36.1688C29.3564 36.2015 29.471 36.1975 29.5752 36.1575L52.1936 27.4688C52.3868 27.3945 52.5143 27.209 52.5143 27.002V20.2713C52.5143 20.0556 52.3759 19.8642 52.1711 19.7965L28.0775 11.8421C27.9809 11.8102 27.8768 11.8085 27.7791 11.8374L0.858318 19.7918C0.645826 19.8546 0.5 20.0498 0.5 20.2713V27.002Z" fill="#F57BAC" stroke="black" stroke-linejoin="round"/>
  <path d="M29.3828 35.6902V29.5802L52.0146 20.9424V27.014L29.3828 35.6902Z" fill="#D0235C"/>
  <path d="M29.3416 35.5232V29.6399L1.51562 20.5796V26.7631L29.3416 35.5232Z" fill="#E74A80"/>
  <path d="M18.2573 36.0874C14.9376 34.8738 11.6765 35.8346 10.4609 36.4667L12.8501 40.5121C16.1196 38.6158 19.6405 40.6385 19.7663 41.6499C19.8669 42.459 15.1974 42.4927 12.8501 42.4084V47.8445L17.1256 48.9822V46.7067C19.389 46.5803 23.9662 45.7206 24.1674 43.2934C24.4189 40.2593 22.407 37.6045 18.2573 36.0874Z" fill="#FCD2E3"/>
  <path d="M12.8501 53.2805V48.9822L17.1256 50.2464V54.7976L12.8501 53.2805Z" fill="#FCD2E3"/>
  <path d="M18.2573 36.0874C14.9376 34.8738 11.6765 35.8346 10.4609 36.4667L12.8501 40.5121C16.1196 38.6158 19.6405 40.6385 19.7663 41.6499C19.8669 42.459 15.1974 42.4927 12.8501 42.4084V47.8445L17.1256 48.9822V46.7067C19.389 46.5803 23.9662 45.7206 24.1674 43.2934C24.4189 40.2593 22.407 37.6045 18.2573 36.0874Z" stroke="black" stroke-width="1.5"/>
  <path d="M12.8501 53.2805V48.9822L17.1256 50.2464V54.7976L12.8501 53.2805Z" stroke="black" stroke-width="1.5"/>
  <path d="M10.2192 21.5967L17.7413 18.5216C19.4849 17.8088 21.4267 18.0348 23.1539 18.7864C23.2506 18.8285 23.3435 18.8671 23.4315 18.9014C23.7665 19.0323 24.0307 19.1021 24.1618 19.0694C24.746 18.9233 18.7575 22.1367 18.6845 29.4398C18.6453 33.3617 18.8452 35.9015 19.0545 37.3463C19.1638 38.1006 18.7312 38.9056 18.0037 39.133C16.777 38.3152 14.7301 36.1751 13.0417 33.1644L7.80968 34.8927C7.35288 35.0436 6.85033 34.9418 6.48828 34.625C6.74743 31.6747 7.41465 26.0834 8.28946 23.4167C8.58192 22.5252 9.3507 21.9517 10.2192 21.5967Z" fill="#FF888A"/>
  <path d="M18.0037 39.133V39.133C18.7312 38.9056 19.1638 38.1006 19.0545 37.3463C18.8452 35.9015 18.6453 33.3617 18.6845 29.4398C18.7575 22.1367 24.746 18.9233 24.1618 19.0694C24.0307 19.1021 23.7665 19.0323 23.4315 18.9014M18.0037 39.133C16.777 38.3152 14.7301 36.1751 13.0417 33.1644M18.0037 39.133C17.3221 35.6275 16.9901 27.9938 18.3923 24.8388C19.7945 21.6839 22.336 19.566 23.4315 18.9014M6.48828 34.625L11.9929 32.7469C12.3949 32.6098 12.834 32.7939 13.0417 33.1644V33.1644M6.48828 34.625C6.74743 31.6747 7.41465 26.0834 8.28946 23.4167C8.58192 22.5252 9.3507 21.9517 10.2192 21.5967L17.7413 18.5216C19.4849 17.8088 21.4267 18.0348 23.1539 18.7864C23.2506 18.8285 23.3435 18.8671 23.4315 18.9014M6.48828 34.625V34.625C6.85033 34.9418 7.35288 35.0436 7.80968 34.8927L13.0417 33.1644" stroke="black" stroke-width="0.5" stroke-linecap="round"/>
  <path d="M42.3138 22.9962L31.6778 18.0882C29.8824 17.2598 27.8391 17.4726 26.0113 18.2269C25.9693 18.2443 25.9283 18.2608 25.8882 18.2764C25.5532 18.4073 25.2889 18.4771 25.1579 18.4444C24.5736 18.2983 34.3597 24.4811 34.4327 31.7842C34.4707 35.582 34.2844 38.0837 34.0826 39.5502C33.9699 40.3685 34.4695 41.2396 35.269 41.4475C36.4957 40.6297 38.3871 38.5196 40.0755 35.5088L45.3075 37.2371C45.7643 37.388 46.2669 37.2862 46.6289 36.9694C46.3629 33.9407 45.1465 27.4601 44.0715 24.6735C43.766 23.8817 43.0844 23.3518 42.3138 22.9962Z" fill="#FF888A"/>
  <path d="M35.269 41.4475V41.4475C34.4695 41.2396 33.9699 40.3685 34.0825 39.5502C34.2844 38.0837 34.4707 35.582 34.4327 31.7842C34.3597 24.4811 24.5736 18.2983 25.1579 18.4444C25.2889 18.4771 25.5532 18.4073 25.8882 18.2764M35.269 41.4475C36.4957 40.6297 38.3871 38.5196 40.0755 35.5088M35.269 41.4475C35.9506 37.942 36.127 30.3382 34.7248 27.1833C33.3226 24.0283 26.9837 18.941 25.8882 18.2764M46.6289 36.9694L41.1242 35.0914C40.7223 34.9542 40.2832 35.1384 40.0755 35.5088V35.5088M46.6289 36.9694C46.3629 33.9407 45.1465 27.4601 44.0715 24.6735C43.766 23.8817 43.0844 23.3518 42.3138 22.9962L31.6778 18.0882C29.8824 17.2598 27.8391 17.4726 26.0113 18.2269C25.9693 18.2443 25.9283 18.2608 25.8882 18.2764M46.6289 36.9694V36.9694C46.2669 37.2862 45.7643 37.388 45.3075 37.2371L40.0755 35.5088" stroke="black" stroke-width="0.5" stroke-linecap="round"/>
  <path d="M26.4965 16.3674C25.3864 17.2438 24.0134 17.5359 25.1089 15.8562C26.7886 13.8113 30.411 9.61935 32.339 8.334C34.267 7.04865 35.6741 8.48005 36.1366 9.35642C31.4626 9.28339 27.8841 15.272 26.4965 16.3674Z" fill="#CE494D" stroke="black" stroke-width="0.5" stroke-linecap="round"/>
  <path d="M30.1497 15.4148C27.8711 15.6485 25.8896 16.5833 25.1836 17.0215C25.7192 17.0215 27.0678 17.1968 28.1779 17.8979C29.5655 18.7743 31.6103 24.3976 35.0428 23.8134C37.7888 23.346 37.6962 16.1695 37.3067 12.6396C35.8705 13.4673 32.4283 15.1811 30.1497 15.4148Z" fill="#CE494D" stroke="black" stroke-width="0.5" stroke-linecap="round"/>
  <path d="M23.7985 3.87807C25.7266 6.33191 25.6243 11.668 25.3322 14.0294L21.7537 14.6136C21.8705 12.9193 17.9074 9.37973 15.9112 7.82173C15.546 8.77114 15.1225 11.1519 16.3494 13.08C17.5763 15.008 19.9766 15.2952 21.0234 15.1979C20.8157 15.5302 20.6634 15.8538 20.5533 16.1473C20.3537 16.6793 20.293 17.1118 20.293 17.3158C18.6133 16.7315 13.3551 18.2652 10.0687 17.3158C6.78231 16.3664 5.02957 10.4509 5.54078 6.43414C6.052 2.41744 9.04627 2.34441 10.0687 2.49047C10.3253 2.49917 10.6627 2.55045 11.0689 2.65813C12.2267 2.86501 13.9078 3.18882 14.8157 3.36684C15.4243 3.17209 17.0359 2.5489 18.6133 1.6141C20.5852 0.445608 21.3885 0.810763 23.7985 3.87807Z" fill="#FF888A"/>
  <path d="M14.8157 3.36684C15.4243 3.17209 17.0359 2.5489 18.6133 1.6141C20.5852 0.445608 21.3885 0.810763 23.7985 3.87807C25.7266 6.33191 25.6243 11.668 25.3322 14.0294L21.7537 14.6136C21.8705 12.9193 17.9074 9.37973 15.9112 7.82173M14.8157 3.36684C15.3513 3.53725 16.6415 3.77581 17.5179 3.36684M14.8157 3.36684C13.5742 3.1234 10.8867 2.60732 10.0687 2.49047M10.0687 2.49047C9.04627 2.34441 6.052 2.41744 5.54078 6.43414C5.02957 10.4509 6.78231 16.3664 10.0687 17.3158C13.3551 18.2652 18.6133 16.7315 20.293 17.3158C20.293 17.1118 20.3537 16.6793 20.5533 16.1473M10.0687 2.49047C11.505 2.53916 15.473 3.92188 19.8549 9.06326M15.9112 7.82173C15.546 8.77114 15.1225 11.1519 16.3494 13.08C17.5763 15.008 19.9766 15.2952 21.0234 15.1979C20.8157 15.5302 20.6634 15.8538 20.5533 16.1473M15.9112 7.82173C14.4993 6.48283 11.1496 3.96569 9.04627 4.60837C6.41715 5.41171 7.14746 8.11386 7.43958 10.3048C7.73171 12.4957 8.24292 15.6361 11.5293 16.1473C14.8157 16.6585 17.308 15.2709 20.5533 16.1473" stroke="black" stroke-width="0.5" stroke-linecap="round"/>
  <path d="M16.3456 13.0811C17.5726 15.0091 19.9729 15.2964 21.0196 15.199C20.8119 15.5313 20.6596 15.855 20.5496 16.1484C17.3043 15.272 14.812 16.6596 11.5256 16.1484C8.23919 15.6372 7.72798 12.4969 7.43586 10.3059C7.14373 8.11499 6.41342 5.41284 9.04254 4.6095C11.1458 3.96683 14.4955 6.48397 15.9075 7.82287C15.5423 8.77227 15.1187 11.1531 16.3456 13.0811Z" fill="#CE494D" stroke="black" stroke-width="0.5" stroke-linecap="round"/>
  <path d="M39.5699 5.86834C37.2969 5.38933 35.0566 5.48114 34.0195 5.62929C34.9446 5.92141 37.1014 7.68876 38.3284 12.4212C39.5553 17.1536 37.525 22.5238 36.3565 24.6174C37.2572 23.0837 39.7598 20.031 42.5642 20.0894C46.0697 20.1625 48.0415 19.2131 49.137 14.5391C50.2324 9.86508 47.9685 5.33715 45.9236 4.09562C44.2877 3.1024 41.0062 4.86359 39.5699 5.86834Z" fill="#CE494D"/>
  <path d="M41.6878 6.50566C41.0029 6.2261 40.2848 6.01899 39.5699 5.86834M39.5699 5.86834C37.2969 5.38933 35.0566 5.48114 34.0195 5.62929C34.9446 5.92141 37.1014 7.68876 38.3284 12.4212C39.5553 17.1536 37.525 22.5238 36.3565 24.6174C37.2572 23.0837 39.7598 20.031 42.5642 20.0894C46.0697 20.1625 48.0415 19.2131 49.137 14.5391C50.2324 9.86508 47.9685 5.33715 45.9236 4.09562C44.2877 3.1024 41.0062 4.86359 39.5699 5.86834Z" stroke="black" stroke-width="0.5" stroke-linecap="round"/>
  <path d="M34.3874 5.70517C32.4009 5.41305 27.912 11.3773 25.9158 14.3959C25.5506 14.9558 24.9079 16.0464 25.2585 15.9295C25.6967 15.7834 28.3258 12.7892 29.7864 10.8904C31.247 8.99156 34.0858 5.70517 36.1401 9.64884C38.1944 13.5925 37.5851 23.1596 34.7525 23.5978C31.9199 24.036 29.7864 19.362 28.3258 17.6823C27.1573 16.3385 25.5019 16.8302 24.8203 17.2441L25.0394 17.6823C25.3315 17.6579 26.1495 17.7115 27.0843 18.1204C28.2528 18.6317 30.3707 24.9123 33.8762 25.0584C37.3817 25.2045 37.8198 24.109 38.7692 17.2441C39.7186 10.3792 36.8704 6.07033 34.3874 5.70517Z" fill="#FF888A" stroke="black" stroke-width="0.5" stroke-linecap="round"/>
  <path d="M20.3664 16.8779C20.0743 19.1564 23.2633 19.7261 24.8944 19.7261C25.4299 19.4826 26.4865 18.8205 26.428 18.1194C26.3696 17.4183 25.3812 17.5176 24.8944 17.6548C24.471 16.8899 24.9748 15.8615 25.3326 15.5633C25.6831 15.2712 25.8681 14.4678 25.9168 14.1027C25.2352 14.0053 23.6236 13.869 22.6304 14.1027C21.3889 14.3948 20.7316 14.0296 20.3664 16.8779Z" fill="#FF888A"/>
  <path d="M25.9168 14.1027C25.2352 14.0053 23.6236 13.869 22.6304 14.1027C21.3889 14.3948 20.7316 14.0296 20.3664 16.8779C20.0743 19.1564 23.2633 19.7261 24.8944 19.7261C25.4299 19.4826 26.4865 18.8205 26.428 18.1194C26.3696 17.4183 25.3812 17.5176 24.8944 17.6548M25.9168 14.1027C25.8681 14.4678 25.6831 15.2712 25.3326 15.5633C24.9748 15.8615 24.471 16.8899 24.8944 17.6548M25.9168 14.1027C22.9371 16.4981 23.7989 18.1681 24.6023 18.7036M25.3326 18.1194C25.1315 17.9854 24.9895 17.8268 24.8944 17.6548" stroke="black" stroke-width="0.5" stroke-linecap="round"/>
</svg>
