<svg width="26" height="26" viewBox="0 0 26 26" fill="none" xmlns="http://www.w3.org/2000/svg">
  <path d="M17.6309 6.51568C17.6228 6.20818 17.3776 6.01438 17.0263 6.02144C16.6744 6.02851 16.4931 6.23354 16.4353 6.54117C16.4054 6.7007 16.415 6.8676 16.4133 7.03126C16.4103 7.31047 16.4125 7.58974 16.4125 7.86901C16.3668 7.8888 16.321 7.9086 16.2753 7.92842C16.1218 7.78751 15.9708 7.64395 15.8143 7.50613C14.4038 6.26412 12.7301 5.80175 10.8558 6.07656C8.20954 6.46454 6.24886 8.56873 6.01878 11.1955C5.80295 13.6595 7.46737 16.0403 9.96569 16.8411C12.493 17.6513 15.3051 16.7083 16.7266 14.5716C16.8181 14.434 16.9132 14.2928 16.969 14.1407C17.0775 13.8453 17.023 13.5703 16.7175 13.4125C16.4231 13.2604 16.1441 13.3215 15.9351 13.5795C15.8306 13.7086 15.7511 13.8558 15.6535 13.9904C14.7722 15.2058 13.5616 15.868 12.0125 15.9402C9.9383 16.0367 8.03687 14.7518 7.43236 12.8578C6.80802 10.9017 7.67158 8.79401 9.51867 7.7658C11.3142 6.76628 13.6192 7.05312 15.0722 8.46247C15.1786 8.56567 15.2503 8.70153 15.4228 8.93848C14.8555 8.93848 14.4188 8.91642 13.9857 8.94493C13.5858 8.97129 13.374 9.19859 13.3772 9.51768C13.3805 9.82837 13.6071 10.0854 13.992 10.0945C14.9964 10.1181 16.002 10.1095 17.0069 10.0993C17.338 10.0959 17.6121 9.91491 17.6222 9.60245C17.6552 8.57421 17.6578 7.54408 17.6309 6.51568Z" fill="black"/>
</svg>
