<svg width="680" height="176" viewBox="0 0 680 176" fill="none" xmlns="http://www.w3.org/2000/svg"><mask id="a" maskUnits="userSpaceOnUse" x="-37" y="-1" width="1638" height="178" fill="#000"><path fill="#fff" d="M-37-1h1638v178H-37z"/><path d="M-35.96 172V4H53.8C77 4 94.12 8.16 105.158 16.48c11.04 8.16 16.56 18.64 16.56 31.44 0 8.48-2.4 16.08-7.2 22.8-4.64 6.56-11.44 11.76-20.4 15.6-8.96 3.84-20 5.76-33.12 5.76l4.8-12.96c13.12 0 24.4 1.84 33.84 5.52 9.6 3.68 16.96 9.04 22.08 16.08 5.28 6.88 7.92 15.2 7.92 24.96 0 14.56-6.08 25.92-18.24 34.08-12 8.16-29.6 12.24-52.8 12.24h-94.56zm55.68-39.6H53.8c6.24 0 10.88-1.12 13.92-3.36 3.2-2.24 4.8-5.52 4.8-9.84s-1.6-7.6-4.8-9.84c-3.04-2.24-7.68-3.36-13.92-3.36H15.88V68.56h30.24c6.4 0 11.04-1.04 13.92-3.12 3.04-2.24 4.56-5.36 4.56-9.36 0-4.16-1.52-7.28-4.56-9.36-2.88-2.08-7.52-3.12-13.92-3.12h-26.4v88.8zm193.784-66h74.88v40.8h-74.88V66.4zm3.84 62.88h84V172h-139.68V4h136.56v42.72h-80.88v82.56zM335.149 172V4h80.88c15.68 0 29.2 2.56 40.56 7.68 11.52 5.12 20.4 12.48 26.64 22.08 6.24 9.44 9.36 20.64 9.36 33.6s-3.12 24.16-9.36 33.6c-6.24 9.28-15.12 16.4-26.64 21.36-11.36 4.96-24.88 7.44-40.56 7.44h-49.44l25.2-23.28V172h-56.64zm100.56 0-41.28-61.2h60l41.76 61.2h-60.48zm-43.92-59.28-25.2-25.68h45.84c7.84 0 13.6-1.76 17.28-5.28 3.84-3.52 5.76-8.32 5.76-14.4s-1.92-10.88-5.76-14.4c-3.68-3.52-9.44-5.28-17.28-5.28h-45.84l25.2-25.68v90.72zM507.737 172l73.44-168h55.68l73.44 168h-58.56l-54.24-141.12h22.08L565.337 172h-57.6zm43.68-29.28 14.4-40.8h77.28l14.4 40.8h-106.08zm264.456 33.12c-13.44 0-25.92-2.08-37.44-6.24-11.36-4.32-21.28-10.4-29.76-18.24-8.32-7.84-14.8-17.12-19.44-27.84-4.64-10.72-6.96-22.56-6.96-35.52 0-12.96 2.32-24.8 6.96-35.52 4.64-10.72 11.12-20 19.44-27.84 8.48-7.84 18.4-13.84 29.76-18 11.52-4.32 24-6.48 37.44-6.48 16.48 0 31.04 2.88 43.68 8.64 12.8 5.76 23.36 14.08 31.68 24.96l-35.76 31.92c-4.96-6.24-10.48-11.04-16.56-14.4-5.92-3.52-12.64-5.28-20.16-5.28-5.92 0-11.28.96-16.08 2.88-4.8 1.92-8.96 4.72-12.48 8.4-3.36 3.68-6 8.16-7.92 13.44-1.92 5.12-2.88 10.88-2.88 17.28s.96 12.24 2.88 17.52c1.92 5.12 4.56 9.52 7.92 13.2 3.52 3.68 7.68 6.48 12.48 8.4 4.8 1.92 10.16 2.88 16.08 2.88 7.52 0 14.24-1.68 20.16-5.04 6.08-3.52 11.6-8.4 16.56-14.64l35.76 31.92c-8.32 10.72-18.88 19.04-31.68 24.96-12.64 5.76-27.2 8.64-43.68 8.64zM919.586 172V4h56.64v168h-56.64zm77.666 0L1070.69 4h55.68l73.44 168h-58.56l-54.24-141.12h22.08L1054.85 172h-57.598zm43.678-29.28 14.4-40.8h77.28l14.4 40.8h-106.08zm264.7 33.12c-13.6 0-26.16-2.08-37.68-6.24-11.36-4.32-21.28-10.4-29.76-18.24-8.32-7.84-14.8-17.12-19.44-27.84-4.64-10.72-6.96-22.56-6.96-35.52 0-12.96 2.32-24.8 6.96-35.52 4.64-10.72 11.2-20 19.68-27.84s18.48-13.84 30-18c11.68-4.32 24.48-6.48 38.4-6.48 16.64 0 31.44 2.8 44.4 8.4 13.12 5.6 23.92 13.6 32.4 24l-36.24 31.92c-5.28-6.08-11.04-10.64-17.28-13.68-6.08-3.2-12.88-4.8-20.4-4.8-6.24 0-11.92.96-17.04 2.88-4.96 1.92-9.2 4.72-12.72 8.4-3.52 3.68-6.24 8.08-8.16 13.2-1.92 5.12-2.88 10.96-2.88 17.52 0 6.24.96 12 2.88 17.28 1.92 5.12 4.64 9.52 8.16 13.2 3.52 3.68 7.68 6.56 12.48 8.64 4.96 1.92 10.48 2.88 16.56 2.88 6.4 0 12.64-1.04 18.72-3.12 6.08-2.24 12.56-6 19.44-11.28l31.68 38.88c-10.24 6.88-21.92 12.16-35.04 15.84-13.12 3.68-25.84 5.52-38.16 5.52zm24-28.56V83.44h49.2v71.04l-49.2-7.2zm67.09 24.72 73.44-168h55.68l73.44 168h-58.56l-54.24-141.12h22.08L1454.32 172h-57.6zm43.68-29.28 14.4-40.8h77.28l14.4 40.8H1440.4z"/></mask><path d="M-35.96 172h-1v1h1v-1zm0-168V3h-1v1h1zm141.119 12.48-.601.799.007.005.594-.804zm9.36 54.24-.813-.581-.003.004.816.577zm-20.4 15.6-.394-.92.394.92zM61 92.08l-.937-.347-.5 1.347H61v-1zm4.8-12.96v-1h-.696l-.241.653.937.347zm33.84 5.52-.363.932.005.002.358-.934zm22.08 16.08-.808.588.007.011.008.01.793-.609zm-10.32 59.04-.557-.83-.005.003.562.827zM19.72 132.4h-1v1h1v-1zm48-3.36-.573-.819-.01.007-.01.007.593.805zm0-19.68-.593.805.01.007.01.007.573-.819zM15.88 106h-1v1h1v-1zm0-37.44v-1h-1v1h1zm44.16-3.12.586.81.008-.005-.594-.805zm0-18.72-.585.81.01.008.01.007.565-.825zM19.72 43.6v-1h-1v1h1zM-34.96 172V4h-2v168h2zm-1-167H53.8V3h-89.76v2zM53.8 5c23.117 0 39.975 4.152 50.759 12.279l1.203-1.598C94.465 7.168 77.083 3 53.799 3v2zm50.766 12.284c10.806 7.988 16.154 18.18 16.154 30.636h2c0-13.143-5.692-23.912-16.965-32.244l-1.189 1.608zM120.72 47.92c0 8.278-2.338 15.673-7.013 22.219l1.627 1.162c4.925-6.894 7.386-14.699 7.386-23.381h-2zm-7.016 22.222c-4.513 6.38-11.151 11.476-19.978 15.259l.788 1.838c9.094-3.897 16.055-9.202 20.823-15.942l-1.633-1.154zM93.725 85.401C84.925 89.173 74.028 91.08 61 91.08v2c13.212 0 24.395-1.933 33.514-5.84l-.788-1.84zm-31.788 7.026 4.8-12.96-1.875-.694-4.8 12.96 1.875.694zM65.8 80.12c13.031 0 24.181 1.828 33.477 5.452l.727-1.864C90.419 79.972 79.01 78.12 65.8 78.12v2zm33.482 5.454c9.453 3.623 16.643 8.877 21.63 15.734l1.617-1.176c-5.253-7.223-12.783-12.69-22.53-16.426l-.717 1.868zm21.645 15.755c5.129 6.683 7.713 14.782 7.713 24.351h2c0-9.951-2.696-18.492-8.126-25.569l-1.587 1.218zm7.713 24.351c0 14.224-5.912 25.274-17.797 33.25l1.115 1.66c12.434-8.344 18.682-20.014 18.682-34.91h-2zm-17.802 33.253C99.075 166.931 81.709 171 58.599 171v2c23.29 0 41.125-4.091 53.363-12.413l-1.125-1.654zM58.599 171h-94.56v2H58.6v-2zm-38.88-37.6H53.8v-2H19.72v2zm34.08 0c6.327 0 11.222-1.129 14.514-3.555l-1.187-1.61c-2.788 2.054-7.173 3.165-13.327 3.165v2zm14.494-3.541c3.499-2.449 5.226-6.053 5.226-10.659h-2c0 4.034-1.472 6.99-4.373 9.021l1.147 1.638zm5.226-10.659c0-4.606-1.727-8.21-5.226-10.659l-1.147 1.638c2.901 2.031 4.373 4.987 4.373 9.021h2zm-5.206-10.645C65.02 106.129 60.126 105 53.799 105v2c6.154 0 10.539 1.111 13.327 3.165l1.187-1.61zM53.799 105H15.88v2H53.8v-2zm-36.92 1V68.56h-2V106h2zm-1-36.44h30.24v-2H15.88v2zm30.24 0c6.463 0 11.366-1.041 14.506-3.31l-1.171-1.62c-2.62 1.891-6.997 2.93-13.335 2.93v2zm14.514-3.315c3.313-2.441 4.966-5.87 4.966-10.165h-2c0 3.704-1.386 6.516-4.153 8.555l1.187 1.61zm4.966-10.165c0-4.44-1.644-7.892-4.995-10.185l-1.13 1.65c2.73 1.867 4.125 4.655 4.125 8.535h2zm-4.974-10.17c-3.14-2.269-8.043-3.31-14.506-3.31v2c6.338 0 10.715 1.038 13.335 2.93l1.17-1.62zM46.119 42.6h-26.4v2h26.4v-2zm-27.4 1v88.8h2V43.6h-2zm194.785 22.8v-1h-1v1h1zm74.88 0h1v-1h-1v1zm0 40.8v1h1v-1h-1zm-74.88 0h-1v1h1v-1zm3.84 22.08h-1v1h1v-1zm84 0h1v-1h-1v1zm0 42.72v1h1v-1h-1zm-139.68 0h-1v1h1v-1zm0-168V3h-1v1h1zm136.56 0h1V3h-1v1zm0 42.72v1h1v-1h-1zm-80.88 0v-1h-1v1h1zm-3.84 20.68h74.88v-2h-74.88v2zm73.88-1v40.8h2V66.4h-2zm1 39.8h-74.88v2h74.88v-2zm-73.88 1V66.4h-2v40.8h2zm2.84 23.08h84v-2h-84v2zm83-1V172h2v-42.72h-2zm1 41.72h-139.68v2h139.68v-2zm-138.68 1V4h-2v168h2zm-1-167h136.56V3h-136.56v2zm135.56-1v42.72h2V4h-2zm1 41.72h-80.88v2h80.88v-2zm-81.88 1v82.56h2V46.72h-2zM335.149 172h-1v1h1v-1zm0-168V3h-1v1h1zm121.44 7.68-.411.912.005.002.406-.914zm26.64 22.08-.839.545.005.006.834-.551zm0 67.2.83.558.004-.007-.834-.551zm-26.64 21.36-.396-.918-.004.002.4.916zm-90 7.44-.679-.735-1.877 1.735h2.556v-1zm25.2-23.28h1v-2.285l-1.679 1.55.679.735zm0 65.52v1h1v-1h-1zm43.92 0-.829.559.297.441h.532v-1zm-41.28-61.2v-1h-1.881l1.052 1.559.829-.559zm60 0 .826-.564-.298-.436h-.528v1zm41.76 61.2v1h1.893l-1.067-1.564-.826.564zm-104.4-59.28-.714.7 1.714 1.747v-2.447h-1zm-25.2-25.68v-1h-2.383l1.669 1.7.714-.7zm63.12-5.28-.676-.737-.008.007-.007.007.691.723zm0-28.8-.691.723.007.007.008.007.676-.737zm-63.12-5.28-.714-.7-1.669 1.7h2.383v-1zm25.2-25.68h1v-2.447l-1.714 1.747.714.7zm-55.64 150V4h-2v168h2zm-1-167h80.88V3h-80.88v2zm80.88 0c15.574 0 28.947 2.543 40.149 7.592l.822-1.824C445.482 5.578 431.815 3 416.029 3v2zm40.154 7.594c11.361 5.05 20.083 12.29 26.207 21.711l1.677-1.09c-6.356-9.778-15.394-17.259-27.072-22.449l-.812 1.828zm26.212 21.717c6.116 9.254 9.194 20.256 9.194 33.049h2c0-13.127-3.163-24.525-9.526-34.151l-1.668 1.102zm9.194 33.049c0 12.793-3.078 23.795-9.194 33.049l1.668 1.102c6.363-9.626 9.526-21.024 9.526-34.151h-2zm-9.19 33.042c-6.12 9.102-14.84 16.106-26.206 21l.791 1.836c11.675-5.026 20.715-12.262 27.075-21.72l-1.66-1.116zm-26.21 21.002c-11.205 4.892-24.583 7.356-40.16 7.356v2c15.782 0 29.445-2.496 40.96-7.524l-.8-1.832zm-40.16 7.356h-49.44v2h49.44v-2zm-48.762 1.735 25.2-23.28-1.357-1.47-25.2 23.28 1.357 1.47zm23.522-24.015V172h2v-65.52h-2zm1 64.52h-56.64v2h56.64v-2zm44.749.441-41.28-61.2-1.658 1.118 41.28 61.2 1.658-1.118zM394.429 111.8h60v-2h-60v2zm59.174-.436 41.76 61.2 1.652-1.128-41.76-61.2-1.652 1.128zM496.189 171h-60.48v2h60.48v-2zm-103.686-58.98-25.201-25.68-1.427 1.4 25.2 25.68 1.428-1.4zm-25.914-23.98h45.84v-2h-45.84v2zm45.84 0c7.962 0 14.026-1.784 17.971-5.557l-1.382-1.446c-3.416 3.267-8.872 5.003-16.589 5.003v2zm17.955-5.543c4.082-3.741 6.085-8.828 6.085-15.137h-2c0 5.851-1.838 10.364-5.436 13.663l1.351 1.474zm6.085-15.137c0-6.309-2.003-11.396-6.085-15.137l-1.351 1.474c3.598 3.299 5.436 7.812 5.436 13.663h2zM430.4 52.237c-3.945-3.773-10.009-5.557-17.971-5.557v2c7.717 0 13.173 1.736 16.589 5.003l1.382-1.446zm-17.971-5.557h-45.84v2h45.84v-2zm-45.127 1.7 25.201-25.68-1.428-1.4-25.2 25.68 1.427 1.4zM390.789 22v90.72h2V22h-2zm116.948 150-.916-.401-.613 1.401h1.529v-1zm73.44-168V3h-.654l-.262.6.916.4zm55.68 0 .916-.4-.262-.6h-.654v1zm73.44 168v1h1.528l-.612-1.401-.916.401zm-58.56 0-.934.359.247.641h.687v-1zm-54.24-141.12v-1h-1.456l.522 1.359.934-.359zm22.08 0 .933.359.523-1.359h-1.456v1zM565.337 172v1h.687l.246-.641-.933-.359zm-13.92-29.28-.943-.333-.471 1.333h1.414v-1zm14.4-40.8v-1h-.708l-.235.667.943.333zm77.28 0 .943-.333-.236-.667h-.707v1zm14.4 40.8v1h1.413l-.47-1.333-.943.333zm-148.844 29.681 73.44-168-1.832-.802-73.44 168 1.832.802zM581.177 5h55.68V3h-55.68v2zm54.764-.6 73.44 168.001 1.832-.802-73.44-168-1.832.802zM710.297 171h-58.56v2h58.56v-2zm-57.627.641-54.24-141.12-1.867.718 54.24 141.12 1.867-.718zM597.497 31.88h22.08v-2h-22.08v2zm21.146-1.359-54.24 141.12 1.867.718 54.24-141.12-1.867-.718zM565.337 171h-57.6v2h57.6v-2zm-12.977-27.947 14.4-40.8-1.886-.666-14.4 40.8 1.886.666zm13.457-40.133h77.28v-2h-77.28v2zm76.337-.667 14.4 40.8 1.886-.666-14.4-40.8-1.886.666zm15.343 39.467h-106.08v2h106.08v-2zm120.935 27.88-.355.935.008.003.008.003.339-.941zm-29.76-18.24-.685.728.007.006.678-.734zm-19.44-27.84-.917.397.917-.397zm0-71.04-.917-.397.917.397zm19.44-27.84-.678-.734-.007.006.685.728zm29.76-18 .344.939.008-.003-.352-.936zm81.12 2.16-.414.91.004.002.41-.912zm31.68 24.96.666.746.692-.617-.563-.736-.795.607zm-35.759 31.92-.783.622.659.83.789-.706-.665-.746zm-16.56-14.4-.512.86.014.008.014.007.484-.875zm-36.241-2.4.372.928-.372-.928zm-12.479 8.4-.723-.691-.008.008-.008.009.739.674zm-7.92 13.44.936.351.003-.01-.939-.341zm0 34.8-.94.342.003.009.937-.351zm7.92 13.2-.739.674.008.009.008.008.723-.691zm12.479 8.4-.371.928.371-.928zm36.241-2.16.493.87.008-.005-.501-.865zm16.56-14.64.665-.746-.789-.705-.659.829.783.622zm35.759 31.92.791.613.572-.737-.697-.622-.666.746zm-31.68 24.96.415.91.005-.002-.42-.908zm-43.68 7.64c-13.335 0-25.699-2.064-37.1-6.181l-.679 1.882c11.639 4.203 24.235 6.299 37.779 6.299v-2zm-37.084-6.175c-11.247-4.277-21.056-10.291-29.437-18.039l-1.357 1.468c8.579 7.932 18.61 14.078 30.083 18.441l.711-1.87zm-29.43-18.033c-8.219-7.744-14.621-16.911-19.208-27.509l-1.835.794c4.693 10.842 11.251 20.235 19.672 28.171l1.371-1.456zm-19.208-27.509c-4.58-10.582-6.877-22.285-6.877-35.123h-2c0 13.082 2.342 25.059 7.042 35.917l1.835-.794zM723.273 88c0-12.838 2.297-24.541 6.877-35.123l-1.835-.794c-4.7 10.858-7.042 22.835-7.042 35.917h2zm6.877-35.123c4.587-10.598 10.989-19.765 19.208-27.51l-1.371-1.455c-8.421 7.936-14.979 17.329-19.672 28.17l1.835.795zm19.201-27.503c8.379-7.746 18.183-13.678 29.425-17.795l-.687-1.878c-11.478 4.203-21.514 10.27-30.095 18.205l1.357 1.468zm29.433-17.798c11.397-4.274 23.757-6.416 37.088-6.416v-2c-13.548 0-26.148 2.178-37.791 6.544l.703 1.872zm37.088-6.416c16.364 0 30.778 2.86 43.266 8.55l.829-1.82c-12.792-5.83-27.498-8.73-44.095-8.73v2zm43.27 8.552c12.653 5.694 23.079 13.91 31.296 24.655l1.589-1.214c-8.423-11.016-19.117-19.439-32.064-25.265l-.821 1.824zm31.425 23.302-35.76 31.92 1.331 1.492 35.76-31.92-1.331-1.492zm-34.312 32.044c-5.03-6.328-10.648-11.22-16.859-14.653l-.967 1.75c5.949 3.288 11.371 7.995 16.261 14.147l1.565-1.244zM839.424 50.42C833.335 46.8 826.435 45 818.753 45v2c7.357 0 13.897 1.72 19.648 5.14l1.023-1.72zM818.753 45c-6.029 0-11.518.978-16.452 2.952l.743 1.857C807.71 47.942 812.941 47 818.753 47v-2zm-16.452 2.952c-4.931 1.972-9.211 4.852-12.831 8.637l1.445 1.382c3.42-3.575 7.46-6.295 12.129-8.162l-.743-1.857zm-12.847 8.654c-3.459 3.788-6.162 8.385-8.121 13.772l1.879.684c1.881-5.173 4.458-9.536 7.719-13.108l-1.477-1.348zm-8.118 13.763c-1.968 5.25-2.943 11.131-2.943 17.631h2c0-6.3.944-11.939 2.816-16.929l-1.873-.702zM778.393 88c0 6.5.975 12.458 2.94 17.862l1.879-.684c-1.875-5.156-2.819-10.879-2.819-17.178h-2zm2.943 17.871c1.961 5.228 4.664 9.74 8.118 13.523l1.477-1.348c-3.266-3.577-5.843-7.865-7.722-12.877l-1.873.702zm8.134 13.54c3.62 3.785 7.9 6.665 12.831 8.637l.743-1.856c-4.669-1.868-8.709-4.588-12.129-8.163l-1.445 1.382zm12.831 8.637c4.934 1.974 10.423 2.952 16.452 2.952v-2c-5.812 0-11.043-.942-15.709-2.808l-.743 1.856zM818.753 131c7.674 0 14.567-1.716 20.653-5.17l-.987-1.74c-5.754 3.266-12.301 4.91-19.666 4.91v2zm20.661-5.175c6.201-3.59 11.814-8.558 16.841-14.883l-1.565-1.244c-4.893 6.155-10.32 10.947-16.279 14.397l1.003 1.73zm15.393-14.759 35.76 31.92 1.331-1.492-35.76-31.92-1.331 1.492zm35.636 30.561c-8.219 10.588-18.65 18.81-31.31 24.665l.839 1.816c12.94-5.985 23.629-14.403 32.051-25.255l-1.58-1.226zm-31.305 24.663c-12.488 5.691-26.902 8.55-43.266 8.55v2c16.597 0 31.303-2.901 44.095-8.73l-.829-1.82zm60.448 5.71h-1v1h1v-1zm0-168V3h-1v1h1zm56.64 0h1V3h-1v1zm0 168v1h1v-1h-1zm-55.64 0V4h-2v168h2zm-1-167h56.64V3h-56.64v2zm55.64-1v168h2V4h-2zm1 167h-56.64v2h56.64v-2zm21.026 1-.916-.401-.612 1.401h1.528v-1zM1070.69 4V3h-.65l-.26.6.91.4zm55.68 0 .92-.4-.26-.6h-.66v1zm73.44 168v1h1.53l-.61-1.401-.92.401zm-58.56 0-.93.359.25.641h.68v-1zm-54.24-141.12v-1h-1.45l.52 1.359.93-.359zm22.08 0 .94.359.52-1.359h-1.46v1zM1054.85 172v1h.69l.25-.641-.94-.359zm-13.92-29.28-.94-.333-.47 1.333h1.41v-1zm14.4-40.8v-1h-.71l-.23.667.94.333zm77.28 0 .95-.333-.24-.667h-.71v1zm14.4 40.8v1h1.42l-.47-1.333-.95.333zm-148.841 29.681 73.441-168-1.83-.802-73.444 168 1.833.802zM1070.69 5h55.68V3h-55.68v2zm54.77-.6 73.44 168.001 1.83-.802-73.44-168-1.83.802zm74.35 166.6h-58.56v2h58.56v-2zm-57.62.641-54.24-141.12-1.87.718 54.24 141.12 1.87-.718zM1087.01 31.88h22.08v-2h-22.08v2zm21.15-1.359-54.24 141.12 1.87.718 54.24-141.12-1.87-.718zM1054.85 171h-57.598v2h57.598v-2zm-12.97-27.947 14.4-40.8-1.89-.666-14.4 40.8 1.89.666zm13.45-40.133h77.28v-2h-77.28v2zm76.34-.667 14.4 40.8 1.89-.666-14.4-40.8-1.89.666zm15.34 39.467h-106.08v2h106.08v-2zm120.94 27.88-.36.935.01.003.01.003.34-.941zm-29.76-18.24-.69.728.01.006.68-.734zm-19.44-27.84-.92.397.92-.397zm0-71.04-.92-.397.92.397zm19.68-27.84-.68-.734.68.734zm30-18 .34.94.01-.002-.35-.938zm82.8 1.92-.4.918.01.002.39-.92zm32.4 24 .66.75.72-.636-.61-.746-.77.632zm-36.24 31.92-.76.656.66.76.76-.666-.66-.75zm-17.28-13.68-.47.885.02.007.01.007.44-.899zm-37.44-1.92-.35-.936-.01.003.36.933zm-12.72 8.4.72.691-.72-.691zm-8.16 13.2.93.351-.93-.351zm0 34.8-.94.342v.009l.94-.351zm8.16 13.2.72-.691-.72.691zm12.48 8.64-.4.918.02.007.02.008.36-.933zm35.28-.24.32.946.01-.004.01-.004-.34-.938zm19.44-11.28.77-.632-.61-.753-.77.592.61.793zm31.68 38.88.56.83.91-.612-.7-.85-.77.632zm-35.04 15.84.27.963-.27-.963zm-14.16-23.04h-1v.864l.85.125.15-.989zm0-63.84v-1h-1v1h1zm49.2 0h1v-1h-1v1zm0 71.04-.15.989 1.15.168v-1.157h-1zm-73.2 20.36c-13.5 0-25.94-2.064-37.34-6.181l-.68 1.882c11.64 4.203 24.32 6.299 38.02 6.299v-2zm-37.33-6.175c-11.24-4.277-21.05-10.291-29.43-18.039l-1.36 1.468c8.58 7.932 18.61 14.078 30.08 18.441l.71-1.87zm-29.43-18.033c-8.21-7.744-14.62-16.911-19.2-27.509l-1.84.794c4.69 10.842 11.25 20.235 19.67 28.171l1.37-1.456zm-19.2-27.509c-4.58-10.582-6.88-22.285-6.88-35.123h-2c0 13.082 2.34 25.059 7.04 35.917l1.84-.794zM1212.79 88c0-12.838 2.3-24.541 6.88-35.123l-1.84-.794c-4.7 10.858-7.04 22.835-7.04 35.917h2zm6.88-35.123c4.58-10.594 11.06-19.758 19.44-27.503l-1.36-1.468c-8.58 7.935-15.22 17.33-19.92 28.177l1.84.794zm19.44-27.503c8.37-7.744 18.26-13.676 29.66-17.793l-.68-1.882c-11.64 4.203-21.76 10.27-30.34 18.207l1.36 1.468zm29.67-17.796c11.55-4.274 24.23-6.418 38.05-6.418v-2c-14.03 0-26.95 2.176-38.75 6.542l.7 1.876zm38.05-6.418c16.53 0 31.19 2.78 44 8.318l.79-1.836c-13.1-5.663-28.04-8.482-44.79-8.482v2zm44.01 8.32c12.98 5.54 23.64 13.445 32.01 23.712l1.55-1.264c-8.59-10.533-19.52-18.628-32.78-24.288l-.78 1.84zm32.13 22.33-36.24 31.92 1.32 1.5 36.24-31.92-1.32-1.5zm-34.83 32.014c-5.35-6.165-11.22-10.815-17.59-13.923l-.88 1.798c6.1 2.972 11.76 7.442 16.96 13.437l1.51-1.312zm-17.57-13.909c-6.23-3.282-13.2-4.915-20.86-4.915v2c7.37 0 14.01 1.568 19.93 4.685l.93-1.77zM1309.71 45c-6.35 0-12.15.976-17.39 2.944l.7 1.872c4.99-1.872 10.55-2.816 16.69-2.816v-2zm-17.4 2.947c-5.09 1.971-9.46 4.851-13.08 8.642l1.44 1.382c3.41-3.57 7.53-6.289 12.36-8.158l-.72-1.866zm-13.08 8.642c-3.62 3.785-6.41 8.303-8.38 13.54l1.87.702c1.88-5.003 4.53-9.285 7.95-12.86l-1.44-1.382zm-8.38 13.54c-1.97 5.252-2.94 11.214-2.94 17.871h2c0-6.463.94-12.181 2.81-17.169l-1.87-.702zM1267.91 88c0 6.344.97 12.221 2.94 17.622l1.88-.684c-1.88-5.159-2.82-10.802-2.82-16.938h-2zm2.94 17.631c1.97 5.237 4.76 9.755 8.38 13.54l1.44-1.382c-3.42-3.575-6.07-7.857-7.95-12.86l-1.87.702zm8.38 13.54c3.61 3.779 7.88 6.735 12.8 8.867l.8-1.836c-4.69-2.028-8.73-4.832-12.16-8.413l-1.44 1.382zm12.84 8.882c5.09 1.97 10.73 2.947 16.92 2.947v-2c-5.98 0-11.37-.943-16.2-2.813l-.72 1.866zm16.92 2.947c6.51 0 12.86-1.058 19.04-3.174l-.65-1.892a56.393 56.393 0 0 1-18.39 3.066v2zm19.06-3.182c6.2-2.284 12.77-6.103 19.71-11.425l-1.22-1.586c-6.83 5.238-13.22 8.939-19.18 11.135l.69 1.876zm18.32-11.586 31.68 38.88 1.55-1.264-31.68-38.88-1.55 1.264zm31.9 37.418c-10.14 6.815-21.72 12.053-34.75 15.707l.54 1.926c13.21-3.706 24.99-9.028 35.33-15.973l-1.12-1.66zm-34.75 15.707c-13.04 3.658-25.67 5.483-37.89 5.483v2c12.42 0 25.23-1.855 38.43-5.557l-.54-1.926zm-12.89-22.077V83.44h-2v63.84h2zm-1-62.84h49.2v-2h-49.2v2zm48.2-1v71.04h2V83.44h-2zm1.14 70.051-49.2-7.2-.29 1.978 49.2 7.2.29-1.978zM1396.72 172l-.92-.401-.61 1.401h1.53v-1zm73.44-168V3h-.65l-.27.6.92.4zm55.68 0 .92-.4-.26-.6h-.66v1zm73.44 168v1h1.53l-.61-1.401-.92.401zm-58.56 0-.93.359.24.641h.69v-1zm-54.24-141.12v-1h-1.45l.52 1.359.93-.359zm22.08 0 .93.359.53-1.359h-1.46v1zM1454.32 172v1h.69l.24-.641-.93-.359zm-13.92-29.28-.94-.333-.47 1.333h1.41v-1zm14.4-40.8v-1h-.71l-.23.667.94.333zm77.28 0 .94-.333-.23-.667h-.71v1zm14.4 40.8v1h1.41l-.47-1.333-.94.333zm-148.84 29.681 73.44-168-1.84-.802-73.44 168 1.84.802zM1470.16 5h55.68V3h-55.68v2zm54.76-.6 73.44 168.001 1.84-.802-73.44-168-1.84.802zm74.36 166.6h-58.56v2h58.56v-2zm-57.63.641-54.24-141.12-1.86.718 54.24 141.12 1.86-.718zM1486.48 31.88h22.08v-2h-22.08v2zm21.15-1.359-54.24 141.12 1.86.718 54.24-141.12-1.86-.718zM1454.32 171h-57.6v2h57.6v-2zm-12.98-27.947 14.4-40.8-1.88-.666-14.4 40.8 1.88.666zm13.46-40.133h77.28v-2h-77.28v2zm76.34-.667 14.4 40.8 1.88-.666-14.4-40.8-1.88.666zm15.34 39.467H1440.4v2h106.08v-2z" fill="#fff" fill-opacity=".2" mask="url(#a)"/></svg>