<svg width="86" height="86" viewBox="0 0 86 86" fill="none" xmlns="http://www.w3.org/2000/svg"><g filter="url(#a)"><circle cx="43" cy="43" r="41" fill="#C7FF6E"/><circle cx="43" cy="43" r="42" stroke="#709D27" stroke-width="2"/></g><mask id="b" style="mask-type:alpha" maskUnits="userSpaceOnUse" x="2" y="2" width="82" height="82"><circle cx="43" cy="43" r="40" fill="#C7FF6E" stroke="#709D27" stroke-width="2"/></mask><g mask="url(#b)"><path d="M3.094 48.29h-4.293c-.56 0-.947-.538-.748-1.041L2.32 36.495a.774.774 0 0 1 .294-.36.823.823 0 0 1 .454-.135h7.199c.568 0 .955.553.74 1.058l-2.484 5.855H13.2c.687 0 1.054.779.6 1.275L2.336 56.734c-.558.61-1.59.082-1.375-.703l2.134-7.74z" fill="#9CD1FF" fill-opacity=".3"/><path d="M2.438 48.79H-1.2c-.883 0-1.554-.866-1.213-1.725l4.85 1.725zm0 0L.478 55.9c-.182.66.178 1.21.652 1.452.47.24 1.121.216 1.574-.28l11.465-12.545L2.438 48.79zm-.584-12.48-4.266 10.755 16.58-2.54c.776-.847.111-2.112-.97-2.112h-3.92l2.189-5.16c.366-.864-.307-1.753-1.201-1.753h-7.2c-.258 0-.513.075-.73.219a1.274 1.274 0 0 0-.481.591z" stroke="#4B371F" stroke-opacity=".3"/><path d="M22.094 14.29h-4.293c-.56 0-.947-.538-.748-1.041L21.32 2.495a.774.774 0 0 1 .294-.36.823.823 0 0 1 .454-.135h7.199c.568 0 .955.553.74 1.058l-2.483 5.855H32.2c.687 0 1.054.779.6 1.275L21.336 22.734c-.558.61-1.59.082-1.375-.703l2.134-7.74z" fill="#9CD1FF" fill-opacity=".3"/><path d="M21.438 14.79H17.8c-.883 0-1.554-.866-1.213-1.725l4.85 1.725zm0 0-1.96 7.109c-.182.66.178 1.21.652 1.452.47.24 1.121.216 1.574-.28l11.465-12.545-11.731 4.264zm-.583-12.48-4.267 10.755 16.58-2.54c.776-.847.111-2.112-.97-2.112h-3.92l2.189-5.16c.366-.864-.307-1.753-1.201-1.753h-7.2a1.33 1.33 0 0 0-.73.219 1.274 1.274 0 0 0-.481.591z" stroke="#4B371F" stroke-opacity=".3"/><path d="M22.094 80.29h-4.293c-.56 0-.947-.538-.748-1.041l4.266-10.754a.774.774 0 0 1 .294-.36.823.823 0 0 1 .454-.135h7.199c.568 0 .955.553.74 1.058l-2.483 5.855h4.676c.687 0 1.054.779.6 1.275L21.336 88.734c-.558.61-1.59.082-1.375-.703l2.134-7.74z" fill="#9CD1FF" fill-opacity=".3"/><path d="M21.438 80.79H17.8c-.883 0-1.554-.866-1.213-1.726l4.85 1.726zm0 0-1.96 7.109c-.182.66.178 1.21.652 1.452.47.24 1.121.216 1.574-.28l11.465-12.545-11.731 4.264zm-.583-12.48-4.267 10.754 16.58-2.538c.776-.848.111-2.113-.97-2.113h-3.92l2.189-5.16c.366-.864-.307-1.753-1.201-1.753h-7.2a1.33 1.33 0 0 0-.73.219 1.274 1.274 0 0 0-.481.591z" stroke="#4B371F" stroke-opacity=".3"/><path d="M37.915 49.655H30.4c-.98 0-1.657-.95-1.308-1.836l7.466-18.947c.1-.257.28-.477.514-.633.233-.156.51-.239.794-.239h12.598c.994 0 1.671.974 1.296 1.864l-4.347 10.317h8.184c1.203 0 1.845 1.371 1.052 2.246L36.586 64.532c-.975 1.075-2.784.144-2.405-1.238l3.734-13.64z" fill="#9CD1FF" fill-opacity=".3"/><path d="m48.167 39.68 4.055-9.622c.524-1.244-.432-2.558-1.757-2.558H37.867c-.381 0-.755.112-1.072.323a1.863 1.863 0 0 0-.702.866l-7.465 18.947 19.54-7.955zm0 0h7.43c1.603 0 2.531 1.862 1.423 3.083m-8.853-3.082 8.853 3.082m0 0L36.956 64.868M57.02 42.763 36.956 64.868m0 0c-.662.73-1.612.77-2.31.41-.7-.36-1.21-1.16-.948-2.116l3.562-13.007h-6.858c-1.308 0-2.262-1.281-1.774-2.519l8.328 17.232z" stroke="#4B371F" stroke-opacity=".3"/><path d="M59.094 14.29h-4.293c-.56 0-.947-.538-.748-1.041L58.32 2.495a.774.774 0 0 1 .294-.36.823.823 0 0 1 .454-.135h7.199c.568 0 .955.553.74 1.058l-2.484 5.855H69.2c.687 0 1.054.779.6 1.275L58.336 22.734c-.558.61-1.59.082-1.375-.703l2.134-7.74z" fill="#9CD1FF" fill-opacity=".3"/><path d="M58.438 14.79H54.8c-.883 0-1.554-.866-1.213-1.725l4.85 1.725zm0 0-1.96 7.109c-.182.66.178 1.21.652 1.452.47.24 1.121.216 1.574-.28l11.465-12.545-11.731 4.264zm-.584-12.48-4.266 10.755 16.58-2.54c.776-.847.111-2.112-.97-2.112h-3.92l2.189-5.16c.366-.864-.307-1.753-1.201-1.753h-7.2a1.33 1.33 0 0 0-.73.219 1.274 1.274 0 0 0-.481.591z" stroke="#4B371F" stroke-opacity=".3"/><path d="M59.094 80.29h-4.293c-.56 0-.947-.538-.748-1.041l4.266-10.754a.774.774 0 0 1 .294-.36.823.823 0 0 1 .454-.135h7.199c.568 0 .955.553.74 1.058l-2.484 5.855H69.2c.687 0 1.054.779.6 1.275L58.336 88.734c-.558.61-1.59.082-1.375-.703l2.134-7.74z" fill="#9CD1FF" fill-opacity=".3"/><path d="M58.438 80.79H54.8c-.883 0-1.554-.866-1.213-1.726l4.85 1.726zm0 0-1.96 7.109c-.182.66.178 1.21.652 1.452.47.24 1.121.216 1.574-.28l11.465-12.545-11.731 4.264zm-.584-12.48-4.266 10.754 16.58-2.538c.776-.848.111-2.113-.97-2.113h-3.92l2.189-5.16c.366-.864-.307-1.753-1.201-1.753h-7.2a1.33 1.33 0 0 0-.73.219 1.274 1.274 0 0 0-.481.591z" stroke="#4B371F" stroke-opacity=".3"/><path d="M77.094 48.29h-4.293c-.56 0-.947-.538-.748-1.041l4.266-10.754a.774.774 0 0 1 .294-.36.823.823 0 0 1 .454-.135h7.199c.568 0 .955.553.74 1.058l-2.484 5.855H87.2c.687 0 1.054.779.6 1.275L76.336 56.734c-.558.61-1.59.082-1.375-.703l2.134-7.74z" fill="#9CD1FF" fill-opacity=".3"/><path d="M76.438 48.79H72.8c-.883 0-1.554-.866-1.213-1.725l4.85 1.725zm0 0-1.96 7.109c-.182.66.178 1.21.652 1.452.47.24 1.121.216 1.574-.28l11.465-12.545-11.731 4.264zm-.584-12.48-4.266 10.755 16.58-2.54c.776-.847.111-2.112-.97-2.112h-3.92l2.189-5.16c.366-.864-.307-1.753-1.201-1.753h-7.2c-.258 0-.513.075-.73.219a1.274 1.274 0 0 0-.481.591z" stroke="#4B371F" stroke-opacity=".3"/></g><defs><filter id="a" x="-10" y="-10" width="106" height="106" filterUnits="userSpaceOnUse" color-interpolation-filters="sRGB"><feFlood flood-opacity="0" result="BackgroundImageFix"/><feGaussianBlur in="BackgroundImageFix" stdDeviation="5"/><feComposite in2="SourceAlpha" operator="in" result="effect1_backgroundBlur_26316_292165"/><feBlend in="SourceGraphic" in2="effect1_backgroundBlur_26316_292165" result="shape"/></filter></defs></svg>