<svg xmlns="http://www.w3.org/2000/svg" width="26" height="26" viewBox="0 0 26 26" fill="none"><circle cx="13" cy="13" r="13" fill="#1F2229"/><path d="m14.444 13 3.336-3.336c.25-.25.293-.615.096-.812l-.728-.728c-.198-.198-.561-.154-.812.096L13 11.556 9.664 8.22c-.25-.25-.614-.294-.812-.096l-.728.728c-.198.197-.155.561.096.812L11.556 13 8.22 16.336c-.25.25-.294.614-.096.812l.728.728c.198.197.561.155.812-.096L13 14.444l3.336 3.335c.251.252.614.294.812.097l.728-.728c.197-.198.155-.561-.096-.812L14.444 13z" fill="#fff"/></svg>