<svg width="198" height="59" viewBox="0 0 198 59" fill="none" xmlns="http://www.w3.org/2000/svg"><path d="M.946 56.426a1.5 1.5 0 1 0 2.486 1.68l-2.486-1.68zm192.239 2.319a1.5 1.5 0 0 0 1.728-1.23l2.245-13.312a1.5 1.5 0 0 0-2.959-.499l-1.995 11.833-11.833-1.995a1.5 1.5 0 0 0-.499 2.958l13.313 2.245zM3.432 58.106c8.204-12.133 21.85-21.333 38.407-27.503 16.544-6.165 35.885-9.262 55.314-9.262 19.429 0 38.883 3.096 55.65 9.264 16.779 6.172 30.765 15.38 39.409 27.53l2.444-1.74c-9.106-12.798-23.682-22.303-40.817-28.606-17.147-6.307-36.959-9.448-56.686-9.448-19.726 0-39.43 3.141-56.362 9.45C23.872 34.098 9.614 43.61.946 56.427l2.486 1.68z" fill="#000"/><mask id="a" maskUnits="userSpaceOnUse" x="71" y="-1" width="51" height="45" fill="#000"><path fill="#fff" d="M71-1h51v45H71z"/><path fill-rule="evenodd" clip-rule="evenodd" d="M111.224 9.136C107.803 5.31 97.389-.668 83.071 6.008c-17.902 8.348-4.821 32.776 1.272 33.676 5.459.806 17.105.494 19.471-2.789 4.217-1.604 7.922-4.004 8.298-6.704.619-4.44-1.089-7.32-3.053-10.632a77.111 77.111 0 0 1-1.306-2.258c4.313-1.649 8.632-3.911 10.558-6.676 2.759-3.96-3.445-2.866-6.892-1.824-.05.099-.114.211-.195.335z"/></mask><path fill-rule="evenodd" clip-rule="evenodd" d="M111.224 9.136C107.803 5.31 97.389-.668 83.071 6.008c-17.902 8.348-4.821 32.776 1.272 33.676 5.459.806 17.105.494 19.471-2.789 4.217-1.604 7.922-4.004 8.298-6.704.619-4.44-1.089-7.32-3.053-10.632a77.111 77.111 0 0 1-1.306-2.258c4.313-1.649 8.632-3.911 10.558-6.676 2.759-3.96-3.445-2.866-6.892-1.824-.05.099-.114.211-.195.335z" fill="#000"/><path d="m111.224 9.136-2.236 2 2.611 2.92 2.139-3.282-2.514-1.638zM83.071 6.008l1.268 2.719-1.268-2.72zm1.272 33.676.438-2.968-.438 2.968zm19.471-2.789-1.067-2.804-.841.32-.526.73 2.434 1.754zm8.298-6.704 2.971.414-2.971-.414zm-3.053-10.632 2.58-1.53-2.58 1.53zm-1.306-2.258-1.071-2.802-3.217 1.23 1.659 3.018 2.629-1.446zm10.558-6.676L115.85 8.91l2.461 1.715zM111.419 8.8l-.868-2.872-1.242.376-.577 1.161 2.687 1.335zm2.042-1.664C109.257 2.435 97.45-4.007 81.804 3.289l2.535 5.438c12.988-6.057 22.009-.543 24.649 2.409l4.473-4zM81.804 3.289c-5.181 2.416-8.308 6.119-9.78 10.4-1.44 4.186-1.215 8.67-.228 12.67.991 4.009 2.8 7.75 4.812 10.59 1.006 1.422 2.11 2.685 3.253 3.657 1.085.923 2.474 1.814 4.044 2.046l.876-5.936c.047.007-.306-.063-1.033-.68-.668-.57-1.446-1.427-2.243-2.553-1.596-2.253-3.08-5.31-3.884-8.564-.806-3.263-.876-6.508.077-9.279.92-2.674 2.871-5.155 6.641-6.913l-2.535-5.438zm2.1 39.363c2.999.442 7.523.565 11.632.156 2.058-.205 4.13-.555 5.911-1.119 1.651-.523 3.619-1.4 4.801-3.04l-4.868-3.508c.03-.04-.036.065-.359.252-.314.181-.769.38-1.386.576-1.239.393-2.863.686-4.694.869-3.67.365-7.698.242-10.16-.122l-.876 5.936zm20.976-2.953c2.269-.862 4.532-1.986 6.336-3.355 1.717-1.302 3.514-3.205 3.867-5.74l-5.942-.827c-.023.166-.267.813-1.551 1.787-1.196.907-2.894 1.786-4.843 2.527l2.133 5.608zm10.203-9.094c.779-5.584-1.496-9.292-3.444-12.576l-5.161 3.06c1.981 3.34 3.122 5.39 2.663 8.688l5.942.828zm-3.444-12.576a75.858 75.858 0 0 1-1.257-2.173l-5.258 2.89c.461.838.928 1.624 1.354 2.344l5.161-3.061zm4.211-9.119c-.616.884-1.77 1.88-3.468 2.9-1.66.997-3.645 1.903-5.7 2.69l2.143 5.603c2.257-.863 4.588-1.913 6.647-3.15 2.022-1.215 3.991-2.733 5.301-4.613l-4.923-3.43zm-3.563 2.762a24.45 24.45 0 0 1 2.591-.632c.929-.17 1.673-.234 2.147-.208.239.014.261.043.153.002-.113-.043-.576-.25-.907-.835-.353-.625-.278-1.183-.231-1.367.035-.138.045-.06-.19.278l4.923 3.43c.454-.652.874-1.406 1.084-2.239.222-.878.238-1.992-.362-3.055-.579-1.023-1.478-1.55-2.17-1.815-.686-.263-1.386-.357-1.966-.39-2.194-.122-5.033.552-6.808 1.088l1.736 5.743zm1.451-.898c.131-.202.257-.416.367-.638l-5.373-2.67.005-.01a.594.594 0 0 1-.027.043l5.028 3.275z" fill="#709D27" mask="url(#a)"/><path d="M92.949 23.084h-3.482c-.92 0-1.486-.944-1.188-1.764l4.67 1.764zm0 0-1.892 7.505a1.302 1.302 0 0 0 .622 1.477 1.226 1.226 0 0 0 1.566-.296l11.011-13.172c.677-.81.171-2.16-.961-2.16h-3.76l2.121-5.466c.32-.824-.245-1.791-1.178-1.791h-6.914c-.262 0-.517.084-.729.237l.293.405-.293-.405c-.211.153-.37.367-.459.612L88.28 21.32l4.67 1.764z" fill="#9CD1FF" stroke="#4B371F"/></svg>