<svg width="62" height="62" viewBox="0 0 62 62" fill="none" xmlns="http://www.w3.org/2000/svg">
  <g clip-path="url(#clip0_22123_388)">
    <g filter="url(#filter0_d_22123_388)">
      <path d="M31 20C31 8.95429 39.9543 0 51 0L305 0C316.046 0 325 8.95431 325 20V40.5496C325 51.5952 333.954 60.5495 345 60.5495L601 60.5497C612.046 60.5497 621 69.504 621 80.5497V730C621 741.046 612.046 750 601 750H-241C-252.046 750 -261 741.046 -261 730V80.5495C-261 69.5038 -252.046 60.5495 -241 60.5495H11C22.0457 60.5495 31 51.5952 31 40.5495V20Z" fill="#FFFDEB"/>
      <path d="M31.5 20C31.5 9.23043 40.2305 0.5 51 0.5H305C315.77 0.5 324.5 9.23045 324.5 20V40.5496C324.5 51.8714 333.678 61.0495 345 61.0495L601 61.0497C611.77 61.0497 620.5 69.7802 620.5 80.5497V730C620.5 740.77 611.77 749.5 601 749.5H-241C-251.77 749.5 -260.5 740.77 -260.5 730V80.5495C-260.5 69.78 -251.77 61.0495 -241 61.0495H11C22.3219 61.0495 31.5 51.8714 31.5 40.5495V20Z" stroke="black"/>
    </g>
  </g>
  <defs>
    <filter id="filter0_d_22123_388" x="-261" y="0" width="892" height="760" filterUnits="userSpaceOnUse" color-interpolation-filters="sRGB">
      <feFlood flood-opacity="0" result="BackgroundImageFix"/>
      <feColorMatrix in="SourceAlpha" type="matrix" values="0 0 0 0 0 0 0 0 0 0 0 0 0 0 0 0 0 0 127 0" result="hardAlpha"/>
      <feOffset dx="10" dy="10"/>
      <feComposite in2="hardAlpha" operator="out"/>
      <feColorMatrix type="matrix" values="0 0 0 0 0 0 0 0 0 0 0 0 0 0 0 0 0 0 0.25 0"/>
      <feBlend mode="normal" in2="BackgroundImageFix" result="effect1_dropShadow_22123_388"/>
      <feBlend mode="normal" in="SourceGraphic" in2="effect1_dropShadow_22123_388" result="shape"/>
    </filter>
    <clipPath id="clip0_22123_388">
      <rect width="62" height="62" fill="white"/>
    </clipPath>
  </defs>
</svg>
