<svg width="20" height="20" viewBox="0 0 20 20" fill="none" xmlns="http://www.w3.org/2000/svg">
  <circle cx="9.65229" cy="9.65229" r="9.65229" fill="#FFB7BF"/>
  <path d="M8.32517 5.82675C8.59584 5.38808 9.04851 5.16875 9.68317 5.16875C10.2898 5.16875 10.7285 5.37875 10.9992 5.79875C11.2792 6.21875 11.4192 6.72742 11.4192 7.32475C11.4192 7.81942 11.3725 8.37008 11.2792 8.97675C11.1858 9.57408 11.0552 10.1107 10.8872 10.5867C10.8032 10.8201 10.6585 11.0254 10.4532 11.2027C10.2572 11.3707 10.0005 11.4547 9.68317 11.4547C9.36584 11.4547 9.10451 11.3707 8.89917 11.2027C8.69384 11.0254 8.54917 10.8201 8.46517 10.5867C8.29717 10.1201 8.16651 9.59742 8.07317 9.01875C7.97984 8.43075 7.93317 7.89875 7.93317 7.42275C7.93317 6.78808 8.06384 6.25608 8.32517 5.82675ZM10.6912 14.4647C10.4018 14.7541 10.0612 14.8987 9.66917 14.8987C9.27717 14.8987 8.93651 14.7541 8.64717 14.4647C8.35784 14.1754 8.21317 13.8347 8.21317 13.4427C8.21317 13.0507 8.35784 12.7101 8.64717 12.4207C8.93651 12.1314 9.27717 11.9867 9.66917 11.9867C10.0612 11.9867 10.4018 12.1314 10.6912 12.4207C10.9805 12.7101 11.1252 13.0507 11.1252 13.4427C11.1252 13.8347 10.9805 14.1754 10.6912 14.4647Z" fill="black"/>
</svg>
