<svg width="338" height="355" viewBox="0 0 338 355" fill="none" xmlns="http://www.w3.org/2000/svg">
  <path fill-rule="evenodd" clip-rule="evenodd" d="M166.375 178.061L310.623 85.1172L289.962 56.4978L166.375 178.061L185.303 0H151.168L166.375 178.061L115.275 10.2721L84.1629 25.0639L166.375 178.061L8.4251 119.829L0.77284 154.868L166.375 178.061L0 200.893L8.22432 235.787L166.375 178.061L73.1454 325.173L103.135 342.345L166.375 178.061L141.124 353.07L175.209 355L166.375 178.061L220.59 343.505L251.719 328.755L166.375 178.061L287.005 301.591L308.432 273.604L166.375 178.061L335.418 153.037L327.235 118.132L166.375 178.061ZM231.166 9.12623L261.499 25.6155L166.375 178.061L231.166 9.12623ZM338 202.124L330.073 237.094L166.375 178.061L338 202.124ZM44.4305 303.796L22.7667 276.012L166.375 178.061L44.4305 303.796ZM27.1524 74.798L49.2092 47.3587L166.375 178.061L27.1524 74.798Z" fill="url(#paint0_radial_30563_8784)"/>
  <defs>
    <radialGradient id="paint0_radial_30563_8784" cx="0" cy="0" r="1" gradientUnits="userSpaceOnUse" gradientTransform="translate(169 177.5) rotate(90) scale(177.5 169)">
      <stop stop-color="#EBF479"/>
      <stop offset="1" stop-color="#EBF479" stop-opacity="0"/>
    </radialGradient>
  </defs>
</svg>
