<svg width="100" height="66" viewBox="0 0 100 66" fill="none" xmlns="http://www.w3.org/2000/svg">
<mask id="path-1-outside-1_34706_5281" maskUnits="userSpaceOnUse" x="2.61523" y="7.38672" width="94" height="52" fill="black">
<rect fill="white" x="2.61523" y="7.38672" width="94" height="52"/>
<path d="M43.9707 14.0056C68.2543 6.27056 90.6401 8.47631 93.9706 18.9324C95.361 23.2977 93.2092 28.4095 88.4648 33.448L92.5849 38.5584H87.4365L85.6308 36.1785C78.7673 42.2284 68.3375 47.9502 56.0322 51.8699C31.7485 59.6049 9.36274 57.3992 6.03218 46.9431C4.53904 42.2555 7.12943 36.7062 12.6298 31.3123C13.4143 30.2584 14.0208 29.44 14.1992 29.1804C15.2057 27.7156 15.4511 26.7999 18.2011 26.5437C18.2426 26.5398 18.284 26.5373 18.3251 26.5339C24.9714 21.6843 33.8352 17.2341 43.9707 14.0056Z"/>
</mask>
<path d="M43.9707 14.0056C68.2543 6.27056 90.6401 8.47631 93.9706 18.9324C95.361 23.2977 93.2092 28.4095 88.4648 33.448L92.5849 38.5584H87.4365L85.6308 36.1785C78.7673 42.2284 68.3375 47.9502 56.0322 51.8699C31.7485 59.6049 9.36274 57.3992 6.03218 46.9431C4.53904 42.2555 7.12943 36.7062 12.6298 31.3123C13.4143 30.2584 14.0208 29.44 14.1992 29.1804C15.2057 27.7156 15.4511 26.7999 18.2011 26.5437C18.2426 26.5398 18.284 26.5373 18.3251 26.5339C24.9714 21.6843 33.8352 17.2341 43.9707 14.0056Z" fill="#6BFFFC"/>
<path d="M43.9707 14.0056L43.3636 12.1L43.3636 12.1L43.9707 14.0056ZM93.9706 18.9324L95.8763 18.3254L95.8763 18.3254L93.9706 18.9324ZM88.4648 33.448L87.0087 32.0769C86.3238 32.8043 86.2807 33.9255 86.9078 34.7033L88.4648 33.448ZM92.5849 38.5584V40.5584C93.3551 40.5584 94.0568 40.1161 94.3892 39.4213C94.7215 38.7265 94.6253 37.9026 94.1419 37.3031L92.5849 38.5584ZM87.4365 38.5584L85.8432 39.7672C86.2213 40.2656 86.8109 40.5584 87.4365 40.5584V38.5584ZM85.6308 36.1785L87.2241 34.9696C86.8881 34.5267 86.3829 34.2437 85.8297 34.1884C85.2766 34.1331 84.7253 34.3105 84.3083 34.6781L85.6308 36.1785ZM56.0322 51.8699L56.6392 53.7755L56.6392 53.7755L56.0322 51.8699ZM6.03218 46.9431L4.12652 47.5501H4.12652L6.03218 46.9431ZM12.6298 31.3123L14.0302 32.7402C14.1041 32.6677 14.1723 32.5896 14.2341 32.5065L12.6298 31.3123ZM14.1992 29.1804L15.8475 30.3131L15.8476 30.313L14.1992 29.1804ZM18.2011 26.5437L18.0156 24.5523L18.0156 24.5523L18.2011 26.5437ZM18.3251 26.5339L18.4885 28.5273C18.8553 28.4972 19.2067 28.3665 19.504 28.1496L18.3251 26.5339ZM43.9707 14.0056L44.5777 15.9113C56.5238 12.1061 67.9136 10.7786 76.632 11.6377C80.9948 12.0676 84.5894 13.0353 87.2339 14.4321C89.8674 15.8232 91.4366 17.5666 92.065 19.5394L93.9706 18.9324L95.8763 18.3254C94.8394 15.0701 92.3614 12.6168 89.1021 10.8952C85.8536 9.1794 81.7095 8.11863 77.0242 7.65696C67.6461 6.7329 55.7012 8.17008 43.3636 12.1L43.9707 14.0056ZM93.9706 18.9324L92.065 19.5393C93.1136 22.8316 91.6087 27.1918 87.0087 32.0769L88.4648 33.448L89.9209 34.8191C94.8097 29.6271 97.6085 23.7638 95.8763 18.3254L93.9706 18.9324ZM88.4648 33.448L86.9078 34.7033L91.0279 39.8137L92.5849 38.5584L94.1419 37.3031L90.0218 32.1927L88.4648 33.448ZM92.5849 38.5584V36.5584H87.4365V38.5584V40.5584H92.5849V38.5584ZM87.4365 38.5584L89.0298 37.3495L87.2241 34.9696L85.6308 36.1785L84.0375 37.3873L85.8432 39.7672L87.4365 38.5584ZM85.6308 36.1785L84.3083 34.6781C77.6993 40.5037 67.533 46.1075 55.4252 49.9642L56.0322 51.8699L56.6392 53.7755C69.142 49.793 79.8354 43.953 86.9533 37.6788L85.6308 36.1785ZM56.0322 51.8699L55.4252 49.9642C43.4791 53.7694 32.0892 55.0969 23.3709 54.2378C19.008 53.8079 15.4135 52.8402 12.769 51.4434C10.1354 50.0523 8.56622 48.3089 7.93784 46.3361L6.03218 46.9431L4.12652 47.5501C5.16341 50.8054 7.64139 53.2587 10.9008 54.9803C14.1492 56.6961 18.2933 57.7569 22.9786 58.2185C32.3567 59.1426 44.3016 57.7054 56.6392 53.7755L56.0322 51.8699ZM6.03218 46.9431L7.93784 46.3361C6.80958 42.794 8.64968 38.0166 14.0302 32.7402L12.6298 31.3123L11.2295 29.8843C5.60917 35.3958 2.2685 41.717 4.12652 47.5501L6.03218 46.9431ZM12.6298 31.3123L14.2341 32.5065C15.0018 31.4752 15.6414 30.6131 15.8475 30.3131L14.1992 29.1804L12.5508 28.0478C12.4003 28.2668 11.8268 29.0417 11.0256 30.118L12.6298 31.3123ZM14.1992 29.1804L15.8476 30.313C15.9885 30.1079 16.115 29.914 16.221 29.7519C16.332 29.5823 16.4175 29.4522 16.4997 29.335C16.6604 29.1059 16.7552 29.0051 16.8294 28.943C16.9217 28.8658 17.21 28.6447 18.3867 28.5351L18.2011 26.5437L18.0156 24.5523C16.4422 24.6989 15.2328 25.0638 14.2632 25.8747C13.8065 26.2566 13.4793 26.6754 13.225 27.038C13.0997 27.2166 12.9795 27.4004 12.8736 27.5622C12.7628 27.7316 12.6615 27.8867 12.5508 28.0478L14.1992 29.1804ZM18.2011 26.5437L18.3866 28.5351C18.3866 28.5351 18.3883 28.5349 18.3926 28.5346C18.397 28.5342 18.4028 28.5338 18.4115 28.5331C18.4246 28.5322 18.458 28.5298 18.4885 28.5273L18.3251 26.5339L18.1618 24.5406C18.1512 24.5415 18.1433 24.542 18.115 24.5441C18.0921 24.5458 18.0559 24.5486 18.0156 24.5523L18.2011 26.5437ZM18.3251 26.5339L19.504 28.1496C25.951 23.4454 34.6148 19.0848 44.5777 15.9113L43.9707 14.0056L43.3636 12.1C33.0556 15.3834 23.9918 19.9233 17.1463 24.9183L18.3251 26.5339Z" fill="#6BFFFC" mask="url(#path-1-outside-1_34706_5281)"/>
<ellipse cx="50" cy="32.9386" rx="46.1462" ry="19.8696" transform="rotate(-17.6682 50 32.9386)" fill="#836EF9"/>
<path d="M12.1853 38.5198L7.20216 38.5563C7.20216 38.5563 13.547 30.13 14.1983 29.1821C15.2048 27.7173 15.4497 26.802 18.1997 26.5458C20.5082 26.3307 22.2502 26.8832 22.2502 28.0094L21.747 35.5169L27.7859 26.8375H32.3152L26.1657 35.9195C24.7665 37.7691 23.4899 38.5567 20.7405 38.5562C17.5737 38.5557 17.8069 37.7691 17.8069 37.0914L18.5925 29.1821L12.1853 38.5198Z" fill="white"/>
<path d="M31.2411 38.5563H26.093L33.3004 28.3389C33.8152 27.5854 34.5059 26.5 37.3186 26.5C39.5687 26.5 40.5956 27.2005 41.0226 28.3389L44.1744 38.5563H39.7545L36.9042 29.7351L31.2411 38.5563Z" fill="white"/>
<path d="M59.4728 31.065C58.3714 28.0155 61.3615 26.5085 64.4964 26.5085C63.6163 27.6525 61.4538 30.3343 59.8444 31.9093C59.7067 31.6508 59.5828 31.3697 59.4728 31.065Z" fill="white"/>
<path d="M69.914 31.3525C72.0085 31.3525 73.9867 31.7831 74.9627 33.9863C76.4266 37.4344 73.4985 38.5646 69.914 38.5646H60.8113L60.7166 38.0991L63.3265 35.5506H69.914C70.4217 35.5506 70.7893 35.1765 70.6524 34.7989C70.5597 34.5433 70.2578 34.3665 69.914 34.3665H64.4964C64.999 33.9525 66.3831 32.1846 67.0122 31.3525H69.914Z" fill="white"/>
<path d="M68.2271 29.5183C68.7636 28.7134 69.5683 27.1707 69.9036 26.5L71.9271 26.5085L73.4963 29.5183H68.2271Z" fill="white"/>
<path d="M87.4355 38.56H92.5836L84.3467 28.3428C83.8318 27.5893 83.1411 26.5039 80.3285 26.5039C78.0784 26.5039 77.0516 27.2044 76.6245 28.3428L75.5069 38.56H79.9267L80.7429 29.739L87.4355 38.56Z" fill="white"/>
<path d="M53.362 26.8208C55.3219 26.9191 58.127 27.6219 59.2419 32.7095C57.4316 34.3481 53.4757 37.8207 52.1344 38.5981H46.3063C45.7836 38.5 44.738 38.0676 44.738 37.1255C44.738 36.183 45.1178 30.6483 45.1178 27.9985C45.1178 27.6063 45.4318 26.8212 46.6862 26.8208H53.362ZM49.5964 29.5112C49.3756 29.5114 49.1969 29.6908 49.1969 29.9116V35.147C49.1971 35.3676 49.3757 35.5462 49.5964 35.5464H53.2145C55.2235 35.5464 55.6486 34.051 55.2233 32.5288C54.9381 31.5079 54.6164 30.8037 54.3434 30.3345C54.0049 29.7528 53.3505 29.5112 52.6774 29.5112H49.5964Z" fill="white"/>
<path d="M53.481 19.7811C61.0466 16.0862 67.5282 15.2702 69.7389 18.2489C72.8448 22.4346 66.3406 32.5252 55.2115 40.786C44.0825 49.0466 32.543 52.3497 29.4371 48.1639C28.1754 46.4634 28.4997 43.7889 30.0758 40.6581C29.1009 42.9457 28.9869 44.8694 29.9293 46.1395C32.648 49.8028 43.1188 46.6361 53.317 39.0663C63.5151 31.4965 69.5789 22.3903 66.8609 18.7264C65.0501 16.286 59.7997 16.8775 53.481 19.7811Z" fill="#BFFF60"/>
<path d="M49.3507 17.003L51.6655 19.7354L55.1749 19.0235L52.4429 21.3387L53.1547 24.8486L50.8399 22.1162L47.3305 22.8281L50.0625 20.5129L49.3507 17.003Z" fill="#BFFF60"/>
</svg>
