<svg width="99" height="64" viewBox="0 0 99 64" fill="none" xmlns="http://www.w3.org/2000/svg">
<mask id="path-1-outside-1_34816_671" maskUnits="userSpaceOnUse" x="0" y="0" width="99" height="64" fill="black">
<rect fill="white" width="99" height="64"/>
<path d="M37.4844 14.6621C56.981 1.22184 78.0519 -2.03503 84.5469 7.38666C88.0162 12.4199 86.6223 20.052 81.6006 28.1201C90.7395 30.7296 96.4453 34.4307 96.4453 38.5361C96.4451 45.8779 78.1987 51.9267 54.6982 52.749C37.1567 62.7729 19.742 64.4688 13.9434 56.0576C12.3025 53.6773 11.7499 50.7156 12.1533 47.4013C5.79566 44.9636 2.00011 41.8844 2 38.5361C2 33.4808 10.6509 29.0377 23.7109 26.4921C27.5291 22.3627 32.174 18.3229 37.4844 14.6621Z"/>
</mask>
<path d="M37.4844 14.6621C56.981 1.22184 78.0519 -2.03503 84.5469 7.38666C88.0162 12.4199 86.6223 20.052 81.6006 28.1201C90.7395 30.7296 96.4453 34.4307 96.4453 38.5361C96.4451 45.8779 78.1987 51.9267 54.6982 52.749C37.1567 62.7729 19.742 64.4688 13.9434 56.0576C12.3025 53.6773 11.7499 50.7156 12.1533 47.4013C5.79566 44.9636 2.00011 41.8844 2 38.5361C2 33.4808 10.6509 29.0377 23.7109 26.4921C27.5291 22.3627 32.174 18.3229 37.4844 14.6621Z" fill="#836EF9"/>
<path d="M37.4844 14.6621L36.3492 13.0154V13.0154L37.4844 14.6621ZM84.5469 7.38666L86.1936 6.25161L86.1935 6.25152L84.5469 7.38666ZM81.6006 28.1201L79.9026 27.0632L78.5011 29.315L81.0515 30.0432L81.6006 28.1201ZM96.4453 38.5361L98.4453 38.5361V38.5361H96.4453ZM54.6982 52.749L54.6283 50.7502L54.1347 50.7675L53.706 51.0125L54.6982 52.749ZM13.9434 56.0576L12.2967 57.1927L12.2967 57.1927L13.9434 56.0576ZM12.1533 47.4013L14.1387 47.6429L14.3273 46.0929L12.8693 45.5339L12.1533 47.4013ZM2 38.5361H0V38.5361L2 38.5361ZM23.7109 26.4921L24.0936 28.4552L24.7354 28.3301L25.1794 27.8499L23.7109 26.4921ZM37.4844 14.6621L38.6195 16.3087C48.1752 9.72138 58.0381 5.68886 66.1968 4.42767C74.509 3.14274 80.3347 4.80025 82.9002 8.5218L84.5469 7.38666L86.1935 6.25152C82.2641 0.551389 74.3069 -0.873521 65.5857 0.474619C56.711 1.84649 46.2902 6.16251 36.3492 13.0154L37.4844 14.6621ZM84.5469 7.38666L82.9002 8.52171C85.6446 12.5034 84.8368 19.1358 79.9026 27.0632L81.6006 28.1201L83.2986 29.1769C88.4078 20.9682 90.3878 12.3365 86.1936 6.25161L84.5469 7.38666ZM81.6006 28.1201L81.0515 30.0432C85.5169 31.3182 88.9985 32.8225 91.3176 34.4156C93.6984 36.0511 94.4453 37.4796 94.4453 38.5361H96.4453H98.4453C98.4453 35.4872 96.3394 33.0124 93.5825 31.1186C90.764 29.1824 86.8233 27.5314 82.1497 26.1969L81.6006 28.1201ZM96.4453 38.5361L94.4453 38.536C94.4453 39.4775 93.8606 40.7153 92.0009 42.1584C90.1692 43.5798 87.3864 44.9625 83.7444 46.1925C76.4826 48.645 66.2503 50.3435 54.6283 50.7502L54.6982 52.749L54.7682 54.7477C66.6467 54.3321 77.2878 52.595 85.0243 49.9822C88.8815 48.6795 92.1291 47.122 94.4531 45.3186C96.749 43.537 98.4452 41.2656 98.4453 38.5361L96.4453 38.5361ZM54.6982 52.749L53.706 51.0125C45.1166 55.9208 36.6569 58.7292 29.7458 59.3238C22.7391 59.9266 17.8768 58.2395 15.59 54.9224L13.9434 56.0576L12.2967 57.1927C15.8086 62.2869 22.5529 63.9574 30.0887 63.3091C37.72 62.6525 46.7384 59.601 55.6905 54.4854L54.6982 52.749ZM13.9434 56.0576L15.59 54.9224C14.2909 53.038 13.7789 50.5986 14.1387 47.6429L12.1533 47.4013L10.168 47.1597C9.72094 50.8326 10.3141 54.3166 12.2967 57.1927L13.9434 56.0576ZM12.1533 47.4013L12.8693 45.5339C9.80187 44.3577 7.49629 43.0779 5.99343 41.791C4.48084 40.4958 4.00003 39.3945 4 38.536L2 38.5361L0 38.5361C7.82013e-05 41.026 1.4171 43.1384 3.39173 44.8293C5.37608 46.5285 8.14711 48.0072 11.4373 49.2687L12.1533 47.4013ZM2 38.5361H4C4 37.2111 5.20228 35.3452 8.91235 33.3306C12.4585 31.405 17.6663 29.708 24.0936 28.4552L23.7109 26.4921L23.3283 24.5291C16.6955 25.8219 11.0479 27.6193 7.00355 29.8154C3.12316 31.9225 0 34.8058 0 38.5361H2ZM23.7109 26.4921L25.1794 27.8499C28.8924 23.8343 33.4242 19.8902 38.6195 16.3087L37.4844 14.6621L36.3492 13.0154C30.9237 16.7555 26.1659 20.8911 22.2425 25.1343L23.7109 26.4921Z" fill="#6BFFFC" mask="url(#path-1-outside-1_34816_671)"/>
<path d="M13.3467 43.0758L8.55109 43.1109C8.55109 43.1109 14.6571 35.0031 15.2839 34.091C16.2526 32.6815 16.4883 31.8008 19.1348 31.5543C21.3564 31.3473 23.0329 31.8789 23.0329 32.9626L22.5486 40.1864L28.3603 31.835H32.7191L26.8011 40.5738C25.4545 42.3535 24.226 43.1114 21.58 43.1109C18.5324 43.1103 18.7568 42.3535 18.7568 41.7014L19.5128 34.091L13.3467 43.0758Z" fill="white"/>
<path d="M31.6834 43.1109H26.729L33.6652 33.2797C34.1606 32.5546 34.8253 31.5103 37.5321 31.5103C39.6976 31.5103 40.6858 32.1843 41.0968 33.2797L44.1299 43.1109H39.8764L37.1334 34.6231L31.6834 43.1109Z" fill="white"/>
<path d="M85.768 43.1181H90.7224L82.7954 33.287C82.3 32.5619 81.6353 31.5176 78.9285 31.5176C76.7631 31.5176 75.7748 32.1916 75.3639 33.287L74.2883 43.1181H78.5418L79.3273 34.6304L85.768 43.1181Z" fill="white"/>
<path d="M52.9738 31.8184C54.86 31.9129 57.56 32.5891 58.633 37.4844C56.8908 39.0611 53.0839 42.4023 51.7931 43.1504H46.1837C45.6807 43.056 44.6749 42.6399 44.6749 41.7334C44.675 40.8261 45.0402 35.5005 45.0402 32.9512C45.0402 32.5738 45.3419 31.8188 46.549 31.8184H52.9738ZM49.3654 34.4043C49.1447 34.4045 48.966 34.5839 48.966 34.8047V39.8125C48.9662 40.0331 49.1448 40.2117 49.3654 40.2119H52.8322C54.7656 40.2119 55.175 38.7732 54.7658 37.3086C54.4979 36.35 54.1961 35.6818 53.9376 35.2305C53.603 34.6466 52.9495 34.4043 52.2765 34.4043H49.3654Z" fill="white"/>
<path d="M58.8559 35.8984C57.796 32.9642 60.6736 31.5142 63.6905 31.5142H70.8416L72.3517 34.4102H67.2808H63.6905C63.4654 34.4567 63.0153 34.6846 63.0153 35.2241C63.0153 35.7636 63.4654 36.0829 63.6905 36.1751H68.9042C70.9199 36.1751 72.8237 36.5894 73.7629 38.7093C75.1718 42.0271 72.3539 43.1147 68.9042 43.1147L60.1441 43.118L62.5646 40.2145L69.0749 40.2603C69.5636 40.2603 69.7466 39.8545 69.6148 39.4913C69.5256 39.2453 69.2351 39.0752 68.9042 39.0752L63.435 39.0068C61.5008 38.9295 59.9158 38.8327 58.8559 35.8984Z" fill="white"/>
<path d="M49.1129 22.3732L51.3406 25.0024L54.7179 24.3173L52.0887 26.5451L52.7737 29.9223L50.546 27.2932L47.1687 27.9782L49.7979 25.7505L49.1129 22.3732Z" fill="#836EF9"/>
<path d="M57.0599 49.9177C58.4468 38.8225 66.0784 15.7506 69.2567 7.66031L66.2229 4.62646L39.2903 17.8456C38.3287 19.1918 31.3563 23.8447 30.6221 25.647L34.9562 28.2474L54.4595 24.3467C51.445 29.0055 40.3504 41.1922 37.5566 48.1841L41.8907 50.7845L57.0599 49.9177Z" fill="#486320" stroke="black" stroke-linejoin="round"/>
<path d="M65.9177 4.79834L34.9562 15.2461C32.7892 18.28 30.9111 23.9143 30.6221 25.6479L50.1254 21.7472C46.3114 27.6415 39.1458 42.1173 37.5566 48.185L52.7258 46.8848C54.1127 35.7896 62.7394 12.8886 65.9177 4.79834Z" fill="#BFFF60" stroke="black" stroke-linejoin="round"/>
<path d="M62.1018 8.19199C62.1018 7.63891 52.3348 11.4177 47.792 13.0309C48.9277 12.8002 52.1531 12.2006 55.969 11.6475C60.6555 10.9683 57.7861 19.2529 55.969 23.401C58.0133 18.7922 62.1018 8.19199 62.1018 8.19199Z" fill="white"/>
<path d="M33.0054 23.4008C32.2422 23.4008 33.9594 20.5389 34.9133 19.1079L34.9132 21.4929C34.9132 22.6377 44.1351 21.3339 48.746 20.5389C43.8171 21.4929 33.7686 23.4008 33.0054 23.4008Z" fill="white"/>
<path d="M40.1601 45.3425C41.3049 41.9081 46.679 31.5097 49.223 26.7397C47.315 32.1457 43.4037 43.2437 43.0221 44.3885C42.6405 45.5333 40.9551 45.5015 40.1601 45.3425Z" fill="white"/>
<mask id="path-14-outside-2_34816_671" maskUnits="userSpaceOnUse" x="16.2987" y="3.00439" width="67" height="56" fill="black">
<rect fill="white" x="16.2987" y="3.00439" width="67" height="56"/>
<path d="M69.1942 5.10516C74.0492 4.66079 77.8403 5.67683 79.8163 8.33953C84.995 15.3188 75.7438 30.9604 59.1532 43.2751C42.5628 55.5895 24.9149 59.9144 19.7362 52.9352C17.8195 50.3519 17.88 46.5818 19.5575 42.2331C18.6594 45.3196 18.8133 47.9596 20.2118 49.8444C24.8217 56.057 41.1975 51.7116 56.788 40.1393C72.3783 28.5672 81.2802 14.15 76.6708 7.93719C75.2173 5.97832 72.5938 5.06921 69.1942 5.10516Z"/>
</mask>
<path d="M69.1942 5.10516C74.0492 4.66079 77.8403 5.67683 79.8163 8.33953C84.995 15.3188 75.7438 30.9604 59.1532 43.2751C42.5628 55.5895 24.9149 59.9144 19.7362 52.9352C17.8195 50.3519 17.88 46.5818 19.5575 42.2331C18.6594 45.3196 18.8133 47.9596 20.2118 49.8444C24.8217 56.057 41.1975 51.7116 56.788 40.1393C72.3783 28.5672 81.2802 14.15 76.6708 7.93719C75.2173 5.97832 72.5938 5.06921 69.1942 5.10516Z" fill="white"/>
<path d="M69.1942 5.10516L69.0119 3.11348L69.2154 7.10504L69.1942 5.10516ZM79.8163 8.33953L81.4224 7.14775L81.4224 7.14765L79.8163 8.33953ZM59.1532 43.2751L60.3452 44.881L60.3453 44.881L59.1532 43.2751ZM19.7362 52.9352L18.13 54.1269L18.1301 54.127L19.7362 52.9352ZM19.5575 42.2331L21.4779 42.7919L17.6915 41.5133L19.5575 42.2331ZM20.2118 49.8444L18.6057 51.0362L18.6057 51.0362L20.2118 49.8444ZM56.788 40.1393L57.98 41.7453L56.788 40.1393ZM76.6708 7.93719L78.277 6.74551L78.2769 6.74541L76.6708 7.93719ZM69.1942 5.10516L69.3765 7.09683C73.9913 6.67444 76.8641 7.71753 78.2103 9.53142L79.8163 8.33953L81.4224 7.14765C78.8164 3.63614 74.107 2.64713 69.0119 3.11348L69.1942 5.10516ZM79.8163 8.33953L78.2102 9.53131C79.0938 10.7222 79.4738 12.4192 79.1279 14.7125C78.7804 17.0164 77.7159 19.7635 75.9268 22.7884C72.3531 28.8305 66.0957 35.6311 57.9612 41.6691L59.1532 43.2751L60.3453 44.881C68.8013 38.6044 75.4648 31.4268 79.3697 24.8247C81.3199 21.5274 82.6341 18.2858 83.0832 15.3091C83.5338 12.3219 83.1282 9.44651 81.4224 7.14775L79.8163 8.33953ZM59.1532 43.2751L57.9612 41.6691C49.8267 47.707 41.5063 51.7271 34.6893 53.3977C31.2764 54.2341 28.3394 54.4573 26.0342 54.1226C23.7397 53.7895 22.226 52.9342 21.3424 51.7435L19.7362 52.9352L18.1301 54.127C19.8358 56.4258 22.4701 57.6471 25.4595 58.0811C28.4383 58.5136 31.9211 58.1945 35.6414 57.2828C43.0905 55.4572 51.8893 51.1575 60.3452 44.881L59.1532 43.2751ZM19.7362 52.9352L21.3424 51.7435C20.0373 49.9845 19.838 47.063 21.4235 42.9529L19.5575 42.2331L17.6915 41.5133C15.922 46.1006 15.6018 50.7194 18.13 54.1269L19.7362 52.9352ZM19.5575 42.2331L17.6372 41.6743C16.6547 45.0509 16.6767 48.4365 18.6057 51.0362L20.2118 49.8444L21.818 48.6526C20.9499 47.4828 20.6642 45.5884 21.4779 42.7919L19.5575 42.2331ZM20.2118 49.8444L18.6057 51.0362C20.1933 53.1757 22.6786 54.2372 25.4456 54.5626C28.2073 54.8874 31.441 54.5108 34.8951 53.5943C41.815 51.7581 50.0334 47.6437 57.98 41.7453L56.788 40.1393L55.596 38.5334C47.952 44.2072 40.1873 48.0516 33.8692 49.7281C30.7043 50.5679 28.0054 50.8361 25.9128 50.59C23.8256 50.3445 22.5353 49.6194 21.8179 48.6526L20.2118 49.8444ZM56.788 40.1393L57.98 41.7453C65.9265 35.8468 72.2444 29.1715 76.006 23.0792C77.8836 20.0383 79.1807 17.0518 79.6699 14.3143C80.16 11.5714 79.8643 8.885 78.277 6.74551L76.6708 7.93719L75.0646 9.12887C75.7819 10.0958 76.1021 11.5413 75.7323 13.6106C75.3615 15.6852 74.323 18.1913 72.6025 20.9778C69.168 26.5403 63.2397 32.8596 55.5959 38.5334L56.788 40.1393ZM76.6708 7.93719L78.2769 6.74541C76.2724 4.0439 72.8629 3.06625 69.1731 3.10527L69.1942 5.10516L69.2154 7.10504C72.3247 7.07217 74.1622 7.91274 75.0647 9.12897L76.6708 7.93719Z" fill="#836EF9" mask="url(#path-14-outside-2_34816_671)"/>
</svg>
