<svg width="70" height="62" viewBox="0 0 70 62" fill="none" xmlns="http://www.w3.org/2000/svg">
<mask id="path-1-outside-1_34706_5316" maskUnits="userSpaceOnUse" x="0" y="0" width="70" height="62" fill="black">
<rect fill="white" width="70" height="62"/>
<path d="M36.3418 2.22456C37.1487 2.03053 38.135 1.97215 39.2021 2.01167C41.3383 2.09084 43.8588 2.56384 46.0586 3.19234L46.4639 3.31343C48.4377 3.92655 49.6204 4.67274 50.3887 5.36421C50.7974 5.73207 51.0835 6.07954 51.3047 6.37105C51.5372 6.67761 51.6671 6.87602 51.8037 7.01265L51.8711 7.06831C51.8899 7.08028 51.9059 7.08759 51.9189 7.09175C51.9451 7.10002 51.9794 7.10317 52.0303 7.09468C52.1512 7.0744 52.3012 7.00315 52.5498 6.87886C53.0245 6.6415 53.702 6.30074 54.7119 6.30074C55.2347 6.30086 55.8993 6.47236 56.5938 6.74019C57.2949 7.01065 58.0522 7.38992 58.7676 7.8271C59.4825 8.26404 60.1639 8.76348 60.709 9.27828C61.2479 9.78733 61.6801 10.3361 61.8594 10.874L61.9648 11.1689C61.997 11.2519 62.0266 11.3206 62.0537 11.3769C62.0791 11.4297 62.1015 11.467 62.1182 11.4931C62.2026 11.4351 62.3939 11.2829 62.625 11.2099C62.8932 11.1254 63.2082 11.1387 63.5811 11.3252C63.9165 11.4931 64.1826 11.8457 64.3877 12.2402C64.5983 12.6452 64.769 13.142 64.8926 13.6601C65.1271 14.6437 65.2039 15.77 65.0088 16.5654C65.9163 18.9176 65.4866 21.0821 65.0674 22.0996C65.9248 22.7636 66.6037 23.8992 66.8799 25.4384L66.9658 25.5332L66.9844 25.5507C66.9916 25.5585 66.9977 25.5673 67.0049 25.5751L67.0479 25.622C67.0581 25.6343 67.0671 25.6476 67.0771 25.6601C67.2404 25.8564 67.3843 26.0876 67.4482 26.3564L67.4834 26.5293C67.5207 26.7503 67.5382 27.0122 67.5273 27.3017C67.5074 28.1311 67.2677 29.2011 66.5703 30.1845C66.3844 30.8884 66.1373 31.629 65.8184 32.4033L65.5928 32.9296C65.1867 33.8433 64.7696 34.6057 64.3574 35.2412C64.3591 35.2471 64.362 35.2527 64.3633 35.2587L64.3438 35.2626C64.3586 35.2595 64.363 35.2589 64.3643 35.2587V35.2626C64.3645 35.2638 64.365 35.2651 64.3652 35.2666C64.3659 35.2701 64.3673 35.2752 64.3682 35.2802C64.3699 35.2902 64.3711 35.3037 64.373 35.3193C64.377 35.351 64.3811 35.3944 64.3828 35.4482C64.3863 35.5566 64.3811 35.708 64.3486 35.8964C64.2915 36.2275 64.152 36.6682 63.8398 37.1884L63.6953 37.416C63.344 37.9401 62.8965 38.2506 62.374 38.4111C61.8624 38.5681 61.2913 38.5775 60.6934 38.5312C60.5383 38.5192 60.3789 38.5021 60.2158 38.4834C59.0939 40.0494 58.1043 40.8927 57.3057 41.4736C57.0875 41.6323 56.8839 41.7716 56.7012 41.8974C56.5168 42.0244 56.3545 42.1369 56.2109 42.248C55.9611 42.4415 55.7807 42.6198 55.6543 42.832L55.6035 42.9248C55.5009 43.1301 55.3794 43.6023 55.2539 44.2802C55.1312 44.9431 55.0109 45.7637 54.8994 46.6347C54.6911 48.2626 54.5151 50.055 54.4082 51.2988C54.4804 51.3287 54.5509 51.3637 54.6152 51.4023C54.7789 51.5006 54.9515 51.6358 55.124 51.788C55.4702 52.0935 55.8453 52.4959 56.1865 52.8896C56.5288 53.2845 56.8439 53.6787 57.0732 53.9736C57.1879 54.121 57.2817 54.2447 57.3467 54.331C57.379 54.3739 57.4046 54.4083 57.4219 54.4316C57.4305 54.4432 57.4379 54.4528 57.4424 54.4589C57.4445 54.4618 57.4461 54.4642 57.4473 54.4658L57.4482 54.4677H57.4492C57.4492 54.4678 57.446 54.4702 57.207 54.6455L57.4492 54.4687C57.5108 54.553 57.5241 54.6632 57.4844 54.7597C57.4545 54.8322 57.398 54.889 57.3281 54.9199L57.2539 54.9423H57.252C57.2505 54.9426 57.2477 54.9429 57.2451 54.9433C57.2398 54.9441 57.2316 54.9457 57.2217 54.9472C57.2013 54.9503 57.1709 54.9545 57.1328 54.9599C57.0564 54.9707 56.946 54.9855 56.8096 55.0019C56.5359 55.0349 56.1547 55.0751 55.7275 55.1015C55.0654 55.1425 54.2649 55.1511 53.5732 55.0459C53.6093 55.168 53.6396 55.283 53.6602 55.3916C53.7068 55.6376 53.716 55.8708 53.6602 56.0761C53.6009 56.2934 53.4714 56.4661 53.2764 56.5781C53.0925 56.6835 52.8692 56.7249 52.6328 56.7314C52.1634 56.7443 51.5251 56.6215 50.7334 56.4179C49.9989 56.229 49.1039 55.9611 48.0459 55.6416C48.0105 55.7623 47.9795 55.8777 47.9502 55.9873C47.9004 56.1733 47.8528 56.354 47.7998 56.5078C47.6958 56.8094 47.526 57.1348 47.1172 57.2031C46.939 57.2327 46.7439 57.2074 46.5361 57.1494C46.3261 57.0907 46.0802 56.992 45.791 56.8574C45.3573 56.6554 44.804 56.3606 44.0947 55.9628L43.332 55.5302C42.8962 55.2812 42.6499 54.852 42.5244 54.371C42.3995 53.892 42.3855 53.3328 42.4336 52.7666C42.5087 51.8829 42.739 50.9375 42.9873 50.1621C40.8288 50.9537 38.38 51.506 37.0645 51.75L37.457 52.5361C37.5778 52.594 37.6879 52.6798 37.7832 52.7714C37.9198 52.9028 38.0554 53.0714 38.1865 53.2578C38.4492 53.631 38.716 54.1096 38.9629 54.5966C39.4574 55.5719 39.8916 56.623 40.0635 57.0224L40.1396 57.2031C40.1627 57.2594 40.1821 57.3118 40.1963 57.3574C40.2105 57.4029 40.2273 57.4643 40.2285 57.5302C40.2298 57.5998 40.2137 57.707 40.1279 57.7968C40.047 57.8814 39.9477 57.9035 39.8887 57.9101C39.8281 57.9168 39.767 57.9124 39.7178 57.9062C39.6192 57.8937 39.4887 57.8647 39.3428 57.833C38.7854 57.7115 37.7036 57.4776 35.7842 57.4472C35.8738 57.7232 35.9463 57.9629 35.9697 58.1543C35.9869 58.2944 35.9869 58.4608 35.9111 58.6093C35.8246 58.779 35.6714 58.8665 35.5088 58.8994C35.3592 58.9295 35.1854 58.9177 35.0029 58.8886C34.8157 58.8588 34.5914 58.8051 34.3301 58.7324C33.8849 58.6084 33.3061 58.4207 32.5703 58.1796C32.5428 58.5299 32.4243 58.8089 32.166 58.9697C31.9956 59.0756 31.8022 59.1033 31.6211 59.0947C31.4401 59.0861 31.2504 59.041 31.0664 58.9804C30.7 58.8598 30.3003 58.6588 29.9453 58.4775C29.7597 58.3827 29.5887 58.2945 29.4355 58.2207C29.4361 58.2512 29.437 58.2811 29.4375 58.3105C29.4399 58.465 29.4404 58.6125 29.4268 58.7343C29.4146 58.843 29.385 59.0059 29.2676 59.125C29.1236 59.2708 28.9375 59.2707 28.8008 59.2402C28.6696 59.2108 28.5238 59.1421 28.3701 59.0566C28.2114 58.9682 28.0195 58.8479 27.791 58.6982L25.8438 57.3906C25.3089 57.034 25.0752 56.6199 24.9512 56.1914C24.892 55.9869 24.8584 55.7791 24.8262 55.5908C24.793 55.3969 24.7614 55.2188 24.709 55.0439C24.6086 54.7093 24.4284 54.3758 23.9883 54.0478C23.5927 53.7531 22.9787 53.457 22.0078 53.1816L21.5693 53.0644C18.7542 52.3606 17.3305 51.1852 16.7246 50.1855L16.377 51.9296C16.8936 52.083 17.5002 52.3777 18.0869 52.7568C18.7916 53.2122 19.4958 53.8057 20.0068 54.4609L20.1201 54.6123C20.2255 54.7597 20.3072 54.8959 20.3574 55.0214C20.4237 55.1873 20.4583 55.3963 20.3408 55.5859C20.2324 55.7608 20.0436 55.8341 19.8926 55.871C19.7319 55.9103 19.536 55.9268 19.3252 55.9355C18.5642 55.9667 17.4242 55.9006 16.0371 56.0937C16.0896 56.1532 16.1361 56.2104 16.1758 56.2656C16.293 56.4287 16.4013 56.637 16.3594 56.8554C16.3102 57.1109 16.096 57.2268 15.9238 57.2744C15.7485 57.3227 15.5304 57.3294 15.2969 57.3144C14.4792 57.2618 13.134 56.9151 11.6025 56.4052L10.9355 56.1767C10.4296 55.9991 10.1275 55.6657 9.9248 55.2402C9.73216 54.8357 9.62147 54.3273 9.49512 53.7939C9.25436 52.7775 8.93037 51.5173 7.89746 50.122L7.68066 49.8418C5.80545 47.4977 5.56047 44.968 5.7002 43.6923C5.30287 43.6445 4.97106 43.5141 4.70117 43.3144C4.35909 43.0612 4.13743 42.7159 4 42.3505C3.78692 41.7838 3.7654 41.1423 3.81934 40.6259C3.61896 40.6211 3.43238 40.5798 3.2627 40.497C2.98241 40.3602 2.77977 40.1293 2.6377 39.8535C2.36068 39.3152 2.28516 38.5516 2.31152 37.7421C2.35942 36.2732 2.74915 34.4887 3.13184 33.1533C3.0251 33.1411 2.92121 33.1124 2.82324 33.0634C2.58249 32.9429 2.41629 32.7286 2.30176 32.4882C2.07666 32.0155 2.00002 31.3348 2 30.624C2.00001 29.1879 2.31746 27.4392 2.63965 26.4726L2.75 26.1767C3.03053 25.4967 3.46432 24.891 3.90137 24.4023C4.25945 24.0019 4.62752 23.6723 4.92969 23.4355C4.45672 22.9447 4.17564 22.0788 4.42383 20.8466C4.72527 19.3504 5.80565 17.2736 8.31738 14.5107L8.91797 13.8681C11.9732 10.6808 15.7878 7.93497 19.3916 5.94917C21.3144 4.88968 23.1826 4.0435 24.8486 3.46187C26.5098 2.88198 27.9894 2.55757 29.1299 2.55757C31.3859 2.55766 32.5302 3.20799 33.2529 3.60933C33.4322 3.70885 33.5662 3.78174 33.6826 3.82808C33.7959 3.87312 33.8672 3.88227 33.9199 3.87593C34.0183 3.86393 34.1865 3.77878 34.4961 3.31441C34.8696 2.75461 35.5423 2.41692 36.3418 2.22456Z"/>
</mask>
<path d="M36.3418 2.22456C37.1487 2.03053 38.135 1.97215 39.2021 2.01167C41.3383 2.09084 43.8588 2.56384 46.0586 3.19234L46.4639 3.31343C48.4377 3.92655 49.6204 4.67274 50.3887 5.36421C50.7974 5.73207 51.0835 6.07954 51.3047 6.37105C51.5372 6.67761 51.6671 6.87602 51.8037 7.01265L51.8711 7.06831C51.8899 7.08028 51.9059 7.08759 51.9189 7.09175C51.9451 7.10002 51.9794 7.10317 52.0303 7.09468C52.1512 7.0744 52.3012 7.00315 52.5498 6.87886C53.0245 6.6415 53.702 6.30074 54.7119 6.30074C55.2347 6.30086 55.8993 6.47236 56.5938 6.74019C57.2949 7.01065 58.0522 7.38992 58.7676 7.8271C59.4825 8.26404 60.1639 8.76348 60.709 9.27828C61.2479 9.78733 61.6801 10.3361 61.8594 10.874L61.9648 11.1689C61.997 11.2519 62.0266 11.3206 62.0537 11.3769C62.0791 11.4297 62.1015 11.467 62.1182 11.4931C62.2026 11.4351 62.3939 11.2829 62.625 11.2099C62.8932 11.1254 63.2082 11.1387 63.5811 11.3252C63.9165 11.4931 64.1826 11.8457 64.3877 12.2402C64.5983 12.6452 64.769 13.142 64.8926 13.6601C65.1271 14.6437 65.2039 15.77 65.0088 16.5654C65.9163 18.9176 65.4866 21.0821 65.0674 22.0996C65.9248 22.7636 66.6037 23.8992 66.8799 25.4384L66.9658 25.5332L66.9844 25.5507C66.9916 25.5585 66.9977 25.5673 67.0049 25.5751L67.0479 25.622C67.0581 25.6343 67.0671 25.6476 67.0771 25.6601C67.2404 25.8564 67.3843 26.0876 67.4482 26.3564L67.4834 26.5293C67.5207 26.7503 67.5382 27.0122 67.5273 27.3017C67.5074 28.1311 67.2677 29.2011 66.5703 30.1845C66.3844 30.8884 66.1373 31.629 65.8184 32.4033L65.5928 32.9296C65.1867 33.8433 64.7696 34.6057 64.3574 35.2412C64.3591 35.2471 64.362 35.2527 64.3633 35.2587L64.3438 35.2626C64.3586 35.2595 64.363 35.2589 64.3643 35.2587V35.2626C64.3645 35.2638 64.365 35.2651 64.3652 35.2666C64.3659 35.2701 64.3673 35.2752 64.3682 35.2802C64.3699 35.2902 64.3711 35.3037 64.373 35.3193C64.377 35.351 64.3811 35.3944 64.3828 35.4482C64.3863 35.5566 64.3811 35.708 64.3486 35.8964C64.2915 36.2275 64.152 36.6682 63.8398 37.1884L63.6953 37.416C63.344 37.9401 62.8965 38.2506 62.374 38.4111C61.8624 38.5681 61.2913 38.5775 60.6934 38.5312C60.5383 38.5192 60.3789 38.5021 60.2158 38.4834C59.0939 40.0494 58.1043 40.8927 57.3057 41.4736C57.0875 41.6323 56.8839 41.7716 56.7012 41.8974C56.5168 42.0244 56.3545 42.1369 56.2109 42.248C55.9611 42.4415 55.7807 42.6198 55.6543 42.832L55.6035 42.9248C55.5009 43.1301 55.3794 43.6023 55.2539 44.2802C55.1312 44.9431 55.0109 45.7637 54.8994 46.6347C54.6911 48.2626 54.5151 50.055 54.4082 51.2988C54.4804 51.3287 54.5509 51.3637 54.6152 51.4023C54.7789 51.5006 54.9515 51.6358 55.124 51.788C55.4702 52.0935 55.8453 52.4959 56.1865 52.8896C56.5288 53.2845 56.8439 53.6787 57.0732 53.9736C57.1879 54.121 57.2817 54.2447 57.3467 54.331C57.379 54.3739 57.4046 54.4083 57.4219 54.4316C57.4305 54.4432 57.4379 54.4528 57.4424 54.4589C57.4445 54.4618 57.4461 54.4642 57.4473 54.4658L57.4482 54.4677H57.4492C57.4492 54.4678 57.446 54.4702 57.207 54.6455L57.4492 54.4687C57.5108 54.553 57.5241 54.6632 57.4844 54.7597C57.4545 54.8322 57.398 54.889 57.3281 54.9199L57.2539 54.9423H57.252C57.2505 54.9426 57.2477 54.9429 57.2451 54.9433C57.2398 54.9441 57.2316 54.9457 57.2217 54.9472C57.2013 54.9503 57.1709 54.9545 57.1328 54.9599C57.0564 54.9707 56.946 54.9855 56.8096 55.0019C56.5359 55.0349 56.1547 55.0751 55.7275 55.1015C55.0654 55.1425 54.2649 55.1511 53.5732 55.0459C53.6093 55.168 53.6396 55.283 53.6602 55.3916C53.7068 55.6376 53.716 55.8708 53.6602 56.0761C53.6009 56.2934 53.4714 56.4661 53.2764 56.5781C53.0925 56.6835 52.8692 56.7249 52.6328 56.7314C52.1634 56.7443 51.5251 56.6215 50.7334 56.4179C49.9989 56.229 49.1039 55.9611 48.0459 55.6416C48.0105 55.7623 47.9795 55.8777 47.9502 55.9873C47.9004 56.1733 47.8528 56.354 47.7998 56.5078C47.6958 56.8094 47.526 57.1348 47.1172 57.2031C46.939 57.2327 46.7439 57.2074 46.5361 57.1494C46.3261 57.0907 46.0802 56.992 45.791 56.8574C45.3573 56.6554 44.804 56.3606 44.0947 55.9628L43.332 55.5302C42.8962 55.2812 42.6499 54.852 42.5244 54.371C42.3995 53.892 42.3855 53.3328 42.4336 52.7666C42.5087 51.8829 42.739 50.9375 42.9873 50.1621C40.8288 50.9537 38.38 51.506 37.0645 51.75L37.457 52.5361C37.5778 52.594 37.6879 52.6798 37.7832 52.7714C37.9198 52.9028 38.0554 53.0714 38.1865 53.2578C38.4492 53.631 38.716 54.1096 38.9629 54.5966C39.4574 55.5719 39.8916 56.623 40.0635 57.0224L40.1396 57.2031C40.1627 57.2594 40.1821 57.3118 40.1963 57.3574C40.2105 57.4029 40.2273 57.4643 40.2285 57.5302C40.2298 57.5998 40.2137 57.707 40.1279 57.7968C40.047 57.8814 39.9477 57.9035 39.8887 57.9101C39.8281 57.9168 39.767 57.9124 39.7178 57.9062C39.6192 57.8937 39.4887 57.8647 39.3428 57.833C38.7854 57.7115 37.7036 57.4776 35.7842 57.4472C35.8738 57.7232 35.9463 57.9629 35.9697 58.1543C35.9869 58.2944 35.9869 58.4608 35.9111 58.6093C35.8246 58.779 35.6714 58.8665 35.5088 58.8994C35.3592 58.9295 35.1854 58.9177 35.0029 58.8886C34.8157 58.8588 34.5914 58.8051 34.3301 58.7324C33.8849 58.6084 33.3061 58.4207 32.5703 58.1796C32.5428 58.5299 32.4243 58.8089 32.166 58.9697C31.9956 59.0756 31.8022 59.1033 31.6211 59.0947C31.4401 59.0861 31.2504 59.041 31.0664 58.9804C30.7 58.8598 30.3003 58.6588 29.9453 58.4775C29.7597 58.3827 29.5887 58.2945 29.4355 58.2207C29.4361 58.2512 29.437 58.2811 29.4375 58.3105C29.4399 58.465 29.4404 58.6125 29.4268 58.7343C29.4146 58.843 29.385 59.0059 29.2676 59.125C29.1236 59.2708 28.9375 59.2707 28.8008 59.2402C28.6696 59.2108 28.5238 59.1421 28.3701 59.0566C28.2114 58.9682 28.0195 58.8479 27.791 58.6982L25.8438 57.3906C25.3089 57.034 25.0752 56.6199 24.9512 56.1914C24.892 55.9869 24.8584 55.7791 24.8262 55.5908C24.793 55.3969 24.7614 55.2188 24.709 55.0439C24.6086 54.7093 24.4284 54.3758 23.9883 54.0478C23.5927 53.7531 22.9787 53.457 22.0078 53.1816L21.5693 53.0644C18.7542 52.3606 17.3305 51.1852 16.7246 50.1855L16.377 51.9296C16.8936 52.083 17.5002 52.3777 18.0869 52.7568C18.7916 53.2122 19.4958 53.8057 20.0068 54.4609L20.1201 54.6123C20.2255 54.7597 20.3072 54.8959 20.3574 55.0214C20.4237 55.1873 20.4583 55.3963 20.3408 55.5859C20.2324 55.7608 20.0436 55.8341 19.8926 55.871C19.7319 55.9103 19.536 55.9268 19.3252 55.9355C18.5642 55.9667 17.4242 55.9006 16.0371 56.0937C16.0896 56.1532 16.1361 56.2104 16.1758 56.2656C16.293 56.4287 16.4013 56.637 16.3594 56.8554C16.3102 57.1109 16.096 57.2268 15.9238 57.2744C15.7485 57.3227 15.5304 57.3294 15.2969 57.3144C14.4792 57.2618 13.134 56.9151 11.6025 56.4052L10.9355 56.1767C10.4296 55.9991 10.1275 55.6657 9.9248 55.2402C9.73216 54.8357 9.62147 54.3273 9.49512 53.7939C9.25436 52.7775 8.93037 51.5173 7.89746 50.122L7.68066 49.8418C5.80545 47.4977 5.56047 44.968 5.7002 43.6923C5.30287 43.6445 4.97106 43.5141 4.70117 43.3144C4.35909 43.0612 4.13743 42.7159 4 42.3505C3.78692 41.7838 3.7654 41.1423 3.81934 40.6259C3.61896 40.6211 3.43238 40.5798 3.2627 40.497C2.98241 40.3602 2.77977 40.1293 2.6377 39.8535C2.36068 39.3152 2.28516 38.5516 2.31152 37.7421C2.35942 36.2732 2.74915 34.4887 3.13184 33.1533C3.0251 33.1411 2.92121 33.1124 2.82324 33.0634C2.58249 32.9429 2.41629 32.7286 2.30176 32.4882C2.07666 32.0155 2.00002 31.3348 2 30.624C2.00001 29.1879 2.31746 27.4392 2.63965 26.4726L2.75 26.1767C3.03053 25.4967 3.46432 24.891 3.90137 24.4023C4.25945 24.0019 4.62752 23.6723 4.92969 23.4355C4.45672 22.9447 4.17564 22.0788 4.42383 20.8466C4.72527 19.3504 5.80565 17.2736 8.31738 14.5107L8.91797 13.8681C11.9732 10.6808 15.7878 7.93497 19.3916 5.94917C21.3144 4.88968 23.1826 4.0435 24.8486 3.46187C26.5098 2.88198 27.9894 2.55757 29.1299 2.55757C31.3859 2.55766 32.5302 3.20799 33.2529 3.60933C33.4322 3.70885 33.5662 3.78174 33.6826 3.82808C33.7959 3.87312 33.8672 3.88227 33.9199 3.87593C34.0183 3.86393 34.1865 3.77878 34.4961 3.31441C34.8696 2.75461 35.5423 2.41692 36.3418 2.22456Z" fill="#6BFFFC"/>
<path d="M36.3418 2.22456L35.8742 0.279993L35.874 0.280051L36.3418 2.22456ZM39.2021 2.01167L39.2762 0.0130455L39.2762 0.0130438L39.2021 2.01167ZM46.0586 3.19234L46.6312 1.27605L46.6196 1.2726L46.608 1.26929L46.0586 3.19234ZM46.4639 3.31343L47.0571 1.40345L47.0468 1.40024L47.0364 1.39714L46.4639 3.31343ZM50.3887 5.36421L51.7267 3.8777L51.7266 3.87762L50.3887 5.36421ZM51.3047 6.37105L52.8981 5.16234L52.8981 5.16228L51.3047 6.37105ZM51.8037 7.01265L50.3892 8.42656L50.4565 8.49392L50.5299 8.55457L51.8037 7.01265ZM51.8711 7.06831L50.5973 8.61024L50.6933 8.68952L50.7984 8.75629L51.8711 7.06831ZM51.9189 7.09175L51.3107 8.99703L51.3159 8.99866L51.9189 7.09175ZM52.0303 7.09468L52.3591 9.06747L52.3611 9.06713L52.0303 7.09468ZM52.5498 6.87886L53.4442 8.66772V8.66771L52.5498 6.87886ZM54.7119 6.30074L54.7124 4.30074H54.7119V6.30074ZM56.5938 6.74019L57.3135 4.8742L57.3135 4.87417L56.5938 6.74019ZM58.7676 7.8271L59.8105 6.12056L59.8105 6.12054L58.7676 7.8271ZM60.709 9.27828L62.0823 7.82433L62.0822 7.82425L60.709 9.27828ZM61.8594 10.874L59.962 11.5064L59.9689 11.527L59.9762 11.5474L61.8594 10.874ZM61.9648 11.1689L60.0816 11.8424L60.0904 11.867L60.0999 11.8913L61.9648 11.1689ZM62.0537 11.3769L60.2513 12.2436L60.2515 12.2441L62.0537 11.3769ZM62.1182 11.4931L60.4322 12.5689L61.5451 14.3132L63.2506 13.1416L62.1182 11.4931ZM62.625 11.2099L62.0238 9.30242L62.0224 9.30285L62.625 11.2099ZM63.5811 11.3252L64.4763 9.5367L64.4755 9.5363L63.5811 11.3252ZM64.3877 12.2402L66.1622 11.3177L66.1621 11.3175L64.3877 12.2402ZM64.8926 13.6601L66.8381 13.1963L66.838 13.1962L64.8926 13.6601ZM65.0088 16.5654L63.0664 16.0888L62.9167 16.6991L63.1429 17.2853L65.0088 16.5654ZM65.0674 22.0996L63.2182 21.3376L62.6374 22.7472L63.8427 23.6808L65.0674 22.0996ZM66.8799 25.4384L64.9113 25.7916L65.0127 26.3569L65.3986 26.7823L66.8799 25.4384ZM66.9658 25.5332L65.4846 26.877L65.5354 26.933L65.5903 26.9851L66.9658 25.5332ZM66.9844 25.5507L68.4503 24.1902L68.4066 24.1431L68.3599 24.0988L66.9844 25.5507ZM67.0049 25.5751L65.5234 26.9188L65.5306 26.9266L67.0049 25.5751ZM67.0479 25.622L68.5803 24.3368L68.5519 24.3031L68.5222 24.2706L67.0479 25.622ZM67.0771 25.6601L65.5218 26.9175L65.5305 26.9282L65.5393 26.9388L67.0771 25.6601ZM67.4482 26.3564L69.4081 25.9578L69.4015 25.9254L69.3939 25.8932L67.4482 26.3564ZM67.4834 26.5293L69.4554 26.196L69.4499 26.1632L69.4433 26.1306L67.4834 26.5293ZM67.5273 27.3017L65.5288 27.2267L65.5282 27.2402L65.5279 27.2537L67.5273 27.3017ZM66.5703 30.1845L64.9389 29.0276L64.7292 29.3233L64.6366 29.6738L66.5703 30.1845ZM65.8184 32.4033L67.6566 33.1911L67.6622 33.1781L67.6676 33.165L65.8184 32.4033ZM65.5928 32.9296L67.4204 33.7419L67.4258 33.7297L67.4311 33.7175L65.5928 32.9296ZM64.3574 35.2412L62.6795 34.1528L62.1888 34.9093L62.4308 35.778L64.3574 35.2412ZM64.3633 35.2587L64.7555 37.2199L66.7435 36.8223L66.3189 34.8399L64.3633 35.2587ZM64.3438 35.2626L63.9324 33.3054L64.736 37.2238L64.3438 35.2626ZM64.3643 35.2587H66.3643V32.8966L64.0345 33.2861L64.3643 35.2587ZM64.3643 35.2626H62.3643V35.4705L62.407 35.6739L64.3643 35.2626ZM64.3652 35.2666L62.4016 35.6462L62.4019 35.648L64.3652 35.2666ZM64.3682 35.2802L66.3402 34.9469L66.3397 34.9443L64.3682 35.2802ZM64.373 35.3193L66.3576 35.071L66.3574 35.0699L64.373 35.3193ZM64.3828 35.4482L66.3818 35.3842L66.3818 35.3839L64.3828 35.4482ZM64.3486 35.8964L66.3195 36.2364L66.3196 36.2362L64.3486 35.8964ZM63.8398 37.1884L65.5281 38.2608L65.5417 38.2393L65.5548 38.2175L63.8398 37.1884ZM63.6953 37.416L65.3567 38.5295L65.3704 38.5091L65.3835 38.4883L63.6953 37.416ZM62.374 38.4111L62.9608 40.3231L62.9612 40.3229L62.374 38.4111ZM60.6934 38.5312L60.5389 40.5252L60.5391 40.5252L60.6934 38.5312ZM60.2158 38.4834L60.444 36.4964L59.2752 36.3622L58.59 37.3186L60.2158 38.4834ZM57.3057 41.4736L58.482 43.0911L58.482 43.091L57.3057 41.4736ZM56.7012 41.8974L55.5667 40.2503L55.5667 40.2503L56.7012 41.8974ZM56.2109 42.248L54.9867 40.6665L54.9865 40.6666L56.2109 42.248ZM55.6543 42.832L53.9361 41.8083L53.9174 41.8397L53.8999 41.8717L55.6543 42.832ZM55.6035 42.9248L53.8491 41.9645L53.8312 41.9972L53.8146 42.0305L55.6035 42.9248ZM55.2539 44.2802L53.2873 43.9162V43.9163L55.2539 44.2802ZM54.8994 46.6347L52.9156 46.3808V46.3808L54.8994 46.6347ZM54.4082 51.2988L52.4156 51.1275L52.2902 52.5852L53.6416 53.146L54.4082 51.2988ZM54.6152 51.4023L55.6446 49.6875L55.6442 49.6873L54.6152 51.4023ZM55.124 51.788L56.4473 50.2884L56.4471 50.2882L55.124 51.788ZM56.1865 52.8896L57.6979 51.5798L57.6979 51.5797L56.1865 52.8896ZM57.0732 53.9736L58.652 52.7457L58.6519 52.7457L57.0732 53.9736ZM57.3467 54.331L58.9449 53.1286L58.9448 53.1285L57.3467 54.331ZM57.4219 54.4316L55.8159 55.6236L55.816 55.6238L57.4219 54.4316ZM57.4424 54.4589L59.0533 53.2737L59.0519 53.2717L57.4424 54.4589ZM57.4473 54.4658L59.2361 53.5713L59.1597 53.4185L59.0584 53.2808L57.4473 54.4658ZM57.4482 54.4677L55.6594 55.3622L56.2122 56.4677H57.4482V54.4677ZM57.4492 54.4677L59.4414 54.6448L59.6349 52.4677H57.4492V54.4677ZM57.207 54.6455L56.0243 53.0327L58.3861 56.261L57.207 54.6455ZM57.4492 54.4687L59.0642 53.289L57.885 51.6746L56.2702 52.8532L57.4492 54.4687ZM57.4844 54.7597L59.3337 55.5213L59.334 55.5206L57.4844 54.7597ZM57.3281 54.9199L57.9074 56.8341L58.0244 56.7988L58.1361 56.7494L57.3281 54.9199ZM57.2539 54.9423V56.9423H57.5499L57.8332 56.8566L57.2539 54.9423ZM57.252 54.9423V52.9423H57.0968L56.9435 52.9663L57.252 54.9423ZM57.2451 54.9433L56.9441 52.9661L56.9407 52.9666L57.2451 54.9433ZM57.2217 54.9472L57.5183 56.9251L57.5196 56.9249L57.2217 54.9472ZM57.1328 54.9599L57.4123 56.9403L57.4123 56.9403L57.1328 54.9599ZM56.8096 55.0019L57.049 56.9875L57.049 56.9875L56.8096 55.0019ZM55.7275 55.1015L55.8511 57.0977L55.8511 57.0977L55.7275 55.1015ZM53.5732 55.0459L53.8742 53.0686L50.7655 52.5954L51.6549 55.6116L53.5732 55.0459ZM53.6602 55.3916L55.6252 55.0193L55.6251 55.019L53.6602 55.3916ZM53.6602 56.0761L55.5897 56.6023L55.59 56.6013L53.6602 56.0761ZM53.2764 56.5781L54.2707 58.3134L54.2719 58.3127L53.2764 56.5781ZM52.6328 56.7314L52.6876 58.7307L52.688 58.7306L52.6328 56.7314ZM50.7334 56.4179L50.2353 58.3549L50.2353 58.3549L50.7334 56.4179ZM48.0459 55.6416L48.6242 53.727L46.6945 53.1441L46.1269 55.0783L48.0459 55.6416ZM47.9502 55.9873L46.0181 55.4704L46.0181 55.4704L47.9502 55.9873ZM47.7998 56.5078L49.6906 57.1597L49.6906 57.1596L47.7998 56.5078ZM47.1172 57.2031L47.4455 59.1759L47.4466 59.1758L47.1172 57.2031ZM46.5361 57.1494L45.9981 59.0756L45.9985 59.0757L46.5361 57.1494ZM45.791 56.8574L44.9469 58.6705L44.947 58.6706L45.791 56.8574ZM44.0947 55.9628L43.108 57.7025L43.1164 57.7072L44.0947 55.9628ZM43.332 55.5302L42.3398 57.2667L42.3453 57.2699L43.332 55.5302ZM42.5244 54.371L40.5891 54.8756L40.5892 54.8759L42.5244 54.371ZM42.4336 52.7666L40.4408 52.5972L40.4408 52.5972L42.4336 52.7666ZM42.9873 50.1621L44.892 50.772L46.1396 46.8758L42.2987 48.2843L42.9873 50.1621ZM37.0645 51.75L36.6998 49.7835L34.0887 50.2676L35.2752 52.6435L37.0645 51.75ZM37.457 52.5361L35.6677 53.4296L35.9739 54.0428L36.5918 54.3393L37.457 52.5361ZM37.7832 52.7714L39.1694 51.3297L39.1691 51.3295L37.7832 52.7714ZM38.1865 53.2578L39.8222 52.1068L39.822 52.1067L38.1865 53.2578ZM38.9629 54.5966L40.7467 53.6922L40.7467 53.6922L38.9629 54.5966ZM40.0635 57.0224L41.9064 56.2454L41.9035 56.2387L41.9006 56.2319L40.0635 57.0224ZM40.1396 57.2031L41.9913 56.4473L41.987 56.4366L41.9825 56.4261L40.1396 57.2031ZM40.1963 57.3574L42.1059 56.7627L42.1058 56.7625L40.1963 57.3574ZM40.2285 57.5302L42.2282 57.4924L42.2282 57.4921L40.2285 57.5302ZM40.1279 57.7968L41.5728 59.1797L41.5742 59.1782L40.1279 57.7968ZM39.8887 57.9101L40.109 59.8979L40.111 59.8977L39.8887 57.9101ZM39.7178 57.9062L39.4668 59.8904L39.4676 59.8905L39.7178 57.9062ZM39.3428 57.833L39.7686 55.8788H39.7686L39.3428 57.833ZM35.7842 57.4472L35.8159 55.4475L33.0173 55.4031L33.882 58.0651L35.7842 57.4472ZM35.9697 58.1543L37.9549 57.9115L37.9549 57.9108L35.9697 58.1543ZM35.9111 58.6093L37.6927 59.5182L37.693 59.5175L35.9111 58.6093ZM35.5088 58.8994L35.9031 60.8601L35.9048 60.8598L35.5088 58.8994ZM35.0029 58.8886L34.688 60.8637L34.6882 60.8637L35.0029 58.8886ZM34.3301 58.7324L33.7937 60.6591L33.7938 60.6591L34.3301 58.7324ZM32.5703 58.1796L33.193 56.279L30.7756 55.487L30.5764 58.0231L32.5703 58.1796ZM32.166 58.9697L33.222 60.6682L33.2229 60.6676L32.166 58.9697ZM31.6211 59.0947L31.5259 61.0924L31.5266 61.0924L31.6211 59.0947ZM31.0664 58.9804L30.4409 60.8801L30.4411 60.8801L31.0664 58.9804ZM29.9453 58.4775L29.0355 60.2586L29.0355 60.2586L29.9453 58.4775ZM29.4355 58.2207L30.3044 56.4192L27.3728 55.0054L27.4359 58.2594L29.4355 58.2207ZM29.4375 58.3105L31.4373 58.2789V58.2788L29.4375 58.3105ZM29.4268 58.7343L31.4144 58.9567L31.4144 58.9566L29.4268 58.7343ZM29.2676 59.125L30.6909 60.53L30.6915 60.5294L29.2676 59.125ZM28.8008 59.2402L28.3632 61.1917L28.3647 61.1921L28.8008 59.2402ZM28.3701 59.0566L27.3972 60.804L27.3973 60.8041L28.3701 59.0566ZM27.791 58.6982L26.676 60.3586L26.6854 60.3649L26.6949 60.3711L27.791 58.6982ZM25.8438 57.3906L26.9587 55.7302L26.9532 55.7265L25.8438 57.3906ZM24.9512 56.1914L23.03 56.7474L23.0301 56.7476L24.9512 56.1914ZM24.8262 55.5908L26.7976 55.2539L26.7976 55.2539L24.8262 55.5908ZM24.709 55.0439L26.6247 54.4694L26.6246 54.4692L24.709 55.0439ZM23.9883 54.0478L25.1835 52.4442L25.1832 52.444L23.9883 54.0478ZM22.0078 53.1816L22.5535 51.2575L22.5389 51.2533L22.5242 51.2494L22.0078 53.1816ZM21.5693 53.0644L22.0857 51.1322L22.0701 51.1281L22.0544 51.1241L21.5693 53.0644ZM16.7246 50.1855L18.435 49.1488L15.7687 44.7499L14.7632 49.7945L16.7246 50.1855ZM16.377 51.9296L14.4155 51.5387L14.0589 53.3279L15.8079 53.847L16.377 51.9296ZM18.0869 52.7568L19.1724 51.077L19.1723 51.0769L18.0869 52.7568ZM20.0068 54.4609L21.6081 53.2625L21.5961 53.2466L21.5839 53.2309L20.0068 54.4609ZM20.1201 54.6123L21.7469 53.4488L21.7343 53.4312L21.7214 53.4139L20.1201 54.6123ZM20.3574 55.0214L22.2145 54.2788L22.2143 54.2785L20.3574 55.0214ZM20.3408 55.5859L22.0404 56.6401L22.0407 56.6397L20.3408 55.5859ZM19.8926 55.871L20.3672 57.8139L20.3679 57.8137L19.8926 55.871ZM19.3252 55.9355L19.4071 57.9338L19.4072 57.9338L19.3252 55.9355ZM16.0371 56.0937L15.7613 54.1128L12.0764 54.6258L14.537 57.4164L16.0371 56.0937ZM16.1758 56.2656L17.8 55.0986L17.7999 55.0984L16.1758 56.2656ZM16.3594 56.8554L18.3234 57.2333L18.3235 57.2326L16.3594 56.8554ZM15.9238 57.2744L16.4557 59.2024L16.4564 59.2021L15.9238 57.2744ZM15.2969 57.3144L15.1686 59.3103L15.1688 59.3103L15.2969 57.3144ZM11.6025 56.4052L10.9543 58.2973L10.9625 58.3001L10.9707 58.3028L11.6025 56.4052ZM10.9355 56.1767L10.273 58.0638L10.2802 58.0663L10.2873 58.0687L10.9355 56.1767ZM9.9248 55.2402L8.11911 56.1001L8.11923 56.1004L9.9248 55.2402ZM9.49512 53.7939L11.4413 53.3329L11.4413 53.3329L9.49512 53.7939ZM7.89746 50.122L9.5049 48.932L9.49234 48.915L9.47942 48.8983L7.89746 50.122ZM7.68066 49.8418L9.26263 48.6181L9.25262 48.6051L9.24241 48.5924L7.68066 49.8418ZM5.7002 43.6923L7.6883 43.9101L7.90374 41.9433L5.93936 41.7067L5.7002 43.6923ZM4.70117 43.3144L3.51118 44.9219L3.51155 44.9221L4.70117 43.3144ZM4 42.3505L2.12795 43.0544L2.12806 43.0547L4 42.3505ZM3.81934 40.6259L5.80851 40.8337L6.03358 38.6791L3.86785 38.6265L3.81934 40.6259ZM3.2627 40.497L2.38509 42.2942L2.3858 42.2945L3.2627 40.497ZM2.6377 39.8535L0.859346 40.7686L0.859656 40.7692L2.6377 39.8535ZM2.31152 37.7421L0.312586 37.677L0.312584 37.677L2.31152 37.7421ZM3.13184 33.1533L5.05445 33.7042L5.70505 31.4339L3.3586 31.1662L3.13184 33.1533ZM2.82324 33.0634L1.92788 34.8518L1.92937 34.8526L2.82324 33.0634ZM2.30176 32.4882L0.496044 33.3481L0.496194 33.3484L2.30176 32.4882ZM2 30.624L0 30.624V30.624L2 30.624ZM2.63965 26.4726L0.765722 25.7738L0.753417 25.8067L0.742282 25.8402L2.63965 26.4726ZM2.75 26.1767L0.901139 25.414L0.888059 25.4457L0.876074 25.4779L2.75 26.1767ZM3.90137 24.4023L2.4106 23.069L2.41054 23.0691L3.90137 24.4023ZM4.92969 23.4355L6.16342 25.0096L7.90722 23.6429L6.36977 22.0476L4.92969 23.4355ZM4.42383 20.8466L2.46322 20.4516L2.4632 20.4517L4.42383 20.8466ZM8.31738 14.5107L6.85623 13.145L6.8468 13.1551L6.8375 13.1654L8.31738 14.5107ZM8.91797 13.8681L7.47417 12.4841L7.46544 12.4932L7.45682 12.5025L8.91797 13.8681ZM19.3916 5.94917L18.4264 4.19749L18.4264 4.1975L19.3916 5.94917ZM24.8486 3.46187L24.1895 1.57362L24.1894 1.57363L24.8486 3.46187ZM29.1299 2.55757L29.13 0.557572H29.1299V2.55757ZM33.2529 3.60933L32.282 5.35783L32.282 5.35784L33.2529 3.60933ZM33.6826 3.82808L32.9432 5.68636L32.9437 5.68658L33.6826 3.82808ZM33.9199 3.87593L34.1587 5.86162L34.1621 5.86121L33.9199 3.87593ZM34.4961 3.31441L32.8324 2.20442L32.832 2.20501L34.4961 3.31441ZM36.3418 2.22456L36.8094 4.16914C37.3711 4.03407 38.1567 3.97432 39.1281 4.0103L39.2021 2.01167L39.2762 0.0130438C38.1134 -0.0300236 36.9264 0.0269786 35.8742 0.279993L36.3418 2.22456ZM39.2021 2.01167L39.1281 4.0103C41.0611 4.08194 43.4175 4.5178 45.5092 5.11539L46.0586 3.19234L46.608 1.26929C44.3001 0.609888 41.6155 0.0997407 39.2762 0.0130455L39.2021 2.01167ZM46.0586 3.19234L45.486 5.10862L45.8913 5.22972L46.4639 3.31343L47.0364 1.39714L46.6312 1.27605L46.0586 3.19234ZM46.4639 3.31343L45.8706 5.22341C47.6117 5.76425 48.5284 6.38069 49.0507 6.8508L50.3887 5.36421L51.7266 3.87762C50.7123 2.96479 49.2637 2.08886 47.0571 1.40345L46.4639 3.31343ZM50.3887 5.36421L49.0507 6.85073C49.3341 7.10581 49.5354 7.34797 49.7113 7.57982L51.3047 6.37105L52.8981 5.16228C52.6317 4.81112 52.2607 4.35834 51.7267 3.8777L50.3887 5.36421ZM51.3047 6.37105L49.7113 7.57976C49.7609 7.64521 49.8061 7.70626 49.8511 7.76732C49.8929 7.82406 49.9436 7.8933 49.9892 7.95426C50.0756 8.06967 50.2136 8.25086 50.3892 8.42656L51.8037 7.01265L53.2182 5.59874C53.2573 5.63781 53.262 5.65148 53.1912 5.55689C53.1582 5.51285 53.1243 5.46647 53.072 5.39551C53.023 5.32888 52.9647 5.25017 52.8981 5.16234L51.3047 6.37105ZM51.8037 7.01265L50.5299 8.55457L50.5973 8.61024L51.8711 7.06831L53.1449 5.52639L53.0775 5.47073L51.8037 7.01265ZM51.8711 7.06831L50.7984 8.75629C50.9353 8.8433 51.1065 8.93183 51.3107 8.99703L51.9189 7.09175L52.5272 5.18648C52.7053 5.24335 52.8445 5.31725 52.9438 5.38034L51.8711 7.06831ZM51.9189 7.09175L51.3159 8.99866C51.7139 9.12455 52.0794 9.11409 52.3591 9.06747L52.0303 7.09468L51.7015 5.12189C51.8793 5.09225 52.1762 5.07548 52.522 5.18484L51.9189 7.09175ZM52.0303 7.09468L52.3611 9.06713C52.8453 8.98592 53.3003 8.73966 53.4442 8.66772L52.5498 6.87886L51.6554 5.09001C51.5953 5.12006 51.5506 5.14215 51.5142 5.15964C51.4966 5.1681 51.483 5.17449 51.4726 5.1793C51.4621 5.18412 51.4562 5.18668 51.4541 5.1876C51.4519 5.18853 51.4551 5.1871 51.4628 5.18413C51.4705 5.18116 51.4845 5.17596 51.5038 5.16964C51.5413 5.15732 51.6089 5.13743 51.6994 5.12223L52.0303 7.09468ZM52.5498 6.87886L53.4442 8.66771C53.874 8.45282 54.1964 8.30074 54.7119 8.30074V6.30074V4.30074C53.2076 4.30074 52.175 4.83018 51.6554 5.09001L52.5498 6.87886ZM54.7119 6.30074L54.7114 8.30074C54.8684 8.30077 55.2615 8.36993 55.874 8.6062L56.5938 6.74019L57.3135 4.87417C56.5372 4.57478 55.601 4.30095 54.7124 4.30074L54.7119 6.30074ZM56.5938 6.74019L55.874 8.60617C56.4496 8.82822 57.0991 9.15138 57.7247 9.53367L58.7676 7.8271L59.8105 6.12054C59.0053 5.62846 58.1402 5.19309 57.3135 4.8742L56.5938 6.74019ZM58.7676 7.8271L57.7246 9.53365C58.3532 9.91779 58.9158 10.3357 59.3357 10.7323L60.709 9.27828L62.0822 7.82425C61.412 7.19121 60.6119 6.61029 59.8105 6.12056L58.7676 7.8271ZM60.709 9.27828L59.3357 10.7322C59.7889 11.1603 59.938 11.4345 59.962 11.5064L61.8594 10.874L63.7567 10.2415C63.4221 9.23766 62.707 8.41433 62.0823 7.82433L60.709 9.27828ZM61.8594 10.874L59.9762 11.5474L60.0816 11.8424L61.9648 11.1689L63.848 10.4954L63.7426 10.2005L61.8594 10.874ZM61.9648 11.1689L60.0999 11.8913C60.1466 12.0121 60.1968 12.1303 60.2513 12.2436L62.0537 11.3769L63.8561 10.5102C63.8564 10.5108 63.8473 10.4917 63.8298 10.4465L61.9648 11.1689ZM62.0537 11.3769L60.2515 12.2441C60.3187 12.3837 60.3826 12.4913 60.4322 12.5689L62.1182 11.4931L63.8042 10.4173C63.8104 10.4271 63.8197 10.4421 63.83 10.4603C63.8401 10.4781 63.8487 10.4948 63.8559 10.5097L62.0537 11.3769ZM62.1182 11.4931L63.2506 13.1416C63.2667 13.1306 63.2809 13.1205 63.2914 13.1131C63.3019 13.1057 63.3119 13.0986 63.319 13.0934C63.3274 13.0874 63.3325 13.0838 63.3387 13.0793C63.3443 13.0753 63.3489 13.0721 63.353 13.0692C63.3695 13.0575 63.375 13.0541 63.3749 13.0542C63.3745 13.0544 63.3717 13.0562 63.3667 13.059C63.3616 13.0619 63.3535 13.0662 63.3426 13.0717C63.3316 13.077 63.3167 13.0839 63.298 13.0916C63.2794 13.0992 63.2559 13.108 63.2276 13.117L62.625 11.2099L62.0224 9.30285C61.6888 9.40825 61.4252 9.55603 61.2583 9.6601C61.1285 9.74101 60.9181 9.89109 60.9857 9.8446L62.1182 11.4931ZM62.625 11.2099L63.2262 13.1174C63.1092 13.1543 62.9822 13.1679 62.8625 13.1558C62.7477 13.1442 62.686 13.1137 62.6866 13.114L63.5811 11.3252L64.4755 9.5363C63.6955 9.1463 62.8448 9.04365 62.0238 9.30242L62.625 11.2099ZM63.5811 11.3252L62.6858 13.1136C62.6139 13.0776 62.5654 13.0416 62.5386 13.0193C62.5121 12.9972 62.5023 12.9846 62.5065 12.9896C62.5106 12.9944 62.5235 13.0105 62.5435 13.0415C62.5634 13.0721 62.5869 13.1123 62.6133 13.1629L64.3877 12.2402L66.1621 11.3175C65.8963 10.8062 65.3843 9.99121 64.4763 9.5367L63.5811 11.3252ZM64.3877 12.2402L62.6132 13.1627C62.7277 13.383 62.8496 13.7152 62.9471 14.124L64.8926 13.6601L66.838 13.1962C66.6884 12.5688 66.4688 11.9074 66.1622 11.3177L64.3877 12.2402ZM64.8926 13.6601L62.9471 14.1239C63.1438 14.9491 63.1559 15.724 63.0664 16.0888L65.0088 16.5654L66.9512 17.042C67.252 15.816 67.1103 14.3382 66.8381 13.1963L64.8926 13.6601ZM65.0088 16.5654L63.1429 17.2853C63.8297 19.0655 63.4845 20.6914 63.2182 21.3376L65.0674 22.0996L66.9166 22.8615C67.4888 21.4728 68.003 18.7697 66.8747 15.8455L65.0088 16.5654ZM65.0674 22.0996L63.8427 23.6808C64.23 23.9807 64.7033 24.6319 64.9113 25.7916L66.8799 25.4384L68.8484 25.0852C68.5042 23.1666 67.6196 21.5465 66.292 20.5183L65.0674 22.0996ZM66.8799 25.4384L65.3986 26.7823L65.4846 26.877L66.9658 25.5332L68.4471 24.1893L68.3611 24.0946L66.8799 25.4384ZM66.9658 25.5332L65.5903 26.9851L65.6089 27.0026L66.9844 25.5507L68.3599 24.0988L68.3413 24.0813L66.9658 25.5332ZM66.9844 25.5507L65.5184 26.9112C65.5038 26.8955 65.4911 26.8813 65.4806 26.8693C65.4702 26.8573 65.4614 26.847 65.4548 26.839C65.4481 26.8311 65.443 26.8247 65.4399 26.821C65.437 26.8175 65.435 26.8149 65.4355 26.8156C65.4357 26.8158 65.4357 26.8158 65.4361 26.8162C65.4363 26.8165 65.4367 26.8171 65.4372 26.8177C65.4382 26.8188 65.4397 26.8207 65.4415 26.8229C65.445 26.8273 65.4507 26.8343 65.4577 26.8428C65.4648 26.8514 65.474 26.8624 65.4848 26.875C65.4957 26.8877 65.5086 26.9025 65.5235 26.9188L67.0049 25.5751L68.4863 24.2315C68.5119 24.2597 68.5312 24.2828 68.5416 24.2953C68.5469 24.3018 68.551 24.3068 68.5528 24.3091C68.5542 24.3108 68.5558 24.3128 68.5537 24.3102C68.5527 24.3089 68.5489 24.3042 68.5444 24.2986C68.5396 24.2928 68.5328 24.2844 68.5245 24.2744C68.5081 24.2549 68.4827 24.2251 68.4503 24.1902L66.9844 25.5507ZM67.0049 25.5751L65.5306 26.9266L65.5735 26.9735L67.0479 25.622L68.5222 24.2706L68.4792 24.2237L67.0049 25.5751ZM67.0479 25.622L65.5154 26.9072C65.4951 26.883 65.4796 26.8631 65.4705 26.8513C65.4658 26.8452 65.4622 26.8405 65.4601 26.8377C65.4581 26.835 65.4568 26.8333 65.4573 26.834C65.4577 26.8344 65.4578 26.8346 65.4587 26.8359C65.4595 26.8368 65.4606 26.8384 65.462 26.8402C65.4646 26.8438 65.4689 26.8496 65.4741 26.8564C65.4842 26.8698 65.5009 26.8916 65.5218 26.9175L67.0771 25.6601L68.6325 24.4028C68.6484 24.4224 68.6601 24.4378 68.6654 24.4448C68.6692 24.4499 68.6738 24.4561 68.6678 24.448C68.6646 24.4436 68.6536 24.4289 68.6402 24.4115C68.6262 24.3933 68.6057 24.3672 68.5803 24.3368L67.0479 25.622ZM67.0771 25.6601L65.5393 26.9388C65.5603 26.964 65.5604 26.9682 65.5513 26.9519C65.5415 26.9342 65.5192 26.8891 65.5026 26.8196L67.4482 26.3564L69.3939 25.8932C69.2337 25.2205 68.8926 24.7153 68.615 24.3814L67.0771 25.6601ZM67.4482 26.3564L65.4884 26.755L65.5235 26.9279L67.4834 26.5293L69.4433 26.1306L69.4081 25.9578L67.4482 26.3564ZM67.4834 26.5293L65.5114 26.8625C65.5235 26.9342 65.5351 27.0583 65.5288 27.2267L67.5273 27.3017L69.5259 27.3767C69.5413 26.9662 69.518 26.5664 69.4554 26.196L67.4834 26.5293ZM67.5273 27.3017L65.5279 27.2537C65.5157 27.7619 65.3652 28.4265 64.9389 29.0276L66.5703 30.1845L68.2017 31.3415C69.1702 29.9758 69.4992 28.5003 69.5268 27.3497L67.5273 27.3017ZM66.5703 30.1845L64.6366 29.6738C64.474 30.2894 64.2555 30.9462 63.9691 31.6416L65.8184 32.4033L67.6676 33.165C68.019 32.3118 68.2948 31.4875 68.504 30.6952L66.5703 30.1845ZM65.8184 32.4033L63.9801 31.6154L63.7545 32.1418L65.5928 32.9296L67.4311 33.7175L67.6566 33.1911L65.8184 32.4033ZM65.5928 32.9296L63.7652 32.1173C63.3977 32.9442 63.0296 33.6131 62.6795 34.1528L64.3574 35.2412L66.0353 36.3295C66.5097 35.5982 66.9757 34.7425 67.4204 33.7419L65.5928 32.9296ZM64.3574 35.2412L62.4308 35.778C62.4497 35.8457 62.4682 35.8986 62.4782 35.9261C62.4833 35.9403 62.4876 35.9515 62.4893 35.9561C62.4898 35.9574 62.4902 35.9585 62.4905 35.9592C62.4907 35.9598 62.491 35.9605 62.491 35.9605C62.4912 35.9611 62.4907 35.9597 62.49 35.9579C62.4881 35.9529 62.4755 35.9198 62.4613 35.8766C62.4466 35.8315 62.4259 35.7629 62.4076 35.6776L64.3633 35.2587L66.3189 34.8399C66.3 34.7516 66.2785 34.68 66.2628 34.6319C66.2476 34.5858 66.234 34.5498 66.231 34.5419C66.23 34.5394 66.2292 34.5373 66.2291 34.5371C66.2289 34.5364 66.2294 34.5377 66.23 34.5393C66.2312 34.5425 66.2349 34.5523 66.2395 34.565C66.2484 34.5896 66.266 34.6396 66.284 34.7043L64.3574 35.2412ZM64.3633 35.2587L63.9711 33.2976L63.9515 33.3015L64.3438 35.2626L64.736 37.2238L64.7555 37.2199L64.3633 35.2587ZM64.3438 35.2626L64.7551 37.2199C64.7484 37.2213 64.7336 37.2243 64.7132 37.228C64.7023 37.23 64.6913 37.2318 64.6803 37.2336C64.6752 37.2344 64.6712 37.2351 64.6706 37.2351C64.6698 37.2353 64.6723 37.2349 64.6747 37.2345C64.6771 37.2341 64.6845 37.233 64.694 37.2314L64.3643 35.2587L64.0345 33.2861C64.0438 33.2846 64.0511 33.2834 64.0532 33.2831C64.0555 33.2827 64.0578 33.2824 64.0566 33.2825C64.0555 33.2827 64.0509 33.2834 64.0449 33.2844C64.0323 33.2864 64.019 33.2887 64.005 33.2912C63.9784 33.296 63.954 33.3009 63.9324 33.3054L64.3438 35.2626ZM64.3643 35.2587H62.3643V35.2626H64.3643H66.3643V35.2587H64.3643ZM64.3643 35.2626L62.407 35.6739C62.4121 35.698 62.4168 35.7185 62.4207 35.7345C62.4246 35.7504 62.428 35.7636 62.4304 35.7726C62.4327 35.7816 62.4346 35.7886 62.4354 35.7915C62.4358 35.7931 62.4362 35.7943 62.4362 35.7944C62.4364 35.7949 62.4361 35.7941 62.4359 35.7932C62.4354 35.7914 62.4339 35.786 62.4321 35.7791C62.4302 35.772 62.4275 35.7619 62.4245 35.7498C62.4186 35.726 62.4101 35.6901 62.4016 35.6462L64.3652 35.2666L66.3289 34.887C66.3202 34.8423 66.3116 34.8057 66.3055 34.7812C66.3024 34.7688 66.2997 34.7584 66.2977 34.7509C66.2957 34.7436 66.2942 34.7379 66.2936 34.7358C66.2933 34.7348 66.293 34.7337 66.2931 34.7341C66.2931 34.7341 66.2932 34.7344 66.2933 34.7348C66.2934 34.7352 66.2936 34.7358 66.2938 34.7365C66.2945 34.7391 66.2963 34.7458 66.2986 34.7545C66.3009 34.7632 66.3042 34.7761 66.308 34.7917C66.3118 34.8074 66.3165 34.8276 66.3215 34.8514L64.3643 35.2626ZM64.3652 35.2666L62.4019 35.648C62.4053 35.6655 62.4084 35.6799 62.4105 35.6898C62.4127 35.6998 62.4145 35.708 62.4156 35.7128C62.4167 35.7175 62.4176 35.7214 62.4177 35.7221C62.4182 35.7238 62.4177 35.722 62.4174 35.7204C62.4165 35.7168 62.4137 35.7045 62.4103 35.6884C62.4069 35.6722 62.4019 35.6471 62.3966 35.6162L64.3682 35.2802L66.3397 34.9443C66.334 34.9108 66.3285 34.8833 66.3246 34.8646C66.3207 34.846 66.3173 34.8312 66.3159 34.8253C66.3153 34.8225 66.3146 34.8195 66.3147 34.8202C66.3147 34.8202 66.3147 34.8202 66.3148 34.8203C66.3148 34.8203 66.3148 34.8204 66.3148 34.8206C66.3149 34.8208 66.315 34.8212 66.3151 34.8217C66.3153 34.8226 66.3157 34.8242 66.3161 34.8262C66.317 34.8299 66.3186 34.837 66.3205 34.8461C66.3224 34.855 66.3253 34.8685 66.3285 34.8851L64.3652 35.2666ZM64.3682 35.2802L62.3961 35.6136C62.3912 35.5842 62.388 35.5613 62.3865 35.5497C62.3849 35.5378 62.384 35.5293 62.3839 35.529C62.3839 35.5285 62.3839 35.5285 62.3841 35.5303C62.3842 35.5315 62.3846 35.5346 62.3849 35.5378C62.3857 35.5444 62.387 35.5555 62.3887 35.5686L64.373 35.3193L66.3574 35.0699C66.3581 35.0753 66.3585 35.0788 66.3585 35.0782C66.3584 35.0778 66.3584 35.0774 66.3581 35.0751C66.3579 35.0735 66.3575 35.0701 66.3571 35.0663C66.3563 35.0594 66.3545 35.0447 66.3522 35.027C66.3499 35.0096 66.346 34.9812 66.3402 34.9469L64.3682 35.2802ZM64.373 35.3193L62.3885 35.5676C62.3855 35.5431 62.3842 35.5249 62.3838 35.5125L64.3828 35.4482L66.3818 35.3839C66.3779 35.2638 66.3686 35.159 66.3576 35.071L64.373 35.3193ZM64.3828 35.4482L62.3838 35.5122C62.3833 35.4958 62.3855 35.5114 62.3777 35.5567L64.3486 35.8964L66.3196 36.2362C66.3767 35.9046 66.3893 35.6173 66.3818 35.3842L64.3828 35.4482ZM64.3486 35.8964L62.3777 35.5565C62.3637 35.6376 62.3133 35.8454 62.1249 36.1594L63.8398 37.1884L65.5548 38.2175C65.9907 37.4909 66.2193 36.8174 66.3195 36.2364L64.3486 35.8964ZM63.8398 37.1884L62.1516 36.1161L62.0071 36.3436L63.6953 37.416L65.3835 38.4883L65.5281 38.2608L63.8398 37.1884ZM63.6953 37.416L62.034 36.3025C61.9779 36.3861 61.935 36.4232 61.9111 36.4408C61.887 36.4586 61.8512 36.4795 61.7868 36.4992L62.374 38.4111L62.9612 40.3229C63.9138 40.0304 64.7445 39.4428 65.3567 38.5295L63.6953 37.416ZM62.374 38.4111L61.7873 36.4991C61.6333 36.5464 61.3584 36.5767 60.8476 36.5372L60.6934 38.5312L60.5391 40.5252C61.2242 40.5783 62.0915 40.5898 62.9608 40.3231L62.374 38.4111ZM60.6934 38.5312L60.8478 36.5372C60.7304 36.5281 60.6004 36.5144 60.444 36.4964L60.2158 38.4834L59.9876 40.4703C60.1574 40.4898 60.3462 40.5103 60.5389 40.5252L60.6934 38.5312ZM60.2158 38.4834L58.59 37.3186C57.611 38.685 56.7823 39.3812 56.1293 39.8561L57.3057 41.4736L58.482 43.091C59.4263 42.4043 60.5767 41.4137 61.8416 39.6481L60.2158 38.4834ZM57.3057 41.4736L56.1293 39.8561C55.9363 39.9965 55.756 40.1199 55.5667 40.2503L56.7012 41.8974L57.8356 43.5445C58.0117 43.4233 58.2387 43.268 58.482 43.0911L57.3057 41.4736ZM56.7012 41.8974L55.5667 40.2503C55.3896 40.3723 55.1814 40.5157 54.9867 40.6665L56.2109 42.248L57.4352 43.8295C57.5276 43.758 57.644 43.6766 57.8356 43.5445L56.7012 41.8974ZM56.2109 42.248L54.9865 40.6666C54.6437 40.932 54.2447 41.2904 53.9361 41.8083L55.6543 42.832L57.3725 43.8556C57.3597 43.877 57.3475 43.8943 57.3377 43.9068C57.3282 43.9191 57.3227 43.9247 57.3242 43.9231C57.3259 43.9213 57.3345 43.9127 57.3529 43.8966C57.3714 43.8804 57.398 43.8583 57.4354 43.8294L56.2109 42.248ZM55.6543 42.832L53.8999 41.8717L53.8491 41.9645L55.6035 42.9248L57.3579 43.8851L57.4087 43.7923L55.6543 42.832ZM55.6035 42.9248L53.8146 42.0305C53.6632 42.3334 53.5651 42.6757 53.5006 42.9261C53.4263 43.2141 53.3551 43.5499 53.2873 43.9162L55.2539 44.2802L57.2205 44.6442C57.2782 44.3326 57.3304 44.0934 57.374 43.9245C57.3957 43.8403 57.4119 43.7866 57.4215 43.7577C57.4338 43.7206 57.4262 43.7516 57.3925 43.819L55.6035 42.9248ZM55.2539 44.2802L53.2873 43.9163C53.155 44.6311 53.0292 45.4928 52.9156 46.3808L54.8994 46.6347L56.8832 46.8886C56.9925 46.0346 57.1074 45.2551 57.2205 44.6442L55.2539 44.2802ZM54.8994 46.6347L52.9156 46.3808C52.7026 48.0448 52.524 49.8664 52.4156 51.1275L54.4082 51.2988L56.4009 51.4701C56.5063 50.2437 56.6795 48.4804 56.8832 46.8886L54.8994 46.6347ZM54.4082 51.2988L53.6416 53.146C53.6366 53.1439 53.63 53.141 53.6218 53.1369C53.6136 53.1328 53.6017 53.1265 53.5862 53.1173L54.6152 51.4023L55.6442 49.6873C55.4866 49.5928 55.3272 49.5148 55.1748 49.4515L54.4082 51.2988ZM54.6152 51.4023L53.5859 53.1171C53.6025 53.1271 53.6724 53.1744 53.8009 53.2878L55.124 51.788L56.4471 50.2882C56.2306 50.0973 55.9553 49.8741 55.6446 49.6875L54.6152 51.4023ZM55.124 51.788L53.8007 53.2877C54.0487 53.5065 54.3564 53.8317 54.6751 54.1995L56.1865 52.8896L57.6979 51.5797C57.3342 51.1601 56.8917 50.6806 56.4473 50.2884L55.124 51.788ZM56.1865 52.8896L54.6751 54.1994C54.9864 54.5586 55.2781 54.9233 55.4946 55.2015L57.0732 53.9736L58.6519 52.7457C58.4097 52.4342 58.0711 52.0104 57.6979 51.5798L56.1865 52.8896ZM57.0732 53.9736L55.4945 55.2015C55.6011 55.3384 55.6882 55.4533 55.7485 55.5335L57.3467 54.331L58.9448 53.1285C58.8752 53.036 58.7747 52.9036 58.652 52.7457L57.0732 53.9736ZM57.3467 54.331L55.7485 55.5334C55.7779 55.5725 55.8009 55.6033 55.8159 55.6236L57.4219 54.4316L59.0278 53.2396C59.0083 53.2133 58.9801 53.1754 58.9449 53.1286L57.3467 54.331ZM57.4219 54.4316L55.816 55.6238C55.8253 55.6362 55.8333 55.6468 55.8371 55.6518C55.8382 55.6534 55.8387 55.654 55.8393 55.6548C55.8399 55.6555 55.8399 55.6557 55.8398 55.6555C55.8397 55.6553 55.839 55.6544 55.838 55.653C55.837 55.6517 55.8352 55.6493 55.8329 55.6462L57.4424 54.4589L59.0519 53.2717C59.0454 53.263 59.0399 53.2556 59.0372 53.252C59.0344 53.2482 59.0313 53.2442 59.0303 53.2428C59.0271 53.2386 59.0271 53.2386 59.0277 53.2394L57.4219 54.4316ZM57.4424 54.4589L55.8314 55.6442C55.8254 55.636 55.8204 55.6291 55.8168 55.624C55.8133 55.6191 55.8106 55.6153 55.81 55.6145C55.8098 55.6142 55.8097 55.6141 55.8098 55.6141C55.8098 55.6141 55.8098 55.6142 55.8098 55.6142C55.8099 55.6142 55.8099 55.6143 55.8099 55.6143C55.81 55.6144 55.8101 55.6146 55.8103 55.6148C55.8107 55.6155 55.8121 55.6174 55.8138 55.6198C55.8155 55.6222 55.8182 55.6261 55.8217 55.6309C55.8251 55.6356 55.83 55.6425 55.8361 55.6507L57.4473 54.4658L59.0584 53.2808C59.0642 53.2887 59.0689 53.2951 59.072 53.2994C59.0751 53.3038 59.0775 53.3072 59.0789 53.3091C59.0802 53.311 59.0812 53.3125 59.0813 53.3126C59.0813 53.3126 59.0814 53.3127 59.0812 53.3124C59.0811 53.3122 59.0807 53.3118 59.0804 53.3112C59.0789 53.3092 59.0754 53.3042 59.0709 53.298C59.0664 53.2916 59.0604 53.2833 59.0533 53.2737L57.4424 54.4589ZM57.4473 54.4658L55.6584 55.3602L55.6594 55.3622L57.4482 54.4677L59.2371 53.5733L59.2361 53.5713L57.4473 54.4658ZM57.4482 54.4677V56.4677H57.4492V54.4677V52.4677H57.4482V54.4677ZM57.4492 54.4677L55.4571 54.2906C55.4938 53.8777 55.6491 53.5825 55.7283 53.4487C55.8142 53.3037 55.8999 53.2013 55.9424 53.1527C56.0273 53.0554 56.1032 52.9883 56.1212 52.9723C56.1706 52.9285 56.2122 52.8962 56.2152 52.8938C56.2274 52.8843 56.237 52.877 56.2406 52.8743C56.2451 52.8708 56.2487 52.8681 56.2506 52.8667C56.2564 52.8623 56.2607 52.8592 56.2583 52.861C56.256 52.8626 56.2497 52.8673 56.2342 52.8787C56.204 52.9009 56.1439 52.945 56.0243 53.0327L57.207 54.6455L58.3898 56.2583C58.5092 56.1707 58.5702 56.126 58.6013 56.1031C58.6165 56.092 58.6259 56.0851 58.6317 56.0808C58.6333 56.0796 58.6397 56.0749 58.6466 56.0697C58.6488 56.0681 58.6526 56.0652 58.6573 56.0616C58.6611 56.0588 58.6708 56.0514 58.6831 56.0418C58.6861 56.0394 58.7278 56.0071 58.7772 55.9632C58.7953 55.9472 58.8711 55.8801 58.9561 55.7828C58.9985 55.7341 59.0843 55.6318 59.1701 55.4868C59.2494 55.353 59.4047 55.0577 59.4414 54.6448L57.4492 54.4677ZM57.207 54.6455L58.3861 56.261L58.6283 56.0842L57.4492 54.4687L56.2702 52.8532L56.028 53.03L57.207 54.6455ZM57.4492 54.4687L55.8342 55.6484C55.4851 55.1705 55.4098 54.5457 55.6348 53.9988L57.4844 54.7597L59.334 55.5206C59.6384 54.7807 59.5365 53.9355 59.0642 53.289L57.4492 54.4687ZM57.4844 54.7597L55.6351 53.9981C55.8047 53.5863 56.1255 53.2646 56.5201 53.0904L57.3281 54.9199L58.1361 56.7494C58.6705 56.5134 59.1044 56.0781 59.3337 55.5213L57.4844 54.7597ZM57.3281 54.9199L56.7488 53.0056L56.6746 53.0281L57.2539 54.9423L57.8332 56.8566L57.9074 56.8341L57.3281 54.9199ZM57.2539 54.9423V52.9423H57.252V54.9423V56.9423H57.2539V54.9423ZM57.252 54.9423L56.9435 52.9663C56.952 52.9649 56.9588 52.9639 56.9627 52.9634C56.9668 52.9628 56.9701 52.9623 56.9718 52.9621C56.9736 52.9618 56.975 52.9616 56.9753 52.9616C56.9755 52.9616 56.9756 52.9615 56.9755 52.9616C56.9755 52.9616 56.9751 52.9616 56.9748 52.9616C56.9738 52.9618 56.9699 52.9623 56.9652 52.963C56.9604 52.9637 56.953 52.9647 56.9441 52.9661L57.2451 54.9433L57.5461 56.9205C57.5385 56.9217 57.5325 56.9226 57.529 56.9231C57.5272 56.9233 57.5257 56.9235 57.5247 56.9237C57.5238 56.9238 57.5232 56.9239 57.5231 56.9239C57.5225 56.924 57.524 56.9238 57.5245 56.9237C57.5253 56.9236 57.5272 56.9233 57.5295 56.923C57.5317 56.9227 57.5355 56.9221 57.54 56.9215C57.5444 56.9208 57.5516 56.9198 57.5604 56.9184L57.252 54.9423ZM57.2451 54.9433L56.9407 52.9666C56.9304 52.9682 56.9217 52.9696 56.9157 52.9706C56.9095 52.9716 56.9044 52.9725 56.9011 52.9731C56.8979 52.9736 56.8952 52.9741 56.8941 52.9743C56.8937 52.9744 56.8934 52.9744 56.8932 52.9745C56.893 52.9745 56.8928 52.9745 56.8927 52.9745C56.8924 52.9746 56.8924 52.9746 56.8925 52.9746C56.8932 52.9745 56.9062 52.9722 56.9238 52.9695L57.2217 54.9472L57.5196 56.9249C57.547 56.9208 57.5691 56.917 57.5777 56.9155C57.5796 56.9151 57.5818 56.9147 57.5819 56.9147C57.5826 56.9146 57.5816 56.9148 57.58 56.915C57.5784 56.9153 57.5749 56.9159 57.5703 56.9167C57.5657 56.9174 57.5585 56.9186 57.5496 56.92L57.2451 54.9433ZM57.2217 54.9472L56.9251 52.9693C56.9158 52.9707 56.8976 52.9733 56.8533 52.9795L57.1328 54.9599L57.4123 56.9403C57.4441 56.9358 57.4868 56.9298 57.5183 56.9251L57.2217 54.9472ZM57.1328 54.9599L56.8534 52.9795C56.7902 52.9885 56.6931 53.0015 56.5701 53.0163L56.8096 55.0019L57.049 56.9875C57.1988 56.9695 57.3225 56.953 57.4123 56.9403L57.1328 54.9599ZM56.8096 55.0019L56.5702 53.0163C56.3226 53.0461 55.9817 53.082 55.604 53.1053L55.7275 55.1015L55.8511 57.0977C56.3276 57.0682 56.7491 57.0237 57.049 56.9875L56.8096 55.0019ZM55.7275 55.1015L55.604 53.1053C54.9964 53.1429 54.3595 53.1425 53.8742 53.0686L53.5732 55.0459L53.2723 57.0231C54.1702 57.1598 55.1343 57.1421 55.8511 57.0977L55.7275 55.1015ZM53.5732 55.0459L51.6549 55.6116C51.6824 55.7049 51.6922 55.7486 51.6952 55.7641L53.6602 55.3916L55.6251 55.019C55.5869 54.8175 55.5361 54.6312 55.4916 54.4802L53.5732 55.0459ZM53.6602 55.3916L51.6951 55.7638C51.7021 55.8005 51.699 55.7996 51.6987 55.7693C51.6984 55.7383 51.7008 55.6596 51.7303 55.5509L53.6602 56.0761L55.59 56.6013C55.7571 55.9871 55.7005 55.4165 55.6252 55.0193L53.6602 55.3916ZM53.6602 56.0761L51.7306 55.55C51.7637 55.4287 51.8252 55.2901 51.9275 55.1556C52.0305 55.0202 52.1546 54.9159 52.2808 54.8435L53.2764 56.5781L54.2719 58.3127C54.9447 57.9266 55.397 57.3088 55.5897 56.6023L53.6602 56.0761ZM53.2764 56.5781L52.282 54.8428C52.3951 54.778 52.4881 54.7512 52.5359 54.7404C52.5823 54.73 52.6002 54.7315 52.5776 54.7322L52.6328 56.7314L52.688 58.7306C53.0936 58.7194 53.6873 58.6477 54.2707 58.3134L53.2764 56.5781ZM52.6328 56.7314L52.578 54.7322C52.4188 54.7365 52.0254 54.6851 51.2315 54.4809L50.7334 56.4179L50.2353 58.3549C51.0248 58.5579 51.9079 58.752 52.6876 58.7307L52.6328 56.7314ZM50.7334 56.4179L51.2315 54.4809C50.545 54.3044 49.6916 54.0494 48.6242 53.727L48.0459 55.6416L47.4676 57.5561C48.5162 57.8729 49.4529 58.1537 50.2353 58.3549L50.7334 56.4179ZM48.0459 55.6416L46.1269 55.0783C46.0838 55.2251 46.0471 55.3622 46.0181 55.4704L47.9502 55.9873L49.8823 56.5041C49.9119 56.3932 49.9372 56.2994 49.9649 56.2048L48.0459 55.6416ZM47.9502 55.9873L46.0181 55.4704C45.9612 55.6832 45.9337 55.7843 45.909 55.8559L47.7998 56.5078L49.6906 57.1596C49.772 56.9236 49.8396 56.6634 49.8823 56.5041L47.9502 55.9873ZM47.7998 56.5078L45.9091 55.8558C45.8851 55.9254 45.9121 55.8113 46.0377 55.661C46.1091 55.5754 46.2136 55.4762 46.3561 55.3911C46.5011 55.3044 46.6509 55.2532 46.7878 55.2304L47.1172 57.2031L47.4466 59.1758C49.0285 58.9116 49.5469 57.5763 49.6906 57.1597L47.7998 56.5078ZM47.1172 57.2031L46.7889 55.2302C46.9074 55.2105 46.9961 55.2149 47.0405 55.2194C47.0835 55.2238 47.0975 55.2296 47.0738 55.223L46.5361 57.1494L45.9985 59.0757C46.3485 59.1734 46.8637 59.2728 47.4455 59.1759L47.1172 57.2031ZM46.5361 57.1494L47.0742 55.2231C47.0172 55.2072 46.8845 55.1603 46.635 55.0442L45.791 56.8574L44.947 58.6706C45.2759 58.8237 45.635 58.9742 45.9981 59.0756L46.5361 57.1494ZM45.791 56.8574L46.6351 55.0442C46.2729 54.8756 45.7737 54.6114 45.073 54.2184L44.0947 55.9628L43.1164 57.7072C43.8343 58.1098 44.4417 58.4353 44.9469 58.6705L45.791 56.8574ZM44.0947 55.9628L45.0815 54.2232L44.3188 53.7906L43.332 55.5302L42.3453 57.2699L43.108 57.7025L44.0947 55.9628ZM43.332 55.5302L44.3243 53.7937C44.3613 53.8149 44.3951 53.8406 44.4237 53.8679C44.4516 53.8948 44.4692 53.918 44.4783 53.9318C44.4946 53.9563 44.4798 53.9434 44.4596 53.8662L42.5244 54.371L40.5892 54.8759C40.7972 55.6732 41.2806 56.6615 42.3398 57.2667L43.332 55.5302ZM42.5244 54.371L44.4597 53.8665C44.4145 53.693 44.3882 53.3853 44.4264 52.9359L42.4336 52.7666L40.4408 52.5972C40.3827 53.2803 40.3846 54.0911 40.5891 54.8756L42.5244 54.371ZM42.4336 52.7666L44.4264 52.936C44.4846 52.2508 44.6717 51.4601 44.892 50.772L42.9873 50.1621L41.0826 49.5522C40.8063 50.415 40.5328 51.515 40.4408 52.5972L42.4336 52.7666ZM42.9873 50.1621L42.2987 48.2843C40.2841 49.0231 37.9547 49.5508 36.6998 49.7835L37.0645 51.75L37.4291 53.7164C38.8053 53.4613 41.3734 52.8842 43.6759 52.0398L42.9873 50.1621ZM37.0645 51.75L35.2752 52.6435L35.6677 53.4296L37.457 52.5361L39.2463 51.6426L38.8538 50.8564L37.0645 51.75ZM37.457 52.5361L36.5918 54.3393C36.5206 54.3051 36.4715 54.272 36.444 54.2518C36.4162 54.2313 36.4009 54.2169 36.3973 54.2134L37.7832 52.7714L39.1691 51.3295C38.98 51.1477 38.6971 50.9128 38.3222 50.7329L37.457 52.5361ZM37.7832 52.7714L36.397 54.2132C36.3965 54.2126 36.4004 54.2163 36.4087 54.2254C36.4169 54.2344 36.4282 54.2473 36.4425 54.2647C36.4716 54.3001 36.5079 54.3476 36.551 54.4089L38.1865 53.2578L39.822 52.1067C39.6526 51.8659 39.4339 51.584 39.1694 51.3297L37.7832 52.7714ZM38.1865 53.2578L36.5509 54.4087C36.7316 54.6656 36.9478 55.0449 37.1791 55.5011L38.9629 54.5966L40.7467 53.6922C40.4842 53.1744 40.1668 52.5965 39.8222 52.1068L38.1865 53.2578ZM38.9629 54.5966L37.1791 55.5011C37.6373 56.4048 38.0396 57.3789 38.2263 57.8129L40.0635 57.0224L41.9006 56.2319C41.7436 55.8671 41.2774 54.7389 40.7467 53.6922L38.9629 54.5966ZM40.0635 57.0224L38.2206 57.7994L38.2968 57.9801L40.1396 57.2031L41.9825 56.4261L41.9064 56.2454L40.0635 57.0224ZM40.1396 57.2031L38.288 57.9589C38.2923 57.9694 38.2942 57.9747 38.2944 57.9752C38.2945 57.9753 38.2938 57.9736 38.2926 57.97C38.2914 57.9665 38.2894 57.9605 38.2868 57.9522L40.1963 57.3574L42.1058 56.7625C42.0689 56.644 42.0271 56.5348 41.9913 56.4473L40.1396 57.2031ZM40.1963 57.3574L38.2867 57.952C38.2851 57.9467 38.2721 57.9053 38.2597 57.8458C38.2472 57.7864 38.2312 57.6905 38.2289 57.5684L40.2285 57.5302L42.2282 57.4921C42.2213 57.1338 42.1336 56.8518 42.1059 56.7627L40.1963 57.3574ZM40.2285 57.5302L38.2289 57.568C38.2243 57.3263 38.2768 56.8392 38.6816 56.4154L40.1279 57.7968L41.5742 59.1782C42.1507 58.5747 42.2354 57.8734 42.2282 57.4924L40.2285 57.5302ZM40.1279 57.7968L38.6831 56.4139C39.0639 56.016 39.5059 55.9405 39.6664 55.9225L39.8887 57.9101L40.111 59.8977C40.3896 59.8666 41.0301 59.7467 41.5728 59.1797L40.1279 57.7968ZM39.8887 57.9101L39.6683 55.9223C39.756 55.9126 39.8258 55.9127 39.8706 55.9143C39.9165 55.9159 39.9505 55.9197 39.9679 55.9219L39.7178 57.9062L39.4676 59.8905C39.5885 59.9057 39.8254 59.9294 40.109 59.8979L39.8887 57.9101ZM39.7178 57.9062L39.9687 55.922C39.9837 55.9239 39.9896 55.9251 39.9829 55.9239C39.9768 55.9228 39.9647 55.9206 39.9444 55.9165C39.8998 55.9075 39.8491 55.8964 39.7686 55.8788L39.3428 57.833L38.917 59.7871C39.0188 59.8093 39.2575 59.8639 39.4668 59.8904L39.7178 57.9062ZM39.3428 57.833L39.7686 55.8788C39.1317 55.74 37.9107 55.4807 35.8159 55.4475L35.7842 57.4472L35.7525 59.447C37.4965 59.4746 38.4391 59.683 38.917 59.7871L39.3428 57.833ZM35.7842 57.4472L33.882 58.0651C33.9249 58.1973 33.9531 58.2885 33.9721 58.3583C33.9923 58.4324 33.9894 58.4367 33.9846 58.3977L35.9697 58.1543L37.9549 57.9108C37.9041 57.4965 37.766 57.0746 37.6863 56.8293L35.7842 57.4472ZM35.9697 58.1543L33.9845 58.397C33.9822 58.3785 33.9736 58.3022 33.9841 58.1909C33.995 58.0756 34.0287 57.8985 34.1292 57.7011L35.9111 58.6093L37.693 59.5175C38.0383 58.8401 37.9895 58.194 37.9549 57.9115L35.9697 58.1543ZM35.9111 58.6093L34.1296 57.7005C34.3868 57.1963 34.837 56.9947 35.1128 56.939L35.5088 58.8994L35.9048 60.8598C36.5057 60.7384 37.2624 60.3616 37.6927 59.5182L35.9111 58.6093ZM35.5088 58.8994L35.1145 56.9386C35.2309 56.9152 35.3114 56.9165 35.3343 56.9173C35.3586 56.9181 35.357 56.9198 35.3176 56.9135L35.0029 58.8886L34.6882 60.8637C34.9423 60.9042 35.3993 60.9614 35.9031 60.8601L35.5088 58.8994ZM35.0029 58.8886L35.3179 56.9136C35.2396 56.9011 35.0987 56.8703 34.8664 56.8056L34.3301 58.7324L33.7938 60.6591C34.0841 60.74 34.3917 60.8164 34.688 60.8637L35.0029 58.8886ZM34.3301 58.7324L34.8665 56.8057C34.4735 56.6962 33.941 56.5241 33.193 56.279L32.5703 58.1796L31.9476 60.0802C32.6712 60.3173 33.2962 60.5206 33.7937 60.6591L34.3301 58.7324ZM32.5703 58.1796L30.5764 58.0231C30.5766 58.0209 30.5786 57.9962 30.5889 57.9542C30.5992 57.9118 30.6193 57.8463 30.6581 57.7671C30.7434 57.5926 30.8934 57.406 31.1091 57.2718L32.166 58.9697L33.2229 60.6676C34.2311 60.04 34.5102 59.0236 34.5642 58.3362L32.5703 58.1796ZM32.166 58.9697L31.11 57.2712C31.3942 57.0945 31.6443 57.0935 31.7156 57.0969L31.6211 59.0947L31.5266 61.0924C31.9601 61.113 32.5971 61.0567 33.222 60.6682L32.166 58.9697ZM31.6211 59.0947L31.7162 57.0969C31.7368 57.0979 31.7511 57.0996 31.7582 57.1006C31.7654 57.1016 31.7673 57.1021 31.7635 57.1013C31.7597 57.1005 31.7517 57.0987 31.7391 57.0952C31.7267 57.0917 31.7109 57.087 31.6917 57.0807L31.0664 58.9804L30.4411 60.8801C30.7174 60.9711 31.097 61.072 31.5259 61.0924L31.6211 59.0947ZM31.0664 58.9804L31.6919 57.0808C31.4964 57.0164 31.2323 56.8891 30.8552 56.6964L29.9453 58.4775L29.0355 60.2586C29.3682 60.4285 29.9037 60.7032 30.4409 60.8801L31.0664 58.9804ZM29.9453 58.4775L30.8552 56.6964C30.6825 56.6082 30.4839 56.5058 30.3044 56.4192L29.4355 58.2207L28.5667 60.0221C28.6934 60.0832 28.837 60.1572 29.0355 60.2586L29.9453 58.4775ZM29.4355 58.2207L27.4359 58.2594C27.4373 58.3327 27.4371 58.303 27.4377 58.3422L29.4375 58.3105L31.4373 58.2788C31.4369 58.2555 31.4364 58.2336 31.436 58.2185C31.4356 58.2011 31.4354 58.1916 31.4352 58.1819L29.4355 58.2207ZM29.4375 58.3105L27.4377 58.3421C27.4389 58.4146 27.4391 58.4624 27.4385 58.4986C27.4378 58.5365 27.4365 58.5361 27.4392 58.512L29.4268 58.7343L31.4144 58.9566C31.4442 58.69 31.4395 58.4201 31.4373 58.2789L29.4375 58.3105ZM29.4268 58.7343L27.4392 58.512C27.44 58.5049 27.4497 58.4093 27.4937 58.2802C27.5395 58.146 27.6376 57.9294 27.8437 57.7205L29.2676 59.125L30.6915 60.5294C31.3155 59.8968 31.3948 59.1315 31.4144 58.9567L29.4268 58.7343ZM29.2676 59.125L27.8443 57.7199C28.0968 57.4641 28.4062 57.3282 28.6839 57.2791C28.9349 57.2349 29.1312 57.2647 29.2369 57.2883L28.8008 59.2402L28.3647 61.1921C28.8102 61.2916 29.8487 61.3831 30.6909 60.53L29.2676 59.125ZM28.8008 59.2402L29.2383 57.2886C29.2894 57.3001 29.3279 57.3122 29.352 57.3205C29.3762 57.3288 29.3912 57.3352 29.3956 57.3371C29.4001 57.3391 29.398 57.3384 29.3881 57.3334C29.3783 57.3284 29.3636 57.3206 29.3429 57.3091L28.3701 59.0566L27.3973 60.8041C27.5864 60.9093 27.9392 61.0967 28.3632 61.1917L28.8008 59.2402ZM28.3701 59.0566L29.3431 57.3092C29.249 57.2568 29.1055 57.1684 28.8871 57.0253L27.791 58.6982L26.6949 60.3711C26.9335 60.5274 27.1738 60.6796 27.3972 60.804L28.3701 59.0566ZM27.791 58.6982L28.906 57.0378L26.9587 55.7302L25.8438 57.3906L24.7288 59.051L26.676 60.3586L27.791 58.6982ZM25.8438 57.3906L26.9532 55.7265C26.9127 55.6995 26.8926 55.6813 26.8854 55.6744C26.8787 55.6679 26.8795 55.6676 26.8834 55.6732C26.8871 55.6785 26.8886 55.682 26.8876 55.6798C26.8862 55.6769 26.8806 55.6638 26.8723 55.6352L24.9512 56.1914L23.0301 56.7476C23.2668 57.5654 23.7543 58.4013 24.7343 59.0547L25.8438 57.3906ZM24.9512 56.1914L26.8723 55.6354C26.8643 55.6077 26.854 55.5657 26.8411 55.4999C26.8272 55.4292 26.8159 55.3609 26.7976 55.2539L24.8262 55.5908L22.8547 55.9277C22.8813 56.0831 22.9331 56.4125 23.03 56.7474L24.9512 56.1914ZM24.8262 55.5908L26.7976 55.2539C26.7661 55.0698 26.7171 54.7774 26.6247 54.4694L24.709 55.0439L22.7933 55.6184C22.8058 55.6603 22.8199 55.7239 22.8547 55.9277L24.8262 55.5908ZM24.709 55.0439L26.6246 54.4692C26.4135 53.7653 26.0017 53.0541 25.1835 52.4442L23.9883 54.0478L22.7931 55.6514C22.8251 55.6752 22.838 55.6884 22.8387 55.6892C22.8392 55.6897 22.8373 55.6878 22.8337 55.6834C22.8301 55.6789 22.8255 55.6729 22.8203 55.6653C22.8152 55.6577 22.8102 55.6497 22.8057 55.6415C22.8011 55.6333 22.7975 55.626 22.7949 55.6201C22.7894 55.6081 22.7894 55.6055 22.7933 55.6186L24.709 55.0439ZM23.9883 54.0478L25.1832 52.444C24.5199 51.9498 23.6518 51.569 22.5535 51.2575L22.0078 53.1816L21.4621 55.1057C22.3056 55.3449 22.6655 55.5564 22.7933 55.6516L23.9883 54.0478ZM22.0078 53.1816L22.5242 51.2494L22.0857 51.1322L21.5693 53.0644L21.0529 54.9966L21.4914 55.1138L22.0078 53.1816ZM21.5693 53.0644L22.0544 51.1241C19.5666 50.5021 18.6828 49.5577 18.435 49.1488L16.7246 50.1855L15.0143 51.2222C15.9783 52.8127 17.9418 54.219 21.0842 55.0047L21.5693 53.0644ZM16.7246 50.1855L14.7632 49.7945L14.4155 51.5387L16.377 51.9296L18.3384 52.3206L18.686 50.5765L16.7246 50.1855ZM16.377 51.9296L15.8079 53.847C16.0941 53.9319 16.5265 54.1298 17.0015 54.4367L18.0869 52.7568L19.1723 51.0769C18.4739 50.6257 17.6931 50.234 16.946 50.0123L16.377 51.9296ZM18.0869 52.7568L17.0014 54.4366C17.5713 54.8048 18.0904 55.2557 18.4298 55.6909L20.0068 54.4609L21.5839 53.2309C20.9013 52.3557 20.012 51.6196 19.1724 51.077L18.0869 52.7568ZM20.0068 54.4609L18.4056 55.6592L18.5189 55.8106L20.1201 54.6123L21.7214 53.4139L21.6081 53.2625L20.0068 54.4609ZM20.1201 54.6123L18.4933 55.7757C18.5061 55.7935 18.5156 55.8075 18.5224 55.8178C18.5292 55.8282 18.5324 55.8337 18.533 55.8347C18.5336 55.8357 18.5306 55.8306 18.5251 55.8197C18.5197 55.8089 18.5109 55.7903 18.5005 55.7644L20.3574 55.0214L22.2143 54.2785C22.0795 53.9415 21.8959 53.6572 21.7469 53.4488L20.1201 54.6123ZM20.3574 55.0214L18.5004 55.764C18.4667 55.6796 18.2692 55.1318 18.6409 54.5321L20.3408 55.5859L22.0407 56.6397C22.6475 55.6608 22.3808 54.6949 22.2145 54.2789L20.3574 55.0214ZM20.3408 55.5859L18.6412 54.5316C18.802 54.2725 19.0061 54.1192 19.1517 54.0373C19.2876 53.9608 19.393 53.9343 19.4172 53.9284L19.8926 55.871L20.3679 57.8137C20.6607 57.7421 21.506 57.5016 22.0404 56.6401L20.3408 55.5859ZM19.8926 55.871L19.418 53.9282C19.4511 53.9201 19.4557 53.9218 19.4166 53.9259C19.3797 53.9298 19.3246 53.9338 19.2431 53.9372L19.3252 55.9355L19.4072 57.9338C19.6417 57.9242 20.0035 57.9028 20.3672 57.8139L19.8926 55.871ZM19.3252 55.9355L19.2433 53.9372C18.7307 53.9582 17.266 53.9033 15.7613 54.1128L16.0371 56.0937L16.3129 58.0746C17.5823 57.8979 18.3978 57.9752 19.4071 57.9338L19.3252 55.9355ZM16.0371 56.0937L14.537 57.4164C14.5472 57.4281 14.5533 57.4354 14.5561 57.4388C14.5588 57.4422 14.557 57.4401 14.5517 57.4328L16.1758 56.2656L17.7999 55.0984C17.7112 54.975 17.6202 54.865 17.5373 54.771L16.0371 56.0937ZM16.1758 56.2656L14.5516 57.4326C14.5492 57.4294 14.5367 57.4117 14.5195 57.3814C14.5025 57.3514 14.4755 57.2993 14.449 57.2268C14.3956 57.081 14.3311 56.8126 14.3953 56.4782L16.3594 56.8554L18.3235 57.2326C18.5308 56.1531 17.9762 55.3438 17.8 55.0986L16.1758 56.2656ZM16.3594 56.8554L14.3954 56.4776C14.4704 56.0879 14.6881 55.7869 14.9167 55.5987C15.1162 55.4345 15.3007 55.3716 15.3912 55.3466L15.9238 57.2744L16.4564 59.2021C16.9047 59.0783 18.0587 58.6086 18.3234 57.2333L16.3594 56.8554ZM15.9238 57.2744L15.392 55.3464C15.4383 55.3336 15.4732 55.3274 15.4929 55.3245C15.5129 55.3216 15.5232 55.3211 15.5218 55.3212C15.5207 55.3213 15.512 55.3217 15.4946 55.3214C15.4774 55.3212 15.4544 55.3204 15.4249 55.3185L15.2969 57.3144L15.1688 59.3103C15.4789 59.3302 15.9598 59.3392 16.4557 59.2024L15.9238 57.2744ZM15.2969 57.3144L15.4252 55.3185C14.8894 55.2841 13.76 55.0157 12.2344 54.5077L11.6025 56.4052L10.9707 58.3028C12.5079 58.8146 14.0691 59.2396 15.1686 59.3103L15.2969 57.3144ZM11.6025 56.4052L12.2508 54.5132L11.5838 54.2847L10.9355 56.1767L10.2873 58.0687L10.9543 58.2973L11.6025 56.4052ZM10.9355 56.1767L11.5981 54.2896C11.5979 54.2896 11.6018 54.2909 11.609 54.2944C11.6164 54.2978 11.6261 54.3029 11.6375 54.3099C11.6617 54.3247 11.6857 54.3433 11.707 54.3639C11.7507 54.4061 11.753 54.4275 11.7304 54.38L9.9248 55.2402L8.11923 56.1004C8.50322 56.9064 9.1686 57.676 10.273 58.0638L10.9355 56.1767ZM9.9248 55.2402L11.7305 54.3803C11.6522 54.216 11.5913 53.9662 11.4413 53.3329L9.49512 53.7939L7.54897 54.2549C7.65167 54.6885 7.81207 55.4554 8.11911 56.1001L9.9248 55.2402ZM9.49512 53.7939L11.4413 53.3329C11.184 52.2469 10.7857 50.662 9.5049 48.932L7.89746 50.122L6.29002 51.312C7.07509 52.3725 7.32471 53.3081 7.54897 54.2549L9.49512 53.7939ZM7.89746 50.122L9.47942 48.8983L9.26263 48.6181L7.68066 49.8418L6.0987 51.0654L6.3155 51.3457L7.89746 50.122ZM7.68066 49.8418L9.24241 48.5924C7.753 46.7306 7.59584 44.7543 7.6883 43.9101L5.7002 43.6923L3.71209 43.4746C3.5251 45.1817 3.8579 48.2648 6.11892 51.0911L7.68066 49.8418ZM5.7002 43.6923L5.93936 41.7067C5.88973 41.7007 5.86806 41.6926 5.8665 41.692C5.86543 41.6915 5.86789 41.6924 5.87291 41.6952C5.87797 41.6979 5.88416 41.7018 5.8908 41.7067L4.70117 43.3144L3.51155 44.9221C4.08953 45.3498 4.7577 45.5933 5.46103 45.678L5.7002 43.6923ZM4.70117 43.3144L5.89117 41.707C5.8977 41.7118 5.90296 41.7166 5.90656 41.7203C5.91003 41.7239 5.91052 41.725 5.90852 41.7222C5.90407 41.7159 5.88949 41.693 5.87194 41.6464L4 42.3505L2.12806 43.0547C2.36737 43.6909 2.79064 44.3885 3.51118 44.9219L4.70117 43.3144ZM4 42.3505L5.87205 41.6467C5.84338 41.5704 5.81556 41.4545 5.80227 41.2991C5.78916 41.1456 5.79283 40.9838 5.80851 40.8337L3.81934 40.6259L1.83016 40.4181C1.75716 41.117 1.76827 42.0978 2.12795 43.0544L4 42.3505ZM3.81934 40.6259L3.86785 38.6265C3.91554 38.6277 4.01768 38.64 4.13959 38.6995L3.2627 40.497L2.3858 42.2945C2.84709 42.5196 3.32238 42.6145 3.77082 42.6253L3.81934 40.6259ZM3.2627 40.497L4.1403 38.6999C4.33798 38.7964 4.41232 38.9311 4.41573 38.9377L2.6377 39.8535L0.859656 40.7692C1.14723 41.3276 1.62684 41.9239 2.38509 42.2942L3.2627 40.497ZM2.6377 39.8535L4.41604 38.9383C4.41709 38.9404 4.4055 38.918 4.38944 38.8617C4.37349 38.8058 4.3562 38.7272 4.3416 38.6227C4.31179 38.4094 4.29974 38.1364 4.31046 37.8073L2.31152 37.7421L0.312584 37.677C0.283704 38.5636 0.339209 39.7578 0.859346 40.7686L2.6377 39.8535ZM2.31152 37.7421L4.31046 37.8073C4.35057 36.5772 4.69055 34.9741 5.05445 33.7042L3.13184 33.1533L1.20922 32.6023C0.807748 34.0033 0.368275 35.9692 0.312586 37.677L2.31152 37.7421ZM3.13184 33.1533L3.3586 31.1662C3.46041 31.1778 3.58568 31.2086 3.71711 31.2743L2.82324 33.0634L1.92937 34.8526C2.25674 35.0161 2.58978 35.1044 2.90507 35.1404L3.13184 33.1533ZM2.82324 33.0634L3.7186 31.275C3.86275 31.3472 3.96245 31.4373 4.02324 31.5071C4.08078 31.5732 4.10409 31.6213 4.10732 31.628L2.30176 32.4882L0.496194 33.3484C0.72464 33.8279 1.15291 34.4638 1.92788 34.8518L2.82324 33.0634ZM2.30176 32.4882L4.10747 31.6284C4.10952 31.6327 4.07499 31.5548 4.04473 31.3513C4.01603 31.1582 4.00001 30.9136 4 30.6239L2 30.624L0 30.624C2.39611e-05 31.3949 0.0698885 32.4532 0.496044 33.3481L2.30176 32.4882ZM2 30.624L4 30.624C4.00001 29.4027 4.28286 27.8675 4.53702 27.1051L2.63965 26.4726L0.742282 25.8402C0.352068 27.0108 1.33514e-05 28.9731 0 30.624L2 30.624ZM2.63965 26.4726L4.51357 27.1715L4.62393 26.8756L2.75 26.1767L0.876074 25.4779L0.765722 25.7738L2.63965 26.4726ZM2.75 26.1767L4.59886 26.9394C4.76742 26.5308 5.05314 26.1146 5.3922 25.7355L3.90137 24.4023L2.41054 23.0691C1.8755 23.6674 1.29364 24.4625 0.901139 25.414L2.75 26.1767ZM3.90137 24.4023L5.39213 25.7356C5.6637 25.4319 5.94378 25.1818 6.16342 25.0096L4.92969 23.4355L3.69595 21.8614C3.31126 22.1629 2.8552 22.5719 2.4106 23.069L3.90137 24.4023ZM4.92969 23.4355L6.36977 22.0476C6.47079 22.1525 6.22814 22.0176 6.38445 21.2415L4.42383 20.8466L2.4632 20.4517C2.12315 22.14 2.44264 23.737 3.48961 24.8234L4.92969 23.4355ZM4.42383 20.8466L6.38443 21.2416C6.58289 20.2566 7.39215 18.5017 9.79726 15.856L8.31738 14.5107L6.8375 13.1654C4.21915 16.0455 2.86764 18.4443 2.46322 20.4516L4.42383 20.8466ZM8.31738 14.5107L9.77853 15.8764L10.3791 15.2338L8.91797 13.8681L7.45682 12.5025L6.85623 13.145L8.31738 14.5107ZM8.91797 13.8681L10.3618 15.2521C13.2523 12.2367 16.8959 9.6079 20.3568 7.70084L19.3916 5.94917L18.4264 4.1975C14.6797 6.26204 10.6942 9.12496 7.47417 12.4841L8.91797 13.8681ZM19.3916 5.94917L20.3568 7.70085C22.1995 6.68551 23.9651 5.8887 25.5078 5.35011L24.8486 3.46187L24.1894 1.57363C22.4001 2.19831 20.4293 3.09385 18.4264 4.19749L19.3916 5.94917ZM24.8486 3.46187L25.5078 5.35012C27.0782 4.80191 28.3138 4.55757 29.1299 4.55757V2.55757V0.557572C27.6651 0.557572 25.9413 0.962049 24.1895 1.57362L24.8486 3.46187ZM29.1299 2.55757L29.1298 4.55757C30.0578 4.55761 30.6998 4.69014 31.1514 4.83608C31.6077 4.98353 31.926 5.16017 32.282 5.35783L33.2529 3.60933L34.2239 1.86083C33.3625 1.38252 31.8698 0.557673 29.13 0.557572L29.1299 2.55757ZM33.2529 3.60933L32.282 5.35784C32.4332 5.44182 32.6845 5.58344 32.9432 5.68636L33.6826 3.82808L34.4221 1.9698C34.4492 1.98058 34.4512 1.98343 34.4103 1.9623C34.3692 1.94101 34.3145 1.91113 34.2239 1.86082L33.2529 3.60933ZM33.6826 3.82808L32.9437 5.68658C33.2168 5.79517 33.6445 5.92348 34.1587 5.86162L33.9199 3.87593L33.6811 1.89024C34.09 1.84106 34.375 1.95108 34.4215 1.96958L33.6826 3.82808ZM33.9199 3.87593L34.1621 5.86121C35.2286 5.7311 35.8386 4.90624 36.1602 4.42381L34.4961 3.31441L32.832 2.20501C32.7263 2.36358 32.721 2.3385 32.8172 2.25498C32.8721 2.20725 32.9745 2.12783 33.1258 2.05348C33.287 1.97425 33.4739 1.91552 33.6777 1.89065L33.9199 3.87593ZM34.4961 3.31441L36.1598 4.42439C36.1378 4.45739 36.1413 4.43064 36.2454 4.37161C36.3548 4.30962 36.536 4.23491 36.8096 4.16908L36.3418 2.22456L35.874 0.280051C34.8763 0.520073 33.616 1.02986 32.8324 2.20442L34.4961 3.31441Z" fill="#6BFFFC" mask="url(#path-1-outside-1_34706_5316)"/>
<path d="M64.6955 16.5841C65.6938 19.0799 65.1115 21.3677 64.6955 22.1996C66.5675 23.4468 67.8151 27.1919 65.3193 32.8075C63.3227 37.2999 61.1597 38.0071 60.3277 37.7991C57.8319 41.5428 55.9601 41.5428 55.3362 42.7907C54.837 43.789 54.2962 49.0302 54.0883 51.526C54.9202 51.526 57.208 54.6457 57.208 54.6457C57.208 54.6457 54.5755 55.0617 53.1196 54.6457C54.0883 57.1415 52.5892 56.703 47.8488 55.2696C47.2248 57.1415 47.8488 57.7654 43.4811 55.2696C42.1106 54.4865 42.8572 51.318 43.4811 49.6541C40.9853 50.6524 37.8656 51.318 36.6177 51.526L37.2416 52.7738C38.0736 52.9818 39.4401 56.3321 39.7884 57.1415C40.2456 58.2039 39.7884 57.1415 35.3698 57.1415C35.9937 58.9888 35.9937 58.9888 32.2668 57.7654C32.4737 59.9032 30.1566 58.1075 29.1303 57.7654C29.1304 59.446 29.4673 59.446 26.0106 57.1415C24.1387 55.8936 26.6345 54.0217 21.6429 52.7738C17.6496 51.7755 16.6513 49.8621 16.6513 49.0302L16.0274 52.1499C17.0673 52.3579 18.8004 53.401 19.7711 54.6457C21.019 56.2458 18.7586 55.2696 15.4034 55.8936C17.3871 57.6173 14.6441 57.1602 11.0358 55.8936C9.3706 55.3091 10.4118 52.7738 7.91605 49.6541C5.91941 47.1583 5.83622 44.4545 6.0442 43.4146C4.04746 43.4146 3.96433 41.3348 4.17235 40.2949C1.67656 40.794 2.7165 35.5113 3.54844 32.8075C1.6765 33.4314 2.30054 28.4398 2.92449 26.568C3.42365 25.0705 4.7964 23.8642 5.42038 23.4483C4.38046 22.8243 3.54853 20.2037 8.54012 14.713C14.7796 7.84954 24.7628 2.85795 29.1304 2.85795C33.4981 2.85795 33.4981 5.35303 34.746 3.48118C35.9939 1.60934 41.6094 2.23329 45.977 3.48118C50.3447 4.72908 50.9686 6.60093 51.5926 7.22488C52.2165 7.84883 52.8405 6.60093 54.7123 6.60093C56.5842 6.60093 60.9518 9.09672 61.5758 10.9686C62.1997 12.8404 62.1996 10.9693 63.4475 11.5932C64.4458 12.0924 65.1115 15.1282 64.6955 16.5841Z" fill="#BF79FE"/>
<path d="M64.6955 22.1996C65.1115 21.3677 65.6938 19.0799 64.6955 16.5841C65.1115 15.1282 64.4458 12.0924 63.4475 11.5932C62.1996 10.9693 62.1997 12.8404 61.5758 10.9686C60.9518 9.09672 56.5842 6.60093 54.7123 6.60093C52.8405 6.60093 52.2165 7.84883 51.5926 7.22488C50.9686 6.60093 50.3447 4.72908 45.977 3.48118C41.6094 2.23329 35.9939 1.60934 34.746 3.48118C33.4981 5.35303 33.4981 2.85795 29.1304 2.85795C24.7628 2.85795 14.7796 7.84954 8.54012 14.713C3.54853 20.2037 4.38046 22.8243 5.42038 23.4483C4.7964 23.8642 3.42365 25.0705 2.92449 26.568C2.30054 28.4398 1.6765 33.4314 3.54844 32.8075C2.7165 35.5113 1.67656 40.794 4.17235 40.2949C3.96433 41.3348 4.04746 43.4146 6.0442 43.4146C5.83622 44.4545 5.91941 47.1583 7.91605 49.6541C10.4118 52.7738 9.3706 55.3091 11.0358 55.8936C14.6441 57.1602 17.3871 57.6173 15.4034 55.8936C18.7586 55.2696 21.019 56.2458 19.7711 54.6457C18.8004 53.401 17.0673 52.3579 16.0274 52.1499L16.6513 49.0302C16.6513 49.8621 17.6496 51.7755 21.6429 52.7738C26.6345 54.0217 24.1387 55.8936 26.0106 57.1415C29.4673 59.446 29.1304 59.446 29.1303 57.7654C30.1566 58.1075 32.4737 59.9032 32.2668 57.7654M64.6955 22.1996C66.5675 23.4468 67.8151 27.1919 65.3193 32.8075M64.6955 22.1996C62.1897 21.6422 58.5324 20.3943 55.9601 22.2004M32.25 57.1415C32.3387 57.4074 32.3368 57.6116 32.2668 57.7654M32.2668 57.7654C35.9937 58.9888 35.9937 58.9888 35.3698 57.1415C39.7884 57.1415 40.2456 58.2039 39.7884 57.1415C39.4401 56.3321 38.0736 52.9818 37.2416 52.7738L36.6177 51.526M35.9937 50.2781L36.6177 51.526M36.6177 51.526C37.8656 51.318 40.9853 50.6524 43.4811 49.6541C42.8572 51.318 42.1106 54.4865 43.4811 55.2696C47.8488 57.7654 47.2248 57.1415 47.8488 55.2696C52.5892 56.703 54.0883 57.1415 53.1196 54.6457C54.5755 55.0617 57.208 54.6457 57.208 54.6457C57.208 54.6457 54.9202 51.526 54.0883 51.526C54.2962 49.0302 54.837 43.789 55.3362 42.7907C55.9601 41.5428 57.8319 41.5428 60.3277 37.7991C61.1597 38.0071 63.3227 37.2999 65.3193 32.8075M65.3193 32.8075C64.9831 33.4534 62.7893 34.4956 56.7037 33.4972M50.3446 19.0806C51.1547 19.7046 53.2277 20.8758 53.5035 22.8724M53.5035 22.8724C54.0344 23.0804 54.7123 24.3218 54.7123 25.3201M53.5035 22.8724C50.2907 21.6245 42.982 20.5781 40.9853 24.0722M47.8488 10.9686L49.0967 12.283M49.7206 9.78719L50.9685 11.5932M54.0883 10.9686L54.7122 12.283M57.208 11.659L57.8319 13.5309M39.1135 10.9686L40.3614 12.283M40.9853 8.53929L42.2332 9.78719M43.4811 7.91534L44.729 9.16324M45.977 7.22488L47.2248 8.53929M48.4727 7.29139L49.7206 8.53929M51.5926 8.53929L52.8404 10.4111M55.3362 9.16324L55.9601 10.4111M44.1051 10.9686L45.353 12.283M42.8572 5.41955L44.1051 6.66745M45.977 5.41955L47.2248 6.60093M39.7374 6.0435L41.6093 7.29139M39.1135 3.5477L40.9853 4.7956M42.8572 3.5477L44.729 4.7956M35.9937 4.17165L37.8656 5.41955M36.6177 6.66745L38.4895 7.91534M37.8656 9.16324L39.7374 10.4111M41.6093 11.5932L42.8572 12.9069M34.1219 9.16324L35.9937 10.4111M34.7458 7.29139L36.6177 8.53929M36.6177 11.659L38.4895 12.9069M32.25 6.66745L34.1219 7.91534M33.4979 5.41955L35.3698 6.66745M28.5064 4.7956L30.3782 6.0435M31.0022 4.7956L32.25 5.41955M29.7543 7.91534L31.0022 8.53929M32.25 9.78719L33.4979 10.4111M31.6261 11.659L33.4979 12.283M34.7458 13.5309L36.6177 14.1548M32.874 15.4027L34.7458 16.0267M31.0022 14.1548L33.4979 14.7788M27.2585 11.659L29.1303 12.283M29.1303 9.78719L30.3782 10.4111M24.7627 7.91534L27.2585 8.53929M26.6345 6.66745L28.5064 7.29139M24.7627 4.7956L27.2585 5.41955M21.6429 6.66745L24.1387 7.29139M21.6429 9.16324L23.5148 9.78719M25.3866 10.4111L27.2585 11.0351M24.1387 12.283L26.0106 12.9069M27.8824 14.1548L29.7543 14.7788M17.8992 11.0351L19.7711 11.5932M17.2753 8.53929H19.1471M20.395 10.4111L22.2669 11.0351M14.7795 11.659H16.6513M11.6597 12.9069L13.5316 13.5309M17.2753 12.9069L19.1471 13.5309M21.019 12.9069L22.8908 13.5309M22.2669 14.7788L24.1387 15.4027M25.3866 14.7788L27.2585 15.4027M28.5064 16.6506L31.0022 17.2746M26.6345 17.8985L29.1303 18.5225M23.5148 18.5225L26.0106 19.1464M22.8908 16.6506L24.7627 17.2746M19.1471 16.6506L21.6429 17.2746M19.1471 14.7788L21.019 15.4027M15.4034 15.4027L17.2753 16.0267M15.4034 14.1548L17.2753 14.7788M11.0358 15.4027L13.5316 16.0267M12.9076 17.2746L15.4034 17.8985M16.6513 17.2746L18.5232 17.8985M17.2753 19.7704L19.1471 20.3943M20.395 19.1464L22.2669 19.7704M23.5148 21.0183L26.0106 21.6422M26.6345 20.3943L28.5064 21.0183M9.16394 18.5225L11.6597 19.1464M13.5316 19.7704L15.4034 20.3943M19.7711 21.6422L21.6429 22.2662M24.1387 22.8901L26.6345 23.5141M23.5148 24.762L25.3866 25.3859M21.019 23.5141L22.8908 24.138M17.2753 24.138L19.7711 24.762M16.6513 22.2662L18.5232 22.8901M12.9076 22.8901L15.4034 23.4483M9.78789 21.6422H11.6597M6.66815 21.0183H9.16394M8.53999 23.5141H10.4118M6.0442 25.3859L7.91605 24.762M11.6597 25.3859H13.5316M15.4034 26.0099L17.2753 26.6338M20.395 26.0099L22.2669 26.6338M19.1471 27.2578L21.019 27.8817M16.0274 29.1296L17.8992 29.7535M19.1471 29.1296L21.019 29.7535M22.8908 28.5057L24.7627 29.1296M24.7627 27.2578L26.6345 27.8817M23.5148 31.0014H26.0106M19.1471 31.6254H21.6429M15.4034 30.3775L12.9076 29.7535M11.0358 27.8817H9.16394M15.4034 27.8817H13.5316M4.7963 28.5057L7.2921 27.8817M6.66815 30.3775L8.53999 29.7535M24.1387 33.4972L21.6429 34.1212M17.8992 34.1212H16.0274M14.7795 32.2493H12.9076M9.78789 32.2493L7.91605 32.8075M6.0442 34.1212L4.17235 34.7451M11.6597 34.7451L9.16394 35.3691M7.2921 36.617L4.7963 37.2409M14.1555 36.617L11.6597 37.2409M8.53999 39.1128L7.2921 39.7367M10.4118 36.617L9.16394 37.2409M11.6597 31.0014H10.4118M4.7963 31.0014L3.54844 31.6254M17.2753 37.2409L15.4034 37.7991M21.019 35.3691L18.5232 35.993M22.8908 37.2409L20.395 38.4888M17.8992 39.1128L16.0274 40.2949M14.1555 39.1128L12.2837 39.7367M10.4118 40.9846L8.54012 42.2325M7.2921 40.9846L5.42038 42.2325M12.9076 41.6086L11.0358 42.7907M8.54012 44.1044L7.2921 45.3523M19.1471 40.9846L17.8992 42.2325M16.0274 42.2325L14.1555 43.4146M11.6597 44.1044L10.4118 45.3523M8.54012 46.6002L7.91605 47.8481M31.0022 19.7704L33.4979 20.3943M34.7458 18.5225L32.874 17.8985M29.1303 22.2662H31.0022M59.0798 10.9686L59.7038 12.283M61.5756 13.5309V15.4027M62.8235 14.7788V16.6506M35.3698 20.3943L36.6177 21.0183M33.4979 22.1996L35.3698 22.2662M27.2585 25.3859H29.7543M28.5064 28.5057H30.3782M27.2585 30.3775H29.1304M26.0106 32.8733L28.5064 32.8075M24.7627 35.3691L26.6345 34.7451M24.7627 38.4888L27.2585 37.2409M20.395 40.9846L22.2669 40.2949M20.395 42.7907L18.5232 43.4804" stroke="black" stroke-width="0.6" stroke-linecap="round" stroke-linejoin="round"/>
<path d="M15.4037 55.8922C17.3873 57.616 14.6443 57.1588 11.036 55.8922C9.84593 55.4745 10.0382 54.0604 9.33374 52.1486C10.5251 52.1304 13.6566 51.4809 16.6516 49.0288L16.0276 52.1486C17.0675 52.3565 18.8006 53.3996 19.7713 54.6443C21.0192 56.2445 18.7588 55.2683 15.4037 55.8922Z" fill="black" fill-opacity="0.3"/>
<path d="M29.1305 57.7641C29.1307 59.4447 29.4676 59.4447 26.0108 57.1401C25.1998 56.5995 25.2087 55.9417 25.0733 55.2683C28.5055 55.6623 35.4948 55.2157 35.994 50.2767L36.6179 51.5246L37.2419 52.7725C38.0738 52.9805 39.4404 56.3307 39.7887 57.1401C40.2458 58.2026 39.7886 57.1401 35.37 57.1401C35.994 58.9875 35.994 58.9875 32.2671 57.7641C32.4739 59.9018 30.1569 58.1062 29.1305 57.7641Z" fill="black" fill-opacity="0.3"/>
<path d="M43.4814 55.2683C42.1109 54.4852 42.8574 51.3166 43.4814 49.6528C45.1452 51.1086 49.9704 53.8332 55.9603 53.0845C56.6363 53.8644 57.2082 54.6443 57.2082 54.6443C57.2082 54.6443 54.5757 55.0603 53.1198 54.6443C54.0885 57.1401 52.5894 56.7016 47.849 55.2683C47.2251 57.1401 47.849 57.7641 43.4814 55.2683Z" fill="black" fill-opacity="0.3"/>
<path d="M54.4182 30.6445C54.723 31.4065 54.6011 33.0218 51.6752 33.3875C48.7493 33.7533 44.97 33.5399 43.4461 33.3875M53.961 33.3875C53.6562 33.9971 51.858 35.2162 47.1035 35.2162" stroke="black" stroke-width="0.6" stroke-linecap="round"/>
<path d="M57.8325 35.3692C60.3283 35.8684 62.408 35.5295 64.0718 35.3215C64.0718 35.3215 64.2333 36.0764 63.4479 37.2489C62.1996 39.1125 59.7036 37.8185 56.5838 37.8185C50.9337 37.8185 49.5024 40.9268 46.3827 40.9268C43.263 40.9268 42.6396 37.1819 47.0073 36.558C51.3749 35.934 54.7128 34.7453 57.8325 35.3692Z" fill="#CF5C42"/>
<path d="M63.4479 37.2489C62.1996 39.1125 59.7036 37.8185 56.5838 37.8185C50.9337 37.8185 49.5024 40.9268 46.3827 40.9268C43.263 40.9268 42.6396 37.1819 47.0073 36.558C51.3749 35.934 54.7128 34.7453 57.8325 35.3692C60.3283 35.8684 62.408 35.5295 64.0718 35.3215C64.0718 35.3215 64.2333 36.0764 63.4479 37.2489ZM63.4479 37.2489C61.5761 37.2489 59.1199 36.6167 56.5846 36.6167C52.217 36.6167 48.8728 39.1207 46.3833 39.1207" stroke="black" stroke-width="0.6" stroke-linecap="round" stroke-linejoin="round"/>
<path d="M55.0084 26.5582C59.2337 23.3334 64.7978 23.9478 66.5806 25.5727C66.836 25.8055 67.0782 26.0898 67.158 26.426C67.5312 27.9966 66.8046 32.9383 58.0421 32.4377C51.0549 32.0386 54.069 27.6855 54.7372 26.8241C54.8154 26.7233 54.907 26.6356 55.0084 26.5582Z" fill="white" stroke="black" stroke-width="0.6"/>
<path d="M62.8172 28.1811C63.2732 26.1606 64.4286 25.5394 65.3361 25.2984C65.7886 25.1783 66.3199 25.295 66.6481 25.6289C66.8875 25.8725 67.0891 26.1349 67.1621 26.4686C67.3821 27.4741 67.1925 29.8488 64.9547 31.3266C64.7183 31.4828 64.4388 31.5792 64.1576 31.5443C63.1452 31.4184 62.2994 30.4755 62.8172 28.1811Z" fill="black" stroke="black" stroke-width="0.6"/>
<path d="M40.415 26.392C45.2481 23.0476 52.082 24.0152 54.9216 26.5298C55.0817 26.6716 55.263 26.8135 55.3148 27.021C55.638 28.3155 54.3371 33.5291 46.8491 32.2827C41.0402 31.3158 39.7445 28.8693 39.8185 27.3447C39.8376 26.9501 40.0901 26.6168 40.415 26.392Z" fill="white" stroke="black" stroke-width="0.6"/>
<path d="M53.9693 25.5467C54.3229 25.7748 54.6431 26.0218 54.9242 26.2848C55.0828 26.4332 55.2618 26.582 55.3134 26.793C55.5848 27.9032 54.7635 31.8281 50.3093 32.4697C48.9242 32.5824 46.8466 30.0914 48.9242 27.1713C50.4987 24.9583 52.1974 24.9682 53.5496 25.3556C53.6982 25.3982 53.8394 25.4629 53.9693 25.5467Z" fill="black" stroke="black" stroke-width="0.6"/>
<circle cx="52.3182" cy="26.9871" r="0.914339" fill="white"/>
<circle cx="65.4047" cy="26.9871" r="0.914339" fill="white"/>
<circle cx="50.4408" cy="27.5796" r="0.592783" fill="white"/>
<circle cx="64.0332" cy="28.3585" r="0.45717" fill="white"/>
</svg>
