<svg width="830" height="66" viewBox="0 0 830 66" fill="none" xmlns="http://www.w3.org/2000/svg">
  <g clip-path="url(#clip0_99_585)">
    <g filter="url(#filter0_d_99_585)">
      <path d="M0.5 12C0.5 5.37258 5.87258 0 12.5 0L816.5 0C823.127 0 828.5 5.37258 828.5 12V38H703.326L694.581 30H591.643L582.898 38H425.244L414.25 28H303.817L274.834 64H0.5V12Z" fill="#836EF9"/>
      <path d="M0.5 12C0.5 5.37258 5.87258 0 12.5 0L816.5 0C823.127 0 828.5 5.37258 828.5 12V38H703.326L694.581 30H591.643L582.898 38H425.244L414.25 28H303.817L274.834 64H0.5V12Z" stroke="#3E347C"/>
    </g>
  </g>
  <defs>
    <filter id="filter0_d_99_585" x="-10" y="-10.5" width="849" height="85" filterUnits="userSpaceOnUse" color-interpolation-filters="sRGB">
      <feFlood flood-opacity="0" result="BackgroundImageFix"/>
      <feColorMatrix in="SourceAlpha" type="matrix" values="0 0 0 0 0 0 0 0 0 0 0 0 0 0 0 0 0 0 127 0" result="hardAlpha"/>
      <feOffset/>
      <feGaussianBlur stdDeviation="5"/>
      <feComposite in2="hardAlpha" operator="out"/>
      <feColorMatrix type="matrix" values="0 0 0 0 0 0 0 0 0 0 0 0 0 0 0 0 0 0 0.05 0"/>
      <feBlend mode="normal" in2="BackgroundImageFix" result="effect1_dropShadow_99_585"/>
      <feBlend mode="normal" in="SourceGraphic" in2="effect1_dropShadow_99_585" result="shape"/>
    </filter>
    <clipPath id="clip0_99_585">
      <rect width="830" height="66" fill="white"/>
    </clipPath>
  </defs>
</svg>
