<svg width="161" height="192" viewBox="0 0 161 192" fill="none" xmlns="http://www.w3.org/2000/svg">
  <mask id="path-1-inside-1_31843_1291" fill="white">
  <path d="M101.923 15.7887C108.856 17.6462 114.73 21.3906 117.383 24.4584C112.223 22.2765 106.713 20.3448 100.977 18.8077C95.3656 17.3042 89.757 16.2383 84.3193 15.5485C88.1528 14.238 95.04 13.9443 101.923 15.7887Z"/>
  </mask>
  <path d="M101.923 15.7887C108.856 17.6462 114.73 21.3906 117.383 24.4584C112.223 22.2765 106.713 20.3448 100.977 18.8077C95.3656 17.3042 89.757 16.2383 84.3193 15.5485C88.1528 14.238 95.04 13.9443 101.923 15.7887Z" fill="#37305C"/>
  <path d="M101.923 15.7887L102.053 15.3057L101.923 15.7887ZM117.383 24.4584L117.188 24.9189L117.761 24.1314L117.383 24.4584ZM100.977 18.8077L101.106 18.3248L101.106 18.3248L100.977 18.8077ZM84.3193 15.5485L84.1576 15.0753L84.2564 16.0445L84.3193 15.5485ZM101.923 15.7887L101.794 16.2717C108.653 18.1095 114.432 21.8097 117.005 24.7854L117.383 24.4584L117.761 24.1314C115.029 20.9714 109.059 17.1829 102.053 15.3057L101.923 15.7887ZM117.383 24.4584L117.578 23.9979C112.398 21.8076 106.866 19.8681 101.106 18.3248L100.977 18.8077L100.847 19.2907C106.56 20.8214 112.049 22.7454 117.188 24.9189L117.383 24.4584ZM100.977 18.8077L101.106 18.3248C95.4718 16.815 89.8409 15.7449 84.3822 15.0524L84.3193 15.5485L84.2564 16.0445C89.6731 16.7316 95.2594 17.7934 100.848 19.2907L100.977 18.8077ZM84.3193 15.5485L84.481 16.0216C88.2009 14.75 94.9841 14.447 101.794 16.2717L101.923 15.7887L102.053 15.3057C95.0959 13.4417 88.1048 13.726 84.1576 15.0753L84.3193 15.5485Z" fill="black" mask="url(#path-1-inside-1_31843_1291)"/>
  <path d="M101.043 19.0837C116.61 23.2548 130.452 30.3982 140.108 37.5776C144.937 41.1678 148.71 44.7609 151.128 47.9876C152.337 49.6009 153.202 51.1156 153.694 52.4866C154.147 53.7504 154.277 54.8787 154.08 55.8466L36.8097 24.0975C37.1235 23.1617 37.8 22.2547 38.822 21.3943C39.9305 20.4613 41.4333 19.5939 43.2831 18.8156C46.9828 17.2588 52.0368 16.0718 58.0037 15.4149C69.9354 14.1015 85.4757 14.9124 101.043 19.0837Z" fill="#7370C8" stroke="black" stroke-width="0.5"/>
  <path d="M100.807 23.0155C75.7716 16.3071 56.5818 16.0738 50.1163 16.7956C56.8798 16.5899 76.4214 17.7902 100.48 24.2367C124.539 30.6833 141.045 39.1419 146.291 42.5654C141.561 38.8439 125.843 29.7238 100.807 23.0155Z" fill="#423B6B"/>
  <path d="M98.7531 27.6325C115.013 31.9892 129.336 37.383 139.35 42.5778C144.359 45.1762 148.278 47.7191 150.82 50.049C152.091 51.214 153.008 52.3167 153.548 53.3369C154.088 54.3558 154.243 55.2748 154.025 56.0912C153.806 56.9075 153.212 57.6256 152.235 58.2383C151.257 58.8517 149.912 59.3482 148.228 59.7215C144.862 60.4681 140.197 60.711 134.56 60.4569C123.29 59.9488 108.188 57.4579 91.9288 53.1013C75.6691 48.7445 61.3445 43.3506 51.3306 38.1557C46.3218 35.5573 42.4032 33.0144 39.8608 30.6845C38.5895 29.5195 37.6727 28.4168 37.1324 27.3966C36.593 26.3777 36.4375 25.4587 36.6562 24.6424C36.875 23.8261 37.4692 23.1079 38.4458 22.4953C39.4237 21.8818 40.7691 21.3853 42.4525 21.012C45.8193 20.2655 50.4843 20.0225 56.1213 20.2767C67.391 20.7847 82.4934 23.2757 98.7531 27.6325Z" fill="#2B2649" stroke="black" stroke-width="0.5"/>
  <path d="M98.3432 29.1588C113.929 33.335 127.675 38.4462 137.3 43.3298C142.114 45.7726 145.885 48.1526 148.339 50.3226C149.565 51.4077 150.452 52.4309 150.978 53.3733C151.503 54.3148 151.657 55.1555 151.459 55.8943C151.261 56.6332 150.707 57.2841 149.782 57.837C148.855 58.3904 147.576 58.8339 145.971 59.1603C142.761 59.8129 138.305 59.9883 132.914 59.6968C122.137 59.1139 107.677 56.6662 92.0916 52.4901C76.5058 48.3138 62.7592 43.2036 53.1348 38.32C48.3208 35.8773 44.5502 33.4973 42.0968 31.3274C40.8697 30.2421 39.9826 29.2182 39.4569 28.2755C38.9319 27.334 38.7778 26.4934 38.9758 25.7545C39.1738 25.0157 39.7275 24.3647 40.6529 23.8119C41.5795 23.2584 42.8596 22.8161 44.4648 22.4897C47.6746 21.8372 52.1298 21.6615 57.5203 21.953C68.2971 22.5358 82.7574 24.9826 98.3432 29.1588Z" fill="#1F1B35" stroke="black" stroke-width="0.5"/>
  <path d="M97.1168 33.7386C109.247 36.9889 119.971 40.8684 127.502 44.5109C131.269 46.333 134.225 48.091 136.159 49.6735C137.126 50.4653 137.826 51.2035 138.245 51.8744C138.664 52.5456 138.786 53.1213 138.655 53.6089C138.524 54.0965 138.131 54.5344 137.433 54.9061C136.735 55.2778 135.759 55.567 134.525 55.769C132.06 56.1727 128.621 56.2161 124.447 55.9105C116.104 55.2995 104.877 53.2983 92.7467 50.048C80.6164 46.7977 69.8921 42.9171 62.361 39.2746C58.5938 37.4524 55.6371 35.6953 53.7037 34.1129C52.7366 33.3213 52.0372 32.583 51.6183 31.9122C51.1992 31.241 51.0769 30.665 51.2075 30.1775C51.3382 29.6899 51.7321 29.2522 52.4306 28.8805C53.1288 28.509 54.1037 28.2193 55.337 28.0174C57.8026 27.6136 61.2419 27.5693 65.4155 27.8749C73.7589 28.4859 84.9865 30.4883 97.1168 33.7386Z" fill="#423B6B" stroke="black" stroke-width="0.5"/>
  <path d="M97.1168 33.7386C109.247 36.9889 119.971 40.8684 127.502 44.5109C131.269 46.333 134.225 48.091 136.159 49.6735C137.126 50.4653 137.826 51.2035 138.245 51.8744C138.664 52.5456 138.786 53.1213 138.655 53.6089C138.524 54.0965 138.131 54.5344 137.433 54.9061C136.735 55.2778 135.759 55.567 134.525 55.769C132.06 56.1727 128.621 56.2161 124.447 55.9105C116.104 55.2995 104.877 53.2983 92.7467 50.048C80.6164 46.7977 69.8921 42.9171 62.361 39.2746C58.5938 37.4524 55.6371 35.6953 53.7037 34.1129C52.7366 33.3213 52.0372 32.583 51.6183 31.9122C51.1992 31.241 51.0769 30.665 51.2075 30.1775C51.3382 29.6899 51.7321 29.2522 52.4306 28.8805C53.1288 28.509 54.1037 28.2193 55.337 28.0174C57.8026 27.6136 61.2419 27.5693 65.4155 27.8749C73.7589 28.4859 84.9865 30.4883 97.1168 33.7386Z" fill="#423B6B" stroke="black" stroke-width="0.5"/>
  <mask id="path-9-inside-2_31843_1291" fill="white">
  <path d="M95.8116 37.3848C112.842 41.9482 125.934 48.3135 125.053 51.6016C124.171 54.8893 109.651 53.8551 92.6211 49.2919C75.591 44.7287 62.4992 38.3643 63.3792 35.0761C64.2603 31.788 78.7809 32.8215 95.8116 37.3848ZM95.6478 37.9961C80.3035 33.8846 67.2233 32.9434 66.4327 35.8943C65.6421 38.8451 77.4404 44.5701 92.7846 48.6816C108.129 52.7931 121.209 53.7342 122 50.7834C122.79 47.8326 110.992 42.1076 95.6478 37.9961Z"/>
  </mask>
  <path d="M95.8116 37.3848C112.842 41.9482 125.934 48.3135 125.053 51.6016C124.171 54.8893 109.651 53.8551 92.6211 49.2919C75.591 44.7287 62.4992 38.3643 63.3792 35.0761C64.2603 31.788 78.7809 32.8215 95.8116 37.3848ZM95.6478 37.9961C80.3035 33.8846 67.2233 32.9434 66.4327 35.8943C65.6421 38.8451 77.4404 44.5701 92.7846 48.6816C108.129 52.7931 121.209 53.7342 122 50.7834C122.79 47.8326 110.992 42.1076 95.6478 37.9961Z" fill="#A5FFFD" fill-opacity="0.22"/>
  <path d="M95.8116 37.3848L95.941 36.9019L95.8116 37.3848ZM125.053 51.6016L125.536 51.7311L125.536 51.731L125.053 51.6016ZM92.6211 49.2919L92.4917 49.7749L92.6211 49.2919ZM63.3792 35.0761L62.8963 34.9467L62.8962 34.9468L63.3792 35.0761ZM95.6478 37.9961L95.7772 37.5131L95.7772 37.5131L95.6478 37.9961ZM66.4327 35.8943L65.9497 35.7648L65.9497 35.7649L66.4327 35.8943ZM92.7846 48.6816L92.6552 49.1646L92.6552 49.1646L92.7846 48.6816ZM122 50.7834L122.483 50.9129L122.483 50.9128L122 50.7834ZM95.8116 37.3848L95.6822 37.8678C104.176 40.1438 111.675 42.866 116.931 45.4211C119.562 46.7005 121.608 47.9267 122.933 49.0204C123.596 49.5683 124.056 50.0641 124.323 50.4963C124.589 50.9286 124.632 51.2433 124.57 51.4722L125.053 51.6016L125.536 51.731C125.695 51.1379 125.521 50.5344 125.174 49.9714C124.827 49.4083 124.275 48.8317 123.569 48.2492C122.155 47.0819 120.028 45.8151 117.368 44.5218C112.04 41.9313 104.477 39.1892 95.941 36.9019L95.8116 37.3848ZM125.053 51.6016L124.57 51.472C124.509 51.701 124.315 51.9523 123.868 52.1933C123.421 52.4343 122.775 52.6338 121.926 52.7763C120.231 53.0608 117.847 53.1 114.928 52.8921C109.1 52.477 101.244 51.0849 92.7505 48.809L92.6211 49.2919L92.4917 49.7749C101.028 52.0621 108.948 53.4687 114.857 53.8896C117.808 54.0997 120.283 54.0662 122.091 53.7625C122.994 53.611 123.76 53.3875 124.342 53.0736C124.924 52.7597 125.377 52.3242 125.536 51.7311L125.053 51.6016ZM92.6211 49.2919L92.7505 48.809C84.2566 46.533 76.7578 43.8111 71.5025 41.2562C68.871 39.9769 66.8255 38.7508 65.5004 37.6572C64.8365 37.1093 64.3767 36.6135 64.1101 36.1813C63.8434 35.749 63.801 35.4343 63.8622 35.2054L63.3792 35.0761L62.8962 34.9468C62.7375 35.5399 62.9117 36.1434 63.259 36.7064C63.6064 37.2694 64.158 37.846 64.8639 38.4285C66.2781 39.5956 68.405 40.8623 71.0652 42.1556C76.3933 44.7458 83.9555 47.4876 92.4917 49.7749L92.6211 49.2919ZM63.3792 35.0761L63.8622 35.2055C63.9235 34.9766 64.1175 34.7252 64.5646 34.4842C65.0115 34.2432 65.6576 34.0436 66.5064 33.901C68.2007 33.6164 70.5852 33.5772 73.5038 33.7849C79.3326 34.1998 87.188 35.5918 95.6822 37.8678L95.8116 37.3848L95.941 36.9019C87.4046 34.6145 79.4843 33.2081 73.5748 32.7874C70.6243 32.5774 68.149 32.6111 66.3407 32.9149C65.4382 33.0665 64.6722 33.29 64.0899 33.604C63.5077 33.918 63.0552 34.3536 62.8963 34.9467L63.3792 35.0761ZM95.6478 37.9961L95.7772 37.5131C88.084 35.4517 80.9456 34.1813 75.6185 33.7981C72.9591 33.6068 70.7252 33.6344 69.0912 33.9064C68.2759 34.0421 67.5802 34.2432 67.0492 34.5282C66.5184 34.813 66.0975 35.2132 65.9497 35.7648L66.4327 35.8943L66.9156 36.0237C66.9655 35.8376 67.1263 35.6217 67.5221 35.4093C67.9177 35.197 68.4935 35.0196 69.2554 34.8928C70.7757 34.6398 72.9192 34.6065 75.5467 34.7955C80.7935 35.173 87.8672 36.4289 95.5184 38.479L95.6478 37.9961ZM66.4327 35.8943L65.9497 35.7649C65.8019 36.3166 65.9664 36.8735 66.2836 37.3856C66.601 37.8979 67.1029 38.4199 67.7412 38.9451C69.0203 39.9976 70.9411 41.1385 73.3398 42.3025C78.1448 44.6342 84.9621 47.1032 92.6552 49.1646L92.7846 48.6816L92.914 48.1987C85.2629 46.1485 78.5089 43.6993 73.7764 41.4029C71.4063 40.2528 69.5667 39.1522 68.3766 38.1729C67.7802 37.6822 67.3702 37.2407 67.1337 36.859C66.8971 36.4771 66.8658 36.2097 66.9156 36.0236L66.4327 35.8943ZM92.7846 48.6816L92.6552 49.1646C100.348 51.226 107.487 52.4964 112.814 52.8796C115.473 53.0709 117.707 53.0432 119.341 52.7713C120.157 52.6356 120.852 52.4345 121.383 52.1495C121.914 51.8647 122.335 51.4645 122.483 50.9129L122 50.7834L121.517 50.654C121.467 50.84 121.306 51.056 120.91 51.2684C120.515 51.4807 119.939 51.6581 119.177 51.7849C117.657 52.0379 115.513 52.0712 112.886 51.8822C107.639 51.5047 100.565 50.2488 92.914 48.1987L92.7846 48.6816ZM122 50.7834L122.483 50.9128C122.631 50.3612 122.466 49.8042 122.149 49.2921C121.832 48.7798 121.33 48.2578 120.691 47.7326C119.412 46.6801 117.492 45.5391 115.093 44.3752C110.288 42.0435 103.47 39.5745 95.7772 37.5131L95.6478 37.9961L95.5184 38.479C103.17 40.5292 109.924 42.9784 114.656 45.2748C117.026 46.4249 118.866 47.5255 120.056 48.5048C120.652 48.9955 121.062 49.437 121.299 49.8187C121.535 50.2006 121.567 50.468 121.517 50.654L122 50.7834Z" fill="black" mask="url(#path-9-inside-2_31843_1291)"/>
  <mask id="path-11-inside-3_31843_1291" fill="white">
  <path d="M138.677 54.1622C138.68 54.3615 138.661 54.5553 138.611 54.7431C137.255 59.8015 116.472 58.6279 92.1909 52.1218C67.9099 45.6157 49.3255 36.2409 50.6804 31.1822C50.7307 30.9946 50.8092 30.8163 50.9121 30.6458C51.1166 35.4155 69.299 44.0246 92.6818 50.29C116.064 56.5552 136.114 58.1904 138.677 54.1622Z"/>
  </mask>
  <path d="M138.677 54.1622C138.68 54.3615 138.661 54.5553 138.611 54.7431C137.255 59.8015 116.472 58.6279 92.1909 52.1218C67.9099 45.6157 49.3255 36.2409 50.6804 31.1822C50.7307 30.9946 50.8092 30.8163 50.9121 30.6458C51.1166 35.4155 69.299 44.0246 92.6818 50.29C116.064 56.5552 136.114 58.1904 138.677 54.1622Z" fill="#1B1637"/>
  <path d="M138.677 54.1622L139.176 54.1524L139.144 52.4956L138.255 53.8938L138.677 54.1622ZM138.611 54.7431L139.094 54.8725L139.094 54.8725L138.611 54.7431ZM92.1909 52.1218L92.0615 52.6048L92.1909 52.1218ZM50.6804 31.1822L50.1975 31.0528L50.1975 31.0528L50.6804 31.1822ZM50.9121 30.6458L51.4117 30.6244L51.3407 28.9681L50.4841 30.3874L50.9121 30.6458ZM92.6818 50.29L92.5524 50.7729L92.6818 50.29ZM138.677 54.1622L138.177 54.172C138.18 54.3326 138.164 54.4787 138.128 54.6137L138.611 54.7431L139.094 54.8725C139.158 54.6319 139.181 54.3903 139.176 54.1524L138.677 54.1622ZM138.611 54.7431L138.128 54.6136C138.004 55.0775 137.645 55.5203 136.969 55.9189C136.291 56.3186 135.333 56.6479 134.103 56.892C131.644 57.3798 128.209 57.5061 124.026 57.2699C115.669 56.798 104.438 54.8858 92.3203 51.6389L92.1909 52.1218L92.0615 52.6048C104.225 55.864 115.526 57.7916 123.97 58.2684C128.187 58.5065 131.719 58.3844 134.298 57.8729C135.586 57.6173 136.664 57.2593 137.477 56.7804C138.291 56.3003 138.879 55.6732 139.094 54.8725L138.611 54.7431ZM92.1909 52.1218L92.3203 51.6389C80.2027 48.3919 69.5204 44.4325 62.0474 40.6628C58.3071 38.7761 55.395 36.9488 53.5098 35.2971C52.5664 34.4706 51.902 33.7067 51.5144 33.0214C51.128 32.338 51.0392 31.7755 51.1634 31.3116L50.6804 31.1822L50.1975 31.0528C49.983 31.8536 50.1785 32.6906 50.644 33.5136C51.1082 34.3346 51.8631 35.1839 52.8508 36.0493C54.8279 37.7815 57.8254 39.6531 61.597 41.5556C69.1477 45.3645 79.8982 49.3456 92.0615 52.6048L92.1909 52.1218ZM50.6804 31.1822L51.1634 31.3116C51.2003 31.1738 51.259 31.0387 51.3402 30.9041L50.9121 30.6458L50.4841 30.3874C50.3594 30.594 50.2611 30.8153 50.1975 31.0528L50.6804 31.1822ZM50.9121 30.6458L50.4126 30.6672C50.4446 31.4144 50.8225 32.1714 51.4159 32.9143C52.0142 33.6634 52.8684 34.4442 53.9365 35.2462C56.0737 36.8508 59.1305 38.5866 62.8919 40.3593C70.4196 43.9068 80.8404 47.6347 92.5524 50.7729L92.6818 50.29L92.8112 49.807C81.1404 46.6798 70.7786 42.9705 63.3182 39.4547C59.5857 37.6957 56.5971 35.9933 54.5369 34.4465C53.5063 33.6727 52.7237 32.9494 52.1972 32.2903C51.6658 31.625 51.4308 31.0695 51.4117 30.6244L50.9121 30.6458ZM92.6818 50.29L92.5524 50.7729C104.264 53.9111 115.152 55.8929 123.445 56.5844C127.589 56.93 131.104 56.9551 133.757 56.634C135.083 56.4735 136.213 56.2244 137.106 55.8749C137.991 55.5282 138.697 55.0616 139.098 54.4305L138.677 54.1622L138.255 53.8938C138.015 54.2698 137.534 54.6333 136.741 54.9437C135.956 55.2513 134.916 55.4864 133.637 55.6412C131.079 55.9507 127.64 55.9308 123.528 55.5879C115.31 54.9025 104.482 52.9341 92.8112 49.807L92.6818 50.29Z" fill="black" mask="url(#path-11-inside-3_31843_1291)"/>
  <path d="M94.8143 42.9391C98.8087 44.0094 102.337 45.2839 104.81 46.4757C106.048 47.0726 107.011 47.6432 107.635 48.1506C107.947 48.4048 108.162 48.6338 108.287 48.832C108.412 49.0306 108.43 49.1699 108.404 49.2668C108.378 49.3637 108.293 49.4753 108.086 49.5847C107.878 49.694 107.577 49.7846 107.18 49.8486C106.386 49.9761 105.267 49.989 103.896 49.8866C101.158 49.6822 97.4656 49.022 93.4712 47.9517C89.4771 46.8815 85.9498 45.6071 83.4766 44.4153C82.2381 43.8185 81.2754 43.2478 80.6517 42.7404C80.3392 42.4861 80.1231 42.257 79.9983 42.0588C79.8734 41.8603 79.8562 41.7211 79.8822 41.6243C79.9081 41.5274 79.9926 41.4154 80.2 41.306C80.4072 41.1968 80.7089 41.1064 81.1067 41.0425C81.9005 40.9149 83.0196 40.902 84.3906 41.0044C87.1283 41.2089 90.8202 41.8689 94.8143 42.9391Z" fill="#E5FFFE" stroke="black" stroke-width="0.5"/>
  <mask id="path-14-inside-4_31843_1291" fill="white">
  <path d="M108.446 48.6233C108.63 48.8837 108.702 49.1204 108.645 49.3309C108.239 50.8485 101.416 50.339 93.407 48.1929C85.3975 46.0468 79.2345 43.0769 79.6412 41.5593C79.6977 41.3488 79.8785 41.1798 80.1679 41.0463C81.3092 42.6627 86.8357 45.1239 93.734 46.9723C100.632 48.8206 106.648 49.4521 108.446 48.6233Z"/>
  </mask>
  <path d="M108.446 48.6233C108.63 48.8837 108.702 49.1204 108.645 49.3309C108.239 50.8485 101.416 50.339 93.407 48.1929C85.3975 46.0468 79.2345 43.0769 79.6412 41.5593C79.6977 41.3488 79.8785 41.1798 80.1679 41.0463C81.3092 42.6627 86.8357 45.1239 93.734 46.9723C100.632 48.8206 106.648 49.4521 108.446 48.6233Z" fill="#A5FFFD"/>
  <path d="M108.446 48.6233L108.854 48.3348L108.614 47.9951L108.236 48.1693L108.446 48.6233ZM108.645 49.3309L109.128 49.4603L109.128 49.4601L108.645 49.3309ZM93.407 48.1929L93.2776 48.6759L93.407 48.1929ZM79.6412 41.5593L79.1583 41.4296L79.1582 41.4299L79.6412 41.5593ZM80.1679 41.0463L80.5763 40.7579L80.3363 40.418L79.9584 40.5923L80.1679 41.0463ZM93.734 46.9723L93.6046 47.4552L93.6046 47.4552L93.734 46.9723ZM108.446 48.6233L108.037 48.9118C108.184 49.1197 108.163 49.1998 108.162 49.2018L108.645 49.3309L109.128 49.4601C109.24 49.041 109.075 48.6476 108.854 48.3348L108.446 48.6233ZM108.645 49.3309L108.162 49.2015C108.161 49.2056 108.143 49.2717 107.969 49.3635C107.796 49.4549 107.524 49.5397 107.14 49.6015C106.374 49.7246 105.278 49.739 103.914 49.6372C101.196 49.4342 97.5204 48.7775 93.5364 47.7099L93.407 48.1929L93.2776 48.6759C97.303 49.7545 101.043 50.4255 103.84 50.6344C105.234 50.7386 106.42 50.73 107.298 50.5888C107.736 50.5185 108.127 50.4109 108.436 50.2481C108.744 50.0856 109.028 49.8356 109.128 49.4603L108.645 49.3309ZM93.407 48.1929L93.5364 47.7099C89.5524 46.6424 86.0404 45.3732 83.5851 44.19C82.3537 43.5965 81.4113 43.0358 80.8097 42.5464C80.5076 42.3005 80.3149 42.0914 80.2105 41.9256C80.1056 41.759 80.123 41.6928 80.1241 41.6887L79.6412 41.5593L79.1582 41.4299C79.0576 41.8052 79.1787 42.1637 79.3643 42.4585C79.5503 42.7539 79.8351 43.0425 80.1786 43.3221C80.8686 43.8834 81.8913 44.4838 83.151 45.0908C85.6779 46.3085 89.2522 47.5973 93.2776 48.6759L93.407 48.1929ZM79.6412 41.5593L80.124 41.6889C80.1246 41.687 80.1462 41.6069 80.3773 41.5003L80.1679 41.0463L79.9584 40.5923C79.6107 40.7526 79.2708 41.0106 79.1583 41.4296L79.6412 41.5593ZM80.1679 41.0463L79.7594 41.3347C80.1052 41.8244 80.7366 42.3245 81.5358 42.8193C82.3484 43.3225 83.3843 43.85 84.591 44.38C87.0053 45.4406 90.1363 46.5259 93.6046 47.4552L93.734 46.9723L93.8635 46.4893C90.4335 45.5703 87.352 44.5007 84.9932 43.4645C83.8132 42.9461 82.8223 42.4398 82.0622 41.9691C81.2885 41.49 80.8012 41.0764 80.5763 40.7579L80.1679 41.0463ZM93.734 46.9723L93.6046 47.4552C97.0728 48.3845 100.327 49.0101 102.948 49.2987C104.258 49.443 105.419 49.5041 106.374 49.4747C107.314 49.4458 108.111 49.3284 108.655 49.0774L108.446 48.6233L108.236 48.1693C107.882 48.3326 107.253 48.4472 106.343 48.4752C105.45 48.5027 104.338 48.4458 103.057 48.3047C100.496 48.0227 97.2932 47.4083 93.8635 46.4893L93.734 46.9723Z" fill="black" mask="url(#path-14-inside-4_31843_1291)"/>
  <mask id="path-16-inside-5_31843_1291" fill="white">
  <ellipse cx="44.6575" cy="26.7867" rx="0.948256" ry="0.474128" transform="rotate(15 44.6575 26.7867)"/>
  </mask>
  <ellipse cx="44.6575" cy="26.7867" rx="0.948256" ry="0.474128" transform="rotate(15 44.6575 26.7867)" fill="#D9D9D9"/>
  <path d="M45.5734 27.0321L45.0905 26.9027C45.1107 26.8274 45.1554 26.7895 45.1685 26.7803C45.1782 26.7736 45.1665 26.7843 45.1181 26.7942C45.0212 26.814 44.8584 26.8137 44.6642 26.7617L44.5348 27.2446L44.4054 27.7276C44.717 27.8111 45.0397 27.831 45.3186 27.7739C45.5648 27.7235 45.9471 27.5694 46.0564 27.1615L45.5734 27.0321ZM44.5348 27.2446L44.6642 26.7617C44.47 26.7096 44.3288 26.6285 44.2548 26.5628C44.2179 26.5301 44.213 26.515 44.2181 26.5257C44.2249 26.5402 44.2447 26.5953 44.2245 26.6706L43.7415 26.5412L43.2586 26.4118C43.1493 26.8198 43.4033 27.1443 43.5913 27.311C43.8043 27.4999 44.0937 27.6441 44.4054 27.7276L44.5348 27.2446ZM43.7415 26.5412L44.2245 26.6706C44.2043 26.7459 44.1596 26.7838 44.1464 26.793C44.1368 26.7997 44.1485 26.789 44.1968 26.7791C44.2938 26.7593 44.4566 26.7596 44.6508 26.8116L44.7802 26.3287L44.9096 25.8457C44.598 25.7622 44.2753 25.7423 43.9963 25.7994C43.7502 25.8498 43.3679 26.0039 43.2586 26.4118L43.7415 26.5412ZM44.7802 26.3287L44.6508 26.8116C44.845 26.8637 44.9861 26.9448 45.0602 27.0105C45.0971 27.0432 45.1019 27.0583 45.0969 27.0476C45.0901 27.0331 45.0703 26.978 45.0905 26.9027L45.5734 27.0321L46.0564 27.1615C46.1657 26.7535 45.9117 26.429 45.7237 26.2623C45.5106 26.0734 45.2213 25.9292 44.9096 25.8457L44.7802 26.3287Z" fill="black" mask="url(#path-16-inside-5_31843_1291)"/>
  <mask id="path-18-inside-6_31843_1291" fill="white">
  <ellipse cx="60.1145" cy="24.0564" rx="0.948256" ry="0.474128" transform="rotate(15 60.1145 24.0564)"/>
  </mask>
  <ellipse cx="60.1145" cy="24.0564" rx="0.948256" ry="0.474128" transform="rotate(15 60.1145 24.0564)" fill="#D9D9D9"/>
  <path d="M61.0305 24.3019L60.5475 24.1724C60.5677 24.0971 60.6124 24.0593 60.6256 24.0501C60.6353 24.0434 60.6235 24.0541 60.5752 24.064C60.4782 24.0838 60.3154 24.0835 60.1212 24.0314L59.9918 24.5144L59.8624 24.9974C60.174 25.0809 60.4967 25.1007 60.7757 25.0437C61.0218 24.9933 61.4041 24.8392 61.5134 24.4313L61.0305 24.3019ZM59.9918 24.5144L60.1212 24.0314C59.927 23.9794 59.7859 23.8983 59.7118 23.8326C59.6749 23.7999 59.6701 23.7848 59.6751 23.7954C59.6819 23.8099 59.7017 23.8651 59.6815 23.9404L59.1986 23.811L58.7156 23.6816C58.6063 24.0895 58.8603 24.4141 59.0483 24.5808C59.2614 24.7697 59.5507 24.9139 59.8624 24.9974L59.9918 24.5144ZM59.1986 23.811L59.6815 23.9404C59.6614 24.0157 59.6166 24.0536 59.6035 24.0627C59.5938 24.0695 59.6055 24.0588 59.6539 24.0489C59.7508 24.0291 59.9136 24.0294 60.1078 24.0814L60.2372 23.5985L60.3666 23.1155C60.055 23.032 59.7323 23.0121 59.4534 23.0692C59.2072 23.1196 58.8249 23.2736 58.7156 23.6816L59.1986 23.811ZM60.2372 23.5985L60.1078 24.0814C60.302 24.1335 60.4432 24.2146 60.5172 24.2802C60.5541 24.313 60.559 24.3281 60.5539 24.3174C60.5471 24.3029 60.5273 24.2478 60.5475 24.1724L61.0305 24.3019L61.5134 24.4313C61.6227 24.0233 61.3687 23.6988 61.1807 23.532C60.9677 23.3431 60.6783 23.199 60.3666 23.1155L60.2372 23.5985Z" fill="black" mask="url(#path-18-inside-6_31843_1291)"/>
  <mask id="path-20-inside-7_31843_1291" fill="white">
  <ellipse cx="85.2766" cy="27.8531" rx="0.948256" ry="0.474128" transform="rotate(15 85.2766 27.8531)"/>
  </mask>
  <ellipse cx="85.2766" cy="27.8531" rx="0.948256" ry="0.474128" transform="rotate(15 85.2766 27.8531)" fill="#D9D9D9"/>
  <path d="M86.1926 28.0985L85.7096 27.9691C85.7298 27.8938 85.7745 27.8559 85.7877 27.8467C85.7974 27.84 85.7856 27.8507 85.7373 27.8606C85.6403 27.8804 85.4775 27.8801 85.2833 27.8281L85.1539 28.311L85.0245 28.794C85.3362 28.8775 85.6588 28.8974 85.9378 28.8403C86.1839 28.7899 86.5662 28.6358 86.6755 28.2279L86.1926 28.0985ZM85.1539 28.311L85.2833 27.8281C85.0891 27.776 84.948 27.6949 84.8739 27.6292C84.837 27.5965 84.8322 27.5814 84.8372 27.5921C84.844 27.6066 84.8638 27.6617 84.8436 27.737L84.3607 27.6076L83.8777 27.4782C83.7684 27.8862 84.0224 28.2107 84.2105 28.3775C84.4235 28.5664 84.7129 28.7105 85.0245 28.794L85.1539 28.311ZM84.3607 27.6076L84.8436 27.737C84.8235 27.8123 84.7788 27.8502 84.7656 27.8594C84.7559 27.8661 84.7676 27.8554 84.816 27.8455C84.913 27.8257 85.0757 27.826 85.2699 27.878L85.3993 27.3951L85.5288 26.9121C85.2171 26.8286 84.8944 26.8087 84.6155 26.8658C84.3693 26.9162 83.987 27.0703 83.8777 27.4782L84.3607 27.6076ZM85.3993 27.3951L85.2699 27.878C85.4641 27.9301 85.6053 28.0112 85.6793 28.0769C85.7163 28.1096 85.7211 28.1247 85.7161 28.1141C85.7092 28.0995 85.6894 28.0444 85.7096 27.9691L86.1926 28.0985L86.6755 28.2279C86.7848 27.8199 86.5308 27.4954 86.3428 27.3287C86.1298 27.1398 85.8404 26.9956 85.5288 26.9121L85.3993 27.3951Z" fill="black" mask="url(#path-20-inside-7_31843_1291)"/>
  <mask id="path-22-inside-8_31843_1291" fill="white">
  <ellipse cx="108.48" cy="34.0711" rx="0.948256" ry="0.474128" transform="rotate(15 108.48 34.0711)"/>
  </mask>
  <ellipse cx="108.48" cy="34.0711" rx="0.948256" ry="0.474128" transform="rotate(15 108.48 34.0711)" fill="#D9D9D9"/>
  <path d="M109.396 34.3165L108.913 34.1871C108.933 34.1118 108.978 34.0739 108.991 34.0648C109 34.058 108.989 34.0687 108.94 34.0786C108.843 34.0985 108.681 34.0981 108.486 34.0461L108.357 34.529L108.228 35.012C108.539 35.0955 108.862 35.1154 109.141 35.0583C109.387 35.0079 109.769 34.8539 109.879 34.4459L109.396 34.3165ZM108.357 34.529L108.486 34.0461C108.292 33.994 108.151 33.9129 108.077 33.8473C108.04 33.8145 108.035 33.7994 108.04 33.8101C108.047 33.8246 108.067 33.8797 108.047 33.9551L107.564 33.8256L107.081 33.6962C106.972 34.1042 107.226 34.4288 107.414 34.5955C107.627 34.7844 107.916 34.9285 108.228 35.012L108.357 34.529ZM107.564 33.8256L108.047 33.9551C108.027 34.0304 107.982 34.0682 107.969 34.0774C107.959 34.0841 107.971 34.0734 108.019 34.0635C108.116 34.0437 108.279 34.044 108.473 34.0961L108.602 33.6131L108.732 33.1301C108.42 33.0466 108.098 33.0268 107.819 33.0838C107.572 33.1342 107.19 33.2883 107.081 33.6962L107.564 33.8256ZM108.602 33.6131L108.473 34.0961C108.667 34.1481 108.808 34.2292 108.882 34.2949C108.919 34.3276 108.924 34.3427 108.919 34.3321C108.912 34.3176 108.893 34.2624 108.913 34.1871L109.396 34.3165L109.879 34.4459C109.988 34.038 109.734 33.7134 109.546 33.5467C109.333 33.3578 109.044 33.2136 108.732 33.1301L108.602 33.6131Z" fill="black" mask="url(#path-22-inside-8_31843_1291)"/>
  <mask id="path-24-inside-9_31843_1291" fill="white">
  <ellipse cx="130.419" cy="42.5669" rx="0.948256" ry="0.474128" transform="rotate(15 130.419 42.5669)"/>
  </mask>
  <ellipse cx="130.419" cy="42.5669" rx="0.948256" ry="0.474128" transform="rotate(15 130.419 42.5669)" fill="#D9D9D9"/>
  <path d="M131.335 42.8124L130.852 42.6829C130.872 42.6076 130.917 42.5698 130.93 42.5606C130.94 42.5539 130.928 42.5646 130.88 42.5745C130.783 42.5943 130.62 42.594 130.426 42.5419L130.296 43.0249L130.167 43.5079C130.479 43.5914 130.801 43.6112 131.08 43.5542C131.327 43.5038 131.709 43.3497 131.818 42.9418L131.335 42.8124ZM130.296 43.0249L130.426 42.5419C130.232 42.4899 130.091 42.4088 130.017 42.3431C129.98 42.3104 129.975 42.2953 129.98 42.3059C129.987 42.3204 130.006 42.3756 129.986 42.4509L129.503 42.3215L129.02 42.1921C128.911 42.6 129.165 42.9246 129.353 43.0913C129.566 43.2802 129.855 43.4244 130.167 43.5079L130.296 43.0249ZM129.503 42.3215L129.986 42.4509C129.966 42.5262 129.921 42.5641 129.908 42.5732C129.898 42.58 129.91 42.5693 129.959 42.5594C130.056 42.5395 130.218 42.5399 130.413 42.5919L130.542 42.109L130.671 41.626C130.36 41.5425 130.037 41.5226 129.758 41.5797C129.512 41.6301 129.13 41.7841 129.02 42.1921L129.503 42.3215ZM130.542 42.109L130.413 42.5919C130.607 42.644 130.748 42.7251 130.822 42.7907C130.859 42.8235 130.864 42.8386 130.859 42.8279C130.852 42.8134 130.832 42.7583 130.852 42.6829L131.335 42.8124L131.818 42.9418C131.927 42.5338 131.673 42.2092 131.485 42.0425C131.272 41.8536 130.983 41.7095 130.671 41.626L130.542 42.109Z" fill="black" mask="url(#path-24-inside-9_31843_1291)"/>
  <mask id="path-26-inside-10_31843_1291" fill="white">
  <ellipse cx="144.072" cy="51.4605" rx="0.948256" ry="0.474128" transform="rotate(15 144.072 51.4605)"/>
  </mask>
  <ellipse cx="144.072" cy="51.4605" rx="0.948256" ry="0.474128" transform="rotate(15 144.072 51.4605)" fill="#D9D9D9"/>
  <path d="M144.987 51.7059L144.505 51.5765C144.525 51.5012 144.569 51.4633 144.583 51.4542C144.592 51.4474 144.581 51.4581 144.532 51.468C144.435 51.4879 144.272 51.4875 144.078 51.4355L143.949 51.9185L143.819 52.4014C144.131 52.4849 144.454 52.5048 144.733 52.4477C144.979 52.3973 145.361 52.2433 145.47 51.8353L144.987 51.7059ZM143.949 51.9185L144.078 51.4355C143.884 51.3835 143.743 51.3023 143.669 51.2367C143.632 51.2039 143.627 51.1888 143.632 51.1995C143.639 51.214 143.659 51.2692 143.639 51.3445L143.156 51.2151L142.673 51.0856C142.563 51.4936 142.817 51.8182 143.005 51.9849C143.218 52.1738 143.508 52.3179 143.819 52.4014L143.949 51.9185ZM143.156 51.2151L143.639 51.3445C143.618 51.4198 143.574 51.4576 143.561 51.4668C143.551 51.4735 143.563 51.4628 143.611 51.4529C143.708 51.4331 143.871 51.4334 144.065 51.4855L144.194 51.0025L144.324 50.5195C144.012 50.436 143.689 50.4162 143.41 50.4733C143.164 50.5236 142.782 50.6777 142.673 51.0856L143.156 51.2151ZM144.194 51.0025L144.065 51.4855C144.259 51.5375 144.4 51.6186 144.474 51.6843C144.511 51.717 144.516 51.7321 144.511 51.7215C144.504 51.707 144.484 51.6518 144.505 51.5765L144.987 51.7059L145.47 51.8353C145.58 51.4274 145.326 51.1028 145.138 50.9361C144.925 50.7472 144.635 50.6031 144.324 50.5195L144.194 51.0025Z" fill="black" mask="url(#path-26-inside-10_31843_1291)"/>
  <path opacity="0.3" d="M3.27915 154.782L80.2218 41.2244C80.2218 41.2244 83.237 39.7417 94.9153 42.8709C106.594 46.0001 108.463 48.7917 108.463 48.7917L95.3066 160.271C89.4479 164.428 77.7371 169.959 48.8084 169.959C24.7859 169.959 3.27898 160.272 3.27915 154.782Z" fill="url(#paint0_linear_31843_1291)"/>
  <path d="M23.962 125.342L23.318 125.384V115.5H24.592V126H22.898L14.904 116.116L15.548 116.074V126H14.274V115.5H15.982L23.962 125.342ZM31.0059 126.182C30.0819 126.182 29.2652 126.009 28.5559 125.664C27.8559 125.319 27.3099 124.833 26.9179 124.208C26.5259 123.583 26.3299 122.864 26.3299 122.052C26.3299 121.231 26.5259 120.512 26.9179 119.896C27.3099 119.28 27.8559 118.799 28.5559 118.454C29.2652 118.109 30.0819 117.936 31.0059 117.936C31.9392 117.936 32.7559 118.109 33.4559 118.454C34.1559 118.799 34.7019 119.28 35.0939 119.896C35.4952 120.512 35.6959 121.231 35.6959 122.052C35.6959 122.864 35.4952 123.583 35.0939 124.208C34.7019 124.833 34.1559 125.319 33.4559 125.664C32.7559 126.009 31.9392 126.182 31.0059 126.182ZM31.0059 125.104C31.6965 125.104 32.2939 124.983 32.7979 124.74C33.3019 124.488 33.6892 124.133 33.9599 123.676C34.2399 123.219 34.3799 122.677 34.3799 122.052C34.3799 121.436 34.2399 120.899 33.9599 120.442C33.6892 119.985 33.3019 119.63 32.7979 119.378C32.2939 119.126 31.6965 119 31.0059 119C30.3245 119 29.7272 119.126 29.2139 119.378C28.7099 119.63 28.3225 119.985 28.0519 120.442C27.7812 120.899 27.6459 121.436 27.6459 122.052C27.6459 122.677 27.7812 123.219 28.0519 123.676C28.3225 124.133 28.7099 124.488 29.2139 124.74C29.7272 124.983 30.3245 125.104 31.0059 125.104ZM40.811 118.118H42.099L42.547 120.806V126H41.259V120.568L40.811 118.118ZM46.733 118.09V119.252C46.5557 119.196 46.3457 119.154 46.103 119.126C45.8697 119.098 45.6457 119.084 45.431 119.084C44.871 119.084 44.3717 119.21 43.933 119.462C43.4943 119.714 43.1537 120.083 42.911 120.568C42.6683 121.044 42.547 121.609 42.547 122.262L42.183 121.758C42.2017 121.207 42.2903 120.699 42.449 120.232C42.6077 119.765 42.8317 119.364 43.121 119.028C43.4197 118.683 43.7743 118.417 44.185 118.23C44.605 118.034 45.0763 117.936 45.599 117.936C45.795 117.936 45.9957 117.95 46.201 117.978C46.4157 118.006 46.593 118.043 46.733 118.09ZM51.6768 126.182C50.7714 126.182 49.9688 126.009 49.2688 125.664C48.5781 125.309 48.0321 124.824 47.6308 124.208C47.2388 123.583 47.0428 122.864 47.0428 122.052C47.0428 121.231 47.2294 120.512 47.6028 119.896C47.9761 119.28 48.4941 118.799 49.1568 118.454C49.8194 118.109 50.5801 117.936 51.4388 117.936C52.2881 117.936 53.0301 118.123 53.6647 118.496C54.2994 118.869 54.7894 119.397 55.1348 120.078C55.4894 120.75 55.6668 121.534 55.6668 122.43H48.0228V121.408H55.1208L54.3648 121.87C54.3368 121.282 54.1968 120.773 53.9448 120.344C53.6928 119.915 53.3521 119.583 52.9228 119.35C52.4934 119.117 51.9941 119 51.4248 119C50.8088 119 50.2721 119.126 49.8148 119.378C49.3574 119.621 48.9981 119.966 48.7368 120.414C48.4848 120.862 48.3588 121.389 48.3588 121.996C48.3588 122.631 48.5034 123.181 48.7928 123.648C49.0821 124.115 49.4881 124.474 50.0108 124.726C50.5334 124.978 51.1494 125.104 51.8588 125.104C52.5028 125.104 53.1328 124.997 53.7488 124.782C54.3741 124.567 54.9341 124.273 55.4288 123.9V124.908C54.9434 125.3 54.3648 125.613 53.6928 125.846C53.0208 126.07 52.3488 126.182 51.6768 126.182ZM64.9528 123.69C64.9528 124.194 64.7988 124.633 64.4908 125.006C64.1921 125.379 63.7488 125.669 63.1608 125.874C62.5821 126.079 61.8775 126.182 61.0468 126.182C60.1975 126.182 59.4461 126.065 58.7928 125.832C58.1488 125.589 57.6448 125.253 57.2808 124.824C56.9168 124.395 56.7208 123.895 56.6928 123.326H58.0088C58.0648 123.69 58.2281 124.012 58.4988 124.292C58.7695 124.563 59.1241 124.773 59.5628 124.922C60.0015 125.071 60.5008 125.146 61.0608 125.146C61.8728 125.146 62.5075 125.025 62.9648 124.782C63.4315 124.53 63.6648 124.189 63.6648 123.76C63.6648 123.424 63.5155 123.177 63.2168 123.018C62.9181 122.85 62.3628 122.724 61.5508 122.64L60.0248 122.486C59.2688 122.411 58.6621 122.276 58.2048 122.08C57.7568 121.875 57.4348 121.623 57.2388 121.324C57.0428 121.016 56.9448 120.675 56.9448 120.302C56.9448 119.789 57.0988 119.359 57.4068 119.014C57.7241 118.659 58.1628 118.393 58.7228 118.216C59.2828 118.029 59.9315 117.936 60.6688 117.936C61.4528 117.936 62.1481 118.048 62.7548 118.272C63.3708 118.496 63.8608 118.809 64.2248 119.21C64.5888 119.611 64.7895 120.073 64.8268 120.596H63.5248C63.4781 120.297 63.3381 120.027 63.1048 119.784C62.8715 119.532 62.5448 119.331 62.1248 119.182C61.7141 119.033 61.2055 118.958 60.5988 118.958C59.8521 118.958 59.2688 119.065 58.8488 119.28C58.4381 119.495 58.2328 119.807 58.2328 120.218C58.2328 120.517 58.3681 120.755 58.6388 120.932C58.9095 121.109 59.3901 121.235 60.0808 121.31L61.8168 121.492C62.6101 121.567 63.2355 121.697 63.6928 121.884C64.1501 122.071 64.4721 122.313 64.6588 122.612C64.8548 122.911 64.9528 123.27 64.9528 123.69ZM69.8257 126.182C69.107 126.182 68.4957 126.037 67.9917 125.748C67.497 125.449 67.1143 125.02 66.8437 124.46C66.5823 123.9 66.4517 123.228 66.4517 122.444V118.118H67.7397V122.234C67.7397 123.167 67.9497 123.877 68.3697 124.362C68.7897 124.838 69.401 125.076 70.2037 125.076C70.773 125.076 71.2677 124.95 71.6877 124.698C72.1077 124.437 72.4343 124.073 72.6677 123.606C72.901 123.139 73.0177 122.598 73.0177 121.982L73.5217 122.276C73.4657 123.069 73.2697 123.76 72.9337 124.348C72.607 124.936 72.1777 125.389 71.6457 125.706C71.1137 126.023 70.507 126.182 69.8257 126.182ZM73.4517 126L73.0177 123.312V118.118H74.3057V123.508L74.7397 126H73.4517ZM76.4758 115.22H77.7638V126H76.4758V115.22ZM78.8587 119.154V118.538L80.5947 118.216L81.1127 116.074H81.8827V118.118H85.7187V119.154H81.8827V123.158C81.8827 123.867 82.0367 124.367 82.3447 124.656C82.6621 124.936 83.1474 125.076 83.8007 125.076C84.2301 125.076 84.6034 125.025 84.9207 124.922C85.2474 124.819 85.5647 124.67 85.8727 124.474V125.608C85.6487 125.748 85.3174 125.879 84.8787 126C84.4494 126.121 84.0014 126.182 83.5347 126.182C82.8254 126.182 82.2514 126.061 81.8127 125.818C81.3834 125.566 81.0707 125.23 80.8747 124.81C80.6881 124.381 80.5947 123.895 80.5947 123.354V119.154H78.8587ZM94.9079 123.69C94.9079 124.194 94.7539 124.633 94.4459 125.006C94.1472 125.379 93.7039 125.669 93.1159 125.874C92.5372 126.079 91.8325 126.182 91.0019 126.182C90.1525 126.182 89.4012 126.065 88.7479 125.832C88.1039 125.589 87.5999 125.253 87.2359 124.824C86.8719 124.395 86.6759 123.895 86.6479 123.326H87.9639C88.0199 123.69 88.1832 124.012 88.4539 124.292C88.7245 124.563 89.0792 124.773 89.5179 124.922C89.9565 125.071 90.4559 125.146 91.0159 125.146C91.8279 125.146 92.4625 125.025 92.9199 124.782C93.3865 124.53 93.6199 124.189 93.6199 123.76C93.6199 123.424 93.4705 123.177 93.1719 123.018C92.8732 122.85 92.3179 122.724 91.5059 122.64L89.9799 122.486C89.2239 122.411 88.6172 122.276 88.1599 122.08C87.7119 121.875 87.3899 121.623 87.1939 121.324C86.9979 121.016 86.8999 120.675 86.8999 120.302C86.8999 119.789 87.0539 119.359 87.3619 119.014C87.6792 118.659 88.1179 118.393 88.6779 118.216C89.2379 118.029 89.8865 117.936 90.6239 117.936C91.4079 117.936 92.1032 118.048 92.7099 118.272C93.3259 118.496 93.8159 118.809 94.1799 119.21C94.5439 119.611 94.7445 120.073 94.7819 120.596H93.4799C93.4332 120.297 93.2932 120.027 93.0599 119.784C92.8265 119.532 92.4999 119.331 92.0799 119.182C91.6692 119.033 91.1605 118.958 90.5539 118.958C89.8072 118.958 89.2239 119.065 88.8039 119.28C88.3932 119.495 88.1879 119.807 88.1879 120.218C88.1879 120.517 88.3232 120.755 88.5939 120.932C88.8645 121.109 89.3452 121.235 90.0359 121.31L91.7719 121.492C92.5652 121.567 93.1905 121.697 93.6479 121.884C94.1052 122.071 94.4272 122.313 94.6139 122.612C94.8099 122.911 94.9079 123.27 94.9079 123.69ZM104.633 116.088C103.924 116.088 103.382 116.251 103.009 116.578C102.636 116.895 102.449 117.427 102.449 118.174V126H101.161V118.356C101.161 117.721 101.273 117.157 101.497 116.662C101.721 116.158 102.076 115.761 102.561 115.472C103.056 115.183 103.7 115.038 104.493 115.038C104.885 115.038 105.23 115.075 105.529 115.15C105.837 115.215 106.126 115.299 106.397 115.402V116.48C106.126 116.34 105.846 116.242 105.557 116.186C105.268 116.121 104.96 116.088 104.633 116.088ZM99.4248 119.644V118.594H106.257V119.644H99.4248ZM111.178 126.182C110.254 126.182 109.437 126.009 108.728 125.664C108.028 125.319 107.482 124.833 107.09 124.208C106.698 123.583 106.502 122.864 106.502 122.052C106.502 121.231 106.698 120.512 107.09 119.896C107.482 119.28 108.028 118.799 108.728 118.454C109.437 118.109 110.254 117.936 111.178 117.936C112.111 117.936 112.928 118.109 113.628 118.454C114.328 118.799 114.874 119.28 115.266 119.896C115.667 120.512 115.868 121.231 115.868 122.052C115.868 122.864 115.667 123.583 115.266 124.208C114.874 124.833 114.328 125.319 113.628 125.664C112.928 126.009 112.111 126.182 111.178 126.182ZM111.178 125.104C111.868 125.104 112.466 124.983 112.97 124.74C113.474 124.488 113.861 124.133 114.132 123.676C114.412 123.219 114.552 122.677 114.552 122.052C114.552 121.436 114.412 120.899 114.132 120.442C113.861 119.985 113.474 119.63 112.97 119.378C112.466 119.126 111.868 119 111.178 119C110.496 119 109.899 119.126 109.386 119.378C108.882 119.63 108.494 119.985 108.224 120.442C107.953 120.899 107.818 121.436 107.818 122.052C107.818 122.677 107.953 123.219 108.224 123.676C108.494 124.133 108.882 124.488 109.386 124.74C109.899 124.983 110.496 125.104 111.178 125.104ZM120.74 126.182C120.021 126.182 119.41 126.037 118.906 125.748C118.411 125.449 118.028 125.02 117.758 124.46C117.496 123.9 117.366 123.228 117.366 122.444V118.118H118.654V122.234C118.654 123.167 118.864 123.877 119.284 124.362C119.704 124.838 120.315 125.076 121.118 125.076C121.687 125.076 122.182 124.95 122.602 124.698C123.022 124.437 123.348 124.073 123.582 123.606C123.815 123.139 123.932 122.598 123.932 121.982L124.436 122.276C124.38 123.069 124.184 123.76 123.848 124.348C123.521 124.936 123.092 125.389 122.56 125.706C122.028 126.023 121.421 126.182 120.74 126.182ZM124.366 126L123.932 123.312V118.118H125.22V123.508L125.654 126H124.366ZM127.026 118.118H128.314L128.762 120.792V126H127.474V120.61L127.026 118.118ZM132.024 117.936C132.761 117.936 133.387 118.085 133.9 118.384C134.413 118.673 134.805 119.098 135.076 119.658C135.347 120.209 135.482 120.876 135.482 121.66V126H134.194V121.884C134.194 120.941 133.975 120.232 133.536 119.756C133.107 119.271 132.477 119.028 131.646 119.028C131.067 119.028 130.559 119.159 130.12 119.42C129.691 119.681 129.355 120.045 129.112 120.512C128.879 120.969 128.762 121.506 128.762 122.122L128.244 121.758C128.309 120.974 128.51 120.297 128.846 119.728C129.182 119.159 129.621 118.72 130.162 118.412C130.713 118.095 131.333 117.936 132.024 117.936ZM144.956 126L144.676 122.99L145.054 122.066L144.704 121.072L145.25 115.22H146.566L145.908 121.996L146.272 126H144.956ZM145.446 122.052C145.241 122.873 144.924 123.597 144.494 124.222C144.074 124.838 143.561 125.319 142.954 125.664C142.357 126.009 141.694 126.182 140.966 126.182C140.192 126.182 139.506 126.009 138.908 125.664C138.311 125.309 137.84 124.824 137.494 124.208C137.158 123.583 136.99 122.864 136.99 122.052C136.99 121.231 137.158 120.512 137.494 119.896C137.84 119.28 138.311 118.799 138.908 118.454C139.506 118.109 140.192 117.936 140.966 117.936C141.694 117.936 142.357 118.109 142.954 118.454C143.561 118.799 144.079 119.28 144.508 119.896C144.938 120.512 145.25 121.231 145.446 122.052ZM138.306 122.052C138.306 122.649 138.428 123.177 138.67 123.634C138.922 124.091 139.263 124.451 139.692 124.712C140.131 124.964 140.626 125.09 141.176 125.09C141.736 125.09 142.25 124.964 142.716 124.712C143.192 124.451 143.612 124.091 143.976 123.634C144.35 123.177 144.653 122.649 144.886 122.052C144.653 121.455 144.35 120.927 143.976 120.47C143.612 120.013 143.192 119.658 142.716 119.406C142.25 119.145 141.736 119.014 141.176 119.014C140.626 119.014 140.131 119.145 139.692 119.406C139.263 119.658 138.922 120.013 138.67 120.47C138.428 120.927 138.306 121.455 138.306 122.052Z" fill="#A9ADB8"/>
  <defs>
  <linearGradient id="paint0_linear_31843_1291" x1="95.594" y1="45.8328" x2="95.594" y2="166.5" gradientUnits="userSpaceOnUse">
  <stop stop-color="#A5FFFD"/>
  <stop offset="1" stop-color="#A5FFFD" stop-opacity="0"/>
  </linearGradient>
  </defs>
  </svg>
  