<svg xmlns="http://www.w3.org/2000/svg" width="16" height="19" viewBox="0 0 16 19" fill="none">
  <path d="M9.34082 0.819336C10.5216 -0.0246998 12.2533 0.930685 12.0186 2.41406L11.9883 2.56445L10.8047 7.42871C10.794 7.4726 10.8189 7.53398 10.8906 7.55078L14.1904 8.31836L14.3135 8.35156C15.5149 8.72209 15.9123 10.2382 15.0029 11.125L14.9082 11.2109L6.77637 18.0908C5.55898 19.121 3.61816 18.0541 4.01172 16.4355L5.19531 11.5713L5.19629 11.5361C5.19242 11.5116 5.17924 11.4864 5.1543 11.4688L5.10938 11.4492L1.80957 10.6816C0.471682 10.3701 0.0290254 8.68827 1.0918 7.78906L9.22461 0.90918L9.34082 0.819336Z" fill="#A5FFFD" stroke="black"/>
</svg>