<svg xmlns="http://www.w3.org/2000/svg" width="34" height="34" viewBox="0 0 34 34" fill="none">
  <rect opacity="0.3" x="20.5073" y="3.81205" width="12.8761" height="23.2797" transform="rotate(45 20.5073 3.81205)" fill="#A5FFFD" stroke="black" stroke-width="0.5"/>
  <rect x="21.7446" y="5.04935" width="9.37678" height="23.2797" transform="rotate(45 21.7446 5.04935)" fill="#A5FFFD" stroke="black" stroke-width="0.5"/>
  <path d="M29.9383 13.4014C31.4623 11.6941 31.4054 9.07387 29.767 7.43517L25.7599 3.428C24.1212 1.7896 21.5009 1.73269 19.7936 3.25674L29.9383 13.4014Z" fill="#836EF9" stroke="black" stroke-width="0.5"/>
  <path d="M29.1606 14.2123L30.909 12.4639L20.7534 2.30821L19.0049 4.05664L29.1606 14.2123Z" fill="#817AA8" stroke="black" stroke-width="0.5"/>
  <path d="M13.282 30.0811C11.6475 31.5328 9.1451 31.4765 7.57892 29.9106L3.30934 25.641C1.74342 24.0748 1.6871 21.5725 3.13878 19.9379L13.282 30.0811Z" fill="#836EF9" stroke="black" stroke-width="0.5"/>
  <path d="M14.0758 29.2951L12.3274 31.0436L2.17173 20.8879L3.92017 19.1394L14.0758 29.2951Z" fill="#817AA8" stroke="black" stroke-width="0.5"/>
  <mask id="path-7-outside-1_33710_16006" maskUnits="userSpaceOnUse" x="0.818359" y="0.904785" width="32" height="32" fill="black">
    <rect fill="white" x="0.818359" y="0.904785" width="32" height="32"/>
    <path fill-rule="evenodd" clip-rule="evenodd" d="M19.2803 4.68564L18.6514 4.0567L19.4455 3.26258L19.4345 3.25153C19.5254 3.16062 19.6192 3.07432 19.7155 2.99262L20.7533 1.95485L21.0159 2.2175C22.6637 1.57639 24.6067 1.92106 25.9372 3.25153L29.9438 7.25813C31.2742 8.5886 31.6189 10.5316 30.9778 12.1794L31.2625 12.4641L29.1607 14.566L28.7387 14.144L14.0085 28.8742L14.4295 29.2952L13.6395 30.0852L13.6418 30.0875C13.6014 30.1278 13.5604 30.1673 13.5189 30.2058L12.3276 31.3971L12.0415 31.111C10.4783 31.6832 8.65622 31.342 7.40165 30.0875L3.13255 25.8183C1.87799 24.5638 1.53682 22.7417 2.10904 21.1785L1.81836 20.8878L3.92021 18.786L4.55012 19.4159L19.2803 4.68564Z"/>
  </mask>
  <path d="M18.6514 4.0567L17.9443 3.3496C17.7568 3.53713 17.6514 3.79149 17.6514 4.0567C17.6514 4.32192 17.7568 4.57628 17.9443 4.76381L18.6514 4.0567ZM19.2803 4.68564L19.9875 5.39275C20.175 5.20521 20.2803 4.95086 20.2803 4.68564C20.2803 4.42043 20.175 4.16607 19.9875 3.97854L19.2803 4.68564ZM19.4455 3.26258L20.1526 3.96968C20.3402 3.78215 20.4455 3.52779 20.4455 3.26258C20.4455 2.99736 20.3402 2.74301 20.1526 2.55547L19.4455 3.26258ZM19.4345 3.25153L18.7274 2.54442C18.5399 2.73196 18.4345 2.98631 18.4345 3.25153C18.4345 3.51674 18.5399 3.7711 18.7274 3.95864L19.4345 3.25153ZM19.7155 2.99262L20.3623 3.75527C20.3832 3.73759 20.4033 3.71906 20.4226 3.69973L19.7155 2.99262ZM20.7533 1.95485L21.4604 1.24775C21.2728 1.06021 21.0185 0.954853 20.7533 0.954853C20.488 0.954853 20.2337 1.06021 20.0462 1.24775L20.7533 1.95485ZM21.0159 2.2175L20.3088 2.9246C20.5892 3.20504 21.0089 3.29325 21.3785 3.14945L21.0159 2.2175ZM25.9372 3.25153L26.6443 2.54442L25.9372 3.25153ZM29.9438 7.25813L29.2366 7.96524L29.9438 7.25813ZM30.9778 12.1794L30.0458 11.8168C29.902 12.1864 29.9902 12.606 30.2707 12.8865L30.9778 12.1794ZM31.2625 12.4641L31.9696 13.1712C32.3602 12.7807 32.3602 12.1475 31.9696 11.757L31.2625 12.4641ZM29.1607 14.566L28.4536 15.2731C28.6411 15.4606 28.8955 15.566 29.1607 15.566C29.4259 15.566 29.6802 15.4606 29.8678 15.2731L29.1607 14.566ZM28.7387 14.144L29.4458 13.4369C29.2583 13.2493 29.0039 13.144 28.7387 13.144C28.4735 13.144 28.2191 13.2493 28.0316 13.4369L28.7387 14.144ZM14.0085 28.8742L13.3014 28.1671C12.9108 28.5576 12.9108 29.1908 13.3014 29.5813L14.0085 28.8742ZM14.4295 29.2952L15.1366 30.0023C15.5271 29.6118 15.5271 28.9786 15.1366 28.5881L14.4295 29.2952ZM13.6395 30.0852L12.9324 29.3781C12.5419 29.7686 12.5419 30.4017 12.9324 30.7923L13.6395 30.0852ZM13.6418 30.0875L14.3489 30.7946C14.7394 30.404 14.7394 29.7709 14.3489 29.3803L13.6418 30.0875ZM13.5189 30.2058L12.8392 29.4723C12.8299 29.4809 12.8208 29.4897 12.8118 29.4987L13.5189 30.2058ZM12.3276 31.3971L11.6205 32.1042C12.011 32.4947 12.6442 32.4947 13.0347 32.1042L12.3276 31.3971ZM12.0415 31.111L12.7486 30.4039C12.4734 30.1286 12.0633 30.0381 11.6978 30.1719L12.0415 31.111ZM7.40165 30.0875L8.10876 29.3803L7.40165 30.0875ZM3.13255 25.8183L2.42545 26.5255H2.42545L3.13255 25.8183ZM2.10904 21.1785L3.0481 21.5222C3.18192 21.1567 3.09142 20.7466 2.81614 20.4714L2.10904 21.1785ZM1.81836 20.8878L1.11125 20.1807C0.923716 20.3682 0.818359 20.6226 0.818359 20.8878C0.81836 21.153 0.923717 21.4074 1.11125 21.5949L1.81836 20.8878ZM3.92021 18.786L4.62732 18.0788C4.43978 17.8913 4.18543 17.786 3.92021 17.786C3.65499 17.786 3.40064 17.8913 3.2131 18.0788L3.92021 18.786ZM4.55012 19.4159L3.84302 20.123C4.23354 20.5135 4.86671 20.5135 5.25723 20.123L4.55012 19.4159ZM17.9443 4.76381L18.5732 5.39275L19.9875 3.97854L19.3585 3.3496L17.9443 4.76381ZM18.7384 2.55547L17.9443 3.3496L19.3585 4.76381L20.1526 3.96968L18.7384 2.55547ZM18.7274 3.95864L18.7384 3.96968L20.1526 2.55547L20.1416 2.54442L18.7274 3.95864ZM19.0687 2.22997C18.9515 2.32933 18.8376 2.43416 18.7274 2.54442L20.1416 3.95864C20.2132 3.88708 20.2868 3.81931 20.3623 3.75527L19.0687 2.22997ZM20.0462 1.24775L19.0084 2.28551L20.4226 3.69973L21.4604 2.66196L20.0462 1.24775ZM21.723 1.51039L21.4604 1.24775L20.0462 2.66196L20.3088 2.9246L21.723 1.51039ZM26.6443 2.54442C25.0233 0.923506 22.6574 0.505843 20.6533 1.28555L21.3785 3.14945C22.6701 2.64693 24.19 2.91862 25.23 3.95864L26.6443 2.54442ZM30.6509 6.55102L26.6443 2.54442L25.23 3.95864L29.2366 7.96524L30.6509 6.55102ZM31.9097 12.542C32.6894 10.5379 32.2718 8.17194 30.6509 6.55102L29.2366 7.96524C30.2767 9.00526 30.5484 10.5252 30.0458 11.8168L31.9097 12.542ZM31.9696 11.757L31.6849 11.4723L30.2707 12.8865L30.5554 13.1712L31.9696 11.757ZM29.8678 15.2731L31.9696 13.1712L30.5554 11.757L28.4536 13.8589L29.8678 15.2731ZM28.0316 14.8511L28.4536 15.2731L29.8678 13.8589L29.4458 13.4369L28.0316 14.8511ZM14.7156 29.5813L29.4458 14.8511L28.0316 13.4369L13.3014 28.1671L14.7156 29.5813ZM13.3014 29.5813L13.7224 30.0023L15.1366 28.5881L14.7156 28.1671L13.3014 29.5813ZM13.7224 28.5881L12.9324 29.3781L14.3466 30.7923L15.1366 30.0023L13.7224 28.5881ZM14.3489 29.3803L14.3466 29.3781L12.9324 30.7923L12.9347 30.7946L14.3489 29.3803ZM14.1986 30.9392C14.2495 30.8921 14.2996 30.8439 14.3489 30.7946L12.9347 29.3803C12.9033 29.4118 12.8714 29.4424 12.8392 29.4723L14.1986 30.9392ZM12.8118 29.4987L11.6205 30.69L13.0347 32.1042L14.226 30.9129L12.8118 29.4987ZM13.0347 30.69L12.7486 30.4039L11.3344 31.8181L11.6205 32.1042L13.0347 30.69ZM6.69455 30.7946C8.23451 32.3345 10.4701 32.7511 12.3853 32.05L11.6978 30.1719C10.4865 30.6153 9.07793 30.3495 8.10876 29.3803L6.69455 30.7946ZM2.42545 26.5255L6.69455 30.7946L8.10876 29.3803L3.83966 25.1112L2.42545 26.5255ZM1.16997 20.8347C0.468927 22.7499 0.885483 24.9855 2.42545 26.5255L3.83966 25.1112C2.87049 24.1421 2.6047 22.7335 3.0481 21.5222L1.16997 20.8347ZM2.81614 20.4714L2.52547 20.1807L1.11125 21.5949L1.40193 21.8856L2.81614 20.4714ZM2.52547 21.5949L4.62732 19.4931L3.2131 18.0788L1.11125 20.1807L2.52547 21.5949ZM3.2131 19.4931L3.84302 20.123L5.25723 18.7088L4.62732 18.0788L3.2131 19.4931ZM18.5732 3.97854L3.84302 18.7088L5.25723 20.123L19.9875 5.39275L18.5732 3.97854Z" fill="black" mask="url(#path-7-outside-1_33710_16006)"/>
</svg>