<svg width="271" height="277" viewBox="0 0 271 277" fill="none" xmlns="http://www.w3.org/2000/svg">
  <path
    d="M193.176 2.08916C198.587 4.7625 200.824 11.4458 200.994 16.6499C201.002 17.112 200.888 17.568 200.663 17.9718C200.438 18.3755 200.11 18.7127 199.713 18.9488C199.315 19.185 198.862 19.3119 198.4 19.3166C197.938 19.3213 197.483 19.2037 197.08 18.9757C178.049 9.86853 185.002 -1.97432 193.176 2.08916Z"
    fill="#725D41" stroke="black" />
  <path
    d="M133.63 275.402C121.997 278.637 114.34 267.855 90.8423 240.186C88.8366 237.102 83.2208 230.499 79.0312 225.696C77.1235 223.513 78.1397 218.113 80.6089 216.518C95.3706 206.813 130.456 180.044 153.116 172.577C153.586 172.428 154.085 172.393 154.571 172.476C155.057 172.558 155.517 172.755 155.911 173.05C156.306 173.346 156.625 173.731 156.841 174.174C157.057 174.617 157.164 175.105 157.154 175.598C157.484 217.605 150.789 243.75 157.939 250.246C167.165 258.632 174.706 258.632 174.706 264.504C174.706 270.377 148.73 271.214 133.63 275.402Z"
    fill="#725D41" stroke="black" />
  <path
    d="M233.433 33.1089C240.172 38.01 256.77 39.5516 266.192 39.7833C266.91 39.7891 267.606 40.0329 268.17 40.4763C268.735 40.9198 269.136 41.5379 269.312 42.2339C277.263 77.4417 207.805 75.4813 188.14 95.9859C168.012 116.945 193.774 146.779 209.953 150.477C231.757 155.512 230.081 178.102 216.656 177.309C203.945 176.516 177.274 174.377 160.712 171.285C157.921 170.768 155.292 173.78 155.711 176.632C156.986 185.293 154.944 197.849 141.181 207.535C118.53 223.468 64.0206 232.692 27.1252 208.373C-9.77018 184.055 32.0636 95.2819 48.0822 79.2597C78.2742 49.0776 161.291 15.5451 188.14 15.5451C230.937 15.5005 224.207 26.3988 233.433 33.1089Z"
    fill="#725D41" stroke="black" />
  <path
    d="M236.846 34.9978C244.735 38.4197 258.106 39.5871 266.191 39.7831C266.906 39.7833 267.6 40.0219 268.163 40.4609C268.727 40.9 269.128 41.5145 269.302 42.207C273.002 58.5055 260.13 66.8463 243.273 73.1286C242.824 73.307 242.338 73.3742 241.856 73.3245C241.375 73.2749 240.913 73.1099 240.51 72.8435C233.378 68.0493 223.84 55.5558 231.774 36.6553C232.567 34.7572 234.956 34.178 236.846 34.9978Z"
    fill="#B5966E" stroke="black" />
  <path d="M224.205 32.2713C224.205 32.2713 225.043 38.1348 210.789 31.4336" stroke="black"
    stroke-width="2" stroke-linecap="round" />
  <path
    d="M1.12208 205.798C1.69258 216.616 16.5969 213.702 25.5378 210.182C26.011 209.987 26.4273 209.675 26.748 209.277C27.0687 208.878 27.2835 208.404 27.3724 207.9C27.4613 207.397 27.4215 206.878 27.2566 206.394C27.0917 205.909 26.8071 205.474 26.4292 205.129L18.4065 197.109C18.0789 196.77 17.6757 196.514 17.2298 196.361C11.1861 194.284 0.471353 193.545 1.12208 205.798Z"
    fill="#725D41" stroke="black" />
  <path
    d="M270.335 43.1698C270.335 45.9501 267.331 48.1957 263.623 48.1957C259.915 48.1957 261.109 45.9501 261.109 43.1698C261.109 40.3895 259.924 38.135 263.623 38.135C267.322 38.135 270.335 40.3895 270.335 43.1698Z"
    fill="black" />
  <path
    d="M223.806 37.3777C223.467 38.8159 222.57 40.0604 221.313 40.8374C220.055 41.6145 218.541 41.8606 217.102 41.5214C215.664 41.1823 214.419 40.2857 213.642 39.029C212.864 37.7723 212.618 36.2584 212.957 34.8203C213.662 31.8261 215.382 34.1163 218.386 34.8203C221.39 35.5242 224.474 34.4103 223.806 37.3777Z"
    fill="black" />
  <path
    d="M166.338 197.43C168.121 179.385 160.713 174.19 153.974 173.237C153.292 173.15 152.6 173.298 152.013 173.656L74.2375 219.53C73.7218 219.845 73.2967 220.289 73.0038 220.818C72.7109 221.346 72.5603 221.942 72.5666 222.546C72.5729 223.151 72.7359 223.743 73.0397 224.265C73.3435 224.788 73.7777 225.223 74.2999 225.527C92.5916 236.221 127.321 259.701 143.696 260.281C166.338 261.127 183.114 244.357 185.592 238.484C188.07 232.612 176.375 230.945 170.501 230.945C164.626 230.945 162.986 231.81 166.338 197.43Z"
    fill="#725D41" />
  <path
    d="M152.919 173.121C159.908 173.673 168.189 178.467 166.291 197.43C162.939 231.809 164.615 230.972 170.489 230.972C176.363 230.972 188.103 232.647 185.581 238.511C183.058 244.374 166.291 261.154 143.684 260.307C125.571 259.639 84.9763 230.972 69.0469 222.586"
    stroke="black" />
  <path
    d="M165.496 6.27744C172.628 2.98032 180.65 8.83495 185.464 13.9767C185.802 14.3291 186.044 14.7619 186.168 15.2341C186.292 15.7064 186.293 16.2024 186.172 16.6752C186.05 17.1481 185.81 17.5822 185.474 17.9364C185.138 18.2907 184.717 18.5533 184.251 18.6996C164.284 25.3919 155.245 11.0093 165.496 6.27744Z"
    fill="#725D41" stroke="black" />
</svg>
  