<svg width="203" height="147" viewBox="0 0 203 147" fill="none" xmlns="http://www.w3.org/2000/svg">
  <path d="M24.5017 48.6694C44.1017 22.6694 69.335 11.1694 79.5017 8.66943L172.002 79.6694C173.002 82.1694 176.102 88.7694 180.502 95.1694C186.002 103.169 194.502 106.169 196.502 107.669C198.502 109.169 196.502 135.169 188.002 135.669C181.202 136.069 160.502 132.836 151.002 131.169C150.202 132.769 148.335 133.836 147.502 134.169C77.1017 160.969 20.835 135.003 1.50168 118.669C1.00168 106.169 4.90168 74.6694 24.5017 48.6694Z" fill="#5AAC4B" />
  <path d="M151.002 131.169C150.202 132.769 148.335 133.836 147.502 134.169C77.1017 160.969 20.835 135.003 1.50168 118.669C1.00168 106.169 4.90168 74.6694 24.5017 48.6694C44.1017 22.6694 69.335 11.1694 79.5017 8.66943L172.002 79.6694C173.002 82.1694 176.102 88.7694 180.502 95.1694C186.002 103.169 194.502 106.169 196.502 107.669C198.502 109.169 196.502 135.169 188.002 135.669C181.202 136.069 160.502 132.836 151.002 131.169ZM151.002 131.169C148.502 130.836 142.602 129.569 139.002 127.169" stroke="black" stroke-linecap="round" stroke-linejoin="round" />
  <path d="M201.5 109.169L194 106.169C193.2 120.169 185 131.669 181 135.669L192 136.669C193.833 136.169 198.1 132.969 200.5 124.169C202.9 115.369 202.167 110.503 201.5 109.169Z" fill="#E24D4D" stroke="black" stroke-linecap="round" stroke-linejoin="round" />
  <path d="M171 71.1694C166.6 60.7694 116.833 20.1694 92.5 1.16943C81.3 1.16943 69.5 10.1694 65 14.6694L87 19.1694V41.6694L115.5 45.1694L119 71.1694H153.5L165.5 91.6694C169.167 89.1694 175.4 81.5694 171 71.1694Z" fill="#E24D4D" stroke="black" stroke-linecap="round" stroke-linejoin="round" />
  <circle cx="65.5" cy="13.5" r="4.5" fill="#FFEC58" stroke="black" stroke-linejoin="round" />
  <circle cx="120.5" cy="72.6694" r="4.5" fill="#FFEC58" stroke="black" stroke-linejoin="round" />
  <circle cx="85.5" cy="44.6694" r="8.5" fill="#FFEC58" stroke="black" stroke-linejoin="round" />
  <circle cx="166.5" cy="96.6694" r="8.5" fill="#FFEC58" stroke="black" stroke-linejoin="round" />
  <path d="M4 94.6694C17.6 104.669 60.5 125.169 137.5 126.169L142 129.169C77.5 146.169 15 119.169 2 109.169L4 94.6694Z" fill="#E24D4D" stroke="black" stroke-linecap="round" stroke-linejoin="round" />
</svg>