<svg xmlns="http://www.w3.org/2000/svg" width="125" height="81" viewBox="0 0 125 81" fill="none">
  <path d="M7.67918 44.2385C11.1411 40.2314 16.527 39.8098 20.6983 42.3132C24.34 45.5196 26.1219 49.001 24.8942 53.5514C23.6666 58.1018 18.0992 63.2935 11.2673 59.9349C4.43553 56.5763 3.35173 49.2473 7.67918 44.2385Z" fill="white" stroke="black" />
  <path d="M61.7674 8.54159C87.2664 9.70054 106.135 35.0115 113.346 43.335C92.4879 45.0111 45.2617 58.6849 24.2559 65.3123C24.1755 62.3899 26.499 53.0892 29.7216 43.9233C19.3888 48.2683 15.9522 49.1488 16.9214 45.8158C22.9661 34.3584 36.2683 7.38264 61.7674 8.54159Z" fill="#D73F3F" />
  <path d="M29.7216 43.9233C19.3888 48.2683 15.9522 49.1488 16.9214 45.8158C22.9661 34.3584 36.2683 7.38264 61.7674 8.54159C87.2664 9.70054 106.135 35.0115 113.346 43.335C92.4879 45.0111 45.2617 58.6849 24.2559 65.3123C24.1755 62.3899 26.499 53.0892 29.7216 43.9233ZM29.7216 43.9233C30.9538 37.7951 32.944 34.7567 34.9083 30.35" stroke="black" />
  <path d="M64.5652 47.5697C40.6716 53.8323 27.5947 59.0679 23.3112 62.2406C17.5187 65.9229 22.2076 77.6391 28.0998 76.7678C34.4195 75.8332 42.6762 75.7239 76.2787 69.6433C115.881 62.4769 117.968 63.1206 120.345 61.3407C122.722 59.5608 125.289 44.7795 117.158 39.7922C109.028 34.8049 85.4086 42.1065 64.5652 47.5697Z" fill="white" stroke="black" />
</svg>