<svg width="213" height="88" viewBox="0 0 213 88" fill="none" xmlns="http://www.w3.org/2000/svg">
  <path d="M79.7305 1.03097C91.029 1.58153 103.74 8.14239 108.683 11.354C109.86 19.1536 108.4 32.9635 93.1474 25.8062C74.0812 16.8596 58.5458 32 40.8919 32C29.6468 32 17.8286 27.5323 10 23.7549C5.53841 21.6022 2.37264 19.6737 1.34724 18.9242C0.219192 18.0996 1.97716 14.9541 4.63578 11.354C6.05098 9.43764 7.72136 7.39247 9.3475 5.5C10.786 3.82587 12.1899 2.27124 13.3519 1.03097C16.6473 4.47198 26.7688 11.354 40.8919 11.354C58.5458 11.354 65.6074 0.342764 79.7305 1.03097Z" fill="#A83B3B" />
  <path d="M10 23.7549C5.53841 21.6022 2.37264 19.6737 1.34724 18.9242C0.219192 18.0996 1.97716 14.9541 4.63578 11.354M10 23.7549C17.8286 27.5323 29.6468 32 40.8919 32C58.5458 32 74.0812 16.8596 93.1474 25.8062C108.4 32.9635 109.86 19.1536 108.683 11.354C103.74 8.14239 91.029 1.58153 79.7305 1.03097C65.6074 0.342764 58.5458 11.354 40.8919 11.354C26.7688 11.354 16.6473 4.47198 13.3519 1.03097C12.1899 2.27124 10.786 3.82587 9.3475 5.5M10 23.7549C12.1667 19.8366 17.1 11.4 19.5 9M4.63578 11.354C6.30656 12.4027 10.0185 14.7 11.5 15.5M4.63578 11.354C6.05098 9.43764 7.72136 7.39247 9.3475 5.5M9.3475 5.5C11.2317 6.54867 15.1 8.91681 15.5 10" stroke="black" />
  <path d="M204.004 56.5417C182.745 55.825 135.505 21.9028 118.97 1C98.5977 7.27083 80.8823 2.79167 97.7119 27.875C111.176 47.9417 163.258 87 187.174 87C198.689 79.8333 225.262 57.2583 204.004 56.5417Z" fill="#D73F3F" stroke="black" />
</svg>