<svg width="473" height="288" viewBox="0 0 473 288" fill="none" xmlns="http://www.w3.org/2000/svg">
  <path d="M336 141C373.936 151.469 234.156 194.5 360.5 194.5" stroke="black" stroke-width="5" stroke-linecap="round" stroke-linejoin="round"/>
  <path d="M73.4988 23.4174C102.511 22.303 147.637 39.7764 160.999 84.9998C180.499 151 117.67 183.5 68.17 179.5C26.8628 176.162 13.8455 133.299 16.4989 91.4998C16.4989 91.4998 7.66231 84.7094 10.4988 70.9998C16.0437 44.1998 35.2529 34.0534 55.4988 27.1434C48.4988 27.1434 43.4988 26.4998 34.9988 19.4998C25.3189 11.5281 42.9988 13.9998 47.4988 9.49985C51.9988 4.99985 58.9988 -1.50004 67.4988 1.99996C75.9988 5.49996 78.9988 2 83.9988 2C88.9988 2 79.9988 21.4174 73.4988 23.4174Z" fill="#CF8D47"/>
  <path d="M55.4988 27.1434C48.4988 27.1434 43.4988 26.4998 34.9988 19.4998C25.3189 11.5281 42.9988 13.9998 47.4988 9.49985C51.9988 4.99985 58.9988 -1.50004 67.4988 1.99996C75.9988 5.49996 78.9988 2 83.9988 2C88.9988 2 79.9988 21.4174 73.4988 23.4174M60.4988 25.4997C86.4988 17.227 145.399 32.1998 160.999 84.9998C180.499 151 117.67 183.5 68.17 179.5C26.8628 176.162 13.8455 133.299 16.4989 91.4998C16.4989 91.4998 7.66231 84.7094 10.4988 70.9998C16.4989 41.9998 38.4988 32.4997 60.4988 25.4997Z" stroke="black" stroke-linecap="round" stroke-linejoin="round"/>
  <path d="M55.2953 21.1593C46.8953 24.7593 46.6665 28.6667 47.4999 30C50.4999 29 55.5447 26.6726 61.2953 25.1592C69.4999 23 76.962 22.9926 81.2953 23.1593C80.2953 16.6593 65.7953 16.6593 55.2953 21.1593Z" fill="#D73F3F" stroke="black"/>
  <path d="M64.2363 69.6496C63.8346 69.721 63.4801 69.6805 63.1726 69.5279C62.8749 69.3615 62.6413 69.1105 62.472 68.7749C62.3186 68.4609 62.1955 68.1111 62.1025 67.7254C62.0214 67.3376 61.9178 66.7893 61.7918 66.0804C61.6741 65.4188 61.5574 64.9337 61.4416 64.6252C61.3376 64.3147 61.1852 64.1772 60.9844 64.2129C60.7481 64.2549 60.6016 64.3907 60.5449 64.6202C60.4861 64.8378 60.4903 65.1357 60.5575 65.5137C60.6184 65.8564 60.7613 66.3855 60.986 67.1012C61.023 67.2409 61.0866 67.4612 61.1767 67.7621C61.2667 68.063 61.3296 68.3138 61.3653 68.5147C61.4662 69.0818 61.4076 69.5066 61.1897 69.7891C60.9836 70.0695 60.6384 70.2528 60.154 70.3389C59.5751 70.4418 59.0173 70.218 58.4806 69.6675C57.9439 69.1169 57.4863 68.3939 57.1076 67.4983C56.7269 66.591 56.4557 65.6824 56.2939 64.7727C56.1006 63.6857 56.0746 62.6483 56.2158 61.6603C56.3689 60.6702 56.7081 59.836 57.2334 59.1575C57.7706 58.477 58.4881 58.0569 59.386 57.8972C60.1422 57.7628 60.7867 57.8919 61.3197 58.2847C61.8506 58.6656 62.2517 59.1732 62.5229 59.8076C62.5373 59.1346 62.727 58.522 63.0919 57.9696C63.4687 57.415 64.0292 57.0716 64.7735 56.9393C65.6596 56.7817 66.4651 56.9249 67.19 57.3688C67.9247 57.7989 68.5446 58.4748 69.0497 59.3966C69.5667 60.3163 69.9397 61.42 70.1687 62.7078C70.3179 63.5467 70.3541 64.4361 70.2775 65.376C70.1987 66.3041 69.9992 67.1014 69.6789 67.7677C69.3587 68.4341 68.9268 68.8156 68.3833 68.9122C67.8871 69.0004 67.4869 68.9436 67.1829 68.7417C66.8789 68.5398 66.6764 68.1553 66.5756 67.5882C66.5294 67.3283 66.4905 66.8355 66.459 66.1098C66.419 65.3369 66.3697 64.785 66.3108 64.4542C66.1743 63.6862 65.8993 63.339 65.4858 63.4125C65.2731 63.4503 65.1677 63.6458 65.1695 63.9989C65.1832 64.35 65.2524 64.9105 65.3771 65.6806C65.4801 66.2595 65.5544 66.746 65.6001 67.1401C65.6437 67.5224 65.6525 67.8803 65.6265 68.214C65.5929 68.5735 65.4532 68.8847 65.2075 69.1478C64.9736 69.4088 64.6499 69.5761 64.2363 69.6496ZM76.1734 67.5271C75.2991 67.6825 74.4948 67.6488 73.7604 67.4259C73.026 67.203 72.4152 66.818 71.9279 66.2709C71.4503 65.7098 71.1422 65.0394 71.0035 64.2597C70.867 63.4917 70.9241 62.7503 71.1748 62.0353C71.4373 61.3183 71.8647 60.706 72.457 60.1985C73.0493 59.691 73.7649 59.3626 74.6037 59.2135C75.3599 59.079 76.0547 59.1139 76.6882 59.3181C77.3218 59.5224 77.8373 59.8512 78.2348 60.3046C78.6302 60.7462 78.8763 61.2388 78.9729 61.7822C79.1305 62.6683 78.9093 63.378 78.3094 63.9113C77.7192 64.4306 76.9633 64.7722 76.0418 64.9361C75.4274 65.0453 74.8939 65.061 74.4412 64.983C74.8986 65.4989 75.5349 65.6844 76.3501 65.5394C76.6809 65.4806 77.028 65.3762 77.3914 65.2263C77.5269 65.1656 77.6596 65.1238 77.7896 65.1006C78.0495 65.0544 78.2678 65.0826 78.4445 65.1853C78.633 65.2859 78.7472 65.4484 78.7871 65.6728C78.8523 66.0391 78.6845 66.398 78.2839 66.7496C77.8811 67.0893 77.1776 67.3485 76.1734 67.5271ZM74.11 62.8115C74.2457 62.958 74.4096 63.0568 74.6015 63.108C74.8031 63.1453 75.0162 63.1439 75.2407 63.104C75.5006 63.0578 75.7146 62.9588 75.8826 62.8071C76.0624 62.6532 76.1355 62.4818 76.1019 62.2927C76.0641 62.0801 75.9429 61.9127 75.7384 61.7906C75.5457 61.6664 75.2898 61.6327 74.9708 61.6894C74.6518 61.7461 74.4157 61.8917 74.2624 62.1262C74.1188 62.3467 74.068 62.5752 74.11 62.8115ZM82.4824 66.4052C81.7263 66.5397 81.1395 66.187 80.722 65.3471C80.3163 64.5051 79.9748 63.3043 79.6975 61.7448C79.5715 61.0359 79.496 60.4399 79.471 59.9568C79.4558 59.4598 79.5428 59.0239 79.7321 58.6489C79.9311 58.2601 80.2964 58.0184 80.8281 57.9239C81.1589 57.8651 81.462 57.8904 81.7374 57.9999C82.0247 58.1072 82.2289 58.2964 82.3502 58.5673C82.5681 58.2848 82.8733 58.0477 83.2659 57.8561C83.6584 57.6644 84.0909 57.5265 84.5635 57.4425C84.9416 57.3753 85.3423 57.4015 85.7658 57.5212C86.2012 57.6388 86.5782 57.8399 86.8969 58.1245C87.2254 58.3952 87.4232 58.7196 87.4905 59.0977C87.5577 59.4757 87.4817 59.8366 87.2625 60.1803C87.053 60.5101 86.7296 60.7138 86.2925 60.7915C86.1507 60.8168 86.0117 60.8232 85.8754 60.8109C85.751 60.7964 85.6383 60.7799 85.5375 60.7612C85.2844 60.7087 85.087 60.6951 84.9452 60.7203C84.4844 60.8022 84.1094 61.0578 83.8201 61.4871C83.5405 61.9025 83.4511 62.3937 83.5519 62.9608C83.6633 63.587 83.7321 64.111 83.7583 64.533C83.7846 64.9549 83.709 65.3522 83.5315 65.7251C83.352 66.0861 83.0023 66.3128 82.4824 66.4052ZM91.0319 64.8851C90.2758 65.0195 89.689 64.6668 89.2715 63.8269C88.8658 62.9849 88.5243 61.7842 88.247 60.2246C88.121 59.5157 88.0455 58.9198 88.0205 58.4367C88.0053 57.9397 88.0923 57.5037 88.2816 57.1288C88.4806 56.7399 88.8459 56.4982 89.3776 56.4037C89.7084 56.3449 90.0115 56.3702 90.2869 56.4797C90.5742 56.587 90.7784 56.7762 90.8997 57.0472C91.1176 56.7646 91.4228 56.5276 91.8153 56.3359C92.2079 56.1442 92.6404 56.0064 93.113 55.9223C93.4911 55.8551 93.8918 55.8813 94.3153 56.001C94.7507 56.1187 95.1277 56.3198 95.4464 56.6044C95.7749 56.875 95.9727 57.1994 96.0399 57.5775C96.1072 57.9555 96.0312 58.3164 95.812 58.6601C95.6025 58.9899 95.2791 59.1936 94.842 59.2714C94.7002 59.2966 94.5612 59.303 94.4249 59.2907C94.3005 59.2762 94.1878 59.2597 94.087 59.2411C93.8339 59.1886 93.6365 59.1749 93.4947 59.2001C93.0339 59.282 92.6589 59.5376 92.3696 59.9669C92.09 60.3823 92.0006 60.8735 92.1014 61.4406C92.2128 62.0668 92.2816 62.5909 92.3078 63.0128C92.3341 63.4347 92.2585 63.8321 92.081 64.2049C91.9015 64.5659 91.5518 64.7926 91.0319 64.8851ZM101.111 65.7987C100.473 65.9121 99.9194 65.8826 99.4499 65.7101C98.9805 65.5376 98.7027 65.2092 98.6166 64.7248C98.5472 64.3349 98.6758 63.9951 99.0021 63.7055C99.3284 63.4159 99.7418 63.2388 100.242 63.1742C100.766 63.1054 101.164 63.0104 101.435 62.8891C101.717 62.7657 101.919 62.5958 102.039 62.3794C100.952 62.5727 100.056 62.5735 99.3518 62.3819C98.6452 62.1784 98.0855 61.7722 97.6725 61.1631C97.2692 60.54 96.9698 59.6791 96.7745 58.5804C96.6064 57.6352 96.6127 56.8479 96.7933 56.2186C96.9836 55.5754 97.3919 55.1981 98.018 55.0867C98.5733 54.988 99.0093 55.075 99.3259 55.3478C99.6523 55.6066 99.8596 55.9842 99.9478 56.4804L100.069 57.2633C100.084 57.419 100.118 57.6445 100.171 57.9399C100.272 58.507 100.419 58.9256 100.613 59.1958C100.806 59.4541 101.114 59.5455 101.54 59.4699C101.965 59.3943 102.223 59.2021 102.315 58.8933C102.404 58.5727 102.399 58.1348 102.301 57.5795C102.248 57.2841 102.202 57.0607 102.163 56.9092L102.01 56.1503C101.915 55.6187 101.971 55.1761 102.176 54.8227C102.393 54.4672 102.779 54.2401 103.335 54.1414C103.961 54.03 104.474 54.2435 104.875 54.7817C105.275 55.3199 105.558 56.0557 105.724 56.989C105.972 58.3832 105.999 59.7008 105.805 60.9419C105.621 62.169 105.144 63.2228 104.375 64.1031C103.617 64.9814 102.529 65.5466 101.111 65.7987ZM53.7685 89.7566C52.6107 89.9625 51.53 89.917 50.5266 89.6201C49.5328 89.3092 48.6882 88.7403 47.9926 87.9133C47.295 87.0745 46.8265 85.9816 46.587 84.6348C46.3937 83.5478 46.4611 82.4876 46.7893 81.4542C47.1175 80.4208 47.6683 79.5428 48.4417 78.8203C49.2152 78.0977 50.1454 77.6398 51.2323 77.4465C52.2602 77.2638 53.2105 77.2959 54.0832 77.5429C54.9538 77.7781 55.6665 78.1877 56.2213 78.7716C56.7879 79.3534 57.1437 80.0519 57.2887 80.8671C57.3811 81.3869 57.3073 81.8632 57.0674 82.2959C56.8392 82.7265 56.4475 82.9912 55.8922 83.0899C55.4787 83.1634 55.1471 83.1493 54.8974 83.0474C54.6477 82.9455 54.3726 82.769 54.0719 82.5177C53.7713 82.2665 53.4903 82.091 53.2287 81.9912C52.977 81.8775 52.6325 81.8596 52.1953 81.9373C51.6401 82.036 51.1994 82.3338 50.8733 82.8305C50.5569 83.3134 50.4523 83.8561 50.5595 84.4586C50.675 85.1084 50.9381 85.6284 51.3488 86.0185C51.7691 86.3947 52.2687 86.5314 52.8477 86.4284C53.2966 86.3486 53.6395 86.2206 53.8763 86.0444C54.125 85.8662 54.3749 85.6267 54.6261 85.3261C54.8364 85.0693 55.0326 84.8699 55.2145 84.7278C55.4083 84.5837 55.6587 84.4843 55.9659 84.4297C56.4385 84.3457 56.8369 84.4272 57.1612 84.6742C57.4833 84.9094 57.6854 85.2575 57.7673 85.7182C57.8639 86.2617 57.7555 86.8173 57.4421 87.3849C57.1404 87.9504 56.6684 88.4488 56.0259 88.8799C55.3835 89.311 54.631 89.6033 53.7685 89.7566ZM61.3837 88.4391C60.8048 88.5421 60.3218 88.3964 59.9348 88.002C59.5478 87.6077 59.2122 86.9544 58.9281 86.042C58.6558 85.1276 58.3726 83.8433 58.0785 82.1892C57.8327 80.8069 57.6759 79.7196 57.6082 78.9272C57.5522 78.1327 57.6261 77.4858 57.8298 76.9864C58.0315 76.4752 58.4335 76.1661 59.0361 76.0589C59.5559 75.9665 59.9752 76.0626 60.294 76.3472C60.6127 76.6318 60.8517 77.0159 61.0108 77.4995C61.1699 77.9831 61.3156 78.5971 61.448 79.3414L61.5898 80.1389C61.8051 79.9787 61.9971 79.8593 62.1659 79.7805C62.3466 79.6996 62.62 79.6266 62.9863 79.5615C63.7897 79.4186 64.5176 79.5025 65.17 79.8131C65.8204 80.1118 66.3542 80.5776 66.7714 81.2103C67.2004 81.841 67.4895 82.5757 67.6386 83.4145C67.8319 84.5015 67.8734 85.4204 67.7632 86.1713C67.6626 86.9083 67.2757 87.3366 66.6022 87.4564C66.1296 87.5404 65.7563 87.4971 65.4822 87.3265C65.2199 87.1537 65.0207 86.8905 64.8847 86.5369C64.7605 86.1811 64.6417 85.6842 64.5283 85.0462C64.4043 84.3492 64.2319 83.8253 64.0111 83.4745C63.8021 83.1216 63.5145 82.9778 63.1482 83.0429C62.782 83.108 62.5508 83.3502 62.4547 83.7695C62.3684 84.1749 62.3802 84.7213 62.4902 85.4086C62.5919 86.0487 62.6408 86.5641 62.6372 86.9548C62.6453 87.3434 62.5512 87.6709 62.3548 87.9374C62.1682 88.19 61.8444 88.3572 61.3837 88.4391ZM71.0873 86.7137C70.3312 86.8482 69.7444 86.4955 69.3269 85.6556C68.9212 84.8136 68.5797 83.6128 68.3024 82.0533C68.1764 81.3444 68.1009 80.7484 68.0759 80.2653C68.0607 79.7683 68.1477 79.3324 68.337 78.9574C68.536 78.5686 68.9013 78.3269 69.433 78.2324C69.7638 78.1736 70.0669 78.1989 70.3423 78.3084C70.6296 78.4157 70.8338 78.6049 70.9551 78.8758C71.173 78.5933 71.4783 78.3562 71.8708 78.1646C72.2633 77.9729 72.6958 77.835 73.1684 77.751C73.5465 77.6838 73.9473 77.71 74.3708 77.8297C74.8061 77.9473 75.1831 78.1484 75.5018 78.433C75.8303 78.7037 76.0281 79.0281 76.0954 79.4062C76.1626 79.7842 76.0866 80.1451 75.8674 80.4888C75.6579 80.8186 75.3345 81.0223 74.8974 81.1C74.7556 81.1252 74.6166 81.1317 74.4803 81.1193C74.3559 81.1049 74.2433 81.0884 74.1424 81.0697C73.8893 81.0172 73.6919 81.0036 73.5501 81.0288C73.0893 81.1107 72.7143 81.3663 72.425 81.7956C72.1454 82.211 72.056 82.7022 72.1568 83.2693C72.2682 83.8955 72.337 84.4195 72.3633 84.8415C72.3895 85.2634 72.3139 85.6607 72.1364 86.0336C71.9569 86.3946 71.6072 86.6213 71.0873 86.7137ZM78.0953 76.6007C77.5164 76.7036 76.9894 76.5841 76.5141 76.242C76.0368 75.8881 75.7446 75.4099 75.6374 74.8073C75.5324 74.2166 75.644 73.6787 75.9721 73.1938C76.2982 72.697 76.7507 72.3972 77.3296 72.2943C77.8967 72.1934 78.4189 72.32 78.8963 72.6739C79.3833 73.0138 79.6793 73.4792 79.7844 74.0699C79.8915 74.6725 79.7761 75.2232 79.4383 75.722C79.1101 76.207 78.6624 76.4999 78.0953 76.6007ZM79.6237 85.1959C79.1393 85.282 78.7547 85.2102 78.4701 84.9805C78.1952 84.7369 77.9671 84.3448 77.7856 83.8042C77.6139 83.2497 77.4356 82.4526 77.2507 81.4129C77.0953 80.5386 77.0137 79.8401 77.0061 79.3173C77.0103 78.7925 77.1085 78.385 77.3007 78.0949C77.4928 77.8048 77.8134 77.6198 78.2624 77.54C78.7468 77.4538 79.1264 77.5326 79.4013 77.7762C79.6859 78.006 79.9141 78.3981 80.0858 78.9526C80.2672 79.4932 80.4504 80.2833 80.6353 81.323C80.7907 82.1973 80.8664 82.8968 80.8622 83.4217C80.8698 83.9444 80.7775 84.3508 80.5854 84.641C80.3932 84.9311 80.0726 85.1161 79.6237 85.1959ZM85.6429 84.1256C84.6032 84.3105 83.7457 84.2862 83.0704 84.0528C82.3952 83.8194 82.0092 83.431 81.9126 82.8875C81.8495 82.5331 81.9194 82.2404 82.1221 82.0093C82.3344 81.7643 82.6297 81.6082 83.0078 81.541C83.2204 81.5032 83.397 81.5023 83.5374 81.5382C83.6779 81.5742 83.8226 81.6338 83.9714 81.717C84.0807 81.7829 84.168 81.8283 84.2333 81.8533C84.3105 81.8761 84.3964 81.8791 84.4909 81.8623C84.739 81.8182 84.8473 81.7075 84.8158 81.5303C84.7864 81.3649 84.6994 81.2524 84.5547 81.1928C84.4079 81.1214 84.1635 81.0491 83.8214 80.9759C83.505 80.9102 83.2954 80.8622 83.1924 80.8317C82.6027 80.6684 82.1464 80.4327 81.8235 80.1245C81.5005 79.8162 81.3033 79.4613 81.2319 79.0596C81.1521 78.6106 81.236 78.1569 81.4835 77.6985C81.7408 77.2262 82.1428 76.8134 82.6894 76.4603C83.2457 76.0932 83.9138 75.8404 84.6935 75.7017C85.367 75.582 85.9922 75.5683 86.5693 75.6607C87.1582 75.751 87.6416 75.9332 88.0194 76.2073C88.3951 76.4696 88.6176 76.7956 88.687 77.1855C88.7521 77.5518 88.6833 77.8504 88.4806 78.0815C88.2898 78.3104 87.9994 78.4596 87.6095 78.5289C87.4559 78.5562 87.3298 78.5665 87.231 78.5596C87.142 78.5389 87.0203 78.5057 86.866 78.46C86.7749 78.4274 86.6789 78.4019 86.5781 78.3832C86.4891 78.3625 86.3914 78.3616 86.2851 78.3805C86.1905 78.3973 86.1141 78.4474 86.0559 78.5309C85.9955 78.6026 85.9737 78.6857 85.9905 78.7802C86.022 78.9574 86.1751 79.0643 86.4497 79.1008C87.1749 79.2034 87.7747 79.3893 88.2491 79.6584C88.7354 79.9254 89.0321 80.3601 89.1392 80.9627C89.2757 81.7306 89.0225 82.3973 88.3796 82.9626C87.7484 83.5257 86.8362 83.9134 85.6429 84.1256ZM97.9525 74.0206C98.0618 74.6349 97.8469 75.1058 97.3079 75.4333C96.7668 75.7489 95.9952 76.0018 94.993 76.1922C95.0337 76.4897 95.1129 76.9692 95.2305 77.6309C95.3503 78.3043 95.4826 78.7744 95.6275 79.0411C95.7223 79.2315 95.8341 79.3457 95.9627 79.3838C96.1032 79.4197 96.2996 79.4275 96.5519 79.407C96.6367 79.4041 96.7284 79.406 96.8271 79.4129C96.9356 79.4058 97.0569 79.4025 97.191 79.403C97.4733 79.4138 97.7122 79.5236 97.9078 79.7326C98.1013 79.9298 98.2296 80.2056 98.2926 80.56C98.364 80.9617 98.2129 81.3116 97.8393 81.6096C97.4657 81.9076 96.9186 82.1207 96.1979 82.2488C95.5363 82.3665 94.8706 82.2898 94.2008 82.0189C93.5289 81.7361 93.023 81.2898 92.683 80.6799C92.3227 80.0249 91.9703 78.7286 91.6258 76.7909C90.7946 76.9144 90.1082 76.9267 89.5665 76.828C89.0346 76.7154 88.7234 76.4051 88.6331 75.8971C88.5197 75.2591 88.6803 74.7917 89.1151 74.495C89.5478 74.1865 90.2061 73.9476 91.0901 73.7782C90.9575 72.8267 90.9655 72.0148 91.1141 71.3424C91.2606 70.6582 91.6705 70.2562 92.3439 70.1365C93.0292 70.0146 93.5248 70.2312 93.8307 70.7862C94.1484 71.3391 94.3868 72.1316 94.5459 73.1637C95.619 72.9607 96.4252 72.9027 96.9648 72.9896C97.5161 73.0744 97.8454 73.418 97.9525 74.0206ZM105.467 80.6006C104.924 80.6973 104.519 80.5803 104.253 80.2498C103.987 79.9192 103.787 79.3759 103.653 78.6197C103.554 78.0644 103.478 77.6697 103.424 77.4355C103.368 77.1895 103.284 76.9912 103.172 76.8405C103.071 76.6876 102.927 76.6281 102.738 76.6617C102.513 76.7016 102.361 76.8078 102.282 76.9803C102.201 77.141 102.17 77.3416 102.188 77.5821C102.216 77.8086 102.271 78.1523 102.353 78.6131C102.454 79.1802 102.51 79.6333 102.522 79.9726C102.531 80.3 102.455 80.5878 102.292 80.8362C102.126 81.0728 101.831 81.2289 101.406 81.3045C100.13 81.5314 99.2041 80.0262 98.6285 76.789C98.4331 75.6902 98.3764 74.8228 98.4582 74.1866C98.5499 73.5365 98.8537 73.0864 99.3699 72.8362C99.5603 72.7414 99.7381 72.6793 99.9035 72.6499C100.152 72.6057 100.386 72.619 100.605 72.6896C100.825 72.7602 100.993 72.8827 101.109 73.057C101.258 72.9331 101.411 72.8328 101.568 72.7561C101.725 72.6795 101.957 72.6138 102.264 72.5592C102.642 72.492 103.013 72.5235 103.378 72.6537C103.752 72.77 104.039 72.9809 104.24 73.2865C104.484 72.8775 104.745 72.5629 105.023 72.3429C105.31 72.109 105.702 71.9479 106.198 71.8597C106.931 71.7294 107.608 71.8345 108.229 72.175C108.86 72.5016 109.39 73.0167 109.82 73.7204C110.26 74.4101 110.56 75.2098 110.722 76.1195C110.903 77.1356 110.914 77.9868 110.756 78.6731C110.597 79.3594 110.181 79.7624 109.508 79.8822C109.059 79.962 108.714 79.9075 108.473 79.7188C108.244 79.5279 108.077 79.2712 107.971 78.9488C107.874 78.6125 107.769 78.1195 107.653 77.4696C107.552 76.9025 107.437 76.4964 107.308 76.2512C107.179 76.0059 106.961 75.9106 106.654 75.9653C106.43 76.0052 106.31 76.1544 106.295 76.4131C106.278 76.6599 106.319 77.0609 106.418 77.6162C106.425 77.7246 106.448 77.8911 106.488 78.1156C106.599 78.8759 106.586 79.457 106.451 79.859C106.315 80.261 105.987 80.5082 105.467 80.6006ZM115.059 78.8951C114.138 79.0589 113.345 78.9866 112.681 78.6782C112.014 78.3579 111.611 77.8019 111.47 77.0103C111.348 76.3251 111.553 75.7281 112.084 75.2192C112.615 74.7104 113.329 74.3761 114.227 74.2165C114.558 74.1576 114.871 74.1326 115.165 74.1412C115.468 74.136 115.68 74.1593 115.799 74.2113C115.746 73.9159 115.579 73.6958 115.297 73.5509C115.014 73.3941 114.618 73.3609 114.11 73.4513C113.885 73.4912 113.705 73.5415 113.57 73.6021C113.434 73.6628 113.29 73.7432 113.137 73.8435C112.984 73.9438 112.84 74.0243 112.705 74.085C112.581 74.1435 112.407 74.1928 112.183 74.2327C111.805 74.2999 111.492 74.2579 111.246 74.1067C110.998 73.9436 110.838 73.6613 110.766 73.2596C110.684 72.7988 110.781 72.3795 111.055 72.0017C111.341 71.6218 111.724 71.3099 112.205 71.0659C112.683 70.8102 113.177 70.6372 113.685 70.5468C114.689 70.3683 115.561 70.4081 116.302 70.6665C117.052 70.9109 117.642 71.3119 118.07 71.8695C118.51 72.4251 118.796 73.075 118.928 73.8193C119 74.221 119.031 74.5995 119.021 74.9547C119.022 75.3079 118.987 75.5884 118.914 75.7963C119.105 75.9087 119.258 76.0521 119.375 76.2264C119.503 76.3986 119.585 76.5852 119.62 76.786C119.681 77.1286 119.616 77.445 119.424 77.7351C119.243 78.0232 118.964 78.2008 118.586 78.268C118.302 78.3184 118.065 78.318 117.873 78.2668C117.681 78.2157 117.469 78.1193 117.236 77.9778C116.972 78.2075 116.671 78.3953 116.331 78.541C116.003 78.6846 115.579 78.8026 115.059 78.8951ZM115.095 77.0421C115.344 76.998 115.529 76.9102 115.652 76.7786C115.787 76.645 115.84 76.5014 115.813 76.3478C115.786 76.1942 115.686 76.0779 115.513 75.9989C115.353 75.9178 115.148 75.8993 114.9 75.9434C114.652 75.9875 114.461 76.0764 114.326 76.21C114.203 76.3415 114.155 76.4841 114.183 76.6377C114.21 76.7913 114.304 76.9087 114.465 76.9898C114.637 77.0688 114.847 77.0862 115.095 77.0421ZM123.787 77.3432C122.747 77.5281 121.89 77.5038 121.214 77.2705C120.539 77.0371 120.153 76.6486 120.056 76.1052C119.993 75.7507 120.063 75.458 120.266 75.2269C120.478 74.982 120.774 74.8259 121.152 74.7586C121.364 74.7208 121.541 74.7199 121.681 74.7559C121.822 74.7918 121.966 74.8514 122.115 74.9347C122.225 75.0006 122.312 75.046 122.377 75.0709C122.454 75.0937 122.54 75.0968 122.635 75.08C122.883 75.0358 122.991 74.9252 122.96 74.748C122.93 74.5825 122.843 74.47 122.699 74.4105C122.552 74.339 122.307 74.2667 121.965 74.1935C121.649 74.1279 121.439 74.0798 121.336 74.0494C120.747 73.8861 120.29 73.6503 119.967 73.3421C119.644 73.0339 119.447 72.6789 119.376 72.2772C119.296 71.8283 119.38 71.3746 119.627 70.9161C119.885 70.4438 120.287 70.0311 120.833 69.6779C121.39 69.3109 122.058 69.058 122.837 68.9193C123.511 68.7996 124.136 68.7859 124.713 68.8783C125.302 68.9686 125.785 69.1508 126.163 69.4249C126.539 69.6872 126.762 70.0133 126.831 70.4032C126.896 70.7694 126.827 71.0681 126.625 71.2991C126.434 71.5281 126.143 71.6772 125.753 71.7465C125.6 71.7738 125.474 71.7841 125.375 71.7773C125.286 71.7565 125.164 71.7233 125.01 71.6776C124.919 71.6451 124.823 71.6195 124.722 71.6008C124.633 71.5801 124.535 71.5792 124.429 71.5981C124.334 71.6149 124.258 71.6651 124.2 71.7485C124.139 71.8202 124.118 71.9033 124.134 71.9978C124.166 72.1751 124.319 72.2819 124.594 72.3184C125.319 72.421 125.919 72.6069 126.393 72.876C126.879 73.143 127.176 73.5778 127.283 74.1803C127.42 74.9483 127.166 75.6149 126.523 76.1802C125.892 76.7434 124.98 77.1311 123.787 77.3432Z" fill="#855618"/>
  <rect x="68.2891" y="241.517" width="12.1114" height="22.3595" fill="#B54040" stroke="black" stroke-linecap="round" stroke-linejoin="round"/>
  <rect x="319.836" y="241.517" width="13.9747" height="22.3595" fill="#B54040" stroke="black" stroke-linecap="round" stroke-linejoin="round"/>
  <path fill-rule="evenodd" clip-rule="evenodd" d="M413.463 202.388C413.463 195.956 418.677 190.742 425.109 190.742C435.055 190.742 446.521 193.578 455.727 201.228C465.3 209.184 471.225 221.363 471.225 237.396C471.225 253.676 464.767 266.464 454.367 274.954C444.288 283.182 431.372 286.702 419.053 286.702H13.3214C6.88968 286.702 1.67578 281.488 1.67578 275.056C1.67578 268.624 6.88968 263.41 13.3214 263.41H419.053C427.231 263.41 434.578 261.043 439.638 256.911C444.377 253.042 447.934 247 447.934 237.396C447.934 227.544 444.543 222.218 440.841 219.141C436.77 215.759 431.001 214.033 425.109 214.033C418.677 214.033 413.463 208.819 413.463 202.388Z" fill="white" stroke="black" stroke-linecap="round" stroke-linejoin="round"/>
  <path d="M39.7294 263.5C39.7029 263.564 39.675 263.631 39.646 263.703C39.4062 264.294 39.088 265.154 38.7703 266.234C38.1352 268.393 37.5 271.442 37.5 275C37.5 278.558 38.1352 281.607 38.7703 283.766C39.088 284.846 39.4062 285.706 39.646 286.297C39.675 286.369 39.7029 286.436 39.7294 286.5H24.7761C24.7178 286.401 24.6426 286.266 24.5551 286.094C24.3325 285.656 24.0301 284.977 23.7259 284.034C23.1175 282.148 22.5 279.2 22.5 275C22.5 270.8 23.1175 267.852 23.7259 265.966C24.0301 265.023 24.3325 264.344 24.5551 263.906C24.6426 263.734 24.7178 263.599 24.7761 263.5H39.7294ZM24.9077 263.289L24.9077 263.29L24.9077 263.289ZM24.9077 286.711C24.9078 286.711 24.9078 286.711 24.9077 286.71L24.9077 286.711Z" fill="#B54040" stroke="black" stroke-linecap="round" stroke-linejoin="round"/>
  <path d="M73.2294 263.5C73.2029 263.564 73.175 263.631 73.146 263.703C72.9062 264.294 72.588 265.154 72.2703 266.234C71.6352 268.393 71 271.442 71 275C71 278.558 71.6352 281.607 72.2703 283.766C72.588 284.846 72.9062 285.706 73.146 286.297C73.175 286.369 73.2029 286.436 73.2294 286.5H58.2761C58.2178 286.401 58.1426 286.266 58.0551 286.094C57.8325 285.656 57.5301 284.977 57.2259 284.034C56.6175 282.148 56 279.2 56 275C56 270.8 56.6175 267.852 57.2259 265.966C57.5301 265.023 57.8325 264.344 58.0551 263.906C58.1426 263.734 58.2178 263.599 58.2761 263.5H73.2294ZM58.4077 263.289L58.4077 263.29L58.4077 263.289ZM58.4077 286.711C58.4078 286.711 58.4078 286.711 58.4077 286.71L58.4077 286.711Z" fill="#B54040" stroke="black" stroke-linecap="round" stroke-linejoin="round"/>
  <path d="M106.729 263.5C106.703 263.564 106.675 263.631 106.646 263.703C106.406 264.294 106.088 265.154 105.77 266.234C105.135 268.393 104.5 271.442 104.5 275C104.5 278.558 105.135 281.607 105.77 283.766C106.088 284.846 106.406 285.706 106.646 286.297C106.675 286.369 106.703 286.436 106.729 286.5H91.7761C91.7178 286.401 91.6426 286.266 91.5551 286.094C91.3325 285.656 91.0301 284.977 90.7259 284.034C90.1175 282.148 89.5 279.2 89.5 275C89.5 270.8 90.1175 267.852 90.7259 265.966C91.0301 265.023 91.3325 264.344 91.5551 263.906C91.6426 263.734 91.7178 263.599 91.7761 263.5H106.729ZM91.9077 263.289L91.9077 263.29L91.9077 263.289ZM91.9077 286.711C91.9078 286.711 91.9078 286.711 91.9077 286.71L91.9077 286.711Z" fill="#B54040" stroke="black" stroke-linecap="round" stroke-linejoin="round"/>
  <path d="M140.229 263.5C140.203 263.564 140.175 263.631 140.146 263.703C139.906 264.294 139.588 265.154 139.27 266.234C138.635 268.393 138 271.442 138 275C138 278.558 138.635 281.607 139.27 283.766C139.588 284.846 139.906 285.706 140.146 286.297C140.175 286.369 140.203 286.436 140.229 286.5H125.276C125.218 286.401 125.143 286.266 125.055 286.094C124.832 285.656 124.53 284.977 124.226 284.034C123.618 282.148 123 279.2 123 275C123 270.8 123.618 267.852 124.226 265.966C124.53 265.023 124.832 264.344 125.055 263.906C125.143 263.734 125.218 263.599 125.276 263.5H140.229ZM125.408 263.289L125.408 263.29L125.408 263.289ZM125.408 286.711C125.408 286.711 125.408 286.711 125.408 286.71L125.408 286.711Z" fill="#B54040" stroke="black" stroke-linecap="round" stroke-linejoin="round"/>
  <path d="M173.729 263.5C173.703 263.564 173.675 263.631 173.646 263.703C173.406 264.294 173.088 265.154 172.77 266.234C172.135 268.393 171.5 271.442 171.5 275C171.5 278.558 172.135 281.607 172.77 283.766C173.088 284.846 173.406 285.706 173.646 286.297C173.675 286.369 173.703 286.436 173.729 286.5H158.776C158.718 286.401 158.643 286.266 158.555 286.094C158.332 285.656 158.03 284.977 157.726 284.034C157.118 282.148 156.5 279.2 156.5 275C156.5 270.8 157.118 267.852 157.726 265.966C158.03 265.023 158.332 264.344 158.555 263.906C158.643 263.734 158.718 263.599 158.776 263.5H173.729ZM158.908 263.289L158.908 263.29L158.908 263.289ZM158.908 286.711C158.908 286.711 158.908 286.711 158.908 286.71L158.908 286.711Z" fill="#B54040" stroke="black" stroke-linecap="round" stroke-linejoin="round"/>
  <path d="M207.229 263.5C207.203 263.564 207.175 263.631 207.146 263.703C206.906 264.294 206.588 265.154 206.27 266.234C205.635 268.393 205 271.442 205 275C205 278.558 205.635 281.607 206.27 283.766C206.588 284.846 206.906 285.706 207.146 286.297C207.175 286.369 207.203 286.436 207.229 286.5H192.276C192.218 286.401 192.143 286.266 192.055 286.094C191.832 285.656 191.53 284.977 191.226 284.034C190.618 282.148 190 279.2 190 275C190 270.8 190.618 267.852 191.226 265.966C191.53 265.023 191.832 264.344 192.055 263.906C192.143 263.734 192.218 263.599 192.276 263.5H207.229ZM192.408 263.289L192.408 263.29L192.408 263.289ZM192.408 286.711C192.408 286.711 192.408 286.711 192.408 286.71L192.408 286.711Z" fill="#B54040" stroke="black" stroke-linecap="round" stroke-linejoin="round"/>
  <path d="M240.729 263.5C240.703 263.564 240.675 263.631 240.646 263.703C240.406 264.294 240.088 265.154 239.77 266.234C239.135 268.393 238.5 271.442 238.5 275C238.5 278.558 239.135 281.607 239.77 283.766C240.088 284.846 240.406 285.706 240.646 286.297C240.675 286.369 240.703 286.436 240.729 286.5H225.776C225.718 286.401 225.643 286.266 225.555 286.094C225.332 285.656 225.03 284.977 224.726 284.034C224.118 282.148 223.5 279.2 223.5 275C223.5 270.8 224.118 267.852 224.726 265.966C225.03 265.023 225.332 264.344 225.555 263.906C225.643 263.734 225.718 263.599 225.776 263.5H240.729ZM225.908 263.289L225.908 263.29L225.908 263.289ZM225.908 286.711C225.908 286.711 225.908 286.711 225.908 286.71L225.908 286.711Z" fill="#B54040" stroke="black" stroke-linecap="round" stroke-linejoin="round"/>
  <path d="M274.229 263.5C274.203 263.564 274.175 263.631 274.146 263.703C273.906 264.294 273.588 265.154 273.27 266.234C272.635 268.393 272 271.442 272 275C272 278.558 272.635 281.607 273.27 283.766C273.588 284.846 273.906 285.706 274.146 286.297C274.175 286.369 274.203 286.436 274.229 286.5H259.276C259.218 286.401 259.143 286.266 259.055 286.094C258.832 285.656 258.53 284.977 258.226 284.034C257.618 282.148 257 279.2 257 275C257 270.8 257.618 267.852 258.226 265.966C258.53 265.023 258.832 264.344 259.055 263.906C259.143 263.734 259.218 263.599 259.276 263.5H274.229ZM259.408 263.289L259.408 263.29L259.408 263.289ZM259.408 286.711C259.408 286.711 259.408 286.711 259.408 286.71L259.408 286.711Z" fill="#B54040" stroke="black" stroke-linecap="round" stroke-linejoin="round"/>
  <path d="M307.729 263.5C307.703 263.564 307.675 263.631 307.646 263.703C307.406 264.294 307.088 265.154 306.77 266.234C306.135 268.393 305.5 271.442 305.5 275C305.5 278.558 306.135 281.607 306.77 283.766C307.088 284.846 307.406 285.706 307.646 286.297C307.675 286.369 307.703 286.436 307.729 286.5H292.776C292.718 286.401 292.643 286.266 292.555 286.094C292.332 285.656 292.03 284.977 291.726 284.034C291.118 282.148 290.5 279.2 290.5 275C290.5 270.8 291.118 267.852 291.726 265.966C292.03 265.023 292.332 264.344 292.555 263.906C292.643 263.734 292.718 263.599 292.776 263.5H307.729ZM292.908 263.289L292.908 263.29L292.908 263.289ZM292.908 286.711C292.908 286.711 292.908 286.711 292.908 286.71L292.908 286.711Z" fill="#B54040" stroke="black" stroke-linecap="round" stroke-linejoin="round"/>
  <path d="M341.229 263.5C341.203 263.564 341.175 263.631 341.146 263.703C340.906 264.294 340.588 265.154 340.27 266.234C339.635 268.393 339 271.442 339 275C339 278.558 339.635 281.607 340.27 283.766C340.588 284.846 340.906 285.706 341.146 286.297C341.175 286.369 341.203 286.436 341.229 286.5H326.276C326.218 286.401 326.143 286.266 326.055 286.094C325.832 285.656 325.53 284.977 325.226 284.034C324.618 282.148 324 279.2 324 275C324 270.8 324.618 267.852 325.226 265.966C325.53 265.023 325.832 264.344 326.055 263.906C326.143 263.734 326.218 263.599 326.276 263.5H341.229ZM326.408 263.289L326.408 263.29L326.408 263.289ZM326.408 286.711C326.408 286.711 326.408 286.711 326.408 286.71L326.408 286.711Z" fill="#B54040" stroke="black" stroke-linecap="round" stroke-linejoin="round"/>
  <path d="M374.729 263.5C374.703 263.564 374.675 263.631 374.646 263.703C374.406 264.294 374.088 265.154 373.77 266.234C373.135 268.393 372.5 271.442 372.5 275C372.5 278.558 373.135 281.607 373.77 283.766C374.088 284.846 374.406 285.706 374.646 286.297C374.675 286.369 374.703 286.436 374.729 286.5H359.776C359.718 286.401 359.643 286.266 359.555 286.094C359.332 285.656 359.03 284.977 358.726 284.034C358.118 282.148 357.5 279.2 357.5 275C357.5 270.8 358.118 267.852 358.726 265.966C359.03 265.023 359.332 264.344 359.555 263.906C359.643 263.734 359.718 263.599 359.776 263.5H374.729ZM359.908 263.289L359.908 263.29L359.908 263.289ZM359.908 286.711C359.908 286.711 359.908 286.711 359.908 286.71L359.908 286.711Z" fill="#B54040" stroke="black" stroke-linecap="round" stroke-linejoin="round"/>
  <path d="M408.229 263.5C408.203 263.564 408.175 263.631 408.146 263.703C407.906 264.294 407.588 265.154 407.27 266.234C406.635 268.393 406 271.442 406 275C406 278.558 406.635 281.607 407.27 283.766C407.588 284.846 407.906 285.706 408.146 286.297C408.175 286.369 408.203 286.436 408.229 286.5H393.276C393.218 286.401 393.143 286.266 393.055 286.094C392.832 285.656 392.53 284.977 392.226 284.034C391.618 282.148 391 279.2 391 275C391 270.8 391.618 267.852 392.226 265.966C392.53 265.023 392.832 264.344 393.055 263.906C393.143 263.734 393.218 263.599 393.276 263.5H408.229ZM393.408 263.289L393.408 263.29L393.408 263.289ZM393.408 286.711C393.408 286.711 393.408 286.711 393.408 286.71L393.408 286.711Z" fill="#B54040" stroke="black" stroke-linecap="round" stroke-linejoin="round"/>
  <path d="M432.018 285.317C431.773 285.36 431.576 285.393 431.44 285.415C431.348 285.339 431.218 285.226 431.055 285.07C430.7 284.73 430.19 284.19 429.591 283.401C428.393 281.823 426.834 279.245 425.443 275.282C424.055 271.323 423.696 268.266 423.68 266.212C423.672 265.185 423.75 264.407 423.828 263.892C423.857 263.701 423.886 263.546 423.91 263.427C424.049 263.399 424.229 263.362 424.442 263.317C424.966 263.208 425.692 263.051 426.503 262.862C428.118 262.487 430.097 261.981 431.477 261.469C432.855 260.958 434.677 260.07 436.14 259.32C436.842 258.96 437.466 258.629 437.927 258.381C437.924 258.427 437.922 258.474 437.919 258.523C437.885 259.206 437.863 260.184 437.916 261.37C438.02 263.741 438.418 266.955 439.598 270.316C440.776 273.674 442.384 276.34 443.698 278.168C444.356 279.082 444.94 279.787 445.363 280.266C445.434 280.347 445.5 280.421 445.561 280.489C445.521 280.508 445.478 280.528 445.434 280.548C444.964 280.768 444.307 281.074 443.561 281.417C442.068 282.105 440.223 282.94 438.805 283.539C437.424 284.122 435.539 284.6 433.977 284.935C433.2 285.101 432.512 285.229 432.018 285.317ZM431.592 285.535C431.592 285.535 431.592 285.535 431.592 285.535L431.592 285.535ZM423.978 263.144C423.978 263.144 423.978 263.144 423.978 263.144L423.978 263.144Z" fill="#B54040" stroke="black" stroke-linecap="round" stroke-linejoin="round"/>
  <path d="M467.8 256.804C467.75 256.906 467.708 256.989 467.673 257.055C467.543 257.079 467.353 257.11 467.105 257.143C466.572 257.212 465.771 257.289 464.71 257.314C462.587 257.362 459.425 257.2 455.3 256.349C451.192 255.5 448.386 254.233 446.618 253.189C445.733 252.667 445.106 252.2 444.705 251.868C444.578 251.763 444.474 251.672 444.391 251.596C444.459 251.468 444.545 251.307 444.644 251.118C444.907 250.613 445.264 249.911 445.638 249.118C446.379 247.549 447.212 245.575 447.491 244.092C447.763 242.641 447.889 240.735 447.948 239.21C447.974 238.536 447.987 237.931 447.993 237.465C448.495 237.799 449.224 238.251 450.162 238.746C452.072 239.754 454.85 240.939 458.333 241.658C461.819 242.378 465.135 242.377 467.574 242.198C468.795 242.108 469.8 241.974 470.501 241.861C470.681 241.832 470.841 241.805 470.979 241.78C470.962 242.121 470.932 242.604 470.876 243.227C470.753 244.608 470.505 246.675 470.007 249.411C469.513 252.13 468.896 254.101 468.407 255.385C468.162 256.027 467.95 256.497 467.8 256.804ZM444.141 251.354C444.141 251.354 444.141 251.354 444.141 251.354L444.141 251.354Z" fill="#B54040" stroke="black" stroke-linecap="round" stroke-linejoin="round"/>
  <path d="M456.363 201.75C456.443 201.829 456.509 201.895 456.561 201.949C456.543 202.08 456.513 202.27 456.466 202.516C456.366 203.043 456.188 203.829 455.879 204.844C455.261 206.875 454.117 209.828 452.017 213.478C449.925 217.115 447.844 219.383 446.299 220.736C445.526 221.413 444.886 221.862 444.445 222.139C444.306 222.227 444.186 222.297 444.089 222.352C443.988 222.247 443.862 222.115 443.713 221.962C443.317 221.554 442.761 220.995 442.126 220.392C440.867 219.197 439.253 217.788 437.932 217.059C436.639 216.346 434.868 215.63 433.438 215.096C432.806 214.861 432.236 214.659 431.795 214.507C432.269 214.135 432.927 213.584 433.691 212.848C435.246 211.35 437.242 209.082 439.014 206C440.789 202.914 441.826 199.765 442.42 197.392C442.717 196.204 442.903 195.208 443.016 194.507C443.045 194.327 443.069 194.167 443.089 194.027C443.408 194.15 443.857 194.33 444.431 194.578C445.703 195.128 447.589 196.01 450.031 197.339C452.46 198.66 454.138 199.862 455.204 200.729C455.737 201.162 456.118 201.511 456.363 201.75ZM443.781 222.514C443.78 222.514 443.78 222.514 443.78 222.514L443.781 222.514Z" fill="#B54040" stroke="black" stroke-linecap="round" stroke-linejoin="round"/>
  <path d="M17.0496 234.063C-12.0178 220.648 4.93819 136.396 17.0496 97.5773C99.0344 73.8202 159.591 158.6 182.417 185.152C205.242 211.704 328.219 219.157 335.673 185.152C340.79 161.804 368.891 162.327 384.118 167.917C399.346 173.506 400.888 234.063 359.895 241.517C297.382 252.882 53.3838 250.833 17.0496 234.063Z" fill="#B54040" stroke="black" stroke-linecap="round" stroke-linejoin="round"/>
  <path d="M335.674 176.727C340.792 153.379 376.667 155.864 384.12 158.6C391.573 161.336 392.877 165.555 394.368 174.904C396.231 186.59 386.915 195.866 384.12 183.755C381.325 171.643 374.803 168.382 371.543 168.382C368.282 168.382 372.94 182.357 365.953 176.727C358.965 171.097 351.512 174.438 348.717 180.028C345.922 185.618 343.593 197.729 313.78 207.046C283.968 216.362 254.621 211.704 247.168 211.704C239.715 211.704 238.783 236.393 229.932 235.461C221.082 234.529 221.548 207.511 215.026 207.046C208.504 206.58 207.573 218.691 202.915 218.225C198.256 217.76 200.12 206.58 190.803 201.456C181.487 196.332 166.115 182.823 147.016 154.873C127.917 126.924 84.1297 106.428 80.8689 105.496C77.6082 104.565 78.074 112.018 72.4841 112.018C66.8942 112.018 69.6892 100.838 64.5651 100.838C59.4411 100.838 57.112 127.39 51.5221 125.527C45.9322 123.663 46.398 100.838 43.6031 98.5089C40.8082 96.1798 35.2183 96.1798 31.0259 98.5089C26.8335 100.838 23.1069 113.415 17.0512 113.415C10.9955 113.415 11.9271 104.099 12.3929 98.5089C12.7656 94.037 15.6537 90.4077 17.0512 89.152C99.036 65.3949 159.593 150.175 182.418 176.727C205.244 203.279 328.221 210.732 335.674 176.727Z" fill="white" stroke="black" stroke-linecap="round" stroke-linejoin="round"/>
  </svg>
  