<svg width="390" height="358" viewBox="0 0 390 358" fill="none" xmlns="http://www.w3.org/2000/svg">
  <path d="M151.798 317.169C235.634 317.169 303.596 311.54 303.596 304.596C303.596 297.651 235.634 292.022 151.798 292.022C67.9622 292.022 0 297.651 0 304.596C0 311.54 67.9622 317.169 151.798 317.169Z" fill="black" fill-opacity="0.2" />
  <path d="M259.176 2.25859C264.587 4.93193 266.824 11.6153 266.994 16.8194C267.002 17.2814 266.888 17.7375 266.663 18.1412C266.438 18.545 266.11 18.8821 265.713 19.1183C265.315 19.3545 264.862 19.4813 264.4 19.4861C263.938 19.4908 263.483 19.3732 263.08 19.1451C244.049 10.038 251.002 -1.80488 259.176 2.25859Z" fill="#725D41" stroke="black" />
  <path d="M199.63 275.572C187.997 278.807 180.34 268.024 156.842 240.355C154.837 237.272 149.221 230.669 145.031 225.866C143.124 223.682 144.14 218.282 146.609 216.687C161.371 206.983 196.456 180.214 219.116 172.746C219.586 172.597 220.085 172.563 220.571 172.645C221.057 172.727 221.517 172.925 221.911 173.22C222.306 173.515 222.625 173.9 222.841 174.343C223.057 174.786 223.164 175.274 223.154 175.767C223.484 217.774 216.789 243.92 223.939 250.416C233.165 258.801 240.706 258.801 240.706 264.674C240.706 270.546 214.73 271.384 199.63 275.572Z" fill="#725D41" stroke="black" />
  <path d="M299.433 33.2783C306.172 38.1794 322.77 39.721 332.192 39.9527C332.91 39.9586 333.606 40.2023 334.17 40.6458C334.735 41.0892 335.136 41.7073 335.312 42.4033C343.263 77.6112 273.805 75.6508 254.14 96.1553C234.012 117.114 259.774 146.949 275.953 150.647C297.757 155.682 296.081 178.271 282.656 177.478C269.945 176.685 243.274 174.547 226.712 171.454C223.921 170.938 221.292 173.949 221.711 176.801C222.986 185.463 220.944 198.018 207.181 207.705C184.53 223.638 130.021 232.861 93.1252 208.542C56.2298 184.224 98.0636 95.4513 114.082 79.4291C144.274 49.2471 227.291 15.7145 254.14 15.7145C296.937 15.6699 290.207 26.5682 299.433 33.2783Z" fill="#725D41" stroke="black" />
  <path d="M302.846 35.1673C310.735 38.5892 324.106 39.7565 332.191 39.9526C332.906 39.9527 333.6 40.1913 334.163 40.6304C334.727 41.0694 335.128 41.6839 335.302 42.3765C339.002 58.6749 326.13 67.0157 309.273 73.2981C308.824 73.4764 308.338 73.5436 307.856 73.494C307.375 73.4443 306.913 73.2794 306.51 73.013C299.378 68.2188 289.84 55.7253 297.774 36.8247C298.567 34.9267 300.956 34.3475 302.846 35.1673Z" fill="#B5966E" stroke="black" />
  <path d="M290.209 32.4407C290.209 32.4407 291.047 38.3042 276.793 31.603" stroke="black" stroke-width="2" stroke-linecap="round" />
  <path d="M67.1221 205.967C67.6926 216.785 82.5969 213.871 91.5378 210.351C92.011 210.156 92.4273 209.845 92.748 209.446C93.0687 209.047 93.2835 208.574 93.3724 208.07C93.4613 207.566 93.4215 207.048 93.2566 206.563C93.0917 206.079 92.8071 205.644 92.4292 205.299L84.4065 197.279C84.0789 196.94 83.6757 196.683 83.2298 196.53C77.1861 194.454 66.4714 193.714 67.1221 205.967Z" fill="#725D41" stroke="black" />
  <path d="M336.339 43.3393C336.339 46.1195 333.335 48.3651 329.627 48.3651C325.919 48.3651 327.113 46.1195 327.113 43.3393C327.113 40.559 325.928 38.3044 329.627 38.3044C333.326 38.3044 336.339 40.559 336.339 43.3393Z" fill="black" />
  <path d="M289.806 37.5469C289.467 38.9851 288.57 40.2295 287.313 41.0066C286.055 41.7837 284.541 42.0298 283.102 41.6906C281.664 41.3515 280.419 40.4549 279.642 39.1982C278.864 37.9415 278.618 36.4276 278.957 34.9894C279.662 31.9953 281.382 34.2855 284.386 34.9894C287.39 35.6934 290.474 34.5795 289.806 37.5469Z" fill="black" />
  <path d="M232.338 197.6C234.121 179.555 226.713 174.36 219.974 173.406C219.292 173.319 218.6 173.467 218.013 173.825L140.237 219.7C139.722 220.015 139.297 220.459 139.004 220.987C138.711 221.516 138.56 222.111 138.567 222.716C138.573 223.32 138.736 223.912 139.04 224.435C139.343 224.957 139.778 225.392 140.3 225.697C158.592 236.39 193.321 259.871 209.696 260.45C232.338 261.297 249.114 244.526 251.592 238.654C254.07 232.781 242.375 231.115 236.501 231.115C230.626 231.115 228.986 231.979 232.338 197.6Z" fill="#725D41" />
  <path d="M218.919 173.29C225.908 173.843 234.189 178.637 232.291 197.6C228.939 231.979 230.615 231.141 236.489 231.141C242.363 231.141 254.103 232.816 251.581 238.68C249.058 244.543 232.291 261.323 209.684 260.477C191.571 259.808 150.976 231.141 135.047 222.756" stroke="black" />
  <path d="M231.5 6.44687C238.631 3.14975 246.654 9.00438 251.468 14.1461C251.806 14.4986 252.048 14.9314 252.172 15.4036C252.296 15.8758 252.297 16.3718 252.176 16.8447C252.054 17.3175 251.814 17.7516 251.478 18.1059C251.142 18.4601 250.721 18.7228 250.255 18.869C230.288 25.5613 221.249 11.1787 231.5 6.44687Z" fill="#725D41" stroke="black" />
  <path d="M317.099 259.85C288.952 268.233 134.495 288.675 60.7854 297.848C57.1362 298.173 50.4296 297.37 52.7974 291.557C55.7573 284.29 62.1499 279.349 75.926 276.296C81.6871 275.019 129.419 267.242 185.228 258.279C191.25 262.782 205.278 270.593 217.797 269.836C219.357 269.595 220.909 269.355 222.451 269.115C252.438 259.198 253.717 250.787 250.608 247.821C280.973 242.98 309.97 238.376 332.489 234.811C333.552 232.58 334.915 230.101 336.905 227.314C347.395 212.628 363.512 202.025 371.966 204.03C380.421 206.035 352.283 249.372 317.099 259.85Z" fill="#79C3C2" />
  <path d="M81.1218 290.305C117.41 285.023 174.253 276.597 222.451 269.115M332.489 234.811C333.552 232.58 334.915 230.101 336.905 227.314C347.395 212.628 363.512 202.025 371.966 204.03C380.421 206.035 352.283 249.372 317.099 259.85C288.952 268.233 134.495 288.675 60.7854 297.848C57.1362 298.173 50.4296 297.37 52.7974 291.557C55.7573 284.29 62.1499 279.349 75.926 276.296C81.6871 275.019 129.419 267.242 185.228 258.279C192.011 263.351 208.951 272.62 222.451 269.115M332.489 234.811C327.948 244.341 328.887 249.336 309.898 254.295C301.09 256.596 265.166 262.485 222.451 269.115M332.489 234.811C309.97 238.376 280.973 242.98 250.608 247.821C253.717 250.787 252.438 259.198 222.451 269.115" stroke="black" stroke-linecap="round" />
  <path d="M317.099 259.85C288.952 268.233 134.495 288.675 60.7855 297.848C57.1362 298.173 50.4296 297.37 52.7975 291.557C52.5031 294.672 71.5577 292.021 81.1219 290.306C117.41 285.024 174.254 276.597 222.451 269.115C265.166 262.485 301.09 256.596 309.898 254.296C328.887 249.336 327.948 244.341 332.489 234.812C333.552 232.58 334.916 230.101 336.906 227.315C347.395 212.629 363.512 202.025 371.966 204.03C380.421 206.035 352.283 249.372 317.099 259.85Z" fill="#4C8281" stroke="black" stroke-linecap="round" />
  <path d="M320.343 240.034C292.092 251.439 134.573 287.627 59.345 304.296C55.608 304.988 48.6034 304.813 50.4814 298.578C52.8288 290.785 58.9484 285.058 72.8776 280.56C78.7027 278.679 127.239 265.988 184 251.284C190.659 255.347 205.909 262.044 218.764 260.041C220.351 259.639 221.93 259.239 223.5 258.841C253.5 245.673 254 236.861 250.5 234.101C281.387 226.137 310.884 218.552 333.792 212.673C334.672 210.265 335.838 207.571 337.621 204.5C347.021 188.309 362.63 175.784 371.558 177.03C380.485 178.275 355.656 225.778 320.343 240.034Z" fill="#99FFFD" />
  <path d="M79.6111 294.521C116.572 285.524 174.454 271.273 223.5 258.841M333.792 212.673C334.672 210.265 335.838 207.571 337.621 204.5C347.021 188.309 362.63 175.784 371.558 177.03C380.485 178.275 355.656 225.778 320.343 240.034C292.092 251.439 134.573 287.627 59.345 304.296C55.608 304.988 48.6034 304.813 50.4814 298.578C52.8288 290.785 58.9484 285.058 72.8776 280.56C78.7027 278.679 127.239 265.988 184 251.284C191.5 255.86 209.9 263.779 223.5 258.841M333.792 212.673C330.032 222.958 331.49 228.025 312.364 235C303.492 238.236 266.966 247.824 223.5 258.841M333.792 212.673C310.884 218.552 281.387 226.137 250.5 234.101C254 236.861 253.5 245.673 223.5 258.841" stroke="black" stroke-linecap="round" />
  <path d="M320.341 240.034C292.091 251.439 134.572 287.627 59.3439 304.296C55.6069 304.988 48.6023 304.813 50.4803 298.578C50.4803 301.824 69.9001 297.226 79.61 294.521C116.571 285.524 174.453 271.273 223.499 258.841C266.965 247.824 303.49 238.236 312.363 235C331.489 228.025 330.031 222.958 333.791 212.673C334.671 210.265 335.837 207.571 337.62 204.499C347.02 188.309 362.629 175.784 371.556 177.03C380.484 178.275 355.655 225.778 320.341 240.034Z" fill="#6DA6A5" stroke="black" stroke-linecap="round" />
  <path d="M233 230.17C234.2 237.37 223.5 253.503 218 260.67L238.5 255.17C247 249.67 252.5 232.17 246 230.17C240.8 228.57 235.167 229.503 233 230.17Z" fill="#6DA6A5" stroke="black" stroke-linecap="round" />
  <path d="M286.12 120.47C291.943 119.734 297.578 123.538 297.98 125.399C298.019 125.577 297.967 125.756 297.902 125.926L286.575 155.669C285.035 154.069 278.794 150.669 275.866 149.169L284.653 121.752C284.868 121.08 285.42 120.559 286.12 120.47Z" fill="#575757" />
  <path d="M278.387 177.169L220.948 327.992C220.708 328.623 219.977 328.908 219.374 328.606C218.871 328.355 218.627 327.774 218.798 327.239L266.732 177.669C268.918 177.669 275.413 177.336 278.387 177.169Z" fill="#575757" />
  <path d="M286.12 120.47C291.943 119.734 297.578 123.538 297.98 125.399C298.019 125.577 297.967 125.756 297.902 125.926L286.575 155.669C285.035 154.069 278.794 150.669 275.866 149.169L284.653 121.752C284.868 121.08 285.42 120.559 286.12 120.47Z" stroke="black" stroke-linecap="round" />
  <path d="M278.387 177.169L220.948 327.992C220.708 328.623 219.977 328.908 219.374 328.606C218.871 328.355 218.627 327.774 218.798 327.239L266.732 177.669C268.918 177.669 275.413 177.336 278.387 177.169Z" stroke="black" stroke-linecap="round" />
  <path d="M228.745 303.261C223.492 301.553 218.958 301.021 218.616 302.071C218.324 302.969 221.187 304.731 225.302 306.29C225.534 305.917 226.298 305.269 227.498 305.669C228.698 306.069 228.873 307.036 228.811 307.469C233.491 308.85 237.324 309.217 237.637 308.254C237.978 307.204 233.997 304.968 228.745 303.261Z" fill="#909090" stroke="black" stroke-linecap="round" />
  <path d="M274.656 145.088L277.333 137.948C277.74 136.862 278.739 136.085 279.897 136.139C284.832 136.366 290.286 138.87 293.044 141.918C293.707 142.651 293.765 143.711 293.371 144.617L290.514 151.188C289.741 152.964 287.432 153.668 285.686 152.828C283.178 151.621 279.781 150.214 276.642 149.143C274.971 148.573 274.035 146.742 274.656 145.088Z" fill="#909090" stroke="black" stroke-linecap="round" />
</svg>