<svg width="88" height="21" viewBox="0 0 88 21" fill="none" xmlns="http://www.w3.org/2000/svg">
  <mask id="path-1-outside-1_33344_5524" maskUnits="userSpaceOnUse" x="0" y="0" width="88"
    height="21" fill="black">
    <rect fill="white" width="88" height="21" />
    <path
      d="M9.17367 0.999999C11.0003 0.999999 12.5937 1.31333 13.9537 1.94C15.327 2.55333 16.3937 3.42 17.1537 4.54C17.9137 5.66 18.2937 6.98 18.2937 8.5C18.2937 10.0067 17.9137 11.3267 17.1537 12.46C16.3937 13.58 15.327 14.4533 13.9537 15.08C12.5937 15.6933 11.0003 16 9.17367 16H1.21367V0.999999H9.17367ZM6.33367 13.7L4.01367 11.4H9.57367C10.307 11.4 10.9337 11.2867 11.4537 11.06C11.987 10.82 12.3937 10.4867 12.6737 10.06C12.9537 9.62 13.0937 9.1 13.0937 8.5C13.0937 7.88667 12.9537 7.36667 12.6737 6.94C12.3937 6.51333 11.987 6.18667 11.4537 5.96C10.9337 5.72 10.307 5.6 9.57367 5.6H4.01367L6.33367 3.3V13.7ZM22.7229 13.48V9.38H32.9429V13.48H22.7229ZM31.3629 0.999999L37.9429 16H32.4429L27.2629 3.28H28.5829L23.4029 16H17.9029L24.4829 0.999999H31.3629ZM38.8448 4.5H43.9248V7.34L43.7248 7.9V11.7L43.9248 12.8V19.3H38.8448V4.5ZM42.4248 10.26C42.5581 9.00667 42.8848 7.92667 43.4048 7.02C43.9381 6.1 44.6314 5.39333 45.4848 4.9C46.3381 4.39333 47.3048 4.14 48.3848 4.14C49.5181 4.14 50.5048 4.39333 51.3448 4.9C52.1848 5.40667 52.8381 6.12 53.3048 7.04C53.7848 7.96 54.0248 9.03333 54.0248 10.26C54.0248 11.4733 53.7848 12.54 53.3048 13.46C52.8381 14.38 52.1848 15.0933 51.3448 15.6C50.5048 16.1067 49.5181 16.36 48.3848 16.36C47.2914 16.36 46.3181 16.1067 45.4648 15.6C44.6248 15.0933 43.9448 14.3867 43.4248 13.48C42.9048 12.56 42.5714 11.4867 42.4248 10.26ZM48.9048 10.26C48.9048 9.82 48.8114 9.42667 48.6248 9.08C48.4514 8.73333 48.1981 8.46 47.8648 8.26C47.5448 8.06 47.1714 7.96 46.7448 7.96C46.3048 7.96 45.8781 8.06 45.4648 8.26C45.0514 8.46 44.6914 8.73333 44.3848 9.08C44.0781 9.42667 43.8581 9.82 43.7248 10.26C43.8581 10.7 44.0781 11.0933 44.3848 11.44C44.6914 11.7733 45.0514 12.04 45.4648 12.24C45.8781 12.44 46.3048 12.54 46.7448 12.54C47.1714 12.54 47.5448 12.44 47.8648 12.24C48.1981 12.04 48.4514 11.7733 48.6248 11.44C48.8114 11.0933 48.9048 10.7 48.9048 10.26ZM55.5245 4.5H60.6045V7.34L60.4045 7.9V11.7L60.6045 12.8V19.3H55.5245V4.5ZM59.1045 10.26C59.2378 9.00667 59.5645 7.92667 60.0845 7.02C60.6178 6.1 61.3111 5.39333 62.1645 4.9C63.0178 4.39333 63.9845 4.14 65.0645 4.14C66.1978 4.14 67.1845 4.39333 68.0245 4.9C68.8645 5.40667 69.5178 6.12 69.9845 7.04C70.4645 7.96 70.7045 9.03333 70.7045 10.26C70.7045 11.4733 70.4645 12.54 69.9845 13.46C69.5178 14.38 68.8645 15.0933 68.0245 15.6C67.1845 16.1067 66.1978 16.36 65.0645 16.36C63.9711 16.36 62.9978 16.1067 62.1445 15.6C61.3045 15.0933 60.6245 14.3867 60.1045 13.48C59.5845 12.56 59.2511 11.4867 59.1045 10.26ZM65.5845 10.26C65.5845 9.82 65.4911 9.42667 65.3045 9.08C65.1311 8.73333 64.8778 8.46 64.5445 8.26C64.2245 8.06 63.8511 7.96 63.4245 7.96C62.9845 7.96 62.5578 8.06 62.1445 8.26C61.7311 8.46 61.3711 8.73333 61.0645 9.08C60.7578 9.42667 60.5378 9.82 60.4045 10.26C60.5378 10.7 60.7578 11.0933 61.0645 11.44C61.3711 11.7733 61.7311 12.04 62.1445 12.24C62.5578 12.44 62.9845 12.54 63.4245 12.54C63.8511 12.54 64.2245 12.44 64.5445 12.24C64.8778 12.04 65.1311 11.7733 65.3045 11.44C65.4911 11.0933 65.5845 10.7 65.5845 10.26ZM86.4641 12.08C86.4641 13.04 86.1641 13.84 85.5641 14.48C84.9641 15.1067 84.1241 15.58 83.0441 15.9C81.9775 16.2067 80.7241 16.36 79.2841 16.36C77.8041 16.36 76.4975 16.1867 75.3641 15.84C74.2441 15.48 73.3575 14.98 72.7041 14.34C72.0641 13.7 71.7241 12.9533 71.6841 12.1H76.8441C76.9375 12.3533 77.0975 12.5667 77.3241 12.74C77.5508 12.9 77.8441 13.0267 78.2041 13.12C78.5775 13.2 79.0308 13.24 79.5641 13.24C80.2041 13.24 80.6908 13.18 81.0241 13.06C81.3575 12.9267 81.5241 12.7467 81.5241 12.52C81.5241 12.2933 81.3841 12.1333 81.1041 12.04C80.8241 11.9467 80.3708 11.88 79.7441 11.84L77.8641 11.72C76.4108 11.6267 75.2508 11.44 74.3841 11.16C73.5308 10.8667 72.9175 10.4733 72.5441 9.98C72.1708 9.48667 71.9841 8.89333 71.9841 8.2C71.9841 7.28 72.2708 6.52 72.8441 5.92C73.4308 5.32 74.2441 4.87333 75.2841 4.58C76.3241 4.28667 77.5375 4.14 78.9241 4.14C80.2841 4.14 81.4908 4.31333 82.5441 4.66C83.5975 4.99333 84.4441 5.46667 85.0841 6.08C85.7241 6.69333 86.0975 7.40667 86.2041 8.22H81.0441C80.9775 7.98 80.8441 7.77333 80.6441 7.6C80.4441 7.42667 80.1841 7.29333 79.8641 7.2C79.5441 7.10667 79.1575 7.06 78.7041 7.06C78.0908 7.06 77.6441 7.13333 77.3641 7.28C77.0841 7.41333 76.9441 7.59333 76.9441 7.82C76.9441 8.03333 77.0308 8.18667 77.2041 8.28C77.3775 8.36 77.7175 8.41333 78.2241 8.44L80.7441 8.6C82.1841 8.68 83.3175 8.86667 84.1441 9.16C84.9841 9.44 85.5775 9.82 85.9241 10.3C86.2841 10.78 86.4641 11.3733 86.4641 12.08Z" />
  </mask>
  <g filter="url(#filter0_i_33344_5524)">
    <path
      d="M9.17367 0.999999C11.0003 0.999999 12.5937 1.31333 13.9537 1.94C15.327 2.55333 16.3937 3.42 17.1537 4.54C17.9137 5.66 18.2937 6.98 18.2937 8.5C18.2937 10.0067 17.9137 11.3267 17.1537 12.46C16.3937 13.58 15.327 14.4533 13.9537 15.08C12.5937 15.6933 11.0003 16 9.17367 16H1.21367V0.999999H9.17367ZM6.33367 13.7L4.01367 11.4H9.57367C10.307 11.4 10.9337 11.2867 11.4537 11.06C11.987 10.82 12.3937 10.4867 12.6737 10.06C12.9537 9.62 13.0937 9.1 13.0937 8.5C13.0937 7.88667 12.9537 7.36667 12.6737 6.94C12.3937 6.51333 11.987 6.18667 11.4537 5.96C10.9337 5.72 10.307 5.6 9.57367 5.6H4.01367L6.33367 3.3V13.7ZM22.7229 13.48V9.38H32.9429V13.48H22.7229ZM31.3629 0.999999L37.9429 16H32.4429L27.2629 3.28H28.5829L23.4029 16H17.9029L24.4829 0.999999H31.3629ZM38.8448 4.5H43.9248V7.34L43.7248 7.9V11.7L43.9248 12.8V19.3H38.8448V4.5ZM42.4248 10.26C42.5581 9.00667 42.8848 7.92667 43.4048 7.02C43.9381 6.1 44.6314 5.39333 45.4848 4.9C46.3381 4.39333 47.3048 4.14 48.3848 4.14C49.5181 4.14 50.5048 4.39333 51.3448 4.9C52.1848 5.40667 52.8381 6.12 53.3048 7.04C53.7848 7.96 54.0248 9.03333 54.0248 10.26C54.0248 11.4733 53.7848 12.54 53.3048 13.46C52.8381 14.38 52.1848 15.0933 51.3448 15.6C50.5048 16.1067 49.5181 16.36 48.3848 16.36C47.2914 16.36 46.3181 16.1067 45.4648 15.6C44.6248 15.0933 43.9448 14.3867 43.4248 13.48C42.9048 12.56 42.5714 11.4867 42.4248 10.26ZM48.9048 10.26C48.9048 9.82 48.8114 9.42667 48.6248 9.08C48.4514 8.73333 48.1981 8.46 47.8648 8.26C47.5448 8.06 47.1714 7.96 46.7448 7.96C46.3048 7.96 45.8781 8.06 45.4648 8.26C45.0514 8.46 44.6914 8.73333 44.3848 9.08C44.0781 9.42667 43.8581 9.82 43.7248 10.26C43.8581 10.7 44.0781 11.0933 44.3848 11.44C44.6914 11.7733 45.0514 12.04 45.4648 12.24C45.8781 12.44 46.3048 12.54 46.7448 12.54C47.1714 12.54 47.5448 12.44 47.8648 12.24C48.1981 12.04 48.4514 11.7733 48.6248 11.44C48.8114 11.0933 48.9048 10.7 48.9048 10.26ZM55.5245 4.5H60.6045V7.34L60.4045 7.9V11.7L60.6045 12.8V19.3H55.5245V4.5ZM59.1045 10.26C59.2378 9.00667 59.5645 7.92667 60.0845 7.02C60.6178 6.1 61.3111 5.39333 62.1645 4.9C63.0178 4.39333 63.9845 4.14 65.0645 4.14C66.1978 4.14 67.1845 4.39333 68.0245 4.9C68.8645 5.40667 69.5178 6.12 69.9845 7.04C70.4645 7.96 70.7045 9.03333 70.7045 10.26C70.7045 11.4733 70.4645 12.54 69.9845 13.46C69.5178 14.38 68.8645 15.0933 68.0245 15.6C67.1845 16.1067 66.1978 16.36 65.0645 16.36C63.9711 16.36 62.9978 16.1067 62.1445 15.6C61.3045 15.0933 60.6245 14.3867 60.1045 13.48C59.5845 12.56 59.2511 11.4867 59.1045 10.26ZM65.5845 10.26C65.5845 9.82 65.4911 9.42667 65.3045 9.08C65.1311 8.73333 64.8778 8.46 64.5445 8.26C64.2245 8.06 63.8511 7.96 63.4245 7.96C62.9845 7.96 62.5578 8.06 62.1445 8.26C61.7311 8.46 61.3711 8.73333 61.0645 9.08C60.7578 9.42667 60.5378 9.82 60.4045 10.26C60.5378 10.7 60.7578 11.0933 61.0645 11.44C61.3711 11.7733 61.7311 12.04 62.1445 12.24C62.5578 12.44 62.9845 12.54 63.4245 12.54C63.8511 12.54 64.2245 12.44 64.5445 12.24C64.8778 12.04 65.1311 11.7733 65.3045 11.44C65.4911 11.0933 65.5845 10.7 65.5845 10.26ZM86.4641 12.08C86.4641 13.04 86.1641 13.84 85.5641 14.48C84.9641 15.1067 84.1241 15.58 83.0441 15.9C81.9775 16.2067 80.7241 16.36 79.2841 16.36C77.8041 16.36 76.4975 16.1867 75.3641 15.84C74.2441 15.48 73.3575 14.98 72.7041 14.34C72.0641 13.7 71.7241 12.9533 71.6841 12.1H76.8441C76.9375 12.3533 77.0975 12.5667 77.3241 12.74C77.5508 12.9 77.8441 13.0267 78.2041 13.12C78.5775 13.2 79.0308 13.24 79.5641 13.24C80.2041 13.24 80.6908 13.18 81.0241 13.06C81.3575 12.9267 81.5241 12.7467 81.5241 12.52C81.5241 12.2933 81.3841 12.1333 81.1041 12.04C80.8241 11.9467 80.3708 11.88 79.7441 11.84L77.8641 11.72C76.4108 11.6267 75.2508 11.44 74.3841 11.16C73.5308 10.8667 72.9175 10.4733 72.5441 9.98C72.1708 9.48667 71.9841 8.89333 71.9841 8.2C71.9841 7.28 72.2708 6.52 72.8441 5.92C73.4308 5.32 74.2441 4.87333 75.2841 4.58C76.3241 4.28667 77.5375 4.14 78.9241 4.14C80.2841 4.14 81.4908 4.31333 82.5441 4.66C83.5975 4.99333 84.4441 5.46667 85.0841 6.08C85.7241 6.69333 86.0975 7.40667 86.2041 8.22H81.0441C80.9775 7.98 80.8441 7.77333 80.6441 7.6C80.4441 7.42667 80.1841 7.29333 79.8641 7.2C79.5441 7.10667 79.1575 7.06 78.7041 7.06C78.0908 7.06 77.6441 7.13333 77.3641 7.28C77.0841 7.41333 76.9441 7.59333 76.9441 7.82C76.9441 8.03333 77.0308 8.18667 77.2041 8.28C77.3775 8.36 77.7175 8.41333 78.2241 8.44L80.7441 8.6C82.1841 8.68 83.3175 8.86667 84.1441 9.16C84.9841 9.44 85.5775 9.82 85.9241 10.3C86.2841 10.78 86.4641 11.3733 86.4641 12.08Z"
      fill="#BFFF60" />
  </g>
  <path
    d="M13.9537 1.94L13.5351 2.84828L13.5459 2.85308L13.9537 1.94ZM17.1537 4.54L17.9811 3.9785L17.9811 3.9785L17.1537 4.54ZM17.1537 12.46L17.9812 13.0215L17.9842 13.017L17.1537 12.46ZM13.9537 15.08L14.3648 15.9916L14.3688 15.9898L13.9537 15.08ZM1.21367 16H0.213672V17H1.21367V16ZM1.21367 0.999999V-1.19209e-06H0.213672V0.999999H1.21367ZM6.33367 13.7L5.62963 14.4102L7.33367 16.0995V13.7H6.33367ZM4.01367 11.4V10.4H1.5846L3.30963 12.1102L4.01367 11.4ZM11.4537 11.06L11.8533 11.9768L11.864 11.9719L11.4537 11.06ZM12.6737 10.06L13.5098 10.6087L13.5173 10.5969L12.6737 10.06ZM12.6737 6.94L11.8376 7.48866L11.8376 7.48866L12.6737 6.94ZM11.4537 5.96L11.0346 6.86796L11.0485 6.87436L11.0625 6.88033L11.4537 5.96ZM4.01367 5.6L3.30963 4.88984L1.5846 6.6H4.01367V5.6ZM6.33367 3.3H7.33367V0.900489L5.62963 2.58984L6.33367 3.3ZM9.17367 2C10.887 2 12.332 2.29381 13.5352 2.84822L14.3722 1.03178C12.8553 0.332853 11.1137 -1.19209e-06 9.17367 -1.19209e-06V2ZM13.5459 2.85308C14.7688 3.39924 15.682 4.1522 16.3262 5.1015L17.9811 3.9785C17.1053 2.6878 15.8852 1.70742 14.3615 1.02692L13.5459 2.85308ZM16.3262 5.1015C16.9602 6.03588 17.2937 7.15467 17.2937 8.5H19.2937C19.2937 6.80533 18.8671 5.28412 17.9811 3.9785L16.3262 5.1015ZM17.2937 8.5C17.2937 9.82982 16.9613 10.9514 16.3231 11.903L17.9842 13.017C18.8661 11.7019 19.2937 10.1835 19.2937 8.5H17.2937ZM16.3262 11.8985C15.6807 12.8498 14.7649 13.6107 13.5385 14.1702L14.3688 15.9898C15.8891 15.296 17.1067 14.3102 17.9811 13.0215L16.3262 11.8985ZM13.5426 14.1684C12.3374 14.7119 10.8897 15 9.17367 15V17C11.111 17 12.85 16.6747 14.3648 15.9916L13.5426 14.1684ZM9.17367 15H1.21367V17H9.17367V15ZM2.21367 16V0.999999H0.213672V16H2.21367ZM1.21367 2H9.17367V-1.19209e-06H1.21367V2ZM7.03771 12.9898L4.71771 10.6898L3.30963 12.1102L5.62963 14.4102L7.03771 12.9898ZM4.01367 12.4H9.57367V10.4H4.01367V12.4ZM9.57367 12.4C10.406 12.4 11.1761 12.2719 11.8533 11.9767L11.0541 10.1433C10.6912 10.3015 10.2081 10.4 9.57367 10.4V12.4ZM11.864 11.9719C12.545 11.6655 13.1107 11.2167 13.5097 10.6087L11.8376 9.51134C11.6766 9.75664 11.429 9.9745 11.0433 10.1481L11.864 11.9719ZM13.5173 10.5969C13.9141 9.9734 14.0937 9.26091 14.0937 8.5H12.0937C12.0937 8.93909 11.9933 9.2666 11.83 9.52312L13.5173 10.5969ZM14.0937 8.5C14.0937 7.73156 13.9166 7.0114 13.5097 6.39134L11.8376 7.48866C11.9907 7.72193 12.0937 8.04178 12.0937 8.5H14.0937ZM13.5097 6.39134C13.1071 5.7779 12.5345 5.33277 11.8448 5.03967L11.0625 6.88033C11.4395 7.04056 11.6802 7.24877 11.8376 7.48866L13.5097 6.39134ZM11.8727 5.05204C11.1899 4.73691 10.4126 4.6 9.57367 4.6V6.6C10.2014 6.6 10.6774 6.70309 11.0346 6.86796L11.8727 5.05204ZM9.57367 4.6H4.01367V6.6H9.57367V4.6ZM4.71771 6.31016L7.03771 4.01016L5.62963 2.58984L3.30963 4.88984L4.71771 6.31016ZM5.33367 3.3V13.7H7.33367V3.3H5.33367ZM22.7229 13.48H21.7229V14.48H22.7229V13.48ZM22.7229 9.38V8.38H21.7229V9.38H22.7229ZM32.9429 9.38H33.9429V8.38H32.9429V9.38ZM32.9429 13.48V14.48H33.9429V13.48H32.9429ZM31.3629 0.999999L32.2787 0.598283L32.0162 -1.19209e-06H31.3629V0.999999ZM37.9429 16V17H39.4735L38.8587 15.5983L37.9429 16ZM32.4429 16L31.5167 16.3772L31.7704 17H32.4429V16ZM27.2629 3.28V2.28H25.7759L26.3367 3.65716L27.2629 3.28ZM28.5829 3.28L29.509 3.65716L30.0699 2.28H28.5829V3.28ZM23.4029 16V17H24.0754L24.329 16.3772L23.4029 16ZM17.9029 16L16.9871 15.5983L16.3722 17H17.9029V16ZM24.4829 0.999999V-1.19209e-06H23.8296L23.5671 0.598283L24.4829 0.999999ZM23.7229 13.48V9.38H21.7229V13.48H23.7229ZM22.7229 10.38H32.9429V8.38H22.7229V10.38ZM31.9429 9.38V13.48H33.9429V9.38H31.9429ZM32.9429 12.48H22.7229V14.48H32.9429V12.48ZM30.4471 1.40171L37.0271 16.4017L38.8587 15.5983L32.2787 0.598283L30.4471 1.40171ZM37.9429 15H32.4429V17H37.9429V15ZM33.369 15.6228L28.189 2.90284L26.3367 3.65716L31.5167 16.3772L33.369 15.6228ZM27.2629 4.28H28.5829V2.28H27.2629V4.28ZM27.6567 2.90284L22.4767 15.6228L24.329 16.3772L29.509 3.65716L27.6567 2.90284ZM23.4029 15H17.9029V17H23.4029V15ZM18.8187 16.4017L25.3987 1.40171L23.5671 0.598283L16.9871 15.5983L18.8187 16.4017ZM24.4829 2H31.3629V-1.19209e-06H24.4829V2ZM38.8448 4.5V3.5H37.8448V4.5H38.8448ZM43.9248 4.5H44.9248V3.5H43.9248V4.5ZM43.9248 7.34L44.8665 7.67634L44.9248 7.51321V7.34H43.9248ZM43.7248 7.9L42.783 7.56366L42.7248 7.72679V7.9H43.7248ZM43.7248 11.7H42.7248V11.7902L42.7409 11.8789L43.7248 11.7ZM43.9248 12.8H44.9248V12.7098L44.9086 12.6211L43.9248 12.8ZM43.9248 19.3V20.3H44.9248V19.3H43.9248ZM38.8448 19.3H37.8448V20.3H38.8448V19.3ZM42.4248 10.26L41.4304 10.1542L41.4184 10.2665L41.4318 10.3787L42.4248 10.26ZM43.4048 7.02L42.5396 6.51846L42.5373 6.52249L43.4048 7.02ZM45.4848 4.9L45.9853 5.76579L45.9953 5.75985L45.4848 4.9ZM51.3448 4.9L50.8283 5.75629V5.75629L51.3448 4.9ZM53.3048 7.04L52.4129 7.4924L52.4182 7.50257L53.3048 7.04ZM53.3048 13.46L52.4181 12.9974L52.4129 13.0076L53.3048 13.46ZM51.3448 15.6L50.8283 14.7437L51.3448 15.6ZM45.4648 15.6L44.9483 16.4563L44.9542 16.4599L45.4648 15.6ZM43.4248 13.48L42.5542 13.9721L42.5573 13.9775L43.4248 13.48ZM48.6248 9.08L47.7303 9.52721L47.7371 9.54076L47.7443 9.5541L48.6248 9.08ZM47.8648 8.26L47.3348 9.108L47.3425 9.11282L47.3503 9.11749L47.8648 8.26ZM45.4648 8.26L45.0292 7.35984L45.4648 8.26ZM43.7248 10.26L42.7677 9.96999L42.6799 10.26L42.7677 10.55L43.7248 10.26ZM44.3848 11.44L43.6358 12.1026L43.6422 12.1099L43.6488 12.1171L44.3848 11.44ZM45.4648 12.24L45.0292 13.1402V13.1402L45.4648 12.24ZM47.8648 12.24L47.3503 11.3825L47.3425 11.3872L47.3348 11.392L47.8648 12.24ZM48.6248 11.44L47.7443 10.9659L47.7409 10.9722L47.7375 10.9786L48.6248 11.44ZM38.8448 5.5H43.9248V3.5H38.8448V5.5ZM42.9248 4.5V7.34H44.9248V4.5H42.9248ZM42.983 7.00366L42.783 7.56366L44.6665 8.23634L44.8665 7.67634L42.983 7.00366ZM42.7248 7.9V11.7H44.7248V7.9H42.7248ZM42.7409 11.8789L42.9409 12.9789L44.9086 12.6211L44.7086 11.5211L42.7409 11.8789ZM42.9248 12.8V19.3H44.9248V12.8H42.9248ZM43.9248 18.3H38.8448V20.3H43.9248V18.3ZM39.8448 19.3V4.5H37.8448V19.3H39.8448ZM43.4192 10.3658C43.5408 9.22258 43.8339 8.2817 44.2722 7.51751L42.5373 6.52249C41.9356 7.57163 41.5754 8.79076 41.4304 10.1542L43.4192 10.3658ZM44.2699 7.52153C44.7227 6.7404 45.2951 6.16476 45.9853 5.76573L44.9843 4.03427C43.9678 4.62191 43.1535 5.4596 42.5396 6.51847L44.2699 7.52153ZM45.9953 5.75985C46.6806 5.35294 47.4681 5.14 48.3848 5.14V3.14C47.1415 3.14 45.9956 3.43373 44.9742 4.04015L45.9953 5.75985ZM48.3848 5.14C49.3648 5.14 50.167 5.35746 50.8283 5.75629L51.8613 4.04371C50.8425 3.42921 49.6714 3.14 48.3848 3.14V5.14ZM50.8283 5.75629C51.4993 6.16105 52.0265 6.73049 52.4129 7.49238L54.1966 6.58762C53.6497 5.50951 52.8702 4.65228 51.8613 4.04371L50.8283 5.75629ZM52.4182 7.50257C52.8112 8.2559 53.0248 9.16515 53.0248 10.26H55.0248C55.0248 8.90152 54.7583 7.6641 54.1914 6.57743L52.4182 7.50257ZM53.0248 10.26C53.0248 11.3395 52.812 12.2426 52.4182 12.9974L54.1914 13.9226C54.7575 12.8374 55.0248 11.6071 55.0248 10.26H53.0248ZM52.4129 13.0076C52.0265 13.7695 51.4993 14.3389 50.8283 14.7437L51.8613 16.4563C52.8702 15.8477 53.6497 14.9905 54.1966 13.9124L52.4129 13.0076ZM50.8283 14.7437C50.167 15.1425 49.3648 15.36 48.3848 15.36V17.36C49.6714 17.36 50.8425 17.0708 51.8613 16.4563L50.8283 14.7437ZM48.3848 15.36C47.4523 15.36 46.6587 15.1459 45.9753 14.7401L44.9542 16.4599C45.9775 17.0674 47.1306 17.36 48.3848 17.36V15.36ZM45.9813 14.7437C45.2964 14.3306 44.7334 13.7516 44.2922 12.9825L42.5573 13.9775C43.1562 15.0217 43.9531 15.8561 44.9483 16.4563L45.9813 14.7437ZM44.2953 12.9879C43.8504 12.2008 43.5513 11.2585 43.4177 10.1413L41.4318 10.3787C41.5916 11.7148 41.9591 12.9192 42.5542 13.9721L44.2953 12.9879ZM49.9048 10.26C49.9048 9.67428 49.7792 9.11474 49.5052 8.6059L47.7443 9.5541C47.8436 9.73859 47.9048 9.96572 47.9048 10.26H49.9048ZM49.5192 8.63279C49.2605 8.11548 48.8752 7.70005 48.3793 7.40251L47.3503 9.11749C47.521 9.21995 47.6423 9.35119 47.7303 9.52721L49.5192 8.63279ZM48.3948 7.412C47.8958 7.10014 47.3337 6.96 46.7448 6.96V8.96C47.0092 8.96 47.1937 9.01986 47.3348 9.108L48.3948 7.412ZM46.7448 6.96C46.1473 6.96 45.5723 7.09708 45.0292 7.35984L45.9003 9.16016C46.1839 9.02292 46.4622 8.96 46.7448 8.96V6.96ZM45.0292 7.35984C44.4957 7.61798 44.0294 7.97241 43.6358 8.41743L45.1338 9.74257C45.3534 9.49426 45.6071 9.30202 45.9003 9.16016L45.0292 7.35984ZM43.6358 8.41743C43.2344 8.87112 42.9431 9.39133 42.7677 9.96999L44.6818 10.55C44.7731 10.2487 44.9218 9.98221 45.1338 9.74257L43.6358 8.41743ZM42.7677 10.55C42.9431 11.1287 43.2344 11.6489 43.6358 12.1026L45.1338 10.7774C44.9218 10.5378 44.7731 10.2713 44.6818 9.96999L42.7677 10.55ZM43.6488 12.1171C44.0419 12.5443 44.5042 12.8861 45.0292 13.1402L45.9003 11.3398C45.5987 11.1939 45.341 11.0024 45.1207 10.7629L43.6488 12.1171ZM45.0292 13.1402C45.5723 13.4029 46.1473 13.54 46.7448 13.54V11.54C46.4622 11.54 46.1839 11.4771 45.9003 11.3398L45.0292 13.1402ZM46.7448 13.54C47.3337 13.54 47.8958 13.3999 48.3948 13.088L47.3348 11.392C47.1937 11.4801 47.0092 11.54 46.7448 11.54V13.54ZM48.3793 13.0975C48.8653 12.8059 49.2503 12.4045 49.512 11.9014L47.7375 10.9786C47.6525 11.1422 47.5309 11.2741 47.3503 11.3825L48.3793 13.0975ZM49.5052 11.9141C49.7792 11.4053 49.9048 10.8457 49.9048 10.26H47.9048C47.9048 10.5543 47.8436 10.7814 47.7443 10.9659L49.5052 11.9141ZM55.5245 4.5V3.5H54.5245V4.5H55.5245ZM60.6045 4.5H61.6045V3.5H60.6045V4.5ZM60.6045 7.34L61.5462 7.67634L61.6045 7.51321V7.34H60.6045ZM60.4045 7.9L59.4627 7.56366L59.4045 7.72679V7.9H60.4045ZM60.4045 11.7H59.4045V11.7902L59.4206 11.8789L60.4045 11.7ZM60.6045 12.8H61.6045V12.7098L61.5883 12.6211L60.6045 12.8ZM60.6045 19.3V20.3H61.6045V19.3H60.6045ZM55.5245 19.3H54.5245V20.3H55.5245V19.3ZM59.1045 10.26L58.1101 10.1542L58.0981 10.2665L58.1115 10.3787L59.1045 10.26ZM60.0845 7.02L59.2193 6.51846L59.217 6.52249L60.0845 7.02ZM62.1645 4.9L62.665 5.76579L62.675 5.75985L62.1645 4.9ZM68.0245 4.9L67.508 5.75629V5.75629L68.0245 4.9ZM69.9845 7.04L69.0926 7.4924L69.0979 7.50257L69.9845 7.04ZM69.9845 13.46L69.0978 12.9974L69.0926 13.0076L69.9845 13.46ZM68.0245 15.6L67.508 14.7437L68.0245 15.6ZM62.1445 15.6L61.6279 16.4563L61.6339 16.4599L62.1445 15.6ZM60.1045 13.48L59.2339 13.9721L59.237 13.9775L60.1045 13.48ZM65.3045 9.08L64.41 9.52721L64.4168 9.54076L64.424 9.5541L65.3045 9.08ZM64.5445 8.26L64.0145 9.108L64.0222 9.11282L64.03 9.11749L64.5445 8.26ZM62.1445 8.26L61.7089 7.35984L62.1445 8.26ZM60.4045 10.26L59.4474 9.96999L59.3595 10.26L59.4474 10.55L60.4045 10.26ZM61.0645 11.44L60.3155 12.1026L60.3219 12.1099L60.3285 12.1171L61.0645 11.44ZM62.1445 12.24L61.7089 13.1402V13.1402L62.1445 12.24ZM64.5445 12.24L64.03 11.3825L64.0222 11.3872L64.0145 11.392L64.5445 12.24ZM65.3045 11.44L64.424 10.9659L64.4206 10.9722L64.4172 10.9786L65.3045 11.44ZM55.5245 5.5H60.6045V3.5H55.5245V5.5ZM59.6045 4.5V7.34H61.6045V4.5H59.6045ZM59.6627 7.00366L59.4627 7.56366L61.3462 8.23634L61.5462 7.67634L59.6627 7.00366ZM59.4045 7.9V11.7H61.4045V7.9H59.4045ZM59.4206 11.8789L59.6206 12.9789L61.5883 12.6211L61.3883 11.5211L59.4206 11.8789ZM59.6045 12.8V19.3H61.6045V12.8H59.6045ZM60.6045 18.3H55.5245V20.3H60.6045V18.3ZM56.5245 19.3V4.5H54.5245V19.3H56.5245ZM60.0988 10.3658C60.2205 9.22258 60.5136 8.2817 60.9519 7.51751L59.217 6.52249C58.6153 7.57163 58.2551 8.79076 58.1101 10.1542L60.0988 10.3658ZM60.9496 7.52153C61.4024 6.7404 61.9748 6.16476 62.665 5.76573L61.664 4.03427C60.6475 4.62191 59.8331 5.4596 59.2193 6.51847L60.9496 7.52153ZM62.675 5.75985C63.3603 5.35294 64.1478 5.14 65.0645 5.14V3.14C63.8212 3.14 62.6752 3.43373 61.6539 4.04015L62.675 5.75985ZM65.0645 5.14C66.0445 5.14 66.8467 5.35746 67.508 5.75629L68.5409 4.04371C67.5222 3.42921 66.3511 3.14 65.0645 3.14V5.14ZM67.508 5.75629C68.179 6.16105 68.7062 6.73049 69.0926 7.49238L70.8763 6.58762C70.3294 5.50951 69.5499 4.65228 68.5409 4.04371L67.508 5.75629ZM69.0979 7.50257C69.4909 8.2559 69.7045 9.16515 69.7045 10.26H71.7045C71.7045 8.90152 71.438 7.6641 70.871 6.57743L69.0979 7.50257ZM69.7045 10.26C69.7045 11.3395 69.4917 12.2426 69.0979 12.9974L70.871 13.9226C71.4372 12.8374 71.7045 11.6071 71.7045 10.26H69.7045ZM69.0926 13.0076C68.7062 13.7695 68.179 14.3389 67.508 14.7437L68.5409 16.4563C69.5499 15.8477 70.3294 14.9905 70.8763 13.9124L69.0926 13.0076ZM67.508 14.7437C66.8467 15.1425 66.0445 15.36 65.0645 15.36V17.36C66.3511 17.36 67.5222 17.0708 68.5409 16.4563L67.508 14.7437ZM65.0645 15.36C64.132 15.36 63.3384 15.1459 62.655 14.7401L61.6339 16.4599C62.6572 17.0674 63.8102 17.36 65.0645 17.36V15.36ZM62.6609 14.7437C61.9761 14.3306 61.413 13.7516 60.9719 12.9825L59.237 13.9775C59.8359 15.0217 60.6328 15.8561 61.628 16.4563L62.6609 14.7437ZM60.975 12.9879C60.5301 12.2008 60.231 11.2585 60.0974 10.1413L58.1115 10.3787C58.2713 11.7148 58.6388 12.9192 59.2339 13.9721L60.975 12.9879ZM66.5844 10.26C66.5844 9.67428 66.4589 9.11474 66.1849 8.6059L64.424 9.5541C64.5233 9.73859 64.5844 9.96572 64.5844 10.26H66.5844ZM66.1989 8.63279C65.9402 8.11548 65.5549 7.70005 65.059 7.40251L64.03 9.11749C64.2007 9.21995 64.322 9.35119 64.41 9.52721L66.1989 8.63279ZM65.0745 7.412C64.5755 7.10014 64.0134 6.96 63.4245 6.96V8.96C63.6888 8.96 63.8734 9.01986 64.0145 9.108L65.0745 7.412ZM63.4245 6.96C62.827 6.96 62.2519 7.09708 61.7089 7.35984L62.58 9.16016C62.8636 9.02292 63.1419 8.96 63.4245 8.96V6.96ZM61.7089 7.35984C61.1754 7.61798 60.7091 7.97241 60.3155 8.41743L61.8134 9.74257C62.0331 9.49426 62.2868 9.30202 62.58 9.16016L61.7089 7.35984ZM60.3155 8.41743C59.9141 8.87112 59.6228 9.39133 59.4474 9.96999L61.3615 10.55C61.4528 10.2487 61.6015 9.98221 61.8134 9.74257L60.3155 8.41743ZM59.4474 10.55C59.6228 11.1287 59.9141 11.6489 60.3155 12.1026L61.8134 10.7774C61.6015 10.5378 61.4528 10.2713 61.3615 9.96999L59.4474 10.55ZM60.3285 12.1171C60.7216 12.5443 61.1839 12.8861 61.7089 13.1402L62.58 11.3398C62.2784 11.1939 62.0207 11.0024 61.8004 10.7629L60.3285 12.1171ZM61.7089 13.1402C62.2519 13.4029 62.827 13.54 63.4245 13.54V11.54C63.1419 11.54 62.8636 11.4771 62.58 11.3398L61.7089 13.1402ZM63.4245 13.54C64.0134 13.54 64.5755 13.3999 65.0745 13.088L64.0145 11.392C63.8734 11.4801 63.6888 11.54 63.4245 11.54V13.54ZM65.059 13.0975C65.545 12.8059 65.93 12.4045 66.1917 11.9014L64.4172 10.9786C64.3322 11.1422 64.2106 11.2741 64.03 11.3825L65.059 13.0975ZM66.1849 11.9141C66.4589 11.4053 66.5844 10.8457 66.5844 10.26H64.5844C64.5844 10.5543 64.5233 10.7814 64.424 10.9659L66.1849 11.9141ZM85.5641 14.48L86.2865 15.1716L86.2937 15.1639L85.5641 14.48ZM83.0441 15.9L83.3205 16.8611L83.3282 16.8588L83.0441 15.9ZM75.3641 15.84L75.0581 16.792L75.0649 16.7942L75.0716 16.7963L75.3641 15.84ZM72.7041 14.34L71.997 15.0471L72.0044 15.0544L72.7041 14.34ZM71.6841 12.1V11.1H70.6362L70.6852 12.1468L71.6841 12.1ZM76.8441 12.1L77.7825 11.7543L77.5414 11.1H76.8441V12.1ZM77.3241 12.74L76.7167 13.5344L76.7319 13.546L76.7475 13.557L77.3241 12.74ZM78.2041 13.12L77.9532 14.088L77.9738 14.0933L77.9946 14.0978L78.2041 13.12ZM81.0241 13.06L81.3629 14.0009L81.3793 13.995L81.3955 13.9885L81.0241 13.06ZM81.1041 12.04L81.4204 11.0913L81.1041 12.04ZM79.7441 11.84L79.6804 12.838L79.7441 11.84ZM77.8641 11.72L77.8001 12.7179L77.8004 12.718L77.8641 11.72ZM74.3841 11.16L74.0591 12.1057L74.0679 12.1087L74.0767 12.1116L74.3841 11.16ZM72.5441 9.98L73.3415 9.37656V9.37656L72.5441 9.98ZM72.8441 5.92L72.1291 5.22084L72.1211 5.22914L72.8441 5.92ZM75.2841 4.58L75.5556 5.54245L75.2841 4.58ZM82.5441 4.66L82.2315 5.60994L82.2424 5.6134L82.5441 4.66ZM85.0841 6.08L84.3922 6.80199V6.80199L85.0841 6.08ZM86.2041 8.22V9.22H87.3438L87.1956 8.08996L86.2041 8.22ZM81.0441 8.22L80.0806 8.48764L80.2841 9.22H81.0441V8.22ZM80.6441 7.6L81.2991 6.84431V6.84431L80.6441 7.6ZM79.8641 7.2L80.1441 6.24L79.8641 7.2ZM77.3641 7.28L77.7941 8.18286L77.8113 8.17467L77.8281 8.16583L77.3641 7.28ZM77.2041 8.28L76.73 9.16047L76.7571 9.17506L76.7851 9.18796L77.2041 8.28ZM78.2241 8.44L78.2875 7.44195L78.2767 7.44138L78.2241 8.44ZM80.7441 8.6L80.6808 9.59802L80.6887 9.59846L80.7441 8.6ZM84.1441 9.16L83.8097 10.1024L83.8188 10.1056L83.8279 10.1087L84.1441 9.16ZM85.9241 10.3L85.1135 10.8855L85.1187 10.8928L85.1241 10.9L85.9241 10.3ZM85.4641 12.08C85.4641 12.812 85.2438 13.3596 84.8346 13.7961L86.2937 15.1639C87.0845 14.3204 87.4641 13.268 87.4641 12.08H85.4641ZM84.8418 13.7884C84.3929 14.2573 83.7217 14.6563 82.7601 14.9412L83.3282 16.8588C84.5266 16.5037 85.5354 15.956 86.2864 15.1716L84.8418 13.7884ZM82.7678 14.9389C81.8131 15.2134 80.6568 15.36 79.2841 15.36V17.36C80.7915 17.36 82.1419 17.1999 83.3204 16.8611L82.7678 14.9389ZM79.2841 15.36C77.8797 15.36 76.675 15.1952 75.6566 14.8837L75.0716 16.7963C76.3199 17.1781 77.7285 17.36 79.2841 17.36V15.36ZM75.6702 14.888C74.6571 14.5623 73.9191 14.1303 73.4039 13.6256L72.0044 15.0544C72.7958 15.8297 73.8312 16.3977 75.0581 16.792L75.6702 14.888ZM73.4112 13.6329C72.9359 13.1575 72.7106 12.642 72.683 12.0532L70.6852 12.1468C70.7376 13.2646 71.1924 14.2425 71.997 15.0471L73.4112 13.6329ZM71.6841 13.1H76.8441V11.1H71.6841V13.1ZM75.9058 12.4457C76.0685 12.8872 76.3484 13.2527 76.7167 13.5344L77.9316 11.9456C77.8465 11.8806 77.8065 11.8194 77.7825 11.7543L75.9058 12.4457ZM76.7475 13.557C77.0999 13.8058 77.5137 13.9741 77.9532 14.088L78.4551 12.152C78.1746 12.0793 78.0017 11.9942 77.9008 11.923L76.7475 13.557ZM77.9946 14.0978C78.4579 14.1971 78.9858 14.24 79.5641 14.24V12.24C79.0758 12.24 78.697 12.2029 78.4137 12.1422L77.9946 14.0978ZM79.5641 14.24C80.2421 14.24 80.8663 14.1797 81.3629 14.0009L80.6854 12.1191C80.5154 12.1803 80.1662 12.24 79.5641 12.24V14.24ZM81.3955 13.9885C81.857 13.8039 82.5241 13.3717 82.5241 12.52H80.5241C80.5241 12.4508 80.5375 12.3753 80.5676 12.302C80.5971 12.23 80.6352 12.1782 80.6654 12.1456C80.7185 12.0882 80.7405 12.0964 80.6527 12.1315L81.3955 13.9885ZM82.5241 12.52C82.5241 12.1819 82.4123 11.8465 82.1717 11.5715C81.9478 11.3156 81.6665 11.1734 81.4204 11.0913L80.7879 12.9887C80.8217 13 80.7505 12.9844 80.6666 12.8885C80.6226 12.8383 80.5838 12.7753 80.5576 12.7029C80.5318 12.6315 80.5241 12.5676 80.5241 12.52H82.5241ZM81.4204 11.0913C81.0098 10.9545 80.4465 10.8828 79.8078 10.842L79.6804 12.838C80.2951 12.8772 80.6385 12.9389 80.7879 12.9887L81.4204 11.0913ZM79.8078 10.842L77.9278 10.722L77.8004 12.718L79.6804 12.838L79.8078 10.842ZM77.9282 10.7221C76.5146 10.6313 75.4468 10.4524 74.6916 10.2084L74.0767 12.1116C75.0548 12.4276 76.307 12.6221 77.8001 12.7179L77.9282 10.7221ZM74.7092 10.2143C73.962 9.95747 73.5516 9.65418 73.3415 9.37656L71.7467 10.5834C72.2833 11.2925 73.0996 11.7759 74.0591 12.1057L74.7092 10.2143ZM73.3415 9.37656C73.1154 9.07775 72.9841 8.70312 72.9841 8.2H70.9841C70.9841 9.08355 71.2262 9.89558 71.7467 10.5834L73.3415 9.37656ZM72.9841 8.2C72.9841 7.50693 73.1916 7.00391 73.5671 6.61086L72.1211 5.22914C71.3501 6.03609 70.9841 7.05307 70.9841 8.2H72.9841ZM73.5592 6.61912C73.9932 6.1752 74.6366 5.80166 75.5556 5.54245L75.0127 3.61755C73.8517 3.945 72.8684 4.4648 72.1291 5.22088L73.5592 6.61912ZM75.5556 5.54245C76.4864 5.27991 77.6047 5.14 78.9241 5.14V3.14C77.4702 3.14 76.1619 3.29342 75.0127 3.61755L75.5556 5.54245ZM78.9241 5.14C80.2011 5.14 81.2989 5.30295 82.2315 5.60988L82.8568 3.71012C81.6827 3.32372 80.3672 3.14 78.9241 3.14V5.14ZM82.2424 5.6134C83.1848 5.91163 83.8867 6.31752 84.3922 6.80199L85.776 5.35801C85.0016 4.61581 84.0101 4.07503 82.8458 3.7066L82.2424 5.6134ZM84.3922 6.80199C84.8821 7.27143 85.138 7.78109 85.2126 8.35003L87.1956 8.08996C87.0569 7.03224 86.5662 6.11524 85.776 5.35801L84.3922 6.80199ZM86.2041 7.22H81.0441V9.22H86.2041V7.22ZM82.0077 7.95236C81.885 7.51079 81.6379 7.13798 81.2991 6.84431L79.9892 8.35569C80.0504 8.40869 80.0699 8.44921 80.0806 8.48764L82.0077 7.95236ZM81.2991 6.84431C80.9659 6.55554 80.5676 6.36351 80.1441 6.24L79.5841 8.16C79.8007 8.22315 79.9224 8.2978 79.9892 8.35569L81.2991 6.84431ZM80.1441 6.24C79.7072 6.11254 79.2206 6.06 78.7041 6.06V8.06C79.0943 8.06 79.3811 8.10079 79.5841 8.16L80.1441 6.24ZM78.7041 6.06C78.0541 6.06 77.4035 6.13051 76.9001 6.39417L77.8281 8.16583C77.8848 8.13616 78.1275 8.06 78.7041 8.06V6.06ZM76.9342 6.37714C76.4558 6.60493 75.9441 7.06551 75.9441 7.82H77.9441C77.9441 7.86808 77.9364 7.9248 77.9159 7.98426C77.8955 8.04365 77.867 8.09233 77.8385 8.12894C77.7848 8.19802 77.7467 8.20544 77.7941 8.18286L76.9342 6.37714ZM75.9441 7.82C75.9441 8.06282 75.9942 8.33156 76.1386 8.58706C76.2854 8.84687 76.4974 9.03519 76.73 9.16047L77.6782 7.39953C77.7376 7.43147 77.8195 7.49647 77.8797 7.60294C77.9374 7.7051 77.9441 7.79052 77.9441 7.82H75.9441ZM76.7851 9.18796C76.9974 9.28596 77.2335 9.33644 77.4342 9.36792C77.6499 9.40176 77.8984 9.42424 78.1716 9.43862L78.2767 7.44138C78.0432 7.42909 77.8684 7.41158 77.7441 7.39208C77.6048 7.37023 77.5842 7.35404 77.6232 7.37204L76.7851 9.18796ZM78.1608 9.43799L80.6808 9.59799L80.8075 7.60201L78.2875 7.44201L78.1608 9.43799ZM80.6887 9.59846C82.0863 9.67611 83.1119 9.85481 83.8097 10.1024L84.4786 8.21757C83.523 7.87852 82.282 7.68389 80.7996 7.60154L80.6887 9.59846ZM83.8279 10.1087C84.5624 10.3535 84.9367 10.6407 85.1135 10.8855L86.7348 9.71451C86.2183 8.9993 85.4059 8.52649 84.4604 8.21132L83.8279 10.1087ZM85.1241 10.9C85.3323 11.1776 85.4641 11.5499 85.4641 12.08H87.4641C87.4641 11.1968 87.236 10.3824 86.7241 9.7L85.1241 10.9Z"
    fill="black" mask="url(#path-1-outside-1_33344_5524)" />
  <defs>
    <filter id="filter0_i_33344_5524" x="0.213669" y="0" width="87.2505" height="20.2998"
      filterUnits="userSpaceOnUse" color-interpolation-filters="sRGB">
      <feFlood flood-opacity="0" result="BackgroundImageFix" />
      <feBlend mode="normal" in="SourceGraphic" in2="BackgroundImageFix" result="shape" />
      <feColorMatrix in="SourceAlpha" type="matrix"
        values="0 0 0 0 0 0 0 0 0 0 0 0 0 0 0 0 0 0 127 0" result="hardAlpha" />
      <feOffset dy="-3" />
      <feComposite in2="hardAlpha" operator="arithmetic" k2="-1" k3="1" />
      <feColorMatrix type="matrix" values="0 0 0 0 0 0 0 0 0 0 0 0 0 0 0 0 0 0 0.25 0" />
      <feBlend mode="normal" in2="shape" result="effect1_innerShadow_33344_5524" />
    </filter>
  </defs>
</svg>