<svg width="390" height="380" viewBox="0 0 390 380" fill="none" xmlns="http://www.w3.org/2000/svg">
  <g filter="url(#filter0_d_33330_3206)">
    <path
      d="M1 32.2609C1 29.0779 2.26458 26.0254 4.51547 23.7749L13.778 14.514C16.0284 12.264 19.0803 11 22.2625 11H367.737C370.92 11 373.972 12.264 376.222 14.514L385.485 23.7749C387.735 26.0253 389 29.0779 389 32.2609V381H1V32.2609Z"
      fill="#2B294A" />
    <path
      d="M389 381.5H389.5V381V32.2609C389.5 28.9453 388.183 25.7655 385.838 23.4213L376.576 14.1604C374.231 11.8167 371.052 10.5 367.737 10.5H22.2625C18.9477 10.5 15.7686 11.8167 13.4245 14.1604L4.16195 23.4213C1.81727 25.7655 0.5 28.9453 0.5 32.2609V381V381.5H1H389Z"
      stroke="url(#paint0_linear_33330_3206)" />
  </g>
  <defs>
    <filter id="filter0_d_33330_3206" x="-10" y="0" width="410" height="392"
      filterUnits="userSpaceOnUse" color-interpolation-filters="sRGB">
      <feFlood flood-opacity="0" result="BackgroundImageFix" />
      <feColorMatrix in="SourceAlpha" type="matrix"
        values="0 0 0 0 0 0 0 0 0 0 0 0 0 0 0 0 0 0 127 0" result="hardAlpha" />
      <feOffset />
      <feGaussianBlur stdDeviation="5" />
      <feComposite in2="hardAlpha" operator="out" />
      <feColorMatrix type="matrix" values="0 0 0 0 0 0 0 0 0 0 0 0 0 0 0 0 0 0 0.05 0" />
      <feBlend mode="normal" in2="BackgroundImageFix" result="effect1_dropShadow_33330_3206" />
      <feBlend mode="normal" in="SourceGraphic" in2="effect1_dropShadow_33330_3206" result="shape" />
    </filter>
    <linearGradient id="paint0_linear_33330_3206" x1="189.5" y1="11" x2="189.5" y2="407.633"
      gradientUnits="userSpaceOnUse">
      <stop stop-color="#9892C0" />
      <stop offset="1" stop-color="#47445A" />
    </linearGradient>
  </defs>
</svg>