<svg width="390" height="115" viewBox="0 0 390 115" fill="none" xmlns="http://www.w3.org/2000/svg">
  <path
    d="M17.9294 17.4451C19.649 7.92469 27.9364 1 37.6109 1H352.934C362.608 1 370.896 7.92469 372.615 17.4451L390 113.693H0.544922L17.9294 17.4451Z"
    fill="#435589" stroke="black" />
  <g filter="url(#filter0_i_31843_1291)">
    <path
      d="M34.2086 21.2836C34.8692 16.3137 39.1078 12.6011 44.1215 12.6011H346.424C351.438 12.6011 355.676 16.3137 356.337 21.2836L367.627 106.236H22.9182L34.2086 21.2836Z"
      fill="#483F7D" />
  </g>
  <path
    d="M34.2086 21.2836C34.8692 16.3137 39.1078 12.6011 44.1215 12.6011H346.424C351.438 12.6011 355.676 16.3137 356.337 21.2836L367.627 106.236H22.9182L34.2086 21.2836Z"
    stroke="black" />
  <defs>
    <filter id="filter0_i_31843_1291" x="22.3474" y="12.1011" width="345.851" height="94.6348"
      filterUnits="userSpaceOnUse" color-interpolation-filters="sRGB">
      <feFlood flood-opacity="0" result="BackgroundImageFix" />
      <feBlend mode="normal" in="SourceGraphic" in2="BackgroundImageFix" result="shape" />
      <feColorMatrix in="SourceAlpha" type="matrix"
        values="0 0 0 0 0 0 0 0 0 0 0 0 0 0 0 0 0 0 127 0" result="hardAlpha" />
      <feOffset dy="6" />
      <feComposite in2="hardAlpha" operator="arithmetic" k2="-1" k3="1" />
      <feColorMatrix type="matrix" values="0 0 0 0 0 0 0 0 0 0 0 0 0 0 0 0 0 0 0.25 0" />
      <feBlend mode="normal" in2="shape" result="effect1_innerShadow_31843_1291" />
    </filter>
  </defs>
</svg>