<svg width="1440" height="635" viewBox="0 0 1440 635" fill="none" xmlns="http://www.w3.org/2000/svg">
<g clip-path="url(#clip0_31911_6)">
<path d="M-11 351.849C-11 350.144 -9.919 348.626 -8.3075 348.069L563.313 150.357C644.036 122.437 731.576 121.09 813.12 146.513L1575.29 384.136C1576.96 384.657 1578.1 386.204 1578.1 387.954L1578.1 638.5L-11.0001 638.5L-11 351.849Z" fill="#7470CA" stroke="black"/>
<path d="M-205.07 308.483C-207.66 307.619 -210.335 309.547 -210.335 312.277L-210.335 349.473L17.0001 423.651L593.391 224.991C674.097 197.175 761.585 195.908 843.063 221.375L1450.94 411.377C1453.52 412.182 1456.14 410.258 1456.14 407.559L1456.14 374.711L842.937 181.934C761.539 156.344 674.091 157.453 593.369 185.1L17 382.5L-205.07 308.483Z" fill="#302D62" stroke="black"/>
<path d="M-199.221 310.033C-202.834 308.829 -202.88 303.736 -199.29 302.467L551.438 36.9942C677.342 -7.52822 814.502 -8.77438 941.195 33.4531L1645.64 268.249C1649.05 269.387 1649.34 274.105 1646.1 275.654L1444 372L840.528 182.187C759.064 156.563 671.538 157.685 590.757 185.387L17.064 382.122L-199.221 310.033Z" fill="#5C58AD" stroke="black"/>
<g filter="url(#filter0_d_31911_6)">
<path d="M1055.98 227.334C1056.81 227.038 1057.71 227.023 1058.55 227.29L1181.5 266.622C1185.03 267.75 1185.26 272.656 1181.85 274.11L1165.31 281.17C1164.43 281.544 1163.45 281.593 1162.54 281.31L1036.48 241.953C1032.82 240.809 1032.71 235.662 1036.33 234.369L1055.98 227.334Z" fill="#463882"/>
<path d="M1055.98 227.334C1056.81 227.038 1057.71 227.023 1058.55 227.29L1181.5 266.622C1185.03 267.75 1185.26 272.656 1181.85 274.11L1165.31 281.17C1164.43 281.544 1163.45 281.593 1162.54 281.31L1036.48 241.953C1032.82 240.809 1032.71 235.662 1036.33 234.369L1055.98 227.334Z" stroke="black"/>
</g>
<g filter="url(#filter1_d_31911_6)">
<path d="M1031.59 250.367C1032.42 250.071 1033.32 250.055 1034.16 250.323L1157.11 289.654C1160.64 290.783 1160.87 295.688 1157.46 297.143L1140.92 304.203C1140.05 304.576 1139.07 304.626 1138.16 304.342L1012.09 264.986C1008.43 263.842 1008.32 258.695 1011.94 257.402L1031.59 250.367Z" fill="#463882"/>
<path d="M1031.59 250.367C1032.42 250.071 1033.32 250.055 1034.16 250.323L1157.11 289.654C1160.64 290.783 1160.87 295.688 1157.46 297.143L1140.92 304.203C1140.05 304.576 1139.07 304.626 1138.16 304.342L1012.09 264.986C1008.43 263.842 1008.32 258.695 1011.94 257.402L1031.59 250.367Z" stroke="black"/>
</g>
<g filter="url(#filter2_d_31911_6)">
<path d="M1008.56 272.722C1009.39 272.426 1010.29 272.41 1011.13 272.678L1134.08 312.009C1137.61 313.138 1137.84 318.043 1134.43 319.498L1117.89 326.558C1117.01 326.931 1116.03 326.981 1115.13 326.697L989.061 287.341C985.397 286.197 985.292 281.05 988.906 279.757L1008.56 272.722Z" fill="#463882"/>
<path d="M1008.56 272.722C1009.39 272.426 1010.29 272.41 1011.13 272.678L1134.08 312.009C1137.61 313.138 1137.84 318.043 1134.43 319.498L1117.89 326.558C1117.01 326.931 1116.03 326.981 1115.13 326.697L989.061 287.341C985.397 286.197 985.292 281.05 988.906 279.757L1008.56 272.722Z" stroke="black"/>
</g>
</g>
<defs>
<filter id="filter0_d_31911_6" x="1033.17" y="226.6" width="151.605" height="59.3912" filterUnits="userSpaceOnUse" color-interpolation-filters="sRGB">
<feFlood flood-opacity="0" result="BackgroundImageFix"/>
<feColorMatrix in="SourceAlpha" type="matrix" values="0 0 0 0 0 0 0 0 0 0 0 0 0 0 0 0 0 0 127 0" result="hardAlpha"/>
<feOffset dy="4"/>
<feComposite in2="hardAlpha" operator="out"/>
<feColorMatrix type="matrix" values="0 0 0 0 0.116424 0 0 0 0 0.125523 0 0 0 0 0.365104 0 0 0 1 0"/>
<feBlend mode="normal" in2="BackgroundImageFix" result="effect1_dropShadow_31911_6"/>
<feBlend mode="normal" in="SourceGraphic" in2="effect1_dropShadow_31911_6" result="shape"/>
</filter>
<filter id="filter1_d_31911_6" x="1008.79" y="249.633" width="151.605" height="59.3912" filterUnits="userSpaceOnUse" color-interpolation-filters="sRGB">
<feFlood flood-opacity="0" result="BackgroundImageFix"/>
<feColorMatrix in="SourceAlpha" type="matrix" values="0 0 0 0 0 0 0 0 0 0 0 0 0 0 0 0 0 0 127 0" result="hardAlpha"/>
<feOffset dy="4"/>
<feComposite in2="hardAlpha" operator="out"/>
<feColorMatrix type="matrix" values="0 0 0 0 0.116424 0 0 0 0 0.125523 0 0 0 0 0.365104 0 0 0 1 0"/>
<feBlend mode="normal" in2="BackgroundImageFix" result="effect1_dropShadow_31911_6"/>
<feBlend mode="normal" in="SourceGraphic" in2="effect1_dropShadow_31911_6" result="shape"/>
</filter>
<filter id="filter2_d_31911_6" x="985.753" y="271.988" width="151.605" height="59.3912" filterUnits="userSpaceOnUse" color-interpolation-filters="sRGB">
<feFlood flood-opacity="0" result="BackgroundImageFix"/>
<feColorMatrix in="SourceAlpha" type="matrix" values="0 0 0 0 0 0 0 0 0 0 0 0 0 0 0 0 0 0 127 0" result="hardAlpha"/>
<feOffset dy="4"/>
<feComposite in2="hardAlpha" operator="out"/>
<feColorMatrix type="matrix" values="0 0 0 0 0.116424 0 0 0 0 0.125523 0 0 0 0 0.365104 0 0 0 1 0"/>
<feBlend mode="normal" in2="BackgroundImageFix" result="effect1_dropShadow_31911_6"/>
<feBlend mode="normal" in="SourceGraphic" in2="effect1_dropShadow_31911_6" result="shape"/>
</filter>
<clipPath id="clip0_31911_6">
<rect width="1440" height="635" fill="white"/>
</clipPath>
</defs>
</svg>
