<svg width="1440" height="635" viewBox="0 0 1440 635" fill="none" xmlns="http://www.w3.org/2000/svg">
<g clip-path="url(#clip0_33018_2172)">
<path d="M-105.701 474.361C-105.701 472.675 -104.643 471.17 -103.057 470.598L613.717 212.254C697.697 181.985 789.39 180.679 874.199 208.542L1609.55 450.139C1611.19 450.679 1612.3 452.211 1612.3 453.939L1612.3 762.551L857.799 762.551L-105.701 762.551L-105.701 474.361Z" fill="#4A4784" stroke="black"/>
<path d="M718.5 625L854.5 577L1032.5 638.551L893.5 684L718.5 625Z" fill="black" fill-opacity="0.06"/>
<path d="M544.5 469L680.5 422L836.5 476.5L701.5 524.5L544.5 469Z" fill="black" fill-opacity="0.06"/>
<path d="M483.299 275.051L607.799 226.051L760.799 274.051L632.299 322.051L483.299 275.051Z" fill="black" fill-opacity="0.06"/>
<path d="M967 430L1100.5 383L1259 433L1125 480.5L967 430Z" fill="black" fill-opacity="0.06"/>
<path d="M86.2993 529.051L254 465.5L403 517L237 574.5L86.2993 529.051Z" fill="black" fill-opacity="0.06"/>
<g opacity="0.2">
<path d="M1656.49 413.519L897.799 720.05" stroke="black"/>
<path d="M1342.5 403.5L575.299 676.051" stroke="black"/>
<path d="M1204 345.5L389 636.5" stroke="black"/>
<path d="M1007.5 309.5L87.9999 625.36" stroke="black"/>
<path d="M865.488 234.521L-5.49998 564" stroke="black"/>
<path d="M652.299 239.05L1484.3 505.051" stroke="black"/>
<path d="M514.299 284.994L1441 582.5" stroke="black"/>
<path d="M400.5 325.5L1331.5 648" stroke="black"/>
<path d="M122 420.5L942 702" stroke="black"/>
<path d="M-81 476.408L466.5 646.5" stroke="black"/>
<path d="M272.299 376.213L1097 660.5" stroke="black"/>
</g>
<g filter="url(#filter0_d_33018_2172)">
<path d="M-3.50001 474.299C-3.5 477.072 -0.746642 479.004 1.86108 478.06L587.312 266.206C670.117 236.242 760.495 234.44 844.428 261.079L1436.29 448.932C1438.87 449.75 1441.5 447.825 1441.5 445.119L1441.5 427.501L924.066 253.459C792.467 209.195 649.589 211.941 519.788 261.23L-3.50003 459.934L-3.50001 474.299Z" fill="#5C58AD"/>
<path d="M-3.50001 474.299C-3.5 477.072 -0.746642 479.004 1.86108 478.06L587.312 266.206C670.117 236.242 760.495 234.44 844.428 261.079L1436.29 448.932C1438.87 449.75 1441.5 447.825 1441.5 445.119L1441.5 427.501L924.066 253.459C792.467 209.195 649.589 211.941 519.788 261.23L-3.50003 459.934L-3.50001 474.299Z" stroke="black"/>
</g>
<g filter="url(#filter1_i_33018_2172)">
<path d="M1555.26 473.755L843.036 251.14C759.903 225.156 670.561 227.016 588.582 256.438L-53.7005 486.954L-342.317 401.004L-342.317 357.68C-342.317 354.995 -339.722 353.072 -337.153 353.853L-53.7007 440.05L588.565 210.99C670.557 181.748 759.852 180.052 842.896 206.159L1556.67 430.553L1810.8 324.05L1810.8 365.55L1558.02 473.615C1557.15 473.989 1556.17 474.039 1555.26 473.755Z" fill="#302D62"/>
</g>
<path d="M1555.26 473.755L843.036 251.14C759.903 225.156 670.561 227.016 588.582 256.438L-53.7005 486.954L-342.317 401.004L-342.317 357.68C-342.317 354.995 -339.722 353.072 -337.153 353.853L-53.7007 440.05L588.565 210.99C670.557 181.748 759.852 180.052 842.896 206.159L1556.67 430.553L1810.8 324.05L1810.8 365.55L1558.02 473.615C1557.15 473.989 1556.17 474.039 1555.26 473.755Z" stroke="black"/>
<path d="M-308.498 355.83C-312.209 354.724 -312.34 349.516 -308.689 348.225L552.905 43.5482C678.537 -0.878104 815.385 -2.21731 941.863 39.7419L1785.58 319.645C1789.12 320.819 1789.27 325.768 1785.81 327.154L1553.01 420.458L840.911 197.635C757.781 171.623 668.433 173.458 586.441 202.859L-52.7007 432.05L-308.498 355.83Z" fill="#4D4997" stroke="black"/>
<path d="M290.299 136.358L364.462 110.222L424.799 129.043L350.637 155.179L290.299 136.358Z" fill="black" fill-opacity="0.08"/>
<path d="M143.299 189.176L217.462 163.041L277.799 181.862L203.637 207.997L143.299 189.176Z" fill="black" fill-opacity="0.08"/>
<path d="M-3.70068 242.176L70.4619 216.041L130.799 234.862L56.6367 260.997L-3.70068 242.176Z" fill="black" fill-opacity="0.08"/>
<path d="M439.299 83.3578L513.462 57.2223L573.799 76.0434L499.637 102.179L439.299 83.3578Z" fill="black" fill-opacity="0.08"/>
<path d="M589.299 30.3578L663.462 4.22234L723.799 23.0434L649.637 49.1789L589.299 30.3578Z" fill="black" fill-opacity="0.08"/>
<path d="M276.299 182.358L350.462 156.222L410.799 175.043L336.637 201.179L276.299 182.358Z" fill="black" fill-opacity="0.08"/>
<path d="M129.299 235.176L203.462 209.041L263.799 227.862L189.637 253.997L129.299 235.176Z" fill="black" fill-opacity="0.08"/>
<path d="M-17.7007 288.176L56.4619 262.041L116.799 280.862L42.6367 306.997L-17.7007 288.176Z" fill="black" fill-opacity="0.08"/>
<path d="M397.299 221.178L471.462 195.043L531.799 213.864L457.637 239.999L397.299 221.178Z" fill="black" fill-opacity="0.08"/>
<path d="M250.299 273.997L324.462 247.861L384.799 266.682L310.637 292.818L250.299 273.997Z" fill="black" fill-opacity="0.08"/>
<path d="M103.299 326.997L177.462 300.861L237.799 319.682L163.637 345.818L103.299 326.997Z" fill="black" fill-opacity="0.08"/>
<path d="M-43.7007 379.997L30.4619 353.861L90.7993 372.682L16.6367 398.818L-43.7007 379.997Z" fill="black" fill-opacity="0.08"/>
<path d="M545.299 169.176L619.462 143.041L679.799 161.862L605.637 187.997L545.299 169.176Z" fill="black" fill-opacity="0.08"/>
<path d="M680.299 162.176L754.462 136.041L814.799 154.862L740.637 180.997L680.299 162.176Z" fill="black" fill-opacity="0.08"/>
<path d="M425.299 129.18L499.462 103.045L559.799 121.866L485.637 148.001L425.299 129.18Z" fill="black" fill-opacity="0.08"/>
<path d="M574.299 76.1801L648.462 50.0446L708.799 68.8657L634.637 95.0012L574.299 76.1801Z" fill="black" fill-opacity="0.08"/>
<path d="M724.3 23.1801L798.463 -2.95539L858.8 15.8657L784.638 42.0012L724.3 23.1801Z" fill="black" fill-opacity="0.08"/>
<path d="M411.299 175.18L485.462 149.045L545.799 167.866L471.637 194.001L411.299 175.18Z" fill="black" fill-opacity="0.08"/>
<path d="M264.299 227.998L338.462 201.863L398.799 220.684L324.637 246.82L264.299 227.998Z" fill="black" fill-opacity="0.08"/>
<path d="M117.299 280.999L191.462 254.863L251.799 273.684L177.637 299.82L117.299 280.999Z" fill="black" fill-opacity="0.08"/>
<path d="M-29.7007 333.999L44.4619 307.863L104.799 326.684L30.6367 352.82L-29.7007 333.999Z" fill="black" fill-opacity="0.08"/>
<path d="M560.299 122.18L634.462 96.0446L694.799 114.866L620.637 141.001L560.299 122.18Z" fill="black" fill-opacity="0.08"/>
<path d="M694.3 115.18L768.463 89.0446L828.8 107.866L754.638 134.001L694.3 115.18Z" fill="black" fill-opacity="0.08"/>
<path d="M813.3 154.18L887.463 128.045L947.8 146.866L873.638 173.001L813.3 154.18Z" fill="black" fill-opacity="0.08"/>
<path d="M931.299 192.176L1005.46 166.041L1065.8 184.862L991.637 210.997L931.299 192.176Z" fill="black" fill-opacity="0.08"/>
<path d="M1051.3 231.176L1125.46 205.041L1185.8 223.862L1111.64 249.997L1051.3 231.176Z" fill="black" fill-opacity="0.08"/>
<path d="M1169.3 269.176L1243.46 243.041L1303.8 261.862L1229.64 287.997L1169.3 269.176Z" fill="black" fill-opacity="0.08"/>
<path d="M1287.3 307.176L1361.46 281.041L1421.8 299.862L1347.64 325.997L1287.3 307.176Z" fill="black" fill-opacity="0.08"/>
<path d="M1407.3 346.176L1481.46 320.041L1541.8 338.862L1467.64 364.997L1407.3 346.176Z" fill="black" fill-opacity="0.08"/>
<path d="M710.3 69.1801L784.463 43.0446L844.8 61.8657L770.638 88.0012L710.3 69.1801Z" fill="black" fill-opacity="0.08"/>
<path d="M829.3 108.18L903.463 82.0446L963.8 100.866L889.638 127.001L829.3 108.18Z" fill="black" fill-opacity="0.08"/>
<path d="M947.299 146.176L1021.46 120.041L1081.8 138.862L1007.64 164.997L947.299 146.176Z" fill="black" fill-opacity="0.08"/>
<path d="M1067.3 185.176L1141.46 159.041L1201.8 177.862L1127.64 203.997L1067.3 185.176Z" fill="black" fill-opacity="0.08"/>
<path d="M1185.3 223.176L1259.46 197.041L1319.8 215.862L1245.64 241.997L1185.3 223.176Z" fill="black" fill-opacity="0.08"/>
<path d="M1303.3 261.176L1377.46 235.041L1437.8 253.862L1363.64 279.997L1303.3 261.176Z" fill="black" fill-opacity="0.08"/>
<path d="M1423.3 300.176L1497.46 274.041L1557.8 292.862L1483.64 318.997L1423.3 300.176Z" fill="black" fill-opacity="0.08"/>
<path d="M1415.3 385.862L1466.46 367.041L1526.8 385.862L1475.64 404.683L1415.3 385.862Z" fill="black" fill-opacity="0.08"/>
<path d="M1295.3 345.649L1346.46 326.828L1406.8 345.649L1355.64 364.47L1295.3 345.649Z" fill="black" fill-opacity="0.08"/>
<path d="M1177.3 306.649L1228.46 287.828L1288.8 306.649L1237.64 325.47L1177.3 306.649Z" fill="black" fill-opacity="0.08"/>
<path d="M1061.3 268.649L1112.46 249.828L1172.8 268.649L1121.64 287.47L1061.3 268.649Z" fill="black" fill-opacity="0.08"/>
<path d="M940.299 229.649L991.461 210.828L1051.8 229.649L1000.64 248.47L940.299 229.649Z" fill="black" fill-opacity="0.08"/>
<path d="M822.299 191.649L873.461 172.828L933.799 191.649L882.637 210.47L822.299 191.649Z" fill="black" fill-opacity="0.08"/>
<path d="M844.3 62.1801L918.463 36.0446L978.8 54.8657L904.638 81.0012L844.3 62.1801Z" fill="black" fill-opacity="0.08"/>
<path d="M963.3 101.18L1037.46 75.0446L1097.8 93.8657L1023.64 120.001L963.3 101.18Z" fill="black" fill-opacity="0.08"/>
<path d="M1081.3 139.176L1155.46 113.041L1215.8 131.862L1141.64 157.997L1081.3 139.176Z" fill="black" fill-opacity="0.08"/>
<path d="M1201.3 178.176L1275.46 152.041L1335.8 170.862L1261.64 196.997L1201.3 178.176Z" fill="black" fill-opacity="0.08"/>
<path d="M1319.3 216.176L1393.46 190.041L1453.8 208.862L1379.64 234.997L1319.3 216.176Z" fill="black" fill-opacity="0.08"/>
<path d="M1437.3 254.176L1511.46 228.041L1571.8 246.862L1497.64 272.997L1437.3 254.176Z" fill="black" fill-opacity="0.08"/>
<path fill-rule="evenodd" clip-rule="evenodd" d="M-331.212 348.569C-334.854 349.857 -334.735 355.048 -331.039 356.168L-52.7005 440.55L585.647 211.506C667.667 182.076 757.055 180.236 840.218 206.265L1556.8 430.548L1808.43 326.882C1811.86 325.469 1811.68 320.555 1808.16 319.387L942.052 32.0544C815.574 -9.90478 678.726 -8.56553 553.093 35.8608L-331.212 348.569ZM-308.679 348.222C-312.331 349.514 -312.198 354.723 -308.486 355.827L-52.2005 432.05L586.407 202.901C668.419 173.473 757.798 171.629 840.955 197.649L1553.01 420.458L1785.81 327.155C1789.27 325.768 1789.12 320.819 1785.58 319.645L941.863 39.7422C815.385 -2.21701 678.538 -0.877836 552.905 43.5485L-308.679 348.222Z" fill="#5C58AD"/>
<path d="M-331.039 356.168L-330.894 355.69L-331.039 356.168ZM-331.212 348.569L-331.045 349.041H-331.045L-331.212 348.569ZM-52.7005 440.55L-52.8456 441.029L-52.6873 441.077L-52.5316 441.021L-52.7005 440.55ZM585.647 211.506L585.815 211.977L585.647 211.506ZM840.218 206.265L840.367 205.788L840.218 206.265ZM1556.8 430.548L1556.65 431.026L1556.82 431.08L1556.99 431.011L1556.8 430.548ZM1808.43 326.882L1808.62 327.344L1808.43 326.882ZM1808.16 319.387L1808.32 318.912L1808.16 319.387ZM942.052 32.0544L941.894 32.529L942.052 32.0544ZM553.093 35.8608L553.26 36.3322L553.093 35.8608ZM-308.486 355.827L-308.628 356.307L-308.486 355.827ZM-308.679 348.222L-308.846 347.751H-308.846L-308.679 348.222ZM-52.2005 432.05L-52.3431 432.53L-52.1859 432.576L-52.0316 432.521L-52.2005 432.05ZM586.407 202.901L586.238 202.431L586.407 202.901ZM840.955 197.649L841.105 197.172L840.955 197.649ZM1553.01 420.458L1552.86 420.935L1553.03 420.988L1553.2 420.922L1553.01 420.458ZM1785.81 327.155L1785.62 326.691L1785.81 327.155ZM1785.58 319.645L1785.74 319.171L1785.58 319.645ZM941.863 39.7422L941.706 40.2167L941.863 39.7422ZM552.905 43.5485L553.071 44.0199L552.905 43.5485ZM-330.894 355.69C-334.128 354.709 -334.232 350.167 -331.045 349.041L-331.378 348.098C-335.475 349.547 -335.342 355.386 -331.184 356.647L-330.894 355.69ZM-52.5555 440.072L-330.894 355.69L-331.184 356.647L-52.8456 441.029L-52.5555 440.072ZM585.478 211.035L-52.8694 440.08L-52.5316 441.021L585.815 211.977L585.478 211.035ZM840.367 205.788C757.1 179.726 667.601 181.569 585.478 211.035L585.815 211.977C667.734 182.584 757.01 180.746 840.068 206.742L840.367 205.788ZM1556.95 430.071L840.367 205.788L840.068 206.742L1556.65 431.026L1556.95 430.071ZM1808.24 326.419L1556.61 430.086L1556.99 431.011L1808.62 327.344L1808.24 326.419ZM1808.01 319.861C1811.09 320.883 1811.24 325.183 1808.24 326.419L1808.62 327.344C1812.48 325.755 1812.28 320.226 1808.32 318.912L1808.01 319.861ZM941.894 32.529L1808.01 319.861L1808.32 318.912L942.209 31.5798L941.894 32.529ZM553.26 36.3322C678.788 -8.05711 815.522 -9.39525 941.894 32.529L942.209 31.5798C815.626 -10.4143 678.664 -9.07395 552.926 35.3894L553.26 36.3322ZM-331.045 349.041L553.26 36.3322L552.926 35.3894L-331.378 348.098L-331.045 349.041ZM-308.343 355.348C-311.592 354.382 -311.708 349.824 -308.512 348.694L-308.846 347.751C-312.954 349.204 -312.805 355.064 -308.628 356.307L-308.343 355.348ZM-52.058 431.571L-308.343 355.348L-308.628 356.307L-52.3431 432.53L-52.058 431.571ZM586.238 202.431L-52.3694 431.58L-52.0316 432.521L586.576 203.372L586.238 202.431ZM841.105 197.172C757.844 171.119 668.353 172.966 586.238 202.431L586.576 203.372C668.486 173.98 757.753 172.139 840.806 198.127L841.105 197.172ZM1553.16 419.981L841.105 197.172L840.806 198.127L1552.86 420.935L1553.16 419.981ZM1785.62 326.691L1552.83 419.994L1553.2 420.922L1786 327.619L1785.62 326.691ZM1785.42 320.12C1788.52 321.147 1788.65 325.477 1785.62 326.691L1786 327.619C1789.89 326.059 1789.72 320.491 1785.74 319.171L1785.42 320.12ZM941.706 40.2167L1785.42 320.12L1785.74 319.171L942.021 39.2676L941.706 40.2167ZM553.071 44.0199C678.6 -0.369419 815.333 -1.70748 941.706 40.2167L942.021 39.2676C815.437 -2.72655 678.476 -1.38625 552.738 43.0771L553.071 44.0199ZM-308.512 348.694L553.071 44.0199L552.738 43.0771L-308.846 347.751L-308.512 348.694Z" fill="black"/>
<g filter="url(#filter2_d_33018_2172)">
<path d="M973.299 270.798C973.299 269.441 974.623 268.478 975.914 268.895L1053.91 294.102C1054.74 294.369 1055.3 295.138 1055.3 296.006V297.802C1055.3 299.159 1053.98 300.122 1052.68 299.705L974.684 274.498C973.859 274.231 973.299 273.462 973.299 272.595V270.798Z" fill="#78FEFF"/>
</g>
<path d="M839.299 227.765C839.299 226.417 840.605 225.455 841.892 225.855L924.892 251.613C925.729 251.873 926.299 252.647 926.299 253.523V255.335C926.299 256.683 924.994 257.645 923.707 257.245L840.707 231.487C839.87 231.227 839.299 230.453 839.299 229.577V227.765Z" fill="#23243D" stroke="black"/>
<path d="M612.299 226.879C612.299 225.499 610.934 224.534 609.632 224.994L531.632 252.579C530.833 252.862 530.299 253.617 530.299 254.465V256.222C530.299 257.603 531.665 258.568 532.966 258.108L610.966 230.522C611.765 230.24 612.299 229.484 612.299 228.637V226.879Z" fill="#23243D" stroke="black"/>
<g filter="url(#filter3_d_33018_2172)">
<path d="M474.299 275.879C474.299 274.499 472.934 273.534 471.632 273.994L393.632 301.579C392.833 301.862 392.299 302.617 392.299 303.465V305.222C392.299 306.603 393.665 307.568 394.966 307.108L472.966 279.522C473.765 279.24 474.299 278.484 474.299 277.637V275.879Z" fill="#78FEFF"/>
</g>
<path d="M336.299 324.879C336.299 323.499 334.934 322.534 333.632 322.994L255.632 350.579C254.833 350.862 254.299 351.617 254.299 352.465V354.222C254.299 355.603 255.665 356.568 256.966 356.108L334.966 328.522C335.765 328.24 336.299 327.484 336.299 326.637V324.879Z" fill="#23243D" stroke="black"/>
<g filter="url(#filter4_d_33018_2172)">
<path d="M198.299 373.879C198.299 372.499 196.934 371.534 195.632 371.994L117.632 399.579C116.833 399.862 116.299 400.617 116.299 401.465V403.222C116.299 404.603 117.665 405.568 118.966 405.108L196.966 377.522C197.765 377.24 198.299 376.484 198.299 375.637V373.879Z" fill="#78FEFF"/>
</g>
<path d="M60.2993 422.879C60.2993 421.499 58.9339 420.534 57.6325 420.994L-20.3675 448.579C-21.1665 448.862 -21.7007 449.617 -21.7007 450.465V452.222C-21.7007 453.603 -20.3353 454.568 -19.0338 454.108L58.9662 426.522C59.7652 426.24 60.2993 425.484 60.2993 424.637V422.879Z" fill="#23243D" stroke="black"/>
<g filter="url(#filter5_d_33018_2172)">
<path d="M679.799 212.801C679.799 211.799 680.531 210.954 681.526 210.834C687.238 210.146 706.32 208.05 726.799 208.05C747.313 208.05 766.776 210.153 772.566 210.838C773.563 210.956 774.299 211.801 774.299 212.806V214.736C774.299 215.956 773.227 216.899 772.017 216.746C765.964 215.984 748.477 214.05 726.799 214.05C705.191 214.05 688.066 215.971 682.088 216.739C680.876 216.895 679.799 215.95 679.799 214.728V212.801Z" fill="#78FEFF"/>
</g>
<path d="M1252.3 355.787C1252.3 354.433 1253.62 353.47 1254.91 353.882L1343.41 382.106C1344.24 382.37 1344.8 383.141 1344.8 384.011V385.813C1344.8 387.167 1343.48 388.13 1342.19 387.718L1253.69 359.494C1252.86 359.23 1252.3 358.459 1252.3 357.589V355.787Z" fill="#23243D" stroke="black"/>
<g filter="url(#filter6_d_33018_2172)">
<path d="M1391.3 399.787C1391.3 398.433 1392.62 397.47 1393.91 397.882L1482.41 426.106C1483.24 426.37 1483.8 427.141 1483.8 428.011V429.813C1483.8 431.167 1482.48 432.13 1481.19 431.718L1392.69 403.494C1391.86 403.23 1391.3 402.459 1391.3 401.589V399.787Z" fill="#78FEFF"/>
</g>
<g filter="url(#filter7_d_33018_2172)">
<path d="M1100.75 262.507C1101.58 262.211 1102.48 262.195 1103.32 262.463L1245.06 307.808C1248.59 308.936 1248.82 313.842 1245.41 315.296L1224.99 324.014C1224.12 324.387 1223.14 324.437 1222.23 324.153L1076.75 278.736C1073.09 277.592 1072.98 272.445 1076.59 271.151L1100.75 262.507Z" fill="#463882"/>
<path d="M1100.75 262.507C1101.58 262.211 1102.48 262.195 1103.32 262.463L1245.06 307.808C1248.59 308.936 1248.82 313.842 1245.41 315.296L1224.99 324.014C1224.12 324.387 1223.14 324.437 1222.23 324.153L1076.75 278.736C1073.09 277.592 1072.98 272.445 1076.59 271.151L1100.75 262.507Z" stroke="black"/>
</g>
<g filter="url(#filter8_d_33018_2172)">
<path d="M1072.95 288.759C1073.78 288.462 1074.68 288.447 1075.52 288.715L1217.27 334.06C1220.8 335.188 1221.03 340.094 1217.62 341.548L1197.19 350.266C1196.32 350.639 1195.34 350.689 1194.43 350.405L1048.95 304.988C1045.29 303.844 1045.19 298.697 1048.8 297.403L1072.95 288.759Z" fill="#463882"/>
<path d="M1072.95 288.759C1073.78 288.462 1074.68 288.447 1075.52 288.715L1217.27 334.06C1220.8 335.188 1221.03 340.094 1217.62 341.548L1197.19 350.266C1196.32 350.639 1195.34 350.689 1194.43 350.405L1048.95 304.988C1045.29 303.844 1045.19 298.697 1048.8 297.403L1072.95 288.759Z" stroke="black"/>
</g>
<g filter="url(#filter9_d_33018_2172)">
<path d="M1046.7 314.239C1047.53 313.943 1048.43 313.928 1049.27 314.195L1191.01 359.54C1194.54 360.669 1194.77 365.574 1191.37 367.029L1170.94 375.746C1170.07 376.12 1169.09 376.169 1168.18 375.886L1022.7 330.468C1019.04 329.324 1018.93 324.177 1022.55 322.884L1046.7 314.239Z" fill="#463882"/>
<path d="M1046.7 314.239C1047.53 313.943 1048.43 313.928 1049.27 314.195L1191.01 359.54C1194.54 360.669 1194.77 365.574 1191.37 367.029L1170.94 375.746C1170.07 376.12 1169.09 376.169 1168.18 375.886L1022.7 330.468C1019.04 329.324 1018.93 324.177 1022.55 322.884L1046.7 314.239Z" stroke="black"/>
</g>
<g filter="url(#filter10_d_33018_2172)">
<path d="M1175.48 328.992C1175.92 328.933 1176.34 329.166 1176.52 329.567L1178.66 334.24C1179.03 335.042 1178.26 335.892 1177.42 335.6L1167.22 332.022C1166.23 331.674 1166.38 330.229 1167.42 330.087L1175.48 328.992Z" fill="#78FEFF"/>
</g>
<g filter="url(#filter11_d_33018_2172)">
<path d="M1202.48 301.992C1202.92 301.933 1203.34 302.166 1203.52 302.567L1205.66 307.24C1206.03 308.042 1205.26 308.892 1204.42 308.6L1194.22 305.022C1193.23 304.674 1193.38 303.229 1194.42 303.087L1202.48 301.992Z" fill="#78FEFF"/>
</g>
<g filter="url(#filter12_d_33018_2172)">
<path d="M1112.42 280.437C1111.99 280.497 1111.56 280.263 1111.38 279.863L1109.24 275.189C1108.87 274.387 1109.65 273.537 1110.48 273.829L1120.68 277.408C1121.68 277.755 1121.53 279.201 1120.49 279.342L1112.42 280.437Z" fill="#FFBF49"/>
</g>
<g filter="url(#filter13_d_33018_2172)">
<path d="M1085.42 305.437C1084.99 305.497 1084.56 305.263 1084.38 304.863L1082.24 300.189C1081.87 299.387 1082.65 298.537 1083.48 298.829L1093.68 302.408C1094.68 302.755 1094.53 304.201 1093.49 304.342L1085.42 305.437Z" fill="#FFBF49"/>
</g>
<g filter="url(#filter14_d_33018_2172)">
<path d="M1057.42 332.437C1056.99 332.497 1056.56 332.263 1056.38 331.863L1054.24 327.189C1053.87 326.387 1054.65 325.537 1055.48 325.829L1065.68 329.408C1066.68 329.755 1066.53 331.201 1065.49 331.342L1057.42 332.437Z" fill="#FFBF49"/>
</g>
<g filter="url(#filter15_d_33018_2172)">
<path d="M1149.48 354.992C1149.92 354.933 1150.34 355.166 1150.52 355.567L1152.66 360.24C1153.03 361.042 1152.26 361.892 1151.42 361.6L1141.22 358.022C1140.23 357.674 1140.38 356.229 1141.42 356.087L1149.48 354.992Z" fill="#78FEFF"/>
</g>
</g>
<defs>
<filter id="filter0_d_33018_2172" x="-4" y="221.651" width="1446" height="265.151" filterUnits="userSpaceOnUse" color-interpolation-filters="sRGB">
<feFlood flood-opacity="0" result="BackgroundImageFix"/>
<feColorMatrix in="SourceAlpha" type="matrix" values="0 0 0 0 0 0 0 0 0 0 0 0 0 0 0 0 0 0 127 0" result="hardAlpha"/>
<feOffset dy="8"/>
<feComposite in2="hardAlpha" operator="out"/>
<feColorMatrix type="matrix" values="0 0 0 0 0 0 0 0 0 0 0 0 0 0 0 0 0 0 0.25 0"/>
<feBlend mode="normal" in2="BackgroundImageFix" result="effect1_dropShadow_33018_2172"/>
<feBlend mode="normal" in="SourceGraphic" in2="effect1_dropShadow_33018_2172" result="shape"/>
</filter>
<filter id="filter1_i_33018_2172" x="-342.817" y="187.246" width="2154.12" height="300.233" filterUnits="userSpaceOnUse" color-interpolation-filters="sRGB">
<feFlood flood-opacity="0" result="BackgroundImageFix"/>
<feBlend mode="normal" in="SourceGraphic" in2="BackgroundImageFix" result="shape"/>
<feColorMatrix in="SourceAlpha" type="matrix" values="0 0 0 0 0 0 0 0 0 0 0 0 0 0 0 0 0 0 127 0" result="hardAlpha"/>
<feOffset dy="6"/>
<feComposite in2="hardAlpha" operator="arithmetic" k2="-1" k3="1"/>
<feColorMatrix type="matrix" values="0 0 0 0 0 0 0 0 0 0 0 0 0 0 0 0 0 0 0.25 0"/>
<feBlend mode="normal" in2="shape" result="effect1_innerShadow_33018_2172"/>
</filter>
<filter id="filter2_d_33018_2172" x="963.299" y="258.797" width="102" height="51.0066" filterUnits="userSpaceOnUse" color-interpolation-filters="sRGB">
<feFlood flood-opacity="0" result="BackgroundImageFix"/>
<feColorMatrix in="SourceAlpha" type="matrix" values="0 0 0 0 0 0 0 0 0 0 0 0 0 0 0 0 0 0 127 0" result="hardAlpha"/>
<feOffset/>
<feGaussianBlur stdDeviation="5"/>
<feComposite in2="hardAlpha" operator="out"/>
<feColorMatrix type="matrix" values="0 0 0 0 0.647059 0 0 0 0 1 0 0 0 0 0.992157 0 0 0 1 0"/>
<feBlend mode="normal" in2="BackgroundImageFix" result="effect1_dropShadow_33018_2172"/>
<feBlend mode="normal" in="SourceGraphic" in2="effect1_dropShadow_33018_2172" result="shape"/>
</filter>
<filter id="filter3_d_33018_2172" x="382.299" y="263.878" width="102" height="53.3459" filterUnits="userSpaceOnUse" color-interpolation-filters="sRGB">
<feFlood flood-opacity="0" result="BackgroundImageFix"/>
<feColorMatrix in="SourceAlpha" type="matrix" values="0 0 0 0 0 0 0 0 0 0 0 0 0 0 0 0 0 0 127 0" result="hardAlpha"/>
<feOffset/>
<feGaussianBlur stdDeviation="5"/>
<feComposite in2="hardAlpha" operator="out"/>
<feColorMatrix type="matrix" values="0 0 0 0 0.647059 0 0 0 0 1 0 0 0 0 0.992157 0 0 0 1 0"/>
<feBlend mode="normal" in2="BackgroundImageFix" result="effect1_dropShadow_33018_2172"/>
<feBlend mode="normal" in="SourceGraphic" in2="effect1_dropShadow_33018_2172" result="shape"/>
</filter>
<filter id="filter4_d_33018_2172" x="106.299" y="361.878" width="102" height="53.3459" filterUnits="userSpaceOnUse" color-interpolation-filters="sRGB">
<feFlood flood-opacity="0" result="BackgroundImageFix"/>
<feColorMatrix in="SourceAlpha" type="matrix" values="0 0 0 0 0 0 0 0 0 0 0 0 0 0 0 0 0 0 127 0" result="hardAlpha"/>
<feOffset/>
<feGaussianBlur stdDeviation="5"/>
<feComposite in2="hardAlpha" operator="out"/>
<feColorMatrix type="matrix" values="0 0 0 0 0.647059 0 0 0 0 1 0 0 0 0 0.992157 0 0 0 1 0"/>
<feBlend mode="normal" in2="BackgroundImageFix" result="effect1_dropShadow_33018_2172"/>
<feBlend mode="normal" in="SourceGraphic" in2="effect1_dropShadow_33018_2172" result="shape"/>
</filter>
<filter id="filter5_d_33018_2172" x="669.799" y="198.05" width="114.5" height="28.7124" filterUnits="userSpaceOnUse" color-interpolation-filters="sRGB">
<feFlood flood-opacity="0" result="BackgroundImageFix"/>
<feColorMatrix in="SourceAlpha" type="matrix" values="0 0 0 0 0 0 0 0 0 0 0 0 0 0 0 0 0 0 127 0" result="hardAlpha"/>
<feOffset/>
<feGaussianBlur stdDeviation="5"/>
<feComposite in2="hardAlpha" operator="out"/>
<feColorMatrix type="matrix" values="0 0 0 0 0.647059 0 0 0 0 1 0 0 0 0 0.992157 0 0 0 1 0"/>
<feBlend mode="normal" in2="BackgroundImageFix" result="effect1_dropShadow_33018_2172"/>
<feBlend mode="normal" in="SourceGraphic" in2="effect1_dropShadow_33018_2172" result="shape"/>
</filter>
<filter id="filter6_d_33018_2172" x="1381.3" y="387.786" width="112.5" height="54.0288" filterUnits="userSpaceOnUse" color-interpolation-filters="sRGB">
<feFlood flood-opacity="0" result="BackgroundImageFix"/>
<feColorMatrix in="SourceAlpha" type="matrix" values="0 0 0 0 0 0 0 0 0 0 0 0 0 0 0 0 0 0 127 0" result="hardAlpha"/>
<feOffset/>
<feGaussianBlur stdDeviation="5"/>
<feComposite in2="hardAlpha" operator="out"/>
<feColorMatrix type="matrix" values="0 0 0 0 0.647059 0 0 0 0 1 0 0 0 0 0.992157 0 0 0 1 0"/>
<feBlend mode="normal" in2="BackgroundImageFix" result="effect1_dropShadow_33018_2172"/>
<feBlend mode="normal" in="SourceGraphic" in2="effect1_dropShadow_33018_2172" result="shape"/>
</filter>
<filter id="filter7_d_33018_2172" x="1073.44" y="261.773" width="174.901" height="67.0621" filterUnits="userSpaceOnUse" color-interpolation-filters="sRGB">
<feFlood flood-opacity="0" result="BackgroundImageFix"/>
<feColorMatrix in="SourceAlpha" type="matrix" values="0 0 0 0 0 0 0 0 0 0 0 0 0 0 0 0 0 0 127 0" result="hardAlpha"/>
<feOffset dy="4"/>
<feComposite in2="hardAlpha" operator="out"/>
<feColorMatrix type="matrix" values="0 0 0 0 0.0613667 0 0 0 0 0.0682398 0 0 0 0 0.24923 0 0 0 1 0"/>
<feBlend mode="normal" in2="BackgroundImageFix" result="effect1_dropShadow_33018_2172"/>
<feBlend mode="normal" in="SourceGraphic" in2="effect1_dropShadow_33018_2172" result="shape"/>
</filter>
<filter id="filter8_d_33018_2172" x="1045.65" y="288.025" width="174.901" height="67.0621" filterUnits="userSpaceOnUse" color-interpolation-filters="sRGB">
<feFlood flood-opacity="0" result="BackgroundImageFix"/>
<feColorMatrix in="SourceAlpha" type="matrix" values="0 0 0 0 0 0 0 0 0 0 0 0 0 0 0 0 0 0 127 0" result="hardAlpha"/>
<feOffset dy="4"/>
<feComposite in2="hardAlpha" operator="out"/>
<feColorMatrix type="matrix" values="0 0 0 0 0.0613667 0 0 0 0 0.0682398 0 0 0 0 0.24923 0 0 0 1 0"/>
<feBlend mode="normal" in2="BackgroundImageFix" result="effect1_dropShadow_33018_2172"/>
<feBlend mode="normal" in="SourceGraphic" in2="effect1_dropShadow_33018_2172" result="shape"/>
</filter>
<filter id="filter9_d_33018_2172" x="1019.39" y="313.505" width="174.901" height="67.0621" filterUnits="userSpaceOnUse" color-interpolation-filters="sRGB">
<feFlood flood-opacity="0" result="BackgroundImageFix"/>
<feColorMatrix in="SourceAlpha" type="matrix" values="0 0 0 0 0 0 0 0 0 0 0 0 0 0 0 0 0 0 127 0" result="hardAlpha"/>
<feOffset dy="4"/>
<feComposite in2="hardAlpha" operator="out"/>
<feColorMatrix type="matrix" values="0 0 0 0 0.0613667 0 0 0 0 0.0682398 0 0 0 0 0.24923 0 0 0 1 0"/>
<feBlend mode="normal" in2="BackgroundImageFix" result="effect1_dropShadow_33018_2172"/>
<feBlend mode="normal" in="SourceGraphic" in2="effect1_dropShadow_33018_2172" result="shape"/>
</filter>
<filter id="filter10_d_33018_2172" x="1156.55" y="318.983" width="32.2068" height="26.6759" filterUnits="userSpaceOnUse" color-interpolation-filters="sRGB">
<feFlood flood-opacity="0" result="BackgroundImageFix"/>
<feColorMatrix in="SourceAlpha" type="matrix" values="0 0 0 0 0 0 0 0 0 0 0 0 0 0 0 0 0 0 127 0" result="hardAlpha"/>
<feOffset/>
<feGaussianBlur stdDeviation="5"/>
<feComposite in2="hardAlpha" operator="out"/>
<feColorMatrix type="matrix" values="0 0 0 0 0.647059 0 0 0 0 1 0 0 0 0 0.992157 0 0 0 1 0"/>
<feBlend mode="normal" in2="BackgroundImageFix" result="effect1_dropShadow_33018_2172"/>
<feBlend mode="normal" in="SourceGraphic" in2="effect1_dropShadow_33018_2172" result="shape"/>
</filter>
<filter id="filter11_d_33018_2172" x="1183.55" y="291.983" width="32.2068" height="26.6759" filterUnits="userSpaceOnUse" color-interpolation-filters="sRGB">
<feFlood flood-opacity="0" result="BackgroundImageFix"/>
<feColorMatrix in="SourceAlpha" type="matrix" values="0 0 0 0 0 0 0 0 0 0 0 0 0 0 0 0 0 0 127 0" result="hardAlpha"/>
<feOffset/>
<feGaussianBlur stdDeviation="5"/>
<feComposite in2="hardAlpha" operator="out"/>
<feColorMatrix type="matrix" values="0 0 0 0 0.647059 0 0 0 0 1 0 0 0 0 0.992157 0 0 0 1 0"/>
<feBlend mode="normal" in2="BackgroundImageFix" result="effect1_dropShadow_33018_2172"/>
<feBlend mode="normal" in="SourceGraphic" in2="effect1_dropShadow_33018_2172" result="shape"/>
</filter>
<filter id="filter12_d_33018_2172" x="1099.15" y="263.771" width="32.2068" height="26.6759" filterUnits="userSpaceOnUse" color-interpolation-filters="sRGB">
<feFlood flood-opacity="0" result="BackgroundImageFix"/>
<feColorMatrix in="SourceAlpha" type="matrix" values="0 0 0 0 0 0 0 0 0 0 0 0 0 0 0 0 0 0 127 0" result="hardAlpha"/>
<feOffset/>
<feGaussianBlur stdDeviation="5"/>
<feComposite in2="hardAlpha" operator="out"/>
<feColorMatrix type="matrix" values="0 0 0 0 1 0 0 0 0 0.750323 0 0 0 0 0.286637 0 0 0 1 0"/>
<feBlend mode="normal" in2="BackgroundImageFix" result="effect1_dropShadow_33018_2172"/>
<feBlend mode="normal" in="SourceGraphic" in2="effect1_dropShadow_33018_2172" result="shape"/>
</filter>
<filter id="filter13_d_33018_2172" x="1072.15" y="288.771" width="32.2068" height="26.6759" filterUnits="userSpaceOnUse" color-interpolation-filters="sRGB">
<feFlood flood-opacity="0" result="BackgroundImageFix"/>
<feColorMatrix in="SourceAlpha" type="matrix" values="0 0 0 0 0 0 0 0 0 0 0 0 0 0 0 0 0 0 127 0" result="hardAlpha"/>
<feOffset/>
<feGaussianBlur stdDeviation="5"/>
<feComposite in2="hardAlpha" operator="out"/>
<feColorMatrix type="matrix" values="0 0 0 0 1 0 0 0 0 0.750323 0 0 0 0 0.286637 0 0 0 1 0"/>
<feBlend mode="normal" in2="BackgroundImageFix" result="effect1_dropShadow_33018_2172"/>
<feBlend mode="normal" in="SourceGraphic" in2="effect1_dropShadow_33018_2172" result="shape"/>
</filter>
<filter id="filter14_d_33018_2172" x="1044.15" y="315.771" width="32.2068" height="26.6759" filterUnits="userSpaceOnUse" color-interpolation-filters="sRGB">
<feFlood flood-opacity="0" result="BackgroundImageFix"/>
<feColorMatrix in="SourceAlpha" type="matrix" values="0 0 0 0 0 0 0 0 0 0 0 0 0 0 0 0 0 0 127 0" result="hardAlpha"/>
<feOffset/>
<feGaussianBlur stdDeviation="5"/>
<feComposite in2="hardAlpha" operator="out"/>
<feColorMatrix type="matrix" values="0 0 0 0 1 0 0 0 0 0.750323 0 0 0 0 0.286637 0 0 0 1 0"/>
<feBlend mode="normal" in2="BackgroundImageFix" result="effect1_dropShadow_33018_2172"/>
<feBlend mode="normal" in="SourceGraphic" in2="effect1_dropShadow_33018_2172" result="shape"/>
</filter>
<filter id="filter15_d_33018_2172" x="1130.55" y="344.983" width="32.2068" height="26.6759" filterUnits="userSpaceOnUse" color-interpolation-filters="sRGB">
<feFlood flood-opacity="0" result="BackgroundImageFix"/>
<feColorMatrix in="SourceAlpha" type="matrix" values="0 0 0 0 0 0 0 0 0 0 0 0 0 0 0 0 0 0 127 0" result="hardAlpha"/>
<feOffset/>
<feGaussianBlur stdDeviation="5"/>
<feComposite in2="hardAlpha" operator="out"/>
<feColorMatrix type="matrix" values="0 0 0 0 0.647059 0 0 0 0 1 0 0 0 0 0.992157 0 0 0 1 0"/>
<feBlend mode="normal" in2="BackgroundImageFix" result="effect1_dropShadow_33018_2172"/>
<feBlend mode="normal" in="SourceGraphic" in2="effect1_dropShadow_33018_2172" result="shape"/>
</filter>
<clipPath id="clip0_33018_2172">
<rect width="1440" height="635" fill="white"/>
</clipPath>
</defs>
</svg>
