<svg width="825" height="382" viewBox="0 0 825 382" fill="none" xmlns="http://www.w3.org/2000/svg">
<g clip-path="url(#clip0_33018_110)">
<path d="M212.549 182.864L212.549 104.199L-106.451 109.539L-106.451 319.991L192.811 211.054C204.661 206.741 212.549 195.476 212.549 182.864Z" fill="#5C58AD" stroke="black"/>
<path d="M223.391 100.379L223.391 81.4603L-105.739 -23.0731L-105.739 223.802L216.724 109.807C220.72 108.395 223.391 104.617 223.391 100.379Z" fill="#302D62" stroke="black"/>
<path d="M214.865 73.8162L-105.739 -33.0431L-105.739 204.101L214.983 92.75C224.002 89.6185 223.923 76.8352 214.865 73.8162Z" fill="#4A4791" stroke="black"/>
<path d="M-105.739 168.373L143.332 81.8982C148.744 80.0193 148.696 72.3493 143.261 70.5379L-105.739 -12.4553L-105.739 168.373Z" fill="#5C58AD" stroke="black"/>
<path d="M-5.97337 144.011C-8.56717 143.132 -11.2575 145.061 -11.2575 147.8L-11.2574 448.289L1645.4 448.289L1645.4 123.497C1645.4 120.73 1642.66 118.799 1640.05 119.732L1001.61 348.342C874.125 393.988 734.953 395.173 606.715 351.702L-5.97337 144.011Z" fill="#8581DF" stroke="black"/>
<path fill-rule="evenodd" clip-rule="evenodd" d="M480.181 276.736C482.164 276.736 483.77 278.342 483.77 280.325L483.77 314.061C483.77 316.043 482.164 317.65 480.181 317.65C478.199 317.65 476.593 316.043 476.593 314.061L476.593 280.325C476.593 278.342 478.199 276.736 480.181 276.736Z" fill="#AE8D43" stroke="black" stroke-linecap="round"/>
<path fill-rule="evenodd" clip-rule="evenodd" d="M406.967 251.323C408.949 251.323 410.556 252.93 410.556 254.912V290.084C410.556 292.066 408.949 293.673 406.967 293.673C404.985 293.673 403.378 292.066 403.378 290.084V254.912C403.378 252.93 404.985 251.323 406.967 251.323Z" fill="#AE8D43" stroke="black" stroke-linecap="round"/>
<path fill-rule="evenodd" clip-rule="evenodd" d="M332.317 224.765C334.299 224.765 335.906 226.372 335.906 228.354V265.679C335.906 267.661 334.299 269.268 332.317 269.268C330.335 269.268 328.728 267.661 328.728 265.679V228.354C328.728 226.372 330.335 224.765 332.317 224.765Z" fill="#AE8D43" stroke="black" stroke-linecap="round"/>
<path fill-rule="evenodd" clip-rule="evenodd" d="M255.513 197.489C257.495 197.489 259.102 199.096 259.102 201.078V239.121C259.102 241.103 257.495 242.71 255.513 242.71C253.531 242.71 251.924 241.103 251.924 239.121V201.078C251.924 199.096 253.531 197.489 255.513 197.489Z" fill="#AE8D43" stroke="black" stroke-linecap="round"/>
<path fill-rule="evenodd" clip-rule="evenodd" d="M182.299 173.084C184.281 173.084 185.888 174.691 185.888 176.673V215.434C185.888 217.416 184.281 219.023 182.299 219.023C180.317 219.023 178.71 217.416 178.71 215.434V176.673C178.71 174.691 180.317 173.084 182.299 173.084Z" fill="#AE8D43" stroke="black" stroke-linecap="round"/>
<path d="M114.492 147.371C115.771 143.619 119.85 141.614 123.602 142.893L475.278 262.749C489.085 267.28 516.711 285.083 519.283 321.086C519.34 321.883 519.264 322.659 519.075 323.392L504.572 318.367C501 292.589 480.68 279.617 470.774 276.381L470.731 276.366L118.971 156.481C115.219 155.202 113.214 151.123 114.492 147.371Z" fill="#CDA954" stroke="black" stroke-linecap="round"/>
<path d="M502.433 298.269C504.415 298.269 506.022 299.876 506.022 301.858L506.022 319.085L498.844 316.932L498.844 301.858C498.844 299.876 500.451 298.269 502.433 298.269Z" fill="#AE8D43" stroke="black" stroke-linecap="round"/>
<g filter="url(#filter0_d_33018_110)">
<path d="M492.873 313.093C493.719 312.791 494.642 312.781 495.494 313.067L635.384 360.019C639.316 361.338 638.889 367.032 634.804 367.75L612.492 371.676C611.865 371.786 611.221 371.745 610.613 371.556L471.522 328.379C467.853 327.24 467.743 322.087 471.36 320.793L492.873 313.093Z" fill="#463882"/>
<path d="M492.873 313.093C493.719 312.791 494.642 312.781 495.494 313.067L635.384 360.019C639.316 361.338 638.889 367.032 634.804 367.75L612.492 371.676C611.865 371.786 611.221 371.745 610.613 371.556L471.522 328.379C467.853 327.24 467.743 322.087 471.36 320.793L492.873 313.093Z" stroke="black"/>
</g>
<path fill-rule="evenodd" clip-rule="evenodd" d="M770.59 364.013C772.572 364.013 774.179 365.62 774.179 367.602L774.179 401.338C774.179 403.32 772.572 404.927 770.59 404.927C768.607 404.927 767.001 403.32 767.001 401.338L767.001 367.602C767.001 365.62 768.607 364.013 770.59 364.013Z" fill="#AE8D43" stroke="black" stroke-linecap="round"/>
<path fill-rule="evenodd" clip-rule="evenodd" d="M701.59 351.013C703.572 351.013 705.179 352.62 705.179 354.602L705.179 388.338C705.179 390.32 703.572 391.927 701.59 391.927C699.607 391.927 698.001 390.32 698.001 388.338L698.001 354.602C698.001 352.62 699.607 351.013 701.59 351.013Z" fill="#AE8D43" stroke="black" stroke-linecap="round"/>
<path fill-rule="evenodd" clip-rule="evenodd" d="M653.501 333.013C655.434 333.013 657.001 334.82 657.001 337.048L657.001 374.978C657.001 377.206 655.434 379.013 653.501 379.013C651.568 379.013 650.001 377.206 650.001 374.978L650.001 337.048C650.001 334.82 651.568 333.013 653.501 333.013Z" fill="#AE8D43" stroke="black" stroke-linecap="round"/>
<path d="M641.501 327.013C643.434 327.013 645.001 328.466 645.001 330.259L645.001 360.767C645.001 361.639 644.63 362.43 644.028 363.013L638.001 361.513L638.001 330.259C638.001 328.466 639.568 327.013 641.501 327.013Z" fill="#AE8D43" stroke="black" stroke-linecap="round"/>
<path d="M778.652 373.748L634.939 336.316C631.038 334.807 628.054 331.186 628.001 326.976C627.987 325.869 628.185 324.144 629.295 322.451C630.572 320.504 632.725 319.16 635.24 319.013C637.414 318.886 639.091 319.691 640.025 320.271C641.024 320.892 641.805 321.644 642.391 322.306C642.926 322.911 643.341 323.582 643.637 324.288L782.637 359.816C783.905 360.156 788.637 362.167 788.637 367.316C788.637 373.752 782.168 375.108 778.652 373.748Z" fill="#CDA954" stroke="black" stroke-linecap="round"/>
<path d="M191.5 259L-6 192V198.5L177.5 260L122.5 286.5L424.5 385.5H444.5L138 285L191.5 259Z" fill="black" fill-opacity="0.1"/>
<path opacity="0.1" d="M-1 233L85 260.598L-1 309" stroke="black"/>
<path d="M65.9539 298.418C66.4459 298.152 67.027 298.103 67.556 298.285L238.691 357.109C240.338 357.675 240.524 359.93 238.992 360.759L204.046 379.673C203.554 379.939 202.973 379.987 202.444 379.805L31.3095 320.982C29.6622 320.416 29.4758 318.161 31.0076 317.332L65.9539 298.418Z" fill="black" fill-opacity="0.08"/>
<path d="M299.954 286.418C300.446 286.152 301.027 286.103 301.556 286.285L472.691 345.109C474.338 345.675 474.524 347.93 472.992 348.759L438.046 367.673C437.554 367.939 436.973 367.987 436.444 367.805L265.309 308.982C263.662 308.416 263.476 306.161 265.008 305.332L299.954 286.418Z" fill="black" fill-opacity="0.08"/>
</g>
<defs>
<filter id="filter0_d_33018_110" x="468.208" y="312.359" width="170.404" height="63.877" filterUnits="userSpaceOnUse" color-interpolation-filters="sRGB">
<feFlood flood-opacity="0" result="BackgroundImageFix"/>
<feColorMatrix in="SourceAlpha" type="matrix" values="0 0 0 0 0 0 0 0 0 0 0 0 0 0 0 0 0 0 127 0" result="hardAlpha"/>
<feOffset dy="4"/>
<feComposite in2="hardAlpha" operator="out"/>
<feColorMatrix type="matrix" values="0 0 0 0 0.116424 0 0 0 0 0.125523 0 0 0 0 0.365104 0 0 0 1 0"/>
<feBlend mode="normal" in2="BackgroundImageFix" result="effect1_dropShadow_33018_110"/>
<feBlend mode="normal" in="SourceGraphic" in2="effect1_dropShadow_33018_110" result="shape"/>
</filter>
<clipPath id="clip0_33018_110">
<rect width="825" height="382" fill="white"/>
</clipPath>
</defs>
</svg>
