<svg width="825" height="382" viewBox="0 0 825 382" fill="none" xmlns="http://www.w3.org/2000/svg">
<g clip-path="url(#clip0_32029_1327)">
<path d="M212.549 182.865L212.549 104.2L-106.451 109.54L-106.451 319.991L192.811 211.055C204.661 206.742 212.549 195.477 212.549 182.865Z" fill="#5C58AD" stroke="black"/>
<path d="M223.391 100.38L223.391 81.4613L-105.739 -23.0721L-105.739 223.803L216.724 109.808C220.72 108.396 223.391 104.618 223.391 100.38Z" fill="#302D62" stroke="black"/>
<path d="M214.865 73.8172L-105.739 -33.0422L-105.739 204.102L214.983 92.7509C224.002 89.6195 223.923 76.8362 214.865 73.8172Z" fill="#4A4791" stroke="black"/>
<path d="M-105.739 168.374L143.332 81.8992C148.744 80.0203 148.696 72.3503 143.261 70.5389L-105.739 -12.4543L-105.739 168.374Z" fill="#5C58AD" stroke="black"/>
<path d="M-5.97342 144.011C-8.56722 143.131 -11.2576 145.06 -11.2576 147.799L-11.2574 448.288L1645.4 448.288L1645.4 123.497C1645.4 120.729 1642.66 118.798 1640.05 119.731L1001.61 348.341C874.125 393.988 734.953 395.172 606.714 351.702L-5.97342 144.011Z" fill="#8581DF" stroke="black"/>
<path fill-rule="evenodd" clip-rule="evenodd" d="M480.181 276.735C482.164 276.735 483.77 278.342 483.77 280.324L483.77 314.06C483.77 316.042 482.164 317.649 480.181 317.649C478.199 317.649 476.593 316.042 476.593 314.06L476.593 280.324C476.593 278.342 478.199 276.735 480.181 276.735Z" fill="#AE8D43" stroke="black" stroke-linecap="round"/>
<path fill-rule="evenodd" clip-rule="evenodd" d="M406.967 251.323C408.949 251.323 410.556 252.93 410.556 254.912V290.083C410.556 292.066 408.949 293.672 406.967 293.672C404.985 293.672 403.378 292.066 403.378 290.083V254.912C403.378 252.93 404.985 251.323 406.967 251.323Z" fill="#AE8D43" stroke="black" stroke-linecap="round"/>
<path fill-rule="evenodd" clip-rule="evenodd" d="M332.317 224.765C334.299 224.765 335.906 226.371 335.906 228.354V265.679C335.906 267.661 334.299 269.268 332.317 269.268C330.335 269.268 328.728 267.661 328.728 265.679V228.354C328.728 226.371 330.335 224.765 332.317 224.765Z" fill="#AE8D43" stroke="black" stroke-linecap="round"/>
<path fill-rule="evenodd" clip-rule="evenodd" d="M255.513 197.489C257.495 197.489 259.102 199.095 259.102 201.077V239.12C259.102 241.102 257.495 242.709 255.513 242.709C253.531 242.709 251.924 241.102 251.924 239.12V201.077C251.924 199.095 253.531 197.489 255.513 197.489Z" fill="#AE8D43" stroke="black" stroke-linecap="round"/>
<path fill-rule="evenodd" clip-rule="evenodd" d="M182.299 173.084C184.281 173.084 185.888 174.691 185.888 176.673V215.433C185.888 217.415 184.281 219.022 182.299 219.022C180.317 219.022 178.71 217.415 178.71 215.433V176.673C178.71 174.691 180.317 173.084 182.299 173.084Z" fill="#AE8D43" stroke="black" stroke-linecap="round"/>
<path d="M114.492 147.371C115.771 143.618 119.85 141.613 123.602 142.892L475.278 262.749C489.085 267.279 516.711 285.082 519.283 321.085C519.34 321.882 519.264 322.658 519.075 323.391L504.572 318.367C501 292.589 480.68 279.616 470.774 276.38L470.731 276.366L118.971 156.48C115.219 155.201 113.214 151.123 114.492 147.371Z" fill="#CDA954" stroke="black" stroke-linecap="round"/>
<path d="M502.433 298.269C504.415 298.269 506.022 299.876 506.022 301.858L506.022 319.085L498.844 316.931L498.844 301.858C498.844 299.876 500.451 298.269 502.433 298.269Z" fill="#AE8D43" stroke="black" stroke-linecap="round"/>
<g filter="url(#filter0_d_32029_1327)">
<path d="M492.873 313.092C493.719 312.789 494.642 312.78 495.494 313.066L635.384 360.017C639.316 361.337 638.889 367.03 634.804 367.749L612.492 371.674C611.865 371.785 611.221 371.744 610.613 371.555L471.522 328.378C467.853 327.239 467.743 322.086 471.36 320.791L492.873 313.092Z" fill="#463882"/>
<path d="M492.873 313.092C493.719 312.789 494.642 312.78 495.494 313.066L635.384 360.017C639.316 361.337 638.889 367.03 634.804 367.749L612.492 371.674C611.865 371.785 611.221 371.744 610.613 371.555L471.522 328.378C467.853 327.239 467.743 322.086 471.36 320.791L492.873 313.092Z" stroke="black"/>
</g>
<path fill-rule="evenodd" clip-rule="evenodd" d="M770.59 364.013C772.572 364.013 774.179 365.62 774.179 367.602L774.179 401.338C774.179 403.32 772.572 404.927 770.59 404.927C768.607 404.927 767.001 403.32 767.001 401.338L767.001 367.602C767.001 365.62 768.607 364.013 770.59 364.013Z" fill="#AE8D43" stroke="black" stroke-linecap="round"/>
<path fill-rule="evenodd" clip-rule="evenodd" d="M701.59 351.013C703.572 351.013 705.179 352.62 705.179 354.602L705.179 388.338C705.179 390.32 703.572 391.927 701.59 391.927C699.607 391.927 698.001 390.32 698.001 388.338L698.001 354.602C698.001 352.62 699.607 351.013 701.59 351.013Z" fill="#AE8D43" stroke="black" stroke-linecap="round"/>
<path fill-rule="evenodd" clip-rule="evenodd" d="M653.501 333.013C655.434 333.013 657.001 334.82 657.001 337.048L657.001 374.978C657.001 377.207 655.434 379.013 653.501 379.013C651.568 379.013 650.001 377.207 650.001 374.978L650.001 337.048C650.001 334.82 651.568 333.013 653.501 333.013Z" fill="#AE8D43" stroke="black" stroke-linecap="round"/>
<path d="M641.501 327.013C643.434 327.013 645.001 328.466 645.001 330.259L645.001 360.768C645.001 361.639 644.63 362.43 644.028 363.013L638.001 361.513L638.001 330.259C638.001 328.466 639.568 327.013 641.501 327.013Z" fill="#AE8D43" stroke="black" stroke-linecap="round"/>
<path d="M778.652 373.748L634.939 336.316C631.038 334.807 628.054 331.187 628.001 326.977C627.987 325.869 628.185 324.145 629.295 322.452C630.572 320.504 632.725 319.16 635.24 319.013C637.414 318.887 639.091 319.691 640.025 320.271C641.024 320.892 641.805 321.644 642.391 322.306C642.926 322.912 643.341 323.582 643.637 324.289L782.637 359.816C783.905 360.156 788.637 362.167 788.637 367.316C788.637 373.752 782.168 375.108 778.652 373.748Z" fill="#CDA954" stroke="black" stroke-linecap="round"/>
</g>
<defs>
<filter id="filter0_d_32029_1327" x="468.208" y="312.358" width="170.404" height="63.877" filterUnits="userSpaceOnUse" color-interpolation-filters="sRGB">
<feFlood flood-opacity="0" result="BackgroundImageFix"/>
<feColorMatrix in="SourceAlpha" type="matrix" values="0 0 0 0 0 0 0 0 0 0 0 0 0 0 0 0 0 0 127 0" result="hardAlpha"/>
<feOffset dy="4"/>
<feComposite in2="hardAlpha" operator="out"/>
<feColorMatrix type="matrix" values="0 0 0 0 0.116424 0 0 0 0 0.125523 0 0 0 0 0.365104 0 0 0 1 0"/>
<feBlend mode="normal" in2="BackgroundImageFix" result="effect1_dropShadow_32029_1327"/>
<feBlend mode="normal" in="SourceGraphic" in2="effect1_dropShadow_32029_1327" result="shape"/>
</filter>
<clipPath id="clip0_32029_1327">
<rect width="825" height="382" fill="white"/>
</clipPath>
</defs>
</svg>
