<svg width="1440" height="382" viewBox="0 0 1440 382" fill="none" xmlns="http://www.w3.org/2000/svg">
<g clip-path="url(#clip0_31909_6)">
<path d="M212.549 181.865L212.549 103.2L-106.451 108.54L-106.451 318.991L192.811 210.055C204.661 205.742 212.549 194.477 212.549 181.865Z" fill="#5C58AD" stroke="black"/>
<path d="M223.391 99.3799L223.391 80.4613L-105.739 -24.0721L-105.739 222.803L216.724 108.808C220.72 107.396 223.391 103.618 223.391 99.3799Z" fill="#302D62" stroke="black"/>
<path d="M214.865 72.8172L-105.739 -34.0422L-105.739 203.102L214.983 91.7509C224.002 88.6195 223.923 75.8362 214.865 72.8172Z" fill="#4A4791" stroke="black"/>
<path d="M-105.739 167.374L143.332 80.8992C148.744 79.0203 148.696 71.3503 143.261 69.5389L-105.739 -13.4543L-105.739 167.374Z" fill="#5C58AD" stroke="black"/>
<path d="M-5.97342 143.011C-8.56722 142.132 -11.2576 144.06 -11.2576 146.799L-11.2574 447.288L1645.4 447.288L1645.4 122.497C1645.4 119.729 1642.66 117.798 1640.05 118.731L1001.61 347.341C874.125 392.988 734.953 394.172 606.714 350.702L-5.97342 143.011Z" fill="#8581DF" stroke="black"/>
<path fill-rule="evenodd" clip-rule="evenodd" d="M480.181 275.735C482.164 275.735 483.77 277.342 483.77 279.324L483.77 313.06C483.77 315.043 482.164 316.649 480.181 316.649C478.199 316.649 476.593 315.043 476.593 313.06L476.593 279.324C476.593 277.342 478.199 275.735 480.181 275.735Z" fill="#AE8D43" stroke="black" stroke-linecap="round"/>
<path fill-rule="evenodd" clip-rule="evenodd" d="M406.967 250.323C408.949 250.323 410.556 251.93 410.556 253.912V289.084C410.556 291.066 408.949 292.673 406.967 292.673C404.985 292.673 403.378 291.066 403.378 289.084V253.912C403.378 251.93 404.985 250.323 406.967 250.323Z" fill="#AE8D43" stroke="black" stroke-linecap="round"/>
<path fill-rule="evenodd" clip-rule="evenodd" d="M332.317 223.765C334.299 223.765 335.906 225.372 335.906 227.354V264.679C335.906 266.661 334.299 268.268 332.317 268.268C330.335 268.268 328.728 266.661 328.728 264.679V227.354C328.728 225.372 330.335 223.765 332.317 223.765Z" fill="#AE8D43" stroke="black" stroke-linecap="round"/>
<path fill-rule="evenodd" clip-rule="evenodd" d="M255.513 196.489C257.495 196.489 259.102 198.096 259.102 200.078V238.121C259.102 240.103 257.495 241.71 255.513 241.71C253.531 241.71 251.924 240.103 251.924 238.121V200.078C251.924 198.096 253.531 196.489 255.513 196.489Z" fill="#AE8D43" stroke="black" stroke-linecap="round"/>
<path fill-rule="evenodd" clip-rule="evenodd" d="M182.299 172.084C184.281 172.084 185.888 173.691 185.888 175.673V214.434C185.888 216.416 184.281 218.023 182.299 218.023C180.317 218.023 178.71 216.416 178.71 214.434V175.673C178.71 173.691 180.317 172.084 182.299 172.084Z" fill="#AE8D43" stroke="black" stroke-linecap="round"/>
<path d="M114.492 146.371C115.771 142.619 119.85 140.613 123.602 141.892L475.278 261.749C489.085 266.279 516.711 284.083 519.283 320.086C519.34 320.883 519.264 321.658 519.075 322.392L504.572 317.367C501 291.589 480.68 278.617 470.774 275.38L470.731 275.366L118.971 155.481C115.219 154.202 113.214 150.123 114.492 146.371Z" fill="#CDA954" stroke="black" stroke-linecap="round"/>
<path d="M502.433 297.269C504.415 297.269 506.022 298.876 506.022 300.858L506.022 318.085L498.844 315.932L498.844 300.858C498.844 298.876 500.451 297.269 502.433 297.269Z" fill="#AE8D43" stroke="black" stroke-linecap="round"/>
<path fill-rule="evenodd" clip-rule="evenodd" d="M1000.58 315.932C1002.56 315.932 1004.17 317.539 1004.17 319.521L1004.17 353.257C1004.17 355.239 1002.56 356.846 1000.58 356.846C998.597 356.846 996.99 355.239 996.99 353.257L996.99 319.521C996.99 317.539 998.597 315.932 1000.58 315.932Z" fill="#AE8D43" stroke="black" stroke-linecap="round"/>
<path fill-rule="evenodd" clip-rule="evenodd" d="M923.775 347.515C925.757 347.515 927.364 349.121 927.364 351.104L927.364 384.84C927.364 386.822 925.757 388.429 923.775 388.429C921.793 388.429 920.186 386.822 920.186 384.84L920.186 351.104C920.186 349.121 921.793 347.515 923.775 347.515Z" fill="#AE8D43" stroke="black" stroke-linecap="round"/>
<path fill-rule="evenodd" clip-rule="evenodd" d="M1073.08 291.527C1075.06 291.527 1076.66 293.134 1076.66 295.116L1076.66 328.852C1076.66 330.834 1075.06 332.441 1073.08 332.441C1071.09 332.441 1069.49 330.834 1069.49 328.852L1069.49 295.116C1069.49 293.134 1071.09 291.527 1073.08 291.527Z" fill="#AE8D43" stroke="black" stroke-linecap="round"/>
<path fill-rule="evenodd" clip-rule="evenodd" d="M1145.57 264.969C1147.55 264.969 1149.16 266.576 1149.16 268.558L1149.16 302.294C1149.16 304.276 1147.55 305.883 1145.57 305.883C1143.59 305.883 1141.98 304.276 1141.98 302.294L1141.98 268.558C1141.98 266.576 1143.59 264.969 1145.57 264.969Z" fill="#AE8D43" stroke="black" stroke-linecap="round"/>
<path fill-rule="evenodd" clip-rule="evenodd" d="M782.371 380.533C784.353 380.533 785.96 382.14 785.96 384.122L785.96 417.858C785.96 419.84 784.353 421.447 782.371 421.447C780.389 421.447 778.782 419.84 778.782 417.858L778.782 384.122C778.782 382.14 780.389 380.533 782.371 380.533Z" fill="#AE8D43" stroke="black" stroke-linecap="round"/>
<path fill-rule="evenodd" clip-rule="evenodd" d="M716.334 354.692C718.316 354.692 719.923 356.299 719.923 358.281L719.923 392.017C719.923 394 718.316 395.606 716.334 395.606C714.352 395.606 712.745 394 712.745 392.017L712.745 358.281C712.745 356.299 714.352 354.692 716.334 354.692Z" fill="#AE8D43" stroke="black" stroke-linecap="round"/>
<path fill-rule="evenodd" clip-rule="evenodd" d="M659.629 334.594C661.611 334.594 663.218 336.201 663.218 338.183L663.218 371.919C663.218 373.901 661.611 375.508 659.629 375.508C657.646 375.508 656.04 373.901 656.04 371.919L656.04 338.183C656.04 336.201 657.647 334.594 659.629 334.594Z" fill="#AE8D43" stroke="black" stroke-linecap="round"/>
<path fill-rule="evenodd" clip-rule="evenodd" d="M648.862 327.416C650.844 327.416 652.451 329.023 652.451 331.005L652.451 364.741C652.451 366.723 650.844 368.33 648.862 368.33C646.88 368.33 645.273 366.723 645.273 364.741L645.273 331.005C645.273 329.023 646.88 327.416 648.862 327.416Z" fill="#AE8D43" stroke="black" stroke-linecap="round"/>
<path fill-rule="evenodd" clip-rule="evenodd" d="M854.868 370.484C856.85 370.484 858.456 372.09 858.456 374.073L858.456 407.809C858.456 409.791 856.85 411.398 854.868 411.398C852.885 411.398 851.279 409.791 851.279 407.809L851.279 374.073C851.279 372.09 852.885 370.484 854.868 370.484Z" fill="#AE8D43" stroke="black" stroke-linecap="round"/>
<path fill-rule="evenodd" clip-rule="evenodd" d="M1205.1 245.346C1206.42 249.083 1204.46 253.185 1200.73 254.508L822.412 388.436C811.093 392.443 798.714 392.265 787.515 387.932L650.374 334.875C646.474 333.366 643.49 329.746 643.436 325.536C643.422 324.428 643.621 322.704 644.731 321.011C646.008 319.064 648.161 317.719 650.676 317.573C652.849 317.446 654.527 318.25 655.461 318.83C656.46 319.451 657.241 320.204 657.826 320.865C658.362 321.471 658.777 322.142 659.073 322.848L792.695 374.543C800.694 377.638 809.537 377.766 817.622 374.903L1195.93 240.975C1199.67 239.652 1203.77 241.609 1205.1 245.346ZM647.082 330.386C647.08 330.383 647.077 330.381 647.075 330.378L647.075 330.379C647.076 330.38 647.079 330.382 647.082 330.386Z" fill="#CDA954" stroke="black" stroke-linecap="round"/>
<g filter="url(#filter0_d_31909_6)">
<path d="M492.873 312.092C493.719 311.789 494.642 311.78 495.494 312.066L635.384 359.018C639.316 360.337 638.889 366.031 634.804 366.749L612.492 370.675C611.865 370.785 611.221 370.744 610.613 370.555L471.522 327.378C467.853 326.239 467.743 321.086 471.36 319.792L492.873 312.092Z" fill="#463882"/>
<path d="M492.873 312.092C493.719 311.789 494.642 311.78 495.494 312.066L635.384 359.018C639.316 360.337 638.889 366.031 634.804 366.749L612.492 370.675C611.865 370.785 611.221 370.744 610.613 370.555L471.522 327.378C467.853 326.239 467.743 321.086 471.36 319.792L492.873 312.092Z" stroke="black"/>
</g>
</g>
<defs>
<filter id="filter0_d_31909_6" x="468.208" y="311.358" width="170.404" height="63.877" filterUnits="userSpaceOnUse" color-interpolation-filters="sRGB">
<feFlood flood-opacity="0" result="BackgroundImageFix"/>
<feColorMatrix in="SourceAlpha" type="matrix" values="0 0 0 0 0 0 0 0 0 0 0 0 0 0 0 0 0 0 127 0" result="hardAlpha"/>
<feOffset dy="4"/>
<feComposite in2="hardAlpha" operator="out"/>
<feColorMatrix type="matrix" values="0 0 0 0 0.116424 0 0 0 0 0.125523 0 0 0 0 0.365104 0 0 0 1 0"/>
<feBlend mode="normal" in2="BackgroundImageFix" result="effect1_dropShadow_31909_6"/>
<feBlend mode="normal" in="SourceGraphic" in2="effect1_dropShadow_31909_6" result="shape"/>
</filter>
<clipPath id="clip0_31909_6">
<rect width="1440" height="382" fill="white"/>
</clipPath>
</defs>
</svg>
