<svg width="1440" height="623" viewBox="0 0 1440 623" fill="none" xmlns="http://www.w3.org/2000/svg">
<g clip-path="url(#clip0_33018_2365)">
<rect width="1440" height="623" fill="#0E0F29"/>
<rect width="1440" height="623" fill="url(#paint0_linear_33018_2365)"/>
<path d="M892.56 4.35532C885.218 -25.6229 913.155 -52.2701 942.753 -43.5194L1206.05 34.3263C1219.7 38.3615 1230.18 49.3451 1233.57 63.1689L1285.53 275.322C1292.87 305.3 1264.93 331.947 1235.34 323.196L972.034 245.351C958.385 241.315 947.909 230.332 944.523 216.508L892.56 4.35532Z" fill="#1D2347" stroke="black"/>
<path d="M1296.56 198.764L1259.53 44.9815C1256.19 31.0871 1245.68 20.0332 1231.98 15.9841L903.004 -81.2042C873.349 -89.9651 845.393 -63.2023 852.853 -33.1936L918.339 230.243C921.762 244.013 932.225 254.94 945.834 258.957L1262.61 352.454C1296.56 362.476 1328.64 331.988 1320.35 297.567L1296.56 198.764ZM1296.56 198.764L1339 210.655M1445.5 240.5L1339 210.655M1339 210.655L1373.74 362.523C1380.37 391.48 1353.48 416.918 1324.94 408.698L1276.56 394.769C1269.18 392.644 1262.26 399.284 1264.08 406.745L1269.5 429L1279 468M1279 468L1195 440.077M1279 468L1453.5 522.5M796.518 -16.8102L870 252.472C874.387 268.546 886.492 281.379 902.282 286.696L945.211 299.475C952.399 301.895 957.932 307.703 960 315L974.695 366.841L1033 385.902M1033 385.902L1024.7 343.366C1023.25 335.955 1030.22 329.675 1037.44 331.89L1172.67 373.364C1175.98 374.381 1178.53 377.042 1179.41 380.397L1195 440.077M1033 385.902L1195 440.077" stroke="#313B58"/>
<path d="M1118.5 357L1086 347L1089.77 352.28C1090.57 353.393 1091.72 354.201 1093.04 354.57L1111.67 359.789C1114.24 360.507 1116.97 359.449 1118.38 357.191L1118.5 357Z" fill="#2B2B54" stroke="#313B58"/>
<path d="M905.26 3.27177C899.753 -19.2118 920.705 -39.1974 942.904 -32.6346L1201 43.6669C1211.23 46.6932 1219.09 54.9308 1221.63 65.2987L1273.34 276.406C1278.85 298.89 1257.89 318.875 1235.69 312.313L977.603 236.011C967.367 232.985 959.509 224.747 956.97 214.379L905.26 3.27177Z" fill="#242381" stroke="black"/>
<path fill-rule="evenodd" clip-rule="evenodd" d="M944.18 -32.2578C944.12 -29.6641 944.399 -26.9922 945.062 -24.284L996.772 186.823C999.311 197.191 1007.17 205.429 1017.41 208.455L1274.22 284.38C1274.28 281.786 1274 279.114 1273.34 276.406L1221.63 65.2983C1219.09 54.9304 1211.23 46.6928 1201 43.6665L944.18 -32.2578Z" fill="#141476"/>
<path d="M945.062 -24.284L945.548 -24.403L945.062 -24.284ZM944.18 -32.2578L944.322 -32.7373L943.695 -32.9225L943.68 -32.2694L944.18 -32.2578ZM996.772 186.823L997.258 186.705L996.772 186.823ZM1017.41 208.455L1017.26 208.935L1017.41 208.455ZM1274.22 284.38L1274.08 284.859L1274.71 285.044L1274.72 284.391L1274.22 284.38ZM1273.34 276.406L1272.85 276.525L1273.34 276.406ZM1221.63 65.2983L1221.14 65.4173L1221.63 65.2983ZM1201 43.6665L1201.14 43.1871L1201 43.6665ZM945.548 -24.403C944.895 -27.0686 944.62 -29.6966 944.68 -32.2462L943.68 -32.2694C943.619 -29.6317 943.903 -26.9158 944.577 -24.1651L945.548 -24.403ZM997.258 186.705L945.548 -24.403L944.577 -24.1651L996.286 186.942L997.258 186.705ZM1017.55 207.976C1007.48 205 999.755 196.9 997.258 186.705L996.286 186.942C998.868 197.483 1006.86 205.858 1017.26 208.935L1017.55 207.976ZM1274.36 283.9L1017.55 207.976L1017.26 208.935L1274.08 284.859L1274.36 283.9ZM1272.85 276.525C1273.51 279.19 1273.78 281.818 1273.72 284.368L1274.72 284.391C1274.78 281.753 1274.5 279.038 1273.82 276.287L1272.85 276.525ZM1221.14 65.4173L1272.85 276.525L1273.82 276.287L1222.11 65.1793L1221.14 65.4173ZM1200.85 44.146C1210.92 47.1219 1218.65 55.2222 1221.14 65.4173L1222.11 65.1793C1219.53 54.6386 1211.54 46.2638 1201.14 43.1871L1200.85 44.146ZM944.038 -31.7783L1200.85 44.146L1201.14 43.1871L944.322 -32.7373L944.038 -31.7783Z" fill="black"/>
<ellipse cx="312.829" cy="106.154" rx="169.246" ry="180.911" transform="rotate(11.5585 312.829 106.154)" fill="#2F325F" stroke="black"/>
<ellipse cx="318.669" cy="105.766" rx="165.861" ry="177.469" transform="rotate(11.5585 318.669 105.766)" fill="#1D2347" stroke="black"/>
<ellipse cx="325.095" cy="114.888" rx="138.782" ry="148.401" transform="rotate(11.5585 325.095 114.888)" fill="#D9D9D9" stroke="black"/>
<ellipse cx="325.095" cy="114.888" rx="138.782" ry="148.401" transform="rotate(11.5585 325.095 114.888)" fill="#242381" stroke="black"/>
<path fill-rule="evenodd" clip-rule="evenodd" d="M260.844 244.823C335.936 260.181 410.123 207.537 426.546 127.239C439.463 64.0797 412.793 2.62393 364.278 -28.2057C361.18 -29.0815 358.03 -29.849 354.83 -30.5035C279.737 -45.8611 205.55 6.78303 189.128 87.0804C176.211 150.24 202.88 211.696 251.396 242.525C254.493 243.401 257.643 244.169 260.844 244.823Z" fill="#141476"/>
<path d="M364.278 -28.2057L364.546 -28.6277L364.484 -28.667L364.414 -28.6869L364.278 -28.2057ZM251.396 242.525L251.127 242.947L251.189 242.987L251.26 243.006L251.396 242.525ZM426.056 127.139C409.683 207.197 335.735 259.629 260.944 244.333L260.743 245.313C336.137 260.732 410.564 207.876 427.035 127.339L426.056 127.139ZM364.009 -27.7837C412.342 2.92938 438.933 64.1728 426.056 127.139L427.035 127.339C439.992 63.9866 413.245 2.31848 364.546 -28.6277L364.009 -27.7837ZM354.729 -30.0136C357.918 -29.3616 361.056 -28.5971 364.141 -27.7246L364.414 -28.6869C361.304 -29.566 358.142 -30.3364 354.93 -30.9934L354.729 -30.0136ZM189.617 87.1806C205.991 7.12232 279.938 -45.3097 354.729 -30.0136L354.93 -30.9934C279.536 -46.4125 205.109 6.44375 188.638 86.9802L189.617 87.1806ZM251.664 242.103C203.331 211.39 176.74 150.147 189.617 87.1806L188.638 86.9802C175.681 150.333 202.428 212.001 251.127 242.947L251.664 242.103ZM260.944 244.333C257.756 243.681 254.617 242.917 251.532 242.044L251.26 243.006C254.369 243.886 257.531 244.656 260.743 245.313L260.944 244.333Z" fill="black"/>
<circle cx="2.23777" cy="2.23777" r="2.23777" transform="matrix(-1 0 0 1 1188.39 77.2772)" fill="#A5FFFD" fill-opacity="0.2"/>
<circle cx="3.13341" cy="3.13341" r="3.13341" transform="matrix(-1 0 0 1 1223.3 201.697)" fill="#A5FFFD" fill-opacity="0.3"/>
<circle cx="2.23777" cy="2.23777" r="2.23777" transform="matrix(-1 0 0 1 1190.18 151.571)" fill="#A5FFFD" fill-opacity="0.2"/>
<circle cx="2.23777" cy="2.23777" r="2.23777" transform="matrix(-1 0 0 1 1127.52 126.508)" fill="#A5FFFD" fill-opacity="0.5"/>
<circle cx="2.23777" cy="2.23777" r="2.23777" transform="matrix(-1 0 0 1 1045.18 62.9554)" fill="#A5FFFD" fill-opacity="0.2"/>
<circle cx="0.895465" cy="0.895465" r="0.895465" transform="matrix(-1 0 0 1 1086.35 107.711)" fill="#A5FFFD" fill-opacity="0.2"/>
<circle cx="0.895465" cy="0.895465" r="0.895465" transform="matrix(-1 0 0 1 1069.34 58.48)" fill="#A5FFFD" fill-opacity="0.5"/>
<circle cx="0.895465" cy="0.895465" r="0.895465" transform="matrix(-1 0 0 1 1149.01 77.2772)" fill="#A5FFFD" fill-opacity="0.2"/>
<circle cx="0.895465" cy="0.895465" r="0.895465" transform="matrix(-1 0 0 1 997.734 28.9414)" fill="#A5FFFD" fill-opacity="0.2"/>
<circle cx="0.895465" cy="0.895465" r="0.895465" transform="matrix(-1 0 0 1 1012.95 43.2632)" fill="#A5FFFD" fill-opacity="0.2"/>
<circle cx="0.895465" cy="0.895465" r="0.895465" transform="matrix(-1 0 0 1 998.63 76.382)" fill="#A5FFFD" fill-opacity="0.2"/>
<circle cx="0.895465" cy="0.895465" r="0.895465" transform="matrix(-1 0 0 1 1097.99 98.7597)" fill="#A5FFFD" fill-opacity="0.2"/>
<circle cx="0.895465" cy="0.895465" r="0.895465" transform="matrix(-1 0 0 1 1090.83 171.263)" fill="#A5FFFD" fill-opacity="0.5"/>
<circle cx="0.895465" cy="0.895465" r="0.895465" transform="matrix(-1 0 0 1 1123.05 198.116)" fill="#A5FFFD" fill-opacity="0.2"/>
<circle cx="0.895465" cy="0.895465" r="0.895465" transform="matrix(-1 0 0 1 1040.7 201.697)" fill="#A5FFFD" fill-opacity="0.2"/>
<circle cx="0.895465" cy="0.895465" r="0.895465" transform="matrix(-1 0 0 1 1161.54 182.9)" fill="#A5FFFD" fill-opacity="0.5"/>
<circle cx="0.895465" cy="0.895465" r="0.895465" transform="matrix(-1 0 0 1 1166.91 225.865)" fill="#A5FFFD" fill-opacity="0.5"/>
<circle cx="2.23777" cy="2.23777" r="2.23777" transform="matrix(-1 0 0 1 1029.06 139.935)" fill="#A5FFFD" fill-opacity="0.2"/>
<circle cx="2.23777" cy="2.23777" r="2.23777" transform="matrix(-1 0 0 1 1113.2 224.075)" fill="#A5FFFD" fill-opacity="0.2"/>
<circle cx="2.23777" cy="2.23777" r="2.23777" transform="matrix(-1 0 0 1 1095.3 204.382)" fill="#A5FFFD" fill-opacity="0.2"/>
<circle cx="224.467" cy="41.4004" r="2.40557" fill="#A5FFFD" fill-opacity="0.2"/>
<circle cx="289.898" cy="94.3231" r="2.40557" fill="#A5FFFD" fill-opacity="0.5"/>
<circle cx="378.424" cy="26.0049" r="2.40557" fill="#A5FFFD" fill-opacity="0.2"/>
<circle cx="332.718" cy="72.6732" r="0.962615" fill="#A5FFFD" fill-opacity="0.2"/>
<circle cx="351" cy="19.7507" r="0.962615" fill="#A5FFFD" fill-opacity="0.5"/>
<circle cx="265.362" cy="39.9575" r="0.962615" fill="#A5FFFD" fill-opacity="0.2"/>
<circle cx="320.209" cy="63.051" r="0.962615" fill="#A5FFFD" fill-opacity="0.2"/>
<circle cx="327.907" cy="140.992" r="0.962615" fill="#A5FFFD" fill-opacity="0.5"/>
<circle cx="293.267" cy="169.859" r="0.962615" fill="#A5FFFD" fill-opacity="0.2"/>
<circle cx="381.792" cy="173.707" r="0.962615" fill="#A5FFFD" fill-opacity="0.2"/>
<circle cx="251.891" cy="153.501" r="0.962615" fill="#A5FFFD" fill-opacity="0.5"/>
<circle cx="246.117" cy="199.688" r="0.962615" fill="#A5FFFD" fill-opacity="0.5"/>
<circle cx="395.744" cy="108.757" r="2.40557" fill="#A5FFFD" fill-opacity="0.2"/>
<circle cx="305.294" cy="199.206" r="2.40557" fill="#A5FFFD" fill-opacity="0.2"/>
<circle cx="324.539" cy="178.037" r="2.40557" fill="#A5FFFD" fill-opacity="0.2"/>
<g filter="url(#filter0_d_33018_2365)">
<path d="M1363.91 217.035C1363.48 215.517 1364.89 214.119 1366.4 214.568L1383.12 219.532C1383.78 219.726 1384.29 220.242 1384.48 220.9L1385.13 223.179C1385.56 224.697 1384.15 226.095 1382.63 225.646L1365.91 220.682C1365.26 220.488 1364.75 219.972 1364.56 219.314L1363.91 217.035Z" fill="#FFC966"/>
</g>
<g filter="url(#filter1_d_33018_2365)">
<path d="M1402.71 228.503C1402.27 226.986 1403.69 225.588 1405.2 226.037L1421.92 231C1422.58 231.195 1423.09 231.711 1423.27 232.369L1423.92 234.648C1424.36 236.166 1422.95 237.564 1421.43 237.115L1404.71 232.151C1404.06 231.956 1403.55 231.44 1403.36 230.783L1402.71 228.503Z" fill="#78FEFF"/>
</g>
<path d="M1304.3 50.1359C1301.85 38.545 1312.42 28.4114 1323.9 31.3306L1458.31 65.509C1467.91 67.9521 1475.29 75.6461 1477.34 85.3465L1496.89 178.154C1500.86 196.989 1483.7 213.457 1465.04 208.713L1346.19 178.491C1336.59 176.048 1329.21 168.354 1327.16 158.653L1304.3 50.1359Z" fill="#151737" stroke="#313B58"/>
<path d="M1316.9 58.7682C1315.09 50.093 1322.99 42.5248 1331.58 44.6949L1449.76 74.5494C1459.41 76.9879 1466.83 84.7248 1468.85 94.4733L1484 167.464C1487.7 185.277 1471.48 200.816 1453.84 196.36L1355.24 171.451C1345.59 169.012 1338.17 161.275 1336.15 151.527L1326.23 103.732L1316.9 58.7682Z" fill="#0E0F29"/>
<path d="M1326.23 103.732L1336.15 151.527C1338.17 161.275 1345.59 169.012 1355.24 171.451L1453.84 196.36C1471.48 200.816 1487.7 185.277 1484 167.464V167.464M1326.23 103.732L1316.9 58.7682C1315.09 50.093 1322.99 42.5248 1331.58 44.6949L1449.76 74.5494C1459.41 76.9879 1466.83 84.7248 1468.85 94.4733L1484 167.464M1326.23 103.732L1379.66 116.303C1385.69 117.721 1391.01 121.243 1394.67 126.236L1405.53 141.037C1409.07 145.864 1414.16 149.322 1419.96 150.827L1484 167.464" stroke="#313B58"/>
<path d="M1348.71 125.503C1348.27 123.986 1349.69 122.588 1351.2 123.037L1367.92 128C1368.58 128.195 1369.09 128.711 1369.27 129.369L1369.92 131.648C1370.36 133.166 1368.95 134.564 1367.43 134.115L1350.71 129.151C1350.06 128.956 1349.55 128.44 1349.36 127.783L1348.71 125.503Z" fill="#2B2B54"/>
<path d="M1350.71 138.503C1350.27 136.986 1351.69 135.588 1353.2 136.037L1369.92 141C1370.58 141.195 1371.09 141.711 1371.27 142.369L1371.92 144.648C1372.36 146.166 1370.95 147.564 1369.43 147.115L1352.71 142.151C1352.06 141.956 1351.55 141.44 1351.36 140.783L1350.71 138.503Z" fill="#2B2B54"/>
<path d="M985.236 331.484C984.84 329.966 986.267 328.604 987.765 329.07L988.606 329.331C989.266 329.537 989.773 330.068 989.947 330.736L997.365 359.177C997.761 360.696 996.334 362.058 994.836 361.592L993.995 361.33C993.335 361.125 992.828 360.594 992.653 359.925L985.236 331.484Z" fill="#2B2B54"/>
<path d="M1214.24 403.484C1213.84 401.966 1215.27 400.604 1216.77 401.07L1217.61 401.331C1218.27 401.537 1218.77 402.068 1218.95 402.736L1226.37 431.177C1226.76 432.696 1225.33 434.058 1223.84 433.592L1222.99 433.33C1222.34 433.125 1221.83 432.594 1221.65 431.925L1214.24 403.484Z" fill="#2B2B54"/>
<path d="M997.236 336.484C996.84 334.966 998.267 333.604 999.765 334.07L1000.61 334.331C1001.27 334.537 1001.77 335.068 1001.95 335.736L1009.36 364.177C1009.76 365.696 1008.33 367.058 1006.84 366.592L1005.99 366.33C1005.33 366.125 1004.83 365.594 1004.65 364.925L997.236 336.484Z" fill="#2B2B54"/>
<path d="M1226.24 408.484C1225.84 406.966 1227.27 405.604 1228.77 406.07L1229.61 406.331C1230.27 406.537 1230.77 407.068 1230.95 407.736L1238.37 436.177C1238.76 437.696 1237.33 439.058 1235.84 438.592L1234.99 438.33C1234.34 438.125 1233.83 437.594 1233.65 436.925L1226.24 408.484Z" fill="#2B2B54"/>
<path d="M1352.71 151.503C1352.27 149.986 1353.69 148.588 1355.2 149.037L1371.92 154C1372.58 154.195 1373.09 154.711 1373.27 155.369L1373.92 157.648C1374.36 159.166 1372.95 160.564 1371.43 160.115L1354.71 155.151C1354.06 154.956 1353.55 154.44 1353.36 153.783L1352.71 151.503Z" fill="#2B2B54"/>
<path d="M122.078 292.205C123.284 280.422 111.712 271.458 100.604 275.572L-29.4506 323.737C-38.747 327.18 -45.2766 335.609 -46.286 345.471L-55.9429 439.824C-57.9027 458.973 -39.0991 473.538 -21.0485 466.853L93.9508 424.264C103.247 420.821 109.777 412.391 110.786 402.529L122.078 292.205Z" fill="#151737" stroke="#313B58"/>
<path d="M110.459 302.119C111.335 293.302 102.681 286.609 94.3677 289.673L-20.001 331.826C-29.3429 335.269 -35.8983 343.744 -36.8823 353.652L-44.2498 427.833C-46.0477 445.937 -28.2802 459.679 -11.2104 453.387L84.2148 418.217C93.5567 414.774 100.112 406.298 101.096 396.39L105.92 347.816L110.459 302.119Z" fill="#0E0F29"/>
<path d="M105.92 347.816L101.096 396.39C100.112 406.298 93.5567 414.774 84.2148 418.217L-11.2104 453.387C-28.2802 459.679 -46.0477 445.937 -44.2498 427.833V427.833M105.92 347.816L110.459 302.119C111.335 293.302 102.681 286.609 94.3677 289.673L-20.001 331.826C-29.3429 335.269 -35.8983 343.744 -36.8823 353.652L-44.2498 427.833M105.92 347.816L54.1119 365.952C48.2678 367.998 43.3457 372.063 40.2312 377.414L30.9988 393.277C27.988 398.45 23.2846 402.426 17.6825 404.534L-44.2498 427.833" stroke="#313B58"/>
<path d="M85.377 384.96C85.6478 383.406 84.0955 382.164 82.6384 382.771L66.5357 389.47C65.9043 389.733 65.4509 390.3 65.3336 390.973L64.9268 393.309C64.656 394.863 66.2083 396.105 67.6654 395.498L83.7681 388.799C84.3994 388.536 84.8528 387.969 84.9702 387.296L85.377 384.96Z" fill="#2B2B54"/>
<g filter="url(#filter2_d_33018_2365)">
<path d="M84.4036 320.455C84.6694 318.929 83.1743 317.693 81.7256 318.241L30.5668 337.596C29.9056 337.846 29.4256 338.427 29.3042 339.123L28.8813 341.551C28.6155 343.077 30.1106 344.313 31.5594 343.765L82.7181 324.41C83.3793 324.16 83.8594 323.579 83.9807 322.883L84.4036 320.455Z" fill="#78FEFF"/>
</g>
<path d="M84.6277 398.114C84.8985 396.559 83.3462 395.318 81.8891 395.924L65.7864 402.623C65.1551 402.886 64.7017 403.453 64.5843 404.127L64.1775 406.462C63.9067 408.017 65.459 409.258 66.9161 408.652L83.0188 401.952C83.6502 401.69 84.1036 401.123 84.2209 400.449L84.6277 398.114Z" fill="#2B2B54"/>
<path d="M556.614 188.966L535.988 195.153C533.145 196.007 530.827 198.079 529.663 200.811L510.596 245.544C508.589 250.252 513.02 255.15 517.905 253.623L550.214 243.527C552.249 242.891 553.794 241.223 554.272 239.145L564.186 196.058C565.218 191.572 561.023 187.643 556.614 188.966Z" fill="url(#paint1_linear_33018_2365)"/>
<path d="M541.123 260.185L501.435 270.974C500.179 271.315 499.068 272.056 498.27 273.084L479.341 297.462C475.643 302.225 480.492 308.855 486.151 306.774L541.02 286.596C542.884 285.91 544.288 284.347 544.77 282.42L548.517 267.43C549.629 262.983 545.546 258.983 541.123 260.185Z" fill="url(#paint2_linear_33018_2365)"/>
<path d="M556.614 188.966L535.988 195.153C533.145 196.007 530.827 198.079 529.663 200.811L510.596 245.544C508.589 250.252 513.02 255.15 517.905 253.623L550.214 243.527C552.249 242.891 553.794 241.223 554.272 239.145L564.186 196.058C565.218 191.572 561.023 187.643 556.614 188.966Z" stroke="#313B58"/>
<path d="M541.123 260.185L501.435 270.974C500.179 271.315 499.068 272.056 498.27 273.084L479.341 297.462C475.643 302.225 480.492 308.855 486.151 306.774L541.02 286.596C542.884 285.91 544.288 284.347 544.77 282.42L548.517 267.43C549.629 262.983 545.546 258.983 541.123 260.185Z" stroke="#313B58"/>
<g filter="url(#filter3_d_33018_2365)">
<ellipse cx="4.06385" cy="3.71513" rx="4.06385" ry="3.71513" transform="matrix(0.690382 -0.723445 0.579283 0.815126 442 317.88)" fill="#78FEFF"/>
</g>
<g filter="url(#filter4_d_33018_2365)">
<ellipse cx="4.06385" cy="3.71513" rx="4.06385" ry="3.71513" transform="matrix(0.690382 -0.723445 0.579283 0.815126 458 311.88)" fill="#78FEFF"/>
</g>
<g filter="url(#filter5_d_33018_2365)">
<ellipse cx="4.06385" cy="3.71513" rx="4.06385" ry="3.71513" transform="matrix(0.690382 -0.723445 0.579283 0.815126 426 323.88)" fill="#FFC966"/>
</g>
<path d="M478.5 -0.5C478.5 -0.5 501 40 501 115M501 115C492.208 228.5 413.5 305 314 328.5M501 115L628.355 85.5M501 115C501 115 491 119.2 485 120M314 328.5C196 339 105.534 250 97.3679 149M314 328.5L299 403.736M314 328.5C336 322.33 346.5 305 351.5 280M97.3679 149C89 45.5 127 -0.5 127 -0.5M97.3679 149C113 152 133 152 148 145M97.3679 149L-1.5 173M963 326C926.605 313.722 895.465 304.905 867.895 298.538C860.869 296.915 855.18 291.735 853.048 284.847V284.847C851.136 278.671 846.369 273.763 840.154 271.98C762.852 249.797 662.874 255.747 593.347 276.55C586.575 278.576 581.603 284.242 580.14 291.157L579.327 295C577.882 301.831 572.98 307.413 566.393 309.729L299 403.736M-4.5 510L299 403.736M628.355 85.5L643.583 15.2625C645.577 6.06343 653.716 -0.5 663.129 -0.5H760.727C769.745 -0.5 777.647 5.53477 780.021 14.2344L842.095 241.687C843.013 245.051 839.466 248.046 836.221 246.769C780.848 224.98 652.714 228.026 595.899 251.814C592.736 253.138 589.233 250.304 590.025 246.968L628.355 85.5ZM530.279 180.924L569.065 170.346C576.315 168.369 583.073 174.794 581.465 182.134L559.849 280.778C558.386 287.456 553.613 292.924 547.194 295.276L421.208 341.443C416.882 343.028 412.458 339.349 413.228 334.806L415.936 318.827C416.286 316.761 417.689 315.042 419.609 314.202C453.69 299.288 496.483 258.353 515.854 195.269C517.974 188.365 523.311 182.824 530.279 180.924Z" stroke="#313B58"/>
<path d="M90.7125 122.177L95 121.5C95 137.9 96.5 158 100 174.5L96.9889 175.504C93.7317 176.589 90.2378 174.722 89.5997 171.349C87.1407 158.349 86.1061 139.772 85.6743 128.27C85.5611 125.255 87.7319 122.648 90.7125 122.177Z" fill="#0E0F29" stroke="black"/>
<path d="M502.872 97.1056L501.5 97C502.5 109.5 501 125 499.5 136.5L501.439 136.351C504.133 136.144 506.369 134.161 506.814 131.496C508.663 120.424 508.876 112.069 508.346 102.632C508.18 99.6776 505.823 97.3325 502.872 97.1056Z" fill="#0E0F29" stroke="black"/>
</g>
<defs>
<filter id="filter0_d_33018_2365" x="1353.83" y="204.483" width="41.3754" height="31.2483" filterUnits="userSpaceOnUse" color-interpolation-filters="sRGB">
<feFlood flood-opacity="0" result="BackgroundImageFix"/>
<feColorMatrix in="SourceAlpha" type="matrix" values="0 0 0 0 0 0 0 0 0 0 0 0 0 0 0 0 0 0 127 0" result="hardAlpha"/>
<feOffset/>
<feGaussianBlur stdDeviation="5"/>
<feComposite in2="hardAlpha" operator="out"/>
<feColorMatrix type="matrix" values="0 0 0 0 1 0 0 0 0 0.788235 0 0 0 0 0.4 0 0 0 1 0"/>
<feBlend mode="normal" in2="BackgroundImageFix" result="effect1_dropShadow_33018_2365"/>
<feBlend mode="normal" in="SourceGraphic" in2="effect1_dropShadow_33018_2365" result="shape"/>
</filter>
<filter id="filter1_d_33018_2365" x="1392.63" y="215.952" width="41.3754" height="31.2483" filterUnits="userSpaceOnUse" color-interpolation-filters="sRGB">
<feFlood flood-opacity="0" result="BackgroundImageFix"/>
<feColorMatrix in="SourceAlpha" type="matrix" values="0 0 0 0 0 0 0 0 0 0 0 0 0 0 0 0 0 0 127 0" result="hardAlpha"/>
<feOffset/>
<feGaussianBlur stdDeviation="5"/>
<feComposite in2="hardAlpha" operator="out"/>
<feColorMatrix type="matrix" values="0 0 0 0 0.647059 0 0 0 0 1 0 0 0 0 0.992157 0 0 0 1 0"/>
<feBlend mode="normal" in2="BackgroundImageFix" result="effect1_dropShadow_33018_2365"/>
<feBlend mode="normal" in="SourceGraphic" in2="effect1_dropShadow_33018_2365" result="shape"/>
</filter>
<filter id="filter2_d_33018_2365" x="18.8503" y="308.109" width="75.5842" height="45.7889" filterUnits="userSpaceOnUse" color-interpolation-filters="sRGB">
<feFlood flood-opacity="0" result="BackgroundImageFix"/>
<feColorMatrix in="SourceAlpha" type="matrix" values="0 0 0 0 0 0 0 0 0 0 0 0 0 0 0 0 0 0 127 0" result="hardAlpha"/>
<feOffset/>
<feGaussianBlur stdDeviation="5"/>
<feComposite in2="hardAlpha" operator="out"/>
<feColorMatrix type="matrix" values="0 0 0 0 0.647059 0 0 0 0 1 0 0 0 0 0.992157 0 0 0 1 0"/>
<feBlend mode="normal" in2="BackgroundImageFix" result="effect1_dropShadow_33018_2365"/>
<feBlend mode="normal" in="SourceGraphic" in2="effect1_dropShadow_33018_2365" result="shape"/>
</filter>
<filter id="filter3_d_33018_2365" x="433.422" y="303.748" width="27.0723" height="28.4413" filterUnits="userSpaceOnUse" color-interpolation-filters="sRGB">
<feFlood flood-opacity="0" result="BackgroundImageFix"/>
<feColorMatrix in="SourceAlpha" type="matrix" values="0 0 0 0 0 0 0 0 0 0 0 0 0 0 0 0 0 0 127 0" result="hardAlpha"/>
<feOffset/>
<feGaussianBlur stdDeviation="5"/>
<feComposite in2="hardAlpha" operator="out"/>
<feColorMatrix type="matrix" values="0 0 0 0 0.647059 0 0 0 0 1 0 0 0 0 0.992157 0 0 0 1 0"/>
<feBlend mode="normal" in2="BackgroundImageFix" result="effect1_dropShadow_33018_2365"/>
<feBlend mode="normal" in="SourceGraphic" in2="effect1_dropShadow_33018_2365" result="shape"/>
</filter>
<filter id="filter4_d_33018_2365" x="449.422" y="297.748" width="27.0723" height="28.4413" filterUnits="userSpaceOnUse" color-interpolation-filters="sRGB">
<feFlood flood-opacity="0" result="BackgroundImageFix"/>
<feColorMatrix in="SourceAlpha" type="matrix" values="0 0 0 0 0 0 0 0 0 0 0 0 0 0 0 0 0 0 127 0" result="hardAlpha"/>
<feOffset/>
<feGaussianBlur stdDeviation="5"/>
<feComposite in2="hardAlpha" operator="out"/>
<feColorMatrix type="matrix" values="0 0 0 0 0.647059 0 0 0 0 1 0 0 0 0 0.992157 0 0 0 1 0"/>
<feBlend mode="normal" in2="BackgroundImageFix" result="effect1_dropShadow_33018_2365"/>
<feBlend mode="normal" in="SourceGraphic" in2="effect1_dropShadow_33018_2365" result="shape"/>
</filter>
<filter id="filter5_d_33018_2365" x="417.422" y="309.748" width="27.0723" height="28.4413" filterUnits="userSpaceOnUse" color-interpolation-filters="sRGB">
<feFlood flood-opacity="0" result="BackgroundImageFix"/>
<feColorMatrix in="SourceAlpha" type="matrix" values="0 0 0 0 0 0 0 0 0 0 0 0 0 0 0 0 0 0 127 0" result="hardAlpha"/>
<feOffset/>
<feGaussianBlur stdDeviation="5"/>
<feComposite in2="hardAlpha" operator="out"/>
<feColorMatrix type="matrix" values="0 0 0 0 1 0 0 0 0 0.788235 0 0 0 0 0.4 0 0 0 1 0"/>
<feBlend mode="normal" in2="BackgroundImageFix" result="effect1_dropShadow_33018_2365"/>
<feBlend mode="normal" in="SourceGraphic" in2="effect1_dropShadow_33018_2365" result="shape"/>
</filter>
<linearGradient id="paint0_linear_33018_2365" x1="720" y1="0" x2="720" y2="623" gradientUnits="userSpaceOnUse">
<stop stop-color="#212240"/>
<stop offset="1" stop-color="#0E0F29"/>
</linearGradient>
<linearGradient id="paint1_linear_33018_2365" x1="516.5" y1="186" x2="516.5" y2="314" gradientUnits="userSpaceOnUse">
<stop stop-color="#2F304E"/>
<stop offset="1" stop-color="#232542"/>
</linearGradient>
<linearGradient id="paint2_linear_33018_2365" x1="516.5" y1="186" x2="516.5" y2="314" gradientUnits="userSpaceOnUse">
<stop stop-color="#2F304E"/>
<stop offset="1" stop-color="#232542"/>
</linearGradient>
<clipPath id="clip0_33018_2365">
<rect width="1440" height="623" fill="white"/>
</clipPath>
</defs>
</svg>
