<svg width="185" height="49" viewBox="0 0 185 49" fill="none" xmlns="http://www.w3.org/2000/svg">
<rect x="1" y="1" width="183" height="47" rx="6" fill="#8786B5" stroke="#292A41" stroke-linecap="round"/>
<g filter="url(#filter0_i_34706_5197)">
<rect x="7" y="6" width="172" height="37" rx="6" fill="#BFFF60"/>
</g>
<rect x="7.5" y="6.5" width="171" height="36" rx="5.5" stroke="black"/>
<path d="M20.12 17.96C20.4133 17.3467 20.9 17.04 21.58 17.04C22.1267 17.04 22.5533 17.2467 22.86 17.66C22.8733 17.6867 22.8933 17.7133 22.92 17.74C23.0533 17.9 23.1267 18.2133 23.14 18.68C23.1667 19.1467 23.1867 20.6867 23.2 23.3L23.22 28.36L23.34 28.62C23.5 28.9667 23.7533 29.22 24.1 29.38L24.34 29.5C25.46 29.5133 27.14 29.52 29.38 29.52C31.6333 29.52 33.32 29.5267 34.44 29.54L34.68 29.66C35.2667 29.9533 35.56 30.42 35.56 31.06C35.56 31.58 35.34 32.0133 34.9 32.36C34.8867 32.3733 34.86 32.3933 34.82 32.42C34.7 32.5133 34.48 32.5667 34.16 32.58C33.8533 32.6067 32.9333 32.62 31.4 32.62H27.76C23.36 32.6067 21.0867 32.5733 20.94 32.52C20.5933 32.3867 20.3267 32.1333 20.14 31.76L20 31.5V18.2L20.12 17.96ZM37.6586 18C37.7786 17.7467 37.9653 17.5267 38.2186 17.34C38.4853 17.1533 38.7719 17.06 39.0786 17.06C39.8119 17.06 40.3186 17.3733 40.5986 18L40.6986 18.2C40.7119 19.3333 40.7186 21.0267 40.7186 23.28C40.7186 25.5333 40.7253 27.2267 40.7386 28.36L40.8586 28.6C41.0319 28.9733 41.2853 29.24 41.6186 29.4L41.9186 29.54H48.7986L49.0586 29.4C49.4319 29.2267 49.6986 28.9667 49.8586 28.62L49.9786 28.36C49.9919 27.24 49.9986 25.5467 49.9986 23.28C49.9986 21.0133 50.0053 19.32 50.0186 18.2L50.1386 17.96C50.3253 17.5733 50.6053 17.3133 50.9786 17.18C51.1253 17.1267 51.3186 17.1 51.5586 17.1C52.1986 17.1 52.6653 17.4 52.9586 18L53.0786 18.24V31.44L52.9586 31.7C52.7986 32.06 52.5386 32.32 52.1786 32.48L51.8986 32.62H38.7386L38.4386 32.48C38.1053 32.3333 37.8519 32.0867 37.6786 31.74L37.5586 31.5V18.2L37.6586 18ZM56.1181 17.26C56.2115 17.22 56.9715 17.2 58.3981 17.2H62.9581H69.5781L69.8381 17.32C69.9981 17.4133 70.1515 17.5333 70.2981 17.68C70.5781 18 70.7181 18.3667 70.7181 18.78C70.7181 19.4733 70.4248 19.96 69.8381 20.24L69.5381 20.38C68.4181 20.3933 66.7315 20.4 64.4781 20.4C62.2381 20.4 60.5581 20.4067 59.4381 20.42L59.1781 20.54C58.8181 20.7133 58.5581 21 58.3981 21.4L58.2981 21.64V28.44L58.3981 28.7C58.5448 29.06 58.8048 29.3333 59.1781 29.52L59.4781 29.66H69.5381L69.8181 29.78C70.4181 30.06 70.7181 30.5267 70.7181 31.18C70.7181 31.4333 70.6581 31.6733 70.5381 31.9C70.4715 32.0467 70.3515 32.1933 70.1781 32.34C70.0181 32.4867 69.8715 32.5867 69.7381 32.64C69.5781 32.6933 67.3048 32.7267 62.9181 32.74L56.3181 32.78L56.0581 32.68C55.8848 32.6267 55.7115 32.5067 55.5381 32.32C55.3648 32.1467 55.2448 31.9733 55.1781 31.8L55.0781 31.54V18.42L55.1781 18.18C55.3648 17.7 55.6781 17.3933 56.1181 17.26ZM73.7744 17.08C73.9344 17.0267 74.1077 17 74.2944 17C74.6277 17 74.9277 17.0933 75.1944 17.28C75.4744 17.4533 75.6744 17.66 75.7944 17.9L75.9144 18.16C75.9277 18.6 75.9344 19.2667 75.9344 20.16C75.9344 21.04 75.941 21.7067 75.9544 22.16L76.0744 22.4C76.2344 22.7467 76.4744 22.9933 76.7944 23.14L77.0744 23.28L78.9944 23.3C80.2744 23.3 80.9944 23.2733 81.1544 23.22C81.701 23.0067 82.0144 22.5267 82.0944 21.78C82.1477 21.14 82.4144 20.6933 82.8944 20.44C83.0944 20.3333 83.321 20.28 83.5744 20.28C84.1744 20.28 84.6144 20.54 84.8944 21.06C85.0144 21.2867 85.0744 21.52 85.0744 21.76C85.0744 22.1867 84.9344 22.5533 84.6544 22.86C84.3877 23.14 84.021 23.3 83.5544 23.34C82.901 23.42 82.461 23.7133 82.2344 24.22C82.1677 24.3533 82.1344 24.58 82.1344 24.9C82.1344 25.3533 82.2677 25.7133 82.5344 25.98C82.801 26.2333 83.1744 26.3733 83.6544 26.4C84.1077 26.4267 84.4744 26.58 84.7544 26.86C85.0344 27.1267 85.1744 27.4867 85.1744 27.94C85.1744 28.4067 85.0344 28.78 84.7544 29.06C84.4744 29.34 84.1077 29.48 83.6544 29.48C83.201 29.48 82.8344 29.3467 82.5544 29.08C82.2744 28.8133 82.121 28.46 82.0944 28.02C82.041 27.3933 81.841 26.96 81.4944 26.72C81.321 26.5867 81.1277 26.5067 80.9144 26.48C80.701 26.4533 80.061 26.44 78.9944 26.44H77.0544L76.8344 26.54C76.4744 26.7133 76.221 26.9667 76.0744 27.3L75.9544 27.54C75.941 27.98 75.9344 28.6467 75.9344 29.54C75.9344 30.42 75.9277 31.0867 75.9144 31.54L75.7944 31.78C75.6344 32.14 75.3944 32.3933 75.0744 32.54C74.901 32.6333 74.6477 32.68 74.3144 32.68C74.0077 32.68 73.761 32.6333 73.5744 32.54C73.2677 32.3933 73.0277 32.14 72.8544 31.78L72.7344 31.54V18.16L72.8344 17.94C73.0344 17.5267 73.3477 17.24 73.7744 17.08ZM86.3744 17.04C86.4144 17.0267 86.561 17.02 86.8144 17.02C87.4544 17.0467 87.9077 17.34 88.1744 17.9C88.2544 18.06 88.2944 18.2933 88.2944 18.6C88.2944 18.9067 88.2544 19.1467 88.1744 19.32C87.921 19.9067 87.4477 20.2 86.7544 20.2C86.4877 20.2 86.2677 20.16 86.0944 20.08C85.761 19.92 85.5144 19.6733 85.3544 19.34C85.2744 19.18 85.2344 18.9267 85.2344 18.58C85.2344 18.3133 85.261 18.12 85.3144 18C85.4877 17.5333 85.841 17.2133 86.3744 17.04ZM86.3544 29.54C86.501 29.5 86.6344 29.48 86.7544 29.48C87.1677 29.48 87.5277 29.6267 87.8344 29.92C88.141 30.2 88.2944 30.5733 88.2944 31.04C88.2944 31.7067 87.9877 32.18 87.3744 32.46C87.2144 32.54 87.0077 32.58 86.7544 32.58C86.5677 32.58 86.401 32.5533 86.2544 32.5C85.7744 32.34 85.4544 32.0267 85.2944 31.56C85.2544 31.44 85.2344 31.28 85.2344 31.08C85.2344 30.8133 85.261 30.6067 85.3144 30.46C85.501 29.98 85.8477 29.6733 86.3544 29.54ZM104.213 17.1C104.586 17.1 104.84 17.1 104.973 17.1C105.12 17.1 105.253 17.1267 105.373 17.18C105.506 17.22 105.58 17.2533 105.593 17.28C105.606 17.3067 105.666 17.3933 105.773 17.54V32.24L105.673 32.38C105.66 32.3933 105.646 32.4133 105.633 32.44C105.566 32.56 105.3 32.6267 104.833 32.64C104.366 32.6667 102.88 32.68 100.373 32.68H97.993L90.713 32.66C90.6863 32.6467 90.6463 32.62 90.593 32.58C90.553 32.5533 90.5263 32.5333 90.513 32.52C90.4996 32.5067 90.473 32.4867 90.433 32.46C90.4063 32.4333 90.3863 32.4133 90.373 32.4C90.373 32.3867 90.3596 32.36 90.333 32.32C90.3196 32.28 90.313 32.24 90.313 32.2C90.313 32.1733 90.3063 32.1267 90.293 32.06C90.293 32.0067 90.293 31.9467 90.293 31.88C90.293 31.8267 90.293 31.7533 90.293 31.66V31.12C90.3063 30.4 90.3396 30 90.393 29.92C90.433 29.84 90.4996 29.7667 90.593 29.7C90.6863 29.6333 92.033 29.6 94.633 29.6H97.733C100.72 29.6 102.26 29.56 102.353 29.48C102.433 29.4267 102.513 29.3467 102.593 29.24C102.66 29.1333 102.693 28.9667 102.693 28.74C102.693 28.7 102.686 28.6 102.673 28.44C102.673 28.28 102.673 28.1333 102.673 28L102.653 26.9L102.533 26.76C102.426 26.6533 102.306 26.5867 102.173 26.56C101.866 26.52 100.64 26.5 98.493 26.5H96.473H94.613C92.6396 26.5 91.4663 26.4933 91.093 26.48C90.733 26.4533 90.5196 26.38 90.453 26.26C90.4396 26.2333 90.4263 26.2133 90.413 26.2L90.313 26.04L90.293 21.82V19.5C90.293 18.22 90.3196 17.5333 90.373 17.44C90.413 17.36 90.493 17.2733 90.613 17.18C90.7196 17.1133 90.893 17.08 91.133 17.08C91.1863 17.08 91.293 17.0867 91.453 17.1C91.613 17.1 91.7596 17.1 91.893 17.1C92.533 17.1133 92.913 17.1333 93.033 17.16C93.153 17.1867 93.2596 17.28 93.353 17.44C93.4196 17.56 93.4596 17.7667 93.473 18.06C93.4863 18.34 93.493 19.12 93.493 20.4C93.493 21.9733 93.5063 22.8 93.533 22.88C93.5996 23.16 93.793 23.3267 94.113 23.38C94.1796 23.3933 95.5663 23.4 98.273 23.4C98.713 23.4 99.273 23.4 99.953 23.4C101.486 23.3867 102.286 23.3533 102.353 23.3C102.446 23.2467 102.52 23.1733 102.573 23.08C102.64 23.0133 102.673 22.34 102.673 21.06V19.76C102.673 18.36 102.713 17.5867 102.793 17.44C102.82 17.3733 102.9 17.2933 103.033 17.2C103.126 17.1333 103.52 17.1 104.213 17.1ZM113.813 17.24L114.073 17.14H120.673L127.273 17.16L127.513 17.28C127.847 17.4533 128.087 17.6933 128.233 18L128.373 18.24V31.54L128.213 31.82C128.053 32.1667 127.807 32.4133 127.473 32.56C127.34 32.6267 127.113 32.66 126.793 32.66C126.14 32.66 125.667 32.3933 125.373 31.86L125.233 31.58L125.213 26.54L125.173 21.52L125.053 21.22C124.893 20.8867 124.627 20.6333 124.253 20.46L124.013 20.34L120.753 20.32H119.113C118.193 20.32 117.607 20.3333 117.353 20.36C117.1 20.3867 116.893 20.44 116.733 20.52C116.253 20.7733 115.987 21.2267 115.933 21.88C115.893 22.3333 115.74 22.7 115.473 22.98C115.207 23.2467 114.84 23.38 114.373 23.38C113.733 23.38 113.273 23.0867 112.993 22.5L112.853 22.22L112.833 20.38V19.44C112.833 18.84 112.853 18.46 112.893 18.3C113.04 17.7933 113.347 17.44 113.813 17.24ZM131.411 17.24L131.671 17.14H138.271L144.871 17.16L145.111 17.28C145.444 17.4533 145.684 17.6933 145.831 18L145.971 18.24V31.54L145.811 31.82C145.651 32.1667 145.404 32.4133 145.071 32.56C144.938 32.6267 144.711 32.66 144.391 32.66C143.738 32.66 143.264 32.3933 142.971 31.86L142.831 31.58L142.811 26.54L142.771 21.52L142.651 21.22C142.491 20.8867 142.224 20.6333 141.851 20.46L141.611 20.34L138.351 20.32H136.711C135.791 20.32 135.204 20.3333 134.951 20.36C134.698 20.3867 134.491 20.44 134.331 20.52C133.851 20.7733 133.584 21.2267 133.531 21.88C133.491 22.3333 133.338 22.7 133.071 22.98C132.804 23.2467 132.438 23.38 131.971 23.38C131.331 23.38 130.871 23.0867 130.591 22.5L130.451 22.22L130.431 20.38V19.44C130.431 18.84 130.451 18.46 130.491 18.3C130.638 17.7933 130.944 17.44 131.411 17.24ZM149.009 17.24L149.269 17.14H155.869L162.469 17.16L162.709 17.28C163.042 17.4533 163.282 17.6933 163.429 18L163.569 18.24V31.54L163.409 31.82C163.249 32.1667 163.002 32.4133 162.669 32.56C162.535 32.6267 162.309 32.66 161.989 32.66C161.335 32.66 160.862 32.3933 160.569 31.86L160.429 31.58L160.409 26.54L160.369 21.52L160.249 21.22C160.089 20.8867 159.822 20.6333 159.449 20.46L159.209 20.34L155.949 20.32H154.309C153.389 20.32 152.802 20.3333 152.549 20.36C152.295 20.3867 152.089 20.44 151.929 20.52C151.449 20.7733 151.182 21.2267 151.129 21.88C151.089 22.3333 150.935 22.7 150.669 22.98C150.402 23.2467 150.035 23.38 149.569 23.38C148.929 23.38 148.469 23.0867 148.189 22.5L148.049 22.22L148.029 20.38V19.44C148.029 18.84 148.049 18.46 148.089 18.3C148.235 17.7933 148.542 17.44 149.009 17.24Z" fill="black"/>
<defs>
<filter id="filter0_i_34706_5197" x="7" y="6" width="172" height="37" filterUnits="userSpaceOnUse" color-interpolation-filters="sRGB">
<feFlood flood-opacity="0" result="BackgroundImageFix"/>
<feBlend mode="normal" in="SourceGraphic" in2="BackgroundImageFix" result="shape"/>
<feColorMatrix in="SourceAlpha" type="matrix" values="0 0 0 0 0 0 0 0 0 0 0 0 0 0 0 0 0 0 127 0" result="hardAlpha"/>
<feOffset dy="6"/>
<feComposite in2="hardAlpha" operator="arithmetic" k2="-1" k3="1"/>
<feColorMatrix type="matrix" values="0 0 0 0 0 0 0 0 0 0 0 0 0 0 0 0 0 0 0.5 0"/>
<feBlend mode="normal" in2="shape" result="effect1_innerShadow_34706_5197"/>
</filter>
</defs>
</svg>
