<svg width="111" height="87" viewBox="0 0 111 87" fill="none" xmlns="http://www.w3.org/2000/svg">
<path d="M7.5 65H83.5L104.5 80L107 86.3349H33.5L18.5 84.5L0 69.5L7.5 65Z" fill="black" fill-opacity="0.4"/>
<path d="M31.19 45.2471L11.7456 30.498H81.0567L103.927 44.2612L31.19 45.2471Z" fill="black" stroke="black" stroke-linejoin="round"/>
<ellipse cx="45.8398" cy="48.6653" rx="26.1299" ry="6.31711" fill="black" fill-opacity="0.4"/>
<path d="M24.8782 43.3584C24.8782 48.3198 34.2629 52.3418 45.8395 52.3418C57.4161 52.3418 66.8008 48.3198 66.8008 43.3584L66.8008 34.375L24.8782 34.375L24.8782 43.3584Z" fill="#8069FF" stroke="black"/>
<rect opacity="0.5" x="64.623" y="37.0977" width="9.25564" height="2.1778" rx="1.0889" transform="rotate(90 64.623 37.0977)" fill="black"/>
<rect opacity="0.5" x="58.6348" y="39.8198" width="9.25564" height="2.1778" rx="1.0889" transform="rotate(90 58.6348 39.8198)" fill="black"/>
<rect opacity="0.5" x="51.5571" y="41.4536" width="9.25564" height="2.1778" rx="1.0889" transform="rotate(90 51.5571 41.4536)" fill="black"/>
<rect opacity="0.5" x="44.479" y="41.4536" width="9.25564" height="2.1778" rx="1.0889" transform="rotate(90 44.479 41.4536)" fill="black"/>
<rect opacity="0.5" x="37.4009" y="40.3643" width="9.25564" height="2.1778" rx="1.0889" transform="rotate(90 37.4009 40.3643)" fill="black"/>
<rect opacity="0.5" x="30.3228" y="37.6426" width="9.25564" height="2.1778" rx="1.0889" transform="rotate(90 30.3228 37.6426)" fill="black"/>
<ellipse cx="45.8395" cy="34.1035" rx="8.98342" ry="20.9613" transform="rotate(90 45.8395 34.1035)" fill="white" stroke="black"/>
<ellipse cx="45.9584" cy="34.0527" rx="7.23097" ry="18.2901" transform="rotate(90 45.9584 34.0527)" fill="#8069FF" stroke="black"/>
<path d="M50.9151 29.2437C54.8936 29.2438 56.147 31.7015 56.8555 35.1294C57.1824 36.9493 56.91 38.4662 54.9483 38.436C52.1141 38.436 52.0048 37.0097 49.9883 36.3423C49.2252 36.1299 47.5353 36.0386 46.1182 36.0083C44.7011 36.0386 43.0111 36.1299 42.2481 36.3423C40.2318 37.0097 40.1227 38.4359 37.2891 38.436C35.2726 38.436 34.9448 36.9191 35.3262 35.0991C35.9802 31.7014 37.2341 29.2437 41.2129 29.2437C43.2295 29.2437 44.2105 30.3967 46.0635 30.4878C47.8621 30.3968 48.8984 29.2437 50.9151 29.2437ZM41.2676 31.6704C39.687 31.6704 38.4336 32.3991 38.4336 33.2485C38.434 34.0978 39.6872 34.8257 41.2676 34.8257C42.7934 34.8256 44.1012 34.1281 44.1016 33.2485C44.1016 32.3688 42.8481 31.6705 41.2676 31.6704ZM50.6426 31.731V32.9448H48.4072V33.5513H50.6426V34.7954H51.7324V33.5513H53.9668V32.9448H51.7324V31.731H50.6426ZM41.2676 32.3384C41.7035 32.3385 42.1397 32.4592 42.4121 32.6108C42.739 32.7928 42.9024 33.0059 42.9024 33.2485C42.9021 33.491 42.6844 33.7337 42.4121 33.8853C42.0852 34.0672 41.7035 34.1577 41.2676 34.1577C40.8318 34.1577 40.3956 34.0368 40.1231 33.8853C39.7962 33.7033 39.6321 33.491 39.6319 33.2485C39.6319 33.0058 39.796 32.7625 40.1231 32.6108C40.45 32.429 40.8318 32.3384 41.2676 32.3384Z" fill="white"/>
<ellipse cx="45.8392" cy="34.5955" rx="20.9613" ry="7.17853" fill="black" fill-opacity="0.4"/>
<ellipse cx="64.977" cy="56.3899" rx="26.1299" ry="6.31711" fill="black" fill-opacity="0.4"/>
<path d="M55.6609 49.1738C55.6609 54.1353 65.0456 58.1573 76.6222 58.1573C88.1988 58.1573 97.5835 54.1353 97.5835 49.1738L97.5835 40.1904L55.6609 40.1904L55.6609 49.1738Z" fill="#8069FF" stroke="black"/>
<rect opacity="0.5" x="95.4053" y="42.9131" width="9.25564" height="2.1778" rx="1.0889" transform="rotate(90 95.4053 42.9131)" fill="black"/>
<rect opacity="0.5" x="89.417" y="45.6348" width="9.25564" height="2.1778" rx="1.0889" transform="rotate(90 89.417 45.6348)" fill="black"/>
<rect opacity="0.5" x="82.3389" y="47.2695" width="9.25564" height="2.1778" rx="1.0889" transform="rotate(90 82.3389 47.2695)" fill="black"/>
<rect opacity="0.5" x="75.2607" y="47.2695" width="9.25564" height="2.1778" rx="1.0889" transform="rotate(90 75.2607 47.2695)" fill="black"/>
<rect opacity="0.5" x="68.1831" y="46.1797" width="9.25564" height="2.1778" rx="1.0889" transform="rotate(90 68.1831 46.1797)" fill="black"/>
<rect opacity="0.5" x="61.105" y="43.458" width="9.25564" height="2.1778" rx="1.0889" transform="rotate(90 61.105 43.458)" fill="black"/>
<ellipse cx="76.6222" cy="39.919" rx="8.98342" ry="20.9613" transform="rotate(90 76.6222 39.919)" fill="white" stroke="black"/>
<ellipse cx="76.7407" cy="39.8672" rx="7.23097" ry="18.2901" transform="rotate(90 76.7407 39.8672)" fill="#8069FF" stroke="black"/>
<path d="M81.6974 35.0591C85.6758 35.0592 86.9293 37.5161 87.6378 40.9438C87.9648 42.764 87.6926 44.2807 85.7306 44.2505C82.8964 44.2505 82.7871 42.8251 80.7706 42.1577C80.0076 41.9454 78.3176 41.8541 76.9005 41.8237C75.4837 41.8541 73.7946 41.9455 73.0314 42.1577C71.0148 42.8251 70.9052 44.2504 68.0714 44.2505C66.0547 44.2505 65.727 42.7338 66.1085 40.9136C66.7626 37.516 68.0166 35.0591 71.9952 35.0591C74.0117 35.0591 74.9929 36.2111 76.8458 36.3022C78.6445 36.2112 79.6807 35.0591 81.6974 35.0591ZM72.0499 37.4858C70.4695 37.4858 69.2163 38.2137 69.2159 39.063C69.2159 39.9124 70.4693 40.6411 72.0499 40.6411C73.576 40.6411 74.8839 39.9427 74.8839 39.063C74.8836 38.1834 73.6303 37.4859 72.0499 37.4858ZM81.4249 37.5464V38.7603H79.1896V39.3667H81.4249V40.6108H82.5148V39.3667H84.7491V38.7603H82.5148V37.5464H81.4249ZM72.0499 38.1538C72.4858 38.1539 72.922 38.2756 73.1944 38.4272C73.5212 38.6092 73.6847 38.8214 73.6847 39.064C73.6846 39.3065 73.4668 39.549 73.1944 39.7007C72.8675 39.8826 72.4858 39.9741 72.0499 39.9741C71.614 39.9741 71.1779 39.8523 70.9054 39.7007C70.5784 39.5187 70.4142 39.3066 70.4142 39.064C70.4142 38.8213 70.5784 38.5789 70.9054 38.4272C71.2324 38.2453 71.614 38.1538 72.0499 38.1538Z" fill="white"/>
<path d="M32.6295 83.9778L8.24365 65.2872L4.05322 58.167L28.2366 75.3678L32.6295 83.9778Z" fill="#3E347C" stroke="black" stroke-linejoin="round"/>
<path d="M28.0205 47.251L109.14 46.1831L109.14 75.9876L102.439 83.9775H33.0478L28.0207 75.9864L28.0205 47.251Z" fill="#7370C8" stroke="black" stroke-linejoin="round"/>
<path d="M35.3809 50.7155L101.751 49.856L101.751 73.845L96.2688 80.2758H80.7923L78.6091 78.103H61.5798L59.3965 80.2758H39.4941L35.381 73.844L35.3809 50.7155Z" fill="#3E347C" stroke="black" stroke-linejoin="round"/>
<path d="M38.146 53.4218L98.9857 52.6216L98.9856 71.5232L93.9599 77.5106H82.3806L80.3793 75.4876H59.5543L57.5529 77.5106H41.9165L38.1461 71.5223L38.146 53.4218Z" fill="#8B87FF" stroke="black" stroke-linejoin="round"/>
<path d="M28.0202 47.2163L4.05337 28.6689L4.05322 58.1912L28.0204 75.6814L28.0202 47.2163Z" fill="#7370C8" stroke="black" stroke-linejoin="round"/>
<path d="M25.2409 48.3683L6.8048 34.1851L6.80469 56.7609L25.241 70.1358L25.2409 48.3683Z" fill="#3E347C" stroke="black" stroke-linejoin="round"/>
<path d="M81.7372 28.0503C81.8079 28.0605 81.8759 28.0865 81.9365 28.1255L109.374 45.7925C109.559 45.9118 109.644 46.1393 109.584 46.3511C109.523 46.5628 109.33 46.71 109.11 46.7134L27.9423 47.856C27.8264 47.8575 27.7135 47.819 27.623 47.7466L4.18744 28.9351C4.02196 28.8022 3.95786 28.5796 4.02826 28.3794C4.09885 28.1796 4.28799 28.0454 4.49994 28.0454H81.666L81.7372 28.0503ZM11.3583 29.7085C11.1445 29.7086 10.9537 29.8449 10.8847 30.0474C10.8159 30.2496 10.8838 30.4733 11.0527 30.604L29.916 45.1548C30.0052 45.2236 30.1158 45.2598 30.2285 45.2583L100.79 44.2856L100.871 44.2778C101.058 44.2443 101.213 44.1064 101.265 43.9185C101.323 43.7038 101.234 43.4761 101.044 43.3599L78.8574 29.7817C78.7985 29.7458 78.7328 29.7228 78.665 29.7134L78.5966 29.7085H11.3583Z" fill="#7370C8"/>
<path d="M81.7372 28.0503L81.8086 27.5554C81.7963 27.5536 81.7839 27.5523 81.7714 27.5515L81.7372 28.0503ZM81.9365 28.1255L82.2072 27.7051L82.2071 27.705L81.9365 28.1255ZM109.374 45.7925L109.645 45.3722L109.645 45.3721L109.374 45.7925ZM109.584 46.3511L110.065 46.4889L110.065 46.4882L109.584 46.3511ZM109.11 46.7134L109.117 47.2133L109.118 47.2133L109.11 46.7134ZM27.9423 47.856L27.949 48.3559L27.9494 48.3559L27.9423 47.856ZM27.623 47.7466L27.31 48.1365L27.3105 48.1369L27.623 47.7466ZM4.18744 28.9351L4.50043 28.5451L4.50042 28.5451L4.18744 28.9351ZM4.02826 28.3794L3.55682 28.2128L3.55658 28.2135L4.02826 28.3794ZM81.666 28.0454L81.7001 27.5466C81.6888 27.5458 81.6774 27.5454 81.666 27.5454V28.0454ZM11.3583 29.7085V29.2085L11.358 29.2085L11.3583 29.7085ZM10.8847 30.0474L10.4114 29.886L10.4113 29.8863L10.8847 30.0474ZM11.0527 30.604L10.7467 30.9995L10.7473 30.9999L11.0527 30.604ZM29.916 45.1548L29.6106 45.5507L29.6108 45.5508L29.916 45.1548ZM30.2285 45.2583L30.2351 45.7583L30.2353 45.7583L30.2285 45.2583ZM100.79 44.2856L100.797 44.7856C100.811 44.7854 100.824 44.7847 100.838 44.7833L100.79 44.2856ZM100.871 44.2778L100.919 44.7755C100.932 44.7742 100.946 44.7724 100.959 44.77L100.871 44.2778ZM101.265 43.9185L101.747 44.0509L101.747 44.0507L101.265 43.9185ZM101.044 43.3599L101.305 42.9336L101.305 42.9334L101.044 43.3599ZM78.8574 29.7817L79.1184 29.3553L79.118 29.355L78.8574 29.7817ZM78.665 29.7134L78.7336 29.2181C78.7226 29.2166 78.7116 29.2154 78.7006 29.2146L78.665 29.7134ZM78.5966 29.7085L78.6322 29.2098C78.6204 29.2089 78.6085 29.2085 78.5966 29.2085V29.7085ZM81.7372 28.0503L81.6658 28.5452L81.6659 28.5459L81.9365 28.1255L82.2071 27.705C82.0889 27.629 81.9534 27.5763 81.8086 27.5554L81.7372 28.0503ZM81.9365 28.1255L81.6658 28.5459L109.103 46.2129L109.374 45.7925L109.645 45.3721L82.2072 27.7051L81.9365 28.1255ZM109.374 45.7925L109.103 46.2128C109.103 46.2128 109.103 46.2128 109.103 46.2127C109.103 46.2125 109.103 46.2124 109.103 46.2124C109.103 46.2123 109.103 46.2124 109.103 46.2129C109.103 46.2133 109.103 46.2136 109.103 46.2137C109.103 46.2138 109.103 46.2138 109.103 46.2137C109.103 46.2137 109.103 46.2137 109.103 46.2139L109.584 46.3511L110.065 46.4882C110.185 46.0655 110.016 45.6112 109.645 45.3722L109.374 45.7925ZM109.584 46.3511L109.103 46.2132L109.103 46.2134L109.11 46.7134L109.118 47.2133C109.558 47.2066 109.943 46.9127 110.065 46.4889L109.584 46.3511ZM109.11 46.7134L109.103 46.2134L27.9353 47.356L27.9423 47.856L27.9494 48.3559L109.117 47.2133L109.11 46.7134ZM27.9423 47.856L27.9356 47.356L27.9355 47.3563L27.623 47.7466L27.3105 48.1369C27.4922 48.2824 27.7182 48.359 27.949 48.3559L27.9423 47.856ZM27.623 47.7466L27.936 47.3567L4.50043 28.5451L4.18744 28.9351L3.87445 29.325L27.31 48.1365L27.623 47.7466ZM4.18744 28.9351L4.50042 28.5451L4.49994 28.5453L4.02826 28.3794L3.55658 28.2135C3.41545 28.6148 3.54429 29.06 3.87446 29.325L4.18744 28.9351ZM4.02826 28.3794L4.4997 28.546L4.49994 28.5454V28.0454V27.5454C4.0754 27.5454 3.69779 27.8138 3.55682 28.2128L4.02826 28.3794ZM4.49994 28.0454V28.5454H81.666V28.0454V27.5454H4.49994V28.0454ZM81.666 28.0454L81.6318 28.5442L81.7031 28.5491L81.7372 28.0503L81.7714 27.5515L81.7001 27.5466L81.666 28.0454ZM11.3583 29.7085L11.358 29.2085C10.9308 29.2087 10.5496 29.4807 10.4114 29.886L10.8847 30.0474L11.358 30.2087L11.3586 30.2085L11.3583 29.7085ZM10.8847 30.0474L10.4113 29.8863C10.2734 30.2917 10.4097 30.7387 10.7467 30.9995L11.0527 30.604L11.3586 30.2085L11.3581 30.2084L10.8847 30.0474ZM11.0527 30.604L10.7473 30.9999L29.6106 45.5507L29.916 45.1548L30.2213 44.7589L11.3581 30.2081L11.0527 30.604ZM29.916 45.1548L29.6108 45.5508C29.7908 45.6895 30.0116 45.7612 30.2351 45.7583L30.2285 45.2583L30.2219 44.7583L30.2212 44.7587L29.916 45.1548ZM30.2285 45.2583L30.2353 45.7583L100.797 44.7856L100.79 44.2856L100.783 43.7857L30.2216 44.7583L30.2285 45.2583ZM100.79 44.2856L100.838 44.7833L100.919 44.7755L100.871 44.2778L100.823 43.7801L100.742 43.788L100.79 44.2856ZM100.871 44.2778L100.959 44.77C101.333 44.7029 101.643 44.4272 101.747 44.0509L101.265 43.9185L100.782 43.786L100.783 43.7857L100.871 44.2778ZM101.265 43.9185L101.747 44.0507C101.864 43.6219 101.685 43.1663 101.305 42.9336L101.044 43.3599L100.783 43.7862L100.782 43.7862L101.265 43.9185ZM101.044 43.3599L101.305 42.9334L79.1184 29.3553L78.8574 29.7817L78.5964 30.2082L100.783 43.7863L101.044 43.3599ZM78.8574 29.7817L79.118 29.355C78.999 29.2824 78.8676 29.2367 78.7336 29.2181L78.665 29.7134L78.5964 30.2086L78.5968 30.2085L78.8574 29.7817ZM78.665 29.7134L78.7006 29.2146L78.6322 29.2098L78.5966 29.7085L78.561 30.2072L78.6294 30.2121L78.665 29.7134ZM78.5966 29.7085V29.2085H11.3583V29.7085V30.2085H78.5966V29.7085Z" fill="black"/>
<path d="M56.5124 35.9253C56.5124 40.8867 65.8971 44.9087 77.4738 44.9087C89.0504 44.9087 98.4351 40.8867 98.4351 35.9253L98.4351 26.9419L56.5124 26.9419L56.5124 35.9253Z" fill="#8069FF" stroke="black"/>
<rect opacity="0.5" x="96.2573" y="29.6646" width="9.25564" height="2.1778" rx="1.0889" transform="rotate(90 96.2573 29.6646)" fill="black"/>
<rect opacity="0.5" x="90.2686" y="32.3867" width="9.25564" height="2.1778" rx="1.0889" transform="rotate(90 90.2686 32.3867)" fill="black"/>
<rect opacity="0.5" x="83.1909" y="34.02" width="9.25564" height="2.1778" rx="1.0889" transform="rotate(90 83.1909 34.02)" fill="black"/>
<rect opacity="0.5" x="76.1128" y="34.02" width="9.25564" height="2.1778" rx="1.0889" transform="rotate(90 76.1128 34.02)" fill="black"/>
<rect opacity="0.5" x="69.0356" y="32.9307" width="9.25564" height="2.1778" rx="1.0889" transform="rotate(90 69.0356 32.9307)" fill="black"/>
<rect opacity="0.5" x="61.9565" y="30.209" width="9.25564" height="2.1778" rx="1.0889" transform="rotate(90 61.9565 30.209)" fill="black"/>
<ellipse cx="77.4737" cy="26.6699" rx="8.98342" ry="20.9613" transform="rotate(90 77.4737 26.6699)" fill="white" stroke="black"/>
<ellipse cx="77.5927" cy="26.6192" rx="7.23097" ry="18.2901" transform="rotate(90 77.5927 26.6192)" fill="#8069FF" stroke="black"/>
<path d="M82.5495 21.8101C86.5278 21.8102 87.7814 24.2672 88.4899 27.6948C88.8169 29.5149 88.5446 31.0316 86.5827 31.0015C83.7486 31.0015 83.6392 29.5761 81.6227 28.9087C80.8597 28.6963 79.1697 28.605 77.7526 28.5747C76.3355 28.605 74.6456 28.6963 73.8825 28.9087C71.8662 29.5761 71.7566 31.0015 68.9225 31.0015C66.9063 31.0012 66.5791 29.4846 66.9606 27.6646C67.6147 24.267 68.8687 21.8101 72.8473 21.8101C74.8639 21.8101 75.845 22.9631 77.6979 23.0542C79.4966 22.9632 80.5328 21.8101 82.5495 21.8101ZM72.902 24.2368C71.3217 24.2368 70.0685 24.9647 70.0681 25.814C70.0681 26.6634 71.3214 27.3921 72.902 27.3921C74.4281 27.392 75.736 26.6937 75.736 25.814C75.7356 24.9345 74.4823 24.2369 72.902 24.2368ZM82.277 24.2974V25.5112H80.0417V26.1177H82.277V27.3618H83.3669V26.1177H85.6013V25.5112H83.3669V24.2974H82.277ZM72.902 24.9048C73.3379 24.9049 73.7741 25.0256 74.0466 25.1772C74.3735 25.3592 74.5368 25.5723 74.5368 25.8149C74.5366 26.0574 74.3188 26.3 74.0466 26.4517C73.7196 26.6336 73.3379 26.725 72.902 26.7251C72.4662 26.7251 72.0301 26.6032 71.7575 26.4517C71.4306 26.2697 71.2664 26.0575 71.2663 25.8149C71.2663 25.5723 71.4305 25.3289 71.7575 25.1772C72.0844 24.9954 72.4662 24.9048 72.902 24.9048Z" fill="white"/>
<path d="M12.3352 31.2222C12.3352 36.1836 21.7199 40.2056 33.2965 40.2056C44.8731 40.2056 54.2578 36.1836 54.2578 31.2222L54.2578 22.2388L12.3352 22.2388L12.3352 31.2222Z" fill="#8069FF" stroke="black"/>
<rect opacity="0.5" x="52.0801" y="24.9614" width="9.25564" height="2.1778" rx="1.0889" transform="rotate(90 52.0801 24.9614)" fill="black"/>
<rect opacity="0.5" x="46.0908" y="27.6836" width="9.25564" height="2.1778" rx="1.0889" transform="rotate(90 46.0908 27.6836)" fill="black"/>
<rect opacity="0.5" x="39.0132" y="29.3174" width="9.25564" height="2.1778" rx="1.0889" transform="rotate(90 39.0132 29.3174)" fill="black"/>
<rect opacity="0.5" x="31.9351" y="29.3174" width="9.25564" height="2.1778" rx="1.0889" transform="rotate(90 31.9351 29.3174)" fill="black"/>
<rect opacity="0.5" x="24.8579" y="28.2275" width="9.25564" height="2.1778" rx="1.0889" transform="rotate(90 24.8579 28.2275)" fill="black"/>
<rect opacity="0.5" x="17.7798" y="25.5063" width="9.25564" height="2.1778" rx="1.0889" transform="rotate(90 17.7798 25.5063)" fill="black"/>
<ellipse cx="33.2965" cy="21.9668" rx="8.98342" ry="20.9613" transform="rotate(90 33.2965 21.9668)" fill="white" stroke="black"/>
<ellipse cx="33.4155" cy="21.9155" rx="7.23097" ry="18.2901" transform="rotate(90 33.4155 21.9155)" fill="#8069FF" stroke="black"/>
<path d="M38.3717 17.1069C42.3505 17.1069 43.6046 19.5647 44.3131 22.9927C44.64 24.8126 44.3675 26.3294 42.4059 26.2993C39.5718 26.2993 39.4623 24.873 37.4459 24.2056C36.6829 23.9932 34.9929 23.9029 33.5758 23.8726C32.1587 23.9029 30.4688 23.9932 29.7057 24.2056C27.6892 24.873 27.5799 26.2993 24.7457 26.2993C22.7295 26.2992 22.4024 24.7823 22.7838 22.9624C23.4379 19.5647 24.6917 17.1069 28.6705 17.1069C30.687 17.107 31.6681 18.26 33.5211 18.3511C35.3197 18.2601 36.3553 17.1071 38.3717 17.1069ZM28.7252 19.5337C27.1446 19.5337 25.8903 20.2624 25.8903 21.1118C25.8906 21.9611 27.1448 22.689 28.7252 22.689C30.251 22.6889 31.5589 21.9914 31.5592 21.1118C31.5592 20.2321 30.3057 19.5338 28.7252 19.5337ZM38.0993 19.5942V20.8081H35.8649V21.4146H38.0993V22.6587H39.1901V21.4146H41.4245V20.8081H39.1901V19.5942H38.0993ZM28.7243 20.2017C29.16 20.2017 29.5962 20.3226 29.8688 20.4741C30.1958 20.6561 30.36 20.8691 30.36 21.1118C30.3598 21.3544 30.1412 21.5969 29.8688 21.7485C29.5418 21.9304 29.1601 22.022 28.7243 22.022C28.2884 22.0219 27.8522 21.9002 27.5797 21.7485C27.253 21.5666 27.0896 21.3543 27.0895 21.1118C27.0895 20.8692 27.2528 20.6258 27.5797 20.4741C27.9066 20.2922 28.2884 20.2017 28.7243 20.2017Z" fill="white"/>
<ellipse cx="39.7494" cy="21.0234" rx="20.9613" ry="8.03995" fill="black" fill-opacity="0.4"/>
<path d="M27.7493 19.2383C27.7493 24.1997 37.134 28.2217 48.7106 28.2217C60.2872 28.2217 69.6719 24.1997 69.6719 19.2383L69.6719 10.2549L27.7493 10.2549L27.7493 19.2383Z" fill="#8069FF" stroke="black"/>
<rect opacity="0.5" x="67.4946" y="12.9775" width="9.25564" height="2.1778" rx="1.0889" transform="rotate(90 67.4946 12.9775)" fill="black"/>
<rect opacity="0.5" x="61.5054" y="15.6997" width="9.25564" height="2.1778" rx="1.0889" transform="rotate(90 61.5054 15.6997)" fill="black"/>
<rect opacity="0.5" x="54.4277" y="17.334" width="9.25564" height="2.1778" rx="1.0889" transform="rotate(90 54.4277 17.334)" fill="black"/>
<rect opacity="0.5" x="47.3501" y="17.334" width="9.25564" height="2.1778" rx="1.0889" transform="rotate(90 47.3501 17.334)" fill="black"/>
<rect opacity="0.5" x="40.272" y="16.2446" width="9.25564" height="2.1778" rx="1.0889" transform="rotate(90 40.272 16.2446)" fill="black"/>
<rect opacity="0.5" x="33.1948" y="13.5229" width="9.25564" height="2.1778" rx="1.0889" transform="rotate(90 33.1948 13.5229)" fill="black"/>
<ellipse cx="48.7106" cy="9.98342" rx="8.98342" ry="20.9613" transform="rotate(90 48.7106 9.98342)" fill="white" stroke="black"/>
<ellipse cx="48.8305" cy="9.93214" rx="7.23097" ry="18.2901" transform="rotate(90 48.8305 9.93214)" fill="#8069FF" stroke="black"/>
<path d="M53.7859 5.12402C57.7646 5.12402 59.0187 7.58091 59.7273 11.0088C60.0543 12.829 59.7812 14.3458 57.8191 14.3154C54.9855 14.3153 54.8762 12.8901 52.8601 12.2227C52.097 12.0103 50.407 11.919 48.99 11.8887C47.5728 11.919 45.8829 12.0103 45.1198 12.2227C43.1034 12.8901 42.994 14.3154 40.1599 14.3154C38.1435 14.3153 37.8164 12.7986 38.198 10.9785C38.852 7.58095 40.1059 5.12402 44.0847 5.12402C46.1012 5.12411 47.0822 6.27615 48.9353 6.36719C50.7338 6.27618 51.7694 5.12416 53.7859 5.12402ZM44.1394 7.55078C42.5589 7.55078 41.3047 8.27863 41.3044 9.12793C41.3044 9.97735 42.5587 10.7061 44.1394 10.7061C45.6653 10.7059 46.9734 10.0076 46.9734 9.12793C46.9731 8.24838 45.7196 7.5509 44.1394 7.55078ZM53.5134 7.61133V8.8252H51.279V9.43164H53.5134V10.6758H54.6042V9.43164H56.8386V8.8252H54.6042V7.61133H53.5134ZM44.1384 8.21875C44.5743 8.21875 45.0104 8.33959 45.2829 8.49121C45.6098 8.67312 45.7739 8.88542 45.7741 9.12793C45.7741 9.37062 45.5554 9.61394 45.2829 9.76562C44.956 9.94753 44.5743 10.0381 44.1384 10.0381C43.7024 10.038 43.2663 9.91728 42.9939 9.76562C42.6669 9.58361 42.5036 9.37061 42.5036 9.12793C42.5038 8.88541 42.6671 8.64281 42.9939 8.49121C43.3208 8.30922 43.7024 8.21878 44.1384 8.21875Z" fill="white"/>
<mask id="mask0_34748_2848" style="mask-type:alpha" maskUnits="userSpaceOnUse" x="28" y="18" width="50" height="28">
<rect x="28.9277" y="18.5146" width="48.8561" height="26.7326" fill="#D9D9D9"/>
</mask>
<g mask="url(#mask0_34748_2848)">
<path d="M38.8059 57.888C41.9983 61.6859 51.7702 58.7261 60.6319 51.2771C69.4936 43.8281 74.0895 34.7107 70.8971 30.9128L65.1167 24.0361L33.0255 51.0113L38.8059 57.888Z" fill="#8069FF" stroke="black"/>
<rect opacity="0.5" x="65.2007" y="27.522" width="9.25564" height="2.1778" rx="1.0889" transform="rotate(49.9503 65.2007 27.522)" fill="black"/>
<rect opacity="0.5" x="62.3682" y="33.459" width="9.25564" height="2.1778" rx="1.0889" transform="rotate(49.9503 62.3682 33.459)" fill="black"/>
<rect opacity="0.5" x="58.0015" y="39.2637" width="9.25564" height="2.1778" rx="1.0889" transform="rotate(49.9503 58.0015 39.2637)" fill="black"/>
<rect opacity="0.5" x="52.5835" y="43.8174" width="9.25564" height="2.1778" rx="1.0889" transform="rotate(49.9503 52.5835 43.8174)" fill="black"/>
<ellipse cx="48.8955" cy="37.3155" rx="8.98342" ry="20.9613" transform="rotate(49.9503 48.8955 37.3155)" fill="white" stroke="black"/>
<ellipse cx="48.9542" cy="37.199" rx="7.23097" ry="18.2901" transform="rotate(49.9503 48.9542 37.199)" fill="#8069FF" stroke="black"/>
<path d="M49.6539 30.3293C52.6996 27.7691 55.241 28.8436 57.9891 31.0117C59.4106 32.1946 60.1776 33.5315 58.6561 34.7708C56.4866 36.5943 55.4858 35.5735 53.5127 36.3603C52.792 36.6887 51.4402 37.7057 50.336 38.5942C49.2708 39.5293 48.0359 40.6866 47.5884 41.3401C46.4742 43.1486 47.3078 44.3099 45.1382 46.1336C43.5945 47.4312 42.3684 46.4804 41.4893 44.8416C39.8038 41.82 39.1817 39.1322 42.227 36.5722C43.7707 35.2745 45.2642 35.5255 46.7414 34.4028C48.0595 33.1758 48.1103 31.6269 49.6539 30.3293ZM43.831 38.3954C42.6212 39.4124 42.1299 40.776 42.6765 41.4262C43.223 42.0763 44.6508 41.8268 45.8607 40.8099C47.0288 39.828 47.582 38.4519 47.016 37.7785C46.4499 37.1051 45.041 37.3783 43.831 38.3954ZM51.0464 32.4094L51.8268 33.3378L50.1165 34.7755L50.5073 35.2405L52.2177 33.8028L53.0176 34.7544L53.8519 34.0531L53.0519 33.1015L54.7631 31.6632L54.3722 31.1982L52.6611 32.6365L51.8807 31.7081L51.0464 32.4094ZM44.2602 38.9059C44.5939 38.6254 45.0061 38.4381 45.3123 38.3788C45.6796 38.3077 45.9418 38.3645 46.098 38.5501C46.2541 38.7359 46.2433 39.0629 46.1323 39.3543C45.999 39.7039 45.7651 40.0189 45.4315 40.2994C45.0977 40.5798 44.6862 40.768 44.38 40.8273C44.0126 40.8983 43.7506 40.8403 43.5944 40.6545C43.4384 40.4688 43.4074 40.178 43.56 39.8517C43.6932 39.502 43.9265 39.1865 44.2602 38.9059Z" fill="white"/>
</g>
<path d="M105.438 49.395V75.2058L100.369 81.6585M32.1543 49.395V75.2058L35.8798 81.6585M62.5742 81.1976H77.3232" stroke="#A5FFFD"/>
<path d="M43.6774 71.6159L43.2406 75.5459L40.6083 71.6161L43.6774 71.6159Z" fill="black"/>
<path d="M93.8374 71.8677L93.8375 75.5454L96.9482 71.8681L93.8374 71.8677Z" fill="black"/>
<path opacity="0.3" d="M84.0347 58.3542C84.24 58.3355 85.766 58.3262 88.6127 58.3262H90.0267C91.6227 58.3262 92.5514 58.3355 92.8127 58.3542C93.0834 58.3728 93.2934 58.4335 93.4427 58.5362C93.76 58.7508 93.9187 59.0588 93.9187 59.4602C93.9187 59.6375 93.8767 59.8102 93.7927 59.9782C93.6807 60.2115 93.508 60.3842 93.2747 60.4962L93.1207 60.5662C92.3367 60.5755 91.156 60.5802 89.5787 60.5802C88.0107 60.5802 86.8347 60.5848 86.0507 60.5942L85.8687 60.6782C85.4394 60.8835 85.2247 61.2195 85.2247 61.6862C85.2247 62.1342 85.43 62.4608 85.8407 62.6662C85.962 62.7222 86.3634 62.7502 87.0447 62.7502H87.6187C88.3094 62.7502 88.7294 62.7782 88.8787 62.8342C89.3174 63.0115 89.5367 63.3475 89.5367 63.8422C89.5367 64.0568 89.4807 64.2575 89.3687 64.4442C89.266 64.6308 89.112 64.7662 88.9067 64.8502L88.7387 64.9342C88.4307 64.9435 87.9687 64.9482 87.3527 64.9482C86.746 64.9482 86.2934 64.9528 85.9947 64.9622L85.7987 65.0602C85.416 65.2748 85.2247 65.5922 85.2247 66.0122C85.2247 66.4602 85.43 66.7868 85.8407 66.9922L85.9947 67.0622C86.7787 67.0715 87.9547 67.0762 89.5227 67.0762C91.1 67.0762 92.2807 67.0808 93.0647 67.0902L93.2747 67.1882C93.6854 67.3748 93.8907 67.7062 93.8907 68.1822C93.8907 68.6582 93.6807 68.9895 93.2607 69.1762L93.0927 69.2602H83.7967L83.6147 69.1762C83.3627 69.0548 83.176 68.8682 83.0547 68.6162L82.9707 68.4342V59.1942L83.0687 58.9982C83.274 58.6062 83.596 58.3915 84.0347 58.3542Z" fill="black"/>
<path opacity="0.3" d="M71.4487 58.3682C71.5327 58.3402 73.1007 58.3262 76.1527 58.3262H79.0507C80.18 58.3262 80.7867 58.3448 80.8707 58.3822C81.2254 58.5128 81.4494 58.7415 81.5427 59.0682C81.5614 59.1335 81.5707 60.7015 81.5707 63.7722V68.3502L81.4867 68.5322C81.2907 68.9615 80.964 69.1762 80.5067 69.1762C80.3947 69.1762 80.3107 69.1668 80.2547 69.1482C79.9094 69.0642 79.6574 68.8448 79.4987 68.4902C79.4614 68.3968 79.438 67.1882 79.4287 64.8642L79.4147 61.3502L79.3307 61.1822C79.116 60.7622 78.7894 60.5522 78.3507 60.5522C77.856 60.5522 77.5154 60.8042 77.3287 61.3082C77.3007 61.3735 77.282 62.5728 77.2727 64.9062L77.2587 68.4062L77.1467 68.6022C76.9227 68.9848 76.61 69.1762 76.2087 69.1762C76.022 69.1762 75.868 69.1435 75.7467 69.0782C75.4947 68.9475 75.3127 68.7515 75.2007 68.4902L75.1307 68.3222V64.8642C75.1307 62.5588 75.112 61.3642 75.0747 61.2802C75.0187 61.1308 74.9207 60.9908 74.7807 60.8602C74.65 60.7295 74.5147 60.6408 74.3747 60.5942C74.328 60.5755 74.2067 60.5662 74.0107 60.5662C73.7774 60.5662 73.572 60.6315 73.3947 60.7622C73.2267 60.8928 73.1054 61.0515 73.0307 61.2382L72.9607 61.4062C72.9607 62.1808 72.956 63.3475 72.9467 64.9062C72.9374 66.4648 72.9327 67.6315 72.9327 68.4062L72.8347 68.6022C72.648 68.9755 72.326 69.1622 71.8687 69.1622C71.6167 69.1622 71.388 69.0922 71.1827 68.9522C70.9774 68.8215 70.8374 68.6395 70.7627 68.4062C70.7347 68.3035 70.7207 66.9782 70.7207 64.4302C70.7207 60.9862 70.7394 59.2082 70.7767 59.0962C70.8234 58.9282 70.9074 58.7788 71.0287 58.6482C71.1594 58.5082 71.2994 58.4148 71.4487 58.3682Z" fill="black"/>
<path opacity="0.3" d="M67.1523 61.6582C67.1523 61.1542 66.9003 60.8135 66.3963 60.6362C66.275 60.5988 65.4397 60.5802 63.8903 60.5802C62.3597 60.5802 61.5477 60.5942 61.4543 60.6222C61.2117 60.6968 61.0203 60.8322 60.8803 61.0282C60.7403 61.2242 60.6703 61.4388 60.6703 61.6722C60.6703 61.8495 60.7077 62.0082 60.7823 62.1482C60.913 62.3908 61.0903 62.5588 61.3143 62.6522L61.4543 62.7222H66.3543L66.5223 62.6382C66.9423 62.4608 67.1523 62.1342 67.1523 61.6582ZM59.2003 58.3682C59.2937 58.3402 60.843 58.3262 63.8483 58.3262C66.863 58.3262 68.4263 58.3448 68.5383 58.3822C68.8277 58.4755 69.047 58.6622 69.1963 58.9422L69.2803 59.0962L69.2943 62.6942C69.313 65.3262 69.3223 66.8802 69.3223 67.3562L69.3083 68.4482L69.2243 68.6162C69.0097 69.0268 68.683 69.2322 68.2443 69.2322C67.815 69.2322 67.4883 69.0268 67.2643 68.6162L67.1803 68.4482C67.171 68.1402 67.1663 67.6875 67.1663 67.0902C67.1663 66.4928 67.1617 66.0402 67.1523 65.7322L67.0403 65.5222C66.9283 65.3075 66.7557 65.1395 66.5223 65.0182L66.3823 64.9482H61.4543L61.2863 65.0182C61.053 65.1395 60.8803 65.3215 60.7683 65.5642L60.6703 65.7602L60.6423 67.1042L60.6283 68.4482L60.5583 68.6162C60.353 69.0268 60.0123 69.2322 59.5363 69.2322C59.247 69.2322 58.9997 69.1482 58.7943 68.9802C58.5983 68.8122 58.477 68.5975 58.4303 68.3362C58.4117 68.2615 58.4023 66.7075 58.4023 63.6742L58.4163 59.1942L58.4863 59.0122C58.617 58.6855 58.855 58.4708 59.2003 58.3682Z" fill="black"/>
<path opacity="0.3" d="M46.8257 58.3682C46.919 58.3402 48.5057 58.3262 51.5857 58.3262L56.2337 58.3402L56.4297 58.4382C56.6537 58.5595 56.817 58.7322 56.9197 58.9562C56.9663 59.0495 56.9897 59.2082 56.9897 59.4322C56.9897 59.9268 56.775 60.2768 56.3457 60.4822L56.1777 60.5522L52.5937 60.5802L49.0237 60.5942L48.8837 60.6642C48.5757 60.8228 48.3797 61.0655 48.2957 61.3922C48.2677 61.5042 48.2537 62.3395 48.2537 63.8982V66.2222L48.3377 66.3902C48.459 66.6515 48.641 66.8382 48.8837 66.9502L49.0797 67.0482H51.4177H52.7757C53.345 67.0482 53.6997 67.0388 53.8397 67.0202C53.989 67.0015 54.1197 66.9595 54.2317 66.8942C54.577 66.6795 54.7497 66.3808 54.7497 65.9982C54.7497 65.8955 54.7357 65.7928 54.7077 65.6902C54.5677 65.2142 54.213 64.9482 53.6437 64.8922C53.4103 64.8642 53.261 64.8315 53.1957 64.7942C53.0277 64.7195 52.883 64.5935 52.7617 64.4162C52.6497 64.2388 52.5937 64.0382 52.5937 63.8142C52.5937 63.6742 52.617 63.5435 52.6637 63.4222C52.7663 63.1608 52.9437 62.9648 53.1957 62.8342L53.3777 62.7502L54.7217 62.7362H55.3797C55.7903 62.7362 56.0517 62.7455 56.1637 62.7642C56.285 62.7828 56.4063 62.8342 56.5277 62.9182C56.733 63.0488 56.873 63.2402 56.9477 63.4922C56.985 63.6322 57.0037 64.0568 57.0037 64.7662V66.0542L56.9897 68.4062L56.9197 68.5742C56.8077 68.8168 56.635 68.9942 56.4017 69.1062L56.2057 69.2042H46.8537L46.7137 69.1342C46.4897 69.0222 46.317 68.8542 46.1957 68.6302L46.0977 68.4482V59.0962L46.1957 58.9142C46.3357 58.6435 46.5457 58.4615 46.8257 58.3682Z" fill="black"/>
</svg>
