<svg width="99" height="77" viewBox="0 0 99 77" fill="none" xmlns="http://www.w3.org/2000/svg">
<ellipse cx="31.0886" cy="57.7112" rx="31.0886" ry="7.51593" fill="black" fill-opacity="0.4"/>
<path d="M6.14938 51.3972C6.14938 57.3002 17.3151 62.0855 31.0886 62.0855C44.8622 62.0855 56.0278 57.3002 56.0278 51.3972L56.0278 40.709L6.14938 40.709L6.14938 51.3972Z" fill="#8069FF" stroke="black"/>
<rect opacity="0.5" x="53.437" y="43.9482" width="11.0121" height="2.59109" rx="1.29554" transform="rotate(90 53.437 43.9482)" fill="black"/>
<rect opacity="0.5" x="46.3115" y="47.1865" width="11.0121" height="2.59109" rx="1.29554" transform="rotate(90 46.3115 47.1865)" fill="black"/>
<rect opacity="0.5" x="37.8906" y="49.1309" width="11.0121" height="2.59109" rx="1.29554" transform="rotate(90 37.8906 49.1309)" fill="black"/>
<rect opacity="0.5" x="29.4692" y="49.1309" width="11.0121" height="2.59109" rx="1.29554" transform="rotate(90 29.4692 49.1309)" fill="black"/>
<rect opacity="0.5" x="21.0483" y="47.8345" width="11.0121" height="2.59109" rx="1.29554" transform="rotate(90 21.0483 47.8345)" fill="black"/>
<rect opacity="0.5" x="12.627" y="44.5967" width="11.0121" height="2.59109" rx="1.29554" transform="rotate(90 12.627 44.5967)" fill="black"/>
<ellipse cx="31.0886" cy="40.386" rx="10.6882" ry="24.9392" transform="rotate(90 31.0886 40.386)" fill="white" stroke="black"/>
<ellipse cx="31.2301" cy="40.3249" rx="8.60322" ry="21.7611" transform="rotate(90 31.2301 40.3249)" fill="#8069FF" stroke="black"/>
<path d="M37.1262 34.6035C41.86 34.6035 43.3515 37.5271 44.1946 41.6055C44.5836 43.7711 44.2595 45.5761 41.925 45.54C38.5535 45.5399 38.4235 43.8439 36.0246 43.0498C35.1168 42.7972 33.1062 42.6884 31.4201 42.6523C29.7341 42.6884 27.7235 42.7972 26.8157 43.0498C24.4165 43.8439 24.2863 45.54 20.9143 45.54C18.5152 45.5399 18.1264 43.7348 18.5803 41.5693C19.3585 37.5272 20.8498 34.6037 25.5832 34.6035C27.9824 34.6035 29.1502 35.9746 31.3547 36.083C33.4946 35.9747 34.7271 34.6037 37.1262 34.6035ZM25.6487 37.4912C23.7681 37.4912 22.2766 38.3575 22.2766 39.3682C22.2768 40.3787 23.7682 41.2451 25.6487 41.2451C27.4642 41.2451 29.0205 40.4147 29.0207 39.3682C29.0207 38.3215 27.5292 37.4912 25.6487 37.4912ZM36.802 37.5635V39.0068H34.1438V39.7285H36.802V41.209H38.0989V39.7285H40.758V39.0068H38.0989V37.5635H36.802ZM25.6487 38.2852C26.1673 38.2852 26.6858 38.43 27.01 38.6104C27.399 38.8268 27.5939 39.0795 27.594 39.3682C27.594 39.6569 27.3342 39.9455 27.01 40.126C26.621 40.3425 26.1673 40.4511 25.6487 40.4512C25.1299 40.4512 24.6106 40.3064 24.2864 40.126C23.8974 39.9094 23.7024 39.6568 23.7024 39.3682C23.7025 39.0795 23.8974 38.7908 24.2864 38.6104C24.6754 38.3938 25.1299 38.2852 25.6487 38.2852Z" fill="white"/>
<ellipse cx="31.0886" cy="40.9715" rx="24.9392" ry="8.54083" fill="black" fill-opacity="0.4"/>
<path d="M2.04977 37.0486C2.04977 42.9515 13.2154 47.7368 26.989 47.7368C40.7625 47.7368 51.9282 42.9515 51.9282 37.0486L51.9282 26.3604L2.04977 26.3603L2.04977 37.0486Z" fill="#8069FF" stroke="black"/>
<rect opacity="0.5" x="49.3374" y="29.5996" width="11.0121" height="2.59109" rx="1.29554" transform="rotate(90 49.3374 29.5996)" fill="black"/>
<rect opacity="0.5" x="42.2119" y="32.8384" width="11.0121" height="2.59109" rx="1.29554" transform="rotate(90 42.2119 32.8384)" fill="black"/>
<rect opacity="0.5" x="33.791" y="34.7822" width="11.0121" height="2.59109" rx="1.29554" transform="rotate(90 33.791 34.7822)" fill="black"/>
<rect opacity="0.5" x="25.3696" y="34.7822" width="11.0121" height="2.59109" rx="1.29554" transform="rotate(90 25.3696 34.7822)" fill="black"/>
<rect opacity="0.5" x="16.9492" y="33.4863" width="11.0121" height="2.59109" rx="1.29554" transform="rotate(90 16.9492 33.4863)" fill="black"/>
<rect opacity="0.5" x="8.52783" y="30.248" width="11.0121" height="2.59109" rx="1.29554" transform="rotate(90 8.52783 30.248)" fill="black"/>
<ellipse cx="26.989" cy="26.0369" rx="10.6882" ry="24.9392" transform="rotate(90 26.989 26.0369)" fill="white" stroke="black"/>
<ellipse cx="27.131" cy="25.9758" rx="8.60322" ry="21.7611" transform="rotate(90 27.131 25.9758)" fill="#8069FF" stroke="black"/>
<path d="M33.028 20.2549C37.7616 20.255 39.2533 23.1784 40.0963 27.2568C40.4854 29.4223 40.161 31.2273 37.8268 31.1914C34.4547 31.1914 34.3248 29.4943 31.9254 28.7002C31.0176 28.4475 29.007 28.3398 27.3209 28.3037C25.6349 28.3398 23.6243 28.4475 22.7164 28.7002C20.3174 29.4943 20.1877 31.1913 16.8161 31.1914C14.4167 31.1914 14.0272 29.3863 14.4811 27.2207C15.2593 23.1783 16.7512 20.2549 21.485 20.2549C23.8842 20.255 25.0517 21.6261 27.2565 21.7344C29.3963 21.626 30.6287 20.2549 33.028 20.2549ZM21.5495 23.1426C19.6689 23.1426 18.1774 24.0089 18.1774 25.0195C18.1778 26.03 19.6692 26.8955 21.5495 26.8955C23.365 26.8955 24.9211 26.0661 24.9215 25.0195C24.9215 23.9728 23.43 23.1426 21.5495 23.1426ZM32.7038 23.2148V24.6582H30.0446V25.3799H32.7038V26.8604H34.0006V25.3799H36.6588V24.6582H34.0006V23.2148H32.7038ZM21.5495 23.9365C22.0682 23.9365 22.5875 24.0813 22.9118 24.2617C23.3006 24.4782 23.4947 24.7309 23.4948 25.0195C23.4948 25.3082 23.2358 25.5969 22.9118 25.7773C22.5227 25.9939 22.0682 26.1025 21.5495 26.1025C21.0308 26.1025 20.5124 25.9578 20.1881 25.7773C19.799 25.5608 19.6041 25.3083 19.6041 25.0195C19.6042 24.7308 19.7991 24.4421 20.1881 24.2617C20.5771 24.0453 21.0308 23.9365 21.5495 23.9365Z" fill="white"/>
<ellipse cx="27.6724" cy="25.598" rx="24.9392" ry="9.56573" fill="black" fill-opacity="0.4"/>
<path d="M9.56539 22.7C9.56539 28.6029 20.7311 33.3882 34.5046 33.3882C48.2782 33.3882 59.4438 28.6029 59.4438 22.7L59.4438 12.0117L9.56539 12.0117L9.56539 22.7Z" fill="#8069FF" stroke="black"/>
<rect opacity="0.5" x="56.853" y="15.251" width="11.0121" height="2.59109" rx="1.29554" transform="rotate(90 56.853 15.251)" fill="black"/>
<rect opacity="0.5" x="49.7275" y="18.4897" width="11.0121" height="2.59109" rx="1.29554" transform="rotate(90 49.7275 18.4897)" fill="black"/>
<rect opacity="0.5" x="41.3066" y="20.4336" width="11.0121" height="2.59109" rx="1.29554" transform="rotate(90 41.3066 20.4336)" fill="black"/>
<rect opacity="0.5" x="32.8853" y="20.4336" width="11.0121" height="2.59109" rx="1.29554" transform="rotate(90 32.8853 20.4336)" fill="black"/>
<rect opacity="0.5" x="24.4644" y="19.1377" width="11.0121" height="2.59109" rx="1.29554" transform="rotate(90 24.4644 19.1377)" fill="black"/>
<rect opacity="0.5" x="16.0435" y="15.8994" width="11.0121" height="2.59109" rx="1.29554" transform="rotate(90 16.0435 15.8994)" fill="black"/>
<ellipse cx="34.5046" cy="11.6882" rx="10.6882" ry="24.9392" transform="rotate(90 34.5046 11.6882)" fill="white" stroke="black"/>
<ellipse cx="34.6466" cy="11.6276" rx="8.60322" ry="21.7611" transform="rotate(90 34.6466 11.6276)" fill="#8069FF" stroke="black"/>
<path d="M40.5431 5.90625C45.2768 5.90637 46.7685 8.82972 47.6115 12.9082C48.0005 15.0737 47.6761 16.8787 45.3419 16.8428C41.9699 16.8428 41.8399 15.1456 39.4406 14.3516C38.5327 14.0989 36.5221 13.9912 34.8361 13.9551C33.1501 13.9912 31.1394 14.0989 30.2316 14.3516C27.8326 15.1456 27.7028 16.8427 24.3312 16.8428C21.9318 16.8428 21.5423 15.0377 21.9962 12.8721C22.7744 8.82961 24.2663 5.90625 29.0001 5.90625C31.3994 5.90634 32.5669 7.27747 34.7716 7.38574C36.9114 7.27736 38.1438 5.90625 40.5431 5.90625ZM29.0646 8.79395C27.1844 8.794 25.693 9.65954 25.6925 10.6699C25.6925 11.6805 27.1841 12.5468 29.0646 12.5469C30.8803 12.5469 32.4367 11.7166 32.4367 10.6699C32.4362 9.62344 30.9449 8.79395 29.0646 8.79395ZM40.2189 8.86621V10.3096H37.5597V11.0312H40.2189V12.5107H41.5158V11.0312H44.174V10.3096H41.5158V8.86621H40.2189ZM29.0646 9.58887C29.5834 9.58887 30.1027 9.73262 30.4269 9.91309C30.8159 10.1296 31.0099 10.3832 31.0099 10.6719C31.0096 10.9604 30.7509 11.2493 30.4269 11.4297C30.0378 11.6462 29.5834 11.7539 29.0646 11.7539C28.5461 11.7539 28.0275 11.61 27.7033 11.4297C27.3144 11.2132 27.1195 10.9604 27.1193 10.6719C27.1193 10.3831 27.3142 10.0936 27.7033 9.91309C28.0922 9.69669 28.5461 9.58889 29.0646 9.58887Z" fill="white"/>
<ellipse cx="53.8577" cy="66.9017" rx="31.0886" ry="7.51593" fill="black" fill-opacity="0.4"/>
<path d="M48.1655 58.3162C48.1655 64.2191 59.3312 69.0044 73.1047 69.0044C86.8783 69.0044 98.0439 64.2191 98.0439 58.3162L98.0439 47.6279L48.1655 47.6279L48.1655 58.3162Z" fill="#8069FF" stroke="black"/>
<rect opacity="0.5" x="95.4531" y="50.8677" width="11.0121" height="2.59109" rx="1.29554" transform="rotate(90 95.4531 50.8677)" fill="black"/>
<rect opacity="0.5" x="88.3276" y="54.106" width="11.0121" height="2.59109" rx="1.29554" transform="rotate(90 88.3276 54.106)" fill="black"/>
<rect opacity="0.5" x="79.9067" y="56.0503" width="11.0121" height="2.59109" rx="1.29554" transform="rotate(90 79.9067 56.0503)" fill="black"/>
<rect opacity="0.5" x="71.4854" y="56.0503" width="11.0121" height="2.59109" rx="1.29554" transform="rotate(90 71.4854 56.0503)" fill="black"/>
<rect opacity="0.5" x="63.0645" y="54.7534" width="11.0121" height="2.59109" rx="1.29554" transform="rotate(90 63.0645 54.7534)" fill="black"/>
<rect opacity="0.5" x="54.6431" y="51.5156" width="11.0121" height="2.59109" rx="1.29554" transform="rotate(90 54.6431 51.5156)" fill="black"/>
<ellipse cx="73.1047" cy="47.3049" rx="10.6882" ry="24.9392" transform="rotate(90 73.1047 47.3049)" fill="white" stroke="black"/>
<ellipse cx="73.2462" cy="47.2439" rx="8.60322" ry="21.7611" transform="rotate(90 73.2462 47.2439)" fill="#8069FF" stroke="black"/>
<path d="M79.1432 41.5225C83.8767 41.5226 85.3686 44.4461 86.2116 48.5244C86.6007 50.69 86.2756 52.4951 83.9411 52.459C80.5696 52.4588 80.4396 50.7628 78.0407 49.9688C77.1328 49.7161 75.1222 49.6074 73.4362 49.5713C71.7501 49.6074 69.7396 49.7161 68.8317 49.9688C66.4327 50.7628 66.3028 52.4588 62.9313 52.459C60.5319 52.459 60.1424 50.6539 60.5963 48.4883C61.3745 44.446 62.8665 41.5225 67.6002 41.5225C69.9993 41.5226 71.167 42.8937 73.3717 43.002C75.5114 42.8935 76.744 41.5225 79.1432 41.5225ZM67.6647 44.4102C65.7841 44.4102 64.2926 45.2765 64.2926 46.2871C64.2928 47.2977 65.7842 48.1641 67.6647 48.1641C69.4803 48.1641 71.0366 47.3337 71.0368 46.2871C71.0368 45.2404 69.5453 44.4102 67.6647 44.4102ZM78.819 44.4824V45.9258H76.1598V46.6475H78.819V48.1279H80.1159V46.6475H82.7741V45.9258H80.1159V44.4824H78.819ZM67.6647 45.2051C68.1833 45.2052 68.7019 45.3489 69.026 45.5293C69.4149 45.7458 69.6098 45.9985 69.61 46.2871C69.61 46.5759 69.3503 46.8654 69.026 47.0459C68.6371 47.2623 68.1832 47.3701 67.6647 47.3701C67.146 47.3701 66.6266 47.2263 66.3024 47.0459C65.9133 46.8293 65.7184 46.5759 65.7184 46.2871C65.7186 45.9985 65.9135 45.7097 66.3024 45.5293C66.6915 45.3128 67.1459 45.2051 67.6647 45.2051Z" fill="white"/>
<path d="M43.7866 42.5535C43.7866 48.4564 54.9523 53.2417 68.7258 53.2417C82.4994 53.2417 93.665 48.4564 93.665 42.5535L93.665 31.8652L43.7866 31.8652L43.7866 42.5535Z" fill="#8069FF" stroke="black"/>
<rect opacity="0.5" x="91.0742" y="35.104" width="11.0121" height="2.59109" rx="1.29554" transform="rotate(90 91.0742 35.104)" fill="black"/>
<rect opacity="0.5" x="83.9487" y="38.3428" width="11.0121" height="2.59109" rx="1.29554" transform="rotate(90 83.9487 38.3428)" fill="black"/>
<rect opacity="0.5" x="75.5278" y="40.2866" width="11.0121" height="2.59109" rx="1.29554" transform="rotate(90 75.5278 40.2866)" fill="black"/>
<rect opacity="0.5" x="67.1069" y="40.2866" width="11.0121" height="2.59109" rx="1.29554" transform="rotate(90 67.1069 40.2866)" fill="black"/>
<rect opacity="0.5" x="58.686" y="38.9907" width="11.0121" height="2.59109" rx="1.29554" transform="rotate(90 58.686 38.9907)" fill="black"/>
<rect opacity="0.5" x="50.2646" y="35.7524" width="11.0121" height="2.59109" rx="1.29554" transform="rotate(90 50.2646 35.7524)" fill="black"/>
<ellipse cx="68.7258" cy="31.5418" rx="10.6882" ry="24.9392" transform="rotate(90 68.7258 31.5418)" fill="white" stroke="black"/>
<ellipse cx="68.8678" cy="31.4807" rx="8.60322" ry="21.7611" transform="rotate(90 68.8678 31.4807)" fill="#8069FF" stroke="black"/>
<path d="M74.7648 25.7593C79.4984 25.7594 80.9901 28.6829 81.8331 32.7612C82.2222 34.9267 81.8978 36.7317 79.5636 36.6958C76.1916 36.6958 76.0614 34.9997 73.6622 34.2056C72.7544 33.9529 70.7438 33.8442 69.0578 33.8081C67.3717 33.8442 65.3611 33.9529 64.4533 34.2056C62.0545 34.9997 61.9244 36.6957 58.5529 36.6958C56.1535 36.6958 55.764 34.8907 56.2179 32.7251C56.9961 28.6828 58.488 25.7593 63.2218 25.7593C65.621 25.7594 66.7885 27.1305 68.9933 27.2388C71.1331 27.1304 72.3655 25.7593 74.7648 25.7593ZM63.2863 28.647C61.4058 28.647 59.9142 29.5133 59.9142 30.5239C59.9144 31.5344 61.4059 32.4008 63.2863 32.4009C65.1019 32.4009 66.6581 31.5705 66.6583 30.5239C66.6583 29.4772 65.1669 28.647 63.2863 28.647ZM74.4406 28.7192V30.1626H71.7814V30.8843H74.4406V32.3647H75.7374V30.8843H78.3956V30.1626H75.7374V28.7192H74.4406ZM63.2863 29.4419C63.8051 29.4419 64.3243 29.5856 64.6486 29.7661C65.0374 29.9826 65.2314 30.2354 65.2316 30.5239C65.2316 30.8127 64.9728 31.1022 64.6486 31.2827C64.2595 31.4993 63.8051 31.6069 63.2863 31.6069C62.7678 31.6069 62.2492 31.463 61.9249 31.2827C61.5359 31.0662 61.341 30.8127 61.341 30.5239C61.3411 30.2353 61.536 29.9465 61.9249 29.7661C62.3139 29.5497 62.7677 29.4419 63.2863 29.4419Z" fill="white"/>
<path d="M22.72 68.6833C26.5183 73.202 38.1446 69.6805 48.688 60.8178C59.2315 51.9552 64.6996 41.1076 60.9013 36.5889L54.0239 28.4072L15.8427 60.5016L22.72 68.6833Z" fill="#8069FF" stroke="black"/>
<rect opacity="0.5" x="54.125" y="32.5542" width="11.0121" height="2.59109" rx="1.29554" transform="rotate(49.9503 54.125 32.5542)" fill="black"/>
<rect opacity="0.5" x="50.7544" y="39.6182" width="11.0121" height="2.59109" rx="1.29554" transform="rotate(49.9503 50.7544 39.6182)" fill="black"/>
<rect opacity="0.5" x="45.5591" y="46.5244" width="11.0121" height="2.59109" rx="1.29554" transform="rotate(49.9503 45.5591 46.5244)" fill="black"/>
<rect opacity="0.5" x="39.1128" y="51.9429" width="11.0121" height="2.59109" rx="1.29554" transform="rotate(49.9503 39.1128 51.9429)" fill="black"/>
<rect opacity="0.5" x="31.8325" y="56.3696" width="11.0121" height="2.59109" rx="1.29554" transform="rotate(49.9503 31.8325 56.3696)" fill="black"/>
<rect opacity="0.5" x="23.3027" y="59.3091" width="11.0121" height="2.59109" rx="1.29554" transform="rotate(49.9503 23.3027 59.3091)" fill="black"/>
<ellipse cx="34.7252" cy="44.2064" rx="10.6882" ry="24.9392" transform="rotate(49.9503 34.7252 44.2064)" fill="white" stroke="black"/>
<ellipse cx="34.7944" cy="44.0688" rx="8.60322" ry="21.7611" transform="rotate(49.9503 34.7944 44.0688)" fill="#8069FF" stroke="black"/>
<path d="M35.627 35.8947C39.2505 32.8491 42.2737 34.1271 45.5432 36.7065C47.2345 38.1139 48.1471 39.7048 46.3369 41.1793C43.7559 43.3486 42.5652 42.1339 40.2178 43.0697C39.3603 43.4605 37.7513 44.671 36.4374 45.7282C35.17 46.8407 33.7009 48.2177 33.1685 48.9952C31.8431 51.1467 32.8349 52.5286 30.2542 54.6981C28.4175 56.242 26.9578 55.1108 25.9118 53.161C23.9066 49.566 23.1675 46.368 26.7911 43.3221C28.6276 41.7785 30.4043 42.0774 32.1617 40.7417C33.7298 39.2819 33.7905 37.4385 35.627 35.8947ZM28.6985 45.4911C27.2589 46.7012 26.6747 48.3241 27.3249 49.0977C27.9753 49.8712 29.6744 49.5747 31.1139 48.3647C32.5039 47.1964 33.1609 45.5594 32.4875 44.7581C31.814 43.9569 30.1381 44.281 28.6985 45.4911ZM37.2835 38.3692L38.2122 39.474L36.1766 41.1851L36.6416 41.7383L38.6772 40.0272L39.6292 41.1598L40.6219 40.3253L39.6699 39.1928L41.7047 37.4823L41.2397 36.9291L39.2049 38.6396L38.2762 37.5347L37.2835 38.3692ZM29.21 46.0996C29.607 45.766 30.0971 45.5431 30.4613 45.4726C30.8984 45.3881 31.2102 45.4559 31.396 45.6769C31.5816 45.898 31.5686 46.2861 31.4365 46.6328C31.2781 47.0488 31.0006 47.424 30.6037 47.7577C30.2066 48.0915 29.716 48.3148 29.3516 48.3853C28.9146 48.4699 28.6028 48.4018 28.417 48.181C28.2312 47.96 28.1948 47.6135 28.3764 47.2251C28.5349 46.809 28.8129 46.4334 29.21 46.0996Z" fill="white"/>
</svg>
