<svg width="64" height="67" viewBox="0 0 64 67" fill="none" xmlns="http://www.w3.org/2000/svg">
<ellipse cx="31.9467" cy="59.2766" rx="31.9467" ry="7.72338" fill="black" fill-opacity="0.4"/>
<path d="M6.31927 52.7879C6.31927 58.8538 17.7931 63.7712 31.9469 63.7712C46.1006 63.7712 57.5745 58.8538 57.5745 52.7879L57.5745 41.8047L6.31927 41.8047L6.31927 52.7879Z" fill="#8069FF" stroke="black"/>
<rect opacity="0.5" x="54.9121" y="45.1338" width="11.3161" height="2.66261" rx="1.3313" transform="rotate(90 54.9121 45.1338)" fill="black"/>
<rect opacity="0.5" x="47.5896" y="48.4614" width="11.3161" height="2.66261" rx="1.3313" transform="rotate(90 47.5896 48.4614)" fill="black"/>
<rect opacity="0.5" x="38.9363" y="50.4595" width="11.3161" height="2.66261" rx="1.3313" transform="rotate(90 38.9363 50.4595)" fill="black"/>
<rect opacity="0.5" x="30.2827" y="50.4595" width="11.3161" height="2.66261" rx="1.3313" transform="rotate(90 30.2827 50.4595)" fill="black"/>
<rect opacity="0.5" x="21.6292" y="49.127" width="11.3161" height="2.66261" rx="1.3313" transform="rotate(90 21.6292 49.127)" fill="black"/>
<rect opacity="0.5" x="12.9758" y="45.7998" width="11.3161" height="2.66261" rx="1.3313" transform="rotate(90 12.9758 45.7998)" fill="black"/>
<ellipse cx="31.9469" cy="41.473" rx="10.9833" ry="25.6276" transform="rotate(90 31.9469 41.473)" fill="white" stroke="black"/>
<ellipse cx="32.0924" cy="41.41" rx="8.84069" ry="22.3617" transform="rotate(90 32.0924 41.41)" fill="#8069FF" stroke="black"/>
<path d="M38.1518 35.5308C43.0159 35.5309 44.5482 38.5352 45.4145 42.7261C45.8143 44.9515 45.4814 46.8061 43.0824 46.769C39.6175 46.769 39.4843 45.0255 37.0189 44.2095C36.0861 43.9499 34.02 43.8393 32.2875 43.8022C30.555 43.8393 28.4891 43.9499 27.5561 44.2095C25.0905 45.0254 24.9568 46.769 21.4916 46.769C19.0263 46.7689 18.6267 44.9143 19.0932 42.689C19.8928 38.5352 21.4253 35.5309 26.2895 35.5308C28.7549 35.5308 29.9548 36.9398 32.2201 37.0513C34.4192 36.94 35.6862 35.5308 38.1518 35.5308ZM26.3568 38.4985C24.4246 38.4985 22.8915 39.388 22.891 40.4263C22.891 41.4648 24.4243 42.355 26.3568 42.355C28.2225 42.3549 29.8217 41.5018 29.8217 40.4263C29.8212 39.351 28.2889 38.4986 26.3568 38.4985ZM37.8178 38.5718V40.0562H35.0863V40.7974H37.8178V42.3179H39.1508V40.7974H41.8832V40.0562H39.1508V38.5718H37.8178ZM26.3568 39.3149C26.8897 39.315 27.4222 39.4636 27.7553 39.6489C28.1551 39.8714 28.3558 40.1306 28.3559 40.4272C28.3559 40.724 28.0885 41.0211 27.7553 41.2065C27.3557 41.4288 26.8895 41.5395 26.3568 41.5396C25.824 41.5396 25.2906 41.3919 24.9574 41.2065C24.5576 40.984 24.3568 40.724 24.3568 40.4272C24.3569 40.1306 24.5576 39.8344 24.9574 39.6489C25.3572 39.4264 25.8238 39.3149 26.3568 39.3149Z" fill="white"/>
<ellipse cx="31.9467" cy="42.0744" rx="25.6276" ry="8.77657" fill="black" fill-opacity="0.4"/>
<path d="M2.10638 38.0438C2.10638 44.1097 13.5802 49.0271 27.734 49.0271C41.8877 49.0271 53.3616 44.1097 53.3616 38.0438L53.3616 27.0605L2.10638 27.0605L2.10638 38.0438Z" fill="#8069FF" stroke="black"/>
<rect opacity="0.5" x="50.6992" y="30.3892" width="11.3161" height="2.66261" rx="1.3313" transform="rotate(90 50.6992 30.3892)" fill="black"/>
<rect opacity="0.5" x="43.377" y="33.7168" width="11.3161" height="2.66261" rx="1.3313" transform="rotate(90 43.377 33.7168)" fill="black"/>
<rect opacity="0.5" x="34.7236" y="35.7144" width="11.3161" height="2.66261" rx="1.3313" transform="rotate(90 34.7236 35.7144)" fill="black"/>
<rect opacity="0.5" x="26.0698" y="35.7144" width="11.3161" height="2.66261" rx="1.3313" transform="rotate(90 26.0698 35.7144)" fill="black"/>
<rect opacity="0.5" x="17.4167" y="34.3828" width="11.3161" height="2.66261" rx="1.3313" transform="rotate(90 17.4167 34.3828)" fill="black"/>
<rect opacity="0.5" x="8.76294" y="31.0552" width="11.3161" height="2.66261" rx="1.3313" transform="rotate(90 8.76294 31.0552)" fill="black"/>
<ellipse cx="27.734" cy="26.7279" rx="10.9833" ry="25.6276" transform="rotate(90 27.734 26.7279)" fill="white" stroke="black"/>
<ellipse cx="27.8797" cy="26.6654" rx="8.84069" ry="22.3617" transform="rotate(90 27.8797 26.6654)" fill="#8069FF" stroke="black"/>
<path d="M33.9389 20.7861C38.8032 20.7863 40.3363 23.7904 41.2025 27.9814C41.6024 30.2068 41.2685 32.0615 38.8695 32.0244C35.4047 32.0243 35.2714 30.2808 32.806 29.4648C31.8731 29.2052 29.8071 29.0947 28.0746 29.0576C26.3421 29.0947 24.2761 29.2052 23.3432 29.4648C20.8776 30.2808 20.7439 32.0244 17.2787 32.0244C14.8135 32.0242 14.4138 30.1696 14.8803 27.9443C15.6799 23.7903 17.213 20.7861 22.0775 20.7861C24.5428 20.7863 25.7427 22.1954 28.0082 22.3066C30.207 22.1952 31.4734 20.7861 33.9389 20.7861ZM22.1439 23.7529C20.2116 23.7529 18.6784 24.6433 18.6781 25.6816C18.6781 26.7202 20.2114 27.6104 22.1439 27.6104C24.0097 27.6103 25.6088 26.7572 25.6088 25.6816C25.6085 24.6062 24.0761 23.753 22.1439 23.7529ZM33.6058 23.8271V25.3115H30.8734V26.0527H33.6058V27.5732H34.9379V26.0527H37.6703V25.3115H34.9379V23.8271H33.6058ZM22.1439 24.5703C22.6769 24.5704 23.2102 24.7179 23.5433 24.9033C23.943 25.1258 24.143 25.3859 24.143 25.6826C24.1429 25.9793 23.8764 26.2765 23.5433 26.4619C23.1436 26.6844 22.6769 26.7949 22.1439 26.7949C21.6111 26.7949 21.0777 26.6472 20.7445 26.4619C20.3447 26.2394 20.144 25.9793 20.1439 25.6826C20.1439 25.3859 20.3447 25.0888 20.7445 24.9033C21.1442 24.6809 21.611 24.5703 22.1439 24.5703Z" fill="white"/>
<ellipse cx="28.4362" cy="26.2765" rx="25.6276" ry="9.82976" fill="black" fill-opacity="0.4"/>
<path d="M9.82977 23.2987C9.82977 29.3646 21.3036 34.2819 35.4574 34.2819C49.6111 34.2819 61.085 29.3646 61.085 23.2987L61.085 12.3154L9.82977 12.3154L9.82977 23.2987Z" fill="#8069FF" stroke="black"/>
<rect opacity="0.5" x="58.4226" y="15.644" width="11.3161" height="2.66261" rx="1.3313" transform="rotate(90 58.4226 15.644)" fill="black"/>
<rect opacity="0.5" x="51.1003" y="18.9722" width="11.3161" height="2.66261" rx="1.3313" transform="rotate(90 51.1003 18.9722)" fill="black"/>
<rect opacity="0.5" x="42.4468" y="20.9697" width="11.3161" height="2.66261" rx="1.3313" transform="rotate(90 42.4468 20.9697)" fill="black"/>
<rect opacity="0.5" x="33.7935" y="20.9697" width="11.3161" height="2.66261" rx="1.3313" transform="rotate(90 33.7935 20.9697)" fill="black"/>
<rect opacity="0.5" x="25.1399" y="19.6377" width="11.3161" height="2.66261" rx="1.3313" transform="rotate(90 25.1399 19.6377)" fill="black"/>
<rect opacity="0.5" x="16.4861" y="16.3101" width="11.3161" height="2.66261" rx="1.3313" transform="rotate(90 16.4861 16.3101)" fill="black"/>
<ellipse cx="35.4574" cy="11.9833" rx="10.9833" ry="25.6276" transform="rotate(90 35.4574 11.9833)" fill="white" stroke="black"/>
<ellipse cx="35.6031" cy="11.9208" rx="8.84069" ry="22.3617" transform="rotate(90 35.6031 11.9208)" fill="#8069FF" stroke="black"/>
<path d="M41.6619 6.0415C46.5264 6.04152 48.0593 9.04569 48.9256 13.2368C49.3253 15.4621 48.9915 17.3169 46.5926 17.2798C43.1279 17.2796 42.9945 15.5362 40.5291 14.7202C39.5962 14.4606 37.5302 14.3491 35.7976 14.312C34.0651 14.3491 31.9991 14.4606 31.0662 14.7202C28.6009 15.5362 28.4675 17.2797 25.0027 17.2798C22.5372 17.2798 22.1369 15.425 22.6033 13.1997C23.403 9.04566 24.936 6.0415 29.8006 6.0415C32.266 6.04159 33.4656 7.45075 35.7312 7.56201C37.9302 7.45069 39.1964 6.0415 41.6619 6.0415ZM29.867 9.0083C27.9345 9.0083 26.4022 9.89854 26.4021 10.937C26.4021 11.9755 27.9345 12.8657 29.867 12.8657C31.7328 12.8657 33.3318 12.0126 33.3318 10.937C33.3317 9.86146 31.7994 9.0083 29.867 9.0083ZM41.3289 9.08252V10.5659H38.5965V11.3081H41.3289V12.8286H42.6619V11.3081H45.3933V10.5659H42.6619V9.08252H41.3289ZM29.867 9.82568C30.4 9.82574 30.9333 9.97425 31.2664 10.1597C31.6659 10.3821 31.8659 10.6415 31.866 10.938C31.866 11.2347 31.5995 11.5318 31.2664 11.7173C30.8666 11.9398 30.4 12.0512 29.867 12.0513C29.334 12.0513 28.8008 11.9027 28.4676 11.7173C28.0677 11.4947 27.868 11.2347 27.868 10.938C27.868 10.6413 28.0678 10.3451 28.4676 10.1597C28.8674 9.93715 29.3339 9.82568 29.867 9.82568Z" fill="white"/>
</svg>
