<svg width="191" height="66" viewBox="0 0 191 66" fill="none" xmlns="http://www.w3.org/2000/svg">
<path d="M2.9625 23.6195C1.68201 21.6228 3.11581 19 5.48782 19H121.359C123.404 19 125.399 19.6268 127.077 20.796L182.664 59.5388C185.073 61.2177 183.885 65 180.949 65H34.9666C31.5601 65 28.3879 63.2659 26.5489 60.3983L2.9625 23.6195Z" fill="#31305A" stroke="#414266" stroke-linecap="round"/>
<path d="M13.1295 26.5812C12.6567 25.9194 13.1298 25 13.9432 25H128.657C128.879 25 129.095 25.0741 129.271 25.2106L135.699 30.2106C136.451 30.7952 136.038 32 135.085 32H17.5146C17.1917 32 16.8886 31.844 16.7009 31.5812L13.1295 26.5812Z" fill="black"/>
<g filter="url(#filter0_i_34706_5152)">
<path d="M18 5C18 2.79086 19.7909 1 22 1H124C126.209 1 128 2.79086 128 5V29H18V5Z" fill="#A6A6DB"/>
</g>
<path d="M18 5C18 2.79086 19.7909 1 22 1H124C126.209 1 128 2.79086 128 5V29H18V5Z" stroke="black"/>
<path d="M30.9386 10.76C31.1533 10.452 31.4613 10.298 31.8626 10.298C32.292 10.3167 32.6046 10.508 32.8006 10.872L32.8986 11.068C32.908 11.3853 32.9126 11.8567 32.9126 12.482C32.9126 13.098 32.9173 13.56 32.9266 13.868L33.0106 14.036C33.132 14.2973 33.314 14.484 33.5566 14.596L33.7526 14.694H36.1046C37.682 14.694 38.536 14.6753 38.6666 14.638C38.9746 14.5353 39.194 14.344 39.3246 14.064L39.4086 13.868C39.4086 13.56 39.4133 13.098 39.4226 12.482C39.432 11.866 39.4366 11.404 39.4366 11.096L39.5486 10.9C39.6606 10.6667 39.8333 10.494 40.0666 10.382C40.1693 10.3353 40.3326 10.312 40.5566 10.312C40.7806 10.312 40.9346 10.3307 41.0186 10.368C41.28 10.4893 41.4666 10.6807 41.5786 10.942L41.6626 11.124V20.378L41.5786 20.56C41.3733 20.9893 41.028 21.204 40.5426 21.204C40.3746 21.204 40.2113 21.1713 40.0526 21.106C39.8473 21.0127 39.6746 20.84 39.5346 20.588L39.4366 20.406C39.4366 20.1073 39.432 19.6593 39.4226 19.062C39.4133 18.4553 39.4086 18.0027 39.4086 17.704L39.3106 17.494C39.18 17.2327 38.9886 17.0507 38.7366 16.948L38.5546 16.878H36.3146C34.756 16.878 33.9393 16.8827 33.8646 16.892C33.6686 16.92 33.4913 16.9947 33.3326 17.116C33.174 17.2373 33.062 17.382 32.9966 17.55C32.95 17.662 32.922 18.1707 32.9126 19.076L32.8986 20.406L32.8146 20.588C32.7306 20.756 32.6 20.896 32.4226 21.008C32.2453 21.1293 32.0493 21.19 31.8346 21.19C31.6946 21.19 31.564 21.1667 31.4426 21.12C31.1813 21.0173 30.9853 20.84 30.8546 20.588L30.7706 20.406L30.7566 15.814V13.266C30.7566 12.6407 30.7566 12.1833 30.7566 11.894C30.7566 11.5953 30.766 11.362 30.7846 11.194C30.8126 11.026 30.8313 10.9327 30.8406 10.914C30.85 10.8953 30.8826 10.844 30.9386 10.76ZM43.6633 10.424L43.8733 10.326H48.5353L53.1973 10.34L53.3793 10.424C53.5847 10.536 53.748 10.7133 53.8693 10.956C53.9253 11.0773 53.9533 11.2407 53.9533 11.446C53.9533 11.6513 53.9253 11.8147 53.8693 11.936C53.748 12.1787 53.5707 12.356 53.3373 12.468L53.1413 12.552L51.7413 12.58L50.3413 12.594L50.1453 12.692C49.9213 12.8133 49.758 12.986 49.6553 13.21L49.5713 13.378V18.222L49.6553 18.404C49.7767 18.6653 49.9587 18.8473 50.2013 18.95L50.3693 19.02C50.6773 19.02 51.144 19.0247 51.7693 19.034C52.3947 19.0433 52.8613 19.048 53.1693 19.048L53.3373 19.118C53.748 19.3047 53.9533 19.636 53.9533 20.112C53.9533 20.5413 53.7667 20.8587 53.3933 21.064L53.1973 21.176L50.0613 21.19C48.9133 21.1993 47.3547 21.204 45.3853 21.204H43.8593L43.6773 21.12C43.2667 20.9427 43.0613 20.616 43.0613 20.14C43.0613 19.664 43.2667 19.3373 43.6773 19.16L43.8593 19.076C44.158 19.076 44.606 19.0713 45.2033 19.062C45.81 19.0527 46.2627 19.048 46.5613 19.048L46.7713 18.936C47.0327 18.8053 47.2147 18.614 47.3173 18.362L47.3873 18.194V13.406L47.2893 13.21C47.1773 12.9767 47.0047 12.7993 46.7713 12.678L46.5893 12.594L45.2313 12.58L43.8873 12.552L43.7053 12.482C43.4533 12.37 43.2713 12.188 43.1593 11.936C43.094 11.8147 43.0613 11.6467 43.0613 11.432C43.0613 11.2267 43.0893 11.068 43.1453 10.956C43.2667 10.7133 43.4393 10.536 43.6633 10.424ZM56.1783 10.41C56.2997 10.3727 57.8397 10.354 60.7983 10.354C63.2157 10.354 64.6063 10.3633 64.9703 10.382C65.3343 10.3913 65.5957 10.4473 65.7543 10.55C65.885 10.634 65.997 10.7647 66.0903 10.942C66.193 11.1193 66.2443 11.3107 66.2443 11.516C66.2443 11.6933 66.207 11.852 66.1323 11.992C66.0483 12.1693 65.9317 12.3093 65.7823 12.412C65.6517 12.496 65.507 12.5473 65.3483 12.566C65.1243 12.5847 63.9623 12.5987 61.8623 12.608L58.3203 12.622L58.1523 12.706C57.975 12.79 57.8257 12.9207 57.7043 13.098C57.5923 13.266 57.5363 13.4573 57.5363 13.672C57.5363 13.784 57.5457 13.8727 57.5643 13.938C57.6297 14.19 57.7603 14.3907 57.9563 14.54C58.0963 14.6427 58.2223 14.7033 58.3343 14.722C58.5583 14.75 59.3797 14.764 60.7983 14.764H61.9043H65.4043L65.6003 14.862C65.843 14.974 66.025 15.1467 66.1463 15.38L66.2163 15.562C66.2163 16.094 66.221 16.8967 66.2303 17.97C66.2397 19.0433 66.2443 19.846 66.2443 20.378L66.1743 20.56C66.1277 20.6813 66.0437 20.8027 65.9223 20.924C65.801 21.0453 65.6797 21.1293 65.5583 21.176L65.3763 21.246H60.8123C57.7883 21.246 56.2297 21.2367 56.1363 21.218C55.931 21.162 55.749 21.036 55.5903 20.84C55.441 20.644 55.3663 20.42 55.3663 20.168C55.3663 20.0093 55.3897 19.874 55.4363 19.762C55.5483 19.482 55.749 19.286 56.0383 19.174L56.2203 19.09C57.0043 19.0807 58.1757 19.076 59.7343 19.076C61.293 19.076 62.4597 19.0713 63.2343 19.062L63.4163 18.978C63.799 18.7727 63.9903 18.4507 63.9903 18.012C63.9903 17.564 63.7943 17.2467 63.4023 17.06L63.2063 16.962C62.4317 16.9527 61.265 16.948 59.7063 16.948C58.1477 16.948 56.9763 16.9433 56.1923 16.934L56.0103 16.85C55.665 16.682 55.455 16.4067 55.3803 16.024C55.3617 15.9307 55.3523 15.1 55.3523 13.532L55.3663 11.222L55.4363 11.054C55.5577 10.7367 55.805 10.522 56.1783 10.41ZM68.4274 10.424C68.4927 10.4053 70.0607 10.396 73.1314 10.396H77.7094L77.8774 10.48C78.1014 10.5827 78.274 10.746 78.3954 10.97C78.4607 11.0913 78.4934 11.2687 78.4934 11.502C78.4934 11.7353 78.47 11.9033 78.4234 12.006C78.3207 12.2393 78.1387 12.4167 77.8774 12.538L77.6814 12.622L76.2814 12.65L74.8954 12.664L74.7414 12.748C74.5174 12.86 74.3494 13.0373 74.2374 13.28L74.1394 13.476C74.1394 14.2507 74.1347 15.422 74.1254 16.99C74.116 18.5487 74.1114 19.72 74.1114 20.504L74.0274 20.672C73.8314 21.064 73.5047 21.26 73.0474 21.26C72.5714 21.26 72.24 21.0547 72.0534 20.644L71.9694 20.462C71.96 19.6873 71.9554 18.5207 71.9554 16.962C71.9554 15.4033 71.9507 14.232 71.9414 13.448L71.8434 13.252C71.7314 13.0187 71.5587 12.846 71.3254 12.734C71.2134 12.678 70.7234 12.65 69.8554 12.65C68.9874 12.65 68.488 12.622 68.3574 12.566C67.8814 12.3607 67.6434 12.006 67.6434 11.502C67.6434 10.9513 67.9047 10.592 68.4274 10.424ZM87.8314 12.608C87.6914 12.5613 86.8374 12.538 85.2694 12.538H82.8754L82.6934 12.622C82.46 12.7153 82.2827 12.8787 82.1614 13.112L82.0774 13.252V15.674C82.0774 15.926 82.0727 16.2247 82.0634 16.57C82.0634 16.9153 82.0634 17.1347 82.0634 17.228C82.0634 17.4987 82.0634 17.704 82.0634 17.844C82.0727 17.984 82.0867 18.1007 82.1054 18.194C82.124 18.278 82.138 18.3293 82.1474 18.348C82.166 18.3667 82.1987 18.4133 82.2454 18.488C82.3387 18.6093 82.4227 18.6933 82.4974 18.74C82.6187 18.824 82.7447 18.88 82.8754 18.908C83.0154 18.9267 83.3467 18.936 83.8694 18.936C83.9627 18.936 84.1774 18.936 84.5134 18.936C84.8587 18.9267 85.148 18.922 85.3814 18.922H87.7194L87.9014 18.838C88.1254 18.7447 88.2934 18.586 88.4054 18.362C88.4707 18.2313 88.5034 17.9047 88.5034 17.382C88.5034 16.766 88.4987 16.192 88.4894 15.66L88.4754 13.294L88.3634 13.098C88.2327 12.8553 88.0554 12.692 87.8314 12.608ZM82.5254 10.312C82.5347 10.312 82.5907 10.312 82.6934 10.312C82.8054 10.312 82.95 10.312 83.1274 10.312C83.314 10.312 83.5194 10.312 83.7434 10.312C83.9674 10.3027 84.2287 10.298 84.5274 10.298C84.8354 10.298 85.1294 10.298 85.4094 10.298C87.2294 10.298 88.242 10.326 88.4474 10.382C89.082 10.55 89.6 10.872 90.0014 11.348C90.412 11.824 90.65 12.3887 90.7154 13.042C90.734 13.1913 90.7434 13.84 90.7434 14.988C90.7434 17.312 90.72 18.5767 90.6734 18.782C90.5987 19.0433 90.5147 19.2767 90.4214 19.482C90.3747 19.594 90.3514 19.664 90.3514 19.692C90.3514 19.72 90.2814 19.818 90.1414 19.986C90.0107 20.154 89.8987 20.28 89.8054 20.364C89.4227 20.7093 88.9934 20.9473 88.5174 21.078L88.2654 21.148H82.3854L82.1334 21.078C81.62 20.938 81.1767 20.686 80.8034 20.322C80.43 19.958 80.164 19.5193 80.0054 19.006L79.9214 18.74V12.776L79.9914 12.51C80.178 11.8193 80.5607 11.2687 81.1394 10.858C81.5967 10.5407 82.0587 10.3587 82.5254 10.312ZM100.123 12.636L99.9414 12.566H97.6034C96.0167 12.566 95.2 12.5707 95.1534 12.58C94.9574 12.6173 94.7707 12.734 94.5934 12.93C94.4067 13.126 94.3134 13.364 94.3134 13.644C94.3134 14.092 94.5234 14.4187 94.9434 14.624L95.1114 14.708H99.9694L100.151 14.61C100.329 14.526 100.478 14.4 100.599 14.232C100.73 14.0547 100.795 13.8587 100.795 13.644C100.795 13.5133 100.767 13.378 100.711 13.238C100.599 12.9487 100.403 12.748 100.123 12.636ZM92.8854 10.382C92.9507 10.354 93.4874 10.34 94.4954 10.34H97.6314H102.223L102.391 10.424C102.634 10.536 102.807 10.704 102.909 10.928L103.021 11.138V16.08L102.937 16.248C102.76 16.6213 102.433 16.836 101.957 16.892C101.509 16.9293 101.197 17.0693 101.019 17.312C100.87 17.5173 100.795 17.7367 100.795 17.97C100.795 18.138 100.837 18.3013 100.921 18.46C101.108 18.8147 101.439 19.0107 101.915 19.048C102.401 19.0853 102.732 19.286 102.909 19.65C102.984 19.79 103.021 19.9487 103.021 20.126C103.021 20.5927 102.816 20.9193 102.405 21.106C102.247 21.1713 102.083 21.204 101.915 21.204C101.579 21.204 101.313 21.106 101.117 20.91C100.931 20.7233 100.823 20.476 100.795 20.168C100.711 19.4773 100.347 19.104 99.7034 19.048C99.05 18.992 98.6954 18.6373 98.6394 17.984C98.602 17.508 98.3827 17.1767 97.9814 16.99L97.7994 16.892H95.1534L94.9574 16.99C94.6587 17.13 94.4627 17.3447 94.3694 17.634C94.332 17.7647 94.3134 18.2407 94.3134 19.062C94.3134 19.7433 94.304 20.1587 94.2854 20.308C94.2667 20.4573 94.2107 20.602 94.1174 20.742C93.9307 21.05 93.6367 21.204 93.2354 21.204C93.114 21.204 92.9974 21.1853 92.8854 21.148C92.7547 21.1107 92.6194 21.022 92.4794 20.882C92.3487 20.7513 92.26 20.6113 92.2134 20.462L92.1434 20.252V15.688L92.1574 11.138L92.2274 10.984C92.3674 10.676 92.5867 10.4753 92.8854 10.382ZM104.771 10.27C104.845 10.2513 105.102 10.242 105.541 10.242H105.961C106.157 10.242 106.283 10.2607 106.339 10.298C106.497 10.382 106.591 10.5547 106.619 10.816C106.637 11.0213 106.656 11.6513 106.675 12.706L106.689 14.344L106.773 14.456C106.847 14.5493 106.917 14.6007 106.983 14.61C107.132 14.6473 107.79 14.666 108.957 14.666H109.895H111.407C112.34 14.666 112.844 14.638 112.919 14.582C112.937 14.5633 112.956 14.5353 112.975 14.498L113.003 14.47L113.073 14.372L113.087 12.482C113.096 11.194 113.11 10.5407 113.129 10.522C113.194 10.3913 113.301 10.3073 113.451 10.27C113.563 10.242 113.81 10.228 114.193 10.228C114.631 10.228 114.893 10.2513 114.977 10.298C115.079 10.3633 115.145 10.4147 115.173 10.452C115.21 10.4987 115.233 11.5207 115.243 13.518C115.243 14.3953 115.243 15.1187 115.243 15.688V20.84C115.159 20.98 115.056 21.0873 114.935 21.162C113.815 21.1713 112.13 21.176 109.881 21.176C107.631 21.176 105.947 21.1807 104.827 21.19L104.701 21.12C104.607 21.0827 104.537 21.0127 104.491 20.91C104.444 20.826 104.421 20.56 104.421 20.112C104.421 19.6827 104.43 19.4307 104.449 19.356C104.505 19.1787 104.621 19.0667 104.799 19.02C104.855 19.0013 106.203 18.992 108.845 18.992C111.458 18.992 112.797 18.9733 112.863 18.936C112.891 18.9173 112.942 18.8613 113.017 18.768C113.063 18.6747 113.087 18.5487 113.087 18.39C113.087 18.362 113.082 18.292 113.073 18.18C113.073 18.068 113.073 17.97 113.073 17.886V17.13L112.975 17.032C112.9 16.9573 112.821 16.9107 112.737 16.892C112.531 16.864 111.682 16.85 110.189 16.85H108.775H106.269C105.279 16.85 104.757 16.8313 104.701 16.794C104.617 16.7567 104.528 16.6587 104.435 16.5L104.421 13.644C104.421 11.7027 104.425 10.7087 104.435 10.662C104.453 10.5873 104.495 10.508 104.561 10.424C104.635 10.34 104.705 10.2887 104.771 10.27Z" fill="black"/>
<path opacity="0.5" d="M28.1295 39.5812C27.6567 38.9194 28.1298 38 28.9432 38H103.624C103.866 38 104.1 38.0879 104.283 38.2474L109.997 43.2474C110.692 43.8555 110.262 45 109.339 45H32.5146C32.1917 45 31.8886 44.844 31.7009 44.5812L28.1295 39.5812Z" fill="url(#paint0_linear_34706_5152)"/>
<path opacity="0.5" d="M37.2 52.6C36.7056 51.9408 37.176 51 38 51H152.649C152.876 51 153.097 51.0773 153.274 51.2191L160.774 57.2191C161.512 57.8096 161.094 59 160.149 59H42.5C42.1852 59 41.8889 58.8518 41.7 58.6L37.2 52.6Z" fill="url(#paint1_linear_34706_5152)"/>
<defs>
<filter id="filter0_i_34706_5152" x="17.5" y="0.5" width="111" height="29" filterUnits="userSpaceOnUse" color-interpolation-filters="sRGB">
<feFlood flood-opacity="0" result="BackgroundImageFix"/>
<feBlend mode="normal" in="SourceGraphic" in2="BackgroundImageFix" result="shape"/>
<feColorMatrix in="SourceAlpha" type="matrix" values="0 0 0 0 0 0 0 0 0 0 0 0 0 0 0 0 0 0 127 0" result="hardAlpha"/>
<feOffset dy="4"/>
<feComposite in2="hardAlpha" operator="arithmetic" k2="-1" k3="1"/>
<feColorMatrix type="matrix" values="0 0 0 0 1 0 0 0 0 1 0 0 0 0 1 0 0 0 0.5 0"/>
<feBlend mode="normal" in2="shape" result="effect1_innerShadow_34706_5152"/>
</filter>
<linearGradient id="paint0_linear_34706_5152" x1="112" y1="41.5" x2="27" y2="41.5" gradientUnits="userSpaceOnUse">
<stop stop-color="#639998" stop-opacity="0.09"/>
<stop offset="1" stop-color="#A5FFFD"/>
</linearGradient>
<linearGradient id="paint1_linear_34706_5152" x1="163" y1="55" x2="36" y2="55" gradientUnits="userSpaceOnUse">
<stop stop-color="#639998" stop-opacity="0.09"/>
<stop offset="1" stop-color="#A5FFFD"/>
</linearGradient>
</defs>
</svg>
