<svg width="136" height="34" viewBox="0 0 136 34" fill="none" xmlns="http://www.w3.org/2000/svg">
<path d="M4.16779 15.9355C2.52085 13.9852 3.9072 11 6.45988 11H112.592C112.854 11 113.105 11.1024 113.292 11.2852L130.741 28.3555C132.663 30.2356 131.332 33.5 128.643 33.5H19.4644C19.1699 33.5 18.8904 33.3702 18.7004 33.1452L4.16779 15.9355Z" fill="black"/>
<path d="M8.38676 16.0991C7.81318 15.3879 7.50037 14.5017 7.50037 13.588V5.5L108.793 10.9618C109.261 10.9871 109.722 11.0946 110.153 11.2794L127.001 18.5V28.5C127.001 29.6046 126.105 30.5 125.001 30.5H20.9573C20.3525 30.5 19.7801 30.2263 19.4005 29.7555L8.38676 16.0991Z" fill="#52527A" stroke="black"/>
<g filter="url(#filter0_i_34810_3879)">
<path d="M8.50828 7.67586C6.1916 5.10177 8.01837 1 11.4815 1H106.004C106.969 1 107.901 1.3486 108.629 1.98158L126.464 17.4908C127.86 18.7046 127.002 21 125.152 21H21.3907C20.8237 21 20.2834 20.7594 19.9041 20.3379L8.50828 7.67586Z" fill="#A6A6DB"/>
</g>
<path d="M8.50828 7.67586C6.1916 5.10177 8.01837 1 11.4815 1H106.004C106.969 1 107.901 1.3486 108.629 1.98158L126.464 17.4908C127.86 18.7046 127.002 21 125.152 21H21.3907C20.8237 21 20.2834 20.7594 19.9041 20.3379L8.50828 7.67586Z" stroke="black"/>
<path d="M28.6123 7.85105C28.6338 7.64302 28.8165 7.539 29.1605 7.539C29.5384 7.55161 29.9073 7.68084 30.2674 7.9267L30.4549 8.05909C30.6303 8.27343 30.883 8.59178 31.213 9.01416C31.5381 9.43023 31.7859 9.74228 31.9564 9.95031L32.1171 10.0638C32.359 10.2403 32.6135 10.3664 32.8806 10.442L33.1003 10.5082H35.1163C36.4683 10.5082 37.1905 10.4956 37.2828 10.4704C37.4926 10.4011 37.5796 10.2718 37.5439 10.0827L37.5124 9.95031C37.3499 9.74228 37.1101 9.43023 36.793 9.01416C36.476 8.59809 36.2362 8.28603 36.0736 8.078L36.0662 7.94561C36.0391 7.78801 36.096 7.67138 36.2368 7.59574C36.3002 7.56422 36.4279 7.54846 36.6199 7.54846C36.8119 7.54846 36.9538 7.56106 37.0455 7.58628C37.3335 7.66823 37.5945 7.79747 37.8284 7.97398L37.9964 8.09691L42.8798 14.3474L42.9039 14.4703C42.9544 14.7603 42.7717 14.9053 42.3557 14.9053C42.2117 14.9053 42.0545 14.8833 41.884 14.8391C41.6588 14.7761 41.4196 14.6595 41.1667 14.4893L40.9866 14.3663C40.829 14.1646 40.5886 13.862 40.2654 13.4585C39.9372 13.0488 39.6943 12.743 39.5367 12.5413L39.3419 12.3994C39.092 12.2229 38.832 12.1 38.5618 12.0307L38.3689 11.9834H36.4488C35.1128 11.9834 34.4153 11.9865 34.3562 11.9928C34.203 12.0117 34.0904 12.0622 34.0184 12.1441C33.9465 12.2261 33.9268 12.3238 33.9595 12.4373C33.9786 12.5129 34.223 12.8565 34.6928 13.468L35.3826 14.3663L35.4067 14.4893C35.4233 14.6027 35.3852 14.6973 35.2923 14.7729C35.2043 14.8549 35.0683 14.8959 34.8843 14.8959C34.7643 14.8959 34.64 14.8801 34.5114 14.8486C34.2332 14.7792 33.9716 14.6595 33.7267 14.4893L33.5586 14.3663L31.1234 11.2647L29.7788 9.5437C29.4488 9.12132 29.2074 8.81242 29.0547 8.617C28.8971 8.41527 28.782 8.25767 28.7093 8.14419C28.6447 8.03072 28.6114 7.96768 28.6096 7.95507C28.6077 7.94246 28.6086 7.90779 28.6123 7.85105ZM39.3419 7.6241L39.4702 7.55791H43.4662L47.4696 7.56737L47.6699 7.6241C47.905 7.69975 48.1386 7.81953 48.3706 7.98344C48.4827 8.06539 48.5928 8.17571 48.7012 8.3144C48.8096 8.45309 48.8718 8.56341 48.8878 8.64537C48.9118 8.80927 48.8534 8.92905 48.7125 9.0047L48.5889 9.06144L47.4036 9.08035L46.211 9.0898L46.0947 9.156C45.9668 9.23795 45.9179 9.35458 45.9481 9.50587L45.9647 9.61935L48.521 12.8912L48.689 13.0141C48.9309 13.1906 49.183 13.3135 49.4451 13.3829L49.6261 13.4302C49.8901 13.4302 50.2925 13.4333 50.8335 13.4396C51.3744 13.4459 51.7769 13.4491 52.0409 13.4491L52.2218 13.4964C52.6723 13.6224 53.0231 13.8462 53.2743 14.1677C53.5009 14.4577 53.5084 14.6721 53.2967 14.8108L53.1878 14.8864L50.5072 14.8959C49.5281 14.9022 48.1946 14.9053 46.5066 14.9053H45.1986L44.9983 14.8486C44.5527 14.7288 44.2043 14.5082 43.9531 14.1867C43.7019 13.8651 43.7055 13.6445 43.964 13.5247L44.0756 13.468C44.3316 13.468 44.7132 13.4648 45.2202 13.4585C45.7353 13.4522 46.1209 13.4491 46.3769 13.4491L46.4978 13.3734C46.6528 13.2852 46.7078 13.1559 46.6628 12.9857L46.6342 12.8723L44.1075 9.63826L43.9201 9.50587C43.701 9.34827 43.4594 9.22849 43.1953 9.14654L42.995 9.0898L41.8236 9.08035L40.6569 9.06144L40.4639 9.01416C40.1888 8.93851 39.9368 8.81558 39.7078 8.64537C39.5878 8.56341 39.4711 8.44994 39.3578 8.30495C39.2495 8.16626 39.1897 8.05909 39.1786 7.98344C39.1546 7.81953 39.209 7.69975 39.3419 7.6241ZM50.0617 7.61465C50.146 7.58943 51.4561 7.57682 53.9921 7.57682C56.0641 7.57682 57.261 7.58313 57.5829 7.59574C57.8998 7.60204 58.1534 7.63986 58.3435 7.70921C58.4999 7.76595 58.6648 7.8542 58.8384 7.97398C59.02 8.09376 59.1649 8.22299 59.2733 8.36168C59.3669 8.48146 59.4186 8.58863 59.4285 8.68319C59.4501 8.80297 59.424 8.89753 59.3501 8.96687C59.2825 9.02361 59.1855 9.05828 59.0594 9.07089C58.8772 9.0835 57.8886 9.09296 56.0936 9.09926L53.0649 9.10872L52.9653 9.16545C52.8576 9.22219 52.7986 9.31045 52.7881 9.43022C52.7808 9.5437 52.8338 9.67293 52.947 9.81793C53.0061 9.89358 53.0609 9.95346 53.1114 9.99759C53.3004 10.1678 53.5183 10.3033 53.7651 10.4042C53.9393 10.4736 54.0793 10.5145 54.1851 10.5271C54.3919 10.546 55.1033 10.5555 56.3193 10.5555H57.2673H60.2673L60.487 10.6217C60.7541 10.6973 61.0012 10.814 61.2284 10.9716L61.3844 11.0945C61.6652 11.4538 62.0927 11.996 62.6671 12.721C63.2415 13.4459 63.6691 13.9881 63.9499 14.3474L63.9859 14.4703C64.0099 14.5523 64.002 14.6342 63.962 14.7162C63.922 14.7982 63.8624 14.8549 63.783 14.8864L63.6639 14.9337H59.7519C57.1599 14.9337 55.819 14.9274 55.7291 14.9148C55.5236 14.877 55.3011 14.7919 55.0617 14.6595C54.8302 14.5271 54.648 14.3758 54.515 14.2056C54.4313 14.0984 54.3799 14.007 54.3608 13.9313C54.309 13.7422 54.3776 13.6098 54.5665 13.5342L54.6782 13.4774C55.3452 13.4711 56.3468 13.468 57.6828 13.468C59.0188 13.468 60.0163 13.4648 60.6754 13.4585L60.7871 13.4018C61.0067 13.2631 61.0008 13.0456 60.7693 12.7493C60.5329 12.4467 60.1974 12.2324 59.7629 12.1063L59.5432 12.0401C58.8743 12.0338 57.8718 12.0307 56.5358 12.0307C55.1998 12.0307 54.1934 12.0275 53.5164 12.0212L53.3161 11.9645C52.9314 11.851 52.6062 11.665 52.3402 11.4066C52.275 11.3435 51.8286 10.7825 51.0012 9.72337L49.7942 8.1631L49.7655 8.04963C49.702 7.83529 49.8008 7.6903 50.0617 7.61465ZM60.5682 7.6241C60.6143 7.6115 61.9534 7.60519 64.5854 7.60519H68.5094L68.6977 7.66193C68.9439 7.73127 69.1781 7.8416 69.4003 7.99289C69.5204 8.07485 69.6419 8.19462 69.7651 8.35223C69.8882 8.50983 69.9569 8.6233 69.971 8.69265C70.0062 8.85025 69.9437 8.97003 69.7838 9.05198L69.6601 9.10872L68.4749 9.12763L67.2943 9.13708L67.2066 9.19382C67.0737 9.26947 67.0233 9.38925 67.0553 9.55315L67.0748 9.68554C67.4836 10.2088 68.0977 10.9999 68.9171 12.059C69.7317 13.1118 70.3458 13.903 70.7595 14.4325L70.7762 14.546C70.815 14.8108 70.6385 14.9431 70.2465 14.9431C69.8385 14.9431 69.4461 14.8045 69.0694 14.5271L68.9013 14.4041C68.4846 13.8809 67.8649 13.0929 67.0424 12.0401C66.2198 10.9873 65.5977 10.1962 65.176 9.66663L64.9886 9.53424C64.7694 9.37664 64.5303 9.26001 64.2712 9.18437C64.1457 9.14654 63.7109 9.12763 62.9669 9.12763C62.2229 9.12763 61.7801 9.10872 61.6386 9.07089C61.1222 8.9322 60.731 8.69265 60.4651 8.35223C60.1745 7.98029 60.2089 7.73758 60.5682 7.6241ZM78.3527 9.09926C78.2081 9.06774 77.4638 9.05198 76.1198 9.05198H74.0678L73.9561 9.10872C73.8054 9.17176 73.7395 9.28208 73.7587 9.43968L73.7606 9.53424L75.0387 11.1702C75.1717 11.3404 75.3253 11.5421 75.4995 11.7753C75.6817 12.0086 75.7975 12.1567 75.8467 12.2198C75.9896 12.4026 76.0979 12.5413 76.1718 12.6359C76.2537 12.7304 76.3273 12.8092 76.3925 12.8723C76.4528 12.929 76.4919 12.9637 76.5098 12.9763C76.5356 12.9889 76.5882 13.0204 76.6677 13.0708C76.8117 13.1528 76.928 13.2095 77.0166 13.241C77.165 13.2978 77.3025 13.3356 77.4293 13.3545C77.5591 13.3671 77.8481 13.3734 78.2961 13.3734C78.3761 13.3734 78.5601 13.3734 78.8481 13.3734C79.1391 13.3671 79.3847 13.364 79.5847 13.364H81.5887L81.7003 13.3072C81.8431 13.2442 81.9034 13.137 81.8812 12.9857C81.8682 12.8975 81.7238 12.6768 81.448 12.3238C81.1229 11.9077 80.816 11.52 80.5273 11.1607L79.2667 9.56261L79.0673 9.43022C78.8272 9.26632 78.589 9.156 78.3527 9.09926ZM72.5931 7.54846C72.6011 7.54846 72.6491 7.54846 72.7371 7.54846C72.8331 7.54846 72.9571 7.54846 73.1091 7.54846C73.2691 7.54846 73.4451 7.54846 73.6371 7.54846C73.8242 7.54215 74.0457 7.539 74.3017 7.539C74.5657 7.539 74.8177 7.539 75.0577 7.539C76.6177 7.539 77.5005 7.55791 77.706 7.59574C78.3387 7.70921 78.9526 7.9267 79.5478 8.24821C80.151 8.56972 80.653 8.95111 81.0537 9.3924C81.1485 9.49327 81.4989 9.9314 82.1047 10.7068C83.3311 12.2765 83.9784 13.1307 84.0468 13.2694C84.1207 13.4459 84.1718 13.6035 84.2002 13.7422C84.2193 13.8179 84.2362 13.8651 84.251 13.8841C84.2658 13.903 84.2575 13.9692 84.2262 14.0826C84.2028 14.1961 84.1733 14.2812 84.1376 14.338C83.9919 14.5712 83.7495 14.732 83.4104 14.8202L83.2314 14.8675H78.1914L77.9384 14.8202C77.4245 14.7257 76.9116 14.5554 76.3995 14.3096C75.8874 14.0637 75.4279 13.7674 75.021 13.4207L74.8086 13.241L71.6614 9.21273L71.581 9.03307C71.3765 8.56657 71.4139 8.19462 71.6932 7.91724C71.9178 7.70291 72.2177 7.57998 72.5931 7.54846ZM88.9035 9.11817L88.7106 9.07089H86.7066C85.3466 9.07089 84.649 9.07404 84.6139 9.08035C84.4656 9.10556 84.3672 9.18437 84.3186 9.31675C84.2621 9.44914 84.3077 9.60989 84.4554 9.79901C84.6918 10.1016 85.0442 10.3223 85.5126 10.4609L85.7009 10.5177H89.8649L89.9692 10.4515C90.0769 10.3948 90.1384 10.3096 90.1537 10.1962C90.1721 10.0764 90.1247 9.94401 90.0114 9.79901C89.9425 9.71076 89.8471 9.61935 89.7252 9.52479C89.4765 9.32936 89.2026 9.19382 88.9035 9.11817ZM81.51 7.59574C81.5513 7.57682 82.0039 7.56737 82.8679 7.56737H85.5559H89.4919L89.6802 7.6241C89.9473 7.69975 90.184 7.81323 90.3902 7.96453L90.597 8.10637L93.2049 11.4444L93.2216 11.5579C93.2666 11.81 93.0999 11.955 92.7214 11.9928C92.3571 12.0181 92.163 12.1126 92.1391 12.2765C92.1194 12.4152 92.1712 12.5634 92.2943 12.721C92.383 12.8344 92.5051 12.9448 92.6609 13.0519C93.008 13.2915 93.3955 13.4239 93.8232 13.4491C94.2589 13.4743 94.6488 13.6098 94.9928 13.8557C95.1307 13.9503 95.2465 14.0574 95.34 14.1772C95.5863 14.4924 95.5827 14.713 95.3292 14.8391C95.2277 14.8833 95.1049 14.9053 94.9609 14.9053C94.6729 14.9053 94.3932 14.8391 94.1218 14.7067C93.8633 14.5807 93.6407 14.4136 93.4542 14.2056C93.0177 13.7391 92.5087 13.4869 91.9272 13.4491C91.3376 13.4113 90.8465 13.1717 90.4537 12.7304C90.1705 12.4089 89.8076 12.1851 89.3651 12.059L89.1574 11.9928H86.8894L86.7731 12.059C86.591 12.1536 86.5363 12.2986 86.609 12.494C86.6459 12.5823 86.8811 12.9038 87.3146 13.4585C87.6741 13.9187 87.8853 14.1993 87.9481 14.3001C88.0109 14.401 88.0392 14.4987 88.0331 14.5933C88.0356 14.8013 87.8649 14.9053 87.5209 14.9053C87.4169 14.9053 87.3071 14.8927 87.1914 14.8675C87.0597 14.8423 86.8969 14.7824 86.703 14.6878C86.522 14.5996 86.3722 14.505 86.2533 14.4041L86.0825 14.2623L83.6741 11.1796L81.285 8.10637L81.2637 8.00235C81.2212 7.79431 81.3033 7.65878 81.51 7.59574ZM91.6384 7.52009C91.6925 7.50748 91.9076 7.50117 92.2836 7.50117H92.6436C92.8116 7.50117 92.9294 7.51378 92.9971 7.539C93.1775 7.59574 93.3486 7.71236 93.5105 7.88888C93.6349 8.02757 93.9833 8.45309 94.5559 9.16545L95.4323 10.2718L95.5634 10.3475C95.6766 10.4105 95.7637 10.4452 95.8246 10.4515C95.9723 10.4767 96.5462 10.4893 97.5462 10.4893H98.3502H99.6462C100.446 10.4893 100.863 10.4704 100.898 10.4326C100.904 10.42 100.905 10.4011 100.902 10.3758L100.911 10.3569L100.919 10.2907L99.9337 9.01416C99.262 8.14419 98.9292 7.70291 98.9354 7.6903C98.9224 7.60204 98.9701 7.5453 99.0784 7.52009C99.1596 7.50117 99.3642 7.49172 99.6922 7.49172C100.068 7.49172 100.305 7.50748 100.401 7.539C100.524 7.58313 100.607 7.6178 100.65 7.64302C100.707 7.67454 101.266 8.36483 102.328 9.71391C102.791 10.3065 103.173 10.7951 103.473 11.1796L106.192 14.6595C106.194 14.754 106.163 14.8265 106.098 14.877C105.143 14.8833 103.702 14.8864 101.774 14.8864C99.8456 14.8864 98.404 14.8896 97.449 14.8959L97.304 14.8486C97.2043 14.8234 97.1074 14.7761 97.0132 14.7067C96.9289 14.65 96.7685 14.4703 96.5321 14.1677C96.3055 13.8778 96.1805 13.7075 96.1571 13.6571C96.1116 13.5373 96.1525 13.4617 96.2798 13.4302C96.318 13.4176 97.4691 13.4113 99.7331 13.4113C101.973 13.4113 103.111 13.3986 103.148 13.3734C103.162 13.3608 103.176 13.323 103.191 13.26C103.182 13.1969 103.135 13.1118 103.051 13.0046C103.037 12.9857 102.996 12.9384 102.929 12.8628C102.869 12.7872 102.818 12.721 102.773 12.6642L102.374 12.1536L102.239 12.0874C102.135 12.037 102.043 12.0054 101.961 11.9928C101.77 11.9739 101.035 11.9645 99.7547 11.9645H98.5427H96.3947C95.5467 11.9645 95.0888 11.9519 95.0211 11.9266C94.9294 11.9014 94.8017 11.8352 94.638 11.7281L93.1189 9.79901C92.0944 8.48776 91.5739 7.81638 91.5572 7.78486C91.5338 7.73443 91.528 7.68084 91.5396 7.6241C91.5593 7.56737 91.5922 7.5327 91.6384 7.52009Z" fill="black"/>
<defs>
<filter id="filter0_i_34810_3879" x="6.97266" y="0.5" width="120.684" height="21" filterUnits="userSpaceOnUse" color-interpolation-filters="sRGB">
<feFlood flood-opacity="0" result="BackgroundImageFix"/>
<feBlend mode="normal" in="SourceGraphic" in2="BackgroundImageFix" result="shape"/>
<feColorMatrix in="SourceAlpha" type="matrix" values="0 0 0 0 0 0 0 0 0 0 0 0 0 0 0 0 0 0 127 0" result="hardAlpha"/>
<feOffset dy="4"/>
<feComposite in2="hardAlpha" operator="arithmetic" k2="-1" k3="1"/>
<feColorMatrix type="matrix" values="0 0 0 0 1 0 0 0 0 1 0 0 0 0 1 0 0 0 0.5 0"/>
<feBlend mode="normal" in2="shape" result="effect1_innerShadow_34810_3879"/>
</filter>
</defs>
</svg>
