<svg width="67" height="54" viewBox="0 0 67 54" fill="none" xmlns="http://www.w3.org/2000/svg">
<path d="M34.2104 5.57026C34.2105 2.08969 38.3481 0.269922 40.9136 2.62202L64.2817 24.0478C66.0103 25.6331 66.0105 28.3591 64.2817 29.9443L40.9136 51.3691C38.3481 53.7214 34.2104 51.9015 34.2104 48.4208V43.3339L4.36377 29.955C1.21216 28.5422 1.21216 24.0681 4.36377 22.6552L34.2104 9.27534V5.57026Z" fill="#4B760B"/>
<path d="M34.2104 5.57026L33.2104 5.57025V5.57026H34.2104ZM40.9136 2.62202L41.5894 1.88494L41.5894 1.88492L40.9136 2.62202ZM64.2817 24.0478L64.9576 23.3108L64.9575 23.3107L64.2817 24.0478ZM64.2817 29.9443L64.9575 30.6814L64.9576 30.6813L64.2817 29.9443ZM40.9136 51.3691L40.2378 50.632L40.2378 50.632L40.9136 51.3691ZM34.2104 48.4208H35.2104H34.2104ZM34.2104 43.3339H35.2104V42.6863L34.6195 42.4214L34.2104 43.3339ZM4.36377 29.955L3.9547 30.8675L3.95473 30.8675L4.36377 29.955ZM4.36377 22.6552L3.9547 21.7427L3.9547 21.7427L4.36377 22.6552ZM34.2104 9.27534L34.6195 10.1878L35.2104 9.92294V9.27534H34.2104ZM34.2104 5.57026L35.2104 5.57027C35.2105 2.9599 38.3136 1.59501 40.2378 3.35912L40.9136 2.62202L41.5894 1.88492C38.3825 -1.05516 33.2105 1.21948 33.2104 5.57025L34.2104 5.57026ZM40.9136 2.62202L40.2378 3.3591L63.6059 24.7849L64.2817 24.0478L64.9575 23.3107L41.5894 1.88494L40.9136 2.62202ZM64.2817 24.0478L63.6058 24.7848C64.9023 25.9739 64.9024 28.0184 63.6059 29.2072L64.2817 29.9443L64.9576 30.6813C67.1186 28.6998 67.1183 25.2924 64.9576 23.3108L64.2817 24.0478ZM64.2817 29.9443L63.6059 29.2072L40.2378 50.632L40.9136 51.3691L41.5894 52.1062L64.9575 30.6814L64.2817 29.9443ZM40.9136 51.3691L40.2378 50.632C38.3136 52.3962 35.2104 51.0313 35.2104 48.4208H34.2104H33.2104C33.2104 52.7717 38.3825 55.0465 41.5894 52.1062L40.9136 51.3691ZM34.2104 48.4208H35.2104V43.3339H34.2104H33.2104V48.4208H34.2104ZM34.2104 43.3339L34.6195 42.4214L4.77281 29.0425L4.36377 29.955L3.95473 30.8675L33.8014 44.2464L34.2104 43.3339ZM4.36377 29.955L4.77284 29.0425C2.40913 27.9829 2.40914 24.6274 4.77284 23.5677L4.36377 22.6552L3.9547 21.7427C0.0151769 23.5088 0.0151871 29.1015 3.9547 30.8675L4.36377 29.955ZM4.36377 22.6552L4.77283 23.5677L34.6195 10.1878L34.2104 9.27534L33.8014 8.36283L3.9547 21.7427L4.36377 22.6552ZM34.2104 9.27534H35.2104V5.57026H34.2104H33.2104V9.27534H34.2104Z" fill="#312D49"/>
<path d="M30.2247 7.96977C30.2247 4.48912 34.3633 2.66925 36.9288 5.02153L57.6798 24.0479C59.4087 25.6332 59.4087 28.3591 57.6798 29.9444L36.9288 48.9717C34.3634 51.3239 30.2251 49.5038 30.2247 46.0235V42.0508L3.36337 30.0108C0.212164 28.5979 0.212253 24.124 3.36337 22.711L30.2247 10.67V7.96977Z" fill="#BFFF60"/>
<path d="M30.2247 7.96977L29.2247 7.96977V7.96977H30.2247ZM36.9288 5.02153L36.253 5.7586V5.7586L36.9288 5.02153ZM57.6798 24.0479L58.3556 23.3108L57.6798 24.0479ZM57.6798 29.9444L58.3556 30.6814L58.3556 30.6814L57.6798 29.9444ZM36.9288 48.9717L37.6046 49.7088L37.6046 49.7088L36.9288 48.9717ZM30.2247 46.0235H29.2247V46.0236L30.2247 46.0235ZM30.2247 42.0508H31.2247V41.4032L30.6337 41.1383L30.2247 42.0508ZM3.36337 30.0108L2.95424 30.9233L2.95435 30.9233L3.36337 30.0108ZM3.36337 22.711L2.95433 21.7985L2.95421 21.7985L3.36337 22.711ZM30.2247 10.67L30.6338 11.5825L31.2247 11.3176V10.67H30.2247ZM30.2247 7.96977H31.2247C31.2247 5.35949 34.3287 3.99425 36.253 5.7586L36.9288 5.02153L37.6046 4.28446C34.3979 1.34426 29.2247 3.61874 29.2247 7.96977L30.2247 7.96977ZM36.9288 5.02153L36.253 5.7586L57.004 24.785L57.6798 24.0479L58.3556 23.3108L37.6046 4.28446L36.9288 5.02153ZM57.6798 24.0479L57.004 24.785C58.3006 25.9739 58.3006 28.0183 57.0039 29.2073L57.6798 29.9444L58.3556 30.6814C60.5167 28.6998 60.5168 25.2924 58.3556 23.3108L57.6798 24.0479ZM57.6798 29.9444L57.0039 29.2073L36.253 48.2347L36.9288 48.9717L37.6046 49.7088L58.3556 30.6814L57.6798 29.9444ZM36.9288 48.9717L36.253 48.2347C34.329 49.9988 31.225 48.6337 31.2247 46.0234L30.2247 46.0235L29.2247 46.0236C29.2252 50.374 34.3979 52.649 37.6046 49.7088L36.9288 48.9717ZM30.2247 46.0235H31.2247V42.0508H30.2247H29.2247V46.0235H30.2247ZM30.2247 42.0508L30.6337 41.1383L3.7724 29.0983L3.36337 30.0108L2.95435 30.9233L29.8157 42.9634L30.2247 42.0508ZM3.36337 30.0108L3.77251 29.0983C1.40918 28.0387 1.40914 24.6832 3.77254 23.6234L3.36337 22.711L2.95421 21.7985C-0.984636 23.5648 -0.98485 29.1571 2.95424 30.9233L3.36337 30.0108ZM3.36337 22.711L3.77242 23.6235L30.6338 11.5825L30.2247 10.67L29.8157 9.75745L2.95433 21.7985L3.36337 22.711ZM30.2247 10.67H31.2247V7.96977H30.2247H29.2247V10.67H30.2247Z" fill="#312D49"/>
<circle cx="35.5" cy="26.5" r="7.5" fill="#836EF9" stroke="#312D49"/>
</svg>
