<svg width="614" height="562" viewBox="0 0 614 562" fill="none" xmlns="http://www.w3.org/2000/svg">
<g filter="url(#filter0_d_34706_5493)">
<path d="M11 31.8154C11 31.5502 11.1054 31.2958 11.2929 31.1083L31.1083 11.2929C31.2958 11.1054 31.5502 11 31.8154 11H582.185C582.45 11 582.704 11.1054 582.892 11.2929L602.707 31.1083C602.895 31.2958 603 31.5502 603 31.8154V530.185C603 530.45 602.895 530.704 602.707 530.892L582.892 550.707C582.704 550.895 582.45 551 582.185 551H31.8154C31.5501 551 31.2958 550.895 31.1083 550.707L11.2929 530.892C11.1054 530.704 11 530.45 11 530.185V31.8154Z" fill="#2B294A"/>
<path d="M582.185 10.5C582.582 10.5 582.964 10.6582 583.245 10.9395L603.061 30.7549L603.16 30.8643C603.379 31.1312 603.5 31.4672 603.5 31.8154V530.185C603.5 530.582 603.342 530.964 603.061 531.245L583.245 551.061C582.964 551.342 582.582 551.5 582.185 551.5H31.8154C31.4672 551.5 31.1312 551.379 30.8643 551.16L30.7549 551.061L10.9395 531.245C10.6582 530.964 10.5 530.582 10.5 530.185V31.8154C10.5 31.4176 10.6582 31.0362 10.9395 30.7549L30.7549 10.9395L30.8643 10.8398C31.1312 10.621 31.4672 10.5 31.8154 10.5H582.185Z" stroke="url(#paint0_linear_34706_5493)" stroke-linejoin="round"/>
</g>
<defs>
<filter id="filter0_d_34706_5493" x="0" y="0" width="614" height="562" filterUnits="userSpaceOnUse" color-interpolation-filters="sRGB">
<feFlood flood-opacity="0" result="BackgroundImageFix"/>
<feColorMatrix in="SourceAlpha" type="matrix" values="0 0 0 0 0 0 0 0 0 0 0 0 0 0 0 0 0 0 127 0" result="hardAlpha"/>
<feOffset/>
<feGaussianBlur stdDeviation="5"/>
<feComposite in2="hardAlpha" operator="out"/>
<feColorMatrix type="matrix" values="0 0 0 0 0 0 0 0 0 0 0 0 0 0 0 0 0 0 0.05 0"/>
<feBlend mode="normal" in2="BackgroundImageFix" result="effect1_dropShadow_34706_5493"/>
<feBlend mode="normal" in="SourceGraphic" in2="effect1_dropShadow_34706_5493" result="shape"/>
</filter>
<linearGradient id="paint0_linear_34706_5493" x1="287" y1="11" x2="287" y2="507.741" gradientUnits="userSpaceOnUse">
<stop stop-color="#9892C0"/>
<stop offset="1" stop-color="#47445A"/>
</linearGradient>
</defs>
</svg>
