<svg width="43" height="43" viewBox="0 0 43 43" fill="none" xmlns="http://www.w3.org/2000/svg">
<path d="M11.9369 23.7952L7.09719 18.9555C6.31614 18.1745 6.33138 16.9013 7.31544 16.3996C8.78271 15.6515 10.7851 15.1573 12.9384 15.2891C17.1291 15.5456 20.9183 13.9799 23.2477 12.4844L11.9369 23.7952Z" fill="#A5FFFD" stroke="#414266" stroke-linecap="round"/>
<path d="M19.1503 31.0066L23.9935 35.8498C24.7745 36.6308 26.0478 36.6156 26.5493 35.6314C27.2971 34.1639 27.791 32.1611 27.6586 30.0072C27.4009 25.8153 28.9659 22.0254 30.4612 19.6958L19.1503 31.0066Z" fill="#A5FFFD" stroke="#414266" stroke-linecap="round"/>
<path d="M22.6178 12.4579C23.558 11.5176 24.7839 10.9164 26.1029 10.7485L29.2401 10.3492C31.1863 10.1015 32.8426 11.7578 32.5949 13.704L32.1956 16.8412C32.0277 18.1602 31.4265 19.3861 30.4863 20.3263L19.3144 31.4982L11.4459 23.6297L22.6178 12.4579Z" fill="#A5FFFD" stroke="#414266" stroke-linecap="round"/>
<path d="M23.963 13.8186C25.1346 12.647 27.0341 12.647 28.2057 13.8186L28.9774 14.5903C30.149 15.7619 30.149 17.6614 28.9774 18.833L28.6719 19.1385C28.2813 19.5291 27.6482 19.5291 27.2576 19.1385L23.6575 15.5384C23.2669 15.1478 23.2669 14.5147 23.6575 14.1242L23.963 13.8186Z" fill="black"/>
<path d="M20.702 19.6161C21.0008 19.3172 21.3867 19.1207 21.8043 19.0548L22.9183 18.8789C23.5889 18.773 24.1679 19.3519 24.062 20.0226L23.8861 21.1366C23.8202 21.5541 23.6237 21.94 23.3248 22.2389L16.396 29.1677L13.7732 26.5449L20.702 19.6161Z" fill="#A5FFFD" stroke="#414266" stroke-linecap="round"/>
<path d="M11.3155 21.7945C13.2167 19.8933 16.2992 19.8933 18.2004 21.7945L18.3643 21.9584L13.7744 26.5483L11.3155 24.0894C10.6818 23.4557 10.6818 22.4282 11.3155 21.7945Z" fill="#A5FFFD" stroke="#414266" stroke-linecap="round"/>
<path d="M21.1484 31.6275C23.0496 29.7263 23.0496 26.6438 21.1484 24.7426L20.9845 24.5787L16.3945 29.1686L18.8534 31.6275C19.4872 32.2612 20.5146 32.2612 21.1484 31.6275Z" fill="#A5FFFD" stroke="#414266" stroke-linecap="round"/>
<path d="M9.78458 33.0084C9.61919 30.3358 10.1398 25.842 13.5454 29.2476C16.951 32.6532 12.4572 33.1738 9.78458 33.0084Z" fill="#A5FFFD" stroke="#414266" stroke-linecap="round"/>
</svg>
