<svg width="67" height="54" viewBox="0 0 67 54" fill="none" xmlns="http://www.w3.org/2000/svg">
<path d="M32.3671 5.57036C32.3671 2.0897 28.2295 0.269838 25.664 2.62211L2.29681 24.0479C0.568008 25.6332 0.567886 28.3591 2.29681 29.9444L25.664 51.3692C28.2295 53.7215 32.3671 51.9016 32.3671 48.4209V43.334L62.2138 29.9551C65.3656 28.5423 65.3656 24.0681 62.2138 22.6553L32.3671 9.27543V5.57036Z" fill="#4B760B"/>
<path d="M32.3671 5.57036H33.3671H32.3671ZM25.664 2.62211L24.9882 1.88505L24.9882 1.88504L25.664 2.62211ZM2.29681 24.0479L1.62096 23.3109L1.62099 23.3108L2.29681 24.0479ZM2.29681 29.9444L1.62101 30.6815L1.621 30.6815L2.29681 29.9444ZM25.664 51.3692L26.3398 50.6321L26.3398 50.6321L25.664 51.3692ZM32.3671 48.4209H31.3671H32.3671ZM32.3671 43.334H31.3671V42.6864L31.9581 42.4215L32.3671 43.334ZM62.2138 29.9551L62.6228 30.8676L62.6228 30.8676L62.2138 29.9551ZM62.2138 22.6553L61.8048 23.5678L61.8047 23.5678L62.2138 22.6553ZM32.3671 9.27543L31.9581 10.1879L31.3671 9.92303V9.27543H32.3671ZM32.3671 5.57036L31.3671 5.57036C31.3671 2.95986 28.2639 1.59498 26.3398 3.35919L25.664 2.62211L24.9882 1.88504C28.1951 -1.05531 33.3671 1.21955 33.3671 5.57036H32.3671ZM25.664 2.62211L26.3398 3.35918L2.97264 24.785L2.29681 24.0479L1.62099 23.3108L24.9882 1.88505L25.664 2.62211ZM2.29681 24.0479L2.97267 24.7849C1.67601 25.974 1.67599 28.0184 2.97263 29.2073L2.29681 29.9444L1.621 30.6815C-0.540222 28.6998 -0.539993 25.2925 1.62096 23.3109L2.29681 24.0479ZM2.29681 29.9444L2.97262 29.2073L26.3398 50.6321L25.664 51.3692L24.9882 52.1063L1.62101 30.6815L2.29681 29.9444ZM25.664 51.3692L26.3398 50.6321C28.2639 52.3963 31.3671 51.0314 31.3671 48.4209H32.3671H33.3671C33.3671 52.7718 28.1951 55.0466 24.9882 52.1063L25.664 51.3692ZM32.3671 48.4209H31.3671V43.334H32.3671H33.3671V48.4209H32.3671ZM32.3671 43.334L31.9581 42.4215L61.8048 29.0426L62.2138 29.9551L62.6228 30.8676L32.7762 44.2465L32.3671 43.334ZM62.2138 29.9551L61.8048 29.0426C64.1686 27.983 64.1686 24.6274 61.8048 23.5678L62.2138 22.6553L62.6228 21.7428C66.5626 23.5088 66.5626 29.1016 62.6228 30.8676L62.2138 29.9551ZM62.2138 22.6553L61.8047 23.5678L31.9581 10.1879L32.3671 9.27543L32.7762 8.36293L62.6229 21.7428L62.2138 22.6553ZM32.3671 9.27543H31.3671V5.57036H32.3671H33.3671V9.27543H32.3671Z" fill="#312D49"/>
<path d="M36.3534 7.96977C36.3534 4.48912 32.2148 2.66925 29.6493 5.02153L8.89834 24.0479C7.1694 25.6332 7.16947 28.3591 8.89834 29.9444L29.6493 48.9717C32.2147 51.3239 36.3531 49.5038 36.3534 46.0235V42.0508L63.2148 30.0108C66.366 28.5979 66.3659 24.124 63.2148 22.711L36.3534 10.67V7.96977Z" fill="#BFFF60"/>
<path d="M36.3534 7.96977L37.3534 7.96977V7.96977H36.3534ZM29.6493 5.02153L30.3251 5.7586V5.7586L29.6493 5.02153ZM8.89834 24.0479L8.22253 23.3108L8.89834 24.0479ZM8.89834 29.9444L8.22251 30.6814L8.2225 30.6814L8.89834 29.9444ZM29.6493 48.9717L28.9735 49.7088L28.9735 49.7088L29.6493 48.9717ZM36.3534 46.0235H37.3534V46.0236L36.3534 46.0235ZM36.3534 42.0508H35.3534V41.4032L35.9444 41.1383L36.3534 42.0508ZM63.2148 30.0108L63.6239 30.9233L63.6238 30.9233L63.2148 30.0108ZM63.2148 22.711L63.6238 21.7985L63.6239 21.7985L63.2148 22.711ZM36.3534 10.67L35.9444 11.5825L35.3534 11.3176V10.67H36.3534ZM36.3534 7.96977H35.3534C35.3534 5.35949 32.2494 3.99425 30.3251 5.7586L29.6493 5.02153L28.9735 4.28446C32.1802 1.34426 37.3534 3.61874 37.3534 7.96977L36.3534 7.96977ZM29.6493 5.02153L30.3251 5.7586L9.57416 24.785L8.89834 24.0479L8.22253 23.3108L28.9735 4.28446L29.6493 5.02153ZM8.89834 24.0479L9.57416 24.785C8.27748 25.9739 8.27749 28.0183 9.57418 29.2073L8.89834 29.9444L8.2225 30.6814C6.06145 28.6998 6.0613 25.2924 8.22253 23.3108L8.89834 24.0479ZM8.89834 29.9444L9.57418 29.2073L30.3252 48.2347L29.6493 48.9717L28.9735 49.7088L8.22251 30.6814L8.89834 29.9444ZM29.6493 48.9717L30.3251 48.2347C32.2491 49.9988 35.3531 48.6337 35.3534 46.0234L36.3534 46.0235L37.3534 46.0236C37.353 50.374 32.1802 52.649 28.9735 49.7088L29.6493 48.9717ZM36.3534 46.0235H35.3534V42.0508H36.3534H37.3534V46.0235H36.3534ZM36.3534 42.0508L35.9444 41.1383L62.8057 29.0983L63.2148 30.0108L63.6238 30.9233L36.7624 42.9634L36.3534 42.0508ZM63.2148 30.0108L62.8056 29.0983C65.1689 28.0387 65.169 24.6832 62.8056 23.6234L63.2148 22.711L63.6239 21.7985C67.5628 23.5648 67.563 29.1571 63.6239 30.9233L63.2148 30.0108ZM63.2148 22.711L62.8057 23.6235L35.9444 11.5825L36.3534 10.67L36.7625 9.75745L63.6238 21.7985L63.2148 22.711ZM36.3534 10.67H35.3534V7.96977H36.3534H37.3534V10.67H36.3534Z" fill="#312D49"/>
<circle cx="7.5" cy="7.5" r="7.5" transform="matrix(-1 0 0 1 38.5781 19)" fill="#836EF9" stroke="#312D49"/>
</svg>
