<svg width="116" height="28" viewBox="0 0 116 28" fill="none" xmlns="http://www.w3.org/2000/svg">
<path d="M4.16779 9.93554C2.52085 7.98522 3.9072 5 6.45988 5H92.5922C92.8536 5 93.1046 5.10236 93.2915 5.28517L110.741 22.3555C112.663 24.2356 111.332 27.5 108.643 27.5H19.4644C19.1699 27.5 18.8904 27.3702 18.7004 27.1452L4.16779 9.93554Z" fill="black"/>
<path d="M9.02249 11.1397C8.3645 10.4058 8.00061 9.45492 8.00061 8.4693V5L89.7963 10.9472C90.2623 10.9811 90.7187 11.0963 91.1449 11.2877L107.5 18.6326V22.6295C107.5 23.7353 106.603 24.6312 105.497 24.6295L21.8918 24.4998C21.3246 24.4989 20.7845 24.2573 20.4058 23.835L9.02249 11.1397Z" fill="#476E0E" stroke="black"/>
<g filter="url(#filter0_i_34810_3892)">
<path d="M9.00828 7.67586C6.6916 5.10177 8.51837 1 11.9815 1H86.5041C87.4687 1 88.4009 1.3486 89.1288 1.98158L106.964 17.4908C108.36 18.7046 107.502 21 105.652 21H21.8907C21.3238 21 20.7834 20.7594 20.4041 20.3379L9.00828 7.67586Z" fill="#BFFF60"/>
</g>
<path d="M9.00828 7.67586C6.6916 5.10177 8.51837 1 11.9815 1H86.5041C87.4687 1 88.4009 1.3486 89.1288 1.98158L106.964 17.4908C108.36 18.7046 107.502 21 105.652 21H21.8907C21.3238 21 20.7834 20.7594 20.4041 20.3379L9.00828 7.67586Z" stroke="black"/>
<path d="M36.2777 9.09926L36.1207 9.05198L34.0493 9.04252H33.1853C32.5373 9.04252 32.1503 9.04883 32.0241 9.06144C31.893 9.06774 31.8007 9.09296 31.7472 9.13708C31.6494 9.20643 31.6131 9.3136 31.6384 9.45859C31.6397 9.52163 31.6994 9.6288 31.8176 9.7801C32.0491 10.0764 32.3821 10.2876 32.8166 10.4137L32.9929 10.4704L35.0883 10.4799C36.4723 10.4799 37.2025 10.4672 37.2788 10.442C37.4535 10.379 37.5255 10.2561 37.4946 10.0732C37.4786 9.99129 37.4213 9.88727 37.3228 9.76119C37.2194 9.6288 37.1077 9.52163 36.9876 9.43968C36.7784 9.29469 36.5417 9.18121 36.2777 9.09926ZM28.9387 7.539C29.0088 7.52639 30.3319 7.52009 32.9079 7.52009L36.7913 7.52954L36.9528 7.56737C37.1812 7.6241 37.3966 7.71551 37.5991 7.8416C37.74 7.92985 37.8604 8.02757 37.9601 8.13473C38.0598 8.2419 38.3338 8.58233 38.782 9.156L39.24 9.74228C40.0823 10.8203 40.5203 11.4066 40.5542 11.5011C40.63 11.7722 40.4547 11.9266 40.0282 11.9645C39.739 11.9834 39.5676 12.0559 39.5141 12.182C39.4514 12.327 39.4964 12.4972 39.6491 12.6926C39.8018 12.888 40.0203 13.0551 40.3046 13.1938C40.5761 13.3262 40.8487 13.3986 41.1226 13.4113C41.4223 13.4365 41.6592 13.4838 41.8334 13.5531C42.1977 13.6918 42.4784 13.8872 42.6754 14.1394C42.9069 14.4357 42.9113 14.6563 42.6886 14.8013C42.6301 14.8391 42.4969 14.858 42.2889 14.858C42.0969 14.858 41.9446 14.8423 41.832 14.8108C41.4215 14.6847 41.0666 14.4609 40.7674 14.1394C40.3587 13.6981 39.8635 13.4585 39.282 13.4207C38.6844 13.3829 38.1868 13.1402 37.7891 12.6926C37.6992 12.598 37.6063 12.5098 37.5102 12.4278C37.2794 12.245 37.024 12.1126 36.7439 12.0307L36.5436 11.9739H34.1916L34.0919 12.0307C33.9289 12.1189 33.8763 12.2513 33.9342 12.4278C33.9613 12.5035 34.1842 12.8092 34.6029 13.3451C35.0067 13.862 35.2351 14.1646 35.2881 14.2529C35.4322 14.4987 35.407 14.6815 35.2126 14.8013C35.108 14.8517 34.9917 14.877 34.8637 14.877C34.6637 14.877 34.4468 14.8297 34.2129 14.7351C33.9919 14.6469 33.8002 14.5397 33.6377 14.4136L33.4816 14.2907L31.051 11.1796L28.625 8.05909L28.6083 7.94561C28.564 7.72497 28.6741 7.58943 28.9387 7.539ZM39.1078 7.94561C39.0862 7.82583 39.1169 7.72182 39.2 7.63356C39.291 7.5453 39.4285 7.50117 39.6125 7.50117C40.0525 7.50117 40.4723 7.64932 40.8718 7.94561L41.0057 8.04017C41.4323 8.57602 42.0618 9.37664 42.8942 10.442C43.7266 11.5074 44.3561 12.308 44.7827 12.8439L44.9434 12.9574C45.1853 13.1339 45.4358 13.26 45.6949 13.3356L45.9266 13.4018H50.0546L50.1589 13.3356C50.3189 13.2537 50.3828 13.1307 50.3508 12.9668L50.3267 12.8439C49.921 12.3143 49.2995 11.5137 48.4622 10.442C47.6249 9.37034 47.0034 8.56972 46.5977 8.04017L46.581 7.9267C46.5502 7.74388 46.6221 7.62095 46.7969 7.55791C46.8652 7.53269 46.9713 7.52009 47.1153 7.52009C47.4993 7.52009 47.8901 7.66193 48.2878 7.94561L48.4484 8.05909L53.3245 14.3001L53.3485 14.4231C53.3855 14.5933 53.3255 14.7162 53.1686 14.7919L53.0524 14.858H45.1564L44.9246 14.7919C44.6705 14.7225 44.4273 14.6059 44.1953 14.442L44.0346 14.3285L39.1217 8.04017L39.1078 7.94561ZM49.6167 7.9267C49.5662 7.63671 49.7449 7.49172 50.1529 7.49172C50.4809 7.49172 50.8132 7.58943 51.1499 7.78486C51.1678 7.79747 51.1896 7.81007 51.2155 7.82268C51.3546 7.89833 51.5143 8.04648 51.6947 8.26712C51.8831 8.48776 52.4639 9.21589 53.4373 10.4515L55.3184 12.8439L55.4865 12.9668C55.7105 13.1307 55.9561 13.2505 56.2232 13.3262L56.4116 13.3829C57.0885 13.3892 58.0989 13.3923 59.4429 13.3923C60.7949 13.3923 61.8094 13.3955 62.4863 13.4018L62.6747 13.4585C63.135 13.5972 63.4834 13.8179 63.7198 14.1205C63.9119 14.3663 63.94 14.5712 63.804 14.7351C63.801 14.7414 63.7923 14.7509 63.7782 14.7635C63.7407 14.8076 63.6284 14.8328 63.4413 14.8391C63.2672 14.8517 62.7201 14.858 61.8001 14.858H59.6161C56.9712 14.8517 55.5948 14.836 55.4871 14.8108C55.2299 14.7477 54.9763 14.6279 54.7264 14.4514L54.5464 14.3285L49.6334 8.04017L49.6167 7.9267ZM60.4259 7.58628C60.4751 7.56737 61.8117 7.55791 64.4357 7.55791H65.8517C67.2117 7.55791 68.0087 7.56422 68.2425 7.57682C68.4714 7.58313 68.6665 7.6178 68.8278 7.68084C69.2131 7.82583 69.5141 8.03702 69.7308 8.3144C69.9032 8.53504 69.9515 8.71471 69.8759 8.8534C69.8199 8.93535 69.7673 8.98579 69.7181 9.0047L69.6064 9.06144L66.5852 9.08035L63.5686 9.0898L63.4809 9.14654C63.3468 9.2411 63.285 9.35142 63.2955 9.47751C63.3066 9.55315 63.3688 9.66348 63.4821 9.80847C63.5904 9.94716 63.7046 10.0575 63.8247 10.1394C64.0469 10.2907 64.2811 10.4011 64.5272 10.4704L64.7156 10.5271C64.9845 10.5334 65.3749 10.5366 65.8869 10.5366C66.4069 10.5366 66.7974 10.5397 67.0583 10.546L67.2467 10.6028C67.4928 10.6721 67.727 10.7825 67.9492 10.9337C68.0693 11.0157 68.1835 11.126 68.2918 11.2647C68.41 11.416 68.4728 11.5169 68.4802 11.5673C68.5043 11.7312 68.4459 11.851 68.305 11.9266L68.2053 11.9834C67.9542 11.9897 67.5687 11.9928 67.0487 11.9928C66.5367 11.9928 66.1552 11.996 65.9041 12.0023L65.7758 12.0685C65.638 12.1378 65.5796 12.2576 65.6005 12.4278C65.6116 12.5035 65.6689 12.6075 65.7723 12.7399C65.8758 12.8723 65.9875 12.9794 66.1075 13.0614C66.3297 13.2127 66.5639 13.323 66.8101 13.3923L66.9984 13.4491L70.0418 13.4585C72.0627 13.4648 73.1126 13.4774 73.1914 13.4964C73.5711 13.6035 73.8881 13.7737 74.1423 14.007C74.1879 14.0448 74.2427 14.1047 74.3067 14.1867C74.548 14.4956 74.5469 14.7194 74.3032 14.858L74.2202 14.9053L70.2436 14.9148C68.2516 14.9148 67.0811 14.9116 66.7322 14.9053C66.3882 14.9053 66.1703 14.8927 66.0786 14.8675C65.8004 14.7982 65.5389 14.6784 65.2939 14.5082L65.1332 14.3947L60.1981 8.078L60.1814 7.96453C60.1586 7.78171 60.2401 7.65562 60.4259 7.58628ZM70.9912 7.54846C71.0485 7.52954 72.3891 7.52009 75.0131 7.52009L78.9445 7.52954L79.1762 7.59574C79.6156 7.72812 79.9511 7.94246 80.1826 8.23875L80.2343 8.30495C80.4467 8.60754 80.4501 8.82188 80.2446 8.94796L80.1524 9.01416C79.4773 9.02046 78.4638 9.02361 77.1118 9.02361C75.7598 9.02361 74.7502 9.02676 74.0831 9.03307L73.9641 9.08035C73.8435 9.13078 73.7724 9.21904 73.7509 9.34512C73.7325 9.4649 73.7824 9.60044 73.9006 9.75173C73.9696 9.83999 74.0804 9.94086 74.233 10.0543C74.4522 10.2119 74.6938 10.3317 74.9578 10.4137L75.1461 10.4704C75.831 10.4767 76.8495 10.4799 78.2015 10.4799C79.5535 10.4799 80.572 10.483 81.2569 10.4893L81.4452 10.546C81.7172 10.628 81.9579 10.7415 82.1672 10.8865L82.3472 11.0094L83.6253 12.6453C84.4823 13.7422 84.9244 14.3285 84.9515 14.4041C85.0125 14.5744 84.9614 14.7036 84.7984 14.7919L84.6701 14.858L80.7655 14.8675C78.1495 14.8675 76.7941 14.858 76.6993 14.8391C76.2593 14.7572 75.8891 14.5649 75.5887 14.2623C75.561 14.2371 75.525 14.1961 75.4806 14.1394C75.2393 13.8305 75.2469 13.6098 75.5035 13.4774L75.6271 13.4207C76.2862 13.4144 77.2838 13.4113 78.6198 13.4113C79.9558 13.4113 80.9573 13.4081 81.6244 13.4018L81.724 13.3451C81.9855 13.219 81.9932 12.9983 81.7469 12.6831C81.476 12.3364 81.0713 12.1 80.5328 11.9739C80.4909 11.9613 79.4556 11.9519 77.4266 11.9456L74.4072 11.9361L74.2623 11.8888C73.9853 11.8006 73.7462 11.6839 73.5449 11.5389L73.3233 11.3782L70.7671 8.10637L70.7311 7.98344C70.6707 7.76279 70.7574 7.6178 70.9912 7.54846Z" fill="black"/>
<defs>
<filter id="filter0_i_34810_3892" x="7.47266" y="0.5" width="100.684" height="21" filterUnits="userSpaceOnUse" color-interpolation-filters="sRGB">
<feFlood flood-opacity="0" result="BackgroundImageFix"/>
<feBlend mode="normal" in="SourceGraphic" in2="BackgroundImageFix" result="shape"/>
<feColorMatrix in="SourceAlpha" type="matrix" values="0 0 0 0 0 0 0 0 0 0 0 0 0 0 0 0 0 0 127 0" result="hardAlpha"/>
<feOffset dy="4"/>
<feComposite in2="hardAlpha" operator="arithmetic" k2="-1" k3="1"/>
<feColorMatrix type="matrix" values="0 0 0 0 1 0 0 0 0 1 0 0 0 0 1 0 0 0 0.5 0"/>
<feBlend mode="normal" in2="shape" result="effect1_innerShadow_34810_3892"/>
</filter>
</defs>
</svg>
