<svg width="202" height="87" viewBox="0 0 202 87" fill="none" xmlns="http://www.w3.org/2000/svg">
<path d="M101 29.3477C128.857 29.3477 154.059 32.5708 172.28 37.7715C181.394 40.3728 188.734 43.4618 193.783 46.8691C198.85 50.2883 201.5 53.9495 201.5 57.6758C201.5 61.4018 198.85 65.0625 193.783 68.4814C188.734 71.8888 181.394 74.9777 172.28 77.5791C154.059 82.7798 128.857 86.0029 101 86.0029C73.1427 86.0029 47.9411 82.7798 29.7197 77.5791C20.6056 74.9777 13.2661 71.8888 8.2168 68.4814C3.15029 65.0625 0.500231 61.4018 0.5 57.6758C0.5 53.9495 3.15007 50.2883 8.2168 46.8691C13.2661 43.4618 20.6056 40.3728 29.7197 37.7715C47.9411 32.5708 73.1427 29.3477 101 29.3477Z" fill="#A6A6DB" stroke="black"/>
<ellipse cx="101.002" cy="51.7396" rx="85.6582" ry="24.5883" fill="black"/>
<path d="M170.812 20.7998V49.127C170.812 51.5587 169.03 53.9934 165.513 56.2998C162.016 58.5927 156.922 60.6767 150.584 62.4346C137.914 65.9484 120.382 68.1289 100.996 68.1289C81.6106 68.1289 64.0783 65.9484 51.4082 62.4346C45.0698 60.6767 39.9764 58.5927 36.4795 56.2998C32.9621 53.9934 31.1797 51.5586 31.1797 49.127V20.7998H170.812Z" fill="#476E0E" stroke="black"/>
<g filter="url(#filter0_i_202_1725)">
<path d="M170.875 22.4104C170.875 33.1805 139.393 41.9114 100.559 41.9114C61.7239 41.9114 30.2422 33.1805 30.2422 22.4104C30.2422 11.6403 38.5523 0.624023 100.559 0.624023C155.533 0.624023 170.875 11.6403 170.875 22.4104Z" fill="#BFFF60"/>
</g>
<path d="M100.559 1.12402C128.025 1.12402 145.532 3.87783 156.153 7.94531C166.775 12.013 170.375 17.3281 170.375 22.4102C170.375 24.8419 168.593 27.2766 165.075 29.583C161.578 31.8759 156.485 33.9599 150.146 35.7178C137.476 39.2316 119.944 41.4111 100.559 41.4111C81.1731 41.4111 63.6408 39.2316 50.9707 35.7178C44.6323 33.9599 39.5389 31.8759 36.042 29.583C32.5245 27.2766 30.7422 24.8419 30.7422 22.4102C30.7422 19.7851 31.2476 17.1851 32.9219 14.7451C34.5995 12.3004 37.4859 9.9649 42.3408 7.93945C52.0713 3.88008 69.5644 1.12403 100.559 1.12402Z" stroke="black"/>
<defs>
<filter id="filter0_i_202_1725" x="30.2422" y="0.624023" width="140.633" height="41.2871" filterUnits="userSpaceOnUse" color-interpolation-filters="sRGB">
<feFlood flood-opacity="0" result="BackgroundImageFix"/>
<feBlend mode="normal" in="SourceGraphic" in2="BackgroundImageFix" result="shape"/>
<feColorMatrix in="SourceAlpha" type="matrix" values="0 0 0 0 0 0 0 0 0 0 0 0 0 0 0 0 0 0 127 0" result="hardAlpha"/>
<feOffset dy="7"/>
<feComposite in2="hardAlpha" operator="arithmetic" k2="-1" k3="1"/>
<feColorMatrix type="matrix" values="0 0 0 0 1 0 0 0 0 1 0 0 0 0 1 0 0 0 0.5 0"/>
<feBlend mode="normal" in2="shape" result="effect1_innerShadow_202_1725"/>
</filter>
</defs>
</svg>
