<svg width="202" height="66" viewBox="0 0 202 66" fill="none" xmlns="http://www.w3.org/2000/svg">
<path d="M101 8.72363C128.857 8.72363 154.059 11.9467 172.28 17.1475C181.394 19.7488 188.734 22.8378 193.783 26.2451C198.85 29.6643 201.5 33.3255 201.5 37.0518C201.5 40.7778 198.85 44.4384 193.783 47.8574C188.734 51.2647 181.394 54.3537 172.28 56.9551C154.059 62.1558 128.857 65.3789 101 65.3789C73.1427 65.3789 47.9411 62.1558 29.7197 56.9551C20.6056 54.3537 13.2661 51.2647 8.2168 47.8574C3.15029 44.4384 0.500231 40.7778 0.5 37.0518C0.5 33.3255 3.15007 29.6643 8.2168 26.2451C13.2661 22.8378 20.6056 19.7488 29.7197 17.1475C47.9411 11.9467 73.1427 8.72363 101 8.72363Z" fill="#A6A6DB" stroke="black"/>
<ellipse cx="101.002" cy="31.1156" rx="85.6582" ry="24.5883" fill="black"/>
<path d="M170.812 20.1758V28.5029C170.812 30.9346 169.03 33.3694 165.513 35.6758C162.016 37.9687 156.922 40.0527 150.584 41.8105C137.914 45.3244 120.382 47.5049 100.996 47.5049C81.6106 47.5049 64.0783 45.3244 51.4082 41.8105C45.0698 40.0527 39.9764 37.9687 36.4795 35.6758C32.9621 33.3694 31.1797 30.9346 31.1797 28.5029V20.1758H170.812Z" fill="#476E0E" stroke="black"/>
<g filter="url(#filter0_i_203_1733)">
<path d="M170.875 21.7864C170.875 32.5565 139.393 41.2874 100.559 41.2874C61.7239 41.2874 30.2422 32.5565 30.2422 21.7864C30.2422 11.0162 38.5523 0 100.559 0C155.533 0 170.875 11.0162 170.875 21.7864Z" fill="#BFFF60"/>
</g>
<path d="M100.559 0.5C128.025 0.5 145.532 3.25381 156.153 7.32129C166.775 11.389 170.375 16.7041 170.375 21.7861C170.375 24.2179 168.593 26.6526 165.075 28.959C161.578 31.2519 156.485 33.3359 150.146 35.0938C137.476 38.6076 119.944 40.7871 100.559 40.7871C81.1731 40.7871 63.6408 38.6076 50.9707 35.0938C44.6323 33.3359 39.5389 31.2519 36.042 28.959C32.5245 26.6526 30.7422 24.2179 30.7422 21.7861C30.7422 19.1611 31.2476 16.5611 32.9219 14.1211C34.5995 11.6764 37.4859 9.34087 42.3408 7.31543C52.0713 3.25605 69.5644 0.500003 100.559 0.5Z" stroke="black"/>
<defs>
<filter id="filter0_i_203_1733" x="30.2422" y="0" width="140.633" height="41.2871" filterUnits="userSpaceOnUse" color-interpolation-filters="sRGB">
<feFlood flood-opacity="0" result="BackgroundImageFix"/>
<feBlend mode="normal" in="SourceGraphic" in2="BackgroundImageFix" result="shape"/>
<feColorMatrix in="SourceAlpha" type="matrix" values="0 0 0 0 0 0 0 0 0 0 0 0 0 0 0 0 0 0 127 0" result="hardAlpha"/>
<feOffset dy="7"/>
<feComposite in2="hardAlpha" operator="arithmetic" k2="-1" k3="1"/>
<feColorMatrix type="matrix" values="0 0 0 0 1 0 0 0 0 1 0 0 0 0 1 0 0 0 0.5 0"/>
<feBlend mode="normal" in2="shape" result="effect1_innerShadow_203_1733"/>
</filter>
</defs>
</svg>
