<svg width="82" height="118" viewBox="0 0 82 118" fill="none" xmlns="http://www.w3.org/2000/svg">
<rect x="1" y="1" width="77" height="116" rx="6" fill="#31305A" stroke="#26274B" stroke-linecap="round"/>
<rect x="23" y="13" width="35" height="92" rx="6" fill="black" stroke="#26274B" stroke-linecap="round"/>
<rect x="23" y="13" width="35" height="92" rx="6" fill="black" stroke="#26274B" stroke-linecap="round"/>
<mask id="mask0_191_2644" style="mask-type:alpha" maskUnits="userSpaceOnUse" x="24" y="14" width="58" height="91">
<rect x="24" y="14" width="58" height="91" fill="#D9D9D9"/>
</mask>
<g mask="url(#mask0_191_2644)">
<path d="M46.5 98C55.6127 98 63 80.763 63 59.5C63 38.237 55.6127 21 46.5 21H30V98H46.5Z" fill="#836EF9" stroke="black" stroke-width="2"/>
<rect x="35" y="25" width="17" height="4" rx="2" fill="black"/>
<rect x="40" y="36" width="17" height="4" rx="2" fill="black"/>
<rect x="43" y="49" width="17" height="4" rx="2" fill="black"/>
<rect x="43" y="62" width="17" height="4" rx="2" fill="black"/>
<rect x="41" y="75" width="17" height="4" rx="2" fill="black"/>
<rect x="36" y="88" width="17" height="4" rx="2" fill="black"/>
<ellipse cx="29.5" cy="59.5" rx="16.5" ry="38.5" fill="#836EF9" stroke="black" stroke-width="2"/>
</g>
</svg>
