<svg width="56" height="56" viewBox="0 0 56 56" fill="none" xmlns="http://www.w3.org/2000/svg">
<rect width="56" height="56" rx="10" fill="black"/>
<path d="M34.95 33.0213L36.7973 31.1401C37.8792 30.0371 38.9578 28.9307 40.0472 27.8351C40.2119 27.6669 40.1995 27.5867 40.0375 27.4241C38.4628 25.8476 36.8945 24.2639 35.3326 22.6729C35.2297 22.5778 35.1375 22.4717 35.0578 22.3567C34.9342 22.1582 35.0211 22.009 35.257 22.0079C36.0562 22.0051 36.8548 22.0073 37.654 22.0056C37.9075 22.0051 38.1022 22.1228 38.2715 22.2989C39.4488 23.5325 40.6296 24.76 41.8002 25.9998C41.9357 26.1428 42.0079 26.1472 42.1456 26.0104C43.4076 24.7574 44.6734 23.5064 45.9429 22.2574C46.0198 22.1754 46.1129 22.1101 46.2165 22.0658C46.3201 22.0215 46.4318 21.9991 46.5446 22C47.2783 22.0051 48.0121 22.004 48.7458 22.0084C48.8445 22.0084 48.9676 21.9782 49.0173 22.101C49.0426 22.1623 49.0486 22.2299 49.0346 22.2947C49.0206 22.3595 48.9872 22.4187 48.9388 22.4643C48.7633 22.6466 48.5793 22.8204 48.3987 22.9976C45.2568 26.0813 42.1168 29.1669 38.9787 32.2542C38.6141 32.6148 38.2337 32.8318 37.7224 32.8952C36.8255 33.0057 35.9298 33.0769 34.95 33.0213Z" fill="white"/>
<path d="M11.2759 22.0561C12.5639 22.0561 13.8525 22.0421 15.1405 22.0617C15.8776 22.0729 16.6023 22.1952 17.2541 22.5703C18.2035 23.1165 18.6387 23.9895 18.7781 25.0269C18.9011 25.9561 18.8311 26.893 18.8508 27.8267C18.8537 27.9427 18.8131 27.9837 18.6962 28.0039C18.0007 28.1155 17.3171 28.2918 16.6547 28.5304C16.5097 28.5865 16.4786 28.5382 16.4798 28.3986C16.4837 27.8009 16.4798 27.2026 16.4798 26.6043C16.4798 26.4736 16.4798 26.343 16.477 26.2118C16.4527 25.042 15.8561 24.4286 14.6742 24.4174C12.8405 24.4006 11.0056 24.4095 9.17353 24.4079C8.52446 24.4079 7.87539 24.4017 7.22689 24.4118C7.04853 24.4157 7.00338 24.3624 7.00677 24.192C7.01693 23.5662 7.02031 22.9404 7.0062 22.3146C7.00338 22.1055 7.05982 22.046 7.27035 22.0477C8.60573 22.0561 9.9383 22.0522 11.2759 22.0522V22.0561Z" fill="white"/>
<path d="M27.233 24.3954C25.3535 24.3954 23.4741 24.3921 21.5946 24.4005C21.3688 24.4005 21.2836 24.3612 21.2915 24.1151C21.3112 23.5089 21.3033 22.9016 21.2972 22.2949C21.2972 22.1267 21.318 22.0499 21.5229 22.0499C25.3191 22.0566 29.1153 22.0566 32.9115 22.0499C33.1108 22.0499 33.1373 22.1211 33.1373 22.2915C33.1288 22.9084 33.1243 23.5252 33.1401 24.142C33.1458 24.3567 33.0808 24.4027 32.8732 24.4022C30.9909 24.3915 29.1125 24.3949 27.233 24.3954Z" fill="white"/>
<path d="M27.2227 26.7914C29.1022 26.7914 30.9822 26.7953 32.8617 26.7869C33.0762 26.7869 33.1478 26.8312 33.1439 27.0572C33.1264 27.6634 33.1304 28.2706 33.1405 28.8773C33.1405 29.0545 33.1044 29.1162 32.9148 29.1157C30.612 29.107 28.3094 29.1046 26.007 29.1084C25.8944 29.11 25.7829 29.0864 25.6807 29.0394C24.3695 28.4279 22.9634 28.0418 21.5222 27.8977C21.3281 27.8787 21.2863 27.8075 21.3015 27.6409C21.3263 27.365 21.1824 26.9961 21.3631 26.8391C21.5199 26.7022 21.8817 26.7925 22.1532 26.7925C23.8415 26.791 25.5314 26.7907 27.2227 26.7914Z" fill="white"/>
<path d="M18.5738 28.1639C17.9216 28.2951 17.2782 28.4666 16.6475 28.6775C16.5227 28.719 16.4736 28.7846 16.4781 28.9198C16.4849 29.2745 16.4828 29.6296 16.4719 29.9851C16.4488 30.741 16.0768 31.2636 15.3995 31.502C15.2505 31.5541 15.0948 31.5866 14.9419 31.6281C14.7545 31.6281 14.5676 31.6321 14.3774 31.6326L11.228 31.6432C11.0587 31.6399 10.8894 31.6337 10.7201 31.6332C9.56528 31.6332 8.41088 31.6332 7.25685 31.6332C7.12196 31.6332 6.99722 31.613 7.00005 31.8216C7.01021 32.4833 7.00682 33.1455 7.00456 33.8072C7.00738 33.944 7.05987 34 7.20718 34C8.79279 33.9922 10.3786 33.9879 11.9646 33.9872H13.9964C14.6252 33.9928 15.2534 34.0168 15.8816 33.949C16.6496 33.8659 17.3634 33.5161 17.8973 32.9612C18.4311 32.4063 18.7507 31.682 18.7995 30.916C18.856 30.0855 18.8283 29.255 18.856 28.4252C18.865 28.2014 18.8063 28.1173 18.5738 28.1639Z" fill="url(#paint0_linear_32005_812)"/>
<path d="M49.19 33.4135C48.7717 32.9884 48.3597 32.5572 47.9443 32.1294C47.1711 31.3326 46.3944 30.5391 45.6252 29.7384C45.4654 29.5701 45.3514 29.5354 45.1703 29.726C44.7718 30.1466 44.357 30.5531 43.9286 30.9462C43.7423 31.1178 43.7304 31.221 43.9178 31.4055C44.4822 31.9662 45.0106 32.5595 45.5834 33.109C46.4763 33.9658 46.0676 33.9316 47.4674 33.9238C47.5989 33.9238 47.7304 33.9238 47.8625 33.9238C48.2288 33.9238 48.5962 33.9238 48.9619 33.9238C49.0929 33.9238 49.2413 33.9389 49.3006 33.7903C49.3599 33.6417 49.2978 33.5228 49.19 33.4135Z" fill="url(#paint1_linear_32005_812)"/>
<path d="M32.9245 32.8264C32.1648 32.6116 31.4277 32.3246 30.7233 31.9696C30.4975 31.8574 30.2983 31.6573 30.046 31.6534C29.1909 31.6388 28.3352 31.6534 27.4802 31.6595C27.1523 31.6545 26.8249 31.645 26.497 31.6455C24.8331 31.6485 23.1694 31.6526 21.5059 31.6578C21.3406 31.6118 21.3168 31.7049 21.3174 31.8378C21.3174 32.4877 21.3214 33.1382 21.3174 33.7887C21.3174 33.9232 21.3473 33.9956 21.5037 33.9888C21.8209 33.9765 22.1386 33.9776 22.4558 33.9737H26.2498C26.3531 33.9776 26.4563 33.9854 26.5591 33.9854H32.5418C33.1355 33.9854 33.135 33.9854 33.1445 33.4107C33.1438 33.3356 33.1491 33.2606 33.1603 33.1864C33.1976 32.9907 33.1355 32.8842 32.9245 32.8264ZM23.4424 33.5419H23.4509V33.5464L23.4424 33.5419Z" fill="url(#paint2_linear_32005_812)"/>
<path d="M21.4856 29.1804C22.8272 29.1771 24.1688 29.1804 25.5104 29.1804C25.0335 28.8721 24.5131 28.6982 23.9893 28.5328C23.196 28.2764 22.3756 28.1115 21.5443 28.0416C21.3422 28.0253 21.2773 28.0898 21.2892 28.2861C21.3027 28.5182 21.2977 28.7526 21.2892 28.9853C21.283 29.1283 21.3394 29.1804 21.4856 29.1804Z" fill="url(#paint3_linear_32005_812)"/>
<path d="M35.2605 33.2004C34.9546 33.1847 34.7655 33.294 34.5911 33.5083C34.5087 33.6091 34.4449 33.7078 34.4895 33.8374C34.5397 33.9815 34.669 33.9826 34.7937 33.9826C35.5275 33.9826 36.2612 33.9826 36.9949 33.9826C37.1276 33.9919 37.2598 33.9591 37.3725 33.8889C37.7197 33.6366 37.9933 33.3064 38.3602 32.966C38.2327 32.9704 38.1055 32.9821 37.9792 33.0007C37.0818 33.2043 36.172 33.2475 35.2605 33.2004Z" fill="url(#paint4_linear_32005_812)"/>
<path d="M30.3643 31.569C31.2368 31.569 32.11 31.569 32.9831 31.5662C33.1123 31.5662 33.1417 31.6111 33.1378 31.7277C33.1304 31.9323 33.1378 32.1381 33.1378 32.3445C33.1378 32.7325 33.1349 32.737 32.7523 32.6209C31.9192 32.3607 31.1183 32.031 30.3643 31.569Z" fill="white"/>
<defs>
<linearGradient id="paint0_linear_32005_812" x1="7" y1="31.0196" x2="49.3236" y2="31.0196" gradientUnits="userSpaceOnUse">
<stop stop-color="#394DEE"/>
<stop offset="1" stop-color="#01AFA5"/>
</linearGradient>
<linearGradient id="paint1_linear_32005_812" x1="6.9999" y1="31.0196" x2="49.3235" y2="31.0196" gradientUnits="userSpaceOnUse">
<stop stop-color="#394DEE"/>
<stop offset="1" stop-color="#01AFA5"/>
</linearGradient>
<linearGradient id="paint2_linear_32005_812" x1="7.00008" y1="31.0196" x2="49.3237" y2="31.0196" gradientUnits="userSpaceOnUse">
<stop stop-color="#394DEE"/>
<stop offset="1" stop-color="#01AFA5"/>
</linearGradient>
<linearGradient id="paint3_linear_32005_812" x1="7.00007" y1="31.0196" x2="49.3237" y2="31.0196" gradientUnits="userSpaceOnUse">
<stop stop-color="#394DEE"/>
<stop offset="1" stop-color="#01AFA5"/>
</linearGradient>
<linearGradient id="paint4_linear_32005_812" x1="7.00001" y1="31.0196" x2="49.3236" y2="31.0196" gradientUnits="userSpaceOnUse">
<stop stop-color="#394DEE"/>
<stop offset="1" stop-color="#01AFA5"/>
</linearGradient>
</defs>
</svg>
