<svg width="64" height="64" viewBox="0 0 64 64" fill="none" xmlns="http://www.w3.org/2000/svg">
<rect width="63.9104" height="63.9104" rx="10" fill="black"/>
<g clip-path="url(#clip0_31843_1899)">
<path d="M11.2473 29.8742L25.0494 10L32.0247 20.0854L24.9505 30.1214H11.3957C11.3463 30.1214 11.3463 30.1213 11.2968 30.0719C11.2473 30.0719 11.2473 30.0225 11.2473 30.0225C11.2473 29.973 11.2473 29.973 11.2473 29.9236C11.1979 29.9236 11.2473 29.9236 11.2473 29.8742Z" fill="#7F4AFE"/>
<path d="M52.7527 29.8742L38.9506 10L32.0248 20.0854L39.0495 30.1708H52.6043C52.6538 30.1708 52.6538 30.1708 52.7032 30.1213C52.7527 30.1213 52.7527 30.0719 52.7527 30.0719C52.7527 30.0225 52.7527 30.0225 52.7527 29.973C52.8022 29.9236 52.7527 29.9236 52.7527 29.8742Z" fill="#7F4AFE"/>
<path d="M53.0001 32.7416C53.0495 35.5101 52.5054 38.2787 51.4665 40.8494C50.4276 43.4202 48.894 45.7933 46.9152 47.7708C44.9364 49.7483 42.6114 51.3303 40.0884 52.3685C37.5654 53.4067 34.7951 54 31.9753 54C29.205 54 26.4347 53.4562 23.8622 52.3685C21.2898 51.2809 18.9647 49.7483 17.0354 47.7708C15.1061 45.7933 13.523 43.4697 12.4841 40.8494C11.4948 38.2787 10.9506 35.5101 11.0001 32.7416H24.3569C24.3569 33.7798 24.5054 34.7685 24.9011 35.7079C25.2969 36.6472 25.841 37.5371 26.5336 38.2292C27.2262 38.9708 28.1167 39.5146 29.0566 39.9101C29.9965 40.3056 30.9859 40.5034 32.0248 40.5034C33.0637 40.5034 34.0531 40.3056 34.993 39.9101C35.9329 39.5146 36.7739 38.9214 37.516 38.2292C38.2085 37.4876 38.8022 36.6472 39.1485 35.7079C39.5442 34.7685 39.6926 33.7303 39.6926 32.7416H53.0001Z" fill="#0166FF"/>
</g>
<defs>
<clipPath id="clip0_31843_1899">
<rect width="42" height="44" fill="white" transform="translate(11 10)"/>
</clipPath>
</defs>
</svg>
