<svg xmlns="http://www.w3.org/2000/svg" width="33" height="32" viewBox="0 0 33 32" fill="none">
<rect x="0.979004" y="0.508484" width="31.3054" height="31.3054" rx="10" fill="black"/>
<path fill-rule="evenodd" clip-rule="evenodd" d="M10.4043 16.1659L15.2476 12.9669V12.9725C15.5226 12.7873 15.691 12.4786 15.691 12.1475V7.13018C15.691 6.92252 15.4609 6.80467 15.2925 6.92252L6.64409 12.9613C6.41961 13.1184 6.28491 13.371 6.28491 13.646V19.0898C6.28491 19.3648 6.41961 19.6174 6.64409 19.7745L15.2925 25.8077C15.4609 25.9255 15.691 25.8021 15.691 25.6V20.5322C15.691 20.2347 15.5395 19.9541 15.2925 19.7914L10.4043 16.5643C10.264 16.4689 10.264 16.2613 10.4043 16.1659ZM26.8818 19.0898V13.646C26.8818 13.371 26.7471 13.1184 26.5227 12.9613L17.8686 6.92251C17.7002 6.80466 17.4701 6.92813 17.4701 7.13017V12.1475C17.4701 12.4786 17.6385 12.7873 17.9135 12.9725L22.7568 16.1715C22.8972 16.2669 22.8972 16.4745 22.7568 16.5699L17.8686 19.797C17.6217 19.9597 17.4701 20.2403 17.4701 20.5378V25.6056C17.4701 25.8133 17.7002 25.9311 17.8686 25.8133L26.5227 19.7745C26.7471 19.6174 26.8818 19.3648 26.8818 19.0898Z" fill="#FAF0F0"/>
</svg>