<svg width="21" height="6" viewBox="0 0 21 6" fill="none" xmlns="http://www.w3.org/2000/svg">
<g clip-path="url(#clip0_35795_559)">
<path d="M-26.2705 0.5L-26.0156 0.512695C-24.7548 0.640527 -23.7705 1.70544 -23.7705 3C-23.7705 4.29456 -24.7548 5.35947 -26.0156 5.4873L-26.2705 5.5H-31.5C-32.8807 5.5 -34 4.38071 -34 3C-34 1.61929 -32.8807 0.5 -31.5 0.5H-26.2705ZM-5.35449 0.5L-5.09863 0.512695C-3.83795 0.640676 -2.85449 1.70555 -2.85449 3C-2.85449 4.29445 -3.83795 5.35932 -5.09863 5.4873L-5.35449 5.5H-15.8125C-17.1932 5.5 -18.3125 4.38071 -18.3125 3C-18.3125 1.61929 -17.1932 0.5 -15.8125 0.5H-5.35449ZM15.5625 0.5L15.8184 0.512695C17.0789 0.640826 18.0625 1.70566 18.0625 3C18.0625 4.29434 17.0789 5.35917 15.8184 5.4873L15.5625 5.5H5.10449C3.72378 5.5 2.60449 4.38071 2.60449 3C2.60449 1.61929 3.72378 0.5 5.10449 0.5H15.5625ZM36.4795 0.5L36.7344 0.512695C37.9952 0.640529 38.9795 1.70544 38.9795 3C38.9795 4.29456 37.9952 5.35947 36.7344 5.4873L36.4795 5.5H26.0205C24.6399 5.49983 23.5205 4.38061 23.5205 3C23.5205 1.61939 24.6399 0.500173 26.0205 0.5H36.4795ZM57.3955 0.5L57.6514 0.512695C58.9121 0.640673 59.8955 1.70555 59.8955 3C59.8955 4.29445 58.9121 5.35933 57.6514 5.4873L57.3955 5.5H46.9375C45.5568 5.5 44.4375 4.38071 44.4375 3C44.4375 1.61929 45.5568 0.5 46.9375 0.5H57.3955ZM78.3125 0.5L78.5684 0.512695C79.8289 0.640821 80.8125 1.70566 80.8125 3C80.8125 4.29434 79.8289 5.35918 78.5684 5.4873L78.3125 5.5H67.8545C66.4738 5.5 65.3545 4.38071 65.3545 3C65.3545 1.61929 66.4738 0.5 67.8545 0.5H78.3125ZM94 0.5C95.3807 0.5 96.5 1.61929 96.5 3C96.5 4.38071 95.3807 5.5 94 5.5H88.7705C87.39 5.49982 86.2705 4.3806 86.2705 3C86.2705 1.6194 87.39 0.500183 88.7705 0.5H94Z" fill="#31305A"/>
</g>
<defs>
<clipPath id="clip0_35795_559">
<rect width="21" height="6" fill="white"/>
</clipPath>
</defs>
</svg>
