<svg width="424" height="309" viewBox="0 0 424 309" fill="none" xmlns="http://www.w3.org/2000/svg">
  <g filter="url(#filter0_i_35482_8031)">
  <rect x="1" y="1" width="422" height="307" rx="6" fill="black"/>
  </g>
  <rect x="1" y="1" width="422" height="307" rx="6" stroke="#55648A"/>
  <path opacity="0.2" d="M22.5 37H57V2H57.5V37H92V2H92.5V37H127V2H127.5V37H162V2H162.5V37H197V2H197.5V37H232V2H232.5V37H267V2H267.5V37H302V2H302.5V37H337V2H337.5V37H372V2H372.5V37H407V2H407.5V37H423V37.5H407.5V72H423V72.5H407.5V107H423V107.5H407.5V142H423V142.5H407.5V177H423V177.5H407.5V212H423V212.5H407.5V247H423V247.5H407.5V282H423V282.5H407.5V308H407V282.5H372.5V308H372V282.5H337.5V308H337V282.5H302.5V308H302V282.5H267.5V308H267V282.5H232.5V308H232V282.5H197.5V308H197V282.5H162.5V308H162V282.5H127.5V308H127V282.5H92.5V308H92V282.5H57.5V308H57V282.5H22.5V308H22V282.5H1V282H22V247.5H1V247H22V212.5H1V212H22V177.5H1V177H22V142.5H1V142H22V107.5H1V107H22V72.5H1V72H22V37.5H1V37H22V2H22.5V37ZM22.5 282H57V247.5H22.5V282ZM57.5 282H92V247.5H57.5V282ZM92.5 282H127V247.5H92.5V282ZM127.5 282H162V247.5H127.5V282ZM162.5 282H197V247.5H162.5V282ZM197.5 282H232V247.5H197.5V282ZM232.5 282H267V247.5H232.5V282ZM267.5 282H302V247.5H267.5V282ZM302.5 282H337V247.5H302.5V282ZM337.5 282H372V247.5H337.5V282ZM372.5 282H407V247.5H372.5V282ZM22.5 247H57V212.5H22.5V247ZM57.5 247H92V212.5H57.5V247ZM92.5 247H127V212.5H92.5V247ZM127.5 247H162V212.5H127.5V247ZM162.5 247H197V212.5H162.5V247ZM197.5 247H232V212.5H197.5V247ZM232.5 247H267V212.5H232.5V247ZM267.5 247H302V212.5H267.5V247ZM302.5 247H337V212.5H302.5V247ZM337.5 247H372V212.5H337.5V247ZM372.5 247H407V212.5H372.5V247ZM22.5 212H57V177.5H22.5V212ZM57.5 212H92V177.5H57.5V212ZM92.5 212H127V177.5H92.5V212ZM127.5 212H162V177.5H127.5V212ZM162.5 212H197V177.5H162.5V212ZM197.5 212H232V177.5H197.5V212ZM232.5 212H267V177.5H232.5V212ZM267.5 212H302V177.5H267.5V212ZM302.5 212H337V177.5H302.5V212ZM337.5 212H372V177.5H337.5V212ZM372.5 212H407V177.5H372.5V212ZM22.5 177H57V142.5H22.5V177ZM57.5 177H92V142.5H57.5V177ZM92.5 177H127V142.5H92.5V177ZM127.5 177H162V142.5H127.5V177ZM162.5 177H197V142.5H162.5V177ZM197.5 177H232V142.5H197.5V177ZM232.5 177H267V142.5H232.5V177ZM267.5 177H302V142.5H267.5V177ZM302.5 177H337V142.5H302.5V177ZM337.5 177H372V142.5H337.5V177ZM372.5 177H407V142.5H372.5V177ZM22.5 142H57V107.5H22.5V142ZM57.5 142H92V107.5H57.5V142ZM92.5 142H127V107.5H92.5V142ZM127.5 142H162V107.5H127.5V142ZM162.5 142H197V107.5H162.5V142ZM197.5 142H232V107.5H197.5V142ZM232.5 142H267V107.5H232.5V142ZM267.5 142H302V107.5H267.5V142ZM302.5 142H337V107.5H302.5V142ZM337.5 142H372V107.5H337.5V142ZM372.5 142H407V107.5H372.5V142ZM22.5 107H57V72.5H22.5V107ZM57.5 107H92V72.5H57.5V107ZM92.5 107H127V72.5H92.5V107ZM127.5 107H162V72.5H127.5V107ZM162.5 107H197V72.5H162.5V107ZM197.5 107H232V72.5H197.5V107ZM232.5 107H267V72.5H232.5V107ZM267.5 107H302V72.5H267.5V107ZM302.5 107H337V72.5H302.5V107ZM337.5 107H372V72.5H337.5V107ZM372.5 107H407V72.5H372.5V107ZM22.5 72H57V37.5H22.5V72ZM57.5 72H92V37.5H57.5V72ZM92.5 72H127V37.5H92.5V72ZM127.5 72H162V37.5H127.5V72ZM162.5 72H197V37.5H162.5V72ZM197.5 72H232V37.5H197.5V72ZM232.5 72H267V37.5H232.5V72ZM267.5 72H302V37.5H267.5V72ZM302.5 72H337V37.5H302.5V72ZM337.5 72H372V37.5H337.5V72ZM372.5 72H407V37.5H372.5V72Z" fill="#78FEFF"/>
  <defs>
  <filter id="filter0_i_35482_8031" x="0.5" y="0.5" width="423" height="308" filterUnits="userSpaceOnUse" color-interpolation-filters="sRGB">
  <feFlood flood-opacity="0" result="BackgroundImageFix"/>
  <feBlend mode="normal" in="SourceGraphic" in2="BackgroundImageFix" result="shape"/>
  <feColorMatrix in="SourceAlpha" type="matrix" values="0 0 0 0 0 0 0 0 0 0 0 0 0 0 0 0 0 0 127 0" result="hardAlpha"/>
  <feOffset dx="3" dy="3"/>
  <feComposite in2="hardAlpha" operator="arithmetic" k2="-1" k3="1"/>
  <feColorMatrix type="matrix" values="0 0 0 0 0.171432 0 0 0 0 0.210168 0 0 0 0 0.209307 0 0 0 1 0"/>
  <feBlend mode="normal" in2="shape" result="effect1_innerShadow_35482_8031"/>
  </filter>
  </defs>
  </svg>
  