<svg width="360" height="213" viewBox="0 0 360 213" fill="none" xmlns="http://www.w3.org/2000/svg">
<path opacity="0.2" d="M18.6328 30.8398H48.1328V0.855469H48.6328V30.8398H78.1328V0.855469H78.6328V30.8398H107.133V0.855469H107.633V30.8398H137.133V0.855469H137.633V30.8398H167.133V0.855469H167.633V30.8398H197.133V0.855469H197.633V30.8398H227.133V0.855469H227.633V30.8398H257.133V0.855469H257.633V30.8398H287.133V0.855469H287.633V30.8398H316.133V0.855469H316.633V30.8398H346.133V0.855469H346.633V30.8398H360V31.3398H346.633V60.8223H360V61.3223H346.633V90.8066H360V91.3066H346.633V120.791H360V121.291H346.633V150.773H360V151.273H346.633V180.758H360V181.258H346.633V210.742H360V211.242H346.633V212.855H346.133V211.242H316.633V212.855H316.133V211.242H287.633V212.855H287.133V211.242H257.633V212.855H257.133V211.242H227.633V212.855H227.133V211.242H197.633V212.855H197.133V211.242H167.633V212.855H167.133V211.242H137.633V212.855H137.133V211.242H107.633V212.855H107.133V211.242H78.6328V212.855H78.1328V211.242H48.6328V212.855H48.1328V211.242H18.6328V212.855H18.1328V211.242H0V210.742H18.1328V181.258H0V180.758H18.1328V151.273H0V150.773H18.1328V121.291H0V120.791H18.1328V91.3066H0V90.8066H18.1328V61.3223H0V60.8223H18.1328V31.3398H0V30.8398H18.1328V0.855469H18.6328V30.8398ZM18.6328 210.742H48.1328V181.258H18.6328V210.742ZM48.6328 210.742H78.1328V181.258H48.6328V210.742ZM78.6328 210.742H107.133V181.258H78.6328V210.742ZM107.633 210.742H137.133V181.258H107.633V210.742ZM137.633 210.742H167.133V181.258H137.633V210.742ZM167.633 210.742H197.133V181.258H167.633V210.742ZM197.633 210.742H227.133V181.258H197.633V210.742ZM227.633 210.742H257.133V181.258H227.633V210.742ZM257.633 210.742H287.133V181.258H257.633V210.742ZM287.633 210.742H316.133V181.258H287.633V210.742ZM316.633 210.742H346.133V181.258H316.633V210.742ZM18.6328 180.758H48.1328V151.273H18.6328V180.758ZM48.6328 180.758H78.1328V151.273H48.6328V180.758ZM78.6328 180.758H107.133V151.273H78.6328V180.758ZM107.633 180.758H137.133V151.273H107.633V180.758ZM137.633 180.758H167.133V151.273H137.633V180.758ZM167.633 180.758H197.133V151.273H167.633V180.758ZM197.633 180.758H227.133V151.273H197.633V180.758ZM227.633 180.758H257.133V151.273H227.633V180.758ZM257.633 180.758H287.133V151.273H257.633V180.758ZM287.633 180.758H316.133V151.273H287.633V180.758ZM316.633 180.758H346.133V151.273H316.633V180.758ZM18.6328 150.773H48.1328V121.291H18.6328V150.773ZM48.6328 150.773H78.1328V121.291H48.6328V150.773ZM78.6328 150.773H107.133V121.291H78.6328V150.773ZM107.633 150.773H137.133V121.291H107.633V150.773ZM137.633 150.773H167.133V121.291H137.633V150.773ZM167.633 150.773H197.133V121.291H167.633V150.773ZM197.633 150.773H227.133V121.291H197.633V150.773ZM227.633 150.773H257.133V121.291H227.633V150.773ZM257.633 150.773H287.133V121.291H257.633V150.773ZM287.633 150.773H316.133V121.291H287.633V150.773ZM316.633 150.773H346.133V121.291H316.633V150.773ZM18.6328 120.791H48.1328V91.3066H18.6328V120.791ZM48.6328 120.791H78.1328V91.3066H48.6328V120.791ZM78.6328 120.791H107.133V91.3066H78.6328V120.791ZM107.633 120.791H137.133V91.3066H107.633V120.791ZM137.633 120.791H167.133V91.3066H137.633V120.791ZM167.633 120.791H197.133V91.3066H167.633V120.791ZM197.633 120.791H227.133V91.3066H197.633V120.791ZM227.633 120.791H257.133V91.3066H227.633V120.791ZM257.633 120.791H287.133V91.3066H257.633V120.791ZM287.633 120.791H316.133V91.3066H287.633V120.791ZM316.633 120.791H346.133V91.3066H316.633V120.791ZM18.6328 90.8066H48.1328V61.3223H18.6328V90.8066ZM48.6328 90.8066H78.1328V61.3223H48.6328V90.8066ZM78.6328 90.8066H107.133V61.3223H78.6328V90.8066ZM107.633 90.8066H137.133V61.3223H107.633V90.8066ZM137.633 90.8066H167.133V61.3223H137.633V90.8066ZM167.633 90.8066H197.133V61.3223H167.633V90.8066ZM197.633 90.8066H227.133V61.3223H197.633V90.8066ZM227.633 90.8066H257.133V61.3223H227.633V90.8066ZM257.633 90.8066H287.133V61.3223H257.633V90.8066ZM287.633 90.8066H316.133V61.3223H287.633V90.8066ZM316.633 90.8066H346.133V61.3223H316.633V90.8066ZM18.6328 60.8223H48.1328V31.3398H18.6328V60.8223ZM48.6328 60.8223H78.1328V31.3398H48.6328V60.8223ZM78.6328 60.8223H107.133V31.3398H78.6328V60.8223ZM107.633 60.8223H137.133V31.3398H107.633V60.8223ZM137.633 60.8223H167.133V31.3398H137.633V60.8223ZM167.633 60.8223H197.133V31.3398H167.633V60.8223ZM197.633 60.8223H227.133V31.3398H197.633V60.8223ZM227.633 60.8223H257.133V31.3398H227.633V60.8223ZM257.633 60.8223H287.133V31.3398H257.633V60.8223ZM287.633 60.8223H316.133V31.3398H287.633V60.8223ZM316.633 60.8223H346.133V31.3398H316.633V60.8223Z" fill="#78FEFF"/>
</svg>
