<svg width="16" height="14" viewBox="0 0 16 14" fill="none" xmlns="http://www.w3.org/2000/svg">
<path d="M8 0L15.7942 13.5H0.205771L8 0Z" fill="#FFBF49"/>
<path d="M7.49 9.43L7.22 6.01L7.17 4.52H8.83L8.78 6.01L8.51 9.43H7.49ZM8 12.09C7.74667 12.09 7.53667 12.0067 7.37 11.84C7.20333 11.6733 7.12 11.4633 7.12 11.21C7.12 10.95 7.20333 10.7367 7.37 10.57C7.53667 10.4033 7.74667 10.32 8 10.32C8.25333 10.32 8.46333 10.4033 8.63 10.57C8.79667 10.7367 8.88 10.95 8.88 11.21C8.88 11.4633 8.79667 11.6733 8.63 11.84C8.46333 12.0067 8.25333 12.09 8 12.09Z" fill="black"/>
</svg>
